<svg xmlns="http://www.w3.org/2000/svg" width="256" height="256" viewBox="0 0 256 256"><rect width="256" height="256" fill="#f1efe7"/><path d="M-6922.7,10962.3 L-6707.9,10873.0 L-6640.7,10840.7 L-6340.2,10696.4 L-6283.8,10751.0 L-6278.9,10755.7 L-6173.5,10665.5 L-6148.4,10646.4 L-6106.5,10608.6 L-5870.4,10391.8 L-5679.9,10174.2 L-5672.6,10160.3 L-5665.6,10152.4 L-5654.5,10139.7 L-5643.2,10126.8 L-5638.6,10121.5 L-5713.7,10024.4 L-5614.3,9964.8 L-5560.4,10036.5 L-5484.2,9949.3 L-5548.7,9863.9 L-5468.8,9780.6 L-5407.3,9861.6 L-5336.7,9781.2 L-5306.6,9761.5 L-5159.4,9666.0 L-5086.7,9617.7 L-4999.1,9560.1 L-4957.7,9532.9 L-4852.8,9465.2 L-4879.8,9429.7 L-4928.1,9365.0 L-4803.2,9285.6 L-4757.7,9262.1 L-4754.2,9259.6 L-4730.2,9241.1 L-4644.6,9195.3 L-4638.7,9186.1 L-4614.7,9169.6 L-4601.7,9150.6 L-4598.0,9147.8 L-4577.1,9139.7 L-4529.9,9122.8 L-4497.6,9108.6 L-4383.5,9055.0 L-4382.1,9058.7 L-4286.4,9017.8 L-4247.3,9067.9 L-4160.2,9009.8 L-4147.8,9001.3 L-4146.6,9000.3 L-4145.4,8998.7 L-4143.5,8995.4 L-4142.5,8992.3 L-4141.9,8988.6 L-4142.0,8985.6 L-4142.4,8982.7 L-4142.8,8979.4 L-4142.9,8976.9 L-4142.7,8974.8 L-4142.3,8972.6 L-4140.7,8968.6 L-4139.6,8966.4 L-4137.1,8962.6 L-4134.5,8959.8 L-4121.8,8954.7 L-4111.2,8950.7 L-4097.7,8946.3 L-4091.4,8944.6 L-4080.2,8940.9 L-4072.3,8938.1 L-4061.4,8933.6 L-4046.6,8927.1 L-4030.6,8919.6 L-4022.0,8915.4 L-4011.2,8909.9 L-4001.1,8904.3 L-3991.0,8898.3 L-3980.7,8891.6 L-3977.5,8889.4 L-3956.8,8873.6 L-3939.4,8860.2 L-3922.4,8845.8 L-3906.5,8830.8 L-3895.0,8817.9 L-3883.6,8804.0 L-3869.6,8786.0 L-3856.8,8768.0 L-3842.1,8744.9 L-3832.5,8727.0 L-3826.5,8715.6 L-3817.6,8696.3 L-3810.1,8678.4 L-3803.4,8659.1 L-3798.0,8642.2 L-3792.1,8614.8 L-3787.8,8590.3 L-3785.5,8569.3 L-3783.5,8544.5 L-3783.3,8518.0 L-3784.9,8493.5 L-3789.1,8461.5 L-3793.5,8439.7 L-3798.5,8419.1 L-3805.9,8395.7 L-3812.2,8377.8 L-3819.4,8358.3 L-3826.2,8342.1 L-3830.8,8331.6 L-3832.7,8323.9 L-3833.0,8318.0 L-3832.4,8312.7 L-3830.3,8308.1 L-3827.1,8304.2 L-3822.9,8302.0 L-3818.4,8301.4 L-3806.3,8304.3 L-3772.6,8312.4 L-3761.4,8057.7 L-3717.7,7603.1 L-3765.2,7591.9 L-3770.4,7577.6 L-3770.2,7557.1 L-3763.6,7510.6 L-3754.6,7500.1 L-3746.6,7469.9 L-3696.1,7481.6 L-3668.3,7191.1 L-3660.6,7110.7 L-3676.3,7106.8 L-3666.8,7068.4 L-3699.1,7060.7 L-3695.0,7037.2 L-3689.3,7021.7 L-3682.2,7003.6 L-3670.2,6978.3 L-3657.3,6981.2 L-3639.9,6798.5 L-3635.8,6687.7 L-3635.0,6667.3 L-3625.6,6596.8 L-3606.9,6421.1 L-3482.1,6095.7 L-3453.6,6007.0 L-3106.9,5874.0 L-3073.0,5860.4 L-3067.1,5857.2 L-3062.5,5853.0 L-3057.4,5847.1 L-3053.5,5840.2 L-3050.9,5833.4 L-3050.3,5823.5 L-3050.8,5811.2 L-3055.4,5655.7 L-3057.1,5625.6 L-3057.6,5604.9 L-3058.3,5564.7 L-3059.1,5552.1 L-3060.6,5541.5 L-3062.7,5532.1 L-3065.8,5522.5 L-3070.7,5511.2 L-3077.9,5499.1 L-3084.9,5489.5 L-3090.3,5480.4 L-3095.8,5468.3 L-3100.4,5456.7 L-3102.2,5447.2 L-3103.6,5436.7 L-3104.3,5426.2 L-3104.0,5416.0 L-3102.8,5404.1 L-3100.0,5392.4 L-3096.3,5382.0 L-3092.4,5372.5 L-3087.4,5363.3 L-3081.3,5352.1 L-3077.3,5342.0 L-3073.8,5329.1 L-3067.4,5319.3 L-3069.6,5230.1 L-3072.9,5224.9 L-3073.9,5164.3 L-3075.6,5092.8 L-3074.4,5082.9 L-3071.2,5072.8 L-3063.2,5057.0 L-3009.7,4941.9 L-3008.6,4940.0 L-2999.2,4919.5 L-2990.3,4900.1 L-2980.3,4880.1 L-2970.5,4859.5 L-2965.7,4849.5 L-2913.1,4741.6 L-2856.9,4622.4 L-2735.3,4375.6 L-2808.4,4293.7 L-2868.0,4420.7 L-2919.5,4530.6 L-2927.3,4546.2 L-2943.2,4578.7 L-2975.0,4576.0 L-2983.7,4575.5 L-2986.8,4578.3 L-2982.6,4582.1 L-2998.9,4596.6 L-3011.8,4608.5 L-3014.2,4659.4 L-3019.0,4669.6 L-3034.6,4669.0 L-3037.2,4668.1 L-3241.6,4583.7 L-3246.0,4581.4 L-3250.7,4578.4 L-3258.1,4572.8 L-3263.8,4567.4 L-3268.6,4562.2 L-3273.3,4555.8 L-3276.9,4550.2 L-3279.7,4544.4 L-3281.9,4538.3 L-3283.4,4534.1 L-3284.5,4529.0 L-3285.3,4523.0 L-3286.1,4514.8 L-3286.1,4503.1 L-3287.5,4463.4 L-3281.9,4463.1 L-3282.7,4442.1 L-3283.6,4407.5 L-3278.4,4407.4 L-3278.8,4383.8 L-3284.7,4383.9 L-3287.4,4284.5 L-3281.8,4284.2 L-3282.7,4260.9 L-3288.1,4261.1 L-3290.4,4187.6 L-3263.4,4158.5 L-3228.9,4157.3 L-3203.2,4156.4 L-3169.3,4155.3 L-3136.7,4154.3 L-3107.5,4153.3 L-3094.8,4152.7 L-3095.4,4141.4 L-3095.6,4129.6 L-3097.5,4091.3 L-3098.2,4018.2 L-3099.2,4016.9 L-3099.4,4009.7 L-3097.3,4009.6 L-3102.4,3833.5 L-3106.8,3667.8 L-3107.5,3662.6 L-3107.9,3653.0 L-3180.1,3655.6 L-3228.1,3651.5 L-3587.4,3664.0 L-3587.5,3660.8 L-3588.2,3645.5 L-3758.6,3651.5 L-3758.9,3623.2 L-3781.4,3618.1 L-3785.4,3497.0 L-3122.6,3474.0 L-3111.6,3458.9 L-3112.0,3415.9 L-3112.8,3378.7 L-3113.4,3355.4 L-3114.3,3332.7 L-3167.0,3307.9 L-3169.1,3252.8 L-3115.1,3226.0 L-3120.0,3098.5 L-3121.4,3092.2 L-3175.1,3067.1 L-3176.8,2998.9 L-3125.8,2972.6 L-3148.5,2695.7 L-3142.5,2572.5 L-3139.5,2371.6 L-3139.7,2153.1 L-3134.9,2122.5 L-3134.6,2107.7 L-3139.4,2089.9 L-3134.4,2089.9 L-3134.4,2073.8 L-3131.4,1662.8 L-3131.9,1644.5 L-3137.6,1644.5 L-3137.4,1568.9 L-3140.7,1564.2 L-3145.9,1486.2 L-3135.6,1414.9 L-3136.9,1328.6 L-3140.4,1307.9 L-3135.1,1244.0 L-3138.7,1166.7 L-3147.7,1084.0 L-3164.8,950.0 L-3156.7,913.1 L-3160.3,877.2 L-3190.9,851.1 L-3235.8,851.5 L-3304.2,860.5 L-3348.7,860.5 L-3389.1,845.7 L-3442.2,809.3 L-3442.2,744.0 L-3443.6,663.7 L-3438.4,596.8 L-3420.8,544.6 L-3126.1,539.1 L-3119.3,121.2 L-3119.3,-480.4 L-3122.4,-698.7 L12789.8,-7270.4 L12789.8,28947.8 L-6922.7,28947.8 L-6922.7,10962.3 Z" fill="#add7e1" stroke="none"><title>Biscayne Bay</title></path><path d="M-3987.5,1592.4 L-4024.7,433.0 L-3763.8,-2176.0 L2760.7,-2176.0 L4214.7,-1306.3 L4214.7,184.5 L2798.0,1302.6 L-408.3,1592.4 Z" fill="#add7e1" stroke="none"><title>Biscayne Bay</title></path></svg>