<svg xmlns="http://www.w3.org/2000/svg" width="256" height="256" viewBox="0 0 256 256"><rect width="256" height="256" fill="#f1efe7"/><path d="M198.7,93.4 L542.0,81.3 L544.1,139.9 L530.5,140.4 L530.7,147.8 L545.0,147.3 L546.9,201.2 L537.7,201.5 L537.8,203.5 L488.4,205.3 L488.8,215.7 L310.7,222.0 L308.4,153.6 L488.1,147.3 L487.9,141.9 L200.8,151.9 L198.7,93.4 Z" fill="#d6d2c9" stroke="#bab6ad" stroke-width="0.4"></path><path d="M-64.8,249.2 L-68.0,164.0 L117.1,157.0 L120.3,242.2 L-64.8,249.2 Z" fill="#d6d2c9" stroke="#bab6ad" stroke-width="0.4"></path><path d="M203.1,225.3 L200.8,158.0 L269.1,155.6 L271.5,222.9 L203.1,225.3 Z" fill="#d6d2c9" stroke="#bab6ad" stroke-width="0.4"></path><path d="M15.8,4.4 L-46.6,5.7 L-47.5,-35.9 L14.9,-37.2 L15.8,4.4 Z" fill="#d6d2c9" stroke="#bab6ad" stroke-width="0.4"></path><path d="M446.6,40.5 L336.7,44.1 L336.8,46.5 L204.9,50.8 L204.7,42.4 L197.4,42.6 L194.6,-41.7 L466.0,-50.6 L468.7,34.1 L446.4,34.8 L446.6,40.5 Z" fill="#d6d2c9" stroke="#bab6ad" stroke-width="0.4"></path><path d="M150.9,27.8 L20.7,32.1 L18.5,-35.7 L153.3,-40.1 L155.4,23.1 L150.9,27.8 Z" fill="#d6d2c9" stroke="#bab6ad" stroke-width="0.4"></path><path d="M74.3,96.5 L40.6,97.7 L40.2,88.9 L74.0,87.7 L74.3,96.5 Z" fill="#d6d2c9" stroke="#bab6ad" stroke-width="0.4"></path><path d="M-54.8,122.1 L178.3,116.7" fill="none" stroke="#cec8bb" stroke-width="3.5" stroke-linecap="round" stroke-linejoin="round"/><path d="M-54.8,122.1 L178.3,116.7" fill="none" stroke="#ffffff" stroke-width="2.5" stroke-linecap="round" stroke-linejoin="round"><title>Northwest 51st Street</title></path><path d="M176.7,49.0 L-142.9,62.6" fill="none" stroke="#cec8bb" stroke-width="4.8" stroke-linecap="round" stroke-linejoin="round"/><path d="M176.7,49.0 L-142.9,62.6" fill="none" stroke="#ffffff" stroke-width="3.7" stroke-linecap="round" stroke-linejoin="round"><title>Northwest 51st Terrace</title></path><path d="M456.8,68.4 L198.0,75.4 L176.2,76.9" fill="none" stroke="#cec8bb" stroke-width="4.8" stroke-linecap="round" stroke-linejoin="round"/><path d="M456.8,68.4 L198.0,75.4 L176.2,76.9" fill="none" stroke="#ffffff" stroke-width="3.7" stroke-linecap="round" stroke-linejoin="round"><title>Northwest 51st Street</title></path><path d="M182.5,255.6 L-160.7,265.9" fill="none" stroke="#cec8bb" stroke-width="4.8" stroke-linecap="round" stroke-linejoin="round"/><path d="M182.5,255.6 L-160.7,265.9" fill="none" stroke="#ffffff" stroke-width="3.7" stroke-linecap="round" stroke-linejoin="round"><title>Northwest 50th Street</title></path><path d="M562.1,235.4 L182.3,249.3" fill="none" stroke="#cec8bb" stroke-width="4.8" stroke-linecap="round" stroke-linejoin="round"/><path d="M562.1,235.4 L182.3,249.3" fill="none" stroke="#ffffff" stroke-width="3.7" stroke-linecap="round" stroke-linejoin="round"><title>Northwest 50th Street</title></path><path d="M184.1,342.7 L182.5,255.6 L182.3,249.3 L178.3,116.7 L176.2,76.9 L176.7,49.0 L174.5,-44.5 L169.9,-142.5" fill="none" stroke="#d1c4aa" stroke-width="5.4" stroke-linecap="round" stroke-linejoin="round"/><path d="M184.1,342.7 L182.5,255.6 L182.3,249.3 L178.3,116.7 L176.2,76.9 L176.7,49.0 L174.5,-44.5 L169.9,-142.5" fill="none" stroke="#f4d99b" stroke-width="4.0" stroke-linecap="round" stroke-linejoin="round"><title>Northwest 37th Avenue</title></path><path d="M-62.3,-41.2 L-45.9,-44.7 L-33.3,-46.3 L-9.4,-47.5 L36.2,-45.2 L66.7,-43.6 L98.3,-43.9 L174.5,-44.5 L534.7,-56.5" fill="none" stroke="#fbf8ef" stroke-width="6.9" stroke-linecap="round" stroke-linejoin="round"/><path d="M-62.3,-41.2 L-45.9,-44.7 L-33.3,-46.3 L-9.4,-47.5 L36.2,-45.2 L66.7,-43.6 L98.3,-43.9 L174.5,-44.5 L534.7,-56.5" fill="none" stroke="#465158" stroke-width="4.7" stroke-linecap="round" stroke-linejoin="round"><title>CSX Transportation</title></path><path d="M-62.3,-41.2 L-45.9,-44.7 L-33.3,-46.3 L-9.4,-47.5 L36.2,-45.2 L66.7,-43.6 L98.3,-43.9 L174.5,-44.5 L534.7,-56.5" fill="none" stroke="#ffffff" stroke-width="2.9" stroke-linecap="round" stroke-linejoin="round"/><text x="180.2" y="178.4" transform="rotate(88.2 180.2 178.4)" text-anchor="middle" dominant-baseline="central" font-family="Arial, sans-serif" font-size="8.3" textLength="111.6" lengthAdjust="spacing" font-weight="650" paint-order="stroke" stroke="#fffaf0" stroke-width="2.05" stroke-linejoin="round" fill="#6f573d">Northwest 37th Avenue</text><text x="96.3" y="52.4" transform="rotate(-2.4 96.3 52.4)" text-anchor="middle" dominant-baseline="central" font-family="Arial, sans-serif" font-size="8.3" textLength="116.9" lengthAdjust="spacing" font-weight="650" paint-order="stroke" stroke="#fffaf0" stroke-width="2.05" stroke-linejoin="round" fill="#695f54">Northwest 51st Terrace</text><text x="97.1" y="118.6" transform="rotate(-1.3 97.1 118.6)" text-anchor="middle" dominant-baseline="central" font-family="Arial, sans-serif" font-size="8.3" textLength="111.6" lengthAdjust="spacing" font-weight="650" paint-order="stroke" stroke="#fffaf0" stroke-width="2.05" stroke-linejoin="round" fill="#695f54">Northwest 51st Street</text><text x="99.7" y="16.5" text-anchor="middle" font-family="Arial, sans-serif" font-size="6.5" textLength="18.0" lengthAdjust="spacing" font-weight="500" paint-order="stroke" stroke="#f3f5ee" stroke-width="1.55" stroke-linejoin="round" fill="#6f777a">5100</text><text x="220.4" y="213.9" text-anchor="middle" font-family="Arial, sans-serif" font-size="6.5" textLength="18.0" lengthAdjust="spacing" font-weight="500" paint-order="stroke" stroke="#f3f5ee" stroke-width="1.55" stroke-linejoin="round" fill="#6f777a">5005</text><text x="241.0" y="185.8" text-anchor="middle" font-family="Arial, sans-serif" font-size="6.5" textLength="18.0" lengthAdjust="spacing" font-weight="500" paint-order="stroke" stroke="#f3f5ee" stroke-width="1.55" stroke-linejoin="round" fill="#6f777a">3677</text><text x="15.0" y="199.7" text-anchor="middle" font-family="Arial, sans-serif" font-size="6.5" textLength="18.0" lengthAdjust="spacing" font-weight="500" paint-order="stroke" stroke="#f3f5ee" stroke-width="1.55" stroke-linejoin="round" fill="#6f777a">5000</text></svg>