<svg xmlns="http://www.w3.org/2000/svg" width="256" height="256" viewBox="0 0 256 256"><rect width="256" height="256" fill="#f1efe7"/><path d="M-12554.7,-5165.7 L-12339.9,-5255.0 L-12272.7,-5287.3 L-11972.2,-5431.6 L-11915.8,-5377.0 L-11910.9,-5372.3 L-11805.5,-5462.5 L-11780.4,-5481.6 L-11738.5,-5519.4 L-11502.4,-5736.2 L-11311.9,-5953.8 L-11304.6,-5967.7 L-11297.6,-5975.6 L-11286.5,-5988.3 L-11275.2,-6001.2 L-11270.6,-6006.5 L-11345.7,-6103.6 L-11246.3,-6163.2 L-11192.4,-6091.5 L-11116.2,-6178.7 L-11180.7,-6264.1 L-11100.8,-6347.4 L-11039.3,-6266.4 L-10968.7,-6346.8 L-10938.6,-6366.5 L-10791.4,-6462.0 L-10718.7,-6510.3 L-10631.1,-6567.9 L-10589.7,-6595.1 L-10484.8,-6662.8 L-10511.8,-6698.3 L-10560.1,-6763.0 L-10435.2,-6842.4 L-10389.7,-6865.9 L-10386.2,-6868.4 L-10362.2,-6886.9 L-10276.6,-6932.7 L-10270.7,-6941.9 L-10246.7,-6958.4 L-10233.7,-6977.4 L-10230.0,-6980.2 L-10209.1,-6988.3 L-10161.9,-7005.2 L-10129.6,-7019.4 L-10015.5,-7073.0 L-10014.1,-7069.3 L-9918.4,-7110.2 L-9879.3,-7060.1 L-9792.2,-7118.2 L-9779.8,-7126.7 L-9778.6,-7127.7 L-9777.4,-7129.3 L-9775.5,-7132.6 L-9774.5,-7135.7 L-9773.9,-7139.4 L-9774.0,-7142.4 L-9774.4,-7145.3 L-9774.8,-7148.6 L-9774.9,-7151.1 L-9774.7,-7153.2 L-9774.3,-7155.4 L-9772.7,-7159.4 L-9771.6,-7161.6 L-9769.1,-7165.4 L-9766.5,-7168.2 L-9753.8,-7173.3 L-9743.2,-7177.3 L-9729.7,-7181.7 L-9723.4,-7183.4 L-9712.2,-7187.1 L-9704.3,-7189.9 L-9693.4,-7194.4 L-9678.6,-7200.9 L-9662.6,-7208.4 L-9654.0,-7212.6 L-9643.2,-7218.1 L-9633.1,-7223.7 L-9623.0,-7229.7 L-9612.7,-7236.4 L-9609.5,-7238.6 L-9588.8,-7254.4 L-9571.4,-7267.8 L-9554.4,-7282.2 L-9538.5,-7297.2 L-9527.0,-7310.1 L-9515.6,-7324.0 L-9501.6,-7342.0 L-9488.8,-7360.0 L-9474.1,-7383.1 L-9464.5,-7401.0 L-9458.5,-7412.4 L-9449.6,-7431.7 L-9442.1,-7449.6 L-9435.4,-7468.9 L-9430.0,-7485.8 L-9424.1,-7513.2 L-9419.8,-7537.7 L-9417.5,-7558.7 L-9415.5,-7583.5 L-9415.3,-7610.0 L-9416.9,-7634.5 L-9421.1,-7666.5 L-9425.5,-7688.3 L-9430.5,-7708.9 L-9437.9,-7732.3 L-9444.2,-7750.2 L-9451.4,-7769.7 L-9458.2,-7785.9 L-9462.8,-7796.4 L-9464.7,-7804.1 L-9465.0,-7810.0 L-9464.4,-7815.3 L-9462.3,-7819.9 L-9459.1,-7823.8 L-9454.9,-7826.0 L-9450.4,-7826.6 L-9438.3,-7823.7 L-9404.6,-7815.6 L-9393.4,-8070.3 L-9349.7,-8524.9 L-9397.2,-8536.1 L-9402.4,-8550.4 L-9402.2,-8570.9 L-9395.6,-8617.4 L-9386.6,-8627.9 L-9378.6,-8658.1 L-9328.1,-8646.4 L-9300.3,-8936.9 L-9292.6,-9017.3 L-9308.3,-9021.2 L-9298.8,-9059.6 L-9331.1,-9067.3 L-9327.0,-9090.8 L-9321.3,-9106.3 L-9314.2,-9124.4 L-9302.2,-9149.7 L-9289.3,-9146.8 L-9271.9,-9329.5 L-9267.8,-9440.3 L-9267.0,-9460.7 L-9257.6,-9531.2 L-9238.9,-9706.9 L-9114.1,-10032.3 L-9085.6,-10121.0 L-8738.9,-10254.0 L-8705.0,-10267.6 L-8699.1,-10270.8 L-8694.5,-10275.0 L-8689.4,-10280.9 L-8685.5,-10287.8 L-8682.9,-10294.6 L-8682.3,-10304.5 L-8682.8,-10316.8 L-8687.4,-10472.3 L-8689.1,-10502.4 L-8689.6,-10523.1 L-8690.3,-10563.3 L-8691.1,-10575.9 L-8692.6,-10586.5 L-8694.7,-10595.9 L-8697.8,-10605.5 L-8702.7,-10616.8 L-8709.9,-10628.9 L-8716.9,-10638.5 L-8722.3,-10647.6 L-8727.8,-10659.7 L-8732.4,-10671.3 L-8734.2,-10680.8 L-8735.6,-10691.3 L-8736.3,-10701.8 L-8736.0,-10712.0 L-8734.8,-10723.9 L-8732.0,-10735.6 L-8728.3,-10746.0 L-8724.4,-10755.5 L-8719.4,-10764.7 L-8713.3,-10775.9 L-8709.3,-10786.0 L-8705.8,-10798.9 L-8699.4,-10808.7 L-8701.6,-10897.9 L-8704.9,-10903.1 L-8705.9,-10963.7 L-8707.6,-11035.2 L-8706.4,-11045.1 L-8703.2,-11055.2 L-8695.2,-11071.0 L-8641.7,-11186.1 L-8640.6,-11188.0 L-8631.2,-11208.5 L-8622.3,-11227.9 L-8612.3,-11247.9 L-8602.5,-11268.5 L-8597.7,-11278.5 L-8545.1,-11386.4 L-8488.9,-11505.6 L-8367.3,-11752.4 L-8440.4,-11834.3 L-8500.0,-11707.3 L-8551.5,-11597.4 L-8559.3,-11581.8 L-8575.2,-11549.3 L-8607.0,-11552.0 L-8615.7,-11552.5 L-8618.8,-11549.7 L-8614.6,-11545.9 L-8630.9,-11531.4 L-8643.8,-11519.5 L-8646.2,-11468.6 L-8651.0,-11458.4 L-8666.6,-11459.0 L-8669.2,-11459.9 L-8873.6,-11544.3 L-8878.0,-11546.6 L-8882.7,-11549.6 L-8890.1,-11555.2 L-8895.8,-11560.6 L-8900.6,-11565.8 L-8905.3,-11572.2 L-8908.9,-11577.8 L-8911.7,-11583.6 L-8913.9,-11589.7 L-8915.4,-11593.9 L-8916.5,-11599.0 L-8917.3,-11605.0 L-8918.1,-11613.2 L-8918.1,-11624.9 L-8919.5,-11664.6 L-8913.9,-11664.9 L-8914.7,-11685.9 L-8915.6,-11720.5 L-8910.4,-11720.6 L-8910.8,-11744.2 L-8916.7,-11744.1 L-8919.4,-11843.5 L-8913.8,-11843.8 L-8914.7,-11867.1 L-8920.1,-11866.9 L-8922.4,-11940.4 L-8895.4,-11969.5 L-8860.9,-11970.7 L-8835.2,-11971.6 L-8801.3,-11972.7 L-8768.7,-11973.7 L-8739.5,-11974.7 L-8726.8,-11975.3 L-8727.4,-11986.6 L-8727.6,-11998.4 L-8729.5,-12036.7 L-8730.2,-12109.8 L-8731.2,-12111.1 L-8731.4,-12118.3 L-8729.3,-12118.4 L-8734.4,-12294.5 L-8738.8,-12460.2 L-8739.5,-12465.4 L-8739.9,-12475.0 L-8812.1,-12472.4 L-8860.1,-12476.5 L-9219.4,-12464.0 L-9219.5,-12467.2 L-9220.2,-12482.5 L-9390.6,-12476.5 L-9390.9,-12504.8 L-9413.4,-12509.9 L-9417.4,-12631.0 L-8754.6,-12654.0 L-8743.6,-12669.1 L-8744.0,-12712.1 L-8744.8,-12749.3 L-8745.4,-12772.6 L-8746.3,-12795.3 L-8799.0,-12820.1 L-8801.1,-12875.2 L-8747.1,-12902.0 L-8752.0,-13029.5 L-8753.4,-13035.8 L-8807.1,-13060.9 L-8808.8,-13129.1 L-8757.8,-13155.4 L-8780.5,-13432.3 L-8774.5,-13555.5 L-8771.5,-13756.4 L-8771.7,-13974.9 L-8766.9,-14005.5 L-8766.6,-14020.3 L-8771.4,-14038.1 L-8766.4,-14038.1 L-8766.4,-14054.2 L-8763.4,-14465.2 L-8763.9,-14483.5 L-8769.6,-14483.5 L-8769.4,-14559.1 L-8772.7,-14563.8 L-8777.9,-14641.8 L-8767.6,-14713.1 L-8768.9,-14799.4 L-8772.4,-14820.1 L-8767.1,-14884.0 L-8770.7,-14961.3 L-8779.7,-15044.0 L-8796.8,-15178.0 L-8788.7,-15214.9 L-8792.3,-15250.8 L-8822.9,-15276.9 L-8867.8,-15276.5 L-8936.2,-15267.5 L-8980.7,-15267.5 L-9021.1,-15282.3 L-9074.2,-15318.7 L-9074.2,-15384.0 L-9075.6,-15464.3 L-9070.4,-15531.2 L-9052.8,-15583.4 L-8758.1,-15588.9 L-8751.3,-16006.8 L-8751.3,-16608.4 L-8754.4,-16826.7 L7157.8,-23398.4 L7157.8,12819.8 L-12554.7,12819.8 L-12554.7,-5165.7 Z" fill="#add7e1" stroke="none"><title>Biscayne Bay</title></path><path d="M-1.0,-1.0 L257.0,-1.0 L257.0,257.0 L-1.0,257.0 L-1.0,-1.0 Z" fill="#add7e1" stroke="none" fill-rule="evenodd"><title>Biscayne Bay</title></path></svg>