<svg xmlns="http://www.w3.org/2000/svg" width="256" height="256" viewBox="0 0 256 256"><rect width="256" height="256" fill="#f1efe7"/><path d="M-12554.7,-16685.7 L-12339.9,-16775.0 L-12272.7,-16807.3 L-11972.2,-16951.6 L-11915.8,-16897.0 L-11910.9,-16892.3 L-11805.5,-16982.5 L-11780.4,-17001.6 L-11738.5,-17039.4 L-11502.4,-17256.2 L-11311.9,-17473.8 L-11304.6,-17487.7 L-11297.6,-17495.6 L-11286.5,-17508.3 L-11275.2,-17521.2 L-11270.6,-17526.5 L-11345.7,-17623.6 L-11246.3,-17683.2 L-11192.4,-17611.5 L-11116.2,-17698.7 L-11180.7,-17784.1 L-11100.8,-17867.4 L-11039.3,-17786.4 L-10968.7,-17866.8 L-10938.6,-17886.5 L-10791.4,-17982.0 L-10718.7,-18030.3 L-10631.1,-18087.9 L-10589.7,-18115.1 L-10484.8,-18182.8 L-10511.8,-18218.3 L-10560.1,-18283.0 L-10435.2,-18362.4 L-10389.7,-18385.9 L-10386.2,-18388.4 L-10362.2,-18406.9 L-10276.6,-18452.7 L-10270.7,-18461.9 L-10246.7,-18478.4 L-10233.7,-18497.4 L-10230.0,-18500.2 L-10209.1,-18508.3 L-10161.9,-18525.2 L-10129.6,-18539.4 L-10015.5,-18593.0 L-10014.1,-18589.3 L-9918.4,-18630.2 L-9879.3,-18580.1 L-9792.2,-18638.2 L-9779.8,-18646.7 L-9778.6,-18647.7 L-9777.4,-18649.3 L-9775.5,-18652.6 L-9774.5,-18655.7 L-9773.9,-18659.4 L-9774.0,-18662.4 L-9774.4,-18665.3 L-9774.8,-18668.6 L-9774.9,-18671.1 L-9774.7,-18673.2 L-9774.3,-18675.4 L-9772.7,-18679.4 L-9771.6,-18681.6 L-9769.1,-18685.4 L-9766.5,-18688.2 L-9753.8,-18693.3 L-9743.2,-18697.3 L-9729.7,-18701.7 L-9723.4,-18703.4 L-9712.2,-18707.1 L-9704.3,-18709.9 L-9693.4,-18714.4 L-9678.6,-18720.9 L-9662.6,-18728.4 L-9654.0,-18732.6 L-9643.2,-18738.1 L-9633.1,-18743.7 L-9623.0,-18749.7 L-9612.7,-18756.4 L-9609.5,-18758.6 L-9588.8,-18774.4 L-9571.4,-18787.8 L-9554.4,-18802.2 L-9538.5,-18817.2 L-9527.0,-18830.1 L-9515.6,-18844.0 L-9501.6,-18862.0 L-9488.8,-18880.0 L-9474.1,-18903.1 L-9464.5,-18921.0 L-9458.5,-18932.4 L-9449.6,-18951.7 L-9442.1,-18969.6 L-9435.4,-18988.9 L-9430.0,-19005.8 L-9424.1,-19033.2 L-9419.8,-19057.7 L-9417.5,-19078.7 L-9415.5,-19103.5 L-9415.3,-19130.0 L-9416.9,-19154.5 L-9421.1,-19186.5 L-9425.5,-19208.3 L-9430.5,-19228.9 L-9437.9,-19252.3 L-9444.2,-19270.2 L-9451.4,-19289.7 L-9458.2,-19305.9 L-9462.8,-19316.4 L-9464.7,-19324.1 L-9465.0,-19330.0 L-9464.4,-19335.3 L-9462.3,-19339.9 L-9459.1,-19343.8 L-9454.9,-19346.0 L-9450.4,-19346.6 L-9438.3,-19343.7 L-9404.6,-19335.6 L-9393.4,-19590.3 L-9349.7,-20044.9 L-9397.2,-20056.1 L-9402.4,-20070.4 L-9402.2,-20090.9 L-9395.6,-20137.4 L-9386.6,-20147.9 L-9378.6,-20178.1 L-9328.1,-20166.4 L-9300.3,-20456.9 L-9292.6,-20537.3 L-9308.3,-20541.2 L-9298.8,-20579.6 L-9331.1,-20587.3 L-9327.0,-20610.8 L-9321.3,-20626.3 L-9314.2,-20644.4 L-9302.2,-20669.7 L-9289.3,-20666.8 L-9271.9,-20849.5 L-9267.8,-20960.3 L-9267.0,-20980.7 L-9257.6,-21051.2 L-9238.9,-21226.9 L-9114.1,-21552.3 L-9085.6,-21641.0 L-8738.9,-21774.0 L-8705.0,-21787.6 L-8699.1,-21790.8 L-8694.5,-21795.0 L-8689.4,-21800.9 L-8685.5,-21807.8 L-8682.9,-21814.6 L-8682.3,-21824.5 L-8682.8,-21836.8 L-8687.4,-21992.3 L-8689.1,-22022.4 L-8689.6,-22043.1 L-8690.3,-22083.3 L-8691.1,-22095.9 L-8692.6,-22106.5 L-8694.7,-22115.9 L-8697.8,-22125.5 L-8702.7,-22136.8 L-8709.9,-22148.9 L-8716.9,-22158.5 L-8722.3,-22167.6 L-8727.8,-22179.7 L-8732.4,-22191.3 L-8734.2,-22200.8 L-8735.6,-22211.3 L-8736.3,-22221.8 L-8736.0,-22232.0 L-8734.8,-22243.9 L-8732.0,-22255.6 L-8728.3,-22266.0 L-8724.4,-22275.5 L-8719.4,-22284.7 L-8713.3,-22295.9 L-8709.3,-22306.0 L-8705.8,-22318.9 L-8699.4,-22328.7 L-8701.6,-22417.9 L-8704.9,-22423.1 L-8705.9,-22483.7 L-8707.6,-22555.2 L-8706.4,-22565.1 L-8703.2,-22575.2 L-8695.2,-22591.0 L-8641.7,-22706.1 L-8640.6,-22708.0 L-8631.2,-22728.5 L-8622.3,-22747.9 L-8612.3,-22767.9 L-8602.5,-22788.5 L-8597.7,-22798.5 L-8545.1,-22906.4 L-8488.9,-23025.6 L-8367.3,-23272.4 L-8440.4,-23354.3 L-8500.0,-23227.3 L-8551.5,-23117.4 L-8559.3,-23101.8 L-8575.2,-23069.3 L-8607.0,-23072.0 L-8615.7,-23072.5 L-8618.8,-23069.7 L-8614.6,-23065.9 L-8630.9,-23051.4 L-8643.8,-23039.5 L-8646.2,-22988.6 L-8651.0,-22978.4 L-8666.6,-22979.0 L-8669.2,-22979.9 L-8873.6,-23064.3 L-8878.0,-23066.6 L-8882.7,-23069.6 L-8890.1,-23075.2 L-8895.8,-23080.6 L-8900.6,-23085.8 L-8905.3,-23092.2 L-8908.9,-23097.8 L-8911.7,-23103.6 L-8913.9,-23109.7 L-8915.4,-23113.9 L-8916.5,-23119.0 L-8917.3,-23125.0 L-8918.1,-23133.2 L-8918.1,-23144.9 L-8919.5,-23184.6 L-8913.9,-23184.9 L-8914.7,-23205.9 L-8915.6,-23240.5 L-8910.4,-23240.6 L-8910.8,-23264.2 L-8916.7,-23264.1 L-8919.4,-23363.5 L-8913.8,-23363.8 L-8914.7,-23387.1 L-8920.1,-23386.9 L-8922.4,-23460.4 L-8895.4,-23489.5 L-8860.9,-23490.7 L-8835.2,-23491.6 L-8801.3,-23492.7 L-8768.7,-23493.7 L-8739.5,-23494.7 L-8726.8,-23495.3 L-8727.4,-23506.6 L-8727.6,-23518.4 L-8729.5,-23556.7 L-8730.2,-23629.8 L-8731.2,-23631.1 L-8731.4,-23638.3 L-8729.3,-23638.4 L-8734.4,-23814.5 L-8738.8,-23980.2 L-8739.5,-23985.4 L-8739.9,-23995.0 L-8812.1,-23992.4 L-8860.1,-23996.5 L-9219.4,-23984.0 L-9219.5,-23987.2 L-9220.2,-24002.5 L-9390.6,-23996.5 L-9390.9,-24024.8 L-9413.4,-24029.9 L-9417.4,-24151.0 L-8754.6,-24174.0 L-8743.6,-24189.1 L-8744.0,-24232.1 L-8744.8,-24269.3 L-8745.4,-24292.6 L-8746.3,-24315.3 L-8799.0,-24340.1 L-8801.1,-24395.2 L-8747.1,-24422.0 L-8752.0,-24549.5 L-8753.4,-24555.8 L-8807.1,-24580.9 L-8808.8,-24649.1 L-8757.8,-24675.4 L-8780.5,-24952.3 L-8774.5,-25075.5 L-8771.5,-25276.4 L-8771.7,-25494.9 L-8766.9,-25525.5 L-8766.6,-25540.3 L-8771.4,-25558.1 L-8766.4,-25558.1 L-8766.4,-25574.2 L-8763.4,-25985.2 L-8763.9,-26003.5 L-8769.6,-26003.5 L-8769.4,-26079.1 L-8772.7,-26083.8 L-8777.9,-26161.8 L-8767.6,-26233.1 L-8768.9,-26319.4 L-8772.4,-26340.1 L-8767.1,-26404.0 L-8770.7,-26481.3 L-8779.7,-26564.0 L-8796.8,-26698.0 L-8788.7,-26734.9 L-8792.3,-26770.8 L-8822.9,-26796.9 L-8867.8,-26796.5 L-8936.2,-26787.5 L-8980.7,-26787.5 L-9021.1,-26802.3 L-9074.2,-26838.7 L-9074.2,-26904.0 L-9075.6,-26984.3 L-9070.4,-27051.2 L-9052.8,-27103.4 L-8758.1,-27108.9 L-8751.3,-27526.8 L-8751.3,-28128.4 L-8754.4,-28346.7 L7157.8,-34918.4 L7157.8,1299.8 L-12554.7,1299.8 L-12554.7,-16685.7 Z" fill="#add7e1" stroke="none"><title>Biscayne Bay</title></path><path d="M-1.0,-1.0 L257.0,-1.0 L257.0,257.0 L-1.0,257.0 L-1.0,-1.0 Z" fill="#add7e1" stroke="none" fill-rule="evenodd"><title>Biscayne Bay</title></path></svg>