<svg xmlns="http://www.w3.org/2000/svg" width="256" height="256" viewBox="0 0 256 256"><rect width="256" height="256" fill="#f1efe7"/><path d="M-11274.7,-5165.7 L-11059.9,-5255.0 L-10992.7,-5287.3 L-10692.2,-5431.6 L-10635.8,-5377.0 L-10630.9,-5372.3 L-10525.5,-5462.5 L-10500.4,-5481.6 L-10458.5,-5519.4 L-10222.4,-5736.2 L-10031.9,-5953.8 L-10024.6,-5967.7 L-10017.6,-5975.6 L-10006.5,-5988.3 L-9995.2,-6001.2 L-9990.6,-6006.5 L-10065.7,-6103.6 L-9966.3,-6163.2 L-9912.4,-6091.5 L-9836.2,-6178.7 L-9900.7,-6264.1 L-9820.8,-6347.4 L-9759.3,-6266.4 L-9688.7,-6346.8 L-9658.6,-6366.5 L-9511.4,-6462.0 L-9438.7,-6510.3 L-9351.1,-6567.9 L-9309.7,-6595.1 L-9204.8,-6662.8 L-9231.8,-6698.3 L-9280.1,-6763.0 L-9155.2,-6842.4 L-9109.7,-6865.9 L-9106.2,-6868.4 L-9082.2,-6886.9 L-8996.6,-6932.7 L-8990.7,-6941.9 L-8966.7,-6958.4 L-8953.7,-6977.4 L-8950.0,-6980.2 L-8929.1,-6988.3 L-8881.9,-7005.2 L-8849.6,-7019.4 L-8735.5,-7073.0 L-8734.1,-7069.3 L-8638.4,-7110.2 L-8599.3,-7060.1 L-8512.2,-7118.2 L-8499.8,-7126.7 L-8498.6,-7127.7 L-8497.4,-7129.3 L-8495.5,-7132.6 L-8494.5,-7135.7 L-8493.9,-7139.4 L-8494.0,-7142.4 L-8494.4,-7145.3 L-8494.8,-7148.6 L-8494.9,-7151.1 L-8494.7,-7153.2 L-8494.3,-7155.4 L-8492.7,-7159.4 L-8491.6,-7161.6 L-8489.1,-7165.4 L-8486.5,-7168.2 L-8473.8,-7173.3 L-8463.2,-7177.3 L-8449.7,-7181.7 L-8443.4,-7183.4 L-8432.2,-7187.1 L-8424.3,-7189.9 L-8413.4,-7194.4 L-8398.6,-7200.9 L-8382.6,-7208.4 L-8374.0,-7212.6 L-8363.2,-7218.1 L-8353.1,-7223.7 L-8343.0,-7229.7 L-8332.7,-7236.4 L-8329.5,-7238.6 L-8308.8,-7254.4 L-8291.4,-7267.8 L-8274.4,-7282.2 L-8258.5,-7297.2 L-8247.0,-7310.1 L-8235.6,-7324.0 L-8221.6,-7342.0 L-8208.8,-7360.0 L-8194.1,-7383.1 L-8184.5,-7401.0 L-8178.5,-7412.4 L-8169.6,-7431.7 L-8162.1,-7449.6 L-8155.4,-7468.9 L-8150.0,-7485.8 L-8144.1,-7513.2 L-8139.8,-7537.7 L-8137.5,-7558.7 L-8135.5,-7583.5 L-8135.3,-7610.0 L-8136.9,-7634.5 L-8141.1,-7666.5 L-8145.5,-7688.3 L-8150.5,-7708.9 L-8157.9,-7732.3 L-8164.2,-7750.2 L-8171.4,-7769.7 L-8178.2,-7785.9 L-8182.8,-7796.4 L-8184.7,-7804.1 L-8185.0,-7810.0 L-8184.4,-7815.3 L-8182.3,-7819.9 L-8179.1,-7823.8 L-8174.9,-7826.0 L-8170.4,-7826.6 L-8158.3,-7823.7 L-8124.6,-7815.6 L-8113.4,-8070.3 L-8069.7,-8524.9 L-8117.2,-8536.1 L-8122.4,-8550.4 L-8122.2,-8570.9 L-8115.6,-8617.4 L-8106.6,-8627.9 L-8098.6,-8658.1 L-8048.1,-8646.4 L-8020.3,-8936.9 L-8012.6,-9017.3 L-8028.3,-9021.2 L-8018.8,-9059.6 L-8051.1,-9067.3 L-8047.0,-9090.8 L-8041.3,-9106.3 L-8034.2,-9124.4 L-8022.2,-9149.7 L-8009.3,-9146.8 L-7991.9,-9329.5 L-7987.8,-9440.3 L-7987.0,-9460.7 L-7977.6,-9531.2 L-7958.9,-9706.9 L-7834.1,-10032.3 L-7805.6,-10121.0 L-7458.9,-10254.0 L-7425.0,-10267.6 L-7419.1,-10270.8 L-7414.5,-10275.0 L-7409.4,-10280.9 L-7405.5,-10287.8 L-7402.9,-10294.6 L-7402.3,-10304.5 L-7402.8,-10316.8 L-7407.4,-10472.3 L-7409.1,-10502.4 L-7409.6,-10523.1 L-7410.3,-10563.3 L-7411.1,-10575.9 L-7412.6,-10586.5 L-7414.7,-10595.9 L-7417.8,-10605.5 L-7422.7,-10616.8 L-7429.9,-10628.9 L-7436.9,-10638.5 L-7442.3,-10647.6 L-7447.8,-10659.7 L-7452.4,-10671.3 L-7454.2,-10680.8 L-7455.6,-10691.3 L-7456.3,-10701.8 L-7456.0,-10712.0 L-7454.8,-10723.9 L-7452.0,-10735.6 L-7448.3,-10746.0 L-7444.4,-10755.5 L-7439.4,-10764.7 L-7433.3,-10775.9 L-7429.3,-10786.0 L-7425.8,-10798.9 L-7419.4,-10808.7 L-7421.6,-10897.9 L-7424.9,-10903.1 L-7425.9,-10963.7 L-7427.6,-11035.2 L-7426.4,-11045.1 L-7423.2,-11055.2 L-7415.2,-11071.0 L-7361.7,-11186.1 L-7360.6,-11188.0 L-7351.2,-11208.5 L-7342.3,-11227.9 L-7332.3,-11247.9 L-7322.5,-11268.5 L-7317.7,-11278.5 L-7265.1,-11386.4 L-7208.9,-11505.6 L-7087.3,-11752.4 L-7160.4,-11834.3 L-7220.0,-11707.3 L-7271.5,-11597.4 L-7279.3,-11581.8 L-7295.2,-11549.3 L-7327.0,-11552.0 L-7335.7,-11552.5 L-7338.8,-11549.7 L-7334.6,-11545.9 L-7350.9,-11531.4 L-7363.8,-11519.5 L-7366.2,-11468.6 L-7371.0,-11458.4 L-7386.6,-11459.0 L-7389.2,-11459.9 L-7593.6,-11544.3 L-7598.0,-11546.6 L-7602.7,-11549.6 L-7610.1,-11555.2 L-7615.8,-11560.6 L-7620.6,-11565.8 L-7625.3,-11572.2 L-7628.9,-11577.8 L-7631.7,-11583.6 L-7633.9,-11589.7 L-7635.4,-11593.9 L-7636.5,-11599.0 L-7637.3,-11605.0 L-7638.1,-11613.2 L-7638.1,-11624.9 L-7639.5,-11664.6 L-7633.9,-11664.9 L-7634.7,-11685.9 L-7635.6,-11720.5 L-7630.4,-11720.6 L-7630.8,-11744.2 L-7636.7,-11744.1 L-7639.4,-11843.5 L-7633.8,-11843.8 L-7634.7,-11867.1 L-7640.1,-11866.9 L-7642.4,-11940.4 L-7615.4,-11969.5 L-7580.9,-11970.7 L-7555.2,-11971.6 L-7521.3,-11972.7 L-7488.7,-11973.7 L-7459.5,-11974.7 L-7446.8,-11975.3 L-7447.4,-11986.6 L-7447.6,-11998.4 L-7449.5,-12036.7 L-7450.2,-12109.8 L-7451.2,-12111.1 L-7451.4,-12118.3 L-7449.3,-12118.4 L-7454.4,-12294.5 L-7458.8,-12460.2 L-7459.5,-12465.4 L-7459.9,-12475.0 L-7532.1,-12472.4 L-7580.1,-12476.5 L-7939.4,-12464.0 L-7939.5,-12467.2 L-7940.2,-12482.5 L-8110.6,-12476.5 L-8110.9,-12504.8 L-8133.4,-12509.9 L-8137.4,-12631.0 L-7474.6,-12654.0 L-7463.6,-12669.1 L-7464.0,-12712.1 L-7464.8,-12749.3 L-7465.4,-12772.6 L-7466.3,-12795.3 L-7519.0,-12820.1 L-7521.1,-12875.2 L-7467.1,-12902.0 L-7472.0,-13029.5 L-7473.4,-13035.8 L-7527.1,-13060.9 L-7528.8,-13129.1 L-7477.8,-13155.4 L-7500.5,-13432.3 L-7494.5,-13555.5 L-7491.5,-13756.4 L-7491.7,-13974.9 L-7486.9,-14005.5 L-7486.6,-14020.3 L-7491.4,-14038.1 L-7486.4,-14038.1 L-7486.4,-14054.2 L-7483.4,-14465.2 L-7483.9,-14483.5 L-7489.6,-14483.5 L-7489.4,-14559.1 L-7492.7,-14563.8 L-7497.9,-14641.8 L-7487.6,-14713.1 L-7488.9,-14799.4 L-7492.4,-14820.1 L-7487.1,-14884.0 L-7490.7,-14961.3 L-7499.7,-15044.0 L-7516.8,-15178.0 L-7508.7,-15214.9 L-7512.3,-15250.8 L-7542.9,-15276.9 L-7587.8,-15276.5 L-7656.2,-15267.5 L-7700.7,-15267.5 L-7741.1,-15282.3 L-7794.2,-15318.7 L-7794.2,-15384.0 L-7795.6,-15464.3 L-7790.4,-15531.2 L-7772.8,-15583.4 L-7478.1,-15588.9 L-7471.3,-16006.8 L-7471.3,-16608.4 L-7474.4,-16826.7 L8437.8,-23398.4 L8437.8,12819.8 L-11274.7,12819.8 L-11274.7,-5165.7 Z" fill="#add7e1" stroke="none"><title>Biscayne Bay</title></path></svg>