<svg xmlns="http://www.w3.org/2000/svg" width="256" height="256" viewBox="0 0 256 256"><rect width="256" height="256" fill="#f1efe7"/><path d="M-11274.7,-17453.7 L-11059.9,-17543.0 L-10992.7,-17575.3 L-10692.2,-17719.6 L-10635.8,-17665.0 L-10630.9,-17660.3 L-10525.5,-17750.5 L-10500.4,-17769.6 L-10458.5,-17807.4 L-10222.4,-18024.2 L-10031.9,-18241.8 L-10024.6,-18255.7 L-10017.6,-18263.6 L-10006.5,-18276.3 L-9995.2,-18289.2 L-9990.6,-18294.5 L-10065.7,-18391.6 L-9966.3,-18451.2 L-9912.4,-18379.5 L-9836.2,-18466.7 L-9900.7,-18552.1 L-9820.8,-18635.4 L-9759.3,-18554.4 L-9688.7,-18634.8 L-9658.6,-18654.5 L-9511.4,-18750.0 L-9438.7,-18798.3 L-9351.1,-18855.9 L-9309.7,-18883.1 L-9204.8,-18950.8 L-9231.8,-18986.3 L-9280.1,-19051.0 L-9155.2,-19130.4 L-9109.7,-19153.9 L-9106.2,-19156.4 L-9082.2,-19174.9 L-8996.6,-19220.7 L-8990.7,-19229.9 L-8966.7,-19246.4 L-8953.7,-19265.4 L-8950.0,-19268.2 L-8929.1,-19276.3 L-8881.9,-19293.2 L-8849.6,-19307.4 L-8735.5,-19361.0 L-8734.1,-19357.3 L-8638.4,-19398.2 L-8599.3,-19348.1 L-8512.2,-19406.2 L-8499.8,-19414.7 L-8498.6,-19415.7 L-8497.4,-19417.3 L-8495.5,-19420.6 L-8494.5,-19423.7 L-8493.9,-19427.4 L-8494.0,-19430.4 L-8494.4,-19433.3 L-8494.8,-19436.6 L-8494.9,-19439.1 L-8494.7,-19441.2 L-8494.3,-19443.4 L-8492.7,-19447.4 L-8491.6,-19449.6 L-8489.1,-19453.4 L-8486.5,-19456.2 L-8473.8,-19461.3 L-8463.2,-19465.3 L-8449.7,-19469.7 L-8443.4,-19471.4 L-8432.2,-19475.1 L-8424.3,-19477.9 L-8413.4,-19482.4 L-8398.6,-19488.9 L-8382.6,-19496.4 L-8374.0,-19500.6 L-8363.2,-19506.1 L-8353.1,-19511.7 L-8343.0,-19517.7 L-8332.7,-19524.4 L-8329.5,-19526.6 L-8308.8,-19542.4 L-8291.4,-19555.8 L-8274.4,-19570.2 L-8258.5,-19585.2 L-8247.0,-19598.1 L-8235.6,-19612.0 L-8221.6,-19630.0 L-8208.8,-19648.0 L-8194.1,-19671.1 L-8184.5,-19689.0 L-8178.5,-19700.4 L-8169.6,-19719.7 L-8162.1,-19737.6 L-8155.4,-19756.9 L-8150.0,-19773.8 L-8144.1,-19801.2 L-8139.8,-19825.7 L-8137.5,-19846.7 L-8135.5,-19871.5 L-8135.3,-19898.0 L-8136.9,-19922.5 L-8141.1,-19954.5 L-8145.5,-19976.3 L-8150.5,-19996.9 L-8157.9,-20020.3 L-8164.2,-20038.2 L-8171.4,-20057.7 L-8178.2,-20073.9 L-8182.8,-20084.4 L-8184.7,-20092.1 L-8185.0,-20098.0 L-8184.4,-20103.3 L-8182.3,-20107.9 L-8179.1,-20111.8 L-8174.9,-20114.0 L-8170.4,-20114.6 L-8158.3,-20111.7 L-8124.6,-20103.6 L-8113.4,-20358.3 L-8069.7,-20812.9 L-8117.2,-20824.1 L-8122.4,-20838.4 L-8122.2,-20858.9 L-8115.6,-20905.4 L-8106.6,-20915.9 L-8098.6,-20946.1 L-8048.1,-20934.4 L-8020.3,-21224.9 L-8012.6,-21305.3 L-8028.3,-21309.2 L-8018.8,-21347.6 L-8051.1,-21355.3 L-8047.0,-21378.8 L-8041.3,-21394.3 L-8034.2,-21412.4 L-8022.2,-21437.7 L-8009.3,-21434.8 L-7991.9,-21617.5 L-7987.8,-21728.3 L-7987.0,-21748.7 L-7977.6,-21819.2 L-7958.9,-21994.9 L-7834.1,-22320.3 L-7805.6,-22409.0 L-7458.9,-22542.0 L-7425.0,-22555.6 L-7419.1,-22558.8 L-7414.5,-22563.0 L-7409.4,-22568.9 L-7405.5,-22575.8 L-7402.9,-22582.6 L-7402.3,-22592.5 L-7402.8,-22604.8 L-7407.4,-22760.3 L-7409.1,-22790.4 L-7409.6,-22811.1 L-7410.3,-22851.3 L-7411.1,-22863.9 L-7412.6,-22874.5 L-7414.7,-22883.9 L-7417.8,-22893.5 L-7422.7,-22904.8 L-7429.9,-22916.9 L-7436.9,-22926.5 L-7442.3,-22935.6 L-7447.8,-22947.7 L-7452.4,-22959.3 L-7454.2,-22968.8 L-7455.6,-22979.3 L-7456.3,-22989.8 L-7456.0,-23000.0 L-7454.8,-23011.9 L-7452.0,-23023.6 L-7448.3,-23034.0 L-7444.4,-23043.5 L-7439.4,-23052.7 L-7433.3,-23063.9 L-7429.3,-23074.0 L-7425.8,-23086.9 L-7419.4,-23096.7 L-7421.6,-23185.9 L-7424.9,-23191.1 L-7425.9,-23251.7 L-7427.6,-23323.2 L-7426.4,-23333.1 L-7423.2,-23343.2 L-7415.2,-23359.0 L-7361.7,-23474.1 L-7360.6,-23476.0 L-7351.2,-23496.5 L-7342.3,-23515.9 L-7332.3,-23535.9 L-7322.5,-23556.5 L-7317.7,-23566.5 L-7265.1,-23674.4 L-7208.9,-23793.6 L-7087.3,-24040.4 L-7160.4,-24122.3 L-7220.0,-23995.3 L-7271.5,-23885.4 L-7279.3,-23869.8 L-7295.2,-23837.3 L-7327.0,-23840.0 L-7335.7,-23840.5 L-7338.8,-23837.7 L-7334.6,-23833.9 L-7350.9,-23819.4 L-7363.8,-23807.5 L-7366.2,-23756.6 L-7371.0,-23746.4 L-7386.6,-23747.0 L-7389.2,-23747.9 L-7593.6,-23832.3 L-7598.0,-23834.6 L-7602.7,-23837.6 L-7610.1,-23843.2 L-7615.8,-23848.6 L-7620.6,-23853.8 L-7625.3,-23860.2 L-7628.9,-23865.8 L-7631.7,-23871.6 L-7633.9,-23877.7 L-7635.4,-23881.9 L-7636.5,-23887.0 L-7637.3,-23893.0 L-7638.1,-23901.2 L-7638.1,-23912.9 L-7639.5,-23952.6 L-7633.9,-23952.9 L-7634.7,-23973.9 L-7635.6,-24008.5 L-7630.4,-24008.6 L-7630.8,-24032.2 L-7636.7,-24032.1 L-7639.4,-24131.5 L-7633.8,-24131.8 L-7634.7,-24155.1 L-7640.1,-24154.9 L-7642.4,-24228.4 L-7615.4,-24257.5 L-7580.9,-24258.7 L-7555.2,-24259.6 L-7521.3,-24260.7 L-7488.7,-24261.7 L-7459.5,-24262.7 L-7446.8,-24263.3 L-7447.4,-24274.6 L-7447.6,-24286.4 L-7449.5,-24324.7 L-7450.2,-24397.8 L-7451.2,-24399.1 L-7451.4,-24406.3 L-7449.3,-24406.4 L-7454.4,-24582.5 L-7458.8,-24748.2 L-7459.5,-24753.4 L-7459.9,-24763.0 L-7532.1,-24760.4 L-7580.1,-24764.5 L-7939.4,-24752.0 L-7939.5,-24755.2 L-7940.2,-24770.5 L-8110.6,-24764.5 L-8110.9,-24792.8 L-8133.4,-24797.9 L-8137.4,-24919.0 L-7474.6,-24942.0 L-7463.6,-24957.1 L-7464.0,-25000.1 L-7464.8,-25037.3 L-7465.4,-25060.6 L-7466.3,-25083.3 L-7519.0,-25108.1 L-7521.1,-25163.2 L-7467.1,-25190.0 L-7472.0,-25317.5 L-7473.4,-25323.8 L-7527.1,-25348.9 L-7528.8,-25417.1 L-7477.8,-25443.4 L-7500.5,-25720.3 L-7494.5,-25843.5 L-7491.5,-26044.4 L-7491.7,-26262.9 L-7486.9,-26293.5 L-7486.6,-26308.3 L-7491.4,-26326.1 L-7486.4,-26326.1 L-7486.4,-26342.2 L-7483.4,-26753.2 L-7483.9,-26771.5 L-7489.6,-26771.5 L-7489.4,-26847.1 L-7492.7,-26851.8 L-7497.9,-26929.8 L-7487.6,-27001.1 L-7488.9,-27087.4 L-7492.4,-27108.1 L-7487.1,-27172.0 L-7490.7,-27249.3 L-7499.7,-27332.0 L-7516.8,-27466.0 L-7508.7,-27502.9 L-7512.3,-27538.8 L-7542.9,-27564.9 L-7587.8,-27564.5 L-7656.2,-27555.5 L-7700.7,-27555.5 L-7741.1,-27570.3 L-7794.2,-27606.7 L-7794.2,-27672.0 L-7795.6,-27752.3 L-7790.4,-27819.2 L-7772.8,-27871.4 L-7478.1,-27876.9 L-7471.3,-28294.8 L-7471.3,-28896.4 L-7474.4,-29114.7 L8437.8,-35686.4 L8437.8,531.8 L-11274.7,531.8 L-11274.7,-17453.7 Z" fill="#add7e1" stroke="none"><title>Biscayne Bay</title></path></svg>