<svg xmlns="http://www.w3.org/2000/svg" width="256" height="256" viewBox="0 0 256 256"><rect width="256" height="256" fill="#f1efe7"/><path d="M145.8,105.5 L130.9,106.3 L128.5,61.5 L143.5,60.7 L145.8,105.5 Z" fill="#d6d2c9" stroke="#bab6ad" stroke-width="0.4"></path><path d="M58.0,63.7 L58.2,70.2 L66.2,70.0 L66.9,96.4 L50.3,96.9 L49.8,79.6 L43.3,79.8 L42.9,64.2 L58.0,63.7 Z" fill="#d6d2c9" stroke="#bab6ad" stroke-width="0.4"></path><path d="M258.1,87.5 L244.1,87.7 L243.6,55.0 L257.7,54.8 L258.1,87.5 Z" fill="#d6d2c9" stroke="#bab6ad" stroke-width="0.4"></path><path d="M170.9,9.4 L153.2,10.0 L151.8,-30.7 L161.5,-32.5 L161.7,-40.0 L176.1,-40.4 L177.6,-11.0 L170.2,-10.7 L170.9,9.4 Z" fill="#d6d2c9" stroke="#bab6ad" stroke-width="0.4"></path><path d="M180.7,109.1 L165.7,109.7 L163.7,60.3 L178.8,59.7 L180.7,109.1 Z" fill="#d6d2c9" stroke="#bab6ad" stroke-width="0.4"></path><path d="M127.7,102.9 L109.8,103.6 L108.3,62.4 L126.2,61.8 L127.7,102.9 Z" fill="#d6d2c9" stroke="#bab6ad" stroke-width="0.4"></path><path d="M261.5,121.3 L243.0,121.6 L242.6,95.9 L261.1,95.6 L261.5,121.3 Z" fill="#d6d2c9" stroke="#bab6ad" stroke-width="0.4"></path><path d="M221.1,-42.3 L221.5,-34.2 L233.9,-34.8 L235.9,7.0 L219.4,7.8 L218.3,-14.2 L209.4,-13.7 L208.0,-41.7 L221.1,-42.3 Z" fill="#d6d2c9" stroke="#bab6ad" stroke-width="0.4"></path><path d="M199.0,8.9 L181.9,9.5 L180.4,-32.8 L193.6,-33.3 L193.3,-41.7 L205.9,-42.2 L206.9,-14.0 L198.1,-13.7 L199.0,8.9 Z" fill="#d6d2c9" stroke="#bab6ad" stroke-width="0.4"></path><path d="M105.4,-34.0 L105.5,-32.1 L119.8,-32.8 L121.8,9.8 L105.9,10.6 L104.9,-11.9 L96.6,-11.5 L95.5,-33.5 L105.4,-34.0 Z" fill="#d6d2c9" stroke="#bab6ad" stroke-width="0.4"></path><path d="M90.2,105.1 L73.4,105.5 L72.3,63.9 L89.1,63.4 L90.2,105.1 Z" fill="#d6d2c9" stroke="#bab6ad" stroke-width="0.4"></path><path d="M146.4,11.2 L125.6,11.9 L123.8,-43.0 L148.6,-43.8 L149.2,-23.2 L145.3,-23.1 L146.4,11.2 Z" fill="#d6d2c9" stroke="#bab6ad" stroke-width="0.4"></path><path d="M238.8,121.4 L215.4,122.3 L213.9,83.5 L221.8,83.2 L221.0,62.0 L236.5,61.4 L238.8,121.4 Z" fill="#d6d2c9" stroke="#bab6ad" stroke-width="0.4"></path><path d="M200.8,62.0 L201.6,83.4 L209.6,83.1 L211.1,125.6 L198.5,126.1 L198.1,115.9 L186.1,116.3 L184.2,62.6 L200.8,62.0 Z" fill="#d6d2c9" stroke="#bab6ad" stroke-width="0.4"></path><path d="M253.6,250.9 L255.2,285.0 L237.5,284.6 L237.2,272.5 L231.1,272.7 L230.8,254.6 L231.4,252.2 L253.6,250.9 Z" fill="#d6d2c9" stroke="#bab6ad" stroke-width="0.4"></path><path d="M197.6,253.8 L198.4,273.4 L191.1,273.7 L191.3,279.4 L180.0,279.8 L179.6,270.4 L173.8,270.7 L173.1,254.7 L197.6,253.8 Z" fill="#d6d2c9" stroke="#bab6ad" stroke-width="0.4"></path><path d="M219.9,277.0 L220.2,286.9 L213.4,287.2 L206.5,287.4 L206.3,280.4 L203.3,280.5 L202.2,252.7 L213.7,252.3 L225.2,251.9 L226.1,276.8 L219.9,277.0 Z" fill="#d6d2c9" stroke="#bab6ad" stroke-width="0.4"></path><path d="M170.5,296.4 L143.8,297.1 L142.1,255.5 L168.8,254.4 L170.5,296.4 Z" fill="#d6d2c9" stroke="#bab6ad" stroke-width="0.4"></path><path d="M203.8,133.2 L204.1,140.6 L206.4,140.5 L206.3,139.1 L207.8,139.1 L209.4,139.0 L210.0,156.0 L190.1,156.7 L189.4,137.5 L194.4,137.4 L194.3,133.5 L199.0,133.3 L203.8,133.2 Z" fill="#d6d2c9" stroke="#bab6ad" stroke-width="0.4"></path><path d="M69.4,163.4 L28.5,165.2 L27.5,140.5 L68.3,138.7 L69.4,163.4 Z" fill="#d6d2c9" stroke="#bab6ad" stroke-width="0.4"></path><path d="M180.8,134.9 L182.8,189.5 L177.8,189.7 L172.7,189.9 L172.5,186.3 L162.5,186.6 L160.9,142.7 L167.8,142.5 L167.5,135.4 L174.2,135.1 L180.8,134.9 Z" fill="#d6d2c9" stroke="#bab6ad" stroke-width="0.4"></path><path d="M32.6,72.0 L32.7,75.4 L39.4,75.2 L40.1,99.1 L34.0,99.3 L34.5,114.2 L22.1,114.6 L20.8,72.4 L32.6,72.0 Z" fill="#d6d2c9" stroke="#bab6ad" stroke-width="0.4"></path><path d="M54.4,175.0 L54.5,176.1 L69.7,175.5 L70.7,198.6 L29.8,200.4 L29.4,191.5 L31.3,191.4 L30.6,176.1 L54.4,175.0 Z" fill="#d6d2c9" stroke="#bab6ad" stroke-width="0.4"></path><path d="M83.8,18.8 L72.1,19.2 L70.7,-18.4 L83.2,-18.8 L83.1,-21.2 L88.2,-21.4 L88.9,-0.9 L84.6,-0.8 L85.1,12.9 L83.6,13.0 L83.8,18.8 Z" fill="#d6d2c9" stroke="#bab6ad" stroke-width="0.4"></path><path d="M62.6,122.4 L47.8,122.3 L47.9,109.0 L62.7,109.1 L62.6,122.4 Z" fill="#d6d2c9" stroke="#bab6ad" stroke-width="0.4"></path><path d="M125.4,122.0 L125.6,125.1 L128.3,124.9 L128.2,122.6 L135.0,122.0 L135.6,129.5 L126.0,130.2 L126.2,133.0 L109.2,134.2 L108.4,123.2 L125.4,122.0 Z" fill="#d6d2c9" stroke="#bab6ad" stroke-width="0.4"></path><path d="M259.0,-17.3 L260.2,15.7 L241.3,16.4 L241.2,12.0 L239.5,12.0 L238.5,-16.5 L259.0,-17.3 Z" fill="#d6d2c9" stroke="#bab6ad" stroke-width="0.4"></path><path d="M123.2,152.4 L124.7,191.7 L116.1,192.0 L115.9,188.0 L111.5,188.1 L111.7,195.3 L102.7,195.6 L101.3,153.1 L123.2,152.4 Z" fill="#d6d2c9" stroke="#bab6ad" stroke-width="0.4"></path><path d="M88.0,174.1 L88.2,178.4 L97.5,178.0 L97.8,185.2 L98.1,192.4 L90.2,192.7 L90.4,196.7 L86.1,196.8 L81.9,197.0 L81.9,196.0 L75.5,196.2 L75.2,190.6 L75.0,185.0 L78.6,184.8 L78.3,178.7 L81.1,178.5 L80.9,174.4 L84.4,174.2 L88.0,174.1 Z" fill="#d6d2c9" stroke="#bab6ad" stroke-width="0.4"></path><path d="M154.2,158.4 L155.0,190.1 L135.6,190.5 L135.4,186.3 L129.9,186.5 L129.8,180.7 L129.6,174.9 L143.3,174.5 L142.7,151.7 L148.0,151.6 L153.3,151.5 L154.2,158.4 Z" fill="#d6d2c9" stroke="#bab6ad" stroke-width="0.4"></path><path d="M205.0,159.8 L205.2,164.0 L207.4,163.9 L208.2,187.6 L203.4,187.7 L203.5,189.7 L195.5,190.1 L195.5,188.4 L188.7,188.7 L187.5,160.6 L205.0,159.8 Z" fill="#d6d2c9" stroke="#bab6ad" stroke-width="0.4"></path><path d="M56.9,20.1 L28.4,21.8 L27.9,12.1 L27.3,2.5 L30.5,2.3 L29.8,-9.5 L55.1,-10.9 L56.9,20.1 Z" fill="#d6d2c9" stroke="#bab6ad" stroke-width="0.4"></path><path d="M216.2,146.3 L238.6,145.2 L240.9,195.2 L218.5,196.3 L216.2,146.3 Z" fill="#d6d2c9" stroke="#bab6ad" stroke-width="0.4"></path><path d="M26.4,354.9 L23.2,262.8 L23.3,258.0 L24.0,254.7 L25.7,252.2 L27.7,250.1 L30.6,248.2 L33.8,247.0 L37.3,246.4 L48.8,245.8 L194.3,238.6 L362.8,230.5" fill="none" stroke="#cf828d" stroke-width="1.5" stroke-dasharray="1.6 3.0" opacity="0.62" stroke-linecap="round" stroke-linejoin="round"></path><path d="M371.9,205.3 L263.6,210.5 L47.7,221.2 L36.0,221.6 L30.9,221.0 L27.2,219.9 L23.7,217.4 L21.9,214.1 L21.5,210.5 L21.2,204.7 L16.0,65.0 L15.7,56.5 L15.7,54.8 L17.6,53.7 L372.5,37.8" fill="none" stroke="#cf828d" stroke-width="1.5" stroke-dasharray="1.6 3.0" opacity="0.62" stroke-linecap="round" stroke-linejoin="round"></path><path d="M47.9,226.0 L48.2,232.9 L48.5,240.7" fill="none" stroke="#cf828d" stroke-width="1.5" stroke-dasharray="1.6 3.0" opacity="0.62" stroke-linecap="round" stroke-linejoin="round"></path><path d="M48.5,240.7 L48.8,245.8" fill="none" stroke="#cf828d" stroke-width="1.5" stroke-dasharray="1.6 3.0" opacity="0.62" stroke-linecap="round" stroke-linejoin="round"></path><path d="M47.7,221.2 L47.9,226.0" fill="none" stroke="#cf828d" stroke-width="1.5" stroke-dasharray="1.6 3.0" opacity="0.62" stroke-linecap="round" stroke-linejoin="round"></path><path d="M-2.6,66.0 L2.8,65.7 L8.6,65.4" fill="none" stroke="#cf828d" stroke-width="1.5" stroke-dasharray="1.6 3.0" opacity="0.62" stroke-linecap="round" stroke-linejoin="round"></path><path d="M8.6,65.4 L16.0,65.0" fill="none" stroke="#cf828d" stroke-width="1.5" stroke-dasharray="1.6 3.0" opacity="0.62" stroke-linecap="round" stroke-linejoin="round"></path><path d="M1.0,205.7 L8.9,205.3 L14.8,205.0" fill="none" stroke="#cf828d" stroke-width="1.5" stroke-dasharray="1.6 3.0" opacity="0.62" stroke-linecap="round" stroke-linejoin="round"></path><path d="M14.8,205.0 L21.2,204.7" fill="none" stroke="#cf828d" stroke-width="1.5" stroke-dasharray="1.6 3.0" opacity="0.62" stroke-linecap="round" stroke-linejoin="round"></path><path d="M1.0,205.7 L-4.2,205.9" fill="none" stroke="#cf828d" stroke-width="1.5" stroke-dasharray="1.6 3.0" opacity="0.62" stroke-linecap="round" stroke-linejoin="round"></path><path d="M373.9,17.9 L14.8,34.0 L9.6,-110.5" fill="none" stroke="#cf828d" stroke-width="1.5" stroke-dasharray="1.6 3.0" opacity="0.62" stroke-linecap="round" stroke-linejoin="round"></path><path d="M14.8,34.0 L9.2,34.1" fill="none" stroke="#cf828d" stroke-width="1.5" stroke-dasharray="1.6 3.0" opacity="0.62" stroke-linecap="round" stroke-linejoin="round"></path><path d="M9.2,34.1 L1.5,34.6 L-10.3,35.4" fill="none" stroke="#cf828d" stroke-width="1.5" stroke-dasharray="1.6 3.0" opacity="0.62" stroke-linecap="round" stroke-linejoin="round"></path><path d="M371.9,27.5 L16.8,44.1 L1.8,44.8 L-9.9,45.3 L-16.6,45.6 L-365.2,62.1" fill="none" stroke="#cec8bb" stroke-width="4.8" stroke-linecap="round" stroke-linejoin="round"/><path d="M371.9,27.5 L16.8,44.1 L1.8,44.8 L-9.9,45.3 L-16.6,45.6 L-365.2,62.1" fill="none" stroke="#ffffff" stroke-width="3.7" stroke-linecap="round" stroke-linejoin="round"><title>Southwest 15th Street</title></path><path d="M8.9,205.3 L6.4,211.3 L5.0,218.0 L4.3,225.9" fill="none" stroke="#cec8bb" stroke-width="4.8" stroke-linecap="round" stroke-linejoin="round"/><path d="M8.9,205.3 L6.4,211.3 L5.0,218.0 L4.3,225.9" fill="none" stroke="#ffffff" stroke-width="3.7" stroke-linecap="round" stroke-linejoin="round"><title>Southwest 24th Avenue</title></path><path d="M10.5,263.3 L13.7,257.7 L15.8,251.8 L16.6,245.6" fill="none" stroke="#cec8bb" stroke-width="4.8" stroke-linecap="round" stroke-linejoin="round"/><path d="M10.5,263.3 L13.7,257.7 L15.8,251.8 L16.6,245.6" fill="none" stroke="#ffffff" stroke-width="3.7" stroke-linecap="round" stroke-linejoin="round"><title>Southwest 24th Avenue</title></path><path d="M3.9,244.1 L4.8,251.0 L7.1,257.7 L10.5,263.3" fill="none" stroke="#cec8bb" stroke-width="4.8" stroke-linecap="round" stroke-linejoin="round"/><path d="M3.9,244.1 L4.8,251.0 L7.1,257.7 L10.5,263.3" fill="none" stroke="#ffffff" stroke-width="3.7" stroke-linecap="round" stroke-linejoin="round"><title>Southwest 24th Avenue</title></path><path d="M16.6,224.6 L15.0,217.2 L12.5,211.3 L8.9,205.3" fill="none" stroke="#cec8bb" stroke-width="4.8" stroke-linecap="round" stroke-linejoin="round"/><path d="M16.6,224.6 L15.0,217.2 L12.5,211.3 L8.9,205.3" fill="none" stroke="#ffffff" stroke-width="3.7" stroke-linecap="round" stroke-linejoin="round"><title>Southwest 24th Avenue</title></path><path d="M-3.7,-110.0 L1.5,34.6 L1.8,44.8 L2.8,65.7 L8.9,205.3" fill="none" stroke="#cec8bb" stroke-width="4.8" stroke-linecap="round" stroke-linejoin="round"/><path d="M-3.7,-110.0 L1.5,34.6 L1.8,44.8 L2.8,65.7 L8.9,205.3" fill="none" stroke="#ffffff" stroke-width="3.7" stroke-linecap="round" stroke-linejoin="round"><title>Southwest 24th Avenue</title></path><path d="M-21.8,236.3 L-13.4,239.4 L-4.0,241.7 L2.2,242.3" fill="none" stroke="#d1c4aa" stroke-width="5.4" stroke-linecap="round" stroke-linejoin="round"/><path d="M-21.8,236.3 L-13.4,239.4 L-4.0,241.7 L2.2,242.3" fill="none" stroke="#f4d99b" stroke-width="4.0" stroke-linecap="round" stroke-linejoin="round"><title>Southwest 16th Street</title></path><path d="M48.2,232.9 L39.0,230.6 L28.5,228.4 L20.2,227.4" fill="none" stroke="#d1c4aa" stroke-width="5.4" stroke-linecap="round" stroke-linejoin="round"/><path d="M48.2,232.9 L39.0,230.6 L28.5,228.4 L20.2,227.4" fill="none" stroke="#f4d99b" stroke-width="4.0" stroke-linecap="round" stroke-linejoin="round"><title>Southwest 16th Street</title></path><path d="M1.7,228.6 L-4.3,229.9 L-12.6,232.3 L-21.8,236.3" fill="none" stroke="#d1c4aa" stroke-width="5.4" stroke-linecap="round" stroke-linejoin="round"/><path d="M1.7,228.6 L-4.3,229.9 L-12.6,232.3 L-21.8,236.3" fill="none" stroke="#f4d99b" stroke-width="4.0" stroke-linecap="round" stroke-linejoin="round"><title>Southwest 16th Street</title></path><path d="M20.9,242.0 L29.6,239.3 L39.1,236.5 L48.2,232.9" fill="none" stroke="#d1c4aa" stroke-width="5.4" stroke-linecap="round" stroke-linejoin="round"/><path d="M20.9,242.0 L29.6,239.3 L39.1,236.5 L48.2,232.9" fill="none" stroke="#f4d99b" stroke-width="4.0" stroke-linecap="round" stroke-linejoin="round"><title>Southwest 16th Street</title></path><path d="M0.2,231.9 L-0.2,235.5 L0.4,239.1 L2.2,242.3 L3.9,244.1 L6.8,245.9 L10.1,246.8 L13.4,246.7 L16.6,245.6 L19.0,244.1 L20.9,242.0 L22.6,238.5 L23.1,234.6 L22.3,230.7 L20.2,227.4 L18.5,225.8 L16.6,224.6 L13.5,223.6 L10.3,223.5 L7.1,224.3 L4.3,225.9 L1.7,228.6 L0.2,231.9" fill="none" stroke="#d1c4aa" stroke-width="5.4" stroke-linecap="round" stroke-linejoin="round"/><path d="M0.2,231.9 L-0.2,235.5 L0.4,239.1 L2.2,242.3 L3.9,244.1 L6.8,245.9 L10.1,246.8 L13.4,246.7 L16.6,245.6 L19.0,244.1 L20.9,242.0 L22.6,238.5 L23.1,234.6 L22.3,230.7 L20.2,227.4 L18.5,225.8 L16.6,224.6 L13.5,223.6 L10.3,223.5 L7.1,224.3 L4.3,225.9 L1.7,228.6 L0.2,231.9" fill="none" stroke="#f4d99b" stroke-width="4.0" stroke-linecap="round" stroke-linejoin="round"></path><path d="M388.6,216.9 L48.2,232.9" fill="none" stroke="#d1c4aa" stroke-width="5.4" stroke-linecap="round" stroke-linejoin="round"/><path d="M388.6,216.9 L48.2,232.9" fill="none" stroke="#f4d99b" stroke-width="4.0" stroke-linecap="round" stroke-linejoin="round"><title>Southwest 16th Street</title></path><text x="144.1" y="228.4" transform="rotate(-2.7 144.1 228.4)" text-anchor="middle" dominant-baseline="central" font-family="Arial, sans-serif" font-size="8.3" textLength="111.6" lengthAdjust="spacing" font-weight="650" paint-order="stroke" stroke="#fffaf0" stroke-width="2.05" stroke-linejoin="round" fill="#6f573d">Southwest 16th Street</text><text x="128.4" y="38.9" transform="rotate(-2.7 128.4 38.9)" text-anchor="middle" dominant-baseline="central" font-family="Arial, sans-serif" font-size="8.3" textLength="111.6" lengthAdjust="spacing" font-weight="650" paint-order="stroke" stroke="#fffaf0" stroke-width="2.05" stroke-linejoin="round" fill="#695f54">Southwest 15th Street</text><text x="137.2" y="83.5" text-anchor="middle" font-family="Arial, sans-serif" font-size="6.5" textLength="18.0" lengthAdjust="spacing" font-weight="500" paint-order="stroke" stroke="#f3f5ee" stroke-width="1.55" stroke-linejoin="round" fill="#6f777a">2364</text><text x="54.5" y="77.6" text-anchor="middle" font-family="Arial, sans-serif" font-size="6.5" textLength="18.0" lengthAdjust="spacing" font-weight="500" paint-order="stroke" stroke="#f3f5ee" stroke-width="1.55" stroke-linejoin="round" fill="#6f777a">2390</text><text x="241.0" y="71.3" text-anchor="middle" font-family="Arial, sans-serif" font-size="6.5" textLength="18.0" lengthAdjust="spacing" font-weight="500" paint-order="stroke" stroke="#f3f5ee" stroke-width="1.55" stroke-linejoin="round" fill="#6f777a">2336</text><text x="172.2" y="84.7" text-anchor="middle" font-family="Arial, sans-serif" font-size="6.5" textLength="18.0" lengthAdjust="spacing" font-weight="500" paint-order="stroke" stroke="#f3f5ee" stroke-width="1.55" stroke-linejoin="round" fill="#6f777a">2358</text><text x="81.2" y="84.5" text-anchor="middle" font-family="Arial, sans-serif" font-size="6.5" textLength="18.0" lengthAdjust="spacing" font-weight="500" paint-order="stroke" stroke="#f3f5ee" stroke-width="1.55" stroke-linejoin="round" fill="#6f777a">2382</text><text x="224.5" y="89.0" text-anchor="middle" font-family="Arial, sans-serif" font-size="6.5" textLength="18.0" lengthAdjust="spacing" font-weight="500" paint-order="stroke" stroke="#f3f5ee" stroke-width="1.55" stroke-linejoin="round" fill="#6f777a">2340</text><text x="48.4" y="152.0" text-anchor="middle" font-family="Arial, sans-serif" font-size="6.5" textLength="18.0" lengthAdjust="spacing" font-weight="500" paint-order="stroke" stroke="#f3f5ee" stroke-width="1.55" stroke-linejoin="round" fill="#6f777a">1515</text><text x="172.0" y="163.3" text-anchor="middle" font-family="Arial, sans-serif" font-size="6.5" textLength="18.0" lengthAdjust="spacing" font-weight="500" paint-order="stroke" stroke="#f3f5ee" stroke-width="1.55" stroke-linejoin="round" fill="#6f777a">2357</text><text x="32.0" y="90.3" text-anchor="middle" font-family="Arial, sans-serif" font-size="6.5" textLength="18.0" lengthAdjust="spacing" font-weight="500" paint-order="stroke" stroke="#f3f5ee" stroke-width="1.55" stroke-linejoin="round" fill="#6f777a">1501</text><text x="46.3" y="185.6" text-anchor="middle" font-family="Arial, sans-serif" font-size="6.5" textLength="18.0" lengthAdjust="spacing" font-weight="500" paint-order="stroke" stroke="#f3f5ee" stroke-width="1.55" stroke-linejoin="round" fill="#6f777a">1525</text><text x="241.0" y="16.5" text-anchor="middle" font-family="Arial, sans-serif" font-size="6.5" textLength="18.0" lengthAdjust="spacing" font-weight="500" paint-order="stroke" stroke="#f3f5ee" stroke-width="1.55" stroke-linejoin="round" fill="#6f777a">2337</text><text x="113.4" y="182.0" text-anchor="middle" font-family="Arial, sans-serif" font-size="6.5" textLength="18.0" lengthAdjust="spacing" font-weight="500" paint-order="stroke" stroke="#f3f5ee" stroke-width="1.55" stroke-linejoin="round" fill="#6f777a">2375</text><text x="84.9" y="186.1" text-anchor="middle" font-family="Arial, sans-serif" font-size="6.5" textLength="18.0" lengthAdjust="spacing" font-weight="500" paint-order="stroke" stroke="#f3f5ee" stroke-width="1.55" stroke-linejoin="round" fill="#6f777a">2385</text><text x="141.5" y="172.4" text-anchor="middle" font-family="Arial, sans-serif" font-size="6.5" textLength="18.0" lengthAdjust="spacing" font-weight="500" paint-order="stroke" stroke="#f3f5ee" stroke-width="1.55" stroke-linejoin="round" fill="#6f777a">2365</text><text x="200.0" y="178.0" text-anchor="middle" font-family="Arial, sans-serif" font-size="6.5" textLength="18.0" lengthAdjust="spacing" font-weight="500" paint-order="stroke" stroke="#f3f5ee" stroke-width="1.55" stroke-linejoin="round" fill="#6f777a">2353</text><text x="36.6" y="16.5" text-anchor="middle" font-family="Arial, sans-serif" font-size="6.5" textLength="18.0" lengthAdjust="spacing" font-weight="500" paint-order="stroke" stroke="#f3f5ee" stroke-width="1.55" stroke-linejoin="round" fill="#6f777a">1487</text><text x="106.8" y="86.0" text-anchor="middle" font-family="Arial, sans-serif" font-size="6.5" textLength="18.0" lengthAdjust="spacing" font-weight="500" paint-order="stroke" stroke="#f3f5ee" stroke-width="1.55" stroke-linejoin="round" fill="#6f777a">2372</text><text x="109.0" y="16.5" text-anchor="middle" font-family="Arial, sans-serif" font-size="6.5" textLength="18.0" lengthAdjust="spacing" font-weight="500" paint-order="stroke" stroke="#f3f5ee" stroke-width="1.55" stroke-linejoin="round" fill="#6f777a">2377</text><text x="193.4" y="81.5" text-anchor="middle" font-family="Arial, sans-serif" font-size="6.5" textLength="18.0" lengthAdjust="spacing" font-weight="500" paint-order="stroke" stroke="#f3f5ee" stroke-width="1.55" stroke-linejoin="round" fill="#6f777a">2350</text><text x="225.9" y="171.0" text-anchor="middle" font-family="Arial, sans-serif" font-size="6.5" textLength="18.0" lengthAdjust="spacing" font-weight="500" paint-order="stroke" stroke="#f3f5ee" stroke-width="1.55" stroke-linejoin="round" fill="#6f777a">2347</text><g opacity="0.56"><title>crossing</title><path d="M45.9,231.1 L50.5,231.1 M45.9,232.9 L50.5,232.9 M45.9,234.7 L50.5,234.7" stroke="#ffffff" stroke-width="2.1" stroke-linecap="round"/><path d="M45.9,231.1 L50.5,231.1 M45.9,232.9 L50.5,232.9 M45.9,234.7 L50.5,234.7" stroke="#59656a" stroke-width="0.85" stroke-linecap="round"/></g></svg>