<svg xmlns="http://www.w3.org/2000/svg" width="256" height="256" viewBox="0 0 256 256"><rect width="256" height="256" fill="#f1efe7"/><path d="M-2026.8,3863.5 L-2571.0,3461.8 L-2614.5,3429.8 L-2661.7,3419.5 L-2695.0,3391.5 L-2721.6,3388.4 L-2807.6,3394.1 L-2807.5,3386.0 L-2812.3,3378.4 L-2821.9,3372.5 L-3008.7,3291.6 L-3021.4,3285.8 L-3032.5,3282.6 L-3046.3,3281.5 L-3060.2,3281.2 L-3106.6,3281.2 L-3118.9,3280.5 L-3131.0,3278.1 L-3143.8,3273.1 L-3159.2,3269.0 L-3170.4,3268.0 L-3203.3,3266.6 L-3214.3,3264.6 L-3228.3,3260.1 L-3242.0,3256.6 L-3255.3,3253.5 L-3265.7,3249.3 L-3278.3,3241.5 L-3289.5,3233.1 L-3300.4,3224.9 L-3309.3,3220.7 L-3316.1,3219.3 L-3322.2,3219.7 L-3328.7,3221.5 L-3336.3,3225.4 L-3342.3,3232.0 L-3350.4,3239.9 L-3359.4,3248.2 L-3369.6,3253.8 L-3382.5,3258.0 L-3393.2,3260.6 L-3406.1,3262.6 L-3427.7,3265.1 L-3481.9,3267.7 L-3527.9,3270.0 L-3547.7,3277.1 L-3588.3,3278.5 L-3593.8,3270.0 L-3599.9,3266.1 L-3606.2,3264.9 L-3650.0,3267.4 L-3669.0,3274.2 L-3692.3,3274.4 L-3708.0,3272.1 L-3720.9,3268.2 L-3768.0,3271.0 L-3892.6,3280.7 L-3921.3,3281.5 L-3931.1,3281.3 L-3939.9,3279.1 L-3950.1,3274.0 L-3957.6,3268.0 L-3990.0,3268.1 L-4017.1,3267.7 L-4024.4,3272.2 L-4061.7,3273.1 L-4066.5,3281.0 L-4071.8,3281.2 L-4081.0,3279.0 L-4097.5,3277.0 L-4114.5,3277.9 L-4119.7,3279.5 L-4125.0,3278.6 L-4128.6,3275.1 L-4134.7,3271.6 L-4157.4,3271.7 L-4180.3,3272.9 L-4202.0,3285.7 L-4212.7,3290.8 L-4224.9,3293.5 L-4235.0,3294.2 L-4244.1,3292.8 L-4265.1,3283.8 L-4277.1,3280.0 L-4287.3,3278.5 L-4332.0,3279.1 L-4334.8,3273.7 L-4374.3,3274.6 L-4401.5,3279.6 L-4419.4,3281.7 L-4429.0,3283.8 L-4432.7,3281.3 L-4439.5,3280.4 L-4503.2,3274.6 L-4508.7,3277.6 L-4515.4,3279.0 L-4524.2,3279.1 L-4524.2,3275.9 L-4563.7,3268.5 L-4588.6,3263.7 L-4648.8,3243.5 L-4652.1,3248.0 L-4692.3,3235.6 L-4700.7,3232.8 L-4696.6,3218.8 L-4701.4,3217.3 L-4702.4,3215.8 L-4705.0,3215.0 L-4708.6,3214.5 L-4713.0,3212.3 L-4711.5,3211.0 L-4729.3,3196.5 L-4758.9,3169.7 L-4774.8,3155.7 L-4786.1,3143.4 L-4792.4,3135.1 L-4801.8,3122.3 L-4807.2,3112.4 L-4824.0,3091.3 L-4825.6,3090.1 L-4826.7,3090.0 L-4827.9,3090.2 L-4830.1,3090.3 L-4832.1,3089.3 L-4836.3,3086.6 L-4844.9,3082.1 L-4849.1,3078.5 L-4854.0,3074.2 L-4860.7,3070.6 L-4871.2,3067.3 L-4882.3,3065.3 L-4891.8,3065.1 L-4889.1,3039.9 L-4886.9,3007.0 L-4876.6,3008.0 L-4866.3,3009.8 L-4852.8,3013.8 L-4842.9,3017.5 L-4834.0,3021.6 L-4825.4,3025.6 L-4817.3,3030.2 L-4810.7,3035.3 L-4801.9,3042.1 L-4792.7,3049.0 L-4790.6,3050.3 L-4788.7,3050.7 L-4763.5,3049.6 L-4763.2,3055.3 L-4764.7,3057.8 L-4783.6,3059.6 L-4778.8,3069.4 L-4775.5,3068.2 L-4772.5,3071.2 L-4770.6,3074.1 L-4769.0,3076.3 L-4765.1,3081.5 L-4763.6,3087.2 L-4757.5,3095.6 L-4743.1,3104.7 L-4725.2,3113.8 L-4703.8,3127.3 L-4694.0,3131.9 L-4673.4,3143.6 L-4663.7,3148.7 L-4646.0,3155.2 L-4611.2,3164.5 L-4590.8,3169.4 L-4572.2,3171.3 L-4562.3,3172.6 L-4560.1,3172.4 L-4559.2,3171.1 L-4558.9,3164.5 L-4535.8,3164.5 L-4535.3,3171.9 L-4486.9,3174.4 L-4439.7,3175.8 L-4407.6,3174.6 L-4397.0,3173.8 L-4389.3,3172.8 L-4383.0,3171.0 L-4377.2,3167.5 L-4374.3,3162.8 L-4375.4,3085.3 L-4355.9,3084.2 L-4354.2,3159.8 L-4353.1,3161.7 L-4349.2,3164.4 L-4344.7,3165.7 L-4241.3,3165.9 L-4241.8,3132.6 L-4233.7,3132.4 L-4230.3,3165.9 L-4166.5,3165.3 L-4166.5,3161.7 L-4160.2,3161.6 L-4160.0,3164.2 L-3734.5,3156.1 L-3703.7,3152.5 L-3666.1,3151.4 L-3630.5,3156.1 L-3618.6,3155.1 L-3609.9,3153.4 L-3601.8,3150.5 L-3591.3,3146.5 L-3377.4,3142.7 L-3377.5,3127.9 L-3257.8,3125.8 L-3257.7,3142.1 L-3206.9,3143.9 L-3203.0,3143.8 L-3199.4,3143.5 L-3194.7,3142.9 L-3190.9,3141.9 L-3187.2,3140.7 L-3180.9,3137.7 L-3178.0,3142.7 L-3171.8,3138.8 L-3166.1,3134.2 L-3161.3,3129.2 L-3157.1,3123.3 L-3153.2,3116.0 L-3160.5,3111.9 L-3158.5,3105.8 L-3157.2,3099.5 L-3156.5,3093.5 L-3156.4,3088.8 L-3156.6,3084.4 L-3157.3,3046.5 L-3163.4,3040.9 L-3158.2,3035.4 L-3163.5,3030.8 L-3157.5,3023.7 L-3164.0,3018.0 L-3158.8,3012.5 L-3164.0,3007.5 L-3157.9,3001.0 L-3164.2,2994.6 L-3151.1,2980.2 L-3148.8,2980.1 L-3154.5,2765.6 L-3106.4,2764.5 L-3104.1,2765.7 L-3101.5,2767.7 L-3099.6,2769.4 L-3098.8,2771.4 L-3098.1,2773.8 L-3097.9,2776.2 L-3093.8,3109.5 L-3091.9,3120.3 L-3089.2,3127.6 L-3085.0,3136.6 L-3080.1,3145.4 L-3075.0,3152.4 L-3070.9,3156.7 L-3066.5,3160.1 L-3061.4,3163.1 L-3056.1,3165.1 L-3048.9,3167.2 L-3040.0,3168.9 L-3029.2,3170.9 L-3016.6,3173.2 L-3004.6,3175.8 L-2991.3,3178.2 L-2978.7,3180.9 L-2974.7,3181.7 L-2969.8,3182.7 L-2965.0,3183.3 L-2960.8,3183.4 L-2956.0,3183.4 L-2952.3,3183.2 L-2948.6,3182.5 L-2945.4,3181.7 L-2942.0,3180.7 L-2939.1,3179.4 L-2933.3,3176.6 L-2928.2,3173.6 L-2923.1,3169.9 L-2917.2,3164.2 L-2911.7,3158.0 L-2908.7,3152.7 L-2906.0,3146.2 L-2904.6,3140.9 L-2903.8,3135.2 L-2903.3,3129.8 L-2903.3,3124.8 L-2910.6,2767.6 L-2900.2,2756.9 L-2896.4,2756.5 L-2894.9,2755.1 L-2873.2,2754.5 L-2871.3,2751.3 L-2868.0,2752.2 L-2862.5,2757.3 L-2858.7,2762.6 L-2854.9,2769.2 L-2847.7,3168.4 L-2847.0,3175.4 L-2845.7,3189.3 L-2844.4,3192.1 L-2845.4,3192.8 L-2843.6,3196.7 L-2841.3,3201.3 L-2839.3,3204.2 L-2836.9,3207.7 L-2833.6,3211.5 L-2829.7,3215.5 L-2825.0,3219.5 L-2820.8,3222.6 L-2816.2,3225.1 L-2811.8,3227.3 L-2807.1,3228.8 L-2806.5,3227.4 L-2740.3,3251.4 L-2732.0,3254.5 L-2728.2,3255.9 L-2722.3,3258.0 L-2718.0,3259.0 L-2714.3,3259.5 L-2710.9,3259.5 L-2706.1,3259.1 L-2700.9,3258.6 L-2696.3,3257.6 L-2691.6,3256.3 L-2688.1,3254.9 L-2684.4,3253.2 L-2681.4,3251.3 L-2677.6,3248.5 L-2672.8,3244.3 L-2668.4,3240.0 L-2663.6,3234.0 L-2660.2,3228.4 L-2657.4,3222.2 L-2655.4,3215.3 L-2654.2,3208.3 L-2653.5,3195.8 L-2653.8,3170.3 L-2661.1,2764.2 L-2661.1,2759.7 L-2660.3,2756.5 L-2658.9,2753.9 L-2656.0,2751.5 L-2652.7,2749.8 L-2649.0,2749.2 L-2618.9,2748.2 L-2615.3,2748.8 L-2612.1,2750.2 L-2609.8,2752.4 L-2607.2,2756.2 L-2605.7,2761.6 L-2604.8,2768.9 L-2597.3,3289.8 L-2596.9,3292.9 L-2596.3,3296.0 L-2595.4,3299.2 L-2594.3,3302.7 L-2593.1,3306.2 L-2591.7,3309.4 L-2590.5,3312.1 L-2589.2,3314.5 L-2587.3,3317.5 L-2585.2,3320.1 L-2583.3,3322.5 L-2580.4,3325.6 L-2577.6,3328.3 L-2574.5,3330.8 L-2571.2,3333.3 L-2562.0,3339.1 L-2561.1,3338.0 L-2553.0,3342.5 L-2543.4,3347.7 L-2537.9,3350.7 L-2531.8,3354.3 L-2525.5,3358.0 L-2519.0,3362.0 L-2511.7,3366.5 L-2504.5,3371.0 L-2497.3,3375.3 L-2491.3,3379.0 L-2484.6,3383.3 L-2477.5,3387.9 L-2470.7,3392.4 L-2464.4,3396.7 L-2465.1,3397.6 L-2456.3,3403.7 L-2447.2,3409.8 L-2444.4,3411.5 L-2441.3,3413.2 L-2436.9,3415.3 L-2432.8,3416.8 L-2428.4,3418.0 L-2424.5,3419.0 L-2419.9,3419.7 L-2414.8,3420.3 L-2410.4,3420.3 L-2406.7,3420.0 L-2403.5,3419.3 L-2399.4,3418.2 L-2395.3,3416.9 L-2391.5,3415.6 L-2388.0,3413.9 L-2384.4,3412.0 L-2380.9,3409.8 L-2377.3,3407.0 L-2374.1,3404.1 L-2371.0,3401.0 L-2368.1,3397.8 L-2365.1,3393.4 L-2362.6,3389.0 L-2360.2,3384.1 L-2358.8,3380.3 L-2357.7,3376.3 L-2356.9,3372.0 L-2356.5,3367.7 L-2356.8,3362.8 L-2416.1,2795.1 L-2412.0,2794.7 L-2415.3,2766.3 L-2418.3,2766.5 L-2420.7,2753.4 L-2419.9,2750.7 L-2417.4,2746.7 L-2412.3,2742.8 L-2405.6,2742.0 L-2378.7,2741.1 L-2374.2,2742.0 L-2371.1,2743.5 L-2367.8,2746.1 L-2365.5,2748.5 L-2363.9,2751.0 L-2298.9,3387.9 L-2297.4,3393.4 L-2294.6,3400.2 L-2292.2,3404.6 L-2289.6,3409.3 L-2286.2,3413.9 L-2283.4,3417.1 L-2280.3,3420.3 L-2276.9,3423.0 L-2273.9,3425.1 L-2269.7,3427.8 L-2266.0,3429.7 L-2261.1,3431.8 L-2256.5,3433.2 L-2251.3,3434.3 L-2247.3,3434.9 L-2243.8,3435.0 L-2239.7,3435.1 L-2098.5,3432.2 L-2093.9,3431.6 L-2089.5,3429.5 L-2086.3,3426.6 L-2084.1,3422.2 L-2083.3,3418.2 L-2083.5,3414.2 L-2155.0,2732.1 L-2218.0,2649.9 L-2220.8,2652.2 L-2275.6,2575.7 L-2276.6,2559.5 L-2278.3,2556.1 L-2281.2,2553.0 L-2284.9,2547.8 L-2285.2,2540.2 L-2291.7,2537.7 L-2298.0,2537.6 L-2306.5,2541.8 L-2296.9,2559.8 L-2309.0,2565.6 L-2318.1,2557.2 L-2325.9,2552.4 L-2331.2,2550.6 L-2344.2,2550.1 L-2350.8,2536.7 L-2309.3,2519.7 L-2311.3,2516.3 L-2320.1,2504.5 L-2321.5,2505.2 L-2630.4,2100.7 L-2635.1,2034.0 L-2632.6,2033.4 L-2644.5,1911.1 L-2649.1,1899.8 L-2654.1,1887.1 L-2657.9,1877.3 L-2662.5,1864.8 L-2677.5,1822.7 L-2683.6,1825.4 L-2692.5,1791.3 L-2691.0,1791.0 L-2722.1,1706.7 L-2725.5,1559.3 L-2721.9,1559.3 L-2721.4,1546.4 L-2719.6,1533.7 L-2718.9,1529.0 L-2720.2,1525.2 L-2716.0,1505.1 L-2677.7,1437.3 L-2697.8,1425.1 L-2682.9,1400.4 L-2663.5,1411.8 L-2661.8,1409.2 L-2655.7,1412.3 L-2649.1,1414.9 L-2641.5,1417.3 L-2635.8,1418.5 L-2630.4,1418.7 L-2624.0,1417.6 L-2617.7,1415.5 L-2611.5,1413.1 L-2608.6,1410.0 L-2607.5,1405.9 L-2606.0,1401.0 L-2605.7,1399.0 L-2605.8,1396.5 L-2607.2,1392.6 L-2609.8,1388.9 L-2612.8,1386.8 L-2617.2,1382.6 L-2621.0,1378.6 L-2626.6,1375.0 L-2628.9,1369.3 L-2631.6,1363.6 L-2635.9,1356.9 L-2640.8,1351.1 L-2649.8,1344.7 L-2693.4,1322.1 L-2719.2,1309.3 L-2743.3,1296.3 L-2766.2,1283.6 L-2781.0,1274.0 L-2786.7,1272.5 L-2793.0,1274.4 L-2796.5,1278.7 L-2803.6,1296.4 L-2847.7,1276.6 L-2821.3,1234.9 L-2815.5,1232.2 L-2808.4,1230.8 L-2800.1,1232.6 L-2634.4,1329.5 L-2625.4,1332.2 L-2616.0,1334.5 L-2602.7,1334.8 L-2589.2,1332.4 L-2580.6,1328.9 L-2571.2,1321.3 L-2565.7,1316.0 L-2559.8,1307.7 L-2559.9,1306.6 L-2560.3,1305.6 L-2561.2,1304.8 L-2614.8,1271.7 L-2616.1,1271.3 L-2617.5,1271.2 L-2618.9,1271.3 L-2624.0,1273.5 L-2625.9,1273.7 L-2628.0,1273.5 L-2631.1,1273.0 L-2633.5,1272.3 L-2636.9,1270.6 L-2640.2,1268.7 L-2713.9,1223.7 L-2748.6,1199.3 L-2751.9,1198.8 L-2755.2,1198.9 L-2759.1,1199.0 L-2761.7,1198.6 L-2763.9,1197.6 L-2766.5,1195.6 L-2769.4,1193.3 L-2771.4,1190.5 L-2772.6,1187.7 L-2772.8,1185.6 L-2772.5,1182.9 L-2772.0,1180.6 L-2760.2,1160.8 L-2760.2,1159.9 L-2761.1,1159.2 L-2771.9,1151.6 L-2774.0,1148.5 L-2772.8,1146.6 L-2769.3,1147.1 L-2765.5,1148.2 L-2743.3,1161.9 L-2617.5,1242.2 L-2614.9,1243.7 L-2613.1,1245.6 L-2611.9,1247.8 L-2610.6,1252.4 L-2609.7,1256.0 L-2609.2,1259.1 L-2552.4,1293.2 L-2550.4,1294.1 L-2548.0,1294.3 L-2545.2,1293.9 L-2543.2,1293.2 L-2541.5,1292.4 L-2480.4,1193.5 L-2454.8,1155.9 L-2430.9,1129.0 L-2418.8,1135.7 L-2411.0,1123.1 L-2452.5,1098.3 L-2443.7,1083.9 L-2402.2,1108.9 L-2392.9,1093.7 L-2400.4,1085.3 L-2392.8,1076.6 L-2384.6,1086.0 L-2382.6,1084.5 L-2380.3,1082.9 L-2377.1,1081.1 L-2373.8,1079.5 L-2369.7,1078.0 L-2365.8,1076.9 L-2361.6,1076.2 L-2357.4,1075.9 L-2353.4,1076.0 L-2349.5,1076.6 L-2345.8,1077.5 L-2342.7,1078.4 L-2340.0,1079.6 L-2336.2,1081.4 L-2332.7,1083.6 L-2329.7,1085.7 L-2326.7,1088.4 L-2324.0,1091.0 L-2321.0,1094.9 L-2318.9,1098.4 L-2316.8,1102.9 L-2315.4,1107.4 L-2314.2,1113.6 L-2313.8,1119.0 L-2313.9,1122.1 L-2314.3,1125.3 L-2315.4,1130.1 L-2318.2,1136.7 L-2320.0,1141.0 L-2322.5,1146.1 L-2312.1,1151.3 L-2263.5,1093.3 L-2352.0,1039.5 L-2347.5,1029.9 L-2344.3,1021.0 L-2344.1,1017.2 L-2339.0,1006.3 L-2328.5,996.6 L-2315.5,986.0 L-2300.0,976.1 L-2270.9,967.6 L-2220.7,962.6 L-2200.9,946.6 L-2196.8,945.9 L-2193.5,945.7 L-2188.8,947.5 L-2184.5,948.0 L-2156.6,964.9 L-2083.2,877.8 L-2352.2,706.8 L-2368.9,733.1 L-2405.2,710.1 L-2353.7,629.1 L-2317.5,651.5 L-2333.6,679.1 L-2059.9,851.6 L-2025.4,807.3 L-2001.0,778.3 L-1968.8,729.9 L-1951.0,705.5 L-1952.8,691.6 L-1952.3,691.2 L-1955.5,680.9 L-1957.6,674.5 L-1959.6,667.9 L-1962.0,662.2 L-1966.6,654.7 L-1971.2,647.4 L-1973.2,643.6 L-1974.7,639.8 L-1975.8,636.3 L-1976.2,633.2 L-1976.7,623.0 L-2094.9,514.5 L-2098.8,518.7 L-2102.1,515.9 L-2111.7,525.4 L-2118.0,517.0 L-2110.4,508.2 L-2118.0,498.5 L-2123.2,499.9 L-2128.6,500.1 L-2133.5,499.2 L-2137.8,497.4 L-2142.8,493.7 L-2149.0,487.6 L-2159.9,475.6 L-2163.2,470.5 L-2164.4,464.1 L-2163.6,456.5 L-2160.7,449.5 L-2158.2,444.7 L-2153.4,439.9 L-2148.1,436.3 L-2143.0,434.4 L-2139.2,433.8 L-2134.2,434.7 L-2129.1,436.5 L-2124.3,440.3 L-2113.2,450.3 L-2107.5,455.7 L-2102.3,461.4 L-2100.6,464.1 L-2099.4,467.0 L-2098.7,469.6 L-2098.2,473.2 L-2098.8,476.6 L-2099.8,479.8 L-2101.2,482.2 L-2101.6,483.3 L-2101.3,484.7 L-2100.5,486.1 L-1973.6,605.0 L-1969.2,608.0 L-1966.1,609.3 L-1961.7,608.3 L-1956.5,607.9 L-1949.9,610.7 L-1943.3,614.8 L-1930.4,622.1 L-1925.0,624.7 L-1920.1,619.9 L-1914.7,614.7 L-1911.1,610.6 L-1905.1,602.8 L-1901.7,598.1 L-1898.1,592.3 L-1895.8,587.2 L-1893.3,581.8 L-1891.0,576.1 L-1888.9,570.3 L-1887.7,565.4 L-1886.3,559.2 L-1885.7,555.5 L-1885.3,552.5 L-1884.6,547.2 L-1883.9,542.0 L-1883.6,538.6 L-1883.4,534.9 L-1883.4,530.6 L-1883.6,527.0 L-1884.3,522.0 L-1885.1,516.3 L-1885.9,511.0 L-1886.4,506.7 L-1887.0,503.5 L-1887.7,500.1 L-1888.5,496.7 L-1889.7,492.7 L-1891.1,488.7 L-1892.2,486.3 L-1893.4,483.9 L-1895.1,481.6 L-1897.4,478.3 L-1899.9,475.2 L-1902.6,472.6 L-1906.0,469.8 L-1909.5,467.6 L-1913.0,465.7 L-1916.2,464.5 L-1918.4,463.8 L-1920.9,463.5 L-1923.9,463.6 L-1926.7,464.2 L-1928.9,465.1 L-1931.0,466.6 L-1932.5,468.2 L-1933.7,469.7 L-1934.6,472.0 L-1935.1,474.5 L-1935.0,477.5 L-1934.8,481.0 L-1934.8,483.6 L-1935.0,486.2 L-1935.4,488.8 L-1935.9,491.1 L-1936.8,493.5 L-1938.2,496.1 L-1939.9,498.6 L-1941.6,500.9 L-1943.3,502.5 L-1946.7,505.2 L-1949.5,507.1 L-1953.9,508.4 L-1956.5,509.0 L-1959.5,509.4 L-1962.2,509.5 L-1965.8,509.3 L-1968.4,508.8 L-1972.0,508.0 L-1977.0,506.5 L-1981.2,504.9 L-1984.3,503.7 L-1987.6,501.9 L-1990.5,499.9 L-1993.7,497.4 L-1996.2,495.1 L-1998.3,493.0 L-2000.5,490.4 L-2002.3,488.0 L-2004.0,485.6 L-2005.5,482.9 L-2007.1,479.3 L-2008.5,476.0 L-2009.9,472.4 L-2010.8,469.6 L-2011.5,467.0 L-2012.0,464.3 L-2012.4,460.1 L-2012.7,456.4 L-2012.5,452.4 L-2011.6,447.1 L-2010.1,441.9 L-2008.2,436.5 L-2006.9,434.0 L-2005.6,432.5 L-1995.3,419.4 L-1992.9,416.7 L-1989.8,415.2 L-1986.5,414.0 L-1982.8,413.2 L-1978.7,412.7 L-1975.1,412.5 L-1971.5,412.6 L-1967.9,413.0 L-1963.8,414.2 L-1959.5,416.3 L-1955.8,418.6 L-1952.5,421.2 L-1942.1,430.8 L-1939.6,431.6 L-1938.2,431.9 L-1936.5,431.5 L-1935.4,431.1 L-1934.0,429.5 L-1933.4,427.9 L-1933.3,425.7 L-1933.2,423.7 L-1933.6,422.8 L-1954.6,402.0 L-1926.0,371.5 L-1927.6,367.9 L-1911.1,351.6 L-1879.3,383.4 L-1904.9,416.0 L-1905.1,417.9 L-1903.8,418.7 L-1902.2,418.3 L-1874.1,383.1 L-1865.9,373.2 L-1865.6,370.9 L-1866.3,368.9 L-1867.8,367.1 L-1889.8,346.3 L-1884.3,339.9 L-1889.9,335.2 L-1886.7,327.8 L-1829.7,270.5 L-1810.1,267.2 L-1804.0,266.3 L-1798.2,265.5 L-1795.5,264.8 L-1792.3,263.1 L-1788.5,261.0 L-1785.6,258.1 L-1782.8,254.6 L-1753.7,212.3 L-1753.1,211.2 L-1753.4,209.8 L-1753.8,208.8 L-1754.5,207.9 L-1758.0,205.7 L-1758.9,205.2 L-1759.7,205.3 L-1760.6,205.8 L-1762.5,207.2 L-1786.9,230.0 L-1796.4,236.8 L-1835.4,196.8 L-1830.9,182.6 L-1829.0,178.4 L-1822.9,167.2 L-1815.8,154.7 L-1811.5,149.9 L-1803.8,141.7 L-1795.6,132.7 L-1786.6,123.2 L-1778.9,116.6 L-1775.2,113.3 L-1770.3,109.7 L-1765.8,107.3 L-1759.4,104.4 L-1755.4,103.0 L-1751.4,101.8 L-1748.3,101.5 L-1743.9,101.8 L-1740.2,102.3 L-1736.0,103.5 L-1731.9,106.9 L-1729.4,110.4 L-1727.9,114.0 L-1727.3,119.4 L-1727.5,126.5 L-1728.4,134.5 L-1730.1,142.2 L-1740.4,165.2 L-1750.2,185.9 L-1746.8,191.4 L-1745.0,192.5 L-1743.1,192.5 L-1741.4,192.1 L-1740.1,191.3 L-1733.4,181.8 L-1724.8,177.5 L-1707.7,131.8 L-1706.5,129.5 L-1704.8,127.5 L-1703.1,126.6 L-1701.5,126.2 L-1699.2,126.2 L-1696.8,126.8 L-1684.3,130.3 L-1681.9,130.8 L-1679.1,130.9 L-1676.5,130.5 L-1674.4,129.6 L-1672.6,128.2 L-1670.8,125.9 L-1649.8,97.8 L-1648.8,95.7 L-1648.3,93.5 L-1648.3,91.4 L-1648.7,89.2 L-1649.5,87.6 L-1650.7,86.0 L-1652.1,84.7 L-1654.1,83.7 L-1656.0,83.2 L-1657.9,83.1 L-1659.5,83.4 L-1661.4,84.3 L-1662.8,85.3 L-1663.9,86.7 L-1669.4,95.6 L-1670.6,97.3 L-1672.0,98.9 L-1674.1,100.7 L-1676.0,101.8 L-1678.3,102.5 L-1681.1,103.1 L-1682.7,103.1 L-1684.9,102.8 L-1686.8,102.3 L-1688.4,101.6 L-1705.6,86.0 L-1707.6,83.6 L-1709.1,81.4 L-1710.5,78.7 L-1711.4,76.4 L-1712.0,74.0 L-1712.5,71.4 L-1712.8,68.2 L-1712.9,65.0 L-1712.6,62.3 L-1712.2,60.0 L-1711.7,58.0 L-1710.9,56.3 L-1679.6,6.6 L-1677.6,3.3 L-1676.4,1.6 L-1675.0,0.8 L-1672.7,-0.2 L-1670.3,-0.9 L-1668.0,-1.3 L-1666.7,-1.3 L-1665.4,-1.1 L-1664.3,-0.7 L-1662.7,0.1 L-1660.8,1.3 L-1657.6,3.9 L-1643.3,17.3 L-1640.9,20.7 L-1639.5,24.0 L-1638.2,27.9 L-1637.8,30.9 L-1637.6,34.1 L-1637.6,36.8 L-1637.9,39.5 L-1638.4,42.2 L-1639.0,44.0 L-1640.6,47.7 L-1646.3,58.3 L-1646.9,60.7 L-1646.9,63.6 L-1646.7,65.8 L-1645.9,67.5 L-1644.4,69.1 L-1642.0,70.8 L-1640.0,71.9 L-1637.7,72.4 L-1635.0,72.3 L-1632.8,71.8 L-1630.3,70.5 L-1628.1,68.5 L-1591.1,17.7 L-1602.4,7.5 L-1595.6,0.2 L-1585.5,9.9 L-1564.7,-17.4 L-1533.2,-59.5 L-1660.0,-181.0 L-1687.5,-152.1 L-1719.8,-182.6 L-1688.6,-216.2 L-1692.7,-220.7 L-1686.2,-226.7 L-1682.2,-222.6 L-1660.5,-246.2 L-1641.0,-228.1 L-1638.7,-213.1 L-1556.7,-136.6 L-1540.7,-130.4 L-1527.9,-134.9 L-1503.6,-125.2 L-1487.5,-131.1 L-1439.6,-189.6 L-1436.9,-195.1 L-1436.1,-202.5 L-1438.5,-209.8 L-1441.7,-215.0 L-1470.1,-241.2 L-1469.7,-248.4 L-1464.1,-262.5 L-1452.9,-283.4 L-1475.0,-297.7 L-1466.6,-300.9 L-1461.3,-304.3 L-1456.0,-310.3 L-1449.8,-326.2 L-1438.4,-355.2 L-1431.0,-362.0 L-1501.2,-430.0 L-1516.6,-420.4 L-1520.2,-419.5 L-1523.6,-419.4 L-1528.0,-419.9 L-1531.6,-420.9 L-1535.1,-423.0 L-1538.0,-425.5 L-1574.3,-460.5 L-1581.1,-467.3 L-1584.1,-470.9 L-1586.6,-475.4 L-1587.8,-479.5 L-1588.3,-483.5 L-1588.2,-487.3 L-1587.5,-490.9 L-1586.6,-493.8 L-1585.4,-495.9 L-1582.8,-499.6 L-1579.7,-503.3 L-1563.4,-520.2 L-1439.4,-405.3 L-1447.9,-395.7 L-1356.0,-308.8 L-1250.1,-463.9 L-1317.3,-526.7 L-1325.9,-519.0 L-1451.4,-637.5 L-1435.0,-652.8 L-1362.9,-585.2 L-1355.7,-595.8 L-1351.7,-601.1 L-1346.6,-606.3 L-1340.7,-612.8 L-1334.7,-616.7 L-1325.2,-624.7 L-1315.7,-633.5 L-1297.5,-650.7 L-1254.0,-699.6 L-1246.2,-707.7 L-1217.5,-722.4 L-1190.3,-743.7 L-1187.7,-745.7 L-1180.6,-751.2 L-1177.5,-754.0 L-1175.0,-757.2 L-1173.3,-760.5 L-1172.2,-763.8 L-1170.9,-766.3 L-1169.4,-769.0 L-1166.8,-773.3 L-1165.0,-776.0 L-1163.2,-778.5 L-1159.9,-781.1 L-1156.7,-783.3 L-1153.2,-785.4 L-1144.9,-789.4 L-1136.9,-793.4 L-1135.7,-793.6 L-1134.5,-793.4 L-1132.1,-792.7 L-1125.6,-789.4 L-1120.7,-787.0 L-1118.4,-785.6 L-1116.3,-783.9 L-1082.9,-752.2 L-1080.6,-750.9 L-1069.7,-748.0 L-1066.2,-747.0 L-1062.3,-746.6 L-1059.3,-746.7 L-1057.0,-747.5 L-1054.7,-749.1 L-1042.8,-765.9 L-1042.8,-768.2 L-1043.2,-770.3 L-1044.5,-772.6 L-1046.5,-774.8 L-1055.6,-783.3 L-1054.9,-784.7 L-1043.2,-809.5 L-1023.2,-849.8 L-1005.0,-863.2 L-994.5,-873.7 L-987.3,-882.0 L-979.7,-889.7 L-971.3,-896.6 L-966.2,-901.3 L-960.8,-906.2 L-956.8,-910.2 L-954.8,-913.8 L-953.2,-916.6 L-952.2,-919.3 L-951.8,-922.5 L-951.6,-925.7 L-945.5,-931.9 L-936.5,-940.4 L-921.5,-952.7 L-905.8,-964.6 L-898.8,-974.4 L-896.2,-984.5 L-888.4,-989.3 L-878.6,-989.5 L-868.7,-995.4 L-860.0,-1011.1 L-860.2,-1027.4 L-858.6,-1052.6 L-856.1,-1056.2 L-854.6,-1058.6 L-851.8,-1063.2 L-855.3,-1073.9 L-851.3,-1078.9 L-831.5,-1103.4 L-797.5,-1143.1 L-791.0,-1152.5 L-788.4,-1157.4 L-777.6,-1172.3 L-774.6,-1181.7 L-774.5,-1196.2 L-774.9,-1210.7 L-775.0,-1225.5 L-770.6,-1241.8 L-763.2,-1257.9 L-752.6,-1273.4 L-744.9,-1284.9 L-735.8,-1296.4 L-718.2,-1316.0 L-640.2,-1354.6 L-629.9,-1357.3 L-627.3,-1351.7 L-624.2,-1346.3 L-623.2,-1345.3 L-621.5,-1346.0 L-621.2,-1349.8 L-622.4,-1353.0 L-618.1,-1354.3 L-602.1,-1359.0 L-581.3,-1365.2 L-564.5,-1370.2 L-558.5,-1372.0 L-564.5,-1390.9 L-554.1,-1393.7 L-536.8,-1396.1 L-534.7,-1396.4 L-534.6,-1397.6 L-534.6,-1402.0 L-518.9,-1402.7 L-494.3,-1403.7 L-484.8,-1399.1 L-461.1,-1313.7 L-455.8,-1308.6 L-466.1,-1298.0 L-457.0,-1289.0 L-448.0,-1280.0 L-437.2,-1291.0 L-236.7,-1100.4 L30.9,-1386.0 L124.4,-1296.6 L128.0,-1297.7 L129.4,-1296.1 L135.7,-1300.1 L140.9,-1302.0 L146.4,-1304.5 L155.8,-1309.4 L161.6,-1312.7 L168.5,-1316.7 L174.9,-1320.7 L180.1,-1324.1 L184.9,-1327.2 L190.5,-1331.3 L196.9,-1336.0 L201.8,-1340.1 L207.0,-1344.7 L212.7,-1350.1 L218.1,-1355.5 L230.7,-1368.9 L238.3,-1378.0 L245.7,-1387.9 L250.8,-1395.1 L255.6,-1402.5 L261.3,-1412.8 L266.3,-1422.9 L270.3,-1431.2 L273.7,-1439.5 L275.8,-1445.0 L278.1,-1451.2 L283.5,-1457.9 L112.5,-1620.6 L114.6,-1622.9 L135.1,-1644.9 L150.0,-1660.7 L151.5,-1662.3 L194.9,-1621.7 L205.4,-1627.1 L206.6,-1625.6 L308.6,-1678.7 L312.8,-1680.9 L315.7,-1683.2 L318.4,-1685.7 L321.5,-1688.9 L324.5,-1693.4 L327.1,-1697.6 L328.8,-1700.8 L330.0,-1704.9 L331.1,-1709.4 L331.6,-1714.3 L331.6,-1719.8 L331.2,-1724.2 L330.4,-1728.1 L329.1,-1732.8 L297.2,-1824.6 L292.9,-1839.7 L294.0,-1844.9 L217.0,-1864.0 L220.6,-1877.3 L223.6,-1889.3 L246.4,-1979.5 L228.7,-2032.1 L218.3,-2066.1 L215.3,-2074.6 L242.9,-2099.9 L274.0,-2116.6 L275.9,-2114.0 L278.9,-2109.7 L285.9,-2100.6 L286.7,-2101.4 L286.9,-2104.5 L277.2,-2117.9 L294.5,-2130.3 L298.3,-2132.5 L307.3,-2120.8 L308.8,-2119.7 L310.3,-2119.4 L311.1,-2119.6 L311.1,-2120.4 L268.3,-2179.0 L265.2,-2182.4 L261.6,-2187.3 L243.0,-2209.8 L258.9,-2259.1 L271.1,-2271.8 L285.2,-2278.4 L315.2,-2296.2 L321.4,-2302.6 L348.3,-2326.2 L356.8,-2317.3 L381.7,-2290.4 L404.8,-2309.8 L420.3,-2294.9 L434.2,-2281.3 L434.9,-2280.6 L446.7,-2290.7 L462.3,-2274.1 L475.7,-2256.9 L485.6,-2245.4 L486.9,-2243.9 L515.7,-2269.2 L517.2,-2270.5 L510.4,-2278.8 L526.1,-2291.7 L573.7,-2236.2 L614.2,-2262.9 L618.2,-2266.7 L635.8,-2274.1 L639.8,-2278.0 L643.6,-2283.0 L665.3,-2302.3 L660.4,-2309.0 L621.6,-2300.1 L577.2,-2350.6 L582.3,-2355.0 L589.0,-2347.2 L620.4,-2374.2 L653.7,-2337.8 L662.7,-2334.2 L668.1,-2331.1 L674.9,-2323.4 L678.6,-2326.7 L654.5,-2354.1 L669.3,-2366.9 L699.2,-2331.0 L703.0,-2333.8 L702.6,-2334.6 L768.2,-2382.0 L787.7,-2396.4 L724.0,-2476.0 L737.6,-2485.5 L793.0,-2420.6 L833.9,-2413.1 L860.9,-2428.9 L864.7,-2431.3 L864.5,-2434.3 L862.6,-2437.8 L883.7,-2451.1 L889.9,-2444.9 L907.7,-2455.4 L894.8,-2471.4 L832.5,-2554.7 L876.5,-2600.3 L905.4,-2643.0 L906.1,-2676.4 L890.7,-2720.8 L923.1,-2747.8 L957.1,-2760.9 L968.3,-2763.5 L977.3,-2764.7 L988.3,-2764.0 L999.7,-2761.2 L1016.2,-2747.1 L1059.0,-2694.9 L1093.2,-2651.5 L1134.1,-2624.2 L1150.2,-2621.6 L1164.6,-2619.9 L1176.8,-2619.4 L1192.4,-2620.5 L1209.3,-2623.3 L1223.0,-2627.2 L1234.6,-2632.6 L1242.3,-2637.1 L1248.0,-2643.1 L1257.6,-2654.7 L1268.0,-2673.7 L1279.3,-2698.9 L1299.4,-2688.6 L1307.4,-2685.9 L1316.0,-2684.7 L1329.7,-2685.6 L1338.8,-2688.3 L1349.2,-2692.8 L1358.9,-2698.4 L1369.2,-2708.4 L1378.0,-2716.4 L1389.0,-2723.9 L1396.6,-2728.8 L1407.8,-2732.8 L1427.1,-2738.4 L1438.5,-2741.6 L1450.7,-2746.2 L1461.3,-2751.7 L1467.6,-2755.3 L1472.6,-2760.5 L1538.0,-2793.3 L1540.5,-2794.7 L1543.4,-2796.5 L1546.4,-2798.8 L1550.8,-2801.3 L1553.7,-2802.7 L1556.8,-2805.4 L1559.2,-2807.9 L1562.4,-2810.0 L1565.8,-2812.4 L1570.3,-2816.6 L1576.7,-2817.1 L1583.3,-2817.9 L1587.6,-2819.3 L1593.2,-2821.9 L1600.1,-2825.0 L1607.4,-2829.5 L1611.5,-2833.4 L1616.1,-2838.7 L1619.0,-2843.6 L1620.6,-2848.1 L1620.7,-2851.3 L1620.8,-2853.9 L1622.4,-2864.3 L1658.8,-2885.4 L1722.6,-2922.2 L1735.0,-2929.3 L1843.2,-2991.7 L1960.4,-3059.0 L2010.3,-3087.6 L2027.6,-3097.3 L2172.5,-3181.5 L2204.7,-3199.2 L2204.2,-3200.3 L2270.5,-3237.8 L2296.0,-3252.1 L2343.0,-3278.1 L2343.5,-3277.4 L2361.7,-3287.4 L2405.9,-3312.1 L2411.2,-3316.9 L2456.0,-3349.7 L2478.3,-3368.2 L2498.8,-3385.5 L2508.2,-3390.8 L2529.4,-3411.8 L2531.2,-3410.7 L2534.0,-3411.0 L2535.4,-3410.1 L2565.2,-3445.0 L2557.7,-3452.0 L2558.7,-3453.8 L2561.9,-3458.4 L2570.5,-3469.3 L2575.7,-3477.2 L2579.8,-3483.7 L2585.5,-3492.4 L2591.0,-3501.4 L2597.2,-3511.7 L2603.6,-3522.9 L2617.5,-3551.6 L2621.8,-3560.7 L2625.3,-3568.0 L2627.7,-3573.5 L2629.8,-3577.7 L2634.2,-3588.7 L2518.4,-3804.7 L2516.2,-3808.8 L2514.5,-3811.1 L2513.3,-3812.8 L2511.7,-3814.2 L2510.2,-3815.2 L2508.2,-3816.4 L2506.1,-3817.2 L2504.3,-3817.6 L2502.5,-3817.8 L2499.8,-3817.8 L2496.7,-3817.3 L2494.0,-3816.5 L2491.2,-3815.1 L2464.3,-3799.6 L2429.2,-3779.5 L2404.7,-3765.9 L2360.0,-3741.3 L2332.6,-3726.4 L2333.6,-3724.7 L2321.9,-3718.0 L2283.6,-3698.2 L2255.2,-3681.4 L2238.5,-3672.1 L2213.1,-3657.5 L2210.2,-3655.5 L2187.9,-3695.6 L2231.7,-3719.6 L2291.5,-3752.1 L2332.2,-3774.7 L2337.2,-3777.6 L2336.5,-3778.7 L2371.7,-3797.9 L2390.4,-3808.2 L2433.3,-3829.1 L2441.5,-3833.3 L2506.2,-3869.3 L2530.5,-3882.7 L2547.6,-3891.9 L2567.8,-3903.5 L2595.8,-3852.9 L2551.8,-3828.8 L2549.5,-3825.1 L2548.6,-3821.2 L2548.2,-3818.2 L2548.1,-3815.6 L2548.3,-3813.5 L2549.1,-3810.6 L2638.8,-3644.7 L2640.5,-3642.2 L2642.5,-3640.3 L2644.5,-3639.0 L2646.6,-3638.3 L2648.9,-3638.0 L2651.1,-3638.2 L2652.8,-3638.7 L2692.6,-3668.9 L2711.3,-3684.6 L2730.6,-3700.9 L2737.9,-3707.6 L2761.8,-3727.2 L2762.9,-3727.2 L2786.1,-3747.0 L2786.2,-3748.2 L2801.4,-3760.7 L2813.4,-3770.5 L2834.0,-3787.5 L2835.9,-3785.2 L2856.1,-3801.9 L2866.3,-3810.4 L2894.6,-3833.9 L2914.3,-3850.3 L2912.4,-3853.1 L2918.9,-3858.6 L2929.6,-3867.4 L2936.2,-3873.2 L2964.1,-3885.7 L2983.0,-3892.3 L2992.7,-3896.9 L3019.9,-3897.1 L3029.4,-3897.1 L3049.5,-3896.1 L3073.0,-3895.1 L3074.7,-3896.7 L3077.0,-3893.7 L3084.4,-3893.3 L3151.7,-3887.5 L3159.6,-3885.8 L3166.5,-3884.7 L3182.1,-3883.4 L3211.2,-3882.0 L3217.6,-3881.9 L3223.6,-3882.1 L3246.9,-3883.0 L3258.9,-3883.6 L3270.8,-3884.7 L3289.1,-3886.6 L3289.0,-3885.5 L3303.5,-3888.0 L3317.2,-3890.6 L3327.7,-3892.5 L3341.5,-3902.9 L3343.1,-3900.7 L3344.8,-3898.3 L3466.4,-3737.5 L3759.9,-3636.3 L4298.5,-4031.9 L4445.3,-4137.6 L4502.0,-4258.6 L4411.8,-4376.8 L4415.8,-4393.7 L4431.6,-4398.0 L4462.0,-4391.7 L4483.6,-4399.8 L4489.6,-4408.2 L4488.3,-4415.5 L4472.2,-4447.1 L4471.1,-4458.9 L4470.2,-4482.3 L4467.4,-4504.9 L4470.2,-4508.9 L4479.3,-4513.3 L4490.4,-4515.8 L4498.4,-4524.4 L4500.2,-4534.8 L4493.4,-4554.9 L4492.7,-4568.8 L4494.9,-4584.6 L4505.9,-4612.3 L4503.6,-4625.1 L4498.1,-4639.4 L4497.9,-4658.8 L4494.7,-4684.4 L4488.9,-4700.4 L4485.3,-4708.8 L4487.7,-4712.5 L4490.0,-4712.3 L4490.6,-4713.8 L4490.9,-4715.8 L4490.8,-4717.8 L4487.3,-4718.2 L4485.1,-4721.3 L4485.5,-4725.0 L4482.5,-4725.8 L4478.8,-4725.9 L4478.3,-4725.0 L4470.7,-4734.0 L4469.1,-4736.8 L4467.8,-4740.7 L4466.9,-4744.5 L4466.2,-4748.5 L4465.9,-4752.5 L4465.7,-4756.1 L4465.7,-4759.8 L4466.0,-4761.8 L4467.6,-4766.8 L4469.4,-4770.8 L4471.7,-4774.7 L4475.1,-4779.6 L4478.6,-4784.3 L4481.9,-4787.7 L4486.0,-4790.8 L4486.8,-4790.0 L4521.9,-4816.8 L4527.0,-4820.7 L4526.0,-4822.2 L4526.0,-4824.8 L4534.7,-4831.6 L4536.9,-4831.5 L4539.0,-4830.0 L4542.7,-4832.8 L4578.7,-4860.1 L4578.3,-4861.0 L4582.5,-4864.1 L4587.5,-4867.2 L4591.0,-4868.8 L4596.0,-4870.7 L4600.3,-4871.9 L4604.6,-4872.5 L4609.3,-4872.9 L4612.1,-4872.7 L4616.0,-4872.1 L4619.8,-4870.8 L4622.6,-4869.4 L4625.3,-4867.8 L4627.3,-4866.3 L4629.0,-4864.7 L4631.5,-4862.3 L4632.6,-4861.9 L4634.4,-4861.9 L4636.2,-4862.2 L4641.7,-4866.1 L4641.7,-4867.2 L4642.3,-4868.0 L4642.9,-4869.1 L4642.8,-4870.4 L4642.5,-4871.5 L4641.7,-4872.5 L4637.8,-4876.4 L4634.7,-4878.9 L4631.1,-4880.9 L4625.2,-4883.5 L4620.1,-4885.5 L4629.0,-4890.1 L4639.9,-4897.7 L4653.4,-4899.4 L4666.9,-4898.5 L4675.7,-4902.0 L4683.4,-4913.0 L4712.4,-4964.9 L4724.2,-4986.3 L4733.5,-5009.1 L4735.1,-5013.9 L4748.9,-5056.2 L4751.1,-5060.3 L4753.7,-5064.4 L4786.1,-5104.5 L4793.0,-5111.7 L4798.1,-5116.1 L4870.7,-5178.3 L4874.7,-5181.0 L4887.1,-5187.8 L4902.0,-5196.2 L4948.4,-5220.5 L5049.5,-5274.8 L5051.9,-5272.9 L5053.8,-5272.2 L5055.5,-5271.7 L5057.3,-5272.0 L5059.2,-5272.4 L5064.6,-5273.5 L5070.9,-5274.9 L5076.6,-5276.2 L5082.5,-5277.3 L5085.7,-5278.0 L5090.1,-5279.3 L5095.1,-5281.4 L5107.2,-5288.0 L5111.6,-5290.4 L5113.9,-5291.8 L5116.2,-5292.8 L5125.6,-5296.8 L5135.9,-5300.8 L5148.9,-5306.4 L5164.2,-5312.7 L5164.8,-5313.0 L5166.1,-5313.1 L5167.8,-5313.6 L5170.2,-5315.4 L5172.9,-5316.4 L5175.9,-5317.9 L5181.5,-5321.1 L5183.5,-5323.1 L5186.8,-5325.2 L5186.5,-5325.8 L5187.9,-5327.5 L5189.7,-5329.4 L5192.7,-5330.9 L5195.2,-5331.9 L5197.9,-5332.9 L5200.4,-5334.2 L5205.3,-5337.3 L5206.7,-5338.7 L5208.1,-5340.9 L5208.7,-5342.5 L5208.9,-5344.1 L5208.7,-5345.6 L5209.0,-5347.1 L5195.0,-5364.0 L5239.1,-5389.9 L5260.0,-5401.0 L5264.1,-5402.3 L5270.5,-5401.1 L5277.6,-5391.2 L5280.8,-5388.4 L5283.7,-5387.0 L5286.4,-5386.4 L5288.9,-5386.5 L5326.7,-5402.1 L5337.0,-5407.1 L5346.6,-5412.4 L5362.1,-5420.6 L5365.3,-5421.7 L5580.1,-5511.0 L5647.3,-5543.3 L5947.8,-5687.6 L12960.9,-5745.6 L12960.9,4290.0 L-2026.8,4290.0 L-2026.8,3863.5 Z" fill="#add7e1" stroke="none"><title>Biscayne Bay</title></path><path d="M-1.0,-1.0 L257.0,-1.0 L257.0,257.0 L-1.0,257.0 L-1.0,-1.0 Z" fill="#add7e1" stroke="none" fill-rule="evenodd"><title>Biscayne Bay</title></path></svg>