<svg xmlns="http://www.w3.org/2000/svg" width="256" height="256" viewBox="0 0 256 256"><rect width="256" height="256" fill="#f1efe7"/><path d="M-17930.7,11986.3 L-17715.9,11897.0 L-17648.7,11864.7 L-17348.2,11720.4 L-17291.8,11775.0 L-17286.9,11779.7 L-17181.5,11689.5 L-17156.4,11670.4 L-17114.5,11632.6 L-16878.4,11415.8 L-16687.9,11198.2 L-16680.6,11184.3 L-16673.6,11176.4 L-16662.5,11163.7 L-16651.2,11150.8 L-16646.6,11145.5 L-16721.7,11048.4 L-16622.3,10988.8 L-16568.4,11060.5 L-16492.2,10973.3 L-16556.7,10887.9 L-16476.8,10804.6 L-16415.3,10885.6 L-16344.7,10805.2 L-16314.6,10785.5 L-16167.4,10690.0 L-16094.7,10641.7 L-16007.1,10584.1 L-15965.7,10556.9 L-15860.8,10489.2 L-15887.8,10453.7 L-15936.1,10389.0 L-15811.2,10309.6 L-15765.7,10286.1 L-15762.2,10283.6 L-15738.2,10265.1 L-15652.6,10219.3 L-15646.7,10210.1 L-15622.7,10193.6 L-15609.7,10174.6 L-15606.0,10171.8 L-15585.1,10163.7 L-15537.9,10146.8 L-15505.6,10132.6 L-15391.5,10079.0 L-15390.1,10082.7 L-15294.4,10041.8 L-15255.3,10091.9 L-15168.2,10033.8 L-15155.8,10025.3 L-15154.6,10024.3 L-15153.4,10022.7 L-15151.5,10019.4 L-15150.5,10016.3 L-15149.9,10012.6 L-15150.0,10009.6 L-15150.4,10006.7 L-15150.8,10003.4 L-15150.9,10000.9 L-15150.7,9998.8 L-15150.3,9996.6 L-15148.7,9992.6 L-15147.6,9990.4 L-15145.1,9986.6 L-15142.5,9983.8 L-15129.8,9978.7 L-15119.2,9974.7 L-15105.7,9970.3 L-15099.4,9968.6 L-15088.2,9964.9 L-15080.3,9962.1 L-15069.4,9957.6 L-15054.6,9951.1 L-15038.6,9943.6 L-15030.0,9939.4 L-15019.2,9933.9 L-15009.1,9928.3 L-14999.0,9922.3 L-14988.7,9915.6 L-14985.5,9913.4 L-14964.8,9897.6 L-14947.4,9884.2 L-14930.4,9869.8 L-14914.5,9854.8 L-14903.0,9841.9 L-14891.6,9828.0 L-14877.6,9810.0 L-14864.8,9792.0 L-14850.1,9768.9 L-14840.5,9751.0 L-14834.5,9739.6 L-14825.6,9720.3 L-14818.1,9702.4 L-14811.4,9683.1 L-14806.0,9666.2 L-14800.1,9638.8 L-14795.8,9614.3 L-14793.5,9593.3 L-14791.5,9568.5 L-14791.3,9542.0 L-14792.9,9517.5 L-14797.1,9485.5 L-14801.5,9463.7 L-14806.5,9443.1 L-14813.9,9419.7 L-14820.2,9401.8 L-14827.4,9382.3 L-14834.2,9366.1 L-14838.8,9355.6 L-14840.7,9347.9 L-14841.0,9342.0 L-14840.4,9336.7 L-14838.3,9332.1 L-14835.1,9328.2 L-14830.9,9326.0 L-14826.4,9325.4 L-14814.3,9328.3 L-14780.6,9336.4 L-14769.4,9081.7 L-14725.7,8627.1 L-14773.2,8615.9 L-14778.4,8601.6 L-14778.2,8581.1 L-14771.6,8534.6 L-14762.6,8524.1 L-14754.6,8493.9 L-14704.1,8505.6 L-14676.3,8215.1 L-14668.6,8134.7 L-14684.3,8130.8 L-14674.8,8092.4 L-14707.1,8084.7 L-14703.0,8061.2 L-14697.3,8045.7 L-14690.2,8027.6 L-14678.2,8002.3 L-14665.3,8005.2 L-14647.9,7822.5 L-14643.8,7711.7 L-14643.0,7691.3 L-14633.6,7620.8 L-14614.9,7445.1 L-14490.1,7119.7 L-14461.6,7031.0 L-14114.9,6898.0 L-14081.0,6884.4 L-14075.1,6881.2 L-14070.5,6877.0 L-14065.4,6871.1 L-14061.5,6864.2 L-14058.9,6857.4 L-14058.3,6847.5 L-14058.8,6835.2 L-14063.4,6679.7 L-14065.1,6649.6 L-14065.6,6628.9 L-14066.3,6588.7 L-14067.1,6576.1 L-14068.6,6565.5 L-14070.7,6556.1 L-14073.8,6546.5 L-14078.7,6535.2 L-14085.9,6523.1 L-14092.9,6513.5 L-14098.3,6504.4 L-14103.8,6492.3 L-14108.4,6480.7 L-14110.2,6471.2 L-14111.6,6460.7 L-14112.3,6450.2 L-14112.0,6440.0 L-14110.8,6428.1 L-14108.0,6416.4 L-14104.3,6406.0 L-14100.4,6396.5 L-14095.4,6387.3 L-14089.3,6376.1 L-14085.3,6366.0 L-14081.8,6353.1 L-14075.4,6343.3 L-14077.6,6254.1 L-14080.9,6248.9 L-14081.9,6188.3 L-14083.6,6116.8 L-14082.4,6106.9 L-14079.2,6096.8 L-14071.2,6081.0 L-14017.7,5965.9 L-14016.6,5964.0 L-14007.2,5943.5 L-13998.3,5924.1 L-13988.3,5904.1 L-13978.5,5883.5 L-13973.7,5873.5 L-13921.1,5765.6 L-13864.9,5646.4 L-13743.3,5399.6 L-13816.4,5317.7 L-13876.0,5444.7 L-13927.5,5554.6 L-13935.3,5570.2 L-13951.2,5602.7 L-13983.0,5600.0 L-13991.7,5599.5 L-13994.8,5602.3 L-13990.6,5606.1 L-14006.9,5620.6 L-14019.8,5632.5 L-14022.2,5683.4 L-14027.0,5693.6 L-14042.6,5693.0 L-14045.2,5692.1 L-14249.6,5607.7 L-14254.0,5605.4 L-14258.7,5602.4 L-14266.1,5596.8 L-14271.8,5591.4 L-14276.6,5586.2 L-14281.3,5579.8 L-14284.9,5574.2 L-14287.7,5568.4 L-14289.9,5562.3 L-14291.4,5558.1 L-14292.5,5553.0 L-14293.3,5547.0 L-14294.1,5538.8 L-14294.1,5527.1 L-14295.5,5487.4 L-14289.9,5487.1 L-14290.7,5466.1 L-14291.6,5431.5 L-14286.4,5431.4 L-14286.8,5407.8 L-14292.7,5407.9 L-14295.4,5308.5 L-14289.8,5308.2 L-14290.7,5284.9 L-14296.1,5285.1 L-14298.4,5211.6 L-14271.4,5182.5 L-14236.9,5181.3 L-14211.2,5180.4 L-14177.3,5179.3 L-14144.7,5178.3 L-14115.5,5177.3 L-14102.8,5176.7 L-14103.4,5165.4 L-14103.6,5153.6 L-14105.5,5115.3 L-14106.2,5042.2 L-14107.2,5040.9 L-14107.4,5033.7 L-14105.3,5033.6 L-14110.4,4857.5 L-14114.8,4691.8 L-14115.5,4686.6 L-14115.9,4677.0 L-14188.1,4679.6 L-14236.1,4675.5 L-14595.4,4688.0 L-14595.5,4684.8 L-14596.2,4669.5 L-14766.6,4675.5 L-14766.9,4647.2 L-14789.4,4642.1 L-14793.4,4521.0 L-14130.6,4498.0 L-14119.6,4482.9 L-14120.0,4439.9 L-14120.8,4402.7 L-14121.4,4379.4 L-14122.3,4356.7 L-14175.0,4331.9 L-14177.1,4276.8 L-14123.1,4250.0 L-14128.0,4122.5 L-14129.4,4116.2 L-14183.1,4091.1 L-14184.8,4022.9 L-14133.8,3996.6 L-14156.5,3719.7 L-14150.5,3596.5 L-14147.5,3395.6 L-14147.7,3177.1 L-14142.9,3146.5 L-14142.6,3131.7 L-14147.4,3113.9 L-14142.4,3113.9 L-14142.4,3097.8 L-14139.4,2686.8 L-14139.9,2668.5 L-14145.6,2668.5 L-14145.4,2592.9 L-14148.7,2588.2 L-14153.9,2510.2 L-14143.6,2438.9 L-14144.9,2352.6 L-14148.4,2331.9 L-14143.1,2268.0 L-14146.7,2190.7 L-14155.7,2108.0 L-14172.8,1974.0 L-14164.7,1937.1 L-14168.3,1901.2 L-14198.9,1875.1 L-14243.8,1875.5 L-14312.2,1884.5 L-14356.7,1884.5 L-14397.1,1869.7 L-14450.2,1833.3 L-14450.2,1768.0 L-14451.6,1687.7 L-14446.4,1620.8 L-14428.8,1568.6 L-14134.1,1563.1 L-14127.3,1145.2 L-14127.3,543.6 L-14130.4,325.3 L1781.8,-6246.4 L1781.8,29971.8 L-17930.7,29971.8 L-17930.7,11986.3 Z" fill="#add7e1" stroke="none"><title>Biscayne Bay</title></path></svg>