<svg xmlns="http://www.w3.org/2000/svg" width="256" height="256" viewBox="0 0 256 256"><rect width="256" height="256" fill="#f1efe7"/><path d="M-17930.7,2002.3 L-17715.9,1913.0 L-17648.7,1880.7 L-17348.2,1736.4 L-17291.8,1791.0 L-17286.9,1795.7 L-17181.5,1705.5 L-17156.4,1686.4 L-17114.5,1648.6 L-16878.4,1431.8 L-16687.9,1214.2 L-16680.6,1200.3 L-16673.6,1192.4 L-16662.5,1179.7 L-16651.2,1166.8 L-16646.6,1161.5 L-16721.7,1064.4 L-16622.3,1004.8 L-16568.4,1076.5 L-16492.2,989.3 L-16556.7,903.9 L-16476.8,820.6 L-16415.3,901.6 L-16344.7,821.2 L-16314.6,801.5 L-16167.4,706.0 L-16094.7,657.7 L-16007.1,600.1 L-15965.7,572.9 L-15860.8,505.2 L-15887.8,469.7 L-15936.1,405.0 L-15811.2,325.6 L-15765.7,302.1 L-15762.2,299.6 L-15738.2,281.1 L-15652.6,235.3 L-15646.7,226.1 L-15622.7,209.6 L-15609.7,190.6 L-15606.0,187.8 L-15585.1,179.7 L-15537.9,162.8 L-15505.6,148.6 L-15391.5,95.0 L-15390.1,98.7 L-15294.4,57.8 L-15255.3,107.9 L-15168.2,49.8 L-15155.8,41.3 L-15154.6,40.3 L-15153.4,38.7 L-15151.5,35.4 L-15150.5,32.3 L-15149.9,28.6 L-15150.0,25.6 L-15150.4,22.7 L-15150.8,19.4 L-15150.9,16.9 L-15150.7,14.8 L-15150.3,12.6 L-15148.7,8.6 L-15147.6,6.4 L-15145.1,2.6 L-15142.5,-0.2 L-15129.8,-5.3 L-15119.2,-9.3 L-15105.7,-13.7 L-15099.4,-15.4 L-15088.2,-19.1 L-15080.3,-21.9 L-15069.4,-26.4 L-15054.6,-32.9 L-15038.6,-40.4 L-15030.0,-44.6 L-15019.2,-50.1 L-15009.1,-55.7 L-14999.0,-61.7 L-14988.7,-68.4 L-14985.5,-70.6 L-14964.8,-86.4 L-14947.4,-99.8 L-14930.4,-114.2 L-14914.5,-129.2 L-14903.0,-142.1 L-14891.6,-156.0 L-14877.6,-174.0 L-14864.8,-192.0 L-14850.1,-215.1 L-14840.5,-233.0 L-14834.5,-244.4 L-14825.6,-263.7 L-14818.1,-281.6 L-14811.4,-300.9 L-14806.0,-317.8 L-14800.1,-345.2 L-14795.8,-369.7 L-14793.5,-390.7 L-14791.5,-415.5 L-14791.3,-442.0 L-14792.9,-466.5 L-14797.1,-498.5 L-14801.5,-520.3 L-14806.5,-540.9 L-14813.9,-564.3 L-14820.2,-582.2 L-14827.4,-601.7 L-14834.2,-617.9 L-14838.8,-628.4 L-14840.7,-636.1 L-14841.0,-642.0 L-14840.4,-647.3 L-14838.3,-651.9 L-14835.1,-655.8 L-14830.9,-658.0 L-14826.4,-658.6 L-14814.3,-655.7 L-14780.6,-647.6 L-14769.4,-902.3 L-14725.7,-1356.9 L-14773.2,-1368.1 L-14778.4,-1382.4 L-14778.2,-1402.9 L-14771.6,-1449.4 L-14762.6,-1459.9 L-14754.6,-1490.1 L-14704.1,-1478.4 L-14676.3,-1768.9 L-14668.6,-1849.3 L-14684.3,-1853.2 L-14674.8,-1891.6 L-14707.1,-1899.3 L-14703.0,-1922.8 L-14697.3,-1938.3 L-14690.2,-1956.4 L-14678.2,-1981.7 L-14665.3,-1978.8 L-14647.9,-2161.5 L-14643.8,-2272.3 L-14643.0,-2292.7 L-14633.6,-2363.2 L-14614.9,-2538.9 L-14490.1,-2864.3 L-14461.6,-2953.0 L-14114.9,-3086.0 L-14081.0,-3099.6 L-14075.1,-3102.8 L-14070.5,-3107.0 L-14065.4,-3112.9 L-14061.5,-3119.8 L-14058.9,-3126.6 L-14058.3,-3136.5 L-14058.8,-3148.8 L-14063.4,-3304.3 L-14065.1,-3334.4 L-14065.6,-3355.1 L-14066.3,-3395.3 L-14067.1,-3407.9 L-14068.6,-3418.5 L-14070.7,-3427.9 L-14073.8,-3437.5 L-14078.7,-3448.8 L-14085.9,-3460.9 L-14092.9,-3470.5 L-14098.3,-3479.6 L-14103.8,-3491.7 L-14108.4,-3503.3 L-14110.2,-3512.8 L-14111.6,-3523.3 L-14112.3,-3533.8 L-14112.0,-3544.0 L-14110.8,-3555.9 L-14108.0,-3567.6 L-14104.3,-3578.0 L-14100.4,-3587.5 L-14095.4,-3596.7 L-14089.3,-3607.9 L-14085.3,-3618.0 L-14081.8,-3630.9 L-14075.4,-3640.7 L-14077.6,-3729.9 L-14080.9,-3735.1 L-14081.9,-3795.7 L-14083.6,-3867.2 L-14082.4,-3877.1 L-14079.2,-3887.2 L-14071.2,-3903.0 L-14017.7,-4018.1 L-14016.6,-4020.0 L-14007.2,-4040.5 L-13998.3,-4059.9 L-13988.3,-4079.9 L-13978.5,-4100.5 L-13973.7,-4110.5 L-13921.1,-4218.4 L-13864.9,-4337.6 L-13743.3,-4584.4 L-13816.4,-4666.3 L-13876.0,-4539.3 L-13927.5,-4429.4 L-13935.3,-4413.8 L-13951.2,-4381.3 L-13983.0,-4384.0 L-13991.7,-4384.5 L-13994.8,-4381.7 L-13990.6,-4377.9 L-14006.9,-4363.4 L-14019.8,-4351.5 L-14022.2,-4300.6 L-14027.0,-4290.4 L-14042.6,-4291.0 L-14045.2,-4291.9 L-14249.6,-4376.3 L-14254.0,-4378.6 L-14258.7,-4381.6 L-14266.1,-4387.2 L-14271.8,-4392.6 L-14276.6,-4397.8 L-14281.3,-4404.2 L-14284.9,-4409.8 L-14287.7,-4415.6 L-14289.9,-4421.7 L-14291.4,-4425.9 L-14292.5,-4431.0 L-14293.3,-4437.0 L-14294.1,-4445.2 L-14294.1,-4456.9 L-14295.5,-4496.6 L-14289.9,-4496.9 L-14290.7,-4517.9 L-14291.6,-4552.5 L-14286.4,-4552.6 L-14286.8,-4576.2 L-14292.7,-4576.1 L-14295.4,-4675.5 L-14289.8,-4675.8 L-14290.7,-4699.1 L-14296.1,-4698.9 L-14298.4,-4772.4 L-14271.4,-4801.5 L-14236.9,-4802.7 L-14211.2,-4803.6 L-14177.3,-4804.7 L-14144.7,-4805.7 L-14115.5,-4806.7 L-14102.8,-4807.3 L-14103.4,-4818.6 L-14103.6,-4830.4 L-14105.5,-4868.7 L-14106.2,-4941.8 L-14107.2,-4943.1 L-14107.4,-4950.3 L-14105.3,-4950.4 L-14110.4,-5126.5 L-14114.8,-5292.2 L-14115.5,-5297.4 L-14115.9,-5307.0 L-14188.1,-5304.4 L-14236.1,-5308.5 L-14595.4,-5296.0 L-14595.5,-5299.2 L-14596.2,-5314.5 L-14766.6,-5308.5 L-14766.9,-5336.8 L-14789.4,-5341.9 L-14793.4,-5463.0 L-14130.6,-5486.0 L-14119.6,-5501.1 L-14120.0,-5544.1 L-14120.8,-5581.3 L-14121.4,-5604.6 L-14122.3,-5627.3 L-14175.0,-5652.1 L-14177.1,-5707.2 L-14123.1,-5734.0 L-14128.0,-5861.5 L-14129.4,-5867.8 L-14183.1,-5892.9 L-14184.8,-5961.1 L-14133.8,-5987.4 L-14156.5,-6264.3 L-14150.5,-6387.5 L-14147.5,-6588.4 L-14147.7,-6806.9 L-14142.9,-6837.5 L-14142.6,-6852.3 L-14147.4,-6870.1 L-14142.4,-6870.1 L-14142.4,-6886.2 L-14139.4,-7297.2 L-14139.9,-7315.5 L-14145.6,-7315.5 L-14145.4,-7391.1 L-14148.7,-7395.8 L-14153.9,-7473.8 L-14143.6,-7545.1 L-14144.9,-7631.4 L-14148.4,-7652.1 L-14143.1,-7716.0 L-14146.7,-7793.3 L-14155.7,-7876.0 L-14172.8,-8010.0 L-14164.7,-8046.9 L-14168.3,-8082.8 L-14198.9,-8108.9 L-14243.8,-8108.5 L-14312.2,-8099.5 L-14356.7,-8099.5 L-14397.1,-8114.3 L-14450.2,-8150.7 L-14450.2,-8216.0 L-14451.6,-8296.3 L-14446.4,-8363.2 L-14428.8,-8415.4 L-14134.1,-8420.9 L-14127.3,-8838.8 L-14127.3,-9440.4 L-14130.4,-9658.7 L1781.8,-16230.4 L1781.8,19987.8 L-17930.7,19987.8 L-17930.7,2002.3 Z" fill="#add7e1" stroke="none"><title>Biscayne Bay</title></path><path d="M-941.2,117.8 L3664.2,-1648.0" fill="none" stroke="#6fb5c7" stroke-width="1.7" stroke-dasharray="5 7" opacity="0.34" stroke-linecap="round" stroke-linejoin="round"><title>Government Cut</title></path></svg>