<svg xmlns="http://www.w3.org/2000/svg" width="256" height="256" viewBox="0 0 256 256"><defs><pattern id="park-dots" width="22" height="22" patternUnits="userSpaceOnUse"><circle cx="5" cy="5" r="2.1" fill="#63a95d" fill-opacity="0.26"/><circle cx="16" cy="7" r="1.55" fill="#76b970" fill-opacity="0.23"/><circle cx="10" cy="17" r="1.9" fill="#61a65b" fill-opacity="0.24"/><circle cx="21" cy="17" r="1.25" fill="#80c174" fill-opacity="0.18"/><circle cx="1" cy="19" r="1.2" fill="#70b46a" fill-opacity="0.17"/></pattern><pattern id="park-canopy" width="54" height="48" patternUnits="userSpaceOnUse"><circle cx="12" cy="11" r="3.6" fill="#5ea75a" fill-opacity="0.22"/><circle cx="31" cy="15" r="2.9" fill="#75ba6d" fill-opacity="0.18"/><circle cx="45" cy="31" r="3.3" fill="#67ae62" fill-opacity="0.20"/><circle cx="19" cy="39" r="2.5" fill="#83c378" fill-opacity="0.16"/></pattern></defs><rect width="256" height="256" fill="#f1efe7"/><path d="M-165.9,-13.5 L-157.5,281.1 L-442.2,289.6 L-478.8,502.2 L-493.7,556.5 L-519.5,615.3 L-554.3,666.8 L-597.9,710.5 L-661.5,754.3 L-690.7,767.6 L-356.9,757.0 L-352.6,1139.4 L-314.4,1139.0 L-305.6,1527.0 L-301.0,1588.0 L-298.0,1907.8 L-291.2,1913.6 L812.0,1925.4 L843.2,1097.4 L1096.9,265.4 L1392.4,-333.3 L1416.7,-479.4 L1369.8,-485.9 L1345.3,-479.8 L1279.7,-500.3 L1254.2,-599.7 L1233.8,-667.6 L1143.0,-755.5 L1134.2,-772.4 L1109.5,-794.8 L1047.9,-702.8 L995.7,-628.6 L906.3,-341.2 L825.5,-182.6 L729.1,-99.6 L677.4,-59.2 L579.8,-43.0 L576.2,-30.5 L357.4,-26.5 L203.9,-20.4 L210.9,371.3 L23.9,373.8 L17.3,-19.6 L-165.9,-13.5 Z" fill="#c4e7bd" stroke="#9fcf91" stroke-width="0.4"><title>R Hardy Matheson County Preserve</title></path><path d="M-165.9,-13.5 L-157.5,281.1 L-442.2,289.6 L-478.8,502.2 L-493.7,556.5 L-519.5,615.3 L-554.3,666.8 L-597.9,710.5 L-661.5,754.3 L-690.7,767.6 L-356.9,757.0 L-352.6,1139.4 L-314.4,1139.0 L-305.6,1527.0 L-301.0,1588.0 L-298.0,1907.8 L-291.2,1913.6 L812.0,1925.4 L843.2,1097.4 L1096.9,265.4 L1392.4,-333.3 L1416.7,-479.4 L1369.8,-485.9 L1345.3,-479.8 L1279.7,-500.3 L1254.2,-599.7 L1233.8,-667.6 L1143.0,-755.5 L1134.2,-772.4 L1109.5,-794.8 L1047.9,-702.8 L995.7,-628.6 L906.3,-341.2 L825.5,-182.6 L729.1,-99.6 L677.4,-59.2 L579.8,-43.0 L576.2,-30.5 L357.4,-26.5 L203.9,-20.4 L210.9,371.3 L23.9,373.8 L17.3,-19.6 L-165.9,-13.5 Z" fill="url(#park-dots)" stroke="none"/><path d="M-165.9,-13.5 L-157.5,281.1 L-442.2,289.6 L-478.8,502.2 L-493.7,556.5 L-519.5,615.3 L-554.3,666.8 L-597.9,710.5 L-661.5,754.3 L-690.7,767.6 L-356.9,757.0 L-352.6,1139.4 L-314.4,1139.0 L-305.6,1527.0 L-301.0,1588.0 L-298.0,1907.8 L-291.2,1913.6 L812.0,1925.4 L843.2,1097.4 L1096.9,265.4 L1392.4,-333.3 L1416.7,-479.4 L1369.8,-485.9 L1345.3,-479.8 L1279.7,-500.3 L1254.2,-599.7 L1233.8,-667.6 L1143.0,-755.5 L1134.2,-772.4 L1109.5,-794.8 L1047.9,-702.8 L995.7,-628.6 L906.3,-341.2 L825.5,-182.6 L729.1,-99.6 L677.4,-59.2 L579.8,-43.0 L576.2,-30.5 L357.4,-26.5 L203.9,-20.4 L210.9,371.3 L23.9,373.8 L17.3,-19.6 L-165.9,-13.5 Z" fill="url(#park-canopy)" stroke="none"/></svg>