<svg xmlns="http://www.w3.org/2000/svg" width="256" height="256" viewBox="0 0 256 256"><rect width="256" height="256" fill="#f1efe7"/><path d="M76.1,190.1 L-23.9,192.9 L-24.8,161.4 L75.2,158.6 L76.1,190.1 Z" fill="#d6d2c9" stroke="#bab6ad" stroke-width="0.4"></path><path d="M358.6,162.3 L359.3,189.8 L345.0,190.2 L345.3,199.6 L323.4,200.2 L323.7,212.7 L332.7,212.4 L333.5,239.1 L272.2,240.9 L271.5,214.8 L278.5,214.6 L278.1,202.3 L264.3,202.7 L264.5,209.5 L248.9,209.9 L247.8,169.1 L314.2,167.2 L314.4,175.4 L321.9,175.2 L321.6,163.4 L358.6,162.3 Z" fill="#d6d2c9" stroke="#bab6ad" stroke-width="0.4"></path><path d="M184.9,58.1 L185.8,84.6 L143.4,86.1 L142.7,63.9 L158.6,63.3 L158.8,69.4 L170.8,69.0 L170.5,58.5 L184.9,58.1 Z" fill="#d6d2c9" stroke="#bab6ad" stroke-width="0.4"></path><path d="M2.3,81.5 L-23.4,83.1 L-24.8,60.0 L1.0,58.4 L2.3,81.5 Z" fill="#d6d2c9" stroke="#bab6ad" stroke-width="0.4"></path><path d="M35.1,62.7 L34.9,69.2 L37.8,69.3 L37.4,82.4 L14.4,81.7 L14.8,68.6 L21.7,68.8 L21.9,62.3 L35.1,62.7 Z" fill="#d6d2c9" stroke="#bab6ad" stroke-width="0.4"></path><path d="M77.9,74.9 L53.9,74.9 L53.9,56.6 L77.9,56.5 L77.9,74.9 Z" fill="#d6d2c9" stroke="#bab6ad" stroke-width="0.4"></path><path d="M9.9,262.4 L10.1,268.6 L-14.7,269.1 L-14.8,263.6 L-19.4,263.7 L-19.6,253.2 L15.7,252.5 L15.8,257.4 L15.9,262.3 L9.9,262.4 Z" fill="#d6d2c9" stroke="#bab6ad" stroke-width="0.4"></path><path d="M73.8,267.1 L46.0,267.9 L45.8,259.5 L45.6,251.0 L76.8,250.2 L77.1,262.4 L73.6,262.5 L73.8,267.1 Z" fill="#d6d2c9" stroke="#bab6ad" stroke-width="0.4"></path><path d="M-4.6,204.8 L-4.3,214.5 L0.5,214.4 L0.8,223.9 L-23.2,224.7 L-23.8,205.4 L-4.6,204.8 Z" fill="#d6d2c9" stroke="#bab6ad" stroke-width="0.4"></path><path d="M172.9,-1.9 L173.2,5.3 L176.3,5.2 L177.3,29.8 L159.2,30.5 L158.8,18.2 L160.6,18.2 L159.8,-1.4 L172.9,-1.9 Z" fill="#d6d2c9" stroke="#bab6ad" stroke-width="0.4"></path><path d="M132.9,0.5 L133.1,4.5 L148.0,3.6 L148.6,13.2 L145.2,13.4 L145.5,17.0 L123.3,18.4 L121.6,-8.7 L134.0,-9.5 L134.7,0.4 L132.9,0.5 Z" fill="#d6d2c9" stroke="#bab6ad" stroke-width="0.4"></path><path d="M243.4,10.3 L243.5,14.2 L246.2,14.1 L246.7,31.6 L228.7,32.2 L228.4,24.5 L231.9,24.4 L231.6,15.1 L234.2,15.0 L234.1,10.6 L243.4,10.3 Z" fill="#d6d2c9" stroke="#bab6ad" stroke-width="0.4"></path><path d="M71.0,19.5 L37.8,20.7 L37.3,8.2 L70.5,7.0 L71.0,19.5 Z" fill="#d6d2c9" stroke="#bab6ad" stroke-width="0.4"></path><path d="M196.0,-10.2 L196.6,-5.9 L202.2,-6.1 L202.6,4.4 L196.5,4.6 L196.7,7.7 L198.0,7.7 L198.2,14.5 L184.1,15.1 L183.1,-9.7 L196.0,-10.2 Z" fill="#d6d2c9" stroke="#bab6ad" stroke-width="0.4"></path><path d="M68.2,30.0 L68.2,31.1 L69.2,31.0 L68.9,54.1 L52.1,54.4 L51.7,30.3 L68.2,30.0 Z" fill="#d6d2c9" stroke="#bab6ad" stroke-width="0.4"></path><path d="M11.1,23.0 L11.2,25.9 L30.0,25.2 L30.4,37.9 L19.5,38.3 L19.6,40.7 L6.8,41.2 L6.1,23.2 L11.1,23.0 Z" fill="#d6d2c9" stroke="#bab6ad" stroke-width="0.4"></path><path d="M44.2,205.0 L73.9,204.9 L74.0,222.9 L44.3,223.0 L44.2,205.0 Z" fill="#d6d2c9" stroke="#bab6ad" stroke-width="0.4"></path><path d="M193.1,86.1 L190.9,43.1" fill="none" stroke="#cec8bb" stroke-width="3.5" stroke-linecap="round" stroke-linejoin="round"/><path d="M193.1,86.1 L190.9,43.1" fill="none" stroke="#ffffff" stroke-width="2.5" stroke-linecap="round" stroke-linejoin="round"></path><path d="M194.1,116.8 L193.1,86.1" fill="none" stroke="#cec8bb" stroke-width="3.5" stroke-linecap="round" stroke-linejoin="round"/><path d="M194.1,116.8 L193.1,86.1" fill="none" stroke="#ffffff" stroke-width="2.5" stroke-linecap="round" stroke-linejoin="round"></path><path d="M116.2,60.4 L99.1,61.1" fill="none" stroke="#cec8bb" stroke-width="3.5" stroke-linecap="round" stroke-linejoin="round"/><path d="M116.2,60.4 L99.1,61.1" fill="none" stroke="#ffffff" stroke-width="2.5" stroke-linecap="round" stroke-linejoin="round"></path><path d="M139.6,59.6 L125.6,60.1 L116.2,60.4" fill="none" stroke="#cec8bb" stroke-width="3.5" stroke-linecap="round" stroke-linejoin="round"/><path d="M139.6,59.6 L125.6,60.1 L116.2,60.4" fill="none" stroke="#ffffff" stroke-width="2.5" stroke-linecap="round" stroke-linejoin="round"></path><path d="M125.9,88.1 L125.6,60.1" fill="none" stroke="#cec8bb" stroke-width="3.5" stroke-linecap="round" stroke-linejoin="round"/><path d="M125.9,88.1 L125.6,60.1" fill="none" stroke="#ffffff" stroke-width="2.5" stroke-linecap="round" stroke-linejoin="round"></path><path d="M59.9,149.9 L59.2,121.3" fill="none" stroke="#cec8bb" stroke-width="3.5" stroke-linecap="round" stroke-linejoin="round"/><path d="M59.9,149.9 L59.2,121.3" fill="none" stroke="#ffffff" stroke-width="2.5" stroke-linecap="round" stroke-linejoin="round"></path><path d="M-14.4,151.2 L59.9,149.9" fill="none" stroke="#cec8bb" stroke-width="3.5" stroke-linecap="round" stroke-linejoin="round"/><path d="M-14.4,151.2 L59.9,149.9" fill="none" stroke="#ffffff" stroke-width="2.5" stroke-linecap="round" stroke-linejoin="round"></path><path d="M225.6,226.6 L222.3,154.9" fill="none" stroke="#cec8bb" stroke-width="3.5" stroke-linecap="round" stroke-linejoin="round"/><path d="M225.6,226.6 L222.3,154.9" fill="none" stroke="#ffffff" stroke-width="2.5" stroke-linecap="round" stroke-linejoin="round"></path><path d="M186.9,228.1 L184.3,156.8" fill="none" stroke="#cec8bb" stroke-width="3.5" stroke-linecap="round" stroke-linejoin="round"/><path d="M186.9,228.1 L184.3,156.8" fill="none" stroke="#ffffff" stroke-width="2.5" stroke-linecap="round" stroke-linejoin="round"></path><path d="M260.0,225.2 L225.6,226.6 L186.9,228.1 L147.4,229.6 L145.4,158.7" fill="none" stroke="#cec8bb" stroke-width="3.5" stroke-linecap="round" stroke-linejoin="round"/><path d="M260.0,225.2 L225.6,226.6 L186.9,228.1 L147.4,229.6 L145.4,158.7" fill="none" stroke="#ffffff" stroke-width="2.5" stroke-linecap="round" stroke-linejoin="round"></path><path d="M145.4,158.7 L184.3,156.8 L222.3,154.9 L282.0,151.9 L312.9,144.2" fill="none" stroke="#cec8bb" stroke-width="3.5" stroke-linecap="round" stroke-linejoin="round"/><path d="M145.4,158.7 L184.3,156.8 L222.3,154.9 L282.0,151.9 L312.9,144.2" fill="none" stroke="#ffffff" stroke-width="2.5" stroke-linecap="round" stroke-linejoin="round"></path><path d="M108.9,372.5 L106.1,276.2 L101.3,119.9 L99.1,61.1 L96.4,-11.1 L95.7,-35.3 L90.1,-181.9" fill="none" stroke="#cec8bb" stroke-width="4.8" stroke-linecap="round" stroke-linejoin="round"/><path d="M108.9,372.5 L106.1,276.2 L101.3,119.9 L99.1,61.1 L96.4,-11.1 L95.7,-35.3 L90.1,-181.9" fill="none" stroke="#ffffff" stroke-width="3.7" stroke-linecap="round" stroke-linejoin="round"><title>Northwest 24th Avenue</title></path><path d="M-49.6,125.0 L-25.9,124.2 L-14.6,123.8 L8.3,123.1 L59.2,121.3 L101.3,119.9 L194.1,116.8 L281.5,113.8 L329.2,112.2" fill="none" stroke="#d1c4aa" stroke-width="6.4" stroke-linecap="round" stroke-linejoin="round"/><path d="M-49.6,125.0 L-25.9,124.2 L-14.6,123.8 L8.3,123.1 L59.2,121.3 L101.3,119.9 L194.1,116.8 L281.5,113.8 L329.2,112.2" fill="none" stroke="#f1c77d" stroke-width="5.0" stroke-linecap="round" stroke-linejoin="round"><title>Northwest 54th Street</title></path><g><rect x="127.2" y="111.3" width="41.0" height="14.0" rx="3" fill="#ffffff" stroke="#8a8f96" stroke-width="1"/><text x="147.7" y="118.7" text-anchor="middle" dominant-baseline="central" font-family="Arial, sans-serif" font-size="8" font-weight="700" fill="#56616a">SR 944</text></g><text x="103.1" y="180.0" transform="rotate(88.2 103.1 180.0)" text-anchor="middle" dominant-baseline="central" font-family="Arial, sans-serif" font-size="8.3" textLength="111.6" lengthAdjust="spacing" font-weight="650" paint-order="stroke" stroke="#fffaf0" stroke-width="2.05" stroke-linejoin="round" fill="#695f54">Northwest 24th Avenue</text><text x="164.4" y="69.1" text-anchor="middle" font-family="Arial, sans-serif" font-size="6.5" textLength="18.0" lengthAdjust="spacing" font-weight="500" paint-order="stroke" stroke="#f3f5ee" stroke-width="1.55" stroke-linejoin="round" fill="#6f777a">2381</text><text x="27.3" y="70.6" text-anchor="middle" font-family="Arial, sans-serif" font-size="6.5" textLength="18.0" lengthAdjust="spacing" font-weight="500" paint-order="stroke" stroke="#f3f5ee" stroke-width="1.55" stroke-linejoin="round" fill="#6f777a">2407</text><text x="65.9" y="65.7" text-anchor="middle" font-family="Arial, sans-serif" font-size="6.5" textLength="18.0" lengthAdjust="spacing" font-weight="500" paint-order="stroke" stroke="#f3f5ee" stroke-width="1.55" stroke-linejoin="round" fill="#6f777a">2401</text><text x="167.2" y="16.5" text-anchor="middle" font-family="Arial, sans-serif" font-size="6.5" textLength="18.0" lengthAdjust="spacing" font-weight="500" paint-order="stroke" stroke="#f3f5ee" stroke-width="1.55" stroke-linejoin="round" fill="#6f777a">2380</text><text x="54.1" y="16.5" text-anchor="middle" font-family="Arial, sans-serif" font-size="6.5" textLength="18.0" lengthAdjust="spacing" font-weight="500" paint-order="stroke" stroke="#f3f5ee" stroke-width="1.55" stroke-linejoin="round" fill="#6f777a">5424</text><text x="195.4" y="16.5" text-anchor="middle" font-family="Arial, sans-serif" font-size="6.5" textLength="18.0" lengthAdjust="spacing" font-weight="500" paint-order="stroke" stroke="#f3f5ee" stroke-width="1.55" stroke-linejoin="round" fill="#6f777a">2376</text><text x="63.1" y="38.5" text-anchor="middle" font-family="Arial, sans-serif" font-size="6.5" textLength="18.0" lengthAdjust="spacing" font-weight="500" paint-order="stroke" stroke="#f3f5ee" stroke-width="1.55" stroke-linejoin="round" fill="#6f777a">5416</text><text x="16.9" y="31.9" text-anchor="middle" font-family="Arial, sans-serif" font-size="6.5" textLength="18.0" lengthAdjust="spacing" font-weight="500" paint-order="stroke" stroke="#f3f5ee" stroke-width="1.55" stroke-linejoin="round" fill="#6f777a">2414</text><text x="24.9" y="167.9" text-anchor="middle" font-family="Arial, sans-serif" font-size="6.5" textLength="18.0" lengthAdjust="spacing" font-weight="500" paint-order="stroke" stroke="#f3f5ee" stroke-width="1.55" stroke-linejoin="round" fill="#6f777a">2400</text><text x="59.7" y="241.4" text-anchor="middle" font-family="Arial, sans-serif" font-size="6.5" textLength="18.0" lengthAdjust="spacing" font-weight="500" paint-order="stroke" stroke="#f3f5ee" stroke-width="1.55" stroke-linejoin="round" fill="#6f777a">5264</text><text x="59.0" y="220.2" text-anchor="middle" font-family="Arial, sans-serif" font-size="6.5" textLength="18.0" lengthAdjust="spacing" font-weight="500" paint-order="stroke" stroke="#f3f5ee" stroke-width="1.55" stroke-linejoin="round" fill="#6f777a">5266</text><text x="142.6" y="60.7" text-anchor="middle" font-family="Arial, sans-serif" font-size="6.5" textLength="18.0" lengthAdjust="spacing" font-weight="500" paint-order="stroke" stroke="#f3f5ee" stroke-width="1.55" stroke-linejoin="round" fill="#6f777a">2387</text><text x="136.3" y="23.1" text-anchor="middle" font-family="Arial, sans-serif" font-size="6.5" textLength="18.0" lengthAdjust="spacing" font-weight="500" paint-order="stroke" stroke="#f3f5ee" stroke-width="1.55" stroke-linejoin="round" fill="#6f777a">5417</text><g><title>NW 54 ST@NW 24 AV</title><rect x="55.3" y="96.5" width="6.9" height="6.1" rx="1.3" fill="#2796c9" stroke="#ffffff" stroke-width="1.05"/><rect x="56.6" y="97.7" width="4.4" height="2.1" rx="0.35" fill="#ffffff"/><circle cx="56.9" cy="101.5" r="0.5" fill="#ffffff"/><circle cx="60.6" cy="101.5" r="0.5" fill="#ffffff"/></g><g><title>NW 54 ST@NW 24 AV</title><rect x="228.9" y="129.8" width="6.9" height="6.1" rx="1.3" fill="#2796c9" stroke="#ffffff" stroke-width="1.05"/><rect x="230.1" y="131.1" width="4.4" height="2.1" rx="0.35" fill="#ffffff"/><circle cx="230.4" cy="134.8" r="0.5" fill="#ffffff"/><circle cx="234.2" cy="134.8" r="0.5" fill="#ffffff"/></g></svg>