<svg xmlns="http://www.w3.org/2000/svg" width="256" height="256" viewBox="0 0 256 256"><rect width="256" height="256" fill="#f1efe7"/><path d="M-3082.7,17106.3 L-2867.9,17017.0 L-2800.7,16984.7 L-2500.2,16840.4 L-2443.8,16895.0 L-2438.9,16899.7 L-2333.5,16809.5 L-2308.4,16790.4 L-2266.5,16752.6 L-2030.4,16535.8 L-1839.9,16318.2 L-1832.6,16304.3 L-1825.6,16296.4 L-1814.5,16283.7 L-1803.2,16270.8 L-1798.6,16265.5 L-1873.7,16168.4 L-1774.3,16108.8 L-1720.4,16180.5 L-1644.2,16093.3 L-1708.7,16007.9 L-1628.8,15924.6 L-1567.3,16005.6 L-1496.7,15925.2 L-1466.6,15905.5 L-1319.4,15810.0 L-1246.7,15761.7 L-1159.1,15704.1 L-1117.7,15676.9 L-1012.8,15609.2 L-1039.8,15573.7 L-1088.1,15509.0 L-963.2,15429.6 L-917.7,15406.1 L-914.2,15403.6 L-890.2,15385.1 L-804.6,15339.3 L-798.7,15330.1 L-774.7,15313.6 L-761.7,15294.6 L-758.0,15291.8 L-737.1,15283.7 L-689.9,15266.8 L-657.6,15252.6 L-543.5,15199.0 L-542.1,15202.7 L-446.4,15161.8 L-407.3,15211.9 L-320.2,15153.8 L-307.8,15145.3 L-306.6,15144.3 L-305.4,15142.7 L-303.5,15139.4 L-302.5,15136.3 L-301.9,15132.6 L-302.0,15129.6 L-302.4,15126.7 L-302.8,15123.4 L-302.9,15120.9 L-302.7,15118.8 L-302.3,15116.6 L-300.7,15112.6 L-299.6,15110.4 L-297.1,15106.6 L-294.5,15103.8 L-281.8,15098.7 L-271.2,15094.7 L-257.7,15090.3 L-251.4,15088.6 L-240.2,15084.9 L-232.3,15082.1 L-221.4,15077.6 L-206.6,15071.1 L-190.6,15063.6 L-182.0,15059.4 L-171.2,15053.9 L-161.1,15048.3 L-151.0,15042.3 L-140.7,15035.6 L-137.5,15033.4 L-116.8,15017.6 L-99.4,15004.2 L-82.4,14989.8 L-66.5,14974.8 L-55.0,14961.9 L-43.6,14948.0 L-29.6,14930.0 L-16.8,14912.0 L-2.1,14888.9 L7.5,14871.0 L13.5,14859.6 L22.4,14840.3 L29.9,14822.4 L36.6,14803.1 L42.0,14786.2 L47.9,14758.8 L52.2,14734.3 L54.5,14713.3 L56.5,14688.5 L56.7,14662.0 L55.1,14637.5 L50.9,14605.5 L46.5,14583.7 L41.5,14563.1 L34.1,14539.7 L27.8,14521.8 L20.6,14502.3 L13.8,14486.1 L9.2,14475.6 L7.3,14467.9 L7.0,14462.0 L7.6,14456.7 L9.7,14452.1 L12.9,14448.2 L17.1,14446.0 L21.6,14445.4 L33.7,14448.3 L67.4,14456.4 L78.6,14201.7 L122.3,13747.1 L74.8,13735.9 L69.6,13721.6 L69.8,13701.1 L76.4,13654.6 L85.4,13644.1 L93.4,13613.9 L143.9,13625.6 L171.7,13335.1 L179.4,13254.7 L163.7,13250.8 L173.2,13212.4 L140.9,13204.7 L145.0,13181.2 L150.7,13165.7 L157.8,13147.6 L169.8,13122.3 L182.7,13125.2 L200.1,12942.5 L204.2,12831.7 L205.0,12811.3 L214.4,12740.8 L233.1,12565.1 L357.9,12239.7 L386.4,12151.0 L733.1,12018.0 L767.0,12004.4 L772.9,12001.2 L777.5,11997.0 L782.6,11991.1 L786.5,11984.2 L789.1,11977.4 L789.7,11967.5 L789.2,11955.2 L784.6,11799.7 L782.9,11769.6 L782.4,11748.9 L781.7,11708.7 L780.9,11696.1 L779.4,11685.5 L777.3,11676.1 L774.2,11666.5 L769.3,11655.2 L762.1,11643.1 L755.1,11633.5 L749.7,11624.4 L744.2,11612.3 L739.6,11600.7 L737.8,11591.2 L736.4,11580.7 L735.7,11570.2 L736.0,11560.0 L737.2,11548.1 L740.0,11536.4 L743.7,11526.0 L747.6,11516.5 L752.6,11507.3 L758.7,11496.1 L762.7,11486.0 L766.2,11473.1 L772.6,11463.3 L770.4,11374.1 L767.1,11368.9 L766.1,11308.3 L764.4,11236.8 L765.6,11226.9 L768.8,11216.8 L776.8,11201.0 L830.3,11085.9 L831.4,11084.0 L840.8,11063.5 L849.7,11044.1 L859.7,11024.1 L869.5,11003.5 L874.3,10993.5 L926.9,10885.6 L983.1,10766.4 L1104.7,10519.6 L1031.6,10437.7 L972.0,10564.7 L920.5,10674.6 L912.7,10690.2 L896.8,10722.7 L865.0,10720.0 L856.3,10719.5 L853.2,10722.3 L857.4,10726.1 L841.1,10740.6 L828.2,10752.5 L825.8,10803.4 L821.0,10813.6 L805.4,10813.0 L802.8,10812.1 L598.4,10727.7 L594.0,10725.4 L589.3,10722.4 L581.9,10716.8 L576.2,10711.4 L571.4,10706.2 L566.7,10699.8 L563.1,10694.2 L560.3,10688.4 L558.1,10682.3 L556.6,10678.1 L555.5,10673.0 L554.7,10667.0 L553.9,10658.8 L553.9,10647.1 L552.5,10607.4 L558.1,10607.1 L557.3,10586.1 L556.4,10551.5 L561.6,10551.4 L561.2,10527.8 L555.3,10527.9 L552.6,10428.5 L558.2,10428.2 L557.3,10404.9 L551.9,10405.1 L549.6,10331.6 L576.6,10302.5 L611.1,10301.3 L636.8,10300.4 L670.7,10299.3 L703.3,10298.3 L732.5,10297.3 L745.2,10296.7 L744.6,10285.4 L744.4,10273.6 L742.5,10235.3 L741.8,10162.2 L740.8,10160.9 L740.6,10153.7 L742.7,10153.6 L737.6,9977.5 L733.2,9811.8 L732.5,9806.6 L732.1,9797.0 L659.9,9799.6 L611.9,9795.5 L252.6,9808.0 L252.5,9804.8 L251.8,9789.5 L81.4,9795.5 L81.1,9767.2 L58.6,9762.1 L54.6,9641.0 L717.4,9618.0 L728.4,9602.9 L728.0,9559.9 L727.2,9522.7 L726.6,9499.4 L725.7,9476.7 L673.0,9451.9 L670.9,9396.8 L724.9,9370.0 L720.0,9242.5 L718.6,9236.2 L664.9,9211.1 L663.2,9142.9 L714.2,9116.6 L691.5,8839.7 L697.5,8716.5 L700.5,8515.6 L700.3,8297.1 L705.1,8266.5 L705.4,8251.7 L700.6,8233.9 L705.6,8233.9 L705.6,8217.8 L708.6,7806.8 L708.1,7788.5 L702.4,7788.5 L702.6,7712.9 L699.3,7708.2 L694.1,7630.2 L704.4,7558.9 L703.1,7472.6 L699.6,7451.9 L704.9,7388.0 L701.3,7310.7 L692.3,7228.0 L675.2,7094.0 L683.3,7057.1 L679.7,7021.2 L649.1,6995.1 L604.2,6995.5 L535.8,7004.5 L491.3,7004.5 L450.9,6989.7 L397.8,6953.3 L397.8,6888.0 L396.4,6807.7 L401.6,6740.8 L419.2,6688.6 L713.9,6683.1 L720.7,6265.2 L720.7,5663.6 L717.6,5445.3 L16629.8,-1126.4 L16629.8,35091.8 L-3082.7,35091.8 L-3082.7,17106.3 Z" fill="#add7e1" stroke="none"><title>Biscayne Bay</title></path><path d="M125.2,-43.6 L127.7,11.1 L100.7,12.4 L98.2,-42.4 L125.2,-43.6 Z" fill="#d6d2c9" stroke="#bab6ad" stroke-width="0.4"></path><path d="M14.2,231.8 L14.6,262.1 L-9.3,262.3 L-9.5,245.5 L-3.3,245.4 L-3.5,232.0 L14.2,231.8 Z" fill="#d6d2c9" stroke="#bab6ad" stroke-width="0.4"></path><path d="M-43.0,-38.2 L-42.7,-32.4 L7.7,-34.5 L7.8,-26.0 L59.9,-28.5 L59.9,15.6 L-40.6,18.6 L-41.2,10.6 L-99.1,12.7 L-100.7,-8.1 L-119.6,-7.4 L-121.0,-28.9 L-116.0,-35.3 L-43.0,-38.2 Z" fill="#d6d2c9" stroke="#bab6ad" stroke-width="0.4"></path><path d="M122.9,249.8 L122.7,286.5 L214.0,283.0 L215.7,310.0 L210.0,316.1 L105.9,319.3 L103.1,218.1 L204.8,215.2 L210.9,220.1 L211.0,247.6 L122.9,249.8 Z" fill="#d6d2c9" stroke="#bab6ad" stroke-width="0.4"></path><path d="M6.8,182.5 L-10.2,182.8 L-10.7,152.4 L13.6,152.0 L13.9,168.6 L6.5,168.7 L6.8,182.5 Z" fill="#d6d2c9" stroke="#bab6ad" stroke-width="0.4"></path><path d="M192.5,-48.9 L192.7,-44.7 L199.1,-44.9 L200.5,6.5 L178.8,7.1 L177.8,-29.0 L162.8,-28.6 L162.2,-48.1 L192.5,-48.9 Z" fill="#d6d2c9" stroke="#bab6ad" stroke-width="0.4"></path><path d="M32.7,149.7 L32.8,151.5 L39.1,151.3 L39.7,168.7 L43.1,168.6 L43.6,184.9 L24.7,185.5 L24.8,186.9 L18.0,187.1 L17.6,176.4 L22.1,176.2 L21.3,150.0 L32.7,149.7 Z" fill="#d6d2c9" stroke="#bab6ad" stroke-width="0.4"></path><path d="M36.4,269.0 L21.8,269.4 L21.3,253.7 L20.2,247.4 L42.1,246.7 L42.8,266.5 L36.4,266.7 L36.4,269.0 Z" fill="#d6d2c9" stroke="#bab6ad" stroke-width="0.4"></path><path d="M33.0,110.5 L33.4,129.3 L38.9,129.2 L39.1,137.9 L27.0,138.1 L26.9,134.6 L25.1,134.6 L25.2,138.8 L17.9,138.9 L17.7,130.2 L18.8,130.1 L18.4,110.8 L33.0,110.5 Z" fill="#d6d2c9" stroke="#bab6ad" stroke-width="0.4"></path><path d="M86.2,182.9 L86.4,188.0 L78.9,188.2 L78.8,183.5 L73.4,183.7 L73.2,178.1 L73.0,172.6 L78.5,172.5 L77.9,153.7 L86.1,153.4 L94.3,153.2 L95.3,182.6 L86.2,182.9 Z" fill="#d6d2c9" stroke="#bab6ad" stroke-width="0.4"></path><path d="M68.3,223.6 L68.5,235.2 L70.5,235.2 L70.5,238.0 L70.6,240.8 L68.6,240.9 L68.8,252.2 L58.9,252.4 L59.0,255.0 L56.5,255.0 L54.0,255.1 L53.0,243.4 L47.4,243.5 L47.3,238.7 L47.2,233.9 L52.9,233.8 L52.7,223.9 L60.5,223.7 L68.3,223.6 Z" fill="#d6d2c9" stroke="#bab6ad" stroke-width="0.4"></path><path d="M70.1,166.5 L70.8,188.4 L49.7,189.1 L49.5,182.1 L45.6,182.2 L45.3,173.0 L49.2,172.9 L49.0,167.3 L70.1,166.5 Z" fill="#d6d2c9" stroke="#bab6ad" stroke-width="0.4"></path><path d="M45.5,238.0 L37.7,238.3 L37.3,224.0 L45.0,223.8 L45.5,238.0 Z" fill="#d6d2c9" stroke="#bab6ad" stroke-width="0.4"></path><path d="M11.3,129.1 L-7.3,129.7 L-7.8,111.9 L10.7,111.3 L11.3,129.1 Z" fill="#d6d2c9" stroke="#bab6ad" stroke-width="0.4"></path><path d="M233.8,329.1 L230.5,265.9 L227.2,201.9 L221.1,86.5 L212.3,-72.1" fill="none" stroke="#cec8bb" stroke-width="4.8" stroke-linecap="round" stroke-linejoin="round"/><path d="M233.8,329.1 L230.5,265.9 L227.2,201.9 L221.1,86.5 L212.3,-72.1" fill="none" stroke="#ffffff" stroke-width="3.7" stroke-linecap="round" stroke-linejoin="round"><title>Northeast 4th Avenue</title></path><path d="M-141.7,93.8 L221.1,86.5" fill="none" stroke="#cec8bb" stroke-width="4.8" stroke-linecap="round" stroke-linejoin="round"/><path d="M-141.7,93.8 L221.1,86.5" fill="none" stroke="#ffffff" stroke-width="3.7" stroke-linecap="round" stroke-linejoin="round"><title>Northeast 58th Terrace</title></path><path d="M-138.1,211.3 L227.2,201.9" fill="none" stroke="#cec8bb" stroke-width="4.8" stroke-linecap="round" stroke-linejoin="round"/><path d="M-138.1,211.3 L227.2,201.9" fill="none" stroke="#ffffff" stroke-width="3.7" stroke-linecap="round" stroke-linejoin="round"><title>Northeast 58th Street</title></path><path d="M270.7,421.4 L246.5,-73.4" fill="none" stroke="#fbf8ef" stroke-width="6.9" stroke-linecap="round" stroke-linejoin="round"/><path d="M270.7,421.4 L246.5,-73.4" fill="none" stroke="#465158" stroke-width="4.7" stroke-linecap="round" stroke-linejoin="round"><title>Florida East Coast Railway</title></path><path d="M259.3,271.6 L267.5,271.2" fill="none" stroke="#3f494e" stroke-width="0.9" stroke-linecap="round"/><path d="M258.8,262.5 L267.1,262.1" fill="none" stroke="#3f494e" stroke-width="0.9" stroke-linecap="round"/><path d="M258.4,253.4 L266.7,253.0" fill="none" stroke="#3f494e" stroke-width="0.9" stroke-linecap="round"/><path d="M257.9,244.4 L266.2,243.9" fill="none" stroke="#3f494e" stroke-width="0.9" stroke-linecap="round"/><path d="M257.5,235.3 L265.8,234.9" fill="none" stroke="#3f494e" stroke-width="0.9" stroke-linecap="round"/><path d="M257.0,226.2 L265.3,225.8" fill="none" stroke="#3f494e" stroke-width="0.9" stroke-linecap="round"/><path d="M256.6,217.1 L264.9,216.7" fill="none" stroke="#3f494e" stroke-width="0.9" stroke-linecap="round"/><path d="M256.2,208.0 L264.4,207.6" fill="none" stroke="#3f494e" stroke-width="0.9" stroke-linecap="round"/><path d="M255.7,198.9 L264.0,198.5" fill="none" stroke="#3f494e" stroke-width="0.9" stroke-linecap="round"/><path d="M255.3,189.8 L263.5,189.4" fill="none" stroke="#3f494e" stroke-width="0.9" stroke-linecap="round"/><path d="M254.8,180.7 L263.1,180.3" fill="none" stroke="#3f494e" stroke-width="0.9" stroke-linecap="round"/><path d="M254.4,171.6 L262.6,171.2" fill="none" stroke="#3f494e" stroke-width="0.9" stroke-linecap="round"/><path d="M253.9,162.6 L262.2,162.1" fill="none" stroke="#3f494e" stroke-width="0.9" stroke-linecap="round"/><path d="M253.5,153.5 L261.8,153.1" fill="none" stroke="#3f494e" stroke-width="0.9" stroke-linecap="round"/><path d="M253.0,144.4 L261.3,144.0" fill="none" stroke="#3f494e" stroke-width="0.9" stroke-linecap="round"/><path d="M252.6,135.3 L260.9,134.9" fill="none" stroke="#3f494e" stroke-width="0.9" stroke-linecap="round"/><path d="M252.2,126.2 L260.4,125.8" fill="none" stroke="#3f494e" stroke-width="0.9" stroke-linecap="round"/><path d="M251.7,117.1 L260.0,116.7" fill="none" stroke="#3f494e" stroke-width="0.9" stroke-linecap="round"/><path d="M251.3,108.0 L259.5,107.6" fill="none" stroke="#3f494e" stroke-width="0.9" stroke-linecap="round"/><path d="M250.8,98.9 L259.1,98.5" fill="none" stroke="#3f494e" stroke-width="0.9" stroke-linecap="round"/><path d="M250.4,89.8 L258.6,89.4" fill="none" stroke="#3f494e" stroke-width="0.9" stroke-linecap="round"/><path d="M249.9,80.7 L258.2,80.3" fill="none" stroke="#3f494e" stroke-width="0.9" stroke-linecap="round"/><path d="M249.5,71.7 L257.8,71.3" fill="none" stroke="#3f494e" stroke-width="0.9" stroke-linecap="round"/><path d="M249.0,62.6 L257.3,62.2" fill="none" stroke="#3f494e" stroke-width="0.9" stroke-linecap="round"/><path d="M248.6,53.5 L256.9,53.1" fill="none" stroke="#3f494e" stroke-width="0.9" stroke-linecap="round"/><path d="M248.1,44.4 L256.4,44.0" fill="none" stroke="#3f494e" stroke-width="0.9" stroke-linecap="round"/><path d="M247.7,35.3 L256.0,34.9" fill="none" stroke="#3f494e" stroke-width="0.9" stroke-linecap="round"/><path d="M247.3,26.2 L255.5,25.8" fill="none" stroke="#3f494e" stroke-width="0.9" stroke-linecap="round"/><path d="M246.8,17.1 L255.1,16.7" fill="none" stroke="#3f494e" stroke-width="0.9" stroke-linecap="round"/><path d="M246.4,8.0 L254.6,7.6" fill="none" stroke="#3f494e" stroke-width="0.9" stroke-linecap="round"/><path d="M245.9,-1.1 L254.2,-1.5" fill="none" stroke="#3f494e" stroke-width="0.9" stroke-linecap="round"/><path d="M245.5,-10.1 L253.8,-10.5" fill="none" stroke="#3f494e" stroke-width="0.9" stroke-linecap="round"/><path d="M245.0,-19.2 L253.3,-19.6" fill="none" stroke="#3f494e" stroke-width="0.9" stroke-linecap="round"/><path d="M270.7,421.4 L246.5,-73.4" fill="none" stroke="#ffffff" stroke-width="2.9" stroke-linecap="round" stroke-linejoin="round"/><path d="M254.6,-73.6 L278.9,421.4" fill="none" stroke="#fbf8ef" stroke-width="6.9" stroke-linecap="round" stroke-linejoin="round"/><path d="M254.6,-73.6 L278.9,421.4" fill="none" stroke="#465158" stroke-width="4.7" stroke-linecap="round" stroke-linejoin="round"><title>Florida East Coast Railway</title></path><path d="M261.6,-14.8 L253.4,-14.4" fill="none" stroke="#3f494e" stroke-width="0.9" stroke-linecap="round"/><path d="M262.1,-5.7 L253.8,-5.3" fill="none" stroke="#3f494e" stroke-width="0.9" stroke-linecap="round"/><path d="M262.5,3.4 L254.3,3.8" fill="none" stroke="#3f494e" stroke-width="0.9" stroke-linecap="round"/><path d="M263.0,12.5 L254.7,12.9" fill="none" stroke="#3f494e" stroke-width="0.9" stroke-linecap="round"/><path d="M263.4,21.6 L255.2,22.0" fill="none" stroke="#3f494e" stroke-width="0.9" stroke-linecap="round"/><path d="M263.9,30.7 L255.6,31.1" fill="none" stroke="#3f494e" stroke-width="0.9" stroke-linecap="round"/><path d="M264.3,39.8 L256.1,40.2" fill="none" stroke="#3f494e" stroke-width="0.9" stroke-linecap="round"/><path d="M264.8,48.9 L256.5,49.3" fill="none" stroke="#3f494e" stroke-width="0.9" stroke-linecap="round"/><path d="M265.2,57.9 L256.9,58.3" fill="none" stroke="#3f494e" stroke-width="0.9" stroke-linecap="round"/><path d="M265.7,67.0 L257.4,67.4" fill="none" stroke="#3f494e" stroke-width="0.9" stroke-linecap="round"/><path d="M266.1,76.1 L257.8,76.5" fill="none" stroke="#3f494e" stroke-width="0.9" stroke-linecap="round"/><path d="M266.5,85.2 L258.3,85.6" fill="none" stroke="#3f494e" stroke-width="0.9" stroke-linecap="round"/><path d="M267.0,94.3 L258.7,94.7" fill="none" stroke="#3f494e" stroke-width="0.9" stroke-linecap="round"/><path d="M267.4,103.4 L259.2,103.8" fill="none" stroke="#3f494e" stroke-width="0.9" stroke-linecap="round"/><path d="M267.9,112.5 L259.6,112.9" fill="none" stroke="#3f494e" stroke-width="0.9" stroke-linecap="round"/><path d="M268.3,121.6 L260.1,122.0" fill="none" stroke="#3f494e" stroke-width="0.9" stroke-linecap="round"/><path d="M268.8,130.7 L260.5,131.1" fill="none" stroke="#3f494e" stroke-width="0.9" stroke-linecap="round"/><path d="M269.2,139.7 L260.9,140.1" fill="none" stroke="#3f494e" stroke-width="0.9" stroke-linecap="round"/><path d="M269.7,148.8 L261.4,149.2" fill="none" stroke="#3f494e" stroke-width="0.9" stroke-linecap="round"/><path d="M270.1,157.9 L261.8,158.3" fill="none" stroke="#3f494e" stroke-width="0.9" stroke-linecap="round"/><path d="M270.6,167.0 L262.3,167.4" fill="none" stroke="#3f494e" stroke-width="0.9" stroke-linecap="round"/><path d="M271.0,176.1 L262.7,176.5" fill="none" stroke="#3f494e" stroke-width="0.9" stroke-linecap="round"/><path d="M271.4,185.2 L263.2,185.6" fill="none" stroke="#3f494e" stroke-width="0.9" stroke-linecap="round"/><path d="M271.9,194.3 L263.6,194.7" fill="none" stroke="#3f494e" stroke-width="0.9" stroke-linecap="round"/><path d="M272.3,203.4 L264.1,203.8" fill="none" stroke="#3f494e" stroke-width="0.9" stroke-linecap="round"/><path d="M272.8,212.5 L264.5,212.9" fill="none" stroke="#3f494e" stroke-width="0.9" stroke-linecap="round"/><path d="M273.2,221.5 L265.0,221.9" fill="none" stroke="#3f494e" stroke-width="0.9" stroke-linecap="round"/><path d="M273.7,230.6 L265.4,231.0" fill="none" stroke="#3f494e" stroke-width="0.9" stroke-linecap="round"/><path d="M274.1,239.7 L265.8,240.1" fill="none" stroke="#3f494e" stroke-width="0.9" stroke-linecap="round"/><path d="M274.6,248.8 L266.3,249.2" fill="none" stroke="#3f494e" stroke-width="0.9" stroke-linecap="round"/><path d="M275.0,257.9 L266.7,258.3" fill="none" stroke="#3f494e" stroke-width="0.9" stroke-linecap="round"/><path d="M275.5,267.0 L267.2,267.4" fill="none" stroke="#3f494e" stroke-width="0.9" stroke-linecap="round"/><path d="M254.6,-73.6 L278.9,421.4" fill="none" stroke="#ffffff" stroke-width="2.9" stroke-linecap="round" stroke-linejoin="round"/><text x="224.2" y="144.2" transform="rotate(87.0 224.2 144.2)" text-anchor="middle" dominant-baseline="central" font-family="Arial, sans-serif" font-size="8.3" textLength="106.2" lengthAdjust="spacing" font-weight="650" paint-order="stroke" stroke="#fffaf0" stroke-width="2.05" stroke-linejoin="round" fill="#695f54">Northeast 4th Avenue</text><text x="118.6" y="88.6" transform="rotate(-1.2 118.6 88.6)" text-anchor="middle" dominant-baseline="central" font-family="Arial, sans-serif" font-size="8.3" textLength="116.9" lengthAdjust="spacing" font-weight="650" paint-order="stroke" stroke="#fffaf0" stroke-width="2.05" stroke-linejoin="round" fill="#695f54">Northeast 58th Terrace</text><text x="121.6" y="204.6" transform="rotate(-1.5 121.6 204.6)" text-anchor="middle" dominant-baseline="central" font-family="Arial, sans-serif" font-size="8.3" textLength="111.6" lengthAdjust="spacing" font-weight="650" paint-order="stroke" stroke="#fffaf0" stroke-width="2.05" stroke-linejoin="round" fill="#695f54">Northeast 58th Street</text><text x="15.0" y="167.8" text-anchor="middle" font-family="Arial, sans-serif" font-size="6.5" textLength="18.0" lengthAdjust="spacing" font-weight="500" paint-order="stroke" stroke="#f3f5ee" stroke-width="1.55" stroke-linejoin="round" fill="#6f777a">333</text><text x="26.8" y="130.3" text-anchor="middle" font-family="Arial, sans-serif" font-size="6.5" textLength="18.0" lengthAdjust="spacing" font-weight="500" paint-order="stroke" stroke="#f3f5ee" stroke-width="1.55" stroke-linejoin="round" fill="#6f777a">344</text><text x="81.8" y="174.4" text-anchor="middle" font-family="Arial, sans-serif" font-size="6.5" textLength="18.0" lengthAdjust="spacing" font-weight="500" paint-order="stroke" stroke="#f3f5ee" stroke-width="1.55" stroke-linejoin="round" fill="#6f777a">361</text><text x="59.7" y="240.2" text-anchor="middle" font-family="Arial, sans-serif" font-size="6.5" textLength="18.0" lengthAdjust="spacing" font-weight="500" paint-order="stroke" stroke="#f3f5ee" stroke-width="1.55" stroke-linejoin="round" fill="#6f777a">352</text><text x="53.6" y="177.7" text-anchor="middle" font-family="Arial, sans-serif" font-size="6.5" textLength="18.0" lengthAdjust="spacing" font-weight="500" paint-order="stroke" stroke="#f3f5ee" stroke-width="1.55" stroke-linejoin="round" fill="#6f777a">353</text><text x="15.0" y="241.0" text-anchor="middle" font-family="Arial, sans-serif" font-size="6.5" textLength="18.0" lengthAdjust="spacing" font-weight="500" paint-order="stroke" stroke="#f3f5ee" stroke-width="1.55" stroke-linejoin="round" fill="#6f777a">338</text><text x="15.0" y="42.7" text-anchor="middle" font-family="Arial, sans-serif" font-size="6.5" textLength="18.0" lengthAdjust="spacing" font-weight="500" paint-order="stroke" stroke="#f3f5ee" stroke-width="1.55" stroke-linejoin="round" fill="#6f777a">329</text><text x="90.3" y="239.0" text-anchor="middle" font-family="Arial, sans-serif" font-size="6.5" textLength="18.0" lengthAdjust="spacing" font-weight="500" paint-order="stroke" stroke="#f3f5ee" stroke-width="1.55" stroke-linejoin="round" fill="#6f777a">360</text><text x="129.2" y="39.3" text-anchor="middle" font-family="Arial, sans-serif" font-size="6.5" textLength="18.0" lengthAdjust="spacing" font-weight="500" paint-order="stroke" stroke="#f3f5ee" stroke-width="1.55" stroke-linejoin="round" fill="#6f777a">385</text><text x="144.2" y="139.7" text-anchor="middle" font-family="Arial, sans-serif" font-size="6.5" textLength="18.0" lengthAdjust="spacing" font-weight="500" paint-order="stroke" stroke="#f3f5ee" stroke-width="1.55" stroke-linejoin="round" fill="#6f777a">368</text></svg>