<svg xmlns="http://www.w3.org/2000/svg" width="256" height="256" viewBox="0 0 256 256"><rect width="256" height="256" fill="#f1efe7"/><path d="M-3082.7,-5933.7 L-2867.9,-6023.0 L-2800.7,-6055.3 L-2500.2,-6199.6 L-2443.8,-6145.0 L-2438.9,-6140.3 L-2333.5,-6230.5 L-2308.4,-6249.6 L-2266.5,-6287.4 L-2030.4,-6504.2 L-1839.9,-6721.8 L-1832.6,-6735.7 L-1825.6,-6743.6 L-1814.5,-6756.3 L-1803.2,-6769.2 L-1798.6,-6774.5 L-1873.7,-6871.6 L-1774.3,-6931.2 L-1720.4,-6859.5 L-1644.2,-6946.7 L-1708.7,-7032.1 L-1628.8,-7115.4 L-1567.3,-7034.4 L-1496.7,-7114.8 L-1466.6,-7134.5 L-1319.4,-7230.0 L-1246.7,-7278.3 L-1159.1,-7335.9 L-1117.7,-7363.1 L-1012.8,-7430.8 L-1039.8,-7466.3 L-1088.1,-7531.0 L-963.2,-7610.4 L-917.7,-7633.9 L-914.2,-7636.4 L-890.2,-7654.9 L-804.6,-7700.7 L-798.7,-7709.9 L-774.7,-7726.4 L-761.7,-7745.4 L-758.0,-7748.2 L-737.1,-7756.3 L-689.9,-7773.2 L-657.6,-7787.4 L-543.5,-7841.0 L-542.1,-7837.3 L-446.4,-7878.2 L-407.3,-7828.1 L-320.2,-7886.2 L-307.8,-7894.7 L-306.6,-7895.7 L-305.4,-7897.3 L-303.5,-7900.6 L-302.5,-7903.7 L-301.9,-7907.4 L-302.0,-7910.4 L-302.4,-7913.3 L-302.8,-7916.6 L-302.9,-7919.1 L-302.7,-7921.2 L-302.3,-7923.4 L-300.7,-7927.4 L-299.6,-7929.6 L-297.1,-7933.4 L-294.5,-7936.2 L-281.8,-7941.3 L-271.2,-7945.3 L-257.7,-7949.7 L-251.4,-7951.4 L-240.2,-7955.1 L-232.3,-7957.9 L-221.4,-7962.4 L-206.6,-7968.9 L-190.6,-7976.4 L-182.0,-7980.6 L-171.2,-7986.1 L-161.1,-7991.7 L-151.0,-7997.7 L-140.7,-8004.4 L-137.5,-8006.6 L-116.8,-8022.4 L-99.4,-8035.8 L-82.4,-8050.2 L-66.5,-8065.2 L-55.0,-8078.1 L-43.6,-8092.0 L-29.6,-8110.0 L-16.8,-8128.0 L-2.1,-8151.1 L7.5,-8169.0 L13.5,-8180.4 L22.4,-8199.7 L29.9,-8217.6 L36.6,-8236.9 L42.0,-8253.8 L47.9,-8281.2 L52.2,-8305.7 L54.5,-8326.7 L56.5,-8351.5 L56.7,-8378.0 L55.1,-8402.5 L50.9,-8434.5 L46.5,-8456.3 L41.5,-8476.9 L34.1,-8500.3 L27.8,-8518.2 L20.6,-8537.7 L13.8,-8553.9 L9.2,-8564.4 L7.3,-8572.1 L7.0,-8578.0 L7.6,-8583.3 L9.7,-8587.9 L12.9,-8591.8 L17.1,-8594.0 L21.6,-8594.6 L33.7,-8591.7 L67.4,-8583.6 L78.6,-8838.3 L122.3,-9292.9 L74.8,-9304.1 L69.6,-9318.4 L69.8,-9338.9 L76.4,-9385.4 L85.4,-9395.9 L93.4,-9426.1 L143.9,-9414.4 L171.7,-9704.9 L179.4,-9785.3 L163.7,-9789.2 L173.2,-9827.6 L140.9,-9835.3 L145.0,-9858.8 L150.7,-9874.3 L157.8,-9892.4 L169.8,-9917.7 L182.7,-9914.8 L200.1,-10097.5 L204.2,-10208.3 L205.0,-10228.7 L214.4,-10299.2 L233.1,-10474.9 L357.9,-10800.3 L386.4,-10889.0 L733.1,-11022.0 L767.0,-11035.6 L772.9,-11038.8 L777.5,-11043.0 L782.6,-11048.9 L786.5,-11055.8 L789.1,-11062.6 L789.7,-11072.5 L789.2,-11084.8 L784.6,-11240.3 L782.9,-11270.4 L782.4,-11291.1 L781.7,-11331.3 L780.9,-11343.9 L779.4,-11354.5 L777.3,-11363.9 L774.2,-11373.5 L769.3,-11384.8 L762.1,-11396.9 L755.1,-11406.5 L749.7,-11415.6 L744.2,-11427.7 L739.6,-11439.3 L737.8,-11448.8 L736.4,-11459.3 L735.7,-11469.8 L736.0,-11480.0 L737.2,-11491.9 L740.0,-11503.6 L743.7,-11514.0 L747.6,-11523.5 L752.6,-11532.7 L758.7,-11543.9 L762.7,-11554.0 L766.2,-11566.9 L772.6,-11576.7 L770.4,-11665.9 L767.1,-11671.1 L766.1,-11731.7 L764.4,-11803.2 L765.6,-11813.1 L768.8,-11823.2 L776.8,-11839.0 L830.3,-11954.1 L831.4,-11956.0 L840.8,-11976.5 L849.7,-11995.9 L859.7,-12015.9 L869.5,-12036.5 L874.3,-12046.5 L926.9,-12154.4 L983.1,-12273.6 L1104.7,-12520.4 L1031.6,-12602.3 L972.0,-12475.3 L920.5,-12365.4 L912.7,-12349.8 L896.8,-12317.3 L865.0,-12320.0 L856.3,-12320.5 L853.2,-12317.7 L857.4,-12313.9 L841.1,-12299.4 L828.2,-12287.5 L825.8,-12236.6 L821.0,-12226.4 L805.4,-12227.0 L802.8,-12227.9 L598.4,-12312.3 L594.0,-12314.6 L589.3,-12317.6 L581.9,-12323.2 L576.2,-12328.6 L571.4,-12333.8 L566.7,-12340.2 L563.1,-12345.8 L560.3,-12351.6 L558.1,-12357.7 L556.6,-12361.9 L555.5,-12367.0 L554.7,-12373.0 L553.9,-12381.2 L553.9,-12392.9 L552.5,-12432.6 L558.1,-12432.9 L557.3,-12453.9 L556.4,-12488.5 L561.6,-12488.6 L561.2,-12512.2 L555.3,-12512.1 L552.6,-12611.5 L558.2,-12611.8 L557.3,-12635.1 L551.9,-12634.9 L549.6,-12708.4 L576.6,-12737.5 L611.1,-12738.7 L636.8,-12739.6 L670.7,-12740.7 L703.3,-12741.7 L732.5,-12742.7 L745.2,-12743.3 L744.6,-12754.6 L744.4,-12766.4 L742.5,-12804.7 L741.8,-12877.8 L740.8,-12879.1 L740.6,-12886.3 L742.7,-12886.4 L737.6,-13062.5 L733.2,-13228.2 L732.5,-13233.4 L732.1,-13243.0 L659.9,-13240.4 L611.9,-13244.5 L252.6,-13232.0 L252.5,-13235.2 L251.8,-13250.5 L81.4,-13244.5 L81.1,-13272.8 L58.6,-13277.9 L54.6,-13399.0 L717.4,-13422.0 L728.4,-13437.1 L728.0,-13480.1 L727.2,-13517.3 L726.6,-13540.6 L725.7,-13563.3 L673.0,-13588.1 L670.9,-13643.2 L724.9,-13670.0 L720.0,-13797.5 L718.6,-13803.8 L664.9,-13828.9 L663.2,-13897.1 L714.2,-13923.4 L691.5,-14200.3 L697.5,-14323.5 L700.5,-14524.4 L700.3,-14742.9 L705.1,-14773.5 L705.4,-14788.3 L700.6,-14806.1 L705.6,-14806.1 L705.6,-14822.2 L708.6,-15233.2 L708.1,-15251.5 L702.4,-15251.5 L702.6,-15327.1 L699.3,-15331.8 L694.1,-15409.8 L704.4,-15481.1 L703.1,-15567.4 L699.6,-15588.1 L704.9,-15652.0 L701.3,-15729.3 L692.3,-15812.0 L675.2,-15946.0 L683.3,-15982.9 L679.7,-16018.8 L649.1,-16044.9 L604.2,-16044.5 L535.8,-16035.5 L491.3,-16035.5 L450.9,-16050.3 L397.8,-16086.7 L397.8,-16152.0 L396.4,-16232.3 L401.6,-16299.2 L419.2,-16351.4 L713.9,-16356.9 L720.7,-16774.8 L720.7,-17376.4 L717.6,-17594.7 L16629.8,-24166.4 L16629.8,12051.8 L-3082.7,12051.8 L-3082.7,-5933.7 Z" fill="#add7e1" stroke="none"><title>Biscayne Bay</title></path><path d="M-10474.8,3351.5 L-11019.0,2949.8 L-11062.5,2917.8 L-11109.7,2907.5 L-11143.0,2879.5 L-11169.6,2876.4 L-11255.6,2882.1 L-11255.5,2874.0 L-11260.3,2866.4 L-11269.9,2860.5 L-11456.7,2779.6 L-11469.4,2773.8 L-11480.5,2770.6 L-11494.3,2769.5 L-11508.2,2769.2 L-11554.6,2769.2 L-11566.9,2768.5 L-11579.0,2766.1 L-11591.8,2761.1 L-11607.2,2757.0 L-11618.4,2756.0 L-11651.3,2754.6 L-11662.3,2752.6 L-11676.3,2748.1 L-11690.0,2744.6 L-11703.3,2741.5 L-11713.7,2737.3 L-11726.3,2729.5 L-11737.5,2721.1 L-11748.4,2712.9 L-11757.3,2708.7 L-11764.1,2707.3 L-11770.2,2707.7 L-11776.7,2709.5 L-11784.3,2713.4 L-11790.3,2720.0 L-11798.4,2727.9 L-11807.4,2736.2 L-11817.6,2741.8 L-11830.5,2746.0 L-11841.2,2748.6 L-11854.1,2750.6 L-11875.7,2753.1 L-11929.9,2755.7 L-11975.9,2758.0 L-11995.7,2765.1 L-12036.3,2766.5 L-12041.8,2758.0 L-12047.9,2754.1 L-12054.2,2752.9 L-12098.0,2755.4 L-12117.0,2762.2 L-12140.3,2762.4 L-12156.0,2760.1 L-12168.9,2756.2 L-12216.0,2759.0 L-12340.6,2768.7 L-12369.3,2769.5 L-12379.1,2769.3 L-12387.9,2767.1 L-12398.1,2762.0 L-12405.6,2756.0 L-12438.0,2756.1 L-12465.1,2755.7 L-12472.4,2760.2 L-12509.7,2761.1 L-12514.5,2769.0 L-12519.8,2769.2 L-12529.0,2767.0 L-12545.5,2765.0 L-12562.5,2765.9 L-12567.7,2767.5 L-12573.0,2766.6 L-12576.6,2763.1 L-12582.7,2759.6 L-12605.4,2759.7 L-12628.3,2760.9 L-12650.0,2773.7 L-12660.7,2778.8 L-12672.9,2781.5 L-12683.0,2782.2 L-12692.1,2780.8 L-12713.1,2771.8 L-12725.1,2768.0 L-12735.3,2766.5 L-12780.0,2767.1 L-12782.8,2761.7 L-12822.3,2762.6 L-12849.5,2767.6 L-12867.4,2769.7 L-12877.0,2771.8 L-12880.7,2769.3 L-12887.5,2768.4 L-12951.2,2762.6 L-12956.7,2765.6 L-12963.4,2767.0 L-12972.2,2767.1 L-12972.2,2763.9 L-13011.7,2756.5 L-13036.6,2751.7 L-13096.8,2731.5 L-13100.1,2736.0 L-13140.3,2723.6 L-13148.7,2720.8 L-13144.6,2706.8 L-13149.4,2705.3 L-13150.4,2703.8 L-13153.0,2703.0 L-13156.6,2702.5 L-13161.0,2700.3 L-13159.5,2699.0 L-13177.3,2684.5 L-13206.9,2657.7 L-13222.8,2643.7 L-13234.1,2631.4 L-13240.4,2623.1 L-13249.8,2610.3 L-13255.2,2600.4 L-13272.0,2579.3 L-13273.6,2578.1 L-13274.7,2578.0 L-13275.9,2578.2 L-13278.1,2578.3 L-13280.1,2577.3 L-13284.3,2574.6 L-13292.9,2570.1 L-13297.1,2566.5 L-13302.0,2562.2 L-13308.7,2558.6 L-13319.2,2555.3 L-13330.3,2553.3 L-13339.8,2553.1 L-13337.1,2527.9 L-13334.9,2495.0 L-13324.6,2496.0 L-13314.3,2497.8 L-13300.8,2501.8 L-13290.9,2505.5 L-13282.0,2509.6 L-13273.4,2513.6 L-13265.3,2518.2 L-13258.7,2523.3 L-13249.9,2530.1 L-13240.7,2537.0 L-13238.6,2538.3 L-13236.7,2538.7 L-13211.5,2537.6 L-13211.2,2543.3 L-13212.7,2545.8 L-13231.6,2547.6 L-13226.8,2557.4 L-13223.5,2556.2 L-13220.5,2559.2 L-13218.6,2562.1 L-13217.0,2564.3 L-13213.1,2569.5 L-13211.6,2575.2 L-13205.5,2583.6 L-13191.1,2592.7 L-13173.2,2601.8 L-13151.8,2615.3 L-13142.0,2619.9 L-13121.4,2631.6 L-13111.7,2636.7 L-13094.0,2643.2 L-13059.2,2652.5 L-13038.8,2657.4 L-13020.2,2659.3 L-13010.3,2660.6 L-13008.1,2660.4 L-13007.2,2659.1 L-13006.9,2652.5 L-12983.8,2652.5 L-12983.3,2659.9 L-12934.9,2662.4 L-12887.7,2663.8 L-12855.6,2662.6 L-12845.0,2661.8 L-12837.3,2660.8 L-12831.0,2659.0 L-12825.2,2655.5 L-12822.3,2650.8 L-12823.4,2573.3 L-12803.9,2572.2 L-12802.2,2647.8 L-12801.1,2649.7 L-12797.2,2652.4 L-12792.7,2653.7 L-12689.3,2653.9 L-12689.8,2620.6 L-12681.7,2620.4 L-12678.3,2653.9 L-12614.5,2653.3 L-12614.5,2649.7 L-12608.2,2649.6 L-12608.0,2652.2 L-12182.5,2644.1 L-12151.7,2640.5 L-12114.1,2639.4 L-12078.5,2644.1 L-12066.6,2643.1 L-12057.9,2641.4 L-12049.8,2638.5 L-12039.3,2634.5 L-11825.4,2630.7 L-11825.5,2615.9 L-11705.8,2613.8 L-11705.7,2630.1 L-11654.9,2631.9 L-11651.0,2631.8 L-11647.4,2631.5 L-11642.7,2630.9 L-11638.9,2629.9 L-11635.2,2628.7 L-11628.9,2625.7 L-11626.0,2630.7 L-11619.8,2626.8 L-11614.1,2622.2 L-11609.3,2617.2 L-11605.1,2611.3 L-11601.2,2604.0 L-11608.5,2599.9 L-11606.5,2593.8 L-11605.2,2587.5 L-11604.5,2581.5 L-11604.4,2576.8 L-11604.6,2572.4 L-11605.3,2534.5 L-11611.4,2528.9 L-11606.2,2523.4 L-11611.5,2518.8 L-11605.5,2511.7 L-11612.0,2506.0 L-11606.8,2500.5 L-11612.0,2495.5 L-11605.9,2489.0 L-11612.2,2482.6 L-11599.1,2468.2 L-11596.8,2468.1 L-11602.5,2253.6 L-11554.4,2252.5 L-11552.1,2253.7 L-11549.5,2255.7 L-11547.6,2257.4 L-11546.8,2259.4 L-11546.1,2261.8 L-11545.9,2264.2 L-11541.8,2597.5 L-11539.9,2608.3 L-11537.2,2615.6 L-11533.0,2624.6 L-11528.1,2633.4 L-11523.0,2640.4 L-11518.9,2644.7 L-11514.5,2648.1 L-11509.4,2651.1 L-11504.1,2653.1 L-11496.9,2655.2 L-11488.0,2656.9 L-11477.2,2658.9 L-11464.6,2661.2 L-11452.6,2663.8 L-11439.3,2666.2 L-11426.7,2668.9 L-11422.7,2669.7 L-11417.8,2670.7 L-11413.0,2671.3 L-11408.8,2671.4 L-11404.0,2671.4 L-11400.3,2671.2 L-11396.6,2670.5 L-11393.4,2669.7 L-11390.0,2668.7 L-11387.1,2667.4 L-11381.3,2664.6 L-11376.2,2661.6 L-11371.1,2657.9 L-11365.2,2652.2 L-11359.7,2646.0 L-11356.7,2640.7 L-11354.0,2634.2 L-11352.6,2628.9 L-11351.8,2623.2 L-11351.3,2617.8 L-11351.3,2612.8 L-11358.6,2255.6 L-11348.2,2244.9 L-11344.4,2244.5 L-11342.9,2243.1 L-11321.2,2242.5 L-11319.3,2239.3 L-11316.0,2240.2 L-11310.5,2245.3 L-11306.7,2250.6 L-11302.9,2257.2 L-11295.7,2656.4 L-11295.0,2663.4 L-11293.7,2677.3 L-11292.4,2680.1 L-11293.4,2680.8 L-11291.6,2684.7 L-11289.3,2689.3 L-11287.3,2692.2 L-11284.9,2695.7 L-11281.6,2699.5 L-11277.7,2703.5 L-11273.0,2707.5 L-11268.8,2710.6 L-11264.2,2713.1 L-11259.8,2715.3 L-11255.1,2716.8 L-11254.5,2715.4 L-11188.3,2739.4 L-11180.0,2742.5 L-11176.2,2743.9 L-11170.3,2746.0 L-11166.0,2747.0 L-11162.3,2747.5 L-11158.9,2747.5 L-11154.1,2747.1 L-11148.9,2746.6 L-11144.3,2745.6 L-11139.6,2744.3 L-11136.1,2742.9 L-11132.4,2741.2 L-11129.4,2739.3 L-11125.6,2736.5 L-11120.8,2732.3 L-11116.4,2728.0 L-11111.6,2722.0 L-11108.2,2716.4 L-11105.4,2710.2 L-11103.4,2703.3 L-11102.2,2696.3 L-11101.5,2683.8 L-11101.8,2658.3 L-11109.1,2252.2 L-11109.1,2247.7 L-11108.3,2244.5 L-11106.9,2241.9 L-11104.0,2239.5 L-11100.7,2237.8 L-11097.0,2237.2 L-11066.9,2236.2 L-11063.3,2236.8 L-11060.1,2238.2 L-11057.8,2240.4 L-11055.2,2244.2 L-11053.7,2249.6 L-11052.8,2256.9 L-11045.3,2777.8 L-11044.9,2780.9 L-11044.3,2784.0 L-11043.4,2787.2 L-11042.3,2790.7 L-11041.1,2794.2 L-11039.7,2797.4 L-11038.5,2800.1 L-11037.2,2802.5 L-11035.3,2805.5 L-11033.2,2808.1 L-11031.3,2810.5 L-11028.4,2813.6 L-11025.6,2816.3 L-11022.5,2818.8 L-11019.2,2821.3 L-11010.0,2827.1 L-11009.1,2826.0 L-11001.0,2830.5 L-10991.4,2835.7 L-10985.9,2838.7 L-10979.8,2842.3 L-10973.5,2846.0 L-10967.0,2850.0 L-10959.7,2854.5 L-10952.5,2859.0 L-10945.3,2863.3 L-10939.3,2867.0 L-10932.6,2871.3 L-10925.5,2875.9 L-10918.7,2880.4 L-10912.4,2884.7 L-10913.1,2885.6 L-10904.3,2891.7 L-10895.2,2897.8 L-10892.4,2899.5 L-10889.3,2901.2 L-10884.9,2903.3 L-10880.8,2904.8 L-10876.4,2906.0 L-10872.5,2907.0 L-10867.9,2907.7 L-10862.8,2908.3 L-10858.4,2908.3 L-10854.7,2908.0 L-10851.5,2907.3 L-10847.4,2906.2 L-10843.3,2904.9 L-10839.5,2903.6 L-10836.0,2901.9 L-10832.4,2900.0 L-10828.9,2897.8 L-10825.3,2895.0 L-10822.1,2892.1 L-10819.0,2889.0 L-10816.1,2885.8 L-10813.1,2881.4 L-10810.6,2877.0 L-10808.2,2872.1 L-10806.8,2868.3 L-10805.7,2864.3 L-10804.9,2860.0 L-10804.5,2855.7 L-10804.8,2850.8 L-10864.1,2283.1 L-10860.0,2282.7 L-10863.3,2254.3 L-10866.3,2254.5 L-10868.7,2241.4 L-10867.9,2238.7 L-10865.4,2234.7 L-10860.3,2230.8 L-10853.6,2230.0 L-10826.7,2229.1 L-10822.2,2230.0 L-10819.1,2231.5 L-10815.8,2234.1 L-10813.5,2236.5 L-10811.9,2239.0 L-10746.9,2875.9 L-10745.4,2881.4 L-10742.6,2888.2 L-10740.2,2892.6 L-10737.6,2897.3 L-10734.2,2901.9 L-10731.4,2905.1 L-10728.3,2908.3 L-10724.9,2911.0 L-10721.9,2913.1 L-10717.7,2915.8 L-10714.0,2917.7 L-10709.1,2919.8 L-10704.5,2921.2 L-10699.3,2922.3 L-10695.3,2922.9 L-10691.8,2923.0 L-10687.7,2923.1 L-10546.5,2920.2 L-10541.9,2919.6 L-10537.5,2917.5 L-10534.3,2914.6 L-10532.1,2910.2 L-10531.3,2906.2 L-10531.5,2902.2 L-10603.0,2220.1 L-10666.0,2137.9 L-10668.8,2140.2 L-10723.6,2063.7 L-10724.6,2047.5 L-10726.3,2044.1 L-10729.2,2041.0 L-10732.9,2035.8 L-10733.2,2028.2 L-10739.7,2025.7 L-10746.0,2025.6 L-10754.5,2029.8 L-10744.9,2047.8 L-10757.0,2053.6 L-10766.1,2045.2 L-10773.9,2040.4 L-10779.2,2038.6 L-10792.2,2038.1 L-10798.8,2024.7 L-10757.3,2007.7 L-10759.3,2004.3 L-10768.1,1992.5 L-10769.5,1993.2 L-11078.4,1588.7 L-11083.1,1522.0 L-11080.6,1521.4 L-11092.5,1399.1 L-11097.1,1387.8 L-11102.1,1375.1 L-11105.9,1365.3 L-11110.5,1352.8 L-11125.5,1310.7 L-11131.6,1313.4 L-11140.5,1279.3 L-11139.0,1279.0 L-11170.1,1194.7 L-11173.5,1047.3 L-11169.9,1047.3 L-11169.4,1034.4 L-11167.6,1021.7 L-11166.9,1017.0 L-11168.2,1013.2 L-11164.0,993.1 L-11125.7,925.3 L-11145.8,913.1 L-11130.9,888.4 L-11111.5,899.8 L-11109.8,897.2 L-11103.7,900.3 L-11097.1,902.9 L-11089.5,905.3 L-11083.8,906.5 L-11078.4,906.7 L-11072.0,905.6 L-11065.7,903.5 L-11059.5,901.1 L-11056.6,898.0 L-11055.5,893.9 L-11054.0,889.0 L-11053.7,887.0 L-11053.8,884.5 L-11055.2,880.6 L-11057.8,876.9 L-11060.8,874.8 L-11065.2,870.6 L-11069.0,866.6 L-11074.6,863.0 L-11076.9,857.3 L-11079.6,851.6 L-11083.9,844.9 L-11088.8,839.1 L-11097.8,832.7 L-11141.4,810.1 L-11167.2,797.3 L-11191.3,784.3 L-11214.2,771.6 L-11229.0,762.0 L-11234.7,760.5 L-11241.0,762.4 L-11244.5,766.7 L-11251.6,784.4 L-11295.7,764.6 L-11269.3,722.9 L-11263.5,720.2 L-11256.4,718.8 L-11248.1,720.6 L-11082.4,817.5 L-11073.4,820.2 L-11064.0,822.5 L-11050.7,822.8 L-11037.2,820.4 L-11028.6,816.9 L-11019.2,809.3 L-11013.7,804.0 L-11007.8,795.7 L-11007.9,794.6 L-11008.3,793.6 L-11009.2,792.8 L-11062.8,759.7 L-11064.1,759.3 L-11065.5,759.2 L-11066.9,759.3 L-11072.0,761.5 L-11073.9,761.7 L-11076.0,761.5 L-11079.1,761.0 L-11081.5,760.3 L-11084.9,758.6 L-11088.2,756.7 L-11161.9,711.7 L-11196.6,687.3 L-11199.9,686.8 L-11203.2,686.9 L-11207.1,687.0 L-11209.7,686.6 L-11211.9,685.6 L-11214.5,683.6 L-11217.4,681.3 L-11219.4,678.5 L-11220.6,675.7 L-11220.8,673.6 L-11220.5,670.9 L-11220.0,668.6 L-11208.2,648.8 L-11208.2,647.9 L-11209.1,647.2 L-11219.9,639.6 L-11222.0,636.5 L-11220.8,634.6 L-11217.3,635.1 L-11213.5,636.2 L-11191.3,649.9 L-11065.5,730.2 L-11062.9,731.7 L-11061.1,733.6 L-11059.9,735.8 L-11058.6,740.4 L-11057.7,744.0 L-11057.2,747.1 L-11000.4,781.2 L-10998.4,782.1 L-10996.0,782.3 L-10993.2,781.9 L-10991.2,781.2 L-10989.5,780.4 L-10928.4,681.5 L-10902.8,643.9 L-10878.9,617.0 L-10866.8,623.7 L-10859.0,611.1 L-10900.5,586.3 L-10891.7,571.9 L-10850.2,596.9 L-10840.9,581.7 L-10848.4,573.3 L-10840.8,564.6 L-10832.6,574.0 L-10830.6,572.5 L-10828.3,570.9 L-10825.1,569.1 L-10821.8,567.5 L-10817.7,566.0 L-10813.8,564.9 L-10809.6,564.2 L-10805.4,563.9 L-10801.4,564.0 L-10797.5,564.6 L-10793.8,565.5 L-10790.7,566.4 L-10788.0,567.6 L-10784.2,569.4 L-10780.7,571.6 L-10777.7,573.7 L-10774.7,576.4 L-10772.0,579.0 L-10769.0,582.9 L-10766.9,586.4 L-10764.8,590.9 L-10763.4,595.4 L-10762.2,601.6 L-10761.8,607.0 L-10761.9,610.1 L-10762.3,613.3 L-10763.4,618.1 L-10766.2,624.7 L-10768.0,629.0 L-10770.5,634.1 L-10760.1,639.3 L-10711.5,581.3 L-10800.0,527.5 L-10795.5,517.9 L-10792.3,509.0 L-10792.1,505.2 L-10787.0,494.3 L-10776.5,484.6 L-10763.5,474.0 L-10748.0,464.1 L-10718.9,455.6 L-10668.7,450.6 L-10648.9,434.6 L-10644.8,433.9 L-10641.5,433.7 L-10636.8,435.5 L-10632.5,436.0 L-10604.6,452.9 L-10531.2,365.8 L-10800.2,194.8 L-10816.9,221.1 L-10853.2,198.1 L-10801.7,117.1 L-10765.5,139.5 L-10781.6,167.1 L-10507.9,339.6 L-10473.4,295.3 L-10449.0,266.3 L-10416.8,217.9 L-10399.0,193.5 L-10400.8,179.6 L-10400.3,179.2 L-10403.5,168.9 L-10405.6,162.5 L-10407.6,155.9 L-10410.0,150.2 L-10414.6,142.7 L-10419.2,135.4 L-10421.2,131.6 L-10422.7,127.8 L-10423.8,124.3 L-10424.2,121.2 L-10424.7,111.0 L-10542.9,2.5 L-10546.8,6.7 L-10550.1,3.9 L-10559.7,13.4 L-10566.0,5.0 L-10558.4,-3.8 L-10566.0,-13.5 L-10571.2,-12.1 L-10576.6,-11.9 L-10581.5,-12.8 L-10585.8,-14.6 L-10590.8,-18.3 L-10597.0,-24.4 L-10607.9,-36.4 L-10611.2,-41.5 L-10612.4,-47.9 L-10611.6,-55.5 L-10608.7,-62.5 L-10606.2,-67.3 L-10601.4,-72.1 L-10596.1,-75.7 L-10591.0,-77.6 L-10587.2,-78.2 L-10582.2,-77.3 L-10577.1,-75.5 L-10572.3,-71.7 L-10561.2,-61.7 L-10555.5,-56.3 L-10550.3,-50.6 L-10548.6,-47.9 L-10547.4,-45.0 L-10546.7,-42.4 L-10546.2,-38.8 L-10546.8,-35.4 L-10547.8,-32.2 L-10549.2,-29.8 L-10549.6,-28.7 L-10549.3,-27.3 L-10548.5,-25.9 L-10421.6,93.0 L-10417.2,96.0 L-10414.1,97.3 L-10409.7,96.3 L-10404.5,95.9 L-10397.9,98.7 L-10391.3,102.8 L-10378.4,110.1 L-10373.0,112.7 L-10368.1,107.9 L-10362.7,102.7 L-10359.1,98.6 L-10353.1,90.8 L-10349.7,86.1 L-10346.1,80.3 L-10343.8,75.2 L-10341.3,69.8 L-10339.0,64.1 L-10336.9,58.3 L-10335.7,53.4 L-10334.3,47.2 L-10333.7,43.5 L-10333.3,40.5 L-10332.6,35.2 L-10331.9,30.0 L-10331.6,26.6 L-10331.4,22.9 L-10331.4,18.6 L-10331.6,15.0 L-10332.3,10.0 L-10333.1,4.3 L-10333.9,-1.0 L-10334.4,-5.3 L-10335.0,-8.5 L-10335.7,-11.9 L-10336.5,-15.3 L-10337.7,-19.3 L-10339.1,-23.3 L-10340.2,-25.7 L-10341.4,-28.1 L-10343.1,-30.4 L-10345.4,-33.7 L-10347.9,-36.8 L-10350.6,-39.4 L-10354.0,-42.2 L-10357.5,-44.4 L-10361.0,-46.3 L-10364.2,-47.5 L-10366.4,-48.2 L-10368.9,-48.5 L-10371.9,-48.4 L-10374.7,-47.8 L-10376.9,-46.9 L-10379.0,-45.4 L-10380.5,-43.8 L-10381.7,-42.3 L-10382.6,-40.0 L-10383.1,-37.5 L-10383.0,-34.5 L-10382.8,-31.0 L-10382.8,-28.4 L-10383.0,-25.8 L-10383.4,-23.2 L-10383.9,-20.9 L-10384.8,-18.5 L-10386.2,-15.9 L-10387.9,-13.4 L-10389.6,-11.1 L-10391.3,-9.5 L-10394.7,-6.8 L-10397.5,-4.9 L-10401.9,-3.6 L-10404.5,-3.0 L-10407.5,-2.6 L-10410.2,-2.5 L-10413.8,-2.7 L-10416.4,-3.2 L-10420.0,-4.0 L-10425.0,-5.5 L-10429.2,-7.1 L-10432.3,-8.3 L-10435.6,-10.1 L-10438.5,-12.1 L-10441.7,-14.6 L-10444.2,-16.9 L-10446.3,-19.0 L-10448.5,-21.6 L-10450.3,-24.0 L-10452.0,-26.4 L-10453.5,-29.1 L-10455.1,-32.7 L-10456.5,-36.0 L-10457.9,-39.6 L-10458.8,-42.4 L-10459.5,-45.0 L-10460.0,-47.7 L-10460.4,-51.9 L-10460.7,-55.6 L-10460.5,-59.6 L-10459.6,-64.9 L-10458.1,-70.1 L-10456.2,-75.5 L-10454.9,-78.0 L-10453.6,-79.5 L-10443.3,-92.6 L-10440.9,-95.3 L-10437.8,-96.8 L-10434.5,-98.0 L-10430.8,-98.8 L-10426.7,-99.3 L-10423.1,-99.5 L-10419.5,-99.4 L-10415.9,-99.0 L-10411.8,-97.8 L-10407.5,-95.7 L-10403.8,-93.4 L-10400.5,-90.8 L-10390.1,-81.2 L-10387.6,-80.4 L-10386.2,-80.1 L-10384.5,-80.5 L-10383.4,-80.9 L-10382.0,-82.5 L-10381.4,-84.1 L-10381.3,-86.3 L-10381.2,-88.3 L-10381.6,-89.2 L-10402.6,-110.0 L-10374.0,-140.5 L-10375.6,-144.1 L-10359.1,-160.4 L-10327.3,-128.6 L-10352.9,-96.0 L-10353.1,-94.1 L-10351.8,-93.3 L-10350.2,-93.7 L-10322.1,-128.9 L-10313.9,-138.8 L-10313.6,-141.1 L-10314.3,-143.1 L-10315.8,-144.9 L-10337.8,-165.7 L-10332.3,-172.1 L-10337.9,-176.8 L-10334.7,-184.2 L-10277.7,-241.5 L-10258.1,-244.8 L-10252.0,-245.7 L-10246.2,-246.5 L-10243.5,-247.2 L-10240.3,-248.9 L-10236.5,-251.0 L-10233.6,-253.9 L-10230.8,-257.4 L-10201.7,-299.7 L-10201.1,-300.8 L-10201.4,-302.2 L-10201.8,-303.2 L-10202.5,-304.1 L-10206.0,-306.3 L-10206.9,-306.8 L-10207.7,-306.7 L-10208.6,-306.2 L-10210.5,-304.8 L-10234.9,-282.0 L-10244.4,-275.2 L-10283.4,-315.2 L-10278.9,-329.4 L-10277.0,-333.6 L-10270.9,-344.8 L-10263.8,-357.3 L-10259.5,-362.1 L-10251.8,-370.3 L-10243.6,-379.3 L-10234.6,-388.8 L-10226.9,-395.4 L-10223.2,-398.7 L-10218.3,-402.3 L-10213.8,-404.7 L-10207.4,-407.6 L-10203.4,-409.0 L-10199.4,-410.2 L-10196.3,-410.5 L-10191.9,-410.2 L-10188.2,-409.7 L-10184.0,-408.5 L-10179.9,-405.1 L-10177.4,-401.6 L-10175.9,-398.0 L-10175.3,-392.6 L-10175.5,-385.5 L-10176.4,-377.5 L-10178.1,-369.8 L-10188.4,-346.8 L-10198.2,-326.1 L-10194.8,-320.6 L-10193.0,-319.5 L-10191.1,-319.5 L-10189.4,-319.9 L-10188.1,-320.7 L-10181.4,-330.2 L-10172.8,-334.5 L-10155.7,-380.2 L-10154.5,-382.5 L-10152.8,-384.5 L-10151.1,-385.4 L-10149.5,-385.8 L-10147.2,-385.8 L-10144.8,-385.2 L-10132.3,-381.7 L-10129.9,-381.2 L-10127.1,-381.1 L-10124.5,-381.5 L-10122.4,-382.4 L-10120.6,-383.8 L-10118.8,-386.1 L-10097.8,-414.2 L-10096.8,-416.3 L-10096.3,-418.5 L-10096.3,-420.6 L-10096.7,-422.8 L-10097.5,-424.4 L-10098.7,-426.0 L-10100.1,-427.3 L-10102.1,-428.3 L-10104.0,-428.8 L-10105.9,-428.9 L-10107.5,-428.6 L-10109.4,-427.7 L-10110.8,-426.7 L-10111.9,-425.3 L-10117.4,-416.4 L-10118.6,-414.7 L-10120.0,-413.1 L-10122.1,-411.3 L-10124.0,-410.2 L-10126.3,-409.5 L-10129.1,-408.9 L-10130.7,-408.9 L-10132.9,-409.2 L-10134.8,-409.7 L-10136.4,-410.4 L-10153.6,-426.0 L-10155.6,-428.4 L-10157.1,-430.6 L-10158.5,-433.3 L-10159.4,-435.6 L-10160.0,-438.0 L-10160.5,-440.6 L-10160.8,-443.8 L-10160.9,-447.0 L-10160.6,-449.7 L-10160.2,-452.0 L-10159.7,-454.0 L-10158.9,-455.7 L-10127.6,-505.4 L-10125.6,-508.7 L-10124.4,-510.4 L-10123.0,-511.2 L-10120.7,-512.2 L-10118.3,-512.9 L-10116.0,-513.3 L-10114.7,-513.3 L-10113.4,-513.1 L-10112.3,-512.7 L-10110.7,-511.9 L-10108.8,-510.7 L-10105.6,-508.1 L-10091.3,-494.7 L-10088.9,-491.3 L-10087.5,-488.0 L-10086.2,-484.1 L-10085.8,-481.1 L-10085.6,-477.9 L-10085.6,-475.2 L-10085.9,-472.5 L-10086.4,-469.8 L-10087.0,-468.0 L-10088.6,-464.3 L-10094.3,-453.7 L-10094.9,-451.3 L-10094.9,-448.4 L-10094.7,-446.2 L-10093.9,-444.5 L-10092.4,-442.9 L-10090.0,-441.2 L-10088.0,-440.1 L-10085.7,-439.6 L-10083.0,-439.7 L-10080.8,-440.2 L-10078.3,-441.5 L-10076.1,-443.5 L-10039.1,-494.3 L-10050.4,-504.5 L-10043.6,-511.8 L-10033.5,-502.1 L-10012.7,-529.4 L-9981.2,-571.5 L-10108.0,-693.0 L-10135.5,-664.1 L-10167.8,-694.6 L-10136.6,-728.2 L-10140.7,-732.7 L-10134.2,-738.7 L-10130.2,-734.6 L-10108.5,-758.2 L-10089.0,-740.1 L-10086.7,-725.1 L-10004.7,-648.6 L-9988.7,-642.4 L-9975.9,-646.9 L-9951.6,-637.2 L-9935.5,-643.1 L-9887.6,-701.6 L-9884.9,-707.1 L-9884.1,-714.5 L-9886.5,-721.8 L-9889.7,-727.0 L-9918.1,-753.2 L-9917.7,-760.4 L-9912.1,-774.5 L-9900.9,-795.4 L-9923.0,-809.7 L-9914.6,-812.9 L-9909.3,-816.3 L-9904.0,-822.3 L-9897.8,-838.2 L-9886.4,-867.2 L-9879.0,-874.0 L-9949.2,-942.0 L-9964.6,-932.4 L-9968.2,-931.5 L-9971.6,-931.4 L-9976.0,-931.9 L-9979.6,-932.9 L-9983.1,-935.0 L-9986.0,-937.5 L-10022.3,-972.5 L-10029.1,-979.3 L-10032.1,-982.9 L-10034.6,-987.4 L-10035.8,-991.5 L-10036.3,-995.5 L-10036.2,-999.3 L-10035.5,-1002.9 L-10034.6,-1005.8 L-10033.4,-1007.9 L-10030.8,-1011.6 L-10027.7,-1015.3 L-10011.4,-1032.2 L-9887.4,-917.3 L-9895.9,-907.7 L-9804.0,-820.8 L-9698.1,-975.9 L-9765.3,-1038.7 L-9773.9,-1031.0 L-9899.4,-1149.5 L-9883.0,-1164.8 L-9810.9,-1097.2 L-9803.7,-1107.8 L-9799.7,-1113.1 L-9794.6,-1118.3 L-9788.7,-1124.8 L-9782.7,-1128.7 L-9773.2,-1136.7 L-9763.7,-1145.5 L-9745.5,-1162.7 L-9702.0,-1211.6 L-9694.2,-1219.7 L-9665.5,-1234.4 L-9638.3,-1255.7 L-9635.7,-1257.7 L-9628.6,-1263.2 L-9625.5,-1266.0 L-9623.0,-1269.2 L-9621.3,-1272.5 L-9620.2,-1275.8 L-9618.9,-1278.3 L-9617.4,-1281.0 L-9614.8,-1285.3 L-9613.0,-1288.0 L-9611.2,-1290.5 L-9607.9,-1293.1 L-9604.7,-1295.3 L-9601.2,-1297.4 L-9592.9,-1301.4 L-9584.9,-1305.4 L-9583.7,-1305.6 L-9582.5,-1305.4 L-9580.1,-1304.7 L-9573.6,-1301.4 L-9568.7,-1299.0 L-9566.4,-1297.6 L-9564.3,-1295.9 L-9530.9,-1264.2 L-9528.6,-1262.9 L-9517.7,-1260.0 L-9514.2,-1259.0 L-9510.3,-1258.6 L-9507.3,-1258.7 L-9505.0,-1259.5 L-9502.7,-1261.1 L-9490.8,-1277.9 L-9490.8,-1280.2 L-9491.2,-1282.3 L-9492.5,-1284.6 L-9494.5,-1286.8 L-9503.6,-1295.3 L-9502.9,-1296.7 L-9491.2,-1321.5 L-9471.2,-1361.8 L-9453.0,-1375.2 L-9442.5,-1385.7 L-9435.3,-1394.0 L-9427.7,-1401.7 L-9419.3,-1408.6 L-9414.2,-1413.3 L-9408.8,-1418.2 L-9404.8,-1422.2 L-9402.8,-1425.8 L-9401.2,-1428.6 L-9400.2,-1431.3 L-9399.8,-1434.5 L-9399.6,-1437.7 L-9393.5,-1443.9 L-9384.5,-1452.4 L-9369.5,-1464.7 L-9353.8,-1476.6 L-9346.8,-1486.4 L-9344.2,-1496.5 L-9336.4,-1501.3 L-9326.6,-1501.5 L-9316.7,-1507.4 L-9308.0,-1523.1 L-9308.2,-1539.4 L-9306.6,-1564.6 L-9304.1,-1568.2 L-9302.6,-1570.6 L-9299.8,-1575.2 L-9303.3,-1585.9 L-9299.3,-1590.9 L-9279.5,-1615.4 L-9245.5,-1655.1 L-9239.0,-1664.5 L-9236.4,-1669.4 L-9225.6,-1684.3 L-9222.6,-1693.7 L-9222.5,-1708.2 L-9222.9,-1722.7 L-9223.0,-1737.5 L-9218.6,-1753.8 L-9211.2,-1769.9 L-9200.6,-1785.4 L-9192.9,-1796.9 L-9183.8,-1808.4 L-9166.2,-1828.0 L-9088.2,-1866.6 L-9077.9,-1869.3 L-9075.3,-1863.7 L-9072.2,-1858.3 L-9071.2,-1857.3 L-9069.5,-1858.0 L-9069.2,-1861.8 L-9070.4,-1865.0 L-9066.1,-1866.3 L-9050.1,-1871.0 L-9029.3,-1877.2 L-9012.5,-1882.2 L-9006.5,-1884.0 L-9012.5,-1902.9 L-9002.1,-1905.7 L-8984.8,-1908.1 L-8982.7,-1908.4 L-8982.6,-1909.6 L-8982.6,-1914.0 L-8966.9,-1914.7 L-8942.3,-1915.7 L-8932.8,-1911.1 L-8909.1,-1825.7 L-8903.8,-1820.6 L-8914.1,-1810.0 L-8905.0,-1801.0 L-8896.0,-1792.0 L-8885.2,-1803.0 L-8684.7,-1612.4 L-8417.1,-1898.0 L-8323.6,-1808.6 L-8320.0,-1809.7 L-8318.6,-1808.1 L-8312.3,-1812.1 L-8307.1,-1814.0 L-8301.6,-1816.5 L-8292.2,-1821.4 L-8286.4,-1824.7 L-8279.5,-1828.7 L-8273.1,-1832.7 L-8267.9,-1836.1 L-8263.1,-1839.2 L-8257.5,-1843.3 L-8251.1,-1848.0 L-8246.2,-1852.1 L-8241.0,-1856.7 L-8235.3,-1862.1 L-8229.9,-1867.5 L-8217.3,-1880.9 L-8209.7,-1890.0 L-8202.3,-1899.9 L-8197.2,-1907.1 L-8192.4,-1914.5 L-8186.7,-1924.8 L-8181.7,-1934.9 L-8177.7,-1943.2 L-8174.3,-1951.5 L-8172.2,-1957.0 L-8169.9,-1963.2 L-8164.5,-1969.9 L-8335.5,-2132.6 L-8333.4,-2134.9 L-8312.9,-2156.9 L-8298.0,-2172.7 L-8296.5,-2174.3 L-8253.1,-2133.7 L-8242.6,-2139.1 L-8241.4,-2137.6 L-8139.4,-2190.7 L-8135.2,-2192.9 L-8132.3,-2195.2 L-8129.6,-2197.7 L-8126.5,-2200.9 L-8123.5,-2205.4 L-8120.9,-2209.6 L-8119.2,-2212.8 L-8118.0,-2216.9 L-8116.9,-2221.4 L-8116.4,-2226.3 L-8116.4,-2231.8 L-8116.8,-2236.2 L-8117.6,-2240.1 L-8118.9,-2244.8 L-8150.8,-2336.6 L-8155.1,-2351.7 L-8154.0,-2356.9 L-8231.0,-2376.0 L-8227.4,-2389.3 L-8224.4,-2401.3 L-8201.6,-2491.5 L-8219.3,-2544.1 L-8229.7,-2578.1 L-8232.7,-2586.6 L-8205.1,-2611.9 L-8174.0,-2628.6 L-8172.1,-2626.0 L-8169.1,-2621.7 L-8162.1,-2612.6 L-8161.3,-2613.4 L-8161.1,-2616.5 L-8170.8,-2629.9 L-8153.5,-2642.3 L-8149.7,-2644.5 L-8140.7,-2632.8 L-8139.2,-2631.7 L-8137.7,-2631.4 L-8136.9,-2631.6 L-8136.9,-2632.4 L-8179.7,-2691.0 L-8182.8,-2694.4 L-8186.4,-2699.3 L-8205.0,-2721.8 L-8189.1,-2771.1 L-8176.9,-2783.8 L-8162.8,-2790.4 L-8132.8,-2808.2 L-8126.6,-2814.6 L-8099.7,-2838.2 L-8091.2,-2829.3 L-8066.3,-2802.4 L-8043.2,-2821.8 L-8027.7,-2806.9 L-8013.8,-2793.3 L-8013.1,-2792.6 L-8001.3,-2802.7 L-7985.7,-2786.1 L-7972.3,-2768.9 L-7962.4,-2757.4 L-7961.1,-2755.9 L-7932.3,-2781.2 L-7930.8,-2782.5 L-7937.6,-2790.8 L-7921.9,-2803.7 L-7874.3,-2748.2 L-7833.8,-2774.9 L-7829.8,-2778.7 L-7812.2,-2786.1 L-7808.2,-2790.0 L-7804.4,-2795.0 L-7782.7,-2814.3 L-7787.6,-2821.0 L-7826.4,-2812.1 L-7870.8,-2862.6 L-7865.7,-2867.0 L-7859.0,-2859.2 L-7827.6,-2886.2 L-7794.3,-2849.8 L-7785.3,-2846.2 L-7779.9,-2843.1 L-7773.1,-2835.4 L-7769.4,-2838.7 L-7793.5,-2866.1 L-7778.7,-2878.9 L-7748.8,-2843.0 L-7745.0,-2845.8 L-7745.4,-2846.6 L-7679.8,-2894.0 L-7660.3,-2908.4 L-7724.0,-2988.0 L-7710.4,-2997.5 L-7655.0,-2932.6 L-7614.1,-2925.1 L-7587.1,-2940.9 L-7583.3,-2943.3 L-7583.5,-2946.3 L-7585.4,-2949.8 L-7564.3,-2963.1 L-7558.1,-2956.9 L-7540.3,-2967.4 L-7553.2,-2983.4 L-7615.5,-3066.7 L-7571.5,-3112.3 L-7542.6,-3155.0 L-7541.9,-3188.4 L-7557.3,-3232.8 L-7524.9,-3259.8 L-7490.9,-3272.9 L-7479.7,-3275.5 L-7470.7,-3276.7 L-7459.7,-3276.0 L-7448.3,-3273.2 L-7431.8,-3259.1 L-7389.0,-3206.9 L-7354.8,-3163.5 L-7313.9,-3136.2 L-7297.8,-3133.6 L-7283.4,-3131.9 L-7271.2,-3131.4 L-7255.6,-3132.5 L-7238.7,-3135.3 L-7225.0,-3139.2 L-7213.4,-3144.6 L-7205.7,-3149.1 L-7200.0,-3155.1 L-7190.4,-3166.7 L-7180.0,-3185.7 L-7168.7,-3210.9 L-7148.6,-3200.6 L-7140.6,-3197.9 L-7132.0,-3196.7 L-7118.3,-3197.6 L-7109.2,-3200.3 L-7098.8,-3204.8 L-7089.1,-3210.4 L-7078.8,-3220.4 L-7070.0,-3228.4 L-7059.0,-3235.9 L-7051.4,-3240.8 L-7040.2,-3244.8 L-7020.9,-3250.4 L-7009.5,-3253.6 L-6997.3,-3258.2 L-6986.7,-3263.7 L-6980.4,-3267.3 L-6975.4,-3272.5 L-6910.0,-3305.3 L-6907.5,-3306.7 L-6904.6,-3308.5 L-6901.6,-3310.8 L-6897.2,-3313.3 L-6894.3,-3314.7 L-6891.2,-3317.4 L-6888.8,-3319.9 L-6885.6,-3322.0 L-6882.2,-3324.4 L-6877.7,-3328.6 L-6871.3,-3329.1 L-6864.7,-3329.9 L-6860.4,-3331.3 L-6854.8,-3333.9 L-6847.9,-3337.0 L-6840.6,-3341.5 L-6836.5,-3345.4 L-6831.9,-3350.7 L-6829.0,-3355.6 L-6827.4,-3360.1 L-6827.3,-3363.3 L-6827.2,-3365.9 L-6825.6,-3376.3 L-6789.2,-3397.4 L-6725.4,-3434.2 L-6713.0,-3441.3 L-6604.8,-3503.7 L-6487.6,-3571.0 L-6437.7,-3599.6 L-6420.4,-3609.3 L-6275.5,-3693.5 L-6243.3,-3711.2 L-6243.8,-3712.3 L-6177.5,-3749.8 L-6152.0,-3764.1 L-6105.0,-3790.1 L-6104.5,-3789.4 L-6086.3,-3799.4 L-6042.1,-3824.1 L-6036.8,-3828.9 L-5992.0,-3861.7 L-5969.7,-3880.2 L-5949.2,-3897.5 L-5939.8,-3902.8 L-5918.6,-3923.8 L-5916.8,-3922.7 L-5914.0,-3923.0 L-5912.6,-3922.1 L-5882.8,-3957.0 L-5890.3,-3964.0 L-5889.3,-3965.8 L-5886.1,-3970.4 L-5877.5,-3981.3 L-5872.3,-3989.2 L-5868.2,-3995.7 L-5862.5,-4004.4 L-5857.0,-4013.4 L-5850.8,-4023.7 L-5844.4,-4034.9 L-5830.5,-4063.6 L-5826.2,-4072.7 L-5822.7,-4080.0 L-5820.3,-4085.5 L-5818.2,-4089.7 L-5813.8,-4100.7 L-5929.6,-4316.7 L-5931.8,-4320.8 L-5933.5,-4323.1 L-5934.7,-4324.8 L-5936.3,-4326.2 L-5937.8,-4327.2 L-5939.8,-4328.4 L-5941.9,-4329.2 L-5943.7,-4329.6 L-5945.5,-4329.8 L-5948.2,-4329.8 L-5951.3,-4329.3 L-5954.0,-4328.5 L-5956.8,-4327.1 L-5983.7,-4311.6 L-6018.8,-4291.5 L-6043.3,-4277.9 L-6088.0,-4253.3 L-6115.4,-4238.4 L-6114.4,-4236.7 L-6126.1,-4230.0 L-6164.4,-4210.2 L-6192.8,-4193.4 L-6209.5,-4184.1 L-6234.9,-4169.5 L-6237.8,-4167.5 L-6260.1,-4207.6 L-6216.3,-4231.6 L-6156.5,-4264.1 L-6115.8,-4286.7 L-6110.8,-4289.6 L-6111.5,-4290.7 L-6076.3,-4309.9 L-6057.6,-4320.2 L-6014.7,-4341.1 L-6006.5,-4345.3 L-5941.8,-4381.3 L-5917.5,-4394.7 L-5900.4,-4403.9 L-5880.2,-4415.5 L-5852.2,-4364.9 L-5896.2,-4340.8 L-5898.5,-4337.1 L-5899.4,-4333.2 L-5899.8,-4330.2 L-5899.9,-4327.6 L-5899.7,-4325.5 L-5898.9,-4322.6 L-5809.2,-4156.7 L-5807.5,-4154.2 L-5805.5,-4152.3 L-5803.5,-4151.0 L-5801.4,-4150.3 L-5799.1,-4150.0 L-5796.9,-4150.2 L-5795.2,-4150.7 L-5755.4,-4180.9 L-5736.7,-4196.6 L-5717.4,-4212.9 L-5710.1,-4219.6 L-5686.2,-4239.2 L-5685.1,-4239.2 L-5661.9,-4259.0 L-5661.8,-4260.2 L-5646.6,-4272.7 L-5634.6,-4282.5 L-5614.0,-4299.5 L-5612.1,-4297.2 L-5591.9,-4313.9 L-5581.7,-4322.4 L-5553.4,-4345.9 L-5533.7,-4362.3 L-5535.6,-4365.1 L-5529.1,-4370.6 L-5518.4,-4379.4 L-5511.8,-4385.2 L-5483.9,-4397.7 L-5465.0,-4404.3 L-5455.3,-4408.9 L-5428.1,-4409.1 L-5418.6,-4409.1 L-5398.5,-4408.1 L-5375.0,-4407.1 L-5373.3,-4408.7 L-5371.0,-4405.7 L-5363.6,-4405.3 L-5296.3,-4399.5 L-5288.4,-4397.8 L-5281.5,-4396.7 L-5265.9,-4395.4 L-5236.8,-4394.0 L-5230.4,-4393.9 L-5224.4,-4394.1 L-5201.1,-4395.0 L-5189.1,-4395.6 L-5177.2,-4396.7 L-5158.9,-4398.6 L-5159.0,-4397.5 L-5144.5,-4400.0 L-5130.8,-4402.6 L-5120.3,-4404.5 L-5106.5,-4414.9 L-5104.9,-4412.7 L-5103.2,-4410.3 L-4981.6,-4249.5 L-4688.1,-4148.3 L-4149.5,-4543.9 L-4002.7,-4649.6 L-3946.0,-4770.6 L-4036.2,-4888.8 L-4032.2,-4905.7 L-4016.4,-4910.0 L-3986.0,-4903.7 L-3964.4,-4911.8 L-3958.4,-4920.2 L-3959.7,-4927.5 L-3975.8,-4959.1 L-3976.9,-4970.9 L-3977.8,-4994.3 L-3980.6,-5016.9 L-3977.8,-5020.9 L-3968.7,-5025.3 L-3957.6,-5027.8 L-3949.6,-5036.4 L-3947.8,-5046.8 L-3954.6,-5066.9 L-3955.3,-5080.8 L-3953.1,-5096.6 L-3942.1,-5124.3 L-3944.4,-5137.1 L-3949.9,-5151.4 L-3950.1,-5170.8 L-3953.3,-5196.4 L-3959.1,-5212.4 L-3962.7,-5220.8 L-3960.3,-5224.5 L-3958.0,-5224.3 L-3957.4,-5225.8 L-3957.1,-5227.8 L-3957.2,-5229.8 L-3960.7,-5230.2 L-3962.9,-5233.3 L-3962.5,-5237.0 L-3965.5,-5237.8 L-3969.2,-5237.9 L-3969.7,-5237.0 L-3977.3,-5246.0 L-3978.9,-5248.8 L-3980.2,-5252.7 L-3981.1,-5256.5 L-3981.8,-5260.5 L-3982.1,-5264.5 L-3982.3,-5268.1 L-3982.3,-5271.8 L-3982.0,-5273.8 L-3980.4,-5278.8 L-3978.6,-5282.8 L-3976.3,-5286.7 L-3972.9,-5291.6 L-3969.4,-5296.3 L-3966.1,-5299.7 L-3962.0,-5302.8 L-3961.2,-5302.0 L-3926.1,-5328.8 L-3921.0,-5332.7 L-3922.0,-5334.2 L-3922.0,-5336.8 L-3913.3,-5343.6 L-3911.1,-5343.5 L-3909.0,-5342.0 L-3905.3,-5344.8 L-3869.3,-5372.1 L-3869.7,-5373.0 L-3865.5,-5376.1 L-3860.5,-5379.2 L-3857.0,-5380.8 L-3852.0,-5382.7 L-3847.7,-5383.9 L-3843.4,-5384.5 L-3838.7,-5384.9 L-3835.9,-5384.7 L-3832.0,-5384.1 L-3828.2,-5382.8 L-3825.4,-5381.4 L-3822.7,-5379.8 L-3820.7,-5378.3 L-3819.0,-5376.7 L-3816.5,-5374.3 L-3815.4,-5373.9 L-3813.6,-5373.9 L-3811.8,-5374.2 L-3806.3,-5378.1 L-3806.3,-5379.2 L-3805.7,-5380.0 L-3805.1,-5381.1 L-3805.2,-5382.4 L-3805.5,-5383.5 L-3806.3,-5384.5 L-3810.2,-5388.4 L-3813.3,-5390.9 L-3816.9,-5392.9 L-3822.8,-5395.5 L-3827.9,-5397.5 L-3819.0,-5402.1 L-3808.1,-5409.7 L-3794.6,-5411.4 L-3781.1,-5410.5 L-3772.3,-5414.0 L-3764.6,-5425.0 L-3735.6,-5476.9 L-3723.8,-5498.3 L-3714.5,-5521.1 L-3712.9,-5525.9 L-3699.1,-5568.2 L-3696.9,-5572.3 L-3694.3,-5576.4 L-3661.9,-5616.5 L-3655.0,-5623.7 L-3649.9,-5628.1 L-3577.3,-5690.3 L-3573.3,-5693.0 L-3560.9,-5699.8 L-3546.0,-5708.2 L-3499.6,-5732.5 L-3398.5,-5786.8 L-3396.1,-5784.9 L-3394.2,-5784.2 L-3392.5,-5783.7 L-3390.7,-5784.0 L-3388.8,-5784.4 L-3383.4,-5785.5 L-3377.1,-5786.9 L-3371.4,-5788.2 L-3365.5,-5789.3 L-3362.3,-5790.0 L-3357.9,-5791.3 L-3352.9,-5793.4 L-3340.8,-5800.0 L-3336.4,-5802.4 L-3334.1,-5803.8 L-3331.8,-5804.8 L-3322.4,-5808.8 L-3312.1,-5812.8 L-3299.1,-5818.4 L-3283.8,-5824.7 L-3283.2,-5825.0 L-3281.9,-5825.1 L-3280.2,-5825.6 L-3277.8,-5827.4 L-3275.1,-5828.4 L-3272.1,-5829.9 L-3266.5,-5833.1 L-3264.5,-5835.1 L-3261.2,-5837.2 L-3261.5,-5837.8 L-3260.1,-5839.5 L-3258.3,-5841.4 L-3255.3,-5842.9 L-3252.8,-5843.9 L-3250.1,-5844.9 L-3247.6,-5846.2 L-3242.7,-5849.3 L-3241.3,-5850.7 L-3239.9,-5852.9 L-3239.3,-5854.5 L-3239.1,-5856.1 L-3239.3,-5857.6 L-3239.0,-5859.1 L-3253.0,-5876.0 L-3208.9,-5901.9 L-3188.0,-5913.0 L-3183.9,-5914.3 L-3177.5,-5913.1 L-3170.4,-5903.2 L-3167.2,-5900.4 L-3164.3,-5899.0 L-3161.6,-5898.4 L-3159.1,-5898.5 L-3121.3,-5914.1 L-3111.0,-5919.1 L-3101.4,-5924.4 L-3085.9,-5932.6 L-3082.7,-5933.7 L-2867.9,-6023.0 L-2800.7,-6055.3 L-2500.2,-6199.6 L4512.9,-6257.6 L4512.9,3778.0 L-10474.8,3778.0 L-10474.8,3351.5 Z" fill="#add7e1" stroke="none"><title>Biscayne Bay</title></path><path d="M-1.0,-1.0 L257.0,-1.0 L257.0,257.0 L-1.0,257.0 L-1.0,-1.0 Z" fill="#add7e1" stroke="none" fill-rule="evenodd"><title>Biscayne Bay</title></path><path d="M1108.6,-3647.6 L-2001.0,9724.9" fill="none" stroke="#6fb5c7" stroke-width="1.7" stroke-dasharray="5 7" opacity="0.34" stroke-linecap="round" stroke-linejoin="round"><title>Atlantic Intracoastal Waterway</title></path></svg>