<svg xmlns="http://www.w3.org/2000/svg" width="256" height="256" viewBox="0 0 256 256"><rect width="256" height="256" fill="#f1efe7"/><path d="M-3082.7,-7469.7 L-2867.9,-7559.0 L-2800.7,-7591.3 L-2500.2,-7735.6 L-2443.8,-7681.0 L-2438.9,-7676.3 L-2333.5,-7766.5 L-2308.4,-7785.6 L-2266.5,-7823.4 L-2030.4,-8040.2 L-1839.9,-8257.8 L-1832.6,-8271.7 L-1825.6,-8279.6 L-1814.5,-8292.3 L-1803.2,-8305.2 L-1798.6,-8310.5 L-1873.7,-8407.6 L-1774.3,-8467.2 L-1720.4,-8395.5 L-1644.2,-8482.7 L-1708.7,-8568.1 L-1628.8,-8651.4 L-1567.3,-8570.4 L-1496.7,-8650.8 L-1466.6,-8670.5 L-1319.4,-8766.0 L-1246.7,-8814.3 L-1159.1,-8871.9 L-1117.7,-8899.1 L-1012.8,-8966.8 L-1039.8,-9002.3 L-1088.1,-9067.0 L-963.2,-9146.4 L-917.7,-9169.9 L-914.2,-9172.4 L-890.2,-9190.9 L-804.6,-9236.7 L-798.7,-9245.9 L-774.7,-9262.4 L-761.7,-9281.4 L-758.0,-9284.2 L-737.1,-9292.3 L-689.9,-9309.2 L-657.6,-9323.4 L-543.5,-9377.0 L-542.1,-9373.3 L-446.4,-9414.2 L-407.3,-9364.1 L-320.2,-9422.2 L-307.8,-9430.7 L-306.6,-9431.7 L-305.4,-9433.3 L-303.5,-9436.6 L-302.5,-9439.7 L-301.9,-9443.4 L-302.0,-9446.4 L-302.4,-9449.3 L-302.8,-9452.6 L-302.9,-9455.1 L-302.7,-9457.2 L-302.3,-9459.4 L-300.7,-9463.4 L-299.6,-9465.6 L-297.1,-9469.4 L-294.5,-9472.2 L-281.8,-9477.3 L-271.2,-9481.3 L-257.7,-9485.7 L-251.4,-9487.4 L-240.2,-9491.1 L-232.3,-9493.9 L-221.4,-9498.4 L-206.6,-9504.9 L-190.6,-9512.4 L-182.0,-9516.6 L-171.2,-9522.1 L-161.1,-9527.7 L-151.0,-9533.7 L-140.7,-9540.4 L-137.5,-9542.6 L-116.8,-9558.4 L-99.4,-9571.8 L-82.4,-9586.2 L-66.5,-9601.2 L-55.0,-9614.1 L-43.6,-9628.0 L-29.6,-9646.0 L-16.8,-9664.0 L-2.1,-9687.1 L7.5,-9705.0 L13.5,-9716.4 L22.4,-9735.7 L29.9,-9753.6 L36.6,-9772.9 L42.0,-9789.8 L47.9,-9817.2 L52.2,-9841.7 L54.5,-9862.7 L56.5,-9887.5 L56.7,-9914.0 L55.1,-9938.5 L50.9,-9970.5 L46.5,-9992.3 L41.5,-10012.9 L34.1,-10036.3 L27.8,-10054.2 L20.6,-10073.7 L13.8,-10089.9 L9.2,-10100.4 L7.3,-10108.1 L7.0,-10114.0 L7.6,-10119.3 L9.7,-10123.9 L12.9,-10127.8 L17.1,-10130.0 L21.6,-10130.6 L33.7,-10127.7 L67.4,-10119.6 L78.6,-10374.3 L122.3,-10828.9 L74.8,-10840.1 L69.6,-10854.4 L69.8,-10874.9 L76.4,-10921.4 L85.4,-10931.9 L93.4,-10962.1 L143.9,-10950.4 L171.7,-11240.9 L179.4,-11321.3 L163.7,-11325.2 L173.2,-11363.6 L140.9,-11371.3 L145.0,-11394.8 L150.7,-11410.3 L157.8,-11428.4 L169.8,-11453.7 L182.7,-11450.8 L200.1,-11633.5 L204.2,-11744.3 L205.0,-11764.7 L214.4,-11835.2 L233.1,-12010.9 L357.9,-12336.3 L386.4,-12425.0 L733.1,-12558.0 L767.0,-12571.6 L772.9,-12574.8 L777.5,-12579.0 L782.6,-12584.9 L786.5,-12591.8 L789.1,-12598.6 L789.7,-12608.5 L789.2,-12620.8 L784.6,-12776.3 L782.9,-12806.4 L782.4,-12827.1 L781.7,-12867.3 L780.9,-12879.9 L779.4,-12890.5 L777.3,-12899.9 L774.2,-12909.5 L769.3,-12920.8 L762.1,-12932.9 L755.1,-12942.5 L749.7,-12951.6 L744.2,-12963.7 L739.6,-12975.3 L737.8,-12984.8 L736.4,-12995.3 L735.7,-13005.8 L736.0,-13016.0 L737.2,-13027.9 L740.0,-13039.6 L743.7,-13050.0 L747.6,-13059.5 L752.6,-13068.7 L758.7,-13079.9 L762.7,-13090.0 L766.2,-13102.9 L772.6,-13112.7 L770.4,-13201.9 L767.1,-13207.1 L766.1,-13267.7 L764.4,-13339.2 L765.6,-13349.1 L768.8,-13359.2 L776.8,-13375.0 L830.3,-13490.1 L831.4,-13492.0 L840.8,-13512.5 L849.7,-13531.9 L859.7,-13551.9 L869.5,-13572.5 L874.3,-13582.5 L926.9,-13690.4 L983.1,-13809.6 L1104.7,-14056.4 L1031.6,-14138.3 L972.0,-14011.3 L920.5,-13901.4 L912.7,-13885.8 L896.8,-13853.3 L865.0,-13856.0 L856.3,-13856.5 L853.2,-13853.7 L857.4,-13849.9 L841.1,-13835.4 L828.2,-13823.5 L825.8,-13772.6 L821.0,-13762.4 L805.4,-13763.0 L802.8,-13763.9 L598.4,-13848.3 L594.0,-13850.6 L589.3,-13853.6 L581.9,-13859.2 L576.2,-13864.6 L571.4,-13869.8 L566.7,-13876.2 L563.1,-13881.8 L560.3,-13887.6 L558.1,-13893.7 L556.6,-13897.9 L555.5,-13903.0 L554.7,-13909.0 L553.9,-13917.2 L553.9,-13928.9 L552.5,-13968.6 L558.1,-13968.9 L557.3,-13989.9 L556.4,-14024.5 L561.6,-14024.6 L561.2,-14048.2 L555.3,-14048.1 L552.6,-14147.5 L558.2,-14147.8 L557.3,-14171.1 L551.9,-14170.9 L549.6,-14244.4 L576.6,-14273.5 L611.1,-14274.7 L636.8,-14275.6 L670.7,-14276.7 L703.3,-14277.7 L732.5,-14278.7 L745.2,-14279.3 L744.6,-14290.6 L744.4,-14302.4 L742.5,-14340.7 L741.8,-14413.8 L740.8,-14415.1 L740.6,-14422.3 L742.7,-14422.4 L737.6,-14598.5 L733.2,-14764.2 L732.5,-14769.4 L732.1,-14779.0 L659.9,-14776.4 L611.9,-14780.5 L252.6,-14768.0 L252.5,-14771.2 L251.8,-14786.5 L81.4,-14780.5 L81.1,-14808.8 L58.6,-14813.9 L54.6,-14935.0 L717.4,-14958.0 L728.4,-14973.1 L728.0,-15016.1 L727.2,-15053.3 L726.6,-15076.6 L725.7,-15099.3 L673.0,-15124.1 L670.9,-15179.2 L724.9,-15206.0 L720.0,-15333.5 L718.6,-15339.8 L664.9,-15364.9 L663.2,-15433.1 L714.2,-15459.4 L691.5,-15736.3 L697.5,-15859.5 L700.5,-16060.4 L700.3,-16278.9 L705.1,-16309.5 L705.4,-16324.3 L700.6,-16342.1 L705.6,-16342.1 L705.6,-16358.2 L708.6,-16769.2 L708.1,-16787.5 L702.4,-16787.5 L702.6,-16863.1 L699.3,-16867.8 L694.1,-16945.8 L704.4,-17017.1 L703.1,-17103.4 L699.6,-17124.1 L704.9,-17188.0 L701.3,-17265.3 L692.3,-17348.0 L675.2,-17482.0 L683.3,-17518.9 L679.7,-17554.8 L649.1,-17580.9 L604.2,-17580.5 L535.8,-17571.5 L491.3,-17571.5 L450.9,-17586.3 L397.8,-17622.7 L397.8,-17688.0 L396.4,-17768.3 L401.6,-17835.2 L419.2,-17887.4 L713.9,-17892.9 L720.7,-18310.8 L720.7,-18912.4 L717.6,-19130.7 L16629.8,-25702.4 L16629.8,10515.8 L-3082.7,10515.8 L-3082.7,-7469.7 Z" fill="#add7e1" stroke="none"><title>Biscayne Bay</title></path><path d="M-10474.8,1815.5 L-11019.0,1413.8 L-11062.5,1381.8 L-11109.7,1371.5 L-11143.0,1343.5 L-11169.6,1340.4 L-11255.6,1346.1 L-11255.5,1338.0 L-11260.3,1330.4 L-11269.9,1324.5 L-11456.7,1243.6 L-11469.4,1237.8 L-11480.5,1234.6 L-11494.3,1233.5 L-11508.2,1233.2 L-11554.6,1233.2 L-11566.9,1232.5 L-11579.0,1230.1 L-11591.8,1225.1 L-11607.2,1221.0 L-11618.4,1220.0 L-11651.3,1218.6 L-11662.3,1216.6 L-11676.3,1212.1 L-11690.0,1208.6 L-11703.3,1205.5 L-11713.7,1201.3 L-11726.3,1193.5 L-11737.5,1185.1 L-11748.4,1176.9 L-11757.3,1172.7 L-11764.1,1171.3 L-11770.2,1171.7 L-11776.7,1173.5 L-11784.3,1177.4 L-11790.3,1184.0 L-11798.4,1191.9 L-11807.4,1200.2 L-11817.6,1205.8 L-11830.5,1210.0 L-11841.2,1212.6 L-11854.1,1214.6 L-11875.7,1217.1 L-11929.9,1219.7 L-11975.9,1222.0 L-11995.7,1229.1 L-12036.3,1230.5 L-12041.8,1222.0 L-12047.9,1218.1 L-12054.2,1216.9 L-12098.0,1219.4 L-12117.0,1226.2 L-12140.3,1226.4 L-12156.0,1224.1 L-12168.9,1220.2 L-12216.0,1223.0 L-12340.6,1232.7 L-12369.3,1233.5 L-12379.1,1233.3 L-12387.9,1231.1 L-12398.1,1226.0 L-12405.6,1220.0 L-12438.0,1220.1 L-12465.1,1219.7 L-12472.4,1224.2 L-12509.7,1225.1 L-12514.5,1233.0 L-12519.8,1233.2 L-12529.0,1231.0 L-12545.5,1229.0 L-12562.5,1229.9 L-12567.7,1231.5 L-12573.0,1230.6 L-12576.6,1227.1 L-12582.7,1223.6 L-12605.4,1223.7 L-12628.3,1224.9 L-12650.0,1237.7 L-12660.7,1242.8 L-12672.9,1245.5 L-12683.0,1246.2 L-12692.1,1244.8 L-12713.1,1235.8 L-12725.1,1232.0 L-12735.3,1230.5 L-12780.0,1231.1 L-12782.8,1225.7 L-12822.3,1226.6 L-12849.5,1231.6 L-12867.4,1233.7 L-12877.0,1235.8 L-12880.7,1233.3 L-12887.5,1232.4 L-12951.2,1226.6 L-12956.7,1229.6 L-12963.4,1231.0 L-12972.2,1231.1 L-12972.2,1227.9 L-13011.7,1220.5 L-13036.6,1215.7 L-13096.8,1195.5 L-13100.1,1200.0 L-13140.3,1187.6 L-13148.7,1184.8 L-13144.6,1170.8 L-13149.4,1169.3 L-13150.4,1167.8 L-13153.0,1167.0 L-13156.6,1166.5 L-13161.0,1164.3 L-13159.5,1163.0 L-13177.3,1148.5 L-13206.9,1121.7 L-13222.8,1107.7 L-13234.1,1095.4 L-13240.4,1087.1 L-13249.8,1074.3 L-13255.2,1064.4 L-13272.0,1043.3 L-13273.6,1042.1 L-13274.7,1042.0 L-13275.9,1042.2 L-13278.1,1042.3 L-13280.1,1041.3 L-13284.3,1038.6 L-13292.9,1034.1 L-13297.1,1030.5 L-13302.0,1026.2 L-13308.7,1022.6 L-13319.2,1019.3 L-13330.3,1017.3 L-13339.8,1017.1 L-13337.1,991.9 L-13334.9,959.0 L-13324.6,960.0 L-13314.3,961.8 L-13300.8,965.8 L-13290.9,969.5 L-13282.0,973.6 L-13273.4,977.6 L-13265.3,982.2 L-13258.7,987.3 L-13249.9,994.1 L-13240.7,1001.0 L-13238.6,1002.3 L-13236.7,1002.7 L-13211.5,1001.6 L-13211.2,1007.3 L-13212.7,1009.8 L-13231.6,1011.6 L-13226.8,1021.4 L-13223.5,1020.2 L-13220.5,1023.2 L-13218.6,1026.1 L-13217.0,1028.3 L-13213.1,1033.5 L-13211.6,1039.2 L-13205.5,1047.6 L-13191.1,1056.7 L-13173.2,1065.8 L-13151.8,1079.3 L-13142.0,1083.9 L-13121.4,1095.6 L-13111.7,1100.7 L-13094.0,1107.2 L-13059.2,1116.5 L-13038.8,1121.4 L-13020.2,1123.3 L-13010.3,1124.6 L-13008.1,1124.4 L-13007.2,1123.1 L-13006.9,1116.5 L-12983.8,1116.5 L-12983.3,1123.9 L-12934.9,1126.4 L-12887.7,1127.8 L-12855.6,1126.6 L-12845.0,1125.8 L-12837.3,1124.8 L-12831.0,1123.0 L-12825.2,1119.5 L-12822.3,1114.8 L-12823.4,1037.3 L-12803.9,1036.2 L-12802.2,1111.8 L-12801.1,1113.7 L-12797.2,1116.4 L-12792.7,1117.7 L-12689.3,1117.9 L-12689.8,1084.6 L-12681.7,1084.4 L-12678.3,1117.9 L-12614.5,1117.3 L-12614.5,1113.7 L-12608.2,1113.6 L-12608.0,1116.2 L-12182.5,1108.1 L-12151.7,1104.5 L-12114.1,1103.4 L-12078.5,1108.1 L-12066.6,1107.1 L-12057.9,1105.4 L-12049.8,1102.5 L-12039.3,1098.5 L-11825.4,1094.7 L-11825.5,1079.9 L-11705.8,1077.8 L-11705.7,1094.1 L-11654.9,1095.9 L-11651.0,1095.8 L-11647.4,1095.5 L-11642.7,1094.9 L-11638.9,1093.9 L-11635.2,1092.7 L-11628.9,1089.7 L-11626.0,1094.7 L-11619.8,1090.8 L-11614.1,1086.2 L-11609.3,1081.2 L-11605.1,1075.3 L-11601.2,1068.0 L-11608.5,1063.9 L-11606.5,1057.8 L-11605.2,1051.5 L-11604.5,1045.5 L-11604.4,1040.8 L-11604.6,1036.4 L-11605.3,998.5 L-11611.4,992.9 L-11606.2,987.4 L-11611.5,982.8 L-11605.5,975.7 L-11612.0,970.0 L-11606.8,964.5 L-11612.0,959.5 L-11605.9,953.0 L-11612.2,946.6 L-11599.1,932.2 L-11596.8,932.1 L-11602.5,717.6 L-11554.4,716.5 L-11552.1,717.7 L-11549.5,719.7 L-11547.6,721.4 L-11546.8,723.4 L-11546.1,725.8 L-11545.9,728.2 L-11541.8,1061.5 L-11539.9,1072.3 L-11537.2,1079.6 L-11533.0,1088.6 L-11528.1,1097.4 L-11523.0,1104.4 L-11518.9,1108.7 L-11514.5,1112.1 L-11509.4,1115.1 L-11504.1,1117.1 L-11496.9,1119.2 L-11488.0,1120.9 L-11477.2,1122.9 L-11464.6,1125.2 L-11452.6,1127.8 L-11439.3,1130.2 L-11426.7,1132.9 L-11422.7,1133.7 L-11417.8,1134.7 L-11413.0,1135.3 L-11408.8,1135.4 L-11404.0,1135.4 L-11400.3,1135.2 L-11396.6,1134.5 L-11393.4,1133.7 L-11390.0,1132.7 L-11387.1,1131.4 L-11381.3,1128.6 L-11376.2,1125.6 L-11371.1,1121.9 L-11365.2,1116.2 L-11359.7,1110.0 L-11356.7,1104.7 L-11354.0,1098.2 L-11352.6,1092.9 L-11351.8,1087.2 L-11351.3,1081.8 L-11351.3,1076.8 L-11358.6,719.6 L-11348.2,708.9 L-11344.4,708.5 L-11342.9,707.1 L-11321.2,706.5 L-11319.3,703.3 L-11316.0,704.2 L-11310.5,709.3 L-11306.7,714.6 L-11302.9,721.2 L-11295.7,1120.4 L-11295.0,1127.4 L-11293.7,1141.3 L-11292.4,1144.1 L-11293.4,1144.8 L-11291.6,1148.7 L-11289.3,1153.3 L-11287.3,1156.2 L-11284.9,1159.7 L-11281.6,1163.5 L-11277.7,1167.5 L-11273.0,1171.5 L-11268.8,1174.6 L-11264.2,1177.1 L-11259.8,1179.3 L-11255.1,1180.8 L-11254.5,1179.4 L-11188.3,1203.4 L-11180.0,1206.5 L-11176.2,1207.9 L-11170.3,1210.0 L-11166.0,1211.0 L-11162.3,1211.5 L-11158.9,1211.5 L-11154.1,1211.1 L-11148.9,1210.6 L-11144.3,1209.6 L-11139.6,1208.3 L-11136.1,1206.9 L-11132.4,1205.2 L-11129.4,1203.3 L-11125.6,1200.5 L-11120.8,1196.3 L-11116.4,1192.0 L-11111.6,1186.0 L-11108.2,1180.4 L-11105.4,1174.2 L-11103.4,1167.3 L-11102.2,1160.3 L-11101.5,1147.8 L-11101.8,1122.3 L-11109.1,716.2 L-11109.1,711.7 L-11108.3,708.5 L-11106.9,705.9 L-11104.0,703.5 L-11100.7,701.8 L-11097.0,701.2 L-11066.9,700.2 L-11063.3,700.8 L-11060.1,702.2 L-11057.8,704.4 L-11055.2,708.2 L-11053.7,713.6 L-11052.8,720.9 L-11045.3,1241.8 L-11044.9,1244.9 L-11044.3,1248.0 L-11043.4,1251.2 L-11042.3,1254.7 L-11041.1,1258.2 L-11039.7,1261.4 L-11038.5,1264.1 L-11037.2,1266.5 L-11035.3,1269.5 L-11033.2,1272.1 L-11031.3,1274.5 L-11028.4,1277.6 L-11025.6,1280.3 L-11022.5,1282.8 L-11019.2,1285.3 L-11010.0,1291.1 L-11009.1,1290.0 L-11001.0,1294.5 L-10991.4,1299.7 L-10985.9,1302.7 L-10979.8,1306.3 L-10973.5,1310.0 L-10967.0,1314.0 L-10959.7,1318.5 L-10952.5,1323.0 L-10945.3,1327.3 L-10939.3,1331.0 L-10932.6,1335.3 L-10925.5,1339.9 L-10918.7,1344.4 L-10912.4,1348.7 L-10913.1,1349.6 L-10904.3,1355.7 L-10895.2,1361.8 L-10892.4,1363.5 L-10889.3,1365.2 L-10884.9,1367.3 L-10880.8,1368.8 L-10876.4,1370.0 L-10872.5,1371.0 L-10867.9,1371.7 L-10862.8,1372.3 L-10858.4,1372.3 L-10854.7,1372.0 L-10851.5,1371.3 L-10847.4,1370.2 L-10843.3,1368.9 L-10839.5,1367.6 L-10836.0,1365.9 L-10832.4,1364.0 L-10828.9,1361.8 L-10825.3,1359.0 L-10822.1,1356.1 L-10819.0,1353.0 L-10816.1,1349.8 L-10813.1,1345.4 L-10810.6,1341.0 L-10808.2,1336.1 L-10806.8,1332.3 L-10805.7,1328.3 L-10804.9,1324.0 L-10804.5,1319.7 L-10804.8,1314.8 L-10864.1,747.1 L-10860.0,746.7 L-10863.3,718.3 L-10866.3,718.5 L-10868.7,705.4 L-10867.9,702.7 L-10865.4,698.7 L-10860.3,694.8 L-10853.6,694.0 L-10826.7,693.1 L-10822.2,694.0 L-10819.1,695.5 L-10815.8,698.1 L-10813.5,700.5 L-10811.9,703.0 L-10746.9,1339.9 L-10745.4,1345.4 L-10742.6,1352.2 L-10740.2,1356.6 L-10737.6,1361.3 L-10734.2,1365.9 L-10731.4,1369.1 L-10728.3,1372.3 L-10724.9,1375.0 L-10721.9,1377.1 L-10717.7,1379.8 L-10714.0,1381.7 L-10709.1,1383.8 L-10704.5,1385.2 L-10699.3,1386.3 L-10695.3,1386.9 L-10691.8,1387.0 L-10687.7,1387.1 L-10546.5,1384.2 L-10541.9,1383.6 L-10537.5,1381.5 L-10534.3,1378.6 L-10532.1,1374.2 L-10531.3,1370.2 L-10531.5,1366.2 L-10603.0,684.1 L-10666.0,601.9 L-10668.8,604.2 L-10723.6,527.7 L-10724.6,511.5 L-10726.3,508.1 L-10729.2,505.0 L-10732.9,499.8 L-10733.2,492.2 L-10739.7,489.7 L-10746.0,489.6 L-10754.5,493.8 L-10744.9,511.8 L-10757.0,517.6 L-10766.1,509.2 L-10773.9,504.4 L-10779.2,502.6 L-10792.2,502.1 L-10798.8,488.7 L-10757.3,471.7 L-10759.3,468.3 L-10768.1,456.5 L-10769.5,457.2 L-11078.4,52.7 L-11083.1,-14.0 L-11080.6,-14.6 L-11092.5,-136.9 L-11097.1,-148.2 L-11102.1,-160.9 L-11105.9,-170.7 L-11110.5,-183.2 L-11125.5,-225.3 L-11131.6,-222.6 L-11140.5,-256.7 L-11139.0,-257.0 L-11170.1,-341.3 L-11173.5,-488.7 L-11169.9,-488.7 L-11169.4,-501.6 L-11167.6,-514.3 L-11166.9,-519.0 L-11168.2,-522.8 L-11164.0,-542.9 L-11125.7,-610.7 L-11145.8,-622.9 L-11130.9,-647.6 L-11111.5,-636.2 L-11109.8,-638.8 L-11103.7,-635.7 L-11097.1,-633.1 L-11089.5,-630.7 L-11083.8,-629.5 L-11078.4,-629.3 L-11072.0,-630.4 L-11065.7,-632.5 L-11059.5,-634.9 L-11056.6,-638.0 L-11055.5,-642.1 L-11054.0,-647.0 L-11053.7,-649.0 L-11053.8,-651.5 L-11055.2,-655.4 L-11057.8,-659.1 L-11060.8,-661.2 L-11065.2,-665.4 L-11069.0,-669.4 L-11074.6,-673.0 L-11076.9,-678.7 L-11079.6,-684.4 L-11083.9,-691.1 L-11088.8,-696.9 L-11097.8,-703.3 L-11141.4,-725.9 L-11167.2,-738.7 L-11191.3,-751.7 L-11214.2,-764.4 L-11229.0,-774.0 L-11234.7,-775.5 L-11241.0,-773.6 L-11244.5,-769.3 L-11251.6,-751.6 L-11295.7,-771.4 L-11269.3,-813.1 L-11263.5,-815.8 L-11256.4,-817.2 L-11248.1,-815.4 L-11082.4,-718.5 L-11073.4,-715.8 L-11064.0,-713.5 L-11050.7,-713.2 L-11037.2,-715.6 L-11028.6,-719.1 L-11019.2,-726.7 L-11013.7,-732.0 L-11007.8,-740.3 L-11007.9,-741.4 L-11008.3,-742.4 L-11009.2,-743.2 L-11062.8,-776.3 L-11064.1,-776.7 L-11065.5,-776.8 L-11066.9,-776.7 L-11072.0,-774.5 L-11073.9,-774.3 L-11076.0,-774.5 L-11079.1,-775.0 L-11081.5,-775.7 L-11084.9,-777.4 L-11088.2,-779.3 L-11161.9,-824.3 L-11196.6,-848.7 L-11199.9,-849.2 L-11203.2,-849.1 L-11207.1,-849.0 L-11209.7,-849.4 L-11211.9,-850.4 L-11214.5,-852.4 L-11217.4,-854.7 L-11219.4,-857.5 L-11220.6,-860.3 L-11220.8,-862.4 L-11220.5,-865.1 L-11220.0,-867.4 L-11208.2,-887.2 L-11208.2,-888.1 L-11209.1,-888.8 L-11219.9,-896.4 L-11222.0,-899.5 L-11220.8,-901.4 L-11217.3,-900.9 L-11213.5,-899.8 L-11191.3,-886.1 L-11065.5,-805.8 L-11062.9,-804.3 L-11061.1,-802.4 L-11059.9,-800.2 L-11058.6,-795.6 L-11057.7,-792.0 L-11057.2,-788.9 L-11000.4,-754.8 L-10998.4,-753.9 L-10996.0,-753.7 L-10993.2,-754.1 L-10991.2,-754.8 L-10989.5,-755.6 L-10928.4,-854.5 L-10902.8,-892.1 L-10878.9,-919.0 L-10866.8,-912.3 L-10859.0,-924.9 L-10900.5,-949.7 L-10891.7,-964.1 L-10850.2,-939.1 L-10840.9,-954.3 L-10848.4,-962.7 L-10840.8,-971.4 L-10832.6,-962.0 L-10830.6,-963.5 L-10828.3,-965.1 L-10825.1,-966.9 L-10821.8,-968.5 L-10817.7,-970.0 L-10813.8,-971.1 L-10809.6,-971.8 L-10805.4,-972.1 L-10801.4,-972.0 L-10797.5,-971.4 L-10793.8,-970.5 L-10790.7,-969.6 L-10788.0,-968.4 L-10784.2,-966.6 L-10780.7,-964.4 L-10777.7,-962.3 L-10774.7,-959.6 L-10772.0,-957.0 L-10769.0,-953.1 L-10766.9,-949.6 L-10764.8,-945.1 L-10763.4,-940.6 L-10762.2,-934.4 L-10761.8,-929.0 L-10761.9,-925.9 L-10762.3,-922.7 L-10763.4,-917.9 L-10766.2,-911.3 L-10768.0,-907.0 L-10770.5,-901.9 L-10760.1,-896.7 L-10711.5,-954.7 L-10800.0,-1008.5 L-10795.5,-1018.1 L-10792.3,-1027.0 L-10792.1,-1030.8 L-10787.0,-1041.7 L-10776.5,-1051.4 L-10763.5,-1062.0 L-10748.0,-1071.9 L-10718.9,-1080.4 L-10668.7,-1085.4 L-10648.9,-1101.4 L-10644.8,-1102.1 L-10641.5,-1102.3 L-10636.8,-1100.5 L-10632.5,-1100.0 L-10604.6,-1083.1 L-10531.2,-1170.2 L-10800.2,-1341.2 L-10816.9,-1314.9 L-10853.2,-1337.9 L-10801.7,-1418.9 L-10765.5,-1396.5 L-10781.6,-1368.9 L-10507.9,-1196.4 L-10473.4,-1240.7 L-10449.0,-1269.7 L-10416.8,-1318.1 L-10399.0,-1342.5 L-10400.8,-1356.4 L-10400.3,-1356.8 L-10403.5,-1367.1 L-10405.6,-1373.5 L-10407.6,-1380.1 L-10410.0,-1385.8 L-10414.6,-1393.3 L-10419.2,-1400.6 L-10421.2,-1404.4 L-10422.7,-1408.2 L-10423.8,-1411.7 L-10424.2,-1414.8 L-10424.7,-1425.0 L-10542.9,-1533.5 L-10546.8,-1529.3 L-10550.1,-1532.1 L-10559.7,-1522.6 L-10566.0,-1531.0 L-10558.4,-1539.8 L-10566.0,-1549.5 L-10571.2,-1548.1 L-10576.6,-1547.9 L-10581.5,-1548.8 L-10585.8,-1550.6 L-10590.8,-1554.3 L-10597.0,-1560.4 L-10607.9,-1572.4 L-10611.2,-1577.5 L-10612.4,-1583.9 L-10611.6,-1591.5 L-10608.7,-1598.5 L-10606.2,-1603.3 L-10601.4,-1608.1 L-10596.1,-1611.7 L-10591.0,-1613.6 L-10587.2,-1614.2 L-10582.2,-1613.3 L-10577.1,-1611.5 L-10572.3,-1607.7 L-10561.2,-1597.7 L-10555.5,-1592.3 L-10550.3,-1586.6 L-10548.6,-1583.9 L-10547.4,-1581.0 L-10546.7,-1578.4 L-10546.2,-1574.8 L-10546.8,-1571.4 L-10547.8,-1568.2 L-10549.2,-1565.8 L-10549.6,-1564.7 L-10549.3,-1563.3 L-10548.5,-1561.9 L-10421.6,-1443.0 L-10417.2,-1440.0 L-10414.1,-1438.7 L-10409.7,-1439.7 L-10404.5,-1440.1 L-10397.9,-1437.3 L-10391.3,-1433.2 L-10378.4,-1425.9 L-10373.0,-1423.3 L-10368.1,-1428.1 L-10362.7,-1433.3 L-10359.1,-1437.4 L-10353.1,-1445.2 L-10349.7,-1449.9 L-10346.1,-1455.7 L-10343.8,-1460.8 L-10341.3,-1466.2 L-10339.0,-1471.9 L-10336.9,-1477.7 L-10335.7,-1482.6 L-10334.3,-1488.8 L-10333.7,-1492.5 L-10333.3,-1495.5 L-10332.6,-1500.8 L-10331.9,-1506.0 L-10331.6,-1509.4 L-10331.4,-1513.1 L-10331.4,-1517.4 L-10331.6,-1521.0 L-10332.3,-1526.0 L-10333.1,-1531.7 L-10333.9,-1537.0 L-10334.4,-1541.3 L-10335.0,-1544.5 L-10335.7,-1547.9 L-10336.5,-1551.3 L-10337.7,-1555.3 L-10339.1,-1559.3 L-10340.2,-1561.7 L-10341.4,-1564.1 L-10343.1,-1566.4 L-10345.4,-1569.7 L-10347.9,-1572.8 L-10350.6,-1575.4 L-10354.0,-1578.2 L-10357.5,-1580.4 L-10361.0,-1582.3 L-10364.2,-1583.5 L-10366.4,-1584.2 L-10368.9,-1584.5 L-10371.9,-1584.4 L-10374.7,-1583.8 L-10376.9,-1582.9 L-10379.0,-1581.4 L-10380.5,-1579.8 L-10381.7,-1578.3 L-10382.6,-1576.0 L-10383.1,-1573.5 L-10383.0,-1570.5 L-10382.8,-1567.0 L-10382.8,-1564.4 L-10383.0,-1561.8 L-10383.4,-1559.2 L-10383.9,-1556.9 L-10384.8,-1554.5 L-10386.2,-1551.9 L-10387.9,-1549.4 L-10389.6,-1547.1 L-10391.3,-1545.5 L-10394.7,-1542.8 L-10397.5,-1540.9 L-10401.9,-1539.6 L-10404.5,-1539.0 L-10407.5,-1538.6 L-10410.2,-1538.5 L-10413.8,-1538.7 L-10416.4,-1539.2 L-10420.0,-1540.0 L-10425.0,-1541.5 L-10429.2,-1543.1 L-10432.3,-1544.3 L-10435.6,-1546.1 L-10438.5,-1548.1 L-10441.7,-1550.6 L-10444.2,-1552.9 L-10446.3,-1555.0 L-10448.5,-1557.6 L-10450.3,-1560.0 L-10452.0,-1562.4 L-10453.5,-1565.1 L-10455.1,-1568.7 L-10456.5,-1572.0 L-10457.9,-1575.6 L-10458.8,-1578.4 L-10459.5,-1581.0 L-10460.0,-1583.7 L-10460.4,-1587.9 L-10460.7,-1591.6 L-10460.5,-1595.6 L-10459.6,-1600.9 L-10458.1,-1606.1 L-10456.2,-1611.5 L-10454.9,-1614.0 L-10453.6,-1615.5 L-10443.3,-1628.6 L-10440.9,-1631.3 L-10437.8,-1632.8 L-10434.5,-1634.0 L-10430.8,-1634.8 L-10426.7,-1635.3 L-10423.1,-1635.5 L-10419.5,-1635.4 L-10415.9,-1635.0 L-10411.8,-1633.8 L-10407.5,-1631.7 L-10403.8,-1629.4 L-10400.5,-1626.8 L-10390.1,-1617.2 L-10387.6,-1616.4 L-10386.2,-1616.1 L-10384.5,-1616.5 L-10383.4,-1616.9 L-10382.0,-1618.5 L-10381.4,-1620.1 L-10381.3,-1622.3 L-10381.2,-1624.3 L-10381.6,-1625.2 L-10402.6,-1646.0 L-10374.0,-1676.5 L-10375.6,-1680.1 L-10359.1,-1696.4 L-10327.3,-1664.6 L-10352.9,-1632.0 L-10353.1,-1630.1 L-10351.8,-1629.3 L-10350.2,-1629.7 L-10322.1,-1664.9 L-10313.9,-1674.8 L-10313.6,-1677.1 L-10314.3,-1679.1 L-10315.8,-1680.9 L-10337.8,-1701.7 L-10332.3,-1708.1 L-10337.9,-1712.8 L-10334.7,-1720.2 L-10277.7,-1777.5 L-10258.1,-1780.8 L-10252.0,-1781.7 L-10246.2,-1782.5 L-10243.5,-1783.2 L-10240.3,-1784.9 L-10236.5,-1787.0 L-10233.6,-1789.9 L-10230.8,-1793.4 L-10201.7,-1835.7 L-10201.1,-1836.8 L-10201.4,-1838.2 L-10201.8,-1839.2 L-10202.5,-1840.1 L-10206.0,-1842.3 L-10206.9,-1842.8 L-10207.7,-1842.7 L-10208.6,-1842.2 L-10210.5,-1840.8 L-10234.9,-1818.0 L-10244.4,-1811.2 L-10283.4,-1851.2 L-10278.9,-1865.4 L-10277.0,-1869.6 L-10270.9,-1880.8 L-10263.8,-1893.3 L-10259.5,-1898.1 L-10251.8,-1906.3 L-10243.6,-1915.3 L-10234.6,-1924.8 L-10226.9,-1931.4 L-10223.2,-1934.7 L-10218.3,-1938.3 L-10213.8,-1940.7 L-10207.4,-1943.6 L-10203.4,-1945.0 L-10199.4,-1946.2 L-10196.3,-1946.5 L-10191.9,-1946.2 L-10188.2,-1945.7 L-10184.0,-1944.5 L-10179.9,-1941.1 L-10177.4,-1937.6 L-10175.9,-1934.0 L-10175.3,-1928.6 L-10175.5,-1921.5 L-10176.4,-1913.5 L-10178.1,-1905.8 L-10188.4,-1882.8 L-10198.2,-1862.1 L-10194.8,-1856.6 L-10193.0,-1855.5 L-10191.1,-1855.5 L-10189.4,-1855.9 L-10188.1,-1856.7 L-10181.4,-1866.2 L-10172.8,-1870.5 L-10155.7,-1916.2 L-10154.5,-1918.5 L-10152.8,-1920.5 L-10151.1,-1921.4 L-10149.5,-1921.8 L-10147.2,-1921.8 L-10144.8,-1921.2 L-10132.3,-1917.7 L-10129.9,-1917.2 L-10127.1,-1917.1 L-10124.5,-1917.5 L-10122.4,-1918.4 L-10120.6,-1919.8 L-10118.8,-1922.1 L-10097.8,-1950.2 L-10096.8,-1952.3 L-10096.3,-1954.5 L-10096.3,-1956.6 L-10096.7,-1958.8 L-10097.5,-1960.4 L-10098.7,-1962.0 L-10100.1,-1963.3 L-10102.1,-1964.3 L-10104.0,-1964.8 L-10105.9,-1964.9 L-10107.5,-1964.6 L-10109.4,-1963.7 L-10110.8,-1962.7 L-10111.9,-1961.3 L-10117.4,-1952.4 L-10118.6,-1950.7 L-10120.0,-1949.1 L-10122.1,-1947.3 L-10124.0,-1946.2 L-10126.3,-1945.5 L-10129.1,-1944.9 L-10130.7,-1944.9 L-10132.9,-1945.2 L-10134.8,-1945.7 L-10136.4,-1946.4 L-10153.6,-1962.0 L-10155.6,-1964.4 L-10157.1,-1966.6 L-10158.5,-1969.3 L-10159.4,-1971.6 L-10160.0,-1974.0 L-10160.5,-1976.6 L-10160.8,-1979.8 L-10160.9,-1983.0 L-10160.6,-1985.7 L-10160.2,-1988.0 L-10159.7,-1990.0 L-10158.9,-1991.7 L-10127.6,-2041.4 L-10125.6,-2044.7 L-10124.4,-2046.4 L-10123.0,-2047.2 L-10120.7,-2048.2 L-10118.3,-2048.9 L-10116.0,-2049.3 L-10114.7,-2049.3 L-10113.4,-2049.1 L-10112.3,-2048.7 L-10110.7,-2047.9 L-10108.8,-2046.7 L-10105.6,-2044.1 L-10091.3,-2030.7 L-10088.9,-2027.3 L-10087.5,-2024.0 L-10086.2,-2020.1 L-10085.8,-2017.1 L-10085.6,-2013.9 L-10085.6,-2011.2 L-10085.9,-2008.5 L-10086.4,-2005.8 L-10087.0,-2004.0 L-10088.6,-2000.3 L-10094.3,-1989.7 L-10094.9,-1987.3 L-10094.9,-1984.4 L-10094.7,-1982.2 L-10093.9,-1980.5 L-10092.4,-1978.9 L-10090.0,-1977.2 L-10088.0,-1976.1 L-10085.7,-1975.6 L-10083.0,-1975.7 L-10080.8,-1976.2 L-10078.3,-1977.5 L-10076.1,-1979.5 L-10039.1,-2030.3 L-10050.4,-2040.5 L-10043.6,-2047.8 L-10033.5,-2038.1 L-10012.7,-2065.4 L-9981.2,-2107.5 L-10108.0,-2229.0 L-10135.5,-2200.1 L-10167.8,-2230.6 L-10136.6,-2264.2 L-10140.7,-2268.7 L-10134.2,-2274.7 L-10130.2,-2270.6 L-10108.5,-2294.2 L-10089.0,-2276.1 L-10086.7,-2261.1 L-10004.7,-2184.6 L-9988.7,-2178.4 L-9975.9,-2182.9 L-9951.6,-2173.2 L-9935.5,-2179.1 L-9887.6,-2237.6 L-9884.9,-2243.1 L-9884.1,-2250.5 L-9886.5,-2257.8 L-9889.7,-2263.0 L-9918.1,-2289.2 L-9917.7,-2296.4 L-9912.1,-2310.5 L-9900.9,-2331.4 L-9923.0,-2345.7 L-9914.6,-2348.9 L-9909.3,-2352.3 L-9904.0,-2358.3 L-9897.8,-2374.2 L-9886.4,-2403.2 L-9879.0,-2410.0 L-9949.2,-2478.0 L-9964.6,-2468.4 L-9968.2,-2467.5 L-9971.6,-2467.4 L-9976.0,-2467.9 L-9979.6,-2468.9 L-9983.1,-2471.0 L-9986.0,-2473.5 L-10022.3,-2508.5 L-10029.1,-2515.3 L-10032.1,-2518.9 L-10034.6,-2523.4 L-10035.8,-2527.5 L-10036.3,-2531.5 L-10036.2,-2535.3 L-10035.5,-2538.9 L-10034.6,-2541.8 L-10033.4,-2543.9 L-10030.8,-2547.6 L-10027.7,-2551.3 L-10011.4,-2568.2 L-9887.4,-2453.3 L-9895.9,-2443.7 L-9804.0,-2356.8 L-9698.1,-2511.9 L-9765.3,-2574.7 L-9773.9,-2567.0 L-9899.4,-2685.5 L-9883.0,-2700.8 L-9810.9,-2633.2 L-9803.7,-2643.8 L-9799.7,-2649.1 L-9794.6,-2654.3 L-9788.7,-2660.8 L-9782.7,-2664.7 L-9773.2,-2672.7 L-9763.7,-2681.5 L-9745.5,-2698.7 L-9702.0,-2747.6 L-9694.2,-2755.7 L-9665.5,-2770.4 L-9638.3,-2791.7 L-9635.7,-2793.7 L-9628.6,-2799.2 L-9625.5,-2802.0 L-9623.0,-2805.2 L-9621.3,-2808.5 L-9620.2,-2811.8 L-9618.9,-2814.3 L-9617.4,-2817.0 L-9614.8,-2821.3 L-9613.0,-2824.0 L-9611.2,-2826.5 L-9607.9,-2829.1 L-9604.7,-2831.3 L-9601.2,-2833.4 L-9592.9,-2837.4 L-9584.9,-2841.4 L-9583.7,-2841.6 L-9582.5,-2841.4 L-9580.1,-2840.7 L-9573.6,-2837.4 L-9568.7,-2835.0 L-9566.4,-2833.6 L-9564.3,-2831.9 L-9530.9,-2800.2 L-9528.6,-2798.9 L-9517.7,-2796.0 L-9514.2,-2795.0 L-9510.3,-2794.6 L-9507.3,-2794.7 L-9505.0,-2795.5 L-9502.7,-2797.1 L-9490.8,-2813.9 L-9490.8,-2816.2 L-9491.2,-2818.3 L-9492.5,-2820.6 L-9494.5,-2822.8 L-9503.6,-2831.3 L-9502.9,-2832.7 L-9491.2,-2857.5 L-9471.2,-2897.8 L-9453.0,-2911.2 L-9442.5,-2921.7 L-9435.3,-2930.0 L-9427.7,-2937.7 L-9419.3,-2944.6 L-9414.2,-2949.3 L-9408.8,-2954.2 L-9404.8,-2958.2 L-9402.8,-2961.8 L-9401.2,-2964.6 L-9400.2,-2967.3 L-9399.8,-2970.5 L-9399.6,-2973.7 L-9393.5,-2979.9 L-9384.5,-2988.4 L-9369.5,-3000.7 L-9353.8,-3012.6 L-9346.8,-3022.4 L-9344.2,-3032.5 L-9336.4,-3037.3 L-9326.6,-3037.5 L-9316.7,-3043.4 L-9308.0,-3059.1 L-9308.2,-3075.4 L-9306.6,-3100.6 L-9304.1,-3104.2 L-9302.6,-3106.6 L-9299.8,-3111.2 L-9303.3,-3121.9 L-9299.3,-3126.9 L-9279.5,-3151.4 L-9245.5,-3191.1 L-9239.0,-3200.5 L-9236.4,-3205.4 L-9225.6,-3220.3 L-9222.6,-3229.7 L-9222.5,-3244.2 L-9222.9,-3258.7 L-9223.0,-3273.5 L-9218.6,-3289.8 L-9211.2,-3305.9 L-9200.6,-3321.4 L-9192.9,-3332.9 L-9183.8,-3344.4 L-9166.2,-3364.0 L-9088.2,-3402.6 L-9077.9,-3405.3 L-9075.3,-3399.7 L-9072.2,-3394.3 L-9071.2,-3393.3 L-9069.5,-3394.0 L-9069.2,-3397.8 L-9070.4,-3401.0 L-9066.1,-3402.3 L-9050.1,-3407.0 L-9029.3,-3413.2 L-9012.5,-3418.2 L-9006.5,-3420.0 L-9012.5,-3438.9 L-9002.1,-3441.7 L-8984.8,-3444.1 L-8982.7,-3444.4 L-8982.6,-3445.6 L-8982.6,-3450.0 L-8966.9,-3450.7 L-8942.3,-3451.7 L-8932.8,-3447.1 L-8909.1,-3361.7 L-8903.8,-3356.6 L-8914.1,-3346.0 L-8905.0,-3337.0 L-8896.0,-3328.0 L-8885.2,-3339.0 L-8684.7,-3148.4 L-8417.1,-3434.0 L-8323.6,-3344.6 L-8320.0,-3345.7 L-8318.6,-3344.1 L-8312.3,-3348.1 L-8307.1,-3350.0 L-8301.6,-3352.5 L-8292.2,-3357.4 L-8286.4,-3360.7 L-8279.5,-3364.7 L-8273.1,-3368.7 L-8267.9,-3372.1 L-8263.1,-3375.2 L-8257.5,-3379.3 L-8251.1,-3384.0 L-8246.2,-3388.1 L-8241.0,-3392.7 L-8235.3,-3398.1 L-8229.9,-3403.5 L-8217.3,-3416.9 L-8209.7,-3426.0 L-8202.3,-3435.9 L-8197.2,-3443.1 L-8192.4,-3450.5 L-8186.7,-3460.8 L-8181.7,-3470.9 L-8177.7,-3479.2 L-8174.3,-3487.5 L-8172.2,-3493.0 L-8169.9,-3499.2 L-8164.5,-3505.9 L-8335.5,-3668.6 L-8333.4,-3670.9 L-8312.9,-3692.9 L-8298.0,-3708.7 L-8296.5,-3710.3 L-8253.1,-3669.7 L-8242.6,-3675.1 L-8241.4,-3673.6 L-8139.4,-3726.7 L-8135.2,-3728.9 L-8132.3,-3731.2 L-8129.6,-3733.7 L-8126.5,-3736.9 L-8123.5,-3741.4 L-8120.9,-3745.6 L-8119.2,-3748.8 L-8118.0,-3752.9 L-8116.9,-3757.4 L-8116.4,-3762.3 L-8116.4,-3767.8 L-8116.8,-3772.2 L-8117.6,-3776.1 L-8118.9,-3780.8 L-8150.8,-3872.6 L-8155.1,-3887.7 L-8154.0,-3892.9 L-8231.0,-3912.0 L-8227.4,-3925.3 L-8224.4,-3937.3 L-8201.6,-4027.5 L-8219.3,-4080.1 L-8229.7,-4114.1 L-8232.7,-4122.6 L-8205.1,-4147.9 L-8174.0,-4164.6 L-8172.1,-4162.0 L-8169.1,-4157.7 L-8162.1,-4148.6 L-8161.3,-4149.4 L-8161.1,-4152.5 L-8170.8,-4165.9 L-8153.5,-4178.3 L-8149.7,-4180.5 L-8140.7,-4168.8 L-8139.2,-4167.7 L-8137.7,-4167.4 L-8136.9,-4167.6 L-8136.9,-4168.4 L-8179.7,-4227.0 L-8182.8,-4230.4 L-8186.4,-4235.3 L-8205.0,-4257.8 L-8189.1,-4307.1 L-8176.9,-4319.8 L-8162.8,-4326.4 L-8132.8,-4344.2 L-8126.6,-4350.6 L-8099.7,-4374.2 L-8091.2,-4365.3 L-8066.3,-4338.4 L-8043.2,-4357.8 L-8027.7,-4342.9 L-8013.8,-4329.3 L-8013.1,-4328.6 L-8001.3,-4338.7 L-7985.7,-4322.1 L-7972.3,-4304.9 L-7962.4,-4293.4 L-7961.1,-4291.9 L-7932.3,-4317.2 L-7930.8,-4318.5 L-7937.6,-4326.8 L-7921.9,-4339.7 L-7874.3,-4284.2 L-7833.8,-4310.9 L-7829.8,-4314.7 L-7812.2,-4322.1 L-7808.2,-4326.0 L-7804.4,-4331.0 L-7782.7,-4350.3 L-7787.6,-4357.0 L-7826.4,-4348.1 L-7870.8,-4398.6 L-7865.7,-4403.0 L-7859.0,-4395.2 L-7827.6,-4422.2 L-7794.3,-4385.8 L-7785.3,-4382.2 L-7779.9,-4379.1 L-7773.1,-4371.4 L-7769.4,-4374.7 L-7793.5,-4402.1 L-7778.7,-4414.9 L-7748.8,-4379.0 L-7745.0,-4381.8 L-7745.4,-4382.6 L-7679.8,-4430.0 L-7660.3,-4444.4 L-7724.0,-4524.0 L-7710.4,-4533.5 L-7655.0,-4468.6 L-7614.1,-4461.1 L-7587.1,-4476.9 L-7583.3,-4479.3 L-7583.5,-4482.3 L-7585.4,-4485.8 L-7564.3,-4499.1 L-7558.1,-4492.9 L-7540.3,-4503.4 L-7553.2,-4519.4 L-7615.5,-4602.7 L-7571.5,-4648.3 L-7542.6,-4691.0 L-7541.9,-4724.4 L-7557.3,-4768.8 L-7524.9,-4795.8 L-7490.9,-4808.9 L-7479.7,-4811.5 L-7470.7,-4812.7 L-7459.7,-4812.0 L-7448.3,-4809.2 L-7431.8,-4795.1 L-7389.0,-4742.9 L-7354.8,-4699.5 L-7313.9,-4672.2 L-7297.8,-4669.6 L-7283.4,-4667.9 L-7271.2,-4667.4 L-7255.6,-4668.5 L-7238.7,-4671.3 L-7225.0,-4675.2 L-7213.4,-4680.6 L-7205.7,-4685.1 L-7200.0,-4691.1 L-7190.4,-4702.7 L-7180.0,-4721.7 L-7168.7,-4746.9 L-7148.6,-4736.6 L-7140.6,-4733.9 L-7132.0,-4732.7 L-7118.3,-4733.6 L-7109.2,-4736.3 L-7098.8,-4740.8 L-7089.1,-4746.4 L-7078.8,-4756.4 L-7070.0,-4764.4 L-7059.0,-4771.9 L-7051.4,-4776.8 L-7040.2,-4780.8 L-7020.9,-4786.4 L-7009.5,-4789.6 L-6997.3,-4794.2 L-6986.7,-4799.7 L-6980.4,-4803.3 L-6975.4,-4808.5 L-6910.0,-4841.3 L-6907.5,-4842.7 L-6904.6,-4844.5 L-6901.6,-4846.8 L-6897.2,-4849.3 L-6894.3,-4850.7 L-6891.2,-4853.4 L-6888.8,-4855.9 L-6885.6,-4858.0 L-6882.2,-4860.4 L-6877.7,-4864.6 L-6871.3,-4865.1 L-6864.7,-4865.9 L-6860.4,-4867.3 L-6854.8,-4869.9 L-6847.9,-4873.0 L-6840.6,-4877.5 L-6836.5,-4881.4 L-6831.9,-4886.7 L-6829.0,-4891.6 L-6827.4,-4896.1 L-6827.3,-4899.3 L-6827.2,-4901.9 L-6825.6,-4912.3 L-6789.2,-4933.4 L-6725.4,-4970.2 L-6713.0,-4977.3 L-6604.8,-5039.7 L-6487.6,-5107.0 L-6437.7,-5135.6 L-6420.4,-5145.3 L-6275.5,-5229.5 L-6243.3,-5247.2 L-6243.8,-5248.3 L-6177.5,-5285.8 L-6152.0,-5300.1 L-6105.0,-5326.1 L-6104.5,-5325.4 L-6086.3,-5335.4 L-6042.1,-5360.1 L-6036.8,-5364.9 L-5992.0,-5397.7 L-5969.7,-5416.2 L-5949.2,-5433.5 L-5939.8,-5438.8 L-5918.6,-5459.8 L-5916.8,-5458.7 L-5914.0,-5459.0 L-5912.6,-5458.1 L-5882.8,-5493.0 L-5890.3,-5500.0 L-5889.3,-5501.8 L-5886.1,-5506.4 L-5877.5,-5517.3 L-5872.3,-5525.2 L-5868.2,-5531.7 L-5862.5,-5540.4 L-5857.0,-5549.4 L-5850.8,-5559.7 L-5844.4,-5570.9 L-5830.5,-5599.6 L-5826.2,-5608.7 L-5822.7,-5616.0 L-5820.3,-5621.5 L-5818.2,-5625.7 L-5813.8,-5636.7 L-5929.6,-5852.7 L-5931.8,-5856.8 L-5933.5,-5859.1 L-5934.7,-5860.8 L-5936.3,-5862.2 L-5937.8,-5863.2 L-5939.8,-5864.4 L-5941.9,-5865.2 L-5943.7,-5865.6 L-5945.5,-5865.8 L-5948.2,-5865.8 L-5951.3,-5865.3 L-5954.0,-5864.5 L-5956.8,-5863.1 L-5983.7,-5847.6 L-6018.8,-5827.5 L-6043.3,-5813.9 L-6088.0,-5789.3 L-6115.4,-5774.4 L-6114.4,-5772.7 L-6126.1,-5766.0 L-6164.4,-5746.2 L-6192.8,-5729.4 L-6209.5,-5720.1 L-6234.9,-5705.5 L-6237.8,-5703.5 L-6260.1,-5743.6 L-6216.3,-5767.6 L-6156.5,-5800.1 L-6115.8,-5822.7 L-6110.8,-5825.6 L-6111.5,-5826.7 L-6076.3,-5845.9 L-6057.6,-5856.2 L-6014.7,-5877.1 L-6006.5,-5881.3 L-5941.8,-5917.3 L-5917.5,-5930.7 L-5900.4,-5939.9 L-5880.2,-5951.5 L-5852.2,-5900.9 L-5896.2,-5876.8 L-5898.5,-5873.1 L-5899.4,-5869.2 L-5899.8,-5866.2 L-5899.9,-5863.6 L-5899.7,-5861.5 L-5898.9,-5858.6 L-5809.2,-5692.7 L-5807.5,-5690.2 L-5805.5,-5688.3 L-5803.5,-5687.0 L-5801.4,-5686.3 L-5799.1,-5686.0 L-5796.9,-5686.2 L-5795.2,-5686.7 L-5755.4,-5716.9 L-5736.7,-5732.6 L-5717.4,-5748.9 L-5710.1,-5755.6 L-5686.2,-5775.2 L-5685.1,-5775.2 L-5661.9,-5795.0 L-5661.8,-5796.2 L-5646.6,-5808.7 L-5634.6,-5818.5 L-5614.0,-5835.5 L-5612.1,-5833.2 L-5591.9,-5849.9 L-5581.7,-5858.4 L-5553.4,-5881.9 L-5533.7,-5898.3 L-5535.6,-5901.1 L-5529.1,-5906.6 L-5518.4,-5915.4 L-5511.8,-5921.2 L-5483.9,-5933.7 L-5465.0,-5940.3 L-5455.3,-5944.9 L-5428.1,-5945.1 L-5418.6,-5945.1 L-5398.5,-5944.1 L-5375.0,-5943.1 L-5373.3,-5944.7 L-5371.0,-5941.7 L-5363.6,-5941.3 L-5296.3,-5935.5 L-5288.4,-5933.8 L-5281.5,-5932.7 L-5265.9,-5931.4 L-5236.8,-5930.0 L-5230.4,-5929.9 L-5224.4,-5930.1 L-5201.1,-5931.0 L-5189.1,-5931.6 L-5177.2,-5932.7 L-5158.9,-5934.6 L-5159.0,-5933.5 L-5144.5,-5936.0 L-5130.8,-5938.6 L-5120.3,-5940.5 L-5106.5,-5950.9 L-5104.9,-5948.7 L-5103.2,-5946.3 L-4981.6,-5785.5 L-4688.1,-5684.3 L-4149.5,-6079.9 L-4002.7,-6185.6 L-3946.0,-6306.6 L-4036.2,-6424.8 L-4032.2,-6441.7 L-4016.4,-6446.0 L-3986.0,-6439.7 L-3964.4,-6447.8 L-3958.4,-6456.2 L-3959.7,-6463.5 L-3975.8,-6495.1 L-3976.9,-6506.9 L-3977.8,-6530.3 L-3980.6,-6552.9 L-3977.8,-6556.9 L-3968.7,-6561.3 L-3957.6,-6563.8 L-3949.6,-6572.4 L-3947.8,-6582.8 L-3954.6,-6602.9 L-3955.3,-6616.8 L-3953.1,-6632.6 L-3942.1,-6660.3 L-3944.4,-6673.1 L-3949.9,-6687.4 L-3950.1,-6706.8 L-3953.3,-6732.4 L-3959.1,-6748.4 L-3962.7,-6756.8 L-3960.3,-6760.5 L-3958.0,-6760.3 L-3957.4,-6761.8 L-3957.1,-6763.8 L-3957.2,-6765.8 L-3960.7,-6766.2 L-3962.9,-6769.3 L-3962.5,-6773.0 L-3965.5,-6773.8 L-3969.2,-6773.9 L-3969.7,-6773.0 L-3977.3,-6782.0 L-3978.9,-6784.8 L-3980.2,-6788.7 L-3981.1,-6792.5 L-3981.8,-6796.5 L-3982.1,-6800.5 L-3982.3,-6804.1 L-3982.3,-6807.8 L-3982.0,-6809.8 L-3980.4,-6814.8 L-3978.6,-6818.8 L-3976.3,-6822.7 L-3972.9,-6827.6 L-3969.4,-6832.3 L-3966.1,-6835.7 L-3962.0,-6838.8 L-3961.2,-6838.0 L-3926.1,-6864.8 L-3921.0,-6868.7 L-3922.0,-6870.2 L-3922.0,-6872.8 L-3913.3,-6879.6 L-3911.1,-6879.5 L-3909.0,-6878.0 L-3905.3,-6880.8 L-3869.3,-6908.1 L-3869.7,-6909.0 L-3865.5,-6912.1 L-3860.5,-6915.2 L-3857.0,-6916.8 L-3852.0,-6918.7 L-3847.7,-6919.9 L-3843.4,-6920.5 L-3838.7,-6920.9 L-3835.9,-6920.7 L-3832.0,-6920.1 L-3828.2,-6918.8 L-3825.4,-6917.4 L-3822.7,-6915.8 L-3820.7,-6914.3 L-3819.0,-6912.7 L-3816.5,-6910.3 L-3815.4,-6909.9 L-3813.6,-6909.9 L-3811.8,-6910.2 L-3806.3,-6914.1 L-3806.3,-6915.2 L-3805.7,-6916.0 L-3805.1,-6917.1 L-3805.2,-6918.4 L-3805.5,-6919.5 L-3806.3,-6920.5 L-3810.2,-6924.4 L-3813.3,-6926.9 L-3816.9,-6928.9 L-3822.8,-6931.5 L-3827.9,-6933.5 L-3819.0,-6938.1 L-3808.1,-6945.7 L-3794.6,-6947.4 L-3781.1,-6946.5 L-3772.3,-6950.0 L-3764.6,-6961.0 L-3735.6,-7012.9 L-3723.8,-7034.3 L-3714.5,-7057.1 L-3712.9,-7061.9 L-3699.1,-7104.2 L-3696.9,-7108.3 L-3694.3,-7112.4 L-3661.9,-7152.5 L-3655.0,-7159.7 L-3649.9,-7164.1 L-3577.3,-7226.3 L-3573.3,-7229.0 L-3560.9,-7235.8 L-3546.0,-7244.2 L-3499.6,-7268.5 L-3398.5,-7322.8 L-3396.1,-7320.9 L-3394.2,-7320.2 L-3392.5,-7319.7 L-3390.7,-7320.0 L-3388.8,-7320.4 L-3383.4,-7321.5 L-3377.1,-7322.9 L-3371.4,-7324.2 L-3365.5,-7325.3 L-3362.3,-7326.0 L-3357.9,-7327.3 L-3352.9,-7329.4 L-3340.8,-7336.0 L-3336.4,-7338.4 L-3334.1,-7339.8 L-3331.8,-7340.8 L-3322.4,-7344.8 L-3312.1,-7348.8 L-3299.1,-7354.4 L-3283.8,-7360.7 L-3283.2,-7361.0 L-3281.9,-7361.1 L-3280.2,-7361.6 L-3277.8,-7363.4 L-3275.1,-7364.4 L-3272.1,-7365.9 L-3266.5,-7369.1 L-3264.5,-7371.1 L-3261.2,-7373.2 L-3261.5,-7373.8 L-3260.1,-7375.5 L-3258.3,-7377.4 L-3255.3,-7378.9 L-3252.8,-7379.9 L-3250.1,-7380.9 L-3247.6,-7382.2 L-3242.7,-7385.3 L-3241.3,-7386.7 L-3239.9,-7388.9 L-3239.3,-7390.5 L-3239.1,-7392.1 L-3239.3,-7393.6 L-3239.0,-7395.1 L-3253.0,-7412.0 L-3208.9,-7437.9 L-3188.0,-7449.0 L-3183.9,-7450.3 L-3177.5,-7449.1 L-3170.4,-7439.2 L-3167.2,-7436.4 L-3164.3,-7435.0 L-3161.6,-7434.4 L-3159.1,-7434.5 L-3121.3,-7450.1 L-3111.0,-7455.1 L-3101.4,-7460.4 L-3085.9,-7468.6 L-3082.7,-7469.7 L-2867.9,-7559.0 L-2800.7,-7591.3 L-2500.2,-7735.6 L4512.9,-7793.6 L4512.9,2242.0 L-10474.8,2242.0 L-10474.8,1815.5 Z" fill="#add7e1" stroke="none"><title>Biscayne Bay</title></path><path d="M-1.0,-1.0 L257.0,-1.0 L257.0,257.0 L-1.0,257.0 L-1.0,-1.0 Z" fill="#add7e1" stroke="none" fill-rule="evenodd"><title>Biscayne Bay</title></path><path d="M-11145.9,173.2 L-7231.2,586.9 L-2384.4,2448.9 L971.0,4931.3 L2089.5,9274.9 L-147.5,10515.8 L-10586.6,10515.8 L-12823.6,5138.2 Z" fill="#add7e1" stroke="none"><title>Biscayne Bay</title></path><path d="M1108.6,-5183.6 L-2001.0,8188.9" fill="none" stroke="#6fb5c7" stroke-width="1.7" stroke-dasharray="5 7" opacity="0.34" stroke-linecap="round" stroke-linejoin="round"><title>Atlantic Intracoastal Waterway</title></path></svg>