<svg xmlns="http://www.w3.org/2000/svg" width="256" height="256" viewBox="0 0 256 256"><rect width="256" height="256" fill="#f1efe7"/><path d="M-3082.7,-11053.7 L-2867.9,-11143.0 L-2800.7,-11175.3 L-2500.2,-11319.6 L-2443.8,-11265.0 L-2438.9,-11260.3 L-2333.5,-11350.5 L-2308.4,-11369.6 L-2266.5,-11407.4 L-2030.4,-11624.2 L-1839.9,-11841.8 L-1832.6,-11855.7 L-1825.6,-11863.6 L-1814.5,-11876.3 L-1803.2,-11889.2 L-1798.6,-11894.5 L-1873.7,-11991.6 L-1774.3,-12051.2 L-1720.4,-11979.5 L-1644.2,-12066.7 L-1708.7,-12152.1 L-1628.8,-12235.4 L-1567.3,-12154.4 L-1496.7,-12234.8 L-1466.6,-12254.5 L-1319.4,-12350.0 L-1246.7,-12398.3 L-1159.1,-12455.9 L-1117.7,-12483.1 L-1012.8,-12550.8 L-1039.8,-12586.3 L-1088.1,-12651.0 L-963.2,-12730.4 L-917.7,-12753.9 L-914.2,-12756.4 L-890.2,-12774.9 L-804.6,-12820.7 L-798.7,-12829.9 L-774.7,-12846.4 L-761.7,-12865.4 L-758.0,-12868.2 L-737.1,-12876.3 L-689.9,-12893.2 L-657.6,-12907.4 L-543.5,-12961.0 L-542.1,-12957.3 L-446.4,-12998.2 L-407.3,-12948.1 L-320.2,-13006.2 L-307.8,-13014.7 L-306.6,-13015.7 L-305.4,-13017.3 L-303.5,-13020.6 L-302.5,-13023.7 L-301.9,-13027.4 L-302.0,-13030.4 L-302.4,-13033.3 L-302.8,-13036.6 L-302.9,-13039.1 L-302.7,-13041.2 L-302.3,-13043.4 L-300.7,-13047.4 L-299.6,-13049.6 L-297.1,-13053.4 L-294.5,-13056.2 L-281.8,-13061.3 L-271.2,-13065.3 L-257.7,-13069.7 L-251.4,-13071.4 L-240.2,-13075.1 L-232.3,-13077.9 L-221.4,-13082.4 L-206.6,-13088.9 L-190.6,-13096.4 L-182.0,-13100.6 L-171.2,-13106.1 L-161.1,-13111.7 L-151.0,-13117.7 L-140.7,-13124.4 L-137.5,-13126.6 L-116.8,-13142.4 L-99.4,-13155.8 L-82.4,-13170.2 L-66.5,-13185.2 L-55.0,-13198.1 L-43.6,-13212.0 L-29.6,-13230.0 L-16.8,-13248.0 L-2.1,-13271.1 L7.5,-13289.0 L13.5,-13300.4 L22.4,-13319.7 L29.9,-13337.6 L36.6,-13356.9 L42.0,-13373.8 L47.9,-13401.2 L52.2,-13425.7 L54.5,-13446.7 L56.5,-13471.5 L56.7,-13498.0 L55.1,-13522.5 L50.9,-13554.5 L46.5,-13576.3 L41.5,-13596.9 L34.1,-13620.3 L27.8,-13638.2 L20.6,-13657.7 L13.8,-13673.9 L9.2,-13684.4 L7.3,-13692.1 L7.0,-13698.0 L7.6,-13703.3 L9.7,-13707.9 L12.9,-13711.8 L17.1,-13714.0 L21.6,-13714.6 L33.7,-13711.7 L67.4,-13703.6 L78.6,-13958.3 L122.3,-14412.9 L74.8,-14424.1 L69.6,-14438.4 L69.8,-14458.9 L76.4,-14505.4 L85.4,-14515.9 L93.4,-14546.1 L143.9,-14534.4 L171.7,-14824.9 L179.4,-14905.3 L163.7,-14909.2 L173.2,-14947.6 L140.9,-14955.3 L145.0,-14978.8 L150.7,-14994.3 L157.8,-15012.4 L169.8,-15037.7 L182.7,-15034.8 L200.1,-15217.5 L204.2,-15328.3 L205.0,-15348.7 L214.4,-15419.2 L233.1,-15594.9 L357.9,-15920.3 L386.4,-16009.0 L733.1,-16142.0 L767.0,-16155.6 L772.9,-16158.8 L777.5,-16163.0 L782.6,-16168.9 L786.5,-16175.8 L789.1,-16182.6 L789.7,-16192.5 L789.2,-16204.8 L784.6,-16360.3 L782.9,-16390.4 L782.4,-16411.1 L781.7,-16451.3 L780.9,-16463.9 L779.4,-16474.5 L777.3,-16483.9 L774.2,-16493.5 L769.3,-16504.8 L762.1,-16516.9 L755.1,-16526.5 L749.7,-16535.6 L744.2,-16547.7 L739.6,-16559.3 L737.8,-16568.8 L736.4,-16579.3 L735.7,-16589.8 L736.0,-16600.0 L737.2,-16611.9 L740.0,-16623.6 L743.7,-16634.0 L747.6,-16643.5 L752.6,-16652.7 L758.7,-16663.9 L762.7,-16674.0 L766.2,-16686.9 L772.6,-16696.7 L770.4,-16785.9 L767.1,-16791.1 L766.1,-16851.7 L764.4,-16923.2 L765.6,-16933.1 L768.8,-16943.2 L776.8,-16959.0 L830.3,-17074.1 L831.4,-17076.0 L840.8,-17096.5 L849.7,-17115.9 L859.7,-17135.9 L869.5,-17156.5 L874.3,-17166.5 L926.9,-17274.4 L983.1,-17393.6 L1104.7,-17640.4 L1031.6,-17722.3 L972.0,-17595.3 L920.5,-17485.4 L912.7,-17469.8 L896.8,-17437.3 L865.0,-17440.0 L856.3,-17440.5 L853.2,-17437.7 L857.4,-17433.9 L841.1,-17419.4 L828.2,-17407.5 L825.8,-17356.6 L821.0,-17346.4 L805.4,-17347.0 L802.8,-17347.9 L598.4,-17432.3 L594.0,-17434.6 L589.3,-17437.6 L581.9,-17443.2 L576.2,-17448.6 L571.4,-17453.8 L566.7,-17460.2 L563.1,-17465.8 L560.3,-17471.6 L558.1,-17477.7 L556.6,-17481.9 L555.5,-17487.0 L554.7,-17493.0 L553.9,-17501.2 L553.9,-17512.9 L552.5,-17552.6 L558.1,-17552.9 L557.3,-17573.9 L556.4,-17608.5 L561.6,-17608.6 L561.2,-17632.2 L555.3,-17632.1 L552.6,-17731.5 L558.2,-17731.8 L557.3,-17755.1 L551.9,-17754.9 L549.6,-17828.4 L576.6,-17857.5 L611.1,-17858.7 L636.8,-17859.6 L670.7,-17860.7 L703.3,-17861.7 L732.5,-17862.7 L745.2,-17863.3 L744.6,-17874.6 L744.4,-17886.4 L742.5,-17924.7 L741.8,-17997.8 L740.8,-17999.1 L740.6,-18006.3 L742.7,-18006.4 L737.6,-18182.5 L733.2,-18348.2 L732.5,-18353.4 L732.1,-18363.0 L659.9,-18360.4 L611.9,-18364.5 L252.6,-18352.0 L252.5,-18355.2 L251.8,-18370.5 L81.4,-18364.5 L81.1,-18392.8 L58.6,-18397.9 L54.6,-18519.0 L717.4,-18542.0 L728.4,-18557.1 L728.0,-18600.1 L727.2,-18637.3 L726.6,-18660.6 L725.7,-18683.3 L673.0,-18708.1 L670.9,-18763.2 L724.9,-18790.0 L720.0,-18917.5 L718.6,-18923.8 L664.9,-18948.9 L663.2,-19017.1 L714.2,-19043.4 L691.5,-19320.3 L697.5,-19443.5 L700.5,-19644.4 L700.3,-19862.9 L705.1,-19893.5 L705.4,-19908.3 L700.6,-19926.1 L705.6,-19926.1 L705.6,-19942.2 L708.6,-20353.2 L708.1,-20371.5 L702.4,-20371.5 L702.6,-20447.1 L699.3,-20451.8 L694.1,-20529.8 L704.4,-20601.1 L703.1,-20687.4 L699.6,-20708.1 L704.9,-20772.0 L701.3,-20849.3 L692.3,-20932.0 L675.2,-21066.0 L683.3,-21102.9 L679.7,-21138.8 L649.1,-21164.9 L604.2,-21164.5 L535.8,-21155.5 L491.3,-21155.5 L450.9,-21170.3 L397.8,-21206.7 L397.8,-21272.0 L396.4,-21352.3 L401.6,-21419.2 L419.2,-21471.4 L713.9,-21476.9 L720.7,-21894.8 L720.7,-22496.4 L717.6,-22714.7 L16629.8,-29286.4 L16629.8,6931.8 L-3082.7,6931.8 L-3082.7,-11053.7 Z" fill="#add7e1" stroke="none"><title>Biscayne Bay</title></path><path d="M-1.0,-1.0 L257.0,-1.0 L257.0,257.0 L-1.0,257.0 L-1.0,-1.0 Z" fill="#add7e1" stroke="none" fill-rule="evenodd"><title>Biscayne Bay</title></path><path d="M-11145.9,-3410.8 L-7231.2,-2997.1 L-2384.4,-1135.1 L971.0,1347.3 L2089.5,5690.9 L-147.5,6931.8 L-10586.6,6931.8 L-12823.6,1554.2 Z" fill="#add7e1" stroke="none"><title>Biscayne Bay</title></path><path d="M1108.6,-8767.6 L-2001.0,4604.9" fill="none" stroke="#6fb5c7" stroke-width="1.7" stroke-dasharray="5 7" opacity="0.34" stroke-linecap="round" stroke-linejoin="round"><title>Atlantic Intracoastal Waterway</title></path></svg>