<svg xmlns="http://www.w3.org/2000/svg" width="256" height="256" viewBox="0 0 256 256"><rect width="256" height="256" fill="#f1efe7"/><path d="M35.1,77.2 L-26.7,78.2 L-27.7,53.6 L14.0,52.4 L14.2,56.1 L34.7,55.1 L35.1,77.2 Z" fill="#d6d2c9" stroke="#bab6ad" stroke-width="0.4"></path><path d="M218.5,101.1 L218.9,113.5 L225.0,113.3 L225.8,125.4 L202.0,126.0 L201.9,118.6 L175.9,119.0 L175.7,101.8 L218.5,101.1 Z" fill="#d6d2c9" stroke="#bab6ad" stroke-width="0.4"></path><path d="M121.3,181.3 L70.0,182.9 L69.4,164.6 L120.7,163.0 L121.3,181.3 Z" fill="#d6d2c9" stroke="#bab6ad" stroke-width="0.4"></path><path d="M230.5,129.7 L230.9,154.7 L199.2,155.2 L199.0,147.1 L176.7,147.4 L176.4,130.4 L230.5,129.7 Z" fill="#d6d2c9" stroke="#bab6ad" stroke-width="0.4"></path><path d="M288.3,13.1 L288.4,21.0 L312.0,20.5 L312.4,37.3 L253.5,38.5 L253.0,13.9 L288.3,13.1 Z" fill="#d6d2c9" stroke="#bab6ad" stroke-width="0.4"></path><path d="M119.9,151.7 L69.3,153.2 L68.8,134.8 L119.4,133.3 L119.9,151.7 Z" fill="#d6d2c9" stroke="#bab6ad" stroke-width="0.4"></path><path d="M277.8,-14.0 L252.7,-13.5 L253.2,11.5 L278.2,11.0 L277.8,-14.0 Z" fill="#d6d2c9" stroke="#bab6ad" stroke-width="0.4"></path><path d="M243.2,44.8 L243.6,58.9 L233.6,59.2 L233.9,68.0 L222.4,68.4 L222.5,70.3 L191.7,71.4 L191.1,52.0 L215.1,51.1 L215.0,46.8 L221.0,46.6 L221.1,48.6 L230.3,49.5 L230.1,45.2 L243.2,44.8 Z" fill="#d6d2c9" stroke="#bab6ad" stroke-width="0.4"></path><path d="M228.2,98.3 L221.0,98.5 L220.7,88.1 L225.4,87.9 L225.1,77.6 L242.3,77.0 L242.9,94.8 L228.1,95.2 L228.2,98.3 Z" fill="#d6d2c9" stroke="#bab6ad" stroke-width="0.4"></path><path d="M6.7,128.6 L-23.4,129.5 L-23.6,120.6 L-23.9,111.8 L6.2,110.9 L6.4,119.8 L6.7,128.6 Z" fill="#d6d2c9" stroke="#bab6ad" stroke-width="0.4"></path><path d="M246.0,164.6 L238.1,165.1 L237.6,157.1 L245.6,156.7 L246.0,164.6 Z" fill="#d6d2c9" stroke="#bab6ad" stroke-width="0.4"></path><path d="M188.4,75.7 L188.5,77.4 L201.7,76.9 L202.3,94.3 L196.8,94.5 L191.3,94.7 L191.0,88.3 L188.6,88.3 L188.9,99.0 L181.3,99.3 L173.6,99.6 L173.2,89.7 L171.4,89.7 L171.3,85.7 L171.1,81.7 L172.9,81.7 L172.7,76.3 L188.4,75.7 Z" fill="#d6d2c9" stroke="#bab6ad" stroke-width="0.4"></path><path d="M226.2,158.5 L226.2,160.4 L234.2,160.2 L234.4,168.1 L234.7,176.0 L226.9,176.2 L227.0,179.3 L175.2,180.8 L174.9,170.4 L174.7,159.9 L226.2,158.5 Z" fill="#d6d2c9" stroke="#bab6ad" stroke-width="0.4"></path><path d="M3.7,-5.3 L3.9,3.7 L8.4,3.5 L8.9,17.1 L-14.8,18.6 L-15.0,12.3 L-30.0,12.7 L-30.5,-4.2 L3.7,-5.3 Z" fill="#d6d2c9" stroke="#bab6ad" stroke-width="0.4"></path><path d="M220.1,24.6 L220.2,27.6 L225.9,27.4 L226.2,36.1 L186.5,37.2 L185.9,18.9 L230.5,17.6 L230.7,24.3 L220.1,24.6 Z" fill="#d6d2c9" stroke="#bab6ad" stroke-width="0.4"></path><path d="M47.4,177.0 L30.9,178.0 L30.1,164.3 L46.6,163.3 L47.0,170.2 L47.4,177.0 Z" fill="#d6d2c9" stroke="#bab6ad" stroke-width="0.4"></path><path d="M65.8,49.0 L65.9,51.6 L67.9,51.5 L68.0,57.2 L66.0,57.2 L66.3,76.9 L50.0,77.3 L49.5,49.3 L65.8,49.0 Z" fill="#d6d2c9" stroke="#bab6ad" stroke-width="0.4"></path><path d="M-0.6,139.2 L-0.6,140.5 L6.6,140.3 L6.8,148.8 L7.1,157.3 L-22.4,158.3 L-22.7,149.8 L-23.0,141.3 L-16.4,141.1 L-16.5,139.8 L-8.5,139.5 L-0.6,139.2 Z" fill="#d6d2c9" stroke="#bab6ad" stroke-width="0.4"></path><path d="M111.1,242.2 L82.9,243.5 L82.5,235.3 L82.1,227.0 L116.8,225.4 L117.1,231.3 L117.3,237.2 L110.9,237.5 L111.1,242.2 Z" fill="#d6d2c9" stroke="#bab6ad" stroke-width="0.4"></path><path d="M220.5,264.3 L203.5,264.7 L203.2,246.1 L220.1,245.8 L220.3,255.1 L220.5,264.3 Z" fill="#d6d2c9" stroke="#bab6ad" stroke-width="0.4"></path><path d="M27.7,246.6 L-24.8,248.9 L-25.7,228.2 L26.8,225.9 L27.7,246.6 Z" fill="#d6d2c9" stroke="#bab6ad" stroke-width="0.4"></path><path d="M120.0,271.9 L55.2,274.2 L54.7,257.8 L84.8,256.7 L84.8,254.8 L119.3,253.6 L120.0,271.9 Z" fill="#d6d2c9" stroke="#bab6ad" stroke-width="0.4"></path><path d="M112.7,21.1 L112.7,22.5 L115.9,22.4 L116.2,31.8 L113.1,31.9 L113.5,45.3 L94.8,45.8 L94.5,36.3 L80.3,37.8 L79.8,22.1 L112.7,21.1 Z" fill="#d6d2c9" stroke="#bab6ad" stroke-width="0.4"></path><path d="M-13.2,104.7 L-22.1,105.1 L-23.0,84.8 L0.9,83.8 L1.3,92.9 L-7.8,93.3 L-7.6,99.1 L-13.5,99.3 L-13.2,104.7 Z" fill="#d6d2c9" stroke="#bab6ad" stroke-width="0.4"></path><path d="M32.7,253.5 L32.8,255.1 L47.3,254.7 L47.8,273.2 L19.2,274.0 L18.9,262.8 L14.0,262.9 L13.7,254.0 L32.7,253.5 Z" fill="#d6d2c9" stroke="#bab6ad" stroke-width="0.4"></path><path d="M6.6,274.2 L-24.8,275.6 L-25.8,251.9 L5.6,250.6 L6.6,274.2 Z" fill="#d6d2c9" stroke="#bab6ad" stroke-width="0.4"></path><path d="M124.3,105.0 L124.9,129.5 L118.2,129.7 L118.1,125.8 L90.9,126.5 L90.6,112.1 L96.1,111.9 L96.0,107.0 L101.6,106.9 L101.6,105.5 L124.3,105.0 Z" fill="#d6d2c9" stroke="#bab6ad" stroke-width="0.4"></path><path d="M-12.3,183.5 L-12.2,187.7 L-15.6,187.8 L-19.1,187.9 L-19.2,183.9 L-24.6,184.1 L-25.0,169.5 L5.1,168.6 L5.6,182.9 L-12.3,183.5 Z" fill="#d6d2c9" stroke="#bab6ad" stroke-width="0.4"></path><path d="M258.2,59.7 L246.2,60.1 L245.7,44.8 L257.7,44.4 L258.2,59.7 Z" fill="#d6d2c9" stroke="#bab6ad" stroke-width="0.4"></path><path d="M229.9,-13.5 L230.0,-10.6 L238.3,-10.9 L239.0,7.4 L231.5,7.7 L231.6,9.9 L202.3,11.1 L201.4,-12.4 L229.9,-13.5 Z" fill="#d6d2c9" stroke="#bab6ad" stroke-width="0.4"></path><path d="M7.5,23.3 L7.9,34.1 L15.8,33.9 L16.1,45.8 L-29.3,47.2 L-29.9,24.4 L7.5,23.3 Z" fill="#d6d2c9" stroke="#bab6ad" stroke-width="0.4"></path><path d="M99.7,102.4 L72.2,102.4 L71.6,79.4 L78.9,79.2 L78.9,77.7 L120.4,76.6 L120.8,93.7 L99.5,94.2 L99.7,102.4 Z" fill="#d6d2c9" stroke="#bab6ad" stroke-width="0.4"></path><path d="M204.3,220.0 L205.2,238.9 L178.7,240.1 L178.3,232.1 L174.6,232.3 L174.2,223.5 L177.5,223.3 L177.4,221.2 L204.3,220.0 Z" fill="#d6d2c9" stroke="#bab6ad" stroke-width="0.4"></path><path d="M112.2,10.5 L66.5,11.9 L65.9,-7.0 L114.8,-8.6 L115.1,2.0 L111.9,2.1 L112.2,10.5 Z" fill="#d6d2c9" stroke="#bab6ad" stroke-width="0.4"></path><path d="M-49.3,-143.5 L-40.3,179.2 L-38.8,185.4 L-36.3,189.8 L-32.2,193.6 L-26.7,195.2 L16.5,194.7 L123.0,190.4 L127.8,189.0 L131.1,186.4 L132.4,184.9 L134.4,182.5 L136.2,178.5 L136.5,175.1 L125.3,-246.9" fill="none" stroke="#cf828d" stroke-width="1.5" stroke-dasharray="1.6 3.0" opacity="0.62" stroke-linecap="round" stroke-linejoin="round"></path><path d="M150.2,-238.8 L161.7,174.0 L162.5,178.1 L164.9,181.9 L167.8,184.8 L168.8,185.5 L171.5,187.6 L175.4,188.4 L199.7,187.6 L316.3,183.5" fill="none" stroke="#cf828d" stroke-width="1.5" stroke-dasharray="1.6 3.0" opacity="0.62" stroke-linecap="round" stroke-linejoin="round"></path><path d="M136.4,188.9 L148.9,188.7 L164.7,188.5 L167.0,186.8" fill="none" stroke="#cf828d" stroke-width="1.5" stroke-dasharray="1.6 3.0" opacity="0.62" stroke-linecap="round" stroke-linejoin="round"></path><path d="M136.4,188.9 L132.4,184.9" fill="none" stroke="#cf828d" stroke-width="1.5" stroke-dasharray="1.6 3.0" opacity="0.62" stroke-linecap="round" stroke-linejoin="round"></path><path d="M167.0,186.8 L168.8,185.5" fill="none" stroke="#cf828d" stroke-width="1.5" stroke-dasharray="1.6 3.0" opacity="0.62" stroke-linecap="round" stroke-linejoin="round"></path><path d="M-38.7,237.8 L-38.7,234.0 L-37.5,230.5 L-35.1,226.7 L-31.5,222.8 L-27.9,221.2 L-24.0,220.6 L124.8,215.7 L129.5,217.1 L133.1,220.1 L133.9,220.7 L136.7,224.9 L137.8,228.8 L139.5,275.1 L154.7,827.9" fill="none" stroke="#cf828d" stroke-width="1.5" stroke-dasharray="1.6 3.0" opacity="0.62" stroke-linecap="round" stroke-linejoin="round"></path><path d="M-20.9,861.4 L-38.7,237.8" fill="none" stroke="#cf828d" stroke-width="1.5" stroke-dasharray="1.6 3.0" opacity="0.62" stroke-linecap="round" stroke-linejoin="round"></path><path d="M137.2,215.6 L150.2,215.1 L163.0,214.5" fill="none" stroke="#cf828d" stroke-width="1.5" stroke-dasharray="1.6 3.0" opacity="0.62" stroke-linecap="round" stroke-linejoin="round"></path><path d="M137.2,215.6 L133.1,220.1" fill="none" stroke="#cf828d" stroke-width="1.5" stroke-dasharray="1.6 3.0" opacity="0.62" stroke-linecap="round" stroke-linejoin="round"></path><path d="M314.6,208.9 L178.4,213.4 L174.3,214.0 L169.9,215.9 L166.9,218.4 L164.0,223.1 L163.0,227.1 L181.3,866.6" fill="none" stroke="#cf828d" stroke-width="1.5" stroke-dasharray="1.6 3.0" opacity="0.62" stroke-linecap="round" stroke-linejoin="round"></path><path d="M163.0,214.5 L166.9,218.4" fill="none" stroke="#cf828d" stroke-width="1.5" stroke-dasharray="1.6 3.0" opacity="0.62" stroke-linecap="round" stroke-linejoin="round"></path><path d="M159.1,576.3 L150.5,220.5 L150.2,215.1 L149.6,202.2 L148.9,188.7 L148.8,184.3 L135.2,-237.9" fill="none" stroke="#cec8bb" stroke-width="4.8" stroke-linecap="round" stroke-linejoin="round"/><path d="M159.1,576.3 L150.5,220.5 L150.2,215.1 L149.6,202.2 L148.9,188.7 L148.8,184.3 L135.2,-237.9" fill="none" stroke="#ffffff" stroke-width="3.7" stroke-linecap="round" stroke-linejoin="round"><title>Northwest 33rd Avenue</title></path><path d="M341.8,195.6 L149.6,202.2 L-28.2,208.0 L-33.7,208.2 L-51.9,208.8" fill="none" stroke="#d1c4aa" stroke-width="5.4" stroke-linecap="round" stroke-linejoin="round"/><path d="M341.8,195.6 L149.6,202.2 L-28.2,208.0 L-33.7,208.2 L-51.9,208.8" fill="none" stroke="#f4d99b" stroke-width="4.0" stroke-linecap="round" stroke-linejoin="round"><title>Northwest 11th Street</title></path><text x="82.8" y="204.3" transform="rotate(-1.9 82.8 204.3)" text-anchor="middle" dominant-baseline="central" font-family="Arial, sans-serif" font-size="8.3" textLength="111.6" lengthAdjust="spacing" font-weight="650" paint-order="stroke" stroke="#fffaf0" stroke-width="2.05" stroke-linejoin="round" fill="#6f573d">Northwest 11th Street</text><text x="146.0" y="100.1" transform="rotate(88.2 146.0 100.1)" text-anchor="middle" dominant-baseline="central" font-family="Arial, sans-serif" font-size="8.3" textLength="111.6" lengthAdjust="spacing" font-weight="650" paint-order="stroke" stroke="#fffaf0" stroke-width="2.05" stroke-linejoin="round" fill="#695f54">Northwest 33rd Avenue</text><text x="15.0" y="62.1" text-anchor="middle" font-family="Arial, sans-serif" font-size="6.5" textLength="18.0" lengthAdjust="spacing" font-weight="500" paint-order="stroke" stroke="#f3f5ee" stroke-width="1.55" stroke-linejoin="round" fill="#6f777a">1139</text><text x="205.5" y="114.8" text-anchor="middle" font-family="Arial, sans-serif" font-size="6.5" textLength="18.0" lengthAdjust="spacing" font-weight="500" paint-order="stroke" stroke="#f3f5ee" stroke-width="1.55" stroke-linejoin="round" fill="#6f777a">1121</text><text x="95.3" y="172.9" text-anchor="middle" font-family="Arial, sans-serif" font-size="6.5" textLength="18.0" lengthAdjust="spacing" font-weight="500" paint-order="stroke" stroke="#f3f5ee" stroke-width="1.55" stroke-linejoin="round" fill="#6f777a">3301</text><text x="202.1" y="144.1" text-anchor="middle" font-family="Arial, sans-serif" font-size="6.5" textLength="18.0" lengthAdjust="spacing" font-weight="500" paint-order="stroke" stroke="#f3f5ee" stroke-width="1.55" stroke-linejoin="round" fill="#6f777a">1113</text><text x="94.3" y="143.2" text-anchor="middle" font-family="Arial, sans-serif" font-size="6.5" textLength="18.0" lengthAdjust="spacing" font-weight="500" paint-order="stroke" stroke="#f3f5ee" stroke-width="1.55" stroke-linejoin="round" fill="#6f777a">1110</text><text x="183.8" y="87.8" text-anchor="middle" font-family="Arial, sans-serif" font-size="6.5" textLength="18.0" lengthAdjust="spacing" font-weight="500" paint-order="stroke" stroke="#f3f5ee" stroke-width="1.55" stroke-linejoin="round" fill="#6f777a">1127</text><text x="213.5" y="169.0" text-anchor="middle" font-family="Arial, sans-serif" font-size="6.5" textLength="18.0" lengthAdjust="spacing" font-weight="500" paint-order="stroke" stroke="#f3f5ee" stroke-width="1.55" stroke-linejoin="round" fill="#6f777a">3293</text><text x="215.8" y="26.7" text-anchor="middle" font-family="Arial, sans-serif" font-size="6.5" textLength="18.0" lengthAdjust="spacing" font-weight="500" paint-order="stroke" stroke="#f3f5ee" stroke-width="1.55" stroke-linejoin="round" fill="#6f777a">1145</text><text x="103.3" y="31.7" text-anchor="middle" font-family="Arial, sans-serif" font-size="6.5" textLength="18.0" lengthAdjust="spacing" font-weight="500" paint-order="stroke" stroke="#f3f5ee" stroke-width="1.55" stroke-linejoin="round" fill="#6f777a">1150</text><text x="106.2" y="116.0" text-anchor="middle" font-family="Arial, sans-serif" font-size="6.5" textLength="18.0" lengthAdjust="spacing" font-weight="500" paint-order="stroke" stroke="#f3f5ee" stroke-width="1.55" stroke-linejoin="round" fill="#6f777a">1122</text><text x="92.7" y="88.2" text-anchor="middle" font-family="Arial, sans-serif" font-size="6.5" textLength="18.0" lengthAdjust="spacing" font-weight="500" paint-order="stroke" stroke="#f3f5ee" stroke-width="1.55" stroke-linejoin="round" fill="#6f777a">1128</text><text x="183.8" y="228.9" text-anchor="middle" font-family="Arial, sans-serif" font-size="6.5" textLength="18.0" lengthAdjust="spacing" font-weight="500" paint-order="stroke" stroke="#f3f5ee" stroke-width="1.55" stroke-linejoin="round" fill="#6f777a">1055</text><text x="93.7" y="224.1" text-anchor="middle" font-family="Arial, sans-serif" font-size="6.5" textLength="18.0" lengthAdjust="spacing" font-weight="500" paint-order="stroke" stroke="#f3f5ee" stroke-width="1.55" stroke-linejoin="round" fill="#6f777a">1048</text><text x="15.0" y="226.5" text-anchor="middle" font-family="Arial, sans-serif" font-size="6.5" textLength="18.0" lengthAdjust="spacing" font-weight="500" paint-order="stroke" stroke="#f3f5ee" stroke-width="1.55" stroke-linejoin="round" fill="#6f777a">3350</text><text x="93.9" y="246.0" text-anchor="middle" font-family="Arial, sans-serif" font-size="6.5" textLength="18.0" lengthAdjust="spacing" font-weight="500" paint-order="stroke" stroke="#f3f5ee" stroke-width="1.55" stroke-linejoin="round" fill="#6f777a">1044</text><text x="199.2" y="49.4" text-anchor="middle" font-family="Arial, sans-serif" font-size="6.5" textLength="18.0" lengthAdjust="spacing" font-weight="500" paint-order="stroke" stroke="#f3f5ee" stroke-width="1.55" stroke-linejoin="round" fill="#6f777a">1135</text><text x="241.0" y="246.0" text-anchor="middle" font-family="Arial, sans-serif" font-size="6.5" textLength="18.0" lengthAdjust="spacing" font-weight="500" paint-order="stroke" stroke="#f3f5ee" stroke-width="1.55" stroke-linejoin="round" fill="#6f777a">3294</text><g opacity="0.56"><title>crossing</title><path d="M146.6,186.9 L151.2,186.9 M146.6,188.7 L151.2,188.7 M146.6,190.5 L151.2,190.5" stroke="#ffffff" stroke-width="2.1" stroke-linecap="round"/><path d="M146.6,186.9 L151.2,186.9 M146.6,188.7 L151.2,188.7 M146.6,190.5 L151.2,190.5" stroke="#59656a" stroke-width="0.85" stroke-linecap="round"/></g><g opacity="0.56"><title>crossing</title><path d="M147.9,213.3 L152.5,213.3 M147.9,215.1 L152.5,215.1 M147.9,216.9 L152.5,216.9" stroke="#ffffff" stroke-width="2.1" stroke-linecap="round"/><path d="M147.9,213.3 L152.5,213.3 M147.9,215.1 L152.5,215.1 M147.9,216.9 L152.5,216.9" stroke="#59656a" stroke-width="0.85" stroke-linecap="round"/></g></svg>