<svg xmlns="http://www.w3.org/2000/svg" width="256" height="256" viewBox="0 0 256 256"><rect width="256" height="256" fill="#f1efe7"/><path d="M82.0,188.2 L82.5,225.1 L63.7,225.4 L63.5,209.9 L42.0,210.2 L42.2,225.7 L22.7,226.0 L22.2,189.0 L82.0,188.2 Z" fill="#d6d2c9" stroke="#bab6ad" stroke-width="0.4"></path><path d="M99.0,123.9 L99.5,137.7 L108.7,137.4 L109.0,144.3 L115.9,144.1 L116.4,162.1 L26.9,164.7 L25.8,126.0 L99.0,123.9 Z" fill="#d6d2c9" stroke="#bab6ad" stroke-width="0.4"></path><path d="M117.1,24.1 L117.3,33.6 L168.0,32.2 L168.3,42.2 L185.0,41.7 L185.5,58.1 L168.8,58.6 L169.0,64.2 L94.9,66.3 L94.4,50.8 L87.6,51.0 L87.2,34.9 L97.2,34.6 L96.9,24.6 L117.1,24.1 Z" fill="#d6d2c9" stroke="#bab6ad" stroke-width="0.4"></path><path d="M181.2,202.7 L181.7,220.2 L166.8,220.7 L166.2,203.1 L161.4,203.2 L162.1,222.7 L141.0,223.3 L140.4,204.3 L135.8,204.4 L136.4,221.8 L119.8,222.4 L118.7,187.5 L184.4,185.4 L185.0,202.6 L181.2,202.7 Z" fill="#d6d2c9" stroke="#bab6ad" stroke-width="0.4"></path><path d="M124.7,241.2 L112.7,241.2 L24.5,244.6 L20.7,244.1 L17.7,243.1 L13.9,241.2 L11.9,239.0 L9.8,236.2 L8.3,232.0 L7.9,227.6 L6.7,172.2 L5.7,134.3 L5.8,126.5 L6.8,121.6 L8.3,117.8 L10.5,115.0 L13.8,113.2 L17.5,112.0 L89.0,109.8 L132.5,108.4 L140.2,108.2 L207.4,106.6 L213.3,108.1 L216.8,112.9 L217.3,119.0 L216.4,124.8 L208.5,162.2 L203.9,183.5 L199.5,203.7 L195.6,224.4 L193.5,229.2 L190.4,233.0 L186.5,236.4 L183.1,238.2 L178.9,239.3 L172.1,239.8 L124.7,241.2" fill="none" stroke="#cf828d" stroke-width="1.5" stroke-dasharray="1.6 3.0" opacity="0.62" stroke-linecap="round" stroke-linejoin="round"></path><path d="M-22.4,116.6 L-5.6,116.0 L6.7,115.5" fill="none" stroke="#cf828d" stroke-width="1.5" stroke-dasharray="1.6 3.0" opacity="0.62" stroke-linecap="round" stroke-linejoin="round"></path><path d="M10.6,245.1 L-3.0,244.6 L-18.5,244.0" fill="none" stroke="#cf828d" stroke-width="1.5" stroke-dasharray="1.6 3.0" opacity="0.62" stroke-linecap="round" stroke-linejoin="round"></path><path d="M218.1,103.8 L237.5,102.6 L253.2,101.6" fill="none" stroke="#cf828d" stroke-width="1.5" stroke-dasharray="1.6 3.0" opacity="0.62" stroke-linecap="round" stroke-linejoin="round"></path><path d="M10.6,245.1 L13.9,241.2" fill="none" stroke="#cf828d" stroke-width="1.5" stroke-dasharray="1.6 3.0" opacity="0.62" stroke-linecap="round" stroke-linejoin="round"></path><path d="M186.5,236.4 L190.5,244.7" fill="none" stroke="#cf828d" stroke-width="1.5" stroke-dasharray="1.6 3.0" opacity="0.62" stroke-linecap="round" stroke-linejoin="round"></path><path d="M190.5,244.7 L189.9,251.5 L189.0,262.9" fill="none" stroke="#cf828d" stroke-width="1.5" stroke-dasharray="1.6 3.0" opacity="0.62" stroke-linecap="round" stroke-linejoin="round"></path><path d="M428.7,108.1 L269.7,113.0 L263.5,112.3 L259.6,109.0 L253.2,101.6" fill="none" stroke="#cf828d" stroke-width="1.5" stroke-dasharray="1.6 3.0" opacity="0.62" stroke-linecap="round" stroke-linejoin="round"></path><path d="M218.1,103.8 L213.3,108.1" fill="none" stroke="#cf828d" stroke-width="1.5" stroke-dasharray="1.6 3.0" opacity="0.62" stroke-linecap="round" stroke-linejoin="round"></path><path d="M6.7,115.5 L8.3,117.8" fill="none" stroke="#cf828d" stroke-width="1.5" stroke-dasharray="1.6 3.0" opacity="0.62" stroke-linecap="round" stroke-linejoin="round"></path><path d="M89.0,107.6 L88.5,91.8 L88.0,76.5" fill="none" stroke="#cf828d" stroke-width="1.5" stroke-dasharray="1.6 3.0" opacity="0.62" stroke-linecap="round" stroke-linejoin="round"></path><path d="M89.0,107.6 L89.0,109.8" fill="none" stroke="#cf828d" stroke-width="1.5" stroke-dasharray="1.6 3.0" opacity="0.62" stroke-linecap="round" stroke-linejoin="round"></path><path d="M258.6,-8.4 L258.9,-2.4 L259.1,5.7 L261.4,57.5 L261.0,61.2 L259.9,63.2 L259.2,64.5 L257.2,66.1 L254.5,67.5 L250.6,68.8 L247.3,69.2" fill="none" stroke="#cf828d" stroke-width="1.5" stroke-dasharray="1.6 3.0" opacity="0.62" stroke-linecap="round" stroke-linejoin="round"></path><path d="M219.5,185.1 L213.5,191.6 L207.7,220.4 L204.8,234.8 L208.8,250.8" fill="none" stroke="#8fb58e" stroke-width="1.9" opacity="0.58" stroke-linecap="round" stroke-linejoin="round"></path><path d="M-4.1,172.2 L6.7,172.2 L126.6,169.4 L133.2,163.7 L208.5,162.2 L224.2,162.2" fill="none" stroke="#cec8bb" stroke-width="3.5" stroke-linecap="round" stroke-linejoin="round"/><path d="M-4.1,172.2 L6.7,172.2 L126.6,169.4 L133.2,163.7 L208.5,162.2 L224.2,162.2" fill="none" stroke="#ffffff" stroke-width="2.5" stroke-linecap="round" stroke-linejoin="round"></path><path d="M132.3,90.0 L132.5,108.4 L133.2,163.7" fill="none" stroke="#cec8bb" stroke-width="3.5" stroke-linecap="round" stroke-linejoin="round"/><path d="M132.3,90.0 L132.5,108.4 L133.2,163.7" fill="none" stroke="#ffffff" stroke-width="2.5" stroke-linecap="round" stroke-linejoin="round"></path><path d="M269.2,-2.6 L258.9,-2.4 L191.6,-0.5 L183.7,12.6 L69.0,15.9 L-15.0,16.6" fill="none" stroke="#cec8bb" stroke-width="3.5" stroke-linecap="round" stroke-linejoin="round"/><path d="M269.2,-2.6 L258.9,-2.4 L191.6,-0.5 L183.7,12.6 L69.0,15.9 L-15.0,16.6" fill="none" stroke="#ffffff" stroke-width="2.5" stroke-linecap="round" stroke-linejoin="round"></path><path d="M67.8,92.6 L68.3,42.5 L69.0,15.9" fill="none" stroke="#cec8bb" stroke-width="3.5" stroke-linecap="round" stroke-linejoin="round"/><path d="M67.8,92.6 L68.3,42.5 L69.0,15.9" fill="none" stroke="#ffffff" stroke-width="2.5" stroke-linecap="round" stroke-linejoin="round"></path><path d="M189.9,86.9 L189.4,36.0 L181.2,29.0 L183.7,12.6" fill="none" stroke="#cec8bb" stroke-width="3.5" stroke-linecap="round" stroke-linejoin="round"/><path d="M189.9,86.9 L189.4,36.0 L181.2,29.0 L183.7,12.6" fill="none" stroke="#ffffff" stroke-width="2.5" stroke-linecap="round" stroke-linejoin="round"></path><path d="M219.5,185.1 L203.9,183.5 L201.1,183.3 L178.5,181.6" fill="none" stroke="#cec8bb" stroke-width="3.5" stroke-linecap="round" stroke-linejoin="round"/><path d="M219.5,185.1 L203.9,183.5 L201.1,183.3 L178.5,181.6" fill="none" stroke="#ffffff" stroke-width="2.5" stroke-linecap="round" stroke-linejoin="round"></path><path d="M178.5,181.6 L111.7,184.1 L112.7,241.2 L112.6,254.5" fill="none" stroke="#cec8bb" stroke-width="3.5" stroke-linecap="round" stroke-linejoin="round"/><path d="M178.5,181.6 L111.7,184.1 L112.7,241.2 L112.6,254.5" fill="none" stroke="#ffffff" stroke-width="2.5" stroke-linecap="round" stroke-linejoin="round"></path><path d="M5.2,44.9 L68.3,42.5" fill="none" stroke="#cec8bb" stroke-width="3.5" stroke-linecap="round" stroke-linejoin="round"/><path d="M5.2,44.9 L68.3,42.5" fill="none" stroke="#ffffff" stroke-width="2.5" stroke-linecap="round" stroke-linejoin="round"></path><path d="M241.5,84.1 L237.5,102.6 L236.2,109.2 L224.2,162.2 L219.5,185.1" fill="none" stroke="#cec8bb" stroke-width="4.8" stroke-linecap="round" stroke-linejoin="round"/><path d="M241.5,84.1 L237.5,102.6 L236.2,109.2 L224.2,162.2 L219.5,185.1" fill="none" stroke="#ffffff" stroke-width="3.7" stroke-linecap="round" stroke-linejoin="round"><title>Southwest 33rd Avenue</title></path><path d="M208.8,250.8 L189.9,251.5 L185.5,251.6 L112.6,254.5 L14.3,257.6 L-2.5,257.8 L-20.4,258.5 L-183.0,263.6" fill="none" stroke="#cec8bb" stroke-width="4.8" stroke-linecap="round" stroke-linejoin="round"/><path d="M208.8,250.8 L189.9,251.5 L185.5,251.6 L112.6,254.5 L14.3,257.6 L-2.5,257.8 L-20.4,258.5 L-183.0,263.6" fill="none" stroke="#ffffff" stroke-width="3.7" stroke-linecap="round" stroke-linejoin="round"><title>Southwest 9th Street</title></path><path d="M-9.2,95.1 L-5.6,116.0 L-4.6,122.0 L-4.1,172.2 L-3.9,193.0 L-3.0,244.6 L-2.5,257.8 L-2.2,270.7 L-0.7,333.5" fill="none" stroke="#cec8bb" stroke-width="4.8" stroke-linecap="round" stroke-linejoin="round"/><path d="M-9.2,95.1 L-5.6,116.0 L-4.6,122.0 L-4.1,172.2 L-3.9,193.0 L-3.0,244.6 L-2.5,257.8 L-2.2,270.7 L-0.7,333.5" fill="none" stroke="#ffffff" stroke-width="3.7" stroke-linecap="round" stroke-linejoin="round"><title>Southwest 34th Avenue</title></path><path d="M208.8,250.8 L215.7,232.3 L222.4,195.0 L219.5,185.1" fill="none" stroke="#cec8bb" stroke-width="4.8" stroke-linecap="round" stroke-linejoin="round"/><path d="M208.8,250.8 L215.7,232.3 L222.4,195.0 L219.5,185.1" fill="none" stroke="#ffffff" stroke-width="3.7" stroke-linecap="round" stroke-linejoin="round"><title>Southwest 33rd Avenue</title></path><path d="M208.8,250.8 L202.6,268.8 L204.8,384.8" fill="none" stroke="#cec8bb" stroke-width="4.8" stroke-linecap="round" stroke-linejoin="round"/><path d="M208.8,250.8 L202.6,268.8 L204.8,384.8" fill="none" stroke="#ffffff" stroke-width="3.7" stroke-linecap="round" stroke-linejoin="round"><title>Southwest 33rd Avenue</title></path><path d="M218.1,380.0 L215.9,268.4 L208.8,250.8" fill="none" stroke="#cec8bb" stroke-width="4.8" stroke-linecap="round" stroke-linejoin="round"/><path d="M218.1,380.0 L215.9,268.4 L208.8,250.8" fill="none" stroke="#ffffff" stroke-width="3.7" stroke-linecap="round" stroke-linejoin="round"><title>Southwest 33rd Avenue</title></path><path d="M132.3,90.0 L189.9,86.9 L241.5,84.1 L273.1,83.1 L281.1,82.9 L288.2,82.7 L426.9,78.4" fill="none" stroke="#d1c4aa" stroke-width="7.3" stroke-linecap="round" stroke-linejoin="round"/><path d="M132.3,90.0 L189.9,86.9 L241.5,84.1 L273.1,83.1 L281.1,82.9 L288.2,82.7 L426.9,78.4" fill="none" stroke="#efb36f" stroke-width="5.9" stroke-linecap="round" stroke-linejoin="round"><title>Southwest 8th Street</title></path><path d="M-9.2,95.1 L61.5,92.8 L67.8,92.6" fill="none" stroke="#d1c4aa" stroke-width="7.3" stroke-linecap="round" stroke-linejoin="round"/><path d="M-9.2,95.1 L61.5,92.8 L67.8,92.6" fill="none" stroke="#efb36f" stroke-width="5.9" stroke-linecap="round" stroke-linejoin="round"><title>Southwest 8th Street</title></path><path d="M67.8,92.6 L88.5,91.8 L115.9,90.7 L132.3,90.0" fill="none" stroke="#d1c4aa" stroke-width="7.3" stroke-linecap="round" stroke-linejoin="round"/><path d="M67.8,92.6 L88.5,91.8 L115.9,90.7 L132.3,90.0" fill="none" stroke="#efb36f" stroke-width="5.9" stroke-linecap="round" stroke-linejoin="round"><title>Southwest 8th Street</title></path><g><rect x="143.3" y="81.4" width="35.5" height="14.0" rx="3" fill="#ffffff" stroke="#8a8f96" stroke-width="1"/><text x="161.1" y="88.8" text-anchor="middle" dominant-baseline="central" font-family="Arial, sans-serif" font-size="8" font-weight="700" fill="#56616a">US 41</text></g><text x="52.6" y="212.4" text-anchor="middle" font-family="Arial, sans-serif" font-size="6.5" textLength="18.0" lengthAdjust="spacing" font-weight="500" paint-order="stroke" stroke="#f3f5ee" stroke-width="1.55" stroke-linejoin="round" fill="#6f777a">3337</text><text x="87.6" y="142.5" text-anchor="middle" font-family="Arial, sans-serif" font-size="6.5" textLength="18.0" lengthAdjust="spacing" font-weight="500" paint-order="stroke" stroke="#f3f5ee" stroke-width="1.55" stroke-linejoin="round" fill="#6f777a">3390</text><text x="131.2" y="44.1" text-anchor="middle" font-family="Arial, sans-serif" font-size="6.5" textLength="18.0" lengthAdjust="spacing" font-weight="500" paint-order="stroke" stroke="#f3f5ee" stroke-width="1.55" stroke-linejoin="round" fill="#6f777a">3333</text><text x="155.8" y="208.9" text-anchor="middle" font-family="Arial, sans-serif" font-size="6.5" textLength="18.0" lengthAdjust="spacing" font-weight="500" paint-order="stroke" stroke="#f3f5ee" stroke-width="1.55" stroke-linejoin="round" fill="#6f777a">3301</text><text x="215.8" y="30.3" text-anchor="middle" font-family="Arial, sans-serif" font-size="6.5" textLength="18.0" lengthAdjust="spacing" font-weight="500" paint-order="stroke" stroke="#f3f5ee" stroke-width="1.55" stroke-linejoin="round" fill="#6f777a">3301</text><text x="181.5" y="137.3" text-anchor="middle" font-family="Arial, sans-serif" font-size="6.5" textLength="18.0" lengthAdjust="spacing" font-weight="500" paint-order="stroke" stroke="#f3f5ee" stroke-width="1.55" stroke-linejoin="round" fill="#6f777a">3300</text><g><title>signal</title><rect x="58.8" y="87.6" width="5.4" height="10.4" rx="2.1" fill="#3f4b52" stroke="#ffffff" stroke-width="1.1"/><circle cx="61.5" cy="90.0" r="1.1" fill="#d85a4f"/><circle cx="61.5" cy="92.8" r="1.1" fill="#e2b84b"/><circle cx="61.5" cy="95.6" r="1.1" fill="#55a86b"/></g><g><title>signal</title><rect x="113.2" y="85.5" width="5.4" height="10.4" rx="2.1" fill="#3f4b52" stroke="#ffffff" stroke-width="1.1"/><circle cx="115.9" cy="87.9" r="1.1" fill="#d85a4f"/><circle cx="115.9" cy="90.7" r="1.1" fill="#e2b84b"/><circle cx="115.9" cy="93.5" r="1.1" fill="#55a86b"/></g><g opacity="0.56"><title>crossing</title><path d="M235.2,100.8 L239.8,100.8 M235.2,102.6 L239.8,102.6 M235.2,104.4 L239.8,104.4" stroke="#ffffff" stroke-width="2.1" stroke-linecap="round"/><path d="M235.2,100.8 L239.8,100.8 M235.2,102.6 L239.8,102.6 M235.2,104.4 L239.8,104.4" stroke="#59656a" stroke-width="0.85" stroke-linecap="round"/></g><g opacity="0.56"><title>crossing</title><path d="M86.2,90.0 L90.8,90.0 M86.2,91.8 L90.8,91.8 M86.2,93.6 L90.8,93.6" stroke="#ffffff" stroke-width="2.1" stroke-linecap="round"/><path d="M86.2,90.0 L90.8,90.0 M86.2,91.8 L90.8,91.8 M86.2,93.6 L90.8,93.6" stroke="#59656a" stroke-width="0.85" stroke-linecap="round"/></g></svg>