<svg xmlns="http://www.w3.org/2000/svg" width="256" height="256" viewBox="0 0 256 256"><rect width="256" height="256" fill="#f1efe7"/><path d="M1045.2,-232.5 L501.0,-634.2 L457.5,-666.2 L410.3,-676.5 L377.0,-704.5 L350.4,-707.6 L264.4,-701.9 L264.5,-710.0 L259.7,-717.6 L250.1,-723.5 L63.3,-804.4 L50.6,-810.2 L39.5,-813.4 L25.7,-814.5 L11.8,-814.8 L-34.6,-814.8 L-46.9,-815.5 L-59.0,-817.9 L-71.8,-822.9 L-87.2,-827.0 L-98.4,-828.0 L-131.3,-829.4 L-142.3,-831.4 L-156.3,-835.9 L-170.0,-839.4 L-183.3,-842.5 L-193.7,-846.7 L-206.3,-854.5 L-217.5,-862.9 L-228.4,-871.1 L-237.3,-875.3 L-244.1,-876.7 L-250.2,-876.3 L-256.7,-874.5 L-264.3,-870.6 L-270.3,-864.0 L-278.4,-856.1 L-287.4,-847.8 L-297.6,-842.2 L-310.5,-838.0 L-321.2,-835.4 L-334.1,-833.4 L-355.7,-830.9 L-409.9,-828.3 L-455.9,-826.0 L-475.7,-818.9 L-516.3,-817.5 L-521.8,-826.0 L-527.9,-829.9 L-534.2,-831.1 L-578.0,-828.6 L-597.0,-821.8 L-620.3,-821.6 L-636.0,-823.9 L-648.9,-827.8 L-696.0,-825.0 L-820.6,-815.3 L-849.3,-814.5 L-859.1,-814.7 L-867.9,-816.9 L-878.1,-822.0 L-885.6,-828.0 L-918.0,-827.9 L-945.1,-828.3 L-952.4,-823.8 L-989.7,-822.9 L-994.5,-815.0 L-999.8,-814.8 L-1009.0,-817.0 L-1025.5,-819.0 L-1042.5,-818.1 L-1047.7,-816.5 L-1053.0,-817.4 L-1056.6,-820.9 L-1062.7,-824.4 L-1085.4,-824.3 L-1108.3,-823.1 L-1130.0,-810.3 L-1140.7,-805.2 L-1152.9,-802.5 L-1163.0,-801.8 L-1172.1,-803.2 L-1193.1,-812.2 L-1205.1,-816.0 L-1215.3,-817.5 L-1260.0,-816.9 L-1262.8,-822.3 L-1302.3,-821.4 L-1329.5,-816.4 L-1347.4,-814.3 L-1357.0,-812.2 L-1360.7,-814.7 L-1367.5,-815.6 L-1431.2,-821.4 L-1436.7,-818.4 L-1443.4,-817.0 L-1452.2,-816.9 L-1452.2,-820.1 L-1491.7,-827.5 L-1516.6,-832.3 L-1576.8,-852.5 L-1580.1,-848.0 L-1620.3,-860.4 L-1628.7,-863.2 L-1624.6,-877.2 L-1629.4,-878.7 L-1630.4,-880.2 L-1633.0,-881.0 L-1636.6,-881.5 L-1641.0,-883.7 L-1639.5,-885.0 L-1657.3,-899.5 L-1686.9,-926.3 L-1702.8,-940.3 L-1714.1,-952.6 L-1720.4,-960.9 L-1729.8,-973.7 L-1735.2,-983.6 L-1752.0,-1004.7 L-1753.6,-1005.9 L-1754.7,-1006.0 L-1755.9,-1005.8 L-1758.1,-1005.7 L-1760.1,-1006.7 L-1764.3,-1009.4 L-1772.9,-1013.9 L-1777.1,-1017.5 L-1782.0,-1021.8 L-1788.7,-1025.4 L-1799.2,-1028.7 L-1810.3,-1030.7 L-1819.8,-1030.9 L-1817.1,-1056.1 L-1814.9,-1089.0 L-1804.6,-1088.0 L-1794.3,-1086.2 L-1780.8,-1082.2 L-1770.9,-1078.5 L-1762.0,-1074.4 L-1753.4,-1070.4 L-1745.3,-1065.8 L-1738.7,-1060.7 L-1729.9,-1053.9 L-1720.7,-1047.0 L-1718.6,-1045.7 L-1716.7,-1045.3 L-1691.5,-1046.4 L-1691.2,-1040.7 L-1692.7,-1038.2 L-1711.6,-1036.4 L-1706.8,-1026.6 L-1703.5,-1027.8 L-1700.5,-1024.8 L-1698.6,-1021.9 L-1697.0,-1019.7 L-1693.1,-1014.5 L-1691.6,-1008.8 L-1685.5,-1000.4 L-1671.1,-991.3 L-1653.2,-982.2 L-1631.8,-968.7 L-1622.0,-964.1 L-1601.4,-952.4 L-1591.7,-947.3 L-1574.0,-940.8 L-1539.2,-931.5 L-1518.8,-926.6 L-1500.2,-924.7 L-1490.3,-923.4 L-1488.1,-923.6 L-1487.2,-924.9 L-1486.9,-931.5 L-1463.8,-931.5 L-1463.3,-924.1 L-1414.9,-921.6 L-1367.7,-920.2 L-1335.6,-921.4 L-1325.0,-922.2 L-1317.3,-923.2 L-1311.0,-925.0 L-1305.2,-928.5 L-1302.3,-933.2 L-1303.4,-1010.7 L-1283.9,-1011.8 L-1282.2,-936.2 L-1281.1,-934.3 L-1277.2,-931.6 L-1272.7,-930.3 L-1169.3,-930.1 L-1169.8,-963.4 L-1161.7,-963.6 L-1158.3,-930.1 L-1094.5,-930.7 L-1094.5,-934.3 L-1088.2,-934.4 L-1088.0,-931.8 L-662.5,-939.9 L-631.7,-943.5 L-594.1,-944.6 L-558.5,-939.9 L-546.6,-940.9 L-537.9,-942.6 L-529.8,-945.5 L-519.3,-949.5 L-305.4,-953.3 L-305.5,-968.1 L-185.8,-970.2 L-185.7,-953.9 L-134.9,-952.1 L-131.0,-952.2 L-127.4,-952.5 L-122.7,-953.1 L-118.9,-954.1 L-115.2,-955.3 L-108.9,-958.3 L-106.0,-953.3 L-99.8,-957.2 L-94.1,-961.8 L-89.3,-966.8 L-85.1,-972.7 L-81.2,-980.0 L-88.5,-984.1 L-86.5,-990.2 L-85.2,-996.5 L-84.5,-1002.5 L-84.4,-1007.2 L-84.6,-1011.6 L-85.3,-1049.5 L-91.4,-1055.1 L-86.2,-1060.6 L-91.5,-1065.2 L-85.5,-1072.3 L-92.0,-1078.0 L-86.8,-1083.5 L-92.0,-1088.5 L-85.9,-1095.0 L-92.2,-1101.4 L-79.1,-1115.8 L-76.8,-1115.9 L-82.5,-1330.4 L-34.4,-1331.5 L-32.1,-1330.3 L-29.5,-1328.3 L-27.6,-1326.6 L-26.8,-1324.6 L-26.1,-1322.2 L-25.9,-1319.8 L-21.8,-986.5 L-19.9,-975.7 L-17.2,-968.4 L-13.0,-959.4 L-8.1,-950.6 L-3.0,-943.6 L1.1,-939.3 L5.5,-935.9 L10.6,-932.9 L15.9,-930.9 L23.1,-928.8 L32.0,-927.1 L42.8,-925.1 L55.4,-922.8 L67.4,-920.2 L80.7,-917.8 L93.3,-915.1 L97.3,-914.3 L102.2,-913.3 L107.0,-912.7 L111.2,-912.6 L116.0,-912.6 L119.7,-912.8 L123.4,-913.5 L126.6,-914.3 L130.0,-915.3 L132.9,-916.6 L138.7,-919.4 L143.8,-922.4 L148.9,-926.1 L154.8,-931.8 L160.3,-938.0 L163.3,-943.3 L166.0,-949.8 L167.4,-955.1 L168.2,-960.8 L168.7,-966.2 L168.7,-971.2 L161.4,-1328.4 L171.8,-1339.1 L175.6,-1339.5 L177.1,-1340.9 L198.8,-1341.5 L200.7,-1344.7 L204.0,-1343.8 L209.5,-1338.7 L213.3,-1333.4 L217.1,-1326.8 L224.3,-927.6 L225.0,-920.6 L226.3,-906.7 L227.6,-903.9 L226.6,-903.2 L228.4,-899.3 L230.7,-894.7 L232.7,-891.8 L235.1,-888.3 L238.4,-884.5 L242.3,-880.5 L247.0,-876.5 L251.2,-873.4 L255.8,-870.9 L260.2,-868.7 L264.9,-867.2 L265.5,-868.6 L331.7,-844.6 L340.0,-841.5 L343.8,-840.1 L349.7,-838.0 L354.0,-837.0 L357.7,-836.5 L361.1,-836.5 L365.9,-836.9 L371.1,-837.4 L375.7,-838.4 L380.4,-839.7 L383.9,-841.1 L387.6,-842.8 L390.6,-844.7 L394.4,-847.5 L399.2,-851.7 L403.6,-856.0 L408.4,-862.0 L411.8,-867.6 L414.6,-873.8 L416.6,-880.7 L417.8,-887.7 L418.5,-900.2 L418.2,-925.7 L410.9,-1331.8 L410.9,-1336.3 L411.7,-1339.5 L413.1,-1342.1 L416.0,-1344.5 L419.3,-1346.2 L423.0,-1346.8 L453.1,-1347.8 L456.7,-1347.2 L459.9,-1345.8 L462.2,-1343.6 L464.8,-1339.8 L466.3,-1334.4 L467.2,-1327.1 L474.7,-806.2 L475.1,-803.1 L475.7,-800.0 L476.6,-796.8 L477.7,-793.3 L478.9,-789.8 L480.3,-786.6 L481.5,-783.9 L482.8,-781.5 L484.7,-778.5 L486.8,-775.9 L488.7,-773.5 L491.6,-770.4 L494.4,-767.7 L497.5,-765.2 L500.8,-762.7 L510.0,-756.9 L510.9,-758.0 L519.0,-753.5 L528.6,-748.3 L534.1,-745.3 L540.2,-741.7 L546.5,-738.0 L553.0,-734.0 L560.3,-729.5 L567.5,-725.0 L574.7,-720.7 L580.7,-717.0 L587.4,-712.7 L594.5,-708.1 L601.3,-703.6 L607.6,-699.3 L606.9,-698.4 L615.7,-692.3 L624.8,-686.2 L627.6,-684.5 L630.7,-682.8 L635.1,-680.7 L639.2,-679.2 L643.6,-678.0 L647.5,-677.0 L652.1,-676.3 L657.2,-675.7 L661.6,-675.7 L665.3,-676.0 L668.5,-676.7 L672.6,-677.8 L676.7,-679.1 L680.5,-680.4 L684.0,-682.1 L687.6,-684.0 L691.1,-686.2 L694.7,-689.0 L697.9,-691.9 L701.0,-695.0 L703.9,-698.2 L706.9,-702.6 L709.4,-707.0 L711.8,-711.9 L713.2,-715.7 L714.3,-719.7 L715.1,-724.0 L715.5,-728.3 L715.2,-733.2 L655.9,-1300.9 L660.0,-1301.3 L656.7,-1329.7 L653.7,-1329.5 L651.3,-1342.6 L652.1,-1345.3 L654.6,-1349.3 L659.7,-1353.2 L666.4,-1354.0 L693.3,-1354.9 L697.8,-1354.0 L700.9,-1352.5 L704.2,-1349.9 L706.5,-1347.5 L708.1,-1345.0 L773.1,-708.1 L774.6,-702.6 L777.4,-695.8 L779.8,-691.4 L782.4,-686.7 L785.8,-682.1 L788.6,-678.9 L791.7,-675.7 L795.1,-673.0 L798.1,-670.9 L802.3,-668.2 L806.0,-666.3 L810.9,-664.2 L815.5,-662.8 L820.7,-661.7 L824.7,-661.1 L828.2,-661.0 L832.3,-660.9 L973.5,-663.8 L978.1,-664.4 L982.5,-666.5 L985.7,-669.4 L987.9,-673.8 L988.7,-677.8 L988.5,-681.8 L917.0,-1363.9 L854.0,-1446.1 L851.2,-1443.8 L796.4,-1520.3 L795.4,-1536.5 L793.7,-1539.9 L790.8,-1543.0 L787.1,-1548.2 L786.8,-1555.8 L780.3,-1558.3 L774.0,-1558.4 L765.5,-1554.2 L775.1,-1536.2 L763.0,-1530.4 L753.9,-1538.8 L746.1,-1543.6 L740.8,-1545.4 L727.8,-1545.9 L721.2,-1559.3 L762.7,-1576.3 L760.7,-1579.7 L751.9,-1591.5 L750.5,-1590.8 L441.6,-1995.3 L436.9,-2062.0 L439.4,-2062.6 L427.5,-2184.9 L422.9,-2196.2 L417.9,-2208.9 L414.1,-2218.7 L409.5,-2231.2 L394.5,-2273.3 L388.4,-2270.6 L379.5,-2304.7 L381.0,-2305.0 L349.9,-2389.3 L346.5,-2536.7 L350.1,-2536.7 L350.6,-2549.6 L352.4,-2562.3 L353.1,-2567.0 L351.8,-2570.8 L356.0,-2590.9 L394.3,-2658.7 L374.2,-2670.9 L389.1,-2695.6 L408.5,-2684.2 L410.2,-2686.8 L416.3,-2683.7 L422.9,-2681.1 L430.5,-2678.7 L436.2,-2677.5 L441.6,-2677.3 L448.0,-2678.4 L454.3,-2680.5 L460.5,-2682.9 L463.4,-2686.0 L464.5,-2690.1 L466.0,-2695.0 L466.3,-2697.0 L466.2,-2699.5 L464.8,-2703.4 L462.2,-2707.1 L459.2,-2709.2 L454.8,-2713.4 L451.0,-2717.4 L445.4,-2721.0 L443.1,-2726.7 L440.4,-2732.4 L436.1,-2739.1 L431.2,-2744.9 L422.2,-2751.3 L378.6,-2773.9 L352.8,-2786.7 L328.7,-2799.7 L305.8,-2812.4 L291.0,-2822.0 L285.3,-2823.5 L279.0,-2821.6 L275.5,-2817.3 L268.4,-2799.6 L224.3,-2819.4 L250.7,-2861.1 L256.5,-2863.8 L263.6,-2865.2 L271.9,-2863.4 L437.6,-2766.5 L446.6,-2763.8 L456.0,-2761.5 L469.3,-2761.2 L482.8,-2763.6 L491.4,-2767.1 L500.8,-2774.7 L506.3,-2780.0 L512.2,-2788.3 L512.1,-2789.4 L511.7,-2790.4 L510.8,-2791.2 L457.2,-2824.3 L455.9,-2824.7 L454.5,-2824.8 L453.1,-2824.7 L448.0,-2822.5 L446.1,-2822.3 L444.0,-2822.5 L440.9,-2823.0 L438.5,-2823.7 L435.1,-2825.4 L431.8,-2827.3 L358.1,-2872.3 L323.4,-2896.7 L320.1,-2897.2 L316.8,-2897.1 L312.9,-2897.0 L310.3,-2897.4 L308.1,-2898.4 L305.5,-2900.4 L302.6,-2902.7 L300.6,-2905.5 L299.4,-2908.3 L299.2,-2910.4 L299.5,-2913.1 L300.0,-2915.4 L311.8,-2935.2 L311.8,-2936.1 L310.9,-2936.8 L300.1,-2944.4 L298.0,-2947.5 L299.2,-2949.4 L302.7,-2948.9 L306.5,-2947.8 L328.7,-2934.1 L454.5,-2853.8 L457.1,-2852.3 L458.9,-2850.4 L460.1,-2848.2 L461.4,-2843.6 L462.3,-2840.0 L462.8,-2836.9 L519.6,-2802.8 L521.6,-2801.9 L524.0,-2801.7 L526.8,-2802.1 L528.8,-2802.8 L530.5,-2803.6 L591.6,-2902.5 L617.2,-2940.1 L641.1,-2967.0 L653.2,-2960.3 L661.0,-2972.9 L619.5,-2997.7 L628.3,-3012.1 L669.8,-2987.1 L679.1,-3002.3 L671.6,-3010.7 L679.2,-3019.4 L687.4,-3010.0 L689.4,-3011.5 L691.7,-3013.1 L694.9,-3014.9 L698.2,-3016.5 L702.3,-3018.0 L706.2,-3019.1 L710.4,-3019.8 L714.6,-3020.1 L718.6,-3020.0 L722.5,-3019.4 L726.2,-3018.5 L729.3,-3017.6 L732.0,-3016.4 L735.8,-3014.6 L739.3,-3012.4 L742.3,-3010.3 L745.3,-3007.6 L748.0,-3005.0 L751.0,-3001.1 L753.1,-2997.6 L755.2,-2993.1 L756.6,-2988.6 L757.8,-2982.4 L758.2,-2977.0 L758.1,-2973.9 L757.7,-2970.7 L756.6,-2965.9 L753.8,-2959.3 L752.0,-2955.0 L749.5,-2949.9 L759.9,-2944.7 L808.5,-3002.7 L720.0,-3056.5 L724.5,-3066.1 L727.7,-3075.0 L727.9,-3078.8 L733.0,-3089.7 L743.5,-3099.4 L756.5,-3110.0 L772.0,-3119.9 L801.1,-3128.4 L851.3,-3133.4 L871.1,-3149.4 L875.2,-3150.1 L878.5,-3150.3 L883.2,-3148.5 L887.5,-3148.0 L915.4,-3131.1 L988.8,-3218.2 L719.8,-3389.2 L703.1,-3362.9 L666.8,-3385.9 L718.3,-3466.9 L754.5,-3444.5 L738.4,-3416.9 L1012.1,-3244.4 L1046.6,-3288.7 L1071.0,-3317.7 L1103.2,-3366.1 L1121.0,-3390.5 L1119.2,-3404.4 L1119.7,-3404.8 L1116.5,-3415.1 L1114.4,-3421.5 L1112.4,-3428.1 L1110.0,-3433.8 L1105.4,-3441.3 L1100.8,-3448.6 L1098.8,-3452.4 L1097.3,-3456.2 L1096.2,-3459.7 L1095.8,-3462.8 L1095.3,-3473.0 L977.1,-3581.5 L973.2,-3577.3 L969.9,-3580.1 L960.3,-3570.6 L954.0,-3579.0 L961.6,-3587.8 L954.0,-3597.5 L948.8,-3596.1 L943.4,-3595.9 L938.5,-3596.8 L934.2,-3598.6 L929.2,-3602.3 L923.0,-3608.4 L912.1,-3620.4 L908.8,-3625.5 L907.6,-3631.9 L908.4,-3639.5 L911.3,-3646.5 L913.8,-3651.3 L918.6,-3656.1 L923.9,-3659.7 L929.0,-3661.6 L932.8,-3662.2 L937.8,-3661.3 L942.9,-3659.5 L947.7,-3655.7 L958.8,-3645.7 L964.5,-3640.3 L969.7,-3634.6 L971.4,-3631.9 L972.6,-3629.0 L973.3,-3626.4 L973.8,-3622.8 L973.2,-3619.4 L972.2,-3616.2 L970.8,-3613.8 L970.4,-3612.7 L970.7,-3611.3 L971.5,-3609.9 L1098.4,-3491.0 L1102.8,-3488.0 L1105.9,-3486.7 L1110.3,-3487.7 L1115.5,-3488.1 L1122.1,-3485.3 L1128.7,-3481.2 L1141.6,-3473.9 L1147.0,-3471.3 L1151.9,-3476.1 L1157.3,-3481.3 L1160.9,-3485.4 L1166.9,-3493.2 L1170.3,-3497.9 L1173.9,-3503.7 L1176.2,-3508.8 L1178.7,-3514.2 L1181.0,-3519.9 L1183.1,-3525.7 L1184.3,-3530.6 L1185.7,-3536.8 L1186.3,-3540.5 L1186.7,-3543.5 L1187.4,-3548.8 L1188.1,-3554.0 L1188.4,-3557.4 L1188.6,-3561.1 L1188.6,-3565.4 L1188.4,-3569.0 L1187.7,-3574.0 L1186.9,-3579.7 L1186.1,-3585.0 L1185.6,-3589.3 L1185.0,-3592.5 L1184.3,-3595.9 L1183.5,-3599.3 L1182.3,-3603.3 L1180.9,-3607.3 L1179.8,-3609.7 L1178.6,-3612.1 L1176.9,-3614.4 L1174.6,-3617.7 L1172.1,-3620.8 L1169.4,-3623.4 L1166.0,-3626.2 L1162.5,-3628.4 L1159.0,-3630.3 L1155.8,-3631.5 L1153.6,-3632.2 L1151.1,-3632.5 L1148.1,-3632.4 L1145.3,-3631.8 L1143.1,-3630.9 L1141.0,-3629.4 L1139.5,-3627.8 L1138.3,-3626.3 L1137.4,-3624.0 L1136.9,-3621.5 L1137.0,-3618.5 L1137.2,-3615.0 L1137.2,-3612.4 L1137.0,-3609.8 L1136.6,-3607.2 L1136.1,-3604.9 L1135.2,-3602.5 L1133.8,-3599.9 L1132.1,-3597.4 L1130.4,-3595.1 L1128.7,-3593.5 L1125.3,-3590.8 L1122.5,-3588.9 L1118.1,-3587.6 L1115.5,-3587.0 L1112.5,-3586.6 L1109.8,-3586.5 L1106.2,-3586.7 L1103.6,-3587.2 L1100.0,-3588.0 L1095.0,-3589.5 L1090.8,-3591.1 L1087.7,-3592.3 L1084.4,-3594.1 L1081.5,-3596.1 L1078.3,-3598.6 L1075.8,-3600.9 L1073.7,-3603.0 L1071.5,-3605.6 L1069.7,-3608.0 L1068.0,-3610.4 L1066.5,-3613.1 L1064.9,-3616.7 L1063.5,-3620.0 L1062.1,-3623.6 L1061.2,-3626.4 L1060.5,-3629.0 L1060.0,-3631.7 L1059.6,-3635.9 L1059.3,-3639.6 L1059.5,-3643.6 L1060.4,-3648.9 L1061.9,-3654.1 L1063.8,-3659.5 L1065.1,-3662.0 L1066.4,-3663.5 L1076.7,-3676.6 L1079.1,-3679.3 L1082.2,-3680.8 L1085.5,-3682.0 L1089.2,-3682.8 L1093.3,-3683.3 L1096.9,-3683.5 L1100.5,-3683.4 L1104.1,-3683.0 L1108.2,-3681.8 L1112.5,-3679.7 L1116.2,-3677.4 L1119.5,-3674.8 L1129.9,-3665.2 L1132.4,-3664.4 L1133.8,-3664.1 L1135.5,-3664.5 L1136.6,-3664.9 L1138.0,-3666.5 L1138.6,-3668.1 L1138.7,-3670.3 L1138.8,-3672.3 L1138.4,-3673.2 L1117.4,-3694.0 L1146.0,-3724.5 L1144.4,-3728.1 L1160.9,-3744.4 L1192.7,-3712.6 L1167.1,-3680.0 L1166.9,-3678.1 L1168.2,-3677.3 L1169.8,-3677.7 L1197.9,-3712.9 L1206.1,-3722.8 L1206.4,-3725.1 L1205.7,-3727.1 L1204.2,-3728.9 L1182.2,-3749.7 L1187.7,-3756.1 L1182.1,-3760.8 L1185.3,-3768.2 L1242.3,-3825.5 L1261.9,-3828.8 L1268.0,-3829.7 L1273.8,-3830.5 L1276.5,-3831.2 L1279.7,-3832.9 L1283.5,-3835.0 L1286.4,-3837.9 L1289.2,-3841.4 L1318.3,-3883.7 L1318.9,-3884.8 L1318.6,-3886.2 L1318.2,-3887.2 L1317.5,-3888.1 L1314.0,-3890.3 L1313.1,-3890.8 L1312.3,-3890.7 L1311.4,-3890.2 L1309.5,-3888.8 L1285.1,-3866.0 L1275.6,-3859.2 L1236.6,-3899.2 L1241.1,-3913.4 L1243.0,-3917.6 L1249.1,-3928.8 L1256.2,-3941.3 L1260.5,-3946.1 L1268.2,-3954.3 L1276.4,-3963.3 L1285.4,-3972.8 L1293.1,-3979.4 L1296.8,-3982.7 L1301.7,-3986.3 L1306.2,-3988.7 L1312.6,-3991.6 L1316.6,-3993.0 L1320.6,-3994.2 L1323.7,-3994.5 L1328.1,-3994.2 L1331.8,-3993.7 L1336.0,-3992.5 L1340.1,-3989.1 L1342.6,-3985.6 L1344.1,-3982.0 L1344.7,-3976.6 L1344.5,-3969.5 L1343.6,-3961.5 L1341.9,-3953.8 L1331.6,-3930.8 L1321.8,-3910.1 L1325.2,-3904.6 L1327.0,-3903.5 L1328.9,-3903.5 L1330.6,-3903.9 L1331.9,-3904.7 L1338.6,-3914.2 L1347.2,-3918.5 L1364.3,-3964.2 L1365.5,-3966.5 L1367.2,-3968.5 L1368.9,-3969.4 L1370.5,-3969.8 L1372.8,-3969.8 L1375.2,-3969.2 L1387.7,-3965.7 L1390.1,-3965.2 L1392.9,-3965.1 L1395.5,-3965.5 L1397.6,-3966.4 L1399.4,-3967.8 L1401.2,-3970.1 L1422.2,-3998.2 L1423.2,-4000.3 L1423.7,-4002.5 L1423.7,-4004.6 L1423.3,-4006.8 L1422.5,-4008.4 L1421.3,-4010.0 L1419.9,-4011.3 L1417.9,-4012.3 L1416.0,-4012.8 L1414.1,-4012.9 L1412.5,-4012.6 L1410.6,-4011.7 L1409.2,-4010.7 L1408.1,-4009.3 L1402.6,-4000.4 L1401.4,-3998.7 L1400.0,-3997.1 L1397.9,-3995.3 L1396.0,-3994.2 L1393.7,-3993.5 L1390.9,-3992.9 L1389.3,-3992.9 L1387.1,-3993.2 L1385.2,-3993.7 L1383.6,-3994.4 L1366.4,-4010.0 L1364.4,-4012.4 L1362.9,-4014.6 L1361.5,-4017.3 L1360.6,-4019.6 L1360.0,-4022.0 L1359.5,-4024.6 L1359.2,-4027.8 L1359.1,-4031.0 L1359.4,-4033.7 L1359.8,-4036.0 L1360.3,-4038.0 L1361.1,-4039.7 L1392.4,-4089.4 L1394.4,-4092.7 L1395.6,-4094.4 L1397.0,-4095.2 L1399.3,-4096.2 L1401.7,-4096.9 L1404.0,-4097.3 L1405.3,-4097.3 L1406.6,-4097.1 L1407.7,-4096.7 L1409.3,-4095.9 L1411.2,-4094.7 L1414.4,-4092.1 L1428.7,-4078.7 L1431.1,-4075.3 L1432.5,-4072.0 L1433.8,-4068.1 L1434.2,-4065.1 L1434.4,-4061.9 L1434.4,-4059.2 L1434.1,-4056.5 L1433.6,-4053.8 L1433.0,-4052.0 L1431.4,-4048.3 L1425.7,-4037.7 L1425.1,-4035.3 L1425.1,-4032.4 L1425.3,-4030.2 L1426.1,-4028.5 L1427.6,-4026.9 L1430.0,-4025.2 L1432.0,-4024.1 L1434.3,-4023.6 L1437.0,-4023.7 L1439.2,-4024.2 L1441.7,-4025.5 L1443.9,-4027.5 L1480.9,-4078.3 L1469.6,-4088.5 L1476.4,-4095.8 L1486.5,-4086.1 L1507.3,-4113.4 L1538.8,-4155.5 L1412.0,-4277.0 L1384.5,-4248.1 L1352.2,-4278.6 L1383.4,-4312.2 L1379.3,-4316.7 L1385.8,-4322.7 L1389.8,-4318.6 L1411.5,-4342.2 L1431.0,-4324.1 L1433.3,-4309.1 L1515.3,-4232.6 L1531.3,-4226.4 L1544.1,-4230.9 L1568.4,-4221.2 L1584.5,-4227.1 L1632.4,-4285.6 L1635.1,-4291.1 L1635.9,-4298.5 L1633.5,-4305.8 L1630.3,-4311.0 L1601.9,-4337.2 L1602.3,-4344.4 L1607.9,-4358.5 L1619.1,-4379.4 L1597.0,-4393.7 L1605.4,-4396.9 L1610.7,-4400.3 L1616.0,-4406.3 L1622.2,-4422.2 L1633.6,-4451.2 L1641.0,-4458.0 L1570.8,-4526.0 L1555.4,-4516.4 L1551.8,-4515.5 L1548.4,-4515.4 L1544.0,-4515.9 L1540.4,-4516.9 L1536.9,-4519.0 L1534.0,-4521.5 L1497.7,-4556.5 L1490.9,-4563.3 L1487.9,-4566.9 L1485.4,-4571.4 L1484.2,-4575.5 L1483.7,-4579.5 L1483.8,-4583.3 L1484.5,-4586.9 L1485.4,-4589.8 L1486.6,-4591.9 L1489.2,-4595.6 L1492.3,-4599.3 L1508.6,-4616.2 L1632.6,-4501.3 L1624.1,-4491.7 L1716.0,-4404.8 L1821.9,-4559.9 L1754.7,-4622.7 L1746.1,-4615.0 L1620.6,-4733.5 L1637.0,-4748.8 L1709.1,-4681.2 L1716.3,-4691.8 L1720.3,-4697.1 L1725.4,-4702.3 L1731.3,-4708.8 L1737.3,-4712.7 L1746.8,-4720.7 L1756.3,-4729.5 L1774.5,-4746.7 L1818.0,-4795.6 L1825.8,-4803.7 L1854.5,-4818.4 L1881.7,-4839.7 L1884.3,-4841.7 L1891.4,-4847.2 L1894.5,-4850.0 L1897.0,-4853.2 L1898.7,-4856.5 L1899.8,-4859.8 L1901.1,-4862.3 L1902.6,-4865.0 L1905.2,-4869.3 L1907.0,-4872.0 L1908.8,-4874.5 L1912.1,-4877.1 L1915.3,-4879.3 L1918.8,-4881.4 L1927.1,-4885.4 L1935.1,-4889.4 L1936.3,-4889.6 L1937.5,-4889.4 L1939.9,-4888.7 L1946.4,-4885.4 L1951.3,-4883.0 L1953.6,-4881.6 L1955.7,-4879.9 L1989.1,-4848.2 L1991.4,-4846.9 L2002.3,-4844.0 L2005.8,-4843.0 L2009.7,-4842.6 L2012.7,-4842.7 L2015.0,-4843.5 L2017.3,-4845.1 L2029.2,-4861.9 L2029.2,-4864.2 L2028.8,-4866.3 L2027.5,-4868.6 L2025.5,-4870.8 L2016.4,-4879.3 L2017.1,-4880.7 L2028.8,-4905.5 L2048.8,-4945.8 L2067.0,-4959.2 L2077.5,-4969.7 L2084.7,-4978.0 L2092.3,-4985.7 L2100.7,-4992.6 L2105.8,-4997.3 L2111.2,-5002.2 L2115.2,-5006.2 L2117.2,-5009.8 L2118.8,-5012.6 L2119.8,-5015.3 L2120.2,-5018.5 L2120.4,-5021.7 L2126.5,-5027.9 L2135.5,-5036.4 L2150.5,-5048.7 L2166.2,-5060.6 L2173.2,-5070.4 L2175.8,-5080.5 L2183.6,-5085.3 L2193.4,-5085.5 L2203.3,-5091.4 L2212.0,-5107.1 L2211.8,-5123.4 L2213.4,-5148.6 L2215.9,-5152.2 L2217.4,-5154.6 L2220.2,-5159.2 L2216.7,-5169.9 L2220.7,-5174.9 L2240.5,-5199.4 L2274.5,-5239.1 L2281.0,-5248.5 L2283.6,-5253.4 L2294.4,-5268.3 L2297.4,-5277.7 L2297.5,-5292.2 L2297.1,-5306.7 L2297.0,-5321.5 L2301.4,-5337.8 L2308.8,-5353.9 L2319.4,-5369.4 L2327.1,-5380.9 L2336.2,-5392.4 L2353.8,-5412.0 L2431.8,-5450.6 L2442.1,-5453.3 L2444.7,-5447.7 L2447.8,-5442.3 L2448.8,-5441.3 L2450.5,-5442.0 L2450.8,-5445.8 L2449.6,-5449.0 L2453.9,-5450.3 L2469.9,-5455.0 L2490.7,-5461.2 L2507.5,-5466.2 L2513.5,-5468.0 L2507.5,-5486.9 L2517.9,-5489.7 L2535.2,-5492.1 L2537.3,-5492.4 L2537.4,-5493.6 L2537.4,-5498.0 L2553.1,-5498.7 L2577.7,-5499.7 L2587.2,-5495.1 L2610.9,-5409.7 L2616.2,-5404.6 L2605.9,-5394.0 L2615.0,-5385.0 L2624.0,-5376.0 L2634.8,-5387.0 L2835.3,-5196.4 L3102.9,-5482.0 L3196.4,-5392.6 L3200.0,-5393.7 L3201.4,-5392.1 L3207.7,-5396.1 L3212.9,-5398.0 L3218.4,-5400.5 L3227.8,-5405.4 L3233.6,-5408.7 L3240.5,-5412.7 L3246.9,-5416.7 L3252.1,-5420.1 L3256.9,-5423.2 L3262.5,-5427.3 L3268.9,-5432.0 L3273.8,-5436.1 L3279.0,-5440.7 L3284.7,-5446.1 L3290.1,-5451.5 L3302.7,-5464.9 L3310.3,-5474.0 L3317.7,-5483.9 L3322.8,-5491.1 L3327.6,-5498.5 L3333.3,-5508.8 L3338.3,-5518.9 L3342.3,-5527.2 L3345.7,-5535.5 L3347.8,-5541.0 L3350.1,-5547.2 L3355.5,-5553.9 L3184.5,-5716.6 L3186.6,-5718.9 L3207.1,-5740.9 L3222.0,-5756.7 L3223.5,-5758.3 L3266.9,-5717.7 L3277.4,-5723.1 L3278.6,-5721.6 L3380.6,-5774.7 L3384.8,-5776.9 L3387.7,-5779.2 L3390.4,-5781.7 L3393.5,-5784.9 L3396.5,-5789.4 L3399.1,-5793.6 L3400.8,-5796.8 L3402.0,-5800.9 L3403.1,-5805.4 L3403.6,-5810.3 L3403.6,-5815.8 L3403.2,-5820.2 L3402.4,-5824.1 L3401.1,-5828.8 L3369.2,-5920.6 L3364.9,-5935.7 L3366.0,-5940.9 L3289.0,-5960.0 L3292.6,-5973.3 L3295.6,-5985.3 L3318.4,-6075.5 L3300.7,-6128.1 L3290.3,-6162.1 L3287.3,-6170.6 L3314.9,-6195.9 L3346.0,-6212.6 L3347.9,-6210.0 L3350.9,-6205.7 L3357.9,-6196.6 L3358.7,-6197.4 L3358.9,-6200.5 L3349.2,-6213.9 L3366.5,-6226.3 L3370.3,-6228.5 L3379.3,-6216.8 L3380.8,-6215.7 L3382.3,-6215.4 L3383.1,-6215.6 L3383.1,-6216.4 L3340.3,-6275.0 L3337.2,-6278.4 L3333.6,-6283.3 L3315.0,-6305.8 L3330.9,-6355.1 L3343.1,-6367.8 L3357.2,-6374.4 L3387.2,-6392.2 L3393.4,-6398.6 L3420.3,-6422.2 L3428.8,-6413.3 L3453.7,-6386.4 L3476.8,-6405.8 L3492.3,-6390.9 L3506.2,-6377.3 L3506.9,-6376.6 L3518.7,-6386.7 L3534.3,-6370.1 L3547.7,-6352.9 L3557.6,-6341.4 L3558.9,-6339.9 L3587.7,-6365.2 L3589.2,-6366.5 L3582.4,-6374.8 L3598.1,-6387.7 L3645.7,-6332.2 L3686.2,-6358.9 L3690.2,-6362.7 L3707.8,-6370.1 L3711.8,-6374.0 L3715.6,-6379.0 L3737.3,-6398.3 L3732.4,-6405.0 L3693.6,-6396.1 L3649.2,-6446.6 L3654.3,-6451.0 L3661.0,-6443.2 L3692.4,-6470.2 L3725.7,-6433.8 L3734.7,-6430.2 L3740.1,-6427.1 L3746.9,-6419.4 L3750.6,-6422.7 L3726.5,-6450.1 L3741.3,-6462.9 L3771.2,-6427.0 L3775.0,-6429.8 L3774.6,-6430.6 L3840.2,-6478.0 L3859.7,-6492.4 L3796.0,-6572.0 L3809.6,-6581.5 L3865.0,-6516.6 L3905.9,-6509.1 L3932.9,-6524.9 L3936.7,-6527.3 L3936.5,-6530.3 L3934.6,-6533.8 L3955.7,-6547.1 L3961.9,-6540.9 L3979.7,-6551.4 L3966.8,-6567.4 L3904.5,-6650.7 L3948.5,-6696.3 L3977.4,-6739.0 L3978.1,-6772.4 L3962.7,-6816.8 L3995.1,-6843.8 L4029.1,-6856.9 L4040.3,-6859.5 L4049.3,-6860.7 L4060.3,-6860.0 L4071.7,-6857.2 L4088.2,-6843.1 L4131.0,-6790.9 L4165.2,-6747.5 L4206.1,-6720.2 L4222.2,-6717.6 L4236.6,-6715.9 L4248.8,-6715.4 L4264.4,-6716.5 L4281.3,-6719.3 L4295.0,-6723.2 L4306.6,-6728.6 L4314.3,-6733.1 L4320.0,-6739.1 L4329.6,-6750.7 L4340.0,-6769.7 L4351.3,-6794.9 L4371.4,-6784.6 L4379.4,-6781.9 L4388.0,-6780.7 L4401.7,-6781.6 L4410.8,-6784.3 L4421.2,-6788.8 L4430.9,-6794.4 L4441.2,-6804.4 L4450.0,-6812.4 L4461.0,-6819.9 L4468.6,-6824.8 L4479.8,-6828.8 L4499.1,-6834.4 L4510.5,-6837.6 L4522.7,-6842.2 L4533.3,-6847.7 L4539.6,-6851.3 L4544.6,-6856.5 L4610.0,-6889.3 L4612.5,-6890.7 L4615.4,-6892.5 L4618.4,-6894.8 L4622.8,-6897.3 L4625.7,-6898.7 L4628.8,-6901.4 L4631.2,-6903.9 L4634.4,-6906.0 L4637.8,-6908.4 L4642.3,-6912.6 L4648.7,-6913.1 L4655.3,-6913.9 L4659.6,-6915.3 L4665.2,-6917.9 L4672.1,-6921.0 L4679.4,-6925.5 L4683.5,-6929.4 L4688.1,-6934.7 L4691.0,-6939.6 L4692.6,-6944.1 L4692.7,-6947.3 L4692.8,-6949.9 L4694.4,-6960.3 L4730.8,-6981.4 L4794.6,-7018.2 L4807.0,-7025.3 L4915.2,-7087.7 L5032.4,-7155.0 L5082.3,-7183.6 L5099.6,-7193.3 L5244.5,-7277.5 L5276.7,-7295.2 L5276.2,-7296.3 L5342.5,-7333.8 L5368.0,-7348.1 L5415.0,-7374.1 L5415.5,-7373.4 L5433.7,-7383.4 L5477.9,-7408.1 L5483.2,-7412.9 L5528.0,-7445.7 L5550.3,-7464.2 L5570.8,-7481.5 L5580.2,-7486.8 L5601.4,-7507.8 L5603.2,-7506.7 L5606.0,-7507.0 L5607.4,-7506.1 L5637.2,-7541.0 L5629.7,-7548.0 L5630.7,-7549.8 L5633.9,-7554.4 L5642.5,-7565.3 L5647.7,-7573.2 L5651.8,-7579.7 L5657.5,-7588.4 L5663.0,-7597.4 L5669.2,-7607.7 L5675.6,-7618.9 L5689.5,-7647.6 L5693.8,-7656.7 L5697.3,-7664.0 L5699.7,-7669.5 L5701.8,-7673.7 L5706.2,-7684.7 L5590.4,-7900.7 L5588.2,-7904.8 L5586.5,-7907.1 L5585.3,-7908.8 L5583.7,-7910.2 L5582.2,-7911.2 L5580.2,-7912.4 L5578.1,-7913.2 L5576.3,-7913.6 L5574.5,-7913.8 L5571.8,-7913.8 L5568.7,-7913.3 L5566.0,-7912.5 L5563.2,-7911.1 L5536.3,-7895.6 L5501.2,-7875.5 L5476.7,-7861.9 L5432.0,-7837.3 L5404.6,-7822.4 L5405.6,-7820.7 L5393.9,-7814.0 L5355.6,-7794.2 L5327.2,-7777.4 L5310.5,-7768.1 L5285.1,-7753.5 L5282.2,-7751.5 L5259.9,-7791.6 L5303.7,-7815.6 L5363.5,-7848.1 L5404.2,-7870.7 L5409.2,-7873.6 L5408.5,-7874.7 L5443.7,-7893.9 L5462.4,-7904.2 L5505.3,-7925.1 L5513.5,-7929.3 L5578.2,-7965.3 L5602.5,-7978.7 L5619.6,-7987.9 L5639.8,-7999.5 L5667.8,-7948.9 L5623.8,-7924.8 L5621.5,-7921.1 L5620.6,-7917.2 L5620.2,-7914.2 L5620.1,-7911.6 L5620.3,-7909.5 L5621.1,-7906.6 L5710.8,-7740.7 L5712.5,-7738.2 L5714.5,-7736.3 L5716.5,-7735.0 L5718.6,-7734.3 L5720.9,-7734.0 L5723.1,-7734.2 L5724.8,-7734.7 L5764.6,-7764.9 L5783.3,-7780.6 L5802.6,-7796.9 L5809.9,-7803.6 L5833.8,-7823.2 L5834.9,-7823.2 L5858.1,-7843.0 L5858.2,-7844.2 L5873.4,-7856.7 L5885.4,-7866.5 L5906.0,-7883.5 L5907.9,-7881.2 L5928.1,-7897.9 L5938.3,-7906.4 L5966.6,-7929.9 L5986.3,-7946.3 L5984.4,-7949.1 L5990.9,-7954.6 L6001.6,-7963.4 L6008.2,-7969.2 L6036.1,-7981.7 L6055.0,-7988.3 L6064.7,-7992.9 L6091.9,-7993.1 L6101.4,-7993.1 L6121.5,-7992.1 L6145.0,-7991.1 L6146.7,-7992.7 L6149.0,-7989.7 L6156.4,-7989.3 L6223.7,-7983.5 L6231.6,-7981.8 L6238.5,-7980.7 L6254.1,-7979.4 L6283.2,-7978.0 L6289.6,-7977.9 L6295.6,-7978.1 L6318.9,-7979.0 L6330.9,-7979.6 L6342.8,-7980.7 L6361.1,-7982.6 L6361.0,-7981.5 L6375.5,-7984.0 L6389.2,-7986.6 L6399.7,-7988.5 L6413.5,-7998.9 L6415.1,-7996.7 L6416.8,-7994.3 L6538.4,-7833.5 L6831.9,-7732.3 L7370.5,-8127.9 L7517.3,-8233.6 L7574.0,-8354.6 L7483.8,-8472.8 L7487.8,-8489.7 L7503.6,-8494.0 L7534.0,-8487.7 L7555.6,-8495.8 L7561.6,-8504.2 L7560.3,-8511.5 L7544.2,-8543.1 L7543.1,-8554.9 L7542.2,-8578.3 L7539.4,-8600.9 L7542.2,-8604.9 L7551.3,-8609.3 L7562.4,-8611.8 L7570.4,-8620.4 L7572.2,-8630.8 L7565.4,-8650.9 L7564.7,-8664.8 L7566.9,-8680.6 L7577.9,-8708.3 L7575.6,-8721.1 L7570.1,-8735.4 L7569.9,-8754.8 L7566.7,-8780.4 L7560.9,-8796.4 L7557.3,-8804.8 L7559.7,-8808.5 L7562.0,-8808.3 L7562.6,-8809.8 L7562.9,-8811.8 L7562.8,-8813.8 L7559.3,-8814.2 L7557.1,-8817.3 L7557.5,-8821.0 L7554.5,-8821.8 L7550.8,-8821.9 L7550.3,-8821.0 L7542.7,-8830.0 L7541.1,-8832.8 L7539.8,-8836.7 L7538.9,-8840.5 L7538.2,-8844.5 L7537.9,-8848.5 L7537.7,-8852.1 L7537.7,-8855.8 L7538.0,-8857.8 L7539.6,-8862.8 L7541.4,-8866.8 L7543.7,-8870.7 L7547.1,-8875.6 L7550.6,-8880.3 L7553.9,-8883.7 L7558.0,-8886.8 L7558.8,-8886.0 L7593.9,-8912.8 L7599.0,-8916.7 L7598.0,-8918.2 L7598.0,-8920.8 L7606.7,-8927.6 L7608.9,-8927.5 L7611.0,-8926.0 L7614.7,-8928.8 L7650.7,-8956.1 L7650.3,-8957.0 L7654.5,-8960.1 L7659.5,-8963.2 L7663.0,-8964.8 L7668.0,-8966.7 L7672.3,-8967.9 L7676.6,-8968.5 L7681.3,-8968.9 L7684.1,-8968.7 L7688.0,-8968.1 L7691.8,-8966.8 L7694.6,-8965.4 L7697.3,-8963.8 L7699.3,-8962.3 L7701.0,-8960.7 L7703.5,-8958.3 L7704.6,-8957.9 L7706.4,-8957.9 L7708.2,-8958.2 L7713.7,-8962.1 L7713.7,-8963.2 L7714.3,-8964.0 L7714.9,-8965.1 L7714.8,-8966.4 L7714.5,-8967.5 L7713.7,-8968.5 L7709.8,-8972.4 L7706.7,-8974.9 L7703.1,-8976.9 L7697.2,-8979.5 L7692.1,-8981.5 L7701.0,-8986.1 L7711.9,-8993.7 L7725.4,-8995.4 L7738.9,-8994.5 L7747.7,-8998.0 L7755.4,-9009.0 L7784.4,-9060.9 L7796.2,-9082.3 L7805.5,-9105.1 L7807.1,-9109.9 L7820.9,-9152.2 L7823.1,-9156.3 L7825.7,-9160.4 L7858.1,-9200.5 L7865.0,-9207.7 L7870.1,-9212.1 L7942.7,-9274.3 L7946.7,-9277.0 L7959.1,-9283.8 L7974.0,-9292.2 L8020.4,-9316.5 L8121.5,-9370.8 L8123.9,-9368.9 L8125.8,-9368.2 L8127.5,-9367.7 L8129.3,-9368.0 L8131.2,-9368.4 L8136.6,-9369.5 L8142.9,-9370.9 L8148.6,-9372.2 L8154.5,-9373.3 L8157.7,-9374.0 L8162.1,-9375.3 L8167.1,-9377.4 L8179.2,-9384.0 L8183.6,-9386.4 L8185.9,-9387.8 L8188.2,-9388.8 L8197.6,-9392.8 L8207.9,-9396.8 L8220.9,-9402.4 L8236.2,-9408.7 L8236.8,-9409.0 L8238.1,-9409.1 L8239.8,-9409.6 L8242.2,-9411.4 L8244.9,-9412.4 L8247.9,-9413.9 L8253.5,-9417.1 L8255.5,-9419.1 L8258.8,-9421.2 L8258.5,-9421.8 L8259.9,-9423.5 L8261.7,-9425.4 L8264.7,-9426.9 L8267.2,-9427.9 L8269.9,-9428.9 L8272.4,-9430.2 L8277.3,-9433.3 L8278.7,-9434.7 L8280.1,-9436.9 L8280.7,-9438.5 L8280.9,-9440.1 L8280.7,-9441.6 L8281.0,-9443.1 L8267.0,-9460.0 L8311.1,-9485.9 L8332.0,-9497.0 L8336.1,-9498.3 L8342.5,-9497.1 L8349.6,-9487.2 L8352.8,-9484.4 L8355.7,-9483.0 L8358.4,-9482.4 L8360.9,-9482.5 L8398.7,-9498.1 L8409.0,-9503.1 L8418.6,-9508.4 L8434.1,-9516.6 L8437.3,-9517.7 L8652.1,-9607.0 L8719.3,-9639.3 L9019.8,-9783.6 L16032.9,-9841.6 L16032.9,194.0 L1045.2,194.0 L1045.2,-232.5 Z" fill="#add7e1" stroke="none"><title>Biscayne Bay</title></path><path d="M374.1,-1874.8 L4288.8,-1461.1 L9135.6,400.9 L12491.0,2883.3 L13609.5,7226.9 L11372.5,8467.8 L933.4,8467.8 L-1303.6,3090.2 Z" fill="#add7e1" stroke="none"><title>Biscayne Bay</title></path><path d="M33.6,-24.1 L57.1,-10.9 L53.2,-4.0 L57.9,-1.4 L41.0,29.0 L11.0,12.1 L27.3,-17.4 L29.3,-16.3 L33.6,-24.1 Z" fill="#d6d2c9" stroke="#bab6ad" stroke-width="0.4"></path><path d="M25.7,138.0 L41.5,148.5 L44.3,144.3 L53.2,150.3 L36.1,176.1 L30.2,172.1 L35.6,164.1 L19.3,153.2 L13.4,162.0 L1.8,154.3 L19.0,128.2 L28.2,134.3 L25.7,138.0 Z" fill="#d6d2c9" stroke="#bab6ad" stroke-width="0.4"></path><path d="M76.9,172.9 L76.6,174.8 L83.3,175.8 L83.7,172.8 L85.4,173.0 L85.6,171.7 L94.2,173.0 L94.0,174.4 L95.6,174.6 L94.1,184.9 L97.5,185.5 L96.1,194.7 L99.2,195.2 L96.8,211.6 L51.1,204.6 L52.1,198.1 L44.5,196.9 L46.0,187.1 L53.5,188.3 L55.9,172.5 L66.8,174.1 L67.2,171.5 L76.9,172.9 Z" fill="#d6d2c9" stroke="#bab6ad" stroke-width="0.4"></path><path d="M102.7,10.7 L99.4,16.5 L101.3,17.5 L95.9,27.1 L97.5,28.0 L83.0,54.3 L81.4,53.4 L73.4,67.3 L49.0,53.2 L58.9,35.9 L66.6,40.4 L75.4,25.1 L66.8,20.1 L73.8,7.8 L82.4,12.8 L88.3,2.5 L102.7,10.7 Z" fill="#d6d2c9" stroke="#bab6ad" stroke-width="0.4"></path><path d="M168.6,39.6 L192.3,53.2 L193.0,52.0 L213.0,63.6 L202.6,81.9 L188.5,73.8 L180.6,87.8 L151.4,71.0 L156.5,62.1 L153.4,60.4 L159.6,49.5 L162.1,51.0 L168.6,39.6 Z" fill="#d6d2c9" stroke="#bab6ad" stroke-width="0.4"></path><path d="M133.3,88.7 L145.5,95.3 L146.3,93.9 L153.2,97.6 L156.6,91.1 L171.7,99.2 L168.0,106.2 L174.4,109.7 L165.3,126.8 L158.4,123.1 L150.4,138.1 L139.2,132.2 L141.0,128.8 L138.2,127.4 L142.0,120.1 L134.0,115.8 L136.2,111.7 L131.6,109.3 L132.9,106.7 L125.8,102.9 L133.3,88.7 Z" fill="#d6d2c9" stroke="#bab6ad" stroke-width="0.4"></path><path d="M-0.8,96.2 L15.0,105.8 L-14.3,154.3 L-32.2,143.5 L-30.5,140.7 L-45.4,131.7 L-37.5,118.5 L-40.6,116.6 L-28.6,96.6 L-8.4,108.8 L-0.8,96.2 Z" fill="#d6d2c9" stroke="#bab6ad" stroke-width="0.4"></path><path d="M-19.5,-45.2 L8.4,-28.3 L-9.1,0.5 L-25.3,-9.3 L-27.3,-6.0 L-41.8,-14.8 L-33.5,-28.4 L-30.7,-26.7 L-19.5,-45.2 Z" fill="#d6d2c9" stroke="#bab6ad" stroke-width="0.4"></path><path d="M115.2,137.6 L154.3,158.7 L149.1,168.4 L139.7,163.3 L135.8,170.4 L140.8,173.1 L134.7,184.3 L137.8,186.0 L131.2,198.3 L128.2,196.7 L123.9,204.6 L121.9,208.3 L115.3,204.7 L108.8,179.3 L112.5,172.5 L107.1,169.5 L113.8,157.1 L125.3,163.3 L131.2,152.4 L121.2,147.0 L119.5,150.1 L110.9,145.5 L115.2,137.6 Z" fill="#d6d2c9" stroke="#bab6ad" stroke-width="0.4"></path><path d="M82.7,101.7 L89.1,98.6 L95.3,93.4 L99.5,88.3 L103.1,82.1 L140.4,11.0" fill="none" stroke="#cec8bb" stroke-width="4.8" stroke-linecap="round" stroke-linejoin="round"/><path d="M82.7,101.7 L89.1,98.6 L95.3,93.4 L99.5,88.3 L103.1,82.1 L140.4,11.0" fill="none" stroke="#ffffff" stroke-width="3.7" stroke-linecap="round" stroke-linejoin="round"><title>Malva Court</title></path><path d="M-49.4,32.6 L-22.9,46.9 L-6.7,56.7 L6.7,65.1 L20.2,74.8 L32.7,84.0 L47.7,95.9 L55.4,99.7 L62.9,101.9 L68.9,102.8 L75.6,102.9 L82.7,101.7" fill="none" stroke="#cec8bb" stroke-width="4.8" stroke-linecap="round" stroke-linejoin="round"/><path d="M-49.4,32.6 L-22.9,46.9 L-6.7,56.7 L6.7,65.1 L20.2,74.8 L32.7,84.0 L47.7,95.9 L55.4,99.7 L62.9,101.9 L68.9,102.8 L75.6,102.9 L82.7,101.7" fill="none" stroke="#ffffff" stroke-width="3.7" stroke-linecap="round" stroke-linejoin="round"><title>Orquidea Avenue</title></path><path d="M186.7,-62.8 L208.6,-43.4 L259.0,2.7" fill="none" stroke="#cec8bb" stroke-width="4.8" stroke-linecap="round" stroke-linejoin="round"/><path d="M186.7,-62.8 L208.6,-43.4 L259.0,2.7" fill="none" stroke="#ffffff" stroke-width="3.7" stroke-linecap="round" stroke-linejoin="round"><title>Isla Dorada Boulevard</title></path><text x="120.5" y="49.1" transform="rotate(-62.3 120.5 49.1)" text-anchor="middle" dominant-baseline="central" font-family="Arial, sans-serif" font-size="8.3" textLength="58.4" lengthAdjust="spacing" font-weight="650" paint-order="stroke" stroke="#fffaf0" stroke-width="2.05" stroke-linejoin="round" fill="#695f54">Malva Court</text><text x="29.0" y="152.1" text-anchor="middle" font-family="Arial, sans-serif" font-size="6.5" textLength="18.0" lengthAdjust="spacing" font-weight="500" paint-order="stroke" stroke="#f3f5ee" stroke-width="1.55" stroke-linejoin="round" fill="#6f777a">124</text><text x="77.1" y="183.1" text-anchor="middle" font-family="Arial, sans-serif" font-size="6.5" textLength="18.0" lengthAdjust="spacing" font-weight="500" paint-order="stroke" stroke="#f3f5ee" stroke-width="1.55" stroke-linejoin="round" fill="#6f777a">122</text><text x="81.0" y="29.5" text-anchor="middle" font-family="Arial, sans-serif" font-size="6.5" textLength="18.0" lengthAdjust="spacing" font-weight="500" paint-order="stroke" stroke="#f3f5ee" stroke-width="1.55" stroke-linejoin="round" fill="#6f777a">119</text><text x="176.8" y="62.2" text-anchor="middle" font-family="Arial, sans-serif" font-size="6.5" textLength="18.0" lengthAdjust="spacing" font-weight="500" paint-order="stroke" stroke="#f3f5ee" stroke-width="1.55" stroke-linejoin="round" fill="#6f777a">114</text><text x="147.2" y="111.2" text-anchor="middle" font-family="Arial, sans-serif" font-size="6.5" textLength="18.0" lengthAdjust="spacing" font-weight="500" paint-order="stroke" stroke="#f3f5ee" stroke-width="1.55" stroke-linejoin="round" fill="#6f777a">118</text><text x="138.8" y="170.3" text-anchor="middle" font-family="Arial, sans-serif" font-size="6.5" textLength="18.0" lengthAdjust="spacing" font-weight="500" paint-order="stroke" stroke="#f3f5ee" stroke-width="1.55" stroke-linejoin="round" fill="#6f777a">120</text></svg>