<svg xmlns="http://www.w3.org/2000/svg" width="256" height="256" viewBox="0 0 256 256"><defs><pattern id="park-dots" width="22" height="22" patternUnits="userSpaceOnUse"><circle cx="5" cy="5" r="2.1" fill="#63a95d" fill-opacity="0.26"/><circle cx="16" cy="7" r="1.55" fill="#76b970" fill-opacity="0.23"/><circle cx="10" cy="17" r="1.9" fill="#61a65b" fill-opacity="0.24"/><circle cx="21" cy="17" r="1.25" fill="#80c174" fill-opacity="0.18"/><circle cx="1" cy="19" r="1.2" fill="#70b46a" fill-opacity="0.17"/></pattern><pattern id="park-canopy" width="54" height="48" patternUnits="userSpaceOnUse"><circle cx="12" cy="11" r="3.6" fill="#5ea75a" fill-opacity="0.22"/><circle cx="31" cy="15" r="2.9" fill="#75ba6d" fill-opacity="0.18"/><circle cx="45" cy="31" r="3.3" fill="#67ae62" fill-opacity="0.20"/><circle cx="19" cy="39" r="2.5" fill="#83c378" fill-opacity="0.16"/></pattern></defs><rect width="256" height="256" fill="#f1efe7"/><path d="M1045.2,6167.5 L501.0,5765.8 L457.5,5733.8 L410.3,5723.5 L377.0,5695.5 L350.4,5692.4 L264.4,5698.1 L264.5,5690.0 L259.7,5682.4 L250.1,5676.5 L63.3,5595.6 L50.6,5589.8 L39.5,5586.6 L25.7,5585.5 L11.8,5585.2 L-34.6,5585.2 L-46.9,5584.5 L-59.0,5582.1 L-71.8,5577.1 L-87.2,5573.0 L-98.4,5572.0 L-131.3,5570.6 L-142.3,5568.6 L-156.3,5564.1 L-170.0,5560.6 L-183.3,5557.5 L-193.7,5553.3 L-206.3,5545.5 L-217.5,5537.1 L-228.4,5528.9 L-237.3,5524.7 L-244.1,5523.3 L-250.2,5523.7 L-256.7,5525.5 L-264.3,5529.4 L-270.3,5536.0 L-278.4,5543.9 L-287.4,5552.2 L-297.6,5557.8 L-310.5,5562.0 L-321.2,5564.6 L-334.1,5566.6 L-355.7,5569.1 L-409.9,5571.7 L-455.9,5574.0 L-475.7,5581.1 L-516.3,5582.5 L-521.8,5574.0 L-527.9,5570.1 L-534.2,5568.9 L-578.0,5571.4 L-597.0,5578.2 L-620.3,5578.4 L-636.0,5576.1 L-648.9,5572.2 L-696.0,5575.0 L-820.6,5584.7 L-849.3,5585.5 L-859.1,5585.3 L-867.9,5583.1 L-878.1,5578.0 L-885.6,5572.0 L-918.0,5572.1 L-945.1,5571.7 L-952.4,5576.2 L-989.7,5577.1 L-994.5,5585.0 L-999.8,5585.2 L-1009.0,5583.0 L-1025.5,5581.0 L-1042.5,5581.9 L-1047.7,5583.5 L-1053.0,5582.6 L-1056.6,5579.1 L-1062.7,5575.6 L-1085.4,5575.7 L-1108.3,5576.9 L-1130.0,5589.7 L-1140.7,5594.8 L-1152.9,5597.5 L-1163.0,5598.2 L-1172.1,5596.8 L-1193.1,5587.8 L-1205.1,5584.0 L-1215.3,5582.5 L-1260.0,5583.1 L-1262.8,5577.7 L-1302.3,5578.6 L-1329.5,5583.6 L-1347.4,5585.7 L-1357.0,5587.8 L-1360.7,5585.3 L-1367.5,5584.4 L-1431.2,5578.6 L-1436.7,5581.6 L-1443.4,5583.0 L-1452.2,5583.1 L-1452.2,5579.9 L-1491.7,5572.5 L-1516.6,5567.7 L-1576.8,5547.5 L-1580.1,5552.0 L-1620.3,5539.6 L-1628.7,5536.8 L-1624.6,5522.8 L-1629.4,5521.3 L-1630.4,5519.8 L-1633.0,5519.0 L-1636.6,5518.5 L-1641.0,5516.3 L-1639.5,5515.0 L-1657.3,5500.5 L-1686.9,5473.7 L-1702.8,5459.7 L-1714.1,5447.4 L-1720.4,5439.1 L-1729.8,5426.3 L-1735.2,5416.4 L-1752.0,5395.3 L-1753.6,5394.1 L-1754.7,5394.0 L-1755.9,5394.2 L-1758.1,5394.3 L-1760.1,5393.3 L-1764.3,5390.6 L-1772.9,5386.1 L-1777.1,5382.5 L-1782.0,5378.2 L-1788.7,5374.6 L-1799.2,5371.3 L-1810.3,5369.3 L-1819.8,5369.1 L-1817.1,5343.9 L-1814.9,5311.0 L-1804.6,5312.0 L-1794.3,5313.8 L-1780.8,5317.8 L-1770.9,5321.5 L-1762.0,5325.6 L-1753.4,5329.6 L-1745.3,5334.2 L-1738.7,5339.3 L-1729.9,5346.1 L-1720.7,5353.0 L-1718.6,5354.3 L-1716.7,5354.7 L-1691.5,5353.6 L-1691.2,5359.3 L-1692.7,5361.8 L-1711.6,5363.6 L-1706.8,5373.4 L-1703.5,5372.2 L-1700.5,5375.2 L-1698.6,5378.1 L-1697.0,5380.3 L-1693.1,5385.5 L-1691.6,5391.2 L-1685.5,5399.6 L-1671.1,5408.7 L-1653.2,5417.8 L-1631.8,5431.3 L-1622.0,5435.9 L-1601.4,5447.6 L-1591.7,5452.7 L-1574.0,5459.2 L-1539.2,5468.5 L-1518.8,5473.4 L-1500.2,5475.3 L-1490.3,5476.6 L-1488.1,5476.4 L-1487.2,5475.1 L-1486.9,5468.5 L-1463.8,5468.5 L-1463.3,5475.9 L-1414.9,5478.4 L-1367.7,5479.8 L-1335.6,5478.6 L-1325.0,5477.8 L-1317.3,5476.8 L-1311.0,5475.0 L-1305.2,5471.5 L-1302.3,5466.8 L-1303.4,5389.3 L-1283.9,5388.2 L-1282.2,5463.8 L-1281.1,5465.7 L-1277.2,5468.4 L-1272.7,5469.7 L-1169.3,5469.9 L-1169.8,5436.6 L-1161.7,5436.4 L-1158.3,5469.9 L-1094.5,5469.3 L-1094.5,5465.7 L-1088.2,5465.6 L-1088.0,5468.2 L-662.5,5460.1 L-631.7,5456.5 L-594.1,5455.4 L-558.5,5460.1 L-546.6,5459.1 L-537.9,5457.4 L-529.8,5454.5 L-519.3,5450.5 L-305.4,5446.7 L-305.5,5431.9 L-185.8,5429.8 L-185.7,5446.1 L-134.9,5447.9 L-131.0,5447.8 L-127.4,5447.5 L-122.7,5446.9 L-118.9,5445.9 L-115.2,5444.7 L-108.9,5441.7 L-106.0,5446.7 L-99.8,5442.8 L-94.1,5438.2 L-89.3,5433.2 L-85.1,5427.3 L-81.2,5420.0 L-88.5,5415.9 L-86.5,5409.8 L-85.2,5403.5 L-84.5,5397.5 L-84.4,5392.8 L-84.6,5388.4 L-85.3,5350.5 L-91.4,5344.9 L-86.2,5339.4 L-91.5,5334.8 L-85.5,5327.7 L-92.0,5322.0 L-86.8,5316.5 L-92.0,5311.5 L-85.9,5305.0 L-92.2,5298.6 L-79.1,5284.2 L-76.8,5284.1 L-82.5,5069.6 L-34.4,5068.5 L-32.1,5069.7 L-29.5,5071.7 L-27.6,5073.4 L-26.8,5075.4 L-26.1,5077.8 L-25.9,5080.2 L-21.8,5413.5 L-19.9,5424.3 L-17.2,5431.6 L-13.0,5440.6 L-8.1,5449.4 L-3.0,5456.4 L1.1,5460.7 L5.5,5464.1 L10.6,5467.1 L15.9,5469.1 L23.1,5471.2 L32.0,5472.9 L42.8,5474.9 L55.4,5477.2 L67.4,5479.8 L80.7,5482.2 L93.3,5484.9 L97.3,5485.7 L102.2,5486.7 L107.0,5487.3 L111.2,5487.4 L116.0,5487.4 L119.7,5487.2 L123.4,5486.5 L126.6,5485.7 L130.0,5484.7 L132.9,5483.4 L138.7,5480.6 L143.8,5477.6 L148.9,5473.9 L154.8,5468.2 L160.3,5462.0 L163.3,5456.7 L166.0,5450.2 L167.4,5444.9 L168.2,5439.2 L168.7,5433.8 L168.7,5428.8 L161.4,5071.6 L171.8,5060.9 L175.6,5060.5 L177.1,5059.1 L198.8,5058.5 L200.7,5055.3 L204.0,5056.2 L209.5,5061.3 L213.3,5066.6 L217.1,5073.2 L224.3,5472.4 L225.0,5479.4 L226.3,5493.3 L227.6,5496.1 L226.6,5496.8 L228.4,5500.7 L230.7,5505.3 L232.7,5508.2 L235.1,5511.7 L238.4,5515.5 L242.3,5519.5 L247.0,5523.5 L251.2,5526.6 L255.8,5529.1 L260.2,5531.3 L264.9,5532.8 L265.5,5531.4 L331.7,5555.4 L340.0,5558.5 L343.8,5559.9 L349.7,5562.0 L354.0,5563.0 L357.7,5563.5 L361.1,5563.5 L365.9,5563.1 L371.1,5562.6 L375.7,5561.6 L380.4,5560.3 L383.9,5558.9 L387.6,5557.2 L390.6,5555.3 L394.4,5552.5 L399.2,5548.3 L403.6,5544.0 L408.4,5538.0 L411.8,5532.4 L414.6,5526.2 L416.6,5519.3 L417.8,5512.3 L418.5,5499.8 L418.2,5474.3 L410.9,5068.2 L410.9,5063.7 L411.7,5060.5 L413.1,5057.9 L416.0,5055.5 L419.3,5053.8 L423.0,5053.2 L453.1,5052.2 L456.7,5052.8 L459.9,5054.2 L462.2,5056.4 L464.8,5060.2 L466.3,5065.6 L467.2,5072.9 L474.7,5593.8 L475.1,5596.9 L475.7,5600.0 L476.6,5603.2 L477.7,5606.7 L478.9,5610.2 L480.3,5613.4 L481.5,5616.1 L482.8,5618.5 L484.7,5621.5 L486.8,5624.1 L488.7,5626.5 L491.6,5629.6 L494.4,5632.3 L497.5,5634.8 L500.8,5637.3 L510.0,5643.1 L510.9,5642.0 L519.0,5646.5 L528.6,5651.7 L534.1,5654.7 L540.2,5658.3 L546.5,5662.0 L553.0,5666.0 L560.3,5670.5 L567.5,5675.0 L574.7,5679.3 L580.7,5683.0 L587.4,5687.3 L594.5,5691.9 L601.3,5696.4 L607.6,5700.7 L606.9,5701.6 L615.7,5707.7 L624.8,5713.8 L627.6,5715.5 L630.7,5717.2 L635.1,5719.3 L639.2,5720.8 L643.6,5722.0 L647.5,5723.0 L652.1,5723.7 L657.2,5724.3 L661.6,5724.3 L665.3,5724.0 L668.5,5723.3 L672.6,5722.2 L676.7,5720.9 L680.5,5719.6 L684.0,5717.9 L687.6,5716.0 L691.1,5713.8 L694.7,5711.0 L697.9,5708.1 L701.0,5705.0 L703.9,5701.8 L706.9,5697.4 L709.4,5693.0 L711.8,5688.1 L713.2,5684.3 L714.3,5680.3 L715.1,5676.0 L715.5,5671.7 L715.2,5666.8 L655.9,5099.1 L660.0,5098.7 L656.7,5070.3 L653.7,5070.5 L651.3,5057.4 L652.1,5054.7 L654.6,5050.7 L659.7,5046.8 L666.4,5046.0 L693.3,5045.1 L697.8,5046.0 L700.9,5047.5 L704.2,5050.1 L706.5,5052.5 L708.1,5055.0 L773.1,5691.9 L774.6,5697.4 L777.4,5704.2 L779.8,5708.6 L782.4,5713.3 L785.8,5717.9 L788.6,5721.1 L791.7,5724.3 L795.1,5727.0 L798.1,5729.1 L802.3,5731.8 L806.0,5733.7 L810.9,5735.8 L815.5,5737.2 L820.7,5738.3 L824.7,5738.9 L828.2,5739.0 L832.3,5739.1 L973.5,5736.2 L978.1,5735.6 L982.5,5733.5 L985.7,5730.6 L987.9,5726.2 L988.7,5722.2 L988.5,5718.2 L917.0,5036.1 L854.0,4953.9 L851.2,4956.2 L796.4,4879.7 L795.4,4863.5 L793.7,4860.1 L790.8,4857.0 L787.1,4851.8 L786.8,4844.2 L780.3,4841.7 L774.0,4841.6 L765.5,4845.8 L775.1,4863.8 L763.0,4869.6 L753.9,4861.2 L746.1,4856.4 L740.8,4854.6 L727.8,4854.1 L721.2,4840.7 L762.7,4823.7 L760.7,4820.3 L751.9,4808.5 L750.5,4809.2 L441.6,4404.7 L436.9,4338.0 L439.4,4337.4 L427.5,4215.1 L422.9,4203.8 L417.9,4191.1 L414.1,4181.3 L409.5,4168.8 L394.5,4126.7 L388.4,4129.4 L379.5,4095.3 L381.0,4095.0 L349.9,4010.7 L346.5,3863.3 L350.1,3863.3 L350.6,3850.4 L352.4,3837.7 L353.1,3833.0 L351.8,3829.2 L356.0,3809.1 L394.3,3741.3 L374.2,3729.1 L389.1,3704.4 L408.5,3715.8 L410.2,3713.2 L416.3,3716.3 L422.9,3718.9 L430.5,3721.3 L436.2,3722.5 L441.6,3722.7 L448.0,3721.6 L454.3,3719.5 L460.5,3717.1 L463.4,3714.0 L464.5,3709.9 L466.0,3705.0 L466.3,3703.0 L466.2,3700.5 L464.8,3696.6 L462.2,3692.9 L459.2,3690.8 L454.8,3686.6 L451.0,3682.6 L445.4,3679.0 L443.1,3673.3 L440.4,3667.6 L436.1,3660.9 L431.2,3655.1 L422.2,3648.7 L378.6,3626.1 L352.8,3613.3 L328.7,3600.3 L305.8,3587.6 L291.0,3578.0 L285.3,3576.5 L279.0,3578.4 L275.5,3582.7 L268.4,3600.4 L224.3,3580.6 L250.7,3538.9 L256.5,3536.2 L263.6,3534.8 L271.9,3536.6 L437.6,3633.5 L446.6,3636.2 L456.0,3638.5 L469.3,3638.8 L482.8,3636.4 L491.4,3632.9 L500.8,3625.3 L506.3,3620.0 L512.2,3611.7 L512.1,3610.6 L511.7,3609.6 L510.8,3608.8 L457.2,3575.7 L455.9,3575.3 L454.5,3575.2 L453.1,3575.3 L448.0,3577.5 L446.1,3577.7 L444.0,3577.5 L440.9,3577.0 L438.5,3576.3 L435.1,3574.6 L431.8,3572.7 L358.1,3527.7 L323.4,3503.3 L320.1,3502.8 L316.8,3502.9 L312.9,3503.0 L310.3,3502.6 L308.1,3501.6 L305.5,3499.6 L302.6,3497.3 L300.6,3494.5 L299.4,3491.7 L299.2,3489.6 L299.5,3486.9 L300.0,3484.6 L311.8,3464.8 L311.8,3463.9 L310.9,3463.2 L300.1,3455.6 L298.0,3452.5 L299.2,3450.6 L302.7,3451.1 L306.5,3452.2 L328.7,3465.9 L454.5,3546.2 L457.1,3547.7 L458.9,3549.6 L460.1,3551.8 L461.4,3556.4 L462.3,3560.0 L462.8,3563.1 L519.6,3597.2 L521.6,3598.1 L524.0,3598.3 L526.8,3597.9 L528.8,3597.2 L530.5,3596.4 L591.6,3497.5 L617.2,3459.9 L641.1,3433.0 L653.2,3439.7 L661.0,3427.1 L619.5,3402.3 L628.3,3387.9 L669.8,3412.9 L679.1,3397.7 L671.6,3389.3 L679.2,3380.6 L687.4,3390.0 L689.4,3388.5 L691.7,3386.9 L694.9,3385.1 L698.2,3383.5 L702.3,3382.0 L706.2,3380.9 L710.4,3380.2 L714.6,3379.9 L718.6,3380.0 L722.5,3380.6 L726.2,3381.5 L729.3,3382.4 L732.0,3383.6 L735.8,3385.4 L739.3,3387.6 L742.3,3389.7 L745.3,3392.4 L748.0,3395.0 L751.0,3398.9 L753.1,3402.4 L755.2,3406.9 L756.6,3411.4 L757.8,3417.6 L758.2,3423.0 L758.1,3426.1 L757.7,3429.3 L756.6,3434.1 L753.8,3440.7 L752.0,3445.0 L749.5,3450.1 L759.9,3455.3 L808.5,3397.3 L720.0,3343.5 L724.5,3333.9 L727.7,3325.0 L727.9,3321.2 L733.0,3310.3 L743.5,3300.6 L756.5,3290.0 L772.0,3280.1 L801.1,3271.6 L851.3,3266.6 L871.1,3250.6 L875.2,3249.9 L878.5,3249.7 L883.2,3251.5 L887.5,3252.0 L915.4,3268.9 L988.8,3181.8 L719.8,3010.8 L703.1,3037.1 L666.8,3014.1 L718.3,2933.1 L754.5,2955.5 L738.4,2983.1 L1012.1,3155.6 L1046.6,3111.3 L1071.0,3082.3 L1103.2,3033.9 L1121.0,3009.5 L1119.2,2995.6 L1119.7,2995.2 L1116.5,2984.9 L1114.4,2978.5 L1112.4,2971.9 L1110.0,2966.2 L1105.4,2958.7 L1100.8,2951.4 L1098.8,2947.6 L1097.3,2943.8 L1096.2,2940.3 L1095.8,2937.2 L1095.3,2927.0 L977.1,2818.5 L973.2,2822.7 L969.9,2819.9 L960.3,2829.4 L954.0,2821.0 L961.6,2812.2 L954.0,2802.5 L948.8,2803.9 L943.4,2804.1 L938.5,2803.2 L934.2,2801.4 L929.2,2797.7 L923.0,2791.6 L912.1,2779.6 L908.8,2774.5 L907.6,2768.1 L908.4,2760.5 L911.3,2753.5 L913.8,2748.7 L918.6,2743.9 L923.9,2740.3 L929.0,2738.4 L932.8,2737.8 L937.8,2738.7 L942.9,2740.5 L947.7,2744.3 L958.8,2754.3 L964.5,2759.7 L969.7,2765.4 L971.4,2768.1 L972.6,2771.0 L973.3,2773.6 L973.8,2777.2 L973.2,2780.6 L972.2,2783.8 L970.8,2786.2 L970.4,2787.3 L970.7,2788.7 L971.5,2790.1 L1098.4,2909.0 L1102.8,2912.0 L1105.9,2913.3 L1110.3,2912.3 L1115.5,2911.9 L1122.1,2914.7 L1128.7,2918.8 L1141.6,2926.1 L1147.0,2928.7 L1151.9,2923.9 L1157.3,2918.7 L1160.9,2914.6 L1166.9,2906.8 L1170.3,2902.1 L1173.9,2896.3 L1176.2,2891.2 L1178.7,2885.8 L1181.0,2880.1 L1183.1,2874.3 L1184.3,2869.4 L1185.7,2863.2 L1186.3,2859.5 L1186.7,2856.5 L1187.4,2851.2 L1188.1,2846.0 L1188.4,2842.6 L1188.6,2838.9 L1188.6,2834.6 L1188.4,2831.0 L1187.7,2826.0 L1186.9,2820.3 L1186.1,2815.0 L1185.6,2810.7 L1185.0,2807.5 L1184.3,2804.1 L1183.5,2800.7 L1182.3,2796.7 L1180.9,2792.7 L1179.8,2790.3 L1178.6,2787.9 L1176.9,2785.6 L1174.6,2782.3 L1172.1,2779.2 L1169.4,2776.6 L1166.0,2773.8 L1162.5,2771.6 L1159.0,2769.7 L1155.8,2768.5 L1153.6,2767.8 L1151.1,2767.5 L1148.1,2767.6 L1145.3,2768.2 L1143.1,2769.1 L1141.0,2770.6 L1139.5,2772.2 L1138.3,2773.7 L1137.4,2776.0 L1136.9,2778.5 L1137.0,2781.5 L1137.2,2785.0 L1137.2,2787.6 L1137.0,2790.2 L1136.6,2792.8 L1136.1,2795.1 L1135.2,2797.5 L1133.8,2800.1 L1132.1,2802.6 L1130.4,2804.9 L1128.7,2806.5 L1125.3,2809.2 L1122.5,2811.1 L1118.1,2812.4 L1115.5,2813.0 L1112.5,2813.4 L1109.8,2813.5 L1106.2,2813.3 L1103.6,2812.8 L1100.0,2812.0 L1095.0,2810.5 L1090.8,2808.9 L1087.7,2807.7 L1084.4,2805.9 L1081.5,2803.9 L1078.3,2801.4 L1075.8,2799.1 L1073.7,2797.0 L1071.5,2794.4 L1069.7,2792.0 L1068.0,2789.6 L1066.5,2786.9 L1064.9,2783.3 L1063.5,2780.0 L1062.1,2776.4 L1061.2,2773.6 L1060.5,2771.0 L1060.0,2768.3 L1059.6,2764.1 L1059.3,2760.4 L1059.5,2756.4 L1060.4,2751.1 L1061.9,2745.9 L1063.8,2740.5 L1065.1,2738.0 L1066.4,2736.5 L1076.7,2723.4 L1079.1,2720.7 L1082.2,2719.2 L1085.5,2718.0 L1089.2,2717.2 L1093.3,2716.7 L1096.9,2716.5 L1100.5,2716.6 L1104.1,2717.0 L1108.2,2718.2 L1112.5,2720.3 L1116.2,2722.6 L1119.5,2725.2 L1129.9,2734.8 L1132.4,2735.6 L1133.8,2735.9 L1135.5,2735.5 L1136.6,2735.1 L1138.0,2733.5 L1138.6,2731.9 L1138.7,2729.7 L1138.8,2727.7 L1138.4,2726.8 L1117.4,2706.0 L1146.0,2675.5 L1144.4,2671.9 L1160.9,2655.6 L1192.7,2687.4 L1167.1,2720.0 L1166.9,2721.9 L1168.2,2722.7 L1169.8,2722.3 L1197.9,2687.1 L1206.1,2677.2 L1206.4,2674.9 L1205.7,2672.9 L1204.2,2671.1 L1182.2,2650.3 L1187.7,2643.9 L1182.1,2639.2 L1185.3,2631.8 L1242.3,2574.5 L1261.9,2571.2 L1268.0,2570.3 L1273.8,2569.5 L1276.5,2568.8 L1279.7,2567.1 L1283.5,2565.0 L1286.4,2562.1 L1289.2,2558.6 L1318.3,2516.3 L1318.9,2515.2 L1318.6,2513.8 L1318.2,2512.8 L1317.5,2511.9 L1314.0,2509.7 L1313.1,2509.2 L1312.3,2509.3 L1311.4,2509.8 L1309.5,2511.2 L1285.1,2534.0 L1275.6,2540.8 L1236.6,2500.8 L1241.1,2486.6 L1243.0,2482.4 L1249.1,2471.2 L1256.2,2458.7 L1260.5,2453.9 L1268.2,2445.7 L1276.4,2436.7 L1285.4,2427.2 L1293.1,2420.6 L1296.8,2417.3 L1301.7,2413.7 L1306.2,2411.3 L1312.6,2408.4 L1316.6,2407.0 L1320.6,2405.8 L1323.7,2405.5 L1328.1,2405.8 L1331.8,2406.3 L1336.0,2407.5 L1340.1,2410.9 L1342.6,2414.4 L1344.1,2418.0 L1344.7,2423.4 L1344.5,2430.5 L1343.6,2438.5 L1341.9,2446.2 L1331.6,2469.2 L1321.8,2489.9 L1325.2,2495.4 L1327.0,2496.5 L1328.9,2496.5 L1330.6,2496.1 L1331.9,2495.3 L1338.6,2485.8 L1347.2,2481.5 L1364.3,2435.8 L1365.5,2433.5 L1367.2,2431.5 L1368.9,2430.6 L1370.5,2430.2 L1372.8,2430.2 L1375.2,2430.8 L1387.7,2434.3 L1390.1,2434.8 L1392.9,2434.9 L1395.5,2434.5 L1397.6,2433.6 L1399.4,2432.2 L1401.2,2429.9 L1422.2,2401.8 L1423.2,2399.7 L1423.7,2397.5 L1423.7,2395.4 L1423.3,2393.2 L1422.5,2391.6 L1421.3,2390.0 L1419.9,2388.7 L1417.9,2387.7 L1416.0,2387.2 L1414.1,2387.1 L1412.5,2387.4 L1410.6,2388.3 L1409.2,2389.3 L1408.1,2390.7 L1402.6,2399.6 L1401.4,2401.3 L1400.0,2402.9 L1397.9,2404.7 L1396.0,2405.8 L1393.7,2406.5 L1390.9,2407.1 L1389.3,2407.1 L1387.1,2406.8 L1385.2,2406.3 L1383.6,2405.6 L1366.4,2390.0 L1364.4,2387.6 L1362.9,2385.4 L1361.5,2382.7 L1360.6,2380.4 L1360.0,2378.0 L1359.5,2375.4 L1359.2,2372.2 L1359.1,2369.0 L1359.4,2366.3 L1359.8,2364.0 L1360.3,2362.0 L1361.1,2360.3 L1392.4,2310.6 L1394.4,2307.3 L1395.6,2305.6 L1397.0,2304.8 L1399.3,2303.8 L1401.7,2303.1 L1404.0,2302.7 L1405.3,2302.7 L1406.6,2302.9 L1407.7,2303.3 L1409.3,2304.1 L1411.2,2305.3 L1414.4,2307.9 L1428.7,2321.3 L1431.1,2324.7 L1432.5,2328.0 L1433.8,2331.9 L1434.2,2334.9 L1434.4,2338.1 L1434.4,2340.8 L1434.1,2343.5 L1433.6,2346.2 L1433.0,2348.0 L1431.4,2351.7 L1425.7,2362.3 L1425.1,2364.7 L1425.1,2367.6 L1425.3,2369.8 L1426.1,2371.5 L1427.6,2373.1 L1430.0,2374.8 L1432.0,2375.9 L1434.3,2376.4 L1437.0,2376.3 L1439.2,2375.8 L1441.7,2374.5 L1443.9,2372.5 L1480.9,2321.7 L1469.6,2311.5 L1476.4,2304.2 L1486.5,2313.9 L1507.3,2286.6 L1538.8,2244.5 L1412.0,2123.0 L1384.5,2151.9 L1352.2,2121.4 L1383.4,2087.8 L1379.3,2083.3 L1385.8,2077.3 L1389.8,2081.4 L1411.5,2057.8 L1431.0,2075.9 L1433.3,2090.9 L1515.3,2167.4 L1531.3,2173.6 L1544.1,2169.1 L1568.4,2178.8 L1584.5,2172.9 L1632.4,2114.4 L1635.1,2108.9 L1635.9,2101.5 L1633.5,2094.2 L1630.3,2089.0 L1601.9,2062.8 L1602.3,2055.6 L1607.9,2041.5 L1619.1,2020.6 L1597.0,2006.3 L1605.4,2003.1 L1610.7,1999.7 L1616.0,1993.7 L1622.2,1977.8 L1633.6,1948.8 L1641.0,1942.0 L1570.8,1874.0 L1555.4,1883.6 L1551.8,1884.5 L1548.4,1884.6 L1544.0,1884.1 L1540.4,1883.1 L1536.9,1881.0 L1534.0,1878.5 L1497.7,1843.5 L1490.9,1836.7 L1487.9,1833.1 L1485.4,1828.6 L1484.2,1824.5 L1483.7,1820.5 L1483.8,1816.7 L1484.5,1813.1 L1485.4,1810.2 L1486.6,1808.1 L1489.2,1804.4 L1492.3,1800.7 L1508.6,1783.8 L1632.6,1898.7 L1624.1,1908.3 L1716.0,1995.2 L1821.9,1840.1 L1754.7,1777.3 L1746.1,1785.0 L1620.6,1666.5 L1637.0,1651.2 L1709.1,1718.8 L1716.3,1708.2 L1720.3,1702.9 L1725.4,1697.7 L1731.3,1691.2 L1737.3,1687.3 L1746.8,1679.3 L1756.3,1670.5 L1774.5,1653.3 L1818.0,1604.4 L1825.8,1596.3 L1854.5,1581.6 L1881.7,1560.3 L1884.3,1558.3 L1891.4,1552.8 L1894.5,1550.0 L1897.0,1546.8 L1898.7,1543.5 L1899.8,1540.2 L1901.1,1537.7 L1902.6,1535.0 L1905.2,1530.7 L1907.0,1528.0 L1908.8,1525.5 L1912.1,1522.9 L1915.3,1520.7 L1918.8,1518.6 L1927.1,1514.6 L1935.1,1510.6 L1936.3,1510.4 L1937.5,1510.6 L1939.9,1511.3 L1946.4,1514.6 L1951.3,1517.0 L1953.6,1518.4 L1955.7,1520.1 L1989.1,1551.8 L1991.4,1553.1 L2002.3,1556.0 L2005.8,1557.0 L2009.7,1557.4 L2012.7,1557.3 L2015.0,1556.5 L2017.3,1554.9 L2029.2,1538.1 L2029.2,1535.8 L2028.8,1533.7 L2027.5,1531.4 L2025.5,1529.2 L2016.4,1520.7 L2017.1,1519.3 L2028.8,1494.5 L2048.8,1454.2 L2067.0,1440.8 L2077.5,1430.3 L2084.7,1422.0 L2092.3,1414.3 L2100.7,1407.4 L2105.8,1402.7 L2111.2,1397.8 L2115.2,1393.8 L2117.2,1390.2 L2118.8,1387.4 L2119.8,1384.7 L2120.2,1381.5 L2120.4,1378.3 L2126.5,1372.1 L2135.5,1363.6 L2150.5,1351.3 L2166.2,1339.4 L2173.2,1329.6 L2175.8,1319.5 L2183.6,1314.7 L2193.4,1314.5 L2203.3,1308.6 L2212.0,1292.9 L2211.8,1276.6 L2213.4,1251.4 L2215.9,1247.8 L2217.4,1245.4 L2220.2,1240.8 L2216.7,1230.1 L2220.7,1225.1 L2240.5,1200.6 L2274.5,1160.9 L2281.0,1151.5 L2283.6,1146.6 L2294.4,1131.7 L2297.4,1122.3 L2297.5,1107.8 L2297.1,1093.3 L2297.0,1078.5 L2301.4,1062.2 L2308.8,1046.1 L2319.4,1030.6 L2327.1,1019.1 L2336.2,1007.6 L2353.8,988.0 L2431.8,949.4 L2442.1,946.7 L2444.7,952.3 L2447.8,957.7 L2448.8,958.7 L2450.5,958.0 L2450.8,954.2 L2449.6,951.0 L2453.9,949.7 L2469.9,945.0 L2490.7,938.8 L2507.5,933.8 L2513.5,932.0 L2507.5,913.1 L2517.9,910.3 L2535.2,907.9 L2537.3,907.6 L2537.4,906.4 L2537.4,902.0 L2553.1,901.3 L2577.7,900.3 L2587.2,904.9 L2610.9,990.3 L2616.2,995.4 L2605.9,1006.0 L2615.0,1015.0 L2624.0,1024.0 L2634.8,1013.0 L2835.3,1203.6 L3102.9,918.0 L3196.4,1007.4 L3200.0,1006.3 L3201.4,1007.9 L3207.7,1003.9 L3212.9,1002.0 L3218.4,999.5 L3227.8,994.6 L3233.6,991.3 L3240.5,987.3 L3246.9,983.3 L3252.1,979.9 L3256.9,976.8 L3262.5,972.7 L3268.9,968.0 L3273.8,963.9 L3279.0,959.3 L3284.7,953.9 L3290.1,948.5 L3302.7,935.1 L3310.3,926.0 L3317.7,916.1 L3322.8,908.9 L3327.6,901.5 L3333.3,891.2 L3338.3,881.1 L3342.3,872.8 L3345.7,864.5 L3347.8,859.0 L3350.1,852.8 L3355.5,846.1 L3184.5,683.4 L3186.6,681.1 L3207.1,659.1 L3222.0,643.3 L3223.5,641.7 L3266.9,682.3 L3277.4,676.9 L3278.6,678.4 L3380.6,625.3 L3384.8,623.1 L3387.7,620.8 L3390.4,618.3 L3393.5,615.1 L3396.5,610.6 L3399.1,606.4 L3400.8,603.2 L3402.0,599.1 L3403.1,594.6 L3403.6,589.7 L3403.6,584.2 L3403.2,579.8 L3402.4,575.9 L3401.1,571.2 L3369.2,479.4 L3364.9,464.3 L3366.0,459.1 L3289.0,440.0 L3292.6,426.7 L3295.6,414.7 L3318.4,324.5 L3300.7,271.9 L3290.3,237.9 L3287.3,229.4 L3314.9,204.1 L3346.0,187.4 L3347.9,190.0 L3350.9,194.3 L3357.9,203.4 L3358.7,202.6 L3358.9,199.5 L3349.2,186.1 L3366.5,173.7 L3370.3,171.5 L3379.3,183.2 L3380.8,184.3 L3382.3,184.6 L3383.1,184.4 L3383.1,183.6 L3340.3,125.0 L3337.2,121.6 L3333.6,116.7 L3315.0,94.2 L3330.9,44.9 L3343.1,32.2 L3357.2,25.6 L3387.2,7.8 L3393.4,1.4 L3420.3,-22.2 L3428.8,-13.3 L3453.7,13.6 L3476.8,-5.8 L3492.3,9.1 L3506.2,22.7 L3506.9,23.4 L3518.7,13.3 L3534.3,29.9 L3547.7,47.1 L3557.6,58.6 L3558.9,60.1 L3587.7,34.8 L3589.2,33.5 L3582.4,25.2 L3598.1,12.3 L3645.7,67.8 L3686.2,41.1 L3690.2,37.3 L3707.8,29.9 L3711.8,26.0 L3715.6,21.0 L3737.3,1.7 L3732.4,-5.0 L3693.6,3.9 L3649.2,-46.6 L3654.3,-51.0 L3661.0,-43.2 L3692.4,-70.2 L3725.7,-33.8 L3734.7,-30.2 L3740.1,-27.1 L3746.9,-19.4 L3750.6,-22.7 L3726.5,-50.1 L3741.3,-62.9 L3771.2,-27.0 L3775.0,-29.8 L3774.6,-30.6 L3840.2,-78.0 L3859.7,-92.4 L3796.0,-172.0 L3809.6,-181.5 L3865.0,-116.6 L3905.9,-109.1 L3932.9,-124.9 L3936.7,-127.3 L3936.5,-130.3 L3934.6,-133.8 L3955.7,-147.1 L3961.9,-140.9 L3979.7,-151.4 L3966.8,-167.4 L3904.5,-250.7 L3948.5,-296.3 L3977.4,-339.0 L3978.1,-372.4 L3962.7,-416.8 L3995.1,-443.8 L4029.1,-456.9 L4040.3,-459.5 L4049.3,-460.7 L4060.3,-460.0 L4071.7,-457.2 L4088.2,-443.1 L4131.0,-390.9 L4165.2,-347.5 L4206.1,-320.2 L4222.2,-317.6 L4236.6,-315.9 L4248.8,-315.4 L4264.4,-316.5 L4281.3,-319.3 L4295.0,-323.2 L4306.6,-328.6 L4314.3,-333.1 L4320.0,-339.1 L4329.6,-350.7 L4340.0,-369.7 L4351.3,-394.9 L4371.4,-384.6 L4379.4,-381.9 L4388.0,-380.7 L4401.7,-381.6 L4410.8,-384.3 L4421.2,-388.8 L4430.9,-394.4 L4441.2,-404.4 L4450.0,-412.4 L4461.0,-419.9 L4468.6,-424.8 L4479.8,-428.8 L4499.1,-434.4 L4510.5,-437.6 L4522.7,-442.2 L4533.3,-447.7 L4539.6,-451.3 L4544.6,-456.5 L4610.0,-489.3 L4612.5,-490.7 L4615.4,-492.5 L4618.4,-494.8 L4622.8,-497.3 L4625.7,-498.7 L4628.8,-501.4 L4631.2,-503.9 L4634.4,-506.0 L4637.8,-508.4 L4642.3,-512.6 L4648.7,-513.1 L4655.3,-513.9 L4659.6,-515.3 L4665.2,-517.9 L4672.1,-521.0 L4679.4,-525.5 L4683.5,-529.4 L4688.1,-534.7 L4691.0,-539.6 L4692.6,-544.1 L4692.7,-547.3 L4692.8,-549.9 L4694.4,-560.3 L4730.8,-581.4 L4794.6,-618.2 L4807.0,-625.3 L4915.2,-687.7 L5032.4,-755.0 L5082.3,-783.6 L5099.6,-793.3 L5244.5,-877.5 L5276.7,-895.2 L5276.2,-896.3 L5342.5,-933.8 L5368.0,-948.1 L5415.0,-974.1 L5415.5,-973.4 L5433.7,-983.4 L5477.9,-1008.1 L5483.2,-1012.9 L5528.0,-1045.7 L5550.3,-1064.2 L5570.8,-1081.5 L5580.2,-1086.8 L5601.4,-1107.8 L5603.2,-1106.7 L5606.0,-1107.0 L5607.4,-1106.1 L5637.2,-1141.0 L5629.7,-1148.0 L5630.7,-1149.8 L5633.9,-1154.4 L5642.5,-1165.3 L5647.7,-1173.2 L5651.8,-1179.7 L5657.5,-1188.4 L5663.0,-1197.4 L5669.2,-1207.7 L5675.6,-1218.9 L5689.5,-1247.6 L5693.8,-1256.7 L5697.3,-1264.0 L5699.7,-1269.5 L5701.8,-1273.7 L5706.2,-1284.7 L5590.4,-1500.7 L5588.2,-1504.8 L5586.5,-1507.1 L5585.3,-1508.8 L5583.7,-1510.2 L5582.2,-1511.2 L5580.2,-1512.4 L5578.1,-1513.2 L5576.3,-1513.6 L5574.5,-1513.8 L5571.8,-1513.8 L5568.7,-1513.3 L5566.0,-1512.5 L5563.2,-1511.1 L5536.3,-1495.6 L5501.2,-1475.5 L5476.7,-1461.9 L5432.0,-1437.3 L5404.6,-1422.4 L5405.6,-1420.7 L5393.9,-1414.0 L5355.6,-1394.2 L5327.2,-1377.4 L5310.5,-1368.1 L5285.1,-1353.5 L5282.2,-1351.5 L5259.9,-1391.6 L5303.7,-1415.6 L5363.5,-1448.1 L5404.2,-1470.7 L5409.2,-1473.6 L5408.5,-1474.7 L5443.7,-1493.9 L5462.4,-1504.2 L5505.3,-1525.1 L5513.5,-1529.3 L5578.2,-1565.3 L5602.5,-1578.7 L5619.6,-1587.9 L5639.8,-1599.5 L5667.8,-1548.9 L5623.8,-1524.8 L5621.5,-1521.1 L5620.6,-1517.2 L5620.2,-1514.2 L5620.1,-1511.6 L5620.3,-1509.5 L5621.1,-1506.6 L5710.8,-1340.7 L5712.5,-1338.2 L5714.5,-1336.3 L5716.5,-1335.0 L5718.6,-1334.3 L5720.9,-1334.0 L5723.1,-1334.2 L5724.8,-1334.7 L5764.6,-1364.9 L5783.3,-1380.6 L5802.6,-1396.9 L5809.9,-1403.6 L5833.8,-1423.2 L5834.9,-1423.2 L5858.1,-1443.0 L5858.2,-1444.2 L5873.4,-1456.7 L5885.4,-1466.5 L5906.0,-1483.5 L5907.9,-1481.2 L5928.1,-1497.9 L5938.3,-1506.4 L5966.6,-1529.9 L5986.3,-1546.3 L5984.4,-1549.1 L5990.9,-1554.6 L6001.6,-1563.4 L6008.2,-1569.2 L6036.1,-1581.7 L6055.0,-1588.3 L6064.7,-1592.9 L6091.9,-1593.1 L6101.4,-1593.1 L6121.5,-1592.1 L6145.0,-1591.1 L6146.7,-1592.7 L6149.0,-1589.7 L6156.4,-1589.3 L6223.7,-1583.5 L6231.6,-1581.8 L6238.5,-1580.7 L6254.1,-1579.4 L6283.2,-1578.0 L6289.6,-1577.9 L6295.6,-1578.1 L6318.9,-1579.0 L6330.9,-1579.6 L6342.8,-1580.7 L6361.1,-1582.6 L6361.0,-1581.5 L6375.5,-1584.0 L6389.2,-1586.6 L6399.7,-1588.5 L6413.5,-1598.9 L6415.1,-1596.7 L6416.8,-1594.3 L6538.4,-1433.5 L6831.9,-1332.3 L7370.5,-1727.9 L7517.3,-1833.6 L7574.0,-1954.6 L7483.8,-2072.8 L7487.8,-2089.7 L7503.6,-2094.0 L7534.0,-2087.7 L7555.6,-2095.8 L7561.6,-2104.2 L7560.3,-2111.5 L7544.2,-2143.1 L7543.1,-2154.9 L7542.2,-2178.3 L7539.4,-2200.9 L7542.2,-2204.9 L7551.3,-2209.3 L7562.4,-2211.8 L7570.4,-2220.4 L7572.2,-2230.8 L7565.4,-2250.9 L7564.7,-2264.8 L7566.9,-2280.6 L7577.9,-2308.3 L7575.6,-2321.1 L7570.1,-2335.4 L7569.9,-2354.8 L7566.7,-2380.4 L7560.9,-2396.4 L7557.3,-2404.8 L7559.7,-2408.5 L7562.0,-2408.3 L7562.6,-2409.8 L7562.9,-2411.8 L7562.8,-2413.8 L7559.3,-2414.2 L7557.1,-2417.3 L7557.5,-2421.0 L7554.5,-2421.8 L7550.8,-2421.9 L7550.3,-2421.0 L7542.7,-2430.0 L7541.1,-2432.8 L7539.8,-2436.7 L7538.9,-2440.5 L7538.2,-2444.5 L7537.9,-2448.5 L7537.7,-2452.1 L7537.7,-2455.8 L7538.0,-2457.8 L7539.6,-2462.8 L7541.4,-2466.8 L7543.7,-2470.7 L7547.1,-2475.6 L7550.6,-2480.3 L7553.9,-2483.7 L7558.0,-2486.8 L7558.8,-2486.0 L7593.9,-2512.8 L7599.0,-2516.7 L7598.0,-2518.2 L7598.0,-2520.8 L7606.7,-2527.6 L7608.9,-2527.5 L7611.0,-2526.0 L7614.7,-2528.8 L7650.7,-2556.1 L7650.3,-2557.0 L7654.5,-2560.1 L7659.5,-2563.2 L7663.0,-2564.8 L7668.0,-2566.7 L7672.3,-2567.9 L7676.6,-2568.5 L7681.3,-2568.9 L7684.1,-2568.7 L7688.0,-2568.1 L7691.8,-2566.8 L7694.6,-2565.4 L7697.3,-2563.8 L7699.3,-2562.3 L7701.0,-2560.7 L7703.5,-2558.3 L7704.6,-2557.9 L7706.4,-2557.9 L7708.2,-2558.2 L7713.7,-2562.1 L7713.7,-2563.2 L7714.3,-2564.0 L7714.9,-2565.1 L7714.8,-2566.4 L7714.5,-2567.5 L7713.7,-2568.5 L7709.8,-2572.4 L7706.7,-2574.9 L7703.1,-2576.9 L7697.2,-2579.5 L7692.1,-2581.5 L7701.0,-2586.1 L7711.9,-2593.7 L7725.4,-2595.4 L7738.9,-2594.5 L7747.7,-2598.0 L7755.4,-2609.0 L7784.4,-2660.9 L7796.2,-2682.3 L7805.5,-2705.1 L7807.1,-2709.9 L7820.9,-2752.2 L7823.1,-2756.3 L7825.7,-2760.4 L7858.1,-2800.5 L7865.0,-2807.7 L7870.1,-2812.1 L7942.7,-2874.3 L7946.7,-2877.0 L7959.1,-2883.8 L7974.0,-2892.2 L8020.4,-2916.5 L8121.5,-2970.8 L8123.9,-2968.9 L8125.8,-2968.2 L8127.5,-2967.7 L8129.3,-2968.0 L8131.2,-2968.4 L8136.6,-2969.5 L8142.9,-2970.9 L8148.6,-2972.2 L8154.5,-2973.3 L8157.7,-2974.0 L8162.1,-2975.3 L8167.1,-2977.4 L8179.2,-2984.0 L8183.6,-2986.4 L8185.9,-2987.8 L8188.2,-2988.8 L8197.6,-2992.8 L8207.9,-2996.8 L8220.9,-3002.4 L8236.2,-3008.7 L8236.8,-3009.0 L8238.1,-3009.1 L8239.8,-3009.6 L8242.2,-3011.4 L8244.9,-3012.4 L8247.9,-3013.9 L8253.5,-3017.1 L8255.5,-3019.1 L8258.8,-3021.2 L8258.5,-3021.8 L8259.9,-3023.5 L8261.7,-3025.4 L8264.7,-3026.9 L8267.2,-3027.9 L8269.9,-3028.9 L8272.4,-3030.2 L8277.3,-3033.3 L8278.7,-3034.7 L8280.1,-3036.9 L8280.7,-3038.5 L8280.9,-3040.1 L8280.7,-3041.6 L8281.0,-3043.1 L8267.0,-3060.0 L8311.1,-3085.9 L8332.0,-3097.0 L8336.1,-3098.3 L8342.5,-3097.1 L8349.6,-3087.2 L8352.8,-3084.4 L8355.7,-3083.0 L8358.4,-3082.4 L8360.9,-3082.5 L8398.7,-3098.1 L8409.0,-3103.1 L8418.6,-3108.4 L8434.1,-3116.6 L8437.3,-3117.7 L8652.1,-3207.0 L8719.3,-3239.3 L9019.8,-3383.6 L16032.9,-3441.6 L16032.9,6594.0 L1045.2,6594.0 L1045.2,6167.5 Z" fill="#add7e1" stroke="none"><title>Biscayne Bay</title></path><path d="M-58.2,102.5 L-52.2,100.8 L143.0,94.2 L147.1,94.5 L151.0,96.4 L153.2,99.0 L154.3,102.0 L167.4,391.4 L166.5,394.3 L164.5,397.3 L162.3,398.4 L159.4,399.7 L155.4,400.0 L-48.5,407.0 L-51.4,405.3 L-53.0,402.0 L-53.6,398.3 L-54.2,390.2 L-66.7,113.0 L-65.2,109.0 L-63.0,106.1 L-58.2,102.5 Z" fill="#d5f2cb" stroke="#9fcf91" stroke-width="0.4"><title>Virrick Park</title></path><path d="M-58.2,102.5 L-52.2,100.8 L143.0,94.2 L147.1,94.5 L151.0,96.4 L153.2,99.0 L154.3,102.0 L167.4,391.4 L166.5,394.3 L164.5,397.3 L162.3,398.4 L159.4,399.7 L155.4,400.0 L-48.5,407.0 L-51.4,405.3 L-53.0,402.0 L-53.6,398.3 L-54.2,390.2 L-66.7,113.0 L-65.2,109.0 L-63.0,106.1 L-58.2,102.5 Z" fill="url(#park-dots)" stroke="none"/><path d="M-58.2,102.5 L-52.2,100.8 L143.0,94.2 L147.1,94.5 L151.0,96.4 L153.2,99.0 L154.3,102.0 L167.4,391.4 L166.5,394.3 L164.5,397.3 L162.3,398.4 L159.4,399.7 L155.4,400.0 L-48.5,407.0 L-51.4,405.3 L-53.0,402.0 L-53.6,398.3 L-54.2,390.2 L-66.7,113.0 L-65.2,109.0 L-63.0,106.1 L-58.2,102.5 Z" fill="url(#park-canopy)" stroke="none"/><path d="M53.0,151.9 L96.5,149.8 L98.4,150.1 L99.5,151.0 L100.6,152.8 L101.2,158.3 L101.6,163.0 L101.0,164.9 L99.6,165.7 L96.6,166.9 L59.9,167.5 L58.0,167.2 L55.9,166.2 L54.7,164.2 L53.8,160.6 L53.0,151.9 Z" fill="#ead9a5" stroke="#d3bb7d" stroke-width="0.45"></path><path d="M67.3,58.8 L28.9,60.1 L28.5,46.6 L66.8,45.2 L67.3,58.8 Z" fill="#d6d2c9" stroke="#bab6ad" stroke-width="0.4"></path><path d="M65.1,24.8 L27.3,26.3 L26.8,12.3 L64.6,10.8 L65.1,24.8 Z" fill="#d6d2c9" stroke="#bab6ad" stroke-width="0.4"></path><path d="M49.7,123.8 L55.6,131.6 L49.9,141.9 L39.7,146.2 L43.6,155.2 L41.6,162.6 L39.4,166.0 L45.0,171.8 L45.8,181.6 L40.0,190.2 L30.8,189.6 L28.8,183.3 L20.6,181.8 L18.3,174.9 L21.0,168.5 L28.8,166.1 L22.7,160.9 L23.3,154.1 L26.4,148.9 L16.8,145.3 L16.5,139.5 L17.7,136.5 L9.5,135.3 L8.6,138.0 L5.7,141.2 L3.2,142.4 L0.4,142.7 L-2.4,142.2 L-4.9,140.7 L-6.4,139.1 L-10.4,141.4 L-13.5,141.9 L-16.5,141.4 L-19.3,140.1 L-22.5,136.8 L-23.7,133.9 L-24.0,130.9 L-27.6,129.8 L-29.7,132.4 L-31.7,133.2 L-34.0,133.1 L-36.0,132.2 L-37.9,129.5 L-38.2,127.3 L-37.6,125.2 L-35.3,122.8 L-33.1,122.2 L-30.9,122.5 L-29.2,123.4 L-23.2,123.1 L-22.6,120.2 L-21.2,117.6 L-17.8,114.8 L-15.0,113.9 L-12.1,113.8 L-9.2,114.7 L-5.8,117.5 L-4.4,120.1 L-3.8,123.0 L-4.2,126.4 L-1.6,125.1 L1.4,124.7 L4.3,125.2 L6.9,126.6 L9.3,120.5 L15.1,118.8 L19.6,116.3 L21.5,110.6 L31.0,107.0 L40.0,113.4 L40.4,119.6 L49.7,123.8 Z" fill="#d6d2c9" stroke="#bab6ad" stroke-width="0.4"></path><path d="M48.3,6.8 L27.0,8.0 L26.3,-5.4 L47.6,-6.5 L48.3,6.8 Z" fill="#d6d2c9" stroke="#bab6ad" stroke-width="0.4"></path><path d="M211.6,115.8 L211.3,148.2 L195.5,148.1 L195.8,115.7 L211.6,115.8 Z" fill="#d6d2c9" stroke="#bab6ad" stroke-width="0.4"></path><path d="M65.3,41.5 L27.6,43.1 L27.0,29.9 L64.8,28.3 L65.3,41.5 Z" fill="#d6d2c9" stroke="#bab6ad" stroke-width="0.4"></path><path d="M127.5,22.8 L99.5,23.7 L99.1,10.1 L127.1,9.3 L127.5,22.8 Z" fill="#d6d2c9" stroke="#bab6ad" stroke-width="0.4"></path><path d="M206.5,-0.9 L180.8,0.5 L179.9,-15.7 L205.6,-17.2 L206.5,-0.9 Z" fill="#d6d2c9" stroke="#bab6ad" stroke-width="0.4"></path><path d="M115.3,5.7 L87.1,6.3 L86.8,-6.7 L115.1,-7.3 L115.3,5.7 Z" fill="#d6d2c9" stroke="#bab6ad" stroke-width="0.4"></path><path d="M144.2,197.0 L138.6,197.2 L140.2,242.0 L121.2,242.5 L115.7,246.3 L128.0,262.5 L128.3,262.9 L129.2,264.4 L130.0,266.0 L130.6,267.7 L131.0,269.4 L131.3,271.2 L131.3,272.9 L131.2,274.7 L131.0,276.5 L130.5,278.2 L129.9,279.8 L129.1,281.4 L128.1,282.9 L127.1,284.3 L125.8,285.6 L124.5,286.7 L123.0,287.7 L121.5,288.6 L119.9,289.2 L118.2,289.8 L116.4,290.1 L114.7,290.3 L112.9,290.3 L111.2,290.1 L109.4,289.7 L107.8,289.1 L106.2,288.4 L104.6,287.5 L103.2,286.5 L100.4,288.5 L102.5,292.0 L86.4,304.2 L37.4,239.2 L53.5,227.2 L59.7,235.5 L63.4,232.5 L62.6,232.0 L61.3,231.1 L60.1,230.0 L59.1,228.7 L58.2,227.4 L57.4,226.0 L56.9,224.4 L56.4,222.9 L56.2,221.3 L56.1,219.6 L56.2,218.0 L56.5,216.4 L57.0,214.9 L57.6,213.4 L58.4,212.0 L59.3,210.7 L60.4,209.4 L61.6,208.4 L62.9,207.4 L64.3,206.7 L65.8,206.0 L67.4,205.6 L69.0,205.3 L70.6,205.2 L72.2,205.3 L73.8,205.5 L75.3,206.0 L76.8,206.6 L78.3,207.3 L79.6,208.3 L80.8,209.3 L81.9,210.5 L82.9,211.8 L83.7,213.2 L84.3,214.7 L84.8,216.3 L86.8,214.7 L92.6,215.5 L100.9,226.2 L115.6,216.0 L120.0,205.2 L118.1,163.4 L143.2,162.6 L144.2,197.0 Z" fill="#d6d2c9" stroke="#bab6ad" stroke-width="0.4"><title>Virrick Park Branch Library</title></path><path d="M277.8,-10.2 L277.9,-5.3 L282.7,-5.5 L283.2,10.0 L278.4,10.2 L278.6,15.9 L241.5,17.0 L240.7,-9.1 L277.8,-10.2 Z" fill="#d6d2c9" stroke="#bab6ad" stroke-width="0.4"></path><path d="M279.1,19.5 L279.3,25.0 L284.2,24.8 L284.7,40.1 L279.7,40.2 L279.9,45.9 L243.2,47.4 L242.1,21.1 L279.1,19.5 Z" fill="#d6d2c9" stroke="#bab6ad" stroke-width="0.4"></path><path d="M249.9,243.5 L249.5,207.3 L287.8,207.0 L296.4,242.3 L249.9,243.5 Z" fill="#d6d2c9" stroke="#bab6ad" stroke-width="0.4"></path><path d="M206.4,11.7 L207.5,31.8 L188.1,32.8 L187.8,27.6 L181.8,28.0 L181.0,13.1 L206.4,11.7 Z" fill="#d6d2c9" stroke="#bab6ad" stroke-width="0.4"></path><path d="M209.2,214.3 L209.3,217.6 L214.5,217.5 L214.8,226.0 L215.8,225.9 L216.4,242.1 L209.7,242.3 L209.7,244.3 L204.2,244.5 L204.2,242.5 L198.3,242.7 L197.6,221.1 L203.4,220.9 L203.2,214.6 L209.2,214.3 Z" fill="#d6d2c9" stroke="#bab6ad" stroke-width="0.4"></path><path d="M232.4,217.0 L232.6,222.9 L242.3,222.6 L242.9,238.3 L235.1,238.6 L235.2,240.2 L229.8,240.4 L229.8,239.1 L223.2,239.3 L222.4,217.4 L232.4,217.0 Z" fill="#d6d2c9" stroke="#bab6ad" stroke-width="0.4"></path><path d="M195.9,161.3 L212.6,160.7 L213.6,188.1 L196.9,188.7 L195.9,161.3 Z" fill="#d6d2c9" stroke="#bab6ad" stroke-width="0.4"></path><path d="M133.3,-248.9 L142.3,52.4 L142.1,54.8 L141.4,57.0 L139.6,59.7 L137.0,62.4 L134.5,64.3 L131.9,65.6 L14.6,70.3 L12.4,70.0 L11.2,69.5 L10.3,68.0 L10.0,65.2 L-3.2,-252.9" fill="none" stroke="#cf828d" stroke-width="1.5" stroke-dasharray="1.6 3.0" opacity="0.62" stroke-linecap="round" stroke-linejoin="round"></path><path d="M-3.3,71.1 L3.5,71.0 L10.2,71.0" fill="none" stroke="#cf828d" stroke-width="1.5" stroke-dasharray="1.6 3.0" opacity="0.62" stroke-linecap="round" stroke-linejoin="round"></path><path d="M10.2,71.0 L11.2,69.5" fill="none" stroke="#cf828d" stroke-width="1.5" stroke-dasharray="1.6 3.0" opacity="0.62" stroke-linecap="round" stroke-linejoin="round"></path><path d="M139.5,-310.3 L155.6,60.0 L162.5,77.1 L170.8,94.6 L177.4,272.7 L182.1,388.9" fill="none" stroke="#cec8bb" stroke-width="4.8" stroke-linecap="round" stroke-linejoin="round"/><path d="M139.5,-310.3 L155.6,60.0 L162.5,77.1 L170.8,94.6 L177.4,272.7 L182.1,388.9" fill="none" stroke="#ffffff" stroke-width="3.7" stroke-linecap="round" stroke-linejoin="round"><title>Hibiscus Street</title></path><path d="M-13.0,-306.0 L3.3,66.1 L3.5,71.0 L4.0,82.8" fill="none" stroke="#cec8bb" stroke-width="4.8" stroke-linecap="round" stroke-linejoin="round"/><path d="M-13.0,-306.0 L3.3,66.1 L3.5,71.0 L4.0,82.8" fill="none" stroke="#ffffff" stroke-width="3.7" stroke-linecap="round" stroke-linejoin="round"><title>Carter Street</title></path><path d="M474.9,260.2 L196.5,271.9 L177.4,272.7" fill="none" stroke="#cec8bb" stroke-width="4.8" stroke-linecap="round" stroke-linejoin="round"/><path d="M474.9,260.2 L196.5,271.9 L177.4,272.7" fill="none" stroke="#ffffff" stroke-width="3.7" stroke-linecap="round" stroke-linejoin="round"><title>Percival Avenue</title></path><path d="M311.4,72.4 L172.7,77.0 L162.5,77.1 L142.8,77.8 L4.0,82.8 L-85.3,85.1" fill="none" stroke="#cec8bb" stroke-width="4.8" stroke-linecap="round" stroke-linejoin="round"/><path d="M311.4,72.4 L172.7,77.0 L162.5,77.1 L142.8,77.8 L4.0,82.8 L-85.3,85.1" fill="none" stroke="#ffffff" stroke-width="3.7" stroke-linecap="round" stroke-linejoin="round"><title>Day Avenue</title></path><text x="50.4" y="246.0" text-anchor="middle" font-family="Arial, sans-serif" font-size="8" font-weight="600" paint-order="stroke" stroke="#edf6e8" stroke-width="1.9" stroke-linejoin="round" fill="#4f7d54" textLength="61.4" lengthAdjust="spacing">Virrick Park</text><text x="173.5" y="167.3" transform="rotate(87.9 173.5 167.3)" text-anchor="middle" dominant-baseline="central" font-family="Arial, sans-serif" font-size="8.3" textLength="79.7" lengthAdjust="spacing" font-weight="650" paint-order="stroke" stroke="#fffaf0" stroke-width="2.05" stroke-linejoin="round" fill="#695f54">Hibiscus Street</text><text x="79.4" y="80.1" transform="rotate(-2.1 79.4 80.1)" text-anchor="middle" dominant-baseline="central" font-family="Arial, sans-serif" font-size="8.3" textLength="53.1" lengthAdjust="spacing" font-weight="650" paint-order="stroke" stroke="#fffaf0" stroke-width="2.05" stroke-linejoin="round" fill="#695f54">Day Avenue</text><text x="37.3" y="16.5" text-anchor="middle" font-family="Arial, sans-serif" font-size="6.5" textLength="18.0" lengthAdjust="spacing" font-weight="500" paint-order="stroke" stroke="#f3f5ee" stroke-width="1.55" stroke-linejoin="round" fill="#6f777a">3165</text><text x="203.6" y="132.0" text-anchor="middle" font-family="Arial, sans-serif" font-size="6.5" textLength="18.0" lengthAdjust="spacing" font-weight="500" paint-order="stroke" stroke="#f3f5ee" stroke-width="1.55" stroke-linejoin="round" fill="#6f777a">3478</text><text x="46.2" y="35.7" text-anchor="middle" font-family="Arial, sans-serif" font-size="6.5" textLength="18.0" lengthAdjust="spacing" font-weight="500" paint-order="stroke" stroke="#f3f5ee" stroke-width="1.55" stroke-linejoin="round" fill="#6f777a">3173</text><text x="113.3" y="16.5" text-anchor="middle" font-family="Arial, sans-serif" font-size="6.5" textLength="18.0" lengthAdjust="spacing" font-weight="500" paint-order="stroke" stroke="#f3f5ee" stroke-width="1.55" stroke-linejoin="round" fill="#6f777a">3182</text><text x="94.3" y="241.1" text-anchor="middle" font-family="Arial, sans-serif" font-size="6.5" textLength="18.0" lengthAdjust="spacing" font-weight="500" paint-order="stroke" stroke="#f3f5ee" stroke-width="1.55" stroke-linejoin="round" fill="#6f777a">3255</text><text x="192.1" y="24.2" text-anchor="middle" font-family="Arial, sans-serif" font-size="6.5" textLength="18.0" lengthAdjust="spacing" font-weight="500" paint-order="stroke" stroke="#f3f5ee" stroke-width="1.55" stroke-linejoin="round" fill="#6f777a">3187</text><text x="207.9" y="229.8" text-anchor="middle" font-family="Arial, sans-serif" font-size="6.5" textLength="18.0" lengthAdjust="spacing" font-weight="500" paint-order="stroke" stroke="#f3f5ee" stroke-width="1.55" stroke-linejoin="round" fill="#6f777a">3469</text><text x="232.6" y="231.6" text-anchor="middle" font-family="Arial, sans-serif" font-size="6.5" textLength="18.0" lengthAdjust="spacing" font-weight="500" paint-order="stroke" stroke="#f3f5ee" stroke-width="1.55" stroke-linejoin="round" fill="#6f777a">3463</text><text x="88.2" y="44.6" text-anchor="middle" font-family="Arial, sans-serif" font-size="6.5" textLength="18.0" lengthAdjust="spacing" font-weight="500" paint-order="stroke" stroke="#f3f5ee" stroke-width="1.55" stroke-linejoin="round" fill="#6f777a">3523</text><text x="118.3" y="43.3" text-anchor="middle" font-family="Arial, sans-serif" font-size="6.5" textLength="18.0" lengthAdjust="spacing" font-weight="500" paint-order="stroke" stroke="#f3f5ee" stroke-width="1.55" stroke-linejoin="round" fill="#6f777a">3501</text><text x="42.3" y="52.7" text-anchor="middle" font-family="Arial, sans-serif" font-size="6.5" textLength="18.0" lengthAdjust="spacing" font-weight="500" paint-order="stroke" stroke="#f3f5ee" stroke-width="1.55" stroke-linejoin="round" fill="#6f777a">3171</text><text x="202.2" y="50.4" text-anchor="middle" font-family="Arial, sans-serif" font-size="6.5" textLength="18.0" lengthAdjust="spacing" font-weight="500" paint-order="stroke" stroke="#f3f5ee" stroke-width="1.55" stroke-linejoin="round" fill="#6f777a">3463</text><text x="230.9" y="113.9" text-anchor="middle" font-family="Arial, sans-serif" font-size="6.5" textLength="18.0" lengthAdjust="spacing" font-weight="500" paint-order="stroke" stroke="#f3f5ee" stroke-width="1.55" stroke-linejoin="round" fill="#6f777a">3468</text></svg>