<svg xmlns="http://www.w3.org/2000/svg" width="256" height="256" viewBox="0 0 256 256"><rect width="256" height="256" fill="#f1efe7"/><path d="M-4357.4,6761.1 L-4250.0,6716.5 L-4216.4,6700.4 L-4066.1,6628.2 L-4037.9,6655.5 L-4035.4,6657.8 L-3982.8,6612.8 L-3970.2,6603.2 L-3949.3,6584.3 L-3831.2,6475.9 L-3735.9,6367.1 L-3732.3,6360.2 L-3728.8,6356.2 L-3723.2,6349.9 L-3717.6,6343.4 L-3715.3,6340.7 L-3752.9,6292.2 L-3703.2,6262.4 L-3676.2,6298.3 L-3638.1,6254.7 L-3670.4,6211.9 L-3630.4,6170.3 L-3599.7,6210.8 L-3564.3,6170.6 L-3549.3,6160.8 L-3475.7,6113.0 L-3439.3,6088.9 L-3395.5,6060.0 L-3374.8,6046.5 L-3322.4,6012.6 L-3335.9,5994.8 L-3360.1,5962.5 L-3297.6,5922.8 L-3274.8,5911.0 L-3273.1,5909.8 L-3261.1,5900.5 L-3218.3,5877.7 L-3215.3,5873.0 L-3203.3,5864.8 L-3196.8,5855.3 L-3195.0,5853.9 L-3184.6,5849.9 L-3160.9,5841.4 L-3144.8,5834.3 L-3087.7,5807.5 L-3087.0,5809.4 L-3039.2,5788.9 L-3019.7,5814.0 L-2976.1,5784.9 L-2969.9,5780.7 L-2969.3,5780.2 L-2968.7,5779.4 L-2967.8,5777.7 L-2967.2,5776.2 L-2967.0,5774.3 L-2967.0,5772.8 L-2967.2,5771.4 L-2967.4,5769.7 L-2967.5,5768.5 L-2967.4,5767.4 L-2967.1,5766.3 L-2966.3,5764.3 L-2965.8,5763.2 L-2964.6,5761.3 L-2963.2,5759.9 L-2956.9,5757.3 L-2951.6,5755.4 L-2944.8,5753.2 L-2941.7,5752.3 L-2936.1,5750.5 L-2932.1,5749.0 L-2926.7,5746.8 L-2919.3,5743.6 L-2911.3,5739.8 L-2907.0,5737.7 L-2901.6,5735.0 L-2896.6,5732.1 L-2891.5,5729.1 L-2886.4,5725.8 L-2884.8,5724.7 L-2874.4,5716.8 L-2865.7,5710.1 L-2857.2,5702.9 L-2849.2,5695.4 L-2843.5,5688.9 L-2837.8,5682.0 L-2830.8,5673.0 L-2824.4,5664.0 L-2817.1,5652.4 L-2812.3,5643.5 L-2809.3,5637.8 L-2804.8,5628.1 L-2801.1,5619.2 L-2797.7,5609.6 L-2795.0,5601.1 L-2792.1,5587.4 L-2789.9,5575.2 L-2788.7,5564.6 L-2787.8,5552.3 L-2787.6,5539.0 L-2788.5,5526.7 L-2790.6,5510.8 L-2792.7,5499.9 L-2795.3,5489.5 L-2798.9,5477.9 L-2802.1,5468.9 L-2805.7,5459.1 L-2809.1,5451.1 L-2811.4,5445.8 L-2812.4,5442.0 L-2812.5,5439.0 L-2812.2,5436.4 L-2811.1,5434.1 L-2809.5,5432.1 L-2807.4,5431.0 L-2805.2,5430.7 L-2799.1,5432.2 L-2782.3,5436.2 L-2776.7,5308.9 L-2754.8,5081.6 L-2778.6,5075.9 L-2781.2,5068.8 L-2781.1,5058.6 L-2777.8,5035.3 L-2773.3,5030.1 L-2769.3,5014.9 L-2744.1,5020.8 L-2730.1,4875.6 L-2726.3,4835.3 L-2734.1,4833.4 L-2729.4,4814.2 L-2745.6,4810.4 L-2743.5,4798.6 L-2740.7,4790.9 L-2737.1,4781.8 L-2731.1,4769.2 L-2724.7,4770.6 L-2715.9,4679.3 L-2713.9,4623.9 L-2713.5,4613.7 L-2708.8,4578.4 L-2699.4,4490.5 L-2637.0,4327.8 L-2622.8,4283.5 L-2449.5,4217.0 L-2432.5,4210.2 L-2429.6,4208.6 L-2427.2,4206.5 L-2424.7,4203.6 L-2422.8,4200.1 L-2421.5,4196.7 L-2421.1,4191.8 L-2421.4,4185.6 L-2423.7,4107.9 L-2424.6,4092.8 L-2424.8,4082.4 L-2425.1,4062.4 L-2425.5,4056.1 L-2426.3,4050.8 L-2427.4,4046.0 L-2428.9,4041.3 L-2431.3,4035.6 L-2434.9,4029.5 L-2438.5,4024.7 L-2441.2,4020.2 L-2443.9,4014.2 L-2446.2,4008.3 L-2447.1,4003.6 L-2447.8,3998.4 L-2448.1,3993.1 L-2448.0,3988.0 L-2447.4,3982.1 L-2446.0,3976.2 L-2444.1,3971.0 L-2442.2,3966.2 L-2439.7,3961.6 L-2436.7,3956.1 L-2434.6,3951.0 L-2432.9,3944.5 L-2429.7,3939.7 L-2430.8,3895.0 L-2432.4,3892.5 L-2433.0,3862.2 L-2433.8,3826.4 L-2433.2,3821.5 L-2431.6,3816.4 L-2427.6,3808.5 L-2400.9,3751.0 L-2400.3,3750.0 L-2395.6,3739.8 L-2391.1,3730.0 L-2386.2,3720.0 L-2381.2,3709.8 L-2378.8,3704.7 L-2352.6,3650.8 L-2324.5,3591.2 L-2263.6,3467.8 L-2300.2,3426.9 L-2330.0,3490.3 L-2355.8,3545.3 L-2359.7,3553.1 L-2367.6,3569.3 L-2383.5,3568.0 L-2387.9,3567.7 L-2389.4,3569.2 L-2387.3,3571.1 L-2395.5,3578.3 L-2401.9,3584.3 L-2403.1,3609.7 L-2405.5,3614.8 L-2413.3,3614.5 L-2414.6,3614.0 L-2516.8,3571.9 L-2519.0,3570.7 L-2521.4,3569.2 L-2525.0,3566.4 L-2527.9,3563.7 L-2530.3,3561.1 L-2532.6,3557.9 L-2534.4,3555.1 L-2535.8,3552.2 L-2537.0,3549.1 L-2537.7,3547.1 L-2538.2,3544.5 L-2538.7,3541.5 L-2539.1,3537.4 L-2539.1,3531.6 L-2539.8,3511.7 L-2537.0,3511.5 L-2537.4,3501.1 L-2537.8,3483.8 L-2535.2,3483.7 L-2535.4,3471.9 L-2538.3,3472.0 L-2539.7,3422.2 L-2536.9,3422.1 L-2537.4,3410.5 L-2540.1,3410.6 L-2541.2,3373.8 L-2527.7,3359.3 L-2510.5,3358.7 L-2497.6,3358.2 L-2480.7,3357.7 L-2464.4,3357.1 L-2449.7,3356.6 L-2443.4,3356.4 L-2443.7,3350.7 L-2443.8,3344.8 L-2444.8,3325.7 L-2445.1,3289.1 L-2445.6,3288.5 L-2445.7,3284.8 L-2444.6,3284.8 L-2447.2,3196.7 L-2449.4,3113.9 L-2449.8,3111.3 L-2450.0,3106.5 L-2486.1,3107.8 L-2510.1,3105.7 L-2689.7,3112.0 L-2689.7,3110.4 L-2690.1,3102.7 L-2775.3,3105.7 L-2775.5,3091.6 L-2786.7,3089.1 L-2788.7,3028.5 L-2457.3,3017.0 L-2451.8,3009.4 L-2452.0,2987.9 L-2452.4,2969.4 L-2452.7,2957.7 L-2453.2,2946.4 L-2479.5,2933.9 L-2480.6,2906.4 L-2453.5,2893.0 L-2456.0,2829.3 L-2456.7,2826.1 L-2483.5,2813.6 L-2484.4,2779.5 L-2458.9,2766.3 L-2470.3,2627.9 L-2467.2,2566.2 L-2465.8,2465.8 L-2465.9,2356.6 L-2463.5,2341.2 L-2463.3,2333.9 L-2465.7,2324.9 L-2463.2,2324.9 L-2463.2,2316.9 L-2461.7,2111.4 L-2461.9,2102.2 L-2464.8,2102.3 L-2464.7,2064.5 L-2466.4,2062.1 L-2468.9,2023.1 L-2463.8,1987.5 L-2464.5,1944.3 L-2466.2,1934.0 L-2463.6,1902.0 L-2465.4,1863.4 L-2469.9,1822.0 L-2478.4,1755.0 L-2474.4,1736.6 L-2476.1,1718.6 L-2491.4,1705.5 L-2513.9,1705.8 L-2548.1,1710.3 L-2570.3,1710.3 L-2590.6,1702.8 L-2617.1,1684.6 L-2617.1,1652.0 L-2617.8,1611.8 L-2615.2,1578.4 L-2606.4,1552.3 L-2459.0,1549.6 L-2455.7,1340.6 L-2455.7,1039.8 L-2457.2,930.6 L5498.9,-2355.2 L5498.9,15753.9 L-4357.4,15753.9 L-4357.4,6761.1 Z" fill="#add7e1" stroke="none"><title>Biscayne Bay</title></path><path d="M810.6,5336.6 L1537.6,4912.3 L1295.3,4218.9 L1164.8,2645.6 L1164.8,1413.7 L-177.4,171.3 L3588.1,-988.3 L3606.8,647.6 L3299.2,2096.9 L3019.6,3649.6 L2833.2,4891.6 L2441.7,5336.6 L810.6,5336.6 Z" fill="#f1efe7" stroke="#8ab09d" stroke-width="0.65"><title>Miami Beach</title></path><path d="M-1363.8,180.8 L-1333.4,223.2 L-1293.4,244.8 L-1245.4,242.4 L-1195.8,228.8 L-1087.8,223.2 L-994.2,226.4 L-875.8,228.8 L-783.8,228.8 L-439.8,239.2 L-119.8,239.2 L5.8,241.6 L45.8,244.8 L412.2,242.4 L596.2,240.8 L704.2,242.4 L760.2,247.2 L792.2,239.2 L810.6,210.4 L810.6,159.2 L788.2,130.4 L744.2,120.8 L700.2,127.2 L672.2,128.8 L648.2,103.2 L634.6,100.8 L608.2,128.8 L589.8,132.8 L502.6,132.8 L350.6,135.2 L244.2,132.8 L206.6,126.4 L190.6,116.8 L198.6,84.8 L209.0,60.8 L186.6,59.2 L164.2,108.8 L148.2,126.4 L94.6,136.8 L34.6,131.2 L-47.0,126.4 L-171.8,126.4 L-249.4,126.4 L-449.4,120.8 L-545.4,116.8 L-646.2,118.4 L-759.8,115.2 L-875.8,118.4 L-982.2,120.0 L-1059.8,112.0 L-1136.6,110.4 L-1224.6,108.8 L-1294.2,108.8 L-1320.6,114.4 L-1342.2,128.0 L-1350.2,142.4 L-1363.8,180.8 Z" fill="#f1efe7" stroke="#8ab09d" stroke-width="0.65"></path><path d="M-2889.7,2076.2 L-2908.4,1496.5 L-2777.9,192.0 L484.4,192.0 L1211.4,626.9 L1211.4,1372.3 L503.0,1931.3 L-1100.2,2076.2 Z" fill="#add7e1" stroke="none"><title>Biscayne Bay</title></path><path d="M-1004.0,177.5 L488.5,193.1" fill="none" stroke="#d87a99" stroke-width="9.9" stroke-linecap="round" stroke-linejoin="round"/><path d="M-1004.0,177.5 L488.5,193.1" fill="none" stroke="#e88fa8" stroke-width="8.1" stroke-linecap="round" stroke-linejoin="round"><title>Julia Tuttle Causeway</title></path><path d="M-1004.0,177.5 L488.5,193.1" fill="none" stroke="#fff8ef" stroke-width="1.9" stroke-dasharray="5.5 6.5" opacity="0.82" stroke-linecap="round" stroke-linejoin="round"/><path d="M464.4,169.8 L-1019.3,154.1" fill="none" stroke="#d87a99" stroke-width="9.9" stroke-linecap="round" stroke-linejoin="round"/><path d="M464.4,169.8 L-1019.3,154.1" fill="none" stroke="#e88fa8" stroke-width="8.1" stroke-linecap="round" stroke-linejoin="round"><title>Julia Tuttle Causeway</title></path><path d="M464.4,169.8 L-1019.3,154.1" fill="none" stroke="#fff8ef" stroke-width="1.9" stroke-dasharray="5.5 6.5" opacity="0.82" stroke-linecap="round" stroke-linejoin="round"/><g transform="translate(128.0 189.4) rotate(0.6)"><path d="M -3.6 -3.2 L 4.4 0 L -3.6 3.2 Z" fill="#58656d" opacity="0.46"/></g><g transform="translate(128.0 166.2) rotate(-179.4)"><path d="M -3.6 -3.2 L 4.4 0 L -3.6 3.2 Z" fill="#58656d" opacity="0.46"/></g><g><rect x="110.2" y="181.9" width="35.5" height="15.0" rx="3" fill="#f7fbff" stroke="#4f78a7" stroke-width="1"/><text x="128.0" y="189.8" text-anchor="middle" dominant-baseline="central" font-family="Arial, sans-serif" font-size="8.2" font-weight="700" fill="#315d8b">I 195</text></g><g><rect x="110.2" y="158.7" width="35.5" height="15.0" rx="3" fill="#f7fbff" stroke="#4f78a7" stroke-width="1"/><text x="128.0" y="166.6" text-anchor="middle" dominant-baseline="central" font-family="Arial, sans-serif" font-size="8.2" font-weight="700" fill="#315d8b">I 195</text></g></svg>