<svg xmlns="http://www.w3.org/2000/svg" width="256" height="256" viewBox="0 0 256 256"><rect width="256" height="256" fill="#f1efe7"/><path d="M-4357.4,5225.1 L-4250.0,5180.5 L-4216.4,5164.4 L-4066.1,5092.2 L-4037.9,5119.5 L-4035.4,5121.8 L-3982.8,5076.8 L-3970.2,5067.2 L-3949.3,5048.3 L-3831.2,4939.9 L-3735.9,4831.1 L-3732.3,4824.2 L-3728.8,4820.2 L-3723.2,4813.9 L-3717.6,4807.4 L-3715.3,4804.7 L-3752.9,4756.2 L-3703.2,4726.4 L-3676.2,4762.3 L-3638.1,4718.7 L-3670.4,4675.9 L-3630.4,4634.3 L-3599.7,4674.8 L-3564.3,4634.6 L-3549.3,4624.8 L-3475.7,4577.0 L-3439.3,4552.9 L-3395.5,4524.0 L-3374.8,4510.5 L-3322.4,4476.6 L-3335.9,4458.8 L-3360.1,4426.5 L-3297.6,4386.8 L-3274.8,4375.0 L-3273.1,4373.8 L-3261.1,4364.5 L-3218.3,4341.7 L-3215.3,4337.0 L-3203.3,4328.8 L-3196.8,4319.3 L-3195.0,4317.9 L-3184.6,4313.9 L-3160.9,4305.4 L-3144.8,4298.3 L-3087.7,4271.5 L-3087.0,4273.4 L-3039.2,4252.9 L-3019.7,4278.0 L-2976.1,4248.9 L-2969.9,4244.7 L-2969.3,4244.2 L-2968.7,4243.4 L-2967.8,4241.7 L-2967.2,4240.2 L-2967.0,4238.3 L-2967.0,4236.8 L-2967.2,4235.4 L-2967.4,4233.7 L-2967.5,4232.5 L-2967.4,4231.4 L-2967.1,4230.3 L-2966.3,4228.3 L-2965.8,4227.2 L-2964.6,4225.3 L-2963.2,4223.9 L-2956.9,4221.3 L-2951.6,4219.4 L-2944.8,4217.2 L-2941.7,4216.3 L-2936.1,4214.5 L-2932.1,4213.0 L-2926.7,4210.8 L-2919.3,4207.6 L-2911.3,4203.8 L-2907.0,4201.7 L-2901.6,4199.0 L-2896.6,4196.1 L-2891.5,4193.1 L-2886.4,4189.8 L-2884.8,4188.7 L-2874.4,4180.8 L-2865.7,4174.1 L-2857.2,4166.9 L-2849.2,4159.4 L-2843.5,4152.9 L-2837.8,4146.0 L-2830.8,4137.0 L-2824.4,4128.0 L-2817.1,4116.4 L-2812.3,4107.5 L-2809.3,4101.8 L-2804.8,4092.1 L-2801.1,4083.2 L-2797.7,4073.6 L-2795.0,4065.1 L-2792.1,4051.4 L-2789.9,4039.2 L-2788.7,4028.6 L-2787.8,4016.3 L-2787.6,4003.0 L-2788.5,3990.7 L-2790.6,3974.8 L-2792.7,3963.9 L-2795.3,3953.5 L-2798.9,3941.9 L-2802.1,3932.9 L-2805.7,3923.1 L-2809.1,3915.1 L-2811.4,3909.8 L-2812.4,3906.0 L-2812.5,3903.0 L-2812.2,3900.4 L-2811.1,3898.1 L-2809.5,3896.1 L-2807.4,3895.0 L-2805.2,3894.7 L-2799.1,3896.2 L-2782.3,3900.2 L-2776.7,3772.9 L-2754.8,3545.6 L-2778.6,3539.9 L-2781.2,3532.8 L-2781.1,3522.6 L-2777.8,3499.3 L-2773.3,3494.1 L-2769.3,3478.9 L-2744.1,3484.8 L-2730.1,3339.6 L-2726.3,3299.3 L-2734.1,3297.4 L-2729.4,3278.2 L-2745.6,3274.4 L-2743.5,3262.6 L-2740.7,3254.9 L-2737.1,3245.8 L-2731.1,3233.2 L-2724.7,3234.6 L-2715.9,3143.3 L-2713.9,3087.9 L-2713.5,3077.7 L-2708.8,3042.4 L-2699.4,2954.5 L-2637.0,2791.8 L-2622.8,2747.5 L-2449.5,2681.0 L-2432.5,2674.2 L-2429.6,2672.6 L-2427.2,2670.5 L-2424.7,2667.6 L-2422.8,2664.1 L-2421.5,2660.7 L-2421.1,2655.8 L-2421.4,2649.6 L-2423.7,2571.9 L-2424.6,2556.8 L-2424.8,2546.4 L-2425.1,2526.4 L-2425.5,2520.1 L-2426.3,2514.8 L-2427.4,2510.0 L-2428.9,2505.3 L-2431.3,2499.6 L-2434.9,2493.5 L-2438.5,2488.7 L-2441.2,2484.2 L-2443.9,2478.2 L-2446.2,2472.3 L-2447.1,2467.6 L-2447.8,2462.4 L-2448.1,2457.1 L-2448.0,2452.0 L-2447.4,2446.1 L-2446.0,2440.2 L-2444.1,2435.0 L-2442.2,2430.2 L-2439.7,2425.6 L-2436.7,2420.1 L-2434.6,2415.0 L-2432.9,2408.5 L-2429.7,2403.7 L-2430.8,2359.0 L-2432.4,2356.5 L-2433.0,2326.2 L-2433.8,2290.4 L-2433.2,2285.5 L-2431.6,2280.4 L-2427.6,2272.5 L-2400.9,2215.0 L-2400.3,2214.0 L-2395.6,2203.8 L-2391.1,2194.0 L-2386.2,2184.0 L-2381.2,2173.8 L-2378.8,2168.7 L-2352.6,2114.8 L-2324.5,2055.2 L-2263.6,1931.8 L-2300.2,1890.9 L-2330.0,1954.3 L-2355.8,2009.3 L-2359.7,2017.1 L-2367.6,2033.3 L-2383.5,2032.0 L-2387.9,2031.7 L-2389.4,2033.2 L-2387.3,2035.1 L-2395.5,2042.3 L-2401.9,2048.3 L-2403.1,2073.7 L-2405.5,2078.8 L-2413.3,2078.5 L-2414.6,2078.0 L-2516.8,2035.9 L-2519.0,2034.7 L-2521.4,2033.2 L-2525.0,2030.4 L-2527.9,2027.7 L-2530.3,2025.1 L-2532.6,2021.9 L-2534.4,2019.1 L-2535.8,2016.2 L-2537.0,2013.1 L-2537.7,2011.1 L-2538.2,2008.5 L-2538.7,2005.5 L-2539.1,2001.4 L-2539.1,1995.6 L-2539.8,1975.7 L-2537.0,1975.5 L-2537.4,1965.1 L-2537.8,1947.8 L-2535.2,1947.7 L-2535.4,1935.9 L-2538.3,1936.0 L-2539.7,1886.2 L-2536.9,1886.1 L-2537.4,1874.5 L-2540.1,1874.6 L-2541.2,1837.8 L-2527.7,1823.3 L-2510.5,1822.7 L-2497.6,1822.2 L-2480.7,1821.7 L-2464.4,1821.1 L-2449.7,1820.6 L-2443.4,1820.4 L-2443.7,1814.7 L-2443.8,1808.8 L-2444.8,1789.7 L-2445.1,1753.1 L-2445.6,1752.5 L-2445.7,1748.8 L-2444.6,1748.8 L-2447.2,1660.7 L-2449.4,1577.9 L-2449.8,1575.3 L-2450.0,1570.5 L-2486.1,1571.8 L-2510.1,1569.7 L-2689.7,1576.0 L-2689.7,1574.4 L-2690.1,1566.7 L-2775.3,1569.7 L-2775.5,1555.6 L-2786.7,1553.1 L-2788.7,1492.5 L-2457.3,1481.0 L-2451.8,1473.4 L-2452.0,1451.9 L-2452.4,1433.4 L-2452.7,1421.7 L-2453.2,1410.4 L-2479.5,1397.9 L-2480.6,1370.4 L-2453.5,1357.0 L-2456.0,1293.3 L-2456.7,1290.1 L-2483.5,1277.6 L-2484.4,1243.5 L-2458.9,1230.3 L-2470.3,1091.9 L-2467.2,1030.2 L-2465.8,929.8 L-2465.9,820.6 L-2463.5,805.2 L-2463.3,797.9 L-2465.7,788.9 L-2463.2,788.9 L-2463.2,780.9 L-2461.7,575.4 L-2461.9,566.2 L-2464.8,566.3 L-2464.7,528.5 L-2466.4,526.1 L-2468.9,487.1 L-2463.8,451.5 L-2464.5,408.3 L-2466.2,398.0 L-2463.6,366.0 L-2465.4,327.4 L-2469.9,286.0 L-2478.4,219.0 L-2474.4,200.6 L-2476.1,182.6 L-2491.4,169.5 L-2513.9,169.8 L-2548.1,174.3 L-2570.3,174.3 L-2590.6,166.8 L-2617.1,148.6 L-2617.1,116.0 L-2617.8,75.8 L-2615.2,42.4 L-2606.4,16.3 L-2459.0,13.6 L-2455.7,-195.4 L-2455.7,-496.2 L-2457.2,-605.4 L5498.9,-3891.2 L5498.9,14217.9 L-4357.4,14217.9 L-4357.4,5225.1 Z" fill="#add7e1" stroke="none"><title>Biscayne Bay</title></path><path d="M-100.6,698.1 L-94.0,844.1 L-90.2,930.6 L-85.3,1021.8 L-83.0,1066.8 L-82.3,1074.0 L-81.1,1081.8 L-79.0,1089.3 L-75.2,1098.0 L-72.2,1104.1 L-65.0,1116.2 L-61.1,1121.4 L-55.5,1128.0 L-52.0,1131.5 L-48.2,1135.1 L-43.7,1138.6 L-35.7,1144.1 L-30.2,1147.2 L-23.1,1150.3 L-19.1,1152.2 L-14.7,1153.7 L-8.7,1155.5 L1.6,1157.5 L10.3,1158.7 L18.4,1159.3 L24.5,1159.0 L35.3,1157.8 L43.8,1156.4 L52.4,1153.5 L61.6,1149.6 L67.6,1146.3 L74.2,1142.3 L82.7,1136.5 L89.1,1130.6 L95.3,1123.6 L100.7,1116.4 L104.3,1110.4 L107.7,1104.2 L110.0,1099.6 L111.8,1095.9 L113.2,1092.3 L115.2,1087.3 L116.5,1082.3 L117.4,1077.8 L118.3,1072.5 L118.9,1067.4 L119.2,1063.0 L119.5,1058.2 L119.6,1052.6 L117.9,1034.0 L116.7,1005.1 L115.2,967.2 L107.7,833.9 L107.5,826.0 L106.4,808.0 L103.9,755.6 L103.8,753.8 L102.1,734.0 L100.4,703.2 L96.0,625.0 L93.0,546.4 L89.8,483.8 L87.3,434.8 L83.3,348.5 L79.5,283.8 L75.2,257.6 L59.1,225.6 L40.9,206.7 L21.3,194.3 L-6.6,186.2 L-43.2,185.2 L-75.4,200.6 L-101.5,226.0 L-115.0,249.2 L-124.1,279.3 L-120.8,339.3 L-117.3,397.4 L-100.6,698.1 Z" fill="#ece7dc" stroke="#d7d1c5" stroke-width="0.3"><title>Di Lido Island</title></path><path d="M810.6,3800.6 L1537.6,3376.3 L1295.3,2682.9 L1164.8,1109.6 L1164.8,-122.3 L-177.4,-1364.7 L3588.1,-2524.3 L3606.8,-888.4 L3299.2,560.9 L3019.6,2113.6 L2833.2,3355.6 L2441.7,3800.6 L810.6,3800.6 Z" fill="#f1efe7" stroke="#8ab09d" stroke-width="0.65"><title>Miami Beach</title></path><path d="M-2889.7,540.2 L-2908.4,-39.5 L-2777.9,-1344.0 L484.4,-1344.0 L1211.4,-909.1 L1211.4,-163.7 L503.0,395.3 L-1100.2,540.2 Z" fill="#add7e1" stroke="none"><title>Biscayne Bay</title></path><path d="M16.7,243.5 L33.5,216.1 L49.4,225.8 L42.7,236.8 L41.0,235.7 L36.6,242.9 L27.9,237.6 L22.2,246.9 L16.7,243.5 Z" fill="#d6d2c9" stroke="#bab6ad" stroke-width="0.4"></path><path d="M7.1,235.1 L13.0,225.7 L4.5,220.4 L15.7,202.3 L30.4,211.4 L13.3,238.9 L7.1,235.1 Z" fill="#d6d2c9" stroke="#bab6ad" stroke-width="0.4"></path><path d="M49.4,240.3 L52.4,244.1 L55.6,241.5 L58.9,245.6 L57.8,246.5 L63.4,253.6 L59.4,256.8 L57.8,254.8 L50.6,260.6 L45.0,253.6 L38.9,258.4 L33.7,251.9 L44.3,243.4 L44.8,244.0 L49.4,240.3 Z" fill="#d6d2c9" stroke="#bab6ad" stroke-width="0.4"></path><path d="M14.4,305.3 L14.6,302.6 L13.1,284.2 L11.4,277.5 L9.3,272.4 L5.7,266.5 L1.9,262.1 L-2.1,258.9 L-7.1,255.9 L-12.9,253.9 L-18.4,252.9 L-25.3,253.0 L-31.4,254.5 L-37.2,256.6 L-43.5,260.6 L-47.8,264.5 L-51.7,269.9" fill="none" stroke="#cf828d" stroke-width="1.3" stroke-dasharray="1.6 3.0" opacity="0.62" stroke-linecap="round" stroke-linejoin="round"></path><path d="M28.0,321.6 L26.5,291.6 L25.8,283.6 L24.9,277.4 L23.2,271.8 L20.6,266.1 L15.9,258.8 L12.1,254.4 L6.9,250.0 L1.3,246.5 L-6.5,243.1 L-13.4,241.1 L-20.7,240.6 L-27.3,240.9 L-34.4,242.1 L-40.8,244.4 L-48.0,248.4" fill="none" stroke="#cf828d" stroke-width="1.3" stroke-dasharray="1.6 3.0" opacity="0.62" stroke-linecap="round" stroke-linejoin="round"></path><path d="M21.2,317.4 L20.2,292.4 L19.7,285.9 L19.0,279.7 L17.2,273.6 L14.4,268.0 L11.3,262.4 L7.0,257.5 L1.6,253.4 L-4.6,250.4 L-11.2,248.0 L-17.7,247.1 L-24.7,247.1" fill="none" stroke="#cec8bb" stroke-width="4.3" stroke-linecap="round" stroke-linejoin="round"/><path d="M21.2,317.4 L20.2,292.4 L19.7,285.9 L19.0,279.7 L17.2,273.6 L14.4,268.0 L11.3,262.4 L7.0,257.5 L1.6,253.4 L-4.6,250.4 L-11.2,248.0 L-17.7,247.1 L-24.7,247.1" fill="none" stroke="#ffffff" stroke-width="3.2" stroke-linecap="round" stroke-linejoin="round"><title>East Dilido Drive</title></path><text x="33.7" y="235.7" text-anchor="middle" font-family="Arial, sans-serif" font-size="6.5" textLength="18.0" lengthAdjust="spacing" font-weight="500" paint-order="stroke" stroke="#f3f5ee" stroke-width="1.55" stroke-linejoin="round" fill="#6f777a">825</text></svg>