<svg xmlns="http://www.w3.org/2000/svg" width="256" height="256" viewBox="0 0 256 256"><rect width="256" height="256" fill="#f1efe7"/><path d="M-1290.7,-4397.7 L-1075.9,-4487.0 L-1008.7,-4519.3 L-708.2,-4663.6 L-651.8,-4609.0 L-646.9,-4604.3 L-541.5,-4694.5 L-516.4,-4713.6 L-474.5,-4751.4 L-238.4,-4968.2 L-47.9,-5185.8 L-40.6,-5199.7 L-33.6,-5207.6 L-22.5,-5220.3 L-11.2,-5233.2 L-6.6,-5238.5 L-81.7,-5335.6 L17.7,-5395.2 L71.6,-5323.5 L147.8,-5410.7 L83.3,-5496.1 L163.2,-5579.4 L224.7,-5498.4 L295.3,-5578.8 L325.4,-5598.5 L472.6,-5694.0 L545.3,-5742.3 L632.9,-5799.9 L674.3,-5827.1 L779.2,-5894.8 L752.2,-5930.3 L703.9,-5995.0 L828.8,-6074.4 L874.3,-6097.9 L877.8,-6100.4 L901.8,-6118.9 L987.4,-6164.7 L993.3,-6173.9 L1017.3,-6190.4 L1030.3,-6209.4 L1034.0,-6212.2 L1054.9,-6220.3 L1102.1,-6237.2 L1134.4,-6251.4 L1248.5,-6305.0 L1249.9,-6301.3 L1345.6,-6342.2 L1384.7,-6292.1 L1471.8,-6350.2 L1484.2,-6358.7 L1485.4,-6359.7 L1486.6,-6361.3 L1488.5,-6364.6 L1489.5,-6367.7 L1490.1,-6371.4 L1490.0,-6374.4 L1489.6,-6377.3 L1489.2,-6380.6 L1489.1,-6383.1 L1489.3,-6385.2 L1489.7,-6387.4 L1491.3,-6391.4 L1492.4,-6393.6 L1494.9,-6397.4 L1497.5,-6400.2 L1510.2,-6405.3 L1520.8,-6409.3 L1534.3,-6413.7 L1540.6,-6415.4 L1551.8,-6419.1 L1559.7,-6421.9 L1570.6,-6426.4 L1585.4,-6432.9 L1601.4,-6440.4 L1610.0,-6444.6 L1620.8,-6450.1 L1630.9,-6455.7 L1641.0,-6461.7 L1651.3,-6468.4 L1654.5,-6470.6 L1675.2,-6486.4 L1692.6,-6499.8 L1709.6,-6514.2 L1725.5,-6529.2 L1737.0,-6542.1 L1748.4,-6556.0 L1762.4,-6574.0 L1775.2,-6592.0 L1789.9,-6615.1 L1799.5,-6633.0 L1805.5,-6644.4 L1814.4,-6663.7 L1821.9,-6681.6 L1828.6,-6700.9 L1834.0,-6717.8 L1839.9,-6745.2 L1844.2,-6769.7 L1846.5,-6790.7 L1848.5,-6815.5 L1848.7,-6842.0 L1847.1,-6866.5 L1842.9,-6898.5 L1838.5,-6920.3 L1833.5,-6940.9 L1826.1,-6964.3 L1819.8,-6982.2 L1812.6,-7001.7 L1805.8,-7017.9 L1801.2,-7028.4 L1799.3,-7036.1 L1799.0,-7042.0 L1799.6,-7047.3 L1801.7,-7051.9 L1804.9,-7055.8 L1809.1,-7058.0 L1813.6,-7058.6 L1825.7,-7055.7 L1859.4,-7047.6 L1870.6,-7302.3 L1914.3,-7756.9 L1866.8,-7768.1 L1861.6,-7782.4 L1861.8,-7802.9 L1868.4,-7849.4 L1877.4,-7859.9 L1885.4,-7890.1 L1935.9,-7878.4 L1963.7,-8168.9 L1971.4,-8249.3 L1955.7,-8253.2 L1965.2,-8291.6 L1932.9,-8299.3 L1937.0,-8322.8 L1942.7,-8338.3 L1949.8,-8356.4 L1961.8,-8381.7 L1974.7,-8378.8 L1992.1,-8561.5 L1996.2,-8672.3 L1997.0,-8692.7 L2006.4,-8763.2 L2025.1,-8938.9 L2149.9,-9264.3 L2178.4,-9353.0 L2525.1,-9486.0 L2559.0,-9499.6 L2564.9,-9502.8 L2569.5,-9507.0 L2574.6,-9512.9 L2578.5,-9519.8 L2581.1,-9526.6 L2581.7,-9536.5 L2581.2,-9548.8 L2576.6,-9704.3 L2574.9,-9734.4 L2574.4,-9755.1 L2573.7,-9795.3 L2572.9,-9807.9 L2571.4,-9818.5 L2569.3,-9827.9 L2566.2,-9837.5 L2561.3,-9848.8 L2554.1,-9860.9 L2547.1,-9870.5 L2541.7,-9879.6 L2536.2,-9891.7 L2531.6,-9903.3 L2529.8,-9912.8 L2528.4,-9923.3 L2527.7,-9933.8 L2528.0,-9944.0 L2529.2,-9955.9 L2532.0,-9967.6 L2535.7,-9978.0 L2539.6,-9987.5 L2544.6,-9996.7 L2550.7,-10007.9 L2554.7,-10018.0 L2558.2,-10030.9 L2564.6,-10040.7 L2562.4,-10129.9 L2559.1,-10135.1 L2558.1,-10195.7 L2556.4,-10267.2 L2557.6,-10277.1 L2560.8,-10287.2 L2568.8,-10303.0 L2622.3,-10418.1 L2623.4,-10420.0 L2632.8,-10440.5 L2641.7,-10459.9 L2651.7,-10479.9 L2661.5,-10500.5 L2666.3,-10510.5 L2718.9,-10618.4 L2775.1,-10737.6 L2896.7,-10984.4 L2823.6,-11066.3 L2764.0,-10939.3 L2712.5,-10829.4 L2704.7,-10813.8 L2688.8,-10781.3 L2657.0,-10784.0 L2648.3,-10784.5 L2645.2,-10781.7 L2649.4,-10777.9 L2633.1,-10763.4 L2620.2,-10751.5 L2617.8,-10700.6 L2613.0,-10690.4 L2597.4,-10691.0 L2594.8,-10691.9 L2390.4,-10776.3 L2386.0,-10778.6 L2381.3,-10781.6 L2373.9,-10787.2 L2368.2,-10792.6 L2363.4,-10797.8 L2358.7,-10804.2 L2355.1,-10809.8 L2352.3,-10815.6 L2350.1,-10821.7 L2348.6,-10825.9 L2347.5,-10831.0 L2346.7,-10837.0 L2345.9,-10845.2 L2345.9,-10856.9 L2344.5,-10896.6 L2350.1,-10896.9 L2349.3,-10917.9 L2348.4,-10952.5 L2353.6,-10952.6 L2353.2,-10976.2 L2347.3,-10976.1 L2344.6,-11075.5 L2350.2,-11075.8 L2349.3,-11099.1 L2343.9,-11098.9 L2341.6,-11172.4 L2368.6,-11201.5 L2403.1,-11202.7 L2428.8,-11203.6 L2462.7,-11204.7 L2495.3,-11205.7 L2524.5,-11206.7 L2537.2,-11207.3 L2536.6,-11218.6 L2536.4,-11230.4 L2534.5,-11268.7 L2533.8,-11341.8 L2532.8,-11343.1 L2532.6,-11350.3 L2534.7,-11350.4 L2529.6,-11526.5 L2525.2,-11692.2 L2524.5,-11697.4 L2524.1,-11707.0 L2451.9,-11704.4 L2403.9,-11708.5 L2044.6,-11696.0 L2044.5,-11699.2 L2043.8,-11714.5 L1873.4,-11708.5 L1873.1,-11736.8 L1850.6,-11741.9 L1846.6,-11863.0 L2509.4,-11886.0 L2520.4,-11901.1 L2520.0,-11944.1 L2519.2,-11981.3 L2518.6,-12004.6 L2517.7,-12027.3 L2465.0,-12052.1 L2462.9,-12107.2 L2516.9,-12134.0 L2512.0,-12261.5 L2510.6,-12267.8 L2456.9,-12292.9 L2455.2,-12361.1 L2506.2,-12387.4 L2483.5,-12664.3 L2489.5,-12787.5 L2492.5,-12988.4 L2492.3,-13206.9 L2497.1,-13237.5 L2497.4,-13252.3 L2492.6,-13270.1 L2497.6,-13270.1 L2497.6,-13286.2 L2500.6,-13697.2 L2500.1,-13715.5 L2494.4,-13715.5 L2494.6,-13791.1 L2491.3,-13795.8 L2486.1,-13873.8 L2496.4,-13945.1 L2495.1,-14031.4 L2491.6,-14052.1 L2496.9,-14116.0 L2493.3,-14193.3 L2484.3,-14276.0 L2467.2,-14410.0 L2475.3,-14446.9 L2471.7,-14482.8 L2441.1,-14508.9 L2396.2,-14508.5 L2327.8,-14499.5 L2283.3,-14499.5 L2242.9,-14514.3 L2189.8,-14550.7 L2189.8,-14616.0 L2188.4,-14696.3 L2193.6,-14763.2 L2211.2,-14815.4 L2505.9,-14820.9 L2512.7,-15238.8 L2512.7,-15840.4 L2509.6,-16058.7 L18421.8,-22630.4 L18421.8,13587.8 L-1290.7,13587.8 L-1290.7,-4397.7 Z" fill="#add7e1" stroke="none"><title>Biscayne Bay</title></path><path d="M-8682.8,4887.5 L-9227.0,4485.8 L-9270.5,4453.8 L-9317.7,4443.5 L-9351.0,4415.5 L-9377.6,4412.4 L-9463.6,4418.1 L-9463.5,4410.0 L-9468.3,4402.4 L-9477.9,4396.5 L-9664.7,4315.6 L-9677.4,4309.8 L-9688.5,4306.6 L-9702.3,4305.5 L-9716.2,4305.2 L-9762.6,4305.2 L-9774.9,4304.5 L-9787.0,4302.1 L-9799.8,4297.1 L-9815.2,4293.0 L-9826.4,4292.0 L-9859.3,4290.6 L-9870.3,4288.6 L-9884.3,4284.1 L-9898.0,4280.6 L-9911.3,4277.5 L-9921.7,4273.3 L-9934.3,4265.5 L-9945.5,4257.1 L-9956.4,4248.9 L-9965.3,4244.7 L-9972.1,4243.3 L-9978.2,4243.7 L-9984.7,4245.5 L-9992.3,4249.4 L-9998.3,4256.0 L-10006.4,4263.9 L-10015.4,4272.2 L-10025.6,4277.8 L-10038.5,4282.0 L-10049.2,4284.6 L-10062.1,4286.6 L-10083.7,4289.1 L-10137.9,4291.7 L-10183.9,4294.0 L-10203.7,4301.1 L-10244.3,4302.5 L-10249.8,4294.0 L-10255.9,4290.1 L-10262.2,4288.9 L-10306.0,4291.4 L-10325.0,4298.2 L-10348.3,4298.4 L-10364.0,4296.1 L-10376.9,4292.2 L-10424.0,4295.0 L-10548.6,4304.7 L-10577.3,4305.5 L-10587.1,4305.3 L-10595.9,4303.1 L-10606.1,4298.0 L-10613.6,4292.0 L-10646.0,4292.1 L-10673.1,4291.7 L-10680.4,4296.2 L-10717.7,4297.1 L-10722.5,4305.0 L-10727.8,4305.2 L-10737.0,4303.0 L-10753.5,4301.0 L-10770.5,4301.9 L-10775.7,4303.5 L-10781.0,4302.6 L-10784.6,4299.1 L-10790.7,4295.6 L-10813.4,4295.7 L-10836.3,4296.9 L-10858.0,4309.7 L-10868.7,4314.8 L-10880.9,4317.5 L-10891.0,4318.2 L-10900.1,4316.8 L-10921.1,4307.8 L-10933.1,4304.0 L-10943.3,4302.5 L-10988.0,4303.1 L-10990.8,4297.7 L-11030.3,4298.6 L-11057.5,4303.6 L-11075.4,4305.7 L-11085.0,4307.8 L-11088.7,4305.3 L-11095.5,4304.4 L-11159.2,4298.6 L-11164.7,4301.6 L-11171.4,4303.0 L-11180.2,4303.1 L-11180.2,4299.9 L-11219.7,4292.5 L-11244.6,4287.7 L-11304.8,4267.5 L-11308.1,4272.0 L-11348.3,4259.6 L-11356.7,4256.8 L-11352.6,4242.8 L-11357.4,4241.3 L-11358.4,4239.8 L-11361.0,4239.0 L-11364.6,4238.5 L-11369.0,4236.3 L-11367.5,4235.0 L-11385.3,4220.5 L-11414.9,4193.7 L-11430.8,4179.7 L-11442.1,4167.4 L-11448.4,4159.1 L-11457.8,4146.3 L-11463.2,4136.4 L-11480.0,4115.3 L-11481.6,4114.1 L-11482.7,4114.0 L-11483.9,4114.2 L-11486.1,4114.3 L-11488.1,4113.3 L-11492.3,4110.6 L-11500.9,4106.1 L-11505.1,4102.5 L-11510.0,4098.2 L-11516.7,4094.6 L-11527.2,4091.3 L-11538.3,4089.3 L-11547.8,4089.1 L-11545.1,4063.9 L-11542.9,4031.0 L-11532.6,4032.0 L-11522.3,4033.8 L-11508.8,4037.8 L-11498.9,4041.5 L-11490.0,4045.6 L-11481.4,4049.6 L-11473.3,4054.2 L-11466.7,4059.3 L-11457.9,4066.1 L-11448.7,4073.0 L-11446.6,4074.3 L-11444.7,4074.7 L-11419.5,4073.6 L-11419.2,4079.3 L-11420.7,4081.8 L-11439.6,4083.6 L-11434.8,4093.4 L-11431.5,4092.2 L-11428.5,4095.2 L-11426.6,4098.1 L-11425.0,4100.3 L-11421.1,4105.5 L-11419.6,4111.2 L-11413.5,4119.6 L-11399.1,4128.7 L-11381.2,4137.8 L-11359.8,4151.3 L-11350.0,4155.9 L-11329.4,4167.6 L-11319.7,4172.7 L-11302.0,4179.2 L-11267.2,4188.5 L-11246.8,4193.4 L-11228.2,4195.3 L-11218.3,4196.6 L-11216.1,4196.4 L-11215.2,4195.1 L-11214.9,4188.5 L-11191.8,4188.5 L-11191.3,4195.9 L-11142.9,4198.4 L-11095.7,4199.8 L-11063.6,4198.6 L-11053.0,4197.8 L-11045.3,4196.8 L-11039.0,4195.0 L-11033.2,4191.5 L-11030.3,4186.8 L-11031.4,4109.3 L-11011.9,4108.2 L-11010.2,4183.8 L-11009.1,4185.7 L-11005.2,4188.4 L-11000.7,4189.7 L-10897.3,4189.9 L-10897.8,4156.6 L-10889.7,4156.4 L-10886.3,4189.9 L-10822.5,4189.3 L-10822.5,4185.7 L-10816.2,4185.6 L-10816.0,4188.2 L-10390.5,4180.1 L-10359.7,4176.5 L-10322.1,4175.4 L-10286.5,4180.1 L-10274.6,4179.1 L-10265.9,4177.4 L-10257.8,4174.5 L-10247.3,4170.5 L-10033.4,4166.7 L-10033.5,4151.9 L-9913.8,4149.8 L-9913.7,4166.1 L-9862.9,4167.9 L-9859.0,4167.8 L-9855.4,4167.5 L-9850.7,4166.9 L-9846.9,4165.9 L-9843.2,4164.7 L-9836.9,4161.7 L-9834.0,4166.7 L-9827.8,4162.8 L-9822.1,4158.2 L-9817.3,4153.2 L-9813.1,4147.3 L-9809.2,4140.0 L-9816.5,4135.9 L-9814.5,4129.8 L-9813.2,4123.5 L-9812.5,4117.5 L-9812.4,4112.8 L-9812.6,4108.4 L-9813.3,4070.5 L-9819.4,4064.9 L-9814.2,4059.4 L-9819.5,4054.8 L-9813.5,4047.7 L-9820.0,4042.0 L-9814.8,4036.5 L-9820.0,4031.5 L-9813.9,4025.0 L-9820.2,4018.6 L-9807.1,4004.2 L-9804.8,4004.1 L-9810.5,3789.6 L-9762.4,3788.5 L-9760.1,3789.7 L-9757.5,3791.7 L-9755.6,3793.4 L-9754.8,3795.4 L-9754.1,3797.8 L-9753.9,3800.2 L-9749.8,4133.5 L-9747.9,4144.3 L-9745.2,4151.6 L-9741.0,4160.6 L-9736.1,4169.4 L-9731.0,4176.4 L-9726.9,4180.7 L-9722.5,4184.1 L-9717.4,4187.1 L-9712.1,4189.1 L-9704.9,4191.2 L-9696.0,4192.9 L-9685.2,4194.9 L-9672.6,4197.2 L-9660.6,4199.8 L-9647.3,4202.2 L-9634.7,4204.9 L-9630.7,4205.7 L-9625.8,4206.7 L-9621.0,4207.3 L-9616.8,4207.4 L-9612.0,4207.4 L-9608.3,4207.2 L-9604.6,4206.5 L-9601.4,4205.7 L-9598.0,4204.7 L-9595.1,4203.4 L-9589.3,4200.6 L-9584.2,4197.6 L-9579.1,4193.9 L-9573.2,4188.2 L-9567.7,4182.0 L-9564.7,4176.7 L-9562.0,4170.2 L-9560.6,4164.9 L-9559.8,4159.2 L-9559.3,4153.8 L-9559.3,4148.8 L-9566.6,3791.6 L-9556.2,3780.9 L-9552.4,3780.5 L-9550.9,3779.1 L-9529.2,3778.5 L-9527.3,3775.3 L-9524.0,3776.2 L-9518.5,3781.3 L-9514.7,3786.6 L-9510.9,3793.2 L-9503.7,4192.4 L-9503.0,4199.4 L-9501.7,4213.3 L-9500.4,4216.1 L-9501.4,4216.8 L-9499.6,4220.7 L-9497.3,4225.3 L-9495.3,4228.2 L-9492.9,4231.7 L-9489.6,4235.5 L-9485.7,4239.5 L-9481.0,4243.5 L-9476.8,4246.6 L-9472.2,4249.1 L-9467.8,4251.3 L-9463.1,4252.8 L-9462.5,4251.4 L-9396.3,4275.4 L-9388.0,4278.5 L-9384.2,4279.9 L-9378.3,4282.0 L-9374.0,4283.0 L-9370.3,4283.5 L-9366.9,4283.5 L-9362.1,4283.1 L-9356.9,4282.6 L-9352.3,4281.6 L-9347.6,4280.3 L-9344.1,4278.9 L-9340.4,4277.2 L-9337.4,4275.3 L-9333.6,4272.5 L-9328.8,4268.3 L-9324.4,4264.0 L-9319.6,4258.0 L-9316.2,4252.4 L-9313.4,4246.2 L-9311.4,4239.3 L-9310.2,4232.3 L-9309.5,4219.8 L-9309.8,4194.3 L-9317.1,3788.2 L-9317.1,3783.7 L-9316.3,3780.5 L-9314.9,3777.9 L-9312.0,3775.5 L-9308.7,3773.8 L-9305.0,3773.2 L-9274.9,3772.2 L-9271.3,3772.8 L-9268.1,3774.2 L-9265.8,3776.4 L-9263.2,3780.2 L-9261.7,3785.6 L-9260.8,3792.9 L-9253.3,4313.8 L-9252.9,4316.9 L-9252.3,4320.0 L-9251.4,4323.2 L-9250.3,4326.7 L-9249.1,4330.2 L-9247.7,4333.4 L-9246.5,4336.1 L-9245.2,4338.5 L-9243.3,4341.5 L-9241.2,4344.1 L-9239.3,4346.5 L-9236.4,4349.6 L-9233.6,4352.3 L-9230.5,4354.8 L-9227.2,4357.3 L-9218.0,4363.1 L-9217.1,4362.0 L-9209.0,4366.5 L-9199.4,4371.7 L-9193.9,4374.7 L-9187.8,4378.3 L-9181.5,4382.0 L-9175.0,4386.0 L-9167.7,4390.5 L-9160.5,4395.0 L-9153.3,4399.3 L-9147.3,4403.0 L-9140.6,4407.3 L-9133.5,4411.9 L-9126.7,4416.4 L-9120.4,4420.7 L-9121.1,4421.6 L-9112.3,4427.7 L-9103.2,4433.8 L-9100.4,4435.5 L-9097.3,4437.2 L-9092.9,4439.3 L-9088.8,4440.8 L-9084.4,4442.0 L-9080.5,4443.0 L-9075.9,4443.7 L-9070.8,4444.3 L-9066.4,4444.3 L-9062.7,4444.0 L-9059.5,4443.3 L-9055.4,4442.2 L-9051.3,4440.9 L-9047.5,4439.6 L-9044.0,4437.9 L-9040.4,4436.0 L-9036.9,4433.8 L-9033.3,4431.0 L-9030.1,4428.1 L-9027.0,4425.0 L-9024.1,4421.8 L-9021.1,4417.4 L-9018.6,4413.0 L-9016.2,4408.1 L-9014.8,4404.3 L-9013.7,4400.3 L-9012.9,4396.0 L-9012.5,4391.7 L-9012.8,4386.8 L-9072.1,3819.1 L-9068.0,3818.7 L-9071.3,3790.3 L-9074.3,3790.5 L-9076.7,3777.4 L-9075.9,3774.7 L-9073.4,3770.7 L-9068.3,3766.8 L-9061.6,3766.0 L-9034.7,3765.1 L-9030.2,3766.0 L-9027.1,3767.5 L-9023.8,3770.1 L-9021.5,3772.5 L-9019.9,3775.0 L-8954.9,4411.9 L-8953.4,4417.4 L-8950.6,4424.2 L-8948.2,4428.6 L-8945.6,4433.3 L-8942.2,4437.9 L-8939.4,4441.1 L-8936.3,4444.3 L-8932.9,4447.0 L-8929.9,4449.1 L-8925.7,4451.8 L-8922.0,4453.7 L-8917.1,4455.8 L-8912.5,4457.2 L-8907.3,4458.3 L-8903.3,4458.9 L-8899.8,4459.0 L-8895.7,4459.1 L-8754.5,4456.2 L-8749.9,4455.6 L-8745.5,4453.5 L-8742.3,4450.6 L-8740.1,4446.2 L-8739.3,4442.2 L-8739.5,4438.2 L-8811.0,3756.1 L-8874.0,3673.9 L-8876.8,3676.2 L-8931.6,3599.7 L-8932.6,3583.5 L-8934.3,3580.1 L-8937.2,3577.0 L-8940.9,3571.8 L-8941.2,3564.2 L-8947.7,3561.7 L-8954.0,3561.6 L-8962.5,3565.8 L-8952.9,3583.8 L-8965.0,3589.6 L-8974.1,3581.2 L-8981.9,3576.4 L-8987.2,3574.6 L-9000.2,3574.1 L-9006.8,3560.7 L-8965.3,3543.7 L-8967.3,3540.3 L-8976.1,3528.5 L-8977.5,3529.2 L-9286.4,3124.7 L-9291.1,3058.0 L-9288.6,3057.4 L-9300.5,2935.1 L-9305.1,2923.8 L-9310.1,2911.1 L-9313.9,2901.3 L-9318.5,2888.8 L-9333.5,2846.7 L-9339.6,2849.4 L-9348.5,2815.3 L-9347.0,2815.0 L-9378.1,2730.7 L-9381.5,2583.3 L-9377.9,2583.3 L-9377.4,2570.4 L-9375.6,2557.7 L-9374.9,2553.0 L-9376.2,2549.2 L-9372.0,2529.1 L-9333.7,2461.3 L-9353.8,2449.1 L-9338.9,2424.4 L-9319.5,2435.8 L-9317.8,2433.2 L-9311.7,2436.3 L-9305.1,2438.9 L-9297.5,2441.3 L-9291.8,2442.5 L-9286.4,2442.7 L-9280.0,2441.6 L-9273.7,2439.5 L-9267.5,2437.1 L-9264.6,2434.0 L-9263.5,2429.9 L-9262.0,2425.0 L-9261.7,2423.0 L-9261.8,2420.5 L-9263.2,2416.6 L-9265.8,2412.9 L-9268.8,2410.8 L-9273.2,2406.6 L-9277.0,2402.6 L-9282.6,2399.0 L-9284.9,2393.3 L-9287.6,2387.6 L-9291.9,2380.9 L-9296.8,2375.1 L-9305.8,2368.7 L-9349.4,2346.1 L-9375.2,2333.3 L-9399.3,2320.3 L-9422.2,2307.6 L-9437.0,2298.0 L-9442.7,2296.5 L-9449.0,2298.4 L-9452.5,2302.7 L-9459.6,2320.4 L-9503.7,2300.6 L-9477.3,2258.9 L-9471.5,2256.2 L-9464.4,2254.8 L-9456.1,2256.6 L-9290.4,2353.5 L-9281.4,2356.2 L-9272.0,2358.5 L-9258.7,2358.8 L-9245.2,2356.4 L-9236.6,2352.9 L-9227.2,2345.3 L-9221.7,2340.0 L-9215.8,2331.7 L-9215.9,2330.6 L-9216.3,2329.6 L-9217.2,2328.8 L-9270.8,2295.7 L-9272.1,2295.3 L-9273.5,2295.2 L-9274.9,2295.3 L-9280.0,2297.5 L-9281.9,2297.7 L-9284.0,2297.5 L-9287.1,2297.0 L-9289.5,2296.3 L-9292.9,2294.6 L-9296.2,2292.7 L-9369.9,2247.7 L-9404.6,2223.3 L-9407.9,2222.8 L-9411.2,2222.9 L-9415.1,2223.0 L-9417.7,2222.6 L-9419.9,2221.6 L-9422.5,2219.6 L-9425.4,2217.3 L-9427.4,2214.5 L-9428.6,2211.7 L-9428.8,2209.6 L-9428.5,2206.9 L-9428.0,2204.6 L-9416.2,2184.8 L-9416.2,2183.9 L-9417.1,2183.2 L-9427.9,2175.6 L-9430.0,2172.5 L-9428.8,2170.6 L-9425.3,2171.1 L-9421.5,2172.2 L-9399.3,2185.9 L-9273.5,2266.2 L-9270.9,2267.7 L-9269.1,2269.6 L-9267.9,2271.8 L-9266.6,2276.4 L-9265.7,2280.0 L-9265.2,2283.1 L-9208.4,2317.2 L-9206.4,2318.1 L-9204.0,2318.3 L-9201.2,2317.9 L-9199.2,2317.2 L-9197.5,2316.4 L-9136.4,2217.5 L-9110.8,2179.9 L-9086.9,2153.0 L-9074.8,2159.7 L-9067.0,2147.1 L-9108.5,2122.3 L-9099.7,2107.9 L-9058.2,2132.9 L-9048.9,2117.7 L-9056.4,2109.3 L-9048.8,2100.6 L-9040.6,2110.0 L-9038.6,2108.5 L-9036.3,2106.9 L-9033.1,2105.1 L-9029.8,2103.5 L-9025.7,2102.0 L-9021.8,2100.9 L-9017.6,2100.2 L-9013.4,2099.9 L-9009.4,2100.0 L-9005.5,2100.6 L-9001.8,2101.5 L-8998.7,2102.4 L-8996.0,2103.6 L-8992.2,2105.4 L-8988.7,2107.6 L-8985.7,2109.7 L-8982.7,2112.4 L-8980.0,2115.0 L-8977.0,2118.9 L-8974.9,2122.4 L-8972.8,2126.9 L-8971.4,2131.4 L-8970.2,2137.6 L-8969.8,2143.0 L-8969.9,2146.1 L-8970.3,2149.3 L-8971.4,2154.1 L-8974.2,2160.7 L-8976.0,2165.0 L-8978.5,2170.1 L-8968.1,2175.3 L-8919.5,2117.3 L-9008.0,2063.5 L-9003.5,2053.9 L-9000.3,2045.0 L-9000.1,2041.2 L-8995.0,2030.3 L-8984.5,2020.6 L-8971.5,2010.0 L-8956.0,2000.1 L-8926.9,1991.6 L-8876.7,1986.6 L-8856.9,1970.6 L-8852.8,1969.9 L-8849.5,1969.7 L-8844.8,1971.5 L-8840.5,1972.0 L-8812.6,1988.9 L-8739.2,1901.8 L-9008.2,1730.8 L-9024.9,1757.1 L-9061.2,1734.1 L-9009.7,1653.1 L-8973.5,1675.5 L-8989.6,1703.1 L-8715.9,1875.6 L-8681.4,1831.3 L-8657.0,1802.3 L-8624.8,1753.9 L-8607.0,1729.5 L-8608.8,1715.6 L-8608.3,1715.2 L-8611.5,1704.9 L-8613.6,1698.5 L-8615.6,1691.9 L-8618.0,1686.2 L-8622.6,1678.7 L-8627.2,1671.4 L-8629.2,1667.6 L-8630.7,1663.8 L-8631.8,1660.3 L-8632.2,1657.2 L-8632.7,1647.0 L-8750.9,1538.5 L-8754.8,1542.7 L-8758.1,1539.9 L-8767.7,1549.4 L-8774.0,1541.0 L-8766.4,1532.2 L-8774.0,1522.5 L-8779.2,1523.9 L-8784.6,1524.1 L-8789.5,1523.2 L-8793.8,1521.4 L-8798.8,1517.7 L-8805.0,1511.6 L-8815.9,1499.6 L-8819.2,1494.5 L-8820.4,1488.1 L-8819.6,1480.5 L-8816.7,1473.5 L-8814.2,1468.7 L-8809.4,1463.9 L-8804.1,1460.3 L-8799.0,1458.4 L-8795.2,1457.8 L-8790.2,1458.7 L-8785.1,1460.5 L-8780.3,1464.3 L-8769.2,1474.3 L-8763.5,1479.7 L-8758.3,1485.4 L-8756.6,1488.1 L-8755.4,1491.0 L-8754.7,1493.6 L-8754.2,1497.2 L-8754.8,1500.6 L-8755.8,1503.8 L-8757.2,1506.2 L-8757.6,1507.3 L-8757.3,1508.7 L-8756.5,1510.1 L-8629.6,1629.0 L-8625.2,1632.0 L-8622.1,1633.3 L-8617.7,1632.3 L-8612.5,1631.9 L-8605.9,1634.7 L-8599.3,1638.8 L-8586.4,1646.1 L-8581.0,1648.7 L-8576.1,1643.9 L-8570.7,1638.7 L-8567.1,1634.6 L-8561.1,1626.8 L-8557.7,1622.1 L-8554.1,1616.3 L-8551.8,1611.2 L-8549.3,1605.8 L-8547.0,1600.1 L-8544.9,1594.3 L-8543.7,1589.4 L-8542.3,1583.2 L-8541.7,1579.5 L-8541.3,1576.5 L-8540.6,1571.2 L-8539.9,1566.0 L-8539.6,1562.6 L-8539.4,1558.9 L-8539.4,1554.6 L-8539.6,1551.0 L-8540.3,1546.0 L-8541.1,1540.3 L-8541.9,1535.0 L-8542.4,1530.7 L-8543.0,1527.5 L-8543.7,1524.1 L-8544.5,1520.7 L-8545.7,1516.7 L-8547.1,1512.7 L-8548.2,1510.3 L-8549.4,1507.9 L-8551.1,1505.6 L-8553.4,1502.3 L-8555.9,1499.2 L-8558.6,1496.6 L-8562.0,1493.8 L-8565.5,1491.6 L-8569.0,1489.7 L-8572.2,1488.5 L-8574.4,1487.8 L-8576.9,1487.5 L-8579.9,1487.6 L-8582.7,1488.2 L-8584.9,1489.1 L-8587.0,1490.6 L-8588.5,1492.2 L-8589.7,1493.7 L-8590.6,1496.0 L-8591.1,1498.5 L-8591.0,1501.5 L-8590.8,1505.0 L-8590.8,1507.6 L-8591.0,1510.2 L-8591.4,1512.8 L-8591.9,1515.1 L-8592.8,1517.5 L-8594.2,1520.1 L-8595.9,1522.6 L-8597.6,1524.9 L-8599.3,1526.5 L-8602.7,1529.2 L-8605.5,1531.1 L-8609.9,1532.4 L-8612.5,1533.0 L-8615.5,1533.4 L-8618.2,1533.5 L-8621.8,1533.3 L-8624.4,1532.8 L-8628.0,1532.0 L-8633.0,1530.5 L-8637.2,1528.9 L-8640.3,1527.7 L-8643.6,1525.9 L-8646.5,1523.9 L-8649.7,1521.4 L-8652.2,1519.1 L-8654.3,1517.0 L-8656.5,1514.4 L-8658.3,1512.0 L-8660.0,1509.6 L-8661.5,1506.9 L-8663.1,1503.3 L-8664.5,1500.0 L-8665.9,1496.4 L-8666.8,1493.6 L-8667.5,1491.0 L-8668.0,1488.3 L-8668.4,1484.1 L-8668.7,1480.4 L-8668.5,1476.4 L-8667.6,1471.1 L-8666.1,1465.9 L-8664.2,1460.5 L-8662.9,1458.0 L-8661.6,1456.5 L-8651.3,1443.4 L-8648.9,1440.7 L-8645.8,1439.2 L-8642.5,1438.0 L-8638.8,1437.2 L-8634.7,1436.7 L-8631.1,1436.5 L-8627.5,1436.6 L-8623.9,1437.0 L-8619.8,1438.2 L-8615.5,1440.3 L-8611.8,1442.6 L-8608.5,1445.2 L-8598.1,1454.8 L-8595.6,1455.6 L-8594.2,1455.9 L-8592.5,1455.5 L-8591.4,1455.1 L-8590.0,1453.5 L-8589.4,1451.9 L-8589.3,1449.7 L-8589.2,1447.7 L-8589.6,1446.8 L-8610.6,1426.0 L-8582.0,1395.5 L-8583.6,1391.9 L-8567.1,1375.6 L-8535.3,1407.4 L-8560.9,1440.0 L-8561.1,1441.9 L-8559.8,1442.7 L-8558.2,1442.3 L-8530.1,1407.1 L-8521.9,1397.2 L-8521.6,1394.9 L-8522.3,1392.9 L-8523.8,1391.1 L-8545.8,1370.3 L-8540.3,1363.9 L-8545.9,1359.2 L-8542.7,1351.8 L-8485.7,1294.5 L-8466.1,1291.2 L-8460.0,1290.3 L-8454.2,1289.5 L-8451.5,1288.8 L-8448.3,1287.1 L-8444.5,1285.0 L-8441.6,1282.1 L-8438.8,1278.6 L-8409.7,1236.3 L-8409.1,1235.2 L-8409.4,1233.8 L-8409.8,1232.8 L-8410.5,1231.9 L-8414.0,1229.7 L-8414.9,1229.2 L-8415.7,1229.3 L-8416.6,1229.8 L-8418.5,1231.2 L-8442.9,1254.0 L-8452.4,1260.8 L-8491.4,1220.8 L-8486.9,1206.6 L-8485.0,1202.4 L-8478.9,1191.2 L-8471.8,1178.7 L-8467.5,1173.9 L-8459.8,1165.7 L-8451.6,1156.7 L-8442.6,1147.2 L-8434.9,1140.6 L-8431.2,1137.3 L-8426.3,1133.7 L-8421.8,1131.3 L-8415.4,1128.4 L-8411.4,1127.0 L-8407.4,1125.8 L-8404.3,1125.5 L-8399.9,1125.8 L-8396.2,1126.3 L-8392.0,1127.5 L-8387.9,1130.9 L-8385.4,1134.4 L-8383.9,1138.0 L-8383.3,1143.4 L-8383.5,1150.5 L-8384.4,1158.5 L-8386.1,1166.2 L-8396.4,1189.2 L-8406.2,1209.9 L-8402.8,1215.4 L-8401.0,1216.5 L-8399.1,1216.5 L-8397.4,1216.1 L-8396.1,1215.3 L-8389.4,1205.8 L-8380.8,1201.5 L-8363.7,1155.8 L-8362.5,1153.5 L-8360.8,1151.5 L-8359.1,1150.6 L-8357.5,1150.2 L-8355.2,1150.2 L-8352.8,1150.8 L-8340.3,1154.3 L-8337.9,1154.8 L-8335.1,1154.9 L-8332.5,1154.5 L-8330.4,1153.6 L-8328.6,1152.2 L-8326.8,1149.9 L-8305.8,1121.8 L-8304.8,1119.7 L-8304.3,1117.5 L-8304.3,1115.4 L-8304.7,1113.2 L-8305.5,1111.6 L-8306.7,1110.0 L-8308.1,1108.7 L-8310.1,1107.7 L-8312.0,1107.2 L-8313.9,1107.1 L-8315.5,1107.4 L-8317.4,1108.3 L-8318.8,1109.3 L-8319.9,1110.7 L-8325.4,1119.6 L-8326.6,1121.3 L-8328.0,1122.9 L-8330.1,1124.7 L-8332.0,1125.8 L-8334.3,1126.5 L-8337.1,1127.1 L-8338.7,1127.1 L-8340.9,1126.8 L-8342.8,1126.3 L-8344.4,1125.6 L-8361.6,1110.0 L-8363.6,1107.6 L-8365.1,1105.4 L-8366.5,1102.7 L-8367.4,1100.4 L-8368.0,1098.0 L-8368.5,1095.4 L-8368.8,1092.2 L-8368.9,1089.0 L-8368.6,1086.3 L-8368.2,1084.0 L-8367.7,1082.0 L-8366.9,1080.3 L-8335.6,1030.6 L-8333.6,1027.3 L-8332.4,1025.6 L-8331.0,1024.8 L-8328.7,1023.8 L-8326.3,1023.1 L-8324.0,1022.7 L-8322.7,1022.7 L-8321.4,1022.9 L-8320.3,1023.3 L-8318.7,1024.1 L-8316.8,1025.3 L-8313.6,1027.9 L-8299.3,1041.3 L-8296.9,1044.7 L-8295.5,1048.0 L-8294.2,1051.9 L-8293.8,1054.9 L-8293.6,1058.1 L-8293.6,1060.8 L-8293.9,1063.5 L-8294.4,1066.2 L-8295.0,1068.0 L-8296.6,1071.7 L-8302.3,1082.3 L-8302.9,1084.7 L-8302.9,1087.6 L-8302.7,1089.8 L-8301.9,1091.5 L-8300.4,1093.1 L-8298.0,1094.8 L-8296.0,1095.9 L-8293.7,1096.4 L-8291.0,1096.3 L-8288.8,1095.8 L-8286.3,1094.5 L-8284.1,1092.5 L-8247.1,1041.7 L-8258.4,1031.5 L-8251.6,1024.2 L-8241.5,1033.9 L-8220.7,1006.6 L-8189.2,964.5 L-8316.0,843.0 L-8343.5,871.9 L-8375.8,841.4 L-8344.6,807.8 L-8348.7,803.3 L-8342.2,797.3 L-8338.2,801.4 L-8316.5,777.8 L-8297.0,795.9 L-8294.7,810.9 L-8212.7,887.4 L-8196.7,893.6 L-8183.9,889.1 L-8159.6,898.8 L-8143.5,892.9 L-8095.6,834.4 L-8092.9,828.9 L-8092.1,821.5 L-8094.5,814.2 L-8097.7,809.0 L-8126.1,782.8 L-8125.7,775.6 L-8120.1,761.5 L-8108.9,740.6 L-8131.0,726.3 L-8122.6,723.1 L-8117.3,719.7 L-8112.0,713.7 L-8105.8,697.8 L-8094.4,668.8 L-8087.0,662.0 L-8157.2,594.0 L-8172.6,603.6 L-8176.2,604.5 L-8179.6,604.6 L-8184.0,604.1 L-8187.6,603.1 L-8191.1,601.0 L-8194.0,598.5 L-8230.3,563.5 L-8237.1,556.7 L-8240.1,553.1 L-8242.6,548.6 L-8243.8,544.5 L-8244.3,540.5 L-8244.2,536.7 L-8243.5,533.1 L-8242.6,530.2 L-8241.4,528.1 L-8238.8,524.4 L-8235.7,520.7 L-8219.4,503.8 L-8095.4,618.7 L-8103.9,628.3 L-8012.0,715.2 L-7906.1,560.1 L-7973.3,497.3 L-7981.9,505.0 L-8107.4,386.5 L-8091.0,371.2 L-8018.9,438.8 L-8011.7,428.2 L-8007.7,422.9 L-8002.6,417.7 L-7996.7,411.2 L-7990.7,407.3 L-7981.2,399.3 L-7971.7,390.5 L-7953.5,373.3 L-7910.0,324.4 L-7902.2,316.3 L-7873.5,301.6 L-7846.3,280.3 L-7843.7,278.3 L-7836.6,272.8 L-7833.5,270.0 L-7831.0,266.8 L-7829.3,263.5 L-7828.2,260.2 L-7826.9,257.7 L-7825.4,255.0 L-7822.8,250.7 L-7821.0,248.0 L-7819.2,245.5 L-7815.9,242.9 L-7812.7,240.7 L-7809.2,238.6 L-7800.9,234.6 L-7792.9,230.6 L-7791.7,230.4 L-7790.5,230.6 L-7788.1,231.3 L-7781.6,234.6 L-7776.7,237.0 L-7774.4,238.4 L-7772.3,240.1 L-7738.9,271.8 L-7736.6,273.1 L-7725.7,276.0 L-7722.2,277.0 L-7718.3,277.4 L-7715.3,277.3 L-7713.0,276.5 L-7710.7,274.9 L-7698.8,258.1 L-7698.8,255.8 L-7699.2,253.7 L-7700.5,251.4 L-7702.5,249.2 L-7711.6,240.7 L-7710.9,239.3 L-7699.2,214.5 L-7679.2,174.2 L-7661.0,160.8 L-7650.5,150.3 L-7643.3,142.0 L-7635.7,134.3 L-7627.3,127.4 L-7622.2,122.7 L-7616.8,117.8 L-7612.8,113.8 L-7610.8,110.2 L-7609.2,107.4 L-7608.2,104.7 L-7607.8,101.5 L-7607.6,98.3 L-7601.5,92.1 L-7592.5,83.6 L-7577.5,71.3 L-7561.8,59.4 L-7554.8,49.6 L-7552.2,39.5 L-7544.4,34.7 L-7534.6,34.5 L-7524.7,28.6 L-7516.0,12.9 L-7516.2,-3.4 L-7514.6,-28.6 L-7512.1,-32.2 L-7510.6,-34.6 L-7507.8,-39.2 L-7511.3,-49.9 L-7507.3,-54.9 L-7487.5,-79.4 L-7453.5,-119.1 L-7447.0,-128.5 L-7444.4,-133.4 L-7433.6,-148.3 L-7430.6,-157.7 L-7430.5,-172.2 L-7430.9,-186.7 L-7431.0,-201.5 L-7426.6,-217.8 L-7419.2,-233.9 L-7408.6,-249.4 L-7400.9,-260.9 L-7391.8,-272.4 L-7374.2,-292.0 L-7296.2,-330.6 L-7285.9,-333.3 L-7283.3,-327.7 L-7280.2,-322.3 L-7279.2,-321.3 L-7277.5,-322.0 L-7277.2,-325.8 L-7278.4,-329.0 L-7274.1,-330.3 L-7258.1,-335.0 L-7237.3,-341.2 L-7220.5,-346.2 L-7214.5,-348.0 L-7220.5,-366.9 L-7210.1,-369.7 L-7192.8,-372.1 L-7190.7,-372.4 L-7190.6,-373.6 L-7190.6,-378.0 L-7174.9,-378.7 L-7150.3,-379.7 L-7140.8,-375.1 L-7117.1,-289.7 L-7111.8,-284.6 L-7122.1,-274.0 L-7113.0,-265.0 L-7104.0,-256.0 L-7093.2,-267.0 L-6892.7,-76.4 L-6625.1,-362.0 L-6531.6,-272.6 L-6528.0,-273.7 L-6526.6,-272.1 L-6520.3,-276.1 L-6515.1,-278.0 L-6509.6,-280.5 L-6500.2,-285.4 L-6494.4,-288.7 L-6487.5,-292.7 L-6481.1,-296.7 L-6475.9,-300.1 L-6471.1,-303.2 L-6465.5,-307.3 L-6459.1,-312.0 L-6454.2,-316.1 L-6449.0,-320.7 L-6443.3,-326.1 L-6437.9,-331.5 L-6425.3,-344.9 L-6417.7,-354.0 L-6410.3,-363.9 L-6405.2,-371.1 L-6400.4,-378.5 L-6394.7,-388.8 L-6389.7,-398.9 L-6385.7,-407.2 L-6382.3,-415.5 L-6380.2,-421.0 L-6377.9,-427.2 L-6372.5,-433.9 L-6543.5,-596.6 L-6541.4,-598.9 L-6520.9,-620.9 L-6506.0,-636.7 L-6504.5,-638.3 L-6461.1,-597.7 L-6450.6,-603.1 L-6449.4,-601.6 L-6347.4,-654.7 L-6343.2,-656.9 L-6340.3,-659.2 L-6337.6,-661.7 L-6334.5,-664.9 L-6331.5,-669.4 L-6328.9,-673.6 L-6327.2,-676.8 L-6326.0,-680.9 L-6324.9,-685.4 L-6324.4,-690.3 L-6324.4,-695.8 L-6324.8,-700.2 L-6325.6,-704.1 L-6326.9,-708.8 L-6358.8,-800.6 L-6363.1,-815.7 L-6362.0,-820.9 L-6439.0,-840.0 L-6435.4,-853.3 L-6432.4,-865.3 L-6409.6,-955.5 L-6427.3,-1008.1 L-6437.7,-1042.1 L-6440.7,-1050.6 L-6413.1,-1075.9 L-6382.0,-1092.6 L-6380.1,-1090.0 L-6377.1,-1085.7 L-6370.1,-1076.6 L-6369.3,-1077.4 L-6369.1,-1080.5 L-6378.8,-1093.9 L-6361.5,-1106.3 L-6357.7,-1108.5 L-6348.7,-1096.8 L-6347.2,-1095.7 L-6345.7,-1095.4 L-6344.9,-1095.6 L-6344.9,-1096.4 L-6387.7,-1155.0 L-6390.8,-1158.4 L-6394.4,-1163.3 L-6413.0,-1185.8 L-6397.1,-1235.1 L-6384.9,-1247.8 L-6370.8,-1254.4 L-6340.8,-1272.2 L-6334.6,-1278.6 L-6307.7,-1302.2 L-6299.2,-1293.3 L-6274.3,-1266.4 L-6251.2,-1285.8 L-6235.7,-1270.9 L-6221.8,-1257.3 L-6221.1,-1256.6 L-6209.3,-1266.7 L-6193.7,-1250.1 L-6180.3,-1232.9 L-6170.4,-1221.4 L-6169.1,-1219.9 L-6140.3,-1245.2 L-6138.8,-1246.5 L-6145.6,-1254.8 L-6129.9,-1267.7 L-6082.3,-1212.2 L-6041.8,-1238.9 L-6037.8,-1242.7 L-6020.2,-1250.1 L-6016.2,-1254.0 L-6012.4,-1259.0 L-5990.7,-1278.3 L-5995.6,-1285.0 L-6034.4,-1276.1 L-6078.8,-1326.6 L-6073.7,-1331.0 L-6067.0,-1323.2 L-6035.6,-1350.2 L-6002.3,-1313.8 L-5993.3,-1310.2 L-5987.9,-1307.1 L-5981.1,-1299.4 L-5977.4,-1302.7 L-6001.5,-1330.1 L-5986.7,-1342.9 L-5956.8,-1307.0 L-5953.0,-1309.8 L-5953.4,-1310.6 L-5887.8,-1358.0 L-5868.3,-1372.4 L-5932.0,-1452.0 L-5918.4,-1461.5 L-5863.0,-1396.6 L-5822.1,-1389.1 L-5795.1,-1404.9 L-5791.3,-1407.3 L-5791.5,-1410.3 L-5793.4,-1413.8 L-5772.3,-1427.1 L-5766.1,-1420.9 L-5748.3,-1431.4 L-5761.2,-1447.4 L-5823.5,-1530.7 L-5779.5,-1576.3 L-5750.6,-1619.0 L-5749.9,-1652.4 L-5765.3,-1696.8 L-5732.9,-1723.8 L-5698.9,-1736.9 L-5687.7,-1739.5 L-5678.7,-1740.7 L-5667.7,-1740.0 L-5656.3,-1737.2 L-5639.8,-1723.1 L-5597.0,-1670.9 L-5562.8,-1627.5 L-5521.9,-1600.2 L-5505.8,-1597.6 L-5491.4,-1595.9 L-5479.2,-1595.4 L-5463.6,-1596.5 L-5446.7,-1599.3 L-5433.0,-1603.2 L-5421.4,-1608.6 L-5413.7,-1613.1 L-5408.0,-1619.1 L-5398.4,-1630.7 L-5388.0,-1649.7 L-5376.7,-1674.9 L-5356.6,-1664.6 L-5348.6,-1661.9 L-5340.0,-1660.7 L-5326.3,-1661.6 L-5317.2,-1664.3 L-5306.8,-1668.8 L-5297.1,-1674.4 L-5286.8,-1684.4 L-5278.0,-1692.4 L-5267.0,-1699.9 L-5259.4,-1704.8 L-5248.2,-1708.8 L-5228.9,-1714.4 L-5217.5,-1717.6 L-5205.3,-1722.2 L-5194.7,-1727.7 L-5188.4,-1731.3 L-5183.4,-1736.5 L-5118.0,-1769.3 L-5115.5,-1770.7 L-5112.6,-1772.5 L-5109.6,-1774.8 L-5105.2,-1777.3 L-5102.3,-1778.7 L-5099.2,-1781.4 L-5096.8,-1783.9 L-5093.6,-1786.0 L-5090.2,-1788.4 L-5085.7,-1792.6 L-5079.3,-1793.1 L-5072.7,-1793.9 L-5068.4,-1795.3 L-5062.8,-1797.9 L-5055.9,-1801.0 L-5048.6,-1805.5 L-5044.5,-1809.4 L-5039.9,-1814.7 L-5037.0,-1819.6 L-5035.4,-1824.1 L-5035.3,-1827.3 L-5035.2,-1829.9 L-5033.6,-1840.3 L-4997.2,-1861.4 L-4933.4,-1898.2 L-4921.0,-1905.3 L-4812.8,-1967.7 L-4695.6,-2035.0 L-4645.7,-2063.6 L-4628.4,-2073.3 L-4483.5,-2157.5 L-4451.3,-2175.2 L-4451.8,-2176.3 L-4385.5,-2213.8 L-4360.0,-2228.1 L-4313.0,-2254.1 L-4312.5,-2253.4 L-4294.3,-2263.4 L-4250.1,-2288.1 L-4244.8,-2292.9 L-4200.0,-2325.7 L-4177.7,-2344.2 L-4157.2,-2361.5 L-4147.8,-2366.8 L-4126.6,-2387.8 L-4124.8,-2386.7 L-4122.0,-2387.0 L-4120.6,-2386.1 L-4090.8,-2421.0 L-4098.3,-2428.0 L-4097.3,-2429.8 L-4094.1,-2434.4 L-4085.5,-2445.3 L-4080.3,-2453.2 L-4076.2,-2459.7 L-4070.5,-2468.4 L-4065.0,-2477.4 L-4058.8,-2487.7 L-4052.4,-2498.9 L-4038.5,-2527.6 L-4034.2,-2536.7 L-4030.7,-2544.0 L-4028.3,-2549.5 L-4026.2,-2553.7 L-4021.8,-2564.7 L-4137.6,-2780.7 L-4139.8,-2784.8 L-4141.5,-2787.1 L-4142.7,-2788.8 L-4144.3,-2790.2 L-4145.8,-2791.2 L-4147.8,-2792.4 L-4149.9,-2793.2 L-4151.7,-2793.6 L-4153.5,-2793.8 L-4156.2,-2793.8 L-4159.3,-2793.3 L-4162.0,-2792.5 L-4164.8,-2791.1 L-4191.7,-2775.6 L-4226.8,-2755.5 L-4251.3,-2741.9 L-4296.0,-2717.3 L-4323.4,-2702.4 L-4322.4,-2700.7 L-4334.1,-2694.0 L-4372.4,-2674.2 L-4400.8,-2657.4 L-4417.5,-2648.1 L-4442.9,-2633.5 L-4445.8,-2631.5 L-4468.1,-2671.6 L-4424.3,-2695.6 L-4364.5,-2728.1 L-4323.8,-2750.7 L-4318.8,-2753.6 L-4319.5,-2754.7 L-4284.3,-2773.9 L-4265.6,-2784.2 L-4222.7,-2805.1 L-4214.5,-2809.3 L-4149.8,-2845.3 L-4125.5,-2858.7 L-4108.4,-2867.9 L-4088.2,-2879.5 L-4060.2,-2828.9 L-4104.2,-2804.8 L-4106.5,-2801.1 L-4107.4,-2797.2 L-4107.8,-2794.2 L-4107.9,-2791.6 L-4107.7,-2789.5 L-4106.9,-2786.6 L-4017.2,-2620.7 L-4015.5,-2618.2 L-4013.5,-2616.3 L-4011.5,-2615.0 L-4009.4,-2614.3 L-4007.1,-2614.0 L-4004.9,-2614.2 L-4003.2,-2614.7 L-3963.4,-2644.9 L-3944.7,-2660.6 L-3925.4,-2676.9 L-3918.1,-2683.6 L-3894.2,-2703.2 L-3893.1,-2703.2 L-3869.9,-2723.0 L-3869.8,-2724.2 L-3854.6,-2736.7 L-3842.6,-2746.5 L-3822.0,-2763.5 L-3820.1,-2761.2 L-3799.9,-2777.9 L-3789.7,-2786.4 L-3761.4,-2809.9 L-3741.7,-2826.3 L-3743.6,-2829.1 L-3737.1,-2834.6 L-3726.4,-2843.4 L-3719.8,-2849.2 L-3691.9,-2861.7 L-3673.0,-2868.3 L-3663.3,-2872.9 L-3636.1,-2873.1 L-3626.6,-2873.1 L-3606.5,-2872.1 L-3583.0,-2871.1 L-3581.3,-2872.7 L-3579.0,-2869.7 L-3571.6,-2869.3 L-3504.3,-2863.5 L-3496.4,-2861.8 L-3489.5,-2860.7 L-3473.9,-2859.4 L-3444.8,-2858.0 L-3438.4,-2857.9 L-3432.4,-2858.1 L-3409.1,-2859.0 L-3397.1,-2859.6 L-3385.2,-2860.7 L-3366.9,-2862.6 L-3367.0,-2861.5 L-3352.5,-2864.0 L-3338.8,-2866.6 L-3328.3,-2868.5 L-3314.5,-2878.9 L-3312.9,-2876.7 L-3311.2,-2874.3 L-3189.6,-2713.5 L-2896.1,-2612.3 L-2357.5,-3007.9 L-2210.7,-3113.6 L-2154.0,-3234.6 L-2244.2,-3352.8 L-2240.2,-3369.7 L-2224.4,-3374.0 L-2194.0,-3367.7 L-2172.4,-3375.8 L-2166.4,-3384.2 L-2167.7,-3391.5 L-2183.8,-3423.1 L-2184.9,-3434.9 L-2185.8,-3458.3 L-2188.6,-3480.9 L-2185.8,-3484.9 L-2176.7,-3489.3 L-2165.6,-3491.8 L-2157.6,-3500.4 L-2155.8,-3510.8 L-2162.6,-3530.9 L-2163.3,-3544.8 L-2161.1,-3560.6 L-2150.1,-3588.3 L-2152.4,-3601.1 L-2157.9,-3615.4 L-2158.1,-3634.8 L-2161.3,-3660.4 L-2167.1,-3676.4 L-2170.7,-3684.8 L-2168.3,-3688.5 L-2166.0,-3688.3 L-2165.4,-3689.8 L-2165.1,-3691.8 L-2165.2,-3693.8 L-2168.7,-3694.2 L-2170.9,-3697.3 L-2170.5,-3701.0 L-2173.5,-3701.8 L-2177.2,-3701.9 L-2177.7,-3701.0 L-2185.3,-3710.0 L-2186.9,-3712.8 L-2188.2,-3716.7 L-2189.1,-3720.5 L-2189.8,-3724.5 L-2190.1,-3728.5 L-2190.3,-3732.1 L-2190.3,-3735.8 L-2190.0,-3737.8 L-2188.4,-3742.8 L-2186.6,-3746.8 L-2184.3,-3750.7 L-2180.9,-3755.6 L-2177.4,-3760.3 L-2174.1,-3763.7 L-2170.0,-3766.8 L-2169.2,-3766.0 L-2134.1,-3792.8 L-2129.0,-3796.7 L-2130.0,-3798.2 L-2130.0,-3800.8 L-2121.3,-3807.6 L-2119.1,-3807.5 L-2117.0,-3806.0 L-2113.3,-3808.8 L-2077.3,-3836.1 L-2077.7,-3837.0 L-2073.5,-3840.1 L-2068.5,-3843.2 L-2065.0,-3844.8 L-2060.0,-3846.7 L-2055.7,-3847.9 L-2051.4,-3848.5 L-2046.7,-3848.9 L-2043.9,-3848.7 L-2040.0,-3848.1 L-2036.2,-3846.8 L-2033.4,-3845.4 L-2030.7,-3843.8 L-2028.7,-3842.3 L-2027.0,-3840.7 L-2024.5,-3838.3 L-2023.4,-3837.9 L-2021.6,-3837.9 L-2019.8,-3838.2 L-2014.3,-3842.1 L-2014.3,-3843.2 L-2013.7,-3844.0 L-2013.1,-3845.1 L-2013.2,-3846.4 L-2013.5,-3847.5 L-2014.3,-3848.5 L-2018.2,-3852.4 L-2021.3,-3854.9 L-2024.9,-3856.9 L-2030.8,-3859.5 L-2035.9,-3861.5 L-2027.0,-3866.1 L-2016.1,-3873.7 L-2002.6,-3875.4 L-1989.1,-3874.5 L-1980.3,-3878.0 L-1972.6,-3889.0 L-1943.6,-3940.9 L-1931.8,-3962.3 L-1922.5,-3985.1 L-1920.9,-3989.9 L-1907.1,-4032.2 L-1904.9,-4036.3 L-1902.3,-4040.4 L-1869.9,-4080.5 L-1863.0,-4087.7 L-1857.9,-4092.1 L-1785.3,-4154.3 L-1781.3,-4157.0 L-1768.9,-4163.8 L-1754.0,-4172.2 L-1707.6,-4196.5 L-1606.5,-4250.8 L-1604.1,-4248.9 L-1602.2,-4248.2 L-1600.5,-4247.7 L-1598.7,-4248.0 L-1596.8,-4248.4 L-1591.4,-4249.5 L-1585.1,-4250.9 L-1579.4,-4252.2 L-1573.5,-4253.3 L-1570.3,-4254.0 L-1565.9,-4255.3 L-1560.9,-4257.4 L-1548.8,-4264.0 L-1544.4,-4266.4 L-1542.1,-4267.8 L-1539.8,-4268.8 L-1530.4,-4272.8 L-1520.1,-4276.8 L-1507.1,-4282.4 L-1491.8,-4288.7 L-1491.2,-4289.0 L-1489.9,-4289.1 L-1488.2,-4289.6 L-1485.8,-4291.4 L-1483.1,-4292.4 L-1480.1,-4293.9 L-1474.5,-4297.1 L-1472.5,-4299.1 L-1469.2,-4301.2 L-1469.5,-4301.8 L-1468.1,-4303.5 L-1466.3,-4305.4 L-1463.3,-4306.9 L-1460.8,-4307.9 L-1458.1,-4308.9 L-1455.6,-4310.2 L-1450.7,-4313.3 L-1449.3,-4314.7 L-1447.9,-4316.9 L-1447.3,-4318.5 L-1447.1,-4320.1 L-1447.3,-4321.6 L-1447.0,-4323.1 L-1461.0,-4340.0 L-1416.9,-4365.9 L-1396.0,-4377.0 L-1391.9,-4378.3 L-1385.5,-4377.1 L-1378.4,-4367.2 L-1375.2,-4364.4 L-1372.3,-4363.0 L-1369.6,-4362.4 L-1367.1,-4362.5 L-1329.3,-4378.1 L-1319.0,-4383.1 L-1309.4,-4388.4 L-1293.9,-4396.6 L-1290.7,-4397.7 L-1075.9,-4487.0 L-1008.7,-4519.3 L-708.2,-4663.6 L6304.9,-4721.6 L6304.9,5314.0 L-8682.8,5314.0 L-8682.8,4887.5 Z" fill="#add7e1" stroke="none"><title>Biscayne Bay</title></path><path d="M2900.6,-2111.6 L-209.0,11260.9" fill="none" stroke="#6fb5c7" stroke-width="1.7" stroke-dasharray="5 7" opacity="0.34" stroke-linecap="round" stroke-linejoin="round"><title>Atlantic Intracoastal Waterway</title></path></svg>