<svg xmlns="http://www.w3.org/2000/svg" width="256" height="256" viewBox="0 0 256 256"><rect width="256" height="256" fill="#f1efe7"/><path d="M-1290.7,-14125.7 L-1075.9,-14215.0 L-1008.7,-14247.3 L-708.2,-14391.6 L-651.8,-14337.0 L-646.9,-14332.3 L-541.5,-14422.5 L-516.4,-14441.6 L-474.5,-14479.4 L-238.4,-14696.2 L-47.9,-14913.8 L-40.6,-14927.7 L-33.6,-14935.6 L-22.5,-14948.3 L-11.2,-14961.2 L-6.6,-14966.5 L-81.7,-15063.6 L17.7,-15123.2 L71.6,-15051.5 L147.8,-15138.7 L83.3,-15224.1 L163.2,-15307.4 L224.7,-15226.4 L295.3,-15306.8 L325.4,-15326.5 L472.6,-15422.0 L545.3,-15470.3 L632.9,-15527.9 L674.3,-15555.1 L779.2,-15622.8 L752.2,-15658.3 L703.9,-15723.0 L828.8,-15802.4 L874.3,-15825.9 L877.8,-15828.4 L901.8,-15846.9 L987.4,-15892.7 L993.3,-15901.9 L1017.3,-15918.4 L1030.3,-15937.4 L1034.0,-15940.2 L1054.9,-15948.3 L1102.1,-15965.2 L1134.4,-15979.4 L1248.5,-16033.0 L1249.9,-16029.3 L1345.6,-16070.2 L1384.7,-16020.1 L1471.8,-16078.2 L1484.2,-16086.7 L1485.4,-16087.7 L1486.6,-16089.3 L1488.5,-16092.6 L1489.5,-16095.7 L1490.1,-16099.4 L1490.0,-16102.4 L1489.6,-16105.3 L1489.2,-16108.6 L1489.1,-16111.1 L1489.3,-16113.2 L1489.7,-16115.4 L1491.3,-16119.4 L1492.4,-16121.6 L1494.9,-16125.4 L1497.5,-16128.2 L1510.2,-16133.3 L1520.8,-16137.3 L1534.3,-16141.7 L1540.6,-16143.4 L1551.8,-16147.1 L1559.7,-16149.9 L1570.6,-16154.4 L1585.4,-16160.9 L1601.4,-16168.4 L1610.0,-16172.6 L1620.8,-16178.1 L1630.9,-16183.7 L1641.0,-16189.7 L1651.3,-16196.4 L1654.5,-16198.6 L1675.2,-16214.4 L1692.6,-16227.8 L1709.6,-16242.2 L1725.5,-16257.2 L1737.0,-16270.1 L1748.4,-16284.0 L1762.4,-16302.0 L1775.2,-16320.0 L1789.9,-16343.1 L1799.5,-16361.0 L1805.5,-16372.4 L1814.4,-16391.7 L1821.9,-16409.6 L1828.6,-16428.9 L1834.0,-16445.8 L1839.9,-16473.2 L1844.2,-16497.7 L1846.5,-16518.7 L1848.5,-16543.5 L1848.7,-16570.0 L1847.1,-16594.5 L1842.9,-16626.5 L1838.5,-16648.3 L1833.5,-16668.9 L1826.1,-16692.3 L1819.8,-16710.2 L1812.6,-16729.7 L1805.8,-16745.9 L1801.2,-16756.4 L1799.3,-16764.1 L1799.0,-16770.0 L1799.6,-16775.3 L1801.7,-16779.9 L1804.9,-16783.8 L1809.1,-16786.0 L1813.6,-16786.6 L1825.7,-16783.7 L1859.4,-16775.6 L1870.6,-17030.3 L1914.3,-17484.9 L1866.8,-17496.1 L1861.6,-17510.4 L1861.8,-17530.9 L1868.4,-17577.4 L1877.4,-17587.9 L1885.4,-17618.1 L1935.9,-17606.4 L1963.7,-17896.9 L1971.4,-17977.3 L1955.7,-17981.2 L1965.2,-18019.6 L1932.9,-18027.3 L1937.0,-18050.8 L1942.7,-18066.3 L1949.8,-18084.4 L1961.8,-18109.7 L1974.7,-18106.8 L1992.1,-18289.5 L1996.2,-18400.3 L1997.0,-18420.7 L2006.4,-18491.2 L2025.1,-18666.9 L2149.9,-18992.3 L2178.4,-19081.0 L2525.1,-19214.0 L2559.0,-19227.6 L2564.9,-19230.8 L2569.5,-19235.0 L2574.6,-19240.9 L2578.5,-19247.8 L2581.1,-19254.6 L2581.7,-19264.5 L2581.2,-19276.8 L2576.6,-19432.3 L2574.9,-19462.4 L2574.4,-19483.1 L2573.7,-19523.3 L2572.9,-19535.9 L2571.4,-19546.5 L2569.3,-19555.9 L2566.2,-19565.5 L2561.3,-19576.8 L2554.1,-19588.9 L2547.1,-19598.5 L2541.7,-19607.6 L2536.2,-19619.7 L2531.6,-19631.3 L2529.8,-19640.8 L2528.4,-19651.3 L2527.7,-19661.8 L2528.0,-19672.0 L2529.2,-19683.9 L2532.0,-19695.6 L2535.7,-19706.0 L2539.6,-19715.5 L2544.6,-19724.7 L2550.7,-19735.9 L2554.7,-19746.0 L2558.2,-19758.9 L2564.6,-19768.7 L2562.4,-19857.9 L2559.1,-19863.1 L2558.1,-19923.7 L2556.4,-19995.2 L2557.6,-20005.1 L2560.8,-20015.2 L2568.8,-20031.0 L2622.3,-20146.1 L2623.4,-20148.0 L2632.8,-20168.5 L2641.7,-20187.9 L2651.7,-20207.9 L2661.5,-20228.5 L2666.3,-20238.5 L2718.9,-20346.4 L2775.1,-20465.6 L2896.7,-20712.4 L2823.6,-20794.3 L2764.0,-20667.3 L2712.5,-20557.4 L2704.7,-20541.8 L2688.8,-20509.3 L2657.0,-20512.0 L2648.3,-20512.5 L2645.2,-20509.7 L2649.4,-20505.9 L2633.1,-20491.4 L2620.2,-20479.5 L2617.8,-20428.6 L2613.0,-20418.4 L2597.4,-20419.0 L2594.8,-20419.9 L2390.4,-20504.3 L2386.0,-20506.6 L2381.3,-20509.6 L2373.9,-20515.2 L2368.2,-20520.6 L2363.4,-20525.8 L2358.7,-20532.2 L2355.1,-20537.8 L2352.3,-20543.6 L2350.1,-20549.7 L2348.6,-20553.9 L2347.5,-20559.0 L2346.7,-20565.0 L2345.9,-20573.2 L2345.9,-20584.9 L2344.5,-20624.6 L2350.1,-20624.9 L2349.3,-20645.9 L2348.4,-20680.5 L2353.6,-20680.6 L2353.2,-20704.2 L2347.3,-20704.1 L2344.6,-20803.5 L2350.2,-20803.8 L2349.3,-20827.1 L2343.9,-20826.9 L2341.6,-20900.4 L2368.6,-20929.5 L2403.1,-20930.7 L2428.8,-20931.6 L2462.7,-20932.7 L2495.3,-20933.7 L2524.5,-20934.7 L2537.2,-20935.3 L2536.6,-20946.6 L2536.4,-20958.4 L2534.5,-20996.7 L2533.8,-21069.8 L2532.8,-21071.1 L2532.6,-21078.3 L2534.7,-21078.4 L2529.6,-21254.5 L2525.2,-21420.2 L2524.5,-21425.4 L2524.1,-21435.0 L2451.9,-21432.4 L2403.9,-21436.5 L2044.6,-21424.0 L2044.5,-21427.2 L2043.8,-21442.5 L1873.4,-21436.5 L1873.1,-21464.8 L1850.6,-21469.9 L1846.6,-21591.0 L2509.4,-21614.0 L2520.4,-21629.1 L2520.0,-21672.1 L2519.2,-21709.3 L2518.6,-21732.6 L2517.7,-21755.3 L2465.0,-21780.1 L2462.9,-21835.2 L2516.9,-21862.0 L2512.0,-21989.5 L2510.6,-21995.8 L2456.9,-22020.9 L2455.2,-22089.1 L2506.2,-22115.4 L2483.5,-22392.3 L2489.5,-22515.5 L2492.5,-22716.4 L2492.3,-22934.9 L2497.1,-22965.5 L2497.4,-22980.3 L2492.6,-22998.1 L2497.6,-22998.1 L2497.6,-23014.2 L2500.6,-23425.2 L2500.1,-23443.5 L2494.4,-23443.5 L2494.6,-23519.1 L2491.3,-23523.8 L2486.1,-23601.8 L2496.4,-23673.1 L2495.1,-23759.4 L2491.6,-23780.1 L2496.9,-23844.0 L2493.3,-23921.3 L2484.3,-24004.0 L2467.2,-24138.0 L2475.3,-24174.9 L2471.7,-24210.8 L2441.1,-24236.9 L2396.2,-24236.5 L2327.8,-24227.5 L2283.3,-24227.5 L2242.9,-24242.3 L2189.8,-24278.7 L2189.8,-24344.0 L2188.4,-24424.3 L2193.6,-24491.2 L2211.2,-24543.4 L2505.9,-24548.9 L2512.7,-24966.8 L2512.7,-25568.4 L2509.6,-25786.7 L18421.8,-32358.4 L18421.8,3859.8 L-1290.7,3859.8 L-1290.7,-14125.7 Z" fill="#add7e1" stroke="none"><title>Biscayne Bay</title></path><path d="M-1.0,-1.0 L257.0,-1.0 L257.0,257.0 L-1.0,257.0 L-1.0,-1.0 Z" fill="#add7e1" stroke="none" fill-rule="evenodd"><title>Biscayne Bay</title></path><path d="M-9353.9,-6482.8 L-5439.2,-6069.1 L-592.4,-4207.1 L2763.0,-1724.7 L3881.5,2618.9 L1644.5,3859.8 L-8794.6,3859.8 L-11031.6,-1517.8 Z" fill="#add7e1" stroke="none"><title>Biscayne Bay</title></path><path d="M2900.6,-11839.6 L-209.0,1532.9" fill="none" stroke="#6fb5c7" stroke-width="1.7" stroke-dasharray="5 7" opacity="0.34" stroke-linecap="round" stroke-linejoin="round"><title>Atlantic Intracoastal Waterway</title></path></svg>