<svg xmlns="http://www.w3.org/2000/svg" width="256" height="256" viewBox="0 0 256 256"><rect width="256" height="256" fill="#f1efe7"/><path d="M-10.7,-12845.7 L204.1,-12935.0 L271.3,-12967.3 L571.8,-13111.6 L628.2,-13057.0 L633.1,-13052.3 L738.5,-13142.5 L763.6,-13161.6 L805.5,-13199.4 L1041.6,-13416.2 L1232.1,-13633.8 L1239.4,-13647.7 L1246.4,-13655.6 L1257.5,-13668.3 L1268.8,-13681.2 L1273.4,-13686.5 L1198.3,-13783.6 L1297.7,-13843.2 L1351.6,-13771.5 L1427.8,-13858.7 L1363.3,-13944.1 L1443.2,-14027.4 L1504.7,-13946.4 L1575.3,-14026.8 L1605.4,-14046.5 L1752.6,-14142.0 L1825.3,-14190.3 L1912.9,-14247.9 L1954.3,-14275.1 L2059.2,-14342.8 L2032.2,-14378.3 L1983.9,-14443.0 L2108.8,-14522.4 L2154.3,-14545.9 L2157.8,-14548.4 L2181.8,-14566.9 L2267.4,-14612.7 L2273.3,-14621.9 L2297.3,-14638.4 L2310.3,-14657.4 L2314.0,-14660.2 L2334.9,-14668.3 L2382.1,-14685.2 L2414.4,-14699.4 L2528.5,-14753.0 L2529.9,-14749.3 L2625.6,-14790.2 L2664.7,-14740.1 L2751.8,-14798.2 L2764.2,-14806.7 L2765.4,-14807.7 L2766.6,-14809.3 L2768.5,-14812.6 L2769.5,-14815.7 L2770.1,-14819.4 L2770.0,-14822.4 L2769.6,-14825.3 L2769.2,-14828.6 L2769.1,-14831.1 L2769.3,-14833.2 L2769.7,-14835.4 L2771.3,-14839.4 L2772.4,-14841.6 L2774.9,-14845.4 L2777.5,-14848.2 L2790.2,-14853.3 L2800.8,-14857.3 L2814.3,-14861.7 L2820.6,-14863.4 L2831.8,-14867.1 L2839.7,-14869.9 L2850.6,-14874.4 L2865.4,-14880.9 L2881.4,-14888.4 L2890.0,-14892.6 L2900.8,-14898.1 L2910.9,-14903.7 L2921.0,-14909.7 L2931.3,-14916.4 L2934.5,-14918.6 L2955.2,-14934.4 L2972.6,-14947.8 L2989.6,-14962.2 L3005.5,-14977.2 L3017.0,-14990.1 L3028.4,-15004.0 L3042.4,-15022.0 L3055.2,-15040.0 L3069.9,-15063.1 L3079.5,-15081.0 L3085.5,-15092.4 L3094.4,-15111.7 L3101.9,-15129.6 L3108.6,-15148.9 L3114.0,-15165.8 L3119.9,-15193.2 L3124.2,-15217.7 L3126.5,-15238.7 L3128.5,-15263.5 L3128.7,-15290.0 L3127.1,-15314.5 L3122.9,-15346.5 L3118.5,-15368.3 L3113.5,-15388.9 L3106.1,-15412.3 L3099.8,-15430.2 L3092.6,-15449.7 L3085.8,-15465.9 L3081.2,-15476.4 L3079.3,-15484.1 L3079.0,-15490.0 L3079.6,-15495.3 L3081.7,-15499.9 L3084.9,-15503.8 L3089.1,-15506.0 L3093.6,-15506.6 L3105.7,-15503.7 L3139.4,-15495.6 L3150.6,-15750.3 L3194.3,-16204.9 L3146.8,-16216.1 L3141.6,-16230.4 L3141.8,-16250.9 L3148.4,-16297.4 L3157.4,-16307.9 L3165.4,-16338.1 L3215.9,-16326.4 L3243.7,-16616.9 L3251.4,-16697.3 L3235.7,-16701.2 L3245.2,-16739.6 L3212.9,-16747.3 L3217.0,-16770.8 L3222.7,-16786.3 L3229.8,-16804.4 L3241.8,-16829.7 L3254.7,-16826.8 L3272.1,-17009.5 L3276.2,-17120.3 L3277.0,-17140.7 L3286.4,-17211.2 L3305.1,-17386.9 L3429.9,-17712.3 L3458.4,-17801.0 L3805.1,-17934.0 L3839.0,-17947.6 L3844.9,-17950.8 L3849.5,-17955.0 L3854.6,-17960.9 L3858.5,-17967.8 L3861.1,-17974.6 L3861.7,-17984.5 L3861.2,-17996.8 L3856.6,-18152.3 L3854.9,-18182.4 L3854.4,-18203.1 L3853.7,-18243.3 L3852.9,-18255.9 L3851.4,-18266.5 L3849.3,-18275.9 L3846.2,-18285.5 L3841.3,-18296.8 L3834.1,-18308.9 L3827.1,-18318.5 L3821.7,-18327.6 L3816.2,-18339.7 L3811.6,-18351.3 L3809.8,-18360.8 L3808.4,-18371.3 L3807.7,-18381.8 L3808.0,-18392.0 L3809.2,-18403.9 L3812.0,-18415.6 L3815.7,-18426.0 L3819.6,-18435.5 L3824.6,-18444.7 L3830.7,-18455.9 L3834.7,-18466.0 L3838.2,-18478.9 L3844.6,-18488.7 L3842.4,-18577.9 L3839.1,-18583.1 L3838.1,-18643.7 L3836.4,-18715.2 L3837.6,-18725.1 L3840.8,-18735.2 L3848.8,-18751.0 L3902.3,-18866.1 L3903.4,-18868.0 L3912.8,-18888.5 L3921.7,-18907.9 L3931.7,-18927.9 L3941.5,-18948.5 L3946.3,-18958.5 L3998.9,-19066.4 L4055.1,-19185.6 L4176.7,-19432.4 L4103.6,-19514.3 L4044.0,-19387.3 L3992.5,-19277.4 L3984.7,-19261.8 L3968.8,-19229.3 L3937.0,-19232.0 L3928.3,-19232.5 L3925.2,-19229.7 L3929.4,-19225.9 L3913.1,-19211.4 L3900.2,-19199.5 L3897.8,-19148.6 L3893.0,-19138.4 L3877.4,-19139.0 L3874.8,-19139.9 L3670.4,-19224.3 L3666.0,-19226.6 L3661.3,-19229.6 L3653.9,-19235.2 L3648.2,-19240.6 L3643.4,-19245.8 L3638.7,-19252.2 L3635.1,-19257.8 L3632.3,-19263.6 L3630.1,-19269.7 L3628.6,-19273.9 L3627.5,-19279.0 L3626.7,-19285.0 L3625.9,-19293.2 L3625.9,-19304.9 L3624.5,-19344.6 L3630.1,-19344.9 L3629.3,-19365.9 L3628.4,-19400.5 L3633.6,-19400.6 L3633.2,-19424.2 L3627.3,-19424.1 L3624.6,-19523.5 L3630.2,-19523.8 L3629.3,-19547.1 L3623.9,-19546.9 L3621.6,-19620.4 L3648.6,-19649.5 L3683.1,-19650.7 L3708.8,-19651.6 L3742.7,-19652.7 L3775.3,-19653.7 L3804.5,-19654.7 L3817.2,-19655.3 L3816.6,-19666.6 L3816.4,-19678.4 L3814.5,-19716.7 L3813.8,-19789.8 L3812.8,-19791.1 L3812.6,-19798.3 L3814.7,-19798.4 L3809.6,-19974.5 L3805.2,-20140.2 L3804.5,-20145.4 L3804.1,-20155.0 L3731.9,-20152.4 L3683.9,-20156.5 L3324.6,-20144.0 L3324.5,-20147.2 L3323.8,-20162.5 L3153.4,-20156.5 L3153.1,-20184.8 L3130.6,-20189.9 L3126.6,-20311.0 L3789.4,-20334.0 L3800.4,-20349.1 L3800.0,-20392.1 L3799.2,-20429.3 L3798.6,-20452.6 L3797.7,-20475.3 L3745.0,-20500.1 L3742.9,-20555.2 L3796.9,-20582.0 L3792.0,-20709.5 L3790.6,-20715.8 L3736.9,-20740.9 L3735.2,-20809.1 L3786.2,-20835.4 L3763.5,-21112.3 L3769.5,-21235.5 L3772.5,-21436.4 L3772.3,-21654.9 L3777.1,-21685.5 L3777.4,-21700.3 L3772.6,-21718.1 L3777.6,-21718.1 L3777.6,-21734.2 L3780.6,-22145.2 L3780.1,-22163.5 L3774.4,-22163.5 L3774.6,-22239.1 L3771.3,-22243.8 L3766.1,-22321.8 L3776.4,-22393.1 L3775.1,-22479.4 L3771.6,-22500.1 L3776.9,-22564.0 L3773.3,-22641.3 L3764.3,-22724.0 L3747.2,-22858.0 L3755.3,-22894.9 L3751.7,-22930.8 L3721.1,-22956.9 L3676.2,-22956.5 L3607.8,-22947.5 L3563.3,-22947.5 L3522.9,-22962.3 L3469.8,-22998.7 L3469.8,-23064.0 L3468.4,-23144.3 L3473.6,-23211.2 L3491.2,-23263.4 L3785.9,-23268.9 L3792.7,-23686.8 L3792.7,-24288.4 L3789.6,-24506.7 L19701.8,-31078.4 L19701.8,5139.8 L-10.7,5139.8 L-10.7,-12845.7 Z" fill="#add7e1" stroke="none"><title>Biscayne Bay</title></path><path d="M-1.0,-1.0 L257.0,-1.0 L257.0,257.0 L-1.0,257.0 L-1.0,-1.0 Z" fill="#add7e1" stroke="none" fill-rule="evenodd"><title>Biscayne Bay</title></path><path d="M-8073.9,-5202.8 L-4159.2,-4789.1 L687.6,-2927.1 L4043.0,-444.7 L5161.5,3898.9 L2924.5,5139.8 L-7514.6,5139.8 L-9751.6,-237.8 Z" fill="#add7e1" stroke="none"><title>Biscayne Bay</title></path></svg>