<svg xmlns="http://www.w3.org/2000/svg" width="256" height="256" viewBox="0 0 256 256"><rect width="256" height="256" fill="#f1efe7"/><path d="M-18698.7,-6189.7 L-18483.9,-6279.0 L-18416.7,-6311.3 L-18116.2,-6455.6 L-18059.8,-6401.0 L-18054.9,-6396.3 L-17949.5,-6486.5 L-17924.4,-6505.6 L-17882.5,-6543.4 L-17646.4,-6760.2 L-17455.9,-6977.8 L-17448.6,-6991.7 L-17441.6,-6999.6 L-17430.5,-7012.3 L-17419.2,-7025.2 L-17414.6,-7030.5 L-17489.7,-7127.6 L-17390.3,-7187.2 L-17336.4,-7115.5 L-17260.2,-7202.7 L-17324.7,-7288.1 L-17244.8,-7371.4 L-17183.3,-7290.4 L-17112.7,-7370.8 L-17082.6,-7390.5 L-16935.4,-7486.0 L-16862.7,-7534.3 L-16775.1,-7591.9 L-16733.7,-7619.1 L-16628.8,-7686.8 L-16655.8,-7722.3 L-16704.1,-7787.0 L-16579.2,-7866.4 L-16533.7,-7889.9 L-16530.2,-7892.4 L-16506.2,-7910.9 L-16420.6,-7956.7 L-16414.7,-7965.9 L-16390.7,-7982.4 L-16377.7,-8001.4 L-16374.0,-8004.2 L-16353.1,-8012.3 L-16305.9,-8029.2 L-16273.6,-8043.4 L-16159.5,-8097.0 L-16158.1,-8093.3 L-16062.4,-8134.2 L-16023.3,-8084.1 L-15936.2,-8142.2 L-15923.8,-8150.7 L-15922.6,-8151.7 L-15921.4,-8153.3 L-15919.5,-8156.6 L-15918.5,-8159.7 L-15917.9,-8163.4 L-15918.0,-8166.4 L-15918.4,-8169.3 L-15918.8,-8172.6 L-15918.9,-8175.1 L-15918.7,-8177.2 L-15918.3,-8179.4 L-15916.7,-8183.4 L-15915.6,-8185.6 L-15913.1,-8189.4 L-15910.5,-8192.2 L-15897.8,-8197.3 L-15887.2,-8201.3 L-15873.7,-8205.7 L-15867.4,-8207.4 L-15856.2,-8211.1 L-15848.3,-8213.9 L-15837.4,-8218.4 L-15822.6,-8224.9 L-15806.6,-8232.4 L-15798.0,-8236.6 L-15787.2,-8242.1 L-15777.1,-8247.7 L-15767.0,-8253.7 L-15756.7,-8260.4 L-15753.5,-8262.6 L-15732.8,-8278.4 L-15715.4,-8291.8 L-15698.4,-8306.2 L-15682.5,-8321.2 L-15671.0,-8334.1 L-15659.6,-8348.0 L-15645.6,-8366.0 L-15632.8,-8384.0 L-15618.1,-8407.1 L-15608.5,-8425.0 L-15602.5,-8436.4 L-15593.6,-8455.7 L-15586.1,-8473.6 L-15579.4,-8492.9 L-15574.0,-8509.8 L-15568.1,-8537.2 L-15563.8,-8561.7 L-15561.5,-8582.7 L-15559.5,-8607.5 L-15559.3,-8634.0 L-15560.9,-8658.5 L-15565.1,-8690.5 L-15569.5,-8712.3 L-15574.5,-8732.9 L-15581.9,-8756.3 L-15588.2,-8774.2 L-15595.4,-8793.7 L-15602.2,-8809.9 L-15606.8,-8820.4 L-15608.7,-8828.1 L-15609.0,-8834.0 L-15608.4,-8839.3 L-15606.3,-8843.9 L-15603.1,-8847.8 L-15598.9,-8850.0 L-15594.4,-8850.6 L-15582.3,-8847.7 L-15548.6,-8839.6 L-15537.4,-9094.3 L-15493.7,-9548.9 L-15541.2,-9560.1 L-15546.4,-9574.4 L-15546.2,-9594.9 L-15539.6,-9641.4 L-15530.6,-9651.9 L-15522.6,-9682.1 L-15472.1,-9670.4 L-15444.3,-9960.9 L-15436.6,-10041.3 L-15452.3,-10045.2 L-15442.8,-10083.6 L-15475.1,-10091.3 L-15471.0,-10114.8 L-15465.3,-10130.3 L-15458.2,-10148.4 L-15446.2,-10173.7 L-15433.3,-10170.8 L-15415.9,-10353.5 L-15411.8,-10464.3 L-15411.0,-10484.7 L-15401.6,-10555.2 L-15382.9,-10730.9 L-15258.1,-11056.3 L-15229.6,-11145.0 L-14882.9,-11278.0 L-14849.0,-11291.6 L-14843.1,-11294.8 L-14838.5,-11299.0 L-14833.4,-11304.9 L-14829.5,-11311.8 L-14826.9,-11318.6 L-14826.3,-11328.5 L-14826.8,-11340.8 L-14831.4,-11496.3 L-14833.1,-11526.4 L-14833.6,-11547.1 L-14834.3,-11587.3 L-14835.1,-11599.9 L-14836.6,-11610.5 L-14838.7,-11619.9 L-14841.8,-11629.5 L-14846.7,-11640.8 L-14853.9,-11652.9 L-14860.9,-11662.5 L-14866.3,-11671.6 L-14871.8,-11683.7 L-14876.4,-11695.3 L-14878.2,-11704.8 L-14879.6,-11715.3 L-14880.3,-11725.8 L-14880.0,-11736.0 L-14878.8,-11747.9 L-14876.0,-11759.6 L-14872.3,-11770.0 L-14868.4,-11779.5 L-14863.4,-11788.7 L-14857.3,-11799.9 L-14853.3,-11810.0 L-14849.8,-11822.9 L-14843.4,-11832.7 L-14845.6,-11921.9 L-14848.9,-11927.1 L-14849.9,-11987.7 L-14851.6,-12059.2 L-14850.4,-12069.1 L-14847.2,-12079.2 L-14839.2,-12095.0 L-14785.7,-12210.1 L-14784.6,-12212.0 L-14775.2,-12232.5 L-14766.3,-12251.9 L-14756.3,-12271.9 L-14746.5,-12292.5 L-14741.7,-12302.5 L-14689.1,-12410.4 L-14632.9,-12529.6 L-14511.3,-12776.4 L-14584.4,-12858.3 L-14644.0,-12731.3 L-14695.5,-12621.4 L-14703.3,-12605.8 L-14719.2,-12573.3 L-14751.0,-12576.0 L-14759.7,-12576.5 L-14762.8,-12573.7 L-14758.6,-12569.9 L-14774.9,-12555.4 L-14787.8,-12543.5 L-14790.2,-12492.6 L-14795.0,-12482.4 L-14810.6,-12483.0 L-14813.2,-12483.9 L-15017.6,-12568.3 L-15022.0,-12570.6 L-15026.7,-12573.6 L-15034.1,-12579.2 L-15039.8,-12584.6 L-15044.6,-12589.8 L-15049.3,-12596.2 L-15052.9,-12601.8 L-15055.7,-12607.6 L-15057.9,-12613.7 L-15059.4,-12617.9 L-15060.5,-12623.0 L-15061.3,-12629.0 L-15062.1,-12637.2 L-15062.1,-12648.9 L-15063.5,-12688.6 L-15057.9,-12688.9 L-15058.7,-12709.9 L-15059.6,-12744.5 L-15054.4,-12744.6 L-15054.8,-12768.2 L-15060.7,-12768.1 L-15063.4,-12867.5 L-15057.8,-12867.8 L-15058.7,-12891.1 L-15064.1,-12890.9 L-15066.4,-12964.4 L-15039.4,-12993.5 L-15004.9,-12994.7 L-14979.2,-12995.6 L-14945.3,-12996.7 L-14912.7,-12997.7 L-14883.5,-12998.7 L-14870.8,-12999.3 L-14871.4,-13010.6 L-14871.6,-13022.4 L-14873.5,-13060.7 L-14874.2,-13133.8 L-14875.2,-13135.1 L-14875.4,-13142.3 L-14873.3,-13142.4 L-14878.4,-13318.5 L-14882.8,-13484.2 L-14883.5,-13489.4 L-14883.9,-13499.0 L-14956.1,-13496.4 L-15004.1,-13500.5 L-15363.4,-13488.0 L-15363.5,-13491.2 L-15364.2,-13506.5 L-15534.6,-13500.5 L-15534.9,-13528.8 L-15557.4,-13533.9 L-15561.4,-13655.0 L-14898.6,-13678.0 L-14887.6,-13693.1 L-14888.0,-13736.1 L-14888.8,-13773.3 L-14889.4,-13796.6 L-14890.3,-13819.3 L-14943.0,-13844.1 L-14945.1,-13899.2 L-14891.1,-13926.0 L-14896.0,-14053.5 L-14897.4,-14059.8 L-14951.1,-14084.9 L-14952.8,-14153.1 L-14901.8,-14179.4 L-14924.5,-14456.3 L-14918.5,-14579.5 L-14915.5,-14780.4 L-14915.7,-14998.9 L-14910.9,-15029.5 L-14910.6,-15044.3 L-14915.4,-15062.1 L-14910.4,-15062.1 L-14910.4,-15078.2 L-14907.4,-15489.2 L-14907.9,-15507.5 L-14913.6,-15507.5 L-14913.4,-15583.1 L-14916.7,-15587.8 L-14921.9,-15665.8 L-14911.6,-15737.1 L-14912.9,-15823.4 L-14916.4,-15844.1 L-14911.1,-15908.0 L-14914.7,-15985.3 L-14923.7,-16068.0 L-14940.8,-16202.0 L-14932.7,-16238.9 L-14936.3,-16274.8 L-14966.9,-16300.9 L-15011.8,-16300.5 L-15080.2,-16291.5 L-15124.7,-16291.5 L-15165.1,-16306.3 L-15218.2,-16342.7 L-15218.2,-16408.0 L-15219.6,-16488.3 L-15214.4,-16555.2 L-15196.8,-16607.4 L-14902.1,-16612.9 L-14895.3,-17030.8 L-14895.3,-17632.4 L-14898.4,-17850.7 L1013.8,-24422.4 L1013.8,11795.8 L-18698.7,11795.8 L-18698.7,-6189.7 Z" fill="#add7e1" stroke="none"><title>Biscayne Bay</title></path><path d="M-1.0,-1.0 L257.0,-1.0 L257.0,257.0 L-1.0,257.0 L-1.0,-1.0 Z" fill="#add7e1" stroke="none" fill-rule="evenodd"><title>Biscayne Bay</title></path></svg>