<svg xmlns="http://www.w3.org/2000/svg" width="256" height="256" viewBox="0 0 256 256"><rect width="256" height="256" fill="#f1efe7"/><path d="M-18698.7,-3629.7 L-18483.9,-3719.0 L-18416.7,-3751.3 L-18116.2,-3895.6 L-18059.8,-3841.0 L-18054.9,-3836.3 L-17949.5,-3926.5 L-17924.4,-3945.6 L-17882.5,-3983.4 L-17646.4,-4200.2 L-17455.9,-4417.8 L-17448.6,-4431.7 L-17441.6,-4439.6 L-17430.5,-4452.3 L-17419.2,-4465.2 L-17414.6,-4470.5 L-17489.7,-4567.6 L-17390.3,-4627.2 L-17336.4,-4555.5 L-17260.2,-4642.7 L-17324.7,-4728.1 L-17244.8,-4811.4 L-17183.3,-4730.4 L-17112.7,-4810.8 L-17082.6,-4830.5 L-16935.4,-4926.0 L-16862.7,-4974.3 L-16775.1,-5031.9 L-16733.7,-5059.1 L-16628.8,-5126.8 L-16655.8,-5162.3 L-16704.1,-5227.0 L-16579.2,-5306.4 L-16533.7,-5329.9 L-16530.2,-5332.4 L-16506.2,-5350.9 L-16420.6,-5396.7 L-16414.7,-5405.9 L-16390.7,-5422.4 L-16377.7,-5441.4 L-16374.0,-5444.2 L-16353.1,-5452.3 L-16305.9,-5469.2 L-16273.6,-5483.4 L-16159.5,-5537.0 L-16158.1,-5533.3 L-16062.4,-5574.2 L-16023.3,-5524.1 L-15936.2,-5582.2 L-15923.8,-5590.7 L-15922.6,-5591.7 L-15921.4,-5593.3 L-15919.5,-5596.6 L-15918.5,-5599.7 L-15917.9,-5603.4 L-15918.0,-5606.4 L-15918.4,-5609.3 L-15918.8,-5612.6 L-15918.9,-5615.1 L-15918.7,-5617.2 L-15918.3,-5619.4 L-15916.7,-5623.4 L-15915.6,-5625.6 L-15913.1,-5629.4 L-15910.5,-5632.2 L-15897.8,-5637.3 L-15887.2,-5641.3 L-15873.7,-5645.7 L-15867.4,-5647.4 L-15856.2,-5651.1 L-15848.3,-5653.9 L-15837.4,-5658.4 L-15822.6,-5664.9 L-15806.6,-5672.4 L-15798.0,-5676.6 L-15787.2,-5682.1 L-15777.1,-5687.7 L-15767.0,-5693.7 L-15756.7,-5700.4 L-15753.5,-5702.6 L-15732.8,-5718.4 L-15715.4,-5731.8 L-15698.4,-5746.2 L-15682.5,-5761.2 L-15671.0,-5774.1 L-15659.6,-5788.0 L-15645.6,-5806.0 L-15632.8,-5824.0 L-15618.1,-5847.1 L-15608.5,-5865.0 L-15602.5,-5876.4 L-15593.6,-5895.7 L-15586.1,-5913.6 L-15579.4,-5932.9 L-15574.0,-5949.8 L-15568.1,-5977.2 L-15563.8,-6001.7 L-15561.5,-6022.7 L-15559.5,-6047.5 L-15559.3,-6074.0 L-15560.9,-6098.5 L-15565.1,-6130.5 L-15569.5,-6152.3 L-15574.5,-6172.9 L-15581.9,-6196.3 L-15588.2,-6214.2 L-15595.4,-6233.7 L-15602.2,-6249.9 L-15606.8,-6260.4 L-15608.7,-6268.1 L-15609.0,-6274.0 L-15608.4,-6279.3 L-15606.3,-6283.9 L-15603.1,-6287.8 L-15598.9,-6290.0 L-15594.4,-6290.6 L-15582.3,-6287.7 L-15548.6,-6279.6 L-15537.4,-6534.3 L-15493.7,-6988.9 L-15541.2,-7000.1 L-15546.4,-7014.4 L-15546.2,-7034.9 L-15539.6,-7081.4 L-15530.6,-7091.9 L-15522.6,-7122.1 L-15472.1,-7110.4 L-15444.3,-7400.9 L-15436.6,-7481.3 L-15452.3,-7485.2 L-15442.8,-7523.6 L-15475.1,-7531.3 L-15471.0,-7554.8 L-15465.3,-7570.3 L-15458.2,-7588.4 L-15446.2,-7613.7 L-15433.3,-7610.8 L-15415.9,-7793.5 L-15411.8,-7904.3 L-15411.0,-7924.7 L-15401.6,-7995.2 L-15382.9,-8170.9 L-15258.1,-8496.3 L-15229.6,-8585.0 L-14882.9,-8718.0 L-14849.0,-8731.6 L-14843.1,-8734.8 L-14838.5,-8739.0 L-14833.4,-8744.9 L-14829.5,-8751.8 L-14826.9,-8758.6 L-14826.3,-8768.5 L-14826.8,-8780.8 L-14831.4,-8936.3 L-14833.1,-8966.4 L-14833.6,-8987.1 L-14834.3,-9027.3 L-14835.1,-9039.9 L-14836.6,-9050.5 L-14838.7,-9059.9 L-14841.8,-9069.5 L-14846.7,-9080.8 L-14853.9,-9092.9 L-14860.9,-9102.5 L-14866.3,-9111.6 L-14871.8,-9123.7 L-14876.4,-9135.3 L-14878.2,-9144.8 L-14879.6,-9155.3 L-14880.3,-9165.8 L-14880.0,-9176.0 L-14878.8,-9187.9 L-14876.0,-9199.6 L-14872.3,-9210.0 L-14868.4,-9219.5 L-14863.4,-9228.7 L-14857.3,-9239.9 L-14853.3,-9250.0 L-14849.8,-9262.9 L-14843.4,-9272.7 L-14845.6,-9361.9 L-14848.9,-9367.1 L-14849.9,-9427.7 L-14851.6,-9499.2 L-14850.4,-9509.1 L-14847.2,-9519.2 L-14839.2,-9535.0 L-14785.7,-9650.1 L-14784.6,-9652.0 L-14775.2,-9672.5 L-14766.3,-9691.9 L-14756.3,-9711.9 L-14746.5,-9732.5 L-14741.7,-9742.5 L-14689.1,-9850.4 L-14632.9,-9969.6 L-14511.3,-10216.4 L-14584.4,-10298.3 L-14644.0,-10171.3 L-14695.5,-10061.4 L-14703.3,-10045.8 L-14719.2,-10013.3 L-14751.0,-10016.0 L-14759.7,-10016.5 L-14762.8,-10013.7 L-14758.6,-10009.9 L-14774.9,-9995.4 L-14787.8,-9983.5 L-14790.2,-9932.6 L-14795.0,-9922.4 L-14810.6,-9923.0 L-14813.2,-9923.9 L-15017.6,-10008.3 L-15022.0,-10010.6 L-15026.7,-10013.6 L-15034.1,-10019.2 L-15039.8,-10024.6 L-15044.6,-10029.8 L-15049.3,-10036.2 L-15052.9,-10041.8 L-15055.7,-10047.6 L-15057.9,-10053.7 L-15059.4,-10057.9 L-15060.5,-10063.0 L-15061.3,-10069.0 L-15062.1,-10077.2 L-15062.1,-10088.9 L-15063.5,-10128.6 L-15057.9,-10128.9 L-15058.7,-10149.9 L-15059.6,-10184.5 L-15054.4,-10184.6 L-15054.8,-10208.2 L-15060.7,-10208.1 L-15063.4,-10307.5 L-15057.8,-10307.8 L-15058.7,-10331.1 L-15064.1,-10330.9 L-15066.4,-10404.4 L-15039.4,-10433.5 L-15004.9,-10434.7 L-14979.2,-10435.6 L-14945.3,-10436.7 L-14912.7,-10437.7 L-14883.5,-10438.7 L-14870.8,-10439.3 L-14871.4,-10450.6 L-14871.6,-10462.4 L-14873.5,-10500.7 L-14874.2,-10573.8 L-14875.2,-10575.1 L-14875.4,-10582.3 L-14873.3,-10582.4 L-14878.4,-10758.5 L-14882.8,-10924.2 L-14883.5,-10929.4 L-14883.9,-10939.0 L-14956.1,-10936.4 L-15004.1,-10940.5 L-15363.4,-10928.0 L-15363.5,-10931.2 L-15364.2,-10946.5 L-15534.6,-10940.5 L-15534.9,-10968.8 L-15557.4,-10973.9 L-15561.4,-11095.0 L-14898.6,-11118.0 L-14887.6,-11133.1 L-14888.0,-11176.1 L-14888.8,-11213.3 L-14889.4,-11236.6 L-14890.3,-11259.3 L-14943.0,-11284.1 L-14945.1,-11339.2 L-14891.1,-11366.0 L-14896.0,-11493.5 L-14897.4,-11499.8 L-14951.1,-11524.9 L-14952.8,-11593.1 L-14901.8,-11619.4 L-14924.5,-11896.3 L-14918.5,-12019.5 L-14915.5,-12220.4 L-14915.7,-12438.9 L-14910.9,-12469.5 L-14910.6,-12484.3 L-14915.4,-12502.1 L-14910.4,-12502.1 L-14910.4,-12518.2 L-14907.4,-12929.2 L-14907.9,-12947.5 L-14913.6,-12947.5 L-14913.4,-13023.1 L-14916.7,-13027.8 L-14921.9,-13105.8 L-14911.6,-13177.1 L-14912.9,-13263.4 L-14916.4,-13284.1 L-14911.1,-13348.0 L-14914.7,-13425.3 L-14923.7,-13508.0 L-14940.8,-13642.0 L-14932.7,-13678.9 L-14936.3,-13714.8 L-14966.9,-13740.9 L-15011.8,-13740.5 L-15080.2,-13731.5 L-15124.7,-13731.5 L-15165.1,-13746.3 L-15218.2,-13782.7 L-15218.2,-13848.0 L-15219.6,-13928.3 L-15214.4,-13995.2 L-15196.8,-14047.4 L-14902.1,-14052.9 L-14895.3,-14470.8 L-14895.3,-15072.4 L-14898.4,-15290.7 L1013.8,-21862.4 L1013.8,14355.8 L-18698.7,14355.8 L-18698.7,-3629.7 Z" fill="#add7e1" stroke="none"><title>Biscayne Bay</title></path><path d="M-1.0,-1.0 L257.0,-1.0 L257.0,257.0 L-1.0,257.0 L-1.0,-1.0 Z" fill="#add7e1" stroke="none" fill-rule="evenodd"><title>Biscayne Bay</title></path></svg>