<svg xmlns="http://www.w3.org/2000/svg" width="256" height="256" viewBox="0 0 256 256"><defs><pattern id="park-dots" width="22" height="22" patternUnits="userSpaceOnUse"><circle cx="5" cy="5" r="2.1" fill="#63a95d" fill-opacity="0.26"/><circle cx="16" cy="7" r="1.55" fill="#76b970" fill-opacity="0.23"/><circle cx="10" cy="17" r="1.9" fill="#61a65b" fill-opacity="0.24"/><circle cx="21" cy="17" r="1.25" fill="#80c174" fill-opacity="0.18"/><circle cx="1" cy="19" r="1.2" fill="#70b46a" fill-opacity="0.17"/></pattern><pattern id="park-canopy" width="54" height="48" patternUnits="userSpaceOnUse"><circle cx="12" cy="11" r="3.6" fill="#5ea75a" fill-opacity="0.22"/><circle cx="31" cy="15" r="2.9" fill="#75ba6d" fill-opacity="0.18"/><circle cx="45" cy="31" r="3.3" fill="#67ae62" fill-opacity="0.20"/><circle cx="19" cy="39" r="2.5" fill="#83c378" fill-opacity="0.16"/></pattern></defs><rect width="256" height="256" fill="#f1efe7"/><path d="M-2058.7,6866.3 L-1843.9,6777.0 L-1776.7,6744.7 L-1476.2,6600.4 L-1419.8,6655.0 L-1414.9,6659.7 L-1309.5,6569.5 L-1284.4,6550.4 L-1242.5,6512.6 L-1006.4,6295.8 L-815.9,6078.2 L-808.6,6064.3 L-801.6,6056.4 L-790.5,6043.7 L-779.2,6030.8 L-774.6,6025.5 L-849.7,5928.4 L-750.3,5868.8 L-696.4,5940.5 L-620.2,5853.3 L-684.7,5767.9 L-604.8,5684.6 L-543.3,5765.6 L-472.7,5685.2 L-442.6,5665.5 L-295.4,5570.0 L-222.7,5521.7 L-135.1,5464.1 L-93.7,5436.9 L11.2,5369.2 L-15.8,5333.7 L-64.1,5269.0 L60.8,5189.6 L106.3,5166.1 L109.8,5163.6 L133.8,5145.1 L219.4,5099.3 L225.3,5090.1 L249.3,5073.6 L262.3,5054.6 L266.0,5051.8 L286.9,5043.7 L334.1,5026.8 L366.4,5012.6 L480.5,4959.0 L481.9,4962.7 L577.6,4921.8 L616.7,4971.9 L703.8,4913.8 L716.2,4905.3 L717.4,4904.3 L718.6,4902.7 L720.5,4899.4 L721.5,4896.3 L722.1,4892.6 L722.0,4889.6 L721.6,4886.7 L721.2,4883.4 L721.1,4880.9 L721.3,4878.8 L721.7,4876.6 L723.3,4872.6 L724.4,4870.4 L726.9,4866.6 L729.5,4863.8 L742.2,4858.7 L752.8,4854.7 L766.3,4850.3 L772.6,4848.6 L783.8,4844.9 L791.7,4842.1 L802.6,4837.6 L817.4,4831.1 L833.4,4823.6 L842.0,4819.4 L852.8,4813.9 L862.9,4808.3 L873.0,4802.3 L883.3,4795.6 L886.5,4793.4 L907.2,4777.6 L924.6,4764.2 L941.6,4749.8 L957.5,4734.8 L969.0,4721.9 L980.4,4708.0 L994.4,4690.0 L1007.2,4672.0 L1021.9,4648.9 L1031.5,4631.0 L1037.5,4619.6 L1046.4,4600.3 L1053.9,4582.4 L1060.6,4563.1 L1066.0,4546.2 L1071.9,4518.8 L1076.2,4494.3 L1078.5,4473.3 L1080.5,4448.5 L1080.7,4422.0 L1079.1,4397.5 L1074.9,4365.5 L1070.5,4343.7 L1065.5,4323.1 L1058.1,4299.7 L1051.8,4281.8 L1044.6,4262.3 L1037.8,4246.1 L1033.2,4235.6 L1031.3,4227.9 L1031.0,4222.0 L1031.6,4216.7 L1033.7,4212.1 L1036.9,4208.2 L1041.1,4206.0 L1045.6,4205.4 L1057.7,4208.3 L1091.4,4216.4 L1102.6,3961.7 L1146.3,3507.1 L1098.8,3495.9 L1093.6,3481.6 L1093.8,3461.1 L1100.4,3414.6 L1109.4,3404.1 L1117.4,3373.9 L1167.9,3385.6 L1195.7,3095.1 L1203.4,3014.7 L1187.7,3010.8 L1197.2,2972.4 L1164.9,2964.7 L1169.0,2941.2 L1174.7,2925.7 L1181.8,2907.6 L1193.8,2882.3 L1206.7,2885.2 L1224.1,2702.5 L1228.2,2591.7 L1229.0,2571.3 L1238.4,2500.8 L1257.1,2325.1 L1381.9,1999.7 L1410.4,1911.0 L1757.1,1778.0 L1791.0,1764.4 L1796.9,1761.2 L1801.5,1757.0 L1806.6,1751.1 L1810.5,1744.2 L1813.1,1737.4 L1813.7,1727.5 L1813.2,1715.2 L1808.6,1559.7 L1806.9,1529.6 L1806.4,1508.9 L1805.7,1468.7 L1804.9,1456.1 L1803.4,1445.5 L1801.3,1436.1 L1798.2,1426.5 L1793.3,1415.2 L1786.1,1403.1 L1779.1,1393.5 L1773.7,1384.4 L1768.2,1372.3 L1763.6,1360.7 L1761.8,1351.2 L1760.4,1340.7 L1759.7,1330.2 L1760.0,1320.0 L1761.2,1308.1 L1764.0,1296.4 L1767.7,1286.0 L1771.6,1276.5 L1776.6,1267.3 L1782.7,1256.1 L1786.7,1246.0 L1790.2,1233.1 L1796.6,1223.3 L1794.4,1134.1 L1791.1,1128.9 L1790.1,1068.3 L1788.4,996.8 L1789.6,986.9 L1792.8,976.8 L1800.8,961.0 L1854.3,845.9 L1855.4,844.0 L1864.8,823.5 L1873.7,804.1 L1883.7,784.1 L1893.5,763.5 L1898.3,753.5 L1950.9,645.6 L2007.1,526.4 L2128.7,279.6 L2055.6,197.7 L1996.0,324.7 L1944.5,434.6 L1936.7,450.2 L1920.8,482.7 L1889.0,480.0 L1880.3,479.5 L1877.2,482.3 L1881.4,486.1 L1865.1,500.6 L1852.2,512.5 L1849.8,563.4 L1845.0,573.6 L1829.4,573.0 L1826.8,572.1 L1622.4,487.7 L1618.0,485.4 L1613.3,482.4 L1605.9,476.8 L1600.2,471.4 L1595.4,466.2 L1590.7,459.8 L1587.1,454.2 L1584.3,448.4 L1582.1,442.3 L1580.6,438.1 L1579.5,433.0 L1578.7,427.0 L1577.9,418.8 L1577.9,407.1 L1576.5,367.4 L1582.1,367.1 L1581.3,346.1 L1580.4,311.5 L1585.6,311.4 L1585.2,287.8 L1579.3,287.9 L1576.6,188.5 L1582.2,188.2 L1581.3,164.9 L1575.9,165.1 L1573.6,91.6 L1600.6,62.5 L1635.1,61.3 L1660.8,60.4 L1694.7,59.3 L1727.3,58.3 L1756.5,57.3 L1769.2,56.7 L1768.6,45.4 L1768.4,33.6 L1766.5,-4.7 L1765.8,-77.8 L1764.8,-79.1 L1764.6,-86.3 L1766.7,-86.4 L1761.6,-262.5 L1757.2,-428.2 L1756.5,-433.4 L1756.1,-443.0 L1683.9,-440.4 L1635.9,-444.5 L1276.6,-432.0 L1276.5,-435.2 L1275.8,-450.5 L1105.4,-444.5 L1105.1,-472.8 L1082.6,-477.9 L1078.6,-599.0 L1741.4,-622.0 L1752.4,-637.1 L1752.0,-680.1 L1751.2,-717.3 L1750.6,-740.6 L1749.7,-763.3 L1697.0,-788.1 L1694.9,-843.2 L1748.9,-870.0 L1744.0,-997.5 L1742.6,-1003.8 L1688.9,-1028.9 L1687.2,-1097.1 L1738.2,-1123.4 L1715.5,-1400.3 L1721.5,-1523.5 L1724.5,-1724.4 L1724.3,-1942.9 L1729.1,-1973.5 L1729.4,-1988.3 L1724.6,-2006.1 L1729.6,-2006.1 L1729.6,-2022.2 L1732.6,-2433.2 L1732.1,-2451.5 L1726.4,-2451.5 L1726.6,-2527.1 L1723.3,-2531.8 L1718.1,-2609.8 L1728.4,-2681.1 L1727.1,-2767.4 L1723.6,-2788.1 L1728.9,-2852.0 L1725.3,-2929.3 L1716.3,-3012.0 L1699.2,-3146.0 L1707.3,-3182.9 L1703.7,-3218.8 L1673.1,-3244.9 L1628.2,-3244.5 L1559.8,-3235.5 L1515.3,-3235.5 L1474.9,-3250.3 L1421.8,-3286.7 L1421.8,-3352.0 L1420.4,-3432.3 L1425.6,-3499.2 L1443.2,-3551.4 L1737.9,-3556.9 L1744.7,-3974.8 L1744.7,-4576.4 L1741.6,-4794.7 L17653.8,-11366.4 L17653.8,24851.8 L-2058.7,24851.8 L-2058.7,6866.3 Z" fill="#add7e1" stroke="none"><title>Biscayne Bay</title></path><path d="M456.1,122.1 L190.4,131.4 L186.5,57.1 L192.1,49.8 L450.8,43.5 L454.1,47.8 L456.1,122.1 Z" fill="#ece7dc" stroke="#d7d1c5" stroke-width="0.3"></path><path d="M52.1,625.6 L49.5,543.0 L40.5,544.6 L41.8,535.3 L42.6,526.9 L43.2,514.7 L43.3,507.6 L43.0,496.7 L42.4,488.4 L41.5,480.4 L40.4,472.4 L39.2,465.6 L37.0,455.5 L24.1,455.9 L23.6,439.4 L22.3,429.7 L21.2,422.5 L35.9,422.0 L35.7,416.9 L41.7,416.5 L38.8,401.6 L37.7,394.1 L37.0,386.5 L36.5,380.0 L36.3,374.1 L36.2,364.7 L37.0,350.0 L38.6,337.0 L39.3,332.8 L30.1,333.0 L28.0,293.5 L21.5,275.5 L15.5,264.5 L39.0,260.5 L155.6,251.1 L160.5,417.6 L122.6,418.3 L109.8,418.6 L44.1,421.6 L44.8,438.9 L46.6,479.1 L106.5,488.0 L112.3,488.7 L126.6,490.5 L162.7,495.1 L166.5,623.5 L52.1,625.6 Z" fill="#dcf5d2" stroke="#9fcf91" stroke-width="0.4"></path><path d="M52.1,625.6 L49.5,543.0 L40.5,544.6 L41.8,535.3 L42.6,526.9 L43.2,514.7 L43.3,507.6 L43.0,496.7 L42.4,488.4 L41.5,480.4 L40.4,472.4 L39.2,465.6 L37.0,455.5 L24.1,455.9 L23.6,439.4 L22.3,429.7 L21.2,422.5 L35.9,422.0 L35.7,416.9 L41.7,416.5 L38.8,401.6 L37.7,394.1 L37.0,386.5 L36.5,380.0 L36.3,374.1 L36.2,364.7 L37.0,350.0 L38.6,337.0 L39.3,332.8 L30.1,333.0 L28.0,293.5 L21.5,275.5 L15.5,264.5 L39.0,260.5 L155.6,251.1 L160.5,417.6 L122.6,418.3 L109.8,418.6 L44.1,421.6 L44.8,438.9 L46.6,479.1 L106.5,488.0 L112.3,488.7 L126.6,490.5 L162.7,495.1 L166.5,623.5 L52.1,625.6 Z" fill="url(#park-dots)" stroke="none"/><path d="M52.1,625.6 L49.5,543.0 L40.5,544.6 L41.8,535.3 L42.6,526.9 L43.2,514.7 L43.3,507.6 L43.0,496.7 L42.4,488.4 L41.5,480.4 L40.4,472.4 L39.2,465.6 L37.0,455.5 L24.1,455.9 L23.6,439.4 L22.3,429.7 L21.2,422.5 L35.9,422.0 L35.7,416.9 L41.7,416.5 L38.8,401.6 L37.7,394.1 L37.0,386.5 L36.5,380.0 L36.3,374.1 L36.2,364.7 L37.0,350.0 L38.6,337.0 L39.3,332.8 L30.1,333.0 L28.0,293.5 L21.5,275.5 L15.5,264.5 L39.0,260.5 L155.6,251.1 L160.5,417.6 L122.6,418.3 L109.8,418.6 L44.1,421.6 L44.8,438.9 L46.6,479.1 L106.5,488.0 L112.3,488.7 L126.6,490.5 L162.7,495.1 L166.5,623.5 L52.1,625.6 Z" fill="url(#park-canopy)" stroke="none"/><path d="M48.4,18.2 L115.7,16.3 L114.5,-26.1 L131.9,-26.6 L131.4,-45.8 L114.0,-45.3 L113.9,-50.3 L35.4,-48.1 L36.4,-14.7 L40.6,-14.8 L41.1,4.6 L48.0,4.5 L48.4,18.2 Z" fill="#d6d2c9" stroke="#bab6ad" stroke-width="0.4"></path><path d="M154.3,106.4 L96.4,107.8 L95.0,51.2 L152.9,49.8 L154.3,106.4 Z" fill="#d6d2c9" stroke="#bab6ad" stroke-width="0.4"></path><path d="M84.0,140.2 L86.0,213.8 L-2.1,216.2 L-4.1,142.6 L84.0,140.2 Z" fill="#d6d2c9" stroke="#bab6ad" stroke-width="0.4"></path><path d="M136.3,202.1 L136.5,205.9 L133.6,206.0 L133.5,203.9 L127.6,204.1 L127.5,202.2 L117.8,202.6 L117.6,195.9 L143.8,194.3 L144.1,201.8 L136.3,202.1 Z" fill="#d6d2c9" stroke="#bab6ad" stroke-width="0.4"></path><path d="M287.4,139.3 L289.1,206.8 L249.7,207.7 L224.7,208.4 L224.7,207.2 L218.9,207.4 L218.8,205.3 L216.2,205.4 L214.6,141.2 L287.4,139.3 Z" fill="#d6d2c9" stroke="#bab6ad" stroke-width="0.4"></path><path d="M159.1,254.1 L154.3,262.0 L147.2,270.5 L135.8,278.6 L131.5,280.0 L114.5,278.5 L94.5,278.5 L78.0,283.0 L52.5,284.5" fill="none" stroke="#cf828d" stroke-width="1.5" stroke-dasharray="1.6 3.0" opacity="0.62" stroke-linecap="round" stroke-linejoin="round"></path><path d="M29.6,253.6 L37.1,274.6 L52.5,284.5 L41.1,296.6 L39.0,303.0" fill="none" stroke="#cf828d" stroke-width="1.5" stroke-dasharray="1.6 3.0" opacity="0.62" stroke-linecap="round" stroke-linejoin="round"></path><path d="M160.7,350.5 L158.1,287.4 L157.4,269.1 L158.3,264.2 L159.4,259.7 L159.1,254.1 L163.9,253.7" fill="none" stroke="#cf828d" stroke-width="1.5" stroke-dasharray="1.6 3.0" opacity="0.62" stroke-linecap="round" stroke-linejoin="round"></path><path d="M188.9,414.1 L183.5,251.9 L183.8,250.0 L184.6,248.2 L186.4,247.2 L188.8,247.0 L449.2,239.2" fill="none" stroke="#cf828d" stroke-width="1.5" stroke-dasharray="1.6 3.0" opacity="0.62" stroke-linecap="round" stroke-linejoin="round"></path><path d="M181.0,252.1 L171.4,253.0 L163.9,253.7" fill="none" stroke="#cf828d" stroke-width="1.5" stroke-dasharray="1.6 3.0" opacity="0.62" stroke-linecap="round" stroke-linejoin="round"></path><path d="M189.0,242.2 L189.4,232.9 L190.0,218.2" fill="none" stroke="#cf828d" stroke-width="1.5" stroke-dasharray="1.6 3.0" opacity="0.62" stroke-linecap="round" stroke-linejoin="round"></path><path d="M190.0,218.2 L190.3,215.9 L187.1,215.5" fill="none" stroke="#cf828d" stroke-width="1.5" stroke-dasharray="1.6 3.0" opacity="0.62" stroke-linecap="round" stroke-linejoin="round"></path><path d="M187.1,215.5 L170.7,216.7 L160.5,217.5" fill="none" stroke="#cf828d" stroke-width="1.5" stroke-dasharray="1.6 3.0" opacity="0.62" stroke-linecap="round" stroke-linejoin="round"></path><path d="M160.5,217.5 L156.1,217.8 L156.1,220.8" fill="none" stroke="#cf828d" stroke-width="1.5" stroke-dasharray="1.6 3.0" opacity="0.62" stroke-linecap="round" stroke-linejoin="round"></path><path d="M156.1,220.8 L156.2,234.0 L156.3,245.7" fill="none" stroke="#cf828d" stroke-width="1.5" stroke-dasharray="1.6 3.0" opacity="0.62" stroke-linecap="round" stroke-linejoin="round"></path><path d="M156.3,245.7 L157.4,250.9 L159.1,254.1" fill="none" stroke="#cf828d" stroke-width="1.5" stroke-dasharray="1.6 3.0" opacity="0.62" stroke-linecap="round" stroke-linejoin="round"></path><path d="M157.4,250.9 L153.8,250.3 L29.6,253.6 L14.1,253.8 L-1.6,254.3 L-42.3,255.4 L-72.7,256.2" fill="none" stroke="#cf828d" stroke-width="1.5" stroke-dasharray="1.6 3.0" opacity="0.62" stroke-linecap="round" stroke-linejoin="round"></path><path d="M-91.1,58.1 L-35.9,55.7 L70.8,51.2 L141.7,48.2 L151.1,48.2 L153.1,48.7 L154.3,50.0 L155.1,51.8 L155.3,53.9 L156.9,164.9 L157.0,211.0 L156.1,217.8 L99.7,220.1 L-15.9,224.7" fill="none" stroke="#cf828d" stroke-width="1.5" stroke-dasharray="1.6 3.0" opacity="0.62" stroke-linecap="round" stroke-linejoin="round"></path><path d="M317.0,213.4 L249.9,214.8 L190.3,215.9 L183.6,55.0 L184.0,52.5 L185.0,50.7 L186.9,48.8 L188.5,47.9 L191.3,47.1 L459.8,38.6" fill="none" stroke="#cf828d" stroke-width="1.5" stroke-dasharray="1.6 3.0" opacity="0.62" stroke-linecap="round" stroke-linejoin="round"></path><path d="M-69.3,29.8 L19.3,24.3 L126.7,17.7 L144.1,17.1 L147.1,16.3 L150.2,13.9 L152.0,10.9 L152.3,6.5 L150.7,-59.3" fill="none" stroke="#cf828d" stroke-width="1.5" stroke-dasharray="1.6 3.0" opacity="0.62" stroke-linecap="round" stroke-linejoin="round"></path><path d="M182.4,26.3 L184.0,33.3 L186.5,44.4" fill="none" stroke="#cf828d" stroke-width="1.5" stroke-dasharray="1.6 3.0" opacity="0.62" stroke-linecap="round" stroke-linejoin="round"></path><path d="M153.6,46.1 L153.2,34.5 L153.0,28.0" fill="none" stroke="#cf828d" stroke-width="1.5" stroke-dasharray="1.6 3.0" opacity="0.62" stroke-linecap="round" stroke-linejoin="round"></path><path d="M182.4,26.3 L182.2,23.1" fill="none" stroke="#cf828d" stroke-width="1.5" stroke-dasharray="1.6 3.0" opacity="0.62" stroke-linecap="round" stroke-linejoin="round"></path><path d="M186.5,44.4 L188.5,47.9" fill="none" stroke="#cf828d" stroke-width="1.5" stroke-dasharray="1.6 3.0" opacity="0.62" stroke-linecap="round" stroke-linejoin="round"></path><path d="M180.0,53.1 L166.6,53.6 L157.9,53.9" fill="none" stroke="#cf828d" stroke-width="1.5" stroke-dasharray="1.6 3.0" opacity="0.62" stroke-linecap="round" stroke-linejoin="round"></path><path d="M180.0,53.1 L184.0,52.5" fill="none" stroke="#cf828d" stroke-width="1.5" stroke-dasharray="1.6 3.0" opacity="0.62" stroke-linecap="round" stroke-linejoin="round"></path><path d="M153.6,46.1 L153.1,48.7" fill="none" stroke="#cf828d" stroke-width="1.5" stroke-dasharray="1.6 3.0" opacity="0.62" stroke-linecap="round" stroke-linejoin="round"></path><path d="M157.9,53.9 L155.3,53.9" fill="none" stroke="#cf828d" stroke-width="1.5" stroke-dasharray="1.6 3.0" opacity="0.62" stroke-linecap="round" stroke-linejoin="round"></path><path d="M155.9,21.7 L163.3,21.0 L174.5,20.1" fill="none" stroke="#cf828d" stroke-width="1.5" stroke-dasharray="1.6 3.0" opacity="0.62" stroke-linecap="round" stroke-linejoin="round"></path><path d="M155.9,21.7 L152.5,22.2 L153.0,28.0" fill="none" stroke="#cf828d" stroke-width="1.5" stroke-dasharray="1.6 3.0" opacity="0.62" stroke-linecap="round" stroke-linejoin="round"></path><path d="M177.0,19.4 L174.5,20.1" fill="none" stroke="#cf828d" stroke-width="1.5" stroke-dasharray="1.6 3.0" opacity="0.62" stroke-linecap="round" stroke-linejoin="round"></path><path d="M147.1,16.3 L152.5,22.2" fill="none" stroke="#cf828d" stroke-width="1.5" stroke-dasharray="1.6 3.0" opacity="0.62" stroke-linecap="round" stroke-linejoin="round"></path><path d="M188.8,247.0 L189.0,242.2" fill="none" stroke="#cf828d" stroke-width="1.5" stroke-dasharray="1.6 3.0" opacity="0.62" stroke-linecap="round" stroke-linejoin="round"></path><path d="M183.5,251.9 L181.0,252.1" fill="none" stroke="#cf828d" stroke-width="1.5" stroke-dasharray="1.6 3.0" opacity="0.62" stroke-linecap="round" stroke-linejoin="round"></path><path d="M344.3,17.3 L186.2,23.7 L182.2,23.1 L180.4,22.5 L178.1,21.1 L177.0,19.4 L176.7,17.2 L173.7,-66.9" fill="none" stroke="#cf828d" stroke-width="1.5" stroke-dasharray="1.6 3.0" opacity="0.62" stroke-linecap="round" stroke-linejoin="round"></path><path d="M70.4,37.5 L70.8,51.2 L71.2,58.5 L72.4,76.6 L75.5,123.4 L15.1,126.6 L14.5,77.7 L72.4,76.6" fill="none" stroke="#cec8bb" stroke-width="3.5" stroke-linecap="round" stroke-linejoin="round"/><path d="M70.4,37.5 L70.8,51.2 L71.2,58.5 L72.4,76.6 L75.5,123.4 L15.1,126.6 L14.5,77.7 L72.4,76.6" fill="none" stroke="#ffffff" stroke-width="2.5" stroke-linecap="round" stroke-linejoin="round"></path><path d="M100.0,235.9 L99.7,220.1 L99.2,197.2 L97.0,129.3 L75.5,123.4" fill="none" stroke="#cec8bb" stroke-width="3.5" stroke-linecap="round" stroke-linejoin="round"/><path d="M100.0,235.9 L99.7,220.1 L99.2,197.2 L97.0,129.3 L75.5,123.4" fill="none" stroke="#ffffff" stroke-width="2.5" stroke-linecap="round" stroke-linejoin="round"></path><path d="M-2.9,239.3 L-1.6,254.3 L-0.7,264.7 L0.2,275.1 L1.1,285.7 L5.4,293.1 L8.5,296.0" fill="none" stroke="#cec8bb" stroke-width="3.5" stroke-linecap="round" stroke-linejoin="round"/><path d="M-2.9,239.3 L-1.6,254.3 L-0.7,264.7 L0.2,275.1 L1.1,285.7 L5.4,293.1 L8.5,296.0" fill="none" stroke="#ffffff" stroke-width="2.5" stroke-linecap="round" stroke-linejoin="round"></path><path d="M8.5,296.0 L10.9,293.3 L14.6,286.7 L14.3,265.8 L14.3,263.4 L14.1,253.8 L13.8,238.9" fill="none" stroke="#cec8bb" stroke-width="3.5" stroke-linecap="round" stroke-linejoin="round"/><path d="M8.5,296.0 L10.9,293.3 L14.6,286.7 L14.3,265.8 L14.3,263.4 L14.1,253.8 L13.8,238.9" fill="none" stroke="#ffffff" stroke-width="2.5" stroke-linecap="round" stroke-linejoin="round"></path><path d="M21.7,39.0 L19.3,24.3 L18.4,20.0 L14.1,-2.5 L7.9,-35.5" fill="none" stroke="#cec8bb" stroke-width="3.5" stroke-linecap="round" stroke-linejoin="round"/><path d="M21.7,39.0 L19.3,24.3 L18.4,20.0 L14.1,-2.5 L7.9,-35.5" fill="none" stroke="#ffffff" stroke-width="2.5" stroke-linecap="round" stroke-linejoin="round"></path><path d="M250.1,230.9 L249.9,214.8 L249.7,207.7" fill="none" stroke="#cec8bb" stroke-width="3.5" stroke-linecap="round" stroke-linejoin="round"/><path d="M250.1,230.9 L249.9,214.8 L249.7,207.7" fill="none" stroke="#ffffff" stroke-width="2.5" stroke-linecap="round" stroke-linejoin="round"></path><path d="M165.1,34.0 L166.6,53.6 L170.7,216.7 L171.1,233.5" fill="none" stroke="#d1c4aa" stroke-width="6.4" stroke-linecap="round" stroke-linejoin="round"/><path d="M165.1,34.0 L166.6,53.6 L170.7,216.7 L171.1,233.5" fill="none" stroke="#f1c77d" stroke-width="5.0" stroke-linecap="round" stroke-linejoin="round"><title>North Miami Avenue</title></path><path d="M159.1,-66.4 L160.2,-34.9 L162.2,14.5 L163.3,21.0 L165.1,34.0" fill="none" stroke="#d1c4aa" stroke-width="6.4" stroke-linecap="round" stroke-linejoin="round"/><path d="M159.1,-66.4 L160.2,-34.9 L162.2,14.5 L163.3,21.0 L165.1,34.0" fill="none" stroke="#f1c77d" stroke-width="5.0" stroke-linecap="round" stroke-linejoin="round"><title>North Miami Avenue</title></path><path d="M171.1,233.5 L171.4,253.0 L175.9,435.5" fill="none" stroke="#d1c4aa" stroke-width="6.4" stroke-linecap="round" stroke-linejoin="round"/><path d="M171.1,233.5 L171.4,253.0 L175.9,435.5" fill="none" stroke="#f1c77d" stroke-width="5.0" stroke-linecap="round" stroke-linejoin="round"><title>North Miami Avenue</title></path><path d="M165.1,34.0 L153.2,34.5 L70.4,37.5 L21.7,39.0 L-36.3,41.5 L-69.8,42.5" fill="none" stroke="#d1c4aa" stroke-width="7.3" stroke-linecap="round" stroke-linejoin="round"/><path d="M165.1,34.0 L153.2,34.5 L70.4,37.5 L21.7,39.0 L-36.3,41.5 L-69.8,42.5" fill="none" stroke="#efb36f" stroke-width="5.9" stroke-linecap="round" stroke-linejoin="round"><title>Northwest 6th Street</title></path><path d="M171.1,233.5 L189.4,232.9 L250.1,230.9 L256.9,230.7 L317.5,228.7" fill="none" stroke="#d1c4aa" stroke-width="7.3" stroke-linecap="round" stroke-linejoin="round"/><path d="M171.1,233.5 L189.4,232.9 L250.1,230.9 L256.9,230.7 L317.5,228.7" fill="none" stroke="#efb36f" stroke-width="5.9" stroke-linecap="round" stroke-linejoin="round"><title>Northeast 5th Street</title></path><path d="M344.5,27.8 L247.0,31.4 L213.7,32.2 L191.8,33.0 L184.0,33.3 L165.1,34.0" fill="none" stroke="#d1c4aa" stroke-width="7.3" stroke-linecap="round" stroke-linejoin="round"/><path d="M344.5,27.8 L247.0,31.4 L213.7,32.2 L191.8,33.0 L184.0,33.3 L165.1,34.0" fill="none" stroke="#efb36f" stroke-width="5.9" stroke-linecap="round" stroke-linejoin="round"><title>Northeast 6th Street</title></path><path d="M-75.9,241.8 L-2.9,239.3 L13.8,238.9 L24.2,238.3 L100.0,235.9 L156.2,234.0 L171.1,233.5" fill="none" stroke="#d1c4aa" stroke-width="7.3" stroke-linecap="round" stroke-linejoin="round"/><path d="M-75.9,241.8 L-2.9,239.3 L13.8,238.9 L24.2,238.3 L100.0,235.9 L156.2,234.0 L171.1,233.5" fill="none" stroke="#efb36f" stroke-width="5.9" stroke-linecap="round" stroke-linejoin="round"><title>Northwest 5th Street</title></path><path d="M319.2,238.7 L265.1,236.6 L242.3,236.4 L216.5,236.6 L189.6,237.5 L170.0,238.9 L54.7,249.1 L30.8,250.8 L-90.8,255.3" fill="none" stroke="#fbf8ef" stroke-width="8.5" stroke-linecap="round" stroke-linejoin="round"/><path d="M319.2,238.7 L265.1,236.6 L242.3,236.4 L216.5,236.6 L189.6,237.5 L170.0,238.9 L54.7,249.1 L30.8,250.8 L-90.8,255.3" fill="none" stroke="#36454d" stroke-width="6.3" stroke-linecap="round" stroke-linejoin="round"><title>Metromover</title></path><path d="M278.1,242.5 L278.5,231.8" fill="none" stroke="#3f494e" stroke-width="1.1" stroke-linecap="round"/><path d="M260.5,242.0 L260.6,231.2" fill="none" stroke="#3f494e" stroke-width="1.1" stroke-linecap="round"/><path d="M251.4,241.9 L251.5,231.1" fill="none" stroke="#3f494e" stroke-width="1.1" stroke-linecap="round"/><path d="M237.8,241.8 L237.7,231.1" fill="none" stroke="#3f494e" stroke-width="1.1" stroke-linecap="round"/><path d="M228.7,241.9 L228.6,231.1" fill="none" stroke="#3f494e" stroke-width="1.1" stroke-linecap="round"/><path d="M212.2,242.1 L211.8,231.4" fill="none" stroke="#3f494e" stroke-width="1.1" stroke-linecap="round"/><path d="M203.1,242.4 L202.7,231.7" fill="none" stroke="#3f494e" stroke-width="1.1" stroke-linecap="round"/><path d="M185.4,243.2 L184.6,232.5" fill="none" stroke="#3f494e" stroke-width="1.1" stroke-linecap="round"/><path d="M176.3,243.8 L175.6,233.1" fill="none" stroke="#3f494e" stroke-width="1.1" stroke-linecap="round"/><path d="M165.9,244.6 L165.0,233.9" fill="none" stroke="#3f494e" stroke-width="1.1" stroke-linecap="round"/><path d="M156.9,245.4 L155.9,234.7" fill="none" stroke="#3f494e" stroke-width="1.1" stroke-linecap="round"/><path d="M147.8,246.2 L146.9,235.5" fill="none" stroke="#3f494e" stroke-width="1.1" stroke-linecap="round"/><path d="M138.8,247.0 L137.8,236.3" fill="none" stroke="#3f494e" stroke-width="1.1" stroke-linecap="round"/><path d="M129.7,247.8 L128.7,237.2" fill="none" stroke="#3f494e" stroke-width="1.1" stroke-linecap="round"/><path d="M120.6,248.7 L119.7,238.0" fill="none" stroke="#3f494e" stroke-width="1.1" stroke-linecap="round"/><path d="M111.6,249.5 L110.6,238.8" fill="none" stroke="#3f494e" stroke-width="1.1" stroke-linecap="round"/><path d="M102.5,250.3 L101.5,239.6" fill="none" stroke="#3f494e" stroke-width="1.1" stroke-linecap="round"/><path d="M93.4,251.1 L92.5,240.4" fill="none" stroke="#3f494e" stroke-width="1.1" stroke-linecap="round"/><path d="M84.4,251.9 L83.4,241.2" fill="none" stroke="#3f494e" stroke-width="1.1" stroke-linecap="round"/><path d="M75.3,252.7 L74.4,242.0" fill="none" stroke="#3f494e" stroke-width="1.1" stroke-linecap="round"/><path d="M66.2,253.5 L65.3,242.8" fill="none" stroke="#3f494e" stroke-width="1.1" stroke-linecap="round"/><path d="M50.6,254.8 L49.8,244.1" fill="none" stroke="#3f494e" stroke-width="1.1" stroke-linecap="round"/><path d="M41.5,255.5 L40.7,244.8" fill="none" stroke="#3f494e" stroke-width="1.1" stroke-linecap="round"/><path d="M26.5,256.4 L26.1,245.6" fill="none" stroke="#3f494e" stroke-width="1.1" stroke-linecap="round"/><path d="M17.4,256.7 L17.0,246.0" fill="none" stroke="#3f494e" stroke-width="1.1" stroke-linecap="round"/><path d="M8.3,257.0 L7.9,246.3" fill="none" stroke="#3f494e" stroke-width="1.1" stroke-linecap="round"/><path d="M-0.8,257.4 L-1.2,246.7" fill="none" stroke="#3f494e" stroke-width="1.1" stroke-linecap="round"/><path d="M-9.9,257.7 L-10.3,247.0" fill="none" stroke="#3f494e" stroke-width="1.1" stroke-linecap="round"/><path d="M-19.0,258.1 L-19.4,247.3" fill="none" stroke="#3f494e" stroke-width="1.1" stroke-linecap="round"/><path d="M319.2,238.7 L265.1,236.6 L242.3,236.4 L216.5,236.6 L189.6,237.5 L170.0,238.9 L54.7,249.1 L30.8,250.8 L-90.8,255.3" fill="none" stroke="#ffffff" stroke-width="4.1" stroke-linecap="round" stroke-linejoin="round"/><path d="M-54.1,270.5 L-30.4,268.0 L30.6,258.8 L55.3,255.6 L170.1,245.3 L189.5,244.0 L216.4,243.2 L241.4,242.8 L264.6,243.4 L364.9,248.3" fill="none" stroke="#fbf8ef" stroke-width="8.5" stroke-linecap="round" stroke-linejoin="round"/><path d="M-54.1,270.5 L-30.4,268.0 L30.6,258.8 L55.3,255.6 L170.1,245.3 L189.5,244.0 L216.4,243.2 L241.4,242.8 L264.6,243.4 L364.9,248.3" fill="none" stroke="#36454d" stroke-width="6.3" stroke-linecap="round" stroke-linejoin="round"><title>Metromover</title></path><path d="M-17.7,260.7 L-16.1,271.3" fill="none" stroke="#3f494e" stroke-width="1.1" stroke-linecap="round"/><path d="M-8.7,259.3 L-7.1,269.9" fill="none" stroke="#3f494e" stroke-width="1.1" stroke-linecap="round"/><path d="M0.3,257.9 L1.9,268.5" fill="none" stroke="#3f494e" stroke-width="1.1" stroke-linecap="round"/><path d="M9.3,256.6 L10.9,267.2" fill="none" stroke="#3f494e" stroke-width="1.1" stroke-linecap="round"/><path d="M18.3,255.2 L19.9,265.8" fill="none" stroke="#3f494e" stroke-width="1.1" stroke-linecap="round"/><path d="M34.4,252.9 L35.8,263.5" fill="none" stroke="#3f494e" stroke-width="1.1" stroke-linecap="round"/><path d="M43.5,251.7 L44.8,262.4" fill="none" stroke="#3f494e" stroke-width="1.1" stroke-linecap="round"/><path d="M59.4,249.9 L60.4,260.6" fill="none" stroke="#3f494e" stroke-width="1.1" stroke-linecap="round"/><path d="M68.4,249.1 L69.4,259.7" fill="none" stroke="#3f494e" stroke-width="1.1" stroke-linecap="round"/><path d="M77.5,248.2 L78.5,258.9" fill="none" stroke="#3f494e" stroke-width="1.1" stroke-linecap="round"/><path d="M86.6,247.4 L87.5,258.1" fill="none" stroke="#3f494e" stroke-width="1.1" stroke-linecap="round"/><path d="M95.6,246.6 L96.6,257.3" fill="none" stroke="#3f494e" stroke-width="1.1" stroke-linecap="round"/><path d="M104.7,245.8 L105.7,256.5" fill="none" stroke="#3f494e" stroke-width="1.1" stroke-linecap="round"/><path d="M113.8,245.0 L114.7,255.7" fill="none" stroke="#3f494e" stroke-width="1.1" stroke-linecap="round"/><path d="M122.8,244.1 L123.8,254.8" fill="none" stroke="#3f494e" stroke-width="1.1" stroke-linecap="round"/><path d="M131.9,243.3 L132.9,254.0" fill="none" stroke="#3f494e" stroke-width="1.1" stroke-linecap="round"/><path d="M141.0,242.5 L141.9,253.2" fill="none" stroke="#3f494e" stroke-width="1.1" stroke-linecap="round"/><path d="M150.0,241.7 L151.0,252.4" fill="none" stroke="#3f494e" stroke-width="1.1" stroke-linecap="round"/><path d="M159.1,240.9 L160.0,251.6" fill="none" stroke="#3f494e" stroke-width="1.1" stroke-linecap="round"/><path d="M174.3,239.6 L175.0,250.3" fill="none" stroke="#3f494e" stroke-width="1.1" stroke-linecap="round"/><path d="M183.4,239.0 L184.1,249.7" fill="none" stroke="#3f494e" stroke-width="1.1" stroke-linecap="round"/><path d="M193.9,238.5 L194.2,249.2" fill="none" stroke="#3f494e" stroke-width="1.1" stroke-linecap="round"/><path d="M203.0,238.2 L203.3,249.0" fill="none" stroke="#3f494e" stroke-width="1.1" stroke-linecap="round"/><path d="M220.9,237.8 L221.1,248.5" fill="none" stroke="#3f494e" stroke-width="1.1" stroke-linecap="round"/><path d="M230.0,237.6 L230.2,248.4" fill="none" stroke="#3f494e" stroke-width="1.1" stroke-linecap="round"/><path d="M246.1,237.6 L245.9,248.3" fill="none" stroke="#3f494e" stroke-width="1.1" stroke-linecap="round"/><path d="M255.2,237.8 L254.9,248.5" fill="none" stroke="#3f494e" stroke-width="1.1" stroke-linecap="round"/><path d="M269.4,238.2 L268.8,249.0" fill="none" stroke="#3f494e" stroke-width="1.1" stroke-linecap="round"/><path d="M278.5,238.7 L277.9,249.4" fill="none" stroke="#3f494e" stroke-width="1.1" stroke-linecap="round"/><path d="M-54.1,270.5 L-30.4,268.0 L30.6,258.8 L55.3,255.6 L170.1,245.3 L189.5,244.0 L216.4,243.2 L241.4,242.8 L264.6,243.4 L364.9,248.3" fill="none" stroke="#ffffff" stroke-width="4.1" stroke-linecap="round" stroke-linejoin="round"/><g transform="translate(111.8 36.0) rotate(177.9)"><path d="M -3.6 -3.2 L 4.4 0 L -3.6 3.2 Z" fill="#58656d" opacity="0.46"/></g><g transform="translate(62.1 237.1) rotate(-1.9)"><path d="M -3.6 -3.2 L 4.4 0 L -3.6 3.2 Z" fill="#58656d" opacity="0.46"/></g><g transform="translate(168.7 135.2) rotate(88.6)"><path d="M -3.6 -3.2 L 4.4 0 L -3.6 3.2 Z" fill="#58656d" opacity="0.46"/></g><text x="111.8" y="36.0" transform="rotate(-2.1 111.8 36.0)" text-anchor="middle" dominant-baseline="central" font-family="Arial, sans-serif" font-size="8.3" textLength="106.2" lengthAdjust="spacing" font-weight="650" paint-order="stroke" stroke="#fffaf0" stroke-width="2.05" stroke-linejoin="round" fill="#6f573d">Northwest 6th Street</text><text x="62.1" y="237.1" transform="rotate(-1.9 62.1 237.1)" text-anchor="middle" dominant-baseline="central" font-family="Arial, sans-serif" font-size="8.3" textLength="106.2" lengthAdjust="spacing" font-weight="650" paint-order="stroke" stroke="#fffaf0" stroke-width="2.05" stroke-linejoin="round" fill="#6f573d">Northwest 5th Street</text><text x="168.7" y="135.2" transform="rotate(88.6 168.7 135.2)" text-anchor="middle" dominant-baseline="central" font-family="Arial, sans-serif" font-size="8.3" textLength="95.6" lengthAdjust="spacing" font-weight="650" paint-order="stroke" stroke="#fffaf0" stroke-width="2.05" stroke-linejoin="round" fill="#6f573d">North Miami Avenue</text><text x="41.0" y="178.2" text-anchor="middle" font-family="Arial, sans-serif" font-size="6.5" textLength="18.0" lengthAdjust="spacing" font-weight="500" paint-order="stroke" stroke="#f3f5ee" stroke-width="1.55" stroke-linejoin="round" fill="#6f777a">45</text><text x="101.5" y="16.5" text-anchor="middle" font-family="Arial, sans-serif" font-size="6.5" textLength="18.0" lengthAdjust="spacing" font-weight="500" paint-order="stroke" stroke="#f3f5ee" stroke-width="1.55" stroke-linejoin="round" fill="#6f777a">15</text><text x="211.7" y="191.0" text-anchor="middle" font-family="Arial, sans-serif" font-size="6.5" textLength="18.0" lengthAdjust="spacing" font-weight="500" paint-order="stroke" stroke="#f3f5ee" stroke-width="1.55" stroke-linejoin="round" fill="#6f777a">501</text><text x="147.1" y="96.3" text-anchor="middle" font-family="Arial, sans-serif" font-size="6.5" textLength="18.0" lengthAdjust="spacing" font-weight="500" paint-order="stroke" stroke="#f3f5ee" stroke-width="1.55" stroke-linejoin="round" fill="#6f777a">532</text><text x="148.3" y="62.6" text-anchor="middle" font-family="Arial, sans-serif" font-size="6.5" textLength="18.0" lengthAdjust="spacing" font-weight="500" paint-order="stroke" stroke="#f3f5ee" stroke-width="1.55" stroke-linejoin="round" fill="#6f777a">542</text><text x="147.7" y="79.4" text-anchor="middle" font-family="Arial, sans-serif" font-size="6.5" textLength="18.0" lengthAdjust="spacing" font-weight="500" paint-order="stroke" stroke="#f3f5ee" stroke-width="1.55" stroke-linejoin="round" fill="#6f777a">540</text><text x="205.5" y="65.5" text-anchor="middle" font-family="Arial, sans-serif" font-size="6.5" textLength="18.0" lengthAdjust="spacing" font-weight="500" paint-order="stroke" stroke="#f3f5ee" stroke-width="1.55" stroke-linejoin="round" fill="#6f777a">18</text><g><title>signal</title><rect x="168.4" y="228.3" width="5.4" height="10.4" rx="2.1" fill="#3f4b52" stroke="#ffffff" stroke-width="1.1"/><circle cx="171.1" cy="230.7" r="1.1" fill="#d85a4f"/><circle cx="171.1" cy="233.5" r="1.1" fill="#e2b84b"/><circle cx="171.1" cy="236.3" r="1.1" fill="#55a86b"/></g><g><title>signal</title><rect x="159.5" y="9.3" width="5.4" height="10.4" rx="2.1" fill="#3f4b52" stroke="#ffffff" stroke-width="1.1"/><circle cx="162.2" cy="11.7" r="1.1" fill="#d85a4f"/><circle cx="162.2" cy="14.5" r="1.1" fill="#e2b84b"/><circle cx="162.2" cy="17.3" r="1.1" fill="#55a86b"/></g><g><title>signal</title><rect x="189.1" y="27.8" width="5.4" height="10.4" rx="2.1" fill="#3f4b52" stroke="#ffffff" stroke-width="1.1"/><circle cx="191.8" cy="30.2" r="1.1" fill="#d85a4f"/><circle cx="191.8" cy="33.0" r="1.1" fill="#e2b84b"/><circle cx="191.8" cy="35.8" r="1.1" fill="#55a86b"/></g><g opacity="0.56"><title>crossing</title><path d="M187.1,231.1 L191.6,231.1 M187.1,232.9 L191.6,232.9 M187.1,234.7 L191.6,234.7" stroke="#ffffff" stroke-width="2.1" stroke-linecap="round"/><path d="M187.1,231.1 L191.6,231.1 M187.1,232.9 L191.6,232.9 M187.1,234.7 L191.6,234.7" stroke="#59656a" stroke-width="0.85" stroke-linecap="round"/></g><g opacity="0.56"><title>crossing</title><path d="M168.4,214.9 L173.0,214.9 M168.4,216.7 L173.0,216.7 M168.4,218.5 L173.0,218.5" stroke="#ffffff" stroke-width="2.1" stroke-linecap="round"/><path d="M168.4,214.9 L173.0,214.9 M168.4,216.7 L173.0,216.7 M168.4,218.5 L173.0,218.5" stroke="#59656a" stroke-width="0.85" stroke-linecap="round"/></g><g opacity="0.56"><title>crossing</title><path d="M153.9,232.2 L158.4,232.2 M153.9,234.0 L158.4,234.0 M153.9,235.8 L158.4,235.8" stroke="#ffffff" stroke-width="2.1" stroke-linecap="round"/><path d="M153.9,232.2 L158.4,232.2 M153.9,234.0 L158.4,234.0 M153.9,235.8 L158.4,235.8" stroke="#59656a" stroke-width="0.85" stroke-linecap="round"/></g><g opacity="0.56"><title>crossing</title><path d="M164.3,51.8 L168.9,51.8 M164.3,53.6 L168.9,53.6 M164.3,55.4 L168.9,55.4" stroke="#ffffff" stroke-width="2.1" stroke-linecap="round"/><path d="M164.3,51.8 L168.9,51.8 M164.3,53.6 L168.9,53.6 M164.3,55.4 L168.9,55.4" stroke="#59656a" stroke-width="0.85" stroke-linecap="round"/></g></svg>