<svg xmlns="http://www.w3.org/2000/svg" width="256" height="256" viewBox="0 0 256 256"><rect width="256" height="256" fill="#f1efe7"/><path d="M-234.8,4119.5 L-779.0,3717.8 L-822.5,3685.8 L-869.7,3675.5 L-903.0,3647.5 L-929.6,3644.4 L-1015.6,3650.1 L-1015.5,3642.0 L-1020.3,3634.4 L-1029.9,3628.5 L-1216.7,3547.6 L-1229.4,3541.8 L-1240.5,3538.6 L-1254.3,3537.5 L-1268.2,3537.2 L-1314.6,3537.2 L-1326.9,3536.5 L-1339.0,3534.1 L-1351.8,3529.1 L-1367.2,3525.0 L-1378.4,3524.0 L-1411.3,3522.6 L-1422.3,3520.6 L-1436.3,3516.1 L-1450.0,3512.6 L-1463.3,3509.5 L-1473.7,3505.3 L-1486.3,3497.5 L-1497.5,3489.1 L-1508.4,3480.9 L-1517.3,3476.7 L-1524.1,3475.3 L-1530.2,3475.7 L-1536.7,3477.5 L-1544.3,3481.4 L-1550.3,3488.0 L-1558.4,3495.9 L-1567.4,3504.2 L-1577.6,3509.8 L-1590.5,3514.0 L-1601.2,3516.6 L-1614.1,3518.6 L-1635.7,3521.1 L-1689.9,3523.7 L-1735.9,3526.0 L-1755.7,3533.1 L-1796.3,3534.5 L-1801.8,3526.0 L-1807.9,3522.1 L-1814.2,3520.9 L-1858.0,3523.4 L-1877.0,3530.2 L-1900.3,3530.4 L-1916.0,3528.1 L-1928.9,3524.2 L-1976.0,3527.0 L-2100.6,3536.7 L-2129.3,3537.5 L-2139.1,3537.3 L-2147.9,3535.1 L-2158.1,3530.0 L-2165.6,3524.0 L-2198.0,3524.1 L-2225.1,3523.7 L-2232.4,3528.2 L-2269.7,3529.1 L-2274.5,3537.0 L-2279.8,3537.2 L-2289.0,3535.0 L-2305.5,3533.0 L-2322.5,3533.9 L-2327.7,3535.5 L-2333.0,3534.6 L-2336.6,3531.1 L-2342.7,3527.6 L-2365.4,3527.7 L-2388.3,3528.9 L-2410.0,3541.7 L-2420.7,3546.8 L-2432.9,3549.5 L-2443.0,3550.2 L-2452.1,3548.8 L-2473.1,3539.8 L-2485.1,3536.0 L-2495.3,3534.5 L-2540.0,3535.1 L-2542.8,3529.7 L-2582.3,3530.6 L-2609.5,3535.6 L-2627.4,3537.7 L-2637.0,3539.8 L-2640.7,3537.3 L-2647.5,3536.4 L-2711.2,3530.6 L-2716.7,3533.6 L-2723.4,3535.0 L-2732.2,3535.1 L-2732.2,3531.9 L-2771.7,3524.5 L-2796.6,3519.7 L-2856.8,3499.5 L-2860.1,3504.0 L-2900.3,3491.6 L-2908.7,3488.8 L-2904.6,3474.8 L-2909.4,3473.3 L-2910.4,3471.8 L-2913.0,3471.0 L-2916.6,3470.5 L-2921.0,3468.3 L-2919.5,3467.0 L-2937.3,3452.5 L-2966.9,3425.7 L-2982.8,3411.7 L-2994.1,3399.4 L-3000.4,3391.1 L-3009.8,3378.3 L-3015.2,3368.4 L-3032.0,3347.3 L-3033.6,3346.1 L-3034.7,3346.0 L-3035.9,3346.2 L-3038.1,3346.3 L-3040.1,3345.3 L-3044.3,3342.6 L-3052.9,3338.1 L-3057.1,3334.5 L-3062.0,3330.2 L-3068.7,3326.6 L-3079.2,3323.3 L-3090.3,3321.3 L-3099.8,3321.1 L-3097.1,3295.9 L-3094.9,3263.0 L-3084.6,3264.0 L-3074.3,3265.8 L-3060.8,3269.8 L-3050.9,3273.5 L-3042.0,3277.6 L-3033.4,3281.6 L-3025.3,3286.2 L-3018.7,3291.3 L-3009.9,3298.1 L-3000.7,3305.0 L-2998.6,3306.3 L-2996.7,3306.7 L-2971.5,3305.6 L-2971.2,3311.3 L-2972.7,3313.8 L-2991.6,3315.6 L-2986.8,3325.4 L-2983.5,3324.2 L-2980.5,3327.2 L-2978.6,3330.1 L-2977.0,3332.3 L-2973.1,3337.5 L-2971.6,3343.2 L-2965.5,3351.6 L-2951.1,3360.7 L-2933.2,3369.8 L-2911.8,3383.3 L-2902.0,3387.9 L-2881.4,3399.6 L-2871.7,3404.7 L-2854.0,3411.2 L-2819.2,3420.5 L-2798.8,3425.4 L-2780.2,3427.3 L-2770.3,3428.6 L-2768.1,3428.4 L-2767.2,3427.1 L-2766.9,3420.5 L-2743.8,3420.5 L-2743.3,3427.9 L-2694.9,3430.4 L-2647.7,3431.8 L-2615.6,3430.6 L-2605.0,3429.8 L-2597.3,3428.8 L-2591.0,3427.0 L-2585.2,3423.5 L-2582.3,3418.8 L-2583.4,3341.3 L-2563.9,3340.2 L-2562.2,3415.8 L-2561.1,3417.7 L-2557.2,3420.4 L-2552.7,3421.7 L-2449.3,3421.9 L-2449.8,3388.6 L-2441.7,3388.4 L-2438.3,3421.9 L-2374.5,3421.3 L-2374.5,3417.7 L-2368.2,3417.6 L-2368.0,3420.2 L-1942.5,3412.1 L-1911.7,3408.5 L-1874.1,3407.4 L-1838.5,3412.1 L-1826.6,3411.1 L-1817.9,3409.4 L-1809.8,3406.5 L-1799.3,3402.5 L-1585.4,3398.7 L-1585.5,3383.9 L-1465.8,3381.8 L-1465.7,3398.1 L-1414.9,3399.9 L-1411.0,3399.8 L-1407.4,3399.5 L-1402.7,3398.9 L-1398.9,3397.9 L-1395.2,3396.7 L-1388.9,3393.7 L-1386.0,3398.7 L-1379.8,3394.8 L-1374.1,3390.2 L-1369.3,3385.2 L-1365.1,3379.3 L-1361.2,3372.0 L-1368.5,3367.9 L-1366.5,3361.8 L-1365.2,3355.5 L-1364.5,3349.5 L-1364.4,3344.8 L-1364.6,3340.4 L-1365.3,3302.5 L-1371.4,3296.9 L-1366.2,3291.4 L-1371.5,3286.8 L-1365.5,3279.7 L-1372.0,3274.0 L-1366.8,3268.5 L-1372.0,3263.5 L-1365.9,3257.0 L-1372.2,3250.6 L-1359.1,3236.2 L-1356.8,3236.1 L-1362.5,3021.6 L-1314.4,3020.5 L-1312.1,3021.7 L-1309.5,3023.7 L-1307.6,3025.4 L-1306.8,3027.4 L-1306.1,3029.8 L-1305.9,3032.2 L-1301.8,3365.5 L-1299.9,3376.3 L-1297.2,3383.6 L-1293.0,3392.6 L-1288.1,3401.4 L-1283.0,3408.4 L-1278.9,3412.7 L-1274.5,3416.1 L-1269.4,3419.1 L-1264.1,3421.1 L-1256.9,3423.2 L-1248.0,3424.9 L-1237.2,3426.9 L-1224.6,3429.2 L-1212.6,3431.8 L-1199.3,3434.2 L-1186.7,3436.9 L-1182.7,3437.7 L-1177.8,3438.7 L-1173.0,3439.3 L-1168.8,3439.4 L-1164.0,3439.4 L-1160.3,3439.2 L-1156.6,3438.5 L-1153.4,3437.7 L-1150.0,3436.7 L-1147.1,3435.4 L-1141.3,3432.6 L-1136.2,3429.6 L-1131.1,3425.9 L-1125.2,3420.2 L-1119.7,3414.0 L-1116.7,3408.7 L-1114.0,3402.2 L-1112.6,3396.9 L-1111.8,3391.2 L-1111.3,3385.8 L-1111.3,3380.8 L-1118.6,3023.6 L-1108.2,3012.9 L-1104.4,3012.5 L-1102.9,3011.1 L-1081.2,3010.5 L-1079.3,3007.3 L-1076.0,3008.2 L-1070.5,3013.3 L-1066.7,3018.6 L-1062.9,3025.2 L-1055.7,3424.4 L-1055.0,3431.4 L-1053.7,3445.3 L-1052.4,3448.1 L-1053.4,3448.8 L-1051.6,3452.7 L-1049.3,3457.3 L-1047.3,3460.2 L-1044.9,3463.7 L-1041.6,3467.5 L-1037.7,3471.5 L-1033.0,3475.5 L-1028.8,3478.6 L-1024.2,3481.1 L-1019.8,3483.3 L-1015.1,3484.8 L-1014.5,3483.4 L-948.3,3507.4 L-940.0,3510.5 L-936.2,3511.9 L-930.3,3514.0 L-926.0,3515.0 L-922.3,3515.5 L-918.9,3515.5 L-914.1,3515.1 L-908.9,3514.6 L-904.3,3513.6 L-899.6,3512.3 L-896.1,3510.9 L-892.4,3509.2 L-889.4,3507.3 L-885.6,3504.5 L-880.8,3500.3 L-876.4,3496.0 L-871.6,3490.0 L-868.2,3484.4 L-865.4,3478.2 L-863.4,3471.3 L-862.2,3464.3 L-861.5,3451.8 L-861.8,3426.3 L-869.1,3020.2 L-869.1,3015.7 L-868.3,3012.5 L-866.9,3009.9 L-864.0,3007.5 L-860.7,3005.8 L-857.0,3005.2 L-826.9,3004.2 L-823.3,3004.8 L-820.1,3006.2 L-817.8,3008.4 L-815.2,3012.2 L-813.7,3017.6 L-812.8,3024.9 L-805.3,3545.8 L-804.9,3548.9 L-804.3,3552.0 L-803.4,3555.2 L-802.3,3558.7 L-801.1,3562.2 L-799.7,3565.4 L-798.5,3568.1 L-797.2,3570.5 L-795.3,3573.5 L-793.2,3576.1 L-791.3,3578.5 L-788.4,3581.6 L-785.6,3584.3 L-782.5,3586.8 L-779.2,3589.3 L-770.0,3595.1 L-769.1,3594.0 L-761.0,3598.5 L-751.4,3603.7 L-745.9,3606.7 L-739.8,3610.3 L-733.5,3614.0 L-727.0,3618.0 L-719.7,3622.5 L-712.5,3627.0 L-705.3,3631.3 L-699.3,3635.0 L-692.6,3639.3 L-685.5,3643.9 L-678.7,3648.4 L-672.4,3652.7 L-673.1,3653.6 L-664.3,3659.7 L-655.2,3665.8 L-652.4,3667.5 L-649.3,3669.2 L-644.9,3671.3 L-640.8,3672.8 L-636.4,3674.0 L-632.5,3675.0 L-627.9,3675.7 L-622.8,3676.3 L-618.4,3676.3 L-614.7,3676.0 L-611.5,3675.3 L-607.4,3674.2 L-603.3,3672.9 L-599.5,3671.6 L-596.0,3669.9 L-592.4,3668.0 L-588.9,3665.8 L-585.3,3663.0 L-582.1,3660.1 L-579.0,3657.0 L-576.1,3653.8 L-573.1,3649.4 L-570.6,3645.0 L-568.2,3640.1 L-566.8,3636.3 L-565.7,3632.3 L-564.9,3628.0 L-564.5,3623.7 L-564.8,3618.8 L-624.1,3051.1 L-620.0,3050.7 L-623.3,3022.3 L-626.3,3022.5 L-628.7,3009.4 L-627.9,3006.7 L-625.4,3002.7 L-620.3,2998.8 L-613.6,2998.0 L-586.7,2997.1 L-582.2,2998.0 L-579.1,2999.5 L-575.8,3002.1 L-573.5,3004.5 L-571.9,3007.0 L-506.9,3643.9 L-505.4,3649.4 L-502.6,3656.2 L-500.2,3660.6 L-497.6,3665.3 L-494.2,3669.9 L-491.4,3673.1 L-488.3,3676.3 L-484.9,3679.0 L-481.9,3681.1 L-477.7,3683.8 L-474.0,3685.7 L-469.1,3687.8 L-464.5,3689.2 L-459.3,3690.3 L-455.3,3690.9 L-451.8,3691.0 L-447.7,3691.1 L-306.5,3688.2 L-301.9,3687.6 L-297.5,3685.5 L-294.3,3682.6 L-292.1,3678.2 L-291.3,3674.2 L-291.5,3670.2 L-363.0,2988.1 L-426.0,2905.9 L-428.8,2908.2 L-483.6,2831.7 L-484.6,2815.5 L-486.3,2812.1 L-489.2,2809.0 L-492.9,2803.8 L-493.2,2796.2 L-499.7,2793.7 L-506.0,2793.6 L-514.5,2797.8 L-504.9,2815.8 L-517.0,2821.6 L-526.1,2813.2 L-533.9,2808.4 L-539.2,2806.6 L-552.2,2806.1 L-558.8,2792.7 L-517.3,2775.7 L-519.3,2772.3 L-528.1,2760.5 L-529.5,2761.2 L-838.4,2356.7 L-843.1,2290.0 L-840.6,2289.4 L-852.5,2167.1 L-857.1,2155.8 L-862.1,2143.1 L-865.9,2133.3 L-870.5,2120.8 L-885.5,2078.7 L-891.6,2081.4 L-900.5,2047.3 L-899.0,2047.0 L-930.1,1962.7 L-933.5,1815.3 L-929.9,1815.3 L-929.4,1802.4 L-927.6,1789.7 L-926.9,1785.0 L-928.2,1781.2 L-924.0,1761.1 L-885.7,1693.3 L-905.8,1681.1 L-890.9,1656.4 L-871.5,1667.8 L-869.8,1665.2 L-863.7,1668.3 L-857.1,1670.9 L-849.5,1673.3 L-843.8,1674.5 L-838.4,1674.7 L-832.0,1673.6 L-825.7,1671.5 L-819.5,1669.1 L-816.6,1666.0 L-815.5,1661.9 L-814.0,1657.0 L-813.7,1655.0 L-813.8,1652.5 L-815.2,1648.6 L-817.8,1644.9 L-820.8,1642.8 L-825.2,1638.6 L-829.0,1634.6 L-834.6,1631.0 L-836.9,1625.3 L-839.6,1619.6 L-843.9,1612.9 L-848.8,1607.1 L-857.8,1600.7 L-901.4,1578.1 L-927.2,1565.3 L-951.3,1552.3 L-974.2,1539.6 L-989.0,1530.0 L-994.7,1528.5 L-1001.0,1530.4 L-1004.5,1534.7 L-1011.6,1552.4 L-1055.7,1532.6 L-1029.3,1490.9 L-1023.5,1488.2 L-1016.4,1486.8 L-1008.1,1488.6 L-842.4,1585.5 L-833.4,1588.2 L-824.0,1590.5 L-810.7,1590.8 L-797.2,1588.4 L-788.6,1584.9 L-779.2,1577.3 L-773.7,1572.0 L-767.8,1563.7 L-767.9,1562.6 L-768.3,1561.6 L-769.2,1560.8 L-822.8,1527.7 L-824.1,1527.3 L-825.5,1527.2 L-826.9,1527.3 L-832.0,1529.5 L-833.9,1529.7 L-836.0,1529.5 L-839.1,1529.0 L-841.5,1528.3 L-844.9,1526.6 L-848.2,1524.7 L-921.9,1479.7 L-956.6,1455.3 L-959.9,1454.8 L-963.2,1454.9 L-967.1,1455.0 L-969.7,1454.6 L-971.9,1453.6 L-974.5,1451.6 L-977.4,1449.3 L-979.4,1446.5 L-980.6,1443.7 L-980.8,1441.6 L-980.5,1438.9 L-980.0,1436.6 L-968.2,1416.8 L-968.2,1415.9 L-969.1,1415.2 L-979.9,1407.6 L-982.0,1404.5 L-980.8,1402.6 L-977.3,1403.1 L-973.5,1404.2 L-951.3,1417.9 L-825.5,1498.2 L-822.9,1499.7 L-821.1,1501.6 L-819.9,1503.8 L-818.6,1508.4 L-817.7,1512.0 L-817.2,1515.1 L-760.4,1549.2 L-758.4,1550.1 L-756.0,1550.3 L-753.2,1549.9 L-751.2,1549.2 L-749.5,1548.4 L-688.4,1449.5 L-662.8,1411.9 L-638.9,1385.0 L-626.8,1391.7 L-619.0,1379.1 L-660.5,1354.3 L-651.7,1339.9 L-610.2,1364.9 L-600.9,1349.7 L-608.4,1341.3 L-600.8,1332.6 L-592.6,1342.0 L-590.6,1340.5 L-588.3,1338.9 L-585.1,1337.1 L-581.8,1335.5 L-577.7,1334.0 L-573.8,1332.9 L-569.6,1332.2 L-565.4,1331.9 L-561.4,1332.0 L-557.5,1332.6 L-553.8,1333.5 L-550.7,1334.4 L-548.0,1335.6 L-544.2,1337.4 L-540.7,1339.6 L-537.7,1341.7 L-534.7,1344.4 L-532.0,1347.0 L-529.0,1350.9 L-526.9,1354.4 L-524.8,1358.9 L-523.4,1363.4 L-522.2,1369.6 L-521.8,1375.0 L-521.9,1378.1 L-522.3,1381.3 L-523.4,1386.1 L-526.2,1392.7 L-528.0,1397.0 L-530.5,1402.1 L-520.1,1407.3 L-471.5,1349.3 L-560.0,1295.5 L-555.5,1285.9 L-552.3,1277.0 L-552.1,1273.2 L-547.0,1262.3 L-536.5,1252.6 L-523.5,1242.0 L-508.0,1232.1 L-478.9,1223.6 L-428.7,1218.6 L-408.9,1202.6 L-404.8,1201.9 L-401.5,1201.7 L-396.8,1203.5 L-392.5,1204.0 L-364.6,1220.9 L-291.2,1133.8 L-560.2,962.8 L-576.9,989.1 L-613.2,966.1 L-561.7,885.1 L-525.5,907.5 L-541.6,935.1 L-267.9,1107.6 L-233.4,1063.3 L-209.0,1034.3 L-176.8,985.9 L-159.0,961.5 L-160.8,947.6 L-160.3,947.2 L-163.5,936.9 L-165.6,930.5 L-167.6,923.9 L-170.0,918.2 L-174.6,910.7 L-179.2,903.4 L-181.2,899.6 L-182.7,895.8 L-183.8,892.3 L-184.2,889.2 L-184.7,879.0 L-302.9,770.5 L-306.8,774.7 L-310.1,771.9 L-319.7,781.4 L-326.0,773.0 L-318.4,764.2 L-326.0,754.5 L-331.2,755.9 L-336.6,756.1 L-341.5,755.2 L-345.8,753.4 L-350.8,749.7 L-357.0,743.6 L-367.9,731.6 L-371.2,726.5 L-372.4,720.1 L-371.6,712.5 L-368.7,705.5 L-366.2,700.7 L-361.4,695.9 L-356.1,692.3 L-351.0,690.4 L-347.2,689.8 L-342.2,690.7 L-337.1,692.5 L-332.3,696.3 L-321.2,706.3 L-315.5,711.7 L-310.3,717.4 L-308.6,720.1 L-307.4,723.0 L-306.7,725.6 L-306.2,729.2 L-306.8,732.6 L-307.8,735.8 L-309.2,738.2 L-309.6,739.3 L-309.3,740.7 L-308.5,742.1 L-181.6,861.0 L-177.2,864.0 L-174.1,865.3 L-169.7,864.3 L-164.5,863.9 L-157.9,866.7 L-151.3,870.8 L-138.4,878.1 L-133.0,880.7 L-128.1,875.9 L-122.7,870.7 L-119.1,866.6 L-113.1,858.8 L-109.7,854.1 L-106.1,848.3 L-103.8,843.2 L-101.3,837.8 L-99.0,832.1 L-96.9,826.3 L-95.7,821.4 L-94.3,815.2 L-93.7,811.5 L-93.3,808.5 L-92.6,803.2 L-91.9,798.0 L-91.6,794.6 L-91.4,790.9 L-91.4,786.6 L-91.6,783.0 L-92.3,778.0 L-93.1,772.3 L-93.9,767.0 L-94.4,762.7 L-95.0,759.5 L-95.7,756.1 L-96.5,752.7 L-97.7,748.7 L-99.1,744.7 L-100.2,742.3 L-101.4,739.9 L-103.1,737.6 L-105.4,734.3 L-107.9,731.2 L-110.6,728.6 L-114.0,725.8 L-117.5,723.6 L-121.0,721.7 L-124.2,720.5 L-126.4,719.8 L-128.9,719.5 L-131.9,719.6 L-134.7,720.2 L-136.9,721.1 L-139.0,722.6 L-140.5,724.2 L-141.7,725.7 L-142.6,728.0 L-143.1,730.5 L-143.0,733.5 L-142.8,737.0 L-142.8,739.6 L-143.0,742.2 L-143.4,744.8 L-143.9,747.1 L-144.8,749.5 L-146.2,752.1 L-147.9,754.6 L-149.6,756.9 L-151.3,758.5 L-154.7,761.2 L-157.5,763.1 L-161.9,764.4 L-164.5,765.0 L-167.5,765.4 L-170.2,765.5 L-173.8,765.3 L-176.4,764.8 L-180.0,764.0 L-185.0,762.5 L-189.2,760.9 L-192.3,759.7 L-195.6,757.9 L-198.5,755.9 L-201.7,753.4 L-204.2,751.1 L-206.3,749.0 L-208.5,746.4 L-210.3,744.0 L-212.0,741.6 L-213.5,738.9 L-215.1,735.3 L-216.5,732.0 L-217.9,728.4 L-218.8,725.6 L-219.5,723.0 L-220.0,720.3 L-220.4,716.1 L-220.7,712.4 L-220.5,708.4 L-219.6,703.1 L-218.1,697.9 L-216.2,692.5 L-214.9,690.0 L-213.6,688.5 L-203.3,675.4 L-200.9,672.7 L-197.8,671.2 L-194.5,670.0 L-190.8,669.2 L-186.7,668.7 L-183.1,668.5 L-179.5,668.6 L-175.9,669.0 L-171.8,670.2 L-167.5,672.3 L-163.8,674.6 L-160.5,677.2 L-150.1,686.8 L-147.6,687.6 L-146.2,687.9 L-144.5,687.5 L-143.4,687.1 L-142.0,685.5 L-141.4,683.9 L-141.3,681.7 L-141.2,679.7 L-141.6,678.8 L-162.6,658.0 L-134.0,627.5 L-135.6,623.9 L-119.1,607.6 L-87.3,639.4 L-112.9,672.0 L-113.1,673.9 L-111.8,674.7 L-110.2,674.3 L-82.1,639.1 L-73.9,629.2 L-73.6,626.9 L-74.3,624.9 L-75.8,623.1 L-97.8,602.3 L-92.3,595.9 L-97.9,591.2 L-94.7,583.8 L-37.7,526.5 L-18.1,523.2 L-12.0,522.3 L-6.2,521.5 L-3.5,520.8 L-0.3,519.1 L3.5,517.0 L6.4,514.1 L9.2,510.6 L38.3,468.3 L38.9,467.2 L38.6,465.8 L38.2,464.8 L37.5,463.9 L34.0,461.7 L33.1,461.2 L32.3,461.3 L31.4,461.8 L29.5,463.2 L5.1,486.0 L-4.4,492.8 L-43.4,452.8 L-38.9,438.6 L-37.0,434.4 L-30.9,423.2 L-23.8,410.7 L-19.5,405.9 L-11.8,397.7 L-3.6,388.7 L5.4,379.2 L13.1,372.6 L16.8,369.3 L21.7,365.7 L26.2,363.3 L32.6,360.4 L36.6,359.0 L40.6,357.8 L43.7,357.5 L48.1,357.8 L51.8,358.3 L56.0,359.5 L60.1,362.9 L62.6,366.4 L64.1,370.0 L64.7,375.4 L64.5,382.5 L63.6,390.5 L61.9,398.2 L51.6,421.2 L41.8,441.9 L45.2,447.4 L47.0,448.5 L48.9,448.5 L50.6,448.1 L51.9,447.3 L58.6,437.8 L67.2,433.5 L84.3,387.8 L85.5,385.5 L87.2,383.5 L88.9,382.6 L90.5,382.2 L92.8,382.2 L95.2,382.8 L107.7,386.3 L110.1,386.8 L112.9,386.9 L115.5,386.5 L117.6,385.6 L119.4,384.2 L121.2,381.9 L142.2,353.8 L143.2,351.7 L143.7,349.5 L143.7,347.4 L143.3,345.2 L142.5,343.6 L141.3,342.0 L139.9,340.7 L137.9,339.7 L136.0,339.2 L134.1,339.1 L132.5,339.4 L130.6,340.3 L129.2,341.3 L128.1,342.7 L122.6,351.6 L121.4,353.3 L120.0,354.9 L117.9,356.7 L116.0,357.8 L113.7,358.5 L110.9,359.1 L109.3,359.1 L107.1,358.8 L105.2,358.3 L103.6,357.6 L86.4,342.0 L84.4,339.6 L82.9,337.4 L81.5,334.7 L80.6,332.4 L80.0,330.0 L79.5,327.4 L79.2,324.2 L79.1,321.0 L79.4,318.3 L79.8,316.0 L80.3,314.0 L81.1,312.3 L112.4,262.6 L114.4,259.3 L115.6,257.6 L117.0,256.8 L119.3,255.8 L121.7,255.1 L124.0,254.7 L125.3,254.7 L126.6,254.9 L127.7,255.3 L129.3,256.1 L131.2,257.3 L134.4,259.9 L148.7,273.3 L151.1,276.7 L152.5,280.0 L153.8,283.9 L154.2,286.9 L154.4,290.1 L154.4,292.8 L154.1,295.5 L153.6,298.2 L153.0,300.0 L151.4,303.7 L145.7,314.3 L145.1,316.7 L145.1,319.6 L145.3,321.8 L146.1,323.5 L147.6,325.1 L150.0,326.8 L152.0,327.9 L154.3,328.4 L157.0,328.3 L159.2,327.8 L161.7,326.5 L163.9,324.5 L200.9,273.7 L189.6,263.5 L196.4,256.2 L206.5,265.9 L227.3,238.6 L258.8,196.5 L132.0,75.0 L104.5,103.9 L72.2,73.4 L103.4,39.8 L99.3,35.3 L105.8,29.3 L109.8,33.4 L131.5,9.8 L151.0,27.9 L153.3,42.9 L235.3,119.4 L251.3,125.6 L264.1,121.1 L288.4,130.8 L304.5,124.9 L352.4,66.4 L355.1,60.9 L355.9,53.5 L353.5,46.2 L350.3,41.0 L321.9,14.8 L322.3,7.6 L327.9,-6.5 L339.1,-27.4 L317.0,-41.7 L325.4,-44.9 L330.7,-48.3 L336.0,-54.3 L342.2,-70.2 L353.6,-99.2 L361.0,-106.0 L290.8,-174.0 L275.4,-164.4 L271.8,-163.5 L268.4,-163.4 L264.0,-163.9 L260.4,-164.9 L256.9,-167.0 L254.0,-169.5 L217.7,-204.5 L210.9,-211.3 L207.9,-214.9 L205.4,-219.4 L204.2,-223.5 L203.7,-227.5 L203.8,-231.3 L204.5,-234.9 L205.4,-237.8 L206.6,-239.9 L209.2,-243.6 L212.3,-247.3 L228.6,-264.2 L352.6,-149.3 L344.1,-139.7 L436.0,-52.8 L541.9,-207.9 L474.7,-270.7 L466.1,-263.0 L340.6,-381.5 L357.0,-396.8 L429.1,-329.2 L436.3,-339.8 L440.3,-345.1 L445.4,-350.3 L451.3,-356.8 L457.3,-360.7 L466.8,-368.7 L476.3,-377.5 L494.5,-394.7 L538.0,-443.6 L545.8,-451.7 L574.5,-466.4 L601.7,-487.7 L604.3,-489.7 L611.4,-495.2 L614.5,-498.0 L617.0,-501.2 L618.7,-504.5 L619.8,-507.8 L621.1,-510.3 L622.6,-513.0 L625.2,-517.3 L627.0,-520.0 L628.8,-522.5 L632.1,-525.1 L635.3,-527.3 L638.8,-529.4 L647.1,-533.4 L655.1,-537.4 L656.3,-537.6 L657.5,-537.4 L659.9,-536.7 L666.4,-533.4 L671.3,-531.0 L673.6,-529.6 L675.7,-527.9 L709.1,-496.2 L711.4,-494.9 L722.3,-492.0 L725.8,-491.0 L729.7,-490.6 L732.7,-490.7 L735.0,-491.5 L737.3,-493.1 L749.2,-509.9 L749.2,-512.2 L748.8,-514.3 L747.5,-516.6 L745.5,-518.8 L736.4,-527.3 L737.1,-528.7 L748.8,-553.5 L768.8,-593.8 L787.0,-607.2 L797.5,-617.7 L804.7,-626.0 L812.3,-633.7 L820.7,-640.6 L825.8,-645.3 L831.2,-650.2 L835.2,-654.2 L837.2,-657.8 L838.8,-660.6 L839.8,-663.3 L840.2,-666.5 L840.4,-669.7 L846.5,-675.9 L855.5,-684.4 L870.5,-696.7 L886.2,-708.6 L893.2,-718.4 L895.8,-728.5 L903.6,-733.3 L913.4,-733.5 L923.3,-739.4 L932.0,-755.1 L931.8,-771.4 L933.4,-796.6 L935.9,-800.2 L937.4,-802.6 L940.2,-807.2 L936.7,-817.9 L940.7,-822.9 L960.5,-847.4 L994.5,-887.1 L1001.0,-896.5 L1003.6,-901.4 L1014.4,-916.3 L1017.4,-925.7 L1017.5,-940.2 L1017.1,-954.7 L1017.0,-969.5 L1021.4,-985.8 L1028.8,-1001.9 L1039.4,-1017.4 L1047.1,-1028.9 L1056.2,-1040.4 L1073.8,-1060.0 L1151.8,-1098.6 L1162.1,-1101.3 L1164.7,-1095.7 L1167.8,-1090.3 L1168.8,-1089.3 L1170.5,-1090.0 L1170.8,-1093.8 L1169.6,-1097.0 L1173.9,-1098.3 L1189.9,-1103.0 L1210.7,-1109.2 L1227.5,-1114.2 L1233.5,-1116.0 L1227.5,-1134.9 L1237.9,-1137.7 L1255.2,-1140.1 L1257.3,-1140.4 L1257.4,-1141.6 L1257.4,-1146.0 L1273.1,-1146.7 L1297.7,-1147.7 L1307.2,-1143.1 L1330.9,-1057.7 L1336.2,-1052.6 L1325.9,-1042.0 L1335.0,-1033.0 L1344.0,-1024.0 L1354.8,-1035.0 L1555.3,-844.4 L1822.9,-1130.0 L1916.4,-1040.6 L1920.0,-1041.7 L1921.4,-1040.1 L1927.7,-1044.1 L1932.9,-1046.0 L1938.4,-1048.5 L1947.8,-1053.4 L1953.6,-1056.7 L1960.5,-1060.7 L1966.9,-1064.7 L1972.1,-1068.1 L1976.9,-1071.2 L1982.5,-1075.3 L1988.9,-1080.0 L1993.8,-1084.1 L1999.0,-1088.7 L2004.7,-1094.1 L2010.1,-1099.5 L2022.7,-1112.9 L2030.3,-1122.0 L2037.7,-1131.9 L2042.8,-1139.1 L2047.6,-1146.5 L2053.3,-1156.8 L2058.3,-1166.9 L2062.3,-1175.2 L2065.7,-1183.5 L2067.8,-1189.0 L2070.1,-1195.2 L2075.5,-1201.9 L1904.5,-1364.6 L1906.6,-1366.9 L1927.1,-1388.9 L1942.0,-1404.7 L1943.5,-1406.3 L1986.9,-1365.7 L1997.4,-1371.1 L1998.6,-1369.6 L2100.6,-1422.7 L2104.8,-1424.9 L2107.7,-1427.2 L2110.4,-1429.7 L2113.5,-1432.9 L2116.5,-1437.4 L2119.1,-1441.6 L2120.8,-1444.8 L2122.0,-1448.9 L2123.1,-1453.4 L2123.6,-1458.3 L2123.6,-1463.8 L2123.2,-1468.2 L2122.4,-1472.1 L2121.1,-1476.8 L2089.2,-1568.6 L2084.9,-1583.7 L2086.0,-1588.9 L2009.0,-1608.0 L2012.6,-1621.3 L2015.6,-1633.3 L2038.4,-1723.5 L2020.7,-1776.1 L2010.3,-1810.1 L2007.3,-1818.6 L2034.9,-1843.9 L2066.0,-1860.6 L2067.9,-1858.0 L2070.9,-1853.7 L2077.9,-1844.6 L2078.7,-1845.4 L2078.9,-1848.5 L2069.2,-1861.9 L2086.5,-1874.3 L2090.3,-1876.5 L2099.3,-1864.8 L2100.8,-1863.7 L2102.3,-1863.4 L2103.1,-1863.6 L2103.1,-1864.4 L2060.3,-1923.0 L2057.2,-1926.4 L2053.6,-1931.3 L2035.0,-1953.8 L2050.9,-2003.1 L2063.1,-2015.8 L2077.2,-2022.4 L2107.2,-2040.2 L2113.4,-2046.6 L2140.3,-2070.2 L2148.8,-2061.3 L2173.7,-2034.4 L2196.8,-2053.8 L2212.3,-2038.9 L2226.2,-2025.3 L2226.9,-2024.6 L2238.7,-2034.7 L2254.3,-2018.1 L2267.7,-2000.9 L2277.6,-1989.4 L2278.9,-1987.9 L2307.7,-2013.2 L2309.2,-2014.5 L2302.4,-2022.8 L2318.1,-2035.7 L2365.7,-1980.2 L2406.2,-2006.9 L2410.2,-2010.7 L2427.8,-2018.1 L2431.8,-2022.0 L2435.6,-2027.0 L2457.3,-2046.3 L2452.4,-2053.0 L2413.6,-2044.1 L2369.2,-2094.6 L2374.3,-2099.0 L2381.0,-2091.2 L2412.4,-2118.2 L2445.7,-2081.8 L2454.7,-2078.2 L2460.1,-2075.1 L2466.9,-2067.4 L2470.6,-2070.7 L2446.5,-2098.1 L2461.3,-2110.9 L2491.2,-2075.0 L2495.0,-2077.8 L2494.6,-2078.6 L2560.2,-2126.0 L2579.7,-2140.4 L2516.0,-2220.0 L2529.6,-2229.5 L2585.0,-2164.6 L2625.9,-2157.1 L2652.9,-2172.9 L2656.7,-2175.3 L2656.5,-2178.3 L2654.6,-2181.8 L2675.7,-2195.1 L2681.9,-2188.9 L2699.7,-2199.4 L2686.8,-2215.4 L2624.5,-2298.7 L2668.5,-2344.3 L2697.4,-2387.0 L2698.1,-2420.4 L2682.7,-2464.8 L2715.1,-2491.8 L2749.1,-2504.9 L2760.3,-2507.5 L2769.3,-2508.7 L2780.3,-2508.0 L2791.7,-2505.2 L2808.2,-2491.1 L2851.0,-2438.9 L2885.2,-2395.5 L2926.1,-2368.2 L2942.2,-2365.6 L2956.6,-2363.9 L2968.8,-2363.4 L2984.4,-2364.5 L3001.3,-2367.3 L3015.0,-2371.2 L3026.6,-2376.6 L3034.3,-2381.1 L3040.0,-2387.1 L3049.6,-2398.7 L3060.0,-2417.7 L3071.3,-2442.9 L3091.4,-2432.6 L3099.4,-2429.9 L3108.0,-2428.7 L3121.7,-2429.6 L3130.8,-2432.3 L3141.2,-2436.8 L3150.9,-2442.4 L3161.2,-2452.4 L3170.0,-2460.4 L3181.0,-2467.9 L3188.6,-2472.8 L3199.8,-2476.8 L3219.1,-2482.4 L3230.5,-2485.6 L3242.7,-2490.2 L3253.3,-2495.7 L3259.6,-2499.3 L3264.6,-2504.5 L3330.0,-2537.3 L3332.5,-2538.7 L3335.4,-2540.5 L3338.4,-2542.8 L3342.8,-2545.3 L3345.7,-2546.7 L3348.8,-2549.4 L3351.2,-2551.9 L3354.4,-2554.0 L3357.8,-2556.4 L3362.3,-2560.6 L3368.7,-2561.1 L3375.3,-2561.9 L3379.6,-2563.3 L3385.2,-2565.9 L3392.1,-2569.0 L3399.4,-2573.5 L3403.5,-2577.4 L3408.1,-2582.7 L3411.0,-2587.6 L3412.6,-2592.1 L3412.7,-2595.3 L3412.8,-2597.9 L3414.4,-2608.3 L3450.8,-2629.4 L3514.6,-2666.2 L3527.0,-2673.3 L3635.2,-2735.7 L3752.4,-2803.0 L3802.3,-2831.6 L3819.6,-2841.3 L3964.5,-2925.5 L3996.7,-2943.2 L3996.2,-2944.3 L4062.5,-2981.8 L4088.0,-2996.1 L4135.0,-3022.1 L4135.5,-3021.4 L4153.7,-3031.4 L4197.9,-3056.1 L4203.2,-3060.9 L4248.0,-3093.7 L4270.3,-3112.2 L4290.8,-3129.5 L4300.2,-3134.8 L4321.4,-3155.8 L4323.2,-3154.7 L4326.0,-3155.0 L4327.4,-3154.1 L4357.2,-3189.0 L4349.7,-3196.0 L4350.7,-3197.8 L4353.9,-3202.4 L4362.5,-3213.3 L4367.7,-3221.2 L4371.8,-3227.7 L4377.5,-3236.4 L4383.0,-3245.4 L4389.2,-3255.7 L4395.6,-3266.9 L4409.5,-3295.6 L4413.8,-3304.7 L4417.3,-3312.0 L4419.7,-3317.5 L4421.8,-3321.7 L4426.2,-3332.7 L4310.4,-3548.7 L4308.2,-3552.8 L4306.5,-3555.1 L4305.3,-3556.8 L4303.7,-3558.2 L4302.2,-3559.2 L4300.2,-3560.4 L4298.1,-3561.2 L4296.3,-3561.6 L4294.5,-3561.8 L4291.8,-3561.8 L4288.7,-3561.3 L4286.0,-3560.5 L4283.2,-3559.1 L4256.3,-3543.6 L4221.2,-3523.5 L4196.7,-3509.9 L4152.0,-3485.3 L4124.6,-3470.4 L4125.6,-3468.7 L4113.9,-3462.0 L4075.6,-3442.2 L4047.2,-3425.4 L4030.5,-3416.1 L4005.1,-3401.5 L4002.2,-3399.5 L3979.9,-3439.6 L4023.7,-3463.6 L4083.5,-3496.1 L4124.2,-3518.7 L4129.2,-3521.6 L4128.5,-3522.7 L4163.7,-3541.9 L4182.4,-3552.2 L4225.3,-3573.1 L4233.5,-3577.3 L4298.2,-3613.3 L4322.5,-3626.7 L4339.6,-3635.9 L4359.8,-3647.5 L4387.8,-3596.9 L4343.8,-3572.8 L4341.5,-3569.1 L4340.6,-3565.2 L4340.2,-3562.2 L4340.1,-3559.6 L4340.3,-3557.5 L4341.1,-3554.6 L4430.8,-3388.7 L4432.5,-3386.2 L4434.5,-3384.3 L4436.5,-3383.0 L4438.6,-3382.3 L4440.9,-3382.0 L4443.1,-3382.2 L4444.8,-3382.7 L4484.6,-3412.9 L4503.3,-3428.6 L4522.6,-3444.9 L4529.9,-3451.6 L4553.8,-3471.2 L4554.9,-3471.2 L4578.1,-3491.0 L4578.2,-3492.2 L4593.4,-3504.7 L4605.4,-3514.5 L4626.0,-3531.5 L4627.9,-3529.2 L4648.1,-3545.9 L4658.3,-3554.4 L4686.6,-3577.9 L4706.3,-3594.3 L4704.4,-3597.1 L4710.9,-3602.6 L4721.6,-3611.4 L4728.2,-3617.2 L4756.1,-3629.7 L4775.0,-3636.3 L4784.7,-3640.9 L4811.9,-3641.1 L4821.4,-3641.1 L4841.5,-3640.1 L4865.0,-3639.1 L4866.7,-3640.7 L4869.0,-3637.7 L4876.4,-3637.3 L4943.7,-3631.5 L4951.6,-3629.8 L4958.5,-3628.7 L4974.1,-3627.4 L5003.2,-3626.0 L5009.6,-3625.9 L5015.6,-3626.1 L5038.9,-3627.0 L5050.9,-3627.6 L5062.8,-3628.7 L5081.1,-3630.6 L5081.0,-3629.5 L5095.5,-3632.0 L5109.2,-3634.6 L5119.7,-3636.5 L5133.5,-3646.9 L5135.1,-3644.7 L5136.8,-3642.3 L5258.4,-3481.5 L5551.9,-3380.3 L6090.5,-3775.9 L6237.3,-3881.6 L6294.0,-4002.6 L6203.8,-4120.8 L6207.8,-4137.7 L6223.6,-4142.0 L6254.0,-4135.7 L6275.6,-4143.8 L6281.6,-4152.2 L6280.3,-4159.5 L6264.2,-4191.1 L6263.1,-4202.9 L6262.2,-4226.3 L6259.4,-4248.9 L6262.2,-4252.9 L6271.3,-4257.3 L6282.4,-4259.8 L6290.4,-4268.4 L6292.2,-4278.8 L6285.4,-4298.9 L6284.7,-4312.8 L6286.9,-4328.6 L6297.9,-4356.3 L6295.6,-4369.1 L6290.1,-4383.4 L6289.9,-4402.8 L6286.7,-4428.4 L6280.9,-4444.4 L6277.3,-4452.8 L6279.7,-4456.5 L6282.0,-4456.3 L6282.6,-4457.8 L6282.9,-4459.8 L6282.8,-4461.8 L6279.3,-4462.2 L6277.1,-4465.3 L6277.5,-4469.0 L6274.5,-4469.8 L6270.8,-4469.9 L6270.3,-4469.0 L6262.7,-4478.0 L6261.1,-4480.8 L6259.8,-4484.7 L6258.9,-4488.5 L6258.2,-4492.5 L6257.9,-4496.5 L6257.7,-4500.1 L6257.7,-4503.8 L6258.0,-4505.8 L6259.6,-4510.8 L6261.4,-4514.8 L6263.7,-4518.7 L6267.1,-4523.6 L6270.6,-4528.3 L6273.9,-4531.7 L6278.0,-4534.8 L6278.8,-4534.0 L6313.9,-4560.8 L6319.0,-4564.7 L6318.0,-4566.2 L6318.0,-4568.8 L6326.7,-4575.6 L6328.9,-4575.5 L6331.0,-4574.0 L6334.7,-4576.8 L6370.7,-4604.1 L6370.3,-4605.0 L6374.5,-4608.1 L6379.5,-4611.2 L6383.0,-4612.8 L6388.0,-4614.7 L6392.3,-4615.9 L6396.6,-4616.5 L6401.3,-4616.9 L6404.1,-4616.7 L6408.0,-4616.1 L6411.8,-4614.8 L6414.6,-4613.4 L6417.3,-4611.8 L6419.3,-4610.3 L6421.0,-4608.7 L6423.5,-4606.3 L6424.6,-4605.9 L6426.4,-4605.9 L6428.2,-4606.2 L6433.7,-4610.1 L6433.7,-4611.2 L6434.3,-4612.0 L6434.9,-4613.1 L6434.8,-4614.4 L6434.5,-4615.5 L6433.7,-4616.5 L6429.8,-4620.4 L6426.7,-4622.9 L6423.1,-4624.9 L6417.2,-4627.5 L6412.1,-4629.5 L6421.0,-4634.1 L6431.9,-4641.7 L6445.4,-4643.4 L6458.9,-4642.5 L6467.7,-4646.0 L6475.4,-4657.0 L6504.4,-4708.9 L6516.2,-4730.3 L6525.5,-4753.1 L6527.1,-4757.9 L6540.9,-4800.2 L6543.1,-4804.3 L6545.7,-4808.4 L6578.1,-4848.5 L6585.0,-4855.7 L6590.1,-4860.1 L6662.7,-4922.3 L6666.7,-4925.0 L6679.1,-4931.8 L6694.0,-4940.2 L6740.4,-4964.5 L6841.5,-5018.8 L6843.9,-5016.9 L6845.8,-5016.2 L6847.5,-5015.7 L6849.3,-5016.0 L6851.2,-5016.4 L6856.6,-5017.5 L6862.9,-5018.9 L6868.6,-5020.2 L6874.5,-5021.3 L6877.7,-5022.0 L6882.1,-5023.3 L6887.1,-5025.4 L6899.2,-5032.0 L6903.6,-5034.4 L6905.9,-5035.8 L6908.2,-5036.8 L6917.6,-5040.8 L6927.9,-5044.8 L6940.9,-5050.4 L6956.2,-5056.7 L6956.8,-5057.0 L6958.1,-5057.1 L6959.8,-5057.6 L6962.2,-5059.4 L6964.9,-5060.4 L6967.9,-5061.9 L6973.5,-5065.1 L6975.5,-5067.1 L6978.8,-5069.2 L6978.5,-5069.8 L6979.9,-5071.5 L6981.7,-5073.4 L6984.7,-5074.9 L6987.2,-5075.9 L6989.9,-5076.9 L6992.4,-5078.2 L6997.3,-5081.3 L6998.7,-5082.7 L7000.1,-5084.9 L7000.7,-5086.5 L7000.9,-5088.1 L7000.7,-5089.6 L7001.0,-5091.1 L6987.0,-5108.0 L7031.1,-5133.9 L7052.0,-5145.0 L7056.1,-5146.3 L7062.5,-5145.1 L7069.6,-5135.2 L7072.8,-5132.4 L7075.7,-5131.0 L7078.4,-5130.4 L7080.9,-5130.5 L7118.7,-5146.1 L7129.0,-5151.1 L7138.6,-5156.4 L7154.1,-5164.6 L7157.3,-5165.7 L7372.1,-5255.0 L7439.3,-5287.3 L7739.8,-5431.6 L14752.9,-5489.6 L14752.9,4546.0 L-234.8,4546.0 L-234.8,4119.5 Z" fill="#add7e1" stroke="none"><title>Biscayne Bay</title></path><path d="M-240.7,-514.2 L322.3,7.6 L321.9,14.8 L350.3,41.0 L353.5,46.2 L355.9,53.5 L355.1,60.9 L352.4,66.4 L304.5,124.9 L288.4,130.8 L264.1,121.1 L251.3,125.6 L235.3,119.4 L153.3,42.9 L151.0,27.9 L131.5,9.8 L109.8,33.4 L105.8,29.3 L99.3,35.3 L103.4,39.8 L72.2,73.4 L104.5,103.9 L132.0,75.0 L258.8,196.5 L227.3,238.6 L-387.6,-349.1 L-240.7,-514.2 Z" fill="#eadfc8" stroke="#d7d1c5" stroke-width="0.3"><title>Ransom Everglades School</title></path><path d="M202.7,-88.8 L136.6,-19.2 L278.8,115.8 L345.0,46.1 L202.7,-88.8 Z" fill="#c7dfbd" stroke="#8eb580" stroke-width="0.5"></path><path d="M257.0,257.0 L116.6,257.0 L117.0,256.8 L119.3,255.8 L121.7,255.1 L124.0,254.7 L125.3,254.7 L126.6,254.9 L127.7,255.3 L129.3,256.1 L130.8,257.0 L195.7,257.0 L196.4,256.2 L197.2,257.0 L213.3,257.0 L227.3,238.6 L257.0,198.9 L257.0,194.8 L132.0,75.0 L104.5,103.9 L72.2,73.4 L103.4,39.8 L99.3,35.3 L105.8,29.3 L109.8,33.4 L131.5,9.8 L151.0,27.9 L153.3,42.9 L235.3,119.4 L251.3,125.6 L257.0,123.6 L257.0,257.0 Z" fill="#add7e1" stroke="none" fill-rule="evenodd"><title>Biscayne Bay</title></path><path d="M208.4,63.9 L200.5,72.8 L185.3,59.1 L193.2,50.3 L208.4,63.9 Z" fill="#d6d2c9" stroke="#bab6ad" stroke-width="0.4"></path><path d="M146.6,-39.5 L89.9,20.3 L37.1,-30.3 L38.2,-31.5 L85.0,-80.8 L93.8,-90.1 L146.6,-39.5 Z" fill="#d6d2c9" stroke="#bab6ad" stroke-width="0.4"></path><path d="M81.1,312.3 L112.4,262.6 L114.4,259.3 L115.6,257.6 L117.0,256.8 L119.3,255.8 L121.7,255.1 L124.0,254.7 L125.3,254.7 L126.6,254.9 L127.7,255.3 L129.3,256.1 L131.2,257.3 L134.4,259.9 L148.7,273.3 L151.1,276.7 L152.5,280.0 L153.8,283.9 L154.2,286.9 L154.4,290.1 L154.4,292.8 L154.1,295.5 L153.6,298.2 L153.0,300.0 L151.4,303.7 L145.7,314.3" fill="none" stroke="#79bdd0" stroke-width="1.4" stroke-linecap="round" stroke-linejoin="round"></path><path d="M163.9,324.5 L200.9,273.7 L189.6,263.5 L196.4,256.2 L206.5,265.9 L227.3,238.6 L258.8,196.5 L132.0,75.0 L104.5,103.9 L72.2,73.4 L103.4,39.8 L99.3,35.3 L105.8,29.3 L109.8,33.4 L131.5,9.8 L151.0,27.9 L153.3,42.9 L235.3,119.4 L251.3,125.6 L264.1,121.1 L288.4,130.8 L304.5,124.9" fill="none" stroke="#79bdd0" stroke-width="1.4" stroke-linecap="round" stroke-linejoin="round"></path><path d="M-152.3,-110.0 L221.4,244.1" fill="none" stroke="#cec8bb" stroke-width="4.8" stroke-linecap="round" stroke-linejoin="round"/><path d="M-152.3,-110.0 L221.4,244.1" fill="none" stroke="#ffffff" stroke-width="3.7" stroke-linecap="round" stroke-linejoin="round"><title>Royal Road</title></path><text x="116.5" y="144.7" transform="rotate(43.5 116.5 144.7)" text-anchor="middle" dominant-baseline="central" font-family="Arial, sans-serif" font-size="8.3" textLength="53.1" lengthAdjust="spacing" font-weight="650" paint-order="stroke" stroke="#fffaf0" stroke-width="2.05" stroke-linejoin="round" fill="#695f54">Royal Road</text><g><title>Ransom Everglades School</title><circle cx="183.7" cy="36.7" r="5.0" fill="#5d8f74" stroke="#ffffff" stroke-width="1.7"/><path d="M180.1,36.1 L183.7,33.9 L187.3,36.1 L183.7,38.3 Z" stroke="#ffffff" stroke-width="1.20" stroke-linejoin="round" fill="none"/><path d="M186.1,36.7 V39.3" stroke="#ffffff" stroke-width="1.20" stroke-linecap="round"/></g></svg>