<svg xmlns="http://www.w3.org/2000/svg" width="256" height="256" viewBox="0 0 256 256"><rect width="256" height="256" fill="#f1efe7"/><path d="M-2216.4,150.3 L-2216.4,157.8 L-2216.6,266.4 L-2210.8,520.3 L-2208.9,594.5 L-2196.5,1064.7 L-2190.5,1266.6 L-2182.9,1547.8 L-2179.1,1684.9 L-2117.1,1684.4 L-2116.9,1744.4 L-1420.2,1732.0 L-878.9,1719.1 L53.2,1682.1 L65.6,1683.4 L78.7,1671.9 L80.1,1650.9 L61.7,1057.4 L50.7,711.4 L47.4,633.9 L54.9,606.6 L79.1,578.9 L78.9,568.1 L69.6,551.1 L-90.6,353.1 L-144.4,252.9 L-176.4,187.9 L-182.4,181.1 L-207.1,176.1 L-768.4,188.1 L-775.0,103.2 L-798.5,103.7 L-804.2,97.3 L-872.1,99.0 L-872.6,97.0 L-907.5,96.5 L-909.6,95.2 L-946.2,96.6 L-946.6,94.4 L-1043.7,92.5 L-1107.2,90.3 L-1108.0,96.5 L-1139.9,97.5 L-1139.7,94.0 L-1140.5,92.4 L-1142.0,91.4 L-1155.6,91.0 L-1194.0,87.1 L-1259.4,87.1 L-1327.7,87.6 L-1419.8,91.7 L-1548.4,93.5 L-1548.2,131.8 L-1563.6,132.2 L-1563.3,109.4 L-1581.6,110.0 L-1581.6,119.7 L-1594.9,119.4 L-1596.0,106.0 L-1840.0,119.0 L-2013.8,129.5 L-2072.1,144.9 L-2216.4,150.3 Z" fill="#ece7dc" stroke="#d7d1c5" stroke-width="0.3"></path><path d="M23.0,11.8 L5.4,49.1 L-23.3,35.4 L-15.7,19.3 L-37.8,8.8 L-27.8,-12.4 L23.0,11.8 Z" fill="#ded0d4" stroke="#c6b5bb" stroke-width="0.4"></path><path d="M248.9,191.6 L242.8,214.1 L236.6,212.6 L234.1,220.0 L229.0,218.3 L221.7,240.4 L180.1,226.5 L184.0,213.8 L167.0,207.8 L173.1,189.0 L190.4,195.0 L190.8,194.0 L196.5,195.9 L202.9,176.2 L248.9,191.6 Z" fill="#d6d2c9" stroke="#bab6ad" stroke-width="0.4"></path><path d="M45.9,210.8 L47.7,302.6 L-45.5,304.5 L-46.7,240.6 L-82.4,241.3 L-83.4,190.5 L64.7,187.5 L65.1,210.5 L45.9,210.8 Z" fill="#d6d2c9" stroke="#bab6ad" stroke-width="0.4"></path><path d="M-15.0,-88.1 L562.5,293.1" fill="none" stroke="#6fb5c7" stroke-width="1.7" stroke-dasharray="5 7" opacity="0.34" stroke-linecap="round" stroke-linejoin="round"><title>Miami Canal</title></path><path d="M-62.1,179.2 L162.7,173.8 L209.1,172.9" fill="none" stroke="#cf828d" stroke-width="1.5" stroke-dasharray="1.6 3.0" opacity="0.62" stroke-linecap="round" stroke-linejoin="round"></path><path d="M261.5,391.2 L111.3,252.0 L11.7,350.7" fill="none" stroke="#cec8bb" stroke-width="3.5" stroke-linecap="round" stroke-linejoin="round"/><path d="M261.5,391.2 L111.3,252.0 L11.7,350.7" fill="none" stroke="#ffffff" stroke-width="2.5" stroke-linecap="round" stroke-linejoin="round"></path><path d="M162.7,173.8 L163.0,154.1" fill="none" stroke="#cec8bb" stroke-width="3.5" stroke-linecap="round" stroke-linejoin="round"/><path d="M162.7,173.8 L163.0,154.1" fill="none" stroke="#ffffff" stroke-width="2.5" stroke-linecap="round" stroke-linejoin="round"></path><path d="M271.9,191.5 L246.3,246.5 L232.4,257.1 L205.0,268.4 L152.8,215.5 L154.2,182.6 L162.7,173.8" fill="none" stroke="#cec8bb" stroke-width="3.5" stroke-linecap="round" stroke-linejoin="round"/><path d="M271.9,191.5 L246.3,246.5 L232.4,257.1 L205.0,268.4 L152.8,215.5 L154.2,182.6 L162.7,173.8" fill="none" stroke="#ffffff" stroke-width="2.5" stroke-linecap="round" stroke-linejoin="round"></path><path d="M392.9,247.9 L280.4,178.6 L273.2,174.4 L263.2,169.1 L254.0,164.4 L246.2,161.5 L238.6,159.1 L229.9,156.8" fill="none" stroke="#d1c4aa" stroke-width="5.4" stroke-linecap="round" stroke-linejoin="round"/><path d="M392.9,247.9 L280.4,178.6 L273.2,174.4 L263.2,169.1 L254.0,164.4 L246.2,161.5 L238.6,159.1 L229.9,156.8" fill="none" stroke="#f4d99b" stroke-width="4.0" stroke-linecap="round" stroke-linejoin="round"><title>Northwest South River Drive</title></path><path d="M229.9,156.8 L218.4,154.7 L206.2,153.5 L197.6,153.3 L181.2,153.5 L163.0,154.1 L-41.6,161.3 L-109.3,163.5" fill="none" stroke="#d1c4aa" stroke-width="5.4" stroke-linecap="round" stroke-linejoin="round"/><path d="M229.9,156.8 L218.4,154.7 L206.2,153.5 L197.6,153.3 L181.2,153.5 L163.0,154.1 L-41.6,161.3 L-109.3,163.5" fill="none" stroke="#f4d99b" stroke-width="4.0" stroke-linecap="round" stroke-linejoin="round"><title>Northwest 20th Street</title></path><text x="89.5" y="156.7" transform="rotate(-2.0 89.5 156.7)" text-anchor="middle" dominant-baseline="central" font-family="Arial, sans-serif" font-size="8.3" textLength="111.6" lengthAdjust="spacing" font-weight="650" paint-order="stroke" stroke="#fffaf0" stroke-width="2.05" stroke-linejoin="round" fill="#6f573d">Northwest 20th Street</text><text x="207.0" y="206.8" text-anchor="middle" font-family="Arial, sans-serif" font-size="6.5" textLength="18.0" lengthAdjust="spacing" font-weight="500" paint-order="stroke" stroke="#f3f5ee" stroke-width="1.55" stroke-linejoin="round" fill="#6f777a">2980</text><text x="115.7" y="219.7" text-anchor="middle" font-family="Arial, sans-serif" font-size="6.5" textLength="18.0" lengthAdjust="spacing" font-weight="500" paint-order="stroke" stroke="#f3f5ee" stroke-width="1.55" stroke-linejoin="round" fill="#6f777a">2990</text><text x="143.2" y="84.9" text-anchor="middle" font-family="Arial, sans-serif" font-size="6.5" textLength="18.0" lengthAdjust="spacing" font-weight="500" paint-order="stroke" stroke="#f3f5ee" stroke-width="1.55" stroke-linejoin="round" fill="#6f777a">2995</text></svg>