<svg xmlns="http://www.w3.org/2000/svg" width="256" height="256" viewBox="0 0 256 256"><rect width="256" height="256" fill="#f1efe7"/><path d="M-517.4,-7062.9 L-410.0,-7107.5 L-376.4,-7123.6 L-226.1,-7195.8 L-197.9,-7168.5 L-195.4,-7166.2 L-142.8,-7211.2 L-130.2,-7220.8 L-109.3,-7239.7 L8.8,-7348.1 L104.1,-7456.9 L107.7,-7463.8 L111.2,-7467.8 L116.8,-7474.1 L122.4,-7480.6 L124.7,-7483.3 L87.1,-7531.8 L136.8,-7561.6 L163.8,-7525.7 L201.9,-7569.3 L169.6,-7612.1 L209.6,-7653.7 L240.3,-7613.2 L275.7,-7653.4 L290.7,-7663.2 L364.3,-7711.0 L400.7,-7735.1 L444.5,-7764.0 L465.2,-7777.5 L517.6,-7811.4 L504.1,-7829.2 L479.9,-7861.5 L542.4,-7901.2 L565.2,-7913.0 L566.9,-7914.2 L578.9,-7923.5 L621.7,-7946.3 L624.7,-7951.0 L636.7,-7959.2 L643.2,-7968.7 L645.0,-7970.1 L655.4,-7974.1 L679.1,-7982.6 L695.2,-7989.7 L752.3,-8016.5 L753.0,-8014.6 L800.8,-8035.1 L820.3,-8010.0 L863.9,-8039.1 L870.1,-8043.3 L870.7,-8043.8 L871.3,-8044.6 L872.2,-8046.3 L872.8,-8047.8 L873.0,-8049.7 L873.0,-8051.2 L872.8,-8052.6 L872.6,-8054.3 L872.5,-8055.5 L872.6,-8056.6 L872.9,-8057.7 L873.7,-8059.7 L874.2,-8060.8 L875.4,-8062.7 L876.8,-8064.1 L883.1,-8066.7 L888.4,-8068.6 L895.2,-8070.8 L898.3,-8071.7 L903.9,-8073.5 L907.9,-8075.0 L913.3,-8077.2 L920.7,-8080.4 L928.7,-8084.2 L933.0,-8086.3 L938.4,-8089.0 L943.4,-8091.9 L948.5,-8094.9 L953.6,-8098.2 L955.2,-8099.3 L965.6,-8107.2 L974.3,-8113.9 L982.8,-8121.1 L990.8,-8128.6 L996.5,-8135.1 L1002.2,-8142.0 L1009.2,-8151.0 L1015.6,-8160.0 L1022.9,-8171.6 L1027.7,-8180.5 L1030.7,-8186.2 L1035.2,-8195.9 L1038.9,-8204.8 L1042.3,-8214.4 L1045.0,-8222.9 L1047.9,-8236.6 L1050.1,-8248.8 L1051.3,-8259.4 L1052.2,-8271.7 L1052.4,-8285.0 L1051.5,-8297.3 L1049.4,-8313.2 L1047.3,-8324.1 L1044.7,-8334.5 L1041.1,-8346.1 L1037.9,-8355.1 L1034.3,-8364.9 L1030.9,-8372.9 L1028.6,-8378.2 L1027.6,-8382.0 L1027.5,-8385.0 L1027.8,-8387.6 L1028.9,-8389.9 L1030.5,-8391.9 L1032.6,-8393.0 L1034.8,-8393.3 L1040.9,-8391.8 L1057.7,-8387.8 L1063.3,-8515.1 L1085.2,-8742.4 L1061.4,-8748.1 L1058.8,-8755.2 L1058.9,-8765.4 L1062.2,-8788.7 L1066.7,-8793.9 L1070.7,-8809.1 L1095.9,-8803.2 L1109.9,-8948.4 L1113.7,-8988.7 L1105.9,-8990.6 L1110.6,-9009.8 L1094.4,-9013.6 L1096.5,-9025.4 L1099.3,-9033.1 L1102.9,-9042.2 L1108.9,-9054.8 L1115.3,-9053.4 L1124.1,-9144.7 L1126.1,-9200.1 L1126.5,-9210.3 L1131.2,-9245.6 L1140.6,-9333.5 L1203.0,-9496.2 L1217.2,-9540.5 L1390.5,-9607.0 L1407.5,-9613.8 L1410.4,-9615.4 L1412.8,-9617.5 L1415.3,-9620.4 L1417.2,-9623.9 L1418.5,-9627.3 L1418.9,-9632.2 L1418.6,-9638.4 L1416.3,-9716.1 L1415.4,-9731.2 L1415.2,-9741.6 L1414.9,-9761.6 L1414.5,-9767.9 L1413.7,-9773.2 L1412.6,-9778.0 L1411.1,-9782.7 L1408.7,-9788.4 L1405.1,-9794.5 L1401.5,-9799.3 L1398.8,-9803.8 L1396.1,-9809.8 L1393.8,-9815.7 L1392.9,-9820.4 L1392.2,-9825.6 L1391.9,-9830.9 L1392.0,-9836.0 L1392.6,-9841.9 L1394.0,-9847.8 L1395.9,-9853.0 L1397.8,-9857.8 L1400.3,-9862.4 L1403.3,-9867.9 L1405.4,-9873.0 L1407.1,-9879.5 L1410.3,-9884.3 L1409.2,-9929.0 L1407.6,-9931.5 L1407.0,-9961.8 L1406.2,-9997.6 L1406.8,-10002.5 L1408.4,-10007.6 L1412.4,-10015.5 L1439.1,-10073.0 L1439.7,-10074.0 L1444.4,-10084.2 L1448.9,-10094.0 L1453.8,-10104.0 L1458.8,-10114.2 L1461.2,-10119.3 L1487.4,-10173.2 L1515.5,-10232.8 L1576.4,-10356.2 L1539.8,-10397.1 L1510.0,-10333.7 L1484.2,-10278.7 L1480.3,-10270.9 L1472.4,-10254.7 L1456.5,-10256.0 L1452.1,-10256.3 L1450.6,-10254.8 L1452.7,-10252.9 L1444.5,-10245.7 L1438.1,-10239.7 L1436.9,-10214.3 L1434.5,-10209.2 L1426.7,-10209.5 L1425.4,-10210.0 L1323.2,-10252.1 L1321.0,-10253.3 L1318.6,-10254.8 L1315.0,-10257.6 L1312.1,-10260.3 L1309.7,-10262.9 L1307.4,-10266.1 L1305.6,-10268.9 L1304.2,-10271.8 L1303.0,-10274.9 L1302.3,-10276.9 L1301.8,-10279.5 L1301.3,-10282.5 L1300.9,-10286.6 L1300.9,-10292.4 L1300.2,-10312.3 L1303.0,-10312.5 L1302.6,-10322.9 L1302.2,-10340.2 L1304.8,-10340.3 L1304.6,-10352.1 L1301.7,-10352.0 L1300.3,-10401.8 L1303.1,-10401.9 L1302.6,-10413.5 L1299.9,-10413.4 L1298.8,-10450.2 L1312.3,-10464.7 L1329.5,-10465.3 L1342.4,-10465.8 L1359.3,-10466.3 L1375.6,-10466.9 L1390.3,-10467.4 L1396.6,-10467.6 L1396.3,-10473.3 L1396.2,-10479.2 L1395.2,-10498.3 L1394.9,-10534.9 L1394.4,-10535.5 L1394.3,-10539.2 L1395.4,-10539.2 L1392.8,-10627.3 L1390.6,-10710.1 L1390.2,-10712.7 L1390.0,-10717.5 L1353.9,-10716.2 L1329.9,-10718.3 L1150.3,-10712.0 L1150.3,-10713.6 L1149.9,-10721.3 L1064.7,-10718.3 L1064.5,-10732.4 L1053.3,-10734.9 L1051.3,-10795.5 L1382.7,-10807.0 L1388.2,-10814.6 L1388.0,-10836.1 L1387.6,-10854.6 L1387.3,-10866.3 L1386.8,-10877.6 L1360.5,-10890.1 L1359.4,-10917.6 L1386.5,-10931.0 L1384.0,-10994.7 L1383.3,-10997.9 L1356.5,-11010.4 L1355.6,-11044.5 L1381.1,-11057.7 L1369.7,-11196.1 L1372.8,-11257.8 L1374.2,-11358.2 L1374.1,-11467.4 L1376.5,-11482.8 L1376.7,-11490.1 L1374.3,-11499.1 L1376.8,-11499.1 L1376.8,-11507.1 L1378.3,-11712.6 L1378.1,-11721.8 L1375.2,-11721.7 L1375.3,-11759.5 L1373.6,-11761.9 L1371.1,-11800.9 L1376.2,-11836.5 L1375.5,-11879.7 L1373.8,-11890.0 L1376.4,-11922.0 L1374.6,-11960.6 L1370.1,-12002.0 L1361.6,-12069.0 L1365.6,-12087.4 L1363.9,-12105.4 L1348.6,-12118.5 L1326.1,-12118.2 L1291.9,-12113.7 L1269.7,-12113.7 L1249.4,-12121.2 L1222.9,-12139.4 L1222.9,-12172.0 L1222.2,-12212.2 L1224.8,-12245.6 L1233.6,-12271.7 L1381.0,-12274.4 L1384.3,-12483.4 L1384.3,-12784.2 L1382.8,-12893.4 L9338.9,-16179.2 L9338.9,1929.9 L-517.4,1929.9 L-517.4,-7062.9 Z" fill="#add7e1" stroke="none"><title>Biscayne Bay</title></path><path d="M1578.3,-5919.8 L23.5,766.4" fill="none" stroke="#6fb5c7" stroke-width="1.4" stroke-dasharray="5 7" opacity="0.34" stroke-linecap="round" stroke-linejoin="round"><title>Atlantic Intracoastal Waterway</title></path></svg>