<svg xmlns="http://www.w3.org/2000/svg" width="256" height="256" viewBox="0 0 256 256"><rect width="256" height="256" fill="#f1efe7"/><path d="M112.2,-134.0 L65.8,-132.5 L69.5,76.4 L121.5,74.7 L118.6,29.5 L112.2,-134.0 Z" fill="#eadde0" stroke="#d7d1c5" stroke-width="0.3"></path><path d="M59.3,75.5 L25.9,75.9 L25.5,44.3 L58.9,43.9 L59.3,75.5 Z" fill="#d6d2c9" stroke="#bab6ad" stroke-width="0.4"></path><path d="M111.7,28.0 L117.7,33.7 L119.0,74.3 L116.1,74.3 L117.0,103.3 L119.7,103.2 L121.6,162.7 L73.5,164.2 L73.0,146.4 L78.4,146.2 L77.1,104.5 L84.8,104.3 L83.9,76.1 L85.1,76.1 L83.7,28.8 L111.7,28.0 Z" fill="#d6d2c9" stroke="#bab6ad" stroke-width="0.4"></path><path d="M244.3,327.7 L214.6,328.9 L213.5,300.9 L221.1,300.5 L216.7,189.1 L238.8,188.2 L244.3,327.7 Z" fill="#d6d2c9" stroke="#bab6ad" stroke-width="0.4"></path><path d="M4.9,61.0 L5.2,78.3 L-6.6,78.5 L-6.7,72.7 L-9.4,72.8 L-15.0,72.3 L-16.0,49.0 L-10.0,49.0 L-9.9,45.7 L13.6,45.3 L13.8,60.8 L4.9,61.0 Z" fill="#d6d2c9" stroke="#bab6ad" stroke-width="0.4"></path><path d="M28.0,262.3 L19.5,262.3 L19.5,256.9 L-8.9,256.7 L-8.9,246.7 L-7.4,246.7 L-7.4,239.3 L4.0,239.3 L4.0,236.4 L30.4,236.4 L30.4,256.4 L28.0,256.4 L28.0,262.3 Z" fill="#d6d2c9" stroke="#bab6ad" stroke-width="0.4"></path><path d="M118.9,232.6 L82.5,232.9 L82.4,214.1 L118.8,213.9 L118.9,232.6 Z" fill="#d6d2c9" stroke="#bab6ad" stroke-width="0.4"><title>Bank of America</title></path><path d="M297.1,-171.9 L303.1,31.4 L266.7,32.5 L264.7,-35.7 L251.0,-35.3 L251.5,-19.7 L220.4,-18.8 L220.0,-34.0 L200.0,-33.4 L199.3,-56.6 L181.2,-56.0 L179.1,-127.9 L261.6,-130.3 L260.8,-154.8 L232.4,-153.9 L231.9,-170.0 L297.1,-171.9 Z" fill="#d6d2c9" stroke="#bab6ad" stroke-width="0.4"></path><path d="M43.8,123.3 L44.0,131.9 L54.3,131.6 L54.6,143.5 L54.9,155.3 L28.8,156.1 L28.0,123.8 L35.9,123.5 L43.8,123.3 Z" fill="#d6d2c9" stroke="#bab6ad" stroke-width="0.4"></path><path d="M56.8,229.8 L41.4,230.2 L40.8,207.5 L56.2,207.1 L56.8,229.8 Z" fill="#d6d2c9" stroke="#bab6ad" stroke-width="0.4"></path><path d="M36.1,234.2 L25.5,234.5 L25.3,227.7 L27.0,227.6 L26.7,219.6 L35.8,219.3 L36.1,234.2 Z" fill="#d6d2c9" stroke="#bab6ad" stroke-width="0.4"></path><path d="M3.3,204.8 L3.3,206.1 L10.2,205.9 L10.4,214.2 L12.1,214.2 L12.8,235.4 L-4.9,235.9 L-5.0,232.9 L-9.6,233.0 L-10.5,206.6 L-4.2,206.4 L-4.3,205.1 L3.3,204.8 Z" fill="#d6d2c9" stroke="#bab6ad" stroke-width="0.4"></path><path d="M7.5,129.0 L7.6,133.7 L14.8,133.5 L15.3,149.2 L5.6,149.5 L5.7,152.5 L-8.2,152.9 L-8.6,141.8 L-5.0,141.7 L-5.4,129.4 L7.5,129.0 Z" fill="#d6d2c9" stroke="#bab6ad" stroke-width="0.4"></path><path d="M325.1,156.5 L260.5,158.5 L208.5,160.2 L187.3,161.8 L182.0,161.2 L180.4,160.2 L178.6,159.1 L177.2,156.8 L176.4,153.7 L172.5,19.7 L167.9,-137.6" fill="none" stroke="#cf828d" stroke-width="1.5" stroke-dasharray="1.6 3.0" opacity="0.62" stroke-linecap="round" stroke-linejoin="round"></path><path d="M328.1,181.9 L263.5,184.3 L214.7,186.1 L200.9,185.2 L191.0,184.5 L186.0,184.9 L182.5,186.1 L181.1,187.2 L179.8,188.2 L177.6,190.6 L177.2,194.2 L178.6,240.3 L181.0,315.8" fill="none" stroke="#cf828d" stroke-width="1.5" stroke-dasharray="1.6 3.0" opacity="0.62" stroke-linecap="round" stroke-linejoin="round"></path><path d="M179.2,164.7 L179.8,175.0 L180.3,184.0" fill="none" stroke="#cf828d" stroke-width="1.5" stroke-dasharray="1.6 3.0" opacity="0.62" stroke-linecap="round" stroke-linejoin="round"></path><path d="M179.2,164.7 L180.4,160.2" fill="none" stroke="#cf828d" stroke-width="1.5" stroke-dasharray="1.6 3.0" opacity="0.62" stroke-linecap="round" stroke-linejoin="round"></path><path d="M180.3,184.0 L181.1,187.2" fill="none" stroke="#cf828d" stroke-width="1.5" stroke-dasharray="1.6 3.0" opacity="0.62" stroke-linecap="round" stroke-linejoin="round"></path><path d="M-7.9,727.9 L-22.6,196.2 L69.4,191.1 L113.0,189.2 L116.6,189.2 L119.9,189.4 L122.4,190.5 L124.0,192.2 L125.0,194.7 L128.4,313.4" fill="none" stroke="#cf828d" stroke-width="1.5" stroke-dasharray="1.6 3.0" opacity="0.62" stroke-linecap="round" stroke-linejoin="round"></path><path d="M114.8,-129.3 L119.5,-1.9 L117.3,0.5 L113.7,2.1 L99.2,2.7 L87.1,1.7 L64.3,2.6 L-211.1,11.5" fill="none" stroke="#cf828d" stroke-width="1.5" stroke-dasharray="1.6 3.0" opacity="0.62" stroke-linecap="round" stroke-linejoin="round"></path><path d="M-202.5,175.8 L68.0,166.4 L103.5,164.9 L115.4,165.9 L119.1,165.8 L120.7,165.6 L122.3,165.0 L123.2,163.7 L123.9,161.2 L120.3,31.4 L119.3,28.5 L117.5,26.8 L115.2,26.1 L112.3,25.9 L90.2,26.9 L65.0,27.9 L-208.4,37.2" fill="none" stroke="#cf828d" stroke-width="1.5" stroke-dasharray="1.6 3.0" opacity="0.62" stroke-linecap="round" stroke-linejoin="round"></path><path d="M117.3,0.5 L117.4,3.9" fill="none" stroke="#cf828d" stroke-width="1.5" stroke-dasharray="1.6 3.0" opacity="0.62" stroke-linecap="round" stroke-linejoin="round"></path><path d="M117.4,3.9 L117.7,13.4 L118.0,22.6" fill="none" stroke="#cf828d" stroke-width="1.5" stroke-dasharray="1.6 3.0" opacity="0.62" stroke-linecap="round" stroke-linejoin="round"></path><path d="M118.0,22.6 L117.5,26.8" fill="none" stroke="#cf828d" stroke-width="1.5" stroke-dasharray="1.6 3.0" opacity="0.62" stroke-linecap="round" stroke-linejoin="round"></path><path d="M119.1,165.8 L119.4,169.3" fill="none" stroke="#cf828d" stroke-width="1.5" stroke-dasharray="1.6 3.0" opacity="0.62" stroke-linecap="round" stroke-linejoin="round"></path><path d="M119.4,169.3 L119.7,177.1 L120.0,185.3" fill="none" stroke="#cf828d" stroke-width="1.5" stroke-dasharray="1.6 3.0" opacity="0.62" stroke-linecap="round" stroke-linejoin="round"></path><path d="M120.0,185.3 L119.9,189.4" fill="none" stroke="#cf828d" stroke-width="1.5" stroke-dasharray="1.6 3.0" opacity="0.62" stroke-linecap="round" stroke-linejoin="round"></path><path d="M74.4,277.0 L69.4,191.1 L68.6,179.0 L68.0,166.4 L67.5,157.2 L65.0,27.9 L64.9,14.9 L64.3,2.6 L62.3,-45.6 L59.9,-133.5" fill="none" stroke="#cec8bb" stroke-width="3.5" stroke-linecap="round" stroke-linejoin="round"/><path d="M74.4,277.0 L69.4,191.1 L68.6,179.0 L68.0,166.4 L67.5,157.2 L65.0,27.9 L64.9,14.9 L64.3,2.6 L62.3,-45.6 L59.9,-133.5" fill="none" stroke="#ffffff" stroke-width="2.5" stroke-linecap="round" stroke-linejoin="round"></path><path d="M200.5,173.6 L200.9,185.2 L202.3,239.5 L203.8,296.9" fill="none" stroke="#cec8bb" stroke-width="3.5" stroke-linecap="round" stroke-linejoin="round"/><path d="M200.5,173.6 L200.9,185.2 L202.3,239.5 L203.8,296.9" fill="none" stroke="#ffffff" stroke-width="2.5" stroke-linecap="round" stroke-linejoin="round"></path><path d="M166.7,240.7 L178.6,240.3 L202.3,239.5" fill="none" stroke="#cec8bb" stroke-width="3.5" stroke-linecap="round" stroke-linejoin="round"/><path d="M166.7,240.7 L178.6,240.3 L202.3,239.5" fill="none" stroke="#ffffff" stroke-width="2.5" stroke-linecap="round" stroke-linejoin="round"></path><path d="M280.5,-163.1 L285.1,29.2" fill="none" stroke="#cec8bb" stroke-width="3.5" stroke-linecap="round" stroke-linejoin="round"/><path d="M280.5,-163.1 L285.1,29.2" fill="none" stroke="#ffffff" stroke-width="2.5" stroke-linecap="round" stroke-linejoin="round"></path><path d="M158.6,18.8 L172.5,19.7 L178.2,20.1 L194.2,23.4 L206.2,23.9 L264.9,23.3" fill="none" stroke="#cec8bb" stroke-width="3.5" stroke-linecap="round" stroke-linejoin="round"/><path d="M158.6,18.8 L172.5,19.7 L178.2,20.1 L194.2,23.4 L206.2,23.9 L264.9,23.3" fill="none" stroke="#ffffff" stroke-width="2.5" stroke-linecap="round" stroke-linejoin="round"></path><path d="M194.2,23.4 L193.1,2.2 L192.3,-46.6" fill="none" stroke="#cec8bb" stroke-width="3.5" stroke-linecap="round" stroke-linejoin="round"/><path d="M194.2,23.4 L193.1,2.2 L192.3,-46.6" fill="none" stroke="#ffffff" stroke-width="2.5" stroke-linecap="round" stroke-linejoin="round"></path><path d="M158.6,18.8 L130.5,13.0 L117.7,13.4 L111.5,13.5 L64.9,14.9 L-210.9,24.4" fill="none" stroke="#cec8bb" stroke-width="4.8" stroke-linecap="round" stroke-linejoin="round"/><path d="M158.6,18.8 L130.5,13.0 L117.7,13.4 L111.5,13.5 L64.9,14.9 L-210.9,24.4" fill="none" stroke="#ffffff" stroke-width="3.7" stroke-linecap="round" stroke-linejoin="round"><title>Northwest 4th Street</title></path><path d="M330.6,168.6 L288.6,169.9 L262.9,171.0 L213.5,173.0 L200.5,173.6 L186.2,174.6 L179.8,175.0 L164.1,176.1" fill="none" stroke="#cec8bb" stroke-width="4.8" stroke-linecap="round" stroke-linejoin="round"/><path d="M330.6,168.6 L288.6,169.9 L262.9,171.0 L213.5,173.0 L200.5,173.6 L186.2,174.6 L179.8,175.0 L164.1,176.1" fill="none" stroke="#ffffff" stroke-width="3.7" stroke-linecap="round" stroke-linejoin="round"><title>Northwest 3rd Street</title></path><path d="M134.8,176.8 L119.7,177.1 L113.8,177.2 L68.6,179.0 L-36.5,182.8 L-206.0,188.1" fill="none" stroke="#cec8bb" stroke-width="4.8" stroke-linecap="round" stroke-linejoin="round"/><path d="M134.8,176.8 L119.7,177.1 L113.8,177.2 L68.6,179.0 L-36.5,182.8 L-206.0,188.1" fill="none" stroke="#ffffff" stroke-width="3.7" stroke-linecap="round" stroke-linejoin="round"><title>Northwest 3rd Street</title></path><path d="M168.4,316.3 L167.9,288.6 L167.9,279.2 L166.7,240.7 L164.1,176.1" fill="none" stroke="#d8955f" stroke-width="9.0" stroke-linecap="round" stroke-linejoin="round"/><path d="M168.4,316.3 L167.9,288.6 L167.9,279.2 L166.7,240.7 L164.1,176.1" fill="none" stroke="#f0a86f" stroke-width="7.5" stroke-linecap="round" stroke-linejoin="round"><title>Northwest 27th Avenue</title></path><path d="M168.4,316.3 L167.9,288.6 L167.9,279.2 L166.7,240.7 L164.1,176.1" fill="none" stroke="#fff8ef" stroke-width="1.8" stroke-dasharray="5.5 6.5" opacity="0.82" stroke-linecap="round" stroke-linejoin="round"/><path d="M134.8,176.8 L138.7,313.1" fill="none" stroke="#d8955f" stroke-width="9.0" stroke-linecap="round" stroke-linejoin="round"/><path d="M134.8,176.8 L138.7,313.1" fill="none" stroke="#f0a86f" stroke-width="7.5" stroke-linecap="round" stroke-linejoin="round"><title>Northwest 27th Avenue</title></path><path d="M134.8,176.8 L138.7,313.1" fill="none" stroke="#fff8ef" stroke-width="1.8" stroke-dasharray="5.5 6.5" opacity="0.82" stroke-linecap="round" stroke-linejoin="round"/><path d="M167.9,288.6 L160.5,283.4 L158.4,279.3 L157.6,275.1 L154.4,233.5 L151.5,193.0 L150.3,189.7 L148.0,187.2 L134.8,176.8" fill="none" stroke="#d8955f" stroke-width="6.9" stroke-linecap="round" stroke-linejoin="round"/><path d="M167.9,288.6 L160.5,283.4 L158.4,279.3 L157.6,275.1 L154.4,233.5 L151.5,193.0 L150.3,189.7 L148.0,187.2 L134.8,176.8" fill="none" stroke="#f0a86f" stroke-width="5.3" stroke-linecap="round" stroke-linejoin="round"></path><path d="M167.9,288.6 L160.5,283.4 L158.4,279.3 L157.6,275.1 L154.4,233.5 L151.5,193.0 L150.3,189.7 L148.0,187.2 L134.8,176.8" fill="none" stroke="#fff8ef" stroke-width="1.3" stroke-dasharray="5.5 6.5" opacity="0.82" stroke-linecap="round" stroke-linejoin="round"/><path d="M132.3,74.4 L142.0,96.5 L144.1,101.4 L147.7,158.1 L150.6,164.4 L155.8,172.1 L164.1,176.1" fill="none" stroke="#d8955f" stroke-width="6.9" stroke-linecap="round" stroke-linejoin="round"/><path d="M132.3,74.4 L142.0,96.5 L144.1,101.4 L147.7,158.1 L150.6,164.4 L155.8,172.1 L164.1,176.1" fill="none" stroke="#f0a86f" stroke-width="5.3" stroke-linecap="round" stroke-linejoin="round"></path><path d="M132.3,74.4 L142.0,96.5 L144.1,101.4 L147.7,158.1 L150.6,164.4 L155.8,172.1 L164.1,176.1" fill="none" stroke="#fff8ef" stroke-width="1.3" stroke-dasharray="5.5 6.5" opacity="0.82" stroke-linecap="round" stroke-linejoin="round"/><path d="M164.1,176.1 L159.9,58.8" fill="none" stroke="#d8955f" stroke-width="9.0" stroke-linecap="round" stroke-linejoin="round"/><path d="M164.1,176.1 L159.9,58.8" fill="none" stroke="#f0a86f" stroke-width="7.5" stroke-linecap="round" stroke-linejoin="round"><title>Northwest 27th Avenue</title></path><path d="M164.1,176.1 L159.9,58.8" fill="none" stroke="#fff8ef" stroke-width="1.8" stroke-dasharray="5.5 6.5" opacity="0.82" stroke-linecap="round" stroke-linejoin="round"/><path d="M159.9,58.8 L158.8,25.5 L158.6,18.8" fill="none" stroke="#d8955f" stroke-width="9.0" stroke-linecap="round" stroke-linejoin="round"/><path d="M159.9,58.8 L158.8,25.5 L158.6,18.8" fill="none" stroke="#f0a86f" stroke-width="7.5" stroke-linecap="round" stroke-linejoin="round"><title>Northwest 27th Avenue</title></path><path d="M159.9,58.8 L158.8,25.5 L158.6,18.8" fill="none" stroke="#fff8ef" stroke-width="1.8" stroke-dasharray="5.5 6.5" opacity="0.82" stroke-linecap="round" stroke-linejoin="round"/><path d="M158.6,18.8 L155.9,-72.5" fill="none" stroke="#d8955f" stroke-width="9.0" stroke-linecap="round" stroke-linejoin="round"/><path d="M158.6,18.8 L155.9,-72.5" fill="none" stroke="#f0a86f" stroke-width="7.5" stroke-linecap="round" stroke-linejoin="round"><title>Northwest 27th Avenue</title></path><path d="M158.6,18.8 L155.9,-72.5" fill="none" stroke="#fff8ef" stroke-width="1.8" stroke-dasharray="5.5 6.5" opacity="0.82" stroke-linecap="round" stroke-linejoin="round"/><path d="M130.5,13.0 L132.3,74.4 L134.8,176.8" fill="none" stroke="#d8955f" stroke-width="9.0" stroke-linecap="round" stroke-linejoin="round"/><path d="M130.5,13.0 L132.3,74.4 L134.8,176.8" fill="none" stroke="#f0a86f" stroke-width="7.5" stroke-linecap="round" stroke-linejoin="round"><title>Northwest 27th Avenue</title></path><path d="M130.5,13.0 L132.3,74.4 L134.8,176.8" fill="none" stroke="#fff8ef" stroke-width="1.8" stroke-dasharray="5.5 6.5" opacity="0.82" stroke-linecap="round" stroke-linejoin="round"/><path d="M127.4,-115.8 L130.5,13.0" fill="none" stroke="#d8955f" stroke-width="9.0" stroke-linecap="round" stroke-linejoin="round"/><path d="M127.4,-115.8 L130.5,13.0" fill="none" stroke="#f0a86f" stroke-width="7.5" stroke-linecap="round" stroke-linejoin="round"><title>Northwest 27th Avenue</title></path><path d="M127.4,-115.8 L130.5,13.0" fill="none" stroke="#fff8ef" stroke-width="1.8" stroke-dasharray="5.5 6.5" opacity="0.82" stroke-linecap="round" stroke-linejoin="round"/><g transform="translate(162.0 117.4) rotate(-92.1)"><path d="M -3.6 -3.2 L 4.4 0 L -3.6 3.2 Z" fill="#58656d" opacity="0.46"/></g><g transform="translate(133.6 125.6) rotate(88.6)"><path d="M -3.6 -3.2 L 4.4 0 L -3.6 3.2 Z" fill="#58656d" opacity="0.46"/></g><g><rect x="150.3" y="200.0" width="30.0" height="14.0" rx="3" fill="#ffffff" stroke="#8a8f96" stroke-width="1"/><text x="165.3" y="207.4" text-anchor="middle" dominant-baseline="central" font-family="Arial, sans-serif" font-size="8" font-weight="700" fill="#56616a">SR 9</text></g><g><rect x="147.0" y="110.4" width="30.0" height="14.0" rx="3" fill="#ffffff" stroke="#8a8f96" stroke-width="1"/><text x="162.0" y="117.8" text-anchor="middle" dominant-baseline="central" font-family="Arial, sans-serif" font-size="8" font-weight="700" fill="#56616a">SR 9</text></g><g><rect x="119.0" y="137.0" width="30.0" height="14.0" rx="3" fill="#ffffff" stroke="#8a8f96" stroke-width="1"/><text x="134.0" y="144.4" text-anchor="middle" dominant-baseline="central" font-family="Arial, sans-serif" font-size="8" font-weight="700" fill="#56616a">SR 9</text></g><text x="42.4" y="59.9" text-anchor="middle" font-family="Arial, sans-serif" font-size="6.5" textLength="18.0" lengthAdjust="spacing" font-weight="500" paint-order="stroke" stroke="#f3f5ee" stroke-width="1.55" stroke-linejoin="round" fill="#6f777a">2722</text><text x="15.0" y="246.0" text-anchor="middle" font-family="Arial, sans-serif" font-size="6.5" textLength="18.0" lengthAdjust="spacing" font-weight="500" paint-order="stroke" stroke="#f3f5ee" stroke-width="1.55" stroke-linejoin="round" fill="#6f777a">255</text><text x="100.7" y="223.4" text-anchor="middle" font-family="Arial, sans-serif" font-size="6.5" textLength="18.0" lengthAdjust="spacing" font-weight="500" paint-order="stroke" stroke="#f3f5ee" stroke-width="1.55" stroke-linejoin="round" fill="#6f777a">290</text><text x="43.0" y="136.1" text-anchor="middle" font-family="Arial, sans-serif" font-size="6.5" textLength="18.0" lengthAdjust="spacing" font-weight="500" paint-order="stroke" stroke="#f3f5ee" stroke-width="1.55" stroke-linejoin="round" fill="#6f777a">2723</text><text x="48.8" y="218.6" text-anchor="middle" font-family="Arial, sans-serif" font-size="6.5" textLength="18.0" lengthAdjust="spacing" font-weight="500" paint-order="stroke" stroke="#f3f5ee" stroke-width="1.55" stroke-linejoin="round" fill="#6f777a">2728</text><text x="15.0" y="216.7" text-anchor="middle" font-family="Arial, sans-serif" font-size="6.5" textLength="18.0" lengthAdjust="spacing" font-weight="500" paint-order="stroke" stroke="#f3f5ee" stroke-width="1.55" stroke-linejoin="round" fill="#6f777a">2734</text><text x="15.0" y="141.3" text-anchor="middle" font-family="Arial, sans-serif" font-size="6.5" textLength="18.0" lengthAdjust="spacing" font-weight="500" paint-order="stroke" stroke="#f3f5ee" stroke-width="1.55" stroke-linejoin="round" fill="#6f777a">2733</text><text x="106.2" y="124.8" text-anchor="middle" font-family="Arial, sans-serif" font-size="6.5" textLength="18.0" lengthAdjust="spacing" font-weight="500" paint-order="stroke" stroke="#f3f5ee" stroke-width="1.55" stroke-linejoin="round" fill="#6f777a">310</text><text x="98.0" y="67.5" text-anchor="middle" font-family="Arial, sans-serif" font-size="6.5" textLength="18.0" lengthAdjust="spacing" font-weight="500" paint-order="stroke" stroke="#f3f5ee" stroke-width="1.55" stroke-linejoin="round" fill="#6f777a">360</text><text x="97.1" y="40.0" text-anchor="middle" font-family="Arial, sans-serif" font-size="6.5" textLength="18.0" lengthAdjust="spacing" font-weight="500" paint-order="stroke" stroke="#f3f5ee" stroke-width="1.55" stroke-linejoin="round" fill="#6f777a">374</text><text x="96.5" y="95.1" text-anchor="middle" font-family="Arial, sans-serif" font-size="6.5" textLength="18.0" lengthAdjust="spacing" font-weight="500" paint-order="stroke" stroke="#f3f5ee" stroke-width="1.55" stroke-linejoin="round" fill="#6f777a">348</text><text x="107.0" y="150.0" text-anchor="middle" font-family="Arial, sans-serif" font-size="6.5" textLength="18.0" lengthAdjust="spacing" font-weight="500" paint-order="stroke" stroke="#f3f5ee" stroke-width="1.55" stroke-linejoin="round" fill="#6f777a">300</text><text x="192.8" y="85.2" text-anchor="middle" font-family="Arial, sans-serif" font-size="6.5" textLength="18.0" lengthAdjust="spacing" font-weight="500" paint-order="stroke" stroke="#f3f5ee" stroke-width="1.55" stroke-linejoin="round" fill="#6f777a">301</text><text x="231.3" y="246.0" text-anchor="middle" font-family="Arial, sans-serif" font-size="6.5" textLength="18.0" lengthAdjust="spacing" font-weight="500" paint-order="stroke" stroke="#f3f5ee" stroke-width="1.55" stroke-linejoin="round" fill="#6f777a">285</text><text x="217.3" y="59.4" text-anchor="middle" font-family="Arial, sans-serif" font-size="6.5" textLength="18.0" lengthAdjust="spacing" font-weight="500" paint-order="stroke" stroke="#f3f5ee" stroke-width="1.55" stroke-linejoin="round" fill="#6f777a">315</text><g><title>Bank of America</title><circle cx="100.7" cy="223.4" r="4.6" fill="#568e70" stroke="#ffffff" stroke-width="1.7"/><path d="M97.5,221.7 H103.8 L100.7,219.9 Z M97.9,225.9 H103.4" stroke="#ffffff" stroke-width="1.10" stroke-linejoin="round" stroke-linecap="round" fill="none"/><path d="M98.8,222.3 V225.2 M100.7,222.3 V225.2 M102.5,222.3 V225.2" stroke="#ffffff" stroke-width="1.10" stroke-linecap="round"/></g><g opacity="0.56"><title>crossing</title><path d="M177.5,173.2 L182.1,173.2 M177.5,175.0 L182.1,175.0 M177.5,176.8 L182.1,176.8" stroke="#ffffff" stroke-width="2.1" stroke-linecap="round"/><path d="M177.5,173.2 L182.1,173.2 M177.5,175.0 L182.1,175.0 M177.5,176.8 L182.1,176.8" stroke="#59656a" stroke-width="0.85" stroke-linecap="round"/></g><g opacity="0.56"><title>crossing</title><path d="M115.4,11.6 L120.0,11.6 M115.4,13.4 L120.0,13.4 M115.4,15.2 L120.0,15.2" stroke="#ffffff" stroke-width="2.1" stroke-linecap="round"/><path d="M115.4,11.6 L120.0,11.6 M115.4,13.4 L120.0,13.4 M115.4,15.2 L120.0,15.2" stroke="#59656a" stroke-width="0.85" stroke-linecap="round"/></g><g opacity="0.56"><title>crossing</title><path d="M117.4,175.3 L122.0,175.3 M117.4,177.1 L122.0,177.1 M117.4,178.9 L122.0,178.9" stroke="#ffffff" stroke-width="2.1" stroke-linecap="round"/><path d="M117.4,175.3 L122.0,175.3 M117.4,177.1 L122.0,177.1 M117.4,178.9 L122.0,178.9" stroke="#59656a" stroke-width="0.85" stroke-linecap="round"/></g></svg>