<svg xmlns="http://www.w3.org/2000/svg" width="256" height="256" viewBox="0 0 256 256"><rect width="256" height="256" fill="#f1efe7"/><path d="M-1802.7,-6701.7 L-1587.9,-6791.0 L-1520.7,-6823.3 L-1220.2,-6967.6 L-1163.8,-6913.0 L-1158.9,-6908.3 L-1053.5,-6998.5 L-1028.4,-7017.6 L-986.5,-7055.4 L-750.4,-7272.2 L-559.9,-7489.8 L-552.6,-7503.7 L-545.6,-7511.6 L-534.5,-7524.3 L-523.2,-7537.2 L-518.6,-7542.5 L-593.7,-7639.6 L-494.3,-7699.2 L-440.4,-7627.5 L-364.2,-7714.7 L-428.7,-7800.1 L-348.8,-7883.4 L-287.3,-7802.4 L-216.7,-7882.8 L-186.6,-7902.5 L-39.4,-7998.0 L33.3,-8046.3 L120.9,-8103.9 L162.3,-8131.1 L267.2,-8198.8 L240.2,-8234.3 L191.9,-8299.0 L316.8,-8378.4 L362.3,-8401.9 L365.8,-8404.4 L389.8,-8422.9 L475.4,-8468.7 L481.3,-8477.9 L505.3,-8494.4 L518.3,-8513.4 L522.0,-8516.2 L542.9,-8524.3 L590.1,-8541.2 L622.4,-8555.4 L736.5,-8609.0 L737.9,-8605.3 L833.6,-8646.2 L872.7,-8596.1 L959.8,-8654.2 L972.2,-8662.7 L973.4,-8663.7 L974.6,-8665.3 L976.5,-8668.6 L977.5,-8671.7 L978.1,-8675.4 L978.0,-8678.4 L977.6,-8681.3 L977.2,-8684.6 L977.1,-8687.1 L977.3,-8689.2 L977.7,-8691.4 L979.3,-8695.4 L980.4,-8697.6 L982.9,-8701.4 L985.5,-8704.2 L998.2,-8709.3 L1008.8,-8713.3 L1022.3,-8717.7 L1028.6,-8719.4 L1039.8,-8723.1 L1047.7,-8725.9 L1058.6,-8730.4 L1073.4,-8736.9 L1089.4,-8744.4 L1098.0,-8748.6 L1108.8,-8754.1 L1118.9,-8759.7 L1129.0,-8765.7 L1139.3,-8772.4 L1142.5,-8774.6 L1163.2,-8790.4 L1180.6,-8803.8 L1197.6,-8818.2 L1213.5,-8833.2 L1225.0,-8846.1 L1236.4,-8860.0 L1250.4,-8878.0 L1263.2,-8896.0 L1277.9,-8919.1 L1287.5,-8937.0 L1293.5,-8948.4 L1302.4,-8967.7 L1309.9,-8985.6 L1316.6,-9004.9 L1322.0,-9021.8 L1327.9,-9049.2 L1332.2,-9073.7 L1334.5,-9094.7 L1336.5,-9119.5 L1336.7,-9146.0 L1335.1,-9170.5 L1330.9,-9202.5 L1326.5,-9224.3 L1321.5,-9244.9 L1314.1,-9268.3 L1307.8,-9286.2 L1300.6,-9305.7 L1293.8,-9321.9 L1289.2,-9332.4 L1287.3,-9340.1 L1287.0,-9346.0 L1287.6,-9351.3 L1289.7,-9355.9 L1292.9,-9359.8 L1297.1,-9362.0 L1301.6,-9362.6 L1313.7,-9359.7 L1347.4,-9351.6 L1358.6,-9606.3 L1402.3,-10060.9 L1354.8,-10072.1 L1349.6,-10086.4 L1349.8,-10106.9 L1356.4,-10153.4 L1365.4,-10163.9 L1373.4,-10194.1 L1423.9,-10182.4 L1451.7,-10472.9 L1459.4,-10553.3 L1443.7,-10557.2 L1453.2,-10595.6 L1420.9,-10603.3 L1425.0,-10626.8 L1430.7,-10642.3 L1437.8,-10660.4 L1449.8,-10685.7 L1462.7,-10682.8 L1480.1,-10865.5 L1484.2,-10976.3 L1485.0,-10996.7 L1494.4,-11067.2 L1513.1,-11242.9 L1637.9,-11568.3 L1666.4,-11657.0 L2013.1,-11790.0 L2047.0,-11803.6 L2052.9,-11806.8 L2057.5,-11811.0 L2062.6,-11816.9 L2066.5,-11823.8 L2069.1,-11830.6 L2069.7,-11840.5 L2069.2,-11852.8 L2064.6,-12008.3 L2062.9,-12038.4 L2062.4,-12059.1 L2061.7,-12099.3 L2060.9,-12111.9 L2059.4,-12122.5 L2057.3,-12131.9 L2054.2,-12141.5 L2049.3,-12152.8 L2042.1,-12164.9 L2035.1,-12174.5 L2029.7,-12183.6 L2024.2,-12195.7 L2019.6,-12207.3 L2017.8,-12216.8 L2016.4,-12227.3 L2015.7,-12237.8 L2016.0,-12248.0 L2017.2,-12259.9 L2020.0,-12271.6 L2023.7,-12282.0 L2027.6,-12291.5 L2032.6,-12300.7 L2038.7,-12311.9 L2042.7,-12322.0 L2046.2,-12334.9 L2052.6,-12344.7 L2050.4,-12433.9 L2047.1,-12439.1 L2046.1,-12499.7 L2044.4,-12571.2 L2045.6,-12581.1 L2048.8,-12591.2 L2056.8,-12607.0 L2110.3,-12722.1 L2111.4,-12724.0 L2120.8,-12744.5 L2129.7,-12763.9 L2139.7,-12783.9 L2149.5,-12804.5 L2154.3,-12814.5 L2206.9,-12922.4 L2263.1,-13041.6 L2384.7,-13288.4 L2311.6,-13370.3 L2252.0,-13243.3 L2200.5,-13133.4 L2192.7,-13117.8 L2176.8,-13085.3 L2145.0,-13088.0 L2136.3,-13088.5 L2133.2,-13085.7 L2137.4,-13081.9 L2121.1,-13067.4 L2108.2,-13055.5 L2105.8,-13004.6 L2101.0,-12994.4 L2085.4,-12995.0 L2082.8,-12995.9 L1878.4,-13080.3 L1874.0,-13082.6 L1869.3,-13085.6 L1861.9,-13091.2 L1856.2,-13096.6 L1851.4,-13101.8 L1846.7,-13108.2 L1843.1,-13113.8 L1840.3,-13119.6 L1838.1,-13125.7 L1836.6,-13129.9 L1835.5,-13135.0 L1834.7,-13141.0 L1833.9,-13149.2 L1833.9,-13160.9 L1832.5,-13200.6 L1838.1,-13200.9 L1837.3,-13221.9 L1836.4,-13256.5 L1841.6,-13256.6 L1841.2,-13280.2 L1835.3,-13280.1 L1832.6,-13379.5 L1838.2,-13379.8 L1837.3,-13403.1 L1831.9,-13402.9 L1829.6,-13476.4 L1856.6,-13505.5 L1891.1,-13506.7 L1916.8,-13507.6 L1950.7,-13508.7 L1983.3,-13509.7 L2012.5,-13510.7 L2025.2,-13511.3 L2024.6,-13522.6 L2024.4,-13534.4 L2022.5,-13572.7 L2021.8,-13645.8 L2020.8,-13647.1 L2020.6,-13654.3 L2022.7,-13654.4 L2017.6,-13830.5 L2013.2,-13996.2 L2012.5,-14001.4 L2012.1,-14011.0 L1939.9,-14008.4 L1891.9,-14012.5 L1532.6,-14000.0 L1532.5,-14003.2 L1531.8,-14018.5 L1361.4,-14012.5 L1361.1,-14040.8 L1338.6,-14045.9 L1334.6,-14167.0 L1997.4,-14190.0 L2008.4,-14205.1 L2008.0,-14248.1 L2007.2,-14285.3 L2006.6,-14308.6 L2005.7,-14331.3 L1953.0,-14356.1 L1950.9,-14411.2 L2004.9,-14438.0 L2000.0,-14565.5 L1998.6,-14571.8 L1944.9,-14596.9 L1943.2,-14665.1 L1994.2,-14691.4 L1971.5,-14968.3 L1977.5,-15091.5 L1980.5,-15292.4 L1980.3,-15510.9 L1985.1,-15541.5 L1985.4,-15556.3 L1980.6,-15574.1 L1985.6,-15574.1 L1985.6,-15590.2 L1988.6,-16001.2 L1988.1,-16019.5 L1982.4,-16019.5 L1982.6,-16095.1 L1979.3,-16099.8 L1974.1,-16177.8 L1984.4,-16249.1 L1983.1,-16335.4 L1979.6,-16356.1 L1984.9,-16420.0 L1981.3,-16497.3 L1972.3,-16580.0 L1955.2,-16714.0 L1963.3,-16750.9 L1959.7,-16786.8 L1929.1,-16812.9 L1884.2,-16812.5 L1815.8,-16803.5 L1771.3,-16803.5 L1730.9,-16818.3 L1677.8,-16854.7 L1677.8,-16920.0 L1676.4,-17000.3 L1681.6,-17067.2 L1699.2,-17119.4 L1993.9,-17124.9 L2000.7,-17542.8 L2000.7,-18144.4 L1997.6,-18362.7 L17909.8,-24934.4 L17909.8,11283.8 L-1802.7,11283.8 L-1802.7,-6701.7 Z" fill="#add7e1" stroke="none"><title>Biscayne Bay</title></path><path d="M-9194.8,2583.5 L-9739.0,2181.8 L-9782.5,2149.8 L-9829.7,2139.5 L-9863.0,2111.5 L-9889.6,2108.4 L-9975.6,2114.1 L-9975.5,2106.0 L-9980.3,2098.4 L-9989.9,2092.5 L-10176.7,2011.6 L-10189.4,2005.8 L-10200.5,2002.6 L-10214.3,2001.5 L-10228.2,2001.2 L-10274.6,2001.2 L-10286.9,2000.5 L-10299.0,1998.1 L-10311.8,1993.1 L-10327.2,1989.0 L-10338.4,1988.0 L-10371.3,1986.6 L-10382.3,1984.6 L-10396.3,1980.1 L-10410.0,1976.6 L-10423.3,1973.5 L-10433.7,1969.3 L-10446.3,1961.5 L-10457.5,1953.1 L-10468.4,1944.9 L-10477.3,1940.7 L-10484.1,1939.3 L-10490.2,1939.7 L-10496.7,1941.5 L-10504.3,1945.4 L-10510.3,1952.0 L-10518.4,1959.9 L-10527.4,1968.2 L-10537.6,1973.8 L-10550.5,1978.0 L-10561.2,1980.6 L-10574.1,1982.6 L-10595.7,1985.1 L-10649.9,1987.7 L-10695.9,1990.0 L-10715.7,1997.1 L-10756.3,1998.5 L-10761.8,1990.0 L-10767.9,1986.1 L-10774.2,1984.9 L-10818.0,1987.4 L-10837.0,1994.2 L-10860.3,1994.4 L-10876.0,1992.1 L-10888.9,1988.2 L-10936.0,1991.0 L-11060.6,2000.7 L-11089.3,2001.5 L-11099.1,2001.3 L-11107.9,1999.1 L-11118.1,1994.0 L-11125.6,1988.0 L-11158.0,1988.1 L-11185.1,1987.7 L-11192.4,1992.2 L-11229.7,1993.1 L-11234.5,2001.0 L-11239.8,2001.2 L-11249.0,1999.0 L-11265.5,1997.0 L-11282.5,1997.9 L-11287.7,1999.5 L-11293.0,1998.6 L-11296.6,1995.1 L-11302.7,1991.6 L-11325.4,1991.7 L-11348.3,1992.9 L-11370.0,2005.7 L-11380.7,2010.8 L-11392.9,2013.5 L-11403.0,2014.2 L-11412.1,2012.8 L-11433.1,2003.8 L-11445.1,2000.0 L-11455.3,1998.5 L-11500.0,1999.1 L-11502.8,1993.7 L-11542.3,1994.6 L-11569.5,1999.6 L-11587.4,2001.7 L-11597.0,2003.8 L-11600.7,2001.3 L-11607.5,2000.4 L-11671.2,1994.6 L-11676.7,1997.6 L-11683.4,1999.0 L-11692.2,1999.1 L-11692.2,1995.9 L-11731.7,1988.5 L-11756.6,1983.7 L-11816.8,1963.5 L-11820.1,1968.0 L-11860.3,1955.6 L-11868.7,1952.8 L-11864.6,1938.8 L-11869.4,1937.3 L-11870.4,1935.8 L-11873.0,1935.0 L-11876.6,1934.5 L-11881.0,1932.3 L-11879.5,1931.0 L-11897.3,1916.5 L-11926.9,1889.7 L-11942.8,1875.7 L-11954.1,1863.4 L-11960.4,1855.1 L-11969.8,1842.3 L-11975.2,1832.4 L-11992.0,1811.3 L-11993.6,1810.1 L-11994.7,1810.0 L-11995.9,1810.2 L-11998.1,1810.3 L-12000.1,1809.3 L-12004.3,1806.6 L-12012.9,1802.1 L-12017.1,1798.5 L-12022.0,1794.2 L-12028.7,1790.6 L-12039.2,1787.3 L-12050.3,1785.3 L-12059.8,1785.1 L-12057.1,1759.9 L-12054.9,1727.0 L-12044.6,1728.0 L-12034.3,1729.8 L-12020.8,1733.8 L-12010.9,1737.5 L-12002.0,1741.6 L-11993.4,1745.6 L-11985.3,1750.2 L-11978.7,1755.3 L-11969.9,1762.1 L-11960.7,1769.0 L-11958.6,1770.3 L-11956.7,1770.7 L-11931.5,1769.6 L-11931.2,1775.3 L-11932.7,1777.8 L-11951.6,1779.6 L-11946.8,1789.4 L-11943.5,1788.2 L-11940.5,1791.2 L-11938.6,1794.1 L-11937.0,1796.3 L-11933.1,1801.5 L-11931.6,1807.2 L-11925.5,1815.6 L-11911.1,1824.7 L-11893.2,1833.8 L-11871.8,1847.3 L-11862.0,1851.9 L-11841.4,1863.6 L-11831.7,1868.7 L-11814.0,1875.2 L-11779.2,1884.5 L-11758.8,1889.4 L-11740.2,1891.3 L-11730.3,1892.6 L-11728.1,1892.4 L-11727.2,1891.1 L-11726.9,1884.5 L-11703.8,1884.5 L-11703.3,1891.9 L-11654.9,1894.4 L-11607.7,1895.8 L-11575.6,1894.6 L-11565.0,1893.8 L-11557.3,1892.8 L-11551.0,1891.0 L-11545.2,1887.5 L-11542.3,1882.8 L-11543.4,1805.3 L-11523.9,1804.2 L-11522.2,1879.8 L-11521.1,1881.7 L-11517.2,1884.4 L-11512.7,1885.7 L-11409.3,1885.9 L-11409.8,1852.6 L-11401.7,1852.4 L-11398.3,1885.9 L-11334.5,1885.3 L-11334.5,1881.7 L-11328.2,1881.6 L-11328.0,1884.2 L-10902.5,1876.1 L-10871.7,1872.5 L-10834.1,1871.4 L-10798.5,1876.1 L-10786.6,1875.1 L-10777.9,1873.4 L-10769.8,1870.5 L-10759.3,1866.5 L-10545.4,1862.7 L-10545.5,1847.9 L-10425.8,1845.8 L-10425.7,1862.1 L-10374.9,1863.9 L-10371.0,1863.8 L-10367.4,1863.5 L-10362.7,1862.9 L-10358.9,1861.9 L-10355.2,1860.7 L-10348.9,1857.7 L-10346.0,1862.7 L-10339.8,1858.8 L-10334.1,1854.2 L-10329.3,1849.2 L-10325.1,1843.3 L-10321.2,1836.0 L-10328.5,1831.9 L-10326.5,1825.8 L-10325.2,1819.5 L-10324.5,1813.5 L-10324.4,1808.8 L-10324.6,1804.4 L-10325.3,1766.5 L-10331.4,1760.9 L-10326.2,1755.4 L-10331.5,1750.8 L-10325.5,1743.7 L-10332.0,1738.0 L-10326.8,1732.5 L-10332.0,1727.5 L-10325.9,1721.0 L-10332.2,1714.6 L-10319.1,1700.2 L-10316.8,1700.1 L-10322.5,1485.6 L-10274.4,1484.5 L-10272.1,1485.7 L-10269.5,1487.7 L-10267.6,1489.4 L-10266.8,1491.4 L-10266.1,1493.8 L-10265.9,1496.2 L-10261.8,1829.5 L-10259.9,1840.3 L-10257.2,1847.6 L-10253.0,1856.6 L-10248.1,1865.4 L-10243.0,1872.4 L-10238.9,1876.7 L-10234.5,1880.1 L-10229.4,1883.1 L-10224.1,1885.1 L-10216.9,1887.2 L-10208.0,1888.9 L-10197.2,1890.9 L-10184.6,1893.2 L-10172.6,1895.8 L-10159.3,1898.2 L-10146.7,1900.9 L-10142.7,1901.7 L-10137.8,1902.7 L-10133.0,1903.3 L-10128.8,1903.4 L-10124.0,1903.4 L-10120.3,1903.2 L-10116.6,1902.5 L-10113.4,1901.7 L-10110.0,1900.7 L-10107.1,1899.4 L-10101.3,1896.6 L-10096.2,1893.6 L-10091.1,1889.9 L-10085.2,1884.2 L-10079.7,1878.0 L-10076.7,1872.7 L-10074.0,1866.2 L-10072.6,1860.9 L-10071.8,1855.2 L-10071.3,1849.8 L-10071.3,1844.8 L-10078.6,1487.6 L-10068.2,1476.9 L-10064.4,1476.5 L-10062.9,1475.1 L-10041.2,1474.5 L-10039.3,1471.3 L-10036.0,1472.2 L-10030.5,1477.3 L-10026.7,1482.6 L-10022.9,1489.2 L-10015.7,1888.4 L-10015.0,1895.4 L-10013.7,1909.3 L-10012.4,1912.1 L-10013.4,1912.8 L-10011.6,1916.7 L-10009.3,1921.3 L-10007.3,1924.2 L-10004.9,1927.7 L-10001.6,1931.5 L-9997.7,1935.5 L-9993.0,1939.5 L-9988.8,1942.6 L-9984.2,1945.1 L-9979.8,1947.3 L-9975.1,1948.8 L-9974.5,1947.4 L-9908.3,1971.4 L-9900.0,1974.5 L-9896.2,1975.9 L-9890.3,1978.0 L-9886.0,1979.0 L-9882.3,1979.5 L-9878.9,1979.5 L-9874.1,1979.1 L-9868.9,1978.6 L-9864.3,1977.6 L-9859.6,1976.3 L-9856.1,1974.9 L-9852.4,1973.2 L-9849.4,1971.3 L-9845.6,1968.5 L-9840.8,1964.3 L-9836.4,1960.0 L-9831.6,1954.0 L-9828.2,1948.4 L-9825.4,1942.2 L-9823.4,1935.3 L-9822.2,1928.3 L-9821.5,1915.8 L-9821.8,1890.3 L-9829.1,1484.2 L-9829.1,1479.7 L-9828.3,1476.5 L-9826.9,1473.9 L-9824.0,1471.5 L-9820.7,1469.8 L-9817.0,1469.2 L-9786.9,1468.2 L-9783.3,1468.8 L-9780.1,1470.2 L-9777.8,1472.4 L-9775.2,1476.2 L-9773.7,1481.6 L-9772.8,1488.9 L-9765.3,2009.8 L-9764.9,2012.9 L-9764.3,2016.0 L-9763.4,2019.2 L-9762.3,2022.7 L-9761.1,2026.2 L-9759.7,2029.4 L-9758.5,2032.1 L-9757.2,2034.5 L-9755.3,2037.5 L-9753.2,2040.1 L-9751.3,2042.5 L-9748.4,2045.6 L-9745.6,2048.3 L-9742.5,2050.8 L-9739.2,2053.3 L-9730.0,2059.1 L-9729.1,2058.0 L-9721.0,2062.5 L-9711.4,2067.7 L-9705.9,2070.7 L-9699.8,2074.3 L-9693.5,2078.0 L-9687.0,2082.0 L-9679.7,2086.5 L-9672.5,2091.0 L-9665.3,2095.3 L-9659.3,2099.0 L-9652.6,2103.3 L-9645.5,2107.9 L-9638.7,2112.4 L-9632.4,2116.7 L-9633.1,2117.6 L-9624.3,2123.7 L-9615.2,2129.8 L-9612.4,2131.5 L-9609.3,2133.2 L-9604.9,2135.3 L-9600.8,2136.8 L-9596.4,2138.0 L-9592.5,2139.0 L-9587.9,2139.7 L-9582.8,2140.3 L-9578.4,2140.3 L-9574.7,2140.0 L-9571.5,2139.3 L-9567.4,2138.2 L-9563.3,2136.9 L-9559.5,2135.6 L-9556.0,2133.9 L-9552.4,2132.0 L-9548.9,2129.8 L-9545.3,2127.0 L-9542.1,2124.1 L-9539.0,2121.0 L-9536.1,2117.8 L-9533.1,2113.4 L-9530.6,2109.0 L-9528.2,2104.1 L-9526.8,2100.3 L-9525.7,2096.3 L-9524.9,2092.0 L-9524.5,2087.7 L-9524.8,2082.8 L-9584.1,1515.1 L-9580.0,1514.7 L-9583.3,1486.3 L-9586.3,1486.5 L-9588.7,1473.4 L-9587.9,1470.7 L-9585.4,1466.7 L-9580.3,1462.8 L-9573.6,1462.0 L-9546.7,1461.1 L-9542.2,1462.0 L-9539.1,1463.5 L-9535.8,1466.1 L-9533.5,1468.5 L-9531.9,1471.0 L-9466.9,2107.9 L-9465.4,2113.4 L-9462.6,2120.2 L-9460.2,2124.6 L-9457.6,2129.3 L-9454.2,2133.9 L-9451.4,2137.1 L-9448.3,2140.3 L-9444.9,2143.0 L-9441.9,2145.1 L-9437.7,2147.8 L-9434.0,2149.7 L-9429.1,2151.8 L-9424.5,2153.2 L-9419.3,2154.3 L-9415.3,2154.9 L-9411.8,2155.0 L-9407.7,2155.1 L-9266.5,2152.2 L-9261.9,2151.6 L-9257.5,2149.5 L-9254.3,2146.6 L-9252.1,2142.2 L-9251.3,2138.2 L-9251.5,2134.2 L-9323.0,1452.1 L-9386.0,1369.9 L-9388.8,1372.2 L-9443.6,1295.7 L-9444.6,1279.5 L-9446.3,1276.1 L-9449.2,1273.0 L-9452.9,1267.8 L-9453.2,1260.2 L-9459.7,1257.7 L-9466.0,1257.6 L-9474.5,1261.8 L-9464.9,1279.8 L-9477.0,1285.6 L-9486.1,1277.2 L-9493.9,1272.4 L-9499.2,1270.6 L-9512.2,1270.1 L-9518.8,1256.7 L-9477.3,1239.7 L-9479.3,1236.3 L-9488.1,1224.5 L-9489.5,1225.2 L-9798.4,820.7 L-9803.1,754.0 L-9800.6,753.4 L-9812.5,631.1 L-9817.1,619.8 L-9822.1,607.1 L-9825.9,597.3 L-9830.5,584.8 L-9845.5,542.7 L-9851.6,545.4 L-9860.5,511.3 L-9859.0,511.0 L-9890.1,426.7 L-9893.5,279.3 L-9889.9,279.3 L-9889.4,266.4 L-9887.6,253.7 L-9886.9,249.0 L-9888.2,245.2 L-9884.0,225.1 L-9845.7,157.3 L-9865.8,145.1 L-9850.9,120.4 L-9831.5,131.8 L-9829.8,129.2 L-9823.7,132.3 L-9817.1,134.9 L-9809.5,137.3 L-9803.8,138.5 L-9798.4,138.7 L-9792.0,137.6 L-9785.7,135.5 L-9779.5,133.1 L-9776.6,130.0 L-9775.5,125.9 L-9774.0,121.0 L-9773.7,119.0 L-9773.8,116.5 L-9775.2,112.6 L-9777.8,108.9 L-9780.8,106.8 L-9785.2,102.6 L-9789.0,98.6 L-9794.6,95.0 L-9796.9,89.3 L-9799.6,83.6 L-9803.9,76.9 L-9808.8,71.1 L-9817.8,64.7 L-9861.4,42.1 L-9887.2,29.3 L-9911.3,16.3 L-9934.2,3.6 L-9949.0,-6.0 L-9954.7,-7.5 L-9961.0,-5.6 L-9964.5,-1.3 L-9971.6,16.4 L-10015.7,-3.4 L-9989.3,-45.1 L-9983.5,-47.8 L-9976.4,-49.2 L-9968.1,-47.4 L-9802.4,49.5 L-9793.4,52.2 L-9784.0,54.5 L-9770.7,54.8 L-9757.2,52.4 L-9748.6,48.9 L-9739.2,41.3 L-9733.7,36.0 L-9727.8,27.7 L-9727.9,26.6 L-9728.3,25.6 L-9729.2,24.8 L-9782.8,-8.3 L-9784.1,-8.7 L-9785.5,-8.8 L-9786.9,-8.7 L-9792.0,-6.5 L-9793.9,-6.3 L-9796.0,-6.5 L-9799.1,-7.0 L-9801.5,-7.7 L-9804.9,-9.4 L-9808.2,-11.3 L-9881.9,-56.3 L-9916.6,-80.7 L-9919.9,-81.2 L-9923.2,-81.1 L-9927.1,-81.0 L-9929.7,-81.4 L-9931.9,-82.4 L-9934.5,-84.4 L-9937.4,-86.7 L-9939.4,-89.5 L-9940.6,-92.3 L-9940.8,-94.4 L-9940.5,-97.1 L-9940.0,-99.4 L-9928.2,-119.2 L-9928.2,-120.1 L-9929.1,-120.8 L-9939.9,-128.4 L-9942.0,-131.5 L-9940.8,-133.4 L-9937.3,-132.9 L-9933.5,-131.8 L-9911.3,-118.1 L-9785.5,-37.8 L-9782.9,-36.3 L-9781.1,-34.4 L-9779.9,-32.2 L-9778.6,-27.6 L-9777.7,-24.0 L-9777.2,-20.9 L-9720.4,13.2 L-9718.4,14.1 L-9716.0,14.3 L-9713.2,13.9 L-9711.2,13.2 L-9709.5,12.4 L-9648.4,-86.5 L-9622.8,-124.1 L-9598.9,-151.0 L-9586.8,-144.3 L-9579.0,-156.9 L-9620.5,-181.7 L-9611.7,-196.1 L-9570.2,-171.1 L-9560.9,-186.3 L-9568.4,-194.7 L-9560.8,-203.4 L-9552.6,-194.0 L-9550.6,-195.5 L-9548.3,-197.1 L-9545.1,-198.9 L-9541.8,-200.5 L-9537.7,-202.0 L-9533.8,-203.1 L-9529.6,-203.8 L-9525.4,-204.1 L-9521.4,-204.0 L-9517.5,-203.4 L-9513.8,-202.5 L-9510.7,-201.6 L-9508.0,-200.4 L-9504.2,-198.6 L-9500.7,-196.4 L-9497.7,-194.3 L-9494.7,-191.6 L-9492.0,-189.0 L-9489.0,-185.1 L-9486.9,-181.6 L-9484.8,-177.1 L-9483.4,-172.6 L-9482.2,-166.4 L-9481.8,-161.0 L-9481.9,-157.9 L-9482.3,-154.7 L-9483.4,-149.9 L-9486.2,-143.3 L-9488.0,-139.0 L-9490.5,-133.9 L-9480.1,-128.7 L-9431.5,-186.7 L-9520.0,-240.5 L-9515.5,-250.1 L-9512.3,-259.0 L-9512.1,-262.8 L-9507.0,-273.7 L-9496.5,-283.4 L-9483.5,-294.0 L-9468.0,-303.9 L-9438.9,-312.4 L-9388.7,-317.4 L-9368.9,-333.4 L-9364.8,-334.1 L-9361.5,-334.3 L-9356.8,-332.5 L-9352.5,-332.0 L-9324.6,-315.1 L-9251.2,-402.2 L-9520.2,-573.2 L-9536.9,-546.9 L-9573.2,-569.9 L-9521.7,-650.9 L-9485.5,-628.5 L-9501.6,-600.9 L-9227.9,-428.4 L-9193.4,-472.7 L-9169.0,-501.7 L-9136.8,-550.1 L-9119.0,-574.5 L-9120.8,-588.4 L-9120.3,-588.8 L-9123.5,-599.1 L-9125.6,-605.5 L-9127.6,-612.1 L-9130.0,-617.8 L-9134.6,-625.3 L-9139.2,-632.6 L-9141.2,-636.4 L-9142.7,-640.2 L-9143.8,-643.7 L-9144.2,-646.8 L-9144.7,-657.0 L-9262.9,-765.5 L-9266.8,-761.3 L-9270.1,-764.1 L-9279.7,-754.6 L-9286.0,-763.0 L-9278.4,-771.8 L-9286.0,-781.5 L-9291.2,-780.1 L-9296.6,-779.9 L-9301.5,-780.8 L-9305.8,-782.6 L-9310.8,-786.3 L-9317.0,-792.4 L-9327.9,-804.4 L-9331.2,-809.5 L-9332.4,-815.9 L-9331.6,-823.5 L-9328.7,-830.5 L-9326.2,-835.3 L-9321.4,-840.1 L-9316.1,-843.7 L-9311.0,-845.6 L-9307.2,-846.2 L-9302.2,-845.3 L-9297.1,-843.5 L-9292.3,-839.7 L-9281.2,-829.7 L-9275.5,-824.3 L-9270.3,-818.6 L-9268.6,-815.9 L-9267.4,-813.0 L-9266.7,-810.4 L-9266.2,-806.8 L-9266.8,-803.4 L-9267.8,-800.2 L-9269.2,-797.8 L-9269.6,-796.7 L-9269.3,-795.3 L-9268.5,-793.9 L-9141.6,-675.0 L-9137.2,-672.0 L-9134.1,-670.7 L-9129.7,-671.7 L-9124.5,-672.1 L-9117.9,-669.3 L-9111.3,-665.2 L-9098.4,-657.9 L-9093.0,-655.3 L-9088.1,-660.1 L-9082.7,-665.3 L-9079.1,-669.4 L-9073.1,-677.2 L-9069.7,-681.9 L-9066.1,-687.7 L-9063.8,-692.8 L-9061.3,-698.2 L-9059.0,-703.9 L-9056.9,-709.7 L-9055.7,-714.6 L-9054.3,-720.8 L-9053.7,-724.5 L-9053.3,-727.5 L-9052.6,-732.8 L-9051.9,-738.0 L-9051.6,-741.4 L-9051.4,-745.1 L-9051.4,-749.4 L-9051.6,-753.0 L-9052.3,-758.0 L-9053.1,-763.7 L-9053.9,-769.0 L-9054.4,-773.3 L-9055.0,-776.5 L-9055.7,-779.9 L-9056.5,-783.3 L-9057.7,-787.3 L-9059.1,-791.3 L-9060.2,-793.7 L-9061.4,-796.1 L-9063.1,-798.4 L-9065.4,-801.7 L-9067.9,-804.8 L-9070.6,-807.4 L-9074.0,-810.2 L-9077.5,-812.4 L-9081.0,-814.3 L-9084.2,-815.5 L-9086.4,-816.2 L-9088.9,-816.5 L-9091.9,-816.4 L-9094.7,-815.8 L-9096.9,-814.9 L-9099.0,-813.4 L-9100.5,-811.8 L-9101.7,-810.3 L-9102.6,-808.0 L-9103.1,-805.5 L-9103.0,-802.5 L-9102.8,-799.0 L-9102.8,-796.4 L-9103.0,-793.8 L-9103.4,-791.2 L-9103.9,-788.9 L-9104.8,-786.5 L-9106.2,-783.9 L-9107.9,-781.4 L-9109.6,-779.1 L-9111.3,-777.5 L-9114.7,-774.8 L-9117.5,-772.9 L-9121.9,-771.6 L-9124.5,-771.0 L-9127.5,-770.6 L-9130.2,-770.5 L-9133.8,-770.7 L-9136.4,-771.2 L-9140.0,-772.0 L-9145.0,-773.5 L-9149.2,-775.1 L-9152.3,-776.3 L-9155.6,-778.1 L-9158.5,-780.1 L-9161.7,-782.6 L-9164.2,-784.9 L-9166.3,-787.0 L-9168.5,-789.6 L-9170.3,-792.0 L-9172.0,-794.4 L-9173.5,-797.1 L-9175.1,-800.7 L-9176.5,-804.0 L-9177.9,-807.6 L-9178.8,-810.4 L-9179.5,-813.0 L-9180.0,-815.7 L-9180.4,-819.9 L-9180.7,-823.6 L-9180.5,-827.6 L-9179.6,-832.9 L-9178.1,-838.1 L-9176.2,-843.5 L-9174.9,-846.0 L-9173.6,-847.5 L-9163.3,-860.6 L-9160.9,-863.3 L-9157.8,-864.8 L-9154.5,-866.0 L-9150.8,-866.8 L-9146.7,-867.3 L-9143.1,-867.5 L-9139.5,-867.4 L-9135.9,-867.0 L-9131.8,-865.8 L-9127.5,-863.7 L-9123.8,-861.4 L-9120.5,-858.8 L-9110.1,-849.2 L-9107.6,-848.4 L-9106.2,-848.1 L-9104.5,-848.5 L-9103.4,-848.9 L-9102.0,-850.5 L-9101.4,-852.1 L-9101.3,-854.3 L-9101.2,-856.3 L-9101.6,-857.2 L-9122.6,-878.0 L-9094.0,-908.5 L-9095.6,-912.1 L-9079.1,-928.4 L-9047.3,-896.6 L-9072.9,-864.0 L-9073.1,-862.1 L-9071.8,-861.3 L-9070.2,-861.7 L-9042.1,-896.9 L-9033.9,-906.8 L-9033.6,-909.1 L-9034.3,-911.1 L-9035.8,-912.9 L-9057.8,-933.7 L-9052.3,-940.1 L-9057.9,-944.8 L-9054.7,-952.2 L-8997.7,-1009.5 L-8978.1,-1012.8 L-8972.0,-1013.7 L-8966.2,-1014.5 L-8963.5,-1015.2 L-8960.3,-1016.9 L-8956.5,-1019.0 L-8953.6,-1021.9 L-8950.8,-1025.4 L-8921.7,-1067.7 L-8921.1,-1068.8 L-8921.4,-1070.2 L-8921.8,-1071.2 L-8922.5,-1072.1 L-8926.0,-1074.3 L-8926.9,-1074.8 L-8927.7,-1074.7 L-8928.6,-1074.2 L-8930.5,-1072.8 L-8954.9,-1050.0 L-8964.4,-1043.2 L-9003.4,-1083.2 L-8998.9,-1097.4 L-8997.0,-1101.6 L-8990.9,-1112.8 L-8983.8,-1125.3 L-8979.5,-1130.1 L-8971.8,-1138.3 L-8963.6,-1147.3 L-8954.6,-1156.8 L-8946.9,-1163.4 L-8943.2,-1166.7 L-8938.3,-1170.3 L-8933.8,-1172.7 L-8927.4,-1175.6 L-8923.4,-1177.0 L-8919.4,-1178.2 L-8916.3,-1178.5 L-8911.9,-1178.2 L-8908.2,-1177.7 L-8904.0,-1176.5 L-8899.9,-1173.1 L-8897.4,-1169.6 L-8895.9,-1166.0 L-8895.3,-1160.6 L-8895.5,-1153.5 L-8896.4,-1145.5 L-8898.1,-1137.8 L-8908.4,-1114.8 L-8918.2,-1094.1 L-8914.8,-1088.6 L-8913.0,-1087.5 L-8911.1,-1087.5 L-8909.4,-1087.9 L-8908.1,-1088.7 L-8901.4,-1098.2 L-8892.8,-1102.5 L-8875.7,-1148.2 L-8874.5,-1150.5 L-8872.8,-1152.5 L-8871.1,-1153.4 L-8869.5,-1153.8 L-8867.2,-1153.8 L-8864.8,-1153.2 L-8852.3,-1149.7 L-8849.9,-1149.2 L-8847.1,-1149.1 L-8844.5,-1149.5 L-8842.4,-1150.4 L-8840.6,-1151.8 L-8838.8,-1154.1 L-8817.8,-1182.2 L-8816.8,-1184.3 L-8816.3,-1186.5 L-8816.3,-1188.6 L-8816.7,-1190.8 L-8817.5,-1192.4 L-8818.7,-1194.0 L-8820.1,-1195.3 L-8822.1,-1196.3 L-8824.0,-1196.8 L-8825.9,-1196.9 L-8827.5,-1196.6 L-8829.4,-1195.7 L-8830.8,-1194.7 L-8831.9,-1193.3 L-8837.4,-1184.4 L-8838.6,-1182.7 L-8840.0,-1181.1 L-8842.1,-1179.3 L-8844.0,-1178.2 L-8846.3,-1177.5 L-8849.1,-1176.9 L-8850.7,-1176.9 L-8852.9,-1177.2 L-8854.8,-1177.7 L-8856.4,-1178.4 L-8873.6,-1194.0 L-8875.6,-1196.4 L-8877.1,-1198.6 L-8878.5,-1201.3 L-8879.4,-1203.6 L-8880.0,-1206.0 L-8880.5,-1208.6 L-8880.8,-1211.8 L-8880.9,-1215.0 L-8880.6,-1217.7 L-8880.2,-1220.0 L-8879.7,-1222.0 L-8878.9,-1223.7 L-8847.6,-1273.4 L-8845.6,-1276.7 L-8844.4,-1278.4 L-8843.0,-1279.2 L-8840.7,-1280.2 L-8838.3,-1280.9 L-8836.0,-1281.3 L-8834.7,-1281.3 L-8833.4,-1281.1 L-8832.3,-1280.7 L-8830.7,-1279.9 L-8828.8,-1278.7 L-8825.6,-1276.1 L-8811.3,-1262.7 L-8808.9,-1259.3 L-8807.5,-1256.0 L-8806.2,-1252.1 L-8805.8,-1249.1 L-8805.6,-1245.9 L-8805.6,-1243.2 L-8805.9,-1240.5 L-8806.4,-1237.8 L-8807.0,-1236.0 L-8808.6,-1232.3 L-8814.3,-1221.7 L-8814.9,-1219.3 L-8814.9,-1216.4 L-8814.7,-1214.2 L-8813.9,-1212.5 L-8812.4,-1210.9 L-8810.0,-1209.2 L-8808.0,-1208.1 L-8805.7,-1207.6 L-8803.0,-1207.7 L-8800.8,-1208.2 L-8798.3,-1209.5 L-8796.1,-1211.5 L-8759.1,-1262.3 L-8770.4,-1272.5 L-8763.6,-1279.8 L-8753.5,-1270.1 L-8732.7,-1297.4 L-8701.2,-1339.5 L-8828.0,-1461.0 L-8855.5,-1432.1 L-8887.8,-1462.6 L-8856.6,-1496.2 L-8860.7,-1500.7 L-8854.2,-1506.7 L-8850.2,-1502.6 L-8828.5,-1526.2 L-8809.0,-1508.1 L-8806.7,-1493.1 L-8724.7,-1416.6 L-8708.7,-1410.4 L-8695.9,-1414.9 L-8671.6,-1405.2 L-8655.5,-1411.1 L-8607.6,-1469.6 L-8604.9,-1475.1 L-8604.1,-1482.5 L-8606.5,-1489.8 L-8609.7,-1495.0 L-8638.1,-1521.2 L-8637.7,-1528.4 L-8632.1,-1542.5 L-8620.9,-1563.4 L-8643.0,-1577.7 L-8634.6,-1580.9 L-8629.3,-1584.3 L-8624.0,-1590.3 L-8617.8,-1606.2 L-8606.4,-1635.2 L-8599.0,-1642.0 L-8669.2,-1710.0 L-8684.6,-1700.4 L-8688.2,-1699.5 L-8691.6,-1699.4 L-8696.0,-1699.9 L-8699.6,-1700.9 L-8703.1,-1703.0 L-8706.0,-1705.5 L-8742.3,-1740.5 L-8749.1,-1747.3 L-8752.1,-1750.9 L-8754.6,-1755.4 L-8755.8,-1759.5 L-8756.3,-1763.5 L-8756.2,-1767.3 L-8755.5,-1770.9 L-8754.6,-1773.8 L-8753.4,-1775.9 L-8750.8,-1779.6 L-8747.7,-1783.3 L-8731.4,-1800.2 L-8607.4,-1685.3 L-8615.9,-1675.7 L-8524.0,-1588.8 L-8418.1,-1743.9 L-8485.3,-1806.7 L-8493.9,-1799.0 L-8619.4,-1917.5 L-8603.0,-1932.8 L-8530.9,-1865.2 L-8523.7,-1875.8 L-8519.7,-1881.1 L-8514.6,-1886.3 L-8508.7,-1892.8 L-8502.7,-1896.7 L-8493.2,-1904.7 L-8483.7,-1913.5 L-8465.5,-1930.7 L-8422.0,-1979.6 L-8414.2,-1987.7 L-8385.5,-2002.4 L-8358.3,-2023.7 L-8355.7,-2025.7 L-8348.6,-2031.2 L-8345.5,-2034.0 L-8343.0,-2037.2 L-8341.3,-2040.5 L-8340.2,-2043.8 L-8338.9,-2046.3 L-8337.4,-2049.0 L-8334.8,-2053.3 L-8333.0,-2056.0 L-8331.2,-2058.5 L-8327.9,-2061.1 L-8324.7,-2063.3 L-8321.2,-2065.4 L-8312.9,-2069.4 L-8304.9,-2073.4 L-8303.7,-2073.6 L-8302.5,-2073.4 L-8300.1,-2072.7 L-8293.6,-2069.4 L-8288.7,-2067.0 L-8286.4,-2065.6 L-8284.3,-2063.9 L-8250.9,-2032.2 L-8248.6,-2030.9 L-8237.7,-2028.0 L-8234.2,-2027.0 L-8230.3,-2026.6 L-8227.3,-2026.7 L-8225.0,-2027.5 L-8222.7,-2029.1 L-8210.8,-2045.9 L-8210.8,-2048.2 L-8211.2,-2050.3 L-8212.5,-2052.6 L-8214.5,-2054.8 L-8223.6,-2063.3 L-8222.9,-2064.7 L-8211.2,-2089.5 L-8191.2,-2129.8 L-8173.0,-2143.2 L-8162.5,-2153.7 L-8155.3,-2162.0 L-8147.7,-2169.7 L-8139.3,-2176.6 L-8134.2,-2181.3 L-8128.8,-2186.2 L-8124.8,-2190.2 L-8122.8,-2193.8 L-8121.2,-2196.6 L-8120.2,-2199.3 L-8119.8,-2202.5 L-8119.6,-2205.7 L-8113.5,-2211.9 L-8104.5,-2220.4 L-8089.5,-2232.7 L-8073.8,-2244.6 L-8066.8,-2254.4 L-8064.2,-2264.5 L-8056.4,-2269.3 L-8046.6,-2269.5 L-8036.7,-2275.4 L-8028.0,-2291.1 L-8028.2,-2307.4 L-8026.6,-2332.6 L-8024.1,-2336.2 L-8022.6,-2338.6 L-8019.8,-2343.2 L-8023.3,-2353.9 L-8019.3,-2358.9 L-7999.5,-2383.4 L-7965.5,-2423.1 L-7959.0,-2432.5 L-7956.4,-2437.4 L-7945.6,-2452.3 L-7942.6,-2461.7 L-7942.5,-2476.2 L-7942.9,-2490.7 L-7943.0,-2505.5 L-7938.6,-2521.8 L-7931.2,-2537.9 L-7920.6,-2553.4 L-7912.9,-2564.9 L-7903.8,-2576.4 L-7886.2,-2596.0 L-7808.2,-2634.6 L-7797.9,-2637.3 L-7795.3,-2631.7 L-7792.2,-2626.3 L-7791.2,-2625.3 L-7789.5,-2626.0 L-7789.2,-2629.8 L-7790.4,-2633.0 L-7786.1,-2634.3 L-7770.1,-2639.0 L-7749.3,-2645.2 L-7732.5,-2650.2 L-7726.5,-2652.0 L-7732.5,-2670.9 L-7722.1,-2673.7 L-7704.8,-2676.1 L-7702.7,-2676.4 L-7702.6,-2677.6 L-7702.6,-2682.0 L-7686.9,-2682.7 L-7662.3,-2683.7 L-7652.8,-2679.1 L-7629.1,-2593.7 L-7623.8,-2588.6 L-7634.1,-2578.0 L-7625.0,-2569.0 L-7616.0,-2560.0 L-7605.2,-2571.0 L-7404.7,-2380.4 L-7137.1,-2666.0 L-7043.6,-2576.6 L-7040.0,-2577.7 L-7038.6,-2576.1 L-7032.3,-2580.1 L-7027.1,-2582.0 L-7021.6,-2584.5 L-7012.2,-2589.4 L-7006.4,-2592.7 L-6999.5,-2596.7 L-6993.1,-2600.7 L-6987.9,-2604.1 L-6983.1,-2607.2 L-6977.5,-2611.3 L-6971.1,-2616.0 L-6966.2,-2620.1 L-6961.0,-2624.7 L-6955.3,-2630.1 L-6949.9,-2635.5 L-6937.3,-2648.9 L-6929.7,-2658.0 L-6922.3,-2667.9 L-6917.2,-2675.1 L-6912.4,-2682.5 L-6906.7,-2692.8 L-6901.7,-2702.9 L-6897.7,-2711.2 L-6894.3,-2719.5 L-6892.2,-2725.0 L-6889.9,-2731.2 L-6884.5,-2737.9 L-7055.5,-2900.6 L-7053.4,-2902.9 L-7032.9,-2924.9 L-7018.0,-2940.7 L-7016.5,-2942.3 L-6973.1,-2901.7 L-6962.6,-2907.1 L-6961.4,-2905.6 L-6859.4,-2958.7 L-6855.2,-2960.9 L-6852.3,-2963.2 L-6849.6,-2965.7 L-6846.5,-2968.9 L-6843.5,-2973.4 L-6840.9,-2977.6 L-6839.2,-2980.8 L-6838.0,-2984.9 L-6836.9,-2989.4 L-6836.4,-2994.3 L-6836.4,-2999.8 L-6836.8,-3004.2 L-6837.6,-3008.1 L-6838.9,-3012.8 L-6870.8,-3104.6 L-6875.1,-3119.7 L-6874.0,-3124.9 L-6951.0,-3144.0 L-6947.4,-3157.3 L-6944.4,-3169.3 L-6921.6,-3259.5 L-6939.3,-3312.1 L-6949.7,-3346.1 L-6952.7,-3354.6 L-6925.1,-3379.9 L-6894.0,-3396.6 L-6892.1,-3394.0 L-6889.1,-3389.7 L-6882.1,-3380.6 L-6881.3,-3381.4 L-6881.1,-3384.5 L-6890.8,-3397.9 L-6873.5,-3410.3 L-6869.7,-3412.5 L-6860.7,-3400.8 L-6859.2,-3399.7 L-6857.7,-3399.4 L-6856.9,-3399.6 L-6856.9,-3400.4 L-6899.7,-3459.0 L-6902.8,-3462.4 L-6906.4,-3467.3 L-6925.0,-3489.8 L-6909.1,-3539.1 L-6896.9,-3551.8 L-6882.8,-3558.4 L-6852.8,-3576.2 L-6846.6,-3582.6 L-6819.7,-3606.2 L-6811.2,-3597.3 L-6786.3,-3570.4 L-6763.2,-3589.8 L-6747.7,-3574.9 L-6733.8,-3561.3 L-6733.1,-3560.6 L-6721.3,-3570.7 L-6705.7,-3554.1 L-6692.3,-3536.9 L-6682.4,-3525.4 L-6681.1,-3523.9 L-6652.3,-3549.2 L-6650.8,-3550.5 L-6657.6,-3558.8 L-6641.9,-3571.7 L-6594.3,-3516.2 L-6553.8,-3542.9 L-6549.8,-3546.7 L-6532.2,-3554.1 L-6528.2,-3558.0 L-6524.4,-3563.0 L-6502.7,-3582.3 L-6507.6,-3589.0 L-6546.4,-3580.1 L-6590.8,-3630.6 L-6585.7,-3635.0 L-6579.0,-3627.2 L-6547.6,-3654.2 L-6514.3,-3617.8 L-6505.3,-3614.2 L-6499.9,-3611.1 L-6493.1,-3603.4 L-6489.4,-3606.7 L-6513.5,-3634.1 L-6498.7,-3646.9 L-6468.8,-3611.0 L-6465.0,-3613.8 L-6465.4,-3614.6 L-6399.8,-3662.0 L-6380.3,-3676.4 L-6444.0,-3756.0 L-6430.4,-3765.5 L-6375.0,-3700.6 L-6334.1,-3693.1 L-6307.1,-3708.9 L-6303.3,-3711.3 L-6303.5,-3714.3 L-6305.4,-3717.8 L-6284.3,-3731.1 L-6278.1,-3724.9 L-6260.3,-3735.4 L-6273.2,-3751.4 L-6335.5,-3834.7 L-6291.5,-3880.3 L-6262.6,-3923.0 L-6261.9,-3956.4 L-6277.3,-4000.8 L-6244.9,-4027.8 L-6210.9,-4040.9 L-6199.7,-4043.5 L-6190.7,-4044.7 L-6179.7,-4044.0 L-6168.3,-4041.2 L-6151.8,-4027.1 L-6109.0,-3974.9 L-6074.8,-3931.5 L-6033.9,-3904.2 L-6017.8,-3901.6 L-6003.4,-3899.9 L-5991.2,-3899.4 L-5975.6,-3900.5 L-5958.7,-3903.3 L-5945.0,-3907.2 L-5933.4,-3912.6 L-5925.7,-3917.1 L-5920.0,-3923.1 L-5910.4,-3934.7 L-5900.0,-3953.7 L-5888.7,-3978.9 L-5868.6,-3968.6 L-5860.6,-3965.9 L-5852.0,-3964.7 L-5838.3,-3965.6 L-5829.2,-3968.3 L-5818.8,-3972.8 L-5809.1,-3978.4 L-5798.8,-3988.4 L-5790.0,-3996.4 L-5779.0,-4003.9 L-5771.4,-4008.8 L-5760.2,-4012.8 L-5740.9,-4018.4 L-5729.5,-4021.6 L-5717.3,-4026.2 L-5706.7,-4031.7 L-5700.4,-4035.3 L-5695.4,-4040.5 L-5630.0,-4073.3 L-5627.5,-4074.7 L-5624.6,-4076.5 L-5621.6,-4078.8 L-5617.2,-4081.3 L-5614.3,-4082.7 L-5611.2,-4085.4 L-5608.8,-4087.9 L-5605.6,-4090.0 L-5602.2,-4092.4 L-5597.7,-4096.6 L-5591.3,-4097.1 L-5584.7,-4097.9 L-5580.4,-4099.3 L-5574.8,-4101.9 L-5567.9,-4105.0 L-5560.6,-4109.5 L-5556.5,-4113.4 L-5551.9,-4118.7 L-5549.0,-4123.6 L-5547.4,-4128.1 L-5547.3,-4131.3 L-5547.2,-4133.9 L-5545.6,-4144.3 L-5509.2,-4165.4 L-5445.4,-4202.2 L-5433.0,-4209.3 L-5324.8,-4271.7 L-5207.6,-4339.0 L-5157.7,-4367.6 L-5140.4,-4377.3 L-4995.5,-4461.5 L-4963.3,-4479.2 L-4963.8,-4480.3 L-4897.5,-4517.8 L-4872.0,-4532.1 L-4825.0,-4558.1 L-4824.5,-4557.4 L-4806.3,-4567.4 L-4762.1,-4592.1 L-4756.8,-4596.9 L-4712.0,-4629.7 L-4689.7,-4648.2 L-4669.2,-4665.5 L-4659.8,-4670.8 L-4638.6,-4691.8 L-4636.8,-4690.7 L-4634.0,-4691.0 L-4632.6,-4690.1 L-4602.8,-4725.0 L-4610.3,-4732.0 L-4609.3,-4733.8 L-4606.1,-4738.4 L-4597.5,-4749.3 L-4592.3,-4757.2 L-4588.2,-4763.7 L-4582.5,-4772.4 L-4577.0,-4781.4 L-4570.8,-4791.7 L-4564.4,-4802.9 L-4550.5,-4831.6 L-4546.2,-4840.7 L-4542.7,-4848.0 L-4540.3,-4853.5 L-4538.2,-4857.7 L-4533.8,-4868.7 L-4649.6,-5084.7 L-4651.8,-5088.8 L-4653.5,-5091.1 L-4654.7,-5092.8 L-4656.3,-5094.2 L-4657.8,-5095.2 L-4659.8,-5096.4 L-4661.9,-5097.2 L-4663.7,-5097.6 L-4665.5,-5097.8 L-4668.2,-5097.8 L-4671.3,-5097.3 L-4674.0,-5096.5 L-4676.8,-5095.1 L-4703.7,-5079.6 L-4738.8,-5059.5 L-4763.3,-5045.9 L-4808.0,-5021.3 L-4835.4,-5006.4 L-4834.4,-5004.7 L-4846.1,-4998.0 L-4884.4,-4978.2 L-4912.8,-4961.4 L-4929.5,-4952.1 L-4954.9,-4937.5 L-4957.8,-4935.5 L-4980.1,-4975.6 L-4936.3,-4999.6 L-4876.5,-5032.1 L-4835.8,-5054.7 L-4830.8,-5057.6 L-4831.5,-5058.7 L-4796.3,-5077.9 L-4777.6,-5088.2 L-4734.7,-5109.1 L-4726.5,-5113.3 L-4661.8,-5149.3 L-4637.5,-5162.7 L-4620.4,-5171.9 L-4600.2,-5183.5 L-4572.2,-5132.9 L-4616.2,-5108.8 L-4618.5,-5105.1 L-4619.4,-5101.2 L-4619.8,-5098.2 L-4619.9,-5095.6 L-4619.7,-5093.5 L-4618.9,-5090.6 L-4529.2,-4924.7 L-4527.5,-4922.2 L-4525.5,-4920.3 L-4523.5,-4919.0 L-4521.4,-4918.3 L-4519.1,-4918.0 L-4516.9,-4918.2 L-4515.2,-4918.7 L-4475.4,-4948.9 L-4456.7,-4964.6 L-4437.4,-4980.9 L-4430.1,-4987.6 L-4406.2,-5007.2 L-4405.1,-5007.2 L-4381.9,-5027.0 L-4381.8,-5028.2 L-4366.6,-5040.7 L-4354.6,-5050.5 L-4334.0,-5067.5 L-4332.1,-5065.2 L-4311.9,-5081.9 L-4301.7,-5090.4 L-4273.4,-5113.9 L-4253.7,-5130.3 L-4255.6,-5133.1 L-4249.1,-5138.6 L-4238.4,-5147.4 L-4231.8,-5153.2 L-4203.9,-5165.7 L-4185.0,-5172.3 L-4175.3,-5176.9 L-4148.1,-5177.1 L-4138.6,-5177.1 L-4118.5,-5176.1 L-4095.0,-5175.1 L-4093.3,-5176.7 L-4091.0,-5173.7 L-4083.6,-5173.3 L-4016.3,-5167.5 L-4008.4,-5165.8 L-4001.5,-5164.7 L-3985.9,-5163.4 L-3956.8,-5162.0 L-3950.4,-5161.9 L-3944.4,-5162.1 L-3921.1,-5163.0 L-3909.1,-5163.6 L-3897.2,-5164.7 L-3878.9,-5166.6 L-3879.0,-5165.5 L-3864.5,-5168.0 L-3850.8,-5170.6 L-3840.3,-5172.5 L-3826.5,-5182.9 L-3824.9,-5180.7 L-3823.2,-5178.3 L-3701.6,-5017.5 L-3408.1,-4916.3 L-2869.5,-5311.9 L-2722.7,-5417.6 L-2666.0,-5538.6 L-2756.2,-5656.8 L-2752.2,-5673.7 L-2736.4,-5678.0 L-2706.0,-5671.7 L-2684.4,-5679.8 L-2678.4,-5688.2 L-2679.7,-5695.5 L-2695.8,-5727.1 L-2696.9,-5738.9 L-2697.8,-5762.3 L-2700.6,-5784.9 L-2697.8,-5788.9 L-2688.7,-5793.3 L-2677.6,-5795.8 L-2669.6,-5804.4 L-2667.8,-5814.8 L-2674.6,-5834.9 L-2675.3,-5848.8 L-2673.1,-5864.6 L-2662.1,-5892.3 L-2664.4,-5905.1 L-2669.9,-5919.4 L-2670.1,-5938.8 L-2673.3,-5964.4 L-2679.1,-5980.4 L-2682.7,-5988.8 L-2680.3,-5992.5 L-2678.0,-5992.3 L-2677.4,-5993.8 L-2677.1,-5995.8 L-2677.2,-5997.8 L-2680.7,-5998.2 L-2682.9,-6001.3 L-2682.5,-6005.0 L-2685.5,-6005.8 L-2689.2,-6005.9 L-2689.7,-6005.0 L-2697.3,-6014.0 L-2698.9,-6016.8 L-2700.2,-6020.7 L-2701.1,-6024.5 L-2701.8,-6028.5 L-2702.1,-6032.5 L-2702.3,-6036.1 L-2702.3,-6039.8 L-2702.0,-6041.8 L-2700.4,-6046.8 L-2698.6,-6050.8 L-2696.3,-6054.7 L-2692.9,-6059.6 L-2689.4,-6064.3 L-2686.1,-6067.7 L-2682.0,-6070.8 L-2681.2,-6070.0 L-2646.1,-6096.8 L-2641.0,-6100.7 L-2642.0,-6102.2 L-2642.0,-6104.8 L-2633.3,-6111.6 L-2631.1,-6111.5 L-2629.0,-6110.0 L-2625.3,-6112.8 L-2589.3,-6140.1 L-2589.7,-6141.0 L-2585.5,-6144.1 L-2580.5,-6147.2 L-2577.0,-6148.8 L-2572.0,-6150.7 L-2567.7,-6151.9 L-2563.4,-6152.5 L-2558.7,-6152.9 L-2555.9,-6152.7 L-2552.0,-6152.1 L-2548.2,-6150.8 L-2545.4,-6149.4 L-2542.7,-6147.8 L-2540.7,-6146.3 L-2539.0,-6144.7 L-2536.5,-6142.3 L-2535.4,-6141.9 L-2533.6,-6141.9 L-2531.8,-6142.2 L-2526.3,-6146.1 L-2526.3,-6147.2 L-2525.7,-6148.0 L-2525.1,-6149.1 L-2525.2,-6150.4 L-2525.5,-6151.5 L-2526.3,-6152.5 L-2530.2,-6156.4 L-2533.3,-6158.9 L-2536.9,-6160.9 L-2542.8,-6163.5 L-2547.9,-6165.5 L-2539.0,-6170.1 L-2528.1,-6177.7 L-2514.6,-6179.4 L-2501.1,-6178.5 L-2492.3,-6182.0 L-2484.6,-6193.0 L-2455.6,-6244.9 L-2443.8,-6266.3 L-2434.5,-6289.1 L-2432.9,-6293.9 L-2419.1,-6336.2 L-2416.9,-6340.3 L-2414.3,-6344.4 L-2381.9,-6384.5 L-2375.0,-6391.7 L-2369.9,-6396.1 L-2297.3,-6458.3 L-2293.3,-6461.0 L-2280.9,-6467.8 L-2266.0,-6476.2 L-2219.6,-6500.5 L-2118.5,-6554.8 L-2116.1,-6552.9 L-2114.2,-6552.2 L-2112.5,-6551.7 L-2110.7,-6552.0 L-2108.8,-6552.4 L-2103.4,-6553.5 L-2097.1,-6554.9 L-2091.4,-6556.2 L-2085.5,-6557.3 L-2082.3,-6558.0 L-2077.9,-6559.3 L-2072.9,-6561.4 L-2060.8,-6568.0 L-2056.4,-6570.4 L-2054.1,-6571.8 L-2051.8,-6572.8 L-2042.4,-6576.8 L-2032.1,-6580.8 L-2019.1,-6586.4 L-2003.8,-6592.7 L-2003.2,-6593.0 L-2001.9,-6593.1 L-2000.2,-6593.6 L-1997.8,-6595.4 L-1995.1,-6596.4 L-1992.1,-6597.9 L-1986.5,-6601.1 L-1984.5,-6603.1 L-1981.2,-6605.2 L-1981.5,-6605.8 L-1980.1,-6607.5 L-1978.3,-6609.4 L-1975.3,-6610.9 L-1972.8,-6611.9 L-1970.1,-6612.9 L-1967.6,-6614.2 L-1962.7,-6617.3 L-1961.3,-6618.7 L-1959.9,-6620.9 L-1959.3,-6622.5 L-1959.1,-6624.1 L-1959.3,-6625.6 L-1959.0,-6627.1 L-1973.0,-6644.0 L-1928.9,-6669.9 L-1908.0,-6681.0 L-1903.9,-6682.3 L-1897.5,-6681.1 L-1890.4,-6671.2 L-1887.2,-6668.4 L-1884.3,-6667.0 L-1881.6,-6666.4 L-1879.1,-6666.5 L-1841.3,-6682.1 L-1831.0,-6687.1 L-1821.4,-6692.4 L-1805.9,-6700.6 L-1802.7,-6701.7 L-1587.9,-6791.0 L-1520.7,-6823.3 L-1220.2,-6967.6 L5792.9,-7025.6 L5792.9,3010.0 L-9194.8,3010.0 L-9194.8,2583.5 Z" fill="#add7e1" stroke="none"><title>Biscayne Bay</title></path><path d="M-1.0,-1.0 L257.0,-1.0 L257.0,257.0 L-1.0,257.0 L-1.0,-1.0 Z" fill="#add7e1" stroke="none" fill-rule="evenodd"><title>Biscayne Bay</title></path><path d="M2388.6,-4415.6 L-721.0,8956.9" fill="none" stroke="#6fb5c7" stroke-width="1.7" stroke-dasharray="5 7" opacity="0.34" stroke-linecap="round" stroke-linejoin="round"><title>Atlantic Intracoastal Waterway</title></path></svg>