<svg xmlns="http://www.w3.org/2000/svg" width="256" height="256" viewBox="0 0 256 256"><rect width="256" height="256" fill="#f1efe7"/><path d="M-1802.7,-5933.7 L-1587.9,-6023.0 L-1520.7,-6055.3 L-1220.2,-6199.6 L-1163.8,-6145.0 L-1158.9,-6140.3 L-1053.5,-6230.5 L-1028.4,-6249.6 L-986.5,-6287.4 L-750.4,-6504.2 L-559.9,-6721.8 L-552.6,-6735.7 L-545.6,-6743.6 L-534.5,-6756.3 L-523.2,-6769.2 L-518.6,-6774.5 L-593.7,-6871.6 L-494.3,-6931.2 L-440.4,-6859.5 L-364.2,-6946.7 L-428.7,-7032.1 L-348.8,-7115.4 L-287.3,-7034.4 L-216.7,-7114.8 L-186.6,-7134.5 L-39.4,-7230.0 L33.3,-7278.3 L120.9,-7335.9 L162.3,-7363.1 L267.2,-7430.8 L240.2,-7466.3 L191.9,-7531.0 L316.8,-7610.4 L362.3,-7633.9 L365.8,-7636.4 L389.8,-7654.9 L475.4,-7700.7 L481.3,-7709.9 L505.3,-7726.4 L518.3,-7745.4 L522.0,-7748.2 L542.9,-7756.3 L590.1,-7773.2 L622.4,-7787.4 L736.5,-7841.0 L737.9,-7837.3 L833.6,-7878.2 L872.7,-7828.1 L959.8,-7886.2 L972.2,-7894.7 L973.4,-7895.7 L974.6,-7897.3 L976.5,-7900.6 L977.5,-7903.7 L978.1,-7907.4 L978.0,-7910.4 L977.6,-7913.3 L977.2,-7916.6 L977.1,-7919.1 L977.3,-7921.2 L977.7,-7923.4 L979.3,-7927.4 L980.4,-7929.6 L982.9,-7933.4 L985.5,-7936.2 L998.2,-7941.3 L1008.8,-7945.3 L1022.3,-7949.7 L1028.6,-7951.4 L1039.8,-7955.1 L1047.7,-7957.9 L1058.6,-7962.4 L1073.4,-7968.9 L1089.4,-7976.4 L1098.0,-7980.6 L1108.8,-7986.1 L1118.9,-7991.7 L1129.0,-7997.7 L1139.3,-8004.4 L1142.5,-8006.6 L1163.2,-8022.4 L1180.6,-8035.8 L1197.6,-8050.2 L1213.5,-8065.2 L1225.0,-8078.1 L1236.4,-8092.0 L1250.4,-8110.0 L1263.2,-8128.0 L1277.9,-8151.1 L1287.5,-8169.0 L1293.5,-8180.4 L1302.4,-8199.7 L1309.9,-8217.6 L1316.6,-8236.9 L1322.0,-8253.8 L1327.9,-8281.2 L1332.2,-8305.7 L1334.5,-8326.7 L1336.5,-8351.5 L1336.7,-8378.0 L1335.1,-8402.5 L1330.9,-8434.5 L1326.5,-8456.3 L1321.5,-8476.9 L1314.1,-8500.3 L1307.8,-8518.2 L1300.6,-8537.7 L1293.8,-8553.9 L1289.2,-8564.4 L1287.3,-8572.1 L1287.0,-8578.0 L1287.6,-8583.3 L1289.7,-8587.9 L1292.9,-8591.8 L1297.1,-8594.0 L1301.6,-8594.6 L1313.7,-8591.7 L1347.4,-8583.6 L1358.6,-8838.3 L1402.3,-9292.9 L1354.8,-9304.1 L1349.6,-9318.4 L1349.8,-9338.9 L1356.4,-9385.4 L1365.4,-9395.9 L1373.4,-9426.1 L1423.9,-9414.4 L1451.7,-9704.9 L1459.4,-9785.3 L1443.7,-9789.2 L1453.2,-9827.6 L1420.9,-9835.3 L1425.0,-9858.8 L1430.7,-9874.3 L1437.8,-9892.4 L1449.8,-9917.7 L1462.7,-9914.8 L1480.1,-10097.5 L1484.2,-10208.3 L1485.0,-10228.7 L1494.4,-10299.2 L1513.1,-10474.9 L1637.9,-10800.3 L1666.4,-10889.0 L2013.1,-11022.0 L2047.0,-11035.6 L2052.9,-11038.8 L2057.5,-11043.0 L2062.6,-11048.9 L2066.5,-11055.8 L2069.1,-11062.6 L2069.7,-11072.5 L2069.2,-11084.8 L2064.6,-11240.3 L2062.9,-11270.4 L2062.4,-11291.1 L2061.7,-11331.3 L2060.9,-11343.9 L2059.4,-11354.5 L2057.3,-11363.9 L2054.2,-11373.5 L2049.3,-11384.8 L2042.1,-11396.9 L2035.1,-11406.5 L2029.7,-11415.6 L2024.2,-11427.7 L2019.6,-11439.3 L2017.8,-11448.8 L2016.4,-11459.3 L2015.7,-11469.8 L2016.0,-11480.0 L2017.2,-11491.9 L2020.0,-11503.6 L2023.7,-11514.0 L2027.6,-11523.5 L2032.6,-11532.7 L2038.7,-11543.9 L2042.7,-11554.0 L2046.2,-11566.9 L2052.6,-11576.7 L2050.4,-11665.9 L2047.1,-11671.1 L2046.1,-11731.7 L2044.4,-11803.2 L2045.6,-11813.1 L2048.8,-11823.2 L2056.8,-11839.0 L2110.3,-11954.1 L2111.4,-11956.0 L2120.8,-11976.5 L2129.7,-11995.9 L2139.7,-12015.9 L2149.5,-12036.5 L2154.3,-12046.5 L2206.9,-12154.4 L2263.1,-12273.6 L2384.7,-12520.4 L2311.6,-12602.3 L2252.0,-12475.3 L2200.5,-12365.4 L2192.7,-12349.8 L2176.8,-12317.3 L2145.0,-12320.0 L2136.3,-12320.5 L2133.2,-12317.7 L2137.4,-12313.9 L2121.1,-12299.4 L2108.2,-12287.5 L2105.8,-12236.6 L2101.0,-12226.4 L2085.4,-12227.0 L2082.8,-12227.9 L1878.4,-12312.3 L1874.0,-12314.6 L1869.3,-12317.6 L1861.9,-12323.2 L1856.2,-12328.6 L1851.4,-12333.8 L1846.7,-12340.2 L1843.1,-12345.8 L1840.3,-12351.6 L1838.1,-12357.7 L1836.6,-12361.9 L1835.5,-12367.0 L1834.7,-12373.0 L1833.9,-12381.2 L1833.9,-12392.9 L1832.5,-12432.6 L1838.1,-12432.9 L1837.3,-12453.9 L1836.4,-12488.5 L1841.6,-12488.6 L1841.2,-12512.2 L1835.3,-12512.1 L1832.6,-12611.5 L1838.2,-12611.8 L1837.3,-12635.1 L1831.9,-12634.9 L1829.6,-12708.4 L1856.6,-12737.5 L1891.1,-12738.7 L1916.8,-12739.6 L1950.7,-12740.7 L1983.3,-12741.7 L2012.5,-12742.7 L2025.2,-12743.3 L2024.6,-12754.6 L2024.4,-12766.4 L2022.5,-12804.7 L2021.8,-12877.8 L2020.8,-12879.1 L2020.6,-12886.3 L2022.7,-12886.4 L2017.6,-13062.5 L2013.2,-13228.2 L2012.5,-13233.4 L2012.1,-13243.0 L1939.9,-13240.4 L1891.9,-13244.5 L1532.6,-13232.0 L1532.5,-13235.2 L1531.8,-13250.5 L1361.4,-13244.5 L1361.1,-13272.8 L1338.6,-13277.9 L1334.6,-13399.0 L1997.4,-13422.0 L2008.4,-13437.1 L2008.0,-13480.1 L2007.2,-13517.3 L2006.6,-13540.6 L2005.7,-13563.3 L1953.0,-13588.1 L1950.9,-13643.2 L2004.9,-13670.0 L2000.0,-13797.5 L1998.6,-13803.8 L1944.9,-13828.9 L1943.2,-13897.1 L1994.2,-13923.4 L1971.5,-14200.3 L1977.5,-14323.5 L1980.5,-14524.4 L1980.3,-14742.9 L1985.1,-14773.5 L1985.4,-14788.3 L1980.6,-14806.1 L1985.6,-14806.1 L1985.6,-14822.2 L1988.6,-15233.2 L1988.1,-15251.5 L1982.4,-15251.5 L1982.6,-15327.1 L1979.3,-15331.8 L1974.1,-15409.8 L1984.4,-15481.1 L1983.1,-15567.4 L1979.6,-15588.1 L1984.9,-15652.0 L1981.3,-15729.3 L1972.3,-15812.0 L1955.2,-15946.0 L1963.3,-15982.9 L1959.7,-16018.8 L1929.1,-16044.9 L1884.2,-16044.5 L1815.8,-16035.5 L1771.3,-16035.5 L1730.9,-16050.3 L1677.8,-16086.7 L1677.8,-16152.0 L1676.4,-16232.3 L1681.6,-16299.2 L1699.2,-16351.4 L1993.9,-16356.9 L2000.7,-16774.8 L2000.7,-17376.4 L1997.6,-17594.7 L17909.8,-24166.4 L17909.8,12051.8 L-1802.7,12051.8 L-1802.7,-5933.7 Z" fill="#add7e1" stroke="none"><title>Biscayne Bay</title></path><path d="M-9194.8,3351.5 L-9739.0,2949.8 L-9782.5,2917.8 L-9829.7,2907.5 L-9863.0,2879.5 L-9889.6,2876.4 L-9975.6,2882.1 L-9975.5,2874.0 L-9980.3,2866.4 L-9989.9,2860.5 L-10176.7,2779.6 L-10189.4,2773.8 L-10200.5,2770.6 L-10214.3,2769.5 L-10228.2,2769.2 L-10274.6,2769.2 L-10286.9,2768.5 L-10299.0,2766.1 L-10311.8,2761.1 L-10327.2,2757.0 L-10338.4,2756.0 L-10371.3,2754.6 L-10382.3,2752.6 L-10396.3,2748.1 L-10410.0,2744.6 L-10423.3,2741.5 L-10433.7,2737.3 L-10446.3,2729.5 L-10457.5,2721.1 L-10468.4,2712.9 L-10477.3,2708.7 L-10484.1,2707.3 L-10490.2,2707.7 L-10496.7,2709.5 L-10504.3,2713.4 L-10510.3,2720.0 L-10518.4,2727.9 L-10527.4,2736.2 L-10537.6,2741.8 L-10550.5,2746.0 L-10561.2,2748.6 L-10574.1,2750.6 L-10595.7,2753.1 L-10649.9,2755.7 L-10695.9,2758.0 L-10715.7,2765.1 L-10756.3,2766.5 L-10761.8,2758.0 L-10767.9,2754.1 L-10774.2,2752.9 L-10818.0,2755.4 L-10837.0,2762.2 L-10860.3,2762.4 L-10876.0,2760.1 L-10888.9,2756.2 L-10936.0,2759.0 L-11060.6,2768.7 L-11089.3,2769.5 L-11099.1,2769.3 L-11107.9,2767.1 L-11118.1,2762.0 L-11125.6,2756.0 L-11158.0,2756.1 L-11185.1,2755.7 L-11192.4,2760.2 L-11229.7,2761.1 L-11234.5,2769.0 L-11239.8,2769.2 L-11249.0,2767.0 L-11265.5,2765.0 L-11282.5,2765.9 L-11287.7,2767.5 L-11293.0,2766.6 L-11296.6,2763.1 L-11302.7,2759.6 L-11325.4,2759.7 L-11348.3,2760.9 L-11370.0,2773.7 L-11380.7,2778.8 L-11392.9,2781.5 L-11403.0,2782.2 L-11412.1,2780.8 L-11433.1,2771.8 L-11445.1,2768.0 L-11455.3,2766.5 L-11500.0,2767.1 L-11502.8,2761.7 L-11542.3,2762.6 L-11569.5,2767.6 L-11587.4,2769.7 L-11597.0,2771.8 L-11600.7,2769.3 L-11607.5,2768.4 L-11671.2,2762.6 L-11676.7,2765.6 L-11683.4,2767.0 L-11692.2,2767.1 L-11692.2,2763.9 L-11731.7,2756.5 L-11756.6,2751.7 L-11816.8,2731.5 L-11820.1,2736.0 L-11860.3,2723.6 L-11868.7,2720.8 L-11864.6,2706.8 L-11869.4,2705.3 L-11870.4,2703.8 L-11873.0,2703.0 L-11876.6,2702.5 L-11881.0,2700.3 L-11879.5,2699.0 L-11897.3,2684.5 L-11926.9,2657.7 L-11942.8,2643.7 L-11954.1,2631.4 L-11960.4,2623.1 L-11969.8,2610.3 L-11975.2,2600.4 L-11992.0,2579.3 L-11993.6,2578.1 L-11994.7,2578.0 L-11995.9,2578.2 L-11998.1,2578.3 L-12000.1,2577.3 L-12004.3,2574.6 L-12012.9,2570.1 L-12017.1,2566.5 L-12022.0,2562.2 L-12028.7,2558.6 L-12039.2,2555.3 L-12050.3,2553.3 L-12059.8,2553.1 L-12057.1,2527.9 L-12054.9,2495.0 L-12044.6,2496.0 L-12034.3,2497.8 L-12020.8,2501.8 L-12010.9,2505.5 L-12002.0,2509.6 L-11993.4,2513.6 L-11985.3,2518.2 L-11978.7,2523.3 L-11969.9,2530.1 L-11960.7,2537.0 L-11958.6,2538.3 L-11956.7,2538.7 L-11931.5,2537.6 L-11931.2,2543.3 L-11932.7,2545.8 L-11951.6,2547.6 L-11946.8,2557.4 L-11943.5,2556.2 L-11940.5,2559.2 L-11938.6,2562.1 L-11937.0,2564.3 L-11933.1,2569.5 L-11931.6,2575.2 L-11925.5,2583.6 L-11911.1,2592.7 L-11893.2,2601.8 L-11871.8,2615.3 L-11862.0,2619.9 L-11841.4,2631.6 L-11831.7,2636.7 L-11814.0,2643.2 L-11779.2,2652.5 L-11758.8,2657.4 L-11740.2,2659.3 L-11730.3,2660.6 L-11728.1,2660.4 L-11727.2,2659.1 L-11726.9,2652.5 L-11703.8,2652.5 L-11703.3,2659.9 L-11654.9,2662.4 L-11607.7,2663.8 L-11575.6,2662.6 L-11565.0,2661.8 L-11557.3,2660.8 L-11551.0,2659.0 L-11545.2,2655.5 L-11542.3,2650.8 L-11543.4,2573.3 L-11523.9,2572.2 L-11522.2,2647.8 L-11521.1,2649.7 L-11517.2,2652.4 L-11512.7,2653.7 L-11409.3,2653.9 L-11409.8,2620.6 L-11401.7,2620.4 L-11398.3,2653.9 L-11334.5,2653.3 L-11334.5,2649.7 L-11328.2,2649.6 L-11328.0,2652.2 L-10902.5,2644.1 L-10871.7,2640.5 L-10834.1,2639.4 L-10798.5,2644.1 L-10786.6,2643.1 L-10777.9,2641.4 L-10769.8,2638.5 L-10759.3,2634.5 L-10545.4,2630.7 L-10545.5,2615.9 L-10425.8,2613.8 L-10425.7,2630.1 L-10374.9,2631.9 L-10371.0,2631.8 L-10367.4,2631.5 L-10362.7,2630.9 L-10358.9,2629.9 L-10355.2,2628.7 L-10348.9,2625.7 L-10346.0,2630.7 L-10339.8,2626.8 L-10334.1,2622.2 L-10329.3,2617.2 L-10325.1,2611.3 L-10321.2,2604.0 L-10328.5,2599.9 L-10326.5,2593.8 L-10325.2,2587.5 L-10324.5,2581.5 L-10324.4,2576.8 L-10324.6,2572.4 L-10325.3,2534.5 L-10331.4,2528.9 L-10326.2,2523.4 L-10331.5,2518.8 L-10325.5,2511.7 L-10332.0,2506.0 L-10326.8,2500.5 L-10332.0,2495.5 L-10325.9,2489.0 L-10332.2,2482.6 L-10319.1,2468.2 L-10316.8,2468.1 L-10322.5,2253.6 L-10274.4,2252.5 L-10272.1,2253.7 L-10269.5,2255.7 L-10267.6,2257.4 L-10266.8,2259.4 L-10266.1,2261.8 L-10265.9,2264.2 L-10261.8,2597.5 L-10259.9,2608.3 L-10257.2,2615.6 L-10253.0,2624.6 L-10248.1,2633.4 L-10243.0,2640.4 L-10238.9,2644.7 L-10234.5,2648.1 L-10229.4,2651.1 L-10224.1,2653.1 L-10216.9,2655.2 L-10208.0,2656.9 L-10197.2,2658.9 L-10184.6,2661.2 L-10172.6,2663.8 L-10159.3,2666.2 L-10146.7,2668.9 L-10142.7,2669.7 L-10137.8,2670.7 L-10133.0,2671.3 L-10128.8,2671.4 L-10124.0,2671.4 L-10120.3,2671.2 L-10116.6,2670.5 L-10113.4,2669.7 L-10110.0,2668.7 L-10107.1,2667.4 L-10101.3,2664.6 L-10096.2,2661.6 L-10091.1,2657.9 L-10085.2,2652.2 L-10079.7,2646.0 L-10076.7,2640.7 L-10074.0,2634.2 L-10072.6,2628.9 L-10071.8,2623.2 L-10071.3,2617.8 L-10071.3,2612.8 L-10078.6,2255.6 L-10068.2,2244.9 L-10064.4,2244.5 L-10062.9,2243.1 L-10041.2,2242.5 L-10039.3,2239.3 L-10036.0,2240.2 L-10030.5,2245.3 L-10026.7,2250.6 L-10022.9,2257.2 L-10015.7,2656.4 L-10015.0,2663.4 L-10013.7,2677.3 L-10012.4,2680.1 L-10013.4,2680.8 L-10011.6,2684.7 L-10009.3,2689.3 L-10007.3,2692.2 L-10004.9,2695.7 L-10001.6,2699.5 L-9997.7,2703.5 L-9993.0,2707.5 L-9988.8,2710.6 L-9984.2,2713.1 L-9979.8,2715.3 L-9975.1,2716.8 L-9974.5,2715.4 L-9908.3,2739.4 L-9900.0,2742.5 L-9896.2,2743.9 L-9890.3,2746.0 L-9886.0,2747.0 L-9882.3,2747.5 L-9878.9,2747.5 L-9874.1,2747.1 L-9868.9,2746.6 L-9864.3,2745.6 L-9859.6,2744.3 L-9856.1,2742.9 L-9852.4,2741.2 L-9849.4,2739.3 L-9845.6,2736.5 L-9840.8,2732.3 L-9836.4,2728.0 L-9831.6,2722.0 L-9828.2,2716.4 L-9825.4,2710.2 L-9823.4,2703.3 L-9822.2,2696.3 L-9821.5,2683.8 L-9821.8,2658.3 L-9829.1,2252.2 L-9829.1,2247.7 L-9828.3,2244.5 L-9826.9,2241.9 L-9824.0,2239.5 L-9820.7,2237.8 L-9817.0,2237.2 L-9786.9,2236.2 L-9783.3,2236.8 L-9780.1,2238.2 L-9777.8,2240.4 L-9775.2,2244.2 L-9773.7,2249.6 L-9772.8,2256.9 L-9765.3,2777.8 L-9764.9,2780.9 L-9764.3,2784.0 L-9763.4,2787.2 L-9762.3,2790.7 L-9761.1,2794.2 L-9759.7,2797.4 L-9758.5,2800.1 L-9757.2,2802.5 L-9755.3,2805.5 L-9753.2,2808.1 L-9751.3,2810.5 L-9748.4,2813.6 L-9745.6,2816.3 L-9742.5,2818.8 L-9739.2,2821.3 L-9730.0,2827.1 L-9729.1,2826.0 L-9721.0,2830.5 L-9711.4,2835.7 L-9705.9,2838.7 L-9699.8,2842.3 L-9693.5,2846.0 L-9687.0,2850.0 L-9679.7,2854.5 L-9672.5,2859.0 L-9665.3,2863.3 L-9659.3,2867.0 L-9652.6,2871.3 L-9645.5,2875.9 L-9638.7,2880.4 L-9632.4,2884.7 L-9633.1,2885.6 L-9624.3,2891.7 L-9615.2,2897.8 L-9612.4,2899.5 L-9609.3,2901.2 L-9604.9,2903.3 L-9600.8,2904.8 L-9596.4,2906.0 L-9592.5,2907.0 L-9587.9,2907.7 L-9582.8,2908.3 L-9578.4,2908.3 L-9574.7,2908.0 L-9571.5,2907.3 L-9567.4,2906.2 L-9563.3,2904.9 L-9559.5,2903.6 L-9556.0,2901.9 L-9552.4,2900.0 L-9548.9,2897.8 L-9545.3,2895.0 L-9542.1,2892.1 L-9539.0,2889.0 L-9536.1,2885.8 L-9533.1,2881.4 L-9530.6,2877.0 L-9528.2,2872.1 L-9526.8,2868.3 L-9525.7,2864.3 L-9524.9,2860.0 L-9524.5,2855.7 L-9524.8,2850.8 L-9584.1,2283.1 L-9580.0,2282.7 L-9583.3,2254.3 L-9586.3,2254.5 L-9588.7,2241.4 L-9587.9,2238.7 L-9585.4,2234.7 L-9580.3,2230.8 L-9573.6,2230.0 L-9546.7,2229.1 L-9542.2,2230.0 L-9539.1,2231.5 L-9535.8,2234.1 L-9533.5,2236.5 L-9531.9,2239.0 L-9466.9,2875.9 L-9465.4,2881.4 L-9462.6,2888.2 L-9460.2,2892.6 L-9457.6,2897.3 L-9454.2,2901.9 L-9451.4,2905.1 L-9448.3,2908.3 L-9444.9,2911.0 L-9441.9,2913.1 L-9437.7,2915.8 L-9434.0,2917.7 L-9429.1,2919.8 L-9424.5,2921.2 L-9419.3,2922.3 L-9415.3,2922.9 L-9411.8,2923.0 L-9407.7,2923.1 L-9266.5,2920.2 L-9261.9,2919.6 L-9257.5,2917.5 L-9254.3,2914.6 L-9252.1,2910.2 L-9251.3,2906.2 L-9251.5,2902.2 L-9323.0,2220.1 L-9386.0,2137.9 L-9388.8,2140.2 L-9443.6,2063.7 L-9444.6,2047.5 L-9446.3,2044.1 L-9449.2,2041.0 L-9452.9,2035.8 L-9453.2,2028.2 L-9459.7,2025.7 L-9466.0,2025.6 L-9474.5,2029.8 L-9464.9,2047.8 L-9477.0,2053.6 L-9486.1,2045.2 L-9493.9,2040.4 L-9499.2,2038.6 L-9512.2,2038.1 L-9518.8,2024.7 L-9477.3,2007.7 L-9479.3,2004.3 L-9488.1,1992.5 L-9489.5,1993.2 L-9798.4,1588.7 L-9803.1,1522.0 L-9800.6,1521.4 L-9812.5,1399.1 L-9817.1,1387.8 L-9822.1,1375.1 L-9825.9,1365.3 L-9830.5,1352.8 L-9845.5,1310.7 L-9851.6,1313.4 L-9860.5,1279.3 L-9859.0,1279.0 L-9890.1,1194.7 L-9893.5,1047.3 L-9889.9,1047.3 L-9889.4,1034.4 L-9887.6,1021.7 L-9886.9,1017.0 L-9888.2,1013.2 L-9884.0,993.1 L-9845.7,925.3 L-9865.8,913.1 L-9850.9,888.4 L-9831.5,899.8 L-9829.8,897.2 L-9823.7,900.3 L-9817.1,902.9 L-9809.5,905.3 L-9803.8,906.5 L-9798.4,906.7 L-9792.0,905.6 L-9785.7,903.5 L-9779.5,901.1 L-9776.6,898.0 L-9775.5,893.9 L-9774.0,889.0 L-9773.7,887.0 L-9773.8,884.5 L-9775.2,880.6 L-9777.8,876.9 L-9780.8,874.8 L-9785.2,870.6 L-9789.0,866.6 L-9794.6,863.0 L-9796.9,857.3 L-9799.6,851.6 L-9803.9,844.9 L-9808.8,839.1 L-9817.8,832.7 L-9861.4,810.1 L-9887.2,797.3 L-9911.3,784.3 L-9934.2,771.6 L-9949.0,762.0 L-9954.7,760.5 L-9961.0,762.4 L-9964.5,766.7 L-9971.6,784.4 L-10015.7,764.6 L-9989.3,722.9 L-9983.5,720.2 L-9976.4,718.8 L-9968.1,720.6 L-9802.4,817.5 L-9793.4,820.2 L-9784.0,822.5 L-9770.7,822.8 L-9757.2,820.4 L-9748.6,816.9 L-9739.2,809.3 L-9733.7,804.0 L-9727.8,795.7 L-9727.9,794.6 L-9728.3,793.6 L-9729.2,792.8 L-9782.8,759.7 L-9784.1,759.3 L-9785.5,759.2 L-9786.9,759.3 L-9792.0,761.5 L-9793.9,761.7 L-9796.0,761.5 L-9799.1,761.0 L-9801.5,760.3 L-9804.9,758.6 L-9808.2,756.7 L-9881.9,711.7 L-9916.6,687.3 L-9919.9,686.8 L-9923.2,686.9 L-9927.1,687.0 L-9929.7,686.6 L-9931.9,685.6 L-9934.5,683.6 L-9937.4,681.3 L-9939.4,678.5 L-9940.6,675.7 L-9940.8,673.6 L-9940.5,670.9 L-9940.0,668.6 L-9928.2,648.8 L-9928.2,647.9 L-9929.1,647.2 L-9939.9,639.6 L-9942.0,636.5 L-9940.8,634.6 L-9937.3,635.1 L-9933.5,636.2 L-9911.3,649.9 L-9785.5,730.2 L-9782.9,731.7 L-9781.1,733.6 L-9779.9,735.8 L-9778.6,740.4 L-9777.7,744.0 L-9777.2,747.1 L-9720.4,781.2 L-9718.4,782.1 L-9716.0,782.3 L-9713.2,781.9 L-9711.2,781.2 L-9709.5,780.4 L-9648.4,681.5 L-9622.8,643.9 L-9598.9,617.0 L-9586.8,623.7 L-9579.0,611.1 L-9620.5,586.3 L-9611.7,571.9 L-9570.2,596.9 L-9560.9,581.7 L-9568.4,573.3 L-9560.8,564.6 L-9552.6,574.0 L-9550.6,572.5 L-9548.3,570.9 L-9545.1,569.1 L-9541.8,567.5 L-9537.7,566.0 L-9533.8,564.9 L-9529.6,564.2 L-9525.4,563.9 L-9521.4,564.0 L-9517.5,564.6 L-9513.8,565.5 L-9510.7,566.4 L-9508.0,567.6 L-9504.2,569.4 L-9500.7,571.6 L-9497.7,573.7 L-9494.7,576.4 L-9492.0,579.0 L-9489.0,582.9 L-9486.9,586.4 L-9484.8,590.9 L-9483.4,595.4 L-9482.2,601.6 L-9481.8,607.0 L-9481.9,610.1 L-9482.3,613.3 L-9483.4,618.1 L-9486.2,624.7 L-9488.0,629.0 L-9490.5,634.1 L-9480.1,639.3 L-9431.5,581.3 L-9520.0,527.5 L-9515.5,517.9 L-9512.3,509.0 L-9512.1,505.2 L-9507.0,494.3 L-9496.5,484.6 L-9483.5,474.0 L-9468.0,464.1 L-9438.9,455.6 L-9388.7,450.6 L-9368.9,434.6 L-9364.8,433.9 L-9361.5,433.7 L-9356.8,435.5 L-9352.5,436.0 L-9324.6,452.9 L-9251.2,365.8 L-9520.2,194.8 L-9536.9,221.1 L-9573.2,198.1 L-9521.7,117.1 L-9485.5,139.5 L-9501.6,167.1 L-9227.9,339.6 L-9193.4,295.3 L-9169.0,266.3 L-9136.8,217.9 L-9119.0,193.5 L-9120.8,179.6 L-9120.3,179.2 L-9123.5,168.9 L-9125.6,162.5 L-9127.6,155.9 L-9130.0,150.2 L-9134.6,142.7 L-9139.2,135.4 L-9141.2,131.6 L-9142.7,127.8 L-9143.8,124.3 L-9144.2,121.2 L-9144.7,111.0 L-9262.9,2.5 L-9266.8,6.7 L-9270.1,3.9 L-9279.7,13.4 L-9286.0,5.0 L-9278.4,-3.8 L-9286.0,-13.5 L-9291.2,-12.1 L-9296.6,-11.9 L-9301.5,-12.8 L-9305.8,-14.6 L-9310.8,-18.3 L-9317.0,-24.4 L-9327.9,-36.4 L-9331.2,-41.5 L-9332.4,-47.9 L-9331.6,-55.5 L-9328.7,-62.5 L-9326.2,-67.3 L-9321.4,-72.1 L-9316.1,-75.7 L-9311.0,-77.6 L-9307.2,-78.2 L-9302.2,-77.3 L-9297.1,-75.5 L-9292.3,-71.7 L-9281.2,-61.7 L-9275.5,-56.3 L-9270.3,-50.6 L-9268.6,-47.9 L-9267.4,-45.0 L-9266.7,-42.4 L-9266.2,-38.8 L-9266.8,-35.4 L-9267.8,-32.2 L-9269.2,-29.8 L-9269.6,-28.7 L-9269.3,-27.3 L-9268.5,-25.9 L-9141.6,93.0 L-9137.2,96.0 L-9134.1,97.3 L-9129.7,96.3 L-9124.5,95.9 L-9117.9,98.7 L-9111.3,102.8 L-9098.4,110.1 L-9093.0,112.7 L-9088.1,107.9 L-9082.7,102.7 L-9079.1,98.6 L-9073.1,90.8 L-9069.7,86.1 L-9066.1,80.3 L-9063.8,75.2 L-9061.3,69.8 L-9059.0,64.1 L-9056.9,58.3 L-9055.7,53.4 L-9054.3,47.2 L-9053.7,43.5 L-9053.3,40.5 L-9052.6,35.2 L-9051.9,30.0 L-9051.6,26.6 L-9051.4,22.9 L-9051.4,18.6 L-9051.6,15.0 L-9052.3,10.0 L-9053.1,4.3 L-9053.9,-1.0 L-9054.4,-5.3 L-9055.0,-8.5 L-9055.7,-11.9 L-9056.5,-15.3 L-9057.7,-19.3 L-9059.1,-23.3 L-9060.2,-25.7 L-9061.4,-28.1 L-9063.1,-30.4 L-9065.4,-33.7 L-9067.9,-36.8 L-9070.6,-39.4 L-9074.0,-42.2 L-9077.5,-44.4 L-9081.0,-46.3 L-9084.2,-47.5 L-9086.4,-48.2 L-9088.9,-48.5 L-9091.9,-48.4 L-9094.7,-47.8 L-9096.9,-46.9 L-9099.0,-45.4 L-9100.5,-43.8 L-9101.7,-42.3 L-9102.6,-40.0 L-9103.1,-37.5 L-9103.0,-34.5 L-9102.8,-31.0 L-9102.8,-28.4 L-9103.0,-25.8 L-9103.4,-23.2 L-9103.9,-20.9 L-9104.8,-18.5 L-9106.2,-15.9 L-9107.9,-13.4 L-9109.6,-11.1 L-9111.3,-9.5 L-9114.7,-6.8 L-9117.5,-4.9 L-9121.9,-3.6 L-9124.5,-3.0 L-9127.5,-2.6 L-9130.2,-2.5 L-9133.8,-2.7 L-9136.4,-3.2 L-9140.0,-4.0 L-9145.0,-5.5 L-9149.2,-7.1 L-9152.3,-8.3 L-9155.6,-10.1 L-9158.5,-12.1 L-9161.7,-14.6 L-9164.2,-16.9 L-9166.3,-19.0 L-9168.5,-21.6 L-9170.3,-24.0 L-9172.0,-26.4 L-9173.5,-29.1 L-9175.1,-32.7 L-9176.5,-36.0 L-9177.9,-39.6 L-9178.8,-42.4 L-9179.5,-45.0 L-9180.0,-47.7 L-9180.4,-51.9 L-9180.7,-55.6 L-9180.5,-59.6 L-9179.6,-64.9 L-9178.1,-70.1 L-9176.2,-75.5 L-9174.9,-78.0 L-9173.6,-79.5 L-9163.3,-92.6 L-9160.9,-95.3 L-9157.8,-96.8 L-9154.5,-98.0 L-9150.8,-98.8 L-9146.7,-99.3 L-9143.1,-99.5 L-9139.5,-99.4 L-9135.9,-99.0 L-9131.8,-97.8 L-9127.5,-95.7 L-9123.8,-93.4 L-9120.5,-90.8 L-9110.1,-81.2 L-9107.6,-80.4 L-9106.2,-80.1 L-9104.5,-80.5 L-9103.4,-80.9 L-9102.0,-82.5 L-9101.4,-84.1 L-9101.3,-86.3 L-9101.2,-88.3 L-9101.6,-89.2 L-9122.6,-110.0 L-9094.0,-140.5 L-9095.6,-144.1 L-9079.1,-160.4 L-9047.3,-128.6 L-9072.9,-96.0 L-9073.1,-94.1 L-9071.8,-93.3 L-9070.2,-93.7 L-9042.1,-128.9 L-9033.9,-138.8 L-9033.6,-141.1 L-9034.3,-143.1 L-9035.8,-144.9 L-9057.8,-165.7 L-9052.3,-172.1 L-9057.9,-176.8 L-9054.7,-184.2 L-8997.7,-241.5 L-8978.1,-244.8 L-8972.0,-245.7 L-8966.2,-246.5 L-8963.5,-247.2 L-8960.3,-248.9 L-8956.5,-251.0 L-8953.6,-253.9 L-8950.8,-257.4 L-8921.7,-299.7 L-8921.1,-300.8 L-8921.4,-302.2 L-8921.8,-303.2 L-8922.5,-304.1 L-8926.0,-306.3 L-8926.9,-306.8 L-8927.7,-306.7 L-8928.6,-306.2 L-8930.5,-304.8 L-8954.9,-282.0 L-8964.4,-275.2 L-9003.4,-315.2 L-8998.9,-329.4 L-8997.0,-333.6 L-8990.9,-344.8 L-8983.8,-357.3 L-8979.5,-362.1 L-8971.8,-370.3 L-8963.6,-379.3 L-8954.6,-388.8 L-8946.9,-395.4 L-8943.2,-398.7 L-8938.3,-402.3 L-8933.8,-404.7 L-8927.4,-407.6 L-8923.4,-409.0 L-8919.4,-410.2 L-8916.3,-410.5 L-8911.9,-410.2 L-8908.2,-409.7 L-8904.0,-408.5 L-8899.9,-405.1 L-8897.4,-401.6 L-8895.9,-398.0 L-8895.3,-392.6 L-8895.5,-385.5 L-8896.4,-377.5 L-8898.1,-369.8 L-8908.4,-346.8 L-8918.2,-326.1 L-8914.8,-320.6 L-8913.0,-319.5 L-8911.1,-319.5 L-8909.4,-319.9 L-8908.1,-320.7 L-8901.4,-330.2 L-8892.8,-334.5 L-8875.7,-380.2 L-8874.5,-382.5 L-8872.8,-384.5 L-8871.1,-385.4 L-8869.5,-385.8 L-8867.2,-385.8 L-8864.8,-385.2 L-8852.3,-381.7 L-8849.9,-381.2 L-8847.1,-381.1 L-8844.5,-381.5 L-8842.4,-382.4 L-8840.6,-383.8 L-8838.8,-386.1 L-8817.8,-414.2 L-8816.8,-416.3 L-8816.3,-418.5 L-8816.3,-420.6 L-8816.7,-422.8 L-8817.5,-424.4 L-8818.7,-426.0 L-8820.1,-427.3 L-8822.1,-428.3 L-8824.0,-428.8 L-8825.9,-428.9 L-8827.5,-428.6 L-8829.4,-427.7 L-8830.8,-426.7 L-8831.9,-425.3 L-8837.4,-416.4 L-8838.6,-414.7 L-8840.0,-413.1 L-8842.1,-411.3 L-8844.0,-410.2 L-8846.3,-409.5 L-8849.1,-408.9 L-8850.7,-408.9 L-8852.9,-409.2 L-8854.8,-409.7 L-8856.4,-410.4 L-8873.6,-426.0 L-8875.6,-428.4 L-8877.1,-430.6 L-8878.5,-433.3 L-8879.4,-435.6 L-8880.0,-438.0 L-8880.5,-440.6 L-8880.8,-443.8 L-8880.9,-447.0 L-8880.6,-449.7 L-8880.2,-452.0 L-8879.7,-454.0 L-8878.9,-455.7 L-8847.6,-505.4 L-8845.6,-508.7 L-8844.4,-510.4 L-8843.0,-511.2 L-8840.7,-512.2 L-8838.3,-512.9 L-8836.0,-513.3 L-8834.7,-513.3 L-8833.4,-513.1 L-8832.3,-512.7 L-8830.7,-511.9 L-8828.8,-510.7 L-8825.6,-508.1 L-8811.3,-494.7 L-8808.9,-491.3 L-8807.5,-488.0 L-8806.2,-484.1 L-8805.8,-481.1 L-8805.6,-477.9 L-8805.6,-475.2 L-8805.9,-472.5 L-8806.4,-469.8 L-8807.0,-468.0 L-8808.6,-464.3 L-8814.3,-453.7 L-8814.9,-451.3 L-8814.9,-448.4 L-8814.7,-446.2 L-8813.9,-444.5 L-8812.4,-442.9 L-8810.0,-441.2 L-8808.0,-440.1 L-8805.7,-439.6 L-8803.0,-439.7 L-8800.8,-440.2 L-8798.3,-441.5 L-8796.1,-443.5 L-8759.1,-494.3 L-8770.4,-504.5 L-8763.6,-511.8 L-8753.5,-502.1 L-8732.7,-529.4 L-8701.2,-571.5 L-8828.0,-693.0 L-8855.5,-664.1 L-8887.8,-694.6 L-8856.6,-728.2 L-8860.7,-732.7 L-8854.2,-738.7 L-8850.2,-734.6 L-8828.5,-758.2 L-8809.0,-740.1 L-8806.7,-725.1 L-8724.7,-648.6 L-8708.7,-642.4 L-8695.9,-646.9 L-8671.6,-637.2 L-8655.5,-643.1 L-8607.6,-701.6 L-8604.9,-707.1 L-8604.1,-714.5 L-8606.5,-721.8 L-8609.7,-727.0 L-8638.1,-753.2 L-8637.7,-760.4 L-8632.1,-774.5 L-8620.9,-795.4 L-8643.0,-809.7 L-8634.6,-812.9 L-8629.3,-816.3 L-8624.0,-822.3 L-8617.8,-838.2 L-8606.4,-867.2 L-8599.0,-874.0 L-8669.2,-942.0 L-8684.6,-932.4 L-8688.2,-931.5 L-8691.6,-931.4 L-8696.0,-931.9 L-8699.6,-932.9 L-8703.1,-935.0 L-8706.0,-937.5 L-8742.3,-972.5 L-8749.1,-979.3 L-8752.1,-982.9 L-8754.6,-987.4 L-8755.8,-991.5 L-8756.3,-995.5 L-8756.2,-999.3 L-8755.5,-1002.9 L-8754.6,-1005.8 L-8753.4,-1007.9 L-8750.8,-1011.6 L-8747.7,-1015.3 L-8731.4,-1032.2 L-8607.4,-917.3 L-8615.9,-907.7 L-8524.0,-820.8 L-8418.1,-975.9 L-8485.3,-1038.7 L-8493.9,-1031.0 L-8619.4,-1149.5 L-8603.0,-1164.8 L-8530.9,-1097.2 L-8523.7,-1107.8 L-8519.7,-1113.1 L-8514.6,-1118.3 L-8508.7,-1124.8 L-8502.7,-1128.7 L-8493.2,-1136.7 L-8483.7,-1145.5 L-8465.5,-1162.7 L-8422.0,-1211.6 L-8414.2,-1219.7 L-8385.5,-1234.4 L-8358.3,-1255.7 L-8355.7,-1257.7 L-8348.6,-1263.2 L-8345.5,-1266.0 L-8343.0,-1269.2 L-8341.3,-1272.5 L-8340.2,-1275.8 L-8338.9,-1278.3 L-8337.4,-1281.0 L-8334.8,-1285.3 L-8333.0,-1288.0 L-8331.2,-1290.5 L-8327.9,-1293.1 L-8324.7,-1295.3 L-8321.2,-1297.4 L-8312.9,-1301.4 L-8304.9,-1305.4 L-8303.7,-1305.6 L-8302.5,-1305.4 L-8300.1,-1304.7 L-8293.6,-1301.4 L-8288.7,-1299.0 L-8286.4,-1297.6 L-8284.3,-1295.9 L-8250.9,-1264.2 L-8248.6,-1262.9 L-8237.7,-1260.0 L-8234.2,-1259.0 L-8230.3,-1258.6 L-8227.3,-1258.7 L-8225.0,-1259.5 L-8222.7,-1261.1 L-8210.8,-1277.9 L-8210.8,-1280.2 L-8211.2,-1282.3 L-8212.5,-1284.6 L-8214.5,-1286.8 L-8223.6,-1295.3 L-8222.9,-1296.7 L-8211.2,-1321.5 L-8191.2,-1361.8 L-8173.0,-1375.2 L-8162.5,-1385.7 L-8155.3,-1394.0 L-8147.7,-1401.7 L-8139.3,-1408.6 L-8134.2,-1413.3 L-8128.8,-1418.2 L-8124.8,-1422.2 L-8122.8,-1425.8 L-8121.2,-1428.6 L-8120.2,-1431.3 L-8119.8,-1434.5 L-8119.6,-1437.7 L-8113.5,-1443.9 L-8104.5,-1452.4 L-8089.5,-1464.7 L-8073.8,-1476.6 L-8066.8,-1486.4 L-8064.2,-1496.5 L-8056.4,-1501.3 L-8046.6,-1501.5 L-8036.7,-1507.4 L-8028.0,-1523.1 L-8028.2,-1539.4 L-8026.6,-1564.6 L-8024.1,-1568.2 L-8022.6,-1570.6 L-8019.8,-1575.2 L-8023.3,-1585.9 L-8019.3,-1590.9 L-7999.5,-1615.4 L-7965.5,-1655.1 L-7959.0,-1664.5 L-7956.4,-1669.4 L-7945.6,-1684.3 L-7942.6,-1693.7 L-7942.5,-1708.2 L-7942.9,-1722.7 L-7943.0,-1737.5 L-7938.6,-1753.8 L-7931.2,-1769.9 L-7920.6,-1785.4 L-7912.9,-1796.9 L-7903.8,-1808.4 L-7886.2,-1828.0 L-7808.2,-1866.6 L-7797.9,-1869.3 L-7795.3,-1863.7 L-7792.2,-1858.3 L-7791.2,-1857.3 L-7789.5,-1858.0 L-7789.2,-1861.8 L-7790.4,-1865.0 L-7786.1,-1866.3 L-7770.1,-1871.0 L-7749.3,-1877.2 L-7732.5,-1882.2 L-7726.5,-1884.0 L-7732.5,-1902.9 L-7722.1,-1905.7 L-7704.8,-1908.1 L-7702.7,-1908.4 L-7702.6,-1909.6 L-7702.6,-1914.0 L-7686.9,-1914.7 L-7662.3,-1915.7 L-7652.8,-1911.1 L-7629.1,-1825.7 L-7623.8,-1820.6 L-7634.1,-1810.0 L-7625.0,-1801.0 L-7616.0,-1792.0 L-7605.2,-1803.0 L-7404.7,-1612.4 L-7137.1,-1898.0 L-7043.6,-1808.6 L-7040.0,-1809.7 L-7038.6,-1808.1 L-7032.3,-1812.1 L-7027.1,-1814.0 L-7021.6,-1816.5 L-7012.2,-1821.4 L-7006.4,-1824.7 L-6999.5,-1828.7 L-6993.1,-1832.7 L-6987.9,-1836.1 L-6983.1,-1839.2 L-6977.5,-1843.3 L-6971.1,-1848.0 L-6966.2,-1852.1 L-6961.0,-1856.7 L-6955.3,-1862.1 L-6949.9,-1867.5 L-6937.3,-1880.9 L-6929.7,-1890.0 L-6922.3,-1899.9 L-6917.2,-1907.1 L-6912.4,-1914.5 L-6906.7,-1924.8 L-6901.7,-1934.9 L-6897.7,-1943.2 L-6894.3,-1951.5 L-6892.2,-1957.0 L-6889.9,-1963.2 L-6884.5,-1969.9 L-7055.5,-2132.6 L-7053.4,-2134.9 L-7032.9,-2156.9 L-7018.0,-2172.7 L-7016.5,-2174.3 L-6973.1,-2133.7 L-6962.6,-2139.1 L-6961.4,-2137.6 L-6859.4,-2190.7 L-6855.2,-2192.9 L-6852.3,-2195.2 L-6849.6,-2197.7 L-6846.5,-2200.9 L-6843.5,-2205.4 L-6840.9,-2209.6 L-6839.2,-2212.8 L-6838.0,-2216.9 L-6836.9,-2221.4 L-6836.4,-2226.3 L-6836.4,-2231.8 L-6836.8,-2236.2 L-6837.6,-2240.1 L-6838.9,-2244.8 L-6870.8,-2336.6 L-6875.1,-2351.7 L-6874.0,-2356.9 L-6951.0,-2376.0 L-6947.4,-2389.3 L-6944.4,-2401.3 L-6921.6,-2491.5 L-6939.3,-2544.1 L-6949.7,-2578.1 L-6952.7,-2586.6 L-6925.1,-2611.9 L-6894.0,-2628.6 L-6892.1,-2626.0 L-6889.1,-2621.7 L-6882.1,-2612.6 L-6881.3,-2613.4 L-6881.1,-2616.5 L-6890.8,-2629.9 L-6873.5,-2642.3 L-6869.7,-2644.5 L-6860.7,-2632.8 L-6859.2,-2631.7 L-6857.7,-2631.4 L-6856.9,-2631.6 L-6856.9,-2632.4 L-6899.7,-2691.0 L-6902.8,-2694.4 L-6906.4,-2699.3 L-6925.0,-2721.8 L-6909.1,-2771.1 L-6896.9,-2783.8 L-6882.8,-2790.4 L-6852.8,-2808.2 L-6846.6,-2814.6 L-6819.7,-2838.2 L-6811.2,-2829.3 L-6786.3,-2802.4 L-6763.2,-2821.8 L-6747.7,-2806.9 L-6733.8,-2793.3 L-6733.1,-2792.6 L-6721.3,-2802.7 L-6705.7,-2786.1 L-6692.3,-2768.9 L-6682.4,-2757.4 L-6681.1,-2755.9 L-6652.3,-2781.2 L-6650.8,-2782.5 L-6657.6,-2790.8 L-6641.9,-2803.7 L-6594.3,-2748.2 L-6553.8,-2774.9 L-6549.8,-2778.7 L-6532.2,-2786.1 L-6528.2,-2790.0 L-6524.4,-2795.0 L-6502.7,-2814.3 L-6507.6,-2821.0 L-6546.4,-2812.1 L-6590.8,-2862.6 L-6585.7,-2867.0 L-6579.0,-2859.2 L-6547.6,-2886.2 L-6514.3,-2849.8 L-6505.3,-2846.2 L-6499.9,-2843.1 L-6493.1,-2835.4 L-6489.4,-2838.7 L-6513.5,-2866.1 L-6498.7,-2878.9 L-6468.8,-2843.0 L-6465.0,-2845.8 L-6465.4,-2846.6 L-6399.8,-2894.0 L-6380.3,-2908.4 L-6444.0,-2988.0 L-6430.4,-2997.5 L-6375.0,-2932.6 L-6334.1,-2925.1 L-6307.1,-2940.9 L-6303.3,-2943.3 L-6303.5,-2946.3 L-6305.4,-2949.8 L-6284.3,-2963.1 L-6278.1,-2956.9 L-6260.3,-2967.4 L-6273.2,-2983.4 L-6335.5,-3066.7 L-6291.5,-3112.3 L-6262.6,-3155.0 L-6261.9,-3188.4 L-6277.3,-3232.8 L-6244.9,-3259.8 L-6210.9,-3272.9 L-6199.7,-3275.5 L-6190.7,-3276.7 L-6179.7,-3276.0 L-6168.3,-3273.2 L-6151.8,-3259.1 L-6109.0,-3206.9 L-6074.8,-3163.5 L-6033.9,-3136.2 L-6017.8,-3133.6 L-6003.4,-3131.9 L-5991.2,-3131.4 L-5975.6,-3132.5 L-5958.7,-3135.3 L-5945.0,-3139.2 L-5933.4,-3144.6 L-5925.7,-3149.1 L-5920.0,-3155.1 L-5910.4,-3166.7 L-5900.0,-3185.7 L-5888.7,-3210.9 L-5868.6,-3200.6 L-5860.6,-3197.9 L-5852.0,-3196.7 L-5838.3,-3197.6 L-5829.2,-3200.3 L-5818.8,-3204.8 L-5809.1,-3210.4 L-5798.8,-3220.4 L-5790.0,-3228.4 L-5779.0,-3235.9 L-5771.4,-3240.8 L-5760.2,-3244.8 L-5740.9,-3250.4 L-5729.5,-3253.6 L-5717.3,-3258.2 L-5706.7,-3263.7 L-5700.4,-3267.3 L-5695.4,-3272.5 L-5630.0,-3305.3 L-5627.5,-3306.7 L-5624.6,-3308.5 L-5621.6,-3310.8 L-5617.2,-3313.3 L-5614.3,-3314.7 L-5611.2,-3317.4 L-5608.8,-3319.9 L-5605.6,-3322.0 L-5602.2,-3324.4 L-5597.7,-3328.6 L-5591.3,-3329.1 L-5584.7,-3329.9 L-5580.4,-3331.3 L-5574.8,-3333.9 L-5567.9,-3337.0 L-5560.6,-3341.5 L-5556.5,-3345.4 L-5551.9,-3350.7 L-5549.0,-3355.6 L-5547.4,-3360.1 L-5547.3,-3363.3 L-5547.2,-3365.9 L-5545.6,-3376.3 L-5509.2,-3397.4 L-5445.4,-3434.2 L-5433.0,-3441.3 L-5324.8,-3503.7 L-5207.6,-3571.0 L-5157.7,-3599.6 L-5140.4,-3609.3 L-4995.5,-3693.5 L-4963.3,-3711.2 L-4963.8,-3712.3 L-4897.5,-3749.8 L-4872.0,-3764.1 L-4825.0,-3790.1 L-4824.5,-3789.4 L-4806.3,-3799.4 L-4762.1,-3824.1 L-4756.8,-3828.9 L-4712.0,-3861.7 L-4689.7,-3880.2 L-4669.2,-3897.5 L-4659.8,-3902.8 L-4638.6,-3923.8 L-4636.8,-3922.7 L-4634.0,-3923.0 L-4632.6,-3922.1 L-4602.8,-3957.0 L-4610.3,-3964.0 L-4609.3,-3965.8 L-4606.1,-3970.4 L-4597.5,-3981.3 L-4592.3,-3989.2 L-4588.2,-3995.7 L-4582.5,-4004.4 L-4577.0,-4013.4 L-4570.8,-4023.7 L-4564.4,-4034.9 L-4550.5,-4063.6 L-4546.2,-4072.7 L-4542.7,-4080.0 L-4540.3,-4085.5 L-4538.2,-4089.7 L-4533.8,-4100.7 L-4649.6,-4316.7 L-4651.8,-4320.8 L-4653.5,-4323.1 L-4654.7,-4324.8 L-4656.3,-4326.2 L-4657.8,-4327.2 L-4659.8,-4328.4 L-4661.9,-4329.2 L-4663.7,-4329.6 L-4665.5,-4329.8 L-4668.2,-4329.8 L-4671.3,-4329.3 L-4674.0,-4328.5 L-4676.8,-4327.1 L-4703.7,-4311.6 L-4738.8,-4291.5 L-4763.3,-4277.9 L-4808.0,-4253.3 L-4835.4,-4238.4 L-4834.4,-4236.7 L-4846.1,-4230.0 L-4884.4,-4210.2 L-4912.8,-4193.4 L-4929.5,-4184.1 L-4954.9,-4169.5 L-4957.8,-4167.5 L-4980.1,-4207.6 L-4936.3,-4231.6 L-4876.5,-4264.1 L-4835.8,-4286.7 L-4830.8,-4289.6 L-4831.5,-4290.7 L-4796.3,-4309.9 L-4777.6,-4320.2 L-4734.7,-4341.1 L-4726.5,-4345.3 L-4661.8,-4381.3 L-4637.5,-4394.7 L-4620.4,-4403.9 L-4600.2,-4415.5 L-4572.2,-4364.9 L-4616.2,-4340.8 L-4618.5,-4337.1 L-4619.4,-4333.2 L-4619.8,-4330.2 L-4619.9,-4327.6 L-4619.7,-4325.5 L-4618.9,-4322.6 L-4529.2,-4156.7 L-4527.5,-4154.2 L-4525.5,-4152.3 L-4523.5,-4151.0 L-4521.4,-4150.3 L-4519.1,-4150.0 L-4516.9,-4150.2 L-4515.2,-4150.7 L-4475.4,-4180.9 L-4456.7,-4196.6 L-4437.4,-4212.9 L-4430.1,-4219.6 L-4406.2,-4239.2 L-4405.1,-4239.2 L-4381.9,-4259.0 L-4381.8,-4260.2 L-4366.6,-4272.7 L-4354.6,-4282.5 L-4334.0,-4299.5 L-4332.1,-4297.2 L-4311.9,-4313.9 L-4301.7,-4322.4 L-4273.4,-4345.9 L-4253.7,-4362.3 L-4255.6,-4365.1 L-4249.1,-4370.6 L-4238.4,-4379.4 L-4231.8,-4385.2 L-4203.9,-4397.7 L-4185.0,-4404.3 L-4175.3,-4408.9 L-4148.1,-4409.1 L-4138.6,-4409.1 L-4118.5,-4408.1 L-4095.0,-4407.1 L-4093.3,-4408.7 L-4091.0,-4405.7 L-4083.6,-4405.3 L-4016.3,-4399.5 L-4008.4,-4397.8 L-4001.5,-4396.7 L-3985.9,-4395.4 L-3956.8,-4394.0 L-3950.4,-4393.9 L-3944.4,-4394.1 L-3921.1,-4395.0 L-3909.1,-4395.6 L-3897.2,-4396.7 L-3878.9,-4398.6 L-3879.0,-4397.5 L-3864.5,-4400.0 L-3850.8,-4402.6 L-3840.3,-4404.5 L-3826.5,-4414.9 L-3824.9,-4412.7 L-3823.2,-4410.3 L-3701.6,-4249.5 L-3408.1,-4148.3 L-2869.5,-4543.9 L-2722.7,-4649.6 L-2666.0,-4770.6 L-2756.2,-4888.8 L-2752.2,-4905.7 L-2736.4,-4910.0 L-2706.0,-4903.7 L-2684.4,-4911.8 L-2678.4,-4920.2 L-2679.7,-4927.5 L-2695.8,-4959.1 L-2696.9,-4970.9 L-2697.8,-4994.3 L-2700.6,-5016.9 L-2697.8,-5020.9 L-2688.7,-5025.3 L-2677.6,-5027.8 L-2669.6,-5036.4 L-2667.8,-5046.8 L-2674.6,-5066.9 L-2675.3,-5080.8 L-2673.1,-5096.6 L-2662.1,-5124.3 L-2664.4,-5137.1 L-2669.9,-5151.4 L-2670.1,-5170.8 L-2673.3,-5196.4 L-2679.1,-5212.4 L-2682.7,-5220.8 L-2680.3,-5224.5 L-2678.0,-5224.3 L-2677.4,-5225.8 L-2677.1,-5227.8 L-2677.2,-5229.8 L-2680.7,-5230.2 L-2682.9,-5233.3 L-2682.5,-5237.0 L-2685.5,-5237.8 L-2689.2,-5237.9 L-2689.7,-5237.0 L-2697.3,-5246.0 L-2698.9,-5248.8 L-2700.2,-5252.7 L-2701.1,-5256.5 L-2701.8,-5260.5 L-2702.1,-5264.5 L-2702.3,-5268.1 L-2702.3,-5271.8 L-2702.0,-5273.8 L-2700.4,-5278.8 L-2698.6,-5282.8 L-2696.3,-5286.7 L-2692.9,-5291.6 L-2689.4,-5296.3 L-2686.1,-5299.7 L-2682.0,-5302.8 L-2681.2,-5302.0 L-2646.1,-5328.8 L-2641.0,-5332.7 L-2642.0,-5334.2 L-2642.0,-5336.8 L-2633.3,-5343.6 L-2631.1,-5343.5 L-2629.0,-5342.0 L-2625.3,-5344.8 L-2589.3,-5372.1 L-2589.7,-5373.0 L-2585.5,-5376.1 L-2580.5,-5379.2 L-2577.0,-5380.8 L-2572.0,-5382.7 L-2567.7,-5383.9 L-2563.4,-5384.5 L-2558.7,-5384.9 L-2555.9,-5384.7 L-2552.0,-5384.1 L-2548.2,-5382.8 L-2545.4,-5381.4 L-2542.7,-5379.8 L-2540.7,-5378.3 L-2539.0,-5376.7 L-2536.5,-5374.3 L-2535.4,-5373.9 L-2533.6,-5373.9 L-2531.8,-5374.2 L-2526.3,-5378.1 L-2526.3,-5379.2 L-2525.7,-5380.0 L-2525.1,-5381.1 L-2525.2,-5382.4 L-2525.5,-5383.5 L-2526.3,-5384.5 L-2530.2,-5388.4 L-2533.3,-5390.9 L-2536.9,-5392.9 L-2542.8,-5395.5 L-2547.9,-5397.5 L-2539.0,-5402.1 L-2528.1,-5409.7 L-2514.6,-5411.4 L-2501.1,-5410.5 L-2492.3,-5414.0 L-2484.6,-5425.0 L-2455.6,-5476.9 L-2443.8,-5498.3 L-2434.5,-5521.1 L-2432.9,-5525.9 L-2419.1,-5568.2 L-2416.9,-5572.3 L-2414.3,-5576.4 L-2381.9,-5616.5 L-2375.0,-5623.7 L-2369.9,-5628.1 L-2297.3,-5690.3 L-2293.3,-5693.0 L-2280.9,-5699.8 L-2266.0,-5708.2 L-2219.6,-5732.5 L-2118.5,-5786.8 L-2116.1,-5784.9 L-2114.2,-5784.2 L-2112.5,-5783.7 L-2110.7,-5784.0 L-2108.8,-5784.4 L-2103.4,-5785.5 L-2097.1,-5786.9 L-2091.4,-5788.2 L-2085.5,-5789.3 L-2082.3,-5790.0 L-2077.9,-5791.3 L-2072.9,-5793.4 L-2060.8,-5800.0 L-2056.4,-5802.4 L-2054.1,-5803.8 L-2051.8,-5804.8 L-2042.4,-5808.8 L-2032.1,-5812.8 L-2019.1,-5818.4 L-2003.8,-5824.7 L-2003.2,-5825.0 L-2001.9,-5825.1 L-2000.2,-5825.6 L-1997.8,-5827.4 L-1995.1,-5828.4 L-1992.1,-5829.9 L-1986.5,-5833.1 L-1984.5,-5835.1 L-1981.2,-5837.2 L-1981.5,-5837.8 L-1980.1,-5839.5 L-1978.3,-5841.4 L-1975.3,-5842.9 L-1972.8,-5843.9 L-1970.1,-5844.9 L-1967.6,-5846.2 L-1962.7,-5849.3 L-1961.3,-5850.7 L-1959.9,-5852.9 L-1959.3,-5854.5 L-1959.1,-5856.1 L-1959.3,-5857.6 L-1959.0,-5859.1 L-1973.0,-5876.0 L-1928.9,-5901.9 L-1908.0,-5913.0 L-1903.9,-5914.3 L-1897.5,-5913.1 L-1890.4,-5903.2 L-1887.2,-5900.4 L-1884.3,-5899.0 L-1881.6,-5898.4 L-1879.1,-5898.5 L-1841.3,-5914.1 L-1831.0,-5919.1 L-1821.4,-5924.4 L-1805.9,-5932.6 L-1802.7,-5933.7 L-1587.9,-6023.0 L-1520.7,-6055.3 L-1220.2,-6199.6 L5792.9,-6257.6 L5792.9,3778.0 L-9194.8,3778.0 L-9194.8,3351.5 Z" fill="#add7e1" stroke="none"><title>Biscayne Bay</title></path><path d="M-1.0,-1.0 L257.0,-1.0 L257.0,257.0 L-1.0,257.0 L-1.0,-1.0 Z" fill="#add7e1" stroke="none" fill-rule="evenodd"><title>Biscayne Bay</title></path><path d="M2388.6,-3647.6 L-721.0,9724.9" fill="none" stroke="#6fb5c7" stroke-width="1.7" stroke-dasharray="5 7" opacity="0.34" stroke-linecap="round" stroke-linejoin="round"><title>Atlantic Intracoastal Waterway</title></path></svg>