<svg xmlns="http://www.w3.org/2000/svg" width="256" height="256" viewBox="0 0 256 256"><rect width="256" height="256" fill="#f1efe7"/><path d="M-1802.7,-12589.7 L-1587.9,-12679.0 L-1520.7,-12711.3 L-1220.2,-12855.6 L-1163.8,-12801.0 L-1158.9,-12796.3 L-1053.5,-12886.5 L-1028.4,-12905.6 L-986.5,-12943.4 L-750.4,-13160.2 L-559.9,-13377.8 L-552.6,-13391.7 L-545.6,-13399.6 L-534.5,-13412.3 L-523.2,-13425.2 L-518.6,-13430.5 L-593.7,-13527.6 L-494.3,-13587.2 L-440.4,-13515.5 L-364.2,-13602.7 L-428.7,-13688.1 L-348.8,-13771.4 L-287.3,-13690.4 L-216.7,-13770.8 L-186.6,-13790.5 L-39.4,-13886.0 L33.3,-13934.3 L120.9,-13991.9 L162.3,-14019.1 L267.2,-14086.8 L240.2,-14122.3 L191.9,-14187.0 L316.8,-14266.4 L362.3,-14289.9 L365.8,-14292.4 L389.8,-14310.9 L475.4,-14356.7 L481.3,-14365.9 L505.3,-14382.4 L518.3,-14401.4 L522.0,-14404.2 L542.9,-14412.3 L590.1,-14429.2 L622.4,-14443.4 L736.5,-14497.0 L737.9,-14493.3 L833.6,-14534.2 L872.7,-14484.1 L959.8,-14542.2 L972.2,-14550.7 L973.4,-14551.7 L974.6,-14553.3 L976.5,-14556.6 L977.5,-14559.7 L978.1,-14563.4 L978.0,-14566.4 L977.6,-14569.3 L977.2,-14572.6 L977.1,-14575.1 L977.3,-14577.2 L977.7,-14579.4 L979.3,-14583.4 L980.4,-14585.6 L982.9,-14589.4 L985.5,-14592.2 L998.2,-14597.3 L1008.8,-14601.3 L1022.3,-14605.7 L1028.6,-14607.4 L1039.8,-14611.1 L1047.7,-14613.9 L1058.6,-14618.4 L1073.4,-14624.9 L1089.4,-14632.4 L1098.0,-14636.6 L1108.8,-14642.1 L1118.9,-14647.7 L1129.0,-14653.7 L1139.3,-14660.4 L1142.5,-14662.6 L1163.2,-14678.4 L1180.6,-14691.8 L1197.6,-14706.2 L1213.5,-14721.2 L1225.0,-14734.1 L1236.4,-14748.0 L1250.4,-14766.0 L1263.2,-14784.0 L1277.9,-14807.1 L1287.5,-14825.0 L1293.5,-14836.4 L1302.4,-14855.7 L1309.9,-14873.6 L1316.6,-14892.9 L1322.0,-14909.8 L1327.9,-14937.2 L1332.2,-14961.7 L1334.5,-14982.7 L1336.5,-15007.5 L1336.7,-15034.0 L1335.1,-15058.5 L1330.9,-15090.5 L1326.5,-15112.3 L1321.5,-15132.9 L1314.1,-15156.3 L1307.8,-15174.2 L1300.6,-15193.7 L1293.8,-15209.9 L1289.2,-15220.4 L1287.3,-15228.1 L1287.0,-15234.0 L1287.6,-15239.3 L1289.7,-15243.9 L1292.9,-15247.8 L1297.1,-15250.0 L1301.6,-15250.6 L1313.7,-15247.7 L1347.4,-15239.6 L1358.6,-15494.3 L1402.3,-15948.9 L1354.8,-15960.1 L1349.6,-15974.4 L1349.8,-15994.9 L1356.4,-16041.4 L1365.4,-16051.9 L1373.4,-16082.1 L1423.9,-16070.4 L1451.7,-16360.9 L1459.4,-16441.3 L1443.7,-16445.2 L1453.2,-16483.6 L1420.9,-16491.3 L1425.0,-16514.8 L1430.7,-16530.3 L1437.8,-16548.4 L1449.8,-16573.7 L1462.7,-16570.8 L1480.1,-16753.5 L1484.2,-16864.3 L1485.0,-16884.7 L1494.4,-16955.2 L1513.1,-17130.9 L1637.9,-17456.3 L1666.4,-17545.0 L2013.1,-17678.0 L2047.0,-17691.6 L2052.9,-17694.8 L2057.5,-17699.0 L2062.6,-17704.9 L2066.5,-17711.8 L2069.1,-17718.6 L2069.7,-17728.5 L2069.2,-17740.8 L2064.6,-17896.3 L2062.9,-17926.4 L2062.4,-17947.1 L2061.7,-17987.3 L2060.9,-17999.9 L2059.4,-18010.5 L2057.3,-18019.9 L2054.2,-18029.5 L2049.3,-18040.8 L2042.1,-18052.9 L2035.1,-18062.5 L2029.7,-18071.6 L2024.2,-18083.7 L2019.6,-18095.3 L2017.8,-18104.8 L2016.4,-18115.3 L2015.7,-18125.8 L2016.0,-18136.0 L2017.2,-18147.9 L2020.0,-18159.6 L2023.7,-18170.0 L2027.6,-18179.5 L2032.6,-18188.7 L2038.7,-18199.9 L2042.7,-18210.0 L2046.2,-18222.9 L2052.6,-18232.7 L2050.4,-18321.9 L2047.1,-18327.1 L2046.1,-18387.7 L2044.4,-18459.2 L2045.6,-18469.1 L2048.8,-18479.2 L2056.8,-18495.0 L2110.3,-18610.1 L2111.4,-18612.0 L2120.8,-18632.5 L2129.7,-18651.9 L2139.7,-18671.9 L2149.5,-18692.5 L2154.3,-18702.5 L2206.9,-18810.4 L2263.1,-18929.6 L2384.7,-19176.4 L2311.6,-19258.3 L2252.0,-19131.3 L2200.5,-19021.4 L2192.7,-19005.8 L2176.8,-18973.3 L2145.0,-18976.0 L2136.3,-18976.5 L2133.2,-18973.7 L2137.4,-18969.9 L2121.1,-18955.4 L2108.2,-18943.5 L2105.8,-18892.6 L2101.0,-18882.4 L2085.4,-18883.0 L2082.8,-18883.9 L1878.4,-18968.3 L1874.0,-18970.6 L1869.3,-18973.6 L1861.9,-18979.2 L1856.2,-18984.6 L1851.4,-18989.8 L1846.7,-18996.2 L1843.1,-19001.8 L1840.3,-19007.6 L1838.1,-19013.7 L1836.6,-19017.9 L1835.5,-19023.0 L1834.7,-19029.0 L1833.9,-19037.2 L1833.9,-19048.9 L1832.5,-19088.6 L1838.1,-19088.9 L1837.3,-19109.9 L1836.4,-19144.5 L1841.6,-19144.6 L1841.2,-19168.2 L1835.3,-19168.1 L1832.6,-19267.5 L1838.2,-19267.8 L1837.3,-19291.1 L1831.9,-19290.9 L1829.6,-19364.4 L1856.6,-19393.5 L1891.1,-19394.7 L1916.8,-19395.6 L1950.7,-19396.7 L1983.3,-19397.7 L2012.5,-19398.7 L2025.2,-19399.3 L2024.6,-19410.6 L2024.4,-19422.4 L2022.5,-19460.7 L2021.8,-19533.8 L2020.8,-19535.1 L2020.6,-19542.3 L2022.7,-19542.4 L2017.6,-19718.5 L2013.2,-19884.2 L2012.5,-19889.4 L2012.1,-19899.0 L1939.9,-19896.4 L1891.9,-19900.5 L1532.6,-19888.0 L1532.5,-19891.2 L1531.8,-19906.5 L1361.4,-19900.5 L1361.1,-19928.8 L1338.6,-19933.9 L1334.6,-20055.0 L1997.4,-20078.0 L2008.4,-20093.1 L2008.0,-20136.1 L2007.2,-20173.3 L2006.6,-20196.6 L2005.7,-20219.3 L1953.0,-20244.1 L1950.9,-20299.2 L2004.9,-20326.0 L2000.0,-20453.5 L1998.6,-20459.8 L1944.9,-20484.9 L1943.2,-20553.1 L1994.2,-20579.4 L1971.5,-20856.3 L1977.5,-20979.5 L1980.5,-21180.4 L1980.3,-21398.9 L1985.1,-21429.5 L1985.4,-21444.3 L1980.6,-21462.1 L1985.6,-21462.1 L1985.6,-21478.2 L1988.6,-21889.2 L1988.1,-21907.5 L1982.4,-21907.5 L1982.6,-21983.1 L1979.3,-21987.8 L1974.1,-22065.8 L1984.4,-22137.1 L1983.1,-22223.4 L1979.6,-22244.1 L1984.9,-22308.0 L1981.3,-22385.3 L1972.3,-22468.0 L1955.2,-22602.0 L1963.3,-22638.9 L1959.7,-22674.8 L1929.1,-22700.9 L1884.2,-22700.5 L1815.8,-22691.5 L1771.3,-22691.5 L1730.9,-22706.3 L1677.8,-22742.7 L1677.8,-22808.0 L1676.4,-22888.3 L1681.6,-22955.2 L1699.2,-23007.4 L1993.9,-23012.9 L2000.7,-23430.8 L2000.7,-24032.4 L1997.6,-24250.7 L17909.8,-30822.4 L17909.8,5395.8 L-1802.7,5395.8 L-1802.7,-12589.7 Z" fill="#add7e1" stroke="none"><title>Biscayne Bay</title></path><path d="M2388.6,-10303.6 L-721.0,3068.9" fill="none" stroke="#6fb5c7" stroke-width="1.7" stroke-dasharray="5 7" opacity="0.34" stroke-linecap="round" stroke-linejoin="round"><title>Atlantic Intracoastal Waterway</title></path></svg>