<svg xmlns="http://www.w3.org/2000/svg" width="256" height="256" viewBox="0 0 256 256"><rect width="256" height="256" fill="#f1efe7"/><path d="M-17418.7,15570.3 L-17203.9,15481.0 L-17136.7,15448.7 L-16836.2,15304.4 L-16779.8,15359.0 L-16774.9,15363.7 L-16669.5,15273.5 L-16644.4,15254.4 L-16602.5,15216.6 L-16366.4,14999.8 L-16175.9,14782.2 L-16168.6,14768.3 L-16161.6,14760.4 L-16150.5,14747.7 L-16139.2,14734.8 L-16134.6,14729.5 L-16209.7,14632.4 L-16110.3,14572.8 L-16056.4,14644.5 L-15980.2,14557.3 L-16044.7,14471.9 L-15964.8,14388.6 L-15903.3,14469.6 L-15832.7,14389.2 L-15802.6,14369.5 L-15655.4,14274.0 L-15582.7,14225.7 L-15495.1,14168.1 L-15453.7,14140.9 L-15348.8,14073.2 L-15375.8,14037.7 L-15424.1,13973.0 L-15299.2,13893.6 L-15253.7,13870.1 L-15250.2,13867.6 L-15226.2,13849.1 L-15140.6,13803.3 L-15134.7,13794.1 L-15110.7,13777.6 L-15097.7,13758.6 L-15094.0,13755.8 L-15073.1,13747.7 L-15025.9,13730.8 L-14993.6,13716.6 L-14879.5,13663.0 L-14878.1,13666.7 L-14782.4,13625.8 L-14743.3,13675.9 L-14656.2,13617.8 L-14643.8,13609.3 L-14642.6,13608.3 L-14641.4,13606.7 L-14639.5,13603.4 L-14638.5,13600.3 L-14637.9,13596.6 L-14638.0,13593.6 L-14638.4,13590.7 L-14638.8,13587.4 L-14638.9,13584.9 L-14638.7,13582.8 L-14638.3,13580.6 L-14636.7,13576.6 L-14635.6,13574.4 L-14633.1,13570.6 L-14630.5,13567.8 L-14617.8,13562.7 L-14607.2,13558.7 L-14593.7,13554.3 L-14587.4,13552.6 L-14576.2,13548.9 L-14568.3,13546.1 L-14557.4,13541.6 L-14542.6,13535.1 L-14526.6,13527.6 L-14518.0,13523.4 L-14507.2,13517.9 L-14497.1,13512.3 L-14487.0,13506.3 L-14476.7,13499.6 L-14473.5,13497.4 L-14452.8,13481.6 L-14435.4,13468.2 L-14418.4,13453.8 L-14402.5,13438.8 L-14391.0,13425.9 L-14379.6,13412.0 L-14365.6,13394.0 L-14352.8,13376.0 L-14338.1,13352.9 L-14328.5,13335.0 L-14322.5,13323.6 L-14313.6,13304.3 L-14306.1,13286.4 L-14299.4,13267.1 L-14294.0,13250.2 L-14288.1,13222.8 L-14283.8,13198.3 L-14281.5,13177.3 L-14279.5,13152.5 L-14279.3,13126.0 L-14280.9,13101.5 L-14285.1,13069.5 L-14289.5,13047.7 L-14294.5,13027.1 L-14301.9,13003.7 L-14308.2,12985.8 L-14315.4,12966.3 L-14322.2,12950.1 L-14326.8,12939.6 L-14328.7,12931.9 L-14329.0,12926.0 L-14328.4,12920.7 L-14326.3,12916.1 L-14323.1,12912.2 L-14318.9,12910.0 L-14314.4,12909.4 L-14302.3,12912.3 L-14268.6,12920.4 L-14257.4,12665.7 L-14213.7,12211.1 L-14261.2,12199.9 L-14266.4,12185.6 L-14266.2,12165.1 L-14259.6,12118.6 L-14250.6,12108.1 L-14242.6,12077.9 L-14192.1,12089.6 L-14164.3,11799.1 L-14156.6,11718.7 L-14172.3,11714.8 L-14162.8,11676.4 L-14195.1,11668.7 L-14191.0,11645.2 L-14185.3,11629.7 L-14178.2,11611.6 L-14166.2,11586.3 L-14153.3,11589.2 L-14135.9,11406.5 L-14131.8,11295.7 L-14131.0,11275.3 L-14121.6,11204.8 L-14102.9,11029.1 L-13978.1,10703.7 L-13949.6,10615.0 L-13602.9,10482.0 L-13569.0,10468.4 L-13563.1,10465.2 L-13558.5,10461.0 L-13553.4,10455.1 L-13549.5,10448.2 L-13546.9,10441.4 L-13546.3,10431.5 L-13546.8,10419.2 L-13551.4,10263.7 L-13553.1,10233.6 L-13553.6,10212.9 L-13554.3,10172.7 L-13555.1,10160.1 L-13556.6,10149.5 L-13558.7,10140.1 L-13561.8,10130.5 L-13566.7,10119.2 L-13573.9,10107.1 L-13580.9,10097.5 L-13586.3,10088.4 L-13591.8,10076.3 L-13596.4,10064.7 L-13598.2,10055.2 L-13599.6,10044.7 L-13600.3,10034.2 L-13600.0,10024.0 L-13598.8,10012.1 L-13596.0,10000.4 L-13592.3,9990.0 L-13588.4,9980.5 L-13583.4,9971.3 L-13577.3,9960.1 L-13573.3,9950.0 L-13569.8,9937.1 L-13563.4,9927.3 L-13565.6,9838.1 L-13568.9,9832.9 L-13569.9,9772.3 L-13571.6,9700.8 L-13570.4,9690.9 L-13567.2,9680.8 L-13559.2,9665.0 L-13505.7,9549.9 L-13504.6,9548.0 L-13495.2,9527.5 L-13486.3,9508.1 L-13476.3,9488.1 L-13466.5,9467.5 L-13461.7,9457.5 L-13409.1,9349.6 L-13352.9,9230.4 L-13231.3,8983.6 L-13304.4,8901.7 L-13364.0,9028.7 L-13415.5,9138.6 L-13423.3,9154.2 L-13439.2,9186.7 L-13471.0,9184.0 L-13479.7,9183.5 L-13482.8,9186.3 L-13478.6,9190.1 L-13494.9,9204.6 L-13507.8,9216.5 L-13510.2,9267.4 L-13515.0,9277.6 L-13530.6,9277.0 L-13533.2,9276.1 L-13737.6,9191.7 L-13742.0,9189.4 L-13746.7,9186.4 L-13754.1,9180.8 L-13759.8,9175.4 L-13764.6,9170.2 L-13769.3,9163.8 L-13772.9,9158.2 L-13775.7,9152.4 L-13777.9,9146.3 L-13779.4,9142.1 L-13780.5,9137.0 L-13781.3,9131.0 L-13782.1,9122.8 L-13782.1,9111.1 L-13783.5,9071.4 L-13777.9,9071.1 L-13778.7,9050.1 L-13779.6,9015.5 L-13774.4,9015.4 L-13774.8,8991.8 L-13780.7,8991.9 L-13783.4,8892.5 L-13777.8,8892.2 L-13778.7,8868.9 L-13784.1,8869.1 L-13786.4,8795.6 L-13759.4,8766.5 L-13724.9,8765.3 L-13699.2,8764.4 L-13665.3,8763.3 L-13632.7,8762.3 L-13603.5,8761.3 L-13590.8,8760.7 L-13591.4,8749.4 L-13591.6,8737.6 L-13593.5,8699.3 L-13594.2,8626.2 L-13595.2,8624.9 L-13595.4,8617.7 L-13593.3,8617.6 L-13598.4,8441.5 L-13602.8,8275.8 L-13603.5,8270.6 L-13603.9,8261.0 L-13676.1,8263.6 L-13724.1,8259.5 L-14083.4,8272.0 L-14083.5,8268.8 L-14084.2,8253.5 L-14254.6,8259.5 L-14254.9,8231.2 L-14277.4,8226.1 L-14281.4,8105.0 L-13618.6,8082.0 L-13607.6,8066.9 L-13608.0,8023.9 L-13608.8,7986.7 L-13609.4,7963.4 L-13610.3,7940.7 L-13663.0,7915.9 L-13665.1,7860.8 L-13611.1,7834.0 L-13616.0,7706.5 L-13617.4,7700.2 L-13671.1,7675.1 L-13672.8,7606.9 L-13621.8,7580.6 L-13644.5,7303.7 L-13638.5,7180.5 L-13635.5,6979.6 L-13635.7,6761.1 L-13630.9,6730.5 L-13630.6,6715.7 L-13635.4,6697.9 L-13630.4,6697.9 L-13630.4,6681.8 L-13627.4,6270.8 L-13627.9,6252.5 L-13633.6,6252.5 L-13633.4,6176.9 L-13636.7,6172.2 L-13641.9,6094.2 L-13631.6,6022.9 L-13632.9,5936.6 L-13636.4,5915.9 L-13631.1,5852.0 L-13634.7,5774.7 L-13643.7,5692.0 L-13660.8,5558.0 L-13652.7,5521.1 L-13656.3,5485.2 L-13686.9,5459.1 L-13731.8,5459.5 L-13800.2,5468.5 L-13844.7,5468.5 L-13885.1,5453.7 L-13938.2,5417.3 L-13938.2,5352.0 L-13939.6,5271.7 L-13934.4,5204.8 L-13916.8,5152.6 L-13622.1,5147.1 L-13615.3,4729.2 L-13615.3,4127.6 L-13618.4,3909.3 L2293.8,-2662.4 L2293.8,33555.8 L-17418.7,33555.8 L-17418.7,15570.3 Z" fill="#add7e1" stroke="none"><title>Biscayne Bay</title></path><path d="M-1.0,-1.0 L257.0,-1.0 L257.0,257.0 L-1.0,257.0 L-1.0,-1.0 Z" fill="#add7e1" stroke="none" fill-rule="evenodd"><title>Biscayne Bay</title></path></svg>