<svg xmlns="http://www.w3.org/2000/svg" width="256" height="256" viewBox="0 0 256 256"><rect width="256" height="256" fill="#f1efe7"/><path d="M-10250.7,11218.3 L-10035.9,11129.0 L-9968.7,11096.7 L-9668.2,10952.4 L-9611.8,11007.0 L-9606.9,11011.7 L-9501.5,10921.5 L-9476.4,10902.4 L-9434.5,10864.6 L-9198.4,10647.8 L-9007.9,10430.2 L-9000.6,10416.3 L-8993.6,10408.4 L-8982.5,10395.7 L-8971.2,10382.8 L-8966.6,10377.5 L-9041.7,10280.4 L-8942.3,10220.8 L-8888.4,10292.5 L-8812.2,10205.3 L-8876.7,10119.9 L-8796.8,10036.6 L-8735.3,10117.6 L-8664.7,10037.2 L-8634.6,10017.5 L-8487.4,9922.0 L-8414.7,9873.7 L-8327.1,9816.1 L-8285.7,9788.9 L-8180.8,9721.2 L-8207.8,9685.7 L-8256.1,9621.0 L-8131.2,9541.6 L-8085.7,9518.1 L-8082.2,9515.6 L-8058.2,9497.1 L-7972.6,9451.3 L-7966.7,9442.1 L-7942.7,9425.6 L-7929.7,9406.6 L-7926.0,9403.8 L-7905.1,9395.7 L-7857.9,9378.8 L-7825.6,9364.6 L-7711.5,9311.0 L-7710.1,9314.7 L-7614.4,9273.8 L-7575.3,9323.9 L-7488.2,9265.8 L-7475.8,9257.3 L-7474.6,9256.3 L-7473.4,9254.7 L-7471.5,9251.4 L-7470.5,9248.3 L-7469.9,9244.6 L-7470.0,9241.6 L-7470.4,9238.7 L-7470.8,9235.4 L-7470.9,9232.9 L-7470.7,9230.8 L-7470.3,9228.6 L-7468.7,9224.6 L-7467.6,9222.4 L-7465.1,9218.6 L-7462.5,9215.8 L-7449.8,9210.7 L-7439.2,9206.7 L-7425.7,9202.3 L-7419.4,9200.6 L-7408.2,9196.9 L-7400.3,9194.1 L-7389.4,9189.6 L-7374.6,9183.1 L-7358.6,9175.6 L-7350.0,9171.4 L-7339.2,9165.9 L-7329.1,9160.3 L-7319.0,9154.3 L-7308.7,9147.6 L-7305.5,9145.4 L-7284.8,9129.6 L-7267.4,9116.2 L-7250.4,9101.8 L-7234.5,9086.8 L-7223.0,9073.9 L-7211.6,9060.0 L-7197.6,9042.0 L-7184.8,9024.0 L-7170.1,9000.9 L-7160.5,8983.0 L-7154.5,8971.6 L-7145.6,8952.3 L-7138.1,8934.4 L-7131.4,8915.1 L-7126.0,8898.2 L-7120.1,8870.8 L-7115.8,8846.3 L-7113.5,8825.3 L-7111.5,8800.5 L-7111.3,8774.0 L-7112.9,8749.5 L-7117.1,8717.5 L-7121.5,8695.7 L-7126.5,8675.1 L-7133.9,8651.7 L-7140.2,8633.8 L-7147.4,8614.3 L-7154.2,8598.1 L-7158.8,8587.6 L-7160.7,8579.9 L-7161.0,8574.0 L-7160.4,8568.7 L-7158.3,8564.1 L-7155.1,8560.2 L-7150.9,8558.0 L-7146.4,8557.4 L-7134.3,8560.3 L-7100.6,8568.4 L-7089.4,8313.7 L-7045.7,7859.1 L-7093.2,7847.9 L-7098.4,7833.6 L-7098.2,7813.1 L-7091.6,7766.6 L-7082.6,7756.1 L-7074.6,7725.9 L-7024.1,7737.6 L-6996.3,7447.1 L-6988.6,7366.7 L-7004.3,7362.8 L-6994.8,7324.4 L-7027.1,7316.7 L-7023.0,7293.2 L-7017.3,7277.7 L-7010.2,7259.6 L-6998.2,7234.3 L-6985.3,7237.2 L-6967.9,7054.5 L-6963.8,6943.7 L-6963.0,6923.3 L-6953.6,6852.8 L-6934.9,6677.1 L-6810.1,6351.7 L-6781.6,6263.0 L-6434.9,6130.0 L-6401.0,6116.4 L-6395.1,6113.2 L-6390.5,6109.0 L-6385.4,6103.1 L-6381.5,6096.2 L-6378.9,6089.4 L-6378.3,6079.5 L-6378.8,6067.2 L-6383.4,5911.7 L-6385.1,5881.6 L-6385.6,5860.9 L-6386.3,5820.7 L-6387.1,5808.1 L-6388.6,5797.5 L-6390.7,5788.1 L-6393.8,5778.5 L-6398.7,5767.2 L-6405.9,5755.1 L-6412.9,5745.5 L-6418.3,5736.4 L-6423.8,5724.3 L-6428.4,5712.7 L-6430.2,5703.2 L-6431.6,5692.7 L-6432.3,5682.2 L-6432.0,5672.0 L-6430.8,5660.1 L-6428.0,5648.4 L-6424.3,5638.0 L-6420.4,5628.5 L-6415.4,5619.3 L-6409.3,5608.1 L-6405.3,5598.0 L-6401.8,5585.1 L-6395.4,5575.3 L-6397.6,5486.1 L-6400.9,5480.9 L-6401.9,5420.3 L-6403.6,5348.8 L-6402.4,5338.9 L-6399.2,5328.8 L-6391.2,5313.0 L-6337.7,5197.9 L-6336.6,5196.0 L-6327.2,5175.5 L-6318.3,5156.1 L-6308.3,5136.1 L-6298.5,5115.5 L-6293.7,5105.5 L-6241.1,4997.6 L-6184.9,4878.4 L-6063.3,4631.6 L-6136.4,4549.7 L-6196.0,4676.7 L-6247.5,4786.6 L-6255.3,4802.2 L-6271.2,4834.7 L-6303.0,4832.0 L-6311.7,4831.5 L-6314.8,4834.3 L-6310.6,4838.1 L-6326.9,4852.6 L-6339.8,4864.5 L-6342.2,4915.4 L-6347.0,4925.6 L-6362.6,4925.0 L-6365.2,4924.1 L-6569.6,4839.7 L-6574.0,4837.4 L-6578.7,4834.4 L-6586.1,4828.8 L-6591.8,4823.4 L-6596.6,4818.2 L-6601.3,4811.8 L-6604.9,4806.2 L-6607.7,4800.4 L-6609.9,4794.3 L-6611.4,4790.1 L-6612.5,4785.0 L-6613.3,4779.0 L-6614.1,4770.8 L-6614.1,4759.1 L-6615.5,4719.4 L-6609.9,4719.1 L-6610.7,4698.1 L-6611.6,4663.5 L-6606.4,4663.4 L-6606.8,4639.8 L-6612.7,4639.9 L-6615.4,4540.5 L-6609.8,4540.2 L-6610.7,4516.9 L-6616.1,4517.1 L-6618.4,4443.6 L-6591.4,4414.5 L-6556.9,4413.3 L-6531.2,4412.4 L-6497.3,4411.3 L-6464.7,4410.3 L-6435.5,4409.3 L-6422.8,4408.7 L-6423.4,4397.4 L-6423.6,4385.6 L-6425.5,4347.3 L-6426.2,4274.2 L-6427.2,4272.9 L-6427.4,4265.7 L-6425.3,4265.6 L-6430.4,4089.5 L-6434.8,3923.8 L-6435.5,3918.6 L-6435.9,3909.0 L-6508.1,3911.6 L-6556.1,3907.5 L-6915.4,3920.0 L-6915.5,3916.8 L-6916.2,3901.5 L-7086.6,3907.5 L-7086.9,3879.2 L-7109.4,3874.1 L-7113.4,3753.0 L-6450.6,3730.0 L-6439.6,3714.9 L-6440.0,3671.9 L-6440.8,3634.7 L-6441.4,3611.4 L-6442.3,3588.7 L-6495.0,3563.9 L-6497.1,3508.8 L-6443.1,3482.0 L-6448.0,3354.5 L-6449.4,3348.2 L-6503.1,3323.1 L-6504.8,3254.9 L-6453.8,3228.6 L-6476.5,2951.7 L-6470.5,2828.5 L-6467.5,2627.6 L-6467.7,2409.1 L-6462.9,2378.5 L-6462.6,2363.7 L-6467.4,2345.9 L-6462.4,2345.9 L-6462.4,2329.8 L-6459.4,1918.8 L-6459.9,1900.5 L-6465.6,1900.5 L-6465.4,1824.9 L-6468.7,1820.2 L-6473.9,1742.2 L-6463.6,1670.9 L-6464.9,1584.6 L-6468.4,1563.9 L-6463.1,1500.0 L-6466.7,1422.7 L-6475.7,1340.0 L-6492.8,1206.0 L-6484.7,1169.1 L-6488.3,1133.2 L-6518.9,1107.1 L-6563.8,1107.5 L-6632.2,1116.5 L-6676.7,1116.5 L-6717.1,1101.7 L-6770.2,1065.3 L-6770.2,1000.0 L-6771.6,919.7 L-6766.4,852.8 L-6748.8,800.6 L-6454.1,795.1 L-6447.3,377.2 L-6447.3,-224.4 L-6450.4,-442.7 L9461.8,-7014.4 L9461.8,29203.8 L-10250.7,29203.8 L-10250.7,11218.3 Z" fill="#add7e1" stroke="none"><title>Biscayne Bay</title></path><path d="M-7315.5,1848.4 L-7352.7,689.0 L-7091.8,-1920.0 L-567.3,-1920.0 L886.7,-1050.3 L886.7,440.5 L-530.0,1558.6 L-3736.3,1848.4 Z" fill="#add7e1" stroke="none"><title>Biscayne Bay</title></path><path d="M85.2,8369.3 L1539.2,7520.6 L1054.5,6133.8 L793.5,2987.1 L793.5,523.3 L1073.2,-1961.4 L5640.3,-4280.7 L5677.6,-1008.9 L5062.4,1889.8 L4503.2,4995.2 L4130.3,7479.2 L3347.4,8369.3 L85.2,8369.3 Z" fill="#f1efe7" stroke="#8ab09d" stroke-width="0.65"><title>Miami Beach</title></path><path d="M-1.0,-1.0 L257.0,-1.0 L257.0,257.0 L-1.0,257.0 L-1.0,-1.0 Z" fill="#add7e1" stroke="none" fill-rule="evenodd"><title>Biscayne Bay</title></path></svg>