<svg xmlns="http://www.w3.org/2000/svg" width="256" height="256" viewBox="0 0 256 256"><rect width="256" height="256" fill="#f1efe7"/><path d="M-10250.7,12498.3 L-10035.9,12409.0 L-9968.7,12376.7 L-9668.2,12232.4 L-9611.8,12287.0 L-9606.9,12291.7 L-9501.5,12201.5 L-9476.4,12182.4 L-9434.5,12144.6 L-9198.4,11927.8 L-9007.9,11710.2 L-9000.6,11696.3 L-8993.6,11688.4 L-8982.5,11675.7 L-8971.2,11662.8 L-8966.6,11657.5 L-9041.7,11560.4 L-8942.3,11500.8 L-8888.4,11572.5 L-8812.2,11485.3 L-8876.7,11399.9 L-8796.8,11316.6 L-8735.3,11397.6 L-8664.7,11317.2 L-8634.6,11297.5 L-8487.4,11202.0 L-8414.7,11153.7 L-8327.1,11096.1 L-8285.7,11068.9 L-8180.8,11001.2 L-8207.8,10965.7 L-8256.1,10901.0 L-8131.2,10821.6 L-8085.7,10798.1 L-8082.2,10795.6 L-8058.2,10777.1 L-7972.6,10731.3 L-7966.7,10722.1 L-7942.7,10705.6 L-7929.7,10686.6 L-7926.0,10683.8 L-7905.1,10675.7 L-7857.9,10658.8 L-7825.6,10644.6 L-7711.5,10591.0 L-7710.1,10594.7 L-7614.4,10553.8 L-7575.3,10603.9 L-7488.2,10545.8 L-7475.8,10537.3 L-7474.6,10536.3 L-7473.4,10534.7 L-7471.5,10531.4 L-7470.5,10528.3 L-7469.9,10524.6 L-7470.0,10521.6 L-7470.4,10518.7 L-7470.8,10515.4 L-7470.9,10512.9 L-7470.7,10510.8 L-7470.3,10508.6 L-7468.7,10504.6 L-7467.6,10502.4 L-7465.1,10498.6 L-7462.5,10495.8 L-7449.8,10490.7 L-7439.2,10486.7 L-7425.7,10482.3 L-7419.4,10480.6 L-7408.2,10476.9 L-7400.3,10474.1 L-7389.4,10469.6 L-7374.6,10463.1 L-7358.6,10455.6 L-7350.0,10451.4 L-7339.2,10445.9 L-7329.1,10440.3 L-7319.0,10434.3 L-7308.7,10427.6 L-7305.5,10425.4 L-7284.8,10409.6 L-7267.4,10396.2 L-7250.4,10381.8 L-7234.5,10366.8 L-7223.0,10353.9 L-7211.6,10340.0 L-7197.6,10322.0 L-7184.8,10304.0 L-7170.1,10280.9 L-7160.5,10263.0 L-7154.5,10251.6 L-7145.6,10232.3 L-7138.1,10214.4 L-7131.4,10195.1 L-7126.0,10178.2 L-7120.1,10150.8 L-7115.8,10126.3 L-7113.5,10105.3 L-7111.5,10080.5 L-7111.3,10054.0 L-7112.9,10029.5 L-7117.1,9997.5 L-7121.5,9975.7 L-7126.5,9955.1 L-7133.9,9931.7 L-7140.2,9913.8 L-7147.4,9894.3 L-7154.2,9878.1 L-7158.8,9867.6 L-7160.7,9859.9 L-7161.0,9854.0 L-7160.4,9848.7 L-7158.3,9844.1 L-7155.1,9840.2 L-7150.9,9838.0 L-7146.4,9837.4 L-7134.3,9840.3 L-7100.6,9848.4 L-7089.4,9593.7 L-7045.7,9139.1 L-7093.2,9127.9 L-7098.4,9113.6 L-7098.2,9093.1 L-7091.6,9046.6 L-7082.6,9036.1 L-7074.6,9005.9 L-7024.1,9017.6 L-6996.3,8727.1 L-6988.6,8646.7 L-7004.3,8642.8 L-6994.8,8604.4 L-7027.1,8596.7 L-7023.0,8573.2 L-7017.3,8557.7 L-7010.2,8539.6 L-6998.2,8514.3 L-6985.3,8517.2 L-6967.9,8334.5 L-6963.8,8223.7 L-6963.0,8203.3 L-6953.6,8132.8 L-6934.9,7957.1 L-6810.1,7631.7 L-6781.6,7543.0 L-6434.9,7410.0 L-6401.0,7396.4 L-6395.1,7393.2 L-6390.5,7389.0 L-6385.4,7383.1 L-6381.5,7376.2 L-6378.9,7369.4 L-6378.3,7359.5 L-6378.8,7347.2 L-6383.4,7191.7 L-6385.1,7161.6 L-6385.6,7140.9 L-6386.3,7100.7 L-6387.1,7088.1 L-6388.6,7077.5 L-6390.7,7068.1 L-6393.8,7058.5 L-6398.7,7047.2 L-6405.9,7035.1 L-6412.9,7025.5 L-6418.3,7016.4 L-6423.8,7004.3 L-6428.4,6992.7 L-6430.2,6983.2 L-6431.6,6972.7 L-6432.3,6962.2 L-6432.0,6952.0 L-6430.8,6940.1 L-6428.0,6928.4 L-6424.3,6918.0 L-6420.4,6908.5 L-6415.4,6899.3 L-6409.3,6888.1 L-6405.3,6878.0 L-6401.8,6865.1 L-6395.4,6855.3 L-6397.6,6766.1 L-6400.9,6760.9 L-6401.9,6700.3 L-6403.6,6628.8 L-6402.4,6618.9 L-6399.2,6608.8 L-6391.2,6593.0 L-6337.7,6477.9 L-6336.6,6476.0 L-6327.2,6455.5 L-6318.3,6436.1 L-6308.3,6416.1 L-6298.5,6395.5 L-6293.7,6385.5 L-6241.1,6277.6 L-6184.9,6158.4 L-6063.3,5911.6 L-6136.4,5829.7 L-6196.0,5956.7 L-6247.5,6066.6 L-6255.3,6082.2 L-6271.2,6114.7 L-6303.0,6112.0 L-6311.7,6111.5 L-6314.8,6114.3 L-6310.6,6118.1 L-6326.9,6132.6 L-6339.8,6144.5 L-6342.2,6195.4 L-6347.0,6205.6 L-6362.6,6205.0 L-6365.2,6204.1 L-6569.6,6119.7 L-6574.0,6117.4 L-6578.7,6114.4 L-6586.1,6108.8 L-6591.8,6103.4 L-6596.6,6098.2 L-6601.3,6091.8 L-6604.9,6086.2 L-6607.7,6080.4 L-6609.9,6074.3 L-6611.4,6070.1 L-6612.5,6065.0 L-6613.3,6059.0 L-6614.1,6050.8 L-6614.1,6039.1 L-6615.5,5999.4 L-6609.9,5999.1 L-6610.7,5978.1 L-6611.6,5943.5 L-6606.4,5943.4 L-6606.8,5919.8 L-6612.7,5919.9 L-6615.4,5820.5 L-6609.8,5820.2 L-6610.7,5796.9 L-6616.1,5797.1 L-6618.4,5723.6 L-6591.4,5694.5 L-6556.9,5693.3 L-6531.2,5692.4 L-6497.3,5691.3 L-6464.7,5690.3 L-6435.5,5689.3 L-6422.8,5688.7 L-6423.4,5677.4 L-6423.6,5665.6 L-6425.5,5627.3 L-6426.2,5554.2 L-6427.2,5552.9 L-6427.4,5545.7 L-6425.3,5545.6 L-6430.4,5369.5 L-6434.8,5203.8 L-6435.5,5198.6 L-6435.9,5189.0 L-6508.1,5191.6 L-6556.1,5187.5 L-6915.4,5200.0 L-6915.5,5196.8 L-6916.2,5181.5 L-7086.6,5187.5 L-7086.9,5159.2 L-7109.4,5154.1 L-7113.4,5033.0 L-6450.6,5010.0 L-6439.6,4994.9 L-6440.0,4951.9 L-6440.8,4914.7 L-6441.4,4891.4 L-6442.3,4868.7 L-6495.0,4843.9 L-6497.1,4788.8 L-6443.1,4762.0 L-6448.0,4634.5 L-6449.4,4628.2 L-6503.1,4603.1 L-6504.8,4534.9 L-6453.8,4508.6 L-6476.5,4231.7 L-6470.5,4108.5 L-6467.5,3907.6 L-6467.7,3689.1 L-6462.9,3658.5 L-6462.6,3643.7 L-6467.4,3625.9 L-6462.4,3625.9 L-6462.4,3609.8 L-6459.4,3198.8 L-6459.9,3180.5 L-6465.6,3180.5 L-6465.4,3104.9 L-6468.7,3100.2 L-6473.9,3022.2 L-6463.6,2950.9 L-6464.9,2864.6 L-6468.4,2843.9 L-6463.1,2780.0 L-6466.7,2702.7 L-6475.7,2620.0 L-6492.8,2486.0 L-6484.7,2449.1 L-6488.3,2413.2 L-6518.9,2387.1 L-6563.8,2387.5 L-6632.2,2396.5 L-6676.7,2396.5 L-6717.1,2381.7 L-6770.2,2345.3 L-6770.2,2280.0 L-6771.6,2199.7 L-6766.4,2132.8 L-6748.8,2080.6 L-6454.1,2075.1 L-6447.3,1657.2 L-6447.3,1055.6 L-6450.4,837.3 L9461.8,-5734.4 L9461.8,30483.8 L-10250.7,30483.8 L-10250.7,12498.3 Z" fill="#add7e1" stroke="none"><title>Biscayne Bay</title></path><path d="M85.2,9649.3 L1539.2,8800.6 L1054.5,7413.8 L793.5,4267.1 L793.5,1803.3 L-1890.8,-681.4 L5640.3,-3000.7 L5677.6,271.1 L5062.4,3169.8 L4503.2,6275.2 L4130.3,8759.2 L3347.4,9649.3 L85.2,9649.3 Z" fill="#f1efe7" stroke="#8ab09d" stroke-width="0.65"><title>Miami Beach</title></path><path d="M-7315.5,3128.4 L-7352.7,1969.0 L-7091.8,-640.0 L-567.3,-640.0 L886.7,229.7 L886.7,1720.5 L-530.0,2838.6 L-3736.3,3128.4 Z" fill="#add7e1" stroke="none"><title>Biscayne Bay</title></path></svg>