<svg xmlns="http://www.w3.org/2000/svg" width="256" height="256" viewBox="0 0 256 256"><rect width="256" height="256" fill="#f1efe7"/><path d="M-7178.7,6866.3 L-6963.9,6777.0 L-6896.7,6744.7 L-6596.2,6600.4 L-6539.8,6655.0 L-6534.9,6659.7 L-6429.5,6569.5 L-6404.4,6550.4 L-6362.5,6512.6 L-6126.4,6295.8 L-5935.9,6078.2 L-5928.6,6064.3 L-5921.6,6056.4 L-5910.5,6043.7 L-5899.2,6030.8 L-5894.6,6025.5 L-5969.7,5928.4 L-5870.3,5868.8 L-5816.4,5940.5 L-5740.2,5853.3 L-5804.7,5767.9 L-5724.8,5684.6 L-5663.3,5765.6 L-5592.7,5685.2 L-5562.6,5665.5 L-5415.4,5570.0 L-5342.7,5521.7 L-5255.1,5464.1 L-5213.7,5436.9 L-5108.8,5369.2 L-5135.8,5333.7 L-5184.1,5269.0 L-5059.2,5189.6 L-5013.7,5166.1 L-5010.2,5163.6 L-4986.2,5145.1 L-4900.6,5099.3 L-4894.7,5090.1 L-4870.7,5073.6 L-4857.7,5054.6 L-4854.0,5051.8 L-4833.1,5043.7 L-4785.9,5026.8 L-4753.6,5012.6 L-4639.5,4959.0 L-4638.1,4962.7 L-4542.4,4921.8 L-4503.3,4971.9 L-4416.2,4913.8 L-4403.8,4905.3 L-4402.6,4904.3 L-4401.4,4902.7 L-4399.5,4899.4 L-4398.5,4896.3 L-4397.9,4892.6 L-4398.0,4889.6 L-4398.4,4886.7 L-4398.8,4883.4 L-4398.9,4880.9 L-4398.7,4878.8 L-4398.3,4876.6 L-4396.7,4872.6 L-4395.6,4870.4 L-4393.1,4866.6 L-4390.5,4863.8 L-4377.8,4858.7 L-4367.2,4854.7 L-4353.7,4850.3 L-4347.4,4848.6 L-4336.2,4844.9 L-4328.3,4842.1 L-4317.4,4837.6 L-4302.6,4831.1 L-4286.6,4823.6 L-4278.0,4819.4 L-4267.2,4813.9 L-4257.1,4808.3 L-4247.0,4802.3 L-4236.7,4795.6 L-4233.5,4793.4 L-4212.8,4777.6 L-4195.4,4764.2 L-4178.4,4749.8 L-4162.5,4734.8 L-4151.0,4721.9 L-4139.6,4708.0 L-4125.6,4690.0 L-4112.8,4672.0 L-4098.1,4648.9 L-4088.5,4631.0 L-4082.5,4619.6 L-4073.6,4600.3 L-4066.1,4582.4 L-4059.4,4563.1 L-4054.0,4546.2 L-4048.1,4518.8 L-4043.8,4494.3 L-4041.5,4473.3 L-4039.5,4448.5 L-4039.3,4422.0 L-4040.9,4397.5 L-4045.1,4365.5 L-4049.5,4343.7 L-4054.5,4323.1 L-4061.9,4299.7 L-4068.2,4281.8 L-4075.4,4262.3 L-4082.2,4246.1 L-4086.8,4235.6 L-4088.7,4227.9 L-4089.0,4222.0 L-4088.4,4216.7 L-4086.3,4212.1 L-4083.1,4208.2 L-4078.9,4206.0 L-4074.4,4205.4 L-4062.3,4208.3 L-4028.6,4216.4 L-4017.4,3961.7 L-3973.7,3507.1 L-4021.2,3495.9 L-4026.4,3481.6 L-4026.2,3461.1 L-4019.6,3414.6 L-4010.6,3404.1 L-4002.6,3373.9 L-3952.1,3385.6 L-3924.3,3095.1 L-3916.6,3014.7 L-3932.3,3010.8 L-3922.8,2972.4 L-3955.1,2964.7 L-3951.0,2941.2 L-3945.3,2925.7 L-3938.2,2907.6 L-3926.2,2882.3 L-3913.3,2885.2 L-3895.9,2702.5 L-3891.8,2591.7 L-3891.0,2571.3 L-3881.6,2500.8 L-3862.9,2325.1 L-3738.1,1999.7 L-3709.6,1911.0 L-3362.9,1778.0 L-3329.0,1764.4 L-3323.1,1761.2 L-3318.5,1757.0 L-3313.4,1751.1 L-3309.5,1744.2 L-3306.9,1737.4 L-3306.3,1727.5 L-3306.8,1715.2 L-3311.4,1559.7 L-3313.1,1529.6 L-3313.6,1508.9 L-3314.3,1468.7 L-3315.1,1456.1 L-3316.6,1445.5 L-3318.7,1436.1 L-3321.8,1426.5 L-3326.7,1415.2 L-3333.9,1403.1 L-3340.9,1393.5 L-3346.3,1384.4 L-3351.8,1372.3 L-3356.4,1360.7 L-3358.2,1351.2 L-3359.6,1340.7 L-3360.3,1330.2 L-3360.0,1320.0 L-3358.8,1308.1 L-3356.0,1296.4 L-3352.3,1286.0 L-3348.4,1276.5 L-3343.4,1267.3 L-3337.3,1256.1 L-3333.3,1246.0 L-3329.8,1233.1 L-3323.4,1223.3 L-3325.6,1134.1 L-3328.9,1128.9 L-3329.9,1068.3 L-3331.6,996.8 L-3330.4,986.9 L-3327.2,976.8 L-3319.2,961.0 L-3265.7,845.9 L-3264.6,844.0 L-3255.2,823.5 L-3246.3,804.1 L-3236.3,784.1 L-3226.5,763.5 L-3221.7,753.5 L-3169.1,645.6 L-3112.9,526.4 L-2991.3,279.6 L-3064.4,197.7 L-3124.0,324.7 L-3175.5,434.6 L-3183.3,450.2 L-3199.2,482.7 L-3231.0,480.0 L-3239.7,479.5 L-3242.8,482.3 L-3238.6,486.1 L-3254.9,500.6 L-3267.8,512.5 L-3270.2,563.4 L-3275.0,573.6 L-3290.6,573.0 L-3293.2,572.1 L-3497.6,487.7 L-3502.0,485.4 L-3506.7,482.4 L-3514.1,476.8 L-3519.8,471.4 L-3524.6,466.2 L-3529.3,459.8 L-3532.9,454.2 L-3535.7,448.4 L-3537.9,442.3 L-3539.4,438.1 L-3540.5,433.0 L-3541.3,427.0 L-3542.1,418.8 L-3542.1,407.1 L-3543.5,367.4 L-3537.9,367.1 L-3538.7,346.1 L-3539.6,311.5 L-3534.4,311.4 L-3534.8,287.8 L-3540.7,287.9 L-3543.4,188.5 L-3537.8,188.2 L-3538.7,164.9 L-3544.1,165.1 L-3546.4,91.6 L-3519.4,62.5 L-3484.9,61.3 L-3459.2,60.4 L-3425.3,59.3 L-3392.7,58.3 L-3363.5,57.3 L-3350.8,56.7 L-3351.4,45.4 L-3351.6,33.6 L-3353.5,-4.7 L-3354.2,-77.8 L-3355.2,-79.1 L-3355.4,-86.3 L-3353.3,-86.4 L-3358.4,-262.5 L-3362.8,-428.2 L-3363.5,-433.4 L-3363.9,-443.0 L-3436.1,-440.4 L-3484.1,-444.5 L-3843.4,-432.0 L-3843.5,-435.2 L-3844.2,-450.5 L-4014.6,-444.5 L-4014.9,-472.8 L-4037.4,-477.9 L-4041.4,-599.0 L-3378.6,-622.0 L-3367.6,-637.1 L-3368.0,-680.1 L-3368.8,-717.3 L-3369.4,-740.6 L-3370.3,-763.3 L-3423.0,-788.1 L-3425.1,-843.2 L-3371.1,-870.0 L-3376.0,-997.5 L-3377.4,-1003.8 L-3431.1,-1028.9 L-3432.8,-1097.1 L-3381.8,-1123.4 L-3404.5,-1400.3 L-3398.5,-1523.5 L-3395.5,-1724.4 L-3395.7,-1942.9 L-3390.9,-1973.5 L-3390.6,-1988.3 L-3395.4,-2006.1 L-3390.4,-2006.1 L-3390.4,-2022.2 L-3387.4,-2433.2 L-3387.9,-2451.5 L-3393.6,-2451.5 L-3393.4,-2527.1 L-3396.7,-2531.8 L-3401.9,-2609.8 L-3391.6,-2681.1 L-3392.9,-2767.4 L-3396.4,-2788.1 L-3391.1,-2852.0 L-3394.7,-2929.3 L-3403.7,-3012.0 L-3420.8,-3146.0 L-3412.7,-3182.9 L-3416.3,-3218.8 L-3446.9,-3244.9 L-3491.8,-3244.5 L-3560.2,-3235.5 L-3604.7,-3235.5 L-3645.1,-3250.3 L-3698.2,-3286.7 L-3698.2,-3352.0 L-3699.6,-3432.3 L-3694.4,-3499.2 L-3676.8,-3551.4 L-3382.1,-3556.9 L-3375.3,-3974.8 L-3375.3,-4576.4 L-3378.4,-4794.7 L12533.8,-11366.4 L12533.8,24851.8 L-7178.7,24851.8 L-7178.7,6866.3 Z" fill="#add7e1" stroke="none"><title>Biscayne Bay</title></path><path d="M1134.3,-81.3 L1009.7,-140.4 L986.4,-151.8 L745.2,-272.8 L604.3,-342.0 L461.1,-412.2 L373.0,-452.4 L110.8,-571.7 L67.6,-584.5 L12.5,-591.7 L-42.5,-579.7 L-96.7,-546.4 L-130.7,-509.9 L-157.5,-467.6 L-174.0,-384.1 L-165.0,-327.4 L-131.2,-262.4 L-70.0,-206.9 L136.5,-107.0 L419.0,27.0 L451.2,42.6 L810.7,216.9 L834.2,228.3 L953.5,286.1 L1402.5,500.4 L1649.7,617.2 L1801.4,682.6 L1842.7,679.9 L1876.4,669.4 L1912.0,654.6 L1943.3,637.1 L1974.3,608.7 L1995.6,571.3 L2009.7,540.7 L2017.8,508.9 L2021.4,468.0 L2019.2,439.5 L2011.0,408.1 L1999.9,382.1 L1991.4,361.6 L1973.2,336.1 L1948.5,311.7 L1920.8,293.0 L1584.7,133.3 L1491.9,91.6 L1427.7,57.0 L1134.3,-81.3 Z" fill="#ece7dc" stroke="#d7d1c5" stroke-width="0.3"><title>Palm Island</title></path><path d="M12.5,-591.7 L-42.5,-579.7 L-96.7,-546.4 L-130.7,-509.9 L-157.5,-467.6 L-174.0,-384.1 L-165.0,-327.4 L-131.2,-262.4 L-70.0,-206.9 L451.2,42.6 L810.7,216.9 L834.2,228.3 L953.5,286.1 L1402.5,500.4 L1801.4,682.6 L1842.7,679.9 L1876.4,669.4 L1912.0,654.6 L1943.3,637.1 L1974.3,608.7 L1995.6,571.3 L2009.7,540.7 L2017.8,508.9 L2021.4,468.0 L2019.2,439.5 L2011.0,408.1 L1991.4,361.6 L1973.2,336.1 L1948.5,311.7 L1920.8,293.0 L1584.7,133.3 L1491.9,91.6 L1427.7,57.0 L1008.6,-139.0 L986.4,-151.8 L604.3,-342.0 L461.1,-412.2 L373.0,-452.4 L110.8,-571.7 L67.6,-584.5 L12.5,-591.7 Z" fill="#ece7dc" stroke="#d7d1c5" stroke-width="0.3"></path><path d="M-2558.1,154.7 L-2605.4,131.0 L-2609.1,132.7 L-2664.0,261.8 L-2669.6,279.3 L-2679.7,298.7 L-2686.8,315.9 L-2721.4,395.2 L-2724.2,402.0 L-2725.3,406.9 L-2725.8,412.0 L-2725.4,416.7 L-2721.7,425.3 L-2717.1,432.8 L-2714.1,437.4 L-2710.0,443.1 L-2699.5,456.4 L-2666.0,500.3 L-2627.2,551.9 L-2613.8,566.4 L-2592.3,592.4 L-2572.1,619.0 L-2551.4,644.5 L-2540.1,662.0 L-2528.8,678.2 L-2526.8,680.6 L-2523.9,681.9 L-2521.1,681.3 L-2520.0,680.7 L-2521.9,699.1 L-2414.4,834.3 L-2404.6,827.7 L-2401.3,827.8 L-2396.3,828.2 L-2389.8,829.8 L-2382.9,833.0 L-2377.0,835.6 L-2373.5,837.3 L-2369.1,840.2 L-2365.4,843.8 L-2357.5,852.3 L-2345.8,865.1 L-2334.9,877.9 L-2326.0,889.8 L-2311.5,915.8 L-2302.1,933.9 L-2291.2,958.1 L-2279.7,980.8 L-2260.4,1019.4 L-2255.3,1025.8 L-2248.2,1033.1 L-2240.7,1040.1 L-2189.0,1080.0 L-2183.1,1085.3 L-2178.9,1089.6 L-2174.9,1096.0 L-2162.6,1130.4 L-2160.6,1137.3 L-1798.7,1310.3 L-1779.8,1319.3 L-1589.3,1410.3 L-1398.0,1501.8 L-1347.2,1481.9 L-1331.8,1533.7 L-753.8,1809.4 L-772.0,1848.8 L-710.8,1878.5 L-691.4,1838.8 L-126.0,2108.3 L288.3,2309.1 L273.8,2339.8 L335.3,2369.4 L349.6,2338.0 L612.5,2463.1 L574.8,2538.8 L1163.1,2825.7 L2034.4,2851.8 L2645.2,2869.9 L2790.8,2874.9 L3353.2,2890.7 L3399.2,2891.9 L3399.3,2889.3 L3732.2,2899.3 L3804.3,2901.5 L3874.5,2903.7 L3874.3,2906.9 L3957.7,2908.3 L3977.5,2909.8 L3977.8,2904.3 L4058.3,2827.7 L4065.5,2828.0 L4080.6,2844.8 L4086.7,2840.4 L4090.6,2841.7 L4095.8,2841.6 L4103.6,2839.7 L4112.3,2837.0 L4118.7,2833.2 L4124.7,2827.6 L4138.9,2796.1 L4142.9,2785.5 L4144.3,2775.9 L4144.6,2766.6 L4140.8,2747.6 L4138.9,2741.5 L4135.7,2735.5 L4130.3,2726.9 L4123.2,2717.4 L4117.2,2711.1 L4105.0,2700.8 L4090.9,2690.2 L4068.1,2674.1 L4043.8,2661.3 L4030.9,2654.5 L4013.9,2647.9 L3988.9,2637.6 L3876.6,2577.6 L3767.5,2510.3 L3726.0,2480.0 L3680.0,2450.8 L3541.1,2373.8 L3392.6,2304.5 L3385.5,2319.6 L3357.0,2305.9 L3329.6,2364.3 L3021.4,2223.1 L2934.7,2182.3 L2831.3,2135.4 L2536.4,1999.6 L2269.9,1877.1 L2163.0,1827.7 L2109.9,1804.3 L2055.4,1780.0 L1832.5,1673.0 L1467.0,1498.5 L1311.2,1423.6 L1267.2,1514.5 L781.7,1282.6 L537.2,1165.7 L299.4,1051.7 L-89.5,866.2 L-479.5,679.6 L-983.9,439.0 L-1398.7,241.3 L-1476.4,201.1 L-1706.0,94.2 L-1940.5,-18.2 L-2411.4,-243.4 L-2434.5,-180.1 L-2553.2,134.6 L-2550.8,138.7 L-2558.1,154.7 Z" fill="#f1efe7" stroke="#8ab09d" stroke-width="0.65"></path><path d="M-2116.9,-390.4 L4472.2,2577.3" fill="none" stroke="#6fb5c7" stroke-width="1.7" stroke-dasharray="5 7" opacity="0.34" stroke-linecap="round" stroke-linejoin="round"><title>Main Channel</title></path><path d="M-830.0,-114.1 L400.3,481.1" fill="none" stroke="#79bdd0" stroke-width="1.4" stroke-linecap="round" stroke-linejoin="round"></path><path d="M584.4,465.1 L-442.8,-22.9" fill="none" stroke="#79bdd0" stroke-width="1.4" stroke-linecap="round" stroke-linejoin="round"></path><path d="M-776.1,-114.7 L448.6,475.8" fill="none" stroke="#d8955f" stroke-width="9.0" stroke-linecap="round" stroke-linejoin="round"/><path d="M-776.1,-114.7 L448.6,475.8" fill="none" stroke="#f0a86f" stroke-width="7.5" stroke-linecap="round" stroke-linejoin="round"><title>MacArthur Causeway</title></path><path d="M-776.1,-114.7 L448.6,475.8" fill="none" stroke="#fff8ef" stroke-width="1.8" stroke-dasharray="5.5 6.5" opacity="0.82" stroke-linecap="round" stroke-linejoin="round"/><path d="M466.7,445.2 L-773.9,-149.2" fill="none" stroke="#d8955f" stroke-width="9.0" stroke-linecap="round" stroke-linejoin="round"/><path d="M466.7,445.2 L-773.9,-149.2" fill="none" stroke="#f0a86f" stroke-width="7.5" stroke-linecap="round" stroke-linejoin="round"><title>MacArthur Causeway</title></path><path d="M466.7,445.2 L-773.9,-149.2" fill="none" stroke="#fff8ef" stroke-width="1.8" stroke-dasharray="5.5 6.5" opacity="0.82" stroke-linecap="round" stroke-linejoin="round"/></svg>