<svg xmlns="http://www.w3.org/2000/svg" width="256" height="256" viewBox="0 0 256 256"><rect width="256" height="256" fill="#f1efe7"/><path d="M356.7,-94.3 L154.8,-83.0 L161.6,39.9 L363.5,28.6 L356.7,-94.3 Z" fill="#e8ecec" stroke="#d7d1c5" stroke-width="0.3"></path><path d="M60.6,131.1 L61.6,155.2 L53.2,155.5 L52.7,142.8 L47.0,143.0 L48.6,181.7 L30.7,182.4 L28.7,132.4 L60.6,131.1 Z" fill="#d6d2c9" stroke="#bab6ad" stroke-width="0.4"></path><path d="M474.8,57.4 L475.3,66.6 L483.8,66.1 L486.1,103.5 L483.1,103.6 L483.7,113.6 L341.5,122.0 L341.8,125.5 L209.3,133.4 L209.2,130.3 L183.5,131.9 L181.5,97.8 L206.7,96.3 L205.7,78.1 L286.8,73.2 L286.5,68.8 L467.1,57.9 L474.8,57.4 Z" fill="#d6d2c9" stroke="#bab6ad" stroke-width="0.4"></path><path d="M342.8,188.2 L167.3,199.2 L163.6,198.6 L161.2,196.4 L159.4,191.6 L160.3,142.9 L178.9,142.8 L231.0,139.2 L368.8,132.8 L369.5,149.6 L351.5,150.0 L351.3,163.8 L341.0,168.9 L342.8,188.2 Z" fill="#d6d2c9" stroke="#bab6ad" stroke-width="0.4"></path><path d="M21.9,176.5 L3.9,177.3 L1.9,131.6 L19.9,130.9 L21.9,176.5 Z" fill="#d6d2c9" stroke="#bab6ad" stroke-width="0.4"></path><path d="M22.2,-46.4 L22.5,-40.4 L25.3,-40.6 L27.5,-0.8 L23.8,-0.6 L24.1,5.2 L-14.8,7.4 L-15.1,1.0 L-21.4,1.3 L-23.5,-35.9 L-19.2,-36.1 L-19.7,-44.0 L22.2,-46.4 Z" fill="#d6d2c9" stroke="#bab6ad" stroke-width="0.4"><title>First Church of Christ, Scientist</title></path><path d="M109.4,132.2 L110.0,139.8 L112.6,139.7 L113.8,169.4 L110.9,169.3 L110.9,177.0 L87.8,176.8 L85.3,154.3 L72.5,155.1 L71.4,133.8 L109.4,132.2 Z" fill="#d6d2c9" stroke="#bab6ad" stroke-width="0.4"></path><path d="M314.9,350.6 L170.6,357.5 L162.7,237.1 L310.8,228.0 L314.9,350.6 Z" fill="#d6d2c9" stroke="#bab6ad" stroke-width="0.4"></path><path d="M-5.9,93.4 L-11.1,20.4 L109.6,11.7 L114.3,77.4 L111.4,84.3 L105.8,86.5 L-5.9,93.4 Z" fill="#d6d2c9" stroke="#bab6ad" stroke-width="0.4"><title>Aloft Coral Gables</title></path><path d="M5.0,213.2 L5.4,219.2 L15.1,218.5 L15.9,229.9 L24.8,229.3 L26.5,253.4 L13.6,254.3 L13.1,247.0 L3.6,247.7 L3.4,244.9 L-2.5,245.3 L-4.7,213.9 L5.0,213.2 Z" fill="#d6d2c9" stroke="#bab6ad" stroke-width="0.4"></path><path d="M75.1,210.8 L76.1,230.7 L101.1,229.5 L102.1,249.1 L87.7,249.7 L87.8,251.8 L72.6,252.5 L72.4,249.7 L60.1,250.3 L60.1,248.7 L37.6,249.8 L36.4,226.0 L47.6,225.5 L47.2,217.8 L56.5,217.4 L56.8,225.0 L58.9,224.9 L58.3,211.7 L75.1,210.8 Z" fill="#d6d2c9" stroke="#bab6ad" stroke-width="0.4"></path><path d="M31.0,11.4 L26.0,-66.3" fill="none" stroke="#cf828d" stroke-width="1.5" stroke-dasharray="1.6 3.0" opacity="0.62" stroke-linecap="round" stroke-linejoin="round"></path><path d="M110.9,-45.4 L110.3,-63.3" fill="none" stroke="#cf828d" stroke-width="1.5" stroke-dasharray="1.6 3.0" opacity="0.62" stroke-linecap="round" stroke-linejoin="round"></path><path d="M-87.9,99.8 L-40.7,97.1 L-15.0,95.6 L-1.7,94.9 L104.1,89.5 L108.9,88.7 L112.0,86.7 L114.0,84.0 L115.3,80.2 L115.7,75.8 L114.5,45.7 L110.9,-45.4" fill="none" stroke="#cf828d" stroke-width="1.5" stroke-dasharray="1.6 3.0" opacity="0.62" stroke-linecap="round" stroke-linejoin="round"></path><path d="M116.5,45.6 L123.2,45.1 L142.8,43.5 L151.4,42.9" fill="none" stroke="#cf828d" stroke-width="1.5" stroke-dasharray="1.6 3.0" opacity="0.62" stroke-linecap="round" stroke-linejoin="round"></path><path d="M116.5,45.6 L114.5,45.7" fill="none" stroke="#cf828d" stroke-width="1.5" stroke-dasharray="1.6 3.0" opacity="0.62" stroke-linecap="round" stroke-linejoin="round"></path><path d="M147.3,-62.9 L151.0,35.6 L151.9,38.6 L154.1,41.0 L157.4,43.0 L162.0,44.1 L169.4,43.7 L181.5,42.9 L346.1,32.7" fill="none" stroke="#cf828d" stroke-width="1.5" stroke-dasharray="1.6 3.0" opacity="0.62" stroke-linecap="round" stroke-linejoin="round"></path><path d="M151.4,42.9 L154.1,41.0 L153.7,44.4" fill="none" stroke="#cf828d" stroke-width="1.5" stroke-dasharray="1.6 3.0" opacity="0.62" stroke-linecap="round" stroke-linejoin="round"></path><path d="M491.4,212.6 L166.1,233.9 L163.4,234.6 L161.3,236.2 L160.0,237.9 L158.9,240.8 L161.5,324.9" fill="none" stroke="#cf828d" stroke-width="1.5" stroke-dasharray="1.6 3.0" opacity="0.62" stroke-linecap="round" stroke-linejoin="round"></path><path d="M153.7,44.4 L154.1,57.3 L154.5,68.3" fill="none" stroke="#cf828d" stroke-width="1.5" stroke-dasharray="1.6 3.0" opacity="0.62" stroke-linecap="round" stroke-linejoin="round"></path><path d="M159.2,203.5 L159.8,218.7 L160.4,233.2" fill="none" stroke="#cf828d" stroke-width="1.5" stroke-dasharray="1.6 3.0" opacity="0.62" stroke-linecap="round" stroke-linejoin="round"></path><path d="M160.4,233.2 L161.3,236.2" fill="none" stroke="#cf828d" stroke-width="1.5" stroke-dasharray="1.6 3.0" opacity="0.62" stroke-linecap="round" stroke-linejoin="round"></path><path d="M155.9,173.0 L156.5,193.8 L156.9,196.5 L157.8,198.8 L159.2,200.4 L160.1,201.0 L161.1,201.7 L164.1,202.9 L167.8,203.4 L491.6,183.4" fill="none" stroke="#cf828d" stroke-width="1.5" stroke-dasharray="1.6 3.0" opacity="0.62" stroke-linecap="round" stroke-linejoin="round"></path><path d="M467.1,55.9 L158.3,73.0 L155.3,74.3 L153.5,76.7 L154.6,140.1 L154.7,144.9 L155.9,173.0" fill="none" stroke="#cf828d" stroke-width="1.5" stroke-dasharray="1.6 3.0" opacity="0.62" stroke-linecap="round" stroke-linejoin="round"></path><path d="M159.2,203.5 L160.1,201.0" fill="none" stroke="#cf828d" stroke-width="1.5" stroke-dasharray="1.6 3.0" opacity="0.62" stroke-linecap="round" stroke-linejoin="round"></path><path d="M154.5,68.3 L155.3,74.3" fill="none" stroke="#cf828d" stroke-width="1.5" stroke-dasharray="1.6 3.0" opacity="0.62" stroke-linecap="round" stroke-linejoin="round"></path><path d="M13.3,269.6 L108.3,264.3 L113.2,263.9 L116.8,263.0 L119.0,262.1 L120.9,260.8 L122.3,258.2 L120.7,193.9 L120.4,186.3 L117.9,126.0 L117.5,123.8 L116.2,121.5 L114.3,119.7 L111.9,118.3 L108.7,118.0 L105.7,118.0 L-217.7,136.5" fill="none" stroke="#cf828d" stroke-width="1.5" stroke-dasharray="1.6 3.0" opacity="0.62" stroke-linecap="round" stroke-linejoin="round"></path><path d="M-209.8,282.6 L13.3,269.6" fill="none" stroke="#cf828d" stroke-width="1.5" stroke-dasharray="1.6 3.0" opacity="0.62" stroke-linecap="round" stroke-linejoin="round"></path><path d="M111.0,95.8 L111.5,106.1 L111.9,115.8" fill="none" stroke="#cf828d" stroke-width="1.5" stroke-dasharray="1.6 3.0" opacity="0.62" stroke-linecap="round" stroke-linejoin="round"></path><path d="M111.0,95.8 L108.9,88.7" fill="none" stroke="#cf828d" stroke-width="1.5" stroke-dasharray="1.6 3.0" opacity="0.62" stroke-linecap="round" stroke-linejoin="round"></path><path d="M111.9,115.8 L111.9,118.3" fill="none" stroke="#cf828d" stroke-width="1.5" stroke-dasharray="1.6 3.0" opacity="0.62" stroke-linecap="round" stroke-linejoin="round"></path><path d="M345.5,14.4 L180.3,25.7" fill="none" stroke="#cec8bb" stroke-width="3.5" stroke-linecap="round" stroke-linejoin="round"/><path d="M345.5,14.4 L180.3,25.7" fill="none" stroke="#ffffff" stroke-width="2.5" stroke-linecap="round" stroke-linejoin="round"></path><path d="M-240.9,31.1 L-19.7,14.9 L31.0,11.4" fill="none" stroke="#cec8bb" stroke-width="3.5" stroke-linecap="round" stroke-linejoin="round"/><path d="M-240.9,31.1 L-19.7,14.9 L31.0,11.4" fill="none" stroke="#ffffff" stroke-width="2.5" stroke-linecap="round" stroke-linejoin="round"></path><path d="M135.2,141.5 L154.6,140.1 L390.9,123.4" fill="none" stroke="#cec8bb" stroke-width="3.5" stroke-linecap="round" stroke-linejoin="round"/><path d="M135.2,141.5 L154.6,140.1 L390.9,123.4" fill="none" stroke="#ffffff" stroke-width="2.5" stroke-linecap="round" stroke-linejoin="round"></path><path d="M-234.8,208.0 L120.4,186.3 L137.3,184.1" fill="none" stroke="#cec8bb" stroke-width="3.5" stroke-linecap="round" stroke-linejoin="round"/><path d="M-234.8,208.0 L120.4,186.3 L137.3,184.1" fill="none" stroke="#ffffff" stroke-width="2.5" stroke-linecap="round" stroke-linejoin="round"></path><path d="M174.9,-54.9 L176.7,-28.0 L178.5,-1.9 L180.3,25.7 L181.5,42.9 L182.3,55.9" fill="none" stroke="#cec8bb" stroke-width="3.5" stroke-linecap="round" stroke-linejoin="round"/><path d="M174.9,-54.9 L176.7,-28.0 L178.5,-1.9 L180.3,25.7 L181.5,42.9 L182.3,55.9" fill="none" stroke="#ffffff" stroke-width="2.5" stroke-linecap="round" stroke-linejoin="round"></path><path d="M133.7,105.0 L111.5,106.1 L105.2,106.5 L-14.0,112.1 L-39.9,113.5 L-87.0,115.7" fill="none" stroke="#cec8bb" stroke-width="4.8" stroke-linecap="round" stroke-linejoin="round"/><path d="M133.7,105.0 L111.5,106.1 L105.2,106.5 L-14.0,112.1 L-39.9,113.5 L-87.0,115.7" fill="none" stroke="#ffffff" stroke-width="3.7" stroke-linecap="round" stroke-linejoin="round"><title>Valencia Avenue</title></path><path d="M498.7,197.6 L166.4,218.3 L159.8,218.7 L139.0,220.0" fill="none" stroke="#cec8bb" stroke-width="4.8" stroke-linecap="round" stroke-linejoin="round"/><path d="M498.7,197.6 L166.4,218.3 L159.8,218.7 L139.0,220.0" fill="none" stroke="#ffffff" stroke-width="3.7" stroke-linecap="round" stroke-linejoin="round"><title>Almeria Avenue</title></path><path d="M346.5,47.8 L182.3,55.9 L160.6,57.0 L154.1,57.3 L132.0,58.4" fill="none" stroke="#cec8bb" stroke-width="4.8" stroke-linecap="round" stroke-linejoin="round"/><path d="M346.5,47.8 L182.3,55.9 L160.6,57.0 L154.1,57.3 L132.0,58.4" fill="none" stroke="#ffffff" stroke-width="3.7" stroke-linecap="round" stroke-linejoin="round"><title>Valencia Avenue</title></path><path d="M132.0,58.4 L133.7,105.0" fill="none" stroke="#d1c4aa" stroke-width="7.3" stroke-linecap="round" stroke-linejoin="round"/><path d="M132.0,58.4 L133.7,105.0" fill="none" stroke="#efb36f" stroke-width="5.9" stroke-linecap="round" stroke-linejoin="round"><title>Southwest 42nd Avenue</title></path><path d="M118.5,-72.6 L120.0,-35.9 L123.0,39.0 L123.2,45.1 L132.0,58.4" fill="none" stroke="#d1c4aa" stroke-width="7.3" stroke-linecap="round" stroke-linejoin="round"/><path d="M118.5,-72.6 L120.0,-35.9 L123.0,39.0 L123.2,45.1 L132.0,58.4" fill="none" stroke="#efb36f" stroke-width="5.9" stroke-linecap="round" stroke-linejoin="round"><title>Southwest 42nd Avenue</title></path><path d="M132.0,58.4 L142.8,43.5 L138.8,-59.5" fill="none" stroke="#d1c4aa" stroke-width="7.3" stroke-linecap="round" stroke-linejoin="round"/><path d="M132.0,58.4 L142.8,43.5 L138.8,-59.5" fill="none" stroke="#efb36f" stroke-width="5.9" stroke-linecap="round" stroke-linejoin="round"><title>Southwest 42nd Avenue</title></path><path d="M137.3,184.1 L139.0,220.0" fill="none" stroke="#d1c4aa" stroke-width="7.3" stroke-linecap="round" stroke-linejoin="round"/><path d="M137.3,184.1 L139.0,220.0" fill="none" stroke="#efb36f" stroke-width="5.9" stroke-linecap="round" stroke-linejoin="round"><title>Southwest 42nd Avenue</title></path><path d="M136.0,156.9 L137.3,184.1" fill="none" stroke="#d1c4aa" stroke-width="7.3" stroke-linecap="round" stroke-linejoin="round"/><path d="M136.0,156.9 L137.3,184.1" fill="none" stroke="#efb36f" stroke-width="5.9" stroke-linecap="round" stroke-linejoin="round"><title>Southwest 42nd Avenue</title></path><path d="M133.7,105.0 L134.3,118.1 L135.2,141.5" fill="none" stroke="#d1c4aa" stroke-width="7.3" stroke-linecap="round" stroke-linejoin="round"/><path d="M133.7,105.0 L134.3,118.1 L135.2,141.5" fill="none" stroke="#efb36f" stroke-width="5.9" stroke-linecap="round" stroke-linejoin="round"><title>Southwest 42nd Avenue</title></path><path d="M139.0,220.0 L141.6,278.7" fill="none" stroke="#d1c4aa" stroke-width="7.3" stroke-linecap="round" stroke-linejoin="round"/><path d="M139.0,220.0 L141.6,278.7" fill="none" stroke="#efb36f" stroke-width="5.9" stroke-linecap="round" stroke-linejoin="round"><title>Southwest 42nd Avenue</title></path><path d="M135.2,141.5 L136.0,156.9" fill="none" stroke="#d1c4aa" stroke-width="7.3" stroke-linecap="round" stroke-linejoin="round"/><path d="M135.2,141.5 L136.0,156.9" fill="none" stroke="#efb36f" stroke-width="5.9" stroke-linecap="round" stroke-linejoin="round"><title>Southwest 42nd Avenue</title></path><text x="51.6" y="52.6" text-anchor="middle" font-family="Arial, sans-serif" font-size="7.4" font-weight="600" paint-order="stroke" stroke="#edf3fa" stroke-width="1.65" stroke-linejoin="round" fill="#4f73a0" textLength="85.2" lengthAdjust="spacing">Aloft Coral Gables</text><text x="60.6" y="108.6" transform="rotate(-2.7 60.6 108.6)" text-anchor="middle" dominant-baseline="central" font-family="Arial, sans-serif" font-size="8.3" textLength="79.7" lengthAdjust="spacing" font-weight="650" paint-order="stroke" stroke="#fffaf0" stroke-width="2.05" stroke-linejoin="round" fill="#695f54">Valencia Avenue</text><text x="203.2" y="216.0" transform="rotate(-3.6 203.2 216.0)" text-anchor="middle" dominant-baseline="central" font-family="Arial, sans-serif" font-size="8.3" textLength="74.4" lengthAdjust="spacing" font-weight="650" paint-order="stroke" stroke="#fffaf0" stroke-width="2.05" stroke-linejoin="round" fill="#695f54">Almeria Avenue</text><text x="15.0" y="154.1" text-anchor="middle" font-family="Arial, sans-serif" font-size="6.5" textLength="18.0" lengthAdjust="spacing" font-weight="500" paint-order="stroke" stroke="#f3f5ee" stroke-width="1.55" stroke-linejoin="round" fill="#6f777a">414</text><text x="98.5" y="154.7" text-anchor="middle" font-family="Arial, sans-serif" font-size="6.5" textLength="18.0" lengthAdjust="spacing" font-weight="500" paint-order="stroke" stroke="#f3f5ee" stroke-width="1.55" stroke-linejoin="round" fill="#6f777a">400</text><text x="15.0" y="234.7" text-anchor="middle" font-family="Arial, sans-serif" font-size="6.5" textLength="18.0" lengthAdjust="spacing" font-weight="500" paint-order="stroke" stroke="#f3f5ee" stroke-width="1.55" stroke-linejoin="round" fill="#6f777a">415</text><text x="66.4" y="234.5" text-anchor="middle" font-family="Arial, sans-serif" font-size="6.5" textLength="18.0" lengthAdjust="spacing" font-weight="500" paint-order="stroke" stroke="#f3f5ee" stroke-width="1.55" stroke-linejoin="round" fill="#6f777a">401</text><text x="179.9" y="169.4" text-anchor="middle" font-family="Arial, sans-serif" font-size="6.5" textLength="18.0" lengthAdjust="spacing" font-weight="500" paint-order="stroke" stroke="#f3f5ee" stroke-width="1.55" stroke-linejoin="round" fill="#6f777a">2695</text><text x="65.3" y="72.9" text-anchor="middle" font-family="Arial, sans-serif" font-size="6.5" textLength="18.0" lengthAdjust="spacing" font-weight="500" paint-order="stroke" stroke="#f3f5ee" stroke-width="1.55" stroke-linejoin="round" fill="#6f777a">2530</text><text x="39.6" y="146.3" text-anchor="middle" font-family="Arial, sans-serif" font-size="6.5" textLength="18.0" lengthAdjust="spacing" font-weight="500" paint-order="stroke" stroke="#f3f5ee" stroke-width="1.55" stroke-linejoin="round" fill="#6f777a">406</text><text x="204.9" y="110.6" text-anchor="middle" font-family="Arial, sans-serif" font-size="6.5" textLength="18.0" lengthAdjust="spacing" font-weight="500" paint-order="stroke" stroke="#f3f5ee" stroke-width="1.55" stroke-linejoin="round" fill="#6f777a">2655</text><text x="233.9" y="106.5" text-anchor="middle" font-family="Arial, sans-serif" font-size="6.5" textLength="18.0" lengthAdjust="spacing" font-weight="500" paint-order="stroke" stroke="#f3f5ee" stroke-width="1.55" stroke-linejoin="round" fill="#6f777a">2655</text><g><title>signal</title><rect x="131.6" y="112.9" width="5.4" height="10.4" rx="2.1" fill="#3f4b52" stroke="#ffffff" stroke-width="1.1"/><circle cx="134.3" cy="115.3" r="1.1" fill="#d85a4f"/><circle cx="134.3" cy="118.1" r="1.1" fill="#e2b84b"/><circle cx="134.3" cy="120.9" r="1.1" fill="#55a86b"/></g><g><title>signal</title><rect x="157.9" y="51.8" width="5.4" height="10.4" rx="2.1" fill="#3f4b52" stroke="#ffffff" stroke-width="1.1"/><circle cx="160.6" cy="54.2" r="1.1" fill="#d85a4f"/><circle cx="160.6" cy="57.0" r="1.1" fill="#e2b84b"/><circle cx="160.6" cy="59.8" r="1.1" fill="#55a86b"/></g><g><title>signal</title><rect x="120.3" y="33.8" width="5.4" height="10.4" rx="2.1" fill="#3f4b52" stroke="#ffffff" stroke-width="1.1"/><circle cx="123.0" cy="36.2" r="1.1" fill="#d85a4f"/><circle cx="123.0" cy="39.0" r="1.1" fill="#e2b84b"/><circle cx="123.0" cy="41.8" r="1.1" fill="#55a86b"/></g><g><title>Aloft Coral Gables</title><circle cx="51.6" cy="52.6" r="4.8" fill="#5f82b4" stroke="#ffffff" stroke-width="1.7"/><path d="M48.4,50.9 V54.9 M48.4,52.8 H54.8 V54.9 M49.9,52.1 H51.8" stroke="#ffffff" stroke-width="1.14" stroke-linecap="round" stroke-linejoin="round" fill="none"/></g><g><title>Ocean Bank</title><circle cx="204.9" cy="110.6" r="4.6" fill="#568e70" stroke="#ffffff" stroke-width="1.7"/><path d="M201.8,108.9 H208.1 L204.9,107.1 Z M202.2,113.2 H207.7" stroke="#ffffff" stroke-width="1.10" stroke-linejoin="round" stroke-linecap="round" fill="none"/><path d="M203.1,109.5 V112.4 M204.9,109.5 V112.4 M206.8,109.5 V112.4" stroke="#ffffff" stroke-width="1.10" stroke-linecap="round"/></g><g opacity="0.56"><title>crossing</title><path d="M140.5,41.7 L145.0,41.7 M140.5,43.5 L145.0,43.5 M140.5,45.3 L145.0,45.3" stroke="#ffffff" stroke-width="2.1" stroke-linecap="round"/><path d="M140.5,41.7 L145.0,41.7 M140.5,43.5 L145.0,43.5 M140.5,45.3 L145.0,45.3" stroke="#59656a" stroke-width="0.85" stroke-linecap="round"/></g><g opacity="0.56"><title>crossing</title><path d="M157.5,216.9 L162.1,216.9 M157.5,218.7 L162.1,218.7 M157.5,220.5 L162.1,220.5" stroke="#ffffff" stroke-width="2.1" stroke-linecap="round"/><path d="M157.5,216.9 L162.1,216.9 M157.5,218.7 L162.1,218.7 M157.5,220.5 L162.1,220.5" stroke="#59656a" stroke-width="0.85" stroke-linecap="round"/></g><g opacity="0.56"><title>crossing</title><path d="M109.2,104.3 L113.8,104.3 M109.2,106.1 L113.8,106.1 M109.2,107.9 L113.8,107.9" stroke="#ffffff" stroke-width="2.1" stroke-linecap="round"/><path d="M109.2,104.3 L113.8,104.3 M109.2,106.1 L113.8,106.1 M109.2,107.9 L113.8,107.9" stroke="#59656a" stroke-width="0.85" stroke-linecap="round"/></g></svg>