<svg xmlns="http://www.w3.org/2000/svg" width="256" height="256" viewBox="0 0 256 256"><defs><pattern id="park-dots" width="22" height="22" patternUnits="userSpaceOnUse"><circle cx="5" cy="5" r="2.1" fill="#63a95d" fill-opacity="0.26"/><circle cx="16" cy="7" r="1.55" fill="#76b970" fill-opacity="0.23"/><circle cx="10" cy="17" r="1.9" fill="#61a65b" fill-opacity="0.24"/><circle cx="21" cy="17" r="1.25" fill="#80c174" fill-opacity="0.18"/><circle cx="1" cy="19" r="1.2" fill="#70b46a" fill-opacity="0.17"/></pattern><pattern id="park-canopy" width="54" height="48" patternUnits="userSpaceOnUse"><circle cx="12" cy="11" r="3.6" fill="#5ea75a" fill-opacity="0.22"/><circle cx="31" cy="15" r="2.9" fill="#75ba6d" fill-opacity="0.18"/><circle cx="45" cy="31" r="3.3" fill="#67ae62" fill-opacity="0.20"/><circle cx="19" cy="39" r="2.5" fill="#83c378" fill-opacity="0.16"/></pattern></defs><rect width="256" height="256" fill="#f1efe7"/><path d="M-2379.7,-1307.0 L-2363.0,-717.8 L-2932.4,-700.8 L-3005.7,-275.6 L-3035.4,-166.9 L-3087.0,-49.5 L-3156.6,53.5 L-3243.7,141.1 L-3370.9,228.7 L-3429.4,255.1 L-2761.7,234.0 L-2753.2,998.8 L-2676.9,998.0 L-2659.3,1774.0 L-2650.1,1896.0 L-2644.0,2535.6 L-2630.4,2547.1 L-424.1,2570.7 L-361.6,914.7 L145.8,-749.3 L736.8,-1946.6 L785.5,-2238.8 L691.6,-2251.7 L642.5,-2239.6 L511.4,-2280.6 L460.3,-2479.3 L419.5,-2615.2 L238.0,-2791.0 L220.4,-2824.9 L170.9,-2869.6 L47.8,-2685.6 L-56.6,-2537.3 L-235.3,-1962.3 L-397.0,-1645.1 L-589.8,-1479.1 L-693.2,-1398.5 L-888.4,-1365.9 L-895.6,-1341.0 L-1333.2,-1333.0 L-1640.2,-1320.8 L-1626.1,-537.4 L-2000.2,-532.4 L-2013.3,-1319.1 L-2379.7,-1307.0 Z" fill="#c4e7bd" stroke="#9fcf91" stroke-width="0.4"><title>R Hardy Matheson County Preserve</title></path><path d="M-2379.7,-1307.0 L-2363.0,-717.8 L-2932.4,-700.8 L-3005.7,-275.6 L-3035.4,-166.9 L-3087.0,-49.5 L-3156.6,53.5 L-3243.7,141.1 L-3370.9,228.7 L-3429.4,255.1 L-2761.7,234.0 L-2753.2,998.8 L-2676.9,998.0 L-2659.3,1774.0 L-2650.1,1896.0 L-2644.0,2535.6 L-2630.4,2547.1 L-424.1,2570.7 L-361.6,914.7 L145.8,-749.3 L736.8,-1946.6 L785.5,-2238.8 L691.6,-2251.7 L642.5,-2239.6 L511.4,-2280.6 L460.3,-2479.3 L419.5,-2615.2 L238.0,-2791.0 L220.4,-2824.9 L170.9,-2869.6 L47.8,-2685.6 L-56.6,-2537.3 L-235.3,-1962.3 L-397.0,-1645.1 L-589.8,-1479.1 L-693.2,-1398.5 L-888.4,-1365.9 L-895.6,-1341.0 L-1333.2,-1333.0 L-1640.2,-1320.8 L-1626.1,-537.4 L-2000.2,-532.4 L-2013.3,-1319.1 L-2379.7,-1307.0 Z" fill="url(#park-dots)" stroke="none"/><path d="M-2379.7,-1307.0 L-2363.0,-717.8 L-2932.4,-700.8 L-3005.7,-275.6 L-3035.4,-166.9 L-3087.0,-49.5 L-3156.6,53.5 L-3243.7,141.1 L-3370.9,228.7 L-3429.4,255.1 L-2761.7,234.0 L-2753.2,998.8 L-2676.9,998.0 L-2659.3,1774.0 L-2650.1,1896.0 L-2644.0,2535.6 L-2630.4,2547.1 L-424.1,2570.7 L-361.6,914.7 L145.8,-749.3 L736.8,-1946.6 L785.5,-2238.8 L691.6,-2251.7 L642.5,-2239.6 L511.4,-2280.6 L460.3,-2479.3 L419.5,-2615.2 L238.0,-2791.0 L220.4,-2824.9 L170.9,-2869.6 L47.8,-2685.6 L-56.6,-2537.3 L-235.3,-1962.3 L-397.0,-1645.1 L-589.8,-1479.1 L-693.2,-1398.5 L-888.4,-1365.9 L-895.6,-1341.0 L-1333.2,-1333.0 L-1640.2,-1320.8 L-1626.1,-537.4 L-2000.2,-532.4 L-2013.3,-1319.1 L-2379.7,-1307.0 Z" fill="url(#park-canopy)" stroke="none"/></svg>