<svg xmlns="http://www.w3.org/2000/svg" width="256" height="256" viewBox="0 0 256 256"><defs><pattern id="park-dots" width="22" height="22" patternUnits="userSpaceOnUse"><circle cx="5" cy="5" r="2.1" fill="#63a95d" fill-opacity="0.26"/><circle cx="16" cy="7" r="1.55" fill="#76b970" fill-opacity="0.23"/><circle cx="10" cy="17" r="1.9" fill="#61a65b" fill-opacity="0.24"/><circle cx="21" cy="17" r="1.25" fill="#80c174" fill-opacity="0.18"/><circle cx="1" cy="19" r="1.2" fill="#70b46a" fill-opacity="0.17"/></pattern><pattern id="park-canopy" width="54" height="48" patternUnits="userSpaceOnUse"><circle cx="12" cy="11" r="3.6" fill="#5ea75a" fill-opacity="0.22"/><circle cx="31" cy="15" r="2.9" fill="#75ba6d" fill-opacity="0.18"/><circle cx="45" cy="31" r="3.3" fill="#67ae62" fill-opacity="0.20"/><circle cx="19" cy="39" r="2.5" fill="#83c378" fill-opacity="0.16"/></pattern></defs><rect width="256" height="256" fill="#f1efe7"/><path d="M-2565.4,105.1 L-2458.0,60.5 L-2424.4,44.4 L-2274.1,-27.8 L-2245.9,-0.5 L-2243.4,1.8 L-2190.8,-43.2 L-2178.2,-52.8 L-2157.3,-71.7 L-2039.2,-180.1 L-1943.9,-288.9 L-1940.3,-295.8 L-1936.8,-299.8 L-1931.2,-306.1 L-1925.6,-312.6 L-1923.3,-315.3 L-1960.9,-363.8 L-1911.2,-393.6 L-1884.2,-357.7 L-1846.1,-401.3 L-1878.4,-444.1 L-1838.4,-485.7 L-1807.7,-445.2 L-1772.3,-485.4 L-1757.3,-495.2 L-1683.7,-543.0 L-1647.3,-567.1 L-1603.5,-596.0 L-1582.8,-609.5 L-1530.4,-643.4 L-1543.9,-661.2 L-1568.1,-693.5 L-1505.6,-733.2 L-1482.8,-745.0 L-1481.1,-746.2 L-1469.1,-755.5 L-1426.3,-778.3 L-1423.3,-783.0 L-1411.3,-791.2 L-1404.8,-800.7 L-1403.0,-802.1 L-1392.6,-806.1 L-1368.9,-814.6 L-1352.8,-821.7 L-1295.7,-848.5 L-1295.0,-846.6 L-1247.2,-867.1 L-1227.7,-842.0 L-1184.1,-871.1 L-1177.9,-875.3 L-1177.3,-875.8 L-1176.7,-876.6 L-1175.8,-878.3 L-1175.2,-879.8 L-1175.0,-881.7 L-1175.0,-883.2 L-1175.2,-884.6 L-1175.4,-886.3 L-1175.5,-887.5 L-1175.4,-888.6 L-1175.1,-889.7 L-1174.3,-891.7 L-1173.8,-892.8 L-1172.6,-894.7 L-1171.2,-896.1 L-1164.9,-898.7 L-1159.6,-900.6 L-1152.8,-902.8 L-1149.7,-903.7 L-1144.1,-905.5 L-1140.1,-907.0 L-1134.7,-909.2 L-1127.3,-912.4 L-1119.3,-916.2 L-1115.0,-918.3 L-1109.6,-921.0 L-1104.6,-923.9 L-1099.5,-926.9 L-1094.4,-930.2 L-1092.8,-931.3 L-1082.4,-939.2 L-1073.7,-945.9 L-1065.2,-953.1 L-1057.2,-960.6 L-1051.5,-967.1 L-1045.8,-974.0 L-1038.8,-983.0 L-1032.4,-992.0 L-1025.1,-1003.6 L-1020.3,-1012.5 L-1017.3,-1018.2 L-1012.8,-1027.9 L-1009.1,-1036.8 L-1005.7,-1046.4 L-1003.0,-1054.9 L-1000.1,-1068.6 L-997.9,-1080.8 L-996.7,-1091.4 L-995.8,-1103.7 L-995.6,-1117.0 L-996.5,-1129.3 L-998.6,-1145.2 L-1000.7,-1156.1 L-1003.3,-1166.5 L-1006.9,-1178.1 L-1010.1,-1187.1 L-1013.7,-1196.9 L-1017.1,-1204.9 L-1019.4,-1210.2 L-1020.4,-1214.0 L-1020.5,-1217.0 L-1020.2,-1219.6 L-1019.1,-1221.9 L-1017.5,-1223.9 L-1015.4,-1225.0 L-1013.2,-1225.3 L-1007.1,-1223.8 L-990.3,-1219.8 L-984.7,-1347.1 L-962.8,-1574.4 L-986.6,-1580.1 L-989.2,-1587.2 L-989.1,-1597.4 L-985.8,-1620.7 L-981.3,-1625.9 L-977.3,-1641.1 L-952.1,-1635.2 L-938.1,-1780.4 L-934.3,-1820.7 L-942.1,-1822.6 L-937.4,-1841.8 L-953.6,-1845.6 L-951.5,-1857.4 L-948.7,-1865.1 L-945.1,-1874.2 L-939.1,-1886.8 L-932.7,-1885.4 L-923.9,-1976.7 L-921.9,-2032.1 L-921.5,-2042.3 L-916.8,-2077.6 L-907.4,-2165.5 L-845.0,-2328.2 L-830.8,-2372.5 L-657.5,-2439.0 L-640.5,-2445.8 L-637.6,-2447.4 L-635.2,-2449.5 L-632.7,-2452.4 L-630.8,-2455.9 L-629.5,-2459.3 L-629.1,-2464.2 L-629.4,-2470.4 L-631.7,-2548.1 L-632.6,-2563.2 L-632.8,-2573.6 L-633.1,-2593.6 L-633.5,-2599.9 L-634.3,-2605.2 L-635.4,-2610.0 L-636.9,-2614.7 L-639.3,-2620.4 L-642.9,-2626.5 L-646.5,-2631.3 L-649.2,-2635.8 L-651.9,-2641.8 L-654.2,-2647.7 L-655.1,-2652.4 L-655.8,-2657.6 L-656.1,-2662.9 L-656.0,-2668.0 L-655.4,-2673.9 L-654.0,-2679.8 L-652.1,-2685.0 L-650.2,-2689.8 L-647.7,-2694.4 L-644.7,-2699.9 L-642.6,-2705.0 L-640.9,-2711.5 L-637.7,-2716.3 L-638.8,-2761.0 L-640.4,-2763.5 L-641.0,-2793.8 L-641.8,-2829.6 L-641.2,-2834.5 L-639.6,-2839.6 L-635.6,-2847.5 L-608.9,-2905.0 L-608.3,-2906.0 L-603.6,-2916.2 L-599.1,-2926.0 L-594.2,-2936.0 L-589.2,-2946.2 L-586.8,-2951.3 L-560.6,-3005.2 L-532.5,-3064.8 L-471.6,-3188.2 L-508.2,-3229.1 L-538.0,-3165.7 L-563.8,-3110.7 L-567.7,-3102.9 L-575.6,-3086.7 L-591.5,-3088.0 L-595.9,-3088.3 L-597.4,-3086.8 L-595.3,-3084.9 L-603.5,-3077.7 L-609.9,-3071.7 L-611.1,-3046.3 L-613.5,-3041.2 L-621.3,-3041.5 L-622.6,-3042.0 L-724.8,-3084.1 L-727.0,-3085.3 L-729.4,-3086.8 L-733.0,-3089.6 L-735.9,-3092.3 L-738.3,-3094.9 L-740.6,-3098.1 L-742.4,-3100.9 L-743.8,-3103.8 L-745.0,-3106.9 L-745.7,-3108.9 L-746.2,-3111.5 L-746.7,-3114.5 L-747.1,-3118.6 L-747.1,-3124.4 L-747.8,-3144.3 L-745.0,-3144.5 L-745.4,-3154.9 L-745.8,-3172.2 L-743.2,-3172.3 L-743.4,-3184.1 L-746.3,-3184.0 L-747.7,-3233.8 L-744.9,-3233.9 L-745.4,-3245.5 L-748.1,-3245.4 L-749.2,-3282.2 L-735.7,-3296.7 L-718.5,-3297.3 L-705.6,-3297.8 L-688.7,-3298.3 L-672.4,-3298.9 L-657.7,-3299.4 L-651.4,-3299.6 L-651.7,-3305.3 L-651.8,-3311.2 L-652.8,-3330.3 L-653.1,-3366.9 L-653.6,-3367.5 L-653.7,-3371.2 L-652.6,-3371.2 L-655.2,-3459.3 L-657.4,-3542.1 L-657.8,-3544.7 L-658.0,-3549.5 L-694.1,-3548.2 L-718.1,-3550.3 L-897.7,-3544.0 L-897.7,-3545.6 L-898.1,-3553.3 L-983.3,-3550.3 L-983.5,-3564.4 L-994.7,-3566.9 L-996.7,-3627.5 L-665.3,-3639.0 L-659.8,-3646.6 L-660.0,-3668.1 L-660.4,-3686.6 L-660.7,-3698.3 L-661.2,-3709.6 L-687.5,-3722.1 L-688.6,-3749.6 L-661.5,-3763.0 L-664.0,-3826.7 L-664.7,-3829.9 L-691.5,-3842.4 L-692.4,-3876.5 L-666.9,-3889.7 L-678.3,-4028.1 L-675.2,-4089.8 L-673.8,-4190.2 L-673.9,-4299.4 L-671.5,-4314.8 L-671.3,-4322.1 L-673.7,-4331.1 L-671.2,-4331.1 L-671.2,-4339.1 L-669.7,-4544.6 L-669.9,-4553.8 L-672.8,-4553.7 L-672.7,-4591.5 L-674.4,-4593.9 L-676.9,-4632.9 L-671.8,-4668.5 L-672.5,-4711.7 L-674.2,-4722.0 L-671.6,-4754.0 L-673.4,-4792.6 L-677.9,-4834.0 L-686.4,-4901.0 L-682.4,-4919.4 L-684.1,-4937.4 L-699.4,-4950.5 L-721.9,-4950.2 L-756.1,-4945.7 L-778.3,-4945.7 L-798.6,-4953.2 L-825.1,-4971.4 L-825.1,-5004.0 L-825.8,-5044.2 L-823.2,-5077.6 L-814.4,-5103.7 L-667.0,-5106.4 L-663.7,-5315.4 L-663.7,-5616.2 L-665.2,-5725.4 L7290.9,-9011.2 L7290.9,9097.9 L-2565.4,9097.9 L-2565.4,105.1 Z" fill="#add7e1" stroke="none"><title>Biscayne Bay</title></path><path d="M-6261.4,4747.7 L-6533.5,4546.9 L-6555.3,4530.9 L-6578.9,4525.8 L-6595.5,4511.7 L-6608.8,4510.2 L-6651.8,4513.1 L-6651.8,4509.0 L-6654.2,4505.2 L-6658.9,4502.3 L-6752.3,4461.8 L-6758.7,4458.9 L-6764.2,4457.3 L-6771.1,4456.7 L-6778.1,4456.6 L-6801.3,4456.6 L-6807.5,4456.2 L-6813.5,4455.1 L-6819.9,4452.6 L-6827.6,4450.5 L-6833.2,4450.0 L-6849.7,4449.3 L-6855.1,4448.3 L-6862.1,4446.1 L-6869.0,4444.3 L-6875.7,4442.7 L-6880.9,4440.7 L-6887.1,4436.8 L-6892.8,4432.6 L-6898.2,4428.5 L-6902.6,4426.3 L-6906.1,4425.7 L-6909.1,4425.8 L-6912.3,4426.8 L-6916.1,4428.7 L-6919.1,4432.0 L-6923.2,4436.0 L-6927.7,4440.1 L-6932.8,4442.9 L-6939.2,4445.0 L-6944.6,4446.3 L-6951.1,4447.3 L-6961.8,4448.6 L-6988.9,4449.8 L-7011.9,4451.0 L-7021.9,4454.5 L-7042.2,4455.2 L-7044.9,4451.0 L-7047.9,4449.1 L-7051.1,4448.4 L-7073.0,4449.7 L-7082.5,4453.1 L-7094.2,4453.2 L-7102.0,4452.1 L-7108.5,4450.1 L-7132.0,4451.5 L-7194.3,4456.3 L-7208.7,4456.8 L-7213.6,4456.7 L-7217.9,4455.5 L-7223.1,4453.0 L-7226.8,4450.0 L-7243.0,4450.1 L-7256.6,4449.9 L-7260.2,4452.1 L-7278.9,4452.5 L-7281.3,4456.5 L-7283.9,4456.6 L-7288.5,4455.5 L-7296.8,4454.5 L-7305.2,4454.9 L-7307.9,4455.8 L-7310.5,4455.3 L-7312.3,4453.5 L-7315.4,4451.8 L-7326.7,4451.8 L-7338.2,4452.5 L-7349.0,4458.8 L-7354.4,4461.4 L-7360.4,4462.7 L-7365.5,4463.1 L-7370.1,4462.4 L-7380.5,4457.9 L-7386.5,4456.0 L-7391.7,4455.3 L-7414.0,4455.6 L-7415.4,4452.9 L-7435.1,4453.3 L-7448.7,4455.8 L-7457.7,4456.8 L-7462.5,4457.9 L-7464.3,4456.6 L-7467.8,4456.2 L-7499.6,4453.3 L-7502.3,4454.8 L-7505.7,4455.5 L-7510.1,4455.5 L-7510.1,4453.9 L-7529.9,4450.3 L-7542.3,4447.9 L-7572.4,4437.7 L-7574.1,4440.0 L-7594.2,4433.8 L-7598.4,4432.4 L-7596.3,4425.4 L-7598.7,4424.6 L-7599.2,4423.9 L-7600.5,4423.5 L-7602.3,4423.2 L-7604.5,4422.2 L-7603.7,4421.5 L-7612.6,4414.2 L-7627.4,4400.8 L-7635.4,4393.9 L-7641.1,4387.7 L-7644.2,4383.6 L-7648.9,4377.1 L-7651.6,4372.2 L-7660.0,4361.6 L-7660.8,4361.1 L-7661.4,4361.0 L-7661.9,4361.1 L-7663.1,4361.1 L-7664.1,4360.7 L-7666.1,4359.3 L-7670.4,4357.0 L-7672.6,4355.3 L-7675.0,4353.1 L-7678.3,4351.3 L-7683.6,4349.6 L-7689.2,4348.7 L-7693.9,4348.5 L-7692.6,4336.0 L-7691.4,4319.5 L-7686.3,4320.0 L-7681.1,4320.9 L-7674.4,4322.9 L-7669.4,4324.7 L-7665.0,4326.8 L-7660.7,4328.8 L-7656.7,4331.1 L-7653.3,4333.6 L-7649.0,4337.1 L-7644.4,4340.5 L-7643.3,4341.1 L-7642.4,4341.4 L-7629.7,4340.8 L-7629.6,4343.6 L-7630.4,4344.9 L-7639.8,4345.8 L-7637.4,4350.7 L-7635.8,4350.1 L-7634.2,4351.6 L-7633.3,4353.1 L-7632.5,4354.1 L-7630.5,4356.7 L-7629.8,4359.6 L-7626.7,4363.8 L-7619.5,4368.4 L-7610.6,4372.9 L-7599.9,4379.6 L-7595.0,4381.9 L-7584.7,4387.8 L-7579.9,4390.3 L-7571.0,4393.6 L-7553.6,4398.3 L-7543.4,4400.7 L-7534.1,4401.7 L-7529.2,4402.3 L-7528.1,4402.2 L-7527.6,4401.6 L-7527.4,4398.3 L-7515.9,4398.2 L-7515.7,4402.0 L-7491.5,4403.2 L-7467.8,4403.9 L-7451.8,4403.3 L-7446.5,4402.9 L-7442.7,4402.4 L-7439.5,4401.5 L-7436.6,4399.8 L-7435.2,4397.4 L-7435.7,4358.7 L-7426.0,4358.1 L-7425.1,4395.9 L-7424.6,4396.9 L-7422.6,4398.2 L-7420.4,4398.9 L-7368.7,4398.9 L-7368.9,4382.3 L-7364.8,4382.2 L-7363.2,4398.9 L-7331.3,4398.7 L-7331.2,4396.9 L-7328.1,4396.8 L-7328.0,4398.1 L-7115.3,4394.1 L-7099.8,4392.2 L-7081.0,4391.7 L-7063.2,4394.0 L-7057.3,4393.5 L-7052.9,4392.7 L-7048.9,4391.2 L-7043.6,4389.3 L-6936.7,4387.3 L-6936.7,4380.0 L-6876.9,4378.9 L-6876.8,4387.1 L-6851.4,4387.9 L-6849.5,4387.9 L-6847.7,4387.8 L-6845.3,4387.4 L-6843.4,4386.9 L-6841.6,4386.4 L-6838.5,4384.9 L-6837.0,4387.4 L-6833.9,4385.4 L-6831.1,4383.1 L-6828.6,4380.6 L-6826.5,4377.6 L-6824.6,4374.0 L-6828.2,4372.0 L-6827.2,4368.9 L-6826.6,4365.7 L-6826.3,4362.7 L-6826.2,4360.4 L-6826.3,4358.2 L-6826.6,4339.2 L-6829.7,4336.5 L-6827.1,4333.7 L-6829.7,4331.4 L-6826.7,4327.8 L-6830.0,4325.0 L-6827.4,4322.3 L-6830.0,4319.7 L-6827.0,4316.5 L-6830.1,4313.3 L-6823.5,4306.1 L-6822.4,4306.1 L-6825.3,4198.8 L-6801.2,4198.2 L-6800.1,4198.8 L-6798.7,4199.8 L-6797.8,4200.7 L-6797.4,4201.7 L-6797.0,4202.9 L-6797.0,4204.1 L-6794.9,4370.7 L-6794.0,4376.2 L-6792.6,4379.8 L-6790.5,4384.3 L-6788.1,4388.7 L-6785.5,4392.2 L-6783.5,4394.3 L-6781.2,4396.1 L-6778.7,4397.6 L-6776.1,4398.6 L-6772.5,4399.6 L-6768.0,4400.5 L-6762.6,4401.5 L-6756.3,4402.6 L-6750.3,4403.9 L-6743.6,4405.1 L-6737.3,4406.5 L-6735.3,4406.9 L-6732.9,4407.3 L-6730.5,4407.6 L-6728.4,4407.7 L-6726.0,4407.7 L-6724.1,4407.6 L-6722.3,4407.3 L-6720.7,4406.9 L-6719.0,4406.3 L-6717.5,4405.7 L-6714.7,4404.3 L-6712.1,4402.8 L-6709.6,4400.9 L-6706.6,4398.1 L-6703.8,4395.0 L-6702.3,4392.4 L-6701.0,4389.1 L-6700.3,4386.4 L-6699.9,4383.6 L-6699.6,4380.9 L-6699.6,4378.4 L-6703.3,4199.8 L-6698.1,4194.4 L-6696.2,4194.2 L-6695.5,4193.5 L-6684.6,4193.3 L-6683.6,4191.6 L-6682.0,4192.1 L-6679.3,4194.7 L-6677.4,4197.3 L-6675.5,4200.6 L-6671.9,4400.2 L-6671.5,4403.7 L-6670.9,4410.7 L-6670.2,4412.0 L-6670.7,4412.4 L-6669.8,4414.3 L-6668.6,4416.6 L-6667.7,4418.1 L-6666.4,4419.9 L-6664.8,4421.8 L-6662.9,4423.7 L-6660.5,4425.7 L-6658.4,4427.3 L-6656.1,4428.6 L-6653.9,4429.6 L-6651.5,4430.4 L-6651.2,4429.7 L-6618.1,4441.7 L-6614.0,4443.2 L-6612.1,4443.9 L-6609.1,4445.0 L-6607.0,4445.5 L-6605.2,4445.8 L-6603.4,4445.8 L-6601.1,4445.6 L-6598.4,4445.3 L-6596.2,4444.8 L-6593.8,4444.1 L-6592.0,4443.4 L-6590.2,4442.6 L-6588.7,4441.6 L-6586.8,4440.3 L-6584.4,4438.2 L-6582.2,4436.0 L-6579.8,4433.0 L-6578.1,4430.2 L-6576.7,4427.1 L-6575.7,4423.7 L-6575.1,4420.1 L-6574.8,4413.9 L-6574.9,4401.1 L-6578.6,4198.1 L-6578.6,4195.9 L-6578.1,4194.3 L-6577.4,4193.0 L-6576.0,4191.7 L-6574.4,4190.9 L-6572.5,4190.6 L-6557.4,4190.1 L-6555.7,4190.4 L-6554.0,4191.1 L-6552.9,4192.2 L-6551.6,4194.1 L-6550.8,4196.8 L-6550.4,4200.5 L-6546.6,4460.9 L-6546.4,4462.4 L-6546.1,4464.0 L-6545.7,4465.6 L-6545.2,4467.4 L-6544.6,4469.1 L-6543.9,4470.7 L-6543.2,4472.0 L-6542.6,4473.3 L-6541.6,4474.7 L-6540.6,4476.1 L-6539.6,4477.3 L-6538.2,4478.8 L-6536.8,4480.1 L-6535.3,4481.4 L-6533.6,4482.6 L-6529.0,4485.5 L-6528.5,4485.0 L-6524.5,4487.2 L-6519.7,4489.9 L-6516.9,4491.4 L-6513.9,4493.2 L-6510.7,4495.0 L-6507.5,4497.0 L-6503.9,4499.3 L-6500.2,4501.5 L-6496.6,4503.7 L-6493.7,4505.5 L-6490.3,4507.7 L-6486.8,4510.0 L-6483.4,4512.2 L-6480.2,4514.4 L-6480.5,4514.8 L-6476.1,4517.9 L-6471.6,4520.9 L-6470.2,4521.7 L-6468.6,4522.6 L-6466.5,4523.7 L-6464.4,4524.4 L-6462.2,4525.0 L-6460.2,4525.5 L-6458.0,4525.9 L-6455.4,4526.1 L-6453.2,4526.2 L-6451.4,4526.0 L-6449.7,4525.7 L-6447.7,4525.1 L-6445.6,4524.4 L-6443.7,4523.8 L-6442.0,4523.0 L-6440.2,4522.0 L-6438.4,4520.9 L-6436.7,4519.5 L-6435.1,4518.1 L-6433.5,4516.5 L-6432.1,4514.9 L-6430.5,4512.7 L-6429.3,4510.5 L-6428.1,4508.1 L-6427.4,4506.2 L-6426.8,4504.2 L-6426.5,4502.0 L-6426.3,4499.9 L-6426.4,4497.4 L-6456.1,4213.5 L-6454.0,4213.4 L-6455.6,4199.1 L-6457.2,4199.2 L-6458.4,4192.7 L-6458.0,4191.3 L-6456.7,4189.4 L-6454.1,4187.4 L-6450.8,4187.0 L-6437.3,4186.6 L-6435.1,4187.0 L-6433.5,4187.7 L-6431.9,4189.0 L-6430.7,4190.2 L-6430.0,4191.5 L-6397.5,4509.9 L-6396.7,4512.7 L-6395.3,4516.1 L-6394.1,4518.3 L-6392.8,4520.6 L-6391.1,4522.9 L-6389.7,4524.5 L-6388.2,4526.1 L-6386.5,4527.5 L-6385.0,4528.6 L-6382.8,4529.9 L-6381.0,4530.9 L-6378.5,4531.9 L-6376.2,4532.6 L-6373.7,4533.2 L-6371.6,4533.4 L-6369.9,4533.5 L-6367.9,4533.5 L-6297.2,4532.1 L-6294.9,4531.8 L-6292.7,4530.7 L-6291.2,4529.3 L-6290.0,4527.1 L-6289.7,4525.1 L-6289.7,4523.1 L-6325.5,4182.1 L-6357.0,4141.0 L-6358.4,4142.1 L-6385.8,4103.8 L-6386.3,4095.8 L-6387.1,4094.1 L-6388.6,4092.5 L-6390.4,4089.9 L-6390.6,4086.1 L-6393.9,4084.9 L-6397.0,4084.8 L-6401.2,4086.9 L-6396.4,4095.9 L-6402.5,4098.8 L-6407.1,4094.6 L-6410.9,4092.2 L-6413.6,4091.3 L-6420.1,4091.1 L-6423.4,4084.3 L-6402.7,4075.8 L-6403.6,4074.2 L-6408.0,4068.2 L-6408.7,4068.6 L-6563.2,3866.4 L-6565.5,3833.0 L-6564.3,3832.7 L-6570.3,3771.5 L-6572.6,3765.9 L-6575.0,3759.5 L-6577.0,3754.6 L-6579.2,3748.4 L-6586.8,3727.3 L-6589.8,3728.7 L-6594.2,3711.7 L-6593.5,3711.5 L-6609.0,3669.4 L-6610.7,3595.7 L-6608.9,3595.7 L-6608.7,3589.2 L-6607.8,3582.9 L-6607.5,3580.5 L-6608.1,3578.6 L-6606.0,3568.5 L-6586.8,3534.7 L-6596.9,3528.5 L-6589.5,3516.2 L-6579.7,3521.9 L-6578.9,3520.6 L-6575.8,3522.1 L-6572.5,3523.5 L-6568.8,3524.7 L-6565.9,3525.3 L-6563.2,3525.3 L-6560.0,3524.8 L-6556.8,3523.7 L-6553.7,3522.5 L-6552.3,3521.0 L-6551.7,3519.0 L-6551.0,3516.5 L-6550.8,3515.5 L-6550.9,3514.2 L-6551.6,3512.3 L-6552.9,3510.5 L-6554.4,3509.4 L-6556.6,3507.3 L-6558.5,3505.3 L-6561.3,3503.5 L-6562.5,3500.7 L-6563.8,3497.8 L-6565.9,3494.5 L-6568.4,3491.5 L-6572.9,3488.3 L-6594.7,3477.0 L-6607.6,3470.7 L-6619.6,3464.1 L-6631.1,3457.8 L-6638.5,3453.0 L-6641.3,3452.2 L-6644.5,3453.2 L-6646.2,3455.4 L-6649.8,3464.2 L-6671.9,3454.3 L-6658.6,3433.5 L-6655.8,3432.1 L-6652.2,3431.4 L-6648.1,3432.3 L-6565.2,3480.8 L-6560.7,3482.1 L-6556.0,3483.2 L-6549.3,3483.4 L-6542.6,3482.2 L-6538.3,3480.5 L-6533.6,3476.7 L-6530.9,3474.0 L-6527.9,3469.9 L-6527.9,3469.3 L-6528.1,3468.8 L-6528.6,3468.4 L-6555.4,3451.8 L-6556.1,3451.6 L-6556.7,3451.6 L-6557.5,3451.6 L-6560.0,3452.7 L-6560.9,3452.8 L-6562.0,3452.7 L-6563.6,3452.5 L-6564.7,3452.1 L-6566.4,3451.3 L-6568.1,3450.3 L-6605.0,3427.9 L-6622.3,3415.6 L-6624.0,3415.4 L-6625.6,3415.5 L-6627.5,3415.5 L-6628.9,3415.3 L-6629.9,3414.8 L-6631.3,3413.8 L-6632.7,3412.6 L-6633.7,3411.3 L-6634.3,3409.8 L-6634.4,3408.8 L-6634.3,3407.5 L-6634.0,3406.3 L-6628.1,3396.4 L-6628.1,3395.9 L-6628.5,3395.6 L-6633.9,3391.8 L-6635.0,3390.2 L-6634.4,3389.3 L-6632.6,3389.5 L-6630.7,3390.1 L-6619.6,3397.0 L-6556.7,3437.1 L-6555.5,3437.8 L-6554.6,3438.8 L-6554.0,3439.9 L-6553.3,3442.2 L-6552.8,3444.0 L-6552.6,3445.5 L-6524.2,3462.6 L-6523.2,3463.0 L-6522.0,3463.2 L-6520.6,3462.9 L-6519.6,3462.6 L-6518.7,3462.2 L-6488.2,3412.7 L-6475.4,3394.0 L-6463.4,3380.5 L-6457.4,3383.8 L-6453.5,3377.6 L-6474.2,3365.2 L-6469.8,3357.9 L-6449.1,3370.4 L-6444.4,3362.8 L-6448.2,3358.6 L-6444.4,3354.3 L-6440.3,3359.0 L-6439.3,3358.2 L-6438.2,3357.5 L-6436.6,3356.5 L-6434.9,3355.7 L-6432.9,3355.0 L-6430.9,3354.5 L-6428.8,3354.1 L-6426.7,3354.0 L-6424.7,3354.0 L-6422.8,3354.3 L-6420.9,3354.7 L-6419.3,3355.2 L-6418.0,3355.8 L-6416.1,3356.7 L-6414.3,3357.8 L-6412.9,3358.9 L-6411.4,3360.2 L-6410.0,3361.5 L-6408.5,3363.5 L-6407.5,3365.2 L-6406.4,3367.4 L-6405.7,3369.7 L-6405.1,3372.8 L-6404.9,3375.5 L-6405.0,3377.1 L-6405.2,3378.6 L-6405.7,3381.1 L-6407.1,3384.3 L-6408.0,3386.5 L-6409.2,3389.0 L-6404.1,3391.6 L-6379.8,3362.6 L-6424.0,3335.7 L-6421.7,3331.0 L-6420.2,3326.5 L-6420.1,3324.6 L-6417.5,3319.1 L-6412.3,3314.3 L-6405.7,3309.0 L-6398.0,3304.0 L-6383.5,3299.8 L-6358.3,3297.3 L-6348.5,3289.3 L-6346.4,3288.9 L-6344.8,3288.9 L-6342.4,3289.8 L-6340.2,3290.0 L-6326.3,3298.4 L-6289.6,3254.9 L-6424.1,3169.4 L-6432.4,3182.5 L-6450.6,3171.1 L-6424.8,3130.6 L-6406.7,3141.7 L-6414.8,3155.5 L-6277.9,3241.8 L-6260.7,3219.7 L-6248.5,3205.2 L-6232.4,3181.0 L-6223.5,3168.7 L-6224.4,3161.8 L-6224.2,3161.6 L-6225.7,3156.4 L-6226.8,3153.3 L-6227.8,3150.0 L-6229.0,3147.1 L-6231.3,3143.3 L-6233.6,3139.7 L-6234.6,3137.8 L-6235.4,3135.9 L-6235.9,3134.1 L-6236.1,3132.6 L-6236.4,3127.5 L-6295.4,3073.3 L-6297.4,3075.4 L-6299.0,3074.0 L-6303.8,3078.7 L-6307.0,3074.5 L-6303.2,3070.1 L-6307.0,3065.3 L-6309.6,3065.9 L-6312.3,3066.0 L-6314.8,3065.6 L-6316.9,3064.7 L-6319.4,3062.9 L-6322.5,3059.8 L-6327.9,3053.8 L-6329.6,3051.2 L-6330.2,3048.0 L-6329.8,3044.3 L-6328.4,3040.7 L-6327.1,3038.3 L-6324.7,3036.0 L-6322.1,3034.2 L-6319.5,3033.2 L-6317.6,3032.9 L-6315.1,3033.3 L-6312.6,3034.3 L-6310.2,3036.1 L-6304.6,3041.2 L-6301.8,3043.9 L-6299.1,3046.7 L-6298.3,3048.1 L-6297.7,3049.5 L-6297.4,3050.8 L-6297.1,3052.6 L-6297.4,3054.3 L-6297.9,3055.9 L-6298.6,3057.1 L-6298.8,3057.6 L-6298.7,3058.3 L-6298.2,3059.1 L-6234.8,3118.5 L-6232.6,3120.0 L-6231.1,3120.7 L-6228.8,3120.2 L-6226.3,3119.9 L-6223.0,3121.4 L-6219.6,3123.4 L-6213.2,3127.1 L-6210.5,3128.3 L-6208.1,3125.9 L-6205.4,3123.4 L-6203.5,3121.3 L-6200.5,3117.4 L-6198.8,3115.1 L-6197.1,3112.1 L-6195.9,3109.6 L-6194.6,3106.9 L-6193.5,3104.0 L-6192.5,3101.2 L-6191.8,3098.7 L-6191.1,3095.6 L-6190.9,3093.8 L-6190.6,3092.3 L-6190.3,3089.6 L-6190.0,3087.0 L-6189.8,3085.3 L-6189.7,3083.4 L-6189.7,3081.3 L-6189.8,3079.5 L-6190.2,3077.0 L-6190.5,3074.1 L-6190.9,3071.5 L-6191.2,3069.4 L-6191.5,3067.7 L-6191.9,3066.1 L-6192.3,3064.3 L-6192.9,3062.4 L-6193.6,3060.4 L-6194.1,3059.1 L-6194.7,3057.9 L-6195.5,3056.8 L-6196.7,3055.1 L-6197.9,3053.6 L-6199.3,3052.3 L-6201.0,3050.9 L-6202.7,3049.8 L-6204.5,3048.9 L-6206.1,3048.2 L-6207.2,3047.9 L-6208.5,3047.7 L-6209.9,3047.8 L-6211.3,3048.1 L-6212.4,3048.5 L-6213.5,3049.3 L-6214.3,3050.1 L-6214.9,3050.9 L-6215.3,3052.0 L-6215.6,3053.3 L-6215.5,3054.7 L-6215.4,3056.5 L-6215.4,3057.8 L-6215.5,3059.1 L-6215.7,3060.4 L-6216.0,3061.5 L-6216.4,3062.8 L-6217.1,3064.1 L-6217.9,3065.3 L-6218.8,3066.4 L-6219.7,3067.3 L-6221.3,3068.6 L-6222.8,3069.5 L-6224.9,3070.2 L-6226.2,3070.5 L-6227.7,3070.7 L-6229.1,3070.7 L-6230.9,3070.7 L-6232.2,3070.4 L-6234.0,3070.0 L-6236.5,3069.3 L-6238.6,3068.5 L-6240.2,3067.8 L-6241.8,3066.9 L-6243.2,3065.9 L-6244.9,3064.7 L-6246.1,3063.6 L-6247.2,3062.5 L-6248.3,3061.2 L-6249.2,3060.0 L-6250.0,3058.8 L-6250.7,3057.5 L-6251.6,3055.7 L-6252.2,3054.0 L-6252.9,3052.2 L-6253.4,3050.8 L-6253.7,3049.5 L-6254.0,3048.2 L-6254.2,3046.1 L-6254.3,3044.2 L-6254.2,3042.2 L-6253.8,3039.5 L-6253.1,3036.9 L-6252.1,3034.2 L-6251.4,3033.0 L-6250.8,3032.2 L-6245.6,3025.7 L-6244.5,3024.3 L-6242.9,3023.6 L-6241.3,3023.0 L-6239.4,3022.6 L-6237.3,3022.3 L-6235.5,3022.2 L-6233.8,3022.3 L-6232.0,3022.5 L-6229.9,3023.1 L-6227.8,3024.2 L-6225.9,3025.3 L-6224.2,3026.6 L-6219.0,3031.4 L-6217.8,3031.8 L-6217.1,3031.9 L-6216.2,3031.8 L-6215.7,3031.6 L-6215.0,3030.8 L-6214.7,3030.0 L-6214.6,3028.8 L-6214.6,3027.9 L-6214.8,3027.4 L-6225.3,3017.0 L-6211.0,3001.8 L-6211.8,2999.9 L-6203.6,2991.8 L-6187.6,3007.7 L-6200.5,3024.0 L-6200.5,3025.0 L-6199.9,3025.3 L-6199.1,3025.2 L-6185.1,3007.6 L-6180.9,3002.6 L-6180.8,3001.5 L-6181.2,3000.4 L-6181.9,2999.6 L-6192.9,2989.2 L-6190.2,2986.0 L-6192.9,2983.6 L-6191.4,2979.9 L-6162.8,2951.3 L-6153.1,2949.6 L-6150.0,2949.2 L-6147.1,2948.7 L-6145.7,2948.4 L-6144.1,2947.6 L-6142.3,2946.5 L-6140.8,2945.0 L-6139.4,2943.3 L-6124.8,2922.2 L-6124.5,2921.6 L-6124.7,2920.9 L-6124.9,2920.4 L-6125.3,2919.9 L-6127.0,2918.9 L-6127.4,2918.6 L-6127.9,2918.6 L-6128.3,2918.9 L-6129.2,2919.6 L-6141.5,2931.0 L-6146.2,2934.4 L-6165.7,2914.4 L-6163.4,2907.3 L-6162.5,2905.2 L-6159.5,2899.6 L-6155.9,2893.4 L-6153.7,2891.0 L-6149.9,2886.9 L-6145.8,2882.3 L-6141.3,2877.6 L-6137.4,2874.3 L-6135.6,2872.6 L-6133.2,2870.9 L-6130.9,2869.6 L-6127.7,2868.2 L-6125.7,2867.5 L-6123.7,2866.9 L-6122.2,2866.8 L-6120.0,2866.9 L-6118.1,2867.2 L-6116.0,2867.7 L-6113.9,2869.4 L-6112.7,2871.2 L-6111.9,2873.0 L-6111.6,2875.7 L-6111.8,2879.3 L-6112.2,2883.2 L-6113.1,2887.1 L-6118.2,2898.6 L-6123.1,2908.9 L-6121.4,2911.7 L-6120.5,2912.2 L-6119.5,2912.2 L-6118.7,2912.1 L-6118.0,2911.6 L-6114.7,2906.9 L-6110.4,2904.7 L-6101.8,2881.9 L-6101.3,2880.8 L-6100.4,2879.8 L-6099.5,2879.3 L-6098.8,2879.1 L-6097.6,2879.1 L-6096.4,2879.4 L-6090.2,2881.2 L-6088.9,2881.4 L-6087.6,2881.4 L-6086.3,2881.2 L-6085.2,2880.8 L-6084.3,2880.1 L-6083.4,2878.9 L-6072.9,2864.9 L-6072.4,2863.9 L-6072.2,2862.8 L-6072.2,2861.7 L-6072.4,2860.6 L-6072.7,2859.8 L-6073.4,2859.0 L-6074.1,2858.4 L-6075.1,2857.9 L-6076.0,2857.6 L-6077.0,2857.6 L-6077.8,2857.7 L-6078.7,2858.1 L-6079.4,2858.7 L-6080.0,2859.4 L-6082.7,2863.8 L-6083.3,2864.7 L-6084.0,2865.5 L-6085.1,2866.4 L-6086.0,2866.9 L-6087.2,2867.3 L-6088.6,2867.5 L-6089.4,2867.5 L-6090.4,2867.4 L-6091.4,2867.2 L-6092.2,2866.8 L-6100.8,2859.0 L-6101.8,2857.8 L-6102.5,2856.7 L-6103.2,2855.3 L-6103.7,2854.2 L-6104.0,2853.0 L-6104.2,2851.7 L-6104.4,2850.1 L-6104.4,2848.5 L-6104.3,2847.1 L-6104.1,2846.0 L-6103.8,2845.0 L-6103.5,2844.2 L-6087.8,2819.3 L-6086.8,2817.7 L-6086.2,2816.8 L-6085.5,2816.4 L-6084.4,2815.9 L-6083.2,2815.5 L-6082.0,2815.4 L-6081.3,2815.4 L-6080.7,2815.5 L-6080.1,2815.7 L-6079.3,2816.0 L-6078.4,2816.6 L-6076.8,2818.0 L-6069.7,2824.6 L-6068.5,2826.3 L-6067.7,2828.0 L-6067.1,2829.9 L-6066.9,2831.4 L-6066.8,2833.0 L-6066.8,2834.4 L-6066.9,2835.7 L-6067.2,2837.1 L-6067.5,2838.0 L-6068.3,2839.9 L-6071.1,2845.1 L-6071.5,2846.3 L-6071.5,2847.8 L-6071.4,2848.9 L-6070.9,2849.7 L-6070.2,2850.5 L-6069.0,2851.4 L-6068.0,2851.9 L-6066.9,2852.2 L-6065.5,2852.2 L-6064.4,2851.9 L-6063.1,2851.3 L-6062.0,2850.3 L-6043.5,2824.9 L-6049.2,2819.8 L-6045.8,2816.1 L-6040.7,2820.9 L-6030.4,2807.3 L-6014.6,2786.3 L-6078.0,2725.5 L-6091.8,2740.0 L-6107.9,2724.7 L-6092.3,2707.9 L-6094.4,2705.7 L-6091.1,2702.7 L-6089.1,2704.7 L-6078.2,2692.9 L-6068.5,2701.9 L-6067.4,2709.4 L-6026.3,2747.7 L-6018.3,2750.8 L-6012.0,2748.6 L-5999.8,2753.4 L-5991.8,2750.4 L-5967.8,2721.2 L-5966.5,2718.4 L-5966.1,2714.7 L-5967.2,2711.1 L-5968.9,2708.5 L-5983.0,2695.4 L-5982.9,2691.8 L-5980.1,2684.7 L-5974.4,2674.3 L-5985.5,2667.1 L-5981.3,2665.6 L-5978.6,2663.8 L-5976.0,2660.8 L-5972.9,2652.9 L-5967.2,2638.4 L-5963.5,2635.0 L-5998.6,2601.0 L-6006.3,2605.8 L-6008.1,2606.3 L-6009.8,2606.3 L-6012.0,2606.0 L-6013.8,2605.5 L-6015.6,2604.5 L-6017.0,2603.2 L-6035.2,2585.7 L-6038.6,2582.4 L-6040.0,2580.6 L-6041.3,2578.3 L-6041.9,2576.2 L-6042.1,2574.2 L-6042.1,2572.4 L-6041.7,2570.5 L-6041.3,2569.1 L-6040.7,2568.0 L-6039.4,2566.2 L-6037.9,2564.4 L-6029.7,2555.9 L-5967.7,2613.3 L-5972.0,2618.1 L-5926.0,2661.6 L-5873.0,2584.1 L-5906.7,2552.6 L-5911.0,2556.5 L-5973.7,2497.3 L-5965.5,2489.6 L-5929.4,2523.4 L-5925.8,2518.1 L-5923.9,2515.5 L-5921.3,2512.8 L-5918.4,2509.6 L-5915.4,2507.7 L-5910.6,2503.7 L-5905.9,2499.3 L-5896.7,2490.7 L-5875.0,2466.2 L-5871.1,2462.1 L-5856.7,2454.8 L-5843.1,2444.2 L-5841.8,2443.1 L-5838.3,2440.4 L-5836.8,2439.0 L-5835.5,2437.4 L-5834.7,2435.8 L-5834.1,2434.1 L-5833.4,2432.9 L-5832.7,2431.5 L-5831.4,2429.3 L-5830.5,2428.0 L-5829.6,2426.8 L-5828.0,2425.4 L-5826.4,2424.4 L-5824.6,2423.3 L-5820.5,2421.3 L-5816.4,2419.3 L-5815.9,2419.2 L-5815.2,2419.3 L-5814.0,2419.7 L-5810.8,2421.3 L-5808.3,2422.5 L-5807.2,2423.2 L-5806.2,2424.0 L-5789.4,2439.9 L-5788.3,2440.6 L-5782.9,2442.0 L-5781.1,2442.5 L-5779.1,2442.7 L-5777.7,2442.6 L-5776.5,2442.2 L-5775.3,2441.5 L-5769.4,2433.1 L-5769.4,2431.9 L-5769.6,2430.8 L-5770.3,2429.7 L-5771.2,2428.6 L-5775.8,2424.4 L-5775.5,2423.7 L-5769.6,2411.3 L-5759.6,2391.1 L-5750.5,2384.4 L-5745.3,2379.1 L-5741.6,2375.0 L-5737.9,2371.1 L-5733.6,2367.7 L-5731.1,2365.4 L-5728.4,2362.9 L-5726.4,2360.9 L-5725.4,2359.1 L-5724.6,2357.7 L-5724.1,2356.3 L-5723.9,2354.7 L-5723.8,2353.2 L-5720.7,2350.1 L-5716.3,2345.8 L-5708.7,2339.7 L-5700.9,2333.7 L-5697.4,2328.8 L-5696.1,2323.7 L-5692.2,2321.4 L-5687.3,2321.3 L-5682.3,2318.3 L-5678.0,2310.5 L-5678.1,2302.3 L-5677.3,2289.7 L-5676.0,2287.9 L-5675.3,2286.7 L-5673.9,2284.4 L-5675.7,2279.1 L-5673.7,2276.6 L-5663.8,2264.3 L-5646.7,2244.4 L-5643.5,2239.7 L-5642.2,2237.3 L-5636.8,2229.8 L-5635.3,2225.2 L-5635.3,2217.9 L-5635.5,2210.7 L-5635.5,2203.3 L-5633.3,2195.1 L-5629.6,2187.0 L-5624.3,2179.3 L-5620.5,2173.6 L-5615.9,2167.8 L-5607.1,2158.0 L-5568.1,2138.7 L-5562.9,2137.4 L-5561.6,2140.2 L-5560.1,2142.9 L-5559.6,2143.4 L-5558.8,2143.0 L-5558.6,2141.1 L-5559.2,2139.5 L-5557.0,2138.9 L-5549.0,2136.5 L-5538.6,2133.4 L-5530.2,2130.9 L-5527.3,2130.0 L-5530.2,2120.6 L-5525.1,2119.2 L-5516.4,2118.0 L-5515.3,2117.8 L-5515.3,2117.2 L-5515.3,2115.0 L-5507.5,2114.6 L-5495.2,2114.1 L-5490.4,2116.5 L-5478.6,2159.2 L-5475.9,2161.7 L-5481.0,2167.0 L-5476.5,2171.5 L-5472.0,2176.0 L-5466.6,2170.5 L-5366.4,2265.8 L-5232.6,2123.0 L-5185.8,2167.7 L-5184.0,2167.1 L-5183.3,2167.9 L-5180.2,2166.0 L-5177.6,2165.0 L-5174.8,2163.8 L-5170.1,2161.3 L-5167.2,2159.7 L-5163.7,2157.7 L-5160.6,2155.7 L-5158.0,2154.0 L-5155.6,2152.4 L-5152.7,2150.3 L-5149.6,2148.0 L-5147.1,2145.9 L-5144.5,2143.7 L-5141.7,2140.9 L-5138.9,2138.2 L-5132.6,2131.6 L-5128.9,2127.0 L-5125.1,2122.1 L-5122.6,2118.5 L-5120.2,2114.8 L-5117.4,2109.6 L-5114.9,2104.5 L-5112.9,2100.4 L-5111.2,2096.3 L-5110.1,2093.5 L-5109.0,2090.4 L-5106.2,2087.1 L-5191.8,2005.7 L-5190.7,2004.5 L-5180.5,1993.6 L-5173.0,1985.7 L-5172.3,1984.9 L-5150.6,2005.2 L-5145.3,2002.5 L-5144.7,2003.2 L-5093.7,1976.7 L-5091.6,1975.5 L-5090.2,1974.4 L-5088.8,1973.1 L-5087.3,1971.5 L-5085.7,1969.3 L-5084.5,1967.2 L-5083.6,1965.6 L-5083.0,1963.5 L-5082.4,1961.3 L-5082.2,1958.9 L-5082.2,1956.1 L-5082.4,1953.9 L-5082.8,1951.9 L-5083.5,1949.6 L-5099.4,1903.7 L-5101.6,1896.2 L-5101.0,1893.6 L-5139.5,1884.0 L-5137.7,1877.4 L-5136.2,1871.4 L-5124.8,1826.2 L-5133.7,1800.0 L-5138.8,1783.0 L-5140.4,1778.7 L-5126.6,1766.0 L-5111.0,1757.7 L-5110.1,1759.0 L-5108.6,1761.1 L-5105.0,1765.7 L-5104.7,1765.3 L-5104.6,1763.7 L-5109.4,1757.1 L-5100.8,1750.8 L-5098.9,1749.7 L-5094.3,1755.6 L-5093.6,1756.2 L-5092.8,1756.3 L-5092.4,1756.2 L-5092.4,1755.8 L-5113.8,1726.5 L-5115.4,1724.8 L-5117.2,1722.3 L-5126.5,1711.1 L-5118.6,1686.4 L-5112.4,1680.1 L-5105.4,1676.8 L-5090.4,1667.9 L-5087.3,1664.7 L-5073.9,1652.9 L-5069.6,1657.4 L-5057.2,1670.8 L-5045.6,1661.1 L-5037.9,1668.5 L-5030.9,1675.4 L-5030.5,1675.7 L-5024.6,1670.6 L-5016.9,1679.0 L-5010.1,1687.6 L-5005.2,1693.3 L-5004.5,1694.0 L-4990.1,1681.4 L-4989.4,1680.8 L-4992.8,1676.6 L-4984.9,1670.2 L-4961.2,1697.9 L-4940.9,1684.6 L-4938.9,1682.7 L-4930.1,1679.0 L-4928.1,1677.0 L-4926.2,1674.5 L-4915.4,1664.9 L-4917.8,1661.5 L-4937.2,1665.9 L-4959.4,1640.7 L-4956.9,1638.5 L-4953.5,1642.4 L-4937.8,1628.9 L-4921.1,1647.1 L-4916.6,1648.9 L-4914.0,1650.5 L-4910.5,1654.3 L-4908.7,1652.7 L-4920.8,1639.0 L-4913.4,1632.5 L-4898.4,1650.5 L-4896.5,1649.1 L-4896.7,1648.7 L-4863.9,1625.0 L-4854.2,1617.8 L-4886.0,1578.0 L-4879.2,1573.3 L-4851.5,1605.7 L-4831.1,1609.4 L-4817.5,1601.6 L-4815.7,1600.4 L-4815.8,1598.9 L-4816.7,1597.1 L-4806.1,1590.5 L-4803.1,1593.6 L-4794.1,1588.3 L-4800.6,1580.3 L-4831.8,1538.7 L-4809.8,1515.8 L-4795.3,1494.5 L-4795.0,1477.8 L-4802.7,1455.6 L-4786.5,1442.1 L-4769.4,1435.5 L-4763.9,1434.3 L-4759.4,1433.7 L-4753.9,1434.0 L-4748.1,1435.4 L-4739.9,1442.4 L-4718.5,1468.6 L-4701.4,1490.3 L-4681.0,1503.9 L-4672.9,1505.2 L-4665.7,1506.1 L-4659.6,1506.3 L-4651.8,1505.8 L-4643.3,1504.4 L-4636.5,1502.4 L-4630.7,1499.7 L-4626.9,1497.4 L-4624.0,1494.5 L-4619.2,1488.6 L-4614.0,1479.1 L-4608.4,1466.5 L-4598.3,1471.7 L-4594.3,1473.0 L-4590.0,1473.7 L-4583.1,1473.2 L-4578.6,1471.9 L-4573.4,1469.6 L-4568.5,1466.8 L-4563.4,1461.8 L-4559.0,1457.8 L-4553.5,1454.1 L-4549.7,1451.6 L-4544.1,1449.6 L-4534.5,1446.8 L-4528.8,1445.2 L-4522.6,1442.9 L-4517.3,1440.2 L-4514.2,1438.3 L-4511.7,1435.8 L-4479.0,1419.4 L-4477.8,1418.7 L-4476.3,1417.7 L-4474.8,1416.6 L-4472.6,1415.3 L-4471.1,1414.6 L-4469.6,1413.3 L-4468.4,1412.0 L-4466.8,1411.0 L-4465.1,1409.8 L-4462.8,1407.7 L-4459.6,1407.4 L-4456.3,1407.0 L-4454.2,1406.4 L-4451.4,1405.1 L-4448.0,1403.5 L-4444.3,1401.3 L-4442.2,1399.3 L-4439.9,1396.7 L-4438.5,1394.2 L-4437.7,1391.9 L-4437.7,1390.4 L-4437.6,1389.0 L-4436.8,1383.9 L-4418.6,1373.3 L-4386.7,1354.9 L-4380.5,1351.4 L-4326.4,1320.1 L-4267.8,1286.5 L-4242.9,1272.2 L-4234.2,1267.4 L-4161.7,1225.3 L-4145.7,1216.4 L-4145.9,1215.8 L-4112.7,1197.1 L-4100.0,1190.0 L-4076.5,1176.9 L-4076.3,1177.3 L-4067.2,1172.3 L-4045.1,1160.0 L-4042.4,1157.6 L-4020.0,1141.1 L-4008.9,1131.9 L-3998.6,1123.2 L-3993.9,1120.6 L-3983.3,1110.1 L-3982.4,1110.7 L-3981.0,1110.5 L-3980.3,1111.0 L-3965.4,1093.5 L-3969.1,1090.0 L-3968.6,1089.1 L-3967.0,1086.8 L-3962.8,1081.3 L-3960.2,1077.4 L-3958.1,1074.2 L-3955.3,1069.8 L-3952.5,1065.3 L-3949.4,1060.1 L-3946.2,1054.6 L-3939.2,1040.2 L-3937.1,1035.6 L-3935.4,1032.0 L-3934.1,1029.3 L-3933.1,1027.1 L-3930.9,1021.7 L-3988.8,913.7 L-3989.9,911.6 L-3990.7,910.4 L-3991.4,909.6 L-3992.2,908.9 L-3992.9,908.4 L-3993.9,907.8 L-3995.0,907.4 L-3995.9,907.2 L-3996.8,907.1 L-3998.1,907.1 L-3999.6,907.3 L-4001.0,907.7 L-4002.4,908.4 L-4015.9,916.2 L-4033.4,926.3 L-4045.7,933.1 L-4068.0,945.3 L-4081.7,952.8 L-4081.2,953.7 L-4087.0,957.0 L-4106.2,966.9 L-4120.4,975.3 L-4128.7,979.9 L-4141.5,987.3 L-4142.9,988.2 L-4154.1,968.2 L-4132.1,956.2 L-4102.2,940.0 L-4081.9,928.6 L-4079.4,927.2 L-4079.7,926.6 L-4062.2,917.1 L-4052.8,911.9 L-4031.3,901.4 L-4027.3,899.4 L-3994.9,881.4 L-3982.8,874.7 L-3974.2,870.1 L-3964.1,864.3 L-3950.1,889.6 L-3972.1,901.6 L-3973.2,903.4 L-3973.7,905.4 L-3973.9,906.9 L-3973.9,908.2 L-3973.8,909.2 L-3973.4,910.7 L-3928.6,993.6 L-3927.7,994.9 L-3926.7,995.8 L-3925.8,996.5 L-3924.7,996.8 L-3923.6,997.0 L-3922.5,996.9 L-3921.6,996.6 L-3901.7,981.5 L-3892.4,973.7 L-3882.7,965.6 L-3879.0,962.2 L-3867.1,952.4 L-3866.5,952.4 L-3855.0,942.5 L-3854.9,941.9 L-3847.3,935.7 L-3841.3,930.7 L-3831.0,922.2 L-3830.1,923.4 L-3820.0,915.1 L-3814.9,910.8 L-3800.7,899.1 L-3790.9,890.9 L-3791.8,889.5 L-3788.5,886.7 L-3783.2,882.3 L-3779.9,879.4 L-3765.9,873.2 L-3756.5,869.8 L-3751.6,867.5 L-3738.1,867.4 L-3733.3,867.4 L-3723.3,868.0 L-3711.5,868.5 L-3710.6,867.6 L-3709.5,869.2 L-3705.8,869.3 L-3672.1,872.2 L-3668.2,873.1 L-3664.8,873.6 L-3657.0,874.3 L-3642.4,875.0 L-3639.2,875.0 L-3636.2,875.0 L-3624.5,874.5 L-3618.5,874.2 L-3612.6,873.6 L-3603.5,872.7 L-3603.5,873.2 L-3596.3,872.0 L-3589.4,870.7 L-3584.1,869.7 L-3577.3,864.5 L-3576.4,865.7 L-3575.6,866.8 L-3514.8,947.3 L-3368.1,997.8 L-3098.7,800.0 L-3025.4,747.2 L-2997.0,686.7 L-3042.1,627.6 L-3040.1,619.2 L-3032.2,617.0 L-3017.0,620.2 L-3006.2,616.1 L-3003.2,611.9 L-3003.9,608.3 L-3011.9,592.4 L-3012.5,586.5 L-3012.9,574.8 L-3014.3,563.6 L-3012.9,561.5 L-3008.3,559.4 L-3002.8,558.1 L-2998.8,553.8 L-2997.9,548.6 L-3001.3,538.5 L-3001.6,531.6 L-3000.6,523.7 L-2995.1,509.8 L-2996.2,503.4 L-2998.9,496.3 L-2999.0,486.6 L-3000.6,473.8 L-3003.6,465.8 L-3005.3,461.6 L-3004.2,459.7 L-3003.0,459.9 L-3002.7,459.1 L-3002.6,458.1 L-3002.6,457.1 L-3004.3,456.9 L-3005.5,455.3 L-3005.3,453.5 L-3006.8,453.1 L-3008.6,453.0 L-3008.9,453.5 L-3012.6,449.0 L-3013.4,447.6 L-3014.1,445.6 L-3014.6,443.8 L-3014.9,441.8 L-3015.1,439.7 L-3015.1,438.0 L-3015.2,436.1 L-3015.0,435.1 L-3014.2,432.6 L-3013.3,430.6 L-3012.1,428.7 L-3010.4,426.2 L-3008.7,423.8 L-3007.0,422.2 L-3005.0,420.6 L-3004.6,421.0 L-2987.0,407.6 L-2984.5,405.6 L-2985.0,404.9 L-2985.0,403.6 L-2980.6,400.2 L-2979.6,400.2 L-2978.5,401.0 L-2976.7,399.6 L-2958.6,386.0 L-2958.9,385.5 L-2956.7,383.9 L-2954.2,382.4 L-2952.5,381.6 L-2950.0,380.6 L-2947.8,380.1 L-2945.7,379.7 L-2943.4,379.5 L-2941.9,379.7 L-2940.0,380.0 L-2938.1,380.6 L-2936.7,381.3 L-2935.3,382.1 L-2934.3,382.8 L-2933.5,383.7 L-2932.2,384.8 L-2931.7,385.1 L-2930.8,385.1 L-2929.9,384.9 L-2927.2,382.9 L-2927.1,382.4 L-2926.8,382.0 L-2926.6,381.5 L-2926.6,380.8 L-2926.7,380.3 L-2927.2,379.7 L-2929.1,377.8 L-2930.6,376.5 L-2932.4,375.5 L-2935.4,374.3 L-2937.9,373.2 L-2933.5,370.9 L-2928.1,367.2 L-2921.3,366.3 L-2914.6,366.7 L-2910.1,365.0 L-2906.3,359.5 L-2891.8,333.5 L-2885.9,322.8 L-2881.3,311.4 L-2880.5,309.1 L-2873.5,287.9 L-2872.5,285.8 L-2871.2,283.8 L-2854.9,263.7 L-2851.5,260.1 L-2848.9,257.9 L-2812.6,226.8 L-2810.7,225.5 L-2804.4,222.1 L-2797.0,217.9 L-2773.8,205.8 L-2723.2,178.6 L-2722.1,179.5 L-2721.1,179.9 L-2720.2,180.1 L-2719.3,180.0 L-2718.4,179.8 L-2715.7,179.2 L-2712.6,178.5 L-2709.7,177.9 L-2706.8,177.4 L-2705.2,177.0 L-2702.9,176.3 L-2700.5,175.3 L-2694.4,172.0 L-2692.2,170.8 L-2691.1,170.1 L-2689.9,169.6 L-2685.2,167.6 L-2680.1,165.6 L-2673.6,162.8 L-2665.9,159.7 L-2665.6,159.5 L-2665.0,159.5 L-2664.1,159.2 L-2662.9,158.3 L-2661.6,157.8 L-2660.1,157.1 L-2657.3,155.5 L-2656.3,154.5 L-2654.6,153.4 L-2654.8,153.1 L-2654.1,152.3 L-2653.1,151.3 L-2651.7,150.5 L-2650.4,150.1 L-2649.1,149.6 L-2647.8,148.9 L-2645.4,147.3 L-2644.6,146.6 L-2643.9,145.5 L-2643.6,144.8 L-2643.6,144.0 L-2643.6,143.2 L-2643.5,142.4 L-2650.5,134.0 L-2628.5,121.1 L-2618.0,115.5 L-2615.9,114.9 L-2612.7,115.4 L-2609.2,120.4 L-2607.6,121.8 L-2606.1,122.5 L-2604.8,122.8 L-2603.6,122.7 L-2584.6,115.0 L-2579.5,112.5 L-2574.7,109.8 L-2567.0,105.7 L-2565.4,105.1 L-2458.0,60.5 L-2424.4,44.4 L-2274.1,-27.8 L1232.4,-56.8 L1232.4,4961.0 L-6261.4,4961.0 L-6261.4,4747.7 Z" fill="#add7e1" stroke="none"><title>Biscayne Bay</title></path><path d="M212.2,12.3 L214.3,2.8 L218.4,-3.6 L248.8,-21.0 L259.2,-21.1 L372.7,106.4 L370.7,108.6 L456.2,194.9 L463.9,211.5 L473.0,258.4 L483.6,286.8 L580.5,384.3 L656.5,434.3 L580.5,514.7 L356.3,291.5 L362.3,281.2 L360.5,279.7 L309.8,234.0 L239.6,183.8 L202.1,173.7 L132.9,133.2 L101.1,124.5 L103.6,64.4 L157.9,-4.4 L212.2,12.3 Z" fill="#add7e1" stroke="#78b8c7" stroke-width="0.55"><title>Rickenbacker Marina</title></path><path d="M319.0,-1433.2 L1344.3,-1226.2 L2462.8,-667.4 L3320.3,181.2 L3655.8,1009.0 L3245.7,1691.9 L2481.4,2064.4 L1754.4,2043.7 L1157.9,1629.8 L598.6,926.2 L-91.1,119.1 L-16.5,-832.9 Z" fill="#f1efe7" stroke="#8ab09d" stroke-width="0.65"><title>Virginia Key</title></path><path d="M-165.7,77.7 L20.8,264.0 L225.8,595.1 L486.8,967.6 L598.6,1195.2 L505.4,1298.7 L244.4,988.3 L-91.1,533.0 L-258.9,222.6 Z" fill="#f1efe7" stroke="#8ab09d" stroke-width="0.65"><title>Virginia Key western beach</title></path><path d="M254.2,50.1 L287.2,16.9 L374.6,103.9 L346.1,132.5 L306.0,92.5 L301.4,97.2 L254.2,50.1 Z" fill="#e8ecec" stroke="#d7d1c5" stroke-width="0.3"></path><path d="M357.2,323.1 L360.4,326.8 L360.6,329.9 L359.2,332.1 L355.6,333.3 L351.1,333.3 L345.0,330.5 L341.9,327.7 L264.6,251.1 L245.6,233.6 L230.6,221.5 L213.1,208.9 L196.1,196.9 L174.2,184.6 L154.3,173.8 L131.2,163.4 L128.8,160.4 L130.7,157.8 L137.3,156.6 L147.4,160.5 L164.7,168.9 L180.5,174.9 L193.0,180.7 L207.4,188.7 L223.5,198.6 L237.1,206.3 L244.5,212.8 L256.6,225.5 L270.9,240.0 L284.6,253.3 L299.7,268.1 L319.0,288.4 L336.2,305.1 L357.2,323.1 Z" fill="#dcf5d2" stroke="#9fcf91" stroke-width="0.4"></path><path d="M357.2,323.1 L360.4,326.8 L360.6,329.9 L359.2,332.1 L355.6,333.3 L351.1,333.3 L345.0,330.5 L341.9,327.7 L264.6,251.1 L245.6,233.6 L230.6,221.5 L213.1,208.9 L196.1,196.9 L174.2,184.6 L154.3,173.8 L131.2,163.4 L128.8,160.4 L130.7,157.8 L137.3,156.6 L147.4,160.5 L164.7,168.9 L180.5,174.9 L193.0,180.7 L207.4,188.7 L223.5,198.6 L237.1,206.3 L244.5,212.8 L256.6,225.5 L270.9,240.0 L284.6,253.3 L299.7,268.1 L319.0,288.4 L336.2,305.1 L357.2,323.1 Z" fill="url(#park-dots)" stroke="none"/><path d="M357.2,323.1 L360.4,326.8 L360.6,329.9 L359.2,332.1 L355.6,333.3 L351.1,333.3 L345.0,330.5 L341.9,327.7 L264.6,251.1 L245.6,233.6 L230.6,221.5 L213.1,208.9 L196.1,196.9 L174.2,184.6 L154.3,173.8 L131.2,163.4 L128.8,160.4 L130.7,157.8 L137.3,156.6 L147.4,160.5 L164.7,168.9 L180.5,174.9 L193.0,180.7 L207.4,188.7 L223.5,198.6 L237.1,206.3 L244.5,212.8 L256.6,225.5 L270.9,240.0 L284.6,253.3 L299.7,268.1 L319.0,288.4 L336.2,305.1 L357.2,323.1 Z" fill="url(#park-canopy)" stroke="none"/><path d="M-42.5,169.5 L-41.6,167.4 L-37.8,166.9 L-34.2,166.2 L-32.1,164.6 L-30.6,163.2 L-4.6,166.7 L22.5,171.6 L41.4,174.7 L45.2,176.5 L47.1,179.6 L48.2,184.2 L35.8,180.4 L23.8,177.9 L11.7,177.0 L-5.1,176.5 L-4.8,170.5 L-32.2,169.6 L-42.5,169.5 Z" fill="#dcf5d2" stroke="#9fcf91" stroke-width="0.4"></path><path d="M-42.5,169.5 L-41.6,167.4 L-37.8,166.9 L-34.2,166.2 L-32.1,164.6 L-30.6,163.2 L-4.6,166.7 L22.5,171.6 L41.4,174.7 L45.2,176.5 L47.1,179.6 L48.2,184.2 L35.8,180.4 L23.8,177.9 L11.7,177.0 L-5.1,176.5 L-4.8,170.5 L-32.2,169.6 L-42.5,169.5 Z" fill="url(#park-dots)" stroke="none"/><path d="M-42.5,169.5 L-41.6,167.4 L-37.8,166.9 L-34.2,166.2 L-32.1,164.6 L-30.6,163.2 L-4.6,166.7 L22.5,171.6 L41.4,174.7 L45.2,176.5 L47.1,179.6 L48.2,184.2 L35.8,180.4 L23.8,177.9 L11.7,177.0 L-5.1,176.5 L-4.8,170.5 L-32.2,169.6 L-42.5,169.5 Z" fill="url(#park-canopy)" stroke="none"/><path d="M173.9,239.3 L173.4,240.4 L204.3,261.7 L206.3,258.7 L185.6,245.5 L173.9,239.3 Z" fill="#dcf5d2" stroke="#9fcf91" stroke-width="0.4"></path><path d="M173.9,239.3 L173.4,240.4 L204.3,261.7 L206.3,258.7 L185.6,245.5 L173.9,239.3 Z" fill="url(#park-dots)" stroke="none"/><path d="M173.9,239.3 L173.4,240.4 L204.3,261.7 L206.3,258.7 L185.6,245.5 L173.9,239.3 Z" fill="url(#park-canopy)" stroke="none"/><path d="M172.1,238.5 L170.5,240.6 L167.4,244.3 L160.9,238.9 L158.8,235.1 L158.2,231.5 L158.9,231.4 L172.1,238.5 Z" fill="#dcf5d2" stroke="#9fcf91" stroke-width="0.4"></path><path d="M172.1,238.5 L170.5,240.6 L167.4,244.3 L160.9,238.9 L158.8,235.1 L158.2,231.5 L158.9,231.4 L172.1,238.5 Z" fill="url(#park-dots)" stroke="none"/><path d="M172.1,238.5 L170.5,240.6 L167.4,244.3 L160.9,238.9 L158.8,235.1 L158.2,231.5 L158.9,231.4 L172.1,238.5 Z" fill="url(#park-canopy)" stroke="none"/><path d="M145.3,238.5 L147.1,239.5 L159.7,245.6 L160.4,245.4 L160.0,244.6 L156.8,240.6 L154.7,236.6 L154.3,234.3 L153.4,234.1 L150.6,236.3 L147.9,237.4 L145.3,238.5 Z" fill="#dcf5d2" stroke="#9fcf91" stroke-width="0.4"></path><path d="M145.3,238.5 L147.1,239.5 L159.7,245.6 L160.4,245.4 L160.0,244.6 L156.8,240.6 L154.7,236.6 L154.3,234.3 L153.4,234.1 L150.6,236.3 L147.9,237.4 L145.3,238.5 Z" fill="url(#park-dots)" stroke="none"/><path d="M145.3,238.5 L147.1,239.5 L159.7,245.6 L160.4,245.4 L160.0,244.6 L156.8,240.6 L154.7,236.6 L154.3,234.3 L153.4,234.1 L150.6,236.3 L147.9,237.4 L145.3,238.5 Z" fill="url(#park-canopy)" stroke="none"/><path d="M97.3,221.2 L110.9,225.2 L121.9,218.4 L144.3,225.5 L145.6,227.6 L137.6,232.5 L141.3,232.4 L145.0,230.7 L147.4,226.2 L139.0,222.9 L121.1,216.9 L110.3,213.2 L97.3,221.2 Z" fill="#dcf5d2" stroke="#9fcf91" stroke-width="0.4"></path><path d="M97.3,221.2 L110.9,225.2 L121.9,218.4 L144.3,225.5 L145.6,227.6 L137.6,232.5 L141.3,232.4 L145.0,230.7 L147.4,226.2 L139.0,222.9 L121.1,216.9 L110.3,213.2 L97.3,221.2 Z" fill="url(#park-dots)" stroke="none"/><path d="M97.3,221.2 L110.9,225.2 L121.9,218.4 L144.3,225.5 L145.6,227.6 L137.6,232.5 L141.3,232.4 L145.0,230.7 L147.4,226.2 L139.0,222.9 L121.1,216.9 L110.3,213.2 L97.3,221.2 Z" fill="url(#park-canopy)" stroke="none"/><path d="M64.7,203.1 L65.8,207.1 L68.5,210.7 L73.6,214.1 L80.4,209.9 L95.3,214.3 L96.7,216.7 L92.3,219.7 L94.1,220.3 L103.8,213.5 L104.0,212.2 L103.0,211.1 L77.1,204.1 L71.3,203.3 L64.7,203.1 Z" fill="#dcf5d2" stroke="#9fcf91" stroke-width="0.4"></path><path d="M64.7,203.1 L65.8,207.1 L68.5,210.7 L73.6,214.1 L80.4,209.9 L95.3,214.3 L96.7,216.7 L92.3,219.7 L94.1,220.3 L103.8,213.5 L104.0,212.2 L103.0,211.1 L77.1,204.1 L71.3,203.3 L64.7,203.1 Z" fill="url(#park-dots)" stroke="none"/><path d="M64.7,203.1 L65.8,207.1 L68.5,210.7 L73.6,214.1 L80.4,209.9 L95.3,214.3 L96.7,216.7 L92.3,219.7 L94.1,220.3 L103.8,213.5 L104.0,212.2 L103.0,211.1 L77.1,204.1 L71.3,203.3 L64.7,203.1 Z" fill="url(#park-canopy)" stroke="none"/><path d="M65.1,199.4 L66.6,196.0 L68.9,194.1 L73.1,192.6 L79.4,193.4 L74.4,196.9 L76.3,199.2 L97.0,204.2 L112.3,208.9 L120.0,204.6 L123.6,205.6 L118.6,208.3 L120.0,210.9 L137.6,217.8 L144.8,214.0 L147.4,216.7 L148.4,219.9 L148.1,223.3 L136.4,219.1 L113.9,211.4 L99.5,206.9 L82.8,202.3 L73.7,200.3 L65.1,199.4 Z" fill="#dcf5d2" stroke="#9fcf91" stroke-width="0.4"></path><path d="M65.1,199.4 L66.6,196.0 L68.9,194.1 L73.1,192.6 L79.4,193.4 L74.4,196.9 L76.3,199.2 L97.0,204.2 L112.3,208.9 L120.0,204.6 L123.6,205.6 L118.6,208.3 L120.0,210.9 L137.6,217.8 L144.8,214.0 L147.4,216.7 L148.4,219.9 L148.1,223.3 L136.4,219.1 L113.9,211.4 L99.5,206.9 L82.8,202.3 L73.7,200.3 L65.1,199.4 Z" fill="url(#park-dots)" stroke="none"/><path d="M65.1,199.4 L66.6,196.0 L68.9,194.1 L73.1,192.6 L79.4,193.4 L74.4,196.9 L76.3,199.2 L97.0,204.2 L112.3,208.9 L120.0,204.6 L123.6,205.6 L118.6,208.3 L120.0,210.9 L137.6,217.8 L144.8,214.0 L147.4,216.7 L148.4,219.9 L148.1,223.3 L136.4,219.1 L113.9,211.4 L99.5,206.9 L82.8,202.3 L73.7,200.3 L65.1,199.4 Z" fill="url(#park-canopy)" stroke="none"/><path d="M54.3,192.4 L55.6,196.4 L57.6,198.7 L59.3,199.4 L59.1,196.2 L57.6,193.8 L56.1,192.8 L54.3,192.4 Z" fill="#dcf5d2" stroke="#9fcf91" stroke-width="0.4"></path><path d="M54.3,192.4 L55.6,196.4 L57.6,198.7 L59.3,199.4 L59.1,196.2 L57.6,193.8 L56.1,192.8 L54.3,192.4 Z" fill="url(#park-dots)" stroke="none"/><path d="M54.3,192.4 L55.6,196.4 L57.6,198.7 L59.3,199.4 L59.1,196.2 L57.6,193.8 L56.1,192.8 L54.3,192.4 Z" fill="url(#park-canopy)" stroke="none"/><path d="M-57.3,194.9 L-54.9,198.2 L-47.1,199.9 L-42.7,202.1 L-35.1,204.5 L-22.1,207.4 L-15.9,208.1 L-8.7,212.8 L-0.1,216.3 L9.4,218.1 L15.1,217.3 L25.6,214.1 L37.4,216.0 L46.0,215.0 L49.9,212.8 L49.9,209.1 L45.9,208.1 L41.1,209.4 L38.2,207.6 L35.5,203.5 L36.3,194.1 L29.4,193.2 L-57.3,194.9 Z" fill="#dcf5d2" stroke="#9fcf91" stroke-width="0.4"></path><path d="M-57.3,194.9 L-54.9,198.2 L-47.1,199.9 L-42.7,202.1 L-35.1,204.5 L-22.1,207.4 L-15.9,208.1 L-8.7,212.8 L-0.1,216.3 L9.4,218.1 L15.1,217.3 L25.6,214.1 L37.4,216.0 L46.0,215.0 L49.9,212.8 L49.9,209.1 L45.9,208.1 L41.1,209.4 L38.2,207.6 L35.5,203.5 L36.3,194.1 L29.4,193.2 L-57.3,194.9 Z" fill="url(#park-dots)" stroke="none"/><path d="M-57.3,194.9 L-54.9,198.2 L-47.1,199.9 L-42.7,202.1 L-35.1,204.5 L-22.1,207.4 L-15.9,208.1 L-8.7,212.8 L-0.1,216.3 L9.4,218.1 L15.1,217.3 L25.6,214.1 L37.4,216.0 L46.0,215.0 L49.9,212.8 L49.9,209.1 L45.9,208.1 L41.1,209.4 L38.2,207.6 L35.5,203.5 L36.3,194.1 L29.4,193.2 L-57.3,194.9 Z" fill="url(#park-canopy)" stroke="none"/><path d="M-1.0,-1.0 L257.0,-1.0 L257.0,257.0 L-1.0,257.0 L-1.0,-1.0 Z M257.0,-1.0 L216.7,-1.0 L214.3,2.8 L212.2,12.3 L225.7,30.9 L247.9,46.3 L257.0,56.9 L257.0,196.2 L239.6,183.8 L202.1,173.7 L132.9,133.2 L101.1,124.5 L70.8,127.1 L65.9,127.2 L63.9,123.5 L51.2,122.5 L-1.0,121.0 L-1.0,219.8 L18.8,228.0 L22.5,228.0 L23.1,226.5 L20.1,224.1 L21.8,221.7 L26.4,220.9 L33.2,221.6 L41.5,225.1 L105.2,251.7 L115.2,257.0 L257.0,257.0 L257.0,-1.0 Z" fill="#add7e1" stroke="none" fill-rule="evenodd"><title>Biscayne Bay</title></path><path d="M188.5,-5.1 L486.8,305.4 L747.8,802.1 L971.5,1319.4 L1232.4,1671.2 L1064.7,1878.1 L635.9,1567.7 L281.7,1029.7 L-53.8,408.8 Z" fill="#add7e1" stroke="none"><title>Hobie Island western bay</title></path><path d="M-277.5,222.6 L393.6,98.4 L1139.2,150.1 L1903.5,-77.5 L2779.7,-429.4 L3227.1,-636.3 L3413.5,-222.4 L3096.6,388.1 L2518.7,864.1 L1810.3,1257.3 L1381.6,1650.5 L598.6,1764.3 L114.0,1722.9 L-258.9,1340.1 Z" fill="#f1efe7" stroke="#8ab09d" stroke-width="0.65"><title>Virginia Key north of Bear Cut</title></path><path d="M132.9,136.3 L131.2,142.2 L124.4,140.2 L126.1,134.3 L132.9,136.3 Z" fill="#d6d2c9" stroke="#bab6ad" stroke-width="0.4"></path><path d="M47.3,206.0 L39.9,206.2 L39.7,198.5 L47.1,198.3 L47.3,206.0 Z" fill="#d6d2c9" stroke="#bab6ad" stroke-width="0.4"></path><path d="M260.8,-16.2 L275.7,11.3 L271.0,13.8 L269.1,10.3 L261.4,14.5 L263.1,17.6 L237.1,31.9 L236.1,30.0 L233.3,31.6 L231.7,28.6 L228.0,30.6 L215.9,8.4 L260.8,-16.2 Z" fill="#d6d2c9" stroke="#bab6ad" stroke-width="0.4"></path><path d="M372.7,106.4 L259.2,-21.1 L248.8,-21.0 L218.4,-3.6 L214.3,2.8 L212.2,12.3 L225.7,30.9 L247.9,46.3 L281.4,85.4 L344.1,142.0" fill="none" stroke="#79bdd0" stroke-width="1.4" stroke-linecap="round" stroke-linejoin="round"></path><path d="M309.8,234.0 L239.6,183.8 L202.1,173.7 L132.9,133.2" fill="none" stroke="#79bdd0" stroke-width="1.4" stroke-linecap="round" stroke-linejoin="round"></path><path d="M132.9,133.2 L101.1,124.5 L70.8,127.1 L65.9,127.2 L63.9,123.5 L51.2,122.5 L-18.4,120.5 L-67.8,122.8" fill="none" stroke="#79bdd0" stroke-width="1.4" stroke-linecap="round" stroke-linejoin="round"></path><path d="M-49.6,205.4 L-19.8,211.9 L18.8,228.0 L22.5,228.0 L23.1,226.5 L20.1,224.1 L21.8,221.7 L26.4,220.9 L33.2,221.6 L41.5,225.1 L105.2,251.7 L123.0,261.2 L120.0,267.0 L124.7,270.5 L128.5,264.5 L179.8,295.3 L184.8,303.8 L181.6,306.7" fill="none" stroke="#79bdd0" stroke-width="1.4" stroke-linecap="round" stroke-linejoin="round"></path><path d="M142.8,50.2 L92.0,29.0 L78.0,10.0 L64.0,-21.0 L76.7,-54.6" fill="none" stroke="#ecfbff" stroke-width="4.1" stroke-dasharray="6 8" opacity="0.90" stroke-linecap="round" stroke-linejoin="round"/><path d="M142.8,50.2 L92.0,29.0 L78.0,10.0 L64.0,-21.0 L76.7,-54.6" fill="none" stroke="#388fb3" stroke-width="2.0" stroke-dasharray="5 8" opacity="0.86" stroke-linecap="round" stroke-linejoin="round"><title>Water Taxi Miami - Green</title></path><path d="M95.6,221.1 L97.8,219.4 L105.8,214.9 L106.9,213.4 L107.9,211.1" fill="none" stroke="#cf828d" stroke-width="1.3" stroke-dasharray="1.6 3.0" opacity="0.62" stroke-linecap="round" stroke-linejoin="round"></path><path d="M173.5,237.8 L172.1,240.2 L204.8,263.2" fill="none" stroke="#cf828d" stroke-width="1.3" stroke-dasharray="1.6 3.0" opacity="0.62" stroke-linecap="round" stroke-linejoin="round"></path><path d="M95.6,221.1 L93.6,223.2 L92.6,226.3" fill="none" stroke="#cf828d" stroke-width="1.3" stroke-dasharray="1.6 3.0" opacity="0.62" stroke-linecap="round" stroke-linejoin="round"></path><path d="M55.9,200.3 L52.9,201.3 L47.5,201.5" fill="none" stroke="#cf828d" stroke-width="1.3" stroke-dasharray="1.6 3.0" opacity="0.62" stroke-linecap="round" stroke-linejoin="round"></path><path d="M52.6,194.6 L47.7,194.4 L43.9,194.1 L42.2,194.1 L41.1,194.3 L40.3,195.0 L39.4,196.3 L39.0,197.7" fill="none" stroke="#cf828d" stroke-width="1.3" stroke-dasharray="1.6 3.0" opacity="0.62" stroke-linecap="round" stroke-linejoin="round"></path><path d="M49.6,184.4 L48.8,181.1 L48.2,179.3 L47.6,177.7 L46.8,176.4 L45.7,175.1 L44.5,174.3 L43.3,173.8 L41.8,173.3 L39.6,173.0 L26.9,171.1 L14.2,168.8 L8.3,167.7 L-0.4,166.1 L-5.8,165.1 L-12.4,164.2 L-17.1,163.5 L-24.8,162.4 L-32.2,161.2 L-37.8,160.3" fill="none" stroke="#8fb58e" stroke-width="1.7" opacity="0.58" stroke-linecap="round" stroke-linejoin="round"><title>Rickenbacker Trail</title></path><path d="M52.1,192.7 L50.9,188.7 L49.6,184.4" fill="none" stroke="#8fb58e" stroke-width="1.7" opacity="0.58" stroke-linecap="round" stroke-linejoin="round"><title>Rickenbacker Trail</title></path><path d="M58.7,201.5 L57.3,201.0 L55.9,200.3 L54.7,198.9 L53.6,196.9 L52.6,194.6 L52.1,192.7" fill="none" stroke="#8fb58e" stroke-width="1.7" opacity="0.58" stroke-linecap="round" stroke-linejoin="round"><title>Rickenbacker Trail</title></path><path d="M64.9,201.7 L61.8,201.7 L58.7,201.5" fill="none" stroke="#8fb58e" stroke-width="1.7" opacity="0.58" stroke-linecap="round" stroke-linejoin="round"><title>Rickenbacker Trail</title></path><path d="M147.7,224.9 L139.6,221.8 L129.3,218.3 L117.8,214.4 L107.9,211.1 L101.3,209.2 L91.2,206.4 L83.0,204.3 L77.5,203.0 L73.7,202.2 L69.7,201.7 L66.9,201.6 L64.9,201.7" fill="none" stroke="#8fb58e" stroke-width="1.7" opacity="0.58" stroke-linecap="round" stroke-linejoin="round"><title>Rickenbacker Trail</title></path><path d="M159.2,230.0 L155.3,228.3 L147.7,224.9" fill="none" stroke="#8fb58e" stroke-width="1.7" opacity="0.58" stroke-linecap="round" stroke-linejoin="round"><title>Rickenbacker Trail</title></path><path d="M279.4,321.6 L257.2,299.7 L236.3,279.6 L231.2,274.4 L227.0,270.9 L221.8,267.2 L208.2,258.5 L188.7,245.9 L184.0,243.1 L178.9,240.4 L173.5,237.8 L159.2,230.0" fill="none" stroke="#8fb58e" stroke-width="1.7" opacity="0.58" stroke-linecap="round" stroke-linejoin="round"><title>Rickenbacker Trail</title></path><path d="M62.4,189.7 L62.0,195.9 L61.8,201.7 L61.9,203.6 L62.2,205.4 L62.9,207.6 L64.2,209.9 L65.5,211.9 L67.0,213.6 L68.7,215.1 L70.2,216.2" fill="none" stroke="#cec8bb" stroke-width="3.2" stroke-linecap="round" stroke-linejoin="round"/><path d="M62.4,189.7 L62.0,195.9 L61.8,201.7 L61.9,203.6 L62.2,205.4 L62.9,207.6 L64.2,209.9 L65.5,211.9 L67.0,213.6 L68.7,215.1 L70.2,216.2" fill="none" stroke="#ffffff" stroke-width="2.2" stroke-linecap="round" stroke-linejoin="round"></path><path d="M71.5,190.2 L62.4,189.7" fill="none" stroke="#cec8bb" stroke-width="3.2" stroke-linecap="round" stroke-linejoin="round"/><path d="M71.5,190.2 L62.4,189.7" fill="none" stroke="#ffffff" stroke-width="2.2" stroke-linecap="round" stroke-linejoin="round"></path><path d="M166.9,249.2 L162.4,244.0 L160.0,241.6 L158.6,239.7 L157.1,236.9 L155.9,233.9 L154.8,230.1" fill="none" stroke="#cec8bb" stroke-width="3.2" stroke-linecap="round" stroke-linejoin="round"/><path d="M166.9,249.2 L162.4,244.0 L160.0,241.6 L158.6,239.7 L157.1,236.9 L155.9,233.9 L154.8,230.1" fill="none" stroke="#ffffff" stroke-width="2.2" stroke-linecap="round" stroke-linejoin="round"></path><path d="M138.7,237.1 L142.9,236.5 L144.8,236.2 L147.0,235.5 L149.8,234.5 L151.4,233.4 L154.8,230.1" fill="none" stroke="#cec8bb" stroke-width="3.2" stroke-linecap="round" stroke-linejoin="round"/><path d="M138.7,237.1 L142.9,236.5 L144.8,236.2 L147.0,235.5 L149.8,234.5 L151.4,233.4 L154.8,230.1" fill="none" stroke="#ffffff" stroke-width="2.2" stroke-linecap="round" stroke-linejoin="round"></path><path d="M62.4,189.7 L50.9,188.7 L48.2,188.2 L42.3,186.4 L37.7,184.9 L32.7,183.4 L27.3,182.1 L21.4,181.1 L15.4,180.5 L10.2,180.3 L6.9,180.1 L-30.2,179.4 L-37.9,179.0 L-44.8,178.4 L-54.7,177.4" fill="none" stroke="#cec8bb" stroke-width="3.2" stroke-linecap="round" stroke-linejoin="round"/><path d="M62.4,189.7 L50.9,188.7 L48.2,188.2 L42.3,186.4 L37.7,184.9 L32.7,183.4 L27.3,182.1 L21.4,181.1 L15.4,180.5 L10.2,180.3 L6.9,180.1 L-30.2,179.4 L-37.9,179.0 L-44.8,178.4 L-54.7,177.4" fill="none" stroke="#ffffff" stroke-width="2.2" stroke-linecap="round" stroke-linejoin="round"></path><path d="M247.2,305.4 L243.3,302.9 L238.3,299.9 L233.5,297.3 L228.5,294.8 L222.1,291.0 L218.4,288.5 L213.3,284.3 L206.9,278.1 L202.9,274.7 L198.9,271.6 L196.3,269.7 L181.1,259.4 L166.9,249.2" fill="none" stroke="#cec8bb" stroke-width="3.2" stroke-linecap="round" stroke-linejoin="round"/><path d="M247.2,305.4 L243.3,302.9 L238.3,299.9 L233.5,297.3 L228.5,294.8 L222.1,291.0 L218.4,288.5 L213.3,284.3 L206.9,278.1 L202.9,274.7 L198.9,271.6 L196.3,269.7 L181.1,259.4 L166.9,249.2" fill="none" stroke="#ffffff" stroke-width="2.2" stroke-linecap="round" stroke-linejoin="round"></path><path d="M145.9,211.5 L123.1,203.2 L112.6,199.9 L101.7,196.7 L93.8,194.6 L86.6,192.9 L81.3,191.8 L75.7,190.8 L71.5,190.2" fill="none" stroke="#cec8bb" stroke-width="3.2" stroke-linecap="round" stroke-linejoin="round"/><path d="M145.9,211.5 L123.1,203.2 L112.6,199.9 L101.7,196.7 L93.8,194.6 L86.6,192.9 L81.3,191.8 L75.7,190.8 L71.5,190.2" fill="none" stroke="#ffffff" stroke-width="2.2" stroke-linecap="round" stroke-linejoin="round"></path><path d="M138.7,237.1 L140.6,239.3 L146.2,241.7 L151.5,244.2 L159.0,247.7 L166.9,249.2" fill="none" stroke="#cec8bb" stroke-width="3.2" stroke-linecap="round" stroke-linejoin="round"/><path d="M138.7,237.1 L140.6,239.3 L146.2,241.7 L151.5,244.2 L159.0,247.7 L166.9,249.2" fill="none" stroke="#ffffff" stroke-width="2.2" stroke-linecap="round" stroke-linejoin="round"></path><path d="M70.2,216.2 L71.6,216.8 L93.6,223.2 L138.7,237.1" fill="none" stroke="#cec8bb" stroke-width="3.2" stroke-linecap="round" stroke-linejoin="round"/><path d="M70.2,216.2 L71.6,216.8 L93.6,223.2 L138.7,237.1" fill="none" stroke="#ffffff" stroke-width="2.2" stroke-linecap="round" stroke-linejoin="round"></path><path d="M154.8,230.1 L155.3,228.3 L155.6,227.1 L156.0,225.3 L156.0,223.2 L155.5,220.6 L154.8,218.6 L154.0,216.8 L151.9,214.6 L149.3,212.8 L145.9,211.5" fill="none" stroke="#cec8bb" stroke-width="3.2" stroke-linecap="round" stroke-linejoin="round"/><path d="M154.8,230.1 L155.3,228.3 L155.6,227.1 L156.0,225.3 L156.0,223.2 L155.5,220.6 L154.8,218.6 L154.0,216.8 L151.9,214.6 L149.3,212.8 L145.9,211.5" fill="none" stroke="#ffffff" stroke-width="2.2" stroke-linecap="round" stroke-linejoin="round"></path><path d="M310.9,270.4 L274.9,238.0 L242.1,205.5 L226.5,195.3 L193.5,177.6 L139.9,151.5 L128.9,150.4 L110.6,145.4" fill="none" stroke="#cec8bb" stroke-width="3.2" stroke-linecap="round" stroke-linejoin="round"/><path d="M310.9,270.4 L274.9,238.0 L242.1,205.5 L226.5,195.3 L193.5,177.6 L139.9,151.5 L128.9,150.4 L110.6,145.4" fill="none" stroke="#ffffff" stroke-width="2.2" stroke-linecap="round" stroke-linejoin="round"></path><path d="M156.0,223.2 L161.0,218.6 L163.8,216.3 L166.9,214.4 L174.3,210.7" fill="none" stroke="#cec8bb" stroke-width="3.2" stroke-linecap="round" stroke-linejoin="round"/><path d="M156.0,223.2 L161.0,218.6 L163.8,216.3 L166.9,214.4 L174.3,210.7" fill="none" stroke="#ffffff" stroke-width="2.2" stroke-linecap="round" stroke-linejoin="round"></path><path d="M226.7,249.8 L231.1,263.7 L239.7,272.1 L312.4,343.9" fill="none" stroke="#cec8bb" stroke-width="3.2" stroke-linecap="round" stroke-linejoin="round"/><path d="M226.7,249.8 L231.1,263.7 L239.7,272.1 L312.4,343.9" fill="none" stroke="#ffffff" stroke-width="2.2" stroke-linecap="round" stroke-linejoin="round"></path><path d="M-66.7,152.5 L-29.7,152.4 L-17.5,152.6 L-4.3,153.3 L8.2,154.3 L22.7,156.1 L38.3,158.5 L52.1,161.4 L67.9,165.1 L80.2,168.6 L94.4,173.0 L107.6,177.8 L120.7,183.0 L133.7,188.8 L148.1,196.0 L160.8,203.0 L174.3,210.7 L187.1,219.0 L199.0,227.3 L211.0,236.2 L226.7,249.8" fill="none" stroke="#d1c4aa" stroke-width="6.5" stroke-linecap="round" stroke-linejoin="round"/><path d="M-66.7,152.5 L-29.7,152.4 L-17.5,152.6 L-4.3,153.3 L8.2,154.3 L22.7,156.1 L38.3,158.5 L52.1,161.4 L67.9,165.1 L80.2,168.6 L94.4,173.0 L107.6,177.8 L120.7,183.0 L133.7,188.8 L148.1,196.0 L160.8,203.0 L174.3,210.7 L187.1,219.0 L199.0,227.3 L211.0,236.2 L226.7,249.8" fill="none" stroke="#efb36f" stroke-width="5.2" stroke-linecap="round" stroke-linejoin="round"><title>Rickenbacker Causeway</title></path><path d="M351.0,346.5 L276.3,273.3 L266.4,263.7 L255.6,253.6 L244.6,243.8 L233.0,233.8 L221.1,224.6 L206.7,214.2 L194.2,205.8 L180.0,197.2 L165.8,189.4 L152.9,182.9 L140.3,177.2 L124.9,170.5 L111.3,164.9 L98.1,160.4 L83.8,156.3 L68.7,152.4 L53.8,149.2 L39.3,146.7 L24.8,144.6 L12.3,143.1 L-0.7,142.2 L-13.4,141.7 L-27.5,141.6 L-66.8,142.0" fill="none" stroke="#d1c4aa" stroke-width="6.5" stroke-linecap="round" stroke-linejoin="round"/><path d="M351.0,346.5 L276.3,273.3 L266.4,263.7 L255.6,253.6 L244.6,243.8 L233.0,233.8 L221.1,224.6 L206.7,214.2 L194.2,205.8 L180.0,197.2 L165.8,189.4 L152.9,182.9 L140.3,177.2 L124.9,170.5 L111.3,164.9 L98.1,160.4 L83.8,156.3 L68.7,152.4 L53.8,149.2 L39.3,146.7 L24.8,144.6 L12.3,143.1 L-0.7,142.2 L-13.4,141.7 L-27.5,141.6 L-66.8,142.0" fill="none" stroke="#efb36f" stroke-width="5.2" stroke-linecap="round" stroke-linejoin="round"><title>Rickenbacker Causeway</title></path><path d="M226.7,249.8 L242.5,264.3 L253.1,274.8 L287.0,308.4" fill="none" stroke="#d1c4aa" stroke-width="6.5" stroke-linecap="round" stroke-linejoin="round"/><path d="M226.7,249.8 L242.5,264.3 L253.1,274.8 L287.0,308.4" fill="none" stroke="#efb36f" stroke-width="5.2" stroke-linecap="round" stroke-linejoin="round"><title>Rickenbacker Causeway</title></path><path d="M333.8,154.9 L170.2,21.5" fill="none" stroke="#f7f4ec" stroke-width="5.6" stroke-linecap="butt" stroke-linejoin="round"/><path d="M333.8,154.9 L170.2,21.5" fill="none" stroke="#b8b4aa" stroke-width="3.4" stroke-linecap="butt" stroke-linejoin="round"></path><path d="M142.8,50.2 L309.6,186.2" fill="none" stroke="#f7f4ec" stroke-width="5.6" stroke-linecap="butt" stroke-linejoin="round"/><path d="M142.8,50.2 L309.6,186.2" fill="none" stroke="#b8b4aa" stroke-width="3.4" stroke-linecap="butt" stroke-linejoin="round"><title>Rickenbacker Marina</title></path><text x="117.4" y="39.6" transform="rotate(22.7 117.4 39.6)" text-anchor="middle" dominant-baseline="central" font-family="Arial, sans-serif" font-size="7.4" textLength="75.8" lengthAdjust="spacing" font-weight="650" paint-order="stroke" stroke="#e4f8fb" stroke-width="2.0" stroke-linejoin="round" fill="#2f8298">Water Taxi Green</text><text x="54.6" y="132.2" text-anchor="middle" font-family="Arial, sans-serif" font-size="8" font-weight="600" paint-order="stroke" stroke="#fbf7ed" stroke-width="1.9" stroke-linejoin="round" fill="#514a42" textLength="97.3" lengthAdjust="spacing">Miami seaplane tour</text><text x="76.8" y="224.2" text-anchor="middle" font-family="Arial, sans-serif" font-size="8" font-weight="600" paint-order="stroke" stroke="#fbf7ed" stroke-width="1.9" stroke-linejoin="round" fill="#514a42" textLength="81.9" lengthAdjust="spacing">Miami Catamarans</text><text x="237.7" y="16.5" text-anchor="middle" font-family="Arial, sans-serif" font-size="6.5" textLength="18.0" lengthAdjust="spacing" font-weight="500" paint-order="stroke" stroke="#f3f5ee" stroke-width="1.55" stroke-linejoin="round" fill="#6f777a">3201</text><g opacity="0.56"><title>crossing</title><path d="M153.0,226.5 L157.6,226.5 M153.0,228.3 L157.6,228.3 M153.0,230.1 L157.6,230.1" stroke="#ffffff" stroke-width="2.1" stroke-linecap="round"/><path d="M153.0,226.5 L157.6,226.5 M153.0,228.3 L157.6,228.3 M153.0,230.1 L157.6,230.1" stroke="#59656a" stroke-width="0.85" stroke-linecap="round"/></g><g opacity="0.56"><title>crossing</title><path d="M59.5,199.9 L64.0,199.9 M59.5,201.7 L64.0,201.7 M59.5,203.5 L64.0,203.5" stroke="#ffffff" stroke-width="2.1" stroke-linecap="round"/><path d="M59.5,199.9 L64.0,199.9 M59.5,201.7 L64.0,201.7 M59.5,203.5 L64.0,203.5" stroke="#59656a" stroke-width="0.85" stroke-linecap="round"/></g><g opacity="0.56"><title>crossing</title><path d="M48.6,186.9 L53.2,186.9 M48.6,188.7 L53.2,188.7 M48.6,190.5 L53.2,190.5" stroke="#ffffff" stroke-width="2.1" stroke-linecap="round"/><path d="M48.6,186.9 L53.2,186.9 M48.6,188.7 L53.2,188.7 M48.6,190.5 L53.2,190.5" stroke="#59656a" stroke-width="0.85" stroke-linecap="round"/></g></svg>