<svg xmlns="http://www.w3.org/2000/svg" width="256" height="256" viewBox="0 0 256 256"><rect width="256" height="256" fill="#f1efe7"/><path d="M-2565.4,-8086.9 L-2458.0,-8131.5 L-2424.4,-8147.6 L-2274.1,-8219.8 L-2245.9,-8192.5 L-2243.4,-8190.2 L-2190.8,-8235.2 L-2178.2,-8244.8 L-2157.3,-8263.7 L-2039.2,-8372.1 L-1943.9,-8480.9 L-1940.3,-8487.8 L-1936.8,-8491.8 L-1931.2,-8498.1 L-1925.6,-8504.6 L-1923.3,-8507.3 L-1960.9,-8555.8 L-1911.2,-8585.6 L-1884.2,-8549.7 L-1846.1,-8593.3 L-1878.4,-8636.1 L-1838.4,-8677.7 L-1807.7,-8637.2 L-1772.3,-8677.4 L-1757.3,-8687.2 L-1683.7,-8735.0 L-1647.3,-8759.1 L-1603.5,-8788.0 L-1582.8,-8801.5 L-1530.4,-8835.4 L-1543.9,-8853.2 L-1568.1,-8885.5 L-1505.6,-8925.2 L-1482.8,-8937.0 L-1481.1,-8938.2 L-1469.1,-8947.5 L-1426.3,-8970.3 L-1423.3,-8975.0 L-1411.3,-8983.2 L-1404.8,-8992.7 L-1403.0,-8994.1 L-1392.6,-8998.1 L-1368.9,-9006.6 L-1352.8,-9013.7 L-1295.7,-9040.5 L-1295.0,-9038.6 L-1247.2,-9059.1 L-1227.7,-9034.0 L-1184.1,-9063.1 L-1177.9,-9067.3 L-1177.3,-9067.8 L-1176.7,-9068.6 L-1175.8,-9070.3 L-1175.2,-9071.8 L-1175.0,-9073.7 L-1175.0,-9075.2 L-1175.2,-9076.6 L-1175.4,-9078.3 L-1175.5,-9079.5 L-1175.4,-9080.6 L-1175.1,-9081.7 L-1174.3,-9083.7 L-1173.8,-9084.8 L-1172.6,-9086.7 L-1171.2,-9088.1 L-1164.9,-9090.7 L-1159.6,-9092.6 L-1152.8,-9094.8 L-1149.7,-9095.7 L-1144.1,-9097.5 L-1140.1,-9099.0 L-1134.7,-9101.2 L-1127.3,-9104.4 L-1119.3,-9108.2 L-1115.0,-9110.3 L-1109.6,-9113.0 L-1104.6,-9115.9 L-1099.5,-9118.9 L-1094.4,-9122.2 L-1092.8,-9123.3 L-1082.4,-9131.2 L-1073.7,-9137.9 L-1065.2,-9145.1 L-1057.2,-9152.6 L-1051.5,-9159.1 L-1045.8,-9166.0 L-1038.8,-9175.0 L-1032.4,-9184.0 L-1025.1,-9195.6 L-1020.3,-9204.5 L-1017.3,-9210.2 L-1012.8,-9219.9 L-1009.1,-9228.8 L-1005.7,-9238.4 L-1003.0,-9246.9 L-1000.1,-9260.6 L-997.9,-9272.8 L-996.7,-9283.4 L-995.8,-9295.7 L-995.6,-9309.0 L-996.5,-9321.3 L-998.6,-9337.2 L-1000.7,-9348.1 L-1003.3,-9358.5 L-1006.9,-9370.1 L-1010.1,-9379.1 L-1013.7,-9388.9 L-1017.1,-9396.9 L-1019.4,-9402.2 L-1020.4,-9406.0 L-1020.5,-9409.0 L-1020.2,-9411.6 L-1019.1,-9413.9 L-1017.5,-9415.9 L-1015.4,-9417.0 L-1013.2,-9417.3 L-1007.1,-9415.8 L-990.3,-9411.8 L-984.7,-9539.1 L-962.8,-9766.4 L-986.6,-9772.1 L-989.2,-9779.2 L-989.1,-9789.4 L-985.8,-9812.7 L-981.3,-9817.9 L-977.3,-9833.1 L-952.1,-9827.2 L-938.1,-9972.4 L-934.3,-10012.7 L-942.1,-10014.6 L-937.4,-10033.8 L-953.6,-10037.6 L-951.5,-10049.4 L-948.7,-10057.1 L-945.1,-10066.2 L-939.1,-10078.8 L-932.7,-10077.4 L-923.9,-10168.7 L-921.9,-10224.1 L-921.5,-10234.3 L-916.8,-10269.6 L-907.4,-10357.5 L-845.0,-10520.2 L-830.8,-10564.5 L-657.5,-10631.0 L-640.5,-10637.8 L-637.6,-10639.4 L-635.2,-10641.5 L-632.7,-10644.4 L-630.8,-10647.9 L-629.5,-10651.3 L-629.1,-10656.2 L-629.4,-10662.4 L-631.7,-10740.1 L-632.6,-10755.2 L-632.8,-10765.6 L-633.1,-10785.6 L-633.5,-10791.9 L-634.3,-10797.2 L-635.4,-10802.0 L-636.9,-10806.7 L-639.3,-10812.4 L-642.9,-10818.5 L-646.5,-10823.3 L-649.2,-10827.8 L-651.9,-10833.8 L-654.2,-10839.7 L-655.1,-10844.4 L-655.8,-10849.6 L-656.1,-10854.9 L-656.0,-10860.0 L-655.4,-10865.9 L-654.0,-10871.8 L-652.1,-10877.0 L-650.2,-10881.8 L-647.7,-10886.4 L-644.7,-10891.9 L-642.6,-10897.0 L-640.9,-10903.5 L-637.7,-10908.3 L-638.8,-10953.0 L-640.4,-10955.5 L-641.0,-10985.8 L-641.8,-11021.6 L-641.2,-11026.5 L-639.6,-11031.6 L-635.6,-11039.5 L-608.9,-11097.0 L-608.3,-11098.0 L-603.6,-11108.2 L-599.1,-11118.0 L-594.2,-11128.0 L-589.2,-11138.2 L-586.8,-11143.3 L-560.6,-11197.2 L-532.5,-11256.8 L-471.6,-11380.2 L-508.2,-11421.1 L-538.0,-11357.7 L-563.8,-11302.7 L-567.7,-11294.9 L-575.6,-11278.7 L-591.5,-11280.0 L-595.9,-11280.3 L-597.4,-11278.8 L-595.3,-11276.9 L-603.5,-11269.7 L-609.9,-11263.7 L-611.1,-11238.3 L-613.5,-11233.2 L-621.3,-11233.5 L-622.6,-11234.0 L-724.8,-11276.1 L-727.0,-11277.3 L-729.4,-11278.8 L-733.0,-11281.6 L-735.9,-11284.3 L-738.3,-11286.9 L-740.6,-11290.1 L-742.4,-11292.9 L-743.8,-11295.8 L-745.0,-11298.9 L-745.7,-11300.9 L-746.2,-11303.5 L-746.7,-11306.5 L-747.1,-11310.6 L-747.1,-11316.4 L-747.8,-11336.3 L-745.0,-11336.5 L-745.4,-11346.9 L-745.8,-11364.2 L-743.2,-11364.3 L-743.4,-11376.1 L-746.3,-11376.0 L-747.7,-11425.8 L-744.9,-11425.9 L-745.4,-11437.5 L-748.1,-11437.4 L-749.2,-11474.2 L-735.7,-11488.7 L-718.5,-11489.3 L-705.6,-11489.8 L-688.7,-11490.3 L-672.4,-11490.9 L-657.7,-11491.4 L-651.4,-11491.6 L-651.7,-11497.3 L-651.8,-11503.2 L-652.8,-11522.3 L-653.1,-11558.9 L-653.6,-11559.5 L-653.7,-11563.2 L-652.6,-11563.2 L-655.2,-11651.3 L-657.4,-11734.1 L-657.8,-11736.7 L-658.0,-11741.5 L-694.1,-11740.2 L-718.1,-11742.3 L-897.7,-11736.0 L-897.7,-11737.6 L-898.1,-11745.3 L-983.3,-11742.3 L-983.5,-11756.4 L-994.7,-11758.9 L-996.7,-11819.5 L-665.3,-11831.0 L-659.8,-11838.6 L-660.0,-11860.1 L-660.4,-11878.6 L-660.7,-11890.3 L-661.2,-11901.6 L-687.5,-11914.1 L-688.6,-11941.6 L-661.5,-11955.0 L-664.0,-12018.7 L-664.7,-12021.9 L-691.5,-12034.4 L-692.4,-12068.5 L-666.9,-12081.7 L-678.3,-12220.1 L-675.2,-12281.8 L-673.8,-12382.2 L-673.9,-12491.4 L-671.5,-12506.8 L-671.3,-12514.1 L-673.7,-12523.1 L-671.2,-12523.1 L-671.2,-12531.1 L-669.7,-12736.6 L-669.9,-12745.8 L-672.8,-12745.7 L-672.7,-12783.5 L-674.4,-12785.9 L-676.9,-12824.9 L-671.8,-12860.5 L-672.5,-12903.7 L-674.2,-12914.0 L-671.6,-12946.0 L-673.4,-12984.6 L-677.9,-13026.0 L-686.4,-13093.0 L-682.4,-13111.4 L-684.1,-13129.4 L-699.4,-13142.5 L-721.9,-13142.2 L-756.1,-13137.7 L-778.3,-13137.7 L-798.6,-13145.2 L-825.1,-13163.4 L-825.1,-13196.0 L-825.8,-13236.2 L-823.2,-13269.6 L-814.4,-13295.7 L-667.0,-13298.4 L-663.7,-13507.4 L-663.7,-13808.2 L-665.2,-13917.4 L7290.9,-17203.2 L7290.9,905.9 L-2565.4,905.9 L-2565.4,-8086.9 Z" fill="#add7e1" stroke="none"><title>Biscayne Bay</title></path><path d="M-1.0,-1.0 L257.0,-1.0 L257.0,257.0 L-1.0,257.0 L-1.0,-1.0 Z" fill="#add7e1" stroke="none" fill-rule="evenodd"><title>Biscayne Bay</title></path><path d="M-6596.9,-4265.4 L-4639.6,-4058.5 L-2216.2,-3127.5 L-538.5,-1886.3 L20.8,285.4 L-1097.7,905.9 L-6317.3,905.9 L-7435.8,-1782.9 Z" fill="#add7e1" stroke="none"><title>Biscayne Bay</title></path></svg>