<svg xmlns="http://www.w3.org/2000/svg" width="256" height="256" viewBox="0 0 256 256"><rect width="256" height="256" fill="#f1efe7"/><path d="M-53.1,134.5 L-48.3,273.2 L24.9,270.7 L20.1,132.0 L-53.1,134.5 Z" fill="#d6d2c9" stroke="#bab6ad" stroke-width="0.4"></path><path d="M28.0,166.5 L31.3,267.7 L244.2,260.8 L240.9,159.5 L28.0,166.5 Z" fill="#d6d2c9" stroke="#bab6ad" stroke-width="0.4"></path><path d="M15.1,76.7 L-54.5,79.3 L-59.7,-62.5 L232.3,-73.2 L234.9,-2.1 L145.5,1.1 L147.5,57.1 L57.1,60.4 L57.5,71.0 L15.0,72.5 L15.1,76.7 Z" fill="#d6d2c9" stroke="#bab6ad" stroke-width="0.4"></path><path d="M168.2,109.6 L167.5,94.3" fill="none" stroke="#cec8bb" stroke-width="3.5" stroke-linecap="round" stroke-linejoin="round"/><path d="M168.2,109.6 L167.5,94.3" fill="none" stroke="#ffffff" stroke-width="2.5" stroke-linecap="round" stroke-linejoin="round"></path><path d="M169.7,142.7 L168.2,109.6" fill="none" stroke="#cec8bb" stroke-width="3.5" stroke-linecap="round" stroke-linejoin="round"/><path d="M169.7,142.7 L168.2,109.6" fill="none" stroke="#ffffff" stroke-width="2.5" stroke-linecap="round" stroke-linejoin="round"></path><path d="M132.7,113.2 L133.3,144.2 L169.7,142.7 L196.4,141.6" fill="none" stroke="#cec8bb" stroke-width="3.5" stroke-linecap="round" stroke-linejoin="round"/><path d="M132.7,113.2 L133.3,144.2 L169.7,142.7 L196.4,141.6" fill="none" stroke="#ffffff" stroke-width="2.5" stroke-linecap="round" stroke-linejoin="round"></path><path d="M132.4,102.4 L132.7,113.2" fill="none" stroke="#cec8bb" stroke-width="3.5" stroke-linecap="round" stroke-linejoin="round"/><path d="M132.4,102.4 L132.7,113.2" fill="none" stroke="#ffffff" stroke-width="2.5" stroke-linecap="round" stroke-linejoin="round"></path><path d="M67.5,104.2 L70.7,141.5" fill="none" stroke="#cec8bb" stroke-width="3.5" stroke-linecap="round" stroke-linejoin="round"/><path d="M67.5,104.2 L70.7,141.5" fill="none" stroke="#ffffff" stroke-width="2.5" stroke-linecap="round" stroke-linejoin="round"></path><path d="M-69.3,107.4 L67.5,104.2 L132.4,102.4 L141.9,102.1 L159.8,94.2 L167.5,94.3 L222.6,94.6" fill="none" stroke="#cec8bb" stroke-width="4.8" stroke-linecap="round" stroke-linejoin="round"/><path d="M-69.3,107.4 L67.5,104.2 L132.4,102.4 L141.9,102.1 L159.8,94.2 L167.5,94.3 L222.6,94.6" fill="none" stroke="#ffffff" stroke-width="3.7" stroke-linecap="round" stroke-linejoin="round"><title>East 6th Street</title></path><path d="M276.5,-209.5 L281.0,-7.5 L287.5,247.5 L294.8,577.7" fill="none" stroke="#fbf8ef" stroke-width="6.9" stroke-linecap="round" stroke-linejoin="round"/><path d="M276.5,-209.5 L281.0,-7.5 L287.5,247.5 L294.8,577.7" fill="none" stroke="#465158" stroke-width="4.7" stroke-linecap="round" stroke-linejoin="round"><title>CSX Transportation</title></path><path d="M276.5,-209.5 L281.0,-7.5 L287.5,247.5 L294.8,577.7" fill="none" stroke="#ffffff" stroke-width="2.9" stroke-linecap="round" stroke-linejoin="round"/><path d="M286.8,577.9 L273.1,-7.3 L267.2,-244.7" fill="none" stroke="#fbf8ef" stroke-width="6.9" stroke-linecap="round" stroke-linejoin="round"/><path d="M286.8,577.9 L273.1,-7.3 L267.2,-244.7" fill="none" stroke="#465158" stroke-width="4.7" stroke-linecap="round" stroke-linejoin="round"><title>SFRTA South Florida Rail Corridor</title></path><path d="M272.1,127.7 L280.4,127.5" fill="none" stroke="#3f494e" stroke-width="0.9" stroke-linecap="round"/><path d="M271.9,118.6 L280.2,118.4" fill="none" stroke="#3f494e" stroke-width="0.9" stroke-linecap="round"/><path d="M271.7,109.5 L280.0,109.3" fill="none" stroke="#3f494e" stroke-width="0.9" stroke-linecap="round"/><path d="M271.5,100.4 L279.7,100.2" fill="none" stroke="#3f494e" stroke-width="0.9" stroke-linecap="round"/><path d="M271.2,91.3 L279.5,91.1" fill="none" stroke="#3f494e" stroke-width="0.9" stroke-linecap="round"/><path d="M271.0,82.2 L279.3,82.0" fill="none" stroke="#3f494e" stroke-width="0.9" stroke-linecap="round"/><path d="M270.8,73.1 L279.1,72.9" fill="none" stroke="#3f494e" stroke-width="0.9" stroke-linecap="round"/><path d="M270.6,64.0 L278.9,63.8" fill="none" stroke="#3f494e" stroke-width="0.9" stroke-linecap="round"/><path d="M270.4,54.9 L278.7,54.7" fill="none" stroke="#3f494e" stroke-width="0.9" stroke-linecap="round"/><path d="M270.2,45.8 L278.5,45.6" fill="none" stroke="#3f494e" stroke-width="0.9" stroke-linecap="round"/><path d="M270.0,36.7 L278.2,36.5" fill="none" stroke="#3f494e" stroke-width="0.9" stroke-linecap="round"/><path d="M269.8,27.6 L278.0,27.4" fill="none" stroke="#3f494e" stroke-width="0.9" stroke-linecap="round"/><path d="M269.5,18.5 L277.8,18.3" fill="none" stroke="#3f494e" stroke-width="0.9" stroke-linecap="round"/><path d="M269.3,9.4 L277.6,9.2" fill="none" stroke="#3f494e" stroke-width="0.9" stroke-linecap="round"/><path d="M269.1,0.3 L277.4,0.1" fill="none" stroke="#3f494e" stroke-width="0.9" stroke-linecap="round"/><path d="M268.8,-11.7 L277.1,-11.9" fill="none" stroke="#3f494e" stroke-width="0.9" stroke-linecap="round"/><path d="M286.8,577.9 L273.1,-7.3 L267.2,-244.7" fill="none" stroke="#ffffff" stroke-width="2.9" stroke-linecap="round" stroke-linejoin="round"/><path d="M259.3,-210.4 L264.8,-7.1 L279.0,578.0" fill="none" stroke="#fbf8ef" stroke-width="6.9" stroke-linecap="round" stroke-linejoin="round"/><path d="M259.3,-210.4 L264.8,-7.1 L279.0,578.0" fill="none" stroke="#465158" stroke-width="4.7" stroke-linecap="round" stroke-linejoin="round"><title>SFRTA South Florida Rail Corridor</title></path><path d="M268.7,-15.0 L260.4,-14.7" fill="none" stroke="#3f494e" stroke-width="0.9" stroke-linecap="round"/><path d="M269.0,-2.6 L260.8,-2.4" fill="none" stroke="#3f494e" stroke-width="0.9" stroke-linecap="round"/><path d="M269.3,6.5 L261.0,6.7" fill="none" stroke="#3f494e" stroke-width="0.9" stroke-linecap="round"/><path d="M269.5,15.6 L261.2,15.8" fill="none" stroke="#3f494e" stroke-width="0.9" stroke-linecap="round"/><path d="M269.7,24.7 L261.4,24.9" fill="none" stroke="#3f494e" stroke-width="0.9" stroke-linecap="round"/><path d="M269.9,33.8 L261.6,34.0" fill="none" stroke="#3f494e" stroke-width="0.9" stroke-linecap="round"/><path d="M270.1,42.9 L261.9,43.1" fill="none" stroke="#3f494e" stroke-width="0.9" stroke-linecap="round"/><path d="M270.4,52.0 L262.1,52.2" fill="none" stroke="#3f494e" stroke-width="0.9" stroke-linecap="round"/><path d="M270.6,61.1 L262.3,61.3" fill="none" stroke="#3f494e" stroke-width="0.9" stroke-linecap="round"/><path d="M270.8,70.2 L262.5,70.4" fill="none" stroke="#3f494e" stroke-width="0.9" stroke-linecap="round"/><path d="M271.0,79.3 L262.7,79.5" fill="none" stroke="#3f494e" stroke-width="0.9" stroke-linecap="round"/><path d="M271.2,88.4 L263.0,88.6" fill="none" stroke="#3f494e" stroke-width="0.9" stroke-linecap="round"/><path d="M271.5,97.5 L263.2,97.7" fill="none" stroke="#3f494e" stroke-width="0.9" stroke-linecap="round"/><path d="M271.7,106.6 L263.4,106.8" fill="none" stroke="#3f494e" stroke-width="0.9" stroke-linecap="round"/><path d="M271.9,115.6 L263.6,115.8" fill="none" stroke="#3f494e" stroke-width="0.9" stroke-linecap="round"/><path d="M272.1,124.7 L263.8,124.9" fill="none" stroke="#3f494e" stroke-width="0.9" stroke-linecap="round"/><path d="M272.3,133.8 L264.1,134.0" fill="none" stroke="#3f494e" stroke-width="0.9" stroke-linecap="round"/><path d="M272.6,142.9 L264.3,143.1" fill="none" stroke="#3f494e" stroke-width="0.9" stroke-linecap="round"/><path d="M272.8,152.0 L264.5,152.2" fill="none" stroke="#3f494e" stroke-width="0.9" stroke-linecap="round"/><path d="M273.0,161.1 L264.7,161.3" fill="none" stroke="#3f494e" stroke-width="0.9" stroke-linecap="round"/><path d="M273.2,170.2 L264.9,170.4" fill="none" stroke="#3f494e" stroke-width="0.9" stroke-linecap="round"/><path d="M273.4,179.3 L265.2,179.5" fill="none" stroke="#3f494e" stroke-width="0.9" stroke-linecap="round"/><path d="M273.7,188.4 L265.4,188.6" fill="none" stroke="#3f494e" stroke-width="0.9" stroke-linecap="round"/><path d="M273.9,197.5 L265.6,197.7" fill="none" stroke="#3f494e" stroke-width="0.9" stroke-linecap="round"/><path d="M274.1,206.6 L265.8,206.8" fill="none" stroke="#3f494e" stroke-width="0.9" stroke-linecap="round"/><path d="M274.3,215.7 L266.1,215.9" fill="none" stroke="#3f494e" stroke-width="0.9" stroke-linecap="round"/><path d="M274.5,224.8 L266.3,225.0" fill="none" stroke="#3f494e" stroke-width="0.9" stroke-linecap="round"/><path d="M274.8,233.9 L266.5,234.1" fill="none" stroke="#3f494e" stroke-width="0.9" stroke-linecap="round"/><path d="M275.0,243.0 L266.7,243.2" fill="none" stroke="#3f494e" stroke-width="0.9" stroke-linecap="round"/><path d="M275.2,252.1 L266.9,252.3" fill="none" stroke="#3f494e" stroke-width="0.9" stroke-linecap="round"/><path d="M275.4,261.2 L267.2,261.4" fill="none" stroke="#3f494e" stroke-width="0.9" stroke-linecap="round"/><path d="M275.7,270.3 L267.4,270.5" fill="none" stroke="#3f494e" stroke-width="0.9" stroke-linecap="round"/><path d="M259.3,-210.4 L264.8,-7.1 L279.0,578.0" fill="none" stroke="#ffffff" stroke-width="2.9" stroke-linecap="round" stroke-linejoin="round"/><text x="99.9" y="103.3" transform="rotate(-1.6 99.9 103.3)" text-anchor="middle" dominant-baseline="central" font-family="Arial, sans-serif" font-size="8.3" textLength="79.7" lengthAdjust="spacing" font-weight="650" paint-order="stroke" stroke="#fffaf0" stroke-width="2.05" stroke-linejoin="round" fill="#695f54">East 6th Street</text><text x="79.1" y="28.0" text-anchor="middle" font-family="Arial, sans-serif" font-size="6.5" textLength="18.0" lengthAdjust="spacing" font-weight="500" paint-order="stroke" stroke="#f3f5ee" stroke-width="1.55" stroke-linejoin="round" fill="#6f777a">625</text><text x="137.5" y="165.1" text-anchor="middle" font-family="Arial, sans-serif" font-size="6.5" textLength="18.0" lengthAdjust="spacing" font-weight="500" paint-order="stroke" stroke="#f3f5ee" stroke-width="1.55" stroke-linejoin="round" fill="#6f777a">575</text></svg>