<svg xmlns="http://www.w3.org/2000/svg" width="256" height="256" viewBox="0 0 256 256"><rect width="256" height="256" fill="#f1efe7"/><path d="M-198.4,156.2 L-80.3,155.8 L-66.2,544.9 L206.1,535.9 L208.0,886.6 L-172.0,899.9 L-198.4,156.2 Z" fill="#eadde0" stroke="#d7d1c5" stroke-width="0.3"></path><path d="M-44.9,238.6 L-44.0,260.1 L2.2,258.2 L1.3,236.7 L-44.9,238.6 Z" fill="#d6d2c9" stroke="#bab6ad" stroke-width="0.4"></path><path d="M-23.4,109.7 L-30.0,-129.5 L104.9,-133.3 L104.8,-136.8 L113.4,-137.0 L113.3,-138.5 L118.7,-138.6 L118.7,-137.1 L122.8,-137.3 L122.5,-148.0 L145.1,-148.6 L145.3,-138.8 L148.9,-138.9 L148.8,-142.4 L163.3,-142.7 L163.5,-138.3 L194.1,-139.1 L194.1,-141.1 L199.6,-141.2 L199.7,-139.3 L207.2,-139.5 L207.3,-136.9 L247.4,-138.0 L247.4,-140.3 L262.4,-140.7 L262.5,-138.4 L275.1,-138.8 L277.8,-44.9 L257.6,21.5 L246.4,34.5 L219.8,59.5 L180.3,84.0 L158.9,92.9 L135.8,100.6 L136.1,112.3 L133.4,112.4 L133.6,121.8 L107.2,122.5 L106.9,111.5 L108.9,111.5 L108.8,106.0 L-23.4,109.7 Z" fill="#d6d2c9" stroke="#bab6ad" stroke-width="0.4"></path><path d="M98.9,203.4 L99.8,219.6 L104.3,219.4 L105.0,231.9 L109.9,231.6 L109.2,219.0 L138.9,217.4 L140.8,255.1 L107.4,256.9 L108.0,266.9 L74.7,268.6 L75.0,273.7 L47.3,275.2 L48.0,221.8 L65.6,220.9 L64.8,205.2 L98.9,203.4 Z" fill="#d6d2c9" stroke="#bab6ad" stroke-width="0.4"></path><path d="M-1704.6,66.1 L22.9,1505.1" fill="none" stroke="#6fb5c7" stroke-width="1.7" stroke-dasharray="5 7" opacity="0.34" stroke-linecap="round" stroke-linejoin="round"><title>Miami Canal</title></path><path d="M31.7,285.1 L30.8,275.4 L27.6,253.2 L23.9,237.3 L21.2,231.5 L12.5,220.1 L-0.2,214.2 L-11.3,211.7 L-30.5,210.0 L-52.5,210.7" fill="none" stroke="#cec8bb" stroke-width="3.5" stroke-linecap="round" stroke-linejoin="round"/><path d="M31.7,285.1 L30.8,275.4 L27.6,253.2 L23.9,237.3 L21.2,231.5 L12.5,220.1 L-0.2,214.2 L-11.3,211.7 L-30.5,210.0 L-52.5,210.7" fill="none" stroke="#ffffff" stroke-width="2.5" stroke-linecap="round" stroke-linejoin="round"></path><path d="M12.5,220.1 L29.3,208.1 L45.8,203.1 L64.8,200.0 L78.1,198.5 L101.1,198.2 L134.6,197.8 L156.2,200.1 L171.6,202.1 L197.5,202.2 L208.3,202.8 L220.0,207.6 L223.4,213.0 L222.3,224.5 L217.0,240.5 L207.3,257.0 L194.7,269.8 L177.5,283.0" fill="none" stroke="#cec8bb" stroke-width="3.5" stroke-linecap="round" stroke-linejoin="round"/><path d="M12.5,220.1 L29.3,208.1 L45.8,203.1 L64.8,200.0 L78.1,198.5 L101.1,198.2 L134.6,197.8 L156.2,200.1 L171.6,202.1 L197.5,202.2 L208.3,202.8 L220.0,207.6 L223.4,213.0 L222.3,224.5 L217.0,240.5 L207.3,257.0 L194.7,269.8 L177.5,283.0" fill="none" stroke="#ffffff" stroke-width="2.5" stroke-linecap="round" stroke-linejoin="round"></path><path d="M266.6,516.9 L258.3,280.8 L255.6,212.0" fill="none" stroke="#cec8bb" stroke-width="4.8" stroke-linecap="round" stroke-linejoin="round"/><path d="M266.6,516.9 L258.3,280.8 L255.6,212.0" fill="none" stroke="#ffffff" stroke-width="3.7" stroke-linecap="round" stroke-linejoin="round"><title>Southeast 10th Court</title></path><path d="M-56.6,144.3 L220.5,136.5" fill="none" stroke="#cec8bb" stroke-width="4.8" stroke-linecap="round" stroke-linejoin="round"/><path d="M-56.6,144.3 L220.5,136.5" fill="none" stroke="#ffffff" stroke-width="3.7" stroke-linecap="round" stroke-linejoin="round"><title>Southeast 10th Street</title></path><path d="M304.8,76.6 L300.1,91.1 L293.9,104.9 L278.6,136.1 L255.9,168.8 L242.8,184.6 L229.1,198.7 L220.0,207.6 L211.0,216.5 L195.3,230.5 L177.7,244.2 L160.0,253.6 L148.8,258.2 L138.3,262.8 L115.6,270.6" fill="none" stroke="#fbf8ef" stroke-width="6.9" stroke-linecap="round" stroke-linejoin="round"/><path d="M304.8,76.6 L300.1,91.1 L293.9,104.9 L278.6,136.1 L255.9,168.8 L242.8,184.6 L229.1,198.7 L220.0,207.6 L211.0,216.5 L195.3,230.5 L177.7,244.2 L160.0,253.6 L148.8,258.2 L138.3,262.8 L115.6,270.6" fill="none" stroke="#465158" stroke-width="4.7" stroke-linecap="round" stroke-linejoin="round"><title>CSX Transportation</title></path><path d="M279.4,142.2 L272.6,137.5" fill="none" stroke="#3f494e" stroke-width="0.9" stroke-linecap="round"/><path d="M274.2,149.7 L267.4,145.0" fill="none" stroke="#3f494e" stroke-width="0.9" stroke-linecap="round"/><path d="M269.0,157.2 L262.2,152.5" fill="none" stroke="#3f494e" stroke-width="0.9" stroke-linecap="round"/><path d="M263.8,164.7 L257.0,159.9" fill="none" stroke="#3f494e" stroke-width="0.9" stroke-linecap="round"/><path d="M256.2,175.0 L249.8,169.7" fill="none" stroke="#3f494e" stroke-width="0.9" stroke-linecap="round"/><path d="M250.4,182.0 L244.0,176.7" fill="none" stroke="#3f494e" stroke-width="0.9" stroke-linecap="round"/><path d="M242.6,190.8 L236.6,185.0" fill="none" stroke="#3f494e" stroke-width="0.9" stroke-linecap="round"/><path d="M236.2,197.3 L230.3,191.5" fill="none" stroke="#3f494e" stroke-width="0.9" stroke-linecap="round"/><path d="M228.7,204.9 L222.9,199.0" fill="none" stroke="#3f494e" stroke-width="0.9" stroke-linecap="round"/><path d="M219.7,213.7 L213.9,207.8" fill="none" stroke="#3f494e" stroke-width="0.9" stroke-linecap="round"/><path d="M210.3,222.6 L204.8,216.4" fill="none" stroke="#3f494e" stroke-width="0.9" stroke-linecap="round"/><path d="M203.5,228.7 L198.0,222.5" fill="none" stroke="#3f494e" stroke-width="0.9" stroke-linecap="round"/><path d="M194.2,236.6 L189.1,230.1" fill="none" stroke="#3f494e" stroke-width="0.9" stroke-linecap="round"/><path d="M187.1,242.2 L182.0,235.7" fill="none" stroke="#3f494e" stroke-width="0.9" stroke-linecap="round"/><path d="M175.6,250.0 L171.8,242.7" fill="none" stroke="#3f494e" stroke-width="0.9" stroke-linecap="round"/><path d="M167.6,254.3 L163.7,247.0" fill="none" stroke="#3f494e" stroke-width="0.9" stroke-linecap="round"/><path d="M157.3,259.2 L154.2,251.5" fill="none" stroke="#3f494e" stroke-width="0.9" stroke-linecap="round"/><path d="M146.3,263.9 L143.0,256.3" fill="none" stroke="#3f494e" stroke-width="0.9" stroke-linecap="round"/><path d="M135.3,268.2 L132.6,260.4" fill="none" stroke="#3f494e" stroke-width="0.9" stroke-linecap="round"/><path d="M126.7,271.2 L124.0,263.3" fill="none" stroke="#3f494e" stroke-width="0.9" stroke-linecap="round"/><path d="M304.8,76.6 L300.1,91.1 L293.9,104.9 L278.6,136.1 L255.9,168.8 L242.8,184.6 L229.1,198.7 L220.0,207.6 L211.0,216.5 L195.3,230.5 L177.7,244.2 L160.0,253.6 L148.8,258.2 L138.3,262.8 L115.6,270.6" fill="none" stroke="#ffffff" stroke-width="2.9" stroke-linecap="round" stroke-linejoin="round"/><path d="M213.1,306.1 L214.5,294.9 L217.0,281.3 L219.1,274.4 L225.8,251.6 L243.5,209.2 L259.2,173.0 L278.6,136.1" fill="none" stroke="#fbf8ef" stroke-width="6.9" stroke-linecap="round" stroke-linejoin="round"/><path d="M213.1,306.1 L214.5,294.9 L217.0,281.3 L219.1,274.4 L225.8,251.6 L243.5,209.2 L259.2,173.0 L278.6,136.1" fill="none" stroke="#465158" stroke-width="4.7" stroke-linecap="round" stroke-linejoin="round"><title>CSX Transportation</title></path><path d="M216.4,268.9 L224.3,271.2" fill="none" stroke="#3f494e" stroke-width="0.9" stroke-linecap="round"/><path d="M218.9,260.1 L226.9,262.5" fill="none" stroke="#3f494e" stroke-width="0.9" stroke-linecap="round"/><path d="M223.7,245.8 L231.3,249.0" fill="none" stroke="#3f494e" stroke-width="0.9" stroke-linecap="round"/><path d="M227.2,237.4 L234.8,240.6" fill="none" stroke="#3f494e" stroke-width="0.9" stroke-linecap="round"/><path d="M230.7,229.0 L238.3,232.2" fill="none" stroke="#3f494e" stroke-width="0.9" stroke-linecap="round"/><path d="M234.2,220.6 L241.9,223.8" fill="none" stroke="#3f494e" stroke-width="0.9" stroke-linecap="round"/><path d="M237.7,212.2 L245.4,215.4" fill="none" stroke="#3f494e" stroke-width="0.9" stroke-linecap="round"/><path d="M241.5,203.3 L249.1,206.6" fill="none" stroke="#3f494e" stroke-width="0.9" stroke-linecap="round"/><path d="M245.1,195.0 L252.7,198.3" fill="none" stroke="#3f494e" stroke-width="0.9" stroke-linecap="round"/><path d="M248.8,186.7 L256.4,190.0" fill="none" stroke="#3f494e" stroke-width="0.9" stroke-linecap="round"/><path d="M252.4,178.3 L260.0,181.6" fill="none" stroke="#3f494e" stroke-width="0.9" stroke-linecap="round"/><path d="M257.7,167.1 L265.0,170.9" fill="none" stroke="#3f494e" stroke-width="0.9" stroke-linecap="round"/><path d="M261.9,159.0 L269.3,162.8" fill="none" stroke="#3f494e" stroke-width="0.9" stroke-linecap="round"/><path d="M266.2,150.9 L273.5,154.8" fill="none" stroke="#3f494e" stroke-width="0.9" stroke-linecap="round"/><path d="M270.4,142.9 L277.7,146.7" fill="none" stroke="#3f494e" stroke-width="0.9" stroke-linecap="round"/><path d="M213.1,306.1 L214.5,294.9 L217.0,281.3 L219.1,274.4 L225.8,251.6 L243.5,209.2 L259.2,173.0 L278.6,136.1" fill="none" stroke="#ffffff" stroke-width="2.9" stroke-linecap="round" stroke-linejoin="round"/><path d="M305.4,-57.1 L296.0,-33.3 L283.8,-10.3 L270.4,11.3 L254.7,31.9 L235.8,51.6 L217.5,66.5 L201.3,77.5 L184.8,86.4" fill="none" stroke="#fbf8ef" stroke-width="6.9" stroke-linecap="round" stroke-linejoin="round"/><path d="M305.4,-57.1 L296.0,-33.3 L283.8,-10.3 L270.4,11.3 L254.7,31.9 L235.8,51.6 L217.5,66.5 L201.3,77.5 L184.8,86.4" fill="none" stroke="#465158" stroke-width="4.7" stroke-linecap="round" stroke-linejoin="round"><title>CSX Transportation</title></path><path d="M270.9,17.5 L264.3,12.5" fill="none" stroke="#3f494e" stroke-width="0.9" stroke-linecap="round"/><path d="M265.4,24.7 L258.8,19.7" fill="none" stroke="#3f494e" stroke-width="0.9" stroke-linecap="round"/><path d="M254.6,38.1 L248.6,32.3" fill="none" stroke="#3f494e" stroke-width="0.9" stroke-linecap="round"/><path d="M248.3,44.6 L242.3,38.9" fill="none" stroke="#3f494e" stroke-width="0.9" stroke-linecap="round"/><path d="M234.9,57.7 L229.7,51.3" fill="none" stroke="#3f494e" stroke-width="0.9" stroke-linecap="round"/><path d="M227.8,63.4 L222.6,57.0" fill="none" stroke="#3f494e" stroke-width="0.9" stroke-linecap="round"/><path d="M216.0,72.5 L211.4,65.6" fill="none" stroke="#3f494e" stroke-width="0.9" stroke-linecap="round"/><path d="M208.5,77.6 L203.8,70.8" fill="none" stroke="#3f494e" stroke-width="0.9" stroke-linecap="round"/><path d="M199.3,83.3 L195.3,76.0" fill="none" stroke="#3f494e" stroke-width="0.9" stroke-linecap="round"/><path d="M191.3,87.6 L187.3,80.3" fill="none" stroke="#3f494e" stroke-width="0.9" stroke-linecap="round"/><path d="M305.4,-57.1 L296.0,-33.3 L283.8,-10.3 L270.4,11.3 L254.7,31.9 L235.8,51.6 L217.5,66.5 L201.3,77.5 L184.8,86.4" fill="none" stroke="#ffffff" stroke-width="2.9" stroke-linecap="round" stroke-linejoin="round"/><text x="118.3" y="139.4" transform="rotate(-1.6 118.3 139.4)" text-anchor="middle" dominant-baseline="central" font-family="Arial, sans-serif" font-size="8.3" textLength="111.6" lengthAdjust="spacing" font-weight="650" paint-order="stroke" stroke="#fffaf0" stroke-width="2.05" stroke-linejoin="round" fill="#695f54">Southeast 10th Street</text><text x="93.6" y="236.7" text-anchor="middle" font-family="Arial, sans-serif" font-size="6.5" textLength="18.0" lengthAdjust="spacing" font-weight="500" paint-order="stroke" stroke="#f3f5ee" stroke-width="1.55" stroke-linejoin="round" fill="#6f777a">1001</text></svg>