<svg xmlns="http://www.w3.org/2000/svg" width="256" height="256" viewBox="0 0 256 256"><rect width="256" height="256" fill="#f1efe7"/><path d="M2837.2,2327.5 L2293.0,1925.8 L2249.5,1893.8 L2202.3,1883.5 L2169.0,1855.5 L2142.4,1852.4 L2056.4,1858.1 L2056.5,1850.0 L2051.7,1842.4 L2042.1,1836.5 L1855.3,1755.6 L1842.6,1749.8 L1831.5,1746.6 L1817.7,1745.5 L1803.8,1745.2 L1757.4,1745.2 L1745.1,1744.5 L1733.0,1742.1 L1720.2,1737.1 L1704.8,1733.0 L1693.6,1732.0 L1660.7,1730.6 L1649.7,1728.6 L1635.7,1724.1 L1622.0,1720.6 L1608.7,1717.5 L1598.3,1713.3 L1585.7,1705.5 L1574.5,1697.1 L1563.6,1688.9 L1554.7,1684.7 L1547.9,1683.3 L1541.8,1683.7 L1535.3,1685.5 L1527.7,1689.4 L1521.7,1696.0 L1513.6,1703.9 L1504.6,1712.2 L1494.4,1717.8 L1481.5,1722.0 L1470.8,1724.6 L1457.9,1726.6 L1436.3,1729.1 L1382.1,1731.7 L1336.1,1734.0 L1316.3,1741.1 L1275.7,1742.5 L1270.2,1734.0 L1264.1,1730.1 L1257.8,1728.9 L1214.0,1731.4 L1195.0,1738.2 L1171.7,1738.4 L1156.0,1736.1 L1143.1,1732.2 L1096.0,1735.0 L971.4,1744.7 L942.7,1745.5 L932.9,1745.3 L924.1,1743.1 L913.9,1738.0 L906.4,1732.0 L874.0,1732.1 L846.9,1731.7 L839.6,1736.2 L802.3,1737.1 L797.5,1745.0 L792.2,1745.2 L783.0,1743.0 L766.5,1741.0 L749.5,1741.9 L744.3,1743.5 L739.0,1742.6 L735.4,1739.1 L729.3,1735.6 L706.6,1735.7 L683.7,1736.9 L662.0,1749.7 L651.3,1754.8 L639.1,1757.5 L629.0,1758.2 L619.9,1756.8 L598.9,1747.8 L586.9,1744.0 L576.7,1742.5 L532.0,1743.1 L529.2,1737.7 L489.7,1738.6 L462.5,1743.6 L444.6,1745.7 L435.0,1747.8 L431.3,1745.3 L424.5,1744.4 L360.8,1738.6 L355.3,1741.6 L348.6,1743.0 L339.8,1743.1 L339.8,1739.9 L300.3,1732.5 L275.4,1727.7 L215.2,1707.5 L211.9,1712.0 L171.7,1699.6 L163.3,1696.8 L167.4,1682.8 L162.6,1681.3 L161.6,1679.8 L159.0,1679.0 L155.4,1678.5 L151.0,1676.3 L152.5,1675.0 L134.7,1660.5 L105.1,1633.7 L89.2,1619.7 L77.9,1607.4 L71.6,1599.1 L62.2,1586.3 L56.8,1576.4 L40.0,1555.3 L38.4,1554.1 L37.3,1554.0 L36.1,1554.2 L33.9,1554.3 L31.9,1553.3 L27.7,1550.6 L19.1,1546.1 L14.9,1542.5 L10.0,1538.2 L3.3,1534.6 L-7.2,1531.3 L-18.3,1529.3 L-27.8,1529.1 L-25.1,1503.9 L-22.9,1471.0 L-12.6,1472.0 L-2.3,1473.8 L11.2,1477.8 L21.1,1481.5 L30.0,1485.6 L38.6,1489.6 L46.7,1494.2 L53.3,1499.3 L62.1,1506.1 L71.3,1513.0 L73.4,1514.3 L75.3,1514.7 L100.5,1513.6 L100.8,1519.3 L99.3,1521.8 L80.4,1523.6 L85.2,1533.4 L88.5,1532.2 L91.5,1535.2 L93.4,1538.1 L95.0,1540.3 L98.9,1545.5 L100.4,1551.2 L106.5,1559.6 L120.9,1568.7 L138.8,1577.8 L160.2,1591.3 L170.0,1595.9 L190.6,1607.6 L200.3,1612.7 L218.0,1619.2 L252.8,1628.5 L273.2,1633.4 L291.8,1635.3 L301.7,1636.6 L303.9,1636.4 L304.8,1635.1 L305.1,1628.5 L328.2,1628.5 L328.7,1635.9 L377.1,1638.4 L424.3,1639.8 L456.4,1638.6 L467.0,1637.8 L474.7,1636.8 L481.0,1635.0 L486.8,1631.5 L489.7,1626.8 L488.6,1549.3 L508.1,1548.2 L509.8,1623.8 L510.9,1625.7 L514.8,1628.4 L519.3,1629.7 L622.7,1629.9 L622.2,1596.6 L630.3,1596.4 L633.7,1629.9 L697.5,1629.3 L697.5,1625.7 L703.8,1625.6 L704.0,1628.2 L1129.5,1620.1 L1160.3,1616.5 L1197.9,1615.4 L1233.5,1620.1 L1245.4,1619.1 L1254.1,1617.4 L1262.2,1614.5 L1272.7,1610.5 L1486.6,1606.7 L1486.5,1591.9 L1606.2,1589.8 L1606.3,1606.1 L1657.1,1607.9 L1661.0,1607.8 L1664.6,1607.5 L1669.3,1606.9 L1673.1,1605.9 L1676.8,1604.7 L1683.1,1601.7 L1686.0,1606.7 L1692.2,1602.8 L1697.9,1598.2 L1702.7,1593.2 L1706.9,1587.3 L1710.8,1580.0 L1703.5,1575.9 L1705.5,1569.8 L1706.8,1563.5 L1707.5,1557.5 L1707.6,1552.8 L1707.4,1548.4 L1706.7,1510.5 L1700.6,1504.9 L1705.8,1499.4 L1700.5,1494.8 L1706.5,1487.7 L1700.0,1482.0 L1705.2,1476.5 L1700.0,1471.5 L1706.1,1465.0 L1699.8,1458.6 L1712.9,1444.2 L1715.2,1444.1 L1709.5,1229.6 L1757.6,1228.5 L1759.9,1229.7 L1762.5,1231.7 L1764.4,1233.4 L1765.2,1235.4 L1765.9,1237.8 L1766.1,1240.2 L1770.2,1573.5 L1772.1,1584.3 L1774.8,1591.6 L1779.0,1600.6 L1783.9,1609.4 L1789.0,1616.4 L1793.1,1620.7 L1797.5,1624.1 L1802.6,1627.1 L1807.9,1629.1 L1815.1,1631.2 L1824.0,1632.9 L1834.8,1634.9 L1847.4,1637.2 L1859.4,1639.8 L1872.7,1642.2 L1885.3,1644.9 L1889.3,1645.7 L1894.2,1646.7 L1899.0,1647.3 L1903.2,1647.4 L1908.0,1647.4 L1911.7,1647.2 L1915.4,1646.5 L1918.6,1645.7 L1922.0,1644.7 L1924.9,1643.4 L1930.7,1640.6 L1935.8,1637.6 L1940.9,1633.9 L1946.8,1628.2 L1952.3,1622.0 L1955.3,1616.7 L1958.0,1610.2 L1959.4,1604.9 L1960.2,1599.2 L1960.7,1593.8 L1960.7,1588.8 L1953.4,1231.6 L1963.8,1220.9 L1967.6,1220.5 L1969.1,1219.1 L1990.8,1218.5 L1992.7,1215.3 L1996.0,1216.2 L2001.5,1221.3 L2005.3,1226.6 L2009.1,1233.2 L2016.3,1632.4 L2017.0,1639.4 L2018.3,1653.3 L2019.6,1656.1 L2018.6,1656.8 L2020.4,1660.7 L2022.7,1665.3 L2024.7,1668.2 L2027.1,1671.7 L2030.4,1675.5 L2034.3,1679.5 L2039.0,1683.5 L2043.2,1686.6 L2047.8,1689.1 L2052.2,1691.3 L2056.9,1692.8 L2057.5,1691.4 L2123.7,1715.4 L2132.0,1718.5 L2135.8,1719.9 L2141.7,1722.0 L2146.0,1723.0 L2149.7,1723.5 L2153.1,1723.5 L2157.9,1723.1 L2163.1,1722.6 L2167.7,1721.6 L2172.4,1720.3 L2175.9,1718.9 L2179.6,1717.2 L2182.6,1715.3 L2186.4,1712.5 L2191.2,1708.3 L2195.6,1704.0 L2200.4,1698.0 L2203.8,1692.4 L2206.6,1686.2 L2208.6,1679.3 L2209.8,1672.3 L2210.5,1659.8 L2210.2,1634.3 L2202.9,1228.2 L2202.9,1223.7 L2203.7,1220.5 L2205.1,1217.9 L2208.0,1215.5 L2211.3,1213.8 L2215.0,1213.2 L2245.1,1212.2 L2248.7,1212.8 L2251.9,1214.2 L2254.2,1216.4 L2256.8,1220.2 L2258.3,1225.6 L2259.2,1232.9 L2266.7,1753.8 L2267.1,1756.9 L2267.7,1760.0 L2268.6,1763.2 L2269.7,1766.7 L2270.9,1770.2 L2272.3,1773.4 L2273.5,1776.1 L2274.8,1778.5 L2276.7,1781.5 L2278.8,1784.1 L2280.7,1786.5 L2283.6,1789.6 L2286.4,1792.3 L2289.5,1794.8 L2292.8,1797.3 L2302.0,1803.1 L2302.9,1802.0 L2311.0,1806.5 L2320.6,1811.7 L2326.1,1814.7 L2332.2,1818.3 L2338.5,1822.0 L2345.0,1826.0 L2352.3,1830.5 L2359.5,1835.0 L2366.7,1839.3 L2372.7,1843.0 L2379.4,1847.3 L2386.5,1851.9 L2393.3,1856.4 L2399.6,1860.7 L2398.9,1861.6 L2407.7,1867.7 L2416.8,1873.8 L2419.6,1875.5 L2422.7,1877.2 L2427.1,1879.3 L2431.2,1880.8 L2435.6,1882.0 L2439.5,1883.0 L2444.1,1883.7 L2449.2,1884.3 L2453.6,1884.3 L2457.3,1884.0 L2460.5,1883.3 L2464.6,1882.2 L2468.7,1880.9 L2472.5,1879.6 L2476.0,1877.9 L2479.6,1876.0 L2483.1,1873.8 L2486.7,1871.0 L2489.9,1868.1 L2493.0,1865.0 L2495.9,1861.8 L2498.9,1857.4 L2501.4,1853.0 L2503.8,1848.1 L2505.2,1844.3 L2506.3,1840.3 L2507.1,1836.0 L2507.5,1831.7 L2507.2,1826.8 L2447.9,1259.1 L2452.0,1258.7 L2448.7,1230.3 L2445.7,1230.5 L2443.3,1217.4 L2444.1,1214.7 L2446.6,1210.7 L2451.7,1206.8 L2458.4,1206.0 L2485.3,1205.1 L2489.8,1206.0 L2492.9,1207.5 L2496.2,1210.1 L2498.5,1212.5 L2500.1,1215.0 L2565.1,1851.9 L2566.6,1857.4 L2569.4,1864.2 L2571.8,1868.6 L2574.4,1873.3 L2577.8,1877.9 L2580.6,1881.1 L2583.7,1884.3 L2587.1,1887.0 L2590.1,1889.1 L2594.3,1891.8 L2598.0,1893.7 L2602.9,1895.8 L2607.5,1897.2 L2612.7,1898.3 L2616.7,1898.9 L2620.2,1899.0 L2624.3,1899.1 L2765.5,1896.2 L2770.1,1895.6 L2774.5,1893.5 L2777.7,1890.6 L2779.9,1886.2 L2780.7,1882.2 L2780.5,1878.2 L2709.0,1196.1 L2646.0,1113.9 L2643.2,1116.2 L2588.4,1039.7 L2587.4,1023.5 L2585.7,1020.1 L2582.8,1017.0 L2579.1,1011.8 L2578.8,1004.2 L2572.3,1001.7 L2566.0,1001.6 L2557.5,1005.8 L2567.1,1023.8 L2555.0,1029.6 L2545.9,1021.2 L2538.1,1016.4 L2532.8,1014.6 L2519.8,1014.1 L2513.2,1000.7 L2554.7,983.7 L2552.7,980.3 L2543.9,968.5 L2542.5,969.2 L2233.6,564.7 L2228.9,498.0 L2231.4,497.4 L2219.5,375.1 L2214.9,363.8 L2209.9,351.1 L2206.1,341.3 L2201.5,328.8 L2186.5,286.7 L2180.4,289.4 L2171.5,255.3 L2173.0,255.0 L2141.9,170.7 L2138.5,23.3 L2142.1,23.3 L2142.6,10.4 L2144.4,-2.3 L2145.1,-7.0 L2143.8,-10.8 L2148.0,-30.9 L2186.3,-98.7 L2166.2,-110.9 L2181.1,-135.6 L2200.5,-124.2 L2202.2,-126.8 L2208.3,-123.7 L2214.9,-121.1 L2222.5,-118.7 L2228.2,-117.5 L2233.6,-117.3 L2240.0,-118.4 L2246.3,-120.5 L2252.5,-122.9 L2255.4,-126.0 L2256.5,-130.1 L2258.0,-135.0 L2258.3,-137.0 L2258.2,-139.5 L2256.8,-143.4 L2254.2,-147.1 L2251.2,-149.2 L2246.8,-153.4 L2243.0,-157.4 L2237.4,-161.0 L2235.1,-166.7 L2232.4,-172.4 L2228.1,-179.1 L2223.2,-184.9 L2214.2,-191.3 L2170.6,-213.9 L2144.8,-226.7 L2120.7,-239.7 L2097.8,-252.4 L2083.0,-262.0 L2077.3,-263.5 L2071.0,-261.6 L2067.5,-257.3 L2060.4,-239.6 L2016.3,-259.4 L2042.7,-301.1 L2048.5,-303.8 L2055.6,-305.2 L2063.9,-303.4 L2229.6,-206.5 L2238.6,-203.8 L2248.0,-201.5 L2261.3,-201.2 L2274.8,-203.6 L2283.4,-207.1 L2292.8,-214.7 L2298.3,-220.0 L2304.2,-228.3 L2304.1,-229.4 L2303.7,-230.4 L2302.8,-231.2 L2249.2,-264.3 L2247.9,-264.7 L2246.5,-264.8 L2245.1,-264.7 L2240.0,-262.5 L2238.1,-262.3 L2236.0,-262.5 L2232.9,-263.0 L2230.5,-263.7 L2227.1,-265.4 L2223.8,-267.3 L2150.1,-312.3 L2115.4,-336.7 L2112.1,-337.2 L2108.8,-337.1 L2104.9,-337.0 L2102.3,-337.4 L2100.1,-338.4 L2097.5,-340.4 L2094.6,-342.7 L2092.6,-345.5 L2091.4,-348.3 L2091.2,-350.4 L2091.5,-353.1 L2092.0,-355.4 L2103.8,-375.2 L2103.8,-376.1 L2102.9,-376.8 L2092.1,-384.4 L2090.0,-387.5 L2091.2,-389.4 L2094.7,-388.9 L2098.5,-387.8 L2120.7,-374.1 L2246.5,-293.8 L2249.1,-292.3 L2250.9,-290.4 L2252.1,-288.2 L2253.4,-283.6 L2254.3,-280.0 L2254.8,-276.9 L2311.6,-242.8 L2313.6,-241.9 L2316.0,-241.7 L2318.8,-242.1 L2320.8,-242.8 L2322.5,-243.6 L2383.6,-342.5 L2409.2,-380.1 L2433.1,-407.0 L2445.2,-400.3 L2453.0,-412.9 L2411.5,-437.7 L2420.3,-452.1 L2461.8,-427.1 L2471.1,-442.3 L2463.6,-450.7 L2471.2,-459.4 L2479.4,-450.0 L2481.4,-451.5 L2483.7,-453.1 L2486.9,-454.9 L2490.2,-456.5 L2494.3,-458.0 L2498.2,-459.1 L2502.4,-459.8 L2506.6,-460.1 L2510.6,-460.0 L2514.5,-459.4 L2518.2,-458.5 L2521.3,-457.6 L2524.0,-456.4 L2527.8,-454.6 L2531.3,-452.4 L2534.3,-450.3 L2537.3,-447.6 L2540.0,-445.0 L2543.0,-441.1 L2545.1,-437.6 L2547.2,-433.1 L2548.6,-428.6 L2549.8,-422.4 L2550.2,-417.0 L2550.1,-413.9 L2549.7,-410.7 L2548.6,-405.9 L2545.8,-399.3 L2544.0,-395.0 L2541.5,-389.9 L2551.9,-384.7 L2600.5,-442.7 L2512.0,-496.5 L2516.5,-506.1 L2519.7,-515.0 L2519.9,-518.8 L2525.0,-529.7 L2535.5,-539.4 L2548.5,-550.0 L2564.0,-559.9 L2593.1,-568.4 L2643.3,-573.4 L2663.1,-589.4 L2667.2,-590.1 L2670.5,-590.3 L2675.2,-588.5 L2679.5,-588.0 L2707.4,-571.1 L2780.8,-658.2 L2511.8,-829.2 L2495.1,-802.9 L2458.8,-825.9 L2510.3,-906.9 L2546.5,-884.5 L2530.4,-856.9 L2804.1,-684.4 L2838.6,-728.7 L2863.0,-757.7 L2895.2,-806.1 L2913.0,-830.5 L2911.2,-844.4 L2911.7,-844.8 L2908.5,-855.1 L2906.4,-861.5 L2904.4,-868.1 L2902.0,-873.8 L2897.4,-881.3 L2892.8,-888.6 L2890.8,-892.4 L2889.3,-896.2 L2888.2,-899.7 L2887.8,-902.8 L2887.3,-913.0 L2769.1,-1021.5 L2765.2,-1017.3 L2761.9,-1020.1 L2752.3,-1010.6 L2746.0,-1019.0 L2753.6,-1027.8 L2746.0,-1037.5 L2740.8,-1036.1 L2735.4,-1035.9 L2730.5,-1036.8 L2726.2,-1038.6 L2721.2,-1042.3 L2715.0,-1048.4 L2704.1,-1060.4 L2700.8,-1065.5 L2699.6,-1071.9 L2700.4,-1079.5 L2703.3,-1086.5 L2705.8,-1091.3 L2710.6,-1096.1 L2715.9,-1099.7 L2721.0,-1101.6 L2724.8,-1102.2 L2729.8,-1101.3 L2734.9,-1099.5 L2739.7,-1095.7 L2750.8,-1085.7 L2756.5,-1080.3 L2761.7,-1074.6 L2763.4,-1071.9 L2764.6,-1069.0 L2765.3,-1066.4 L2765.8,-1062.8 L2765.2,-1059.4 L2764.2,-1056.2 L2762.8,-1053.8 L2762.4,-1052.7 L2762.7,-1051.3 L2763.5,-1049.9 L2890.4,-931.0 L2894.8,-928.0 L2897.9,-926.7 L2902.3,-927.7 L2907.5,-928.1 L2914.1,-925.3 L2920.7,-921.2 L2933.6,-913.9 L2939.0,-911.3 L2943.9,-916.1 L2949.3,-921.3 L2952.9,-925.4 L2958.9,-933.2 L2962.3,-937.9 L2965.9,-943.7 L2968.2,-948.8 L2970.7,-954.2 L2973.0,-959.9 L2975.1,-965.7 L2976.3,-970.6 L2977.7,-976.8 L2978.3,-980.5 L2978.7,-983.5 L2979.4,-988.8 L2980.1,-994.0 L2980.4,-997.4 L2980.6,-1001.1 L2980.6,-1005.4 L2980.4,-1009.0 L2979.7,-1014.0 L2978.9,-1019.7 L2978.1,-1025.0 L2977.6,-1029.3 L2977.0,-1032.5 L2976.3,-1035.9 L2975.5,-1039.3 L2974.3,-1043.3 L2972.9,-1047.3 L2971.8,-1049.7 L2970.6,-1052.1 L2968.9,-1054.4 L2966.6,-1057.7 L2964.1,-1060.8 L2961.4,-1063.4 L2958.0,-1066.2 L2954.5,-1068.4 L2951.0,-1070.3 L2947.8,-1071.5 L2945.6,-1072.2 L2943.1,-1072.5 L2940.1,-1072.4 L2937.3,-1071.8 L2935.1,-1070.9 L2933.0,-1069.4 L2931.5,-1067.8 L2930.3,-1066.3 L2929.4,-1064.0 L2928.9,-1061.5 L2929.0,-1058.5 L2929.2,-1055.0 L2929.2,-1052.4 L2929.0,-1049.8 L2928.6,-1047.2 L2928.1,-1044.9 L2927.2,-1042.5 L2925.8,-1039.9 L2924.1,-1037.4 L2922.4,-1035.1 L2920.7,-1033.5 L2917.3,-1030.8 L2914.5,-1028.9 L2910.1,-1027.6 L2907.5,-1027.0 L2904.5,-1026.6 L2901.8,-1026.5 L2898.2,-1026.7 L2895.6,-1027.2 L2892.0,-1028.0 L2887.0,-1029.5 L2882.8,-1031.1 L2879.7,-1032.3 L2876.4,-1034.1 L2873.5,-1036.1 L2870.3,-1038.6 L2867.8,-1040.9 L2865.7,-1043.0 L2863.5,-1045.6 L2861.7,-1048.0 L2860.0,-1050.4 L2858.5,-1053.1 L2856.9,-1056.7 L2855.5,-1060.0 L2854.1,-1063.6 L2853.2,-1066.4 L2852.5,-1069.0 L2852.0,-1071.7 L2851.6,-1075.9 L2851.3,-1079.6 L2851.5,-1083.6 L2852.4,-1088.9 L2853.9,-1094.1 L2855.8,-1099.5 L2857.1,-1102.0 L2858.4,-1103.5 L2868.7,-1116.6 L2871.1,-1119.3 L2874.2,-1120.8 L2877.5,-1122.0 L2881.2,-1122.8 L2885.3,-1123.3 L2888.9,-1123.5 L2892.5,-1123.4 L2896.1,-1123.0 L2900.2,-1121.8 L2904.5,-1119.7 L2908.2,-1117.4 L2911.5,-1114.8 L2921.9,-1105.2 L2924.4,-1104.4 L2925.8,-1104.1 L2927.5,-1104.5 L2928.6,-1104.9 L2930.0,-1106.5 L2930.6,-1108.1 L2930.7,-1110.3 L2930.8,-1112.3 L2930.4,-1113.2 L2909.4,-1134.0 L2938.0,-1164.5 L2936.4,-1168.1 L2952.9,-1184.4 L2984.7,-1152.6 L2959.1,-1120.0 L2958.9,-1118.1 L2960.2,-1117.3 L2961.8,-1117.7 L2989.9,-1152.9 L2998.1,-1162.8 L2998.4,-1165.1 L2997.7,-1167.1 L2996.2,-1168.9 L2974.2,-1189.7 L2979.7,-1196.1 L2974.1,-1200.8 L2977.3,-1208.2 L3034.3,-1265.5 L3053.9,-1268.8 L3060.0,-1269.7 L3065.8,-1270.5 L3068.5,-1271.2 L3071.7,-1272.9 L3075.5,-1275.0 L3078.4,-1277.9 L3081.2,-1281.4 L3110.3,-1323.7 L3110.9,-1324.8 L3110.6,-1326.2 L3110.2,-1327.2 L3109.5,-1328.1 L3106.0,-1330.3 L3105.1,-1330.8 L3104.3,-1330.7 L3103.4,-1330.2 L3101.5,-1328.8 L3077.1,-1306.0 L3067.6,-1299.2 L3028.6,-1339.2 L3033.1,-1353.4 L3035.0,-1357.6 L3041.1,-1368.8 L3048.2,-1381.3 L3052.5,-1386.1 L3060.2,-1394.3 L3068.4,-1403.3 L3077.4,-1412.8 L3085.1,-1419.4 L3088.8,-1422.7 L3093.7,-1426.3 L3098.2,-1428.7 L3104.6,-1431.6 L3108.6,-1433.0 L3112.6,-1434.2 L3115.7,-1434.5 L3120.1,-1434.2 L3123.8,-1433.7 L3128.0,-1432.5 L3132.1,-1429.1 L3134.6,-1425.6 L3136.1,-1422.0 L3136.7,-1416.6 L3136.5,-1409.5 L3135.6,-1401.5 L3133.9,-1393.8 L3123.6,-1370.8 L3113.8,-1350.1 L3117.2,-1344.6 L3119.0,-1343.5 L3120.9,-1343.5 L3122.6,-1343.9 L3123.9,-1344.7 L3130.6,-1354.2 L3139.2,-1358.5 L3156.3,-1404.2 L3157.5,-1406.5 L3159.2,-1408.5 L3160.9,-1409.4 L3162.5,-1409.8 L3164.8,-1409.8 L3167.2,-1409.2 L3179.7,-1405.7 L3182.1,-1405.2 L3184.9,-1405.1 L3187.5,-1405.5 L3189.6,-1406.4 L3191.4,-1407.8 L3193.2,-1410.1 L3214.2,-1438.2 L3215.2,-1440.3 L3215.7,-1442.5 L3215.7,-1444.6 L3215.3,-1446.8 L3214.5,-1448.4 L3213.3,-1450.0 L3211.9,-1451.3 L3209.9,-1452.3 L3208.0,-1452.8 L3206.1,-1452.9 L3204.5,-1452.6 L3202.6,-1451.7 L3201.2,-1450.7 L3200.1,-1449.3 L3194.6,-1440.4 L3193.4,-1438.7 L3192.0,-1437.1 L3189.9,-1435.3 L3188.0,-1434.2 L3185.7,-1433.5 L3182.9,-1432.9 L3181.3,-1432.9 L3179.1,-1433.2 L3177.2,-1433.7 L3175.6,-1434.4 L3158.4,-1450.0 L3156.4,-1452.4 L3154.9,-1454.6 L3153.5,-1457.3 L3152.6,-1459.6 L3152.0,-1462.0 L3151.5,-1464.6 L3151.2,-1467.8 L3151.1,-1471.0 L3151.4,-1473.7 L3151.8,-1476.0 L3152.3,-1478.0 L3153.1,-1479.7 L3184.4,-1529.4 L3186.4,-1532.7 L3187.6,-1534.4 L3189.0,-1535.2 L3191.3,-1536.2 L3193.7,-1536.9 L3196.0,-1537.3 L3197.3,-1537.3 L3198.6,-1537.1 L3199.7,-1536.7 L3201.3,-1535.9 L3203.2,-1534.7 L3206.4,-1532.1 L3220.7,-1518.7 L3223.1,-1515.3 L3224.5,-1512.0 L3225.8,-1508.1 L3226.2,-1505.1 L3226.4,-1501.9 L3226.4,-1499.2 L3226.1,-1496.5 L3225.6,-1493.8 L3225.0,-1492.0 L3223.4,-1488.3 L3217.7,-1477.7 L3217.1,-1475.3 L3217.1,-1472.4 L3217.3,-1470.2 L3218.1,-1468.5 L3219.6,-1466.9 L3222.0,-1465.2 L3224.0,-1464.1 L3226.3,-1463.6 L3229.0,-1463.7 L3231.2,-1464.2 L3233.7,-1465.5 L3235.9,-1467.5 L3272.9,-1518.3 L3261.6,-1528.5 L3268.4,-1535.8 L3278.5,-1526.1 L3299.3,-1553.4 L3330.8,-1595.5 L3204.0,-1717.0 L3176.5,-1688.1 L3144.2,-1718.6 L3175.4,-1752.2 L3171.3,-1756.7 L3177.8,-1762.7 L3181.8,-1758.6 L3203.5,-1782.2 L3223.0,-1764.1 L3225.3,-1749.1 L3307.3,-1672.6 L3323.3,-1666.4 L3336.1,-1670.9 L3360.4,-1661.2 L3376.5,-1667.1 L3424.4,-1725.6 L3427.1,-1731.1 L3427.9,-1738.5 L3425.5,-1745.8 L3422.3,-1751.0 L3393.9,-1777.2 L3394.3,-1784.4 L3399.9,-1798.5 L3411.1,-1819.4 L3389.0,-1833.7 L3397.4,-1836.9 L3402.7,-1840.3 L3408.0,-1846.3 L3414.2,-1862.2 L3425.6,-1891.2 L3433.0,-1898.0 L3362.8,-1966.0 L3347.4,-1956.4 L3343.8,-1955.5 L3340.4,-1955.4 L3336.0,-1955.9 L3332.4,-1956.9 L3328.9,-1959.0 L3326.0,-1961.5 L3289.7,-1996.5 L3282.9,-2003.3 L3279.9,-2006.9 L3277.4,-2011.4 L3276.2,-2015.5 L3275.7,-2019.5 L3275.8,-2023.3 L3276.5,-2026.9 L3277.4,-2029.8 L3278.6,-2031.9 L3281.2,-2035.6 L3284.3,-2039.3 L3300.6,-2056.2 L3424.6,-1941.3 L3416.1,-1931.7 L3508.0,-1844.8 L3613.9,-1999.9 L3546.7,-2062.7 L3538.1,-2055.0 L3412.6,-2173.5 L3429.0,-2188.8 L3501.1,-2121.2 L3508.3,-2131.8 L3512.3,-2137.1 L3517.4,-2142.3 L3523.3,-2148.8 L3529.3,-2152.7 L3538.8,-2160.7 L3548.3,-2169.5 L3566.5,-2186.7 L3610.0,-2235.6 L3617.8,-2243.7 L3646.5,-2258.4 L3673.7,-2279.7 L3676.3,-2281.7 L3683.4,-2287.2 L3686.5,-2290.0 L3689.0,-2293.2 L3690.7,-2296.5 L3691.8,-2299.8 L3693.1,-2302.3 L3694.6,-2305.0 L3697.2,-2309.3 L3699.0,-2312.0 L3700.8,-2314.5 L3704.1,-2317.1 L3707.3,-2319.3 L3710.8,-2321.4 L3719.1,-2325.4 L3727.1,-2329.4 L3728.3,-2329.6 L3729.5,-2329.4 L3731.9,-2328.7 L3738.4,-2325.4 L3743.3,-2323.0 L3745.6,-2321.6 L3747.7,-2319.9 L3781.1,-2288.2 L3783.4,-2286.9 L3794.3,-2284.0 L3797.8,-2283.0 L3801.7,-2282.6 L3804.7,-2282.7 L3807.0,-2283.5 L3809.3,-2285.1 L3821.2,-2301.9 L3821.2,-2304.2 L3820.8,-2306.3 L3819.5,-2308.6 L3817.5,-2310.8 L3808.4,-2319.3 L3809.1,-2320.7 L3820.8,-2345.5 L3840.8,-2385.8 L3859.0,-2399.2 L3869.5,-2409.7 L3876.7,-2418.0 L3884.3,-2425.7 L3892.7,-2432.6 L3897.8,-2437.3 L3903.2,-2442.2 L3907.2,-2446.2 L3909.2,-2449.8 L3910.8,-2452.6 L3911.8,-2455.3 L3912.2,-2458.5 L3912.4,-2461.7 L3918.5,-2467.9 L3927.5,-2476.4 L3942.5,-2488.7 L3958.2,-2500.6 L3965.2,-2510.4 L3967.8,-2520.5 L3975.6,-2525.3 L3985.4,-2525.5 L3995.3,-2531.4 L4004.0,-2547.1 L4003.8,-2563.4 L4005.4,-2588.6 L4007.9,-2592.2 L4009.4,-2594.6 L4012.2,-2599.2 L4008.7,-2609.9 L4012.7,-2614.9 L4032.5,-2639.4 L4066.5,-2679.1 L4073.0,-2688.5 L4075.6,-2693.4 L4086.4,-2708.3 L4089.4,-2717.7 L4089.5,-2732.2 L4089.1,-2746.7 L4089.0,-2761.5 L4093.4,-2777.8 L4100.8,-2793.9 L4111.4,-2809.4 L4119.1,-2820.9 L4128.2,-2832.4 L4145.8,-2852.0 L4223.8,-2890.6 L4234.1,-2893.3 L4236.7,-2887.7 L4239.8,-2882.3 L4240.8,-2881.3 L4242.5,-2882.0 L4242.8,-2885.8 L4241.6,-2889.0 L4245.9,-2890.3 L4261.9,-2895.0 L4282.7,-2901.2 L4299.5,-2906.2 L4305.5,-2908.0 L4299.5,-2926.9 L4309.9,-2929.7 L4327.2,-2932.1 L4329.3,-2932.4 L4329.4,-2933.6 L4329.4,-2938.0 L4345.1,-2938.7 L4369.7,-2939.7 L4379.2,-2935.1 L4402.9,-2849.7 L4408.2,-2844.6 L4397.9,-2834.0 L4407.0,-2825.0 L4416.0,-2816.0 L4426.8,-2827.0 L4627.3,-2636.4 L4894.9,-2922.0 L4988.4,-2832.6 L4992.0,-2833.7 L4993.4,-2832.1 L4999.7,-2836.1 L5004.9,-2838.0 L5010.4,-2840.5 L5019.8,-2845.4 L5025.6,-2848.7 L5032.5,-2852.7 L5038.9,-2856.7 L5044.1,-2860.1 L5048.9,-2863.2 L5054.5,-2867.3 L5060.9,-2872.0 L5065.8,-2876.1 L5071.0,-2880.7 L5076.7,-2886.1 L5082.1,-2891.5 L5094.7,-2904.9 L5102.3,-2914.0 L5109.7,-2923.9 L5114.8,-2931.1 L5119.6,-2938.5 L5125.3,-2948.8 L5130.3,-2958.9 L5134.3,-2967.2 L5137.7,-2975.5 L5139.8,-2981.0 L5142.1,-2987.2 L5147.5,-2993.9 L4976.5,-3156.6 L4978.6,-3158.9 L4999.1,-3180.9 L5014.0,-3196.7 L5015.5,-3198.3 L5058.9,-3157.7 L5069.4,-3163.1 L5070.6,-3161.6 L5172.6,-3214.7 L5176.8,-3216.9 L5179.7,-3219.2 L5182.4,-3221.7 L5185.5,-3224.9 L5188.5,-3229.4 L5191.1,-3233.6 L5192.8,-3236.8 L5194.0,-3240.9 L5195.1,-3245.4 L5195.6,-3250.3 L5195.6,-3255.8 L5195.2,-3260.2 L5194.4,-3264.1 L5193.1,-3268.8 L5161.2,-3360.6 L5156.9,-3375.7 L5158.0,-3380.9 L5081.0,-3400.0 L5084.6,-3413.3 L5087.6,-3425.3 L5110.4,-3515.5 L5092.7,-3568.1 L5082.3,-3602.1 L5079.3,-3610.6 L5106.9,-3635.9 L5138.0,-3652.6 L5139.9,-3650.0 L5142.9,-3645.7 L5149.9,-3636.6 L5150.7,-3637.4 L5150.9,-3640.5 L5141.2,-3653.9 L5158.5,-3666.3 L5162.3,-3668.5 L5171.3,-3656.8 L5172.8,-3655.7 L5174.3,-3655.4 L5175.1,-3655.6 L5175.1,-3656.4 L5132.3,-3715.0 L5129.2,-3718.4 L5125.6,-3723.3 L5107.0,-3745.8 L5122.9,-3795.1 L5135.1,-3807.8 L5149.2,-3814.4 L5179.2,-3832.2 L5185.4,-3838.6 L5212.3,-3862.2 L5220.8,-3853.3 L5245.7,-3826.4 L5268.8,-3845.8 L5284.3,-3830.9 L5298.2,-3817.3 L5298.9,-3816.6 L5310.7,-3826.7 L5326.3,-3810.1 L5339.7,-3792.9 L5349.6,-3781.4 L5350.9,-3779.9 L5379.7,-3805.2 L5381.2,-3806.5 L5374.4,-3814.8 L5390.1,-3827.7 L5437.7,-3772.2 L5478.2,-3798.9 L5482.2,-3802.7 L5499.8,-3810.1 L5503.8,-3814.0 L5507.6,-3819.0 L5529.3,-3838.3 L5524.4,-3845.0 L5485.6,-3836.1 L5441.2,-3886.6 L5446.3,-3891.0 L5453.0,-3883.2 L5484.4,-3910.2 L5517.7,-3873.8 L5526.7,-3870.2 L5532.1,-3867.1 L5538.9,-3859.4 L5542.6,-3862.7 L5518.5,-3890.1 L5533.3,-3902.9 L5563.2,-3867.0 L5567.0,-3869.8 L5566.6,-3870.6 L5632.2,-3918.0 L5651.7,-3932.4 L5588.0,-4012.0 L5601.6,-4021.5 L5657.0,-3956.6 L5697.9,-3949.1 L5724.9,-3964.9 L5728.7,-3967.3 L5728.5,-3970.3 L5726.6,-3973.8 L5747.7,-3987.1 L5753.9,-3980.9 L5771.7,-3991.4 L5758.8,-4007.4 L5696.5,-4090.7 L5740.5,-4136.3 L5769.4,-4179.0 L5770.1,-4212.4 L5754.7,-4256.8 L5787.1,-4283.8 L5821.1,-4296.9 L5832.3,-4299.5 L5841.3,-4300.7 L5852.3,-4300.0 L5863.7,-4297.2 L5880.2,-4283.1 L5923.0,-4230.9 L5957.2,-4187.5 L5998.1,-4160.2 L6014.2,-4157.6 L6028.6,-4155.9 L6040.8,-4155.4 L6056.4,-4156.5 L6073.3,-4159.3 L6087.0,-4163.2 L6098.6,-4168.6 L6106.3,-4173.1 L6112.0,-4179.1 L6121.6,-4190.7 L6132.0,-4209.7 L6143.3,-4234.9 L6163.4,-4224.6 L6171.4,-4221.9 L6180.0,-4220.7 L6193.7,-4221.6 L6202.8,-4224.3 L6213.2,-4228.8 L6222.9,-4234.4 L6233.2,-4244.4 L6242.0,-4252.4 L6253.0,-4259.9 L6260.6,-4264.8 L6271.8,-4268.8 L6291.1,-4274.4 L6302.5,-4277.6 L6314.7,-4282.2 L6325.3,-4287.7 L6331.6,-4291.3 L6336.6,-4296.5 L6402.0,-4329.3 L6404.5,-4330.7 L6407.4,-4332.5 L6410.4,-4334.8 L6414.8,-4337.3 L6417.7,-4338.7 L6420.8,-4341.4 L6423.2,-4343.9 L6426.4,-4346.0 L6429.8,-4348.4 L6434.3,-4352.6 L6440.7,-4353.1 L6447.3,-4353.9 L6451.6,-4355.3 L6457.2,-4357.9 L6464.1,-4361.0 L6471.4,-4365.5 L6475.5,-4369.4 L6480.1,-4374.7 L6483.0,-4379.6 L6484.6,-4384.1 L6484.7,-4387.3 L6484.8,-4389.9 L6486.4,-4400.3 L6522.8,-4421.4 L6586.6,-4458.2 L6599.0,-4465.3 L6707.2,-4527.7 L6824.4,-4595.0 L6874.3,-4623.6 L6891.6,-4633.3 L7036.5,-4717.5 L7068.7,-4735.2 L7068.2,-4736.3 L7134.5,-4773.8 L7160.0,-4788.1 L7207.0,-4814.1 L7207.5,-4813.4 L7225.7,-4823.4 L7269.9,-4848.1 L7275.2,-4852.9 L7320.0,-4885.7 L7342.3,-4904.2 L7362.8,-4921.5 L7372.2,-4926.8 L7393.4,-4947.8 L7395.2,-4946.7 L7398.0,-4947.0 L7399.4,-4946.1 L7429.2,-4981.0 L7421.7,-4988.0 L7422.7,-4989.8 L7425.9,-4994.4 L7434.5,-5005.3 L7439.7,-5013.2 L7443.8,-5019.7 L7449.5,-5028.4 L7455.0,-5037.4 L7461.2,-5047.7 L7467.6,-5058.9 L7481.5,-5087.6 L7485.8,-5096.7 L7489.3,-5104.0 L7491.7,-5109.5 L7493.8,-5113.7 L7498.2,-5124.7 L7382.4,-5340.7 L7380.2,-5344.8 L7378.5,-5347.1 L7377.3,-5348.8 L7375.7,-5350.2 L7374.2,-5351.2 L7372.2,-5352.4 L7370.1,-5353.2 L7368.3,-5353.6 L7366.5,-5353.8 L7363.8,-5353.8 L7360.7,-5353.3 L7358.0,-5352.5 L7355.2,-5351.1 L7328.3,-5335.6 L7293.2,-5315.5 L7268.7,-5301.9 L7224.0,-5277.3 L7196.6,-5262.4 L7197.6,-5260.7 L7185.9,-5254.0 L7147.6,-5234.2 L7119.2,-5217.4 L7102.5,-5208.1 L7077.1,-5193.5 L7074.2,-5191.5 L7051.9,-5231.6 L7095.7,-5255.6 L7155.5,-5288.1 L7196.2,-5310.7 L7201.2,-5313.6 L7200.5,-5314.7 L7235.7,-5333.9 L7254.4,-5344.2 L7297.3,-5365.1 L7305.5,-5369.3 L7370.2,-5405.3 L7394.5,-5418.7 L7411.6,-5427.9 L7431.8,-5439.5 L7459.8,-5388.9 L7415.8,-5364.8 L7413.5,-5361.1 L7412.6,-5357.2 L7412.2,-5354.2 L7412.1,-5351.6 L7412.3,-5349.5 L7413.1,-5346.6 L7502.8,-5180.7 L7504.5,-5178.2 L7506.5,-5176.3 L7508.5,-5175.0 L7510.6,-5174.3 L7512.9,-5174.0 L7515.1,-5174.2 L7516.8,-5174.7 L7556.6,-5204.9 L7575.3,-5220.6 L7594.6,-5236.9 L7601.9,-5243.6 L7625.8,-5263.2 L7626.9,-5263.2 L7650.1,-5283.0 L7650.2,-5284.2 L7665.4,-5296.7 L7677.4,-5306.5 L7698.0,-5323.5 L7699.9,-5321.2 L7720.1,-5337.9 L7730.3,-5346.4 L7758.6,-5369.9 L7778.3,-5386.3 L7776.4,-5389.1 L7782.9,-5394.6 L7793.6,-5403.4 L7800.2,-5409.2 L7828.1,-5421.7 L7847.0,-5428.3 L7856.7,-5432.9 L7883.9,-5433.1 L7893.4,-5433.1 L7913.5,-5432.1 L7937.0,-5431.1 L7938.7,-5432.7 L7941.0,-5429.7 L7948.4,-5429.3 L8015.7,-5423.5 L8023.6,-5421.8 L8030.5,-5420.7 L8046.1,-5419.4 L8075.2,-5418.0 L8081.6,-5417.9 L8087.6,-5418.1 L8110.9,-5419.0 L8122.9,-5419.6 L8134.8,-5420.7 L8153.1,-5422.6 L8153.0,-5421.5 L8167.5,-5424.0 L8181.2,-5426.6 L8191.7,-5428.5 L8205.5,-5438.9 L8207.1,-5436.7 L8208.8,-5434.3 L8330.4,-5273.5 L8623.9,-5172.3 L9162.5,-5567.9 L9309.3,-5673.6 L9366.0,-5794.6 L9275.8,-5912.8 L9279.8,-5929.7 L9295.6,-5934.0 L9326.0,-5927.7 L9347.6,-5935.8 L9353.6,-5944.2 L9352.3,-5951.5 L9336.2,-5983.1 L9335.1,-5994.9 L9334.2,-6018.3 L9331.4,-6040.9 L9334.2,-6044.9 L9343.3,-6049.3 L9354.4,-6051.8 L9362.4,-6060.4 L9364.2,-6070.8 L9357.4,-6090.9 L9356.7,-6104.8 L9358.9,-6120.6 L9369.9,-6148.3 L9367.6,-6161.1 L9362.1,-6175.4 L9361.9,-6194.8 L9358.7,-6220.4 L9352.9,-6236.4 L9349.3,-6244.8 L9351.7,-6248.5 L9354.0,-6248.3 L9354.6,-6249.8 L9354.9,-6251.8 L9354.8,-6253.8 L9351.3,-6254.2 L9349.1,-6257.3 L9349.5,-6261.0 L9346.5,-6261.8 L9342.8,-6261.9 L9342.3,-6261.0 L9334.7,-6270.0 L9333.1,-6272.8 L9331.8,-6276.7 L9330.9,-6280.5 L9330.2,-6284.5 L9329.9,-6288.5 L9329.7,-6292.1 L9329.7,-6295.8 L9330.0,-6297.8 L9331.6,-6302.8 L9333.4,-6306.8 L9335.7,-6310.7 L9339.1,-6315.6 L9342.6,-6320.3 L9345.9,-6323.7 L9350.0,-6326.8 L9350.8,-6326.0 L9385.9,-6352.8 L9391.0,-6356.7 L9390.0,-6358.2 L9390.0,-6360.8 L9398.7,-6367.6 L9400.9,-6367.5 L9403.0,-6366.0 L9406.7,-6368.8 L9442.7,-6396.1 L9442.3,-6397.0 L9446.5,-6400.1 L9451.5,-6403.2 L9455.0,-6404.8 L9460.0,-6406.7 L9464.3,-6407.9 L9468.6,-6408.5 L9473.3,-6408.9 L9476.1,-6408.7 L9480.0,-6408.1 L9483.8,-6406.8 L9486.6,-6405.4 L9489.3,-6403.8 L9491.3,-6402.3 L9493.0,-6400.7 L9495.5,-6398.3 L9496.6,-6397.9 L9498.4,-6397.9 L9500.2,-6398.2 L9505.7,-6402.1 L9505.7,-6403.2 L9506.3,-6404.0 L9506.9,-6405.1 L9506.8,-6406.4 L9506.5,-6407.5 L9505.7,-6408.5 L9501.8,-6412.4 L9498.7,-6414.9 L9495.1,-6416.9 L9489.2,-6419.5 L9484.1,-6421.5 L9493.0,-6426.1 L9503.9,-6433.7 L9517.4,-6435.4 L9530.9,-6434.5 L9539.7,-6438.0 L9547.4,-6449.0 L9576.4,-6500.9 L9588.2,-6522.3 L9597.5,-6545.1 L9599.1,-6549.9 L9612.9,-6592.2 L9615.1,-6596.3 L9617.7,-6600.4 L9650.1,-6640.5 L9657.0,-6647.7 L9662.1,-6652.1 L9734.7,-6714.3 L9738.7,-6717.0 L9751.1,-6723.8 L9766.0,-6732.2 L9812.4,-6756.5 L9913.5,-6810.8 L9915.9,-6808.9 L9917.8,-6808.2 L9919.5,-6807.7 L9921.3,-6808.0 L9923.2,-6808.4 L9928.6,-6809.5 L9934.9,-6810.9 L9940.6,-6812.2 L9946.5,-6813.3 L9949.7,-6814.0 L9954.1,-6815.3 L9959.1,-6817.4 L9971.2,-6824.0 L9975.6,-6826.4 L9977.9,-6827.8 L9980.2,-6828.8 L9989.6,-6832.8 L9999.9,-6836.8 L10012.9,-6842.4 L10028.2,-6848.7 L10028.8,-6849.0 L10030.1,-6849.1 L10031.8,-6849.6 L10034.2,-6851.4 L10036.9,-6852.4 L10039.9,-6853.9 L10045.5,-6857.1 L10047.5,-6859.1 L10050.8,-6861.2 L10050.5,-6861.8 L10051.9,-6863.5 L10053.7,-6865.4 L10056.7,-6866.9 L10059.2,-6867.9 L10061.9,-6868.9 L10064.4,-6870.2 L10069.3,-6873.3 L10070.7,-6874.7 L10072.1,-6876.9 L10072.7,-6878.5 L10072.9,-6880.1 L10072.7,-6881.6 L10073.0,-6883.1 L10059.0,-6900.0 L10103.1,-6925.9 L10124.0,-6937.0 L10128.1,-6938.3 L10134.5,-6937.1 L10141.6,-6927.2 L10144.8,-6924.4 L10147.7,-6923.0 L10150.4,-6922.4 L10152.9,-6922.5 L10190.7,-6938.1 L10201.0,-6943.1 L10210.6,-6948.4 L10226.1,-6956.6 L10229.3,-6957.7 L10444.1,-7047.0 L10511.3,-7079.3 L10811.8,-7223.6 L17824.9,-7281.6 L17824.9,2754.0 L2837.2,2754.0 L2837.2,2327.5 Z" fill="#add7e1" stroke="none"><title>Biscayne Bay</title></path><path d="M187.9,177.4 L158.8,179.2 L157.8,164.5 L187.0,163.2 L187.9,177.4 Z" fill="#d6d2c9" stroke="#bab6ad" stroke-width="0.4"></path><path d="M153.6,250.8 L123.9,252.0 L123.3,236.0 L153.0,234.9 L153.6,250.8 Z" fill="#d6d2c9" stroke="#bab6ad" stroke-width="0.4"></path><path d="M82.7,88.3 L74.3,93.6 L65.3,88.8 L64.8,76.8 L64.3,66.4 L81.7,66.1 L82.7,88.3 Z" fill="#d6d2c9" stroke="#bab6ad" stroke-width="0.4"></path><path d="M290.7,-1.4 L291.1,20.0 L276.4,20.3 L276.7,31.9 L275.7,31.9 L275.9,39.2 L267.1,39.4 L266.9,32.1 L264.9,32.1 L264.7,23.3 L261.2,23.4 L261.2,21.2 L258.2,21.2 L258.1,15.0 L255.5,15.1 L255.3,4.8 L258.0,4.8 L257.9,-0.7 L290.7,-1.4 Z" fill="#d6d2c9" stroke="#bab6ad" stroke-width="0.4"></path><path d="M107.7,166.0 L109.6,202.5 L93.0,203.1 L92.7,198.1 L84.2,198.4 L82.8,167.3 L107.7,166.0 Z" fill="#d6d2c9" stroke="#bab6ad" stroke-width="0.4"></path><path d="M41.1,10.1 L42.7,18.8 L47.4,17.9 L48.8,25.9 L39.2,27.9 L43.1,47.2 L29.5,50.0 L27.1,36.8 L24.3,37.3 L19.9,14.0 L41.1,10.1 Z" fill="#d6d2c9" stroke="#bab6ad" stroke-width="0.4"></path><path d="M113.0,67.8 L114.6,95.9 L99.6,96.7 L99.0,80.8 L95.4,80.9 L94.9,68.5 L89.2,68.7 L88.7,57.0 L114.0,55.6 L114.6,67.7 L113.0,67.8 Z" fill="#d6d2c9" stroke="#bab6ad" stroke-width="0.4"></path><path d="M138.9,61.2 L139.1,67.5 L157.5,66.9 L158.2,87.6 L163.1,87.4 L163.6,103.8 L148.1,104.3 L147.7,92.3 L121.3,93.2 L120.3,61.8 L138.9,61.2 Z" fill="#d6d2c9" stroke="#bab6ad" stroke-width="0.4"></path><path d="M68.6,230.3 L69.0,239.8 L78.5,239.4 L78.8,247.5 L79.1,255.6 L49.9,256.6 L49.6,248.6 L49.3,240.5 L56.5,240.2 L56.2,230.7 L68.6,230.3 Z" fill="#d6d2c9" stroke="#bab6ad" stroke-width="0.4"></path><path d="M156.0,0.2 L156.7,35.0 L144.3,35.3 L144.1,24.0 L138.1,24.1 L138.3,34.6 L122.7,34.9 L122.1,10.0 L138.2,9.5 L138.2,6.4 L144.1,6.2 L143.9,0.5 L156.0,0.2 Z" fill="#d6d2c9" stroke="#bab6ad" stroke-width="0.4"></path><path d="M24.0,228.6 L24.2,236.3 L39.7,235.6 L40.6,258.4 L36.0,258.6 L31.4,258.8 L30.9,247.2 L24.4,247.5 L24.6,253.0 L24.4,253.0 L19.4,253.0 L14.1,253.1 L13.8,228.8 L24.0,228.6 Z" fill="#d6d2c9" stroke="#bab6ad" stroke-width="0.4"></path><path d="M148.8,163.0 L149.4,172.5 L152.6,172.3 L153.4,185.5 L150.4,185.8 L150.4,193.8 L139.2,194.1 L138.9,185.4 L131.9,185.6 L132.8,199.6 L121.4,200.3 L119.2,166.8 L129.1,166.1 L128.9,163.5 L133.0,163.2 L133.4,170.1 L137.3,169.8 L136.9,163.7 L148.8,163.0 Z" fill="#d6d2c9" stroke="#bab6ad" stroke-width="0.4"></path><path d="M42.2,95.5 L26.6,95.9 L26.0,74.1 L49.8,73.5 L50.2,92.1 L42.1,92.3 L42.2,95.5 Z" fill="#d6d2c9" stroke="#bab6ad" stroke-width="0.4"></path><path d="M82.4,28.2 L82.5,29.4 L114.6,28.0 L115.3,43.6 L80.2,45.1 L80.3,48.7 L63.6,49.4 L62.1,13.0 L78.0,13.0 L78.5,24.4 L82.4,28.2 Z" fill="#d6d2c9" stroke="#bab6ad" stroke-width="0.4"></path><path d="M59.4,168.9 L59.5,172.1 L75.0,171.6 L75.2,179.9 L75.5,188.1 L61.3,188.6 L61.5,195.0 L55.6,195.2 L49.7,195.4 L48.8,169.2 L54.1,169.0 L59.4,168.9 Z" fill="#d6d2c9" stroke="#bab6ad" stroke-width="0.4"></path><path d="M99.5,252.6 L88.5,253.2 L87.3,234.0 L114.3,232.3 L114.9,248.4 L99.2,249.0 L99.5,252.6 Z" fill="#d6d2c9" stroke="#bab6ad" stroke-width="0.4"></path><path d="M-14.4,68.5 L-13.9,78.1 L-9.7,77.9 L-9.8,74.7 L13.1,73.6 L14.0,92.9 L3.6,93.4 L3.5,90.9 L-22.6,91.9 L-23.7,68.9 L-14.4,68.5 Z" fill="#d6d2c9" stroke="#bab6ad" stroke-width="0.4"></path><path d="M-12.4,224.8 L-11.9,237.7 L3.3,237.1 L4.1,256.2 L-4.7,256.6 L-4.5,261.9 L-21.6,262.7 L-22.4,262.7 L-23.9,225.3 L-18.1,225.1 L-12.4,224.8 Z" fill="#d6d2c9" stroke="#bab6ad" stroke-width="0.4"></path><path d="M207.7,156.8 L207.8,166.9 L224.7,166.7 L225.0,194.1 L195.6,194.4 L195.3,183.8 L197.5,183.7 L197.1,168.5 L193.9,168.6 L193.6,156.7 L207.7,156.8 Z" fill="#d6d2c9" stroke="#bab6ad" stroke-width="0.4"></path><path d="M173.0,222.5 L173.1,226.5 L176.4,226.4 L176.5,231.1 L187.4,230.8 L187.7,238.8 L187.9,246.7 L173.2,247.4 L173.3,250.7 L162.0,251.0 L161.4,231.7 L163.8,231.6 L163.6,222.9 L168.3,222.7 L173.0,222.5 Z" fill="#d6d2c9" stroke="#bab6ad" stroke-width="0.4"></path><path d="M44.1,200.6 L10.4,202.5 L8.8,173.6 L21.3,172.9 L21.1,168.7 L42.3,167.5 L44.1,200.6 Z" fill="#d6d2c9" stroke="#bab6ad" stroke-width="0.4"></path><path d="M219.7,221.2 L219.8,230.8 L220.9,230.8 L220.9,234.9 L220.9,239.1 L217.8,239.1 L217.8,247.2 L209.3,247.2 L200.7,247.3 L200.0,221.7 L219.7,221.2 Z" fill="#d6d2c9" stroke="#bab6ad" stroke-width="0.4"></path><path d="M-5.6,1.9 L4.5,4.1 L9.3,3.6 L9.4,27.2 L4.4,27.3 L4.5,35.0 L1.5,35.0 L1.6,41.3 L-24.3,41.7 L-24.8,14.2 L-13.3,14.0 L-5.6,1.9 Z" fill="#d6d2c9" stroke="#bab6ad" stroke-width="0.4"></path><path d="M-7.4,171.2 L-7.2,173.7 L2.5,173.1 L3.6,191.6 L-8.7,192.3 L-8.0,202.5 L-23.5,203.7 L-25.4,172.4 L-7.4,171.2 Z" fill="#d6d2c9" stroke="#bab6ad" stroke-width="0.4"></path><path d="M165.0,57.3 L190.5,56.6 L191.6,94.7 L178.0,95.1 L177.8,87.8 L170.8,88.0 L170.7,83.1 L165.7,83.2 L165.0,57.3 Z" fill="#d6d2c9" stroke="#bab6ad" stroke-width="0.4"></path><path d="M196.0,54.7 L222.8,54.6 L222.9,85.4 L210.5,85.4 L210.6,94.7 L196.1,94.7 L196.0,54.7 Z" fill="#d6d2c9" stroke="#bab6ad" stroke-width="0.4"></path><path d="M194.4,-4.4 L208.7,-4.5 L208.7,6.2 L223.6,6.1 L223.8,33.1 L194.7,33.4 L194.4,-4.4 Z" fill="#d6d2c9" stroke="#bab6ad" stroke-width="0.4"></path><path d="M387.8,112.3 L240.7,118.6 L140.5,122.9 L99.3,125.0 L77.3,125.9 L39.3,127.4 L-23.7,129.9 L-55.0,130.8" fill="none" stroke="#cec8bb" stroke-width="4.8" stroke-linecap="round" stroke-linejoin="round"/><path d="M387.8,112.3 L240.7,118.6 L140.5,122.9 L99.3,125.0 L77.3,125.9 L39.3,127.4 L-23.7,129.9 L-55.0,130.8" fill="none" stroke="#ffffff" stroke-width="3.7" stroke-linecap="round" stroke-linejoin="round"><title>Hardie Avenue</title></path><path d="M230.9,-157.6 L235.6,-45.6 L236.1,-28.6 L236.8,-10.7 L240.6,103.9 L240.7,118.6 L241.7,141.3 L245.2,254.3 L246.0,277.2" fill="none" stroke="#cec8bb" stroke-width="4.8" stroke-linecap="round" stroke-linejoin="round"/><path d="M230.9,-157.6 L235.6,-45.6 L236.1,-28.6 L236.8,-10.7 L240.6,103.9 L240.7,118.6 L241.7,141.3 L245.2,254.3 L246.0,277.2" fill="none" stroke="#ffffff" stroke-width="3.7" stroke-linecap="round" stroke-linejoin="round"><title>Grove Street</title></path><text x="190.3" y="120.8" transform="rotate(-2.5 190.3 120.8)" text-anchor="middle" dominant-baseline="central" font-family="Arial, sans-serif" font-size="8.3" textLength="69.1" lengthAdjust="spacing" font-weight="650" paint-order="stroke" stroke="#fffaf0" stroke-width="2.05" stroke-linejoin="round" fill="#695f54">Hardie Avenue</text><text x="238.9" y="50.5" transform="rotate(88.1 238.9 50.5)" text-anchor="middle" dominant-baseline="central" font-family="Arial, sans-serif" font-size="8.3" textLength="63.7" lengthAdjust="spacing" font-weight="650" paint-order="stroke" stroke="#fffaf0" stroke-width="2.05" stroke-linejoin="round" fill="#695f54">Grove Street</text><text x="172.9" y="171.1" text-anchor="middle" font-family="Arial, sans-serif" font-size="6.5" textLength="18.0" lengthAdjust="spacing" font-weight="500" paint-order="stroke" stroke="#f3f5ee" stroke-width="1.55" stroke-linejoin="round" fill="#6f777a">4110</text><text x="138.5" y="243.4" text-anchor="middle" font-family="Arial, sans-serif" font-size="6.5" textLength="18.0" lengthAdjust="spacing" font-weight="500" paint-order="stroke" stroke="#f3f5ee" stroke-width="1.55" stroke-linejoin="round" fill="#6f777a">4121</text><text x="95.0" y="189.2" text-anchor="middle" font-family="Arial, sans-serif" font-size="6.5" textLength="18.0" lengthAdjust="spacing" font-weight="500" paint-order="stroke" stroke="#f3f5ee" stroke-width="1.55" stroke-linejoin="round" fill="#6f777a">4130</text><text x="36.3" y="28.6" text-anchor="middle" font-family="Arial, sans-serif" font-size="6.5" textLength="18.0" lengthAdjust="spacing" font-weight="500" paint-order="stroke" stroke="#f3f5ee" stroke-width="1.55" stroke-linejoin="round" fill="#6f777a">4150</text><text x="63.5" y="242.9" text-anchor="middle" font-family="Arial, sans-serif" font-size="6.5" textLength="18.0" lengthAdjust="spacing" font-weight="500" paint-order="stroke" stroke="#f3f5ee" stroke-width="1.55" stroke-linejoin="round" fill="#6f777a">4141</text><text x="140.6" y="18.4" text-anchor="middle" font-family="Arial, sans-serif" font-size="6.5" textLength="18.0" lengthAdjust="spacing" font-weight="500" paint-order="stroke" stroke="#f3f5ee" stroke-width="1.55" stroke-linejoin="round" fill="#6f777a">4130</text><text x="26.7" y="246.0" text-anchor="middle" font-family="Arial, sans-serif" font-size="6.5" textLength="18.0" lengthAdjust="spacing" font-weight="500" paint-order="stroke" stroke="#f3f5ee" stroke-width="1.55" stroke-linejoin="round" fill="#6f777a">4151</text><text x="138.2" y="177.8" text-anchor="middle" font-family="Arial, sans-serif" font-size="6.5" textLength="18.0" lengthAdjust="spacing" font-weight="500" paint-order="stroke" stroke="#f3f5ee" stroke-width="1.55" stroke-linejoin="round" fill="#6f777a">4120</text><text x="39.5" y="87.2" text-anchor="middle" font-family="Arial, sans-serif" font-size="6.5" textLength="18.0" lengthAdjust="spacing" font-weight="500" paint-order="stroke" stroke="#f3f5ee" stroke-width="1.55" stroke-linejoin="round" fill="#6f777a">4151</text><text x="83.8" y="32.3" text-anchor="middle" font-family="Arial, sans-serif" font-size="6.5" textLength="18.0" lengthAdjust="spacing" font-weight="500" paint-order="stroke" stroke="#f3f5ee" stroke-width="1.55" stroke-linejoin="round" fill="#6f777a">4140</text><text x="61.4" y="181.2" text-anchor="middle" font-family="Arial, sans-serif" font-size="6.5" textLength="18.0" lengthAdjust="spacing" font-weight="500" paint-order="stroke" stroke="#f3f5ee" stroke-width="1.55" stroke-linejoin="round" fill="#6f777a">4140</text><text x="100.6" y="244.9" text-anchor="middle" font-family="Arial, sans-serif" font-size="6.5" textLength="18.0" lengthAdjust="spacing" font-weight="500" paint-order="stroke" stroke="#f3f5ee" stroke-width="1.55" stroke-linejoin="round" fill="#6f777a">4131</text><text x="203.8" y="174.0" text-anchor="middle" font-family="Arial, sans-serif" font-size="6.5" textLength="18.0" lengthAdjust="spacing" font-weight="500" paint-order="stroke" stroke="#f3f5ee" stroke-width="1.55" stroke-linejoin="round" fill="#6f777a">4100</text><text x="173.4" y="234.3" text-anchor="middle" font-family="Arial, sans-serif" font-size="6.5" textLength="18.0" lengthAdjust="spacing" font-weight="500" paint-order="stroke" stroke="#f3f5ee" stroke-width="1.55" stroke-linejoin="round" fill="#6f777a">4111</text><text x="24.6" y="181.0" text-anchor="middle" font-family="Arial, sans-serif" font-size="6.5" textLength="18.0" lengthAdjust="spacing" font-weight="500" paint-order="stroke" stroke="#f3f5ee" stroke-width="1.55" stroke-linejoin="round" fill="#6f777a">4150</text><text x="214.8" y="235.9" text-anchor="middle" font-family="Arial, sans-serif" font-size="6.5" textLength="18.0" lengthAdjust="spacing" font-weight="500" paint-order="stroke" stroke="#f3f5ee" stroke-width="1.55" stroke-linejoin="round" fill="#6f777a">4220</text><text x="73.4" y="82.2" text-anchor="middle" font-family="Arial, sans-serif" font-size="6.5" textLength="18.0" lengthAdjust="spacing" font-weight="500" paint-order="stroke" stroke="#f3f5ee" stroke-width="1.55" stroke-linejoin="round" fill="#6f777a">4131</text><text x="145.9" y="62.3" text-anchor="middle" font-family="Arial, sans-serif" font-size="6.5" textLength="18.0" lengthAdjust="spacing" font-weight="500" paint-order="stroke" stroke="#f3f5ee" stroke-width="1.55" stroke-linejoin="round" fill="#6f777a">4121</text><text x="117.6" y="69.5" text-anchor="middle" font-family="Arial, sans-serif" font-size="6.5" textLength="18.0" lengthAdjust="spacing" font-weight="500" paint-order="stroke" stroke="#f3f5ee" stroke-width="1.55" stroke-linejoin="round" fill="#6f777a">4129</text><text x="176.2" y="17.4" text-anchor="middle" font-family="Arial, sans-serif" font-size="6.5" textLength="18.0" lengthAdjust="spacing" font-weight="500" paint-order="stroke" stroke="#f3f5ee" stroke-width="1.55" stroke-linejoin="round" fill="#6f777a">4110</text><text x="177.3" y="71.8" text-anchor="middle" font-family="Arial, sans-serif" font-size="6.5" textLength="18.0" lengthAdjust="spacing" font-weight="500" paint-order="stroke" stroke="#f3f5ee" stroke-width="1.55" stroke-linejoin="round" fill="#6f777a">4111</text><text x="193.8" y="34.1" text-anchor="middle" font-family="Arial, sans-serif" font-size="6.5" textLength="18.0" lengthAdjust="spacing" font-weight="500" paint-order="stroke" stroke="#f3f5ee" stroke-width="1.55" stroke-linejoin="round" fill="#6f777a">4200</text><text x="205.2" y="16.5" text-anchor="middle" font-family="Arial, sans-serif" font-size="6.5" textLength="18.0" lengthAdjust="spacing" font-weight="500" paint-order="stroke" stroke="#f3f5ee" stroke-width="1.55" stroke-linejoin="round" fill="#6f777a">4108</text><text x="208.3" y="70.5" text-anchor="middle" font-family="Arial, sans-serif" font-size="6.5" textLength="18.0" lengthAdjust="spacing" font-weight="500" paint-order="stroke" stroke="#f3f5ee" stroke-width="1.55" stroke-linejoin="round" fill="#6f777a">4180</text></svg>