<svg xmlns="http://www.w3.org/2000/svg" width="256" height="256" viewBox="0 0 256 256"><rect width="256" height="256" fill="#f1efe7"/><path d="M650.6,4747.7 L378.5,4546.9 L356.7,4530.9 L333.1,4525.8 L316.5,4511.7 L303.2,4510.2 L260.2,4513.1 L260.2,4509.0 L257.8,4505.2 L253.1,4502.3 L159.7,4461.8 L153.3,4458.9 L147.8,4457.3 L140.9,4456.7 L133.9,4456.6 L110.7,4456.6 L104.5,4456.2 L98.5,4455.1 L92.1,4452.6 L84.4,4450.5 L78.8,4450.0 L62.3,4449.3 L56.9,4448.3 L49.9,4446.1 L43.0,4444.3 L36.3,4442.7 L31.1,4440.7 L24.9,4436.8 L19.2,4432.6 L13.8,4428.5 L9.4,4426.3 L5.9,4425.7 L2.9,4425.8 L-0.3,4426.8 L-4.1,4428.7 L-7.1,4432.0 L-11.2,4436.0 L-15.7,4440.1 L-20.8,4442.9 L-27.2,4445.0 L-32.6,4446.3 L-39.1,4447.3 L-49.8,4448.6 L-76.9,4449.8 L-99.9,4451.0 L-109.9,4454.5 L-130.2,4455.2 L-132.9,4451.0 L-135.9,4449.1 L-139.1,4448.4 L-161.0,4449.7 L-170.5,4453.1 L-182.2,4453.2 L-190.0,4452.1 L-196.5,4450.1 L-220.0,4451.5 L-282.3,4456.3 L-296.7,4456.8 L-301.6,4456.7 L-305.9,4455.5 L-311.1,4453.0 L-314.8,4450.0 L-331.0,4450.1 L-344.6,4449.9 L-348.2,4452.1 L-366.9,4452.5 L-369.3,4456.5 L-371.9,4456.6 L-376.5,4455.5 L-384.8,4454.5 L-393.2,4454.9 L-395.9,4455.8 L-398.5,4455.3 L-400.3,4453.5 L-403.4,4451.8 L-414.7,4451.8 L-426.2,4452.5 L-437.0,4458.8 L-442.4,4461.4 L-448.4,4462.7 L-453.5,4463.1 L-458.1,4462.4 L-468.5,4457.9 L-474.5,4456.0 L-479.7,4455.3 L-502.0,4455.6 L-503.4,4452.9 L-523.1,4453.3 L-536.7,4455.8 L-545.7,4456.8 L-550.5,4457.9 L-552.3,4456.6 L-555.8,4456.2 L-587.6,4453.3 L-590.3,4454.8 L-593.7,4455.5 L-598.1,4455.5 L-598.1,4453.9 L-617.9,4450.3 L-630.3,4447.9 L-660.4,4437.7 L-662.1,4440.0 L-682.2,4433.8 L-686.4,4432.4 L-684.3,4425.4 L-686.7,4424.6 L-687.2,4423.9 L-688.5,4423.5 L-690.3,4423.2 L-692.5,4422.2 L-691.7,4421.5 L-700.6,4414.2 L-715.4,4400.8 L-723.4,4393.9 L-729.1,4387.7 L-732.2,4383.6 L-736.9,4377.1 L-739.6,4372.2 L-748.0,4361.6 L-748.8,4361.1 L-749.4,4361.0 L-749.9,4361.1 L-751.1,4361.1 L-752.1,4360.7 L-754.1,4359.3 L-758.4,4357.0 L-760.6,4355.3 L-763.0,4353.1 L-766.3,4351.3 L-771.6,4349.6 L-777.2,4348.7 L-781.9,4348.5 L-780.6,4336.0 L-779.4,4319.5 L-774.3,4320.0 L-769.1,4320.9 L-762.4,4322.9 L-757.4,4324.7 L-753.0,4326.8 L-748.7,4328.8 L-744.7,4331.1 L-741.3,4333.6 L-737.0,4337.1 L-732.4,4340.5 L-731.3,4341.1 L-730.4,4341.4 L-717.7,4340.8 L-717.6,4343.6 L-718.4,4344.9 L-727.8,4345.8 L-725.4,4350.7 L-723.8,4350.1 L-722.2,4351.6 L-721.3,4353.1 L-720.5,4354.1 L-718.5,4356.7 L-717.8,4359.6 L-714.7,4363.8 L-707.5,4368.4 L-698.6,4372.9 L-687.9,4379.6 L-683.0,4381.9 L-672.7,4387.8 L-667.9,4390.3 L-659.0,4393.6 L-641.6,4398.3 L-631.4,4400.7 L-622.1,4401.7 L-617.2,4402.3 L-616.1,4402.2 L-615.6,4401.6 L-615.4,4398.3 L-603.9,4398.2 L-603.7,4402.0 L-579.5,4403.2 L-555.8,4403.9 L-539.8,4403.3 L-534.5,4402.9 L-530.7,4402.4 L-527.5,4401.5 L-524.6,4399.8 L-523.2,4397.4 L-523.7,4358.7 L-514.0,4358.1 L-513.1,4395.9 L-512.6,4396.9 L-510.6,4398.2 L-508.4,4398.9 L-456.7,4398.9 L-456.9,4382.3 L-452.8,4382.2 L-451.2,4398.9 L-419.3,4398.7 L-419.2,4396.9 L-416.1,4396.8 L-416.0,4398.1 L-203.3,4394.1 L-187.8,4392.2 L-169.0,4391.7 L-151.2,4394.0 L-145.3,4393.5 L-140.9,4392.7 L-136.9,4391.2 L-131.6,4389.3 L-24.7,4387.3 L-24.7,4380.0 L35.1,4378.9 L35.2,4387.1 L60.6,4387.9 L62.5,4387.9 L64.3,4387.8 L66.7,4387.4 L68.6,4386.9 L70.4,4386.4 L73.5,4384.9 L75.0,4387.4 L78.1,4385.4 L80.9,4383.1 L83.4,4380.6 L85.5,4377.6 L87.4,4374.0 L83.8,4372.0 L84.8,4368.9 L85.4,4365.7 L85.7,4362.7 L85.8,4360.4 L85.7,4358.2 L85.4,4339.2 L82.3,4336.5 L84.9,4333.7 L82.3,4331.4 L85.3,4327.8 L82.0,4325.0 L84.6,4322.3 L82.0,4319.7 L85.0,4316.5 L81.9,4313.3 L88.5,4306.1 L89.6,4306.1 L86.7,4198.8 L110.8,4198.2 L111.9,4198.8 L113.3,4199.8 L114.2,4200.7 L114.6,4201.7 L115.0,4202.9 L115.0,4204.1 L117.1,4370.7 L118.0,4376.2 L119.4,4379.8 L121.5,4384.3 L123.9,4388.7 L126.5,4392.2 L128.5,4394.3 L130.8,4396.1 L133.3,4397.6 L135.9,4398.6 L139.5,4399.6 L144.0,4400.5 L149.4,4401.5 L155.7,4402.6 L161.7,4403.9 L168.4,4405.1 L174.7,4406.5 L176.7,4406.9 L179.1,4407.3 L181.5,4407.6 L183.6,4407.7 L186.0,4407.7 L187.9,4407.6 L189.7,4407.3 L191.3,4406.9 L193.0,4406.3 L194.5,4405.7 L197.3,4404.3 L199.9,4402.8 L202.4,4400.9 L205.4,4398.1 L208.2,4395.0 L209.7,4392.4 L211.0,4389.1 L211.7,4386.4 L212.1,4383.6 L212.4,4380.9 L212.4,4378.4 L208.7,4199.8 L213.9,4194.4 L215.8,4194.2 L216.5,4193.5 L227.4,4193.3 L228.4,4191.6 L230.0,4192.1 L232.7,4194.7 L234.6,4197.3 L236.5,4200.6 L240.1,4400.2 L240.5,4403.7 L241.1,4410.7 L241.8,4412.0 L241.3,4412.4 L242.2,4414.3 L243.4,4416.6 L244.3,4418.1 L245.6,4419.9 L247.2,4421.8 L249.1,4423.7 L251.5,4425.7 L253.6,4427.3 L255.9,4428.6 L258.1,4429.6 L260.5,4430.4 L260.8,4429.7 L293.9,4441.7 L298.0,4443.2 L299.9,4443.9 L302.9,4445.0 L305.0,4445.5 L306.8,4445.8 L308.6,4445.8 L310.9,4445.6 L313.6,4445.3 L315.8,4444.8 L318.2,4444.1 L320.0,4443.4 L321.8,4442.6 L323.3,4441.6 L325.2,4440.3 L327.6,4438.2 L329.8,4436.0 L332.2,4433.0 L333.9,4430.2 L335.3,4427.1 L336.3,4423.7 L336.9,4420.1 L337.2,4413.9 L337.1,4401.1 L333.4,4198.1 L333.4,4195.9 L333.9,4194.3 L334.6,4193.0 L336.0,4191.7 L337.6,4190.9 L339.5,4190.6 L354.6,4190.1 L356.3,4190.4 L358.0,4191.1 L359.1,4192.2 L360.4,4194.1 L361.2,4196.8 L361.6,4200.5 L365.4,4460.9 L365.6,4462.4 L365.9,4464.0 L366.3,4465.6 L366.8,4467.4 L367.4,4469.1 L368.1,4470.7 L368.8,4472.0 L369.4,4473.3 L370.4,4474.7 L371.4,4476.1 L372.4,4477.3 L373.8,4478.8 L375.2,4480.1 L376.7,4481.4 L378.4,4482.6 L383.0,4485.5 L383.5,4485.0 L387.5,4487.2 L392.3,4489.9 L395.1,4491.4 L398.1,4493.2 L401.3,4495.0 L404.5,4497.0 L408.1,4499.3 L411.8,4501.5 L415.4,4503.7 L418.3,4505.5 L421.7,4507.7 L425.2,4510.0 L428.6,4512.2 L431.8,4514.4 L431.5,4514.8 L435.9,4517.9 L440.4,4520.9 L441.8,4521.7 L443.4,4522.6 L445.5,4523.7 L447.6,4524.4 L449.8,4525.0 L451.8,4525.5 L454.0,4525.9 L456.6,4526.1 L458.8,4526.2 L460.6,4526.0 L462.3,4525.7 L464.3,4525.1 L466.4,4524.4 L468.3,4523.8 L470.0,4523.0 L471.8,4522.0 L473.6,4520.9 L475.3,4519.5 L476.9,4518.1 L478.5,4516.5 L479.9,4514.9 L481.5,4512.7 L482.7,4510.5 L483.9,4508.1 L484.6,4506.2 L485.2,4504.2 L485.5,4502.0 L485.7,4499.9 L485.6,4497.4 L455.9,4213.5 L458.0,4213.4 L456.4,4199.1 L454.8,4199.2 L453.6,4192.7 L454.0,4191.3 L455.3,4189.4 L457.9,4187.4 L461.2,4187.0 L474.7,4186.6 L476.9,4187.0 L478.5,4187.7 L480.1,4189.0 L481.3,4190.2 L482.0,4191.5 L514.5,4509.9 L515.3,4512.7 L516.7,4516.1 L517.9,4518.3 L519.2,4520.6 L520.9,4522.9 L522.3,4524.5 L523.8,4526.1 L525.5,4527.5 L527.0,4528.6 L529.2,4529.9 L531.0,4530.9 L533.5,4531.9 L535.8,4532.6 L538.3,4533.2 L540.4,4533.4 L542.1,4533.5 L544.1,4533.5 L614.8,4532.1 L617.1,4531.8 L619.3,4530.7 L620.8,4529.3 L622.0,4527.1 L622.3,4525.1 L622.3,4523.1 L586.5,4182.1 L555.0,4141.0 L553.6,4142.1 L526.2,4103.8 L525.7,4095.8 L524.9,4094.1 L523.4,4092.5 L521.6,4089.9 L521.4,4086.1 L518.1,4084.9 L515.0,4084.8 L510.8,4086.9 L515.6,4095.9 L509.5,4098.8 L504.9,4094.6 L501.1,4092.2 L498.4,4091.3 L491.9,4091.1 L488.6,4084.3 L509.3,4075.8 L508.4,4074.2 L504.0,4068.2 L503.3,4068.6 L348.8,3866.4 L346.5,3833.0 L347.7,3832.7 L341.7,3771.5 L339.4,3765.9 L337.0,3759.5 L335.0,3754.6 L332.8,3748.4 L325.2,3727.3 L322.2,3728.7 L317.8,3711.7 L318.5,3711.5 L303.0,3669.4 L301.3,3595.7 L303.1,3595.7 L303.3,3589.2 L304.2,3582.9 L304.5,3580.5 L303.9,3578.6 L306.0,3568.5 L325.2,3534.7 L315.1,3528.5 L322.5,3516.2 L332.3,3521.9 L333.1,3520.6 L336.2,3522.1 L339.5,3523.5 L343.2,3524.7 L346.1,3525.3 L348.8,3525.3 L352.0,3524.8 L355.2,3523.7 L358.3,3522.5 L359.7,3521.0 L360.3,3519.0 L361.0,3516.5 L361.2,3515.5 L361.1,3514.2 L360.4,3512.3 L359.1,3510.5 L357.6,3509.4 L355.4,3507.3 L353.5,3505.3 L350.7,3503.5 L349.5,3500.7 L348.2,3497.8 L346.1,3494.5 L343.6,3491.5 L339.1,3488.3 L317.3,3477.0 L304.4,3470.7 L292.4,3464.1 L280.9,3457.8 L273.5,3453.0 L270.7,3452.2 L267.5,3453.2 L265.8,3455.4 L262.2,3464.2 L240.1,3454.3 L253.4,3433.5 L256.2,3432.1 L259.8,3431.4 L263.9,3432.3 L346.8,3480.8 L351.3,3482.1 L356.0,3483.2 L362.7,3483.4 L369.4,3482.2 L373.7,3480.5 L378.4,3476.7 L381.1,3474.0 L384.1,3469.9 L384.1,3469.3 L383.9,3468.8 L383.4,3468.4 L356.6,3451.8 L355.9,3451.6 L355.3,3451.6 L354.5,3451.6 L352.0,3452.7 L351.1,3452.8 L350.0,3452.7 L348.4,3452.5 L347.3,3452.1 L345.6,3451.3 L343.9,3450.3 L307.0,3427.9 L289.7,3415.6 L288.0,3415.4 L286.4,3415.5 L284.5,3415.5 L283.1,3415.3 L282.1,3414.8 L280.7,3413.8 L279.3,3412.6 L278.3,3411.3 L277.7,3409.8 L277.6,3408.8 L277.7,3407.5 L278.0,3406.3 L283.9,3396.4 L283.9,3395.9 L283.5,3395.6 L278.1,3391.8 L277.0,3390.2 L277.6,3389.3 L279.4,3389.5 L281.3,3390.1 L292.4,3397.0 L355.3,3437.1 L356.5,3437.8 L357.4,3438.8 L358.0,3439.9 L358.7,3442.2 L359.2,3444.0 L359.4,3445.5 L387.8,3462.6 L388.8,3463.0 L390.0,3463.2 L391.4,3462.9 L392.4,3462.6 L393.3,3462.2 L423.8,3412.7 L436.6,3394.0 L448.6,3380.5 L454.6,3383.8 L458.5,3377.6 L437.8,3365.2 L442.2,3357.9 L462.9,3370.4 L467.6,3362.8 L463.8,3358.6 L467.6,3354.3 L471.7,3359.0 L472.7,3358.2 L473.8,3357.5 L475.4,3356.5 L477.1,3355.7 L479.1,3355.0 L481.1,3354.5 L483.2,3354.1 L485.3,3354.0 L487.3,3354.0 L489.2,3354.3 L491.1,3354.7 L492.7,3355.2 L494.0,3355.8 L495.9,3356.7 L497.7,3357.8 L499.1,3358.9 L500.6,3360.2 L502.0,3361.5 L503.5,3363.5 L504.5,3365.2 L505.6,3367.4 L506.3,3369.7 L506.9,3372.8 L507.1,3375.5 L507.0,3377.1 L506.8,3378.6 L506.3,3381.1 L504.9,3384.3 L504.0,3386.5 L502.8,3389.0 L507.9,3391.6 L532.2,3362.6 L488.0,3335.7 L490.3,3331.0 L491.8,3326.5 L491.9,3324.6 L494.5,3319.1 L499.7,3314.3 L506.3,3309.0 L514.0,3304.0 L528.5,3299.8 L553.7,3297.3 L563.5,3289.3 L565.6,3288.9 L567.2,3288.9 L569.6,3289.8 L571.8,3290.0 L585.7,3298.4 L622.4,3254.9 L487.9,3169.4 L479.6,3182.5 L461.4,3171.1 L487.2,3130.6 L505.3,3141.7 L497.2,3155.5 L634.1,3241.8 L651.3,3219.7 L663.5,3205.2 L679.6,3181.0 L688.5,3168.7 L687.6,3161.8 L687.8,3161.6 L686.3,3156.4 L685.2,3153.3 L684.2,3150.0 L683.0,3147.1 L680.7,3143.3 L678.4,3139.7 L677.4,3137.8 L676.6,3135.9 L676.1,3134.1 L675.9,3132.6 L675.6,3127.5 L616.6,3073.3 L614.6,3075.4 L613.0,3074.0 L608.2,3078.7 L605.0,3074.5 L608.8,3070.1 L605.0,3065.3 L602.4,3065.9 L599.7,3066.0 L597.2,3065.6 L595.1,3064.7 L592.6,3062.9 L589.5,3059.8 L584.1,3053.8 L582.4,3051.2 L581.8,3048.0 L582.2,3044.3 L583.6,3040.7 L584.9,3038.3 L587.3,3036.0 L589.9,3034.2 L592.5,3033.2 L594.4,3032.9 L596.9,3033.3 L599.4,3034.3 L601.8,3036.1 L607.4,3041.2 L610.2,3043.9 L612.9,3046.7 L613.7,3048.1 L614.3,3049.5 L614.6,3050.8 L614.9,3052.6 L614.6,3054.3 L614.1,3055.9 L613.4,3057.1 L613.2,3057.6 L613.3,3058.3 L613.8,3059.1 L677.2,3118.5 L679.4,3120.0 L680.9,3120.7 L683.2,3120.2 L685.7,3119.9 L689.0,3121.4 L692.4,3123.4 L698.8,3127.1 L701.5,3128.3 L703.9,3125.9 L706.6,3123.4 L708.5,3121.3 L711.5,3117.4 L713.2,3115.1 L714.9,3112.1 L716.1,3109.6 L717.4,3106.9 L718.5,3104.0 L719.5,3101.2 L720.2,3098.7 L720.9,3095.6 L721.1,3093.8 L721.4,3092.3 L721.7,3089.6 L722.0,3087.0 L722.2,3085.3 L722.3,3083.4 L722.3,3081.3 L722.2,3079.5 L721.8,3077.0 L721.5,3074.1 L721.1,3071.5 L720.8,3069.4 L720.5,3067.7 L720.1,3066.1 L719.7,3064.3 L719.1,3062.4 L718.4,3060.4 L717.9,3059.1 L717.3,3057.9 L716.5,3056.8 L715.3,3055.1 L714.1,3053.6 L712.7,3052.3 L711.0,3050.9 L709.3,3049.8 L707.5,3048.9 L705.9,3048.2 L704.8,3047.9 L703.5,3047.7 L702.1,3047.8 L700.7,3048.1 L699.6,3048.5 L698.5,3049.3 L697.7,3050.1 L697.1,3050.9 L696.7,3052.0 L696.4,3053.3 L696.5,3054.7 L696.6,3056.5 L696.6,3057.8 L696.5,3059.1 L696.3,3060.4 L696.0,3061.5 L695.6,3062.8 L694.9,3064.1 L694.1,3065.3 L693.2,3066.4 L692.3,3067.3 L690.7,3068.6 L689.2,3069.5 L687.1,3070.2 L685.8,3070.5 L684.3,3070.7 L682.9,3070.7 L681.1,3070.7 L679.8,3070.4 L678.0,3070.0 L675.5,3069.3 L673.4,3068.5 L671.8,3067.8 L670.2,3066.9 L668.8,3065.9 L667.1,3064.7 L665.9,3063.6 L664.8,3062.5 L663.7,3061.2 L662.8,3060.0 L662.0,3058.8 L661.3,3057.5 L660.4,3055.7 L659.8,3054.0 L659.1,3052.2 L658.6,3050.8 L658.3,3049.5 L658.0,3048.2 L657.8,3046.1 L657.7,3044.2 L657.8,3042.2 L658.2,3039.5 L658.9,3036.9 L659.9,3034.2 L660.6,3033.0 L661.2,3032.2 L666.4,3025.7 L667.5,3024.3 L669.1,3023.6 L670.7,3023.0 L672.6,3022.6 L674.7,3022.3 L676.5,3022.2 L678.2,3022.3 L680.0,3022.5 L682.1,3023.1 L684.2,3024.2 L686.1,3025.3 L687.8,3026.6 L693.0,3031.4 L694.2,3031.8 L694.9,3031.9 L695.8,3031.8 L696.3,3031.6 L697.0,3030.8 L697.3,3030.0 L697.4,3028.8 L697.4,3027.9 L697.2,3027.4 L686.7,3017.0 L701.0,3001.8 L700.2,2999.9 L708.4,2991.8 L724.4,3007.7 L711.5,3024.0 L711.5,3025.0 L712.1,3025.3 L712.9,3025.2 L726.9,3007.6 L731.1,3002.6 L731.2,3001.5 L730.8,3000.4 L730.1,2999.6 L719.1,2989.2 L721.8,2986.0 L719.1,2983.6 L720.6,2979.9 L749.2,2951.3 L758.9,2949.6 L762.0,2949.2 L764.9,2948.7 L766.3,2948.4 L767.9,2947.6 L769.7,2946.5 L771.2,2945.0 L772.6,2943.3 L787.2,2922.2 L787.5,2921.6 L787.3,2920.9 L787.1,2920.4 L786.7,2919.9 L785.0,2918.9 L784.6,2918.6 L784.1,2918.6 L783.7,2918.9 L782.8,2919.6 L770.5,2931.0 L765.8,2934.4 L746.3,2914.4 L748.6,2907.3 L749.5,2905.2 L752.5,2899.6 L756.1,2893.4 L758.3,2891.0 L762.1,2886.9 L766.2,2882.3 L770.7,2877.6 L774.6,2874.3 L776.4,2872.6 L778.8,2870.9 L781.1,2869.6 L784.3,2868.2 L786.3,2867.5 L788.3,2866.9 L789.8,2866.8 L792.0,2866.9 L793.9,2867.2 L796.0,2867.7 L798.1,2869.4 L799.3,2871.2 L800.1,2873.0 L800.4,2875.7 L800.2,2879.3 L799.8,2883.2 L798.9,2887.1 L793.8,2898.6 L788.9,2908.9 L790.6,2911.7 L791.5,2912.2 L792.5,2912.2 L793.3,2912.1 L794.0,2911.6 L797.3,2906.9 L801.6,2904.7 L810.2,2881.9 L810.7,2880.8 L811.6,2879.8 L812.5,2879.3 L813.2,2879.1 L814.4,2879.1 L815.6,2879.4 L821.8,2881.2 L823.1,2881.4 L824.4,2881.4 L825.7,2881.2 L826.8,2880.8 L827.7,2880.1 L828.6,2878.9 L839.1,2864.9 L839.6,2863.9 L839.8,2862.8 L839.8,2861.7 L839.6,2860.6 L839.3,2859.8 L838.6,2859.0 L837.9,2858.4 L836.9,2857.9 L836.0,2857.6 L835.0,2857.6 L834.2,2857.7 L833.3,2858.1 L832.6,2858.7 L832.0,2859.4 L829.3,2863.8 L828.7,2864.7 L828.0,2865.5 L826.9,2866.4 L826.0,2866.9 L824.8,2867.3 L823.4,2867.5 L822.6,2867.5 L821.6,2867.4 L820.6,2867.2 L819.8,2866.8 L811.2,2859.0 L810.2,2857.8 L809.5,2856.7 L808.8,2855.3 L808.3,2854.2 L808.0,2853.0 L807.8,2851.7 L807.6,2850.1 L807.6,2848.5 L807.7,2847.1 L807.9,2846.0 L808.2,2845.0 L808.5,2844.2 L824.2,2819.3 L825.2,2817.7 L825.8,2816.8 L826.5,2816.4 L827.6,2815.9 L828.8,2815.5 L830.0,2815.4 L830.7,2815.4 L831.3,2815.5 L831.9,2815.7 L832.7,2816.0 L833.6,2816.6 L835.2,2818.0 L842.3,2824.6 L843.5,2826.3 L844.3,2828.0 L844.9,2829.9 L845.1,2831.4 L845.2,2833.0 L845.2,2834.4 L845.1,2835.7 L844.8,2837.1 L844.5,2838.0 L843.7,2839.9 L840.9,2845.1 L840.5,2846.3 L840.5,2847.8 L840.6,2848.9 L841.1,2849.7 L841.8,2850.5 L843.0,2851.4 L844.0,2851.9 L845.1,2852.2 L846.5,2852.2 L847.6,2851.9 L848.9,2851.3 L850.0,2850.3 L868.5,2824.9 L862.8,2819.8 L866.2,2816.1 L871.3,2820.9 L881.6,2807.3 L897.4,2786.3 L834.0,2725.5 L820.2,2740.0 L804.1,2724.7 L819.7,2707.9 L817.6,2705.7 L820.9,2702.7 L822.9,2704.7 L833.8,2692.9 L843.5,2701.9 L844.6,2709.4 L885.7,2747.7 L893.7,2750.8 L900.0,2748.6 L912.2,2753.4 L920.2,2750.4 L944.2,2721.2 L945.5,2718.4 L945.9,2714.7 L944.8,2711.1 L943.1,2708.5 L929.0,2695.4 L929.1,2691.8 L931.9,2684.7 L937.6,2674.3 L926.5,2667.1 L930.7,2665.6 L933.4,2663.8 L936.0,2660.8 L939.1,2652.9 L944.8,2638.4 L948.5,2635.0 L913.4,2601.0 L905.7,2605.8 L903.9,2606.3 L902.2,2606.3 L900.0,2606.0 L898.2,2605.5 L896.4,2604.5 L895.0,2603.2 L876.8,2585.7 L873.4,2582.4 L872.0,2580.6 L870.7,2578.3 L870.1,2576.2 L869.9,2574.2 L869.9,2572.4 L870.3,2570.5 L870.7,2569.1 L871.3,2568.0 L872.6,2566.2 L874.1,2564.4 L882.3,2555.9 L944.3,2613.3 L940.0,2618.1 L986.0,2661.6 L1039.0,2584.1 L1005.3,2552.6 L1001.0,2556.5 L938.3,2497.3 L946.5,2489.6 L982.6,2523.4 L986.2,2518.1 L988.1,2515.5 L990.7,2512.8 L993.6,2509.6 L996.6,2507.7 L1001.4,2503.7 L1006.1,2499.3 L1015.3,2490.7 L1037.0,2466.2 L1040.9,2462.1 L1055.3,2454.8 L1068.9,2444.2 L1070.2,2443.1 L1073.7,2440.4 L1075.2,2439.0 L1076.5,2437.4 L1077.3,2435.8 L1077.9,2434.1 L1078.6,2432.9 L1079.3,2431.5 L1080.6,2429.3 L1081.5,2428.0 L1082.4,2426.8 L1084.0,2425.4 L1085.6,2424.4 L1087.4,2423.3 L1091.5,2421.3 L1095.6,2419.3 L1096.1,2419.2 L1096.8,2419.3 L1098.0,2419.7 L1101.2,2421.3 L1103.7,2422.5 L1104.8,2423.2 L1105.8,2424.0 L1122.6,2439.9 L1123.7,2440.6 L1129.1,2442.0 L1130.9,2442.5 L1132.9,2442.7 L1134.3,2442.6 L1135.5,2442.2 L1136.7,2441.5 L1142.6,2433.1 L1142.6,2431.9 L1142.4,2430.8 L1141.7,2429.7 L1140.8,2428.6 L1136.2,2424.4 L1136.5,2423.7 L1142.4,2411.3 L1152.4,2391.1 L1161.5,2384.4 L1166.7,2379.1 L1170.4,2375.0 L1174.1,2371.1 L1178.4,2367.7 L1180.9,2365.4 L1183.6,2362.9 L1185.6,2360.9 L1186.6,2359.1 L1187.4,2357.7 L1187.9,2356.3 L1188.1,2354.7 L1188.2,2353.2 L1191.3,2350.1 L1195.7,2345.8 L1203.3,2339.7 L1211.1,2333.7 L1214.6,2328.8 L1215.9,2323.7 L1219.8,2321.4 L1224.7,2321.3 L1229.7,2318.3 L1234.0,2310.5 L1233.9,2302.3 L1234.7,2289.7 L1236.0,2287.9 L1236.7,2286.7 L1238.1,2284.4 L1236.3,2279.1 L1238.3,2276.6 L1248.2,2264.3 L1265.3,2244.4 L1268.5,2239.7 L1269.8,2237.3 L1275.2,2229.8 L1276.7,2225.2 L1276.7,2217.9 L1276.5,2210.7 L1276.5,2203.3 L1278.7,2195.1 L1282.4,2187.0 L1287.7,2179.3 L1291.5,2173.6 L1296.1,2167.8 L1304.9,2158.0 L1343.9,2138.7 L1349.1,2137.4 L1350.4,2140.2 L1351.9,2142.9 L1352.4,2143.4 L1353.2,2143.0 L1353.4,2141.1 L1352.8,2139.5 L1355.0,2138.9 L1363.0,2136.5 L1373.4,2133.4 L1381.8,2130.9 L1384.7,2130.0 L1381.8,2120.6 L1386.9,2119.2 L1395.6,2118.0 L1396.7,2117.8 L1396.7,2117.2 L1396.7,2115.0 L1404.5,2114.6 L1416.8,2114.1 L1421.6,2116.5 L1433.4,2159.2 L1436.1,2161.7 L1431.0,2167.0 L1435.5,2171.5 L1440.0,2176.0 L1445.4,2170.5 L1545.6,2265.8 L1679.4,2123.0 L1726.2,2167.7 L1728.0,2167.1 L1728.7,2167.9 L1731.8,2166.0 L1734.4,2165.0 L1737.2,2163.8 L1741.9,2161.3 L1744.8,2159.7 L1748.3,2157.7 L1751.4,2155.7 L1754.0,2154.0 L1756.4,2152.4 L1759.3,2150.3 L1762.4,2148.0 L1764.9,2145.9 L1767.5,2143.7 L1770.3,2140.9 L1773.1,2138.2 L1779.4,2131.6 L1783.1,2127.0 L1786.9,2122.1 L1789.4,2118.5 L1791.8,2114.8 L1794.6,2109.6 L1797.1,2104.5 L1799.1,2100.4 L1800.8,2096.3 L1801.9,2093.5 L1803.0,2090.4 L1805.8,2087.1 L1720.2,2005.7 L1721.3,2004.5 L1731.5,1993.6 L1739.0,1985.7 L1739.7,1984.9 L1761.4,2005.2 L1766.7,2002.5 L1767.3,2003.2 L1818.3,1976.7 L1820.4,1975.5 L1821.8,1974.4 L1823.2,1973.1 L1824.7,1971.5 L1826.3,1969.3 L1827.5,1967.2 L1828.4,1965.6 L1829.0,1963.5 L1829.6,1961.3 L1829.8,1958.9 L1829.8,1956.1 L1829.6,1953.9 L1829.2,1951.9 L1828.5,1949.6 L1812.6,1903.7 L1810.4,1896.2 L1811.0,1893.6 L1772.5,1884.0 L1774.3,1877.4 L1775.8,1871.4 L1787.2,1826.2 L1778.3,1800.0 L1773.2,1783.0 L1771.6,1778.7 L1785.4,1766.0 L1801.0,1757.7 L1801.9,1759.0 L1803.4,1761.1 L1807.0,1765.7 L1807.3,1765.3 L1807.4,1763.7 L1802.6,1757.1 L1811.2,1750.8 L1813.1,1749.7 L1817.7,1755.6 L1818.4,1756.2 L1819.2,1756.3 L1819.6,1756.2 L1819.6,1755.8 L1798.2,1726.5 L1796.6,1724.8 L1794.8,1722.3 L1785.5,1711.1 L1793.4,1686.4 L1799.6,1680.1 L1806.6,1676.8 L1821.6,1667.9 L1824.7,1664.7 L1838.1,1652.9 L1842.4,1657.4 L1854.8,1670.8 L1866.4,1661.1 L1874.1,1668.5 L1881.1,1675.4 L1881.5,1675.7 L1887.4,1670.6 L1895.1,1679.0 L1901.9,1687.6 L1906.8,1693.3 L1907.5,1694.0 L1921.9,1681.4 L1922.6,1680.8 L1919.2,1676.6 L1927.1,1670.2 L1950.8,1697.9 L1971.1,1684.6 L1973.1,1682.7 L1981.9,1679.0 L1983.9,1677.0 L1985.8,1674.5 L1996.6,1664.9 L1994.2,1661.5 L1974.8,1665.9 L1952.6,1640.7 L1955.1,1638.5 L1958.5,1642.4 L1974.2,1628.9 L1990.9,1647.1 L1995.4,1648.9 L1998.0,1650.5 L2001.5,1654.3 L2003.3,1652.7 L1991.2,1639.0 L1998.6,1632.5 L2013.6,1650.5 L2015.5,1649.1 L2015.3,1648.7 L2048.1,1625.0 L2057.8,1617.8 L2026.0,1578.0 L2032.8,1573.3 L2060.5,1605.7 L2080.9,1609.4 L2094.5,1601.6 L2096.3,1600.4 L2096.2,1598.9 L2095.3,1597.1 L2105.9,1590.5 L2108.9,1593.6 L2117.9,1588.3 L2111.4,1580.3 L2080.2,1538.7 L2102.2,1515.8 L2116.7,1494.5 L2117.0,1477.8 L2109.3,1455.6 L2125.5,1442.1 L2142.6,1435.5 L2148.1,1434.3 L2152.6,1433.7 L2158.1,1434.0 L2163.9,1435.4 L2172.1,1442.4 L2193.5,1468.6 L2210.6,1490.3 L2231.0,1503.9 L2239.1,1505.2 L2246.3,1506.1 L2252.4,1506.3 L2260.2,1505.8 L2268.7,1504.4 L2275.5,1502.4 L2281.3,1499.7 L2285.1,1497.4 L2288.0,1494.5 L2292.8,1488.6 L2298.0,1479.1 L2303.6,1466.5 L2313.7,1471.7 L2317.7,1473.0 L2322.0,1473.7 L2328.9,1473.2 L2333.4,1471.9 L2338.6,1469.6 L2343.5,1466.8 L2348.6,1461.8 L2353.0,1457.8 L2358.5,1454.1 L2362.3,1451.6 L2367.9,1449.6 L2377.5,1446.8 L2383.2,1445.2 L2389.4,1442.9 L2394.7,1440.2 L2397.8,1438.3 L2400.3,1435.8 L2433.0,1419.4 L2434.2,1418.7 L2435.7,1417.7 L2437.2,1416.6 L2439.4,1415.3 L2440.9,1414.6 L2442.4,1413.3 L2443.6,1412.0 L2445.2,1411.0 L2446.9,1409.8 L2449.2,1407.7 L2452.4,1407.4 L2455.7,1407.0 L2457.8,1406.4 L2460.6,1405.1 L2464.0,1403.5 L2467.7,1401.3 L2469.8,1399.3 L2472.1,1396.7 L2473.5,1394.2 L2474.3,1391.9 L2474.3,1390.4 L2474.4,1389.0 L2475.2,1383.9 L2493.4,1373.3 L2525.3,1354.9 L2531.5,1351.4 L2585.6,1320.1 L2644.2,1286.5 L2669.1,1272.2 L2677.8,1267.4 L2750.3,1225.3 L2766.3,1216.4 L2766.1,1215.8 L2799.3,1197.1 L2812.0,1190.0 L2835.5,1176.9 L2835.7,1177.3 L2844.8,1172.3 L2866.9,1160.0 L2869.6,1157.6 L2892.0,1141.1 L2903.1,1131.9 L2913.4,1123.2 L2918.1,1120.6 L2928.7,1110.1 L2929.6,1110.7 L2931.0,1110.5 L2931.7,1111.0 L2946.6,1093.5 L2942.9,1090.0 L2943.4,1089.1 L2945.0,1086.8 L2949.2,1081.3 L2951.8,1077.4 L2953.9,1074.2 L2956.7,1069.8 L2959.5,1065.3 L2962.6,1060.1 L2965.8,1054.6 L2972.8,1040.2 L2974.9,1035.6 L2976.6,1032.0 L2977.9,1029.3 L2978.9,1027.1 L2981.1,1021.7 L2923.2,913.7 L2922.1,911.6 L2921.3,910.4 L2920.6,909.6 L2919.8,908.9 L2919.1,908.4 L2918.1,907.8 L2917.0,907.4 L2916.1,907.2 L2915.2,907.1 L2913.9,907.1 L2912.4,907.3 L2911.0,907.7 L2909.6,908.4 L2896.1,916.2 L2878.6,926.3 L2866.3,933.1 L2844.0,945.3 L2830.3,952.8 L2830.8,953.7 L2825.0,957.0 L2805.8,966.9 L2791.6,975.3 L2783.3,979.9 L2770.5,987.3 L2769.1,988.2 L2757.9,968.2 L2779.9,956.2 L2809.8,940.0 L2830.1,928.6 L2832.6,927.2 L2832.3,926.6 L2849.8,917.1 L2859.2,911.9 L2880.7,901.4 L2884.7,899.4 L2917.1,881.4 L2929.2,874.7 L2937.8,870.1 L2947.9,864.3 L2961.9,889.6 L2939.9,901.6 L2938.8,903.4 L2938.3,905.4 L2938.1,906.9 L2938.1,908.2 L2938.2,909.2 L2938.6,910.7 L2983.4,993.6 L2984.3,994.9 L2985.3,995.8 L2986.2,996.5 L2987.3,996.8 L2988.4,997.0 L2989.5,996.9 L2990.4,996.6 L3010.3,981.5 L3019.6,973.7 L3029.3,965.6 L3033.0,962.2 L3044.9,952.4 L3045.5,952.4 L3057.0,942.5 L3057.1,941.9 L3064.7,935.7 L3070.7,930.7 L3081.0,922.2 L3081.9,923.4 L3092.0,915.1 L3097.1,910.8 L3111.3,899.1 L3121.1,890.9 L3120.2,889.5 L3123.5,886.7 L3128.8,882.3 L3132.1,879.4 L3146.1,873.2 L3155.5,869.8 L3160.4,867.5 L3173.9,867.4 L3178.7,867.4 L3188.7,868.0 L3200.5,868.5 L3201.4,867.6 L3202.5,869.2 L3206.2,869.3 L3239.9,872.2 L3243.8,873.1 L3247.2,873.6 L3255.0,874.3 L3269.6,875.0 L3272.8,875.0 L3275.8,875.0 L3287.5,874.5 L3293.5,874.2 L3299.4,873.6 L3308.5,872.7 L3308.5,873.2 L3315.7,872.0 L3322.6,870.7 L3327.9,869.7 L3334.7,864.5 L3335.6,865.7 L3336.4,866.8 L3397.2,947.3 L3543.9,997.8 L3813.3,800.0 L3886.6,747.2 L3915.0,686.7 L3869.9,627.6 L3871.9,619.2 L3879.8,617.0 L3895.0,620.2 L3905.8,616.1 L3908.8,611.9 L3908.1,608.3 L3900.1,592.4 L3899.5,586.5 L3899.1,574.8 L3897.7,563.6 L3899.1,561.5 L3903.7,559.4 L3909.2,558.1 L3913.2,553.8 L3914.1,548.6 L3910.7,538.5 L3910.4,531.6 L3911.4,523.7 L3916.9,509.8 L3915.8,503.4 L3913.1,496.3 L3913.0,486.6 L3911.4,473.8 L3908.4,465.8 L3906.7,461.6 L3907.8,459.7 L3909.0,459.9 L3909.3,459.1 L3909.4,458.1 L3909.4,457.1 L3907.7,456.9 L3906.5,455.3 L3906.7,453.5 L3905.2,453.1 L3903.4,453.0 L3903.1,453.5 L3899.4,449.0 L3898.6,447.6 L3897.9,445.6 L3897.4,443.8 L3897.1,441.8 L3896.9,439.7 L3896.9,438.0 L3896.8,436.1 L3897.0,435.1 L3897.8,432.6 L3898.7,430.6 L3899.9,428.7 L3901.6,426.2 L3903.3,423.8 L3905.0,422.2 L3907.0,420.6 L3907.4,421.0 L3925.0,407.6 L3927.5,405.6 L3927.0,404.9 L3927.0,403.6 L3931.4,400.2 L3932.4,400.2 L3933.5,401.0 L3935.3,399.6 L3953.4,386.0 L3953.1,385.5 L3955.3,383.9 L3957.8,382.4 L3959.5,381.6 L3962.0,380.6 L3964.2,380.1 L3966.3,379.7 L3968.6,379.5 L3970.1,379.7 L3972.0,380.0 L3973.9,380.6 L3975.3,381.3 L3976.7,382.1 L3977.7,382.8 L3978.5,383.7 L3979.8,384.8 L3980.3,385.1 L3981.2,385.1 L3982.1,384.9 L3984.8,382.9 L3984.9,382.4 L3985.2,382.0 L3985.4,381.5 L3985.4,380.8 L3985.3,380.3 L3984.8,379.7 L3982.9,377.8 L3981.4,376.5 L3979.6,375.5 L3976.6,374.3 L3974.1,373.2 L3978.5,370.9 L3983.9,367.2 L3990.7,366.3 L3997.4,366.7 L4001.9,365.0 L4005.7,359.5 L4020.2,333.5 L4026.1,322.8 L4030.7,311.4 L4031.5,309.1 L4038.5,287.9 L4039.5,285.8 L4040.8,283.8 L4057.1,263.7 L4060.5,260.1 L4063.1,257.9 L4099.4,226.8 L4101.3,225.5 L4107.6,222.1 L4115.0,217.9 L4138.2,205.8 L4188.8,178.6 L4189.9,179.5 L4190.9,179.9 L4191.8,180.1 L4192.7,180.0 L4193.6,179.8 L4196.3,179.2 L4199.4,178.5 L4202.3,177.9 L4205.2,177.4 L4206.8,177.0 L4209.1,176.3 L4211.5,175.3 L4217.6,172.0 L4219.8,170.8 L4220.9,170.1 L4222.1,169.6 L4226.8,167.6 L4231.9,165.6 L4238.4,162.8 L4246.1,159.7 L4246.4,159.5 L4247.0,159.5 L4247.9,159.2 L4249.1,158.3 L4250.4,157.8 L4251.9,157.1 L4254.7,155.5 L4255.7,154.5 L4257.4,153.4 L4257.2,153.1 L4257.9,152.3 L4258.9,151.3 L4260.3,150.5 L4261.6,150.1 L4262.9,149.6 L4264.2,148.9 L4266.6,147.3 L4267.4,146.6 L4268.1,145.5 L4268.4,144.8 L4268.4,144.0 L4268.4,143.2 L4268.5,142.4 L4261.5,134.0 L4283.5,121.1 L4294.0,115.5 L4296.1,114.9 L4299.3,115.4 L4302.8,120.4 L4304.4,121.8 L4305.9,122.5 L4307.2,122.8 L4308.4,122.7 L4327.4,115.0 L4332.5,112.5 L4337.3,109.8 L4345.0,105.7 L4346.6,105.1 L4454.0,60.5 L4487.6,44.4 L4637.9,-27.8 L8144.4,-56.8 L8144.4,4961.0 L650.6,4961.0 L650.6,4747.7 Z" fill="#add7e1" stroke="none"><title>Biscayne Bay</title></path><path d="M-5.9,57.0 L-5.8,57.7 L1.2,57.5 L1.5,69.4 L-5.3,69.5 L-5.3,71.7 L-10.9,71.9 L-11.3,57.2 L-5.9,57.0 Z" fill="#d6d2c9" stroke="#bab6ad" stroke-width="0.4"></path><path d="M183.9,207.6 L174.8,207.9 L174.5,196.2 L175.9,196.1 L175.5,182.7 L183.2,182.5 L183.9,207.6 Z" fill="#d6d2c9" stroke="#bab6ad" stroke-width="0.4"></path><path d="M248.7,224.8 L248.8,226.5 L253.3,226.4 L253.7,239.8 L241.8,240.2 L241.3,225.0 L248.7,224.8 Z" fill="#d6d2c9" stroke="#bab6ad" stroke-width="0.4"></path><path d="M66.6,188.5 L66.6,196.9 L57.1,197.0 L57.1,195.0 L53.5,195.0 L53.5,188.7 L66.6,188.5 Z" fill="#d6d2c9" stroke="#bab6ad" stroke-width="0.4"></path><path d="M158.7,25.4 L152.9,25.5 L152.5,-2.1 L162.5,-2.2 L162.7,6.4 L161.4,6.4 L161.5,11.5 L158.5,11.6 L158.7,25.4 Z" fill="#d6d2c9" stroke="#bab6ad" stroke-width="0.4"></path><path d="M178.7,25.9 L167.6,26.1 L167.3,15.3 L168.9,15.3 L168.6,-1.5 L178.2,-1.7 L178.7,25.9 Z" fill="#d6d2c9" stroke="#bab6ad" stroke-width="0.4"></path><path d="M162.5,116.5 L154.9,116.7 L154.6,103.6 L158.8,103.5 L158.6,92.2 L166.1,92.0 L166.5,111.7 L162.4,111.8 L162.5,116.5 Z" fill="#d6d2c9" stroke="#bab6ad" stroke-width="0.4"></path><path d="M88.9,186.1 L89.0,186.9 L91.2,186.9 L91.4,195.3 L92.9,195.3 L93.4,214.1 L85.8,214.3 L85.4,199.1 L83.0,199.2 L82.6,186.3 L88.9,186.1 Z" fill="#d6d2c9" stroke="#bab6ad" stroke-width="0.4"></path><path d="M235.7,122.8 L225.5,123.0 L224.9,101.2 L228.0,101.1 L227.7,90.8 L236.9,90.5 L237.4,108.8 L235.3,108.8 L235.7,122.8 Z" fill="#d6d2c9" stroke="#bab6ad" stroke-width="0.4"></path><path d="M262.2,156.3 L254.9,156.6 L254.2,139.4 L261.5,139.1 L262.2,156.3 Z" fill="#d6d2c9" stroke="#bab6ad" stroke-width="0.4"></path><path d="M103.3,213.6 L94.9,213.8 L94.4,196.9 L96.4,196.8 L96.1,186.3 L103.8,186.0 L104.2,197.8 L102.9,197.8 L103.3,213.6 Z" fill="#d6d2c9" stroke="#bab6ad" stroke-width="0.4"></path><path d="M215.5,158.4 L207.1,158.8 L205.4,129.3 L215.2,128.7 L215.8,139.9 L214.5,139.9 L215.5,158.4 Z" fill="#d6d2c9" stroke="#bab6ad" stroke-width="0.4"></path><path d="M182.4,225.7 L182.2,239.0 L171.5,238.9 L171.7,225.8 L173.1,225.8 L173.1,223.6 L175.2,223.6 L175.2,225.6 L182.4,225.7 Z" fill="#d6d2c9" stroke="#bab6ad" stroke-width="0.4"></path><path d="M126.3,213.3 L118.3,213.4 L118.1,204.0 L121.3,203.9 L121.3,198.6 L126.1,198.5 L126.3,213.3 Z" fill="#d6d2c9" stroke="#bab6ad" stroke-width="0.4"></path><path d="M-0.9,97.2 L-0.8,110.9 L3.3,110.9 L3.3,120.1 L-9.0,120.2 L-9.2,97.3 L-0.9,97.2 Z" fill="#d6d2c9" stroke="#bab6ad" stroke-width="0.4"></path><path d="M195.0,211.7 L185.9,211.8 L185.8,201.1 L194.9,201.0 L195.0,211.7 Z" fill="#d6d2c9" stroke="#bab6ad" stroke-width="0.4"></path><path d="M149.8,207.3 L140.2,207.4 L140.1,198.3 L141.7,198.3 L141.5,185.8 L149.5,185.7 L149.8,207.3 Z" fill="#d6d2c9" stroke="#bab6ad" stroke-width="0.4"></path><path d="M248.1,90.9 L249.0,107.4 L251.7,107.2 L252.2,115.3 L240.3,116.0 L238.9,91.4 L248.1,90.9 Z" fill="#d6d2c9" stroke="#bab6ad" stroke-width="0.4"></path><path d="M180.3,127.4 L180.9,142.3 L182.9,142.3 L183.5,158.7 L175.1,159.0 L174.5,145.0 L172.5,145.1 L171.8,127.8 L180.3,127.4 Z" fill="#d6d2c9" stroke="#bab6ad" stroke-width="0.4"></path><path d="M151.7,242.0 L143.5,242.1 L143.2,227.4 L151.4,227.2 L151.7,242.0 Z" fill="#d6d2c9" stroke="#bab6ad" stroke-width="0.4"></path><path d="M253.0,154.5 L243.4,154.8 L242.9,139.1 L252.5,138.7 L253.0,154.5 Z" fill="#d6d2c9" stroke="#bab6ad" stroke-width="0.4"></path><path d="M65.5,147.5 L65.6,151.1 L69.4,151.0 L69.6,160.2 L66.3,160.3 L66.3,164.3 L50.6,164.6 L50.2,147.8 L65.5,147.5 Z" fill="#d6d2c9" stroke="#bab6ad" stroke-width="0.4"></path><path d="M193.7,119.3 L183.3,119.4 L183.2,104.9 L185.6,104.9 L185.5,92.0 L193.5,91.9 L193.7,119.3 Z" fill="#d6d2c9" stroke="#bab6ad" stroke-width="0.4"></path><path d="M234.5,-0.7 L234.3,14.4 L228.1,14.3 L228.1,9.2 L222.7,9.1 L222.9,-2.8 L226.7,-2.8 L226.7,-1.9 L230.3,-1.9 L230.3,-0.7 L234.5,-0.7 Z" fill="#d6d2c9" stroke="#bab6ad" stroke-width="0.4"></path><path d="M14.5,188.9 L14.6,192.2 L17.9,192.1 L18.3,213.0 L13.7,213.1 L13.7,210.6 L9.8,210.7 L9.4,189.0 L14.5,188.9 Z" fill="#d6d2c9" stroke="#bab6ad" stroke-width="0.4"></path><path d="M91.9,160.6 L85.0,160.7 L84.9,143.3 L91.8,143.2 L91.9,160.6 Z" fill="#d6d2c9" stroke="#bab6ad" stroke-width="0.4"></path><path d="M195.1,183.9 L195.2,196.0 L186.9,196.0 L186.8,189.3 L184.3,189.3 L184.2,184.0 L195.1,183.9 Z" fill="#d6d2c9" stroke="#bab6ad" stroke-width="0.4"></path><path d="M132.3,45.2 L132.3,47.2 L137.1,47.1 L137.4,66.2 L129.5,66.3 L129.3,55.8 L126.3,55.9 L126.1,45.3 L132.3,45.2 Z" fill="#d6d2c9" stroke="#bab6ad" stroke-width="0.4"></path><path d="M128.2,240.3 L119.4,240.5 L118.9,225.6 L127.7,225.3 L128.2,240.3 Z" fill="#d6d2c9" stroke="#bab6ad" stroke-width="0.4"></path><path d="M160.4,187.8 L160.9,212.5 L157.6,212.5 L157.5,209.4 L151.7,209.5 L151.5,193.8 L153.2,193.8 L153.1,187.9 L160.4,187.8 Z" fill="#d6d2c9" stroke="#bab6ad" stroke-width="0.4"></path><path d="M252.8,-5.6 L252.8,-4.5 L258.2,-4.6 L258.2,4.6 L241.6,4.7 L241.6,6.0 L238.1,6.0 L238.0,-3.6 L242.1,-3.6 L242.1,-2.7 L244.7,-2.7 L244.7,-1.8 L246.9,-1.8 L246.9,-5.6 L252.8,-5.6 Z" fill="#d6d2c9" stroke="#bab6ad" stroke-width="0.4"></path><path d="M134.0,93.2 L134.4,103.4 L138.3,103.2 L138.8,116.7 L131.9,117.0 L131.7,114.1 L126.9,114.3 L126.1,93.5 L134.0,93.2 Z" fill="#d6d2c9" stroke="#bab6ad" stroke-width="0.4"></path><path d="M219.3,103.7 L219.2,106.5 L215.6,106.4 L215.6,104.0 L212.3,104.0 L212.3,90.5 L222.2,90.5 L222.2,103.7 L219.3,103.7 Z" fill="#d6d2c9" stroke="#bab6ad" stroke-width="0.4"></path><path d="M71.5,243.7 L64.0,244.0 L63.2,224.1 L70.7,223.8 L71.5,243.7 Z" fill="#d6d2c9" stroke="#bab6ad" stroke-width="0.4"></path><path d="M257.9,56.9 L258.0,60.7 L258.4,60.7 L258.6,66.6 L249.3,66.9 L249.0,60.3 L246.4,60.4 L246.3,55.3 L248.8,55.2 L248.7,52.4 L259.5,52.1 L259.6,56.8 L257.9,56.9 Z" fill="#d6d2c9" stroke="#bab6ad" stroke-width="0.4"></path><path d="M77.0,11.7 L68.3,11.7 L68.4,-1.9 L77.0,-1.9 L77.0,11.7 Z" fill="#d6d2c9" stroke="#bab6ad" stroke-width="0.4"></path><path d="M206.6,186.3 L206.5,194.0 L204.3,194.0 L204.3,196.6 L196.8,196.5 L196.9,186.1 L206.6,186.3 Z" fill="#d6d2c9" stroke="#bab6ad" stroke-width="0.4"></path><path d="M117.3,242.2 L109.6,242.3 L109.5,228.1 L117.1,228.0 L117.3,242.2 Z" fill="#d6d2c9" stroke="#bab6ad" stroke-width="0.4"></path><path d="M237.2,131.3 L237.3,134.9 L240.9,134.8 L241.1,154.3 L229.9,154.5 L229.6,131.4 L237.2,131.3 Z" fill="#d6d2c9" stroke="#bab6ad" stroke-width="0.4"></path><path d="M116.5,199.6 L108.2,199.9 L107.8,188.9 L116.1,188.6 L116.5,199.6 Z" fill="#d6d2c9" stroke="#bab6ad" stroke-width="0.4"></path><path d="M214.5,185.1 L214.8,197.8 L217.6,197.7 L217.8,206.3 L208.7,206.6 L208.2,185.2 L214.5,185.1 Z" fill="#d6d2c9" stroke="#bab6ad" stroke-width="0.4"></path><path d="M30.5,214.5 L21.8,214.7 L21.1,187.5 L29.7,187.3 L30.5,214.5 Z" fill="#d6d2c9" stroke="#bab6ad" stroke-width="0.4"></path><path d="M251.8,198.6 L245.3,198.9 L244.7,185.1 L251.2,184.8 L251.8,198.6 Z" fill="#d6d2c9" stroke="#bab6ad" stroke-width="0.4"></path><path d="M203.2,128.8 L203.2,144.7 L205.4,144.7 L205.3,157.5 L197.1,157.4 L197.1,146.5 L195.0,146.5 L195.1,128.7 L203.2,128.8 Z" fill="#d6d2c9" stroke="#bab6ad" stroke-width="0.4"></path><path d="M149.2,5.7 L139.6,6.1 L139.3,-1.6 L148.8,-2.1 L149.2,5.7 Z" fill="#d6d2c9" stroke="#bab6ad" stroke-width="0.4"></path><path d="M230.4,61.6 L224.5,61.6 L224.3,41.9 L229.4,41.9 L229.3,37.0 L235.0,36.9 L235.3,58.9 L230.4,59.0 L230.4,61.6 Z" fill="#d6d2c9" stroke="#bab6ad" stroke-width="0.4"></path><path d="M79.3,150.0 L79.2,162.6 L72.3,162.5 L72.4,149.9 L79.3,150.0 Z" fill="#d6d2c9" stroke="#bab6ad" stroke-width="0.4"></path><path d="M165.4,65.7 L156.7,66.0 L155.7,39.9 L164.4,39.6 L165.4,65.7 Z" fill="#d6d2c9" stroke="#bab6ad" stroke-width="0.4"></path><path d="M144.9,66.0 L139.2,66.2 L138.4,35.4 L151.4,35.1 L152.0,60.1 L144.8,60.2 L144.9,66.0 Z" fill="#d6d2c9" stroke="#bab6ad" stroke-width="0.4"></path><path d="M212.7,-2.5 L212.7,-1.7 L216.6,-1.7 L216.6,-0.2 L220.0,-0.2 L220.0,13.2 L209.0,13.3 L208.9,-2.5 L212.7,-2.5 Z" fill="#d6d2c9" stroke="#bab6ad" stroke-width="0.4"></path><path d="M134.8,-1.0 L134.8,6.3 L125.0,6.3 L125.0,-1.1 L134.8,-1.0 Z" fill="#d6d2c9" stroke="#bab6ad" stroke-width="0.4"></path><path d="M94.5,244.4 L86.6,244.8 L85.8,226.4 L93.7,226.0 L94.5,244.4 Z" fill="#d6d2c9" stroke="#bab6ad" stroke-width="0.4"></path><path d="M122.4,37.5 L123.1,67.5 L114.4,67.8 L114.0,52.4 L111.0,52.4 L110.7,39.3 L115.2,39.2 L115.1,37.7 L122.4,37.5 Z" fill="#d6d2c9" stroke="#bab6ad" stroke-width="0.4"></path><path d="M152.8,118.8 L140.5,118.9 L140.3,103.7 L144.3,103.7 L144.2,92.6 L152.5,92.6 L152.8,118.8 Z" fill="#d6d2c9" stroke="#bab6ad" stroke-width="0.4"></path><path d="M57.1,58.3 L57.1,63.8 L66.5,63.8 L66.5,72.4 L47.3,72.4 L47.3,58.4 L57.1,58.3 Z" fill="#d6d2c9" stroke="#bab6ad" stroke-width="0.4"></path><path d="M26.9,162.3 L20.3,162.3 L20.4,138.9 L26.9,138.9 L26.9,162.3 Z" fill="#d6d2c9" stroke="#bab6ad" stroke-width="0.4"></path><path d="M78.8,96.2 L79.3,108.3 L81.5,108.2 L82.0,123.9 L76.2,124.2 L76.1,122.8 L69.9,123.1 L69.0,97.7 L73.4,97.6 L73.4,96.4 L78.8,96.2 Z" fill="#d6d2c9" stroke="#bab6ad" stroke-width="0.4"></path><path d="M17.5,223.5 L17.9,246.4 L9.0,246.6 L8.8,236.0 L13.5,235.9 L13.5,234.3 L8.9,234.4 L8.9,232.9 L5.7,233.0 L5.6,223.7 L17.5,223.5 Z" fill="#d6d2c9" stroke="#bab6ad" stroke-width="0.4"></path><path d="M81.3,243.2 L73.9,243.3 L73.8,223.5 L82.8,223.4 L82.8,231.1 L81.3,231.2 L81.3,243.2 Z" fill="#d6d2c9" stroke="#bab6ad" stroke-width="0.4"></path><path d="M206.1,48.9 L206.6,64.5 L198.9,64.7 L198.8,58.3 L195.8,58.4 L195.5,49.2 L206.1,48.9 Z" fill="#d6d2c9" stroke="#bab6ad" stroke-width="0.4"></path><path d="M179.4,55.4 L179.2,67.4 L168.7,67.2 L168.7,62.4 L171.1,62.4 L171.2,55.2 L179.4,55.4 Z" fill="#d6d2c9" stroke="#bab6ad" stroke-width="0.4"></path><path d="M255.8,17.6 L237.8,18.5 L237.4,8.6 L255.3,7.8 L255.8,17.6 Z" fill="#d6d2c9" stroke="#bab6ad" stroke-width="0.4"></path><path d="M106.8,33.1 L95.9,33.4 L95.5,19.5 L106.4,19.2 L106.8,33.1 Z" fill="#d6d2c9" stroke="#bab6ad" stroke-width="0.4"></path><path d="M226.4,158.3 L218.3,158.6 L217.5,128.4 L227.2,128.2 L227.5,140.0 L225.9,140.1 L226.4,158.3 Z" fill="#d6d2c9" stroke="#bab6ad" stroke-width="0.4"></path><path d="M102.9,38.7 L102.9,39.3 L107.6,39.3 L107.8,52.3 L105.7,52.3 L105.9,68.4 L96.6,68.5 L96.3,38.8 L102.9,38.7 Z" fill="#d6d2c9" stroke="#bab6ad" stroke-width="0.4"></path><path d="M227.2,205.4 L220.9,205.6 L220.7,198.5 L222.4,198.5 L222.0,184.9 L229.1,184.7 L229.6,201.9 L227.1,201.9 L227.2,205.4 Z" fill="#d6d2c9" stroke="#bab6ad" stroke-width="0.4"></path><path d="M105.3,1.2 L105.1,11.4 L101.1,11.4 L101.1,14.4 L95.0,14.3 L95.2,1.1 L105.3,1.2 Z" fill="#d6d2c9" stroke="#bab6ad" stroke-width="0.4"></path><path d="M81.5,188.0 L81.4,203.0 L73.6,202.9 L73.7,187.9 L81.5,188.0 Z" fill="#d6d2c9" stroke="#bab6ad" stroke-width="0.4"></path><path d="M12.2,138.5 L12.2,141.1 L18.4,141.0 L18.9,163.3 L9.0,163.5 L8.8,152.7 L5.7,152.8 L5.4,138.6 L12.2,138.5 Z" fill="#d6d2c9" stroke="#bab6ad" stroke-width="0.4"></path><path d="M191.4,-0.1 L191.6,19.0 L179.7,19.1 L179.4,0.0 L191.4,-0.1 Z" fill="#d6d2c9" stroke="#bab6ad" stroke-width="0.4"></path><path d="M16.6,119.8 L4.8,120.1 L4.6,110.4 L8.7,110.3 L8.5,97.0 L16.2,96.9 L16.6,119.8 Z" fill="#d6d2c9" stroke="#bab6ad" stroke-width="0.4"></path><path d="M66.2,201.0 L66.0,214.4 L53.9,214.2 L54.2,200.8 L66.2,201.0 Z" fill="#d6d2c9" stroke="#bab6ad" stroke-width="0.4"></path><path d="M193.7,64.2 L185.2,64.7 L183.9,43.0 L189.0,42.7 L188.8,39.0 L192.2,38.8 L193.7,64.2 Z" fill="#d6d2c9" stroke="#bab6ad" stroke-width="0.4"></path><path d="M94.4,52.3 L83.2,52.6 L82.9,38.6 L94.1,38.3 L94.4,52.3 Z" fill="#d6d2c9" stroke="#bab6ad" stroke-width="0.4"></path><path d="M7.6,211.3 L-6.2,211.7 L-6.5,202.3 L-1.2,202.1 L-1.5,190.6 L7.0,190.4 L7.6,211.3 Z" fill="#d6d2c9" stroke="#bab6ad" stroke-width="0.4"></path><path d="M139.7,240.1 L130.1,240.3 L129.8,225.1 L139.4,224.9 L139.7,240.1 Z" fill="#d6d2c9" stroke="#bab6ad" stroke-width="0.4"></path><path d="M30.4,247.0 L19.8,247.3 L19.0,223.3 L29.7,222.9 L30.4,247.0 Z" fill="#d6d2c9" stroke="#bab6ad" stroke-width="0.4"></path><path d="M153.1,140.7 L153.3,148.4 L157.8,148.2 L158.0,155.9 L149.3,156.2 L149.3,158.4 L145.4,158.6 L144.8,141.0 L153.1,140.7 Z" fill="#d6d2c9" stroke="#bab6ad" stroke-width="0.4"></path><path d="M121.0,93.1 L121.2,104.9 L123.9,104.9 L124.0,117.9 L113.3,118.0 L113.0,93.2 L121.0,93.1 Z" fill="#d6d2c9" stroke="#bab6ad" stroke-width="0.4"></path><path d="M102.1,158.6 L94.0,158.7 L93.7,136.9 L103.1,136.7 L103.3,146.8 L102.0,146.8 L102.1,158.6 Z" fill="#d6d2c9" stroke="#bab6ad" stroke-width="0.4"></path><path d="M62.4,38.6 L62.5,49.0 L53.7,49.1 L53.6,42.4 L50.8,42.4 L50.8,46.7 L45.5,46.8 L45.4,38.8 L62.4,38.6 Z" fill="#d6d2c9" stroke="#bab6ad" stroke-width="0.4"></path><path d="M257.2,32.5 L257.3,39.8 L259.6,39.8 L259.7,45.5 L249.0,45.7 L249.0,41.7 L246.0,41.8 L245.9,37.6 L241.0,37.7 L241.0,32.7 L257.2,32.5 Z" fill="#d6d2c9" stroke="#bab6ad" stroke-width="0.4"></path><path d="M136.6,186.7 L136.7,198.5 L138.5,198.5 L138.6,208.2 L128.6,208.3 L128.4,186.7 L136.6,186.7 Z" fill="#d6d2c9" stroke="#bab6ad" stroke-width="0.4"></path><path d="M236.9,184.4 L236.9,185.4 L241.4,185.4 L241.5,199.6 L237.1,199.7 L237.1,202.1 L231.0,202.1 L230.8,184.5 L236.9,184.4 Z" fill="#d6d2c9" stroke="#bab6ad" stroke-width="0.4"></path><path d="M19.7,19.0 L19.8,22.5 L20.7,22.5 L21.0,31.1 L20.1,31.2 L20.2,34.6 L6.9,35.1 L6.3,19.5 L19.7,19.0 Z" fill="#d6d2c9" stroke="#bab6ad" stroke-width="0.4"></path><path d="M123.3,158.0 L116.3,158.2 L115.7,137.0 L122.7,136.9 L123.3,158.0 Z" fill="#d6d2c9" stroke="#bab6ad" stroke-width="0.4"></path><path d="M202.5,-2.2 L202.9,14.9 L205.5,14.9 L205.8,27.0 L194.2,27.3 L193.5,-2.0 L202.5,-2.2 Z" fill="#d6d2c9" stroke="#bab6ad" stroke-width="0.4"></path><path d="M114.1,136.7 L114.5,158.0 L107.3,158.1 L107.1,146.7 L104.8,146.7 L104.6,136.8 L114.1,136.7 Z" fill="#d6d2c9" stroke="#bab6ad" stroke-width="0.4"></path><path d="M26.1,127.6 L18.8,127.7 L18.3,95.2 L25.6,95.1 L26.1,127.6 Z" fill="#d6d2c9" stroke="#bab6ad" stroke-width="0.4"></path><path d="M18.7,-1.3 L18.8,1.7 L20.2,1.7 L20.5,10.7 L19.4,10.8 L19.5,13.8 L5.9,14.3 L5.4,-0.9 L18.7,-1.3 Z" fill="#d6d2c9" stroke="#bab6ad" stroke-width="0.4"></path><path d="M258.6,27.6 L258.7,29.6 L252.4,29.8 L252.4,28.2 L248.6,28.3 L248.4,21.5 L260.4,21.1 L260.6,27.6 L258.6,27.6 Z" fill="#d6d2c9" stroke="#bab6ad" stroke-width="0.4"></path><path d="M170.0,183.2 L170.5,196.4 L172.4,196.4 L172.8,208.2 L163.5,208.6 L162.5,183.5 L170.0,183.2 Z" fill="#d6d2c9" stroke="#bab6ad" stroke-width="0.4"></path><path d="M139.1,127.5 L139.7,159.0 L126.8,159.3 L126.5,143.2 L124.4,143.3 L124.2,134.2 L131.5,134.0 L131.4,127.7 L139.1,127.5 Z" fill="#d6d2c9" stroke="#bab6ad" stroke-width="0.4"></path><path d="M91.7,97.5 L91.7,98.7 L95.3,98.5 L95.7,109.3 L94.4,109.3 L94.5,111.6 L88.3,111.9 L88.2,110.6 L84.7,110.8 L84.2,97.8 L91.7,97.5 Z" fill="#d6d2c9" stroke="#bab6ad" stroke-width="0.4"></path><path d="M69.1,144.1 L65.5,144.1 L65.4,139.4 L69.0,139.4 L69.1,144.1 Z" fill="#d6d2c9" stroke="#bab6ad" stroke-width="0.4"></path><path d="M194.3,131.7 L189.5,131.9 L189.3,126.1 L194.1,125.9 L194.3,131.7 Z" fill="#d6d2c9" stroke="#bab6ad" stroke-width="0.4"></path><path d="M255.7,224.8 L252.1,225.0 L251.7,215.2 L255.3,215.1 L255.7,224.8 Z" fill="#d6d2c9" stroke="#bab6ad" stroke-width="0.4"></path><path d="M7.1,72.7 L3.6,72.8 L3.0,61.3 L12.8,60.8 L13.0,65.0 L13.2,69.1 L10.5,69.3 L10.6,72.5 L7.1,72.7 Z" fill="#d6d2c9" stroke="#bab6ad" stroke-width="0.4"></path><path d="M19.5,71.7 L17.5,71.8 L17.2,63.5 L24.7,63.2 L24.9,66.8 L25.0,70.4 L21.4,70.6 L21.5,71.6 L19.5,71.7 Z" fill="#d6d2c9" stroke="#bab6ad" stroke-width="0.4"></path><path d="M193.3,156.2 L193.4,157.7 L186.5,157.8 L186.5,156.3 L185.8,156.3 L185.7,147.4 L189.8,147.4 L193.9,147.3 L194.0,156.2 L193.3,156.2 Z" fill="#d6d2c9" stroke="#bab6ad" stroke-width="0.4"></path><path d="M159.7,217.7 L159.8,220.8 L160.4,220.8 L160.5,222.8 L160.5,224.8 L152.9,225.0 L152.8,220.8 L151.0,220.8 L150.9,214.7 L162.1,214.5 L162.1,217.7 L159.7,217.7 Z" fill="#d6d2c9" stroke="#bab6ad" stroke-width="0.4"></path><path d="M265.5,120.9 L254.2,121.0 L254.2,114.9 L254.2,108.8 L265.4,108.8 L265.4,114.9 L265.5,120.9 Z" fill="#d6d2c9" stroke="#bab6ad" stroke-width="0.4"></path><path d="M205.5,101.5 L199.1,101.7 L198.7,91.2 L209.2,90.8 L209.5,98.7 L205.4,98.9 L205.5,101.5 Z" fill="#d6d2c9" stroke="#bab6ad" stroke-width="0.4"></path><path d="M235.9,230.0 L228.5,230.2 L228.3,224.6 L235.7,224.4 L235.9,230.0 Z" fill="#d6d2c9" stroke="#bab6ad" stroke-width="0.4"></path><path d="M81.1,43.5 L81.0,51.3 L79.8,51.3 L79.8,52.6 L70.8,52.5 L70.9,43.4 L81.1,43.5 Z" fill="#d6d2c9" stroke="#bab6ad" stroke-width="0.4"></path><path d="M220.4,50.0 L211.9,50.2 L211.6,37.9 L215.9,37.8 L215.9,36.7 L218.0,36.7 L220.1,36.6 L220.4,50.0 Z" fill="#d6d2c9" stroke="#bab6ad" stroke-width="0.4"></path><path d="M190.9,216.5 L191.1,221.6 L195.1,221.5 L195.8,239.9 L192.6,240.0 L192.4,236.8 L190.4,236.8 L190.4,235.8 L186.4,236.0 L186.1,216.7 L188.6,216.6 L190.9,216.5 Z" fill="#d6d2c9" stroke="#bab6ad" stroke-width="0.4"></path><path d="M59.5,133.0 L59.8,139.6 L61.1,139.5 L61.3,143.5 L52.0,144.0 L51.8,140.8 L50.2,140.9 L50.0,136.5 L51.6,136.4 L51.4,133.4 L59.5,133.0 Z" fill="#d6d2c9" stroke="#bab6ad" stroke-width="0.4"></path><path d="M108.3,92.9 L108.4,96.7 L110.4,96.6 L111.0,116.2 L98.8,116.6 L98.2,97.2 L100.1,97.1 L99.9,93.1 L108.3,92.9 Z" fill="#d6d2c9" stroke="#bab6ad" stroke-width="0.4"></path><path d="M233.1,230.6 L233.1,232.0 L238.2,231.9 L238.4,240.1 L233.5,240.2 L233.5,241.3 L231.7,241.3 L231.7,240.3 L229.1,240.4 L228.9,232.3 L230.8,232.2 L230.7,230.7 L233.1,230.6 Z" fill="#d6d2c9" stroke="#bab6ad" stroke-width="0.4"></path><path d="M197.7,41.9 L195.4,41.9 L195.3,33.2 L199.3,33.1 L203.2,33.0 L203.3,41.0 L199.9,41.0 L199.9,41.9 L197.7,41.9 Z" fill="#d6d2c9" stroke="#bab6ad" stroke-width="0.4"></path><path d="M23.7,42.5 L23.7,44.5 L25.0,44.5 L25.1,47.2 L23.8,47.2 L23.9,50.4 L17.2,50.5 L17.1,42.6 L23.7,42.5 Z" fill="#d6d2c9" stroke="#bab6ad" stroke-width="0.4"></path><path d="M80.0,58.7 L80.2,63.4 L80.9,63.4 L81.0,67.4 L81.2,71.5 L71.5,71.8 L71.1,59.0 L75.6,58.8 L80.0,58.7 Z" fill="#d6d2c9" stroke="#bab6ad" stroke-width="0.4"></path><path d="M146.7,221.4 L139.9,221.6 L139.7,214.5 L145.5,214.3 L146.5,214.7 L146.7,221.4 Z" fill="#d6d2c9" stroke="#bab6ad" stroke-width="0.4"></path><path d="M175.2,92.2 L175.2,94.5 L179.1,94.4 L179.9,104.8 L170.8,105.1 L170.7,101.2 L171.2,101.2 L170.9,92.4 L175.2,92.2 Z" fill="#d6d2c9" stroke="#bab6ad" stroke-width="0.4"></path><path d="M61.8,113.8 L62.1,125.6 L53.7,125.9 L53.0,117.8 L51.7,117.9 L51.6,114.1 L61.8,113.8 Z" fill="#d6d2c9" stroke="#bab6ad" stroke-width="0.4"></path><path d="M60.6,245.5 L52.7,245.8 L51.8,224.7 L59.6,224.3 L60.6,245.5 Z" fill="#d6d2c9" stroke="#bab6ad" stroke-width="0.4"></path><path d="M209.5,215.5 L209.5,218.5 L210.3,218.5 L210.4,221.5 L210.5,224.5 L208.3,224.6 L208.6,236.5 L203.0,236.6 L203.1,237.9 L200.6,238.0 L198.1,238.1 L197.8,225.7 L200.6,225.7 L200.6,224.1 L203.9,224.0 L203.7,215.7 L206.6,215.6 L209.5,215.5 Z" fill="#d6d2c9" stroke="#bab6ad" stroke-width="0.4"></path><path d="M181.5,106.7 L181.7,116.3 L173.8,116.5 L173.8,116.1 L171.7,116.1 L171.5,107.5 L173.5,107.4 L173.5,106.9 L181.5,106.7 Z" fill="#d6d2c9" stroke="#bab6ad" stroke-width="0.4"></path><path d="M168.3,143.4 L168.4,146.0 L171.4,145.8 L171.9,156.6 L164.9,156.9 L164.9,155.8 L161.8,156.0 L161.6,150.7 L164.6,150.6 L164.3,143.6 L168.3,143.4 Z" fill="#d6d2c9" stroke="#bab6ad" stroke-width="0.4"></path><path d="M262.4,96.0 L254.1,96.3 L253.8,86.8 L263.4,86.5 L263.5,90.3 L262.2,90.3 L262.4,96.0 Z" fill="#d6d2c9" stroke="#bab6ad" stroke-width="0.4"></path><path d="M219.9,225.1 L220.2,231.2 L223.5,231.1 L223.7,235.1 L223.9,239.2 L217.1,239.5 L217.1,240.7 L215.0,240.8 L212.8,240.9 L212.0,225.5 L215.9,225.3 L219.9,225.1 Z" fill="#d6d2c9" stroke="#bab6ad" stroke-width="0.4"></path><path d="M233.6,211.9 L233.9,219.3 L237.8,219.2 L237.9,223.7 L233.4,223.8 L233.3,219.9 L226.9,220.2 L226.6,212.2 L233.6,211.9 Z" fill="#d6d2c9" stroke="#bab6ad" stroke-width="0.4"></path><path d="M61.4,93.1 L61.4,93.6 L65.7,93.5 L66.0,102.5 L62.0,102.6 L62.0,105.3 L58.2,105.5 L58.3,109.3 L48.7,109.7 L48.1,94.1 L56.5,93.8 L56.5,93.3 L59.0,93.2 L61.4,93.1 Z" fill="#d6d2c9" stroke="#bab6ad" stroke-width="0.4"></path><path d="M77.8,16.9 L78.5,34.3 L68.0,34.7 L67.7,26.0 L67.2,26.0 L67.1,24.0 L67.0,22.0 L73.3,21.7 L73.1,17.1 L77.8,16.9 Z" fill="#d6d2c9" stroke="#bab6ad" stroke-width="0.4"></path><path d="M2.7,138.9 L3.9,155.7 L1.0,155.9 L-2.0,156.2 L-2.4,150.8 L-8.1,151.3 L-8.6,145.5 L-9.0,139.8 L2.7,138.9 Z" fill="#d6d2c9" stroke="#bab6ad" stroke-width="0.4"></path><path d="M257.3,122.8 L257.5,133.0 L254.2,133.1 L254.2,132.1 L245.7,132.3 L245.5,123.0 L257.3,122.8 Z" fill="#d6d2c9" stroke="#bab6ad" stroke-width="0.4"></path><path d="M79.4,4.9 L80.1,28.8 L93.6,28.3 L93.1,12.5 L91.2,12.5 L90.9,2.2 L82.8,2.5 L82.8,4.8 L79.4,4.9 Z" fill="#d6d2c9" stroke="#bab6ad" stroke-width="0.4"></path><path d="M52.0,0.6 L52.6,23.7 L63.9,23.4 L63.2,0.3 L52.0,0.6 Z" fill="#d6d2c9" stroke="#bab6ad" stroke-width="0.4"></path><path d="M95.8,223.6 L104.5,222.9 L105.7,238.3 L97.0,239.0 L95.8,223.6 Z" fill="#d6d2c9" stroke="#bab6ad" stroke-width="0.4"></path><path d="M-174.7,259.4 L-27.8,254.7 L28.2,252.9 L29.5,252.7 L30.8,252.1 L32.3,251.1 L33.5,249.8 L34.3,248.5 L35.0,247.1 L35.3,245.9 L33.4,190.9 L33.3,189.5 L33.0,188.3 L32.5,187.2 L32.0,186.1 L31.2,185.3 L30.2,184.5 L29.2,183.8 L28.3,183.4 L27.4,183.1 L26.4,183.1 L-174.8,189.6" fill="none" stroke="#cf828d" stroke-width="1.3" stroke-dasharray="1.6 3.0" opacity="0.62" stroke-linecap="round" stroke-linejoin="round"></path><path d="M37.9,252.7 L37.6,259.1 L37.3,264.0" fill="none" stroke="#cf828d" stroke-width="1.3" stroke-dasharray="1.6 3.0" opacity="0.62" stroke-linecap="round" stroke-linejoin="round"></path><path d="M45.6,251.9 L41.8,252.3 L37.9,252.7" fill="none" stroke="#cf828d" stroke-width="1.3" stroke-dasharray="1.6 3.0" opacity="0.62" stroke-linecap="round" stroke-linejoin="round"></path><path d="M47.5,264.4 L46.6,258.9 L45.6,251.9" fill="none" stroke="#cf828d" stroke-width="1.3" stroke-dasharray="1.6 3.0" opacity="0.62" stroke-linecap="round" stroke-linejoin="round"></path><path d="M255.6,245.8 L261.6,245.6 L263.3,245.5 L264.7,245.3 L265.8,245.0 L266.9,244.4 L268.1,243.5 L269.1,242.4 L269.7,241.1 L270.1,239.7 L270.4,238.4 L270.4,236.8 L268.4,183.4 L268.2,182.1 L267.8,180.9 L267.2,179.5 L266.5,178.3 L265.7,177.6 L264.9,176.9 L263.6,176.4 L262.6,176.0 L261.6,175.8 L260.3,175.7 L253.0,175.9 L54.5,182.1 L53.0,182.2 L52.0,182.4 L50.9,182.7 L49.6,183.4 L48.4,184.3 L47.9,184.9 L47.6,185.2 L46.9,186.1 L46.5,187.1 L46.1,188.3 L46.0,189.5 L46.6,211.8 L47.4,229.5 L48.0,243.1 L48.2,244.6 L48.4,245.9 L48.8,247.2 L49.3,248.6 L50.1,249.9 L51.1,251.0 L52.5,251.9 L53.8,252.3 L54.9,252.4 L255.6,245.8" fill="none" stroke="#cf828d" stroke-width="1.3" stroke-dasharray="1.6 3.0" opacity="0.62" stroke-linecap="round" stroke-linejoin="round"></path><path d="M195.3,165.1 L254.8,163.3 L259.4,163.1 L260.9,162.8 L262.3,162.2 L263.6,161.3 L264.8,160.0 L265.7,158.5 L266.3,156.9 L266.4,155.7 L265.6,133.7" fill="none" stroke="#cf828d" stroke-width="1.3" stroke-dasharray="1.6 3.0" opacity="0.62" stroke-linecap="round" stroke-linejoin="round"></path><path d="M264.2,-12.8 L254.9,-12.6 L48.5,-6.1 L46.9,-6.1 L45.5,-6.0 L44.3,-5.7 L42.8,-5.0 L41.7,-4.2 L41.4,-3.8 L40.6,-3.1 L40.0,-1.9 L39.5,-0.7 L39.2,0.6 L39.1,2.0 L40.2,35.9" fill="none" stroke="#cf828d" stroke-width="1.3" stroke-dasharray="1.6 3.0" opacity="0.62" stroke-linecap="round" stroke-linejoin="round"></path><path d="M-171.1,95.8 L24.1,89.7 L24.9,89.7 L25.7,89.7 L26.4,89.9 L27.1,90.3 L27.9,90.7 L28.5,91.3 L28.9,92.0 L29.2,92.8 L29.3,93.6 L30.5,130.0 L31.6,131.0 L33.0,171.5 L5.7,172.3 L-1.2,171.3 L-64.3,173.2" fill="none" stroke="#cf828d" stroke-width="1.3" stroke-dasharray="1.6 3.0" opacity="0.62" stroke-linecap="round" stroke-linejoin="round"></path><path d="M82.1,168.7 L52.1,169.6 L50.9,169.5 L49.7,169.2 L48.9,168.9 L48.5,168.7 L47.3,167.9 L46.4,167.2 L45.7,166.4 L45.1,165.3 L44.6,164.1 L44.4,162.9 L44.2,161.2 L43.2,128.0" fill="none" stroke="#cf828d" stroke-width="1.3" stroke-dasharray="1.6 3.0" opacity="0.62" stroke-linecap="round" stroke-linejoin="round"></path><path d="M31.2,185.3 L33.4,183.4" fill="none" stroke="#cf828d" stroke-width="1.3" stroke-dasharray="1.6 3.0" opacity="0.62" stroke-linecap="round" stroke-linejoin="round"></path><path d="M47.9,184.9 L44.2,182.3" fill="none" stroke="#cf828d" stroke-width="1.3" stroke-dasharray="1.6 3.0" opacity="0.62" stroke-linecap="round" stroke-linejoin="round"></path><path d="M33.0,171.5 L34.5,172.5" fill="none" stroke="#cf828d" stroke-width="1.3" stroke-dasharray="1.6 3.0" opacity="0.62" stroke-linecap="round" stroke-linejoin="round"></path><path d="M46.9,173.5 L48.9,168.9" fill="none" stroke="#cf828d" stroke-width="1.3" stroke-dasharray="1.6 3.0" opacity="0.62" stroke-linecap="round" stroke-linejoin="round"></path><path d="M33.4,183.4 L39.1,182.8 L44.2,182.3" fill="none" stroke="#cf828d" stroke-width="1.3" stroke-dasharray="1.6 3.0" opacity="0.62" stroke-linecap="round" stroke-linejoin="round"></path><path d="M46.9,173.5 L38.8,172.9 L34.5,172.5" fill="none" stroke="#cf828d" stroke-width="1.3" stroke-dasharray="1.6 3.0" opacity="0.62" stroke-linecap="round" stroke-linejoin="round"></path><path d="M34.5,172.5 L34.0,177.6 L33.4,183.4" fill="none" stroke="#cf828d" stroke-width="1.3" stroke-dasharray="1.6 3.0" opacity="0.62" stroke-linecap="round" stroke-linejoin="round"></path><path d="M44.2,182.3 L45.8,177.0 L46.9,173.5" fill="none" stroke="#cf828d" stroke-width="1.3" stroke-dasharray="1.6 3.0" opacity="0.62" stroke-linecap="round" stroke-linejoin="round"></path><path d="M255.9,82.5 L209.4,83.7" fill="none" stroke="#cf828d" stroke-width="1.3" stroke-dasharray="1.6 3.0" opacity="0.62" stroke-linecap="round" stroke-linejoin="round"></path><path d="M194.5,84.4 L46.2,88.8 L45.3,88.8 L44.5,89.0 L43.8,89.4 L43.1,89.9 L42.7,90.5 L42.2,91.5 L42.0,92.5 L42.0,93.6 L42.5,112.3" fill="none" stroke="#cf828d" stroke-width="1.3" stroke-dasharray="1.6 3.0" opacity="0.62" stroke-linecap="round" stroke-linejoin="round"></path><path d="M194.5,84.4 L209.4,83.7" fill="none" stroke="#cf828d" stroke-width="1.3" stroke-dasharray="1.6 3.0" opacity="0.62" stroke-linecap="round" stroke-linejoin="round"></path><path d="M42.5,112.3 L43.2,128.0" fill="none" stroke="#cf828d" stroke-width="1.3" stroke-dasharray="1.6 3.0" opacity="0.62" stroke-linecap="round" stroke-linejoin="round"></path><path d="M2.7,77.7 L-162.1,82.9" fill="none" stroke="#cf828d" stroke-width="1.3" stroke-dasharray="1.6 3.0" opacity="0.62" stroke-linecap="round" stroke-linejoin="round"></path><path d="M-75.0,-2.2 L16.8,-5.2 L18.2,-5.2 L19.6,-5.1 L20.9,-4.8 L22.3,-4.2 L23.5,-3.3 L24.5,-2.5 L25.3,-1.3 L25.8,-0.1 L26.1,0.9 L26.3,1.9 L26.5,3.5 L27.5,38.1" fill="none" stroke="#cf828d" stroke-width="1.3" stroke-dasharray="1.6 3.0" opacity="0.62" stroke-linecap="round" stroke-linejoin="round"></path><path d="M396.0,166.9 L282.8,170.1 L273.3,169.7 L268.5,169.7 L264.9,169.6 L49.3,176.8 L45.8,177.0 L38.9,177.3 L34.0,177.6 L30.2,177.9 L-178.0,184.7" fill="none" stroke="#cec8bb" stroke-width="4.3" stroke-linecap="round" stroke-linejoin="round"/><path d="M396.0,166.9 L282.8,170.1 L273.3,169.7 L268.5,169.7 L264.9,169.6 L49.3,176.8 L45.8,177.0 L38.9,177.3 L34.0,177.6 L30.2,177.9 L-178.0,184.7" fill="none" stroke="#ffffff" stroke-width="3.2" stroke-linecap="round" stroke-linejoin="round"><title>Southwest 24th Street</title></path><path d="M560.3,242.6 L287.0,251.2 L283.2,251.4 L276.9,251.6 L271.9,251.7 L268.2,251.8 L50.7,258.8 L46.6,258.9 L42.0,258.9 L37.6,259.1 L34.0,259.2 L-173.5,265.9" fill="none" stroke="#cec8bb" stroke-width="4.3" stroke-linecap="round" stroke-linejoin="round"/><path d="M560.3,242.6 L287.0,251.2 L283.2,251.4 L276.9,251.6 L271.9,251.7 L268.2,251.8 L50.7,258.8 L46.6,258.9 L42.0,258.9 L37.6,259.1 L34.0,259.2 L-173.5,265.9" fill="none" stroke="#ffffff" stroke-width="3.2" stroke-linecap="round" stroke-linejoin="round"><title>Southwest 24th Terrace</title></path><path d="M270.1,76.1 L262.7,76.3 L43.7,82.9 L35.3,83.2 L26.4,83.5 L-162.1,89.9" fill="none" stroke="#cec8bb" stroke-width="4.3" stroke-linecap="round" stroke-linejoin="round"/><path d="M270.1,76.1 L262.7,76.3 L43.7,82.9 L35.3,83.2 L26.4,83.5 L-162.1,89.9" fill="none" stroke="#ffffff" stroke-width="3.2" stroke-linecap="round" stroke-linejoin="round"><title>Southwest 23rd Terrace</title></path><path d="M29.2,-103.0 L31.5,-26.4 L31.6,-23.0 L32.0,-14.3 L32.3,-8.2 L32.5,-5.9 L35.0,74.9 L35.3,83.2 L35.6,91.3 L38.7,169.0 L38.8,172.9 L38.9,177.3 L39.1,182.8 L39.2,186.1 L41.7,250.1 L41.8,252.3 L42.0,258.9 L42.1,264.2 L42.3,268.4 L44.6,332.2" fill="none" stroke="#cec8bb" stroke-width="4.3" stroke-linecap="round" stroke-linejoin="round"/><path d="M29.2,-103.0 L31.5,-26.4 L31.6,-23.0 L32.0,-14.3 L32.3,-8.2 L32.5,-5.9 L35.0,74.9 L35.3,83.2 L35.6,91.3 L38.7,169.0 L38.8,172.9 L38.9,177.3 L39.1,182.8 L39.2,186.1 L41.7,250.1 L41.8,252.3 L42.0,258.9 L42.1,264.2 L42.3,268.4 L44.6,332.2" fill="none" stroke="#ffffff" stroke-width="3.2" stroke-linecap="round" stroke-linejoin="round"><title>Southwest 36th Avenue</title></path><text x="144.6" y="173.6" transform="rotate(-1.9 144.6 173.6)" text-anchor="middle" dominant-baseline="central" font-family="Arial, sans-serif" font-size="8.3" textLength="111.6" lengthAdjust="spacing" font-weight="650" paint-order="stroke" stroke="#fffaf0" stroke-width="2.05" stroke-linejoin="round" fill="#695f54">Southwest 24th Street</text><text x="141.8" y="80.0" transform="rotate(-1.7 141.8 80.0)" text-anchor="middle" dominant-baseline="central" font-family="Arial, sans-serif" font-size="8.3" textLength="116.9" lengthAdjust="spacing" font-weight="650" paint-order="stroke" stroke="#fffaf0" stroke-width="2.05" stroke-linejoin="round" fill="#695f54">Southwest 23rd Terrace</text><text x="37.1" y="130.1" transform="rotate(87.7 37.1 130.1)" text-anchor="middle" dominant-baseline="central" font-family="Arial, sans-serif" font-size="8.3" textLength="111.6" lengthAdjust="spacing" font-weight="650" paint-order="stroke" stroke="#fffaf0" stroke-width="2.05" stroke-linejoin="round" fill="#695f54">Southwest 36th Avenue</text><text x="59.1" y="193.5" text-anchor="middle" font-family="Arial, sans-serif" font-size="6.5" textLength="18.0" lengthAdjust="spacing" font-weight="500" paint-order="stroke" stroke="#f3f5ee" stroke-width="1.55" stroke-linejoin="round" fill="#6f777a">3560</text><text x="158.8" y="16.5" text-anchor="middle" font-family="Arial, sans-serif" font-size="6.5" textLength="18.0" lengthAdjust="spacing" font-weight="500" paint-order="stroke" stroke="#f3f5ee" stroke-width="1.55" stroke-linejoin="round" fill="#6f777a">3470</text><text x="160.6" y="106.0" text-anchor="middle" font-family="Arial, sans-serif" font-size="6.5" textLength="18.0" lengthAdjust="spacing" font-weight="500" paint-order="stroke" stroke="#f3f5ee" stroke-width="1.55" stroke-linejoin="round" fill="#6f777a">3460</text><text x="88.4" y="196.3" text-anchor="middle" font-family="Arial, sans-serif" font-size="6.5" textLength="18.0" lengthAdjust="spacing" font-weight="500" paint-order="stroke" stroke="#f3f5ee" stroke-width="1.55" stroke-linejoin="round" fill="#6f777a">3544</text><text x="231.4" y="105.9" text-anchor="middle" font-family="Arial, sans-serif" font-size="6.5" textLength="18.0" lengthAdjust="spacing" font-weight="500" paint-order="stroke" stroke="#f3f5ee" stroke-width="1.55" stroke-linejoin="round" fill="#6f777a">3420</text><text x="212.3" y="142.5" text-anchor="middle" font-family="Arial, sans-serif" font-size="6.5" textLength="18.0" lengthAdjust="spacing" font-weight="500" paint-order="stroke" stroke="#f3f5ee" stroke-width="1.55" stroke-linejoin="round" fill="#6f777a">3431</text><text x="175.6" y="228.5" text-anchor="middle" font-family="Arial, sans-serif" font-size="6.5" textLength="18.0" lengthAdjust="spacing" font-weight="500" paint-order="stroke" stroke="#f3f5ee" stroke-width="1.55" stroke-linejoin="round" fill="#6f777a">3471</text><text x="143.8" y="197.2" text-anchor="middle" font-family="Arial, sans-serif" font-size="6.5" textLength="18.0" lengthAdjust="spacing" font-weight="500" paint-order="stroke" stroke="#f3f5ee" stroke-width="1.55" stroke-linejoin="round" fill="#6f777a">3500</text><text x="177.7" y="143.5" text-anchor="middle" font-family="Arial, sans-serif" font-size="6.5" textLength="18.0" lengthAdjust="spacing" font-weight="500" paint-order="stroke" stroke="#f3f5ee" stroke-width="1.55" stroke-linejoin="round" fill="#6f777a">3461</text><text x="147.4" y="234.7" text-anchor="middle" font-family="Arial, sans-serif" font-size="6.5" textLength="18.0" lengthAdjust="spacing" font-weight="500" paint-order="stroke" stroke="#f3f5ee" stroke-width="1.55" stroke-linejoin="round" fill="#6f777a">3511</text><text x="241.0" y="146.8" text-anchor="middle" font-family="Arial, sans-serif" font-size="6.5" textLength="18.0" lengthAdjust="spacing" font-weight="500" paint-order="stroke" stroke="#f3f5ee" stroke-width="1.55" stroke-linejoin="round" fill="#6f777a">3405</text><text x="62.9" y="155.8" text-anchor="middle" font-family="Arial, sans-serif" font-size="6.5" textLength="18.0" lengthAdjust="spacing" font-weight="500" paint-order="stroke" stroke="#f3f5ee" stroke-width="1.55" stroke-linejoin="round" fill="#6f777a">2389</text><text x="187.5" y="105.4" text-anchor="middle" font-family="Arial, sans-serif" font-size="6.5" textLength="18.0" lengthAdjust="spacing" font-weight="500" paint-order="stroke" stroke="#f3f5ee" stroke-width="1.55" stroke-linejoin="round" fill="#6f777a">3442</text><text x="228.4" y="16.5" text-anchor="middle" font-family="Arial, sans-serif" font-size="6.5" textLength="18.0" lengthAdjust="spacing" font-weight="500" paint-order="stroke" stroke="#f3f5ee" stroke-width="1.55" stroke-linejoin="round" fill="#6f777a">3410</text><text x="15.0" y="201.2" text-anchor="middle" font-family="Arial, sans-serif" font-size="6.5" textLength="18.0" lengthAdjust="spacing" font-weight="500" paint-order="stroke" stroke="#f3f5ee" stroke-width="1.55" stroke-linejoin="round" fill="#6f777a">3610</text><text x="88.4" y="151.9" text-anchor="middle" font-family="Arial, sans-serif" font-size="6.5" textLength="18.0" lengthAdjust="spacing" font-weight="500" paint-order="stroke" stroke="#f3f5ee" stroke-width="1.55" stroke-linejoin="round" fill="#6f777a">3541</text><text x="131.3" y="53.6" text-anchor="middle" font-family="Arial, sans-serif" font-size="6.5" textLength="18.0" lengthAdjust="spacing" font-weight="500" paint-order="stroke" stroke="#f3f5ee" stroke-width="1.55" stroke-linejoin="round" fill="#6f777a">3507</text><text x="123.6" y="232.9" text-anchor="middle" font-family="Arial, sans-serif" font-size="6.5" textLength="18.0" lengthAdjust="spacing" font-weight="500" paint-order="stroke" stroke="#f3f5ee" stroke-width="1.55" stroke-linejoin="round" fill="#6f777a">3527</text><text x="132.8" y="106.9" text-anchor="middle" font-family="Arial, sans-serif" font-size="6.5" textLength="18.0" lengthAdjust="spacing" font-weight="500" paint-order="stroke" stroke="#f3f5ee" stroke-width="1.55" stroke-linejoin="round" fill="#6f777a">3504</text><text x="67.4" y="233.9" text-anchor="middle" font-family="Arial, sans-serif" font-size="6.5" textLength="18.0" lengthAdjust="spacing" font-weight="500" paint-order="stroke" stroke="#f3f5ee" stroke-width="1.55" stroke-linejoin="round" fill="#6f777a">3557</text><text x="241.0" y="58.7" text-anchor="middle" font-family="Arial, sans-serif" font-size="6.5" textLength="18.0" lengthAdjust="spacing" font-weight="500" paint-order="stroke" stroke="#f3f5ee" stroke-width="1.55" stroke-linejoin="round" fill="#6f777a">2320</text><text x="241.0" y="191.8" text-anchor="middle" font-family="Arial, sans-serif" font-size="6.5" textLength="18.0" lengthAdjust="spacing" font-weight="500" paint-order="stroke" stroke="#f3f5ee" stroke-width="1.55" stroke-linejoin="round" fill="#6f777a">3410</text><text x="160.5" y="52.8" text-anchor="middle" font-family="Arial, sans-serif" font-size="6.5" textLength="18.0" lengthAdjust="spacing" font-weight="500" paint-order="stroke" stroke="#f3f5ee" stroke-width="1.55" stroke-linejoin="round" fill="#6f777a">3465</text><text x="90.1" y="235.4" text-anchor="middle" font-family="Arial, sans-serif" font-size="6.5" textLength="18.0" lengthAdjust="spacing" font-weight="500" paint-order="stroke" stroke="#f3f5ee" stroke-width="1.55" stroke-linejoin="round" fill="#6f777a">3547</text><text x="56.9" y="64.9" text-anchor="middle" font-family="Arial, sans-serif" font-size="6.5" textLength="18.0" lengthAdjust="spacing" font-weight="500" paint-order="stroke" stroke="#f3f5ee" stroke-width="1.55" stroke-linejoin="round" fill="#6f777a">3551</text><text x="76.0" y="109.8" text-anchor="middle" font-family="Arial, sans-serif" font-size="6.5" textLength="18.0" lengthAdjust="spacing" font-weight="500" paint-order="stroke" stroke="#f3f5ee" stroke-width="1.55" stroke-linejoin="round" fill="#6f777a">3560</text><text x="15.0" y="234.7" text-anchor="middle" font-family="Arial, sans-serif" font-size="6.5" textLength="18.0" lengthAdjust="spacing" font-weight="500" paint-order="stroke" stroke="#f3f5ee" stroke-width="1.55" stroke-linejoin="round" fill="#6f777a">3609</text><text x="200.3" y="57.3" text-anchor="middle" font-family="Arial, sans-serif" font-size="6.5" textLength="18.0" lengthAdjust="spacing" font-weight="500" paint-order="stroke" stroke="#f3f5ee" stroke-width="1.55" stroke-linejoin="round" fill="#6f777a">3435</text><text x="103.2" y="49.7" text-anchor="middle" font-family="Arial, sans-serif" font-size="6.5" textLength="18.0" lengthAdjust="spacing" font-weight="500" paint-order="stroke" stroke="#f3f5ee" stroke-width="1.55" stroke-linejoin="round" fill="#6f777a">3535</text><text x="15.0" y="149.0" text-anchor="middle" font-family="Arial, sans-serif" font-size="6.5" textLength="18.0" lengthAdjust="spacing" font-weight="500" paint-order="stroke" stroke="#f3f5ee" stroke-width="1.55" stroke-linejoin="round" fill="#6f777a">3609</text><text x="185.5" y="16.5" text-anchor="middle" font-family="Arial, sans-serif" font-size="6.5" textLength="18.0" lengthAdjust="spacing" font-weight="500" paint-order="stroke" stroke="#f3f5ee" stroke-width="1.55" stroke-linejoin="round" fill="#6f777a">3446</text><text x="15.0" y="109.1" text-anchor="middle" font-family="Arial, sans-serif" font-size="6.5" textLength="18.0" lengthAdjust="spacing" font-weight="500" paint-order="stroke" stroke="#f3f5ee" stroke-width="1.55" stroke-linejoin="round" fill="#6f777a">3612</text><text x="151.4" y="150.9" text-anchor="middle" font-family="Arial, sans-serif" font-size="6.5" textLength="18.0" lengthAdjust="spacing" font-weight="500" paint-order="stroke" stroke="#f3f5ee" stroke-width="1.55" stroke-linejoin="round" fill="#6f777a">3491</text><text x="53.1" y="44.2" text-anchor="middle" font-family="Arial, sans-serif" font-size="6.5" textLength="18.0" lengthAdjust="spacing" font-weight="500" paint-order="stroke" stroke="#f3f5ee" stroke-width="1.55" stroke-linejoin="round" fill="#6f777a">2321</text><text x="241.0" y="39.5" text-anchor="middle" font-family="Arial, sans-serif" font-size="6.5" textLength="18.0" lengthAdjust="spacing" font-weight="500" paint-order="stroke" stroke="#f3f5ee" stroke-width="1.55" stroke-linejoin="round" fill="#6f777a">2310</text><text x="119.5" y="147.5" text-anchor="middle" font-family="Arial, sans-serif" font-size="6.5" textLength="18.0" lengthAdjust="spacing" font-weight="500" paint-order="stroke" stroke="#f3f5ee" stroke-width="1.55" stroke-linejoin="round" fill="#6f777a">3511</text><text x="232.1" y="227.3" text-anchor="middle" font-family="Arial, sans-serif" font-size="6.5" textLength="18.0" lengthAdjust="spacing" font-weight="500" paint-order="stroke" stroke="#f3f5ee" stroke-width="1.55" stroke-linejoin="round" fill="#6f777a">3415</text><text x="77.2" y="49.1" text-anchor="middle" font-family="Arial, sans-serif" font-size="6.5" textLength="18.0" lengthAdjust="spacing" font-weight="500" paint-order="stroke" stroke="#f3f5ee" stroke-width="1.55" stroke-linejoin="round" fill="#6f777a">3545</text><text x="216.2" y="40.8" text-anchor="middle" font-family="Arial, sans-serif" font-size="6.5" textLength="18.0" lengthAdjust="spacing" font-weight="500" paint-order="stroke" stroke="#f3f5ee" stroke-width="1.55" stroke-linejoin="round" fill="#6f777a">3429</text><text x="104.4" y="100.8" text-anchor="middle" font-family="Arial, sans-serif" font-size="6.5" textLength="18.0" lengthAdjust="spacing" font-weight="500" paint-order="stroke" stroke="#f3f5ee" stroke-width="1.55" stroke-linejoin="round" fill="#6f777a">3530</text><text x="55.7" y="119.2" text-anchor="middle" font-family="Arial, sans-serif" font-size="6.5" textLength="18.0" lengthAdjust="spacing" font-weight="500" paint-order="stroke" stroke="#f3f5ee" stroke-width="1.55" stroke-linejoin="round" fill="#6f777a">2355</text><text x="205.0" y="225.9" text-anchor="middle" font-family="Arial, sans-serif" font-size="6.5" textLength="18.0" lengthAdjust="spacing" font-weight="500" paint-order="stroke" stroke="#f3f5ee" stroke-width="1.55" stroke-linejoin="round" fill="#6f777a">3435</text><text x="71.1" y="24.7" text-anchor="middle" font-family="Arial, sans-serif" font-size="6.5" textLength="18.0" lengthAdjust="spacing" font-weight="500" paint-order="stroke" stroke="#f3f5ee" stroke-width="1.55" stroke-linejoin="round" fill="#6f777a">3560</text><text x="241.0" y="129.4" text-anchor="middle" font-family="Arial, sans-serif" font-size="6.5" textLength="18.0" lengthAdjust="spacing" font-weight="500" paint-order="stroke" stroke="#f3f5ee" stroke-width="1.55" stroke-linejoin="round" fill="#6f777a">2370</text><text x="42.9" y="16.5" text-anchor="middle" font-family="Arial, sans-serif" font-size="6.5" textLength="18.0" lengthAdjust="spacing" font-weight="500" paint-order="stroke" stroke="#f3f5ee" stroke-width="1.55" stroke-linejoin="round" fill="#6f777a">3582</text><text x="15.0" y="56.0" text-anchor="middle" font-family="Arial, sans-serif" font-size="6.5" textLength="18.0" lengthAdjust="spacing" font-weight="500" paint-order="stroke" stroke="#f3f5ee" stroke-width="1.55" stroke-linejoin="round" fill="#6f777a">3613</text><text x="15.0" y="21.3" text-anchor="middle" font-family="Arial, sans-serif" font-size="6.5" textLength="18.0" lengthAdjust="spacing" font-weight="500" paint-order="stroke" stroke="#f3f5ee" stroke-width="1.55" stroke-linejoin="round" fill="#6f777a">2306</text><text x="96.1" y="16.5" text-anchor="middle" font-family="Arial, sans-serif" font-size="6.5" textLength="18.0" lengthAdjust="spacing" font-weight="500" paint-order="stroke" stroke="#f3f5ee" stroke-width="1.55" stroke-linejoin="round" fill="#6f777a">3532</text><text x="114.3" y="193.6" text-anchor="middle" font-family="Arial, sans-serif" font-size="6.5" textLength="18.0" lengthAdjust="spacing" font-weight="500" paint-order="stroke" stroke="#f3f5ee" stroke-width="1.55" stroke-linejoin="round" fill="#6f777a">3536</text><text x="127.5" y="16.5" text-anchor="middle" font-family="Arial, sans-serif" font-size="6.5" textLength="18.0" lengthAdjust="spacing" font-weight="500" paint-order="stroke" stroke="#f3f5ee" stroke-width="1.55" stroke-linejoin="round" fill="#6f777a">3512</text><text x="213.3" y="190.3" text-anchor="middle" font-family="Arial, sans-serif" font-size="6.5" textLength="18.0" lengthAdjust="spacing" font-weight="500" paint-order="stroke" stroke="#f3f5ee" stroke-width="1.55" stroke-linejoin="round" fill="#6f777a">3430</text></svg>