<svg xmlns="http://www.w3.org/2000/svg" width="256" height="256" viewBox="0 0 256 256"><rect width="256" height="256" fill="#f1efe7"/><path d="M-15370.7,16594.3 L-15155.9,16505.0 L-15088.7,16472.7 L-14788.2,16328.4 L-14731.8,16383.0 L-14726.9,16387.7 L-14621.5,16297.5 L-14596.4,16278.4 L-14554.5,16240.6 L-14318.4,16023.8 L-14127.9,15806.2 L-14120.6,15792.3 L-14113.6,15784.4 L-14102.5,15771.7 L-14091.2,15758.8 L-14086.6,15753.5 L-14161.7,15656.4 L-14062.3,15596.8 L-14008.4,15668.5 L-13932.2,15581.3 L-13996.7,15495.9 L-13916.8,15412.6 L-13855.3,15493.6 L-13784.7,15413.2 L-13754.6,15393.5 L-13607.4,15298.0 L-13534.7,15249.7 L-13447.1,15192.1 L-13405.7,15164.9 L-13300.8,15097.2 L-13327.8,15061.7 L-13376.1,14997.0 L-13251.2,14917.6 L-13205.7,14894.1 L-13202.2,14891.6 L-13178.2,14873.1 L-13092.6,14827.3 L-13086.7,14818.1 L-13062.7,14801.6 L-13049.7,14782.6 L-13046.0,14779.8 L-13025.1,14771.7 L-12977.9,14754.8 L-12945.6,14740.6 L-12831.5,14687.0 L-12830.1,14690.7 L-12734.4,14649.8 L-12695.3,14699.9 L-12608.2,14641.8 L-12595.8,14633.3 L-12594.6,14632.3 L-12593.4,14630.7 L-12591.5,14627.4 L-12590.5,14624.3 L-12589.9,14620.6 L-12590.0,14617.6 L-12590.4,14614.7 L-12590.8,14611.4 L-12590.9,14608.9 L-12590.7,14606.8 L-12590.3,14604.6 L-12588.7,14600.6 L-12587.6,14598.4 L-12585.1,14594.6 L-12582.5,14591.8 L-12569.8,14586.7 L-12559.2,14582.7 L-12545.7,14578.3 L-12539.4,14576.6 L-12528.2,14572.9 L-12520.3,14570.1 L-12509.4,14565.6 L-12494.6,14559.1 L-12478.6,14551.6 L-12470.0,14547.4 L-12459.2,14541.9 L-12449.1,14536.3 L-12439.0,14530.3 L-12428.7,14523.6 L-12425.5,14521.4 L-12404.8,14505.6 L-12387.4,14492.2 L-12370.4,14477.8 L-12354.5,14462.8 L-12343.0,14449.9 L-12331.6,14436.0 L-12317.6,14418.0 L-12304.8,14400.0 L-12290.1,14376.9 L-12280.5,14359.0 L-12274.5,14347.6 L-12265.6,14328.3 L-12258.1,14310.4 L-12251.4,14291.1 L-12246.0,14274.2 L-12240.1,14246.8 L-12235.8,14222.3 L-12233.5,14201.3 L-12231.5,14176.5 L-12231.3,14150.0 L-12232.9,14125.5 L-12237.1,14093.5 L-12241.5,14071.7 L-12246.5,14051.1 L-12253.9,14027.7 L-12260.2,14009.8 L-12267.4,13990.3 L-12274.2,13974.1 L-12278.8,13963.6 L-12280.7,13955.9 L-12281.0,13950.0 L-12280.4,13944.7 L-12278.3,13940.1 L-12275.1,13936.2 L-12270.9,13934.0 L-12266.4,13933.4 L-12254.3,13936.3 L-12220.6,13944.4 L-12209.4,13689.7 L-12165.7,13235.1 L-12213.2,13223.9 L-12218.4,13209.6 L-12218.2,13189.1 L-12211.6,13142.6 L-12202.6,13132.1 L-12194.6,13101.9 L-12144.1,13113.6 L-12116.3,12823.1 L-12108.6,12742.7 L-12124.3,12738.8 L-12114.8,12700.4 L-12147.1,12692.7 L-12143.0,12669.2 L-12137.3,12653.7 L-12130.2,12635.6 L-12118.2,12610.3 L-12105.3,12613.2 L-12087.9,12430.5 L-12083.8,12319.7 L-12083.0,12299.3 L-12073.6,12228.8 L-12054.9,12053.1 L-11930.1,11727.7 L-11901.6,11639.0 L-11554.9,11506.0 L-11521.0,11492.4 L-11515.1,11489.2 L-11510.5,11485.0 L-11505.4,11479.1 L-11501.5,11472.2 L-11498.9,11465.4 L-11498.3,11455.5 L-11498.8,11443.2 L-11503.4,11287.7 L-11505.1,11257.6 L-11505.6,11236.9 L-11506.3,11196.7 L-11507.1,11184.1 L-11508.6,11173.5 L-11510.7,11164.1 L-11513.8,11154.5 L-11518.7,11143.2 L-11525.9,11131.1 L-11532.9,11121.5 L-11538.3,11112.4 L-11543.8,11100.3 L-11548.4,11088.7 L-11550.2,11079.2 L-11551.6,11068.7 L-11552.3,11058.2 L-11552.0,11048.0 L-11550.8,11036.1 L-11548.0,11024.4 L-11544.3,11014.0 L-11540.4,11004.5 L-11535.4,10995.3 L-11529.3,10984.1 L-11525.3,10974.0 L-11521.8,10961.1 L-11515.4,10951.3 L-11517.6,10862.1 L-11520.9,10856.9 L-11521.9,10796.3 L-11523.6,10724.8 L-11522.4,10714.9 L-11519.2,10704.8 L-11511.2,10689.0 L-11457.7,10573.9 L-11456.6,10572.0 L-11447.2,10551.5 L-11438.3,10532.1 L-11428.3,10512.1 L-11418.5,10491.5 L-11413.7,10481.5 L-11361.1,10373.6 L-11304.9,10254.4 L-11183.3,10007.6 L-11256.4,9925.7 L-11316.0,10052.7 L-11367.5,10162.6 L-11375.3,10178.2 L-11391.2,10210.7 L-11423.0,10208.0 L-11431.7,10207.5 L-11434.8,10210.3 L-11430.6,10214.1 L-11446.9,10228.6 L-11459.8,10240.5 L-11462.2,10291.4 L-11467.0,10301.6 L-11482.6,10301.0 L-11485.2,10300.1 L-11689.6,10215.7 L-11694.0,10213.4 L-11698.7,10210.4 L-11706.1,10204.8 L-11711.8,10199.4 L-11716.6,10194.2 L-11721.3,10187.8 L-11724.9,10182.2 L-11727.7,10176.4 L-11729.9,10170.3 L-11731.4,10166.1 L-11732.5,10161.0 L-11733.3,10155.0 L-11734.1,10146.8 L-11734.1,10135.1 L-11735.5,10095.4 L-11729.9,10095.1 L-11730.7,10074.1 L-11731.6,10039.5 L-11726.4,10039.4 L-11726.8,10015.8 L-11732.7,10015.9 L-11735.4,9916.5 L-11729.8,9916.2 L-11730.7,9892.9 L-11736.1,9893.1 L-11738.4,9819.6 L-11711.4,9790.5 L-11676.9,9789.3 L-11651.2,9788.4 L-11617.3,9787.3 L-11584.7,9786.3 L-11555.5,9785.3 L-11542.8,9784.7 L-11543.4,9773.4 L-11543.6,9761.6 L-11545.5,9723.3 L-11546.2,9650.2 L-11547.2,9648.9 L-11547.4,9641.7 L-11545.3,9641.6 L-11550.4,9465.5 L-11554.8,9299.8 L-11555.5,9294.6 L-11555.9,9285.0 L-11628.1,9287.6 L-11676.1,9283.5 L-12035.4,9296.0 L-12035.5,9292.8 L-12036.2,9277.5 L-12206.6,9283.5 L-12206.9,9255.2 L-12229.4,9250.1 L-12233.4,9129.0 L-11570.6,9106.0 L-11559.6,9090.9 L-11560.0,9047.9 L-11560.8,9010.7 L-11561.4,8987.4 L-11562.3,8964.7 L-11615.0,8939.9 L-11617.1,8884.8 L-11563.1,8858.0 L-11568.0,8730.5 L-11569.4,8724.2 L-11623.1,8699.1 L-11624.8,8630.9 L-11573.8,8604.6 L-11596.5,8327.7 L-11590.5,8204.5 L-11587.5,8003.6 L-11587.7,7785.1 L-11582.9,7754.5 L-11582.6,7739.7 L-11587.4,7721.9 L-11582.4,7721.9 L-11582.4,7705.8 L-11579.4,7294.8 L-11579.9,7276.5 L-11585.6,7276.5 L-11585.4,7200.9 L-11588.7,7196.2 L-11593.9,7118.2 L-11583.6,7046.9 L-11584.9,6960.6 L-11588.4,6939.9 L-11583.1,6876.0 L-11586.7,6798.7 L-11595.7,6716.0 L-11612.8,6582.0 L-11604.7,6545.1 L-11608.3,6509.2 L-11638.9,6483.1 L-11683.8,6483.5 L-11752.2,6492.5 L-11796.7,6492.5 L-11837.1,6477.7 L-11890.2,6441.3 L-11890.2,6376.0 L-11891.6,6295.7 L-11886.4,6228.8 L-11868.8,6176.6 L-11574.1,6171.1 L-11567.3,5753.2 L-11567.3,5151.6 L-11570.4,4933.3 L4341.8,-1638.4 L4341.8,34579.8 L-15370.7,34579.8 L-15370.7,16594.3 Z" fill="#add7e1" stroke="none"><title>Biscayne Bay</title></path><path d="M-489.1,-4060.8 L-505.1,-4062.4 L-527.5,-4059.2 L-569.1,-4049.6 L-610.7,-4040.0 L-669.9,-4027.2 L-741.9,-4011.2 L-789.9,-4000.0 L-812.3,-3992.0 L-825.1,-3974.4 L-873.1,-3896.0 L-924.3,-3803.2 L-993.1,-3704.0 L-1057.1,-3619.2 L-1121.1,-3547.2 L-1173.9,-3497.6 L-1241.1,-3430.4 L-1311.5,-3366.4 L-1359.5,-3323.2 L-1420.3,-3273.6 L-1458.7,-3248.0 L-1545.1,-3201.6 L-1625.1,-3153.6 L-1676.3,-3124.8 L-1730.7,-3092.8 L-1765.9,-3062.4 L-1783.5,-3041.6 L-1791.5,-3019.2 L-1793.1,-2996.8 L-1789.9,-2966.4 L-1773.9,-2918.4 L-1761.1,-2867.2 L-1750.6,-2821.9 L-1749.9,-2819.2 L-1748.3,-2768.0 L-1749.9,-2713.6 L-1762.7,-2649.6 L-1773.9,-2611.2 L-1794.7,-2555.2 L-1812.3,-2502.4 L-1826.7,-2449.6 L-1837.9,-2395.2 L-1841.1,-2336.0 L-1837.9,-2264.0 L-1837.4,-2228.0 L-1829.9,-2192.0 L-1812.3,-2142.4 L-1781.9,-2081.6 L-1679.5,-1920.0 L-1623.5,-1846.4 L-1554.7,-1739.2 L-1489.1,-1646.4 L-1405.9,-1510.4 L-1380.3,-1459.2 L-1348.3,-1361.6 L-1329.1,-1281.6 L-1321.1,-1209.6 L-1313.1,-1126.4 L-1314.7,-1049.6 L-1325.9,-945.6 L-1335.5,-883.2 L-1357.9,-808.0 L-1377.1,-747.2 L-1405.9,-683.2 L-1433.1,-635.2 L-1465.1,-580.8 L-1505.1,-516.8 L-1548.3,-460.8 L-1591.5,-416.0 L-1645.9,-376.0 L-1719.5,-332.8 L-1761.1,-304.0 L-1805.9,-267.2 L-1834.7,-228.8 L-1877.9,-171.2 L-1905.1,-126.4 L-1929.1,-65.6 L-1941.9,-14.4 L-1957.9,43.2 L-1959.5,104.0 L-1953.1,153.6 L-1937.1,188.8 L-1895.5,236.8 L-1845.9,300.8 L-1805.9,358.4 L-1759.5,404.8 L-1719.5,435.2 L-1668.3,500.8 L-1604.3,571.2 L-1572.3,598.4 L-1516.3,628.8 L-1449.1,651.2 L-1378.7,662.4 L-1309.9,665.6 L-1225.1,659.2 L-1117.9,656.0 L-1031.5,649.6 L-957.9,646.4 L-898.7,657.6 L-855.5,681.6 L-823.5,710.4 L-797.9,745.6 L-775.5,763.2 L-737.1,777.6 L-705.1,772.8 L-682.7,769.6 L-649.1,745.6 L-634.7,724.8 L-612.3,676.8 L-586.7,616.0 L-556.3,532.8 L-543.4,471.4 L-524.4,409.3 L-507.9,341.7 L-500.3,296.0 L-503.5,238.4 L-500.3,193.6 L-489.1,163.2 L-463.5,136.0 L-431.5,115.2 L-388.3,107.2 L-337.1,104.0 L-261.9,94.4 L-165.9,81.6 L-62.6,64.4 L-45.8,57.5 L-39.3,43.3 L-36.7,29.8 L-41.8,-5.3 L-52.0,-83.0 L-63.7,-185.7 L-72.9,-259.3 L-76.7,-363.0 L-79.3,-440.3 L-79.0,-521.9 L-75.4,-616.9 L-82.2,-708.8 L-85.1,-779.6 L-84.7,-815.1 L-81.3,-868.3 L-80.6,-913.8 L-76.4,-969.4 L-74.5,-1004.4 L-73.5,-1056.4 L-68.9,-1098.0 L-61.3,-1142.9 L-50.5,-1194.3 L-35.0,-1255.0 L-17.9,-1307.2 L-7.2,-1338.2 L3.1,-1359.8 L27.2,-1409.2 L45.5,-1447.9 L54.3,-1466.3 L58.1,-1507.2 L59.7,-1571.2 L56.5,-1630.4 L46.9,-1680.0 L38.9,-1740.8 L25.7,-1807.1 L24.8,-1840.0 L25.6,-1875.8 L34.1,-1918.4 L46.9,-1958.4 L53.3,-1992.0 L51.7,-2024.0 L43.7,-2051.2 L34.1,-2078.4 L26.1,-2113.6 L21.3,-2155.2 L19.7,-2198.4 L18.1,-2260.8 L19.7,-2323.2 L21.3,-2392.0 L16.0,-2457.2 L14.2,-2504.8 L8.8,-2539.0 L2.9,-2565.4 L-7.5,-2611.2 L-26.7,-2660.8 L-50.7,-2724.8 L-66.7,-2784.0 L-98.3,-2865.9 L-148.9,-3002.2 L-178.3,-3086.9 L-217.0,-3162.4 L-263.5,-3293.1 L-277.9,-3350.4 L-297.4,-3397.6 L-317.9,-3460.8 L-333.9,-3524.8 L-354.7,-3600.0 L-367.5,-3648.0 L-370.7,-3680.0 L-383.5,-3715.2 L-389.9,-3755.2 L-413.9,-3819.2 L-426.7,-3867.2 L-436.3,-3920.0 L-447.5,-3971.2 L-458.7,-4012.8 L-465.1,-4036.8 L-471.5,-4051.2 L-489.1,-4060.8 Z" fill="#f1efe7" stroke="#8ab09d" stroke-width="0.65"></path><path d="M-957.9,646.4 L-898.7,657.6 L-855.5,681.6 L-823.5,710.4 L-797.9,745.6 L-775.5,763.2 L-737.1,777.6 L-705.1,772.8 L-682.7,769.6 L-649.1,745.6 L-634.7,724.8 L-612.3,676.8 L-586.7,616.0 L-556.3,532.8 L-543.4,471.4 L-524.4,409.3 L-507.9,341.7 L-500.3,296.0 L-503.5,238.4 L-500.3,193.6 L-489.1,163.2 L-463.5,136.0 L-431.5,115.2 L-388.3,107.2 L-337.1,104.0 L-261.9,94.4 L-165.9,81.6 L-62.6,64.4 L-45.8,57.5 L-39.3,43.3 L-36.7,29.8 L-41.8,-5.3 L-52.0,-83.0 L-63.7,-185.7 L-72.9,-259.3 L-76.7,-363.0 L-79.3,-440.3 L-79.0,-521.9 L-75.4,-616.9 L-82.2,-708.8 L-85.1,-779.6 L-84.7,-815.1 L-81.3,-868.3 L-80.6,-913.8 L-76.4,-969.4 L-74.5,-1004.4 L-73.5,-1056.4 L-68.9,-1098.0 L-61.3,-1142.9 L-50.5,-1194.3 L-35.0,-1255.0 L-17.9,-1307.2 L-7.2,-1338.2 L3.1,-1359.8 L27.2,-1409.2 L45.5,-1447.9 L54.3,-1466.3 L58.1,-1507.2 L59.7,-1571.2 L56.5,-1630.4 L46.9,-1680.0 L38.9,-1740.8 L25.7,-1807.1 L24.8,-1840.0 L25.6,-1875.8 L34.1,-1918.4 L46.9,-1958.4 L53.3,-1992.0 L51.7,-2024.0 L43.7,-2051.2 L34.1,-2078.4 L26.1,-2113.6 L21.3,-2155.2 L19.7,-2198.4 L18.1,-2260.8 L19.7,-2323.2 L21.3,-2392.0 L16.0,-2457.2 L14.2,-2504.8 L8.8,-2539.0 L2.9,-2565.4 L-7.5,-2611.2 L-26.7,-2660.8 L-50.7,-2724.8 L-66.7,-2784.0 L-98.3,-2865.9 L-148.9,-3002.2 L-178.3,-3086.9 L-217.0,-3162.4 L-263.5,-3293.1 L-277.9,-3350.4 L-297.4,-3397.6 L-317.9,-3460.8 L-333.9,-3524.8 L-354.7,-3600.0 L-367.5,-3648.0 L-370.7,-3680.0 L-383.5,-3715.2 L-389.9,-3755.2 L-413.9,-3819.2 L-426.7,-3867.2 L-436.3,-3920.0 L-447.5,-3971.2 L-458.7,-4012.8 L-465.1,-4036.8 L-471.5,-4051.2 L-489.1,-4060.8 L-505.1,-4062.4 L-527.5,-4059.2 L-569.1,-4049.6 L-610.7,-4040.0 L-669.9,-4027.2 L-741.9,-4011.2 L-789.9,-4000.0 L-812.3,-3992.0 L-825.1,-3974.4 L-873.1,-3896.0 L-924.3,-3803.2 L-993.1,-3704.0 L-1057.1,-3619.2 L-1121.1,-3547.2 L-1173.9,-3497.6 L-1241.1,-3430.4 L-1311.5,-3366.4 L-1359.5,-3323.2 L-1420.3,-3273.6 L-1458.7,-3248.0 L-1545.1,-3201.6 L-1625.1,-3153.6 L-1676.3,-3124.8 L-1730.7,-3092.8 L-1765.9,-3062.4 L-1783.5,-3041.6 L-1791.5,-3019.2 L-1793.1,-2996.8 L-1789.9,-2966.4 L-1773.9,-2918.4 L-1750.6,-2821.9 L-1749.9,-2819.2 L-1748.3,-2768.0 L-1749.9,-2713.6 L-1762.7,-2649.6 L-1773.9,-2611.2 L-1794.7,-2555.2 L-1812.3,-2502.4 L-1826.7,-2449.6 L-1837.9,-2395.2 L-1841.1,-2336.0 L-1837.9,-2264.0 L-1837.4,-2228.0 L-1829.9,-2192.0 L-1812.3,-2142.4 L-1781.9,-2081.6 L-1679.5,-1920.0 L-1623.5,-1846.4 L-1554.7,-1739.2 L-1489.1,-1646.4 L-1405.9,-1510.4 L-1380.3,-1459.2 L-1348.3,-1361.6 L-1329.1,-1281.6 L-1321.1,-1209.6 L-1313.1,-1126.4 L-1314.7,-1049.6 L-1325.9,-945.6 L-1335.5,-883.2 L-1357.9,-808.0 L-1377.1,-747.2 L-1405.9,-683.2 L-1433.1,-635.2 L-1465.1,-580.8 L-1505.1,-516.8 L-1548.3,-460.8 L-1591.5,-416.0 L-1645.9,-376.0 L-1719.5,-332.8 L-1805.9,-267.2 L-1834.7,-228.8 L-1877.9,-171.2 L-1905.1,-126.4 L-1929.1,-65.6 L-1957.9,43.2 L-1959.5,104.0 L-1953.1,153.6 L-1937.1,188.8 L-1895.5,236.8 L-1845.9,300.8 L-1805.9,358.4 L-1759.5,404.8 L-1719.5,435.2 L-1668.3,500.8 L-1604.3,571.2 L-1572.3,598.4 L-1516.3,628.8 L-1449.1,651.2 L-1378.7,662.4 L-1309.9,665.6 L-1225.1,659.2 L-1117.9,656.0 L-1031.5,649.6 L-957.9,646.4 Z" fill="#ece7dc" stroke="#d7d1c5" stroke-width="0.3"></path><path d="M-1.0,-1.0 L257.0,-1.0 L257.0,257.0 L-1.0,257.0 L-1.0,-1.0 Z M257.0,257.0 L257.0,-1.0 L239.6,-1.0 L241.6,34.2 L236.8,104.6 L227.2,175.0 L214.4,255.0 L214.1,257.0 L257.0,257.0 Z" fill="#add7e1" stroke="none" fill-rule="evenodd"><title>Biscayne Bay</title></path><path d="M236.8,-49.0 L241.6,34.2 L236.8,104.6 L227.2,175.0 L214.4,255.0 L204.8,327.0" fill="none" stroke="#79bdd0" stroke-width="1.4" stroke-linecap="round" stroke-linejoin="round"></path><path d="M284.2,316.2 L298.4,248.6 L311.9,172.3" fill="none" stroke="#cf828d" stroke-width="1.5" stroke-dasharray="1.6 3.0" opacity="0.62" stroke-linecap="round" stroke-linejoin="round"></path><path d="M247.3,-85.6 L251.3,-14.0 L249.7,85.9 L242.3,159.1 L231.6,230.5 L205.4,366.9" fill="none" stroke="#cf828d" stroke-width="1.5" stroke-dasharray="1.6 3.0" opacity="0.62" stroke-linecap="round" stroke-linejoin="round"></path><path d="M275.1,315.0 L290.9,247.4 L299.5,205.3 L302.7,185.4 L304.7,172.6" fill="none" stroke="#d1c4aa" stroke-width="5.4" stroke-linecap="round" stroke-linejoin="round"/><path d="M275.1,315.0 L290.9,247.4 L299.5,205.3 L302.7,185.4 L304.7,172.6" fill="none" stroke="#f4d99b" stroke-width="4.0" stroke-linecap="round" stroke-linejoin="round"><title>Collins Avenue Service Road</title></path><path d="M256.1,321.2 L271.2,246.6 L278.4,207.9 L282.5,182.0" fill="none" stroke="#d1c4aa" stroke-width="7.3" stroke-linecap="round" stroke-linejoin="round"/><path d="M256.1,321.2 L271.2,246.6 L278.4,207.9 L282.5,182.0" fill="none" stroke="#efb36f" stroke-width="5.9" stroke-linecap="round" stroke-linejoin="round"><title>Collins Avenue</title></path><path d="M257.0,141.4 L251.5,181.2 L247.5,210.3 L237.5,264.0 L222.4,342.8" fill="none" stroke="#d1c4aa" stroke-width="7.3" stroke-linecap="round" stroke-linejoin="round"/><path d="M257.0,141.4 L251.5,181.2 L247.5,210.3 L237.5,264.0 L222.4,342.8" fill="none" stroke="#efb36f" stroke-width="5.9" stroke-linecap="round" stroke-linejoin="round"><title>Collins Avenue</title></path></svg>