<svg xmlns="http://www.w3.org/2000/svg" width="256" height="256" viewBox="0 0 256 256"><rect width="256" height="256" fill="#f1efe7"/><path d="M-15370.7,15058.3 L-15155.9,14969.0 L-15088.7,14936.7 L-14788.2,14792.4 L-14731.8,14847.0 L-14726.9,14851.7 L-14621.5,14761.5 L-14596.4,14742.4 L-14554.5,14704.6 L-14318.4,14487.8 L-14127.9,14270.2 L-14120.6,14256.3 L-14113.6,14248.4 L-14102.5,14235.7 L-14091.2,14222.8 L-14086.6,14217.5 L-14161.7,14120.4 L-14062.3,14060.8 L-14008.4,14132.5 L-13932.2,14045.3 L-13996.7,13959.9 L-13916.8,13876.6 L-13855.3,13957.6 L-13784.7,13877.2 L-13754.6,13857.5 L-13607.4,13762.0 L-13534.7,13713.7 L-13447.1,13656.1 L-13405.7,13628.9 L-13300.8,13561.2 L-13327.8,13525.7 L-13376.1,13461.0 L-13251.2,13381.6 L-13205.7,13358.1 L-13202.2,13355.6 L-13178.2,13337.1 L-13092.6,13291.3 L-13086.7,13282.1 L-13062.7,13265.6 L-13049.7,13246.6 L-13046.0,13243.8 L-13025.1,13235.7 L-12977.9,13218.8 L-12945.6,13204.6 L-12831.5,13151.0 L-12830.1,13154.7 L-12734.4,13113.8 L-12695.3,13163.9 L-12608.2,13105.8 L-12595.8,13097.3 L-12594.6,13096.3 L-12593.4,13094.7 L-12591.5,13091.4 L-12590.5,13088.3 L-12589.9,13084.6 L-12590.0,13081.6 L-12590.4,13078.7 L-12590.8,13075.4 L-12590.9,13072.9 L-12590.7,13070.8 L-12590.3,13068.6 L-12588.7,13064.6 L-12587.6,13062.4 L-12585.1,13058.6 L-12582.5,13055.8 L-12569.8,13050.7 L-12559.2,13046.7 L-12545.7,13042.3 L-12539.4,13040.6 L-12528.2,13036.9 L-12520.3,13034.1 L-12509.4,13029.6 L-12494.6,13023.1 L-12478.6,13015.6 L-12470.0,13011.4 L-12459.2,13005.9 L-12449.1,13000.3 L-12439.0,12994.3 L-12428.7,12987.6 L-12425.5,12985.4 L-12404.8,12969.6 L-12387.4,12956.2 L-12370.4,12941.8 L-12354.5,12926.8 L-12343.0,12913.9 L-12331.6,12900.0 L-12317.6,12882.0 L-12304.8,12864.0 L-12290.1,12840.9 L-12280.5,12823.0 L-12274.5,12811.6 L-12265.6,12792.3 L-12258.1,12774.4 L-12251.4,12755.1 L-12246.0,12738.2 L-12240.1,12710.8 L-12235.8,12686.3 L-12233.5,12665.3 L-12231.5,12640.5 L-12231.3,12614.0 L-12232.9,12589.5 L-12237.1,12557.5 L-12241.5,12535.7 L-12246.5,12515.1 L-12253.9,12491.7 L-12260.2,12473.8 L-12267.4,12454.3 L-12274.2,12438.1 L-12278.8,12427.6 L-12280.7,12419.9 L-12281.0,12414.0 L-12280.4,12408.7 L-12278.3,12404.1 L-12275.1,12400.2 L-12270.9,12398.0 L-12266.4,12397.4 L-12254.3,12400.3 L-12220.6,12408.4 L-12209.4,12153.7 L-12165.7,11699.1 L-12213.2,11687.9 L-12218.4,11673.6 L-12218.2,11653.1 L-12211.6,11606.6 L-12202.6,11596.1 L-12194.6,11565.9 L-12144.1,11577.6 L-12116.3,11287.1 L-12108.6,11206.7 L-12124.3,11202.8 L-12114.8,11164.4 L-12147.1,11156.7 L-12143.0,11133.2 L-12137.3,11117.7 L-12130.2,11099.6 L-12118.2,11074.3 L-12105.3,11077.2 L-12087.9,10894.5 L-12083.8,10783.7 L-12083.0,10763.3 L-12073.6,10692.8 L-12054.9,10517.1 L-11930.1,10191.7 L-11901.6,10103.0 L-11554.9,9970.0 L-11521.0,9956.4 L-11515.1,9953.2 L-11510.5,9949.0 L-11505.4,9943.1 L-11501.5,9936.2 L-11498.9,9929.4 L-11498.3,9919.5 L-11498.8,9907.2 L-11503.4,9751.7 L-11505.1,9721.6 L-11505.6,9700.9 L-11506.3,9660.7 L-11507.1,9648.1 L-11508.6,9637.5 L-11510.7,9628.1 L-11513.8,9618.5 L-11518.7,9607.2 L-11525.9,9595.1 L-11532.9,9585.5 L-11538.3,9576.4 L-11543.8,9564.3 L-11548.4,9552.7 L-11550.2,9543.2 L-11551.6,9532.7 L-11552.3,9522.2 L-11552.0,9512.0 L-11550.8,9500.1 L-11548.0,9488.4 L-11544.3,9478.0 L-11540.4,9468.5 L-11535.4,9459.3 L-11529.3,9448.1 L-11525.3,9438.0 L-11521.8,9425.1 L-11515.4,9415.3 L-11517.6,9326.1 L-11520.9,9320.9 L-11521.9,9260.3 L-11523.6,9188.8 L-11522.4,9178.9 L-11519.2,9168.8 L-11511.2,9153.0 L-11457.7,9037.9 L-11456.6,9036.0 L-11447.2,9015.5 L-11438.3,8996.1 L-11428.3,8976.1 L-11418.5,8955.5 L-11413.7,8945.5 L-11361.1,8837.6 L-11304.9,8718.4 L-11183.3,8471.6 L-11256.4,8389.7 L-11316.0,8516.7 L-11367.5,8626.6 L-11375.3,8642.2 L-11391.2,8674.7 L-11423.0,8672.0 L-11431.7,8671.5 L-11434.8,8674.3 L-11430.6,8678.1 L-11446.9,8692.6 L-11459.8,8704.5 L-11462.2,8755.4 L-11467.0,8765.6 L-11482.6,8765.0 L-11485.2,8764.1 L-11689.6,8679.7 L-11694.0,8677.4 L-11698.7,8674.4 L-11706.1,8668.8 L-11711.8,8663.4 L-11716.6,8658.2 L-11721.3,8651.8 L-11724.9,8646.2 L-11727.7,8640.4 L-11729.9,8634.3 L-11731.4,8630.1 L-11732.5,8625.0 L-11733.3,8619.0 L-11734.1,8610.8 L-11734.1,8599.1 L-11735.5,8559.4 L-11729.9,8559.1 L-11730.7,8538.1 L-11731.6,8503.5 L-11726.4,8503.4 L-11726.8,8479.8 L-11732.7,8479.9 L-11735.4,8380.5 L-11729.8,8380.2 L-11730.7,8356.9 L-11736.1,8357.1 L-11738.4,8283.6 L-11711.4,8254.5 L-11676.9,8253.3 L-11651.2,8252.4 L-11617.3,8251.3 L-11584.7,8250.3 L-11555.5,8249.3 L-11542.8,8248.7 L-11543.4,8237.4 L-11543.6,8225.6 L-11545.5,8187.3 L-11546.2,8114.2 L-11547.2,8112.9 L-11547.4,8105.7 L-11545.3,8105.6 L-11550.4,7929.5 L-11554.8,7763.8 L-11555.5,7758.6 L-11555.9,7749.0 L-11628.1,7751.6 L-11676.1,7747.5 L-12035.4,7760.0 L-12035.5,7756.8 L-12036.2,7741.5 L-12206.6,7747.5 L-12206.9,7719.2 L-12229.4,7714.1 L-12233.4,7593.0 L-11570.6,7570.0 L-11559.6,7554.9 L-11560.0,7511.9 L-11560.8,7474.7 L-11561.4,7451.4 L-11562.3,7428.7 L-11615.0,7403.9 L-11617.1,7348.8 L-11563.1,7322.0 L-11568.0,7194.5 L-11569.4,7188.2 L-11623.1,7163.1 L-11624.8,7094.9 L-11573.8,7068.6 L-11596.5,6791.7 L-11590.5,6668.5 L-11587.5,6467.6 L-11587.7,6249.1 L-11582.9,6218.5 L-11582.6,6203.7 L-11587.4,6185.9 L-11582.4,6185.9 L-11582.4,6169.8 L-11579.4,5758.8 L-11579.9,5740.5 L-11585.6,5740.5 L-11585.4,5664.9 L-11588.7,5660.2 L-11593.9,5582.2 L-11583.6,5510.9 L-11584.9,5424.6 L-11588.4,5403.9 L-11583.1,5340.0 L-11586.7,5262.7 L-11595.7,5180.0 L-11612.8,5046.0 L-11604.7,5009.1 L-11608.3,4973.2 L-11638.9,4947.1 L-11683.8,4947.5 L-11752.2,4956.5 L-11796.7,4956.5 L-11837.1,4941.7 L-11890.2,4905.3 L-11890.2,4840.0 L-11891.6,4759.7 L-11886.4,4692.8 L-11868.8,4640.6 L-11574.1,4635.1 L-11567.3,4217.2 L-11567.3,3615.6 L-11570.4,3397.3 L4341.8,-3174.4 L4341.8,33043.8 L-15370.7,33043.8 L-15370.7,15058.3 Z" fill="#add7e1" stroke="none"><title>Biscayne Bay</title></path><path d="M-947.6,6818.6 L-934.5,6834.5 L-916.9,6838.3 L-911.6,6825.9 L-917.8,6785.3 L-916.0,6670.1 L-904.2,6619.9 L-902.6,6613.1 L-915.0,6581.8 L-916.5,6533.0 L-905.9,6492.6 L-886.5,6445.8 L-896.0,6380.2 L-880.4,6298.3 L-863.9,6214.4 L-854.9,6163.0 L-858.5,6130.0 L-848.6,6082.1 L-838.6,6051.0 L-824.2,5979.0 L-822.9,5972.9 L-815.5,5902.0 L-813.4,5860.3 L-792.6,5777.3 L-789.4,5710.8 L-771.0,5696.1 L-771.5,5673.4 L-772.3,5643.0 L-767.3,5607.0 L-760.2,5576.7 L-747.8,5527.7 L-744.6,5495.7 L-741.2,5442.2 L-730.2,5417.3 L-707.8,5366.1 L-695.3,5327.1 L-693.4,5321.3 L-683.8,5254.1 L-671.0,5194.9 L-668.4,5153.9 L-655.4,5078.5 L-627.8,4993.3 L-622.2,4973.6 L-617.3,4956.6 L-592.6,4865.3 L-576.6,4810.9 L-555.8,4738.9 L-548.6,4719.7 L-520.6,4644.5 L-491.8,4567.7 L-472.6,4494.1 L-443.8,4417.3 L-411.8,4324.5 L-371.8,4209.3 L-343.0,4127.7 L-320.9,4052.5 L-316.6,4037.7 L-306.2,3999.7 L-291.8,3958.1 L-279.5,3915.4 L-268.2,3876.5 L-238.5,3775.9 L-235.6,3765.8 L-218.2,3716.5 L-202.9,3649.1 L-189.5,3593.7 L-179.0,3550.3 L-166.4,3501.5 L-150.5,3450.1 L-136.0,3397.3 L-116.1,3300.3 L-95.8,3252.2 L-71.0,3214.1 L-55.0,3191.7 L-39.0,3180.5 L-31.4,3174.0 L-25.6,3156.3 L-13.0,3122.7 L-1.8,3072.7 L13.8,3023.2 L34.1,2954.4 L48.5,2912.5 L38.0,2897.3 L60.1,2885.7 L81.1,2826.0 L71.0,2811.5 L89.1,2802.8 L129.9,2689.2 L122.7,2674.4 L136.1,2665.0 L146.2,2617.6 L162.9,2545.2 L174.4,2458.4 L186.4,2404.5 L179.6,2397.2 L190.7,2387.8 L204.0,2243.3 L207.5,2199.9 L215.5,2148.7 L225.0,2131.5 L228.2,2109.4 L233.3,2099.3 L238.0,2057.3 L236.2,2016.4 L238.7,1968.3 L250.7,1892.7 L271.3,1810.5 L273.8,1741.4 L278.9,1673.4 L294.8,1528.0 L314.4,1405.3 L349.8,1113.4 L365.8,953.2 L383.3,846.2 L400.3,742.4 L430.9,525.9 L481.6,174.4 L490.2,46.0 L500.3,-16.1 L502.9,-60.2 L507.0,-126.6 L515.3,-208.7 L510.6,-217.4 L497.2,-242.4 L509.5,-257.9 L513.1,-373.1 L513.1,-375.5 L451.0,-386.0 L434.4,-216.8 L433.5,-207.2 L435.0,-196.7 L455.5,-51.2 L447.5,188.8 L403.5,346.8 L380.3,637.0 L353.3,899.9 L294.3,1304.7 L227.4,1813.8 L196.3,2026.9 L187.1,2106.4 L170.5,2250.8 L154.1,2392.4 L132.4,2538.7 L91.9,2663.9 L59.1,2778.9 L-75.2,3165.2 L-204.5,3490.8 L-337.6,3897.2 L-380.5,4032.8 L-563.1,4515.4 L-601.6,4677.2 L-617.6,4736.7 L-624.9,4737.9 L-678.3,4936.6 L-656.4,4939.5 L-646.8,4949.1 L-643.3,4962.0 L-648.0,4986.7 L-654.7,4994.3 L-683.4,4998.7 L-708.6,5052.1 L-717.7,5077.2 L-711.3,5100.8 L-696.1,5142.9 L-732.0,5207.6 L-745.1,5275.3 L-745.4,5297.2 L-729.6,5308.6 L-727.4,5328.8 L-734.9,5342.4 L-744.2,5345.9 L-758.0,5350.6 L-799.3,5537.9 L-818.8,5614.7 L-818.5,5631.1 L-802.4,5643.9 L-795.5,5659.5 L-797.2,5687.5 L-813.7,5710.2 L-828.5,5726.2 L-842.1,5781.5 L-853.5,5874.1 L-870.4,5924.8 L-852.6,5980.2 L-848.3,5993.6 L-879.0,6015.7 L-886.9,6029.3 L-889.9,6045.7 L-888.4,6057.4 L-885.8,6074.5 L-885.8,6095.7 L-888.8,6116.8 L-896.0,6135.1 L-904.8,6149.7 L-926.7,6293.3 L-937.3,6407.9 L-928.9,6424.3 L-924.5,6438.5 L-924.9,6454.2 L-935.1,6477.9 L-949.7,6508.2 L-953.4,6581.4 L-935.1,6603.0 L-931.8,6611.0 L-931.8,6637.3 L-937.6,6648.2 L-949.3,6654.8 L-960.6,6663.5 L-967.9,6785.3 L-947.6,6818.6 Z" fill="#ece7dc" stroke="#d7d1c5" stroke-width="0.3"></path><path d="M-39.2,1073.0 L-74.0,1255.4 L-7.9,1267.7 L-20.5,1340.9 L263.3,1375.9 L299.3,1109.7 L300.0,1099.2 L80.1,1066.3 L87.1,1009.2 L316.8,1038.8 L365.2,699.7 L399.0,341.0 L440.4,193.0 L443.3,109.0 L449.2,-43.0 L114.8,-86.4 L78.9,131.2 L0.0,596.2 L-18.3,768.3 L-39.2,1073.0 Z" fill="#eadde0" stroke="#d7d1c5" stroke-width="0.3"></path><path d="M-5034.8,12209.3 L-3580.8,11360.6 L-4065.5,9973.8 L-4326.5,6827.1 L-4326.5,4363.3 L-7010.8,1878.6 L520.3,-440.7 L557.6,2831.1 L-57.6,5729.8 L-616.8,8835.2 L-989.7,11319.2 L-1772.6,12209.3 L-5034.8,12209.3 Z" fill="#f1efe7" stroke="#8ab09d" stroke-width="0.65"><title>Miami Beach</title></path><path d="M154.0,-70.0 L440.5,-36.5 L422.0,89.5 L387.5,109.5 L377.5,151.5 L372.7,150.8 L223.2,130.3 L133.7,117.9 L136.2,79.4 L148.0,46.0 L130.0,36.2 L138.0,14.6 L125.4,11.5 L130.5,-9.4 L143.1,-6.3 L148.5,-24.0 L154.0,-70.0 Z" fill="#d6d2c9" stroke="#bab6ad" stroke-width="0.4"><title>Eden Roc Resort Miami Beach</title></path><path d="M148.6,439.4 L158.2,439.3 L167.6,437.4 L176.5,433.7 L184.6,428.4 L191.4,421.7 L196.9,413.9 L201.6,414.0 L206.7,413.0 L210.7,411.2 L214.5,408.4 L216.6,409.0 L219.4,408.6 L225.0,406.7 L230.6,405.5 L235.4,405.6 L237.9,406.1 L237.5,409.5 L264.4,413.3 L265.8,403.8 L268.8,401.5 L277.8,402.8 L283.8,359.7 L287.1,360.0 L293.1,405.0 L344.8,412.8 L339.0,367.4 L334.5,366.8 L335.9,356.2 L348.2,357.9 L356.8,294.1 L378.1,296.9 L381.4,272.6 L371.3,271.2 L371.7,268.2 L392.0,270.9 L405.6,170.0 L256.5,149.9 L257.0,145.9 L248.8,144.8 L248.3,148.6 L163.8,137.2 L164.4,133.3 L132.2,128.9 L129.7,146.3 L129.8,154.3 L130.6,162.5 L131.7,166.8 L120.8,248.7 L123.8,252.4 L114.3,251.5 L112.4,265.0 L110.8,264.9 L110.4,269.1 L102.6,267.8 L97.9,298.4 L98.1,303.8 L99.5,308.2 L103.4,314.0 L108.5,318.7 L112.2,324.1 L114.6,333.3 L115.7,346.6 L114.1,360.4 L110.9,372.3 L100.9,391.0 L85.7,410.7 L109.2,429.3 L108.3,440.6 L107.1,457.7 L102.9,457.3 L94.8,458.6 L87.2,462.4 L81.4,468.4 L77.8,476.1 L77.4,482.9 L78.3,483.8 L74.1,489.3 L61.7,488.7 L59.5,519.2 L77.5,533.5 L106.4,524.7 L103.2,513.3 L110.9,506.8 L111.5,508.6 L116.3,506.1 L123.2,499.7 L126.7,492.1 L128.0,485.6 L127.5,477.2 L124.3,469.4 L123.3,468.0 L146.5,468.1 L148.6,439.4 Z" fill="#d6d2c9" stroke="#bab6ad" stroke-width="0.4"><title>Fontainebleau Miami Beach</title></path><path d="M57.6,-81.0 L44.8,10.2 L32.0,93.4 L14.4,184.6 L-4.8,283.8 L-32.0,435.8" fill="none" stroke="#79bdd0" stroke-width="1.4" stroke-linecap="round" stroke-linejoin="round"></path><path d="M70.5,59.0 L81.8,59.6 L98.0,60.9" fill="none" stroke="#cf828d" stroke-width="1.5" stroke-dasharray="1.6 3.0" opacity="0.62" stroke-linecap="round" stroke-linejoin="round"><title>4500 Block</title></path><path d="M-22.1,417.5 L5.9,264.1 L6.3,261.9 L35.9,95.9 L42.7,53.5" fill="none" stroke="#cf828d" stroke-width="1.5" stroke-dasharray="1.6 3.0" opacity="0.62" stroke-linecap="round" stroke-linejoin="round"></path><path d="M78.9,-164.2 L51.0,10.8 L42.7,53.5" fill="none" stroke="#cf828d" stroke-width="1.5" stroke-dasharray="1.6 3.0" opacity="0.62" stroke-linecap="round" stroke-linejoin="round"></path><path d="M51.6,363.3 L62.0,299.5 L66.0,275.2 L69.9,251.3 L93.1,120.0 L102.4,61.2 L105.6,41.0 L123.4,-60.2" fill="none" stroke="#cf828d" stroke-width="1.5" stroke-dasharray="1.6 3.0" opacity="0.62" stroke-linecap="round" stroke-linejoin="round"></path><path d="M42.7,53.5 L46.3,54.3" fill="none" stroke="#cf828d" stroke-width="1.5" stroke-dasharray="1.6 3.0" opacity="0.62" stroke-linecap="round" stroke-linejoin="round"><title>4500 Block</title></path><path d="M98.0,60.9 L102.4,61.2" fill="none" stroke="#cf828d" stroke-width="1.5" stroke-dasharray="1.6 3.0" opacity="0.62" stroke-linecap="round" stroke-linejoin="round"><title>4500 Block</title></path><path d="M46.3,54.3 L54.3,56.3 L63.8,57.8" fill="none" stroke="#cf828d" stroke-width="1.5" stroke-dasharray="1.6 3.0" opacity="0.62" stroke-linecap="round" stroke-linejoin="round"><title>4500 Block</title></path><path d="M63.8,57.8 L70.5,59.0" fill="none" stroke="#cf828d" stroke-width="1.5" stroke-dasharray="1.6 3.0" opacity="0.62" stroke-linecap="round" stroke-linejoin="round"><title>4500 Block</title></path><path d="M85.4,38.9 L105.6,41.0 L109.4,41.4 L120.8,38.2 L128.0,33.4 L138.0,14.6" fill="none" stroke="#cec8bb" stroke-width="3.5" stroke-linecap="round" stroke-linejoin="round"/><path d="M85.4,38.9 L105.6,41.0 L109.4,41.4 L120.8,38.2 L128.0,33.4 L138.0,14.6" fill="none" stroke="#ffffff" stroke-width="2.5" stroke-linecap="round" stroke-linejoin="round"><title>4500 Block</title></path><path d="M58.2,34.3 L85.4,38.9" fill="none" stroke="#cec8bb" stroke-width="3.5" stroke-linecap="round" stroke-linejoin="round"/><path d="M58.2,34.3 L85.4,38.9" fill="none" stroke="#ffffff" stroke-width="2.5" stroke-linecap="round" stroke-linejoin="round"><title>4500 Block</title></path><path d="M138.0,14.6 L143.1,-6.3" fill="none" stroke="#cec8bb" stroke-width="3.5" stroke-linecap="round" stroke-linejoin="round"/><path d="M138.0,14.6 L143.1,-6.3" fill="none" stroke="#ffffff" stroke-width="2.5" stroke-linecap="round" stroke-linejoin="round"><title>4500 Block</title></path><path d="M72.5,116.9 L93.1,120.0 L314.4,152.5" fill="none" stroke="#cec8bb" stroke-width="3.5" stroke-linecap="round" stroke-linejoin="round"/><path d="M72.5,116.9 L93.1,120.0 L314.4,152.5" fill="none" stroke="#ffffff" stroke-width="2.5" stroke-linecap="round" stroke-linejoin="round"></path><path d="M102.6,267.8 L97.4,262.3 L90.7,255.1 L69.9,251.3 L50.5,247.7" fill="none" stroke="#cec8bb" stroke-width="3.5" stroke-linecap="round" stroke-linejoin="round"/><path d="M102.6,267.8 L97.4,262.3 L90.7,255.1 L69.9,251.3 L50.5,247.7" fill="none" stroke="#ffffff" stroke-width="2.5" stroke-linecap="round" stroke-linejoin="round"><title>Arrivals Drive</title></path><path d="M97.4,262.3 L102.6,229.0 L113.3,161.0" fill="none" stroke="#cec8bb" stroke-width="3.5" stroke-linecap="round" stroke-linejoin="round"/><path d="M97.4,262.3 L102.6,229.0 L113.3,161.0" fill="none" stroke="#ffffff" stroke-width="2.5" stroke-linecap="round" stroke-linejoin="round"></path><path d="M41.1,299.8 L46.4,271.6 L50.5,247.7 L72.5,116.9" fill="none" stroke="#d1c4aa" stroke-width="7.3" stroke-linecap="round" stroke-linejoin="round"/><path d="M41.1,299.8 L46.4,271.6 L50.5,247.7 L72.5,116.9" fill="none" stroke="#efb36f" stroke-width="5.9" stroke-linecap="round" stroke-linejoin="round"><title>Collins Avenue</title></path><path d="M71.5,-44.5 L58.2,34.3" fill="none" stroke="#d1c4aa" stroke-width="7.3" stroke-linecap="round" stroke-linejoin="round"/><path d="M71.5,-44.5 L58.2,34.3" fill="none" stroke="#efb36f" stroke-width="5.9" stroke-linecap="round" stroke-linejoin="round"><title>Collins Avenue</title></path><path d="M85.4,38.9 L104.0,-70.8" fill="none" stroke="#d1c4aa" stroke-width="7.3" stroke-linecap="round" stroke-linejoin="round"/><path d="M85.4,38.9 L104.0,-70.8" fill="none" stroke="#efb36f" stroke-width="5.9" stroke-linecap="round" stroke-linejoin="round"><title>Collins Avenue</title></path><path d="M29.0,202.9 L18.0,266.3 L9.5,315.8" fill="none" stroke="#d1c4aa" stroke-width="7.3" stroke-linecap="round" stroke-linejoin="round"/><path d="M29.0,202.9 L18.0,266.3 L9.5,315.8" fill="none" stroke="#efb36f" stroke-width="5.9" stroke-linecap="round" stroke-linejoin="round"><title>Collins Avenue</title></path><path d="M72.5,116.9 L81.8,59.6 L85.4,38.9" fill="none" stroke="#d1c4aa" stroke-width="7.3" stroke-linecap="round" stroke-linejoin="round"/><path d="M72.5,116.9 L81.8,59.6 L85.4,38.9" fill="none" stroke="#efb36f" stroke-width="5.9" stroke-linecap="round" stroke-linejoin="round"><title>Collins Avenue</title></path><path d="M58.2,34.3 L54.3,56.3 L47.6,95.2 L29.0,202.9" fill="none" stroke="#d1c4aa" stroke-width="7.3" stroke-linecap="round" stroke-linejoin="round"/><path d="M58.2,34.3 L54.3,56.3 L47.6,95.2 L29.0,202.9" fill="none" stroke="#efb36f" stroke-width="5.9" stroke-linecap="round" stroke-linejoin="round"><title>Collins Avenue</title></path><g transform="translate(61.9 179.5) rotate(-80.5)"><path d="M -3.6 -3.2 L 4.4 0 L -3.6 3.2 Z" fill="#58656d" opacity="0.46"/></g><g transform="translate(38.3 149.0) rotate(99.8)"><path d="M -3.6 -3.2 L 4.4 0 L -3.6 3.2 Z" fill="#58656d" opacity="0.46"/></g><g><rect x="41.8" y="170.5" width="41.0" height="14.0" rx="3" fill="#ffffff" stroke="#8a8f96" stroke-width="1"/><text x="62.3" y="177.9" text-anchor="middle" dominant-baseline="central" font-family="Arial, sans-serif" font-size="8" font-weight="700" fill="#56616a">SR A1A</text></g><g><rect x="56.6" y="81.3" width="41.0" height="14.0" rx="3" fill="#ffffff" stroke="#8a8f96" stroke-width="1"/><text x="77.1" y="88.7" text-anchor="middle" dominant-baseline="central" font-family="Arial, sans-serif" font-size="8" font-weight="700" fill="#56616a">SR A1A</text></g><g><rect x="17.8" y="142.0" width="41.0" height="14.0" rx="3" fill="#ffffff" stroke="#8a8f96" stroke-width="1"/><text x="38.3" y="149.4" text-anchor="middle" dominant-baseline="central" font-family="Arial, sans-serif" font-size="8" font-weight="700" fill="#56616a">SR A1A</text></g><text x="225.7" y="49.4" text-anchor="middle" font-family="Arial, sans-serif" font-size="6.5" textLength="18.0" lengthAdjust="spacing" font-weight="500" paint-order="stroke" stroke="#f3f5ee" stroke-width="1.55" stroke-linejoin="round" fill="#6f777a">4525</text><text x="216.8" y="226.0" text-anchor="middle" font-family="Arial, sans-serif" font-size="6.5" textLength="18.0" lengthAdjust="spacing" font-weight="500" paint-order="stroke" stroke="#f3f5ee" stroke-width="1.55" stroke-linejoin="round" fill="#6f777a">4441</text><g><title>Collins Avenue &amp; 4500 Block</title><rect x="29.6" y="89.8" width="6.9" height="6.1" rx="1.3" fill="#2796c9" stroke="#ffffff" stroke-width="1.05"/><rect x="30.9" y="91.1" width="4.4" height="2.1" rx="0.35" fill="#ffffff"/><circle cx="31.2" cy="94.8" r="0.5" fill="#ffffff"/><circle cx="34.9" cy="94.8" r="0.5" fill="#ffffff"/></g><g><title>signal</title><rect x="82.7" y="33.7" width="5.4" height="10.4" rx="2.1" fill="#3f4b52" stroke="#ffffff" stroke-width="1.1"/><circle cx="85.4" cy="36.1" r="1.1" fill="#d85a4f"/><circle cx="85.4" cy="38.9" r="1.1" fill="#e2b84b"/><circle cx="85.4" cy="41.7" r="1.1" fill="#55a86b"/></g><g><title>signal</title><rect x="55.5" y="29.1" width="5.4" height="10.4" rx="2.1" fill="#3f4b52" stroke="#ffffff" stroke-width="1.1"/><circle cx="58.2" cy="31.5" r="1.1" fill="#d85a4f"/><circle cx="58.2" cy="34.3" r="1.1" fill="#e2b84b"/><circle cx="58.2" cy="37.1" r="1.1" fill="#55a86b"/></g><g opacity="0.56"><title>crossing</title><path d="M52.1,54.5 L56.6,54.5 M52.1,56.3 L56.6,56.3 M52.1,58.1 L56.6,58.1" stroke="#ffffff" stroke-width="2.1" stroke-linecap="round"/><path d="M52.1,54.5 L56.6,54.5 M52.1,56.3 L56.6,56.3 M52.1,58.1 L56.6,58.1" stroke="#59656a" stroke-width="0.85" stroke-linecap="round"/></g><g opacity="0.56"><title>crossing</title><path d="M79.5,57.8 L84.1,57.8 M79.5,59.6 L84.1,59.6 M79.5,61.4 L84.1,61.4" stroke="#ffffff" stroke-width="2.1" stroke-linecap="round"/><path d="M79.5,57.8 L84.1,57.8 M79.5,59.6 L84.1,59.6 M79.5,61.4 L84.1,61.4" stroke="#59656a" stroke-width="0.85" stroke-linecap="round"/></g><g opacity="0.56"><title>crossing</title><path d="M103.3,39.2 L107.9,39.2 M103.3,41.0 L107.9,41.0 M103.3,42.8 L107.9,42.8" stroke="#ffffff" stroke-width="2.1" stroke-linecap="round"/><path d="M103.3,39.2 L107.9,39.2 M103.3,41.0 L107.9,41.0 M103.3,42.8 L107.9,42.8" stroke="#59656a" stroke-width="0.85" stroke-linecap="round"/></g></svg>