<svg xmlns="http://www.w3.org/2000/svg" width="256" height="256" viewBox="0 0 256 256"><rect width="256" height="256" fill="#f1efe7"/><path d="M-15370.7,-16941.7 L-15155.9,-17031.0 L-15088.7,-17063.3 L-14788.2,-17207.6 L-14731.8,-17153.0 L-14726.9,-17148.3 L-14621.5,-17238.5 L-14596.4,-17257.6 L-14554.5,-17295.4 L-14318.4,-17512.2 L-14127.9,-17729.8 L-14120.6,-17743.7 L-14113.6,-17751.6 L-14102.5,-17764.3 L-14091.2,-17777.2 L-14086.6,-17782.5 L-14161.7,-17879.6 L-14062.3,-17939.2 L-14008.4,-17867.5 L-13932.2,-17954.7 L-13996.7,-18040.1 L-13916.8,-18123.4 L-13855.3,-18042.4 L-13784.7,-18122.8 L-13754.6,-18142.5 L-13607.4,-18238.0 L-13534.7,-18286.3 L-13447.1,-18343.9 L-13405.7,-18371.1 L-13300.8,-18438.8 L-13327.8,-18474.3 L-13376.1,-18539.0 L-13251.2,-18618.4 L-13205.7,-18641.9 L-13202.2,-18644.4 L-13178.2,-18662.9 L-13092.6,-18708.7 L-13086.7,-18717.9 L-13062.7,-18734.4 L-13049.7,-18753.4 L-13046.0,-18756.2 L-13025.1,-18764.3 L-12977.9,-18781.2 L-12945.6,-18795.4 L-12831.5,-18849.0 L-12830.1,-18845.3 L-12734.4,-18886.2 L-12695.3,-18836.1 L-12608.2,-18894.2 L-12595.8,-18902.7 L-12594.6,-18903.7 L-12593.4,-18905.3 L-12591.5,-18908.6 L-12590.5,-18911.7 L-12589.9,-18915.4 L-12590.0,-18918.4 L-12590.4,-18921.3 L-12590.8,-18924.6 L-12590.9,-18927.1 L-12590.7,-18929.2 L-12590.3,-18931.4 L-12588.7,-18935.4 L-12587.6,-18937.6 L-12585.1,-18941.4 L-12582.5,-18944.2 L-12569.8,-18949.3 L-12559.2,-18953.3 L-12545.7,-18957.7 L-12539.4,-18959.4 L-12528.2,-18963.1 L-12520.3,-18965.9 L-12509.4,-18970.4 L-12494.6,-18976.9 L-12478.6,-18984.4 L-12470.0,-18988.6 L-12459.2,-18994.1 L-12449.1,-18999.7 L-12439.0,-19005.7 L-12428.7,-19012.4 L-12425.5,-19014.6 L-12404.8,-19030.4 L-12387.4,-19043.8 L-12370.4,-19058.2 L-12354.5,-19073.2 L-12343.0,-19086.1 L-12331.6,-19100.0 L-12317.6,-19118.0 L-12304.8,-19136.0 L-12290.1,-19159.1 L-12280.5,-19177.0 L-12274.5,-19188.4 L-12265.6,-19207.7 L-12258.1,-19225.6 L-12251.4,-19244.9 L-12246.0,-19261.8 L-12240.1,-19289.2 L-12235.8,-19313.7 L-12233.5,-19334.7 L-12231.5,-19359.5 L-12231.3,-19386.0 L-12232.9,-19410.5 L-12237.1,-19442.5 L-12241.5,-19464.3 L-12246.5,-19484.9 L-12253.9,-19508.3 L-12260.2,-19526.2 L-12267.4,-19545.7 L-12274.2,-19561.9 L-12278.8,-19572.4 L-12280.7,-19580.1 L-12281.0,-19586.0 L-12280.4,-19591.3 L-12278.3,-19595.9 L-12275.1,-19599.8 L-12270.9,-19602.0 L-12266.4,-19602.6 L-12254.3,-19599.7 L-12220.6,-19591.6 L-12209.4,-19846.3 L-12165.7,-20300.9 L-12213.2,-20312.1 L-12218.4,-20326.4 L-12218.2,-20346.9 L-12211.6,-20393.4 L-12202.6,-20403.9 L-12194.6,-20434.1 L-12144.1,-20422.4 L-12116.3,-20712.9 L-12108.6,-20793.3 L-12124.3,-20797.2 L-12114.8,-20835.6 L-12147.1,-20843.3 L-12143.0,-20866.8 L-12137.3,-20882.3 L-12130.2,-20900.4 L-12118.2,-20925.7 L-12105.3,-20922.8 L-12087.9,-21105.5 L-12083.8,-21216.3 L-12083.0,-21236.7 L-12073.6,-21307.2 L-12054.9,-21482.9 L-11930.1,-21808.3 L-11901.6,-21897.0 L-11554.9,-22030.0 L-11521.0,-22043.6 L-11515.1,-22046.8 L-11510.5,-22051.0 L-11505.4,-22056.9 L-11501.5,-22063.8 L-11498.9,-22070.6 L-11498.3,-22080.5 L-11498.8,-22092.8 L-11503.4,-22248.3 L-11505.1,-22278.4 L-11505.6,-22299.1 L-11506.3,-22339.3 L-11507.1,-22351.9 L-11508.6,-22362.5 L-11510.7,-22371.9 L-11513.8,-22381.5 L-11518.7,-22392.8 L-11525.9,-22404.9 L-11532.9,-22414.5 L-11538.3,-22423.6 L-11543.8,-22435.7 L-11548.4,-22447.3 L-11550.2,-22456.8 L-11551.6,-22467.3 L-11552.3,-22477.8 L-11552.0,-22488.0 L-11550.8,-22499.9 L-11548.0,-22511.6 L-11544.3,-22522.0 L-11540.4,-22531.5 L-11535.4,-22540.7 L-11529.3,-22551.9 L-11525.3,-22562.0 L-11521.8,-22574.9 L-11515.4,-22584.7 L-11517.6,-22673.9 L-11520.9,-22679.1 L-11521.9,-22739.7 L-11523.6,-22811.2 L-11522.4,-22821.1 L-11519.2,-22831.2 L-11511.2,-22847.0 L-11457.7,-22962.1 L-11456.6,-22964.0 L-11447.2,-22984.5 L-11438.3,-23003.9 L-11428.3,-23023.9 L-11418.5,-23044.5 L-11413.7,-23054.5 L-11361.1,-23162.4 L-11304.9,-23281.6 L-11183.3,-23528.4 L-11256.4,-23610.3 L-11316.0,-23483.3 L-11367.5,-23373.4 L-11375.3,-23357.8 L-11391.2,-23325.3 L-11423.0,-23328.0 L-11431.7,-23328.5 L-11434.8,-23325.7 L-11430.6,-23321.9 L-11446.9,-23307.4 L-11459.8,-23295.5 L-11462.2,-23244.6 L-11467.0,-23234.4 L-11482.6,-23235.0 L-11485.2,-23235.9 L-11689.6,-23320.3 L-11694.0,-23322.6 L-11698.7,-23325.6 L-11706.1,-23331.2 L-11711.8,-23336.6 L-11716.6,-23341.8 L-11721.3,-23348.2 L-11724.9,-23353.8 L-11727.7,-23359.6 L-11729.9,-23365.7 L-11731.4,-23369.9 L-11732.5,-23375.0 L-11733.3,-23381.0 L-11734.1,-23389.2 L-11734.1,-23400.9 L-11735.5,-23440.6 L-11729.9,-23440.9 L-11730.7,-23461.9 L-11731.6,-23496.5 L-11726.4,-23496.6 L-11726.8,-23520.2 L-11732.7,-23520.1 L-11735.4,-23619.5 L-11729.8,-23619.8 L-11730.7,-23643.1 L-11736.1,-23642.9 L-11738.4,-23716.4 L-11711.4,-23745.5 L-11676.9,-23746.7 L-11651.2,-23747.6 L-11617.3,-23748.7 L-11584.7,-23749.7 L-11555.5,-23750.7 L-11542.8,-23751.3 L-11543.4,-23762.6 L-11543.6,-23774.4 L-11545.5,-23812.7 L-11546.2,-23885.8 L-11547.2,-23887.1 L-11547.4,-23894.3 L-11545.3,-23894.4 L-11550.4,-24070.5 L-11554.8,-24236.2 L-11555.5,-24241.4 L-11555.9,-24251.0 L-11628.1,-24248.4 L-11676.1,-24252.5 L-12035.4,-24240.0 L-12035.5,-24243.2 L-12036.2,-24258.5 L-12206.6,-24252.5 L-12206.9,-24280.8 L-12229.4,-24285.9 L-12233.4,-24407.0 L-11570.6,-24430.0 L-11559.6,-24445.1 L-11560.0,-24488.1 L-11560.8,-24525.3 L-11561.4,-24548.6 L-11562.3,-24571.3 L-11615.0,-24596.1 L-11617.1,-24651.2 L-11563.1,-24678.0 L-11568.0,-24805.5 L-11569.4,-24811.8 L-11623.1,-24836.9 L-11624.8,-24905.1 L-11573.8,-24931.4 L-11596.5,-25208.3 L-11590.5,-25331.5 L-11587.5,-25532.4 L-11587.7,-25750.9 L-11582.9,-25781.5 L-11582.6,-25796.3 L-11587.4,-25814.1 L-11582.4,-25814.1 L-11582.4,-25830.2 L-11579.4,-26241.2 L-11579.9,-26259.5 L-11585.6,-26259.5 L-11585.4,-26335.1 L-11588.7,-26339.8 L-11593.9,-26417.8 L-11583.6,-26489.1 L-11584.9,-26575.4 L-11588.4,-26596.1 L-11583.1,-26660.0 L-11586.7,-26737.3 L-11595.7,-26820.0 L-11612.8,-26954.0 L-11604.7,-26990.9 L-11608.3,-27026.8 L-11638.9,-27052.9 L-11683.8,-27052.5 L-11752.2,-27043.5 L-11796.7,-27043.5 L-11837.1,-27058.3 L-11890.2,-27094.7 L-11890.2,-27160.0 L-11891.6,-27240.3 L-11886.4,-27307.2 L-11868.8,-27359.4 L-11574.1,-27364.9 L-11567.3,-27782.8 L-11567.3,-28384.4 L-11570.4,-28602.7 L4341.8,-35174.4 L4341.8,1043.8 L-15370.7,1043.8 L-15370.7,-16941.7 Z" fill="#add7e1" stroke="none"><title>Biscayne Bay</title></path></svg>