<svg xmlns="http://www.w3.org/2000/svg" width="256" height="256" viewBox="0 0 256 256"><rect width="256" height="256" fill="#f1efe7"/><path d="M-3338.7,16850.3 L-3123.9,16761.0 L-3056.7,16728.7 L-2756.2,16584.4 L-2699.8,16639.0 L-2694.9,16643.7 L-2589.5,16553.5 L-2564.4,16534.4 L-2522.5,16496.6 L-2286.4,16279.8 L-2095.9,16062.2 L-2088.6,16048.3 L-2081.6,16040.4 L-2070.5,16027.7 L-2059.2,16014.8 L-2054.6,16009.5 L-2129.7,15912.4 L-2030.3,15852.8 L-1976.4,15924.5 L-1900.2,15837.3 L-1964.7,15751.9 L-1884.8,15668.6 L-1823.3,15749.6 L-1752.7,15669.2 L-1722.6,15649.5 L-1575.4,15554.0 L-1502.7,15505.7 L-1415.1,15448.1 L-1373.7,15420.9 L-1268.8,15353.2 L-1295.8,15317.7 L-1344.1,15253.0 L-1219.2,15173.6 L-1173.7,15150.1 L-1170.2,15147.6 L-1146.2,15129.1 L-1060.6,15083.3 L-1054.7,15074.1 L-1030.7,15057.6 L-1017.7,15038.6 L-1014.0,15035.8 L-993.1,15027.7 L-945.9,15010.8 L-913.6,14996.6 L-799.5,14943.0 L-798.1,14946.7 L-702.4,14905.8 L-663.3,14955.9 L-576.2,14897.8 L-563.8,14889.3 L-562.6,14888.3 L-561.4,14886.7 L-559.5,14883.4 L-558.5,14880.3 L-557.9,14876.6 L-558.0,14873.6 L-558.4,14870.7 L-558.8,14867.4 L-558.9,14864.9 L-558.7,14862.8 L-558.3,14860.6 L-556.7,14856.6 L-555.6,14854.4 L-553.1,14850.6 L-550.5,14847.8 L-537.8,14842.7 L-527.2,14838.7 L-513.7,14834.3 L-507.4,14832.6 L-496.2,14828.9 L-488.3,14826.1 L-477.4,14821.6 L-462.6,14815.1 L-446.6,14807.6 L-438.0,14803.4 L-427.2,14797.9 L-417.1,14792.3 L-407.0,14786.3 L-396.7,14779.6 L-393.5,14777.4 L-372.8,14761.6 L-355.4,14748.2 L-338.4,14733.8 L-322.5,14718.8 L-311.0,14705.9 L-299.6,14692.0 L-285.6,14674.0 L-272.8,14656.0 L-258.1,14632.9 L-248.5,14615.0 L-242.5,14603.6 L-233.6,14584.3 L-226.1,14566.4 L-219.4,14547.1 L-214.0,14530.2 L-208.1,14502.8 L-203.8,14478.3 L-201.5,14457.3 L-199.5,14432.5 L-199.3,14406.0 L-200.9,14381.5 L-205.1,14349.5 L-209.5,14327.7 L-214.5,14307.1 L-221.9,14283.7 L-228.2,14265.8 L-235.4,14246.3 L-242.2,14230.1 L-246.8,14219.6 L-248.7,14211.9 L-249.0,14206.0 L-248.4,14200.7 L-246.3,14196.1 L-243.1,14192.2 L-238.9,14190.0 L-234.4,14189.4 L-222.3,14192.3 L-188.6,14200.4 L-177.4,13945.7 L-133.7,13491.1 L-181.2,13479.9 L-186.4,13465.6 L-186.2,13445.1 L-179.6,13398.6 L-170.6,13388.1 L-162.6,13357.9 L-112.1,13369.6 L-84.3,13079.1 L-76.6,12998.7 L-92.3,12994.8 L-82.8,12956.4 L-115.1,12948.7 L-111.0,12925.2 L-105.3,12909.7 L-98.2,12891.6 L-86.2,12866.3 L-73.3,12869.2 L-55.9,12686.5 L-51.8,12575.7 L-51.0,12555.3 L-41.6,12484.8 L-22.9,12309.1 L101.9,11983.7 L130.4,11895.0 L477.1,11762.0 L511.0,11748.4 L516.9,11745.2 L521.5,11741.0 L526.6,11735.1 L530.5,11728.2 L533.1,11721.4 L533.7,11711.5 L533.2,11699.2 L528.6,11543.7 L526.9,11513.6 L526.4,11492.9 L525.7,11452.7 L524.9,11440.1 L523.4,11429.5 L521.3,11420.1 L518.2,11410.5 L513.3,11399.2 L506.1,11387.1 L499.1,11377.5 L493.7,11368.4 L488.2,11356.3 L483.6,11344.7 L481.8,11335.2 L480.4,11324.7 L479.7,11314.2 L480.0,11304.0 L481.2,11292.1 L484.0,11280.4 L487.7,11270.0 L491.6,11260.5 L496.6,11251.3 L502.7,11240.1 L506.7,11230.0 L510.2,11217.1 L516.6,11207.3 L514.4,11118.1 L511.1,11112.9 L510.1,11052.3 L508.4,10980.8 L509.6,10970.9 L512.8,10960.8 L520.8,10945.0 L574.3,10829.9 L575.4,10828.0 L584.8,10807.5 L593.7,10788.1 L603.7,10768.1 L613.5,10747.5 L618.3,10737.5 L670.9,10629.6 L727.1,10510.4 L848.7,10263.6 L775.6,10181.7 L716.0,10308.7 L664.5,10418.6 L656.7,10434.2 L640.8,10466.7 L609.0,10464.0 L600.3,10463.5 L597.2,10466.3 L601.4,10470.1 L585.1,10484.6 L572.2,10496.5 L569.8,10547.4 L565.0,10557.6 L549.4,10557.0 L546.8,10556.1 L342.4,10471.7 L338.0,10469.4 L333.3,10466.4 L325.9,10460.8 L320.2,10455.4 L315.4,10450.2 L310.7,10443.8 L307.1,10438.2 L304.3,10432.4 L302.1,10426.3 L300.6,10422.1 L299.5,10417.0 L298.7,10411.0 L297.9,10402.8 L297.9,10391.1 L296.5,10351.4 L302.1,10351.1 L301.3,10330.1 L300.4,10295.5 L305.6,10295.4 L305.2,10271.8 L299.3,10271.9 L296.6,10172.5 L302.2,10172.2 L301.3,10148.9 L295.9,10149.1 L293.6,10075.6 L320.6,10046.5 L355.1,10045.3 L380.8,10044.4 L414.7,10043.3 L447.3,10042.3 L476.5,10041.3 L489.2,10040.7 L488.6,10029.4 L488.4,10017.6 L486.5,9979.3 L485.8,9906.2 L484.8,9904.9 L484.6,9897.7 L486.7,9897.6 L481.6,9721.5 L477.2,9555.8 L476.5,9550.6 L476.1,9541.0 L403.9,9543.6 L355.9,9539.5 L-3.4,9552.0 L-3.5,9548.8 L-4.2,9533.5 L-174.6,9539.5 L-174.9,9511.2 L-197.4,9506.1 L-201.4,9385.0 L461.4,9362.0 L472.4,9346.9 L472.0,9303.9 L471.2,9266.7 L470.6,9243.4 L469.7,9220.7 L417.0,9195.9 L414.9,9140.8 L468.9,9114.0 L464.0,8986.5 L462.6,8980.2 L408.9,8955.1 L407.2,8886.9 L458.2,8860.6 L435.5,8583.7 L441.5,8460.5 L444.5,8259.6 L444.3,8041.1 L449.1,8010.5 L449.4,7995.7 L444.6,7977.9 L449.6,7977.9 L449.6,7961.8 L452.6,7550.8 L452.1,7532.5 L446.4,7532.5 L446.6,7456.9 L443.3,7452.2 L438.1,7374.2 L448.4,7302.9 L447.1,7216.6 L443.6,7195.9 L448.9,7132.0 L445.3,7054.7 L436.3,6972.0 L419.2,6838.0 L427.3,6801.1 L423.7,6765.2 L393.1,6739.1 L348.2,6739.5 L279.8,6748.5 L235.3,6748.5 L194.9,6733.7 L141.8,6697.3 L141.8,6632.0 L140.4,6551.7 L145.6,6484.8 L163.2,6432.6 L457.9,6427.1 L464.7,6009.2 L464.7,5407.6 L461.6,5189.3 L16373.8,-1382.4 L16373.8,34835.8 L-3338.7,34835.8 L-3338.7,16850.3 Z" fill="#add7e1" stroke="none"><title>Biscayne Bay</title></path><path d="M119.0,132.5 L127.4,131.5 L123.9,25.1 L134.9,-67.4 L57.9,-65.9 L57.4,19.1 L43.4,74.1 L44.8,136.0 L119.0,132.5 Z" fill="#e8ecec" stroke="#d7d1c5" stroke-width="0.3"></path><path d="M61.7,255.7 L45.6,255.3 L52.1,464.3 L74.8,457.5 L80.6,449.3 L84.6,375.3 L110.1,367.8 L124.2,278.0 L70.6,279.3 L69.3,280.0 L63.2,280.5 L62.7,272.6 L61.7,255.7 Z" fill="#e8ecec" stroke="#d7d1c5" stroke-width="0.3"></path><path d="M193.5,74.7 L163.8,75.2 L164.9,90.2 L174.2,89.7 L168.7,93.8 L167.2,95.7 L166.5,99.2 L165.9,102.5 L167.8,150.4 L171.5,149.9 L175.7,149.9 L179.0,149.9 L182.3,150.9 L185.7,152.2 L188.5,153.8 L190.7,154.9 L193.2,154.9 L193.3,154.9 L196.2,152.0 L218.0,111.5 L218.3,107.0 L217.6,102.5 L215.5,99.3 L213.7,96.7 L210.7,94.1 L207.5,91.9 L203.1,89.7 L199.5,88.3 L196.3,87.5 L193.7,86.6 L193.5,74.7 Z" fill="#d6d2c9" stroke="#bab6ad" stroke-width="0.4"><title>Andiamo! Brick Oven Pizza</title></path><path d="M53.5,192.3 L123.5,188.0 L127.0,244.5 L56.0,248.0 L53.5,192.3 Z" fill="#ded0d4" stroke="#c6b5bb" stroke-width="0.4"></path><path d="M44.8,136.0 L119.0,132.5 L121.5,168.8 L46.0,172.0 L44.8,136.0 Z" fill="#ded0d4" stroke="#c6b5bb" stroke-width="0.4"></path><path d="M234.9,205.3 L255.9,217.2 L253.3,221.8 L260.5,225.9 L236.4,268.5 L229.9,264.8 L226.8,270.3 L205.0,257.9 L234.9,205.3 Z" fill="#d6d2c9" stroke="#bab6ad" stroke-width="0.4"></path><path d="M58.7,121.5 L46.9,122.1 L46.3,109.8 L58.1,109.1 L58.7,121.5 Z" fill="#d6d2c9" stroke="#bab6ad" stroke-width="0.4"></path><path d="M249.3,49.7 L249.8,47.7 L251.8,44.7 L254.2,41.6 L257.3,37.9 L260.9,33.4 L264.5,27.4 L266.9,23.3 L268.8,18.2 L269.6,15.7 L271.3,13.1 L273.7,10.1 L276.5,6.0 L278.4,2.2 L279.8,-1.6 L281.1,-4.2 L283.3,-7.6 L286.3,-12.0 L289.3,-16.7 L291.9,-21.6 L293.1,-25.2 L294.0,-27.8 L295.8,-30.9 L298.2,-33.8 L299.6,-35.5 L303.7,-42.6 L304.7,-44.7 L305.1,-46.6 L305.0,-48.5 L305.2,-51.0 L305.7,-52.9 L306.6,-54.8 L307.6,-56.4 L309.1,-58.3 L310.8,-59.6 L313.0,-61.1 L315.2,-63.2 L316.4,-65.3 L318.0,-68.2 L318.8,-69.9 L319.5,-72.3 L320.1,-74.4 L320.9,-76.1 L322.2,-78.0 L323.3,-79.7 L325.0,-81.8 L326.9,-84.2 L328.4,-86.6 L329.5,-88.8 L329.8,-90.6 L330.3,-92.3 L331.2,-94.6 L332.2,-96.5 L333.7,-98.4 L335.4,-100.2 L337.2,-102.2 L338.2,-103.8 L339.0,-105.9 L339.9,-108.0 L340.5,-110.1 L341.3,-112.2 L342.0,-114.0 L343.4,-116.0 L345.1,-117.7 L346.1,-118.8 L347.7,-120.6 L349.0,-122.6 L350.0,-124.6 L350.7,-126.7 L351.3,-129.1 L352.2,-130.8 L353.5,-132.3 L354.8,-134.0 L356.2,-136.4 L357.8,-139.8 L358.4,-142.2 L358.4,-144.8 L357.9,-147.3 L357.0,-150.3 L355.3,-152.5 L352.9,-154.3 L350.4,-155.6 L347.8,-156.4 L344.9,-156.7 L341.6,-156.4 L338.5,-155.5 L336.1,-154.8 L333.4,-154.4 L329.8,-154.7 L326.0,-155.0 L322.5,-154.4 L319.1,-154.0 L315.7,-153.8 L311.8,-154.1 L308.6,-154.6 L305.9,-154.9 L302.6,-154.5 L299.6,-153.6 L296.8,-153.3 L293.9,-153.2 L290.4,-153.5 L287.0,-153.7 L283.9,-153.8 L280.7,-153.1 L278.6,-152.4 L276.8,-152.2 L274.6,-152.7 L272.3,-153.0 L269.2,-153.0 L266.3,-152.5 L263.1,-151.9 L260.0,-151.4 L257.3,-151.6 L254.4,-152.3 L251.6,-152.5 L248.2,-152.1 L245.2,-151.1 L241.8,-150.8 L238.4,-151.0 L234.8,-151.4 L231.0,-151.9 L227.2,-151.9 L224.2,-151.5 L220.6,-151.1 L217.5,-150.5 L214.1,-149.8 L210.7,-149.9 L206.7,-150.7 L204.2,-151.4 L201.2,-151.7 L197.6,-150.8 L194.8,-148.9 L193.1,-146.5 L191.7,-143.6 L191.4,-140.4 L191.8,-137.8 L191.5,-133.3 L190.7,-129.5 L191.0,-125.6 L193.3,-123.0 L195.3,-121.1 L195.9,-119.3 L195.1,-116.9 L193.4,-114.0 L195.6,-115.6 L198.5,-116.0 L201.2,-115.2 L203.4,-114.1 L205.4,-114.3 L207.2,-115.1 L208.6,-117.0 L208.4,-123.2 L207.6,-124.6 L206.1,-125.8 L204.4,-126.1 L202.4,-125.8 L200.7,-125.4 L199.0,-125.1 L196.5,-125.8 L194.1,-127.7 L193.0,-130.4 L193.3,-133.5 L193.8,-136.0 L193.7,-138.6 L193.3,-141.3 L193.9,-143.7 L195.1,-145.7 L197.2,-147.2 L199.5,-148.0 L202.9,-148.0 L206.7,-147.3 L210.6,-147.3 L214.6,-147.5 L219.9,-148.6 L224.5,-149.0 L231.5,-149.2 L238.3,-148.8 L242.8,-148.7 L246.4,-149.1 L249.2,-149.9 L251.9,-150.5 L254.9,-150.0 L258.2,-149.4 L262.7,-149.4 L266.3,-150.1 L269.2,-151.0 L271.5,-151.1 L274.4,-150.3 L276.9,-150.0 L279.8,-150.5 L282.4,-151.3 L284.8,-151.9 L287.4,-151.6 L291.1,-151.0 L294.9,-150.8 L300.4,-151.4 L304.3,-152.3 L306.4,-152.6 L309.2,-152.2 L313.5,-151.6 L317.7,-151.8 L321.5,-152.5 L324.9,-153.2 L328.7,-153.2 L332.9,-152.7 L336.7,-152.7 L339.6,-153.4 L343.4,-154.3 L347.5,-154.2 L350.7,-153.1 L353.5,-151.0 L355.3,-147.7 L356.1,-144.4 L355.8,-141.4 L354.7,-138.2 L352.7,-135.9 L350.6,-133.4 L349.2,-131.2 L348.6,-128.7 L347.8,-126.3 L346.6,-123.6 L344.5,-120.9 L342.1,-118.8 L339.8,-115.5 L338.6,-111.9 L338.0,-109.3 L336.7,-106.0 L334.6,-103.3 L332.0,-100.9 L330.4,-98.7 L328.9,-95.8 L327.9,-92.8 L327.1,-89.4 L325.8,-86.4 L323.1,-83.3 L320.4,-79.9 L318.2,-76.8 L317.3,-73.0 L316.1,-69.6 L314.9,-66.8 L312.8,-63.8 L310.1,-61.8 L307.9,-60.8 L304.1,-61.3 L300.3,-60.9 L296.6,-59.0 L296.7,-57.2 L297.9,-54.2 L299.2,-51.2 L300.5,-48.7 L301.0,-45.5 L299.9,-42.8 L298.1,-38.5 L295.5,-34.9 L293.6,-32.4 L291.9,-30.1 L291.1,-27.2 L289.6,-23.1 L287.9,-19.5 L285.6,-15.9 L283.1,-12.4 L279.8,-8.0 L278.2,-5.2 L276.5,-0.5 L274.8,3.9 L273.0,6.3 L270.9,8.4 L268.9,11.3 L267.0,16.5 L265.3,20.0 L263.0,24.6 L260.0,29.8 L256.9,34.4 L254.2,37.0 L252.3,37.8 L250.3,36.9 L246.0,45.1 L247.7,45.8 L248.9,47.7 L249.3,49.7 Z" fill="#d6d2c9" stroke="#bab6ad" stroke-width="0.4"></path><path d="M154.4,57.8 L143.5,57.7 L132.6,57.7" fill="none" stroke="#cf828d" stroke-width="1.5" stroke-dasharray="1.6 3.0" opacity="0.62" stroke-linecap="round" stroke-linejoin="round"></path><path d="M-12.3,90.7 L-1.3,90.4 L4.5,213.9 L10.6,343.3" fill="none" stroke="#cf828d" stroke-width="1.5" stroke-dasharray="1.6 3.0" opacity="0.62" stroke-linecap="round" stroke-linejoin="round"></path><path d="M143.7,344.6 L151.0,297.1 L156.2,279.3 L164.8,243.7 L173.8,217.1 L186.3,187.7 L196.7,165.3 L206.8,146.4 L248.7,71.8 L367.3,-144.1" fill="none" stroke="#cf828d" stroke-width="1.5" stroke-dasharray="1.6 3.0" opacity="0.62" stroke-linecap="round" stroke-linejoin="round"></path><path d="M4.5,213.9 L-7.3,214.1" fill="none" stroke="#cf828d" stroke-width="1.5" stroke-dasharray="1.6 3.0" opacity="0.62" stroke-linecap="round" stroke-linejoin="round"></path><path d="M73.9,284.9 L121.3,283.4 L127.1,281.7 L131.1,278.8 L133.3,275.2 L135.1,268.3 L135.1,261.2 L134.7,254.1 L126.1,81.5 L125.4,57.6 L132.6,57.7" fill="none" stroke="#cf828d" stroke-width="1.5" stroke-dasharray="1.6 3.0" opacity="0.62" stroke-linecap="round" stroke-linejoin="round"></path><path d="M196.7,165.3 L186.7,167.0 L180.3,166.7 L175.1,164.9 L170.2,161.7 L167.0,157.0 L165.7,151.4 L161.7,57.8 L154.4,57.8" fill="none" stroke="#cf828d" stroke-width="1.5" stroke-dasharray="1.6 3.0" opacity="0.62" stroke-linecap="round" stroke-linejoin="round"></path><path d="M191.7,295.6 L192.6,285.6 L193.2,280.4 L193.7,275.6 L198.1,258.3 L203.3,241.4 L213.3,218.9 L227.0,191.8 L246.4,159.2" fill="none" stroke="#cf828d" stroke-width="1.5" stroke-dasharray="1.6 3.0" opacity="0.62" stroke-linecap="round" stroke-linejoin="round"></path><path d="M246.4,159.2 L248.8,154.8 L251.9,149.2" fill="none" stroke="#cf828d" stroke-width="1.5" stroke-dasharray="1.6 3.0" opacity="0.62" stroke-linecap="round" stroke-linejoin="round"></path><path d="M251.9,149.2 L259.3,135.8" fill="none" stroke="#cf828d" stroke-width="1.5" stroke-dasharray="1.6 3.0" opacity="0.62" stroke-linecap="round" stroke-linejoin="round"></path><path d="M113.0,-44.5 L108.8,-2.9 L105.2,81.6 L106.5,125.1" fill="none" stroke="#cec8bb" stroke-width="3.5" stroke-linecap="round" stroke-linejoin="round"/><path d="M113.0,-44.5 L108.8,-2.9 L105.2,81.6 L106.5,125.1" fill="none" stroke="#ffffff" stroke-width="2.5" stroke-linecap="round" stroke-linejoin="round"></path><path d="M86.6,-46.9 L85.0,28.4 L84.8,82.1 L86.1,126.4" fill="none" stroke="#cec8bb" stroke-width="3.5" stroke-linecap="round" stroke-linejoin="round"/><path d="M86.6,-46.9 L85.0,28.4 L84.8,82.1 L86.1,126.4" fill="none" stroke="#ffffff" stroke-width="2.5" stroke-linecap="round" stroke-linejoin="round"></path><path d="M63.8,82.8 L65.2,128.0" fill="none" stroke="#cec8bb" stroke-width="3.5" stroke-linecap="round" stroke-linejoin="round"/><path d="M63.8,82.8 L65.2,128.0" fill="none" stroke="#ffffff" stroke-width="2.5" stroke-linecap="round" stroke-linejoin="round"></path><path d="M144.3,81.4 L126.1,81.5 L105.2,81.6 L84.8,82.1 L63.8,82.8" fill="none" stroke="#cec8bb" stroke-width="3.5" stroke-linecap="round" stroke-linejoin="round"/><path d="M144.3,81.4 L126.1,81.5 L105.2,81.6 L84.8,82.1 L63.8,82.8" fill="none" stroke="#ffffff" stroke-width="2.5" stroke-linecap="round" stroke-linejoin="round"></path><path d="M256.4,274.9 L255.8,244.9 L270.2,221.5 L247.5,200.1" fill="none" stroke="#cec8bb" stroke-width="3.5" stroke-linecap="round" stroke-linejoin="round"/><path d="M256.4,274.9 L255.8,244.9 L270.2,221.5 L247.5,200.1" fill="none" stroke="#ffffff" stroke-width="2.5" stroke-linecap="round" stroke-linejoin="round"></path><path d="M234.0,156.3 L240.4,155.4 L248.8,154.8 L263.7,153.7 L296.6,152.0" fill="none" stroke="#cec8bb" stroke-width="4.8" stroke-linecap="round" stroke-linejoin="round"/><path d="M234.0,156.3 L240.4,155.4 L248.8,154.8 L263.7,153.7 L296.6,152.0" fill="none" stroke="#ffffff" stroke-width="3.7" stroke-linecap="round" stroke-linejoin="round"><title>Northeast 56th Street</title></path><path d="M296.0,137.1 L282.4,137.5 L272.4,136.9 L267.0,135.0 L264.5,133.5 L261.9,131.0 L258.4,127.0 L256.2,122.5 L255.6,117.9" fill="none" stroke="#cec8bb" stroke-width="4.8" stroke-linecap="round" stroke-linejoin="round"/><path d="M296.0,137.1 L282.4,137.5 L272.4,136.9 L267.0,135.0 L264.5,133.5 L261.9,131.0 L258.4,127.0 L256.2,122.5 L255.6,117.9" fill="none" stroke="#ffffff" stroke-width="3.7" stroke-linecap="round" stroke-linejoin="round"><title>Northeast 56th Street</title></path><path d="M138.8,301.3 L143.8,276.7 L146.1,257.8 L147.5,233.5 L148.5,196.7 L146.8,134.7 L144.3,81.4 L143.6,68.7 L143.5,57.7" fill="none" stroke="#d1c4aa" stroke-width="5.4" stroke-linecap="round" stroke-linejoin="round"/><path d="M138.8,301.3 L143.8,276.7 L146.1,257.8 L147.5,233.5 L148.5,196.7 L146.8,134.7 L144.3,81.4 L143.6,68.7 L143.5,57.7" fill="none" stroke="#f4d99b" stroke-width="4.0" stroke-linecap="round" stroke-linejoin="round"><title>Northeast 4th Court</title></path><path d="M143.5,57.7 L143.3,40.1 L143.6,23.3 L144.8,-0.6 L147.0,-18.6 L153.3,-67.7" fill="none" stroke="#d1c4aa" stroke-width="5.4" stroke-linecap="round" stroke-linejoin="round"/><path d="M143.5,57.7 L143.3,40.1 L143.6,23.3 L144.8,-0.6 L147.0,-18.6 L153.3,-67.7" fill="none" stroke="#f4d99b" stroke-width="4.0" stroke-linecap="round" stroke-linejoin="round"><title>Northeast 4th Court</title></path><path d="M309.3,-15.5 L301.2,-2.0 L291.6,17.0 L212.8,157.0 L196.4,188.7 L183.0,220.3 L173.6,247.1 L165.3,278.1 L160.4,302.5 L156.8,332.4" fill="none" stroke="#d1c4aa" stroke-width="7.3" stroke-linecap="round" stroke-linejoin="round"/><path d="M309.3,-15.5 L301.2,-2.0 L291.6,17.0 L212.8,157.0 L196.4,188.7 L183.0,220.3 L173.6,247.1 L165.3,278.1 L160.4,302.5 L156.8,332.4" fill="none" stroke="#efb36f" stroke-width="5.9" stroke-linecap="round" stroke-linejoin="round"><title>Biscayne Boulevard</title></path><path d="M177.7,307.8 L181.8,286.7 L182.3,284.2 L187.4,263.9 L194.8,239.3 L202.4,220.1 L211.7,198.2 L220.7,180.8 L234.0,156.3 L255.6,117.9 L307.9,24.4" fill="none" stroke="#d1c4aa" stroke-width="7.3" stroke-linecap="round" stroke-linejoin="round"/><path d="M177.7,307.8 L181.8,286.7 L182.3,284.2 L187.4,263.9 L194.8,239.3 L202.4,220.1 L211.7,198.2 L220.7,180.8 L234.0,156.3 L255.6,117.9 L307.9,24.4" fill="none" stroke="#efb36f" stroke-width="5.9" stroke-linecap="round" stroke-linejoin="round"><title>Biscayne Boulevard</title></path><path d="M22.6,327.1 L14.7,165.4 L-9.5,-329.4" fill="none" stroke="#fbf8ef" stroke-width="6.9" stroke-linecap="round" stroke-linejoin="round"/><path d="M22.6,327.1 L14.7,165.4 L-9.5,-329.4" fill="none" stroke="#465158" stroke-width="4.7" stroke-linecap="round" stroke-linejoin="round"><title>Florida East Coast Railway</title></path><path d="M15.6,268.2 L23.9,267.8" fill="none" stroke="#3f494e" stroke-width="0.9" stroke-linecap="round"/><path d="M15.2,259.1 L23.5,258.7" fill="none" stroke="#3f494e" stroke-width="0.9" stroke-linecap="round"/><path d="M14.7,250.0 L23.0,249.6" fill="none" stroke="#3f494e" stroke-width="0.9" stroke-linecap="round"/><path d="M14.3,240.9 L22.6,240.5" fill="none" stroke="#3f494e" stroke-width="0.9" stroke-linecap="round"/><path d="M13.8,231.9 L22.1,231.5" fill="none" stroke="#3f494e" stroke-width="0.9" stroke-linecap="round"/><path d="M13.4,222.8 L21.7,222.4" fill="none" stroke="#3f494e" stroke-width="0.9" stroke-linecap="round"/><path d="M13.0,213.7 L21.2,213.3" fill="none" stroke="#3f494e" stroke-width="0.9" stroke-linecap="round"/><path d="M12.5,204.6 L20.8,204.2" fill="none" stroke="#3f494e" stroke-width="0.9" stroke-linecap="round"/><path d="M12.1,195.5 L20.3,195.1" fill="none" stroke="#3f494e" stroke-width="0.9" stroke-linecap="round"/><path d="M11.6,186.4 L19.9,186.0" fill="none" stroke="#3f494e" stroke-width="0.9" stroke-linecap="round"/><path d="M11.2,177.3 L19.5,176.9" fill="none" stroke="#3f494e" stroke-width="0.9" stroke-linecap="round"/><path d="M10.4,161.0 L18.7,160.6" fill="none" stroke="#3f494e" stroke-width="0.9" stroke-linecap="round"/><path d="M9.9,152.0 L18.2,151.6" fill="none" stroke="#3f494e" stroke-width="0.9" stroke-linecap="round"/><path d="M9.5,142.9 L17.8,142.5" fill="none" stroke="#3f494e" stroke-width="0.9" stroke-linecap="round"/><path d="M9.1,133.8 L17.3,133.4" fill="none" stroke="#3f494e" stroke-width="0.9" stroke-linecap="round"/><path d="M8.6,124.7 L16.9,124.3" fill="none" stroke="#3f494e" stroke-width="0.9" stroke-linecap="round"/><path d="M8.2,115.6 L16.4,115.2" fill="none" stroke="#3f494e" stroke-width="0.9" stroke-linecap="round"/><path d="M7.7,106.5 L16.0,106.1" fill="none" stroke="#3f494e" stroke-width="0.9" stroke-linecap="round"/><path d="M7.3,97.4 L15.5,97.0" fill="none" stroke="#3f494e" stroke-width="0.9" stroke-linecap="round"/><path d="M6.8,88.3 L15.1,87.9" fill="none" stroke="#3f494e" stroke-width="0.9" stroke-linecap="round"/><path d="M6.4,79.2 L14.7,78.8" fill="none" stroke="#3f494e" stroke-width="0.9" stroke-linecap="round"/><path d="M5.9,70.2 L14.2,69.8" fill="none" stroke="#3f494e" stroke-width="0.9" stroke-linecap="round"/><path d="M5.5,61.1 L13.8,60.7" fill="none" stroke="#3f494e" stroke-width="0.9" stroke-linecap="round"/><path d="M5.0,52.0 L13.3,51.6" fill="none" stroke="#3f494e" stroke-width="0.9" stroke-linecap="round"/><path d="M4.6,42.9 L12.9,42.5" fill="none" stroke="#3f494e" stroke-width="0.9" stroke-linecap="round"/><path d="M4.2,33.8 L12.4,33.4" fill="none" stroke="#3f494e" stroke-width="0.9" stroke-linecap="round"/><path d="M3.7,24.7 L12.0,24.3" fill="none" stroke="#3f494e" stroke-width="0.9" stroke-linecap="round"/><path d="M3.3,15.6 L11.5,15.2" fill="none" stroke="#3f494e" stroke-width="0.9" stroke-linecap="round"/><path d="M2.8,6.5 L11.1,6.1" fill="none" stroke="#3f494e" stroke-width="0.9" stroke-linecap="round"/><path d="M2.4,-2.6 L10.7,-3.0" fill="none" stroke="#3f494e" stroke-width="0.9" stroke-linecap="round"/><path d="M1.9,-11.6 L10.2,-12.1" fill="none" stroke="#3f494e" stroke-width="0.9" stroke-linecap="round"/><path d="M22.6,327.1 L14.7,165.4 L-9.5,-329.4" fill="none" stroke="#ffffff" stroke-width="2.9" stroke-linecap="round" stroke-linejoin="round"/><path d="M-1.4,-329.6 L22.9,165.4 L30.8,326.2" fill="none" stroke="#fbf8ef" stroke-width="6.9" stroke-linecap="round" stroke-linejoin="round"/><path d="M-1.4,-329.6 L22.9,165.4 L30.8,326.2" fill="none" stroke="#465158" stroke-width="4.7" stroke-linecap="round" stroke-linejoin="round"><title>Florida East Coast Railway</title></path><path d="M18.1,-16.3 L9.8,-15.9" fill="none" stroke="#3f494e" stroke-width="0.9" stroke-linecap="round"/><path d="M18.6,-7.2 L10.3,-6.8" fill="none" stroke="#3f494e" stroke-width="0.9" stroke-linecap="round"/><path d="M19.0,1.9 L10.7,2.3" fill="none" stroke="#3f494e" stroke-width="0.9" stroke-linecap="round"/><path d="M19.5,11.0 L11.2,11.4" fill="none" stroke="#3f494e" stroke-width="0.9" stroke-linecap="round"/><path d="M19.9,20.1 L11.6,20.5" fill="none" stroke="#3f494e" stroke-width="0.9" stroke-linecap="round"/><path d="M20.3,29.2 L12.1,29.6" fill="none" stroke="#3f494e" stroke-width="0.9" stroke-linecap="round"/><path d="M20.8,38.3 L12.5,38.7" fill="none" stroke="#3f494e" stroke-width="0.9" stroke-linecap="round"/><path d="M21.2,47.3 L13.0,47.8" fill="none" stroke="#3f494e" stroke-width="0.9" stroke-linecap="round"/><path d="M21.7,56.4 L13.4,56.8" fill="none" stroke="#3f494e" stroke-width="0.9" stroke-linecap="round"/><path d="M22.1,65.5 L13.9,65.9" fill="none" stroke="#3f494e" stroke-width="0.9" stroke-linecap="round"/><path d="M22.6,74.6 L14.3,75.0" fill="none" stroke="#3f494e" stroke-width="0.9" stroke-linecap="round"/><path d="M23.0,83.7 L14.7,84.1" fill="none" stroke="#3f494e" stroke-width="0.9" stroke-linecap="round"/><path d="M23.5,92.8 L15.2,93.2" fill="none" stroke="#3f494e" stroke-width="0.9" stroke-linecap="round"/><path d="M23.9,101.9 L15.6,102.3" fill="none" stroke="#3f494e" stroke-width="0.9" stroke-linecap="round"/><path d="M24.3,111.0 L16.1,111.4" fill="none" stroke="#3f494e" stroke-width="0.9" stroke-linecap="round"/><path d="M24.8,120.1 L16.5,120.5" fill="none" stroke="#3f494e" stroke-width="0.9" stroke-linecap="round"/><path d="M25.2,129.1 L17.0,129.6" fill="none" stroke="#3f494e" stroke-width="0.9" stroke-linecap="round"/><path d="M25.7,138.2 L17.4,138.6" fill="none" stroke="#3f494e" stroke-width="0.9" stroke-linecap="round"/><path d="M26.1,147.3 L17.9,147.7" fill="none" stroke="#3f494e" stroke-width="0.9" stroke-linecap="round"/><path d="M26.6,156.4 L18.3,156.8" fill="none" stroke="#3f494e" stroke-width="0.9" stroke-linecap="round"/><path d="M27.2,169.8 L19.0,170.2" fill="none" stroke="#3f494e" stroke-width="0.9" stroke-linecap="round"/><path d="M27.7,178.8 L19.4,179.2" fill="none" stroke="#3f494e" stroke-width="0.9" stroke-linecap="round"/><path d="M28.1,187.9 L19.9,188.3" fill="none" stroke="#3f494e" stroke-width="0.9" stroke-linecap="round"/><path d="M28.6,197.0 L20.3,197.4" fill="none" stroke="#3f494e" stroke-width="0.9" stroke-linecap="round"/><path d="M29.0,206.1 L20.7,206.5" fill="none" stroke="#3f494e" stroke-width="0.9" stroke-linecap="round"/><path d="M29.5,215.2 L21.2,215.6" fill="none" stroke="#3f494e" stroke-width="0.9" stroke-linecap="round"/><path d="M29.9,224.3 L21.6,224.7" fill="none" stroke="#3f494e" stroke-width="0.9" stroke-linecap="round"/><path d="M30.3,233.4 L22.1,233.8" fill="none" stroke="#3f494e" stroke-width="0.9" stroke-linecap="round"/><path d="M30.8,242.5 L22.5,242.9" fill="none" stroke="#3f494e" stroke-width="0.9" stroke-linecap="round"/><path d="M31.2,251.6 L23.0,252.0" fill="none" stroke="#3f494e" stroke-width="0.9" stroke-linecap="round"/><path d="M31.7,260.6 L23.4,261.0" fill="none" stroke="#3f494e" stroke-width="0.9" stroke-linecap="round"/><path d="M32.1,269.7 L23.9,270.1" fill="none" stroke="#3f494e" stroke-width="0.9" stroke-linecap="round"/><path d="M-1.4,-329.6 L22.9,165.4 L30.8,326.2" fill="none" stroke="#ffffff" stroke-width="2.9" stroke-linecap="round" stroke-linejoin="round"/><text x="220.5" y="54.9" text-anchor="middle" font-family="Arial, sans-serif" font-size="7.1" font-weight="600" paint-order="stroke" stroke="#fbf1df" stroke-width="1.45" stroke-linejoin="round" fill="#98662b" textLength="59.1" lengthAdjust="spacing">Crema Gourmet</text><text x="191.1" y="114.8" text-anchor="middle" font-family="Arial, sans-serif" font-size="7.1" font-weight="600" paint-order="stroke" stroke="#fbf1df" stroke-width="1.45" stroke-linejoin="round" fill="#98662b" textLength="113.6" lengthAdjust="spacing">Andiamo! Brick Oven Pizza</text><text x="164.2" y="237.4" text-anchor="middle" font-family="Arial, sans-serif" font-size="8" font-weight="600" paint-order="stroke" stroke="#fbf7ed" stroke-width="1.9" stroke-linejoin="round" fill="#514a42" textLength="46.1" lengthAdjust="spacing">Citi Bike</text><g><rect x="210.4" y="127.6" width="30.0" height="14.0" rx="3" fill="#ffffff" stroke="#8a8f96" stroke-width="1"/><text x="225.4" y="135.0" text-anchor="middle" dominant-baseline="central" font-family="Arial, sans-serif" font-size="8" font-weight="700" fill="#56616a">US 1</text></g><text x="89.9" y="16.5" text-anchor="middle" font-family="Arial, sans-serif" font-size="6.5" textLength="18.0" lengthAdjust="spacing" font-weight="500" paint-order="stroke" stroke="#f3f5ee" stroke-width="1.55" stroke-linejoin="round" fill="#6f777a">5640</text><text x="209.6" y="16.5" text-anchor="middle" font-family="Arial, sans-serif" font-size="6.5" textLength="18.0" lengthAdjust="spacing" font-weight="500" paint-order="stroke" stroke="#f3f5ee" stroke-width="1.55" stroke-linejoin="round" fill="#6f777a">5620</text><text x="95.0" y="149.5" text-anchor="middle" font-family="Arial, sans-serif" font-size="6.5" textLength="18.0" lengthAdjust="spacing" font-weight="500" paint-order="stroke" stroke="#f3f5ee" stroke-width="1.55" stroke-linejoin="round" fill="#6f777a">5582</text><text x="100.5" y="218.1" text-anchor="middle" font-family="Arial, sans-serif" font-size="6.5" textLength="18.0" lengthAdjust="spacing" font-weight="500" paint-order="stroke" stroke="#f3f5ee" stroke-width="1.55" stroke-linejoin="round" fill="#6f777a">5580</text><text x="201.6" y="70.6" text-anchor="middle" font-family="Arial, sans-serif" font-size="6.5" textLength="18.0" lengthAdjust="spacing" font-weight="500" paint-order="stroke" stroke="#f3f5ee" stroke-width="1.55" stroke-linejoin="round" fill="#6f777a">5604</text><text x="241.0" y="238.5" text-anchor="middle" font-family="Arial, sans-serif" font-size="6.5" textLength="18.0" lengthAdjust="spacing" font-weight="500" paint-order="stroke" stroke="#f3f5ee" stroke-width="1.55" stroke-linejoin="round" fill="#6f777a">5555</text><g><title>parking</title><circle cx="88.6" cy="48.1" r="6.0" fill="#2f8ec8" stroke="#ffffff" stroke-width="1.7"/><text x="88.6" y="48.3" text-anchor="middle" dominant-baseline="central" font-family="Arial, sans-serif" font-size="11.4" font-weight="700" fill="#ffffff">P</text></g><g><title>NE 4 CT@OP</title><rect x="158.3" y="52.9" width="6.9" height="6.1" rx="1.3" fill="#2796c9" stroke="#ffffff" stroke-width="1.05"/><rect x="159.6" y="54.1" width="4.4" height="2.1" rx="0.35" fill="#ffffff"/><circle cx="159.9" cy="57.9" r="0.5" fill="#ffffff"/><circle cx="163.6" cy="57.9" r="0.5" fill="#ffffff"/></g><g><title>Divergent Ink</title><circle cx="126.7" cy="150.1" r="4.6" fill="#a34ab4" stroke="#ffffff" stroke-width="1.7"/><path d="M124.1,149.1 H129.3 V152.8 H124.1 Z" stroke="#ffffff" stroke-width="1.10" stroke-linejoin="round" fill="none"/><path d="M125.4,149.1 C125.6,146.9 127.8,146.9 128.0,149.1" stroke="#ffffff" stroke-width="1.10" stroke-linecap="round" fill="none"/></g><g><title>Cerec Depot</title><circle cx="241.8" cy="238.5" r="4.6" fill="#a34ab4" stroke="#ffffff" stroke-width="1.7"/><path d="M239.2,237.5 H244.4 V241.2 H239.2 Z" stroke="#ffffff" stroke-width="1.10" stroke-linejoin="round" fill="none"/><path d="M240.5,237.5 C240.7,235.3 242.9,235.3 243.1,237.5" stroke="#ffffff" stroke-width="1.10" stroke-linecap="round" fill="none"/></g><g><title>Andiamo! Brick Oven Pizza</title><circle cx="189.4" cy="115.0" r="5.2" fill="#c97924" stroke="#ffffff" stroke-width="1.7"/><path d="M187.1,111.6 L187.1,117.9 M185.8,111.6 L188.4,111.6 M191.5,111.6 L191.5,117.9 M191.5,111.6 C193.4,113.1 193.0,115.2 191.5,115.4" stroke="#ffffff" stroke-width="1.26" stroke-linecap="round" stroke-linejoin="round" fill="none"/></g><g><title>Crema Gourmet</title><circle cx="238.5" cy="54.9" r="5.1" fill="#9a7451" stroke="#ffffff" stroke-width="1.7"/><path d="M235.6,53.6 H240.0 V56.7 Q237.9,57.9 235.6,56.7 Z" fill="#ffffff"/><path d="M240.0,54.1 Q242.0,54.9 240.0,56.1" stroke="#ffffff" stroke-width="1.22" stroke-linecap="round" fill="none"/><path d="M236.7,51.0 C235.8,51.8 237.5,52.4 236.6,53.2 M239.1,51.0 C238.2,51.8 239.8,52.4 239.0,53.2" stroke="#ffffff" stroke-width="0.92" stroke-linecap="round" fill="none"/></g><g opacity="0.56"><title>crossing</title><path d="M141.2,55.9 L145.7,55.9 M141.2,57.7 L145.7,57.7 M141.2,59.5 L145.7,59.5" stroke="#ffffff" stroke-width="2.1" stroke-linecap="round"/><path d="M141.2,55.9 L145.7,55.9 M141.2,57.7 L145.7,57.7 M141.2,59.5 L145.7,59.5" stroke="#59656a" stroke-width="0.85" stroke-linecap="round"/></g></svg>