<svg xmlns="http://www.w3.org/2000/svg" width="256" height="256" viewBox="0 0 256 256"><rect width="256" height="256" fill="#f1efe7"/><path d="M-3338.7,-45.7 L-3123.9,-135.0 L-3056.7,-167.3 L-2756.2,-311.6 L-2699.8,-257.0 L-2694.9,-252.3 L-2589.5,-342.5 L-2564.4,-361.6 L-2522.5,-399.4 L-2286.4,-616.2 L-2095.9,-833.8 L-2088.6,-847.7 L-2081.6,-855.6 L-2070.5,-868.3 L-2059.2,-881.2 L-2054.6,-886.5 L-2129.7,-983.6 L-2030.3,-1043.2 L-1976.4,-971.5 L-1900.2,-1058.7 L-1964.7,-1144.1 L-1884.8,-1227.4 L-1823.3,-1146.4 L-1752.7,-1226.8 L-1722.6,-1246.5 L-1575.4,-1342.0 L-1502.7,-1390.3 L-1415.1,-1447.9 L-1373.7,-1475.1 L-1268.8,-1542.8 L-1295.8,-1578.3 L-1344.1,-1643.0 L-1219.2,-1722.4 L-1173.7,-1745.9 L-1170.2,-1748.4 L-1146.2,-1766.9 L-1060.6,-1812.7 L-1054.7,-1821.9 L-1030.7,-1838.4 L-1017.7,-1857.4 L-1014.0,-1860.2 L-993.1,-1868.3 L-945.9,-1885.2 L-913.6,-1899.4 L-799.5,-1953.0 L-798.1,-1949.3 L-702.4,-1990.2 L-663.3,-1940.1 L-576.2,-1998.2 L-563.8,-2006.7 L-562.6,-2007.7 L-561.4,-2009.3 L-559.5,-2012.6 L-558.5,-2015.7 L-557.9,-2019.4 L-558.0,-2022.4 L-558.4,-2025.3 L-558.8,-2028.6 L-558.9,-2031.1 L-558.7,-2033.2 L-558.3,-2035.4 L-556.7,-2039.4 L-555.6,-2041.6 L-553.1,-2045.4 L-550.5,-2048.2 L-537.8,-2053.3 L-527.2,-2057.3 L-513.7,-2061.7 L-507.4,-2063.4 L-496.2,-2067.1 L-488.3,-2069.9 L-477.4,-2074.4 L-462.6,-2080.9 L-446.6,-2088.4 L-438.0,-2092.6 L-427.2,-2098.1 L-417.1,-2103.7 L-407.0,-2109.7 L-396.7,-2116.4 L-393.5,-2118.6 L-372.8,-2134.4 L-355.4,-2147.8 L-338.4,-2162.2 L-322.5,-2177.2 L-311.0,-2190.1 L-299.6,-2204.0 L-285.6,-2222.0 L-272.8,-2240.0 L-258.1,-2263.1 L-248.5,-2281.0 L-242.5,-2292.4 L-233.6,-2311.7 L-226.1,-2329.6 L-219.4,-2348.9 L-214.0,-2365.8 L-208.1,-2393.2 L-203.8,-2417.7 L-201.5,-2438.7 L-199.5,-2463.5 L-199.3,-2490.0 L-200.9,-2514.5 L-205.1,-2546.5 L-209.5,-2568.3 L-214.5,-2588.9 L-221.9,-2612.3 L-228.2,-2630.2 L-235.4,-2649.7 L-242.2,-2665.9 L-246.8,-2676.4 L-248.7,-2684.1 L-249.0,-2690.0 L-248.4,-2695.3 L-246.3,-2699.9 L-243.1,-2703.8 L-238.9,-2706.0 L-234.4,-2706.6 L-222.3,-2703.7 L-188.6,-2695.6 L-177.4,-2950.3 L-133.7,-3404.9 L-181.2,-3416.1 L-186.4,-3430.4 L-186.2,-3450.9 L-179.6,-3497.4 L-170.6,-3507.9 L-162.6,-3538.1 L-112.1,-3526.4 L-84.3,-3816.9 L-76.6,-3897.3 L-92.3,-3901.2 L-82.8,-3939.6 L-115.1,-3947.3 L-111.0,-3970.8 L-105.3,-3986.3 L-98.2,-4004.4 L-86.2,-4029.7 L-73.3,-4026.8 L-55.9,-4209.5 L-51.8,-4320.3 L-51.0,-4340.7 L-41.6,-4411.2 L-22.9,-4586.9 L101.9,-4912.3 L130.4,-5001.0 L477.1,-5134.0 L511.0,-5147.6 L516.9,-5150.8 L521.5,-5155.0 L526.6,-5160.9 L530.5,-5167.8 L533.1,-5174.6 L533.7,-5184.5 L533.2,-5196.8 L528.6,-5352.3 L526.9,-5382.4 L526.4,-5403.1 L525.7,-5443.3 L524.9,-5455.9 L523.4,-5466.5 L521.3,-5475.9 L518.2,-5485.5 L513.3,-5496.8 L506.1,-5508.9 L499.1,-5518.5 L493.7,-5527.6 L488.2,-5539.7 L483.6,-5551.3 L481.8,-5560.8 L480.4,-5571.3 L479.7,-5581.8 L480.0,-5592.0 L481.2,-5603.9 L484.0,-5615.6 L487.7,-5626.0 L491.6,-5635.5 L496.6,-5644.7 L502.7,-5655.9 L506.7,-5666.0 L510.2,-5678.9 L516.6,-5688.7 L514.4,-5777.9 L511.1,-5783.1 L510.1,-5843.7 L508.4,-5915.2 L509.6,-5925.1 L512.8,-5935.2 L520.8,-5951.0 L574.3,-6066.1 L575.4,-6068.0 L584.8,-6088.5 L593.7,-6107.9 L603.7,-6127.9 L613.5,-6148.5 L618.3,-6158.5 L670.9,-6266.4 L727.1,-6385.6 L848.7,-6632.4 L775.6,-6714.3 L716.0,-6587.3 L664.5,-6477.4 L656.7,-6461.8 L640.8,-6429.3 L609.0,-6432.0 L600.3,-6432.5 L597.2,-6429.7 L601.4,-6425.9 L585.1,-6411.4 L572.2,-6399.5 L569.8,-6348.6 L565.0,-6338.4 L549.4,-6339.0 L546.8,-6339.9 L342.4,-6424.3 L338.0,-6426.6 L333.3,-6429.6 L325.9,-6435.2 L320.2,-6440.6 L315.4,-6445.8 L310.7,-6452.2 L307.1,-6457.8 L304.3,-6463.6 L302.1,-6469.7 L300.6,-6473.9 L299.5,-6479.0 L298.7,-6485.0 L297.9,-6493.2 L297.9,-6504.9 L296.5,-6544.6 L302.1,-6544.9 L301.3,-6565.9 L300.4,-6600.5 L305.6,-6600.6 L305.2,-6624.2 L299.3,-6624.1 L296.6,-6723.5 L302.2,-6723.8 L301.3,-6747.1 L295.9,-6746.9 L293.6,-6820.4 L320.6,-6849.5 L355.1,-6850.7 L380.8,-6851.6 L414.7,-6852.7 L447.3,-6853.7 L476.5,-6854.7 L489.2,-6855.3 L488.6,-6866.6 L488.4,-6878.4 L486.5,-6916.7 L485.8,-6989.8 L484.8,-6991.1 L484.6,-6998.3 L486.7,-6998.4 L481.6,-7174.5 L477.2,-7340.2 L476.5,-7345.4 L476.1,-7355.0 L403.9,-7352.4 L355.9,-7356.5 L-3.4,-7344.0 L-3.5,-7347.2 L-4.2,-7362.5 L-174.6,-7356.5 L-174.9,-7384.8 L-197.4,-7389.9 L-201.4,-7511.0 L461.4,-7534.0 L472.4,-7549.1 L472.0,-7592.1 L471.2,-7629.3 L470.6,-7652.6 L469.7,-7675.3 L417.0,-7700.1 L414.9,-7755.2 L468.9,-7782.0 L464.0,-7909.5 L462.6,-7915.8 L408.9,-7940.9 L407.2,-8009.1 L458.2,-8035.4 L435.5,-8312.3 L441.5,-8435.5 L444.5,-8636.4 L444.3,-8854.9 L449.1,-8885.5 L449.4,-8900.3 L444.6,-8918.1 L449.6,-8918.1 L449.6,-8934.2 L452.6,-9345.2 L452.1,-9363.5 L446.4,-9363.5 L446.6,-9439.1 L443.3,-9443.8 L438.1,-9521.8 L448.4,-9593.1 L447.1,-9679.4 L443.6,-9700.1 L448.9,-9764.0 L445.3,-9841.3 L436.3,-9924.0 L419.2,-10058.0 L427.3,-10094.9 L423.7,-10130.8 L393.1,-10156.9 L348.2,-10156.5 L279.8,-10147.5 L235.3,-10147.5 L194.9,-10162.3 L141.8,-10198.7 L141.8,-10264.0 L140.4,-10344.3 L145.6,-10411.2 L163.2,-10463.4 L457.9,-10468.9 L464.7,-10886.8 L464.7,-11488.4 L461.6,-11706.7 L16373.8,-18278.4 L16373.8,17939.8 L-3338.7,17939.8 L-3338.7,-45.7 Z" fill="#add7e1" stroke="none"><title>Biscayne Bay</title></path><path d="M-10730.8,9239.5 L-11275.0,8837.8 L-11318.5,8805.8 L-11365.7,8795.5 L-11399.0,8767.5 L-11425.6,8764.4 L-11511.6,8770.1 L-11511.5,8762.0 L-11516.3,8754.4 L-11525.9,8748.5 L-11712.7,8667.6 L-11725.4,8661.8 L-11736.5,8658.6 L-11750.3,8657.5 L-11764.2,8657.2 L-11810.6,8657.2 L-11822.9,8656.5 L-11835.0,8654.1 L-11847.8,8649.1 L-11863.2,8645.0 L-11874.4,8644.0 L-11907.3,8642.6 L-11918.3,8640.6 L-11932.3,8636.1 L-11946.0,8632.6 L-11959.3,8629.5 L-11969.7,8625.3 L-11982.3,8617.5 L-11993.5,8609.1 L-12004.4,8600.9 L-12013.3,8596.7 L-12020.1,8595.3 L-12026.2,8595.7 L-12032.7,8597.5 L-12040.3,8601.4 L-12046.3,8608.0 L-12054.4,8615.9 L-12063.4,8624.2 L-12073.6,8629.8 L-12086.5,8634.0 L-12097.2,8636.6 L-12110.1,8638.6 L-12131.7,8641.1 L-12185.9,8643.7 L-12231.9,8646.0 L-12251.7,8653.1 L-12292.3,8654.5 L-12297.8,8646.0 L-12303.9,8642.1 L-12310.2,8640.9 L-12354.0,8643.4 L-12373.0,8650.2 L-12396.3,8650.4 L-12412.0,8648.1 L-12424.9,8644.2 L-12472.0,8647.0 L-12596.6,8656.7 L-12625.3,8657.5 L-12635.1,8657.3 L-12643.9,8655.1 L-12654.1,8650.0 L-12661.6,8644.0 L-12694.0,8644.1 L-12721.1,8643.7 L-12728.4,8648.2 L-12765.7,8649.1 L-12770.5,8657.0 L-12775.8,8657.2 L-12785.0,8655.0 L-12801.5,8653.0 L-12818.5,8653.9 L-12823.7,8655.5 L-12829.0,8654.6 L-12832.6,8651.1 L-12838.7,8647.6 L-12861.4,8647.7 L-12884.3,8648.9 L-12906.0,8661.7 L-12916.7,8666.8 L-12928.9,8669.5 L-12939.0,8670.2 L-12948.1,8668.8 L-12969.1,8659.8 L-12981.1,8656.0 L-12991.3,8654.5 L-13036.0,8655.1 L-13038.8,8649.7 L-13078.3,8650.6 L-13105.5,8655.6 L-13123.4,8657.7 L-13133.0,8659.8 L-13136.7,8657.3 L-13143.5,8656.4 L-13207.2,8650.6 L-13212.7,8653.6 L-13219.4,8655.0 L-13228.2,8655.1 L-13228.2,8651.9 L-13267.7,8644.5 L-13292.6,8639.7 L-13352.8,8619.5 L-13356.1,8624.0 L-13396.3,8611.6 L-13404.7,8608.8 L-13400.6,8594.8 L-13405.4,8593.3 L-13406.4,8591.8 L-13409.0,8591.0 L-13412.6,8590.5 L-13417.0,8588.3 L-13415.5,8587.0 L-13433.3,8572.5 L-13462.9,8545.7 L-13478.8,8531.7 L-13490.1,8519.4 L-13496.4,8511.1 L-13505.8,8498.3 L-13511.2,8488.4 L-13528.0,8467.3 L-13529.6,8466.1 L-13530.7,8466.0 L-13531.9,8466.2 L-13534.1,8466.3 L-13536.1,8465.3 L-13540.3,8462.6 L-13548.9,8458.1 L-13553.1,8454.5 L-13558.0,8450.2 L-13564.7,8446.6 L-13575.2,8443.3 L-13586.3,8441.3 L-13595.8,8441.1 L-13593.1,8415.9 L-13590.9,8383.0 L-13580.6,8384.0 L-13570.3,8385.8 L-13556.8,8389.8 L-13546.9,8393.5 L-13538.0,8397.6 L-13529.4,8401.6 L-13521.3,8406.2 L-13514.7,8411.3 L-13505.9,8418.1 L-13496.7,8425.0 L-13494.6,8426.3 L-13492.7,8426.7 L-13467.5,8425.6 L-13467.2,8431.3 L-13468.7,8433.8 L-13487.6,8435.6 L-13482.8,8445.4 L-13479.5,8444.2 L-13476.5,8447.2 L-13474.6,8450.1 L-13473.0,8452.3 L-13469.1,8457.5 L-13467.6,8463.2 L-13461.5,8471.6 L-13447.1,8480.7 L-13429.2,8489.8 L-13407.8,8503.3 L-13398.0,8507.9 L-13377.4,8519.6 L-13367.7,8524.7 L-13350.0,8531.2 L-13315.2,8540.5 L-13294.8,8545.4 L-13276.2,8547.3 L-13266.3,8548.6 L-13264.1,8548.4 L-13263.2,8547.1 L-13262.9,8540.5 L-13239.8,8540.5 L-13239.3,8547.9 L-13190.9,8550.4 L-13143.7,8551.8 L-13111.6,8550.6 L-13101.0,8549.8 L-13093.3,8548.8 L-13087.0,8547.0 L-13081.2,8543.5 L-13078.3,8538.8 L-13079.4,8461.3 L-13059.9,8460.2 L-13058.2,8535.8 L-13057.1,8537.7 L-13053.2,8540.4 L-13048.7,8541.7 L-12945.3,8541.9 L-12945.8,8508.6 L-12937.7,8508.4 L-12934.3,8541.9 L-12870.5,8541.3 L-12870.5,8537.7 L-12864.2,8537.6 L-12864.0,8540.2 L-12438.5,8532.1 L-12407.7,8528.5 L-12370.1,8527.4 L-12334.5,8532.1 L-12322.6,8531.1 L-12313.9,8529.4 L-12305.8,8526.5 L-12295.3,8522.5 L-12081.4,8518.7 L-12081.5,8503.9 L-11961.8,8501.8 L-11961.7,8518.1 L-11910.9,8519.9 L-11907.0,8519.8 L-11903.4,8519.5 L-11898.7,8518.9 L-11894.9,8517.9 L-11891.2,8516.7 L-11884.9,8513.7 L-11882.0,8518.7 L-11875.8,8514.8 L-11870.1,8510.2 L-11865.3,8505.2 L-11861.1,8499.3 L-11857.2,8492.0 L-11864.5,8487.9 L-11862.5,8481.8 L-11861.2,8475.5 L-11860.5,8469.5 L-11860.4,8464.8 L-11860.6,8460.4 L-11861.3,8422.5 L-11867.4,8416.9 L-11862.2,8411.4 L-11867.5,8406.8 L-11861.5,8399.7 L-11868.0,8394.0 L-11862.8,8388.5 L-11868.0,8383.5 L-11861.9,8377.0 L-11868.2,8370.6 L-11855.1,8356.2 L-11852.8,8356.1 L-11858.5,8141.6 L-11810.4,8140.5 L-11808.1,8141.7 L-11805.5,8143.7 L-11803.6,8145.4 L-11802.8,8147.4 L-11802.1,8149.8 L-11801.9,8152.2 L-11797.8,8485.5 L-11795.9,8496.3 L-11793.2,8503.6 L-11789.0,8512.6 L-11784.1,8521.4 L-11779.0,8528.4 L-11774.9,8532.7 L-11770.5,8536.1 L-11765.4,8539.1 L-11760.1,8541.1 L-11752.9,8543.2 L-11744.0,8544.9 L-11733.2,8546.9 L-11720.6,8549.2 L-11708.6,8551.8 L-11695.3,8554.2 L-11682.7,8556.9 L-11678.7,8557.7 L-11673.8,8558.7 L-11669.0,8559.3 L-11664.8,8559.4 L-11660.0,8559.4 L-11656.3,8559.2 L-11652.6,8558.5 L-11649.4,8557.7 L-11646.0,8556.7 L-11643.1,8555.4 L-11637.3,8552.6 L-11632.2,8549.6 L-11627.1,8545.9 L-11621.2,8540.2 L-11615.7,8534.0 L-11612.7,8528.7 L-11610.0,8522.2 L-11608.6,8516.9 L-11607.8,8511.2 L-11607.3,8505.8 L-11607.3,8500.8 L-11614.6,8143.6 L-11604.2,8132.9 L-11600.4,8132.5 L-11598.9,8131.1 L-11577.2,8130.5 L-11575.3,8127.3 L-11572.0,8128.2 L-11566.5,8133.3 L-11562.7,8138.6 L-11558.9,8145.2 L-11551.7,8544.4 L-11551.0,8551.4 L-11549.7,8565.3 L-11548.4,8568.1 L-11549.4,8568.8 L-11547.6,8572.7 L-11545.3,8577.3 L-11543.3,8580.2 L-11540.9,8583.7 L-11537.6,8587.5 L-11533.7,8591.5 L-11529.0,8595.5 L-11524.8,8598.6 L-11520.2,8601.1 L-11515.8,8603.3 L-11511.1,8604.8 L-11510.5,8603.4 L-11444.3,8627.4 L-11436.0,8630.5 L-11432.2,8631.9 L-11426.3,8634.0 L-11422.0,8635.0 L-11418.3,8635.5 L-11414.9,8635.5 L-11410.1,8635.1 L-11404.9,8634.6 L-11400.3,8633.6 L-11395.6,8632.3 L-11392.1,8630.9 L-11388.4,8629.2 L-11385.4,8627.3 L-11381.6,8624.5 L-11376.8,8620.3 L-11372.4,8616.0 L-11367.6,8610.0 L-11364.2,8604.4 L-11361.4,8598.2 L-11359.4,8591.3 L-11358.2,8584.3 L-11357.5,8571.8 L-11357.8,8546.3 L-11365.1,8140.2 L-11365.1,8135.7 L-11364.3,8132.5 L-11362.9,8129.9 L-11360.0,8127.5 L-11356.7,8125.8 L-11353.0,8125.2 L-11322.9,8124.2 L-11319.3,8124.8 L-11316.1,8126.2 L-11313.8,8128.4 L-11311.2,8132.2 L-11309.7,8137.6 L-11308.8,8144.9 L-11301.3,8665.8 L-11300.9,8668.9 L-11300.3,8672.0 L-11299.4,8675.2 L-11298.3,8678.7 L-11297.1,8682.2 L-11295.7,8685.4 L-11294.5,8688.1 L-11293.2,8690.5 L-11291.3,8693.5 L-11289.2,8696.1 L-11287.3,8698.5 L-11284.4,8701.6 L-11281.6,8704.3 L-11278.5,8706.8 L-11275.2,8709.3 L-11266.0,8715.1 L-11265.1,8714.0 L-11257.0,8718.5 L-11247.4,8723.7 L-11241.9,8726.7 L-11235.8,8730.3 L-11229.5,8734.0 L-11223.0,8738.0 L-11215.7,8742.5 L-11208.5,8747.0 L-11201.3,8751.3 L-11195.3,8755.0 L-11188.6,8759.3 L-11181.5,8763.9 L-11174.7,8768.4 L-11168.4,8772.7 L-11169.1,8773.6 L-11160.3,8779.7 L-11151.2,8785.8 L-11148.4,8787.5 L-11145.3,8789.2 L-11140.9,8791.3 L-11136.8,8792.8 L-11132.4,8794.0 L-11128.5,8795.0 L-11123.9,8795.7 L-11118.8,8796.3 L-11114.4,8796.3 L-11110.7,8796.0 L-11107.5,8795.3 L-11103.4,8794.2 L-11099.3,8792.9 L-11095.5,8791.6 L-11092.0,8789.9 L-11088.4,8788.0 L-11084.9,8785.8 L-11081.3,8783.0 L-11078.1,8780.1 L-11075.0,8777.0 L-11072.1,8773.8 L-11069.1,8769.4 L-11066.6,8765.0 L-11064.2,8760.1 L-11062.8,8756.3 L-11061.7,8752.3 L-11060.9,8748.0 L-11060.5,8743.7 L-11060.8,8738.8 L-11120.1,8171.1 L-11116.0,8170.7 L-11119.3,8142.3 L-11122.3,8142.5 L-11124.7,8129.4 L-11123.9,8126.7 L-11121.4,8122.7 L-11116.3,8118.8 L-11109.6,8118.0 L-11082.7,8117.1 L-11078.2,8118.0 L-11075.1,8119.5 L-11071.8,8122.1 L-11069.5,8124.5 L-11067.9,8127.0 L-11002.9,8763.9 L-11001.4,8769.4 L-10998.6,8776.2 L-10996.2,8780.6 L-10993.6,8785.3 L-10990.2,8789.9 L-10987.4,8793.1 L-10984.3,8796.3 L-10980.9,8799.0 L-10977.9,8801.1 L-10973.7,8803.8 L-10970.0,8805.7 L-10965.1,8807.8 L-10960.5,8809.2 L-10955.3,8810.3 L-10951.3,8810.9 L-10947.8,8811.0 L-10943.7,8811.1 L-10802.5,8808.2 L-10797.9,8807.6 L-10793.5,8805.5 L-10790.3,8802.6 L-10788.1,8798.2 L-10787.3,8794.2 L-10787.5,8790.2 L-10859.0,8108.1 L-10922.0,8025.9 L-10924.8,8028.2 L-10979.6,7951.7 L-10980.6,7935.5 L-10982.3,7932.1 L-10985.2,7929.0 L-10988.9,7923.8 L-10989.2,7916.2 L-10995.7,7913.7 L-11002.0,7913.6 L-11010.5,7917.8 L-11000.9,7935.8 L-11013.0,7941.6 L-11022.1,7933.2 L-11029.9,7928.4 L-11035.2,7926.6 L-11048.2,7926.1 L-11054.8,7912.7 L-11013.3,7895.7 L-11015.3,7892.3 L-11024.1,7880.5 L-11025.5,7881.2 L-11334.4,7476.7 L-11339.1,7410.0 L-11336.6,7409.4 L-11348.5,7287.1 L-11353.1,7275.8 L-11358.1,7263.1 L-11361.9,7253.3 L-11366.5,7240.8 L-11381.5,7198.7 L-11387.6,7201.4 L-11396.5,7167.3 L-11395.0,7167.0 L-11426.1,7082.7 L-11429.5,6935.3 L-11425.9,6935.3 L-11425.4,6922.4 L-11423.6,6909.7 L-11422.9,6905.0 L-11424.2,6901.2 L-11420.0,6881.1 L-11381.7,6813.3 L-11401.8,6801.1 L-11386.9,6776.4 L-11367.5,6787.8 L-11365.8,6785.2 L-11359.7,6788.3 L-11353.1,6790.9 L-11345.5,6793.3 L-11339.8,6794.5 L-11334.4,6794.7 L-11328.0,6793.6 L-11321.7,6791.5 L-11315.5,6789.1 L-11312.6,6786.0 L-11311.5,6781.9 L-11310.0,6777.0 L-11309.7,6775.0 L-11309.8,6772.5 L-11311.2,6768.6 L-11313.8,6764.9 L-11316.8,6762.8 L-11321.2,6758.6 L-11325.0,6754.6 L-11330.6,6751.0 L-11332.9,6745.3 L-11335.6,6739.6 L-11339.9,6732.9 L-11344.8,6727.1 L-11353.8,6720.7 L-11397.4,6698.1 L-11423.2,6685.3 L-11447.3,6672.3 L-11470.2,6659.6 L-11485.0,6650.0 L-11490.7,6648.5 L-11497.0,6650.4 L-11500.5,6654.7 L-11507.6,6672.4 L-11551.7,6652.6 L-11525.3,6610.9 L-11519.5,6608.2 L-11512.4,6606.8 L-11504.1,6608.6 L-11338.4,6705.5 L-11329.4,6708.2 L-11320.0,6710.5 L-11306.7,6710.8 L-11293.2,6708.4 L-11284.6,6704.9 L-11275.2,6697.3 L-11269.7,6692.0 L-11263.8,6683.7 L-11263.9,6682.6 L-11264.3,6681.6 L-11265.2,6680.8 L-11318.8,6647.7 L-11320.1,6647.3 L-11321.5,6647.2 L-11322.9,6647.3 L-11328.0,6649.5 L-11329.9,6649.7 L-11332.0,6649.5 L-11335.1,6649.0 L-11337.5,6648.3 L-11340.9,6646.6 L-11344.2,6644.7 L-11417.9,6599.7 L-11452.6,6575.3 L-11455.9,6574.8 L-11459.2,6574.9 L-11463.1,6575.0 L-11465.7,6574.6 L-11467.9,6573.6 L-11470.5,6571.6 L-11473.4,6569.3 L-11475.4,6566.5 L-11476.6,6563.7 L-11476.8,6561.6 L-11476.5,6558.9 L-11476.0,6556.6 L-11464.2,6536.8 L-11464.2,6535.9 L-11465.1,6535.2 L-11475.9,6527.6 L-11478.0,6524.5 L-11476.8,6522.6 L-11473.3,6523.1 L-11469.5,6524.2 L-11447.3,6537.9 L-11321.5,6618.2 L-11318.9,6619.7 L-11317.1,6621.6 L-11315.9,6623.8 L-11314.6,6628.4 L-11313.7,6632.0 L-11313.2,6635.1 L-11256.4,6669.2 L-11254.4,6670.1 L-11252.0,6670.3 L-11249.2,6669.9 L-11247.2,6669.2 L-11245.5,6668.4 L-11184.4,6569.5 L-11158.8,6531.9 L-11134.9,6505.0 L-11122.8,6511.7 L-11115.0,6499.1 L-11156.5,6474.3 L-11147.7,6459.9 L-11106.2,6484.9 L-11096.9,6469.7 L-11104.4,6461.3 L-11096.8,6452.6 L-11088.6,6462.0 L-11086.6,6460.5 L-11084.3,6458.9 L-11081.1,6457.1 L-11077.8,6455.5 L-11073.7,6454.0 L-11069.8,6452.9 L-11065.6,6452.2 L-11061.4,6451.9 L-11057.4,6452.0 L-11053.5,6452.6 L-11049.8,6453.5 L-11046.7,6454.4 L-11044.0,6455.6 L-11040.2,6457.4 L-11036.7,6459.6 L-11033.7,6461.7 L-11030.7,6464.4 L-11028.0,6467.0 L-11025.0,6470.9 L-11022.9,6474.4 L-11020.8,6478.9 L-11019.4,6483.4 L-11018.2,6489.6 L-11017.8,6495.0 L-11017.9,6498.1 L-11018.3,6501.3 L-11019.4,6506.1 L-11022.2,6512.7 L-11024.0,6517.0 L-11026.5,6522.1 L-11016.1,6527.3 L-10967.5,6469.3 L-11056.0,6415.5 L-11051.5,6405.9 L-11048.3,6397.0 L-11048.1,6393.2 L-11043.0,6382.3 L-11032.5,6372.6 L-11019.5,6362.0 L-11004.0,6352.1 L-10974.9,6343.6 L-10924.7,6338.6 L-10904.9,6322.6 L-10900.8,6321.9 L-10897.5,6321.7 L-10892.8,6323.5 L-10888.5,6324.0 L-10860.6,6340.9 L-10787.2,6253.8 L-11056.2,6082.8 L-11072.9,6109.1 L-11109.2,6086.1 L-11057.7,6005.1 L-11021.5,6027.5 L-11037.6,6055.1 L-10763.9,6227.6 L-10729.4,6183.3 L-10705.0,6154.3 L-10672.8,6105.9 L-10655.0,6081.5 L-10656.8,6067.6 L-10656.3,6067.2 L-10659.5,6056.9 L-10661.6,6050.5 L-10663.6,6043.9 L-10666.0,6038.2 L-10670.6,6030.7 L-10675.2,6023.4 L-10677.2,6019.6 L-10678.7,6015.8 L-10679.8,6012.3 L-10680.2,6009.2 L-10680.7,5999.0 L-10798.9,5890.5 L-10802.8,5894.7 L-10806.1,5891.9 L-10815.7,5901.4 L-10822.0,5893.0 L-10814.4,5884.2 L-10822.0,5874.5 L-10827.2,5875.9 L-10832.6,5876.1 L-10837.5,5875.2 L-10841.8,5873.4 L-10846.8,5869.7 L-10853.0,5863.6 L-10863.9,5851.6 L-10867.2,5846.5 L-10868.4,5840.1 L-10867.6,5832.5 L-10864.7,5825.5 L-10862.2,5820.7 L-10857.4,5815.9 L-10852.1,5812.3 L-10847.0,5810.4 L-10843.2,5809.8 L-10838.2,5810.7 L-10833.1,5812.5 L-10828.3,5816.3 L-10817.2,5826.3 L-10811.5,5831.7 L-10806.3,5837.4 L-10804.6,5840.1 L-10803.4,5843.0 L-10802.7,5845.6 L-10802.2,5849.2 L-10802.8,5852.6 L-10803.8,5855.8 L-10805.2,5858.2 L-10805.6,5859.3 L-10805.3,5860.7 L-10804.5,5862.1 L-10677.6,5981.0 L-10673.2,5984.0 L-10670.1,5985.3 L-10665.7,5984.3 L-10660.5,5983.9 L-10653.9,5986.7 L-10647.3,5990.8 L-10634.4,5998.1 L-10629.0,6000.7 L-10624.1,5995.9 L-10618.7,5990.7 L-10615.1,5986.6 L-10609.1,5978.8 L-10605.7,5974.1 L-10602.1,5968.3 L-10599.8,5963.2 L-10597.3,5957.8 L-10595.0,5952.1 L-10592.9,5946.3 L-10591.7,5941.4 L-10590.3,5935.2 L-10589.7,5931.5 L-10589.3,5928.5 L-10588.6,5923.2 L-10587.9,5918.0 L-10587.6,5914.6 L-10587.4,5910.9 L-10587.4,5906.6 L-10587.6,5903.0 L-10588.3,5898.0 L-10589.1,5892.3 L-10589.9,5887.0 L-10590.4,5882.7 L-10591.0,5879.5 L-10591.7,5876.1 L-10592.5,5872.7 L-10593.7,5868.7 L-10595.1,5864.7 L-10596.2,5862.3 L-10597.4,5859.9 L-10599.1,5857.6 L-10601.4,5854.3 L-10603.9,5851.2 L-10606.6,5848.6 L-10610.0,5845.8 L-10613.5,5843.6 L-10617.0,5841.7 L-10620.2,5840.5 L-10622.4,5839.8 L-10624.9,5839.5 L-10627.9,5839.6 L-10630.7,5840.2 L-10632.9,5841.1 L-10635.0,5842.6 L-10636.5,5844.2 L-10637.7,5845.7 L-10638.6,5848.0 L-10639.1,5850.5 L-10639.0,5853.5 L-10638.8,5857.0 L-10638.8,5859.6 L-10639.0,5862.2 L-10639.4,5864.8 L-10639.9,5867.1 L-10640.8,5869.5 L-10642.2,5872.1 L-10643.9,5874.6 L-10645.6,5876.9 L-10647.3,5878.5 L-10650.7,5881.2 L-10653.5,5883.1 L-10657.9,5884.4 L-10660.5,5885.0 L-10663.5,5885.4 L-10666.2,5885.5 L-10669.8,5885.3 L-10672.4,5884.8 L-10676.0,5884.0 L-10681.0,5882.5 L-10685.2,5880.9 L-10688.3,5879.7 L-10691.6,5877.9 L-10694.5,5875.9 L-10697.7,5873.4 L-10700.2,5871.1 L-10702.3,5869.0 L-10704.5,5866.4 L-10706.3,5864.0 L-10708.0,5861.6 L-10709.5,5858.9 L-10711.1,5855.3 L-10712.5,5852.0 L-10713.9,5848.4 L-10714.8,5845.6 L-10715.5,5843.0 L-10716.0,5840.3 L-10716.4,5836.1 L-10716.7,5832.4 L-10716.5,5828.4 L-10715.6,5823.1 L-10714.1,5817.9 L-10712.2,5812.5 L-10710.9,5810.0 L-10709.6,5808.5 L-10699.3,5795.4 L-10696.9,5792.7 L-10693.8,5791.2 L-10690.5,5790.0 L-10686.8,5789.2 L-10682.7,5788.7 L-10679.1,5788.5 L-10675.5,5788.6 L-10671.9,5789.0 L-10667.8,5790.2 L-10663.5,5792.3 L-10659.8,5794.6 L-10656.5,5797.2 L-10646.1,5806.8 L-10643.6,5807.6 L-10642.2,5807.9 L-10640.5,5807.5 L-10639.4,5807.1 L-10638.0,5805.5 L-10637.4,5803.9 L-10637.3,5801.7 L-10637.2,5799.7 L-10637.6,5798.8 L-10658.6,5778.0 L-10630.0,5747.5 L-10631.6,5743.9 L-10615.1,5727.6 L-10583.3,5759.4 L-10608.9,5792.0 L-10609.1,5793.9 L-10607.8,5794.7 L-10606.2,5794.3 L-10578.1,5759.1 L-10569.9,5749.2 L-10569.6,5746.9 L-10570.3,5744.9 L-10571.8,5743.1 L-10593.8,5722.3 L-10588.3,5715.9 L-10593.9,5711.2 L-10590.7,5703.8 L-10533.7,5646.5 L-10514.1,5643.2 L-10508.0,5642.3 L-10502.2,5641.5 L-10499.5,5640.8 L-10496.3,5639.1 L-10492.5,5637.0 L-10489.6,5634.1 L-10486.8,5630.6 L-10457.7,5588.3 L-10457.1,5587.2 L-10457.4,5585.8 L-10457.8,5584.8 L-10458.5,5583.9 L-10462.0,5581.7 L-10462.9,5581.2 L-10463.7,5581.3 L-10464.6,5581.8 L-10466.5,5583.2 L-10490.9,5606.0 L-10500.4,5612.8 L-10539.4,5572.8 L-10534.9,5558.6 L-10533.0,5554.4 L-10526.9,5543.2 L-10519.8,5530.7 L-10515.5,5525.9 L-10507.8,5517.7 L-10499.6,5508.7 L-10490.6,5499.2 L-10482.9,5492.6 L-10479.2,5489.3 L-10474.3,5485.7 L-10469.8,5483.3 L-10463.4,5480.4 L-10459.4,5479.0 L-10455.4,5477.8 L-10452.3,5477.5 L-10447.9,5477.8 L-10444.2,5478.3 L-10440.0,5479.5 L-10435.9,5482.9 L-10433.4,5486.4 L-10431.9,5490.0 L-10431.3,5495.4 L-10431.5,5502.5 L-10432.4,5510.5 L-10434.1,5518.2 L-10444.4,5541.2 L-10454.2,5561.9 L-10450.8,5567.4 L-10449.0,5568.5 L-10447.1,5568.5 L-10445.4,5568.1 L-10444.1,5567.3 L-10437.4,5557.8 L-10428.8,5553.5 L-10411.7,5507.8 L-10410.5,5505.5 L-10408.8,5503.5 L-10407.1,5502.6 L-10405.5,5502.2 L-10403.2,5502.2 L-10400.8,5502.8 L-10388.3,5506.3 L-10385.9,5506.8 L-10383.1,5506.9 L-10380.5,5506.5 L-10378.4,5505.6 L-10376.6,5504.2 L-10374.8,5501.9 L-10353.8,5473.8 L-10352.8,5471.7 L-10352.3,5469.5 L-10352.3,5467.4 L-10352.7,5465.2 L-10353.5,5463.6 L-10354.7,5462.0 L-10356.1,5460.7 L-10358.1,5459.7 L-10360.0,5459.2 L-10361.9,5459.1 L-10363.5,5459.4 L-10365.4,5460.3 L-10366.8,5461.3 L-10367.9,5462.7 L-10373.4,5471.6 L-10374.6,5473.3 L-10376.0,5474.9 L-10378.1,5476.7 L-10380.0,5477.8 L-10382.3,5478.5 L-10385.1,5479.1 L-10386.7,5479.1 L-10388.9,5478.8 L-10390.8,5478.3 L-10392.4,5477.6 L-10409.6,5462.0 L-10411.6,5459.6 L-10413.1,5457.4 L-10414.5,5454.7 L-10415.4,5452.4 L-10416.0,5450.0 L-10416.5,5447.4 L-10416.8,5444.2 L-10416.9,5441.0 L-10416.6,5438.3 L-10416.2,5436.0 L-10415.7,5434.0 L-10414.9,5432.3 L-10383.6,5382.6 L-10381.6,5379.3 L-10380.4,5377.6 L-10379.0,5376.8 L-10376.7,5375.8 L-10374.3,5375.1 L-10372.0,5374.7 L-10370.7,5374.7 L-10369.4,5374.9 L-10368.3,5375.3 L-10366.7,5376.1 L-10364.8,5377.3 L-10361.6,5379.9 L-10347.3,5393.3 L-10344.9,5396.7 L-10343.5,5400.0 L-10342.2,5403.9 L-10341.8,5406.9 L-10341.6,5410.1 L-10341.6,5412.8 L-10341.9,5415.5 L-10342.4,5418.2 L-10343.0,5420.0 L-10344.6,5423.7 L-10350.3,5434.3 L-10350.9,5436.7 L-10350.9,5439.6 L-10350.7,5441.8 L-10349.9,5443.5 L-10348.4,5445.1 L-10346.0,5446.8 L-10344.0,5447.9 L-10341.7,5448.4 L-10339.0,5448.3 L-10336.8,5447.8 L-10334.3,5446.5 L-10332.1,5444.5 L-10295.1,5393.7 L-10306.4,5383.5 L-10299.6,5376.2 L-10289.5,5385.9 L-10268.7,5358.6 L-10237.2,5316.5 L-10364.0,5195.0 L-10391.5,5223.9 L-10423.8,5193.4 L-10392.6,5159.8 L-10396.7,5155.3 L-10390.2,5149.3 L-10386.2,5153.4 L-10364.5,5129.8 L-10345.0,5147.9 L-10342.7,5162.9 L-10260.7,5239.4 L-10244.7,5245.6 L-10231.9,5241.1 L-10207.6,5250.8 L-10191.5,5244.9 L-10143.6,5186.4 L-10140.9,5180.9 L-10140.1,5173.5 L-10142.5,5166.2 L-10145.7,5161.0 L-10174.1,5134.8 L-10173.7,5127.6 L-10168.1,5113.5 L-10156.9,5092.6 L-10179.0,5078.3 L-10170.6,5075.1 L-10165.3,5071.7 L-10160.0,5065.7 L-10153.8,5049.8 L-10142.4,5020.8 L-10135.0,5014.0 L-10205.2,4946.0 L-10220.6,4955.6 L-10224.2,4956.5 L-10227.6,4956.6 L-10232.0,4956.1 L-10235.6,4955.1 L-10239.1,4953.0 L-10242.0,4950.5 L-10278.3,4915.5 L-10285.1,4908.7 L-10288.1,4905.1 L-10290.6,4900.6 L-10291.8,4896.5 L-10292.3,4892.5 L-10292.2,4888.7 L-10291.5,4885.1 L-10290.6,4882.2 L-10289.4,4880.1 L-10286.8,4876.4 L-10283.7,4872.7 L-10267.4,4855.8 L-10143.4,4970.7 L-10151.9,4980.3 L-10060.0,5067.2 L-9954.1,4912.1 L-10021.3,4849.3 L-10029.9,4857.0 L-10155.4,4738.5 L-10139.0,4723.2 L-10066.9,4790.8 L-10059.7,4780.2 L-10055.7,4774.9 L-10050.6,4769.7 L-10044.7,4763.2 L-10038.7,4759.3 L-10029.2,4751.3 L-10019.7,4742.5 L-10001.5,4725.3 L-9958.0,4676.4 L-9950.2,4668.3 L-9921.5,4653.6 L-9894.3,4632.3 L-9891.7,4630.3 L-9884.6,4624.8 L-9881.5,4622.0 L-9879.0,4618.8 L-9877.3,4615.5 L-9876.2,4612.2 L-9874.9,4609.7 L-9873.4,4607.0 L-9870.8,4602.7 L-9869.0,4600.0 L-9867.2,4597.5 L-9863.9,4594.9 L-9860.7,4592.7 L-9857.2,4590.6 L-9848.9,4586.6 L-9840.9,4582.6 L-9839.7,4582.4 L-9838.5,4582.6 L-9836.1,4583.3 L-9829.6,4586.6 L-9824.7,4589.0 L-9822.4,4590.4 L-9820.3,4592.1 L-9786.9,4623.8 L-9784.6,4625.1 L-9773.7,4628.0 L-9770.2,4629.0 L-9766.3,4629.4 L-9763.3,4629.3 L-9761.0,4628.5 L-9758.7,4626.9 L-9746.8,4610.1 L-9746.8,4607.8 L-9747.2,4605.7 L-9748.5,4603.4 L-9750.5,4601.2 L-9759.6,4592.7 L-9758.9,4591.3 L-9747.2,4566.5 L-9727.2,4526.2 L-9709.0,4512.8 L-9698.5,4502.3 L-9691.3,4494.0 L-9683.7,4486.3 L-9675.3,4479.4 L-9670.2,4474.7 L-9664.8,4469.8 L-9660.8,4465.8 L-9658.8,4462.2 L-9657.2,4459.4 L-9656.2,4456.7 L-9655.8,4453.5 L-9655.6,4450.3 L-9649.5,4444.1 L-9640.5,4435.6 L-9625.5,4423.3 L-9609.8,4411.4 L-9602.8,4401.6 L-9600.2,4391.5 L-9592.4,4386.7 L-9582.6,4386.5 L-9572.7,4380.6 L-9564.0,4364.9 L-9564.2,4348.6 L-9562.6,4323.4 L-9560.1,4319.8 L-9558.6,4317.4 L-9555.8,4312.8 L-9559.3,4302.1 L-9555.3,4297.1 L-9535.5,4272.6 L-9501.5,4232.9 L-9495.0,4223.5 L-9492.4,4218.6 L-9481.6,4203.7 L-9478.6,4194.3 L-9478.5,4179.8 L-9478.9,4165.3 L-9479.0,4150.5 L-9474.6,4134.2 L-9467.2,4118.1 L-9456.6,4102.6 L-9448.9,4091.1 L-9439.8,4079.6 L-9422.2,4060.0 L-9344.2,4021.4 L-9333.9,4018.7 L-9331.3,4024.3 L-9328.2,4029.7 L-9327.2,4030.7 L-9325.5,4030.0 L-9325.2,4026.2 L-9326.4,4023.0 L-9322.1,4021.7 L-9306.1,4017.0 L-9285.3,4010.8 L-9268.5,4005.8 L-9262.5,4004.0 L-9268.5,3985.1 L-9258.1,3982.3 L-9240.8,3979.9 L-9238.7,3979.6 L-9238.6,3978.4 L-9238.6,3974.0 L-9222.9,3973.3 L-9198.3,3972.3 L-9188.8,3976.9 L-9165.1,4062.3 L-9159.8,4067.4 L-9170.1,4078.0 L-9161.0,4087.0 L-9152.0,4096.0 L-9141.2,4085.0 L-8940.7,4275.6 L-8673.1,3990.0 L-8579.6,4079.4 L-8576.0,4078.3 L-8574.6,4079.9 L-8568.3,4075.9 L-8563.1,4074.0 L-8557.6,4071.5 L-8548.2,4066.6 L-8542.4,4063.3 L-8535.5,4059.3 L-8529.1,4055.3 L-8523.9,4051.9 L-8519.1,4048.8 L-8513.5,4044.7 L-8507.1,4040.0 L-8502.2,4035.9 L-8497.0,4031.3 L-8491.3,4025.9 L-8485.9,4020.5 L-8473.3,4007.1 L-8465.7,3998.0 L-8458.3,3988.1 L-8453.2,3980.9 L-8448.4,3973.5 L-8442.7,3963.2 L-8437.7,3953.1 L-8433.7,3944.8 L-8430.3,3936.5 L-8428.2,3931.0 L-8425.9,3924.8 L-8420.5,3918.1 L-8591.5,3755.4 L-8589.4,3753.1 L-8568.9,3731.1 L-8554.0,3715.3 L-8552.5,3713.7 L-8509.1,3754.3 L-8498.6,3748.9 L-8497.4,3750.4 L-8395.4,3697.3 L-8391.2,3695.1 L-8388.3,3692.8 L-8385.6,3690.3 L-8382.5,3687.1 L-8379.5,3682.6 L-8376.9,3678.4 L-8375.2,3675.2 L-8374.0,3671.1 L-8372.9,3666.6 L-8372.4,3661.7 L-8372.4,3656.2 L-8372.8,3651.8 L-8373.6,3647.9 L-8374.9,3643.2 L-8406.8,3551.4 L-8411.1,3536.3 L-8410.0,3531.1 L-8487.0,3512.0 L-8483.4,3498.7 L-8480.4,3486.7 L-8457.6,3396.5 L-8475.3,3343.9 L-8485.7,3309.9 L-8488.7,3301.4 L-8461.1,3276.1 L-8430.0,3259.4 L-8428.1,3262.0 L-8425.1,3266.3 L-8418.1,3275.4 L-8417.3,3274.6 L-8417.1,3271.5 L-8426.8,3258.1 L-8409.5,3245.7 L-8405.7,3243.5 L-8396.7,3255.2 L-8395.2,3256.3 L-8393.7,3256.6 L-8392.9,3256.4 L-8392.9,3255.6 L-8435.7,3197.0 L-8438.8,3193.6 L-8442.4,3188.7 L-8461.0,3166.2 L-8445.1,3116.9 L-8432.9,3104.2 L-8418.8,3097.6 L-8388.8,3079.8 L-8382.6,3073.4 L-8355.7,3049.8 L-8347.2,3058.7 L-8322.3,3085.6 L-8299.2,3066.2 L-8283.7,3081.1 L-8269.8,3094.7 L-8269.1,3095.4 L-8257.3,3085.3 L-8241.7,3101.9 L-8228.3,3119.1 L-8218.4,3130.6 L-8217.1,3132.1 L-8188.3,3106.8 L-8186.8,3105.5 L-8193.6,3097.2 L-8177.9,3084.3 L-8130.3,3139.8 L-8089.8,3113.1 L-8085.8,3109.3 L-8068.2,3101.9 L-8064.2,3098.0 L-8060.4,3093.0 L-8038.7,3073.7 L-8043.6,3067.0 L-8082.4,3075.9 L-8126.8,3025.4 L-8121.7,3021.0 L-8115.0,3028.8 L-8083.6,3001.8 L-8050.3,3038.2 L-8041.3,3041.8 L-8035.9,3044.9 L-8029.1,3052.6 L-8025.4,3049.3 L-8049.5,3021.9 L-8034.7,3009.1 L-8004.8,3045.0 L-8001.0,3042.2 L-8001.4,3041.4 L-7935.8,2994.0 L-7916.3,2979.6 L-7980.0,2900.0 L-7966.4,2890.5 L-7911.0,2955.4 L-7870.1,2962.9 L-7843.1,2947.1 L-7839.3,2944.7 L-7839.5,2941.7 L-7841.4,2938.2 L-7820.3,2924.9 L-7814.1,2931.1 L-7796.3,2920.6 L-7809.2,2904.6 L-7871.5,2821.3 L-7827.5,2775.7 L-7798.6,2733.0 L-7797.9,2699.6 L-7813.3,2655.2 L-7780.9,2628.2 L-7746.9,2615.1 L-7735.7,2612.5 L-7726.7,2611.3 L-7715.7,2612.0 L-7704.3,2614.8 L-7687.8,2628.9 L-7645.0,2681.1 L-7610.8,2724.5 L-7569.9,2751.8 L-7553.8,2754.4 L-7539.4,2756.1 L-7527.2,2756.6 L-7511.6,2755.5 L-7494.7,2752.7 L-7481.0,2748.8 L-7469.4,2743.4 L-7461.7,2738.9 L-7456.0,2732.9 L-7446.4,2721.3 L-7436.0,2702.3 L-7424.7,2677.1 L-7404.6,2687.4 L-7396.6,2690.1 L-7388.0,2691.3 L-7374.3,2690.4 L-7365.2,2687.7 L-7354.8,2683.2 L-7345.1,2677.6 L-7334.8,2667.6 L-7326.0,2659.6 L-7315.0,2652.1 L-7307.4,2647.2 L-7296.2,2643.2 L-7276.9,2637.6 L-7265.5,2634.4 L-7253.3,2629.8 L-7242.7,2624.3 L-7236.4,2620.7 L-7231.4,2615.5 L-7166.0,2582.7 L-7163.5,2581.3 L-7160.6,2579.5 L-7157.6,2577.2 L-7153.2,2574.7 L-7150.3,2573.3 L-7147.2,2570.6 L-7144.8,2568.1 L-7141.6,2566.0 L-7138.2,2563.6 L-7133.7,2559.4 L-7127.3,2558.9 L-7120.7,2558.1 L-7116.4,2556.7 L-7110.8,2554.1 L-7103.9,2551.0 L-7096.6,2546.5 L-7092.5,2542.6 L-7087.9,2537.3 L-7085.0,2532.4 L-7083.4,2527.9 L-7083.3,2524.7 L-7083.2,2522.1 L-7081.6,2511.7 L-7045.2,2490.6 L-6981.4,2453.8 L-6969.0,2446.7 L-6860.8,2384.3 L-6743.6,2317.0 L-6693.7,2288.4 L-6676.4,2278.7 L-6531.5,2194.5 L-6499.3,2176.8 L-6499.8,2175.7 L-6433.5,2138.2 L-6408.0,2123.9 L-6361.0,2097.9 L-6360.5,2098.6 L-6342.3,2088.6 L-6298.1,2063.9 L-6292.8,2059.1 L-6248.0,2026.3 L-6225.7,2007.8 L-6205.2,1990.5 L-6195.8,1985.2 L-6174.6,1964.2 L-6172.8,1965.3 L-6170.0,1965.0 L-6168.6,1965.9 L-6138.8,1931.0 L-6146.3,1924.0 L-6145.3,1922.2 L-6142.1,1917.6 L-6133.5,1906.7 L-6128.3,1898.8 L-6124.2,1892.3 L-6118.5,1883.6 L-6113.0,1874.6 L-6106.8,1864.3 L-6100.4,1853.1 L-6086.5,1824.4 L-6082.2,1815.3 L-6078.7,1808.0 L-6076.3,1802.5 L-6074.2,1798.3 L-6069.8,1787.3 L-6185.6,1571.3 L-6187.8,1567.2 L-6189.5,1564.9 L-6190.7,1563.2 L-6192.3,1561.8 L-6193.8,1560.8 L-6195.8,1559.6 L-6197.9,1558.8 L-6199.7,1558.4 L-6201.5,1558.2 L-6204.2,1558.2 L-6207.3,1558.7 L-6210.0,1559.5 L-6212.8,1560.9 L-6239.7,1576.4 L-6274.8,1596.5 L-6299.3,1610.1 L-6344.0,1634.7 L-6371.4,1649.6 L-6370.4,1651.3 L-6382.1,1658.0 L-6420.4,1677.8 L-6448.8,1694.6 L-6465.5,1703.9 L-6490.9,1718.5 L-6493.8,1720.5 L-6516.1,1680.4 L-6472.3,1656.4 L-6412.5,1623.9 L-6371.8,1601.3 L-6366.8,1598.4 L-6367.5,1597.3 L-6332.3,1578.1 L-6313.6,1567.8 L-6270.7,1546.9 L-6262.5,1542.7 L-6197.8,1506.7 L-6173.5,1493.3 L-6156.4,1484.1 L-6136.2,1472.5 L-6108.2,1523.1 L-6152.2,1547.2 L-6154.5,1550.9 L-6155.4,1554.8 L-6155.8,1557.8 L-6155.9,1560.4 L-6155.7,1562.5 L-6154.9,1565.4 L-6065.2,1731.3 L-6063.5,1733.8 L-6061.5,1735.7 L-6059.5,1737.0 L-6057.4,1737.7 L-6055.1,1738.0 L-6052.9,1737.8 L-6051.2,1737.3 L-6011.4,1707.1 L-5992.7,1691.4 L-5973.4,1675.1 L-5966.1,1668.4 L-5942.2,1648.8 L-5941.1,1648.8 L-5917.9,1629.0 L-5917.8,1627.8 L-5902.6,1615.3 L-5890.6,1605.5 L-5870.0,1588.5 L-5868.1,1590.8 L-5847.9,1574.1 L-5837.7,1565.6 L-5809.4,1542.1 L-5789.7,1525.7 L-5791.6,1522.9 L-5785.1,1517.4 L-5774.4,1508.6 L-5767.8,1502.8 L-5739.9,1490.3 L-5721.0,1483.7 L-5711.3,1479.1 L-5684.1,1478.9 L-5674.6,1478.9 L-5654.5,1479.9 L-5631.0,1480.9 L-5629.3,1479.3 L-5627.0,1482.3 L-5619.6,1482.7 L-5552.3,1488.5 L-5544.4,1490.2 L-5537.5,1491.3 L-5521.9,1492.6 L-5492.8,1494.0 L-5486.4,1494.1 L-5480.4,1493.9 L-5457.1,1493.0 L-5445.1,1492.4 L-5433.2,1491.3 L-5414.9,1489.4 L-5415.0,1490.5 L-5400.5,1488.0 L-5386.8,1485.4 L-5376.3,1483.5 L-5362.5,1473.1 L-5360.9,1475.3 L-5359.2,1477.7 L-5237.6,1638.5 L-4944.1,1739.7 L-4405.5,1344.1 L-4258.7,1238.4 L-4202.0,1117.4 L-4292.2,999.2 L-4288.2,982.3 L-4272.4,978.0 L-4242.0,984.3 L-4220.4,976.2 L-4214.4,967.8 L-4215.7,960.5 L-4231.8,928.9 L-4232.9,917.1 L-4233.8,893.7 L-4236.6,871.1 L-4233.8,867.1 L-4224.7,862.7 L-4213.6,860.2 L-4205.6,851.6 L-4203.8,841.2 L-4210.6,821.1 L-4211.3,807.2 L-4209.1,791.4 L-4198.1,763.7 L-4200.4,750.9 L-4205.9,736.6 L-4206.1,717.2 L-4209.3,691.6 L-4215.1,675.6 L-4218.7,667.2 L-4216.3,663.5 L-4214.0,663.7 L-4213.4,662.2 L-4213.1,660.2 L-4213.2,658.2 L-4216.7,657.8 L-4218.9,654.7 L-4218.5,651.0 L-4221.5,650.2 L-4225.2,650.1 L-4225.7,651.0 L-4233.3,642.0 L-4234.9,639.2 L-4236.2,635.3 L-4237.1,631.5 L-4237.8,627.5 L-4238.1,623.5 L-4238.3,619.9 L-4238.3,616.2 L-4238.0,614.2 L-4236.4,609.2 L-4234.6,605.2 L-4232.3,601.3 L-4228.9,596.4 L-4225.4,591.7 L-4222.1,588.3 L-4218.0,585.2 L-4217.2,586.0 L-4182.1,559.2 L-4177.0,555.3 L-4178.0,553.8 L-4178.0,551.2 L-4169.3,544.4 L-4167.1,544.5 L-4165.0,546.0 L-4161.3,543.2 L-4125.3,515.9 L-4125.7,515.0 L-4121.5,511.9 L-4116.5,508.8 L-4113.0,507.2 L-4108.0,505.3 L-4103.7,504.1 L-4099.4,503.5 L-4094.7,503.1 L-4091.9,503.3 L-4088.0,503.9 L-4084.2,505.2 L-4081.4,506.6 L-4078.7,508.2 L-4076.7,509.7 L-4075.0,511.3 L-4072.5,513.7 L-4071.4,514.1 L-4069.6,514.1 L-4067.8,513.8 L-4062.3,509.9 L-4062.3,508.8 L-4061.7,508.0 L-4061.1,506.9 L-4061.2,505.6 L-4061.5,504.5 L-4062.3,503.5 L-4066.2,499.6 L-4069.3,497.1 L-4072.9,495.1 L-4078.8,492.5 L-4083.9,490.5 L-4075.0,485.9 L-4064.1,478.3 L-4050.6,476.6 L-4037.1,477.5 L-4028.3,474.0 L-4020.6,463.0 L-3991.6,411.1 L-3979.8,389.7 L-3970.5,366.9 L-3968.9,362.1 L-3955.1,319.8 L-3952.9,315.7 L-3950.3,311.6 L-3917.9,271.5 L-3911.0,264.3 L-3905.9,259.9 L-3833.3,197.7 L-3829.3,195.0 L-3816.9,188.2 L-3802.0,179.8 L-3755.6,155.5 L-3654.5,101.2 L-3652.1,103.1 L-3650.2,103.8 L-3648.5,104.3 L-3646.7,104.0 L-3644.8,103.6 L-3639.4,102.5 L-3633.1,101.1 L-3627.4,99.8 L-3621.5,98.7 L-3618.3,98.0 L-3613.9,96.7 L-3608.9,94.6 L-3596.8,88.0 L-3592.4,85.6 L-3590.1,84.2 L-3587.8,83.2 L-3578.4,79.2 L-3568.1,75.2 L-3555.1,69.6 L-3539.8,63.3 L-3539.2,63.0 L-3537.9,62.9 L-3536.2,62.4 L-3533.8,60.6 L-3531.1,59.6 L-3528.1,58.1 L-3522.5,54.9 L-3520.5,52.9 L-3517.2,50.8 L-3517.5,50.2 L-3516.1,48.5 L-3514.3,46.6 L-3511.3,45.1 L-3508.8,44.1 L-3506.1,43.1 L-3503.6,41.8 L-3498.7,38.7 L-3497.3,37.3 L-3495.9,35.1 L-3495.3,33.5 L-3495.1,31.9 L-3495.3,30.4 L-3495.0,28.9 L-3509.0,12.0 L-3464.9,-13.9 L-3444.0,-25.0 L-3439.9,-26.3 L-3433.5,-25.1 L-3426.4,-15.2 L-3423.2,-12.4 L-3420.3,-11.0 L-3417.6,-10.4 L-3415.1,-10.5 L-3377.3,-26.1 L-3367.0,-31.1 L-3357.4,-36.4 L-3341.9,-44.6 L-3338.7,-45.7 L-3123.9,-135.0 L-3056.7,-167.3 L-2756.2,-311.6 L4256.9,-369.6 L4256.9,9666.0 L-10730.8,9666.0 L-10730.8,9239.5 Z" fill="#add7e1" stroke="none"><title>Biscayne Bay</title></path><path d="M-1.0,-1.0 L257.0,-1.0 L257.0,257.0 L-1.0,257.0 L-1.0,-1.0 Z" fill="#add7e1" stroke="none" fill-rule="evenodd"><title>Biscayne Bay</title></path><path d="M-388.2,94.7 L1659.4,62.8" fill="none" stroke="#8fb58e" stroke-width="1.9" opacity="0.58" stroke-linecap="round" stroke-linejoin="round"><title>Rickenbacker Trail</title></path><path d="M-385.7,81.6 L1658.5,49.0" fill="none" stroke="#d1c4aa" stroke-width="7.3" stroke-linecap="round" stroke-linejoin="round"/><path d="M-385.7,81.6 L1658.5,49.0" fill="none" stroke="#efb36f" stroke-width="5.9" stroke-linecap="round" stroke-linejoin="round"><title>Rickenbacker Causeway</title></path><path d="M1658.3,28.0 L-386.3,60.7" fill="none" stroke="#d1c4aa" stroke-width="7.3" stroke-linecap="round" stroke-linejoin="round"/><path d="M1658.3,28.0 L-386.3,60.7" fill="none" stroke="#efb36f" stroke-width="5.9" stroke-linecap="round" stroke-linejoin="round"><title>Rickenbacker Causeway</title></path><path d="M-386.6,45.6 L1658.8,13.3" fill="none" stroke="#f3efe5" stroke-width="5.9" stroke-linecap="round" stroke-linejoin="round" opacity="0.95"/><path d="M-386.6,45.6 L1658.8,13.3" fill="none" stroke="#aeb7ae" stroke-width="3.7" stroke-linecap="round" stroke-linejoin="round" opacity="0.9"><title>William M. Powell Bridge</title></path><path d="M1659.5,65.7 L-385.8,98.2" fill="none" stroke="#f3efe5" stroke-width="5.9" stroke-linecap="round" stroke-linejoin="round" opacity="0.95"/><path d="M1659.5,65.7 L-385.8,98.2" fill="none" stroke="#aeb7ae" stroke-width="3.7" stroke-linecap="round" stroke-linejoin="round" opacity="0.9"><title>William M. Powell Bridge</title></path><g transform="translate(128.0 73.4) rotate(-0.9)"><path d="M -3.6 -3.2 L 4.4 0 L -3.6 3.2 Z" fill="#58656d" opacity="0.46"/></g><g transform="translate(128.0 52.5) rotate(179.1)"><path d="M -3.6 -3.2 L 4.4 0 L -3.6 3.2 Z" fill="#58656d" opacity="0.46"/></g><text x="128.0" y="73.4" transform="rotate(-0.9 128.0 73.4)" text-anchor="middle" dominant-baseline="central" font-family="Arial, sans-serif" font-size="8.3" textLength="111.6" lengthAdjust="spacing" font-weight="650" paint-order="stroke" stroke="#fffaf0" stroke-width="2.05" stroke-linejoin="round" fill="#6f573d">Rickenbacker Causeway</text><text x="128.0" y="52.5" transform="rotate(-0.9 128.0 52.5)" text-anchor="middle" dominant-baseline="central" font-family="Arial, sans-serif" font-size="8.3" textLength="111.6" lengthAdjust="spacing" font-weight="650" paint-order="stroke" stroke="#fffaf0" stroke-width="2.05" stroke-linejoin="round" fill="#6f573d">Rickenbacker Causeway</text></svg>