<svg xmlns="http://www.w3.org/2000/svg" width="256" height="256" viewBox="0 0 256 256"><rect width="256" height="256" fill="#f1efe7"/><path d="M-3338.7,8914.3 L-3123.9,8825.0 L-3056.7,8792.7 L-2756.2,8648.4 L-2699.8,8703.0 L-2694.9,8707.7 L-2589.5,8617.5 L-2564.4,8598.4 L-2522.5,8560.6 L-2286.4,8343.8 L-2095.9,8126.2 L-2088.6,8112.3 L-2081.6,8104.4 L-2070.5,8091.7 L-2059.2,8078.8 L-2054.6,8073.5 L-2129.7,7976.4 L-2030.3,7916.8 L-1976.4,7988.5 L-1900.2,7901.3 L-1964.7,7815.9 L-1884.8,7732.6 L-1823.3,7813.6 L-1752.7,7733.2 L-1722.6,7713.5 L-1575.4,7618.0 L-1502.7,7569.7 L-1415.1,7512.1 L-1373.7,7484.9 L-1268.8,7417.2 L-1295.8,7381.7 L-1344.1,7317.0 L-1219.2,7237.6 L-1173.7,7214.1 L-1170.2,7211.6 L-1146.2,7193.1 L-1060.6,7147.3 L-1054.7,7138.1 L-1030.7,7121.6 L-1017.7,7102.6 L-1014.0,7099.8 L-993.1,7091.7 L-945.9,7074.8 L-913.6,7060.6 L-799.5,7007.0 L-798.1,7010.7 L-702.4,6969.8 L-663.3,7019.9 L-576.2,6961.8 L-563.8,6953.3 L-562.6,6952.3 L-561.4,6950.7 L-559.5,6947.4 L-558.5,6944.3 L-557.9,6940.6 L-558.0,6937.6 L-558.4,6934.7 L-558.8,6931.4 L-558.9,6928.9 L-558.7,6926.8 L-558.3,6924.6 L-556.7,6920.6 L-555.6,6918.4 L-553.1,6914.6 L-550.5,6911.8 L-537.8,6906.7 L-527.2,6902.7 L-513.7,6898.3 L-507.4,6896.6 L-496.2,6892.9 L-488.3,6890.1 L-477.4,6885.6 L-462.6,6879.1 L-446.6,6871.6 L-438.0,6867.4 L-427.2,6861.9 L-417.1,6856.3 L-407.0,6850.3 L-396.7,6843.6 L-393.5,6841.4 L-372.8,6825.6 L-355.4,6812.2 L-338.4,6797.8 L-322.5,6782.8 L-311.0,6769.9 L-299.6,6756.0 L-285.6,6738.0 L-272.8,6720.0 L-258.1,6696.9 L-248.5,6679.0 L-242.5,6667.6 L-233.6,6648.3 L-226.1,6630.4 L-219.4,6611.1 L-214.0,6594.2 L-208.1,6566.8 L-203.8,6542.3 L-201.5,6521.3 L-199.5,6496.5 L-199.3,6470.0 L-200.9,6445.5 L-205.1,6413.5 L-209.5,6391.7 L-214.5,6371.1 L-221.9,6347.7 L-228.2,6329.8 L-235.4,6310.3 L-242.2,6294.1 L-246.8,6283.6 L-248.7,6275.9 L-249.0,6270.0 L-248.4,6264.7 L-246.3,6260.1 L-243.1,6256.2 L-238.9,6254.0 L-234.4,6253.4 L-222.3,6256.3 L-188.6,6264.4 L-177.4,6009.7 L-133.7,5555.1 L-181.2,5543.9 L-186.4,5529.6 L-186.2,5509.1 L-179.6,5462.6 L-170.6,5452.1 L-162.6,5421.9 L-112.1,5433.6 L-84.3,5143.1 L-76.6,5062.7 L-92.3,5058.8 L-82.8,5020.4 L-115.1,5012.7 L-111.0,4989.2 L-105.3,4973.7 L-98.2,4955.6 L-86.2,4930.3 L-73.3,4933.2 L-55.9,4750.5 L-51.8,4639.7 L-51.0,4619.3 L-41.6,4548.8 L-22.9,4373.1 L101.9,4047.7 L130.4,3959.0 L477.1,3826.0 L511.0,3812.4 L516.9,3809.2 L521.5,3805.0 L526.6,3799.1 L530.5,3792.2 L533.1,3785.4 L533.7,3775.5 L533.2,3763.2 L528.6,3607.7 L526.9,3577.6 L526.4,3556.9 L525.7,3516.7 L524.9,3504.1 L523.4,3493.5 L521.3,3484.1 L518.2,3474.5 L513.3,3463.2 L506.1,3451.1 L499.1,3441.5 L493.7,3432.4 L488.2,3420.3 L483.6,3408.7 L481.8,3399.2 L480.4,3388.7 L479.7,3378.2 L480.0,3368.0 L481.2,3356.1 L484.0,3344.4 L487.7,3334.0 L491.6,3324.5 L496.6,3315.3 L502.7,3304.1 L506.7,3294.0 L510.2,3281.1 L516.6,3271.3 L514.4,3182.1 L511.1,3176.9 L510.1,3116.3 L508.4,3044.8 L509.6,3034.9 L512.8,3024.8 L520.8,3009.0 L574.3,2893.9 L575.4,2892.0 L584.8,2871.5 L593.7,2852.1 L603.7,2832.1 L613.5,2811.5 L618.3,2801.5 L670.9,2693.6 L727.1,2574.4 L848.7,2327.6 L775.6,2245.7 L716.0,2372.7 L664.5,2482.6 L656.7,2498.2 L640.8,2530.7 L609.0,2528.0 L600.3,2527.5 L597.2,2530.3 L601.4,2534.1 L585.1,2548.6 L572.2,2560.5 L569.8,2611.4 L565.0,2621.6 L549.4,2621.0 L546.8,2620.1 L342.4,2535.7 L338.0,2533.4 L333.3,2530.4 L325.9,2524.8 L320.2,2519.4 L315.4,2514.2 L310.7,2507.8 L307.1,2502.2 L304.3,2496.4 L302.1,2490.3 L300.6,2486.1 L299.5,2481.0 L298.7,2475.0 L297.9,2466.8 L297.9,2455.1 L296.5,2415.4 L302.1,2415.1 L301.3,2394.1 L300.4,2359.5 L305.6,2359.4 L305.2,2335.8 L299.3,2335.9 L296.6,2236.5 L302.2,2236.2 L301.3,2212.9 L295.9,2213.1 L293.6,2139.6 L320.6,2110.5 L355.1,2109.3 L380.8,2108.4 L414.7,2107.3 L447.3,2106.3 L476.5,2105.3 L489.2,2104.7 L488.6,2093.4 L488.4,2081.6 L486.5,2043.3 L485.8,1970.2 L484.8,1968.9 L484.6,1961.7 L486.7,1961.6 L481.6,1785.5 L477.2,1619.8 L476.5,1614.6 L476.1,1605.0 L403.9,1607.6 L355.9,1603.5 L-3.4,1616.0 L-3.5,1612.8 L-4.2,1597.5 L-174.6,1603.5 L-174.9,1575.2 L-197.4,1570.1 L-201.4,1449.0 L461.4,1426.0 L472.4,1410.9 L472.0,1367.9 L471.2,1330.7 L470.6,1307.4 L469.7,1284.7 L417.0,1259.9 L414.9,1204.8 L468.9,1178.0 L464.0,1050.5 L462.6,1044.2 L408.9,1019.1 L407.2,950.9 L458.2,924.6 L435.5,647.7 L441.5,524.5 L444.5,323.6 L444.3,105.1 L449.1,74.5 L449.4,59.7 L444.6,41.9 L449.6,41.9 L449.6,25.8 L452.6,-385.2 L452.1,-403.5 L446.4,-403.5 L446.6,-479.1 L443.3,-483.8 L438.1,-561.8 L448.4,-633.1 L447.1,-719.4 L443.6,-740.1 L448.9,-804.0 L445.3,-881.3 L436.3,-964.0 L419.2,-1098.0 L427.3,-1134.9 L423.7,-1170.8 L393.1,-1196.9 L348.2,-1196.5 L279.8,-1187.5 L235.3,-1187.5 L194.9,-1202.3 L141.8,-1238.7 L141.8,-1304.0 L140.4,-1384.3 L145.6,-1451.2 L163.2,-1503.4 L457.9,-1508.9 L464.7,-1926.8 L464.7,-2528.4 L461.6,-2746.7 L16373.8,-9318.4 L16373.8,26899.8 L-3338.7,26899.8 L-3338.7,8914.3 Z" fill="#add7e1" stroke="none"><title>Biscayne Bay</title></path><path d="M21.0,315.0 L32.4,319.2 L221.1,314.2 L217.0,174.5 L212.4,154.0 L201.9,138.0 L183.9,124.0 L131.5,122.0 L21.0,315.0 Z" fill="#e8ecec" stroke="#d7d1c5" stroke-width="0.3"></path><path d="M318.1,44.7 L298.0,45.2 L296.7,25.5 L263.9,23.6 L263.4,11.3 L258.6,11.6 L257.5,-11.6 L313.5,-13.8 L313.2,-29.2 L333.5,-53.8 L331.9,-61.0 L300.4,-76.7 L293.8,-90.4 L282.3,-95.9 L255.6,-95.9 L255.1,-114.1 L346.4,-116.2 L346.6,-16.4 L334.3,-15.4 L341.0,22.0 L340.5,33.5 L318.1,44.7 Z" fill="#e8ecec" stroke="#d7d1c5" stroke-width="0.3"></path><path d="M172.0,-8.4 L225.5,-11.0 L228.9,54.2 L182.5,56.3 L177.0,52.2 L172.3,48.5 L171.2,42.3 L172.0,-8.4 Z" fill="#ece7dc" stroke="#d7d1c5" stroke-width="0.3"></path><path d="M-203.9,-476.6 L-217.4,79.9 L101.7,74.1 L122.2,18.7 L120.3,-138.1 L443.1,-138.9 L444.7,-378.3 L113.3,-367.8 L111.9,-409.8 L99.2,-437.6 L37.3,-481.2 L-203.9,-476.6 Z" fill="#eadde0" stroke="#d7d1c5" stroke-width="0.3"></path><path d="M254.1,-12.6 L254.6,16.0 L259.9,15.9 L260.1,24.3 L255.6,24.4 L255.7,28.1 L265.6,27.9 L265.5,25.4 L275.6,25.2 L275.6,27.4 L288.2,27.2 L288.3,31.8 L294.8,31.7 L295.0,41.3 L289.6,41.4 L289.6,43.3 L260.1,43.8 L260.1,41.4 L254.9,41.5 L255.0,45.3 L231.4,45.7 L230.3,-12.1 L254.1,-12.6 Z" fill="#d6d2c9" stroke="#bab6ad" stroke-width="0.4"></path><path d="M101.2,-378.8 L27.8,-376.7 L29.3,-327.5 L40.7,66.5 L52.9,66.2 L92.3,65.0 L92.0,53.7 L105.2,53.3 L104.2,16.1 L112.7,15.9 L106.5,-199.3 L106.3,-204.0 L101.7,-362.9 L101.2,-378.8 Z" fill="#d6d2c9" stroke="#bab6ad" stroke-width="0.4"></path><path d="M-172.0,-462.5 L-11.6,-467.5 L-11.5,-460.5 L8.4,-443.0 L12.0,-327.5 L29.3,-327.5 L40.7,66.5 L30.4,66.9 L-2.0,68.0 L-2.6,61.0 L-7.1,-53.0 L-78.0,-52.5 L-77.6,-67.5 L-107.0,-67.0 L-106.0,-51.0 L-194.0,-48.5 L-192.6,-129.5 L-183.6,-129.5 L-183.6,-148.5 L-167.6,-165.5 L-167.8,-180.0 L-168.1,-198.0 L-174.4,-198.0 L-187.5,-198.0 L-185.3,-296.2 L-184.6,-328.5 L-177.5,-338.0 L-179.1,-454.5 L-172.0,-462.5 Z" fill="#d6d2c9" stroke="#bab6ad" stroke-width="0.4"><title>Hilton Miami Downtown</title></path><path d="M169.4,113.1 L142.9,113.1 L142.9,101.9 L169.4,101.9 L169.4,113.1 Z" fill="#d6d2c9" stroke="#bab6ad" stroke-width="0.4"></path><path d="M249.4,322.0 L244.4,181.6 L243.3,150.2 L241.7,106.4 L240.8,79.1" fill="none" stroke="#cec8bb" stroke-width="4.5" stroke-linecap="round" stroke-linejoin="round"/><path d="M249.4,322.0 L244.4,181.6 L243.3,150.2 L241.7,106.4 L240.8,79.1" fill="none" stroke="#ffffff" stroke-width="3.4" stroke-linecap="round" stroke-linejoin="round"><title>Herald Plaza</title></path><path d="M30.4,66.9 L31.4,109.5 L-13.1,110.9" fill="none" stroke="#cf828d" stroke-width="1.5" stroke-dasharray="1.6 3.0" opacity="0.62" stroke-linecap="round" stroke-linejoin="round"></path><path d="M172.3,53.7 L182.7,58.0 L199.3,59.0 L224.4,57.6 L234.4,53.7 L292.2,51.1 L325.2,49.2" fill="none" stroke="#cf828d" stroke-width="1.5" stroke-dasharray="1.6 3.0" opacity="0.62" stroke-linecap="round" stroke-linejoin="round"></path><path d="M100.7,67.6 L109.3,46.9 L113.7,34.7 L116.8,15.4 L116.8,-9.0 L114.4,-90.4" fill="none" stroke="#cf828d" stroke-width="1.5" stroke-dasharray="1.6 3.0" opacity="0.62" stroke-linecap="round" stroke-linejoin="round"></path><path d="M106.7,67.4 L112.7,67.3 L144.4,67.4 L155.2,67.2" fill="none" stroke="#cf828d" stroke-width="1.5" stroke-dasharray="1.6 3.0" opacity="0.62" stroke-linecap="round" stroke-linejoin="round"></path><path d="M100.7,67.6 L52.2,69.5 L-53.0,73.6" fill="none" stroke="#cf828d" stroke-width="1.5" stroke-dasharray="1.6 3.0" opacity="0.62" stroke-linecap="round" stroke-linejoin="round"></path><path d="M155.2,67.2 L152.9,82.9 L151.1,92.7" fill="none" stroke="#cf828d" stroke-width="1.5" stroke-dasharray="1.6 3.0" opacity="0.62" stroke-linecap="round" stroke-linejoin="round"></path><path d="M73.6,97.8 L71.2,101.3 L74.1,110.0 L70.0,121.3 L62.8,131.7 L52.1,149.3 L41.3,166.1 L34.5,177.1 L30.6,184.0 L15.9,209.0 L-10.9,257.1 L-29.5,286.4 L-32.3,294.0 L-37.3,307.6" fill="none" stroke="#cf828d" stroke-width="1.5" stroke-dasharray="1.6 3.0" opacity="0.62" stroke-linecap="round" stroke-linejoin="round"></path><path d="M15.4,306.9 L23.1,290.8 L36.5,269.3 L51.5,244.9 L66.8,219.1 L77.1,201.9 L82.5,192.7 L86.4,186.2 L94.1,174.9 L102.5,162.5 L129.3,117.0 L135.6,104.5 L137.5,101.0 L139.2,99.4 L141.9,97.8 L145.3,97.0 L150.4,96.4 L151.1,92.7" fill="none" stroke="#cf828d" stroke-width="1.5" stroke-dasharray="1.6 3.0" opacity="0.62" stroke-linecap="round" stroke-linejoin="round"></path><path d="M155.2,67.2 L167.3,66.9 L167.7,66.2" fill="none" stroke="#cf828d" stroke-width="1.5" stroke-dasharray="1.6 3.0" opacity="0.62" stroke-linecap="round" stroke-linejoin="round"></path><path d="M100.7,67.6 L106.7,67.4" fill="none" stroke="#cf828d" stroke-width="1.5" stroke-dasharray="1.6 3.0" opacity="0.62" stroke-linecap="round" stroke-linejoin="round"></path><path d="M150.4,96.4 L192.8,95.7 L207.7,95.5 L214.6,96.2 L219.3,97.2 L221.9,99.4 L223.6,102.9 L224.1,106.6 L227.9,106.5" fill="none" stroke="#cf828d" stroke-width="1.5" stroke-dasharray="1.6 3.0" opacity="0.62" stroke-linecap="round" stroke-linejoin="round"></path><path d="M227.9,106.5 L241.7,106.4 L256.0,106.3" fill="none" stroke="#cf828d" stroke-width="1.5" stroke-dasharray="1.6 3.0" opacity="0.62" stroke-linecap="round" stroke-linejoin="round"></path><path d="M224.1,106.6 L224.5,111.0 L224.9,118.2 L226.7,142.5 L226.8,150.2 L227.3,182.0 L229.3,322.9" fill="none" stroke="#cf828d" stroke-width="1.5" stroke-dasharray="1.6 3.0" opacity="0.62" stroke-linecap="round" stroke-linejoin="round"></path><path d="M100.7,67.6 L95.0,74.0" fill="none" stroke="#cf828d" stroke-width="1.5" stroke-dasharray="1.6 3.0" opacity="0.62" stroke-linecap="round" stroke-linejoin="round"></path><path d="M95.0,74.0 L85.0,85.1 L73.6,97.8" fill="none" stroke="#cf828d" stroke-width="1.5" stroke-dasharray="1.6 3.0" opacity="0.62" stroke-linecap="round" stroke-linejoin="round"></path><path d="M79.3,110.7 L101.6,113.2 L126.6,116.6" fill="none" stroke="#cf828d" stroke-width="1.5" stroke-dasharray="1.6 3.0" opacity="0.62" stroke-linecap="round" stroke-linejoin="round"></path><path d="M126.6,116.6 L129.3,117.0" fill="none" stroke="#cf828d" stroke-width="1.5" stroke-dasharray="1.6 3.0" opacity="0.62" stroke-linecap="round" stroke-linejoin="round"></path><path d="M74.1,110.0 L79.3,110.7" fill="none" stroke="#cf828d" stroke-width="1.5" stroke-dasharray="1.6 3.0" opacity="0.62" stroke-linecap="round" stroke-linejoin="round"></path><path d="M171.2,56.9 L169.3,61.9 L167.7,66.2" fill="none" stroke="#cf828d" stroke-width="1.5" stroke-dasharray="1.6 3.0" opacity="0.62" stroke-linecap="round" stroke-linejoin="round"></path><path d="M-100.6,100.1 L60.0,97.0 L65.0,97.4 L68.2,98.7 L71.2,101.3" fill="none" stroke="#cf828d" stroke-width="1.5" stroke-dasharray="1.6 3.0" opacity="0.62" stroke-linecap="round" stroke-linejoin="round"></path><path d="M165.8,-86.7 L166.1,-1.6 L166.2,42.8 L169.0,49.5 L172.3,53.7 L171.2,56.9" fill="none" stroke="#cf828d" stroke-width="1.5" stroke-dasharray="1.6 3.0" opacity="0.62" stroke-linecap="round" stroke-linejoin="round"></path><path d="M-55.3,133.4 L-12.8,132.8 L30.0,132.1" fill="none" stroke="#cec8bb" stroke-width="3.5" stroke-linecap="round" stroke-linejoin="round"/><path d="M-55.3,133.4 L-12.8,132.8 L30.0,132.1" fill="none" stroke="#ffffff" stroke-width="2.5" stroke-linecap="round" stroke-linejoin="round"></path><path d="M154.6,-1.5 L166.1,-1.6 L172.0,-1.5 L177.9,-1.4 L185.9,2.0 L187.4,36.9" fill="none" stroke="#cec8bb" stroke-width="3.5" stroke-linecap="round" stroke-linejoin="round"/><path d="M154.6,-1.5 L166.1,-1.6 L172.0,-1.5 L177.9,-1.4 L185.9,2.0 L187.4,36.9" fill="none" stroke="#ffffff" stroke-width="2.5" stroke-linecap="round" stroke-linejoin="round"></path><path d="M243.3,150.2 L226.8,150.2 L146.6,150.0 L137.3,152.5 L130.2,161.3 L125.2,174.9 L127.3,180.0 L133.6,182.5 L141.3,184.1 L227.3,182.0 L244.4,181.6" fill="none" stroke="#cec8bb" stroke-width="3.5" stroke-linecap="round" stroke-linejoin="round"/><path d="M243.3,150.2 L226.8,150.2 L146.6,150.0 L137.3,152.5 L130.2,161.3 L125.2,174.9 L127.3,180.0 L133.6,182.5 L141.3,184.1 L227.3,182.0 L244.4,181.6" fill="none" stroke="#ffffff" stroke-width="2.5" stroke-linecap="round" stroke-linejoin="round"></path><path d="M69.4,189.3 L75.6,200.9 L77.1,201.9 L93.5,212.5 L102.3,211.8 L100.0,204.8 L82.5,192.7 L69.4,189.3" fill="none" stroke="#cec8bb" stroke-width="3.5" stroke-linecap="round" stroke-linejoin="round"/><path d="M69.4,189.3 L75.6,200.9 L77.1,201.9 L93.5,212.5 L102.3,211.8 L100.0,204.8 L82.5,192.7 L69.4,189.3" fill="none" stroke="#ffffff" stroke-width="2.5" stroke-linecap="round" stroke-linejoin="round"></path><path d="M102.3,211.8 L53.8,285.1 L56.3,292.0 L61.7,296.6 L122.4,296.0 L160.9,295.7 L200.3,295.3 L198.6,211.2 L159.3,214.1 L160.9,295.7" fill="none" stroke="#cec8bb" stroke-width="3.5" stroke-linecap="round" stroke-linejoin="round"/><path d="M102.3,211.8 L53.8,285.1 L56.3,292.0 L61.7,296.6 L122.4,296.0 L160.9,295.7 L200.3,295.3 L198.6,211.2 L159.3,214.1 L160.9,295.7" fill="none" stroke="#ffffff" stroke-width="2.5" stroke-linecap="round" stroke-linejoin="round"></path><path d="M102.3,211.8 L125.6,216.8 L122.4,296.0" fill="none" stroke="#cec8bb" stroke-width="3.5" stroke-linecap="round" stroke-linejoin="round"/><path d="M102.3,211.8 L125.6,216.8 L122.4,296.0" fill="none" stroke="#ffffff" stroke-width="2.5" stroke-linecap="round" stroke-linejoin="round"></path><path d="M30.0,132.1 L62.8,131.7 L90.2,135.5" fill="none" stroke="#cec8bb" stroke-width="3.5" stroke-linecap="round" stroke-linejoin="round"/><path d="M30.0,132.1 L62.8,131.7 L90.2,135.5" fill="none" stroke="#ffffff" stroke-width="2.5" stroke-linecap="round" stroke-linejoin="round"></path><path d="M0.0,167.8 L-41.0,169.5 L-82.0,171.1" fill="none" stroke="#cec8bb" stroke-width="3.5" stroke-linecap="round" stroke-linejoin="round"/><path d="M0.0,167.8 L-41.0,169.5 L-82.0,171.1" fill="none" stroke="#ffffff" stroke-width="2.5" stroke-linecap="round" stroke-linejoin="round"></path><path d="M67.8,169.8 L41.3,166.1 L0.0,167.8" fill="none" stroke="#cec8bb" stroke-width="3.5" stroke-linecap="round" stroke-linejoin="round"/><path d="M67.8,169.8 L41.3,166.1 L0.0,167.8" fill="none" stroke="#ffffff" stroke-width="2.5" stroke-linecap="round" stroke-linejoin="round"></path><path d="M50.7,86.1 L52.2,69.5 L52.9,66.2" fill="none" stroke="#cec8bb" stroke-width="3.5" stroke-linecap="round" stroke-linejoin="round"/><path d="M50.7,86.1 L52.2,69.5 L52.9,66.2" fill="none" stroke="#ffffff" stroke-width="2.5" stroke-linecap="round" stroke-linejoin="round"></path><path d="M-212.9,189.3 L30.6,184.0 L51.8,189.6" fill="none" stroke="#cec8bb" stroke-width="4.8" stroke-linecap="round" stroke-linejoin="round"/><path d="M-212.9,189.3 L30.6,184.0 L51.8,189.6" fill="none" stroke="#ffffff" stroke-width="3.7" stroke-linecap="round" stroke-linejoin="round"><title>Northeast 14th Terrace</title></path><path d="M51.8,189.6 L69.4,189.3" fill="none" stroke="#cec8bb" stroke-width="4.8" stroke-linecap="round" stroke-linejoin="round"/><path d="M51.8,189.6 L69.4,189.3" fill="none" stroke="#ffffff" stroke-width="3.7" stroke-linecap="round" stroke-linejoin="round"><title>Northeast 14th Terrace</title></path><path d="M-3.5,320.9 L7.4,293.3 L54.9,210.8 L51.8,189.6" fill="none" stroke="#d1c4aa" stroke-width="5.4" stroke-linecap="round" stroke-linejoin="round"/><path d="M-3.5,320.9 L7.4,293.3 L54.9,210.8 L51.8,189.6" fill="none" stroke="#f4d99b" stroke-width="4.0" stroke-linecap="round" stroke-linejoin="round"><title>North Bayshore Drive</title></path><path d="M120.0,82.1 L144.4,67.4 L146.4,64.0 L151.6,49.8 L153.4,43.1 L155.4,33.5 L154.6,-1.5 L152.1,-106.1" fill="none" stroke="#d1c4aa" stroke-width="5.4" stroke-linecap="round" stroke-linejoin="round"/><path d="M120.0,82.1 L144.4,67.4 L146.4,64.0 L151.6,49.8 L153.4,43.1 L155.4,33.5 L154.6,-1.5 L152.1,-106.1" fill="none" stroke="#f4d99b" stroke-width="4.0" stroke-linecap="round" stroke-linejoin="round"><title>North Bayshore Drive</title></path><path d="M128.6,-107.1 L131.0,3.0 L129.8,23.4 L121.3,51.8 L112.7,67.3 L120.0,82.1" fill="none" stroke="#d1c4aa" stroke-width="5.4" stroke-linecap="round" stroke-linejoin="round"/><path d="M128.6,-107.1 L131.0,3.0 L129.8,23.4 L121.3,51.8 L112.7,67.3 L120.0,82.1" fill="none" stroke="#f4d99b" stroke-width="4.0" stroke-linecap="round" stroke-linejoin="round"><title>North Bayshore Drive</title></path><path d="M90.2,135.5 L67.8,169.8" fill="none" stroke="#d1c4aa" stroke-width="5.4" stroke-linecap="round" stroke-linejoin="round"/><path d="M90.2,135.5 L67.8,169.8" fill="none" stroke="#f4d99b" stroke-width="4.0" stroke-linecap="round" stroke-linejoin="round"><title>North Bayshore Drive</title></path><path d="M120.0,82.1 L101.6,113.2 L90.2,135.5" fill="none" stroke="#d1c4aa" stroke-width="5.4" stroke-linecap="round" stroke-linejoin="round"/><path d="M120.0,82.1 L101.6,113.2 L90.2,135.5" fill="none" stroke="#f4d99b" stroke-width="4.0" stroke-linecap="round" stroke-linejoin="round"><title>North Bayshore Drive</title></path><path d="M51.8,189.6 L37.8,195.0 L-0.7,262.3 L-14.9,294.5 L-27.5,324.4" fill="none" stroke="#d1c4aa" stroke-width="5.4" stroke-linecap="round" stroke-linejoin="round"/><path d="M51.8,189.6 L37.8,195.0 L-0.7,262.3 L-14.9,294.5 L-27.5,324.4" fill="none" stroke="#f4d99b" stroke-width="4.0" stroke-linecap="round" stroke-linejoin="round"><title>North Bayshore Drive</title></path><path d="M67.8,169.8 L59.4,180.8 L51.8,189.6" fill="none" stroke="#d1c4aa" stroke-width="5.4" stroke-linecap="round" stroke-linejoin="round"/><path d="M67.8,169.8 L59.4,180.8 L51.8,189.6" fill="none" stroke="#f4d99b" stroke-width="4.0" stroke-linecap="round" stroke-linejoin="round"><title>North Bayshore Drive</title></path><path d="M120.0,82.1 L85.0,85.1 L50.7,86.1 L13.5,87.2" fill="none" stroke="#d1c4aa" stroke-width="6.4" stroke-linecap="round" stroke-linejoin="round"/><path d="M120.0,82.1 L85.0,85.1 L50.7,86.1 L13.5,87.2" fill="none" stroke="#f1c77d" stroke-width="5.0" stroke-linecap="round" stroke-linejoin="round"><title>Northeast 15th Street</title></path><path d="M240.8,79.1 L152.9,82.9 L120.0,82.1" fill="none" stroke="#d1c4aa" stroke-width="6.4" stroke-linecap="round" stroke-linejoin="round"/><path d="M240.8,79.1 L152.9,82.9 L120.0,82.1" fill="none" stroke="#f1c77d" stroke-width="5.0" stroke-linecap="round" stroke-linejoin="round"><title>Northeast 15th Street</title></path><path d="M240.8,79.1 L177.7,66.0 L169.3,61.9 L163.1,55.4 L159.6,49.6 L155.4,33.5" fill="none" stroke="#d1c4aa" stroke-width="5.4" stroke-linecap="round" stroke-linejoin="round"/><path d="M240.8,79.1 L177.7,66.0 L169.3,61.9 L163.1,55.4 L159.6,49.6 L155.4,33.5" fill="none" stroke="#f1c77d" stroke-width="4.0" stroke-linecap="round" stroke-linejoin="round"></path><path d="M13.5,87.2 L-37.4,88.7" fill="none" stroke="#d1c4aa" stroke-width="6.4" stroke-linecap="round" stroke-linejoin="round"/><path d="M13.5,87.2 L-37.4,88.7" fill="none" stroke="#f1c77d" stroke-width="5.0" stroke-linecap="round" stroke-linejoin="round"><title>Northeast 15th Street</title></path><path d="M291.0,76.7 L266.0,77.9 L240.8,79.1" fill="none" stroke="#d1c4aa" stroke-width="6.4" stroke-linecap="round" stroke-linejoin="round"/><path d="M291.0,76.7 L266.0,77.9 L240.8,79.1" fill="none" stroke="#f1c77d" stroke-width="5.0" stroke-linecap="round" stroke-linejoin="round"><title>Northeast 15th Street</title></path><path d="M235.9,416.2 L232.1,295.9 L228.3,175.6 L227.8,167.9 L226.0,152.2 L221.4,135.3 L212.5,121.0 L199.6,109.3 L184.1,102.3 L167.1,98.9 L150.5,98.4 L-55.8,103.5" fill="none" stroke="#fbf8ef" stroke-width="8.5" stroke-linecap="round" stroke-linejoin="round"/><path d="M235.9,416.2 L232.1,295.9 L228.3,175.6 L227.8,167.9 L226.0,152.2 L221.4,135.3 L212.5,121.0 L199.6,109.3 L184.1,102.3 L167.1,98.9 L150.5,98.4 L-55.8,103.5" fill="none" stroke="#36454d" stroke-width="6.3" stroke-linecap="round" stroke-linejoin="round"><title>Metromover</title></path><path d="M226.0,273.3 L236.7,273.0" fill="none" stroke="#3f494e" stroke-width="1.1" stroke-linecap="round"/><path d="M225.7,264.2 L236.5,263.9" fill="none" stroke="#3f494e" stroke-width="1.1" stroke-linecap="round"/><path d="M225.4,255.1 L236.2,254.8" fill="none" stroke="#3f494e" stroke-width="1.1" stroke-linecap="round"/><path d="M225.2,246.0 L235.9,245.7" fill="none" stroke="#3f494e" stroke-width="1.1" stroke-linecap="round"/><path d="M224.9,237.0 L235.6,236.6" fill="none" stroke="#3f494e" stroke-width="1.1" stroke-linecap="round"/><path d="M224.6,227.9 L235.3,227.5" fill="none" stroke="#3f494e" stroke-width="1.1" stroke-linecap="round"/><path d="M224.3,218.8 L235.0,218.4" fill="none" stroke="#3f494e" stroke-width="1.1" stroke-linecap="round"/><path d="M224.0,209.7 L234.7,209.3" fill="none" stroke="#3f494e" stroke-width="1.1" stroke-linecap="round"/><path d="M223.7,200.6 L234.5,200.2" fill="none" stroke="#3f494e" stroke-width="1.1" stroke-linecap="round"/><path d="M223.4,191.5 L234.2,191.1" fill="none" stroke="#3f494e" stroke-width="1.1" stroke-linecap="round"/><path d="M223.2,182.4 L233.9,182.0" fill="none" stroke="#3f494e" stroke-width="1.1" stroke-linecap="round"/><path d="M222.6,171.4 L233.4,170.7" fill="none" stroke="#3f494e" stroke-width="1.1" stroke-linecap="round"/><path d="M221.9,163.9 L232.6,162.7" fill="none" stroke="#3f494e" stroke-width="1.1" stroke-linecap="round"/><path d="M219.6,149.2 L230.0,146.4" fill="none" stroke="#3f494e" stroke-width="1.1" stroke-linecap="round"/><path d="M214.4,134.2 L223.5,128.6" fill="none" stroke="#3f494e" stroke-width="1.1" stroke-linecap="round"/><path d="M205.6,122.0 L212.8,114.0" fill="none" stroke="#3f494e" stroke-width="1.1" stroke-linecap="round"/><path d="M193.2,112.3 L197.6,102.5" fill="none" stroke="#3f494e" stroke-width="1.1" stroke-linecap="round"/><path d="M178.6,106.7 L180.7,96.2" fill="none" stroke="#3f494e" stroke-width="1.1" stroke-linecap="round"/><path d="M162.4,104.1 L162.7,93.3" fill="none" stroke="#3f494e" stroke-width="1.1" stroke-linecap="round"/><path d="M146.1,103.8 L145.8,93.1" fill="none" stroke="#3f494e" stroke-width="1.1" stroke-linecap="round"/><path d="M137.0,104.1 L136.7,93.3" fill="none" stroke="#3f494e" stroke-width="1.1" stroke-linecap="round"/><path d="M127.9,104.3 L127.6,93.6" fill="none" stroke="#3f494e" stroke-width="1.1" stroke-linecap="round"/><path d="M118.8,104.5 L118.5,93.8" fill="none" stroke="#3f494e" stroke-width="1.1" stroke-linecap="round"/><path d="M109.7,104.7 L109.4,94.0" fill="none" stroke="#3f494e" stroke-width="1.1" stroke-linecap="round"/><path d="M100.6,105.0 L100.3,94.2" fill="none" stroke="#3f494e" stroke-width="1.1" stroke-linecap="round"/><path d="M91.5,105.2 L91.2,94.5" fill="none" stroke="#3f494e" stroke-width="1.1" stroke-linecap="round"/><path d="M82.4,105.4 L82.1,94.7" fill="none" stroke="#3f494e" stroke-width="1.1" stroke-linecap="round"/><path d="M73.3,105.6 L73.0,94.9" fill="none" stroke="#3f494e" stroke-width="1.1" stroke-linecap="round"/><path d="M64.2,105.9 L64.0,95.1" fill="none" stroke="#3f494e" stroke-width="1.1" stroke-linecap="round"/><path d="M55.1,106.1 L54.9,95.4" fill="none" stroke="#3f494e" stroke-width="1.1" stroke-linecap="round"/><path d="M46.0,106.3 L45.8,95.6" fill="none" stroke="#3f494e" stroke-width="1.1" stroke-linecap="round"/><path d="M36.9,106.6 L36.7,95.8" fill="none" stroke="#3f494e" stroke-width="1.1" stroke-linecap="round"/><path d="M27.8,106.8 L27.6,96.0" fill="none" stroke="#3f494e" stroke-width="1.1" stroke-linecap="round"/><path d="M18.7,107.0 L18.5,96.3" fill="none" stroke="#3f494e" stroke-width="1.1" stroke-linecap="round"/><path d="M9.6,107.2 L9.4,96.5" fill="none" stroke="#3f494e" stroke-width="1.1" stroke-linecap="round"/><path d="M0.5,107.5 L0.3,96.7" fill="none" stroke="#3f494e" stroke-width="1.1" stroke-linecap="round"/><path d="M-8.6,107.7 L-8.8,96.9" fill="none" stroke="#3f494e" stroke-width="1.1" stroke-linecap="round"/><path d="M-17.7,107.9 L-17.9,97.2" fill="none" stroke="#3f494e" stroke-width="1.1" stroke-linecap="round"/><path d="M235.9,416.2 L232.1,295.9 L228.3,175.6 L227.8,167.9 L226.0,152.2 L221.4,135.3 L212.5,121.0 L199.6,109.3 L184.1,102.3 L167.1,98.9 L150.5,98.4 L-55.8,103.5" fill="none" stroke="#ffffff" stroke-width="4.1" stroke-linecap="round" stroke-linejoin="round"/><path d="M-89.0,120.9 L-12.9,119.2 L149.2,115.1 L163.3,115.2 L177.4,117.4 L191.2,123.2 L202.6,131.6 L211.6,143.2 L217.6,156.0 L220.1,169.0 L220.7,176.1 L224.6,296.4 L228.4,416.7" fill="none" stroke="#fbf8ef" stroke-width="8.5" stroke-linecap="round" stroke-linejoin="round"/><path d="M-89.0,120.9 L-12.9,119.2 L149.2,115.1 L163.3,115.2 L177.4,117.4 L191.2,123.2 L202.6,131.6 L211.6,143.2 L217.6,156.0 L220.1,169.0 L220.7,176.1 L224.6,296.4 L228.4,416.7" fill="none" stroke="#36454d" stroke-width="6.3" stroke-linecap="round" stroke-linejoin="round"><title>Metromover</title></path><path d="M-20.9,114.0 L-20.6,124.7" fill="none" stroke="#3f494e" stroke-width="1.1" stroke-linecap="round"/><path d="M-8.5,113.7 L-8.3,124.4" fill="none" stroke="#3f494e" stroke-width="1.1" stroke-linecap="round"/><path d="M0.6,113.5 L0.8,124.2" fill="none" stroke="#3f494e" stroke-width="1.1" stroke-linecap="round"/><path d="M9.7,113.2 L9.9,124.0" fill="none" stroke="#3f494e" stroke-width="1.1" stroke-linecap="round"/><path d="M18.8,113.0 L19.0,123.8" fill="none" stroke="#3f494e" stroke-width="1.1" stroke-linecap="round"/><path d="M27.9,112.8 L28.1,123.5" fill="none" stroke="#3f494e" stroke-width="1.1" stroke-linecap="round"/><path d="M37.0,112.6 L37.2,123.3" fill="none" stroke="#3f494e" stroke-width="1.1" stroke-linecap="round"/><path d="M46.1,112.3 L46.3,123.1" fill="none" stroke="#3f494e" stroke-width="1.1" stroke-linecap="round"/><path d="M55.2,112.1 L55.4,122.8" fill="none" stroke="#3f494e" stroke-width="1.1" stroke-linecap="round"/><path d="M64.3,111.9 L64.5,122.6" fill="none" stroke="#3f494e" stroke-width="1.1" stroke-linecap="round"/><path d="M73.4,111.7 L73.6,122.4" fill="none" stroke="#3f494e" stroke-width="1.1" stroke-linecap="round"/><path d="M82.4,111.4 L82.7,122.2" fill="none" stroke="#3f494e" stroke-width="1.1" stroke-linecap="round"/><path d="M91.5,111.2 L91.8,121.9" fill="none" stroke="#3f494e" stroke-width="1.1" stroke-linecap="round"/><path d="M100.6,111.0 L100.9,121.7" fill="none" stroke="#3f494e" stroke-width="1.1" stroke-linecap="round"/><path d="M109.7,110.7 L110.0,121.5" fill="none" stroke="#3f494e" stroke-width="1.1" stroke-linecap="round"/><path d="M118.8,110.5 L119.1,121.2" fill="none" stroke="#3f494e" stroke-width="1.1" stroke-linecap="round"/><path d="M127.9,110.3 L128.2,121.0" fill="none" stroke="#3f494e" stroke-width="1.1" stroke-linecap="round"/><path d="M137.0,110.1 L137.3,120.8" fill="none" stroke="#3f494e" stroke-width="1.1" stroke-linecap="round"/><path d="M153.7,109.8 L153.7,120.5" fill="none" stroke="#3f494e" stroke-width="1.1" stroke-linecap="round"/><path d="M168.6,110.6 L166.9,121.2" fill="none" stroke="#3f494e" stroke-width="1.1" stroke-linecap="round"/><path d="M183.7,114.2 L179.5,124.1" fill="none" stroke="#3f494e" stroke-width="1.1" stroke-linecap="round"/><path d="M198.0,121.6 L191.7,130.2" fill="none" stroke="#3f494e" stroke-width="1.1" stroke-linecap="round"/><path d="M209.7,132.0 L201.2,138.5" fill="none" stroke="#3f494e" stroke-width="1.1" stroke-linecap="round"/><path d="M218.4,145.1 L208.7,149.6" fill="none" stroke="#3f494e" stroke-width="1.1" stroke-linecap="round"/><path d="M223.7,159.5 L213.2,161.5" fill="none" stroke="#3f494e" stroke-width="1.1" stroke-linecap="round"/><path d="M225.8,173.0 L215.2,174.0" fill="none" stroke="#3f494e" stroke-width="1.1" stroke-linecap="round"/><path d="M226.3,180.5 L215.5,180.8" fill="none" stroke="#3f494e" stroke-width="1.1" stroke-linecap="round"/><path d="M226.6,189.6 L215.8,189.9" fill="none" stroke="#3f494e" stroke-width="1.1" stroke-linecap="round"/><path d="M226.8,198.7 L216.1,199.0" fill="none" stroke="#3f494e" stroke-width="1.1" stroke-linecap="round"/><path d="M227.1,207.8 L216.4,208.1" fill="none" stroke="#3f494e" stroke-width="1.1" stroke-linecap="round"/><path d="M227.4,216.9 L216.7,217.2" fill="none" stroke="#3f494e" stroke-width="1.1" stroke-linecap="round"/><path d="M227.7,225.9 L217.0,226.3" fill="none" stroke="#3f494e" stroke-width="1.1" stroke-linecap="round"/><path d="M228.0,235.0 L217.3,235.4" fill="none" stroke="#3f494e" stroke-width="1.1" stroke-linecap="round"/><path d="M228.3,244.1 L217.6,244.5" fill="none" stroke="#3f494e" stroke-width="1.1" stroke-linecap="round"/><path d="M228.6,253.2 L217.9,253.6" fill="none" stroke="#3f494e" stroke-width="1.1" stroke-linecap="round"/><path d="M228.9,262.3 L218.1,262.7" fill="none" stroke="#3f494e" stroke-width="1.1" stroke-linecap="round"/><path d="M229.2,271.4 L218.4,271.8" fill="none" stroke="#3f494e" stroke-width="1.1" stroke-linecap="round"/><path d="M-89.0,120.9 L-12.9,119.2 L149.2,115.1 L163.3,115.2 L177.4,117.4 L191.2,123.2 L202.6,131.6 L211.6,143.2 L217.6,156.0 L220.1,169.0 L220.7,176.1 L224.6,296.4 L228.4,416.7" fill="none" stroke="#ffffff" stroke-width="4.1" stroke-linecap="round" stroke-linejoin="round"/><g transform="translate(186.7 150.1) rotate(-179.9)"><path d="M -3.6 -3.2 L 4.4 0 L -3.6 3.2 Z" fill="#58656d" opacity="0.46"/></g><g transform="translate(184.3 183.1) rotate(-1.4)"><path d="M -3.6 -3.2 L 4.4 0 L -3.6 3.2 Z" fill="#58656d" opacity="0.46"/></g><text x="139.2" y="194.8" text-anchor="middle" font-family="Arial, sans-serif" font-size="6.5" textLength="18.0" lengthAdjust="spacing" font-weight="500" paint-order="stroke" stroke="#f3f5ee" stroke-width="1.55" stroke-linejoin="round" fill="#6f777a">1451</text><text x="241.0" y="24.3" text-anchor="middle" font-family="Arial, sans-serif" font-size="6.5" textLength="18.0" lengthAdjust="spacing" font-weight="500" paint-order="stroke" stroke="#f3f5ee" stroke-width="1.55" stroke-linejoin="round" fill="#6f777a">515</text><g><title>parking</title><circle cx="152.7" cy="207.6" r="6.0" fill="#2f8ec8" stroke="#ffffff" stroke-width="1.7"/><text x="152.7" y="207.8" text-anchor="middle" dominant-baseline="central" font-family="Arial, sans-serif" font-size="11.4" font-weight="700" fill="#ffffff">P</text></g><g><title>Omni Terminal / Arsht Metromover</title><rect x="27.1" y="141.7" width="6.9" height="6.1" rx="1.3" fill="#2796c9" stroke="#ffffff" stroke-width="1.05"/><rect x="28.3" y="143.0" width="4.4" height="2.1" rx="0.35" fill="#ffffff"/><circle cx="28.6" cy="146.7" r="0.5" fill="#ffffff"/><circle cx="32.4" cy="146.7" r="0.5" fill="#ffffff"/></g><g><title>signal</title><rect x="117.3" y="76.9" width="5.4" height="10.4" rx="2.1" fill="#3f4b52" stroke="#ffffff" stroke-width="1.1"/><circle cx="120.0" cy="79.3" r="1.1" fill="#d85a4f"/><circle cx="120.0" cy="82.1" r="1.1" fill="#e2b84b"/><circle cx="120.0" cy="84.9" r="1.1" fill="#55a86b"/></g><g opacity="0.56"><title>crossing</title><path d="M110.5,65.5 L115.0,65.5 M110.5,67.3 L115.0,67.3 M110.5,69.1 L115.0,69.1" stroke="#ffffff" stroke-width="2.1" stroke-linecap="round"/><path d="M110.5,65.5 L115.0,65.5 M110.5,67.3 L115.0,67.3 M110.5,69.1 L115.0,69.1" stroke="#59656a" stroke-width="0.85" stroke-linecap="round"/></g><g opacity="0.56"><title>crossing</title><path d="M142.1,65.6 L146.7,65.6 M142.1,67.4 L146.7,67.4 M142.1,69.2 L146.7,69.2" stroke="#ffffff" stroke-width="2.1" stroke-linecap="round"/><path d="M142.1,65.6 L146.7,65.6 M142.1,67.4 L146.7,67.4 M142.1,69.2 L146.7,69.2" stroke="#59656a" stroke-width="0.85" stroke-linecap="round"/></g><g opacity="0.56"><title>crossing</title><path d="M150.6,81.1 L155.1,81.1 M150.6,82.9 L155.1,82.9 M150.6,84.7 L155.1,84.7" stroke="#ffffff" stroke-width="2.1" stroke-linecap="round"/><path d="M150.6,81.1 L155.1,81.1 M150.6,82.9 L155.1,82.9 M150.6,84.7 L155.1,84.7" stroke="#59656a" stroke-width="0.85" stroke-linecap="round"/></g><g opacity="0.56"><title>crossing</title><path d="M82.7,83.3 L87.3,83.3 M82.7,85.1 L87.3,85.1 M82.7,86.9 L87.3,86.9" stroke="#ffffff" stroke-width="2.1" stroke-linecap="round"/><path d="M82.7,83.3 L87.3,83.3 M82.7,85.1 L87.3,85.1 M82.7,86.9 L87.3,86.9" stroke="#59656a" stroke-width="0.85" stroke-linecap="round"/></g><g opacity="0.56"><title>crossing</title><path d="M39.1,164.3 L43.6,164.3 M39.1,166.1 L43.6,166.1 M39.1,167.9 L43.6,167.9" stroke="#ffffff" stroke-width="2.1" stroke-linecap="round"/><path d="M39.1,164.3 L43.6,164.3 M39.1,166.1 L43.6,166.1 M39.1,167.9 L43.6,167.9" stroke="#59656a" stroke-width="0.85" stroke-linecap="round"/></g><g opacity="0.56"><title>crossing</title><path d="M28.3,182.2 L32.8,182.2 M28.3,184.0 L32.8,184.0 M28.3,185.8 L32.8,185.8" stroke="#ffffff" stroke-width="2.1" stroke-linecap="round"/><path d="M28.3,182.2 L32.8,182.2 M28.3,184.0 L32.8,184.0 M28.3,185.8 L32.8,185.8" stroke="#59656a" stroke-width="0.85" stroke-linecap="round"/></g><g opacity="0.56"><title>crossing</title><path d="M239.5,104.6 L244.0,104.6 M239.5,106.4 L244.0,106.4 M239.5,108.2 L244.0,108.2" stroke="#ffffff" stroke-width="2.1" stroke-linecap="round"/><path d="M239.5,104.6 L244.0,104.6 M239.5,106.4 L244.0,106.4 M239.5,108.2 L244.0,108.2" stroke="#59656a" stroke-width="0.85" stroke-linecap="round"/></g><g opacity="0.56"><title>crossing</title><path d="M99.3,111.4 L103.9,111.4 M99.3,113.2 L103.9,113.2 M99.3,115.0 L103.9,115.0" stroke="#ffffff" stroke-width="2.1" stroke-linecap="round"/><path d="M99.3,111.4 L103.9,111.4 M99.3,113.2 L103.9,113.2 M99.3,115.0 L103.9,115.0" stroke="#59656a" stroke-width="0.85" stroke-linecap="round"/></g></svg>