<svg xmlns="http://www.w3.org/2000/svg" width="256" height="256" viewBox="0 0 256 256"><rect width="256" height="256" fill="#f1efe7"/><path d="M-3338.7,-10797.7 L-3123.9,-10887.0 L-3056.7,-10919.3 L-2756.2,-11063.6 L-2699.8,-11009.0 L-2694.9,-11004.3 L-2589.5,-11094.5 L-2564.4,-11113.6 L-2522.5,-11151.4 L-2286.4,-11368.2 L-2095.9,-11585.8 L-2088.6,-11599.7 L-2081.6,-11607.6 L-2070.5,-11620.3 L-2059.2,-11633.2 L-2054.6,-11638.5 L-2129.7,-11735.6 L-2030.3,-11795.2 L-1976.4,-11723.5 L-1900.2,-11810.7 L-1964.7,-11896.1 L-1884.8,-11979.4 L-1823.3,-11898.4 L-1752.7,-11978.8 L-1722.6,-11998.5 L-1575.4,-12094.0 L-1502.7,-12142.3 L-1415.1,-12199.9 L-1373.7,-12227.1 L-1268.8,-12294.8 L-1295.8,-12330.3 L-1344.1,-12395.0 L-1219.2,-12474.4 L-1173.7,-12497.9 L-1170.2,-12500.4 L-1146.2,-12518.9 L-1060.6,-12564.7 L-1054.7,-12573.9 L-1030.7,-12590.4 L-1017.7,-12609.4 L-1014.0,-12612.2 L-993.1,-12620.3 L-945.9,-12637.2 L-913.6,-12651.4 L-799.5,-12705.0 L-798.1,-12701.3 L-702.4,-12742.2 L-663.3,-12692.1 L-576.2,-12750.2 L-563.8,-12758.7 L-562.6,-12759.7 L-561.4,-12761.3 L-559.5,-12764.6 L-558.5,-12767.7 L-557.9,-12771.4 L-558.0,-12774.4 L-558.4,-12777.3 L-558.8,-12780.6 L-558.9,-12783.1 L-558.7,-12785.2 L-558.3,-12787.4 L-556.7,-12791.4 L-555.6,-12793.6 L-553.1,-12797.4 L-550.5,-12800.2 L-537.8,-12805.3 L-527.2,-12809.3 L-513.7,-12813.7 L-507.4,-12815.4 L-496.2,-12819.1 L-488.3,-12821.9 L-477.4,-12826.4 L-462.6,-12832.9 L-446.6,-12840.4 L-438.0,-12844.6 L-427.2,-12850.1 L-417.1,-12855.7 L-407.0,-12861.7 L-396.7,-12868.4 L-393.5,-12870.6 L-372.8,-12886.4 L-355.4,-12899.8 L-338.4,-12914.2 L-322.5,-12929.2 L-311.0,-12942.1 L-299.6,-12956.0 L-285.6,-12974.0 L-272.8,-12992.0 L-258.1,-13015.1 L-248.5,-13033.0 L-242.5,-13044.4 L-233.6,-13063.7 L-226.1,-13081.6 L-219.4,-13100.9 L-214.0,-13117.8 L-208.1,-13145.2 L-203.8,-13169.7 L-201.5,-13190.7 L-199.5,-13215.5 L-199.3,-13242.0 L-200.9,-13266.5 L-205.1,-13298.5 L-209.5,-13320.3 L-214.5,-13340.9 L-221.9,-13364.3 L-228.2,-13382.2 L-235.4,-13401.7 L-242.2,-13417.9 L-246.8,-13428.4 L-248.7,-13436.1 L-249.0,-13442.0 L-248.4,-13447.3 L-246.3,-13451.9 L-243.1,-13455.8 L-238.9,-13458.0 L-234.4,-13458.6 L-222.3,-13455.7 L-188.6,-13447.6 L-177.4,-13702.3 L-133.7,-14156.9 L-181.2,-14168.1 L-186.4,-14182.4 L-186.2,-14202.9 L-179.6,-14249.4 L-170.6,-14259.9 L-162.6,-14290.1 L-112.1,-14278.4 L-84.3,-14568.9 L-76.6,-14649.3 L-92.3,-14653.2 L-82.8,-14691.6 L-115.1,-14699.3 L-111.0,-14722.8 L-105.3,-14738.3 L-98.2,-14756.4 L-86.2,-14781.7 L-73.3,-14778.8 L-55.9,-14961.5 L-51.8,-15072.3 L-51.0,-15092.7 L-41.6,-15163.2 L-22.9,-15338.9 L101.9,-15664.3 L130.4,-15753.0 L477.1,-15886.0 L511.0,-15899.6 L516.9,-15902.8 L521.5,-15907.0 L526.6,-15912.9 L530.5,-15919.8 L533.1,-15926.6 L533.7,-15936.5 L533.2,-15948.8 L528.6,-16104.3 L526.9,-16134.4 L526.4,-16155.1 L525.7,-16195.3 L524.9,-16207.9 L523.4,-16218.5 L521.3,-16227.9 L518.2,-16237.5 L513.3,-16248.8 L506.1,-16260.9 L499.1,-16270.5 L493.7,-16279.6 L488.2,-16291.7 L483.6,-16303.3 L481.8,-16312.8 L480.4,-16323.3 L479.7,-16333.8 L480.0,-16344.0 L481.2,-16355.9 L484.0,-16367.6 L487.7,-16378.0 L491.6,-16387.5 L496.6,-16396.7 L502.7,-16407.9 L506.7,-16418.0 L510.2,-16430.9 L516.6,-16440.7 L514.4,-16529.9 L511.1,-16535.1 L510.1,-16595.7 L508.4,-16667.2 L509.6,-16677.1 L512.8,-16687.2 L520.8,-16703.0 L574.3,-16818.1 L575.4,-16820.0 L584.8,-16840.5 L593.7,-16859.9 L603.7,-16879.9 L613.5,-16900.5 L618.3,-16910.5 L670.9,-17018.4 L727.1,-17137.6 L848.7,-17384.4 L775.6,-17466.3 L716.0,-17339.3 L664.5,-17229.4 L656.7,-17213.8 L640.8,-17181.3 L609.0,-17184.0 L600.3,-17184.5 L597.2,-17181.7 L601.4,-17177.9 L585.1,-17163.4 L572.2,-17151.5 L569.8,-17100.6 L565.0,-17090.4 L549.4,-17091.0 L546.8,-17091.9 L342.4,-17176.3 L338.0,-17178.6 L333.3,-17181.6 L325.9,-17187.2 L320.2,-17192.6 L315.4,-17197.8 L310.7,-17204.2 L307.1,-17209.8 L304.3,-17215.6 L302.1,-17221.7 L300.6,-17225.9 L299.5,-17231.0 L298.7,-17237.0 L297.9,-17245.2 L297.9,-17256.9 L296.5,-17296.6 L302.1,-17296.9 L301.3,-17317.9 L300.4,-17352.5 L305.6,-17352.6 L305.2,-17376.2 L299.3,-17376.1 L296.6,-17475.5 L302.2,-17475.8 L301.3,-17499.1 L295.9,-17498.9 L293.6,-17572.4 L320.6,-17601.5 L355.1,-17602.7 L380.8,-17603.6 L414.7,-17604.7 L447.3,-17605.7 L476.5,-17606.7 L489.2,-17607.3 L488.6,-17618.6 L488.4,-17630.4 L486.5,-17668.7 L485.8,-17741.8 L484.8,-17743.1 L484.6,-17750.3 L486.7,-17750.4 L481.6,-17926.5 L477.2,-18092.2 L476.5,-18097.4 L476.1,-18107.0 L403.9,-18104.4 L355.9,-18108.5 L-3.4,-18096.0 L-3.5,-18099.2 L-4.2,-18114.5 L-174.6,-18108.5 L-174.9,-18136.8 L-197.4,-18141.9 L-201.4,-18263.0 L461.4,-18286.0 L472.4,-18301.1 L472.0,-18344.1 L471.2,-18381.3 L470.6,-18404.6 L469.7,-18427.3 L417.0,-18452.1 L414.9,-18507.2 L468.9,-18534.0 L464.0,-18661.5 L462.6,-18667.8 L408.9,-18692.9 L407.2,-18761.1 L458.2,-18787.4 L435.5,-19064.3 L441.5,-19187.5 L444.5,-19388.4 L444.3,-19606.9 L449.1,-19637.5 L449.4,-19652.3 L444.6,-19670.1 L449.6,-19670.1 L449.6,-19686.2 L452.6,-20097.2 L452.1,-20115.5 L446.4,-20115.5 L446.6,-20191.1 L443.3,-20195.8 L438.1,-20273.8 L448.4,-20345.1 L447.1,-20431.4 L443.6,-20452.1 L448.9,-20516.0 L445.3,-20593.3 L436.3,-20676.0 L419.2,-20810.0 L427.3,-20846.9 L423.7,-20882.8 L393.1,-20908.9 L348.2,-20908.5 L279.8,-20899.5 L235.3,-20899.5 L194.9,-20914.3 L141.8,-20950.7 L141.8,-21016.0 L140.4,-21096.3 L145.6,-21163.2 L163.2,-21215.4 L457.9,-21220.9 L464.7,-21638.8 L464.7,-22240.4 L461.6,-22458.7 L16373.8,-29030.4 L16373.8,7187.8 L-3338.7,7187.8 L-3338.7,-10797.7 Z" fill="#add7e1" stroke="none"><title>Biscayne Bay</title></path><path d="M-1.0,-1.0 L257.0,-1.0 L257.0,257.0 L-1.0,257.0 L-1.0,-1.0 Z" fill="#add7e1" stroke="none" fill-rule="evenodd"><title>Biscayne Bay</title></path><path d="M-11401.9,-3154.8 L-7487.2,-2741.1 L-2640.4,-879.1 L715.0,1603.3 L1833.5,5946.9 L-403.5,7187.8 L-10842.6,7187.8 L-13079.6,1810.2 Z" fill="#add7e1" stroke="none"><title>Biscayne Bay</title></path><path d="M852.6,-8511.6 L-2257.0,4860.9" fill="none" stroke="#6fb5c7" stroke-width="1.7" stroke-dasharray="5 7" opacity="0.34" stroke-linecap="round" stroke-linejoin="round"><title>Atlantic Intracoastal Waterway</title></path></svg>