<svg xmlns="http://www.w3.org/2000/svg" width="256" height="256" viewBox="0 0 256 256"><rect width="256" height="256" fill="#f1efe7"/><path d="M-6122.8,3095.5 L-6667.0,2693.8 L-6710.5,2661.8 L-6757.7,2651.5 L-6791.0,2623.5 L-6817.6,2620.4 L-6903.6,2626.1 L-6903.5,2618.0 L-6908.3,2610.4 L-6917.9,2604.5 L-7104.7,2523.6 L-7117.4,2517.8 L-7128.5,2514.6 L-7142.3,2513.5 L-7156.2,2513.2 L-7202.6,2513.2 L-7214.9,2512.5 L-7227.0,2510.1 L-7239.8,2505.1 L-7255.2,2501.0 L-7266.4,2500.0 L-7299.3,2498.6 L-7310.3,2496.6 L-7324.3,2492.1 L-7338.0,2488.6 L-7351.3,2485.5 L-7361.7,2481.3 L-7374.3,2473.5 L-7385.5,2465.1 L-7396.4,2456.9 L-7405.3,2452.7 L-7412.1,2451.3 L-7418.2,2451.7 L-7424.7,2453.5 L-7432.3,2457.4 L-7438.3,2464.0 L-7446.4,2471.9 L-7455.4,2480.2 L-7465.6,2485.8 L-7478.5,2490.0 L-7489.2,2492.6 L-7502.1,2494.6 L-7523.7,2497.1 L-7577.9,2499.7 L-7623.9,2502.0 L-7643.7,2509.1 L-7684.3,2510.5 L-7689.8,2502.0 L-7695.9,2498.1 L-7702.2,2496.9 L-7746.0,2499.4 L-7765.0,2506.2 L-7788.3,2506.4 L-7804.0,2504.1 L-7816.9,2500.2 L-7864.0,2503.0 L-7988.6,2512.7 L-8017.3,2513.5 L-8027.1,2513.3 L-8035.9,2511.1 L-8046.1,2506.0 L-8053.6,2500.0 L-8086.0,2500.1 L-8113.1,2499.7 L-8120.4,2504.2 L-8157.7,2505.1 L-8162.5,2513.0 L-8167.8,2513.2 L-8177.0,2511.0 L-8193.5,2509.0 L-8210.5,2509.9 L-8215.7,2511.5 L-8221.0,2510.6 L-8224.6,2507.1 L-8230.7,2503.6 L-8253.4,2503.7 L-8276.3,2504.9 L-8298.0,2517.7 L-8308.7,2522.8 L-8320.9,2525.5 L-8331.0,2526.2 L-8340.1,2524.8 L-8361.1,2515.8 L-8373.1,2512.0 L-8383.3,2510.5 L-8428.0,2511.1 L-8430.8,2505.7 L-8470.3,2506.6 L-8497.5,2511.6 L-8515.4,2513.7 L-8525.0,2515.8 L-8528.7,2513.3 L-8535.5,2512.4 L-8599.2,2506.6 L-8604.7,2509.6 L-8611.4,2511.0 L-8620.2,2511.1 L-8620.2,2507.9 L-8659.7,2500.5 L-8684.6,2495.7 L-8744.8,2475.5 L-8748.1,2480.0 L-8788.3,2467.6 L-8796.7,2464.8 L-8792.6,2450.8 L-8797.4,2449.3 L-8798.4,2447.8 L-8801.0,2447.0 L-8804.6,2446.5 L-8809.0,2444.3 L-8807.5,2443.0 L-8825.3,2428.5 L-8854.9,2401.7 L-8870.8,2387.7 L-8882.1,2375.4 L-8888.4,2367.1 L-8897.8,2354.3 L-8903.2,2344.4 L-8920.0,2323.3 L-8921.6,2322.1 L-8922.7,2322.0 L-8923.9,2322.2 L-8926.1,2322.3 L-8928.1,2321.3 L-8932.3,2318.6 L-8940.9,2314.1 L-8945.1,2310.5 L-8950.0,2306.2 L-8956.7,2302.6 L-8967.2,2299.3 L-8978.3,2297.3 L-8987.8,2297.1 L-8985.1,2271.9 L-8982.9,2239.0 L-8972.6,2240.0 L-8962.3,2241.8 L-8948.8,2245.8 L-8938.9,2249.5 L-8930.0,2253.6 L-8921.4,2257.6 L-8913.3,2262.2 L-8906.7,2267.3 L-8897.9,2274.1 L-8888.7,2281.0 L-8886.6,2282.3 L-8884.7,2282.7 L-8859.5,2281.6 L-8859.2,2287.3 L-8860.7,2289.8 L-8879.6,2291.6 L-8874.8,2301.4 L-8871.5,2300.2 L-8868.5,2303.2 L-8866.6,2306.1 L-8865.0,2308.3 L-8861.1,2313.5 L-8859.6,2319.2 L-8853.5,2327.6 L-8839.1,2336.7 L-8821.2,2345.8 L-8799.8,2359.3 L-8790.0,2363.9 L-8769.4,2375.6 L-8759.7,2380.7 L-8742.0,2387.2 L-8707.2,2396.5 L-8686.8,2401.4 L-8668.2,2403.3 L-8658.3,2404.6 L-8656.1,2404.4 L-8655.2,2403.1 L-8654.9,2396.5 L-8631.8,2396.5 L-8631.3,2403.9 L-8582.9,2406.4 L-8535.7,2407.8 L-8503.6,2406.6 L-8493.0,2405.8 L-8485.3,2404.8 L-8479.0,2403.0 L-8473.2,2399.5 L-8470.3,2394.8 L-8471.4,2317.3 L-8451.9,2316.2 L-8450.2,2391.8 L-8449.1,2393.7 L-8445.2,2396.4 L-8440.7,2397.7 L-8337.3,2397.9 L-8337.8,2364.6 L-8329.7,2364.4 L-8326.3,2397.9 L-8262.5,2397.3 L-8262.5,2393.7 L-8256.2,2393.6 L-8256.0,2396.2 L-7830.5,2388.1 L-7799.7,2384.5 L-7762.1,2383.4 L-7726.5,2388.1 L-7714.6,2387.1 L-7705.9,2385.4 L-7697.8,2382.5 L-7687.3,2378.5 L-7473.4,2374.7 L-7473.5,2359.9 L-7353.8,2357.8 L-7353.7,2374.1 L-7302.9,2375.9 L-7299.0,2375.8 L-7295.4,2375.5 L-7290.7,2374.9 L-7286.9,2373.9 L-7283.2,2372.7 L-7276.9,2369.7 L-7274.0,2374.7 L-7267.8,2370.8 L-7262.1,2366.2 L-7257.3,2361.2 L-7253.1,2355.3 L-7249.2,2348.0 L-7256.5,2343.9 L-7254.5,2337.8 L-7253.2,2331.5 L-7252.5,2325.5 L-7252.4,2320.8 L-7252.6,2316.4 L-7253.3,2278.5 L-7259.4,2272.9 L-7254.2,2267.4 L-7259.5,2262.8 L-7253.5,2255.7 L-7260.0,2250.0 L-7254.8,2244.5 L-7260.0,2239.5 L-7253.9,2233.0 L-7260.2,2226.6 L-7247.1,2212.2 L-7244.8,2212.1 L-7250.5,1997.6 L-7202.4,1996.5 L-7200.1,1997.7 L-7197.5,1999.7 L-7195.6,2001.4 L-7194.8,2003.4 L-7194.1,2005.8 L-7193.9,2008.2 L-7189.8,2341.5 L-7187.9,2352.3 L-7185.2,2359.6 L-7181.0,2368.6 L-7176.1,2377.4 L-7171.0,2384.4 L-7166.9,2388.7 L-7162.5,2392.1 L-7157.4,2395.1 L-7152.1,2397.1 L-7144.9,2399.2 L-7136.0,2400.9 L-7125.2,2402.9 L-7112.6,2405.2 L-7100.6,2407.8 L-7087.3,2410.2 L-7074.7,2412.9 L-7070.7,2413.7 L-7065.8,2414.7 L-7061.0,2415.3 L-7056.8,2415.4 L-7052.0,2415.4 L-7048.3,2415.2 L-7044.6,2414.5 L-7041.4,2413.7 L-7038.0,2412.7 L-7035.1,2411.4 L-7029.3,2408.6 L-7024.2,2405.6 L-7019.1,2401.9 L-7013.2,2396.2 L-7007.7,2390.0 L-7004.7,2384.7 L-7002.0,2378.2 L-7000.6,2372.9 L-6999.8,2367.2 L-6999.3,2361.8 L-6999.3,2356.8 L-7006.6,1999.6 L-6996.2,1988.9 L-6992.4,1988.5 L-6990.9,1987.1 L-6969.2,1986.5 L-6967.3,1983.3 L-6964.0,1984.2 L-6958.5,1989.3 L-6954.7,1994.6 L-6950.9,2001.2 L-6943.7,2400.4 L-6943.0,2407.4 L-6941.7,2421.3 L-6940.4,2424.1 L-6941.4,2424.8 L-6939.6,2428.7 L-6937.3,2433.3 L-6935.3,2436.2 L-6932.9,2439.7 L-6929.6,2443.5 L-6925.7,2447.5 L-6921.0,2451.5 L-6916.8,2454.6 L-6912.2,2457.1 L-6907.8,2459.3 L-6903.1,2460.8 L-6902.5,2459.4 L-6836.3,2483.4 L-6828.0,2486.5 L-6824.2,2487.9 L-6818.3,2490.0 L-6814.0,2491.0 L-6810.3,2491.5 L-6806.9,2491.5 L-6802.1,2491.1 L-6796.9,2490.6 L-6792.3,2489.6 L-6787.6,2488.3 L-6784.1,2486.9 L-6780.4,2485.2 L-6777.4,2483.3 L-6773.6,2480.5 L-6768.8,2476.3 L-6764.4,2472.0 L-6759.6,2466.0 L-6756.2,2460.4 L-6753.4,2454.2 L-6751.4,2447.3 L-6750.2,2440.3 L-6749.5,2427.8 L-6749.8,2402.3 L-6757.1,1996.2 L-6757.1,1991.7 L-6756.3,1988.5 L-6754.9,1985.9 L-6752.0,1983.5 L-6748.7,1981.8 L-6745.0,1981.2 L-6714.9,1980.2 L-6711.3,1980.8 L-6708.1,1982.2 L-6705.8,1984.4 L-6703.2,1988.2 L-6701.7,1993.6 L-6700.8,2000.9 L-6693.3,2521.8 L-6692.9,2524.9 L-6692.3,2528.0 L-6691.4,2531.2 L-6690.3,2534.7 L-6689.1,2538.2 L-6687.7,2541.4 L-6686.5,2544.1 L-6685.2,2546.5 L-6683.3,2549.5 L-6681.2,2552.1 L-6679.3,2554.5 L-6676.4,2557.6 L-6673.6,2560.3 L-6670.5,2562.8 L-6667.2,2565.3 L-6658.0,2571.1 L-6657.1,2570.0 L-6649.0,2574.5 L-6639.4,2579.7 L-6633.9,2582.7 L-6627.8,2586.3 L-6621.5,2590.0 L-6615.0,2594.0 L-6607.7,2598.5 L-6600.5,2603.0 L-6593.3,2607.3 L-6587.3,2611.0 L-6580.6,2615.3 L-6573.5,2619.9 L-6566.7,2624.4 L-6560.4,2628.7 L-6561.1,2629.6 L-6552.3,2635.7 L-6543.2,2641.8 L-6540.4,2643.5 L-6537.3,2645.2 L-6532.9,2647.3 L-6528.8,2648.8 L-6524.4,2650.0 L-6520.5,2651.0 L-6515.9,2651.7 L-6510.8,2652.3 L-6506.4,2652.3 L-6502.7,2652.0 L-6499.5,2651.3 L-6495.4,2650.2 L-6491.3,2648.9 L-6487.5,2647.6 L-6484.0,2645.9 L-6480.4,2644.0 L-6476.9,2641.8 L-6473.3,2639.0 L-6470.1,2636.1 L-6467.0,2633.0 L-6464.1,2629.8 L-6461.1,2625.4 L-6458.6,2621.0 L-6456.2,2616.1 L-6454.8,2612.3 L-6453.7,2608.3 L-6452.9,2604.0 L-6452.5,2599.7 L-6452.8,2594.8 L-6512.1,2027.1 L-6508.0,2026.7 L-6511.3,1998.3 L-6514.3,1998.5 L-6516.7,1985.4 L-6515.9,1982.7 L-6513.4,1978.7 L-6508.3,1974.8 L-6501.6,1974.0 L-6474.7,1973.1 L-6470.2,1974.0 L-6467.1,1975.5 L-6463.8,1978.1 L-6461.5,1980.5 L-6459.9,1983.0 L-6394.9,2619.9 L-6393.4,2625.4 L-6390.6,2632.2 L-6388.2,2636.6 L-6385.6,2641.3 L-6382.2,2645.9 L-6379.4,2649.1 L-6376.3,2652.3 L-6372.9,2655.0 L-6369.9,2657.1 L-6365.7,2659.8 L-6362.0,2661.7 L-6357.1,2663.8 L-6352.5,2665.2 L-6347.3,2666.3 L-6343.3,2666.9 L-6339.8,2667.0 L-6335.7,2667.1 L-6194.5,2664.2 L-6189.9,2663.6 L-6185.5,2661.5 L-6182.3,2658.6 L-6180.1,2654.2 L-6179.3,2650.2 L-6179.5,2646.2 L-6251.0,1964.1 L-6314.0,1881.9 L-6316.8,1884.2 L-6371.6,1807.7 L-6372.6,1791.5 L-6374.3,1788.1 L-6377.2,1785.0 L-6380.9,1779.8 L-6381.2,1772.2 L-6387.7,1769.7 L-6394.0,1769.6 L-6402.5,1773.8 L-6392.9,1791.8 L-6405.0,1797.6 L-6414.1,1789.2 L-6421.9,1784.4 L-6427.2,1782.6 L-6440.2,1782.1 L-6446.8,1768.7 L-6405.3,1751.7 L-6407.3,1748.3 L-6416.1,1736.5 L-6417.5,1737.2 L-6726.4,1332.7 L-6731.1,1266.0 L-6728.6,1265.4 L-6740.5,1143.1 L-6745.1,1131.8 L-6750.1,1119.1 L-6753.9,1109.3 L-6758.5,1096.8 L-6773.5,1054.7 L-6779.6,1057.4 L-6788.5,1023.3 L-6787.0,1023.0 L-6818.1,938.7 L-6821.5,791.3 L-6817.9,791.3 L-6817.4,778.4 L-6815.6,765.7 L-6814.9,761.0 L-6816.2,757.2 L-6812.0,737.1 L-6773.7,669.3 L-6793.8,657.1 L-6778.9,632.4 L-6759.5,643.8 L-6757.8,641.2 L-6751.7,644.3 L-6745.1,646.9 L-6737.5,649.3 L-6731.8,650.5 L-6726.4,650.7 L-6720.0,649.6 L-6713.7,647.5 L-6707.5,645.1 L-6704.6,642.0 L-6703.5,637.9 L-6702.0,633.0 L-6701.7,631.0 L-6701.8,628.5 L-6703.2,624.6 L-6705.8,620.9 L-6708.8,618.8 L-6713.2,614.6 L-6717.0,610.6 L-6722.6,607.0 L-6724.9,601.3 L-6727.6,595.6 L-6731.9,588.9 L-6736.8,583.1 L-6745.8,576.7 L-6789.4,554.1 L-6815.2,541.3 L-6839.3,528.3 L-6862.2,515.6 L-6877.0,506.0 L-6882.7,504.5 L-6889.0,506.4 L-6892.5,510.7 L-6899.6,528.4 L-6943.7,508.6 L-6917.3,466.9 L-6911.5,464.2 L-6904.4,462.8 L-6896.1,464.6 L-6730.4,561.5 L-6721.4,564.2 L-6712.0,566.5 L-6698.7,566.8 L-6685.2,564.4 L-6676.6,560.9 L-6667.2,553.3 L-6661.7,548.0 L-6655.8,539.7 L-6655.9,538.6 L-6656.3,537.6 L-6657.2,536.8 L-6710.8,503.7 L-6712.1,503.3 L-6713.5,503.2 L-6714.9,503.3 L-6720.0,505.5 L-6721.9,505.7 L-6724.0,505.5 L-6727.1,505.0 L-6729.5,504.3 L-6732.9,502.6 L-6736.2,500.7 L-6809.9,455.7 L-6844.6,431.3 L-6847.9,430.8 L-6851.2,430.9 L-6855.1,431.0 L-6857.7,430.6 L-6859.9,429.6 L-6862.5,427.6 L-6865.4,425.3 L-6867.4,422.5 L-6868.6,419.7 L-6868.8,417.6 L-6868.5,414.9 L-6868.0,412.6 L-6856.2,392.8 L-6856.2,391.9 L-6857.1,391.2 L-6867.9,383.6 L-6870.0,380.5 L-6868.8,378.6 L-6865.3,379.1 L-6861.5,380.2 L-6839.3,393.9 L-6713.5,474.2 L-6710.9,475.7 L-6709.1,477.6 L-6707.9,479.8 L-6706.6,484.4 L-6705.7,488.0 L-6705.2,491.1 L-6648.4,525.2 L-6646.4,526.1 L-6644.0,526.3 L-6641.2,525.9 L-6639.2,525.2 L-6637.5,524.4 L-6576.4,425.5 L-6550.8,387.9 L-6526.9,361.0 L-6514.8,367.7 L-6507.0,355.1 L-6548.5,330.3 L-6539.7,315.9 L-6498.2,340.9 L-6488.9,325.7 L-6496.4,317.3 L-6488.8,308.6 L-6480.6,318.0 L-6478.6,316.5 L-6476.3,314.9 L-6473.1,313.1 L-6469.8,311.5 L-6465.7,310.0 L-6461.8,308.9 L-6457.6,308.2 L-6453.4,307.9 L-6449.4,308.0 L-6445.5,308.6 L-6441.8,309.5 L-6438.7,310.4 L-6436.0,311.6 L-6432.2,313.4 L-6428.7,315.6 L-6425.7,317.7 L-6422.7,320.4 L-6420.0,323.0 L-6417.0,326.9 L-6414.9,330.4 L-6412.8,334.9 L-6411.4,339.4 L-6410.2,345.6 L-6409.8,351.0 L-6409.9,354.1 L-6410.3,357.3 L-6411.4,362.1 L-6414.2,368.7 L-6416.0,373.0 L-6418.5,378.1 L-6408.1,383.3 L-6359.5,325.3 L-6448.0,271.5 L-6443.5,261.9 L-6440.3,253.0 L-6440.1,249.2 L-6435.0,238.3 L-6424.5,228.6 L-6411.5,218.0 L-6396.0,208.1 L-6366.9,199.6 L-6316.7,194.6 L-6296.9,178.6 L-6292.8,177.9 L-6289.5,177.7 L-6284.8,179.5 L-6280.5,180.0 L-6252.6,196.9 L-6179.2,109.8 L-6448.2,-61.2 L-6464.9,-34.9 L-6501.2,-57.9 L-6449.7,-138.9 L-6413.5,-116.5 L-6429.6,-88.9 L-6155.9,83.6 L-6121.4,39.3 L-6097.0,10.3 L-6064.8,-38.1 L-6047.0,-62.5 L-6048.8,-76.4 L-6048.3,-76.8 L-6051.5,-87.1 L-6053.6,-93.5 L-6055.6,-100.1 L-6058.0,-105.8 L-6062.6,-113.3 L-6067.2,-120.6 L-6069.2,-124.4 L-6070.7,-128.2 L-6071.8,-131.7 L-6072.2,-134.8 L-6072.7,-145.0 L-6190.9,-253.5 L-6194.8,-249.3 L-6198.1,-252.1 L-6207.7,-242.6 L-6214.0,-251.0 L-6206.4,-259.8 L-6214.0,-269.5 L-6219.2,-268.1 L-6224.6,-267.9 L-6229.5,-268.8 L-6233.8,-270.6 L-6238.8,-274.3 L-6245.0,-280.4 L-6255.9,-292.4 L-6259.2,-297.5 L-6260.4,-303.9 L-6259.6,-311.5 L-6256.7,-318.5 L-6254.2,-323.3 L-6249.4,-328.1 L-6244.1,-331.7 L-6239.0,-333.6 L-6235.2,-334.2 L-6230.2,-333.3 L-6225.1,-331.5 L-6220.3,-327.7 L-6209.2,-317.7 L-6203.5,-312.3 L-6198.3,-306.6 L-6196.6,-303.9 L-6195.4,-301.0 L-6194.7,-298.4 L-6194.2,-294.8 L-6194.8,-291.4 L-6195.8,-288.2 L-6197.2,-285.8 L-6197.6,-284.7 L-6197.3,-283.3 L-6196.5,-281.9 L-6069.6,-163.0 L-6065.2,-160.0 L-6062.1,-158.7 L-6057.7,-159.7 L-6052.5,-160.1 L-6045.9,-157.3 L-6039.3,-153.2 L-6026.4,-145.9 L-6021.0,-143.3 L-6016.1,-148.1 L-6010.7,-153.3 L-6007.1,-157.4 L-6001.1,-165.2 L-5997.7,-169.9 L-5994.1,-175.7 L-5991.8,-180.8 L-5989.3,-186.2 L-5987.0,-191.9 L-5984.9,-197.7 L-5983.7,-202.6 L-5982.3,-208.8 L-5981.7,-212.5 L-5981.3,-215.5 L-5980.6,-220.8 L-5979.9,-226.0 L-5979.6,-229.4 L-5979.4,-233.1 L-5979.4,-237.4 L-5979.6,-241.0 L-5980.3,-246.0 L-5981.1,-251.7 L-5981.9,-257.0 L-5982.4,-261.3 L-5983.0,-264.5 L-5983.7,-267.9 L-5984.5,-271.3 L-5985.7,-275.3 L-5987.1,-279.3 L-5988.2,-281.7 L-5989.4,-284.1 L-5991.1,-286.4 L-5993.4,-289.7 L-5995.9,-292.8 L-5998.6,-295.4 L-6002.0,-298.2 L-6005.5,-300.4 L-6009.0,-302.3 L-6012.2,-303.5 L-6014.4,-304.2 L-6016.9,-304.5 L-6019.9,-304.4 L-6022.7,-303.8 L-6024.9,-302.9 L-6027.0,-301.4 L-6028.5,-299.8 L-6029.7,-298.3 L-6030.6,-296.0 L-6031.1,-293.5 L-6031.0,-290.5 L-6030.8,-287.0 L-6030.8,-284.4 L-6031.0,-281.8 L-6031.4,-279.2 L-6031.9,-276.9 L-6032.8,-274.5 L-6034.2,-271.9 L-6035.9,-269.4 L-6037.6,-267.1 L-6039.3,-265.5 L-6042.7,-262.8 L-6045.5,-260.9 L-6049.9,-259.6 L-6052.5,-259.0 L-6055.5,-258.6 L-6058.2,-258.5 L-6061.8,-258.7 L-6064.4,-259.2 L-6068.0,-260.0 L-6073.0,-261.5 L-6077.2,-263.1 L-6080.3,-264.3 L-6083.6,-266.1 L-6086.5,-268.1 L-6089.7,-270.6 L-6092.2,-272.9 L-6094.3,-275.0 L-6096.5,-277.6 L-6098.3,-280.0 L-6100.0,-282.4 L-6101.5,-285.1 L-6103.1,-288.7 L-6104.5,-292.0 L-6105.9,-295.6 L-6106.8,-298.4 L-6107.5,-301.0 L-6108.0,-303.7 L-6108.4,-307.9 L-6108.7,-311.6 L-6108.5,-315.6 L-6107.6,-320.9 L-6106.1,-326.1 L-6104.2,-331.5 L-6102.9,-334.0 L-6101.6,-335.5 L-6091.3,-348.6 L-6088.9,-351.3 L-6085.8,-352.8 L-6082.5,-354.0 L-6078.8,-354.8 L-6074.7,-355.3 L-6071.1,-355.5 L-6067.5,-355.4 L-6063.9,-355.0 L-6059.8,-353.8 L-6055.5,-351.7 L-6051.8,-349.4 L-6048.5,-346.8 L-6038.1,-337.2 L-6035.6,-336.4 L-6034.2,-336.1 L-6032.5,-336.5 L-6031.4,-336.9 L-6030.0,-338.5 L-6029.4,-340.1 L-6029.3,-342.3 L-6029.2,-344.3 L-6029.6,-345.2 L-6050.6,-366.0 L-6022.0,-396.5 L-6023.6,-400.1 L-6007.1,-416.4 L-5975.3,-384.6 L-6000.9,-352.0 L-6001.1,-350.1 L-5999.8,-349.3 L-5998.2,-349.7 L-5970.1,-384.9 L-5961.9,-394.8 L-5961.6,-397.1 L-5962.3,-399.1 L-5963.8,-400.9 L-5985.8,-421.7 L-5980.3,-428.1 L-5985.9,-432.8 L-5982.7,-440.2 L-5925.7,-497.5 L-5906.1,-500.8 L-5900.0,-501.7 L-5894.2,-502.5 L-5891.5,-503.2 L-5888.3,-504.9 L-5884.5,-507.0 L-5881.6,-509.9 L-5878.8,-513.4 L-5849.7,-555.7 L-5849.1,-556.8 L-5849.4,-558.2 L-5849.8,-559.2 L-5850.5,-560.1 L-5854.0,-562.3 L-5854.9,-562.8 L-5855.7,-562.7 L-5856.6,-562.2 L-5858.5,-560.8 L-5882.9,-538.0 L-5892.4,-531.2 L-5931.4,-571.2 L-5926.9,-585.4 L-5925.0,-589.6 L-5918.9,-600.8 L-5911.8,-613.3 L-5907.5,-618.1 L-5899.8,-626.3 L-5891.6,-635.3 L-5882.6,-644.8 L-5874.9,-651.4 L-5871.2,-654.7 L-5866.3,-658.3 L-5861.8,-660.7 L-5855.4,-663.6 L-5851.4,-665.0 L-5847.4,-666.2 L-5844.3,-666.5 L-5839.9,-666.2 L-5836.2,-665.7 L-5832.0,-664.5 L-5827.9,-661.1 L-5825.4,-657.6 L-5823.9,-654.0 L-5823.3,-648.6 L-5823.5,-641.5 L-5824.4,-633.5 L-5826.1,-625.8 L-5836.4,-602.8 L-5846.2,-582.1 L-5842.8,-576.6 L-5841.0,-575.5 L-5839.1,-575.5 L-5837.4,-575.9 L-5836.1,-576.7 L-5829.4,-586.2 L-5820.8,-590.5 L-5803.7,-636.2 L-5802.5,-638.5 L-5800.8,-640.5 L-5799.1,-641.4 L-5797.5,-641.8 L-5795.2,-641.8 L-5792.8,-641.2 L-5780.3,-637.7 L-5777.9,-637.2 L-5775.1,-637.1 L-5772.5,-637.5 L-5770.4,-638.4 L-5768.6,-639.8 L-5766.8,-642.1 L-5745.8,-670.2 L-5744.8,-672.3 L-5744.3,-674.5 L-5744.3,-676.6 L-5744.7,-678.8 L-5745.5,-680.4 L-5746.7,-682.0 L-5748.1,-683.3 L-5750.1,-684.3 L-5752.0,-684.8 L-5753.9,-684.9 L-5755.5,-684.6 L-5757.4,-683.7 L-5758.8,-682.7 L-5759.9,-681.3 L-5765.4,-672.4 L-5766.6,-670.7 L-5768.0,-669.1 L-5770.1,-667.3 L-5772.0,-666.2 L-5774.3,-665.5 L-5777.1,-664.9 L-5778.7,-664.9 L-5780.9,-665.2 L-5782.8,-665.7 L-5784.4,-666.4 L-5801.6,-682.0 L-5803.6,-684.4 L-5805.1,-686.6 L-5806.5,-689.3 L-5807.4,-691.6 L-5808.0,-694.0 L-5808.5,-696.6 L-5808.8,-699.8 L-5808.9,-703.0 L-5808.6,-705.7 L-5808.2,-708.0 L-5807.7,-710.0 L-5806.9,-711.7 L-5775.6,-761.4 L-5773.6,-764.7 L-5772.4,-766.4 L-5771.0,-767.2 L-5768.7,-768.2 L-5766.3,-768.9 L-5764.0,-769.3 L-5762.7,-769.3 L-5761.4,-769.1 L-5760.3,-768.7 L-5758.7,-767.9 L-5756.8,-766.7 L-5753.6,-764.1 L-5739.3,-750.7 L-5736.9,-747.3 L-5735.5,-744.0 L-5734.2,-740.1 L-5733.8,-737.1 L-5733.6,-733.9 L-5733.6,-731.2 L-5733.9,-728.5 L-5734.4,-725.8 L-5735.0,-724.0 L-5736.6,-720.3 L-5742.3,-709.7 L-5742.9,-707.3 L-5742.9,-704.4 L-5742.7,-702.2 L-5741.9,-700.5 L-5740.4,-698.9 L-5738.0,-697.2 L-5736.0,-696.1 L-5733.7,-695.6 L-5731.0,-695.7 L-5728.8,-696.2 L-5726.3,-697.5 L-5724.1,-699.5 L-5687.1,-750.3 L-5698.4,-760.5 L-5691.6,-767.8 L-5681.5,-758.1 L-5660.7,-785.4 L-5629.2,-827.5 L-5756.0,-949.0 L-5783.5,-920.1 L-5815.8,-950.6 L-5784.6,-984.2 L-5788.7,-988.7 L-5782.2,-994.7 L-5778.2,-990.6 L-5756.5,-1014.2 L-5737.0,-996.1 L-5734.7,-981.1 L-5652.7,-904.6 L-5636.7,-898.4 L-5623.9,-902.9 L-5599.6,-893.2 L-5583.5,-899.1 L-5535.6,-957.6 L-5532.9,-963.1 L-5532.1,-970.5 L-5534.5,-977.8 L-5537.7,-983.0 L-5566.1,-1009.2 L-5565.7,-1016.4 L-5560.1,-1030.5 L-5548.9,-1051.4 L-5571.0,-1065.7 L-5562.6,-1068.9 L-5557.3,-1072.3 L-5552.0,-1078.3 L-5545.8,-1094.2 L-5534.4,-1123.2 L-5527.0,-1130.0 L-5597.2,-1198.0 L-5612.6,-1188.4 L-5616.2,-1187.5 L-5619.6,-1187.4 L-5624.0,-1187.9 L-5627.6,-1188.9 L-5631.1,-1191.0 L-5634.0,-1193.5 L-5670.3,-1228.5 L-5677.1,-1235.3 L-5680.1,-1238.9 L-5682.6,-1243.4 L-5683.8,-1247.5 L-5684.3,-1251.5 L-5684.2,-1255.3 L-5683.5,-1258.9 L-5682.6,-1261.8 L-5681.4,-1263.9 L-5678.8,-1267.6 L-5675.7,-1271.3 L-5659.4,-1288.2 L-5535.4,-1173.3 L-5543.9,-1163.7 L-5452.0,-1076.8 L-5346.1,-1231.9 L-5413.3,-1294.7 L-5421.9,-1287.0 L-5547.4,-1405.5 L-5531.0,-1420.8 L-5458.9,-1353.2 L-5451.7,-1363.8 L-5447.7,-1369.1 L-5442.6,-1374.3 L-5436.7,-1380.8 L-5430.7,-1384.7 L-5421.2,-1392.7 L-5411.7,-1401.5 L-5393.5,-1418.7 L-5350.0,-1467.6 L-5342.2,-1475.7 L-5313.5,-1490.4 L-5286.3,-1511.7 L-5283.7,-1513.7 L-5276.6,-1519.2 L-5273.5,-1522.0 L-5271.0,-1525.2 L-5269.3,-1528.5 L-5268.2,-1531.8 L-5266.9,-1534.3 L-5265.4,-1537.0 L-5262.8,-1541.3 L-5261.0,-1544.0 L-5259.2,-1546.5 L-5255.9,-1549.1 L-5252.7,-1551.3 L-5249.2,-1553.4 L-5240.9,-1557.4 L-5232.9,-1561.4 L-5231.7,-1561.6 L-5230.5,-1561.4 L-5228.1,-1560.7 L-5221.6,-1557.4 L-5216.7,-1555.0 L-5214.4,-1553.6 L-5212.3,-1551.9 L-5178.9,-1520.2 L-5176.6,-1518.9 L-5165.7,-1516.0 L-5162.2,-1515.0 L-5158.3,-1514.6 L-5155.3,-1514.7 L-5153.0,-1515.5 L-5150.7,-1517.1 L-5138.8,-1533.9 L-5138.8,-1536.2 L-5139.2,-1538.3 L-5140.5,-1540.6 L-5142.5,-1542.8 L-5151.6,-1551.3 L-5150.9,-1552.7 L-5139.2,-1577.5 L-5119.2,-1617.8 L-5101.0,-1631.2 L-5090.5,-1641.7 L-5083.3,-1650.0 L-5075.7,-1657.7 L-5067.3,-1664.6 L-5062.2,-1669.3 L-5056.8,-1674.2 L-5052.8,-1678.2 L-5050.8,-1681.8 L-5049.2,-1684.6 L-5048.2,-1687.3 L-5047.8,-1690.5 L-5047.6,-1693.7 L-5041.5,-1699.9 L-5032.5,-1708.4 L-5017.5,-1720.7 L-5001.8,-1732.6 L-4994.8,-1742.4 L-4992.2,-1752.5 L-4984.4,-1757.3 L-4974.6,-1757.5 L-4964.7,-1763.4 L-4956.0,-1779.1 L-4956.2,-1795.4 L-4954.6,-1820.6 L-4952.1,-1824.2 L-4950.6,-1826.6 L-4947.8,-1831.2 L-4951.3,-1841.9 L-4947.3,-1846.9 L-4927.5,-1871.4 L-4893.5,-1911.1 L-4887.0,-1920.5 L-4884.4,-1925.4 L-4873.6,-1940.3 L-4870.6,-1949.7 L-4870.5,-1964.2 L-4870.9,-1978.7 L-4871.0,-1993.5 L-4866.6,-2009.8 L-4859.2,-2025.9 L-4848.6,-2041.4 L-4840.9,-2052.9 L-4831.8,-2064.4 L-4814.2,-2084.0 L-4736.2,-2122.6 L-4725.9,-2125.3 L-4723.3,-2119.7 L-4720.2,-2114.3 L-4719.2,-2113.3 L-4717.5,-2114.0 L-4717.2,-2117.8 L-4718.4,-2121.0 L-4714.1,-2122.3 L-4698.1,-2127.0 L-4677.3,-2133.2 L-4660.5,-2138.2 L-4654.5,-2140.0 L-4660.5,-2158.9 L-4650.1,-2161.7 L-4632.8,-2164.1 L-4630.7,-2164.4 L-4630.6,-2165.6 L-4630.6,-2170.0 L-4614.9,-2170.7 L-4590.3,-2171.7 L-4580.8,-2167.1 L-4557.1,-2081.7 L-4551.8,-2076.6 L-4562.1,-2066.0 L-4553.0,-2057.0 L-4544.0,-2048.0 L-4533.2,-2059.0 L-4332.7,-1868.4 L-4065.1,-2154.0 L-3971.6,-2064.6 L-3968.0,-2065.7 L-3966.6,-2064.1 L-3960.3,-2068.1 L-3955.1,-2070.0 L-3949.6,-2072.5 L-3940.2,-2077.4 L-3934.4,-2080.7 L-3927.5,-2084.7 L-3921.1,-2088.7 L-3915.9,-2092.1 L-3911.1,-2095.2 L-3905.5,-2099.3 L-3899.1,-2104.0 L-3894.2,-2108.1 L-3889.0,-2112.7 L-3883.3,-2118.1 L-3877.9,-2123.5 L-3865.3,-2136.9 L-3857.7,-2146.0 L-3850.3,-2155.9 L-3845.2,-2163.1 L-3840.4,-2170.5 L-3834.7,-2180.8 L-3829.7,-2190.9 L-3825.7,-2199.2 L-3822.3,-2207.5 L-3820.2,-2213.0 L-3817.9,-2219.2 L-3812.5,-2225.9 L-3983.5,-2388.6 L-3981.4,-2390.9 L-3960.9,-2412.9 L-3946.0,-2428.7 L-3944.5,-2430.3 L-3901.1,-2389.7 L-3890.6,-2395.1 L-3889.4,-2393.6 L-3787.4,-2446.7 L-3783.2,-2448.9 L-3780.3,-2451.2 L-3777.6,-2453.7 L-3774.5,-2456.9 L-3771.5,-2461.4 L-3768.9,-2465.6 L-3767.2,-2468.8 L-3766.0,-2472.9 L-3764.9,-2477.4 L-3764.4,-2482.3 L-3764.4,-2487.8 L-3764.8,-2492.2 L-3765.6,-2496.1 L-3766.9,-2500.8 L-3798.8,-2592.6 L-3803.1,-2607.7 L-3802.0,-2612.9 L-3879.0,-2632.0 L-3875.4,-2645.3 L-3872.4,-2657.3 L-3849.6,-2747.5 L-3867.3,-2800.1 L-3877.7,-2834.1 L-3880.7,-2842.6 L-3853.1,-2867.9 L-3822.0,-2884.6 L-3820.1,-2882.0 L-3817.1,-2877.7 L-3810.1,-2868.6 L-3809.3,-2869.4 L-3809.1,-2872.5 L-3818.8,-2885.9 L-3801.5,-2898.3 L-3797.7,-2900.5 L-3788.7,-2888.8 L-3787.2,-2887.7 L-3785.7,-2887.4 L-3784.9,-2887.6 L-3784.9,-2888.4 L-3827.7,-2947.0 L-3830.8,-2950.4 L-3834.4,-2955.3 L-3853.0,-2977.8 L-3837.1,-3027.1 L-3824.9,-3039.8 L-3810.8,-3046.4 L-3780.8,-3064.2 L-3774.6,-3070.6 L-3747.7,-3094.2 L-3739.2,-3085.3 L-3714.3,-3058.4 L-3691.2,-3077.8 L-3675.7,-3062.9 L-3661.8,-3049.3 L-3661.1,-3048.6 L-3649.3,-3058.7 L-3633.7,-3042.1 L-3620.3,-3024.9 L-3610.4,-3013.4 L-3609.1,-3011.9 L-3580.3,-3037.2 L-3578.8,-3038.5 L-3585.6,-3046.8 L-3569.9,-3059.7 L-3522.3,-3004.2 L-3481.8,-3030.9 L-3477.8,-3034.7 L-3460.2,-3042.1 L-3456.2,-3046.0 L-3452.4,-3051.0 L-3430.7,-3070.3 L-3435.6,-3077.0 L-3474.4,-3068.1 L-3518.8,-3118.6 L-3513.7,-3123.0 L-3507.0,-3115.2 L-3475.6,-3142.2 L-3442.3,-3105.8 L-3433.3,-3102.2 L-3427.9,-3099.1 L-3421.1,-3091.4 L-3417.4,-3094.7 L-3441.5,-3122.1 L-3426.7,-3134.9 L-3396.8,-3099.0 L-3393.0,-3101.8 L-3393.4,-3102.6 L-3327.8,-3150.0 L-3308.3,-3164.4 L-3372.0,-3244.0 L-3358.4,-3253.5 L-3303.0,-3188.6 L-3262.1,-3181.1 L-3235.1,-3196.9 L-3231.3,-3199.3 L-3231.5,-3202.3 L-3233.4,-3205.8 L-3212.3,-3219.1 L-3206.1,-3212.9 L-3188.3,-3223.4 L-3201.2,-3239.4 L-3263.5,-3322.7 L-3219.5,-3368.3 L-3190.6,-3411.0 L-3189.9,-3444.4 L-3205.3,-3488.8 L-3172.9,-3515.8 L-3138.9,-3528.9 L-3127.7,-3531.5 L-3118.7,-3532.7 L-3107.7,-3532.0 L-3096.3,-3529.2 L-3079.8,-3515.1 L-3037.0,-3462.9 L-3002.8,-3419.5 L-2961.9,-3392.2 L-2945.8,-3389.6 L-2931.4,-3387.9 L-2919.2,-3387.4 L-2903.6,-3388.5 L-2886.7,-3391.3 L-2873.0,-3395.2 L-2861.4,-3400.6 L-2853.7,-3405.1 L-2848.0,-3411.1 L-2838.4,-3422.7 L-2828.0,-3441.7 L-2816.7,-3466.9 L-2796.6,-3456.6 L-2788.6,-3453.9 L-2780.0,-3452.7 L-2766.3,-3453.6 L-2757.2,-3456.3 L-2746.8,-3460.8 L-2737.1,-3466.4 L-2726.8,-3476.4 L-2718.0,-3484.4 L-2707.0,-3491.9 L-2699.4,-3496.8 L-2688.2,-3500.8 L-2668.9,-3506.4 L-2657.5,-3509.6 L-2645.3,-3514.2 L-2634.7,-3519.7 L-2628.4,-3523.3 L-2623.4,-3528.5 L-2558.0,-3561.3 L-2555.5,-3562.7 L-2552.6,-3564.5 L-2549.6,-3566.8 L-2545.2,-3569.3 L-2542.3,-3570.7 L-2539.2,-3573.4 L-2536.8,-3575.9 L-2533.6,-3578.0 L-2530.2,-3580.4 L-2525.7,-3584.6 L-2519.3,-3585.1 L-2512.7,-3585.9 L-2508.4,-3587.3 L-2502.8,-3589.9 L-2495.9,-3593.0 L-2488.6,-3597.5 L-2484.5,-3601.4 L-2479.9,-3606.7 L-2477.0,-3611.6 L-2475.4,-3616.1 L-2475.3,-3619.3 L-2475.2,-3621.9 L-2473.6,-3632.3 L-2437.2,-3653.4 L-2373.4,-3690.2 L-2361.0,-3697.3 L-2252.8,-3759.7 L-2135.6,-3827.0 L-2085.7,-3855.6 L-2068.4,-3865.3 L-1923.5,-3949.5 L-1891.3,-3967.2 L-1891.8,-3968.3 L-1825.5,-4005.8 L-1800.0,-4020.1 L-1753.0,-4046.1 L-1752.5,-4045.4 L-1734.3,-4055.4 L-1690.1,-4080.1 L-1684.8,-4084.9 L-1640.0,-4117.7 L-1617.7,-4136.2 L-1597.2,-4153.5 L-1587.8,-4158.8 L-1566.6,-4179.8 L-1564.8,-4178.7 L-1562.0,-4179.0 L-1560.6,-4178.1 L-1530.8,-4213.0 L-1538.3,-4220.0 L-1537.3,-4221.8 L-1534.1,-4226.4 L-1525.5,-4237.3 L-1520.3,-4245.2 L-1516.2,-4251.7 L-1510.5,-4260.4 L-1505.0,-4269.4 L-1498.8,-4279.7 L-1492.4,-4290.9 L-1478.5,-4319.6 L-1474.2,-4328.7 L-1470.7,-4336.0 L-1468.3,-4341.5 L-1466.2,-4345.7 L-1461.8,-4356.7 L-1577.6,-4572.7 L-1579.8,-4576.8 L-1581.5,-4579.1 L-1582.7,-4580.8 L-1584.3,-4582.2 L-1585.8,-4583.2 L-1587.8,-4584.4 L-1589.9,-4585.2 L-1591.7,-4585.6 L-1593.5,-4585.8 L-1596.2,-4585.8 L-1599.3,-4585.3 L-1602.0,-4584.5 L-1604.8,-4583.1 L-1631.7,-4567.6 L-1666.8,-4547.5 L-1691.3,-4533.9 L-1736.0,-4509.3 L-1763.4,-4494.4 L-1762.4,-4492.7 L-1774.1,-4486.0 L-1812.4,-4466.2 L-1840.8,-4449.4 L-1857.5,-4440.1 L-1882.9,-4425.5 L-1885.8,-4423.5 L-1908.1,-4463.6 L-1864.3,-4487.6 L-1804.5,-4520.1 L-1763.8,-4542.7 L-1758.8,-4545.6 L-1759.5,-4546.7 L-1724.3,-4565.9 L-1705.6,-4576.2 L-1662.7,-4597.1 L-1654.5,-4601.3 L-1589.8,-4637.3 L-1565.5,-4650.7 L-1548.4,-4659.9 L-1528.2,-4671.5 L-1500.2,-4620.9 L-1544.2,-4596.8 L-1546.5,-4593.1 L-1547.4,-4589.2 L-1547.8,-4586.2 L-1547.9,-4583.6 L-1547.7,-4581.5 L-1546.9,-4578.6 L-1457.2,-4412.7 L-1455.5,-4410.2 L-1453.5,-4408.3 L-1451.5,-4407.0 L-1449.4,-4406.3 L-1447.1,-4406.0 L-1444.9,-4406.2 L-1443.2,-4406.7 L-1403.4,-4436.9 L-1384.7,-4452.6 L-1365.4,-4468.9 L-1358.1,-4475.6 L-1334.2,-4495.2 L-1333.1,-4495.2 L-1309.9,-4515.0 L-1309.8,-4516.2 L-1294.6,-4528.7 L-1282.6,-4538.5 L-1262.0,-4555.5 L-1260.1,-4553.2 L-1239.9,-4569.9 L-1229.7,-4578.4 L-1201.4,-4601.9 L-1181.7,-4618.3 L-1183.6,-4621.1 L-1177.1,-4626.6 L-1166.4,-4635.4 L-1159.8,-4641.2 L-1131.9,-4653.7 L-1113.0,-4660.3 L-1103.3,-4664.9 L-1076.1,-4665.1 L-1066.6,-4665.1 L-1046.5,-4664.1 L-1023.0,-4663.1 L-1021.3,-4664.7 L-1019.0,-4661.7 L-1011.6,-4661.3 L-944.3,-4655.5 L-936.4,-4653.8 L-929.5,-4652.7 L-913.9,-4651.4 L-884.8,-4650.0 L-878.4,-4649.9 L-872.4,-4650.1 L-849.1,-4651.0 L-837.1,-4651.6 L-825.2,-4652.7 L-806.9,-4654.6 L-807.0,-4653.5 L-792.5,-4656.0 L-778.8,-4658.6 L-768.3,-4660.5 L-754.5,-4670.9 L-752.9,-4668.7 L-751.2,-4666.3 L-629.6,-4505.5 L-336.1,-4404.3 L202.5,-4799.9 L349.3,-4905.6 L406.0,-5026.6 L315.8,-5144.8 L319.8,-5161.7 L335.6,-5166.0 L366.0,-5159.7 L387.6,-5167.8 L393.6,-5176.2 L392.3,-5183.5 L376.2,-5215.1 L375.1,-5226.9 L374.2,-5250.3 L371.4,-5272.9 L374.2,-5276.9 L383.3,-5281.3 L394.4,-5283.8 L402.4,-5292.4 L404.2,-5302.8 L397.4,-5322.9 L396.7,-5336.8 L398.9,-5352.6 L409.9,-5380.3 L407.6,-5393.1 L402.1,-5407.4 L401.9,-5426.8 L398.7,-5452.4 L392.9,-5468.4 L389.3,-5476.8 L391.7,-5480.5 L394.0,-5480.3 L394.6,-5481.8 L394.9,-5483.8 L394.8,-5485.8 L391.3,-5486.2 L389.1,-5489.3 L389.5,-5493.0 L386.5,-5493.8 L382.8,-5493.9 L382.3,-5493.0 L374.7,-5502.0 L373.1,-5504.8 L371.8,-5508.7 L370.9,-5512.5 L370.2,-5516.5 L369.9,-5520.5 L369.7,-5524.1 L369.7,-5527.8 L370.0,-5529.8 L371.6,-5534.8 L373.4,-5538.8 L375.7,-5542.7 L379.1,-5547.6 L382.6,-5552.3 L385.9,-5555.7 L390.0,-5558.8 L390.8,-5558.0 L425.9,-5584.8 L431.0,-5588.7 L430.0,-5590.2 L430.0,-5592.8 L438.7,-5599.6 L440.9,-5599.5 L443.0,-5598.0 L446.7,-5600.8 L482.7,-5628.1 L482.3,-5629.0 L486.5,-5632.1 L491.5,-5635.2 L495.0,-5636.8 L500.0,-5638.7 L504.3,-5639.9 L508.6,-5640.5 L513.3,-5640.9 L516.1,-5640.7 L520.0,-5640.1 L523.8,-5638.8 L526.6,-5637.4 L529.3,-5635.8 L531.3,-5634.3 L533.0,-5632.7 L535.5,-5630.3 L536.6,-5629.9 L538.4,-5629.9 L540.2,-5630.2 L545.7,-5634.1 L545.7,-5635.2 L546.3,-5636.0 L546.9,-5637.1 L546.8,-5638.4 L546.5,-5639.5 L545.7,-5640.5 L541.8,-5644.4 L538.7,-5646.9 L535.1,-5648.9 L529.2,-5651.5 L524.1,-5653.5 L533.0,-5658.1 L543.9,-5665.7 L557.4,-5667.4 L570.9,-5666.5 L579.7,-5670.0 L587.4,-5681.0 L616.4,-5732.9 L628.2,-5754.3 L637.5,-5777.1 L639.1,-5781.9 L652.9,-5824.2 L655.1,-5828.3 L657.7,-5832.4 L690.1,-5872.5 L697.0,-5879.7 L702.1,-5884.1 L774.7,-5946.3 L778.7,-5949.0 L791.1,-5955.8 L806.0,-5964.2 L852.4,-5988.5 L953.5,-6042.8 L955.9,-6040.9 L957.8,-6040.2 L959.5,-6039.7 L961.3,-6040.0 L963.2,-6040.4 L968.6,-6041.5 L974.9,-6042.9 L980.6,-6044.2 L986.5,-6045.3 L989.7,-6046.0 L994.1,-6047.3 L999.1,-6049.4 L1011.2,-6056.0 L1015.6,-6058.4 L1017.9,-6059.8 L1020.2,-6060.8 L1029.6,-6064.8 L1039.9,-6068.8 L1052.9,-6074.4 L1068.2,-6080.7 L1068.8,-6081.0 L1070.1,-6081.1 L1071.8,-6081.6 L1074.2,-6083.4 L1076.9,-6084.4 L1079.9,-6085.9 L1085.5,-6089.1 L1087.5,-6091.1 L1090.8,-6093.2 L1090.5,-6093.8 L1091.9,-6095.5 L1093.7,-6097.4 L1096.7,-6098.9 L1099.2,-6099.9 L1101.9,-6100.9 L1104.4,-6102.2 L1109.3,-6105.3 L1110.7,-6106.7 L1112.1,-6108.9 L1112.7,-6110.5 L1112.9,-6112.1 L1112.7,-6113.6 L1113.0,-6115.1 L1099.0,-6132.0 L1143.1,-6157.9 L1164.0,-6169.0 L1168.1,-6170.3 L1174.5,-6169.1 L1181.6,-6159.2 L1184.8,-6156.4 L1187.7,-6155.0 L1190.4,-6154.4 L1192.9,-6154.5 L1230.7,-6170.1 L1241.0,-6175.1 L1250.6,-6180.4 L1266.1,-6188.6 L1269.3,-6189.7 L1484.1,-6279.0 L1551.3,-6311.3 L1851.8,-6455.6 L8864.9,-6513.6 L8864.9,3522.0 L-6122.8,3522.0 L-6122.8,3095.5 Z" fill="#add7e1" stroke="none"><title>Biscayne Bay</title></path></svg>