<svg xmlns="http://www.w3.org/2000/svg" width="256" height="256" viewBox="0 0 256 256"><rect width="256" height="256" fill="#f1efe7"/><path d="M176.8,-25.5 L178.1,-0.9 L168.7,-0.4 L159.2,0.1 L158.1,-21.6 L155.7,-21.5 L155.6,-22.9 L155.6,-24.3 L176.8,-25.5 Z" fill="#d6d2c9" stroke="#bab6ad" stroke-width="0.4"></path><path d="M98.3,117.2 L98.5,124.9 L113.7,124.5 L114.2,144.2 L90.7,144.9 L90.7,142.4 L77.1,142.8 L76.4,117.8 L98.3,117.2 Z" fill="#d6d2c9" stroke="#bab6ad" stroke-width="0.4"></path><path d="M34.0,109.5 L34.4,118.5 L39.9,118.2 L40.3,127.5 L38.6,127.5 L39.4,145.1 L27.4,145.6 L27.5,148.0 L17.6,148.5 L15.8,110.4 L34.0,109.5 Z" fill="#d6d2c9" stroke="#bab6ad" stroke-width="0.4"></path><path d="M2.6,150.3 L2.8,153.1 L-20.6,154.2 L-20.8,151.8 L-33.9,152.4 L-34.3,145.2 L-34.6,137.9 L11.4,135.7 L12.0,149.9 L2.6,150.3 Z" fill="#d6d2c9" stroke="#bab6ad" stroke-width="0.4"></path><path d="M0.5,8.6 L-28.7,10.2 L-28.8,9.1 L-39.6,9.7 L-39.9,3.2 L-41.5,2.1 L-42.1,0.2 L-40.2,-2.6 L-40.6,-8.8 L-0.5,-11.0 L-0.2,-4.2 L1.7,-1.6 L0.1,1.1 L0.5,8.6 Z" fill="#d6d2c9" stroke="#bab6ad" stroke-width="0.4"></path><path d="M-9.7,101.3 L-34.9,102.4 L-35.4,91.1 L-32.2,91.0 L-33.4,60.7 L9.8,59.7 L10.6,78.8 L-10.6,79.6 L-9.7,101.3 Z" fill="#d6d2c9" stroke="#bab6ad" stroke-width="0.4"></path><path d="M142.7,48.2 L143.2,58.2 L147.9,58.0 L147.9,59.4 L154.6,59.0 L154.4,54.7 L170.0,54.0 L171.3,85.6 L159.8,86.1 L159.2,73.8 L155.7,73.9 L156.0,80.0 L139.9,80.8 L139.7,74.9 L133.9,75.2 L132.7,48.6 L142.7,48.2 Z" fill="#d6d2c9" stroke="#bab6ad" stroke-width="0.4"></path><path d="M108.7,55.9 L108.8,57.9 L113.8,57.7 L113.8,58.8 L121.6,58.5 L122.0,66.1 L123.0,66.1 L124.0,86.9 L100.7,88.0 L99.2,56.3 L108.7,55.9 Z" fill="#d6d2c9" stroke="#bab6ad" stroke-width="0.4"></path><path d="M137.0,142.5 L125.8,143.0 L124.8,118.2 L159.2,116.8 L159.9,134.8 L145.9,135.4 L146.1,138.9 L136.9,139.3 L137.0,142.5 Z" fill="#d6d2c9" stroke="#bab6ad" stroke-width="0.4"></path><path d="M54.2,147.0 L46.1,147.4 L44.4,116.1 L68.7,114.8 L70.1,142.3 L54.0,143.1 L54.2,147.0 Z" fill="#d6d2c9" stroke="#bab6ad" stroke-width="0.4"></path><path d="M95.1,52.1 L96.7,83.9 L87.8,84.4 L87.4,75.6 L80.3,76.0 L80.8,84.8 L71.4,85.3 L69.7,52.6 L95.1,52.1 Z" fill="#d6d2c9" stroke="#bab6ad" stroke-width="0.4"></path><path d="M213.6,51.3 L213.7,53.2 L222.4,52.8 L222.8,62.4 L223.2,71.9 L208.5,72.5 L208.7,77.6 L192.9,78.2 L192.5,69.6 L185.8,69.9 L185.5,62.2 L185.2,54.6 L197.8,54.1 L197.7,51.9 L205.7,51.6 L213.6,51.3 Z" fill="#d6d2c9" stroke="#bab6ad" stroke-width="0.4"></path><path d="M232.6,100.6 L233.0,108.6 L251.1,107.9 L251.4,114.6 L268.9,113.9 L269.8,133.8 L251.2,134.6 L251.3,137.7 L241.3,138.1 L241.2,134.9 L233.0,135.3 L233.1,137.6 L221.9,138.1 L220.3,101.1 L232.6,100.6 Z" fill="#d6d2c9" stroke="#bab6ad" stroke-width="0.4"></path><path d="M47.3,57.0 L47.6,62.9 L53.3,62.6 L53.2,59.2 L60.2,58.9 L60.5,66.3 L61.5,66.2 L62.6,88.5 L43.2,89.4 L43.1,87.5 L40.4,87.6 L40.4,89.1 L34.7,89.3 L28.9,89.6 L28.6,83.4 L27.1,83.4 L26.5,71.9 L29.7,71.7 L29.6,69.5 L26.1,69.6 L25.8,63.8 L25.6,58.1 L47.3,57.0 Z" fill="#d6d2c9" stroke="#bab6ad" stroke-width="0.4"></path><path d="M-7.0,130.5 L-7.0,132.0 L-11.5,132.2 L-11.6,130.8 L-33.6,131.7 L-34.4,112.2 L6.2,110.4 L7.0,129.9 L-7.0,130.5 Z" fill="#d6d2c9" stroke="#bab6ad" stroke-width="0.4"></path><path d="M84.6,98.5 L74.2,99.0 L73.8,90.9 L84.2,90.4 L84.6,98.5 Z" fill="#d6d2c9" stroke="#bab6ad" stroke-width="0.4"></path><path d="M267.0,47.8 L268.1,83.9 L232.1,85.0 L231.4,61.8 L232.9,61.8 L232.9,60.1 L241.2,59.8 L241.3,61.3 L244.4,61.3 L244.3,59.3 L250.2,59.1 L250.3,60.8 L252.3,60.7 L252.0,48.3 L267.0,47.8 Z" fill="#d6d2c9" stroke="#bab6ad" stroke-width="0.4"></path><path d="M192.5,116.0 L192.8,121.3 L209.1,120.4 L210.1,139.5 L189.1,140.6 L189.0,137.6 L174.1,138.3 L173.7,130.4 L173.3,122.4 L181.0,122.0 L180.7,116.6 L192.5,116.0 Z" fill="#d6d2c9" stroke="#bab6ad" stroke-width="0.4"></path><path d="M25.3,201.0 L27.7,254.7 L60.1,253.2 L57.7,199.6 L25.3,201.0 Z" fill="#d6d2c9" stroke="#bab6ad" stroke-width="0.4"></path><path d="M81.7,197.9 L84.3,251.8 L116.9,250.2 L114.3,196.3 L81.7,197.9 Z" fill="#d6d2c9" stroke="#bab6ad" stroke-width="0.4"></path><path d="M142.4,195.1 L145.0,249.0 L177.2,247.5 L174.7,193.5 L142.4,195.1 Z" fill="#d6d2c9" stroke="#bab6ad" stroke-width="0.4"></path><path d="M198.8,192.1 L201.3,245.2 L233.3,243.7 L230.8,190.6 L198.8,192.1 Z" fill="#d6d2c9" stroke="#bab6ad" stroke-width="0.4"></path><path d="M251.8,189.8 L253.2,219.6 L272.2,218.7 L270.9,188.9 L251.8,189.8 Z" fill="#d6d2c9" stroke="#bab6ad" stroke-width="0.4"></path><path d="M195.0,254.3 L195.8,270.3 L203.7,269.9 L204.9,294.3 L213.2,293.9 L213.0,289.6 L233.5,288.6 L233.8,293.2 L242.9,292.8 L241.2,258.4 L242.4,258.4 L242.0,251.9 L195.0,254.3 Z" fill="#d6d2c9" stroke="#bab6ad" stroke-width="0.4"></path><path d="M138.1,258.1 L140.5,298.7 L178.9,296.5 L177.4,270.8 L184.8,270.3 L184.0,255.4 L138.1,258.1 Z" fill="#d6d2c9" stroke="#bab6ad" stroke-width="0.4"></path><path d="M-30.7,207.3 L-30.0,221.5 L-15.5,220.8 L-14.7,237.9 L-30.4,238.7 L-30.1,243.9 L-28.3,243.8 L-27.9,252.1 L5.5,250.5 L3.8,216.6 L-7.8,217.2 L-8.4,206.2 L-30.7,207.3 Z" fill="#d6d2c9" stroke="#bab6ad" stroke-width="0.4"></path><path d="M137.5,304.8 L267.6,298.7 L272.4,298.2 L276.3,296.5 L278.7,294.3 L280.7,292.0 L281.8,288.4 L278.3,190.6 L277.4,187.9 L276.0,185.5 L274.0,183.7 L271.8,182.6 L269.0,181.8 L266.7,181.7 L-33.6,196.4 L-38.0,197.9 L-41.4,199.8 L-43.3,201.3 L-44.8,203.2 L-46.0,205.1 L-46.4,206.9 L-46.9,210.6 L-43.3,301.2 L-42.6,305.0" fill="none" stroke="#cf828d" stroke-width="1.5" stroke-dasharray="1.6 3.0" opacity="0.62" stroke-linecap="round" stroke-linejoin="round"></path><path d="M-48.2,158.1 L-47.4,159.9 L-45.9,161.9 L-43.7,164.1 L-41.2,165.3 L-38.6,165.6 L-35.3,165.6 L-2.8,164.3 L262.3,150.3 L265.5,150.0 L268.1,149.5 L271.0,148.3 L273.8,146.0 L275.7,143.7 L277.5,140.6 L278.8,136.4 L279.1,133.0 L274.2,48.4 L273.9,45.2 L273.1,42.0 L272.2,39.3 L270.3,36.8 L267.8,35.2 L265.3,34.3 L261.7,33.8 L261.2,33.8 L21.9,45.5 L10.3,46.3 L-9.1,47.5 L-38.9,49.1 L-43.2,50.0 L-46.4,51.2 L-48.5,52.5" fill="none" stroke="#cf828d" stroke-width="1.5" stroke-dasharray="1.6 3.0" opacity="0.62" stroke-linecap="round" stroke-linejoin="round"></path><path d="M-49.8,16.0 L-46.3,17.6 L-42.8,17.9 L-12.7,16.7 L256.1,2.6 L259.1,2.3 L260.0,2.2 L262.1,1.6 L266.5,-0.4 L268.7,-2.1 L270.4,-4.1 L271.4,-6.5 L271.9,-9.6 L271.7,-17.0 L268.7,-101.7" fill="none" stroke="#cf828d" stroke-width="1.5" stroke-dasharray="1.6 3.0" opacity="0.62" stroke-linecap="round" stroke-linejoin="round"></path><path d="M306.1,165.3 L303.8,165.5 L289.4,166.4 L277.6,167.0 L272.5,167.2 L-48.4,182.3" fill="none" stroke="#cec8bb" stroke-width="4.8" stroke-linecap="round" stroke-linejoin="round"/><path d="M306.1,165.3 L303.8,165.5 L289.4,166.4 L277.6,167.0 L272.5,167.2 L-48.4,182.3" fill="none" stroke="#ffffff" stroke-width="3.7" stroke-linecap="round" stroke-linejoin="round"><title>Malaga Avenue</title></path><path d="M258.1,18.4 L-54.4,35.0" fill="none" stroke="#cec8bb" stroke-width="4.8" stroke-linecap="round" stroke-linejoin="round"/><path d="M258.1,18.4 L-54.4,35.0" fill="none" stroke="#ffffff" stroke-width="3.7" stroke-linecap="round" stroke-linejoin="round"><title>Catalonia Avenue</title></path><text x="128.0" y="174.0" transform="rotate(-2.7 128.0 174.0)" text-anchor="middle" dominant-baseline="central" font-family="Arial, sans-serif" font-size="8.3" textLength="69.1" lengthAdjust="spacing" font-weight="650" paint-order="stroke" stroke="#fffaf0" stroke-width="2.05" stroke-linejoin="round" fill="#695f54">Malaga Avenue</text><text x="128.0" y="25.3" transform="rotate(-3.0 128.0 25.3)" text-anchor="middle" dominant-baseline="central" font-family="Arial, sans-serif" font-size="8.3" textLength="85.0" lengthAdjust="spacing" font-weight="650" paint-order="stroke" stroke="#fffaf0" stroke-width="2.05" stroke-linejoin="round" fill="#695f54">Catalonia Avenue</text><text x="94.9" y="132.3" text-anchor="middle" font-family="Arial, sans-serif" font-size="6.5" textLength="18.0" lengthAdjust="spacing" font-weight="500" paint-order="stroke" stroke="#f3f5ee" stroke-width="1.55" stroke-linejoin="round" fill="#6f777a">527</text><text x="31.5" y="129.9" text-anchor="middle" font-family="Arial, sans-serif" font-size="6.5" textLength="18.0" lengthAdjust="spacing" font-weight="500" paint-order="stroke" stroke="#f3f5ee" stroke-width="1.55" stroke-linejoin="round" fill="#6f777a">533</text><text x="150.6" y="66.9" text-anchor="middle" font-family="Arial, sans-serif" font-size="6.5" textLength="18.0" lengthAdjust="spacing" font-weight="500" paint-order="stroke" stroke="#f3f5ee" stroke-width="1.55" stroke-linejoin="round" fill="#6f777a">516</text><text x="142.0" y="133.6" text-anchor="middle" font-family="Arial, sans-serif" font-size="6.5" textLength="18.0" lengthAdjust="spacing" font-weight="500" paint-order="stroke" stroke="#f3f5ee" stroke-width="1.55" stroke-linejoin="round" fill="#6f777a">519</text><text x="56.2" y="135.1" text-anchor="middle" font-family="Arial, sans-serif" font-size="6.5" textLength="18.0" lengthAdjust="spacing" font-weight="500" paint-order="stroke" stroke="#f3f5ee" stroke-width="1.55" stroke-linejoin="round" fill="#6f777a">529</text><text x="83.6" y="74.3" text-anchor="middle" font-family="Arial, sans-serif" font-size="6.5" textLength="18.0" lengthAdjust="spacing" font-weight="500" paint-order="stroke" stroke="#f3f5ee" stroke-width="1.55" stroke-linejoin="round" fill="#6f777a">526</text><text x="203.7" y="62.2" text-anchor="middle" font-family="Arial, sans-serif" font-size="6.5" textLength="18.0" lengthAdjust="spacing" font-weight="500" paint-order="stroke" stroke="#f3f5ee" stroke-width="1.55" stroke-linejoin="round" fill="#6f777a">510</text><text x="241.0" y="124.1" text-anchor="middle" font-family="Arial, sans-serif" font-size="6.5" textLength="18.0" lengthAdjust="spacing" font-weight="500" paint-order="stroke" stroke="#f3f5ee" stroke-width="1.55" stroke-linejoin="round" fill="#6f777a">501</text><text x="40.7" y="73.9" text-anchor="middle" font-family="Arial, sans-serif" font-size="6.5" textLength="18.0" lengthAdjust="spacing" font-weight="500" paint-order="stroke" stroke="#f3f5ee" stroke-width="1.55" stroke-linejoin="round" fill="#6f777a">530</text><text x="241.0" y="62.2" text-anchor="middle" font-family="Arial, sans-serif" font-size="6.5" textLength="18.0" lengthAdjust="spacing" font-weight="500" paint-order="stroke" stroke="#f3f5ee" stroke-width="1.55" stroke-linejoin="round" fill="#6f777a">500</text><text x="187.8" y="127.7" text-anchor="middle" font-family="Arial, sans-serif" font-size="6.5" textLength="18.0" lengthAdjust="spacing" font-weight="500" paint-order="stroke" stroke="#f3f5ee" stroke-width="1.55" stroke-linejoin="round" fill="#6f777a">511</text><text x="230.4" y="223.4" text-anchor="middle" font-family="Arial, sans-serif" font-size="6.5" textLength="18.0" lengthAdjust="spacing" font-weight="500" paint-order="stroke" stroke="#f3f5ee" stroke-width="1.55" stroke-linejoin="round" fill="#6f777a">506</text><text x="208.7" y="227.3" text-anchor="middle" font-family="Arial, sans-serif" font-size="6.5" textLength="18.0" lengthAdjust="spacing" font-weight="500" paint-order="stroke" stroke="#f3f5ee" stroke-width="1.55" stroke-linejoin="round" fill="#6f777a">508</text><text x="90.3" y="229.1" text-anchor="middle" font-family="Arial, sans-serif" font-size="6.5" textLength="18.0" lengthAdjust="spacing" font-weight="500" paint-order="stroke" stroke="#f3f5ee" stroke-width="1.55" stroke-linejoin="round" fill="#6f777a">522</text><text x="174.9" y="214.2" text-anchor="middle" font-family="Arial, sans-serif" font-size="6.5" textLength="18.0" lengthAdjust="spacing" font-weight="500" paint-order="stroke" stroke="#f3f5ee" stroke-width="1.55" stroke-linejoin="round" fill="#6f777a">512</text><text x="132.2" y="216.0" text-anchor="middle" font-family="Arial, sans-serif" font-size="6.5" textLength="18.0" lengthAdjust="spacing" font-weight="500" paint-order="stroke" stroke="#f3f5ee" stroke-width="1.55" stroke-linejoin="round" fill="#6f777a">516</text><text x="41.6" y="221.2" text-anchor="middle" font-family="Arial, sans-serif" font-size="6.5" textLength="18.0" lengthAdjust="spacing" font-weight="500" paint-order="stroke" stroke="#f3f5ee" stroke-width="1.55" stroke-linejoin="round" fill="#6f777a">530</text></svg>