<svg xmlns="http://www.w3.org/2000/svg" width="256" height="256" viewBox="0 0 256 256"><rect width="256" height="256" fill="#f1efe7"/><path d="M-770.7,436.6 L-717.0,414.2 L-700.2,406.2 L-625.1,370.1 L-610.9,383.7 L-609.7,384.9 L-583.4,362.4 L-577.1,357.6 L-566.6,348.1 L-507.6,294.0 L-460.0,239.5 L-458.2,236.1 L-456.4,234.1 L-453.6,230.9 L-450.8,227.7 L-449.6,226.4 L-468.4,202.1 L-443.6,187.2 L-430.1,205.1 L-411.1,183.3 L-427.2,162.0 L-407.2,141.2 L-391.8,161.4 L-374.2,141.3 L-366.7,136.4 L-329.9,112.5 L-311.7,100.4 L-289.8,86.0 L-279.4,79.2 L-253.2,62.3 L-260.0,53.4 L-272.0,37.2 L-240.8,17.4 L-229.4,11.5 L-228.6,10.9 L-222.5,6.3 L-201.2,-5.2 L-199.7,-7.5 L-193.7,-11.6 L-190.4,-16.4 L-189.5,-17.0 L-184.3,-19.1 L-172.5,-23.3 L-164.4,-26.8 L-135.9,-40.3 L-135.5,-39.3 L-111.6,-49.6 L-101.8,-37.0 L-80.1,-51.6 L-77.0,-53.7 L-76.7,-53.9 L-76.3,-54.3 L-75.9,-55.1 L-75.6,-55.9 L-75.5,-56.8 L-75.5,-57.6 L-75.6,-58.3 L-75.7,-59.1 L-75.7,-59.8 L-75.7,-60.3 L-75.6,-60.9 L-75.2,-61.8 L-74.9,-62.4 L-74.3,-63.3 L-73.6,-64.1 L-70.4,-65.3 L-67.8,-66.3 L-64.4,-67.4 L-62.9,-67.9 L-60.0,-68.8 L-58.1,-69.5 L-55.3,-70.6 L-51.6,-72.2 L-47.7,-74.1 L-45.5,-75.1 L-42.8,-76.5 L-40.3,-77.9 L-37.8,-79.4 L-35.2,-81.1 L-34.4,-81.7 L-29.2,-85.6 L-24.8,-88.9 L-20.6,-92.6 L-16.6,-96.3 L-13.7,-99.5 L-10.9,-103.0 L-7.4,-107.5 L-4.2,-112.0 L-0.5,-117.8 L1.9,-122.3 L3.4,-125.1 L5.6,-129.9 L7.5,-134.4 L9.2,-139.2 L10.5,-143.4 L12.0,-150.3 L13.1,-156.4 L13.6,-161.7 L14.1,-167.9 L14.2,-174.5 L13.8,-180.6 L12.7,-188.6 L11.6,-194.1 L10.4,-199.2 L8.5,-205.1 L7.0,-209.5 L5.2,-214.4 L3.4,-218.5 L2.3,-221.1 L1.8,-223.0 L1.8,-224.5 L1.9,-225.8 L2.4,-227.0 L3.2,-228.0 L4.3,-228.5 L5.4,-228.7 L8.4,-227.9 L16.9,-225.9 L19.6,-289.6 L30.6,-403.2 L18.7,-406.0 L17.4,-409.6 L17.5,-414.7 L19.1,-426.3 L21.3,-429.0 L23.3,-436.5 L36.0,-433.6 L42.9,-506.2 L44.9,-526.3 L40.9,-527.3 L43.3,-536.9 L35.2,-538.8 L36.2,-544.7 L37.7,-548.6 L39.5,-553.1 L42.4,-559.4 L45.7,-558.7 L50.0,-604.4 L51.1,-632.1 L51.2,-637.2 L53.6,-654.8 L58.3,-698.7 L89.5,-780.1 L96.6,-802.2 L183.3,-835.5 L191.7,-838.9 L193.2,-839.7 L194.4,-840.8 L195.6,-842.2 L196.6,-844.0 L197.3,-845.6 L197.4,-848.1 L197.3,-851.2 L196.2,-890.1 L195.7,-897.6 L195.6,-902.8 L195.4,-912.8 L195.2,-916.0 L194.8,-918.6 L194.3,-921.0 L193.6,-923.4 L192.3,-926.2 L190.5,-929.2 L188.8,-931.6 L187.4,-933.9 L186.1,-936.9 L184.9,-939.8 L184.5,-942.2 L184.1,-944.8 L183.9,-947.4 L184.0,-950.0 L184.3,-953.0 L185.0,-955.9 L185.9,-958.5 L186.9,-960.9 L188.2,-963.2 L189.7,-966.0 L190.7,-968.5 L191.5,-971.7 L193.2,-974.2 L192.6,-996.5 L191.8,-997.8 L191.5,-1012.9 L191.1,-1030.8 L191.4,-1033.3 L192.2,-1035.8 L194.2,-1039.7 L207.6,-1068.5 L207.9,-1069.0 L210.2,-1074.1 L212.4,-1079.0 L214.9,-1084.0 L217.4,-1089.1 L218.6,-1091.6 L231.7,-1118.6 L245.8,-1148.4 L276.2,-1210.1 L257.9,-1230.6 L243.0,-1198.8 L230.1,-1171.4 L228.2,-1167.5 L224.2,-1159.3 L216.3,-1160.0 L214.1,-1160.1 L213.3,-1159.4 L214.3,-1158.5 L210.3,-1154.8 L207.1,-1151.9 L206.5,-1139.1 L205.2,-1136.6 L201.3,-1136.7 L200.7,-1137.0 L149.6,-1158.1 L148.5,-1158.6 L147.3,-1159.4 L145.5,-1160.8 L144.1,-1162.1 L142.9,-1163.5 L141.7,-1165.0 L140.8,-1166.5 L140.1,-1167.9 L139.5,-1169.4 L139.2,-1170.5 L138.9,-1171.8 L138.7,-1173.3 L138.5,-1175.3 L138.5,-1178.2 L138.1,-1188.2 L139.5,-1188.2 L139.3,-1193.5 L139.1,-1202.1 L140.4,-1202.1 L140.3,-1208.1 L138.8,-1208.0 L138.2,-1232.9 L139.5,-1232.9 L139.3,-1238.8 L138.0,-1238.7 L137.4,-1257.1 L144.2,-1264.4 L152.8,-1264.7 L159.2,-1264.9 L167.7,-1265.2 L175.8,-1265.4 L183.1,-1265.7 L186.3,-1265.8 L186.2,-1268.7 L186.1,-1271.6 L185.6,-1281.2 L185.4,-1299.4 L185.2,-1299.8 L185.2,-1301.6 L185.7,-1301.6 L184.4,-1345.6 L183.3,-1387.0 L183.1,-1388.4 L183.0,-1390.7 L165.0,-1390.1 L153.0,-1391.1 L63.2,-1388.0 L63.1,-1388.8 L63.0,-1392.6 L20.4,-1391.1 L20.3,-1398.2 L14.7,-1399.5 L13.6,-1429.8 L179.4,-1435.5 L182.1,-1439.3 L182.0,-1450.0 L181.8,-1459.3 L181.6,-1465.1 L181.4,-1470.8 L168.2,-1477.0 L167.7,-1490.8 L181.2,-1497.5 L180.0,-1529.4 L179.6,-1530.9 L166.2,-1537.2 L165.8,-1554.3 L178.5,-1560.8 L172.9,-1630.1 L174.4,-1660.9 L175.1,-1711.1 L175.1,-1765.7 L176.3,-1773.4 L176.3,-1777.1 L175.1,-1781.5 L176.4,-1781.5 L176.4,-1785.6 L177.1,-1888.3 L177.0,-1892.9 L175.6,-1892.9 L175.6,-1911.8 L174.8,-1913.0 L173.5,-1932.5 L176.1,-1950.3 L175.8,-1971.9 L174.9,-1977.0 L176.2,-1993.0 L175.3,-2012.3 L173.1,-2033.0 L168.8,-2066.5 L170.8,-2075.7 L169.9,-2084.7 L162.3,-2091.2 L151.0,-2091.1 L134.0,-2088.9 L122.8,-2088.9 L112.7,-2092.6 L99.5,-2101.7 L99.5,-2118.0 L99.1,-2138.1 L100.4,-2154.8 L104.8,-2167.8 L178.5,-2169.2 L180.2,-2273.7 L180.2,-2424.1 L179.4,-2478.7 L4157.4,-4121.6 L4157.4,4932.9 L-770.7,4932.9 L-770.7,436.6 Z" fill="#add7e1" stroke="none"><title>Biscayne Bay</title></path><path d="M-1.0,-1.0 L257.0,-1.0 L257.0,257.0 L-1.0,257.0 L-1.0,-1.0 Z" fill="#add7e1" stroke="none" fill-rule="evenodd"><title>Biscayne Bay</title></path><path d="M213.8,-331.1 L-500.3,4351.2" fill="none" stroke="#6fb5c7" stroke-width="1.2" stroke-dasharray="5 7" opacity="0.34" stroke-linecap="round" stroke-linejoin="round"><title>Atlantic Intracoastal Waterway</title></path></svg>