<svg xmlns="http://www.w3.org/2000/svg" width="256" height="256" viewBox="0 0 256 256"><rect width="256" height="256" fill="#f1efe7"/><path d="M-7946.7,7378.3 L-7731.9,7289.0 L-7664.7,7256.7 L-7364.2,7112.4 L-7307.8,7167.0 L-7302.9,7171.7 L-7197.5,7081.5 L-7172.4,7062.4 L-7130.5,7024.6 L-6894.4,6807.8 L-6703.9,6590.2 L-6696.6,6576.3 L-6689.6,6568.4 L-6678.5,6555.7 L-6667.2,6542.8 L-6662.6,6537.5 L-6737.7,6440.4 L-6638.3,6380.8 L-6584.4,6452.5 L-6508.2,6365.3 L-6572.7,6279.9 L-6492.8,6196.6 L-6431.3,6277.6 L-6360.7,6197.2 L-6330.6,6177.5 L-6183.4,6082.0 L-6110.7,6033.7 L-6023.1,5976.1 L-5981.7,5948.9 L-5876.8,5881.2 L-5903.8,5845.7 L-5952.1,5781.0 L-5827.2,5701.6 L-5781.7,5678.1 L-5778.2,5675.6 L-5754.2,5657.1 L-5668.6,5611.3 L-5662.7,5602.1 L-5638.7,5585.6 L-5625.7,5566.6 L-5622.0,5563.8 L-5601.1,5555.7 L-5553.9,5538.8 L-5521.6,5524.6 L-5407.5,5471.0 L-5406.1,5474.7 L-5310.4,5433.8 L-5271.3,5483.9 L-5184.2,5425.8 L-5171.8,5417.3 L-5170.6,5416.3 L-5169.4,5414.7 L-5167.5,5411.4 L-5166.5,5408.3 L-5165.9,5404.6 L-5166.0,5401.6 L-5166.4,5398.7 L-5166.8,5395.4 L-5166.9,5392.9 L-5166.7,5390.8 L-5166.3,5388.6 L-5164.7,5384.6 L-5163.6,5382.4 L-5161.1,5378.6 L-5158.5,5375.8 L-5145.8,5370.7 L-5135.2,5366.7 L-5121.7,5362.3 L-5115.4,5360.6 L-5104.2,5356.9 L-5096.3,5354.1 L-5085.4,5349.6 L-5070.6,5343.1 L-5054.6,5335.6 L-5046.0,5331.4 L-5035.2,5325.9 L-5025.1,5320.3 L-5015.0,5314.3 L-5004.7,5307.6 L-5001.5,5305.4 L-4980.8,5289.6 L-4963.4,5276.2 L-4946.4,5261.8 L-4930.5,5246.8 L-4919.0,5233.9 L-4907.6,5220.0 L-4893.6,5202.0 L-4880.8,5184.0 L-4866.1,5160.9 L-4856.5,5143.0 L-4850.5,5131.6 L-4841.6,5112.3 L-4834.1,5094.4 L-4827.4,5075.1 L-4822.0,5058.2 L-4816.1,5030.8 L-4811.8,5006.3 L-4809.5,4985.3 L-4807.5,4960.5 L-4807.3,4934.0 L-4808.9,4909.5 L-4813.1,4877.5 L-4817.5,4855.7 L-4822.5,4835.1 L-4829.9,4811.7 L-4836.2,4793.8 L-4843.4,4774.3 L-4850.2,4758.1 L-4854.8,4747.6 L-4856.7,4739.9 L-4857.0,4734.0 L-4856.4,4728.7 L-4854.3,4724.1 L-4851.1,4720.2 L-4846.9,4718.0 L-4842.4,4717.4 L-4830.3,4720.3 L-4796.6,4728.4 L-4785.4,4473.7 L-4741.7,4019.1 L-4789.2,4007.9 L-4794.4,3993.6 L-4794.2,3973.1 L-4787.6,3926.6 L-4778.6,3916.1 L-4770.6,3885.9 L-4720.1,3897.6 L-4692.3,3607.1 L-4684.6,3526.7 L-4700.3,3522.8 L-4690.8,3484.4 L-4723.1,3476.7 L-4719.0,3453.2 L-4713.3,3437.7 L-4706.2,3419.6 L-4694.2,3394.3 L-4681.3,3397.2 L-4663.9,3214.5 L-4659.8,3103.7 L-4659.0,3083.3 L-4649.6,3012.8 L-4630.9,2837.1 L-4506.1,2511.7 L-4477.6,2423.0 L-4130.9,2290.0 L-4097.0,2276.4 L-4091.1,2273.2 L-4086.5,2269.0 L-4081.4,2263.1 L-4077.5,2256.2 L-4074.9,2249.4 L-4074.3,2239.5 L-4074.8,2227.2 L-4079.4,2071.7 L-4081.1,2041.6 L-4081.6,2020.9 L-4082.3,1980.7 L-4083.1,1968.1 L-4084.6,1957.5 L-4086.7,1948.1 L-4089.8,1938.5 L-4094.7,1927.2 L-4101.9,1915.1 L-4108.9,1905.5 L-4114.3,1896.4 L-4119.8,1884.3 L-4124.4,1872.7 L-4126.2,1863.2 L-4127.6,1852.7 L-4128.3,1842.2 L-4128.0,1832.0 L-4126.8,1820.1 L-4124.0,1808.4 L-4120.3,1798.0 L-4116.4,1788.5 L-4111.4,1779.3 L-4105.3,1768.1 L-4101.3,1758.0 L-4097.8,1745.1 L-4091.4,1735.3 L-4093.6,1646.1 L-4096.9,1640.9 L-4097.9,1580.3 L-4099.6,1508.8 L-4098.4,1498.9 L-4095.2,1488.8 L-4087.2,1473.0 L-4033.7,1357.9 L-4032.6,1356.0 L-4023.2,1335.5 L-4014.3,1316.1 L-4004.3,1296.1 L-3994.5,1275.5 L-3989.7,1265.5 L-3937.1,1157.6 L-3880.9,1038.4 L-3759.3,791.6 L-3832.4,709.7 L-3892.0,836.7 L-3943.5,946.6 L-3951.3,962.2 L-3967.2,994.7 L-3999.0,992.0 L-4007.7,991.5 L-4010.8,994.3 L-4006.6,998.1 L-4022.9,1012.6 L-4035.8,1024.5 L-4038.2,1075.4 L-4043.0,1085.6 L-4058.6,1085.0 L-4061.2,1084.1 L-4265.6,999.7 L-4270.0,997.4 L-4274.7,994.4 L-4282.1,988.8 L-4287.8,983.4 L-4292.6,978.2 L-4297.3,971.8 L-4300.9,966.2 L-4303.7,960.4 L-4305.9,954.3 L-4307.4,950.1 L-4308.5,945.0 L-4309.3,939.0 L-4310.1,930.8 L-4310.1,919.1 L-4311.5,879.4 L-4305.9,879.1 L-4306.7,858.1 L-4307.6,823.5 L-4302.4,823.4 L-4302.8,799.8 L-4308.7,799.9 L-4311.4,700.5 L-4305.8,700.2 L-4306.7,676.9 L-4312.1,677.1 L-4314.4,603.6 L-4287.4,574.5 L-4252.9,573.3 L-4227.2,572.4 L-4193.3,571.3 L-4160.7,570.3 L-4131.5,569.3 L-4118.8,568.7 L-4119.4,557.4 L-4119.6,545.6 L-4121.5,507.3 L-4122.2,434.2 L-4123.2,432.9 L-4123.4,425.7 L-4121.3,425.6 L-4126.4,249.5 L-4130.8,83.8 L-4131.5,78.6 L-4131.9,69.0 L-4204.1,71.6 L-4252.1,67.5 L-4611.4,80.0 L-4611.5,76.8 L-4612.2,61.5 L-4782.6,67.5 L-4782.9,39.2 L-4805.4,34.1 L-4809.4,-87.0 L-4146.6,-110.0 L-4135.6,-125.1 L-4136.0,-168.1 L-4136.8,-205.3 L-4137.4,-228.6 L-4138.3,-251.3 L-4191.0,-276.1 L-4193.1,-331.2 L-4139.1,-358.0 L-4144.0,-485.5 L-4145.4,-491.8 L-4199.1,-516.9 L-4200.8,-585.1 L-4149.8,-611.4 L-4172.5,-888.3 L-4166.5,-1011.5 L-4163.5,-1212.4 L-4163.7,-1430.9 L-4158.9,-1461.5 L-4158.6,-1476.3 L-4163.4,-1494.1 L-4158.4,-1494.1 L-4158.4,-1510.2 L-4155.4,-1921.2 L-4155.9,-1939.5 L-4161.6,-1939.5 L-4161.4,-2015.1 L-4164.7,-2019.8 L-4169.9,-2097.8 L-4159.6,-2169.1 L-4160.9,-2255.4 L-4164.4,-2276.1 L-4159.1,-2340.0 L-4162.7,-2417.3 L-4171.7,-2500.0 L-4188.8,-2634.0 L-4180.7,-2670.9 L-4184.3,-2706.8 L-4214.9,-2732.9 L-4259.8,-2732.5 L-4328.2,-2723.5 L-4372.7,-2723.5 L-4413.1,-2738.3 L-4466.2,-2774.7 L-4466.2,-2840.0 L-4467.6,-2920.3 L-4462.4,-2987.2 L-4444.8,-3039.4 L-4150.1,-3044.9 L-4143.3,-3462.8 L-4143.3,-4064.4 L-4146.4,-4282.7 L11765.8,-10854.4 L11765.8,25363.8 L-7946.7,25363.8 L-7946.7,7378.3 Z" fill="#add7e1" stroke="none"><title>Biscayne Bay</title></path><path d="M1165.4,435.3 L1175.5,436.6 L1174.1,447.8 L1205.6,451.3 L1205.8,441.7 L1252.5,436.2 L1308.0,415.3 L1338.6,400.4 L1356.9,383.6 L1368.6,372.8 L1409.0,298.6 L1418.2,215.1 L1396.7,140.1 L1375.1,112.4 L1386.0,104.6 L1374.7,90.7 L1364.2,98.3 L1360.2,93.1 L1295.2,47.4 L-160.3,-645.7 L-237.9,-675.2 L-296.3,-673.5 L-357.5,-655.2 L-400.0,-625.1 L-441.0,-582.7 L-460.2,-536.9 L-469.5,-488.2 L-467.0,-430.1 L-458.8,-399.7 L-426.3,-350.2 L-395.0,-318.6 L-335.3,-283.2 L364.3,51.7 L388.3,63.2 L1165.4,435.3 Z" fill="#ece7dc" stroke="#d7d1c5" stroke-width="0.3"><title>Hibiscus Island</title></path><path d="M366.3,430.7 L241.7,371.6 L218.4,360.2 L-22.8,239.2 L-163.7,170.0 L-306.9,99.8 L-395.0,59.6 L-657.2,-59.7 L-700.4,-72.5 L-755.5,-79.7 L-810.5,-67.7 L-864.7,-34.4 L-898.7,2.1 L-925.5,44.4 L-942.0,127.9 L-933.0,184.6 L-899.2,249.6 L-838.0,305.1 L-631.5,405.0 L-349.0,539.0 L-316.8,554.6 L42.7,728.9 L66.2,740.3 L185.5,798.1 L634.5,1012.4 L881.7,1129.2 L1033.4,1194.6 L1074.7,1191.9 L1108.4,1181.4 L1144.0,1166.6 L1175.3,1149.1 L1206.3,1120.7 L1227.6,1083.3 L1241.7,1052.7 L1249.8,1020.9 L1253.4,980.0 L1251.2,951.5 L1243.0,920.1 L1231.9,894.1 L1223.4,873.6 L1205.2,848.1 L1180.5,823.7 L1152.8,805.0 L816.7,645.3 L723.9,603.6 L659.7,569.0 L366.3,430.7 Z" fill="#ece7dc" stroke="#d7d1c5" stroke-width="0.3"><title>Palm Island</title></path><path d="M-755.5,-79.7 L-810.5,-67.7 L-864.7,-34.4 L-898.7,2.1 L-925.5,44.4 L-942.0,127.9 L-933.0,184.6 L-899.2,249.6 L-838.0,305.1 L-316.8,554.6 L42.7,728.9 L66.2,740.3 L185.5,798.1 L634.5,1012.4 L1033.4,1194.6 L1074.7,1191.9 L1108.4,1181.4 L1144.0,1166.6 L1175.3,1149.1 L1206.3,1120.7 L1227.6,1083.3 L1241.7,1052.7 L1249.8,1020.9 L1253.4,980.0 L1251.2,951.5 L1243.0,920.1 L1223.4,873.6 L1205.2,848.1 L1180.5,823.7 L1152.8,805.0 L816.7,645.3 L723.9,603.6 L659.7,569.0 L240.6,373.0 L218.4,360.2 L-163.7,170.0 L-306.9,99.8 L-395.0,59.6 L-657.2,-59.7 L-700.4,-72.5 L-755.5,-79.7 Z" fill="#ece7dc" stroke="#d7d1c5" stroke-width="0.3"></path><path d="M-2884.9,121.6 L3704.2,3089.3" fill="none" stroke="#6fb5c7" stroke-width="1.7" stroke-dasharray="5 7" opacity="0.34" stroke-linecap="round" stroke-linejoin="round"><title>Main Channel</title></path><path d="M228.8,368.9 L378.9,56.1" fill="none" stroke="#cec8bb" stroke-width="4.8" stroke-linecap="round" stroke-linejoin="round"/><path d="M228.8,368.9 L378.9,56.1" fill="none" stroke="#ffffff" stroke-width="3.7" stroke-linecap="round" stroke-linejoin="round"><title>Fountain Street</title></path><path d="M217.7,362.1 L367.2,47.5" fill="none" stroke="#f3efe5" stroke-width="5.9" stroke-linecap="round" stroke-linejoin="round" opacity="0.95"/><path d="M217.7,362.1 L367.2,47.5" fill="none" stroke="#aeb7ae" stroke-width="3.7" stroke-linecap="round" stroke-linejoin="round" opacity="0.9"><title>Hibiscus Island Bridge</title></path><path d="M390.1,58.3 L240.6,373.0" fill="none" stroke="#f3efe5" stroke-width="5.9" stroke-linecap="round" stroke-linejoin="round" opacity="0.95"/><path d="M390.1,58.3 L240.6,373.0" fill="none" stroke="#aeb7ae" stroke-width="3.7" stroke-linecap="round" stroke-linejoin="round" opacity="0.9"><title>Hibiscus Island Bridge</title></path></svg>