<svg xmlns="http://www.w3.org/2000/svg" width="256" height="256" viewBox="0 0 256 256"><defs><pattern id="park-dots" width="22" height="22" patternUnits="userSpaceOnUse"><circle cx="5" cy="5" r="2.1" fill="#63a95d" fill-opacity="0.26"/><circle cx="16" cy="7" r="1.55" fill="#76b970" fill-opacity="0.23"/><circle cx="10" cy="17" r="1.9" fill="#61a65b" fill-opacity="0.24"/><circle cx="21" cy="17" r="1.25" fill="#80c174" fill-opacity="0.18"/><circle cx="1" cy="19" r="1.2" fill="#70b46a" fill-opacity="0.17"/></pattern><pattern id="park-canopy" width="54" height="48" patternUnits="userSpaceOnUse"><circle cx="12" cy="11" r="3.6" fill="#5ea75a" fill-opacity="0.22"/><circle cx="31" cy="15" r="2.9" fill="#75ba6d" fill-opacity="0.18"/><circle cx="45" cy="31" r="3.3" fill="#67ae62" fill-opacity="0.20"/><circle cx="19" cy="39" r="2.5" fill="#83c378" fill-opacity="0.16"/></pattern></defs><rect width="256" height="256" fill="#f1efe7"/><path d="M-7946.7,-11053.7 L-7731.9,-11143.0 L-7664.7,-11175.3 L-7364.2,-11319.6 L-7307.8,-11265.0 L-7302.9,-11260.3 L-7197.5,-11350.5 L-7172.4,-11369.6 L-7130.5,-11407.4 L-6894.4,-11624.2 L-6703.9,-11841.8 L-6696.6,-11855.7 L-6689.6,-11863.6 L-6678.5,-11876.3 L-6667.2,-11889.2 L-6662.6,-11894.5 L-6737.7,-11991.6 L-6638.3,-12051.2 L-6584.4,-11979.5 L-6508.2,-12066.7 L-6572.7,-12152.1 L-6492.8,-12235.4 L-6431.3,-12154.4 L-6360.7,-12234.8 L-6330.6,-12254.5 L-6183.4,-12350.0 L-6110.7,-12398.3 L-6023.1,-12455.9 L-5981.7,-12483.1 L-5876.8,-12550.8 L-5903.8,-12586.3 L-5952.1,-12651.0 L-5827.2,-12730.4 L-5781.7,-12753.9 L-5778.2,-12756.4 L-5754.2,-12774.9 L-5668.6,-12820.7 L-5662.7,-12829.9 L-5638.7,-12846.4 L-5625.7,-12865.4 L-5622.0,-12868.2 L-5601.1,-12876.3 L-5553.9,-12893.2 L-5521.6,-12907.4 L-5407.5,-12961.0 L-5406.1,-12957.3 L-5310.4,-12998.2 L-5271.3,-12948.1 L-5184.2,-13006.2 L-5171.8,-13014.7 L-5170.6,-13015.7 L-5169.4,-13017.3 L-5167.5,-13020.6 L-5166.5,-13023.7 L-5165.9,-13027.4 L-5166.0,-13030.4 L-5166.4,-13033.3 L-5166.8,-13036.6 L-5166.9,-13039.1 L-5166.7,-13041.2 L-5166.3,-13043.4 L-5164.7,-13047.4 L-5163.6,-13049.6 L-5161.1,-13053.4 L-5158.5,-13056.2 L-5145.8,-13061.3 L-5135.2,-13065.3 L-5121.7,-13069.7 L-5115.4,-13071.4 L-5104.2,-13075.1 L-5096.3,-13077.9 L-5085.4,-13082.4 L-5070.6,-13088.9 L-5054.6,-13096.4 L-5046.0,-13100.6 L-5035.2,-13106.1 L-5025.1,-13111.7 L-5015.0,-13117.7 L-5004.7,-13124.4 L-5001.5,-13126.6 L-4980.8,-13142.4 L-4963.4,-13155.8 L-4946.4,-13170.2 L-4930.5,-13185.2 L-4919.0,-13198.1 L-4907.6,-13212.0 L-4893.6,-13230.0 L-4880.8,-13248.0 L-4866.1,-13271.1 L-4856.5,-13289.0 L-4850.5,-13300.4 L-4841.6,-13319.7 L-4834.1,-13337.6 L-4827.4,-13356.9 L-4822.0,-13373.8 L-4816.1,-13401.2 L-4811.8,-13425.7 L-4809.5,-13446.7 L-4807.5,-13471.5 L-4807.3,-13498.0 L-4808.9,-13522.5 L-4813.1,-13554.5 L-4817.5,-13576.3 L-4822.5,-13596.9 L-4829.9,-13620.3 L-4836.2,-13638.2 L-4843.4,-13657.7 L-4850.2,-13673.9 L-4854.8,-13684.4 L-4856.7,-13692.1 L-4857.0,-13698.0 L-4856.4,-13703.3 L-4854.3,-13707.9 L-4851.1,-13711.8 L-4846.9,-13714.0 L-4842.4,-13714.6 L-4830.3,-13711.7 L-4796.6,-13703.6 L-4785.4,-13958.3 L-4741.7,-14412.9 L-4789.2,-14424.1 L-4794.4,-14438.4 L-4794.2,-14458.9 L-4787.6,-14505.4 L-4778.6,-14515.9 L-4770.6,-14546.1 L-4720.1,-14534.4 L-4692.3,-14824.9 L-4684.6,-14905.3 L-4700.3,-14909.2 L-4690.8,-14947.6 L-4723.1,-14955.3 L-4719.0,-14978.8 L-4713.3,-14994.3 L-4706.2,-15012.4 L-4694.2,-15037.7 L-4681.3,-15034.8 L-4663.9,-15217.5 L-4659.8,-15328.3 L-4659.0,-15348.7 L-4649.6,-15419.2 L-4630.9,-15594.9 L-4506.1,-15920.3 L-4477.6,-16009.0 L-4130.9,-16142.0 L-4097.0,-16155.6 L-4091.1,-16158.8 L-4086.5,-16163.0 L-4081.4,-16168.9 L-4077.5,-16175.8 L-4074.9,-16182.6 L-4074.3,-16192.5 L-4074.8,-16204.8 L-4079.4,-16360.3 L-4081.1,-16390.4 L-4081.6,-16411.1 L-4082.3,-16451.3 L-4083.1,-16463.9 L-4084.6,-16474.5 L-4086.7,-16483.9 L-4089.8,-16493.5 L-4094.7,-16504.8 L-4101.9,-16516.9 L-4108.9,-16526.5 L-4114.3,-16535.6 L-4119.8,-16547.7 L-4124.4,-16559.3 L-4126.2,-16568.8 L-4127.6,-16579.3 L-4128.3,-16589.8 L-4128.0,-16600.0 L-4126.8,-16611.9 L-4124.0,-16623.6 L-4120.3,-16634.0 L-4116.4,-16643.5 L-4111.4,-16652.7 L-4105.3,-16663.9 L-4101.3,-16674.0 L-4097.8,-16686.9 L-4091.4,-16696.7 L-4093.6,-16785.9 L-4096.9,-16791.1 L-4097.9,-16851.7 L-4099.6,-16923.2 L-4098.4,-16933.1 L-4095.2,-16943.2 L-4087.2,-16959.0 L-4033.7,-17074.1 L-4032.6,-17076.0 L-4023.2,-17096.5 L-4014.3,-17115.9 L-4004.3,-17135.9 L-3994.5,-17156.5 L-3989.7,-17166.5 L-3937.1,-17274.4 L-3880.9,-17393.6 L-3759.3,-17640.4 L-3832.4,-17722.3 L-3892.0,-17595.3 L-3943.5,-17485.4 L-3951.3,-17469.8 L-3967.2,-17437.3 L-3999.0,-17440.0 L-4007.7,-17440.5 L-4010.8,-17437.7 L-4006.6,-17433.9 L-4022.9,-17419.4 L-4035.8,-17407.5 L-4038.2,-17356.6 L-4043.0,-17346.4 L-4058.6,-17347.0 L-4061.2,-17347.9 L-4265.6,-17432.3 L-4270.0,-17434.6 L-4274.7,-17437.6 L-4282.1,-17443.2 L-4287.8,-17448.6 L-4292.6,-17453.8 L-4297.3,-17460.2 L-4300.9,-17465.8 L-4303.7,-17471.6 L-4305.9,-17477.7 L-4307.4,-17481.9 L-4308.5,-17487.0 L-4309.3,-17493.0 L-4310.1,-17501.2 L-4310.1,-17512.9 L-4311.5,-17552.6 L-4305.9,-17552.9 L-4306.7,-17573.9 L-4307.6,-17608.5 L-4302.4,-17608.6 L-4302.8,-17632.2 L-4308.7,-17632.1 L-4311.4,-17731.5 L-4305.8,-17731.8 L-4306.7,-17755.1 L-4312.1,-17754.9 L-4314.4,-17828.4 L-4287.4,-17857.5 L-4252.9,-17858.7 L-4227.2,-17859.6 L-4193.3,-17860.7 L-4160.7,-17861.7 L-4131.5,-17862.7 L-4118.8,-17863.3 L-4119.4,-17874.6 L-4119.6,-17886.4 L-4121.5,-17924.7 L-4122.2,-17997.8 L-4123.2,-17999.1 L-4123.4,-18006.3 L-4121.3,-18006.4 L-4126.4,-18182.5 L-4130.8,-18348.2 L-4131.5,-18353.4 L-4131.9,-18363.0 L-4204.1,-18360.4 L-4252.1,-18364.5 L-4611.4,-18352.0 L-4611.5,-18355.2 L-4612.2,-18370.5 L-4782.6,-18364.5 L-4782.9,-18392.8 L-4805.4,-18397.9 L-4809.4,-18519.0 L-4146.6,-18542.0 L-4135.6,-18557.1 L-4136.0,-18600.1 L-4136.8,-18637.3 L-4137.4,-18660.6 L-4138.3,-18683.3 L-4191.0,-18708.1 L-4193.1,-18763.2 L-4139.1,-18790.0 L-4144.0,-18917.5 L-4145.4,-18923.8 L-4199.1,-18948.9 L-4200.8,-19017.1 L-4149.8,-19043.4 L-4172.5,-19320.3 L-4166.5,-19443.5 L-4163.5,-19644.4 L-4163.7,-19862.9 L-4158.9,-19893.5 L-4158.6,-19908.3 L-4163.4,-19926.1 L-4158.4,-19926.1 L-4158.4,-19942.2 L-4155.4,-20353.2 L-4155.9,-20371.5 L-4161.6,-20371.5 L-4161.4,-20447.1 L-4164.7,-20451.8 L-4169.9,-20529.8 L-4159.6,-20601.1 L-4160.9,-20687.4 L-4164.4,-20708.1 L-4159.1,-20772.0 L-4162.7,-20849.3 L-4171.7,-20932.0 L-4188.8,-21066.0 L-4180.7,-21102.9 L-4184.3,-21138.8 L-4214.9,-21164.9 L-4259.8,-21164.5 L-4328.2,-21155.5 L-4372.7,-21155.5 L-4413.1,-21170.3 L-4466.2,-21206.7 L-4466.2,-21272.0 L-4467.6,-21352.3 L-4462.4,-21419.2 L-4444.8,-21471.4 L-4150.1,-21476.9 L-4143.3,-21894.8 L-4143.3,-22496.4 L-4146.4,-22714.7 L11765.8,-29286.4 L11765.8,6931.8 L-7946.7,6931.8 L-7946.7,-11053.7 Z" fill="#add7e1" stroke="none"><title>Biscayne Bay</title></path><path d="M-2157.7,371.7 L-2187.4,408.1 L-2288.0,538.4 L-2315.9,545.5 L-2315.9,580.5 L-2345.5,649.0 L-2357.9,688.1 L-2373.6,715.6 L-2376.7,803.5 L-2392.8,831.4 L-2402.5,893.6 L-2378.0,954.0 L-2383.5,963.5 L-2378.0,980.7 L-2369.0,983.7 L-2351.3,1043.7 L-2308.4,1063.1 L-2297.8,1072.9 L-2294.8,1074.6 L-2291.8,1075.3 L-2288.4,1074.3 L-2285.4,1072.2 L-2280.1,1067.1 L-2245.3,1011.6 L-2249.4,1009.1 L-2216.5,955.7 L-2212.6,958.5 L-2188.5,919.2 L-2199.6,912.8 L-2195.6,896.3 L-2186.1,885.1 L-2163.3,871.1 L-2132.7,859.4 L-2120.0,816.6 L-2114.6,822.2 L-2113.4,822.4 L-2112.3,822.7 L-2110.4,810.0 L-2111.8,809.6 L-2113.2,809.1 L-2119.2,811.3 L-2113.4,779.1 L-2114.7,772.3 L-2118.7,765.6 L-2114.0,703.1 L-2112.6,683.6 L-2117.7,683.2 L-2115.1,579.2 L-2113.2,562.9 L-2107.1,552.3 L-2096.7,545.5 L-2093.3,538.9 L-2092.4,504.8 L-2094.7,498.5 L-2107.8,493.0 L-2105.0,478.0 L-2094.5,469.7 L-2086.6,466.5 L-2031.3,466.5 L-2020.2,465.1 L-1994.1,465.1 L-1988.5,465.1 L-1988.7,467.5 L-1838.8,466.3 L-1851.2,543.3 L-1862.5,564.1 L-2029.4,629.4 L-2023.2,864.2 L-1893.5,1140.3 L-1869.8,1205.0 L-1863.2,1284.1 L-1588.7,1533.5 L-1505.9,1745.9 L-1512.0,1749.5 L-1503.1,1772.6 L-1497.4,1770.8 L-1480.5,1807.8 L-1439.0,1826.3 L-1231.4,1932.6 L-1161.4,1999.0 L-1083.6,2140.2 L-1032.0,2211.6 L-951.4,2270.2 L-850.4,2309.1 L-742.5,2310.5 L-704.3,2290.7 L-698.5,2251.6 L-735.3,2093.2 L-869.7,1904.4 L-1102.5,1752.4 L-1093.7,1728.3 L-933.7,1727.2 L-796.3,1706.2 L-776.6,1707.2 L-753.8,1708.4 L-534.5,1709.0 L-48.3,1696.6 L-10.5,1704.4 L53.5,1774.2 L71.1,1785.0 L293.5,1957.1 L365.3,2016.9 L367.5,2060.9 L368.2,2089.9 L389.9,2181.9 L621.3,2157.9 L681.9,2139.9 L785.7,2064.7 L853.2,2133.2 L894.5,2207.0 L913.7,2234.2 L968.4,2228.9 L1439.0,2190.0 L1425.8,2145.6 L1431.0,2092.8 L1435.5,2059.5 L1416.0,1988.8 L1392.5,1923.3 L1353.4,1813.1 L1279.9,1521.9 L1258.7,1385.2 L1242.0,1264.0 L1229.4,1153.7 L1216.7,1014.7 L1207.5,923.3 L1206.4,912.5 L1202.9,833.8 L1201.2,750.5 L1198.9,697.7 L1193.7,629.9 L1200.1,555.3 L1199.5,440.9 L1201.2,346.8 L1201.8,222.1 L1202.4,117.0 L1207.0,63.0 L1210.4,-25.4 L1210.9,-57.0 L1211.0,-64.5 L1209.8,-118.5 L1211.5,-158.1 L1216.7,-214.9 L1215.6,-283.9 L1216.7,-318.3 L1217.8,-328.5 L1221.3,-360.3 L1224.2,-408.5 L1230.5,-440.7 L1238.0,-497.5 L1253.5,-586.6 L1263.2,-638.2 L1262.7,-660.1 L1259.8,-680.2 L1262.1,-708.9 L1266.1,-740.7 L1268.4,-758.9 L1279.9,-798.5 L1285.1,-831.2 L1305.2,-861.1 L1323.5,-882.4 L1333.3,-905.9 L1330.4,-926.6 L1322.4,-940.4 L1323.0,-969.7 L1331.6,-986.3 L1349.4,-1001.2 L1352.9,-1017.3 L1351.7,-1050.0 L1352.9,-1073.6 L1348.8,-1096.6 L1337.3,-1104.6 L1326.4,-1112.7 L1331.0,-1136.2 L1329.9,-1163.2 L1340.8,-1186.2 L1348.8,-1228.1 L1356.9,-1263.7 L1355.7,-1285.0 L1370.7,-1344.7 L1381.0,-1384.9 L1386.7,-1410.8 L259.0,-1417.5 L-856.3,-1424.7 L-864.2,-1416.2 L-875.9,-1410.9 L-888.9,-1412.6 L-901.7,-1416.7 L-908.6,-1415.7 L-932.8,-1385.6 L-943.4,-1372.1 L-963.8,-1346.6 L-974.2,-1333.4 L-995.1,-1307.8 L-1005.8,-1294.7 L-1033.4,-1261.2 L-1059.6,-1229.1 L-1066.1,-1221.2 L-1043.9,-1203.8 L-1051.8,-1194.7 L-1058.5,-1186.9 L-1079.6,-1204.4 L-1090.6,-1191.6 L-1143.6,-1130.0 L-1143.8,-1123.1 L-1144.6,-1017.6 L-1143.5,-972.9 L-1017.7,-973.9 L-1007.8,-961.0 L-1000.2,-946.2 L-1029.8,-921.7 L-1048.7,-931.4 L-1204.7,-922.1 L-1310.1,-830.5 L-1522.6,-646.5 L-1676.4,-515.1 L-1745.0,-436.6 L-1791.8,-362.7 L-1824.8,-271.7 L-1853.8,-87.6 L-1837.3,-83.6 L-1896.5,50.0 L-1986.3,224.5 L-2007.6,231.7 L-2029.7,258.7 L-2039.3,270.5 L-2063.5,279.0 L-2157.7,371.7 Z" fill="#ece7dc" stroke="#d7d1c5" stroke-width="0.3"></path><path d="M-218.9,-298.7 L-190.4,-302.9 L-157.9,-307.7 L1.2,-304.1 L19.1,-303.7 L28.1,-238.7 L32.1,-178.7 L31.1,-88.7 L20.1,17.3 L-0.9,110.3 L-31.9,210.3 L-65.9,295.3 L-111.9,273.3 L-144.9,270.3 L-204.9,269.3 L-219.9,257.3 L-234.9,261.3 L-243.9,272.3 L-310.9,256.3 L-289.9,193.3 L-262.9,134.3 L-233.9,42.3 L-217.9,-35.7 L-214.9,-82.7 L-212.9,-188.7 L-218.9,-298.7 Z" fill="#d5f2cb" stroke="#9fcf91" stroke-width="0.4"><title>Village Green</title></path><path d="M-218.9,-298.7 L-190.4,-302.9 L-157.9,-307.7 L1.2,-304.1 L19.1,-303.7 L28.1,-238.7 L32.1,-178.7 L31.1,-88.7 L20.1,17.3 L-0.9,110.3 L-31.9,210.3 L-65.9,295.3 L-111.9,273.3 L-144.9,270.3 L-204.9,269.3 L-219.9,257.3 L-234.9,261.3 L-243.9,272.3 L-310.9,256.3 L-289.9,193.3 L-262.9,134.3 L-233.9,42.3 L-217.9,-35.7 L-214.9,-82.7 L-212.9,-188.7 L-218.9,-298.7 Z" fill="url(#park-dots)" stroke="none"/><path d="M-218.9,-298.7 L-190.4,-302.9 L-157.9,-307.7 L1.2,-304.1 L19.1,-303.7 L28.1,-238.7 L32.1,-178.7 L31.1,-88.7 L20.1,17.3 L-0.9,110.3 L-31.9,210.3 L-65.9,295.3 L-111.9,273.3 L-144.9,270.3 L-204.9,269.3 L-219.9,257.3 L-234.9,261.3 L-243.9,272.3 L-310.9,256.3 L-289.9,193.3 L-262.9,134.3 L-233.9,42.3 L-217.9,-35.7 L-214.9,-82.7 L-212.9,-188.7 L-218.9,-298.7 Z" fill="url(#park-canopy)" stroke="none"/><path d="M7.6,142.6 L-1.3,168.9 L-12.1,216.6 L-16.9,231.7 L-28.1,259.9 L-41.0,288.4 L-37.8,290.0 L-24.4,261.1 L-12.8,231.7 L2.9,189.4 L17.0,145.4 L7.6,142.6 Z" fill="#dcf5d2" stroke="#9fcf91" stroke-width="0.4"></path><path d="M7.6,142.6 L-1.3,168.9 L-12.1,216.6 L-16.9,231.7 L-28.1,259.9 L-41.0,288.4 L-37.8,290.0 L-24.4,261.1 L-12.8,231.7 L2.9,189.4 L17.0,145.4 L7.6,142.6 Z" fill="url(#park-dots)" stroke="none"/><path d="M7.6,142.6 L-1.3,168.9 L-12.1,216.6 L-16.9,231.7 L-28.1,259.9 L-41.0,288.4 L-37.8,290.0 L-24.4,261.1 L-12.8,231.7 L2.9,189.4 L17.0,145.4 L7.6,142.6 Z" fill="url(#park-canopy)" stroke="none"/><path d="M19.1,98.3 L29.1,101.1 L36.4,69.5 L44.2,29.1 L49.1,-2.5 L54.4,-43.5 L48.5,-43.9 L44.2,-32.6 L41.5,-23.1 L39.3,-3.1 L33.2,32.9 L19.1,98.3 Z" fill="#dcf5d2" stroke="#9fcf91" stroke-width="0.4"></path><path d="M19.1,98.3 L29.1,101.1 L36.4,69.5 L44.2,29.1 L49.1,-2.5 L54.4,-43.5 L48.5,-43.9 L44.2,-32.6 L41.5,-23.1 L39.3,-3.1 L33.2,32.9 L19.1,98.3 Z" fill="url(#park-dots)" stroke="none"/><path d="M19.1,98.3 L29.1,101.1 L36.4,69.5 L44.2,29.1 L49.1,-2.5 L54.4,-43.5 L48.5,-43.9 L44.2,-32.6 L41.5,-23.1 L39.3,-3.1 L33.2,32.9 L19.1,98.3 Z" fill="url(#park-canopy)" stroke="none"/><path d="M-1.0,-1.0 L257.0,-1.0 L257.0,257.0 L-1.0,257.0 L-1.0,-1.0 Z M-1.0,257.0 L257.0,257.0 L257.0,-1.0 L-1.0,-1.0 L-1.0,257.0 Z" fill="#add7e1" stroke="none" fill-rule="evenodd"><title>Biscayne Bay</title></path><path d="M129.7,39.0 L127.8,49.7 L126.0,49.3 L125.7,51.3 L132.6,52.6 L130.0,69.4 L93.9,62.8 L96.0,51.5 L99.9,52.2 L102.9,34.1 L129.7,39.0 Z" fill="#d6d2c9" stroke="#bab6ad" stroke-width="0.4"></path><path d="M210.7,93.2 L202.3,130.2 L174.2,123.7 L179.3,101.1 L172.0,99.4 L175.2,85.0 L210.7,93.2 Z" fill="#d6d2c9" stroke="#bab6ad" stroke-width="0.4"></path><path d="M87.5,106.0 L111.0,112.8 L111.4,111.2 L118.3,113.2 L117.5,116.2 L124.5,118.2 L120.5,131.9 L109.6,128.7 L105.9,141.6 L79.4,133.9 L87.5,106.0 Z" fill="#d6d2c9" stroke="#bab6ad" stroke-width="0.4"></path><path d="M84.5,216.1 L80.8,226.5 L79.4,226.0 L78.6,228.4 L89.7,232.4 L84.6,246.5 L72.2,241.9 L71.6,243.4 L44.4,233.5 L48.5,221.9 L53.4,223.7 L55.6,217.6 L53.2,216.7 L57.0,206.1 L84.5,216.1 Z" fill="#d6d2c9" stroke="#bab6ad" stroke-width="0.4"></path><path d="M225.4,-37.8 L225.5,-13.5 L227.0,-13.6 L227.1,1.2 L225.0,1.2 L225.0,6.8 L210.0,6.9 L209.9,-3.9 L191.6,-3.8 L191.4,-35.1 L200.3,-35.1 L202.2,-33.1 L211.8,-33.2 L211.8,-37.7 L225.4,-37.8 Z" fill="#d6d2c9" stroke="#bab6ad" stroke-width="0.4"></path><path d="M67.1,269.5 L71.0,284.4 L43.8,291.8 L37.9,270.7 L33.5,272.0 L31.3,264.2 L33.2,263.7 L32.3,260.6 L69.4,250.4 L74.3,267.6 L67.1,269.5 Z" fill="#d6d2c9" stroke="#bab6ad" stroke-width="0.4"></path><path d="M236.5,218.5 L241.0,222.3 L242.6,220.4 L249.7,226.6 L247.9,228.7 L268.3,246.3 L245.1,272.4 L222.1,252.9 L235.3,237.3 L226.8,230.0 L236.5,218.5 Z" fill="#d6d2c9" stroke="#bab6ad" stroke-width="0.4"></path><path d="M137.3,213.9 L142.7,215.8 L143.3,214.2 L151.6,217.2 L150.4,220.7 L177.2,230.5 L178.8,226.1 L184.8,228.4 L180.5,240.3 L175.5,238.4 L174.0,242.7 L170.3,241.4 L163.1,261.4 L135.8,251.4 L142.7,232.2 L132.1,228.3 L137.3,213.9 Z" fill="#d6d2c9" stroke="#bab6ad" stroke-width="0.4"></path><path d="M214.4,255.3 L219.5,259.9 L221.1,258.1 L245.2,279.8 L225.9,301.3 L209.7,286.6 L209.4,278.7 L213.6,274.0 L204.8,266.2 L214.4,255.3 Z" fill="#d6d2c9" stroke="#bab6ad" stroke-width="0.4"></path><path d="M155.0,172.1 L164.4,175.4 L163.3,178.5 L191.3,188.2 L187.2,200.1 L184.1,199.1 L177.2,219.3 L149.4,209.7 L155.9,190.6 L144.8,186.7 L149.6,172.6 L154.2,174.2 L155.0,172.1 Z" fill="#d6d2c9" stroke="#bab6ad" stroke-width="0.4"></path><path d="M95.5,183.2 L92.2,193.8 L90.7,193.4 L90.3,194.8 L97.5,197.6 L91.7,213.5 L57.4,202.4 L60.9,191.2 L64.6,192.3 L70.1,175.0 L95.5,183.2 Z" fill="#d6d2c9" stroke="#bab6ad" stroke-width="0.4"></path><path d="M128.1,-1.7 L128.1,-0.2 L136.1,-0.3 L136.1,2.7 L143.0,2.6 L143.3,17.0 L131.9,17.3 L132.0,26.2 L126.5,30.7 L104.2,31.2 L103.5,1.8 L118.6,1.5 L118.5,-1.5 L128.1,-1.7 Z" fill="#d6d2c9" stroke="#bab6ad" stroke-width="0.4"></path><path d="M261.8,-40.6 L261.6,1.5 L250.3,1.4 L250.2,4.0 L245.9,4.0 L245.8,9.1 L236.0,9.0 L236.3,-32.7 L248.3,-32.6 L248.4,-40.7 L261.8,-40.6 Z" fill="#d6d2c9" stroke="#bab6ad" stroke-width="0.4"></path><path d="M122.8,75.5 L119.6,90.2 L117.6,89.8 L117.1,91.8 L129.8,94.6 L126.6,109.0 L89.7,100.2 L97.2,69.3 L122.8,75.5 Z" fill="#d6d2c9" stroke="#bab6ad" stroke-width="0.4"></path><path d="M105.8,146.2 L102.4,157.9 L108.2,159.6 L103.5,176.6 L68.7,166.3 L72.0,155.0 L75.6,156.1 L80.7,138.7 L105.8,146.2 Z" fill="#d6d2c9" stroke="#bab6ad" stroke-width="0.4"></path><path d="M168.1,-21.8 L164.5,-11.0 L155.1,-14.1 L150.5,0.1 L124.7,-8.4 L127.7,-17.6 L124.9,-18.5 L130.5,-38.2 L157.0,-29.4 L162.8,-26.6 L161.9,-24.0 L168.1,-21.8 Z" fill="#d6d2c9" stroke="#bab6ad" stroke-width="0.4"></path><path d="M200.7,139.6 L195.4,160.6 L198.1,161.3 L194.6,174.1 L151.8,163.2 L155.7,147.5 L167.4,150.5 L172.0,132.3 L200.7,139.6 Z" fill="#d6d2c9" stroke="#bab6ad" stroke-width="0.4"></path><path d="M173.4,73.1 L190.5,76.2 L190.0,78.9 L206.4,81.9 L206.9,78.9 L215.8,80.5 L218.0,68.0 L214.3,67.3 L216.1,57.5 L218.0,56.6 L219.5,50.4 L217.9,48.2 L218.2,46.7 L190.3,41.6 L186.9,60.3 L176.1,58.3 L173.4,73.1 Z" fill="#d6d2c9" stroke="#bab6ad" stroke-width="0.4"></path><path d="M-2.0,-85.7 L-2.5,-30.5 L-4.5,12.7 L-6.9,35.5 L-17.6,76.7 L-29.5,100.4 L-39.4,120.8 L-48.5,141.9" fill="none" stroke="#cf828d" stroke-width="1.5" stroke-dasharray="1.6 3.0" opacity="0.62" stroke-linecap="round" stroke-linejoin="round"></path><path d="M21.0,-68.7 L9.3,18.5 L-7.2,100.2 L-55.6,244.5" fill="none" stroke="#cf828d" stroke-width="1.5" stroke-dasharray="1.6 3.0" opacity="0.62" stroke-linecap="round" stroke-linejoin="round"></path><path d="M76.8,-52.9 L79.0,-47.9 L78.6,-21.3 L72.5,14.6 L51.0,113.9 L24.4,204.5 L-7.4,290.0 L-25.0,327.0" fill="none" stroke="#cf828d" stroke-width="1.5" stroke-dasharray="1.6 3.0" opacity="0.62" stroke-linecap="round" stroke-linejoin="round"></path><path d="M166.6,25.5 L178.7,22.5 L248.9,27.3 L343.8,23.6" fill="none" stroke="#cec8bb" stroke-width="4.8" stroke-linecap="round" stroke-linejoin="round"/><path d="M166.6,25.5 L178.7,22.5 L248.9,27.3 L343.8,23.6" fill="none" stroke="#ffffff" stroke-width="3.7" stroke-linecap="round" stroke-linejoin="round"><title>Turtle Walk</title></path><path d="M166.6,25.5 L159.3,41.0 L145.3,111.1 L106.9,247.8 L107.8,263.6 L118.3,275.1 L158.7,279.5 L172.3,276.6 L185.9,262.9 L215.4,212.9 L235.4,189.9 L251.4,171.5" fill="none" stroke="#cec8bb" stroke-width="4.8" stroke-linecap="round" stroke-linejoin="round"/><path d="M166.6,25.5 L159.3,41.0 L145.3,111.1 L106.9,247.8 L107.8,263.6 L118.3,275.1 L158.7,279.5 L172.3,276.6 L185.9,262.9 L215.4,212.9 L235.4,189.9 L251.4,171.5" fill="none" stroke="#ffffff" stroke-width="3.7" stroke-linecap="round" stroke-linejoin="round"><title>Grand Bay Estates Circle</title></path><path d="M248.9,27.3 L233.5,116.3 L233.7,145.4 L251.4,171.5" fill="none" stroke="#cec8bb" stroke-width="4.8" stroke-linecap="round" stroke-linejoin="round"/><path d="M248.9,27.3 L233.5,116.3 L233.7,145.4 L251.4,171.5" fill="none" stroke="#ffffff" stroke-width="3.7" stroke-linecap="round" stroke-linejoin="round"><title>Grand Bay Estates Circle</title></path><path d="M235.4,189.9 L251.2,201.3 L300.1,236.8 L309.0,245.2" fill="none" stroke="#cec8bb" stroke-width="4.8" stroke-linecap="round" stroke-linejoin="round"/><path d="M235.4,189.9 L251.2,201.3 L300.1,236.8 L309.0,245.2" fill="none" stroke="#ffffff" stroke-width="3.7" stroke-linecap="round" stroke-linejoin="round"><title>Grand Bay Estates Circle</title></path><path d="M240.3,359.3 L324.7,261.3" fill="none" stroke="#cec8bb" stroke-width="4.8" stroke-linecap="round" stroke-linejoin="round"/><path d="M240.3,359.3 L324.7,261.3" fill="none" stroke="#ffffff" stroke-width="3.7" stroke-linecap="round" stroke-linejoin="round"><title>Grand Bay Drive</title></path><path d="M323.1,229.0 L265.9,183.1 L251.4,171.5" fill="none" stroke="#cec8bb" stroke-width="4.8" stroke-linecap="round" stroke-linejoin="round"/><path d="M323.1,229.0 L265.9,183.1 L251.4,171.5" fill="none" stroke="#ffffff" stroke-width="3.7" stroke-linecap="round" stroke-linejoin="round"><title>Grand Bay Estates Circle</title></path><path d="M309.0,245.2 L228.3,341.7" fill="none" stroke="#cec8bb" stroke-width="4.8" stroke-linecap="round" stroke-linejoin="round"/><path d="M309.0,245.2 L228.3,341.7" fill="none" stroke="#ffffff" stroke-width="3.7" stroke-linecap="round" stroke-linejoin="round"><title>Grand Bay Drive</title></path><path d="M6.8,118.6 L31.2,124.8" fill="none" stroke="#d1c4aa" stroke-width="5.4" stroke-linecap="round" stroke-linejoin="round"/><path d="M6.8,118.6 L31.2,124.8" fill="none" stroke="#f1c77d" stroke-width="4.0" stroke-linecap="round" stroke-linejoin="round"></path><path d="M39.4,-67.5 L32.1,-3.3 L15.3,85.2 L6.8,118.6 L-9.1,172.4 L-32.5,235.1" fill="none" stroke="#d1c4aa" stroke-width="6.4" stroke-linecap="round" stroke-linejoin="round"/><path d="M39.4,-67.5 L32.1,-3.3 L15.3,85.2 L6.8,118.6 L-9.1,172.4 L-32.5,235.1" fill="none" stroke="#f1c77d" stroke-width="5.0" stroke-linecap="round" stroke-linejoin="round"><title>Crandon Boulevard</title></path><path d="M-46.9,326.0 L-14.3,257.7 L-13.0,254.9 L16.2,174.7 L31.2,124.8 L40.7,87.2 L56.7,0.7 L62.2,-46.1 L64.5,-66.1" fill="none" stroke="#d1c4aa" stroke-width="6.4" stroke-linecap="round" stroke-linejoin="round"/><path d="M-46.9,326.0 L-14.3,257.7 L-13.0,254.9 L16.2,174.7 L31.2,124.8 L40.7,87.2 L56.7,0.7 L62.2,-46.1 L64.5,-66.1" fill="none" stroke="#f1c77d" stroke-width="5.0" stroke-linecap="round" stroke-linejoin="round"><title>Crandon Boulevard</title></path><g transform="translate(22.0 49.6) rotate(100.7)"><path d="M -3.6 -3.2 L 4.4 0 L -3.6 3.2 Z" fill="#58656d" opacity="0.46"/></g><g transform="translate(47.5 50.6) rotate(-79.6)"><path d="M -3.6 -3.2 L 4.4 0 L -3.6 3.2 Z" fill="#58656d" opacity="0.46"/></g><text x="209.4" y="24.6" transform="rotate(3.9 209.4 24.6)" text-anchor="middle" dominant-baseline="central" font-family="Arial, sans-serif" font-size="8.3" textLength="58.4" lengthAdjust="spacing" font-weight="650" paint-order="stroke" stroke="#fffaf0" stroke-width="2.05" stroke-linejoin="round" fill="#695f54">Turtle Walk</text><text x="127.2" y="175.6" transform="rotate(-74.3 127.2 175.6)" text-anchor="middle" dominant-baseline="central" font-family="Arial, sans-serif" font-size="8.3" textLength="127.5" lengthAdjust="spacing" font-weight="650" paint-order="stroke" stroke="#fffaf0" stroke-width="2.05" stroke-linejoin="round" fill="#695f54">Grand Bay Estates Circle</text><text x="116.4" y="51.2" text-anchor="middle" font-family="Arial, sans-serif" font-size="6.5" textLength="18.0" lengthAdjust="spacing" font-weight="500" paint-order="stroke" stroke="#f3f5ee" stroke-width="1.55" stroke-linejoin="round" fill="#6f777a">18</text><text x="185.6" y="105.4" text-anchor="middle" font-family="Arial, sans-serif" font-size="6.5" textLength="18.0" lengthAdjust="spacing" font-weight="500" paint-order="stroke" stroke="#f3f5ee" stroke-width="1.55" stroke-linejoin="round" fill="#6f777a">40</text><text x="68.1" y="227.2" text-anchor="middle" font-family="Arial, sans-serif" font-size="6.5" textLength="18.0" lengthAdjust="spacing" font-weight="500" paint-order="stroke" stroke="#f3f5ee" stroke-width="1.55" stroke-linejoin="round" fill="#6f777a">24</text><text x="241.0" y="235.5" text-anchor="middle" font-family="Arial, sans-serif" font-size="6.5" textLength="18.0" lengthAdjust="spacing" font-weight="500" paint-order="stroke" stroke="#f3f5ee" stroke-width="1.55" stroke-linejoin="round" fill="#6f777a">33</text><text x="164.7" y="188.9" text-anchor="middle" font-family="Arial, sans-serif" font-size="6.5" textLength="18.0" lengthAdjust="spacing" font-weight="500" paint-order="stroke" stroke="#f3f5ee" stroke-width="1.55" stroke-linejoin="round" fill="#6f777a">36</text><text x="81.1" y="193.7" text-anchor="middle" font-family="Arial, sans-serif" font-size="6.5" textLength="18.0" lengthAdjust="spacing" font-weight="500" paint-order="stroke" stroke="#f3f5ee" stroke-width="1.55" stroke-linejoin="round" fill="#6f777a">22</text><text x="126.9" y="16.5" text-anchor="middle" font-family="Arial, sans-serif" font-size="6.5" textLength="18.0" lengthAdjust="spacing" font-weight="500" paint-order="stroke" stroke="#f3f5ee" stroke-width="1.55" stroke-linejoin="round" fill="#6f777a">17</text><text x="115.0" y="90.0" text-anchor="middle" font-family="Arial, sans-serif" font-size="6.5" textLength="18.0" lengthAdjust="spacing" font-weight="500" paint-order="stroke" stroke="#f3f5ee" stroke-width="1.55" stroke-linejoin="round" fill="#6f777a">19</text><text x="89.6" y="157.0" text-anchor="middle" font-family="Arial, sans-serif" font-size="6.5" textLength="18.0" lengthAdjust="spacing" font-weight="500" paint-order="stroke" stroke="#f3f5ee" stroke-width="1.55" stroke-linejoin="round" fill="#6f777a">21</text><text x="179.5" y="153.6" text-anchor="middle" font-family="Arial, sans-serif" font-size="6.5" textLength="18.0" lengthAdjust="spacing" font-weight="500" paint-order="stroke" stroke="#f3f5ee" stroke-width="1.55" stroke-linejoin="round" fill="#6f777a">38</text><text x="203.6" y="64.0" text-anchor="middle" font-family="Arial, sans-serif" font-size="6.5" textLength="18.0" lengthAdjust="spacing" font-weight="500" paint-order="stroke" stroke="#f3f5ee" stroke-width="1.55" stroke-linejoin="round" fill="#6f777a">42</text></svg>