<svg xmlns="http://www.w3.org/2000/svg" width="256" height="256" viewBox="0 0 256 256"><defs><pattern id="park-dots" width="22" height="22" patternUnits="userSpaceOnUse"><circle cx="5" cy="5" r="2.1" fill="#63a95d" fill-opacity="0.26"/><circle cx="16" cy="7" r="1.55" fill="#76b970" fill-opacity="0.23"/><circle cx="10" cy="17" r="1.9" fill="#61a65b" fill-opacity="0.24"/><circle cx="21" cy="17" r="1.25" fill="#80c174" fill-opacity="0.18"/><circle cx="1" cy="19" r="1.2" fill="#70b46a" fill-opacity="0.17"/></pattern><pattern id="park-canopy" width="54" height="48" patternUnits="userSpaceOnUse"><circle cx="12" cy="11" r="3.6" fill="#5ea75a" fill-opacity="0.22"/><circle cx="31" cy="15" r="2.9" fill="#75ba6d" fill-opacity="0.18"/><circle cx="45" cy="31" r="3.3" fill="#67ae62" fill-opacity="0.20"/><circle cx="19" cy="39" r="2.5" fill="#83c378" fill-opacity="0.16"/></pattern></defs><rect width="256" height="256" fill="#f1efe7"/><path d="M1674.6,3467.7 L1402.5,3266.9 L1380.7,3250.9 L1357.1,3245.8 L1340.5,3231.7 L1327.2,3230.2 L1284.2,3233.1 L1284.2,3229.0 L1281.8,3225.2 L1277.1,3222.3 L1183.7,3181.8 L1177.3,3178.9 L1171.8,3177.3 L1164.9,3176.7 L1157.9,3176.6 L1134.7,3176.6 L1128.5,3176.2 L1122.5,3175.1 L1116.1,3172.6 L1108.4,3170.5 L1102.8,3170.0 L1086.3,3169.3 L1080.9,3168.3 L1073.9,3166.1 L1067.0,3164.3 L1060.3,3162.7 L1055.1,3160.7 L1048.9,3156.8 L1043.2,3152.6 L1037.8,3148.5 L1033.4,3146.3 L1029.9,3145.7 L1026.9,3145.8 L1023.7,3146.8 L1019.9,3148.7 L1016.9,3152.0 L1012.8,3156.0 L1008.3,3160.1 L1003.2,3162.9 L996.8,3165.0 L991.4,3166.3 L984.9,3167.3 L974.2,3168.6 L947.1,3169.8 L924.1,3171.0 L914.1,3174.5 L893.8,3175.2 L891.1,3171.0 L888.1,3169.1 L884.9,3168.4 L863.0,3169.7 L853.5,3173.1 L841.8,3173.2 L834.0,3172.1 L827.5,3170.1 L804.0,3171.5 L741.7,3176.3 L727.3,3176.8 L722.4,3176.7 L718.1,3175.5 L712.9,3173.0 L709.2,3170.0 L693.0,3170.1 L679.4,3169.9 L675.8,3172.1 L657.1,3172.5 L654.7,3176.5 L652.1,3176.6 L647.5,3175.5 L639.2,3174.5 L630.8,3174.9 L628.1,3175.8 L625.5,3175.3 L623.7,3173.5 L620.6,3171.8 L609.3,3171.8 L597.8,3172.5 L587.0,3178.8 L581.6,3181.4 L575.6,3182.7 L570.5,3183.1 L565.9,3182.4 L555.5,3177.9 L549.5,3176.0 L544.3,3175.3 L522.0,3175.6 L520.6,3172.9 L500.9,3173.3 L487.3,3175.8 L478.3,3176.8 L473.5,3177.9 L471.7,3176.6 L468.2,3176.2 L436.4,3173.3 L433.7,3174.8 L430.3,3175.5 L425.9,3175.5 L425.9,3173.9 L406.1,3170.3 L393.7,3167.9 L363.6,3157.7 L361.9,3160.0 L341.8,3153.8 L337.6,3152.4 L339.7,3145.4 L337.3,3144.6 L336.8,3143.9 L335.5,3143.5 L333.7,3143.2 L331.5,3142.2 L332.3,3141.5 L323.4,3134.2 L308.6,3120.8 L300.6,3113.9 L294.9,3107.7 L291.8,3103.6 L287.1,3097.1 L284.4,3092.2 L276.0,3081.6 L275.2,3081.1 L274.6,3081.0 L274.1,3081.1 L272.9,3081.1 L271.9,3080.7 L269.9,3079.3 L265.6,3077.0 L263.4,3075.3 L261.0,3073.1 L257.7,3071.3 L252.4,3069.6 L246.8,3068.7 L242.1,3068.5 L243.4,3056.0 L244.6,3039.5 L249.7,3040.0 L254.9,3040.9 L261.6,3042.9 L266.6,3044.7 L271.0,3046.8 L275.3,3048.8 L279.3,3051.1 L282.7,3053.6 L287.0,3057.1 L291.6,3060.5 L292.7,3061.1 L293.6,3061.4 L306.3,3060.8 L306.4,3063.6 L305.6,3064.9 L296.2,3065.8 L298.6,3070.7 L300.2,3070.1 L301.8,3071.6 L302.7,3073.1 L303.5,3074.1 L305.5,3076.7 L306.2,3079.6 L309.3,3083.8 L316.5,3088.4 L325.4,3092.9 L336.1,3099.6 L341.0,3101.9 L351.3,3107.8 L356.1,3110.3 L365.0,3113.6 L382.4,3118.3 L392.6,3120.7 L401.9,3121.7 L406.8,3122.3 L407.9,3122.2 L408.4,3121.6 L408.6,3118.3 L420.1,3118.2 L420.3,3122.0 L444.5,3123.2 L468.2,3123.9 L484.2,3123.3 L489.5,3122.9 L493.3,3122.4 L496.5,3121.5 L499.4,3119.8 L500.8,3117.4 L500.3,3078.7 L510.0,3078.1 L510.9,3115.9 L511.4,3116.9 L513.4,3118.2 L515.6,3118.9 L567.3,3118.9 L567.1,3102.3 L571.2,3102.2 L572.8,3118.9 L604.7,3118.7 L604.8,3116.9 L607.9,3116.8 L608.0,3118.1 L820.7,3114.1 L836.2,3112.2 L855.0,3111.7 L872.8,3114.0 L878.7,3113.5 L883.1,3112.7 L887.1,3111.2 L892.4,3109.3 L999.3,3107.3 L999.3,3100.0 L1059.1,3098.9 L1059.2,3107.1 L1084.6,3107.9 L1086.5,3107.9 L1088.3,3107.8 L1090.7,3107.4 L1092.6,3106.9 L1094.4,3106.4 L1097.5,3104.9 L1099.0,3107.4 L1102.1,3105.4 L1104.9,3103.1 L1107.4,3100.6 L1109.5,3097.6 L1111.4,3094.0 L1107.8,3092.0 L1108.8,3088.9 L1109.4,3085.7 L1109.7,3082.7 L1109.8,3080.4 L1109.7,3078.2 L1109.4,3059.2 L1106.3,3056.5 L1108.9,3053.7 L1106.3,3051.4 L1109.3,3047.8 L1106.0,3045.0 L1108.6,3042.3 L1106.0,3039.7 L1109.0,3036.5 L1105.9,3033.3 L1112.5,3026.1 L1113.6,3026.1 L1110.7,2918.8 L1134.8,2918.2 L1135.9,2918.8 L1137.3,2919.8 L1138.2,2920.7 L1138.6,2921.7 L1139.0,2922.9 L1139.0,2924.1 L1141.1,3090.7 L1142.0,3096.2 L1143.4,3099.8 L1145.5,3104.3 L1147.9,3108.7 L1150.5,3112.2 L1152.5,3114.3 L1154.8,3116.1 L1157.3,3117.6 L1159.9,3118.6 L1163.5,3119.6 L1168.0,3120.5 L1173.4,3121.5 L1179.7,3122.6 L1185.7,3123.9 L1192.4,3125.1 L1198.7,3126.5 L1200.7,3126.9 L1203.1,3127.3 L1205.5,3127.6 L1207.6,3127.7 L1210.0,3127.7 L1211.9,3127.6 L1213.7,3127.3 L1215.3,3126.9 L1217.0,3126.3 L1218.5,3125.7 L1221.3,3124.3 L1223.9,3122.8 L1226.4,3120.9 L1229.4,3118.1 L1232.2,3115.0 L1233.7,3112.4 L1235.0,3109.1 L1235.7,3106.4 L1236.1,3103.6 L1236.4,3100.9 L1236.4,3098.4 L1232.7,2919.8 L1237.9,2914.4 L1239.8,2914.2 L1240.5,2913.5 L1251.4,2913.3 L1252.4,2911.6 L1254.0,2912.1 L1256.7,2914.7 L1258.6,2917.3 L1260.5,2920.6 L1264.1,3120.2 L1264.5,3123.7 L1265.1,3130.7 L1265.8,3132.0 L1265.3,3132.4 L1266.2,3134.3 L1267.4,3136.6 L1268.3,3138.1 L1269.6,3139.9 L1271.2,3141.8 L1273.1,3143.7 L1275.5,3145.7 L1277.6,3147.3 L1279.9,3148.6 L1282.1,3149.6 L1284.5,3150.4 L1284.8,3149.7 L1317.9,3161.7 L1322.0,3163.2 L1323.9,3163.9 L1326.9,3165.0 L1329.0,3165.5 L1330.8,3165.8 L1332.6,3165.8 L1334.9,3165.6 L1337.6,3165.3 L1339.8,3164.8 L1342.2,3164.1 L1344.0,3163.4 L1345.8,3162.6 L1347.3,3161.6 L1349.2,3160.3 L1351.6,3158.2 L1353.8,3156.0 L1356.2,3153.0 L1357.9,3150.2 L1359.3,3147.1 L1360.3,3143.7 L1360.9,3140.1 L1361.2,3133.9 L1361.1,3121.1 L1357.4,2918.1 L1357.4,2915.9 L1357.9,2914.3 L1358.6,2913.0 L1360.0,2911.7 L1361.6,2910.9 L1363.5,2910.6 L1378.6,2910.1 L1380.3,2910.4 L1382.0,2911.1 L1383.1,2912.2 L1384.4,2914.1 L1385.2,2916.8 L1385.6,2920.5 L1389.4,3180.9 L1389.6,3182.4 L1389.9,3184.0 L1390.3,3185.6 L1390.8,3187.4 L1391.4,3189.1 L1392.1,3190.7 L1392.8,3192.0 L1393.4,3193.3 L1394.4,3194.7 L1395.4,3196.1 L1396.4,3197.3 L1397.8,3198.8 L1399.2,3200.1 L1400.7,3201.4 L1402.4,3202.6 L1407.0,3205.5 L1407.5,3205.0 L1411.5,3207.2 L1416.3,3209.9 L1419.1,3211.4 L1422.1,3213.2 L1425.3,3215.0 L1428.5,3217.0 L1432.1,3219.3 L1435.8,3221.5 L1439.4,3223.7 L1442.3,3225.5 L1445.7,3227.7 L1449.2,3230.0 L1452.6,3232.2 L1455.8,3234.4 L1455.5,3234.8 L1459.9,3237.9 L1464.4,3240.9 L1465.8,3241.7 L1467.4,3242.6 L1469.5,3243.7 L1471.6,3244.4 L1473.8,3245.0 L1475.8,3245.5 L1478.0,3245.9 L1480.6,3246.1 L1482.8,3246.2 L1484.6,3246.0 L1486.3,3245.7 L1488.3,3245.1 L1490.4,3244.4 L1492.3,3243.8 L1494.0,3243.0 L1495.8,3242.0 L1497.6,3240.9 L1499.3,3239.5 L1500.9,3238.1 L1502.5,3236.5 L1503.9,3234.9 L1505.5,3232.7 L1506.7,3230.5 L1507.9,3228.1 L1508.6,3226.2 L1509.2,3224.2 L1509.5,3222.0 L1509.7,3219.9 L1509.6,3217.4 L1479.9,2933.5 L1482.0,2933.4 L1480.4,2919.1 L1478.8,2919.2 L1477.6,2912.7 L1478.0,2911.3 L1479.3,2909.4 L1481.9,2907.4 L1485.2,2907.0 L1498.7,2906.6 L1500.9,2907.0 L1502.5,2907.7 L1504.1,2909.0 L1505.3,2910.2 L1506.0,2911.5 L1538.5,3229.9 L1539.3,3232.7 L1540.7,3236.1 L1541.9,3238.3 L1543.2,3240.6 L1544.9,3242.9 L1546.3,3244.5 L1547.8,3246.1 L1549.5,3247.5 L1551.0,3248.6 L1553.2,3249.9 L1555.0,3250.9 L1557.5,3251.9 L1559.8,3252.6 L1562.3,3253.2 L1564.4,3253.4 L1566.1,3253.5 L1568.1,3253.5 L1638.8,3252.1 L1641.1,3251.8 L1643.3,3250.7 L1644.8,3249.3 L1646.0,3247.1 L1646.3,3245.1 L1646.3,3243.1 L1610.5,2902.1 L1579.0,2861.0 L1577.6,2862.1 L1550.2,2823.8 L1549.7,2815.8 L1548.9,2814.1 L1547.4,2812.5 L1545.6,2809.9 L1545.4,2806.1 L1542.1,2804.9 L1539.0,2804.8 L1534.8,2806.9 L1539.6,2815.9 L1533.5,2818.8 L1528.9,2814.6 L1525.1,2812.2 L1522.4,2811.3 L1515.9,2811.1 L1512.6,2804.3 L1533.3,2795.8 L1532.4,2794.2 L1528.0,2788.2 L1527.3,2788.6 L1372.8,2586.4 L1370.5,2553.0 L1371.7,2552.7 L1365.7,2491.5 L1363.4,2485.9 L1361.0,2479.5 L1359.0,2474.6 L1356.8,2468.4 L1349.2,2447.3 L1346.2,2448.7 L1341.8,2431.7 L1342.5,2431.5 L1327.0,2389.4 L1325.3,2315.7 L1327.1,2315.7 L1327.3,2309.2 L1328.2,2302.9 L1328.5,2300.5 L1327.9,2298.6 L1330.0,2288.5 L1349.2,2254.7 L1339.1,2248.5 L1346.5,2236.2 L1356.3,2241.9 L1357.1,2240.6 L1360.2,2242.1 L1363.5,2243.5 L1367.2,2244.7 L1370.1,2245.3 L1372.8,2245.3 L1376.0,2244.8 L1379.2,2243.7 L1382.3,2242.5 L1383.7,2241.0 L1384.3,2239.0 L1385.0,2236.5 L1385.2,2235.5 L1385.1,2234.2 L1384.4,2232.3 L1383.1,2230.5 L1381.6,2229.4 L1379.4,2227.3 L1377.5,2225.3 L1374.7,2223.5 L1373.5,2220.7 L1372.2,2217.8 L1370.1,2214.5 L1367.6,2211.5 L1363.1,2208.3 L1341.3,2197.0 L1328.4,2190.7 L1316.4,2184.1 L1304.9,2177.8 L1297.5,2173.0 L1294.7,2172.2 L1291.5,2173.2 L1289.8,2175.4 L1286.2,2184.2 L1264.1,2174.3 L1277.4,2153.5 L1280.2,2152.1 L1283.8,2151.4 L1287.9,2152.3 L1370.8,2200.8 L1375.3,2202.1 L1380.0,2203.2 L1386.7,2203.4 L1393.4,2202.2 L1397.7,2200.5 L1402.4,2196.7 L1405.1,2194.0 L1408.1,2189.9 L1408.1,2189.3 L1407.9,2188.8 L1407.4,2188.4 L1380.6,2171.8 L1379.9,2171.6 L1379.3,2171.6 L1378.5,2171.6 L1376.0,2172.7 L1375.1,2172.8 L1374.0,2172.7 L1372.4,2172.5 L1371.3,2172.1 L1369.6,2171.3 L1367.9,2170.3 L1331.0,2147.9 L1313.7,2135.6 L1312.0,2135.4 L1310.4,2135.5 L1308.5,2135.5 L1307.1,2135.3 L1306.1,2134.8 L1304.7,2133.8 L1303.3,2132.6 L1302.3,2131.3 L1301.7,2129.8 L1301.6,2128.8 L1301.7,2127.5 L1302.0,2126.3 L1307.9,2116.4 L1307.9,2115.9 L1307.5,2115.6 L1302.1,2111.8 L1301.0,2110.2 L1301.6,2109.3 L1303.4,2109.5 L1305.3,2110.1 L1316.4,2117.0 L1379.3,2157.1 L1380.5,2157.8 L1381.4,2158.8 L1382.0,2159.9 L1382.7,2162.2 L1383.2,2164.0 L1383.4,2165.5 L1411.8,2182.6 L1412.8,2183.0 L1414.0,2183.2 L1415.4,2182.9 L1416.4,2182.6 L1417.3,2182.2 L1447.8,2132.7 L1460.6,2114.0 L1472.6,2100.5 L1478.6,2103.8 L1482.5,2097.6 L1461.8,2085.2 L1466.2,2077.9 L1486.9,2090.4 L1491.6,2082.8 L1487.8,2078.6 L1491.6,2074.3 L1495.7,2079.0 L1496.7,2078.2 L1497.8,2077.5 L1499.4,2076.5 L1501.1,2075.7 L1503.1,2075.0 L1505.1,2074.5 L1507.2,2074.1 L1509.3,2074.0 L1511.3,2074.0 L1513.2,2074.3 L1515.1,2074.7 L1516.7,2075.2 L1518.0,2075.8 L1519.9,2076.7 L1521.7,2077.8 L1523.1,2078.9 L1524.6,2080.2 L1526.0,2081.5 L1527.5,2083.5 L1528.5,2085.2 L1529.6,2087.4 L1530.3,2089.7 L1530.9,2092.8 L1531.1,2095.5 L1531.0,2097.1 L1530.8,2098.6 L1530.3,2101.1 L1528.9,2104.3 L1528.0,2106.5 L1526.8,2109.0 L1531.9,2111.6 L1556.2,2082.6 L1512.0,2055.7 L1514.3,2051.0 L1515.8,2046.5 L1515.9,2044.6 L1518.5,2039.1 L1523.7,2034.3 L1530.3,2029.0 L1538.0,2024.0 L1552.5,2019.8 L1577.7,2017.3 L1587.5,2009.3 L1589.6,2008.9 L1591.2,2008.9 L1593.6,2009.8 L1595.8,2010.0 L1609.7,2018.4 L1646.4,1974.9 L1511.9,1889.4 L1503.6,1902.5 L1485.4,1891.1 L1511.2,1850.6 L1529.3,1861.7 L1521.2,1875.5 L1658.1,1961.8 L1675.3,1939.7 L1687.5,1925.2 L1703.6,1901.0 L1712.5,1888.7 L1711.6,1881.8 L1711.8,1881.6 L1710.3,1876.4 L1709.2,1873.3 L1708.2,1870.0 L1707.0,1867.1 L1704.7,1863.3 L1702.4,1859.7 L1701.4,1857.8 L1700.6,1855.9 L1700.1,1854.1 L1699.9,1852.6 L1699.6,1847.5 L1640.6,1793.3 L1638.6,1795.4 L1637.0,1794.0 L1632.2,1798.7 L1629.0,1794.5 L1632.8,1790.1 L1629.0,1785.3 L1626.4,1785.9 L1623.7,1786.0 L1621.2,1785.6 L1619.1,1784.7 L1616.6,1782.9 L1613.5,1779.8 L1608.1,1773.8 L1606.4,1771.2 L1605.8,1768.0 L1606.2,1764.3 L1607.6,1760.7 L1608.9,1758.3 L1611.3,1756.0 L1613.9,1754.2 L1616.5,1753.2 L1618.4,1752.9 L1620.9,1753.3 L1623.4,1754.3 L1625.8,1756.1 L1631.4,1761.2 L1634.2,1763.9 L1636.9,1766.7 L1637.7,1768.1 L1638.3,1769.5 L1638.6,1770.8 L1638.9,1772.6 L1638.6,1774.3 L1638.1,1775.9 L1637.4,1777.1 L1637.2,1777.6 L1637.3,1778.3 L1637.8,1779.1 L1701.2,1838.5 L1703.4,1840.0 L1704.9,1840.7 L1707.2,1840.2 L1709.7,1839.9 L1713.0,1841.4 L1716.4,1843.4 L1722.8,1847.1 L1725.5,1848.3 L1727.9,1845.9 L1730.6,1843.4 L1732.5,1841.3 L1735.5,1837.4 L1737.2,1835.1 L1738.9,1832.1 L1740.1,1829.6 L1741.4,1826.9 L1742.5,1824.0 L1743.5,1821.2 L1744.2,1818.7 L1744.9,1815.6 L1745.1,1813.8 L1745.4,1812.3 L1745.7,1809.6 L1746.0,1807.0 L1746.2,1805.3 L1746.3,1803.4 L1746.3,1801.3 L1746.2,1799.5 L1745.8,1797.0 L1745.5,1794.1 L1745.1,1791.5 L1744.8,1789.4 L1744.5,1787.7 L1744.1,1786.1 L1743.7,1784.3 L1743.1,1782.4 L1742.4,1780.4 L1741.9,1779.1 L1741.3,1777.9 L1740.5,1776.8 L1739.3,1775.1 L1738.1,1773.6 L1736.7,1772.3 L1735.0,1770.9 L1733.3,1769.8 L1731.5,1768.9 L1729.9,1768.2 L1728.8,1767.9 L1727.5,1767.7 L1726.1,1767.8 L1724.7,1768.1 L1723.6,1768.5 L1722.5,1769.3 L1721.7,1770.1 L1721.1,1770.9 L1720.7,1772.0 L1720.4,1773.3 L1720.5,1774.7 L1720.6,1776.5 L1720.6,1777.8 L1720.5,1779.1 L1720.3,1780.4 L1720.0,1781.5 L1719.6,1782.8 L1718.9,1784.1 L1718.1,1785.3 L1717.2,1786.4 L1716.3,1787.3 L1714.7,1788.6 L1713.2,1789.5 L1711.1,1790.2 L1709.8,1790.5 L1708.3,1790.7 L1706.9,1790.7 L1705.1,1790.7 L1703.8,1790.4 L1702.0,1790.0 L1699.5,1789.3 L1697.4,1788.5 L1695.8,1787.8 L1694.2,1786.9 L1692.8,1785.9 L1691.1,1784.7 L1689.9,1783.6 L1688.8,1782.5 L1687.7,1781.2 L1686.8,1780.0 L1686.0,1778.8 L1685.3,1777.5 L1684.4,1775.7 L1683.8,1774.0 L1683.1,1772.2 L1682.6,1770.8 L1682.3,1769.5 L1682.0,1768.2 L1681.8,1766.1 L1681.7,1764.2 L1681.8,1762.2 L1682.2,1759.5 L1682.9,1756.9 L1683.9,1754.2 L1684.6,1753.0 L1685.2,1752.2 L1690.4,1745.7 L1691.5,1744.3 L1693.1,1743.6 L1694.7,1743.0 L1696.6,1742.6 L1698.7,1742.3 L1700.5,1742.2 L1702.2,1742.3 L1704.0,1742.5 L1706.1,1743.1 L1708.2,1744.2 L1710.1,1745.3 L1711.8,1746.6 L1717.0,1751.4 L1718.2,1751.8 L1718.9,1751.9 L1719.8,1751.8 L1720.3,1751.6 L1721.0,1750.8 L1721.3,1750.0 L1721.4,1748.8 L1721.4,1747.9 L1721.2,1747.4 L1710.7,1737.0 L1725.0,1721.8 L1724.2,1719.9 L1732.4,1711.8 L1748.4,1727.7 L1735.5,1744.0 L1735.5,1745.0 L1736.1,1745.3 L1736.9,1745.2 L1750.9,1727.6 L1755.1,1722.6 L1755.2,1721.5 L1754.8,1720.4 L1754.1,1719.6 L1743.1,1709.2 L1745.8,1706.0 L1743.1,1703.6 L1744.6,1699.9 L1773.2,1671.3 L1782.9,1669.6 L1786.0,1669.2 L1788.9,1668.7 L1790.3,1668.4 L1791.9,1667.6 L1793.7,1666.5 L1795.2,1665.0 L1796.6,1663.3 L1811.2,1642.2 L1811.5,1641.6 L1811.3,1640.9 L1811.1,1640.4 L1810.7,1639.9 L1809.0,1638.9 L1808.6,1638.6 L1808.1,1638.6 L1807.7,1638.9 L1806.8,1639.6 L1794.5,1651.0 L1789.8,1654.4 L1770.3,1634.4 L1772.6,1627.3 L1773.5,1625.2 L1776.5,1619.6 L1780.1,1613.4 L1782.3,1611.0 L1786.1,1606.9 L1790.2,1602.3 L1794.7,1597.6 L1798.6,1594.3 L1800.4,1592.6 L1802.8,1590.9 L1805.1,1589.6 L1808.3,1588.2 L1810.3,1587.5 L1812.3,1586.9 L1813.8,1586.8 L1816.0,1586.9 L1817.9,1587.2 L1820.0,1587.7 L1822.1,1589.4 L1823.3,1591.2 L1824.1,1593.0 L1824.4,1595.7 L1824.2,1599.3 L1823.8,1603.2 L1822.9,1607.1 L1817.8,1618.6 L1812.9,1628.9 L1814.6,1631.7 L1815.5,1632.2 L1816.5,1632.2 L1817.3,1632.1 L1818.0,1631.6 L1821.3,1626.9 L1825.6,1624.7 L1834.2,1601.9 L1834.7,1600.8 L1835.6,1599.8 L1836.5,1599.3 L1837.2,1599.1 L1838.4,1599.1 L1839.6,1599.4 L1845.8,1601.2 L1847.1,1601.4 L1848.4,1601.4 L1849.7,1601.2 L1850.8,1600.8 L1851.7,1600.1 L1852.6,1598.9 L1863.1,1584.9 L1863.6,1583.9 L1863.8,1582.8 L1863.8,1581.7 L1863.6,1580.6 L1863.3,1579.8 L1862.6,1579.0 L1861.9,1578.4 L1860.9,1577.9 L1860.0,1577.6 L1859.0,1577.6 L1858.2,1577.7 L1857.3,1578.1 L1856.6,1578.7 L1856.0,1579.4 L1853.3,1583.8 L1852.7,1584.7 L1852.0,1585.5 L1850.9,1586.4 L1850.0,1586.9 L1848.8,1587.3 L1847.4,1587.5 L1846.6,1587.5 L1845.6,1587.4 L1844.6,1587.2 L1843.8,1586.8 L1835.2,1579.0 L1834.2,1577.8 L1833.5,1576.7 L1832.8,1575.3 L1832.3,1574.2 L1832.0,1573.0 L1831.8,1571.7 L1831.6,1570.1 L1831.6,1568.5 L1831.7,1567.1 L1831.9,1566.0 L1832.2,1565.0 L1832.5,1564.2 L1848.2,1539.3 L1849.2,1537.7 L1849.8,1536.8 L1850.5,1536.4 L1851.6,1535.9 L1852.8,1535.5 L1854.0,1535.4 L1854.7,1535.4 L1855.3,1535.5 L1855.9,1535.7 L1856.7,1536.0 L1857.6,1536.6 L1859.2,1538.0 L1866.3,1544.6 L1867.5,1546.3 L1868.3,1548.0 L1868.9,1549.9 L1869.1,1551.4 L1869.2,1553.0 L1869.2,1554.4 L1869.1,1555.7 L1868.8,1557.1 L1868.5,1558.0 L1867.7,1559.9 L1864.9,1565.1 L1864.5,1566.3 L1864.5,1567.8 L1864.6,1568.9 L1865.1,1569.7 L1865.8,1570.5 L1867.0,1571.4 L1868.0,1571.9 L1869.1,1572.2 L1870.5,1572.2 L1871.6,1571.9 L1872.9,1571.3 L1874.0,1570.3 L1892.5,1544.9 L1886.8,1539.8 L1890.2,1536.1 L1895.3,1540.9 L1905.6,1527.3 L1921.4,1506.3 L1858.0,1445.5 L1844.2,1460.0 L1828.1,1444.7 L1843.7,1427.9 L1841.6,1425.7 L1844.9,1422.7 L1846.9,1424.7 L1857.8,1412.9 L1867.5,1421.9 L1868.6,1429.4 L1909.7,1467.7 L1917.7,1470.8 L1924.0,1468.6 L1936.2,1473.4 L1944.2,1470.4 L1968.2,1441.2 L1969.5,1438.4 L1969.9,1434.7 L1968.8,1431.1 L1967.1,1428.5 L1953.0,1415.4 L1953.1,1411.8 L1955.9,1404.7 L1961.6,1394.3 L1950.5,1387.1 L1954.7,1385.6 L1957.4,1383.8 L1960.0,1380.8 L1963.1,1372.9 L1968.8,1358.4 L1972.5,1355.0 L1937.4,1321.0 L1929.7,1325.8 L1927.9,1326.3 L1926.2,1326.3 L1924.0,1326.0 L1922.2,1325.5 L1920.4,1324.5 L1919.0,1323.2 L1900.8,1305.7 L1897.4,1302.4 L1896.0,1300.6 L1894.7,1298.3 L1894.1,1296.2 L1893.9,1294.2 L1893.9,1292.4 L1894.3,1290.5 L1894.7,1289.1 L1895.3,1288.0 L1896.6,1286.2 L1898.1,1284.4 L1906.3,1275.9 L1968.3,1333.3 L1964.0,1338.1 L2010.0,1381.6 L2063.0,1304.1 L2029.3,1272.6 L2025.0,1276.5 L1962.3,1217.3 L1970.5,1209.6 L2006.6,1243.4 L2010.2,1238.1 L2012.1,1235.5 L2014.7,1232.8 L2017.6,1229.6 L2020.6,1227.7 L2025.4,1223.7 L2030.1,1219.3 L2039.3,1210.7 L2061.0,1186.2 L2064.9,1182.1 L2079.3,1174.8 L2092.9,1164.2 L2094.2,1163.1 L2097.7,1160.4 L2099.2,1159.0 L2100.5,1157.4 L2101.3,1155.8 L2101.9,1154.1 L2102.6,1152.9 L2103.3,1151.5 L2104.6,1149.3 L2105.5,1148.0 L2106.4,1146.8 L2108.0,1145.4 L2109.6,1144.4 L2111.4,1143.3 L2115.5,1141.3 L2119.6,1139.3 L2120.1,1139.2 L2120.8,1139.3 L2122.0,1139.7 L2125.2,1141.3 L2127.7,1142.5 L2128.8,1143.2 L2129.8,1144.0 L2146.6,1159.9 L2147.7,1160.6 L2153.1,1162.0 L2154.9,1162.5 L2156.9,1162.7 L2158.3,1162.6 L2159.5,1162.2 L2160.7,1161.5 L2166.6,1153.1 L2166.6,1151.9 L2166.4,1150.8 L2165.7,1149.7 L2164.8,1148.6 L2160.2,1144.4 L2160.5,1143.7 L2166.4,1131.3 L2176.4,1111.1 L2185.5,1104.4 L2190.7,1099.1 L2194.4,1095.0 L2198.1,1091.1 L2202.4,1087.7 L2204.9,1085.4 L2207.6,1082.9 L2209.6,1080.9 L2210.6,1079.1 L2211.4,1077.7 L2211.9,1076.3 L2212.1,1074.7 L2212.2,1073.2 L2215.3,1070.1 L2219.7,1065.8 L2227.3,1059.7 L2235.1,1053.7 L2238.6,1048.8 L2239.9,1043.7 L2243.8,1041.4 L2248.7,1041.3 L2253.7,1038.3 L2258.0,1030.5 L2257.9,1022.3 L2258.7,1009.7 L2260.0,1007.9 L2260.7,1006.7 L2262.1,1004.4 L2260.3,999.1 L2262.3,996.6 L2272.2,984.3 L2289.3,964.4 L2292.5,959.7 L2293.8,957.3 L2299.2,949.8 L2300.7,945.2 L2300.7,937.9 L2300.5,930.7 L2300.5,923.3 L2302.7,915.1 L2306.4,907.0 L2311.7,899.3 L2315.5,893.6 L2320.1,887.8 L2328.9,878.0 L2367.9,858.7 L2373.1,857.4 L2374.4,860.2 L2375.9,862.9 L2376.4,863.4 L2377.2,863.0 L2377.4,861.1 L2376.8,859.5 L2379.0,858.9 L2387.0,856.5 L2397.4,853.4 L2405.8,850.9 L2408.7,850.0 L2405.8,840.6 L2410.9,839.2 L2419.6,838.0 L2420.7,837.8 L2420.7,837.2 L2420.7,835.0 L2428.5,834.6 L2440.8,834.1 L2445.6,836.5 L2457.4,879.2 L2460.1,881.7 L2455.0,887.0 L2459.5,891.5 L2464.0,896.0 L2469.4,890.5 L2569.6,985.8 L2703.4,843.0 L2750.2,887.7 L2752.0,887.1 L2752.7,887.9 L2755.8,886.0 L2758.4,885.0 L2761.2,883.8 L2765.9,881.3 L2768.8,879.7 L2772.3,877.7 L2775.4,875.7 L2778.0,874.0 L2780.4,872.4 L2783.3,870.3 L2786.4,868.0 L2788.9,865.9 L2791.5,863.7 L2794.3,860.9 L2797.1,858.2 L2803.4,851.6 L2807.1,847.0 L2810.9,842.1 L2813.4,838.5 L2815.8,834.8 L2818.6,829.6 L2821.1,824.5 L2823.1,820.4 L2824.8,816.3 L2825.9,813.5 L2827.0,810.4 L2829.8,807.1 L2744.2,725.7 L2745.3,724.5 L2755.5,713.6 L2763.0,705.7 L2763.7,704.9 L2785.4,725.2 L2790.7,722.5 L2791.3,723.2 L2842.3,696.7 L2844.4,695.5 L2845.8,694.4 L2847.2,693.1 L2848.7,691.5 L2850.3,689.3 L2851.5,687.2 L2852.4,685.6 L2853.0,683.5 L2853.6,681.3 L2853.8,678.9 L2853.8,676.1 L2853.6,673.9 L2853.2,671.9 L2852.5,669.6 L2836.6,623.7 L2834.4,616.2 L2835.0,613.6 L2796.5,604.0 L2798.3,597.4 L2799.8,591.4 L2811.2,546.2 L2802.3,520.0 L2797.2,503.0 L2795.6,498.7 L2809.4,486.0 L2825.0,477.7 L2825.9,479.0 L2827.4,481.1 L2831.0,485.7 L2831.3,485.3 L2831.4,483.7 L2826.6,477.1 L2835.2,470.8 L2837.1,469.7 L2841.7,475.6 L2842.4,476.2 L2843.2,476.3 L2843.6,476.2 L2843.6,475.8 L2822.2,446.5 L2820.6,444.8 L2818.8,442.3 L2809.5,431.1 L2817.4,406.4 L2823.6,400.1 L2830.6,396.8 L2845.6,387.9 L2848.7,384.7 L2862.1,372.9 L2866.4,377.4 L2878.8,390.8 L2890.4,381.1 L2898.1,388.5 L2905.1,395.4 L2905.5,395.7 L2911.4,390.6 L2919.1,399.0 L2925.9,407.6 L2930.8,413.3 L2931.5,414.0 L2945.9,401.4 L2946.6,400.8 L2943.2,396.6 L2951.1,390.2 L2974.8,417.9 L2995.1,404.6 L2997.1,402.7 L3005.9,399.0 L3007.9,397.0 L3009.8,394.5 L3020.6,384.9 L3018.2,381.5 L2998.8,385.9 L2976.6,360.7 L2979.1,358.5 L2982.5,362.4 L2998.2,348.9 L3014.9,367.1 L3019.4,368.9 L3022.0,370.5 L3025.5,374.3 L3027.3,372.7 L3015.2,359.0 L3022.6,352.5 L3037.6,370.5 L3039.5,369.1 L3039.3,368.7 L3072.1,345.0 L3081.8,337.8 L3050.0,298.0 L3056.8,293.3 L3084.5,325.7 L3104.9,329.4 L3118.5,321.6 L3120.3,320.4 L3120.2,318.9 L3119.3,317.1 L3129.9,310.5 L3132.9,313.6 L3141.9,308.3 L3135.4,300.3 L3104.2,258.7 L3126.2,235.8 L3140.7,214.5 L3141.0,197.8 L3133.3,175.6 L3149.5,162.1 L3166.6,155.5 L3172.1,154.3 L3176.6,153.7 L3182.1,154.0 L3187.9,155.4 L3196.1,162.4 L3217.5,188.6 L3234.6,210.3 L3255.0,223.9 L3263.1,225.2 L3270.3,226.1 L3276.4,226.3 L3284.2,225.8 L3292.7,224.4 L3299.5,222.4 L3305.3,219.7 L3309.1,217.4 L3312.0,214.5 L3316.8,208.6 L3322.0,199.1 L3327.6,186.5 L3337.7,191.7 L3341.7,193.0 L3346.0,193.7 L3352.9,193.2 L3357.4,191.9 L3362.6,189.6 L3367.5,186.8 L3372.6,181.8 L3377.0,177.8 L3382.5,174.1 L3386.3,171.6 L3391.9,169.6 L3401.5,166.8 L3407.2,165.2 L3413.4,162.9 L3418.7,160.2 L3421.8,158.3 L3424.3,155.8 L3457.0,139.4 L3458.2,138.7 L3459.7,137.7 L3461.2,136.6 L3463.4,135.3 L3464.9,134.6 L3466.4,133.3 L3467.6,132.0 L3469.2,131.0 L3470.9,129.8 L3473.2,127.7 L3476.4,127.4 L3479.7,127.0 L3481.8,126.4 L3484.6,125.1 L3488.0,123.5 L3491.7,121.3 L3493.8,119.3 L3496.1,116.7 L3497.5,114.2 L3498.3,111.9 L3498.3,110.4 L3498.4,109.0 L3499.2,103.9 L3517.4,93.3 L3549.3,74.9 L3555.5,71.4 L3609.6,40.1 L3668.2,6.5 L3693.1,-7.8 L3701.8,-12.6 L3774.3,-54.7 L3790.3,-63.6 L3790.1,-64.2 L3823.3,-82.9 L3836.0,-90.0 L3859.5,-103.1 L3859.7,-102.7 L3868.8,-107.7 L3890.9,-120.0 L3893.6,-122.4 L3916.0,-138.9 L3927.1,-148.1 L3937.4,-156.8 L3942.1,-159.4 L3952.7,-169.9 L3953.6,-169.3 L3955.0,-169.5 L3955.7,-169.0 L3970.6,-186.5 L3966.9,-190.0 L3967.4,-190.9 L3969.0,-193.2 L3973.2,-198.7 L3975.8,-202.6 L3977.9,-205.8 L3980.7,-210.2 L3983.5,-214.7 L3986.6,-219.9 L3989.8,-225.4 L3996.8,-239.8 L3998.9,-244.4 L4000.6,-248.0 L4001.9,-250.7 L4002.9,-252.9 L4005.1,-258.3 L3947.2,-366.3 L3946.1,-368.4 L3945.3,-369.6 L3944.6,-370.4 L3943.8,-371.1 L3943.1,-371.6 L3942.1,-372.2 L3941.0,-372.6 L3940.1,-372.8 L3939.2,-372.9 L3937.9,-372.9 L3936.4,-372.7 L3935.0,-372.3 L3933.6,-371.6 L3920.1,-363.8 L3902.6,-353.7 L3890.3,-346.9 L3868.0,-334.7 L3854.3,-327.2 L3854.8,-326.3 L3849.0,-323.0 L3829.8,-313.1 L3815.6,-304.7 L3807.3,-300.1 L3794.5,-292.7 L3793.1,-291.8 L3781.9,-311.8 L3803.9,-323.8 L3833.8,-340.0 L3854.1,-351.4 L3856.6,-352.8 L3856.3,-353.4 L3873.8,-362.9 L3883.2,-368.1 L3904.7,-378.6 L3908.7,-380.6 L3941.1,-398.6 L3953.2,-405.3 L3961.8,-409.9 L3971.9,-415.7 L3985.9,-390.4 L3963.9,-378.4 L3962.8,-376.6 L3962.3,-374.6 L3962.1,-373.1 L3962.1,-371.8 L3962.2,-370.8 L3962.6,-369.3 L4007.4,-286.4 L4008.3,-285.1 L4009.3,-284.2 L4010.2,-283.5 L4011.3,-283.2 L4012.4,-283.0 L4013.5,-283.1 L4014.4,-283.4 L4034.3,-298.5 L4043.6,-306.3 L4053.3,-314.4 L4057.0,-317.8 L4068.9,-327.6 L4069.5,-327.6 L4081.0,-337.5 L4081.1,-338.1 L4088.7,-344.3 L4094.7,-349.3 L4105.0,-357.8 L4105.9,-356.6 L4116.0,-364.9 L4121.1,-369.2 L4135.3,-380.9 L4145.1,-389.1 L4144.2,-390.5 L4147.5,-393.3 L4152.8,-397.7 L4156.1,-400.6 L4170.1,-406.8 L4179.5,-410.2 L4184.4,-412.5 L4197.9,-412.6 L4202.7,-412.6 L4212.7,-412.0 L4224.5,-411.5 L4225.4,-412.4 L4226.5,-410.8 L4230.2,-410.7 L4263.9,-407.8 L4267.8,-406.9 L4271.2,-406.4 L4279.0,-405.7 L4293.6,-405.0 L4296.8,-405.0 L4299.8,-405.0 L4311.5,-405.5 L4317.5,-405.8 L4323.4,-406.4 L4332.5,-407.3 L4332.5,-406.8 L4339.7,-408.0 L4346.6,-409.3 L4351.9,-410.3 L4358.7,-415.5 L4359.6,-414.3 L4360.4,-413.2 L4421.2,-332.7 L4567.9,-282.2 L4837.3,-480.0 L4910.6,-532.8 L4939.0,-593.3 L4893.9,-652.4 L4895.9,-660.8 L4903.8,-663.0 L4919.0,-659.8 L4929.8,-663.9 L4932.8,-668.1 L4932.1,-671.7 L4924.1,-687.6 L4923.5,-693.5 L4923.1,-705.2 L4921.7,-716.4 L4923.1,-718.5 L4927.7,-720.6 L4933.2,-721.9 L4937.2,-726.2 L4938.1,-731.4 L4934.7,-741.5 L4934.4,-748.4 L4935.4,-756.3 L4940.9,-770.2 L4939.8,-776.6 L4937.1,-783.7 L4937.0,-793.4 L4935.4,-806.2 L4932.4,-814.2 L4930.7,-818.4 L4931.8,-820.3 L4933.0,-820.1 L4933.3,-820.9 L4933.4,-821.9 L4933.4,-822.9 L4931.7,-823.1 L4930.5,-824.7 L4930.7,-826.5 L4929.2,-826.9 L4927.4,-827.0 L4927.1,-826.5 L4923.4,-831.0 L4922.6,-832.4 L4921.9,-834.4 L4921.4,-836.2 L4921.1,-838.2 L4920.9,-840.3 L4920.9,-842.0 L4920.8,-843.9 L4921.0,-844.9 L4921.8,-847.4 L4922.7,-849.4 L4923.9,-851.3 L4925.6,-853.8 L4927.3,-856.2 L4929.0,-857.8 L4931.0,-859.4 L4931.4,-859.0 L4949.0,-872.4 L4951.5,-874.4 L4951.0,-875.1 L4951.0,-876.4 L4955.4,-879.8 L4956.4,-879.8 L4957.5,-879.0 L4959.3,-880.4 L4977.4,-894.0 L4977.1,-894.5 L4979.3,-896.1 L4981.8,-897.6 L4983.5,-898.4 L4986.0,-899.4 L4988.2,-899.9 L4990.3,-900.3 L4992.6,-900.5 L4994.1,-900.3 L4996.0,-900.0 L4997.9,-899.4 L4999.3,-898.7 L5000.7,-897.9 L5001.7,-897.2 L5002.5,-896.3 L5003.8,-895.2 L5004.3,-894.9 L5005.2,-894.9 L5006.1,-895.1 L5008.8,-897.1 L5008.9,-897.6 L5009.2,-898.0 L5009.4,-898.5 L5009.4,-899.2 L5009.3,-899.7 L5008.8,-900.3 L5006.9,-902.2 L5005.4,-903.5 L5003.6,-904.5 L5000.6,-905.7 L4998.1,-906.8 L5002.5,-909.1 L5007.9,-912.8 L5014.7,-913.7 L5021.4,-913.3 L5025.9,-915.0 L5029.7,-920.5 L5044.2,-946.5 L5050.1,-957.2 L5054.7,-968.6 L5055.5,-970.9 L5062.5,-992.1 L5063.5,-994.2 L5064.8,-996.2 L5081.1,-1016.3 L5084.5,-1019.9 L5087.1,-1022.1 L5123.4,-1053.2 L5125.3,-1054.5 L5131.6,-1057.9 L5139.0,-1062.1 L5162.2,-1074.2 L5212.8,-1101.4 L5213.9,-1100.5 L5214.9,-1100.1 L5215.8,-1099.9 L5216.7,-1100.0 L5217.6,-1100.2 L5220.3,-1100.8 L5223.4,-1101.5 L5226.3,-1102.1 L5229.2,-1102.6 L5230.8,-1103.0 L5233.1,-1103.7 L5235.5,-1104.7 L5241.6,-1108.0 L5243.8,-1109.2 L5244.9,-1109.9 L5246.1,-1110.4 L5250.8,-1112.4 L5255.9,-1114.4 L5262.4,-1117.2 L5270.1,-1120.3 L5270.4,-1120.5 L5271.0,-1120.5 L5271.9,-1120.8 L5273.1,-1121.7 L5274.4,-1122.2 L5275.9,-1122.9 L5278.7,-1124.5 L5279.7,-1125.5 L5281.4,-1126.6 L5281.2,-1126.9 L5281.9,-1127.7 L5282.9,-1128.7 L5284.3,-1129.5 L5285.6,-1129.9 L5286.9,-1130.4 L5288.2,-1131.1 L5290.6,-1132.7 L5291.4,-1133.4 L5292.1,-1134.5 L5292.4,-1135.2 L5292.4,-1136.0 L5292.4,-1136.8 L5292.5,-1137.6 L5285.5,-1146.0 L5307.5,-1158.9 L5318.0,-1164.5 L5320.1,-1165.1 L5323.3,-1164.6 L5326.8,-1159.6 L5328.4,-1158.2 L5329.9,-1157.5 L5331.2,-1157.2 L5332.4,-1157.3 L5351.4,-1165.0 L5356.5,-1167.5 L5361.3,-1170.2 L5369.0,-1174.3 L5370.6,-1174.9 L5478.0,-1219.5 L5511.6,-1235.6 L5661.9,-1307.8 L9168.4,-1336.8 L9168.4,3681.0 L1674.6,3681.0 L1674.6,3467.7 Z" fill="#add7e1" stroke="none"><title>Biscayne Bay</title></path><path d="M152.6,564.4 L150.8,570.6 L150.9,574.4 L152.3,576.9 L155.0,578.3 L158.8,578.2 L168.5,574.5 L212.6,556.5 L207.5,521.4 L298.3,506.7 L392.5,492.1 L401.2,498.4 L410.8,503.6 L419.7,507.8 L432.2,511.4 L435.0,513.9 L435.8,518.3 L444.8,514.8 L441.2,507.4 L453.0,490.9 L458.3,486.8 L458.7,480.2 L449.9,363.4 L448.4,355.3 L368.5,358.6 L367.3,322.1 L366.4,310.5 L365.0,253.4 L213.7,260.0 L218.4,318.5 L215.3,329.1 L216.0,355.4 L216.1,360.9 L141.8,363.7 L151.4,486.1 L154.4,556.2 L152.6,564.4 Z" fill="#eadde0" stroke="#d7d1c5" stroke-width="0.3"><title>Shops at Merrick Park</title></path><path d="M-63.0,105.1 L-68.7,105.6 L-73.0,106.6 L-76.0,109.2 L-77.7,113.1 L-58.8,591.3 L57.5,587.0 L72.2,583.5 L91.1,574.3 L120.6,559.2 L129.7,558.5 L110.3,159.1 L109.0,123.4 L108.1,101.7 L106.6,99.4 L104.0,98.2 L-63.0,105.1 Z" fill="#eadfc8" stroke="#d7d1c5" stroke-width="0.3"><title>Coral Gables Senior High School</title></path><path d="M107.7,495.9 L103.9,391.0 L89.0,391.6 L88.7,386.2 L86.9,386.3 L86.8,379.1 L88.4,379.0 L88.1,374.6 L101.1,373.9 L101.3,378.7 L108.3,378.4 L108.2,375.7 L103.4,375.9 L102.7,355.5 L107.2,354.9 L108.0,353.3 L107.6,352.5 L102.2,352.2 L101.4,352.8 L101.0,354.4 L101.4,359.3 L90.8,359.9 L90.4,356.3 L84.5,356.2 L84.2,345.3 L88.1,345.1 L89.6,344.3 L89.9,342.8 L89.5,341.0 L87.4,339.9 L83.4,339.8 L83.3,306.9 L104.9,305.9 L104.6,301.4 L104.3,296.6 L103.5,281.8 L103.6,277.5 L106.1,274.1 L106.8,272.3 L106.1,266.6 L99.3,267.0 L94.6,187.9 L99.4,187.8 L99.3,186.7 L105.4,186.2 L105.6,189.6 L107.8,189.4 L110.0,191.0 L111.1,191.2 L125.3,495.5 L107.7,495.9 Z" fill="#e8ecec" stroke="#d7d1c5" stroke-width="0.3"></path><path d="M71.3,195.5 L59.9,196.0 L60.1,199.8 L52.1,200.2 L52.5,208.2 L48.6,208.3 L48.9,209.8 L78.8,206.4 L71.8,206.5 L71.3,195.5 Z" fill="#dcf5d2" stroke="#9fcf91" stroke-width="0.4"></path><path d="M71.3,195.5 L59.9,196.0 L60.1,199.8 L52.1,200.2 L52.5,208.2 L48.6,208.3 L48.9,209.8 L78.8,206.4 L71.8,206.5 L71.3,195.5 Z" fill="url(#park-dots)" stroke="none"/><path d="M71.3,195.5 L59.9,196.0 L60.1,199.8 L52.1,200.2 L52.5,208.2 L48.6,208.3 L48.9,209.8 L78.8,206.4 L71.8,206.5 L71.3,195.5 Z" fill="url(#park-canopy)" stroke="none"/><path d="M6.5,133.8 L33.4,132.3 L36.2,182.6 L31.0,182.9 L9.3,184.0 L6.5,133.8 Z" fill="#dcf5d2" stroke="#9fcf91" stroke-width="0.4"></path><path d="M6.5,133.8 L33.4,132.3 L36.2,182.6 L31.0,182.9 L9.3,184.0 L6.5,133.8 Z" fill="url(#park-dots)" stroke="none"/><path d="M6.5,133.8 L33.4,132.3 L36.2,182.6 L31.0,182.9 L9.3,184.0 L6.5,133.8 Z" fill="url(#park-canopy)" stroke="none"/><path d="M51.6,131.6 L59.7,131.2 L68.3,130.8 L70.7,181.6 L62.6,182.0 L54.0,182.4 L51.6,131.6 Z" fill="#dcf5d2" stroke="#9fcf91" stroke-width="0.4"></path><path d="M51.6,131.6 L59.7,131.2 L68.3,130.8 L70.7,181.6 L62.6,182.0 L54.0,182.4 L51.6,131.6 Z" fill="url(#park-dots)" stroke="none"/><path d="M51.6,131.6 L59.7,131.2 L68.3,130.8 L70.7,181.6 L62.6,182.0 L54.0,182.4 L51.6,131.6 Z" fill="url(#park-canopy)" stroke="none"/><path d="M33.3,237.5 L32.8,233.7 L26.9,233.8 L28.4,257.9 L31.2,257.7 L31.3,254.6 L36.1,254.4 L38.7,251.4 L53.6,251.1 L53.7,249.9 L51.4,250.0 L50.1,250.3 L41.5,250.9 L41.3,248.8 L51.5,248.5 L43.6,242.7 L37.7,247.1 L33.3,237.5 Z" fill="#dcf5d2" stroke="#9fcf91" stroke-width="0.4"></path><path d="M33.3,237.5 L32.8,233.7 L26.9,233.8 L28.4,257.9 L31.2,257.7 L31.3,254.6 L36.1,254.4 L38.7,251.4 L53.6,251.1 L53.7,249.9 L51.4,250.0 L50.1,250.3 L41.5,250.9 L41.3,248.8 L51.5,248.5 L43.6,242.7 L37.7,247.1 L33.3,237.5 Z" fill="url(#park-dots)" stroke="none"/><path d="M33.3,237.5 L32.8,233.7 L26.9,233.8 L28.4,257.9 L31.2,257.7 L31.3,254.6 L36.1,254.4 L38.7,251.4 L53.6,251.1 L53.7,249.9 L51.4,250.0 L50.1,250.3 L41.5,250.9 L41.3,248.8 L51.5,248.5 L43.6,242.7 L37.7,247.1 L33.3,237.5 Z" fill="url(#park-canopy)" stroke="none"/><path d="M85.5,249.9 L93.8,248.9 L93.0,225.9 L84.0,226.6 L85.5,249.9 Z" fill="#dcf5d2" stroke="#9fcf91" stroke-width="0.4"></path><path d="M85.5,249.9 L93.8,248.9 L93.0,225.9 L84.0,226.6 L85.5,249.9 Z" fill="url(#park-dots)" stroke="none"/><path d="M85.5,249.9 L93.8,248.9 L93.0,225.9 L84.0,226.6 L85.5,249.9 Z" fill="url(#park-canopy)" stroke="none"/><path d="M82.9,209.4 L90.6,209.1 L92.3,210.6 L93.1,223.1 L83.8,223.7 L82.9,209.4 Z" fill="#dcf5d2" stroke="#9fcf91" stroke-width="0.4"></path><path d="M82.9,209.4 L90.6,209.1 L92.3,210.6 L93.1,223.1 L83.8,223.7 L82.9,209.4 Z" fill="url(#park-dots)" stroke="none"/><path d="M82.9,209.4 L90.6,209.1 L92.3,210.6 L93.1,223.1 L83.8,223.7 L82.9,209.4 Z" fill="url(#park-canopy)" stroke="none"/><path d="M261.1,36.6 L262.1,56.9 L252.9,57.3 L251.8,37.1 L261.1,36.6 Z" fill="#d6d2c9" stroke="#bab6ad" stroke-width="0.4"></path><path d="M234.2,108.0 L234.8,120.6 L210.2,121.8 L209.7,111.3 L213.5,111.1 L213.4,109.0 L234.2,108.0 Z" fill="#d6d2c9" stroke="#bab6ad" stroke-width="0.4"><title>7-Eleven</title></path><path d="M184.9,55.3 L175.8,55.7 L175.1,40.2 L184.2,39.8 L184.9,55.3 Z" fill="#d6d2c9" stroke="#bab6ad" stroke-width="0.4"></path><path d="M248.8,55.9 L239.8,56.5 L238.5,37.9 L247.6,37.3 L248.8,55.9 Z" fill="#d6d2c9" stroke="#bab6ad" stroke-width="0.4"></path><path d="M234.9,57.2 L225.2,57.4 L224.8,42.7 L227.3,42.6 L227.2,39.2 L234.5,39.0 L234.9,57.2 Z" fill="#d6d2c9" stroke="#bab6ad" stroke-width="0.4"></path><path d="M242.6,243.4 L215.1,244.6 L214.1,221.7 L210.1,126.3 L236.0,125.8 L241.3,215.8 L241.6,220.5 L242.6,243.4 Z" fill="#d6d2c9" stroke="#bab6ad" stroke-width="0.4"></path><path d="M213.9,41.8 L213.7,54.7 L209.6,54.6 L209.6,57.4 L203.9,57.3 L204.1,44.7 L206.4,44.7 L206.5,41.7 L213.9,41.8 Z" fill="#d6d2c9" stroke="#bab6ad" stroke-width="0.4"></path><path d="M198.0,40.6 L198.4,49.3 L201.0,49.1 L201.3,55.5 L189.1,56.0 L188.3,41.0 L198.0,40.6 Z" fill="#d6d2c9" stroke="#bab6ad" stroke-width="0.4"></path><path d="M280.0,244.2 L251.2,245.6 L247.8,172.1 L244.1,93.2 L273.0,91.9 L276.6,170.1 L280.0,244.2 Z" fill="#d6d2c9" stroke="#bab6ad" stroke-width="0.4"></path><path d="M131.2,139.0 L130.7,124.2 L146.9,123.5 L147.5,138.3 L131.2,139.0 Z" fill="#d6d2c9" stroke="#bab6ad" stroke-width="0.4"><title>Caffe Vialetto</title></path><path d="M148.4,15.8 L148.6,20.3 L151.5,20.1 L151.3,17.1 L156.8,16.9 L157.5,33.4 L156.4,33.4 L156.4,34.2 L151.6,34.2 L146.9,34.1 L146.8,31.4 L144.1,31.5 L143.4,16.0 L148.4,15.8 Z" fill="#d6d2c9" stroke="#bab6ad" stroke-width="0.4"></path><path d="M157.0,60.1 L147.0,60.5 L146.8,54.5 L148.7,54.5 L148.5,47.6 L152.4,47.4 L152.3,46.1 L156.5,45.9 L157.0,60.1 Z" fill="#d6d2c9" stroke="#bab6ad" stroke-width="0.4"></path><path d="M227.1,11.4 L227.6,25.5 L224.1,25.6 L224.2,28.4 L217.3,28.7 L217.2,26.7 L216.6,26.7 L216.6,25.7 L216.0,21.3 L215.5,21.3 L215.2,13.2 L221.9,12.9 L221.8,11.6 L227.1,11.4 Z" fill="#d6d2c9" stroke="#bab6ad" stroke-width="0.4"></path><path d="M201.1,13.7 L201.2,15.4 L206.9,15.0 L206.9,14.3 L212.3,13.9 L212.9,24.4 L205.2,24.9 L205.2,26.0 L200.7,26.3 L200.6,25.1 L197.2,25.3 L196.9,21.7 L197.6,21.7 L197.1,13.9 L201.1,13.7 Z" fill="#d6d2c9" stroke="#bab6ad" stroke-width="0.4"></path><path d="M139.4,32.4 L139.6,37.6 L136.5,37.7 L133.5,37.8 L133.4,34.5 L132.1,34.6 L131.4,17.0 L136.4,16.8 L141.4,16.6 L142.0,32.3 L139.4,32.4 Z" fill="#d6d2c9" stroke="#bab6ad" stroke-width="0.4"></path><path d="M162.8,15.5 L162.9,17.2 L168.6,17.0 L168.6,16.2 L174.3,16.0 L174.8,29.6 L162.6,30.1 L162.5,27.1 L159.5,27.2 L159.0,15.7 L162.8,15.5 Z" fill="#d6d2c9" stroke="#bab6ad" stroke-width="0.4"></path><path d="M192.8,179.4 L165.1,180.4 L164.5,165.6 L192.2,164.5 L192.8,179.4 Z" fill="#d6d2c9" stroke="#bab6ad" stroke-width="0.4"></path><path d="M14.1,13.6 L14.4,21.6 L12.5,21.7 L12.8,29.2 L8.7,29.4 L8.8,32.5 L2.8,32.7 L2.6,29.6 L2.1,29.6 L1.5,15.7 L8.7,15.4 L8.9,20.3 L9.8,20.2 L9.5,13.8 L11.8,13.7 L14.1,13.6 Z" fill="#d6d2c9" stroke="#bab6ad" stroke-width="0.4"></path><path d="M1.3,51.2 L2.0,67.0 L-3.6,67.2 L-3.6,65.4 L-10.7,65.7 L-11.2,54.6 L-9.2,54.5 L-9.4,51.7 L1.3,51.2 Z" fill="#d6d2c9" stroke="#bab6ad" stroke-width="0.4"></path><path d="M239.8,24.0 L240.0,27.9 L234.0,28.2 L233.9,26.2 L230.8,26.3 L230.2,11.7 L241.4,11.2 L242.0,23.9 L239.8,24.0 Z" fill="#d6d2c9" stroke="#bab6ad" stroke-width="0.4"></path><path d="M249.4,25.8 L244.9,26.0 L244.2,10.8 L256.1,10.2 L256.8,23.7 L250.0,24.0 L250.1,24.5 L249.4,24.5 L249.4,25.8 Z" fill="#d6d2c9" stroke="#bab6ad" stroke-width="0.4"></path><path d="M155.4,139.6 L156.7,181.5 L193.0,180.2 L195.4,239.8 L183.9,246.1 L167.3,246.9 L148.6,247.5 L148.8,244.7 L141.3,244.8 L138.7,242.5 L137.9,231.5 L134.1,140.0 L155.4,139.6 Z" fill="#d6d2c9" stroke="#bab6ad" stroke-width="0.4"><title>Merrick Manor</title></path><path d="M137.9,50.7 L132.3,50.8 L132.0,40.8 L145.8,40.4 L145.9,44.7 L144.6,44.7 L144.7,48.6 L137.9,48.8 L137.9,50.7 Z" fill="#d6d2c9" stroke="#bab6ad" stroke-width="0.4"></path><path d="M181.8,14.7 L181.9,16.1 L193.2,15.5 L193.6,25.0 L185.6,25.4 L185.8,28.8 L180.1,29.1 L180.0,28.3 L178.9,28.4 L178.3,14.9 L181.8,14.7 Z" fill="#d6d2c9" stroke="#bab6ad" stroke-width="0.4"></path><path d="M32.8,233.7 L32.7,231.0 L32.6,225.5 L36.3,216.4 L44.3,221.4 L49.8,215.6 L54.9,213.4 L61.5,213.1 L68.5,215.6 L73.2,219.9 L76.2,226.6 L76.2,233.5 L73.9,239.5 L73.2,240.3 L69.1,244.9 L63.3,247.3 L56.3,247.7 L49.9,245.3 L45.1,241.3 L43.6,242.7 L37.7,247.1 L33.3,237.5 L32.8,233.7 Z" fill="#d6d2c9" stroke="#bab6ad" stroke-width="0.4"></path><path d="M50.9,288.7 L51.3,299.9 L65.6,299.4 L65.3,289.8 L67.1,289.7 L67.4,298.3 L84.2,297.7 L83.9,289.1 L85.9,289.0 L86.2,298.0 L103.7,297.5 L103.0,282.3 L96.0,282.6 L95.0,255.2 L88.4,255.5 L88.3,253.1 L83.2,253.3 L81.1,253.4 L80.9,247.6 L73.0,247.9 L73.2,253.5 L53.8,254.2 L55.1,288.5 L50.9,288.7 Z" fill="#d6d2c9" stroke="#bab6ad" stroke-width="0.4"></path><path d="M20.6,133.0 L21.5,151.2 L14.6,183.7" fill="none" stroke="#cf828d" stroke-width="1.3" stroke-dasharray="1.6 3.0" opacity="0.62" stroke-linecap="round" stroke-linejoin="round"></path><path d="M21.5,151.2 L31.0,182.9" fill="none" stroke="#cf828d" stroke-width="1.3" stroke-dasharray="1.6 3.0" opacity="0.62" stroke-linecap="round" stroke-linejoin="round"></path><path d="M59.7,131.2 L62.6,182.0" fill="none" stroke="#cf828d" stroke-width="1.3" stroke-dasharray="1.6 3.0" opacity="0.62" stroke-linecap="round" stroke-linejoin="round"></path><path d="M31.6,259.2 L49.3,258.8 L50.2,303.1 L79.6,302.1 L104.0,301.5 L102.8,268.4 L95.8,268.7 L95.2,250.7 L85.5,251.0" fill="none" stroke="#cf828d" stroke-width="1.3" stroke-dasharray="1.6 3.0" opacity="0.62" stroke-linecap="round" stroke-linejoin="round"></path><path d="M0.1,258.8 L-0.7,239.5 L-1.4,220.4 L-2.5,197.7" fill="none" stroke="#cf828d" stroke-width="1.3" stroke-dasharray="1.6 3.0" opacity="0.62" stroke-linecap="round" stroke-linejoin="round"></path><path d="M106.6,67.6 L107.2,76.3 L108.0,88.0 L108.6,96.5" fill="none" stroke="#cf828d" stroke-width="1.3" stroke-dasharray="1.6 3.0" opacity="0.62" stroke-linecap="round" stroke-linejoin="round"></path><path d="M192.1,92.8 L198.1,92.6 L205.0,92.4" fill="none" stroke="#cf828d" stroke-width="1.3" stroke-dasharray="1.6 3.0" opacity="0.62" stroke-linecap="round" stroke-linejoin="round"></path><path d="M205.0,92.4 L205.8,92.4 L225.6,91.8 L240.5,91.4 L243.0,91.3 L273.2,90.3 L275.4,90.3" fill="none" stroke="#cf828d" stroke-width="1.3" stroke-dasharray="1.6 3.0" opacity="0.62" stroke-linecap="round" stroke-linejoin="round"></path><path d="M191.2,96.5 L191.1,94.9 L190.4,93.5 L188.8,93.1 L186.3,92.9 L132.3,94.4 L130.3,95.1 L129.0,96.0 L128.0,97.3 L127.8,98.8 L130.0,144.3 L132.6,194.0 L134.7,244.4 L136.1,245.8 L137.2,246.7 L140.5,249.1 L197.4,246.8 L197.0,227.1 L194.1,158.9 L192.8,130.4 L191.2,96.5" fill="none" stroke="#cf828d" stroke-width="1.3" stroke-dasharray="1.6 3.0" opacity="0.62" stroke-linecap="round" stroke-linejoin="round"></path><path d="M136.4,249.5 L136.2,256.8 L136.0,266.0" fill="none" stroke="#cf828d" stroke-width="1.3" stroke-dasharray="1.6 3.0" opacity="0.62" stroke-linecap="round" stroke-linejoin="round"></path><path d="M-72.8,104.2 L-10.9,101.1 L47.1,98.4 L53.2,98.0 L104.2,96.3 L106.2,96.6 L107.9,97.6 L109.1,98.9 L109.4,101.4 L111.8,148.1 L112.9,176.6 L115.1,225.5 L116.5,250.0 L116.7,257.6 L116.8,263.2 L117.0,267.0 L117.1,270.4 L118.6,301.4 L119.9,327.6" fill="none" stroke="#cf828d" stroke-width="1.3" stroke-dasharray="1.6 3.0" opacity="0.62" stroke-linecap="round" stroke-linejoin="round"></path><path d="M106.6,67.6 L105.9,66.8 L104.5,68.2 L102.4,69.1 L99.7,69.4 L32.6,72.5 L-42.5,76.1 L-72.6,76.9" fill="none" stroke="#cf828d" stroke-width="1.3" stroke-dasharray="1.6 3.0" opacity="0.62" stroke-linecap="round" stroke-linejoin="round"></path><path d="M126.8,11.0 L125.9,12.2 L125.3,13.5 L124.7,15.7 L125.5,39.6 L126.2,60.7 L126.6,63.2 L126.9,64.9 L127.8,66.6 L128.5,67.2 L129.8,67.7 L131.2,68.0 L134.4,67.9 L161.3,67.1 L295.4,63.2 L296.5,62.7 L297.5,61.5" fill="none" stroke="#cf828d" stroke-width="1.3" stroke-dasharray="1.6 3.0" opacity="0.62" stroke-linecap="round" stroke-linejoin="round"></path><path d="M129.0,96.0 L128.4,95.3" fill="none" stroke="#cf828d" stroke-width="1.3" stroke-dasharray="1.6 3.0" opacity="0.62" stroke-linecap="round" stroke-linejoin="round"></path><path d="M107.9,97.6 L108.6,96.5" fill="none" stroke="#cf828d" stroke-width="1.3" stroke-dasharray="1.6 3.0" opacity="0.62" stroke-linecap="round" stroke-linejoin="round"></path><path d="M128.4,95.3 L128.1,87.5 L127.6,75.6 L127.2,67.3" fill="none" stroke="#cf828d" stroke-width="1.3" stroke-dasharray="1.6 3.0" opacity="0.62" stroke-linecap="round" stroke-linejoin="round"></path><path d="M108.6,96.5 L119.3,95.8 L128.4,95.3" fill="none" stroke="#cf828d" stroke-width="1.3" stroke-dasharray="1.6 3.0" opacity="0.62" stroke-linecap="round" stroke-linejoin="round"></path><path d="M127.2,67.3 L118.0,67.4 L106.6,67.6" fill="none" stroke="#cf828d" stroke-width="1.3" stroke-dasharray="1.6 3.0" opacity="0.62" stroke-linecap="round" stroke-linejoin="round"></path><path d="M192.1,92.8 L190.4,93.5" fill="none" stroke="#cf828d" stroke-width="1.3" stroke-dasharray="1.6 3.0" opacity="0.62" stroke-linecap="round" stroke-linejoin="round"></path><path d="M136.4,249.5 L136.1,245.8" fill="none" stroke="#cf828d" stroke-width="1.3" stroke-dasharray="1.6 3.0" opacity="0.62" stroke-linecap="round" stroke-linejoin="round"></path><path d="M197.4,246.8 L200.2,248.9" fill="none" stroke="#cf828d" stroke-width="1.3" stroke-dasharray="1.6 3.0" opacity="0.62" stroke-linecap="round" stroke-linejoin="round"></path><path d="M200.2,248.9 L205.9,248.5 L212.0,248.1" fill="none" stroke="#cf828d" stroke-width="1.3" stroke-dasharray="1.6 3.0" opacity="0.62" stroke-linecap="round" stroke-linejoin="round"></path><path d="M205.8,92.4 L206.1,100.4 L213.1,247.1 L243.2,246.1 L243.9,246.1 L246.9,246.0 L249.8,245.9 L250.4,245.9 L280.4,244.9 L276.9,170.0 L273.2,90.3" fill="none" stroke="#cf828d" stroke-width="1.3" stroke-dasharray="1.6 3.0" opacity="0.62" stroke-linecap="round" stroke-linejoin="round"></path><path d="M212.0,248.1 L213.1,247.1" fill="none" stroke="#cf828d" stroke-width="1.3" stroke-dasharray="1.6 3.0" opacity="0.62" stroke-linecap="round" stroke-linejoin="round"></path><path d="M124.7,-3.5 L125.1,4.1 L125.3,9.1" fill="none" stroke="#cf828d" stroke-width="1.3" stroke-dasharray="1.6 3.0" opacity="0.62" stroke-linecap="round" stroke-linejoin="round"></path><path d="M126.8,11.0 L129.0,10.1 L132.0,9.6 L192.6,6.9 L217.2,5.6 L256.6,3.6 L295.2,1.4" fill="none" stroke="#cf828d" stroke-width="1.3" stroke-dasharray="1.6 3.0" opacity="0.62" stroke-linecap="round" stroke-linejoin="round"></path><path d="M127.2,67.3 L127.8,66.6" fill="none" stroke="#cf828d" stroke-width="1.3" stroke-dasharray="1.6 3.0" opacity="0.62" stroke-linecap="round" stroke-linejoin="round"></path><path d="M125.3,9.1 L126.8,11.0" fill="none" stroke="#cf828d" stroke-width="1.3" stroke-dasharray="1.6 3.0" opacity="0.62" stroke-linecap="round" stroke-linejoin="round"></path><path d="M-1.4,220.4 L23.7,219.1 L30.9,218.7 L31.1,231.3 L32.7,231.0" fill="none" stroke="#cf828d" stroke-width="1.3" stroke-dasharray="1.6 3.0" opacity="0.62" stroke-linecap="round" stroke-linejoin="round"></path><path d="M-1.4,220.4 L5.9,227.5" fill="none" stroke="#cf828d" stroke-width="1.3" stroke-dasharray="1.6 3.0" opacity="0.62" stroke-linecap="round" stroke-linejoin="round"></path><path d="M23.7,219.1 L17.7,226.1" fill="none" stroke="#cf828d" stroke-width="1.3" stroke-dasharray="1.6 3.0" opacity="0.62" stroke-linecap="round" stroke-linejoin="round"></path><path d="M23.7,219.1 L26.3,258.0" fill="none" stroke="#cf828d" stroke-width="1.3" stroke-dasharray="1.6 3.0" opacity="0.62" stroke-linecap="round" stroke-linejoin="round"></path><path d="M25.0,257.7 L19.0,252.9" fill="none" stroke="#cf828d" stroke-width="1.3" stroke-dasharray="1.6 3.0" opacity="0.62" stroke-linecap="round" stroke-linejoin="round"></path><path d="M2.4,258.7 L6.7,253.3" fill="none" stroke="#cf828d" stroke-width="1.3" stroke-dasharray="1.6 3.0" opacity="0.62" stroke-linecap="round" stroke-linejoin="round"></path><path d="M-0.7,239.5 L3.3,239.3" fill="none" stroke="#cf828d" stroke-width="1.3" stroke-dasharray="1.6 3.0" opacity="0.62" stroke-linecap="round" stroke-linejoin="round"></path><path d="M49.3,258.8 L49.5,252.8 L67.7,251.5 L77.0,242.6" fill="none" stroke="#cf828d" stroke-width="1.3" stroke-dasharray="1.6 3.0" opacity="0.62" stroke-linecap="round" stroke-linejoin="round"></path><path d="M73.2,240.3 L74.3,240.9 L77.0,242.6 L82.8,246.1 L83.0,251.0 L83.2,253.3" fill="none" stroke="#cf828d" stroke-width="1.3" stroke-dasharray="1.6 3.0" opacity="0.62" stroke-linecap="round" stroke-linejoin="round"></path><path d="M85.5,251.0 L83.0,251.0" fill="none" stroke="#cf828d" stroke-width="1.3" stroke-dasharray="1.6 3.0" opacity="0.62" stroke-linecap="round" stroke-linejoin="round"></path><path d="M95.2,250.7 L93.8,207.2 L93.3,192.5 L90.0,192.4 L89.7,184.2" fill="none" stroke="#cf828d" stroke-width="1.3" stroke-dasharray="1.6 3.0" opacity="0.62" stroke-linecap="round" stroke-linejoin="round"></path><path d="M93.8,207.2 L80.1,208.0" fill="none" stroke="#cf828d" stroke-width="1.3" stroke-dasharray="1.6 3.0" opacity="0.62" stroke-linecap="round" stroke-linejoin="round"></path><path d="M80.1,208.0 L47.6,211.9 L30.7,213.9 L30.9,218.7" fill="none" stroke="#cf828d" stroke-width="1.3" stroke-dasharray="1.6 3.0" opacity="0.62" stroke-linecap="round" stroke-linejoin="round"></path><path d="M47.6,211.9 L47.5,208.4" fill="none" stroke="#cf828d" stroke-width="1.3" stroke-dasharray="1.6 3.0" opacity="0.62" stroke-linecap="round" stroke-linejoin="round"></path><path d="M74.3,240.9 L77.6,233.2 L77.6,229.9 L77.5,226.4 L73.4,218.4 L80.1,214.1 L80.1,208.0" fill="none" stroke="#cf828d" stroke-width="1.3" stroke-dasharray="1.6 3.0" opacity="0.62" stroke-linecap="round" stroke-linejoin="round"></path><path d="M77.6,229.9 L81.1,229.9" fill="none" stroke="#cf828d" stroke-width="1.3" stroke-dasharray="1.6 3.0" opacity="0.62" stroke-linecap="round" stroke-linejoin="round"></path><path d="M82.8,246.1 L81.1,229.9 L80.1,214.1" fill="none" stroke="#cf828d" stroke-width="1.3" stroke-dasharray="1.6 3.0" opacity="0.62" stroke-linecap="round" stroke-linejoin="round"></path><path d="M-68.6,10.3 L38.2,5.4 L53.3,4.8 L59.3,4.5 L98.9,2.7 L101.8,3.2 L103.4,4.3 L104.6,5.9 L105.0,8.3 L107.5,63.7 L106.9,65.4 L105.9,66.8" fill="none" stroke="#cf828d" stroke-width="1.3" stroke-dasharray="1.6 3.0" opacity="0.62" stroke-linecap="round" stroke-linejoin="round"></path><path d="M103.9,-12.2 L104.1,-5.6 L104.3,1.4" fill="none" stroke="#cf828d" stroke-width="1.3" stroke-dasharray="1.6 3.0" opacity="0.62" stroke-linecap="round" stroke-linejoin="round"></path><path d="M104.3,1.4 L103.4,4.3" fill="none" stroke="#cf828d" stroke-width="1.3" stroke-dasharray="1.6 3.0" opacity="0.62" stroke-linecap="round" stroke-linejoin="round"></path><path d="M243.0,91.3 L246.8,172.1 L250.3,244.2 L250.4,245.9" fill="none" stroke="#cf828d" stroke-width="1.3" stroke-dasharray="1.6 3.0" opacity="0.62" stroke-linecap="round" stroke-linejoin="round"></path><path d="M243.2,246.1 L241.8,213.4" fill="none" stroke="#cf828d" stroke-width="1.3" stroke-dasharray="1.6 3.0" opacity="0.62" stroke-linecap="round" stroke-linejoin="round"></path><path d="M201.0,260.5 L200.6,254.3 L200.2,248.9" fill="none" stroke="#cf828d" stroke-width="1.3" stroke-dasharray="1.6 3.0" opacity="0.62" stroke-linecap="round" stroke-linejoin="round"></path><path d="M212.0,248.1 L211.9,253.9 L211.8,260.4" fill="none" stroke="#cf828d" stroke-width="1.3" stroke-dasharray="1.6 3.0" opacity="0.62" stroke-linecap="round" stroke-linejoin="round"></path><path d="M53.3,4.8 L54.2,8.8 L54.7,11.9 L55.2,14.9 L55.7,17.5 L57.1,17.3 L58.2,17.4 L58.7,12.4 L59.1,7.8 L59.3,4.5" fill="none" stroke="#cf828d" stroke-width="1.3" stroke-dasharray="1.6 3.0" opacity="0.62" stroke-linecap="round" stroke-linejoin="round"></path><path d="M49.8,46.6 L49.3,35.5 L48.4,14.5" fill="none" stroke="#cf828d" stroke-width="1.3" stroke-dasharray="1.6 3.0" opacity="0.62" stroke-linecap="round" stroke-linejoin="round"></path><path d="M40.9,15.1 L48.4,14.5 L50.5,14.4 L55.2,14.9" fill="none" stroke="#cf828d" stroke-width="1.3" stroke-dasharray="1.6 3.0" opacity="0.62" stroke-linecap="round" stroke-linejoin="round"></path><path d="M40.9,15.1 L38.8,15.3" fill="none" stroke="#cf828d" stroke-width="1.3" stroke-dasharray="1.6 3.0" opacity="0.62" stroke-linecap="round" stroke-linejoin="round"></path><path d="M37.3,36.1 L40.1,35.9 L43.6,35.8" fill="none" stroke="#cf828d" stroke-width="1.3" stroke-dasharray="1.6 3.0" opacity="0.62" stroke-linecap="round" stroke-linejoin="round"></path><path d="M43.6,35.8 L49.3,35.5" fill="none" stroke="#cf828d" stroke-width="1.3" stroke-dasharray="1.6 3.0" opacity="0.62" stroke-linecap="round" stroke-linejoin="round"></path><path d="M160.7,131.6 L192.8,130.4 L200.4,130.2" fill="none" stroke="#cec8bb" stroke-width="3.2" stroke-linecap="round" stroke-linejoin="round"/><path d="M160.7,131.6 L192.8,130.4 L200.4,130.2" fill="none" stroke="#ffffff" stroke-width="2.2" stroke-linecap="round" stroke-linejoin="round"></path><path d="M162.9,179.8 L162.3,159.5 L160.7,131.6" fill="none" stroke="#cec8bb" stroke-width="3.2" stroke-linecap="round" stroke-linejoin="round"/><path d="M162.9,179.8 L162.3,159.5 L160.7,131.6" fill="none" stroke="#ffffff" stroke-width="2.2" stroke-linecap="round" stroke-linejoin="round"></path><path d="M202.0,158.6 L194.1,158.9 L162.3,159.5" fill="none" stroke="#cec8bb" stroke-width="3.2" stroke-linecap="round" stroke-linejoin="round"/><path d="M202.0,158.6 L194.1,158.9 L162.3,159.5" fill="none" stroke="#ffffff" stroke-width="2.2" stroke-linecap="round" stroke-linejoin="round"></path><path d="M171.3,349.0 L167.7,263.3 L167.3,255.6" fill="none" stroke="#cec8bb" stroke-width="3.2" stroke-linecap="round" stroke-linejoin="round"/><path d="M171.3,349.0 L167.7,263.3 L167.3,255.6" fill="none" stroke="#ffffff" stroke-width="2.2" stroke-linecap="round" stroke-linejoin="round"></path><path d="M111.8,350.0 L109.4,266.8 L107.5,257.8 L105.9,248.3 L102.4,186.1" fill="none" stroke="#cec8bb" stroke-width="3.2" stroke-linecap="round" stroke-linejoin="round"/><path d="M111.8,350.0 L109.4,266.8 L107.5,257.8 L105.9,248.3 L102.4,186.1" fill="none" stroke="#ffffff" stroke-width="2.2" stroke-linecap="round" stroke-linejoin="round"></path><path d="M-13.8,93.7 L-10.9,101.1 L-8.1,106.3 L-6.0,108.2 L-3.3,108.9 L38.1,107.6 L41.0,106.7 L43.1,105.1 L47.1,98.4 L51.5,90.8" fill="none" stroke="#cec8bb" stroke-width="3.2" stroke-linecap="round" stroke-linejoin="round"/><path d="M-13.8,93.7 L-10.9,101.1 L-8.1,106.3 L-6.0,108.2 L-3.3,108.9 L38.1,107.6 L41.0,106.7 L43.1,105.1 L47.1,98.4 L51.5,90.8" fill="none" stroke="#ffffff" stroke-width="2.2" stroke-linecap="round" stroke-linejoin="round"></path><path d="M41.7,61.2 L40.1,35.9 L38.8,15.3 L38.6,11.4 L38.2,5.4 L37.6,-3.4" fill="none" stroke="#cec8bb" stroke-width="3.2" stroke-linecap="round" stroke-linejoin="round"/><path d="M41.7,61.2 L40.1,35.9 L38.8,15.3 L38.6,11.4 L38.2,5.4 L37.6,-3.4" fill="none" stroke="#ffffff" stroke-width="2.2" stroke-linecap="round" stroke-linejoin="round"></path><path d="M41.7,61.2 L32.4,61.8" fill="none" stroke="#cec8bb" stroke-width="3.2" stroke-linecap="round" stroke-linejoin="round"/><path d="M41.7,61.2 L32.4,61.8" fill="none" stroke="#ffffff" stroke-width="2.2" stroke-linecap="round" stroke-linejoin="round"></path><path d="M38.6,11.4 L20.2,13.4 L26.9,61.5" fill="none" stroke="#cec8bb" stroke-width="3.2" stroke-linecap="round" stroke-linejoin="round"/><path d="M38.6,11.4 L20.2,13.4 L26.9,61.5" fill="none" stroke="#ffffff" stroke-width="2.2" stroke-linecap="round" stroke-linejoin="round"></path><path d="M26.9,61.5 L32.4,61.8" fill="none" stroke="#cec8bb" stroke-width="3.2" stroke-linecap="round" stroke-linejoin="round"/><path d="M26.9,61.5 L32.4,61.8" fill="none" stroke="#ffffff" stroke-width="2.2" stroke-linecap="round" stroke-linejoin="round"></path><path d="M32.4,61.8 L32.5,69.7 L32.6,72.5 L32.7,79.9" fill="none" stroke="#cec8bb" stroke-width="3.2" stroke-linecap="round" stroke-linejoin="round"/><path d="M32.4,61.8 L32.5,69.7 L32.6,72.5 L32.7,79.9" fill="none" stroke="#ffffff" stroke-width="2.2" stroke-linecap="round" stroke-linejoin="round"></path><path d="M240.1,83.9 L240.5,91.4 L243.8,172.2 L246.7,243.1 L246.9,246.0 L247.2,252.7" fill="none" stroke="#cec8bb" stroke-width="3.2" stroke-linecap="round" stroke-linejoin="round"/><path d="M240.1,83.9 L240.5,91.4 L243.8,172.2 L246.7,243.1 L246.9,246.0 L247.2,252.7" fill="none" stroke="#ffffff" stroke-width="2.2" stroke-linecap="round" stroke-linejoin="round"></path><path d="M157.4,255.9 L157.7,263.7 L157.9,266.3 L159.1,293.1 L148.2,297.7 L137.0,298.0 L127.3,298.1" fill="none" stroke="#cec8bb" stroke-width="3.2" stroke-linecap="round" stroke-linejoin="round"/><path d="M157.4,255.9 L157.7,263.7 L157.9,266.3 L159.1,293.1 L148.2,297.7 L137.0,298.0 L127.3,298.1" fill="none" stroke="#ffffff" stroke-width="2.2" stroke-linecap="round" stroke-linejoin="round"></path><path d="M116.5,39.8 L125.5,39.6 L140.8,39.3 L148.5,40.1 L156.6,43.2 L159.8,47.1 L161.2,55.3 L161.3,67.1 L161.3,74.9" fill="none" stroke="#cec8bb" stroke-width="3.2" stroke-linecap="round" stroke-linejoin="round"/><path d="M116.5,39.8 L125.5,39.6 L140.8,39.3 L148.5,40.1 L156.6,43.2 L159.8,47.1 L161.2,55.3 L161.3,67.1 L161.3,74.9" fill="none" stroke="#ffffff" stroke-width="2.2" stroke-linecap="round" stroke-linejoin="round"></path><path d="M198.6,100.6 L206.1,100.4 L225.7,99.3 L225.6,91.8 L225.6,84.3" fill="none" stroke="#cec8bb" stroke-width="3.2" stroke-linecap="round" stroke-linejoin="round"/><path d="M198.6,100.6 L206.1,100.4 L225.7,99.3 L225.6,91.8 L225.6,84.3" fill="none" stroke="#ffffff" stroke-width="2.2" stroke-linecap="round" stroke-linejoin="round"></path><path d="M243.8,172.2 L246.8,172.1 L247.8,172.1" fill="none" stroke="#cec8bb" stroke-width="3.2" stroke-linecap="round" stroke-linejoin="round"/><path d="M243.8,172.2 L246.8,172.1 L247.8,172.1" fill="none" stroke="#ffffff" stroke-width="2.2" stroke-linecap="round" stroke-linejoin="round"></path><path d="M197.6,85.2 L198.1,92.6 L198.3,95.9 L198.6,100.6 L200.4,130.2 L202.0,158.6 L205.9,245.5 L205.9,248.5 L206.2,254.1 L206.4,260.4 L206.6,264.2 L210.2,344.0" fill="none" stroke="#cec8bb" stroke-width="4.3" stroke-linecap="round" stroke-linejoin="round"/><path d="M197.6,85.2 L198.1,92.6 L198.3,95.9 L198.6,100.6 L200.4,130.2 L202.0,158.6 L205.9,245.5 L205.9,248.5 L206.2,254.1 L206.4,260.4 L206.6,264.2 L210.2,344.0" fill="none" stroke="#ffffff" stroke-width="3.2" stroke-linecap="round" stroke-linejoin="round"><title>Laguna Street</title></path><path d="M325.4,250.6 L295.9,251.6 L287.8,251.5 L280.4,251.7 L247.2,252.7 L215.8,253.7 L211.9,253.9 L206.2,254.1 L200.6,254.3 L167.3,255.6 L157.4,255.9 L139.4,256.7 L136.2,256.8 L125.9,257.2" fill="none" stroke="#cec8bb" stroke-width="4.3" stroke-linecap="round" stroke-linejoin="round"/><path d="M325.4,250.6 L295.9,251.6 L287.8,251.5 L280.4,251.7 L247.2,252.7 L215.8,253.7 L211.9,253.9 L206.2,254.1 L200.6,254.3 L167.3,255.6 L157.4,255.9 L139.4,256.7 L136.2,256.8 L125.9,257.2" fill="none" stroke="#ffffff" stroke-width="3.2" stroke-linecap="round" stroke-linejoin="round"><title>Altara Avenue</title></path><path d="M114.5,-5.9 L104.1,-5.6 L100.9,-5.6 L37.6,-3.4 L-75.8,2.0" fill="none" stroke="#cec8bb" stroke-width="4.3" stroke-linecap="round" stroke-linejoin="round"/><path d="M114.5,-5.9 L104.1,-5.6 L100.9,-5.6 L37.6,-3.4 L-75.8,2.0" fill="none" stroke="#ffffff" stroke-width="3.2" stroke-linecap="round" stroke-linejoin="round"><title>Velarde Avenue</title></path><path d="M298.2,-5.0 L295.0,-4.7 L293.5,-4.6 L128.3,3.9 L125.1,4.1 L115.1,4.5" fill="none" stroke="#cec8bb" stroke-width="4.3" stroke-linecap="round" stroke-linejoin="round"/><path d="M298.2,-5.0 L295.0,-4.7 L293.5,-4.6 L128.3,3.9 L125.1,4.1 L115.1,4.5" fill="none" stroke="#ffffff" stroke-width="3.2" stroke-linecap="round" stroke-linejoin="round"><title>Velarde Avenue</title></path><path d="M305.8,69.8 L289.3,70.6 L271.9,71.4 L199.7,73.5 L161.3,74.9 L131.1,75.6 L127.6,75.6 L118.4,75.8" fill="none" stroke="#d1c4aa" stroke-width="6.5" stroke-linecap="round" stroke-linejoin="round"/><path d="M305.8,69.8 L289.3,70.6 L271.9,71.4 L199.7,73.5 L161.3,74.9 L131.1,75.6 L127.6,75.6 L118.4,75.8" fill="none" stroke="#efb36f" stroke-width="5.2" stroke-linecap="round" stroke-linejoin="round"><title>Southwest 40th Street</title></path><path d="M118.4,75.8 L119.1,87.7" fill="none" stroke="#d1c4aa" stroke-width="6.5" stroke-linecap="round" stroke-linejoin="round"/><path d="M118.4,75.8 L119.1,87.7" fill="none" stroke="#efb36f" stroke-width="5.2" stroke-linecap="round" stroke-linejoin="round"><title>Southwest 42nd Avenue</title></path><path d="M118.4,75.8 L107.2,76.3 L68.5,78.3 L32.7,79.9 L-71.0,84.8" fill="none" stroke="#d1c4aa" stroke-width="6.5" stroke-linecap="round" stroke-linejoin="round"/><path d="M118.4,75.8 L107.2,76.3 L68.5,78.3 L32.7,79.9 L-71.0,84.8" fill="none" stroke="#efb36f" stroke-width="5.2" stroke-linecap="round" stroke-linejoin="round"><title>Southwest 40th Street</title></path><path d="M197.6,85.2 L225.6,84.3 L240.1,83.9 L279.9,82.8" fill="none" stroke="#d1c4aa" stroke-width="6.5" stroke-linecap="round" stroke-linejoin="round"/><path d="M197.6,85.2 L225.6,84.3 L240.1,83.9 L279.9,82.8" fill="none" stroke="#efb36f" stroke-width="5.2" stroke-linecap="round" stroke-linejoin="round"><title>Southwest 40th Street</title></path><path d="M122.8,184.2 L118.0,194.5 L119.1,219.0 L124.6,228.2" fill="none" stroke="#d1c4aa" stroke-width="6.5" stroke-linecap="round" stroke-linejoin="round"/><path d="M122.8,184.2 L118.0,194.5 L119.1,219.0 L124.6,228.2" fill="none" stroke="#efb36f" stroke-width="5.2" stroke-linecap="round" stroke-linejoin="round"><title>Southwest 42nd Avenue</title></path><path d="M119.1,87.7 L119.3,95.8 L119.5,100.1 L121.1,139.7 L121.8,158.7 L121.9,161.5 L122.8,184.2" fill="none" stroke="#d1c4aa" stroke-width="6.5" stroke-linecap="round" stroke-linejoin="round"/><path d="M119.1,87.7 L119.3,95.8 L119.5,100.1 L121.1,139.7 L121.8,158.7 L121.9,161.5 L122.8,184.2" fill="none" stroke="#efb36f" stroke-width="5.2" stroke-linecap="round" stroke-linejoin="round"><title>Southwest 42nd Avenue</title></path><path d="M124.6,228.2 L129.1,218.5 L128.1,194.0 L122.8,184.2" fill="none" stroke="#d1c4aa" stroke-width="6.5" stroke-linecap="round" stroke-linejoin="round"/><path d="M124.6,228.2 L129.1,218.5 L128.1,194.0 L122.8,184.2" fill="none" stroke="#efb36f" stroke-width="5.2" stroke-linecap="round" stroke-linejoin="round"><title>Southwest 42nd Avenue</title></path><path d="M124.6,228.2 L125.5,247.9 L125.9,257.2" fill="none" stroke="#d1c4aa" stroke-width="6.5" stroke-linecap="round" stroke-linejoin="round"/><path d="M124.6,228.2 L125.5,247.9 L125.9,257.2" fill="none" stroke="#efb36f" stroke-width="5.2" stroke-linecap="round" stroke-linejoin="round"><title>Southwest 42nd Avenue</title></path><path d="M115.1,4.5 L116.5,39.8 L117.9,64.7 L118.0,67.4 L118.4,75.8" fill="none" stroke="#d1c4aa" stroke-width="6.5" stroke-linecap="round" stroke-linejoin="round"/><path d="M115.1,4.5 L116.5,39.8 L117.9,64.7 L118.0,67.4 L118.4,75.8" fill="none" stroke="#efb36f" stroke-width="5.2" stroke-linecap="round" stroke-linejoin="round"><title>Southwest 42nd Avenue</title></path><path d="M113.5,-27.2 L113.8,-19.4 L114.5,-5.9 L115.1,4.5" fill="none" stroke="#d1c4aa" stroke-width="6.5" stroke-linecap="round" stroke-linejoin="round"/><path d="M113.5,-27.2 L113.8,-19.4 L114.5,-5.9 L115.1,4.5" fill="none" stroke="#efb36f" stroke-width="5.2" stroke-linecap="round" stroke-linejoin="round"><title>Southwest 42nd Avenue</title></path><path d="M119.1,87.7 L128.1,87.5 L148.8,86.8" fill="none" stroke="#d1c4aa" stroke-width="6.5" stroke-linecap="round" stroke-linejoin="round"/><path d="M119.1,87.7 L128.1,87.5 L148.8,86.8" fill="none" stroke="#efb36f" stroke-width="5.2" stroke-linecap="round" stroke-linejoin="round"><title>Southwest 40th Street</title></path><path d="M148.8,86.8 L150.8,86.8 L197.6,85.2" fill="none" stroke="#d1c4aa" stroke-width="6.5" stroke-linecap="round" stroke-linejoin="round"/><path d="M148.8,86.8 L150.8,86.8 L197.6,85.2" fill="none" stroke="#efb36f" stroke-width="5.2" stroke-linecap="round" stroke-linejoin="round"><title>Southwest 40th Street</title></path><path d="M-75.9,96.4 L-13.8,93.7 L51.5,90.8 L103.8,88.1 L108.0,88.0 L119.1,87.7" fill="none" stroke="#d1c4aa" stroke-width="6.5" stroke-linecap="round" stroke-linejoin="round"/><path d="M-75.9,96.4 L-13.8,93.7 L51.5,90.8 L103.8,88.1 L108.0,88.0 L119.1,87.7" fill="none" stroke="#efb36f" stroke-width="5.2" stroke-linecap="round" stroke-linejoin="round"><title>Southwest 40th Street</title></path><text x="214.2" y="49.7" text-anchor="middle" font-family="Arial, sans-serif" font-size="8" font-weight="600" paint-order="stroke" stroke="#edf5ec" stroke-width="1.9" stroke-linejoin="round" fill="#5c806b" textLength="71.7" lengthAdjust="spacing">Pelican School</text><text x="84.3" y="227.2" text-anchor="middle" font-family="Arial, sans-serif" font-size="8" font-weight="600" paint-order="stroke" stroke="#edf5ec" stroke-width="1.9" stroke-linejoin="round" fill="#5c806b"><tspan x="84.3" textLength="41.0" lengthAdjust="spacing">District</tspan><tspan x="84.3" dy="9.4" textLength="102.4" lengthAdjust="spacing">Instructional Center</tspan><tspan x="84.3" dy="9.4" textLength="18.0" lengthAdjust="spacing">8</tspan></text><text x="139.1" y="131.2" text-anchor="middle" font-family="Arial, sans-serif" font-size="6.5" font-weight="600" paint-order="stroke" stroke="#fbf1df" stroke-width="1.45" stroke-linejoin="round" fill="#98662b" textLength="58.2" lengthAdjust="spacing">Caffe Vialetto</text><text x="77.6" y="16.9" text-anchor="middle" font-family="Arial, sans-serif" font-size="8" font-weight="600" paint-order="stroke" stroke="#fbf7ed" stroke-width="1.9" stroke-linejoin="round" fill="#514a42"><tspan x="77.6" textLength="107.5" lengthAdjust="spacing">Saint Mark&#x27;s Lutheran</tspan><tspan x="77.6" dy="9.4" textLength="30.7" lengthAdjust="spacing">Church</tspan></text><text x="203.8" y="199.3" transform="rotate(87.5 203.8 199.3)" text-anchor="middle" dominant-baseline="central" font-family="Arial, sans-serif" font-size="8.3" textLength="69.1" lengthAdjust="spacing" font-weight="650" paint-order="stroke" stroke="#fffaf0" stroke-width="2.05" stroke-linejoin="round" fill="#695f54">Laguna Street</text><text x="219.3" y="113.6" text-anchor="middle" font-family="Arial, sans-serif" font-size="6.5" textLength="18.0" lengthAdjust="spacing" font-weight="500" paint-order="stroke" stroke="#f3f5ee" stroke-width="1.55" stroke-linejoin="round" fill="#6f777a">350</text><text x="150.7" y="26.0" text-anchor="middle" font-family="Arial, sans-serif" font-size="6.5" textLength="18.0" lengthAdjust="spacing" font-weight="500" paint-order="stroke" stroke="#f3f5ee" stroke-width="1.55" stroke-linejoin="round" fill="#6f777a">338</text><text x="151.1" y="52.1" text-anchor="middle" font-family="Arial, sans-serif" font-size="6.5" textLength="18.0" lengthAdjust="spacing" font-weight="500" paint-order="stroke" stroke="#f3f5ee" stroke-width="1.55" stroke-linejoin="round" fill="#6f777a">341</text><text x="220.1" y="21.5" text-anchor="middle" font-family="Arial, sans-serif" font-size="6.5" textLength="18.0" lengthAdjust="spacing" font-weight="500" paint-order="stroke" stroke="#f3f5ee" stroke-width="1.55" stroke-linejoin="round" fill="#6f777a">318</text><text x="178.7" y="172.5" text-anchor="middle" font-family="Arial, sans-serif" font-size="6.5" textLength="18.0" lengthAdjust="spacing" font-weight="500" paint-order="stroke" stroke="#f3f5ee" stroke-width="1.55" stroke-linejoin="round" fill="#6f777a">4070</text><text x="241.0" y="21.2" text-anchor="middle" font-family="Arial, sans-serif" font-size="6.5" textLength="18.0" lengthAdjust="spacing" font-weight="500" paint-order="stroke" stroke="#f3f5ee" stroke-width="1.55" stroke-linejoin="round" fill="#6f777a">310</text><text x="183.9" y="22.6" text-anchor="middle" font-family="Arial, sans-serif" font-size="6.5" textLength="18.0" lengthAdjust="spacing" font-weight="500" paint-order="stroke" stroke="#f3f5ee" stroke-width="1.55" stroke-linejoin="round" fill="#6f777a">328</text><text x="228.3" y="185.3" text-anchor="middle" font-family="Arial, sans-serif" font-size="6.5" textLength="18.0" lengthAdjust="spacing" font-weight="500" paint-order="stroke" stroke="#f3f5ee" stroke-width="1.55" stroke-linejoin="round" fill="#6f777a">4021</text><text x="227.2" y="240.1" text-anchor="middle" font-family="Arial, sans-serif" font-size="6.5" textLength="18.0" lengthAdjust="spacing" font-weight="500" paint-order="stroke" stroke="#f3f5ee" stroke-width="1.55" stroke-linejoin="round" fill="#6f777a">4135</text><text x="226.7" y="141.4" text-anchor="middle" font-family="Arial, sans-serif" font-size="6.5" textLength="18.0" lengthAdjust="spacing" font-weight="500" paint-order="stroke" stroke="#f3f5ee" stroke-width="1.55" stroke-linejoin="round" fill="#6f777a">4015</text><text x="148.1" y="226.8" text-anchor="middle" font-family="Arial, sans-serif" font-size="6.5" textLength="18.0" lengthAdjust="spacing" font-weight="500" paint-order="stroke" stroke="#f3f5ee" stroke-width="1.55" stroke-linejoin="round" fill="#6f777a">4131</text><text x="178.5" y="141.5" text-anchor="middle" font-family="Arial, sans-serif" font-size="6.5" textLength="18.0" lengthAdjust="spacing" font-weight="500" paint-order="stroke" stroke="#f3f5ee" stroke-width="1.55" stroke-linejoin="round" fill="#6f777a">4012</text><text x="95.5" y="141.3" text-anchor="middle" font-family="Arial, sans-serif" font-size="6.5" textLength="18.0" lengthAdjust="spacing" font-weight="500" paint-order="stroke" stroke="#f3f5ee" stroke-width="1.55" stroke-linejoin="round" fill="#6f777a">400</text><text x="181.4" y="214.8" text-anchor="middle" font-family="Arial, sans-serif" font-size="6.5" textLength="18.0" lengthAdjust="spacing" font-weight="500" paint-order="stroke" stroke="#f3f5ee" stroke-width="1.55" stroke-linejoin="round" fill="#6f777a">4120</text><text x="182.4" y="236.9" text-anchor="middle" font-family="Arial, sans-serif" font-size="6.5" textLength="18.0" lengthAdjust="spacing" font-weight="500" paint-order="stroke" stroke="#f3f5ee" stroke-width="1.55" stroke-linejoin="round" fill="#6f777a">301</text><text x="146.4" y="180.6" text-anchor="middle" font-family="Arial, sans-serif" font-size="6.5" textLength="18.0" lengthAdjust="spacing" font-weight="500" paint-order="stroke" stroke="#f3f5ee" stroke-width="1.55" stroke-linejoin="round" fill="#6f777a">4111</text><text x="160.6" y="107.6" text-anchor="middle" font-family="Arial, sans-serif" font-size="6.5" textLength="18.0" lengthAdjust="spacing" font-weight="500" paint-order="stroke" stroke="#f3f5ee" stroke-width="1.55" stroke-linejoin="round" fill="#6f777a">390</text><g><title>Southwest 40th Street &amp; Southwest 42nd Avenue</title><rect x="65.1" y="67.2" width="6.9" height="6.1" rx="1.3" fill="#2796c9" stroke="#ffffff" stroke-width="1.05"/><rect x="66.3" y="68.4" width="4.4" height="2.1" rx="0.35" fill="#ffffff"/><circle cx="66.6" cy="72.2" r="0.5" fill="#ffffff"/><circle cx="70.4" cy="72.2" r="0.5" fill="#ffffff"/></g><g><title>Southwest 40th Street &amp; Southwest 42nd Avenue</title><rect x="147.5" y="91.4" width="6.9" height="6.1" rx="1.3" fill="#2796c9" stroke="#ffffff" stroke-width="1.05"/><rect x="148.8" y="92.7" width="4.4" height="2.1" rx="0.35" fill="#ffffff"/><circle cx="149.1" cy="96.4" r="0.5" fill="#ffffff"/><circle cx="152.8" cy="96.4" r="0.5" fill="#ffffff"/></g><g><title>Southwest 42nd Avenue &amp; Southwest 40th Street</title><rect x="127.1" y="136.3" width="6.9" height="6.1" rx="1.3" fill="#2796c9" stroke="#ffffff" stroke-width="1.05"/><rect x="128.4" y="137.6" width="4.4" height="2.1" rx="0.35" fill="#ffffff"/><circle cx="128.7" cy="141.3" r="0.5" fill="#ffffff"/><circle cx="132.4" cy="141.3" r="0.5" fill="#ffffff"/></g><g><title>Southwest 42nd Avenue &amp; Southwest 40th Street</title><rect x="108.4" y="158.6" width="6.9" height="6.1" rx="1.3" fill="#2796c9" stroke="#ffffff" stroke-width="1.05"/><rect x="109.6" y="159.9" width="4.4" height="2.1" rx="0.35" fill="#ffffff"/><circle cx="109.9" cy="163.6" r="0.5" fill="#ffffff"/><circle cx="113.7" cy="163.6" r="0.5" fill="#ffffff"/></g><g><title>signal</title><rect x="116.8" y="94.9" width="5.4" height="10.4" rx="2.1" fill="#3f4b52" stroke="#ffffff" stroke-width="1.1"/><circle cx="119.5" cy="97.3" r="1.1" fill="#d85a4f"/><circle cx="119.5" cy="100.1" r="1.1" fill="#e2b84b"/><circle cx="119.5" cy="102.9" r="1.1" fill="#55a86b"/></g><g><title>signal</title><rect x="115.2" y="59.5" width="5.4" height="10.4" rx="2.1" fill="#3f4b52" stroke="#ffffff" stroke-width="1.1"/><circle cx="117.9" cy="61.9" r="1.1" fill="#d85a4f"/><circle cx="117.9" cy="64.7" r="1.1" fill="#e2b84b"/><circle cx="117.9" cy="67.5" r="1.1" fill="#55a86b"/></g><g><title>signal</title><rect x="128.4" y="70.4" width="5.4" height="10.4" rx="2.1" fill="#3f4b52" stroke="#ffffff" stroke-width="1.1"/><circle cx="131.1" cy="72.8" r="1.1" fill="#d85a4f"/><circle cx="131.1" cy="75.6" r="1.1" fill="#e2b84b"/><circle cx="131.1" cy="78.4" r="1.1" fill="#55a86b"/></g><g><title>signal</title><rect x="101.1" y="82.9" width="5.4" height="10.4" rx="2.1" fill="#3f4b52" stroke="#ffffff" stroke-width="1.1"/><circle cx="103.8" cy="85.3" r="1.1" fill="#d85a4f"/><circle cx="103.8" cy="88.1" r="1.1" fill="#e2b84b"/><circle cx="103.8" cy="90.9" r="1.1" fill="#55a86b"/></g><g><title>7-Eleven</title><circle cx="219.3" cy="113.6" r="4.8" fill="#6a9952" stroke="#ffffff" stroke-width="1.7"/><path d="M216.6,112.7 H222.0 L221.0,116.5 H217.6 Z" stroke="#ffffff" stroke-width="1.15" stroke-linejoin="round" fill="none"/><path d="M217.9,112.7 C218.1,110.4 220.4,110.4 220.6,112.7" stroke="#ffffff" stroke-width="1.15" stroke-linecap="round" fill="none"/></g><g opacity="0.56"><title>crossing</title><path d="M125.8,85.7 L130.4,85.7 M125.8,87.5 L130.4,87.5 M125.8,89.3 L130.4,89.3" stroke="#ffffff" stroke-width="2.1" stroke-linecap="round"/><path d="M125.8,85.7 L130.4,85.7 M125.8,87.5 L130.4,87.5 M125.8,89.3 L130.4,89.3" stroke="#59656a" stroke-width="0.85" stroke-linecap="round"/></g><g opacity="0.56"><title>crossing</title><path d="M104.9,74.5 L109.5,74.5 M104.9,76.3 L109.5,76.3 M104.9,78.1 L109.5,78.1" stroke="#ffffff" stroke-width="2.1" stroke-linecap="round"/><path d="M104.9,74.5 L109.5,74.5 M104.9,76.3 L109.5,76.3 M104.9,78.1 L109.5,78.1" stroke="#59656a" stroke-width="0.85" stroke-linecap="round"/></g><g opacity="0.56"><title>crossing</title><path d="M195.8,90.8 L200.4,90.8 M195.8,92.6 L200.4,92.6 M195.8,94.4 L200.4,94.4" stroke="#ffffff" stroke-width="2.1" stroke-linecap="round"/><path d="M195.8,90.8 L200.4,90.8 M195.8,92.6 L200.4,92.6 M195.8,94.4 L200.4,94.4" stroke="#59656a" stroke-width="0.85" stroke-linecap="round"/></g></svg>