<svg xmlns="http://www.w3.org/2000/svg" width="256" height="256" viewBox="0 0 256 256"><defs><pattern id="park-dots" width="22" height="22" patternUnits="userSpaceOnUse"><circle cx="5" cy="5" r="2.1" fill="#63a95d" fill-opacity="0.26"/><circle cx="16" cy="7" r="1.55" fill="#76b970" fill-opacity="0.23"/><circle cx="10" cy="17" r="1.9" fill="#61a65b" fill-opacity="0.24"/><circle cx="21" cy="17" r="1.25" fill="#80c174" fill-opacity="0.18"/><circle cx="1" cy="19" r="1.2" fill="#70b46a" fill-opacity="0.17"/></pattern><pattern id="park-canopy" width="54" height="48" patternUnits="userSpaceOnUse"><circle cx="12" cy="11" r="3.6" fill="#5ea75a" fill-opacity="0.22"/><circle cx="31" cy="15" r="2.9" fill="#75ba6d" fill-opacity="0.18"/><circle cx="45" cy="31" r="3.3" fill="#67ae62" fill-opacity="0.20"/><circle cx="19" cy="39" r="2.5" fill="#83c378" fill-opacity="0.16"/></pattern></defs><rect width="256" height="256" fill="#f1efe7"/><path d="M-5125.4,1129.1 L-5018.0,1084.5 L-4984.4,1068.4 L-4834.1,996.2 L-4805.9,1023.5 L-4803.4,1025.8 L-4750.8,980.8 L-4738.2,971.2 L-4717.3,952.3 L-4599.2,843.9 L-4503.9,735.1 L-4500.3,728.2 L-4496.8,724.2 L-4491.2,717.9 L-4485.6,711.4 L-4483.3,708.7 L-4520.9,660.2 L-4471.2,630.4 L-4444.2,666.3 L-4406.1,622.7 L-4438.4,579.9 L-4398.4,538.3 L-4367.7,578.8 L-4332.3,538.6 L-4317.3,528.8 L-4243.7,481.0 L-4207.3,456.9 L-4163.5,428.0 L-4142.8,414.5 L-4090.4,380.6 L-4103.9,362.8 L-4128.1,330.5 L-4065.6,290.8 L-4042.8,279.0 L-4041.1,277.8 L-4029.1,268.5 L-3986.3,245.7 L-3983.3,241.0 L-3971.3,232.8 L-3964.8,223.3 L-3963.0,221.9 L-3952.6,217.9 L-3928.9,209.4 L-3912.8,202.3 L-3855.7,175.5 L-3855.0,177.4 L-3807.2,156.9 L-3787.7,182.0 L-3744.1,152.9 L-3737.9,148.7 L-3737.3,148.2 L-3736.7,147.4 L-3735.8,145.7 L-3735.2,144.2 L-3735.0,142.3 L-3735.0,140.8 L-3735.2,139.4 L-3735.4,137.7 L-3735.5,136.5 L-3735.4,135.4 L-3735.1,134.3 L-3734.3,132.3 L-3733.8,131.2 L-3732.6,129.3 L-3731.2,127.9 L-3724.9,125.3 L-3719.6,123.4 L-3712.8,121.2 L-3709.7,120.3 L-3704.1,118.5 L-3700.1,117.0 L-3694.7,114.8 L-3687.3,111.6 L-3679.3,107.8 L-3675.0,105.7 L-3669.6,103.0 L-3664.6,100.1 L-3659.5,97.1 L-3654.4,93.8 L-3652.8,92.7 L-3642.4,84.8 L-3633.7,78.1 L-3625.2,70.9 L-3617.2,63.4 L-3611.5,56.9 L-3605.8,50.0 L-3598.8,41.0 L-3592.4,32.0 L-3585.1,20.4 L-3580.3,11.5 L-3577.3,5.8 L-3572.8,-3.9 L-3569.1,-12.8 L-3565.7,-22.4 L-3563.0,-30.9 L-3560.1,-44.6 L-3557.9,-56.8 L-3556.7,-67.4 L-3555.8,-79.7 L-3555.6,-93.0 L-3556.5,-105.3 L-3558.6,-121.2 L-3560.7,-132.1 L-3563.3,-142.5 L-3566.9,-154.1 L-3570.1,-163.1 L-3573.7,-172.9 L-3577.1,-180.9 L-3579.4,-186.2 L-3580.4,-190.0 L-3580.5,-193.0 L-3580.2,-195.6 L-3579.1,-197.9 L-3577.5,-199.9 L-3575.4,-201.0 L-3573.2,-201.3 L-3567.1,-199.8 L-3550.3,-195.8 L-3544.7,-323.1 L-3522.8,-550.4 L-3546.6,-556.1 L-3549.2,-563.2 L-3549.1,-573.4 L-3545.8,-596.7 L-3541.3,-601.9 L-3537.3,-617.1 L-3512.1,-611.2 L-3498.1,-756.4 L-3494.3,-796.7 L-3502.1,-798.6 L-3497.4,-817.8 L-3513.6,-821.6 L-3511.5,-833.4 L-3508.7,-841.1 L-3505.1,-850.2 L-3499.1,-862.8 L-3492.7,-861.4 L-3483.9,-952.7 L-3481.9,-1008.1 L-3481.5,-1018.3 L-3476.8,-1053.6 L-3467.4,-1141.5 L-3405.0,-1304.2 L-3390.8,-1348.5 L-3217.5,-1415.0 L-3200.5,-1421.8 L-3197.6,-1423.4 L-3195.2,-1425.5 L-3192.7,-1428.4 L-3190.8,-1431.9 L-3189.5,-1435.3 L-3189.1,-1440.2 L-3189.4,-1446.4 L-3191.7,-1524.1 L-3192.6,-1539.2 L-3192.8,-1549.6 L-3193.1,-1569.6 L-3193.5,-1575.9 L-3194.3,-1581.2 L-3195.4,-1586.0 L-3196.9,-1590.7 L-3199.3,-1596.4 L-3202.9,-1602.5 L-3206.5,-1607.3 L-3209.2,-1611.8 L-3211.9,-1617.8 L-3214.2,-1623.7 L-3215.1,-1628.4 L-3215.8,-1633.6 L-3216.1,-1638.9 L-3216.0,-1644.0 L-3215.4,-1649.9 L-3214.0,-1655.8 L-3212.1,-1661.0 L-3210.2,-1665.8 L-3207.7,-1670.4 L-3204.7,-1675.9 L-3202.6,-1681.0 L-3200.9,-1687.5 L-3197.7,-1692.3 L-3198.8,-1737.0 L-3200.4,-1739.5 L-3201.0,-1769.8 L-3201.8,-1805.6 L-3201.2,-1810.5 L-3199.6,-1815.6 L-3195.6,-1823.5 L-3168.9,-1881.0 L-3168.3,-1882.0 L-3163.6,-1892.2 L-3159.1,-1902.0 L-3154.2,-1912.0 L-3149.2,-1922.2 L-3146.8,-1927.3 L-3120.6,-1981.2 L-3092.5,-2040.8 L-3031.6,-2164.2 L-3068.2,-2205.1 L-3098.0,-2141.7 L-3123.8,-2086.7 L-3127.7,-2078.9 L-3135.6,-2062.7 L-3151.5,-2064.0 L-3155.9,-2064.3 L-3157.4,-2062.8 L-3155.3,-2060.9 L-3163.5,-2053.7 L-3169.9,-2047.7 L-3171.1,-2022.3 L-3173.5,-2017.2 L-3181.3,-2017.5 L-3182.6,-2018.0 L-3284.8,-2060.1 L-3287.0,-2061.3 L-3289.4,-2062.8 L-3293.0,-2065.6 L-3295.9,-2068.3 L-3298.3,-2070.9 L-3300.6,-2074.1 L-3302.4,-2076.9 L-3303.8,-2079.8 L-3305.0,-2082.9 L-3305.7,-2084.9 L-3306.2,-2087.5 L-3306.7,-2090.5 L-3307.1,-2094.6 L-3307.1,-2100.4 L-3307.8,-2120.3 L-3305.0,-2120.5 L-3305.4,-2130.9 L-3305.8,-2148.2 L-3303.2,-2148.3 L-3303.4,-2160.1 L-3306.3,-2160.0 L-3307.7,-2209.8 L-3304.9,-2209.9 L-3305.4,-2221.5 L-3308.1,-2221.4 L-3309.2,-2258.2 L-3295.7,-2272.7 L-3278.5,-2273.3 L-3265.6,-2273.8 L-3248.7,-2274.3 L-3232.4,-2274.9 L-3217.7,-2275.4 L-3211.4,-2275.6 L-3211.7,-2281.3 L-3211.8,-2287.2 L-3212.8,-2306.3 L-3213.1,-2342.9 L-3213.6,-2343.5 L-3213.7,-2347.2 L-3212.6,-2347.2 L-3215.2,-2435.3 L-3217.4,-2518.1 L-3217.8,-2520.7 L-3218.0,-2525.5 L-3254.1,-2524.2 L-3278.1,-2526.3 L-3457.7,-2520.0 L-3457.7,-2521.6 L-3458.1,-2529.3 L-3543.3,-2526.3 L-3543.5,-2540.4 L-3554.7,-2542.9 L-3556.7,-2603.5 L-3225.3,-2615.0 L-3219.8,-2622.6 L-3220.0,-2644.1 L-3220.4,-2662.6 L-3220.7,-2674.3 L-3221.2,-2685.6 L-3247.5,-2698.1 L-3248.6,-2725.6 L-3221.5,-2739.0 L-3224.0,-2802.7 L-3224.7,-2805.9 L-3251.5,-2818.4 L-3252.4,-2852.5 L-3226.9,-2865.7 L-3238.3,-3004.1 L-3235.2,-3065.8 L-3233.8,-3166.2 L-3233.9,-3275.4 L-3231.5,-3290.8 L-3231.3,-3298.1 L-3233.7,-3307.1 L-3231.2,-3307.1 L-3231.2,-3315.1 L-3229.7,-3520.6 L-3229.9,-3529.8 L-3232.8,-3529.7 L-3232.7,-3567.5 L-3234.4,-3569.9 L-3236.9,-3608.9 L-3231.8,-3644.5 L-3232.5,-3687.7 L-3234.2,-3698.0 L-3231.6,-3730.0 L-3233.4,-3768.6 L-3237.9,-3810.0 L-3246.4,-3877.0 L-3242.4,-3895.4 L-3244.1,-3913.4 L-3259.4,-3926.5 L-3281.9,-3926.2 L-3316.1,-3921.7 L-3338.3,-3921.7 L-3358.6,-3929.2 L-3385.1,-3947.4 L-3385.1,-3980.0 L-3385.8,-4020.2 L-3383.2,-4053.6 L-3374.4,-4079.7 L-3227.0,-4082.4 L-3223.7,-4291.4 L-3223.7,-4592.2 L-3225.2,-4701.4 L4730.9,-7987.2 L4730.9,10121.9 L-5125.4,10121.9 L-5125.4,1129.1 Z" fill="#add7e1" stroke="none"><title>Biscayne Bay</title></path><path d="M1068.8,-663.4 L1063.5,-651.6 L1033.7,-665.4 L1033.5,-664.9 L998.5,-681.5 L997.6,-681.9 L889.2,-678.5 L894.4,-539.4 L871.2,-538.6 L852.0,-537.4 L848.0,-668.2 L847.8,-669.9 L847.2,-671.4 L846.5,-673.0 L845.3,-674.5 L843.9,-675.6 L842.5,-676.1 L840.9,-676.6 L839.1,-676.7 L726.7,-673.2 L622.0,-669.4 L621.3,-669.1 L621.0,-668.6 L620.8,-667.9 L621.3,-658.6 L611.3,-658.1 L612.4,-614.0 L593.0,-613.5 L591.9,-657.3 L580.2,-668.6 L254.7,-656.9 L235.1,-656.7 L216.0,-656.4 L181.8,-655.6 L177.7,-655.0 L175.1,-654.6 L172.5,-653.9 L170.4,-653.1 L168.5,-652.3 L166.5,-651.2 L164.8,-650.1 L163.0,-648.6 L161.2,-646.9 L159.3,-644.6 L157.8,-642.3 L156.8,-640.3 L155.9,-637.8 L155.3,-635.7 L154.9,-633.4 L154.7,-630.9 L154.6,-629.0 L154.8,-627.0 L179.9,-469.2 L526.5,-185.6 L531.7,-192.1 L579.2,-250.6 L573.1,-424.6 L643.0,-426.9 L711.4,-429.2 L718.8,-211.8 L636.1,-209.1 L631.0,-202.6 L580.7,-140.8 L612.2,-115.4 L731.2,-18.3 L752.0,-1.3 L813.6,19.1 L816.7,16.3 L820.0,19.1 L841.5,38.5 L832.4,46.1 L820.9,42.4 L815.9,41.8 L815.5,44.6 L814.9,46.5 L813.3,48.5 L811.8,50.2 L880.2,106.3 L895.4,87.9 L899.5,87.6 L909.9,96.1 L910.0,100.3 L902.5,108.9 L895.5,103.6 L892.6,103.5 L886.4,111.1 L887.4,113.8 L965.9,177.0 L978.5,162.4 L996.1,162.9 L995.9,175.5 L978.3,175.7 L974.4,182.3 L969.6,209.3 L968.7,213.3 L977.9,221.5 L992.7,235.5 L1000.7,242.0 L1004.8,245.8 L1005.2,247.2 L1004.9,248.7 L1004.2,250.0 L1003.0,251.0 L997.7,253.0 L978.9,259.8 L943.7,272.9 L931.2,277.7 L923.6,280.7 L923.3,281.1 L923.1,281.4 L923.0,281.9 L923.0,282.3 L923.2,282.7 L923.3,283.1 L923.6,283.4 L924.1,283.8 L924.7,284.1 L925.4,284.2 L926.7,284.1 L929.4,283.7 L934.1,282.3 L946.8,277.3 L1000.3,255.9 L1004.3,254.4 L1008.0,253.5 L1010.8,253.9 L1013.0,254.7 L1024.7,265.2 L1032.3,272.8 L1032.8,272.9 L1033.4,272.8 L1033.9,272.6 L1034.3,272.2 L1034.8,271.8 L1035.0,271.2 L1035.2,270.7 L1035.2,270.0 L1023.6,256.8 L1018.5,251.0 L1015.9,247.7 L1013.8,245.0 L1013.4,243.4 L1013.6,241.6 L1021.8,220.4 L1045.7,175.6 L1050.9,174.0 L1070.3,171.5 L1078.6,170.5 L1091.8,169.8 L1110.8,169.1 L1157.0,157.2 L1184.8,149.2 L1194.4,146.7 L1201.2,145.8 L1208.4,145.5 L1219.1,142.1 L1233.1,137.1 L1253.1,132.4 L1262.3,130.9 L1276.2,131.6 L1320.7,145.9 L1347.0,154.0 L1351.6,155.3 L1354.0,155.2 L1355.6,153.4 L1355.4,151.3 L1353.8,150.1 L1326.2,141.3 L1290.7,128.7 L1290.4,126.0 L1290.8,124.0 L1291.8,120.4 L1292.9,116.3 L1292.9,115.3 L1292.9,114.6 L1292.7,113.8 L1292.5,113.3 L1292.3,112.9 L1292.0,112.6 L1291.4,112.3 L1290.9,112.4 L1289.8,112.6 L1288.8,112.9 L1287.9,113.3 L1282.3,125.6 L1272.2,123.1 L1262.9,119.4 L1260.6,110.2 L1259.3,92.7 L1259.4,75.4 L1264.6,55.1 L1272.5,42.0 L1276.3,37.5 L1282.1,36.5 L1290.7,38.6 L1289.9,44.2 L1291.2,48.5 L1295.5,49.1 L1298.4,40.0 L1300.1,29.5 L1299.7,27.0 L1298.3,25.8 L1295.8,26.6 L1294.6,29.5 L1291.0,33.0 L1287.1,33.4 L1281.7,30.0 L1278.8,25.5 L1277.8,11.1 L1279.6,-6.0 L1287.0,-29.9 L1294.2,-42.1 L1303.6,-48.8 L1310.5,-46.4 L1309.5,-39.0 L1311.6,-35.3 L1317.4,-37.0 L1321.1,-47.8 L1324.1,-63.3 L1321.2,-65.3 L1317.7,-63.9 L1315.9,-60.6 L1313.1,-64.3 L1311.9,-75.6 L1317.9,-104.9 L1330.4,-134.1 L1339.2,-138.3 L1344.8,-138.2 L1342.3,-131.3 L1343.4,-127.1 L1347.3,-125.2 L1348.5,-126.8 L1351.3,-133.0 L1355.9,-145.7 L1366.9,-161.8 L1367.4,-163.7 L1366.7,-167.5 L1362.4,-167.2 L1355.5,-160.4 L1353.3,-167.6 L1354.9,-181.1 L1362.7,-200.7 L1369.1,-218.9 L1376.7,-230.9 L1386.2,-236.1 L1392.5,-223.6 L1397.1,-222.2 L1397.9,-223.9 L1397.7,-226.6 L1389.7,-241.3 L1389.8,-245.8 L1393.3,-249.1 L1410.5,-278.4 L1431.4,-308.5 L1432.7,-307.3 L1435.5,-306.5 L1438.7,-306.4 L1441.0,-321.5 L1444.0,-334.6 L1454.3,-347.2 L1458.0,-354.3 L1469.5,-361.7 L1480.4,-373.6 L1491.4,-380.8 L1491.4,-378.0 L1490.8,-376.2 L1489.1,-373.5 L1489.0,-371.0 L1492.8,-370.5 L1497.2,-371.5 L1497.7,-376.2 L1497.7,-389.2 L1501.0,-393.2 L1511.4,-404.7 L1524.5,-421.4 L1536.0,-423.2 L1537.7,-431.7 L1543.7,-435.6 L1548.6,-441.0 L1552.2,-439.9 L1557.0,-440.1 L1562.3,-444.6 L1573.8,-454.6 L1588.1,-467.3 L1618.3,-453.9 L1664.8,-432.0 L1722.5,-404.2 L2011.8,-272.0 L2121.9,-221.3 L2124.6,-221.2 L2127.2,-222.7 L2128.5,-225.0 L2128.4,-227.8 L2015.7,-280.7 L1726.4,-410.9 L1668.0,-438.5 L1621.3,-460.5 L1589.1,-474.8 L1370.5,-574.2 L1257.0,-628.0 L1152.4,-676.0 L1139.8,-648.3 L1129.7,-653.0 L1143.2,-682.7 L1143.1,-686.9 L1132.5,-692.8 L1129.5,-686.5 L1078.5,-685.0 L1068.8,-663.4 Z" fill="#ece7dc" stroke="#d7d1c5" stroke-width="0.3"><title>Fisher Island</title></path><path d="M-2241.0,-409.2 L-1215.7,-202.2 L-97.2,356.6 L760.3,1205.2 L1095.8,2033.0 L685.7,2715.9 L-78.6,3088.4 L-805.6,3067.7 L-1402.1,2653.8 L-1961.4,1950.2 L-2651.1,1143.1 L-2576.5,191.1 Z" fill="#f1efe7" stroke="#8ab09d" stroke-width="0.65"><title>Virginia Key</title></path><path d="M-1285.1,2153.3 L-1281.1,2163.7 L-1268.0,2191.3 L-1262.3,2201.9 L-1171.4,2162.0 L-1129.8,2144.5 L-1043.8,2104.6 L-992.6,2071.1 L-895.6,2021.7 L-794.1,1969.9 L-765.1,1953.0 L-767.6,1939.9 L-688.7,1899.1 L-660.7,1887.0 L-653.5,1899.9 L-578.3,1894.9 L-420.8,1895.1 L-272.0,1893.3 L-102.0,1890.9 L46.4,1889.9 L116.3,1903.4 L278.8,2079.8 L629.1,1768.6 L828.2,1311.3 L911.3,840.1 L826.7,496.7 L169.2,-107.4 L-16.0,-121.3 L-106.7,455.8 L-85.3,628.4 L336.9,632.6 L331.7,707.9 L331.8,973.6 L332.9,1107.2 L387.6,1107.6 L385.5,1163.9 L378.8,1177.4 L359.4,1177.4 L360.6,1248.3 L345.9,1267.7 L380.9,1281.0 L434.6,1332.3 L458.9,1393.5 L431.3,1454.9 L208.3,1710.7 L130.5,1777.4 L2.3,1827.0 L-241.5,1844.2 L-337.3,1829.1 L-635.5,1861.5 L-1306.1,2126.4 L-1285.1,2153.3 Z" fill="#d5f2cb" stroke="#9fcf91" stroke-width="0.4"><title>Virginia Key Beach North Point Park</title></path><path d="M-1285.1,2153.3 L-1281.1,2163.7 L-1268.0,2191.3 L-1262.3,2201.9 L-1171.4,2162.0 L-1129.8,2144.5 L-1043.8,2104.6 L-992.6,2071.1 L-895.6,2021.7 L-794.1,1969.9 L-765.1,1953.0 L-767.6,1939.9 L-688.7,1899.1 L-660.7,1887.0 L-653.5,1899.9 L-578.3,1894.9 L-420.8,1895.1 L-272.0,1893.3 L-102.0,1890.9 L46.4,1889.9 L116.3,1903.4 L278.8,2079.8 L629.1,1768.6 L828.2,1311.3 L911.3,840.1 L826.7,496.7 L169.2,-107.4 L-16.0,-121.3 L-106.7,455.8 L-85.3,628.4 L336.9,632.6 L331.7,707.9 L331.8,973.6 L332.9,1107.2 L387.6,1107.6 L385.5,1163.9 L378.8,1177.4 L359.4,1177.4 L360.6,1248.3 L345.9,1267.7 L380.9,1281.0 L434.6,1332.3 L458.9,1393.5 L431.3,1454.9 L208.3,1710.7 L130.5,1777.4 L2.3,1827.0 L-241.5,1844.2 L-337.3,1829.1 L-635.5,1861.5 L-1306.1,2126.4 L-1285.1,2153.3 Z" fill="url(#park-dots)" stroke="none"/><path d="M-1285.1,2153.3 L-1281.1,2163.7 L-1268.0,2191.3 L-1262.3,2201.9 L-1171.4,2162.0 L-1129.8,2144.5 L-1043.8,2104.6 L-992.6,2071.1 L-895.6,2021.7 L-794.1,1969.9 L-765.1,1953.0 L-767.6,1939.9 L-688.7,1899.1 L-660.7,1887.0 L-653.5,1899.9 L-578.3,1894.9 L-420.8,1895.1 L-272.0,1893.3 L-102.0,1890.9 L46.4,1889.9 L116.3,1903.4 L278.8,2079.8 L629.1,1768.6 L828.2,1311.3 L911.3,840.1 L826.7,496.7 L169.2,-107.4 L-16.0,-121.3 L-106.7,455.8 L-85.3,628.4 L336.9,632.6 L331.7,707.9 L331.8,973.6 L332.9,1107.2 L387.6,1107.6 L385.5,1163.9 L378.8,1177.4 L359.4,1177.4 L360.6,1248.3 L345.9,1267.7 L380.9,1281.0 L434.6,1332.3 L458.9,1393.5 L431.3,1454.9 L208.3,1710.7 L130.5,1777.4 L2.3,1827.0 L-241.5,1844.2 L-337.3,1829.1 L-635.5,1861.5 L-1306.1,2126.4 L-1285.1,2153.3 Z" fill="url(#park-canopy)" stroke="none"/><path d="M226.9,105.9 L202.0,86.7 L172.1,63.9 L153.4,47.2 L127.5,32.1 L91.0,29.2 L91.0,49.0 L69.0,101.0 L47.0,129.0 L43.0,200.0 L36.0,239.0 L-9.0,288.0 L-55.0,334.0 L-100.0,482.0 L-92.0,619.3 L191.6,622.9 L337.7,631.0 L343.5,741.6 L454.1,736.0 L411.6,649.0 L374.7,632.9 L349.8,391.3 L348.8,371.7 L357.3,362.4 L370.8,357.0 L378.9,339.3 L377.7,299.9 L359.9,255.9 L296.2,231.6 L251.1,192.1 L234.2,152.3 L230.8,128.0 L226.9,105.9 Z" fill="#d5f2cb" stroke="#9fcf91" stroke-width="0.4"><title>Virginia Key North Point Trails</title></path><path d="M226.9,105.9 L202.0,86.7 L172.1,63.9 L153.4,47.2 L127.5,32.1 L91.0,29.2 L91.0,49.0 L69.0,101.0 L47.0,129.0 L43.0,200.0 L36.0,239.0 L-9.0,288.0 L-55.0,334.0 L-100.0,482.0 L-92.0,619.3 L191.6,622.9 L337.7,631.0 L343.5,741.6 L454.1,736.0 L411.6,649.0 L374.7,632.9 L349.8,391.3 L348.8,371.7 L357.3,362.4 L370.8,357.0 L378.9,339.3 L377.7,299.9 L359.9,255.9 L296.2,231.6 L251.1,192.1 L234.2,152.3 L230.8,128.0 L226.9,105.9 Z" fill="url(#park-dots)" stroke="none"/><path d="M226.9,105.9 L202.0,86.7 L172.1,63.9 L153.4,47.2 L127.5,32.1 L91.0,29.2 L91.0,49.0 L69.0,101.0 L47.0,129.0 L43.0,200.0 L36.0,239.0 L-9.0,288.0 L-55.0,334.0 L-100.0,482.0 L-92.0,619.3 L191.6,622.9 L337.7,631.0 L343.5,741.6 L454.1,736.0 L411.6,649.0 L374.7,632.9 L349.8,391.3 L348.8,371.7 L357.3,362.4 L370.8,357.0 L378.9,339.3 L377.7,299.9 L359.9,255.9 L296.2,231.6 L251.1,192.1 L234.2,152.3 L230.8,128.0 L226.9,105.9 Z" fill="url(#park-canopy)" stroke="none"/><path d="M831.1,668.7 L805.2,305.8 L352.5,-71.7 L48.9,-319.1 L50.0,-129.2 L20.3,31.8 L17.3,73.7 L-87.0,308.5 L-110.2,449.1 L-110.3,531.7 L-98.1,637.4 L73.1,635.0 L334.8,641.4 L364.1,1065.6 L387.0,1236.6 L502.7,1243.1 L825.9,1175.9 L831.1,668.7 Z" fill="#d5f2cb" stroke="#9fcf91" stroke-width="0.4"><title>Virginia Key Outdoor Center</title></path><path d="M831.1,668.7 L805.2,305.8 L352.5,-71.7 L48.9,-319.1 L50.0,-129.2 L20.3,31.8 L17.3,73.7 L-87.0,308.5 L-110.2,449.1 L-110.3,531.7 L-98.1,637.4 L73.1,635.0 L334.8,641.4 L364.1,1065.6 L387.0,1236.6 L502.7,1243.1 L825.9,1175.9 L831.1,668.7 Z" fill="url(#park-dots)" stroke="none"/><path d="M831.1,668.7 L805.2,305.8 L352.5,-71.7 L48.9,-319.1 L50.0,-129.2 L20.3,31.8 L17.3,73.7 L-87.0,308.5 L-110.2,449.1 L-110.3,531.7 L-98.1,637.4 L73.1,635.0 L334.8,641.4 L364.1,1065.6 L387.0,1236.6 L502.7,1243.1 L825.9,1175.9 L831.1,668.7 Z" fill="url(#park-canopy)" stroke="none"/><path d="M44.4,133.0 L32.9,86.5 L-0.3,48.7 L-770.1,-414.4 L-959.4,-401.3 L-1259.2,-270.7 L-1478.5,-117.2 L-1697.2,123.5 L-2042.5,687.9 L-1785.4,936.7 L-1727.4,992.7 L-1369.4,1334.2 L-1171.4,1525.7 L-1037.4,1671.7 L-1024.4,1695.7 L-994.4,1839.7 L-1029.4,1930.7 L-1082.4,2014.7 L-1091.4,2037.7 L-664.4,1857.7 L-576.4,1745.7 L-364.4,1436.7 L-286.4,1354.7 L-289.4,1186.7 L-284.0,998.7 L-283.7,988.7 L-313.1,988.7 L-367.6,990.7 L-398.0,940.0 L-418.1,845.7 L-426.4,752.7 L-417.3,705.7 L-430.4,646.7 L-429.1,592.7 L-395.1,569.7 L-348.9,557.7 L-262.0,573.7 L-168.3,530.8 L-138.5,467.4 L-109.5,381.7 L-43.1,316.7 L32.1,235.4 L44.4,133.0 Z" fill="#c4e7bd" stroke="#9fcf91" stroke-width="0.4"><title>Bill Sadowski Critical Wildlife Area</title></path><path d="M44.4,133.0 L32.9,86.5 L-0.3,48.7 L-770.1,-414.4 L-959.4,-401.3 L-1259.2,-270.7 L-1478.5,-117.2 L-1697.2,123.5 L-2042.5,687.9 L-1785.4,936.7 L-1727.4,992.7 L-1369.4,1334.2 L-1171.4,1525.7 L-1037.4,1671.7 L-1024.4,1695.7 L-994.4,1839.7 L-1029.4,1930.7 L-1082.4,2014.7 L-1091.4,2037.7 L-664.4,1857.7 L-576.4,1745.7 L-364.4,1436.7 L-286.4,1354.7 L-289.4,1186.7 L-284.0,998.7 L-283.7,988.7 L-313.1,988.7 L-367.6,990.7 L-398.0,940.0 L-418.1,845.7 L-426.4,752.7 L-417.3,705.7 L-430.4,646.7 L-429.1,592.7 L-395.1,569.7 L-348.9,557.7 L-262.0,573.7 L-168.3,530.8 L-138.5,467.4 L-109.5,381.7 L-43.1,316.7 L32.1,235.4 L44.4,133.0 Z" fill="url(#park-dots)" stroke="none"/><path d="M44.4,133.0 L32.9,86.5 L-0.3,48.7 L-770.1,-414.4 L-959.4,-401.3 L-1259.2,-270.7 L-1478.5,-117.2 L-1697.2,123.5 L-2042.5,687.9 L-1785.4,936.7 L-1727.4,992.7 L-1369.4,1334.2 L-1171.4,1525.7 L-1037.4,1671.7 L-1024.4,1695.7 L-994.4,1839.7 L-1029.4,1930.7 L-1082.4,2014.7 L-1091.4,2037.7 L-664.4,1857.7 L-576.4,1745.7 L-364.4,1436.7 L-286.4,1354.7 L-289.4,1186.7 L-284.0,998.7 L-283.7,988.7 L-313.1,988.7 L-367.6,990.7 L-398.0,940.0 L-418.1,845.7 L-426.4,752.7 L-417.3,705.7 L-430.4,646.7 L-429.1,592.7 L-395.1,569.7 L-348.9,557.7 L-262.0,573.7 L-168.3,530.8 L-138.5,467.4 L-109.5,381.7 L-43.1,316.7 L32.1,235.4 L44.4,133.0 Z" fill="url(#park-canopy)" stroke="none"/><path d="M101.9,95.9 L136.2,126.9 L163.4,137.2 L184.5,152.6 L190.6,160.4 L192.0,181.6 L196.4,191.4 L206.4,199.1 L239.5,213.7 L270.8,228.0 L289.7,247.9 L300.9,252.8 L321.5,254.4" fill="none" stroke="#6fb5c7" stroke-width="1.4" stroke-dasharray="5 7" opacity="0.34" stroke-linecap="round" stroke-linejoin="round"></path><path d="M341.4,191.4 L298.1,181.6 L188.1,24.0 L160.8,6.7 L49.8,9.5" fill="none" stroke="#79bdd0" stroke-width="1.4" stroke-linecap="round" stroke-linejoin="round"></path><path d="M49.8,9.5 L50.8,22.3 L33.3,39.0 L27.1,67.4 L-4.4,143.2 L-39.6,186.9 L-58.5,241.1" fill="none" stroke="#79bdd0" stroke-width="1.4" stroke-linecap="round" stroke-linejoin="round"></path><path d="M52.1,250.7 L53.5,231.7 L59.8,213.2 L60.2,203.0 L53.8,191.2 L50.3,179.9 L52.2,165.5 L54.5,142.8 L67.6,116.8 L83.8,95.3 L90.1,79.7 L94.8,68.6 L103.0,51.4 L104.0,40.7 L103.3,34.1 L104.0,21.4 L105.3,11.6" fill="none" stroke="#eeeeea" stroke-width="1.9" stroke-linecap="round" stroke-linejoin="round"></path><path d="M114.0,182.5 L120.0,181.5 L125.0,179.6 L128.9,179.4 L133.2,180.3 L136.7,184.1 L138.5,189.1 L140.1,192.7 L142.2,195.3" fill="none" stroke="#cf828d" stroke-width="1.3" stroke-dasharray="1.6 3.0" opacity="0.62" stroke-linecap="round" stroke-linejoin="round"></path><path d="M70.3,159.0 L67.9,161.1 L66.3,165.6 L73.8,171.7 L80.7,181.5 L83.8,187.9 L87.3,187.6 L90.5,186.1 L97.9,189.5 L104.3,195.1 L111.9,196.1 L117.2,198.5 L124.1,202.2 L130.0,203.3 L136.9,211.0 L144.0,218.4 L147.7,222.1 L152.2,223.9 L155.4,221.8 L159.4,222.6 L159.9,227.7 L159.7,234.6 L161.5,241.2 L165.8,249.7 L185.6,264.5 L196.8,275.4 L206.0,278.6 L214.3,289.2 L227.5,294.5 L237.3,295.5 L245.8,304.8" fill="none" stroke="#8fb58e" stroke-width="1.7" opacity="0.58" stroke-linecap="round" stroke-linejoin="round"></path><path d="M209.8,323.3 L157.8,291.8 L144.7,283.9 L137.1,280.8 L121.8,268.4 L117.5,266.4 L115.6,264.4 L109.5,259.5 L103.1,256.4 L93.4,250.8 L91.6,249.1 L90.5,249.0 L89.2,248.3 L86.1,245.3 L82.5,242.3 L79.6,240.8 L75.3,239.6 L70.2,239.5 L67.6,241.1 L66.0,243.6 L65.8,247.1 L66.4,250.0 L72.6,257.1 L79.0,262.6 L83.0,264.9 L87.3,265.9 L97.3,265.6 L107.3,266.1 L111.0,267.9 L113.8,270.4 L119.1,275.1 L122.6,280.2 L126.8,284.9 L130.5,288.4 L133.0,289.1 L140.8,291.1 L144.7,292.9 L148.7,295.7 L150.9,300.3 L155.2,306.4" fill="none" stroke="#8fb58e" stroke-width="1.7" opacity="0.58" stroke-linecap="round" stroke-linejoin="round"></path><path d="M351.3,333.4 L299.7,303.0 L243.9,273.5 L217.2,262.7 L201.8,253.3 L193.6,246.7 L155.4,202.7 L142.2,195.3 L127.2,186.9 L114.0,182.5 L108.8,180.7 L87.3,163.3 L77.2,157.2 L70.3,159.0" fill="none" stroke="#8fb58e" stroke-width="1.7" opacity="0.58" stroke-linecap="round" stroke-linejoin="round"></path><path d="M91.6,249.1 L93.0,248.1 L93.3,246.6 L93.4,245.3 L92.7,244.5 L89.4,241.7 L86.4,235.2 L84.0,231.2 L82.3,227.1 L83.6,221.9 L87.7,219.0 L93.4,219.9 L98.6,224.3 L108.2,230.1 L112.3,230.1 L112.1,228.7 L109.3,224.8 L106.8,220.5 L97.2,207.9 L91.9,201.6 L93.0,199.2 L95.9,199.8 L98.2,202.2 L101.2,204.9 L107.2,206.8 L111.3,211.2 L115.3,214.9 L122.4,217.7 L127.1,222.4 L135.4,228.7 L144.0,233.6 L151.8,239.3 L156.2,243.0 L159.1,248.2 L163.8,255.8 L170.8,264.1 L178.1,272.8 L183.9,281.3 L188.7,287.5 L191.1,290.7 L189.1,291.0 L183.5,285.9 L175.8,280.5 L172.8,277.8 L168.5,275.7 L165.9,272.3 L164.0,269.8 L161.4,268.6 L156.7,267.4 L154.6,266.2 L150.8,262.2 L144.3,257.0 L137.7,252.5 L132.1,246.0 L128.8,244.0 L121.5,244.6 L116.7,247.1 L115.3,250.5 L115.4,257.8 L115.6,264.4" fill="none" stroke="#8fb58e" stroke-width="1.7" opacity="0.58" stroke-linecap="round" stroke-linejoin="round"></path><path d="M-43.0,326.9 L28.2,257.4 L47.0,251.0 L63.9,261.4 L77.3,275.4 L98.1,284.8 L113.6,291.8 L141.6,306.8" fill="none" stroke="#8fb58e" stroke-width="1.7" opacity="0.58" stroke-linecap="round" stroke-linejoin="round"></path><path d="M-45.0,349.0 L10.0,299.0 L36.0,270.0 L47.0,251.0 L52.1,250.7 L66.4,250.0" fill="none" stroke="#8fb58e" stroke-width="1.7" opacity="0.58" stroke-linecap="round" stroke-linejoin="round"></path></svg>