<svg xmlns="http://www.w3.org/2000/svg" width="256" height="256" viewBox="0 0 256 256"><rect width="256" height="256" fill="#f1efe7"/><path d="M56.0,-15.0 L57.1,7.8 L88.9,6.6 L89.1,14.2 L102.9,13.7 L104.0,34.0 L96.2,34.3 L96.3,38.5 L69.2,39.7 L69.4,43.9 L60.6,44.3 L61.8,70.2 L53.7,70.6 L52.6,46.8 L46.9,47.1 L46.6,42.1 L13.1,43.6 L11.7,12.2 L28.5,11.4 L27.4,-13.7 L56.0,-15.0 Z" fill="#d6d2c9" stroke="#bab6ad" stroke-width="0.4"></path><path d="M230.5,127.8 L220.3,127.8 L220.3,105.9 L230.6,105.9 L230.5,127.8 Z" fill="#d6d2c9" stroke="#bab6ad" stroke-width="0.4"></path><path d="M235.0,191.1 L212.6,192.4 L211.3,169.8 L233.7,168.5 L235.0,191.1 Z" fill="#d6d2c9" stroke="#bab6ad" stroke-width="0.4"></path><path d="M5.0,193.9 L5.9,221.0 L0.3,221.2 L-5.3,221.4 L-5.7,209.2 L0.3,208.9 L0.2,205.8 L-6.0,206.0 L-6.3,194.3 L5.0,193.9 Z" fill="#d6d2c9" stroke="#bab6ad" stroke-width="0.4"></path><path d="M149.5,235.9 L150.3,252.8 L136.2,253.4 L136.1,251.5 L129.6,251.8 L130.4,271.4 L104.8,272.6 L104.5,264.4 L97.5,264.7 L96.6,244.1 L104.0,243.8 L103.7,238.6 L128.1,237.5 L128.4,243.0 L136.2,242.7 L136.0,236.5 L149.5,235.9 Z" fill="#d6d2c9" stroke="#bab6ad" stroke-width="0.4"></path><path d="M37.2,208.8 L23.0,209.1 L22.5,185.6 L36.7,185.3 L37.2,208.8 Z" fill="#d6d2c9" stroke="#bab6ad" stroke-width="0.4"></path><path d="M107.8,229.6 L97.1,230.1 L96.0,206.7 L99.1,203.6 L103.5,203.4 L106.7,206.5 L107.8,229.6 Z" fill="#d6d2c9" stroke="#bab6ad" stroke-width="0.4"></path><path d="M46.2,228.2 L46.1,241.6 L19.5,242.9 L20.3,268.0 L28.6,266.9 L30.5,273.7 L54.2,271.1 L54.2,266.2 L68.0,265.9 L66.7,228.4 L46.2,228.2 Z" fill="#d6d2c9" stroke="#bab6ad" stroke-width="0.4"></path><path d="M-37.6,222.9 L-37.0,243.5 L-41.8,244.3 L-41.8,258.7 L-52.9,259.1 L-52.1,283.2 L-33.5,282.5 L-35.1,258.5 L-17.9,259.9 L-17.8,275.9 L-7.1,275.9 L-7.6,263.9 L6.6,262.5 L6.1,226.8 L-7.9,226.4 L-7.8,244.4 L-19.8,243.5 L-21.1,223.3 L-37.6,222.9 Z" fill="#d6d2c9" stroke="#bab6ad" stroke-width="0.4"></path><path d="M219.2,260.5 L219.4,280.4 L224.0,280.6 L223.8,282.1 L230.2,281.9 L230.2,282.9 L264.6,281.8 L264.5,278.9 L271.8,278.6 L272.2,280.5 L293.8,280.6 L293.7,262.5 L271.2,263.1 L271.0,265.4 L264.9,265.9 L263.9,244.1 L261.9,243.3 L261.2,231.0 L243.8,231.8 L244.6,260.6 L219.2,260.5 Z" fill="#d6d2c9" stroke="#bab6ad" stroke-width="0.4"></path><path d="M169.5,-21.6 L231.5,-21.9 L231.7,19.0 L179.2,19.2 L179.3,36.0 L160.5,36.0 L160.2,-21.5 L169.5,-21.6 Z" fill="#d6d2c9" stroke="#bab6ad" stroke-width="0.4"></path><path d="M255.7,-11.8 L288.2,-11.4 L288.3,-18.5 L306.2,-18.3 L306.1,-12.3 L325.0,-12.0 L333.6,-11.9 L332.9,39.7 L319.0,39.5 L319.2,21.1 L285.7,20.7 L285.6,30.1 L268.8,29.9 L268.7,41.8 L255.0,41.6 L255.7,-11.8 Z" fill="#d6d2c9" stroke="#bab6ad" stroke-width="0.4"></path><text x="61.6" y="29.6" text-anchor="middle" font-family="Arial, sans-serif" font-size="6.5" textLength="18.0" lengthAdjust="spacing" font-weight="500" paint-order="stroke" stroke="#f3f5ee" stroke-width="1.55" stroke-linejoin="round" fill="#6f777a">4840</text><text x="190.5" y="16.5" text-anchor="middle" font-family="Arial, sans-serif" font-size="6.5" textLength="18.0" lengthAdjust="spacing" font-weight="500" paint-order="stroke" stroke="#f3f5ee" stroke-width="1.55" stroke-linejoin="round" fill="#6f777a">4770</text><text x="49.2" y="210.6" text-anchor="middle" font-family="Arial, sans-serif" font-size="6.5" textLength="18.0" lengthAdjust="spacing" font-weight="500" paint-order="stroke" stroke="#f3f5ee" stroke-width="1.55" stroke-linejoin="round" fill="#6f777a">4831</text><text x="121.0" y="208.0" text-anchor="middle" font-family="Arial, sans-serif" font-size="6.5" textLength="18.0" lengthAdjust="spacing" font-weight="500" paint-order="stroke" stroke="#f3f5ee" stroke-width="1.55" stroke-linejoin="round" fill="#6f777a">4825</text><text x="228.0" y="246.0" text-anchor="middle" font-family="Arial, sans-serif" font-size="6.5" textLength="18.0" lengthAdjust="spacing" font-weight="500" paint-order="stroke" stroke="#f3f5ee" stroke-width="1.55" stroke-linejoin="round" fill="#6f777a">4775</text></svg>