<svg xmlns="http://www.w3.org/2000/svg" width="256" height="256" viewBox="0 0 256 256"><defs><pattern id="park-dots" width="22" height="22" patternUnits="userSpaceOnUse"><circle cx="5" cy="5" r="2.1" fill="#63a95d" fill-opacity="0.26"/><circle cx="16" cy="7" r="1.55" fill="#76b970" fill-opacity="0.23"/><circle cx="10" cy="17" r="1.9" fill="#61a65b" fill-opacity="0.24"/><circle cx="21" cy="17" r="1.25" fill="#80c174" fill-opacity="0.18"/><circle cx="1" cy="19" r="1.2" fill="#70b46a" fill-opacity="0.17"/></pattern><pattern id="park-canopy" width="54" height="48" patternUnits="userSpaceOnUse"><circle cx="12" cy="11" r="3.6" fill="#5ea75a" fill-opacity="0.22"/><circle cx="31" cy="15" r="2.9" fill="#75ba6d" fill-opacity="0.18"/><circle cx="45" cy="31" r="3.3" fill="#67ae62" fill-opacity="0.20"/><circle cx="19" cy="39" r="2.5" fill="#83c378" fill-opacity="0.16"/></pattern></defs><rect width="256" height="256" fill="#f1efe7"/><path d="M183.4,713.3 L178.1,709.5 L118.7,707.0 L62.2,711.2 L38.9,713.0 L-141.8,724.5 L-340.9,725.8 L-396.4,726.2 L-427.3,727.5 L-424.9,671.9 L-335.2,670.3 L-218.4,673.0 L-124.4,669.3 L-66.0,659.2 L-15.8,640.6 L34.4,609.4 L72.2,571.8 L108.0,509.1 L129.1,465.2 L131.4,433.7 L131.9,337.2 L138.8,230.3 L118.1,192.4 L-5.0,185.4 L-48.8,195.7 L-69.8,214.4 L-66.1,306.8 L-68.6,386.5 L-83.5,430.4 L-110.1,432.9 L-152.5,459.4 L-201.8,453.2 L-220.1,454.9 L-239.3,456.1 L-291.1,460.9 L-394.6,470.7 L-434.2,468.4 L-440.4,462.0 L-450.6,422.1 L-460.4,300.4 L-462.1,235.4 L-459.9,197.6 L-453.5,174.6 L-436.8,172.6 L-403.4,174.8 L-353.3,173.0 L-305.3,169.1 L-240.6,163.1 L-196.8,155.0 L-129.9,149.1 L-77.8,145.2 L-17.3,143.4 L114.2,142.0 L203.9,148.8 L224.7,157.3 L232.9,188.8 L232.5,262.3 L231.5,442.7 L207.4,654.4 L196.6,706.8 L183.4,713.3 Z" fill="#dce8e7" stroke="#96bdc1" stroke-width="0.55"></path><path d="M-843.7,741.0 L-827.0,1330.2 L-1396.4,1347.2 L-1469.7,1772.4 L-1499.4,1881.1 L-1551.0,1998.5 L-1620.6,2101.5 L-1707.7,2189.1 L-1834.9,2276.7 L-1893.4,2303.1 L-1225.7,2282.0 L-1217.2,3046.8 L-1140.9,3046.0 L-1123.3,3822.0 L-1114.1,3944.0 L-1108.0,4583.6 L-1094.4,4595.1 L1111.9,4618.7 L1174.4,2962.7 L1681.8,1298.7 L2272.8,101.4 L2321.5,-190.8 L2227.6,-203.7 L2178.5,-191.6 L2047.4,-232.6 L1996.3,-431.3 L1955.5,-567.2 L1774.0,-743.0 L1756.4,-776.9 L1706.9,-821.6 L1583.8,-637.6 L1479.4,-489.3 L1300.7,85.7 L1139.0,402.9 L946.2,568.9 L842.8,649.5 L647.6,682.1 L640.4,707.0 L202.8,715.0 L-104.2,727.2 L-90.1,1510.6 L-464.2,1515.6 L-477.3,728.9 L-843.7,741.0 Z" fill="#c4e7bd" stroke="#9fcf91" stroke-width="0.4"><title>R Hardy Matheson County Preserve</title></path><path d="M-843.7,741.0 L-827.0,1330.2 L-1396.4,1347.2 L-1469.7,1772.4 L-1499.4,1881.1 L-1551.0,1998.5 L-1620.6,2101.5 L-1707.7,2189.1 L-1834.9,2276.7 L-1893.4,2303.1 L-1225.7,2282.0 L-1217.2,3046.8 L-1140.9,3046.0 L-1123.3,3822.0 L-1114.1,3944.0 L-1108.0,4583.6 L-1094.4,4595.1 L1111.9,4618.7 L1174.4,2962.7 L1681.8,1298.7 L2272.8,101.4 L2321.5,-190.8 L2227.6,-203.7 L2178.5,-191.6 L2047.4,-232.6 L1996.3,-431.3 L1955.5,-567.2 L1774.0,-743.0 L1756.4,-776.9 L1706.9,-821.6 L1583.8,-637.6 L1479.4,-489.3 L1300.7,85.7 L1139.0,402.9 L946.2,568.9 L842.8,649.5 L647.6,682.1 L640.4,707.0 L202.8,715.0 L-104.2,727.2 L-90.1,1510.6 L-464.2,1515.6 L-477.3,728.9 L-843.7,741.0 Z" fill="url(#park-dots)" stroke="none"/><path d="M-843.7,741.0 L-827.0,1330.2 L-1396.4,1347.2 L-1469.7,1772.4 L-1499.4,1881.1 L-1551.0,1998.5 L-1620.6,2101.5 L-1707.7,2189.1 L-1834.9,2276.7 L-1893.4,2303.1 L-1225.7,2282.0 L-1217.2,3046.8 L-1140.9,3046.0 L-1123.3,3822.0 L-1114.1,3944.0 L-1108.0,4583.6 L-1094.4,4595.1 L1111.9,4618.7 L1174.4,2962.7 L1681.8,1298.7 L2272.8,101.4 L2321.5,-190.8 L2227.6,-203.7 L2178.5,-191.6 L2047.4,-232.6 L1996.3,-431.3 L1955.5,-567.2 L1774.0,-743.0 L1756.4,-776.9 L1706.9,-821.6 L1583.8,-637.6 L1479.4,-489.3 L1300.7,85.7 L1139.0,402.9 L946.2,568.9 L842.8,649.5 L647.6,682.1 L640.4,707.0 L202.8,715.0 L-104.2,727.2 L-90.1,1510.6 L-464.2,1515.6 L-477.3,728.9 L-843.7,741.0 Z" fill="url(#park-canopy)" stroke="none"/><path d="M39.2,206.9 L42.6,209.3 L44.5,206.5 L53.2,212.6 L58.1,205.7 L64.2,210.0 L65.7,210.0 L72.5,214.6 L73.9,212.4 L80.9,217.1 L81.9,215.7 L93.2,223.2 L89.2,229.1 L89.5,231.9 L87.5,234.5 L84.5,235.1 L82.9,237.4 L86.8,240.1 L76.9,254.3 L75.0,255.1 L68.7,264.0 L57.4,256.1 L65.0,245.2 L54.5,237.8 L46.8,248.9 L39.5,244.4 L50.9,230.2 L49.6,229.4 L51.7,226.4 L50.0,225.2 L45.2,232.1 L39.7,228.1 L42.0,224.8 L35.3,220.1 L38.1,216.2 L34.5,213.7 L39.2,206.9 Z" fill="#d6d2c9" stroke="#bab6ad" stroke-width="0.4"></path><path d="M219.2,-28.8 L266.5,-27.6 L265.8,0.3 L218.6,-0.9 L219.2,-28.8 Z" fill="#d6d2c9" stroke="#bab6ad" stroke-width="0.4"></path><path d="M-29.6,235.9 L-3.4,215.3 L-2.0,204.9 L23.4,205.1 L24.7,235.6 L-12.4,266.3 L-29.6,235.9 Z" fill="#d6d2c9" stroke="#bab6ad" stroke-width="0.4"></path><path d="M291.3,246.1 L291.0,228.8 L269.1,229.1 L269.2,232.5 L241.0,233.0 L241.5,264.9 L253.7,264.7 L254.0,280.2 L263.0,280.1 L263.1,288.1 L282.9,287.8 L282.7,272.4 L298.0,272.2 L297.7,254.5 L282.7,254.8 L282.6,246.3 L291.3,246.1 Z" fill="#d6d2c9" stroke="#bab6ad" stroke-width="0.4"></path><path d="M255.5,161.8 L293.7,154.4 L295.5,163.6 L291.4,170.5 L293.0,178.5 L283.6,180.4 L284.8,186.4 L293.8,184.6 L296.9,200.6 L293.3,201.3 L294.8,208.7 L270.9,213.5 L270.3,210.6 L262.2,212.2 L259.8,199.8 L262.8,199.2 L255.5,161.8 Z" fill="#d6d2c9" stroke="#bab6ad" stroke-width="0.4"></path><path d="M232.9,90.7 L246.1,76.4 L251.4,81.3 L256.3,76.2 L267.3,86.2 L264.0,90.8 L270.2,95.6 L278.0,88.2 L292.0,100.9 L268.9,124.8 L265.6,122.0 L260.8,125.4 L236.7,102.8 L240.5,98.1 L232.9,90.7 Z" fill="#d6d2c9" stroke="#bab6ad" stroke-width="0.4"></path><path d="M130.1,77.2 L149.5,76.1 L149.9,82.9 L153.8,82.6 L154.0,85.6 L165.8,84.9 L165.5,80.7 L178.3,80.0 L179.1,93.7 L190.5,93.1 L191.5,109.9 L151.8,112.2 L152.0,116.7 L132.5,117.9 L130.1,77.2 Z" fill="#d6d2c9" stroke="#bab6ad" stroke-width="0.4"></path><path d="M62.1,70.3 L84.5,71.4 L84.4,73.5 L111.5,74.9 L109.3,119.3 L95.8,118.6 L96.6,103.0 L60.5,101.2 L62.1,70.3 Z" fill="#d6d2c9" stroke="#bab6ad" stroke-width="0.4"></path><path d="M-15.9,68.8 L-16.0,116.6 L-5.1,116.6 L-5.0,102.3 L32.3,102.4 L32.4,69.0 L-15.9,68.8 Z" fill="#d6d2c9" stroke="#bab6ad" stroke-width="0.4"></path><path d="M332.5,41.2 L237.3,43.2 L206.9,42.8 L183.9,41.9 L165.6,40.7 L135.0,38.7 L110.1,36.9 L90.2,35.0 L71.7,33.5 L53.5,32.6 L36.1,32.2 L8.6,31.9 L-24.2,32.5 L-47.0,32.8 L-74.4,33.8" fill="none" stroke="#cec8bb" stroke-width="4.8" stroke-linecap="round" stroke-linejoin="round"/><path d="M332.5,41.2 L237.3,43.2 L206.9,42.8 L183.9,41.9 L165.6,40.7 L135.0,38.7 L110.1,36.9 L90.2,35.0 L71.7,33.5 L53.5,32.6 L36.1,32.2 L8.6,31.9 L-24.2,32.5 L-47.0,32.8 L-74.4,33.8" fill="none" stroke="#ffffff" stroke-width="3.7" stroke-linecap="round" stroke-linejoin="round"><title>Campana Avenue</title></path><text x="15.0" y="82.9" text-anchor="middle" font-family="Arial, sans-serif" font-size="6.5" textLength="18.0" lengthAdjust="spacing" font-weight="500" paint-order="stroke" stroke="#f3f5ee" stroke-width="1.55" stroke-linejoin="round" fill="#6f777a">390</text><text x="60.7" y="231.2" text-anchor="middle" font-family="Arial, sans-serif" font-size="6.5" textLength="18.0" lengthAdjust="spacing" font-weight="500" paint-order="stroke" stroke="#f3f5ee" stroke-width="1.55" stroke-linejoin="round" fill="#6f777a">414</text><text x="77.5" y="84.4" text-anchor="middle" font-family="Arial, sans-serif" font-size="6.5" textLength="18.0" lengthAdjust="spacing" font-weight="500" paint-order="stroke" stroke="#f3f5ee" stroke-width="1.55" stroke-linejoin="round" fill="#6f777a">370</text><text x="167.0" y="89.7" text-anchor="middle" font-family="Arial, sans-serif" font-size="6.5" textLength="18.0" lengthAdjust="spacing" font-weight="500" paint-order="stroke" stroke="#f3f5ee" stroke-width="1.55" stroke-linejoin="round" fill="#6f777a">350</text></svg>