<svg xmlns="http://www.w3.org/2000/svg" width="256" height="256" viewBox="0 0 256 256"><rect width="256" height="256" fill="#f1efe7"/><path d="M-8965.4,8809.1 L-8858.0,8764.5 L-8824.4,8748.4 L-8674.1,8676.2 L-8645.9,8703.5 L-8643.4,8705.8 L-8590.8,8660.8 L-8578.2,8651.2 L-8557.3,8632.3 L-8439.2,8523.9 L-8343.9,8415.1 L-8340.3,8408.2 L-8336.8,8404.2 L-8331.2,8397.9 L-8325.6,8391.4 L-8323.3,8388.7 L-8360.9,8340.2 L-8311.2,8310.4 L-8284.2,8346.3 L-8246.1,8302.7 L-8278.4,8259.9 L-8238.4,8218.3 L-8207.7,8258.8 L-8172.3,8218.6 L-8157.3,8208.8 L-8083.7,8161.0 L-8047.3,8136.9 L-8003.5,8108.0 L-7982.8,8094.5 L-7930.4,8060.6 L-7943.9,8042.8 L-7968.1,8010.5 L-7905.6,7970.8 L-7882.8,7959.0 L-7881.1,7957.8 L-7869.1,7948.5 L-7826.3,7925.7 L-7823.3,7921.0 L-7811.3,7912.8 L-7804.8,7903.3 L-7803.0,7901.9 L-7792.6,7897.9 L-7768.9,7889.4 L-7752.8,7882.3 L-7695.7,7855.5 L-7695.0,7857.4 L-7647.2,7836.9 L-7627.7,7862.0 L-7584.1,7832.9 L-7577.9,7828.7 L-7577.3,7828.2 L-7576.7,7827.4 L-7575.8,7825.7 L-7575.2,7824.2 L-7575.0,7822.3 L-7575.0,7820.8 L-7575.2,7819.4 L-7575.4,7817.7 L-7575.5,7816.5 L-7575.4,7815.4 L-7575.1,7814.3 L-7574.3,7812.3 L-7573.8,7811.2 L-7572.6,7809.3 L-7571.2,7807.9 L-7564.9,7805.3 L-7559.6,7803.4 L-7552.8,7801.2 L-7549.7,7800.3 L-7544.1,7798.5 L-7540.1,7797.0 L-7534.7,7794.8 L-7527.3,7791.6 L-7519.3,7787.8 L-7515.0,7785.7 L-7509.6,7783.0 L-7504.6,7780.1 L-7499.5,7777.1 L-7494.4,7773.8 L-7492.8,7772.7 L-7482.4,7764.8 L-7473.7,7758.1 L-7465.2,7750.9 L-7457.2,7743.4 L-7451.5,7736.9 L-7445.8,7730.0 L-7438.8,7721.0 L-7432.4,7712.0 L-7425.1,7700.4 L-7420.3,7691.5 L-7417.3,7685.8 L-7412.8,7676.1 L-7409.1,7667.2 L-7405.7,7657.6 L-7403.0,7649.1 L-7400.1,7635.4 L-7397.9,7623.2 L-7396.7,7612.6 L-7395.8,7600.3 L-7395.6,7587.0 L-7396.5,7574.7 L-7398.6,7558.8 L-7400.7,7547.9 L-7403.3,7537.5 L-7406.9,7525.9 L-7410.1,7516.9 L-7413.7,7507.1 L-7417.1,7499.1 L-7419.4,7493.8 L-7420.4,7490.0 L-7420.5,7487.0 L-7420.2,7484.4 L-7419.1,7482.1 L-7417.5,7480.1 L-7415.4,7479.0 L-7413.2,7478.7 L-7407.1,7480.2 L-7390.3,7484.2 L-7384.7,7356.9 L-7362.8,7129.6 L-7386.6,7123.9 L-7389.2,7116.8 L-7389.1,7106.6 L-7385.8,7083.3 L-7381.3,7078.1 L-7377.3,7062.9 L-7352.1,7068.8 L-7338.1,6923.6 L-7334.3,6883.3 L-7342.1,6881.4 L-7337.4,6862.2 L-7353.6,6858.4 L-7351.5,6846.6 L-7348.7,6838.9 L-7345.1,6829.8 L-7339.1,6817.2 L-7332.7,6818.6 L-7323.9,6727.3 L-7321.9,6671.9 L-7321.5,6661.7 L-7316.8,6626.4 L-7307.4,6538.5 L-7245.0,6375.8 L-7230.8,6331.5 L-7057.5,6265.0 L-7040.5,6258.2 L-7037.6,6256.6 L-7035.2,6254.5 L-7032.7,6251.6 L-7030.8,6248.1 L-7029.5,6244.7 L-7029.1,6239.8 L-7029.4,6233.6 L-7031.7,6155.9 L-7032.6,6140.8 L-7032.8,6130.4 L-7033.1,6110.4 L-7033.5,6104.1 L-7034.3,6098.8 L-7035.4,6094.0 L-7036.9,6089.3 L-7039.3,6083.6 L-7042.9,6077.5 L-7046.5,6072.7 L-7049.2,6068.2 L-7051.9,6062.2 L-7054.2,6056.3 L-7055.1,6051.6 L-7055.8,6046.4 L-7056.1,6041.1 L-7056.0,6036.0 L-7055.4,6030.1 L-7054.0,6024.2 L-7052.1,6019.0 L-7050.2,6014.2 L-7047.7,6009.6 L-7044.7,6004.1 L-7042.6,5999.0 L-7040.9,5992.5 L-7037.7,5987.7 L-7038.8,5943.0 L-7040.4,5940.5 L-7041.0,5910.2 L-7041.8,5874.4 L-7041.2,5869.5 L-7039.6,5864.4 L-7035.6,5856.5 L-7008.9,5799.0 L-7008.3,5798.0 L-7003.6,5787.8 L-6999.1,5778.0 L-6994.2,5768.0 L-6989.2,5757.8 L-6986.8,5752.7 L-6960.6,5698.8 L-6932.5,5639.2 L-6871.6,5515.8 L-6908.2,5474.9 L-6938.0,5538.3 L-6963.8,5593.3 L-6967.7,5601.1 L-6975.6,5617.3 L-6991.5,5616.0 L-6995.9,5615.7 L-6997.4,5617.2 L-6995.3,5619.1 L-7003.5,5626.3 L-7009.9,5632.3 L-7011.1,5657.7 L-7013.5,5662.8 L-7021.3,5662.5 L-7022.6,5662.0 L-7124.8,5619.9 L-7127.0,5618.7 L-7129.4,5617.2 L-7133.0,5614.4 L-7135.9,5611.7 L-7138.3,5609.1 L-7140.6,5605.9 L-7142.4,5603.1 L-7143.8,5600.2 L-7145.0,5597.1 L-7145.7,5595.1 L-7146.2,5592.5 L-7146.7,5589.5 L-7147.1,5585.4 L-7147.1,5579.6 L-7147.8,5559.7 L-7145.0,5559.5 L-7145.4,5549.1 L-7145.8,5531.8 L-7143.2,5531.7 L-7143.4,5519.9 L-7146.3,5520.0 L-7147.7,5470.2 L-7144.9,5470.1 L-7145.4,5458.5 L-7148.1,5458.6 L-7149.2,5421.8 L-7135.7,5407.3 L-7118.5,5406.7 L-7105.6,5406.2 L-7088.7,5405.7 L-7072.4,5405.1 L-7057.7,5404.6 L-7051.4,5404.4 L-7051.7,5398.7 L-7051.8,5392.8 L-7052.8,5373.7 L-7053.1,5337.1 L-7053.6,5336.5 L-7053.7,5332.8 L-7052.6,5332.8 L-7055.2,5244.7 L-7057.4,5161.9 L-7057.8,5159.3 L-7058.0,5154.5 L-7094.1,5155.8 L-7118.1,5153.7 L-7297.7,5160.0 L-7297.7,5158.4 L-7298.1,5150.7 L-7383.3,5153.7 L-7383.5,5139.6 L-7394.7,5137.1 L-7396.7,5076.5 L-7065.3,5065.0 L-7059.8,5057.4 L-7060.0,5035.9 L-7060.4,5017.4 L-7060.7,5005.7 L-7061.2,4994.4 L-7087.5,4981.9 L-7088.6,4954.4 L-7061.5,4941.0 L-7064.0,4877.3 L-7064.7,4874.1 L-7091.5,4861.6 L-7092.4,4827.5 L-7066.9,4814.3 L-7078.3,4675.9 L-7075.2,4614.2 L-7073.8,4513.8 L-7073.9,4404.6 L-7071.5,4389.2 L-7071.3,4381.9 L-7073.7,4372.9 L-7071.2,4372.9 L-7071.2,4364.9 L-7069.7,4159.4 L-7069.9,4150.2 L-7072.8,4150.3 L-7072.7,4112.5 L-7074.4,4110.1 L-7076.9,4071.1 L-7071.8,4035.5 L-7072.5,3992.3 L-7074.2,3982.0 L-7071.6,3950.0 L-7073.4,3911.4 L-7077.9,3870.0 L-7086.4,3803.0 L-7082.4,3784.6 L-7084.1,3766.6 L-7099.4,3753.5 L-7121.9,3753.8 L-7156.1,3758.3 L-7178.3,3758.3 L-7198.6,3750.8 L-7225.1,3732.6 L-7225.1,3700.0 L-7225.8,3659.8 L-7223.2,3626.4 L-7214.4,3600.3 L-7067.0,3597.6 L-7063.7,3388.6 L-7063.7,3087.8 L-7065.2,2978.6 L890.9,-307.2 L890.9,17801.9 L-8965.4,17801.9 L-8965.4,8809.1 Z" fill="#add7e1" stroke="none"><title>Biscayne Bay</title></path><path d="M-1.0,-1.0 L257.0,-1.0 L257.0,257.0 L-1.0,257.0 L-1.0,-1.0 Z" fill="#add7e1" stroke="none" fill-rule="evenodd"><title>Biscayne Bay</title></path></svg>