<svg xmlns="http://www.w3.org/2000/svg" width="256" height="256" viewBox="0 0 256 256"><rect width="256" height="256" fill="#f1efe7"/><path d="M-8965.4,5993.1 L-8858.0,5948.5 L-8824.4,5932.4 L-8674.1,5860.2 L-8645.9,5887.5 L-8643.4,5889.8 L-8590.8,5844.8 L-8578.2,5835.2 L-8557.3,5816.3 L-8439.2,5707.9 L-8343.9,5599.1 L-8340.3,5592.2 L-8336.8,5588.2 L-8331.2,5581.9 L-8325.6,5575.4 L-8323.3,5572.7 L-8360.9,5524.2 L-8311.2,5494.4 L-8284.2,5530.3 L-8246.1,5486.7 L-8278.4,5443.9 L-8238.4,5402.3 L-8207.7,5442.8 L-8172.3,5402.6 L-8157.3,5392.8 L-8083.7,5345.0 L-8047.3,5320.9 L-8003.5,5292.0 L-7982.8,5278.5 L-7930.4,5244.6 L-7943.9,5226.8 L-7968.1,5194.5 L-7905.6,5154.8 L-7882.8,5143.0 L-7881.1,5141.8 L-7869.1,5132.5 L-7826.3,5109.7 L-7823.3,5105.0 L-7811.3,5096.8 L-7804.8,5087.3 L-7803.0,5085.9 L-7792.6,5081.9 L-7768.9,5073.4 L-7752.8,5066.3 L-7695.7,5039.5 L-7695.0,5041.4 L-7647.2,5020.9 L-7627.7,5046.0 L-7584.1,5016.9 L-7577.9,5012.7 L-7577.3,5012.2 L-7576.7,5011.4 L-7575.8,5009.7 L-7575.2,5008.2 L-7575.0,5006.3 L-7575.0,5004.8 L-7575.2,5003.4 L-7575.4,5001.7 L-7575.5,5000.5 L-7575.4,4999.4 L-7575.1,4998.3 L-7574.3,4996.3 L-7573.8,4995.2 L-7572.6,4993.3 L-7571.2,4991.9 L-7564.9,4989.3 L-7559.6,4987.4 L-7552.8,4985.2 L-7549.7,4984.3 L-7544.1,4982.5 L-7540.1,4981.0 L-7534.7,4978.8 L-7527.3,4975.6 L-7519.3,4971.8 L-7515.0,4969.7 L-7509.6,4967.0 L-7504.6,4964.1 L-7499.5,4961.1 L-7494.4,4957.8 L-7492.8,4956.7 L-7482.4,4948.8 L-7473.7,4942.1 L-7465.2,4934.9 L-7457.2,4927.4 L-7451.5,4920.9 L-7445.8,4914.0 L-7438.8,4905.0 L-7432.4,4896.0 L-7425.1,4884.4 L-7420.3,4875.5 L-7417.3,4869.8 L-7412.8,4860.1 L-7409.1,4851.2 L-7405.7,4841.6 L-7403.0,4833.1 L-7400.1,4819.4 L-7397.9,4807.2 L-7396.7,4796.6 L-7395.8,4784.3 L-7395.6,4771.0 L-7396.5,4758.7 L-7398.6,4742.8 L-7400.7,4731.9 L-7403.3,4721.5 L-7406.9,4709.9 L-7410.1,4700.9 L-7413.7,4691.1 L-7417.1,4683.1 L-7419.4,4677.8 L-7420.4,4674.0 L-7420.5,4671.0 L-7420.2,4668.4 L-7419.1,4666.1 L-7417.5,4664.1 L-7415.4,4663.0 L-7413.2,4662.7 L-7407.1,4664.2 L-7390.3,4668.2 L-7384.7,4540.9 L-7362.8,4313.6 L-7386.6,4307.9 L-7389.2,4300.8 L-7389.1,4290.6 L-7385.8,4267.3 L-7381.3,4262.1 L-7377.3,4246.9 L-7352.1,4252.8 L-7338.1,4107.6 L-7334.3,4067.3 L-7342.1,4065.4 L-7337.4,4046.2 L-7353.6,4042.4 L-7351.5,4030.6 L-7348.7,4022.9 L-7345.1,4013.8 L-7339.1,4001.2 L-7332.7,4002.6 L-7323.9,3911.3 L-7321.9,3855.9 L-7321.5,3845.7 L-7316.8,3810.4 L-7307.4,3722.5 L-7245.0,3559.8 L-7230.8,3515.5 L-7057.5,3449.0 L-7040.5,3442.2 L-7037.6,3440.6 L-7035.2,3438.5 L-7032.7,3435.6 L-7030.8,3432.1 L-7029.5,3428.7 L-7029.1,3423.8 L-7029.4,3417.6 L-7031.7,3339.9 L-7032.6,3324.8 L-7032.8,3314.4 L-7033.1,3294.4 L-7033.5,3288.1 L-7034.3,3282.8 L-7035.4,3278.0 L-7036.9,3273.3 L-7039.3,3267.6 L-7042.9,3261.5 L-7046.5,3256.7 L-7049.2,3252.2 L-7051.9,3246.2 L-7054.2,3240.3 L-7055.1,3235.6 L-7055.8,3230.4 L-7056.1,3225.1 L-7056.0,3220.0 L-7055.4,3214.1 L-7054.0,3208.2 L-7052.1,3203.0 L-7050.2,3198.2 L-7047.7,3193.6 L-7044.7,3188.1 L-7042.6,3183.0 L-7040.9,3176.5 L-7037.7,3171.7 L-7038.8,3127.0 L-7040.4,3124.5 L-7041.0,3094.2 L-7041.8,3058.4 L-7041.2,3053.5 L-7039.6,3048.4 L-7035.6,3040.5 L-7008.9,2983.0 L-7008.3,2982.0 L-7003.6,2971.8 L-6999.1,2962.0 L-6994.2,2952.0 L-6989.2,2941.8 L-6986.8,2936.7 L-6960.6,2882.8 L-6932.5,2823.2 L-6871.6,2699.8 L-6908.2,2658.9 L-6938.0,2722.3 L-6963.8,2777.3 L-6967.7,2785.1 L-6975.6,2801.3 L-6991.5,2800.0 L-6995.9,2799.7 L-6997.4,2801.2 L-6995.3,2803.1 L-7003.5,2810.3 L-7009.9,2816.3 L-7011.1,2841.7 L-7013.5,2846.8 L-7021.3,2846.5 L-7022.6,2846.0 L-7124.8,2803.9 L-7127.0,2802.7 L-7129.4,2801.2 L-7133.0,2798.4 L-7135.9,2795.7 L-7138.3,2793.1 L-7140.6,2789.9 L-7142.4,2787.1 L-7143.8,2784.2 L-7145.0,2781.1 L-7145.7,2779.1 L-7146.2,2776.5 L-7146.7,2773.5 L-7147.1,2769.4 L-7147.1,2763.6 L-7147.8,2743.7 L-7145.0,2743.5 L-7145.4,2733.1 L-7145.8,2715.8 L-7143.2,2715.7 L-7143.4,2703.9 L-7146.3,2704.0 L-7147.7,2654.2 L-7144.9,2654.1 L-7145.4,2642.5 L-7148.1,2642.6 L-7149.2,2605.8 L-7135.7,2591.3 L-7118.5,2590.7 L-7105.6,2590.2 L-7088.7,2589.7 L-7072.4,2589.1 L-7057.7,2588.6 L-7051.4,2588.4 L-7051.7,2582.7 L-7051.8,2576.8 L-7052.8,2557.7 L-7053.1,2521.1 L-7053.6,2520.5 L-7053.7,2516.8 L-7052.6,2516.8 L-7055.2,2428.7 L-7057.4,2345.9 L-7057.8,2343.3 L-7058.0,2338.5 L-7094.1,2339.8 L-7118.1,2337.7 L-7297.7,2344.0 L-7297.7,2342.4 L-7298.1,2334.7 L-7383.3,2337.7 L-7383.5,2323.6 L-7394.7,2321.1 L-7396.7,2260.5 L-7065.3,2249.0 L-7059.8,2241.4 L-7060.0,2219.9 L-7060.4,2201.4 L-7060.7,2189.7 L-7061.2,2178.4 L-7087.5,2165.9 L-7088.6,2138.4 L-7061.5,2125.0 L-7064.0,2061.3 L-7064.7,2058.1 L-7091.5,2045.6 L-7092.4,2011.5 L-7066.9,1998.3 L-7078.3,1859.9 L-7075.2,1798.2 L-7073.8,1697.8 L-7073.9,1588.6 L-7071.5,1573.2 L-7071.3,1565.9 L-7073.7,1556.9 L-7071.2,1556.9 L-7071.2,1548.9 L-7069.7,1343.4 L-7069.9,1334.2 L-7072.8,1334.3 L-7072.7,1296.5 L-7074.4,1294.1 L-7076.9,1255.1 L-7071.8,1219.5 L-7072.5,1176.3 L-7074.2,1166.0 L-7071.6,1134.0 L-7073.4,1095.4 L-7077.9,1054.0 L-7086.4,987.0 L-7082.4,968.6 L-7084.1,950.6 L-7099.4,937.5 L-7121.9,937.8 L-7156.1,942.3 L-7178.3,942.3 L-7198.6,934.8 L-7225.1,916.6 L-7225.1,884.0 L-7225.8,843.8 L-7223.2,810.4 L-7214.4,784.3 L-7067.0,781.6 L-7063.7,572.6 L-7063.7,271.8 L-7065.2,162.6 L890.9,-3123.2 L890.9,14985.9 L-8965.4,14985.9 L-8965.4,5993.1 Z" fill="#add7e1" stroke="none"><title>Biscayne Bay</title></path><path d="M-1.0,-1.0 L257.0,-1.0 L257.0,257.0 L-1.0,257.0 L-1.0,-1.0 Z" fill="#add7e1" stroke="none" fill-rule="evenodd"><title>Biscayne Bay</title></path></svg>