<svg xmlns="http://www.w3.org/2000/svg" width="256" height="256" viewBox="0 0 256 256"><rect width="256" height="256" fill="#f1efe7"/><path d="M-285.4,-29.1 L-353.4,-79.3 L-358.8,-83.3 L-364.7,-84.6 L-368.9,-88.1 L-372.2,-88.4 L-382.9,-87.7 L-382.9,-88.7 L-383.5,-89.7 L-384.7,-90.4 L-408.1,-100.6 L-409.7,-101.3 L-411.1,-101.7 L-412.8,-101.8 L-414.5,-101.9 L-420.3,-101.9 L-421.9,-101.9 L-423.4,-102.2 L-425.0,-102.9 L-426.9,-103.4 L-428.3,-103.5 L-432.4,-103.7 L-433.8,-103.9 L-435.5,-104.5 L-437.2,-104.9 L-438.9,-105.3 L-440.2,-105.8 L-441.8,-106.8 L-443.2,-107.9 L-444.5,-108.9 L-445.7,-109.4 L-446.5,-109.6 L-447.3,-109.5 L-448.1,-109.3 L-449.0,-108.8 L-449.8,-108.0 L-450.8,-107.0 L-451.9,-106.0 L-453.2,-105.3 L-454.8,-104.8 L-456.1,-104.4 L-457.8,-104.2 L-460.5,-103.9 L-467.2,-103.5 L-473.0,-103.2 L-475.5,-102.4 L-480.5,-102.2 L-481.2,-103.2 L-482.0,-103.7 L-482.8,-103.9 L-488.3,-103.6 L-490.6,-102.7 L-493.5,-102.7 L-495.5,-103.0 L-497.1,-103.5 L-503.0,-103.1 L-518.6,-101.9 L-522.2,-101.8 L-523.4,-101.8 L-524.5,-102.1 L-525.8,-102.8 L-526.7,-103.5 L-530.7,-103.5 L-534.1,-103.5 L-535.1,-103.0 L-539.7,-102.9 L-540.3,-101.9 L-541.0,-101.8 L-542.1,-102.1 L-544.2,-102.4 L-546.3,-102.3 L-547.0,-102.1 L-547.6,-102.2 L-548.1,-102.6 L-548.8,-103.0 L-551.7,-103.0 L-554.5,-102.9 L-557.2,-101.3 L-558.6,-100.6 L-560.1,-100.3 L-561.4,-100.2 L-562.5,-100.4 L-565.1,-101.5 L-566.6,-102.0 L-567.9,-102.2 L-573.5,-102.1 L-573.8,-102.8 L-578.8,-102.7 L-582.2,-102.0 L-584.4,-101.8 L-585.6,-101.5 L-586.1,-101.8 L-586.9,-102.0 L-594.9,-102.7 L-595.6,-102.3 L-596.4,-102.1 L-597.5,-102.1 L-597.5,-102.5 L-602.5,-103.4 L-605.6,-104.0 L-613.1,-106.6 L-613.5,-106.0 L-618.5,-107.5 L-619.6,-107.9 L-619.1,-109.6 L-619.7,-109.8 L-619.8,-110.0 L-620.1,-110.1 L-620.6,-110.2 L-621.1,-110.5 L-620.9,-110.6 L-623.2,-112.4 L-626.9,-115.8 L-628.9,-117.5 L-630.3,-119.1 L-631.0,-120.1 L-632.2,-121.7 L-632.9,-122.9 L-635.0,-125.6 L-635.2,-125.7 L-635.3,-125.8 L-635.5,-125.7 L-635.8,-125.7 L-636.0,-125.8 L-636.5,-126.2 L-637.6,-126.7 L-638.1,-127.2 L-638.8,-127.7 L-639.6,-128.2 L-640.9,-128.6 L-642.3,-128.8 L-643.5,-128.9 L-643.1,-132.0 L-642.9,-136.1 L-641.6,-136.0 L-640.3,-135.8 L-638.6,-135.3 L-637.4,-134.8 L-636.3,-134.3 L-635.2,-133.8 L-634.2,-133.2 L-633.3,-132.6 L-632.2,-131.7 L-631.1,-130.9 L-630.8,-130.7 L-630.6,-130.7 L-627.4,-130.8 L-627.4,-130.1 L-627.6,-129.8 L-629.9,-129.6 L-629.3,-128.3 L-628.9,-128.5 L-628.6,-128.1 L-628.3,-127.7 L-628.1,-127.5 L-627.6,-126.8 L-627.4,-126.1 L-626.7,-125.1 L-624.9,-123.9 L-622.7,-122.8 L-620.0,-121.1 L-618.7,-120.5 L-616.2,-119.0 L-615.0,-118.4 L-612.8,-117.6 L-608.4,-116.4 L-605.9,-115.8 L-603.5,-115.6 L-602.3,-115.4 L-602.0,-115.4 L-601.9,-115.6 L-601.9,-116.4 L-599.0,-116.4 L-598.9,-115.5 L-592.9,-115.2 L-587.0,-115.0 L-582.9,-115.2 L-581.6,-115.3 L-580.7,-115.4 L-579.9,-115.6 L-579.1,-116.1 L-578.8,-116.6 L-578.9,-126.3 L-576.5,-126.5 L-576.3,-117.0 L-576.1,-116.8 L-575.6,-116.5 L-575.1,-116.3 L-562.2,-116.3 L-562.2,-120.4 L-561.2,-120.5 L-560.8,-116.3 L-552.8,-116.3 L-552.8,-116.8 L-552.0,-116.8 L-552.0,-116.5 L-498.8,-117.5 L-495.0,-117.9 L-490.3,-118.1 L-485.8,-117.5 L-484.3,-117.6 L-483.2,-117.8 L-482.2,-118.2 L-480.9,-118.7 L-454.2,-119.2 L-454.2,-121.0 L-439.2,-121.3 L-439.2,-119.2 L-432.9,-119.0 L-432.4,-119.0 L-431.9,-119.1 L-431.3,-119.1 L-430.9,-119.3 L-430.4,-119.4 L-429.6,-119.8 L-429.2,-119.2 L-428.5,-119.6 L-427.8,-120.2 L-427.2,-120.8 L-426.6,-121.6 L-426.2,-122.5 L-427.1,-123.0 L-426.8,-123.8 L-426.7,-124.6 L-426.6,-125.3 L-426.6,-125.9 L-426.6,-126.5 L-426.7,-131.2 L-427.4,-131.9 L-426.8,-132.6 L-427.4,-133.1 L-426.7,-134.0 L-427.5,-134.8 L-426.9,-135.4 L-427.5,-136.1 L-426.7,-136.9 L-427.5,-137.7 L-425.9,-139.5 L-425.6,-139.5 L-426.3,-166.3 L-420.3,-166.4 L-420.0,-166.3 L-419.7,-166.0 L-419.5,-165.8 L-419.3,-165.6 L-419.3,-165.3 L-419.2,-165.0 L-418.7,-123.3 L-418.5,-122.0 L-418.2,-121.1 L-417.6,-119.9 L-417.0,-118.8 L-416.4,-118.0 L-415.9,-117.4 L-415.3,-117.0 L-414.7,-116.6 L-414.0,-116.4 L-413.1,-116.1 L-412.0,-115.9 L-410.6,-115.6 L-409.1,-115.3 L-407.6,-115.0 L-405.9,-114.7 L-404.3,-114.4 L-403.8,-114.3 L-403.2,-114.2 L-402.6,-114.1 L-402.1,-114.1 L-401.5,-114.1 L-401.0,-114.1 L-400.6,-114.2 L-400.2,-114.3 L-399.8,-114.4 L-399.4,-114.6 L-398.7,-114.9 L-398.0,-115.3 L-397.4,-115.8 L-396.6,-116.5 L-396.0,-117.3 L-395.6,-117.9 L-395.3,-118.7 L-395.1,-119.4 L-395.0,-120.1 L-394.9,-120.8 L-394.9,-121.4 L-395.8,-166.0 L-394.5,-167.4 L-394.0,-167.4 L-393.9,-167.6 L-391.2,-167.7 L-390.9,-168.1 L-390.5,-168.0 L-389.8,-167.3 L-389.3,-166.7 L-388.9,-165.9 L-388.0,-115.9 L-387.9,-115.1 L-387.7,-113.3 L-387.5,-113.0 L-387.7,-112.9 L-387.4,-112.4 L-387.2,-111.8 L-386.9,-111.5 L-386.6,-111.0 L-386.2,-110.6 L-385.7,-110.1 L-385.1,-109.6 L-384.6,-109.2 L-384.0,-108.9 L-383.5,-108.6 L-382.9,-108.4 L-382.8,-108.6 L-374.5,-105.6 L-373.5,-105.2 L-373.0,-105.0 L-372.3,-104.7 L-371.7,-104.6 L-371.3,-104.6 L-370.9,-104.6 L-370.3,-104.6 L-369.6,-104.7 L-369.0,-104.8 L-368.5,-105.0 L-368.0,-105.1 L-367.6,-105.3 L-367.2,-105.6 L-366.7,-105.9 L-366.1,-106.5 L-365.5,-107.0 L-364.9,-107.8 L-364.5,-108.5 L-364.2,-109.2 L-363.9,-110.1 L-363.8,-111.0 L-363.7,-112.5 L-363.7,-115.7 L-364.6,-166.5 L-364.6,-167.0 L-364.5,-167.4 L-364.4,-167.8 L-364.0,-168.1 L-363.6,-168.3 L-363.1,-168.3 L-359.4,-168.5 L-358.9,-168.4 L-358.5,-168.2 L-358.2,-167.9 L-357.9,-167.5 L-357.7,-166.8 L-357.6,-165.9 L-356.7,-100.8 L-356.6,-100.4 L-356.5,-100.0 L-356.4,-99.6 L-356.3,-99.2 L-356.1,-98.7 L-356.0,-98.3 L-355.8,-98.0 L-355.6,-97.7 L-355.4,-97.3 L-355.2,-97.0 L-354.9,-96.7 L-354.5,-96.3 L-354.2,-96.0 L-353.8,-95.6 L-353.4,-95.3 L-352.2,-94.6 L-352.1,-94.8 L-351.1,-94.2 L-349.9,-93.5 L-349.2,-93.2 L-348.5,-92.7 L-347.7,-92.3 L-346.9,-91.7 L-346.0,-91.2 L-345.1,-90.6 L-344.2,-90.1 L-343.4,-89.6 L-342.6,-89.1 L-341.7,-88.5 L-340.8,-87.9 L-340.1,-87.4 L-340.1,-87.3 L-339.0,-86.5 L-337.9,-85.8 L-337.5,-85.6 L-337.2,-85.4 L-336.6,-85.1 L-336.1,-84.9 L-335.6,-84.8 L-335.1,-84.6 L-334.5,-84.5 L-333.9,-84.5 L-333.3,-84.5 L-332.8,-84.5 L-332.4,-84.6 L-331.9,-84.7 L-331.4,-84.9 L-330.9,-85.1 L-330.5,-85.3 L-330.0,-85.5 L-329.6,-85.8 L-329.2,-86.1 L-328.8,-86.5 L-328.4,-86.9 L-328.0,-87.3 L-327.6,-87.8 L-327.3,-88.4 L-327.0,-89.0 L-326.8,-89.5 L-326.7,-90.0 L-326.6,-90.5 L-326.6,-91.0 L-326.6,-91.7 L-334.0,-162.6 L-333.5,-162.7 L-333.9,-166.2 L-334.3,-166.2 L-334.6,-167.8 L-334.5,-168.2 L-334.2,-168.7 L-333.5,-169.2 L-332.7,-169.3 L-329.3,-169.4 L-328.8,-169.3 L-328.4,-169.1 L-328.0,-168.7 L-327.7,-168.4 L-327.5,-168.1 L-319.4,-88.5 L-319.2,-87.8 L-318.8,-87.0 L-318.5,-86.4 L-318.2,-85.8 L-317.8,-85.3 L-317.4,-84.9 L-317.0,-84.5 L-316.6,-84.1 L-316.2,-83.9 L-315.7,-83.5 L-315.3,-83.3 L-314.6,-83.0 L-314.1,-82.9 L-313.4,-82.7 L-312.9,-82.6 L-312.5,-82.6 L-312.0,-82.6 L-294.3,-83.0 L-293.7,-83.1 L-293.2,-83.3 L-292.8,-83.7 L-292.5,-84.2 L-292.4,-84.7 L-292.4,-85.2 L-301.4,-170.5 L-309.3,-180.8 L-309.6,-180.5 L-316.4,-190.0 L-316.6,-192.1 L-316.8,-192.5 L-317.2,-192.9 L-317.6,-193.5 L-317.6,-194.5 L-318.5,-194.8 L-319.2,-194.8 L-320.3,-194.3 L-319.1,-192.0 L-320.6,-191.3 L-321.8,-192.4 L-322.7,-193.0 L-323.4,-193.2 L-325.0,-193.2 L-325.8,-194.9 L-320.7,-197.0 L-320.9,-197.5 L-322.0,-198.9 L-322.2,-198.8 L-360.8,-249.4 L-361.4,-257.8 L-361.1,-257.8 L-362.6,-273.1 L-363.1,-274.5 L-363.8,-276.1 L-364.2,-277.3 L-364.8,-278.9 L-366.7,-284.2 L-367.4,-283.8 L-368.6,-288.1 L-368.4,-288.1 L-372.3,-298.7 L-372.7,-317.1 L-372.2,-317.1 L-372.2,-318.7 L-372.0,-320.3 L-371.9,-320.9 L-372.0,-321.3 L-371.5,-323.9 L-366.7,-332.3 L-369.2,-333.9 L-367.4,-336.9 L-364.9,-335.5 L-364.7,-335.9 L-364.0,-335.5 L-363.1,-335.1 L-362.2,-334.8 L-361.5,-334.7 L-360.8,-334.7 L-360.0,-334.8 L-359.2,-335.1 L-358.4,-335.4 L-358.1,-335.7 L-357.9,-336.3 L-357.8,-336.9 L-357.7,-337.1 L-357.7,-337.4 L-357.9,-337.9 L-358.2,-338.4 L-358.6,-338.6 L-359.2,-339.2 L-359.6,-339.7 L-360.3,-340.1 L-360.6,-340.8 L-361.0,-341.5 L-361.5,-342.4 L-362.1,-343.1 L-363.2,-343.9 L-368.7,-346.7 L-371.9,-348.3 L-374.9,-350.0 L-377.8,-351.5 L-379.6,-352.8 L-380.3,-352.9 L-381.1,-352.7 L-381.6,-352.2 L-382.4,-350.0 L-388.0,-352.4 L-384.7,-357.6 L-383.9,-358.0 L-383.1,-358.1 L-382.0,-357.9 L-361.3,-345.8 L-360.2,-345.5 L-359.0,-345.2 L-357.3,-345.2 L-355.6,-345.5 L-354.6,-345.9 L-353.4,-346.8 L-352.7,-347.5 L-352.0,-348.5 L-352.0,-348.7 L-352.0,-348.8 L-352.1,-348.9 L-358.9,-353.0 L-359.0,-353.1 L-359.2,-353.1 L-359.4,-353.1 L-360.0,-352.8 L-360.2,-352.8 L-360.5,-352.8 L-360.9,-352.9 L-361.2,-353.0 L-361.6,-353.2 L-362.0,-353.4 L-371.2,-359.0 L-375.6,-362.1 L-376.0,-362.2 L-376.4,-362.1 L-376.9,-362.1 L-377.2,-362.2 L-377.5,-362.3 L-377.8,-362.5 L-378.2,-362.8 L-378.4,-363.2 L-378.6,-363.5 L-378.6,-363.8 L-378.6,-364.1 L-378.5,-364.4 L-377.0,-366.9 L-377.0,-367.0 L-377.1,-367.1 L-378.5,-368.1 L-378.7,-368.4 L-378.6,-368.7 L-378.2,-368.6 L-377.7,-368.5 L-374.9,-366.8 L-359.2,-356.7 L-358.9,-356.5 L-358.6,-356.3 L-358.5,-356.0 L-358.3,-355.5 L-358.2,-355.0 L-358.2,-354.6 L-351.0,-350.3 L-350.8,-350.2 L-350.5,-350.2 L-350.1,-350.3 L-349.9,-350.3 L-349.7,-350.5 L-342.1,-362.8 L-338.9,-367.5 L-335.9,-370.9 L-334.3,-370.0 L-333.4,-371.6 L-338.6,-374.7 L-337.5,-376.5 L-332.3,-373.4 L-331.1,-375.3 L-332.1,-376.3 L-331.1,-377.4 L-330.1,-376.2 L-329.8,-376.4 L-329.5,-376.6 L-329.1,-376.9 L-328.7,-377.1 L-328.2,-377.3 L-327.7,-377.4 L-327.2,-377.5 L-326.7,-377.5 L-326.2,-377.5 L-325.7,-377.4 L-325.2,-377.3 L-324.8,-377.2 L-324.5,-377.0 L-324.0,-376.8 L-323.6,-376.6 L-323.2,-376.3 L-322.8,-376.0 L-322.5,-375.6 L-322.1,-375.1 L-321.9,-374.7 L-321.6,-374.1 L-321.4,-373.6 L-321.3,-372.8 L-321.2,-372.1 L-321.2,-371.7 L-321.3,-371.3 L-321.4,-370.7 L-321.8,-369.9 L-322.0,-369.4 L-322.3,-368.7 L-321.0,-368.1 L-314.9,-375.3 L-326.0,-382.1 L-325.4,-383.3 L-325.0,-384.4 L-325.0,-384.9 L-324.4,-386.2 L-323.1,-387.4 L-321.4,-388.8 L-319.5,-390.0 L-315.9,-391.0 L-309.6,-391.7 L-307.1,-393.7 L-306.6,-393.8 L-306.2,-393.8 L-305.6,-393.6 L-305.1,-393.5 L-301.6,-391.4 L-292.4,-402.3 L-326.0,-423.6 L-328.1,-420.4 L-332.6,-423.2 L-326.2,-433.4 L-321.7,-430.6 L-323.7,-427.1 L-289.5,-405.6 L-285.2,-411.1 L-282.1,-414.7 L-278.1,-420.8 L-275.9,-423.8 L-276.1,-425.5 L-276.0,-425.6 L-276.4,-426.9 L-276.7,-427.7 L-276.9,-428.5 L-277.3,-429.2 L-277.8,-430.2 L-278.4,-431.1 L-278.7,-431.6 L-278.8,-432.0 L-279.0,-432.5 L-279.0,-432.8 L-279.1,-434.1 L-293.9,-447.7 L-294.4,-447.2 L-294.8,-447.5 L-296.0,-446.3 L-296.8,-447.4 L-295.8,-448.5 L-296.7,-449.7 L-297.4,-449.5 L-298.1,-449.5 L-298.7,-449.6 L-299.2,-449.8 L-299.9,-450.3 L-300.6,-451.1 L-302.0,-452.6 L-302.4,-453.2 L-302.6,-454.0 L-302.5,-454.9 L-302.1,-455.8 L-301.8,-456.4 L-301.2,-457.0 L-300.5,-457.5 L-299.9,-457.7 L-299.4,-457.8 L-298.8,-457.7 L-298.1,-457.4 L-297.5,-457.0 L-296.2,-455.7 L-295.4,-455.0 L-294.8,-454.3 L-294.6,-454.0 L-294.4,-453.6 L-294.3,-453.3 L-294.3,-452.9 L-294.3,-452.4 L-294.5,-452.0 L-294.6,-451.7 L-294.7,-451.6 L-294.7,-451.4 L-294.6,-451.2 L-278.7,-436.4 L-278.2,-436.0 L-277.8,-435.8 L-277.2,-436.0 L-276.6,-436.0 L-275.7,-435.7 L-274.9,-435.1 L-273.3,-434.2 L-272.6,-433.9 L-272.0,-434.5 L-271.3,-435.2 L-270.9,-435.7 L-270.1,-436.7 L-269.7,-437.2 L-269.3,-438.0 L-269.0,-438.6 L-268.7,-439.3 L-268.4,-440.0 L-268.1,-440.7 L-268.0,-441.3 L-267.8,-442.1 L-267.7,-442.6 L-267.7,-442.9 L-267.6,-443.6 L-267.5,-444.3 L-267.4,-444.7 L-267.4,-445.1 L-267.4,-445.7 L-267.4,-446.1 L-267.5,-446.7 L-267.6,-447.5 L-267.7,-448.1 L-267.8,-448.7 L-267.9,-449.1 L-268.0,-449.5 L-268.1,-449.9 L-268.2,-450.4 L-268.4,-450.9 L-268.5,-451.2 L-268.7,-451.5 L-268.9,-451.8 L-269.2,-452.2 L-269.5,-452.6 L-269.8,-452.9 L-270.3,-453.3 L-270.7,-453.5 L-271.1,-453.8 L-271.5,-453.9 L-271.8,-454.0 L-272.1,-454.1 L-272.5,-454.1 L-272.8,-454.0 L-273.1,-453.9 L-273.4,-453.7 L-273.6,-453.5 L-273.7,-453.3 L-273.8,-453.0 L-273.9,-452.7 L-273.9,-452.3 L-273.9,-451.9 L-273.9,-451.6 L-273.9,-451.2 L-273.9,-450.9 L-274.0,-450.6 L-274.1,-450.3 L-274.3,-450.0 L-274.5,-449.7 L-274.7,-449.4 L-274.9,-449.2 L-275.3,-448.8 L-275.7,-448.6 L-276.2,-448.4 L-276.6,-448.4 L-276.9,-448.3 L-277.3,-448.3 L-277.7,-448.3 L-278.1,-448.4 L-278.5,-448.5 L-279.1,-448.7 L-279.7,-448.9 L-280.0,-449.0 L-280.5,-449.3 L-280.8,-449.5 L-281.2,-449.8 L-281.5,-450.1 L-281.8,-450.4 L-282.1,-450.7 L-282.3,-451.0 L-282.5,-451.3 L-282.7,-451.6 L-282.9,-452.1 L-283.1,-452.5 L-283.2,-452.9 L-283.3,-453.3 L-283.4,-453.6 L-283.5,-454.0 L-283.6,-454.5 L-283.6,-455.0 L-283.6,-455.4 L-283.5,-456.1 L-283.3,-456.8 L-283.0,-457.4 L-282.9,-457.8 L-282.7,-457.9 L-281.4,-459.6 L-281.1,-459.9 L-280.7,-460.1 L-280.3,-460.2 L-279.8,-460.4 L-279.3,-460.4 L-278.9,-460.4 L-278.4,-460.4 L-278.0,-460.4 L-277.5,-460.2 L-276.9,-460.0 L-276.5,-459.7 L-276.1,-459.3 L-274.8,-458.2 L-274.5,-458.0 L-274.3,-458.0 L-274.1,-458.1 L-273.9,-458.1 L-273.8,-458.3 L-273.7,-458.5 L-273.7,-458.8 L-273.6,-459.0 L-273.7,-459.1 L-276.3,-461.7 L-272.7,-465.6 L-273.0,-466.0 L-270.9,-468.0 L-266.9,-464.1 L-270.1,-460.0 L-270.1,-459.8 L-270.0,-459.7 L-269.8,-459.7 L-266.3,-464.1 L-265.2,-465.4 L-265.2,-465.6 L-265.3,-465.9 L-265.5,-466.1 L-268.2,-468.7 L-267.5,-469.5 L-268.2,-470.1 L-267.8,-471.0 L-260.7,-478.2 L-258.3,-478.6 L-257.5,-478.7 L-256.8,-478.8 L-256.4,-478.9 L-256.0,-479.1 L-255.6,-479.4 L-255.2,-479.7 L-254.9,-480.2 L-251.2,-485.5 L-251.1,-485.6 L-251.2,-485.8 L-251.2,-485.9 L-251.3,-486.0 L-251.7,-486.3 L-251.9,-486.3 L-252.0,-486.3 L-252.1,-486.3 L-252.3,-486.1 L-255.4,-483.2 L-256.5,-482.4 L-261.4,-487.4 L-260.9,-489.2 L-260.6,-489.7 L-259.9,-491.1 L-259.0,-492.7 L-258.4,-493.3 L-257.5,-494.3 L-256.4,-495.4 L-255.3,-496.6 L-254.4,-497.4 L-253.9,-497.8 L-253.3,-498.3 L-252.7,-498.6 L-251.9,-498.9 L-251.4,-499.1 L-250.9,-499.3 L-250.5,-499.3 L-250.0,-499.3 L-249.5,-499.2 L-249.0,-499.1 L-248.5,-498.6 L-248.2,-498.2 L-248.0,-497.7 L-247.9,-497.1 L-247.9,-496.2 L-248.1,-495.2 L-248.3,-494.2 L-249.5,-491.3 L-250.8,-488.8 L-250.3,-488.1 L-250.1,-487.9 L-249.9,-487.9 L-249.7,-488.0 L-249.5,-488.1 L-248.7,-489.3 L-247.6,-489.8 L-245.5,-495.5 L-245.3,-495.8 L-245.1,-496.1 L-244.9,-496.2 L-244.7,-496.2 L-244.4,-496.2 L-244.1,-496.2 L-242.5,-495.7 L-242.2,-495.7 L-241.9,-495.6 L-241.6,-495.7 L-241.3,-495.8 L-241.1,-496.0 L-240.8,-496.3 L-238.2,-499.8 L-238.1,-500.0 L-238.0,-500.3 L-238.0,-500.6 L-238.1,-500.8 L-238.2,-501.1 L-238.3,-501.2 L-238.5,-501.4 L-238.8,-501.5 L-239.0,-501.6 L-239.2,-501.6 L-239.4,-501.6 L-239.7,-501.5 L-239.9,-501.3 L-240.0,-501.2 L-240.7,-500.1 L-240.8,-499.8 L-241.0,-499.6 L-241.3,-499.4 L-241.5,-499.3 L-241.8,-499.2 L-242.1,-499.1 L-242.3,-499.1 L-242.6,-499.1 L-242.9,-499.2 L-243.1,-499.3 L-245.2,-501.2 L-245.5,-501.5 L-245.6,-501.8 L-245.8,-502.2 L-245.9,-502.5 L-246.0,-502.8 L-246.1,-503.1 L-246.1,-503.5 L-246.1,-503.9 L-246.1,-504.2 L-246.0,-504.5 L-246.0,-504.8 L-245.9,-505.0 L-242.0,-511.2 L-241.7,-511.6 L-241.6,-511.8 L-241.4,-511.9 L-241.1,-512.0 L-240.8,-512.1 L-240.5,-512.2 L-240.3,-512.2 L-240.2,-512.1 L-240.0,-512.1 L-239.8,-512.0 L-239.6,-511.8 L-239.2,-511.5 L-237.4,-509.8 L-237.1,-509.4 L-236.9,-509.0 L-236.8,-508.5 L-236.7,-508.1 L-236.7,-507.7 L-236.7,-507.4 L-236.7,-507.1 L-236.8,-506.7 L-236.9,-506.5 L-237.1,-506.0 L-237.8,-504.7 L-237.9,-504.4 L-237.9,-504.1 L-237.8,-503.8 L-237.7,-503.6 L-237.6,-503.4 L-237.3,-503.1 L-237.0,-503.0 L-236.7,-502.9 L-236.4,-503.0 L-236.1,-503.0 L-235.8,-503.2 L-235.5,-503.4 L-230.9,-509.8 L-232.3,-511.1 L-231.5,-512.0 L-230.2,-510.8 L-227.6,-514.2 L-223.6,-519.4 L-239.5,-534.6 L-242.9,-531.0 L-247.0,-534.8 L-243.1,-539.0 L-243.6,-539.6 L-242.8,-540.3 L-242.3,-539.8 L-239.6,-542.8 L-237.1,-540.5 L-236.8,-538.6 L-226.6,-529.1 L-224.6,-528.3 L-223.0,-528.9 L-220.0,-527.6 L-217.9,-528.4 L-212.0,-535.7 L-211.6,-536.4 L-211.5,-537.3 L-211.8,-538.2 L-212.2,-538.9 L-215.8,-542.1 L-215.7,-543.1 L-215.0,-544.8 L-213.6,-547.4 L-216.4,-549.2 L-215.3,-549.6 L-214.7,-550.0 L-214.0,-550.8 L-213.2,-552.8 L-211.8,-556.4 L-210.9,-557.3 L-219.7,-565.7 L-221.6,-564.5 L-222.0,-564.4 L-222.5,-564.4 L-223.0,-564.5 L-223.5,-564.6 L-223.9,-564.9 L-224.2,-565.2 L-228.8,-569.6 L-229.6,-570.4 L-230.0,-570.9 L-230.3,-571.4 L-230.5,-571.9 L-230.5,-572.4 L-230.5,-572.9 L-230.4,-573.4 L-230.3,-573.7 L-230.2,-574.0 L-229.8,-574.4 L-229.5,-574.9 L-227.4,-577.0 L-211.9,-562.7 L-213.0,-561.5 L-201.5,-550.6 L-188.3,-570.0 L-196.7,-577.8 L-197.7,-576.9 L-213.4,-591.7 L-211.4,-593.6 L-202.4,-585.2 L-201.5,-586.5 L-201.0,-587.1 L-200.3,-587.8 L-199.6,-588.6 L-198.8,-589.1 L-197.6,-590.1 L-196.5,-591.2 L-194.2,-593.3 L-188.8,-599.4 L-187.8,-600.5 L-184.2,-602.3 L-180.8,-605.0 L-180.5,-605.2 L-179.6,-605.9 L-179.2,-606.3 L-178.9,-606.7 L-178.7,-607.1 L-178.5,-607.5 L-178.4,-607.8 L-178.2,-608.1 L-177.9,-608.7 L-177.6,-609.0 L-177.4,-609.3 L-177.0,-609.6 L-176.6,-609.9 L-176.2,-610.2 L-175.1,-610.7 L-174.1,-611.2 L-174.0,-611.2 L-173.8,-611.2 L-173.5,-611.1 L-172.7,-610.7 L-172.1,-610.4 L-171.8,-610.2 L-171.5,-610.0 L-167.4,-606.0 L-167.1,-605.9 L-165.7,-605.5 L-165.3,-605.4 L-164.8,-605.3 L-164.4,-605.3 L-164.1,-605.4 L-163.8,-605.6 L-162.4,-607.7 L-162.3,-608.0 L-162.4,-608.3 L-162.6,-608.6 L-162.8,-608.8 L-164.0,-609.9 L-163.9,-610.1 L-162.4,-613.2 L-159.9,-618.2 L-157.6,-619.9 L-156.3,-621.2 L-155.4,-622.3 L-154.5,-623.2 L-153.4,-624.1 L-152.8,-624.7 L-152.1,-625.3 L-151.6,-625.8 L-151.3,-626.2 L-151.2,-626.6 L-151.0,-626.9 L-151.0,-627.3 L-151.0,-627.7 L-150.2,-628.5 L-149.1,-629.6 L-147.2,-631.1 L-145.2,-632.6 L-144.4,-633.8 L-144.0,-635.1 L-143.0,-635.7 L-141.8,-635.7 L-140.6,-636.4 L-139.5,-638.4 L-139.5,-640.4 L-139.3,-643.6 L-139.0,-644.0 L-138.8,-644.3 L-138.5,-644.9 L-138.9,-646.2 L-138.4,-646.9 L-135.9,-649.9 L-131.7,-654.9 L-130.9,-656.1 L-130.6,-656.7 L-129.2,-658.5 L-128.8,-659.7 L-128.8,-661.5 L-128.9,-663.3 L-128.9,-665.2 L-128.3,-667.2 L-127.4,-669.2 L-126.1,-671.2 L-125.1,-672.6 L-124.0,-674.0 L-121.8,-676.5 L-112.0,-681.3 L-110.7,-681.7 L-110.4,-681.0 L-110.0,-680.3 L-109.9,-680.2 L-109.7,-680.2 L-109.7,-680.7 L-109.8,-681.1 L-109.3,-681.3 L-107.3,-681.9 L-104.7,-682.7 L-102.6,-683.3 L-101.8,-683.5 L-102.6,-685.9 L-101.3,-686.2 L-99.1,-686.5 L-98.8,-686.5 L-98.8,-686.7 L-98.8,-687.3 L-96.9,-687.3 L-93.8,-687.5 L-92.6,-686.9 L-89.6,-676.2 L-89.0,-675.6 L-90.3,-674.2 L-89.1,-673.1 L-88.0,-672.0 L-86.7,-673.4 L-61.6,-649.6 L-28.1,-685.2 L-16.4,-674.1 L-16.0,-674.2 L-15.8,-674.0 L-15.0,-674.5 L-14.4,-674.7 L-13.7,-675.1 L-12.5,-675.7 L-11.8,-676.1 L-10.9,-676.6 L-10.1,-677.1 L-9.5,-677.5 L-8.9,-677.9 L-8.2,-678.4 L-7.4,-679.0 L-6.8,-679.5 L-6.1,-680.1 L-5.4,-680.8 L-4.7,-681.4 L-3.2,-683.1 L-2.2,-684.3 L-1.3,-685.5 L-0.7,-686.4 L-0.1,-687.3 L0.7,-688.6 L1.3,-689.9 L1.8,-690.9 L2.2,-691.9 L2.5,-692.6 L2.8,-693.4 L3.4,-694.2 L-17.9,-714.6 L-17.7,-714.9 L-15.1,-717.6 L-13.2,-719.6 L-13.1,-719.8 L-7.6,-714.7 L-6.3,-715.4 L-6.2,-715.2 L6.6,-721.8 L7.1,-722.1 L7.5,-722.4 L7.8,-722.7 L8.2,-723.1 L8.6,-723.7 L8.9,-724.2 L9.1,-724.6 L9.2,-725.1 L9.4,-725.7 L9.5,-726.3 L9.4,-727.0 L9.4,-727.5 L9.3,-728.0 L9.1,-728.6 L5.1,-740.1 L4.6,-742.0 L4.7,-742.6 L-4.9,-745.0 L-4.4,-746.7 L-4.0,-748.2 L-1.2,-759.4 L-3.4,-766.0 L-4.7,-770.3 L-5.1,-771.3 L-1.6,-774.5 L2.3,-776.6 L2.5,-776.2 L2.9,-775.7 L3.7,-774.6 L3.8,-774.7 L3.9,-775.1 L2.6,-776.7 L4.8,-778.3 L5.3,-778.6 L6.4,-777.1 L6.6,-777.0 L6.8,-776.9 L6.9,-776.9 L6.9,-777.1 L1.5,-784.4 L1.2,-784.8 L0.7,-785.4 L-1.6,-788.2 L0.4,-794.4 L1.9,-796.0 L3.7,-796.8 L7.4,-799.0 L8.2,-799.8 L11.5,-802.8 L12.6,-801.7 L15.7,-798.3 L18.6,-800.7 L20.5,-798.9 L22.3,-797.2 L22.4,-797.1 L23.8,-798.3 L25.8,-796.3 L27.5,-794.1 L28.7,-792.7 L28.9,-792.5 L32.5,-795.7 L32.6,-795.8 L31.8,-796.8 L33.8,-798.5 L39.7,-791.5 L44.8,-794.9 L45.3,-795.3 L47.5,-796.3 L48.0,-796.8 L48.4,-797.4 L51.2,-799.8 L50.5,-800.6 L45.7,-799.5 L40.2,-805.8 L40.8,-806.4 L41.6,-805.4 L45.6,-808.8 L49.7,-804.2 L50.8,-803.8 L51.5,-803.4 L52.4,-802.4 L52.8,-802.8 L49.8,-806.3 L51.7,-807.9 L55.4,-803.4 L55.9,-803.7 L55.8,-803.8 L64.0,-809.7 L66.5,-811.5 L58.5,-821.5 L60.2,-822.7 L67.1,-814.6 L72.2,-813.6 L75.6,-815.6 L76.1,-815.9 L76.1,-816.3 L75.8,-816.7 L78.5,-818.4 L79.2,-817.6 L81.5,-818.9 L79.8,-820.9 L72.1,-831.3 L77.6,-837.0 L81.2,-842.4 L81.3,-846.6 L79.3,-852.1 L83.4,-855.5 L87.6,-857.1 L89.0,-857.4 L90.2,-857.6 L91.5,-857.5 L93.0,-857.1 L95.0,-855.4 L100.4,-848.9 L104.6,-843.4 L109.8,-840.0 L111.8,-839.7 L113.6,-839.5 L115.1,-839.4 L117.1,-839.6 L119.2,-839.9 L120.9,-840.4 L122.3,-841.1 L123.3,-841.6 L124.0,-842.4 L125.2,-843.8 L126.5,-846.2 L127.9,-849.4 L130.4,-848.1 L131.4,-847.7 L132.5,-847.6 L134.2,-847.7 L135.3,-848.0 L136.7,-848.6 L137.9,-849.3 L139.1,-850.6 L140.2,-851.5 L141.6,-852.5 L142.6,-853.1 L144.0,-853.6 L146.4,-854.3 L147.8,-854.7 L149.3,-855.3 L150.7,-856.0 L151.5,-856.4 L152.1,-857.1 L160.2,-861.2 L160.6,-861.3 L160.9,-861.6 L161.3,-861.8 L161.8,-862.2 L162.2,-862.3 L162.6,-862.7 L162.9,-863.0 L163.3,-863.2 L163.7,-863.6 L164.3,-864.1 L165.1,-864.1 L165.9,-864.2 L166.5,-864.4 L167.1,-864.7 L168.0,-865.1 L168.9,-865.7 L169.4,-866.2 L170.0,-866.8 L170.4,-867.4 L170.6,-868.0 L170.6,-868.4 L170.6,-868.7 L170.8,-870.0 L175.4,-872.7 L183.3,-877.3 L184.9,-878.2 L198.4,-886.0 L213.1,-894.4 L219.3,-898.0 L221.4,-899.2 L239.6,-909.7 L243.6,-911.9 L243.5,-912.0 L251.8,-916.7 L255.0,-918.5 L260.9,-921.8 L260.9,-921.7 L263.2,-922.9 L268.7,-926.0 L269.4,-926.6 L275.0,-930.7 L277.8,-933.0 L280.3,-935.2 L281.5,-935.8 L284.2,-938.5 L284.4,-938.3 L284.7,-938.4 L284.9,-938.3 L288.7,-942.6 L287.7,-943.5 L287.8,-943.7 L288.2,-944.3 L289.3,-945.7 L290.0,-946.6 L290.5,-947.5 L291.2,-948.6 L291.9,-949.7 L292.7,-951.0 L293.5,-952.4 L295.2,-956.0 L295.7,-957.1 L296.2,-958.0 L296.5,-958.7 L296.7,-959.2 L297.3,-960.6 L282.8,-987.6 L282.5,-988.1 L282.3,-988.4 L282.2,-988.6 L282.0,-988.8 L281.8,-988.9 L281.5,-989.0 L281.3,-989.1 L281.0,-989.2 L280.8,-989.2 L280.5,-989.2 L280.1,-989.2 L279.8,-989.1 L279.4,-988.9 L276.0,-986.9 L271.6,-984.4 L268.6,-982.7 L263.0,-979.7 L259.6,-977.8 L259.7,-977.6 L258.2,-976.8 L253.4,-974.3 L249.9,-972.2 L247.8,-971.0 L244.6,-969.2 L244.3,-968.9 L241.5,-973.9 L247.0,-976.9 L254.4,-981.0 L259.5,-983.8 L260.2,-984.2 L260.1,-984.3 L264.5,-986.7 L266.8,-988.0 L272.2,-990.6 L273.2,-991.2 L281.3,-995.7 L284.3,-997.3 L286.4,-998.5 L289.0,-999.9 L292.5,-993.6 L287.0,-990.6 L286.7,-990.1 L286.6,-989.6 L286.5,-989.3 L286.5,-988.9 L286.5,-988.7 L286.6,-988.3 L297.8,-967.6 L298.1,-967.3 L298.3,-967.0 L298.6,-966.9 L298.8,-966.8 L299.1,-966.7 L299.4,-966.8 L299.6,-966.8 L304.6,-970.6 L306.9,-972.6 L309.3,-974.6 L310.2,-975.5 L313.2,-977.9 L313.4,-977.9 L316.3,-980.4 L316.3,-980.5 L318.2,-982.1 L319.7,-983.3 L322.3,-985.4 L322.5,-985.2 L325.0,-987.2 L326.3,-988.3 L329.8,-991.2 L332.3,-993.3 L332.1,-993.6 L332.9,-994.3 L334.2,-995.4 L335.0,-996.2 L338.5,-997.7 L340.9,-998.5 L342.1,-999.1 L345.5,-999.1 L346.7,-999.1 L349.2,-999.0 L352.1,-998.9 L352.3,-999.1 L352.6,-998.7 L353.6,-998.7 L362.0,-997.9 L362.9,-997.7 L363.8,-997.6 L365.8,-997.4 L369.4,-997.2 L370.2,-997.2 L370.9,-997.3 L373.9,-997.4 L375.4,-997.5 L376.9,-997.6 L379.1,-997.8 L379.1,-997.7 L380.9,-998.0 L382.6,-998.3 L384.0,-998.6 L385.7,-999.9 L385.9,-999.6 L386.1,-999.3 L401.3,-979.2 L438.0,-966.5 L505.3,-1016.0 L523.7,-1029.2 L530.8,-1044.3 L519.5,-1059.1 L520.0,-1061.2 L522.0,-1061.8 L525.7,-1061.0 L528.4,-1062.0 L529.2,-1063.0 L529.0,-1063.9 L527.0,-1067.9 L526.9,-1069.4 L526.8,-1072.3 L526.4,-1075.1 L526.8,-1075.6 L527.9,-1076.2 L529.3,-1076.5 L530.3,-1077.5 L530.5,-1078.8 L529.7,-1081.4 L529.6,-1083.1 L529.9,-1085.1 L531.2,-1088.5 L530.9,-1090.1 L530.3,-1091.9 L530.2,-1094.4 L529.8,-1097.5 L529.1,-1099.6 L528.7,-1100.6 L529.0,-1101.1 L529.2,-1101.0 L529.3,-1101.2 L529.4,-1101.5 L529.3,-1101.7 L528.9,-1101.8 L528.6,-1102.2 L528.7,-1102.6 L528.3,-1102.7 L527.8,-1102.7 L527.8,-1102.6 L526.8,-1103.7 L526.6,-1104.1 L526.5,-1104.6 L526.4,-1105.1 L526.3,-1105.6 L526.2,-1106.1 L526.2,-1106.5 L526.2,-1107.0 L526.2,-1107.2 L526.4,-1107.8 L526.7,-1108.3 L527.0,-1108.8 L527.4,-1109.4 L527.8,-1110.0 L528.2,-1110.5 L528.8,-1110.9 L528.9,-1110.7 L533.2,-1114.1 L533.9,-1114.6 L533.8,-1114.8 L533.8,-1115.1 L534.8,-1115.9 L535.1,-1115.9 L535.4,-1115.7 L535.8,-1116.1 L540.3,-1119.5 L540.3,-1119.6 L540.8,-1120.0 L541.4,-1120.4 L541.9,-1120.6 L542.5,-1120.8 L543.0,-1121.0 L543.6,-1121.1 L544.2,-1121.1 L544.5,-1121.1 L545.0,-1121.0 L545.5,-1120.8 L545.8,-1120.7 L546.2,-1120.5 L546.4,-1120.3 L546.6,-1120.1 L546.9,-1119.8 L547.1,-1119.7 L547.3,-1119.7 L547.5,-1119.8 L548.2,-1120.3 L548.2,-1120.4 L548.3,-1120.5 L548.4,-1120.6 L548.3,-1120.8 L548.3,-1120.9 L548.2,-1121.1 L547.7,-1121.6 L547.3,-1121.9 L546.9,-1122.1 L546.1,-1122.4 L545.5,-1122.7 L546.6,-1123.3 L548.0,-1124.2 L549.7,-1124.4 L551.4,-1124.3 L552.5,-1124.7 L553.4,-1126.1 L557.0,-1132.6 L558.5,-1135.3 L559.7,-1138.1 L559.9,-1138.7 L561.6,-1144.0 L561.9,-1144.5 L562.2,-1145.1 L566.3,-1150.1 L567.1,-1151.0 L567.8,-1151.5 L576.8,-1159.3 L577.3,-1159.6 L578.9,-1160.5 L580.7,-1161.5 L586.5,-1164.6 L599.2,-1171.3 L599.5,-1171.1 L599.7,-1171.0 L599.9,-1171.0 L600.2,-1171.0 L600.4,-1171.1 L601.1,-1171.2 L601.9,-1171.4 L602.6,-1171.5 L603.3,-1171.7 L603.7,-1171.8 L604.3,-1171.9 L604.9,-1172.2 L606.4,-1173.0 L607.0,-1173.3 L607.2,-1173.5 L607.5,-1173.6 L608.7,-1174.1 L610.0,-1174.6 L611.6,-1175.3 L613.5,-1176.1 L613.6,-1176.1 L613.8,-1176.1 L614.0,-1176.2 L614.3,-1176.4 L614.6,-1176.6 L615.0,-1176.7 L615.7,-1177.1 L615.9,-1177.4 L616.4,-1177.7 L616.3,-1177.7 L616.5,-1177.9 L616.7,-1178.2 L617.1,-1178.4 L617.4,-1178.5 L617.7,-1178.6 L618.0,-1178.8 L618.7,-1179.2 L618.8,-1179.3 L619.0,-1179.6 L619.1,-1179.8 L619.1,-1180.0 L619.1,-1180.2 L619.1,-1180.4 L617.4,-1182.5 L622.9,-1185.7 L625.5,-1187.1 L626.0,-1187.3 L626.8,-1187.1 L627.7,-1185.9 L628.1,-1185.6 L628.5,-1185.4 L628.8,-1185.3 L629.1,-1185.3 L633.8,-1187.3 L635.1,-1187.9 L636.3,-1188.5 L638.3,-1189.6 L638.7,-1189.7 L665.5,-1200.9 L673.9,-1204.9 L711.5,-1223.0 L1588.1,-1230.2 L1588.1,24.3 L-285.4,24.3 L-285.4,-29.1 Z" fill="#add7e1" stroke="none"><title>Biscayne Bay</title></path></svg>