<svg xmlns="http://www.w3.org/2000/svg" width="256" height="256" viewBox="0 0 256 256"><rect width="256" height="256" fill="#f1efe7"/><path d="M-5130.7,-1581.7 L-4915.9,-1671.0 L-4848.7,-1703.3 L-4548.2,-1847.6 L-4491.8,-1793.0 L-4486.9,-1788.3 L-4381.5,-1878.5 L-4356.4,-1897.6 L-4314.5,-1935.4 L-4078.4,-2152.2 L-3887.9,-2369.8 L-3880.6,-2383.7 L-3873.6,-2391.6 L-3862.5,-2404.3 L-3851.2,-2417.2 L-3846.6,-2422.5 L-3921.7,-2519.6 L-3822.3,-2579.2 L-3768.4,-2507.5 L-3692.2,-2594.7 L-3756.7,-2680.1 L-3676.8,-2763.4 L-3615.3,-2682.4 L-3544.7,-2762.8 L-3514.6,-2782.5 L-3367.4,-2878.0 L-3294.7,-2926.3 L-3207.1,-2983.9 L-3165.7,-3011.1 L-3060.8,-3078.8 L-3087.8,-3114.3 L-3136.1,-3179.0 L-3011.2,-3258.4 L-2965.7,-3281.9 L-2962.2,-3284.4 L-2938.2,-3302.9 L-2852.6,-3348.7 L-2846.7,-3357.9 L-2822.7,-3374.4 L-2809.7,-3393.4 L-2806.0,-3396.2 L-2785.1,-3404.3 L-2737.9,-3421.2 L-2705.6,-3435.4 L-2591.5,-3489.0 L-2590.1,-3485.3 L-2494.4,-3526.2 L-2455.3,-3476.1 L-2368.2,-3534.2 L-2355.8,-3542.7 L-2354.6,-3543.7 L-2353.4,-3545.3 L-2351.5,-3548.6 L-2350.5,-3551.7 L-2349.9,-3555.4 L-2350.0,-3558.4 L-2350.4,-3561.3 L-2350.8,-3564.6 L-2350.9,-3567.1 L-2350.7,-3569.2 L-2350.3,-3571.4 L-2348.7,-3575.4 L-2347.6,-3577.6 L-2345.1,-3581.4 L-2342.5,-3584.2 L-2329.8,-3589.3 L-2319.2,-3593.3 L-2305.7,-3597.7 L-2299.4,-3599.4 L-2288.2,-3603.1 L-2280.3,-3605.9 L-2269.4,-3610.4 L-2254.6,-3616.9 L-2238.6,-3624.4 L-2230.0,-3628.6 L-2219.2,-3634.1 L-2209.1,-3639.7 L-2199.0,-3645.7 L-2188.7,-3652.4 L-2185.5,-3654.6 L-2164.8,-3670.4 L-2147.4,-3683.8 L-2130.4,-3698.2 L-2114.5,-3713.2 L-2103.0,-3726.1 L-2091.6,-3740.0 L-2077.6,-3758.0 L-2064.8,-3776.0 L-2050.1,-3799.1 L-2040.5,-3817.0 L-2034.5,-3828.4 L-2025.6,-3847.7 L-2018.1,-3865.6 L-2011.4,-3884.9 L-2006.0,-3901.8 L-2000.1,-3929.2 L-1995.8,-3953.7 L-1993.5,-3974.7 L-1991.5,-3999.5 L-1991.3,-4026.0 L-1992.9,-4050.5 L-1997.1,-4082.5 L-2001.5,-4104.3 L-2006.5,-4124.9 L-2013.9,-4148.3 L-2020.2,-4166.2 L-2027.4,-4185.7 L-2034.2,-4201.9 L-2038.8,-4212.4 L-2040.7,-4220.1 L-2041.0,-4226.0 L-2040.4,-4231.3 L-2038.3,-4235.9 L-2035.1,-4239.8 L-2030.9,-4242.0 L-2026.4,-4242.6 L-2014.3,-4239.7 L-1980.6,-4231.6 L-1969.4,-4486.3 L-1925.7,-4940.9 L-1973.2,-4952.1 L-1978.4,-4966.4 L-1978.2,-4986.9 L-1971.6,-5033.4 L-1962.6,-5043.9 L-1954.6,-5074.1 L-1904.1,-5062.4 L-1876.3,-5352.9 L-1868.6,-5433.3 L-1884.3,-5437.2 L-1874.8,-5475.6 L-1907.1,-5483.3 L-1903.0,-5506.8 L-1897.3,-5522.3 L-1890.2,-5540.4 L-1878.2,-5565.7 L-1865.3,-5562.8 L-1847.9,-5745.5 L-1843.8,-5856.3 L-1843.0,-5876.7 L-1833.6,-5947.2 L-1814.9,-6122.9 L-1690.1,-6448.3 L-1661.6,-6537.0 L-1314.9,-6670.0 L-1281.0,-6683.6 L-1275.1,-6686.8 L-1270.5,-6691.0 L-1265.4,-6696.9 L-1261.5,-6703.8 L-1258.9,-6710.6 L-1258.3,-6720.5 L-1258.8,-6732.8 L-1263.4,-6888.3 L-1265.1,-6918.4 L-1265.6,-6939.1 L-1266.3,-6979.3 L-1267.1,-6991.9 L-1268.6,-7002.5 L-1270.7,-7011.9 L-1273.8,-7021.5 L-1278.7,-7032.8 L-1285.9,-7044.9 L-1292.9,-7054.5 L-1298.3,-7063.6 L-1303.8,-7075.7 L-1308.4,-7087.3 L-1310.2,-7096.8 L-1311.6,-7107.3 L-1312.3,-7117.8 L-1312.0,-7128.0 L-1310.8,-7139.9 L-1308.0,-7151.6 L-1304.3,-7162.0 L-1300.4,-7171.5 L-1295.4,-7180.7 L-1289.3,-7191.9 L-1285.3,-7202.0 L-1281.8,-7214.9 L-1275.4,-7224.7 L-1277.6,-7313.9 L-1280.9,-7319.1 L-1281.9,-7379.7 L-1283.6,-7451.2 L-1282.4,-7461.1 L-1279.2,-7471.2 L-1271.2,-7487.0 L-1217.7,-7602.1 L-1216.6,-7604.0 L-1207.2,-7624.5 L-1198.3,-7643.9 L-1188.3,-7663.9 L-1178.5,-7684.5 L-1173.7,-7694.5 L-1121.1,-7802.4 L-1064.9,-7921.6 L-943.3,-8168.4 L-1016.4,-8250.3 L-1076.0,-8123.3 L-1127.5,-8013.4 L-1135.3,-7997.8 L-1151.2,-7965.3 L-1183.0,-7968.0 L-1191.7,-7968.5 L-1194.8,-7965.7 L-1190.6,-7961.9 L-1206.9,-7947.4 L-1219.8,-7935.5 L-1222.2,-7884.6 L-1227.0,-7874.4 L-1242.6,-7875.0 L-1245.2,-7875.9 L-1449.6,-7960.3 L-1454.0,-7962.6 L-1458.7,-7965.6 L-1466.1,-7971.2 L-1471.8,-7976.6 L-1476.6,-7981.8 L-1481.3,-7988.2 L-1484.9,-7993.8 L-1487.7,-7999.6 L-1489.9,-8005.7 L-1491.4,-8009.9 L-1492.5,-8015.0 L-1493.3,-8021.0 L-1494.1,-8029.2 L-1494.1,-8040.9 L-1495.5,-8080.6 L-1489.9,-8080.9 L-1490.7,-8101.9 L-1491.6,-8136.5 L-1486.4,-8136.6 L-1486.8,-8160.2 L-1492.7,-8160.1 L-1495.4,-8259.5 L-1489.8,-8259.8 L-1490.7,-8283.1 L-1496.1,-8282.9 L-1498.4,-8356.4 L-1471.4,-8385.5 L-1436.9,-8386.7 L-1411.2,-8387.6 L-1377.3,-8388.7 L-1344.7,-8389.7 L-1315.5,-8390.7 L-1302.8,-8391.3 L-1303.4,-8402.6 L-1303.6,-8414.4 L-1305.5,-8452.7 L-1306.2,-8525.8 L-1307.2,-8527.1 L-1307.4,-8534.3 L-1305.3,-8534.4 L-1310.4,-8710.5 L-1314.8,-8876.2 L-1315.5,-8881.4 L-1315.9,-8891.0 L-1388.1,-8888.4 L-1436.1,-8892.5 L-1795.4,-8880.0 L-1795.5,-8883.2 L-1796.2,-8898.5 L-1966.6,-8892.5 L-1966.9,-8920.8 L-1989.4,-8925.9 L-1993.4,-9047.0 L-1330.6,-9070.0 L-1319.6,-9085.1 L-1320.0,-9128.1 L-1320.8,-9165.3 L-1321.4,-9188.6 L-1322.3,-9211.3 L-1375.0,-9236.1 L-1377.1,-9291.2 L-1323.1,-9318.0 L-1328.0,-9445.5 L-1329.4,-9451.8 L-1383.1,-9476.9 L-1384.8,-9545.1 L-1333.8,-9571.4 L-1356.5,-9848.3 L-1350.5,-9971.5 L-1347.5,-10172.4 L-1347.7,-10390.9 L-1342.9,-10421.5 L-1342.6,-10436.3 L-1347.4,-10454.1 L-1342.4,-10454.1 L-1342.4,-10470.2 L-1339.4,-10881.2 L-1339.9,-10899.5 L-1345.6,-10899.5 L-1345.4,-10975.1 L-1348.7,-10979.8 L-1353.9,-11057.8 L-1343.6,-11129.1 L-1344.9,-11215.4 L-1348.4,-11236.1 L-1343.1,-11300.0 L-1346.7,-11377.3 L-1355.7,-11460.0 L-1372.8,-11594.0 L-1364.7,-11630.9 L-1368.3,-11666.8 L-1398.9,-11692.9 L-1443.8,-11692.5 L-1512.2,-11683.5 L-1556.7,-11683.5 L-1597.1,-11698.3 L-1650.2,-11734.7 L-1650.2,-11800.0 L-1651.6,-11880.3 L-1646.4,-11947.2 L-1628.8,-11999.4 L-1334.1,-12004.9 L-1327.3,-12422.8 L-1327.3,-13024.4 L-1330.4,-13242.7 L14581.8,-19814.4 L14581.8,16403.8 L-5130.7,16403.8 L-5130.7,-1581.7 Z" fill="#add7e1" stroke="none"><title>Biscayne Bay</title></path><path d="M-12522.8,7703.5 L-13067.0,7301.8 L-13110.5,7269.8 L-13157.7,7259.5 L-13191.0,7231.5 L-13217.6,7228.4 L-13303.6,7234.1 L-13303.5,7226.0 L-13308.3,7218.4 L-13317.9,7212.5 L-13504.7,7131.6 L-13517.4,7125.8 L-13528.5,7122.6 L-13542.3,7121.5 L-13556.2,7121.2 L-13602.6,7121.2 L-13614.9,7120.5 L-13627.0,7118.1 L-13639.8,7113.1 L-13655.2,7109.0 L-13666.4,7108.0 L-13699.3,7106.6 L-13710.3,7104.6 L-13724.3,7100.1 L-13738.0,7096.6 L-13751.3,7093.5 L-13761.7,7089.3 L-13774.3,7081.5 L-13785.5,7073.1 L-13796.4,7064.9 L-13805.3,7060.7 L-13812.1,7059.3 L-13818.2,7059.7 L-13824.7,7061.5 L-13832.3,7065.4 L-13838.3,7072.0 L-13846.4,7079.9 L-13855.4,7088.2 L-13865.6,7093.8 L-13878.5,7098.0 L-13889.2,7100.6 L-13902.1,7102.6 L-13923.7,7105.1 L-13977.9,7107.7 L-14023.9,7110.0 L-14043.7,7117.1 L-14084.3,7118.5 L-14089.8,7110.0 L-14095.9,7106.1 L-14102.2,7104.9 L-14146.0,7107.4 L-14165.0,7114.2 L-14188.3,7114.4 L-14204.0,7112.1 L-14216.9,7108.2 L-14264.0,7111.0 L-14388.6,7120.7 L-14417.3,7121.5 L-14427.1,7121.3 L-14435.9,7119.1 L-14446.1,7114.0 L-14453.6,7108.0 L-14486.0,7108.1 L-14513.1,7107.7 L-14520.4,7112.2 L-14557.7,7113.1 L-14562.5,7121.0 L-14567.8,7121.2 L-14577.0,7119.0 L-14593.5,7117.0 L-14610.5,7117.9 L-14615.7,7119.5 L-14621.0,7118.6 L-14624.6,7115.1 L-14630.7,7111.6 L-14653.4,7111.7 L-14676.3,7112.9 L-14698.0,7125.7 L-14708.7,7130.8 L-14720.9,7133.5 L-14731.0,7134.2 L-14740.1,7132.8 L-14761.1,7123.8 L-14773.1,7120.0 L-14783.3,7118.5 L-14828.0,7119.1 L-14830.8,7113.7 L-14870.3,7114.6 L-14897.5,7119.6 L-14915.4,7121.7 L-14925.0,7123.8 L-14928.7,7121.3 L-14935.5,7120.4 L-14999.2,7114.6 L-15004.7,7117.6 L-15011.4,7119.0 L-15020.2,7119.1 L-15020.2,7115.9 L-15059.7,7108.5 L-15084.6,7103.7 L-15144.8,7083.5 L-15148.1,7088.0 L-15188.3,7075.6 L-15196.7,7072.8 L-15192.6,7058.8 L-15197.4,7057.3 L-15198.4,7055.8 L-15201.0,7055.0 L-15204.6,7054.5 L-15209.0,7052.3 L-15207.5,7051.0 L-15225.3,7036.5 L-15254.9,7009.7 L-15270.8,6995.7 L-15282.1,6983.4 L-15288.4,6975.1 L-15297.8,6962.3 L-15303.2,6952.4 L-15320.0,6931.3 L-15321.6,6930.1 L-15322.7,6930.0 L-15323.9,6930.2 L-15326.1,6930.3 L-15328.1,6929.3 L-15332.3,6926.6 L-15340.9,6922.1 L-15345.1,6918.5 L-15350.0,6914.2 L-15356.7,6910.6 L-15367.2,6907.3 L-15378.3,6905.3 L-15387.8,6905.1 L-15385.1,6879.9 L-15382.9,6847.0 L-15372.6,6848.0 L-15362.3,6849.8 L-15348.8,6853.8 L-15338.9,6857.5 L-15330.0,6861.6 L-15321.4,6865.6 L-15313.3,6870.2 L-15306.7,6875.3 L-15297.9,6882.1 L-15288.7,6889.0 L-15286.6,6890.3 L-15284.7,6890.7 L-15259.5,6889.6 L-15259.2,6895.3 L-15260.7,6897.8 L-15279.6,6899.6 L-15274.8,6909.4 L-15271.5,6908.2 L-15268.5,6911.2 L-15266.6,6914.1 L-15265.0,6916.3 L-15261.1,6921.5 L-15259.6,6927.2 L-15253.5,6935.6 L-15239.1,6944.7 L-15221.2,6953.8 L-15199.8,6967.3 L-15190.0,6971.9 L-15169.4,6983.6 L-15159.7,6988.7 L-15142.0,6995.2 L-15107.2,7004.5 L-15086.8,7009.4 L-15068.2,7011.3 L-15058.3,7012.6 L-15056.1,7012.4 L-15055.2,7011.1 L-15054.9,7004.5 L-15031.8,7004.5 L-15031.3,7011.9 L-14982.9,7014.4 L-14935.7,7015.8 L-14903.6,7014.6 L-14893.0,7013.8 L-14885.3,7012.8 L-14879.0,7011.0 L-14873.2,7007.5 L-14870.3,7002.8 L-14871.4,6925.3 L-14851.9,6924.2 L-14850.2,6999.8 L-14849.1,7001.7 L-14845.2,7004.4 L-14840.7,7005.7 L-14737.3,7005.9 L-14737.8,6972.6 L-14729.7,6972.4 L-14726.3,7005.9 L-14662.5,7005.3 L-14662.5,7001.7 L-14656.2,7001.6 L-14656.0,7004.2 L-14230.5,6996.1 L-14199.7,6992.5 L-14162.1,6991.4 L-14126.5,6996.1 L-14114.6,6995.1 L-14105.9,6993.4 L-14097.8,6990.5 L-14087.3,6986.5 L-13873.4,6982.7 L-13873.5,6967.9 L-13753.8,6965.8 L-13753.7,6982.1 L-13702.9,6983.9 L-13699.0,6983.8 L-13695.4,6983.5 L-13690.7,6982.9 L-13686.9,6981.9 L-13683.2,6980.7 L-13676.9,6977.7 L-13674.0,6982.7 L-13667.8,6978.8 L-13662.1,6974.2 L-13657.3,6969.2 L-13653.1,6963.3 L-13649.2,6956.0 L-13656.5,6951.9 L-13654.5,6945.8 L-13653.2,6939.5 L-13652.5,6933.5 L-13652.4,6928.8 L-13652.6,6924.4 L-13653.3,6886.5 L-13659.4,6880.9 L-13654.2,6875.4 L-13659.5,6870.8 L-13653.5,6863.7 L-13660.0,6858.0 L-13654.8,6852.5 L-13660.0,6847.5 L-13653.9,6841.0 L-13660.2,6834.6 L-13647.1,6820.2 L-13644.8,6820.1 L-13650.5,6605.6 L-13602.4,6604.5 L-13600.1,6605.7 L-13597.5,6607.7 L-13595.6,6609.4 L-13594.8,6611.4 L-13594.1,6613.8 L-13593.9,6616.2 L-13589.8,6949.5 L-13587.9,6960.3 L-13585.2,6967.6 L-13581.0,6976.6 L-13576.1,6985.4 L-13571.0,6992.4 L-13566.9,6996.7 L-13562.5,7000.1 L-13557.4,7003.1 L-13552.1,7005.1 L-13544.9,7007.2 L-13536.0,7008.9 L-13525.2,7010.9 L-13512.6,7013.2 L-13500.6,7015.8 L-13487.3,7018.2 L-13474.7,7020.9 L-13470.7,7021.7 L-13465.8,7022.7 L-13461.0,7023.3 L-13456.8,7023.4 L-13452.0,7023.4 L-13448.3,7023.2 L-13444.6,7022.5 L-13441.4,7021.7 L-13438.0,7020.7 L-13435.1,7019.4 L-13429.3,7016.6 L-13424.2,7013.6 L-13419.1,7009.9 L-13413.2,7004.2 L-13407.7,6998.0 L-13404.7,6992.7 L-13402.0,6986.2 L-13400.6,6980.9 L-13399.8,6975.2 L-13399.3,6969.8 L-13399.3,6964.8 L-13406.6,6607.6 L-13396.2,6596.9 L-13392.4,6596.5 L-13390.9,6595.1 L-13369.2,6594.5 L-13367.3,6591.3 L-13364.0,6592.2 L-13358.5,6597.3 L-13354.7,6602.6 L-13350.9,6609.2 L-13343.7,7008.4 L-13343.0,7015.4 L-13341.7,7029.3 L-13340.4,7032.1 L-13341.4,7032.8 L-13339.6,7036.7 L-13337.3,7041.3 L-13335.3,7044.2 L-13332.9,7047.7 L-13329.6,7051.5 L-13325.7,7055.5 L-13321.0,7059.5 L-13316.8,7062.6 L-13312.2,7065.1 L-13307.8,7067.3 L-13303.1,7068.8 L-13302.5,7067.4 L-13236.3,7091.4 L-13228.0,7094.5 L-13224.2,7095.9 L-13218.3,7098.0 L-13214.0,7099.0 L-13210.3,7099.5 L-13206.9,7099.5 L-13202.1,7099.1 L-13196.9,7098.6 L-13192.3,7097.6 L-13187.6,7096.3 L-13184.1,7094.9 L-13180.4,7093.2 L-13177.4,7091.3 L-13173.6,7088.5 L-13168.8,7084.3 L-13164.4,7080.0 L-13159.6,7074.0 L-13156.2,7068.4 L-13153.4,7062.2 L-13151.4,7055.3 L-13150.2,7048.3 L-13149.5,7035.8 L-13149.8,7010.3 L-13157.1,6604.2 L-13157.1,6599.7 L-13156.3,6596.5 L-13154.9,6593.9 L-13152.0,6591.5 L-13148.7,6589.8 L-13145.0,6589.2 L-13114.9,6588.2 L-13111.3,6588.8 L-13108.1,6590.2 L-13105.8,6592.4 L-13103.2,6596.2 L-13101.7,6601.6 L-13100.8,6608.9 L-13093.3,7129.8 L-13092.9,7132.9 L-13092.3,7136.0 L-13091.4,7139.2 L-13090.3,7142.7 L-13089.1,7146.2 L-13087.7,7149.4 L-13086.5,7152.1 L-13085.2,7154.5 L-13083.3,7157.5 L-13081.2,7160.1 L-13079.3,7162.5 L-13076.4,7165.6 L-13073.6,7168.3 L-13070.5,7170.8 L-13067.2,7173.3 L-13058.0,7179.1 L-13057.1,7178.0 L-13049.0,7182.5 L-13039.4,7187.7 L-13033.9,7190.7 L-13027.8,7194.3 L-13021.5,7198.0 L-13015.0,7202.0 L-13007.7,7206.5 L-13000.5,7211.0 L-12993.3,7215.3 L-12987.3,7219.0 L-12980.6,7223.3 L-12973.5,7227.9 L-12966.7,7232.4 L-12960.4,7236.7 L-12961.1,7237.6 L-12952.3,7243.7 L-12943.2,7249.8 L-12940.4,7251.5 L-12937.3,7253.2 L-12932.9,7255.3 L-12928.8,7256.8 L-12924.4,7258.0 L-12920.5,7259.0 L-12915.9,7259.7 L-12910.8,7260.3 L-12906.4,7260.3 L-12902.7,7260.0 L-12899.5,7259.3 L-12895.4,7258.2 L-12891.3,7256.9 L-12887.5,7255.6 L-12884.0,7253.9 L-12880.4,7252.0 L-12876.9,7249.8 L-12873.3,7247.0 L-12870.1,7244.1 L-12867.0,7241.0 L-12864.1,7237.8 L-12861.1,7233.4 L-12858.6,7229.0 L-12856.2,7224.1 L-12854.8,7220.3 L-12853.7,7216.3 L-12852.9,7212.0 L-12852.5,7207.7 L-12852.8,7202.8 L-12912.1,6635.1 L-12908.0,6634.7 L-12911.3,6606.3 L-12914.3,6606.5 L-12916.7,6593.4 L-12915.9,6590.7 L-12913.4,6586.7 L-12908.3,6582.8 L-12901.6,6582.0 L-12874.7,6581.1 L-12870.2,6582.0 L-12867.1,6583.5 L-12863.8,6586.1 L-12861.5,6588.5 L-12859.9,6591.0 L-12794.9,7227.9 L-12793.4,7233.4 L-12790.6,7240.2 L-12788.2,7244.6 L-12785.6,7249.3 L-12782.2,7253.9 L-12779.4,7257.1 L-12776.3,7260.3 L-12772.9,7263.0 L-12769.9,7265.1 L-12765.7,7267.8 L-12762.0,7269.7 L-12757.1,7271.8 L-12752.5,7273.2 L-12747.3,7274.3 L-12743.3,7274.9 L-12739.8,7275.0 L-12735.7,7275.1 L-12594.5,7272.2 L-12589.9,7271.6 L-12585.5,7269.5 L-12582.3,7266.6 L-12580.1,7262.2 L-12579.3,7258.2 L-12579.5,7254.2 L-12651.0,6572.1 L-12714.0,6489.9 L-12716.8,6492.2 L-12771.6,6415.7 L-12772.6,6399.5 L-12774.3,6396.1 L-12777.2,6393.0 L-12780.9,6387.8 L-12781.2,6380.2 L-12787.7,6377.7 L-12794.0,6377.6 L-12802.5,6381.8 L-12792.9,6399.8 L-12805.0,6405.6 L-12814.1,6397.2 L-12821.9,6392.4 L-12827.2,6390.6 L-12840.2,6390.1 L-12846.8,6376.7 L-12805.3,6359.7 L-12807.3,6356.3 L-12816.1,6344.5 L-12817.5,6345.2 L-13126.4,5940.7 L-13131.1,5874.0 L-13128.6,5873.4 L-13140.5,5751.1 L-13145.1,5739.8 L-13150.1,5727.1 L-13153.9,5717.3 L-13158.5,5704.8 L-13173.5,5662.7 L-13179.6,5665.4 L-13188.5,5631.3 L-13187.0,5631.0 L-13218.1,5546.7 L-13221.5,5399.3 L-13217.9,5399.3 L-13217.4,5386.4 L-13215.6,5373.7 L-13214.9,5369.0 L-13216.2,5365.2 L-13212.0,5345.1 L-13173.7,5277.3 L-13193.8,5265.1 L-13178.9,5240.4 L-13159.5,5251.8 L-13157.8,5249.2 L-13151.7,5252.3 L-13145.1,5254.9 L-13137.5,5257.3 L-13131.8,5258.5 L-13126.4,5258.7 L-13120.0,5257.6 L-13113.7,5255.5 L-13107.5,5253.1 L-13104.6,5250.0 L-13103.5,5245.9 L-13102.0,5241.0 L-13101.7,5239.0 L-13101.8,5236.5 L-13103.2,5232.6 L-13105.8,5228.9 L-13108.8,5226.8 L-13113.2,5222.6 L-13117.0,5218.6 L-13122.6,5215.0 L-13124.9,5209.3 L-13127.6,5203.6 L-13131.9,5196.9 L-13136.8,5191.1 L-13145.8,5184.7 L-13189.4,5162.1 L-13215.2,5149.3 L-13239.3,5136.3 L-13262.2,5123.6 L-13277.0,5114.0 L-13282.7,5112.5 L-13289.0,5114.4 L-13292.5,5118.7 L-13299.6,5136.4 L-13343.7,5116.6 L-13317.3,5074.9 L-13311.5,5072.2 L-13304.4,5070.8 L-13296.1,5072.6 L-13130.4,5169.5 L-13121.4,5172.2 L-13112.0,5174.5 L-13098.7,5174.8 L-13085.2,5172.4 L-13076.6,5168.9 L-13067.2,5161.3 L-13061.7,5156.0 L-13055.8,5147.7 L-13055.9,5146.6 L-13056.3,5145.6 L-13057.2,5144.8 L-13110.8,5111.7 L-13112.1,5111.3 L-13113.5,5111.2 L-13114.9,5111.3 L-13120.0,5113.5 L-13121.9,5113.7 L-13124.0,5113.5 L-13127.1,5113.0 L-13129.5,5112.3 L-13132.9,5110.6 L-13136.2,5108.7 L-13209.9,5063.7 L-13244.6,5039.3 L-13247.9,5038.8 L-13251.2,5038.9 L-13255.1,5039.0 L-13257.7,5038.6 L-13259.9,5037.6 L-13262.5,5035.6 L-13265.4,5033.3 L-13267.4,5030.5 L-13268.6,5027.7 L-13268.8,5025.6 L-13268.5,5022.9 L-13268.0,5020.6 L-13256.2,5000.8 L-13256.2,4999.9 L-13257.1,4999.2 L-13267.9,4991.6 L-13270.0,4988.5 L-13268.8,4986.6 L-13265.3,4987.1 L-13261.5,4988.2 L-13239.3,5001.9 L-13113.5,5082.2 L-13110.9,5083.7 L-13109.1,5085.6 L-13107.9,5087.8 L-13106.6,5092.4 L-13105.7,5096.0 L-13105.2,5099.1 L-13048.4,5133.2 L-13046.4,5134.1 L-13044.0,5134.3 L-13041.2,5133.9 L-13039.2,5133.2 L-13037.5,5132.4 L-12976.4,5033.5 L-12950.8,4995.9 L-12926.9,4969.0 L-12914.8,4975.7 L-12907.0,4963.1 L-12948.5,4938.3 L-12939.7,4923.9 L-12898.2,4948.9 L-12888.9,4933.7 L-12896.4,4925.3 L-12888.8,4916.6 L-12880.6,4926.0 L-12878.6,4924.5 L-12876.3,4922.9 L-12873.1,4921.1 L-12869.8,4919.5 L-12865.7,4918.0 L-12861.8,4916.9 L-12857.6,4916.2 L-12853.4,4915.9 L-12849.4,4916.0 L-12845.5,4916.6 L-12841.8,4917.5 L-12838.7,4918.4 L-12836.0,4919.6 L-12832.2,4921.4 L-12828.7,4923.6 L-12825.7,4925.7 L-12822.7,4928.4 L-12820.0,4931.0 L-12817.0,4934.9 L-12814.9,4938.4 L-12812.8,4942.9 L-12811.4,4947.4 L-12810.2,4953.6 L-12809.8,4959.0 L-12809.9,4962.1 L-12810.3,4965.3 L-12811.4,4970.1 L-12814.2,4976.7 L-12816.0,4981.0 L-12818.5,4986.1 L-12808.1,4991.3 L-12759.5,4933.3 L-12848.0,4879.5 L-12843.5,4869.9 L-12840.3,4861.0 L-12840.1,4857.2 L-12835.0,4846.3 L-12824.5,4836.6 L-12811.5,4826.0 L-12796.0,4816.1 L-12766.9,4807.6 L-12716.7,4802.6 L-12696.9,4786.6 L-12692.8,4785.9 L-12689.5,4785.7 L-12684.8,4787.5 L-12680.5,4788.0 L-12652.6,4804.9 L-12579.2,4717.8 L-12848.2,4546.8 L-12864.9,4573.1 L-12901.2,4550.1 L-12849.7,4469.1 L-12813.5,4491.5 L-12829.6,4519.1 L-12555.9,4691.6 L-12521.4,4647.3 L-12497.0,4618.3 L-12464.8,4569.9 L-12447.0,4545.5 L-12448.8,4531.6 L-12448.3,4531.2 L-12451.5,4520.9 L-12453.6,4514.5 L-12455.6,4507.9 L-12458.0,4502.2 L-12462.6,4494.7 L-12467.2,4487.4 L-12469.2,4483.6 L-12470.7,4479.8 L-12471.8,4476.3 L-12472.2,4473.2 L-12472.7,4463.0 L-12590.9,4354.5 L-12594.8,4358.7 L-12598.1,4355.9 L-12607.7,4365.4 L-12614.0,4357.0 L-12606.4,4348.2 L-12614.0,4338.5 L-12619.2,4339.9 L-12624.6,4340.1 L-12629.5,4339.2 L-12633.8,4337.4 L-12638.8,4333.7 L-12645.0,4327.6 L-12655.9,4315.6 L-12659.2,4310.5 L-12660.4,4304.1 L-12659.6,4296.5 L-12656.7,4289.5 L-12654.2,4284.7 L-12649.4,4279.9 L-12644.1,4276.3 L-12639.0,4274.4 L-12635.2,4273.8 L-12630.2,4274.7 L-12625.1,4276.5 L-12620.3,4280.3 L-12609.2,4290.3 L-12603.5,4295.7 L-12598.3,4301.4 L-12596.6,4304.1 L-12595.4,4307.0 L-12594.7,4309.6 L-12594.2,4313.2 L-12594.8,4316.6 L-12595.8,4319.8 L-12597.2,4322.2 L-12597.6,4323.3 L-12597.3,4324.7 L-12596.5,4326.1 L-12469.6,4445.0 L-12465.2,4448.0 L-12462.1,4449.3 L-12457.7,4448.3 L-12452.5,4447.9 L-12445.9,4450.7 L-12439.3,4454.8 L-12426.4,4462.1 L-12421.0,4464.7 L-12416.1,4459.9 L-12410.7,4454.7 L-12407.1,4450.6 L-12401.1,4442.8 L-12397.7,4438.1 L-12394.1,4432.3 L-12391.8,4427.2 L-12389.3,4421.8 L-12387.0,4416.1 L-12384.9,4410.3 L-12383.7,4405.4 L-12382.3,4399.2 L-12381.7,4395.5 L-12381.3,4392.5 L-12380.6,4387.2 L-12379.9,4382.0 L-12379.6,4378.6 L-12379.4,4374.9 L-12379.4,4370.6 L-12379.6,4367.0 L-12380.3,4362.0 L-12381.1,4356.3 L-12381.9,4351.0 L-12382.4,4346.7 L-12383.0,4343.5 L-12383.7,4340.1 L-12384.5,4336.7 L-12385.7,4332.7 L-12387.1,4328.7 L-12388.2,4326.3 L-12389.4,4323.9 L-12391.1,4321.6 L-12393.4,4318.3 L-12395.9,4315.2 L-12398.6,4312.6 L-12402.0,4309.8 L-12405.5,4307.6 L-12409.0,4305.7 L-12412.2,4304.5 L-12414.4,4303.8 L-12416.9,4303.5 L-12419.9,4303.6 L-12422.7,4304.2 L-12424.9,4305.1 L-12427.0,4306.6 L-12428.5,4308.2 L-12429.7,4309.7 L-12430.6,4312.0 L-12431.1,4314.5 L-12431.0,4317.5 L-12430.8,4321.0 L-12430.8,4323.6 L-12431.0,4326.2 L-12431.4,4328.8 L-12431.9,4331.1 L-12432.8,4333.5 L-12434.2,4336.1 L-12435.9,4338.6 L-12437.6,4340.9 L-12439.3,4342.5 L-12442.7,4345.2 L-12445.5,4347.1 L-12449.9,4348.4 L-12452.5,4349.0 L-12455.5,4349.4 L-12458.2,4349.5 L-12461.8,4349.3 L-12464.4,4348.8 L-12468.0,4348.0 L-12473.0,4346.5 L-12477.2,4344.9 L-12480.3,4343.7 L-12483.6,4341.9 L-12486.5,4339.9 L-12489.7,4337.4 L-12492.2,4335.1 L-12494.3,4333.0 L-12496.5,4330.4 L-12498.3,4328.0 L-12500.0,4325.6 L-12501.5,4322.9 L-12503.1,4319.3 L-12504.5,4316.0 L-12505.9,4312.4 L-12506.8,4309.6 L-12507.5,4307.0 L-12508.0,4304.3 L-12508.4,4300.1 L-12508.7,4296.4 L-12508.5,4292.4 L-12507.6,4287.1 L-12506.1,4281.9 L-12504.2,4276.5 L-12502.9,4274.0 L-12501.6,4272.5 L-12491.3,4259.4 L-12488.9,4256.7 L-12485.8,4255.2 L-12482.5,4254.0 L-12478.8,4253.2 L-12474.7,4252.7 L-12471.1,4252.5 L-12467.5,4252.6 L-12463.9,4253.0 L-12459.8,4254.2 L-12455.5,4256.3 L-12451.8,4258.6 L-12448.5,4261.2 L-12438.1,4270.8 L-12435.6,4271.6 L-12434.2,4271.9 L-12432.5,4271.5 L-12431.4,4271.1 L-12430.0,4269.5 L-12429.4,4267.9 L-12429.3,4265.7 L-12429.2,4263.7 L-12429.6,4262.8 L-12450.6,4242.0 L-12422.0,4211.5 L-12423.6,4207.9 L-12407.1,4191.6 L-12375.3,4223.4 L-12400.9,4256.0 L-12401.1,4257.9 L-12399.8,4258.7 L-12398.2,4258.3 L-12370.1,4223.1 L-12361.9,4213.2 L-12361.6,4210.9 L-12362.3,4208.9 L-12363.8,4207.1 L-12385.8,4186.3 L-12380.3,4179.9 L-12385.9,4175.2 L-12382.7,4167.8 L-12325.7,4110.5 L-12306.1,4107.2 L-12300.0,4106.3 L-12294.2,4105.5 L-12291.5,4104.8 L-12288.3,4103.1 L-12284.5,4101.0 L-12281.6,4098.1 L-12278.8,4094.6 L-12249.7,4052.3 L-12249.1,4051.2 L-12249.4,4049.8 L-12249.8,4048.8 L-12250.5,4047.9 L-12254.0,4045.7 L-12254.9,4045.2 L-12255.7,4045.3 L-12256.6,4045.8 L-12258.5,4047.2 L-12282.9,4070.0 L-12292.4,4076.8 L-12331.4,4036.8 L-12326.9,4022.6 L-12325.0,4018.4 L-12318.9,4007.2 L-12311.8,3994.7 L-12307.5,3989.9 L-12299.8,3981.7 L-12291.6,3972.7 L-12282.6,3963.2 L-12274.9,3956.6 L-12271.2,3953.3 L-12266.3,3949.7 L-12261.8,3947.3 L-12255.4,3944.4 L-12251.4,3943.0 L-12247.4,3941.8 L-12244.3,3941.5 L-12239.9,3941.8 L-12236.2,3942.3 L-12232.0,3943.5 L-12227.9,3946.9 L-12225.4,3950.4 L-12223.9,3954.0 L-12223.3,3959.4 L-12223.5,3966.5 L-12224.4,3974.5 L-12226.1,3982.2 L-12236.4,4005.2 L-12246.2,4025.9 L-12242.8,4031.4 L-12241.0,4032.5 L-12239.1,4032.5 L-12237.4,4032.1 L-12236.1,4031.3 L-12229.4,4021.8 L-12220.8,4017.5 L-12203.7,3971.8 L-12202.5,3969.5 L-12200.8,3967.5 L-12199.1,3966.6 L-12197.5,3966.2 L-12195.2,3966.2 L-12192.8,3966.8 L-12180.3,3970.3 L-12177.9,3970.8 L-12175.1,3970.9 L-12172.5,3970.5 L-12170.4,3969.6 L-12168.6,3968.2 L-12166.8,3965.9 L-12145.8,3937.8 L-12144.8,3935.7 L-12144.3,3933.5 L-12144.3,3931.4 L-12144.7,3929.2 L-12145.5,3927.6 L-12146.7,3926.0 L-12148.1,3924.7 L-12150.1,3923.7 L-12152.0,3923.2 L-12153.9,3923.1 L-12155.5,3923.4 L-12157.4,3924.3 L-12158.8,3925.3 L-12159.9,3926.7 L-12165.4,3935.6 L-12166.6,3937.3 L-12168.0,3938.9 L-12170.1,3940.7 L-12172.0,3941.8 L-12174.3,3942.5 L-12177.1,3943.1 L-12178.7,3943.1 L-12180.9,3942.8 L-12182.8,3942.3 L-12184.4,3941.6 L-12201.6,3926.0 L-12203.6,3923.6 L-12205.1,3921.4 L-12206.5,3918.7 L-12207.4,3916.4 L-12208.0,3914.0 L-12208.5,3911.4 L-12208.8,3908.2 L-12208.9,3905.0 L-12208.6,3902.3 L-12208.2,3900.0 L-12207.7,3898.0 L-12206.9,3896.3 L-12175.6,3846.6 L-12173.6,3843.3 L-12172.4,3841.6 L-12171.0,3840.8 L-12168.7,3839.8 L-12166.3,3839.1 L-12164.0,3838.7 L-12162.7,3838.7 L-12161.4,3838.9 L-12160.3,3839.3 L-12158.7,3840.1 L-12156.8,3841.3 L-12153.6,3843.9 L-12139.3,3857.3 L-12136.9,3860.7 L-12135.5,3864.0 L-12134.2,3867.9 L-12133.8,3870.9 L-12133.6,3874.1 L-12133.6,3876.8 L-12133.9,3879.5 L-12134.4,3882.2 L-12135.0,3884.0 L-12136.6,3887.7 L-12142.3,3898.3 L-12142.9,3900.7 L-12142.9,3903.6 L-12142.7,3905.8 L-12141.9,3907.5 L-12140.4,3909.1 L-12138.0,3910.8 L-12136.0,3911.9 L-12133.7,3912.4 L-12131.0,3912.3 L-12128.8,3911.8 L-12126.3,3910.5 L-12124.1,3908.5 L-12087.1,3857.7 L-12098.4,3847.5 L-12091.6,3840.2 L-12081.5,3849.9 L-12060.7,3822.6 L-12029.2,3780.5 L-12156.0,3659.0 L-12183.5,3687.9 L-12215.8,3657.4 L-12184.6,3623.8 L-12188.7,3619.3 L-12182.2,3613.3 L-12178.2,3617.4 L-12156.5,3593.8 L-12137.0,3611.9 L-12134.7,3626.9 L-12052.7,3703.4 L-12036.7,3709.6 L-12023.9,3705.1 L-11999.6,3714.8 L-11983.5,3708.9 L-11935.6,3650.4 L-11932.9,3644.9 L-11932.1,3637.5 L-11934.5,3630.2 L-11937.7,3625.0 L-11966.1,3598.8 L-11965.7,3591.6 L-11960.1,3577.5 L-11948.9,3556.6 L-11971.0,3542.3 L-11962.6,3539.1 L-11957.3,3535.7 L-11952.0,3529.7 L-11945.8,3513.8 L-11934.4,3484.8 L-11927.0,3478.0 L-11997.2,3410.0 L-12012.6,3419.6 L-12016.2,3420.5 L-12019.6,3420.6 L-12024.0,3420.1 L-12027.6,3419.1 L-12031.1,3417.0 L-12034.0,3414.5 L-12070.3,3379.5 L-12077.1,3372.7 L-12080.1,3369.1 L-12082.6,3364.6 L-12083.8,3360.5 L-12084.3,3356.5 L-12084.2,3352.7 L-12083.5,3349.1 L-12082.6,3346.2 L-12081.4,3344.1 L-12078.8,3340.4 L-12075.7,3336.7 L-12059.4,3319.8 L-11935.4,3434.7 L-11943.9,3444.3 L-11852.0,3531.2 L-11746.1,3376.1 L-11813.3,3313.3 L-11821.9,3321.0 L-11947.4,3202.5 L-11931.0,3187.2 L-11858.9,3254.8 L-11851.7,3244.2 L-11847.7,3238.9 L-11842.6,3233.7 L-11836.7,3227.2 L-11830.7,3223.3 L-11821.2,3215.3 L-11811.7,3206.5 L-11793.5,3189.3 L-11750.0,3140.4 L-11742.2,3132.3 L-11713.5,3117.6 L-11686.3,3096.3 L-11683.7,3094.3 L-11676.6,3088.8 L-11673.5,3086.0 L-11671.0,3082.8 L-11669.3,3079.5 L-11668.2,3076.2 L-11666.9,3073.7 L-11665.4,3071.0 L-11662.8,3066.7 L-11661.0,3064.0 L-11659.2,3061.5 L-11655.9,3058.9 L-11652.7,3056.7 L-11649.2,3054.6 L-11640.9,3050.6 L-11632.9,3046.6 L-11631.7,3046.4 L-11630.5,3046.6 L-11628.1,3047.3 L-11621.6,3050.6 L-11616.7,3053.0 L-11614.4,3054.4 L-11612.3,3056.1 L-11578.9,3087.8 L-11576.6,3089.1 L-11565.7,3092.0 L-11562.2,3093.0 L-11558.3,3093.4 L-11555.3,3093.3 L-11553.0,3092.5 L-11550.7,3090.9 L-11538.8,3074.1 L-11538.8,3071.8 L-11539.2,3069.7 L-11540.5,3067.4 L-11542.5,3065.2 L-11551.6,3056.7 L-11550.9,3055.3 L-11539.2,3030.5 L-11519.2,2990.2 L-11501.0,2976.8 L-11490.5,2966.3 L-11483.3,2958.0 L-11475.7,2950.3 L-11467.3,2943.4 L-11462.2,2938.7 L-11456.8,2933.8 L-11452.8,2929.8 L-11450.8,2926.2 L-11449.2,2923.4 L-11448.2,2920.7 L-11447.8,2917.5 L-11447.6,2914.3 L-11441.5,2908.1 L-11432.5,2899.6 L-11417.5,2887.3 L-11401.8,2875.4 L-11394.8,2865.6 L-11392.2,2855.5 L-11384.4,2850.7 L-11374.6,2850.5 L-11364.7,2844.6 L-11356.0,2828.9 L-11356.2,2812.6 L-11354.6,2787.4 L-11352.1,2783.8 L-11350.6,2781.4 L-11347.8,2776.8 L-11351.3,2766.1 L-11347.3,2761.1 L-11327.5,2736.6 L-11293.5,2696.9 L-11287.0,2687.5 L-11284.4,2682.6 L-11273.6,2667.7 L-11270.6,2658.3 L-11270.5,2643.8 L-11270.9,2629.3 L-11271.0,2614.5 L-11266.6,2598.2 L-11259.2,2582.1 L-11248.6,2566.6 L-11240.9,2555.1 L-11231.8,2543.6 L-11214.2,2524.0 L-11136.2,2485.4 L-11125.9,2482.7 L-11123.3,2488.3 L-11120.2,2493.7 L-11119.2,2494.7 L-11117.5,2494.0 L-11117.2,2490.2 L-11118.4,2487.0 L-11114.1,2485.7 L-11098.1,2481.0 L-11077.3,2474.8 L-11060.5,2469.8 L-11054.5,2468.0 L-11060.5,2449.1 L-11050.1,2446.3 L-11032.8,2443.9 L-11030.7,2443.6 L-11030.6,2442.4 L-11030.6,2438.0 L-11014.9,2437.3 L-10990.3,2436.3 L-10980.8,2440.9 L-10957.1,2526.3 L-10951.8,2531.4 L-10962.1,2542.0 L-10953.0,2551.0 L-10944.0,2560.0 L-10933.2,2549.0 L-10732.7,2739.6 L-10465.1,2454.0 L-10371.6,2543.4 L-10368.0,2542.3 L-10366.6,2543.9 L-10360.3,2539.9 L-10355.1,2538.0 L-10349.6,2535.5 L-10340.2,2530.6 L-10334.4,2527.3 L-10327.5,2523.3 L-10321.1,2519.3 L-10315.9,2515.9 L-10311.1,2512.8 L-10305.5,2508.7 L-10299.1,2504.0 L-10294.2,2499.9 L-10289.0,2495.3 L-10283.3,2489.9 L-10277.9,2484.5 L-10265.3,2471.1 L-10257.7,2462.0 L-10250.3,2452.1 L-10245.2,2444.9 L-10240.4,2437.5 L-10234.7,2427.2 L-10229.7,2417.1 L-10225.7,2408.8 L-10222.3,2400.5 L-10220.2,2395.0 L-10217.9,2388.8 L-10212.5,2382.1 L-10383.5,2219.4 L-10381.4,2217.1 L-10360.9,2195.1 L-10346.0,2179.3 L-10344.5,2177.7 L-10301.1,2218.3 L-10290.6,2212.9 L-10289.4,2214.4 L-10187.4,2161.3 L-10183.2,2159.1 L-10180.3,2156.8 L-10177.6,2154.3 L-10174.5,2151.1 L-10171.5,2146.6 L-10168.9,2142.4 L-10167.2,2139.2 L-10166.0,2135.1 L-10164.9,2130.6 L-10164.4,2125.7 L-10164.4,2120.2 L-10164.8,2115.8 L-10165.6,2111.9 L-10166.9,2107.2 L-10198.8,2015.4 L-10203.1,2000.3 L-10202.0,1995.1 L-10279.0,1976.0 L-10275.4,1962.7 L-10272.4,1950.7 L-10249.6,1860.5 L-10267.3,1807.9 L-10277.7,1773.9 L-10280.7,1765.4 L-10253.1,1740.1 L-10222.0,1723.4 L-10220.1,1726.0 L-10217.1,1730.3 L-10210.1,1739.4 L-10209.3,1738.6 L-10209.1,1735.5 L-10218.8,1722.1 L-10201.5,1709.7 L-10197.7,1707.5 L-10188.7,1719.2 L-10187.2,1720.3 L-10185.7,1720.6 L-10184.9,1720.4 L-10184.9,1719.6 L-10227.7,1661.0 L-10230.8,1657.6 L-10234.4,1652.7 L-10253.0,1630.2 L-10237.1,1580.9 L-10224.9,1568.2 L-10210.8,1561.6 L-10180.8,1543.8 L-10174.6,1537.4 L-10147.7,1513.8 L-10139.2,1522.7 L-10114.3,1549.6 L-10091.2,1530.2 L-10075.7,1545.1 L-10061.8,1558.7 L-10061.1,1559.4 L-10049.3,1549.3 L-10033.7,1565.9 L-10020.3,1583.1 L-10010.4,1594.6 L-10009.1,1596.1 L-9980.3,1570.8 L-9978.8,1569.5 L-9985.6,1561.2 L-9969.9,1548.3 L-9922.3,1603.8 L-9881.8,1577.1 L-9877.8,1573.3 L-9860.2,1565.9 L-9856.2,1562.0 L-9852.4,1557.0 L-9830.7,1537.7 L-9835.6,1531.0 L-9874.4,1539.9 L-9918.8,1489.4 L-9913.7,1485.0 L-9907.0,1492.8 L-9875.6,1465.8 L-9842.3,1502.2 L-9833.3,1505.8 L-9827.9,1508.9 L-9821.1,1516.6 L-9817.4,1513.3 L-9841.5,1485.9 L-9826.7,1473.1 L-9796.8,1509.0 L-9793.0,1506.2 L-9793.4,1505.4 L-9727.8,1458.0 L-9708.3,1443.6 L-9772.0,1364.0 L-9758.4,1354.5 L-9703.0,1419.4 L-9662.1,1426.9 L-9635.1,1411.1 L-9631.3,1408.7 L-9631.5,1405.7 L-9633.4,1402.2 L-9612.3,1388.9 L-9606.1,1395.1 L-9588.3,1384.6 L-9601.2,1368.6 L-9663.5,1285.3 L-9619.5,1239.7 L-9590.6,1197.0 L-9589.9,1163.6 L-9605.3,1119.2 L-9572.9,1092.2 L-9538.9,1079.1 L-9527.7,1076.5 L-9518.7,1075.3 L-9507.7,1076.0 L-9496.3,1078.8 L-9479.8,1092.9 L-9437.0,1145.1 L-9402.8,1188.5 L-9361.9,1215.8 L-9345.8,1218.4 L-9331.4,1220.1 L-9319.2,1220.6 L-9303.6,1219.5 L-9286.7,1216.7 L-9273.0,1212.8 L-9261.4,1207.4 L-9253.7,1202.9 L-9248.0,1196.9 L-9238.4,1185.3 L-9228.0,1166.3 L-9216.7,1141.1 L-9196.6,1151.4 L-9188.6,1154.1 L-9180.0,1155.3 L-9166.3,1154.4 L-9157.2,1151.7 L-9146.8,1147.2 L-9137.1,1141.6 L-9126.8,1131.6 L-9118.0,1123.6 L-9107.0,1116.1 L-9099.4,1111.2 L-9088.2,1107.2 L-9068.9,1101.6 L-9057.5,1098.4 L-9045.3,1093.8 L-9034.7,1088.3 L-9028.4,1084.7 L-9023.4,1079.5 L-8958.0,1046.7 L-8955.5,1045.3 L-8952.6,1043.5 L-8949.6,1041.2 L-8945.2,1038.7 L-8942.3,1037.3 L-8939.2,1034.6 L-8936.8,1032.1 L-8933.6,1030.0 L-8930.2,1027.6 L-8925.7,1023.4 L-8919.3,1022.9 L-8912.7,1022.1 L-8908.4,1020.7 L-8902.8,1018.1 L-8895.9,1015.0 L-8888.6,1010.5 L-8884.5,1006.6 L-8879.9,1001.3 L-8877.0,996.4 L-8875.4,991.9 L-8875.3,988.7 L-8875.2,986.1 L-8873.6,975.7 L-8837.2,954.6 L-8773.4,917.8 L-8761.0,910.7 L-8652.8,848.3 L-8535.6,781.0 L-8485.7,752.4 L-8468.4,742.7 L-8323.5,658.5 L-8291.3,640.8 L-8291.8,639.7 L-8225.5,602.2 L-8200.0,587.9 L-8153.0,561.9 L-8152.5,562.6 L-8134.3,552.6 L-8090.1,527.9 L-8084.8,523.1 L-8040.0,490.3 L-8017.7,471.8 L-7997.2,454.5 L-7987.8,449.2 L-7966.6,428.2 L-7964.8,429.3 L-7962.0,429.0 L-7960.6,429.9 L-7930.8,395.0 L-7938.3,388.0 L-7937.3,386.2 L-7934.1,381.6 L-7925.5,370.7 L-7920.3,362.8 L-7916.2,356.3 L-7910.5,347.6 L-7905.0,338.6 L-7898.8,328.3 L-7892.4,317.1 L-7878.5,288.4 L-7874.2,279.3 L-7870.7,272.0 L-7868.3,266.5 L-7866.2,262.3 L-7861.8,251.3 L-7977.6,35.3 L-7979.8,31.2 L-7981.5,28.9 L-7982.7,27.2 L-7984.3,25.8 L-7985.8,24.8 L-7987.8,23.6 L-7989.9,22.8 L-7991.7,22.4 L-7993.5,22.2 L-7996.2,22.2 L-7999.3,22.7 L-8002.0,23.5 L-8004.8,24.9 L-8031.7,40.4 L-8066.8,60.5 L-8091.3,74.1 L-8136.0,98.7 L-8163.4,113.6 L-8162.4,115.3 L-8174.1,122.0 L-8212.4,141.8 L-8240.8,158.6 L-8257.5,167.9 L-8282.9,182.5 L-8285.8,184.5 L-8308.1,144.4 L-8264.3,120.4 L-8204.5,87.9 L-8163.8,65.3 L-8158.8,62.4 L-8159.5,61.3 L-8124.3,42.1 L-8105.6,31.8 L-8062.7,10.9 L-8054.5,6.7 L-7989.8,-29.3 L-7965.5,-42.7 L-7948.4,-51.9 L-7928.2,-63.5 L-7900.2,-12.9 L-7944.2,11.2 L-7946.5,14.9 L-7947.4,18.8 L-7947.8,21.8 L-7947.9,24.4 L-7947.7,26.5 L-7946.9,29.4 L-7857.2,195.3 L-7855.5,197.8 L-7853.5,199.7 L-7851.5,201.0 L-7849.4,201.7 L-7847.1,202.0 L-7844.9,201.8 L-7843.2,201.3 L-7803.4,171.1 L-7784.7,155.4 L-7765.4,139.1 L-7758.1,132.4 L-7734.2,112.8 L-7733.1,112.8 L-7709.9,93.0 L-7709.8,91.8 L-7694.6,79.3 L-7682.6,69.5 L-7662.0,52.5 L-7660.1,54.8 L-7639.9,38.1 L-7629.7,29.6 L-7601.4,6.1 L-7581.7,-10.3 L-7583.6,-13.1 L-7577.1,-18.6 L-7566.4,-27.4 L-7559.8,-33.2 L-7531.9,-45.7 L-7513.0,-52.3 L-7503.3,-56.9 L-7476.1,-57.1 L-7466.6,-57.1 L-7446.5,-56.1 L-7423.0,-55.1 L-7421.3,-56.7 L-7419.0,-53.7 L-7411.6,-53.3 L-7344.3,-47.5 L-7336.4,-45.8 L-7329.5,-44.7 L-7313.9,-43.4 L-7284.8,-42.0 L-7278.4,-41.9 L-7272.4,-42.1 L-7249.1,-43.0 L-7237.1,-43.6 L-7225.2,-44.7 L-7206.9,-46.6 L-7207.0,-45.5 L-7192.5,-48.0 L-7178.8,-50.6 L-7168.3,-52.5 L-7154.5,-62.9 L-7152.9,-60.7 L-7151.2,-58.3 L-7029.6,102.5 L-6736.1,203.7 L-6197.5,-191.9 L-6050.7,-297.6 L-5994.0,-418.6 L-6084.2,-536.8 L-6080.2,-553.7 L-6064.4,-558.0 L-6034.0,-551.7 L-6012.4,-559.8 L-6006.4,-568.2 L-6007.7,-575.5 L-6023.8,-607.1 L-6024.9,-618.9 L-6025.8,-642.3 L-6028.6,-664.9 L-6025.8,-668.9 L-6016.7,-673.3 L-6005.6,-675.8 L-5997.6,-684.4 L-5995.8,-694.8 L-6002.6,-714.9 L-6003.3,-728.8 L-6001.1,-744.6 L-5990.1,-772.3 L-5992.4,-785.1 L-5997.9,-799.4 L-5998.1,-818.8 L-6001.3,-844.4 L-6007.1,-860.4 L-6010.7,-868.8 L-6008.3,-872.5 L-6006.0,-872.3 L-6005.4,-873.8 L-6005.1,-875.8 L-6005.2,-877.8 L-6008.7,-878.2 L-6010.9,-881.3 L-6010.5,-885.0 L-6013.5,-885.8 L-6017.2,-885.9 L-6017.7,-885.0 L-6025.3,-894.0 L-6026.9,-896.8 L-6028.2,-900.7 L-6029.1,-904.5 L-6029.8,-908.5 L-6030.1,-912.5 L-6030.3,-916.1 L-6030.3,-919.8 L-6030.0,-921.8 L-6028.4,-926.8 L-6026.6,-930.8 L-6024.3,-934.7 L-6020.9,-939.6 L-6017.4,-944.3 L-6014.1,-947.7 L-6010.0,-950.8 L-6009.2,-950.0 L-5974.1,-976.8 L-5969.0,-980.7 L-5970.0,-982.2 L-5970.0,-984.8 L-5961.3,-991.6 L-5959.1,-991.5 L-5957.0,-990.0 L-5953.3,-992.8 L-5917.3,-1020.1 L-5917.7,-1021.0 L-5913.5,-1024.1 L-5908.5,-1027.2 L-5905.0,-1028.8 L-5900.0,-1030.7 L-5895.7,-1031.9 L-5891.4,-1032.5 L-5886.7,-1032.9 L-5883.9,-1032.7 L-5880.0,-1032.1 L-5876.2,-1030.8 L-5873.4,-1029.4 L-5870.7,-1027.8 L-5868.7,-1026.3 L-5867.0,-1024.7 L-5864.5,-1022.3 L-5863.4,-1021.9 L-5861.6,-1021.9 L-5859.8,-1022.2 L-5854.3,-1026.1 L-5854.3,-1027.2 L-5853.7,-1028.0 L-5853.1,-1029.1 L-5853.2,-1030.4 L-5853.5,-1031.5 L-5854.3,-1032.5 L-5858.2,-1036.4 L-5861.3,-1038.9 L-5864.9,-1040.9 L-5870.8,-1043.5 L-5875.9,-1045.5 L-5867.0,-1050.1 L-5856.1,-1057.7 L-5842.6,-1059.4 L-5829.1,-1058.5 L-5820.3,-1062.0 L-5812.6,-1073.0 L-5783.6,-1124.9 L-5771.8,-1146.3 L-5762.5,-1169.1 L-5760.9,-1173.9 L-5747.1,-1216.2 L-5744.9,-1220.3 L-5742.3,-1224.4 L-5709.9,-1264.5 L-5703.0,-1271.7 L-5697.9,-1276.1 L-5625.3,-1338.3 L-5621.3,-1341.0 L-5608.9,-1347.8 L-5594.0,-1356.2 L-5547.6,-1380.5 L-5446.5,-1434.8 L-5444.1,-1432.9 L-5442.2,-1432.2 L-5440.5,-1431.7 L-5438.7,-1432.0 L-5436.8,-1432.4 L-5431.4,-1433.5 L-5425.1,-1434.9 L-5419.4,-1436.2 L-5413.5,-1437.3 L-5410.3,-1438.0 L-5405.9,-1439.3 L-5400.9,-1441.4 L-5388.8,-1448.0 L-5384.4,-1450.4 L-5382.1,-1451.8 L-5379.8,-1452.8 L-5370.4,-1456.8 L-5360.1,-1460.8 L-5347.1,-1466.4 L-5331.8,-1472.7 L-5331.2,-1473.0 L-5329.9,-1473.1 L-5328.2,-1473.6 L-5325.8,-1475.4 L-5323.1,-1476.4 L-5320.1,-1477.9 L-5314.5,-1481.1 L-5312.5,-1483.1 L-5309.2,-1485.2 L-5309.5,-1485.8 L-5308.1,-1487.5 L-5306.3,-1489.4 L-5303.3,-1490.9 L-5300.8,-1491.9 L-5298.1,-1492.9 L-5295.6,-1494.2 L-5290.7,-1497.3 L-5289.3,-1498.7 L-5287.9,-1500.9 L-5287.3,-1502.5 L-5287.1,-1504.1 L-5287.3,-1505.6 L-5287.0,-1507.1 L-5301.0,-1524.0 L-5256.9,-1549.9 L-5236.0,-1561.0 L-5231.9,-1562.3 L-5225.5,-1561.1 L-5218.4,-1551.2 L-5215.2,-1548.4 L-5212.3,-1547.0 L-5209.6,-1546.4 L-5207.1,-1546.5 L-5169.3,-1562.1 L-5159.0,-1567.1 L-5149.4,-1572.4 L-5133.9,-1580.6 L-5130.7,-1581.7 L-4915.9,-1671.0 L-4848.7,-1703.3 L-4548.2,-1847.6 L2464.9,-1905.6 L2464.9,8130.0 L-12522.8,8130.0 L-12522.8,7703.5 Z" fill="#add7e1" stroke="none"><title>Biscayne Bay</title></path><path d="M638.0,-4658.4 L2688.6,-4244.4 L4925.5,-3126.7 L6640.5,-1429.6 L7311.6,226.0 L6491.4,1591.8 L4962.8,2336.7 L3508.8,2295.4 L2315.8,1467.6 L1197.3,60.4 L-182.2,-1553.8 L-33.1,-3457.9 Z" fill="#f1efe7" stroke="#8ab09d" stroke-width="0.65"><title>Virginia Key</title></path><path d="M-331.3,-1636.6 L41.5,-1264.1 L451.6,-601.8 L973.6,143.2 L1197.3,598.5 L1010.9,805.4 L488.9,184.6 L-182.2,-726.0 L-517.7,-1346.8 Z" fill="#f1efe7" stroke="#8ab09d" stroke-width="0.65"><title>Virginia Key western beach</title></path><path d="M-1.0,-1.0 L257.0,-1.0 L257.0,257.0 L-1.0,257.0 L-1.0,-1.0 Z" fill="#add7e1" stroke="none" fill-rule="evenodd"><title>Biscayne Bay</title></path><path d="M377.1,-1802.1 L973.6,-1181.3 L1495.5,-187.9 L1942.9,846.8 L2464.9,1550.4 L2129.3,1964.3 L1271.8,1343.5 L563.5,267.4 L-107.6,-974.3 Z" fill="#add7e1" stroke="none"><title>Hobie Island western bay</title></path><path d="M-555.0,-1346.8 L787.2,-1595.2 L2278.5,-1491.7 L3807.1,-1947.0 L5559.3,-2650.7 L6454.1,-3064.6 L6827.0,-2236.8 L6193.2,-1015.7 L5037.4,-63.7 L3620.6,722.7 L2763.1,1509.0 L1197.3,1736.7 L227.9,1653.9 L-517.7,888.2 Z" fill="#f1efe7" stroke="#8ab09d" stroke-width="0.65"><title>Virginia Key north of Bear Cut</title></path></svg>