<svg xmlns="http://www.w3.org/2000/svg" width="256" height="256" viewBox="0 0 256 256"><rect width="256" height="256" fill="#f1efe7"/><path d="M-5130.7,5074.3 L-4915.9,4985.0 L-4848.7,4952.7 L-4548.2,4808.4 L-4491.8,4863.0 L-4486.9,4867.7 L-4381.5,4777.5 L-4356.4,4758.4 L-4314.5,4720.6 L-4078.4,4503.8 L-3887.9,4286.2 L-3880.6,4272.3 L-3873.6,4264.4 L-3862.5,4251.7 L-3851.2,4238.8 L-3846.6,4233.5 L-3921.7,4136.4 L-3822.3,4076.8 L-3768.4,4148.5 L-3692.2,4061.3 L-3756.7,3975.9 L-3676.8,3892.6 L-3615.3,3973.6 L-3544.7,3893.2 L-3514.6,3873.5 L-3367.4,3778.0 L-3294.7,3729.7 L-3207.1,3672.1 L-3165.7,3644.9 L-3060.8,3577.2 L-3087.8,3541.7 L-3136.1,3477.0 L-3011.2,3397.6 L-2965.7,3374.1 L-2962.2,3371.6 L-2938.2,3353.1 L-2852.6,3307.3 L-2846.7,3298.1 L-2822.7,3281.6 L-2809.7,3262.6 L-2806.0,3259.8 L-2785.1,3251.7 L-2737.9,3234.8 L-2705.6,3220.6 L-2591.5,3167.0 L-2590.1,3170.7 L-2494.4,3129.8 L-2455.3,3179.9 L-2368.2,3121.8 L-2355.8,3113.3 L-2354.6,3112.3 L-2353.4,3110.7 L-2351.5,3107.4 L-2350.5,3104.3 L-2349.9,3100.6 L-2350.0,3097.6 L-2350.4,3094.7 L-2350.8,3091.4 L-2350.9,3088.9 L-2350.7,3086.8 L-2350.3,3084.6 L-2348.7,3080.6 L-2347.6,3078.4 L-2345.1,3074.6 L-2342.5,3071.8 L-2329.8,3066.7 L-2319.2,3062.7 L-2305.7,3058.3 L-2299.4,3056.6 L-2288.2,3052.9 L-2280.3,3050.1 L-2269.4,3045.6 L-2254.6,3039.1 L-2238.6,3031.6 L-2230.0,3027.4 L-2219.2,3021.9 L-2209.1,3016.3 L-2199.0,3010.3 L-2188.7,3003.6 L-2185.5,3001.4 L-2164.8,2985.6 L-2147.4,2972.2 L-2130.4,2957.8 L-2114.5,2942.8 L-2103.0,2929.9 L-2091.6,2916.0 L-2077.6,2898.0 L-2064.8,2880.0 L-2050.1,2856.9 L-2040.5,2839.0 L-2034.5,2827.6 L-2025.6,2808.3 L-2018.1,2790.4 L-2011.4,2771.1 L-2006.0,2754.2 L-2000.1,2726.8 L-1995.8,2702.3 L-1993.5,2681.3 L-1991.5,2656.5 L-1991.3,2630.0 L-1992.9,2605.5 L-1997.1,2573.5 L-2001.5,2551.7 L-2006.5,2531.1 L-2013.9,2507.7 L-2020.2,2489.8 L-2027.4,2470.3 L-2034.2,2454.1 L-2038.8,2443.6 L-2040.7,2435.9 L-2041.0,2430.0 L-2040.4,2424.7 L-2038.3,2420.1 L-2035.1,2416.2 L-2030.9,2414.0 L-2026.4,2413.4 L-2014.3,2416.3 L-1980.6,2424.4 L-1969.4,2169.7 L-1925.7,1715.1 L-1973.2,1703.9 L-1978.4,1689.6 L-1978.2,1669.1 L-1971.6,1622.6 L-1962.6,1612.1 L-1954.6,1581.9 L-1904.1,1593.6 L-1876.3,1303.1 L-1868.6,1222.7 L-1884.3,1218.8 L-1874.8,1180.4 L-1907.1,1172.7 L-1903.0,1149.2 L-1897.3,1133.7 L-1890.2,1115.6 L-1878.2,1090.3 L-1865.3,1093.2 L-1847.9,910.5 L-1843.8,799.7 L-1843.0,779.3 L-1833.6,708.8 L-1814.9,533.1 L-1690.1,207.7 L-1661.6,119.0 L-1314.9,-14.0 L-1281.0,-27.6 L-1275.1,-30.8 L-1270.5,-35.0 L-1265.4,-40.9 L-1261.5,-47.8 L-1258.9,-54.6 L-1258.3,-64.5 L-1258.8,-76.8 L-1263.4,-232.3 L-1265.1,-262.4 L-1265.6,-283.1 L-1266.3,-323.3 L-1267.1,-335.9 L-1268.6,-346.5 L-1270.7,-355.9 L-1273.8,-365.5 L-1278.7,-376.8 L-1285.9,-388.9 L-1292.9,-398.5 L-1298.3,-407.6 L-1303.8,-419.7 L-1308.4,-431.3 L-1310.2,-440.8 L-1311.6,-451.3 L-1312.3,-461.8 L-1312.0,-472.0 L-1310.8,-483.9 L-1308.0,-495.6 L-1304.3,-506.0 L-1300.4,-515.5 L-1295.4,-524.7 L-1289.3,-535.9 L-1285.3,-546.0 L-1281.8,-558.9 L-1275.4,-568.7 L-1277.6,-657.9 L-1280.9,-663.1 L-1281.9,-723.7 L-1283.6,-795.2 L-1282.4,-805.1 L-1279.2,-815.2 L-1271.2,-831.0 L-1217.7,-946.1 L-1216.6,-948.0 L-1207.2,-968.5 L-1198.3,-987.9 L-1188.3,-1007.9 L-1178.5,-1028.5 L-1173.7,-1038.5 L-1121.1,-1146.4 L-1064.9,-1265.6 L-943.3,-1512.4 L-1016.4,-1594.3 L-1076.0,-1467.3 L-1127.5,-1357.4 L-1135.3,-1341.8 L-1151.2,-1309.3 L-1183.0,-1312.0 L-1191.7,-1312.5 L-1194.8,-1309.7 L-1190.6,-1305.9 L-1206.9,-1291.4 L-1219.8,-1279.5 L-1222.2,-1228.6 L-1227.0,-1218.4 L-1242.6,-1219.0 L-1245.2,-1219.9 L-1449.6,-1304.3 L-1454.0,-1306.6 L-1458.7,-1309.6 L-1466.1,-1315.2 L-1471.8,-1320.6 L-1476.6,-1325.8 L-1481.3,-1332.2 L-1484.9,-1337.8 L-1487.7,-1343.6 L-1489.9,-1349.7 L-1491.4,-1353.9 L-1492.5,-1359.0 L-1493.3,-1365.0 L-1494.1,-1373.2 L-1494.1,-1384.9 L-1495.5,-1424.6 L-1489.9,-1424.9 L-1490.7,-1445.9 L-1491.6,-1480.5 L-1486.4,-1480.6 L-1486.8,-1504.2 L-1492.7,-1504.1 L-1495.4,-1603.5 L-1489.8,-1603.8 L-1490.7,-1627.1 L-1496.1,-1626.9 L-1498.4,-1700.4 L-1471.4,-1729.5 L-1436.9,-1730.7 L-1411.2,-1731.6 L-1377.3,-1732.7 L-1344.7,-1733.7 L-1315.5,-1734.7 L-1302.8,-1735.3 L-1303.4,-1746.6 L-1303.6,-1758.4 L-1305.5,-1796.7 L-1306.2,-1869.8 L-1307.2,-1871.1 L-1307.4,-1878.3 L-1305.3,-1878.4 L-1310.4,-2054.5 L-1314.8,-2220.2 L-1315.5,-2225.4 L-1315.9,-2235.0 L-1388.1,-2232.4 L-1436.1,-2236.5 L-1795.4,-2224.0 L-1795.5,-2227.2 L-1796.2,-2242.5 L-1966.6,-2236.5 L-1966.9,-2264.8 L-1989.4,-2269.9 L-1993.4,-2391.0 L-1330.6,-2414.0 L-1319.6,-2429.1 L-1320.0,-2472.1 L-1320.8,-2509.3 L-1321.4,-2532.6 L-1322.3,-2555.3 L-1375.0,-2580.1 L-1377.1,-2635.2 L-1323.1,-2662.0 L-1328.0,-2789.5 L-1329.4,-2795.8 L-1383.1,-2820.9 L-1384.8,-2889.1 L-1333.8,-2915.4 L-1356.5,-3192.3 L-1350.5,-3315.5 L-1347.5,-3516.4 L-1347.7,-3734.9 L-1342.9,-3765.5 L-1342.6,-3780.3 L-1347.4,-3798.1 L-1342.4,-3798.1 L-1342.4,-3814.2 L-1339.4,-4225.2 L-1339.9,-4243.5 L-1345.6,-4243.5 L-1345.4,-4319.1 L-1348.7,-4323.8 L-1353.9,-4401.8 L-1343.6,-4473.1 L-1344.9,-4559.4 L-1348.4,-4580.1 L-1343.1,-4644.0 L-1346.7,-4721.3 L-1355.7,-4804.0 L-1372.8,-4938.0 L-1364.7,-4974.9 L-1368.3,-5010.8 L-1398.9,-5036.9 L-1443.8,-5036.5 L-1512.2,-5027.5 L-1556.7,-5027.5 L-1597.1,-5042.3 L-1650.2,-5078.7 L-1650.2,-5144.0 L-1651.6,-5224.3 L-1646.4,-5291.2 L-1628.8,-5343.4 L-1334.1,-5348.9 L-1327.3,-5766.8 L-1327.3,-6368.4 L-1330.4,-6586.7 L14581.8,-13158.4 L14581.8,23059.8 L-5130.7,23059.8 L-5130.7,5074.3 Z" fill="#add7e1" stroke="none"><title>Biscayne Bay</title></path><path d="M-510.1,-1637.3 L-557.4,-1661.0 L-561.1,-1659.3 L-616.0,-1530.2 L-621.6,-1512.7 L-631.7,-1493.3 L-638.8,-1476.1 L-673.4,-1396.8 L-676.2,-1390.0 L-677.3,-1385.1 L-677.8,-1380.0 L-677.4,-1375.3 L-673.7,-1366.7 L-669.1,-1359.2 L-666.1,-1354.6 L-662.0,-1348.9 L-651.5,-1335.6 L-618.0,-1291.7 L-579.2,-1240.1 L-565.8,-1225.6 L-544.3,-1199.6 L-524.1,-1173.0 L-503.4,-1147.5 L-492.1,-1130.0 L-480.8,-1113.8 L-478.8,-1111.4 L-475.9,-1110.1 L-473.1,-1110.7 L-472.0,-1111.3 L-473.9,-1092.9 L-366.4,-957.7 L-356.6,-964.3 L-353.3,-964.2 L-348.3,-963.8 L-341.8,-962.2 L-334.9,-959.0 L-329.0,-956.4 L-325.5,-954.7 L-321.1,-951.8 L-317.4,-948.2 L-309.5,-939.7 L-297.8,-926.9 L-286.9,-914.1 L-278.0,-902.2 L-263.5,-876.2 L-254.1,-858.1 L-243.2,-833.9 L-231.7,-811.2 L-212.4,-772.6 L-207.3,-766.2 L-200.2,-758.9 L-192.7,-751.9 L-141.0,-712.0 L-135.1,-706.7 L-130.9,-702.4 L-126.9,-696.0 L-114.6,-661.6 L-112.6,-654.7 L249.3,-481.7 L268.2,-472.7 L458.7,-381.7 L650.0,-290.2 L700.8,-310.1 L716.2,-258.3 L1294.2,17.4 L1276.0,56.8 L1337.2,86.5 L1356.6,46.8 L1922.0,316.3 L2336.3,517.1 L2321.8,547.8 L2383.3,577.4 L2397.6,546.0 L2660.5,671.1 L2622.8,746.8 L3211.1,1033.7 L4082.4,1059.8 L4693.2,1077.9 L4838.8,1082.9 L5401.2,1098.7 L5447.2,1099.9 L5447.3,1097.3 L5780.2,1107.3 L5852.3,1109.5 L5922.5,1111.7 L5922.3,1114.9 L6005.7,1116.3 L6025.5,1117.8 L6025.8,1112.3 L6106.3,1035.7 L6113.5,1036.0 L6128.6,1052.8 L6134.7,1048.4 L6138.6,1049.7 L6143.8,1049.6 L6151.6,1047.7 L6160.3,1045.0 L6166.7,1041.2 L6172.7,1035.6 L6186.9,1004.1 L6190.9,993.5 L6192.3,983.9 L6192.6,974.6 L6188.8,955.6 L6186.9,949.5 L6183.7,943.5 L6178.3,934.9 L6171.2,925.4 L6165.2,919.1 L6153.0,908.8 L6138.9,898.2 L6116.1,882.1 L6091.8,869.3 L6078.9,862.5 L6061.9,855.9 L6036.9,845.6 L5924.6,785.6 L5815.5,718.3 L5774.0,688.0 L5728.0,658.8 L5589.1,581.8 L5440.6,512.5 L5433.5,527.6 L5405.0,513.9 L5377.6,572.3 L5069.4,431.1 L4982.7,390.3 L4879.3,343.4 L4584.4,207.6 L4317.9,85.1 L4211.0,35.7 L4157.9,12.3 L4103.4,-12.0 L3880.5,-119.0 L3515.0,-293.5 L3359.2,-368.4 L3315.2,-277.5 L2829.7,-509.4 L2585.2,-626.3 L2347.4,-740.3 L1958.5,-925.8 L1568.5,-1112.4 L1064.1,-1353.0 L649.3,-1550.7 L571.6,-1590.9 L342.0,-1697.8 L107.5,-1810.2 L-363.4,-2035.4 L-386.5,-1972.1 L-505.2,-1657.4 L-502.8,-1653.3 L-510.1,-1637.3 Z" fill="#f1efe7" stroke="#8ab09d" stroke-width="0.65"></path><path d="M-1.0,-1.0 L257.0,-1.0 L257.0,257.0 L-1.0,257.0 L-1.0,-1.0 Z" fill="#add7e1" stroke="none" fill-rule="evenodd"><title>Biscayne Bay</title></path><path d="M-1034.7,-925.1 L1522.0,347.2" fill="none" stroke="#6fb5c7" stroke-width="1.7" stroke-dasharray="5 7" opacity="0.34" stroke-linecap="round" stroke-linejoin="round"><title>Dodge Island Cut</title></path><path d="M-68.9,-2182.4 L6520.2,785.3" fill="none" stroke="#6fb5c7" stroke-width="1.7" stroke-dasharray="5 7" opacity="0.34" stroke-linecap="round" stroke-linejoin="round"><title>Main Channel</title></path><path d="M925.7,148.9 L-163.6,-343.7" fill="none" stroke="#ecfbff" stroke-width="4.3" stroke-dasharray="6 8" opacity="0.90" stroke-linecap="round" stroke-linejoin="round"/><path d="M925.7,148.9 L-163.6,-343.7" fill="none" stroke="#388fb3" stroke-width="2.2" stroke-dasharray="5 8" opacity="0.86" stroke-linecap="round" stroke-linejoin="round"><title>Water Taxi Miami - Yellow</title></path></svg>