<svg xmlns="http://www.w3.org/2000/svg" width="256" height="256" viewBox="0 0 256 256"><rect width="256" height="256" fill="#f1efe7"/><path d="M78.2,-0.5 L76.2,-0.0 L74.7,0.9 L73.9,2.1 L73.4,3.9 L76.1,76.2 L76.8,78.6 L78.3,80.5 L80.6,81.8 L83.8,82.4 L241.3,78.6 L244.4,77.6 L246.5,76.0 L247.9,74.0 L248.4,71.3 L245.6,0.5 L244.7,-1.3 L242.7,-3.1 L240.1,-3.8 L237.3,-3.9 L78.2,-0.5 Z" fill="#ece7dc" stroke="#d7d1c5" stroke-width="0.3"></path><path d="M-110.1,25.7 L-112.6,26.6 L-114.2,28.3 L-115.3,30.9 L-115.3,34.4 L-113.6,81.0 L-112.7,83.5 L-111.3,85.3 L-109.2,86.6 L-106.6,87.1 L-102.9,87.2 L57.9,83.2 L59.5,82.1 L60.3,80.4 L58.1,26.0 L57.2,23.8 L55.6,22.6 L53.7,21.7 L51.2,21.4 L-110.1,25.7 Z" fill="#ece7dc" stroke="#d7d1c5" stroke-width="0.3"></path><path d="M-113.0,-50.5 L-115.0,-49.9 L-116.6,-48.7 L-117.5,-47.2 L-117.9,-45.1 L-115.9,6.8 L-115.2,8.5 L-113.7,9.6 L-111.6,10.1 L51.9,6.7 L54.1,5.8 L55.6,4.3 L56.6,2.5 L57.0,0.2 L55.2,-53.2 L53.0,-55.1 L-113.0,-50.5 Z" fill="#ece7dc" stroke="#d7d1c5" stroke-width="0.3"></path><path d="M144.0,224.4 L135.0,224.7 L134.7,214.5 L146.4,214.1 L146.6,218.4 L143.8,218.5 L144.0,224.4 Z" fill="#d6d2c9" stroke="#bab6ad" stroke-width="0.4"></path><path d="M216.9,157.9 L217.1,163.4 L226.0,163.1 L226.3,174.6 L218.2,174.9 L218.0,168.8 L209.9,169.0 L210.0,171.4 L201.4,171.7 L201.5,174.7 L192.5,174.9 L192.2,164.2 L199.9,164.0 L199.8,161.1 L208.1,160.8 L208.0,158.1 L216.9,157.9 Z" fill="#d6d2c9" stroke="#bab6ad" stroke-width="0.4"></path><path d="M202.2,99.8 L202.2,110.0 L204.4,110.0 L204.4,122.5 L199.2,122.5 L199.2,117.7 L191.1,117.7 L191.1,99.8 L202.2,99.8 Z" fill="#d6d2c9" stroke="#bab6ad" stroke-width="0.4"></path><path d="M243.9,63.9 L231.3,64.0 L231.2,53.0 L243.9,52.9 L243.9,63.9 Z" fill="#d6d2c9" stroke="#bab6ad" stroke-width="0.4"></path><path d="M143.0,210.0 L134.0,210.6 L133.3,200.0 L142.2,199.4 L143.0,210.0 Z" fill="#d6d2c9" stroke="#bab6ad" stroke-width="0.4"></path><path d="M96.8,213.9 L96.9,217.5 L107.5,217.1 L107.6,221.9 L106.9,221.9 L107.0,225.5 L79.5,226.4 L79.1,214.5 L96.8,213.9 Z" fill="#d6d2c9" stroke="#bab6ad" stroke-width="0.4"></path><path d="M244.4,75.1 L230.7,75.6 L230.4,67.1 L244.1,66.5 L244.4,75.1 Z" fill="#d6d2c9" stroke="#bab6ad" stroke-width="0.4"></path><path d="M151.0,120.1 L138.6,120.1 L138.6,102.6 L146.3,102.6 L146.3,97.2 L151.0,97.2 L151.0,120.1 Z" fill="#d6d2c9" stroke="#bab6ad" stroke-width="0.4"></path><path d="M240.0,145.8 L193.5,147.9 L193.0,138.3 L239.6,136.2 L240.0,145.8 Z" fill="#d6d2c9" stroke="#bab6ad" stroke-width="0.4"></path><path d="M144.6,191.0 L144.8,195.7 L134.9,195.9 L134.8,191.6 L133.2,191.6 L133.0,184.5 L150.5,184.0 L150.9,190.6 L144.6,191.0 Z" fill="#d6d2c9" stroke="#bab6ad" stroke-width="0.4"></path><path d="M229.7,193.5 L229.8,205.0 L222.0,205.0 L222.1,208.3 L212.7,208.4 L212.8,211.2 L204.1,211.2 L204.0,205.3 L195.8,205.4 L195.7,194.6 L204.6,194.5 L204.6,199.6 L212.6,199.5 L212.6,196.8 L221.1,196.7 L221.0,193.6 L229.7,193.5 Z" fill="#d6d2c9" stroke="#bab6ad" stroke-width="0.4"></path><path d="M55.5,155.1 L55.6,157.9 L65.6,157.7 L65.8,168.1 L53.1,168.4 L53.1,166.3 L44.4,166.5 L44.3,162.2 L42.5,162.2 L42.4,155.4 L55.5,155.1 Z" fill="#d6d2c9" stroke="#bab6ad" stroke-width="0.4"></path><path d="M187.6,172.9 L187.8,180.6 L190.8,180.5 L191.0,189.6 L186.3,189.8 L186.5,197.9 L175.4,198.2 L175.2,189.2 L179.7,189.1 L179.5,181.9 L176.4,182.0 L176.2,173.1 L187.6,172.9 Z" fill="#d6d2c9" stroke="#bab6ad" stroke-width="0.4"></path><path d="M242.7,172.3 L242.7,180.2 L247.5,180.2 L247.5,188.7 L245.4,188.7 L245.4,197.3 L236.1,197.3 L236.1,195.9 L234.3,195.9 L234.3,189.3 L236.4,189.3 L236.4,180.7 L231.1,180.7 L231.0,172.3 L242.7,172.3 Z" fill="#d6d2c9" stroke="#bab6ad" stroke-width="0.4"></path><path d="M242.3,35.6 L230.1,35.9 L229.9,25.0 L242.1,24.8 L242.3,35.6 Z" fill="#d6d2c9" stroke="#bab6ad" stroke-width="0.4"></path><path d="M224.1,39.6 L225.0,77.4 L217.1,77.6 L216.3,44.2 L207.4,44.5 L208.3,79.3 L200.3,79.5 L199.3,40.1 L224.1,39.6 Z" fill="#d6d2c9" stroke="#bab6ad" stroke-width="0.4"></path><path d="M149.3,171.1 L149.2,176.5 L156.7,176.5 L156.4,182.1 L132.5,181.9 L132.6,171.0 L149.3,171.1 Z" fill="#d6d2c9" stroke="#bab6ad" stroke-width="0.4"></path><path d="M156.9,252.8 L135.7,254.2 L135.1,245.4 L145.9,244.7 L145.6,241.3 L156.2,240.7 L156.9,252.8 Z" fill="#d6d2c9" stroke="#bab6ad" stroke-width="0.4"></path><path d="M145.6,238.9 L134.7,239.1 L134.6,227.8 L148.5,227.7 L148.5,231.5 L145.5,231.6 L145.6,238.9 Z" fill="#d6d2c9" stroke="#bab6ad" stroke-width="0.4"></path><path d="M244.3,97.6 L244.6,128.9 L234.3,129.0 L234.1,106.1 L232.4,106.1 L232.4,109.2 L225.7,109.3 L225.7,106.8 L223.4,106.9 L223.4,113.8 L214.6,113.9 L214.6,109.3 L213.1,109.3 L213.1,104.0 L217.9,104.0 L217.9,97.8 L244.3,97.6 Z" fill="#d6d2c9" stroke="#bab6ad" stroke-width="0.4"></path><path d="M247.3,256.1 L195.7,258.9 L194.1,227.4 L245.6,224.7 L247.3,256.1 Z" fill="#d6d2c9" stroke="#bab6ad" stroke-width="0.4"></path><path d="M243.8,50.1 L231.2,50.4 L230.9,38.8 L243.5,38.4 L243.8,50.1 Z" fill="#d6d2c9" stroke="#bab6ad" stroke-width="0.4"></path><path d="M48.2,136.9 L48.3,138.5 L49.3,138.4 L49.3,139.0 L57.6,138.8 L58.0,150.4 L47.9,150.8 L47.9,149.3 L43.8,149.5 L43.5,140.7 L41.6,140.7 L41.5,137.1 L48.2,136.9 Z" fill="#d6d2c9" stroke="#bab6ad" stroke-width="0.4"></path><path d="M19.2,0.8 L14.8,1.0 L14.3,-12.6 L20.2,-12.9 L26.0,-13.1 L26.5,-0.9 L23.6,-0.8 L23.6,0.6 L19.2,0.8 Z" fill="#d6d2c9" stroke="#bab6ad" stroke-width="0.4"></path><path d="M42.5,50.4 L35.3,50.7 L35.0,45.1 L42.2,44.7 L42.5,50.4 Z" fill="#d6d2c9" stroke="#bab6ad" stroke-width="0.4"></path><path d="M161.7,51.3 L157.6,51.4 L157.4,45.2 L158.4,45.2 L158.3,41.0 L161.4,41.0 L161.7,51.3 Z" fill="#d6d2c9" stroke="#bab6ad" stroke-width="0.4"></path><path d="M139.9,44.8 L135.2,45.1 L135.0,41.6 L139.7,41.3 L139.9,44.8 Z" fill="#d6d2c9" stroke="#bab6ad" stroke-width="0.4"></path><path d="M167.3,32.5 L167.7,36.8 L163.9,37.1 L163.7,34.7 L162.5,34.8 L162.4,32.9 L167.3,32.5 Z" fill="#d6d2c9" stroke="#bab6ad" stroke-width="0.4"></path><path d="M83.7,212.1 L80.2,212.3 L79.9,207.7 L83.4,207.4 L83.7,212.1 Z" fill="#d6d2c9" stroke="#bab6ad" stroke-width="0.4"></path><path d="M169.0,230.7 L162.0,230.9 L161.9,226.1 L168.9,225.9 L169.0,230.7 Z" fill="#d6d2c9" stroke="#bab6ad" stroke-width="0.4"></path><path d="M121.9,5.1 L122.1,9.4 L127.6,9.2 L128.0,18.8 L118.3,19.1 L118.1,11.8 L115.7,11.8 L115.5,5.3 L121.9,5.1 Z" fill="#d6d2c9" stroke="#bab6ad" stroke-width="0.4"></path><path d="M54.8,222.4 L54.8,223.0 L64.1,222.7 L64.3,227.9 L64.5,233.0 L45.7,233.7 L45.6,230.0 L44.7,230.0 L44.4,222.8 L54.8,222.4 Z" fill="#d6d2c9" stroke="#bab6ad" stroke-width="0.4"></path><path d="M219.2,3.3 L219.2,5.4 L222.9,5.3 L223.0,10.3 L223.1,15.2 L216.2,15.4 L216.3,18.5 L214.5,18.5 L212.7,18.6 L212.3,3.5 L215.7,3.4 L219.2,3.3 Z" fill="#d6d2c9" stroke="#bab6ad" stroke-width="0.4"></path><path d="M13.5,102.3 L13.8,108.6 L15.7,108.5 L16.0,114.3 L13.3,114.4 L13.5,117.6 L-5.6,118.4 L-5.9,109.9 L-0.3,109.7 L-0.6,102.9 L13.5,102.3 Z" fill="#d6d2c9" stroke="#bab6ad" stroke-width="0.4"></path><path d="M94.1,185.3 L94.2,189.0 L103.8,188.6 L104.1,197.3 L85.9,198.0 L86.0,198.6 L80.6,198.8 L80.3,185.8 L94.1,185.3 Z" fill="#d6d2c9" stroke="#bab6ad" stroke-width="0.4"></path><path d="M24.1,42.0 L16.4,42.2 L16.0,28.8 L27.7,28.4 L27.9,37.5 L23.9,37.6 L24.1,42.0 Z" fill="#d6d2c9" stroke="#bab6ad" stroke-width="0.4"></path><path d="M54.7,68.5 L54.9,77.1 L50.8,77.2 L50.9,77.9 L41.7,78.1 L41.8,79.9 L39.6,80.0 L37.3,80.0 L37.1,72.0 L36.2,72.1 L36.1,69.0 L54.7,68.5 Z" fill="#d6d2c9" stroke="#bab6ad" stroke-width="0.4"></path><path d="M104.6,211.4 L90.1,212.0 L89.9,206.8 L91.2,206.7 L91.0,199.3 L96.6,198.7 L97.3,202.4 L98.7,202.4 L98.6,199.6 L104.1,199.3 L104.6,211.4 Z" fill="#d6d2c9" stroke="#bab6ad" stroke-width="0.4"></path><path d="M58.0,170.5 L58.1,174.0 L61.3,173.9 L61.6,184.7 L44.1,185.3 L43.7,174.8 L43.0,174.9 L42.9,171.0 L58.0,170.5 Z" fill="#d6d2c9" stroke="#bab6ad" stroke-width="0.4"></path><path d="M38.1,28.5 L38.2,30.1 L41.8,29.9 L42.8,43.0 L37.7,43.3 L37.6,41.1 L33.2,41.3 L32.9,35.7 L30.6,35.8 L30.5,32.3 L30.3,28.9 L38.1,28.5 Z" fill="#d6d2c9" stroke="#bab6ad" stroke-width="0.4"></path><path d="M9.2,-1.0 L9.3,1.2 L3.5,1.5 L3.5,0.4 L1.0,0.5 L0.8,-2.3 L0.7,-5.1 L3.3,-5.3 L3.2,-8.4 L4.3,-8.5 L4.0,-13.9 L12.1,-14.3 L12.4,-1.1 L9.2,-1.0 Z" fill="#d6d2c9" stroke="#bab6ad" stroke-width="0.4"></path><path d="M238.5,2.3 L239.2,19.4 L231.8,19.7 L231.7,17.3 L227.7,17.5 L227.1,3.3 L230.9,3.1 L230.9,3.7 L234.3,3.6 L234.3,2.5 L238.5,2.3 Z" fill="#d6d2c9" stroke="#bab6ad" stroke-width="0.4"></path><path d="M116.0,52.0 L116.9,76.7 L111.2,76.9 L111.2,75.6 L107.0,75.7 L106.7,68.2 L104.5,68.3 L104.2,61.2 L106.5,61.1 L106.1,52.3 L116.0,52.0 Z" fill="#d6d2c9" stroke="#bab6ad" stroke-width="0.4"></path><path d="M129.8,73.0 L118.5,73.4 L117.9,54.9 L121.3,54.8 L121.3,54.3 L123.3,54.2 L123.1,50.0 L129.4,49.8 L129.8,73.0 Z" fill="#d6d2c9" stroke="#bab6ad" stroke-width="0.4"></path><path d="M191.8,3.7 L191.9,5.4 L195.5,5.3 L195.8,14.8 L192.4,14.9 L192.5,17.1 L189.7,17.2 L186.9,17.3 L186.7,9.2 L184.1,9.3 L184.0,6.6 L183.9,4.0 L191.8,3.7 Z" fill="#d6d2c9" stroke="#bab6ad" stroke-width="0.4"></path><path d="M205.3,3.4 L205.4,5.2 L209.6,5.0 L209.8,8.8 L209.9,12.6 L205.7,12.8 L205.8,15.1 L203.9,15.2 L202.0,15.2 L201.9,12.8 L198.6,13.0 L198.2,3.7 L205.3,3.4 Z" fill="#d6d2c9" stroke="#bab6ad" stroke-width="0.4"></path><path d="M181.0,71.8 L173.5,71.9 L173.5,66.7 L176.3,66.6 L176.2,56.4 L184.3,56.3 L184.4,69.2 L180.9,69.2 L181.0,71.8 Z" fill="#d6d2c9" stroke="#bab6ad" stroke-width="0.4"></path><path d="M87.1,32.1 L87.1,34.7 L89.1,34.7 L89.2,44.5 L85.8,44.5 L82.4,44.6 L82.3,40.6 L80.6,40.7 L80.5,32.1 L83.8,32.1 L87.1,32.1 Z" fill="#d6d2c9" stroke="#bab6ad" stroke-width="0.4"></path><path d="M12.2,59.7 L12.6,68.2 L15.0,68.1 L15.2,75.5 L8.7,75.8 L8.7,76.9 L4.0,77.1 L3.7,70.1 L5.5,70.0 L5.1,60.0 L12.2,59.7 Z" fill="#d6d2c9" stroke="#bab6ad" stroke-width="0.4"></path><path d="M87.3,3.5 L87.3,4.3 L93.8,4.2 L93.8,5.1 L96.8,5.1 L96.8,9.6 L93.8,9.6 L93.9,11.9 L82.7,12.1 L82.7,9.3 L79.7,9.3 L79.7,7.6 L79.7,5.8 L85.1,5.7 L85.0,3.5 L87.3,3.5 Z" fill="#d6d2c9" stroke="#bab6ad" stroke-width="0.4"></path><path d="M142.3,157.8 L142.4,159.5 L144.1,159.4 L144.1,158.6 L151.1,158.4 L151.2,160.8 L151.3,163.2 L149.8,163.2 L150.0,167.3 L135.3,167.4 L132.2,167.9 L132.1,165.4 L132.1,163.0 L134.0,162.9 L134.0,161.4 L134.9,161.4 L134.8,158.0 L142.3,157.8 Z" fill="#d6d2c9" stroke="#bab6ad" stroke-width="0.4"></path><path d="M182.2,101.5 L182.1,112.7 L178.7,112.7 L175.3,112.7 L175.4,110.7 L172.9,110.7 L173.0,101.4 L177.6,101.4 L182.2,101.5 Z" fill="#d6d2c9" stroke="#bab6ad" stroke-width="0.4"></path><path d="M100.9,170.8 L101.0,174.5 L103.4,174.4 L103.6,179.1 L101.9,179.2 L102.1,182.6 L92.5,182.9 L92.4,179.7 L87.9,179.7 L88.3,174.4 L93.4,174.1 L95.5,174.0 L95.4,171.0 L98.1,170.9 L100.9,170.8 Z" fill="#d6d2c9" stroke="#bab6ad" stroke-width="0.4"></path><path d="M51.2,54.2 L51.3,57.2 L54.1,57.1 L54.2,61.5 L54.3,66.0 L38.1,66.4 L37.9,62.1 L37.4,62.1 L37.3,58.3 L37.1,54.6 L51.2,54.2 Z" fill="#d6d2c9" stroke="#bab6ad" stroke-width="0.4"></path><path d="M141.0,142.0 L141.8,142.8 L146.5,142.6 L147.2,150.8 L134.3,151.3 L134.3,150.3 L132.5,150.4 L132.3,144.3 L134.0,144.2 L134.0,143.1 L137.7,142.9 L138.4,142.1 L141.0,142.0 Z" fill="#d6d2c9" stroke="#bab6ad" stroke-width="0.4"></path><path d="M60.3,200.4 L43.6,201.2 L43.0,189.2 L59.7,188.4 L63.3,188.6 L63.6,194.6 L60.0,194.8 L60.3,200.4 Z" fill="#d6d2c9" stroke="#bab6ad" stroke-width="0.4"></path><path d="M104.1,239.2 L86.5,240.0 L86.2,234.4 L86.0,228.8 L103.6,228.0 L103.8,233.6 L104.1,239.2 Z" fill="#d6d2c9" stroke="#bab6ad" stroke-width="0.4"></path><path d="M11.6,122.4 L11.6,122.9 L13.0,122.9 L13.3,130.2 L12.7,130.3 L12.9,134.6 L-5.3,135.3 L-5.7,123.1 L11.6,122.4 Z" fill="#d6d2c9" stroke="#bab6ad" stroke-width="0.4"></path><path d="M168.3,204.6 L159.8,204.9 L159.7,201.2 L159.6,197.6 L168.1,197.4 L168.2,201.0 L168.3,204.6 Z" fill="#d6d2c9" stroke="#bab6ad" stroke-width="0.4"></path><path d="M100.9,71.5 L101.0,73.8 L96.9,74.0 L96.8,71.5 L94.2,71.6 L93.9,62.6 L101.9,62.3 L102.2,71.4 L100.9,71.5 Z" fill="#d6d2c9" stroke="#bab6ad" stroke-width="0.4"></path><path d="M91.3,62.9 L91.6,73.3 L88.8,73.3 L88.9,76.9 L86.6,77.0 L84.3,77.0 L84.2,73.7 L82.5,73.7 L82.4,70.5 L81.3,70.5 L81.2,66.8 L81.1,63.2 L91.3,62.9 Z" fill="#d6d2c9" stroke="#bab6ad" stroke-width="0.4"></path><path d="M175.5,134.1 L169.0,134.4 L168.8,130.6 L168.7,126.8 L175.2,126.5 L175.3,130.3 L175.5,134.1 Z" fill="#d6d2c9" stroke="#bab6ad" stroke-width="0.4"></path><path d="M165.6,134.3 L159.7,134.5 L159.4,126.9 L165.3,126.7 L165.6,134.3 Z" fill="#d6d2c9" stroke="#bab6ad" stroke-width="0.4"></path><path d="M161.5,140.5 L161.7,145.2 L163.0,145.2 L163.2,148.7 L163.3,152.2 L151.4,152.7 L151.4,150.6 L151.3,148.5 L152.6,148.4 L152.2,140.9 L161.5,140.5 Z" fill="#d6d2c9" stroke="#bab6ad" stroke-width="0.4"></path><path d="M165.4,155.7 L165.7,166.9 L158.3,167.0 L158.3,163.9 L155.1,164.0 L155.0,158.8 L157.8,158.8 L157.7,155.9 L165.4,155.7 Z" fill="#d6d2c9" stroke="#bab6ad" stroke-width="0.4"></path><path d="M53.3,1.8 L43.3,2.2 L42.8,-10.9 L44.1,-11.0 L43.8,-17.4 L52.5,-17.7 L53.3,1.8 Z" fill="#d6d2c9" stroke="#bab6ad" stroke-width="0.4"></path><path d="M156.4,56.6 L157.0,72.9 L155.5,72.9 L154.0,73.0 L154.0,72.5 L146.0,72.8 L145.8,67.0 L148.6,66.9 L148.2,56.9 L152.3,56.7 L156.4,56.6 Z" fill="#d6d2c9" stroke="#bab6ad" stroke-width="0.4"></path><path d="M55.9,119.3 L55.9,120.0 L62.1,119.8 L62.6,132.7 L42.2,133.5 L41.8,123.4 L40.6,123.5 L40.5,119.9 L55.9,119.3 Z" fill="#d6d2c9" stroke="#bab6ad" stroke-width="0.4"></path><path d="M144.0,74.3 L132.1,74.3 L131.5,57.3 L136.6,57.1 L136.3,47.1 L143.0,46.8 L144.0,74.3 Z" fill="#d6d2c9" stroke="#bab6ad" stroke-width="0.4"></path><path d="M181.5,3.8 L181.9,19.1 L178.0,19.3 L174.0,19.4 L174.0,18.9 L171.4,19.0 L170.9,4.1 L181.5,3.8 Z" fill="#d6d2c9" stroke="#bab6ad" stroke-width="0.4"></path><path d="M5.3,158.5 L5.3,159.5 L12.9,159.2 L13.2,168.5 L16.1,168.4 L16.3,173.5 L6.9,173.8 L6.8,171.4 L4.0,171.5 L3.8,165.8 L-1.6,166.1 L-1.9,158.8 L5.3,158.5 Z" fill="#d6d2c9" stroke="#bab6ad" stroke-width="0.4"></path><path d="M93.2,156.7 L93.3,157.5 L104.5,157.2 L104.7,166.5 L96.9,166.7 L96.9,167.7 L84.3,168.1 L84.0,156.9 L93.2,156.7 Z" fill="#d6d2c9" stroke="#bab6ad" stroke-width="0.4"></path><path d="M14.7,241.6 L14.8,243.3 L17.4,243.2 L17.5,245.6 L17.6,248.1 L15.2,248.2 L15.3,252.0 L2.9,252.5 L2.5,242.8 L-0.5,242.9 L-0.5,240.6 L-0.6,238.3 L4.7,238.1 L4.9,242.8 L6.6,242.8 L6.5,241.2 L8.8,241.1 L8.7,238.4 L15.9,238.1 L16.0,241.6 L14.7,241.6 Z" fill="#d6d2c9" stroke="#bab6ad" stroke-width="0.4"></path><path d="M141.1,4.4 L142.3,38.0 L135.5,38.2 L135.3,30.7 L130.4,30.8 L130.1,22.0 L132.5,21.9 L131.9,4.7 L141.1,4.4 Z" fill="#d6d2c9" stroke="#bab6ad" stroke-width="0.4"></path><path d="M88.4,103.5 L88.5,105.4 L91.9,105.3 L92.4,117.0 L87.0,117.3 L87.2,121.8 L82.0,122.0 L81.7,115.4 L82.3,115.3 L81.8,103.8 L85.1,103.7 L88.4,103.5 Z" fill="#d6d2c9" stroke="#bab6ad" stroke-width="0.4"></path><path d="M6.9,28.7 L6.9,30.3 L13.3,30.1 L13.6,37.7 L14.1,37.7 L14.2,43.3 L12.1,43.4 L12.1,45.1 L9.2,45.2 L9.1,42.1 L2.3,42.3 L1.9,28.9 L4.4,28.8 L6.9,28.7 Z" fill="#d6d2c9" stroke="#bab6ad" stroke-width="0.4"></path><path d="M73.4,103.9 L73.4,105.1 L79.1,104.8 L79.6,116.2 L76.1,116.3 L76.2,120.0 L68.2,120.3 L68.1,117.4 L68.0,114.5 L69.8,114.4 L69.4,104.1 L71.4,104.0 L73.4,103.9 Z" fill="#d6d2c9" stroke="#bab6ad" stroke-width="0.4"></path><path d="M90.5,47.2 L90.5,49.7 L94.1,49.6 L94.1,53.0 L94.2,56.3 L83.3,56.4 L83.3,52.8 L82.0,52.8 L82.0,50.1 L82.0,47.3 L90.5,47.2 Z" fill="#d6d2c9" stroke="#bab6ad" stroke-width="0.4"></path><path d="M159.3,101.9 L159.4,102.8 L162.8,102.6 L163.3,117.4 L155.8,117.7 L155.7,117.1 L152.6,117.2 L152.2,103.8 L151.7,103.8 L151.6,102.1 L159.3,101.9 Z" fill="#d6d2c9" stroke="#bab6ad" stroke-width="0.4"></path><path d="M49.6,42.5 L45.7,42.7 L45.0,27.8 L53.7,27.5 L53.8,30.5 L54.0,33.6 L53.1,33.7 L53.5,42.3 L49.6,42.5 Z" fill="#d6d2c9" stroke="#bab6ad" stroke-width="0.4"></path><path d="M167.8,3.9 L168.4,25.8 L160.5,26.0 L160.4,21.6 L159.8,21.6 L159.7,19.2 L157.5,19.3 L157.2,4.5 L167.8,3.9 Z" fill="#d6d2c9" stroke="#bab6ad" stroke-width="0.4"></path><path d="M111.1,16.0 L111.3,20.9 L106.7,21.0 L106.6,16.1 L104.4,16.2 L104.1,5.0 L108.4,4.9 L108.3,3.4 L113.8,3.3 L114.2,15.9 L111.1,16.0 Z" fill="#d6d2c9" stroke="#bab6ad" stroke-width="0.4"></path><path d="M98.2,105.2 L98.3,107.8 L104.2,107.5 L104.2,109.3 L104.3,111.1 L100.5,111.2 L100.7,116.6 L106.1,116.4 L106.3,120.1 L106.4,123.8 L95.4,124.3 L95.1,116.9 L95.7,116.9 L95.2,105.3 L96.7,105.3 L98.2,105.2 Z" fill="#d6d2c9" stroke="#bab6ad" stroke-width="0.4"></path><path d="M130.6,102.6 L130.6,103.5 L135.6,103.5 L135.6,106.1 L135.6,108.8 L132.4,108.8 L132.5,115.1 L134.0,115.1 L134.0,117.1 L134.0,119.2 L126.4,119.2 L126.3,102.6 L128.4,102.6 L130.6,102.6 Z" fill="#d6d2c9" stroke="#bab6ad" stroke-width="0.4"></path><path d="M22.9,58.4 L22.9,59.9 L27.6,59.8 L28.1,78.7 L18.3,78.9 L17.7,58.6 L22.9,58.4 Z" fill="#d6d2c9" stroke="#bab6ad" stroke-width="0.4"></path><path d="M93.0,18.1 L93.1,20.7 L96.5,20.6 L96.6,23.4 L96.7,26.1 L92.7,26.2 L92.8,29.2 L80.2,29.5 L80.2,28.7 L79.3,28.8 L79.1,24.0 L80.1,24.0 L79.9,18.5 L93.0,18.1 Z" fill="#d6d2c9" stroke="#bab6ad" stroke-width="0.4"></path><path d="M139.3,126.8 L139.5,130.2 L147.3,129.9 L147.6,137.8 L135.5,138.3 L135.4,134.9 L134.2,135.0 L134.1,131.4 L131.9,131.4 L131.7,127.2 L139.3,126.8 Z" fill="#d6d2c9" stroke="#bab6ad" stroke-width="0.4"></path><path d="M90.1,128.4 L90.2,129.9 L102.5,129.5 L102.6,132.3 L101.4,132.3 L101.6,139.1 L86.5,139.7 L86.5,138.0 L81.5,138.2 L81.2,128.7 L90.1,128.4 Z" fill="#d6d2c9" stroke="#bab6ad" stroke-width="0.4"></path><path d="M93.7,141.5 L93.9,144.9 L101.5,144.6 L101.7,150.0 L99.3,150.1 L99.4,153.1 L85.2,153.8 L84.8,145.1 L89.6,144.8 L89.5,141.7 L93.7,141.5 Z" fill="#d6d2c9" stroke="#bab6ad" stroke-width="0.4"></path><path d="M55.0,210.7 L55.3,217.0 L44.9,217.5 L44.8,213.1 L44.1,213.1 L43.8,205.9 L57.7,205.3 L57.9,210.6 L55.0,210.7 Z" fill="#d6d2c9" stroke="#bab6ad" stroke-width="0.4"></path><path d="M108.1,243.4 L108.2,244.5 L109.4,244.5 L109.9,253.8 L94.1,254.6 L93.5,244.1 L108.1,243.4 Z" fill="#d6d2c9" stroke="#bab6ad" stroke-width="0.4"></path><path d="M56.0,252.2 L45.7,252.6 L45.2,243.2 L46.1,243.2 L45.9,238.4 L63.6,237.6 L63.9,244.1 L55.7,244.5 L56.0,252.2 Z" fill="#d6d2c9" stroke="#bab6ad" stroke-width="0.4"></path><path d="M97.7,44.5 L90.0,44.6 L89.9,38.4 L89.9,32.2 L97.6,32.2 L97.7,44.5 Z" fill="#d6d2c9" stroke="#bab6ad" stroke-width="0.4"></path><path d="M12.8,198.7 L13.3,213.5 L2.6,213.8 L2.3,206.2 L-1.1,206.4 L-1.3,199.2 L12.8,198.7 Z" fill="#d6d2c9" stroke="#bab6ad" stroke-width="0.4"></path><path d="M16.0,226.3 L16.1,230.4 L6.9,230.6 L6.9,229.8 L2.8,229.9 L2.6,219.6 L16.7,219.3 L16.9,226.3 L16.0,226.3 Z" fill="#d6d2c9" stroke="#bab6ad" stroke-width="0.4"></path><path d="M13.6,141.0 L13.9,148.1 L13.2,148.1 L13.4,152.0 L3.8,152.4 L3.7,151.7 L-0.0,151.9 L-0.5,141.2 L3.7,141.4 L13.6,141.0 Z" fill="#d6d2c9" stroke="#bab6ad" stroke-width="0.4"></path><path d="M49.3,101.8 L49.3,102.8 L51.7,102.7 L51.8,105.3 L51.9,107.9 L49.4,108.0 L49.6,114.2 L40.6,114.6 L40.1,102.1 L49.3,101.8 Z" fill="#d6d2c9" stroke="#bab6ad" stroke-width="0.4"></path><path d="M170.9,72.1 L161.0,72.4 L160.5,56.0 L170.4,55.7 L170.7,63.9 L170.9,72.1 Z" fill="#d6d2c9" stroke="#bab6ad" stroke-width="0.4"></path><path d="M77.2,148.9 L69.0,149.4 L68.7,143.7 L76.9,143.2 L77.2,148.9 Z" fill="#d6d2c9" stroke="#bab6ad" stroke-width="0.4"></path><path d="M150.4,4.7 L150.4,6.7 L154.2,6.6 L154.4,16.6 L147.8,16.7 L147.8,19.2 L145.9,19.2 L144.0,19.2 L143.6,4.9 L147.0,4.8 L150.4,4.7 Z" fill="#d6d2c9" stroke="#bab6ad" stroke-width="0.4"></path><path d="M1.2,79.3 L-10.3,79.5 L-10.7,65.5 L-8.5,65.4 L-8.6,60.9 L0.7,60.6 L1.2,79.3 Z" fill="#d6d2c9" stroke="#bab6ad" stroke-width="0.4"></path><path d="M36.2,-13.5 L36.3,-9.4 L41.0,-9.5 L41.2,-1.7 L36.6,-1.6 L36.6,0.1 L29.0,-0.1 L28.8,-9.3 L30.2,-9.3 L30.1,-13.3 L36.2,-13.5 Z" fill="#d6d2c9" stroke="#bab6ad" stroke-width="0.4"></path><path d="M248.9,76.6 L258.6,74.9 L267.4,73.5" fill="none" stroke="#cf828d" stroke-width="1.3" stroke-dasharray="1.6 3.0" opacity="0.62" stroke-linecap="round" stroke-linejoin="round"></path><path d="M248.9,76.6 L249.2,85.5 L249.5,94.6" fill="none" stroke="#cf828d" stroke-width="1.3" stroke-dasharray="1.6 3.0" opacity="0.62" stroke-linecap="round" stroke-linejoin="round"></path><path d="M247.9,75.9 L248.9,76.6" fill="none" stroke="#cf828d" stroke-width="1.3" stroke-dasharray="1.6 3.0" opacity="0.62" stroke-linecap="round" stroke-linejoin="round"></path><path d="M70.9,-2.5 L74.1,0.1" fill="none" stroke="#cf828d" stroke-width="1.3" stroke-dasharray="1.6 3.0" opacity="0.62" stroke-linecap="round" stroke-linejoin="round"></path><path d="M77.1,80.8 L73.9,83.6" fill="none" stroke="#cf828d" stroke-width="1.3" stroke-dasharray="1.6 3.0" opacity="0.62" stroke-linecap="round" stroke-linejoin="round"></path><path d="M78.6,-1.4 L76.1,-1.0 L74.1,0.1 L73.0,1.8 L72.6,4.1 L75.3,75.8 L75.6,78.2 L77.1,80.8 L78.9,82.3 L81.9,83.2 L240.7,79.9 L243.3,79.4 L245.1,78.6 L246.6,77.6 L247.9,75.9 L249.0,73.9 L249.4,71.6 L246.9,1.5 L246.2,-0.9 L245.0,-2.7 L243.2,-3.9 L241.0,-4.6 L238.0,-4.9 L78.6,-1.4" fill="none" stroke="#cf828d" stroke-width="1.3" stroke-dasharray="1.6 3.0" opacity="0.62" stroke-linecap="round" stroke-linejoin="round"></path><path d="M73.9,83.6 L67.2,83.3 L60.7,83.1" fill="none" stroke="#cf828d" stroke-width="1.3" stroke-dasharray="1.6 3.0" opacity="0.62" stroke-linecap="round" stroke-linejoin="round"></path><path d="M60.1,82.5 L60.7,83.1" fill="none" stroke="#cf828d" stroke-width="1.3" stroke-dasharray="1.6 3.0" opacity="0.62" stroke-linecap="round" stroke-linejoin="round"></path><path d="M59.9,19.9 L57.0,22.4" fill="none" stroke="#cf828d" stroke-width="1.3" stroke-dasharray="1.6 3.0" opacity="0.62" stroke-linecap="round" stroke-linejoin="round"></path><path d="M56.4,5.3 L59.7,8.1" fill="none" stroke="#cf828d" stroke-width="1.3" stroke-dasharray="1.6 3.0" opacity="0.62" stroke-linecap="round" stroke-linejoin="round"></path><path d="M60.9,80.6 L60.1,82.5 L58.4,83.7 L-102.4,88.0" fill="none" stroke="#cf828d" stroke-width="1.3" stroke-dasharray="1.6 3.0" opacity="0.62" stroke-linecap="round" stroke-linejoin="round"></path><path d="M-110.2,24.6 L50.8,20.7 L52.9,20.8 L55.1,21.3 L57.0,22.4 L58.1,23.8 L58.8,25.7 L60.9,80.6" fill="none" stroke="#cf828d" stroke-width="1.3" stroke-dasharray="1.6 3.0" opacity="0.62" stroke-linecap="round" stroke-linejoin="round"></path><path d="M59.7,8.1 L59.8,14.2 L59.9,19.9" fill="none" stroke="#cf828d" stroke-width="1.3" stroke-dasharray="1.6 3.0" opacity="0.62" stroke-linecap="round" stroke-linejoin="round"></path><path d="M-112.1,11.2 L51.6,7.6 L53.4,7.3 L55.3,6.4 L56.4,5.3 L57.2,4.1 L57.7,2.2 L57.9,0.5 L55.9,-52.7" fill="none" stroke="#cf828d" stroke-width="1.3" stroke-dasharray="1.6 3.0" opacity="0.62" stroke-linecap="round" stroke-linejoin="round"></path><path d="M69.2,275.4 L49.1,275.8 L46.0,275.8 L43.7,275.4 L41.5,274.3 L40.7,273.4 L40.0,272.3 L38.7,269.2 L38.4,265.8 L32.4,104.7 L32.8,102.8 L33.4,101.5 L34.5,99.9 L35.9,98.6 L37.5,97.9 L39.3,97.5 L103.1,96.0 L104.8,96.1 L106.1,96.6 L107.2,97.4 L108.0,98.7 L108.5,100.5 L108.7,102.7 L115.2,265.8 L115.2,267.6 L115.0,269.2 L114.1,270.6 L112.7,271.7 L110.6,272.6 L108.8,273.0" fill="none" stroke="#cf828d" stroke-width="1.3" stroke-dasharray="1.6 3.0" opacity="0.62" stroke-linecap="round" stroke-linejoin="round"></path><path d="M19.7,97.7 L25.8,97.5 L31.5,97.3" fill="none" stroke="#cf828d" stroke-width="1.3" stroke-dasharray="1.6 3.0" opacity="0.62" stroke-linecap="round" stroke-linejoin="round"></path><path d="M110.0,95.0 L114.9,94.6 L120.1,94.2" fill="none" stroke="#cf828d" stroke-width="1.3" stroke-dasharray="1.6 3.0" opacity="0.62" stroke-linecap="round" stroke-linejoin="round"></path><path d="M17.6,100.1 L19.0,101.6 L19.5,103.9 L22.2,169.1 L22.3,172.5 L22.1,174.5 L21.4,176.1 L20.3,177.5 L20.0,177.7 L18.8,178.8 L17.1,179.6 L15.0,180.1 L-31.4,181.3 L-33.6,181.2 L-35.3,180.8 L-36.6,180.1 L-37.7,179.2 L-39.0,177.7 L-39.7,176.3 L-40.0,174.6 L-40.2,172.7 L-41.4,134.9 L-42.2,107.8 L-41.9,105.5 L-40.9,102.9 L-39.9,100.9 L-38.8,99.9 L-37.7,99.2 L-36.2,98.9 L13.2,98.1 L14.7,98.5 L16.3,99.1 L17.6,100.1" fill="none" stroke="#cf828d" stroke-width="1.3" stroke-dasharray="1.6 3.0" opacity="0.62" stroke-linecap="round" stroke-linejoin="round"></path><path d="M128.0,271.2 L121.6,100.6 L121.8,98.9 L122.6,97.5 L123.4,96.7 L124.0,96.0 L125.0,95.4 L126.2,95.2 L204.7,93.4 L209.4,93.3 L239.9,92.4 L243.9,92.4 L245.9,93.0 L247.3,94.0 L248.6,95.7 L249.5,97.6 L252.1,135.3 L252.5,141.1 L253.1,157.3 L255.0,207.9 L256.8,254.7 L257.2,266.9 L258.5,300.7 L258.2,302.7 L256.9,304.5" fill="none" stroke="#cf828d" stroke-width="1.3" stroke-dasharray="1.6 3.0" opacity="0.62" stroke-linecap="round" stroke-linejoin="round"></path><path d="M84.5,305.8 L84.2,303.2 L83.6,281.8" fill="none" stroke="#cf828d" stroke-width="1.3" stroke-dasharray="1.6 3.0" opacity="0.62" stroke-linecap="round" stroke-linejoin="round"></path><path d="M269.3,93.9 L259.4,94.2 L249.5,94.6" fill="none" stroke="#cf828d" stroke-width="1.3" stroke-dasharray="1.6 3.0" opacity="0.62" stroke-linecap="round" stroke-linejoin="round"></path><path d="M248.6,95.7 L249.5,94.6" fill="none" stroke="#cf828d" stroke-width="1.3" stroke-dasharray="1.6 3.0" opacity="0.62" stroke-linecap="round" stroke-linejoin="round"></path><path d="M17.6,100.1 L19.7,97.7" fill="none" stroke="#cf828d" stroke-width="1.3" stroke-dasharray="1.6 3.0" opacity="0.62" stroke-linecap="round" stroke-linejoin="round"></path><path d="M31.5,97.3 L34.5,99.9" fill="none" stroke="#cf828d" stroke-width="1.3" stroke-dasharray="1.6 3.0" opacity="0.62" stroke-linecap="round" stroke-linejoin="round"></path><path d="M107.2,97.4 L110.0,95.0" fill="none" stroke="#cf828d" stroke-width="1.3" stroke-dasharray="1.6 3.0" opacity="0.62" stroke-linecap="round" stroke-linejoin="round"></path><path d="M120.1,94.2 L123.4,96.7" fill="none" stroke="#cf828d" stroke-width="1.3" stroke-dasharray="1.6 3.0" opacity="0.62" stroke-linecap="round" stroke-linejoin="round"></path><path d="M20.0,177.7 L22.6,180.3" fill="none" stroke="#cf828d" stroke-width="1.3" stroke-dasharray="1.6 3.0" opacity="0.62" stroke-linecap="round" stroke-linejoin="round"></path><path d="M22.6,180.3 L22.7,186.1 L22.8,190.5" fill="none" stroke="#cf828d" stroke-width="1.3" stroke-dasharray="1.6 3.0" opacity="0.62" stroke-linecap="round" stroke-linejoin="round"></path><path d="M-38.6,211.5 L-39.0,202.0 L-38.8,200.3 L-38.2,198.1 L-37.2,196.4 L-35.9,195.2 L-34.2,194.4 L-32.3,194.2 L15.3,192.9 L17.7,193.0 L19.6,193.5 L21.4,194.5 L22.6,195.6 L23.0,196.9 L23.5,204.7 L26.1,270.2 L25.8,271.9 L24.8,273.5 L23.4,274.6 L21.9,275.7 L20.5,276.3 L18.4,276.7 L-28.9,278.0 L-30.4,277.9 L-31.8,277.4 L-33.1,276.6 L-34.4,275.7 L-34.7,275.3 L-35.5,274.1 L-36.2,272.6 L-36.5,271.0 L-38.6,211.5" fill="none" stroke="#cf828d" stroke-width="1.3" stroke-dasharray="1.6 3.0" opacity="0.62" stroke-linecap="round" stroke-linejoin="round"></path><path d="M22.8,190.5 L21.4,194.5" fill="none" stroke="#cf828d" stroke-width="1.3" stroke-dasharray="1.6 3.0" opacity="0.62" stroke-linecap="round" stroke-linejoin="round"></path><path d="M261.7,266.8 L257.2,266.9 L247.4,267.1 L187.2,267.4 L184.6,232.2" fill="none" stroke="#cec8bb" stroke-width="3.2" stroke-linecap="round" stroke-linejoin="round"/><path d="M261.7,266.8 L257.2,266.9 L247.4,267.1 L187.2,267.4 L184.6,232.2" fill="none" stroke="#ffffff" stroke-width="2.2" stroke-linecap="round" stroke-linejoin="round"></path><path d="M263.9,207.8 L255.0,207.9 L247.7,208.0 L235.1,209.4 L218.6,215.0 L206.9,215.4 L194.5,212.2 L187.8,210.5 L161.6,207.6" fill="none" stroke="#cec8bb" stroke-width="3.2" stroke-linecap="round" stroke-linejoin="round"/><path d="M263.9,207.8 L255.0,207.9 L247.7,208.0 L235.1,209.4 L218.6,215.0 L206.9,215.4 L194.5,212.2 L187.8,210.5 L161.6,207.6" fill="none" stroke="#ffffff" stroke-width="2.2" stroke-linecap="round" stroke-linejoin="round"></path><path d="M262.2,157.1 L253.1,157.3 L248.3,157.5 L224.4,157.6 L216.3,153.2 L205.8,153.1 L199.6,154.5 L196.4,156.2 L190.9,159.2 L172.6,160.0" fill="none" stroke="#cec8bb" stroke-width="3.2" stroke-linecap="round" stroke-linejoin="round"/><path d="M262.2,157.1 L253.1,157.3 L248.3,157.5 L224.4,157.6 L216.3,153.2 L205.8,153.1 L199.6,154.5 L196.4,156.2 L190.9,159.2 L172.6,160.0" fill="none" stroke="#ffffff" stroke-width="2.2" stroke-linecap="round" stroke-linejoin="round"></path><path d="M209.2,86.7 L209.4,93.3 L210.2,124.4 L212.5,126.1 L230.8,124.7" fill="none" stroke="#cec8bb" stroke-width="3.2" stroke-linecap="round" stroke-linejoin="round"/><path d="M209.2,86.7 L209.4,93.3 L210.2,124.4 L212.5,126.1 L230.8,124.7" fill="none" stroke="#ffffff" stroke-width="2.2" stroke-linecap="round" stroke-linejoin="round"></path><path d="M204.5,86.9 L204.7,93.4 L206.0,124.6 L205.2,125.9 L203.1,126.3 L190.7,126.8" fill="none" stroke="#cec8bb" stroke-width="3.2" stroke-linecap="round" stroke-linejoin="round"/><path d="M204.5,86.9 L204.7,93.4 L206.0,124.6 L205.2,125.9 L203.1,126.3 L190.7,126.8" fill="none" stroke="#ffffff" stroke-width="2.2" stroke-linecap="round" stroke-linejoin="round"></path><path d="M261.1,135.0 L252.1,135.3 L174.0,137.4" fill="none" stroke="#cec8bb" stroke-width="3.2" stroke-linecap="round" stroke-linejoin="round"/><path d="M261.1,135.0 L252.1,135.3 L174.0,137.4" fill="none" stroke="#ffffff" stroke-width="2.2" stroke-linecap="round" stroke-linejoin="round"></path><path d="M259.1,84.3 L249.2,85.5 L245.3,86.1 L209.2,86.7 L204.5,86.9 L114.7,89.2 L67.4,89.9 L25.4,91.1 L-49.5,93.0" fill="none" stroke="#cec8bb" stroke-width="4.3" stroke-linecap="round" stroke-linejoin="round"/><path d="M259.1,84.3 L249.2,85.5 L245.3,86.1 L209.2,86.7 L204.5,86.9 L114.7,89.2 L67.4,89.9 L25.4,91.1 L-49.5,93.0" fill="none" stroke="#ffffff" stroke-width="3.2" stroke-linecap="round" stroke-linejoin="round"><title>Southwest 19th Street</title></path><path d="M29.0,185.9 L22.7,186.1 L20.8,186.2 L-37.4,188.2 L-39.1,188.3 L-46.1,188.5 L-54.3,188.7" fill="none" stroke="#cec8bb" stroke-width="4.3" stroke-linecap="round" stroke-linejoin="round"/><path d="M29.0,185.9 L22.7,186.1 L20.8,186.2 L-37.4,188.2 L-39.1,188.3 L-46.1,188.5 L-54.3,188.7" fill="none" stroke="#ffffff" stroke-width="3.2" stroke-linecap="round" stroke-linejoin="round"><title>Southwest 19th Terrace</title></path><path d="M114.7,89.2 L114.9,94.6 L115.1,97.7 L121.4,265.2 L121.4,268.5 L120.8,272.6" fill="none" stroke="#cec8bb" stroke-width="4.3" stroke-linecap="round" stroke-linejoin="round"/><path d="M114.7,89.2 L114.9,94.6 L115.1,97.7 L121.4,265.2 L121.4,268.5 L120.8,272.6" fill="none" stroke="#ffffff" stroke-width="3.2" stroke-linecap="round" stroke-linejoin="round"><title>Southwest 17th Court</title></path><path d="M65.1,14.2 L59.8,14.2 L56.7,14.3 L-114.1,18.2" fill="none" stroke="#cec8bb" stroke-width="4.3" stroke-linecap="round" stroke-linejoin="round"/><path d="M65.1,14.2 L59.8,14.2 L56.7,14.3 L-114.1,18.2" fill="none" stroke="#ffffff" stroke-width="3.2" stroke-linecap="round" stroke-linejoin="round"><title>Southwest 18th Street</title></path><path d="M25.4,91.1 L25.8,97.5 L25.9,100.3 L29.0,185.9 L32.6,270.6 L32.8,275.4 L33.0,279.7" fill="none" stroke="#cec8bb" stroke-width="4.3" stroke-linecap="round" stroke-linejoin="round"/><path d="M25.4,91.1 L25.8,97.5 L25.9,100.3 L29.0,185.9 L32.6,270.6 L32.8,275.4 L33.0,279.7" fill="none" stroke="#ffffff" stroke-width="3.2" stroke-linecap="round" stroke-linejoin="round"><title>Southwest 18th Avenue</title></path><path d="M67.4,89.9 L67.2,83.3 L67.0,77.6 L65.1,14.2 L64.2,-7.2 L61.9,-62.3" fill="none" stroke="#cec8bb" stroke-width="4.3" stroke-linecap="round" stroke-linejoin="round"/><path d="M67.4,89.9 L67.2,83.3 L67.0,77.6 L65.1,14.2 L64.2,-7.2 L61.9,-62.3" fill="none" stroke="#ffffff" stroke-width="3.2" stroke-linecap="round" stroke-linejoin="round"><title>Southwest 18th Avenue</title></path><path d="M255.2,-11.3 L256.5,21.7" fill="none" stroke="#d1c4aa" stroke-width="5.8" stroke-linecap="round" stroke-linejoin="round"/><path d="M255.2,-11.3 L256.5,21.7" fill="none" stroke="#f1c77d" stroke-width="4.4" stroke-linecap="round" stroke-linejoin="round"><title>Southwest 17th Avenue</title></path><text x="159.6" y="88.0" transform="rotate(-1.5 159.6 88.0)" text-anchor="middle" dominant-baseline="central" font-family="Arial, sans-serif" font-size="8.3" textLength="111.6" lengthAdjust="spacing" font-weight="650" paint-order="stroke" stroke="#fffaf0" stroke-width="2.05" stroke-linejoin="round" fill="#695f54">Southwest 19th Street</text><text x="117.8" y="168.8" transform="rotate(87.8 117.8 168.8)" text-anchor="middle" dominant-baseline="central" font-family="Arial, sans-serif" font-size="8.3" textLength="106.2" lengthAdjust="spacing" font-weight="650" paint-order="stroke" stroke="#fffaf0" stroke-width="2.05" stroke-linejoin="round" fill="#695f54">Southwest 17th Court</text><text x="27.4" y="143.1" transform="rotate(87.9 27.4 143.1)" text-anchor="middle" dominant-baseline="central" font-family="Arial, sans-serif" font-size="8.3" textLength="111.6" lengthAdjust="spacing" font-weight="650" paint-order="stroke" stroke="#fffaf0" stroke-width="2.05" stroke-linejoin="round" fill="#695f54">Southwest 18th Avenue</text><text x="199.2" y="112.5" text-anchor="middle" font-family="Arial, sans-serif" font-size="6.5" textLength="18.0" lengthAdjust="spacing" font-weight="500" paint-order="stroke" stroke="#f3f5ee" stroke-width="1.55" stroke-linejoin="round" fill="#6f777a">1736</text><text x="237.6" y="58.5" text-anchor="middle" font-family="Arial, sans-serif" font-size="6.5" textLength="18.0" lengthAdjust="spacing" font-weight="500" paint-order="stroke" stroke="#f3f5ee" stroke-width="1.55" stroke-linejoin="round" fill="#6f777a">1880</text><text x="97.6" y="219.8" text-anchor="middle" font-family="Arial, sans-serif" font-size="6.5" textLength="18.0" lengthAdjust="spacing" font-weight="500" paint-order="stroke" stroke="#f3f5ee" stroke-width="1.55" stroke-linejoin="round" fill="#6f777a">1968</text><text x="216.5" y="142.0" text-anchor="middle" font-family="Arial, sans-serif" font-size="6.5" textLength="18.0" lengthAdjust="spacing" font-weight="500" paint-order="stroke" stroke="#f3f5ee" stroke-width="1.55" stroke-linejoin="round" fill="#6f777a">1904</text><text x="140.9" y="190.6" text-anchor="middle" font-family="Arial, sans-serif" font-size="6.5" textLength="18.0" lengthAdjust="spacing" font-weight="500" paint-order="stroke" stroke="#f3f5ee" stroke-width="1.55" stroke-linejoin="round" fill="#6f777a">1955</text><text x="52.2" y="162.0" text-anchor="middle" font-family="Arial, sans-serif" font-size="6.5" textLength="18.0" lengthAdjust="spacing" font-weight="500" paint-order="stroke" stroke="#f3f5ee" stroke-width="1.55" stroke-linejoin="round" fill="#6f777a">1931</text><text x="236.1" y="30.3" text-anchor="middle" font-family="Arial, sans-serif" font-size="6.5" textLength="18.0" lengthAdjust="spacing" font-weight="500" paint-order="stroke" stroke="#f3f5ee" stroke-width="1.55" stroke-linejoin="round" fill="#6f777a">1804</text><text x="212.2" y="60.3" text-anchor="middle" font-family="Arial, sans-serif" font-size="6.5" textLength="18.0" lengthAdjust="spacing" font-weight="500" paint-order="stroke" stroke="#f3f5ee" stroke-width="1.55" stroke-linejoin="round" fill="#6f777a">1721</text><text x="145.9" y="246.0" text-anchor="middle" font-family="Arial, sans-serif" font-size="6.5" textLength="18.0" lengthAdjust="spacing" font-weight="500" paint-order="stroke" stroke="#f3f5ee" stroke-width="1.55" stroke-linejoin="round" fill="#6f777a">1985</text><text x="220.7" y="241.8" text-anchor="middle" font-family="Arial, sans-serif" font-size="6.5" textLength="18.0" lengthAdjust="spacing" font-weight="500" paint-order="stroke" stroke="#f3f5ee" stroke-width="1.55" stroke-linejoin="round" fill="#6f777a">2010</text><text x="48.1" y="142.5" text-anchor="middle" font-family="Arial, sans-serif" font-size="6.5" textLength="18.0" lengthAdjust="spacing" font-weight="500" paint-order="stroke" stroke="#f3f5ee" stroke-width="1.55" stroke-linejoin="round" fill="#6f777a">1921</text><text x="120.9" y="16.5" text-anchor="middle" font-family="Arial, sans-serif" font-size="6.5" textLength="18.0" lengthAdjust="spacing" font-weight="500" paint-order="stroke" stroke="#f3f5ee" stroke-width="1.55" stroke-linejoin="round" fill="#6f777a">1758</text><text x="53.7" y="227.3" text-anchor="middle" font-family="Arial, sans-serif" font-size="6.5" textLength="18.0" lengthAdjust="spacing" font-weight="500" paint-order="stroke" stroke="#f3f5ee" stroke-width="1.55" stroke-linejoin="round" fill="#6f777a">1971</text><text x="91.1" y="192.7" text-anchor="middle" font-family="Arial, sans-serif" font-size="6.5" textLength="18.0" lengthAdjust="spacing" font-weight="500" paint-order="stroke" stroke="#f3f5ee" stroke-width="1.55" stroke-linejoin="round" fill="#6f777a">1950</text><text x="22.7" y="36.1" text-anchor="middle" font-family="Arial, sans-serif" font-size="6.5" textLength="18.0" lengthAdjust="spacing" font-weight="500" paint-order="stroke" stroke="#f3f5ee" stroke-width="1.55" stroke-linejoin="round" fill="#6f777a">1820</text><text x="43.7" y="75.6" text-anchor="middle" font-family="Arial, sans-serif" font-size="6.5" textLength="18.0" lengthAdjust="spacing" font-weight="500" paint-order="stroke" stroke="#f3f5ee" stroke-width="1.55" stroke-linejoin="round" fill="#6f777a">1801</text><text x="109.0" y="66.8" text-anchor="middle" font-family="Arial, sans-serif" font-size="6.5" textLength="18.0" lengthAdjust="spacing" font-weight="500" paint-order="stroke" stroke="#f3f5ee" stroke-width="1.55" stroke-linejoin="round" fill="#6f777a">1781</text><text x="189.6" y="16.5" text-anchor="middle" font-family="Arial, sans-serif" font-size="6.5" textLength="18.0" lengthAdjust="spacing" font-weight="500" paint-order="stroke" stroke="#f3f5ee" stroke-width="1.55" stroke-linejoin="round" fill="#6f777a">1718</text><text x="178.8" y="66.0" text-anchor="middle" font-family="Arial, sans-serif" font-size="6.5" textLength="18.0" lengthAdjust="spacing" font-weight="500" paint-order="stroke" stroke="#f3f5ee" stroke-width="1.55" stroke-linejoin="round" fill="#6f777a">1741</text><text x="84.8" y="38.1" text-anchor="middle" font-family="Arial, sans-serif" font-size="6.5" textLength="18.0" lengthAdjust="spacing" font-weight="500" paint-order="stroke" stroke="#f3f5ee" stroke-width="1.55" stroke-linejoin="round" fill="#6f777a">1823</text><text x="15.0" y="70.1" text-anchor="middle" font-family="Arial, sans-serif" font-size="6.5" textLength="18.0" lengthAdjust="spacing" font-weight="500" paint-order="stroke" stroke="#f3f5ee" stroke-width="1.55" stroke-linejoin="round" fill="#6f777a">1829</text><text x="87.9" y="16.5" text-anchor="middle" font-family="Arial, sans-serif" font-size="6.5" textLength="18.0" lengthAdjust="spacing" font-weight="500" paint-order="stroke" stroke="#f3f5ee" stroke-width="1.55" stroke-linejoin="round" fill="#6f777a">1801</text><text x="140.9" y="162.1" text-anchor="middle" font-family="Arial, sans-serif" font-size="6.5" textLength="18.0" lengthAdjust="spacing" font-weight="500" paint-order="stroke" stroke="#f3f5ee" stroke-width="1.55" stroke-linejoin="round" fill="#6f777a">1935</text><text x="177.2" y="108.0" text-anchor="middle" font-family="Arial, sans-serif" font-size="6.5" textLength="18.0" lengthAdjust="spacing" font-weight="500" paint-order="stroke" stroke="#f3f5ee" stroke-width="1.55" stroke-linejoin="round" fill="#6f777a">1744</text><text x="96.9" y="176.2" text-anchor="middle" font-family="Arial, sans-serif" font-size="6.5" textLength="18.0" lengthAdjust="spacing" font-weight="500" paint-order="stroke" stroke="#f3f5ee" stroke-width="1.55" stroke-linejoin="round" fill="#6f777a">1940</text><text x="45.3" y="59.9" text-anchor="middle" font-family="Arial, sans-serif" font-size="6.5" textLength="18.0" lengthAdjust="spacing" font-weight="500" paint-order="stroke" stroke="#f3f5ee" stroke-width="1.55" stroke-linejoin="round" fill="#6f777a">1830</text><text x="137.8" y="145.6" text-anchor="middle" font-family="Arial, sans-serif" font-size="6.5" textLength="18.0" lengthAdjust="spacing" font-weight="500" paint-order="stroke" stroke="#f3f5ee" stroke-width="1.55" stroke-linejoin="round" fill="#6f777a">1931</text><text x="56.2" y="193.9" text-anchor="middle" font-family="Arial, sans-serif" font-size="6.5" textLength="18.0" lengthAdjust="spacing" font-weight="500" paint-order="stroke" stroke="#f3f5ee" stroke-width="1.55" stroke-linejoin="round" fill="#6f777a">1951</text><text x="151.8" y="66.8" text-anchor="middle" font-family="Arial, sans-serif" font-size="6.5" textLength="18.0" lengthAdjust="spacing" font-weight="500" paint-order="stroke" stroke="#f3f5ee" stroke-width="1.55" stroke-linejoin="round" fill="#6f777a">1757</text><text x="50.2" y="124.0" text-anchor="middle" font-family="Arial, sans-serif" font-size="6.5" textLength="18.0" lengthAdjust="spacing" font-weight="500" paint-order="stroke" stroke="#f3f5ee" stroke-width="1.55" stroke-linejoin="round" fill="#6f777a">1911</text><text x="15.0" y="243.2" text-anchor="middle" font-family="Arial, sans-serif" font-size="6.5" textLength="18.0" lengthAdjust="spacing" font-weight="500" paint-order="stroke" stroke="#f3f5ee" stroke-width="1.55" stroke-linejoin="round" fill="#6f777a">1966</text><text x="86.2" y="111.9" text-anchor="middle" font-family="Arial, sans-serif" font-size="6.5" textLength="18.0" lengthAdjust="spacing" font-weight="500" paint-order="stroke" stroke="#f3f5ee" stroke-width="1.55" stroke-linejoin="round" fill="#6f777a">1794</text><text x="156.4" y="108.6" text-anchor="middle" font-family="Arial, sans-serif" font-size="6.5" textLength="18.0" lengthAdjust="spacing" font-weight="500" paint-order="stroke" stroke="#f3f5ee" stroke-width="1.55" stroke-linejoin="round" fill="#6f777a">1756</text><text x="51.0" y="35.1" text-anchor="middle" font-family="Arial, sans-serif" font-size="6.5" textLength="18.0" lengthAdjust="spacing" font-weight="500" paint-order="stroke" stroke="#f3f5ee" stroke-width="1.55" stroke-linejoin="round" fill="#6f777a">1800</text><text x="161.4" y="17.8" text-anchor="middle" font-family="Arial, sans-serif" font-size="6.5" textLength="18.0" lengthAdjust="spacing" font-weight="500" paint-order="stroke" stroke="#f3f5ee" stroke-width="1.55" stroke-linejoin="round" fill="#6f777a">1726</text><text x="132.0" y="109.6" text-anchor="middle" font-family="Arial, sans-serif" font-size="6.5" textLength="18.0" lengthAdjust="spacing" font-weight="500" paint-order="stroke" stroke="#f3f5ee" stroke-width="1.55" stroke-linejoin="round" fill="#6f777a">1764</text><text x="92.4" y="133.6" text-anchor="middle" font-family="Arial, sans-serif" font-size="6.5" textLength="18.0" lengthAdjust="spacing" font-weight="500" paint-order="stroke" stroke="#f3f5ee" stroke-width="1.55" stroke-linejoin="round" fill="#6f777a">1914</text><text x="50.4" y="211.6" text-anchor="middle" font-family="Arial, sans-serif" font-size="6.5" textLength="18.0" lengthAdjust="spacing" font-weight="500" paint-order="stroke" stroke="#f3f5ee" stroke-width="1.55" stroke-linejoin="round" fill="#6f777a">1961</text><text x="103.9" y="246.0" text-anchor="middle" font-family="Arial, sans-serif" font-size="6.5" textLength="18.0" lengthAdjust="spacing" font-weight="500" paint-order="stroke" stroke="#f3f5ee" stroke-width="1.55" stroke-linejoin="round" fill="#6f777a">1986</text><text x="52.8" y="244.5" text-anchor="middle" font-family="Arial, sans-serif" font-size="6.5" textLength="18.0" lengthAdjust="spacing" font-weight="500" paint-order="stroke" stroke="#f3f5ee" stroke-width="1.55" stroke-linejoin="round" fill="#6f777a">1981</text><text x="15.0" y="226.5" text-anchor="middle" font-family="Arial, sans-serif" font-size="6.5" textLength="18.0" lengthAdjust="spacing" font-weight="500" paint-order="stroke" stroke="#f3f5ee" stroke-width="1.55" stroke-linejoin="round" fill="#6f777a">1956</text><text x="48.2" y="106.6" text-anchor="middle" font-family="Arial, sans-serif" font-size="6.5" textLength="18.0" lengthAdjust="spacing" font-weight="500" paint-order="stroke" stroke="#f3f5ee" stroke-width="1.55" stroke-linejoin="round" fill="#6f777a">1901</text><text x="183.7" y="184.3" text-anchor="middle" font-family="Arial, sans-serif" font-size="6.5" textLength="18.0" lengthAdjust="spacing" font-weight="500" paint-order="stroke" stroke="#f3f5ee" stroke-width="1.55" stroke-linejoin="round" fill="#6f777a">1914</text><text x="88.1" y="72.3" text-anchor="middle" font-family="Arial, sans-serif" font-size="6.5" textLength="18.0" lengthAdjust="spacing" font-weight="500" paint-order="stroke" stroke="#f3f5ee" stroke-width="1.55" stroke-linejoin="round" fill="#6f777a">1787</text><text x="139.2" y="219.5" text-anchor="middle" font-family="Arial, sans-serif" font-size="6.5" textLength="18.0" lengthAdjust="spacing" font-weight="500" paint-order="stroke" stroke="#f3f5ee" stroke-width="1.55" stroke-linejoin="round" fill="#6f777a">1971</text><text x="208.0" y="165.9" text-anchor="middle" font-family="Arial, sans-serif" font-size="6.5" textLength="18.0" lengthAdjust="spacing" font-weight="500" paint-order="stroke" stroke="#f3f5ee" stroke-width="1.55" stroke-linejoin="round" fill="#6f777a">1916</text><text x="214.6" y="202.9" text-anchor="middle" font-family="Arial, sans-serif" font-size="6.5" textLength="18.0" lengthAdjust="spacing" font-weight="500" paint-order="stroke" stroke="#f3f5ee" stroke-width="1.55" stroke-linejoin="round" fill="#6f777a">1910</text><text x="239.2" y="111.6" text-anchor="middle" font-family="Arial, sans-serif" font-size="6.5" textLength="18.0" lengthAdjust="spacing" font-weight="500" paint-order="stroke" stroke="#f3f5ee" stroke-width="1.55" stroke-linejoin="round" fill="#6f777a">1700</text><text x="241.0" y="188.0" text-anchor="middle" font-family="Arial, sans-serif" font-size="6.5" textLength="18.0" lengthAdjust="spacing" font-weight="500" paint-order="stroke" stroke="#f3f5ee" stroke-width="1.55" stroke-linejoin="round" fill="#6f777a">1912</text><g opacity="0.56"><title>crossing</title><path d="M64.9,81.5 L69.5,81.5 M64.9,83.3 L69.5,83.3 M64.9,85.1 L69.5,85.1" stroke="#ffffff" stroke-width="2.1" stroke-linecap="round"/><path d="M64.9,81.5 L69.5,81.5 M64.9,83.3 L69.5,83.3 M64.9,85.1 L69.5,85.1" stroke="#59656a" stroke-width="0.85" stroke-linecap="round"/></g><g opacity="0.56"><title>crossing</title><path d="M57.5,12.4 L62.1,12.4 M57.5,14.2 L62.1,14.2 M57.5,16.0 L62.1,16.0" stroke="#ffffff" stroke-width="2.1" stroke-linecap="round"/><path d="M57.5,12.4 L62.1,12.4 M57.5,14.2 L62.1,14.2 M57.5,16.0 L62.1,16.0" stroke="#59656a" stroke-width="0.85" stroke-linecap="round"/></g></svg>