<svg xmlns="http://www.w3.org/2000/svg" width="256" height="256" viewBox="0 0 256 256"><rect width="256" height="256" fill="#f1efe7"/><path d="M-12298.7,-17197.7 L-12083.9,-17287.0 L-12016.7,-17319.3 L-11716.2,-17463.6 L-11659.8,-17409.0 L-11654.9,-17404.3 L-11549.5,-17494.5 L-11524.4,-17513.6 L-11482.5,-17551.4 L-11246.4,-17768.2 L-11055.9,-17985.8 L-11048.6,-17999.7 L-11041.6,-18007.6 L-11030.5,-18020.3 L-11019.2,-18033.2 L-11014.6,-18038.5 L-11089.7,-18135.6 L-10990.3,-18195.2 L-10936.4,-18123.5 L-10860.2,-18210.7 L-10924.7,-18296.1 L-10844.8,-18379.4 L-10783.3,-18298.4 L-10712.7,-18378.8 L-10682.6,-18398.5 L-10535.4,-18494.0 L-10462.7,-18542.3 L-10375.1,-18599.9 L-10333.7,-18627.1 L-10228.8,-18694.8 L-10255.8,-18730.3 L-10304.1,-18795.0 L-10179.2,-18874.4 L-10133.7,-18897.9 L-10130.2,-18900.4 L-10106.2,-18918.9 L-10020.6,-18964.7 L-10014.7,-18973.9 L-9990.7,-18990.4 L-9977.7,-19009.4 L-9974.0,-19012.2 L-9953.1,-19020.3 L-9905.9,-19037.2 L-9873.6,-19051.4 L-9759.5,-19105.0 L-9758.1,-19101.3 L-9662.4,-19142.2 L-9623.3,-19092.1 L-9536.2,-19150.2 L-9523.8,-19158.7 L-9522.6,-19159.7 L-9521.4,-19161.3 L-9519.5,-19164.6 L-9518.5,-19167.7 L-9517.9,-19171.4 L-9518.0,-19174.4 L-9518.4,-19177.3 L-9518.8,-19180.6 L-9518.9,-19183.1 L-9518.7,-19185.2 L-9518.3,-19187.4 L-9516.7,-19191.4 L-9515.6,-19193.6 L-9513.1,-19197.4 L-9510.5,-19200.2 L-9497.8,-19205.3 L-9487.2,-19209.3 L-9473.7,-19213.7 L-9467.4,-19215.4 L-9456.2,-19219.1 L-9448.3,-19221.9 L-9437.4,-19226.4 L-9422.6,-19232.9 L-9406.6,-19240.4 L-9398.0,-19244.6 L-9387.2,-19250.1 L-9377.1,-19255.7 L-9367.0,-19261.7 L-9356.7,-19268.4 L-9353.5,-19270.6 L-9332.8,-19286.4 L-9315.4,-19299.8 L-9298.4,-19314.2 L-9282.5,-19329.2 L-9271.0,-19342.1 L-9259.6,-19356.0 L-9245.6,-19374.0 L-9232.8,-19392.0 L-9218.1,-19415.1 L-9208.5,-19433.0 L-9202.5,-19444.4 L-9193.6,-19463.7 L-9186.1,-19481.6 L-9179.4,-19500.9 L-9174.0,-19517.8 L-9168.1,-19545.2 L-9163.8,-19569.7 L-9161.5,-19590.7 L-9159.5,-19615.5 L-9159.3,-19642.0 L-9160.9,-19666.5 L-9165.1,-19698.5 L-9169.5,-19720.3 L-9174.5,-19740.9 L-9181.9,-19764.3 L-9188.2,-19782.2 L-9195.4,-19801.7 L-9202.2,-19817.9 L-9206.8,-19828.4 L-9208.7,-19836.1 L-9209.0,-19842.0 L-9208.4,-19847.3 L-9206.3,-19851.9 L-9203.1,-19855.8 L-9198.9,-19858.0 L-9194.4,-19858.6 L-9182.3,-19855.7 L-9148.6,-19847.6 L-9137.4,-20102.3 L-9093.7,-20556.9 L-9141.2,-20568.1 L-9146.4,-20582.4 L-9146.2,-20602.9 L-9139.6,-20649.4 L-9130.6,-20659.9 L-9122.6,-20690.1 L-9072.1,-20678.4 L-9044.3,-20968.9 L-9036.6,-21049.3 L-9052.3,-21053.2 L-9042.8,-21091.6 L-9075.1,-21099.3 L-9071.0,-21122.8 L-9065.3,-21138.3 L-9058.2,-21156.4 L-9046.2,-21181.7 L-9033.3,-21178.8 L-9015.9,-21361.5 L-9011.8,-21472.3 L-9011.0,-21492.7 L-9001.6,-21563.2 L-8982.9,-21738.9 L-8858.1,-22064.3 L-8829.6,-22153.0 L-8482.9,-22286.0 L-8449.0,-22299.6 L-8443.1,-22302.8 L-8438.5,-22307.0 L-8433.4,-22312.9 L-8429.5,-22319.8 L-8426.9,-22326.6 L-8426.3,-22336.5 L-8426.8,-22348.8 L-8431.4,-22504.3 L-8433.1,-22534.4 L-8433.6,-22555.1 L-8434.3,-22595.3 L-8435.1,-22607.9 L-8436.6,-22618.5 L-8438.7,-22627.9 L-8441.8,-22637.5 L-8446.7,-22648.8 L-8453.9,-22660.9 L-8460.9,-22670.5 L-8466.3,-22679.6 L-8471.8,-22691.7 L-8476.4,-22703.3 L-8478.2,-22712.8 L-8479.6,-22723.3 L-8480.3,-22733.8 L-8480.0,-22744.0 L-8478.8,-22755.9 L-8476.0,-22767.6 L-8472.3,-22778.0 L-8468.4,-22787.5 L-8463.4,-22796.7 L-8457.3,-22807.9 L-8453.3,-22818.0 L-8449.8,-22830.9 L-8443.4,-22840.7 L-8445.6,-22929.9 L-8448.9,-22935.1 L-8449.9,-22995.7 L-8451.6,-23067.2 L-8450.4,-23077.1 L-8447.2,-23087.2 L-8439.2,-23103.0 L-8385.7,-23218.1 L-8384.6,-23220.0 L-8375.2,-23240.5 L-8366.3,-23259.9 L-8356.3,-23279.9 L-8346.5,-23300.5 L-8341.7,-23310.5 L-8289.1,-23418.4 L-8232.9,-23537.6 L-8111.3,-23784.4 L-8184.4,-23866.3 L-8244.0,-23739.3 L-8295.5,-23629.4 L-8303.3,-23613.8 L-8319.2,-23581.3 L-8351.0,-23584.0 L-8359.7,-23584.5 L-8362.8,-23581.7 L-8358.6,-23577.9 L-8374.9,-23563.4 L-8387.8,-23551.5 L-8390.2,-23500.6 L-8395.0,-23490.4 L-8410.6,-23491.0 L-8413.2,-23491.9 L-8617.6,-23576.3 L-8622.0,-23578.6 L-8626.7,-23581.6 L-8634.1,-23587.2 L-8639.8,-23592.6 L-8644.6,-23597.8 L-8649.3,-23604.2 L-8652.9,-23609.8 L-8655.7,-23615.6 L-8657.9,-23621.7 L-8659.4,-23625.9 L-8660.5,-23631.0 L-8661.3,-23637.0 L-8662.1,-23645.2 L-8662.1,-23656.9 L-8663.5,-23696.6 L-8657.9,-23696.9 L-8658.7,-23717.9 L-8659.6,-23752.5 L-8654.4,-23752.6 L-8654.8,-23776.2 L-8660.7,-23776.1 L-8663.4,-23875.5 L-8657.8,-23875.8 L-8658.7,-23899.1 L-8664.1,-23898.9 L-8666.4,-23972.4 L-8639.4,-24001.5 L-8604.9,-24002.7 L-8579.2,-24003.6 L-8545.3,-24004.7 L-8512.7,-24005.7 L-8483.5,-24006.7 L-8470.8,-24007.3 L-8471.4,-24018.6 L-8471.6,-24030.4 L-8473.5,-24068.7 L-8474.2,-24141.8 L-8475.2,-24143.1 L-8475.4,-24150.3 L-8473.3,-24150.4 L-8478.4,-24326.5 L-8482.8,-24492.2 L-8483.5,-24497.4 L-8483.9,-24507.0 L-8556.1,-24504.4 L-8604.1,-24508.5 L-8963.4,-24496.0 L-8963.5,-24499.2 L-8964.2,-24514.5 L-9134.6,-24508.5 L-9134.9,-24536.8 L-9157.4,-24541.9 L-9161.4,-24663.0 L-8498.6,-24686.0 L-8487.6,-24701.1 L-8488.0,-24744.1 L-8488.8,-24781.3 L-8489.4,-24804.6 L-8490.3,-24827.3 L-8543.0,-24852.1 L-8545.1,-24907.2 L-8491.1,-24934.0 L-8496.0,-25061.5 L-8497.4,-25067.8 L-8551.1,-25092.9 L-8552.8,-25161.1 L-8501.8,-25187.4 L-8524.5,-25464.3 L-8518.5,-25587.5 L-8515.5,-25788.4 L-8515.7,-26006.9 L-8510.9,-26037.5 L-8510.6,-26052.3 L-8515.4,-26070.1 L-8510.4,-26070.1 L-8510.4,-26086.2 L-8507.4,-26497.2 L-8507.9,-26515.5 L-8513.6,-26515.5 L-8513.4,-26591.1 L-8516.7,-26595.8 L-8521.9,-26673.8 L-8511.6,-26745.1 L-8512.9,-26831.4 L-8516.4,-26852.1 L-8511.1,-26916.0 L-8514.7,-26993.3 L-8523.7,-27076.0 L-8540.8,-27210.0 L-8532.7,-27246.9 L-8536.3,-27282.8 L-8566.9,-27308.9 L-8611.8,-27308.5 L-8680.2,-27299.5 L-8724.7,-27299.5 L-8765.1,-27314.3 L-8818.2,-27350.7 L-8818.2,-27416.0 L-8819.6,-27496.3 L-8814.4,-27563.2 L-8796.8,-27615.4 L-8502.1,-27620.9 L-8495.3,-28038.8 L-8495.3,-28640.4 L-8498.4,-28858.7 L7413.8,-35430.4 L7413.8,787.8 L-12298.7,787.8 L-12298.7,-17197.7 Z" fill="#add7e1" stroke="none"><title>Biscayne Bay</title></path><path d="M-1.0,-1.0 L257.0,-1.0 L257.0,257.0 L-1.0,257.0 L-1.0,-1.0 Z" fill="#add7e1" stroke="none" fill-rule="evenodd"><title>Biscayne Bay</title></path></svg>