<svg xmlns="http://www.w3.org/2000/svg" width="256" height="256" viewBox="0 0 256 256"><rect width="256" height="256" fill="#f1efe7"/><path d="M-13578.7,-14381.7 L-13363.9,-14471.0 L-13296.7,-14503.3 L-12996.2,-14647.6 L-12939.8,-14593.0 L-12934.9,-14588.3 L-12829.5,-14678.5 L-12804.4,-14697.6 L-12762.5,-14735.4 L-12526.4,-14952.2 L-12335.9,-15169.8 L-12328.6,-15183.7 L-12321.6,-15191.6 L-12310.5,-15204.3 L-12299.2,-15217.2 L-12294.6,-15222.5 L-12369.7,-15319.6 L-12270.3,-15379.2 L-12216.4,-15307.5 L-12140.2,-15394.7 L-12204.7,-15480.1 L-12124.8,-15563.4 L-12063.3,-15482.4 L-11992.7,-15562.8 L-11962.6,-15582.5 L-11815.4,-15678.0 L-11742.7,-15726.3 L-11655.1,-15783.9 L-11613.7,-15811.1 L-11508.8,-15878.8 L-11535.8,-15914.3 L-11584.1,-15979.0 L-11459.2,-16058.4 L-11413.7,-16081.9 L-11410.2,-16084.4 L-11386.2,-16102.9 L-11300.6,-16148.7 L-11294.7,-16157.9 L-11270.7,-16174.4 L-11257.7,-16193.4 L-11254.0,-16196.2 L-11233.1,-16204.3 L-11185.9,-16221.2 L-11153.6,-16235.4 L-11039.5,-16289.0 L-11038.1,-16285.3 L-10942.4,-16326.2 L-10903.3,-16276.1 L-10816.2,-16334.2 L-10803.8,-16342.7 L-10802.6,-16343.7 L-10801.4,-16345.3 L-10799.5,-16348.6 L-10798.5,-16351.7 L-10797.9,-16355.4 L-10798.0,-16358.4 L-10798.4,-16361.3 L-10798.8,-16364.6 L-10798.9,-16367.1 L-10798.7,-16369.2 L-10798.3,-16371.4 L-10796.7,-16375.4 L-10795.6,-16377.6 L-10793.1,-16381.4 L-10790.5,-16384.2 L-10777.8,-16389.3 L-10767.2,-16393.3 L-10753.7,-16397.7 L-10747.4,-16399.4 L-10736.2,-16403.1 L-10728.3,-16405.9 L-10717.4,-16410.4 L-10702.6,-16416.9 L-10686.6,-16424.4 L-10678.0,-16428.6 L-10667.2,-16434.1 L-10657.1,-16439.7 L-10647.0,-16445.7 L-10636.7,-16452.4 L-10633.5,-16454.6 L-10612.8,-16470.4 L-10595.4,-16483.8 L-10578.4,-16498.2 L-10562.5,-16513.2 L-10551.0,-16526.1 L-10539.6,-16540.0 L-10525.6,-16558.0 L-10512.8,-16576.0 L-10498.1,-16599.1 L-10488.5,-16617.0 L-10482.5,-16628.4 L-10473.6,-16647.7 L-10466.1,-16665.6 L-10459.4,-16684.9 L-10454.0,-16701.8 L-10448.1,-16729.2 L-10443.8,-16753.7 L-10441.5,-16774.7 L-10439.5,-16799.5 L-10439.3,-16826.0 L-10440.9,-16850.5 L-10445.1,-16882.5 L-10449.5,-16904.3 L-10454.5,-16924.9 L-10461.9,-16948.3 L-10468.2,-16966.2 L-10475.4,-16985.7 L-10482.2,-17001.9 L-10486.8,-17012.4 L-10488.7,-17020.1 L-10489.0,-17026.0 L-10488.4,-17031.3 L-10486.3,-17035.9 L-10483.1,-17039.8 L-10478.9,-17042.0 L-10474.4,-17042.6 L-10462.3,-17039.7 L-10428.6,-17031.6 L-10417.4,-17286.3 L-10373.7,-17740.9 L-10421.2,-17752.1 L-10426.4,-17766.4 L-10426.2,-17786.9 L-10419.6,-17833.4 L-10410.6,-17843.9 L-10402.6,-17874.1 L-10352.1,-17862.4 L-10324.3,-18152.9 L-10316.6,-18233.3 L-10332.3,-18237.2 L-10322.8,-18275.6 L-10355.1,-18283.3 L-10351.0,-18306.8 L-10345.3,-18322.3 L-10338.2,-18340.4 L-10326.2,-18365.7 L-10313.3,-18362.8 L-10295.9,-18545.5 L-10291.8,-18656.3 L-10291.0,-18676.7 L-10281.6,-18747.2 L-10262.9,-18922.9 L-10138.1,-19248.3 L-10109.6,-19337.0 L-9762.9,-19470.0 L-9729.0,-19483.6 L-9723.1,-19486.8 L-9718.5,-19491.0 L-9713.4,-19496.9 L-9709.5,-19503.8 L-9706.9,-19510.6 L-9706.3,-19520.5 L-9706.8,-19532.8 L-9711.4,-19688.3 L-9713.1,-19718.4 L-9713.6,-19739.1 L-9714.3,-19779.3 L-9715.1,-19791.9 L-9716.6,-19802.5 L-9718.7,-19811.9 L-9721.8,-19821.5 L-9726.7,-19832.8 L-9733.9,-19844.9 L-9740.9,-19854.5 L-9746.3,-19863.6 L-9751.8,-19875.7 L-9756.4,-19887.3 L-9758.2,-19896.8 L-9759.6,-19907.3 L-9760.3,-19917.8 L-9760.0,-19928.0 L-9758.8,-19939.9 L-9756.0,-19951.6 L-9752.3,-19962.0 L-9748.4,-19971.5 L-9743.4,-19980.7 L-9737.3,-19991.9 L-9733.3,-20002.0 L-9729.8,-20014.9 L-9723.4,-20024.7 L-9725.6,-20113.9 L-9728.9,-20119.1 L-9729.9,-20179.7 L-9731.6,-20251.2 L-9730.4,-20261.1 L-9727.2,-20271.2 L-9719.2,-20287.0 L-9665.7,-20402.1 L-9664.6,-20404.0 L-9655.2,-20424.5 L-9646.3,-20443.9 L-9636.3,-20463.9 L-9626.5,-20484.5 L-9621.7,-20494.5 L-9569.1,-20602.4 L-9512.9,-20721.6 L-9391.3,-20968.4 L-9464.4,-21050.3 L-9524.0,-20923.3 L-9575.5,-20813.4 L-9583.3,-20797.8 L-9599.2,-20765.3 L-9631.0,-20768.0 L-9639.7,-20768.5 L-9642.8,-20765.7 L-9638.6,-20761.9 L-9654.9,-20747.4 L-9667.8,-20735.5 L-9670.2,-20684.6 L-9675.0,-20674.4 L-9690.6,-20675.0 L-9693.2,-20675.9 L-9897.6,-20760.3 L-9902.0,-20762.6 L-9906.7,-20765.6 L-9914.1,-20771.2 L-9919.8,-20776.6 L-9924.6,-20781.8 L-9929.3,-20788.2 L-9932.9,-20793.8 L-9935.7,-20799.6 L-9937.9,-20805.7 L-9939.4,-20809.9 L-9940.5,-20815.0 L-9941.3,-20821.0 L-9942.1,-20829.2 L-9942.1,-20840.9 L-9943.5,-20880.6 L-9937.9,-20880.9 L-9938.7,-20901.9 L-9939.6,-20936.5 L-9934.4,-20936.6 L-9934.8,-20960.2 L-9940.7,-20960.1 L-9943.4,-21059.5 L-9937.8,-21059.8 L-9938.7,-21083.1 L-9944.1,-21082.9 L-9946.4,-21156.4 L-9919.4,-21185.5 L-9884.9,-21186.7 L-9859.2,-21187.6 L-9825.3,-21188.7 L-9792.7,-21189.7 L-9763.5,-21190.7 L-9750.8,-21191.3 L-9751.4,-21202.6 L-9751.6,-21214.4 L-9753.5,-21252.7 L-9754.2,-21325.8 L-9755.2,-21327.1 L-9755.4,-21334.3 L-9753.3,-21334.4 L-9758.4,-21510.5 L-9762.8,-21676.2 L-9763.5,-21681.4 L-9763.9,-21691.0 L-9836.1,-21688.4 L-9884.1,-21692.5 L-10243.4,-21680.0 L-10243.5,-21683.2 L-10244.2,-21698.5 L-10414.6,-21692.5 L-10414.9,-21720.8 L-10437.4,-21725.9 L-10441.4,-21847.0 L-9778.6,-21870.0 L-9767.6,-21885.1 L-9768.0,-21928.1 L-9768.8,-21965.3 L-9769.4,-21988.6 L-9770.3,-22011.3 L-9823.0,-22036.1 L-9825.1,-22091.2 L-9771.1,-22118.0 L-9776.0,-22245.5 L-9777.4,-22251.8 L-9831.1,-22276.9 L-9832.8,-22345.1 L-9781.8,-22371.4 L-9804.5,-22648.3 L-9798.5,-22771.5 L-9795.5,-22972.4 L-9795.7,-23190.9 L-9790.9,-23221.5 L-9790.6,-23236.3 L-9795.4,-23254.1 L-9790.4,-23254.1 L-9790.4,-23270.2 L-9787.4,-23681.2 L-9787.9,-23699.5 L-9793.6,-23699.5 L-9793.4,-23775.1 L-9796.7,-23779.8 L-9801.9,-23857.8 L-9791.6,-23929.1 L-9792.9,-24015.4 L-9796.4,-24036.1 L-9791.1,-24100.0 L-9794.7,-24177.3 L-9803.7,-24260.0 L-9820.8,-24394.0 L-9812.7,-24430.9 L-9816.3,-24466.8 L-9846.9,-24492.9 L-9891.8,-24492.5 L-9960.2,-24483.5 L-10004.7,-24483.5 L-10045.1,-24498.3 L-10098.2,-24534.7 L-10098.2,-24600.0 L-10099.6,-24680.3 L-10094.4,-24747.2 L-10076.8,-24799.4 L-9782.1,-24804.9 L-9775.3,-25222.8 L-9775.3,-25824.4 L-9778.4,-26042.7 L6133.8,-32614.4 L6133.8,3603.8 L-13578.7,3603.8 L-13578.7,-14381.7 Z" fill="#add7e1" stroke="none"><title>Biscayne Bay</title></path><path d="M-1.0,-1.0 L257.0,-1.0 L257.0,257.0 L-1.0,257.0 L-1.0,-1.0 Z" fill="#add7e1" stroke="none" fill-rule="evenodd"><title>Biscayne Bay</title></path></svg>