<svg xmlns="http://www.w3.org/2000/svg" width="256" height="256" viewBox="0 0 256 256"><rect width="256" height="256" fill="#f1efe7"/><path d="M-2314.7,17618.3 L-2099.9,17529.0 L-2032.7,17496.7 L-1732.2,17352.4 L-1675.8,17407.0 L-1670.9,17411.7 L-1565.5,17321.5 L-1540.4,17302.4 L-1498.5,17264.6 L-1262.4,17047.8 L-1071.9,16830.2 L-1064.6,16816.3 L-1057.6,16808.4 L-1046.5,16795.7 L-1035.2,16782.8 L-1030.6,16777.5 L-1105.7,16680.4 L-1006.3,16620.8 L-952.4,16692.5 L-876.2,16605.3 L-940.7,16519.9 L-860.8,16436.6 L-799.3,16517.6 L-728.7,16437.2 L-698.6,16417.5 L-551.4,16322.0 L-478.7,16273.7 L-391.1,16216.1 L-349.7,16188.9 L-244.8,16121.2 L-271.8,16085.7 L-320.1,16021.0 L-195.2,15941.6 L-149.7,15918.1 L-146.2,15915.6 L-122.2,15897.1 L-36.6,15851.3 L-30.7,15842.1 L-6.7,15825.6 L6.3,15806.6 L10.0,15803.8 L30.9,15795.7 L78.1,15778.8 L110.4,15764.6 L224.5,15711.0 L225.9,15714.7 L321.6,15673.8 L360.7,15723.9 L447.8,15665.8 L460.2,15657.3 L461.4,15656.3 L462.6,15654.7 L464.5,15651.4 L465.5,15648.3 L466.1,15644.6 L466.0,15641.6 L465.6,15638.7 L465.2,15635.4 L465.1,15632.9 L465.3,15630.8 L465.7,15628.6 L467.3,15624.6 L468.4,15622.4 L470.9,15618.6 L473.5,15615.8 L486.2,15610.7 L496.8,15606.7 L510.3,15602.3 L516.6,15600.6 L527.8,15596.9 L535.7,15594.1 L546.6,15589.6 L561.4,15583.1 L577.4,15575.6 L586.0,15571.4 L596.8,15565.9 L606.9,15560.3 L617.0,15554.3 L627.3,15547.6 L630.5,15545.4 L651.2,15529.6 L668.6,15516.2 L685.6,15501.8 L701.5,15486.8 L713.0,15473.9 L724.4,15460.0 L738.4,15442.0 L751.2,15424.0 L765.9,15400.9 L775.5,15383.0 L781.5,15371.6 L790.4,15352.3 L797.9,15334.4 L804.6,15315.1 L810.0,15298.2 L815.9,15270.8 L820.2,15246.3 L822.5,15225.3 L824.5,15200.5 L824.7,15174.0 L823.1,15149.5 L818.9,15117.5 L814.5,15095.7 L809.5,15075.1 L802.1,15051.7 L795.8,15033.8 L788.6,15014.3 L781.8,14998.1 L777.2,14987.6 L775.3,14979.9 L775.0,14974.0 L775.6,14968.7 L777.7,14964.1 L780.9,14960.2 L785.1,14958.0 L789.6,14957.4 L801.7,14960.3 L835.4,14968.4 L846.6,14713.7 L890.3,14259.1 L842.8,14247.9 L837.6,14233.6 L837.8,14213.1 L844.4,14166.6 L853.4,14156.1 L861.4,14125.9 L911.9,14137.6 L939.7,13847.1 L947.4,13766.7 L931.7,13762.8 L941.2,13724.4 L908.9,13716.7 L913.0,13693.2 L918.7,13677.7 L925.8,13659.6 L937.8,13634.3 L950.7,13637.2 L968.1,13454.5 L972.2,13343.7 L973.0,13323.3 L982.4,13252.8 L1001.1,13077.1 L1125.9,12751.7 L1154.4,12663.0 L1501.1,12530.0 L1535.0,12516.4 L1540.9,12513.2 L1545.5,12509.0 L1550.6,12503.1 L1554.5,12496.2 L1557.1,12489.4 L1557.7,12479.5 L1557.2,12467.2 L1552.6,12311.7 L1550.9,12281.6 L1550.4,12260.9 L1549.7,12220.7 L1548.9,12208.1 L1547.4,12197.5 L1545.3,12188.1 L1542.2,12178.5 L1537.3,12167.2 L1530.1,12155.1 L1523.1,12145.5 L1517.7,12136.4 L1512.2,12124.3 L1507.6,12112.7 L1505.8,12103.2 L1504.4,12092.7 L1503.7,12082.2 L1504.0,12072.0 L1505.2,12060.1 L1508.0,12048.4 L1511.7,12038.0 L1515.6,12028.5 L1520.6,12019.3 L1526.7,12008.1 L1530.7,11998.0 L1534.2,11985.1 L1540.6,11975.3 L1538.4,11886.1 L1535.1,11880.9 L1534.1,11820.3 L1532.4,11748.8 L1533.6,11738.9 L1536.8,11728.8 L1544.8,11713.0 L1598.3,11597.9 L1599.4,11596.0 L1608.8,11575.5 L1617.7,11556.1 L1627.7,11536.1 L1637.5,11515.5 L1642.3,11505.5 L1694.9,11397.6 L1751.1,11278.4 L1872.7,11031.6 L1799.6,10949.7 L1740.0,11076.7 L1688.5,11186.6 L1680.7,11202.2 L1664.8,11234.7 L1633.0,11232.0 L1624.3,11231.5 L1621.2,11234.3 L1625.4,11238.1 L1609.1,11252.6 L1596.2,11264.5 L1593.8,11315.4 L1589.0,11325.6 L1573.4,11325.0 L1570.8,11324.1 L1366.4,11239.7 L1362.0,11237.4 L1357.3,11234.4 L1349.9,11228.8 L1344.2,11223.4 L1339.4,11218.2 L1334.7,11211.8 L1331.1,11206.2 L1328.3,11200.4 L1326.1,11194.3 L1324.6,11190.1 L1323.5,11185.0 L1322.7,11179.0 L1321.9,11170.8 L1321.9,11159.1 L1320.5,11119.4 L1326.1,11119.1 L1325.3,11098.1 L1324.4,11063.5 L1329.6,11063.4 L1329.2,11039.8 L1323.3,11039.9 L1320.6,10940.5 L1326.2,10940.2 L1325.3,10916.9 L1319.9,10917.1 L1317.6,10843.6 L1344.6,10814.5 L1379.1,10813.3 L1404.8,10812.4 L1438.7,10811.3 L1471.3,10810.3 L1500.5,10809.3 L1513.2,10808.7 L1512.6,10797.4 L1512.4,10785.6 L1510.5,10747.3 L1509.8,10674.2 L1508.8,10672.9 L1508.6,10665.7 L1510.7,10665.6 L1505.6,10489.5 L1501.2,10323.8 L1500.5,10318.6 L1500.1,10309.0 L1427.9,10311.6 L1379.9,10307.5 L1020.6,10320.0 L1020.5,10316.8 L1019.8,10301.5 L849.4,10307.5 L849.1,10279.2 L826.6,10274.1 L822.6,10153.0 L1485.4,10130.0 L1496.4,10114.9 L1496.0,10071.9 L1495.2,10034.7 L1494.6,10011.4 L1493.7,9988.7 L1441.0,9963.9 L1438.9,9908.8 L1492.9,9882.0 L1488.0,9754.5 L1486.6,9748.2 L1432.9,9723.1 L1431.2,9654.9 L1482.2,9628.6 L1459.5,9351.7 L1465.5,9228.5 L1468.5,9027.6 L1468.3,8809.1 L1473.1,8778.5 L1473.4,8763.7 L1468.6,8745.9 L1473.6,8745.9 L1473.6,8729.8 L1476.6,8318.8 L1476.1,8300.5 L1470.4,8300.5 L1470.6,8224.9 L1467.3,8220.2 L1462.1,8142.2 L1472.4,8070.9 L1471.1,7984.6 L1467.6,7963.9 L1472.9,7900.0 L1469.3,7822.7 L1460.3,7740.0 L1443.2,7606.0 L1451.3,7569.1 L1447.7,7533.2 L1417.1,7507.1 L1372.2,7507.5 L1303.8,7516.5 L1259.3,7516.5 L1218.9,7501.7 L1165.8,7465.3 L1165.8,7400.0 L1164.4,7319.7 L1169.6,7252.8 L1187.2,7200.6 L1481.9,7195.1 L1488.7,6777.2 L1488.7,6175.6 L1485.6,5957.3 L17397.8,-614.4 L17397.8,35603.8 L-2314.7,35603.8 L-2314.7,17618.3 Z" fill="#add7e1" stroke="none"><title>Biscayne Bay</title></path><path d="M-359.2,-107.6 L-347.2,175.1 L-192.1,173.5 L-4.4,164.4 L202.6,155.6 L186.6,-101.2 L171.1,-111.1 L87.0,-115.6 L-7.1,-119.6 L-359.2,-107.6 Z" fill="#ece7dc" stroke="#d7d1c5" stroke-width="0.3"><title>Notre Dame d&#x27;Haiti Mission</title></path><path d="M945.4,-34.1 L949.6,80.1 L237.1,137.6 L230.6,14.1 L945.4,-34.1 Z" fill="#ece7dc" stroke="#d7d1c5" stroke-width="0.3"></path><path d="M203.1,273.0 L164.4,273.4 L164.2,257.9 L168.3,257.5 L168.4,228.8 L196.1,227.9 L202.0,234.2 L203.1,273.0 Z" fill="#d6d2c9" stroke="#bab6ad" stroke-width="0.4"></path><path d="M-28.8,-98.5 L-28.1,-77.8 L-3.7,-78.7 L-3.6,-76.2 L20.7,-77.1 L21.1,-65.3 L35.1,-65.7 L34.7,-78.6 L73.6,-79.9 L73.7,-77.9 L87.7,-78.4 L88.1,-67.5 L96.2,-67.8 L96.6,-58.0 L102.8,-58.2 L103.4,-39.5 L97.2,-39.3 L97.6,-29.5 L89.4,-29.2 L89.8,-17.6 L75.7,-17.1 L75.7,-16.2 L37.0,-14.8 L36.6,-27.5 L22.2,-27.0 L22.6,-14.7 L-3.8,-13.8 L-4.0,-21.2 L-6.4,-21.1 L-5.2,13.5 L-3.0,13.4 L-2.6,25.8 L-4.7,25.9 L-4.6,30.5 L-22.6,31.1 L-22.8,26.5 L-25.4,26.6 L-24.2,60.2 L-28.4,60.3 L-28.3,62.7 L-70.8,64.2 L-71.6,41.5 L-54.3,40.9 L-54.5,35.8 L-34.9,35.1 L-36.5,-11.0 L-45.6,-10.7 L-46.0,-24.0 L-183.7,-19.1 L-183.8,-22.6 L-193.0,-22.3 L-193.2,-25.7 L-202.7,-25.3 L-203.6,-51.5 L-192.0,-51.9 L-191.8,-45.0 L-184.9,-45.2 L-185.4,-58.9 L-45.3,-63.8 L-45.1,-58.4 L-42.5,-58.5 L-43.8,-98.0 L-28.8,-98.5 Z" fill="#d6d2c9" stroke="#bab6ad" stroke-width="0.4"></path><path d="M126.3,190.1 L111.8,190.6 L111.1,169.5 L125.6,169.0 L126.3,190.1 Z" fill="#d6d2c9" stroke="#bab6ad" stroke-width="0.4"></path><path d="M17.3,270.7 L9.0,271.2 L7.8,250.7 L21.7,249.9 L22.7,266.3 L17.0,266.6 L17.3,270.7 Z" fill="#d6d2c9" stroke="#bab6ad" stroke-width="0.4"></path><path d="M38.7,173.9 L39.0,178.5 L44.9,178.2 L45.7,192.6 L50.8,192.2 L51.4,202.7 L28.6,204.1 L26.9,174.5 L38.7,173.9 Z" fill="#d6d2c9" stroke="#bab6ad" stroke-width="0.4"></path><path d="M50.2,235.8 L50.4,240.3 L52.2,240.2 L53.0,256.4 L46.3,256.8 L46.4,260.1 L43.5,260.3 L40.6,260.4 L40.4,256.9 L31.2,257.3 L30.2,236.8 L40.2,236.3 L50.2,235.8 Z" fill="#d6d2c9" stroke="#bab6ad" stroke-width="0.4"></path><path d="M110.8,193.0 L86.4,194.0 L85.4,169.2 L109.8,168.2 L110.8,193.0 Z" fill="#d6d2c9" stroke="#bab6ad" stroke-width="0.4"></path><path d="M72.4,173.3 L73.1,189.4 L82.5,189.0 L83.0,200.7 L63.7,201.5 L63.5,196.7 L59.0,196.9 L58.0,173.9 L72.4,173.3 Z" fill="#d6d2c9" stroke="#bab6ad" stroke-width="0.4"></path><path d="M74.2,260.2 L58.1,260.7 L57.3,236.9 L77.7,236.3 L78.4,257.3 L74.1,257.4 L74.2,260.2 Z" fill="#d6d2c9" stroke="#bab6ad" stroke-width="0.4"></path><path d="M111.3,233.2 L112.4,260.6 L91.9,261.4 L91.7,255.4 L90.6,255.5 L90.2,246.1 L84.9,246.3 L84.4,234.3 L111.3,233.2 Z" fill="#d6d2c9" stroke="#bab6ad" stroke-width="0.4"></path><path d="M25.9,195.2 L1.5,196.6 L0.1,171.8 L24.4,170.4 L25.9,195.2 Z" fill="#d6d2c9" stroke="#bab6ad" stroke-width="0.4"></path><path d="M53.7,159.2 L54.7,177.2 L48.0,177.5 L41.3,177.9 L40.7,168.1 L36.7,168.3 L36.2,160.2 L53.7,159.2 Z" fill="#d6d2c9" stroke="#bab6ad" stroke-width="0.4"></path><path d="M198.9,188.7 L153.5,190.6" fill="none" stroke="#cec8bb" stroke-width="3.5" stroke-linecap="round" stroke-linejoin="round"/><path d="M198.9,188.7 L153.5,190.6" fill="none" stroke="#ffffff" stroke-width="2.5" stroke-linecap="round" stroke-linejoin="round"></path><path d="M219.5,188.5 L198.9,188.7" fill="none" stroke="#cec8bb" stroke-width="3.5" stroke-linecap="round" stroke-linejoin="round"/><path d="M219.5,188.5 L198.9,188.7" fill="none" stroke="#ffffff" stroke-width="2.5" stroke-linecap="round" stroke-linejoin="round"></path><path d="M37.9,115.1 L35.0,68.0" fill="none" stroke="#cec8bb" stroke-width="3.5" stroke-linecap="round" stroke-linejoin="round"/><path d="M37.9,115.1 L35.0,68.0" fill="none" stroke="#ffffff" stroke-width="2.5" stroke-linecap="round" stroke-linejoin="round"></path><path d="M10.3,26.1 L14.0,30.8 L23.7,35.8 L34.8,35.1 L44.2,28.2 L47.3,22.4" fill="none" stroke="#cec8bb" stroke-width="3.5" stroke-linecap="round" stroke-linejoin="round"/><path d="M10.3,26.1 L14.0,30.8 L23.7,35.8 L34.8,35.1 L44.2,28.2 L47.3,22.4" fill="none" stroke="#ffffff" stroke-width="2.5" stroke-linecap="round" stroke-linejoin="round"></path><path d="M47.3,22.4 L48.4,14.4 L46.0,6.1 L40.4,-0.4 L24.9,-4.5 L13.1,1.7 L8.1,10.7 L7.6,18.3 L10.3,26.1" fill="none" stroke="#cec8bb" stroke-width="3.5" stroke-linecap="round" stroke-linejoin="round"/><path d="M47.3,22.4 L48.4,14.4 L46.0,6.1 L40.4,-0.4 L24.9,-4.5 L13.1,1.7 L8.1,10.7 L7.6,18.3 L10.3,26.1" fill="none" stroke="#ffffff" stroke-width="2.5" stroke-linecap="round" stroke-linejoin="round"></path><path d="M160.3,20.1 L47.3,22.4" fill="none" stroke="#cec8bb" stroke-width="3.5" stroke-linecap="round" stroke-linejoin="round"/><path d="M160.3,20.1 L47.3,22.4" fill="none" stroke="#ffffff" stroke-width="2.5" stroke-linecap="round" stroke-linejoin="round"></path><path d="M126.0,146.1 L58.5,120.1 L37.9,115.1 L-0.7,116.4 L-17.3,120.3 L-58.1,133.5" fill="none" stroke="#cec8bb" stroke-width="3.5" stroke-linecap="round" stroke-linejoin="round"/><path d="M126.0,146.1 L58.5,120.1 L37.9,115.1 L-0.7,116.4 L-17.3,120.3 L-58.1,133.5" fill="none" stroke="#ffffff" stroke-width="2.5" stroke-linecap="round" stroke-linejoin="round"></path><path d="M165.0,114.1 L126.0,146.1" fill="none" stroke="#cec8bb" stroke-width="3.5" stroke-linecap="round" stroke-linejoin="round"/><path d="M165.0,114.1 L126.0,146.1" fill="none" stroke="#ffffff" stroke-width="2.5" stroke-linecap="round" stroke-linejoin="round"></path><path d="M157.9,-29.6 L160.3,20.1 L165.0,114.1" fill="none" stroke="#cec8bb" stroke-width="3.5" stroke-linecap="round" stroke-linejoin="round"/><path d="M157.9,-29.6 L160.3,20.1 L165.0,114.1" fill="none" stroke="#ffffff" stroke-width="2.5" stroke-linecap="round" stroke-linejoin="round"></path><path d="M217.6,153.2 L423.5,134.4" fill="none" stroke="#cec8bb" stroke-width="4.8" stroke-linecap="round" stroke-linejoin="round"/><path d="M217.6,153.2 L423.5,134.4" fill="none" stroke="#ffffff" stroke-width="3.7" stroke-linecap="round" stroke-linejoin="round"><title>Northeast 60th Street</title></path><path d="M-185.1,227.0 L220.9,215.1" fill="none" stroke="#cec8bb" stroke-width="4.8" stroke-linecap="round" stroke-linejoin="round"/><path d="M-185.1,227.0 L220.9,215.1" fill="none" stroke="#ffffff" stroke-width="3.7" stroke-linecap="round" stroke-linejoin="round"><title>Northeast 60th Street</title></path><path d="M224.6,306.2 L223.8,286.6 L220.9,215.1 L219.5,188.5 L217.6,153.2" fill="none" stroke="#d1c4aa" stroke-width="6.4" stroke-linecap="round" stroke-linejoin="round"/><path d="M224.6,306.2 L223.8,286.6 L220.9,215.1 L219.5,188.5 L217.6,153.2" fill="none" stroke="#f1c77d" stroke-width="5.0" stroke-linecap="round" stroke-linejoin="round"><title>Northeast 2nd Avenue</title></path><path d="M217.6,153.2 L214.8,106.5 L212.0,58.5 L209.6,-3.5 L208.9,-20.2" fill="none" stroke="#d1c4aa" stroke-width="6.4" stroke-linecap="round" stroke-linejoin="round"/><path d="M217.6,153.2 L214.8,106.5 L212.0,58.5 L209.6,-3.5 L208.9,-20.2" fill="none" stroke="#f1c77d" stroke-width="5.0" stroke-linecap="round" stroke-linejoin="round"><title>Northeast 2nd Avenue</title></path><text x="118.4" y="218.1" transform="rotate(-1.7 118.4 218.1)" text-anchor="middle" dominant-baseline="central" font-family="Arial, sans-serif" font-size="8.3" textLength="111.6" lengthAdjust="spacing" font-weight="650" paint-order="stroke" stroke="#fffaf0" stroke-width="2.05" stroke-linejoin="round" fill="#695f54">Northeast 60th Street</text><text x="180.9" y="246.0" text-anchor="middle" font-family="Arial, sans-serif" font-size="6.5" textLength="18.0" lengthAdjust="spacing" font-weight="500" paint-order="stroke" stroke="#f3f5ee" stroke-width="1.55" stroke-linejoin="round" fill="#6f777a">5960</text><text x="40.7" y="187.1" text-anchor="middle" font-family="Arial, sans-serif" font-size="6.5" textLength="18.0" lengthAdjust="spacing" font-weight="500" paint-order="stroke" stroke="#f3f5ee" stroke-width="1.55" stroke-linejoin="round" fill="#6f777a">161</text><text x="43.7" y="246.0" text-anchor="middle" font-family="Arial, sans-serif" font-size="6.5" textLength="18.0" lengthAdjust="spacing" font-weight="500" paint-order="stroke" stroke="#f3f5ee" stroke-width="1.55" stroke-linejoin="round" fill="#6f777a">160</text><text x="98.1" y="181.1" text-anchor="middle" font-family="Arial, sans-serif" font-size="6.5" textLength="18.0" lengthAdjust="spacing" font-weight="500" paint-order="stroke" stroke="#f3f5ee" stroke-width="1.55" stroke-linejoin="round" fill="#6f777a">177</text><text x="69.4" y="190.2" text-anchor="middle" font-family="Arial, sans-serif" font-size="6.5" textLength="18.0" lengthAdjust="spacing" font-weight="500" paint-order="stroke" stroke="#f3f5ee" stroke-width="1.55" stroke-linejoin="round" fill="#6f777a">169</text><text x="70.0" y="246.0" text-anchor="middle" font-family="Arial, sans-serif" font-size="6.5" textLength="18.0" lengthAdjust="spacing" font-weight="500" paint-order="stroke" stroke="#f3f5ee" stroke-width="1.55" stroke-linejoin="round" fill="#6f777a">168</text><text x="94.7" y="246.0" text-anchor="middle" font-family="Arial, sans-serif" font-size="6.5" textLength="18.0" lengthAdjust="spacing" font-weight="500" paint-order="stroke" stroke="#f3f5ee" stroke-width="1.55" stroke-linejoin="round" fill="#6f777a">176</text><text x="15.0" y="183.5" text-anchor="middle" font-family="Arial, sans-serif" font-size="6.5" textLength="18.0" lengthAdjust="spacing" font-weight="500" paint-order="stroke" stroke="#f3f5ee" stroke-width="1.55" stroke-linejoin="round" fill="#6f777a">153</text><text x="128.4" y="179.8" text-anchor="middle" font-family="Arial, sans-serif" font-size="6.5" textLength="18.0" lengthAdjust="spacing" font-weight="500" paint-order="stroke" stroke="#f3f5ee" stroke-width="1.55" stroke-linejoin="round" fill="#6f777a">181</text><g><title>Northeast 2nd Avenue &amp; Northeast 60th Street</title><rect x="229.6" y="102.8" width="6.9" height="6.1" rx="1.3" fill="#2796c9" stroke="#ffffff" stroke-width="1.05"/><rect x="230.8" y="104.0" width="4.4" height="2.1" rx="0.35" fill="#ffffff"/><circle cx="231.2" cy="107.8" r="0.5" fill="#ffffff"/><circle cx="234.9" cy="107.8" r="0.5" fill="#ffffff"/></g></svg>