<svg xmlns="http://www.w3.org/2000/svg" width="256" height="256" viewBox="0 0 256 256"><rect width="256" height="256" fill="#f1efe7"/><path d="M-4586.8,1047.5 L-5131.0,645.8 L-5174.5,613.8 L-5221.7,603.5 L-5255.0,575.5 L-5281.6,572.4 L-5367.6,578.1 L-5367.5,570.0 L-5372.3,562.4 L-5381.9,556.5 L-5568.7,475.6 L-5581.4,469.8 L-5592.5,466.6 L-5606.3,465.5 L-5620.2,465.2 L-5666.6,465.2 L-5678.9,464.5 L-5691.0,462.1 L-5703.8,457.1 L-5719.2,453.0 L-5730.4,452.0 L-5763.3,450.6 L-5774.3,448.6 L-5788.3,444.1 L-5802.0,440.6 L-5815.3,437.5 L-5825.7,433.3 L-5838.3,425.5 L-5849.5,417.1 L-5860.4,408.9 L-5869.3,404.7 L-5876.1,403.3 L-5882.2,403.7 L-5888.7,405.5 L-5896.3,409.4 L-5902.3,416.0 L-5910.4,423.9 L-5919.4,432.2 L-5929.6,437.8 L-5942.5,442.0 L-5953.2,444.6 L-5966.1,446.6 L-5987.7,449.1 L-6041.9,451.7 L-6087.9,454.0 L-6107.7,461.1 L-6148.3,462.5 L-6153.8,454.0 L-6159.9,450.1 L-6166.2,448.9 L-6210.0,451.4 L-6229.0,458.2 L-6252.3,458.4 L-6268.0,456.1 L-6280.9,452.2 L-6328.0,455.0 L-6452.6,464.7 L-6481.3,465.5 L-6491.1,465.3 L-6499.9,463.1 L-6510.1,458.0 L-6517.6,452.0 L-6550.0,452.1 L-6577.1,451.7 L-6584.4,456.2 L-6621.7,457.1 L-6626.5,465.0 L-6631.8,465.2 L-6641.0,463.0 L-6657.5,461.0 L-6674.5,461.9 L-6679.7,463.5 L-6685.0,462.6 L-6688.6,459.1 L-6694.7,455.6 L-6717.4,455.7 L-6740.3,456.9 L-6762.0,469.7 L-6772.7,474.8 L-6784.9,477.5 L-6795.0,478.2 L-6804.1,476.8 L-6825.1,467.8 L-6837.1,464.0 L-6847.3,462.5 L-6892.0,463.1 L-6894.8,457.7 L-6934.3,458.6 L-6961.5,463.6 L-6979.4,465.7 L-6989.0,467.8 L-6992.7,465.3 L-6999.5,464.4 L-7063.2,458.6 L-7068.7,461.6 L-7075.4,463.0 L-7084.2,463.1 L-7084.2,459.9 L-7123.7,452.5 L-7148.6,447.7 L-7208.8,427.5 L-7212.1,432.0 L-7252.3,419.6 L-7260.7,416.8 L-7256.6,402.8 L-7261.4,401.3 L-7262.4,399.8 L-7265.0,399.0 L-7268.6,398.5 L-7273.0,396.3 L-7271.5,395.0 L-7289.3,380.5 L-7318.9,353.7 L-7334.8,339.7 L-7346.1,327.4 L-7352.4,319.1 L-7361.8,306.3 L-7367.2,296.4 L-7384.0,275.3 L-7385.6,274.1 L-7386.7,274.0 L-7387.9,274.2 L-7390.1,274.3 L-7392.1,273.3 L-7396.3,270.6 L-7404.9,266.1 L-7409.1,262.5 L-7414.0,258.2 L-7420.7,254.6 L-7431.2,251.3 L-7442.3,249.3 L-7451.8,249.1 L-7449.1,223.9 L-7446.9,191.0 L-7436.6,192.0 L-7426.3,193.8 L-7412.8,197.8 L-7402.9,201.5 L-7394.0,205.6 L-7385.4,209.6 L-7377.3,214.2 L-7370.7,219.3 L-7361.9,226.1 L-7352.7,233.0 L-7350.6,234.3 L-7348.7,234.7 L-7323.5,233.6 L-7323.2,239.3 L-7324.7,241.8 L-7343.6,243.6 L-7338.8,253.4 L-7335.5,252.2 L-7332.5,255.2 L-7330.6,258.1 L-7329.0,260.3 L-7325.1,265.5 L-7323.6,271.2 L-7317.5,279.6 L-7303.1,288.7 L-7285.2,297.8 L-7263.8,311.3 L-7254.0,315.9 L-7233.4,327.6 L-7223.7,332.7 L-7206.0,339.2 L-7171.2,348.5 L-7150.8,353.4 L-7132.2,355.3 L-7122.3,356.6 L-7120.1,356.4 L-7119.2,355.1 L-7118.9,348.5 L-7095.8,348.5 L-7095.3,355.9 L-7046.9,358.4 L-6999.7,359.8 L-6967.6,358.6 L-6957.0,357.8 L-6949.3,356.8 L-6943.0,355.0 L-6937.2,351.5 L-6934.3,346.8 L-6935.4,269.3 L-6915.9,268.2 L-6914.2,343.8 L-6913.1,345.7 L-6909.2,348.4 L-6904.7,349.7 L-6801.3,349.9 L-6801.8,316.6 L-6793.7,316.4 L-6790.3,349.9 L-6726.5,349.3 L-6726.5,345.7 L-6720.2,345.6 L-6720.0,348.2 L-6294.5,340.1 L-6263.7,336.5 L-6226.1,335.4 L-6190.5,340.1 L-6178.6,339.1 L-6169.9,337.4 L-6161.8,334.5 L-6151.3,330.5 L-5937.4,326.7 L-5937.5,311.9 L-5817.8,309.8 L-5817.7,326.1 L-5766.9,327.9 L-5763.0,327.8 L-5759.4,327.5 L-5754.7,326.9 L-5750.9,325.9 L-5747.2,324.7 L-5740.9,321.7 L-5738.0,326.7 L-5731.8,322.8 L-5726.1,318.2 L-5721.3,313.2 L-5717.1,307.3 L-5713.2,300.0 L-5720.5,295.9 L-5718.5,289.8 L-5717.2,283.5 L-5716.5,277.5 L-5716.4,272.8 L-5716.6,268.4 L-5717.3,230.5 L-5723.4,224.9 L-5718.2,219.4 L-5723.5,214.8 L-5717.5,207.7 L-5724.0,202.0 L-5718.8,196.5 L-5724.0,191.5 L-5717.9,185.0 L-5724.2,178.6 L-5711.1,164.2 L-5708.8,164.1 L-5714.5,-50.4 L-5666.4,-51.5 L-5664.1,-50.3 L-5661.5,-48.3 L-5659.6,-46.6 L-5658.8,-44.6 L-5658.1,-42.2 L-5657.9,-39.8 L-5653.8,293.5 L-5651.9,304.3 L-5649.2,311.6 L-5645.0,320.6 L-5640.1,329.4 L-5635.0,336.4 L-5630.9,340.7 L-5626.5,344.1 L-5621.4,347.1 L-5616.1,349.1 L-5608.9,351.2 L-5600.0,352.9 L-5589.2,354.9 L-5576.6,357.2 L-5564.6,359.8 L-5551.3,362.2 L-5538.7,364.9 L-5534.7,365.7 L-5529.8,366.7 L-5525.0,367.3 L-5520.8,367.4 L-5516.0,367.4 L-5512.3,367.2 L-5508.6,366.5 L-5505.4,365.7 L-5502.0,364.7 L-5499.1,363.4 L-5493.3,360.6 L-5488.2,357.6 L-5483.1,353.9 L-5477.2,348.2 L-5471.7,342.0 L-5468.7,336.7 L-5466.0,330.2 L-5464.6,324.9 L-5463.8,319.2 L-5463.3,313.8 L-5463.3,308.8 L-5470.6,-48.4 L-5460.2,-59.1 L-5456.4,-59.5 L-5454.9,-60.9 L-5433.2,-61.5 L-5431.3,-64.7 L-5428.0,-63.8 L-5422.5,-58.7 L-5418.7,-53.4 L-5414.9,-46.8 L-5407.7,352.4 L-5407.0,359.4 L-5405.7,373.3 L-5404.4,376.1 L-5405.4,376.8 L-5403.6,380.7 L-5401.3,385.3 L-5399.3,388.2 L-5396.9,391.7 L-5393.6,395.5 L-5389.7,399.5 L-5385.0,403.5 L-5380.8,406.6 L-5376.2,409.1 L-5371.8,411.3 L-5367.1,412.8 L-5366.5,411.4 L-5300.3,435.4 L-5292.0,438.5 L-5288.2,439.9 L-5282.3,442.0 L-5278.0,443.0 L-5274.3,443.5 L-5270.9,443.5 L-5266.1,443.1 L-5260.9,442.6 L-5256.3,441.6 L-5251.6,440.3 L-5248.1,438.9 L-5244.4,437.2 L-5241.4,435.3 L-5237.6,432.5 L-5232.8,428.3 L-5228.4,424.0 L-5223.6,418.0 L-5220.2,412.4 L-5217.4,406.2 L-5215.4,399.3 L-5214.2,392.3 L-5213.5,379.8 L-5213.8,354.3 L-5221.1,-51.8 L-5221.1,-56.3 L-5220.3,-59.5 L-5218.9,-62.1 L-5216.0,-64.5 L-5212.7,-66.2 L-5209.0,-66.8 L-5178.9,-67.8 L-5175.3,-67.2 L-5172.1,-65.8 L-5169.8,-63.6 L-5167.2,-59.8 L-5165.7,-54.4 L-5164.8,-47.1 L-5157.3,473.8 L-5156.9,476.9 L-5156.3,480.0 L-5155.4,483.2 L-5154.3,486.7 L-5153.1,490.2 L-5151.7,493.4 L-5150.5,496.1 L-5149.2,498.5 L-5147.3,501.5 L-5145.2,504.1 L-5143.3,506.5 L-5140.4,509.6 L-5137.6,512.3 L-5134.5,514.8 L-5131.2,517.3 L-5122.0,523.1 L-5121.1,522.0 L-5113.0,526.5 L-5103.4,531.7 L-5097.9,534.7 L-5091.8,538.3 L-5085.5,542.0 L-5079.0,546.0 L-5071.7,550.5 L-5064.5,555.0 L-5057.3,559.3 L-5051.3,563.0 L-5044.6,567.3 L-5037.5,571.9 L-5030.7,576.4 L-5024.4,580.7 L-5025.1,581.6 L-5016.3,587.7 L-5007.2,593.8 L-5004.4,595.5 L-5001.3,597.2 L-4996.9,599.3 L-4992.8,600.8 L-4988.4,602.0 L-4984.5,603.0 L-4979.9,603.7 L-4974.8,604.3 L-4970.4,604.3 L-4966.7,604.0 L-4963.5,603.3 L-4959.4,602.2 L-4955.3,600.9 L-4951.5,599.6 L-4948.0,597.9 L-4944.4,596.0 L-4940.9,593.8 L-4937.3,591.0 L-4934.1,588.1 L-4931.0,585.0 L-4928.1,581.8 L-4925.1,577.4 L-4922.6,573.0 L-4920.2,568.1 L-4918.8,564.3 L-4917.7,560.3 L-4916.9,556.0 L-4916.5,551.7 L-4916.8,546.8 L-4976.1,-20.9 L-4972.0,-21.3 L-4975.3,-49.7 L-4978.3,-49.5 L-4980.7,-62.6 L-4979.9,-65.3 L-4977.4,-69.3 L-4972.3,-73.2 L-4965.6,-74.0 L-4938.7,-74.9 L-4934.2,-74.0 L-4931.1,-72.5 L-4927.8,-69.9 L-4925.5,-67.5 L-4923.9,-65.0 L-4858.9,571.9 L-4857.4,577.4 L-4854.6,584.2 L-4852.2,588.6 L-4849.6,593.3 L-4846.2,597.9 L-4843.4,601.1 L-4840.3,604.3 L-4836.9,607.0 L-4833.9,609.1 L-4829.7,611.8 L-4826.0,613.7 L-4821.1,615.8 L-4816.5,617.2 L-4811.3,618.3 L-4807.3,618.9 L-4803.8,619.0 L-4799.7,619.1 L-4658.5,616.2 L-4653.9,615.6 L-4649.5,613.5 L-4646.3,610.6 L-4644.1,606.2 L-4643.3,602.2 L-4643.5,598.2 L-4715.0,-83.9 L-4778.0,-166.1 L-4780.8,-163.8 L-4835.6,-240.3 L-4836.6,-256.5 L-4838.3,-259.9 L-4841.2,-263.0 L-4844.9,-268.2 L-4845.2,-275.8 L-4851.7,-278.3 L-4858.0,-278.4 L-4866.5,-274.2 L-4856.9,-256.2 L-4869.0,-250.4 L-4878.1,-258.8 L-4885.9,-263.6 L-4891.2,-265.4 L-4904.2,-265.9 L-4910.8,-279.3 L-4869.3,-296.3 L-4871.3,-299.7 L-4880.1,-311.5 L-4881.5,-310.8 L-5190.4,-715.3 L-5195.1,-782.0 L-5192.6,-782.6 L-5204.5,-904.9 L-5209.1,-916.2 L-5214.1,-928.9 L-5217.9,-938.7 L-5222.5,-951.2 L-5237.5,-993.3 L-5243.6,-990.6 L-5252.5,-1024.7 L-5251.0,-1025.0 L-5282.1,-1109.3 L-5285.5,-1256.7 L-5281.9,-1256.7 L-5281.4,-1269.6 L-5279.6,-1282.3 L-5278.9,-1287.0 L-5280.2,-1290.8 L-5276.0,-1310.9 L-5237.7,-1378.7 L-5257.8,-1390.9 L-5242.9,-1415.6 L-5223.5,-1404.2 L-5221.8,-1406.8 L-5215.7,-1403.7 L-5209.1,-1401.1 L-5201.5,-1398.7 L-5195.8,-1397.5 L-5190.4,-1397.3 L-5184.0,-1398.4 L-5177.7,-1400.5 L-5171.5,-1402.9 L-5168.6,-1406.0 L-5167.5,-1410.1 L-5166.0,-1415.0 L-5165.7,-1417.0 L-5165.8,-1419.5 L-5167.2,-1423.4 L-5169.8,-1427.1 L-5172.8,-1429.2 L-5177.2,-1433.4 L-5181.0,-1437.4 L-5186.6,-1441.0 L-5188.9,-1446.7 L-5191.6,-1452.4 L-5195.9,-1459.1 L-5200.8,-1464.9 L-5209.8,-1471.3 L-5253.4,-1493.9 L-5279.2,-1506.7 L-5303.3,-1519.7 L-5326.2,-1532.4 L-5341.0,-1542.0 L-5346.7,-1543.5 L-5353.0,-1541.6 L-5356.5,-1537.3 L-5363.6,-1519.6 L-5407.7,-1539.4 L-5381.3,-1581.1 L-5375.5,-1583.8 L-5368.4,-1585.2 L-5360.1,-1583.4 L-5194.4,-1486.5 L-5185.4,-1483.8 L-5176.0,-1481.5 L-5162.7,-1481.2 L-5149.2,-1483.6 L-5140.6,-1487.1 L-5131.2,-1494.7 L-5125.7,-1500.0 L-5119.8,-1508.3 L-5119.9,-1509.4 L-5120.3,-1510.4 L-5121.2,-1511.2 L-5174.8,-1544.3 L-5176.1,-1544.7 L-5177.5,-1544.8 L-5178.9,-1544.7 L-5184.0,-1542.5 L-5185.9,-1542.3 L-5188.0,-1542.5 L-5191.1,-1543.0 L-5193.5,-1543.7 L-5196.9,-1545.4 L-5200.2,-1547.3 L-5273.9,-1592.3 L-5308.6,-1616.7 L-5311.9,-1617.2 L-5315.2,-1617.1 L-5319.1,-1617.0 L-5321.7,-1617.4 L-5323.9,-1618.4 L-5326.5,-1620.4 L-5329.4,-1622.7 L-5331.4,-1625.5 L-5332.6,-1628.3 L-5332.8,-1630.4 L-5332.5,-1633.1 L-5332.0,-1635.4 L-5320.2,-1655.2 L-5320.2,-1656.1 L-5321.1,-1656.8 L-5331.9,-1664.4 L-5334.0,-1667.5 L-5332.8,-1669.4 L-5329.3,-1668.9 L-5325.5,-1667.8 L-5303.3,-1654.1 L-5177.5,-1573.8 L-5174.9,-1572.3 L-5173.1,-1570.4 L-5171.9,-1568.2 L-5170.6,-1563.6 L-5169.7,-1560.0 L-5169.2,-1556.9 L-5112.4,-1522.8 L-5110.4,-1521.9 L-5108.0,-1521.7 L-5105.2,-1522.1 L-5103.2,-1522.8 L-5101.5,-1523.6 L-5040.4,-1622.5 L-5014.8,-1660.1 L-4990.9,-1687.0 L-4978.8,-1680.3 L-4971.0,-1692.9 L-5012.5,-1717.7 L-5003.7,-1732.1 L-4962.2,-1707.1 L-4952.9,-1722.3 L-4960.4,-1730.7 L-4952.8,-1739.4 L-4944.6,-1730.0 L-4942.6,-1731.5 L-4940.3,-1733.1 L-4937.1,-1734.9 L-4933.8,-1736.5 L-4929.7,-1738.0 L-4925.8,-1739.1 L-4921.6,-1739.8 L-4917.4,-1740.1 L-4913.4,-1740.0 L-4909.5,-1739.4 L-4905.8,-1738.5 L-4902.7,-1737.6 L-4900.0,-1736.4 L-4896.2,-1734.6 L-4892.7,-1732.4 L-4889.7,-1730.3 L-4886.7,-1727.6 L-4884.0,-1725.0 L-4881.0,-1721.1 L-4878.9,-1717.6 L-4876.8,-1713.1 L-4875.4,-1708.6 L-4874.2,-1702.4 L-4873.8,-1697.0 L-4873.9,-1693.9 L-4874.3,-1690.7 L-4875.4,-1685.9 L-4878.2,-1679.3 L-4880.0,-1675.0 L-4882.5,-1669.9 L-4872.1,-1664.7 L-4823.5,-1722.7 L-4912.0,-1776.5 L-4907.5,-1786.1 L-4904.3,-1795.0 L-4904.1,-1798.8 L-4899.0,-1809.7 L-4888.5,-1819.4 L-4875.5,-1830.0 L-4860.0,-1839.9 L-4830.9,-1848.4 L-4780.7,-1853.4 L-4760.9,-1869.4 L-4756.8,-1870.1 L-4753.5,-1870.3 L-4748.8,-1868.5 L-4744.5,-1868.0 L-4716.6,-1851.1 L-4643.2,-1938.2 L-4912.2,-2109.2 L-4928.9,-2082.9 L-4965.2,-2105.9 L-4913.7,-2186.9 L-4877.5,-2164.5 L-4893.6,-2136.9 L-4619.9,-1964.4 L-4585.4,-2008.7 L-4561.0,-2037.7 L-4528.8,-2086.1 L-4511.0,-2110.5 L-4512.8,-2124.4 L-4512.3,-2124.8 L-4515.5,-2135.1 L-4517.6,-2141.5 L-4519.6,-2148.1 L-4522.0,-2153.8 L-4526.6,-2161.3 L-4531.2,-2168.6 L-4533.2,-2172.4 L-4534.7,-2176.2 L-4535.8,-2179.7 L-4536.2,-2182.8 L-4536.7,-2193.0 L-4654.9,-2301.5 L-4658.8,-2297.3 L-4662.1,-2300.1 L-4671.7,-2290.6 L-4678.0,-2299.0 L-4670.4,-2307.8 L-4678.0,-2317.5 L-4683.2,-2316.1 L-4688.6,-2315.9 L-4693.5,-2316.8 L-4697.8,-2318.6 L-4702.8,-2322.3 L-4709.0,-2328.4 L-4719.9,-2340.4 L-4723.2,-2345.5 L-4724.4,-2351.9 L-4723.6,-2359.5 L-4720.7,-2366.5 L-4718.2,-2371.3 L-4713.4,-2376.1 L-4708.1,-2379.7 L-4703.0,-2381.6 L-4699.2,-2382.2 L-4694.2,-2381.3 L-4689.1,-2379.5 L-4684.3,-2375.7 L-4673.2,-2365.7 L-4667.5,-2360.3 L-4662.3,-2354.6 L-4660.6,-2351.9 L-4659.4,-2349.0 L-4658.7,-2346.4 L-4658.2,-2342.8 L-4658.8,-2339.4 L-4659.8,-2336.2 L-4661.2,-2333.8 L-4661.6,-2332.7 L-4661.3,-2331.3 L-4660.5,-2329.9 L-4533.6,-2211.0 L-4529.2,-2208.0 L-4526.1,-2206.7 L-4521.7,-2207.7 L-4516.5,-2208.1 L-4509.9,-2205.3 L-4503.3,-2201.2 L-4490.4,-2193.9 L-4485.0,-2191.3 L-4480.1,-2196.1 L-4474.7,-2201.3 L-4471.1,-2205.4 L-4465.1,-2213.2 L-4461.7,-2217.9 L-4458.1,-2223.7 L-4455.8,-2228.8 L-4453.3,-2234.2 L-4451.0,-2239.9 L-4448.9,-2245.7 L-4447.7,-2250.6 L-4446.3,-2256.8 L-4445.7,-2260.5 L-4445.3,-2263.5 L-4444.6,-2268.8 L-4443.9,-2274.0 L-4443.6,-2277.4 L-4443.4,-2281.1 L-4443.4,-2285.4 L-4443.6,-2289.0 L-4444.3,-2294.0 L-4445.1,-2299.7 L-4445.9,-2305.0 L-4446.4,-2309.3 L-4447.0,-2312.5 L-4447.7,-2315.9 L-4448.5,-2319.3 L-4449.7,-2323.3 L-4451.1,-2327.3 L-4452.2,-2329.7 L-4453.4,-2332.1 L-4455.1,-2334.4 L-4457.4,-2337.7 L-4459.9,-2340.8 L-4462.6,-2343.4 L-4466.0,-2346.2 L-4469.5,-2348.4 L-4473.0,-2350.3 L-4476.2,-2351.5 L-4478.4,-2352.2 L-4480.9,-2352.5 L-4483.9,-2352.4 L-4486.7,-2351.8 L-4488.9,-2350.9 L-4491.0,-2349.4 L-4492.5,-2347.8 L-4493.7,-2346.3 L-4494.6,-2344.0 L-4495.1,-2341.5 L-4495.0,-2338.5 L-4494.8,-2335.0 L-4494.8,-2332.4 L-4495.0,-2329.8 L-4495.4,-2327.2 L-4495.9,-2324.9 L-4496.8,-2322.5 L-4498.2,-2319.9 L-4499.9,-2317.4 L-4501.6,-2315.1 L-4503.3,-2313.5 L-4506.7,-2310.8 L-4509.5,-2308.9 L-4513.9,-2307.6 L-4516.5,-2307.0 L-4519.5,-2306.6 L-4522.2,-2306.5 L-4525.8,-2306.7 L-4528.4,-2307.2 L-4532.0,-2308.0 L-4537.0,-2309.5 L-4541.2,-2311.1 L-4544.3,-2312.3 L-4547.6,-2314.1 L-4550.5,-2316.1 L-4553.7,-2318.6 L-4556.2,-2320.9 L-4558.3,-2323.0 L-4560.5,-2325.6 L-4562.3,-2328.0 L-4564.0,-2330.4 L-4565.5,-2333.1 L-4567.1,-2336.7 L-4568.5,-2340.0 L-4569.9,-2343.6 L-4570.8,-2346.4 L-4571.5,-2349.0 L-4572.0,-2351.7 L-4572.4,-2355.9 L-4572.7,-2359.6 L-4572.5,-2363.6 L-4571.6,-2368.9 L-4570.1,-2374.1 L-4568.2,-2379.5 L-4566.9,-2382.0 L-4565.6,-2383.5 L-4555.3,-2396.6 L-4552.9,-2399.3 L-4549.8,-2400.8 L-4546.5,-2402.0 L-4542.8,-2402.8 L-4538.7,-2403.3 L-4535.1,-2403.5 L-4531.5,-2403.4 L-4527.9,-2403.0 L-4523.8,-2401.8 L-4519.5,-2399.7 L-4515.8,-2397.4 L-4512.5,-2394.8 L-4502.1,-2385.2 L-4499.6,-2384.4 L-4498.2,-2384.1 L-4496.5,-2384.5 L-4495.4,-2384.9 L-4494.0,-2386.5 L-4493.4,-2388.1 L-4493.3,-2390.3 L-4493.2,-2392.3 L-4493.6,-2393.2 L-4514.6,-2414.0 L-4486.0,-2444.5 L-4487.6,-2448.1 L-4471.1,-2464.4 L-4439.3,-2432.6 L-4464.9,-2400.0 L-4465.1,-2398.1 L-4463.8,-2397.3 L-4462.2,-2397.7 L-4434.1,-2432.9 L-4425.9,-2442.8 L-4425.6,-2445.1 L-4426.3,-2447.1 L-4427.8,-2448.9 L-4449.8,-2469.7 L-4444.3,-2476.1 L-4449.9,-2480.8 L-4446.7,-2488.2 L-4389.7,-2545.5 L-4370.1,-2548.8 L-4364.0,-2549.7 L-4358.2,-2550.5 L-4355.5,-2551.2 L-4352.3,-2552.9 L-4348.5,-2555.0 L-4345.6,-2557.9 L-4342.8,-2561.4 L-4313.7,-2603.7 L-4313.1,-2604.8 L-4313.4,-2606.2 L-4313.8,-2607.2 L-4314.5,-2608.1 L-4318.0,-2610.3 L-4318.9,-2610.8 L-4319.7,-2610.7 L-4320.6,-2610.2 L-4322.5,-2608.8 L-4346.9,-2586.0 L-4356.4,-2579.2 L-4395.4,-2619.2 L-4390.9,-2633.4 L-4389.0,-2637.6 L-4382.9,-2648.8 L-4375.8,-2661.3 L-4371.5,-2666.1 L-4363.8,-2674.3 L-4355.6,-2683.3 L-4346.6,-2692.8 L-4338.9,-2699.4 L-4335.2,-2702.7 L-4330.3,-2706.3 L-4325.8,-2708.7 L-4319.4,-2711.6 L-4315.4,-2713.0 L-4311.4,-2714.2 L-4308.3,-2714.5 L-4303.9,-2714.2 L-4300.2,-2713.7 L-4296.0,-2712.5 L-4291.9,-2709.1 L-4289.4,-2705.6 L-4287.9,-2702.0 L-4287.3,-2696.6 L-4287.5,-2689.5 L-4288.4,-2681.5 L-4290.1,-2673.8 L-4300.4,-2650.8 L-4310.2,-2630.1 L-4306.8,-2624.6 L-4305.0,-2623.5 L-4303.1,-2623.5 L-4301.4,-2623.9 L-4300.1,-2624.7 L-4293.4,-2634.2 L-4284.8,-2638.5 L-4267.7,-2684.2 L-4266.5,-2686.5 L-4264.8,-2688.5 L-4263.1,-2689.4 L-4261.5,-2689.8 L-4259.2,-2689.8 L-4256.8,-2689.2 L-4244.3,-2685.7 L-4241.9,-2685.2 L-4239.1,-2685.1 L-4236.5,-2685.5 L-4234.4,-2686.4 L-4232.6,-2687.8 L-4230.8,-2690.1 L-4209.8,-2718.2 L-4208.8,-2720.3 L-4208.3,-2722.5 L-4208.3,-2724.6 L-4208.7,-2726.8 L-4209.5,-2728.4 L-4210.7,-2730.0 L-4212.1,-2731.3 L-4214.1,-2732.3 L-4216.0,-2732.8 L-4217.9,-2732.9 L-4219.5,-2732.6 L-4221.4,-2731.7 L-4222.8,-2730.7 L-4223.9,-2729.3 L-4229.4,-2720.4 L-4230.6,-2718.7 L-4232.0,-2717.1 L-4234.1,-2715.3 L-4236.0,-2714.2 L-4238.3,-2713.5 L-4241.1,-2712.9 L-4242.7,-2712.9 L-4244.9,-2713.2 L-4246.8,-2713.7 L-4248.4,-2714.4 L-4265.6,-2730.0 L-4267.6,-2732.4 L-4269.1,-2734.6 L-4270.5,-2737.3 L-4271.4,-2739.6 L-4272.0,-2742.0 L-4272.5,-2744.6 L-4272.8,-2747.8 L-4272.9,-2751.0 L-4272.6,-2753.7 L-4272.2,-2756.0 L-4271.7,-2758.0 L-4270.9,-2759.7 L-4239.6,-2809.4 L-4237.6,-2812.7 L-4236.4,-2814.4 L-4235.0,-2815.2 L-4232.7,-2816.2 L-4230.3,-2816.9 L-4228.0,-2817.3 L-4226.7,-2817.3 L-4225.4,-2817.1 L-4224.3,-2816.7 L-4222.7,-2815.9 L-4220.8,-2814.7 L-4217.6,-2812.1 L-4203.3,-2798.7 L-4200.9,-2795.3 L-4199.5,-2792.0 L-4198.2,-2788.1 L-4197.8,-2785.1 L-4197.6,-2781.9 L-4197.6,-2779.2 L-4197.9,-2776.5 L-4198.4,-2773.8 L-4199.0,-2772.0 L-4200.6,-2768.3 L-4206.3,-2757.7 L-4206.9,-2755.3 L-4206.9,-2752.4 L-4206.7,-2750.2 L-4205.9,-2748.5 L-4204.4,-2746.9 L-4202.0,-2745.2 L-4200.0,-2744.1 L-4197.7,-2743.6 L-4195.0,-2743.7 L-4192.8,-2744.2 L-4190.3,-2745.5 L-4188.1,-2747.5 L-4151.1,-2798.3 L-4162.4,-2808.5 L-4155.6,-2815.8 L-4145.5,-2806.1 L-4124.7,-2833.4 L-4093.2,-2875.5 L-4220.0,-2997.0 L-4247.5,-2968.1 L-4279.8,-2998.6 L-4248.6,-3032.2 L-4252.7,-3036.7 L-4246.2,-3042.7 L-4242.2,-3038.6 L-4220.5,-3062.2 L-4201.0,-3044.1 L-4198.7,-3029.1 L-4116.7,-2952.6 L-4100.7,-2946.4 L-4087.9,-2950.9 L-4063.6,-2941.2 L-4047.5,-2947.1 L-3999.6,-3005.6 L-3996.9,-3011.1 L-3996.1,-3018.5 L-3998.5,-3025.8 L-4001.7,-3031.0 L-4030.1,-3057.2 L-4029.7,-3064.4 L-4024.1,-3078.5 L-4012.9,-3099.4 L-4035.0,-3113.7 L-4026.6,-3116.9 L-4021.3,-3120.3 L-4016.0,-3126.3 L-4009.8,-3142.2 L-3998.4,-3171.2 L-3991.0,-3178.0 L-4061.2,-3246.0 L-4076.6,-3236.4 L-4080.2,-3235.5 L-4083.6,-3235.4 L-4088.0,-3235.9 L-4091.6,-3236.9 L-4095.1,-3239.0 L-4098.0,-3241.5 L-4134.3,-3276.5 L-4141.1,-3283.3 L-4144.1,-3286.9 L-4146.6,-3291.4 L-4147.8,-3295.5 L-4148.3,-3299.5 L-4148.2,-3303.3 L-4147.5,-3306.9 L-4146.6,-3309.8 L-4145.4,-3311.9 L-4142.8,-3315.6 L-4139.7,-3319.3 L-4123.4,-3336.2 L-3999.4,-3221.3 L-4007.9,-3211.7 L-3916.0,-3124.8 L-3810.1,-3279.9 L-3877.3,-3342.7 L-3885.9,-3335.0 L-4011.4,-3453.5 L-3995.0,-3468.8 L-3922.9,-3401.2 L-3915.7,-3411.8 L-3911.7,-3417.1 L-3906.6,-3422.3 L-3900.7,-3428.8 L-3894.7,-3432.7 L-3885.2,-3440.7 L-3875.7,-3449.5 L-3857.5,-3466.7 L-3814.0,-3515.6 L-3806.2,-3523.7 L-3777.5,-3538.4 L-3750.3,-3559.7 L-3747.7,-3561.7 L-3740.6,-3567.2 L-3737.5,-3570.0 L-3735.0,-3573.2 L-3733.3,-3576.5 L-3732.2,-3579.8 L-3730.9,-3582.3 L-3729.4,-3585.0 L-3726.8,-3589.3 L-3725.0,-3592.0 L-3723.2,-3594.5 L-3719.9,-3597.1 L-3716.7,-3599.3 L-3713.2,-3601.4 L-3704.9,-3605.4 L-3696.9,-3609.4 L-3695.7,-3609.6 L-3694.5,-3609.4 L-3692.1,-3608.7 L-3685.6,-3605.4 L-3680.7,-3603.0 L-3678.4,-3601.6 L-3676.3,-3599.9 L-3642.9,-3568.2 L-3640.6,-3566.9 L-3629.7,-3564.0 L-3626.2,-3563.0 L-3622.3,-3562.6 L-3619.3,-3562.7 L-3617.0,-3563.5 L-3614.7,-3565.1 L-3602.8,-3581.9 L-3602.8,-3584.2 L-3603.2,-3586.3 L-3604.5,-3588.6 L-3606.5,-3590.8 L-3615.6,-3599.3 L-3614.9,-3600.7 L-3603.2,-3625.5 L-3583.2,-3665.8 L-3565.0,-3679.2 L-3554.5,-3689.7 L-3547.3,-3698.0 L-3539.7,-3705.7 L-3531.3,-3712.6 L-3526.2,-3717.3 L-3520.8,-3722.2 L-3516.8,-3726.2 L-3514.8,-3729.8 L-3513.2,-3732.6 L-3512.2,-3735.3 L-3511.8,-3738.5 L-3511.6,-3741.7 L-3505.5,-3747.9 L-3496.5,-3756.4 L-3481.5,-3768.7 L-3465.8,-3780.6 L-3458.8,-3790.4 L-3456.2,-3800.5 L-3448.4,-3805.3 L-3438.6,-3805.5 L-3428.7,-3811.4 L-3420.0,-3827.1 L-3420.2,-3843.4 L-3418.6,-3868.6 L-3416.1,-3872.2 L-3414.6,-3874.6 L-3411.8,-3879.2 L-3415.3,-3889.9 L-3411.3,-3894.9 L-3391.5,-3919.4 L-3357.5,-3959.1 L-3351.0,-3968.5 L-3348.4,-3973.4 L-3337.6,-3988.3 L-3334.6,-3997.7 L-3334.5,-4012.2 L-3334.9,-4026.7 L-3335.0,-4041.5 L-3330.6,-4057.8 L-3323.2,-4073.9 L-3312.6,-4089.4 L-3304.9,-4100.9 L-3295.8,-4112.4 L-3278.2,-4132.0 L-3200.2,-4170.6 L-3189.9,-4173.3 L-3187.3,-4167.7 L-3184.2,-4162.3 L-3183.2,-4161.3 L-3181.5,-4162.0 L-3181.2,-4165.8 L-3182.4,-4169.0 L-3178.1,-4170.3 L-3162.1,-4175.0 L-3141.3,-4181.2 L-3124.5,-4186.2 L-3118.5,-4188.0 L-3124.5,-4206.9 L-3114.1,-4209.7 L-3096.8,-4212.1 L-3094.7,-4212.4 L-3094.6,-4213.6 L-3094.6,-4218.0 L-3078.9,-4218.7 L-3054.3,-4219.7 L-3044.8,-4215.1 L-3021.1,-4129.7 L-3015.8,-4124.6 L-3026.1,-4114.0 L-3017.0,-4105.0 L-3008.0,-4096.0 L-2997.2,-4107.0 L-2796.7,-3916.4 L-2529.1,-4202.0 L-2435.6,-4112.6 L-2432.0,-4113.7 L-2430.6,-4112.1 L-2424.3,-4116.1 L-2419.1,-4118.0 L-2413.6,-4120.5 L-2404.2,-4125.4 L-2398.4,-4128.7 L-2391.5,-4132.7 L-2385.1,-4136.7 L-2379.9,-4140.1 L-2375.1,-4143.2 L-2369.5,-4147.3 L-2363.1,-4152.0 L-2358.2,-4156.1 L-2353.0,-4160.7 L-2347.3,-4166.1 L-2341.9,-4171.5 L-2329.3,-4184.9 L-2321.7,-4194.0 L-2314.3,-4203.9 L-2309.2,-4211.1 L-2304.4,-4218.5 L-2298.7,-4228.8 L-2293.7,-4238.9 L-2289.7,-4247.2 L-2286.3,-4255.5 L-2284.2,-4261.0 L-2281.9,-4267.2 L-2276.5,-4273.9 L-2447.5,-4436.6 L-2445.4,-4438.9 L-2424.9,-4460.9 L-2410.0,-4476.7 L-2408.5,-4478.3 L-2365.1,-4437.7 L-2354.6,-4443.1 L-2353.4,-4441.6 L-2251.4,-4494.7 L-2247.2,-4496.9 L-2244.3,-4499.2 L-2241.6,-4501.7 L-2238.5,-4504.9 L-2235.5,-4509.4 L-2232.9,-4513.6 L-2231.2,-4516.8 L-2230.0,-4520.9 L-2228.9,-4525.4 L-2228.4,-4530.3 L-2228.4,-4535.8 L-2228.8,-4540.2 L-2229.6,-4544.1 L-2230.9,-4548.8 L-2262.8,-4640.6 L-2267.1,-4655.7 L-2266.0,-4660.9 L-2343.0,-4680.0 L-2339.4,-4693.3 L-2336.4,-4705.3 L-2313.6,-4795.5 L-2331.3,-4848.1 L-2341.7,-4882.1 L-2344.7,-4890.6 L-2317.1,-4915.9 L-2286.0,-4932.6 L-2284.1,-4930.0 L-2281.1,-4925.7 L-2274.1,-4916.6 L-2273.3,-4917.4 L-2273.1,-4920.5 L-2282.8,-4933.9 L-2265.5,-4946.3 L-2261.7,-4948.5 L-2252.7,-4936.8 L-2251.2,-4935.7 L-2249.7,-4935.4 L-2248.9,-4935.6 L-2248.9,-4936.4 L-2291.7,-4995.0 L-2294.8,-4998.4 L-2298.4,-5003.3 L-2317.0,-5025.8 L-2301.1,-5075.1 L-2288.9,-5087.8 L-2274.8,-5094.4 L-2244.8,-5112.2 L-2238.6,-5118.6 L-2211.7,-5142.2 L-2203.2,-5133.3 L-2178.3,-5106.4 L-2155.2,-5125.8 L-2139.7,-5110.9 L-2125.8,-5097.3 L-2125.1,-5096.6 L-2113.3,-5106.7 L-2097.7,-5090.1 L-2084.3,-5072.9 L-2074.4,-5061.4 L-2073.1,-5059.9 L-2044.3,-5085.2 L-2042.8,-5086.5 L-2049.6,-5094.8 L-2033.9,-5107.7 L-1986.3,-5052.2 L-1945.8,-5078.9 L-1941.8,-5082.7 L-1924.2,-5090.1 L-1920.2,-5094.0 L-1916.4,-5099.0 L-1894.7,-5118.3 L-1899.6,-5125.0 L-1938.4,-5116.1 L-1982.8,-5166.6 L-1977.7,-5171.0 L-1971.0,-5163.2 L-1939.6,-5190.2 L-1906.3,-5153.8 L-1897.3,-5150.2 L-1891.9,-5147.1 L-1885.1,-5139.4 L-1881.4,-5142.7 L-1905.5,-5170.1 L-1890.7,-5182.9 L-1860.8,-5147.0 L-1857.0,-5149.8 L-1857.4,-5150.6 L-1791.8,-5198.0 L-1772.3,-5212.4 L-1836.0,-5292.0 L-1822.4,-5301.5 L-1767.0,-5236.6 L-1726.1,-5229.1 L-1699.1,-5244.9 L-1695.3,-5247.3 L-1695.5,-5250.3 L-1697.4,-5253.8 L-1676.3,-5267.1 L-1670.1,-5260.9 L-1652.3,-5271.4 L-1665.2,-5287.4 L-1727.5,-5370.7 L-1683.5,-5416.3 L-1654.6,-5459.0 L-1653.9,-5492.4 L-1669.3,-5536.8 L-1636.9,-5563.8 L-1602.9,-5576.9 L-1591.7,-5579.5 L-1582.7,-5580.7 L-1571.7,-5580.0 L-1560.3,-5577.2 L-1543.8,-5563.1 L-1501.0,-5510.9 L-1466.8,-5467.5 L-1425.9,-5440.2 L-1409.8,-5437.6 L-1395.4,-5435.9 L-1383.2,-5435.4 L-1367.6,-5436.5 L-1350.7,-5439.3 L-1337.0,-5443.2 L-1325.4,-5448.6 L-1317.7,-5453.1 L-1312.0,-5459.1 L-1302.4,-5470.7 L-1292.0,-5489.7 L-1280.7,-5514.9 L-1260.6,-5504.6 L-1252.6,-5501.9 L-1244.0,-5500.7 L-1230.3,-5501.6 L-1221.2,-5504.3 L-1210.8,-5508.8 L-1201.1,-5514.4 L-1190.8,-5524.4 L-1182.0,-5532.4 L-1171.0,-5539.9 L-1163.4,-5544.8 L-1152.2,-5548.8 L-1132.9,-5554.4 L-1121.5,-5557.6 L-1109.3,-5562.2 L-1098.7,-5567.7 L-1092.4,-5571.3 L-1087.4,-5576.5 L-1022.0,-5609.3 L-1019.5,-5610.7 L-1016.6,-5612.5 L-1013.6,-5614.8 L-1009.2,-5617.3 L-1006.3,-5618.7 L-1003.2,-5621.4 L-1000.8,-5623.9 L-997.6,-5626.0 L-994.2,-5628.4 L-989.7,-5632.6 L-983.3,-5633.1 L-976.7,-5633.9 L-972.4,-5635.3 L-966.8,-5637.9 L-959.9,-5641.0 L-952.6,-5645.5 L-948.5,-5649.4 L-943.9,-5654.7 L-941.0,-5659.6 L-939.4,-5664.1 L-939.3,-5667.3 L-939.2,-5669.9 L-937.6,-5680.3 L-901.2,-5701.4 L-837.4,-5738.2 L-825.0,-5745.3 L-716.8,-5807.7 L-599.6,-5875.0 L-549.7,-5903.6 L-532.4,-5913.3 L-387.5,-5997.5 L-355.3,-6015.2 L-355.8,-6016.3 L-289.5,-6053.8 L-264.0,-6068.1 L-217.0,-6094.1 L-216.5,-6093.4 L-198.3,-6103.4 L-154.1,-6128.1 L-148.8,-6132.9 L-104.0,-6165.7 L-81.7,-6184.2 L-61.2,-6201.5 L-51.8,-6206.8 L-30.6,-6227.8 L-28.8,-6226.7 L-26.0,-6227.0 L-24.6,-6226.1 L5.2,-6261.0 L-2.3,-6268.0 L-1.3,-6269.8 L1.9,-6274.4 L10.5,-6285.3 L15.7,-6293.2 L19.8,-6299.7 L25.5,-6308.4 L31.0,-6317.4 L37.2,-6327.7 L43.6,-6338.9 L57.5,-6367.6 L61.8,-6376.7 L65.3,-6384.0 L67.7,-6389.5 L69.8,-6393.7 L74.2,-6404.7 L-41.6,-6620.7 L-43.8,-6624.8 L-45.5,-6627.1 L-46.7,-6628.8 L-48.3,-6630.2 L-49.8,-6631.2 L-51.8,-6632.4 L-53.9,-6633.2 L-55.7,-6633.6 L-57.5,-6633.8 L-60.2,-6633.8 L-63.3,-6633.3 L-66.0,-6632.5 L-68.8,-6631.1 L-95.7,-6615.6 L-130.8,-6595.5 L-155.3,-6581.9 L-200.0,-6557.3 L-227.4,-6542.4 L-226.4,-6540.7 L-238.1,-6534.0 L-276.4,-6514.2 L-304.8,-6497.4 L-321.5,-6488.1 L-346.9,-6473.5 L-349.8,-6471.5 L-372.1,-6511.6 L-328.3,-6535.6 L-268.5,-6568.1 L-227.8,-6590.7 L-222.8,-6593.6 L-223.5,-6594.7 L-188.3,-6613.9 L-169.6,-6624.2 L-126.7,-6645.1 L-118.5,-6649.3 L-53.8,-6685.3 L-29.5,-6698.7 L-12.4,-6707.9 L7.8,-6719.5 L35.8,-6668.9 L-8.2,-6644.8 L-10.5,-6641.1 L-11.4,-6637.2 L-11.8,-6634.2 L-11.9,-6631.6 L-11.7,-6629.5 L-10.9,-6626.6 L78.8,-6460.7 L80.5,-6458.2 L82.5,-6456.3 L84.5,-6455.0 L86.6,-6454.3 L88.9,-6454.0 L91.1,-6454.2 L92.8,-6454.7 L132.6,-6484.9 L151.3,-6500.6 L170.6,-6516.9 L177.9,-6523.6 L201.8,-6543.2 L202.9,-6543.2 L226.1,-6563.0 L226.2,-6564.2 L241.4,-6576.7 L253.4,-6586.5 L274.0,-6603.5 L275.9,-6601.2 L296.1,-6617.9 L306.3,-6626.4 L334.6,-6649.9 L354.3,-6666.3 L352.4,-6669.1 L358.9,-6674.6 L369.6,-6683.4 L376.2,-6689.2 L404.1,-6701.7 L423.0,-6708.3 L432.7,-6712.9 L459.9,-6713.1 L469.4,-6713.1 L489.5,-6712.1 L513.0,-6711.1 L514.7,-6712.7 L517.0,-6709.7 L524.4,-6709.3 L591.7,-6703.5 L599.6,-6701.8 L606.5,-6700.7 L622.1,-6699.4 L651.2,-6698.0 L657.6,-6697.9 L663.6,-6698.1 L686.9,-6699.0 L698.9,-6699.6 L710.8,-6700.7 L729.1,-6702.6 L729.0,-6701.5 L743.5,-6704.0 L757.2,-6706.6 L767.7,-6708.5 L781.5,-6718.9 L783.1,-6716.7 L784.8,-6714.3 L906.4,-6553.5 L1199.9,-6452.3 L1738.5,-6847.9 L1885.3,-6953.6 L1942.0,-7074.6 L1851.8,-7192.8 L1855.8,-7209.7 L1871.6,-7214.0 L1902.0,-7207.7 L1923.6,-7215.8 L1929.6,-7224.2 L1928.3,-7231.5 L1912.2,-7263.1 L1911.1,-7274.9 L1910.2,-7298.3 L1907.4,-7320.9 L1910.2,-7324.9 L1919.3,-7329.3 L1930.4,-7331.8 L1938.4,-7340.4 L1940.2,-7350.8 L1933.4,-7370.9 L1932.7,-7384.8 L1934.9,-7400.6 L1945.9,-7428.3 L1943.6,-7441.1 L1938.1,-7455.4 L1937.9,-7474.8 L1934.7,-7500.4 L1928.9,-7516.4 L1925.3,-7524.8 L1927.7,-7528.5 L1930.0,-7528.3 L1930.6,-7529.8 L1930.9,-7531.8 L1930.8,-7533.8 L1927.3,-7534.2 L1925.1,-7537.3 L1925.5,-7541.0 L1922.5,-7541.8 L1918.8,-7541.9 L1918.3,-7541.0 L1910.7,-7550.0 L1909.1,-7552.8 L1907.8,-7556.7 L1906.9,-7560.5 L1906.2,-7564.5 L1905.9,-7568.5 L1905.7,-7572.1 L1905.7,-7575.8 L1906.0,-7577.8 L1907.6,-7582.8 L1909.4,-7586.8 L1911.7,-7590.7 L1915.1,-7595.6 L1918.6,-7600.3 L1921.9,-7603.7 L1926.0,-7606.8 L1926.8,-7606.0 L1961.9,-7632.8 L1967.0,-7636.7 L1966.0,-7638.2 L1966.0,-7640.8 L1974.7,-7647.6 L1976.9,-7647.5 L1979.0,-7646.0 L1982.7,-7648.8 L2018.7,-7676.1 L2018.3,-7677.0 L2022.5,-7680.1 L2027.5,-7683.2 L2031.0,-7684.8 L2036.0,-7686.7 L2040.3,-7687.9 L2044.6,-7688.5 L2049.3,-7688.9 L2052.1,-7688.7 L2056.0,-7688.1 L2059.8,-7686.8 L2062.6,-7685.4 L2065.3,-7683.8 L2067.3,-7682.3 L2069.0,-7680.7 L2071.5,-7678.3 L2072.6,-7677.9 L2074.4,-7677.9 L2076.2,-7678.2 L2081.7,-7682.1 L2081.7,-7683.2 L2082.3,-7684.0 L2082.9,-7685.1 L2082.8,-7686.4 L2082.5,-7687.5 L2081.7,-7688.5 L2077.8,-7692.4 L2074.7,-7694.9 L2071.1,-7696.9 L2065.2,-7699.5 L2060.1,-7701.5 L2069.0,-7706.1 L2079.9,-7713.7 L2093.4,-7715.4 L2106.9,-7714.5 L2115.7,-7718.0 L2123.4,-7729.0 L2152.4,-7780.9 L2164.2,-7802.3 L2173.5,-7825.1 L2175.1,-7829.9 L2188.9,-7872.2 L2191.1,-7876.3 L2193.7,-7880.4 L2226.1,-7920.5 L2233.0,-7927.7 L2238.1,-7932.1 L2310.7,-7994.3 L2314.7,-7997.0 L2327.1,-8003.8 L2342.0,-8012.2 L2388.4,-8036.5 L2489.5,-8090.8 L2491.9,-8088.9 L2493.8,-8088.2 L2495.5,-8087.7 L2497.3,-8088.0 L2499.2,-8088.4 L2504.6,-8089.5 L2510.9,-8090.9 L2516.6,-8092.2 L2522.5,-8093.3 L2525.7,-8094.0 L2530.1,-8095.3 L2535.1,-8097.4 L2547.2,-8104.0 L2551.6,-8106.4 L2553.9,-8107.8 L2556.2,-8108.8 L2565.6,-8112.8 L2575.9,-8116.8 L2588.9,-8122.4 L2604.2,-8128.7 L2604.8,-8129.0 L2606.1,-8129.1 L2607.8,-8129.6 L2610.2,-8131.4 L2612.9,-8132.4 L2615.9,-8133.9 L2621.5,-8137.1 L2623.5,-8139.1 L2626.8,-8141.2 L2626.5,-8141.8 L2627.9,-8143.5 L2629.7,-8145.4 L2632.7,-8146.9 L2635.2,-8147.9 L2637.9,-8148.9 L2640.4,-8150.2 L2645.3,-8153.3 L2646.7,-8154.7 L2648.1,-8156.9 L2648.7,-8158.5 L2648.9,-8160.1 L2648.7,-8161.6 L2649.0,-8163.1 L2635.0,-8180.0 L2679.1,-8205.9 L2700.0,-8217.0 L2704.1,-8218.3 L2710.5,-8217.1 L2717.6,-8207.2 L2720.8,-8204.4 L2723.7,-8203.0 L2726.4,-8202.4 L2728.9,-8202.5 L2766.7,-8218.1 L2777.0,-8223.1 L2786.6,-8228.4 L2802.1,-8236.6 L2805.3,-8237.7 L3020.1,-8327.0 L3087.3,-8359.3 L3387.8,-8503.6 L10400.9,-8561.6 L10400.9,1474.0 L-4586.8,1474.0 L-4586.8,1047.5 Z" fill="#add7e1" stroke="none"><title>Biscayne Bay</title></path></svg>