<svg xmlns="http://www.w3.org/2000/svg" width="256" height="256" viewBox="0 0 256 256"><rect width="256" height="256" fill="#f1efe7"/><path d="M5.4,86.7 L6.1,126.2 L-9.2,126.5 L-10.0,87.0 L5.4,86.7 Z" fill="#d6d2c9" stroke="#bab6ad" stroke-width="0.4"></path><path d="M43.2,222.7 L26.5,223.5 L24.7,184.1 L41.4,183.3 L43.2,222.7 Z" fill="#d6d2c9" stroke="#bab6ad" stroke-width="0.4"></path><path d="M123.6,129.1 L106.4,129.5 L105.5,83.9 L122.7,83.6 L123.6,129.1 Z" fill="#d6d2c9" stroke="#bab6ad" stroke-width="0.4"></path><path d="M170.0,29.5 L170.2,34.2 L203.7,33.0 L204.4,49.8 L168.5,51.2 L168.3,43.7 L156.2,44.2 L155.6,30.0 L170.0,29.5 Z" fill="#d6d2c9" stroke="#bab6ad" stroke-width="0.4"></path><path d="M204.1,60.3 L204.5,81.4 L192.1,81.6 L192.0,75.2 L167.2,75.7 L166.9,61.1 L204.1,60.3 Z" fill="#d6d2c9" stroke="#bab6ad" stroke-width="0.4"></path><path d="M273.5,273.0 L248.5,273.9 L247.9,253.8 L272.8,253.0 L273.5,273.0 Z" fill="#d6d2c9" stroke="#bab6ad" stroke-width="0.4"></path><path d="M97.8,232.6 L78.4,232.9 L77.6,187.6 L97.0,187.2 L97.8,232.6 Z" fill="#d6d2c9" stroke="#bab6ad" stroke-width="0.4"></path><path d="M156.0,229.7 L135.3,230.4 L133.9,185.6 L154.6,185.0 L156.0,229.7 Z" fill="#d6d2c9" stroke="#bab6ad" stroke-width="0.4"></path><path d="M96.5,130.7 L76.1,131.2 L75.1,92.4 L95.5,91.9 L96.5,130.7 Z" fill="#d6d2c9" stroke="#bab6ad" stroke-width="0.4"></path><path d="M200.9,18.9 L164.6,19.5 L164.3,1.6 L200.6,0.9 L200.9,18.9 Z" fill="#d6d2c9" stroke="#bab6ad" stroke-width="0.4"></path><path d="M73.8,234.5 L74.1,254.5 L62.9,254.6 L62.9,251.9 L48.0,252.2 L47.7,234.9 L73.8,234.5 Z" fill="#d6d2c9" stroke="#bab6ad" stroke-width="0.4"></path><path d="M11.7,58.4 L-10.8,59.1 L-11.1,48.4 L11.4,47.7 L11.7,58.4 Z" fill="#d6d2c9" stroke="#bab6ad" stroke-width="0.4"></path><path d="M203.3,218.9 L170.2,220.3 L169.4,202.6 L202.5,201.1 L203.3,218.9 Z" fill="#d6d2c9" stroke="#bab6ad" stroke-width="0.4"></path><path d="M36.8,32.9 L18.3,33.1 L17.6,-14.2 L36.1,-14.4 L36.8,32.9 Z" fill="#d6d2c9" stroke="#bab6ad" stroke-width="0.4"></path><path d="M149.5,31.8 L130.8,32.1 L130.2,-13.3 L148.9,-13.6 L149.5,31.8 Z" fill="#d6d2c9" stroke="#bab6ad" stroke-width="0.4"></path><path d="M204.5,193.2 L172.0,194.4 L171.3,176.6 L203.9,175.5 L204.5,193.2 Z" fill="#d6d2c9" stroke="#bab6ad" stroke-width="0.4"></path><path d="M205.4,103.5 L174.7,104.2 L174.4,88.5 L205.0,87.9 L205.4,103.5 Z" fill="#d6d2c9" stroke="#bab6ad" stroke-width="0.4"></path><path d="M150.9,126.8 L132.6,127.1 L131.8,83.3 L150.1,83.0 L150.9,126.8 Z" fill="#d6d2c9" stroke="#bab6ad" stroke-width="0.4"></path><path d="M122.2,206.8 L106.9,207.2 L106.3,184.8 L128.9,184.2 L129.1,192.4 L121.8,192.6 L122.2,206.8 Z" fill="#d6d2c9" stroke="#bab6ad" stroke-width="0.4"></path><path d="M41.2,253.6 L18.3,253.5 L19.0,235.3 L40.9,234.6 L41.2,253.6 Z" fill="#d6d2c9" stroke="#bab6ad" stroke-width="0.4"></path><path d="M3.0,-6.0 L3.9,18.9 L11.5,18.6 L12.1,35.4 L4.3,35.7 L4.0,25.7 L-12.6,26.3 L-13.7,-5.6 L-6.1,-5.9 L-6.4,-12.8 L10.9,-13.4 L11.2,-6.2 L3.0,-6.0 Z" fill="#d6d2c9" stroke="#bab6ad" stroke-width="0.4"></path><path d="M64.6,34.1 L45.8,34.6 L44.3,-15.9 L63.1,-16.5 L64.6,34.1 Z" fill="#d6d2c9" stroke="#bab6ad" stroke-width="0.4"></path><path d="M129.1,251.7 L107.0,252.7 L106.0,230.7 L128.1,229.7 L129.1,251.7 Z" fill="#d6d2c9" stroke="#bab6ad" stroke-width="0.4"></path><path d="M39.8,128.8 L21.3,129.2 L20.2,75.3 L38.7,74.9 L39.8,128.8 Z" fill="#d6d2c9" stroke="#bab6ad" stroke-width="0.4"></path><path d="M67.0,128.8 L49.1,129.3 L47.7,74.4 L65.6,73.9 L67.0,128.8 Z" fill="#d6d2c9" stroke="#bab6ad" stroke-width="0.4"></path><path d="M170.7,252.3 L161.0,252.5 L160.6,234.3 L173.2,234.0 L173.4,241.4 L170.4,241.5 L170.7,252.3 Z" fill="#d6d2c9" stroke="#bab6ad" stroke-width="0.4"></path><path d="M199.8,225.3 L200.1,232.6 L202.7,232.5 L203.3,251.6 L196.6,251.8 L196.4,244.4 L179.8,244.9 L179.4,231.4 L186.9,231.1 L186.8,225.7 L199.8,225.3 Z" fill="#d6d2c9" stroke="#bab6ad" stroke-width="0.4"></path><path d="M166.2,196.4 L159.3,196.5 L159.1,184.6 L165.9,184.4 L166.2,196.4 Z" fill="#d6d2c9" stroke="#bab6ad" stroke-width="0.4"></path><path d="M260.5,173.9 L260.6,178.4 L264.9,178.3 L265.7,204.4 L270.5,204.3 L270.9,220.3 L266.2,220.4 L261.5,220.5 L261.4,217.1 L247.1,217.5 L246.5,197.8 L248.9,197.8 L248.2,174.2 L254.4,174.1 L260.5,173.9 Z" fill="#d6d2c9" stroke="#bab6ad" stroke-width="0.4"></path><path d="M164.5,100.4 L164.7,104.9 L169.6,104.8 L169.7,111.1 L156.3,111.4 L156.0,100.6 L164.5,100.4 Z" fill="#d6d2c9" stroke="#bab6ad" stroke-width="0.4"></path><path d="M175.6,113.8 L175.7,116.0 L201.2,115.1 L201.3,119.7 L201.5,124.1 L197.9,124.3 L198.1,131.7 L178.5,132.3 L178.3,127.3 L168.8,127.6 L168.3,114.0 L171.9,113.9 L175.6,113.8 Z" fill="#d6d2c9" stroke="#bab6ad" stroke-width="0.4"></path><path d="M258.2,128.6 L252.3,128.7 L251.8,107.3 L266.5,107.0 L266.6,113.6 L263.9,113.7 L264.2,128.5 L258.2,128.6 Z" fill="#d6d2c9" stroke="#bab6ad" stroke-width="0.4"></path><path d="M262.5,59.4 L262.7,74.6 L256.8,74.6 L250.8,74.7 L250.8,69.5 L247.7,69.5 L247.6,64.5 L247.5,59.4 L250.6,59.4 L250.5,52.9 L264.9,52.7 L265.0,56.0 L265.0,59.3 L262.5,59.4 Z" fill="#d6d2c9" stroke="#bab6ad" stroke-width="0.4"></path><path d="M259.6,101.5 L251.5,101.6 L251.1,80.0 L262.7,79.8 L262.7,78.8 L265.0,78.8 L267.3,78.7 L267.7,101.3 L259.6,101.5 Z" fill="#d6d2c9" stroke="#bab6ad" stroke-width="0.4"></path><path d="M260.6,-25.3 L261.3,-3.5 L266.4,-3.7 L266.7,4.4 L266.9,12.5 L245.4,13.1 L244.3,-24.8 L252.5,-25.0 L260.6,-25.3 Z" fill="#d6d2c9" stroke="#bab6ad" stroke-width="0.4"></path><path d="M277.6,29.1 L277.7,33.9 L285.5,33.7 L285.6,39.0 L285.7,44.2 L270.2,44.5 L270.2,46.1 L248.4,45.8 L248.2,30.0 L252.2,29.9 L256.1,29.8 L256.2,33.4 L264.8,33.2 L264.8,29.4 L271.2,29.3 L277.6,29.1 Z" fill="#d6d2c9" stroke="#bab6ad" stroke-width="0.4"></path><path d="M-66.1,149.8 L187.5,141.4 L215.3,140.6 L210.9,-33.3 L144.9,-31.6 L96.7,-30.0" fill="none" stroke="#cf828d" stroke-width="1.5" stroke-dasharray="1.6 3.0" opacity="0.62" stroke-linecap="round" stroke-linejoin="round"></path><path d="M240.0,139.2 L526.4,129.3" fill="none" stroke="#cf828d" stroke-width="1.5" stroke-dasharray="1.6 3.0" opacity="0.62" stroke-linecap="round" stroke-linejoin="round"></path><path d="M326.9,-37.6 L236.0,-34.4 L240.0,139.2" fill="none" stroke="#cf828d" stroke-width="1.5" stroke-dasharray="1.6 3.0" opacity="0.62" stroke-linecap="round" stroke-linejoin="round"></path><path d="M215.3,140.6 L218.2,142.6" fill="none" stroke="#cf828d" stroke-width="1.5" stroke-dasharray="1.6 3.0" opacity="0.62" stroke-linecap="round" stroke-linejoin="round"></path><path d="M218.2,142.6 L227.0,142.2 L237.0,141.7" fill="none" stroke="#cf828d" stroke-width="1.5" stroke-dasharray="1.6 3.0" opacity="0.62" stroke-linecap="round" stroke-linejoin="round"></path><path d="M237.0,141.7 L240.0,139.2" fill="none" stroke="#cf828d" stroke-width="1.5" stroke-dasharray="1.6 3.0" opacity="0.62" stroke-linecap="round" stroke-linejoin="round"></path><path d="M528.5,155.1 L240.5,164.3" fill="none" stroke="#cf828d" stroke-width="1.5" stroke-dasharray="1.6 3.0" opacity="0.62" stroke-linecap="round" stroke-linejoin="round"></path><path d="M238.3,162.3 L227.8,163.7 L219.7,164.8" fill="none" stroke="#cf828d" stroke-width="1.5" stroke-dasharray="1.6 3.0" opacity="0.62" stroke-linecap="round" stroke-linejoin="round"></path><path d="M244.5,339.1 L240.5,164.3" fill="none" stroke="#cf828d" stroke-width="1.5" stroke-dasharray="1.6 3.0" opacity="0.62" stroke-linecap="round" stroke-linejoin="round"></path><path d="M240.5,164.3 L238.3,162.3" fill="none" stroke="#cf828d" stroke-width="1.5" stroke-dasharray="1.6 3.0" opacity="0.62" stroke-linecap="round" stroke-linejoin="round"></path><path d="M216.3,165.3 L-6.4,172.7 L-58.8,174.4" fill="none" stroke="#cf828d" stroke-width="1.5" stroke-dasharray="1.6 3.0" opacity="0.62" stroke-linecap="round" stroke-linejoin="round"></path><path d="M222.6,335.9 L216.3,165.3" fill="none" stroke="#cf828d" stroke-width="1.5" stroke-dasharray="1.6 3.0" opacity="0.62" stroke-linecap="round" stroke-linejoin="round"></path><path d="M216.3,165.3 L219.7,164.8" fill="none" stroke="#cf828d" stroke-width="1.5" stroke-dasharray="1.6 3.0" opacity="0.62" stroke-linecap="round" stroke-linejoin="round"></path><path d="M96.7,-30.0 L26.4,-27.3 L-64.1,-24.4" fill="none" stroke="#cf828d" stroke-width="1.5" stroke-dasharray="1.6 3.0" opacity="0.62" stroke-linecap="round" stroke-linejoin="round"></path><path d="M218.2,142.6 L218.9,152.5 L219.7,164.8" fill="none" stroke="#cf828d" stroke-width="1.5" stroke-dasharray="1.6 3.0" opacity="0.62" stroke-linecap="round" stroke-linejoin="round"></path><path d="M237.0,141.7 L237.7,151.9 L238.3,162.3" fill="none" stroke="#cf828d" stroke-width="1.5" stroke-dasharray="1.6 3.0" opacity="0.62" stroke-linecap="round" stroke-linejoin="round"></path><path d="M231.8,341.5 L227.7,172.6 L227.8,163.7 L227.2,152.2 L227.0,142.2 L223.0,-34.3 L223.4,-47.1 L223.5,-59.5" fill="none" stroke="#cec8bb" stroke-width="4.8" stroke-linecap="round" stroke-linejoin="round"/><path d="M231.8,341.5 L227.7,172.6 L227.8,163.7 L227.2,152.2 L227.0,142.2 L223.0,-34.3 L223.4,-47.1 L223.5,-59.5" fill="none" stroke="#ffffff" stroke-width="3.7" stroke-linecap="round" stroke-linejoin="round"><title>Southwest 15th Avenue</title></path><path d="M528.6,142.8 L237.7,151.9 L227.2,152.2 L218.9,152.5 L-7.2,160.2 L-60.7,162.1" fill="none" stroke="#cec8bb" stroke-width="4.8" stroke-linecap="round" stroke-linejoin="round"/><path d="M528.6,142.8 L237.7,151.9 L227.2,152.2 L218.9,152.5 L-7.2,160.2 L-60.7,162.1" fill="none" stroke="#ffffff" stroke-width="3.7" stroke-linecap="round" stroke-linejoin="round"><title>Southwest 4th Street</title></path><g transform="translate(225.5 78.1) rotate(-91.3)"><path d="M -3.6 -3.2 L 4.4 0 L -3.6 3.2 Z" fill="#58656d" opacity="0.46"/></g><g transform="translate(116.4 156.0) rotate(178.1)"><path d="M -3.6 -3.2 L 4.4 0 L -3.6 3.2 Z" fill="#58656d" opacity="0.46"/></g><text x="225.6" y="79.1" transform="rotate(88.7 225.6 79.1)" text-anchor="middle" dominant-baseline="central" font-family="Arial, sans-serif" font-size="8.3" textLength="111.6" lengthAdjust="spacing" font-weight="650" paint-order="stroke" stroke="#fffaf0" stroke-width="2.05" stroke-linejoin="round" fill="#695f54">Southwest 15th Avenue</text><text x="117.4" y="155.9" transform="rotate(-1.9 117.4 155.9)" text-anchor="middle" dominant-baseline="central" font-family="Arial, sans-serif" font-size="8.3" textLength="106.2" lengthAdjust="spacing" font-weight="650" paint-order="stroke" stroke="#fffaf0" stroke-width="2.05" stroke-linejoin="round" fill="#695f54">Southwest 4th Street</text><text x="34.0" y="203.4" text-anchor="middle" font-family="Arial, sans-serif" font-size="6.5" textLength="18.0" lengthAdjust="spacing" font-weight="500" paint-order="stroke" stroke="#f3f5ee" stroke-width="1.55" stroke-linejoin="round" fill="#6f777a">1554</text><text x="114.6" y="106.5" text-anchor="middle" font-family="Arial, sans-serif" font-size="6.5" textLength="18.0" lengthAdjust="spacing" font-weight="500" paint-order="stroke" stroke="#f3f5ee" stroke-width="1.55" stroke-linejoin="round" fill="#6f777a">1529</text><text x="174.6" y="39.5" text-anchor="middle" font-family="Arial, sans-serif" font-size="6.5" textLength="18.0" lengthAdjust="spacing" font-weight="500" paint-order="stroke" stroke="#f3f5ee" stroke-width="1.55" stroke-linejoin="round" fill="#6f777a">320</text><text x="187.8" y="72.6" text-anchor="middle" font-family="Arial, sans-serif" font-size="6.5" textLength="18.0" lengthAdjust="spacing" font-weight="500" paint-order="stroke" stroke="#f3f5ee" stroke-width="1.55" stroke-linejoin="round" fill="#6f777a">328</text><text x="87.7" y="210.1" text-anchor="middle" font-family="Arial, sans-serif" font-size="6.5" textLength="18.0" lengthAdjust="spacing" font-weight="500" paint-order="stroke" stroke="#f3f5ee" stroke-width="1.55" stroke-linejoin="round" fill="#6f777a">1534</text><text x="144.9" y="207.7" text-anchor="middle" font-family="Arial, sans-serif" font-size="6.5" textLength="18.0" lengthAdjust="spacing" font-weight="500" paint-order="stroke" stroke="#f3f5ee" stroke-width="1.55" stroke-linejoin="round" fill="#6f777a">1518</text><text x="182.6" y="16.5" text-anchor="middle" font-family="Arial, sans-serif" font-size="6.5" textLength="18.0" lengthAdjust="spacing" font-weight="500" paint-order="stroke" stroke="#f3f5ee" stroke-width="1.55" stroke-linejoin="round" fill="#6f777a">312</text><text x="186.3" y="210.7" text-anchor="middle" font-family="Arial, sans-serif" font-size="6.5" textLength="18.0" lengthAdjust="spacing" font-weight="500" paint-order="stroke" stroke="#f3f5ee" stroke-width="1.55" stroke-linejoin="round" fill="#6f777a">414</text><text x="27.2" y="16.5" text-anchor="middle" font-family="Arial, sans-serif" font-size="6.5" textLength="18.0" lengthAdjust="spacing" font-weight="500" paint-order="stroke" stroke="#f3f5ee" stroke-width="1.55" stroke-linejoin="round" fill="#6f777a">1550</text><text x="139.8" y="16.5" text-anchor="middle" font-family="Arial, sans-serif" font-size="6.5" textLength="18.0" lengthAdjust="spacing" font-weight="500" paint-order="stroke" stroke="#f3f5ee" stroke-width="1.55" stroke-linejoin="round" fill="#6f777a">1524</text><text x="187.9" y="184.9" text-anchor="middle" font-family="Arial, sans-serif" font-size="6.5" textLength="18.0" lengthAdjust="spacing" font-weight="500" paint-order="stroke" stroke="#f3f5ee" stroke-width="1.55" stroke-linejoin="round" fill="#6f777a">400</text><text x="189.9" y="96.0" text-anchor="middle" font-family="Arial, sans-serif" font-size="6.5" textLength="18.0" lengthAdjust="spacing" font-weight="500" paint-order="stroke" stroke="#f3f5ee" stroke-width="1.55" stroke-linejoin="round" fill="#6f777a">336</text><text x="141.3" y="105.0" text-anchor="middle" font-family="Arial, sans-serif" font-size="6.5" textLength="18.0" lengthAdjust="spacing" font-weight="500" paint-order="stroke" stroke="#f3f5ee" stroke-width="1.55" stroke-linejoin="round" fill="#6f777a">1519</text><text x="54.5" y="16.5" text-anchor="middle" font-family="Arial, sans-serif" font-size="6.5" textLength="18.0" lengthAdjust="spacing" font-weight="500" paint-order="stroke" stroke="#f3f5ee" stroke-width="1.55" stroke-linejoin="round" fill="#6f777a">1544</text><text x="30.0" y="102.0" text-anchor="middle" font-family="Arial, sans-serif" font-size="6.5" textLength="18.0" lengthAdjust="spacing" font-weight="500" paint-order="stroke" stroke="#f3f5ee" stroke-width="1.55" stroke-linejoin="round" fill="#6f777a">1549</text><text x="57.4" y="101.6" text-anchor="middle" font-family="Arial, sans-serif" font-size="6.5" textLength="18.0" lengthAdjust="spacing" font-weight="500" paint-order="stroke" stroke="#f3f5ee" stroke-width="1.55" stroke-linejoin="round" fill="#6f777a">1545</text><text x="193.2" y="237.1" text-anchor="middle" font-family="Arial, sans-serif" font-size="6.5" textLength="18.0" lengthAdjust="spacing" font-weight="500" paint-order="stroke" stroke="#f3f5ee" stroke-width="1.55" stroke-linejoin="round" fill="#6f777a">418</text><text x="184.8" y="121.7" text-anchor="middle" font-family="Arial, sans-serif" font-size="6.5" textLength="18.0" lengthAdjust="spacing" font-weight="500" paint-order="stroke" stroke="#f3f5ee" stroke-width="1.55" stroke-linejoin="round" fill="#6f777a">350</text><text x="56.9" y="212.3" text-anchor="middle" font-family="Arial, sans-serif" font-size="6.5" textLength="18.0" lengthAdjust="spacing" font-weight="500" paint-order="stroke" stroke="#f3f5ee" stroke-width="1.55" stroke-linejoin="round" fill="#6f777a">1546</text><text x="114.1" y="194.5" text-anchor="middle" font-family="Arial, sans-serif" font-size="6.5" textLength="18.0" lengthAdjust="spacing" font-weight="500" paint-order="stroke" stroke="#f3f5ee" stroke-width="1.55" stroke-linejoin="round" fill="#6f777a">1528</text><text x="85.7" y="116.4" text-anchor="middle" font-family="Arial, sans-serif" font-size="6.5" textLength="18.0" lengthAdjust="spacing" font-weight="500" paint-order="stroke" stroke="#f3f5ee" stroke-width="1.55" stroke-linejoin="round" fill="#6f777a">1541</text><text x="96.9" y="16.5" text-anchor="middle" font-family="Arial, sans-serif" font-size="6.5" textLength="18.0" lengthAdjust="spacing" font-weight="500" paint-order="stroke" stroke="#f3f5ee" stroke-width="1.55" stroke-linejoin="round" fill="#6f777a">1534</text><g opacity="0.56"><title>crossing</title><path d="M224.7,140.4 L229.3,140.4 M224.7,142.2 L229.3,142.2 M224.7,144.0 L229.3,144.0" stroke="#ffffff" stroke-width="2.1" stroke-linecap="round"/><path d="M224.7,140.4 L229.3,140.4 M224.7,142.2 L229.3,142.2 M224.7,144.0 L229.3,144.0" stroke="#59656a" stroke-width="0.85" stroke-linecap="round"/></g><g opacity="0.56"><title>crossing</title><path d="M225.5,161.9 L230.1,161.9 M225.5,163.7 L230.1,163.7 M225.5,165.5 L230.1,165.5" stroke="#ffffff" stroke-width="2.1" stroke-linecap="round"/><path d="M225.5,161.9 L230.1,161.9 M225.5,163.7 L230.1,163.7 M225.5,165.5 L230.1,165.5" stroke="#59656a" stroke-width="0.85" stroke-linecap="round"/></g><g opacity="0.56"><title>crossing</title><path d="M216.6,150.7 L221.2,150.7 M216.6,152.5 L221.2,152.5 M216.6,154.3 L221.2,154.3" stroke="#ffffff" stroke-width="2.1" stroke-linecap="round"/><path d="M216.6,150.7 L221.2,150.7 M216.6,152.5 L221.2,152.5 M216.6,154.3 L221.2,154.3" stroke="#59656a" stroke-width="0.85" stroke-linecap="round"/></g><g opacity="0.56"><title>crossing</title><path d="M235.4,150.1 L239.9,150.1 M235.4,151.9 L239.9,151.9 M235.4,153.7 L239.9,153.7" stroke="#ffffff" stroke-width="2.1" stroke-linecap="round"/><path d="M235.4,150.1 L239.9,150.1 M235.4,151.9 L239.9,151.9 M235.4,153.7 L239.9,153.7" stroke="#59656a" stroke-width="0.85" stroke-linecap="round"/></g></svg>