<svg xmlns="http://www.w3.org/2000/svg" width="256" height="256" viewBox="0 0 256 256"><defs><pattern id="park-dots" width="22" height="22" patternUnits="userSpaceOnUse"><circle cx="5" cy="5" r="2.1" fill="#63a95d" fill-opacity="0.26"/><circle cx="16" cy="7" r="1.55" fill="#76b970" fill-opacity="0.23"/><circle cx="10" cy="17" r="1.9" fill="#61a65b" fill-opacity="0.24"/><circle cx="21" cy="17" r="1.25" fill="#80c174" fill-opacity="0.18"/><circle cx="1" cy="19" r="1.2" fill="#70b46a" fill-opacity="0.17"/></pattern><pattern id="park-canopy" width="54" height="48" patternUnits="userSpaceOnUse"><circle cx="12" cy="11" r="3.6" fill="#5ea75a" fill-opacity="0.22"/><circle cx="31" cy="15" r="2.9" fill="#75ba6d" fill-opacity="0.18"/><circle cx="45" cy="31" r="3.3" fill="#67ae62" fill-opacity="0.20"/><circle cx="19" cy="39" r="2.5" fill="#83c378" fill-opacity="0.16"/></pattern></defs><rect width="256" height="256" fill="#f1efe7"/><path d="M-8458.7,-45.7 L-8243.9,-135.0 L-8176.7,-167.3 L-7876.2,-311.6 L-7819.8,-257.0 L-7814.9,-252.3 L-7709.5,-342.5 L-7684.4,-361.6 L-7642.5,-399.4 L-7406.4,-616.2 L-7215.9,-833.8 L-7208.6,-847.7 L-7201.6,-855.6 L-7190.5,-868.3 L-7179.2,-881.2 L-7174.6,-886.5 L-7249.7,-983.6 L-7150.3,-1043.2 L-7096.4,-971.5 L-7020.2,-1058.7 L-7084.7,-1144.1 L-7004.8,-1227.4 L-6943.3,-1146.4 L-6872.7,-1226.8 L-6842.6,-1246.5 L-6695.4,-1342.0 L-6622.7,-1390.3 L-6535.1,-1447.9 L-6493.7,-1475.1 L-6388.8,-1542.8 L-6415.8,-1578.3 L-6464.1,-1643.0 L-6339.2,-1722.4 L-6293.7,-1745.9 L-6290.2,-1748.4 L-6266.2,-1766.9 L-6180.6,-1812.7 L-6174.7,-1821.9 L-6150.7,-1838.4 L-6137.7,-1857.4 L-6134.0,-1860.2 L-6113.1,-1868.3 L-6065.9,-1885.2 L-6033.6,-1899.4 L-5919.5,-1953.0 L-5918.1,-1949.3 L-5822.4,-1990.2 L-5783.3,-1940.1 L-5696.2,-1998.2 L-5683.8,-2006.7 L-5682.6,-2007.7 L-5681.4,-2009.3 L-5679.5,-2012.6 L-5678.5,-2015.7 L-5677.9,-2019.4 L-5678.0,-2022.4 L-5678.4,-2025.3 L-5678.8,-2028.6 L-5678.9,-2031.1 L-5678.7,-2033.2 L-5678.3,-2035.4 L-5676.7,-2039.4 L-5675.6,-2041.6 L-5673.1,-2045.4 L-5670.5,-2048.2 L-5657.8,-2053.3 L-5647.2,-2057.3 L-5633.7,-2061.7 L-5627.4,-2063.4 L-5616.2,-2067.1 L-5608.3,-2069.9 L-5597.4,-2074.4 L-5582.6,-2080.9 L-5566.6,-2088.4 L-5558.0,-2092.6 L-5547.2,-2098.1 L-5537.1,-2103.7 L-5527.0,-2109.7 L-5516.7,-2116.4 L-5513.5,-2118.6 L-5492.8,-2134.4 L-5475.4,-2147.8 L-5458.4,-2162.2 L-5442.5,-2177.2 L-5431.0,-2190.1 L-5419.6,-2204.0 L-5405.6,-2222.0 L-5392.8,-2240.0 L-5378.1,-2263.1 L-5368.5,-2281.0 L-5362.5,-2292.4 L-5353.6,-2311.7 L-5346.1,-2329.6 L-5339.4,-2348.9 L-5334.0,-2365.8 L-5328.1,-2393.2 L-5323.8,-2417.7 L-5321.5,-2438.7 L-5319.5,-2463.5 L-5319.3,-2490.0 L-5320.9,-2514.5 L-5325.1,-2546.5 L-5329.5,-2568.3 L-5334.5,-2588.9 L-5341.9,-2612.3 L-5348.2,-2630.2 L-5355.4,-2649.7 L-5362.2,-2665.9 L-5366.8,-2676.4 L-5368.7,-2684.1 L-5369.0,-2690.0 L-5368.4,-2695.3 L-5366.3,-2699.9 L-5363.1,-2703.8 L-5358.9,-2706.0 L-5354.4,-2706.6 L-5342.3,-2703.7 L-5308.6,-2695.6 L-5297.4,-2950.3 L-5253.7,-3404.9 L-5301.2,-3416.1 L-5306.4,-3430.4 L-5306.2,-3450.9 L-5299.6,-3497.4 L-5290.6,-3507.9 L-5282.6,-3538.1 L-5232.1,-3526.4 L-5204.3,-3816.9 L-5196.6,-3897.3 L-5212.3,-3901.2 L-5202.8,-3939.6 L-5235.1,-3947.3 L-5231.0,-3970.8 L-5225.3,-3986.3 L-5218.2,-4004.4 L-5206.2,-4029.7 L-5193.3,-4026.8 L-5175.9,-4209.5 L-5171.8,-4320.3 L-5171.0,-4340.7 L-5161.6,-4411.2 L-5142.9,-4586.9 L-5018.1,-4912.3 L-4989.6,-5001.0 L-4642.9,-5134.0 L-4609.0,-5147.6 L-4603.1,-5150.8 L-4598.5,-5155.0 L-4593.4,-5160.9 L-4589.5,-5167.8 L-4586.9,-5174.6 L-4586.3,-5184.5 L-4586.8,-5196.8 L-4591.4,-5352.3 L-4593.1,-5382.4 L-4593.6,-5403.1 L-4594.3,-5443.3 L-4595.1,-5455.9 L-4596.6,-5466.5 L-4598.7,-5475.9 L-4601.8,-5485.5 L-4606.7,-5496.8 L-4613.9,-5508.9 L-4620.9,-5518.5 L-4626.3,-5527.6 L-4631.8,-5539.7 L-4636.4,-5551.3 L-4638.2,-5560.8 L-4639.6,-5571.3 L-4640.3,-5581.8 L-4640.0,-5592.0 L-4638.8,-5603.9 L-4636.0,-5615.6 L-4632.3,-5626.0 L-4628.4,-5635.5 L-4623.4,-5644.7 L-4617.3,-5655.9 L-4613.3,-5666.0 L-4609.8,-5678.9 L-4603.4,-5688.7 L-4605.6,-5777.9 L-4608.9,-5783.1 L-4609.9,-5843.7 L-4611.6,-5915.2 L-4610.4,-5925.1 L-4607.2,-5935.2 L-4599.2,-5951.0 L-4545.7,-6066.1 L-4544.6,-6068.0 L-4535.2,-6088.5 L-4526.3,-6107.9 L-4516.3,-6127.9 L-4506.5,-6148.5 L-4501.7,-6158.5 L-4449.1,-6266.4 L-4392.9,-6385.6 L-4271.3,-6632.4 L-4344.4,-6714.3 L-4404.0,-6587.3 L-4455.5,-6477.4 L-4463.3,-6461.8 L-4479.2,-6429.3 L-4511.0,-6432.0 L-4519.7,-6432.5 L-4522.8,-6429.7 L-4518.6,-6425.9 L-4534.9,-6411.4 L-4547.8,-6399.5 L-4550.2,-6348.6 L-4555.0,-6338.4 L-4570.6,-6339.0 L-4573.2,-6339.9 L-4777.6,-6424.3 L-4782.0,-6426.6 L-4786.7,-6429.6 L-4794.1,-6435.2 L-4799.8,-6440.6 L-4804.6,-6445.8 L-4809.3,-6452.2 L-4812.9,-6457.8 L-4815.7,-6463.6 L-4817.9,-6469.7 L-4819.4,-6473.9 L-4820.5,-6479.0 L-4821.3,-6485.0 L-4822.1,-6493.2 L-4822.1,-6504.9 L-4823.5,-6544.6 L-4817.9,-6544.9 L-4818.7,-6565.9 L-4819.6,-6600.5 L-4814.4,-6600.6 L-4814.8,-6624.2 L-4820.7,-6624.1 L-4823.4,-6723.5 L-4817.8,-6723.8 L-4818.7,-6747.1 L-4824.1,-6746.9 L-4826.4,-6820.4 L-4799.4,-6849.5 L-4764.9,-6850.7 L-4739.2,-6851.6 L-4705.3,-6852.7 L-4672.7,-6853.7 L-4643.5,-6854.7 L-4630.8,-6855.3 L-4631.4,-6866.6 L-4631.6,-6878.4 L-4633.5,-6916.7 L-4634.2,-6989.8 L-4635.2,-6991.1 L-4635.4,-6998.3 L-4633.3,-6998.4 L-4638.4,-7174.5 L-4642.8,-7340.2 L-4643.5,-7345.4 L-4643.9,-7355.0 L-4716.1,-7352.4 L-4764.1,-7356.5 L-5123.4,-7344.0 L-5123.5,-7347.2 L-5124.2,-7362.5 L-5294.6,-7356.5 L-5294.9,-7384.8 L-5317.4,-7389.9 L-5321.4,-7511.0 L-4658.6,-7534.0 L-4647.6,-7549.1 L-4648.0,-7592.1 L-4648.8,-7629.3 L-4649.4,-7652.6 L-4650.3,-7675.3 L-4703.0,-7700.1 L-4705.1,-7755.2 L-4651.1,-7782.0 L-4656.0,-7909.5 L-4657.4,-7915.8 L-4711.1,-7940.9 L-4712.8,-8009.1 L-4661.8,-8035.4 L-4684.5,-8312.3 L-4678.5,-8435.5 L-4675.5,-8636.4 L-4675.7,-8854.9 L-4670.9,-8885.5 L-4670.6,-8900.3 L-4675.4,-8918.1 L-4670.4,-8918.1 L-4670.4,-8934.2 L-4667.4,-9345.2 L-4667.9,-9363.5 L-4673.6,-9363.5 L-4673.4,-9439.1 L-4676.7,-9443.8 L-4681.9,-9521.8 L-4671.6,-9593.1 L-4672.9,-9679.4 L-4676.4,-9700.1 L-4671.1,-9764.0 L-4674.7,-9841.3 L-4683.7,-9924.0 L-4700.8,-10058.0 L-4692.7,-10094.9 L-4696.3,-10130.8 L-4726.9,-10156.9 L-4771.8,-10156.5 L-4840.2,-10147.5 L-4884.7,-10147.5 L-4925.1,-10162.3 L-4978.2,-10198.7 L-4978.2,-10264.0 L-4979.6,-10344.3 L-4974.4,-10411.2 L-4956.8,-10463.4 L-4662.1,-10468.9 L-4655.3,-10886.8 L-4655.3,-11488.4 L-4658.4,-11706.7 L11253.8,-18278.4 L11253.8,17939.8 L-8458.7,17939.8 L-8458.7,-45.7 Z" fill="#add7e1" stroke="none"><title>Biscayne Bay</title></path><path d="M-2690.0,-3122.4 L-639.4,-2708.4 L1597.5,-1590.7 L3312.5,106.4 L3983.6,1762.0 L3163.4,3127.8 L1634.8,3872.7 L180.8,3831.4 L-1012.2,3003.6 L-2130.7,1596.4 L-3510.2,-17.8 L-3361.1,-1921.9 Z" fill="#f1efe7" stroke="#8ab09d" stroke-width="0.65"><title>Virginia Key</title></path><path d="M-778.2,2002.6 L-770.1,2023.3 L-744.0,2078.6 L-732.6,2099.7 L-550.9,2020.0 L-467.5,1985.0 L-295.7,1905.3 L-193.3,1838.2 L0.8,1739.4 L203.9,1635.8 L261.9,1602.1 L256.7,1575.9 L414.7,1494.1 L470.6,1469.9 L484.9,1495.7 L635.3,1485.8 L950.4,1486.2 L1248.1,1482.6 L1588.0,1477.9 L1884.8,1475.9 L2024.6,1502.9 L2349.7,1855.6 L3050.2,1233.2 L3448.3,318.6 L3614.6,-623.9 L3445.3,-1310.6 L2130.4,-2518.8 L1760.0,-2546.5 L1578.6,-1392.4 L1621.4,-1047.2 L2465.8,-1038.8 L2455.5,-888.2 L2455.5,-356.8 L2457.9,-89.5 L2567.3,-88.7 L2563.0,23.7 L2549.5,50.8 L2510.8,50.8 L2513.3,192.6 L2483.8,231.4 L2553.8,258.1 L2661.2,360.5 L2709.9,483.0 L2654.6,605.8 L2208.5,1117.3 L2053.0,1250.8 L1796.7,1350.1 L1309.0,1384.4 L1117.5,1354.2 L521.0,1419.0 L-820.3,1948.9 L-778.2,2002.6 Z" fill="#d5f2cb" stroke="#9fcf91" stroke-width="0.4"><title>Virginia Key Beach North Point Park</title></path><path d="M-778.2,2002.6 L-770.1,2023.3 L-744.0,2078.6 L-732.6,2099.7 L-550.9,2020.0 L-467.5,1985.0 L-295.7,1905.3 L-193.3,1838.2 L0.8,1739.4 L203.9,1635.8 L261.9,1602.1 L256.7,1575.9 L414.7,1494.1 L470.6,1469.9 L484.9,1495.7 L635.3,1485.8 L950.4,1486.2 L1248.1,1482.6 L1588.0,1477.9 L1884.8,1475.9 L2024.6,1502.9 L2349.7,1855.6 L3050.2,1233.2 L3448.3,318.6 L3614.6,-623.9 L3445.3,-1310.6 L2130.4,-2518.8 L1760.0,-2546.5 L1578.6,-1392.4 L1621.4,-1047.2 L2465.8,-1038.8 L2455.5,-888.2 L2455.5,-356.8 L2457.9,-89.5 L2567.3,-88.7 L2563.0,23.7 L2549.5,50.8 L2510.8,50.8 L2513.3,192.6 L2483.8,231.4 L2553.8,258.1 L2661.2,360.5 L2709.9,483.0 L2654.6,605.8 L2208.5,1117.3 L2053.0,1250.8 L1796.7,1350.1 L1309.0,1384.4 L1117.5,1354.2 L521.0,1419.0 L-820.3,1948.9 L-778.2,2002.6 Z" fill="url(#park-dots)" stroke="none"/><path d="M-778.2,2002.6 L-770.1,2023.3 L-744.0,2078.6 L-732.6,2099.7 L-550.9,2020.0 L-467.5,1985.0 L-295.7,1905.3 L-193.3,1838.2 L0.8,1739.4 L203.9,1635.8 L261.9,1602.1 L256.7,1575.9 L414.7,1494.1 L470.6,1469.9 L484.9,1495.7 L635.3,1485.8 L950.4,1486.2 L1248.1,1482.6 L1588.0,1477.9 L1884.8,1475.9 L2024.6,1502.9 L2349.7,1855.6 L3050.2,1233.2 L3448.3,318.6 L3614.6,-623.9 L3445.3,-1310.6 L2130.4,-2518.8 L1760.0,-2546.5 L1578.6,-1392.4 L1621.4,-1047.2 L2465.8,-1038.8 L2455.5,-888.2 L2455.5,-356.8 L2457.9,-89.5 L2567.3,-88.7 L2563.0,23.7 L2549.5,50.8 L2510.8,50.8 L2513.3,192.6 L2483.8,231.4 L2553.8,258.1 L2661.2,360.5 L2709.9,483.0 L2654.6,605.8 L2208.5,1117.3 L2053.0,1250.8 L1796.7,1350.1 L1309.0,1384.4 L1117.5,1354.2 L521.0,1419.0 L-820.3,1948.9 L-778.2,2002.6 Z" fill="url(#park-canopy)" stroke="none"/><path d="M1880.8,-2038.1 L1857.8,-2131.1 L1791.4,-2206.5 L251.7,-3132.8 L-126.8,-3106.5 L-726.3,-2845.4 L-1165.1,-2538.4 L-1602.5,-2057.0 L-2293.0,-928.2 L-1778.8,-430.5 L-1662.8,-318.5 L-946.8,364.5 L-550.8,747.5 L-282.8,1039.5 L-256.8,1087.5 L-196.8,1375.5 L-266.8,1557.5 L-372.8,1725.5 L-390.8,1771.5 L463.2,1411.5 L639.2,1187.5 L1063.2,569.5 L1219.2,405.5 L1213.2,69.5 L1224.1,-306.5 L1224.6,-326.5 L1165.7,-326.5 L1056.7,-322.5 L995.9,-424.0 L955.9,-612.5 L939.2,-798.5 L957.4,-892.5 L931.1,-1010.5 L933.7,-1118.5 L1001.8,-1164.5 L1094.2,-1188.5 L1268.0,-1156.5 L1455.4,-1242.3 L1515.1,-1369.2 L1572.9,-1540.6 L1705.8,-1670.5 L1856.3,-1833.3 L1880.8,-2038.1 Z" fill="#c4e7bd" stroke="#9fcf91" stroke-width="0.4"><title>Bill Sadowski Critical Wildlife Area</title></path><path d="M1880.8,-2038.1 L1857.8,-2131.1 L1791.4,-2206.5 L251.7,-3132.8 L-126.8,-3106.5 L-726.3,-2845.4 L-1165.1,-2538.4 L-1602.5,-2057.0 L-2293.0,-928.2 L-1778.8,-430.5 L-1662.8,-318.5 L-946.8,364.5 L-550.8,747.5 L-282.8,1039.5 L-256.8,1087.5 L-196.8,1375.5 L-266.8,1557.5 L-372.8,1725.5 L-390.8,1771.5 L463.2,1411.5 L639.2,1187.5 L1063.2,569.5 L1219.2,405.5 L1213.2,69.5 L1224.1,-306.5 L1224.6,-326.5 L1165.7,-326.5 L1056.7,-322.5 L995.9,-424.0 L955.9,-612.5 L939.2,-798.5 L957.4,-892.5 L931.1,-1010.5 L933.7,-1118.5 L1001.8,-1164.5 L1094.2,-1188.5 L1268.0,-1156.5 L1455.4,-1242.3 L1515.1,-1369.2 L1572.9,-1540.6 L1705.8,-1670.5 L1856.3,-1833.3 L1880.8,-2038.1 Z" fill="url(#park-dots)" stroke="none"/><path d="M1880.8,-2038.1 L1857.8,-2131.1 L1791.4,-2206.5 L251.7,-3132.8 L-126.8,-3106.5 L-726.3,-2845.4 L-1165.1,-2538.4 L-1602.5,-2057.0 L-2293.0,-928.2 L-1778.8,-430.5 L-1662.8,-318.5 L-946.8,364.5 L-550.8,747.5 L-282.8,1039.5 L-256.8,1087.5 L-196.8,1375.5 L-266.8,1557.5 L-372.8,1725.5 L-390.8,1771.5 L463.2,1411.5 L639.2,1187.5 L1063.2,569.5 L1219.2,405.5 L1213.2,69.5 L1224.1,-306.5 L1224.6,-326.5 L1165.7,-326.5 L1056.7,-322.5 L995.9,-424.0 L955.9,-612.5 L939.2,-798.5 L957.4,-892.5 L931.1,-1010.5 L933.7,-1118.5 L1001.8,-1164.5 L1094.2,-1188.5 L1268.0,-1156.5 L1455.4,-1242.3 L1515.1,-1369.2 L1572.9,-1540.6 L1705.8,-1670.5 L1856.3,-1833.3 L1880.8,-2038.1 Z" fill="url(#park-canopy)" stroke="none"/><path d="M-1.0,-1.0 L257.0,-1.0 L257.0,257.0 L-1.0,257.0 L-1.0,-1.0 Z M257.0,-1.0 L184.3,-1.0 L162.8,63.4 L189.0,122.8 L220.7,215.2 L234.7,255.6 L234.9,257.0 L142.4,257.0 L134.8,224.1 L116.7,217.3 L46.0,214.0 L22.5,220.0 L8.6,211.2 L-1.0,207.6 L-1.0,257.0 L257.0,257.0 L257.0,-1.0 Z" fill="#add7e1" stroke="none" fill-rule="evenodd"><title>Biscayne Bay</title></path><path d="M-3883.0,189.2 L-2540.8,-59.2 L-1049.5,44.3 L479.1,-411.0 L2231.3,-1114.7 L3126.1,-1528.6 L3499.0,-700.8 L2865.2,520.3 L1709.4,1472.3 L292.6,2258.7 L-564.9,3045.0 L-2130.7,3272.7 L-3100.1,3189.9 L-3845.7,2424.2 Z" fill="#f1efe7" stroke="#8ab09d" stroke-width="0.65"><title>Virginia Key north of Bear Cut</title></path><path d="M442.6,-477.3 L198.6,-43.6 L162.8,63.4 L189.0,122.8 L220.7,215.2 L234.7,255.6 L237.7,291.3 L225.2,310.7 L194.9,264.6 L169.2,267.9 L146.6,275.5 L134.8,224.1 L116.7,217.3 L46.0,214.0 L22.5,220.0 L8.6,211.2 L-25.5,198.5 L-50.4,203.2" fill="none" stroke="#79bdd0" stroke-width="1.4" stroke-linecap="round" stroke-linejoin="round"></path></svg>