<svg xmlns="http://www.w3.org/2000/svg" width="256" height="256" viewBox="0 0 256 256"><rect width="256" height="256" fill="#f1efe7"/><path d="M-8458.7,14802.3 L-8243.9,14713.0 L-8176.7,14680.7 L-7876.2,14536.4 L-7819.8,14591.0 L-7814.9,14595.7 L-7709.5,14505.5 L-7684.4,14486.4 L-7642.5,14448.6 L-7406.4,14231.8 L-7215.9,14014.2 L-7208.6,14000.3 L-7201.6,13992.4 L-7190.5,13979.7 L-7179.2,13966.8 L-7174.6,13961.5 L-7249.7,13864.4 L-7150.3,13804.8 L-7096.4,13876.5 L-7020.2,13789.3 L-7084.7,13703.9 L-7004.8,13620.6 L-6943.3,13701.6 L-6872.7,13621.2 L-6842.6,13601.5 L-6695.4,13506.0 L-6622.7,13457.7 L-6535.1,13400.1 L-6493.7,13372.9 L-6388.8,13305.2 L-6415.8,13269.7 L-6464.1,13205.0 L-6339.2,13125.6 L-6293.7,13102.1 L-6290.2,13099.6 L-6266.2,13081.1 L-6180.6,13035.3 L-6174.7,13026.1 L-6150.7,13009.6 L-6137.7,12990.6 L-6134.0,12987.8 L-6113.1,12979.7 L-6065.9,12962.8 L-6033.6,12948.6 L-5919.5,12895.0 L-5918.1,12898.7 L-5822.4,12857.8 L-5783.3,12907.9 L-5696.2,12849.8 L-5683.8,12841.3 L-5682.6,12840.3 L-5681.4,12838.7 L-5679.5,12835.4 L-5678.5,12832.3 L-5677.9,12828.6 L-5678.0,12825.6 L-5678.4,12822.7 L-5678.8,12819.4 L-5678.9,12816.9 L-5678.7,12814.8 L-5678.3,12812.6 L-5676.7,12808.6 L-5675.6,12806.4 L-5673.1,12802.6 L-5670.5,12799.8 L-5657.8,12794.7 L-5647.2,12790.7 L-5633.7,12786.3 L-5627.4,12784.6 L-5616.2,12780.9 L-5608.3,12778.1 L-5597.4,12773.6 L-5582.6,12767.1 L-5566.6,12759.6 L-5558.0,12755.4 L-5547.2,12749.9 L-5537.1,12744.3 L-5527.0,12738.3 L-5516.7,12731.6 L-5513.5,12729.4 L-5492.8,12713.6 L-5475.4,12700.2 L-5458.4,12685.8 L-5442.5,12670.8 L-5431.0,12657.9 L-5419.6,12644.0 L-5405.6,12626.0 L-5392.8,12608.0 L-5378.1,12584.9 L-5368.5,12567.0 L-5362.5,12555.6 L-5353.6,12536.3 L-5346.1,12518.4 L-5339.4,12499.1 L-5334.0,12482.2 L-5328.1,12454.8 L-5323.8,12430.3 L-5321.5,12409.3 L-5319.5,12384.5 L-5319.3,12358.0 L-5320.9,12333.5 L-5325.1,12301.5 L-5329.5,12279.7 L-5334.5,12259.1 L-5341.9,12235.7 L-5348.2,12217.8 L-5355.4,12198.3 L-5362.2,12182.1 L-5366.8,12171.6 L-5368.7,12163.9 L-5369.0,12158.0 L-5368.4,12152.7 L-5366.3,12148.1 L-5363.1,12144.2 L-5358.9,12142.0 L-5354.4,12141.4 L-5342.3,12144.3 L-5308.6,12152.4 L-5297.4,11897.7 L-5253.7,11443.1 L-5301.2,11431.9 L-5306.4,11417.6 L-5306.2,11397.1 L-5299.6,11350.6 L-5290.6,11340.1 L-5282.6,11309.9 L-5232.1,11321.6 L-5204.3,11031.1 L-5196.6,10950.7 L-5212.3,10946.8 L-5202.8,10908.4 L-5235.1,10900.7 L-5231.0,10877.2 L-5225.3,10861.7 L-5218.2,10843.6 L-5206.2,10818.3 L-5193.3,10821.2 L-5175.9,10638.5 L-5171.8,10527.7 L-5171.0,10507.3 L-5161.6,10436.8 L-5142.9,10261.1 L-5018.1,9935.7 L-4989.6,9847.0 L-4642.9,9714.0 L-4609.0,9700.4 L-4603.1,9697.2 L-4598.5,9693.0 L-4593.4,9687.1 L-4589.5,9680.2 L-4586.9,9673.4 L-4586.3,9663.5 L-4586.8,9651.2 L-4591.4,9495.7 L-4593.1,9465.6 L-4593.6,9444.9 L-4594.3,9404.7 L-4595.1,9392.1 L-4596.6,9381.5 L-4598.7,9372.1 L-4601.8,9362.5 L-4606.7,9351.2 L-4613.9,9339.1 L-4620.9,9329.5 L-4626.3,9320.4 L-4631.8,9308.3 L-4636.4,9296.7 L-4638.2,9287.2 L-4639.6,9276.7 L-4640.3,9266.2 L-4640.0,9256.0 L-4638.8,9244.1 L-4636.0,9232.4 L-4632.3,9222.0 L-4628.4,9212.5 L-4623.4,9203.3 L-4617.3,9192.1 L-4613.3,9182.0 L-4609.8,9169.1 L-4603.4,9159.3 L-4605.6,9070.1 L-4608.9,9064.9 L-4609.9,9004.3 L-4611.6,8932.8 L-4610.4,8922.9 L-4607.2,8912.8 L-4599.2,8897.0 L-4545.7,8781.9 L-4544.6,8780.0 L-4535.2,8759.5 L-4526.3,8740.1 L-4516.3,8720.1 L-4506.5,8699.5 L-4501.7,8689.5 L-4449.1,8581.6 L-4392.9,8462.4 L-4271.3,8215.6 L-4344.4,8133.7 L-4404.0,8260.7 L-4455.5,8370.6 L-4463.3,8386.2 L-4479.2,8418.7 L-4511.0,8416.0 L-4519.7,8415.5 L-4522.8,8418.3 L-4518.6,8422.1 L-4534.9,8436.6 L-4547.8,8448.5 L-4550.2,8499.4 L-4555.0,8509.6 L-4570.6,8509.0 L-4573.2,8508.1 L-4777.6,8423.7 L-4782.0,8421.4 L-4786.7,8418.4 L-4794.1,8412.8 L-4799.8,8407.4 L-4804.6,8402.2 L-4809.3,8395.8 L-4812.9,8390.2 L-4815.7,8384.4 L-4817.9,8378.3 L-4819.4,8374.1 L-4820.5,8369.0 L-4821.3,8363.0 L-4822.1,8354.8 L-4822.1,8343.1 L-4823.5,8303.4 L-4817.9,8303.1 L-4818.7,8282.1 L-4819.6,8247.5 L-4814.4,8247.4 L-4814.8,8223.8 L-4820.7,8223.9 L-4823.4,8124.5 L-4817.8,8124.2 L-4818.7,8100.9 L-4824.1,8101.1 L-4826.4,8027.6 L-4799.4,7998.5 L-4764.9,7997.3 L-4739.2,7996.4 L-4705.3,7995.3 L-4672.7,7994.3 L-4643.5,7993.3 L-4630.8,7992.7 L-4631.4,7981.4 L-4631.6,7969.6 L-4633.5,7931.3 L-4634.2,7858.2 L-4635.2,7856.9 L-4635.4,7849.7 L-4633.3,7849.6 L-4638.4,7673.5 L-4642.8,7507.8 L-4643.5,7502.6 L-4643.9,7493.0 L-4716.1,7495.6 L-4764.1,7491.5 L-5123.4,7504.0 L-5123.5,7500.8 L-5124.2,7485.5 L-5294.6,7491.5 L-5294.9,7463.2 L-5317.4,7458.1 L-5321.4,7337.0 L-4658.6,7314.0 L-4647.6,7298.9 L-4648.0,7255.9 L-4648.8,7218.7 L-4649.4,7195.4 L-4650.3,7172.7 L-4703.0,7147.9 L-4705.1,7092.8 L-4651.1,7066.0 L-4656.0,6938.5 L-4657.4,6932.2 L-4711.1,6907.1 L-4712.8,6838.9 L-4661.8,6812.6 L-4684.5,6535.7 L-4678.5,6412.5 L-4675.5,6211.6 L-4675.7,5993.1 L-4670.9,5962.5 L-4670.6,5947.7 L-4675.4,5929.9 L-4670.4,5929.9 L-4670.4,5913.8 L-4667.4,5502.8 L-4667.9,5484.5 L-4673.6,5484.5 L-4673.4,5408.9 L-4676.7,5404.2 L-4681.9,5326.2 L-4671.6,5254.9 L-4672.9,5168.6 L-4676.4,5147.9 L-4671.1,5084.0 L-4674.7,5006.7 L-4683.7,4924.0 L-4700.8,4790.0 L-4692.7,4753.1 L-4696.3,4717.2 L-4726.9,4691.1 L-4771.8,4691.5 L-4840.2,4700.5 L-4884.7,4700.5 L-4925.1,4685.7 L-4978.2,4649.3 L-4978.2,4584.0 L-4979.6,4503.7 L-4974.4,4436.8 L-4956.8,4384.6 L-4662.1,4379.1 L-4655.3,3961.2 L-4655.3,3359.6 L-4658.4,3141.3 L11253.8,-3430.4 L11253.8,32787.8 L-8458.7,32787.8 L-8458.7,14802.3 Z" fill="#add7e1" stroke="none"><title>Biscayne Bay</title></path><path d="M-5299.8,2036.8 L-5076.1,-903.8 L-4125.4,-2146.4 L479.1,-2146.4 L2231.3,-696.7 L1597.5,1539.8 L-769.9,2119.6 Z" fill="#add7e1" stroke="none"><title>Biscayne Bay</title></path><path d="M-1.0,-1.0 L257.0,-1.0 L257.0,257.0 L-1.0,257.0 L-1.0,-1.0 Z" fill="#add7e1" stroke="none" fill-rule="evenodd"><title>Biscayne Bay</title></path></svg>