<svg xmlns="http://www.w3.org/2000/svg" width="256" height="256" viewBox="0 0 256 256"><rect width="256" height="256" fill="#f1efe7"/><path d="M-8458.7,-11565.7 L-8243.9,-11655.0 L-8176.7,-11687.3 L-7876.2,-11831.6 L-7819.8,-11777.0 L-7814.9,-11772.3 L-7709.5,-11862.5 L-7684.4,-11881.6 L-7642.5,-11919.4 L-7406.4,-12136.2 L-7215.9,-12353.8 L-7208.6,-12367.7 L-7201.6,-12375.6 L-7190.5,-12388.3 L-7179.2,-12401.2 L-7174.6,-12406.5 L-7249.7,-12503.6 L-7150.3,-12563.2 L-7096.4,-12491.5 L-7020.2,-12578.7 L-7084.7,-12664.1 L-7004.8,-12747.4 L-6943.3,-12666.4 L-6872.7,-12746.8 L-6842.6,-12766.5 L-6695.4,-12862.0 L-6622.7,-12910.3 L-6535.1,-12967.9 L-6493.7,-12995.1 L-6388.8,-13062.8 L-6415.8,-13098.3 L-6464.1,-13163.0 L-6339.2,-13242.4 L-6293.7,-13265.9 L-6290.2,-13268.4 L-6266.2,-13286.9 L-6180.6,-13332.7 L-6174.7,-13341.9 L-6150.7,-13358.4 L-6137.7,-13377.4 L-6134.0,-13380.2 L-6113.1,-13388.3 L-6065.9,-13405.2 L-6033.6,-13419.4 L-5919.5,-13473.0 L-5918.1,-13469.3 L-5822.4,-13510.2 L-5783.3,-13460.1 L-5696.2,-13518.2 L-5683.8,-13526.7 L-5682.6,-13527.7 L-5681.4,-13529.3 L-5679.5,-13532.6 L-5678.5,-13535.7 L-5677.9,-13539.4 L-5678.0,-13542.4 L-5678.4,-13545.3 L-5678.8,-13548.6 L-5678.9,-13551.1 L-5678.7,-13553.2 L-5678.3,-13555.4 L-5676.7,-13559.4 L-5675.6,-13561.6 L-5673.1,-13565.4 L-5670.5,-13568.2 L-5657.8,-13573.3 L-5647.2,-13577.3 L-5633.7,-13581.7 L-5627.4,-13583.4 L-5616.2,-13587.1 L-5608.3,-13589.9 L-5597.4,-13594.4 L-5582.6,-13600.9 L-5566.6,-13608.4 L-5558.0,-13612.6 L-5547.2,-13618.1 L-5537.1,-13623.7 L-5527.0,-13629.7 L-5516.7,-13636.4 L-5513.5,-13638.6 L-5492.8,-13654.4 L-5475.4,-13667.8 L-5458.4,-13682.2 L-5442.5,-13697.2 L-5431.0,-13710.1 L-5419.6,-13724.0 L-5405.6,-13742.0 L-5392.8,-13760.0 L-5378.1,-13783.1 L-5368.5,-13801.0 L-5362.5,-13812.4 L-5353.6,-13831.7 L-5346.1,-13849.6 L-5339.4,-13868.9 L-5334.0,-13885.8 L-5328.1,-13913.2 L-5323.8,-13937.7 L-5321.5,-13958.7 L-5319.5,-13983.5 L-5319.3,-14010.0 L-5320.9,-14034.5 L-5325.1,-14066.5 L-5329.5,-14088.3 L-5334.5,-14108.9 L-5341.9,-14132.3 L-5348.2,-14150.2 L-5355.4,-14169.7 L-5362.2,-14185.9 L-5366.8,-14196.4 L-5368.7,-14204.1 L-5369.0,-14210.0 L-5368.4,-14215.3 L-5366.3,-14219.9 L-5363.1,-14223.8 L-5358.9,-14226.0 L-5354.4,-14226.6 L-5342.3,-14223.7 L-5308.6,-14215.6 L-5297.4,-14470.3 L-5253.7,-14924.9 L-5301.2,-14936.1 L-5306.4,-14950.4 L-5306.2,-14970.9 L-5299.6,-15017.4 L-5290.6,-15027.9 L-5282.6,-15058.1 L-5232.1,-15046.4 L-5204.3,-15336.9 L-5196.6,-15417.3 L-5212.3,-15421.2 L-5202.8,-15459.6 L-5235.1,-15467.3 L-5231.0,-15490.8 L-5225.3,-15506.3 L-5218.2,-15524.4 L-5206.2,-15549.7 L-5193.3,-15546.8 L-5175.9,-15729.5 L-5171.8,-15840.3 L-5171.0,-15860.7 L-5161.6,-15931.2 L-5142.9,-16106.9 L-5018.1,-16432.3 L-4989.6,-16521.0 L-4642.9,-16654.0 L-4609.0,-16667.6 L-4603.1,-16670.8 L-4598.5,-16675.0 L-4593.4,-16680.9 L-4589.5,-16687.8 L-4586.9,-16694.6 L-4586.3,-16704.5 L-4586.8,-16716.8 L-4591.4,-16872.3 L-4593.1,-16902.4 L-4593.6,-16923.1 L-4594.3,-16963.3 L-4595.1,-16975.9 L-4596.6,-16986.5 L-4598.7,-16995.9 L-4601.8,-17005.5 L-4606.7,-17016.8 L-4613.9,-17028.9 L-4620.9,-17038.5 L-4626.3,-17047.6 L-4631.8,-17059.7 L-4636.4,-17071.3 L-4638.2,-17080.8 L-4639.6,-17091.3 L-4640.3,-17101.8 L-4640.0,-17112.0 L-4638.8,-17123.9 L-4636.0,-17135.6 L-4632.3,-17146.0 L-4628.4,-17155.5 L-4623.4,-17164.7 L-4617.3,-17175.9 L-4613.3,-17186.0 L-4609.8,-17198.9 L-4603.4,-17208.7 L-4605.6,-17297.9 L-4608.9,-17303.1 L-4609.9,-17363.7 L-4611.6,-17435.2 L-4610.4,-17445.1 L-4607.2,-17455.2 L-4599.2,-17471.0 L-4545.7,-17586.1 L-4544.6,-17588.0 L-4535.2,-17608.5 L-4526.3,-17627.9 L-4516.3,-17647.9 L-4506.5,-17668.5 L-4501.7,-17678.5 L-4449.1,-17786.4 L-4392.9,-17905.6 L-4271.3,-18152.4 L-4344.4,-18234.3 L-4404.0,-18107.3 L-4455.5,-17997.4 L-4463.3,-17981.8 L-4479.2,-17949.3 L-4511.0,-17952.0 L-4519.7,-17952.5 L-4522.8,-17949.7 L-4518.6,-17945.9 L-4534.9,-17931.4 L-4547.8,-17919.5 L-4550.2,-17868.6 L-4555.0,-17858.4 L-4570.6,-17859.0 L-4573.2,-17859.9 L-4777.6,-17944.3 L-4782.0,-17946.6 L-4786.7,-17949.6 L-4794.1,-17955.2 L-4799.8,-17960.6 L-4804.6,-17965.8 L-4809.3,-17972.2 L-4812.9,-17977.8 L-4815.7,-17983.6 L-4817.9,-17989.7 L-4819.4,-17993.9 L-4820.5,-17999.0 L-4821.3,-18005.0 L-4822.1,-18013.2 L-4822.1,-18024.9 L-4823.5,-18064.6 L-4817.9,-18064.9 L-4818.7,-18085.9 L-4819.6,-18120.5 L-4814.4,-18120.6 L-4814.8,-18144.2 L-4820.7,-18144.1 L-4823.4,-18243.5 L-4817.8,-18243.8 L-4818.7,-18267.1 L-4824.1,-18266.9 L-4826.4,-18340.4 L-4799.4,-18369.5 L-4764.9,-18370.7 L-4739.2,-18371.6 L-4705.3,-18372.7 L-4672.7,-18373.7 L-4643.5,-18374.7 L-4630.8,-18375.3 L-4631.4,-18386.6 L-4631.6,-18398.4 L-4633.5,-18436.7 L-4634.2,-18509.8 L-4635.2,-18511.1 L-4635.4,-18518.3 L-4633.3,-18518.4 L-4638.4,-18694.5 L-4642.8,-18860.2 L-4643.5,-18865.4 L-4643.9,-18875.0 L-4716.1,-18872.4 L-4764.1,-18876.5 L-5123.4,-18864.0 L-5123.5,-18867.2 L-5124.2,-18882.5 L-5294.6,-18876.5 L-5294.9,-18904.8 L-5317.4,-18909.9 L-5321.4,-19031.0 L-4658.6,-19054.0 L-4647.6,-19069.1 L-4648.0,-19112.1 L-4648.8,-19149.3 L-4649.4,-19172.6 L-4650.3,-19195.3 L-4703.0,-19220.1 L-4705.1,-19275.2 L-4651.1,-19302.0 L-4656.0,-19429.5 L-4657.4,-19435.8 L-4711.1,-19460.9 L-4712.8,-19529.1 L-4661.8,-19555.4 L-4684.5,-19832.3 L-4678.5,-19955.5 L-4675.5,-20156.4 L-4675.7,-20374.9 L-4670.9,-20405.5 L-4670.6,-20420.3 L-4675.4,-20438.1 L-4670.4,-20438.1 L-4670.4,-20454.2 L-4667.4,-20865.2 L-4667.9,-20883.5 L-4673.6,-20883.5 L-4673.4,-20959.1 L-4676.7,-20963.8 L-4681.9,-21041.8 L-4671.6,-21113.1 L-4672.9,-21199.4 L-4676.4,-21220.1 L-4671.1,-21284.0 L-4674.7,-21361.3 L-4683.7,-21444.0 L-4700.8,-21578.0 L-4692.7,-21614.9 L-4696.3,-21650.8 L-4726.9,-21676.9 L-4771.8,-21676.5 L-4840.2,-21667.5 L-4884.7,-21667.5 L-4925.1,-21682.3 L-4978.2,-21718.7 L-4978.2,-21784.0 L-4979.6,-21864.3 L-4974.4,-21931.2 L-4956.8,-21983.4 L-4662.1,-21988.9 L-4655.3,-22406.8 L-4655.3,-23008.4 L-4658.4,-23226.7 L11253.8,-29798.4 L11253.8,6419.8 L-8458.7,6419.8 L-8458.7,-11565.7 Z" fill="#add7e1" stroke="none"><title>Biscayne Bay</title></path><path d="M-2669.7,-140.3 L-2699.4,-103.9 L-2800.0,26.4 L-2827.9,33.5 L-2827.9,68.5 L-2857.5,137.0 L-2869.9,176.1 L-2885.6,203.6 L-2888.7,291.5 L-2904.8,319.4 L-2914.5,381.6 L-2890.0,442.0 L-2895.5,451.5 L-2890.0,468.7 L-2881.0,471.7 L-2863.3,531.7 L-2820.4,551.1 L-2809.8,560.9 L-2806.8,562.6 L-2803.8,563.3 L-2800.4,562.3 L-2797.4,560.2 L-2792.1,555.1 L-2757.3,499.6 L-2761.4,497.1 L-2728.5,443.7 L-2724.6,446.5 L-2700.5,407.2 L-2711.6,400.8 L-2707.6,384.3 L-2698.1,373.1 L-2675.3,359.1 L-2644.7,347.4 L-2632.0,304.6 L-2626.6,310.2 L-2625.4,310.4 L-2624.3,310.7 L-2622.4,298.0 L-2623.8,297.6 L-2625.2,297.1 L-2631.2,299.3 L-2625.4,267.1 L-2626.7,260.3 L-2630.7,253.6 L-2626.0,191.1 L-2624.6,171.6 L-2629.7,171.2 L-2627.1,67.2 L-2625.2,50.9 L-2619.1,40.3 L-2608.7,33.5 L-2605.3,26.9 L-2604.4,-7.2 L-2606.7,-13.5 L-2619.8,-19.0 L-2617.0,-34.0 L-2606.5,-42.3 L-2598.6,-45.5 L-2543.3,-45.5 L-2532.2,-46.9 L-2506.1,-46.9 L-2500.5,-46.9 L-2500.7,-44.5 L-2350.8,-45.7 L-2363.2,31.3 L-2374.5,52.1 L-2541.4,117.4 L-2535.2,352.2 L-2405.5,628.3 L-2381.8,693.0 L-2375.2,772.1 L-2100.7,1021.5 L-2017.9,1233.9 L-2024.0,1237.5 L-2015.1,1260.6 L-2009.4,1258.8 L-1992.5,1295.8 L-1951.0,1314.3 L-1743.4,1420.6 L-1673.4,1487.0 L-1595.6,1628.2 L-1544.0,1699.6 L-1463.4,1758.2 L-1362.4,1797.1 L-1254.5,1798.5 L-1216.3,1778.7 L-1210.5,1739.6 L-1247.3,1581.2 L-1381.7,1392.4 L-1614.5,1240.4 L-1605.7,1216.3 L-1445.7,1215.2 L-1308.3,1194.2 L-1288.6,1195.2 L-1265.8,1196.4 L-1046.5,1197.0 L-560.3,1184.6 L-522.5,1192.4 L-458.5,1262.2 L-440.9,1273.0 L-218.5,1445.1 L-146.7,1504.9 L-144.5,1548.9 L-143.8,1577.9 L-122.1,1669.9 L109.3,1645.9 L169.9,1627.9 L273.7,1552.7 L341.2,1621.2 L382.5,1695.0 L401.7,1722.2 L456.4,1716.9 L927.0,1678.0 L913.8,1633.6 L919.0,1580.8 L923.5,1547.5 L904.0,1476.8 L880.5,1411.3 L841.4,1301.1 L767.9,1009.9 L746.7,873.2 L730.0,752.0 L717.4,641.7 L704.7,502.7 L695.5,411.3 L694.4,400.5 L690.9,321.8 L689.2,238.5 L686.9,185.7 L681.7,117.9 L688.1,43.3 L687.5,-71.1 L689.2,-165.2 L689.8,-289.9 L690.4,-395.0 L695.0,-449.0 L698.4,-537.4 L698.9,-569.0 L699.0,-576.5 L697.8,-630.5 L699.5,-670.1 L704.7,-726.9 L703.6,-795.9 L704.7,-830.3 L705.8,-840.5 L709.3,-872.3 L712.2,-920.5 L718.5,-952.7 L726.0,-1009.5 L741.5,-1098.6 L751.2,-1150.2 L750.7,-1172.1 L747.8,-1192.2 L750.1,-1220.9 L754.1,-1252.7 L756.4,-1270.9 L767.9,-1310.5 L773.1,-1343.2 L793.2,-1373.1 L811.5,-1394.4 L821.3,-1417.9 L818.4,-1438.6 L810.4,-1452.4 L811.0,-1481.7 L819.6,-1498.3 L837.4,-1513.2 L840.9,-1529.3 L839.7,-1562.0 L840.9,-1585.6 L836.8,-1608.6 L825.3,-1616.6 L814.4,-1624.7 L819.0,-1648.2 L817.9,-1675.2 L828.8,-1698.2 L836.8,-1740.1 L844.9,-1775.7 L843.7,-1797.0 L858.7,-1856.7 L869.0,-1896.9 L874.7,-1922.8 L-253.0,-1929.5 L-1368.3,-1936.7 L-1376.2,-1928.2 L-1387.9,-1922.9 L-1400.9,-1924.6 L-1413.7,-1928.7 L-1420.6,-1927.7 L-1444.8,-1897.6 L-1455.4,-1884.1 L-1475.8,-1858.6 L-1486.2,-1845.4 L-1507.1,-1819.8 L-1517.8,-1806.7 L-1545.4,-1773.2 L-1571.6,-1741.1 L-1578.1,-1733.2 L-1555.9,-1715.8 L-1563.8,-1706.7 L-1570.5,-1698.9 L-1591.6,-1716.4 L-1602.6,-1703.6 L-1655.6,-1642.0 L-1655.8,-1635.1 L-1656.6,-1529.6 L-1655.5,-1484.9 L-1529.7,-1485.9 L-1519.8,-1473.0 L-1512.2,-1458.2 L-1541.8,-1433.7 L-1560.7,-1443.4 L-1716.7,-1434.1 L-1822.1,-1342.5 L-2034.6,-1158.5 L-2188.4,-1027.1 L-2257.0,-948.6 L-2303.8,-874.7 L-2336.8,-783.7 L-2365.8,-599.6 L-2349.3,-595.6 L-2408.5,-462.0 L-2498.3,-287.5 L-2519.6,-280.3 L-2541.7,-253.3 L-2551.3,-241.5 L-2575.5,-233.0 L-2669.7,-140.3 Z" fill="#ece7dc" stroke="#d7d1c5" stroke-width="0.3"></path><path d="M129.2,76.7 L129.1,36.6 L143.0,36.6 L143.0,39.5 L171.9,39.5 L171.9,36.4 L190.7,36.3 L190.7,38.8 L218.4,38.7 L218.4,36.5 L229.8,36.5 L229.8,46.2 L226.7,46.2 L226.7,52.8 L231.1,52.8 L231.2,76.4 L234.2,76.3 L234.2,86.2 L223.3,86.2 L223.3,82.8 L194.4,82.8 L194.4,86.2 L186.1,86.2 L186.0,82.5 L176.0,82.5 L176.1,85.9 L167.6,85.9 L167.6,82.7 L138.0,82.7 L138.0,85.8 L125.9,85.8 L125.9,76.7 L129.2,76.7 Z" fill="#d6d2c9" stroke="#bab6ad" stroke-width="0.4"></path><path d="M199.5,144.7 L206.5,144.6 L206.4,131.3 L242.8,131.0 L242.9,144.4 L254.2,144.4 L254.4,166.3 L220.8,166.5 L220.8,163.5 L199.6,163.7 L199.5,144.7 Z" fill="#d6d2c9" stroke="#bab6ad" stroke-width="0.4"></path><path d="M91.8,131.2 L153.9,131.4 L153.8,150.0 L149.8,149.9 L149.8,169.4 L95.2,169.2 L95.3,149.6 L91.8,149.6 L91.8,131.2 Z" fill="#d6d2c9" stroke="#bab6ad" stroke-width="0.4"></path><path d="M-26.5,172.7 L-26.3,119.1 L46.9,119.4 L46.7,172.8 L19.1,172.7 L19.1,159.8 L25.1,159.8 L25.1,152.0 L26.8,152.0 L26.8,139.9 L14.2,139.9 L14.2,145.0 L5.7,144.9 L5.7,140.5 L-6.4,140.4 L-6.4,151.1 L-4.0,151.1 L-4.0,160.5 L0.4,160.5 L0.4,172.8 L-26.5,172.7 Z" fill="#d6d2c9" stroke="#bab6ad" stroke-width="0.4"><title>Beach Haus Key Biscayne</title></path><path d="M96.0,226.1 L189.0,225.8 L189.2,274.7 L160.4,274.8 L160.4,259.9 L150.8,259.9 L150.9,262.5 L132.9,262.6 L132.9,259.8 L123.3,259.8 L123.4,274.2 L96.1,274.3 L96.0,226.1 Z" fill="#d6d2c9" stroke="#bab6ad" stroke-width="0.4"></path><path d="M-28.9,225.9 L63.5,225.8 L63.6,274.7 L36.0,274.8 L36.0,260.0 L25.2,260.0 L25.2,262.4 L8.3,262.4 L8.3,259.6 L-1.5,259.6 L-1.5,274.7 L-28.8,274.7 L-28.9,225.9 Z" fill="#d6d2c9" stroke="#bab6ad" stroke-width="0.4"></path><path d="M224.7,232.7 L225.2,313.1 L225.3,322.9 L245.3,322.8 L245.1,286.3 L252.5,286.2 L252.4,262.3 L247.6,262.3 L247.4,232.5 L224.7,232.7 Z" fill="#d6d2c9" stroke="#bab6ad" stroke-width="0.4"></path><path d="M82.4,31.0 L82.4,54.8 L76.0,54.8 L75.9,58.7 L70.5,58.6 L70.5,63.1 L61.4,63.0 L61.4,58.8 L58.7,58.8 L58.7,55.4 L46.5,55.3 L46.0,65.0 L48.1,70.5 L48.8,93.7 L19.7,93.4 L19.5,30.6 L82.4,31.0 Z" fill="#d6d2c9" stroke="#bab6ad" stroke-width="0.4"></path><path d="M199.6,163.7 L199.5,144.7 L187.7,144.8 L187.8,163.8 L199.6,163.7 Z" fill="#d6d2c9" stroke="#bab6ad" stroke-width="0.4"></path><path d="M12.4,98.9 L10.6,-0.6" fill="none" stroke="#cec8bb" stroke-width="3.5" stroke-linecap="round" stroke-linejoin="round"/><path d="M12.4,98.9 L10.6,-0.6" fill="none" stroke="#ffffff" stroke-width="2.5" stroke-linecap="round" stroke-linejoin="round"></path><path d="M86.6,-0.3 L87.0,57.2" fill="none" stroke="#cec8bb" stroke-width="3.5" stroke-linecap="round" stroke-linejoin="round"/><path d="M86.6,-0.3 L87.0,57.2" fill="none" stroke="#ffffff" stroke-width="2.5" stroke-linecap="round" stroke-linejoin="round"></path><path d="M215.7,198.5 L215.7,213.3" fill="none" stroke="#cec8bb" stroke-width="3.5" stroke-linecap="round" stroke-linejoin="round"/><path d="M215.7,198.5 L215.7,213.3" fill="none" stroke="#ffffff" stroke-width="2.5" stroke-linecap="round" stroke-linejoin="round"></path><path d="M215.7,213.3 L216.8,277.9 L211.3,290.4 L198.4,305.1" fill="none" stroke="#cec8bb" stroke-width="3.5" stroke-linecap="round" stroke-linejoin="round"/><path d="M215.7,213.3 L216.8,277.9 L211.3,290.4 L198.4,305.1" fill="none" stroke="#ffffff" stroke-width="2.5" stroke-linecap="round" stroke-linejoin="round"></path><path d="M189.9,213.0 L189.6,198.7" fill="none" stroke="#cec8bb" stroke-width="3.5" stroke-linecap="round" stroke-linejoin="round"/><path d="M189.9,213.0 L189.6,198.7" fill="none" stroke="#ffffff" stroke-width="2.5" stroke-linecap="round" stroke-linejoin="round"></path><path d="M91.1,198.7 L91.2,212.9" fill="none" stroke="#cec8bb" stroke-width="3.5" stroke-linecap="round" stroke-linejoin="round"/><path d="M91.1,198.7 L91.2,212.9" fill="none" stroke="#ffffff" stroke-width="2.5" stroke-linecap="round" stroke-linejoin="round"></path><path d="M91.2,212.9 L91.5,275.9 L101.3,281.0 L191.1,280.1 L189.9,213.0" fill="none" stroke="#cec8bb" stroke-width="3.5" stroke-linecap="round" stroke-linejoin="round"/><path d="M91.2,212.9 L91.5,275.9 L101.3,281.0 L191.1,280.1 L189.9,213.0" fill="none" stroke="#ffffff" stroke-width="2.5" stroke-linecap="round" stroke-linejoin="round"></path><path d="M64.1,218.7 L63.7,198.8" fill="none" stroke="#cec8bb" stroke-width="3.5" stroke-linecap="round" stroke-linejoin="round"/><path d="M64.1,218.7 L63.7,198.8" fill="none" stroke="#ffffff" stroke-width="2.5" stroke-linecap="round" stroke-linejoin="round"></path><path d="M-32.4,198.9 L-32.4,174.4 L-33.6,117.9 L58.4,117.5 L59.6,173.9" fill="none" stroke="#cec8bb" stroke-width="3.5" stroke-linecap="round" stroke-linejoin="round"/><path d="M-32.4,198.9 L-32.4,174.4 L-33.6,117.9 L58.4,117.5 L59.6,173.9" fill="none" stroke="#ffffff" stroke-width="2.5" stroke-linecap="round" stroke-linejoin="round"></path><path d="M59.6,173.9 L59.5,198.8" fill="none" stroke="#cec8bb" stroke-width="3.5" stroke-linecap="round" stroke-linejoin="round"/><path d="M59.6,173.9 L59.5,198.8" fill="none" stroke="#ffffff" stroke-width="2.5" stroke-linecap="round" stroke-linejoin="round"></path><path d="M-32.1,218.0 L-32.3,278.1 L65.4,278.4 L64.1,218.7" fill="none" stroke="#cec8bb" stroke-width="3.5" stroke-linecap="round" stroke-linejoin="round"/><path d="M-32.1,218.0 L-32.3,278.1 L65.4,278.4 L64.1,218.7" fill="none" stroke="#ffffff" stroke-width="2.5" stroke-linecap="round" stroke-linejoin="round"></path><path d="M85.1,149.9 L85.4,198.7" fill="none" stroke="#cec8bb" stroke-width="3.5" stroke-linecap="round" stroke-linejoin="round"/><path d="M85.1,149.9 L85.4,198.7" fill="none" stroke="#ffffff" stroke-width="2.5" stroke-linecap="round" stroke-linejoin="round"></path><path d="M171.8,124.7 L85.0,125.8 L85.1,149.9" fill="none" stroke="#cec8bb" stroke-width="3.5" stroke-linecap="round" stroke-linejoin="round"/><path d="M171.8,124.7 L85.0,125.8 L85.1,149.9" fill="none" stroke="#ffffff" stroke-width="2.5" stroke-linecap="round" stroke-linejoin="round"></path><path d="M193.5,170.6 L193.9,198.5" fill="none" stroke="#cec8bb" stroke-width="3.5" stroke-linecap="round" stroke-linejoin="round"/><path d="M193.5,170.6 L193.9,198.5" fill="none" stroke="#ffffff" stroke-width="2.5" stroke-linecap="round" stroke-linejoin="round"></path><path d="M238.1,124.2 L193.4,124.5 L193.5,170.6" fill="none" stroke="#cec8bb" stroke-width="3.5" stroke-linecap="round" stroke-linejoin="round"/><path d="M238.1,124.2 L193.4,124.5 L193.5,170.6" fill="none" stroke="#ffffff" stroke-width="2.5" stroke-linecap="round" stroke-linejoin="round"></path><path d="M109.5,29.5 L109.5,-0.6" fill="none" stroke="#cec8bb" stroke-width="3.5" stroke-linecap="round" stroke-linejoin="round"/><path d="M109.5,29.5 L109.5,-0.6" fill="none" stroke="#ffffff" stroke-width="2.5" stroke-linecap="round" stroke-linejoin="round"></path><path d="M233.1,30.7 L109.5,29.5" fill="none" stroke="#cec8bb" stroke-width="3.5" stroke-linecap="round" stroke-linejoin="round"/><path d="M233.1,30.7 L109.5,29.5" fill="none" stroke="#ffffff" stroke-width="2.5" stroke-linecap="round" stroke-linejoin="round"></path><path d="M233.3,-0.7 L233.1,30.7" fill="none" stroke="#cec8bb" stroke-width="3.5" stroke-linecap="round" stroke-linejoin="round"/><path d="M233.3,-0.7 L233.1,30.7" fill="none" stroke="#ffffff" stroke-width="2.5" stroke-linecap="round" stroke-linejoin="round"></path><path d="M258.0,90.8 L109.5,90.8 L109.5,29.5" fill="none" stroke="#cec8bb" stroke-width="3.5" stroke-linecap="round" stroke-linejoin="round"/><path d="M258.0,90.8 L109.5,90.8 L109.5,29.5" fill="none" stroke="#ffffff" stroke-width="2.5" stroke-linecap="round" stroke-linejoin="round"></path><path d="M87.0,57.2 L86.8,97.9 L12.4,98.9" fill="none" stroke="#cec8bb" stroke-width="3.5" stroke-linecap="round" stroke-linejoin="round"/><path d="M87.0,57.2 L86.8,97.9 L12.4,98.9" fill="none" stroke="#ffffff" stroke-width="2.5" stroke-linecap="round" stroke-linejoin="round"></path><path d="M-55.9,199.0 L-32.4,198.9 L59.5,198.8 L63.7,198.8 L85.4,198.7 L91.1,198.7 L189.6,198.7 L193.9,198.5 L215.7,198.5 L312.0,198.3" fill="none" stroke="#cec8bb" stroke-width="4.8" stroke-linecap="round" stroke-linejoin="round"/><path d="M-55.9,199.0 L-32.4,198.9 L59.5,198.8 L63.7,198.8 L85.4,198.7 L91.1,198.7 L189.6,198.7 L193.9,198.5 L215.7,198.5 L312.0,198.3" fill="none" stroke="#ffffff" stroke-width="3.7" stroke-linecap="round" stroke-linejoin="round"><title>Sunrise Drive</title></path><path d="M-60.3,-0.5 L-13.5,-0.6 L10.6,-0.6 L38.0,-0.6 L86.6,-0.3 L109.5,-0.6 L173.0,-0.7 L233.3,-0.7 L272.3,-0.8" fill="none" stroke="#cec8bb" stroke-width="4.8" stroke-linecap="round" stroke-linejoin="round"/><path d="M-60.3,-0.5 L-13.5,-0.6 L10.6,-0.6 L38.0,-0.6 L86.6,-0.3 L109.5,-0.6 L173.0,-0.7 L233.3,-0.7 L272.3,-0.8" fill="none" stroke="#ffffff" stroke-width="3.7" stroke-linecap="round" stroke-linejoin="round"><title>Galen Drive</title></path><g transform="translate(50.4 98.4) rotate(179.2)"><path d="M -3.6 -3.2 L 4.4 0 L -3.6 3.2 Z" fill="#58656d" opacity="0.46"/></g><text x="60.5" y="146.0" text-anchor="middle" font-family="Arial, sans-serif" font-size="7.4" font-weight="600" paint-order="stroke" stroke="#edf3fa" stroke-width="1.65" stroke-linejoin="round" fill="#4f73a0" textLength="108.9" lengthAdjust="spacing">Beach Haus Key Biscayne</text><text x="140.4" y="198.7" transform="rotate(-0.0 140.4 198.7)" text-anchor="middle" dominant-baseline="central" font-family="Arial, sans-serif" font-size="8.3" textLength="69.1" lengthAdjust="spacing" font-weight="650" paint-order="stroke" stroke="#fffaf0" stroke-width="2.05" stroke-linejoin="round" fill="#695f54">Sunrise Drive</text><text x="186.7" y="64.5" text-anchor="middle" font-family="Arial, sans-serif" font-size="6.5" textLength="18.0" lengthAdjust="spacing" font-weight="500" paint-order="stroke" stroke="#f3f5ee" stroke-width="1.55" stroke-linejoin="round" fill="#6f777a">550</text><text x="224.8" y="150.0" text-anchor="middle" font-family="Arial, sans-serif" font-size="6.5" textLength="18.0" lengthAdjust="spacing" font-weight="500" paint-order="stroke" stroke="#f3f5ee" stroke-width="1.55" stroke-linejoin="round" fill="#6f777a">590</text><text x="57.9" y="60.3" text-anchor="middle" font-family="Arial, sans-serif" font-size="6.5" textLength="18.0" lengthAdjust="spacing" font-weight="500" paint-order="stroke" stroke="#f3f5ee" stroke-width="1.55" stroke-linejoin="round" fill="#6f777a">300</text><text x="48.1" y="246.0" text-anchor="middle" font-family="Arial, sans-serif" font-size="6.5" textLength="18.0" lengthAdjust="spacing" font-weight="500" paint-order="stroke" stroke="#f3f5ee" stroke-width="1.55" stroke-linejoin="round" fill="#6f777a">290</text></svg>