<svg xmlns="http://www.w3.org/2000/svg" width="256" height="256" viewBox="0 0 256 256"><rect width="256" height="256" fill="#f1efe7"/><path d="M-11786.7,5842.3 L-11571.9,5753.0 L-11504.7,5720.7 L-11204.2,5576.4 L-11147.8,5631.0 L-11142.9,5635.7 L-11037.5,5545.5 L-11012.4,5526.4 L-10970.5,5488.6 L-10734.4,5271.8 L-10543.9,5054.2 L-10536.6,5040.3 L-10529.6,5032.4 L-10518.5,5019.7 L-10507.2,5006.8 L-10502.6,5001.5 L-10577.7,4904.4 L-10478.3,4844.8 L-10424.4,4916.5 L-10348.2,4829.3 L-10412.7,4743.9 L-10332.8,4660.6 L-10271.3,4741.6 L-10200.7,4661.2 L-10170.6,4641.5 L-10023.4,4546.0 L-9950.7,4497.7 L-9863.1,4440.1 L-9821.7,4412.9 L-9716.8,4345.2 L-9743.8,4309.7 L-9792.1,4245.0 L-9667.2,4165.6 L-9621.7,4142.1 L-9618.2,4139.6 L-9594.2,4121.1 L-9508.6,4075.3 L-9502.7,4066.1 L-9478.7,4049.6 L-9465.7,4030.6 L-9462.0,4027.8 L-9441.1,4019.7 L-9393.9,4002.8 L-9361.6,3988.6 L-9247.5,3935.0 L-9246.1,3938.7 L-9150.4,3897.8 L-9111.3,3947.9 L-9024.2,3889.8 L-9011.8,3881.3 L-9010.6,3880.3 L-9009.4,3878.7 L-9007.5,3875.4 L-9006.5,3872.3 L-9005.9,3868.6 L-9006.0,3865.6 L-9006.4,3862.7 L-9006.8,3859.4 L-9006.9,3856.9 L-9006.7,3854.8 L-9006.3,3852.6 L-9004.7,3848.6 L-9003.6,3846.4 L-9001.1,3842.6 L-8998.5,3839.8 L-8985.8,3834.7 L-8975.2,3830.7 L-8961.7,3826.3 L-8955.4,3824.6 L-8944.2,3820.9 L-8936.3,3818.1 L-8925.4,3813.6 L-8910.6,3807.1 L-8894.6,3799.6 L-8886.0,3795.4 L-8875.2,3789.9 L-8865.1,3784.3 L-8855.0,3778.3 L-8844.7,3771.6 L-8841.5,3769.4 L-8820.8,3753.6 L-8803.4,3740.2 L-8786.4,3725.8 L-8770.5,3710.8 L-8759.0,3697.9 L-8747.6,3684.0 L-8733.6,3666.0 L-8720.8,3648.0 L-8706.1,3624.9 L-8696.5,3607.0 L-8690.5,3595.6 L-8681.6,3576.3 L-8674.1,3558.4 L-8667.4,3539.1 L-8662.0,3522.2 L-8656.1,3494.8 L-8651.8,3470.3 L-8649.5,3449.3 L-8647.5,3424.5 L-8647.3,3398.0 L-8648.9,3373.5 L-8653.1,3341.5 L-8657.5,3319.7 L-8662.5,3299.1 L-8669.9,3275.7 L-8676.2,3257.8 L-8683.4,3238.3 L-8690.2,3222.1 L-8694.8,3211.6 L-8696.7,3203.9 L-8697.0,3198.0 L-8696.4,3192.7 L-8694.3,3188.1 L-8691.1,3184.2 L-8686.9,3182.0 L-8682.4,3181.4 L-8670.3,3184.3 L-8636.6,3192.4 L-8625.4,2937.7 L-8581.7,2483.1 L-8629.2,2471.9 L-8634.4,2457.6 L-8634.2,2437.1 L-8627.6,2390.6 L-8618.6,2380.1 L-8610.6,2349.9 L-8560.1,2361.6 L-8532.3,2071.1 L-8524.6,1990.7 L-8540.3,1986.8 L-8530.8,1948.4 L-8563.1,1940.7 L-8559.0,1917.2 L-8553.3,1901.7 L-8546.2,1883.6 L-8534.2,1858.3 L-8521.3,1861.2 L-8503.9,1678.5 L-8499.8,1567.7 L-8499.0,1547.3 L-8489.6,1476.8 L-8470.9,1301.1 L-8346.1,975.7 L-8317.6,887.0 L-7970.9,754.0 L-7937.0,740.4 L-7931.1,737.2 L-7926.5,733.0 L-7921.4,727.1 L-7917.5,720.2 L-7914.9,713.4 L-7914.3,703.5 L-7914.8,691.2 L-7919.4,535.7 L-7921.1,505.6 L-7921.6,484.9 L-7922.3,444.7 L-7923.1,432.1 L-7924.6,421.5 L-7926.7,412.1 L-7929.8,402.5 L-7934.7,391.2 L-7941.9,379.1 L-7948.9,369.5 L-7954.3,360.4 L-7959.8,348.3 L-7964.4,336.7 L-7966.2,327.2 L-7967.6,316.7 L-7968.3,306.2 L-7968.0,296.0 L-7966.8,284.1 L-7964.0,272.4 L-7960.3,262.0 L-7956.4,252.5 L-7951.4,243.3 L-7945.3,232.1 L-7941.3,222.0 L-7937.8,209.1 L-7931.4,199.3 L-7933.6,110.1 L-7936.9,104.9 L-7937.9,44.3 L-7939.6,-27.2 L-7938.4,-37.1 L-7935.2,-47.2 L-7927.2,-63.0 L-7873.7,-178.1 L-7872.6,-180.0 L-7863.2,-200.5 L-7854.3,-219.9 L-7844.3,-239.9 L-7834.5,-260.5 L-7829.7,-270.5 L-7777.1,-378.4 L-7720.9,-497.6 L-7599.3,-744.4 L-7672.4,-826.3 L-7732.0,-699.3 L-7783.5,-589.4 L-7791.3,-573.8 L-7807.2,-541.3 L-7839.0,-544.0 L-7847.7,-544.5 L-7850.8,-541.7 L-7846.6,-537.9 L-7862.9,-523.4 L-7875.8,-511.5 L-7878.2,-460.6 L-7883.0,-450.4 L-7898.6,-451.0 L-7901.2,-451.9 L-8105.6,-536.3 L-8110.0,-538.6 L-8114.7,-541.6 L-8122.1,-547.2 L-8127.8,-552.6 L-8132.6,-557.8 L-8137.3,-564.2 L-8140.9,-569.8 L-8143.7,-575.6 L-8145.9,-581.7 L-8147.4,-585.9 L-8148.5,-591.0 L-8149.3,-597.0 L-8150.1,-605.2 L-8150.1,-616.9 L-8151.5,-656.6 L-8145.9,-656.9 L-8146.7,-677.9 L-8147.6,-712.5 L-8142.4,-712.6 L-8142.8,-736.2 L-8148.7,-736.1 L-8151.4,-835.5 L-8145.8,-835.8 L-8146.7,-859.1 L-8152.1,-858.9 L-8154.4,-932.4 L-8127.4,-961.5 L-8092.9,-962.7 L-8067.2,-963.6 L-8033.3,-964.7 L-8000.7,-965.7 L-7971.5,-966.7 L-7958.8,-967.3 L-7959.4,-978.6 L-7959.6,-990.4 L-7961.5,-1028.7 L-7962.2,-1101.8 L-7963.2,-1103.1 L-7963.4,-1110.3 L-7961.3,-1110.4 L-7966.4,-1286.5 L-7970.8,-1452.2 L-7971.5,-1457.4 L-7971.9,-1467.0 L-8044.1,-1464.4 L-8092.1,-1468.5 L-8451.4,-1456.0 L-8451.5,-1459.2 L-8452.2,-1474.5 L-8622.6,-1468.5 L-8622.9,-1496.8 L-8645.4,-1501.9 L-8649.4,-1623.0 L-7986.6,-1646.0 L-7975.6,-1661.1 L-7976.0,-1704.1 L-7976.8,-1741.3 L-7977.4,-1764.6 L-7978.3,-1787.3 L-8031.0,-1812.1 L-8033.1,-1867.2 L-7979.1,-1894.0 L-7984.0,-2021.5 L-7985.4,-2027.8 L-8039.1,-2052.9 L-8040.8,-2121.1 L-7989.8,-2147.4 L-8012.5,-2424.3 L-8006.5,-2547.5 L-8003.5,-2748.4 L-8003.7,-2966.9 L-7998.9,-2997.5 L-7998.6,-3012.3 L-8003.4,-3030.1 L-7998.4,-3030.1 L-7998.4,-3046.2 L-7995.4,-3457.2 L-7995.9,-3475.5 L-8001.6,-3475.5 L-8001.4,-3551.1 L-8004.7,-3555.8 L-8009.9,-3633.8 L-7999.6,-3705.1 L-8000.9,-3791.4 L-8004.4,-3812.1 L-7999.1,-3876.0 L-8002.7,-3953.3 L-8011.7,-4036.0 L-8028.8,-4170.0 L-8020.7,-4206.9 L-8024.3,-4242.8 L-8054.9,-4268.9 L-8099.8,-4268.5 L-8168.2,-4259.5 L-8212.7,-4259.5 L-8253.1,-4274.3 L-8306.2,-4310.7 L-8306.2,-4376.0 L-8307.6,-4456.3 L-8302.4,-4523.2 L-8284.8,-4575.4 L-7990.1,-4580.9 L-7983.3,-4998.8 L-7983.3,-5600.4 L-7986.4,-5818.7 L7925.8,-12390.4 L7925.8,23827.8 L-11786.7,23827.8 L-11786.7,5842.3 Z" fill="#add7e1" stroke="none"><title>Biscayne Bay</title></path><path d="M-130.7,362.3 L130.0,204.6 L162.3,274.5 L204.8,362.6 L213.2,376.8 L284.3,498.0 L347.8,606.4 L358.9,623.5 L450.0,773.0 L457.0,785.6 L491.4,824.8 L569.1,945.8 L637.7,1054.6 L674.4,1111.3 L705.1,1163.8 L741.0,1225.2 L732.4,1230.3 L752.2,1262.9 L809.1,1356.4 L847.1,1416.0 L862.3,1415.1 L877.0,1442.2 L933.2,1529.8 L935.8,1535.0 L741.8,1659.2 L646.8,1620.3 L244.2,968.6 L-130.7,362.3 Z" fill="#add7e1" stroke="#78b8c7" stroke-width="0.55"><title>Miami Beach Marina</title></path><path d="M-1450.8,2993.3 L3.2,2144.6 L-481.5,757.8 L-742.5,-2388.9 L-742.5,-4852.7 L-462.8,-7337.4 L4104.3,-9656.7 L4141.6,-6384.9 L3526.4,-3486.2 L2967.2,-380.8 L2594.3,2103.2 L1811.4,2993.3 L-1450.8,2993.3 Z" fill="#f1efe7" stroke="#8ab09d" stroke-width="0.65"><title>Miami Beach</title></path><path d="M1227.2,836.9 L1230.7,1079.1 L1230.9,1101.7 L1030.4,1106.4 L1039.0,1234.4 L1051.7,1272.1 L1054.7,1337.9 L1061.3,1423.3 L1302.0,1424.2 L1254.4,1660.7 L1227.5,1648.8 L1224.5,1662.6 L1182.5,1662.5 L1144.2,1649.7 L1109.1,1624.4 L1081.2,1577.4 L963.6,1579.7 L933.2,1529.8 L877.0,1442.2 L862.3,1415.1 L847.1,1416.0 L752.2,1262.9 L732.4,1230.3 L741.0,1225.2 L705.1,1163.8 L637.7,1054.6 L491.4,824.8 L457.0,785.6 L450.0,773.0 L358.9,623.5 L347.8,606.4 L284.3,498.0 L213.2,376.8 L204.8,362.6 L162.3,274.5 L130.0,204.6 L126.5,196.9 L119.6,180.1 L121.3,179.6 L231.2,171.0 L347.1,174.3 L346.9,199.3 L431.6,350.4 L447.7,343.0 L455.3,342.0 L462.9,341.1 L468.3,340.4 L569.7,336.2 L586.4,335.7 L680.2,333.6 L773.7,331.5 L791.1,331.2 L789.5,258.2 L807.1,258.1 L888.4,256.1 L924.1,254.5 L922.8,201.7 L988.9,198.3 L990.2,253.6 L1204.7,248.3 L1203.7,219.5 L1387.2,214.7 L1405.4,213.6 L1418.7,319.6 L1420.2,369.6 L1508.5,369.6 L1498.5,413.2 L1472.3,555.7 L1453.1,660.6 L1418.2,839.0 L1227.2,836.9 Z" fill="#ece7dc" stroke="#d7d1c5" stroke-width="0.3"></path><path d="M41.0,-1344.0 L168.0,-1349.7 L171.0,-1113.0 L62.7,-1107.6 L76.5,-832.3 L183.2,-831.9 L188.0,-514.0 L300.3,-512.3 L310.2,-109.0 L312.0,76.1 L307.6,89.1 L301.2,101.4 L292.1,109.4 L281.3,117.2 L261.1,119.4 L240.5,120.2 L149.8,122.8 L97.1,126.2 L95.4,122.3 L93.1,122.8 L90.8,116.3 L89.4,116.6 L87.0,110.4 L90.2,109.2 L82.7,88.1 L77.7,73.4 L71.1,56.1 L63.6,35.2 L60.4,25.6 L53.5,3.7 L43.8,-30.8 L26.7,-86.9 L20.8,-107.4 L16.6,-124.3 L14.1,-135.2 L11.4,-148.5 L8.7,-164.1 L5.4,-184.1 L0.5,-210.4 L-2.0,-223.4 L-11.7,-265.8 L-18.6,-298.3 L-25.0,-325.7 L-32.8,-359.9 L-43.9,-410.0 L-52.3,-446.7 L-61.6,-490.4 L-64.0,-501.3 L-66.3,-512.5 L-68.3,-524.1 L-70.4,-535.7 L-72.6,-549.0 L-75.5,-565.9 L-77.3,-580.0 L-78.6,-590.7 L-81.5,-618.1 L-83.7,-647.6 L-87.7,-709.6 L-98.1,-848.3 L-111.8,-847.1 L-118.2,-933.2 L-104.3,-934.3 L-108.1,-991.8 L-110.3,-1025.7 L-112.0,-1055.3 L-118.7,-1160.8 L-121.3,-1201.3 L-127.1,-1280.3 L-129.3,-1315.2 L41.5,-1319.5 L41.0,-1344.0 Z" fill="#ece7dc" stroke="#d7d1c5" stroke-width="0.3"></path><path d="M-1.0,-1.0 L257.0,-1.0 L257.0,257.0 L-1.0,257.0 L-1.0,-1.0 Z M257.0,-1.0 L52.2,-1.0 L53.5,3.7 L60.4,25.6 L63.6,35.2 L71.1,56.1 L77.7,73.4 L82.7,88.1 L90.2,109.2 L87.0,110.4 L89.4,116.6 L90.8,116.3 L93.1,122.8 L95.4,122.3 L97.1,126.2 L121.3,179.6 L119.6,180.1 L126.5,196.9 L130.0,204.6 L154.2,257.0 L257.0,257.0 L257.0,-1.0 Z" fill="#add7e1" stroke="none" fill-rule="evenodd"><title>Biscayne Bay</title></path><path d="M95.2,-7.5 L105.8,22.5 L76.6,32.5 L47.9,-49.3 L55.3,-51.3 L71.6,-0.0 L95.2,-7.5 Z" fill="#d6d2c9" stroke="#bab6ad" stroke-width="0.4"></path><path d="M157.8,221.9 L160.8,215.6 L193.0,202.9 L209.5,200.6 L231.5,198.4 L272.8,197.1 L284.0,197.9 L297.8,202.9 L307.3,212.9 L334.5,257.9 L343.8,273.2 L351.8,285.6 L332.7,296.1 L320.1,318.1 L303.7,313.2 L296.9,316.6 L267.2,331.9 L227.0,348.1 L194.2,288.1 L157.8,221.9 Z" fill="#d6d2c9" stroke="#bab6ad" stroke-width="0.4"><title>ICON at South Beach</title></path><path d="M205.9,-80.4 L212.8,-89.3 L219.4,-92.2 L233.5,-90.9 L248.3,-87.8 L256.1,-87.5 L264.1,-89.1 L273.1,-92.8 L281.9,-91.2 L290.5,-84.4 L294.2,-74.6 L290.4,-59.3 L287.7,-33.9 L292.7,-21.4 L294.0,-9.0 L292.1,0.1 L294.0,6.3 L296.1,13.0 L298.1,67.6 L295.1,79.4 L285.8,92.2 L271.2,98.6 L232.5,102.9 L221.3,100.8 L184.1,55.2 L172.7,1.4 L172.2,-48.5 L175.5,-53.3 L180.9,-57.4 L203.1,-73.9 L205.9,-80.4 Z" fill="#d6d2c9" stroke="#bab6ad" stroke-width="0.4"><title>Five Park</title></path><path d="M114.4,28.3 L125.3,61.1 L111.9,65.6 L101.0,32.8 L114.4,28.3 Z" fill="#e0e9e8" stroke="#91b7bc" stroke-width="0.55"></path><path d="M200.7,235.6 L200.9,231.5 L199.7,227.6 L197.2,224.3 L193.8,222.0 L190.2,221.1 L186.5,221.3 L183.1,222.7 L180.2,225.0 L178.2,228.1 L177.2,231.7 L177.4,235.4 L178.8,238.9 L181.1,241.8 L184.6,244.0 L188.6,244.8 L192.7,244.3 L196.3,242.4 L199.1,239.4 L200.7,235.6 Z" fill="#e0e9e8" stroke="#91b7bc" stroke-width="0.55"></path><path d="M26.7,-86.9 L43.8,-30.8 L53.5,3.7 L60.4,25.6 L63.6,35.2 L71.1,56.1 L77.7,73.4 L82.7,88.1 L90.2,109.2 L87.0,110.4 L89.4,116.6 L90.8,116.3 L93.1,122.8 L95.4,122.3 L97.1,126.2 L121.3,179.6 L119.6,180.1 L126.5,196.9 L130.0,204.6 L162.3,274.5 L204.8,362.6" fill="none" stroke="#79bdd0" stroke-width="1.4" stroke-linecap="round" stroke-linejoin="round"></path><path d="M152.4,200.1 L171.0,198.6 L196.5,190.8 L226.2,185.7 L274.6,185.0 L281.3,185.1 L288.6,185.8 L296.8,188.3 L302.4,190.7 L308.1,194.5" fill="none" stroke="#cf828d" stroke-width="1.5" stroke-dasharray="1.6 3.0" opacity="0.62" stroke-linecap="round" stroke-linejoin="round"><title>Miami Beach Marina Walk</title></path><path d="M-998.7,625.9 L-25.6,211.7 L10.3,199.0 L39.0,191.0 L76.0,182.9 L108.5,178.0 L128.4,176.0" fill="none" stroke="#cf828d" stroke-width="1.5" stroke-dasharray="1.6 3.0" opacity="0.62" stroke-linecap="round" stroke-linejoin="round"></path><path d="M128.4,176.0 L139.2,175.9 L147.1,179.5 L150.9,186.1 L152.4,200.1" fill="none" stroke="#cf828d" stroke-width="1.5" stroke-dasharray="1.6 3.0" opacity="0.62" stroke-linecap="round" stroke-linejoin="round"></path><path d="M299.7,-49.2 L299.8,-39.3 L301.1,6.4 L301.8,41.9 L302.5,61.7 L302.9,76.9 L302.4,81.3 L300.8,86.4 L298.4,91.4 L294.0,96.6 L289.9,100.4 L284.7,103.1 L279.2,104.8 L273.6,105.3 L208.3,110.7 L204.9,110.8 L200.8,110.3 L198.3,109.3 L195.9,106.8 L191.2,96.0 L184.8,79.6 L179.6,66.1 L176.3,56.8 L167.8,26.0 L164.6,9.1 L163.4,-2.7 L162.9,-23.5 L162.6,-48.7" fill="none" stroke="#cf828d" stroke-width="1.5" stroke-dasharray="1.6 3.0" opacity="0.62" stroke-linecap="round" stroke-linejoin="round"></path><path d="M198.3,109.3 L193.4,113.3" fill="none" stroke="#cf828d" stroke-width="1.5" stroke-dasharray="1.6 3.0" opacity="0.62" stroke-linecap="round" stroke-linejoin="round"></path><path d="M193.4,113.3 L177.8,114.4 L164.5,115.4" fill="none" stroke="#cf828d" stroke-width="1.5" stroke-dasharray="1.6 3.0" opacity="0.62" stroke-linecap="round" stroke-linejoin="round"></path><path d="M134.9,-51.5 L135.3,-35.7 L136.0,-16.4 L136.7,-1.8 L137.7,10.1 L140.6,30.1 L148.3,57.9 L157.3,86.3 L161.0,93.0 L163.1,98.2 L164.0,103.8 L163.8,111.0 L162.1,115.1" fill="none" stroke="#cf828d" stroke-width="1.5" stroke-dasharray="1.6 3.0" opacity="0.62" stroke-linecap="round" stroke-linejoin="round"></path><path d="M-111.4,195.5 L-10.9,153.7 L7.8,147.0 L28.4,141.3 L62.1,133.5 L72.0,131.9 L111.0,126.6 L123.6,125.7" fill="none" stroke="#cf828d" stroke-width="1.5" stroke-dasharray="1.6 3.0" opacity="0.62" stroke-linecap="round" stroke-linejoin="round"></path><path d="M123.6,125.7 L137.2,124.9 L152.5,123.1 L157.6,120.4 L160.5,117.4 L162.1,115.1" fill="none" stroke="#cf828d" stroke-width="1.5" stroke-dasharray="1.6 3.0" opacity="0.62" stroke-linecap="round" stroke-linejoin="round"></path><path d="M162.1,115.1 L164.5,115.4" fill="none" stroke="#cf828d" stroke-width="1.5" stroke-dasharray="1.6 3.0" opacity="0.62" stroke-linecap="round" stroke-linejoin="round"></path><path d="M192.4,321.2 L148.3,223.4 L148.1,212.1 L152.4,200.1" fill="none" stroke="#f4f0e4" stroke-width="3.0" stroke-linecap="round" stroke-linejoin="round"><title>Miami Beach Marina Walk</title></path><path d="M178.9,132.4 L178.6,122.7 L177.8,114.4 L176.2,102.5 L173.4,91.3 L166.6,67.4 L160.1,47.9 L155.5,31.6 L151.8,13.6 L150.5,-3.0 L150.4,-24.4 L150.7,-42.7 L149.0,-60.1" fill="none" stroke="#d1c4aa" stroke-width="5.4" stroke-linecap="round" stroke-linejoin="round"/><path d="M178.9,132.4 L178.6,122.7 L177.8,114.4 L176.2,102.5 L173.4,91.3 L166.6,67.4 L160.1,47.9 L155.5,31.6 L151.8,13.6 L150.5,-3.0 L150.4,-24.4 L150.7,-42.7 L149.0,-60.1" fill="none" stroke="#f4d99b" stroke-width="4.0" stroke-linecap="round" stroke-linejoin="round"><title>West Avenue</title></path><path d="M124.2,137.7 L110.4,138.9 L91.0,141.5 L68.0,145.6 L46.2,149.8 L25.4,155.3" fill="none" stroke="#d8955f" stroke-width="9.0" stroke-linecap="round" stroke-linejoin="round"/><path d="M124.2,137.7 L110.4,138.9 L91.0,141.5 L68.0,145.6 L46.2,149.8 L25.4,155.3" fill="none" stroke="#f0a86f" stroke-width="7.5" stroke-linecap="round" stroke-linejoin="round"><title>MacArthur Causeway</title></path><path d="M124.2,137.7 L110.4,138.9 L91.0,141.5 L68.0,145.6 L46.2,149.8 L25.4,155.3" fill="none" stroke="#fff8ef" stroke-width="1.8" stroke-dasharray="5.5 6.5" opacity="0.82" stroke-linecap="round" stroke-linejoin="round"/><path d="M147.0,165.9 L206.7,164.3 L253.6,163.9 L278.3,163.8" fill="none" stroke="#d8955f" stroke-width="9.0" stroke-linecap="round" stroke-linejoin="round"/><path d="M147.0,165.9 L206.7,164.3 L253.6,163.9 L278.3,163.8" fill="none" stroke="#f0a86f" stroke-width="7.5" stroke-linecap="round" stroke-linejoin="round"><title>5th Street</title></path><path d="M147.0,165.9 L206.7,164.3 L253.6,163.9 L278.3,163.8" fill="none" stroke="#fff8ef" stroke-width="1.8" stroke-dasharray="5.5 6.5" opacity="0.82" stroke-linecap="round" stroke-linejoin="round"/><path d="M226.5,151.3 L251.1,149.7 L265.6,147.7 L278.0,143.8 L288.4,138.6 L297.8,133.2 L307.4,124.7" fill="none" stroke="#d8955f" stroke-width="6.9" stroke-linecap="round" stroke-linejoin="round"/><path d="M226.5,151.3 L251.1,149.7 L265.6,147.7 L278.0,143.8 L288.4,138.6 L297.8,133.2 L307.4,124.7" fill="none" stroke="#f0a86f" stroke-width="5.3" stroke-linecap="round" stroke-linejoin="round"></path><path d="M226.5,151.3 L251.1,149.7 L265.6,147.7 L278.0,143.8 L288.4,138.6 L297.8,133.2 L307.4,124.7" fill="none" stroke="#fff8ef" stroke-width="1.3" stroke-dasharray="5.5 6.5" opacity="0.82" stroke-linecap="round" stroke-linejoin="round"/><path d="M125.0,154.0 L145.8,152.6 L169.8,152.1 L196.8,151.6 L226.5,151.3" fill="none" stroke="#d8955f" stroke-width="6.9" stroke-linecap="round" stroke-linejoin="round"/><path d="M125.0,154.0 L145.8,152.6 L169.8,152.1 L196.8,151.6 L226.5,151.3" fill="none" stroke="#f0a86f" stroke-width="5.3" stroke-linecap="round" stroke-linejoin="round"></path><path d="M125.0,154.0 L145.8,152.6 L169.8,152.1 L196.8,151.6 L226.5,151.3" fill="none" stroke="#fff8ef" stroke-width="1.3" stroke-dasharray="5.5 6.5" opacity="0.82" stroke-linecap="round" stroke-linejoin="round"/><path d="M273.9,125.4 L230.7,128.7" fill="none" stroke="#d8955f" stroke-width="9.0" stroke-linecap="round" stroke-linejoin="round"/><path d="M273.9,125.4 L230.7,128.7" fill="none" stroke="#f0a86f" stroke-width="7.5" stroke-linecap="round" stroke-linejoin="round"><title>5th Street</title></path><path d="M273.9,125.4 L230.7,128.7" fill="none" stroke="#fff8ef" stroke-width="1.8" stroke-dasharray="5.5 6.5" opacity="0.82" stroke-linecap="round" stroke-linejoin="round"/><path d="M-40.8,204.1 L-36.1,202.8 L12.6,188.3 L35.7,181.8 L58.6,176.7 L81.2,172.5 L104.2,169.2 L126.1,167.1" fill="none" stroke="#d8955f" stroke-width="9.0" stroke-linecap="round" stroke-linejoin="round"/><path d="M-40.8,204.1 L-36.1,202.8 L12.6,188.3 L35.7,181.8 L58.6,176.7 L81.2,172.5 L104.2,169.2 L126.1,167.1" fill="none" stroke="#f0a86f" stroke-width="7.5" stroke-linecap="round" stroke-linejoin="round"><title>MacArthur Causeway</title></path><path d="M-40.8,204.1 L-36.1,202.8 L12.6,188.3 L35.7,181.8 L58.6,176.7 L81.2,172.5 L104.2,169.2 L126.1,167.1" fill="none" stroke="#fff8ef" stroke-width="1.8" stroke-dasharray="5.5 6.5" opacity="0.82" stroke-linecap="round" stroke-linejoin="round"/><path d="M25.4,155.3 L5.8,161.0 L-15.4,168.5 L-37.4,177.0 L-57.6,185.6" fill="none" stroke="#d8955f" stroke-width="9.0" stroke-linecap="round" stroke-linejoin="round"/><path d="M25.4,155.3 L5.8,161.0 L-15.4,168.5 L-37.4,177.0 L-57.6,185.6" fill="none" stroke="#f0a86f" stroke-width="7.5" stroke-linecap="round" stroke-linejoin="round"><title>MacArthur Causeway</title></path><path d="M25.4,155.3 L5.8,161.0 L-15.4,168.5 L-37.4,177.0 L-57.6,185.6" fill="none" stroke="#fff8ef" stroke-width="1.8" stroke-dasharray="5.5 6.5" opacity="0.82" stroke-linecap="round" stroke-linejoin="round"/><path d="M178.9,132.4 L124.2,137.7" fill="none" stroke="#d8955f" stroke-width="9.0" stroke-linecap="round" stroke-linejoin="round"/><path d="M178.9,132.4 L124.2,137.7" fill="none" stroke="#f0a86f" stroke-width="7.5" stroke-linecap="round" stroke-linejoin="round"><title>5th Street</title></path><path d="M178.9,132.4 L124.2,137.7" fill="none" stroke="#fff8ef" stroke-width="1.8" stroke-dasharray="5.5 6.5" opacity="0.82" stroke-linecap="round" stroke-linejoin="round"/><path d="M126.1,167.1 L147.0,165.9" fill="none" stroke="#d8955f" stroke-width="9.0" stroke-linecap="round" stroke-linejoin="round"/><path d="M126.1,167.1 L147.0,165.9" fill="none" stroke="#f0a86f" stroke-width="7.5" stroke-linecap="round" stroke-linejoin="round"><title>5th Street</title></path><path d="M126.1,167.1 L147.0,165.9" fill="none" stroke="#fff8ef" stroke-width="1.8" stroke-dasharray="5.5 6.5" opacity="0.82" stroke-linecap="round" stroke-linejoin="round"/><path d="M-40.8,204.1 L6.3,179.1 L24.9,173.0 L46.6,167.1 L65.9,162.6 L85.8,158.9 L105.8,156.0 L125.0,154.0" fill="none" stroke="#d8955f" stroke-width="6.9" stroke-linecap="round" stroke-linejoin="round"/><path d="M-40.8,204.1 L6.3,179.1 L24.9,173.0 L46.6,167.1 L65.9,162.6 L85.8,158.9 L105.8,156.0 L125.0,154.0" fill="none" stroke="#f0a86f" stroke-width="5.3" stroke-linecap="round" stroke-linejoin="round"></path><path d="M-40.8,204.1 L6.3,179.1 L24.9,173.0 L46.6,167.1 L65.9,162.6 L85.8,158.9 L105.8,156.0 L125.0,154.0" fill="none" stroke="#fff8ef" stroke-width="1.3" stroke-dasharray="5.5 6.5" opacity="0.82" stroke-linecap="round" stroke-linejoin="round"/><path d="M230.7,128.7 L178.9,132.4" fill="none" stroke="#d8955f" stroke-width="9.0" stroke-linecap="round" stroke-linejoin="round"/><path d="M230.7,128.7 L178.9,132.4" fill="none" stroke="#f0a86f" stroke-width="7.5" stroke-linecap="round" stroke-linejoin="round"><title>5th Street</title></path><path d="M230.7,128.7 L178.9,132.4" fill="none" stroke="#fff8ef" stroke-width="1.8" stroke-dasharray="5.5 6.5" opacity="0.82" stroke-linecap="round" stroke-linejoin="round"/><g><rect x="156.3" y="158.1" width="41.0" height="14.0" rx="3" fill="#ffffff" stroke="#8a8f96" stroke-width="1"/><text x="176.8" y="165.5" text-anchor="middle" dominant-baseline="central" font-family="Arial, sans-serif" font-size="8" font-weight="700" fill="#56616a">SR A1A</text></g><text x="151.6" y="135.0" transform="rotate(-5.6 151.6 135.0)" text-anchor="middle" dominant-baseline="central" font-family="Arial, sans-serif" font-size="8.3" textLength="53.1" lengthAdjust="spacing" font-weight="650" paint-order="stroke" stroke="#fffaf0" stroke-width="2.05" stroke-linejoin="round" fill="#695f54">5th Street</text><g><title>Poseidon ferry</title><circle cx="78.7" cy="64.2" r="4.6" fill="#a34ab4" stroke="#ffffff" stroke-width="1.7"/><path d="M76.2,63.3 H81.3 V67.0 H76.2 Z" stroke="#ffffff" stroke-width="1.10" stroke-linejoin="round" fill="none"/><path d="M77.5,63.3 C77.6,61.1 79.8,61.1 80.0,63.3" stroke="#ffffff" stroke-width="1.10" stroke-linecap="round" fill="none"/></g><g opacity="0.56"><title>crossing</title><path d="M175.6,112.6 L180.1,112.6 M175.6,114.4 L180.1,114.4 M175.6,116.2 L180.1,116.2" stroke="#ffffff" stroke-width="2.1" stroke-linecap="round"/><path d="M175.6,112.6 L180.1,112.6 M175.6,114.4 L180.1,114.4 M175.6,116.2 L180.1,116.2" stroke="#59656a" stroke-width="0.85" stroke-linecap="round"/></g></svg>