<svg xmlns="http://www.w3.org/2000/svg" width="256" height="256" viewBox="0 0 256 256"><rect width="256" height="256" fill="#f1efe7"/><path d="M-11786.7,-2605.7 L-11571.9,-2695.0 L-11504.7,-2727.3 L-11204.2,-2871.6 L-11147.8,-2817.0 L-11142.9,-2812.3 L-11037.5,-2902.5 L-11012.4,-2921.6 L-10970.5,-2959.4 L-10734.4,-3176.2 L-10543.9,-3393.8 L-10536.6,-3407.7 L-10529.6,-3415.6 L-10518.5,-3428.3 L-10507.2,-3441.2 L-10502.6,-3446.5 L-10577.7,-3543.6 L-10478.3,-3603.2 L-10424.4,-3531.5 L-10348.2,-3618.7 L-10412.7,-3704.1 L-10332.8,-3787.4 L-10271.3,-3706.4 L-10200.7,-3786.8 L-10170.6,-3806.5 L-10023.4,-3902.0 L-9950.7,-3950.3 L-9863.1,-4007.9 L-9821.7,-4035.1 L-9716.8,-4102.8 L-9743.8,-4138.3 L-9792.1,-4203.0 L-9667.2,-4282.4 L-9621.7,-4305.9 L-9618.2,-4308.4 L-9594.2,-4326.9 L-9508.6,-4372.7 L-9502.7,-4381.9 L-9478.7,-4398.4 L-9465.7,-4417.4 L-9462.0,-4420.2 L-9441.1,-4428.3 L-9393.9,-4445.2 L-9361.6,-4459.4 L-9247.5,-4513.0 L-9246.1,-4509.3 L-9150.4,-4550.2 L-9111.3,-4500.1 L-9024.2,-4558.2 L-9011.8,-4566.7 L-9010.6,-4567.7 L-9009.4,-4569.3 L-9007.5,-4572.6 L-9006.5,-4575.7 L-9005.9,-4579.4 L-9006.0,-4582.4 L-9006.4,-4585.3 L-9006.8,-4588.6 L-9006.9,-4591.1 L-9006.7,-4593.2 L-9006.3,-4595.4 L-9004.7,-4599.4 L-9003.6,-4601.6 L-9001.1,-4605.4 L-8998.5,-4608.2 L-8985.8,-4613.3 L-8975.2,-4617.3 L-8961.7,-4621.7 L-8955.4,-4623.4 L-8944.2,-4627.1 L-8936.3,-4629.9 L-8925.4,-4634.4 L-8910.6,-4640.9 L-8894.6,-4648.4 L-8886.0,-4652.6 L-8875.2,-4658.1 L-8865.1,-4663.7 L-8855.0,-4669.7 L-8844.7,-4676.4 L-8841.5,-4678.6 L-8820.8,-4694.4 L-8803.4,-4707.8 L-8786.4,-4722.2 L-8770.5,-4737.2 L-8759.0,-4750.1 L-8747.6,-4764.0 L-8733.6,-4782.0 L-8720.8,-4800.0 L-8706.1,-4823.1 L-8696.5,-4841.0 L-8690.5,-4852.4 L-8681.6,-4871.7 L-8674.1,-4889.6 L-8667.4,-4908.9 L-8662.0,-4925.8 L-8656.1,-4953.2 L-8651.8,-4977.7 L-8649.5,-4998.7 L-8647.5,-5023.5 L-8647.3,-5050.0 L-8648.9,-5074.5 L-8653.1,-5106.5 L-8657.5,-5128.3 L-8662.5,-5148.9 L-8669.9,-5172.3 L-8676.2,-5190.2 L-8683.4,-5209.7 L-8690.2,-5225.9 L-8694.8,-5236.4 L-8696.7,-5244.1 L-8697.0,-5250.0 L-8696.4,-5255.3 L-8694.3,-5259.9 L-8691.1,-5263.8 L-8686.9,-5266.0 L-8682.4,-5266.6 L-8670.3,-5263.7 L-8636.6,-5255.6 L-8625.4,-5510.3 L-8581.7,-5964.9 L-8629.2,-5976.1 L-8634.4,-5990.4 L-8634.2,-6010.9 L-8627.6,-6057.4 L-8618.6,-6067.9 L-8610.6,-6098.1 L-8560.1,-6086.4 L-8532.3,-6376.9 L-8524.6,-6457.3 L-8540.3,-6461.2 L-8530.8,-6499.6 L-8563.1,-6507.3 L-8559.0,-6530.8 L-8553.3,-6546.3 L-8546.2,-6564.4 L-8534.2,-6589.7 L-8521.3,-6586.8 L-8503.9,-6769.5 L-8499.8,-6880.3 L-8499.0,-6900.7 L-8489.6,-6971.2 L-8470.9,-7146.9 L-8346.1,-7472.3 L-8317.6,-7561.0 L-7970.9,-7694.0 L-7937.0,-7707.6 L-7931.1,-7710.8 L-7926.5,-7715.0 L-7921.4,-7720.9 L-7917.5,-7727.8 L-7914.9,-7734.6 L-7914.3,-7744.5 L-7914.8,-7756.8 L-7919.4,-7912.3 L-7921.1,-7942.4 L-7921.6,-7963.1 L-7922.3,-8003.3 L-7923.1,-8015.9 L-7924.6,-8026.5 L-7926.7,-8035.9 L-7929.8,-8045.5 L-7934.7,-8056.8 L-7941.9,-8068.9 L-7948.9,-8078.5 L-7954.3,-8087.6 L-7959.8,-8099.7 L-7964.4,-8111.3 L-7966.2,-8120.8 L-7967.6,-8131.3 L-7968.3,-8141.8 L-7968.0,-8152.0 L-7966.8,-8163.9 L-7964.0,-8175.6 L-7960.3,-8186.0 L-7956.4,-8195.5 L-7951.4,-8204.7 L-7945.3,-8215.9 L-7941.3,-8226.0 L-7937.8,-8238.9 L-7931.4,-8248.7 L-7933.6,-8337.9 L-7936.9,-8343.1 L-7937.9,-8403.7 L-7939.6,-8475.2 L-7938.4,-8485.1 L-7935.2,-8495.2 L-7927.2,-8511.0 L-7873.7,-8626.1 L-7872.6,-8628.0 L-7863.2,-8648.5 L-7854.3,-8667.9 L-7844.3,-8687.9 L-7834.5,-8708.5 L-7829.7,-8718.5 L-7777.1,-8826.4 L-7720.9,-8945.6 L-7599.3,-9192.4 L-7672.4,-9274.3 L-7732.0,-9147.3 L-7783.5,-9037.4 L-7791.3,-9021.8 L-7807.2,-8989.3 L-7839.0,-8992.0 L-7847.7,-8992.5 L-7850.8,-8989.7 L-7846.6,-8985.9 L-7862.9,-8971.4 L-7875.8,-8959.5 L-7878.2,-8908.6 L-7883.0,-8898.4 L-7898.6,-8899.0 L-7901.2,-8899.9 L-8105.6,-8984.3 L-8110.0,-8986.6 L-8114.7,-8989.6 L-8122.1,-8995.2 L-8127.8,-9000.6 L-8132.6,-9005.8 L-8137.3,-9012.2 L-8140.9,-9017.8 L-8143.7,-9023.6 L-8145.9,-9029.7 L-8147.4,-9033.9 L-8148.5,-9039.0 L-8149.3,-9045.0 L-8150.1,-9053.2 L-8150.1,-9064.9 L-8151.5,-9104.6 L-8145.9,-9104.9 L-8146.7,-9125.9 L-8147.6,-9160.5 L-8142.4,-9160.6 L-8142.8,-9184.2 L-8148.7,-9184.1 L-8151.4,-9283.5 L-8145.8,-9283.8 L-8146.7,-9307.1 L-8152.1,-9306.9 L-8154.4,-9380.4 L-8127.4,-9409.5 L-8092.9,-9410.7 L-8067.2,-9411.6 L-8033.3,-9412.7 L-8000.7,-9413.7 L-7971.5,-9414.7 L-7958.8,-9415.3 L-7959.4,-9426.6 L-7959.6,-9438.4 L-7961.5,-9476.7 L-7962.2,-9549.8 L-7963.2,-9551.1 L-7963.4,-9558.3 L-7961.3,-9558.4 L-7966.4,-9734.5 L-7970.8,-9900.2 L-7971.5,-9905.4 L-7971.9,-9915.0 L-8044.1,-9912.4 L-8092.1,-9916.5 L-8451.4,-9904.0 L-8451.5,-9907.2 L-8452.2,-9922.5 L-8622.6,-9916.5 L-8622.9,-9944.8 L-8645.4,-9949.9 L-8649.4,-10071.0 L-7986.6,-10094.0 L-7975.6,-10109.1 L-7976.0,-10152.1 L-7976.8,-10189.3 L-7977.4,-10212.6 L-7978.3,-10235.3 L-8031.0,-10260.1 L-8033.1,-10315.2 L-7979.1,-10342.0 L-7984.0,-10469.5 L-7985.4,-10475.8 L-8039.1,-10500.9 L-8040.8,-10569.1 L-7989.8,-10595.4 L-8012.5,-10872.3 L-8006.5,-10995.5 L-8003.5,-11196.4 L-8003.7,-11414.9 L-7998.9,-11445.5 L-7998.6,-11460.3 L-8003.4,-11478.1 L-7998.4,-11478.1 L-7998.4,-11494.2 L-7995.4,-11905.2 L-7995.9,-11923.5 L-8001.6,-11923.5 L-8001.4,-11999.1 L-8004.7,-12003.8 L-8009.9,-12081.8 L-7999.6,-12153.1 L-8000.9,-12239.4 L-8004.4,-12260.1 L-7999.1,-12324.0 L-8002.7,-12401.3 L-8011.7,-12484.0 L-8028.8,-12618.0 L-8020.7,-12654.9 L-8024.3,-12690.8 L-8054.9,-12716.9 L-8099.8,-12716.5 L-8168.2,-12707.5 L-8212.7,-12707.5 L-8253.1,-12722.3 L-8306.2,-12758.7 L-8306.2,-12824.0 L-8307.6,-12904.3 L-8302.4,-12971.2 L-8284.8,-13023.4 L-7990.1,-13028.9 L-7983.3,-13446.8 L-7983.3,-14048.4 L-7986.4,-14266.7 L7925.8,-20838.4 L7925.8,15379.8 L-11786.7,15379.8 L-11786.7,-2605.7 Z" fill="#add7e1" stroke="none"><title>Biscayne Bay</title></path><path d="M-6018.0,-5682.4 L-3967.4,-5268.4 L-1730.5,-4150.7 L-15.5,-2453.6 L655.6,-798.0 L-164.6,567.8 L-1693.2,1312.7 L-3147.2,1271.4 L-4340.2,443.6 L-5458.7,-963.6 L-6838.2,-2577.8 L-6689.1,-4481.9 Z" fill="#f1efe7" stroke="#8ab09d" stroke-width="0.65"><title>Virginia Key</title></path><path d="M-1.0,-1.0 L257.0,-1.0 L257.0,257.0 L-1.0,257.0 L-1.0,-1.0 Z" fill="#add7e1" stroke="none" fill-rule="evenodd"><title>Biscayne Bay</title></path><path d="M-6726.3,-322.0 L-3911.5,-384.1 L-462.8,-177.2 L96.4,940.3 L-1954.2,1478.3 L-5458.7,1540.4 L-6800.9,1105.8 Z" fill="#add7e1" stroke="none"><title>Bear Cut</title></path><path d="M-7211.0,-2370.8 L-5868.8,-2619.2 L-4377.5,-2515.7 L-2848.9,-2971.0 L-1096.7,-3674.7 L-201.9,-4088.6 L171.0,-3260.8 L-462.8,-2039.7 L-1618.6,-1087.7 L-3035.4,-301.3 L-3892.9,485.0 L-5458.7,712.7 L-6428.1,629.9 L-7173.7,-135.8 Z" fill="#f1efe7" stroke="#8ab09d" stroke-width="0.65"><title>Virginia Key north of Bear Cut</title></path></svg>