<svg xmlns="http://www.w3.org/2000/svg" width="256" height="256" viewBox="0 0 256 256"><rect width="256" height="256" fill="#f1efe7"/><path d="M-11786.7,-7469.7 L-11571.9,-7559.0 L-11504.7,-7591.3 L-11204.2,-7735.6 L-11147.8,-7681.0 L-11142.9,-7676.3 L-11037.5,-7766.5 L-11012.4,-7785.6 L-10970.5,-7823.4 L-10734.4,-8040.2 L-10543.9,-8257.8 L-10536.6,-8271.7 L-10529.6,-8279.6 L-10518.5,-8292.3 L-10507.2,-8305.2 L-10502.6,-8310.5 L-10577.7,-8407.6 L-10478.3,-8467.2 L-10424.4,-8395.5 L-10348.2,-8482.7 L-10412.7,-8568.1 L-10332.8,-8651.4 L-10271.3,-8570.4 L-10200.7,-8650.8 L-10170.6,-8670.5 L-10023.4,-8766.0 L-9950.7,-8814.3 L-9863.1,-8871.9 L-9821.7,-8899.1 L-9716.8,-8966.8 L-9743.8,-9002.3 L-9792.1,-9067.0 L-9667.2,-9146.4 L-9621.7,-9169.9 L-9618.2,-9172.4 L-9594.2,-9190.9 L-9508.6,-9236.7 L-9502.7,-9245.9 L-9478.7,-9262.4 L-9465.7,-9281.4 L-9462.0,-9284.2 L-9441.1,-9292.3 L-9393.9,-9309.2 L-9361.6,-9323.4 L-9247.5,-9377.0 L-9246.1,-9373.3 L-9150.4,-9414.2 L-9111.3,-9364.1 L-9024.2,-9422.2 L-9011.8,-9430.7 L-9010.6,-9431.7 L-9009.4,-9433.3 L-9007.5,-9436.6 L-9006.5,-9439.7 L-9005.9,-9443.4 L-9006.0,-9446.4 L-9006.4,-9449.3 L-9006.8,-9452.6 L-9006.9,-9455.1 L-9006.7,-9457.2 L-9006.3,-9459.4 L-9004.7,-9463.4 L-9003.6,-9465.6 L-9001.1,-9469.4 L-8998.5,-9472.2 L-8985.8,-9477.3 L-8975.2,-9481.3 L-8961.7,-9485.7 L-8955.4,-9487.4 L-8944.2,-9491.1 L-8936.3,-9493.9 L-8925.4,-9498.4 L-8910.6,-9504.9 L-8894.6,-9512.4 L-8886.0,-9516.6 L-8875.2,-9522.1 L-8865.1,-9527.7 L-8855.0,-9533.7 L-8844.7,-9540.4 L-8841.5,-9542.6 L-8820.8,-9558.4 L-8803.4,-9571.8 L-8786.4,-9586.2 L-8770.5,-9601.2 L-8759.0,-9614.1 L-8747.6,-9628.0 L-8733.6,-9646.0 L-8720.8,-9664.0 L-8706.1,-9687.1 L-8696.5,-9705.0 L-8690.5,-9716.4 L-8681.6,-9735.7 L-8674.1,-9753.6 L-8667.4,-9772.9 L-8662.0,-9789.8 L-8656.1,-9817.2 L-8651.8,-9841.7 L-8649.5,-9862.7 L-8647.5,-9887.5 L-8647.3,-9914.0 L-8648.9,-9938.5 L-8653.1,-9970.5 L-8657.5,-9992.3 L-8662.5,-10012.9 L-8669.9,-10036.3 L-8676.2,-10054.2 L-8683.4,-10073.7 L-8690.2,-10089.9 L-8694.8,-10100.4 L-8696.7,-10108.1 L-8697.0,-10114.0 L-8696.4,-10119.3 L-8694.3,-10123.9 L-8691.1,-10127.8 L-8686.9,-10130.0 L-8682.4,-10130.6 L-8670.3,-10127.7 L-8636.6,-10119.6 L-8625.4,-10374.3 L-8581.7,-10828.9 L-8629.2,-10840.1 L-8634.4,-10854.4 L-8634.2,-10874.9 L-8627.6,-10921.4 L-8618.6,-10931.9 L-8610.6,-10962.1 L-8560.1,-10950.4 L-8532.3,-11240.9 L-8524.6,-11321.3 L-8540.3,-11325.2 L-8530.8,-11363.6 L-8563.1,-11371.3 L-8559.0,-11394.8 L-8553.3,-11410.3 L-8546.2,-11428.4 L-8534.2,-11453.7 L-8521.3,-11450.8 L-8503.9,-11633.5 L-8499.8,-11744.3 L-8499.0,-11764.7 L-8489.6,-11835.2 L-8470.9,-12010.9 L-8346.1,-12336.3 L-8317.6,-12425.0 L-7970.9,-12558.0 L-7937.0,-12571.6 L-7931.1,-12574.8 L-7926.5,-12579.0 L-7921.4,-12584.9 L-7917.5,-12591.8 L-7914.9,-12598.6 L-7914.3,-12608.5 L-7914.8,-12620.8 L-7919.4,-12776.3 L-7921.1,-12806.4 L-7921.6,-12827.1 L-7922.3,-12867.3 L-7923.1,-12879.9 L-7924.6,-12890.5 L-7926.7,-12899.9 L-7929.8,-12909.5 L-7934.7,-12920.8 L-7941.9,-12932.9 L-7948.9,-12942.5 L-7954.3,-12951.6 L-7959.8,-12963.7 L-7964.4,-12975.3 L-7966.2,-12984.8 L-7967.6,-12995.3 L-7968.3,-13005.8 L-7968.0,-13016.0 L-7966.8,-13027.9 L-7964.0,-13039.6 L-7960.3,-13050.0 L-7956.4,-13059.5 L-7951.4,-13068.7 L-7945.3,-13079.9 L-7941.3,-13090.0 L-7937.8,-13102.9 L-7931.4,-13112.7 L-7933.6,-13201.9 L-7936.9,-13207.1 L-7937.9,-13267.7 L-7939.6,-13339.2 L-7938.4,-13349.1 L-7935.2,-13359.2 L-7927.2,-13375.0 L-7873.7,-13490.1 L-7872.6,-13492.0 L-7863.2,-13512.5 L-7854.3,-13531.9 L-7844.3,-13551.9 L-7834.5,-13572.5 L-7829.7,-13582.5 L-7777.1,-13690.4 L-7720.9,-13809.6 L-7599.3,-14056.4 L-7672.4,-14138.3 L-7732.0,-14011.3 L-7783.5,-13901.4 L-7791.3,-13885.8 L-7807.2,-13853.3 L-7839.0,-13856.0 L-7847.7,-13856.5 L-7850.8,-13853.7 L-7846.6,-13849.9 L-7862.9,-13835.4 L-7875.8,-13823.5 L-7878.2,-13772.6 L-7883.0,-13762.4 L-7898.6,-13763.0 L-7901.2,-13763.9 L-8105.6,-13848.3 L-8110.0,-13850.6 L-8114.7,-13853.6 L-8122.1,-13859.2 L-8127.8,-13864.6 L-8132.6,-13869.8 L-8137.3,-13876.2 L-8140.9,-13881.8 L-8143.7,-13887.6 L-8145.9,-13893.7 L-8147.4,-13897.9 L-8148.5,-13903.0 L-8149.3,-13909.0 L-8150.1,-13917.2 L-8150.1,-13928.9 L-8151.5,-13968.6 L-8145.9,-13968.9 L-8146.7,-13989.9 L-8147.6,-14024.5 L-8142.4,-14024.6 L-8142.8,-14048.2 L-8148.7,-14048.1 L-8151.4,-14147.5 L-8145.8,-14147.8 L-8146.7,-14171.1 L-8152.1,-14170.9 L-8154.4,-14244.4 L-8127.4,-14273.5 L-8092.9,-14274.7 L-8067.2,-14275.6 L-8033.3,-14276.7 L-8000.7,-14277.7 L-7971.5,-14278.7 L-7958.8,-14279.3 L-7959.4,-14290.6 L-7959.6,-14302.4 L-7961.5,-14340.7 L-7962.2,-14413.8 L-7963.2,-14415.1 L-7963.4,-14422.3 L-7961.3,-14422.4 L-7966.4,-14598.5 L-7970.8,-14764.2 L-7971.5,-14769.4 L-7971.9,-14779.0 L-8044.1,-14776.4 L-8092.1,-14780.5 L-8451.4,-14768.0 L-8451.5,-14771.2 L-8452.2,-14786.5 L-8622.6,-14780.5 L-8622.9,-14808.8 L-8645.4,-14813.9 L-8649.4,-14935.0 L-7986.6,-14958.0 L-7975.6,-14973.1 L-7976.0,-15016.1 L-7976.8,-15053.3 L-7977.4,-15076.6 L-7978.3,-15099.3 L-8031.0,-15124.1 L-8033.1,-15179.2 L-7979.1,-15206.0 L-7984.0,-15333.5 L-7985.4,-15339.8 L-8039.1,-15364.9 L-8040.8,-15433.1 L-7989.8,-15459.4 L-8012.5,-15736.3 L-8006.5,-15859.5 L-8003.5,-16060.4 L-8003.7,-16278.9 L-7998.9,-16309.5 L-7998.6,-16324.3 L-8003.4,-16342.1 L-7998.4,-16342.1 L-7998.4,-16358.2 L-7995.4,-16769.2 L-7995.9,-16787.5 L-8001.6,-16787.5 L-8001.4,-16863.1 L-8004.7,-16867.8 L-8009.9,-16945.8 L-7999.6,-17017.1 L-8000.9,-17103.4 L-8004.4,-17124.1 L-7999.1,-17188.0 L-8002.7,-17265.3 L-8011.7,-17348.0 L-8028.8,-17482.0 L-8020.7,-17518.9 L-8024.3,-17554.8 L-8054.9,-17580.9 L-8099.8,-17580.5 L-8168.2,-17571.5 L-8212.7,-17571.5 L-8253.1,-17586.3 L-8306.2,-17622.7 L-8306.2,-17688.0 L-8307.6,-17768.3 L-8302.4,-17835.2 L-8284.8,-17887.4 L-7990.1,-17892.9 L-7983.3,-18310.8 L-7983.3,-18912.4 L-7986.4,-19130.7 L7925.8,-25702.4 L7925.8,10515.8 L-11786.7,10515.8 L-11786.7,-7469.7 Z" fill="#add7e1" stroke="none"><title>Biscayne Bay</title></path><path d="M-6390.8,-1730.4 L-4414.8,-1647.6 L-2438.8,-1316.5 L-873.0,-861.3 L618.4,380.1 L-1171.2,2242.0 L-6316.2,2242.0 L-6614.5,-571.7 Z" fill="#f1efe7" stroke="#8ab09d" stroke-width="0.65"><title>Key Biscayne</title></path></svg>