<svg xmlns="http://www.w3.org/2000/svg" width="256" height="256" viewBox="0 0 256 256"><rect width="256" height="256" fill="#f1efe7"/><path d="M-11786.7,-14125.7 L-11571.9,-14215.0 L-11504.7,-14247.3 L-11204.2,-14391.6 L-11147.8,-14337.0 L-11142.9,-14332.3 L-11037.5,-14422.5 L-11012.4,-14441.6 L-10970.5,-14479.4 L-10734.4,-14696.2 L-10543.9,-14913.8 L-10536.6,-14927.7 L-10529.6,-14935.6 L-10518.5,-14948.3 L-10507.2,-14961.2 L-10502.6,-14966.5 L-10577.7,-15063.6 L-10478.3,-15123.2 L-10424.4,-15051.5 L-10348.2,-15138.7 L-10412.7,-15224.1 L-10332.8,-15307.4 L-10271.3,-15226.4 L-10200.7,-15306.8 L-10170.6,-15326.5 L-10023.4,-15422.0 L-9950.7,-15470.3 L-9863.1,-15527.9 L-9821.7,-15555.1 L-9716.8,-15622.8 L-9743.8,-15658.3 L-9792.1,-15723.0 L-9667.2,-15802.4 L-9621.7,-15825.9 L-9618.2,-15828.4 L-9594.2,-15846.9 L-9508.6,-15892.7 L-9502.7,-15901.9 L-9478.7,-15918.4 L-9465.7,-15937.4 L-9462.0,-15940.2 L-9441.1,-15948.3 L-9393.9,-15965.2 L-9361.6,-15979.4 L-9247.5,-16033.0 L-9246.1,-16029.3 L-9150.4,-16070.2 L-9111.3,-16020.1 L-9024.2,-16078.2 L-9011.8,-16086.7 L-9010.6,-16087.7 L-9009.4,-16089.3 L-9007.5,-16092.6 L-9006.5,-16095.7 L-9005.9,-16099.4 L-9006.0,-16102.4 L-9006.4,-16105.3 L-9006.8,-16108.6 L-9006.9,-16111.1 L-9006.7,-16113.2 L-9006.3,-16115.4 L-9004.7,-16119.4 L-9003.6,-16121.6 L-9001.1,-16125.4 L-8998.5,-16128.2 L-8985.8,-16133.3 L-8975.2,-16137.3 L-8961.7,-16141.7 L-8955.4,-16143.4 L-8944.2,-16147.1 L-8936.3,-16149.9 L-8925.4,-16154.4 L-8910.6,-16160.9 L-8894.6,-16168.4 L-8886.0,-16172.6 L-8875.2,-16178.1 L-8865.1,-16183.7 L-8855.0,-16189.7 L-8844.7,-16196.4 L-8841.5,-16198.6 L-8820.8,-16214.4 L-8803.4,-16227.8 L-8786.4,-16242.2 L-8770.5,-16257.2 L-8759.0,-16270.1 L-8747.6,-16284.0 L-8733.6,-16302.0 L-8720.8,-16320.0 L-8706.1,-16343.1 L-8696.5,-16361.0 L-8690.5,-16372.4 L-8681.6,-16391.7 L-8674.1,-16409.6 L-8667.4,-16428.9 L-8662.0,-16445.8 L-8656.1,-16473.2 L-8651.8,-16497.7 L-8649.5,-16518.7 L-8647.5,-16543.5 L-8647.3,-16570.0 L-8648.9,-16594.5 L-8653.1,-16626.5 L-8657.5,-16648.3 L-8662.5,-16668.9 L-8669.9,-16692.3 L-8676.2,-16710.2 L-8683.4,-16729.7 L-8690.2,-16745.9 L-8694.8,-16756.4 L-8696.7,-16764.1 L-8697.0,-16770.0 L-8696.4,-16775.3 L-8694.3,-16779.9 L-8691.1,-16783.8 L-8686.9,-16786.0 L-8682.4,-16786.6 L-8670.3,-16783.7 L-8636.6,-16775.6 L-8625.4,-17030.3 L-8581.7,-17484.9 L-8629.2,-17496.1 L-8634.4,-17510.4 L-8634.2,-17530.9 L-8627.6,-17577.4 L-8618.6,-17587.9 L-8610.6,-17618.1 L-8560.1,-17606.4 L-8532.3,-17896.9 L-8524.6,-17977.3 L-8540.3,-17981.2 L-8530.8,-18019.6 L-8563.1,-18027.3 L-8559.0,-18050.8 L-8553.3,-18066.3 L-8546.2,-18084.4 L-8534.2,-18109.7 L-8521.3,-18106.8 L-8503.9,-18289.5 L-8499.8,-18400.3 L-8499.0,-18420.7 L-8489.6,-18491.2 L-8470.9,-18666.9 L-8346.1,-18992.3 L-8317.6,-19081.0 L-7970.9,-19214.0 L-7937.0,-19227.6 L-7931.1,-19230.8 L-7926.5,-19235.0 L-7921.4,-19240.9 L-7917.5,-19247.8 L-7914.9,-19254.6 L-7914.3,-19264.5 L-7914.8,-19276.8 L-7919.4,-19432.3 L-7921.1,-19462.4 L-7921.6,-19483.1 L-7922.3,-19523.3 L-7923.1,-19535.9 L-7924.6,-19546.5 L-7926.7,-19555.9 L-7929.8,-19565.5 L-7934.7,-19576.8 L-7941.9,-19588.9 L-7948.9,-19598.5 L-7954.3,-19607.6 L-7959.8,-19619.7 L-7964.4,-19631.3 L-7966.2,-19640.8 L-7967.6,-19651.3 L-7968.3,-19661.8 L-7968.0,-19672.0 L-7966.8,-19683.9 L-7964.0,-19695.6 L-7960.3,-19706.0 L-7956.4,-19715.5 L-7951.4,-19724.7 L-7945.3,-19735.9 L-7941.3,-19746.0 L-7937.8,-19758.9 L-7931.4,-19768.7 L-7933.6,-19857.9 L-7936.9,-19863.1 L-7937.9,-19923.7 L-7939.6,-19995.2 L-7938.4,-20005.1 L-7935.2,-20015.2 L-7927.2,-20031.0 L-7873.7,-20146.1 L-7872.6,-20148.0 L-7863.2,-20168.5 L-7854.3,-20187.9 L-7844.3,-20207.9 L-7834.5,-20228.5 L-7829.7,-20238.5 L-7777.1,-20346.4 L-7720.9,-20465.6 L-7599.3,-20712.4 L-7672.4,-20794.3 L-7732.0,-20667.3 L-7783.5,-20557.4 L-7791.3,-20541.8 L-7807.2,-20509.3 L-7839.0,-20512.0 L-7847.7,-20512.5 L-7850.8,-20509.7 L-7846.6,-20505.9 L-7862.9,-20491.4 L-7875.8,-20479.5 L-7878.2,-20428.6 L-7883.0,-20418.4 L-7898.6,-20419.0 L-7901.2,-20419.9 L-8105.6,-20504.3 L-8110.0,-20506.6 L-8114.7,-20509.6 L-8122.1,-20515.2 L-8127.8,-20520.6 L-8132.6,-20525.8 L-8137.3,-20532.2 L-8140.9,-20537.8 L-8143.7,-20543.6 L-8145.9,-20549.7 L-8147.4,-20553.9 L-8148.5,-20559.0 L-8149.3,-20565.0 L-8150.1,-20573.2 L-8150.1,-20584.9 L-8151.5,-20624.6 L-8145.9,-20624.9 L-8146.7,-20645.9 L-8147.6,-20680.5 L-8142.4,-20680.6 L-8142.8,-20704.2 L-8148.7,-20704.1 L-8151.4,-20803.5 L-8145.8,-20803.8 L-8146.7,-20827.1 L-8152.1,-20826.9 L-8154.4,-20900.4 L-8127.4,-20929.5 L-8092.9,-20930.7 L-8067.2,-20931.6 L-8033.3,-20932.7 L-8000.7,-20933.7 L-7971.5,-20934.7 L-7958.8,-20935.3 L-7959.4,-20946.6 L-7959.6,-20958.4 L-7961.5,-20996.7 L-7962.2,-21069.8 L-7963.2,-21071.1 L-7963.4,-21078.3 L-7961.3,-21078.4 L-7966.4,-21254.5 L-7970.8,-21420.2 L-7971.5,-21425.4 L-7971.9,-21435.0 L-8044.1,-21432.4 L-8092.1,-21436.5 L-8451.4,-21424.0 L-8451.5,-21427.2 L-8452.2,-21442.5 L-8622.6,-21436.5 L-8622.9,-21464.8 L-8645.4,-21469.9 L-8649.4,-21591.0 L-7986.6,-21614.0 L-7975.6,-21629.1 L-7976.0,-21672.1 L-7976.8,-21709.3 L-7977.4,-21732.6 L-7978.3,-21755.3 L-8031.0,-21780.1 L-8033.1,-21835.2 L-7979.1,-21862.0 L-7984.0,-21989.5 L-7985.4,-21995.8 L-8039.1,-22020.9 L-8040.8,-22089.1 L-7989.8,-22115.4 L-8012.5,-22392.3 L-8006.5,-22515.5 L-8003.5,-22716.4 L-8003.7,-22934.9 L-7998.9,-22965.5 L-7998.6,-22980.3 L-8003.4,-22998.1 L-7998.4,-22998.1 L-7998.4,-23014.2 L-7995.4,-23425.2 L-7995.9,-23443.5 L-8001.6,-23443.5 L-8001.4,-23519.1 L-8004.7,-23523.8 L-8009.9,-23601.8 L-7999.6,-23673.1 L-8000.9,-23759.4 L-8004.4,-23780.1 L-7999.1,-23844.0 L-8002.7,-23921.3 L-8011.7,-24004.0 L-8028.8,-24138.0 L-8020.7,-24174.9 L-8024.3,-24210.8 L-8054.9,-24236.9 L-8099.8,-24236.5 L-8168.2,-24227.5 L-8212.7,-24227.5 L-8253.1,-24242.3 L-8306.2,-24278.7 L-8306.2,-24344.0 L-8307.6,-24424.3 L-8302.4,-24491.2 L-8284.8,-24543.4 L-7990.1,-24548.9 L-7983.3,-24966.8 L-7983.3,-25568.4 L-7986.4,-25786.7 L7925.8,-32358.4 L7925.8,3859.8 L-11786.7,3859.8 L-11786.7,-14125.7 Z" fill="#add7e1" stroke="none"><title>Biscayne Bay</title></path><path d="M-1.0,-1.0 L257.0,-1.0 L257.0,257.0 L-1.0,257.0 L-1.0,-1.0 Z" fill="#add7e1" stroke="none" fill-rule="evenodd"><title>Biscayne Bay</title></path></svg>