<svg xmlns="http://www.w3.org/2000/svg" width="256" height="256" viewBox="0 0 256 256"><rect width="256" height="256" fill="#f1efe7"/><path d="M-11786.7,-12845.7 L-11571.9,-12935.0 L-11504.7,-12967.3 L-11204.2,-13111.6 L-11147.8,-13057.0 L-11142.9,-13052.3 L-11037.5,-13142.5 L-11012.4,-13161.6 L-10970.5,-13199.4 L-10734.4,-13416.2 L-10543.9,-13633.8 L-10536.6,-13647.7 L-10529.6,-13655.6 L-10518.5,-13668.3 L-10507.2,-13681.2 L-10502.6,-13686.5 L-10577.7,-13783.6 L-10478.3,-13843.2 L-10424.4,-13771.5 L-10348.2,-13858.7 L-10412.7,-13944.1 L-10332.8,-14027.4 L-10271.3,-13946.4 L-10200.7,-14026.8 L-10170.6,-14046.5 L-10023.4,-14142.0 L-9950.7,-14190.3 L-9863.1,-14247.9 L-9821.7,-14275.1 L-9716.8,-14342.8 L-9743.8,-14378.3 L-9792.1,-14443.0 L-9667.2,-14522.4 L-9621.7,-14545.9 L-9618.2,-14548.4 L-9594.2,-14566.9 L-9508.6,-14612.7 L-9502.7,-14621.9 L-9478.7,-14638.4 L-9465.7,-14657.4 L-9462.0,-14660.2 L-9441.1,-14668.3 L-9393.9,-14685.2 L-9361.6,-14699.4 L-9247.5,-14753.0 L-9246.1,-14749.3 L-9150.4,-14790.2 L-9111.3,-14740.1 L-9024.2,-14798.2 L-9011.8,-14806.7 L-9010.6,-14807.7 L-9009.4,-14809.3 L-9007.5,-14812.6 L-9006.5,-14815.7 L-9005.9,-14819.4 L-9006.0,-14822.4 L-9006.4,-14825.3 L-9006.8,-14828.6 L-9006.9,-14831.1 L-9006.7,-14833.2 L-9006.3,-14835.4 L-9004.7,-14839.4 L-9003.6,-14841.6 L-9001.1,-14845.4 L-8998.5,-14848.2 L-8985.8,-14853.3 L-8975.2,-14857.3 L-8961.7,-14861.7 L-8955.4,-14863.4 L-8944.2,-14867.1 L-8936.3,-14869.9 L-8925.4,-14874.4 L-8910.6,-14880.9 L-8894.6,-14888.4 L-8886.0,-14892.6 L-8875.2,-14898.1 L-8865.1,-14903.7 L-8855.0,-14909.7 L-8844.7,-14916.4 L-8841.5,-14918.6 L-8820.8,-14934.4 L-8803.4,-14947.8 L-8786.4,-14962.2 L-8770.5,-14977.2 L-8759.0,-14990.1 L-8747.6,-15004.0 L-8733.6,-15022.0 L-8720.8,-15040.0 L-8706.1,-15063.1 L-8696.5,-15081.0 L-8690.5,-15092.4 L-8681.6,-15111.7 L-8674.1,-15129.6 L-8667.4,-15148.9 L-8662.0,-15165.8 L-8656.1,-15193.2 L-8651.8,-15217.7 L-8649.5,-15238.7 L-8647.5,-15263.5 L-8647.3,-15290.0 L-8648.9,-15314.5 L-8653.1,-15346.5 L-8657.5,-15368.3 L-8662.5,-15388.9 L-8669.9,-15412.3 L-8676.2,-15430.2 L-8683.4,-15449.7 L-8690.2,-15465.9 L-8694.8,-15476.4 L-8696.7,-15484.1 L-8697.0,-15490.0 L-8696.4,-15495.3 L-8694.3,-15499.9 L-8691.1,-15503.8 L-8686.9,-15506.0 L-8682.4,-15506.6 L-8670.3,-15503.7 L-8636.6,-15495.6 L-8625.4,-15750.3 L-8581.7,-16204.9 L-8629.2,-16216.1 L-8634.4,-16230.4 L-8634.2,-16250.9 L-8627.6,-16297.4 L-8618.6,-16307.9 L-8610.6,-16338.1 L-8560.1,-16326.4 L-8532.3,-16616.9 L-8524.6,-16697.3 L-8540.3,-16701.2 L-8530.8,-16739.6 L-8563.1,-16747.3 L-8559.0,-16770.8 L-8553.3,-16786.3 L-8546.2,-16804.4 L-8534.2,-16829.7 L-8521.3,-16826.8 L-8503.9,-17009.5 L-8499.8,-17120.3 L-8499.0,-17140.7 L-8489.6,-17211.2 L-8470.9,-17386.9 L-8346.1,-17712.3 L-8317.6,-17801.0 L-7970.9,-17934.0 L-7937.0,-17947.6 L-7931.1,-17950.8 L-7926.5,-17955.0 L-7921.4,-17960.9 L-7917.5,-17967.8 L-7914.9,-17974.6 L-7914.3,-17984.5 L-7914.8,-17996.8 L-7919.4,-18152.3 L-7921.1,-18182.4 L-7921.6,-18203.1 L-7922.3,-18243.3 L-7923.1,-18255.9 L-7924.6,-18266.5 L-7926.7,-18275.9 L-7929.8,-18285.5 L-7934.7,-18296.8 L-7941.9,-18308.9 L-7948.9,-18318.5 L-7954.3,-18327.6 L-7959.8,-18339.7 L-7964.4,-18351.3 L-7966.2,-18360.8 L-7967.6,-18371.3 L-7968.3,-18381.8 L-7968.0,-18392.0 L-7966.8,-18403.9 L-7964.0,-18415.6 L-7960.3,-18426.0 L-7956.4,-18435.5 L-7951.4,-18444.7 L-7945.3,-18455.9 L-7941.3,-18466.0 L-7937.8,-18478.9 L-7931.4,-18488.7 L-7933.6,-18577.9 L-7936.9,-18583.1 L-7937.9,-18643.7 L-7939.6,-18715.2 L-7938.4,-18725.1 L-7935.2,-18735.2 L-7927.2,-18751.0 L-7873.7,-18866.1 L-7872.6,-18868.0 L-7863.2,-18888.5 L-7854.3,-18907.9 L-7844.3,-18927.9 L-7834.5,-18948.5 L-7829.7,-18958.5 L-7777.1,-19066.4 L-7720.9,-19185.6 L-7599.3,-19432.4 L-7672.4,-19514.3 L-7732.0,-19387.3 L-7783.5,-19277.4 L-7791.3,-19261.8 L-7807.2,-19229.3 L-7839.0,-19232.0 L-7847.7,-19232.5 L-7850.8,-19229.7 L-7846.6,-19225.9 L-7862.9,-19211.4 L-7875.8,-19199.5 L-7878.2,-19148.6 L-7883.0,-19138.4 L-7898.6,-19139.0 L-7901.2,-19139.9 L-8105.6,-19224.3 L-8110.0,-19226.6 L-8114.7,-19229.6 L-8122.1,-19235.2 L-8127.8,-19240.6 L-8132.6,-19245.8 L-8137.3,-19252.2 L-8140.9,-19257.8 L-8143.7,-19263.6 L-8145.9,-19269.7 L-8147.4,-19273.9 L-8148.5,-19279.0 L-8149.3,-19285.0 L-8150.1,-19293.2 L-8150.1,-19304.9 L-8151.5,-19344.6 L-8145.9,-19344.9 L-8146.7,-19365.9 L-8147.6,-19400.5 L-8142.4,-19400.6 L-8142.8,-19424.2 L-8148.7,-19424.1 L-8151.4,-19523.5 L-8145.8,-19523.8 L-8146.7,-19547.1 L-8152.1,-19546.9 L-8154.4,-19620.4 L-8127.4,-19649.5 L-8092.9,-19650.7 L-8067.2,-19651.6 L-8033.3,-19652.7 L-8000.7,-19653.7 L-7971.5,-19654.7 L-7958.8,-19655.3 L-7959.4,-19666.6 L-7959.6,-19678.4 L-7961.5,-19716.7 L-7962.2,-19789.8 L-7963.2,-19791.1 L-7963.4,-19798.3 L-7961.3,-19798.4 L-7966.4,-19974.5 L-7970.8,-20140.2 L-7971.5,-20145.4 L-7971.9,-20155.0 L-8044.1,-20152.4 L-8092.1,-20156.5 L-8451.4,-20144.0 L-8451.5,-20147.2 L-8452.2,-20162.5 L-8622.6,-20156.5 L-8622.9,-20184.8 L-8645.4,-20189.9 L-8649.4,-20311.0 L-7986.6,-20334.0 L-7975.6,-20349.1 L-7976.0,-20392.1 L-7976.8,-20429.3 L-7977.4,-20452.6 L-7978.3,-20475.3 L-8031.0,-20500.1 L-8033.1,-20555.2 L-7979.1,-20582.0 L-7984.0,-20709.5 L-7985.4,-20715.8 L-8039.1,-20740.9 L-8040.8,-20809.1 L-7989.8,-20835.4 L-8012.5,-21112.3 L-8006.5,-21235.5 L-8003.5,-21436.4 L-8003.7,-21654.9 L-7998.9,-21685.5 L-7998.6,-21700.3 L-8003.4,-21718.1 L-7998.4,-21718.1 L-7998.4,-21734.2 L-7995.4,-22145.2 L-7995.9,-22163.5 L-8001.6,-22163.5 L-8001.4,-22239.1 L-8004.7,-22243.8 L-8009.9,-22321.8 L-7999.6,-22393.1 L-8000.9,-22479.4 L-8004.4,-22500.1 L-7999.1,-22564.0 L-8002.7,-22641.3 L-8011.7,-22724.0 L-8028.8,-22858.0 L-8020.7,-22894.9 L-8024.3,-22930.8 L-8054.9,-22956.9 L-8099.8,-22956.5 L-8168.2,-22947.5 L-8212.7,-22947.5 L-8253.1,-22962.3 L-8306.2,-22998.7 L-8306.2,-23064.0 L-8307.6,-23144.3 L-8302.4,-23211.2 L-8284.8,-23263.4 L-7990.1,-23268.9 L-7983.3,-23686.8 L-7983.3,-24288.4 L-7986.4,-24506.7 L7925.8,-31078.4 L7925.8,5139.8 L-11786.7,5139.8 L-11786.7,-12845.7 Z" fill="#add7e1" stroke="none"><title>Biscayne Bay</title></path></svg>