<svg xmlns="http://www.w3.org/2000/svg" width="256" height="256" viewBox="0 0 256 256"><rect width="256" height="256" fill="#f1efe7"/><path d="M-3077.4,5993.1 L-2970.0,5948.5 L-2936.4,5932.4 L-2786.1,5860.2 L-2757.9,5887.5 L-2755.4,5889.8 L-2702.8,5844.8 L-2690.2,5835.2 L-2669.3,5816.3 L-2551.2,5707.9 L-2455.9,5599.1 L-2452.3,5592.2 L-2448.8,5588.2 L-2443.2,5581.9 L-2437.6,5575.4 L-2435.3,5572.7 L-2472.9,5524.2 L-2423.2,5494.4 L-2396.2,5530.3 L-2358.1,5486.7 L-2390.4,5443.9 L-2350.4,5402.3 L-2319.7,5442.8 L-2284.3,5402.6 L-2269.3,5392.8 L-2195.7,5345.0 L-2159.3,5320.9 L-2115.5,5292.0 L-2094.8,5278.5 L-2042.4,5244.6 L-2055.9,5226.8 L-2080.1,5194.5 L-2017.6,5154.8 L-1994.8,5143.0 L-1993.1,5141.8 L-1981.1,5132.5 L-1938.3,5109.7 L-1935.3,5105.0 L-1923.3,5096.8 L-1916.8,5087.3 L-1915.0,5085.9 L-1904.6,5081.9 L-1880.9,5073.4 L-1864.8,5066.3 L-1807.7,5039.5 L-1807.0,5041.4 L-1759.2,5020.9 L-1739.7,5046.0 L-1696.1,5016.9 L-1689.9,5012.7 L-1689.3,5012.2 L-1688.7,5011.4 L-1687.8,5009.7 L-1687.2,5008.2 L-1687.0,5006.3 L-1687.0,5004.8 L-1687.2,5003.4 L-1687.4,5001.7 L-1687.5,5000.5 L-1687.4,4999.4 L-1687.1,4998.3 L-1686.3,4996.3 L-1685.8,4995.2 L-1684.6,4993.3 L-1683.2,4991.9 L-1676.9,4989.3 L-1671.6,4987.4 L-1664.8,4985.2 L-1661.7,4984.3 L-1656.1,4982.5 L-1652.1,4981.0 L-1646.7,4978.8 L-1639.3,4975.6 L-1631.3,4971.8 L-1627.0,4969.7 L-1621.6,4967.0 L-1616.6,4964.1 L-1611.5,4961.1 L-1606.4,4957.8 L-1604.8,4956.7 L-1594.4,4948.8 L-1585.7,4942.1 L-1577.2,4934.9 L-1569.2,4927.4 L-1563.5,4920.9 L-1557.8,4914.0 L-1550.8,4905.0 L-1544.4,4896.0 L-1537.1,4884.4 L-1532.3,4875.5 L-1529.3,4869.8 L-1524.8,4860.1 L-1521.1,4851.2 L-1517.7,4841.6 L-1515.0,4833.1 L-1512.1,4819.4 L-1509.9,4807.2 L-1508.7,4796.6 L-1507.8,4784.3 L-1507.6,4771.0 L-1508.5,4758.7 L-1510.6,4742.8 L-1512.7,4731.9 L-1515.3,4721.5 L-1518.9,4709.9 L-1522.1,4700.9 L-1525.7,4691.1 L-1529.1,4683.1 L-1531.4,4677.8 L-1532.4,4674.0 L-1532.5,4671.0 L-1532.2,4668.4 L-1531.1,4666.1 L-1529.5,4664.1 L-1527.4,4663.0 L-1525.2,4662.7 L-1519.1,4664.2 L-1502.3,4668.2 L-1496.7,4540.9 L-1474.8,4313.6 L-1498.6,4307.9 L-1501.2,4300.8 L-1501.1,4290.6 L-1497.8,4267.3 L-1493.3,4262.1 L-1489.3,4246.9 L-1464.1,4252.8 L-1450.1,4107.6 L-1446.3,4067.3 L-1454.1,4065.4 L-1449.4,4046.2 L-1465.6,4042.4 L-1463.5,4030.6 L-1460.7,4022.9 L-1457.1,4013.8 L-1451.1,4001.2 L-1444.7,4002.6 L-1435.9,3911.3 L-1433.9,3855.9 L-1433.5,3845.7 L-1428.8,3810.4 L-1419.4,3722.5 L-1357.0,3559.8 L-1342.8,3515.5 L-1169.5,3449.0 L-1152.5,3442.2 L-1149.6,3440.6 L-1147.2,3438.5 L-1144.7,3435.6 L-1142.8,3432.1 L-1141.5,3428.7 L-1141.1,3423.8 L-1141.4,3417.6 L-1143.7,3339.9 L-1144.6,3324.8 L-1144.8,3314.4 L-1145.1,3294.4 L-1145.5,3288.1 L-1146.3,3282.8 L-1147.4,3278.0 L-1148.9,3273.3 L-1151.3,3267.6 L-1154.9,3261.5 L-1158.5,3256.7 L-1161.2,3252.2 L-1163.9,3246.2 L-1166.2,3240.3 L-1167.1,3235.6 L-1167.8,3230.4 L-1168.1,3225.1 L-1168.0,3220.0 L-1167.4,3214.1 L-1166.0,3208.2 L-1164.1,3203.0 L-1162.2,3198.2 L-1159.7,3193.6 L-1156.7,3188.1 L-1154.6,3183.0 L-1152.9,3176.5 L-1149.7,3171.7 L-1150.8,3127.0 L-1152.4,3124.5 L-1153.0,3094.2 L-1153.8,3058.4 L-1153.2,3053.5 L-1151.6,3048.4 L-1147.6,3040.5 L-1120.9,2983.0 L-1120.3,2982.0 L-1115.6,2971.8 L-1111.1,2962.0 L-1106.2,2952.0 L-1101.2,2941.8 L-1098.8,2936.7 L-1072.6,2882.8 L-1044.5,2823.2 L-983.6,2699.8 L-1020.2,2658.9 L-1050.0,2722.3 L-1075.8,2777.3 L-1079.7,2785.1 L-1087.6,2801.3 L-1103.5,2800.0 L-1107.9,2799.7 L-1109.4,2801.2 L-1107.3,2803.1 L-1115.5,2810.3 L-1121.9,2816.3 L-1123.1,2841.7 L-1125.5,2846.8 L-1133.3,2846.5 L-1134.6,2846.0 L-1236.8,2803.9 L-1239.0,2802.7 L-1241.4,2801.2 L-1245.0,2798.4 L-1247.9,2795.7 L-1250.3,2793.1 L-1252.6,2789.9 L-1254.4,2787.1 L-1255.8,2784.2 L-1257.0,2781.1 L-1257.7,2779.1 L-1258.2,2776.5 L-1258.7,2773.5 L-1259.1,2769.4 L-1259.1,2763.6 L-1259.8,2743.7 L-1257.0,2743.5 L-1257.4,2733.1 L-1257.8,2715.8 L-1255.2,2715.7 L-1255.4,2703.9 L-1258.3,2704.0 L-1259.7,2654.2 L-1256.9,2654.1 L-1257.4,2642.5 L-1260.1,2642.6 L-1261.2,2605.8 L-1247.7,2591.3 L-1230.5,2590.7 L-1217.6,2590.2 L-1200.7,2589.7 L-1184.4,2589.1 L-1169.7,2588.6 L-1163.4,2588.4 L-1163.7,2582.7 L-1163.8,2576.8 L-1164.8,2557.7 L-1165.1,2521.1 L-1165.6,2520.5 L-1165.7,2516.8 L-1164.6,2516.8 L-1167.2,2428.7 L-1169.4,2345.9 L-1169.8,2343.3 L-1170.0,2338.5 L-1206.1,2339.8 L-1230.1,2337.7 L-1409.7,2344.0 L-1409.7,2342.4 L-1410.1,2334.7 L-1495.3,2337.7 L-1495.5,2323.6 L-1506.7,2321.1 L-1508.7,2260.5 L-1177.3,2249.0 L-1171.8,2241.4 L-1172.0,2219.9 L-1172.4,2201.4 L-1172.7,2189.7 L-1173.2,2178.4 L-1199.5,2165.9 L-1200.6,2138.4 L-1173.5,2125.0 L-1176.0,2061.3 L-1176.7,2058.1 L-1203.5,2045.6 L-1204.4,2011.5 L-1178.9,1998.3 L-1190.3,1859.9 L-1187.2,1798.2 L-1185.8,1697.8 L-1185.9,1588.6 L-1183.5,1573.2 L-1183.3,1565.9 L-1185.7,1556.9 L-1183.2,1556.9 L-1183.2,1548.9 L-1181.7,1343.4 L-1181.9,1334.2 L-1184.8,1334.3 L-1184.7,1296.5 L-1186.4,1294.1 L-1188.9,1255.1 L-1183.8,1219.5 L-1184.5,1176.3 L-1186.2,1166.0 L-1183.6,1134.0 L-1185.4,1095.4 L-1189.9,1054.0 L-1198.4,987.0 L-1194.4,968.6 L-1196.1,950.6 L-1211.4,937.5 L-1233.9,937.8 L-1268.1,942.3 L-1290.3,942.3 L-1310.6,934.8 L-1337.1,916.6 L-1337.1,884.0 L-1337.8,843.8 L-1335.2,810.4 L-1326.4,784.3 L-1179.0,781.6 L-1175.7,572.6 L-1175.7,271.8 L-1177.2,162.6 L6778.9,-3123.2 L6778.9,14985.9 L-3077.4,14985.9 L-3077.4,5993.1 Z" fill="#add7e1" stroke="none"><title>Biscayne Bay</title></path><path d="M-1609.7,1308.2 L-1628.4,728.5 L-1497.9,-576.0 L1764.4,-576.0 L2491.4,-141.1 L2491.4,604.3 L1783.0,1163.3 L179.8,1308.2 Z" fill="#add7e1" stroke="none"><title>Biscayne Bay</title></path><path d="M-1.0,-1.0 L257.0,-1.0 L257.0,257.0 L-1.0,257.0 L-1.0,-1.0 Z" fill="#add7e1" stroke="none" fill-rule="evenodd"><title>Biscayne Bay</title></path></svg>