<svg xmlns="http://www.w3.org/2000/svg" width="256" height="256" viewBox="0 0 256 256"><rect width="256" height="256" fill="#f1efe7"/><path d="M-16650.7,13522.3 L-16435.9,13433.0 L-16368.7,13400.7 L-16068.2,13256.4 L-16011.8,13311.0 L-16006.9,13315.7 L-15901.5,13225.5 L-15876.4,13206.4 L-15834.5,13168.6 L-15598.4,12951.8 L-15407.9,12734.2 L-15400.6,12720.3 L-15393.6,12712.4 L-15382.5,12699.7 L-15371.2,12686.8 L-15366.6,12681.5 L-15441.7,12584.4 L-15342.3,12524.8 L-15288.4,12596.5 L-15212.2,12509.3 L-15276.7,12423.9 L-15196.8,12340.6 L-15135.3,12421.6 L-15064.7,12341.2 L-15034.6,12321.5 L-14887.4,12226.0 L-14814.7,12177.7 L-14727.1,12120.1 L-14685.7,12092.9 L-14580.8,12025.2 L-14607.8,11989.7 L-14656.1,11925.0 L-14531.2,11845.6 L-14485.7,11822.1 L-14482.2,11819.6 L-14458.2,11801.1 L-14372.6,11755.3 L-14366.7,11746.1 L-14342.7,11729.6 L-14329.7,11710.6 L-14326.0,11707.8 L-14305.1,11699.7 L-14257.9,11682.8 L-14225.6,11668.6 L-14111.5,11615.0 L-14110.1,11618.7 L-14014.4,11577.8 L-13975.3,11627.9 L-13888.2,11569.8 L-13875.8,11561.3 L-13874.6,11560.3 L-13873.4,11558.7 L-13871.5,11555.4 L-13870.5,11552.3 L-13869.9,11548.6 L-13870.0,11545.6 L-13870.4,11542.7 L-13870.8,11539.4 L-13870.9,11536.9 L-13870.7,11534.8 L-13870.3,11532.6 L-13868.7,11528.6 L-13867.6,11526.4 L-13865.1,11522.6 L-13862.5,11519.8 L-13849.8,11514.7 L-13839.2,11510.7 L-13825.7,11506.3 L-13819.4,11504.6 L-13808.2,11500.9 L-13800.3,11498.1 L-13789.4,11493.6 L-13774.6,11487.1 L-13758.6,11479.6 L-13750.0,11475.4 L-13739.2,11469.9 L-13729.1,11464.3 L-13719.0,11458.3 L-13708.7,11451.6 L-13705.5,11449.4 L-13684.8,11433.6 L-13667.4,11420.2 L-13650.4,11405.8 L-13634.5,11390.8 L-13623.0,11377.9 L-13611.6,11364.0 L-13597.6,11346.0 L-13584.8,11328.0 L-13570.1,11304.9 L-13560.5,11287.0 L-13554.5,11275.6 L-13545.6,11256.3 L-13538.1,11238.4 L-13531.4,11219.1 L-13526.0,11202.2 L-13520.1,11174.8 L-13515.8,11150.3 L-13513.5,11129.3 L-13511.5,11104.5 L-13511.3,11078.0 L-13512.9,11053.5 L-13517.1,11021.5 L-13521.5,10999.7 L-13526.5,10979.1 L-13533.9,10955.7 L-13540.2,10937.8 L-13547.4,10918.3 L-13554.2,10902.1 L-13558.8,10891.6 L-13560.7,10883.9 L-13561.0,10878.0 L-13560.4,10872.7 L-13558.3,10868.1 L-13555.1,10864.2 L-13550.9,10862.0 L-13546.4,10861.4 L-13534.3,10864.3 L-13500.6,10872.4 L-13489.4,10617.7 L-13445.7,10163.1 L-13493.2,10151.9 L-13498.4,10137.6 L-13498.2,10117.1 L-13491.6,10070.6 L-13482.6,10060.1 L-13474.6,10029.9 L-13424.1,10041.6 L-13396.3,9751.1 L-13388.6,9670.7 L-13404.3,9666.8 L-13394.8,9628.4 L-13427.1,9620.7 L-13423.0,9597.2 L-13417.3,9581.7 L-13410.2,9563.6 L-13398.2,9538.3 L-13385.3,9541.2 L-13367.9,9358.5 L-13363.8,9247.7 L-13363.0,9227.3 L-13353.6,9156.8 L-13334.9,8981.1 L-13210.1,8655.7 L-13181.6,8567.0 L-12834.9,8434.0 L-12801.0,8420.4 L-12795.1,8417.2 L-12790.5,8413.0 L-12785.4,8407.1 L-12781.5,8400.2 L-12778.9,8393.4 L-12778.3,8383.5 L-12778.8,8371.2 L-12783.4,8215.7 L-12785.1,8185.6 L-12785.6,8164.9 L-12786.3,8124.7 L-12787.1,8112.1 L-12788.6,8101.5 L-12790.7,8092.1 L-12793.8,8082.5 L-12798.7,8071.2 L-12805.9,8059.1 L-12812.9,8049.5 L-12818.3,8040.4 L-12823.8,8028.3 L-12828.4,8016.7 L-12830.2,8007.2 L-12831.6,7996.7 L-12832.3,7986.2 L-12832.0,7976.0 L-12830.8,7964.1 L-12828.0,7952.4 L-12824.3,7942.0 L-12820.4,7932.5 L-12815.4,7923.3 L-12809.3,7912.1 L-12805.3,7902.0 L-12801.8,7889.1 L-12795.4,7879.3 L-12797.6,7790.1 L-12800.9,7784.9 L-12801.9,7724.3 L-12803.6,7652.8 L-12802.4,7642.9 L-12799.2,7632.8 L-12791.2,7617.0 L-12737.7,7501.9 L-12736.6,7500.0 L-12727.2,7479.5 L-12718.3,7460.1 L-12708.3,7440.1 L-12698.5,7419.5 L-12693.7,7409.5 L-12641.1,7301.6 L-12584.9,7182.4 L-12463.3,6935.6 L-12536.4,6853.7 L-12596.0,6980.7 L-12647.5,7090.6 L-12655.3,7106.2 L-12671.2,7138.7 L-12703.0,7136.0 L-12711.7,7135.5 L-12714.8,7138.3 L-12710.6,7142.1 L-12726.9,7156.6 L-12739.8,7168.5 L-12742.2,7219.4 L-12747.0,7229.6 L-12762.6,7229.0 L-12765.2,7228.1 L-12969.6,7143.7 L-12974.0,7141.4 L-12978.7,7138.4 L-12986.1,7132.8 L-12991.8,7127.4 L-12996.6,7122.2 L-13001.3,7115.8 L-13004.9,7110.2 L-13007.7,7104.4 L-13009.9,7098.3 L-13011.4,7094.1 L-13012.5,7089.0 L-13013.3,7083.0 L-13014.1,7074.8 L-13014.1,7063.1 L-13015.5,7023.4 L-13009.9,7023.1 L-13010.7,7002.1 L-13011.6,6967.5 L-13006.4,6967.4 L-13006.8,6943.8 L-13012.7,6943.9 L-13015.4,6844.5 L-13009.8,6844.2 L-13010.7,6820.9 L-13016.1,6821.1 L-13018.4,6747.6 L-12991.4,6718.5 L-12956.9,6717.3 L-12931.2,6716.4 L-12897.3,6715.3 L-12864.7,6714.3 L-12835.5,6713.3 L-12822.8,6712.7 L-12823.4,6701.4 L-12823.6,6689.6 L-12825.5,6651.3 L-12826.2,6578.2 L-12827.2,6576.9 L-12827.4,6569.7 L-12825.3,6569.6 L-12830.4,6393.5 L-12834.8,6227.8 L-12835.5,6222.6 L-12835.9,6213.0 L-12908.1,6215.6 L-12956.1,6211.5 L-13315.4,6224.0 L-13315.5,6220.8 L-13316.2,6205.5 L-13486.6,6211.5 L-13486.9,6183.2 L-13509.4,6178.1 L-13513.4,6057.0 L-12850.6,6034.0 L-12839.6,6018.9 L-12840.0,5975.9 L-12840.8,5938.7 L-12841.4,5915.4 L-12842.3,5892.7 L-12895.0,5867.9 L-12897.1,5812.8 L-12843.1,5786.0 L-12848.0,5658.5 L-12849.4,5652.2 L-12903.1,5627.1 L-12904.8,5558.9 L-12853.8,5532.6 L-12876.5,5255.7 L-12870.5,5132.5 L-12867.5,4931.6 L-12867.7,4713.1 L-12862.9,4682.5 L-12862.6,4667.7 L-12867.4,4649.9 L-12862.4,4649.9 L-12862.4,4633.8 L-12859.4,4222.8 L-12859.9,4204.5 L-12865.6,4204.5 L-12865.4,4128.9 L-12868.7,4124.2 L-12873.9,4046.2 L-12863.6,3974.9 L-12864.9,3888.6 L-12868.4,3867.9 L-12863.1,3804.0 L-12866.7,3726.7 L-12875.7,3644.0 L-12892.8,3510.0 L-12884.7,3473.1 L-12888.3,3437.2 L-12918.9,3411.1 L-12963.8,3411.5 L-13032.2,3420.5 L-13076.7,3420.5 L-13117.1,3405.7 L-13170.2,3369.3 L-13170.2,3304.0 L-13171.6,3223.7 L-13166.4,3156.8 L-13148.8,3104.6 L-12854.1,3099.1 L-12847.3,2681.2 L-12847.3,2079.6 L-12850.4,1861.3 L3061.8,-4710.4 L3061.8,31507.8 L-16650.7,31507.8 L-16650.7,13522.3 Z" fill="#add7e1" stroke="none"><title>Biscayne Bay</title></path></svg>