<svg xmlns="http://www.w3.org/2000/svg" width="256" height="256" viewBox="0 0 256 256"><rect width="256" height="256" fill="#f1efe7"/><path d="M-16650.7,-813.7 L-16435.9,-903.0 L-16368.7,-935.3 L-16068.2,-1079.6 L-16011.8,-1025.0 L-16006.9,-1020.3 L-15901.5,-1110.5 L-15876.4,-1129.6 L-15834.5,-1167.4 L-15598.4,-1384.2 L-15407.9,-1601.8 L-15400.6,-1615.7 L-15393.6,-1623.6 L-15382.5,-1636.3 L-15371.2,-1649.2 L-15366.6,-1654.5 L-15441.7,-1751.6 L-15342.3,-1811.2 L-15288.4,-1739.5 L-15212.2,-1826.7 L-15276.7,-1912.1 L-15196.8,-1995.4 L-15135.3,-1914.4 L-15064.7,-1994.8 L-15034.6,-2014.5 L-14887.4,-2110.0 L-14814.7,-2158.3 L-14727.1,-2215.9 L-14685.7,-2243.1 L-14580.8,-2310.8 L-14607.8,-2346.3 L-14656.1,-2411.0 L-14531.2,-2490.4 L-14485.7,-2513.9 L-14482.2,-2516.4 L-14458.2,-2534.9 L-14372.6,-2580.7 L-14366.7,-2589.9 L-14342.7,-2606.4 L-14329.7,-2625.4 L-14326.0,-2628.2 L-14305.1,-2636.3 L-14257.9,-2653.2 L-14225.6,-2667.4 L-14111.5,-2721.0 L-14110.1,-2717.3 L-14014.4,-2758.2 L-13975.3,-2708.1 L-13888.2,-2766.2 L-13875.8,-2774.7 L-13874.6,-2775.7 L-13873.4,-2777.3 L-13871.5,-2780.6 L-13870.5,-2783.7 L-13869.9,-2787.4 L-13870.0,-2790.4 L-13870.4,-2793.3 L-13870.8,-2796.6 L-13870.9,-2799.1 L-13870.7,-2801.2 L-13870.3,-2803.4 L-13868.7,-2807.4 L-13867.6,-2809.6 L-13865.1,-2813.4 L-13862.5,-2816.2 L-13849.8,-2821.3 L-13839.2,-2825.3 L-13825.7,-2829.7 L-13819.4,-2831.4 L-13808.2,-2835.1 L-13800.3,-2837.9 L-13789.4,-2842.4 L-13774.6,-2848.9 L-13758.6,-2856.4 L-13750.0,-2860.6 L-13739.2,-2866.1 L-13729.1,-2871.7 L-13719.0,-2877.7 L-13708.7,-2884.4 L-13705.5,-2886.6 L-13684.8,-2902.4 L-13667.4,-2915.8 L-13650.4,-2930.2 L-13634.5,-2945.2 L-13623.0,-2958.1 L-13611.6,-2972.0 L-13597.6,-2990.0 L-13584.8,-3008.0 L-13570.1,-3031.1 L-13560.5,-3049.0 L-13554.5,-3060.4 L-13545.6,-3079.7 L-13538.1,-3097.6 L-13531.4,-3116.9 L-13526.0,-3133.8 L-13520.1,-3161.2 L-13515.8,-3185.7 L-13513.5,-3206.7 L-13511.5,-3231.5 L-13511.3,-3258.0 L-13512.9,-3282.5 L-13517.1,-3314.5 L-13521.5,-3336.3 L-13526.5,-3356.9 L-13533.9,-3380.3 L-13540.2,-3398.2 L-13547.4,-3417.7 L-13554.2,-3433.9 L-13558.8,-3444.4 L-13560.7,-3452.1 L-13561.0,-3458.0 L-13560.4,-3463.3 L-13558.3,-3467.9 L-13555.1,-3471.8 L-13550.9,-3474.0 L-13546.4,-3474.6 L-13534.3,-3471.7 L-13500.6,-3463.6 L-13489.4,-3718.3 L-13445.7,-4172.9 L-13493.2,-4184.1 L-13498.4,-4198.4 L-13498.2,-4218.9 L-13491.6,-4265.4 L-13482.6,-4275.9 L-13474.6,-4306.1 L-13424.1,-4294.4 L-13396.3,-4584.9 L-13388.6,-4665.3 L-13404.3,-4669.2 L-13394.8,-4707.6 L-13427.1,-4715.3 L-13423.0,-4738.8 L-13417.3,-4754.3 L-13410.2,-4772.4 L-13398.2,-4797.7 L-13385.3,-4794.8 L-13367.9,-4977.5 L-13363.8,-5088.3 L-13363.0,-5108.7 L-13353.6,-5179.2 L-13334.9,-5354.9 L-13210.1,-5680.3 L-13181.6,-5769.0 L-12834.9,-5902.0 L-12801.0,-5915.6 L-12795.1,-5918.8 L-12790.5,-5923.0 L-12785.4,-5928.9 L-12781.5,-5935.8 L-12778.9,-5942.6 L-12778.3,-5952.5 L-12778.8,-5964.8 L-12783.4,-6120.3 L-12785.1,-6150.4 L-12785.6,-6171.1 L-12786.3,-6211.3 L-12787.1,-6223.9 L-12788.6,-6234.5 L-12790.7,-6243.9 L-12793.8,-6253.5 L-12798.7,-6264.8 L-12805.9,-6276.9 L-12812.9,-6286.5 L-12818.3,-6295.6 L-12823.8,-6307.7 L-12828.4,-6319.3 L-12830.2,-6328.8 L-12831.6,-6339.3 L-12832.3,-6349.8 L-12832.0,-6360.0 L-12830.8,-6371.9 L-12828.0,-6383.6 L-12824.3,-6394.0 L-12820.4,-6403.5 L-12815.4,-6412.7 L-12809.3,-6423.9 L-12805.3,-6434.0 L-12801.8,-6446.9 L-12795.4,-6456.7 L-12797.6,-6545.9 L-12800.9,-6551.1 L-12801.9,-6611.7 L-12803.6,-6683.2 L-12802.4,-6693.1 L-12799.2,-6703.2 L-12791.2,-6719.0 L-12737.7,-6834.1 L-12736.6,-6836.0 L-12727.2,-6856.5 L-12718.3,-6875.9 L-12708.3,-6895.9 L-12698.5,-6916.5 L-12693.7,-6926.5 L-12641.1,-7034.4 L-12584.9,-7153.6 L-12463.3,-7400.4 L-12536.4,-7482.3 L-12596.0,-7355.3 L-12647.5,-7245.4 L-12655.3,-7229.8 L-12671.2,-7197.3 L-12703.0,-7200.0 L-12711.7,-7200.5 L-12714.8,-7197.7 L-12710.6,-7193.9 L-12726.9,-7179.4 L-12739.8,-7167.5 L-12742.2,-7116.6 L-12747.0,-7106.4 L-12762.6,-7107.0 L-12765.2,-7107.9 L-12969.6,-7192.3 L-12974.0,-7194.6 L-12978.7,-7197.6 L-12986.1,-7203.2 L-12991.8,-7208.6 L-12996.6,-7213.8 L-13001.3,-7220.2 L-13004.9,-7225.8 L-13007.7,-7231.6 L-13009.9,-7237.7 L-13011.4,-7241.9 L-13012.5,-7247.0 L-13013.3,-7253.0 L-13014.1,-7261.2 L-13014.1,-7272.9 L-13015.5,-7312.6 L-13009.9,-7312.9 L-13010.7,-7333.9 L-13011.6,-7368.5 L-13006.4,-7368.6 L-13006.8,-7392.2 L-13012.7,-7392.1 L-13015.4,-7491.5 L-13009.8,-7491.8 L-13010.7,-7515.1 L-13016.1,-7514.9 L-13018.4,-7588.4 L-12991.4,-7617.5 L-12956.9,-7618.7 L-12931.2,-7619.6 L-12897.3,-7620.7 L-12864.7,-7621.7 L-12835.5,-7622.7 L-12822.8,-7623.3 L-12823.4,-7634.6 L-12823.6,-7646.4 L-12825.5,-7684.7 L-12826.2,-7757.8 L-12827.2,-7759.1 L-12827.4,-7766.3 L-12825.3,-7766.4 L-12830.4,-7942.5 L-12834.8,-8108.2 L-12835.5,-8113.4 L-12835.9,-8123.0 L-12908.1,-8120.4 L-12956.1,-8124.5 L-13315.4,-8112.0 L-13315.5,-8115.2 L-13316.2,-8130.5 L-13486.6,-8124.5 L-13486.9,-8152.8 L-13509.4,-8157.9 L-13513.4,-8279.0 L-12850.6,-8302.0 L-12839.6,-8317.1 L-12840.0,-8360.1 L-12840.8,-8397.3 L-12841.4,-8420.6 L-12842.3,-8443.3 L-12895.0,-8468.1 L-12897.1,-8523.2 L-12843.1,-8550.0 L-12848.0,-8677.5 L-12849.4,-8683.8 L-12903.1,-8708.9 L-12904.8,-8777.1 L-12853.8,-8803.4 L-12876.5,-9080.3 L-12870.5,-9203.5 L-12867.5,-9404.4 L-12867.7,-9622.9 L-12862.9,-9653.5 L-12862.6,-9668.3 L-12867.4,-9686.1 L-12862.4,-9686.1 L-12862.4,-9702.2 L-12859.4,-10113.2 L-12859.9,-10131.5 L-12865.6,-10131.5 L-12865.4,-10207.1 L-12868.7,-10211.8 L-12873.9,-10289.8 L-12863.6,-10361.1 L-12864.9,-10447.4 L-12868.4,-10468.1 L-12863.1,-10532.0 L-12866.7,-10609.3 L-12875.7,-10692.0 L-12892.8,-10826.0 L-12884.7,-10862.9 L-12888.3,-10898.8 L-12918.9,-10924.9 L-12963.8,-10924.5 L-13032.2,-10915.5 L-13076.7,-10915.5 L-13117.1,-10930.3 L-13170.2,-10966.7 L-13170.2,-11032.0 L-13171.6,-11112.3 L-13166.4,-11179.2 L-13148.8,-11231.4 L-12854.1,-11236.9 L-12847.3,-11654.8 L-12847.3,-12256.4 L-12850.4,-12474.7 L3061.8,-19046.4 L3061.8,17171.8 L-16650.7,17171.8 L-16650.7,-813.7 Z" fill="#add7e1" stroke="none"><title>Biscayne Bay</title></path><path d="M-1.0,-1.0 L257.0,-1.0 L257.0,257.0 L-1.0,257.0 L-1.0,-1.0 Z" fill="#add7e1" stroke="none" fill-rule="evenodd"><title>Biscayne Bay</title></path></svg>