<svg xmlns="http://www.w3.org/2000/svg" width="256" height="256" viewBox="0 0 256 256"><rect width="256" height="256" fill="#f1efe7"/><path d="M-16650.7,-11053.7 L-16435.9,-11143.0 L-16368.7,-11175.3 L-16068.2,-11319.6 L-16011.8,-11265.0 L-16006.9,-11260.3 L-15901.5,-11350.5 L-15876.4,-11369.6 L-15834.5,-11407.4 L-15598.4,-11624.2 L-15407.9,-11841.8 L-15400.6,-11855.7 L-15393.6,-11863.6 L-15382.5,-11876.3 L-15371.2,-11889.2 L-15366.6,-11894.5 L-15441.7,-11991.6 L-15342.3,-12051.2 L-15288.4,-11979.5 L-15212.2,-12066.7 L-15276.7,-12152.1 L-15196.8,-12235.4 L-15135.3,-12154.4 L-15064.7,-12234.8 L-15034.6,-12254.5 L-14887.4,-12350.0 L-14814.7,-12398.3 L-14727.1,-12455.9 L-14685.7,-12483.1 L-14580.8,-12550.8 L-14607.8,-12586.3 L-14656.1,-12651.0 L-14531.2,-12730.4 L-14485.7,-12753.9 L-14482.2,-12756.4 L-14458.2,-12774.9 L-14372.6,-12820.7 L-14366.7,-12829.9 L-14342.7,-12846.4 L-14329.7,-12865.4 L-14326.0,-12868.2 L-14305.1,-12876.3 L-14257.9,-12893.2 L-14225.6,-12907.4 L-14111.5,-12961.0 L-14110.1,-12957.3 L-14014.4,-12998.2 L-13975.3,-12948.1 L-13888.2,-13006.2 L-13875.8,-13014.7 L-13874.6,-13015.7 L-13873.4,-13017.3 L-13871.5,-13020.6 L-13870.5,-13023.7 L-13869.9,-13027.4 L-13870.0,-13030.4 L-13870.4,-13033.3 L-13870.8,-13036.6 L-13870.9,-13039.1 L-13870.7,-13041.2 L-13870.3,-13043.4 L-13868.7,-13047.4 L-13867.6,-13049.6 L-13865.1,-13053.4 L-13862.5,-13056.2 L-13849.8,-13061.3 L-13839.2,-13065.3 L-13825.7,-13069.7 L-13819.4,-13071.4 L-13808.2,-13075.1 L-13800.3,-13077.9 L-13789.4,-13082.4 L-13774.6,-13088.9 L-13758.6,-13096.4 L-13750.0,-13100.6 L-13739.2,-13106.1 L-13729.1,-13111.7 L-13719.0,-13117.7 L-13708.7,-13124.4 L-13705.5,-13126.6 L-13684.8,-13142.4 L-13667.4,-13155.8 L-13650.4,-13170.2 L-13634.5,-13185.2 L-13623.0,-13198.1 L-13611.6,-13212.0 L-13597.6,-13230.0 L-13584.8,-13248.0 L-13570.1,-13271.1 L-13560.5,-13289.0 L-13554.5,-13300.4 L-13545.6,-13319.7 L-13538.1,-13337.6 L-13531.4,-13356.9 L-13526.0,-13373.8 L-13520.1,-13401.2 L-13515.8,-13425.7 L-13513.5,-13446.7 L-13511.5,-13471.5 L-13511.3,-13498.0 L-13512.9,-13522.5 L-13517.1,-13554.5 L-13521.5,-13576.3 L-13526.5,-13596.9 L-13533.9,-13620.3 L-13540.2,-13638.2 L-13547.4,-13657.7 L-13554.2,-13673.9 L-13558.8,-13684.4 L-13560.7,-13692.1 L-13561.0,-13698.0 L-13560.4,-13703.3 L-13558.3,-13707.9 L-13555.1,-13711.8 L-13550.9,-13714.0 L-13546.4,-13714.6 L-13534.3,-13711.7 L-13500.6,-13703.6 L-13489.4,-13958.3 L-13445.7,-14412.9 L-13493.2,-14424.1 L-13498.4,-14438.4 L-13498.2,-14458.9 L-13491.6,-14505.4 L-13482.6,-14515.9 L-13474.6,-14546.1 L-13424.1,-14534.4 L-13396.3,-14824.9 L-13388.6,-14905.3 L-13404.3,-14909.2 L-13394.8,-14947.6 L-13427.1,-14955.3 L-13423.0,-14978.8 L-13417.3,-14994.3 L-13410.2,-15012.4 L-13398.2,-15037.7 L-13385.3,-15034.8 L-13367.9,-15217.5 L-13363.8,-15328.3 L-13363.0,-15348.7 L-13353.6,-15419.2 L-13334.9,-15594.9 L-13210.1,-15920.3 L-13181.6,-16009.0 L-12834.9,-16142.0 L-12801.0,-16155.6 L-12795.1,-16158.8 L-12790.5,-16163.0 L-12785.4,-16168.9 L-12781.5,-16175.8 L-12778.9,-16182.6 L-12778.3,-16192.5 L-12778.8,-16204.8 L-12783.4,-16360.3 L-12785.1,-16390.4 L-12785.6,-16411.1 L-12786.3,-16451.3 L-12787.1,-16463.9 L-12788.6,-16474.5 L-12790.7,-16483.9 L-12793.8,-16493.5 L-12798.7,-16504.8 L-12805.9,-16516.9 L-12812.9,-16526.5 L-12818.3,-16535.6 L-12823.8,-16547.7 L-12828.4,-16559.3 L-12830.2,-16568.8 L-12831.6,-16579.3 L-12832.3,-16589.8 L-12832.0,-16600.0 L-12830.8,-16611.9 L-12828.0,-16623.6 L-12824.3,-16634.0 L-12820.4,-16643.5 L-12815.4,-16652.7 L-12809.3,-16663.9 L-12805.3,-16674.0 L-12801.8,-16686.9 L-12795.4,-16696.7 L-12797.6,-16785.9 L-12800.9,-16791.1 L-12801.9,-16851.7 L-12803.6,-16923.2 L-12802.4,-16933.1 L-12799.2,-16943.2 L-12791.2,-16959.0 L-12737.7,-17074.1 L-12736.6,-17076.0 L-12727.2,-17096.5 L-12718.3,-17115.9 L-12708.3,-17135.9 L-12698.5,-17156.5 L-12693.7,-17166.5 L-12641.1,-17274.4 L-12584.9,-17393.6 L-12463.3,-17640.4 L-12536.4,-17722.3 L-12596.0,-17595.3 L-12647.5,-17485.4 L-12655.3,-17469.8 L-12671.2,-17437.3 L-12703.0,-17440.0 L-12711.7,-17440.5 L-12714.8,-17437.7 L-12710.6,-17433.9 L-12726.9,-17419.4 L-12739.8,-17407.5 L-12742.2,-17356.6 L-12747.0,-17346.4 L-12762.6,-17347.0 L-12765.2,-17347.9 L-12969.6,-17432.3 L-12974.0,-17434.6 L-12978.7,-17437.6 L-12986.1,-17443.2 L-12991.8,-17448.6 L-12996.6,-17453.8 L-13001.3,-17460.2 L-13004.9,-17465.8 L-13007.7,-17471.6 L-13009.9,-17477.7 L-13011.4,-17481.9 L-13012.5,-17487.0 L-13013.3,-17493.0 L-13014.1,-17501.2 L-13014.1,-17512.9 L-13015.5,-17552.6 L-13009.9,-17552.9 L-13010.7,-17573.9 L-13011.6,-17608.5 L-13006.4,-17608.6 L-13006.8,-17632.2 L-13012.7,-17632.1 L-13015.4,-17731.5 L-13009.8,-17731.8 L-13010.7,-17755.1 L-13016.1,-17754.9 L-13018.4,-17828.4 L-12991.4,-17857.5 L-12956.9,-17858.7 L-12931.2,-17859.6 L-12897.3,-17860.7 L-12864.7,-17861.7 L-12835.5,-17862.7 L-12822.8,-17863.3 L-12823.4,-17874.6 L-12823.6,-17886.4 L-12825.5,-17924.7 L-12826.2,-17997.8 L-12827.2,-17999.1 L-12827.4,-18006.3 L-12825.3,-18006.4 L-12830.4,-18182.5 L-12834.8,-18348.2 L-12835.5,-18353.4 L-12835.9,-18363.0 L-12908.1,-18360.4 L-12956.1,-18364.5 L-13315.4,-18352.0 L-13315.5,-18355.2 L-13316.2,-18370.5 L-13486.6,-18364.5 L-13486.9,-18392.8 L-13509.4,-18397.9 L-13513.4,-18519.0 L-12850.6,-18542.0 L-12839.6,-18557.1 L-12840.0,-18600.1 L-12840.8,-18637.3 L-12841.4,-18660.6 L-12842.3,-18683.3 L-12895.0,-18708.1 L-12897.1,-18763.2 L-12843.1,-18790.0 L-12848.0,-18917.5 L-12849.4,-18923.8 L-12903.1,-18948.9 L-12904.8,-19017.1 L-12853.8,-19043.4 L-12876.5,-19320.3 L-12870.5,-19443.5 L-12867.5,-19644.4 L-12867.7,-19862.9 L-12862.9,-19893.5 L-12862.6,-19908.3 L-12867.4,-19926.1 L-12862.4,-19926.1 L-12862.4,-19942.2 L-12859.4,-20353.2 L-12859.9,-20371.5 L-12865.6,-20371.5 L-12865.4,-20447.1 L-12868.7,-20451.8 L-12873.9,-20529.8 L-12863.6,-20601.1 L-12864.9,-20687.4 L-12868.4,-20708.1 L-12863.1,-20772.0 L-12866.7,-20849.3 L-12875.7,-20932.0 L-12892.8,-21066.0 L-12884.7,-21102.9 L-12888.3,-21138.8 L-12918.9,-21164.9 L-12963.8,-21164.5 L-13032.2,-21155.5 L-13076.7,-21155.5 L-13117.1,-21170.3 L-13170.2,-21206.7 L-13170.2,-21272.0 L-13171.6,-21352.3 L-13166.4,-21419.2 L-13148.8,-21471.4 L-12854.1,-21476.9 L-12847.3,-21894.8 L-12847.3,-22496.4 L-12850.4,-22714.7 L3061.8,-29286.4 L3061.8,6931.8 L-16650.7,6931.8 L-16650.7,-11053.7 Z" fill="#add7e1" stroke="none"><title>Biscayne Bay</title></path></svg>