<svg xmlns="http://www.w3.org/2000/svg" width="256" height="256" viewBox="0 0 256 256"><rect width="256" height="256" fill="#f1efe7"/><path d="M-16650.7,-16941.7 L-16435.9,-17031.0 L-16368.7,-17063.3 L-16068.2,-17207.6 L-16011.8,-17153.0 L-16006.9,-17148.3 L-15901.5,-17238.5 L-15876.4,-17257.6 L-15834.5,-17295.4 L-15598.4,-17512.2 L-15407.9,-17729.8 L-15400.6,-17743.7 L-15393.6,-17751.6 L-15382.5,-17764.3 L-15371.2,-17777.2 L-15366.6,-17782.5 L-15441.7,-17879.6 L-15342.3,-17939.2 L-15288.4,-17867.5 L-15212.2,-17954.7 L-15276.7,-18040.1 L-15196.8,-18123.4 L-15135.3,-18042.4 L-15064.7,-18122.8 L-15034.6,-18142.5 L-14887.4,-18238.0 L-14814.7,-18286.3 L-14727.1,-18343.9 L-14685.7,-18371.1 L-14580.8,-18438.8 L-14607.8,-18474.3 L-14656.1,-18539.0 L-14531.2,-18618.4 L-14485.7,-18641.9 L-14482.2,-18644.4 L-14458.2,-18662.9 L-14372.6,-18708.7 L-14366.7,-18717.9 L-14342.7,-18734.4 L-14329.7,-18753.4 L-14326.0,-18756.2 L-14305.1,-18764.3 L-14257.9,-18781.2 L-14225.6,-18795.4 L-14111.5,-18849.0 L-14110.1,-18845.3 L-14014.4,-18886.2 L-13975.3,-18836.1 L-13888.2,-18894.2 L-13875.8,-18902.7 L-13874.6,-18903.7 L-13873.4,-18905.3 L-13871.5,-18908.6 L-13870.5,-18911.7 L-13869.9,-18915.4 L-13870.0,-18918.4 L-13870.4,-18921.3 L-13870.8,-18924.6 L-13870.9,-18927.1 L-13870.7,-18929.2 L-13870.3,-18931.4 L-13868.7,-18935.4 L-13867.6,-18937.6 L-13865.1,-18941.4 L-13862.5,-18944.2 L-13849.8,-18949.3 L-13839.2,-18953.3 L-13825.7,-18957.7 L-13819.4,-18959.4 L-13808.2,-18963.1 L-13800.3,-18965.9 L-13789.4,-18970.4 L-13774.6,-18976.9 L-13758.6,-18984.4 L-13750.0,-18988.6 L-13739.2,-18994.1 L-13729.1,-18999.7 L-13719.0,-19005.7 L-13708.7,-19012.4 L-13705.5,-19014.6 L-13684.8,-19030.4 L-13667.4,-19043.8 L-13650.4,-19058.2 L-13634.5,-19073.2 L-13623.0,-19086.1 L-13611.6,-19100.0 L-13597.6,-19118.0 L-13584.8,-19136.0 L-13570.1,-19159.1 L-13560.5,-19177.0 L-13554.5,-19188.4 L-13545.6,-19207.7 L-13538.1,-19225.6 L-13531.4,-19244.9 L-13526.0,-19261.8 L-13520.1,-19289.2 L-13515.8,-19313.7 L-13513.5,-19334.7 L-13511.5,-19359.5 L-13511.3,-19386.0 L-13512.9,-19410.5 L-13517.1,-19442.5 L-13521.5,-19464.3 L-13526.5,-19484.9 L-13533.9,-19508.3 L-13540.2,-19526.2 L-13547.4,-19545.7 L-13554.2,-19561.9 L-13558.8,-19572.4 L-13560.7,-19580.1 L-13561.0,-19586.0 L-13560.4,-19591.3 L-13558.3,-19595.9 L-13555.1,-19599.8 L-13550.9,-19602.0 L-13546.4,-19602.6 L-13534.3,-19599.7 L-13500.6,-19591.6 L-13489.4,-19846.3 L-13445.7,-20300.9 L-13493.2,-20312.1 L-13498.4,-20326.4 L-13498.2,-20346.9 L-13491.6,-20393.4 L-13482.6,-20403.9 L-13474.6,-20434.1 L-13424.1,-20422.4 L-13396.3,-20712.9 L-13388.6,-20793.3 L-13404.3,-20797.2 L-13394.8,-20835.6 L-13427.1,-20843.3 L-13423.0,-20866.8 L-13417.3,-20882.3 L-13410.2,-20900.4 L-13398.2,-20925.7 L-13385.3,-20922.8 L-13367.9,-21105.5 L-13363.8,-21216.3 L-13363.0,-21236.7 L-13353.6,-21307.2 L-13334.9,-21482.9 L-13210.1,-21808.3 L-13181.6,-21897.0 L-12834.9,-22030.0 L-12801.0,-22043.6 L-12795.1,-22046.8 L-12790.5,-22051.0 L-12785.4,-22056.9 L-12781.5,-22063.8 L-12778.9,-22070.6 L-12778.3,-22080.5 L-12778.8,-22092.8 L-12783.4,-22248.3 L-12785.1,-22278.4 L-12785.6,-22299.1 L-12786.3,-22339.3 L-12787.1,-22351.9 L-12788.6,-22362.5 L-12790.7,-22371.9 L-12793.8,-22381.5 L-12798.7,-22392.8 L-12805.9,-22404.9 L-12812.9,-22414.5 L-12818.3,-22423.6 L-12823.8,-22435.7 L-12828.4,-22447.3 L-12830.2,-22456.8 L-12831.6,-22467.3 L-12832.3,-22477.8 L-12832.0,-22488.0 L-12830.8,-22499.9 L-12828.0,-22511.6 L-12824.3,-22522.0 L-12820.4,-22531.5 L-12815.4,-22540.7 L-12809.3,-22551.9 L-12805.3,-22562.0 L-12801.8,-22574.9 L-12795.4,-22584.7 L-12797.6,-22673.9 L-12800.9,-22679.1 L-12801.9,-22739.7 L-12803.6,-22811.2 L-12802.4,-22821.1 L-12799.2,-22831.2 L-12791.2,-22847.0 L-12737.7,-22962.1 L-12736.6,-22964.0 L-12727.2,-22984.5 L-12718.3,-23003.9 L-12708.3,-23023.9 L-12698.5,-23044.5 L-12693.7,-23054.5 L-12641.1,-23162.4 L-12584.9,-23281.6 L-12463.3,-23528.4 L-12536.4,-23610.3 L-12596.0,-23483.3 L-12647.5,-23373.4 L-12655.3,-23357.8 L-12671.2,-23325.3 L-12703.0,-23328.0 L-12711.7,-23328.5 L-12714.8,-23325.7 L-12710.6,-23321.9 L-12726.9,-23307.4 L-12739.8,-23295.5 L-12742.2,-23244.6 L-12747.0,-23234.4 L-12762.6,-23235.0 L-12765.2,-23235.9 L-12969.6,-23320.3 L-12974.0,-23322.6 L-12978.7,-23325.6 L-12986.1,-23331.2 L-12991.8,-23336.6 L-12996.6,-23341.8 L-13001.3,-23348.2 L-13004.9,-23353.8 L-13007.7,-23359.6 L-13009.9,-23365.7 L-13011.4,-23369.9 L-13012.5,-23375.0 L-13013.3,-23381.0 L-13014.1,-23389.2 L-13014.1,-23400.9 L-13015.5,-23440.6 L-13009.9,-23440.9 L-13010.7,-23461.9 L-13011.6,-23496.5 L-13006.4,-23496.6 L-13006.8,-23520.2 L-13012.7,-23520.1 L-13015.4,-23619.5 L-13009.8,-23619.8 L-13010.7,-23643.1 L-13016.1,-23642.9 L-13018.4,-23716.4 L-12991.4,-23745.5 L-12956.9,-23746.7 L-12931.2,-23747.6 L-12897.3,-23748.7 L-12864.7,-23749.7 L-12835.5,-23750.7 L-12822.8,-23751.3 L-12823.4,-23762.6 L-12823.6,-23774.4 L-12825.5,-23812.7 L-12826.2,-23885.8 L-12827.2,-23887.1 L-12827.4,-23894.3 L-12825.3,-23894.4 L-12830.4,-24070.5 L-12834.8,-24236.2 L-12835.5,-24241.4 L-12835.9,-24251.0 L-12908.1,-24248.4 L-12956.1,-24252.5 L-13315.4,-24240.0 L-13315.5,-24243.2 L-13316.2,-24258.5 L-13486.6,-24252.5 L-13486.9,-24280.8 L-13509.4,-24285.9 L-13513.4,-24407.0 L-12850.6,-24430.0 L-12839.6,-24445.1 L-12840.0,-24488.1 L-12840.8,-24525.3 L-12841.4,-24548.6 L-12842.3,-24571.3 L-12895.0,-24596.1 L-12897.1,-24651.2 L-12843.1,-24678.0 L-12848.0,-24805.5 L-12849.4,-24811.8 L-12903.1,-24836.9 L-12904.8,-24905.1 L-12853.8,-24931.4 L-12876.5,-25208.3 L-12870.5,-25331.5 L-12867.5,-25532.4 L-12867.7,-25750.9 L-12862.9,-25781.5 L-12862.6,-25796.3 L-12867.4,-25814.1 L-12862.4,-25814.1 L-12862.4,-25830.2 L-12859.4,-26241.2 L-12859.9,-26259.5 L-12865.6,-26259.5 L-12865.4,-26335.1 L-12868.7,-26339.8 L-12873.9,-26417.8 L-12863.6,-26489.1 L-12864.9,-26575.4 L-12868.4,-26596.1 L-12863.1,-26660.0 L-12866.7,-26737.3 L-12875.7,-26820.0 L-12892.8,-26954.0 L-12884.7,-26990.9 L-12888.3,-27026.8 L-12918.9,-27052.9 L-12963.8,-27052.5 L-13032.2,-27043.5 L-13076.7,-27043.5 L-13117.1,-27058.3 L-13170.2,-27094.7 L-13170.2,-27160.0 L-13171.6,-27240.3 L-13166.4,-27307.2 L-13148.8,-27359.4 L-12854.1,-27364.9 L-12847.3,-27782.8 L-12847.3,-28384.4 L-12850.4,-28602.7 L3061.8,-35174.4 L3061.8,1043.8 L-16650.7,1043.8 L-16650.7,-16941.7 Z" fill="#add7e1" stroke="none"><title>Biscayne Bay</title></path><path d="M-1.0,-1.0 L257.0,-1.0 L257.0,257.0 L-1.0,257.0 L-1.0,-1.0 Z" fill="#add7e1" stroke="none" fill-rule="evenodd"><title>Biscayne Bay</title></path></svg>