<svg xmlns="http://www.w3.org/2000/svg" width="256" height="256" viewBox="0 0 256 256"><rect width="256" height="256" fill="#f1efe7"/><path d="M-15882.7,-1325.7 L-15667.9,-1415.0 L-15600.7,-1447.3 L-15300.2,-1591.6 L-15243.8,-1537.0 L-15238.9,-1532.3 L-15133.5,-1622.5 L-15108.4,-1641.6 L-15066.5,-1679.4 L-14830.4,-1896.2 L-14639.9,-2113.8 L-14632.6,-2127.7 L-14625.6,-2135.6 L-14614.5,-2148.3 L-14603.2,-2161.2 L-14598.6,-2166.5 L-14673.7,-2263.6 L-14574.3,-2323.2 L-14520.4,-2251.5 L-14444.2,-2338.7 L-14508.7,-2424.1 L-14428.8,-2507.4 L-14367.3,-2426.4 L-14296.7,-2506.8 L-14266.6,-2526.5 L-14119.4,-2622.0 L-14046.7,-2670.3 L-13959.1,-2727.9 L-13917.7,-2755.1 L-13812.8,-2822.8 L-13839.8,-2858.3 L-13888.1,-2923.0 L-13763.2,-3002.4 L-13717.7,-3025.9 L-13714.2,-3028.4 L-13690.2,-3046.9 L-13604.6,-3092.7 L-13598.7,-3101.9 L-13574.7,-3118.4 L-13561.7,-3137.4 L-13558.0,-3140.2 L-13537.1,-3148.3 L-13489.9,-3165.2 L-13457.6,-3179.4 L-13343.5,-3233.0 L-13342.1,-3229.3 L-13246.4,-3270.2 L-13207.3,-3220.1 L-13120.2,-3278.2 L-13107.8,-3286.7 L-13106.6,-3287.7 L-13105.4,-3289.3 L-13103.5,-3292.6 L-13102.5,-3295.7 L-13101.9,-3299.4 L-13102.0,-3302.4 L-13102.4,-3305.3 L-13102.8,-3308.6 L-13102.9,-3311.1 L-13102.7,-3313.2 L-13102.3,-3315.4 L-13100.7,-3319.4 L-13099.6,-3321.6 L-13097.1,-3325.4 L-13094.5,-3328.2 L-13081.8,-3333.3 L-13071.2,-3337.3 L-13057.7,-3341.7 L-13051.4,-3343.4 L-13040.2,-3347.1 L-13032.3,-3349.9 L-13021.4,-3354.4 L-13006.6,-3360.9 L-12990.6,-3368.4 L-12982.0,-3372.6 L-12971.2,-3378.1 L-12961.1,-3383.7 L-12951.0,-3389.7 L-12940.7,-3396.4 L-12937.5,-3398.6 L-12916.8,-3414.4 L-12899.4,-3427.8 L-12882.4,-3442.2 L-12866.5,-3457.2 L-12855.0,-3470.1 L-12843.6,-3484.0 L-12829.6,-3502.0 L-12816.8,-3520.0 L-12802.1,-3543.1 L-12792.5,-3561.0 L-12786.5,-3572.4 L-12777.6,-3591.7 L-12770.1,-3609.6 L-12763.4,-3628.9 L-12758.0,-3645.8 L-12752.1,-3673.2 L-12747.8,-3697.7 L-12745.5,-3718.7 L-12743.5,-3743.5 L-12743.3,-3770.0 L-12744.9,-3794.5 L-12749.1,-3826.5 L-12753.5,-3848.3 L-12758.5,-3868.9 L-12765.9,-3892.3 L-12772.2,-3910.2 L-12779.4,-3929.7 L-12786.2,-3945.9 L-12790.8,-3956.4 L-12792.7,-3964.1 L-12793.0,-3970.0 L-12792.4,-3975.3 L-12790.3,-3979.9 L-12787.1,-3983.8 L-12782.9,-3986.0 L-12778.4,-3986.6 L-12766.3,-3983.7 L-12732.6,-3975.6 L-12721.4,-4230.3 L-12677.7,-4684.9 L-12725.2,-4696.1 L-12730.4,-4710.4 L-12730.2,-4730.9 L-12723.6,-4777.4 L-12714.6,-4787.9 L-12706.6,-4818.1 L-12656.1,-4806.4 L-12628.3,-5096.9 L-12620.6,-5177.3 L-12636.3,-5181.2 L-12626.8,-5219.6 L-12659.1,-5227.3 L-12655.0,-5250.8 L-12649.3,-5266.3 L-12642.2,-5284.4 L-12630.2,-5309.7 L-12617.3,-5306.8 L-12599.9,-5489.5 L-12595.8,-5600.3 L-12595.0,-5620.7 L-12585.6,-5691.2 L-12566.9,-5866.9 L-12442.1,-6192.3 L-12413.6,-6281.0 L-12066.9,-6414.0 L-12033.0,-6427.6 L-12027.1,-6430.8 L-12022.5,-6435.0 L-12017.4,-6440.9 L-12013.5,-6447.8 L-12010.9,-6454.6 L-12010.3,-6464.5 L-12010.8,-6476.8 L-12015.4,-6632.3 L-12017.1,-6662.4 L-12017.6,-6683.1 L-12018.3,-6723.3 L-12019.1,-6735.9 L-12020.6,-6746.5 L-12022.7,-6755.9 L-12025.8,-6765.5 L-12030.7,-6776.8 L-12037.9,-6788.9 L-12044.9,-6798.5 L-12050.3,-6807.6 L-12055.8,-6819.7 L-12060.4,-6831.3 L-12062.2,-6840.8 L-12063.6,-6851.3 L-12064.3,-6861.8 L-12064.0,-6872.0 L-12062.8,-6883.9 L-12060.0,-6895.6 L-12056.3,-6906.0 L-12052.4,-6915.5 L-12047.4,-6924.7 L-12041.3,-6935.9 L-12037.3,-6946.0 L-12033.8,-6958.9 L-12027.4,-6968.7 L-12029.6,-7057.9 L-12032.9,-7063.1 L-12033.9,-7123.7 L-12035.6,-7195.2 L-12034.4,-7205.1 L-12031.2,-7215.2 L-12023.2,-7231.0 L-11969.7,-7346.1 L-11968.6,-7348.0 L-11959.2,-7368.5 L-11950.3,-7387.9 L-11940.3,-7407.9 L-11930.5,-7428.5 L-11925.7,-7438.5 L-11873.1,-7546.4 L-11816.9,-7665.6 L-11695.3,-7912.4 L-11768.4,-7994.3 L-11828.0,-7867.3 L-11879.5,-7757.4 L-11887.3,-7741.8 L-11903.2,-7709.3 L-11935.0,-7712.0 L-11943.7,-7712.5 L-11946.8,-7709.7 L-11942.6,-7705.9 L-11958.9,-7691.4 L-11971.8,-7679.5 L-11974.2,-7628.6 L-11979.0,-7618.4 L-11994.6,-7619.0 L-11997.2,-7619.9 L-12201.6,-7704.3 L-12206.0,-7706.6 L-12210.7,-7709.6 L-12218.1,-7715.2 L-12223.8,-7720.6 L-12228.6,-7725.8 L-12233.3,-7732.2 L-12236.9,-7737.8 L-12239.7,-7743.6 L-12241.9,-7749.7 L-12243.4,-7753.9 L-12244.5,-7759.0 L-12245.3,-7765.0 L-12246.1,-7773.2 L-12246.1,-7784.9 L-12247.5,-7824.6 L-12241.9,-7824.9 L-12242.7,-7845.9 L-12243.6,-7880.5 L-12238.4,-7880.6 L-12238.8,-7904.2 L-12244.7,-7904.1 L-12247.4,-8003.5 L-12241.8,-8003.8 L-12242.7,-8027.1 L-12248.1,-8026.9 L-12250.4,-8100.4 L-12223.4,-8129.5 L-12188.9,-8130.7 L-12163.2,-8131.6 L-12129.3,-8132.7 L-12096.7,-8133.7 L-12067.5,-8134.7 L-12054.8,-8135.3 L-12055.4,-8146.6 L-12055.6,-8158.4 L-12057.5,-8196.7 L-12058.2,-8269.8 L-12059.2,-8271.1 L-12059.4,-8278.3 L-12057.3,-8278.4 L-12062.4,-8454.5 L-12066.8,-8620.2 L-12067.5,-8625.4 L-12067.9,-8635.0 L-12140.1,-8632.4 L-12188.1,-8636.5 L-12547.4,-8624.0 L-12547.5,-8627.2 L-12548.2,-8642.5 L-12718.6,-8636.5 L-12718.9,-8664.8 L-12741.4,-8669.9 L-12745.4,-8791.0 L-12082.6,-8814.0 L-12071.6,-8829.1 L-12072.0,-8872.1 L-12072.8,-8909.3 L-12073.4,-8932.6 L-12074.3,-8955.3 L-12127.0,-8980.1 L-12129.1,-9035.2 L-12075.1,-9062.0 L-12080.0,-9189.5 L-12081.4,-9195.8 L-12135.1,-9220.9 L-12136.8,-9289.1 L-12085.8,-9315.4 L-12108.5,-9592.3 L-12102.5,-9715.5 L-12099.5,-9916.4 L-12099.7,-10134.9 L-12094.9,-10165.5 L-12094.6,-10180.3 L-12099.4,-10198.1 L-12094.4,-10198.1 L-12094.4,-10214.2 L-12091.4,-10625.2 L-12091.9,-10643.5 L-12097.6,-10643.5 L-12097.4,-10719.1 L-12100.7,-10723.8 L-12105.9,-10801.8 L-12095.6,-10873.1 L-12096.9,-10959.4 L-12100.4,-10980.1 L-12095.1,-11044.0 L-12098.7,-11121.3 L-12107.7,-11204.0 L-12124.8,-11338.0 L-12116.7,-11374.9 L-12120.3,-11410.8 L-12150.9,-11436.9 L-12195.8,-11436.5 L-12264.2,-11427.5 L-12308.7,-11427.5 L-12349.1,-11442.3 L-12402.2,-11478.7 L-12402.2,-11544.0 L-12403.6,-11624.3 L-12398.4,-11691.2 L-12380.8,-11743.4 L-12086.1,-11748.9 L-12079.3,-12166.8 L-12079.3,-12768.4 L-12082.4,-12986.7 L3829.8,-19558.4 L3829.8,16659.8 L-15882.7,16659.8 L-15882.7,-1325.7 Z" fill="#add7e1" stroke="none"><title>Biscayne Bay</title></path><path d="M-1.0,-1.0 L257.0,-1.0 L257.0,257.0 L-1.0,257.0 L-1.0,-1.0 Z" fill="#add7e1" stroke="none" fill-rule="evenodd"><title>Biscayne Bay</title></path></svg>