<svg xmlns="http://www.w3.org/2000/svg" width="256" height="256" viewBox="0 0 256 256"><rect width="256" height="256" fill="#f1efe7"/><path d="M-15882.7,-15917.7 L-15667.9,-16007.0 L-15600.7,-16039.3 L-15300.2,-16183.6 L-15243.8,-16129.0 L-15238.9,-16124.3 L-15133.5,-16214.5 L-15108.4,-16233.6 L-15066.5,-16271.4 L-14830.4,-16488.2 L-14639.9,-16705.8 L-14632.6,-16719.7 L-14625.6,-16727.6 L-14614.5,-16740.3 L-14603.2,-16753.2 L-14598.6,-16758.5 L-14673.7,-16855.6 L-14574.3,-16915.2 L-14520.4,-16843.5 L-14444.2,-16930.7 L-14508.7,-17016.1 L-14428.8,-17099.4 L-14367.3,-17018.4 L-14296.7,-17098.8 L-14266.6,-17118.5 L-14119.4,-17214.0 L-14046.7,-17262.3 L-13959.1,-17319.9 L-13917.7,-17347.1 L-13812.8,-17414.8 L-13839.8,-17450.3 L-13888.1,-17515.0 L-13763.2,-17594.4 L-13717.7,-17617.9 L-13714.2,-17620.4 L-13690.2,-17638.9 L-13604.6,-17684.7 L-13598.7,-17693.9 L-13574.7,-17710.4 L-13561.7,-17729.4 L-13558.0,-17732.2 L-13537.1,-17740.3 L-13489.9,-17757.2 L-13457.6,-17771.4 L-13343.5,-17825.0 L-13342.1,-17821.3 L-13246.4,-17862.2 L-13207.3,-17812.1 L-13120.2,-17870.2 L-13107.8,-17878.7 L-13106.6,-17879.7 L-13105.4,-17881.3 L-13103.5,-17884.6 L-13102.5,-17887.7 L-13101.9,-17891.4 L-13102.0,-17894.4 L-13102.4,-17897.3 L-13102.8,-17900.6 L-13102.9,-17903.1 L-13102.7,-17905.2 L-13102.3,-17907.4 L-13100.7,-17911.4 L-13099.6,-17913.6 L-13097.1,-17917.4 L-13094.5,-17920.2 L-13081.8,-17925.3 L-13071.2,-17929.3 L-13057.7,-17933.7 L-13051.4,-17935.4 L-13040.2,-17939.1 L-13032.3,-17941.9 L-13021.4,-17946.4 L-13006.6,-17952.9 L-12990.6,-17960.4 L-12982.0,-17964.6 L-12971.2,-17970.1 L-12961.1,-17975.7 L-12951.0,-17981.7 L-12940.7,-17988.4 L-12937.5,-17990.6 L-12916.8,-18006.4 L-12899.4,-18019.8 L-12882.4,-18034.2 L-12866.5,-18049.2 L-12855.0,-18062.1 L-12843.6,-18076.0 L-12829.6,-18094.0 L-12816.8,-18112.0 L-12802.1,-18135.1 L-12792.5,-18153.0 L-12786.5,-18164.4 L-12777.6,-18183.7 L-12770.1,-18201.6 L-12763.4,-18220.9 L-12758.0,-18237.8 L-12752.1,-18265.2 L-12747.8,-18289.7 L-12745.5,-18310.7 L-12743.5,-18335.5 L-12743.3,-18362.0 L-12744.9,-18386.5 L-12749.1,-18418.5 L-12753.5,-18440.3 L-12758.5,-18460.9 L-12765.9,-18484.3 L-12772.2,-18502.2 L-12779.4,-18521.7 L-12786.2,-18537.9 L-12790.8,-18548.4 L-12792.7,-18556.1 L-12793.0,-18562.0 L-12792.4,-18567.3 L-12790.3,-18571.9 L-12787.1,-18575.8 L-12782.9,-18578.0 L-12778.4,-18578.6 L-12766.3,-18575.7 L-12732.6,-18567.6 L-12721.4,-18822.3 L-12677.7,-19276.9 L-12725.2,-19288.1 L-12730.4,-19302.4 L-12730.2,-19322.9 L-12723.6,-19369.4 L-12714.6,-19379.9 L-12706.6,-19410.1 L-12656.1,-19398.4 L-12628.3,-19688.9 L-12620.6,-19769.3 L-12636.3,-19773.2 L-12626.8,-19811.6 L-12659.1,-19819.3 L-12655.0,-19842.8 L-12649.3,-19858.3 L-12642.2,-19876.4 L-12630.2,-19901.7 L-12617.3,-19898.8 L-12599.9,-20081.5 L-12595.8,-20192.3 L-12595.0,-20212.7 L-12585.6,-20283.2 L-12566.9,-20458.9 L-12442.1,-20784.3 L-12413.6,-20873.0 L-12066.9,-21006.0 L-12033.0,-21019.6 L-12027.1,-21022.8 L-12022.5,-21027.0 L-12017.4,-21032.9 L-12013.5,-21039.8 L-12010.9,-21046.6 L-12010.3,-21056.5 L-12010.8,-21068.8 L-12015.4,-21224.3 L-12017.1,-21254.4 L-12017.6,-21275.1 L-12018.3,-21315.3 L-12019.1,-21327.9 L-12020.6,-21338.5 L-12022.7,-21347.9 L-12025.8,-21357.5 L-12030.7,-21368.8 L-12037.9,-21380.9 L-12044.9,-21390.5 L-12050.3,-21399.6 L-12055.8,-21411.7 L-12060.4,-21423.3 L-12062.2,-21432.8 L-12063.6,-21443.3 L-12064.3,-21453.8 L-12064.0,-21464.0 L-12062.8,-21475.9 L-12060.0,-21487.6 L-12056.3,-21498.0 L-12052.4,-21507.5 L-12047.4,-21516.7 L-12041.3,-21527.9 L-12037.3,-21538.0 L-12033.8,-21550.9 L-12027.4,-21560.7 L-12029.6,-21649.9 L-12032.9,-21655.1 L-12033.9,-21715.7 L-12035.6,-21787.2 L-12034.4,-21797.1 L-12031.2,-21807.2 L-12023.2,-21823.0 L-11969.7,-21938.1 L-11968.6,-21940.0 L-11959.2,-21960.5 L-11950.3,-21979.9 L-11940.3,-21999.9 L-11930.5,-22020.5 L-11925.7,-22030.5 L-11873.1,-22138.4 L-11816.9,-22257.6 L-11695.3,-22504.4 L-11768.4,-22586.3 L-11828.0,-22459.3 L-11879.5,-22349.4 L-11887.3,-22333.8 L-11903.2,-22301.3 L-11935.0,-22304.0 L-11943.7,-22304.5 L-11946.8,-22301.7 L-11942.6,-22297.9 L-11958.9,-22283.4 L-11971.8,-22271.5 L-11974.2,-22220.6 L-11979.0,-22210.4 L-11994.6,-22211.0 L-11997.2,-22211.9 L-12201.6,-22296.3 L-12206.0,-22298.6 L-12210.7,-22301.6 L-12218.1,-22307.2 L-12223.8,-22312.6 L-12228.6,-22317.8 L-12233.3,-22324.2 L-12236.9,-22329.8 L-12239.7,-22335.6 L-12241.9,-22341.7 L-12243.4,-22345.9 L-12244.5,-22351.0 L-12245.3,-22357.0 L-12246.1,-22365.2 L-12246.1,-22376.9 L-12247.5,-22416.6 L-12241.9,-22416.9 L-12242.7,-22437.9 L-12243.6,-22472.5 L-12238.4,-22472.6 L-12238.8,-22496.2 L-12244.7,-22496.1 L-12247.4,-22595.5 L-12241.8,-22595.8 L-12242.7,-22619.1 L-12248.1,-22618.9 L-12250.4,-22692.4 L-12223.4,-22721.5 L-12188.9,-22722.7 L-12163.2,-22723.6 L-12129.3,-22724.7 L-12096.7,-22725.7 L-12067.5,-22726.7 L-12054.8,-22727.3 L-12055.4,-22738.6 L-12055.6,-22750.4 L-12057.5,-22788.7 L-12058.2,-22861.8 L-12059.2,-22863.1 L-12059.4,-22870.3 L-12057.3,-22870.4 L-12062.4,-23046.5 L-12066.8,-23212.2 L-12067.5,-23217.4 L-12067.9,-23227.0 L-12140.1,-23224.4 L-12188.1,-23228.5 L-12547.4,-23216.0 L-12547.5,-23219.2 L-12548.2,-23234.5 L-12718.6,-23228.5 L-12718.9,-23256.8 L-12741.4,-23261.9 L-12745.4,-23383.0 L-12082.6,-23406.0 L-12071.6,-23421.1 L-12072.0,-23464.1 L-12072.8,-23501.3 L-12073.4,-23524.6 L-12074.3,-23547.3 L-12127.0,-23572.1 L-12129.1,-23627.2 L-12075.1,-23654.0 L-12080.0,-23781.5 L-12081.4,-23787.8 L-12135.1,-23812.9 L-12136.8,-23881.1 L-12085.8,-23907.4 L-12108.5,-24184.3 L-12102.5,-24307.5 L-12099.5,-24508.4 L-12099.7,-24726.9 L-12094.9,-24757.5 L-12094.6,-24772.3 L-12099.4,-24790.1 L-12094.4,-24790.1 L-12094.4,-24806.2 L-12091.4,-25217.2 L-12091.9,-25235.5 L-12097.6,-25235.5 L-12097.4,-25311.1 L-12100.7,-25315.8 L-12105.9,-25393.8 L-12095.6,-25465.1 L-12096.9,-25551.4 L-12100.4,-25572.1 L-12095.1,-25636.0 L-12098.7,-25713.3 L-12107.7,-25796.0 L-12124.8,-25930.0 L-12116.7,-25966.9 L-12120.3,-26002.8 L-12150.9,-26028.9 L-12195.8,-26028.5 L-12264.2,-26019.5 L-12308.7,-26019.5 L-12349.1,-26034.3 L-12402.2,-26070.7 L-12402.2,-26136.0 L-12403.6,-26216.3 L-12398.4,-26283.2 L-12380.8,-26335.4 L-12086.1,-26340.9 L-12079.3,-26758.8 L-12079.3,-27360.4 L-12082.4,-27578.7 L3829.8,-34150.4 L3829.8,2067.8 L-15882.7,2067.8 L-15882.7,-15917.7 Z" fill="#add7e1" stroke="none"><title>Biscayne Bay</title></path></svg>