<svg xmlns="http://www.w3.org/2000/svg" width="256" height="256" viewBox="0 0 256 256"><rect width="256" height="256" fill="#f1efe7"/><path d="M-3842.7,1460.6 L-3789.0,1438.2 L-3772.2,1430.2 L-3697.1,1394.1 L-3682.9,1407.7 L-3681.7,1408.9 L-3655.4,1386.4 L-3649.1,1381.6 L-3638.6,1372.1 L-3579.6,1318.0 L-3532.0,1263.5 L-3530.2,1260.1 L-3528.4,1258.1 L-3525.6,1254.9 L-3522.8,1251.7 L-3521.6,1250.4 L-3540.4,1226.1 L-3515.6,1211.2 L-3502.1,1229.1 L-3483.1,1207.3 L-3499.2,1186.0 L-3479.2,1165.2 L-3463.8,1185.4 L-3446.2,1165.3 L-3438.7,1160.4 L-3401.9,1136.5 L-3383.7,1124.4 L-3361.8,1110.0 L-3351.4,1103.2 L-3325.2,1086.3 L-3332.0,1077.4 L-3344.0,1061.2 L-3312.8,1041.4 L-3301.4,1035.5 L-3300.6,1034.9 L-3294.5,1030.3 L-3273.2,1018.8 L-3271.7,1016.5 L-3265.7,1012.4 L-3262.4,1007.6 L-3261.5,1007.0 L-3256.3,1004.9 L-3244.5,1000.7 L-3236.4,997.2 L-3207.9,983.7 L-3207.5,984.7 L-3183.6,974.4 L-3173.8,987.0 L-3152.1,972.4 L-3149.0,970.3 L-3148.7,970.1 L-3148.3,969.7 L-3147.9,968.9 L-3147.6,968.1 L-3147.5,967.2 L-3147.5,966.4 L-3147.6,965.7 L-3147.7,964.9 L-3147.7,964.2 L-3147.7,963.7 L-3147.6,963.1 L-3147.2,962.2 L-3146.9,961.6 L-3146.3,960.7 L-3145.6,959.9 L-3142.4,958.7 L-3139.8,957.7 L-3136.4,956.6 L-3134.9,956.1 L-3132.0,955.2 L-3130.1,954.5 L-3127.3,953.4 L-3123.6,951.8 L-3119.7,949.9 L-3117.5,948.9 L-3114.8,947.5 L-3112.3,946.1 L-3109.8,944.6 L-3107.2,942.9 L-3106.4,942.3 L-3101.2,938.4 L-3096.8,935.1 L-3092.6,931.4 L-3088.6,927.7 L-3085.7,924.5 L-3082.9,921.0 L-3079.4,916.5 L-3076.2,912.0 L-3072.5,906.2 L-3070.1,901.7 L-3068.6,898.9 L-3066.4,894.1 L-3064.5,889.6 L-3062.8,884.8 L-3061.5,880.6 L-3060.0,873.7 L-3058.9,867.6 L-3058.4,862.3 L-3057.9,856.1 L-3057.8,849.5 L-3058.2,843.4 L-3059.3,835.4 L-3060.4,829.9 L-3061.6,824.8 L-3063.5,818.9 L-3065.0,814.5 L-3066.8,809.6 L-3068.6,805.5 L-3069.7,802.9 L-3070.2,801.0 L-3070.2,799.5 L-3070.1,798.2 L-3069.6,797.0 L-3068.8,796.0 L-3067.7,795.5 L-3066.6,795.3 L-3063.6,796.1 L-3055.1,798.1 L-3052.4,734.4 L-3041.4,620.8 L-3053.3,618.0 L-3054.6,614.4 L-3054.5,609.3 L-3052.9,597.7 L-3050.7,595.0 L-3048.7,587.5 L-3036.0,590.4 L-3029.1,517.8 L-3027.1,497.7 L-3031.1,496.7 L-3028.7,487.1 L-3036.8,485.2 L-3035.8,479.3 L-3034.3,475.4 L-3032.5,470.9 L-3029.6,464.6 L-3026.3,465.3 L-3022.0,419.6 L-3020.9,391.9 L-3020.8,386.8 L-3018.4,369.2 L-3013.7,325.3 L-2982.5,243.9 L-2975.4,221.8 L-2888.7,188.5 L-2880.3,185.1 L-2878.8,184.3 L-2877.6,183.2 L-2876.4,181.8 L-2875.4,180.0 L-2874.7,178.4 L-2874.6,175.9 L-2874.7,172.8 L-2875.8,133.9 L-2876.3,126.4 L-2876.4,121.2 L-2876.6,111.2 L-2876.8,108.0 L-2877.2,105.4 L-2877.7,103.0 L-2878.4,100.6 L-2879.7,97.8 L-2881.5,94.8 L-2883.2,92.4 L-2884.6,90.1 L-2885.9,87.1 L-2887.1,84.2 L-2887.5,81.8 L-2887.9,79.2 L-2888.1,76.6 L-2888.0,74.0 L-2887.7,71.0 L-2887.0,68.1 L-2886.1,65.5 L-2885.1,63.1 L-2883.8,60.8 L-2882.3,58.0 L-2881.3,55.5 L-2880.5,52.3 L-2878.8,49.8 L-2879.4,27.5 L-2880.2,26.2 L-2880.5,11.1 L-2880.9,-6.8 L-2880.6,-9.3 L-2879.8,-11.8 L-2877.8,-15.7 L-2864.4,-44.5 L-2864.1,-45.0 L-2861.8,-50.1 L-2859.6,-55.0 L-2857.1,-60.0 L-2854.6,-65.1 L-2853.4,-67.6 L-2840.3,-94.6 L-2826.2,-124.4 L-2795.8,-186.1 L-2814.1,-206.6 L-2829.0,-174.8 L-2841.9,-147.4 L-2843.8,-143.5 L-2847.8,-135.3 L-2855.7,-136.0 L-2857.9,-136.1 L-2858.7,-135.4 L-2857.7,-134.5 L-2861.7,-130.8 L-2864.9,-127.9 L-2865.5,-115.1 L-2866.8,-112.6 L-2870.7,-112.7 L-2871.3,-113.0 L-2922.4,-134.1 L-2923.5,-134.6 L-2924.7,-135.4 L-2926.5,-136.8 L-2927.9,-138.1 L-2929.1,-139.5 L-2930.3,-141.0 L-2931.2,-142.5 L-2931.9,-143.9 L-2932.5,-145.4 L-2932.8,-146.5 L-2933.1,-147.8 L-2933.3,-149.3 L-2933.5,-151.3 L-2933.5,-154.2 L-2933.9,-164.2 L-2932.5,-164.2 L-2932.7,-169.5 L-2932.9,-178.1 L-2931.6,-178.1 L-2931.7,-184.1 L-2933.2,-184.0 L-2933.8,-208.9 L-2932.5,-208.9 L-2932.7,-214.8 L-2934.0,-214.7 L-2934.6,-233.1 L-2927.8,-240.4 L-2919.2,-240.7 L-2912.8,-240.9 L-2904.3,-241.2 L-2896.2,-241.4 L-2888.9,-241.7 L-2885.7,-241.8 L-2885.8,-244.7 L-2885.9,-247.6 L-2886.4,-257.2 L-2886.6,-275.4 L-2886.8,-275.8 L-2886.8,-277.6 L-2886.3,-277.6 L-2887.6,-321.6 L-2888.7,-363.0 L-2888.9,-364.4 L-2889.0,-366.7 L-2907.0,-366.1 L-2919.0,-367.1 L-3008.8,-364.0 L-3008.9,-364.8 L-3009.0,-368.6 L-3051.6,-367.1 L-3051.7,-374.2 L-3057.3,-375.5 L-3058.4,-405.8 L-2892.6,-411.5 L-2889.9,-415.3 L-2890.0,-426.0 L-2890.2,-435.3 L-2890.4,-441.1 L-2890.6,-446.8 L-2903.8,-453.0 L-2904.3,-466.8 L-2890.8,-473.5 L-2892.0,-505.4 L-2892.4,-506.9 L-2905.8,-513.2 L-2906.2,-530.3 L-2893.5,-536.8 L-2899.1,-606.1 L-2897.6,-636.9 L-2896.9,-687.1 L-2896.9,-741.7 L-2895.7,-749.4 L-2895.7,-753.1 L-2896.9,-757.5 L-2895.6,-757.5 L-2895.6,-761.6 L-2894.9,-864.3 L-2895.0,-868.9 L-2896.4,-868.9 L-2896.4,-887.8 L-2897.2,-889.0 L-2898.5,-908.5 L-2895.9,-926.3 L-2896.2,-947.9 L-2897.1,-953.0 L-2895.8,-969.0 L-2896.7,-988.3 L-2898.9,-1009.0 L-2903.2,-1042.5 L-2901.2,-1051.7 L-2902.1,-1060.7 L-2909.7,-1067.2 L-2921.0,-1067.1 L-2938.0,-1064.9 L-2949.2,-1064.9 L-2959.3,-1068.6 L-2972.5,-1077.7 L-2972.5,-1094.0 L-2972.9,-1114.1 L-2971.6,-1130.8 L-2967.2,-1143.8 L-2893.5,-1145.2 L-2891.8,-1249.7 L-2891.8,-1400.1 L-2892.6,-1454.7 L1085.4,-3097.6 L1085.4,5956.9 L-3842.7,5956.9 L-3842.7,1460.6 Z" fill="#add7e1" stroke="none"><title>Biscayne Bay</title></path><path d="M-1258.7,748.3 L-895.2,536.2 L-1016.4,189.4 L-1081.6,-597.2 L-1081.6,-1213.2 L-1752.7,-1834.3 L130.1,-2414.2 L139.4,-1596.2 L-14.4,-871.5 L-154.2,-95.2 L-247.4,525.8 L-443.2,748.3 L-1258.7,748.3 Z" fill="#f1efe7" stroke="#8ab09d" stroke-width="0.65"><title>Miami Beach</title></path></svg>