<svg xmlns="http://www.w3.org/2000/svg" width="256" height="256" viewBox="0 0 256 256"><rect width="256" height="256" fill="#f1efe7"/><path d="M-3842.7,692.6 L-3789.0,670.2 L-3772.2,662.2 L-3697.1,626.1 L-3682.9,639.7 L-3681.7,640.9 L-3655.4,618.4 L-3649.1,613.6 L-3638.6,604.1 L-3579.6,550.0 L-3532.0,495.5 L-3530.2,492.1 L-3528.4,490.1 L-3525.6,486.9 L-3522.8,483.7 L-3521.6,482.4 L-3540.4,458.1 L-3515.6,443.2 L-3502.1,461.1 L-3483.1,439.3 L-3499.2,418.0 L-3479.2,397.2 L-3463.8,417.4 L-3446.2,397.3 L-3438.7,392.4 L-3401.9,368.5 L-3383.7,356.4 L-3361.8,342.0 L-3351.4,335.2 L-3325.2,318.3 L-3332.0,309.4 L-3344.0,293.2 L-3312.8,273.4 L-3301.4,267.5 L-3300.6,266.9 L-3294.5,262.3 L-3273.2,250.8 L-3271.7,248.5 L-3265.7,244.4 L-3262.4,239.6 L-3261.5,239.0 L-3256.3,236.9 L-3244.5,232.7 L-3236.4,229.2 L-3207.9,215.7 L-3207.5,216.7 L-3183.6,206.4 L-3173.8,219.0 L-3152.1,204.4 L-3149.0,202.3 L-3148.7,202.1 L-3148.3,201.7 L-3147.9,200.9 L-3147.6,200.1 L-3147.5,199.2 L-3147.5,198.4 L-3147.6,197.7 L-3147.7,196.9 L-3147.7,196.2 L-3147.7,195.7 L-3147.6,195.1 L-3147.2,194.2 L-3146.9,193.6 L-3146.3,192.7 L-3145.6,191.9 L-3142.4,190.7 L-3139.8,189.7 L-3136.4,188.6 L-3134.9,188.1 L-3132.0,187.2 L-3130.1,186.5 L-3127.3,185.4 L-3123.6,183.8 L-3119.7,181.9 L-3117.5,180.9 L-3114.8,179.5 L-3112.3,178.1 L-3109.8,176.6 L-3107.2,174.9 L-3106.4,174.3 L-3101.2,170.4 L-3096.8,167.1 L-3092.6,163.4 L-3088.6,159.7 L-3085.7,156.5 L-3082.9,153.0 L-3079.4,148.5 L-3076.2,144.0 L-3072.5,138.2 L-3070.1,133.7 L-3068.6,130.9 L-3066.4,126.1 L-3064.5,121.6 L-3062.8,116.8 L-3061.5,112.6 L-3060.0,105.7 L-3058.9,99.6 L-3058.4,94.3 L-3057.9,88.1 L-3057.8,81.5 L-3058.2,75.4 L-3059.3,67.4 L-3060.4,61.9 L-3061.6,56.8 L-3063.5,50.9 L-3065.0,46.5 L-3066.8,41.6 L-3068.6,37.5 L-3069.7,34.9 L-3070.2,33.0 L-3070.2,31.5 L-3070.1,30.2 L-3069.6,29.0 L-3068.8,28.0 L-3067.7,27.5 L-3066.6,27.3 L-3063.6,28.1 L-3055.1,30.1 L-3052.4,-33.6 L-3041.4,-147.2 L-3053.3,-150.0 L-3054.6,-153.6 L-3054.5,-158.7 L-3052.9,-170.3 L-3050.7,-173.0 L-3048.7,-180.5 L-3036.0,-177.6 L-3029.1,-250.2 L-3027.1,-270.3 L-3031.1,-271.3 L-3028.7,-280.9 L-3036.8,-282.8 L-3035.8,-288.7 L-3034.3,-292.6 L-3032.5,-297.1 L-3029.6,-303.4 L-3026.3,-302.7 L-3022.0,-348.4 L-3020.9,-376.1 L-3020.8,-381.2 L-3018.4,-398.8 L-3013.7,-442.7 L-2982.5,-524.1 L-2975.4,-546.2 L-2888.7,-579.5 L-2880.3,-582.9 L-2878.8,-583.7 L-2877.6,-584.8 L-2876.4,-586.2 L-2875.4,-588.0 L-2874.7,-589.6 L-2874.6,-592.1 L-2874.7,-595.2 L-2875.8,-634.1 L-2876.3,-641.6 L-2876.4,-646.8 L-2876.6,-656.8 L-2876.8,-660.0 L-2877.2,-662.6 L-2877.7,-665.0 L-2878.4,-667.4 L-2879.7,-670.2 L-2881.5,-673.2 L-2883.2,-675.6 L-2884.6,-677.9 L-2885.9,-680.9 L-2887.1,-683.8 L-2887.5,-686.2 L-2887.9,-688.8 L-2888.1,-691.4 L-2888.0,-694.0 L-2887.7,-697.0 L-2887.0,-699.9 L-2886.1,-702.5 L-2885.1,-704.9 L-2883.8,-707.2 L-2882.3,-710.0 L-2881.3,-712.5 L-2880.5,-715.7 L-2878.8,-718.2 L-2879.4,-740.5 L-2880.2,-741.8 L-2880.5,-756.9 L-2880.9,-774.8 L-2880.6,-777.3 L-2879.8,-779.8 L-2877.8,-783.7 L-2864.4,-812.5 L-2864.1,-813.0 L-2861.8,-818.1 L-2859.6,-823.0 L-2857.1,-828.0 L-2854.6,-833.1 L-2853.4,-835.6 L-2840.3,-862.6 L-2826.2,-892.4 L-2795.8,-954.1 L-2814.1,-974.6 L-2829.0,-942.8 L-2841.9,-915.4 L-2843.8,-911.5 L-2847.8,-903.3 L-2855.7,-904.0 L-2857.9,-904.1 L-2858.7,-903.4 L-2857.7,-902.5 L-2861.7,-898.8 L-2864.9,-895.9 L-2865.5,-883.1 L-2866.8,-880.6 L-2870.7,-880.7 L-2871.3,-881.0 L-2922.4,-902.1 L-2923.5,-902.6 L-2924.7,-903.4 L-2926.5,-904.8 L-2927.9,-906.1 L-2929.1,-907.5 L-2930.3,-909.0 L-2931.2,-910.5 L-2931.9,-911.9 L-2932.5,-913.4 L-2932.8,-914.5 L-2933.1,-915.8 L-2933.3,-917.3 L-2933.5,-919.3 L-2933.5,-922.2 L-2933.9,-932.2 L-2932.5,-932.2 L-2932.7,-937.5 L-2932.9,-946.1 L-2931.6,-946.1 L-2931.7,-952.1 L-2933.2,-952.0 L-2933.8,-976.9 L-2932.5,-976.9 L-2932.7,-982.8 L-2934.0,-982.7 L-2934.6,-1001.1 L-2927.8,-1008.4 L-2919.2,-1008.7 L-2912.8,-1008.9 L-2904.3,-1009.2 L-2896.2,-1009.4 L-2888.9,-1009.7 L-2885.7,-1009.8 L-2885.8,-1012.7 L-2885.9,-1015.6 L-2886.4,-1025.2 L-2886.6,-1043.4 L-2886.8,-1043.8 L-2886.8,-1045.6 L-2886.3,-1045.6 L-2887.6,-1089.6 L-2888.7,-1131.0 L-2888.9,-1132.4 L-2889.0,-1134.7 L-2907.0,-1134.1 L-2919.0,-1135.1 L-3008.8,-1132.0 L-3008.9,-1132.8 L-3009.0,-1136.6 L-3051.6,-1135.1 L-3051.7,-1142.2 L-3057.3,-1143.5 L-3058.4,-1173.8 L-2892.6,-1179.5 L-2889.9,-1183.3 L-2890.0,-1194.0 L-2890.2,-1203.3 L-2890.4,-1209.1 L-2890.6,-1214.8 L-2903.8,-1221.0 L-2904.3,-1234.8 L-2890.8,-1241.5 L-2892.0,-1273.4 L-2892.4,-1274.9 L-2905.8,-1281.2 L-2906.2,-1298.3 L-2893.5,-1304.8 L-2899.1,-1374.1 L-2897.6,-1404.9 L-2896.9,-1455.1 L-2896.9,-1509.7 L-2895.7,-1517.4 L-2895.7,-1521.1 L-2896.9,-1525.5 L-2895.6,-1525.5 L-2895.6,-1529.6 L-2894.9,-1632.3 L-2895.0,-1636.9 L-2896.4,-1636.9 L-2896.4,-1655.8 L-2897.2,-1657.0 L-2898.5,-1676.5 L-2895.9,-1694.3 L-2896.2,-1715.9 L-2897.1,-1721.0 L-2895.8,-1737.0 L-2896.7,-1756.3 L-2898.9,-1777.0 L-2903.2,-1810.5 L-2901.2,-1819.7 L-2902.1,-1828.7 L-2909.7,-1835.2 L-2921.0,-1835.1 L-2938.0,-1832.9 L-2949.2,-1832.9 L-2959.3,-1836.6 L-2972.5,-1845.7 L-2972.5,-1862.0 L-2972.9,-1882.1 L-2971.6,-1898.8 L-2967.2,-1911.8 L-2893.5,-1913.2 L-2891.8,-2017.7 L-2891.8,-2168.1 L-2892.6,-2222.7 L1085.4,-3865.6 L1085.4,5188.9 L-3842.7,5188.9 L-3842.7,692.6 Z" fill="#add7e1" stroke="none"><title>Biscayne Bay</title></path><path d="M-429.5,-154.3 L404.7,221.5" fill="none" stroke="#6fb5c7" stroke-width="1.2" stroke-dasharray="5 7" opacity="0.34" stroke-linecap="round" stroke-linejoin="round"><title>Government Cut</title></path></svg>