<svg xmlns="http://www.w3.org/2000/svg" width="256" height="256" viewBox="0 0 256 256"><rect width="256" height="256" fill="#f1efe7"/><path d="M-4866.7,-1099.4 L-4813.0,-1121.8 L-4796.2,-1129.8 L-4721.1,-1165.9 L-4706.9,-1152.3 L-4705.7,-1151.1 L-4679.4,-1173.6 L-4673.1,-1178.4 L-4662.6,-1187.9 L-4603.6,-1242.0 L-4556.0,-1296.5 L-4554.2,-1299.9 L-4552.4,-1301.9 L-4549.6,-1305.1 L-4546.8,-1308.3 L-4545.6,-1309.6 L-4564.4,-1333.9 L-4539.6,-1348.8 L-4526.1,-1330.9 L-4507.1,-1352.7 L-4523.2,-1374.0 L-4503.2,-1394.8 L-4487.8,-1374.6 L-4470.2,-1394.7 L-4462.7,-1399.6 L-4425.9,-1423.5 L-4407.7,-1435.6 L-4385.8,-1450.0 L-4375.4,-1456.8 L-4349.2,-1473.7 L-4356.0,-1482.6 L-4368.0,-1498.8 L-4336.8,-1518.6 L-4325.4,-1524.5 L-4324.6,-1525.1 L-4318.5,-1529.7 L-4297.2,-1541.2 L-4295.7,-1543.5 L-4289.7,-1547.6 L-4286.4,-1552.4 L-4285.5,-1553.0 L-4280.3,-1555.1 L-4268.5,-1559.3 L-4260.4,-1562.8 L-4231.9,-1576.3 L-4231.5,-1575.3 L-4207.6,-1585.6 L-4197.8,-1573.0 L-4176.1,-1587.6 L-4173.0,-1589.7 L-4172.7,-1589.9 L-4172.3,-1590.3 L-4171.9,-1591.1 L-4171.6,-1591.9 L-4171.5,-1592.8 L-4171.5,-1593.6 L-4171.6,-1594.3 L-4171.7,-1595.1 L-4171.7,-1595.8 L-4171.7,-1596.3 L-4171.6,-1596.9 L-4171.2,-1597.8 L-4170.9,-1598.4 L-4170.3,-1599.3 L-4169.6,-1600.1 L-4166.4,-1601.3 L-4163.8,-1602.3 L-4160.4,-1603.4 L-4158.9,-1603.9 L-4156.0,-1604.8 L-4154.1,-1605.5 L-4151.3,-1606.6 L-4147.6,-1608.2 L-4143.7,-1610.1 L-4141.5,-1611.1 L-4138.8,-1612.5 L-4136.3,-1613.9 L-4133.8,-1615.4 L-4131.2,-1617.1 L-4130.4,-1617.7 L-4125.2,-1621.6 L-4120.8,-1624.9 L-4116.6,-1628.6 L-4112.6,-1632.3 L-4109.7,-1635.5 L-4106.9,-1639.0 L-4103.4,-1643.5 L-4100.2,-1648.0 L-4096.5,-1653.8 L-4094.1,-1658.3 L-4092.6,-1661.1 L-4090.4,-1665.9 L-4088.5,-1670.4 L-4086.8,-1675.2 L-4085.5,-1679.4 L-4084.0,-1686.3 L-4082.9,-1692.4 L-4082.4,-1697.7 L-4081.9,-1703.9 L-4081.8,-1710.5 L-4082.2,-1716.6 L-4083.3,-1724.6 L-4084.4,-1730.1 L-4085.6,-1735.2 L-4087.5,-1741.1 L-4089.0,-1745.5 L-4090.8,-1750.4 L-4092.6,-1754.5 L-4093.7,-1757.1 L-4094.2,-1759.0 L-4094.2,-1760.5 L-4094.1,-1761.8 L-4093.6,-1763.0 L-4092.8,-1764.0 L-4091.7,-1764.5 L-4090.6,-1764.7 L-4087.6,-1763.9 L-4079.1,-1761.9 L-4076.4,-1825.6 L-4065.4,-1939.2 L-4077.3,-1942.0 L-4078.6,-1945.6 L-4078.5,-1950.7 L-4076.9,-1962.3 L-4074.7,-1965.0 L-4072.7,-1972.5 L-4060.0,-1969.6 L-4053.1,-2042.2 L-4051.1,-2062.3 L-4055.1,-2063.3 L-4052.7,-2072.9 L-4060.8,-2074.8 L-4059.8,-2080.7 L-4058.3,-2084.6 L-4056.5,-2089.1 L-4053.6,-2095.4 L-4050.3,-2094.7 L-4046.0,-2140.4 L-4044.9,-2168.1 L-4044.8,-2173.2 L-4042.4,-2190.8 L-4037.7,-2234.7 L-4006.5,-2316.1 L-3999.4,-2338.2 L-3912.7,-2371.5 L-3904.3,-2374.9 L-3902.8,-2375.7 L-3901.6,-2376.8 L-3900.4,-2378.2 L-3899.4,-2380.0 L-3898.7,-2381.6 L-3898.6,-2384.1 L-3898.7,-2387.2 L-3899.8,-2426.1 L-3900.3,-2433.6 L-3900.4,-2438.8 L-3900.6,-2448.8 L-3900.8,-2452.0 L-3901.2,-2454.6 L-3901.7,-2457.0 L-3902.4,-2459.4 L-3903.7,-2462.2 L-3905.5,-2465.2 L-3907.2,-2467.6 L-3908.6,-2469.9 L-3909.9,-2472.9 L-3911.1,-2475.8 L-3911.5,-2478.2 L-3911.9,-2480.8 L-3912.1,-2483.4 L-3912.0,-2486.0 L-3911.7,-2489.0 L-3911.0,-2491.9 L-3910.1,-2494.5 L-3909.1,-2496.9 L-3907.8,-2499.2 L-3906.3,-2502.0 L-3905.3,-2504.5 L-3904.5,-2507.7 L-3902.8,-2510.2 L-3903.4,-2532.5 L-3904.2,-2533.8 L-3904.5,-2548.9 L-3904.9,-2566.8 L-3904.6,-2569.3 L-3903.8,-2571.8 L-3901.8,-2575.7 L-3888.4,-2604.5 L-3888.1,-2605.0 L-3885.8,-2610.1 L-3883.6,-2615.0 L-3881.1,-2620.0 L-3878.6,-2625.1 L-3877.4,-2627.6 L-3864.3,-2654.6 L-3850.2,-2684.4 L-3819.8,-2746.1 L-3838.1,-2766.6 L-3853.0,-2734.8 L-3865.9,-2707.4 L-3867.8,-2703.5 L-3871.8,-2695.3 L-3879.7,-2696.0 L-3881.9,-2696.1 L-3882.7,-2695.4 L-3881.7,-2694.5 L-3885.7,-2690.8 L-3888.9,-2687.9 L-3889.5,-2675.1 L-3890.8,-2672.6 L-3894.7,-2672.7 L-3895.3,-2673.0 L-3946.4,-2694.1 L-3947.5,-2694.6 L-3948.7,-2695.4 L-3950.5,-2696.8 L-3951.9,-2698.1 L-3953.1,-2699.5 L-3954.3,-2701.0 L-3955.2,-2702.5 L-3955.9,-2703.9 L-3956.5,-2705.4 L-3956.8,-2706.5 L-3957.1,-2707.8 L-3957.3,-2709.3 L-3957.5,-2711.3 L-3957.5,-2714.2 L-3957.9,-2724.2 L-3956.5,-2724.2 L-3956.7,-2729.5 L-3956.9,-2738.1 L-3955.6,-2738.1 L-3955.7,-2744.1 L-3957.2,-2744.0 L-3957.8,-2768.9 L-3956.5,-2768.9 L-3956.7,-2774.8 L-3958.0,-2774.7 L-3958.6,-2793.1 L-3951.8,-2800.4 L-3943.2,-2800.7 L-3936.8,-2800.9 L-3928.3,-2801.2 L-3920.2,-2801.4 L-3912.9,-2801.7 L-3909.7,-2801.8 L-3909.8,-2804.7 L-3909.9,-2807.6 L-3910.4,-2817.2 L-3910.6,-2835.4 L-3910.8,-2835.8 L-3910.8,-2837.6 L-3910.3,-2837.6 L-3911.6,-2881.6 L-3912.7,-2923.0 L-3912.9,-2924.4 L-3913.0,-2926.7 L-3931.0,-2926.1 L-3943.0,-2927.1 L-4032.8,-2924.0 L-4032.9,-2924.8 L-4033.0,-2928.6 L-4075.6,-2927.1 L-4075.7,-2934.2 L-4081.3,-2935.5 L-4082.4,-2965.8 L-3916.6,-2971.5 L-3913.9,-2975.3 L-3914.0,-2986.0 L-3914.2,-2995.3 L-3914.4,-3001.1 L-3914.6,-3006.8 L-3927.8,-3013.0 L-3928.3,-3026.8 L-3914.8,-3033.5 L-3916.0,-3065.4 L-3916.4,-3066.9 L-3929.8,-3073.2 L-3930.2,-3090.3 L-3917.5,-3096.8 L-3923.1,-3166.1 L-3921.6,-3196.9 L-3920.9,-3247.1 L-3920.9,-3301.7 L-3919.7,-3309.4 L-3919.7,-3313.1 L-3920.9,-3317.5 L-3919.6,-3317.5 L-3919.6,-3321.6 L-3918.9,-3424.3 L-3919.0,-3428.9 L-3920.4,-3428.9 L-3920.4,-3447.8 L-3921.2,-3449.0 L-3922.5,-3468.5 L-3919.9,-3486.3 L-3920.2,-3507.9 L-3921.1,-3513.0 L-3919.8,-3529.0 L-3920.7,-3548.3 L-3922.9,-3569.0 L-3927.2,-3602.5 L-3925.2,-3611.7 L-3926.1,-3620.7 L-3933.7,-3627.2 L-3945.0,-3627.1 L-3962.0,-3624.9 L-3973.2,-3624.9 L-3983.3,-3628.6 L-3996.5,-3637.7 L-3996.5,-3654.0 L-3996.9,-3674.1 L-3995.6,-3690.8 L-3991.2,-3703.8 L-3917.5,-3705.2 L-3915.8,-3809.7 L-3915.8,-3960.1 L-3916.6,-4014.7 L61.4,-5657.6 L61.4,3396.9 L-4866.7,3396.9 L-4866.7,-1099.4 Z" fill="#add7e1" stroke="none"><title>Biscayne Bay</title></path></svg>