<svg xmlns="http://www.w3.org/2000/svg" width="256" height="256" viewBox="0 0 256 256"><rect width="256" height="256" fill="#f1efe7"/><path d="M-522.7,-10285.7 L-307.9,-10375.0 L-240.7,-10407.3 L59.8,-10551.6 L116.2,-10497.0 L121.1,-10492.3 L226.5,-10582.5 L251.6,-10601.6 L293.5,-10639.4 L529.6,-10856.2 L720.1,-11073.8 L727.4,-11087.7 L734.4,-11095.6 L745.5,-11108.3 L756.8,-11121.2 L761.4,-11126.5 L686.3,-11223.6 L785.7,-11283.2 L839.6,-11211.5 L915.8,-11298.7 L851.3,-11384.1 L931.2,-11467.4 L992.7,-11386.4 L1063.3,-11466.8 L1093.4,-11486.5 L1240.6,-11582.0 L1313.3,-11630.3 L1400.9,-11687.9 L1442.3,-11715.1 L1547.2,-11782.8 L1520.2,-11818.3 L1471.9,-11883.0 L1596.8,-11962.4 L1642.3,-11985.9 L1645.8,-11988.4 L1669.8,-12006.9 L1755.4,-12052.7 L1761.3,-12061.9 L1785.3,-12078.4 L1798.3,-12097.4 L1802.0,-12100.2 L1822.9,-12108.3 L1870.1,-12125.2 L1902.4,-12139.4 L2016.5,-12193.0 L2017.9,-12189.3 L2113.6,-12230.2 L2152.7,-12180.1 L2239.8,-12238.2 L2252.2,-12246.7 L2253.4,-12247.7 L2254.6,-12249.3 L2256.5,-12252.6 L2257.5,-12255.7 L2258.1,-12259.4 L2258.0,-12262.4 L2257.6,-12265.3 L2257.2,-12268.6 L2257.1,-12271.1 L2257.3,-12273.2 L2257.7,-12275.4 L2259.3,-12279.4 L2260.4,-12281.6 L2262.9,-12285.4 L2265.5,-12288.2 L2278.2,-12293.3 L2288.8,-12297.3 L2302.3,-12301.7 L2308.6,-12303.4 L2319.8,-12307.1 L2327.7,-12309.9 L2338.6,-12314.4 L2353.4,-12320.9 L2369.4,-12328.4 L2378.0,-12332.6 L2388.8,-12338.1 L2398.9,-12343.7 L2409.0,-12349.7 L2419.3,-12356.4 L2422.5,-12358.6 L2443.2,-12374.4 L2460.6,-12387.8 L2477.6,-12402.2 L2493.5,-12417.2 L2505.0,-12430.1 L2516.4,-12444.0 L2530.4,-12462.0 L2543.2,-12480.0 L2557.9,-12503.1 L2567.5,-12521.0 L2573.5,-12532.4 L2582.4,-12551.7 L2589.9,-12569.6 L2596.6,-12588.9 L2602.0,-12605.8 L2607.9,-12633.2 L2612.2,-12657.7 L2614.5,-12678.7 L2616.5,-12703.5 L2616.7,-12730.0 L2615.1,-12754.5 L2610.9,-12786.5 L2606.5,-12808.3 L2601.5,-12828.9 L2594.1,-12852.3 L2587.8,-12870.2 L2580.6,-12889.7 L2573.8,-12905.9 L2569.2,-12916.4 L2567.3,-12924.1 L2567.0,-12930.0 L2567.6,-12935.3 L2569.7,-12939.9 L2572.9,-12943.8 L2577.1,-12946.0 L2581.6,-12946.6 L2593.7,-12943.7 L2627.4,-12935.6 L2638.6,-13190.3 L2682.3,-13644.9 L2634.8,-13656.1 L2629.6,-13670.4 L2629.8,-13690.9 L2636.4,-13737.4 L2645.4,-13747.9 L2653.4,-13778.1 L2703.9,-13766.4 L2731.7,-14056.9 L2739.4,-14137.3 L2723.7,-14141.2 L2733.2,-14179.6 L2700.9,-14187.3 L2705.0,-14210.8 L2710.7,-14226.3 L2717.8,-14244.4 L2729.8,-14269.7 L2742.7,-14266.8 L2760.1,-14449.5 L2764.2,-14560.3 L2765.0,-14580.7 L2774.4,-14651.2 L2793.1,-14826.9 L2917.9,-15152.3 L2946.4,-15241.0 L3293.1,-15374.0 L3327.0,-15387.6 L3332.9,-15390.8 L3337.5,-15395.0 L3342.6,-15400.9 L3346.5,-15407.8 L3349.1,-15414.6 L3349.7,-15424.5 L3349.2,-15436.8 L3344.6,-15592.3 L3342.9,-15622.4 L3342.4,-15643.1 L3341.7,-15683.3 L3340.9,-15695.9 L3339.4,-15706.5 L3337.3,-15715.9 L3334.2,-15725.5 L3329.3,-15736.8 L3322.1,-15748.9 L3315.1,-15758.5 L3309.7,-15767.6 L3304.2,-15779.7 L3299.6,-15791.3 L3297.8,-15800.8 L3296.4,-15811.3 L3295.7,-15821.8 L3296.0,-15832.0 L3297.2,-15843.9 L3300.0,-15855.6 L3303.7,-15866.0 L3307.6,-15875.5 L3312.6,-15884.7 L3318.7,-15895.9 L3322.7,-15906.0 L3326.2,-15918.9 L3332.6,-15928.7 L3330.4,-16017.9 L3327.1,-16023.1 L3326.1,-16083.7 L3324.4,-16155.2 L3325.6,-16165.1 L3328.8,-16175.2 L3336.8,-16191.0 L3390.3,-16306.1 L3391.4,-16308.0 L3400.8,-16328.5 L3409.7,-16347.9 L3419.7,-16367.9 L3429.5,-16388.5 L3434.3,-16398.5 L3486.9,-16506.4 L3543.1,-16625.6 L3664.7,-16872.4 L3591.6,-16954.3 L3532.0,-16827.3 L3480.5,-16717.4 L3472.7,-16701.8 L3456.8,-16669.3 L3425.0,-16672.0 L3416.3,-16672.5 L3413.2,-16669.7 L3417.4,-16665.9 L3401.1,-16651.4 L3388.2,-16639.5 L3385.8,-16588.6 L3381.0,-16578.4 L3365.4,-16579.0 L3362.8,-16579.9 L3158.4,-16664.3 L3154.0,-16666.6 L3149.3,-16669.6 L3141.9,-16675.2 L3136.2,-16680.6 L3131.4,-16685.8 L3126.7,-16692.2 L3123.1,-16697.8 L3120.3,-16703.6 L3118.1,-16709.7 L3116.6,-16713.9 L3115.5,-16719.0 L3114.7,-16725.0 L3113.9,-16733.2 L3113.9,-16744.9 L3112.5,-16784.6 L3118.1,-16784.9 L3117.3,-16805.9 L3116.4,-16840.5 L3121.6,-16840.6 L3121.2,-16864.2 L3115.3,-16864.1 L3112.6,-16963.5 L3118.2,-16963.8 L3117.3,-16987.1 L3111.9,-16986.9 L3109.6,-17060.4 L3136.6,-17089.5 L3171.1,-17090.7 L3196.8,-17091.6 L3230.7,-17092.7 L3263.3,-17093.7 L3292.5,-17094.7 L3305.2,-17095.3 L3304.6,-17106.6 L3304.4,-17118.4 L3302.5,-17156.7 L3301.8,-17229.8 L3300.8,-17231.1 L3300.6,-17238.3 L3302.7,-17238.4 L3297.6,-17414.5 L3293.2,-17580.2 L3292.5,-17585.4 L3292.1,-17595.0 L3219.9,-17592.4 L3171.9,-17596.5 L2812.6,-17584.0 L2812.5,-17587.2 L2811.8,-17602.5 L2641.4,-17596.5 L2641.1,-17624.8 L2618.6,-17629.9 L2614.6,-17751.0 L3277.4,-17774.0 L3288.4,-17789.1 L3288.0,-17832.1 L3287.2,-17869.3 L3286.6,-17892.6 L3285.7,-17915.3 L3233.0,-17940.1 L3230.9,-17995.2 L3284.9,-18022.0 L3280.0,-18149.5 L3278.6,-18155.8 L3224.9,-18180.9 L3223.2,-18249.1 L3274.2,-18275.4 L3251.5,-18552.3 L3257.5,-18675.5 L3260.5,-18876.4 L3260.3,-19094.9 L3265.1,-19125.5 L3265.4,-19140.3 L3260.6,-19158.1 L3265.6,-19158.1 L3265.6,-19174.2 L3268.6,-19585.2 L3268.1,-19603.5 L3262.4,-19603.5 L3262.6,-19679.1 L3259.3,-19683.8 L3254.1,-19761.8 L3264.4,-19833.1 L3263.1,-19919.4 L3259.6,-19940.1 L3264.9,-20004.0 L3261.3,-20081.3 L3252.3,-20164.0 L3235.2,-20298.0 L3243.3,-20334.9 L3239.7,-20370.8 L3209.1,-20396.9 L3164.2,-20396.5 L3095.8,-20387.5 L3051.3,-20387.5 L3010.9,-20402.3 L2957.8,-20438.7 L2957.8,-20504.0 L2956.4,-20584.3 L2961.6,-20651.2 L2979.2,-20703.4 L3273.9,-20708.9 L3280.7,-21126.8 L3280.7,-21728.4 L3277.6,-21946.7 L19189.8,-28518.4 L19189.8,7699.8 L-522.7,7699.8 L-522.7,-10285.7 Z" fill="#add7e1" stroke="none"><title>Biscayne Bay</title></path></svg>