<svg xmlns="http://www.w3.org/2000/svg" width="256" height="256" viewBox="0 0 256 256"><defs><pattern id="park-dots" width="22" height="22" patternUnits="userSpaceOnUse"><circle cx="5" cy="5" r="2.1" fill="#63a95d" fill-opacity="0.26"/><circle cx="16" cy="7" r="1.55" fill="#76b970" fill-opacity="0.23"/><circle cx="10" cy="17" r="1.9" fill="#61a65b" fill-opacity="0.24"/><circle cx="21" cy="17" r="1.25" fill="#80c174" fill-opacity="0.18"/><circle cx="1" cy="19" r="1.2" fill="#70b46a" fill-opacity="0.17"/></pattern><pattern id="park-canopy" width="54" height="48" patternUnits="userSpaceOnUse"><circle cx="12" cy="11" r="3.6" fill="#5ea75a" fill-opacity="0.22"/><circle cx="31" cy="15" r="2.9" fill="#75ba6d" fill-opacity="0.18"/><circle cx="45" cy="31" r="3.3" fill="#67ae62" fill-opacity="0.20"/><circle cx="19" cy="39" r="2.5" fill="#83c378" fill-opacity="0.16"/></pattern></defs><rect width="256" height="256" fill="#f1efe7"/><path d="M-9738.7,-7981.7 L-9523.9,-8071.0 L-9456.7,-8103.3 L-9156.2,-8247.6 L-9099.8,-8193.0 L-9094.9,-8188.3 L-8989.5,-8278.5 L-8964.4,-8297.6 L-8922.5,-8335.4 L-8686.4,-8552.2 L-8495.9,-8769.8 L-8488.6,-8783.7 L-8481.6,-8791.6 L-8470.5,-8804.3 L-8459.2,-8817.2 L-8454.6,-8822.5 L-8529.7,-8919.6 L-8430.3,-8979.2 L-8376.4,-8907.5 L-8300.2,-8994.7 L-8364.7,-9080.1 L-8284.8,-9163.4 L-8223.3,-9082.4 L-8152.7,-9162.8 L-8122.6,-9182.5 L-7975.4,-9278.0 L-7902.7,-9326.3 L-7815.1,-9383.9 L-7773.7,-9411.1 L-7668.8,-9478.8 L-7695.8,-9514.3 L-7744.1,-9579.0 L-7619.2,-9658.4 L-7573.7,-9681.9 L-7570.2,-9684.4 L-7546.2,-9702.9 L-7460.6,-9748.7 L-7454.7,-9757.9 L-7430.7,-9774.4 L-7417.7,-9793.4 L-7414.0,-9796.2 L-7393.1,-9804.3 L-7345.9,-9821.2 L-7313.6,-9835.4 L-7199.5,-9889.0 L-7198.1,-9885.3 L-7102.4,-9926.2 L-7063.3,-9876.1 L-6976.2,-9934.2 L-6963.8,-9942.7 L-6962.6,-9943.7 L-6961.4,-9945.3 L-6959.5,-9948.6 L-6958.5,-9951.7 L-6957.9,-9955.4 L-6958.0,-9958.4 L-6958.4,-9961.3 L-6958.8,-9964.6 L-6958.9,-9967.1 L-6958.7,-9969.2 L-6958.3,-9971.4 L-6956.7,-9975.4 L-6955.6,-9977.6 L-6953.1,-9981.4 L-6950.5,-9984.2 L-6937.8,-9989.3 L-6927.2,-9993.3 L-6913.7,-9997.7 L-6907.4,-9999.4 L-6896.2,-10003.1 L-6888.3,-10005.9 L-6877.4,-10010.4 L-6862.6,-10016.9 L-6846.6,-10024.4 L-6838.0,-10028.6 L-6827.2,-10034.1 L-6817.1,-10039.7 L-6807.0,-10045.7 L-6796.7,-10052.4 L-6793.5,-10054.6 L-6772.8,-10070.4 L-6755.4,-10083.8 L-6738.4,-10098.2 L-6722.5,-10113.2 L-6711.0,-10126.1 L-6699.6,-10140.0 L-6685.6,-10158.0 L-6672.8,-10176.0 L-6658.1,-10199.1 L-6648.5,-10217.0 L-6642.5,-10228.4 L-6633.6,-10247.7 L-6626.1,-10265.6 L-6619.4,-10284.9 L-6614.0,-10301.8 L-6608.1,-10329.2 L-6603.8,-10353.7 L-6601.5,-10374.7 L-6599.5,-10399.5 L-6599.3,-10426.0 L-6600.9,-10450.5 L-6605.1,-10482.5 L-6609.5,-10504.3 L-6614.5,-10524.9 L-6621.9,-10548.3 L-6628.2,-10566.2 L-6635.4,-10585.7 L-6642.2,-10601.9 L-6646.8,-10612.4 L-6648.7,-10620.1 L-6649.0,-10626.0 L-6648.4,-10631.3 L-6646.3,-10635.9 L-6643.1,-10639.8 L-6638.9,-10642.0 L-6634.4,-10642.6 L-6622.3,-10639.7 L-6588.6,-10631.6 L-6577.4,-10886.3 L-6533.7,-11340.9 L-6581.2,-11352.1 L-6586.4,-11366.4 L-6586.2,-11386.9 L-6579.6,-11433.4 L-6570.6,-11443.9 L-6562.6,-11474.1 L-6512.1,-11462.4 L-6484.3,-11752.9 L-6476.6,-11833.3 L-6492.3,-11837.2 L-6482.8,-11875.6 L-6515.1,-11883.3 L-6511.0,-11906.8 L-6505.3,-11922.3 L-6498.2,-11940.4 L-6486.2,-11965.7 L-6473.3,-11962.8 L-6455.9,-12145.5 L-6451.8,-12256.3 L-6451.0,-12276.7 L-6441.6,-12347.2 L-6422.9,-12522.9 L-6298.1,-12848.3 L-6269.6,-12937.0 L-5922.9,-13070.0 L-5889.0,-13083.6 L-5883.1,-13086.8 L-5878.5,-13091.0 L-5873.4,-13096.9 L-5869.5,-13103.8 L-5866.9,-13110.6 L-5866.3,-13120.5 L-5866.8,-13132.8 L-5871.4,-13288.3 L-5873.1,-13318.4 L-5873.6,-13339.1 L-5874.3,-13379.3 L-5875.1,-13391.9 L-5876.6,-13402.5 L-5878.7,-13411.9 L-5881.8,-13421.5 L-5886.7,-13432.8 L-5893.9,-13444.9 L-5900.9,-13454.5 L-5906.3,-13463.6 L-5911.8,-13475.7 L-5916.4,-13487.3 L-5918.2,-13496.8 L-5919.6,-13507.3 L-5920.3,-13517.8 L-5920.0,-13528.0 L-5918.8,-13539.9 L-5916.0,-13551.6 L-5912.3,-13562.0 L-5908.4,-13571.5 L-5903.4,-13580.7 L-5897.3,-13591.9 L-5893.3,-13602.0 L-5889.8,-13614.9 L-5883.4,-13624.7 L-5885.6,-13713.9 L-5888.9,-13719.1 L-5889.9,-13779.7 L-5891.6,-13851.2 L-5890.4,-13861.1 L-5887.2,-13871.2 L-5879.2,-13887.0 L-5825.7,-14002.1 L-5824.6,-14004.0 L-5815.2,-14024.5 L-5806.3,-14043.9 L-5796.3,-14063.9 L-5786.5,-14084.5 L-5781.7,-14094.5 L-5729.1,-14202.4 L-5672.9,-14321.6 L-5551.3,-14568.4 L-5624.4,-14650.3 L-5684.0,-14523.3 L-5735.5,-14413.4 L-5743.3,-14397.8 L-5759.2,-14365.3 L-5791.0,-14368.0 L-5799.7,-14368.5 L-5802.8,-14365.7 L-5798.6,-14361.9 L-5814.9,-14347.4 L-5827.8,-14335.5 L-5830.2,-14284.6 L-5835.0,-14274.4 L-5850.6,-14275.0 L-5853.2,-14275.9 L-6057.6,-14360.3 L-6062.0,-14362.6 L-6066.7,-14365.6 L-6074.1,-14371.2 L-6079.8,-14376.6 L-6084.6,-14381.8 L-6089.3,-14388.2 L-6092.9,-14393.8 L-6095.7,-14399.6 L-6097.9,-14405.7 L-6099.4,-14409.9 L-6100.5,-14415.0 L-6101.3,-14421.0 L-6102.1,-14429.2 L-6102.1,-14440.9 L-6103.5,-14480.6 L-6097.9,-14480.9 L-6098.7,-14501.9 L-6099.6,-14536.5 L-6094.4,-14536.6 L-6094.8,-14560.2 L-6100.7,-14560.1 L-6103.4,-14659.5 L-6097.8,-14659.8 L-6098.7,-14683.1 L-6104.1,-14682.9 L-6106.4,-14756.4 L-6079.4,-14785.5 L-6044.9,-14786.7 L-6019.2,-14787.6 L-5985.3,-14788.7 L-5952.7,-14789.7 L-5923.5,-14790.7 L-5910.8,-14791.3 L-5911.4,-14802.6 L-5911.6,-14814.4 L-5913.5,-14852.7 L-5914.2,-14925.8 L-5915.2,-14927.1 L-5915.4,-14934.3 L-5913.3,-14934.4 L-5918.4,-15110.5 L-5922.8,-15276.2 L-5923.5,-15281.4 L-5923.9,-15291.0 L-5996.1,-15288.4 L-6044.1,-15292.5 L-6403.4,-15280.0 L-6403.5,-15283.2 L-6404.2,-15298.5 L-6574.6,-15292.5 L-6574.9,-15320.8 L-6597.4,-15325.9 L-6601.4,-15447.0 L-5938.6,-15470.0 L-5927.6,-15485.1 L-5928.0,-15528.1 L-5928.8,-15565.3 L-5929.4,-15588.6 L-5930.3,-15611.3 L-5983.0,-15636.1 L-5985.1,-15691.2 L-5931.1,-15718.0 L-5936.0,-15845.5 L-5937.4,-15851.8 L-5991.1,-15876.9 L-5992.8,-15945.1 L-5941.8,-15971.4 L-5964.5,-16248.3 L-5958.5,-16371.5 L-5955.5,-16572.4 L-5955.7,-16790.9 L-5950.9,-16821.5 L-5950.6,-16836.3 L-5955.4,-16854.1 L-5950.4,-16854.1 L-5950.4,-16870.2 L-5947.4,-17281.2 L-5947.9,-17299.5 L-5953.6,-17299.5 L-5953.4,-17375.1 L-5956.7,-17379.8 L-5961.9,-17457.8 L-5951.6,-17529.1 L-5952.9,-17615.4 L-5956.4,-17636.1 L-5951.1,-17700.0 L-5954.7,-17777.3 L-5963.7,-17860.0 L-5980.8,-17994.0 L-5972.7,-18030.9 L-5976.3,-18066.8 L-6006.9,-18092.9 L-6051.8,-18092.5 L-6120.2,-18083.5 L-6164.7,-18083.5 L-6205.1,-18098.3 L-6258.2,-18134.7 L-6258.2,-18200.0 L-6259.6,-18280.3 L-6254.4,-18347.2 L-6236.8,-18399.4 L-5942.1,-18404.9 L-5935.3,-18822.8 L-5935.3,-19424.4 L-5938.4,-19642.7 L9973.8,-26214.4 L9973.8,10003.8 L-9738.7,10003.8 L-9738.7,-7981.7 Z" fill="#add7e1" stroke="none"><title>Biscayne Bay</title></path><path d="M-4342.8,-2242.4 L-2366.8,-2159.6 L-390.8,-1828.5 L1175.0,-1373.3 L2666.4,-131.9 L876.8,1730.0 L-4268.2,1730.0 L-4566.5,-1083.7 Z" fill="#f1efe7" stroke="#8ab09d" stroke-width="0.65"><title>Key Biscayne</title></path><path d="M-2648.3,1647.3 L-405.3,1661.2 L-297.5,1692.7 L-254.8,1579.3 L-196.8,1489.6 L-30.1,1142.7 L43.8,1054.5 L116.2,903.7 L176.5,801.1 L221.0,743.1 L237.6,688.8 L245.1,577.2 L248.1,528.9 L252.7,492.7 L242.9,427.1 L265.5,295.9 L274.5,209.9 L294.9,119.4 L300.2,51.6 L325.1,-70.6 L334.9,-133.9 L380.8,-225.9 L384.6,-277.9 L377.8,-385.8 L393.7,-524.5 L395.2,-623.3 L401.2,-820.1 L441.9,-970.9 L494.7,-1140.6 L572.4,-1304.9 L727.2,-1511.3 L759.2,-1572.3 L780.0,-1629.4 L786.0,-1690.8 L797.7,-1748.4 L811.3,-1789.5 L880.5,-1983.8 L903.3,-2056.0 L915.2,-2079.6 L942.8,-2129.2 L974.3,-2191.7 L988.7,-2244.8 L999.7,-2300.1 L1019.4,-2375.5 L1039.8,-2471.8 L1064.9,-2604.8 L1080.8,-2678.1 L1095.5,-2754.8 L1102.9,-2822.6 L1108.8,-2923.4 L1108.4,-3025.8 L1102.0,-3086.0 L1094.4,-3149.7 L1080.8,-3235.3 L1081.1,-3280.4 L1078.1,-3332.6 L1068.3,-3380.4 L1042.5,-3443.3 L1032.8,-3527.8 L1034.5,-3580.5 L1028.8,-3621.9 L1017.6,-3632.7 L992.9,-3660.4 L1008.4,-3673.2 L1000.5,-3689.4 L981.3,-3703.8 L934.6,-3761.1 L932.3,-3781.8 L924.7,-3807.1 L873.1,-3838.7 L852.4,-3830.8 L828.2,-3790.9 L813.9,-3801.4 L815.0,-3809.7 L831.3,-3827.0 L835.4,-3851.9 L821.9,-3854.3 L797.3,-3859.9 L783.4,-3889.3 L742.7,-3890.0 L691.8,-3884.2 L643.9,-3934.3 L628.9,-3985.5 L476.4,-4049.5 L346.3,-4113.4 L166.1,-4225.4 L38.5,-4260.7 L-101.6,-4211.5 L-175.2,-4162.5 L-211.4,-4129.4 L-331.9,-4129.4 L-477.6,-4151.5 L-549.7,-4182.2 L-607.3,-4126.2 L-525.8,-4038.5 L-585.6,-3970.8 L-672.4,-3926.5 L-817.1,-3874.8 L-895.3,-3818.1 L-854.9,-3614.5 L-835.8,-3568.2 L-822.9,-3551.8 L-814.4,-3547.6 L-805.5,-3546.5 L-784.2,-3559.0 L-729.6,-3590.3 L-729.1,-3590.3 L-493.0,-3831.6 L-493.5,-3831.6 L-418.3,-3831.7 L-417.8,-3831.7 L-246.8,-3661.7 L-246.7,-3587.3 L-380.1,-3450.7 L-380.6,-3450.7 L-483.4,-3345.5 L-482.9,-3345.5 L-447.0,-3310.2 L-450.9,-3294.3 L-452.0,-3282.5 L-449.4,-3271.6 L-437.9,-3269.0 L-423.9,-3270.3 L-411.5,-3278.2 L-313.5,-3183.3 L-303.8,-3186.5 L-301.1,-3177.9 L-294.3,-3166.4 L-277.8,-3150.7 L-261.3,-3135.0 L-245.5,-3119.9 L-227.6,-3102.8 L-211.6,-3087.5 L-195.6,-3072.3 L-179.8,-3057.3 L-199.4,-3018.2 L-234.4,-2986.2 L-338.4,-2951.2 L-368.4,-2957.2 L-419.4,-2933.2 L-475.8,-2710.3 L-534.4,-2674.2 L-567.4,-2619.2 L-604.0,-2639.2 L-656.5,-2599.7 L-663.5,-2501.7 L-664.1,-2476.3 L-681.2,-2466.1 L-674.0,-2440.7 L-665.5,-2416.2 L-673.3,-2409.4 L-682.7,-2409.3 L-691.5,-2412.2 L-744.1,-2472.9 L-760.9,-2478.7 L-782.6,-2459.5 L-806.7,-2438.2 L-852.6,-2398.4 L-865.1,-2378.7 L-861.3,-2355.2 L-808.2,-2291.0 L-827.3,-2263.3 L-864.2,-2272.5 L-1068.8,-2120.8 L-1091.6,-2096.5 L-1091.0,-2076.7 L-1101.2,-2059.3 L-1121.6,-2052.0 L-1151.3,-1997.9 L-1194.2,-1959.0 L-1203.1,-1936.2 L-1227.2,-1936.5 L-1251.6,-1928.6 L-1283.6,-1905.9 L-1356.5,-1839.6 L-1424.5,-1750.4 L-1451.9,-1704.2 L-1463.4,-1703.5 L-1481.6,-1678.1 L-1480.9,-1640.2 L-1512.9,-1639.2 L-1542.8,-1606.2 L-1615.8,-1596.1 L-1644.9,-1630.2 L-1680.8,-1608.1 L-1691.8,-1566.1 L-1675.3,-1514.0 L-1702.0,-1497.6 L-1743.5,-1490.1 L-1834.5,-1506.1 L-1858.5,-1481.1 L-1885.0,-1476.6 L-1912.0,-1472.6 L-1996.7,-1347.2 L-1993.7,-1313.8 L-2046.0,-1213.1 L-1986.8,-1177.4 L-1972.4,-1142.6 L-1924.7,-1132.0 L-1905.0,-1144.8 L-1810.8,-1114.4 L-1777.2,-1115.7 L-1752.2,-1140.7 L-1724.2,-1160.7 L-1670.7,-1169.7 L-1649.2,-1162.7 L-1631.7,-1152.2 L-1617.7,-1142.7 L-1607.2,-1124.2 L-1613.7,-1109.2 L-1626.2,-1098.2 L-1655.2,-1107.2 L-1684.2,-1101.2 L-1705.7,-1076.7 L-1712.2,-1044.2 L-1730.8,-1032.6 L-1736.7,-1016.8 L-1740.7,-996.7 L-1759.8,-981.8 L-1781.6,-975.9 L-1795.3,-925.7 L-1759.1,-853.9 L-1773.0,-839.3 L-1798.7,-834.0 L-1805.1,-816.0 L-1808.0,-797.7 L-1794.1,-771.3 L-1825.7,-766.0 L-1849.6,-725.1 L-1829.1,-686.2 L-1785.0,-669.6 L-1748.6,-663.1 L-1705.0,-689.5 L-1656.2,-681.6 L-1560.4,-697.4 L-1539.1,-709.3 L-1532.5,-724.2 L-1547.0,-741.7 L-1565.2,-757.5 L-1557.3,-762.4 L-1506.8,-724.2 L-1491.3,-722.2 L-1481.7,-730.1 L-1477.8,-739.7 L-1478.4,-748.6 L-1488.3,-762.1 L-1513.4,-791.8 L-1492.9,-781.6 L-1480.7,-780.2 L-1470.8,-781.9 L-1458.6,-778.6 L-1457.3,-766.4 L-1447.4,-750.9 L-1439.4,-743.4 L-1429.3,-734.1 L-1421.0,-721.2 L-1409.8,-716.6 L-1402.6,-699.1 L-1396.6,-680.0 L-1381.4,-673.0 L-1373.5,-665.5 L-1365.6,-653.2 L-1370.5,-639.7 L-1383.7,-626.5 L-1394.0,-598.8 L-1392.7,-592.9 L-1438.3,-585.3 L-1460.3,-570.9 L-1461.0,-548.9 L-1477.0,-539.1 L-1501.2,-538.3 L-1535.3,-523.2 L-1535.3,-503.5 L-1593.7,-470.1 L-1653.5,-459.5 L-1681.6,-439.1 L-1774.1,-462.7 L-1913.1,-432.6 L-2054.2,-413.6 L-2098.9,-349.8 L-2228.8,-364.3 L-2337.1,-274.3 L-2385.4,-213.4 L-2416.4,-244.4 L-2464.4,-230.8 L-2463.5,-164.0 L-2520.9,-157.1 L-2574.9,-88.2 L-2644.8,-122.4 L-3061.1,-496.2 L-3206.3,-527.0 L-3281.6,-450.7 L-3340.7,-436.3 L-3365.0,-356.7 L-3412.0,-335.5 L-3429.1,-373.1 L-3550.8,-528.5 L-3720.6,-509.2 L-3698.3,-453.5 L-3772.2,-390.1 L-3744.4,-317.6 L-3792.0,-297.8 L-3871.6,-321.5 L-4029.5,-314.9 L-4204.4,-366.9 L-4248.5,-350.5 L-4082.2,-85.3 L-3851.3,70.4 L-3690.4,169.3 L-3466.0,224.8 L-2934.3,352.8 L-2768.0,523.0 L-2744.3,627.2 L-2682.2,668.1 L-2567.0,1230.3 L-2546.5,1291.0 L-2545.8,1317.5 L-2538.2,1357.7 L-2517.0,1372.1 L-2498.8,1394.0 L-2535.2,1415.3 L-2536.7,1451.6 L-2501.8,1502.4 L-2529.1,1521.4 L-2532.1,1567.6 L-2581.4,1575.2 L-2645.1,1615.3 L-2647.0,1619.8 L-2645.7,1632.6 L-2648.3,1647.3 Z" fill="#d5f2cb" stroke="#9fcf91" stroke-width="0.4"><title>Crandon Park</title></path><path d="M-2648.3,1647.3 L-405.3,1661.2 L-297.5,1692.7 L-254.8,1579.3 L-196.8,1489.6 L-30.1,1142.7 L43.8,1054.5 L116.2,903.7 L176.5,801.1 L221.0,743.1 L237.6,688.8 L245.1,577.2 L248.1,528.9 L252.7,492.7 L242.9,427.1 L265.5,295.9 L274.5,209.9 L294.9,119.4 L300.2,51.6 L325.1,-70.6 L334.9,-133.9 L380.8,-225.9 L384.6,-277.9 L377.8,-385.8 L393.7,-524.5 L395.2,-623.3 L401.2,-820.1 L441.9,-970.9 L494.7,-1140.6 L572.4,-1304.9 L727.2,-1511.3 L759.2,-1572.3 L780.0,-1629.4 L786.0,-1690.8 L797.7,-1748.4 L811.3,-1789.5 L880.5,-1983.8 L903.3,-2056.0 L915.2,-2079.6 L942.8,-2129.2 L974.3,-2191.7 L988.7,-2244.8 L999.7,-2300.1 L1019.4,-2375.5 L1039.8,-2471.8 L1064.9,-2604.8 L1080.8,-2678.1 L1095.5,-2754.8 L1102.9,-2822.6 L1108.8,-2923.4 L1108.4,-3025.8 L1102.0,-3086.0 L1094.4,-3149.7 L1080.8,-3235.3 L1081.1,-3280.4 L1078.1,-3332.6 L1068.3,-3380.4 L1042.5,-3443.3 L1032.8,-3527.8 L1034.5,-3580.5 L1028.8,-3621.9 L1017.6,-3632.7 L992.9,-3660.4 L1008.4,-3673.2 L1000.5,-3689.4 L981.3,-3703.8 L934.6,-3761.1 L932.3,-3781.8 L924.7,-3807.1 L873.1,-3838.7 L852.4,-3830.8 L828.2,-3790.9 L813.9,-3801.4 L815.0,-3809.7 L831.3,-3827.0 L835.4,-3851.9 L821.9,-3854.3 L797.3,-3859.9 L783.4,-3889.3 L742.7,-3890.0 L691.8,-3884.2 L643.9,-3934.3 L628.9,-3985.5 L476.4,-4049.5 L346.3,-4113.4 L166.1,-4225.4 L38.5,-4260.7 L-101.6,-4211.5 L-175.2,-4162.5 L-211.4,-4129.4 L-331.9,-4129.4 L-477.6,-4151.5 L-549.7,-4182.2 L-607.3,-4126.2 L-525.8,-4038.5 L-585.6,-3970.8 L-672.4,-3926.5 L-817.1,-3874.8 L-895.3,-3818.1 L-854.9,-3614.5 L-835.8,-3568.2 L-822.9,-3551.8 L-814.4,-3547.6 L-805.5,-3546.5 L-784.2,-3559.0 L-729.6,-3590.3 L-729.1,-3590.3 L-493.0,-3831.6 L-493.5,-3831.6 L-418.3,-3831.7 L-417.8,-3831.7 L-246.8,-3661.7 L-246.7,-3587.3 L-380.1,-3450.7 L-380.6,-3450.7 L-483.4,-3345.5 L-482.9,-3345.5 L-447.0,-3310.2 L-450.9,-3294.3 L-452.0,-3282.5 L-449.4,-3271.6 L-437.9,-3269.0 L-423.9,-3270.3 L-411.5,-3278.2 L-313.5,-3183.3 L-303.8,-3186.5 L-301.1,-3177.9 L-294.3,-3166.4 L-277.8,-3150.7 L-261.3,-3135.0 L-245.5,-3119.9 L-227.6,-3102.8 L-211.6,-3087.5 L-195.6,-3072.3 L-179.8,-3057.3 L-199.4,-3018.2 L-234.4,-2986.2 L-338.4,-2951.2 L-368.4,-2957.2 L-419.4,-2933.2 L-475.8,-2710.3 L-534.4,-2674.2 L-567.4,-2619.2 L-604.0,-2639.2 L-656.5,-2599.7 L-663.5,-2501.7 L-664.1,-2476.3 L-681.2,-2466.1 L-674.0,-2440.7 L-665.5,-2416.2 L-673.3,-2409.4 L-682.7,-2409.3 L-691.5,-2412.2 L-744.1,-2472.9 L-760.9,-2478.7 L-782.6,-2459.5 L-806.7,-2438.2 L-852.6,-2398.4 L-865.1,-2378.7 L-861.3,-2355.2 L-808.2,-2291.0 L-827.3,-2263.3 L-864.2,-2272.5 L-1068.8,-2120.8 L-1091.6,-2096.5 L-1091.0,-2076.7 L-1101.2,-2059.3 L-1121.6,-2052.0 L-1151.3,-1997.9 L-1194.2,-1959.0 L-1203.1,-1936.2 L-1227.2,-1936.5 L-1251.6,-1928.6 L-1283.6,-1905.9 L-1356.5,-1839.6 L-1424.5,-1750.4 L-1451.9,-1704.2 L-1463.4,-1703.5 L-1481.6,-1678.1 L-1480.9,-1640.2 L-1512.9,-1639.2 L-1542.8,-1606.2 L-1615.8,-1596.1 L-1644.9,-1630.2 L-1680.8,-1608.1 L-1691.8,-1566.1 L-1675.3,-1514.0 L-1702.0,-1497.6 L-1743.5,-1490.1 L-1834.5,-1506.1 L-1858.5,-1481.1 L-1885.0,-1476.6 L-1912.0,-1472.6 L-1996.7,-1347.2 L-1993.7,-1313.8 L-2046.0,-1213.1 L-1986.8,-1177.4 L-1972.4,-1142.6 L-1924.7,-1132.0 L-1905.0,-1144.8 L-1810.8,-1114.4 L-1777.2,-1115.7 L-1752.2,-1140.7 L-1724.2,-1160.7 L-1670.7,-1169.7 L-1649.2,-1162.7 L-1631.7,-1152.2 L-1617.7,-1142.7 L-1607.2,-1124.2 L-1613.7,-1109.2 L-1626.2,-1098.2 L-1655.2,-1107.2 L-1684.2,-1101.2 L-1705.7,-1076.7 L-1712.2,-1044.2 L-1730.8,-1032.6 L-1736.7,-1016.8 L-1740.7,-996.7 L-1759.8,-981.8 L-1781.6,-975.9 L-1795.3,-925.7 L-1759.1,-853.9 L-1773.0,-839.3 L-1798.7,-834.0 L-1805.1,-816.0 L-1808.0,-797.7 L-1794.1,-771.3 L-1825.7,-766.0 L-1849.6,-725.1 L-1829.1,-686.2 L-1785.0,-669.6 L-1748.6,-663.1 L-1705.0,-689.5 L-1656.2,-681.6 L-1560.4,-697.4 L-1539.1,-709.3 L-1532.5,-724.2 L-1547.0,-741.7 L-1565.2,-757.5 L-1557.3,-762.4 L-1506.8,-724.2 L-1491.3,-722.2 L-1481.7,-730.1 L-1477.8,-739.7 L-1478.4,-748.6 L-1488.3,-762.1 L-1513.4,-791.8 L-1492.9,-781.6 L-1480.7,-780.2 L-1470.8,-781.9 L-1458.6,-778.6 L-1457.3,-766.4 L-1447.4,-750.9 L-1439.4,-743.4 L-1429.3,-734.1 L-1421.0,-721.2 L-1409.8,-716.6 L-1402.6,-699.1 L-1396.6,-680.0 L-1381.4,-673.0 L-1373.5,-665.5 L-1365.6,-653.2 L-1370.5,-639.7 L-1383.7,-626.5 L-1394.0,-598.8 L-1392.7,-592.9 L-1438.3,-585.3 L-1460.3,-570.9 L-1461.0,-548.9 L-1477.0,-539.1 L-1501.2,-538.3 L-1535.3,-523.2 L-1535.3,-503.5 L-1593.7,-470.1 L-1653.5,-459.5 L-1681.6,-439.1 L-1774.1,-462.7 L-1913.1,-432.6 L-2054.2,-413.6 L-2098.9,-349.8 L-2228.8,-364.3 L-2337.1,-274.3 L-2385.4,-213.4 L-2416.4,-244.4 L-2464.4,-230.8 L-2463.5,-164.0 L-2520.9,-157.1 L-2574.9,-88.2 L-2644.8,-122.4 L-3061.1,-496.2 L-3206.3,-527.0 L-3281.6,-450.7 L-3340.7,-436.3 L-3365.0,-356.7 L-3412.0,-335.5 L-3429.1,-373.1 L-3550.8,-528.5 L-3720.6,-509.2 L-3698.3,-453.5 L-3772.2,-390.1 L-3744.4,-317.6 L-3792.0,-297.8 L-3871.6,-321.5 L-4029.5,-314.9 L-4204.4,-366.9 L-4248.5,-350.5 L-4082.2,-85.3 L-3851.3,70.4 L-3690.4,169.3 L-3466.0,224.8 L-2934.3,352.8 L-2768.0,523.0 L-2744.3,627.2 L-2682.2,668.1 L-2567.0,1230.3 L-2546.5,1291.0 L-2545.8,1317.5 L-2538.2,1357.7 L-2517.0,1372.1 L-2498.8,1394.0 L-2535.2,1415.3 L-2536.7,1451.6 L-2501.8,1502.4 L-2529.1,1521.4 L-2532.1,1567.6 L-2581.4,1575.2 L-2645.1,1615.3 L-2647.0,1619.8 L-2645.7,1632.6 L-2648.3,1647.3 Z" fill="url(#park-dots)" stroke="none"/><path d="M-2648.3,1647.3 L-405.3,1661.2 L-297.5,1692.7 L-254.8,1579.3 L-196.8,1489.6 L-30.1,1142.7 L43.8,1054.5 L116.2,903.7 L176.5,801.1 L221.0,743.1 L237.6,688.8 L245.1,577.2 L248.1,528.9 L252.7,492.7 L242.9,427.1 L265.5,295.9 L274.5,209.9 L294.9,119.4 L300.2,51.6 L325.1,-70.6 L334.9,-133.9 L380.8,-225.9 L384.6,-277.9 L377.8,-385.8 L393.7,-524.5 L395.2,-623.3 L401.2,-820.1 L441.9,-970.9 L494.7,-1140.6 L572.4,-1304.9 L727.2,-1511.3 L759.2,-1572.3 L780.0,-1629.4 L786.0,-1690.8 L797.7,-1748.4 L811.3,-1789.5 L880.5,-1983.8 L903.3,-2056.0 L915.2,-2079.6 L942.8,-2129.2 L974.3,-2191.7 L988.7,-2244.8 L999.7,-2300.1 L1019.4,-2375.5 L1039.8,-2471.8 L1064.9,-2604.8 L1080.8,-2678.1 L1095.5,-2754.8 L1102.9,-2822.6 L1108.8,-2923.4 L1108.4,-3025.8 L1102.0,-3086.0 L1094.4,-3149.7 L1080.8,-3235.3 L1081.1,-3280.4 L1078.1,-3332.6 L1068.3,-3380.4 L1042.5,-3443.3 L1032.8,-3527.8 L1034.5,-3580.5 L1028.8,-3621.9 L1017.6,-3632.7 L992.9,-3660.4 L1008.4,-3673.2 L1000.5,-3689.4 L981.3,-3703.8 L934.6,-3761.1 L932.3,-3781.8 L924.7,-3807.1 L873.1,-3838.7 L852.4,-3830.8 L828.2,-3790.9 L813.9,-3801.4 L815.0,-3809.7 L831.3,-3827.0 L835.4,-3851.9 L821.9,-3854.3 L797.3,-3859.9 L783.4,-3889.3 L742.7,-3890.0 L691.8,-3884.2 L643.9,-3934.3 L628.9,-3985.5 L476.4,-4049.5 L346.3,-4113.4 L166.1,-4225.4 L38.5,-4260.7 L-101.6,-4211.5 L-175.2,-4162.5 L-211.4,-4129.4 L-331.9,-4129.4 L-477.6,-4151.5 L-549.7,-4182.2 L-607.3,-4126.2 L-525.8,-4038.5 L-585.6,-3970.8 L-672.4,-3926.5 L-817.1,-3874.8 L-895.3,-3818.1 L-854.9,-3614.5 L-835.8,-3568.2 L-822.9,-3551.8 L-814.4,-3547.6 L-805.5,-3546.5 L-784.2,-3559.0 L-729.6,-3590.3 L-729.1,-3590.3 L-493.0,-3831.6 L-493.5,-3831.6 L-418.3,-3831.7 L-417.8,-3831.7 L-246.8,-3661.7 L-246.7,-3587.3 L-380.1,-3450.7 L-380.6,-3450.7 L-483.4,-3345.5 L-482.9,-3345.5 L-447.0,-3310.2 L-450.9,-3294.3 L-452.0,-3282.5 L-449.4,-3271.6 L-437.9,-3269.0 L-423.9,-3270.3 L-411.5,-3278.2 L-313.5,-3183.3 L-303.8,-3186.5 L-301.1,-3177.9 L-294.3,-3166.4 L-277.8,-3150.7 L-261.3,-3135.0 L-245.5,-3119.9 L-227.6,-3102.8 L-211.6,-3087.5 L-195.6,-3072.3 L-179.8,-3057.3 L-199.4,-3018.2 L-234.4,-2986.2 L-338.4,-2951.2 L-368.4,-2957.2 L-419.4,-2933.2 L-475.8,-2710.3 L-534.4,-2674.2 L-567.4,-2619.2 L-604.0,-2639.2 L-656.5,-2599.7 L-663.5,-2501.7 L-664.1,-2476.3 L-681.2,-2466.1 L-674.0,-2440.7 L-665.5,-2416.2 L-673.3,-2409.4 L-682.7,-2409.3 L-691.5,-2412.2 L-744.1,-2472.9 L-760.9,-2478.7 L-782.6,-2459.5 L-806.7,-2438.2 L-852.6,-2398.4 L-865.1,-2378.7 L-861.3,-2355.2 L-808.2,-2291.0 L-827.3,-2263.3 L-864.2,-2272.5 L-1068.8,-2120.8 L-1091.6,-2096.5 L-1091.0,-2076.7 L-1101.2,-2059.3 L-1121.6,-2052.0 L-1151.3,-1997.9 L-1194.2,-1959.0 L-1203.1,-1936.2 L-1227.2,-1936.5 L-1251.6,-1928.6 L-1283.6,-1905.9 L-1356.5,-1839.6 L-1424.5,-1750.4 L-1451.9,-1704.2 L-1463.4,-1703.5 L-1481.6,-1678.1 L-1480.9,-1640.2 L-1512.9,-1639.2 L-1542.8,-1606.2 L-1615.8,-1596.1 L-1644.9,-1630.2 L-1680.8,-1608.1 L-1691.8,-1566.1 L-1675.3,-1514.0 L-1702.0,-1497.6 L-1743.5,-1490.1 L-1834.5,-1506.1 L-1858.5,-1481.1 L-1885.0,-1476.6 L-1912.0,-1472.6 L-1996.7,-1347.2 L-1993.7,-1313.8 L-2046.0,-1213.1 L-1986.8,-1177.4 L-1972.4,-1142.6 L-1924.7,-1132.0 L-1905.0,-1144.8 L-1810.8,-1114.4 L-1777.2,-1115.7 L-1752.2,-1140.7 L-1724.2,-1160.7 L-1670.7,-1169.7 L-1649.2,-1162.7 L-1631.7,-1152.2 L-1617.7,-1142.7 L-1607.2,-1124.2 L-1613.7,-1109.2 L-1626.2,-1098.2 L-1655.2,-1107.2 L-1684.2,-1101.2 L-1705.7,-1076.7 L-1712.2,-1044.2 L-1730.8,-1032.6 L-1736.7,-1016.8 L-1740.7,-996.7 L-1759.8,-981.8 L-1781.6,-975.9 L-1795.3,-925.7 L-1759.1,-853.9 L-1773.0,-839.3 L-1798.7,-834.0 L-1805.1,-816.0 L-1808.0,-797.7 L-1794.1,-771.3 L-1825.7,-766.0 L-1849.6,-725.1 L-1829.1,-686.2 L-1785.0,-669.6 L-1748.6,-663.1 L-1705.0,-689.5 L-1656.2,-681.6 L-1560.4,-697.4 L-1539.1,-709.3 L-1532.5,-724.2 L-1547.0,-741.7 L-1565.2,-757.5 L-1557.3,-762.4 L-1506.8,-724.2 L-1491.3,-722.2 L-1481.7,-730.1 L-1477.8,-739.7 L-1478.4,-748.6 L-1488.3,-762.1 L-1513.4,-791.8 L-1492.9,-781.6 L-1480.7,-780.2 L-1470.8,-781.9 L-1458.6,-778.6 L-1457.3,-766.4 L-1447.4,-750.9 L-1439.4,-743.4 L-1429.3,-734.1 L-1421.0,-721.2 L-1409.8,-716.6 L-1402.6,-699.1 L-1396.6,-680.0 L-1381.4,-673.0 L-1373.5,-665.5 L-1365.6,-653.2 L-1370.5,-639.7 L-1383.7,-626.5 L-1394.0,-598.8 L-1392.7,-592.9 L-1438.3,-585.3 L-1460.3,-570.9 L-1461.0,-548.9 L-1477.0,-539.1 L-1501.2,-538.3 L-1535.3,-523.2 L-1535.3,-503.5 L-1593.7,-470.1 L-1653.5,-459.5 L-1681.6,-439.1 L-1774.1,-462.7 L-1913.1,-432.6 L-2054.2,-413.6 L-2098.9,-349.8 L-2228.8,-364.3 L-2337.1,-274.3 L-2385.4,-213.4 L-2416.4,-244.4 L-2464.4,-230.8 L-2463.5,-164.0 L-2520.9,-157.1 L-2574.9,-88.2 L-2644.8,-122.4 L-3061.1,-496.2 L-3206.3,-527.0 L-3281.6,-450.7 L-3340.7,-436.3 L-3365.0,-356.7 L-3412.0,-335.5 L-3429.1,-373.1 L-3550.8,-528.5 L-3720.6,-509.2 L-3698.3,-453.5 L-3772.2,-390.1 L-3744.4,-317.6 L-3792.0,-297.8 L-3871.6,-321.5 L-4029.5,-314.9 L-4204.4,-366.9 L-4248.5,-350.5 L-4082.2,-85.3 L-3851.3,70.4 L-3690.4,169.3 L-3466.0,224.8 L-2934.3,352.8 L-2768.0,523.0 L-2744.3,627.2 L-2682.2,668.1 L-2567.0,1230.3 L-2546.5,1291.0 L-2545.8,1317.5 L-2538.2,1357.7 L-2517.0,1372.1 L-2498.8,1394.0 L-2535.2,1415.3 L-2536.7,1451.6 L-2501.8,1502.4 L-2529.1,1521.4 L-2532.1,1567.6 L-2581.4,1575.2 L-2645.1,1615.3 L-2647.0,1619.8 L-2645.7,1632.6 L-2648.3,1647.3 Z" fill="url(#park-canopy)" stroke="none"/><path d="M-225.3,748.2 L-192.4,762.7 L-137.8,645.2 L-144.9,623.6 L-140.8,614.3 L-122.7,611.0 L-26.3,394.4 L10.7,311.1 L5.0,294.1 L9.6,280.3 L28.8,273.2 L79.1,159.1 L74.5,143.7 L38.0,87.1 L32.3,86.2 L26.5,87.6 L-14.5,120.4 L-25.7,137.6 L-42.4,184.4 L-55.0,223.8 L-93.5,348.1 L-142.6,491.7 L-181.1,582.7 L-204.7,629.8 L-240.0,707.9 L-232.2,710.0 L-226.2,712.5 L-220.2,715.4 L-217.6,723.5 L-218.4,732.1 L-225.3,748.2 Z" fill="#dcf5d2" stroke="#9fcf91" stroke-width="0.4"></path><path d="M-225.3,748.2 L-192.4,762.7 L-137.8,645.2 L-144.9,623.6 L-140.8,614.3 L-122.7,611.0 L-26.3,394.4 L10.7,311.1 L5.0,294.1 L9.6,280.3 L28.8,273.2 L79.1,159.1 L74.5,143.7 L38.0,87.1 L32.3,86.2 L26.5,87.6 L-14.5,120.4 L-25.7,137.6 L-42.4,184.4 L-55.0,223.8 L-93.5,348.1 L-142.6,491.7 L-181.1,582.7 L-204.7,629.8 L-240.0,707.9 L-232.2,710.0 L-226.2,712.5 L-220.2,715.4 L-217.6,723.5 L-218.4,732.1 L-225.3,748.2 Z" fill="url(#park-dots)" stroke="none"/><path d="M-225.3,748.2 L-192.4,762.7 L-137.8,645.2 L-144.9,623.6 L-140.8,614.3 L-122.7,611.0 L-26.3,394.4 L10.7,311.1 L5.0,294.1 L9.6,280.3 L28.8,273.2 L79.1,159.1 L74.5,143.7 L38.0,87.1 L32.3,86.2 L26.5,87.6 L-14.5,120.4 L-25.7,137.6 L-42.4,184.4 L-55.0,223.8 L-93.5,348.1 L-142.6,491.7 L-181.1,582.7 L-204.7,629.8 L-240.0,707.9 L-232.2,710.0 L-226.2,712.5 L-220.2,715.4 L-217.6,723.5 L-218.4,732.1 L-225.3,748.2 Z" fill="url(#park-canopy)" stroke="none"/><path d="M51.2,88.3 L85.5,142.7 L89.0,145.8 L91.8,146.2 L93.5,144.2 L124.7,81.7 L124.4,74.4 L118.8,70.8 L104.3,69.8 L81.2,70.1 L66.7,71.8 L53.5,73.7 L50.5,75.4 L48.5,80.7 L51.2,88.3 Z" fill="#dcf5d2" stroke="#9fcf91" stroke-width="0.4"></path><path d="M51.2,88.3 L85.5,142.7 L89.0,145.8 L91.8,146.2 L93.5,144.2 L124.7,81.7 L124.4,74.4 L118.8,70.8 L104.3,69.8 L81.2,70.1 L66.7,71.8 L53.5,73.7 L50.5,75.4 L48.5,80.7 L51.2,88.3 Z" fill="url(#park-dots)" stroke="none"/><path d="M51.2,88.3 L85.5,142.7 L89.0,145.8 L91.8,146.2 L93.5,144.2 L124.7,81.7 L124.4,74.4 L118.8,70.8 L104.3,69.8 L81.2,70.1 L66.7,71.8 L53.5,73.7 L50.5,75.4 L48.5,80.7 L51.2,88.3 Z" fill="url(#park-canopy)" stroke="none"/><path d="M18.6,-68.3 L56.5,-44.9 L77.6,-25.1 L97.4,-5.6 L113.2,18.8 L125.4,38.9 L126.4,48.5 L123.8,55.7 L113.2,59.7 L98.7,59.7 L79.6,62.0 L59.8,64.3 L49.6,61.3 L45.6,54.7 L47.2,43.5 L49.2,25.7 L43.9,1.0 L32.7,-22.8 L19.5,-35.3 L9.6,-45.6 L6.0,-55.1 L6.0,-62.7 L9.0,-68.0 L12.6,-69.3 L18.6,-68.3 Z" fill="#dcf5d2" stroke="#9fcf91" stroke-width="0.4"></path><path d="M18.6,-68.3 L56.5,-44.9 L77.6,-25.1 L97.4,-5.6 L113.2,18.8 L125.4,38.9 L126.4,48.5 L123.8,55.7 L113.2,59.7 L98.7,59.7 L79.6,62.0 L59.8,64.3 L49.6,61.3 L45.6,54.7 L47.2,43.5 L49.2,25.7 L43.9,1.0 L32.7,-22.8 L19.5,-35.3 L9.6,-45.6 L6.0,-55.1 L6.0,-62.7 L9.0,-68.0 L12.6,-69.3 L18.6,-68.3 Z" fill="url(#park-dots)" stroke="none"/><path d="M18.6,-68.3 L56.5,-44.9 L77.6,-25.1 L97.4,-5.6 L113.2,18.8 L125.4,38.9 L126.4,48.5 L123.8,55.7 L113.2,59.7 L98.7,59.7 L79.6,62.0 L59.8,64.3 L49.6,61.3 L45.6,54.7 L47.2,43.5 L49.2,25.7 L43.9,1.0 L32.7,-22.8 L19.5,-35.3 L9.6,-45.6 L6.0,-55.1 L6.0,-62.7 L9.0,-68.0 L12.6,-69.3 L18.6,-68.3 Z" fill="url(#park-canopy)" stroke="none"/><path d="M38.0,-68.4 L65.4,-50.5 L84.5,-32.4 L109.3,-4.6 L124.1,18.1 L133.0,34.6 L142.3,41.2 L151.5,43.2 L164.0,39.9 L181.8,20.1 L196.0,-3.0 L207.2,-28.1 L215.6,-55.7 L216.5,-69.3 L213.2,-81.9 L203.0,-90.8 L193.6,-92.2 L176.2,-88.8 L157.0,-86.7 L137.3,-86.4 L109.4,-89.2 L85.4,-94.7 L59.8,-103.6 L42.1,-110.0 L33.1,-109.7 L24.3,-104.4 L19.8,-95.8 L20.0,-86.7 L24.2,-78.3 L38.0,-68.4 Z" fill="#dcf5d2" stroke="#9fcf91" stroke-width="0.4"></path><path d="M38.0,-68.4 L65.4,-50.5 L84.5,-32.4 L109.3,-4.6 L124.1,18.1 L133.0,34.6 L142.3,41.2 L151.5,43.2 L164.0,39.9 L181.8,20.1 L196.0,-3.0 L207.2,-28.1 L215.6,-55.7 L216.5,-69.3 L213.2,-81.9 L203.0,-90.8 L193.6,-92.2 L176.2,-88.8 L157.0,-86.7 L137.3,-86.4 L109.4,-89.2 L85.4,-94.7 L59.8,-103.6 L42.1,-110.0 L33.1,-109.7 L24.3,-104.4 L19.8,-95.8 L20.0,-86.7 L24.2,-78.3 L38.0,-68.4 Z" fill="url(#park-dots)" stroke="none"/><path d="M38.0,-68.4 L65.4,-50.5 L84.5,-32.4 L109.3,-4.6 L124.1,18.1 L133.0,34.6 L142.3,41.2 L151.5,43.2 L164.0,39.9 L181.8,20.1 L196.0,-3.0 L207.2,-28.1 L215.6,-55.7 L216.5,-69.3 L213.2,-81.9 L203.0,-90.8 L193.6,-92.2 L176.2,-88.8 L157.0,-86.7 L137.3,-86.4 L109.4,-89.2 L85.4,-94.7 L59.8,-103.6 L42.1,-110.0 L33.1,-109.7 L24.3,-104.4 L19.8,-95.8 L20.0,-86.7 L24.2,-78.3 L38.0,-68.4 Z" fill="url(#park-canopy)" stroke="none"/><path d="M9.8,-270.3 L-26.9,-197.5 L-71.0,-109.0 L-106.6,-37.5 L-144.7,39.3 L-158.2,65.6 L-148.0,74.4 L-135.4,87.0 L-118.4,98.8 L-99.8,106.6 L-90.9,108.9 L-42.3,106.3 L-17.4,103.1 L-3.6,95.4 L13.7,82.2 L24.0,69.5 L33.8,52.3 L36.9,35.1 L36.1,16.1 L28.3,-6.0 L21.4,-16.9 L9.1,-29.0 L-6.1,-49.9 L-8.7,-56.0 L-8.7,-63.7 L-2.1,-82.1 L4.2,-100.2 L14.0,-121.4 L24.9,-136.4 L33.8,-147.9 L48.4,-171.4 L55.6,-189.5 L55.6,-201.8 L48.4,-223.1 L36.9,-244.4 L24.0,-262.4 L9.8,-270.3 Z" fill="#dcf5d2" stroke="#9fcf91" stroke-width="0.4"></path><path d="M9.8,-270.3 L-26.9,-197.5 L-71.0,-109.0 L-106.6,-37.5 L-144.7,39.3 L-158.2,65.6 L-148.0,74.4 L-135.4,87.0 L-118.4,98.8 L-99.8,106.6 L-90.9,108.9 L-42.3,106.3 L-17.4,103.1 L-3.6,95.4 L13.7,82.2 L24.0,69.5 L33.8,52.3 L36.9,35.1 L36.1,16.1 L28.3,-6.0 L21.4,-16.9 L9.1,-29.0 L-6.1,-49.9 L-8.7,-56.0 L-8.7,-63.7 L-2.1,-82.1 L4.2,-100.2 L14.0,-121.4 L24.9,-136.4 L33.8,-147.9 L48.4,-171.4 L55.6,-189.5 L55.6,-201.8 L48.4,-223.1 L36.9,-244.4 L24.0,-262.4 L9.8,-270.3 Z" fill="url(#park-dots)" stroke="none"/><path d="M9.8,-270.3 L-26.9,-197.5 L-71.0,-109.0 L-106.6,-37.5 L-144.7,39.3 L-158.2,65.6 L-148.0,74.4 L-135.4,87.0 L-118.4,98.8 L-99.8,106.6 L-90.9,108.9 L-42.3,106.3 L-17.4,103.1 L-3.6,95.4 L13.7,82.2 L24.0,69.5 L33.8,52.3 L36.9,35.1 L36.1,16.1 L28.3,-6.0 L21.4,-16.9 L9.1,-29.0 L-6.1,-49.9 L-8.7,-56.0 L-8.7,-63.7 L-2.1,-82.1 L4.2,-100.2 L14.0,-121.4 L24.9,-136.4 L33.8,-147.9 L48.4,-171.4 L55.6,-189.5 L55.6,-201.8 L48.4,-223.1 L36.9,-244.4 L24.0,-262.4 L9.8,-270.3 Z" fill="url(#park-canopy)" stroke="none"/><path d="M-1.0,-1.0 L257.0,-1.0 L257.0,257.0 L-1.0,257.0 L-1.0,-1.0 Z M-1.0,257.0 L257.0,257.0 L257.0,-1.0 L-1.0,-1.0 L-1.0,257.0 Z" fill="#add7e1" stroke="none" fill-rule="evenodd"><title>Biscayne Bay</title></path><path d="M4.4,208.6 L-0.2,220.9 L-11.2,216.8 L-6.6,204.5 L4.4,208.6 Z" fill="#d6d2c9" stroke="#bab6ad" stroke-width="0.4"></path><path d="M242.9,427.1 L265.5,295.9 L274.5,209.9 L294.9,119.4 L300.2,51.6 L325.1,-70.6" fill="none" stroke="#79bdd0" stroke-width="1.4" stroke-linecap="round" stroke-linejoin="round"></path><path d="M94.9,159.1 L66.8,153.5 L38.8,145.0 L11.2,136.5 L-11.3,129.0 L-24.8,124.3" fill="none" stroke="#cf828d" stroke-width="1.5" stroke-dasharray="1.6 3.0" opacity="0.62" stroke-linecap="round" stroke-linejoin="round"></path><path d="M0.2,-65.3 L1.9,-43.6 L17.4,-28.1 L29.9,-12.9 L40.5,14.2 L41.5,33.9 L36.2,75.0" fill="none" stroke="#cec8bb" stroke-width="3.5" stroke-linecap="round" stroke-linejoin="round"/><path d="M0.2,-65.3 L1.9,-43.6 L17.4,-28.1 L29.9,-12.9 L40.5,14.2 L41.5,33.9 L36.2,75.0" fill="none" stroke="#ffffff" stroke-width="2.5" stroke-linecap="round" stroke-linejoin="round"></path><path d="M1.9,-43.6 L-75.9,115.2" fill="none" stroke="#cec8bb" stroke-width="3.5" stroke-linecap="round" stroke-linejoin="round"/><path d="M1.9,-43.6 L-75.9,115.2" fill="none" stroke="#ffffff" stroke-width="2.5" stroke-linecap="round" stroke-linejoin="round"></path><path d="M224.1,-57.2 L215.5,-24.2 L198.4,5.8 L175.0,35.9 L145.0,63.4 L132.7,85.0 L94.9,159.1 L89.9,168.7 L30.8,291.1 L-147.2,690.3" fill="none" stroke="#cec8bb" stroke-width="3.5" stroke-linecap="round" stroke-linejoin="round"/><path d="M224.1,-57.2 L215.5,-24.2 L198.4,5.8 L175.0,35.9 L145.0,63.4 L132.7,85.0 L94.9,159.1 L89.9,168.7 L30.8,291.1 L-147.2,690.3" fill="none" stroke="#ffffff" stroke-width="2.5" stroke-linecap="round" stroke-linejoin="round"></path><path d="M32.5,-67.1 L64.0,-45.1 L93.0,-18.1 L119.0,18.4 L137.0,49.4 L145.0,63.4" fill="none" stroke="#cec8bb" stroke-width="3.5" stroke-linecap="round" stroke-linejoin="round"/><path d="M32.5,-67.1 L64.0,-45.1 L93.0,-18.1 L119.0,18.4 L137.0,49.4 L145.0,63.4" fill="none" stroke="#ffffff" stroke-width="2.5" stroke-linecap="round" stroke-linejoin="round"></path><path d="M145.0,63.4 L110.5,63.9 L69.5,65.4 L36.2,75.0 L20.3,85.1 L-10.4,107.1 L-20.9,114.9 L-24.8,124.3 L-35.1,148.8 L-52.5,193.1" fill="none" stroke="#cec8bb" stroke-width="3.5" stroke-linecap="round" stroke-linejoin="round"/><path d="M145.0,63.4 L110.5,63.9 L69.5,65.4 L36.2,75.0 L20.3,85.1 L-10.4,107.1 L-20.9,114.9 L-24.8,124.3 L-35.1,148.8 L-52.5,193.1" fill="none" stroke="#ffffff" stroke-width="2.5" stroke-linecap="round" stroke-linejoin="round"></path><path d="M36.2,75.0 L94.9,159.1" fill="none" stroke="#cec8bb" stroke-width="3.5" stroke-linecap="round" stroke-linejoin="round"/><path d="M36.2,75.0 L94.9,159.1" fill="none" stroke="#ffffff" stroke-width="2.5" stroke-linecap="round" stroke-linejoin="round"></path></svg>