<svg xmlns="http://www.w3.org/2000/svg" width="256" height="256" viewBox="0 0 256 256"><defs><pattern id="park-dots" width="22" height="22" patternUnits="userSpaceOnUse"><circle cx="5" cy="5" r="2.1" fill="#63a95d" fill-opacity="0.26"/><circle cx="16" cy="7" r="1.55" fill="#76b970" fill-opacity="0.23"/><circle cx="10" cy="17" r="1.9" fill="#61a65b" fill-opacity="0.24"/><circle cx="21" cy="17" r="1.25" fill="#80c174" fill-opacity="0.18"/><circle cx="1" cy="19" r="1.2" fill="#70b46a" fill-opacity="0.17"/></pattern><pattern id="park-canopy" width="54" height="48" patternUnits="userSpaceOnUse"><circle cx="12" cy="11" r="3.6" fill="#5ea75a" fill-opacity="0.22"/><circle cx="31" cy="15" r="2.9" fill="#75ba6d" fill-opacity="0.18"/><circle cx="45" cy="31" r="3.3" fill="#67ae62" fill-opacity="0.20"/><circle cx="19" cy="39" r="2.5" fill="#83c378" fill-opacity="0.16"/></pattern></defs><rect width="256" height="256" fill="#f1efe7"/><path d="M-9738.7,-4909.7 L-9523.9,-4999.0 L-9456.7,-5031.3 L-9156.2,-5175.6 L-9099.8,-5121.0 L-9094.9,-5116.3 L-8989.5,-5206.5 L-8964.4,-5225.6 L-8922.5,-5263.4 L-8686.4,-5480.2 L-8495.9,-5697.8 L-8488.6,-5711.7 L-8481.6,-5719.6 L-8470.5,-5732.3 L-8459.2,-5745.2 L-8454.6,-5750.5 L-8529.7,-5847.6 L-8430.3,-5907.2 L-8376.4,-5835.5 L-8300.2,-5922.7 L-8364.7,-6008.1 L-8284.8,-6091.4 L-8223.3,-6010.4 L-8152.7,-6090.8 L-8122.6,-6110.5 L-7975.4,-6206.0 L-7902.7,-6254.3 L-7815.1,-6311.9 L-7773.7,-6339.1 L-7668.8,-6406.8 L-7695.8,-6442.3 L-7744.1,-6507.0 L-7619.2,-6586.4 L-7573.7,-6609.9 L-7570.2,-6612.4 L-7546.2,-6630.9 L-7460.6,-6676.7 L-7454.7,-6685.9 L-7430.7,-6702.4 L-7417.7,-6721.4 L-7414.0,-6724.2 L-7393.1,-6732.3 L-7345.9,-6749.2 L-7313.6,-6763.4 L-7199.5,-6817.0 L-7198.1,-6813.3 L-7102.4,-6854.2 L-7063.3,-6804.1 L-6976.2,-6862.2 L-6963.8,-6870.7 L-6962.6,-6871.7 L-6961.4,-6873.3 L-6959.5,-6876.6 L-6958.5,-6879.7 L-6957.9,-6883.4 L-6958.0,-6886.4 L-6958.4,-6889.3 L-6958.8,-6892.6 L-6958.9,-6895.1 L-6958.7,-6897.2 L-6958.3,-6899.4 L-6956.7,-6903.4 L-6955.6,-6905.6 L-6953.1,-6909.4 L-6950.5,-6912.2 L-6937.8,-6917.3 L-6927.2,-6921.3 L-6913.7,-6925.7 L-6907.4,-6927.4 L-6896.2,-6931.1 L-6888.3,-6933.9 L-6877.4,-6938.4 L-6862.6,-6944.9 L-6846.6,-6952.4 L-6838.0,-6956.6 L-6827.2,-6962.1 L-6817.1,-6967.7 L-6807.0,-6973.7 L-6796.7,-6980.4 L-6793.5,-6982.6 L-6772.8,-6998.4 L-6755.4,-7011.8 L-6738.4,-7026.2 L-6722.5,-7041.2 L-6711.0,-7054.1 L-6699.6,-7068.0 L-6685.6,-7086.0 L-6672.8,-7104.0 L-6658.1,-7127.1 L-6648.5,-7145.0 L-6642.5,-7156.4 L-6633.6,-7175.7 L-6626.1,-7193.6 L-6619.4,-7212.9 L-6614.0,-7229.8 L-6608.1,-7257.2 L-6603.8,-7281.7 L-6601.5,-7302.7 L-6599.5,-7327.5 L-6599.3,-7354.0 L-6600.9,-7378.5 L-6605.1,-7410.5 L-6609.5,-7432.3 L-6614.5,-7452.9 L-6621.9,-7476.3 L-6628.2,-7494.2 L-6635.4,-7513.7 L-6642.2,-7529.9 L-6646.8,-7540.4 L-6648.7,-7548.1 L-6649.0,-7554.0 L-6648.4,-7559.3 L-6646.3,-7563.9 L-6643.1,-7567.8 L-6638.9,-7570.0 L-6634.4,-7570.6 L-6622.3,-7567.7 L-6588.6,-7559.6 L-6577.4,-7814.3 L-6533.7,-8268.9 L-6581.2,-8280.1 L-6586.4,-8294.4 L-6586.2,-8314.9 L-6579.6,-8361.4 L-6570.6,-8371.9 L-6562.6,-8402.1 L-6512.1,-8390.4 L-6484.3,-8680.9 L-6476.6,-8761.3 L-6492.3,-8765.2 L-6482.8,-8803.6 L-6515.1,-8811.3 L-6511.0,-8834.8 L-6505.3,-8850.3 L-6498.2,-8868.4 L-6486.2,-8893.7 L-6473.3,-8890.8 L-6455.9,-9073.5 L-6451.8,-9184.3 L-6451.0,-9204.7 L-6441.6,-9275.2 L-6422.9,-9450.9 L-6298.1,-9776.3 L-6269.6,-9865.0 L-5922.9,-9998.0 L-5889.0,-10011.6 L-5883.1,-10014.8 L-5878.5,-10019.0 L-5873.4,-10024.9 L-5869.5,-10031.8 L-5866.9,-10038.6 L-5866.3,-10048.5 L-5866.8,-10060.8 L-5871.4,-10216.3 L-5873.1,-10246.4 L-5873.6,-10267.1 L-5874.3,-10307.3 L-5875.1,-10319.9 L-5876.6,-10330.5 L-5878.7,-10339.9 L-5881.8,-10349.5 L-5886.7,-10360.8 L-5893.9,-10372.9 L-5900.9,-10382.5 L-5906.3,-10391.6 L-5911.8,-10403.7 L-5916.4,-10415.3 L-5918.2,-10424.8 L-5919.6,-10435.3 L-5920.3,-10445.8 L-5920.0,-10456.0 L-5918.8,-10467.9 L-5916.0,-10479.6 L-5912.3,-10490.0 L-5908.4,-10499.5 L-5903.4,-10508.7 L-5897.3,-10519.9 L-5893.3,-10530.0 L-5889.8,-10542.9 L-5883.4,-10552.7 L-5885.6,-10641.9 L-5888.9,-10647.1 L-5889.9,-10707.7 L-5891.6,-10779.2 L-5890.4,-10789.1 L-5887.2,-10799.2 L-5879.2,-10815.0 L-5825.7,-10930.1 L-5824.6,-10932.0 L-5815.2,-10952.5 L-5806.3,-10971.9 L-5796.3,-10991.9 L-5786.5,-11012.5 L-5781.7,-11022.5 L-5729.1,-11130.4 L-5672.9,-11249.6 L-5551.3,-11496.4 L-5624.4,-11578.3 L-5684.0,-11451.3 L-5735.5,-11341.4 L-5743.3,-11325.8 L-5759.2,-11293.3 L-5791.0,-11296.0 L-5799.7,-11296.5 L-5802.8,-11293.7 L-5798.6,-11289.9 L-5814.9,-11275.4 L-5827.8,-11263.5 L-5830.2,-11212.6 L-5835.0,-11202.4 L-5850.6,-11203.0 L-5853.2,-11203.9 L-6057.6,-11288.3 L-6062.0,-11290.6 L-6066.7,-11293.6 L-6074.1,-11299.2 L-6079.8,-11304.6 L-6084.6,-11309.8 L-6089.3,-11316.2 L-6092.9,-11321.8 L-6095.7,-11327.6 L-6097.9,-11333.7 L-6099.4,-11337.9 L-6100.5,-11343.0 L-6101.3,-11349.0 L-6102.1,-11357.2 L-6102.1,-11368.9 L-6103.5,-11408.6 L-6097.9,-11408.9 L-6098.7,-11429.9 L-6099.6,-11464.5 L-6094.4,-11464.6 L-6094.8,-11488.2 L-6100.7,-11488.1 L-6103.4,-11587.5 L-6097.8,-11587.8 L-6098.7,-11611.1 L-6104.1,-11610.9 L-6106.4,-11684.4 L-6079.4,-11713.5 L-6044.9,-11714.7 L-6019.2,-11715.6 L-5985.3,-11716.7 L-5952.7,-11717.7 L-5923.5,-11718.7 L-5910.8,-11719.3 L-5911.4,-11730.6 L-5911.6,-11742.4 L-5913.5,-11780.7 L-5914.2,-11853.8 L-5915.2,-11855.1 L-5915.4,-11862.3 L-5913.3,-11862.4 L-5918.4,-12038.5 L-5922.8,-12204.2 L-5923.5,-12209.4 L-5923.9,-12219.0 L-5996.1,-12216.4 L-6044.1,-12220.5 L-6403.4,-12208.0 L-6403.5,-12211.2 L-6404.2,-12226.5 L-6574.6,-12220.5 L-6574.9,-12248.8 L-6597.4,-12253.9 L-6601.4,-12375.0 L-5938.6,-12398.0 L-5927.6,-12413.1 L-5928.0,-12456.1 L-5928.8,-12493.3 L-5929.4,-12516.6 L-5930.3,-12539.3 L-5983.0,-12564.1 L-5985.1,-12619.2 L-5931.1,-12646.0 L-5936.0,-12773.5 L-5937.4,-12779.8 L-5991.1,-12804.9 L-5992.8,-12873.1 L-5941.8,-12899.4 L-5964.5,-13176.3 L-5958.5,-13299.5 L-5955.5,-13500.4 L-5955.7,-13718.9 L-5950.9,-13749.5 L-5950.6,-13764.3 L-5955.4,-13782.1 L-5950.4,-13782.1 L-5950.4,-13798.2 L-5947.4,-14209.2 L-5947.9,-14227.5 L-5953.6,-14227.5 L-5953.4,-14303.1 L-5956.7,-14307.8 L-5961.9,-14385.8 L-5951.6,-14457.1 L-5952.9,-14543.4 L-5956.4,-14564.1 L-5951.1,-14628.0 L-5954.7,-14705.3 L-5963.7,-14788.0 L-5980.8,-14922.0 L-5972.7,-14958.9 L-5976.3,-14994.8 L-6006.9,-15020.9 L-6051.8,-15020.5 L-6120.2,-15011.5 L-6164.7,-15011.5 L-6205.1,-15026.3 L-6258.2,-15062.7 L-6258.2,-15128.0 L-6259.6,-15208.3 L-6254.4,-15275.2 L-6236.8,-15327.4 L-5942.1,-15332.9 L-5935.3,-15750.8 L-5935.3,-16352.4 L-5938.4,-16570.7 L9973.8,-23142.4 L9973.8,13075.8 L-9738.7,13075.8 L-9738.7,-4909.7 Z" fill="#add7e1" stroke="none"><title>Biscayne Bay</title></path><path d="M-456.0,-282.0 L-286.1,-117.3 L-270.2,-101.9 L-253.4,-85.7 L-221.3,-54.6 L-205.0,-38.7 L-188.2,-22.5 L-171.7,-6.5 L-163.0,2.0 L-149.0,-13.0 L-73.5,-18.9 L118.0,-223.0 L80.6,-258.9 L-25.0,-360.0 L-37.0,-406.0 L-131.4,-494.6 L-151.0,-513.0 L-230.0,-520.0 L-456.0,-282.0 Z" fill="#e8ecec" stroke="#d7d1c5" stroke-width="0.3"></path><path d="M-2648.3,4719.3 L-405.3,4733.2 L-297.5,4764.7 L-254.8,4651.3 L-196.8,4561.6 L-30.1,4214.7 L43.8,4126.5 L116.2,3975.7 L176.5,3873.1 L221.0,3815.1 L237.6,3760.8 L245.1,3649.2 L248.1,3600.9 L252.7,3564.7 L242.9,3499.1 L265.5,3367.9 L274.5,3281.9 L294.9,3191.4 L300.2,3123.6 L325.1,3001.4 L334.9,2938.1 L380.8,2846.1 L384.6,2794.1 L377.8,2686.2 L393.7,2547.5 L395.2,2448.7 L401.2,2251.9 L441.9,2101.1 L494.7,1931.4 L572.4,1767.1 L727.2,1560.7 L759.2,1499.7 L780.0,1442.6 L786.0,1381.2 L797.7,1323.6 L811.3,1282.5 L880.5,1088.2 L903.3,1016.0 L915.2,992.4 L942.8,942.8 L974.3,880.3 L988.7,827.2 L999.7,771.9 L1019.4,696.5 L1039.8,600.2 L1064.9,467.2 L1080.8,393.9 L1095.5,317.2 L1102.9,249.4 L1108.8,148.6 L1108.4,46.2 L1102.0,-14.0 L1094.4,-77.7 L1080.8,-163.3 L1081.1,-208.4 L1078.1,-260.6 L1068.3,-308.4 L1042.5,-371.3 L1032.8,-455.8 L1034.5,-508.5 L1028.8,-549.9 L1017.6,-560.7 L992.9,-588.4 L1008.4,-601.2 L1000.5,-617.4 L981.3,-631.8 L934.6,-689.1 L932.3,-709.8 L924.7,-735.1 L873.1,-766.7 L852.4,-758.8 L828.2,-718.9 L813.9,-729.4 L815.0,-737.7 L831.3,-755.0 L835.4,-779.9 L821.9,-782.3 L797.3,-787.9 L783.4,-817.3 L742.7,-818.0 L691.8,-812.2 L643.9,-862.3 L628.9,-913.5 L476.4,-977.5 L346.3,-1041.4 L166.1,-1153.4 L38.5,-1188.7 L-101.6,-1139.5 L-175.2,-1090.5 L-211.4,-1057.4 L-331.9,-1057.4 L-477.6,-1079.5 L-549.7,-1110.2 L-607.3,-1054.2 L-525.8,-966.5 L-585.6,-898.8 L-672.4,-854.5 L-817.1,-802.8 L-895.3,-746.1 L-854.9,-542.5 L-835.8,-496.2 L-822.9,-479.8 L-814.4,-475.6 L-805.5,-474.5 L-784.2,-487.0 L-729.6,-518.3 L-729.1,-518.3 L-493.0,-759.6 L-493.5,-759.6 L-418.3,-759.7 L-417.8,-759.7 L-246.8,-589.7 L-246.7,-515.3 L-380.1,-378.7 L-380.6,-378.7 L-483.4,-273.5 L-482.9,-273.5 L-447.0,-238.2 L-450.9,-222.3 L-452.0,-210.5 L-449.4,-199.6 L-437.9,-197.0 L-423.9,-198.3 L-411.5,-206.2 L-313.5,-111.3 L-303.8,-114.5 L-301.1,-105.9 L-294.3,-94.4 L-277.8,-78.7 L-261.3,-63.0 L-245.5,-47.9 L-227.6,-30.8 L-211.6,-15.5 L-195.6,-0.3 L-179.8,14.7 L-199.4,53.8 L-234.4,85.8 L-338.4,120.8 L-368.4,114.8 L-419.4,138.8 L-475.8,361.7 L-534.4,397.8 L-567.4,452.8 L-604.0,432.8 L-656.5,472.3 L-663.5,570.3 L-664.1,595.7 L-681.2,605.9 L-674.0,631.3 L-665.5,655.8 L-673.3,662.6 L-682.7,662.7 L-691.5,659.8 L-744.1,599.1 L-760.9,593.3 L-782.6,612.5 L-806.7,633.8 L-852.6,673.6 L-865.1,693.3 L-861.3,716.8 L-808.2,781.0 L-827.3,808.7 L-864.2,799.5 L-1068.8,951.2 L-1091.6,975.5 L-1091.0,995.3 L-1101.2,1012.7 L-1121.6,1020.0 L-1151.3,1074.1 L-1194.2,1113.0 L-1203.1,1135.8 L-1227.2,1135.5 L-1251.6,1143.4 L-1283.6,1166.1 L-1356.5,1232.4 L-1424.5,1321.6 L-1451.9,1367.8 L-1463.4,1368.5 L-1481.6,1393.9 L-1480.9,1431.8 L-1512.9,1432.8 L-1542.8,1465.8 L-1615.8,1475.9 L-1644.9,1441.8 L-1680.8,1463.9 L-1691.8,1505.9 L-1675.3,1558.0 L-1702.0,1574.4 L-1743.5,1581.9 L-1834.5,1565.9 L-1858.5,1590.9 L-1885.0,1595.4 L-1912.0,1599.4 L-1996.7,1724.8 L-1993.7,1758.2 L-2046.0,1858.9 L-1986.8,1894.6 L-1972.4,1929.4 L-1924.7,1940.0 L-1905.0,1927.2 L-1810.8,1957.6 L-1777.2,1956.3 L-1752.2,1931.3 L-1724.2,1911.3 L-1670.7,1902.3 L-1649.2,1909.3 L-1631.7,1919.8 L-1617.7,1929.3 L-1607.2,1947.8 L-1613.7,1962.8 L-1626.2,1973.8 L-1655.2,1964.8 L-1684.2,1970.8 L-1705.7,1995.3 L-1712.2,2027.8 L-1730.8,2039.4 L-1736.7,2055.2 L-1740.7,2075.3 L-1759.8,2090.2 L-1781.6,2096.1 L-1795.3,2146.3 L-1759.1,2218.1 L-1773.0,2232.7 L-1798.7,2238.0 L-1805.1,2256.0 L-1808.0,2274.3 L-1794.1,2300.7 L-1825.7,2306.0 L-1849.6,2346.9 L-1829.1,2385.8 L-1785.0,2402.4 L-1748.6,2408.9 L-1705.0,2382.5 L-1656.2,2390.4 L-1560.4,2374.6 L-1539.1,2362.7 L-1532.5,2347.8 L-1547.0,2330.3 L-1565.2,2314.5 L-1557.3,2309.6 L-1506.8,2347.8 L-1491.3,2349.8 L-1481.7,2341.9 L-1477.8,2332.3 L-1478.4,2323.4 L-1488.3,2309.9 L-1513.4,2280.2 L-1492.9,2290.4 L-1480.7,2291.8 L-1470.8,2290.1 L-1458.6,2293.4 L-1457.3,2305.6 L-1447.4,2321.1 L-1439.4,2328.6 L-1429.3,2337.9 L-1421.0,2350.8 L-1409.8,2355.4 L-1402.6,2372.9 L-1396.6,2392.0 L-1381.4,2399.0 L-1373.5,2406.5 L-1365.6,2418.8 L-1370.5,2432.3 L-1383.7,2445.5 L-1394.0,2473.2 L-1392.7,2479.1 L-1438.3,2486.7 L-1460.3,2501.1 L-1461.0,2523.1 L-1477.0,2532.9 L-1501.2,2533.7 L-1535.3,2548.8 L-1535.3,2568.5 L-1593.7,2601.9 L-1653.5,2612.5 L-1681.6,2632.9 L-1774.1,2609.3 L-1913.1,2639.4 L-2054.2,2658.4 L-2098.9,2722.2 L-2228.8,2707.7 L-2337.1,2797.7 L-2385.4,2858.6 L-2416.4,2827.6 L-2464.4,2841.2 L-2463.5,2908.0 L-2520.9,2914.9 L-2574.9,2983.8 L-2644.8,2949.6 L-3061.1,2575.8 L-3206.3,2545.0 L-3281.6,2621.3 L-3340.7,2635.7 L-3365.0,2715.3 L-3412.0,2736.5 L-3429.1,2698.9 L-3550.8,2543.5 L-3720.6,2562.8 L-3698.3,2618.5 L-3772.2,2681.9 L-3744.4,2754.4 L-3792.0,2774.2 L-3871.6,2750.5 L-4029.5,2757.1 L-4204.4,2705.1 L-4248.5,2721.5 L-4082.2,2986.7 L-3851.3,3142.4 L-3690.4,3241.3 L-3466.0,3296.8 L-2934.3,3424.8 L-2768.0,3595.0 L-2744.3,3699.2 L-2682.2,3740.1 L-2567.0,4302.3 L-2546.5,4363.0 L-2545.8,4389.5 L-2538.2,4429.7 L-2517.0,4444.1 L-2498.8,4466.0 L-2535.2,4487.3 L-2536.7,4523.6 L-2501.8,4574.4 L-2529.1,4593.4 L-2532.1,4639.6 L-2581.4,4647.2 L-2645.1,4687.3 L-2647.0,4691.8 L-2645.7,4704.6 L-2648.3,4719.3 Z" fill="#d5f2cb" stroke="#9fcf91" stroke-width="0.4"><title>Crandon Park</title></path><path d="M-2648.3,4719.3 L-405.3,4733.2 L-297.5,4764.7 L-254.8,4651.3 L-196.8,4561.6 L-30.1,4214.7 L43.8,4126.5 L116.2,3975.7 L176.5,3873.1 L221.0,3815.1 L237.6,3760.8 L245.1,3649.2 L248.1,3600.9 L252.7,3564.7 L242.9,3499.1 L265.5,3367.9 L274.5,3281.9 L294.9,3191.4 L300.2,3123.6 L325.1,3001.4 L334.9,2938.1 L380.8,2846.1 L384.6,2794.1 L377.8,2686.2 L393.7,2547.5 L395.2,2448.7 L401.2,2251.9 L441.9,2101.1 L494.7,1931.4 L572.4,1767.1 L727.2,1560.7 L759.2,1499.7 L780.0,1442.6 L786.0,1381.2 L797.7,1323.6 L811.3,1282.5 L880.5,1088.2 L903.3,1016.0 L915.2,992.4 L942.8,942.8 L974.3,880.3 L988.7,827.2 L999.7,771.9 L1019.4,696.5 L1039.8,600.2 L1064.9,467.2 L1080.8,393.9 L1095.5,317.2 L1102.9,249.4 L1108.8,148.6 L1108.4,46.2 L1102.0,-14.0 L1094.4,-77.7 L1080.8,-163.3 L1081.1,-208.4 L1078.1,-260.6 L1068.3,-308.4 L1042.5,-371.3 L1032.8,-455.8 L1034.5,-508.5 L1028.8,-549.9 L1017.6,-560.7 L992.9,-588.4 L1008.4,-601.2 L1000.5,-617.4 L981.3,-631.8 L934.6,-689.1 L932.3,-709.8 L924.7,-735.1 L873.1,-766.7 L852.4,-758.8 L828.2,-718.9 L813.9,-729.4 L815.0,-737.7 L831.3,-755.0 L835.4,-779.9 L821.9,-782.3 L797.3,-787.9 L783.4,-817.3 L742.7,-818.0 L691.8,-812.2 L643.9,-862.3 L628.9,-913.5 L476.4,-977.5 L346.3,-1041.4 L166.1,-1153.4 L38.5,-1188.7 L-101.6,-1139.5 L-175.2,-1090.5 L-211.4,-1057.4 L-331.9,-1057.4 L-477.6,-1079.5 L-549.7,-1110.2 L-607.3,-1054.2 L-525.8,-966.5 L-585.6,-898.8 L-672.4,-854.5 L-817.1,-802.8 L-895.3,-746.1 L-854.9,-542.5 L-835.8,-496.2 L-822.9,-479.8 L-814.4,-475.6 L-805.5,-474.5 L-784.2,-487.0 L-729.6,-518.3 L-729.1,-518.3 L-493.0,-759.6 L-493.5,-759.6 L-418.3,-759.7 L-417.8,-759.7 L-246.8,-589.7 L-246.7,-515.3 L-380.1,-378.7 L-380.6,-378.7 L-483.4,-273.5 L-482.9,-273.5 L-447.0,-238.2 L-450.9,-222.3 L-452.0,-210.5 L-449.4,-199.6 L-437.9,-197.0 L-423.9,-198.3 L-411.5,-206.2 L-313.5,-111.3 L-303.8,-114.5 L-301.1,-105.9 L-294.3,-94.4 L-277.8,-78.7 L-261.3,-63.0 L-245.5,-47.9 L-227.6,-30.8 L-211.6,-15.5 L-195.6,-0.3 L-179.8,14.7 L-199.4,53.8 L-234.4,85.8 L-338.4,120.8 L-368.4,114.8 L-419.4,138.8 L-475.8,361.7 L-534.4,397.8 L-567.4,452.8 L-604.0,432.8 L-656.5,472.3 L-663.5,570.3 L-664.1,595.7 L-681.2,605.9 L-674.0,631.3 L-665.5,655.8 L-673.3,662.6 L-682.7,662.7 L-691.5,659.8 L-744.1,599.1 L-760.9,593.3 L-782.6,612.5 L-806.7,633.8 L-852.6,673.6 L-865.1,693.3 L-861.3,716.8 L-808.2,781.0 L-827.3,808.7 L-864.2,799.5 L-1068.8,951.2 L-1091.6,975.5 L-1091.0,995.3 L-1101.2,1012.7 L-1121.6,1020.0 L-1151.3,1074.1 L-1194.2,1113.0 L-1203.1,1135.8 L-1227.2,1135.5 L-1251.6,1143.4 L-1283.6,1166.1 L-1356.5,1232.4 L-1424.5,1321.6 L-1451.9,1367.8 L-1463.4,1368.5 L-1481.6,1393.9 L-1480.9,1431.8 L-1512.9,1432.8 L-1542.8,1465.8 L-1615.8,1475.9 L-1644.9,1441.8 L-1680.8,1463.9 L-1691.8,1505.9 L-1675.3,1558.0 L-1702.0,1574.4 L-1743.5,1581.9 L-1834.5,1565.9 L-1858.5,1590.9 L-1885.0,1595.4 L-1912.0,1599.4 L-1996.7,1724.8 L-1993.7,1758.2 L-2046.0,1858.9 L-1986.8,1894.6 L-1972.4,1929.4 L-1924.7,1940.0 L-1905.0,1927.2 L-1810.8,1957.6 L-1777.2,1956.3 L-1752.2,1931.3 L-1724.2,1911.3 L-1670.7,1902.3 L-1649.2,1909.3 L-1631.7,1919.8 L-1617.7,1929.3 L-1607.2,1947.8 L-1613.7,1962.8 L-1626.2,1973.8 L-1655.2,1964.8 L-1684.2,1970.8 L-1705.7,1995.3 L-1712.2,2027.8 L-1730.8,2039.4 L-1736.7,2055.2 L-1740.7,2075.3 L-1759.8,2090.2 L-1781.6,2096.1 L-1795.3,2146.3 L-1759.1,2218.1 L-1773.0,2232.7 L-1798.7,2238.0 L-1805.1,2256.0 L-1808.0,2274.3 L-1794.1,2300.7 L-1825.7,2306.0 L-1849.6,2346.9 L-1829.1,2385.8 L-1785.0,2402.4 L-1748.6,2408.9 L-1705.0,2382.5 L-1656.2,2390.4 L-1560.4,2374.6 L-1539.1,2362.7 L-1532.5,2347.8 L-1547.0,2330.3 L-1565.2,2314.5 L-1557.3,2309.6 L-1506.8,2347.8 L-1491.3,2349.8 L-1481.7,2341.9 L-1477.8,2332.3 L-1478.4,2323.4 L-1488.3,2309.9 L-1513.4,2280.2 L-1492.9,2290.4 L-1480.7,2291.8 L-1470.8,2290.1 L-1458.6,2293.4 L-1457.3,2305.6 L-1447.4,2321.1 L-1439.4,2328.6 L-1429.3,2337.9 L-1421.0,2350.8 L-1409.8,2355.4 L-1402.6,2372.9 L-1396.6,2392.0 L-1381.4,2399.0 L-1373.5,2406.5 L-1365.6,2418.8 L-1370.5,2432.3 L-1383.7,2445.5 L-1394.0,2473.2 L-1392.7,2479.1 L-1438.3,2486.7 L-1460.3,2501.1 L-1461.0,2523.1 L-1477.0,2532.9 L-1501.2,2533.7 L-1535.3,2548.8 L-1535.3,2568.5 L-1593.7,2601.9 L-1653.5,2612.5 L-1681.6,2632.9 L-1774.1,2609.3 L-1913.1,2639.4 L-2054.2,2658.4 L-2098.9,2722.2 L-2228.8,2707.7 L-2337.1,2797.7 L-2385.4,2858.6 L-2416.4,2827.6 L-2464.4,2841.2 L-2463.5,2908.0 L-2520.9,2914.9 L-2574.9,2983.8 L-2644.8,2949.6 L-3061.1,2575.8 L-3206.3,2545.0 L-3281.6,2621.3 L-3340.7,2635.7 L-3365.0,2715.3 L-3412.0,2736.5 L-3429.1,2698.9 L-3550.8,2543.5 L-3720.6,2562.8 L-3698.3,2618.5 L-3772.2,2681.9 L-3744.4,2754.4 L-3792.0,2774.2 L-3871.6,2750.5 L-4029.5,2757.1 L-4204.4,2705.1 L-4248.5,2721.5 L-4082.2,2986.7 L-3851.3,3142.4 L-3690.4,3241.3 L-3466.0,3296.8 L-2934.3,3424.8 L-2768.0,3595.0 L-2744.3,3699.2 L-2682.2,3740.1 L-2567.0,4302.3 L-2546.5,4363.0 L-2545.8,4389.5 L-2538.2,4429.7 L-2517.0,4444.1 L-2498.8,4466.0 L-2535.2,4487.3 L-2536.7,4523.6 L-2501.8,4574.4 L-2529.1,4593.4 L-2532.1,4639.6 L-2581.4,4647.2 L-2645.1,4687.3 L-2647.0,4691.8 L-2645.7,4704.6 L-2648.3,4719.3 Z" fill="url(#park-dots)" stroke="none"/><path d="M-2648.3,4719.3 L-405.3,4733.2 L-297.5,4764.7 L-254.8,4651.3 L-196.8,4561.6 L-30.1,4214.7 L43.8,4126.5 L116.2,3975.7 L176.5,3873.1 L221.0,3815.1 L237.6,3760.8 L245.1,3649.2 L248.1,3600.9 L252.7,3564.7 L242.9,3499.1 L265.5,3367.9 L274.5,3281.9 L294.9,3191.4 L300.2,3123.6 L325.1,3001.4 L334.9,2938.1 L380.8,2846.1 L384.6,2794.1 L377.8,2686.2 L393.7,2547.5 L395.2,2448.7 L401.2,2251.9 L441.9,2101.1 L494.7,1931.4 L572.4,1767.1 L727.2,1560.7 L759.2,1499.7 L780.0,1442.6 L786.0,1381.2 L797.7,1323.6 L811.3,1282.5 L880.5,1088.2 L903.3,1016.0 L915.2,992.4 L942.8,942.8 L974.3,880.3 L988.7,827.2 L999.7,771.9 L1019.4,696.5 L1039.8,600.2 L1064.9,467.2 L1080.8,393.9 L1095.5,317.2 L1102.9,249.4 L1108.8,148.6 L1108.4,46.2 L1102.0,-14.0 L1094.4,-77.7 L1080.8,-163.3 L1081.1,-208.4 L1078.1,-260.6 L1068.3,-308.4 L1042.5,-371.3 L1032.8,-455.8 L1034.5,-508.5 L1028.8,-549.9 L1017.6,-560.7 L992.9,-588.4 L1008.4,-601.2 L1000.5,-617.4 L981.3,-631.8 L934.6,-689.1 L932.3,-709.8 L924.7,-735.1 L873.1,-766.7 L852.4,-758.8 L828.2,-718.9 L813.9,-729.4 L815.0,-737.7 L831.3,-755.0 L835.4,-779.9 L821.9,-782.3 L797.3,-787.9 L783.4,-817.3 L742.7,-818.0 L691.8,-812.2 L643.9,-862.3 L628.9,-913.5 L476.4,-977.5 L346.3,-1041.4 L166.1,-1153.4 L38.5,-1188.7 L-101.6,-1139.5 L-175.2,-1090.5 L-211.4,-1057.4 L-331.9,-1057.4 L-477.6,-1079.5 L-549.7,-1110.2 L-607.3,-1054.2 L-525.8,-966.5 L-585.6,-898.8 L-672.4,-854.5 L-817.1,-802.8 L-895.3,-746.1 L-854.9,-542.5 L-835.8,-496.2 L-822.9,-479.8 L-814.4,-475.6 L-805.5,-474.5 L-784.2,-487.0 L-729.6,-518.3 L-729.1,-518.3 L-493.0,-759.6 L-493.5,-759.6 L-418.3,-759.7 L-417.8,-759.7 L-246.8,-589.7 L-246.7,-515.3 L-380.1,-378.7 L-380.6,-378.7 L-483.4,-273.5 L-482.9,-273.5 L-447.0,-238.2 L-450.9,-222.3 L-452.0,-210.5 L-449.4,-199.6 L-437.9,-197.0 L-423.9,-198.3 L-411.5,-206.2 L-313.5,-111.3 L-303.8,-114.5 L-301.1,-105.9 L-294.3,-94.4 L-277.8,-78.7 L-261.3,-63.0 L-245.5,-47.9 L-227.6,-30.8 L-211.6,-15.5 L-195.6,-0.3 L-179.8,14.7 L-199.4,53.8 L-234.4,85.8 L-338.4,120.8 L-368.4,114.8 L-419.4,138.8 L-475.8,361.7 L-534.4,397.8 L-567.4,452.8 L-604.0,432.8 L-656.5,472.3 L-663.5,570.3 L-664.1,595.7 L-681.2,605.9 L-674.0,631.3 L-665.5,655.8 L-673.3,662.6 L-682.7,662.7 L-691.5,659.8 L-744.1,599.1 L-760.9,593.3 L-782.6,612.5 L-806.7,633.8 L-852.6,673.6 L-865.1,693.3 L-861.3,716.8 L-808.2,781.0 L-827.3,808.7 L-864.2,799.5 L-1068.8,951.2 L-1091.6,975.5 L-1091.0,995.3 L-1101.2,1012.7 L-1121.6,1020.0 L-1151.3,1074.1 L-1194.2,1113.0 L-1203.1,1135.8 L-1227.2,1135.5 L-1251.6,1143.4 L-1283.6,1166.1 L-1356.5,1232.4 L-1424.5,1321.6 L-1451.9,1367.8 L-1463.4,1368.5 L-1481.6,1393.9 L-1480.9,1431.8 L-1512.9,1432.8 L-1542.8,1465.8 L-1615.8,1475.9 L-1644.9,1441.8 L-1680.8,1463.9 L-1691.8,1505.9 L-1675.3,1558.0 L-1702.0,1574.4 L-1743.5,1581.9 L-1834.5,1565.9 L-1858.5,1590.9 L-1885.0,1595.4 L-1912.0,1599.4 L-1996.7,1724.8 L-1993.7,1758.2 L-2046.0,1858.9 L-1986.8,1894.6 L-1972.4,1929.4 L-1924.7,1940.0 L-1905.0,1927.2 L-1810.8,1957.6 L-1777.2,1956.3 L-1752.2,1931.3 L-1724.2,1911.3 L-1670.7,1902.3 L-1649.2,1909.3 L-1631.7,1919.8 L-1617.7,1929.3 L-1607.2,1947.8 L-1613.7,1962.8 L-1626.2,1973.8 L-1655.2,1964.8 L-1684.2,1970.8 L-1705.7,1995.3 L-1712.2,2027.8 L-1730.8,2039.4 L-1736.7,2055.2 L-1740.7,2075.3 L-1759.8,2090.2 L-1781.6,2096.1 L-1795.3,2146.3 L-1759.1,2218.1 L-1773.0,2232.7 L-1798.7,2238.0 L-1805.1,2256.0 L-1808.0,2274.3 L-1794.1,2300.7 L-1825.7,2306.0 L-1849.6,2346.9 L-1829.1,2385.8 L-1785.0,2402.4 L-1748.6,2408.9 L-1705.0,2382.5 L-1656.2,2390.4 L-1560.4,2374.6 L-1539.1,2362.7 L-1532.5,2347.8 L-1547.0,2330.3 L-1565.2,2314.5 L-1557.3,2309.6 L-1506.8,2347.8 L-1491.3,2349.8 L-1481.7,2341.9 L-1477.8,2332.3 L-1478.4,2323.4 L-1488.3,2309.9 L-1513.4,2280.2 L-1492.9,2290.4 L-1480.7,2291.8 L-1470.8,2290.1 L-1458.6,2293.4 L-1457.3,2305.6 L-1447.4,2321.1 L-1439.4,2328.6 L-1429.3,2337.9 L-1421.0,2350.8 L-1409.8,2355.4 L-1402.6,2372.9 L-1396.6,2392.0 L-1381.4,2399.0 L-1373.5,2406.5 L-1365.6,2418.8 L-1370.5,2432.3 L-1383.7,2445.5 L-1394.0,2473.2 L-1392.7,2479.1 L-1438.3,2486.7 L-1460.3,2501.1 L-1461.0,2523.1 L-1477.0,2532.9 L-1501.2,2533.7 L-1535.3,2548.8 L-1535.3,2568.5 L-1593.7,2601.9 L-1653.5,2612.5 L-1681.6,2632.9 L-1774.1,2609.3 L-1913.1,2639.4 L-2054.2,2658.4 L-2098.9,2722.2 L-2228.8,2707.7 L-2337.1,2797.7 L-2385.4,2858.6 L-2416.4,2827.6 L-2464.4,2841.2 L-2463.5,2908.0 L-2520.9,2914.9 L-2574.9,2983.8 L-2644.8,2949.6 L-3061.1,2575.8 L-3206.3,2545.0 L-3281.6,2621.3 L-3340.7,2635.7 L-3365.0,2715.3 L-3412.0,2736.5 L-3429.1,2698.9 L-3550.8,2543.5 L-3720.6,2562.8 L-3698.3,2618.5 L-3772.2,2681.9 L-3744.4,2754.4 L-3792.0,2774.2 L-3871.6,2750.5 L-4029.5,2757.1 L-4204.4,2705.1 L-4248.5,2721.5 L-4082.2,2986.7 L-3851.3,3142.4 L-3690.4,3241.3 L-3466.0,3296.8 L-2934.3,3424.8 L-2768.0,3595.0 L-2744.3,3699.2 L-2682.2,3740.1 L-2567.0,4302.3 L-2546.5,4363.0 L-2545.8,4389.5 L-2538.2,4429.7 L-2517.0,4444.1 L-2498.8,4466.0 L-2535.2,4487.3 L-2536.7,4523.6 L-2501.8,4574.4 L-2529.1,4593.4 L-2532.1,4639.6 L-2581.4,4647.2 L-2645.1,4687.3 L-2647.0,4691.8 L-2645.7,4704.6 L-2648.3,4719.3 Z" fill="url(#park-canopy)" stroke="none"/><path d="M441.0,144.3 L509.3,121.6 L492.8,68.3 L463.7,0.4 L425.5,-74.5 L373.0,-157.3 L326.2,-216.3 L291.2,-255.3 L216.7,-329.5 L165.2,-377.0 L128.9,-407.7 L56.0,-479.9 L51.4,-485.2 L44.8,-488.5 L37.9,-486.8 L32.9,-481.9 L31.3,-475.0 L33.6,-469.7 L97.9,-406.4 L169.5,-335.4 L207.8,-293.2 L245.4,-248.0 L293.5,-181.0 L351.6,-85.1 L393.8,6.7 L424.8,91.4 L441.0,144.3 Z" fill="#dcf5d2" stroke="#9fcf91" stroke-width="0.4"></path><path d="M441.0,144.3 L509.3,121.6 L492.8,68.3 L463.7,0.4 L425.5,-74.5 L373.0,-157.3 L326.2,-216.3 L291.2,-255.3 L216.7,-329.5 L165.2,-377.0 L128.9,-407.7 L56.0,-479.9 L51.4,-485.2 L44.8,-488.5 L37.9,-486.8 L32.9,-481.9 L31.3,-475.0 L33.6,-469.7 L97.9,-406.4 L169.5,-335.4 L207.8,-293.2 L245.4,-248.0 L293.5,-181.0 L351.6,-85.1 L393.8,6.7 L424.8,91.4 L441.0,144.3 Z" fill="url(#park-dots)" stroke="none"/><path d="M441.0,144.3 L509.3,121.6 L492.8,68.3 L463.7,0.4 L425.5,-74.5 L373.0,-157.3 L326.2,-216.3 L291.2,-255.3 L216.7,-329.5 L165.2,-377.0 L128.9,-407.7 L56.0,-479.9 L51.4,-485.2 L44.8,-488.5 L37.9,-486.8 L32.9,-481.9 L31.3,-475.0 L33.6,-469.7 L97.9,-406.4 L169.5,-335.4 L207.8,-293.2 L245.4,-248.0 L293.5,-181.0 L351.6,-85.1 L393.8,6.7 L424.8,91.4 L441.0,144.3 Z" fill="url(#park-canopy)" stroke="none"/><path d="M-1.0,-1.0 L257.0,-1.0 L257.0,257.0 L-1.0,257.0 L-1.0,-1.0 Z M-1.0,257.0 L257.0,257.0 L257.0,-1.0 L-1.0,-1.0 L-1.0,257.0 Z" fill="#add7e1" stroke="none" fill-rule="evenodd"><title>Biscayne Bay</title></path></svg>