<svg xmlns="http://www.w3.org/2000/svg" width="256" height="256" viewBox="0 0 256 256"><rect width="256" height="256" fill="#f1efe7"/><path d="M-9738.7,9426.3 L-9523.9,9337.0 L-9456.7,9304.7 L-9156.2,9160.4 L-9099.8,9215.0 L-9094.9,9219.7 L-8989.5,9129.5 L-8964.4,9110.4 L-8922.5,9072.6 L-8686.4,8855.8 L-8495.9,8638.2 L-8488.6,8624.3 L-8481.6,8616.4 L-8470.5,8603.7 L-8459.2,8590.8 L-8454.6,8585.5 L-8529.7,8488.4 L-8430.3,8428.8 L-8376.4,8500.5 L-8300.2,8413.3 L-8364.7,8327.9 L-8284.8,8244.6 L-8223.3,8325.6 L-8152.7,8245.2 L-8122.6,8225.5 L-7975.4,8130.0 L-7902.7,8081.7 L-7815.1,8024.1 L-7773.7,7996.9 L-7668.8,7929.2 L-7695.8,7893.7 L-7744.1,7829.0 L-7619.2,7749.6 L-7573.7,7726.1 L-7570.2,7723.6 L-7546.2,7705.1 L-7460.6,7659.3 L-7454.7,7650.1 L-7430.7,7633.6 L-7417.7,7614.6 L-7414.0,7611.8 L-7393.1,7603.7 L-7345.9,7586.8 L-7313.6,7572.6 L-7199.5,7519.0 L-7198.1,7522.7 L-7102.4,7481.8 L-7063.3,7531.9 L-6976.2,7473.8 L-6963.8,7465.3 L-6962.6,7464.3 L-6961.4,7462.7 L-6959.5,7459.4 L-6958.5,7456.3 L-6957.9,7452.6 L-6958.0,7449.6 L-6958.4,7446.7 L-6958.8,7443.4 L-6958.9,7440.9 L-6958.7,7438.8 L-6958.3,7436.6 L-6956.7,7432.6 L-6955.6,7430.4 L-6953.1,7426.6 L-6950.5,7423.8 L-6937.8,7418.7 L-6927.2,7414.7 L-6913.7,7410.3 L-6907.4,7408.6 L-6896.2,7404.9 L-6888.3,7402.1 L-6877.4,7397.6 L-6862.6,7391.1 L-6846.6,7383.6 L-6838.0,7379.4 L-6827.2,7373.9 L-6817.1,7368.3 L-6807.0,7362.3 L-6796.7,7355.6 L-6793.5,7353.4 L-6772.8,7337.6 L-6755.4,7324.2 L-6738.4,7309.8 L-6722.5,7294.8 L-6711.0,7281.9 L-6699.6,7268.0 L-6685.6,7250.0 L-6672.8,7232.0 L-6658.1,7208.9 L-6648.5,7191.0 L-6642.5,7179.6 L-6633.6,7160.3 L-6626.1,7142.4 L-6619.4,7123.1 L-6614.0,7106.2 L-6608.1,7078.8 L-6603.8,7054.3 L-6601.5,7033.3 L-6599.5,7008.5 L-6599.3,6982.0 L-6600.9,6957.5 L-6605.1,6925.5 L-6609.5,6903.7 L-6614.5,6883.1 L-6621.9,6859.7 L-6628.2,6841.8 L-6635.4,6822.3 L-6642.2,6806.1 L-6646.8,6795.6 L-6648.7,6787.9 L-6649.0,6782.0 L-6648.4,6776.7 L-6646.3,6772.1 L-6643.1,6768.2 L-6638.9,6766.0 L-6634.4,6765.4 L-6622.3,6768.3 L-6588.6,6776.4 L-6577.4,6521.7 L-6533.7,6067.1 L-6581.2,6055.9 L-6586.4,6041.6 L-6586.2,6021.1 L-6579.6,5974.6 L-6570.6,5964.1 L-6562.6,5933.9 L-6512.1,5945.6 L-6484.3,5655.1 L-6476.6,5574.7 L-6492.3,5570.8 L-6482.8,5532.4 L-6515.1,5524.7 L-6511.0,5501.2 L-6505.3,5485.7 L-6498.2,5467.6 L-6486.2,5442.3 L-6473.3,5445.2 L-6455.9,5262.5 L-6451.8,5151.7 L-6451.0,5131.3 L-6441.6,5060.8 L-6422.9,4885.1 L-6298.1,4559.7 L-6269.6,4471.0 L-5922.9,4338.0 L-5889.0,4324.4 L-5883.1,4321.2 L-5878.5,4317.0 L-5873.4,4311.1 L-5869.5,4304.2 L-5866.9,4297.4 L-5866.3,4287.5 L-5866.8,4275.2 L-5871.4,4119.7 L-5873.1,4089.6 L-5873.6,4068.9 L-5874.3,4028.7 L-5875.1,4016.1 L-5876.6,4005.5 L-5878.7,3996.1 L-5881.8,3986.5 L-5886.7,3975.2 L-5893.9,3963.1 L-5900.9,3953.5 L-5906.3,3944.4 L-5911.8,3932.3 L-5916.4,3920.7 L-5918.2,3911.2 L-5919.6,3900.7 L-5920.3,3890.2 L-5920.0,3880.0 L-5918.8,3868.1 L-5916.0,3856.4 L-5912.3,3846.0 L-5908.4,3836.5 L-5903.4,3827.3 L-5897.3,3816.1 L-5893.3,3806.0 L-5889.8,3793.1 L-5883.4,3783.3 L-5885.6,3694.1 L-5888.9,3688.9 L-5889.9,3628.3 L-5891.6,3556.8 L-5890.4,3546.9 L-5887.2,3536.8 L-5879.2,3521.0 L-5825.7,3405.9 L-5824.6,3404.0 L-5815.2,3383.5 L-5806.3,3364.1 L-5796.3,3344.1 L-5786.5,3323.5 L-5781.7,3313.5 L-5729.1,3205.6 L-5672.9,3086.4 L-5551.3,2839.6 L-5624.4,2757.7 L-5684.0,2884.7 L-5735.5,2994.6 L-5743.3,3010.2 L-5759.2,3042.7 L-5791.0,3040.0 L-5799.7,3039.5 L-5802.8,3042.3 L-5798.6,3046.1 L-5814.9,3060.6 L-5827.8,3072.5 L-5830.2,3123.4 L-5835.0,3133.6 L-5850.6,3133.0 L-5853.2,3132.1 L-6057.6,3047.7 L-6062.0,3045.4 L-6066.7,3042.4 L-6074.1,3036.8 L-6079.8,3031.4 L-6084.6,3026.2 L-6089.3,3019.8 L-6092.9,3014.2 L-6095.7,3008.4 L-6097.9,3002.3 L-6099.4,2998.1 L-6100.5,2993.0 L-6101.3,2987.0 L-6102.1,2978.8 L-6102.1,2967.1 L-6103.5,2927.4 L-6097.9,2927.1 L-6098.7,2906.1 L-6099.6,2871.5 L-6094.4,2871.4 L-6094.8,2847.8 L-6100.7,2847.9 L-6103.4,2748.5 L-6097.8,2748.2 L-6098.7,2724.9 L-6104.1,2725.1 L-6106.4,2651.6 L-6079.4,2622.5 L-6044.9,2621.3 L-6019.2,2620.4 L-5985.3,2619.3 L-5952.7,2618.3 L-5923.5,2617.3 L-5910.8,2616.7 L-5911.4,2605.4 L-5911.6,2593.6 L-5913.5,2555.3 L-5914.2,2482.2 L-5915.2,2480.9 L-5915.4,2473.7 L-5913.3,2473.6 L-5918.4,2297.5 L-5922.8,2131.8 L-5923.5,2126.6 L-5923.9,2117.0 L-5996.1,2119.6 L-6044.1,2115.5 L-6403.4,2128.0 L-6403.5,2124.8 L-6404.2,2109.5 L-6574.6,2115.5 L-6574.9,2087.2 L-6597.4,2082.1 L-6601.4,1961.0 L-5938.6,1938.0 L-5927.6,1922.9 L-5928.0,1879.9 L-5928.8,1842.7 L-5929.4,1819.4 L-5930.3,1796.7 L-5983.0,1771.9 L-5985.1,1716.8 L-5931.1,1690.0 L-5936.0,1562.5 L-5937.4,1556.2 L-5991.1,1531.1 L-5992.8,1462.9 L-5941.8,1436.6 L-5964.5,1159.7 L-5958.5,1036.5 L-5955.5,835.6 L-5955.7,617.1 L-5950.9,586.5 L-5950.6,571.7 L-5955.4,553.9 L-5950.4,553.9 L-5950.4,537.8 L-5947.4,126.8 L-5947.9,108.5 L-5953.6,108.5 L-5953.4,32.9 L-5956.7,28.2 L-5961.9,-49.8 L-5951.6,-121.1 L-5952.9,-207.4 L-5956.4,-228.1 L-5951.1,-292.0 L-5954.7,-369.3 L-5963.7,-452.0 L-5980.8,-586.0 L-5972.7,-622.9 L-5976.3,-658.8 L-6006.9,-684.9 L-6051.8,-684.5 L-6120.2,-675.5 L-6164.7,-675.5 L-6205.1,-690.3 L-6258.2,-726.7 L-6258.2,-792.0 L-6259.6,-872.3 L-6254.4,-939.2 L-6236.8,-991.4 L-5942.1,-996.9 L-5935.3,-1414.8 L-5935.3,-2016.4 L-5938.4,-2234.7 L9973.8,-8806.4 L9973.8,27411.8 L-9738.7,27411.8 L-9738.7,9426.3 Z" fill="#add7e1" stroke="none"><title>Biscayne Bay</title></path><path d="M597.2,6577.3 L2051.2,5728.6 L1566.5,4341.8 L1305.5,1195.1 L1305.5,-1268.7 L-1378.8,-3753.4 L6152.3,-6072.7 L6189.6,-2800.9 L5574.4,97.8 L5015.2,3203.2 L4642.3,5687.2 L3859.4,6577.3 L597.2,6577.3 Z" fill="#f1efe7" stroke="#8ab09d" stroke-width="0.65"><title>Miami Beach</title></path><path d="M54.0,221.0 L1.0,240.0 L-5.0,251.0 L-7.1,260.4 L-6.0,278.2 L-1.0,291.0 L12.0,302.0 L49.0,300.0 L100.0,295.0 L136.0,297.0 L154.1,286.7 L155.8,274.9 L164.7,269.8 L163.6,248.4 L130.0,226.0 L100.0,229.0 L81.0,221.0 L54.0,221.0 Z" fill="#f1efe7" stroke="#8ab09d" stroke-width="0.65"></path><path d="M-6803.5,56.4 L-6840.7,-1103.0 L-6579.8,-3712.0 L-55.3,-3712.0 L1398.7,-2842.3 L1398.7,-1351.5 L-18.0,-233.4 L-3224.3,56.4 Z" fill="#add7e1" stroke="none"><title>Biscayne Bay</title></path><path d="M158.2,248.4 L331.6,239.8" fill="none" stroke="#cf828d" stroke-width="1.5" stroke-dasharray="1.6 3.0" opacity="0.62" stroke-linecap="round" stroke-linejoin="round"></path><path d="M1.4,256.6 L47.9,253.3 L158.2,248.4" fill="none" stroke="#cf828d" stroke-width="1.5" stroke-dasharray="1.6 3.0" opacity="0.62" stroke-linecap="round" stroke-linejoin="round"></path><path d="M221.4,255.1 L153.8,258.3" fill="none" stroke="#d1c4aa" stroke-width="6.4" stroke-linecap="round" stroke-linejoin="round"/><path d="M221.4,255.1 L153.8,258.3" fill="none" stroke="#f1c77d" stroke-width="5.0" stroke-linecap="round" stroke-linejoin="round"><title>Venetian Way</title></path><path d="M271.9,252.3 L221.4,255.1" fill="none" stroke="#d1c4aa" stroke-width="6.4" stroke-linecap="round" stroke-linejoin="round"/><path d="M271.9,252.3 L221.4,255.1" fill="none" stroke="#f1c77d" stroke-width="5.0" stroke-linecap="round" stroke-linejoin="round"><title>Venetian Way</title></path><path d="M163.2,272.9 L167.1,272.7 L167.0,269.8 L220.3,267.0 L220.5,272.0 L224.2,271.8 L224.3,274.2 L232.2,273.8 L231.8,266.2 L325.3,261.3" fill="none" stroke="#f3efe5" stroke-width="5.9" stroke-linecap="round" stroke-linejoin="round" opacity="0.95"/><path d="M163.2,272.9 L167.1,272.7 L167.0,269.8 L220.3,267.0 L220.5,272.0 L224.2,271.8 L224.3,274.2 L232.2,273.8 L231.8,266.2 L325.3,261.3" fill="none" stroke="#aeb7ae" stroke-width="3.7" stroke-linecap="round" stroke-linejoin="round" opacity="0.9"><title>Venetian Causeway East Drawbridge</title></path><path d="M324.4,237.9 L165.9,246.4 L165.8,243.8 L161.6,244.1 L163.2,272.9" fill="none" stroke="#f3efe5" stroke-width="5.9" stroke-linecap="round" stroke-linejoin="round" opacity="0.95"/><path d="M324.4,237.9 L165.9,246.4 L165.8,243.8 L161.6,244.1 L163.2,272.9" fill="none" stroke="#aeb7ae" stroke-width="3.7" stroke-linecap="round" stroke-linejoin="round" opacity="0.9"><title>Venetian Causeway East Drawbridge</title></path><text x="219.3" y="246.0" text-anchor="middle" font-family="Arial, sans-serif" font-size="8" font-weight="600" paint-order="stroke" stroke="#fbf7ed" stroke-width="1.9" stroke-linejoin="round" fill="#514a42" textLength="61.4" lengthAdjust="spacing">Venetian Way</text></svg>