<svg xmlns="http://www.w3.org/2000/svg" width="256" height="256" viewBox="0 0 256 256"><rect width="256" height="256" fill="#f1efe7"/><path d="M-2818.7,-843.4 L-2765.0,-865.8 L-2748.2,-873.8 L-2673.1,-909.9 L-2658.9,-896.3 L-2657.7,-895.1 L-2631.4,-917.6 L-2625.1,-922.4 L-2614.6,-931.9 L-2555.6,-986.0 L-2508.0,-1040.5 L-2506.2,-1043.9 L-2504.4,-1045.9 L-2501.6,-1049.1 L-2498.8,-1052.3 L-2497.6,-1053.6 L-2516.4,-1077.9 L-2491.6,-1092.8 L-2478.1,-1074.9 L-2459.1,-1096.7 L-2475.2,-1118.0 L-2455.2,-1138.8 L-2439.8,-1118.6 L-2422.2,-1138.7 L-2414.7,-1143.6 L-2377.9,-1167.5 L-2359.7,-1179.6 L-2337.8,-1194.0 L-2327.4,-1200.8 L-2301.2,-1217.7 L-2308.0,-1226.6 L-2320.0,-1242.8 L-2288.8,-1262.6 L-2277.4,-1268.5 L-2276.6,-1269.1 L-2270.5,-1273.7 L-2249.2,-1285.2 L-2247.7,-1287.5 L-2241.7,-1291.6 L-2238.4,-1296.4 L-2237.5,-1297.0 L-2232.3,-1299.1 L-2220.5,-1303.3 L-2212.4,-1306.8 L-2183.9,-1320.3 L-2183.5,-1319.3 L-2159.6,-1329.6 L-2149.8,-1317.0 L-2128.1,-1331.6 L-2125.0,-1333.7 L-2124.7,-1333.9 L-2124.3,-1334.3 L-2123.9,-1335.1 L-2123.6,-1335.9 L-2123.5,-1336.8 L-2123.5,-1337.6 L-2123.6,-1338.3 L-2123.7,-1339.1 L-2123.7,-1339.8 L-2123.7,-1340.3 L-2123.6,-1340.9 L-2123.2,-1341.8 L-2122.9,-1342.4 L-2122.3,-1343.3 L-2121.6,-1344.1 L-2118.4,-1345.3 L-2115.8,-1346.3 L-2112.4,-1347.4 L-2110.9,-1347.9 L-2108.0,-1348.8 L-2106.1,-1349.5 L-2103.3,-1350.6 L-2099.6,-1352.2 L-2095.7,-1354.1 L-2093.5,-1355.1 L-2090.8,-1356.5 L-2088.3,-1357.9 L-2085.8,-1359.4 L-2083.2,-1361.1 L-2082.4,-1361.7 L-2077.2,-1365.6 L-2072.8,-1368.9 L-2068.6,-1372.6 L-2064.6,-1376.3 L-2061.7,-1379.5 L-2058.9,-1383.0 L-2055.4,-1387.5 L-2052.2,-1392.0 L-2048.5,-1397.8 L-2046.1,-1402.3 L-2044.6,-1405.1 L-2042.4,-1409.9 L-2040.5,-1414.4 L-2038.8,-1419.2 L-2037.5,-1423.4 L-2036.0,-1430.3 L-2034.9,-1436.4 L-2034.4,-1441.7 L-2033.9,-1447.9 L-2033.8,-1454.5 L-2034.2,-1460.6 L-2035.3,-1468.6 L-2036.4,-1474.1 L-2037.6,-1479.2 L-2039.5,-1485.1 L-2041.0,-1489.5 L-2042.8,-1494.4 L-2044.6,-1498.5 L-2045.7,-1501.1 L-2046.2,-1503.0 L-2046.2,-1504.5 L-2046.1,-1505.8 L-2045.6,-1507.0 L-2044.8,-1508.0 L-2043.7,-1508.5 L-2042.6,-1508.7 L-2039.6,-1507.9 L-2031.1,-1505.9 L-2028.4,-1569.6 L-2017.4,-1683.2 L-2029.3,-1686.0 L-2030.6,-1689.6 L-2030.5,-1694.7 L-2028.9,-1706.3 L-2026.7,-1709.0 L-2024.7,-1716.5 L-2012.0,-1713.6 L-2005.1,-1786.2 L-2003.1,-1806.3 L-2007.1,-1807.3 L-2004.7,-1816.9 L-2012.8,-1818.8 L-2011.8,-1824.7 L-2010.3,-1828.6 L-2008.5,-1833.1 L-2005.6,-1839.4 L-2002.3,-1838.7 L-1998.0,-1884.4 L-1996.9,-1912.1 L-1996.8,-1917.2 L-1994.4,-1934.8 L-1989.7,-1978.7 L-1958.5,-2060.1 L-1951.4,-2082.2 L-1864.7,-2115.5 L-1856.3,-2118.9 L-1854.8,-2119.7 L-1853.6,-2120.8 L-1852.4,-2122.2 L-1851.4,-2124.0 L-1850.7,-2125.6 L-1850.6,-2128.1 L-1850.7,-2131.2 L-1851.8,-2170.1 L-1852.3,-2177.6 L-1852.4,-2182.8 L-1852.6,-2192.8 L-1852.8,-2196.0 L-1853.2,-2198.6 L-1853.7,-2201.0 L-1854.4,-2203.4 L-1855.7,-2206.2 L-1857.5,-2209.2 L-1859.2,-2211.6 L-1860.6,-2213.9 L-1861.9,-2216.9 L-1863.1,-2219.8 L-1863.5,-2222.2 L-1863.9,-2224.8 L-1864.1,-2227.4 L-1864.0,-2230.0 L-1863.7,-2233.0 L-1863.0,-2235.9 L-1862.1,-2238.5 L-1861.1,-2240.9 L-1859.8,-2243.2 L-1858.3,-2246.0 L-1857.3,-2248.5 L-1856.5,-2251.7 L-1854.8,-2254.2 L-1855.4,-2276.5 L-1856.2,-2277.8 L-1856.5,-2292.9 L-1856.9,-2310.8 L-1856.6,-2313.3 L-1855.8,-2315.8 L-1853.8,-2319.7 L-1840.4,-2348.5 L-1840.1,-2349.0 L-1837.8,-2354.1 L-1835.6,-2359.0 L-1833.1,-2364.0 L-1830.6,-2369.1 L-1829.4,-2371.6 L-1816.3,-2398.6 L-1802.2,-2428.4 L-1771.8,-2490.1 L-1790.1,-2510.6 L-1805.0,-2478.8 L-1817.9,-2451.4 L-1819.8,-2447.5 L-1823.8,-2439.3 L-1831.7,-2440.0 L-1833.9,-2440.1 L-1834.7,-2439.4 L-1833.7,-2438.5 L-1837.7,-2434.8 L-1840.9,-2431.9 L-1841.5,-2419.1 L-1842.8,-2416.6 L-1846.7,-2416.7 L-1847.3,-2417.0 L-1898.4,-2438.1 L-1899.5,-2438.6 L-1900.7,-2439.4 L-1902.5,-2440.8 L-1903.9,-2442.1 L-1905.1,-2443.5 L-1906.3,-2445.0 L-1907.2,-2446.5 L-1907.9,-2447.9 L-1908.5,-2449.4 L-1908.8,-2450.5 L-1909.1,-2451.8 L-1909.3,-2453.3 L-1909.5,-2455.3 L-1909.5,-2458.2 L-1909.9,-2468.2 L-1908.5,-2468.2 L-1908.7,-2473.5 L-1908.9,-2482.1 L-1907.6,-2482.1 L-1907.7,-2488.1 L-1909.2,-2488.0 L-1909.8,-2512.9 L-1908.5,-2512.9 L-1908.7,-2518.8 L-1910.0,-2518.7 L-1910.6,-2537.1 L-1903.8,-2544.4 L-1895.2,-2544.7 L-1888.8,-2544.9 L-1880.3,-2545.2 L-1872.2,-2545.4 L-1864.9,-2545.7 L-1861.7,-2545.8 L-1861.8,-2548.7 L-1861.9,-2551.6 L-1862.4,-2561.2 L-1862.6,-2579.4 L-1862.8,-2579.8 L-1862.8,-2581.6 L-1862.3,-2581.6 L-1863.6,-2625.6 L-1864.7,-2667.0 L-1864.9,-2668.4 L-1865.0,-2670.7 L-1883.0,-2670.1 L-1895.0,-2671.1 L-1984.8,-2668.0 L-1984.9,-2668.8 L-1985.0,-2672.6 L-2027.6,-2671.1 L-2027.7,-2678.2 L-2033.3,-2679.5 L-2034.4,-2709.8 L-1868.6,-2715.5 L-1865.9,-2719.3 L-1866.0,-2730.0 L-1866.2,-2739.3 L-1866.4,-2745.1 L-1866.6,-2750.8 L-1879.8,-2757.0 L-1880.3,-2770.8 L-1866.8,-2777.5 L-1868.0,-2809.4 L-1868.4,-2810.9 L-1881.8,-2817.2 L-1882.2,-2834.3 L-1869.5,-2840.8 L-1875.1,-2910.1 L-1873.6,-2940.9 L-1872.9,-2991.1 L-1872.9,-3045.7 L-1871.7,-3053.4 L-1871.7,-3057.1 L-1872.9,-3061.5 L-1871.6,-3061.5 L-1871.6,-3065.6 L-1870.9,-3168.3 L-1871.0,-3172.9 L-1872.4,-3172.9 L-1872.4,-3191.8 L-1873.2,-3193.0 L-1874.5,-3212.5 L-1871.9,-3230.3 L-1872.2,-3251.9 L-1873.1,-3257.0 L-1871.8,-3273.0 L-1872.7,-3292.3 L-1874.9,-3313.0 L-1879.2,-3346.5 L-1877.2,-3355.7 L-1878.1,-3364.7 L-1885.7,-3371.2 L-1897.0,-3371.1 L-1914.0,-3368.9 L-1925.2,-3368.9 L-1935.3,-3372.6 L-1948.5,-3381.7 L-1948.5,-3398.0 L-1948.9,-3418.1 L-1947.6,-3434.8 L-1943.2,-3447.8 L-1869.5,-3449.2 L-1867.8,-3553.7 L-1867.8,-3704.1 L-1868.6,-3758.7 L2109.4,-5401.6 L2109.4,3652.9 L-2818.7,3652.9 L-2818.7,-843.4 Z" fill="#add7e1" stroke="none"><title>Biscayne Bay</title></path><path d="M-146.2,-557.1 L3.0,-381.2 L58.9,-143.2 L-53.0,1.7 L-304.6,63.8 L-360.5,-60.4 L-174.1,-194.9 L-202.1,-391.5 Z" fill="#add7e1" stroke="none"><title>Virginia Key east cove</title></path><path d="M-1376.5,-1612.6 L-863.9,-1509.1 L-304.6,-1229.7 L124.1,-805.4 L291.9,-391.5 L86.9,-50.1 L-295.3,136.2 L-658.8,125.8 L-957.1,-81.1 L-1236.7,-432.9 L-1581.5,-836.4 L-1544.3,-1312.5 Z" fill="#f1efe7" stroke="#8ab09d" stroke-width="0.65"><title>Virginia Key</title></path><path d="M-1.0,-1.0 L257.0,-1.0 L257.0,257.0 L-1.0,257.0 L-1.0,-1.0 Z" fill="#add7e1" stroke="none" fill-rule="evenodd"><title>Biscayne Bay</title></path><path d="M-1553.6,-272.5 L-849.9,-288.0 L12.3,-236.3 L152.1,43.1 L-360.5,177.6 L-1236.7,193.1 L-1572.2,84.5 Z" fill="#add7e1" stroke="none"><title>Bear Cut</title></path></svg>