<svg xmlns="http://www.w3.org/2000/svg" width="256" height="256" viewBox="0 0 256 256"><rect width="256" height="256" fill="#f1efe7"/><path d="M-15626.7,13010.3 L-15411.9,12921.0 L-15344.7,12888.7 L-15044.2,12744.4 L-14987.8,12799.0 L-14982.9,12803.7 L-14877.5,12713.5 L-14852.4,12694.4 L-14810.5,12656.6 L-14574.4,12439.8 L-14383.9,12222.2 L-14376.6,12208.3 L-14369.6,12200.4 L-14358.5,12187.7 L-14347.2,12174.8 L-14342.6,12169.5 L-14417.7,12072.4 L-14318.3,12012.8 L-14264.4,12084.5 L-14188.2,11997.3 L-14252.7,11911.9 L-14172.8,11828.6 L-14111.3,11909.6 L-14040.7,11829.2 L-14010.6,11809.5 L-13863.4,11714.0 L-13790.7,11665.7 L-13703.1,11608.1 L-13661.7,11580.9 L-13556.8,11513.2 L-13583.8,11477.7 L-13632.1,11413.0 L-13507.2,11333.6 L-13461.7,11310.1 L-13458.2,11307.6 L-13434.2,11289.1 L-13348.6,11243.3 L-13342.7,11234.1 L-13318.7,11217.6 L-13305.7,11198.6 L-13302.0,11195.8 L-13281.1,11187.7 L-13233.9,11170.8 L-13201.6,11156.6 L-13087.5,11103.0 L-13086.1,11106.7 L-12990.4,11065.8 L-12951.3,11115.9 L-12864.2,11057.8 L-12851.8,11049.3 L-12850.6,11048.3 L-12849.4,11046.7 L-12847.5,11043.4 L-12846.5,11040.3 L-12845.9,11036.6 L-12846.0,11033.6 L-12846.4,11030.7 L-12846.8,11027.4 L-12846.9,11024.9 L-12846.7,11022.8 L-12846.3,11020.6 L-12844.7,11016.6 L-12843.6,11014.4 L-12841.1,11010.6 L-12838.5,11007.8 L-12825.8,11002.7 L-12815.2,10998.7 L-12801.7,10994.3 L-12795.4,10992.6 L-12784.2,10988.9 L-12776.3,10986.1 L-12765.4,10981.6 L-12750.6,10975.1 L-12734.6,10967.6 L-12726.0,10963.4 L-12715.2,10957.9 L-12705.1,10952.3 L-12695.0,10946.3 L-12684.7,10939.6 L-12681.5,10937.4 L-12660.8,10921.6 L-12643.4,10908.2 L-12626.4,10893.8 L-12610.5,10878.8 L-12599.0,10865.9 L-12587.6,10852.0 L-12573.6,10834.0 L-12560.8,10816.0 L-12546.1,10792.9 L-12536.5,10775.0 L-12530.5,10763.6 L-12521.6,10744.3 L-12514.1,10726.4 L-12507.4,10707.1 L-12502.0,10690.2 L-12496.1,10662.8 L-12491.8,10638.3 L-12489.5,10617.3 L-12487.5,10592.5 L-12487.3,10566.0 L-12488.9,10541.5 L-12493.1,10509.5 L-12497.5,10487.7 L-12502.5,10467.1 L-12509.9,10443.7 L-12516.2,10425.8 L-12523.4,10406.3 L-12530.2,10390.1 L-12534.8,10379.6 L-12536.7,10371.9 L-12537.0,10366.0 L-12536.4,10360.7 L-12534.3,10356.1 L-12531.1,10352.2 L-12526.9,10350.0 L-12522.4,10349.4 L-12510.3,10352.3 L-12476.6,10360.4 L-12465.4,10105.7 L-12421.7,9651.1 L-12469.2,9639.9 L-12474.4,9625.6 L-12474.2,9605.1 L-12467.6,9558.6 L-12458.6,9548.1 L-12450.6,9517.9 L-12400.1,9529.6 L-12372.3,9239.1 L-12364.6,9158.7 L-12380.3,9154.8 L-12370.8,9116.4 L-12403.1,9108.7 L-12399.0,9085.2 L-12393.3,9069.7 L-12386.2,9051.6 L-12374.2,9026.3 L-12361.3,9029.2 L-12343.9,8846.5 L-12339.8,8735.7 L-12339.0,8715.3 L-12329.6,8644.8 L-12310.9,8469.1 L-12186.1,8143.7 L-12157.6,8055.0 L-11810.9,7922.0 L-11777.0,7908.4 L-11771.1,7905.2 L-11766.5,7901.0 L-11761.4,7895.1 L-11757.5,7888.2 L-11754.9,7881.4 L-11754.3,7871.5 L-11754.8,7859.2 L-11759.4,7703.7 L-11761.1,7673.6 L-11761.6,7652.9 L-11762.3,7612.7 L-11763.1,7600.1 L-11764.6,7589.5 L-11766.7,7580.1 L-11769.8,7570.5 L-11774.7,7559.2 L-11781.9,7547.1 L-11788.9,7537.5 L-11794.3,7528.4 L-11799.8,7516.3 L-11804.4,7504.7 L-11806.2,7495.2 L-11807.6,7484.7 L-11808.3,7474.2 L-11808.0,7464.0 L-11806.8,7452.1 L-11804.0,7440.4 L-11800.3,7430.0 L-11796.4,7420.5 L-11791.4,7411.3 L-11785.3,7400.1 L-11781.3,7390.0 L-11777.8,7377.1 L-11771.4,7367.3 L-11773.6,7278.1 L-11776.9,7272.9 L-11777.9,7212.3 L-11779.6,7140.8 L-11778.4,7130.9 L-11775.2,7120.8 L-11767.2,7105.0 L-11713.7,6989.9 L-11712.6,6988.0 L-11703.2,6967.5 L-11694.3,6948.1 L-11684.3,6928.1 L-11674.5,6907.5 L-11669.7,6897.5 L-11617.1,6789.6 L-11560.9,6670.4 L-11439.3,6423.6 L-11512.4,6341.7 L-11572.0,6468.7 L-11623.5,6578.6 L-11631.3,6594.2 L-11647.2,6626.7 L-11679.0,6624.0 L-11687.7,6623.5 L-11690.8,6626.3 L-11686.6,6630.1 L-11702.9,6644.6 L-11715.8,6656.5 L-11718.2,6707.4 L-11723.0,6717.6 L-11738.6,6717.0 L-11741.2,6716.1 L-11945.6,6631.7 L-11950.0,6629.4 L-11954.7,6626.4 L-11962.1,6620.8 L-11967.8,6615.4 L-11972.6,6610.2 L-11977.3,6603.8 L-11980.9,6598.2 L-11983.7,6592.4 L-11985.9,6586.3 L-11987.4,6582.1 L-11988.5,6577.0 L-11989.3,6571.0 L-11990.1,6562.8 L-11990.1,6551.1 L-11991.5,6511.4 L-11985.9,6511.1 L-11986.7,6490.1 L-11987.6,6455.5 L-11982.4,6455.4 L-11982.8,6431.8 L-11988.7,6431.9 L-11991.4,6332.5 L-11985.8,6332.2 L-11986.7,6308.9 L-11992.1,6309.1 L-11994.4,6235.6 L-11967.4,6206.5 L-11932.9,6205.3 L-11907.2,6204.4 L-11873.3,6203.3 L-11840.7,6202.3 L-11811.5,6201.3 L-11798.8,6200.7 L-11799.4,6189.4 L-11799.6,6177.6 L-11801.5,6139.3 L-11802.2,6066.2 L-11803.2,6064.9 L-11803.4,6057.7 L-11801.3,6057.6 L-11806.4,5881.5 L-11810.8,5715.8 L-11811.5,5710.6 L-11811.9,5701.0 L-11884.1,5703.6 L-11932.1,5699.5 L-12291.4,5712.0 L-12291.5,5708.8 L-12292.2,5693.5 L-12462.6,5699.5 L-12462.9,5671.2 L-12485.4,5666.1 L-12489.4,5545.0 L-11826.6,5522.0 L-11815.6,5506.9 L-11816.0,5463.9 L-11816.8,5426.7 L-11817.4,5403.4 L-11818.3,5380.7 L-11871.0,5355.9 L-11873.1,5300.8 L-11819.1,5274.0 L-11824.0,5146.5 L-11825.4,5140.2 L-11879.1,5115.1 L-11880.8,5046.9 L-11829.8,5020.6 L-11852.5,4743.7 L-11846.5,4620.5 L-11843.5,4419.6 L-11843.7,4201.1 L-11838.9,4170.5 L-11838.6,4155.7 L-11843.4,4137.9 L-11838.4,4137.9 L-11838.4,4121.8 L-11835.4,3710.8 L-11835.9,3692.5 L-11841.6,3692.5 L-11841.4,3616.9 L-11844.7,3612.2 L-11849.9,3534.2 L-11839.6,3462.9 L-11840.9,3376.6 L-11844.4,3355.9 L-11839.1,3292.0 L-11842.7,3214.7 L-11851.7,3132.0 L-11868.8,2998.0 L-11860.7,2961.1 L-11864.3,2925.2 L-11894.9,2899.1 L-11939.8,2899.5 L-12008.2,2908.5 L-12052.7,2908.5 L-12093.1,2893.7 L-12146.2,2857.3 L-12146.2,2792.0 L-12147.6,2711.7 L-12142.4,2644.8 L-12124.8,2592.6 L-11830.1,2587.1 L-11823.3,2169.2 L-11823.3,1567.6 L-11826.4,1349.3 L4085.8,-5222.4 L4085.8,30995.8 L-15626.7,30995.8 L-15626.7,13010.3 Z" fill="#add7e1" stroke="none"><title>Biscayne Bay</title></path><path d="M-5290.8,10161.3 L-3836.8,9312.6 L-4321.5,7925.8 L-4582.5,4779.1 L-4582.5,2315.3 L-4302.8,-169.4 L264.3,-2488.7 L301.6,783.1 L-313.6,3681.8 L-872.8,6787.2 L-1245.7,9271.2 L-2028.6,10161.3 L-5290.8,10161.3 Z" fill="#f1efe7" stroke="#8ab09d" stroke-width="0.65"><title>Miami Beach</title></path><path d="M-1203.6,4770.6 L-1190.5,4786.5 L-1172.9,4790.3 L-1167.6,4777.9 L-1173.8,4737.3 L-1172.0,4622.1 L-1160.2,4571.9 L-1158.6,4565.1 L-1171.0,4533.8 L-1172.5,4485.0 L-1161.9,4444.6 L-1142.5,4397.8 L-1152.0,4332.2 L-1136.4,4250.3 L-1119.9,4166.4 L-1110.9,4115.0 L-1114.5,4082.0 L-1104.6,4034.1 L-1094.6,4003.0 L-1080.2,3931.0 L-1078.9,3924.9 L-1071.5,3854.0 L-1069.4,3812.3 L-1048.6,3729.3 L-1045.4,3662.8 L-1027.0,3648.1 L-1027.5,3625.4 L-1028.3,3595.0 L-1023.3,3559.0 L-1016.2,3528.7 L-1003.8,3479.7 L-1000.6,3447.7 L-997.2,3394.2 L-986.2,3369.3 L-963.8,3318.1 L-951.3,3279.1 L-949.4,3273.3 L-939.8,3206.1 L-927.0,3146.9 L-924.4,3105.9 L-911.4,3030.5 L-883.8,2945.3 L-878.2,2925.6 L-873.3,2908.6 L-848.6,2817.3 L-832.6,2762.9 L-811.8,2690.9 L-804.6,2671.7 L-776.6,2596.5 L-747.8,2519.7 L-728.6,2446.1 L-699.8,2369.3 L-667.8,2276.5 L-627.8,2161.3 L-599.0,2079.7 L-576.9,2004.5 L-572.6,1989.7 L-562.2,1951.7 L-547.8,1910.1 L-535.5,1867.4 L-524.2,1828.5 L-494.5,1727.9 L-491.6,1717.8 L-474.2,1668.5 L-458.9,1601.1 L-445.5,1545.7 L-435.0,1502.3 L-422.4,1453.5 L-406.5,1402.1 L-392.0,1349.3 L-372.1,1252.3 L-351.8,1204.2 L-327.0,1166.1 L-311.0,1143.7 L-295.0,1132.5 L-287.4,1126.0 L-281.6,1108.3 L-269.0,1074.7 L-257.8,1024.7 L-242.2,975.2 L-221.9,906.4 L-207.5,864.5 L-218.0,849.3 L-195.9,837.7 L-174.9,778.0 L-185.0,763.5 L-166.9,754.8 L-126.1,641.2 L-133.3,626.4 L-119.9,617.0 L-109.8,569.6 L-93.1,497.2 L-81.6,410.4 L-69.6,356.5 L-76.4,349.2 L-65.3,339.8 L-52.0,195.3 L-48.5,151.9 L-40.5,100.7 L-31.0,83.5 L-27.8,61.4 L-22.7,51.3 L-18.0,9.3 L-19.8,-31.6 L-17.3,-79.7 L-5.3,-155.3 L15.3,-237.5 L17.8,-306.6 L22.9,-374.6 L38.8,-520.0 L58.4,-642.7 L93.8,-934.6 L109.8,-1094.8 L127.3,-1201.8 L144.3,-1305.6 L174.9,-1522.1 L225.6,-1873.6 L234.2,-2002.0 L244.3,-2064.1 L246.9,-2108.2 L251.0,-2174.6 L259.3,-2256.7 L254.6,-2265.4 L241.2,-2290.4 L253.5,-2305.9 L257.1,-2421.1 L257.1,-2423.5 L195.0,-2434.0 L178.4,-2264.8 L177.5,-2255.2 L179.0,-2244.7 L199.5,-2099.2 L191.5,-1859.2 L147.5,-1701.2 L124.3,-1411.0 L97.3,-1148.1 L38.3,-743.3 L-28.6,-234.2 L-59.7,-21.1 L-68.9,58.4 L-85.5,202.8 L-101.9,344.4 L-123.6,490.7 L-164.1,615.9 L-196.9,730.9 L-331.2,1117.2 L-460.5,1442.8 L-593.6,1849.2 L-636.5,1984.8 L-819.1,2467.4 L-857.6,2629.2 L-873.6,2688.7 L-880.9,2689.9 L-934.3,2888.6 L-912.4,2891.5 L-902.8,2901.1 L-899.3,2914.0 L-904.0,2938.7 L-910.7,2946.3 L-939.4,2950.7 L-964.6,3004.1 L-973.7,3029.2 L-967.3,3052.8 L-952.1,3094.9 L-988.0,3159.6 L-1001.1,3227.3 L-1001.4,3249.2 L-985.6,3260.6 L-983.4,3280.8 L-990.9,3294.4 L-1000.2,3297.9 L-1014.0,3302.6 L-1055.3,3489.9 L-1074.8,3566.7 L-1074.5,3583.1 L-1058.4,3595.9 L-1051.5,3611.5 L-1053.2,3639.5 L-1069.7,3662.2 L-1084.5,3678.2 L-1098.1,3733.5 L-1109.5,3826.1 L-1126.4,3876.8 L-1108.6,3932.2 L-1104.3,3945.6 L-1135.0,3967.7 L-1142.9,3981.3 L-1145.9,3997.7 L-1144.4,4009.4 L-1141.8,4026.5 L-1141.8,4047.7 L-1144.8,4068.8 L-1152.0,4087.1 L-1160.8,4101.7 L-1182.7,4245.3 L-1193.3,4359.9 L-1184.9,4376.3 L-1180.5,4390.5 L-1180.9,4406.2 L-1191.1,4429.9 L-1205.7,4460.2 L-1209.4,4533.4 L-1191.1,4555.0 L-1187.8,4563.0 L-1187.8,4589.3 L-1193.6,4600.2 L-1205.3,4606.8 L-1216.6,4615.5 L-1223.9,4737.3 L-1203.6,4770.6 Z" fill="#ece7dc" stroke="#d7d1c5" stroke-width="0.3"></path><path d="M-1.0,-1.0 L257.0,-1.0 L257.0,257.0 L-1.0,257.0 L-1.0,-1.0 Z M-1.0,-1.0 L-1.0,257.0 L96.2,257.0 L101.9,201.0 L107.0,166.9 L115.5,116.2 L129.4,67.3 L139.5,11.2 L138.5,-1.0 L-1.0,-1.0 Z" fill="#add7e1" stroke="none" fill-rule="evenodd"><title>Biscayne Bay</title></path><path d="M48.1,126.7 L55.1,127.2 L54.5,134.2 L47.6,133.7 L48.1,126.7 Z" fill="#d6d2c9" stroke="#bab6ad" stroke-width="0.4"></path><path d="M94.7,382.4 L95.0,268.5 L101.9,201.0 L107.0,166.9 L115.5,116.2 L129.4,67.3 L139.5,11.2 L133.7,-59.5" fill="none" stroke="#79bdd0" stroke-width="1.4" stroke-linecap="round" stroke-linejoin="round"></path></svg>