<svg xmlns="http://www.w3.org/2000/svg" width="256" height="256" viewBox="0 0 256 256"><rect width="256" height="256" fill="#f1efe7"/><path d="M312.4,218.2 L313.8,265.5 L301.8,265.5 L302.3,276.5 L259.3,277.7 L253.5,275.9 L248.3,270.9 L246.4,264.5 L245.2,218.8 L286.7,218.3 L287.3,227.9 L301.5,227.6 L301.5,218.0 L312.4,218.2 Z" fill="#d6d2c9" stroke="#bab6ad" stroke-width="0.4"></path><path d="M4.4,247.4 L5.2,278.0 L-9.3,278.4 L-9.6,265.8 L-25.1,266.2 L-25.5,248.2 L4.4,247.4 Z" fill="#d6d2c9" stroke="#bab6ad" stroke-width="0.4"><title>Munchies</title></path><path d="M101.1,7.0 L101.4,16.5 L149.3,15.2 L152.3,123.5 L157.8,123.4 L158.7,158.6 L152.7,158.8 L154.6,226.8 L107.5,228.1 L107.8,239.3 L102.4,239.4 L102.1,227.6 L59.4,228.8 L53.8,26.2 L96.5,25.0 L96.0,7.1 L101.1,7.0 Z" fill="#d6d2c9" stroke="#bab6ad" stroke-width="0.4"></path><path d="M-168.6,-957.9 L1558.9,481.1" fill="none" stroke="#6fb5c7" stroke-width="1.7" stroke-dasharray="5 7" opacity="0.34" stroke-linecap="round" stroke-linejoin="round"><title>Miami Canal</title></path><path d="M-149.2,222.4 L36.6,219.5" fill="none" stroke="#cec8bb" stroke-width="3.5" stroke-linecap="round" stroke-linejoin="round"/><path d="M-149.2,222.4 L36.6,219.5" fill="none" stroke="#ffffff" stroke-width="2.5" stroke-linecap="round" stroke-linejoin="round"></path><path d="M227.4,213.3 L416.8,209.9" fill="none" stroke="#cec8bb" stroke-width="3.5" stroke-linecap="round" stroke-linejoin="round"/><path d="M227.4,213.3 L416.8,209.9" fill="none" stroke="#ffffff" stroke-width="2.5" stroke-linecap="round" stroke-linejoin="round"></path><path d="M38.2,244.6 L7.0,244.5" fill="none" stroke="#cec8bb" stroke-width="3.5" stroke-linecap="round" stroke-linejoin="round"/><path d="M38.2,244.6 L7.0,244.5" fill="none" stroke="#ffffff" stroke-width="2.5" stroke-linecap="round" stroke-linejoin="round"></path><path d="M6.5,110.5 L8.3,196.0" fill="none" stroke="#cec8bb" stroke-width="3.5" stroke-linecap="round" stroke-linejoin="round"/><path d="M6.5,110.5 L8.3,196.0" fill="none" stroke="#ffffff" stroke-width="2.5" stroke-linecap="round" stroke-linejoin="round"></path><path d="M-60.8,111.9 L-29.3,111.2 L6.5,110.5 L0.8,-34.0 L-32.5,-33.3 L-63.2,-32.7" fill="none" stroke="#cec8bb" stroke-width="3.5" stroke-linecap="round" stroke-linejoin="round"/><path d="M-60.8,111.9 L-29.3,111.2 L6.5,110.5 L0.8,-34.0 L-32.5,-33.3 L-63.2,-32.7" fill="none" stroke="#ffffff" stroke-width="2.5" stroke-linecap="round" stroke-linejoin="round"></path><path d="M254.5,195.1 L289.0,194.5 L286.0,-30.8 L250.5,-28.2 L254.5,195.1" fill="none" stroke="#cec8bb" stroke-width="3.5" stroke-linecap="round" stroke-linejoin="round"/><path d="M254.5,195.1 L289.0,194.5 L286.0,-30.8 L250.5,-28.2 L254.5,195.1" fill="none" stroke="#ffffff" stroke-width="2.5" stroke-linecap="round" stroke-linejoin="round"></path><path d="M192.1,141.6 L195.2,264.8 L183.3,265.3 L59.5,266.7 L60.7,258.7" fill="none" stroke="#cec8bb" stroke-width="3.5" stroke-linecap="round" stroke-linejoin="round"/><path d="M192.1,141.6 L195.2,264.8 L183.3,265.3 L59.5,266.7 L60.7,258.7" fill="none" stroke="#ffffff" stroke-width="2.5" stroke-linecap="round" stroke-linejoin="round"></path><path d="M184.7,142.0 L185.3,254.8 L60.7,258.7" fill="none" stroke="#cec8bb" stroke-width="3.5" stroke-linecap="round" stroke-linejoin="round"/><path d="M184.7,142.0 L185.3,254.8 L60.7,258.7" fill="none" stroke="#ffffff" stroke-width="2.5" stroke-linecap="round" stroke-linejoin="round"></path><path d="M225.6,139.7 L192.1,141.6 L184.7,142.0 L179.5,-49.5" fill="none" stroke="#cec8bb" stroke-width="3.5" stroke-linecap="round" stroke-linejoin="round"/><path d="M225.6,139.7 L192.1,141.6 L184.7,142.0 L179.5,-49.5" fill="none" stroke="#ffffff" stroke-width="2.5" stroke-linecap="round" stroke-linejoin="round"></path><path d="M186.0,-48.7 L192.1,141.6" fill="none" stroke="#cec8bb" stroke-width="3.5" stroke-linecap="round" stroke-linejoin="round"/><path d="M186.0,-48.7 L192.1,141.6" fill="none" stroke="#ffffff" stroke-width="2.5" stroke-linecap="round" stroke-linejoin="round"></path><path d="M83.0,-70.5 L83.0,-36.2 L71.0,-31.0 L70.5,9.7 L91.7,8.0 L90.5,-70.8" fill="none" stroke="#cec8bb" stroke-width="3.5" stroke-linecap="round" stroke-linejoin="round"/><path d="M83.0,-70.5 L83.0,-36.2 L71.0,-31.0 L70.5,9.7 L91.7,8.0 L90.5,-70.8" fill="none" stroke="#ffffff" stroke-width="2.5" stroke-linecap="round" stroke-linejoin="round"></path><path d="M227.0,195.5 L254.5,195.1" fill="none" stroke="#cec8bb" stroke-width="3.5" stroke-linecap="round" stroke-linejoin="round"/><path d="M227.0,195.5 L254.5,195.1" fill="none" stroke="#ffffff" stroke-width="2.5" stroke-linecap="round" stroke-linejoin="round"></path><path d="M29.4,-28.2 L35.2,192.6 L36.6,219.5 L38.2,244.6" fill="none" stroke="#cec8bb" stroke-width="4.8" stroke-linecap="round" stroke-linejoin="round"/><path d="M29.4,-28.2 L35.2,192.6 L36.6,219.5 L38.2,244.6" fill="none" stroke="#ffffff" stroke-width="3.7" stroke-linecap="round" stroke-linejoin="round"><title>Ragan Drive</title></path><path d="M38.2,244.6 L38.8,284.1 L39.1,298.0" fill="none" stroke="#cec8bb" stroke-width="4.8" stroke-linecap="round" stroke-linejoin="round"/><path d="M38.2,244.6 L38.8,284.1 L39.1,298.0" fill="none" stroke="#ffffff" stroke-width="3.7" stroke-linecap="round" stroke-linejoin="round"><title>Ragan Drive</title></path><path d="M220.4,-74.9 L221.1,-46.7 L225.6,139.7 L227.0,195.5 L227.4,213.3" fill="none" stroke="#d1c4aa" stroke-width="5.4" stroke-linecap="round" stroke-linejoin="round"/><path d="M220.4,-74.9 L221.1,-46.7 L225.6,139.7 L227.0,195.5 L227.4,213.3" fill="none" stroke="#f4d99b" stroke-width="4.0" stroke-linecap="round" stroke-linejoin="round"><title>Sheridan Drive</title></path><path d="M227.4,213.3 L228.9,272.5 L229.1,279.9 L229.4,292.7" fill="none" stroke="#d1c4aa" stroke-width="5.4" stroke-linecap="round" stroke-linejoin="round"/><path d="M227.4,213.3 L228.9,272.5 L229.1,279.9 L229.4,292.7" fill="none" stroke="#f4d99b" stroke-width="4.0" stroke-linecap="round" stroke-linejoin="round"><title>Sheridan Drive</title></path><text x="224.1" y="77.9" transform="rotate(88.6 224.1 77.9)" text-anchor="middle" dominant-baseline="central" font-family="Arial, sans-serif" font-size="8.3" textLength="74.4" lengthAdjust="spacing" font-weight="650" paint-order="stroke" stroke="#fffaf0" stroke-width="2.05" stroke-linejoin="round" fill="#6f573d">Sheridan Drive</text><text x="32.9" y="104.3" transform="rotate(88.5 32.9 104.3)" text-anchor="middle" dominant-baseline="central" font-family="Arial, sans-serif" font-size="8.3" textLength="58.4" lengthAdjust="spacing" font-weight="650" paint-order="stroke" stroke="#fffaf0" stroke-width="2.05" stroke-linejoin="round" fill="#695f54">Ragan Drive</text><text x="115.9" y="128.2" text-anchor="middle" font-family="Arial, sans-serif" font-size="6.5" textLength="18.0" lengthAdjust="spacing" font-weight="500" paint-order="stroke" stroke="#f3f5ee" stroke-width="1.55" stroke-linejoin="round" fill="#6f777a">4355</text></svg>