<svg xmlns="http://www.w3.org/2000/svg" width="256" height="256" viewBox="0 0 256 256"><defs><pattern id="park-dots" width="22" height="22" patternUnits="userSpaceOnUse"><circle cx="5" cy="5" r="2.1" fill="#63a95d" fill-opacity="0.26"/><circle cx="16" cy="7" r="1.55" fill="#76b970" fill-opacity="0.23"/><circle cx="10" cy="17" r="1.9" fill="#61a65b" fill-opacity="0.24"/><circle cx="21" cy="17" r="1.25" fill="#80c174" fill-opacity="0.18"/><circle cx="1" cy="19" r="1.2" fill="#70b46a" fill-opacity="0.17"/></pattern><pattern id="park-canopy" width="54" height="48" patternUnits="userSpaceOnUse"><circle cx="12" cy="11" r="3.6" fill="#5ea75a" fill-opacity="0.22"/><circle cx="31" cy="15" r="2.9" fill="#75ba6d" fill-opacity="0.18"/><circle cx="45" cy="31" r="3.3" fill="#67ae62" fill-opacity="0.20"/><circle cx="19" cy="39" r="2.5" fill="#83c378" fill-opacity="0.16"/></pattern></defs><rect width="256" height="256" fill="#f1efe7"/><path d="M-1355.7,741.0 L-1339.0,1330.2 L-1908.4,1347.2 L-1981.7,1772.4 L-2011.4,1881.1 L-2063.0,1998.5 L-2132.6,2101.5 L-2219.7,2189.1 L-2346.9,2276.7 L-2405.4,2303.1 L-1737.7,2282.0 L-1729.2,3046.8 L-1652.9,3046.0 L-1635.3,3822.0 L-1626.1,3944.0 L-1620.0,4583.6 L-1606.4,4595.1 L599.9,4618.7 L662.4,2962.7 L1169.8,1298.7 L1760.8,101.4 L1809.5,-190.8 L1715.6,-203.7 L1666.5,-191.6 L1535.4,-232.6 L1484.3,-431.3 L1443.5,-567.2 L1262.0,-743.0 L1244.4,-776.9 L1194.9,-821.6 L1071.8,-637.6 L967.4,-489.3 L788.7,85.7 L627.0,402.9 L434.2,568.9 L330.8,649.5 L135.6,682.1 L128.4,707.0 L-309.2,715.0 L-616.2,727.2 L-602.1,1510.6 L-976.2,1515.6 L-989.3,728.9 L-1355.7,741.0 Z" fill="#c4e7bd" stroke="#9fcf91" stroke-width="0.4"><title>R Hardy Matheson County Preserve</title></path><path d="M-1355.7,741.0 L-1339.0,1330.2 L-1908.4,1347.2 L-1981.7,1772.4 L-2011.4,1881.1 L-2063.0,1998.5 L-2132.6,2101.5 L-2219.7,2189.1 L-2346.9,2276.7 L-2405.4,2303.1 L-1737.7,2282.0 L-1729.2,3046.8 L-1652.9,3046.0 L-1635.3,3822.0 L-1626.1,3944.0 L-1620.0,4583.6 L-1606.4,4595.1 L599.9,4618.7 L662.4,2962.7 L1169.8,1298.7 L1760.8,101.4 L1809.5,-190.8 L1715.6,-203.7 L1666.5,-191.6 L1535.4,-232.6 L1484.3,-431.3 L1443.5,-567.2 L1262.0,-743.0 L1244.4,-776.9 L1194.9,-821.6 L1071.8,-637.6 L967.4,-489.3 L788.7,85.7 L627.0,402.9 L434.2,568.9 L330.8,649.5 L135.6,682.1 L128.4,707.0 L-309.2,715.0 L-616.2,727.2 L-602.1,1510.6 L-976.2,1515.6 L-989.3,728.9 L-1355.7,741.0 Z" fill="url(#park-dots)" stroke="none"/><path d="M-1355.7,741.0 L-1339.0,1330.2 L-1908.4,1347.2 L-1981.7,1772.4 L-2011.4,1881.1 L-2063.0,1998.5 L-2132.6,2101.5 L-2219.7,2189.1 L-2346.9,2276.7 L-2405.4,2303.1 L-1737.7,2282.0 L-1729.2,3046.8 L-1652.9,3046.0 L-1635.3,3822.0 L-1626.1,3944.0 L-1620.0,4583.6 L-1606.4,4595.1 L599.9,4618.7 L662.4,2962.7 L1169.8,1298.7 L1760.8,101.4 L1809.5,-190.8 L1715.6,-203.7 L1666.5,-191.6 L1535.4,-232.6 L1484.3,-431.3 L1443.5,-567.2 L1262.0,-743.0 L1244.4,-776.9 L1194.9,-821.6 L1071.8,-637.6 L967.4,-489.3 L788.7,85.7 L627.0,402.9 L434.2,568.9 L330.8,649.5 L135.6,682.1 L128.4,707.0 L-309.2,715.0 L-616.2,727.2 L-602.1,1510.6 L-976.2,1515.6 L-989.3,728.9 L-1355.7,741.0 Z" fill="url(#park-canopy)" stroke="none"/><path d="M87.8,79.3 L95.8,79.3 L95.8,88.1 L76.3,88.1 L76.3,81.8 L73.1,81.6 L73.7,72.9 L70.3,72.8 L70.6,62.9 L59.6,63.8 L58.3,48.6 L71.0,47.5 L71.1,43.1 L101.6,43.8 L100.8,73.6 L88.2,73.3 L87.8,79.3 Z" fill="#d6d2c9" stroke="#bab6ad" stroke-width="0.4"></path><path d="M81.0,-33.5 L99.4,-16.8 L74.1,11.0 L74.7,11.5 L59.9,33.7 L43.5,22.7 L53.8,7.4 L48.3,2.4 L50.1,0.5 L41.0,-7.8 L49.7,-17.4 L33.6,-32.1 L58.5,-59.5 L78.7,-41.1 L70.7,-32.3 L75.8,-27.7 L81.0,-33.5 Z" fill="#d6d2c9" stroke="#bab6ad" stroke-width="0.4"></path><path d="M3.8,-37.0 L14.5,-53.7 L30.5,-43.4 L0.1,3.7 L-22.4,-10.8 L-14.9,-22.4 L-25.4,-29.1 L-39.0,-37.5 L-27.4,-56.4 L-0.6,-39.8 L3.8,-37.0 Z" fill="#d6d2c9" stroke="#bab6ad" stroke-width="0.4"></path><path d="M-0.4,227.5 L14.4,233.7 L17.1,227.2 L29.4,232.4 L28.0,235.9 L40.4,241.1 L26.9,273.0 L19.0,269.6 L15.1,278.8 L-9.0,268.7 L-0.5,248.4 L-7.9,245.3 L-0.4,227.5 Z" fill="#d6d2c9" stroke="#bab6ad" stroke-width="0.4"></path><path d="M21.5,179.2 L30.1,186.4 L32.1,184.0 L39.3,190.0 L49.8,177.5 L61.7,187.5 L44.0,208.5 L48.5,212.3 L35.6,227.6 L19.5,214.1 L20.3,213.2 L14.7,208.5 L23.6,197.9 L13.2,189.2 L21.5,179.2 Z" fill="#d6d2c9" stroke="#bab6ad" stroke-width="0.4"></path><path d="M64.5,103.0 L115.4,112.6 L112.1,129.6 L92.5,125.9 L86.1,159.6 L66.8,156.0 L66.1,159.9 L53.6,157.5 L54.4,153.5 L41.0,150.9 L44.7,131.6 L58.5,134.3 L64.5,103.0 Z" fill="#d6d2c9" stroke="#bab6ad" stroke-width="0.4"></path><path d="M115.9,47.2 L105.1,47.4 L104.9,36.5 L115.7,36.3 L115.9,47.2 Z" fill="#d6d2c9" stroke="#bab6ad" stroke-width="0.4"></path><path d="M-49.1,248.2 L-34.2,211.9 L-22.6,186.7 L-7.5,155.6 L5.8,130.4 L17.6,106.9 L19.7,101.2 L21.0,95.1 L21.5,88.8 L21.5,83.3 L20.9,74.9 L18.9,66.6 L16.8,60.9 L14.1,55.6 L10.1,49.6" fill="none" stroke="#cec8bb" stroke-width="4.8" stroke-linecap="round" stroke-linejoin="round"/><path d="M-49.1,248.2 L-34.2,211.9 L-22.6,186.7 L-7.5,155.6 L5.8,130.4 L17.6,106.9 L19.7,101.2 L21.0,95.1 L21.5,88.8 L21.5,83.3 L20.9,74.9 L18.9,66.6 L16.8,60.9 L14.1,55.6 L10.1,49.6" fill="none" stroke="#ffffff" stroke-width="3.7" stroke-linecap="round" stroke-linejoin="round"><title>Tanya Street</title></path><path d="M10.1,49.6 L3.7,42.2 L-4.1,35.8 L-12.8,30.4 L-20.6,27.8 L-28.8,26.9 L-37.9,26.7 L-48.9,27.5" fill="none" stroke="#cec8bb" stroke-width="4.8" stroke-linecap="round" stroke-linejoin="round"/><path d="M10.1,49.6 L3.7,42.2 L-4.1,35.8 L-12.8,30.4 L-20.6,27.8 L-28.8,26.9 L-37.9,26.7 L-48.9,27.5" fill="none" stroke="#ffffff" stroke-width="3.7" stroke-linecap="round" stroke-linejoin="round"><title>Campana Avenue</title></path><text x="16.4" y="241.0" text-anchor="middle" font-family="Arial, sans-serif" font-size="6.5" textLength="20.8" lengthAdjust="spacing" font-weight="500" paint-order="stroke" stroke="#f3f5ee" stroke-width="1.55" stroke-linejoin="round" fill="#6f777a">11035</text><text x="37.4" y="188.7" text-anchor="middle" font-family="Arial, sans-serif" font-size="6.5" textLength="20.8" lengthAdjust="spacing" font-weight="500" paint-order="stroke" stroke="#f3f5ee" stroke-width="1.55" stroke-linejoin="round" fill="#6f777a">11025</text><text x="71.2" y="46.9" text-anchor="middle" font-family="Arial, sans-serif" font-size="6.5" textLength="20.8" lengthAdjust="spacing" font-weight="500" paint-order="stroke" stroke="#f3f5ee" stroke-width="1.55" stroke-linejoin="round" fill="#6f777a">11005</text><text x="75.9" y="127.8" text-anchor="middle" font-family="Arial, sans-serif" font-size="6.5" textLength="20.8" lengthAdjust="spacing" font-weight="500" paint-order="stroke" stroke="#f3f5ee" stroke-width="1.55" stroke-linejoin="round" fill="#6f777a">11015</text></svg>