<svg xmlns="http://www.w3.org/2000/svg" width="256" height="256" viewBox="0 0 256 256"><rect width="256" height="256" fill="#f1efe7"/><path d="M201.3,37.4 L205.9,188.2 L326.4,184.5 L321.8,33.7 L201.3,37.4 Z" fill="#e8ecec" stroke="#d7d1c5" stroke-width="0.3"><title>Baskon Palmer Private Parking</title></path><path d="M209.0,501.0 L432.5,492.0 L421.0,223.5 L199.0,235.0 L209.0,501.0 Z" fill="#ead7d9" stroke="#d7d1c5" stroke-width="0.3"><title>Jackson Behavioral Health Hospital</title></path><path d="M161.9,205.9 L161.3,239.0 L6.4,242.6 L7.4,394.0 L-94.4,396.0 L-108.0,376.0 L-206.8,377.5 L-231.4,403.1 L-273.0,405.6 L-279.7,410.8 L-285.6,417.6 L-272.5,707.5 L-262.5,764.2 L-247.4,802.3 L-311.6,809.3 L-348.3,802.8 L-391.9,776.7 L-411.9,745.6 L-427.0,711.5 L-434.5,673.9 L-439.0,390.0 L-677.3,392.0 L-688.3,384.5 L-690.8,126.2 L-705.9,-483.3 L-704.9,-490.7 L-700.9,-497.1 L-695.3,-502.0 L-686.6,-505.1 L-12.0,-527.6 L-6.4,-527.1 L-2.2,-525.3 L0.8,-522.2 L3.1,-518.5 L4.5,-513.7 L5.4,-326.2 L17.4,-254.0 L21.0,-246.0 L38.5,-206.3 L60.0,-168.7 L112.2,-111.1 L133.1,-117.8 L178.9,-132.6 L402.1,-136.1 L403.6,-4.2 L204.5,5.8 L158.8,47.9 L161.9,205.9 Z" fill="#ead7d9" stroke="#d7d1c5" stroke-width="0.3"><title>Jackson Memorial Hospital</title></path><path d="M14.1,60.1 L17.0,179.0 L42.0,204.0 L72.0,202.9 L156.0,200.0 L154.8,56.0 L145.5,55.8 L145.5,43.2 L138.1,42.9 L137.7,32.0 L37.2,35.1 L34.7,43.2 L26.4,36.0 L15.0,47.9 L22.4,55.5 L15.9,55.7 L15.7,60.1 L14.1,60.1 Z" fill="#d6d2c9" stroke="#bab6ad" stroke-width="0.4"><title>Park Plaza East</title></path><path d="M28.8,251.7 L30.7,367.0 L79.3,366.0 L77.7,312.4 L86.9,303.0 L93.3,309.6 L93.1,312.5 L103.5,322.7 L121.9,303.6 L111.5,293.4 L111.6,289.7 L155.5,288.5 L154.2,247.8 L28.8,251.7 Z" fill="#d6d2c9" stroke="#bab6ad" stroke-width="0.4"><title>Bascom Palmer Eye Institute/Anne Bates Leach Eye Hospital</title></path><path d="M-422.5,207.5 L-376.5,184.6 L-319.7,156.2 L-313.9,173.5 L-349.5,219.4 L-392.6,274.9 L-368.7,293.5 L-304.9,211.3 L-293.5,219.1 L-292.2,218.1 L-281.3,226.4 L-281.8,228.8 L-278.0,232.5 L-274.2,232.4 L-260.6,216.8 L-264.6,208.7 L-266.4,209.4 L-272.3,197.4 L-270.0,196.3 L-273.0,191.0 L-263.0,186.0 L-252.6,174.6 L-207.6,173.3 L-205.8,232.1 L-203.8,308.2 L-212.0,308.4 L-211.1,341.1 L-109.6,338.3 L-110.5,305.5 L-128.0,306.0 L-128.7,279.6 L-146.1,280.1 L-146.8,256.7 L-189.9,257.9 L-190.7,231.6 L-141.8,230.1 L-144.0,154.4 L-100.0,153.0 L-98.1,141.0 L-17.1,138.9 L-19.7,41.1 L-84.7,41.7 L-85.2,19.2 L24.0,17.0 L27.2,14.8 L37.0,8.0 L39.0,-11.0 L30.0,-23.0 L23.2,-25.6 L23.0,-40.5 L-6.0,-85.6 L-6.0,-101.0 L-78.0,-99.0 L-76.8,-71.7 L-89.9,-71.1 L-89.5,-38.3 L-96.9,-38.0 L-95.4,19.5 L-93.1,19.4 L-92.7,42.0 L-97.4,42.1 L-100.1,-13.4 L-100.3,-30.7 L-97.6,-31.0 L-99.4,-96.7 L-98.1,-96.8 L-98.3,-103.9 L-101.5,-103.8 L-101.7,-108.1 L-99.0,-108.2 L-99.7,-127.6 L-126.3,-126.7 L-129.2,-126.7 L-131.3,-126.8 L-133.3,-127.4 L-135.6,-128.4 L-150.2,-136.8 L-153.1,-138.4 L-155.2,-139.2 L-157.5,-139.6 L-160.4,-139.6 L-171.4,-139.2 L-174.3,-134.5 L-181.4,-134.4 L-181.4,-138.2 L-255.0,-146.3 L-253.9,-110.2 L-252.1,-110.3 L-252.0,-105.6 L-253.8,-105.5 L-251.1,-15.6 L-246.8,-15.7 L-245.0,71.4 L-193.6,70.3 L-192.7,99.5 L-264.0,102.0 L-289.8,115.7 L-300.5,94.0 L-265.4,73.6 L-279.0,48.3 L-276.0,46.2 L-277.9,42.0 L-273.3,39.4 L-277.9,30.4 L-286.6,34.0 L-294.0,21.5 L-287.1,18.0 L-287.6,17.0 L-288.6,15.0 L-290.2,12.1 L-319.0,-43.0 L-330.2,-68.1 L-383.0,-46.9 L-431.0,-23.0 L-455.8,-5.5 L-481.8,14.0 L-513.0,49.0 L-527.0,65.0 L-510.0,102.0 L-496.2,116.3 L-485.0,119.0 L-471.2,118.0 L-443.3,165.9 L-442.3,167.9 L-422.5,207.5 Z" fill="#d6d2c9" stroke="#bab6ad" stroke-width="0.4"></path><path d="M355.6,10.2 L300.8,12.8 L192.3,16.1 L173.9,18.2" fill="none" stroke="#cec8bb" stroke-width="4.5" stroke-linecap="round" stroke-linejoin="round"/><path d="M355.6,10.2 L300.8,12.8 L192.3,16.1 L173.9,18.2" fill="none" stroke="#ffffff" stroke-width="3.4" stroke-linecap="round" stroke-linejoin="round"><title>Northwest 18th Street</title></path><path d="M120.2,221.1 L72.6,222.5" fill="none" stroke="#cec8bb" stroke-width="4.5" stroke-linecap="round" stroke-linejoin="round"/><path d="M120.2,221.1 L72.6,222.5" fill="none" stroke="#ffffff" stroke-width="3.4" stroke-linecap="round" stroke-linejoin="round"><title>Louis McCullar Way</title></path><path d="M319.0,215.4 L206.8,222.4 L199.8,222.2 L179.4,221.4" fill="none" stroke="#cec8bb" stroke-width="4.5" stroke-linecap="round" stroke-linejoin="round"/><path d="M319.0,215.4 L206.8,222.4 L199.8,222.2 L179.4,221.4" fill="none" stroke="#ffffff" stroke-width="3.4" stroke-linecap="round" stroke-linejoin="round"><title>Northwest 17th Street</title></path><path d="M179.4,221.4 L159.8,220.3 L153.2,220.2 L134.3,220.7 L120.2,221.1" fill="none" stroke="#cec8bb" stroke-width="4.5" stroke-linecap="round" stroke-linejoin="round"/><path d="M179.4,221.4 L159.8,220.3 L153.2,220.2 L134.3,220.7 L120.2,221.1" fill="none" stroke="#ffffff" stroke-width="3.4" stroke-linecap="round" stroke-linejoin="round"><title>Louis McCullar Way</title></path><path d="M72.6,222.5 L55.9,222.9" fill="none" stroke="#cec8bb" stroke-width="4.5" stroke-linecap="round" stroke-linejoin="round"/><path d="M72.6,222.5 L55.9,222.9" fill="none" stroke="#ffffff" stroke-width="3.4" stroke-linecap="round" stroke-linejoin="round"><title>Louis McCullar Way</title></path><path d="M55.9,222.9 L51.6,223.1" fill="none" stroke="#cec8bb" stroke-width="4.5" stroke-linecap="round" stroke-linejoin="round"/><path d="M55.9,222.9 L51.6,223.1" fill="none" stroke="#ffffff" stroke-width="3.4" stroke-linecap="round" stroke-linejoin="round"><title>Louis McCullar Way</title></path><path d="M-41.2,195.4 L-35.7,199.6 L-24.3,210.3 L-9.6,224.1 L-5.7,226.4 L1.2,229.3 L9.7,230.9 L16.0,231.4 L21.7,230.9 L42.1,230.3 L51.6,223.1" fill="none" stroke="#cec8bb" stroke-width="4.5" stroke-linecap="round" stroke-linejoin="round"/><path d="M-41.2,195.4 L-35.7,199.6 L-24.3,210.3 L-9.6,224.1 L-5.7,226.4 L1.2,229.3 L9.7,230.9 L16.0,231.4 L21.7,230.9 L42.1,230.3 L51.6,223.1" fill="none" stroke="#ffffff" stroke-width="3.4" stroke-linecap="round" stroke-linejoin="round"><title>Louis McCullar Way</title></path><path d="M51.6,223.1 L42.0,216.4 L34.5,216.2 L28.4,215.0 L24.1,212.4 L21.3,210.0 L-4.9,186.5" fill="none" stroke="#cec8bb" stroke-width="4.5" stroke-linecap="round" stroke-linejoin="round"/><path d="M51.6,223.1 L42.0,216.4 L34.5,216.2 L28.4,215.0 L24.1,212.4 L21.3,210.0 L-4.9,186.5" fill="none" stroke="#ffffff" stroke-width="3.4" stroke-linecap="round" stroke-linejoin="round"><title>Louis McCullar Way</title></path><path d="M199.0,-9.6 L145.5,43.2" fill="none" stroke="#cf828d" stroke-width="1.5" stroke-dasharray="1.6 3.0" opacity="0.62" stroke-linecap="round" stroke-linejoin="round"></path><path d="M142.7,-53.0 L146.1,-40.2 L148.9,-29.6 L151.3,-17.7 L152.5,-10.4 L151.9,-5.2 L150.0,-0.9 L146.5,3.0 L143.0,4.6 L139.4,5.1 L135.9,4.1 L132.5,3.4 L110.0,3.7 L110.1,6.7 L93.5,7.3 L73.2,8.1" fill="none" stroke="#cf828d" stroke-width="1.5" stroke-dasharray="1.6 3.0" opacity="0.62" stroke-linecap="round" stroke-linejoin="round"></path><path d="M-61.8,165.7 L-19.3,165.3 L-14.1,166.1 L-8.8,167.6 L-4.0,170.8 L24.5,197.9 L30.3,203.4 L35.1,205.2 L41.2,206.1 L72.1,205.2 L148.9,202.9 L153.5,202.2 L156.9,198.5 L157.8,195.7 L158.7,193.0 L155.8,43.8 L154.7,39.2 L151.8,35.7 L148.5,33.0 L145.0,31.7 L68.0,33.4 L12.1,34.6 L-42.6,36.3" fill="none" stroke="#cf828d" stroke-width="1.5" stroke-dasharray="1.6 3.0" opacity="0.62" stroke-linecap="round" stroke-linejoin="round"></path><path d="M164.6,312.7 L162.2,245.9 L159.0,241.1 L154.3,238.3 L148.1,235.7 L138.4,235.1 L124.7,235.6 L57.1,238.0 L47.0,238.4 L42.1,242.5 L22.0,243.2 L12.7,243.5 L1.1,240.4 L-6.1,238.3 L-10.8,235.2 L-47.7,201.5 L-59.9,201.9" fill="none" stroke="#cf828d" stroke-width="1.5" stroke-dasharray="1.6 3.0" opacity="0.62" stroke-linecap="round" stroke-linejoin="round"></path><path d="M21.8,237.5 L22.0,243.2 L22.5,259.6 L26.7,263.0 L27.5,279.3 L6.2,279.5 L0.9,278.1 L-3.0,274.7 L-6.0,269.5 L-5.8,254.5 L-3.9,248.5 L1.1,240.4" fill="none" stroke="#cf828d" stroke-width="1.5" stroke-dasharray="1.6 3.0" opacity="0.62" stroke-linecap="round" stroke-linejoin="round"></path><path d="M21.8,237.5 L21.7,230.9 L21.3,210.0 L21.1,202.0" fill="none" stroke="#cf828d" stroke-width="1.5" stroke-dasharray="1.6 3.0" opacity="0.62" stroke-linecap="round" stroke-linejoin="round"></path><path d="M160.2,198.3 L159.8,220.3 L159.5,237.0" fill="none" stroke="#cf828d" stroke-width="1.5" stroke-dasharray="1.6 3.0" opacity="0.62" stroke-linecap="round" stroke-linejoin="round"></path><path d="M159.5,237.0 L159.0,241.1" fill="none" stroke="#cf828d" stroke-width="1.5" stroke-dasharray="1.6 3.0" opacity="0.62" stroke-linecap="round" stroke-linejoin="round"></path><path d="M160.2,198.3 L157.8,195.7" fill="none" stroke="#cf828d" stroke-width="1.5" stroke-dasharray="1.6 3.0" opacity="0.62" stroke-linecap="round" stroke-linejoin="round"></path><path d="M21.1,202.0 L24.5,197.9" fill="none" stroke="#cf828d" stroke-width="1.5" stroke-dasharray="1.6 3.0" opacity="0.62" stroke-linecap="round" stroke-linejoin="round"></path><path d="M93.5,7.3 L92.4,-6.3 L91.1,-16.7 L90.5,-27.9 L90.0,-34.6 L88.1,-41.8 L85.5,-49.2" fill="none" stroke="#cf828d" stroke-width="1.5" stroke-dasharray="1.6 3.0" opacity="0.62" stroke-linecap="round" stroke-linejoin="round"></path><path d="M73.2,8.1 L69.8,24.6 L68.8,29.7" fill="none" stroke="#cf828d" stroke-width="1.5" stroke-dasharray="1.6 3.0" opacity="0.62" stroke-linecap="round" stroke-linejoin="round"></path><path d="M68.8,29.7 L68.0,33.4" fill="none" stroke="#cf828d" stroke-width="1.5" stroke-dasharray="1.6 3.0" opacity="0.62" stroke-linecap="round" stroke-linejoin="round"></path><path d="M151.7,0.4 L152.5,20.9 L152.9,33.7" fill="none" stroke="#cf828d" stroke-width="1.5" stroke-dasharray="1.6 3.0" opacity="0.62" stroke-linecap="round" stroke-linejoin="round"></path><path d="M151.7,0.4 L150.0,-0.9" fill="none" stroke="#cf828d" stroke-width="1.5" stroke-dasharray="1.6 3.0" opacity="0.62" stroke-linecap="round" stroke-linejoin="round"></path><path d="M152.9,33.7 L151.8,35.7" fill="none" stroke="#cf828d" stroke-width="1.5" stroke-dasharray="1.6 3.0" opacity="0.62" stroke-linecap="round" stroke-linejoin="round"></path><path d="M179.8,-58.4 L188.2,-19.5 L190.0,-13.2 L192.5,-7.7 L195.8,-3.9 L199.5,-0.5 L203.6,1.4 L209.0,1.9 L385.7,-4.9" fill="none" stroke="#cf828d" stroke-width="1.5" stroke-dasharray="1.6 3.0" opacity="0.62" stroke-linecap="round" stroke-linejoin="round"></path><path d="M151.7,0.4 L173.7,-0.4 L192.1,-1.2" fill="none" stroke="#cf828d" stroke-width="1.5" stroke-dasharray="1.6 3.0" opacity="0.62" stroke-linecap="round" stroke-linejoin="round"></path><path d="M192.6,35.2 L174.2,34.5 L152.9,33.7" fill="none" stroke="#cf828d" stroke-width="1.5" stroke-dasharray="1.6 3.0" opacity="0.62" stroke-linecap="round" stroke-linejoin="round"></path><path d="M192.1,-1.2 L192.3,16.1 L192.6,35.2" fill="none" stroke="#cf828d" stroke-width="1.5" stroke-dasharray="1.6 3.0" opacity="0.62" stroke-linecap="round" stroke-linejoin="round"></path><path d="M72.6,222.5 L72.1,205.2 L72.0,202.9" fill="none" stroke="#cec8bb" stroke-width="3.5" stroke-linecap="round" stroke-linejoin="round"/><path d="M72.6,222.5 L72.1,205.2 L72.0,202.9" fill="none" stroke="#ffffff" stroke-width="2.5" stroke-linecap="round" stroke-linejoin="round"></path><path d="M314.7,45.5 L280.7,46.6 L248.0,47.6 L214.5,48.7 L219.2,177.7 L251.7,176.5 L285.5,175.3 L318.0,174.2" fill="none" stroke="#cec8bb" stroke-width="3.5" stroke-linecap="round" stroke-linejoin="round"/><path d="M314.7,45.5 L280.7,46.6 L248.0,47.6 L214.5,48.7 L219.2,177.7 L251.7,176.5 L285.5,175.3 L318.0,174.2" fill="none" stroke="#ffffff" stroke-width="2.5" stroke-linecap="round" stroke-linejoin="round"></path><path d="M248.0,47.6 L251.7,176.5" fill="none" stroke="#cec8bb" stroke-width="3.5" stroke-linecap="round" stroke-linejoin="round"/><path d="M248.0,47.6 L251.7,176.5" fill="none" stroke="#ffffff" stroke-width="2.5" stroke-linecap="round" stroke-linejoin="round"></path><path d="M94.6,244.2 L123.2,237.8 L124.7,235.6 L134.3,220.7" fill="none" stroke="#cec8bb" stroke-width="3.5" stroke-linecap="round" stroke-linejoin="round"/><path d="M94.6,244.2 L123.2,237.8 L124.7,235.6 L134.3,220.7" fill="none" stroke="#ffffff" stroke-width="2.5" stroke-linecap="round" stroke-linejoin="round"></path><path d="M55.9,222.9 L57.1,238.0 L72.9,244.3" fill="none" stroke="#cec8bb" stroke-width="3.5" stroke-linecap="round" stroke-linejoin="round"/><path d="M55.9,222.9 L57.1,238.0 L72.9,244.3" fill="none" stroke="#ffffff" stroke-width="2.5" stroke-linecap="round" stroke-linejoin="round"></path><path d="M72.9,244.3 L94.6,244.2" fill="none" stroke="#cec8bb" stroke-width="3.5" stroke-linecap="round" stroke-linejoin="round"/><path d="M72.9,244.3 L94.6,244.2" fill="none" stroke="#ffffff" stroke-width="2.5" stroke-linecap="round" stroke-linejoin="round"></path><path d="M63.1,24.9 L64.4,10.6 L65.4,-8.9 L59.1,-20.9 L47.9,-25.4 L37.0,-25.0 L30.0,-23.0" fill="none" stroke="#cec8bb" stroke-width="3.5" stroke-linecap="round" stroke-linejoin="round"/><path d="M63.1,24.9 L64.4,10.6 L65.4,-8.9 L59.1,-20.9 L47.9,-25.4 L37.0,-25.0 L30.0,-23.0" fill="none" stroke="#ffffff" stroke-width="2.5" stroke-linecap="round" stroke-linejoin="round"></path><path d="M30.0,-23.0 L25.0,-7.2 L27.2,14.8" fill="none" stroke="#cec8bb" stroke-width="3.5" stroke-linecap="round" stroke-linejoin="round"/><path d="M30.0,-23.0 L25.0,-7.2 L27.2,14.8" fill="none" stroke="#ffffff" stroke-width="2.5" stroke-linecap="round" stroke-linejoin="round"></path><path d="M27.2,14.8 L28.8,26.4" fill="none" stroke="#cec8bb" stroke-width="3.5" stroke-linecap="round" stroke-linejoin="round"/><path d="M27.2,14.8 L28.8,26.4" fill="none" stroke="#ffffff" stroke-width="2.5" stroke-linecap="round" stroke-linejoin="round"></path><path d="M173.9,18.2 L152.5,20.9 L69.8,24.6 L63.1,24.9 L28.8,26.4 L-34.1,27.7" fill="none" stroke="#cec8bb" stroke-width="4.8" stroke-linecap="round" stroke-linejoin="round"/><path d="M173.9,18.2 L152.5,20.9 L69.8,24.6 L63.1,24.9 L28.8,26.4 L-34.1,27.7" fill="none" stroke="#ffffff" stroke-width="3.7" stroke-linecap="round" stroke-linejoin="round"><title>Jack Bluni Drive</title></path><path d="M182.9,312.0 L180.1,239.2 L179.4,221.4" fill="none" stroke="#d1c4aa" stroke-width="5.4" stroke-linecap="round" stroke-linejoin="round"/><path d="M182.9,312.0 L180.1,239.2 L179.4,221.4" fill="none" stroke="#f4d99b" stroke-width="4.0" stroke-linecap="round" stroke-linejoin="round"><title>Northwest 9th Avenue</title></path><path d="M179.4,221.4 L178.7,198.2 L176.9,132.5 L176.4,112.2 L174.2,34.5 L173.9,18.2" fill="none" stroke="#d1c4aa" stroke-width="5.4" stroke-linecap="round" stroke-linejoin="round"/><path d="M179.4,221.4 L178.7,198.2 L176.9,132.5 L176.4,112.2 L174.2,34.5 L173.9,18.2" fill="none" stroke="#f4d99b" stroke-width="4.0" stroke-linecap="round" stroke-linejoin="round"><title>Northwest 9th Avenue</title></path><path d="M173.9,18.2 L173.7,-0.4 L173.6,-14.0 L172.8,-23.8 L167.9,-42.4 L163.3,-59.7" fill="none" stroke="#d1c4aa" stroke-width="5.4" stroke-linecap="round" stroke-linejoin="round"/><path d="M173.9,18.2 L173.7,-0.4 L173.6,-14.0 L172.8,-23.8 L167.9,-42.4 L163.3,-59.7" fill="none" stroke="#f4d99b" stroke-width="4.0" stroke-linecap="round" stroke-linejoin="round"><title>Northwest 9th Avenue</title></path><text x="85.0" y="118.0" text-anchor="middle" font-family="Arial, sans-serif" font-size="7.4" font-weight="600" paint-order="stroke" stroke="#e9f3f8" stroke-width="1.65" stroke-linejoin="round" fill="#2f7fad" textLength="71.0" lengthAdjust="spacing">Park Plaza East</text><text x="175.3" y="73.4" transform="rotate(88.4 175.3 73.4)" text-anchor="middle" dominant-baseline="central" font-family="Arial, sans-serif" font-size="8.3" textLength="106.2" lengthAdjust="spacing" font-weight="650" paint-order="stroke" stroke="#fffaf0" stroke-width="2.05" stroke-linejoin="round" fill="#6f573d">Northwest 9th Avenue</text><text x="111.1" y="22.8" transform="rotate(-2.5 111.1 22.8)" text-anchor="middle" dominant-baseline="central" font-family="Arial, sans-serif" font-size="8.3" textLength="85.0" lengthAdjust="spacing" font-weight="650" paint-order="stroke" stroke="#fffaf0" stroke-width="2.05" stroke-linejoin="round" fill="#695f54">Jack Bluni Drive</text><text x="27.7" y="169.6" text-anchor="middle" font-family="Arial, sans-serif" font-size="6.5" textLength="18.0" lengthAdjust="spacing" font-weight="500" paint-order="stroke" stroke="#f3f5ee" stroke-width="1.55" stroke-linejoin="round" fill="#6f777a">901</text><g><title>Park Plaza East</title><circle cx="70.0" cy="82.9" r="6.0" fill="#2f8ec8" stroke="#ffffff" stroke-width="1.7"/><text x="70.0" y="83.1" text-anchor="middle" dominant-baseline="central" font-family="Arial, sans-serif" font-size="11.4" font-weight="700" fill="#ffffff">P</text></g><g><title>Northwest 9th Avenue &amp; Northwest 17th Street</title><rect x="154.6" y="109.3" width="6.9" height="6.1" rx="1.3" fill="#2796c9" stroke="#ffffff" stroke-width="1.05"/><rect x="155.8" y="110.5" width="4.4" height="2.1" rx="0.35" fill="#ffffff"/><circle cx="156.1" cy="114.3" r="0.5" fill="#ffffff"/><circle cx="159.9" cy="114.3" r="0.5" fill="#ffffff"/></g><g><title>Northwest 9th Avenue &amp; Northwest 17th Street</title><rect x="197.1" y="129.6" width="6.9" height="6.1" rx="1.3" fill="#2796c9" stroke="#ffffff" stroke-width="1.05"/><rect x="198.4" y="130.8" width="4.4" height="2.1" rx="0.35" fill="#ffffff"/><circle cx="198.7" cy="134.6" r="0.5" fill="#ffffff"/><circle cx="202.4" cy="134.6" r="0.5" fill="#ffffff"/></g><g><title>signal</title><rect x="176.7" y="216.2" width="5.4" height="10.4" rx="2.1" fill="#3f4b52" stroke="#ffffff" stroke-width="1.1"/><circle cx="179.4" cy="218.6" r="1.1" fill="#d85a4f"/><circle cx="179.4" cy="221.4" r="1.1" fill="#e2b84b"/><circle cx="179.4" cy="224.2" r="1.1" fill="#55a86b"/></g><g><title>Au Bon Pain</title><circle cx="27.0" cy="104.4" r="5.2" fill="#c97924" stroke="#ffffff" stroke-width="1.7"/><path d="M24.7,101.1 L24.7,107.4 M23.4,101.1 L26.0,101.1 M29.1,101.1 L29.1,107.4 M29.1,101.1 C31.0,102.5 30.6,104.6 29.1,104.9" stroke="#ffffff" stroke-width="1.26" stroke-linecap="round" stroke-linejoin="round" fill="none"/></g><g><title>Dunkin&#x27;</title><circle cx="25.2" cy="67.2" r="5.2" fill="#c97924" stroke="#ffffff" stroke-width="1.7"/><path d="M22.9,63.8 L22.9,70.1 M21.7,63.8 L24.2,63.8 M27.3,63.8 L27.3,70.1 M27.3,63.8 C29.2,65.3 28.8,67.4 27.3,67.6" stroke="#ffffff" stroke-width="1.26" stroke-linecap="round" stroke-linejoin="round" fill="none"/></g><g opacity="0.56"><title>crossing</title><path d="M19.0,208.2 L23.6,208.2 M19.0,210.0 L23.6,210.0 M19.0,211.8 L23.6,211.8" stroke="#ffffff" stroke-width="2.1" stroke-linecap="round"/><path d="M19.0,208.2 L23.6,208.2 M19.0,210.0 L23.6,210.0 M19.0,211.8 L23.6,211.8" stroke="#59656a" stroke-width="0.85" stroke-linecap="round"/></g><g opacity="0.56"><title>crossing</title><path d="M19.4,229.1 L24.0,229.1 M19.4,230.9 L24.0,230.9 M19.4,232.7 L24.0,232.7" stroke="#ffffff" stroke-width="2.1" stroke-linecap="round"/><path d="M19.4,229.1 L24.0,229.1 M19.4,230.9 L24.0,230.9 M19.4,232.7 L24.0,232.7" stroke="#59656a" stroke-width="0.85" stroke-linecap="round"/></g><g opacity="0.56"><title>crossing</title><path d="M197.5,220.4 L202.1,220.4 M197.5,222.2 L202.1,222.2 M197.5,224.0 L202.1,224.0" stroke="#ffffff" stroke-width="2.1" stroke-linecap="round"/><path d="M197.5,220.4 L202.1,220.4 M197.5,222.2 L202.1,222.2 M197.5,224.0 L202.1,224.0" stroke="#59656a" stroke-width="0.85" stroke-linecap="round"/></g><g opacity="0.56"><title>crossing</title><path d="M176.5,196.4 L181.0,196.4 M176.5,198.2 L181.0,198.2 M176.5,200.0 L181.0,200.0" stroke="#ffffff" stroke-width="2.1" stroke-linecap="round"/><path d="M176.5,196.4 L181.0,196.4 M176.5,198.2 L181.0,198.2 M176.5,200.0 L181.0,200.0" stroke="#59656a" stroke-width="0.85" stroke-linecap="round"/></g><g opacity="0.56"><title>crossing</title><path d="M177.8,237.4 L182.3,237.4 M177.8,239.2 L182.3,239.2 M177.8,241.0 L182.3,241.0" stroke="#ffffff" stroke-width="2.1" stroke-linecap="round"/><path d="M177.8,237.4 L182.3,237.4 M177.8,239.2 L182.3,239.2 M177.8,241.0 L182.3,241.0" stroke="#59656a" stroke-width="0.85" stroke-linecap="round"/></g><g opacity="0.56"><title>crossing</title><path d="M157.5,218.5 L162.1,218.5 M157.5,220.3 L162.1,220.3 M157.5,222.1 L162.1,222.1" stroke="#ffffff" stroke-width="2.1" stroke-linecap="round"/><path d="M157.5,218.5 L162.1,218.5 M157.5,220.3 L162.1,220.3 M157.5,222.1 L162.1,222.1" stroke="#59656a" stroke-width="0.85" stroke-linecap="round"/></g><g opacity="0.56"><title>crossing</title><path d="M190.0,14.3 L194.6,14.3 M190.0,16.1 L194.6,16.1 M190.0,17.9 L194.6,17.9" stroke="#ffffff" stroke-width="2.1" stroke-linecap="round"/><path d="M190.0,14.3 L194.6,14.3 M190.0,16.1 L194.6,16.1 M190.0,17.9 L194.6,17.9" stroke="#59656a" stroke-width="0.85" stroke-linecap="round"/></g></svg>