<svg xmlns="http://www.w3.org/2000/svg" width="256" height="256" viewBox="0 0 256 256"><rect width="256" height="256" fill="#f1efe7"/><path d="M-4106.7,978.3 L-3891.9,889.0 L-3824.7,856.7 L-3524.2,712.4 L-3467.8,767.0 L-3462.9,771.7 L-3357.5,681.5 L-3332.4,662.4 L-3290.5,624.6 L-3054.4,407.8 L-2863.9,190.2 L-2856.6,176.3 L-2849.6,168.4 L-2838.5,155.7 L-2827.2,142.8 L-2822.6,137.5 L-2897.7,40.4 L-2798.3,-19.2 L-2744.4,52.5 L-2668.2,-34.7 L-2732.7,-120.1 L-2652.8,-203.4 L-2591.3,-122.4 L-2520.7,-202.8 L-2490.6,-222.5 L-2343.4,-318.0 L-2270.7,-366.3 L-2183.1,-423.9 L-2141.7,-451.1 L-2036.8,-518.8 L-2063.8,-554.3 L-2112.1,-619.0 L-1987.2,-698.4 L-1941.7,-721.9 L-1938.2,-724.4 L-1914.2,-742.9 L-1828.6,-788.7 L-1822.7,-797.9 L-1798.7,-814.4 L-1785.7,-833.4 L-1782.0,-836.2 L-1761.1,-844.3 L-1713.9,-861.2 L-1681.6,-875.4 L-1567.5,-929.0 L-1566.1,-925.3 L-1470.4,-966.2 L-1431.3,-916.1 L-1344.2,-974.2 L-1331.8,-982.7 L-1330.6,-983.7 L-1329.4,-985.3 L-1327.5,-988.6 L-1326.5,-991.7 L-1325.9,-995.4 L-1326.0,-998.4 L-1326.4,-1001.3 L-1326.8,-1004.6 L-1326.9,-1007.1 L-1326.7,-1009.2 L-1326.3,-1011.4 L-1324.7,-1015.4 L-1323.6,-1017.6 L-1321.1,-1021.4 L-1318.5,-1024.2 L-1305.8,-1029.3 L-1295.2,-1033.3 L-1281.7,-1037.7 L-1275.4,-1039.4 L-1264.2,-1043.1 L-1256.3,-1045.9 L-1245.4,-1050.4 L-1230.6,-1056.9 L-1214.6,-1064.4 L-1206.0,-1068.6 L-1195.2,-1074.1 L-1185.1,-1079.7 L-1175.0,-1085.7 L-1164.7,-1092.4 L-1161.5,-1094.6 L-1140.8,-1110.4 L-1123.4,-1123.8 L-1106.4,-1138.2 L-1090.5,-1153.2 L-1079.0,-1166.1 L-1067.6,-1180.0 L-1053.6,-1198.0 L-1040.8,-1216.0 L-1026.1,-1239.1 L-1016.5,-1257.0 L-1010.5,-1268.4 L-1001.6,-1287.7 L-994.1,-1305.6 L-987.4,-1324.9 L-982.0,-1341.8 L-976.1,-1369.2 L-971.8,-1393.7 L-969.5,-1414.7 L-967.5,-1439.5 L-967.3,-1466.0 L-968.9,-1490.5 L-973.1,-1522.5 L-977.5,-1544.3 L-982.5,-1564.9 L-989.9,-1588.3 L-996.2,-1606.2 L-1003.4,-1625.7 L-1010.2,-1641.9 L-1014.8,-1652.4 L-1016.7,-1660.1 L-1017.0,-1666.0 L-1016.4,-1671.3 L-1014.3,-1675.9 L-1011.1,-1679.8 L-1006.9,-1682.0 L-1002.4,-1682.6 L-990.3,-1679.7 L-956.6,-1671.6 L-945.4,-1926.3 L-901.7,-2380.9 L-949.2,-2392.1 L-954.4,-2406.4 L-954.2,-2426.9 L-947.6,-2473.4 L-938.6,-2483.9 L-930.6,-2514.1 L-880.1,-2502.4 L-852.3,-2792.9 L-844.6,-2873.3 L-860.3,-2877.2 L-850.8,-2915.6 L-883.1,-2923.3 L-879.0,-2946.8 L-873.3,-2962.3 L-866.2,-2980.4 L-854.2,-3005.7 L-841.3,-3002.8 L-823.9,-3185.5 L-819.8,-3296.3 L-819.0,-3316.7 L-809.6,-3387.2 L-790.9,-3562.9 L-666.1,-3888.3 L-637.6,-3977.0 L-290.9,-4110.0 L-257.0,-4123.6 L-251.1,-4126.8 L-246.5,-4131.0 L-241.4,-4136.9 L-237.5,-4143.8 L-234.9,-4150.6 L-234.3,-4160.5 L-234.8,-4172.8 L-239.4,-4328.3 L-241.1,-4358.4 L-241.6,-4379.1 L-242.3,-4419.3 L-243.1,-4431.9 L-244.6,-4442.5 L-246.7,-4451.9 L-249.8,-4461.5 L-254.7,-4472.8 L-261.9,-4484.9 L-268.9,-4494.5 L-274.3,-4503.6 L-279.8,-4515.7 L-284.4,-4527.3 L-286.2,-4536.8 L-287.6,-4547.3 L-288.3,-4557.8 L-288.0,-4568.0 L-286.8,-4579.9 L-284.0,-4591.6 L-280.3,-4602.0 L-276.4,-4611.5 L-271.4,-4620.7 L-265.3,-4631.9 L-261.3,-4642.0 L-257.8,-4654.9 L-251.4,-4664.7 L-253.6,-4753.9 L-256.9,-4759.1 L-257.9,-4819.7 L-259.6,-4891.2 L-258.4,-4901.1 L-255.2,-4911.2 L-247.2,-4927.0 L-193.7,-5042.1 L-192.6,-5044.0 L-183.2,-5064.5 L-174.3,-5083.9 L-164.3,-5103.9 L-154.5,-5124.5 L-149.7,-5134.5 L-97.1,-5242.4 L-40.9,-5361.6 L80.7,-5608.4 L7.6,-5690.3 L-52.0,-5563.3 L-103.5,-5453.4 L-111.3,-5437.8 L-127.2,-5405.3 L-159.0,-5408.0 L-167.7,-5408.5 L-170.8,-5405.7 L-166.6,-5401.9 L-182.9,-5387.4 L-195.8,-5375.5 L-198.2,-5324.6 L-203.0,-5314.4 L-218.6,-5315.0 L-221.2,-5315.9 L-425.6,-5400.3 L-430.0,-5402.6 L-434.7,-5405.6 L-442.1,-5411.2 L-447.8,-5416.6 L-452.6,-5421.8 L-457.3,-5428.2 L-460.9,-5433.8 L-463.7,-5439.6 L-465.9,-5445.7 L-467.4,-5449.9 L-468.5,-5455.0 L-469.3,-5461.0 L-470.1,-5469.2 L-470.1,-5480.9 L-471.5,-5520.6 L-465.9,-5520.9 L-466.7,-5541.9 L-467.6,-5576.5 L-462.4,-5576.6 L-462.8,-5600.2 L-468.7,-5600.1 L-471.4,-5699.5 L-465.8,-5699.8 L-466.7,-5723.1 L-472.1,-5722.9 L-474.4,-5796.4 L-447.4,-5825.5 L-412.9,-5826.7 L-387.2,-5827.6 L-353.3,-5828.7 L-320.7,-5829.7 L-291.5,-5830.7 L-278.8,-5831.3 L-279.4,-5842.6 L-279.6,-5854.4 L-281.5,-5892.7 L-282.2,-5965.8 L-283.2,-5967.1 L-283.4,-5974.3 L-281.3,-5974.4 L-286.4,-6150.5 L-290.8,-6316.2 L-291.5,-6321.4 L-291.9,-6331.0 L-364.1,-6328.4 L-412.1,-6332.5 L-771.4,-6320.0 L-771.5,-6323.2 L-772.2,-6338.5 L-942.6,-6332.5 L-942.9,-6360.8 L-965.4,-6365.9 L-969.4,-6487.0 L-306.6,-6510.0 L-295.6,-6525.1 L-296.0,-6568.1 L-296.8,-6605.3 L-297.4,-6628.6 L-298.3,-6651.3 L-351.0,-6676.1 L-353.1,-6731.2 L-299.1,-6758.0 L-304.0,-6885.5 L-305.4,-6891.8 L-359.1,-6916.9 L-360.8,-6985.1 L-309.8,-7011.4 L-332.5,-7288.3 L-326.5,-7411.5 L-323.5,-7612.4 L-323.7,-7830.9 L-318.9,-7861.5 L-318.6,-7876.3 L-323.4,-7894.1 L-318.4,-7894.1 L-318.4,-7910.2 L-315.4,-8321.2 L-315.9,-8339.5 L-321.6,-8339.5 L-321.4,-8415.1 L-324.7,-8419.8 L-329.9,-8497.8 L-319.6,-8569.1 L-320.9,-8655.4 L-324.4,-8676.1 L-319.1,-8740.0 L-322.7,-8817.3 L-331.7,-8900.0 L-348.8,-9034.0 L-340.7,-9070.9 L-344.3,-9106.8 L-374.9,-9132.9 L-419.8,-9132.5 L-488.2,-9123.5 L-532.7,-9123.5 L-573.1,-9138.3 L-626.2,-9174.7 L-626.2,-9240.0 L-627.6,-9320.3 L-622.4,-9387.2 L-604.8,-9439.4 L-310.1,-9444.9 L-303.3,-9862.8 L-303.3,-10464.4 L-306.4,-10682.7 L15605.8,-17254.4 L15605.8,18963.8 L-4106.7,18963.8 L-4106.7,978.3 Z" fill="#add7e1" stroke="none"><title>Biscayne Bay</title></path><path d="M-168.8,-2092.5 L84.6,3264.4" fill="none" stroke="#6fb5c7" stroke-width="1.7" stroke-dasharray="5 7" opacity="0.34" stroke-linecap="round" stroke-linejoin="round"><title>Atlantic Intracoastal Waterway</title></path></svg>