<svg xmlns="http://www.w3.org/2000/svg" width="256" height="256" viewBox="0 0 256 256"><rect width="256" height="256" fill="#f1efe7"/><path d="M-4106.7,-14637.7 L-3891.9,-14727.0 L-3824.7,-14759.3 L-3524.2,-14903.6 L-3467.8,-14849.0 L-3462.9,-14844.3 L-3357.5,-14934.5 L-3332.4,-14953.6 L-3290.5,-14991.4 L-3054.4,-15208.2 L-2863.9,-15425.8 L-2856.6,-15439.7 L-2849.6,-15447.6 L-2838.5,-15460.3 L-2827.2,-15473.2 L-2822.6,-15478.5 L-2897.7,-15575.6 L-2798.3,-15635.2 L-2744.4,-15563.5 L-2668.2,-15650.7 L-2732.7,-15736.1 L-2652.8,-15819.4 L-2591.3,-15738.4 L-2520.7,-15818.8 L-2490.6,-15838.5 L-2343.4,-15934.0 L-2270.7,-15982.3 L-2183.1,-16039.9 L-2141.7,-16067.1 L-2036.8,-16134.8 L-2063.8,-16170.3 L-2112.1,-16235.0 L-1987.2,-16314.4 L-1941.7,-16337.9 L-1938.2,-16340.4 L-1914.2,-16358.9 L-1828.6,-16404.7 L-1822.7,-16413.9 L-1798.7,-16430.4 L-1785.7,-16449.4 L-1782.0,-16452.2 L-1761.1,-16460.3 L-1713.9,-16477.2 L-1681.6,-16491.4 L-1567.5,-16545.0 L-1566.1,-16541.3 L-1470.4,-16582.2 L-1431.3,-16532.1 L-1344.2,-16590.2 L-1331.8,-16598.7 L-1330.6,-16599.7 L-1329.4,-16601.3 L-1327.5,-16604.6 L-1326.5,-16607.7 L-1325.9,-16611.4 L-1326.0,-16614.4 L-1326.4,-16617.3 L-1326.8,-16620.6 L-1326.9,-16623.1 L-1326.7,-16625.2 L-1326.3,-16627.4 L-1324.7,-16631.4 L-1323.6,-16633.6 L-1321.1,-16637.4 L-1318.5,-16640.2 L-1305.8,-16645.3 L-1295.2,-16649.3 L-1281.7,-16653.7 L-1275.4,-16655.4 L-1264.2,-16659.1 L-1256.3,-16661.9 L-1245.4,-16666.4 L-1230.6,-16672.9 L-1214.6,-16680.4 L-1206.0,-16684.6 L-1195.2,-16690.1 L-1185.1,-16695.7 L-1175.0,-16701.7 L-1164.7,-16708.4 L-1161.5,-16710.6 L-1140.8,-16726.4 L-1123.4,-16739.8 L-1106.4,-16754.2 L-1090.5,-16769.2 L-1079.0,-16782.1 L-1067.6,-16796.0 L-1053.6,-16814.0 L-1040.8,-16832.0 L-1026.1,-16855.1 L-1016.5,-16873.0 L-1010.5,-16884.4 L-1001.6,-16903.7 L-994.1,-16921.6 L-987.4,-16940.9 L-982.0,-16957.8 L-976.1,-16985.2 L-971.8,-17009.7 L-969.5,-17030.7 L-967.5,-17055.5 L-967.3,-17082.0 L-968.9,-17106.5 L-973.1,-17138.5 L-977.5,-17160.3 L-982.5,-17180.9 L-989.9,-17204.3 L-996.2,-17222.2 L-1003.4,-17241.7 L-1010.2,-17257.9 L-1014.8,-17268.4 L-1016.7,-17276.1 L-1017.0,-17282.0 L-1016.4,-17287.3 L-1014.3,-17291.9 L-1011.1,-17295.8 L-1006.9,-17298.0 L-1002.4,-17298.6 L-990.3,-17295.7 L-956.6,-17287.6 L-945.4,-17542.3 L-901.7,-17996.9 L-949.2,-18008.1 L-954.4,-18022.4 L-954.2,-18042.9 L-947.6,-18089.4 L-938.6,-18099.9 L-930.6,-18130.1 L-880.1,-18118.4 L-852.3,-18408.9 L-844.6,-18489.3 L-860.3,-18493.2 L-850.8,-18531.6 L-883.1,-18539.3 L-879.0,-18562.8 L-873.3,-18578.3 L-866.2,-18596.4 L-854.2,-18621.7 L-841.3,-18618.8 L-823.9,-18801.5 L-819.8,-18912.3 L-819.0,-18932.7 L-809.6,-19003.2 L-790.9,-19178.9 L-666.1,-19504.3 L-637.6,-19593.0 L-290.9,-19726.0 L-257.0,-19739.6 L-251.1,-19742.8 L-246.5,-19747.0 L-241.4,-19752.9 L-237.5,-19759.8 L-234.9,-19766.6 L-234.3,-19776.5 L-234.8,-19788.8 L-239.4,-19944.3 L-241.1,-19974.4 L-241.6,-19995.1 L-242.3,-20035.3 L-243.1,-20047.9 L-244.6,-20058.5 L-246.7,-20067.9 L-249.8,-20077.5 L-254.7,-20088.8 L-261.9,-20100.9 L-268.9,-20110.5 L-274.3,-20119.6 L-279.8,-20131.7 L-284.4,-20143.3 L-286.2,-20152.8 L-287.6,-20163.3 L-288.3,-20173.8 L-288.0,-20184.0 L-286.8,-20195.9 L-284.0,-20207.6 L-280.3,-20218.0 L-276.4,-20227.5 L-271.4,-20236.7 L-265.3,-20247.9 L-261.3,-20258.0 L-257.8,-20270.9 L-251.4,-20280.7 L-253.6,-20369.9 L-256.9,-20375.1 L-257.9,-20435.7 L-259.6,-20507.2 L-258.4,-20517.1 L-255.2,-20527.2 L-247.2,-20543.0 L-193.7,-20658.1 L-192.6,-20660.0 L-183.2,-20680.5 L-174.3,-20699.9 L-164.3,-20719.9 L-154.5,-20740.5 L-149.7,-20750.5 L-97.1,-20858.4 L-40.9,-20977.6 L80.7,-21224.4 L7.6,-21306.3 L-52.0,-21179.3 L-103.5,-21069.4 L-111.3,-21053.8 L-127.2,-21021.3 L-159.0,-21024.0 L-167.7,-21024.5 L-170.8,-21021.7 L-166.6,-21017.9 L-182.9,-21003.4 L-195.8,-20991.5 L-198.2,-20940.6 L-203.0,-20930.4 L-218.6,-20931.0 L-221.2,-20931.9 L-425.6,-21016.3 L-430.0,-21018.6 L-434.7,-21021.6 L-442.1,-21027.2 L-447.8,-21032.6 L-452.6,-21037.8 L-457.3,-21044.2 L-460.9,-21049.8 L-463.7,-21055.6 L-465.9,-21061.7 L-467.4,-21065.9 L-468.5,-21071.0 L-469.3,-21077.0 L-470.1,-21085.2 L-470.1,-21096.9 L-471.5,-21136.6 L-465.9,-21136.9 L-466.7,-21157.9 L-467.6,-21192.5 L-462.4,-21192.6 L-462.8,-21216.2 L-468.7,-21216.1 L-471.4,-21315.5 L-465.8,-21315.8 L-466.7,-21339.1 L-472.1,-21338.9 L-474.4,-21412.4 L-447.4,-21441.5 L-412.9,-21442.7 L-387.2,-21443.6 L-353.3,-21444.7 L-320.7,-21445.7 L-291.5,-21446.7 L-278.8,-21447.3 L-279.4,-21458.6 L-279.6,-21470.4 L-281.5,-21508.7 L-282.2,-21581.8 L-283.2,-21583.1 L-283.4,-21590.3 L-281.3,-21590.4 L-286.4,-21766.5 L-290.8,-21932.2 L-291.5,-21937.4 L-291.9,-21947.0 L-364.1,-21944.4 L-412.1,-21948.5 L-771.4,-21936.0 L-771.5,-21939.2 L-772.2,-21954.5 L-942.6,-21948.5 L-942.9,-21976.8 L-965.4,-21981.9 L-969.4,-22103.0 L-306.6,-22126.0 L-295.6,-22141.1 L-296.0,-22184.1 L-296.8,-22221.3 L-297.4,-22244.6 L-298.3,-22267.3 L-351.0,-22292.1 L-353.1,-22347.2 L-299.1,-22374.0 L-304.0,-22501.5 L-305.4,-22507.8 L-359.1,-22532.9 L-360.8,-22601.1 L-309.8,-22627.4 L-332.5,-22904.3 L-326.5,-23027.5 L-323.5,-23228.4 L-323.7,-23446.9 L-318.9,-23477.5 L-318.6,-23492.3 L-323.4,-23510.1 L-318.4,-23510.1 L-318.4,-23526.2 L-315.4,-23937.2 L-315.9,-23955.5 L-321.6,-23955.5 L-321.4,-24031.1 L-324.7,-24035.8 L-329.9,-24113.8 L-319.6,-24185.1 L-320.9,-24271.4 L-324.4,-24292.1 L-319.1,-24356.0 L-322.7,-24433.3 L-331.7,-24516.0 L-348.8,-24650.0 L-340.7,-24686.9 L-344.3,-24722.8 L-374.9,-24748.9 L-419.8,-24748.5 L-488.2,-24739.5 L-532.7,-24739.5 L-573.1,-24754.3 L-626.2,-24790.7 L-626.2,-24856.0 L-627.6,-24936.3 L-622.4,-25003.2 L-604.8,-25055.4 L-310.1,-25060.9 L-303.3,-25478.8 L-303.3,-26080.4 L-306.4,-26298.7 L15605.8,-32870.4 L15605.8,3347.8 L-4106.7,3347.8 L-4106.7,-14637.7 Z" fill="#add7e1" stroke="none"><title>Biscayne Bay</title></path><path d="M84.6,-12351.6 L-3025.0,1020.9" fill="none" stroke="#6fb5c7" stroke-width="1.7" stroke-dasharray="5 7" opacity="0.34" stroke-linecap="round" stroke-linejoin="round"><title>Atlantic Intracoastal Waterway</title></path></svg>