<svg xmlns="http://www.w3.org/2000/svg" width="256" height="256" viewBox="0 0 256 256"><rect width="256" height="256" fill="#f1efe7"/><path d="M-8202.7,8658.3 L-7987.9,8569.0 L-7920.7,8536.7 L-7620.2,8392.4 L-7563.8,8447.0 L-7558.9,8451.7 L-7453.5,8361.5 L-7428.4,8342.4 L-7386.5,8304.6 L-7150.4,8087.8 L-6959.9,7870.2 L-6952.6,7856.3 L-6945.6,7848.4 L-6934.5,7835.7 L-6923.2,7822.8 L-6918.6,7817.5 L-6993.7,7720.4 L-6894.3,7660.8 L-6840.4,7732.5 L-6764.2,7645.3 L-6828.7,7559.9 L-6748.8,7476.6 L-6687.3,7557.6 L-6616.7,7477.2 L-6586.6,7457.5 L-6439.4,7362.0 L-6366.7,7313.7 L-6279.1,7256.1 L-6237.7,7228.9 L-6132.8,7161.2 L-6159.8,7125.7 L-6208.1,7061.0 L-6083.2,6981.6 L-6037.7,6958.1 L-6034.2,6955.6 L-6010.2,6937.1 L-5924.6,6891.3 L-5918.7,6882.1 L-5894.7,6865.6 L-5881.7,6846.6 L-5878.0,6843.8 L-5857.1,6835.7 L-5809.9,6818.8 L-5777.6,6804.6 L-5663.5,6751.0 L-5662.1,6754.7 L-5566.4,6713.8 L-5527.3,6763.9 L-5440.2,6705.8 L-5427.8,6697.3 L-5426.6,6696.3 L-5425.4,6694.7 L-5423.5,6691.4 L-5422.5,6688.3 L-5421.9,6684.6 L-5422.0,6681.6 L-5422.4,6678.7 L-5422.8,6675.4 L-5422.9,6672.9 L-5422.7,6670.8 L-5422.3,6668.6 L-5420.7,6664.6 L-5419.6,6662.4 L-5417.1,6658.6 L-5414.5,6655.8 L-5401.8,6650.7 L-5391.2,6646.7 L-5377.7,6642.3 L-5371.4,6640.6 L-5360.2,6636.9 L-5352.3,6634.1 L-5341.4,6629.6 L-5326.6,6623.1 L-5310.6,6615.6 L-5302.0,6611.4 L-5291.2,6605.9 L-5281.1,6600.3 L-5271.0,6594.3 L-5260.7,6587.6 L-5257.5,6585.4 L-5236.8,6569.6 L-5219.4,6556.2 L-5202.4,6541.8 L-5186.5,6526.8 L-5175.0,6513.9 L-5163.6,6500.0 L-5149.6,6482.0 L-5136.8,6464.0 L-5122.1,6440.9 L-5112.5,6423.0 L-5106.5,6411.6 L-5097.6,6392.3 L-5090.1,6374.4 L-5083.4,6355.1 L-5078.0,6338.2 L-5072.1,6310.8 L-5067.8,6286.3 L-5065.5,6265.3 L-5063.5,6240.5 L-5063.3,6214.0 L-5064.9,6189.5 L-5069.1,6157.5 L-5073.5,6135.7 L-5078.5,6115.1 L-5085.9,6091.7 L-5092.2,6073.8 L-5099.4,6054.3 L-5106.2,6038.1 L-5110.8,6027.6 L-5112.7,6019.9 L-5113.0,6014.0 L-5112.4,6008.7 L-5110.3,6004.1 L-5107.1,6000.2 L-5102.9,5998.0 L-5098.4,5997.4 L-5086.3,6000.3 L-5052.6,6008.4 L-5041.4,5753.7 L-4997.7,5299.1 L-5045.2,5287.9 L-5050.4,5273.6 L-5050.2,5253.1 L-5043.6,5206.6 L-5034.6,5196.1 L-5026.6,5165.9 L-4976.1,5177.6 L-4948.3,4887.1 L-4940.6,4806.7 L-4956.3,4802.8 L-4946.8,4764.4 L-4979.1,4756.7 L-4975.0,4733.2 L-4969.3,4717.7 L-4962.2,4699.6 L-4950.2,4674.3 L-4937.3,4677.2 L-4919.9,4494.5 L-4915.8,4383.7 L-4915.0,4363.3 L-4905.6,4292.8 L-4886.9,4117.1 L-4762.1,3791.7 L-4733.6,3703.0 L-4386.9,3570.0 L-4353.0,3556.4 L-4347.1,3553.2 L-4342.5,3549.0 L-4337.4,3543.1 L-4333.5,3536.2 L-4330.9,3529.4 L-4330.3,3519.5 L-4330.8,3507.2 L-4335.4,3351.7 L-4337.1,3321.6 L-4337.6,3300.9 L-4338.3,3260.7 L-4339.1,3248.1 L-4340.6,3237.5 L-4342.7,3228.1 L-4345.8,3218.5 L-4350.7,3207.2 L-4357.9,3195.1 L-4364.9,3185.5 L-4370.3,3176.4 L-4375.8,3164.3 L-4380.4,3152.7 L-4382.2,3143.2 L-4383.6,3132.7 L-4384.3,3122.2 L-4384.0,3112.0 L-4382.8,3100.1 L-4380.0,3088.4 L-4376.3,3078.0 L-4372.4,3068.5 L-4367.4,3059.3 L-4361.3,3048.1 L-4357.3,3038.0 L-4353.8,3025.1 L-4347.4,3015.3 L-4349.6,2926.1 L-4352.9,2920.9 L-4353.9,2860.3 L-4355.6,2788.8 L-4354.4,2778.9 L-4351.2,2768.8 L-4343.2,2753.0 L-4289.7,2637.9 L-4288.6,2636.0 L-4279.2,2615.5 L-4270.3,2596.1 L-4260.3,2576.1 L-4250.5,2555.5 L-4245.7,2545.5 L-4193.1,2437.6 L-4136.9,2318.4 L-4015.3,2071.6 L-4088.4,1989.7 L-4148.0,2116.7 L-4199.5,2226.6 L-4207.3,2242.2 L-4223.2,2274.7 L-4255.0,2272.0 L-4263.7,2271.5 L-4266.8,2274.3 L-4262.6,2278.1 L-4278.9,2292.6 L-4291.8,2304.5 L-4294.2,2355.4 L-4299.0,2365.6 L-4314.6,2365.0 L-4317.2,2364.1 L-4521.6,2279.7 L-4526.0,2277.4 L-4530.7,2274.4 L-4538.1,2268.8 L-4543.8,2263.4 L-4548.6,2258.2 L-4553.3,2251.8 L-4556.9,2246.2 L-4559.7,2240.4 L-4561.9,2234.3 L-4563.4,2230.1 L-4564.5,2225.0 L-4565.3,2219.0 L-4566.1,2210.8 L-4566.1,2199.1 L-4567.5,2159.4 L-4561.9,2159.1 L-4562.7,2138.1 L-4563.6,2103.5 L-4558.4,2103.4 L-4558.8,2079.8 L-4564.7,2079.9 L-4567.4,1980.5 L-4561.8,1980.2 L-4562.7,1956.9 L-4568.1,1957.1 L-4570.4,1883.6 L-4543.4,1854.5 L-4508.9,1853.3 L-4483.2,1852.4 L-4449.3,1851.3 L-4416.7,1850.3 L-4387.5,1849.3 L-4374.8,1848.7 L-4375.4,1837.4 L-4375.6,1825.6 L-4377.5,1787.3 L-4378.2,1714.2 L-4379.2,1712.9 L-4379.4,1705.7 L-4377.3,1705.6 L-4382.4,1529.5 L-4386.8,1363.8 L-4387.5,1358.6 L-4387.9,1349.0 L-4460.1,1351.6 L-4508.1,1347.5 L-4867.4,1360.0 L-4867.5,1356.8 L-4868.2,1341.5 L-5038.6,1347.5 L-5038.9,1319.2 L-5061.4,1314.1 L-5065.4,1193.0 L-4402.6,1170.0 L-4391.6,1154.9 L-4392.0,1111.9 L-4392.8,1074.7 L-4393.4,1051.4 L-4394.3,1028.7 L-4447.0,1003.9 L-4449.1,948.8 L-4395.1,922.0 L-4400.0,794.5 L-4401.4,788.2 L-4455.1,763.1 L-4456.8,694.9 L-4405.8,668.6 L-4428.5,391.7 L-4422.5,268.5 L-4419.5,67.6 L-4419.7,-150.9 L-4414.9,-181.5 L-4414.6,-196.3 L-4419.4,-214.1 L-4414.4,-214.1 L-4414.4,-230.2 L-4411.4,-641.2 L-4411.9,-659.5 L-4417.6,-659.5 L-4417.4,-735.1 L-4420.7,-739.8 L-4425.9,-817.8 L-4415.6,-889.1 L-4416.9,-975.4 L-4420.4,-996.1 L-4415.1,-1060.0 L-4418.7,-1137.3 L-4427.7,-1220.0 L-4444.8,-1354.0 L-4436.7,-1390.9 L-4440.3,-1426.8 L-4470.9,-1452.9 L-4515.8,-1452.5 L-4584.2,-1443.5 L-4628.7,-1443.5 L-4669.1,-1458.3 L-4722.2,-1494.7 L-4722.2,-1560.0 L-4723.6,-1640.3 L-4718.4,-1707.2 L-4700.8,-1759.4 L-4406.1,-1764.9 L-4399.3,-2182.8 L-4399.3,-2784.4 L-4402.4,-3002.7 L11509.8,-9574.4 L11509.8,26643.8 L-8202.7,26643.8 L-8202.7,8658.3 Z" fill="#add7e1" stroke="none"><title>Biscayne Bay</title></path><path d="M-1.0,-1.0 L257.0,-1.0 L257.0,257.0 L-1.0,257.0 L-1.0,-1.0 Z" fill="#add7e1" stroke="none" fill-rule="evenodd"><title>Biscayne Bay</title></path></svg>