<svg xmlns="http://www.w3.org/2000/svg" width="256" height="256" viewBox="0 0 256 256"><defs><pattern id="park-dots" width="22" height="22" patternUnits="userSpaceOnUse"><circle cx="5" cy="5" r="2.1" fill="#63a95d" fill-opacity="0.26"/><circle cx="16" cy="7" r="1.55" fill="#76b970" fill-opacity="0.23"/><circle cx="10" cy="17" r="1.9" fill="#61a65b" fill-opacity="0.24"/><circle cx="21" cy="17" r="1.25" fill="#80c174" fill-opacity="0.18"/><circle cx="1" cy="19" r="1.2" fill="#70b46a" fill-opacity="0.17"/></pattern><pattern id="park-canopy" width="54" height="48" patternUnits="userSpaceOnUse"><circle cx="12" cy="11" r="3.6" fill="#5ea75a" fill-opacity="0.22"/><circle cx="31" cy="15" r="2.9" fill="#75ba6d" fill-opacity="0.18"/><circle cx="45" cy="31" r="3.3" fill="#67ae62" fill-opacity="0.20"/><circle cx="19" cy="39" r="2.5" fill="#83c378" fill-opacity="0.16"/></pattern></defs><rect width="256" height="256" fill="#f1efe7"/><path d="M-8202.7,-6701.7 L-7987.9,-6791.0 L-7920.7,-6823.3 L-7620.2,-6967.6 L-7563.8,-6913.0 L-7558.9,-6908.3 L-7453.5,-6998.5 L-7428.4,-7017.6 L-7386.5,-7055.4 L-7150.4,-7272.2 L-6959.9,-7489.8 L-6952.6,-7503.7 L-6945.6,-7511.6 L-6934.5,-7524.3 L-6923.2,-7537.2 L-6918.6,-7542.5 L-6993.7,-7639.6 L-6894.3,-7699.2 L-6840.4,-7627.5 L-6764.2,-7714.7 L-6828.7,-7800.1 L-6748.8,-7883.4 L-6687.3,-7802.4 L-6616.7,-7882.8 L-6586.6,-7902.5 L-6439.4,-7998.0 L-6366.7,-8046.3 L-6279.1,-8103.9 L-6237.7,-8131.1 L-6132.8,-8198.8 L-6159.8,-8234.3 L-6208.1,-8299.0 L-6083.2,-8378.4 L-6037.7,-8401.9 L-6034.2,-8404.4 L-6010.2,-8422.9 L-5924.6,-8468.7 L-5918.7,-8477.9 L-5894.7,-8494.4 L-5881.7,-8513.4 L-5878.0,-8516.2 L-5857.1,-8524.3 L-5809.9,-8541.2 L-5777.6,-8555.4 L-5663.5,-8609.0 L-5662.1,-8605.3 L-5566.4,-8646.2 L-5527.3,-8596.1 L-5440.2,-8654.2 L-5427.8,-8662.7 L-5426.6,-8663.7 L-5425.4,-8665.3 L-5423.5,-8668.6 L-5422.5,-8671.7 L-5421.9,-8675.4 L-5422.0,-8678.4 L-5422.4,-8681.3 L-5422.8,-8684.6 L-5422.9,-8687.1 L-5422.7,-8689.2 L-5422.3,-8691.4 L-5420.7,-8695.4 L-5419.6,-8697.6 L-5417.1,-8701.4 L-5414.5,-8704.2 L-5401.8,-8709.3 L-5391.2,-8713.3 L-5377.7,-8717.7 L-5371.4,-8719.4 L-5360.2,-8723.1 L-5352.3,-8725.9 L-5341.4,-8730.4 L-5326.6,-8736.9 L-5310.6,-8744.4 L-5302.0,-8748.6 L-5291.2,-8754.1 L-5281.1,-8759.7 L-5271.0,-8765.7 L-5260.7,-8772.4 L-5257.5,-8774.6 L-5236.8,-8790.4 L-5219.4,-8803.8 L-5202.4,-8818.2 L-5186.5,-8833.2 L-5175.0,-8846.1 L-5163.6,-8860.0 L-5149.6,-8878.0 L-5136.8,-8896.0 L-5122.1,-8919.1 L-5112.5,-8937.0 L-5106.5,-8948.4 L-5097.6,-8967.7 L-5090.1,-8985.6 L-5083.4,-9004.9 L-5078.0,-9021.8 L-5072.1,-9049.2 L-5067.8,-9073.7 L-5065.5,-9094.7 L-5063.5,-9119.5 L-5063.3,-9146.0 L-5064.9,-9170.5 L-5069.1,-9202.5 L-5073.5,-9224.3 L-5078.5,-9244.9 L-5085.9,-9268.3 L-5092.2,-9286.2 L-5099.4,-9305.7 L-5106.2,-9321.9 L-5110.8,-9332.4 L-5112.7,-9340.1 L-5113.0,-9346.0 L-5112.4,-9351.3 L-5110.3,-9355.9 L-5107.1,-9359.8 L-5102.9,-9362.0 L-5098.4,-9362.6 L-5086.3,-9359.7 L-5052.6,-9351.6 L-5041.4,-9606.3 L-4997.7,-10060.9 L-5045.2,-10072.1 L-5050.4,-10086.4 L-5050.2,-10106.9 L-5043.6,-10153.4 L-5034.6,-10163.9 L-5026.6,-10194.1 L-4976.1,-10182.4 L-4948.3,-10472.9 L-4940.6,-10553.3 L-4956.3,-10557.2 L-4946.8,-10595.6 L-4979.1,-10603.3 L-4975.0,-10626.8 L-4969.3,-10642.3 L-4962.2,-10660.4 L-4950.2,-10685.7 L-4937.3,-10682.8 L-4919.9,-10865.5 L-4915.8,-10976.3 L-4915.0,-10996.7 L-4905.6,-11067.2 L-4886.9,-11242.9 L-4762.1,-11568.3 L-4733.6,-11657.0 L-4386.9,-11790.0 L-4353.0,-11803.6 L-4347.1,-11806.8 L-4342.5,-11811.0 L-4337.4,-11816.9 L-4333.5,-11823.8 L-4330.9,-11830.6 L-4330.3,-11840.5 L-4330.8,-11852.8 L-4335.4,-12008.3 L-4337.1,-12038.4 L-4337.6,-12059.1 L-4338.3,-12099.3 L-4339.1,-12111.9 L-4340.6,-12122.5 L-4342.7,-12131.9 L-4345.8,-12141.5 L-4350.7,-12152.8 L-4357.9,-12164.9 L-4364.9,-12174.5 L-4370.3,-12183.6 L-4375.8,-12195.7 L-4380.4,-12207.3 L-4382.2,-12216.8 L-4383.6,-12227.3 L-4384.3,-12237.8 L-4384.0,-12248.0 L-4382.8,-12259.9 L-4380.0,-12271.6 L-4376.3,-12282.0 L-4372.4,-12291.5 L-4367.4,-12300.7 L-4361.3,-12311.9 L-4357.3,-12322.0 L-4353.8,-12334.9 L-4347.4,-12344.7 L-4349.6,-12433.9 L-4352.9,-12439.1 L-4353.9,-12499.7 L-4355.6,-12571.2 L-4354.4,-12581.1 L-4351.2,-12591.2 L-4343.2,-12607.0 L-4289.7,-12722.1 L-4288.6,-12724.0 L-4279.2,-12744.5 L-4270.3,-12763.9 L-4260.3,-12783.9 L-4250.5,-12804.5 L-4245.7,-12814.5 L-4193.1,-12922.4 L-4136.9,-13041.6 L-4015.3,-13288.4 L-4088.4,-13370.3 L-4148.0,-13243.3 L-4199.5,-13133.4 L-4207.3,-13117.8 L-4223.2,-13085.3 L-4255.0,-13088.0 L-4263.7,-13088.5 L-4266.8,-13085.7 L-4262.6,-13081.9 L-4278.9,-13067.4 L-4291.8,-13055.5 L-4294.2,-13004.6 L-4299.0,-12994.4 L-4314.6,-12995.0 L-4317.2,-12995.9 L-4521.6,-13080.3 L-4526.0,-13082.6 L-4530.7,-13085.6 L-4538.1,-13091.2 L-4543.8,-13096.6 L-4548.6,-13101.8 L-4553.3,-13108.2 L-4556.9,-13113.8 L-4559.7,-13119.6 L-4561.9,-13125.7 L-4563.4,-13129.9 L-4564.5,-13135.0 L-4565.3,-13141.0 L-4566.1,-13149.2 L-4566.1,-13160.9 L-4567.5,-13200.6 L-4561.9,-13200.9 L-4562.7,-13221.9 L-4563.6,-13256.5 L-4558.4,-13256.6 L-4558.8,-13280.2 L-4564.7,-13280.1 L-4567.4,-13379.5 L-4561.8,-13379.8 L-4562.7,-13403.1 L-4568.1,-13402.9 L-4570.4,-13476.4 L-4543.4,-13505.5 L-4508.9,-13506.7 L-4483.2,-13507.6 L-4449.3,-13508.7 L-4416.7,-13509.7 L-4387.5,-13510.7 L-4374.8,-13511.3 L-4375.4,-13522.6 L-4375.6,-13534.4 L-4377.5,-13572.7 L-4378.2,-13645.8 L-4379.2,-13647.1 L-4379.4,-13654.3 L-4377.3,-13654.4 L-4382.4,-13830.5 L-4386.8,-13996.2 L-4387.5,-14001.4 L-4387.9,-14011.0 L-4460.1,-14008.4 L-4508.1,-14012.5 L-4867.4,-14000.0 L-4867.5,-14003.2 L-4868.2,-14018.5 L-5038.6,-14012.5 L-5038.9,-14040.8 L-5061.4,-14045.9 L-5065.4,-14167.0 L-4402.6,-14190.0 L-4391.6,-14205.1 L-4392.0,-14248.1 L-4392.8,-14285.3 L-4393.4,-14308.6 L-4394.3,-14331.3 L-4447.0,-14356.1 L-4449.1,-14411.2 L-4395.1,-14438.0 L-4400.0,-14565.5 L-4401.4,-14571.8 L-4455.1,-14596.9 L-4456.8,-14665.1 L-4405.8,-14691.4 L-4428.5,-14968.3 L-4422.5,-15091.5 L-4419.5,-15292.4 L-4419.7,-15510.9 L-4414.9,-15541.5 L-4414.6,-15556.3 L-4419.4,-15574.1 L-4414.4,-15574.1 L-4414.4,-15590.2 L-4411.4,-16001.2 L-4411.9,-16019.5 L-4417.6,-16019.5 L-4417.4,-16095.1 L-4420.7,-16099.8 L-4425.9,-16177.8 L-4415.6,-16249.1 L-4416.9,-16335.4 L-4420.4,-16356.1 L-4415.1,-16420.0 L-4418.7,-16497.3 L-4427.7,-16580.0 L-4444.8,-16714.0 L-4436.7,-16750.9 L-4440.3,-16786.8 L-4470.9,-16812.9 L-4515.8,-16812.5 L-4584.2,-16803.5 L-4628.7,-16803.5 L-4669.1,-16818.3 L-4722.2,-16854.7 L-4722.2,-16920.0 L-4723.6,-17000.3 L-4718.4,-17067.2 L-4700.8,-17119.4 L-4406.1,-17124.9 L-4399.3,-17542.8 L-4399.3,-18144.4 L-4402.4,-18362.7 L11509.8,-24934.4 L11509.8,11283.8 L-8202.7,11283.8 L-8202.7,-6701.7 Z" fill="#add7e1" stroke="none"><title>Biscayne Bay</title></path><path d="M-96.8,55.6 L-86.0,41.2 L-84.8,21.4 L-78.8,3.4 L-64.3,-9.3 L-58.9,-30.3 L-44.5,-42.3 L-35.5,-58.5 L-41.5,-74.7 L-51.7,-82.2 L-57.3,-92.2 L-60.8,-110.9 L-68.2,-113.1 L-72.1,-121.8 L-71.2,-141.8 L-71.2,-166.1 L-72.5,-184.4 L-66.9,-205.7 L-59.1,-219.2 L-47.8,-223.9 L-23.8,-224.8 L-5.6,-222.6 L10.1,-215.7 L19.2,-207.0 L23.5,-199.6 L36.2,-193.5 L48.8,-192.2 L54.0,-193.9 L65.3,-188.7 L77.4,-179.6 L85.7,-171.3 L101.8,-164.4 L119.6,-163.1 L135.3,-170.9 L146.2,-170.9 L156.2,-160.5 L158.8,-148.7 L159.2,-137.0 L166.2,-127.4 L178.8,-122.2 L195.3,-124.4 L204.0,-120.0 L205.3,-112.6 L200.9,-104.4 L199.6,-93.5 L204.0,-85.7 L213.1,-75.2 L227.9,-73.5 L240.9,-76.5 L251.8,-81.3 L271.8,-76.5 L281.4,-70.0 L293.5,-63.1 L308.8,-66.6 L324.0,-61.8 L344.4,-55.2 L351.8,-51.8 L352.7,-45.2 L350.5,-39.6 L340.1,-40.9 L320.1,-44.8 L305.3,-49.2 L283.5,-52.6 L271.4,-57.0 L260.1,-63.5 L245.3,-66.6 L228.3,-61.8 L216.2,-55.2 L208.8,-40.5 L202.7,-30.9 L192.7,-29.6 L182.2,-32.6 L173.5,-41.8 L165.7,-44.4 L154.8,-41.8 L144.9,-45.7 L131.8,-47.8 L122.2,-51.8 L109.6,-49.2 L97.5,-39.6 L90.5,-25.2 L90.1,-11.8 L82.2,-3.5 L69.6,4.8 L60.9,14.3 L60.9,26.9 L68.8,33.9 L70.9,43.5 L66.2,52.6 L69.6,60.8 L83.1,68.7 L97.0,71.7 L109.2,70.4 L117.5,74.3 L116.1,80.0 L105.3,84.8 L92.2,88.2 L77.4,89.5 L65.7,86.5 L56.2,78.2 L44.0,74.8 L30.1,76.5 L18.3,85.6 L5.7,91.7 L-7.3,104.8 L-20.8,114.8 L-36.5,119.5 L-49.9,119.1 L-69.5,111.3 L-85.2,101.3 L-96.0,90.4 L-101.7,76.5 L-102.1,66.1 L-96.8,55.6 Z" fill="#dce8e7" stroke="#96bdc1" stroke-width="0.55"></path><path d="M-2806.8,-962.4 L-830.8,-879.6 L1145.2,-548.5 L2711.0,-93.3 L4202.4,1148.1 L2412.8,3010.0 L-2732.2,3010.0 L-3030.5,196.3 Z" fill="#f1efe7" stroke="#8ab09d" stroke-width="0.65"><title>Key Biscayne</title></path><path d="M-1112.3,2927.3 L1130.7,2941.2 L1238.5,2972.7 L1281.2,2859.3 L1339.2,2769.6 L1505.9,2422.7 L1579.8,2334.5 L1652.2,2183.7 L1712.5,2081.1 L1757.0,2023.1 L1773.6,1968.8 L1781.1,1857.2 L1784.1,1808.9 L1788.7,1772.7 L1778.9,1707.1 L1801.5,1575.9 L1810.5,1489.9 L1830.9,1399.4 L1836.2,1331.6 L1861.1,1209.4 L1870.9,1146.1 L1916.8,1054.1 L1920.6,1002.1 L1913.8,894.2 L1929.7,755.5 L1931.2,656.7 L1937.2,459.9 L1977.9,309.1 L2030.7,139.4 L2108.4,-24.9 L2263.2,-231.3 L2295.2,-292.3 L2316.0,-349.4 L2322.0,-410.8 L2333.7,-468.4 L2347.3,-509.5 L2416.5,-703.8 L2439.3,-776.0 L2451.2,-799.6 L2478.8,-849.2 L2510.3,-911.7 L2524.7,-964.8 L2535.7,-1020.1 L2555.4,-1095.5 L2575.8,-1191.8 L2600.9,-1324.8 L2616.8,-1398.1 L2631.5,-1474.8 L2638.9,-1542.6 L2644.8,-1643.4 L2644.4,-1745.8 L2638.0,-1806.0 L2630.4,-1869.7 L2616.8,-1955.3 L2617.1,-2000.4 L2614.1,-2052.6 L2604.3,-2100.4 L2578.5,-2163.3 L2568.8,-2247.8 L2570.5,-2300.5 L2564.8,-2341.9 L2553.6,-2352.7 L2528.9,-2380.4 L2544.4,-2393.2 L2536.5,-2409.4 L2517.3,-2423.8 L2470.6,-2481.1 L2468.3,-2501.8 L2460.7,-2527.1 L2409.1,-2558.7 L2388.4,-2550.8 L2364.2,-2510.9 L2349.9,-2521.4 L2351.0,-2529.7 L2367.3,-2547.0 L2371.4,-2571.9 L2357.9,-2574.3 L2333.3,-2579.9 L2319.4,-2609.3 L2278.7,-2610.0 L2227.8,-2604.2 L2179.9,-2654.3 L2164.9,-2705.5 L2012.4,-2769.5 L1882.3,-2833.4 L1702.1,-2945.4 L1574.5,-2980.7 L1434.4,-2931.5 L1360.8,-2882.5 L1324.6,-2849.4 L1204.1,-2849.4 L1058.4,-2871.5 L986.3,-2902.2 L928.7,-2846.2 L1010.2,-2758.5 L950.4,-2690.8 L863.6,-2646.5 L718.9,-2594.8 L640.7,-2538.1 L681.1,-2334.5 L700.2,-2288.2 L713.1,-2271.8 L721.6,-2267.6 L730.5,-2266.5 L751.8,-2279.0 L806.4,-2310.3 L806.9,-2310.3 L1043.0,-2551.6 L1042.5,-2551.6 L1117.7,-2551.7 L1118.2,-2551.7 L1289.2,-2381.7 L1289.3,-2307.3 L1155.9,-2170.7 L1155.4,-2170.7 L1052.6,-2065.5 L1053.1,-2065.5 L1089.0,-2030.2 L1085.1,-2014.3 L1084.0,-2002.5 L1086.6,-1991.6 L1098.1,-1989.0 L1112.1,-1990.3 L1124.5,-1998.2 L1222.5,-1903.3 L1232.2,-1906.5 L1234.9,-1897.9 L1241.7,-1886.4 L1258.2,-1870.7 L1274.7,-1855.0 L1290.5,-1839.9 L1308.4,-1822.8 L1324.4,-1807.5 L1340.4,-1792.3 L1356.2,-1777.3 L1336.6,-1738.2 L1301.6,-1706.2 L1197.6,-1671.2 L1167.6,-1677.2 L1116.6,-1653.2 L1060.2,-1430.3 L1001.6,-1394.2 L968.6,-1339.2 L932.0,-1359.2 L879.5,-1319.7 L872.5,-1221.7 L871.9,-1196.3 L854.8,-1186.1 L862.0,-1160.7 L870.5,-1136.2 L862.7,-1129.4 L853.3,-1129.3 L844.5,-1132.2 L791.9,-1192.9 L775.1,-1198.7 L753.4,-1179.5 L729.3,-1158.2 L683.4,-1118.4 L670.9,-1098.7 L674.7,-1075.2 L727.8,-1011.0 L708.7,-983.3 L671.8,-992.5 L467.2,-840.8 L444.4,-816.5 L445.0,-796.7 L434.8,-779.3 L414.4,-772.0 L384.7,-717.9 L341.8,-679.0 L332.9,-656.2 L308.8,-656.5 L284.4,-648.6 L252.4,-625.9 L179.5,-559.6 L111.5,-470.4 L84.1,-424.2 L72.6,-423.5 L54.4,-398.1 L55.1,-360.2 L23.1,-359.2 L-6.8,-326.2 L-79.8,-316.1 L-108.9,-350.2 L-144.8,-328.1 L-155.8,-286.1 L-139.3,-234.0 L-166.0,-217.6 L-207.5,-210.1 L-298.5,-226.1 L-322.5,-201.1 L-349.0,-196.6 L-376.0,-192.6 L-460.7,-67.2 L-457.7,-33.8 L-510.0,66.9 L-450.8,102.6 L-436.4,137.4 L-388.7,148.0 L-369.0,135.2 L-274.8,165.6 L-241.2,164.3 L-216.2,139.3 L-188.2,119.3 L-134.7,110.3 L-113.2,117.3 L-95.7,127.8 L-81.7,137.3 L-71.2,155.8 L-77.7,170.8 L-90.2,181.8 L-119.2,172.8 L-148.2,178.8 L-169.7,203.3 L-176.2,235.8 L-194.8,247.4 L-200.7,263.2 L-204.7,283.3 L-223.8,298.2 L-245.6,304.1 L-259.3,354.3 L-223.1,426.1 L-237.0,440.7 L-262.7,446.0 L-269.1,464.0 L-272.0,482.3 L-258.1,508.7 L-289.7,514.0 L-313.6,554.9 L-293.1,593.8 L-249.0,610.4 L-212.6,616.9 L-169.0,590.5 L-120.2,598.4 L-24.4,582.6 L-3.1,570.7 L3.5,555.8 L-11.0,538.3 L-29.2,522.5 L-21.3,517.6 L29.2,555.8 L44.7,557.8 L54.3,549.9 L58.2,540.3 L57.6,531.4 L47.7,517.9 L22.6,488.2 L43.1,498.4 L55.3,499.8 L65.2,498.1 L77.4,501.4 L78.7,513.6 L88.6,529.1 L96.6,536.6 L106.7,545.9 L115.0,558.8 L126.2,563.4 L133.4,580.9 L139.4,600.0 L154.6,607.0 L162.5,614.5 L170.4,626.8 L165.5,640.3 L152.3,653.5 L142.0,681.2 L143.3,687.1 L97.7,694.7 L75.7,709.1 L75.0,731.1 L59.0,740.9 L34.8,741.7 L0.7,756.8 L0.7,776.5 L-57.7,809.9 L-117.5,820.5 L-145.6,840.9 L-238.1,817.3 L-377.1,847.4 L-518.2,866.4 L-562.9,930.2 L-692.8,915.7 L-801.1,1005.7 L-849.4,1066.6 L-880.4,1035.6 L-928.4,1049.2 L-927.5,1116.0 L-984.9,1122.9 L-1038.9,1191.8 L-1108.8,1157.6 L-1525.1,783.8 L-1670.3,753.0 L-1745.6,829.3 L-1804.7,843.7 L-1829.0,923.3 L-1876.0,944.5 L-1893.1,906.9 L-2014.8,751.5 L-2184.6,770.8 L-2162.3,826.5 L-2236.2,889.9 L-2208.4,962.4 L-2256.0,982.2 L-2335.6,958.5 L-2493.5,965.1 L-2668.4,913.1 L-2712.5,929.5 L-2546.2,1194.7 L-2315.3,1350.4 L-2154.4,1449.3 L-1930.0,1504.8 L-1398.3,1632.8 L-1232.0,1803.0 L-1208.3,1907.2 L-1146.2,1948.1 L-1031.0,2510.3 L-1010.5,2571.0 L-1009.8,2597.5 L-1002.2,2637.7 L-981.0,2652.1 L-962.8,2674.0 L-999.2,2695.3 L-1000.7,2731.6 L-965.8,2782.4 L-993.1,2801.4 L-996.1,2847.6 L-1045.4,2855.2 L-1109.1,2895.3 L-1111.0,2899.8 L-1109.7,2912.6 L-1112.3,2927.3 Z" fill="#d5f2cb" stroke="#9fcf91" stroke-width="0.4"><title>Crandon Park</title></path><path d="M-1112.3,2927.3 L1130.7,2941.2 L1238.5,2972.7 L1281.2,2859.3 L1339.2,2769.6 L1505.9,2422.7 L1579.8,2334.5 L1652.2,2183.7 L1712.5,2081.1 L1757.0,2023.1 L1773.6,1968.8 L1781.1,1857.2 L1784.1,1808.9 L1788.7,1772.7 L1778.9,1707.1 L1801.5,1575.9 L1810.5,1489.9 L1830.9,1399.4 L1836.2,1331.6 L1861.1,1209.4 L1870.9,1146.1 L1916.8,1054.1 L1920.6,1002.1 L1913.8,894.2 L1929.7,755.5 L1931.2,656.7 L1937.2,459.9 L1977.9,309.1 L2030.7,139.4 L2108.4,-24.9 L2263.2,-231.3 L2295.2,-292.3 L2316.0,-349.4 L2322.0,-410.8 L2333.7,-468.4 L2347.3,-509.5 L2416.5,-703.8 L2439.3,-776.0 L2451.2,-799.6 L2478.8,-849.2 L2510.3,-911.7 L2524.7,-964.8 L2535.7,-1020.1 L2555.4,-1095.5 L2575.8,-1191.8 L2600.9,-1324.8 L2616.8,-1398.1 L2631.5,-1474.8 L2638.9,-1542.6 L2644.8,-1643.4 L2644.4,-1745.8 L2638.0,-1806.0 L2630.4,-1869.7 L2616.8,-1955.3 L2617.1,-2000.4 L2614.1,-2052.6 L2604.3,-2100.4 L2578.5,-2163.3 L2568.8,-2247.8 L2570.5,-2300.5 L2564.8,-2341.9 L2553.6,-2352.7 L2528.9,-2380.4 L2544.4,-2393.2 L2536.5,-2409.4 L2517.3,-2423.8 L2470.6,-2481.1 L2468.3,-2501.8 L2460.7,-2527.1 L2409.1,-2558.7 L2388.4,-2550.8 L2364.2,-2510.9 L2349.9,-2521.4 L2351.0,-2529.7 L2367.3,-2547.0 L2371.4,-2571.9 L2357.9,-2574.3 L2333.3,-2579.9 L2319.4,-2609.3 L2278.7,-2610.0 L2227.8,-2604.2 L2179.9,-2654.3 L2164.9,-2705.5 L2012.4,-2769.5 L1882.3,-2833.4 L1702.1,-2945.4 L1574.5,-2980.7 L1434.4,-2931.5 L1360.8,-2882.5 L1324.6,-2849.4 L1204.1,-2849.4 L1058.4,-2871.5 L986.3,-2902.2 L928.7,-2846.2 L1010.2,-2758.5 L950.4,-2690.8 L863.6,-2646.5 L718.9,-2594.8 L640.7,-2538.1 L681.1,-2334.5 L700.2,-2288.2 L713.1,-2271.8 L721.6,-2267.6 L730.5,-2266.5 L751.8,-2279.0 L806.4,-2310.3 L806.9,-2310.3 L1043.0,-2551.6 L1042.5,-2551.6 L1117.7,-2551.7 L1118.2,-2551.7 L1289.2,-2381.7 L1289.3,-2307.3 L1155.9,-2170.7 L1155.4,-2170.7 L1052.6,-2065.5 L1053.1,-2065.5 L1089.0,-2030.2 L1085.1,-2014.3 L1084.0,-2002.5 L1086.6,-1991.6 L1098.1,-1989.0 L1112.1,-1990.3 L1124.5,-1998.2 L1222.5,-1903.3 L1232.2,-1906.5 L1234.9,-1897.9 L1241.7,-1886.4 L1258.2,-1870.7 L1274.7,-1855.0 L1290.5,-1839.9 L1308.4,-1822.8 L1324.4,-1807.5 L1340.4,-1792.3 L1356.2,-1777.3 L1336.6,-1738.2 L1301.6,-1706.2 L1197.6,-1671.2 L1167.6,-1677.2 L1116.6,-1653.2 L1060.2,-1430.3 L1001.6,-1394.2 L968.6,-1339.2 L932.0,-1359.2 L879.5,-1319.7 L872.5,-1221.7 L871.9,-1196.3 L854.8,-1186.1 L862.0,-1160.7 L870.5,-1136.2 L862.7,-1129.4 L853.3,-1129.3 L844.5,-1132.2 L791.9,-1192.9 L775.1,-1198.7 L753.4,-1179.5 L729.3,-1158.2 L683.4,-1118.4 L670.9,-1098.7 L674.7,-1075.2 L727.8,-1011.0 L708.7,-983.3 L671.8,-992.5 L467.2,-840.8 L444.4,-816.5 L445.0,-796.7 L434.8,-779.3 L414.4,-772.0 L384.7,-717.9 L341.8,-679.0 L332.9,-656.2 L308.8,-656.5 L284.4,-648.6 L252.4,-625.9 L179.5,-559.6 L111.5,-470.4 L84.1,-424.2 L72.6,-423.5 L54.4,-398.1 L55.1,-360.2 L23.1,-359.2 L-6.8,-326.2 L-79.8,-316.1 L-108.9,-350.2 L-144.8,-328.1 L-155.8,-286.1 L-139.3,-234.0 L-166.0,-217.6 L-207.5,-210.1 L-298.5,-226.1 L-322.5,-201.1 L-349.0,-196.6 L-376.0,-192.6 L-460.7,-67.2 L-457.7,-33.8 L-510.0,66.9 L-450.8,102.6 L-436.4,137.4 L-388.7,148.0 L-369.0,135.2 L-274.8,165.6 L-241.2,164.3 L-216.2,139.3 L-188.2,119.3 L-134.7,110.3 L-113.2,117.3 L-95.7,127.8 L-81.7,137.3 L-71.2,155.8 L-77.7,170.8 L-90.2,181.8 L-119.2,172.8 L-148.2,178.8 L-169.7,203.3 L-176.2,235.8 L-194.8,247.4 L-200.7,263.2 L-204.7,283.3 L-223.8,298.2 L-245.6,304.1 L-259.3,354.3 L-223.1,426.1 L-237.0,440.7 L-262.7,446.0 L-269.1,464.0 L-272.0,482.3 L-258.1,508.7 L-289.7,514.0 L-313.6,554.9 L-293.1,593.8 L-249.0,610.4 L-212.6,616.9 L-169.0,590.5 L-120.2,598.4 L-24.4,582.6 L-3.1,570.7 L3.5,555.8 L-11.0,538.3 L-29.2,522.5 L-21.3,517.6 L29.2,555.8 L44.7,557.8 L54.3,549.9 L58.2,540.3 L57.6,531.4 L47.7,517.9 L22.6,488.2 L43.1,498.4 L55.3,499.8 L65.2,498.1 L77.4,501.4 L78.7,513.6 L88.6,529.1 L96.6,536.6 L106.7,545.9 L115.0,558.8 L126.2,563.4 L133.4,580.9 L139.4,600.0 L154.6,607.0 L162.5,614.5 L170.4,626.8 L165.5,640.3 L152.3,653.5 L142.0,681.2 L143.3,687.1 L97.7,694.7 L75.7,709.1 L75.0,731.1 L59.0,740.9 L34.8,741.7 L0.7,756.8 L0.7,776.5 L-57.7,809.9 L-117.5,820.5 L-145.6,840.9 L-238.1,817.3 L-377.1,847.4 L-518.2,866.4 L-562.9,930.2 L-692.8,915.7 L-801.1,1005.7 L-849.4,1066.6 L-880.4,1035.6 L-928.4,1049.2 L-927.5,1116.0 L-984.9,1122.9 L-1038.9,1191.8 L-1108.8,1157.6 L-1525.1,783.8 L-1670.3,753.0 L-1745.6,829.3 L-1804.7,843.7 L-1829.0,923.3 L-1876.0,944.5 L-1893.1,906.9 L-2014.8,751.5 L-2184.6,770.8 L-2162.3,826.5 L-2236.2,889.9 L-2208.4,962.4 L-2256.0,982.2 L-2335.6,958.5 L-2493.5,965.1 L-2668.4,913.1 L-2712.5,929.5 L-2546.2,1194.7 L-2315.3,1350.4 L-2154.4,1449.3 L-1930.0,1504.8 L-1398.3,1632.8 L-1232.0,1803.0 L-1208.3,1907.2 L-1146.2,1948.1 L-1031.0,2510.3 L-1010.5,2571.0 L-1009.8,2597.5 L-1002.2,2637.7 L-981.0,2652.1 L-962.8,2674.0 L-999.2,2695.3 L-1000.7,2731.6 L-965.8,2782.4 L-993.1,2801.4 L-996.1,2847.6 L-1045.4,2855.2 L-1109.1,2895.3 L-1111.0,2899.8 L-1109.7,2912.6 L-1112.3,2927.3 Z" fill="url(#park-dots)" stroke="none"/><path d="M-1112.3,2927.3 L1130.7,2941.2 L1238.5,2972.7 L1281.2,2859.3 L1339.2,2769.6 L1505.9,2422.7 L1579.8,2334.5 L1652.2,2183.7 L1712.5,2081.1 L1757.0,2023.1 L1773.6,1968.8 L1781.1,1857.2 L1784.1,1808.9 L1788.7,1772.7 L1778.9,1707.1 L1801.5,1575.9 L1810.5,1489.9 L1830.9,1399.4 L1836.2,1331.6 L1861.1,1209.4 L1870.9,1146.1 L1916.8,1054.1 L1920.6,1002.1 L1913.8,894.2 L1929.7,755.5 L1931.2,656.7 L1937.2,459.9 L1977.9,309.1 L2030.7,139.4 L2108.4,-24.9 L2263.2,-231.3 L2295.2,-292.3 L2316.0,-349.4 L2322.0,-410.8 L2333.7,-468.4 L2347.3,-509.5 L2416.5,-703.8 L2439.3,-776.0 L2451.2,-799.6 L2478.8,-849.2 L2510.3,-911.7 L2524.7,-964.8 L2535.7,-1020.1 L2555.4,-1095.5 L2575.8,-1191.8 L2600.9,-1324.8 L2616.8,-1398.1 L2631.5,-1474.8 L2638.9,-1542.6 L2644.8,-1643.4 L2644.4,-1745.8 L2638.0,-1806.0 L2630.4,-1869.7 L2616.8,-1955.3 L2617.1,-2000.4 L2614.1,-2052.6 L2604.3,-2100.4 L2578.5,-2163.3 L2568.8,-2247.8 L2570.5,-2300.5 L2564.8,-2341.9 L2553.6,-2352.7 L2528.9,-2380.4 L2544.4,-2393.2 L2536.5,-2409.4 L2517.3,-2423.8 L2470.6,-2481.1 L2468.3,-2501.8 L2460.7,-2527.1 L2409.1,-2558.7 L2388.4,-2550.8 L2364.2,-2510.9 L2349.9,-2521.4 L2351.0,-2529.7 L2367.3,-2547.0 L2371.4,-2571.9 L2357.9,-2574.3 L2333.3,-2579.9 L2319.4,-2609.3 L2278.7,-2610.0 L2227.8,-2604.2 L2179.9,-2654.3 L2164.9,-2705.5 L2012.4,-2769.5 L1882.3,-2833.4 L1702.1,-2945.4 L1574.5,-2980.7 L1434.4,-2931.5 L1360.8,-2882.5 L1324.6,-2849.4 L1204.1,-2849.4 L1058.4,-2871.5 L986.3,-2902.2 L928.7,-2846.2 L1010.2,-2758.5 L950.4,-2690.8 L863.6,-2646.5 L718.9,-2594.8 L640.7,-2538.1 L681.1,-2334.5 L700.2,-2288.2 L713.1,-2271.8 L721.6,-2267.6 L730.5,-2266.5 L751.8,-2279.0 L806.4,-2310.3 L806.9,-2310.3 L1043.0,-2551.6 L1042.5,-2551.6 L1117.7,-2551.7 L1118.2,-2551.7 L1289.2,-2381.7 L1289.3,-2307.3 L1155.9,-2170.7 L1155.4,-2170.7 L1052.6,-2065.5 L1053.1,-2065.5 L1089.0,-2030.2 L1085.1,-2014.3 L1084.0,-2002.5 L1086.6,-1991.6 L1098.1,-1989.0 L1112.1,-1990.3 L1124.5,-1998.2 L1222.5,-1903.3 L1232.2,-1906.5 L1234.9,-1897.9 L1241.7,-1886.4 L1258.2,-1870.7 L1274.7,-1855.0 L1290.5,-1839.9 L1308.4,-1822.8 L1324.4,-1807.5 L1340.4,-1792.3 L1356.2,-1777.3 L1336.6,-1738.2 L1301.6,-1706.2 L1197.6,-1671.2 L1167.6,-1677.2 L1116.6,-1653.2 L1060.2,-1430.3 L1001.6,-1394.2 L968.6,-1339.2 L932.0,-1359.2 L879.5,-1319.7 L872.5,-1221.7 L871.9,-1196.3 L854.8,-1186.1 L862.0,-1160.7 L870.5,-1136.2 L862.7,-1129.4 L853.3,-1129.3 L844.5,-1132.2 L791.9,-1192.9 L775.1,-1198.7 L753.4,-1179.5 L729.3,-1158.2 L683.4,-1118.4 L670.9,-1098.7 L674.7,-1075.2 L727.8,-1011.0 L708.7,-983.3 L671.8,-992.5 L467.2,-840.8 L444.4,-816.5 L445.0,-796.7 L434.8,-779.3 L414.4,-772.0 L384.7,-717.9 L341.8,-679.0 L332.9,-656.2 L308.8,-656.5 L284.4,-648.6 L252.4,-625.9 L179.5,-559.6 L111.5,-470.4 L84.1,-424.2 L72.6,-423.5 L54.4,-398.1 L55.1,-360.2 L23.1,-359.2 L-6.8,-326.2 L-79.8,-316.1 L-108.9,-350.2 L-144.8,-328.1 L-155.8,-286.1 L-139.3,-234.0 L-166.0,-217.6 L-207.5,-210.1 L-298.5,-226.1 L-322.5,-201.1 L-349.0,-196.6 L-376.0,-192.6 L-460.7,-67.2 L-457.7,-33.8 L-510.0,66.9 L-450.8,102.6 L-436.4,137.4 L-388.7,148.0 L-369.0,135.2 L-274.8,165.6 L-241.2,164.3 L-216.2,139.3 L-188.2,119.3 L-134.7,110.3 L-113.2,117.3 L-95.7,127.8 L-81.7,137.3 L-71.2,155.8 L-77.7,170.8 L-90.2,181.8 L-119.2,172.8 L-148.2,178.8 L-169.7,203.3 L-176.2,235.8 L-194.8,247.4 L-200.7,263.2 L-204.7,283.3 L-223.8,298.2 L-245.6,304.1 L-259.3,354.3 L-223.1,426.1 L-237.0,440.7 L-262.7,446.0 L-269.1,464.0 L-272.0,482.3 L-258.1,508.7 L-289.7,514.0 L-313.6,554.9 L-293.1,593.8 L-249.0,610.4 L-212.6,616.9 L-169.0,590.5 L-120.2,598.4 L-24.4,582.6 L-3.1,570.7 L3.5,555.8 L-11.0,538.3 L-29.2,522.5 L-21.3,517.6 L29.2,555.8 L44.7,557.8 L54.3,549.9 L58.2,540.3 L57.6,531.4 L47.7,517.9 L22.6,488.2 L43.1,498.4 L55.3,499.8 L65.2,498.1 L77.4,501.4 L78.7,513.6 L88.6,529.1 L96.6,536.6 L106.7,545.9 L115.0,558.8 L126.2,563.4 L133.4,580.9 L139.4,600.0 L154.6,607.0 L162.5,614.5 L170.4,626.8 L165.5,640.3 L152.3,653.5 L142.0,681.2 L143.3,687.1 L97.7,694.7 L75.7,709.1 L75.0,731.1 L59.0,740.9 L34.8,741.7 L0.7,756.8 L0.7,776.5 L-57.7,809.9 L-117.5,820.5 L-145.6,840.9 L-238.1,817.3 L-377.1,847.4 L-518.2,866.4 L-562.9,930.2 L-692.8,915.7 L-801.1,1005.7 L-849.4,1066.6 L-880.4,1035.6 L-928.4,1049.2 L-927.5,1116.0 L-984.9,1122.9 L-1038.9,1191.8 L-1108.8,1157.6 L-1525.1,783.8 L-1670.3,753.0 L-1745.6,829.3 L-1804.7,843.7 L-1829.0,923.3 L-1876.0,944.5 L-1893.1,906.9 L-2014.8,751.5 L-2184.6,770.8 L-2162.3,826.5 L-2236.2,889.9 L-2208.4,962.4 L-2256.0,982.2 L-2335.6,958.5 L-2493.5,965.1 L-2668.4,913.1 L-2712.5,929.5 L-2546.2,1194.7 L-2315.3,1350.4 L-2154.4,1449.3 L-1930.0,1504.8 L-1398.3,1632.8 L-1232.0,1803.0 L-1208.3,1907.2 L-1146.2,1948.1 L-1031.0,2510.3 L-1010.5,2571.0 L-1009.8,2597.5 L-1002.2,2637.7 L-981.0,2652.1 L-962.8,2674.0 L-999.2,2695.3 L-1000.7,2731.6 L-965.8,2782.4 L-993.1,2801.4 L-996.1,2847.6 L-1045.4,2855.2 L-1109.1,2895.3 L-1111.0,2899.8 L-1109.7,2912.6 L-1112.3,2927.3 Z" fill="url(#park-canopy)" stroke="none"/><path d="M-23.6,136.1 L-3.8,120.8 L5.8,114.6 L16.0,108.7 L24.7,105.2 L32.8,103.5 L42.6,102.4 L56.6,103.1 L72.1,105.6 L88.5,105.7 L105.1,104.3 L118.5,98.8 L130.7,91.1 L155.8,74.4 L172.1,61.3 L183.9,49.9 L200.7,35.1 L217.5,22.1 L237.4,6.9 L252.6,-4.5 L262.2,-9.5 L271.0,-12.4 L278.7,-14.1 L286.0,-14.1 L293.6,-11.2 L297.7,-6.0 L301.3,-0.4 L304.0,6.0 L304.2,11.9 L302.9,17.7 L299.2,25.4 L294.3,33.3 L287.2,40.8 L279.0,48.1 L266.2,57.0 L258.8,64.2 L250.1,70.6 L241.8,76.4 L234.1,82.0 L218.8,93.9 L212.3,99.4 L203.4,105.9 L192.1,116.1 L186.3,121.3 L181.1,126.1 L175.7,130.8 L169.2,134.9 L157.1,142.2 L143.7,149.2 L135.0,152.7 L120.4,155.9 L99.4,158.9 L67.3,161.2 L56.5,162.4 L43.6,163.7 L36.4,164.8 L26.0,165.9 L15.1,168.7 L1.0,171.0 L-7.0,171.4 L-17.7,168.1 L-24.6,164.1 L-29.3,158.7 L-31.7,152.5 L-30.0,144.0 L-23.6,136.1 Z" fill="#dcf5d2" stroke="#9fcf91" stroke-width="0.4"></path><path d="M-23.6,136.1 L-3.8,120.8 L5.8,114.6 L16.0,108.7 L24.7,105.2 L32.8,103.5 L42.6,102.4 L56.6,103.1 L72.1,105.6 L88.5,105.7 L105.1,104.3 L118.5,98.8 L130.7,91.1 L155.8,74.4 L172.1,61.3 L183.9,49.9 L200.7,35.1 L217.5,22.1 L237.4,6.9 L252.6,-4.5 L262.2,-9.5 L271.0,-12.4 L278.7,-14.1 L286.0,-14.1 L293.6,-11.2 L297.7,-6.0 L301.3,-0.4 L304.0,6.0 L304.2,11.9 L302.9,17.7 L299.2,25.4 L294.3,33.3 L287.2,40.8 L279.0,48.1 L266.2,57.0 L258.8,64.2 L250.1,70.6 L241.8,76.4 L234.1,82.0 L218.8,93.9 L212.3,99.4 L203.4,105.9 L192.1,116.1 L186.3,121.3 L181.1,126.1 L175.7,130.8 L169.2,134.9 L157.1,142.2 L143.7,149.2 L135.0,152.7 L120.4,155.9 L99.4,158.9 L67.3,161.2 L56.5,162.4 L43.6,163.7 L36.4,164.8 L26.0,165.9 L15.1,168.7 L1.0,171.0 L-7.0,171.4 L-17.7,168.1 L-24.6,164.1 L-29.3,158.7 L-31.7,152.5 L-30.0,144.0 L-23.6,136.1 Z" fill="url(#park-dots)" stroke="none"/><path d="M-23.6,136.1 L-3.8,120.8 L5.8,114.6 L16.0,108.7 L24.7,105.2 L32.8,103.5 L42.6,102.4 L56.6,103.1 L72.1,105.6 L88.5,105.7 L105.1,104.3 L118.5,98.8 L130.7,91.1 L155.8,74.4 L172.1,61.3 L183.9,49.9 L200.7,35.1 L217.5,22.1 L237.4,6.9 L252.6,-4.5 L262.2,-9.5 L271.0,-12.4 L278.7,-14.1 L286.0,-14.1 L293.6,-11.2 L297.7,-6.0 L301.3,-0.4 L304.0,6.0 L304.2,11.9 L302.9,17.7 L299.2,25.4 L294.3,33.3 L287.2,40.8 L279.0,48.1 L266.2,57.0 L258.8,64.2 L250.1,70.6 L241.8,76.4 L234.1,82.0 L218.8,93.9 L212.3,99.4 L203.4,105.9 L192.1,116.1 L186.3,121.3 L181.1,126.1 L175.7,130.8 L169.2,134.9 L157.1,142.2 L143.7,149.2 L135.0,152.7 L120.4,155.9 L99.4,158.9 L67.3,161.2 L56.5,162.4 L43.6,163.7 L36.4,164.8 L26.0,165.9 L15.1,168.7 L1.0,171.0 L-7.0,171.4 L-17.7,168.1 L-24.6,164.1 L-29.3,158.7 L-31.7,152.5 L-30.0,144.0 L-23.6,136.1 Z" fill="url(#park-canopy)" stroke="none"/><path d="M-1874.7,-1500.3 L-234.3,-1355.5 L1257.0,-1417.6 L2375.5,-1252.0 L2599.2,-714.1 L1890.8,-134.7 L735.1,320.5 L-942.7,279.1 L-1874.7,-507.2 L-1930.7,-1417.6 Z" fill="#f1efe7" stroke="#8ab09d" stroke-width="0.65"><title>Crandon Marina</title></path><path d="M90.3,305.7 L64.5,299.1 L48.1,293.5 L37.7,290.8 L30.0,289.7 L18.0,288.8 L5.1,287.7 L-8.4,287.9 L-21.2,289.1 L-33.0,289.5 L-45.1,289.3 L-55.7,288.2" fill="none" stroke="#cf828d" stroke-width="1.5" stroke-dasharray="1.6 3.0" opacity="0.62" stroke-linecap="round" stroke-linejoin="round"></path><path d="M318.1,-32.5 L299.4,-40.6 L291.4,-42.8 L286.2,-42.6 L278.9,-40.8 L271.2,-35.2 L257.8,-21.2 L246.2,-12.1 L235.9,-4.2 L212.4,11.1 L194.3,24.3 L177.3,38.0 L154.3,58.6 L134.5,73.9 L110.5,87.0 L95.8,93.1 L86.5,95.4 L77.1,95.1 L68.1,93.4 L48.6,88.4 L37.0,88.5 L26.7,90.7 L12.5,97.6 L-6.7,111.9 L-24.8,123.4 L-32.4,126.9 L-40.7,127.8 L-56.6,125.6" fill="none" stroke="#cf828d" stroke-width="1.5" stroke-dasharray="1.6 3.0" opacity="0.62" stroke-linecap="round" stroke-linejoin="round"></path></svg>