<svg xmlns="http://www.w3.org/2000/svg" width="256" height="256" viewBox="0 0 256 256"><rect width="256" height="256" fill="#f1efe7"/><path d="M-1026.7,1972.6 L-973.0,1950.2 L-956.2,1942.2 L-881.1,1906.1 L-866.9,1919.7 L-865.7,1920.9 L-839.4,1898.4 L-833.1,1893.6 L-822.6,1884.1 L-763.6,1830.0 L-716.0,1775.5 L-714.2,1772.1 L-712.4,1770.1 L-709.6,1766.9 L-706.8,1763.7 L-705.6,1762.4 L-724.4,1738.1 L-699.6,1723.2 L-686.1,1741.1 L-667.1,1719.3 L-683.2,1698.0 L-663.2,1677.2 L-647.8,1697.4 L-630.2,1677.3 L-622.7,1672.4 L-585.9,1648.5 L-567.7,1636.4 L-545.8,1622.0 L-535.4,1615.2 L-509.2,1598.3 L-516.0,1589.4 L-528.0,1573.2 L-496.8,1553.4 L-485.4,1547.5 L-484.6,1546.9 L-478.5,1542.3 L-457.2,1530.8 L-455.7,1528.5 L-449.7,1524.4 L-446.4,1519.6 L-445.5,1519.0 L-440.3,1516.9 L-428.5,1512.7 L-420.4,1509.2 L-391.9,1495.7 L-391.5,1496.7 L-367.6,1486.4 L-357.8,1499.0 L-336.1,1484.4 L-333.0,1482.3 L-332.7,1482.1 L-332.3,1481.7 L-331.9,1480.9 L-331.6,1480.1 L-331.5,1479.2 L-331.5,1478.4 L-331.6,1477.7 L-331.7,1476.9 L-331.7,1476.2 L-331.7,1475.7 L-331.6,1475.1 L-331.2,1474.2 L-330.9,1473.6 L-330.3,1472.7 L-329.6,1471.9 L-326.4,1470.7 L-323.8,1469.7 L-320.4,1468.6 L-318.9,1468.1 L-316.0,1467.2 L-314.1,1466.5 L-311.3,1465.4 L-307.6,1463.8 L-303.7,1461.9 L-301.5,1460.9 L-298.8,1459.5 L-296.3,1458.1 L-293.8,1456.6 L-291.2,1454.9 L-290.4,1454.3 L-285.2,1450.4 L-280.8,1447.1 L-276.6,1443.4 L-272.6,1439.7 L-269.7,1436.5 L-266.9,1433.0 L-263.4,1428.5 L-260.2,1424.0 L-256.5,1418.2 L-254.1,1413.7 L-252.6,1410.9 L-250.4,1406.1 L-248.5,1401.6 L-246.8,1396.8 L-245.5,1392.6 L-244.0,1385.7 L-242.9,1379.6 L-242.4,1374.3 L-241.9,1368.1 L-241.8,1361.5 L-242.2,1355.4 L-243.3,1347.4 L-244.4,1341.9 L-245.6,1336.8 L-247.5,1330.9 L-249.0,1326.5 L-250.8,1321.6 L-252.6,1317.5 L-253.7,1314.9 L-254.2,1313.0 L-254.2,1311.5 L-254.1,1310.2 L-253.6,1309.0 L-252.8,1308.0 L-251.7,1307.5 L-250.6,1307.3 L-247.6,1308.1 L-239.1,1310.1 L-236.4,1246.4 L-225.4,1132.8 L-237.3,1130.0 L-238.6,1126.4 L-238.5,1121.3 L-236.9,1109.7 L-234.7,1107.0 L-232.7,1099.5 L-220.0,1102.4 L-213.1,1029.8 L-211.1,1009.7 L-215.1,1008.7 L-212.7,999.1 L-220.8,997.2 L-219.8,991.3 L-218.3,987.4 L-216.5,982.9 L-213.6,976.6 L-210.3,977.3 L-206.0,931.6 L-204.9,903.9 L-204.8,898.8 L-202.4,881.2 L-197.7,837.3 L-166.5,755.9 L-159.4,733.8 L-72.7,700.5 L-64.3,697.1 L-62.8,696.3 L-61.6,695.2 L-60.4,693.8 L-59.4,692.0 L-58.7,690.4 L-58.6,687.9 L-58.7,684.8 L-59.8,645.9 L-60.3,638.4 L-60.4,633.2 L-60.6,623.2 L-60.8,620.0 L-61.2,617.4 L-61.7,615.0 L-62.4,612.6 L-63.7,609.8 L-65.5,606.8 L-67.2,604.4 L-68.6,602.1 L-69.9,599.1 L-71.1,596.2 L-71.5,593.8 L-71.9,591.2 L-72.1,588.6 L-72.0,586.0 L-71.7,583.0 L-71.0,580.1 L-70.1,577.5 L-69.1,575.1 L-67.8,572.8 L-66.3,570.0 L-65.3,567.5 L-64.5,564.3 L-62.8,561.8 L-63.4,539.5 L-64.2,538.2 L-64.5,523.1 L-64.9,505.2 L-64.6,502.7 L-63.8,500.2 L-61.8,496.3 L-48.4,467.5 L-48.1,467.0 L-45.8,461.9 L-43.6,457.0 L-41.1,452.0 L-38.6,446.9 L-37.4,444.4 L-24.3,417.4 L-10.2,387.6 L20.2,325.9 L1.9,305.4 L-13.0,337.2 L-25.9,364.6 L-27.8,368.5 L-31.8,376.7 L-39.7,376.0 L-41.9,375.9 L-42.7,376.6 L-41.7,377.5 L-45.7,381.2 L-48.9,384.1 L-49.5,396.9 L-50.8,399.4 L-54.7,399.3 L-55.3,399.0 L-106.4,377.9 L-107.5,377.4 L-108.7,376.6 L-110.5,375.2 L-111.9,373.9 L-113.1,372.5 L-114.3,371.0 L-115.2,369.5 L-115.9,368.1 L-116.5,366.6 L-116.8,365.5 L-117.1,364.2 L-117.3,362.7 L-117.5,360.7 L-117.5,357.8 L-117.9,347.8 L-116.5,347.8 L-116.7,342.5 L-116.9,333.9 L-115.6,333.9 L-115.7,327.9 L-117.2,328.0 L-117.8,303.1 L-116.5,303.1 L-116.7,297.2 L-118.0,297.3 L-118.6,278.9 L-111.8,271.6 L-103.2,271.3 L-96.8,271.1 L-88.3,270.8 L-80.2,270.6 L-72.9,270.3 L-69.7,270.2 L-69.8,267.3 L-69.9,264.4 L-70.4,254.8 L-70.6,236.6 L-70.8,236.2 L-70.8,234.4 L-70.3,234.4 L-71.6,190.4 L-72.7,149.0 L-72.9,147.6 L-73.0,145.3 L-91.0,145.9 L-103.0,144.9 L-192.8,148.0 L-192.9,147.2 L-193.0,143.4 L-235.6,144.9 L-235.7,137.8 L-241.3,136.5 L-242.4,106.2 L-76.6,100.5 L-73.9,96.7 L-74.0,86.0 L-74.2,76.7 L-74.4,70.9 L-74.6,65.2 L-87.8,59.0 L-88.3,45.2 L-74.8,38.5 L-76.0,6.6 L-76.4,5.1 L-89.8,-1.2 L-90.2,-18.3 L-77.5,-24.8 L-83.1,-94.1 L-81.6,-124.9 L-80.9,-175.1 L-80.9,-229.7 L-79.7,-237.4 L-79.7,-241.1 L-80.9,-245.5 L-79.6,-245.5 L-79.6,-249.6 L-78.9,-352.3 L-79.0,-356.9 L-80.4,-356.9 L-80.4,-375.8 L-81.2,-377.0 L-82.5,-396.5 L-79.9,-414.3 L-80.2,-435.9 L-81.1,-441.0 L-79.8,-457.0 L-80.7,-476.3 L-82.9,-497.0 L-87.2,-530.5 L-85.2,-539.7 L-86.1,-548.7 L-93.7,-555.2 L-105.0,-555.1 L-122.0,-552.9 L-133.2,-552.9 L-143.3,-556.6 L-156.5,-565.7 L-156.5,-582.0 L-156.9,-602.1 L-155.6,-618.8 L-151.2,-631.8 L-77.5,-633.2 L-75.8,-737.7 L-75.8,-888.1 L-76.6,-942.7 L3901.4,-2585.6 L3901.4,6468.9 L-1026.7,6468.9 L-1026.7,1972.6 Z" fill="#add7e1" stroke="none"><title>Biscayne Bay</title></path><path d="M128.5,294.7 L116.6,288.8 L115.7,289.2 L102.0,321.5 L100.6,325.8 L98.1,330.7 L96.3,335.0 L87.7,354.8 L87.0,356.5 L86.7,357.7 L86.5,359.0 L86.7,360.2 L87.6,362.3 L88.7,364.2 L89.5,365.3 L90.5,366.8 L93.1,370.1 L101.5,381.1 L111.2,394.0 L114.6,397.6 L119.9,404.1 L125.0,410.8 L130.2,417.1 L133.0,421.5 L135.8,425.5 L136.3,426.1 L137.0,426.5 L137.7,426.3 L138.0,426.2 L137.5,430.8 L164.4,464.6 L166.8,462.9 L167.7,462.9 L168.9,463.0 L170.6,463.5 L172.3,464.3 L173.8,464.9 L174.6,465.3 L175.7,466.1 L176.6,466.9 L178.6,469.1 L181.5,472.3 L184.3,475.5 L186.5,478.4 L190.1,484.9 L192.5,489.5 L195.2,495.5 L198.1,501.2 L202.9,510.9 L204.2,512.4 L205.9,514.3 L207.8,516.0 L220.7,526.0 L222.2,527.3 L223.3,528.4 L224.3,530.0 L227.4,538.6 L227.8,540.3 L318.3,583.6 L323.0,585.8 L370.7,608.6 L418.5,631.4 L431.2,626.5 L435.0,639.4 L579.5,708.3 L575.0,718.2 L590.3,725.6 L595.1,715.7 L736.5,783.1 L840.1,833.3 L836.4,840.9 L851.8,848.4 L855.4,840.5 L921.1,871.8 L911.7,890.7 L1058.8,962.4 L1276.6,968.9 L1429.3,973.5 L1465.7,974.7 L1606.3,978.7 L1617.8,979.0 L1617.8,978.3 L1701.0,980.8 L1719.1,981.4 L1736.6,981.9 L1736.6,982.7 L1757.4,983.1 L1762.4,983.5 L1762.4,982.1 L1782.6,962.9 L1784.4,963.0 L1788.2,967.2 L1789.7,966.1 L1790.7,966.4 L1791.9,966.4 L1793.9,965.9 L1796.1,965.2 L1797.7,964.3 L1799.2,962.9 L1802.7,955.0 L1803.7,952.4 L1804.1,950.0 L1804.1,947.7 L1803.2,942.9 L1802.7,941.4 L1801.9,939.9 L1800.6,937.7 L1798.8,935.4 L1797.3,933.8 L1794.2,931.2 L1790.7,928.6 L1785.0,924.5 L1778.9,921.3 L1775.7,919.6 L1771.5,918.0 L1765.2,915.4 L1737.2,900.4 L1709.9,883.6 L1699.5,876.0 L1688.0,868.7 L1653.3,849.4 L1616.2,832.1 L1614.4,835.9 L1607.2,832.5 L1600.4,847.1 L1523.4,811.8 L1501.7,801.6 L1475.8,789.8 L1402.1,755.9 L1335.5,725.3 L1308.7,712.9 L1295.5,707.1 L1281.9,701.0 L1226.1,674.2 L1134.7,630.6 L1095.8,611.9 L1084.8,634.6 L963.4,576.6 L902.3,547.4 L842.8,518.9 L745.6,472.5 L648.1,425.9 L522.0,365.8 L418.3,316.3 L398.9,306.3 L341.5,279.5 L282.9,251.5 L165.2,195.1 L159.4,211.0 L129.7,289.7 L130.3,290.7 L128.5,294.7 Z" fill="#f1efe7" stroke="#8ab09d" stroke-width="0.65"></path><path d="M-1.0,-1.0 L257.0,-1.0 L257.0,257.0 L-1.0,257.0 L-1.0,-1.0 Z M257.0,257.0 L257.0,239.1 L165.2,195.1 L159.4,211.0 L142.0,257.0 L257.0,257.0 Z M257.0,-1.0 L245.9,-1.0 L257.0,35.9 L257.0,-1.0 Z" fill="#add7e1" stroke="none" fill-rule="evenodd"><title>Biscayne Bay</title></path><path d="M138.8,281.4 L140.0,279.7 L140.7,278.0 L141.7,276.6 L142.1,275.1 L143.0,273.5 L143.2,272.1 L143.9,271.6 L144.1,269.9 L145.0,268.1 L145.2,267.3 L145.4,266.3 L146.2,265.2 L146.1,264.3 L146.7,263.8 L146.7,262.6 L147.4,261.4 L147.7,260.6 L148.0,259.7 L148.5,258.1 L149.2,257.0 L149.4,255.7 L150.0,255.0 L150.5,253.8 L150.6,252.3 L150.9,251.4 L151.8,249.2 L152.6,247.9 L153.3,245.8 L153.7,243.8 L154.8,242.5 L154.5,240.9 L153.8,238.0 L154.6,236.8 L155.4,235.7 L155.8,234.1 L157.5,232.4 L158.8,229.9 L159.7,228.5 L159.9,227.4 L160.6,225.2 L161.6,223.8 L162.1,222.5 L161.8,220.6 L163.2,218.0 L165.2,217.7 L167.7,213.7 L184.1,221.1 L187.5,222.5 L189.6,224.5 L191.3,225.3 L192.4,225.6 L193.9,226.5 L196.0,227.6 L195.6,229.4 L196.2,231.9 L194.6,234.2 L193.5,237.4 L191.2,239.0 L189.5,237.9 L187.8,238.3 L188.3,240.0 L189.9,242.0 L188.1,244.0 L186.2,247.5 L185.8,250.5 L184.4,251.9 L184.1,253.4 L184.5,255.5 L184.2,258.3 L181.9,259.7 L179.6,261.9 L178.2,264.9 L175.7,263.5 L173.6,264.1 L172.8,265.8 L175.3,266.3 L177.2,267.7 L176.5,268.9 L175.2,270.5 L175.1,272.2 L173.9,273.4 L172.8,275.7 L171.5,278.1 L169.0,278.4 L166.5,276.6 L164.8,278.3 L164.4,280.1 L165.1,282.0 L164.0,283.2 L163.4,284.6 L162.6,287.1 L160.8,287.4 L159.0,287.9 L157.7,289.4 L158.4,298.1 L145.7,285.8 L144.4,284.0 L141.3,283.9 L139.2,282.4 L138.8,281.4 Z" fill="#d6d2c9" stroke="#bab6ad" stroke-width="0.4"><title>Cruise Terminal V</title></path><path d="M255.0,14.7 L255.8,16.4 L257.2,15.7 L256.5,14.1 L255.0,14.7 Z" fill="#d6d2c9" stroke="#bab6ad" stroke-width="0.4"></path><path d="M254.0,12.1 L254.7,13.9 L256.3,13.4 L255.8,11.6 L254.0,12.1 Z" fill="#d6d2c9" stroke="#bab6ad" stroke-width="0.4"></path><path d="M253.0,8.7 L253.6,9.8 L255.5,8.8 L254.9,7.7 L253.0,8.7 Z" fill="#d6d2c9" stroke="#bab6ad" stroke-width="0.4"></path><path d="M252.0,6.0 L252.7,7.8 L254.7,7.0 L254.0,5.2 L252.0,6.0 Z" fill="#d6d2c9" stroke="#bab6ad" stroke-width="0.4"></path><path d="M251.5,3.6 L251.9,5.1 L253.8,4.6 L253.4,3.0 L251.5,3.6 Z" fill="#d6d2c9" stroke="#bab6ad" stroke-width="0.4"></path><path d="M249.9,1.5 L251.1,3.0 L252.4,2.0 L251.2,0.5 L249.9,1.5 Z" fill="#d6d2c9" stroke="#bab6ad" stroke-width="0.4"></path><path d="M251.5,-9.0 L251.8,-2.9 L254.6,1.9 L255.5,9.3 L261.8,12.2 L264.3,5.9 L265.3,3.5 L263.0,0.8 L257.2,-2.9 L258.8,-4.9 L251.5,-9.0 Z" fill="#d6d2c9" stroke="#bab6ad" stroke-width="0.4"></path><path d="M110.4,-338.9 L132.8,157.2" fill="none" stroke="#6fb5c7" stroke-width="1.2" stroke-dasharray="5 7" opacity="0.34" stroke-linecap="round" stroke-linejoin="round"><title>Atlantic Intracoastal Waterway</title></path><path d="M132.8,157.2 L64.0,314.7" fill="none" stroke="#6fb5c7" stroke-width="1.2" stroke-dasharray="5 7" opacity="0.34" stroke-linecap="round" stroke-linejoin="round"><title>Atlantic Intracoastal Waterway</title></path><path d="M132.8,157.2 L238.8,158.4 L1886.1,900.3" fill="none" stroke="#6fb5c7" stroke-width="1.2" stroke-dasharray="5 7" opacity="0.34" stroke-linecap="round" stroke-linejoin="round"><title>Main Channel</title></path><path d="M213.6,-101.6 L265.3,63.5 L268.3,76.5 L270.2,82.6 L272.7,85.9 L275.5,88.3 L277.1,89.2 L284.6,93.0 L299.4,99.6 L307.4,107.6" fill="none" stroke="#79bdd0" stroke-width="1.4" stroke-linecap="round" stroke-linejoin="round"></path><path d="M251.0,23.4 L276.1,15.9" fill="none" stroke="#cf828d" stroke-width="1.1" stroke-dasharray="1.6 3.0" opacity="0.62" stroke-linecap="round" stroke-linejoin="round"></path><path d="M151.6,314.8 L45.8,264.4 L22.2,254.7 L0.6,247.8 L-20.5,242.8 L-39.1,239.8 L-66.7,237.5" fill="none" stroke="#cf828d" stroke-width="1.1" stroke-dasharray="1.6 3.0" opacity="0.62" stroke-linecap="round" stroke-linejoin="round"></path><path d="M256.9,-49.5 L269.9,-5.2 L279.1,25.9" fill="none" stroke="#cec8bb" stroke-width="2.9" stroke-linecap="round" stroke-linejoin="round"/><path d="M256.9,-49.5 L269.9,-5.2 L279.1,25.9" fill="none" stroke="#ffffff" stroke-width="1.9" stroke-linecap="round" stroke-linejoin="round"></path><path d="M128.6,302.8 L129.5,300.9 L136.9,281.2 L151.5,242.6" fill="none" stroke="#cec8bb" stroke-width="2.9" stroke-linecap="round" stroke-linejoin="round"/><path d="M128.6,302.8 L129.5,300.9 L136.9,281.2 L151.5,242.6" fill="none" stroke="#ffffff" stroke-width="1.9" stroke-linecap="round" stroke-linejoin="round"></path><path d="M194.2,235.1 L186.4,231.7 L168.2,274.1 L166.8,277.3" fill="none" stroke="#cec8bb" stroke-width="2.9" stroke-linecap="round" stroke-linejoin="round"/><path d="M194.2,235.1 L186.4,231.7 L168.2,274.1 L166.8,277.3" fill="none" stroke="#ffffff" stroke-width="1.9" stroke-linecap="round" stroke-linejoin="round"></path><path d="M202.8,266.9 L207.4,255.6 L211.5,247.7 L206.0,241.2 L194.2,235.1" fill="none" stroke="#cec8bb" stroke-width="2.9" stroke-linecap="round" stroke-linejoin="round"/><path d="M202.8,266.9 L207.4,255.6 L211.5,247.7 L206.0,241.2 L194.2,235.1" fill="none" stroke="#ffffff" stroke-width="1.9" stroke-linecap="round" stroke-linejoin="round"></path><path d="M211.5,247.7 L214.9,241.1 L214.7,236.5 L210.9,232.6 L196.5,224.7 L191.7,224.4 L189.6,225.4" fill="none" stroke="#cec8bb" stroke-width="2.9" stroke-linecap="round" stroke-linejoin="round"/><path d="M211.5,247.7 L214.9,241.1 L214.7,236.5 L210.9,232.6 L196.5,224.7 L191.7,224.4 L189.6,225.4" fill="none" stroke="#ffffff" stroke-width="1.9" stroke-linecap="round" stroke-linejoin="round"></path><path d="M189.6,225.4 L186.4,231.7" fill="none" stroke="#cec8bb" stroke-width="2.9" stroke-linecap="round" stroke-linejoin="round"/><path d="M189.6,225.4 L186.4,231.7" fill="none" stroke="#ffffff" stroke-width="1.9" stroke-linecap="round" stroke-linejoin="round"></path><path d="M204.5,262.2 L200.5,253.4 L189.6,248.8 L184.5,260.6 L185.2,263.6" fill="none" stroke="#cec8bb" stroke-width="2.9" stroke-linecap="round" stroke-linejoin="round"/><path d="M204.5,262.2 L200.5,253.4 L189.6,248.8 L184.5,260.6 L185.2,263.6" fill="none" stroke="#ffffff" stroke-width="1.9" stroke-linecap="round" stroke-linejoin="round"></path><path d="M-55.0,248.8 L-43.3,250.0 L-31.3,251.7 L-22.8,253.1 L-11.2,255.8 L-1.0,258.5 L8.0,261.1 L18.6,264.7 L28.5,268.5 L37.9,272.5 L48.4,277.4 L59.9,282.6 L218.1,358.5" fill="none" stroke="#d1c4aa" stroke-width="5.8" stroke-linecap="round" stroke-linejoin="round"/><path d="M-55.0,248.8 L-43.3,250.0 L-31.3,251.7 L-22.8,253.1 L-11.2,255.8 L-1.0,258.5 L8.0,261.1 L18.6,264.7 L28.5,268.5 L37.9,272.5 L48.4,277.4 L59.9,282.6 L218.1,358.5" fill="none" stroke="#efb36f" stroke-width="4.4" stroke-linecap="round" stroke-linejoin="round"><title>Port Boulevard</title></path><path d="M134.0,311.1 L45.0,268.6 L35.4,264.2 L28.6,261.4 L21.2,258.6 L12.3,255.6 L4.7,253.2 L-4.1,250.7 L-10.1,249.2 L-17.0,247.7 L-23.6,246.4 L-30.2,245.2 L-36.5,244.2 L-43.1,243.4 L-51.0,242.6" fill="none" stroke="#d1c4aa" stroke-width="5.8" stroke-linecap="round" stroke-linejoin="round"/><path d="M134.0,311.1 L45.0,268.6 L35.4,264.2 L28.6,261.4 L21.2,258.6 L12.3,255.6 L4.7,253.2 L-4.1,250.7 L-10.1,249.2 L-17.0,247.7 L-23.6,246.4 L-30.2,245.2 L-36.5,244.2 L-43.1,243.4 L-51.0,242.6" fill="none" stroke="#efb36f" stroke-width="4.4" stroke-linecap="round" stroke-linejoin="round"><title>Port Boulevard</title></path><path d="M-68.3,237.3 L-32.5,240.6 L15.2,252.3 L47.4,265.5 L246.2,360.7" fill="none" stroke="#f3efe5" stroke-width="5.0" stroke-linecap="round" stroke-linejoin="round" opacity="0.95"/><path d="M-68.3,237.3 L-32.5,240.6 L15.2,252.3 L47.4,265.5 L246.2,360.7" fill="none" stroke="#aeb7ae" stroke-width="2.8" stroke-linecap="round" stroke-linejoin="round" opacity="0.9"><title>Port Miami Bridge</title></path><path d="M226.9,366.3 L27.3,272.9 L-8.3,260.7 L-51.3,253.1" fill="none" stroke="#f3efe5" stroke-width="5.0" stroke-linecap="round" stroke-linejoin="round" opacity="0.95"/><path d="M226.9,366.3 L27.3,272.9 L-8.3,260.7 L-51.3,253.1" fill="none" stroke="#aeb7ae" stroke-width="2.8" stroke-linecap="round" stroke-linejoin="round" opacity="0.9"><title>Port Miami Bridge</title></path><text x="223.6" y="232.9" text-anchor="middle" font-family="Arial, sans-serif" font-size="7.5" font-weight="600" paint-order="stroke" stroke="#e9f3f8" stroke-width="1.9" stroke-linejoin="round" fill="#4f7189" textLength="52.8" lengthAdjust="spacing">Gate G West</text></svg>