<svg xmlns="http://www.w3.org/2000/svg" width="256" height="256" viewBox="0 0 256 256"><rect width="256" height="256" fill="#f1efe7"/><path d="M142.2,153.9 L133.4,154.0 L133.1,137.3 L142.0,137.2 L142.2,153.9 Z" fill="#d6d2c9" stroke="#bab6ad" stroke-width="0.4"></path><path d="M95.4,124.7 L87.0,124.7 L87.0,109.0 L95.4,109.0 L95.4,124.7 Z" fill="#d6d2c9" stroke="#bab6ad" stroke-width="0.4"></path><path d="M62.2,157.4 L54.8,157.6 L54.2,137.5 L61.6,137.3 L62.2,157.4 Z" fill="#d6d2c9" stroke="#bab6ad" stroke-width="0.4"></path><path d="M45.9,51.6 L37.3,51.8 L37.1,36.2 L45.7,36.2 L45.9,51.6 Z" fill="#d6d2c9" stroke="#bab6ad" stroke-width="0.4"></path><path d="M70.3,158.2 L64.8,158.4 L64.6,149.6 L65.5,149.6 L65.2,138.2 L74.1,138.0 L74.6,156.1 L70.2,156.2 L70.3,158.2 Z" fill="#d6d2c9" stroke="#bab6ad" stroke-width="0.4"></path><path d="M44.5,7.9 L35.8,7.9 L35.8,-8.8 L44.5,-8.8 L44.5,7.9 Z" fill="#d6d2c9" stroke="#bab6ad" stroke-width="0.4"></path><path d="M82.5,109.2 L82.2,125.2 L74.9,125.1 L75.2,109.0 L82.5,109.2 Z" fill="#d6d2c9" stroke="#bab6ad" stroke-width="0.4"></path><path d="M36.2,131.9 L16.8,131.9 L16.8,123.3 L36.2,123.3 L36.2,131.9 Z" fill="#d6d2c9" stroke="#bab6ad" stroke-width="0.4"></path><path d="M33.2,85.6 L12.8,86.0 L12.6,74.0 L24.0,73.8 L24.0,72.5 L33.0,72.3 L33.2,85.6 Z" fill="#d6d2c9" stroke="#bab6ad" stroke-width="0.4"></path><path d="M48.6,113.4 L49.1,129.7 L45.7,129.8 L45.6,128.1 L41.0,128.3 L40.7,115.9 L43.4,115.9 L43.4,113.6 L48.6,113.4 Z" fill="#d6d2c9" stroke="#bab6ad" stroke-width="0.4"></path><path d="M30.7,11.9 L9.9,12.3 L9.7,3.0 L30.5,2.6 L30.7,11.9 Z" fill="#d6d2c9" stroke="#bab6ad" stroke-width="0.4"></path><path d="M60.5,125.7 L51.8,125.7 L51.8,109.8 L60.4,109.8 L60.5,125.7 Z" fill="#d6d2c9" stroke="#bab6ad" stroke-width="0.4"></path><path d="M37.2,158.8 L17.4,159.2 L17.3,151.5 L37.1,151.1 L37.2,158.8 Z" fill="#d6d2c9" stroke="#bab6ad" stroke-width="0.4"></path><path d="M34.4,48.6 L24.4,48.8 L24.2,34.4 L34.1,34.3 L34.4,48.6 Z" fill="#d6d2c9" stroke="#bab6ad" stroke-width="0.4"></path><path d="M63.4,239.8 L51.6,240.3 L51.2,231.8 L63.1,231.3 L63.4,239.8 Z" fill="#d6d2c9" stroke="#bab6ad" stroke-width="0.4"></path><path d="M35.6,117.3 L15.8,117.8 L15.5,109.3 L35.4,108.8 L35.6,117.3 Z" fill="#d6d2c9" stroke="#bab6ad" stroke-width="0.4"></path><path d="M229.6,203.2 L229.7,207.4 L231.8,207.3 L232.1,218.2 L236.7,218.1 L236.9,225.2 L233.2,225.3 L233.6,238.0 L217.2,238.5 L217.1,235.4 L204.4,235.8 L204.2,229.0 L206.2,228.9 L206.0,224.0 L208.0,224.0 L207.9,221.8 L205.1,221.9 L204.7,209.5 L207.5,209.4 L207.4,203.9 L229.6,203.2 Z" fill="#d6d2c9" stroke="#bab6ad" stroke-width="0.4"></path><path d="M181.1,199.2 L162.3,199.4 L162.3,191.0 L181.0,190.8 L181.1,199.2 Z" fill="#d6d2c9" stroke="#bab6ad" stroke-width="0.4"></path><path d="M96.7,154.9 L89.1,155.0 L88.9,140.2 L96.5,140.1 L96.7,154.9 Z" fill="#d6d2c9" stroke="#bab6ad" stroke-width="0.4"></path><path d="M104.0,80.7 L95.5,80.9 L95.3,68.3 L103.7,68.1 L104.0,80.7 Z" fill="#d6d2c9" stroke="#bab6ad" stroke-width="0.4"></path><path d="M50.1,158.6 L42.1,158.9 L41.6,140.0 L49.5,139.7 L50.1,158.6 Z" fill="#d6d2c9" stroke="#bab6ad" stroke-width="0.4"></path><path d="M36.7,145.4 L17.1,145.9 L16.9,137.5 L36.5,137.0 L36.7,145.4 Z" fill="#d6d2c9" stroke="#bab6ad" stroke-width="0.4"></path><path d="M153.9,153.1 L144.3,153.5 L143.6,137.2 L153.1,136.7 L153.9,153.1 Z" fill="#d6d2c9" stroke="#bab6ad" stroke-width="0.4"></path><path d="M56.2,7.4 L47.4,7.7 L46.8,-7.4 L55.6,-7.8 L56.2,7.4 Z" fill="#d6d2c9" stroke="#bab6ad" stroke-width="0.4"></path><path d="M72.4,125.4 L64.3,125.5 L64.1,109.7 L72.1,109.6 L72.4,125.4 Z" fill="#d6d2c9" stroke="#bab6ad" stroke-width="0.4"></path><path d="M115.4,80.3 L107.2,80.7 L106.6,68.3 L114.8,67.9 L115.4,80.3 Z" fill="#d6d2c9" stroke="#bab6ad" stroke-width="0.4"></path><path d="M83.8,155.5 L76.5,155.7 L76.0,141.3 L83.3,141.0 L83.8,155.5 Z" fill="#d6d2c9" stroke="#bab6ad" stroke-width="0.4"></path><path d="M223.7,176.0 L223.8,191.5 L209.9,191.7 L209.9,187.5 L207.2,187.5 L207.2,190.1 L202.6,190.1 L202.5,176.3 L207.7,176.3 L207.7,178.5 L212.8,178.4 L212.8,176.2 L223.7,176.0 Z" fill="#d6d2c9" stroke="#bab6ad" stroke-width="0.4"></path><path d="M66.3,-10.8 L67.0,8.3 L63.4,8.4 L63.4,7.4 L58.2,7.6 L57.4,-13.9 L67.0,-14.2 L67.1,-12.5 L67.1,-10.9 L66.3,-10.8 Z" fill="#d6d2c9" stroke="#bab6ad" stroke-width="0.4"></path><path d="M241.8,188.1 L231.2,188.5 L230.8,178.7 L234.3,178.5 L234.3,178.0 L241.5,177.8 L241.8,188.1 Z" fill="#d6d2c9" stroke="#bab6ad" stroke-width="0.4"></path><path d="M174.0,47.1 L165.7,47.4 L165.1,31.1 L173.4,30.8 L174.0,47.1 Z" fill="#d6d2c9" stroke="#bab6ad" stroke-width="0.4"></path><path d="M174.9,155.5 L159.0,156.0 L158.9,152.2 L158.7,148.3 L174.7,147.7 L174.9,155.5 Z" fill="#d6d2c9" stroke="#bab6ad" stroke-width="0.4"></path><path d="M264.5,28.8 L264.8,36.7 L254.6,37.1 L254.5,35.2 L253.6,35.3 L253.4,29.3 L264.5,28.8 Z" fill="#d6d2c9" stroke="#bab6ad" stroke-width="0.4"></path><path d="M206.1,-1.7 L202.0,-1.2 L201.6,6.9 L195.8,7.2 L194.9,-7.2 L195.8,-7.2 L195.8,-9.4 L205.8,-9.8 L205.9,-5.8 L206.1,-1.7 Z" fill="#d6d2c9" stroke="#bab6ad" stroke-width="0.4"></path><path d="M112.0,-9.2 L112.7,6.7 L106.9,6.9 L106.7,2.7 L103.5,2.9 L103.0,-8.8 L112.0,-9.2 Z" fill="#d6d2c9" stroke="#bab6ad" stroke-width="0.4"></path><path d="M63.5,35.7 L63.5,36.9 L67.7,36.7 L68.4,52.1 L60.1,52.5 L59.3,35.9 L63.5,35.7 Z" fill="#d6d2c9" stroke="#bab6ad" stroke-width="0.4"></path><path d="M154.6,199.5 L145.7,199.9 L144.9,181.2 L153.8,180.8 L154.2,190.1 L154.6,199.5 Z" fill="#d6d2c9" stroke="#bab6ad" stroke-width="0.4"></path><path d="M235.2,66.9 L235.6,77.1 L229.0,77.4 L228.5,66.9 L227.5,67.0 L227.2,61.2 L237.5,60.7 L237.8,66.8 L235.2,66.9 Z" fill="#d6d2c9" stroke="#bab6ad" stroke-width="0.4"></path><path d="M225.5,106.8 L225.7,115.0 L222.0,115.1 L222.1,118.7 L218.8,118.8 L215.5,118.9 L215.3,113.3 L214.5,113.3 L214.3,107.7 L225.5,106.8 Z" fill="#d6d2c9" stroke="#bab6ad" stroke-width="0.4"></path><path d="M166.6,109.3 L166.7,111.6 L165.3,111.6 L163.9,111.7 L163.8,109.4 L160.5,109.5 L160.3,103.1 L174.7,102.7 L174.7,105.9 L174.8,109.0 L166.6,109.3 Z" fill="#d6d2c9" stroke="#bab6ad" stroke-width="0.4"></path><path d="M55.7,38.9 L56.5,55.1 L54.3,55.2 L54.2,53.3 L48.8,53.5 L48.2,41.1 L51.0,41.0 L51.0,39.2 L55.7,38.9 Z" fill="#d6d2c9" stroke="#bab6ad" stroke-width="0.4"></path><path d="M45.1,85.3 L38.3,85.5 L37.9,71.1 L38.3,71.1 L38.2,68.5 L41.4,68.4 L44.6,68.2 L45.1,85.3 Z" fill="#d6d2c9" stroke="#bab6ad" stroke-width="0.4"></path><path d="M125.6,61.9 L126.1,76.2 L123.5,76.3 L120.8,76.5 L120.8,74.5 L118.1,74.6 L117.6,62.2 L121.6,62.0 L125.6,61.9 Z" fill="#d6d2c9" stroke="#bab6ad" stroke-width="0.4"></path><path d="M120.8,181.4 L120.9,184.7 L125.1,184.5 L125.4,192.4 L114.3,192.8 L114.0,181.7 L117.4,181.6 L120.8,181.4 Z" fill="#d6d2c9" stroke="#bab6ad" stroke-width="0.4"></path><path d="M239.6,105.5 L240.0,113.7 L229.9,114.1 L229.8,111.8 L228.6,111.9 L228.5,108.9 L228.3,106.0 L239.6,105.5 Z" fill="#d6d2c9" stroke="#bab6ad" stroke-width="0.4"></path><path d="M133.3,34.0 L133.3,35.0 L137.5,34.8 L138.1,48.3 L133.5,48.5 L129.0,48.6 L128.7,41.9 L127.0,42.0 L126.7,34.2 L133.3,34.0 Z" fill="#d6d2c9" stroke="#bab6ad" stroke-width="0.4"></path><path d="M89.9,-4.9 L90.3,8.4 L87.0,8.5 L83.8,8.6 L83.7,5.7 L83.0,5.7 L82.7,-4.7 L89.9,-4.9 Z" fill="#d6d2c9" stroke="#bab6ad" stroke-width="0.4"></path><path d="M249.5,76.9 L240.7,77.3 L240.5,73.0 L240.4,68.7 L243.6,68.6 L243.4,62.0 L247.9,61.8 L252.4,61.7 L252.9,74.7 L249.5,74.8 L249.5,76.9 Z" fill="#d6d2c9" stroke="#bab6ad" stroke-width="0.4"></path><path d="M77.8,35.1 L77.9,37.0 L78.7,37.0 L79.1,49.2 L71.3,49.5 L70.8,37.4 L74.0,37.3 L73.9,35.2 L77.8,35.1 Z" fill="#d6d2c9" stroke="#bab6ad" stroke-width="0.4"></path><path d="M146.6,4.3 L137.4,4.7 L136.7,-12.9 L145.9,-13.2 L146.6,4.3 Z" fill="#d6d2c9" stroke="#bab6ad" stroke-width="0.4"></path><path d="M255.6,148.3 L244.5,148.6 L244.3,142.8 L245.3,142.8 L245.1,137.0 L255.2,136.7 L255.6,148.3 Z" fill="#d6d2c9" stroke="#bab6ad" stroke-width="0.4"></path><path d="M178.6,188.2 L162.7,188.8 L162.6,184.9 L162.4,181.0 L170.4,180.7 L170.3,177.6 L178.2,177.3 L178.6,188.2 Z" fill="#d6d2c9" stroke="#bab6ad" stroke-width="0.4"></path><path d="M177.8,112.6 L178.0,122.2 L175.9,122.3 L173.8,122.3 L173.7,119.4 L163.6,119.7 L163.5,116.4 L163.4,113.0 L177.8,112.6 Z" fill="#d6d2c9" stroke="#bab6ad" stroke-width="0.4"></path><path d="M109.1,182.1 L109.9,200.9 L100.2,201.3 L99.9,194.4 L97.1,194.5 L97.0,191.4 L92.3,191.6 L91.9,182.9 L109.1,182.1 Z" fill="#d6d2c9" stroke="#bab6ad" stroke-width="0.4"></path><path d="M235.2,42.0 L235.2,43.6 L237.6,43.5 L238.0,50.9 L229.7,51.3 L229.4,44.2 L231.0,44.1 L231.0,42.1 L235.2,42.0 Z" fill="#d6d2c9" stroke="#bab6ad" stroke-width="0.4"></path><path d="M118.6,129.5 L116.1,129.6 L115.8,123.9 L118.3,123.8 L118.6,129.5 Z" fill="#d6d2c9" stroke="#bab6ad" stroke-width="0.4"></path><path d="M121.6,205.7 L115.7,205.8 L115.5,200.6 L121.5,200.5 L121.6,205.7 Z" fill="#d6d2c9" stroke="#bab6ad" stroke-width="0.4"></path><path d="M213.7,126.1 L204.0,126.3 L203.9,122.7 L205.5,122.7 L205.5,120.8 L213.6,120.7 L213.7,126.1 Z" fill="#d6d2c9" stroke="#bab6ad" stroke-width="0.4"></path><path d="M73.8,34.7 L70.9,34.8 L70.7,29.0 L73.6,28.9 L73.8,34.7 Z" fill="#d6d2c9" stroke="#bab6ad" stroke-width="0.4"></path><path d="M133.0,63.5 L133.0,64.8 L138.3,64.6 L138.5,69.1 L138.7,73.6 L134.8,73.8 L134.9,75.8 L132.2,75.9 L129.4,76.1 L128.8,63.8 L130.9,63.7 L133.0,63.5 Z" fill="#d6d2c9" stroke="#bab6ad" stroke-width="0.4"></path><path d="M156.7,33.3 L156.7,34.5 L160.7,34.4 L160.8,38.2 L162.7,38.1 L162.8,42.6 L163.0,47.1 L152.4,47.5 L152.2,41.1 L150.5,41.2 L150.2,33.5 L153.4,33.4 L156.7,33.3 Z" fill="#d6d2c9" stroke="#bab6ad" stroke-width="0.4"></path><path d="M222.2,36.4 L222.3,40.4 L212.3,40.7 L212.2,38.7 L211.1,38.7 L211.0,35.7 L210.9,32.8 L222.0,32.4 L222.2,36.4 Z" fill="#d6d2c9" stroke="#bab6ad" stroke-width="0.4"></path><path d="M173.0,59.2 L159.6,59.7 L159.3,50.4 L172.7,49.9 L173.0,59.2 Z" fill="#d6d2c9" stroke="#bab6ad" stroke-width="0.4"></path><path d="M128.3,117.9 L121.2,118.2 L121.0,113.0 L120.8,107.8 L127.8,107.5 L128.3,117.9 Z" fill="#d6d2c9" stroke="#bab6ad" stroke-width="0.4"></path><path d="M145.3,61.9 L145.3,62.4 L149.6,62.2 L150.2,80.6 L143.5,80.8 L143.4,79.0 L140.5,79.1 L140.0,62.0 L145.3,61.9 Z" fill="#d6d2c9" stroke="#bab6ad" stroke-width="0.4"></path><path d="M176.2,132.7 L164.9,133.2 L164.7,129.4 L167.3,129.3 L167.1,124.9 L175.9,124.5 L176.2,132.7 Z" fill="#d6d2c9" stroke="#bab6ad" stroke-width="0.4"></path><path d="M262.9,63.2 L262.9,65.0 L266.9,64.9 L267.3,76.4 L254.8,76.9 L254.3,65.3 L257.7,65.2 L257.6,63.4 L262.9,63.2 Z" fill="#d6d2c9" stroke="#bab6ad" stroke-width="0.4"></path><path d="M170.6,5.1 L154.7,5.7 L154.6,2.3 L154.5,-1.0 L170.4,-1.6 L170.6,5.1 Z" fill="#d6d2c9" stroke="#bab6ad" stroke-width="0.4"></path><path d="M146.5,35.5 L147.5,51.8 L145.1,51.9 L145.0,49.9 L142.5,50.0 L142.5,51.5 L139.5,51.6 L139.0,37.7 L141.8,37.6 L141.7,35.7 L146.5,35.5 Z" fill="#d6d2c9" stroke="#bab6ad" stroke-width="0.4"></path><path d="M173.4,70.5 L160.1,71.1 L159.7,61.9 L173.0,61.4 L173.4,70.5 Z" fill="#d6d2c9" stroke="#bab6ad" stroke-width="0.4"></path><path d="M139.9,199.5 L130.8,199.9 L130.3,189.4 L133.7,189.3 L133.5,182.6 L142.2,182.3 L142.7,192.9 L139.7,193.0 L139.9,199.5 Z" fill="#d6d2c9" stroke="#bab6ad" stroke-width="0.4"></path><path d="M129.8,137.5 L130.5,154.4 L126.2,154.6 L126.1,152.8 L121.1,153.0 L120.5,137.9 L129.8,137.5 Z" fill="#d6d2c9" stroke="#bab6ad" stroke-width="0.4"></path><path d="M247.5,28.7 L247.5,30.3 L250.6,30.2 L250.8,37.4 L240.0,37.8 L239.7,29.0 L247.5,28.7 Z" fill="#d6d2c9" stroke="#bab6ad" stroke-width="0.4"></path><path d="M116.5,138.2 L116.6,141.3 L118.0,141.3 L118.4,154.7 L109.7,155.0 L109.6,150.8 L99.6,151.1 L99.4,144.0 L109.3,143.7 L109.1,138.5 L116.5,138.2 Z" fill="#d6d2c9" stroke="#bab6ad" stroke-width="0.4"></path><path d="M244.2,114.6 L242.8,114.6 L242.5,104.7 L253.6,104.4 L253.8,112.2 L245.5,112.5 L245.5,114.5 L244.2,114.6 Z" fill="#d6d2c9" stroke="#bab6ad" stroke-width="0.4"></path><path d="M100.5,-6.7 L101.0,7.3 L98.8,7.4 L96.6,7.5 L96.6,5.6 L92.3,5.8 L92.1,-1.5 L96.1,-1.7 L95.9,-6.5 L98.2,-6.6 L100.5,-6.7 Z" fill="#d6d2c9" stroke="#bab6ad" stroke-width="0.4"></path><path d="M234.0,27.2 L234.3,32.0 L236.3,31.9 L236.5,34.8 L231.5,35.1 L231.4,33.7 L224.6,34.0 L224.2,27.8 L234.0,27.2 Z" fill="#d6d2c9" stroke="#bab6ad" stroke-width="0.4"></path><path d="M111.3,112.5 L104.0,112.8 L104.3,119.5 L99.3,119.7 L99.0,112.5 L97.4,112.6 L97.2,108.8 L111.7,107.7 L111.8,110.2 L111.2,110.2 L111.3,112.5 Z" fill="#d6d2c9" stroke="#bab6ad" stroke-width="0.4"></path><path d="M224.0,75.7 L212.8,76.2 L212.7,73.4 L212.5,70.6 L213.7,70.5 L213.6,68.4 L223.6,67.9 L223.8,71.8 L224.0,75.7 Z" fill="#d6d2c9" stroke="#bab6ad" stroke-width="0.4"></path><path d="M245.1,-0.9 L245.2,0.1 L243.0,0.2 L240.8,0.2 L240.8,-0.6 L237.6,-0.5 L237.4,-8.6 L248.5,-8.9 L248.6,-5.0 L248.8,-1.1 L245.1,-0.9 Z" fill="#d6d2c9" stroke="#bab6ad" stroke-width="0.4"></path><path d="M209.8,76.4 L198.6,76.9 L198.4,74.1 L198.3,71.3 L199.9,71.2 L199.8,69.0 L209.4,68.5 L209.8,76.4 Z" fill="#d6d2c9" stroke="#bab6ad" stroke-width="0.4"></path><path d="M82.4,199.1 L70.2,199.5 L69.7,184.3 L81.9,183.9 L82.4,199.1 Z" fill="#d6d2c9" stroke="#bab6ad" stroke-width="0.4"></path><path d="M212.9,147.3 L201.9,147.8 L201.6,142.0 L202.7,142.0 L202.5,139.8 L212.6,139.3 L212.9,147.3 Z" fill="#d6d2c9" stroke="#bab6ad" stroke-width="0.4"></path><path d="M174.1,80.9 L159.5,81.2 L159.4,77.2 L159.3,73.2 L173.9,72.9 L174.1,80.9 Z" fill="#d6d2c9" stroke="#bab6ad" stroke-width="0.4"></path><path d="M122.9,44.5 L113.1,44.8 L112.8,34.5 L122.6,34.2 L122.9,44.5 Z" fill="#d6d2c9" stroke="#bab6ad" stroke-width="0.4"></path><path d="M71.5,82.6 L61.5,83.2 L60.3,64.3 L70.4,63.7 L71.5,82.6 Z" fill="#d6d2c9" stroke="#bab6ad" stroke-width="0.4"></path><path d="M207.4,106.7 L207.5,108.2 L211.2,108.1 L211.5,118.1 L208.1,118.2 L204.6,118.3 L204.6,116.3 L201.6,116.4 L201.5,114.2 L200.4,114.3 L200.2,110.7 L199.9,107.2 L207.4,106.7 Z" fill="#d6d2c9" stroke="#bab6ad" stroke-width="0.4"></path><path d="M56.3,70.0 L57.1,83.5 L53.9,83.6 L50.8,83.8 L50.7,81.5 L50.1,81.5 L49.5,70.4 L52.9,70.2 L56.3,70.0 Z" fill="#d6d2c9" stroke="#bab6ad" stroke-width="0.4"></path><path d="M137.8,124.1 L132.6,124.3 L132.3,115.3 L136.1,115.2 L135.9,108.6 L143.1,108.3 L143.0,106.7 L148.6,106.5 L149.0,118.5 L137.6,118.9 L137.8,124.1 Z" fill="#d6d2c9" stroke="#bab6ad" stroke-width="0.4"></path><path d="M223.2,147.5 L223.2,150.0 L221.0,150.0 L218.8,150.1 L218.7,147.7 L216.0,147.8 L215.9,145.0 L215.8,142.2 L216.9,142.2 L216.8,139.9 L227.1,139.6 L227.3,147.4 L223.2,147.5 Z" fill="#d6d2c9" stroke="#bab6ad" stroke-width="0.4"></path><path d="M102.5,37.4 L102.7,40.8 L103.9,40.8 L104.0,44.1 L102.6,44.1 L102.7,46.4 L94.3,46.8 L93.9,37.8 L102.5,37.4 Z" fill="#d6d2c9" stroke="#bab6ad" stroke-width="0.4"></path><path d="M54.7,184.6 L54.7,186.7 L60.0,186.6 L60.0,185.5 L63.6,185.3 L64.0,192.6 L61.0,192.7 L61.1,195.7 L53.7,195.9 L53.7,198.6 L46.9,198.8 L46.7,191.1 L48.1,191.0 L47.9,184.8 L54.7,184.6 Z" fill="#d6d2c9" stroke="#bab6ad" stroke-width="0.4"></path><path d="M124.5,5.1 L117.5,5.5 L117.1,-2.2 L116.8,-9.8 L123.8,-10.1 L124.2,-2.5 L124.5,5.1 Z" fill="#d6d2c9" stroke="#bab6ad" stroke-width="0.4"></path><path d="M134.6,-8.3 L135.2,5.7 L131.4,5.9 L131.4,4.8 L126.5,5.0 L125.9,-7.9 L130.2,-8.1 L134.6,-8.3 Z" fill="#d6d2c9" stroke="#bab6ad" stroke-width="0.4"></path><path d="M157.0,136.7 L175.0,135.8 L175.5,145.3 L157.5,146.1 L157.0,136.7 Z" fill="#d6d2c9" stroke="#bab6ad" stroke-width="0.4"></path><path d="M17.6,246.4 L17.9,253.6 L18.5,262.7 L18.7,267.5" fill="none" stroke="#cf828d" stroke-width="1.3" stroke-dasharray="1.6 3.0" opacity="0.62" stroke-linecap="round" stroke-linejoin="round"></path><path d="M-5.1,245.3 L5.8,244.7 L14.7,244.2" fill="none" stroke="#cf828d" stroke-width="1.3" stroke-dasharray="1.6 3.0" opacity="0.62" stroke-linecap="round" stroke-linejoin="round"></path><path d="M14.7,244.2 L16.2,244.1 L17.8,245.5 L17.6,246.4" fill="none" stroke="#cf828d" stroke-width="1.3" stroke-dasharray="1.6 3.0" opacity="0.62" stroke-linecap="round" stroke-linejoin="round"></path><path d="M12.5,180.6 L12.1,172.3 L11.8,164.3" fill="none" stroke="#cf828d" stroke-width="1.3" stroke-dasharray="1.6 3.0" opacity="0.62" stroke-linecap="round" stroke-linejoin="round"></path><path d="M8.9,106.2 L8.5,97.9 L8.0,90.0" fill="none" stroke="#cf828d" stroke-width="1.3" stroke-dasharray="1.6 3.0" opacity="0.62" stroke-linecap="round" stroke-linejoin="round"></path><path d="M166.2,267.3 L165.4,255.5" fill="none" stroke="#cec8bb" stroke-width="3.2" stroke-linecap="round" stroke-linejoin="round"/><path d="M166.2,267.3 L165.4,255.5" fill="none" stroke="#ffffff" stroke-width="2.2" stroke-linecap="round" stroke-linejoin="round"></path><path d="M373.8,10.0 L183.7,17.0 L5.5,23.6 L-4.8,23.9" fill="none" stroke="#cec8bb" stroke-width="4.3" stroke-linecap="round" stroke-linejoin="round"/><path d="M373.8,10.0 L183.7,17.0 L5.5,23.6 L-4.8,23.9" fill="none" stroke="#ffffff" stroke-width="3.2" stroke-linecap="round" stroke-linejoin="round"><title>Northwest 65th Street</title></path><path d="M2.2,172.6 L12.1,172.3 L15.5,172.2 L191.6,166.5 L379.7,159.6" fill="none" stroke="#cec8bb" stroke-width="4.3" stroke-linecap="round" stroke-linejoin="round"/><path d="M2.2,172.6 L12.1,172.3 L15.5,172.2 L191.6,166.5 L379.7,159.6" fill="none" stroke="#ffffff" stroke-width="3.2" stroke-linecap="round" stroke-linejoin="round"><title>Northwest 63rd Street</title></path><path d="M376.4,84.3 L187.1,91.2 L12.3,97.7 L8.5,97.9 L-1.3,98.2" fill="none" stroke="#cec8bb" stroke-width="4.3" stroke-linecap="round" stroke-linejoin="round"/><path d="M376.4,84.3 L187.1,91.2 L12.3,97.7 L8.5,97.9 L-1.3,98.2" fill="none" stroke="#ffffff" stroke-width="3.2" stroke-linecap="round" stroke-linejoin="round"><title>Northwest 64th Street</title></path><path d="M196.7,328.2 L196.5,292.0 L196.4,282.0 L196.4,270.1 L196.3,254.3" fill="none" stroke="#cec8bb" stroke-width="4.3" stroke-linecap="round" stroke-linejoin="round"/><path d="M196.7,328.2 L196.5,292.0 L196.4,282.0 L196.4,270.1 L196.3,254.3" fill="none" stroke="#ffffff" stroke-width="3.2" stroke-linecap="round" stroke-linejoin="round"><title>Northwest 11th Avenue</title></path><path d="M196.3,254.3 L195.9,245.1 L191.6,166.5 L187.1,91.2 L183.7,17.0 L182.1,-56.5" fill="none" stroke="#cec8bb" stroke-width="4.3" stroke-linecap="round" stroke-linejoin="round"/><path d="M196.3,254.3 L195.9,245.1 L191.6,166.5 L187.1,91.2 L183.7,17.0 L182.1,-56.5" fill="none" stroke="#ffffff" stroke-width="3.2" stroke-linecap="round" stroke-linejoin="round"><title>Northwest 11th Avenue</title></path><path d="M-18.4,112.5 L-14.9,188.6 L-14.2,192.0 L-12.4,194.7 L-9.8,196.5 L-6.7,197.3 L-1.9,197.9 L3.3,197.8" fill="none" stroke="#cec8bb" stroke-width="4.3" stroke-linecap="round" stroke-linejoin="round"/><path d="M-18.4,112.5 L-14.9,188.6 L-14.2,192.0 L-12.4,194.7 L-9.8,196.5 L-6.7,197.3 L-1.9,197.9 L3.3,197.8" fill="none" stroke="#ffffff" stroke-width="3.2" stroke-linecap="round" stroke-linejoin="round"><title>Northwest 12th Avenue</title></path><path d="M196.3,254.3 L297.5,250.8 L341.9,251.0" fill="none" stroke="#d1c4aa" stroke-width="5.8" stroke-linecap="round" stroke-linejoin="round"/><path d="M196.3,254.3 L297.5,250.8 L341.9,251.0" fill="none" stroke="#f1c77d" stroke-width="4.4" stroke-linecap="round" stroke-linejoin="round"><title>Northwest 62nd Street</title></path><path d="M334.7,240.3 L195.9,245.1 L122.9,247.9 L100.2,249.0 L88.7,249.8 L66.6,251.9" fill="none" stroke="#d1c4aa" stroke-width="5.8" stroke-linecap="round" stroke-linejoin="round"/><path d="M334.7,240.3 L195.9,245.1 L122.9,247.9 L100.2,249.0 L88.7,249.8 L66.6,251.9" fill="none" stroke="#f1c77d" stroke-width="4.4" stroke-linecap="round" stroke-linejoin="round"><title>Northwest 62nd Street</title></path><path d="M6.7,262.9 L6.3,253.8" fill="none" stroke="#d1c4aa" stroke-width="5.8" stroke-linecap="round" stroke-linejoin="round"/><path d="M6.7,262.9 L6.3,253.8" fill="none" stroke="#f1c77d" stroke-width="4.4" stroke-linecap="round" stroke-linejoin="round"><title>Northwest 12th Avenue</title></path><path d="M49.8,252.7 L44.6,253.0 L35.8,253.3 L17.9,253.6 L6.3,253.8" fill="none" stroke="#d1c4aa" stroke-width="5.8" stroke-linecap="round" stroke-linejoin="round"/><path d="M49.8,252.7 L44.6,253.0 L35.8,253.3 L17.9,253.6 L6.3,253.8" fill="none" stroke="#f1c77d" stroke-width="4.4" stroke-linecap="round" stroke-linejoin="round"><title>Northwest 62nd Street</title></path><path d="M66.6,251.9 L49.8,252.7" fill="none" stroke="#d1c4aa" stroke-width="5.8" stroke-linecap="round" stroke-linejoin="round"/><path d="M66.6,251.9 L49.8,252.7" fill="none" stroke="#f1c77d" stroke-width="4.4" stroke-linecap="round" stroke-linejoin="round"><title>Northwest 62nd Street</title></path><path d="M6.3,253.8 L5.8,244.7 L3.3,197.8 L2.2,172.6" fill="none" stroke="#d1c4aa" stroke-width="5.8" stroke-linecap="round" stroke-linejoin="round"/><path d="M6.3,253.8 L5.8,244.7 L3.3,197.8 L2.2,172.6" fill="none" stroke="#f1c77d" stroke-width="4.4" stroke-linecap="round" stroke-linejoin="round"><title>Northwest 12th Avenue</title></path><path d="M6.7,262.9 L18.5,262.7 L38.5,262.3 L43.1,262.1 L56.2,261.5 L79.0,259.7 L93.7,258.6 L102.4,258.0 L157.0,255.8" fill="none" stroke="#d1c4aa" stroke-width="5.8" stroke-linecap="round" stroke-linejoin="round"/><path d="M6.7,262.9 L18.5,262.7 L38.5,262.3 L43.1,262.1 L56.2,261.5 L79.0,259.7 L93.7,258.6 L102.4,258.0 L157.0,255.8" fill="none" stroke="#f1c77d" stroke-width="4.4" stroke-linecap="round" stroke-linejoin="round"><title>Northwest 62nd Street</title></path><path d="M157.0,255.8 L165.4,255.5 L196.3,254.3" fill="none" stroke="#d1c4aa" stroke-width="5.8" stroke-linecap="round" stroke-linejoin="round"/><path d="M157.0,255.8 L165.4,255.5 L196.3,254.3" fill="none" stroke="#f1c77d" stroke-width="4.4" stroke-linecap="round" stroke-linejoin="round"><title>Northwest 62nd Street</title></path><path d="M6.3,253.8 L-6.6,254.3 L-38.7,255.4 L-72.3,256.6" fill="none" stroke="#d1c4aa" stroke-width="5.8" stroke-linecap="round" stroke-linejoin="round"/><path d="M6.3,253.8 L-6.6,254.3 L-38.7,255.4 L-72.3,256.6" fill="none" stroke="#f1c77d" stroke-width="4.4" stroke-linecap="round" stroke-linejoin="round"><title>Northwest 62nd Street</title></path><path d="M0.1,124.1 L-0.5,111.8" fill="none" stroke="#d1c4aa" stroke-width="5.8" stroke-linecap="round" stroke-linejoin="round"/><path d="M0.1,124.1 L-0.5,111.8" fill="none" stroke="#f1c77d" stroke-width="4.4" stroke-linecap="round" stroke-linejoin="round"><title>Northwest 12th Avenue</title></path><path d="M2.2,172.6 L0.1,124.1" fill="none" stroke="#d1c4aa" stroke-width="5.8" stroke-linecap="round" stroke-linejoin="round"/><path d="M2.2,172.6 L0.1,124.1" fill="none" stroke="#f1c77d" stroke-width="4.4" stroke-linecap="round" stroke-linejoin="round"><title>Northwest 12th Avenue</title></path><text x="73.9" y="168.9" text-anchor="middle" font-family="Arial, sans-serif" font-size="8" font-weight="600" paint-order="stroke" stroke="#edf5ec" stroke-width="1.9" stroke-linejoin="round" fill="#5c806b"><tspan x="73.9" textLength="87.0" lengthAdjust="spacing">Griffins Day Care</tspan><tspan x="73.9" dy="9.4" textLength="71.7" lengthAdjust="spacing">Nursery School</tspan></text><text x="99.9" y="20.1" transform="rotate(-2.1 99.9 20.1)" text-anchor="middle" dominant-baseline="central" font-family="Arial, sans-serif" font-size="8.3" textLength="111.6" lengthAdjust="spacing" font-weight="650" paint-order="stroke" stroke="#fffaf0" stroke-width="2.05" stroke-linejoin="round" fill="#695f54">Northwest 65th Street</text><text x="101.6" y="94.4" transform="rotate(-2.2 101.6 94.4)" text-anchor="middle" dominant-baseline="central" font-family="Arial, sans-serif" font-size="8.3" textLength="111.6" lengthAdjust="spacing" font-weight="650" paint-order="stroke" stroke="#fffaf0" stroke-width="2.05" stroke-linejoin="round" fill="#695f54">Northwest 64th Street</text><text x="189.4" y="128.8" transform="rotate(86.6 189.4 128.8)" text-anchor="middle" dominant-baseline="central" font-family="Arial, sans-serif" font-size="8.3" textLength="111.6" lengthAdjust="spacing" font-weight="650" paint-order="stroke" stroke="#fffaf0" stroke-width="2.05" stroke-linejoin="round" fill="#695f54">Northwest 11th Avenue</text><text x="91.2" y="116.8" text-anchor="middle" font-family="Arial, sans-serif" font-size="6.5" textLength="18.0" lengthAdjust="spacing" font-weight="500" paint-order="stroke" stroke="#f3f5ee" stroke-width="1.55" stroke-linejoin="round" fill="#6f777a">1156</text><text x="58.2" y="147.4" text-anchor="middle" font-family="Arial, sans-serif" font-size="6.5" textLength="18.0" lengthAdjust="spacing" font-weight="500" paint-order="stroke" stroke="#f3f5ee" stroke-width="1.55" stroke-linejoin="round" fill="#6f777a">1185</text><text x="41.5" y="44.0" text-anchor="middle" font-family="Arial, sans-serif" font-size="6.5" textLength="18.0" lengthAdjust="spacing" font-weight="500" paint-order="stroke" stroke="#f3f5ee" stroke-width="1.55" stroke-linejoin="round" fill="#6f777a">1180</text><text x="26.5" y="127.6" text-anchor="middle" font-family="Arial, sans-serif" font-size="6.5" textLength="18.0" lengthAdjust="spacing" font-weight="500" paint-order="stroke" stroke="#f3f5ee" stroke-width="1.55" stroke-linejoin="round" fill="#6f777a">6301</text><text x="23.3" y="77.4" text-anchor="middle" font-family="Arial, sans-serif" font-size="6.5" textLength="18.0" lengthAdjust="spacing" font-weight="500" paint-order="stroke" stroke="#f3f5ee" stroke-width="1.55" stroke-linejoin="round" fill="#6f777a">6401</text><text x="20.2" y="16.5" text-anchor="middle" font-family="Arial, sans-serif" font-size="6.5" textLength="18.0" lengthAdjust="spacing" font-weight="500" paint-order="stroke" stroke="#f3f5ee" stroke-width="1.55" stroke-linejoin="round" fill="#6f777a">6501</text><text x="56.1" y="117.8" text-anchor="middle" font-family="Arial, sans-serif" font-size="6.5" textLength="18.0" lengthAdjust="spacing" font-weight="500" paint-order="stroke" stroke="#f3f5ee" stroke-width="1.55" stroke-linejoin="round" fill="#6f777a">1180</text><text x="218.0" y="221.2" text-anchor="middle" font-family="Arial, sans-serif" font-size="6.5" textLength="18.0" lengthAdjust="spacing" font-weight="500" paint-order="stroke" stroke="#f3f5ee" stroke-width="1.55" stroke-linejoin="round" fill="#6f777a">1085</text><text x="92.8" y="147.6" text-anchor="middle" font-family="Arial, sans-serif" font-size="6.5" textLength="18.0" lengthAdjust="spacing" font-weight="500" paint-order="stroke" stroke="#f3f5ee" stroke-width="1.55" stroke-linejoin="round" fill="#6f777a">1155</text><text x="99.6" y="74.5" text-anchor="middle" font-family="Arial, sans-serif" font-size="6.5" textLength="18.0" lengthAdjust="spacing" font-weight="500" paint-order="stroke" stroke="#f3f5ee" stroke-width="1.55" stroke-linejoin="round" fill="#6f777a">1141</text><text x="148.7" y="145.1" text-anchor="middle" font-family="Arial, sans-serif" font-size="6.5" textLength="18.0" lengthAdjust="spacing" font-weight="500" paint-order="stroke" stroke="#f3f5ee" stroke-width="1.55" stroke-linejoin="round" fill="#6f777a">1121</text><text x="15.1" y="42.1" text-anchor="middle" font-family="Arial, sans-serif" font-size="6.5" textLength="18.0" lengthAdjust="spacing" font-weight="500" paint-order="stroke" stroke="#f3f5ee" stroke-width="1.55" stroke-linejoin="round" fill="#6f777a">1192</text><text x="210.6" y="183.3" text-anchor="middle" font-family="Arial, sans-serif" font-size="6.5" textLength="18.0" lengthAdjust="spacing" font-weight="500" paint-order="stroke" stroke="#f3f5ee" stroke-width="1.55" stroke-linejoin="round" fill="#6f777a">6229</text><text x="235.6" y="181.6" text-anchor="middle" font-family="Arial, sans-serif" font-size="6.5" textLength="18.0" lengthAdjust="spacing" font-weight="500" paint-order="stroke" stroke="#f3f5ee" stroke-width="1.55" stroke-linejoin="round" fill="#6f777a">1080</text><text x="169.5" y="39.1" text-anchor="middle" font-family="Arial, sans-serif" font-size="6.5" textLength="18.0" lengthAdjust="spacing" font-weight="500" paint-order="stroke" stroke="#f3f5ee" stroke-width="1.55" stroke-linejoin="round" fill="#6f777a">6438</text><text x="63.8" y="41.6" text-anchor="middle" font-family="Arial, sans-serif" font-size="6.5" textLength="18.0" lengthAdjust="spacing" font-weight="500" paint-order="stroke" stroke="#f3f5ee" stroke-width="1.55" stroke-linejoin="round" fill="#6f777a">1166</text><text x="150.6" y="190.3" text-anchor="middle" font-family="Arial, sans-serif" font-size="6.5" textLength="18.0" lengthAdjust="spacing" font-weight="500" paint-order="stroke" stroke="#f3f5ee" stroke-width="1.55" stroke-linejoin="round" fill="#6f777a">1108</text><text x="232.3" y="68.0" text-anchor="middle" font-family="Arial, sans-serif" font-size="6.5" textLength="18.0" lengthAdjust="spacing" font-weight="500" paint-order="stroke" stroke="#f3f5ee" stroke-width="1.55" stroke-linejoin="round" fill="#6f777a">1077</text><text x="234.4" y="146.0" text-anchor="middle" font-family="Arial, sans-serif" font-size="6.5" textLength="18.0" lengthAdjust="spacing" font-weight="500" paint-order="stroke" stroke="#f3f5ee" stroke-width="1.55" stroke-linejoin="round" fill="#6f777a">1075</text><text x="219.3" y="114.2" text-anchor="middle" font-family="Arial, sans-serif" font-size="6.5" textLength="18.0" lengthAdjust="spacing" font-weight="500" paint-order="stroke" stroke="#f3f5ee" stroke-width="1.55" stroke-linejoin="round" fill="#6f777a">1084</text><text x="121.8" y="70.5" text-anchor="middle" font-family="Arial, sans-serif" font-size="6.5" textLength="18.0" lengthAdjust="spacing" font-weight="500" paint-order="stroke" stroke="#f3f5ee" stroke-width="1.55" stroke-linejoin="round" fill="#6f777a">1131</text><text x="131.9" y="40.8" text-anchor="middle" font-family="Arial, sans-serif" font-size="6.5" textLength="18.0" lengthAdjust="spacing" font-weight="500" paint-order="stroke" stroke="#f3f5ee" stroke-width="1.55" stroke-linejoin="round" fill="#6f777a">1120</text><text x="215.5" y="37.0" text-anchor="middle" font-family="Arial, sans-serif" font-size="6.5" textLength="18.0" lengthAdjust="spacing" font-weight="500" paint-order="stroke" stroke="#f3f5ee" stroke-width="1.55" stroke-linejoin="round" fill="#6f777a">1084</text><text x="166.2" y="54.8" text-anchor="middle" font-family="Arial, sans-serif" font-size="6.5" textLength="18.0" lengthAdjust="spacing" font-weight="500" paint-order="stroke" stroke="#f3f5ee" stroke-width="1.55" stroke-linejoin="round" fill="#6f777a">6420</text><text x="144.7" y="71.0" text-anchor="middle" font-family="Arial, sans-serif" font-size="6.5" textLength="18.0" lengthAdjust="spacing" font-weight="500" paint-order="stroke" stroke="#f3f5ee" stroke-width="1.55" stroke-linejoin="round" fill="#6f777a">1115</text><text x="169.3" y="129.0" text-anchor="middle" font-family="Arial, sans-serif" font-size="6.5" textLength="18.0" lengthAdjust="spacing" font-weight="500" paint-order="stroke" stroke="#f3f5ee" stroke-width="1.55" stroke-linejoin="round" fill="#6f777a">6316</text><text x="125.7" y="148.4" text-anchor="middle" font-family="Arial, sans-serif" font-size="6.5" textLength="18.0" lengthAdjust="spacing" font-weight="500" paint-order="stroke" stroke="#f3f5ee" stroke-width="1.55" stroke-linejoin="round" fill="#6f777a">1131</text><text x="241.0" y="32.2" text-anchor="middle" font-family="Arial, sans-serif" font-size="6.5" textLength="18.0" lengthAdjust="spacing" font-weight="500" paint-order="stroke" stroke="#f3f5ee" stroke-width="1.55" stroke-linejoin="round" fill="#6f777a">1070</text><text x="241.0" y="111.1" text-anchor="middle" font-family="Arial, sans-serif" font-size="6.5" textLength="18.0" lengthAdjust="spacing" font-weight="500" paint-order="stroke" stroke="#f3f5ee" stroke-width="1.55" stroke-linejoin="round" fill="#6f777a">1068</text><text x="165.3" y="77.1" text-anchor="middle" font-family="Arial, sans-serif" font-size="6.5" textLength="18.0" lengthAdjust="spacing" font-weight="500" paint-order="stroke" stroke="#f3f5ee" stroke-width="1.55" stroke-linejoin="round" fill="#6f777a">6400</text><text x="65.9" y="73.5" text-anchor="middle" font-family="Arial, sans-serif" font-size="6.5" textLength="18.0" lengthAdjust="spacing" font-weight="500" paint-order="stroke" stroke="#f3f5ee" stroke-width="1.55" stroke-linejoin="round" fill="#6f777a">1165</text><text x="139.6" y="114.6" text-anchor="middle" font-family="Arial, sans-serif" font-size="6.5" textLength="18.0" lengthAdjust="spacing" font-weight="500" paint-order="stroke" stroke="#f3f5ee" stroke-width="1.55" stroke-linejoin="round" fill="#6f777a">1120</text><text x="100.8" y="42.3" text-anchor="middle" font-family="Arial, sans-serif" font-size="6.5" textLength="18.0" lengthAdjust="spacing" font-weight="500" paint-order="stroke" stroke="#f3f5ee" stroke-width="1.55" stroke-linejoin="round" fill="#6f777a">1142</text><text x="179.8" y="225.0" text-anchor="middle" font-family="Arial, sans-serif" font-size="6.5" textLength="18.0" lengthAdjust="spacing" font-weight="500" paint-order="stroke" stroke="#f3f5ee" stroke-width="1.55" stroke-linejoin="round" fill="#6f777a">1101</text><text x="237.3" y="221.2" text-anchor="middle" font-family="Arial, sans-serif" font-size="6.5" textLength="18.0" lengthAdjust="spacing" font-weight="500" paint-order="stroke" stroke="#f3f5ee" stroke-width="1.55" stroke-linejoin="round" fill="#6f777a">1075</text><text x="28.4" y="200.6" text-anchor="middle" font-family="Arial, sans-serif" font-size="6.5" textLength="18.0" lengthAdjust="spacing" font-weight="500" paint-order="stroke" stroke="#f3f5ee" stroke-width="1.55" stroke-linejoin="round" fill="#6f777a">6255</text><text x="124.3" y="225.1" text-anchor="middle" font-family="Arial, sans-serif" font-size="6.5" textLength="18.0" lengthAdjust="spacing" font-weight="500" paint-order="stroke" stroke="#f3f5ee" stroke-width="1.55" stroke-linejoin="round" fill="#6f777a">1131</text><text x="32.3" y="230.1" text-anchor="middle" font-family="Arial, sans-serif" font-size="6.5" textLength="18.0" lengthAdjust="spacing" font-weight="500" paint-order="stroke" stroke="#f3f5ee" stroke-width="1.55" stroke-linejoin="round" fill="#6f777a">1199</text><text x="58.0" y="236.0" text-anchor="middle" font-family="Arial, sans-serif" font-size="6.5" textLength="18.0" lengthAdjust="spacing" font-weight="500" paint-order="stroke" stroke="#f3f5ee" stroke-width="1.55" stroke-linejoin="round" fill="#6f777a">1177</text><text x="82.1" y="226.6" text-anchor="middle" font-family="Arial, sans-serif" font-size="6.5" textLength="18.0" lengthAdjust="spacing" font-weight="500" paint-order="stroke" stroke="#f3f5ee" stroke-width="1.55" stroke-linejoin="round" fill="#6f777a">1155</text><text x="102.8" y="225.8" text-anchor="middle" font-family="Arial, sans-serif" font-size="6.5" textLength="18.0" lengthAdjust="spacing" font-weight="500" paint-order="stroke" stroke="#f3f5ee" stroke-width="1.55" stroke-linejoin="round" fill="#6f777a">1141</text><text x="146.9" y="224.3" text-anchor="middle" font-family="Arial, sans-serif" font-size="6.5" textLength="18.0" lengthAdjust="spacing" font-weight="500" paint-order="stroke" stroke="#f3f5ee" stroke-width="1.55" stroke-linejoin="round" fill="#6f777a">1119</text><g><title>NW 62 ST@NW 11 AV</title><rect x="171.4" y="237.9" width="6.9" height="6.1" rx="1.3" fill="#2796c9" stroke="#ffffff" stroke-width="1.05"/><rect x="172.7" y="239.1" width="4.4" height="2.1" rx="0.35" fill="#ffffff"/><circle cx="173.0" cy="242.9" r="0.5" fill="#ffffff"/><circle cx="176.7" cy="242.9" r="0.5" fill="#ffffff"/></g><g opacity="0.56"><title>crossing</title><path d="M9.8,170.5 L14.4,170.5 M9.8,172.3 L14.4,172.3 M9.8,174.1 L14.4,174.1" stroke="#ffffff" stroke-width="2.1" stroke-linecap="round"/><path d="M9.8,170.5 L14.4,170.5 M9.8,172.3 L14.4,172.3 M9.8,174.1 L14.4,174.1" stroke="#59656a" stroke-width="0.85" stroke-linecap="round"/></g></svg>