<svg xmlns="http://www.w3.org/2000/svg" width="256" height="256" viewBox="0 0 256 256"><rect width="256" height="256" fill="#f1efe7"/><path d="M-6154.7,15314.3 L-5939.9,15225.0 L-5872.7,15192.7 L-5572.2,15048.4 L-5515.8,15103.0 L-5510.9,15107.7 L-5405.5,15017.5 L-5380.4,14998.4 L-5338.5,14960.6 L-5102.4,14743.8 L-4911.9,14526.2 L-4904.6,14512.3 L-4897.6,14504.4 L-4886.5,14491.7 L-4875.2,14478.8 L-4870.6,14473.5 L-4945.7,14376.4 L-4846.3,14316.8 L-4792.4,14388.5 L-4716.2,14301.3 L-4780.7,14215.9 L-4700.8,14132.6 L-4639.3,14213.6 L-4568.7,14133.2 L-4538.6,14113.5 L-4391.4,14018.0 L-4318.7,13969.7 L-4231.1,13912.1 L-4189.7,13884.9 L-4084.8,13817.2 L-4111.8,13781.7 L-4160.1,13717.0 L-4035.2,13637.6 L-3989.7,13614.1 L-3986.2,13611.6 L-3962.2,13593.1 L-3876.6,13547.3 L-3870.7,13538.1 L-3846.7,13521.6 L-3833.7,13502.6 L-3830.0,13499.8 L-3809.1,13491.7 L-3761.9,13474.8 L-3729.6,13460.6 L-3615.5,13407.0 L-3614.1,13410.7 L-3518.4,13369.8 L-3479.3,13419.9 L-3392.2,13361.8 L-3379.8,13353.3 L-3378.6,13352.3 L-3377.4,13350.7 L-3375.5,13347.4 L-3374.5,13344.3 L-3373.9,13340.6 L-3374.0,13337.6 L-3374.4,13334.7 L-3374.8,13331.4 L-3374.9,13328.9 L-3374.7,13326.8 L-3374.3,13324.6 L-3372.7,13320.6 L-3371.6,13318.4 L-3369.1,13314.6 L-3366.5,13311.8 L-3353.8,13306.7 L-3343.2,13302.7 L-3329.7,13298.3 L-3323.4,13296.6 L-3312.2,13292.9 L-3304.3,13290.1 L-3293.4,13285.6 L-3278.6,13279.1 L-3262.6,13271.6 L-3254.0,13267.4 L-3243.2,13261.9 L-3233.1,13256.3 L-3223.0,13250.3 L-3212.7,13243.6 L-3209.5,13241.4 L-3188.8,13225.6 L-3171.4,13212.2 L-3154.4,13197.8 L-3138.5,13182.8 L-3127.0,13169.9 L-3115.6,13156.0 L-3101.6,13138.0 L-3088.8,13120.0 L-3074.1,13096.9 L-3064.5,13079.0 L-3058.5,13067.6 L-3049.6,13048.3 L-3042.1,13030.4 L-3035.4,13011.1 L-3030.0,12994.2 L-3024.1,12966.8 L-3019.8,12942.3 L-3017.5,12921.3 L-3015.5,12896.5 L-3015.3,12870.0 L-3016.9,12845.5 L-3021.1,12813.5 L-3025.5,12791.7 L-3030.5,12771.1 L-3037.9,12747.7 L-3044.2,12729.8 L-3051.4,12710.3 L-3058.2,12694.1 L-3062.8,12683.6 L-3064.7,12675.9 L-3065.0,12670.0 L-3064.4,12664.7 L-3062.3,12660.1 L-3059.1,12656.2 L-3054.9,12654.0 L-3050.4,12653.4 L-3038.3,12656.3 L-3004.6,12664.4 L-2993.4,12409.7 L-2949.7,11955.1 L-2997.2,11943.9 L-3002.4,11929.6 L-3002.2,11909.1 L-2995.6,11862.6 L-2986.6,11852.1 L-2978.6,11821.9 L-2928.1,11833.6 L-2900.3,11543.1 L-2892.6,11462.7 L-2908.3,11458.8 L-2898.8,11420.4 L-2931.1,11412.7 L-2927.0,11389.2 L-2921.3,11373.7 L-2914.2,11355.6 L-2902.2,11330.3 L-2889.3,11333.2 L-2871.9,11150.5 L-2867.8,11039.7 L-2867.0,11019.3 L-2857.6,10948.8 L-2838.9,10773.1 L-2714.1,10447.7 L-2685.6,10359.0 L-2338.9,10226.0 L-2305.0,10212.4 L-2299.1,10209.2 L-2294.5,10205.0 L-2289.4,10199.1 L-2285.5,10192.2 L-2282.9,10185.4 L-2282.3,10175.5 L-2282.8,10163.2 L-2287.4,10007.7 L-2289.1,9977.6 L-2289.6,9956.9 L-2290.3,9916.7 L-2291.1,9904.1 L-2292.6,9893.5 L-2294.7,9884.1 L-2297.8,9874.5 L-2302.7,9863.2 L-2309.9,9851.1 L-2316.9,9841.5 L-2322.3,9832.4 L-2327.8,9820.3 L-2332.4,9808.7 L-2334.2,9799.2 L-2335.6,9788.7 L-2336.3,9778.2 L-2336.0,9768.0 L-2334.8,9756.1 L-2332.0,9744.4 L-2328.3,9734.0 L-2324.4,9724.5 L-2319.4,9715.3 L-2313.3,9704.1 L-2309.3,9694.0 L-2305.8,9681.1 L-2299.4,9671.3 L-2301.6,9582.1 L-2304.9,9576.9 L-2305.9,9516.3 L-2307.6,9444.8 L-2306.4,9434.9 L-2303.2,9424.8 L-2295.2,9409.0 L-2241.7,9293.9 L-2240.6,9292.0 L-2231.2,9271.5 L-2222.3,9252.1 L-2212.3,9232.1 L-2202.5,9211.5 L-2197.7,9201.5 L-2145.1,9093.6 L-2088.9,8974.4 L-1967.3,8727.6 L-2040.4,8645.7 L-2100.0,8772.7 L-2151.5,8882.6 L-2159.3,8898.2 L-2175.2,8930.7 L-2207.0,8928.0 L-2215.7,8927.5 L-2218.8,8930.3 L-2214.6,8934.1 L-2230.9,8948.6 L-2243.8,8960.5 L-2246.2,9011.4 L-2251.0,9021.6 L-2266.6,9021.0 L-2269.2,9020.1 L-2473.6,8935.7 L-2478.0,8933.4 L-2482.7,8930.4 L-2490.1,8924.8 L-2495.8,8919.4 L-2500.6,8914.2 L-2505.3,8907.8 L-2508.9,8902.2 L-2511.7,8896.4 L-2513.9,8890.3 L-2515.4,8886.1 L-2516.5,8881.0 L-2517.3,8875.0 L-2518.1,8866.8 L-2518.1,8855.1 L-2519.5,8815.4 L-2513.9,8815.1 L-2514.7,8794.1 L-2515.6,8759.5 L-2510.4,8759.4 L-2510.8,8735.8 L-2516.7,8735.9 L-2519.4,8636.5 L-2513.8,8636.2 L-2514.7,8612.9 L-2520.1,8613.1 L-2522.4,8539.6 L-2495.4,8510.5 L-2460.9,8509.3 L-2435.2,8508.4 L-2401.3,8507.3 L-2368.7,8506.3 L-2339.5,8505.3 L-2326.8,8504.7 L-2327.4,8493.4 L-2327.6,8481.6 L-2329.5,8443.3 L-2330.2,8370.2 L-2331.2,8368.9 L-2331.4,8361.7 L-2329.3,8361.6 L-2334.4,8185.5 L-2338.8,8019.8 L-2339.5,8014.6 L-2339.9,8005.0 L-2412.1,8007.6 L-2460.1,8003.5 L-2819.4,8016.0 L-2819.5,8012.8 L-2820.2,7997.5 L-2990.6,8003.5 L-2990.9,7975.2 L-3013.4,7970.1 L-3017.4,7849.0 L-2354.6,7826.0 L-2343.6,7810.9 L-2344.0,7767.9 L-2344.8,7730.7 L-2345.4,7707.4 L-2346.3,7684.7 L-2399.0,7659.9 L-2401.1,7604.8 L-2347.1,7578.0 L-2352.0,7450.5 L-2353.4,7444.2 L-2407.1,7419.1 L-2408.8,7350.9 L-2357.8,7324.6 L-2380.5,7047.7 L-2374.5,6924.5 L-2371.5,6723.6 L-2371.7,6505.1 L-2366.9,6474.5 L-2366.6,6459.7 L-2371.4,6441.9 L-2366.4,6441.9 L-2366.4,6425.8 L-2363.4,6014.8 L-2363.9,5996.5 L-2369.6,5996.5 L-2369.4,5920.9 L-2372.7,5916.2 L-2377.9,5838.2 L-2367.6,5766.9 L-2368.9,5680.6 L-2372.4,5659.9 L-2367.1,5596.0 L-2370.7,5518.7 L-2379.7,5436.0 L-2396.8,5302.0 L-2388.7,5265.1 L-2392.3,5229.2 L-2422.9,5203.1 L-2467.8,5203.5 L-2536.2,5212.5 L-2580.7,5212.5 L-2621.1,5197.7 L-2674.2,5161.3 L-2674.2,5096.0 L-2675.6,5015.7 L-2670.4,4948.8 L-2652.8,4896.6 L-2358.1,4891.1 L-2351.3,4473.2 L-2351.3,3871.6 L-2354.4,3653.3 L13557.8,-2918.4 L13557.8,33299.8 L-6154.7,33299.8 L-6154.7,15314.3 Z" fill="#add7e1" stroke="none"><title>Biscayne Bay</title></path><path d="M-2995.8,2548.8 L-2772.1,-391.8 L-1821.4,-1634.4 L2783.1,-1634.4 L4535.3,-184.7 L3901.5,2051.8 L1534.1,2631.6 Z" fill="#add7e1" stroke="none"><title>Biscayne Bay</title></path><path d="M-1.0,-1.0 L257.0,-1.0 L257.0,257.0 L-1.0,257.0 L-1.0,-1.0 Z" fill="#add7e1" stroke="none" fill-rule="evenodd"><title>Biscayne Bay</title></path><path d="M86.8,-2672.7 L-480.8,720.1" fill="none" stroke="#6fb5c7" stroke-width="1.7" stroke-dasharray="5 7" opacity="0.34" stroke-linecap="round" stroke-linejoin="round"><title>Atlantic Intracoastal Waterway</title></path></svg>