<svg xmlns="http://www.w3.org/2000/svg" width="256" height="256" viewBox="0 0 256 256"><defs><pattern id="park-dots" width="22" height="22" patternUnits="userSpaceOnUse"><circle cx="5" cy="5" r="2.1" fill="#63a95d" fill-opacity="0.26"/><circle cx="16" cy="7" r="1.55" fill="#76b970" fill-opacity="0.23"/><circle cx="10" cy="17" r="1.9" fill="#61a65b" fill-opacity="0.24"/><circle cx="21" cy="17" r="1.25" fill="#80c174" fill-opacity="0.18"/><circle cx="1" cy="19" r="1.2" fill="#70b46a" fill-opacity="0.17"/></pattern><pattern id="park-canopy" width="54" height="48" patternUnits="userSpaceOnUse"><circle cx="12" cy="11" r="3.6" fill="#5ea75a" fill-opacity="0.22"/><circle cx="31" cy="15" r="2.9" fill="#75ba6d" fill-opacity="0.18"/><circle cx="45" cy="31" r="3.3" fill="#67ae62" fill-opacity="0.20"/><circle cx="19" cy="39" r="2.5" fill="#83c378" fill-opacity="0.16"/></pattern></defs><rect width="256" height="256" fill="#f1efe7"/><path d="M-6154.7,-7213.7 L-5939.9,-7303.0 L-5872.7,-7335.3 L-5572.2,-7479.6 L-5515.8,-7425.0 L-5510.9,-7420.3 L-5405.5,-7510.5 L-5380.4,-7529.6 L-5338.5,-7567.4 L-5102.4,-7784.2 L-4911.9,-8001.8 L-4904.6,-8015.7 L-4897.6,-8023.6 L-4886.5,-8036.3 L-4875.2,-8049.2 L-4870.6,-8054.5 L-4945.7,-8151.6 L-4846.3,-8211.2 L-4792.4,-8139.5 L-4716.2,-8226.7 L-4780.7,-8312.1 L-4700.8,-8395.4 L-4639.3,-8314.4 L-4568.7,-8394.8 L-4538.6,-8414.5 L-4391.4,-8510.0 L-4318.7,-8558.3 L-4231.1,-8615.9 L-4189.7,-8643.1 L-4084.8,-8710.8 L-4111.8,-8746.3 L-4160.1,-8811.0 L-4035.2,-8890.4 L-3989.7,-8913.9 L-3986.2,-8916.4 L-3962.2,-8934.9 L-3876.6,-8980.7 L-3870.7,-8989.9 L-3846.7,-9006.4 L-3833.7,-9025.4 L-3830.0,-9028.2 L-3809.1,-9036.3 L-3761.9,-9053.2 L-3729.6,-9067.4 L-3615.5,-9121.0 L-3614.1,-9117.3 L-3518.4,-9158.2 L-3479.3,-9108.1 L-3392.2,-9166.2 L-3379.8,-9174.7 L-3378.6,-9175.7 L-3377.4,-9177.3 L-3375.5,-9180.6 L-3374.5,-9183.7 L-3373.9,-9187.4 L-3374.0,-9190.4 L-3374.4,-9193.3 L-3374.8,-9196.6 L-3374.9,-9199.1 L-3374.7,-9201.2 L-3374.3,-9203.4 L-3372.7,-9207.4 L-3371.6,-9209.6 L-3369.1,-9213.4 L-3366.5,-9216.2 L-3353.8,-9221.3 L-3343.2,-9225.3 L-3329.7,-9229.7 L-3323.4,-9231.4 L-3312.2,-9235.1 L-3304.3,-9237.9 L-3293.4,-9242.4 L-3278.6,-9248.9 L-3262.6,-9256.4 L-3254.0,-9260.6 L-3243.2,-9266.1 L-3233.1,-9271.7 L-3223.0,-9277.7 L-3212.7,-9284.4 L-3209.5,-9286.6 L-3188.8,-9302.4 L-3171.4,-9315.8 L-3154.4,-9330.2 L-3138.5,-9345.2 L-3127.0,-9358.1 L-3115.6,-9372.0 L-3101.6,-9390.0 L-3088.8,-9408.0 L-3074.1,-9431.1 L-3064.5,-9449.0 L-3058.5,-9460.4 L-3049.6,-9479.7 L-3042.1,-9497.6 L-3035.4,-9516.9 L-3030.0,-9533.8 L-3024.1,-9561.2 L-3019.8,-9585.7 L-3017.5,-9606.7 L-3015.5,-9631.5 L-3015.3,-9658.0 L-3016.9,-9682.5 L-3021.1,-9714.5 L-3025.5,-9736.3 L-3030.5,-9756.9 L-3037.9,-9780.3 L-3044.2,-9798.2 L-3051.4,-9817.7 L-3058.2,-9833.9 L-3062.8,-9844.4 L-3064.7,-9852.1 L-3065.0,-9858.0 L-3064.4,-9863.3 L-3062.3,-9867.9 L-3059.1,-9871.8 L-3054.9,-9874.0 L-3050.4,-9874.6 L-3038.3,-9871.7 L-3004.6,-9863.6 L-2993.4,-10118.3 L-2949.7,-10572.9 L-2997.2,-10584.1 L-3002.4,-10598.4 L-3002.2,-10618.9 L-2995.6,-10665.4 L-2986.6,-10675.9 L-2978.6,-10706.1 L-2928.1,-10694.4 L-2900.3,-10984.9 L-2892.6,-11065.3 L-2908.3,-11069.2 L-2898.8,-11107.6 L-2931.1,-11115.3 L-2927.0,-11138.8 L-2921.3,-11154.3 L-2914.2,-11172.4 L-2902.2,-11197.7 L-2889.3,-11194.8 L-2871.9,-11377.5 L-2867.8,-11488.3 L-2867.0,-11508.7 L-2857.6,-11579.2 L-2838.9,-11754.9 L-2714.1,-12080.3 L-2685.6,-12169.0 L-2338.9,-12302.0 L-2305.0,-12315.6 L-2299.1,-12318.8 L-2294.5,-12323.0 L-2289.4,-12328.9 L-2285.5,-12335.8 L-2282.9,-12342.6 L-2282.3,-12352.5 L-2282.8,-12364.8 L-2287.4,-12520.3 L-2289.1,-12550.4 L-2289.6,-12571.1 L-2290.3,-12611.3 L-2291.1,-12623.9 L-2292.6,-12634.5 L-2294.7,-12643.9 L-2297.8,-12653.5 L-2302.7,-12664.8 L-2309.9,-12676.9 L-2316.9,-12686.5 L-2322.3,-12695.6 L-2327.8,-12707.7 L-2332.4,-12719.3 L-2334.2,-12728.8 L-2335.6,-12739.3 L-2336.3,-12749.8 L-2336.0,-12760.0 L-2334.8,-12771.9 L-2332.0,-12783.6 L-2328.3,-12794.0 L-2324.4,-12803.5 L-2319.4,-12812.7 L-2313.3,-12823.9 L-2309.3,-12834.0 L-2305.8,-12846.9 L-2299.4,-12856.7 L-2301.6,-12945.9 L-2304.9,-12951.1 L-2305.9,-13011.7 L-2307.6,-13083.2 L-2306.4,-13093.1 L-2303.2,-13103.2 L-2295.2,-13119.0 L-2241.7,-13234.1 L-2240.6,-13236.0 L-2231.2,-13256.5 L-2222.3,-13275.9 L-2212.3,-13295.9 L-2202.5,-13316.5 L-2197.7,-13326.5 L-2145.1,-13434.4 L-2088.9,-13553.6 L-1967.3,-13800.4 L-2040.4,-13882.3 L-2100.0,-13755.3 L-2151.5,-13645.4 L-2159.3,-13629.8 L-2175.2,-13597.3 L-2207.0,-13600.0 L-2215.7,-13600.5 L-2218.8,-13597.7 L-2214.6,-13593.9 L-2230.9,-13579.4 L-2243.8,-13567.5 L-2246.2,-13516.6 L-2251.0,-13506.4 L-2266.6,-13507.0 L-2269.2,-13507.9 L-2473.6,-13592.3 L-2478.0,-13594.6 L-2482.7,-13597.6 L-2490.1,-13603.2 L-2495.8,-13608.6 L-2500.6,-13613.8 L-2505.3,-13620.2 L-2508.9,-13625.8 L-2511.7,-13631.6 L-2513.9,-13637.7 L-2515.4,-13641.9 L-2516.5,-13647.0 L-2517.3,-13653.0 L-2518.1,-13661.2 L-2518.1,-13672.9 L-2519.5,-13712.6 L-2513.9,-13712.9 L-2514.7,-13733.9 L-2515.6,-13768.5 L-2510.4,-13768.6 L-2510.8,-13792.2 L-2516.7,-13792.1 L-2519.4,-13891.5 L-2513.8,-13891.8 L-2514.7,-13915.1 L-2520.1,-13914.9 L-2522.4,-13988.4 L-2495.4,-14017.5 L-2460.9,-14018.7 L-2435.2,-14019.6 L-2401.3,-14020.7 L-2368.7,-14021.7 L-2339.5,-14022.7 L-2326.8,-14023.3 L-2327.4,-14034.6 L-2327.6,-14046.4 L-2329.5,-14084.7 L-2330.2,-14157.8 L-2331.2,-14159.1 L-2331.4,-14166.3 L-2329.3,-14166.4 L-2334.4,-14342.5 L-2338.8,-14508.2 L-2339.5,-14513.4 L-2339.9,-14523.0 L-2412.1,-14520.4 L-2460.1,-14524.5 L-2819.4,-14512.0 L-2819.5,-14515.2 L-2820.2,-14530.5 L-2990.6,-14524.5 L-2990.9,-14552.8 L-3013.4,-14557.9 L-3017.4,-14679.0 L-2354.6,-14702.0 L-2343.6,-14717.1 L-2344.0,-14760.1 L-2344.8,-14797.3 L-2345.4,-14820.6 L-2346.3,-14843.3 L-2399.0,-14868.1 L-2401.1,-14923.2 L-2347.1,-14950.0 L-2352.0,-15077.5 L-2353.4,-15083.8 L-2407.1,-15108.9 L-2408.8,-15177.1 L-2357.8,-15203.4 L-2380.5,-15480.3 L-2374.5,-15603.5 L-2371.5,-15804.4 L-2371.7,-16022.9 L-2366.9,-16053.5 L-2366.6,-16068.3 L-2371.4,-16086.1 L-2366.4,-16086.1 L-2366.4,-16102.2 L-2363.4,-16513.2 L-2363.9,-16531.5 L-2369.6,-16531.5 L-2369.4,-16607.1 L-2372.7,-16611.8 L-2377.9,-16689.8 L-2367.6,-16761.1 L-2368.9,-16847.4 L-2372.4,-16868.1 L-2367.1,-16932.0 L-2370.7,-17009.3 L-2379.7,-17092.0 L-2396.8,-17226.0 L-2388.7,-17262.9 L-2392.3,-17298.8 L-2422.9,-17324.9 L-2467.8,-17324.5 L-2536.2,-17315.5 L-2580.7,-17315.5 L-2621.1,-17330.3 L-2674.2,-17366.7 L-2674.2,-17432.0 L-2675.6,-17512.3 L-2670.4,-17579.2 L-2652.8,-17631.4 L-2358.1,-17636.9 L-2351.3,-18054.8 L-2351.3,-18656.4 L-2354.4,-18874.7 L13557.8,-25446.4 L13557.8,10771.8 L-6154.7,10771.8 L-6154.7,-7213.7 Z" fill="#add7e1" stroke="none"><title>Biscayne Bay</title></path><path d="M-13546.8,2071.5 L-14091.0,1669.8 L-14134.5,1637.8 L-14181.7,1627.5 L-14215.0,1599.5 L-14241.6,1596.4 L-14327.6,1602.1 L-14327.5,1594.0 L-14332.3,1586.4 L-14341.9,1580.5 L-14528.7,1499.6 L-14541.4,1493.8 L-14552.5,1490.6 L-14566.3,1489.5 L-14580.2,1489.2 L-14626.6,1489.2 L-14638.9,1488.5 L-14651.0,1486.1 L-14663.8,1481.1 L-14679.2,1477.0 L-14690.4,1476.0 L-14723.3,1474.6 L-14734.3,1472.6 L-14748.3,1468.1 L-14762.0,1464.6 L-14775.3,1461.5 L-14785.7,1457.3 L-14798.3,1449.5 L-14809.5,1441.1 L-14820.4,1432.9 L-14829.3,1428.7 L-14836.1,1427.3 L-14842.2,1427.7 L-14848.7,1429.5 L-14856.3,1433.4 L-14862.3,1440.0 L-14870.4,1447.9 L-14879.4,1456.2 L-14889.6,1461.8 L-14902.5,1466.0 L-14913.2,1468.6 L-14926.1,1470.6 L-14947.7,1473.1 L-15001.9,1475.7 L-15047.9,1478.0 L-15067.7,1485.1 L-15108.3,1486.5 L-15113.8,1478.0 L-15119.9,1474.1 L-15126.2,1472.9 L-15170.0,1475.4 L-15189.0,1482.2 L-15212.3,1482.4 L-15228.0,1480.1 L-15240.9,1476.2 L-15288.0,1479.0 L-15412.6,1488.7 L-15441.3,1489.5 L-15451.1,1489.3 L-15459.9,1487.1 L-15470.1,1482.0 L-15477.6,1476.0 L-15510.0,1476.1 L-15537.1,1475.7 L-15544.4,1480.2 L-15581.7,1481.1 L-15586.5,1489.0 L-15591.8,1489.2 L-15601.0,1487.0 L-15617.5,1485.0 L-15634.5,1485.9 L-15639.7,1487.5 L-15645.0,1486.6 L-15648.6,1483.1 L-15654.7,1479.6 L-15677.4,1479.7 L-15700.3,1480.9 L-15722.0,1493.7 L-15732.7,1498.8 L-15744.9,1501.5 L-15755.0,1502.2 L-15764.1,1500.8 L-15785.1,1491.8 L-15797.1,1488.0 L-15807.3,1486.5 L-15852.0,1487.1 L-15854.8,1481.7 L-15894.3,1482.6 L-15921.5,1487.6 L-15939.4,1489.7 L-15949.0,1491.8 L-15952.7,1489.3 L-15959.5,1488.4 L-16023.2,1482.6 L-16028.7,1485.6 L-16035.4,1487.0 L-16044.2,1487.1 L-16044.2,1483.9 L-16083.7,1476.5 L-16108.6,1471.7 L-16168.8,1451.5 L-16172.1,1456.0 L-16212.3,1443.6 L-16220.7,1440.8 L-16216.6,1426.8 L-16221.4,1425.3 L-16222.4,1423.8 L-16225.0,1423.0 L-16228.6,1422.5 L-16233.0,1420.3 L-16231.5,1419.0 L-16249.3,1404.5 L-16278.9,1377.7 L-16294.8,1363.7 L-16306.1,1351.4 L-16312.4,1343.1 L-16321.8,1330.3 L-16327.2,1320.4 L-16344.0,1299.3 L-16345.6,1298.1 L-16346.7,1298.0 L-16347.9,1298.2 L-16350.1,1298.3 L-16352.1,1297.3 L-16356.3,1294.6 L-16364.9,1290.1 L-16369.1,1286.5 L-16374.0,1282.2 L-16380.7,1278.6 L-16391.2,1275.3 L-16402.3,1273.3 L-16411.8,1273.1 L-16409.1,1247.9 L-16406.9,1215.0 L-16396.6,1216.0 L-16386.3,1217.8 L-16372.8,1221.8 L-16362.9,1225.5 L-16354.0,1229.6 L-16345.4,1233.6 L-16337.3,1238.2 L-16330.7,1243.3 L-16321.9,1250.1 L-16312.7,1257.0 L-16310.6,1258.3 L-16308.7,1258.7 L-16283.5,1257.6 L-16283.2,1263.3 L-16284.7,1265.8 L-16303.6,1267.6 L-16298.8,1277.4 L-16295.5,1276.2 L-16292.5,1279.2 L-16290.6,1282.1 L-16289.0,1284.3 L-16285.1,1289.5 L-16283.6,1295.2 L-16277.5,1303.6 L-16263.1,1312.7 L-16245.2,1321.8 L-16223.8,1335.3 L-16214.0,1339.9 L-16193.4,1351.6 L-16183.7,1356.7 L-16166.0,1363.2 L-16131.2,1372.5 L-16110.8,1377.4 L-16092.2,1379.3 L-16082.3,1380.6 L-16080.1,1380.4 L-16079.2,1379.1 L-16078.9,1372.5 L-16055.8,1372.5 L-16055.3,1379.9 L-16006.9,1382.4 L-15959.7,1383.8 L-15927.6,1382.6 L-15917.0,1381.8 L-15909.3,1380.8 L-15903.0,1379.0 L-15897.2,1375.5 L-15894.3,1370.8 L-15895.4,1293.3 L-15875.9,1292.2 L-15874.2,1367.8 L-15873.1,1369.7 L-15869.2,1372.4 L-15864.7,1373.7 L-15761.3,1373.9 L-15761.8,1340.6 L-15753.7,1340.4 L-15750.3,1373.9 L-15686.5,1373.3 L-15686.5,1369.7 L-15680.2,1369.6 L-15680.0,1372.2 L-15254.5,1364.1 L-15223.7,1360.5 L-15186.1,1359.4 L-15150.5,1364.1 L-15138.6,1363.1 L-15129.9,1361.4 L-15121.8,1358.5 L-15111.3,1354.5 L-14897.4,1350.7 L-14897.5,1335.9 L-14777.8,1333.8 L-14777.7,1350.1 L-14726.9,1351.9 L-14723.0,1351.8 L-14719.4,1351.5 L-14714.7,1350.9 L-14710.9,1349.9 L-14707.2,1348.7 L-14700.9,1345.7 L-14698.0,1350.7 L-14691.8,1346.8 L-14686.1,1342.2 L-14681.3,1337.2 L-14677.1,1331.3 L-14673.2,1324.0 L-14680.5,1319.9 L-14678.5,1313.8 L-14677.2,1307.5 L-14676.5,1301.5 L-14676.4,1296.8 L-14676.6,1292.4 L-14677.3,1254.5 L-14683.4,1248.9 L-14678.2,1243.4 L-14683.5,1238.8 L-14677.5,1231.7 L-14684.0,1226.0 L-14678.8,1220.5 L-14684.0,1215.5 L-14677.9,1209.0 L-14684.2,1202.6 L-14671.1,1188.2 L-14668.8,1188.1 L-14674.5,973.6 L-14626.4,972.5 L-14624.1,973.7 L-14621.5,975.7 L-14619.6,977.4 L-14618.8,979.4 L-14618.1,981.8 L-14617.9,984.2 L-14613.8,1317.5 L-14611.9,1328.3 L-14609.2,1335.6 L-14605.0,1344.6 L-14600.1,1353.4 L-14595.0,1360.4 L-14590.9,1364.7 L-14586.5,1368.1 L-14581.4,1371.1 L-14576.1,1373.1 L-14568.9,1375.2 L-14560.0,1376.9 L-14549.2,1378.9 L-14536.6,1381.2 L-14524.6,1383.8 L-14511.3,1386.2 L-14498.7,1388.9 L-14494.7,1389.7 L-14489.8,1390.7 L-14485.0,1391.3 L-14480.8,1391.4 L-14476.0,1391.4 L-14472.3,1391.2 L-14468.6,1390.5 L-14465.4,1389.7 L-14462.0,1388.7 L-14459.1,1387.4 L-14453.3,1384.6 L-14448.2,1381.6 L-14443.1,1377.9 L-14437.2,1372.2 L-14431.7,1366.0 L-14428.7,1360.7 L-14426.0,1354.2 L-14424.6,1348.9 L-14423.8,1343.2 L-14423.3,1337.8 L-14423.3,1332.8 L-14430.6,975.6 L-14420.2,964.9 L-14416.4,964.5 L-14414.9,963.1 L-14393.2,962.5 L-14391.3,959.3 L-14388.0,960.2 L-14382.5,965.3 L-14378.7,970.6 L-14374.9,977.2 L-14367.7,1376.4 L-14367.0,1383.4 L-14365.7,1397.3 L-14364.4,1400.1 L-14365.4,1400.8 L-14363.6,1404.7 L-14361.3,1409.3 L-14359.3,1412.2 L-14356.9,1415.7 L-14353.6,1419.5 L-14349.7,1423.5 L-14345.0,1427.5 L-14340.8,1430.6 L-14336.2,1433.1 L-14331.8,1435.3 L-14327.1,1436.8 L-14326.5,1435.4 L-14260.3,1459.4 L-14252.0,1462.5 L-14248.2,1463.9 L-14242.3,1466.0 L-14238.0,1467.0 L-14234.3,1467.5 L-14230.9,1467.5 L-14226.1,1467.1 L-14220.9,1466.6 L-14216.3,1465.6 L-14211.6,1464.3 L-14208.1,1462.9 L-14204.4,1461.2 L-14201.4,1459.3 L-14197.6,1456.5 L-14192.8,1452.3 L-14188.4,1448.0 L-14183.6,1442.0 L-14180.2,1436.4 L-14177.4,1430.2 L-14175.4,1423.3 L-14174.2,1416.3 L-14173.5,1403.8 L-14173.8,1378.3 L-14181.1,972.2 L-14181.1,967.7 L-14180.3,964.5 L-14178.9,961.9 L-14176.0,959.5 L-14172.7,957.8 L-14169.0,957.2 L-14138.9,956.2 L-14135.3,956.8 L-14132.1,958.2 L-14129.8,960.4 L-14127.2,964.2 L-14125.7,969.6 L-14124.8,976.9 L-14117.3,1497.8 L-14116.9,1500.9 L-14116.3,1504.0 L-14115.4,1507.2 L-14114.3,1510.7 L-14113.1,1514.2 L-14111.7,1517.4 L-14110.5,1520.1 L-14109.2,1522.5 L-14107.3,1525.5 L-14105.2,1528.1 L-14103.3,1530.5 L-14100.4,1533.6 L-14097.6,1536.3 L-14094.5,1538.8 L-14091.2,1541.3 L-14082.0,1547.1 L-14081.1,1546.0 L-14073.0,1550.5 L-14063.4,1555.7 L-14057.9,1558.7 L-14051.8,1562.3 L-14045.5,1566.0 L-14039.0,1570.0 L-14031.7,1574.5 L-14024.5,1579.0 L-14017.3,1583.3 L-14011.3,1587.0 L-14004.6,1591.3 L-13997.5,1595.9 L-13990.7,1600.4 L-13984.4,1604.7 L-13985.1,1605.6 L-13976.3,1611.7 L-13967.2,1617.8 L-13964.4,1619.5 L-13961.3,1621.2 L-13956.9,1623.3 L-13952.8,1624.8 L-13948.4,1626.0 L-13944.5,1627.0 L-13939.9,1627.7 L-13934.8,1628.3 L-13930.4,1628.3 L-13926.7,1628.0 L-13923.5,1627.3 L-13919.4,1626.2 L-13915.3,1624.9 L-13911.5,1623.6 L-13908.0,1621.9 L-13904.4,1620.0 L-13900.9,1617.8 L-13897.3,1615.0 L-13894.1,1612.1 L-13891.0,1609.0 L-13888.1,1605.8 L-13885.1,1601.4 L-13882.6,1597.0 L-13880.2,1592.1 L-13878.8,1588.3 L-13877.7,1584.3 L-13876.9,1580.0 L-13876.5,1575.7 L-13876.8,1570.8 L-13936.1,1003.1 L-13932.0,1002.7 L-13935.3,974.3 L-13938.3,974.5 L-13940.7,961.4 L-13939.9,958.7 L-13937.4,954.7 L-13932.3,950.8 L-13925.6,950.0 L-13898.7,949.1 L-13894.2,950.0 L-13891.1,951.5 L-13887.8,954.1 L-13885.5,956.5 L-13883.9,959.0 L-13818.9,1595.9 L-13817.4,1601.4 L-13814.6,1608.2 L-13812.2,1612.6 L-13809.6,1617.3 L-13806.2,1621.9 L-13803.4,1625.1 L-13800.3,1628.3 L-13796.9,1631.0 L-13793.9,1633.1 L-13789.7,1635.8 L-13786.0,1637.7 L-13781.1,1639.8 L-13776.5,1641.2 L-13771.3,1642.3 L-13767.3,1642.9 L-13763.8,1643.0 L-13759.7,1643.1 L-13618.5,1640.2 L-13613.9,1639.6 L-13609.5,1637.5 L-13606.3,1634.6 L-13604.1,1630.2 L-13603.3,1626.2 L-13603.5,1622.2 L-13675.0,940.1 L-13738.0,857.9 L-13740.8,860.2 L-13795.6,783.7 L-13796.6,767.5 L-13798.3,764.1 L-13801.2,761.0 L-13804.9,755.8 L-13805.2,748.2 L-13811.7,745.7 L-13818.0,745.6 L-13826.5,749.8 L-13816.9,767.8 L-13829.0,773.6 L-13838.1,765.2 L-13845.9,760.4 L-13851.2,758.6 L-13864.2,758.1 L-13870.8,744.7 L-13829.3,727.7 L-13831.3,724.3 L-13840.1,712.5 L-13841.5,713.2 L-14150.4,308.7 L-14155.1,242.0 L-14152.6,241.4 L-14164.5,119.1 L-14169.1,107.8 L-14174.1,95.1 L-14177.9,85.3 L-14182.5,72.8 L-14197.5,30.7 L-14203.6,33.4 L-14212.5,-0.7 L-14211.0,-1.0 L-14242.1,-85.3 L-14245.5,-232.7 L-14241.9,-232.7 L-14241.4,-245.6 L-14239.6,-258.3 L-14238.9,-263.0 L-14240.2,-266.8 L-14236.0,-286.9 L-14197.7,-354.7 L-14217.8,-366.9 L-14202.9,-391.6 L-14183.5,-380.2 L-14181.8,-382.8 L-14175.7,-379.7 L-14169.1,-377.1 L-14161.5,-374.7 L-14155.8,-373.5 L-14150.4,-373.3 L-14144.0,-374.4 L-14137.7,-376.5 L-14131.5,-378.9 L-14128.6,-382.0 L-14127.5,-386.1 L-14126.0,-391.0 L-14125.7,-393.0 L-14125.8,-395.5 L-14127.2,-399.4 L-14129.8,-403.1 L-14132.8,-405.2 L-14137.2,-409.4 L-14141.0,-413.4 L-14146.6,-417.0 L-14148.9,-422.7 L-14151.6,-428.4 L-14155.9,-435.1 L-14160.8,-440.9 L-14169.8,-447.3 L-14213.4,-469.9 L-14239.2,-482.7 L-14263.3,-495.7 L-14286.2,-508.4 L-14301.0,-518.0 L-14306.7,-519.5 L-14313.0,-517.6 L-14316.5,-513.3 L-14323.6,-495.6 L-14367.7,-515.4 L-14341.3,-557.1 L-14335.5,-559.8 L-14328.4,-561.2 L-14320.1,-559.4 L-14154.4,-462.5 L-14145.4,-459.8 L-14136.0,-457.5 L-14122.7,-457.2 L-14109.2,-459.6 L-14100.6,-463.1 L-14091.2,-470.7 L-14085.7,-476.0 L-14079.8,-484.3 L-14079.9,-485.4 L-14080.3,-486.4 L-14081.2,-487.2 L-14134.8,-520.3 L-14136.1,-520.7 L-14137.5,-520.8 L-14138.9,-520.7 L-14144.0,-518.5 L-14145.9,-518.3 L-14148.0,-518.5 L-14151.1,-519.0 L-14153.5,-519.7 L-14156.9,-521.4 L-14160.2,-523.3 L-14233.9,-568.3 L-14268.6,-592.7 L-14271.9,-593.2 L-14275.2,-593.1 L-14279.1,-593.0 L-14281.7,-593.4 L-14283.9,-594.4 L-14286.5,-596.4 L-14289.4,-598.7 L-14291.4,-601.5 L-14292.6,-604.3 L-14292.8,-606.4 L-14292.5,-609.1 L-14292.0,-611.4 L-14280.2,-631.2 L-14280.2,-632.1 L-14281.1,-632.8 L-14291.9,-640.4 L-14294.0,-643.5 L-14292.8,-645.4 L-14289.3,-644.9 L-14285.5,-643.8 L-14263.3,-630.1 L-14137.5,-549.8 L-14134.9,-548.3 L-14133.1,-546.4 L-14131.9,-544.2 L-14130.6,-539.6 L-14129.7,-536.0 L-14129.2,-532.9 L-14072.4,-498.8 L-14070.4,-497.9 L-14068.0,-497.7 L-14065.2,-498.1 L-14063.2,-498.8 L-14061.5,-499.6 L-14000.4,-598.5 L-13974.8,-636.1 L-13950.9,-663.0 L-13938.8,-656.3 L-13931.0,-668.9 L-13972.5,-693.7 L-13963.7,-708.1 L-13922.2,-683.1 L-13912.9,-698.3 L-13920.4,-706.7 L-13912.8,-715.4 L-13904.6,-706.0 L-13902.6,-707.5 L-13900.3,-709.1 L-13897.1,-710.9 L-13893.8,-712.5 L-13889.7,-714.0 L-13885.8,-715.1 L-13881.6,-715.8 L-13877.4,-716.1 L-13873.4,-716.0 L-13869.5,-715.4 L-13865.8,-714.5 L-13862.7,-713.6 L-13860.0,-712.4 L-13856.2,-710.6 L-13852.7,-708.4 L-13849.7,-706.3 L-13846.7,-703.6 L-13844.0,-701.0 L-13841.0,-697.1 L-13838.9,-693.6 L-13836.8,-689.1 L-13835.4,-684.6 L-13834.2,-678.4 L-13833.8,-673.0 L-13833.9,-669.9 L-13834.3,-666.7 L-13835.4,-661.9 L-13838.2,-655.3 L-13840.0,-651.0 L-13842.5,-645.9 L-13832.1,-640.7 L-13783.5,-698.7 L-13872.0,-752.5 L-13867.5,-762.1 L-13864.3,-771.0 L-13864.1,-774.8 L-13859.0,-785.7 L-13848.5,-795.4 L-13835.5,-806.0 L-13820.0,-815.9 L-13790.9,-824.4 L-13740.7,-829.4 L-13720.9,-845.4 L-13716.8,-846.1 L-13713.5,-846.3 L-13708.8,-844.5 L-13704.5,-844.0 L-13676.6,-827.1 L-13603.2,-914.2 L-13872.2,-1085.2 L-13888.9,-1058.9 L-13925.2,-1081.9 L-13873.7,-1162.9 L-13837.5,-1140.5 L-13853.6,-1112.9 L-13579.9,-940.4 L-13545.4,-984.7 L-13521.0,-1013.7 L-13488.8,-1062.1 L-13471.0,-1086.5 L-13472.8,-1100.4 L-13472.3,-1100.8 L-13475.5,-1111.1 L-13477.6,-1117.5 L-13479.6,-1124.1 L-13482.0,-1129.8 L-13486.6,-1137.3 L-13491.2,-1144.6 L-13493.2,-1148.4 L-13494.7,-1152.2 L-13495.8,-1155.7 L-13496.2,-1158.8 L-13496.7,-1169.0 L-13614.9,-1277.5 L-13618.8,-1273.3 L-13622.1,-1276.1 L-13631.7,-1266.6 L-13638.0,-1275.0 L-13630.4,-1283.8 L-13638.0,-1293.5 L-13643.2,-1292.1 L-13648.6,-1291.9 L-13653.5,-1292.8 L-13657.8,-1294.6 L-13662.8,-1298.3 L-13669.0,-1304.4 L-13679.9,-1316.4 L-13683.2,-1321.5 L-13684.4,-1327.9 L-13683.6,-1335.5 L-13680.7,-1342.5 L-13678.2,-1347.3 L-13673.4,-1352.1 L-13668.1,-1355.7 L-13663.0,-1357.6 L-13659.2,-1358.2 L-13654.2,-1357.3 L-13649.1,-1355.5 L-13644.3,-1351.7 L-13633.2,-1341.7 L-13627.5,-1336.3 L-13622.3,-1330.6 L-13620.6,-1327.9 L-13619.4,-1325.0 L-13618.7,-1322.4 L-13618.2,-1318.8 L-13618.8,-1315.4 L-13619.8,-1312.2 L-13621.2,-1309.8 L-13621.6,-1308.7 L-13621.3,-1307.3 L-13620.5,-1305.9 L-13493.6,-1187.0 L-13489.2,-1184.0 L-13486.1,-1182.7 L-13481.7,-1183.7 L-13476.5,-1184.1 L-13469.9,-1181.3 L-13463.3,-1177.2 L-13450.4,-1169.9 L-13445.0,-1167.3 L-13440.1,-1172.1 L-13434.7,-1177.3 L-13431.1,-1181.4 L-13425.1,-1189.2 L-13421.7,-1193.9 L-13418.1,-1199.7 L-13415.8,-1204.8 L-13413.3,-1210.2 L-13411.0,-1215.9 L-13408.9,-1221.7 L-13407.7,-1226.6 L-13406.3,-1232.8 L-13405.7,-1236.5 L-13405.3,-1239.5 L-13404.6,-1244.8 L-13403.9,-1250.0 L-13403.6,-1253.4 L-13403.4,-1257.1 L-13403.4,-1261.4 L-13403.6,-1265.0 L-13404.3,-1270.0 L-13405.1,-1275.7 L-13405.9,-1281.0 L-13406.4,-1285.3 L-13407.0,-1288.5 L-13407.7,-1291.9 L-13408.5,-1295.3 L-13409.7,-1299.3 L-13411.1,-1303.3 L-13412.2,-1305.7 L-13413.4,-1308.1 L-13415.1,-1310.4 L-13417.4,-1313.7 L-13419.9,-1316.8 L-13422.6,-1319.4 L-13426.0,-1322.2 L-13429.5,-1324.4 L-13433.0,-1326.3 L-13436.2,-1327.5 L-13438.4,-1328.2 L-13440.9,-1328.5 L-13443.9,-1328.4 L-13446.7,-1327.8 L-13448.9,-1326.9 L-13451.0,-1325.4 L-13452.5,-1323.8 L-13453.7,-1322.3 L-13454.6,-1320.0 L-13455.1,-1317.5 L-13455.0,-1314.5 L-13454.8,-1311.0 L-13454.8,-1308.4 L-13455.0,-1305.8 L-13455.4,-1303.2 L-13455.9,-1300.9 L-13456.8,-1298.5 L-13458.2,-1295.9 L-13459.9,-1293.4 L-13461.6,-1291.1 L-13463.3,-1289.5 L-13466.7,-1286.8 L-13469.5,-1284.9 L-13473.9,-1283.6 L-13476.5,-1283.0 L-13479.5,-1282.6 L-13482.2,-1282.5 L-13485.8,-1282.7 L-13488.4,-1283.2 L-13492.0,-1284.0 L-13497.0,-1285.5 L-13501.2,-1287.1 L-13504.3,-1288.3 L-13507.6,-1290.1 L-13510.5,-1292.1 L-13513.7,-1294.6 L-13516.2,-1296.9 L-13518.3,-1299.0 L-13520.5,-1301.6 L-13522.3,-1304.0 L-13524.0,-1306.4 L-13525.5,-1309.1 L-13527.1,-1312.7 L-13528.5,-1316.0 L-13529.9,-1319.6 L-13530.8,-1322.4 L-13531.5,-1325.0 L-13532.0,-1327.7 L-13532.4,-1331.9 L-13532.7,-1335.6 L-13532.5,-1339.6 L-13531.6,-1344.9 L-13530.1,-1350.1 L-13528.2,-1355.5 L-13526.9,-1358.0 L-13525.6,-1359.5 L-13515.3,-1372.6 L-13512.9,-1375.3 L-13509.8,-1376.8 L-13506.5,-1378.0 L-13502.8,-1378.8 L-13498.7,-1379.3 L-13495.1,-1379.5 L-13491.5,-1379.4 L-13487.9,-1379.0 L-13483.8,-1377.8 L-13479.5,-1375.7 L-13475.8,-1373.4 L-13472.5,-1370.8 L-13462.1,-1361.2 L-13459.6,-1360.4 L-13458.2,-1360.1 L-13456.5,-1360.5 L-13455.4,-1360.9 L-13454.0,-1362.5 L-13453.4,-1364.1 L-13453.3,-1366.3 L-13453.2,-1368.3 L-13453.6,-1369.2 L-13474.6,-1390.0 L-13446.0,-1420.5 L-13447.6,-1424.1 L-13431.1,-1440.4 L-13399.3,-1408.6 L-13424.9,-1376.0 L-13425.1,-1374.1 L-13423.8,-1373.3 L-13422.2,-1373.7 L-13394.1,-1408.9 L-13385.9,-1418.8 L-13385.6,-1421.1 L-13386.3,-1423.1 L-13387.8,-1424.9 L-13409.8,-1445.7 L-13404.3,-1452.1 L-13409.9,-1456.8 L-13406.7,-1464.2 L-13349.7,-1521.5 L-13330.1,-1524.8 L-13324.0,-1525.7 L-13318.2,-1526.5 L-13315.5,-1527.2 L-13312.3,-1528.9 L-13308.5,-1531.0 L-13305.6,-1533.9 L-13302.8,-1537.4 L-13273.7,-1579.7 L-13273.1,-1580.8 L-13273.4,-1582.2 L-13273.8,-1583.2 L-13274.5,-1584.1 L-13278.0,-1586.3 L-13278.9,-1586.8 L-13279.7,-1586.7 L-13280.6,-1586.2 L-13282.5,-1584.8 L-13306.9,-1562.0 L-13316.4,-1555.2 L-13355.4,-1595.2 L-13350.9,-1609.4 L-13349.0,-1613.6 L-13342.9,-1624.8 L-13335.8,-1637.3 L-13331.5,-1642.1 L-13323.8,-1650.3 L-13315.6,-1659.3 L-13306.6,-1668.8 L-13298.9,-1675.4 L-13295.2,-1678.7 L-13290.3,-1682.3 L-13285.8,-1684.7 L-13279.4,-1687.6 L-13275.4,-1689.0 L-13271.4,-1690.2 L-13268.3,-1690.5 L-13263.9,-1690.2 L-13260.2,-1689.7 L-13256.0,-1688.5 L-13251.9,-1685.1 L-13249.4,-1681.6 L-13247.9,-1678.0 L-13247.3,-1672.6 L-13247.5,-1665.5 L-13248.4,-1657.5 L-13250.1,-1649.8 L-13260.4,-1626.8 L-13270.2,-1606.1 L-13266.8,-1600.6 L-13265.0,-1599.5 L-13263.1,-1599.5 L-13261.4,-1599.9 L-13260.1,-1600.7 L-13253.4,-1610.2 L-13244.8,-1614.5 L-13227.7,-1660.2 L-13226.5,-1662.5 L-13224.8,-1664.5 L-13223.1,-1665.4 L-13221.5,-1665.8 L-13219.2,-1665.8 L-13216.8,-1665.2 L-13204.3,-1661.7 L-13201.9,-1661.2 L-13199.1,-1661.1 L-13196.5,-1661.5 L-13194.4,-1662.4 L-13192.6,-1663.8 L-13190.8,-1666.1 L-13169.8,-1694.2 L-13168.8,-1696.3 L-13168.3,-1698.5 L-13168.3,-1700.6 L-13168.7,-1702.8 L-13169.5,-1704.4 L-13170.7,-1706.0 L-13172.1,-1707.3 L-13174.1,-1708.3 L-13176.0,-1708.8 L-13177.9,-1708.9 L-13179.5,-1708.6 L-13181.4,-1707.7 L-13182.8,-1706.7 L-13183.9,-1705.3 L-13189.4,-1696.4 L-13190.6,-1694.7 L-13192.0,-1693.1 L-13194.1,-1691.3 L-13196.0,-1690.2 L-13198.3,-1689.5 L-13201.1,-1688.9 L-13202.7,-1688.9 L-13204.9,-1689.2 L-13206.8,-1689.7 L-13208.4,-1690.4 L-13225.6,-1706.0 L-13227.6,-1708.4 L-13229.1,-1710.6 L-13230.5,-1713.3 L-13231.4,-1715.6 L-13232.0,-1718.0 L-13232.5,-1720.6 L-13232.8,-1723.8 L-13232.9,-1727.0 L-13232.6,-1729.7 L-13232.2,-1732.0 L-13231.7,-1734.0 L-13230.9,-1735.7 L-13199.6,-1785.4 L-13197.6,-1788.7 L-13196.4,-1790.4 L-13195.0,-1791.2 L-13192.7,-1792.2 L-13190.3,-1792.9 L-13188.0,-1793.3 L-13186.7,-1793.3 L-13185.4,-1793.1 L-13184.3,-1792.7 L-13182.7,-1791.9 L-13180.8,-1790.7 L-13177.6,-1788.1 L-13163.3,-1774.7 L-13160.9,-1771.3 L-13159.5,-1768.0 L-13158.2,-1764.1 L-13157.8,-1761.1 L-13157.6,-1757.9 L-13157.6,-1755.2 L-13157.9,-1752.5 L-13158.4,-1749.8 L-13159.0,-1748.0 L-13160.6,-1744.3 L-13166.3,-1733.7 L-13166.9,-1731.3 L-13166.9,-1728.4 L-13166.7,-1726.2 L-13165.9,-1724.5 L-13164.4,-1722.9 L-13162.0,-1721.2 L-13160.0,-1720.1 L-13157.7,-1719.6 L-13155.0,-1719.7 L-13152.8,-1720.2 L-13150.3,-1721.5 L-13148.1,-1723.5 L-13111.1,-1774.3 L-13122.4,-1784.5 L-13115.6,-1791.8 L-13105.5,-1782.1 L-13084.7,-1809.4 L-13053.2,-1851.5 L-13180.0,-1973.0 L-13207.5,-1944.1 L-13239.8,-1974.6 L-13208.6,-2008.2 L-13212.7,-2012.7 L-13206.2,-2018.7 L-13202.2,-2014.6 L-13180.5,-2038.2 L-13161.0,-2020.1 L-13158.7,-2005.1 L-13076.7,-1928.6 L-13060.7,-1922.4 L-13047.9,-1926.9 L-13023.6,-1917.2 L-13007.5,-1923.1 L-12959.6,-1981.6 L-12956.9,-1987.1 L-12956.1,-1994.5 L-12958.5,-2001.8 L-12961.7,-2007.0 L-12990.1,-2033.2 L-12989.7,-2040.4 L-12984.1,-2054.5 L-12972.9,-2075.4 L-12995.0,-2089.7 L-12986.6,-2092.9 L-12981.3,-2096.3 L-12976.0,-2102.3 L-12969.8,-2118.2 L-12958.4,-2147.2 L-12951.0,-2154.0 L-13021.2,-2222.0 L-13036.6,-2212.4 L-13040.2,-2211.5 L-13043.6,-2211.4 L-13048.0,-2211.9 L-13051.6,-2212.9 L-13055.1,-2215.0 L-13058.0,-2217.5 L-13094.3,-2252.5 L-13101.1,-2259.3 L-13104.1,-2262.9 L-13106.6,-2267.4 L-13107.8,-2271.5 L-13108.3,-2275.5 L-13108.2,-2279.3 L-13107.5,-2282.9 L-13106.6,-2285.8 L-13105.4,-2287.9 L-13102.8,-2291.6 L-13099.7,-2295.3 L-13083.4,-2312.2 L-12959.4,-2197.3 L-12967.9,-2187.7 L-12876.0,-2100.8 L-12770.1,-2255.9 L-12837.3,-2318.7 L-12845.9,-2311.0 L-12971.4,-2429.5 L-12955.0,-2444.8 L-12882.9,-2377.2 L-12875.7,-2387.8 L-12871.7,-2393.1 L-12866.6,-2398.3 L-12860.7,-2404.8 L-12854.7,-2408.7 L-12845.2,-2416.7 L-12835.7,-2425.5 L-12817.5,-2442.7 L-12774.0,-2491.6 L-12766.2,-2499.7 L-12737.5,-2514.4 L-12710.3,-2535.7 L-12707.7,-2537.7 L-12700.6,-2543.2 L-12697.5,-2546.0 L-12695.0,-2549.2 L-12693.3,-2552.5 L-12692.2,-2555.8 L-12690.9,-2558.3 L-12689.4,-2561.0 L-12686.8,-2565.3 L-12685.0,-2568.0 L-12683.2,-2570.5 L-12679.9,-2573.1 L-12676.7,-2575.3 L-12673.2,-2577.4 L-12664.9,-2581.4 L-12656.9,-2585.4 L-12655.7,-2585.6 L-12654.5,-2585.4 L-12652.1,-2584.7 L-12645.6,-2581.4 L-12640.7,-2579.0 L-12638.4,-2577.6 L-12636.3,-2575.9 L-12602.9,-2544.2 L-12600.6,-2542.9 L-12589.7,-2540.0 L-12586.2,-2539.0 L-12582.3,-2538.6 L-12579.3,-2538.7 L-12577.0,-2539.5 L-12574.7,-2541.1 L-12562.8,-2557.9 L-12562.8,-2560.2 L-12563.2,-2562.3 L-12564.5,-2564.6 L-12566.5,-2566.8 L-12575.6,-2575.3 L-12574.9,-2576.7 L-12563.2,-2601.5 L-12543.2,-2641.8 L-12525.0,-2655.2 L-12514.5,-2665.7 L-12507.3,-2674.0 L-12499.7,-2681.7 L-12491.3,-2688.6 L-12486.2,-2693.3 L-12480.8,-2698.2 L-12476.8,-2702.2 L-12474.8,-2705.8 L-12473.2,-2708.6 L-12472.2,-2711.3 L-12471.8,-2714.5 L-12471.6,-2717.7 L-12465.5,-2723.9 L-12456.5,-2732.4 L-12441.5,-2744.7 L-12425.8,-2756.6 L-12418.8,-2766.4 L-12416.2,-2776.5 L-12408.4,-2781.3 L-12398.6,-2781.5 L-12388.7,-2787.4 L-12380.0,-2803.1 L-12380.2,-2819.4 L-12378.6,-2844.6 L-12376.1,-2848.2 L-12374.6,-2850.6 L-12371.8,-2855.2 L-12375.3,-2865.9 L-12371.3,-2870.9 L-12351.5,-2895.4 L-12317.5,-2935.1 L-12311.0,-2944.5 L-12308.4,-2949.4 L-12297.6,-2964.3 L-12294.6,-2973.7 L-12294.5,-2988.2 L-12294.9,-3002.7 L-12295.0,-3017.5 L-12290.6,-3033.8 L-12283.2,-3049.9 L-12272.6,-3065.4 L-12264.9,-3076.9 L-12255.8,-3088.4 L-12238.2,-3108.0 L-12160.2,-3146.6 L-12149.9,-3149.3 L-12147.3,-3143.7 L-12144.2,-3138.3 L-12143.2,-3137.3 L-12141.5,-3138.0 L-12141.2,-3141.8 L-12142.4,-3145.0 L-12138.1,-3146.3 L-12122.1,-3151.0 L-12101.3,-3157.2 L-12084.5,-3162.2 L-12078.5,-3164.0 L-12084.5,-3182.9 L-12074.1,-3185.7 L-12056.8,-3188.1 L-12054.7,-3188.4 L-12054.6,-3189.6 L-12054.6,-3194.0 L-12038.9,-3194.7 L-12014.3,-3195.7 L-12004.8,-3191.1 L-11981.1,-3105.7 L-11975.8,-3100.6 L-11986.1,-3090.0 L-11977.0,-3081.0 L-11968.0,-3072.0 L-11957.2,-3083.0 L-11756.7,-2892.4 L-11489.1,-3178.0 L-11395.6,-3088.6 L-11392.0,-3089.7 L-11390.6,-3088.1 L-11384.3,-3092.1 L-11379.1,-3094.0 L-11373.6,-3096.5 L-11364.2,-3101.4 L-11358.4,-3104.7 L-11351.5,-3108.7 L-11345.1,-3112.7 L-11339.9,-3116.1 L-11335.1,-3119.2 L-11329.5,-3123.3 L-11323.1,-3128.0 L-11318.2,-3132.1 L-11313.0,-3136.7 L-11307.3,-3142.1 L-11301.9,-3147.5 L-11289.3,-3160.9 L-11281.7,-3170.0 L-11274.3,-3179.9 L-11269.2,-3187.1 L-11264.4,-3194.5 L-11258.7,-3204.8 L-11253.7,-3214.9 L-11249.7,-3223.2 L-11246.3,-3231.5 L-11244.2,-3237.0 L-11241.9,-3243.2 L-11236.5,-3249.9 L-11407.5,-3412.6 L-11405.4,-3414.9 L-11384.9,-3436.9 L-11370.0,-3452.7 L-11368.5,-3454.3 L-11325.1,-3413.7 L-11314.6,-3419.1 L-11313.4,-3417.6 L-11211.4,-3470.7 L-11207.2,-3472.9 L-11204.3,-3475.2 L-11201.6,-3477.7 L-11198.5,-3480.9 L-11195.5,-3485.4 L-11192.9,-3489.6 L-11191.2,-3492.8 L-11190.0,-3496.9 L-11188.9,-3501.4 L-11188.4,-3506.3 L-11188.4,-3511.8 L-11188.8,-3516.2 L-11189.6,-3520.1 L-11190.9,-3524.8 L-11222.8,-3616.6 L-11227.1,-3631.7 L-11226.0,-3636.9 L-11303.0,-3656.0 L-11299.4,-3669.3 L-11296.4,-3681.3 L-11273.6,-3771.5 L-11291.3,-3824.1 L-11301.7,-3858.1 L-11304.7,-3866.6 L-11277.1,-3891.9 L-11246.0,-3908.6 L-11244.1,-3906.0 L-11241.1,-3901.7 L-11234.1,-3892.6 L-11233.3,-3893.4 L-11233.1,-3896.5 L-11242.8,-3909.9 L-11225.5,-3922.3 L-11221.7,-3924.5 L-11212.7,-3912.8 L-11211.2,-3911.7 L-11209.7,-3911.4 L-11208.9,-3911.6 L-11208.9,-3912.4 L-11251.7,-3971.0 L-11254.8,-3974.4 L-11258.4,-3979.3 L-11277.0,-4001.8 L-11261.1,-4051.1 L-11248.9,-4063.8 L-11234.8,-4070.4 L-11204.8,-4088.2 L-11198.6,-4094.6 L-11171.7,-4118.2 L-11163.2,-4109.3 L-11138.3,-4082.4 L-11115.2,-4101.8 L-11099.7,-4086.9 L-11085.8,-4073.3 L-11085.1,-4072.6 L-11073.3,-4082.7 L-11057.7,-4066.1 L-11044.3,-4048.9 L-11034.4,-4037.4 L-11033.1,-4035.9 L-11004.3,-4061.2 L-11002.8,-4062.5 L-11009.6,-4070.8 L-10993.9,-4083.7 L-10946.3,-4028.2 L-10905.8,-4054.9 L-10901.8,-4058.7 L-10884.2,-4066.1 L-10880.2,-4070.0 L-10876.4,-4075.0 L-10854.7,-4094.3 L-10859.6,-4101.0 L-10898.4,-4092.1 L-10942.8,-4142.6 L-10937.7,-4147.0 L-10931.0,-4139.2 L-10899.6,-4166.2 L-10866.3,-4129.8 L-10857.3,-4126.2 L-10851.9,-4123.1 L-10845.1,-4115.4 L-10841.4,-4118.7 L-10865.5,-4146.1 L-10850.7,-4158.9 L-10820.8,-4123.0 L-10817.0,-4125.8 L-10817.4,-4126.6 L-10751.8,-4174.0 L-10732.3,-4188.4 L-10796.0,-4268.0 L-10782.4,-4277.5 L-10727.0,-4212.6 L-10686.1,-4205.1 L-10659.1,-4220.9 L-10655.3,-4223.3 L-10655.5,-4226.3 L-10657.4,-4229.8 L-10636.3,-4243.1 L-10630.1,-4236.9 L-10612.3,-4247.4 L-10625.2,-4263.4 L-10687.5,-4346.7 L-10643.5,-4392.3 L-10614.6,-4435.0 L-10613.9,-4468.4 L-10629.3,-4512.8 L-10596.9,-4539.8 L-10562.9,-4552.9 L-10551.7,-4555.5 L-10542.7,-4556.7 L-10531.7,-4556.0 L-10520.3,-4553.2 L-10503.8,-4539.1 L-10461.0,-4486.9 L-10426.8,-4443.5 L-10385.9,-4416.2 L-10369.8,-4413.6 L-10355.4,-4411.9 L-10343.2,-4411.4 L-10327.6,-4412.5 L-10310.7,-4415.3 L-10297.0,-4419.2 L-10285.4,-4424.6 L-10277.7,-4429.1 L-10272.0,-4435.1 L-10262.4,-4446.7 L-10252.0,-4465.7 L-10240.7,-4490.9 L-10220.6,-4480.6 L-10212.6,-4477.9 L-10204.0,-4476.7 L-10190.3,-4477.6 L-10181.2,-4480.3 L-10170.8,-4484.8 L-10161.1,-4490.4 L-10150.8,-4500.4 L-10142.0,-4508.4 L-10131.0,-4515.9 L-10123.4,-4520.8 L-10112.2,-4524.8 L-10092.9,-4530.4 L-10081.5,-4533.6 L-10069.3,-4538.2 L-10058.7,-4543.7 L-10052.4,-4547.3 L-10047.4,-4552.5 L-9982.0,-4585.3 L-9979.5,-4586.7 L-9976.6,-4588.5 L-9973.6,-4590.8 L-9969.2,-4593.3 L-9966.3,-4594.7 L-9963.2,-4597.4 L-9960.8,-4599.9 L-9957.6,-4602.0 L-9954.2,-4604.4 L-9949.7,-4608.6 L-9943.3,-4609.1 L-9936.7,-4609.9 L-9932.4,-4611.3 L-9926.8,-4613.9 L-9919.9,-4617.0 L-9912.6,-4621.5 L-9908.5,-4625.4 L-9903.9,-4630.7 L-9901.0,-4635.6 L-9899.4,-4640.1 L-9899.3,-4643.3 L-9899.2,-4645.9 L-9897.6,-4656.3 L-9861.2,-4677.4 L-9797.4,-4714.2 L-9785.0,-4721.3 L-9676.8,-4783.7 L-9559.6,-4851.0 L-9509.7,-4879.6 L-9492.4,-4889.3 L-9347.5,-4973.5 L-9315.3,-4991.2 L-9315.8,-4992.3 L-9249.5,-5029.8 L-9224.0,-5044.1 L-9177.0,-5070.1 L-9176.5,-5069.4 L-9158.3,-5079.4 L-9114.1,-5104.1 L-9108.8,-5108.9 L-9064.0,-5141.7 L-9041.7,-5160.2 L-9021.2,-5177.5 L-9011.8,-5182.8 L-8990.6,-5203.8 L-8988.8,-5202.7 L-8986.0,-5203.0 L-8984.6,-5202.1 L-8954.8,-5237.0 L-8962.3,-5244.0 L-8961.3,-5245.8 L-8958.1,-5250.4 L-8949.5,-5261.3 L-8944.3,-5269.2 L-8940.2,-5275.7 L-8934.5,-5284.4 L-8929.0,-5293.4 L-8922.8,-5303.7 L-8916.4,-5314.9 L-8902.5,-5343.6 L-8898.2,-5352.7 L-8894.7,-5360.0 L-8892.3,-5365.5 L-8890.2,-5369.7 L-8885.8,-5380.7 L-9001.6,-5596.7 L-9003.8,-5600.8 L-9005.5,-5603.1 L-9006.7,-5604.8 L-9008.3,-5606.2 L-9009.8,-5607.2 L-9011.8,-5608.4 L-9013.9,-5609.2 L-9015.7,-5609.6 L-9017.5,-5609.8 L-9020.2,-5609.8 L-9023.3,-5609.3 L-9026.0,-5608.5 L-9028.8,-5607.1 L-9055.7,-5591.6 L-9090.8,-5571.5 L-9115.3,-5557.9 L-9160.0,-5533.3 L-9187.4,-5518.4 L-9186.4,-5516.7 L-9198.1,-5510.0 L-9236.4,-5490.2 L-9264.8,-5473.4 L-9281.5,-5464.1 L-9306.9,-5449.5 L-9309.8,-5447.5 L-9332.1,-5487.6 L-9288.3,-5511.6 L-9228.5,-5544.1 L-9187.8,-5566.7 L-9182.8,-5569.6 L-9183.5,-5570.7 L-9148.3,-5589.9 L-9129.6,-5600.2 L-9086.7,-5621.1 L-9078.5,-5625.3 L-9013.8,-5661.3 L-8989.5,-5674.7 L-8972.4,-5683.9 L-8952.2,-5695.5 L-8924.2,-5644.9 L-8968.2,-5620.8 L-8970.5,-5617.1 L-8971.4,-5613.2 L-8971.8,-5610.2 L-8971.9,-5607.6 L-8971.7,-5605.5 L-8970.9,-5602.6 L-8881.2,-5436.7 L-8879.5,-5434.2 L-8877.5,-5432.3 L-8875.5,-5431.0 L-8873.4,-5430.3 L-8871.1,-5430.0 L-8868.9,-5430.2 L-8867.2,-5430.7 L-8827.4,-5460.9 L-8808.7,-5476.6 L-8789.4,-5492.9 L-8782.1,-5499.6 L-8758.2,-5519.2 L-8757.1,-5519.2 L-8733.9,-5539.0 L-8733.8,-5540.2 L-8718.6,-5552.7 L-8706.6,-5562.5 L-8686.0,-5579.5 L-8684.1,-5577.2 L-8663.9,-5593.9 L-8653.7,-5602.4 L-8625.4,-5625.9 L-8605.7,-5642.3 L-8607.6,-5645.1 L-8601.1,-5650.6 L-8590.4,-5659.4 L-8583.8,-5665.2 L-8555.9,-5677.7 L-8537.0,-5684.3 L-8527.3,-5688.9 L-8500.1,-5689.1 L-8490.6,-5689.1 L-8470.5,-5688.1 L-8447.0,-5687.1 L-8445.3,-5688.7 L-8443.0,-5685.7 L-8435.6,-5685.3 L-8368.3,-5679.5 L-8360.4,-5677.8 L-8353.5,-5676.7 L-8337.9,-5675.4 L-8308.8,-5674.0 L-8302.4,-5673.9 L-8296.4,-5674.1 L-8273.1,-5675.0 L-8261.1,-5675.6 L-8249.2,-5676.7 L-8230.9,-5678.6 L-8231.0,-5677.5 L-8216.5,-5680.0 L-8202.8,-5682.6 L-8192.3,-5684.5 L-8178.5,-5694.9 L-8176.9,-5692.7 L-8175.2,-5690.3 L-8053.6,-5529.5 L-7760.1,-5428.3 L-7221.5,-5823.9 L-7074.7,-5929.6 L-7018.0,-6050.6 L-7108.2,-6168.8 L-7104.2,-6185.7 L-7088.4,-6190.0 L-7058.0,-6183.7 L-7036.4,-6191.8 L-7030.4,-6200.2 L-7031.7,-6207.5 L-7047.8,-6239.1 L-7048.9,-6250.9 L-7049.8,-6274.3 L-7052.6,-6296.9 L-7049.8,-6300.9 L-7040.7,-6305.3 L-7029.6,-6307.8 L-7021.6,-6316.4 L-7019.8,-6326.8 L-7026.6,-6346.9 L-7027.3,-6360.8 L-7025.1,-6376.6 L-7014.1,-6404.3 L-7016.4,-6417.1 L-7021.9,-6431.4 L-7022.1,-6450.8 L-7025.3,-6476.4 L-7031.1,-6492.4 L-7034.7,-6500.8 L-7032.3,-6504.5 L-7030.0,-6504.3 L-7029.4,-6505.8 L-7029.1,-6507.8 L-7029.2,-6509.8 L-7032.7,-6510.2 L-7034.9,-6513.3 L-7034.5,-6517.0 L-7037.5,-6517.8 L-7041.2,-6517.9 L-7041.7,-6517.0 L-7049.3,-6526.0 L-7050.9,-6528.8 L-7052.2,-6532.7 L-7053.1,-6536.5 L-7053.8,-6540.5 L-7054.1,-6544.5 L-7054.3,-6548.1 L-7054.3,-6551.8 L-7054.0,-6553.8 L-7052.4,-6558.8 L-7050.6,-6562.8 L-7048.3,-6566.7 L-7044.9,-6571.6 L-7041.4,-6576.3 L-7038.1,-6579.7 L-7034.0,-6582.8 L-7033.2,-6582.0 L-6998.1,-6608.8 L-6993.0,-6612.7 L-6994.0,-6614.2 L-6994.0,-6616.8 L-6985.3,-6623.6 L-6983.1,-6623.5 L-6981.0,-6622.0 L-6977.3,-6624.8 L-6941.3,-6652.1 L-6941.7,-6653.0 L-6937.5,-6656.1 L-6932.5,-6659.2 L-6929.0,-6660.8 L-6924.0,-6662.7 L-6919.7,-6663.9 L-6915.4,-6664.5 L-6910.7,-6664.9 L-6907.9,-6664.7 L-6904.0,-6664.1 L-6900.2,-6662.8 L-6897.4,-6661.4 L-6894.7,-6659.8 L-6892.7,-6658.3 L-6891.0,-6656.7 L-6888.5,-6654.3 L-6887.4,-6653.9 L-6885.6,-6653.9 L-6883.8,-6654.2 L-6878.3,-6658.1 L-6878.3,-6659.2 L-6877.7,-6660.0 L-6877.1,-6661.1 L-6877.2,-6662.4 L-6877.5,-6663.5 L-6878.3,-6664.5 L-6882.2,-6668.4 L-6885.3,-6670.9 L-6888.9,-6672.9 L-6894.8,-6675.5 L-6899.9,-6677.5 L-6891.0,-6682.1 L-6880.1,-6689.7 L-6866.6,-6691.4 L-6853.1,-6690.5 L-6844.3,-6694.0 L-6836.6,-6705.0 L-6807.6,-6756.9 L-6795.8,-6778.3 L-6786.5,-6801.1 L-6784.9,-6805.9 L-6771.1,-6848.2 L-6768.9,-6852.3 L-6766.3,-6856.4 L-6733.9,-6896.5 L-6727.0,-6903.7 L-6721.9,-6908.1 L-6649.3,-6970.3 L-6645.3,-6973.0 L-6632.9,-6979.8 L-6618.0,-6988.2 L-6571.6,-7012.5 L-6470.5,-7066.8 L-6468.1,-7064.9 L-6466.2,-7064.2 L-6464.5,-7063.7 L-6462.7,-7064.0 L-6460.8,-7064.4 L-6455.4,-7065.5 L-6449.1,-7066.9 L-6443.4,-7068.2 L-6437.5,-7069.3 L-6434.3,-7070.0 L-6429.9,-7071.3 L-6424.9,-7073.4 L-6412.8,-7080.0 L-6408.4,-7082.4 L-6406.1,-7083.8 L-6403.8,-7084.8 L-6394.4,-7088.8 L-6384.1,-7092.8 L-6371.1,-7098.4 L-6355.8,-7104.7 L-6355.2,-7105.0 L-6353.9,-7105.1 L-6352.2,-7105.6 L-6349.8,-7107.4 L-6347.1,-7108.4 L-6344.1,-7109.9 L-6338.5,-7113.1 L-6336.5,-7115.1 L-6333.2,-7117.2 L-6333.5,-7117.8 L-6332.1,-7119.5 L-6330.3,-7121.4 L-6327.3,-7122.9 L-6324.8,-7123.9 L-6322.1,-7124.9 L-6319.6,-7126.2 L-6314.7,-7129.3 L-6313.3,-7130.7 L-6311.9,-7132.9 L-6311.3,-7134.5 L-6311.1,-7136.1 L-6311.3,-7137.6 L-6311.0,-7139.1 L-6325.0,-7156.0 L-6280.9,-7181.9 L-6260.0,-7193.0 L-6255.9,-7194.3 L-6249.5,-7193.1 L-6242.4,-7183.2 L-6239.2,-7180.4 L-6236.3,-7179.0 L-6233.6,-7178.4 L-6231.1,-7178.5 L-6193.3,-7194.1 L-6183.0,-7199.1 L-6173.4,-7204.4 L-6157.9,-7212.6 L-6154.7,-7213.7 L-5939.9,-7303.0 L-5872.7,-7335.3 L-5572.2,-7479.6 L1440.9,-7537.6 L1440.9,2498.0 L-13546.8,2498.0 L-13546.8,2071.5 Z" fill="#add7e1" stroke="none"><title>Biscayne Bay</title></path><path d="M-758.8,-1474.4 L1217.2,-1391.6 L3193.2,-1060.5 L4759.0,-605.3 L6250.4,636.1 L4460.8,2498.0 L-684.2,2498.0 L-982.5,-315.7 Z" fill="#f1efe7" stroke="#8ab09d" stroke-width="0.65"><title>Key Biscayne</title></path><path d="M935.7,2415.3 L3178.7,2429.2 L3286.5,2460.7 L3329.2,2347.3 L3387.2,2257.6 L3553.9,1910.7 L3627.8,1822.5 L3700.2,1671.7 L3760.5,1569.1 L3805.0,1511.1 L3821.6,1456.8 L3829.1,1345.2 L3832.1,1296.9 L3836.7,1260.7 L3826.9,1195.1 L3849.5,1063.9 L3858.5,977.9 L3878.9,887.4 L3884.2,819.6 L3909.1,697.4 L3918.9,634.1 L3964.8,542.1 L3968.6,490.1 L3961.8,382.2 L3977.7,243.5 L3979.2,144.7 L3985.2,-52.1 L4025.9,-202.9 L4078.7,-372.6 L4156.4,-536.9 L4311.2,-743.3 L4343.2,-804.3 L4364.0,-861.4 L4370.0,-922.8 L4381.7,-980.4 L4395.3,-1021.5 L4464.5,-1215.8 L4487.3,-1288.0 L4499.2,-1311.6 L4526.8,-1361.2 L4558.3,-1423.7 L4572.7,-1476.8 L4583.7,-1532.1 L4603.4,-1607.5 L4623.8,-1703.8 L4648.9,-1836.8 L4664.8,-1910.1 L4679.5,-1986.8 L4686.9,-2054.6 L4692.8,-2155.4 L4692.4,-2257.8 L4686.0,-2318.0 L4678.4,-2381.7 L4664.8,-2467.3 L4665.1,-2512.4 L4662.1,-2564.6 L4652.3,-2612.4 L4626.5,-2675.3 L4616.8,-2759.8 L4618.5,-2812.5 L4612.8,-2853.9 L4601.6,-2864.7 L4576.9,-2892.4 L4592.4,-2905.2 L4584.5,-2921.4 L4565.3,-2935.8 L4518.6,-2993.1 L4516.3,-3013.8 L4508.7,-3039.1 L4457.1,-3070.7 L4436.4,-3062.8 L4412.2,-3022.9 L4397.9,-3033.4 L4399.0,-3041.7 L4415.3,-3059.0 L4419.4,-3083.9 L4405.9,-3086.3 L4381.3,-3091.9 L4367.4,-3121.3 L4326.7,-3122.0 L4275.8,-3116.2 L4227.9,-3166.3 L4212.9,-3217.5 L4060.4,-3281.5 L3930.3,-3345.4 L3750.1,-3457.4 L3622.5,-3492.7 L3482.4,-3443.5 L3408.8,-3394.5 L3372.6,-3361.4 L3252.1,-3361.4 L3106.4,-3383.5 L3034.3,-3414.2 L2976.7,-3358.2 L3058.2,-3270.5 L2998.4,-3202.8 L2911.6,-3158.5 L2766.9,-3106.8 L2688.7,-3050.1 L2729.1,-2846.5 L2748.2,-2800.2 L2761.1,-2783.8 L2769.6,-2779.6 L2778.5,-2778.5 L2799.8,-2791.0 L2854.4,-2822.3 L2854.9,-2822.3 L3091.0,-3063.6 L3090.5,-3063.6 L3165.7,-3063.7 L3166.2,-3063.7 L3337.2,-2893.7 L3337.3,-2819.3 L3203.9,-2682.7 L3203.4,-2682.7 L3100.6,-2577.5 L3101.1,-2577.5 L3137.0,-2542.2 L3133.1,-2526.3 L3132.0,-2514.5 L3134.6,-2503.6 L3146.1,-2501.0 L3160.1,-2502.3 L3172.5,-2510.2 L3270.5,-2415.3 L3280.2,-2418.5 L3282.9,-2409.9 L3289.7,-2398.4 L3306.2,-2382.7 L3322.7,-2367.0 L3338.5,-2351.9 L3356.4,-2334.8 L3372.4,-2319.5 L3388.4,-2304.3 L3404.2,-2289.3 L3384.6,-2250.2 L3349.6,-2218.2 L3245.6,-2183.2 L3215.6,-2189.2 L3164.6,-2165.2 L3108.2,-1942.3 L3049.6,-1906.2 L3016.6,-1851.2 L2980.0,-1871.2 L2927.5,-1831.7 L2920.5,-1733.7 L2919.9,-1708.3 L2902.8,-1698.1 L2910.0,-1672.7 L2918.5,-1648.2 L2910.7,-1641.4 L2901.3,-1641.3 L2892.5,-1644.2 L2839.9,-1704.9 L2823.1,-1710.7 L2801.4,-1691.5 L2777.3,-1670.2 L2731.4,-1630.4 L2718.9,-1610.7 L2722.7,-1587.2 L2775.8,-1523.0 L2756.7,-1495.3 L2719.8,-1504.5 L2515.2,-1352.8 L2492.4,-1328.5 L2493.0,-1308.7 L2482.8,-1291.3 L2462.4,-1284.0 L2432.7,-1229.9 L2389.8,-1191.0 L2380.9,-1168.2 L2356.8,-1168.5 L2332.4,-1160.6 L2300.4,-1137.9 L2227.5,-1071.6 L2159.5,-982.4 L2132.1,-936.2 L2120.6,-935.5 L2102.4,-910.1 L2103.1,-872.2 L2071.1,-871.2 L2041.2,-838.2 L1968.2,-828.1 L1939.1,-862.2 L1903.2,-840.1 L1892.2,-798.1 L1908.7,-746.0 L1882.0,-729.6 L1840.5,-722.1 L1749.5,-738.1 L1725.5,-713.1 L1699.0,-708.6 L1672.0,-704.6 L1587.3,-579.2 L1590.3,-545.8 L1538.0,-445.1 L1597.2,-409.4 L1611.6,-374.6 L1659.3,-364.0 L1679.0,-376.8 L1773.2,-346.4 L1806.8,-347.7 L1831.8,-372.7 L1859.8,-392.7 L1913.3,-401.7 L1934.8,-394.7 L1952.3,-384.2 L1966.3,-374.7 L1976.8,-356.2 L1970.3,-341.2 L1957.8,-330.2 L1928.8,-339.2 L1899.8,-333.2 L1878.3,-308.7 L1871.8,-276.2 L1853.2,-264.6 L1847.3,-248.8 L1843.3,-228.7 L1824.2,-213.8 L1802.4,-207.9 L1788.7,-157.7 L1824.9,-85.9 L1811.0,-71.3 L1785.3,-66.0 L1778.9,-48.0 L1776.0,-29.7 L1789.9,-3.3 L1758.3,2.0 L1734.4,42.9 L1754.9,81.8 L1799.0,98.4 L1835.4,104.9 L1879.0,78.5 L1927.8,86.4 L2023.6,70.6 L2044.9,58.7 L2051.5,43.8 L2037.0,26.3 L2018.8,10.5 L2026.7,5.6 L2077.2,43.8 L2092.7,45.8 L2102.3,37.9 L2106.2,28.3 L2105.6,19.4 L2095.7,5.9 L2070.6,-23.8 L2091.1,-13.6 L2103.3,-12.2 L2113.2,-13.9 L2125.4,-10.6 L2126.7,1.6 L2136.6,17.1 L2144.6,24.6 L2154.7,33.9 L2163.0,46.8 L2174.2,51.4 L2181.4,68.9 L2187.4,88.0 L2202.6,95.0 L2210.5,102.5 L2218.4,114.8 L2213.5,128.3 L2200.3,141.5 L2190.0,169.2 L2191.3,175.1 L2145.7,182.7 L2123.7,197.1 L2123.0,219.1 L2107.0,228.9 L2082.8,229.7 L2048.7,244.8 L2048.7,264.5 L1990.3,297.9 L1930.5,308.5 L1902.4,328.9 L1809.9,305.3 L1670.9,335.4 L1529.8,354.4 L1485.1,418.2 L1355.2,403.7 L1246.9,493.7 L1198.6,554.6 L1167.6,523.6 L1119.6,537.2 L1120.5,604.0 L1063.1,610.9 L1009.1,679.8 L939.2,645.6 L522.9,271.8 L377.7,241.0 L302.4,317.3 L243.3,331.7 L219.0,411.3 L172.0,432.5 L154.9,394.9 L33.2,239.5 L-136.6,258.8 L-114.3,314.5 L-188.2,377.9 L-160.4,450.4 L-208.0,470.2 L-287.6,446.5 L-445.5,453.1 L-620.4,401.1 L-664.5,417.5 L-498.2,682.7 L-267.3,838.4 L-106.4,937.3 L118.0,992.8 L649.7,1120.8 L816.0,1291.0 L839.7,1395.2 L901.8,1436.1 L1017.0,1998.3 L1037.5,2059.0 L1038.2,2085.5 L1045.8,2125.7 L1067.0,2140.1 L1085.2,2162.0 L1048.8,2183.3 L1047.3,2219.6 L1082.2,2270.4 L1054.9,2289.4 L1051.9,2335.6 L1002.6,2343.2 L938.9,2383.3 L937.0,2387.8 L938.3,2400.6 L935.7,2415.3 Z" fill="#d5f2cb" stroke="#9fcf91" stroke-width="0.4"><title>Crandon Park</title></path><path d="M935.7,2415.3 L3178.7,2429.2 L3286.5,2460.7 L3329.2,2347.3 L3387.2,2257.6 L3553.9,1910.7 L3627.8,1822.5 L3700.2,1671.7 L3760.5,1569.1 L3805.0,1511.1 L3821.6,1456.8 L3829.1,1345.2 L3832.1,1296.9 L3836.7,1260.7 L3826.9,1195.1 L3849.5,1063.9 L3858.5,977.9 L3878.9,887.4 L3884.2,819.6 L3909.1,697.4 L3918.9,634.1 L3964.8,542.1 L3968.6,490.1 L3961.8,382.2 L3977.7,243.5 L3979.2,144.7 L3985.2,-52.1 L4025.9,-202.9 L4078.7,-372.6 L4156.4,-536.9 L4311.2,-743.3 L4343.2,-804.3 L4364.0,-861.4 L4370.0,-922.8 L4381.7,-980.4 L4395.3,-1021.5 L4464.5,-1215.8 L4487.3,-1288.0 L4499.2,-1311.6 L4526.8,-1361.2 L4558.3,-1423.7 L4572.7,-1476.8 L4583.7,-1532.1 L4603.4,-1607.5 L4623.8,-1703.8 L4648.9,-1836.8 L4664.8,-1910.1 L4679.5,-1986.8 L4686.9,-2054.6 L4692.8,-2155.4 L4692.4,-2257.8 L4686.0,-2318.0 L4678.4,-2381.7 L4664.8,-2467.3 L4665.1,-2512.4 L4662.1,-2564.6 L4652.3,-2612.4 L4626.5,-2675.3 L4616.8,-2759.8 L4618.5,-2812.5 L4612.8,-2853.9 L4601.6,-2864.7 L4576.9,-2892.4 L4592.4,-2905.2 L4584.5,-2921.4 L4565.3,-2935.8 L4518.6,-2993.1 L4516.3,-3013.8 L4508.7,-3039.1 L4457.1,-3070.7 L4436.4,-3062.8 L4412.2,-3022.9 L4397.9,-3033.4 L4399.0,-3041.7 L4415.3,-3059.0 L4419.4,-3083.9 L4405.9,-3086.3 L4381.3,-3091.9 L4367.4,-3121.3 L4326.7,-3122.0 L4275.8,-3116.2 L4227.9,-3166.3 L4212.9,-3217.5 L4060.4,-3281.5 L3930.3,-3345.4 L3750.1,-3457.4 L3622.5,-3492.7 L3482.4,-3443.5 L3408.8,-3394.5 L3372.6,-3361.4 L3252.1,-3361.4 L3106.4,-3383.5 L3034.3,-3414.2 L2976.7,-3358.2 L3058.2,-3270.5 L2998.4,-3202.8 L2911.6,-3158.5 L2766.9,-3106.8 L2688.7,-3050.1 L2729.1,-2846.5 L2748.2,-2800.2 L2761.1,-2783.8 L2769.6,-2779.6 L2778.5,-2778.5 L2799.8,-2791.0 L2854.4,-2822.3 L2854.9,-2822.3 L3091.0,-3063.6 L3090.5,-3063.6 L3165.7,-3063.7 L3166.2,-3063.7 L3337.2,-2893.7 L3337.3,-2819.3 L3203.9,-2682.7 L3203.4,-2682.7 L3100.6,-2577.5 L3101.1,-2577.5 L3137.0,-2542.2 L3133.1,-2526.3 L3132.0,-2514.5 L3134.6,-2503.6 L3146.1,-2501.0 L3160.1,-2502.3 L3172.5,-2510.2 L3270.5,-2415.3 L3280.2,-2418.5 L3282.9,-2409.9 L3289.7,-2398.4 L3306.2,-2382.7 L3322.7,-2367.0 L3338.5,-2351.9 L3356.4,-2334.8 L3372.4,-2319.5 L3388.4,-2304.3 L3404.2,-2289.3 L3384.6,-2250.2 L3349.6,-2218.2 L3245.6,-2183.2 L3215.6,-2189.2 L3164.6,-2165.2 L3108.2,-1942.3 L3049.6,-1906.2 L3016.6,-1851.2 L2980.0,-1871.2 L2927.5,-1831.7 L2920.5,-1733.7 L2919.9,-1708.3 L2902.8,-1698.1 L2910.0,-1672.7 L2918.5,-1648.2 L2910.7,-1641.4 L2901.3,-1641.3 L2892.5,-1644.2 L2839.9,-1704.9 L2823.1,-1710.7 L2801.4,-1691.5 L2777.3,-1670.2 L2731.4,-1630.4 L2718.9,-1610.7 L2722.7,-1587.2 L2775.8,-1523.0 L2756.7,-1495.3 L2719.8,-1504.5 L2515.2,-1352.8 L2492.4,-1328.5 L2493.0,-1308.7 L2482.8,-1291.3 L2462.4,-1284.0 L2432.7,-1229.9 L2389.8,-1191.0 L2380.9,-1168.2 L2356.8,-1168.5 L2332.4,-1160.6 L2300.4,-1137.9 L2227.5,-1071.6 L2159.5,-982.4 L2132.1,-936.2 L2120.6,-935.5 L2102.4,-910.1 L2103.1,-872.2 L2071.1,-871.2 L2041.2,-838.2 L1968.2,-828.1 L1939.1,-862.2 L1903.2,-840.1 L1892.2,-798.1 L1908.7,-746.0 L1882.0,-729.6 L1840.5,-722.1 L1749.5,-738.1 L1725.5,-713.1 L1699.0,-708.6 L1672.0,-704.6 L1587.3,-579.2 L1590.3,-545.8 L1538.0,-445.1 L1597.2,-409.4 L1611.6,-374.6 L1659.3,-364.0 L1679.0,-376.8 L1773.2,-346.4 L1806.8,-347.7 L1831.8,-372.7 L1859.8,-392.7 L1913.3,-401.7 L1934.8,-394.7 L1952.3,-384.2 L1966.3,-374.7 L1976.8,-356.2 L1970.3,-341.2 L1957.8,-330.2 L1928.8,-339.2 L1899.8,-333.2 L1878.3,-308.7 L1871.8,-276.2 L1853.2,-264.6 L1847.3,-248.8 L1843.3,-228.7 L1824.2,-213.8 L1802.4,-207.9 L1788.7,-157.7 L1824.9,-85.9 L1811.0,-71.3 L1785.3,-66.0 L1778.9,-48.0 L1776.0,-29.7 L1789.9,-3.3 L1758.3,2.0 L1734.4,42.9 L1754.9,81.8 L1799.0,98.4 L1835.4,104.9 L1879.0,78.5 L1927.8,86.4 L2023.6,70.6 L2044.9,58.7 L2051.5,43.8 L2037.0,26.3 L2018.8,10.5 L2026.7,5.6 L2077.2,43.8 L2092.7,45.8 L2102.3,37.9 L2106.2,28.3 L2105.6,19.4 L2095.7,5.9 L2070.6,-23.8 L2091.1,-13.6 L2103.3,-12.2 L2113.2,-13.9 L2125.4,-10.6 L2126.7,1.6 L2136.6,17.1 L2144.6,24.6 L2154.7,33.9 L2163.0,46.8 L2174.2,51.4 L2181.4,68.9 L2187.4,88.0 L2202.6,95.0 L2210.5,102.5 L2218.4,114.8 L2213.5,128.3 L2200.3,141.5 L2190.0,169.2 L2191.3,175.1 L2145.7,182.7 L2123.7,197.1 L2123.0,219.1 L2107.0,228.9 L2082.8,229.7 L2048.7,244.8 L2048.7,264.5 L1990.3,297.9 L1930.5,308.5 L1902.4,328.9 L1809.9,305.3 L1670.9,335.4 L1529.8,354.4 L1485.1,418.2 L1355.2,403.7 L1246.9,493.7 L1198.6,554.6 L1167.6,523.6 L1119.6,537.2 L1120.5,604.0 L1063.1,610.9 L1009.1,679.8 L939.2,645.6 L522.9,271.8 L377.7,241.0 L302.4,317.3 L243.3,331.7 L219.0,411.3 L172.0,432.5 L154.9,394.9 L33.2,239.5 L-136.6,258.8 L-114.3,314.5 L-188.2,377.9 L-160.4,450.4 L-208.0,470.2 L-287.6,446.5 L-445.5,453.1 L-620.4,401.1 L-664.5,417.5 L-498.2,682.7 L-267.3,838.4 L-106.4,937.3 L118.0,992.8 L649.7,1120.8 L816.0,1291.0 L839.7,1395.2 L901.8,1436.1 L1017.0,1998.3 L1037.5,2059.0 L1038.2,2085.5 L1045.8,2125.7 L1067.0,2140.1 L1085.2,2162.0 L1048.8,2183.3 L1047.3,2219.6 L1082.2,2270.4 L1054.9,2289.4 L1051.9,2335.6 L1002.6,2343.2 L938.9,2383.3 L937.0,2387.8 L938.3,2400.6 L935.7,2415.3 Z" fill="url(#park-dots)" stroke="none"/><path d="M935.7,2415.3 L3178.7,2429.2 L3286.5,2460.7 L3329.2,2347.3 L3387.2,2257.6 L3553.9,1910.7 L3627.8,1822.5 L3700.2,1671.7 L3760.5,1569.1 L3805.0,1511.1 L3821.6,1456.8 L3829.1,1345.2 L3832.1,1296.9 L3836.7,1260.7 L3826.9,1195.1 L3849.5,1063.9 L3858.5,977.9 L3878.9,887.4 L3884.2,819.6 L3909.1,697.4 L3918.9,634.1 L3964.8,542.1 L3968.6,490.1 L3961.8,382.2 L3977.7,243.5 L3979.2,144.7 L3985.2,-52.1 L4025.9,-202.9 L4078.7,-372.6 L4156.4,-536.9 L4311.2,-743.3 L4343.2,-804.3 L4364.0,-861.4 L4370.0,-922.8 L4381.7,-980.4 L4395.3,-1021.5 L4464.5,-1215.8 L4487.3,-1288.0 L4499.2,-1311.6 L4526.8,-1361.2 L4558.3,-1423.7 L4572.7,-1476.8 L4583.7,-1532.1 L4603.4,-1607.5 L4623.8,-1703.8 L4648.9,-1836.8 L4664.8,-1910.1 L4679.5,-1986.8 L4686.9,-2054.6 L4692.8,-2155.4 L4692.4,-2257.8 L4686.0,-2318.0 L4678.4,-2381.7 L4664.8,-2467.3 L4665.1,-2512.4 L4662.1,-2564.6 L4652.3,-2612.4 L4626.5,-2675.3 L4616.8,-2759.8 L4618.5,-2812.5 L4612.8,-2853.9 L4601.6,-2864.7 L4576.9,-2892.4 L4592.4,-2905.2 L4584.5,-2921.4 L4565.3,-2935.8 L4518.6,-2993.1 L4516.3,-3013.8 L4508.7,-3039.1 L4457.1,-3070.7 L4436.4,-3062.8 L4412.2,-3022.9 L4397.9,-3033.4 L4399.0,-3041.7 L4415.3,-3059.0 L4419.4,-3083.9 L4405.9,-3086.3 L4381.3,-3091.9 L4367.4,-3121.3 L4326.7,-3122.0 L4275.8,-3116.2 L4227.9,-3166.3 L4212.9,-3217.5 L4060.4,-3281.5 L3930.3,-3345.4 L3750.1,-3457.4 L3622.5,-3492.7 L3482.4,-3443.5 L3408.8,-3394.5 L3372.6,-3361.4 L3252.1,-3361.4 L3106.4,-3383.5 L3034.3,-3414.2 L2976.7,-3358.2 L3058.2,-3270.5 L2998.4,-3202.8 L2911.6,-3158.5 L2766.9,-3106.8 L2688.7,-3050.1 L2729.1,-2846.5 L2748.2,-2800.2 L2761.1,-2783.8 L2769.6,-2779.6 L2778.5,-2778.5 L2799.8,-2791.0 L2854.4,-2822.3 L2854.9,-2822.3 L3091.0,-3063.6 L3090.5,-3063.6 L3165.7,-3063.7 L3166.2,-3063.7 L3337.2,-2893.7 L3337.3,-2819.3 L3203.9,-2682.7 L3203.4,-2682.7 L3100.6,-2577.5 L3101.1,-2577.5 L3137.0,-2542.2 L3133.1,-2526.3 L3132.0,-2514.5 L3134.6,-2503.6 L3146.1,-2501.0 L3160.1,-2502.3 L3172.5,-2510.2 L3270.5,-2415.3 L3280.2,-2418.5 L3282.9,-2409.9 L3289.7,-2398.4 L3306.2,-2382.7 L3322.7,-2367.0 L3338.5,-2351.9 L3356.4,-2334.8 L3372.4,-2319.5 L3388.4,-2304.3 L3404.2,-2289.3 L3384.6,-2250.2 L3349.6,-2218.2 L3245.6,-2183.2 L3215.6,-2189.2 L3164.6,-2165.2 L3108.2,-1942.3 L3049.6,-1906.2 L3016.6,-1851.2 L2980.0,-1871.2 L2927.5,-1831.7 L2920.5,-1733.7 L2919.9,-1708.3 L2902.8,-1698.1 L2910.0,-1672.7 L2918.5,-1648.2 L2910.7,-1641.4 L2901.3,-1641.3 L2892.5,-1644.2 L2839.9,-1704.9 L2823.1,-1710.7 L2801.4,-1691.5 L2777.3,-1670.2 L2731.4,-1630.4 L2718.9,-1610.7 L2722.7,-1587.2 L2775.8,-1523.0 L2756.7,-1495.3 L2719.8,-1504.5 L2515.2,-1352.8 L2492.4,-1328.5 L2493.0,-1308.7 L2482.8,-1291.3 L2462.4,-1284.0 L2432.7,-1229.9 L2389.8,-1191.0 L2380.9,-1168.2 L2356.8,-1168.5 L2332.4,-1160.6 L2300.4,-1137.9 L2227.5,-1071.6 L2159.5,-982.4 L2132.1,-936.2 L2120.6,-935.5 L2102.4,-910.1 L2103.1,-872.2 L2071.1,-871.2 L2041.2,-838.2 L1968.2,-828.1 L1939.1,-862.2 L1903.2,-840.1 L1892.2,-798.1 L1908.7,-746.0 L1882.0,-729.6 L1840.5,-722.1 L1749.5,-738.1 L1725.5,-713.1 L1699.0,-708.6 L1672.0,-704.6 L1587.3,-579.2 L1590.3,-545.8 L1538.0,-445.1 L1597.2,-409.4 L1611.6,-374.6 L1659.3,-364.0 L1679.0,-376.8 L1773.2,-346.4 L1806.8,-347.7 L1831.8,-372.7 L1859.8,-392.7 L1913.3,-401.7 L1934.8,-394.7 L1952.3,-384.2 L1966.3,-374.7 L1976.8,-356.2 L1970.3,-341.2 L1957.8,-330.2 L1928.8,-339.2 L1899.8,-333.2 L1878.3,-308.7 L1871.8,-276.2 L1853.2,-264.6 L1847.3,-248.8 L1843.3,-228.7 L1824.2,-213.8 L1802.4,-207.9 L1788.7,-157.7 L1824.9,-85.9 L1811.0,-71.3 L1785.3,-66.0 L1778.9,-48.0 L1776.0,-29.7 L1789.9,-3.3 L1758.3,2.0 L1734.4,42.9 L1754.9,81.8 L1799.0,98.4 L1835.4,104.9 L1879.0,78.5 L1927.8,86.4 L2023.6,70.6 L2044.9,58.7 L2051.5,43.8 L2037.0,26.3 L2018.8,10.5 L2026.7,5.6 L2077.2,43.8 L2092.7,45.8 L2102.3,37.9 L2106.2,28.3 L2105.6,19.4 L2095.7,5.9 L2070.6,-23.8 L2091.1,-13.6 L2103.3,-12.2 L2113.2,-13.9 L2125.4,-10.6 L2126.7,1.6 L2136.6,17.1 L2144.6,24.6 L2154.7,33.9 L2163.0,46.8 L2174.2,51.4 L2181.4,68.9 L2187.4,88.0 L2202.6,95.0 L2210.5,102.5 L2218.4,114.8 L2213.5,128.3 L2200.3,141.5 L2190.0,169.2 L2191.3,175.1 L2145.7,182.7 L2123.7,197.1 L2123.0,219.1 L2107.0,228.9 L2082.8,229.7 L2048.7,244.8 L2048.7,264.5 L1990.3,297.9 L1930.5,308.5 L1902.4,328.9 L1809.9,305.3 L1670.9,335.4 L1529.8,354.4 L1485.1,418.2 L1355.2,403.7 L1246.9,493.7 L1198.6,554.6 L1167.6,523.6 L1119.6,537.2 L1120.5,604.0 L1063.1,610.9 L1009.1,679.8 L939.2,645.6 L522.9,271.8 L377.7,241.0 L302.4,317.3 L243.3,331.7 L219.0,411.3 L172.0,432.5 L154.9,394.9 L33.2,239.5 L-136.6,258.8 L-114.3,314.5 L-188.2,377.9 L-160.4,450.4 L-208.0,470.2 L-287.6,446.5 L-445.5,453.1 L-620.4,401.1 L-664.5,417.5 L-498.2,682.7 L-267.3,838.4 L-106.4,937.3 L118.0,992.8 L649.7,1120.8 L816.0,1291.0 L839.7,1395.2 L901.8,1436.1 L1017.0,1998.3 L1037.5,2059.0 L1038.2,2085.5 L1045.8,2125.7 L1067.0,2140.1 L1085.2,2162.0 L1048.8,2183.3 L1047.3,2219.6 L1082.2,2270.4 L1054.9,2289.4 L1051.9,2335.6 L1002.6,2343.2 L938.9,2383.3 L937.0,2387.8 L938.3,2400.6 L935.7,2415.3 Z" fill="url(#park-canopy)" stroke="none"/><path d="M378.2,241.0 L302.9,317.3" fill="none" stroke="#79bdd0" stroke-width="1.4" stroke-linecap="round" stroke-linejoin="round"></path><path d="M155.4,394.9 L33.7,239.5 L-136.1,258.8" fill="none" stroke="#79bdd0" stroke-width="1.4" stroke-linecap="round" stroke-linejoin="round"></path></svg>