<svg xmlns="http://www.w3.org/2000/svg" width="256" height="256" viewBox="0 0 256 256"><rect width="256" height="256" fill="#f1efe7"/><path d="M-6154.7,5330.3 L-5939.9,5241.0 L-5872.7,5208.7 L-5572.2,5064.4 L-5515.8,5119.0 L-5510.9,5123.7 L-5405.5,5033.5 L-5380.4,5014.4 L-5338.5,4976.6 L-5102.4,4759.8 L-4911.9,4542.2 L-4904.6,4528.3 L-4897.6,4520.4 L-4886.5,4507.7 L-4875.2,4494.8 L-4870.6,4489.5 L-4945.7,4392.4 L-4846.3,4332.8 L-4792.4,4404.5 L-4716.2,4317.3 L-4780.7,4231.9 L-4700.8,4148.6 L-4639.3,4229.6 L-4568.7,4149.2 L-4538.6,4129.5 L-4391.4,4034.0 L-4318.7,3985.7 L-4231.1,3928.1 L-4189.7,3900.9 L-4084.8,3833.2 L-4111.8,3797.7 L-4160.1,3733.0 L-4035.2,3653.6 L-3989.7,3630.1 L-3986.2,3627.6 L-3962.2,3609.1 L-3876.6,3563.3 L-3870.7,3554.1 L-3846.7,3537.6 L-3833.7,3518.6 L-3830.0,3515.8 L-3809.1,3507.7 L-3761.9,3490.8 L-3729.6,3476.6 L-3615.5,3423.0 L-3614.1,3426.7 L-3518.4,3385.8 L-3479.3,3435.9 L-3392.2,3377.8 L-3379.8,3369.3 L-3378.6,3368.3 L-3377.4,3366.7 L-3375.5,3363.4 L-3374.5,3360.3 L-3373.9,3356.6 L-3374.0,3353.6 L-3374.4,3350.7 L-3374.8,3347.4 L-3374.9,3344.9 L-3374.7,3342.8 L-3374.3,3340.6 L-3372.7,3336.6 L-3371.6,3334.4 L-3369.1,3330.6 L-3366.5,3327.8 L-3353.8,3322.7 L-3343.2,3318.7 L-3329.7,3314.3 L-3323.4,3312.6 L-3312.2,3308.9 L-3304.3,3306.1 L-3293.4,3301.6 L-3278.6,3295.1 L-3262.6,3287.6 L-3254.0,3283.4 L-3243.2,3277.9 L-3233.1,3272.3 L-3223.0,3266.3 L-3212.7,3259.6 L-3209.5,3257.4 L-3188.8,3241.6 L-3171.4,3228.2 L-3154.4,3213.8 L-3138.5,3198.8 L-3127.0,3185.9 L-3115.6,3172.0 L-3101.6,3154.0 L-3088.8,3136.0 L-3074.1,3112.9 L-3064.5,3095.0 L-3058.5,3083.6 L-3049.6,3064.3 L-3042.1,3046.4 L-3035.4,3027.1 L-3030.0,3010.2 L-3024.1,2982.8 L-3019.8,2958.3 L-3017.5,2937.3 L-3015.5,2912.5 L-3015.3,2886.0 L-3016.9,2861.5 L-3021.1,2829.5 L-3025.5,2807.7 L-3030.5,2787.1 L-3037.9,2763.7 L-3044.2,2745.8 L-3051.4,2726.3 L-3058.2,2710.1 L-3062.8,2699.6 L-3064.7,2691.9 L-3065.0,2686.0 L-3064.4,2680.7 L-3062.3,2676.1 L-3059.1,2672.2 L-3054.9,2670.0 L-3050.4,2669.4 L-3038.3,2672.3 L-3004.6,2680.4 L-2993.4,2425.7 L-2949.7,1971.1 L-2997.2,1959.9 L-3002.4,1945.6 L-3002.2,1925.1 L-2995.6,1878.6 L-2986.6,1868.1 L-2978.6,1837.9 L-2928.1,1849.6 L-2900.3,1559.1 L-2892.6,1478.7 L-2908.3,1474.8 L-2898.8,1436.4 L-2931.1,1428.7 L-2927.0,1405.2 L-2921.3,1389.7 L-2914.2,1371.6 L-2902.2,1346.3 L-2889.3,1349.2 L-2871.9,1166.5 L-2867.8,1055.7 L-2867.0,1035.3 L-2857.6,964.8 L-2838.9,789.1 L-2714.1,463.7 L-2685.6,375.0 L-2338.9,242.0 L-2305.0,228.4 L-2299.1,225.2 L-2294.5,221.0 L-2289.4,215.1 L-2285.5,208.2 L-2282.9,201.4 L-2282.3,191.5 L-2282.8,179.2 L-2287.4,23.7 L-2289.1,-6.4 L-2289.6,-27.1 L-2290.3,-67.3 L-2291.1,-79.9 L-2292.6,-90.5 L-2294.7,-99.9 L-2297.8,-109.5 L-2302.7,-120.8 L-2309.9,-132.9 L-2316.9,-142.5 L-2322.3,-151.6 L-2327.8,-163.7 L-2332.4,-175.3 L-2334.2,-184.8 L-2335.6,-195.3 L-2336.3,-205.8 L-2336.0,-216.0 L-2334.8,-227.9 L-2332.0,-239.6 L-2328.3,-250.0 L-2324.4,-259.5 L-2319.4,-268.7 L-2313.3,-279.9 L-2309.3,-290.0 L-2305.8,-302.9 L-2299.4,-312.7 L-2301.6,-401.9 L-2304.9,-407.1 L-2305.9,-467.7 L-2307.6,-539.2 L-2306.4,-549.1 L-2303.2,-559.2 L-2295.2,-575.0 L-2241.7,-690.1 L-2240.6,-692.0 L-2231.2,-712.5 L-2222.3,-731.9 L-2212.3,-751.9 L-2202.5,-772.5 L-2197.7,-782.5 L-2145.1,-890.4 L-2088.9,-1009.6 L-1967.3,-1256.4 L-2040.4,-1338.3 L-2100.0,-1211.3 L-2151.5,-1101.4 L-2159.3,-1085.8 L-2175.2,-1053.3 L-2207.0,-1056.0 L-2215.7,-1056.5 L-2218.8,-1053.7 L-2214.6,-1049.9 L-2230.9,-1035.4 L-2243.8,-1023.5 L-2246.2,-972.6 L-2251.0,-962.4 L-2266.6,-963.0 L-2269.2,-963.9 L-2473.6,-1048.3 L-2478.0,-1050.6 L-2482.7,-1053.6 L-2490.1,-1059.2 L-2495.8,-1064.6 L-2500.6,-1069.8 L-2505.3,-1076.2 L-2508.9,-1081.8 L-2511.7,-1087.6 L-2513.9,-1093.7 L-2515.4,-1097.9 L-2516.5,-1103.0 L-2517.3,-1109.0 L-2518.1,-1117.2 L-2518.1,-1128.9 L-2519.5,-1168.6 L-2513.9,-1168.9 L-2514.7,-1189.9 L-2515.6,-1224.5 L-2510.4,-1224.6 L-2510.8,-1248.2 L-2516.7,-1248.1 L-2519.4,-1347.5 L-2513.8,-1347.8 L-2514.7,-1371.1 L-2520.1,-1370.9 L-2522.4,-1444.4 L-2495.4,-1473.5 L-2460.9,-1474.7 L-2435.2,-1475.6 L-2401.3,-1476.7 L-2368.7,-1477.7 L-2339.5,-1478.7 L-2326.8,-1479.3 L-2327.4,-1490.6 L-2327.6,-1502.4 L-2329.5,-1540.7 L-2330.2,-1613.8 L-2331.2,-1615.1 L-2331.4,-1622.3 L-2329.3,-1622.4 L-2334.4,-1798.5 L-2338.8,-1964.2 L-2339.5,-1969.4 L-2339.9,-1979.0 L-2412.1,-1976.4 L-2460.1,-1980.5 L-2819.4,-1968.0 L-2819.5,-1971.2 L-2820.2,-1986.5 L-2990.6,-1980.5 L-2990.9,-2008.8 L-3013.4,-2013.9 L-3017.4,-2135.0 L-2354.6,-2158.0 L-2343.6,-2173.1 L-2344.0,-2216.1 L-2344.8,-2253.3 L-2345.4,-2276.6 L-2346.3,-2299.3 L-2399.0,-2324.1 L-2401.1,-2379.2 L-2347.1,-2406.0 L-2352.0,-2533.5 L-2353.4,-2539.8 L-2407.1,-2564.9 L-2408.8,-2633.1 L-2357.8,-2659.4 L-2380.5,-2936.3 L-2374.5,-3059.5 L-2371.5,-3260.4 L-2371.7,-3478.9 L-2366.9,-3509.5 L-2366.6,-3524.3 L-2371.4,-3542.1 L-2366.4,-3542.1 L-2366.4,-3558.2 L-2363.4,-3969.2 L-2363.9,-3987.5 L-2369.6,-3987.5 L-2369.4,-4063.1 L-2372.7,-4067.8 L-2377.9,-4145.8 L-2367.6,-4217.1 L-2368.9,-4303.4 L-2372.4,-4324.1 L-2367.1,-4388.0 L-2370.7,-4465.3 L-2379.7,-4548.0 L-2396.8,-4682.0 L-2388.7,-4718.9 L-2392.3,-4754.8 L-2422.9,-4780.9 L-2467.8,-4780.5 L-2536.2,-4771.5 L-2580.7,-4771.5 L-2621.1,-4786.3 L-2674.2,-4822.7 L-2674.2,-4888.0 L-2675.6,-4968.3 L-2670.4,-5035.2 L-2652.8,-5087.4 L-2358.1,-5092.9 L-2351.3,-5510.8 L-2351.3,-6112.4 L-2354.4,-6330.7 L13557.8,-12902.4 L13557.8,23315.8 L-6154.7,23315.8 L-6154.7,5330.3 Z" fill="#add7e1" stroke="none"><title>Biscayne Bay</title></path><path d="M-569.7,-714.8 L-601.7,-643.8 L-573.7,-628.8 L-435.7,-565.8 L-431.7,-576.8 L1073.3,164.2 L1100.3,186.2 L1120.3,213.2 L1141.3,230.2 L1176.3,247.2 L1230.3,266.2 L1303.3,277.2 L1550.4,393.9 L1597.3,303.2 L-569.7,-714.8 Z" fill="#ece7dc" stroke="#d7d1c5" stroke-width="0.3"></path><path d="M-1534.1,-1381.3 L-1581.4,-1405.0 L-1585.1,-1403.3 L-1640.0,-1274.2 L-1645.6,-1256.7 L-1655.7,-1237.3 L-1662.8,-1220.1 L-1697.4,-1140.8 L-1700.2,-1134.0 L-1701.3,-1129.1 L-1701.8,-1124.0 L-1701.4,-1119.3 L-1697.7,-1110.7 L-1693.1,-1103.2 L-1690.1,-1098.6 L-1686.0,-1092.9 L-1675.5,-1079.6 L-1642.0,-1035.7 L-1603.2,-984.1 L-1589.8,-969.6 L-1568.3,-943.6 L-1548.1,-917.0 L-1527.4,-891.5 L-1516.1,-874.0 L-1504.8,-857.8 L-1502.8,-855.4 L-1499.9,-854.1 L-1497.1,-854.7 L-1496.0,-855.3 L-1497.9,-836.9 L-1390.4,-701.7 L-1380.6,-708.3 L-1377.3,-708.2 L-1372.3,-707.8 L-1365.8,-706.2 L-1358.9,-703.0 L-1353.0,-700.4 L-1349.5,-698.7 L-1345.1,-695.8 L-1341.4,-692.2 L-1333.5,-683.7 L-1321.8,-670.9 L-1310.9,-658.1 L-1302.0,-646.2 L-1287.5,-620.2 L-1278.1,-602.1 L-1267.2,-577.9 L-1255.7,-555.2 L-1236.4,-516.6 L-1231.3,-510.2 L-1224.2,-502.9 L-1216.7,-495.9 L-1165.0,-456.0 L-1159.1,-450.7 L-1154.9,-446.4 L-1150.9,-440.0 L-1138.6,-405.6 L-1136.6,-398.7 L-774.7,-225.7 L-755.8,-216.7 L-565.3,-125.7 L-374.0,-34.2 L-323.2,-54.1 L-307.8,-2.3 L270.2,273.4 L252.0,312.8 L313.2,342.5 L332.6,302.8 L898.0,572.3 L1312.3,773.1 L1297.8,803.8 L1359.3,833.4 L1373.6,802.0 L1636.5,927.1 L1598.8,1002.8 L2187.1,1289.7 L3058.4,1315.8 L3669.2,1333.9 L3814.8,1338.9 L4377.2,1354.7 L4423.2,1355.9 L4423.3,1353.3 L4756.2,1363.3 L4828.3,1365.5 L4898.5,1367.7 L4898.3,1370.9 L4981.7,1372.3 L5001.5,1373.8 L5001.8,1368.3 L5082.3,1291.7 L5089.5,1292.0 L5104.6,1308.8 L5110.7,1304.4 L5114.6,1305.7 L5119.8,1305.6 L5127.6,1303.7 L5136.3,1301.0 L5142.7,1297.2 L5148.7,1291.6 L5162.9,1260.1 L5166.9,1249.5 L5168.3,1239.9 L5168.6,1230.6 L5164.8,1211.6 L5162.9,1205.5 L5159.7,1199.5 L5154.3,1190.9 L5147.2,1181.4 L5141.2,1175.1 L5129.0,1164.8 L5114.9,1154.2 L5092.1,1138.1 L5067.8,1125.3 L5054.9,1118.5 L5037.9,1111.9 L5012.9,1101.6 L4900.6,1041.6 L4791.5,974.3 L4750.0,944.0 L4704.0,914.8 L4565.1,837.8 L4416.6,768.5 L4409.5,783.6 L4381.0,769.9 L4353.6,828.3 L4045.4,687.1 L3958.7,646.3 L3855.3,599.4 L3560.4,463.6 L3293.9,341.1 L3187.0,291.7 L3133.9,268.3 L3079.4,244.0 L2856.5,137.0 L2491.0,-37.5 L2335.2,-112.4 L2291.2,-21.5 L1805.7,-253.4 L1561.2,-370.3 L1323.4,-484.3 L934.5,-669.8 L544.5,-856.4 L40.1,-1097.0 L-374.7,-1294.7 L-452.4,-1334.9 L-682.0,-1441.8 L-916.5,-1554.2 L-1387.4,-1779.4 L-1410.5,-1716.1 L-1529.2,-1401.4 L-1526.8,-1397.3 L-1534.1,-1381.3 Z" fill="#f1efe7" stroke="#8ab09d" stroke-width="0.65"></path><path d="M246.9,-197.5 L527.5,-61.9 L522.0,-50.4 L558.3,-32.8 L521.8,43.5 L528.0,46.5 L519.9,63.6 L514.2,60.8 L498.8,93.0 L463.8,76.1 L458.0,88.3 L176.1,-47.9 L205.2,-108.8 L193.9,-114.3 L206.3,-140.3 L217.1,-135.1 L246.9,-197.5 Z" fill="#d6d2c9" stroke="#bab6ad" stroke-width="0.4"><title>Shed G</title></path><path d="M-2058.7,-669.1 L498.0,603.2" fill="none" stroke="#6fb5c7" stroke-width="1.7" stroke-dasharray="5 7" opacity="0.34" stroke-linecap="round" stroke-linejoin="round"><title>Dodge Island Cut</title></path><path d="M-1092.9,-1926.4 L5496.2,1041.3" fill="none" stroke="#6fb5c7" stroke-width="1.7" stroke-dasharray="5 7" opacity="0.34" stroke-linecap="round" stroke-linejoin="round"><title>Main Channel</title></path><path d="M110.0,-100.6 L93.0,-43.2 L300.1,53.4 L393.2,96.8" fill="none" stroke="#cec8bb" stroke-width="3.5" stroke-linecap="round" stroke-linejoin="round"/><path d="M110.0,-100.6 L93.0,-43.2 L300.1,53.4 L393.2,96.8" fill="none" stroke="#ffffff" stroke-width="2.5" stroke-linecap="round" stroke-linejoin="round"></path><path d="M353.5,170.0 L53.4,22.7" fill="none" stroke="#cec8bb" stroke-width="3.5" stroke-linecap="round" stroke-linejoin="round"/><path d="M353.5,170.0 L53.4,22.7" fill="none" stroke="#ffffff" stroke-width="2.5" stroke-linecap="round" stroke-linejoin="round"></path><path d="M-519.0,-680.5 L1083.5,86.9" fill="none" stroke="#fbf8ef" stroke-width="6.9" stroke-linecap="round" stroke-linejoin="round"/><path d="M-519.0,-680.5 L1083.5,86.9" fill="none" stroke="#465158" stroke-width="4.7" stroke-linecap="round" stroke-linejoin="round"><title>Port Branch</title></path><path d="M-519.0,-680.5 L1083.5,86.9" fill="none" stroke="#ffffff" stroke-width="2.9" stroke-linecap="round" stroke-linejoin="round"/><path d="M-536.8,-680.4 L1108.4,107.1" fill="none" stroke="#fbf8ef" stroke-width="6.9" stroke-linecap="round" stroke-linejoin="round"/><path d="M-536.8,-680.4 L1108.4,107.1" fill="none" stroke="#465158" stroke-width="4.7" stroke-linecap="round" stroke-linejoin="round"><title>Port Branch</title></path><path d="M-536.8,-680.4 L1108.4,107.1" fill="none" stroke="#ffffff" stroke-width="2.9" stroke-linecap="round" stroke-linejoin="round"/><path d="M-433.8,-586.6 L1246.1,217.5" fill="none" stroke="#fbf8ef" stroke-width="6.9" stroke-linecap="round" stroke-linejoin="round"/><path d="M-433.8,-586.6 L1246.1,217.5" fill="none" stroke="#465158" stroke-width="4.7" stroke-linecap="round" stroke-linejoin="round"><title>Port Branch</title></path><path d="M-433.8,-586.6 L1246.1,217.5" fill="none" stroke="#ffffff" stroke-width="2.9" stroke-linecap="round" stroke-linejoin="round"/></svg>