<svg xmlns="http://www.w3.org/2000/svg" width="256" height="256" viewBox="0 0 256 256"><defs><pattern id="park-dots" width="22" height="22" patternUnits="userSpaceOnUse"><circle cx="5" cy="5" r="2.1" fill="#63a95d" fill-opacity="0.26"/><circle cx="16" cy="7" r="1.55" fill="#76b970" fill-opacity="0.23"/><circle cx="10" cy="17" r="1.9" fill="#61a65b" fill-opacity="0.24"/><circle cx="21" cy="17" r="1.25" fill="#80c174" fill-opacity="0.18"/><circle cx="1" cy="19" r="1.2" fill="#70b46a" fill-opacity="0.17"/></pattern><pattern id="park-canopy" width="54" height="48" patternUnits="userSpaceOnUse"><circle cx="12" cy="11" r="3.6" fill="#5ea75a" fill-opacity="0.22"/><circle cx="31" cy="15" r="2.9" fill="#75ba6d" fill-opacity="0.18"/><circle cx="45" cy="31" r="3.3" fill="#67ae62" fill-opacity="0.20"/><circle cx="19" cy="39" r="2.5" fill="#83c378" fill-opacity="0.16"/></pattern></defs><rect width="256" height="256" fill="#f1efe7"/><path d="M-6154.7,1746.3 L-5939.9,1657.0 L-5872.7,1624.7 L-5572.2,1480.4 L-5515.8,1535.0 L-5510.9,1539.7 L-5405.5,1449.5 L-5380.4,1430.4 L-5338.5,1392.6 L-5102.4,1175.8 L-4911.9,958.2 L-4904.6,944.3 L-4897.6,936.4 L-4886.5,923.7 L-4875.2,910.8 L-4870.6,905.5 L-4945.7,808.4 L-4846.3,748.8 L-4792.4,820.5 L-4716.2,733.3 L-4780.7,647.9 L-4700.8,564.6 L-4639.3,645.6 L-4568.7,565.2 L-4538.6,545.5 L-4391.4,450.0 L-4318.7,401.7 L-4231.1,344.1 L-4189.7,316.9 L-4084.8,249.2 L-4111.8,213.7 L-4160.1,149.0 L-4035.2,69.6 L-3989.7,46.1 L-3986.2,43.6 L-3962.2,25.1 L-3876.6,-20.7 L-3870.7,-29.9 L-3846.7,-46.4 L-3833.7,-65.4 L-3830.0,-68.2 L-3809.1,-76.3 L-3761.9,-93.2 L-3729.6,-107.4 L-3615.5,-161.0 L-3614.1,-157.3 L-3518.4,-198.2 L-3479.3,-148.1 L-3392.2,-206.2 L-3379.8,-214.7 L-3378.6,-215.7 L-3377.4,-217.3 L-3375.5,-220.6 L-3374.5,-223.7 L-3373.9,-227.4 L-3374.0,-230.4 L-3374.4,-233.3 L-3374.8,-236.6 L-3374.9,-239.1 L-3374.7,-241.2 L-3374.3,-243.4 L-3372.7,-247.4 L-3371.6,-249.6 L-3369.1,-253.4 L-3366.5,-256.2 L-3353.8,-261.3 L-3343.2,-265.3 L-3329.7,-269.7 L-3323.4,-271.4 L-3312.2,-275.1 L-3304.3,-277.9 L-3293.4,-282.4 L-3278.6,-288.9 L-3262.6,-296.4 L-3254.0,-300.6 L-3243.2,-306.1 L-3233.1,-311.7 L-3223.0,-317.7 L-3212.7,-324.4 L-3209.5,-326.6 L-3188.8,-342.4 L-3171.4,-355.8 L-3154.4,-370.2 L-3138.5,-385.2 L-3127.0,-398.1 L-3115.6,-412.0 L-3101.6,-430.0 L-3088.8,-448.0 L-3074.1,-471.1 L-3064.5,-489.0 L-3058.5,-500.4 L-3049.6,-519.7 L-3042.1,-537.6 L-3035.4,-556.9 L-3030.0,-573.8 L-3024.1,-601.2 L-3019.8,-625.7 L-3017.5,-646.7 L-3015.5,-671.5 L-3015.3,-698.0 L-3016.9,-722.5 L-3021.1,-754.5 L-3025.5,-776.3 L-3030.5,-796.9 L-3037.9,-820.3 L-3044.2,-838.2 L-3051.4,-857.7 L-3058.2,-873.9 L-3062.8,-884.4 L-3064.7,-892.1 L-3065.0,-898.0 L-3064.4,-903.3 L-3062.3,-907.9 L-3059.1,-911.8 L-3054.9,-914.0 L-3050.4,-914.6 L-3038.3,-911.7 L-3004.6,-903.6 L-2993.4,-1158.3 L-2949.7,-1612.9 L-2997.2,-1624.1 L-3002.4,-1638.4 L-3002.2,-1658.9 L-2995.6,-1705.4 L-2986.6,-1715.9 L-2978.6,-1746.1 L-2928.1,-1734.4 L-2900.3,-2024.9 L-2892.6,-2105.3 L-2908.3,-2109.2 L-2898.8,-2147.6 L-2931.1,-2155.3 L-2927.0,-2178.8 L-2921.3,-2194.3 L-2914.2,-2212.4 L-2902.2,-2237.7 L-2889.3,-2234.8 L-2871.9,-2417.5 L-2867.8,-2528.3 L-2867.0,-2548.7 L-2857.6,-2619.2 L-2838.9,-2794.9 L-2714.1,-3120.3 L-2685.6,-3209.0 L-2338.9,-3342.0 L-2305.0,-3355.6 L-2299.1,-3358.8 L-2294.5,-3363.0 L-2289.4,-3368.9 L-2285.5,-3375.8 L-2282.9,-3382.6 L-2282.3,-3392.5 L-2282.8,-3404.8 L-2287.4,-3560.3 L-2289.1,-3590.4 L-2289.6,-3611.1 L-2290.3,-3651.3 L-2291.1,-3663.9 L-2292.6,-3674.5 L-2294.7,-3683.9 L-2297.8,-3693.5 L-2302.7,-3704.8 L-2309.9,-3716.9 L-2316.9,-3726.5 L-2322.3,-3735.6 L-2327.8,-3747.7 L-2332.4,-3759.3 L-2334.2,-3768.8 L-2335.6,-3779.3 L-2336.3,-3789.8 L-2336.0,-3800.0 L-2334.8,-3811.9 L-2332.0,-3823.6 L-2328.3,-3834.0 L-2324.4,-3843.5 L-2319.4,-3852.7 L-2313.3,-3863.9 L-2309.3,-3874.0 L-2305.8,-3886.9 L-2299.4,-3896.7 L-2301.6,-3985.9 L-2304.9,-3991.1 L-2305.9,-4051.7 L-2307.6,-4123.2 L-2306.4,-4133.1 L-2303.2,-4143.2 L-2295.2,-4159.0 L-2241.7,-4274.1 L-2240.6,-4276.0 L-2231.2,-4296.5 L-2222.3,-4315.9 L-2212.3,-4335.9 L-2202.5,-4356.5 L-2197.7,-4366.5 L-2145.1,-4474.4 L-2088.9,-4593.6 L-1967.3,-4840.4 L-2040.4,-4922.3 L-2100.0,-4795.3 L-2151.5,-4685.4 L-2159.3,-4669.8 L-2175.2,-4637.3 L-2207.0,-4640.0 L-2215.7,-4640.5 L-2218.8,-4637.7 L-2214.6,-4633.9 L-2230.9,-4619.4 L-2243.8,-4607.5 L-2246.2,-4556.6 L-2251.0,-4546.4 L-2266.6,-4547.0 L-2269.2,-4547.9 L-2473.6,-4632.3 L-2478.0,-4634.6 L-2482.7,-4637.6 L-2490.1,-4643.2 L-2495.8,-4648.6 L-2500.6,-4653.8 L-2505.3,-4660.2 L-2508.9,-4665.8 L-2511.7,-4671.6 L-2513.9,-4677.7 L-2515.4,-4681.9 L-2516.5,-4687.0 L-2517.3,-4693.0 L-2518.1,-4701.2 L-2518.1,-4712.9 L-2519.5,-4752.6 L-2513.9,-4752.9 L-2514.7,-4773.9 L-2515.6,-4808.5 L-2510.4,-4808.6 L-2510.8,-4832.2 L-2516.7,-4832.1 L-2519.4,-4931.5 L-2513.8,-4931.8 L-2514.7,-4955.1 L-2520.1,-4954.9 L-2522.4,-5028.4 L-2495.4,-5057.5 L-2460.9,-5058.7 L-2435.2,-5059.6 L-2401.3,-5060.7 L-2368.7,-5061.7 L-2339.5,-5062.7 L-2326.8,-5063.3 L-2327.4,-5074.6 L-2327.6,-5086.4 L-2329.5,-5124.7 L-2330.2,-5197.8 L-2331.2,-5199.1 L-2331.4,-5206.3 L-2329.3,-5206.4 L-2334.4,-5382.5 L-2338.8,-5548.2 L-2339.5,-5553.4 L-2339.9,-5563.0 L-2412.1,-5560.4 L-2460.1,-5564.5 L-2819.4,-5552.0 L-2819.5,-5555.2 L-2820.2,-5570.5 L-2990.6,-5564.5 L-2990.9,-5592.8 L-3013.4,-5597.9 L-3017.4,-5719.0 L-2354.6,-5742.0 L-2343.6,-5757.1 L-2344.0,-5800.1 L-2344.8,-5837.3 L-2345.4,-5860.6 L-2346.3,-5883.3 L-2399.0,-5908.1 L-2401.1,-5963.2 L-2347.1,-5990.0 L-2352.0,-6117.5 L-2353.4,-6123.8 L-2407.1,-6148.9 L-2408.8,-6217.1 L-2357.8,-6243.4 L-2380.5,-6520.3 L-2374.5,-6643.5 L-2371.5,-6844.4 L-2371.7,-7062.9 L-2366.9,-7093.5 L-2366.6,-7108.3 L-2371.4,-7126.1 L-2366.4,-7126.1 L-2366.4,-7142.2 L-2363.4,-7553.2 L-2363.9,-7571.5 L-2369.6,-7571.5 L-2369.4,-7647.1 L-2372.7,-7651.8 L-2377.9,-7729.8 L-2367.6,-7801.1 L-2368.9,-7887.4 L-2372.4,-7908.1 L-2367.1,-7972.0 L-2370.7,-8049.3 L-2379.7,-8132.0 L-2396.8,-8266.0 L-2388.7,-8302.9 L-2392.3,-8338.8 L-2422.9,-8364.9 L-2467.8,-8364.5 L-2536.2,-8355.5 L-2580.7,-8355.5 L-2621.1,-8370.3 L-2674.2,-8406.7 L-2674.2,-8472.0 L-2675.6,-8552.3 L-2670.4,-8619.2 L-2652.8,-8671.4 L-2358.1,-8676.9 L-2351.3,-9094.8 L-2351.3,-9696.4 L-2354.4,-9914.7 L13557.8,-16486.4 L13557.8,19731.8 L-6154.7,19731.8 L-6154.7,1746.3 Z" fill="#add7e1" stroke="none"><title>Biscayne Bay</title></path><path d="M-386.0,-1330.4 L1664.6,-916.4 L3901.5,201.3 L5616.5,1898.4 L6287.6,3554.0 L5467.4,4919.8 L3938.8,5664.7 L2484.8,5623.4 L1291.8,4795.6 L173.3,3388.4 L-1206.2,1774.2 L-1057.1,-129.9 Z" fill="#f1efe7" stroke="#8ab09d" stroke-width="0.65"><title>Virginia Key</title></path><path d="M4184.8,-246.1 L4161.8,-339.1 L4095.4,-414.5 L2555.7,-1340.8 L2177.2,-1314.5 L1577.7,-1053.4 L1138.9,-746.4 L701.5,-265.0 L11.0,863.8 L525.2,1361.5 L641.2,1473.5 L1357.2,2156.5 L1753.2,2539.5 L2021.2,2831.5 L2047.2,2879.5 L2107.2,3167.5 L2037.2,3349.5 L1931.2,3517.5 L1913.2,3563.5 L2767.2,3203.5 L2943.2,2979.5 L3367.2,2361.5 L3523.2,2197.5 L3517.2,1861.5 L3528.1,1485.5 L3528.6,1465.5 L3469.7,1465.5 L3360.7,1469.5 L3299.9,1368.0 L3259.9,1179.5 L3243.2,993.5 L3261.4,899.5 L3235.1,781.5 L3237.7,673.5 L3305.8,627.5 L3398.2,603.5 L3572.0,635.5 L3759.4,549.7 L3819.1,422.8 L3876.9,251.4 L4009.8,121.5 L4160.3,-41.3 L4184.8,-246.1 Z" fill="#c4e7bd" stroke="#9fcf91" stroke-width="0.4"><title>Bill Sadowski Critical Wildlife Area</title></path><path d="M4184.8,-246.1 L4161.8,-339.1 L4095.4,-414.5 L2555.7,-1340.8 L2177.2,-1314.5 L1577.7,-1053.4 L1138.9,-746.4 L701.5,-265.0 L11.0,863.8 L525.2,1361.5 L641.2,1473.5 L1357.2,2156.5 L1753.2,2539.5 L2021.2,2831.5 L2047.2,2879.5 L2107.2,3167.5 L2037.2,3349.5 L1931.2,3517.5 L1913.2,3563.5 L2767.2,3203.5 L2943.2,2979.5 L3367.2,2361.5 L3523.2,2197.5 L3517.2,1861.5 L3528.1,1485.5 L3528.6,1465.5 L3469.7,1465.5 L3360.7,1469.5 L3299.9,1368.0 L3259.9,1179.5 L3243.2,993.5 L3261.4,899.5 L3235.1,781.5 L3237.7,673.5 L3305.8,627.5 L3398.2,603.5 L3572.0,635.5 L3759.4,549.7 L3819.1,422.8 L3876.9,251.4 L4009.8,121.5 L4160.3,-41.3 L4184.8,-246.1 Z" fill="url(#park-dots)" stroke="none"/><path d="M4184.8,-246.1 L4161.8,-339.1 L4095.4,-414.5 L2555.7,-1340.8 L2177.2,-1314.5 L1577.7,-1053.4 L1138.9,-746.4 L701.5,-265.0 L11.0,863.8 L525.2,1361.5 L641.2,1473.5 L1357.2,2156.5 L1753.2,2539.5 L2021.2,2831.5 L2047.2,2879.5 L2107.2,3167.5 L2037.2,3349.5 L1931.2,3517.5 L1913.2,3563.5 L2767.2,3203.5 L2943.2,2979.5 L3367.2,2361.5 L3523.2,2197.5 L3517.2,1861.5 L3528.1,1485.5 L3528.6,1465.5 L3469.7,1465.5 L3360.7,1469.5 L3299.9,1368.0 L3259.9,1179.5 L3243.2,993.5 L3261.4,899.5 L3235.1,781.5 L3237.7,673.5 L3305.8,627.5 L3398.2,603.5 L3572.0,635.5 L3759.4,549.7 L3819.1,422.8 L3876.9,251.4 L4009.8,121.5 L4160.3,-41.3 L4184.8,-246.1 Z" fill="url(#park-canopy)" stroke="none"/><path d="M-480.0,47.7 L-40.0,-368.3" fill="none" stroke="#ecfbff" stroke-width="4.3" stroke-dasharray="6 8" opacity="0.90" stroke-linecap="round" stroke-linejoin="round"/><path d="M-480.0,47.7 L-40.0,-368.3" fill="none" stroke="#388fb3" stroke-width="2.2" stroke-dasharray="5 8" opacity="0.86" stroke-linecap="round" stroke-linejoin="round"><title>Water Taxi Miami - Green</title></path></svg>