<svg xmlns="http://www.w3.org/2000/svg" width="256" height="256" viewBox="0 0 256 256"><defs><pattern id="park-dots" width="22" height="22" patternUnits="userSpaceOnUse"><circle cx="5" cy="5" r="2.1" fill="#63a95d" fill-opacity="0.26"/><circle cx="16" cy="7" r="1.55" fill="#76b970" fill-opacity="0.23"/><circle cx="10" cy="17" r="1.9" fill="#61a65b" fill-opacity="0.24"/><circle cx="21" cy="17" r="1.25" fill="#80c174" fill-opacity="0.18"/><circle cx="1" cy="19" r="1.2" fill="#70b46a" fill-opacity="0.17"/></pattern><pattern id="park-canopy" width="54" height="48" patternUnits="userSpaceOnUse"><circle cx="12" cy="11" r="3.6" fill="#5ea75a" fill-opacity="0.22"/><circle cx="31" cy="15" r="2.9" fill="#75ba6d" fill-opacity="0.18"/><circle cx="45" cy="31" r="3.3" fill="#67ae62" fill-opacity="0.20"/><circle cx="19" cy="39" r="2.5" fill="#83c378" fill-opacity="0.16"/></pattern></defs><rect width="256" height="256" fill="#f1efe7"/><path d="M-6154.7,3282.3 L-5939.9,3193.0 L-5872.7,3160.7 L-5572.2,3016.4 L-5515.8,3071.0 L-5510.9,3075.7 L-5405.5,2985.5 L-5380.4,2966.4 L-5338.5,2928.6 L-5102.4,2711.8 L-4911.9,2494.2 L-4904.6,2480.3 L-4897.6,2472.4 L-4886.5,2459.7 L-4875.2,2446.8 L-4870.6,2441.5 L-4945.7,2344.4 L-4846.3,2284.8 L-4792.4,2356.5 L-4716.2,2269.3 L-4780.7,2183.9 L-4700.8,2100.6 L-4639.3,2181.6 L-4568.7,2101.2 L-4538.6,2081.5 L-4391.4,1986.0 L-4318.7,1937.7 L-4231.1,1880.1 L-4189.7,1852.9 L-4084.8,1785.2 L-4111.8,1749.7 L-4160.1,1685.0 L-4035.2,1605.6 L-3989.7,1582.1 L-3986.2,1579.6 L-3962.2,1561.1 L-3876.6,1515.3 L-3870.7,1506.1 L-3846.7,1489.6 L-3833.7,1470.6 L-3830.0,1467.8 L-3809.1,1459.7 L-3761.9,1442.8 L-3729.6,1428.6 L-3615.5,1375.0 L-3614.1,1378.7 L-3518.4,1337.8 L-3479.3,1387.9 L-3392.2,1329.8 L-3379.8,1321.3 L-3378.6,1320.3 L-3377.4,1318.7 L-3375.5,1315.4 L-3374.5,1312.3 L-3373.9,1308.6 L-3374.0,1305.6 L-3374.4,1302.7 L-3374.8,1299.4 L-3374.9,1296.9 L-3374.7,1294.8 L-3374.3,1292.6 L-3372.7,1288.6 L-3371.6,1286.4 L-3369.1,1282.6 L-3366.5,1279.8 L-3353.8,1274.7 L-3343.2,1270.7 L-3329.7,1266.3 L-3323.4,1264.6 L-3312.2,1260.9 L-3304.3,1258.1 L-3293.4,1253.6 L-3278.6,1247.1 L-3262.6,1239.6 L-3254.0,1235.4 L-3243.2,1229.9 L-3233.1,1224.3 L-3223.0,1218.3 L-3212.7,1211.6 L-3209.5,1209.4 L-3188.8,1193.6 L-3171.4,1180.2 L-3154.4,1165.8 L-3138.5,1150.8 L-3127.0,1137.9 L-3115.6,1124.0 L-3101.6,1106.0 L-3088.8,1088.0 L-3074.1,1064.9 L-3064.5,1047.0 L-3058.5,1035.6 L-3049.6,1016.3 L-3042.1,998.4 L-3035.4,979.1 L-3030.0,962.2 L-3024.1,934.8 L-3019.8,910.3 L-3017.5,889.3 L-3015.5,864.5 L-3015.3,838.0 L-3016.9,813.5 L-3021.1,781.5 L-3025.5,759.7 L-3030.5,739.1 L-3037.9,715.7 L-3044.2,697.8 L-3051.4,678.3 L-3058.2,662.1 L-3062.8,651.6 L-3064.7,643.9 L-3065.0,638.0 L-3064.4,632.7 L-3062.3,628.1 L-3059.1,624.2 L-3054.9,622.0 L-3050.4,621.4 L-3038.3,624.3 L-3004.6,632.4 L-2993.4,377.7 L-2949.7,-76.9 L-2997.2,-88.1 L-3002.4,-102.4 L-3002.2,-122.9 L-2995.6,-169.4 L-2986.6,-179.9 L-2978.6,-210.1 L-2928.1,-198.4 L-2900.3,-488.9 L-2892.6,-569.3 L-2908.3,-573.2 L-2898.8,-611.6 L-2931.1,-619.3 L-2927.0,-642.8 L-2921.3,-658.3 L-2914.2,-676.4 L-2902.2,-701.7 L-2889.3,-698.8 L-2871.9,-881.5 L-2867.8,-992.3 L-2867.0,-1012.7 L-2857.6,-1083.2 L-2838.9,-1258.9 L-2714.1,-1584.3 L-2685.6,-1673.0 L-2338.9,-1806.0 L-2305.0,-1819.6 L-2299.1,-1822.8 L-2294.5,-1827.0 L-2289.4,-1832.9 L-2285.5,-1839.8 L-2282.9,-1846.6 L-2282.3,-1856.5 L-2282.8,-1868.8 L-2287.4,-2024.3 L-2289.1,-2054.4 L-2289.6,-2075.1 L-2290.3,-2115.3 L-2291.1,-2127.9 L-2292.6,-2138.5 L-2294.7,-2147.9 L-2297.8,-2157.5 L-2302.7,-2168.8 L-2309.9,-2180.9 L-2316.9,-2190.5 L-2322.3,-2199.6 L-2327.8,-2211.7 L-2332.4,-2223.3 L-2334.2,-2232.8 L-2335.6,-2243.3 L-2336.3,-2253.8 L-2336.0,-2264.0 L-2334.8,-2275.9 L-2332.0,-2287.6 L-2328.3,-2298.0 L-2324.4,-2307.5 L-2319.4,-2316.7 L-2313.3,-2327.9 L-2309.3,-2338.0 L-2305.8,-2350.9 L-2299.4,-2360.7 L-2301.6,-2449.9 L-2304.9,-2455.1 L-2305.9,-2515.7 L-2307.6,-2587.2 L-2306.4,-2597.1 L-2303.2,-2607.2 L-2295.2,-2623.0 L-2241.7,-2738.1 L-2240.6,-2740.0 L-2231.2,-2760.5 L-2222.3,-2779.9 L-2212.3,-2799.9 L-2202.5,-2820.5 L-2197.7,-2830.5 L-2145.1,-2938.4 L-2088.9,-3057.6 L-1967.3,-3304.4 L-2040.4,-3386.3 L-2100.0,-3259.3 L-2151.5,-3149.4 L-2159.3,-3133.8 L-2175.2,-3101.3 L-2207.0,-3104.0 L-2215.7,-3104.5 L-2218.8,-3101.7 L-2214.6,-3097.9 L-2230.9,-3083.4 L-2243.8,-3071.5 L-2246.2,-3020.6 L-2251.0,-3010.4 L-2266.6,-3011.0 L-2269.2,-3011.9 L-2473.6,-3096.3 L-2478.0,-3098.6 L-2482.7,-3101.6 L-2490.1,-3107.2 L-2495.8,-3112.6 L-2500.6,-3117.8 L-2505.3,-3124.2 L-2508.9,-3129.8 L-2511.7,-3135.6 L-2513.9,-3141.7 L-2515.4,-3145.9 L-2516.5,-3151.0 L-2517.3,-3157.0 L-2518.1,-3165.2 L-2518.1,-3176.9 L-2519.5,-3216.6 L-2513.9,-3216.9 L-2514.7,-3237.9 L-2515.6,-3272.5 L-2510.4,-3272.6 L-2510.8,-3296.2 L-2516.7,-3296.1 L-2519.4,-3395.5 L-2513.8,-3395.8 L-2514.7,-3419.1 L-2520.1,-3418.9 L-2522.4,-3492.4 L-2495.4,-3521.5 L-2460.9,-3522.7 L-2435.2,-3523.6 L-2401.3,-3524.7 L-2368.7,-3525.7 L-2339.5,-3526.7 L-2326.8,-3527.3 L-2327.4,-3538.6 L-2327.6,-3550.4 L-2329.5,-3588.7 L-2330.2,-3661.8 L-2331.2,-3663.1 L-2331.4,-3670.3 L-2329.3,-3670.4 L-2334.4,-3846.5 L-2338.8,-4012.2 L-2339.5,-4017.4 L-2339.9,-4027.0 L-2412.1,-4024.4 L-2460.1,-4028.5 L-2819.4,-4016.0 L-2819.5,-4019.2 L-2820.2,-4034.5 L-2990.6,-4028.5 L-2990.9,-4056.8 L-3013.4,-4061.9 L-3017.4,-4183.0 L-2354.6,-4206.0 L-2343.6,-4221.1 L-2344.0,-4264.1 L-2344.8,-4301.3 L-2345.4,-4324.6 L-2346.3,-4347.3 L-2399.0,-4372.1 L-2401.1,-4427.2 L-2347.1,-4454.0 L-2352.0,-4581.5 L-2353.4,-4587.8 L-2407.1,-4612.9 L-2408.8,-4681.1 L-2357.8,-4707.4 L-2380.5,-4984.3 L-2374.5,-5107.5 L-2371.5,-5308.4 L-2371.7,-5526.9 L-2366.9,-5557.5 L-2366.6,-5572.3 L-2371.4,-5590.1 L-2366.4,-5590.1 L-2366.4,-5606.2 L-2363.4,-6017.2 L-2363.9,-6035.5 L-2369.6,-6035.5 L-2369.4,-6111.1 L-2372.7,-6115.8 L-2377.9,-6193.8 L-2367.6,-6265.1 L-2368.9,-6351.4 L-2372.4,-6372.1 L-2367.1,-6436.0 L-2370.7,-6513.3 L-2379.7,-6596.0 L-2396.8,-6730.0 L-2388.7,-6766.9 L-2392.3,-6802.8 L-2422.9,-6828.9 L-2467.8,-6828.5 L-2536.2,-6819.5 L-2580.7,-6819.5 L-2621.1,-6834.3 L-2674.2,-6870.7 L-2674.2,-6936.0 L-2675.6,-7016.3 L-2670.4,-7083.2 L-2652.8,-7135.4 L-2358.1,-7140.9 L-2351.3,-7558.8 L-2351.3,-8160.4 L-2354.4,-8378.7 L13557.8,-14950.4 L13557.8,21267.8 L-6154.7,21267.8 L-6154.7,3282.3 Z" fill="#add7e1" stroke="none"><title>Biscayne Bay</title></path><path d="M-386.0,205.6 L1664.6,619.6 L3901.5,1737.3 L5616.5,3434.4 L6287.6,5090.0 L5467.4,6455.8 L3938.8,7200.7 L2484.8,7159.4 L1291.8,6331.6 L173.3,4924.4 L-1206.2,3310.2 L-1057.1,1406.1 Z" fill="#f1efe7" stroke="#8ab09d" stroke-width="0.65"><title>Virginia Key</title></path><path d="M4184.8,1289.9 L4161.8,1196.9 L4095.4,1121.5 L2555.7,195.2 L2177.2,221.5 L1577.7,482.6 L1138.9,789.6 L701.5,1271.0 L11.0,2399.8 L525.2,2897.5 L641.2,3009.5 L1357.2,3692.5 L1753.2,4075.5 L2021.2,4367.5 L2047.2,4415.5 L2107.2,4703.5 L2037.2,4885.5 L1931.2,5053.5 L1913.2,5099.5 L2767.2,4739.5 L2943.2,4515.5 L3367.2,3897.5 L3523.2,3733.5 L3517.2,3397.5 L3528.1,3021.5 L3528.6,3001.5 L3469.7,3001.5 L3360.7,3005.5 L3299.9,2904.0 L3259.9,2715.5 L3243.2,2529.5 L3261.4,2435.5 L3235.1,2317.5 L3237.7,2209.5 L3305.8,2163.5 L3398.2,2139.5 L3572.0,2171.5 L3759.4,2085.7 L3819.1,1958.8 L3876.9,1787.4 L4009.8,1657.5 L4160.3,1494.7 L4184.8,1289.9 Z" fill="#c4e7bd" stroke="#9fcf91" stroke-width="0.4"><title>Bill Sadowski Critical Wildlife Area</title></path><path d="M4184.8,1289.9 L4161.8,1196.9 L4095.4,1121.5 L2555.7,195.2 L2177.2,221.5 L1577.7,482.6 L1138.9,789.6 L701.5,1271.0 L11.0,2399.8 L525.2,2897.5 L641.2,3009.5 L1357.2,3692.5 L1753.2,4075.5 L2021.2,4367.5 L2047.2,4415.5 L2107.2,4703.5 L2037.2,4885.5 L1931.2,5053.5 L1913.2,5099.5 L2767.2,4739.5 L2943.2,4515.5 L3367.2,3897.5 L3523.2,3733.5 L3517.2,3397.5 L3528.1,3021.5 L3528.6,3001.5 L3469.7,3001.5 L3360.7,3005.5 L3299.9,2904.0 L3259.9,2715.5 L3243.2,2529.5 L3261.4,2435.5 L3235.1,2317.5 L3237.7,2209.5 L3305.8,2163.5 L3398.2,2139.5 L3572.0,2171.5 L3759.4,2085.7 L3819.1,1958.8 L3876.9,1787.4 L4009.8,1657.5 L4160.3,1494.7 L4184.8,1289.9 Z" fill="url(#park-dots)" stroke="none"/><path d="M4184.8,1289.9 L4161.8,1196.9 L4095.4,1121.5 L2555.7,195.2 L2177.2,221.5 L1577.7,482.6 L1138.9,789.6 L701.5,1271.0 L11.0,2399.8 L525.2,2897.5 L641.2,3009.5 L1357.2,3692.5 L1753.2,4075.5 L2021.2,4367.5 L2047.2,4415.5 L2107.2,4703.5 L2037.2,4885.5 L1931.2,5053.5 L1913.2,5099.5 L2767.2,4739.5 L2943.2,4515.5 L3367.2,3897.5 L3523.2,3733.5 L3517.2,3397.5 L3528.1,3021.5 L3528.6,3001.5 L3469.7,3001.5 L3360.7,3005.5 L3299.9,2904.0 L3259.9,2715.5 L3243.2,2529.5 L3261.4,2435.5 L3235.1,2317.5 L3237.7,2209.5 L3305.8,2163.5 L3398.2,2139.5 L3572.0,2171.5 L3759.4,2085.7 L3819.1,1958.8 L3876.9,1787.4 L4009.8,1657.5 L4160.3,1494.7 L4184.8,1289.9 Z" fill="url(#park-canopy)" stroke="none"/><path d="M-1.0,-1.0 L257.0,-1.0 L257.0,257.0 L-1.0,257.0 L-1.0,-1.0 Z" fill="#add7e1" stroke="none" fill-rule="evenodd"><title>Biscayne Bay</title></path></svg>