<svg xmlns="http://www.w3.org/2000/svg" width="256" height="256" viewBox="0 0 256 256"><rect width="256" height="256" fill="#f1efe7"/><path d="M-6154.7,-3117.7 L-5939.9,-3207.0 L-5872.7,-3239.3 L-5572.2,-3383.6 L-5515.8,-3329.0 L-5510.9,-3324.3 L-5405.5,-3414.5 L-5380.4,-3433.6 L-5338.5,-3471.4 L-5102.4,-3688.2 L-4911.9,-3905.8 L-4904.6,-3919.7 L-4897.6,-3927.6 L-4886.5,-3940.3 L-4875.2,-3953.2 L-4870.6,-3958.5 L-4945.7,-4055.6 L-4846.3,-4115.2 L-4792.4,-4043.5 L-4716.2,-4130.7 L-4780.7,-4216.1 L-4700.8,-4299.4 L-4639.3,-4218.4 L-4568.7,-4298.8 L-4538.6,-4318.5 L-4391.4,-4414.0 L-4318.7,-4462.3 L-4231.1,-4519.9 L-4189.7,-4547.1 L-4084.8,-4614.8 L-4111.8,-4650.3 L-4160.1,-4715.0 L-4035.2,-4794.4 L-3989.7,-4817.9 L-3986.2,-4820.4 L-3962.2,-4838.9 L-3876.6,-4884.7 L-3870.7,-4893.9 L-3846.7,-4910.4 L-3833.7,-4929.4 L-3830.0,-4932.2 L-3809.1,-4940.3 L-3761.9,-4957.2 L-3729.6,-4971.4 L-3615.5,-5025.0 L-3614.1,-5021.3 L-3518.4,-5062.2 L-3479.3,-5012.1 L-3392.2,-5070.2 L-3379.8,-5078.7 L-3378.6,-5079.7 L-3377.4,-5081.3 L-3375.5,-5084.6 L-3374.5,-5087.7 L-3373.9,-5091.4 L-3374.0,-5094.4 L-3374.4,-5097.3 L-3374.8,-5100.6 L-3374.9,-5103.1 L-3374.7,-5105.2 L-3374.3,-5107.4 L-3372.7,-5111.4 L-3371.6,-5113.6 L-3369.1,-5117.4 L-3366.5,-5120.2 L-3353.8,-5125.3 L-3343.2,-5129.3 L-3329.7,-5133.7 L-3323.4,-5135.4 L-3312.2,-5139.1 L-3304.3,-5141.9 L-3293.4,-5146.4 L-3278.6,-5152.9 L-3262.6,-5160.4 L-3254.0,-5164.6 L-3243.2,-5170.1 L-3233.1,-5175.7 L-3223.0,-5181.7 L-3212.7,-5188.4 L-3209.5,-5190.6 L-3188.8,-5206.4 L-3171.4,-5219.8 L-3154.4,-5234.2 L-3138.5,-5249.2 L-3127.0,-5262.1 L-3115.6,-5276.0 L-3101.6,-5294.0 L-3088.8,-5312.0 L-3074.1,-5335.1 L-3064.5,-5353.0 L-3058.5,-5364.4 L-3049.6,-5383.7 L-3042.1,-5401.6 L-3035.4,-5420.9 L-3030.0,-5437.8 L-3024.1,-5465.2 L-3019.8,-5489.7 L-3017.5,-5510.7 L-3015.5,-5535.5 L-3015.3,-5562.0 L-3016.9,-5586.5 L-3021.1,-5618.5 L-3025.5,-5640.3 L-3030.5,-5660.9 L-3037.9,-5684.3 L-3044.2,-5702.2 L-3051.4,-5721.7 L-3058.2,-5737.9 L-3062.8,-5748.4 L-3064.7,-5756.1 L-3065.0,-5762.0 L-3064.4,-5767.3 L-3062.3,-5771.9 L-3059.1,-5775.8 L-3054.9,-5778.0 L-3050.4,-5778.6 L-3038.3,-5775.7 L-3004.6,-5767.6 L-2993.4,-6022.3 L-2949.7,-6476.9 L-2997.2,-6488.1 L-3002.4,-6502.4 L-3002.2,-6522.9 L-2995.6,-6569.4 L-2986.6,-6579.9 L-2978.6,-6610.1 L-2928.1,-6598.4 L-2900.3,-6888.9 L-2892.6,-6969.3 L-2908.3,-6973.2 L-2898.8,-7011.6 L-2931.1,-7019.3 L-2927.0,-7042.8 L-2921.3,-7058.3 L-2914.2,-7076.4 L-2902.2,-7101.7 L-2889.3,-7098.8 L-2871.9,-7281.5 L-2867.8,-7392.3 L-2867.0,-7412.7 L-2857.6,-7483.2 L-2838.9,-7658.9 L-2714.1,-7984.3 L-2685.6,-8073.0 L-2338.9,-8206.0 L-2305.0,-8219.6 L-2299.1,-8222.8 L-2294.5,-8227.0 L-2289.4,-8232.9 L-2285.5,-8239.8 L-2282.9,-8246.6 L-2282.3,-8256.5 L-2282.8,-8268.8 L-2287.4,-8424.3 L-2289.1,-8454.4 L-2289.6,-8475.1 L-2290.3,-8515.3 L-2291.1,-8527.9 L-2292.6,-8538.5 L-2294.7,-8547.9 L-2297.8,-8557.5 L-2302.7,-8568.8 L-2309.9,-8580.9 L-2316.9,-8590.5 L-2322.3,-8599.6 L-2327.8,-8611.7 L-2332.4,-8623.3 L-2334.2,-8632.8 L-2335.6,-8643.3 L-2336.3,-8653.8 L-2336.0,-8664.0 L-2334.8,-8675.9 L-2332.0,-8687.6 L-2328.3,-8698.0 L-2324.4,-8707.5 L-2319.4,-8716.7 L-2313.3,-8727.9 L-2309.3,-8738.0 L-2305.8,-8750.9 L-2299.4,-8760.7 L-2301.6,-8849.9 L-2304.9,-8855.1 L-2305.9,-8915.7 L-2307.6,-8987.2 L-2306.4,-8997.1 L-2303.2,-9007.2 L-2295.2,-9023.0 L-2241.7,-9138.1 L-2240.6,-9140.0 L-2231.2,-9160.5 L-2222.3,-9179.9 L-2212.3,-9199.9 L-2202.5,-9220.5 L-2197.7,-9230.5 L-2145.1,-9338.4 L-2088.9,-9457.6 L-1967.3,-9704.4 L-2040.4,-9786.3 L-2100.0,-9659.3 L-2151.5,-9549.4 L-2159.3,-9533.8 L-2175.2,-9501.3 L-2207.0,-9504.0 L-2215.7,-9504.5 L-2218.8,-9501.7 L-2214.6,-9497.9 L-2230.9,-9483.4 L-2243.8,-9471.5 L-2246.2,-9420.6 L-2251.0,-9410.4 L-2266.6,-9411.0 L-2269.2,-9411.9 L-2473.6,-9496.3 L-2478.0,-9498.6 L-2482.7,-9501.6 L-2490.1,-9507.2 L-2495.8,-9512.6 L-2500.6,-9517.8 L-2505.3,-9524.2 L-2508.9,-9529.8 L-2511.7,-9535.6 L-2513.9,-9541.7 L-2515.4,-9545.9 L-2516.5,-9551.0 L-2517.3,-9557.0 L-2518.1,-9565.2 L-2518.1,-9576.9 L-2519.5,-9616.6 L-2513.9,-9616.9 L-2514.7,-9637.9 L-2515.6,-9672.5 L-2510.4,-9672.6 L-2510.8,-9696.2 L-2516.7,-9696.1 L-2519.4,-9795.5 L-2513.8,-9795.8 L-2514.7,-9819.1 L-2520.1,-9818.9 L-2522.4,-9892.4 L-2495.4,-9921.5 L-2460.9,-9922.7 L-2435.2,-9923.6 L-2401.3,-9924.7 L-2368.7,-9925.7 L-2339.5,-9926.7 L-2326.8,-9927.3 L-2327.4,-9938.6 L-2327.6,-9950.4 L-2329.5,-9988.7 L-2330.2,-10061.8 L-2331.2,-10063.1 L-2331.4,-10070.3 L-2329.3,-10070.4 L-2334.4,-10246.5 L-2338.8,-10412.2 L-2339.5,-10417.4 L-2339.9,-10427.0 L-2412.1,-10424.4 L-2460.1,-10428.5 L-2819.4,-10416.0 L-2819.5,-10419.2 L-2820.2,-10434.5 L-2990.6,-10428.5 L-2990.9,-10456.8 L-3013.4,-10461.9 L-3017.4,-10583.0 L-2354.6,-10606.0 L-2343.6,-10621.1 L-2344.0,-10664.1 L-2344.8,-10701.3 L-2345.4,-10724.6 L-2346.3,-10747.3 L-2399.0,-10772.1 L-2401.1,-10827.2 L-2347.1,-10854.0 L-2352.0,-10981.5 L-2353.4,-10987.8 L-2407.1,-11012.9 L-2408.8,-11081.1 L-2357.8,-11107.4 L-2380.5,-11384.3 L-2374.5,-11507.5 L-2371.5,-11708.4 L-2371.7,-11926.9 L-2366.9,-11957.5 L-2366.6,-11972.3 L-2371.4,-11990.1 L-2366.4,-11990.1 L-2366.4,-12006.2 L-2363.4,-12417.2 L-2363.9,-12435.5 L-2369.6,-12435.5 L-2369.4,-12511.1 L-2372.7,-12515.8 L-2377.9,-12593.8 L-2367.6,-12665.1 L-2368.9,-12751.4 L-2372.4,-12772.1 L-2367.1,-12836.0 L-2370.7,-12913.3 L-2379.7,-12996.0 L-2396.8,-13130.0 L-2388.7,-13166.9 L-2392.3,-13202.8 L-2422.9,-13228.9 L-2467.8,-13228.5 L-2536.2,-13219.5 L-2580.7,-13219.5 L-2621.1,-13234.3 L-2674.2,-13270.7 L-2674.2,-13336.0 L-2675.6,-13416.3 L-2670.4,-13483.2 L-2652.8,-13535.4 L-2358.1,-13540.9 L-2351.3,-13958.8 L-2351.3,-14560.4 L-2354.4,-14778.7 L13557.8,-21350.4 L13557.8,14867.8 L-6154.7,14867.8 L-6154.7,-3117.7 Z" fill="#add7e1" stroke="none"><title>Biscayne Bay</title></path><path d="M-13546.8,6167.5 L-14091.0,5765.8 L-14134.5,5733.8 L-14181.7,5723.5 L-14215.0,5695.5 L-14241.6,5692.4 L-14327.6,5698.1 L-14327.5,5690.0 L-14332.3,5682.4 L-14341.9,5676.5 L-14528.7,5595.6 L-14541.4,5589.8 L-14552.5,5586.6 L-14566.3,5585.5 L-14580.2,5585.2 L-14626.6,5585.2 L-14638.9,5584.5 L-14651.0,5582.1 L-14663.8,5577.1 L-14679.2,5573.0 L-14690.4,5572.0 L-14723.3,5570.6 L-14734.3,5568.6 L-14748.3,5564.1 L-14762.0,5560.6 L-14775.3,5557.5 L-14785.7,5553.3 L-14798.3,5545.5 L-14809.5,5537.1 L-14820.4,5528.9 L-14829.3,5524.7 L-14836.1,5523.3 L-14842.2,5523.7 L-14848.7,5525.5 L-14856.3,5529.4 L-14862.3,5536.0 L-14870.4,5543.9 L-14879.4,5552.2 L-14889.6,5557.8 L-14902.5,5562.0 L-14913.2,5564.6 L-14926.1,5566.6 L-14947.7,5569.1 L-15001.9,5571.7 L-15047.9,5574.0 L-15067.7,5581.1 L-15108.3,5582.5 L-15113.8,5574.0 L-15119.9,5570.1 L-15126.2,5568.9 L-15170.0,5571.4 L-15189.0,5578.2 L-15212.3,5578.4 L-15228.0,5576.1 L-15240.9,5572.2 L-15288.0,5575.0 L-15412.6,5584.7 L-15441.3,5585.5 L-15451.1,5585.3 L-15459.9,5583.1 L-15470.1,5578.0 L-15477.6,5572.0 L-15510.0,5572.1 L-15537.1,5571.7 L-15544.4,5576.2 L-15581.7,5577.1 L-15586.5,5585.0 L-15591.8,5585.2 L-15601.0,5583.0 L-15617.5,5581.0 L-15634.5,5581.9 L-15639.7,5583.5 L-15645.0,5582.6 L-15648.6,5579.1 L-15654.7,5575.6 L-15677.4,5575.7 L-15700.3,5576.9 L-15722.0,5589.7 L-15732.7,5594.8 L-15744.9,5597.5 L-15755.0,5598.2 L-15764.1,5596.8 L-15785.1,5587.8 L-15797.1,5584.0 L-15807.3,5582.5 L-15852.0,5583.1 L-15854.8,5577.7 L-15894.3,5578.6 L-15921.5,5583.6 L-15939.4,5585.7 L-15949.0,5587.8 L-15952.7,5585.3 L-15959.5,5584.4 L-16023.2,5578.6 L-16028.7,5581.6 L-16035.4,5583.0 L-16044.2,5583.1 L-16044.2,5579.9 L-16083.7,5572.5 L-16108.6,5567.7 L-16168.8,5547.5 L-16172.1,5552.0 L-16212.3,5539.6 L-16220.7,5536.8 L-16216.6,5522.8 L-16221.4,5521.3 L-16222.4,5519.8 L-16225.0,5519.0 L-16228.6,5518.5 L-16233.0,5516.3 L-16231.5,5515.0 L-16249.3,5500.5 L-16278.9,5473.7 L-16294.8,5459.7 L-16306.1,5447.4 L-16312.4,5439.1 L-16321.8,5426.3 L-16327.2,5416.4 L-16344.0,5395.3 L-16345.6,5394.1 L-16346.7,5394.0 L-16347.9,5394.2 L-16350.1,5394.3 L-16352.1,5393.3 L-16356.3,5390.6 L-16364.9,5386.1 L-16369.1,5382.5 L-16374.0,5378.2 L-16380.7,5374.6 L-16391.2,5371.3 L-16402.3,5369.3 L-16411.8,5369.1 L-16409.1,5343.9 L-16406.9,5311.0 L-16396.6,5312.0 L-16386.3,5313.8 L-16372.8,5317.8 L-16362.9,5321.5 L-16354.0,5325.6 L-16345.4,5329.6 L-16337.3,5334.2 L-16330.7,5339.3 L-16321.9,5346.1 L-16312.7,5353.0 L-16310.6,5354.3 L-16308.7,5354.7 L-16283.5,5353.6 L-16283.2,5359.3 L-16284.7,5361.8 L-16303.6,5363.6 L-16298.8,5373.4 L-16295.5,5372.2 L-16292.5,5375.2 L-16290.6,5378.1 L-16289.0,5380.3 L-16285.1,5385.5 L-16283.6,5391.2 L-16277.5,5399.6 L-16263.1,5408.7 L-16245.2,5417.8 L-16223.8,5431.3 L-16214.0,5435.9 L-16193.4,5447.6 L-16183.7,5452.7 L-16166.0,5459.2 L-16131.2,5468.5 L-16110.8,5473.4 L-16092.2,5475.3 L-16082.3,5476.6 L-16080.1,5476.4 L-16079.2,5475.1 L-16078.9,5468.5 L-16055.8,5468.5 L-16055.3,5475.9 L-16006.9,5478.4 L-15959.7,5479.8 L-15927.6,5478.6 L-15917.0,5477.8 L-15909.3,5476.8 L-15903.0,5475.0 L-15897.2,5471.5 L-15894.3,5466.8 L-15895.4,5389.3 L-15875.9,5388.2 L-15874.2,5463.8 L-15873.1,5465.7 L-15869.2,5468.4 L-15864.7,5469.7 L-15761.3,5469.9 L-15761.8,5436.6 L-15753.7,5436.4 L-15750.3,5469.9 L-15686.5,5469.3 L-15686.5,5465.7 L-15680.2,5465.6 L-15680.0,5468.2 L-15254.5,5460.1 L-15223.7,5456.5 L-15186.1,5455.4 L-15150.5,5460.1 L-15138.6,5459.1 L-15129.9,5457.4 L-15121.8,5454.5 L-15111.3,5450.5 L-14897.4,5446.7 L-14897.5,5431.9 L-14777.8,5429.8 L-14777.7,5446.1 L-14726.9,5447.9 L-14723.0,5447.8 L-14719.4,5447.5 L-14714.7,5446.9 L-14710.9,5445.9 L-14707.2,5444.7 L-14700.9,5441.7 L-14698.0,5446.7 L-14691.8,5442.8 L-14686.1,5438.2 L-14681.3,5433.2 L-14677.1,5427.3 L-14673.2,5420.0 L-14680.5,5415.9 L-14678.5,5409.8 L-14677.2,5403.5 L-14676.5,5397.5 L-14676.4,5392.8 L-14676.6,5388.4 L-14677.3,5350.5 L-14683.4,5344.9 L-14678.2,5339.4 L-14683.5,5334.8 L-14677.5,5327.7 L-14684.0,5322.0 L-14678.8,5316.5 L-14684.0,5311.5 L-14677.9,5305.0 L-14684.2,5298.6 L-14671.1,5284.2 L-14668.8,5284.1 L-14674.5,5069.6 L-14626.4,5068.5 L-14624.1,5069.7 L-14621.5,5071.7 L-14619.6,5073.4 L-14618.8,5075.4 L-14618.1,5077.8 L-14617.9,5080.2 L-14613.8,5413.5 L-14611.9,5424.3 L-14609.2,5431.6 L-14605.0,5440.6 L-14600.1,5449.4 L-14595.0,5456.4 L-14590.9,5460.7 L-14586.5,5464.1 L-14581.4,5467.1 L-14576.1,5469.1 L-14568.9,5471.2 L-14560.0,5472.9 L-14549.2,5474.9 L-14536.6,5477.2 L-14524.6,5479.8 L-14511.3,5482.2 L-14498.7,5484.9 L-14494.7,5485.7 L-14489.8,5486.7 L-14485.0,5487.3 L-14480.8,5487.4 L-14476.0,5487.4 L-14472.3,5487.2 L-14468.6,5486.5 L-14465.4,5485.7 L-14462.0,5484.7 L-14459.1,5483.4 L-14453.3,5480.6 L-14448.2,5477.6 L-14443.1,5473.9 L-14437.2,5468.2 L-14431.7,5462.0 L-14428.7,5456.7 L-14426.0,5450.2 L-14424.6,5444.9 L-14423.8,5439.2 L-14423.3,5433.8 L-14423.3,5428.8 L-14430.6,5071.6 L-14420.2,5060.9 L-14416.4,5060.5 L-14414.9,5059.1 L-14393.2,5058.5 L-14391.3,5055.3 L-14388.0,5056.2 L-14382.5,5061.3 L-14378.7,5066.6 L-14374.9,5073.2 L-14367.7,5472.4 L-14367.0,5479.4 L-14365.7,5493.3 L-14364.4,5496.1 L-14365.4,5496.8 L-14363.6,5500.7 L-14361.3,5505.3 L-14359.3,5508.2 L-14356.9,5511.7 L-14353.6,5515.5 L-14349.7,5519.5 L-14345.0,5523.5 L-14340.8,5526.6 L-14336.2,5529.1 L-14331.8,5531.3 L-14327.1,5532.8 L-14326.5,5531.4 L-14260.3,5555.4 L-14252.0,5558.5 L-14248.2,5559.9 L-14242.3,5562.0 L-14238.0,5563.0 L-14234.3,5563.5 L-14230.9,5563.5 L-14226.1,5563.1 L-14220.9,5562.6 L-14216.3,5561.6 L-14211.6,5560.3 L-14208.1,5558.9 L-14204.4,5557.2 L-14201.4,5555.3 L-14197.6,5552.5 L-14192.8,5548.3 L-14188.4,5544.0 L-14183.6,5538.0 L-14180.2,5532.4 L-14177.4,5526.2 L-14175.4,5519.3 L-14174.2,5512.3 L-14173.5,5499.8 L-14173.8,5474.3 L-14181.1,5068.2 L-14181.1,5063.7 L-14180.3,5060.5 L-14178.9,5057.9 L-14176.0,5055.5 L-14172.7,5053.8 L-14169.0,5053.2 L-14138.9,5052.2 L-14135.3,5052.8 L-14132.1,5054.2 L-14129.8,5056.4 L-14127.2,5060.2 L-14125.7,5065.6 L-14124.8,5072.9 L-14117.3,5593.8 L-14116.9,5596.9 L-14116.3,5600.0 L-14115.4,5603.2 L-14114.3,5606.7 L-14113.1,5610.2 L-14111.7,5613.4 L-14110.5,5616.1 L-14109.2,5618.5 L-14107.3,5621.5 L-14105.2,5624.1 L-14103.3,5626.5 L-14100.4,5629.6 L-14097.6,5632.3 L-14094.5,5634.8 L-14091.2,5637.3 L-14082.0,5643.1 L-14081.1,5642.0 L-14073.0,5646.5 L-14063.4,5651.7 L-14057.9,5654.7 L-14051.8,5658.3 L-14045.5,5662.0 L-14039.0,5666.0 L-14031.7,5670.5 L-14024.5,5675.0 L-14017.3,5679.3 L-14011.3,5683.0 L-14004.6,5687.3 L-13997.5,5691.9 L-13990.7,5696.4 L-13984.4,5700.7 L-13985.1,5701.6 L-13976.3,5707.7 L-13967.2,5713.8 L-13964.4,5715.5 L-13961.3,5717.2 L-13956.9,5719.3 L-13952.8,5720.8 L-13948.4,5722.0 L-13944.5,5723.0 L-13939.9,5723.7 L-13934.8,5724.3 L-13930.4,5724.3 L-13926.7,5724.0 L-13923.5,5723.3 L-13919.4,5722.2 L-13915.3,5720.9 L-13911.5,5719.6 L-13908.0,5717.9 L-13904.4,5716.0 L-13900.9,5713.8 L-13897.3,5711.0 L-13894.1,5708.1 L-13891.0,5705.0 L-13888.1,5701.8 L-13885.1,5697.4 L-13882.6,5693.0 L-13880.2,5688.1 L-13878.8,5684.3 L-13877.7,5680.3 L-13876.9,5676.0 L-13876.5,5671.7 L-13876.8,5666.8 L-13936.1,5099.1 L-13932.0,5098.7 L-13935.3,5070.3 L-13938.3,5070.5 L-13940.7,5057.4 L-13939.9,5054.7 L-13937.4,5050.7 L-13932.3,5046.8 L-13925.6,5046.0 L-13898.7,5045.1 L-13894.2,5046.0 L-13891.1,5047.5 L-13887.8,5050.1 L-13885.5,5052.5 L-13883.9,5055.0 L-13818.9,5691.9 L-13817.4,5697.4 L-13814.6,5704.2 L-13812.2,5708.6 L-13809.6,5713.3 L-13806.2,5717.9 L-13803.4,5721.1 L-13800.3,5724.3 L-13796.9,5727.0 L-13793.9,5729.1 L-13789.7,5731.8 L-13786.0,5733.7 L-13781.1,5735.8 L-13776.5,5737.2 L-13771.3,5738.3 L-13767.3,5738.9 L-13763.8,5739.0 L-13759.7,5739.1 L-13618.5,5736.2 L-13613.9,5735.6 L-13609.5,5733.5 L-13606.3,5730.6 L-13604.1,5726.2 L-13603.3,5722.2 L-13603.5,5718.2 L-13675.0,5036.1 L-13738.0,4953.9 L-13740.8,4956.2 L-13795.6,4879.7 L-13796.6,4863.5 L-13798.3,4860.1 L-13801.2,4857.0 L-13804.9,4851.8 L-13805.2,4844.2 L-13811.7,4841.7 L-13818.0,4841.6 L-13826.5,4845.8 L-13816.9,4863.8 L-13829.0,4869.6 L-13838.1,4861.2 L-13845.9,4856.4 L-13851.2,4854.6 L-13864.2,4854.1 L-13870.8,4840.7 L-13829.3,4823.7 L-13831.3,4820.3 L-13840.1,4808.5 L-13841.5,4809.2 L-14150.4,4404.7 L-14155.1,4338.0 L-14152.6,4337.4 L-14164.5,4215.1 L-14169.1,4203.8 L-14174.1,4191.1 L-14177.9,4181.3 L-14182.5,4168.8 L-14197.5,4126.7 L-14203.6,4129.4 L-14212.5,4095.3 L-14211.0,4095.0 L-14242.1,4010.7 L-14245.5,3863.3 L-14241.9,3863.3 L-14241.4,3850.4 L-14239.6,3837.7 L-14238.9,3833.0 L-14240.2,3829.2 L-14236.0,3809.1 L-14197.7,3741.3 L-14217.8,3729.1 L-14202.9,3704.4 L-14183.5,3715.8 L-14181.8,3713.2 L-14175.7,3716.3 L-14169.1,3718.9 L-14161.5,3721.3 L-14155.8,3722.5 L-14150.4,3722.7 L-14144.0,3721.6 L-14137.7,3719.5 L-14131.5,3717.1 L-14128.6,3714.0 L-14127.5,3709.9 L-14126.0,3705.0 L-14125.7,3703.0 L-14125.8,3700.5 L-14127.2,3696.6 L-14129.8,3692.9 L-14132.8,3690.8 L-14137.2,3686.6 L-14141.0,3682.6 L-14146.6,3679.0 L-14148.9,3673.3 L-14151.6,3667.6 L-14155.9,3660.9 L-14160.8,3655.1 L-14169.8,3648.7 L-14213.4,3626.1 L-14239.2,3613.3 L-14263.3,3600.3 L-14286.2,3587.6 L-14301.0,3578.0 L-14306.7,3576.5 L-14313.0,3578.4 L-14316.5,3582.7 L-14323.6,3600.4 L-14367.7,3580.6 L-14341.3,3538.9 L-14335.5,3536.2 L-14328.4,3534.8 L-14320.1,3536.6 L-14154.4,3633.5 L-14145.4,3636.2 L-14136.0,3638.5 L-14122.7,3638.8 L-14109.2,3636.4 L-14100.6,3632.9 L-14091.2,3625.3 L-14085.7,3620.0 L-14079.8,3611.7 L-14079.9,3610.6 L-14080.3,3609.6 L-14081.2,3608.8 L-14134.8,3575.7 L-14136.1,3575.3 L-14137.5,3575.2 L-14138.9,3575.3 L-14144.0,3577.5 L-14145.9,3577.7 L-14148.0,3577.5 L-14151.1,3577.0 L-14153.5,3576.3 L-14156.9,3574.6 L-14160.2,3572.7 L-14233.9,3527.7 L-14268.6,3503.3 L-14271.9,3502.8 L-14275.2,3502.9 L-14279.1,3503.0 L-14281.7,3502.6 L-14283.9,3501.6 L-14286.5,3499.6 L-14289.4,3497.3 L-14291.4,3494.5 L-14292.6,3491.7 L-14292.8,3489.6 L-14292.5,3486.9 L-14292.0,3484.6 L-14280.2,3464.8 L-14280.2,3463.9 L-14281.1,3463.2 L-14291.9,3455.6 L-14294.0,3452.5 L-14292.8,3450.6 L-14289.3,3451.1 L-14285.5,3452.2 L-14263.3,3465.9 L-14137.5,3546.2 L-14134.9,3547.7 L-14133.1,3549.6 L-14131.9,3551.8 L-14130.6,3556.4 L-14129.7,3560.0 L-14129.2,3563.1 L-14072.4,3597.2 L-14070.4,3598.1 L-14068.0,3598.3 L-14065.2,3597.9 L-14063.2,3597.2 L-14061.5,3596.4 L-14000.4,3497.5 L-13974.8,3459.9 L-13950.9,3433.0 L-13938.8,3439.7 L-13931.0,3427.1 L-13972.5,3402.3 L-13963.7,3387.9 L-13922.2,3412.9 L-13912.9,3397.7 L-13920.4,3389.3 L-13912.8,3380.6 L-13904.6,3390.0 L-13902.6,3388.5 L-13900.3,3386.9 L-13897.1,3385.1 L-13893.8,3383.5 L-13889.7,3382.0 L-13885.8,3380.9 L-13881.6,3380.2 L-13877.4,3379.9 L-13873.4,3380.0 L-13869.5,3380.6 L-13865.8,3381.5 L-13862.7,3382.4 L-13860.0,3383.6 L-13856.2,3385.4 L-13852.7,3387.6 L-13849.7,3389.7 L-13846.7,3392.4 L-13844.0,3395.0 L-13841.0,3398.9 L-13838.9,3402.4 L-13836.8,3406.9 L-13835.4,3411.4 L-13834.2,3417.6 L-13833.8,3423.0 L-13833.9,3426.1 L-13834.3,3429.3 L-13835.4,3434.1 L-13838.2,3440.7 L-13840.0,3445.0 L-13842.5,3450.1 L-13832.1,3455.3 L-13783.5,3397.3 L-13872.0,3343.5 L-13867.5,3333.9 L-13864.3,3325.0 L-13864.1,3321.2 L-13859.0,3310.3 L-13848.5,3300.6 L-13835.5,3290.0 L-13820.0,3280.1 L-13790.9,3271.6 L-13740.7,3266.6 L-13720.9,3250.6 L-13716.8,3249.9 L-13713.5,3249.7 L-13708.8,3251.5 L-13704.5,3252.0 L-13676.6,3268.9 L-13603.2,3181.8 L-13872.2,3010.8 L-13888.9,3037.1 L-13925.2,3014.1 L-13873.7,2933.1 L-13837.5,2955.5 L-13853.6,2983.1 L-13579.9,3155.6 L-13545.4,3111.3 L-13521.0,3082.3 L-13488.8,3033.9 L-13471.0,3009.5 L-13472.8,2995.6 L-13472.3,2995.2 L-13475.5,2984.9 L-13477.6,2978.5 L-13479.6,2971.9 L-13482.0,2966.2 L-13486.6,2958.7 L-13491.2,2951.4 L-13493.2,2947.6 L-13494.7,2943.8 L-13495.8,2940.3 L-13496.2,2937.2 L-13496.7,2927.0 L-13614.9,2818.5 L-13618.8,2822.7 L-13622.1,2819.9 L-13631.7,2829.4 L-13638.0,2821.0 L-13630.4,2812.2 L-13638.0,2802.5 L-13643.2,2803.9 L-13648.6,2804.1 L-13653.5,2803.2 L-13657.8,2801.4 L-13662.8,2797.7 L-13669.0,2791.6 L-13679.9,2779.6 L-13683.2,2774.5 L-13684.4,2768.1 L-13683.6,2760.5 L-13680.7,2753.5 L-13678.2,2748.7 L-13673.4,2743.9 L-13668.1,2740.3 L-13663.0,2738.4 L-13659.2,2737.8 L-13654.2,2738.7 L-13649.1,2740.5 L-13644.3,2744.3 L-13633.2,2754.3 L-13627.5,2759.7 L-13622.3,2765.4 L-13620.6,2768.1 L-13619.4,2771.0 L-13618.7,2773.6 L-13618.2,2777.2 L-13618.8,2780.6 L-13619.8,2783.8 L-13621.2,2786.2 L-13621.6,2787.3 L-13621.3,2788.7 L-13620.5,2790.1 L-13493.6,2909.0 L-13489.2,2912.0 L-13486.1,2913.3 L-13481.7,2912.3 L-13476.5,2911.9 L-13469.9,2914.7 L-13463.3,2918.8 L-13450.4,2926.1 L-13445.0,2928.7 L-13440.1,2923.9 L-13434.7,2918.7 L-13431.1,2914.6 L-13425.1,2906.8 L-13421.7,2902.1 L-13418.1,2896.3 L-13415.8,2891.2 L-13413.3,2885.8 L-13411.0,2880.1 L-13408.9,2874.3 L-13407.7,2869.4 L-13406.3,2863.2 L-13405.7,2859.5 L-13405.3,2856.5 L-13404.6,2851.2 L-13403.9,2846.0 L-13403.6,2842.6 L-13403.4,2838.9 L-13403.4,2834.6 L-13403.6,2831.0 L-13404.3,2826.0 L-13405.1,2820.3 L-13405.9,2815.0 L-13406.4,2810.7 L-13407.0,2807.5 L-13407.7,2804.1 L-13408.5,2800.7 L-13409.7,2796.7 L-13411.1,2792.7 L-13412.2,2790.3 L-13413.4,2787.9 L-13415.1,2785.6 L-13417.4,2782.3 L-13419.9,2779.2 L-13422.6,2776.6 L-13426.0,2773.8 L-13429.5,2771.6 L-13433.0,2769.7 L-13436.2,2768.5 L-13438.4,2767.8 L-13440.9,2767.5 L-13443.9,2767.6 L-13446.7,2768.2 L-13448.9,2769.1 L-13451.0,2770.6 L-13452.5,2772.2 L-13453.7,2773.7 L-13454.6,2776.0 L-13455.1,2778.5 L-13455.0,2781.5 L-13454.8,2785.0 L-13454.8,2787.6 L-13455.0,2790.2 L-13455.4,2792.8 L-13455.9,2795.1 L-13456.8,2797.5 L-13458.2,2800.1 L-13459.9,2802.6 L-13461.6,2804.9 L-13463.3,2806.5 L-13466.7,2809.2 L-13469.5,2811.1 L-13473.9,2812.4 L-13476.5,2813.0 L-13479.5,2813.4 L-13482.2,2813.5 L-13485.8,2813.3 L-13488.4,2812.8 L-13492.0,2812.0 L-13497.0,2810.5 L-13501.2,2808.9 L-13504.3,2807.7 L-13507.6,2805.9 L-13510.5,2803.9 L-13513.7,2801.4 L-13516.2,2799.1 L-13518.3,2797.0 L-13520.5,2794.4 L-13522.3,2792.0 L-13524.0,2789.6 L-13525.5,2786.9 L-13527.1,2783.3 L-13528.5,2780.0 L-13529.9,2776.4 L-13530.8,2773.6 L-13531.5,2771.0 L-13532.0,2768.3 L-13532.4,2764.1 L-13532.7,2760.4 L-13532.5,2756.4 L-13531.6,2751.1 L-13530.1,2745.9 L-13528.2,2740.5 L-13526.9,2738.0 L-13525.6,2736.5 L-13515.3,2723.4 L-13512.9,2720.7 L-13509.8,2719.2 L-13506.5,2718.0 L-13502.8,2717.2 L-13498.7,2716.7 L-13495.1,2716.5 L-13491.5,2716.6 L-13487.9,2717.0 L-13483.8,2718.2 L-13479.5,2720.3 L-13475.8,2722.6 L-13472.5,2725.2 L-13462.1,2734.8 L-13459.6,2735.6 L-13458.2,2735.9 L-13456.5,2735.5 L-13455.4,2735.1 L-13454.0,2733.5 L-13453.4,2731.9 L-13453.3,2729.7 L-13453.2,2727.7 L-13453.6,2726.8 L-13474.6,2706.0 L-13446.0,2675.5 L-13447.6,2671.9 L-13431.1,2655.6 L-13399.3,2687.4 L-13424.9,2720.0 L-13425.1,2721.9 L-13423.8,2722.7 L-13422.2,2722.3 L-13394.1,2687.1 L-13385.9,2677.2 L-13385.6,2674.9 L-13386.3,2672.9 L-13387.8,2671.1 L-13409.8,2650.3 L-13404.3,2643.9 L-13409.9,2639.2 L-13406.7,2631.8 L-13349.7,2574.5 L-13330.1,2571.2 L-13324.0,2570.3 L-13318.2,2569.5 L-13315.5,2568.8 L-13312.3,2567.1 L-13308.5,2565.0 L-13305.6,2562.1 L-13302.8,2558.6 L-13273.7,2516.3 L-13273.1,2515.2 L-13273.4,2513.8 L-13273.8,2512.8 L-13274.5,2511.9 L-13278.0,2509.7 L-13278.9,2509.2 L-13279.7,2509.3 L-13280.6,2509.8 L-13282.5,2511.2 L-13306.9,2534.0 L-13316.4,2540.8 L-13355.4,2500.8 L-13350.9,2486.6 L-13349.0,2482.4 L-13342.9,2471.2 L-13335.8,2458.7 L-13331.5,2453.9 L-13323.8,2445.7 L-13315.6,2436.7 L-13306.6,2427.2 L-13298.9,2420.6 L-13295.2,2417.3 L-13290.3,2413.7 L-13285.8,2411.3 L-13279.4,2408.4 L-13275.4,2407.0 L-13271.4,2405.8 L-13268.3,2405.5 L-13263.9,2405.8 L-13260.2,2406.3 L-13256.0,2407.5 L-13251.9,2410.9 L-13249.4,2414.4 L-13247.9,2418.0 L-13247.3,2423.4 L-13247.5,2430.5 L-13248.4,2438.5 L-13250.1,2446.2 L-13260.4,2469.2 L-13270.2,2489.9 L-13266.8,2495.4 L-13265.0,2496.5 L-13263.1,2496.5 L-13261.4,2496.1 L-13260.1,2495.3 L-13253.4,2485.8 L-13244.8,2481.5 L-13227.7,2435.8 L-13226.5,2433.5 L-13224.8,2431.5 L-13223.1,2430.6 L-13221.5,2430.2 L-13219.2,2430.2 L-13216.8,2430.8 L-13204.3,2434.3 L-13201.9,2434.8 L-13199.1,2434.9 L-13196.5,2434.5 L-13194.4,2433.6 L-13192.6,2432.2 L-13190.8,2429.9 L-13169.8,2401.8 L-13168.8,2399.7 L-13168.3,2397.5 L-13168.3,2395.4 L-13168.7,2393.2 L-13169.5,2391.6 L-13170.7,2390.0 L-13172.1,2388.7 L-13174.1,2387.7 L-13176.0,2387.2 L-13177.9,2387.1 L-13179.5,2387.4 L-13181.4,2388.3 L-13182.8,2389.3 L-13183.9,2390.7 L-13189.4,2399.6 L-13190.6,2401.3 L-13192.0,2402.9 L-13194.1,2404.7 L-13196.0,2405.8 L-13198.3,2406.5 L-13201.1,2407.1 L-13202.7,2407.1 L-13204.9,2406.8 L-13206.8,2406.3 L-13208.4,2405.6 L-13225.6,2390.0 L-13227.6,2387.6 L-13229.1,2385.4 L-13230.5,2382.7 L-13231.4,2380.4 L-13232.0,2378.0 L-13232.5,2375.4 L-13232.8,2372.2 L-13232.9,2369.0 L-13232.6,2366.3 L-13232.2,2364.0 L-13231.7,2362.0 L-13230.9,2360.3 L-13199.6,2310.6 L-13197.6,2307.3 L-13196.4,2305.6 L-13195.0,2304.8 L-13192.7,2303.8 L-13190.3,2303.1 L-13188.0,2302.7 L-13186.7,2302.7 L-13185.4,2302.9 L-13184.3,2303.3 L-13182.7,2304.1 L-13180.8,2305.3 L-13177.6,2307.9 L-13163.3,2321.3 L-13160.9,2324.7 L-13159.5,2328.0 L-13158.2,2331.9 L-13157.8,2334.9 L-13157.6,2338.1 L-13157.6,2340.8 L-13157.9,2343.5 L-13158.4,2346.2 L-13159.0,2348.0 L-13160.6,2351.7 L-13166.3,2362.3 L-13166.9,2364.7 L-13166.9,2367.6 L-13166.7,2369.8 L-13165.9,2371.5 L-13164.4,2373.1 L-13162.0,2374.8 L-13160.0,2375.9 L-13157.7,2376.4 L-13155.0,2376.3 L-13152.8,2375.8 L-13150.3,2374.5 L-13148.1,2372.5 L-13111.1,2321.7 L-13122.4,2311.5 L-13115.6,2304.2 L-13105.5,2313.9 L-13084.7,2286.6 L-13053.2,2244.5 L-13180.0,2123.0 L-13207.5,2151.9 L-13239.8,2121.4 L-13208.6,2087.8 L-13212.7,2083.3 L-13206.2,2077.3 L-13202.2,2081.4 L-13180.5,2057.8 L-13161.0,2075.9 L-13158.7,2090.9 L-13076.7,2167.4 L-13060.7,2173.6 L-13047.9,2169.1 L-13023.6,2178.8 L-13007.5,2172.9 L-12959.6,2114.4 L-12956.9,2108.9 L-12956.1,2101.5 L-12958.5,2094.2 L-12961.7,2089.0 L-12990.1,2062.8 L-12989.7,2055.6 L-12984.1,2041.5 L-12972.9,2020.6 L-12995.0,2006.3 L-12986.6,2003.1 L-12981.3,1999.7 L-12976.0,1993.7 L-12969.8,1977.8 L-12958.4,1948.8 L-12951.0,1942.0 L-13021.2,1874.0 L-13036.6,1883.6 L-13040.2,1884.5 L-13043.6,1884.6 L-13048.0,1884.1 L-13051.6,1883.1 L-13055.1,1881.0 L-13058.0,1878.5 L-13094.3,1843.5 L-13101.1,1836.7 L-13104.1,1833.1 L-13106.6,1828.6 L-13107.8,1824.5 L-13108.3,1820.5 L-13108.2,1816.7 L-13107.5,1813.1 L-13106.6,1810.2 L-13105.4,1808.1 L-13102.8,1804.4 L-13099.7,1800.7 L-13083.4,1783.8 L-12959.4,1898.7 L-12967.9,1908.3 L-12876.0,1995.2 L-12770.1,1840.1 L-12837.3,1777.3 L-12845.9,1785.0 L-12971.4,1666.5 L-12955.0,1651.2 L-12882.9,1718.8 L-12875.7,1708.2 L-12871.7,1702.9 L-12866.6,1697.7 L-12860.7,1691.2 L-12854.7,1687.3 L-12845.2,1679.3 L-12835.7,1670.5 L-12817.5,1653.3 L-12774.0,1604.4 L-12766.2,1596.3 L-12737.5,1581.6 L-12710.3,1560.3 L-12707.7,1558.3 L-12700.6,1552.8 L-12697.5,1550.0 L-12695.0,1546.8 L-12693.3,1543.5 L-12692.2,1540.2 L-12690.9,1537.7 L-12689.4,1535.0 L-12686.8,1530.7 L-12685.0,1528.0 L-12683.2,1525.5 L-12679.9,1522.9 L-12676.7,1520.7 L-12673.2,1518.6 L-12664.9,1514.6 L-12656.9,1510.6 L-12655.7,1510.4 L-12654.5,1510.6 L-12652.1,1511.3 L-12645.6,1514.6 L-12640.7,1517.0 L-12638.4,1518.4 L-12636.3,1520.1 L-12602.9,1551.8 L-12600.6,1553.1 L-12589.7,1556.0 L-12586.2,1557.0 L-12582.3,1557.4 L-12579.3,1557.3 L-12577.0,1556.5 L-12574.7,1554.9 L-12562.8,1538.1 L-12562.8,1535.8 L-12563.2,1533.7 L-12564.5,1531.4 L-12566.5,1529.2 L-12575.6,1520.7 L-12574.9,1519.3 L-12563.2,1494.5 L-12543.2,1454.2 L-12525.0,1440.8 L-12514.5,1430.3 L-12507.3,1422.0 L-12499.7,1414.3 L-12491.3,1407.4 L-12486.2,1402.7 L-12480.8,1397.8 L-12476.8,1393.8 L-12474.8,1390.2 L-12473.2,1387.4 L-12472.2,1384.7 L-12471.8,1381.5 L-12471.6,1378.3 L-12465.5,1372.1 L-12456.5,1363.6 L-12441.5,1351.3 L-12425.8,1339.4 L-12418.8,1329.6 L-12416.2,1319.5 L-12408.4,1314.7 L-12398.6,1314.5 L-12388.7,1308.6 L-12380.0,1292.9 L-12380.2,1276.6 L-12378.6,1251.4 L-12376.1,1247.8 L-12374.6,1245.4 L-12371.8,1240.8 L-12375.3,1230.1 L-12371.3,1225.1 L-12351.5,1200.6 L-12317.5,1160.9 L-12311.0,1151.5 L-12308.4,1146.6 L-12297.6,1131.7 L-12294.6,1122.3 L-12294.5,1107.8 L-12294.9,1093.3 L-12295.0,1078.5 L-12290.6,1062.2 L-12283.2,1046.1 L-12272.6,1030.6 L-12264.9,1019.1 L-12255.8,1007.6 L-12238.2,988.0 L-12160.2,949.4 L-12149.9,946.7 L-12147.3,952.3 L-12144.2,957.7 L-12143.2,958.7 L-12141.5,958.0 L-12141.2,954.2 L-12142.4,951.0 L-12138.1,949.7 L-12122.1,945.0 L-12101.3,938.8 L-12084.5,933.8 L-12078.5,932.0 L-12084.5,913.1 L-12074.1,910.3 L-12056.8,907.9 L-12054.7,907.6 L-12054.6,906.4 L-12054.6,902.0 L-12038.9,901.3 L-12014.3,900.3 L-12004.8,904.9 L-11981.1,990.3 L-11975.8,995.4 L-11986.1,1006.0 L-11977.0,1015.0 L-11968.0,1024.0 L-11957.2,1013.0 L-11756.7,1203.6 L-11489.1,918.0 L-11395.6,1007.4 L-11392.0,1006.3 L-11390.6,1007.9 L-11384.3,1003.9 L-11379.1,1002.0 L-11373.6,999.5 L-11364.2,994.6 L-11358.4,991.3 L-11351.5,987.3 L-11345.1,983.3 L-11339.9,979.9 L-11335.1,976.8 L-11329.5,972.7 L-11323.1,968.0 L-11318.2,963.9 L-11313.0,959.3 L-11307.3,953.9 L-11301.9,948.5 L-11289.3,935.1 L-11281.7,926.0 L-11274.3,916.1 L-11269.2,908.9 L-11264.4,901.5 L-11258.7,891.2 L-11253.7,881.1 L-11249.7,872.8 L-11246.3,864.5 L-11244.2,859.0 L-11241.9,852.8 L-11236.5,846.1 L-11407.5,683.4 L-11405.4,681.1 L-11384.9,659.1 L-11370.0,643.3 L-11368.5,641.7 L-11325.1,682.3 L-11314.6,676.9 L-11313.4,678.4 L-11211.4,625.3 L-11207.2,623.1 L-11204.3,620.8 L-11201.6,618.3 L-11198.5,615.1 L-11195.5,610.6 L-11192.9,606.4 L-11191.2,603.2 L-11190.0,599.1 L-11188.9,594.6 L-11188.4,589.7 L-11188.4,584.2 L-11188.8,579.8 L-11189.6,575.9 L-11190.9,571.2 L-11222.8,479.4 L-11227.1,464.3 L-11226.0,459.1 L-11303.0,440.0 L-11299.4,426.7 L-11296.4,414.7 L-11273.6,324.5 L-11291.3,271.9 L-11301.7,237.9 L-11304.7,229.4 L-11277.1,204.1 L-11246.0,187.4 L-11244.1,190.0 L-11241.1,194.3 L-11234.1,203.4 L-11233.3,202.6 L-11233.1,199.5 L-11242.8,186.1 L-11225.5,173.7 L-11221.7,171.5 L-11212.7,183.2 L-11211.2,184.3 L-11209.7,184.6 L-11208.9,184.4 L-11208.9,183.6 L-11251.7,125.0 L-11254.8,121.6 L-11258.4,116.7 L-11277.0,94.2 L-11261.1,44.9 L-11248.9,32.2 L-11234.8,25.6 L-11204.8,7.8 L-11198.6,1.4 L-11171.7,-22.2 L-11163.2,-13.3 L-11138.3,13.6 L-11115.2,-5.8 L-11099.7,9.1 L-11085.8,22.7 L-11085.1,23.4 L-11073.3,13.3 L-11057.7,29.9 L-11044.3,47.1 L-11034.4,58.6 L-11033.1,60.1 L-11004.3,34.8 L-11002.8,33.5 L-11009.6,25.2 L-10993.9,12.3 L-10946.3,67.8 L-10905.8,41.1 L-10901.8,37.3 L-10884.2,29.9 L-10880.2,26.0 L-10876.4,21.0 L-10854.7,1.7 L-10859.6,-5.0 L-10898.4,3.9 L-10942.8,-46.6 L-10937.7,-51.0 L-10931.0,-43.2 L-10899.6,-70.2 L-10866.3,-33.8 L-10857.3,-30.2 L-10851.9,-27.1 L-10845.1,-19.4 L-10841.4,-22.7 L-10865.5,-50.1 L-10850.7,-62.9 L-10820.8,-27.0 L-10817.0,-29.8 L-10817.4,-30.6 L-10751.8,-78.0 L-10732.3,-92.4 L-10796.0,-172.0 L-10782.4,-181.5 L-10727.0,-116.6 L-10686.1,-109.1 L-10659.1,-124.9 L-10655.3,-127.3 L-10655.5,-130.3 L-10657.4,-133.8 L-10636.3,-147.1 L-10630.1,-140.9 L-10612.3,-151.4 L-10625.2,-167.4 L-10687.5,-250.7 L-10643.5,-296.3 L-10614.6,-339.0 L-10613.9,-372.4 L-10629.3,-416.8 L-10596.9,-443.8 L-10562.9,-456.9 L-10551.7,-459.5 L-10542.7,-460.7 L-10531.7,-460.0 L-10520.3,-457.2 L-10503.8,-443.1 L-10461.0,-390.9 L-10426.8,-347.5 L-10385.9,-320.2 L-10369.8,-317.6 L-10355.4,-315.9 L-10343.2,-315.4 L-10327.6,-316.5 L-10310.7,-319.3 L-10297.0,-323.2 L-10285.4,-328.6 L-10277.7,-333.1 L-10272.0,-339.1 L-10262.4,-350.7 L-10252.0,-369.7 L-10240.7,-394.9 L-10220.6,-384.6 L-10212.6,-381.9 L-10204.0,-380.7 L-10190.3,-381.6 L-10181.2,-384.3 L-10170.8,-388.8 L-10161.1,-394.4 L-10150.8,-404.4 L-10142.0,-412.4 L-10131.0,-419.9 L-10123.4,-424.8 L-10112.2,-428.8 L-10092.9,-434.4 L-10081.5,-437.6 L-10069.3,-442.2 L-10058.7,-447.7 L-10052.4,-451.3 L-10047.4,-456.5 L-9982.0,-489.3 L-9979.5,-490.7 L-9976.6,-492.5 L-9973.6,-494.8 L-9969.2,-497.3 L-9966.3,-498.7 L-9963.2,-501.4 L-9960.8,-503.9 L-9957.6,-506.0 L-9954.2,-508.4 L-9949.7,-512.6 L-9943.3,-513.1 L-9936.7,-513.9 L-9932.4,-515.3 L-9926.8,-517.9 L-9919.9,-521.0 L-9912.6,-525.5 L-9908.5,-529.4 L-9903.9,-534.7 L-9901.0,-539.6 L-9899.4,-544.1 L-9899.3,-547.3 L-9899.2,-549.9 L-9897.6,-560.3 L-9861.2,-581.4 L-9797.4,-618.2 L-9785.0,-625.3 L-9676.8,-687.7 L-9559.6,-755.0 L-9509.7,-783.6 L-9492.4,-793.3 L-9347.5,-877.5 L-9315.3,-895.2 L-9315.8,-896.3 L-9249.5,-933.8 L-9224.0,-948.1 L-9177.0,-974.1 L-9176.5,-973.4 L-9158.3,-983.4 L-9114.1,-1008.1 L-9108.8,-1012.9 L-9064.0,-1045.7 L-9041.7,-1064.2 L-9021.2,-1081.5 L-9011.8,-1086.8 L-8990.6,-1107.8 L-8988.8,-1106.7 L-8986.0,-1107.0 L-8984.6,-1106.1 L-8954.8,-1141.0 L-8962.3,-1148.0 L-8961.3,-1149.8 L-8958.1,-1154.4 L-8949.5,-1165.3 L-8944.3,-1173.2 L-8940.2,-1179.7 L-8934.5,-1188.4 L-8929.0,-1197.4 L-8922.8,-1207.7 L-8916.4,-1218.9 L-8902.5,-1247.6 L-8898.2,-1256.7 L-8894.7,-1264.0 L-8892.3,-1269.5 L-8890.2,-1273.7 L-8885.8,-1284.7 L-9001.6,-1500.7 L-9003.8,-1504.8 L-9005.5,-1507.1 L-9006.7,-1508.8 L-9008.3,-1510.2 L-9009.8,-1511.2 L-9011.8,-1512.4 L-9013.9,-1513.2 L-9015.7,-1513.6 L-9017.5,-1513.8 L-9020.2,-1513.8 L-9023.3,-1513.3 L-9026.0,-1512.5 L-9028.8,-1511.1 L-9055.7,-1495.6 L-9090.8,-1475.5 L-9115.3,-1461.9 L-9160.0,-1437.3 L-9187.4,-1422.4 L-9186.4,-1420.7 L-9198.1,-1414.0 L-9236.4,-1394.2 L-9264.8,-1377.4 L-9281.5,-1368.1 L-9306.9,-1353.5 L-9309.8,-1351.5 L-9332.1,-1391.6 L-9288.3,-1415.6 L-9228.5,-1448.1 L-9187.8,-1470.7 L-9182.8,-1473.6 L-9183.5,-1474.7 L-9148.3,-1493.9 L-9129.6,-1504.2 L-9086.7,-1525.1 L-9078.5,-1529.3 L-9013.8,-1565.3 L-8989.5,-1578.7 L-8972.4,-1587.9 L-8952.2,-1599.5 L-8924.2,-1548.9 L-8968.2,-1524.8 L-8970.5,-1521.1 L-8971.4,-1517.2 L-8971.8,-1514.2 L-8971.9,-1511.6 L-8971.7,-1509.5 L-8970.9,-1506.6 L-8881.2,-1340.7 L-8879.5,-1338.2 L-8877.5,-1336.3 L-8875.5,-1335.0 L-8873.4,-1334.3 L-8871.1,-1334.0 L-8868.9,-1334.2 L-8867.2,-1334.7 L-8827.4,-1364.9 L-8808.7,-1380.6 L-8789.4,-1396.9 L-8782.1,-1403.6 L-8758.2,-1423.2 L-8757.1,-1423.2 L-8733.9,-1443.0 L-8733.8,-1444.2 L-8718.6,-1456.7 L-8706.6,-1466.5 L-8686.0,-1483.5 L-8684.1,-1481.2 L-8663.9,-1497.9 L-8653.7,-1506.4 L-8625.4,-1529.9 L-8605.7,-1546.3 L-8607.6,-1549.1 L-8601.1,-1554.6 L-8590.4,-1563.4 L-8583.8,-1569.2 L-8555.9,-1581.7 L-8537.0,-1588.3 L-8527.3,-1592.9 L-8500.1,-1593.1 L-8490.6,-1593.1 L-8470.5,-1592.1 L-8447.0,-1591.1 L-8445.3,-1592.7 L-8443.0,-1589.7 L-8435.6,-1589.3 L-8368.3,-1583.5 L-8360.4,-1581.8 L-8353.5,-1580.7 L-8337.9,-1579.4 L-8308.8,-1578.0 L-8302.4,-1577.9 L-8296.4,-1578.1 L-8273.1,-1579.0 L-8261.1,-1579.6 L-8249.2,-1580.7 L-8230.9,-1582.6 L-8231.0,-1581.5 L-8216.5,-1584.0 L-8202.8,-1586.6 L-8192.3,-1588.5 L-8178.5,-1598.9 L-8176.9,-1596.7 L-8175.2,-1594.3 L-8053.6,-1433.5 L-7760.1,-1332.3 L-7221.5,-1727.9 L-7074.7,-1833.6 L-7018.0,-1954.6 L-7108.2,-2072.8 L-7104.2,-2089.7 L-7088.4,-2094.0 L-7058.0,-2087.7 L-7036.4,-2095.8 L-7030.4,-2104.2 L-7031.7,-2111.5 L-7047.8,-2143.1 L-7048.9,-2154.9 L-7049.8,-2178.3 L-7052.6,-2200.9 L-7049.8,-2204.9 L-7040.7,-2209.3 L-7029.6,-2211.8 L-7021.6,-2220.4 L-7019.8,-2230.8 L-7026.6,-2250.9 L-7027.3,-2264.8 L-7025.1,-2280.6 L-7014.1,-2308.3 L-7016.4,-2321.1 L-7021.9,-2335.4 L-7022.1,-2354.8 L-7025.3,-2380.4 L-7031.1,-2396.4 L-7034.7,-2404.8 L-7032.3,-2408.5 L-7030.0,-2408.3 L-7029.4,-2409.8 L-7029.1,-2411.8 L-7029.2,-2413.8 L-7032.7,-2414.2 L-7034.9,-2417.3 L-7034.5,-2421.0 L-7037.5,-2421.8 L-7041.2,-2421.9 L-7041.7,-2421.0 L-7049.3,-2430.0 L-7050.9,-2432.8 L-7052.2,-2436.7 L-7053.1,-2440.5 L-7053.8,-2444.5 L-7054.1,-2448.5 L-7054.3,-2452.1 L-7054.3,-2455.8 L-7054.0,-2457.8 L-7052.4,-2462.8 L-7050.6,-2466.8 L-7048.3,-2470.7 L-7044.9,-2475.6 L-7041.4,-2480.3 L-7038.1,-2483.7 L-7034.0,-2486.8 L-7033.2,-2486.0 L-6998.1,-2512.8 L-6993.0,-2516.7 L-6994.0,-2518.2 L-6994.0,-2520.8 L-6985.3,-2527.6 L-6983.1,-2527.5 L-6981.0,-2526.0 L-6977.3,-2528.8 L-6941.3,-2556.1 L-6941.7,-2557.0 L-6937.5,-2560.1 L-6932.5,-2563.2 L-6929.0,-2564.8 L-6924.0,-2566.7 L-6919.7,-2567.9 L-6915.4,-2568.5 L-6910.7,-2568.9 L-6907.9,-2568.7 L-6904.0,-2568.1 L-6900.2,-2566.8 L-6897.4,-2565.4 L-6894.7,-2563.8 L-6892.7,-2562.3 L-6891.0,-2560.7 L-6888.5,-2558.3 L-6887.4,-2557.9 L-6885.6,-2557.9 L-6883.8,-2558.2 L-6878.3,-2562.1 L-6878.3,-2563.2 L-6877.7,-2564.0 L-6877.1,-2565.1 L-6877.2,-2566.4 L-6877.5,-2567.5 L-6878.3,-2568.5 L-6882.2,-2572.4 L-6885.3,-2574.9 L-6888.9,-2576.9 L-6894.8,-2579.5 L-6899.9,-2581.5 L-6891.0,-2586.1 L-6880.1,-2593.7 L-6866.6,-2595.4 L-6853.1,-2594.5 L-6844.3,-2598.0 L-6836.6,-2609.0 L-6807.6,-2660.9 L-6795.8,-2682.3 L-6786.5,-2705.1 L-6784.9,-2709.9 L-6771.1,-2752.2 L-6768.9,-2756.3 L-6766.3,-2760.4 L-6733.9,-2800.5 L-6727.0,-2807.7 L-6721.9,-2812.1 L-6649.3,-2874.3 L-6645.3,-2877.0 L-6632.9,-2883.8 L-6618.0,-2892.2 L-6571.6,-2916.5 L-6470.5,-2970.8 L-6468.1,-2968.9 L-6466.2,-2968.2 L-6464.5,-2967.7 L-6462.7,-2968.0 L-6460.8,-2968.4 L-6455.4,-2969.5 L-6449.1,-2970.9 L-6443.4,-2972.2 L-6437.5,-2973.3 L-6434.3,-2974.0 L-6429.9,-2975.3 L-6424.9,-2977.4 L-6412.8,-2984.0 L-6408.4,-2986.4 L-6406.1,-2987.8 L-6403.8,-2988.8 L-6394.4,-2992.8 L-6384.1,-2996.8 L-6371.1,-3002.4 L-6355.8,-3008.7 L-6355.2,-3009.0 L-6353.9,-3009.1 L-6352.2,-3009.6 L-6349.8,-3011.4 L-6347.1,-3012.4 L-6344.1,-3013.9 L-6338.5,-3017.1 L-6336.5,-3019.1 L-6333.2,-3021.2 L-6333.5,-3021.8 L-6332.1,-3023.5 L-6330.3,-3025.4 L-6327.3,-3026.9 L-6324.8,-3027.9 L-6322.1,-3028.9 L-6319.6,-3030.2 L-6314.7,-3033.3 L-6313.3,-3034.7 L-6311.9,-3036.9 L-6311.3,-3038.5 L-6311.1,-3040.1 L-6311.3,-3041.6 L-6311.0,-3043.1 L-6325.0,-3060.0 L-6280.9,-3085.9 L-6260.0,-3097.0 L-6255.9,-3098.3 L-6249.5,-3097.1 L-6242.4,-3087.2 L-6239.2,-3084.4 L-6236.3,-3083.0 L-6233.6,-3082.4 L-6231.1,-3082.5 L-6193.3,-3098.1 L-6183.0,-3103.1 L-6173.4,-3108.4 L-6157.9,-3116.6 L-6154.7,-3117.7 L-5939.9,-3207.0 L-5872.7,-3239.3 L-5572.2,-3383.6 L1440.9,-3441.6 L1440.9,6594.0 L-13546.8,6594.0 L-13546.8,6167.5 Z" fill="#add7e1" stroke="none"><title>Biscayne Bay</title></path><path d="M-386.0,-6194.4 L1664.6,-5780.4 L3901.5,-4662.7 L5616.5,-2965.6 L6287.6,-1310.0 L5467.4,55.8 L3938.8,800.7 L2484.8,759.4 L1291.8,-68.4 L173.3,-1475.6 L-1206.2,-3089.8 L-1057.1,-4993.9 Z" fill="#f1efe7" stroke="#8ab09d" stroke-width="0.65"><title>Virginia Key</title></path><path d="M-646.9,-3338.1 L-50.4,-2717.3 L471.5,-1723.9 L918.9,-689.2 L1440.9,14.4 L1105.3,428.3 L247.8,-192.5 L-460.5,-1268.6 L-1131.6,-2510.3 Z" fill="#add7e1" stroke="none"><title>Hobie Island western bay</title></path><path d="M-1094.3,-834.0 L1720.5,-896.1 L5169.2,-689.2 L5728.4,428.3 L3677.8,966.3 L173.3,1028.4 L-1168.9,593.8 Z" fill="#add7e1" stroke="none"><title>Bear Cut</title></path><path d="M-1579.0,-2882.8 L-236.8,-3131.2 L1254.5,-3027.7 L2783.1,-3483.0 L4535.3,-4186.7 L5430.1,-4600.6 L5803.0,-3772.8 L5169.2,-2551.7 L4013.4,-1599.7 L2596.6,-813.3 L1739.1,-27.0 L173.3,200.7 L-796.1,117.9 L-1541.7,-647.8 Z" fill="#f1efe7" stroke="#8ab09d" stroke-width="0.65"><title>Virginia Key north of Bear Cut</title></path></svg>