<svg xmlns="http://www.w3.org/2000/svg" width="256" height="256" viewBox="0 0 256 256"><rect width="256" height="256" fill="#f1efe7"/><path d="M-6154.7,8914.3 L-5939.9,8825.0 L-5872.7,8792.7 L-5572.2,8648.4 L-5515.8,8703.0 L-5510.9,8707.7 L-5405.5,8617.5 L-5380.4,8598.4 L-5338.5,8560.6 L-5102.4,8343.8 L-4911.9,8126.2 L-4904.6,8112.3 L-4897.6,8104.4 L-4886.5,8091.7 L-4875.2,8078.8 L-4870.6,8073.5 L-4945.7,7976.4 L-4846.3,7916.8 L-4792.4,7988.5 L-4716.2,7901.3 L-4780.7,7815.9 L-4700.8,7732.6 L-4639.3,7813.6 L-4568.7,7733.2 L-4538.6,7713.5 L-4391.4,7618.0 L-4318.7,7569.7 L-4231.1,7512.1 L-4189.7,7484.9 L-4084.8,7417.2 L-4111.8,7381.7 L-4160.1,7317.0 L-4035.2,7237.6 L-3989.7,7214.1 L-3986.2,7211.6 L-3962.2,7193.1 L-3876.6,7147.3 L-3870.7,7138.1 L-3846.7,7121.6 L-3833.7,7102.6 L-3830.0,7099.8 L-3809.1,7091.7 L-3761.9,7074.8 L-3729.6,7060.6 L-3615.5,7007.0 L-3614.1,7010.7 L-3518.4,6969.8 L-3479.3,7019.9 L-3392.2,6961.8 L-3379.8,6953.3 L-3378.6,6952.3 L-3377.4,6950.7 L-3375.5,6947.4 L-3374.5,6944.3 L-3373.9,6940.6 L-3374.0,6937.6 L-3374.4,6934.7 L-3374.8,6931.4 L-3374.9,6928.9 L-3374.7,6926.8 L-3374.3,6924.6 L-3372.7,6920.6 L-3371.6,6918.4 L-3369.1,6914.6 L-3366.5,6911.8 L-3353.8,6906.7 L-3343.2,6902.7 L-3329.7,6898.3 L-3323.4,6896.6 L-3312.2,6892.9 L-3304.3,6890.1 L-3293.4,6885.6 L-3278.6,6879.1 L-3262.6,6871.6 L-3254.0,6867.4 L-3243.2,6861.9 L-3233.1,6856.3 L-3223.0,6850.3 L-3212.7,6843.6 L-3209.5,6841.4 L-3188.8,6825.6 L-3171.4,6812.2 L-3154.4,6797.8 L-3138.5,6782.8 L-3127.0,6769.9 L-3115.6,6756.0 L-3101.6,6738.0 L-3088.8,6720.0 L-3074.1,6696.9 L-3064.5,6679.0 L-3058.5,6667.6 L-3049.6,6648.3 L-3042.1,6630.4 L-3035.4,6611.1 L-3030.0,6594.2 L-3024.1,6566.8 L-3019.8,6542.3 L-3017.5,6521.3 L-3015.5,6496.5 L-3015.3,6470.0 L-3016.9,6445.5 L-3021.1,6413.5 L-3025.5,6391.7 L-3030.5,6371.1 L-3037.9,6347.7 L-3044.2,6329.8 L-3051.4,6310.3 L-3058.2,6294.1 L-3062.8,6283.6 L-3064.7,6275.9 L-3065.0,6270.0 L-3064.4,6264.7 L-3062.3,6260.1 L-3059.1,6256.2 L-3054.9,6254.0 L-3050.4,6253.4 L-3038.3,6256.3 L-3004.6,6264.4 L-2993.4,6009.7 L-2949.7,5555.1 L-2997.2,5543.9 L-3002.4,5529.6 L-3002.2,5509.1 L-2995.6,5462.6 L-2986.6,5452.1 L-2978.6,5421.9 L-2928.1,5433.6 L-2900.3,5143.1 L-2892.6,5062.7 L-2908.3,5058.8 L-2898.8,5020.4 L-2931.1,5012.7 L-2927.0,4989.2 L-2921.3,4973.7 L-2914.2,4955.6 L-2902.2,4930.3 L-2889.3,4933.2 L-2871.9,4750.5 L-2867.8,4639.7 L-2867.0,4619.3 L-2857.6,4548.8 L-2838.9,4373.1 L-2714.1,4047.7 L-2685.6,3959.0 L-2338.9,3826.0 L-2305.0,3812.4 L-2299.1,3809.2 L-2294.5,3805.0 L-2289.4,3799.1 L-2285.5,3792.2 L-2282.9,3785.4 L-2282.3,3775.5 L-2282.8,3763.2 L-2287.4,3607.7 L-2289.1,3577.6 L-2289.6,3556.9 L-2290.3,3516.7 L-2291.1,3504.1 L-2292.6,3493.5 L-2294.7,3484.1 L-2297.8,3474.5 L-2302.7,3463.2 L-2309.9,3451.1 L-2316.9,3441.5 L-2322.3,3432.4 L-2327.8,3420.3 L-2332.4,3408.7 L-2334.2,3399.2 L-2335.6,3388.7 L-2336.3,3378.2 L-2336.0,3368.0 L-2334.8,3356.1 L-2332.0,3344.4 L-2328.3,3334.0 L-2324.4,3324.5 L-2319.4,3315.3 L-2313.3,3304.1 L-2309.3,3294.0 L-2305.8,3281.1 L-2299.4,3271.3 L-2301.6,3182.1 L-2304.9,3176.9 L-2305.9,3116.3 L-2307.6,3044.8 L-2306.4,3034.9 L-2303.2,3024.8 L-2295.2,3009.0 L-2241.7,2893.9 L-2240.6,2892.0 L-2231.2,2871.5 L-2222.3,2852.1 L-2212.3,2832.1 L-2202.5,2811.5 L-2197.7,2801.5 L-2145.1,2693.6 L-2088.9,2574.4 L-1967.3,2327.6 L-2040.4,2245.7 L-2100.0,2372.7 L-2151.5,2482.6 L-2159.3,2498.2 L-2175.2,2530.7 L-2207.0,2528.0 L-2215.7,2527.5 L-2218.8,2530.3 L-2214.6,2534.1 L-2230.9,2548.6 L-2243.8,2560.5 L-2246.2,2611.4 L-2251.0,2621.6 L-2266.6,2621.0 L-2269.2,2620.1 L-2473.6,2535.7 L-2478.0,2533.4 L-2482.7,2530.4 L-2490.1,2524.8 L-2495.8,2519.4 L-2500.6,2514.2 L-2505.3,2507.8 L-2508.9,2502.2 L-2511.7,2496.4 L-2513.9,2490.3 L-2515.4,2486.1 L-2516.5,2481.0 L-2517.3,2475.0 L-2518.1,2466.8 L-2518.1,2455.1 L-2519.5,2415.4 L-2513.9,2415.1 L-2514.7,2394.1 L-2515.6,2359.5 L-2510.4,2359.4 L-2510.8,2335.8 L-2516.7,2335.9 L-2519.4,2236.5 L-2513.8,2236.2 L-2514.7,2212.9 L-2520.1,2213.1 L-2522.4,2139.6 L-2495.4,2110.5 L-2460.9,2109.3 L-2435.2,2108.4 L-2401.3,2107.3 L-2368.7,2106.3 L-2339.5,2105.3 L-2326.8,2104.7 L-2327.4,2093.4 L-2327.6,2081.6 L-2329.5,2043.3 L-2330.2,1970.2 L-2331.2,1968.9 L-2331.4,1961.7 L-2329.3,1961.6 L-2334.4,1785.5 L-2338.8,1619.8 L-2339.5,1614.6 L-2339.9,1605.0 L-2412.1,1607.6 L-2460.1,1603.5 L-2819.4,1616.0 L-2819.5,1612.8 L-2820.2,1597.5 L-2990.6,1603.5 L-2990.9,1575.2 L-3013.4,1570.1 L-3017.4,1449.0 L-2354.6,1426.0 L-2343.6,1410.9 L-2344.0,1367.9 L-2344.8,1330.7 L-2345.4,1307.4 L-2346.3,1284.7 L-2399.0,1259.9 L-2401.1,1204.8 L-2347.1,1178.0 L-2352.0,1050.5 L-2353.4,1044.2 L-2407.1,1019.1 L-2408.8,950.9 L-2357.8,924.6 L-2380.5,647.7 L-2374.5,524.5 L-2371.5,323.6 L-2371.7,105.1 L-2366.9,74.5 L-2366.6,59.7 L-2371.4,41.9 L-2366.4,41.9 L-2366.4,25.8 L-2363.4,-385.2 L-2363.9,-403.5 L-2369.6,-403.5 L-2369.4,-479.1 L-2372.7,-483.8 L-2377.9,-561.8 L-2367.6,-633.1 L-2368.9,-719.4 L-2372.4,-740.1 L-2367.1,-804.0 L-2370.7,-881.3 L-2379.7,-964.0 L-2396.8,-1098.0 L-2388.7,-1134.9 L-2392.3,-1170.8 L-2422.9,-1196.9 L-2467.8,-1196.5 L-2536.2,-1187.5 L-2580.7,-1187.5 L-2621.1,-1202.3 L-2674.2,-1238.7 L-2674.2,-1304.0 L-2675.6,-1384.3 L-2670.4,-1451.2 L-2652.8,-1503.4 L-2358.1,-1508.9 L-2351.3,-1926.8 L-2351.3,-2528.4 L-2354.4,-2746.7 L13557.8,-9318.4 L13557.8,26899.8 L-6154.7,26899.8 L-6154.7,8914.3 Z" fill="#add7e1" stroke="none"><title>Biscayne Bay</title></path><path d="M-1230.8,101.2 L-912.3,84.6 L-800.6,95.1 L-736.8,97.6 L-641.2,94.8 L-620.8,98.7 L-592.3,97.6 L-563.2,91.6 L-527.7,79.8 L-510.2,75.1 L-482.4,73.8 L-467.8,72.3 L-451.9,67.0 L-435.6,64.5 L-420.5,64.5 L-415.6,60.3 L-412.4,58.3 L-398.0,62.3 L-383.1,62.4 L-377.6,164.2 L-160.6,152.7 L-143.5,153.8 L-127.7,153.4 L-100.6,152.2 L-45.6,149.3 L-40.6,153.2 L92.6,146.3 L92.3,140.6 L118.6,139.2 L134.6,135.0 L149.3,127.2 L161.5,120.7 L172.5,111.4 L182.9,101.4 L192.0,89.3 L200.9,73.1 L206.3,59.8 L209.5,44.4 L211.4,22.9 L204.9,-86.1 L201.4,-160.6 L197.3,-182.8 L187.1,-203.5 L173.7,-222.0 L161.9,-233.4 L150.1,-242.6 L132.2,-252.0 L114.9,-258.1 L95.1,-260.3 L78.9,-260.1 L-181.7,-246.9 L-465.0,-231.7 L-562.9,-226.4 L-952.1,-205.5 L-1196.0,-194.1 L-1206.8,-193.0 L-1216.0,-188.7 L-1229.3,-178.8 L-1238.5,-169.2 L-1244.0,-158.6 L-1247.1,-146.6 L-1247.8,-134.3 L-1246.7,-117.6 L-1239.0,21.9 L-1242.4,25.9 L-1241.3,48.0 L-1239.1,60.6 L-1232.4,71.2 L-1230.8,101.2 Z" fill="#ece7dc" stroke="#d7d1c5" stroke-width="0.3"><title>Biscayne Island</title></path><path d="M-1.0,-1.0 L257.0,-1.0 L257.0,257.0 L-1.0,257.0 L-1.0,-1.0 Z M-1.0,-1.0 L-1.0,151.1 L92.6,146.3 L92.3,140.6 L118.6,139.2 L134.6,135.0 L149.3,127.2 L161.5,120.7 L172.5,111.4 L182.9,101.4 L192.0,89.3 L200.9,73.1 L206.3,59.8 L209.5,44.4 L211.4,22.9 L210.0,-1.0 L-1.0,-1.0 Z" fill="#add7e1" stroke="none" fill-rule="evenodd"><title>Biscayne Bay</title></path><path d="M53.4,2.8 L58.7,119.9 L38.4,120.8 L36.7,83.9 L39.7,83.8 L39.0,67.8 L36.3,68.0 L35.3,47.4 L37.9,47.3 L37.2,32.9 L34.7,33.0 L33.4,3.8 L53.4,2.8 Z" fill="#d6d2c9" stroke="#bab6ad" stroke-width="0.4"></path><path d="M-2.1,5.5 L3.4,122.7 L-15.9,123.6 L-17.6,87.1 L-15.0,86.9 L-15.8,70.6 L-18.3,70.7 L-19.2,51.5 L-16.9,51.4 L-17.7,35.4 L-20.0,35.5 L-21.4,6.5 L-2.1,5.5 Z" fill="#d6d2c9" stroke="#bab6ad" stroke-width="0.4"></path><path d="M21.6,33.2 L22.5,49.5 L25.0,49.3 L26.0,68.5 L23.8,68.6 L24.6,83.9 L26.5,83.8 L28.4,120.6 L10.9,121.6 L4.6,5.3 L23.2,4.3 L24.7,33.0 L21.6,33.2 Z" fill="#d6d2c9" stroke="#bab6ad" stroke-width="0.4"></path><path d="M76.9,31.3 L77.6,45.9 L80.1,45.8 L81.0,65.9 L78.4,66.0 L79.1,82.3 L81.7,82.2 L83.3,119.2 L63.6,120.1 L58.4,2.1 L77.6,1.3 L78.9,31.2 L76.9,31.3 Z" fill="#d6d2c9" stroke="#bab6ad" stroke-width="0.4"></path><path d="M132.5,37.8 L178.0,44.7 L180.5,31.6 L208.4,37.1 L207.8,43.3 L210.4,43.9 L209.0,54.0 L205.1,54.5 L203.9,62.6 L200.4,62.1 L198.8,67.1 L196.3,67.0 L193.9,80.6 L134.0,71.8 L134.5,76.6 L140.1,77.0 L142.1,103.8 L149.7,104.0 L150.4,120.6 L147.9,121.1 L148.0,129.7 L136.3,129.9 L136.2,133.4 L119.8,134.1 L120.3,140.9 L107.2,141.1 L106.5,136.4 L99.2,136.6 L98.1,115.6 L101.8,114.8 L102.1,110.3 L109.0,109.6 L109.3,114.5 L112.2,113.9 L111.0,86.0 L95.6,86.0 L96.0,68.5 L116.7,67.7 L121.9,26.9 L134.1,28.3 L132.5,37.8 Z" fill="#d6d2c9" stroke="#bab6ad" stroke-width="0.4"></path><path d="M200.3,11.0 L190.2,23.4 L175.7,11.4 L185.9,-1.0 L200.3,11.0 Z" fill="#d6d2c9" stroke="#bab6ad" stroke-width="0.4"></path><path d="M6.0,142.1 L5.3,128.8 L33.9,127.4 L34.6,140.7 L6.0,142.1 Z" fill="#e0e9e8" stroke="#91b7bc" stroke-width="0.55"></path><path d="M99.4,11.1 L105.6,2.7 L103.6,-42.0 L103.2,-47.9 L102.7,-64.7" fill="none" stroke="#cec8bb" stroke-width="3.5" stroke-linecap="round" stroke-linejoin="round"/><path d="M99.4,11.1 L105.6,2.7 L103.6,-42.0 L103.2,-47.9 L102.7,-64.7" fill="none" stroke="#ffffff" stroke-width="2.5" stroke-linecap="round" stroke-linejoin="round"></path><path d="M126.7,10.5 L99.4,11.1" fill="none" stroke="#cec8bb" stroke-width="3.5" stroke-linecap="round" stroke-linejoin="round"/><path d="M126.7,10.5 L99.4,11.1" fill="none" stroke="#ffffff" stroke-width="2.5" stroke-linecap="round" stroke-linejoin="round"></path><path d="M157.0,-33.1 L158.0,12.0 L126.7,10.5 L125.0,-31.7" fill="none" stroke="#cec8bb" stroke-width="3.5" stroke-linecap="round" stroke-linejoin="round"/><path d="M157.0,-33.1 L158.0,12.0 L126.7,10.5 L125.0,-31.7" fill="none" stroke="#ffffff" stroke-width="2.5" stroke-linecap="round" stroke-linejoin="round"></path><path d="M100.8,43.6 L91.0,57.8 L94.3,130.8" fill="none" stroke="#cec8bb" stroke-width="3.5" stroke-linecap="round" stroke-linejoin="round"/><path d="M100.8,43.6 L91.0,57.8 L94.3,130.8" fill="none" stroke="#ffffff" stroke-width="2.5" stroke-linecap="round" stroke-linejoin="round"></path><path d="M88.6,-64.3 L89.6,-47.5 L92.5,2.7 L99.4,11.1" fill="none" stroke="#cec8bb" stroke-width="3.5" stroke-linecap="round" stroke-linejoin="round"/><path d="M88.6,-64.3 L89.6,-47.5 L92.5,2.7 L99.4,11.1" fill="none" stroke="#ffffff" stroke-width="2.5" stroke-linecap="round" stroke-linejoin="round"></path><path d="M99.4,11.1 L100.8,43.6" fill="none" stroke="#cec8bb" stroke-width="3.5" stroke-linecap="round" stroke-linejoin="round"/><path d="M99.4,11.1 L100.8,43.6" fill="none" stroke="#ffffff" stroke-width="2.5" stroke-linecap="round" stroke-linejoin="round"></path><text x="15.0" y="62.4" text-anchor="middle" font-family="Arial, sans-serif" font-size="6.5" textLength="18.0" lengthAdjust="spacing" font-weight="500" paint-order="stroke" stroke="#f3f5ee" stroke-width="1.55" stroke-linejoin="round" fill="#6f777a">1130</text><text x="161.5" y="33.1" text-anchor="middle" font-family="Arial, sans-serif" font-size="6.5" textLength="18.0" lengthAdjust="spacing" font-weight="500" paint-order="stroke" stroke="#f3f5ee" stroke-width="1.55" stroke-linejoin="round" fill="#6f777a">1198</text></svg>