<svg xmlns="http://www.w3.org/2000/svg" width="256" height="256" viewBox="0 0 256 256"><rect width="256" height="256" fill="#f1efe7"/><path d="M-7434.7,16594.3 L-7219.9,16505.0 L-7152.7,16472.7 L-6852.2,16328.4 L-6795.8,16383.0 L-6790.9,16387.7 L-6685.5,16297.5 L-6660.4,16278.4 L-6618.5,16240.6 L-6382.4,16023.8 L-6191.9,15806.2 L-6184.6,15792.3 L-6177.6,15784.4 L-6166.5,15771.7 L-6155.2,15758.8 L-6150.6,15753.5 L-6225.7,15656.4 L-6126.3,15596.8 L-6072.4,15668.5 L-5996.2,15581.3 L-6060.7,15495.9 L-5980.8,15412.6 L-5919.3,15493.6 L-5848.7,15413.2 L-5818.6,15393.5 L-5671.4,15298.0 L-5598.7,15249.7 L-5511.1,15192.1 L-5469.7,15164.9 L-5364.8,15097.2 L-5391.8,15061.7 L-5440.1,14997.0 L-5315.2,14917.6 L-5269.7,14894.1 L-5266.2,14891.6 L-5242.2,14873.1 L-5156.6,14827.3 L-5150.7,14818.1 L-5126.7,14801.6 L-5113.7,14782.6 L-5110.0,14779.8 L-5089.1,14771.7 L-5041.9,14754.8 L-5009.6,14740.6 L-4895.5,14687.0 L-4894.1,14690.7 L-4798.4,14649.8 L-4759.3,14699.9 L-4672.2,14641.8 L-4659.8,14633.3 L-4658.6,14632.3 L-4657.4,14630.7 L-4655.5,14627.4 L-4654.5,14624.3 L-4653.9,14620.6 L-4654.0,14617.6 L-4654.4,14614.7 L-4654.8,14611.4 L-4654.9,14608.9 L-4654.7,14606.8 L-4654.3,14604.6 L-4652.7,14600.6 L-4651.6,14598.4 L-4649.1,14594.6 L-4646.5,14591.8 L-4633.8,14586.7 L-4623.2,14582.7 L-4609.7,14578.3 L-4603.4,14576.6 L-4592.2,14572.9 L-4584.3,14570.1 L-4573.4,14565.6 L-4558.6,14559.1 L-4542.6,14551.6 L-4534.0,14547.4 L-4523.2,14541.9 L-4513.1,14536.3 L-4503.0,14530.3 L-4492.7,14523.6 L-4489.5,14521.4 L-4468.8,14505.6 L-4451.4,14492.2 L-4434.4,14477.8 L-4418.5,14462.8 L-4407.0,14449.9 L-4395.6,14436.0 L-4381.6,14418.0 L-4368.8,14400.0 L-4354.1,14376.9 L-4344.5,14359.0 L-4338.5,14347.6 L-4329.6,14328.3 L-4322.1,14310.4 L-4315.4,14291.1 L-4310.0,14274.2 L-4304.1,14246.8 L-4299.8,14222.3 L-4297.5,14201.3 L-4295.5,14176.5 L-4295.3,14150.0 L-4296.9,14125.5 L-4301.1,14093.5 L-4305.5,14071.7 L-4310.5,14051.1 L-4317.9,14027.7 L-4324.2,14009.8 L-4331.4,13990.3 L-4338.2,13974.1 L-4342.8,13963.6 L-4344.7,13955.9 L-4345.0,13950.0 L-4344.4,13944.7 L-4342.3,13940.1 L-4339.1,13936.2 L-4334.9,13934.0 L-4330.4,13933.4 L-4318.3,13936.3 L-4284.6,13944.4 L-4273.4,13689.7 L-4229.7,13235.1 L-4277.2,13223.9 L-4282.4,13209.6 L-4282.2,13189.1 L-4275.6,13142.6 L-4266.6,13132.1 L-4258.6,13101.9 L-4208.1,13113.6 L-4180.3,12823.1 L-4172.6,12742.7 L-4188.3,12738.8 L-4178.8,12700.4 L-4211.1,12692.7 L-4207.0,12669.2 L-4201.3,12653.7 L-4194.2,12635.6 L-4182.2,12610.3 L-4169.3,12613.2 L-4151.9,12430.5 L-4147.8,12319.7 L-4147.0,12299.3 L-4137.6,12228.8 L-4118.9,12053.1 L-3994.1,11727.7 L-3965.6,11639.0 L-3618.9,11506.0 L-3585.0,11492.4 L-3579.1,11489.2 L-3574.5,11485.0 L-3569.4,11479.1 L-3565.5,11472.2 L-3562.9,11465.4 L-3562.3,11455.5 L-3562.8,11443.2 L-3567.4,11287.7 L-3569.1,11257.6 L-3569.6,11236.9 L-3570.3,11196.7 L-3571.1,11184.1 L-3572.6,11173.5 L-3574.7,11164.1 L-3577.8,11154.5 L-3582.7,11143.2 L-3589.9,11131.1 L-3596.9,11121.5 L-3602.3,11112.4 L-3607.8,11100.3 L-3612.4,11088.7 L-3614.2,11079.2 L-3615.6,11068.7 L-3616.3,11058.2 L-3616.0,11048.0 L-3614.8,11036.1 L-3612.0,11024.4 L-3608.3,11014.0 L-3604.4,11004.5 L-3599.4,10995.3 L-3593.3,10984.1 L-3589.3,10974.0 L-3585.8,10961.1 L-3579.4,10951.3 L-3581.6,10862.1 L-3584.9,10856.9 L-3585.9,10796.3 L-3587.6,10724.8 L-3586.4,10714.9 L-3583.2,10704.8 L-3575.2,10689.0 L-3521.7,10573.9 L-3520.6,10572.0 L-3511.2,10551.5 L-3502.3,10532.1 L-3492.3,10512.1 L-3482.5,10491.5 L-3477.7,10481.5 L-3425.1,10373.6 L-3368.9,10254.4 L-3247.3,10007.6 L-3320.4,9925.7 L-3380.0,10052.7 L-3431.5,10162.6 L-3439.3,10178.2 L-3455.2,10210.7 L-3487.0,10208.0 L-3495.7,10207.5 L-3498.8,10210.3 L-3494.6,10214.1 L-3510.9,10228.6 L-3523.8,10240.5 L-3526.2,10291.4 L-3531.0,10301.6 L-3546.6,10301.0 L-3549.2,10300.1 L-3753.6,10215.7 L-3758.0,10213.4 L-3762.7,10210.4 L-3770.1,10204.8 L-3775.8,10199.4 L-3780.6,10194.2 L-3785.3,10187.8 L-3788.9,10182.2 L-3791.7,10176.4 L-3793.9,10170.3 L-3795.4,10166.1 L-3796.5,10161.0 L-3797.3,10155.0 L-3798.1,10146.8 L-3798.1,10135.1 L-3799.5,10095.4 L-3793.9,10095.1 L-3794.7,10074.1 L-3795.6,10039.5 L-3790.4,10039.4 L-3790.8,10015.8 L-3796.7,10015.9 L-3799.4,9916.5 L-3793.8,9916.2 L-3794.7,9892.9 L-3800.1,9893.1 L-3802.4,9819.6 L-3775.4,9790.5 L-3740.9,9789.3 L-3715.2,9788.4 L-3681.3,9787.3 L-3648.7,9786.3 L-3619.5,9785.3 L-3606.8,9784.7 L-3607.4,9773.4 L-3607.6,9761.6 L-3609.5,9723.3 L-3610.2,9650.2 L-3611.2,9648.9 L-3611.4,9641.7 L-3609.3,9641.6 L-3614.4,9465.5 L-3618.8,9299.8 L-3619.5,9294.6 L-3619.9,9285.0 L-3692.1,9287.6 L-3740.1,9283.5 L-4099.4,9296.0 L-4099.5,9292.8 L-4100.2,9277.5 L-4270.6,9283.5 L-4270.9,9255.2 L-4293.4,9250.1 L-4297.4,9129.0 L-3634.6,9106.0 L-3623.6,9090.9 L-3624.0,9047.9 L-3624.8,9010.7 L-3625.4,8987.4 L-3626.3,8964.7 L-3679.0,8939.9 L-3681.1,8884.8 L-3627.1,8858.0 L-3632.0,8730.5 L-3633.4,8724.2 L-3687.1,8699.1 L-3688.8,8630.9 L-3637.8,8604.6 L-3660.5,8327.7 L-3654.5,8204.5 L-3651.5,8003.6 L-3651.7,7785.1 L-3646.9,7754.5 L-3646.6,7739.7 L-3651.4,7721.9 L-3646.4,7721.9 L-3646.4,7705.8 L-3643.4,7294.8 L-3643.9,7276.5 L-3649.6,7276.5 L-3649.4,7200.9 L-3652.7,7196.2 L-3657.9,7118.2 L-3647.6,7046.9 L-3648.9,6960.6 L-3652.4,6939.9 L-3647.1,6876.0 L-3650.7,6798.7 L-3659.7,6716.0 L-3676.8,6582.0 L-3668.7,6545.1 L-3672.3,6509.2 L-3702.9,6483.1 L-3747.8,6483.5 L-3816.2,6492.5 L-3860.7,6492.5 L-3901.1,6477.7 L-3954.2,6441.3 L-3954.2,6376.0 L-3955.6,6295.7 L-3950.4,6228.8 L-3932.8,6176.6 L-3638.1,6171.1 L-3631.3,5753.2 L-3631.3,5151.6 L-3634.4,4933.3 L12277.8,-1638.4 L12277.8,34579.8 L-7434.7,34579.8 L-7434.7,16594.3 Z" fill="#add7e1" stroke="none"><title>Biscayne Bay</title></path></svg>