<svg xmlns="http://www.w3.org/2000/svg" width="256" height="256" viewBox="0 0 256 256"><rect width="256" height="256" fill="#f1efe7"/><path d="M-7434.7,7890.3 L-7219.9,7801.0 L-7152.7,7768.7 L-6852.2,7624.4 L-6795.8,7679.0 L-6790.9,7683.7 L-6685.5,7593.5 L-6660.4,7574.4 L-6618.5,7536.6 L-6382.4,7319.8 L-6191.9,7102.2 L-6184.6,7088.3 L-6177.6,7080.4 L-6166.5,7067.7 L-6155.2,7054.8 L-6150.6,7049.5 L-6225.7,6952.4 L-6126.3,6892.8 L-6072.4,6964.5 L-5996.2,6877.3 L-6060.7,6791.9 L-5980.8,6708.6 L-5919.3,6789.6 L-5848.7,6709.2 L-5818.6,6689.5 L-5671.4,6594.0 L-5598.7,6545.7 L-5511.1,6488.1 L-5469.7,6460.9 L-5364.8,6393.2 L-5391.8,6357.7 L-5440.1,6293.0 L-5315.2,6213.6 L-5269.7,6190.1 L-5266.2,6187.6 L-5242.2,6169.1 L-5156.6,6123.3 L-5150.7,6114.1 L-5126.7,6097.6 L-5113.7,6078.6 L-5110.0,6075.8 L-5089.1,6067.7 L-5041.9,6050.8 L-5009.6,6036.6 L-4895.5,5983.0 L-4894.1,5986.7 L-4798.4,5945.8 L-4759.3,5995.9 L-4672.2,5937.8 L-4659.8,5929.3 L-4658.6,5928.3 L-4657.4,5926.7 L-4655.5,5923.4 L-4654.5,5920.3 L-4653.9,5916.6 L-4654.0,5913.6 L-4654.4,5910.7 L-4654.8,5907.4 L-4654.9,5904.9 L-4654.7,5902.8 L-4654.3,5900.6 L-4652.7,5896.6 L-4651.6,5894.4 L-4649.1,5890.6 L-4646.5,5887.8 L-4633.8,5882.7 L-4623.2,5878.7 L-4609.7,5874.3 L-4603.4,5872.6 L-4592.2,5868.9 L-4584.3,5866.1 L-4573.4,5861.6 L-4558.6,5855.1 L-4542.6,5847.6 L-4534.0,5843.4 L-4523.2,5837.9 L-4513.1,5832.3 L-4503.0,5826.3 L-4492.7,5819.6 L-4489.5,5817.4 L-4468.8,5801.6 L-4451.4,5788.2 L-4434.4,5773.8 L-4418.5,5758.8 L-4407.0,5745.9 L-4395.6,5732.0 L-4381.6,5714.0 L-4368.8,5696.0 L-4354.1,5672.9 L-4344.5,5655.0 L-4338.5,5643.6 L-4329.6,5624.3 L-4322.1,5606.4 L-4315.4,5587.1 L-4310.0,5570.2 L-4304.1,5542.8 L-4299.8,5518.3 L-4297.5,5497.3 L-4295.5,5472.5 L-4295.3,5446.0 L-4296.9,5421.5 L-4301.1,5389.5 L-4305.5,5367.7 L-4310.5,5347.1 L-4317.9,5323.7 L-4324.2,5305.8 L-4331.4,5286.3 L-4338.2,5270.1 L-4342.8,5259.6 L-4344.7,5251.9 L-4345.0,5246.0 L-4344.4,5240.7 L-4342.3,5236.1 L-4339.1,5232.2 L-4334.9,5230.0 L-4330.4,5229.4 L-4318.3,5232.3 L-4284.6,5240.4 L-4273.4,4985.7 L-4229.7,4531.1 L-4277.2,4519.9 L-4282.4,4505.6 L-4282.2,4485.1 L-4275.6,4438.6 L-4266.6,4428.1 L-4258.6,4397.9 L-4208.1,4409.6 L-4180.3,4119.1 L-4172.6,4038.7 L-4188.3,4034.8 L-4178.8,3996.4 L-4211.1,3988.7 L-4207.0,3965.2 L-4201.3,3949.7 L-4194.2,3931.6 L-4182.2,3906.3 L-4169.3,3909.2 L-4151.9,3726.5 L-4147.8,3615.7 L-4147.0,3595.3 L-4137.6,3524.8 L-4118.9,3349.1 L-3994.1,3023.7 L-3965.6,2935.0 L-3618.9,2802.0 L-3585.0,2788.4 L-3579.1,2785.2 L-3574.5,2781.0 L-3569.4,2775.1 L-3565.5,2768.2 L-3562.9,2761.4 L-3562.3,2751.5 L-3562.8,2739.2 L-3567.4,2583.7 L-3569.1,2553.6 L-3569.6,2532.9 L-3570.3,2492.7 L-3571.1,2480.1 L-3572.6,2469.5 L-3574.7,2460.1 L-3577.8,2450.5 L-3582.7,2439.2 L-3589.9,2427.1 L-3596.9,2417.5 L-3602.3,2408.4 L-3607.8,2396.3 L-3612.4,2384.7 L-3614.2,2375.2 L-3615.6,2364.7 L-3616.3,2354.2 L-3616.0,2344.0 L-3614.8,2332.1 L-3612.0,2320.4 L-3608.3,2310.0 L-3604.4,2300.5 L-3599.4,2291.3 L-3593.3,2280.1 L-3589.3,2270.0 L-3585.8,2257.1 L-3579.4,2247.3 L-3581.6,2158.1 L-3584.9,2152.9 L-3585.9,2092.3 L-3587.6,2020.8 L-3586.4,2010.9 L-3583.2,2000.8 L-3575.2,1985.0 L-3521.7,1869.9 L-3520.6,1868.0 L-3511.2,1847.5 L-3502.3,1828.1 L-3492.3,1808.1 L-3482.5,1787.5 L-3477.7,1777.5 L-3425.1,1669.6 L-3368.9,1550.4 L-3247.3,1303.6 L-3320.4,1221.7 L-3380.0,1348.7 L-3431.5,1458.6 L-3439.3,1474.2 L-3455.2,1506.7 L-3487.0,1504.0 L-3495.7,1503.5 L-3498.8,1506.3 L-3494.6,1510.1 L-3510.9,1524.6 L-3523.8,1536.5 L-3526.2,1587.4 L-3531.0,1597.6 L-3546.6,1597.0 L-3549.2,1596.1 L-3753.6,1511.7 L-3758.0,1509.4 L-3762.7,1506.4 L-3770.1,1500.8 L-3775.8,1495.4 L-3780.6,1490.2 L-3785.3,1483.8 L-3788.9,1478.2 L-3791.7,1472.4 L-3793.9,1466.3 L-3795.4,1462.1 L-3796.5,1457.0 L-3797.3,1451.0 L-3798.1,1442.8 L-3798.1,1431.1 L-3799.5,1391.4 L-3793.9,1391.1 L-3794.7,1370.1 L-3795.6,1335.5 L-3790.4,1335.4 L-3790.8,1311.8 L-3796.7,1311.9 L-3799.4,1212.5 L-3793.8,1212.2 L-3794.7,1188.9 L-3800.1,1189.1 L-3802.4,1115.6 L-3775.4,1086.5 L-3740.9,1085.3 L-3715.2,1084.4 L-3681.3,1083.3 L-3648.7,1082.3 L-3619.5,1081.3 L-3606.8,1080.7 L-3607.4,1069.4 L-3607.6,1057.6 L-3609.5,1019.3 L-3610.2,946.2 L-3611.2,944.9 L-3611.4,937.7 L-3609.3,937.6 L-3614.4,761.5 L-3618.8,595.8 L-3619.5,590.6 L-3619.9,581.0 L-3692.1,583.6 L-3740.1,579.5 L-4099.4,592.0 L-4099.5,588.8 L-4100.2,573.5 L-4270.6,579.5 L-4270.9,551.2 L-4293.4,546.1 L-4297.4,425.0 L-3634.6,402.0 L-3623.6,386.9 L-3624.0,343.9 L-3624.8,306.7 L-3625.4,283.4 L-3626.3,260.7 L-3679.0,235.9 L-3681.1,180.8 L-3627.1,154.0 L-3632.0,26.5 L-3633.4,20.2 L-3687.1,-4.9 L-3688.8,-73.1 L-3637.8,-99.4 L-3660.5,-376.3 L-3654.5,-499.5 L-3651.5,-700.4 L-3651.7,-918.9 L-3646.9,-949.5 L-3646.6,-964.3 L-3651.4,-982.1 L-3646.4,-982.1 L-3646.4,-998.2 L-3643.4,-1409.2 L-3643.9,-1427.5 L-3649.6,-1427.5 L-3649.4,-1503.1 L-3652.7,-1507.8 L-3657.9,-1585.8 L-3647.6,-1657.1 L-3648.9,-1743.4 L-3652.4,-1764.1 L-3647.1,-1828.0 L-3650.7,-1905.3 L-3659.7,-1988.0 L-3676.8,-2122.0 L-3668.7,-2158.9 L-3672.3,-2194.8 L-3702.9,-2220.9 L-3747.8,-2220.5 L-3816.2,-2211.5 L-3860.7,-2211.5 L-3901.1,-2226.3 L-3954.2,-2262.7 L-3954.2,-2328.0 L-3955.6,-2408.3 L-3950.4,-2475.2 L-3932.8,-2527.4 L-3638.1,-2532.9 L-3631.3,-2950.8 L-3631.3,-3552.4 L-3634.4,-3770.7 L12277.8,-10342.4 L12277.8,25875.8 L-7434.7,25875.8 L-7434.7,7890.3 Z" fill="#add7e1" stroke="none"><title>Biscayne Bay</title></path><path d="M1677.4,947.3 L1687.5,948.6 L1686.1,959.8 L1717.6,963.3 L1717.8,953.7 L1764.5,948.2 L1820.0,927.3 L1850.6,912.4 L1868.9,895.6 L1880.6,884.8 L1921.0,810.6 L1930.2,727.1 L1908.7,652.1 L1887.1,624.4 L1898.0,616.6 L1886.7,602.7 L1876.2,610.3 L1872.2,605.1 L1807.2,559.4 L351.7,-133.7 L274.1,-163.2 L215.7,-161.5 L154.5,-143.2 L112.0,-113.1 L71.0,-70.7 L51.8,-24.9 L42.5,23.8 L45.0,81.9 L53.2,112.3 L85.7,161.8 L117.0,193.4 L176.7,228.8 L876.3,563.7 L900.3,575.2 L1677.4,947.3 Z" fill="#ece7dc" stroke="#d7d1c5" stroke-width="0.3"><title>Hibiscus Island</title></path><path d="M103.5,8.7 L134.2,14.5 L137.1,-0.4 L111.8,-5.2 L113.3,-13.3 L103.6,-15.1 L104.0,-17.8 L95.4,-19.4 L95.9,-21.6 L84.8,-23.7 L85.4,-26.8 L67.7,-30.2 L68.6,-34.6 L65.6,-35.2 L65.8,-36.2 L61.2,-37.1 L59.7,-29.2 L58.1,-29.5 L57.3,-24.9 L56.1,-25.1 L52.2,-9.2 L60.3,-7.8 L60.1,-6.9 L97.0,0.1 L96.5,2.6 L102.4,3.7 L104.4,4.1 L103.5,8.7 Z" fill="#d6d2c9" stroke="#bab6ad" stroke-width="0.4"></path><path d="M64.1,49.2 L66.3,63.6 L89.9,59.9 L89.4,58.5 L91.4,58.0 L91.7,59.1 L104.1,57.0 L105.3,48.8 L120.6,51.6 L122.2,43.7 L107.4,41.0 L108.2,37.6 L110.3,37.9 L111.9,29.6 L113.3,29.8 L112.7,32.5 L133.7,36.5 L136.6,21.4 L64.3,8.1 L60.9,30.5 L75.9,32.7 L75.2,36.5 L74.5,40.3 L73.2,47.5 L64.1,49.2 Z" fill="#d6d2c9" stroke="#bab6ad" stroke-width="0.4"></path><path d="M130.9,65.2 L64.4,77.1 L65.6,83.1 L67.7,95.7 L69.3,95.4 L75.7,94.2 L82.0,129.6 L91.0,128.0 L90.6,125.8 L98.5,124.4 L97.9,121.3 L102.9,120.4 L102.4,117.6 L114.9,115.3 L109.5,84.7 L133.6,80.4 L130.9,65.2 Z" fill="#d6d2c9" stroke="#bab6ad" stroke-width="0.4"></path><path d="M68.1,117.2 L71.1,134.1 L80.3,132.4 L77.2,115.6 L68.1,117.2 Z" fill="#d6d2c9" stroke="#bab6ad" stroke-width="0.4"></path><path d="M101.9,137.4 L110.1,154.5 L114.6,152.4 L121.6,165.5 L123.5,164.3 L130.8,178.6 L132.5,177.8 L137.4,186.5 L147.5,181.7 L146.6,180.3 L149.1,179.0 L145.6,172.6 L143.1,173.6 L141.8,171.5 L136.1,174.2 L134.6,170.8 L141.5,167.0 L143.4,170.1 L153.1,163.7 L165.3,146.4 L155.4,140.5 L148.5,152.0 L138.4,156.5 L136.4,151.1 L130.6,153.5 L122.0,135.6 L134.1,130.6 L135.8,132.6 L143.0,127.6 L133.8,115.1 L116.1,127.1 L116.9,128.7 L109.0,132.7 L109.4,134.1 L101.9,137.4 Z" fill="#d6d2c9" stroke="#bab6ad" stroke-width="0.4"></path><path d="M191.8,121.4 L185.4,134.5 L195.1,139.3 L191.4,147.0 L202.7,152.5 L205.6,146.6 L216.1,151.7 L223.7,136.3 L210.3,129.7 L206.3,137.8 L200.5,135.0 L204.2,127.5 L191.8,121.4 Z" fill="#d6d2c9" stroke="#bab6ad" stroke-width="0.4"></path><path d="M150.7,194.6 L171.3,156.5 L181.8,162.2 L182.4,161.1 L191.7,166.1 L191.1,167.2 L202.9,173.6 L193.2,191.4 L188.6,188.9 L183.0,199.1 L190.1,202.9 L185.3,211.7 L171.7,204.3 L175.3,197.8 L162.2,190.7 L157.9,198.5 L150.7,194.6 Z" fill="#d6d2c9" stroke="#bab6ad" stroke-width="0.4"></path><path d="M218.9,180.6 L233.7,187.6 L237.7,179.1 L245.1,182.6 L250.2,171.9 L234.5,164.5 L240.8,151.3 L225.0,143.8 L212.5,170.4 L216.9,172.5 L217.9,170.4 L220.7,171.8 L221.4,170.3 L223.3,171.2 L218.9,180.6 Z" fill="#d6d2c9" stroke="#bab6ad" stroke-width="0.4"></path><path d="M246.8,245.7 L241.4,257.3 L250.0,261.3 L255.3,249.6 L246.8,245.7 Z" fill="#d6d2c9" stroke="#bab6ad" stroke-width="0.4"></path><path d="M249.4,237.6 L238.6,232.7 L241.2,227.0 L243.1,227.7 L244.9,223.1 L234.8,218.1 L244.8,198.3 L253.7,193.6 L256.6,201.4 L252.3,202.2 L247.9,211.4 L250.3,212.6 L250.7,211.7 L251.9,212.2 L254.3,207.1 L263.3,211.3 L261.0,216.9 L265.4,218.8 L264.3,221.5 L273.6,225.6 L288.6,191.6 L291.4,191.8 L292.0,188.7 L298.4,188.2 L300.8,188.9 L302.9,190.7 L304.3,192.8 L304.1,194.5 L279.1,248.8 L276.2,247.3 L275.6,248.4 L271.1,246.1 L269.9,248.1 L259.8,243.6 L258.6,245.1 L256.2,246.0 L253.6,246.0 L251.4,245.5 L250.0,243.8 L248.9,242.0 L248.4,239.9 L249.4,237.6 Z" fill="#d6d2c9" stroke="#bab6ad" stroke-width="0.4"></path><path d="M223.4,11.5 L226.0,19.2 L246.3,12.4 L242.0,-0.2 L253.6,-4.1 L248.3,-19.9 L238.0,-16.5 L237.5,-18.1 L213.5,-10.1 L214.6,-7.1 L208.4,-5.0 L213.1,8.9 L217.8,7.3 L219.7,12.8 L223.4,11.5 Z" fill="#d6d2c9" stroke="#bab6ad" stroke-width="0.4"></path><path d="M181.9,20.0 L195.1,26.9 L200.5,16.7 L187.3,9.7 L181.9,20.0 Z" fill="#d6d2c9" stroke="#bab6ad" stroke-width="0.4"></path><path d="M193.7,37.7 L197.4,61.8 L212.7,59.4 L210.4,44.7 L212.8,44.4 L211.3,35.0 L193.7,37.7 Z" fill="#d6d2c9" stroke="#bab6ad" stroke-width="0.4"></path><path d="M258.6,73.9 L291.3,89.7 L279.7,113.7 L247.0,97.9 L258.6,73.9 Z" fill="#d6d2c9" stroke="#bab6ad" stroke-width="0.4"></path><path d="M52.2,-9.2 L51.1,-2.9 L101.9,6.9 L102.4,3.7 L96.5,2.6 L97.0,0.1 L60.1,-6.9 L60.3,-7.8 L52.2,-9.2 Z" fill="#e0e9e8" stroke="#91b7bc" stroke-width="0.55"></path><path d="M71.2,36.7 L70.9,37.6 L70.9,38.4 L71.4,39.3 L72.2,40.0 L73.5,40.3 L74.5,40.3 L75.2,36.5 L73.8,36.0 L72.6,36.0 L71.9,36.0 L71.2,36.7 Z" fill="#e0e9e8" stroke="#91b7bc" stroke-width="0.55"></path><path d="M57.0,29.3 L56.5,29.1 L55.9,29.0 L55.4,29.2 L54.9,29.5 L54.6,30.0 L54.4,30.5 L54.4,31.1 L54.6,31.6 L55.0,32.1 L55.5,32.4 L56.1,32.5 L56.6,32.4 L57.2,32.2 L57.6,31.7 L57.8,31.2 L57.9,30.7 L57.7,30.1 L57.4,29.6 L57.0,29.3 Z" fill="#e0e9e8" stroke="#91b7bc" stroke-width="0.55"></path><path d="M52.9,43.0 L52.3,41.8 L51.9,40.2 L51.6,38.3 L51.7,36.2 L51.9,34.6 L52.6,33.8 L53.8,34.6 L53.2,36.2 L53.1,37.3 L53.2,39.0 L53.7,40.6 L54.2,42.1 L52.9,43.0 Z" fill="#e0e9e8" stroke="#91b7bc" stroke-width="0.55"></path><path d="M55.7,33.4 L54.7,35.0 L54.3,36.9 L54.3,39.1 L54.8,40.9 L55.4,42.4 L55.4,43.2 L54.8,43.9 L53.4,44.5 L52.3,45.8 L51.4,47.8 L51.4,49.9 L52.3,51.2 L53.9,52.8 L55.6,53.6 L57.4,53.8 L59.1,53.6 L60.2,53.0 L61.2,51.2 L61.3,49.1 L61.0,46.9 L60.2,45.3 L60.1,43.9 L60.8,42.8 L61.5,42.6 L62.3,43.1 L63.2,43.1 L64.5,42.8 L65.5,41.7 L65.8,40.4 L66.0,39.2 L66.7,38.9 L67.8,39.3 L68.6,39.4 L69.4,39.1 L69.9,38.0 L70.0,36.8 L69.9,35.9 L69.4,35.5 L68.4,35.2 L67.2,35.1 L65.7,34.3 L64.9,33.2 L64.1,32.0 L62.6,31.5 L60.4,31.5 L58.8,32.0 L57.7,33.0 L55.7,33.4 Z" fill="#e0e9e8" stroke="#91b7bc" stroke-width="0.55"></path><path d="M57.6,84.5 L62.6,114.7 L72.3,113.1 L69.3,95.4 L67.7,95.7 L65.6,83.1 L57.6,84.5 Z" fill="#e0e9e8" stroke="#91b7bc" stroke-width="0.55"></path><path d="M91.3,152.0 L93.4,156.4 L94.3,157.5 L100.3,162.0 L102.5,162.2 L104.1,161.5 L105.3,159.9 L105.1,158.1 L103.7,156.5 L101.0,154.8 L99.8,152.7 L99.4,150.5 L98.0,146.9 L96.3,145.2 L94.0,145.1 L92.1,145.9 L90.8,147.3 L90.1,149.1 L91.3,152.0 Z" fill="#e0e9e8" stroke="#91b7bc" stroke-width="0.55"></path><path d="M222.1,47.9 L222.2,50.0 L222.0,51.9 L221.0,54.0 L220.6,55.9 L221.4,57.4 L223.1,58.0 L225.8,58.0 L227.3,57.1 L227.9,56.1 L228.4,54.5 L228.0,53.5 L227.7,52.1 L227.5,50.8 L228.1,50.0 L229.0,49.0 L229.2,47.5 L228.7,45.6 L227.3,44.5 L225.2,44.1 L223.6,44.6 L222.2,45.9 L222.1,47.9 Z" fill="#e0e9e8" stroke="#91b7bc" stroke-width="0.55"></path><path d="M231.6,51.3 L231.4,50.8 L231.0,50.4 L230.5,50.2 L230.0,50.1 L229.5,50.2 L229.0,50.5 L228.7,50.9 L228.5,51.4 L228.4,51.9 L228.6,52.4 L228.9,52.9 L229.3,53.2 L229.8,53.4 L230.4,53.3 L230.9,53.2 L231.3,52.8 L231.6,52.4 L231.7,51.8 L231.6,51.3 Z" fill="#e0e9e8" stroke="#91b7bc" stroke-width="0.55"></path><path d="M166.1,6.5 L159.7,24.1 L158.1,43.3 L162.9,68.9 L174.1,92.5 L198.8,110.3 L292.1,154.7 L452.9,231.4" fill="none" stroke="#cec8bb" stroke-width="4.8" stroke-linecap="round" stroke-linejoin="round"/><path d="M166.1,6.5 L159.7,24.1 L158.1,43.3 L162.9,68.9 L174.1,92.5 L198.8,110.3 L292.1,154.7 L452.9,231.4" fill="none" stroke="#ffffff" stroke-width="3.7" stroke-linecap="round" stroke-linejoin="round"><title>South Hibiscus Drive</title></path><path d="M347.9,-4.8 L271.5,-41.3 L239.5,-47.0 L215.7,-38.3 L194.9,-25.5 L178.9,-11.1 L166.1,6.5" fill="none" stroke="#cec8bb" stroke-width="4.8" stroke-linecap="round" stroke-linejoin="round"/><path d="M347.9,-4.8 L271.5,-41.3 L239.5,-47.0 L215.7,-38.3 L194.9,-25.5 L178.9,-11.1 L166.1,6.5" fill="none" stroke="#ffffff" stroke-width="3.7" stroke-linecap="round" stroke-linejoin="round"><title>North Hibiscus Drive</title></path><text x="209.6" y="46.2" text-anchor="middle" font-family="Arial, sans-serif" font-size="6.5" textLength="18.0" lengthAdjust="spacing" font-weight="500" paint-order="stroke" stroke="#f3f5ee" stroke-width="1.55" stroke-linejoin="round" fill="#6f777a">433</text><text x="90.2" y="36.2" text-anchor="middle" font-family="Arial, sans-serif" font-size="6.5" textLength="18.0" lengthAdjust="spacing" font-weight="500" paint-order="stroke" stroke="#f3f5ee" stroke-width="1.55" stroke-linejoin="round" fill="#6f777a">432</text><text x="99.4" y="87.7" text-anchor="middle" font-family="Arial, sans-serif" font-size="6.5" textLength="18.0" lengthAdjust="spacing" font-weight="500" paint-order="stroke" stroke="#f3f5ee" stroke-width="1.55" stroke-linejoin="round" fill="#6f777a">428</text><text x="144.3" y="139.7" text-anchor="middle" font-family="Arial, sans-serif" font-size="6.5" textLength="18.0" lengthAdjust="spacing" font-weight="500" paint-order="stroke" stroke="#f3f5ee" stroke-width="1.55" stroke-linejoin="round" fill="#6f777a">420</text><text x="185.2" y="165.8" text-anchor="middle" font-family="Arial, sans-serif" font-size="6.5" textLength="18.0" lengthAdjust="spacing" font-weight="500" paint-order="stroke" stroke="#f3f5ee" stroke-width="1.55" stroke-linejoin="round" fill="#6f777a">410</text><text x="225.5" y="183.1" text-anchor="middle" font-family="Arial, sans-serif" font-size="6.5" textLength="18.0" lengthAdjust="spacing" font-weight="500" paint-order="stroke" stroke="#f3f5ee" stroke-width="1.55" stroke-linejoin="round" fill="#6f777a">400</text></svg>