<svg xmlns="http://www.w3.org/2000/svg" width="256" height="256" viewBox="0 0 256 256"><rect width="256" height="256" fill="#f1efe7"/><path d="M-7434.7,9938.3 L-7219.9,9849.0 L-7152.7,9816.7 L-6852.2,9672.4 L-6795.8,9727.0 L-6790.9,9731.7 L-6685.5,9641.5 L-6660.4,9622.4 L-6618.5,9584.6 L-6382.4,9367.8 L-6191.9,9150.2 L-6184.6,9136.3 L-6177.6,9128.4 L-6166.5,9115.7 L-6155.2,9102.8 L-6150.6,9097.5 L-6225.7,9000.4 L-6126.3,8940.8 L-6072.4,9012.5 L-5996.2,8925.3 L-6060.7,8839.9 L-5980.8,8756.6 L-5919.3,8837.6 L-5848.7,8757.2 L-5818.6,8737.5 L-5671.4,8642.0 L-5598.7,8593.7 L-5511.1,8536.1 L-5469.7,8508.9 L-5364.8,8441.2 L-5391.8,8405.7 L-5440.1,8341.0 L-5315.2,8261.6 L-5269.7,8238.1 L-5266.2,8235.6 L-5242.2,8217.1 L-5156.6,8171.3 L-5150.7,8162.1 L-5126.7,8145.6 L-5113.7,8126.6 L-5110.0,8123.8 L-5089.1,8115.7 L-5041.9,8098.8 L-5009.6,8084.6 L-4895.5,8031.0 L-4894.1,8034.7 L-4798.4,7993.8 L-4759.3,8043.9 L-4672.2,7985.8 L-4659.8,7977.3 L-4658.6,7976.3 L-4657.4,7974.7 L-4655.5,7971.4 L-4654.5,7968.3 L-4653.9,7964.6 L-4654.0,7961.6 L-4654.4,7958.7 L-4654.8,7955.4 L-4654.9,7952.9 L-4654.7,7950.8 L-4654.3,7948.6 L-4652.7,7944.6 L-4651.6,7942.4 L-4649.1,7938.6 L-4646.5,7935.8 L-4633.8,7930.7 L-4623.2,7926.7 L-4609.7,7922.3 L-4603.4,7920.6 L-4592.2,7916.9 L-4584.3,7914.1 L-4573.4,7909.6 L-4558.6,7903.1 L-4542.6,7895.6 L-4534.0,7891.4 L-4523.2,7885.9 L-4513.1,7880.3 L-4503.0,7874.3 L-4492.7,7867.6 L-4489.5,7865.4 L-4468.8,7849.6 L-4451.4,7836.2 L-4434.4,7821.8 L-4418.5,7806.8 L-4407.0,7793.9 L-4395.6,7780.0 L-4381.6,7762.0 L-4368.8,7744.0 L-4354.1,7720.9 L-4344.5,7703.0 L-4338.5,7691.6 L-4329.6,7672.3 L-4322.1,7654.4 L-4315.4,7635.1 L-4310.0,7618.2 L-4304.1,7590.8 L-4299.8,7566.3 L-4297.5,7545.3 L-4295.5,7520.5 L-4295.3,7494.0 L-4296.9,7469.5 L-4301.1,7437.5 L-4305.5,7415.7 L-4310.5,7395.1 L-4317.9,7371.7 L-4324.2,7353.8 L-4331.4,7334.3 L-4338.2,7318.1 L-4342.8,7307.6 L-4344.7,7299.9 L-4345.0,7294.0 L-4344.4,7288.7 L-4342.3,7284.1 L-4339.1,7280.2 L-4334.9,7278.0 L-4330.4,7277.4 L-4318.3,7280.3 L-4284.6,7288.4 L-4273.4,7033.7 L-4229.7,6579.1 L-4277.2,6567.9 L-4282.4,6553.6 L-4282.2,6533.1 L-4275.6,6486.6 L-4266.6,6476.1 L-4258.6,6445.9 L-4208.1,6457.6 L-4180.3,6167.1 L-4172.6,6086.7 L-4188.3,6082.8 L-4178.8,6044.4 L-4211.1,6036.7 L-4207.0,6013.2 L-4201.3,5997.7 L-4194.2,5979.6 L-4182.2,5954.3 L-4169.3,5957.2 L-4151.9,5774.5 L-4147.8,5663.7 L-4147.0,5643.3 L-4137.6,5572.8 L-4118.9,5397.1 L-3994.1,5071.7 L-3965.6,4983.0 L-3618.9,4850.0 L-3585.0,4836.4 L-3579.1,4833.2 L-3574.5,4829.0 L-3569.4,4823.1 L-3565.5,4816.2 L-3562.9,4809.4 L-3562.3,4799.5 L-3562.8,4787.2 L-3567.4,4631.7 L-3569.1,4601.6 L-3569.6,4580.9 L-3570.3,4540.7 L-3571.1,4528.1 L-3572.6,4517.5 L-3574.7,4508.1 L-3577.8,4498.5 L-3582.7,4487.2 L-3589.9,4475.1 L-3596.9,4465.5 L-3602.3,4456.4 L-3607.8,4444.3 L-3612.4,4432.7 L-3614.2,4423.2 L-3615.6,4412.7 L-3616.3,4402.2 L-3616.0,4392.0 L-3614.8,4380.1 L-3612.0,4368.4 L-3608.3,4358.0 L-3604.4,4348.5 L-3599.4,4339.3 L-3593.3,4328.1 L-3589.3,4318.0 L-3585.8,4305.1 L-3579.4,4295.3 L-3581.6,4206.1 L-3584.9,4200.9 L-3585.9,4140.3 L-3587.6,4068.8 L-3586.4,4058.9 L-3583.2,4048.8 L-3575.2,4033.0 L-3521.7,3917.9 L-3520.6,3916.0 L-3511.2,3895.5 L-3502.3,3876.1 L-3492.3,3856.1 L-3482.5,3835.5 L-3477.7,3825.5 L-3425.1,3717.6 L-3368.9,3598.4 L-3247.3,3351.6 L-3320.4,3269.7 L-3380.0,3396.7 L-3431.5,3506.6 L-3439.3,3522.2 L-3455.2,3554.7 L-3487.0,3552.0 L-3495.7,3551.5 L-3498.8,3554.3 L-3494.6,3558.1 L-3510.9,3572.6 L-3523.8,3584.5 L-3526.2,3635.4 L-3531.0,3645.6 L-3546.6,3645.0 L-3549.2,3644.1 L-3753.6,3559.7 L-3758.0,3557.4 L-3762.7,3554.4 L-3770.1,3548.8 L-3775.8,3543.4 L-3780.6,3538.2 L-3785.3,3531.8 L-3788.9,3526.2 L-3791.7,3520.4 L-3793.9,3514.3 L-3795.4,3510.1 L-3796.5,3505.0 L-3797.3,3499.0 L-3798.1,3490.8 L-3798.1,3479.1 L-3799.5,3439.4 L-3793.9,3439.1 L-3794.7,3418.1 L-3795.6,3383.5 L-3790.4,3383.4 L-3790.8,3359.8 L-3796.7,3359.9 L-3799.4,3260.5 L-3793.8,3260.2 L-3794.7,3236.9 L-3800.1,3237.1 L-3802.4,3163.6 L-3775.4,3134.5 L-3740.9,3133.3 L-3715.2,3132.4 L-3681.3,3131.3 L-3648.7,3130.3 L-3619.5,3129.3 L-3606.8,3128.7 L-3607.4,3117.4 L-3607.6,3105.6 L-3609.5,3067.3 L-3610.2,2994.2 L-3611.2,2992.9 L-3611.4,2985.7 L-3609.3,2985.6 L-3614.4,2809.5 L-3618.8,2643.8 L-3619.5,2638.6 L-3619.9,2629.0 L-3692.1,2631.6 L-3740.1,2627.5 L-4099.4,2640.0 L-4099.5,2636.8 L-4100.2,2621.5 L-4270.6,2627.5 L-4270.9,2599.2 L-4293.4,2594.1 L-4297.4,2473.0 L-3634.6,2450.0 L-3623.6,2434.9 L-3624.0,2391.9 L-3624.8,2354.7 L-3625.4,2331.4 L-3626.3,2308.7 L-3679.0,2283.9 L-3681.1,2228.8 L-3627.1,2202.0 L-3632.0,2074.5 L-3633.4,2068.2 L-3687.1,2043.1 L-3688.8,1974.9 L-3637.8,1948.6 L-3660.5,1671.7 L-3654.5,1548.5 L-3651.5,1347.6 L-3651.7,1129.1 L-3646.9,1098.5 L-3646.6,1083.7 L-3651.4,1065.9 L-3646.4,1065.9 L-3646.4,1049.8 L-3643.4,638.8 L-3643.9,620.5 L-3649.6,620.5 L-3649.4,544.9 L-3652.7,540.2 L-3657.9,462.2 L-3647.6,390.9 L-3648.9,304.6 L-3652.4,283.9 L-3647.1,220.0 L-3650.7,142.7 L-3659.7,60.0 L-3676.8,-74.0 L-3668.7,-110.9 L-3672.3,-146.8 L-3702.9,-172.9 L-3747.8,-172.5 L-3816.2,-163.5 L-3860.7,-163.5 L-3901.1,-178.3 L-3954.2,-214.7 L-3954.2,-280.0 L-3955.6,-360.3 L-3950.4,-427.2 L-3932.8,-479.4 L-3638.1,-484.9 L-3631.3,-902.8 L-3631.3,-1504.4 L-3634.4,-1722.7 L12277.8,-8294.4 L12277.8,27923.8 L-7434.7,27923.8 L-7434.7,9938.3 Z" fill="#add7e1" stroke="none"><title>Biscayne Bay</title></path><path d="M-4499.5,568.4 L-4536.7,-591.0 L-4275.8,-3200.0 L2248.7,-3200.0 L3702.7,-2330.3 L3702.7,-839.5 L2286.0,278.6 L-920.3,568.4 Z" fill="#add7e1" stroke="none"><title>Biscayne Bay</title></path></svg>