<svg xmlns="http://www.w3.org/2000/svg" width="256" height="256" viewBox="0 0 256 256"><defs><pattern id="park-dots" width="22" height="22" patternUnits="userSpaceOnUse"><circle cx="5" cy="5" r="2.1" fill="#63a95d" fill-opacity="0.26"/><circle cx="16" cy="7" r="1.55" fill="#76b970" fill-opacity="0.23"/><circle cx="10" cy="17" r="1.9" fill="#61a65b" fill-opacity="0.24"/><circle cx="21" cy="17" r="1.25" fill="#80c174" fill-opacity="0.18"/><circle cx="1" cy="19" r="1.2" fill="#70b46a" fill-opacity="0.17"/></pattern><pattern id="park-canopy" width="54" height="48" patternUnits="userSpaceOnUse"><circle cx="12" cy="11" r="3.6" fill="#5ea75a" fill-opacity="0.22"/><circle cx="31" cy="15" r="2.9" fill="#75ba6d" fill-opacity="0.18"/><circle cx="45" cy="31" r="3.3" fill="#67ae62" fill-opacity="0.20"/><circle cx="19" cy="39" r="2.5" fill="#83c378" fill-opacity="0.16"/></pattern></defs><rect width="256" height="256" fill="#f1efe7"/><path d="M-773.4,4713.1 L-666.0,4668.5 L-632.4,4652.4 L-482.1,4580.2 L-453.9,4607.5 L-451.4,4609.8 L-398.8,4564.8 L-386.2,4555.2 L-365.3,4536.3 L-247.2,4427.9 L-151.9,4319.1 L-148.3,4312.2 L-144.8,4308.2 L-139.2,4301.9 L-133.6,4295.4 L-131.3,4292.7 L-168.9,4244.2 L-119.2,4214.4 L-92.2,4250.3 L-54.1,4206.7 L-86.4,4163.9 L-46.4,4122.3 L-15.7,4162.8 L19.7,4122.6 L34.7,4112.8 L108.3,4065.0 L144.7,4040.9 L188.5,4012.0 L209.2,3998.5 L261.6,3964.6 L248.1,3946.8 L223.9,3914.5 L286.4,3874.8 L309.2,3863.0 L310.9,3861.8 L322.9,3852.5 L365.7,3829.7 L368.7,3825.0 L380.7,3816.8 L387.2,3807.3 L389.0,3805.9 L399.4,3801.9 L423.1,3793.4 L439.2,3786.3 L496.3,3759.5 L497.0,3761.4 L544.8,3740.9 L564.3,3766.0 L607.9,3736.9 L614.1,3732.7 L614.7,3732.2 L615.3,3731.4 L616.2,3729.7 L616.8,3728.2 L617.0,3726.3 L617.0,3724.8 L616.8,3723.4 L616.6,3721.7 L616.5,3720.5 L616.6,3719.4 L616.9,3718.3 L617.7,3716.3 L618.2,3715.2 L619.4,3713.3 L620.8,3711.9 L627.1,3709.3 L632.4,3707.4 L639.2,3705.2 L642.3,3704.3 L647.9,3702.5 L651.9,3701.0 L657.3,3698.8 L664.7,3695.6 L672.7,3691.8 L677.0,3689.7 L682.4,3687.0 L687.4,3684.1 L692.5,3681.1 L697.6,3677.8 L699.2,3676.7 L709.6,3668.8 L718.3,3662.1 L726.8,3654.9 L734.8,3647.4 L740.5,3640.9 L746.2,3634.0 L753.2,3625.0 L759.6,3616.0 L766.9,3604.4 L771.7,3595.5 L774.7,3589.8 L779.2,3580.1 L782.9,3571.2 L786.3,3561.6 L789.0,3553.1 L791.9,3539.4 L794.1,3527.2 L795.3,3516.6 L796.2,3504.3 L796.4,3491.0 L795.5,3478.7 L793.4,3462.8 L791.3,3451.9 L788.7,3441.5 L785.1,3429.9 L781.9,3420.9 L778.3,3411.1 L774.9,3403.1 L772.6,3397.8 L771.6,3394.0 L771.5,3391.0 L771.8,3388.4 L772.9,3386.1 L774.5,3384.1 L776.6,3383.0 L778.8,3382.7 L784.9,3384.2 L801.7,3388.2 L807.3,3260.9 L829.2,3033.6 L805.4,3027.9 L802.8,3020.8 L802.9,3010.6 L806.2,2987.3 L810.7,2982.1 L814.7,2966.9 L839.9,2972.8 L853.9,2827.6 L857.7,2787.3 L849.9,2785.4 L854.6,2766.2 L838.4,2762.4 L840.5,2750.6 L843.3,2742.9 L846.9,2733.8 L852.9,2721.2 L859.3,2722.6 L868.1,2631.3 L870.1,2575.9 L870.5,2565.7 L875.2,2530.4 L884.6,2442.5 L947.0,2279.8 L961.2,2235.5 L1134.5,2169.0 L1151.5,2162.2 L1154.4,2160.6 L1156.8,2158.5 L1159.3,2155.6 L1161.2,2152.1 L1162.5,2148.7 L1162.9,2143.8 L1162.6,2137.6 L1160.3,2059.9 L1159.4,2044.8 L1159.2,2034.4 L1158.9,2014.4 L1158.5,2008.1 L1157.7,2002.8 L1156.6,1998.0 L1155.1,1993.3 L1152.7,1987.6 L1149.1,1981.5 L1145.5,1976.7 L1142.8,1972.2 L1140.1,1966.2 L1137.8,1960.3 L1136.9,1955.6 L1136.2,1950.4 L1135.9,1945.1 L1136.0,1940.0 L1136.6,1934.1 L1138.0,1928.2 L1139.9,1923.0 L1141.8,1918.2 L1144.3,1913.6 L1147.3,1908.1 L1149.4,1903.0 L1151.1,1896.5 L1154.3,1891.7 L1153.2,1847.0 L1151.6,1844.5 L1151.0,1814.2 L1150.2,1778.4 L1150.8,1773.5 L1152.4,1768.4 L1156.4,1760.5 L1183.1,1703.0 L1183.7,1702.0 L1188.4,1691.8 L1192.9,1682.0 L1197.8,1672.0 L1202.8,1661.8 L1205.2,1656.7 L1231.4,1602.8 L1259.5,1543.2 L1320.4,1419.8 L1283.8,1378.9 L1254.0,1442.3 L1228.2,1497.3 L1224.3,1505.1 L1216.4,1521.3 L1200.5,1520.0 L1196.1,1519.7 L1194.6,1521.2 L1196.7,1523.1 L1188.5,1530.3 L1182.1,1536.3 L1180.9,1561.7 L1178.5,1566.8 L1170.7,1566.5 L1169.4,1566.0 L1067.2,1523.9 L1065.0,1522.7 L1062.6,1521.2 L1059.0,1518.4 L1056.1,1515.7 L1053.7,1513.1 L1051.4,1509.9 L1049.6,1507.1 L1048.2,1504.2 L1047.0,1501.1 L1046.3,1499.1 L1045.8,1496.5 L1045.3,1493.5 L1044.9,1489.4 L1044.9,1483.6 L1044.2,1463.7 L1047.0,1463.5 L1046.6,1453.1 L1046.2,1435.8 L1048.8,1435.7 L1048.6,1423.9 L1045.7,1424.0 L1044.3,1374.2 L1047.1,1374.1 L1046.6,1362.5 L1043.9,1362.6 L1042.8,1325.8 L1056.3,1311.3 L1073.5,1310.7 L1086.4,1310.2 L1103.3,1309.7 L1119.6,1309.1 L1134.3,1308.6 L1140.6,1308.4 L1140.3,1302.7 L1140.2,1296.8 L1139.2,1277.7 L1138.9,1241.1 L1138.4,1240.5 L1138.3,1236.8 L1139.4,1236.8 L1136.8,1148.7 L1134.6,1065.9 L1134.2,1063.3 L1134.0,1058.5 L1097.9,1059.8 L1073.9,1057.7 L894.3,1064.0 L894.3,1062.4 L893.9,1054.7 L808.7,1057.7 L808.5,1043.6 L797.3,1041.1 L795.3,980.5 L1126.7,969.0 L1132.2,961.4 L1132.0,939.9 L1131.6,921.4 L1131.3,909.7 L1130.8,898.4 L1104.5,885.9 L1103.4,858.4 L1130.5,845.0 L1128.0,781.3 L1127.3,778.1 L1100.5,765.6 L1099.6,731.5 L1125.1,718.3 L1113.7,579.9 L1116.8,518.2 L1118.2,417.8 L1118.1,308.6 L1120.5,293.2 L1120.7,285.9 L1118.3,276.9 L1120.8,276.9 L1120.8,268.9 L1122.3,63.4 L1122.1,54.2 L1119.2,54.3 L1119.3,16.5 L1117.6,14.1 L1115.1,-24.9 L1120.2,-60.5 L1119.5,-103.7 L1117.8,-114.0 L1120.4,-146.0 L1118.6,-184.6 L1114.1,-226.0 L1105.6,-293.0 L1109.6,-311.4 L1107.9,-329.4 L1092.6,-342.5 L1070.1,-342.2 L1035.9,-337.7 L1013.7,-337.7 L993.4,-345.2 L966.9,-363.4 L966.9,-396.0 L966.2,-436.2 L968.8,-469.6 L977.6,-495.7 L1125.0,-498.4 L1128.3,-707.4 L1128.3,-1008.2 L1126.8,-1117.4 L9082.9,-4403.2 L9082.9,13705.9 L-773.4,13705.9 L-773.4,4713.1 Z" fill="#add7e1" stroke="none"><title>Biscayne Bay</title></path><path d="M86.0,201.1 L83.7,99.9 L176.1,95.6 L153.6,198.3 L86.0,201.1 Z" fill="#ece7dc" stroke="#d7d1c5" stroke-width="0.3"><title>Florida Gas Transmission - Miami</title></path><path d="M160.7,-36.8 L167.5,-16.0 L171.5,80.4 L83.0,85.3 L80.8,-34.5 L160.7,-36.8 Z" fill="#d5f2cb" stroke="#9fcf91" stroke-width="0.4"><title>Dorsey Park</title></path><path d="M160.7,-36.8 L167.5,-16.0 L171.5,80.4 L83.0,85.3 L80.8,-34.5 L160.7,-36.8 Z" fill="url(#park-dots)" stroke="none"/><path d="M160.7,-36.8 L167.5,-16.0 L171.5,80.4 L83.0,85.3 L80.8,-34.5 L160.7,-36.8 Z" fill="url(#park-canopy)" stroke="none"/><path d="M91.4,70.8 L95.4,74.2 L163.8,72.3 L157.8,13.8 L143.9,3.7 L129.6,-3.9 L89.5,-3.0 L91.4,70.8 Z" fill="#c7dfbd" stroke="#8eb580" stroke-width="0.5"></path><path d="M19.9,23.7 L-4.6,24.0 L-4.5,32.9 L20.0,32.6 L19.9,23.7 Z" fill="#d6d2c9" stroke="#bab6ad" stroke-width="0.4"></path><path d="M50.4,46.3 L35.6,46.5 L35.4,38.3 L50.3,38.1 L50.4,46.3 Z" fill="#d6d2c9" stroke="#bab6ad" stroke-width="0.4"></path><path d="M69.9,232.0 L35.4,232.4 L35.3,225.9 L69.9,225.5 L69.9,232.0 Z" fill="#d6d2c9" stroke="#bab6ad" stroke-width="0.4"></path><path d="M66.5,109.4 L44.4,110.3 L44.1,102.4 L66.2,101.4 L66.5,109.4 Z" fill="#d6d2c9" stroke="#bab6ad" stroke-width="0.4"><title>Dorsey Library</title></path><path d="M31.4,203.8 L-5.2,204.6 L-5.4,198.0 L31.2,197.1 L31.4,203.8 Z" fill="#d6d2c9" stroke="#bab6ad" stroke-width="0.4"></path><path d="M70.0,222.5 L34.6,223.4 L34.4,216.7 L69.9,215.7 L70.0,222.5 Z" fill="#d6d2c9" stroke="#bab6ad" stroke-width="0.4"></path><path d="M18.2,81.7 L3.3,82.0 L3.1,73.5 L18.1,73.3 L18.2,81.7 Z" fill="#d6d2c9" stroke="#bab6ad" stroke-width="0.4"></path><path d="M163.7,96.6 L163.9,112.1 L132.9,113.0 L132.2,114.9 L123.5,115.1 L122.9,109.1 L84.4,110.9 L83.9,102.2 L87.2,98.9 L163.7,96.6 Z" fill="#d6d2c9" stroke="#bab6ad" stroke-width="0.4"><title>Teco</title></path><path d="M141.5,141.6 L137.7,141.8 L137.6,136.7 L141.3,136.6 L141.5,141.6 Z" fill="#d6d2c9" stroke="#bab6ad" stroke-width="0.4"></path><path d="M17.2,40.4 L16.9,49.2 L1.9,48.7 L2.2,39.9 L17.2,40.4 Z" fill="#d6d2c9" stroke="#bab6ad" stroke-width="0.4"></path><path d="M51.2,22.4 L51.1,30.9 L33.8,30.6 L33.9,22.1 L51.2,22.4 Z" fill="#d6d2c9" stroke="#bab6ad" stroke-width="0.4"></path><path d="M52.0,62.8 L34.8,63.2 L34.6,55.4 L51.9,55.1 L52.0,62.8 Z" fill="#d6d2c9" stroke="#bab6ad" stroke-width="0.4"></path><path d="M109.8,160.9 L99.2,161.0 L99.2,156.6 L117.4,156.4 L117.5,159.3 L109.8,159.4 L109.8,160.9 Z" fill="#d6d2c9" stroke="#bab6ad" stroke-width="0.4"></path><path d="M2.7,225.3 L2.8,228.7 L-1.7,228.8 L-1.8,225.3 L-4.0,225.4 L-4.1,219.2 L10.4,218.9 L10.6,225.1 L2.7,225.3 Z" fill="#d6d2c9" stroke="#bab6ad" stroke-width="0.4"></path><path d="M19.9,65.4 L3.2,65.5 L3.1,56.4 L19.9,56.3 L19.9,65.4 Z" fill="#d6d2c9" stroke="#bab6ad" stroke-width="0.4"></path><path d="M30.9,193.8 L-4.8,194.9 L-5.0,188.5 L30.7,187.5 L30.9,193.8 Z" fill="#d6d2c9" stroke="#bab6ad" stroke-width="0.4"></path><path d="M65.9,242.3 L55.1,242.3 L55.1,237.5 L58.3,237.5 L58.3,235.5 L65.9,235.5 L65.9,242.3 Z" fill="#d6d2c9" stroke="#bab6ad" stroke-width="0.4"></path><path d="M52.2,80.2 L36.7,80.4 L36.6,71.9 L52.1,71.7 L52.2,80.2 Z" fill="#d6d2c9" stroke="#bab6ad" stroke-width="0.4"></path><path d="M51.4,197.2 L38.2,197.4 L36.4,120.3 L50.0,120.1 L51.4,197.2 Z" fill="#d6d2c9" stroke="#bab6ad" stroke-width="0.4"></path><path d="M238.4,190.2 L224.8,190.5 L224.6,181.9 L235.5,181.5 L235.3,180.0 L238.4,179.9 L238.4,190.2 Z" fill="#d6d2c9" stroke="#bab6ad" stroke-width="0.4"></path><path d="M50.1,4.3 L50.0,12.8 L47.7,13.1 L35.3,12.6 L35.4,4.2 L50.1,4.3 Z" fill="#d6d2c9" stroke="#bab6ad" stroke-width="0.4"></path><path d="M19.5,13.9 L-4.3,14.6 L-4.6,5.3 L19.2,4.6 L19.5,13.9 Z" fill="#d6d2c9" stroke="#bab6ad" stroke-width="0.4"></path><path d="M201.8,111.8 L202.0,115.2 L207.7,114.8 L208.1,121.9 L202.5,122.3 L197.5,122.6 L197.3,120.4 L191.2,120.8 L191.3,123.0 L186.8,123.3 L186.1,112.8 L190.7,112.5 L190.8,114.3 L196.9,113.9 L196.8,112.1 L201.8,111.8 Z" fill="#d6d2c9" stroke="#bab6ad" stroke-width="0.4"></path><path d="M221.6,123.0 L209.4,123.4 L209.2,116.2 L221.4,115.9 L221.6,123.0 Z" fill="#d6d2c9" stroke="#bab6ad" stroke-width="0.4"></path><path d="M15.7,260.2 L3.2,260.6 L3.0,254.4 L15.5,253.9 L15.7,260.2 Z" fill="#d6d2c9" stroke="#bab6ad" stroke-width="0.4"></path><path d="M18.4,251.4 L5.8,251.8 L5.6,245.5 L18.2,245.1 L18.4,251.4 Z" fill="#d6d2c9" stroke="#bab6ad" stroke-width="0.4"></path><path d="M15.3,243.0 L2.7,243.4 L2.5,237.1 L15.1,236.7 L15.3,243.0 Z" fill="#d6d2c9" stroke="#bab6ad" stroke-width="0.4"></path><path d="M256.9,202.4 L247.6,202.9 L176.2,206.2" fill="none" stroke="#cec8bb" stroke-width="3.2" stroke-linecap="round" stroke-linejoin="round"/><path d="M256.9,202.4 L247.6,202.9 L176.2,206.2" fill="none" stroke="#ffffff" stroke-width="2.2" stroke-linecap="round" stroke-linejoin="round"></path><path d="M159.8,306.1 L172.7,238.0 L172.5,218.5 L176.2,206.2" fill="none" stroke="#cec8bb" stroke-width="3.2" stroke-linecap="round" stroke-linejoin="round"/><path d="M159.8,306.1 L172.7,238.0 L172.5,218.5 L176.2,206.2" fill="none" stroke="#ffffff" stroke-width="2.2" stroke-linecap="round" stroke-linejoin="round"></path><path d="M77.4,164.3 L66.2,164.5 L58.9,164.8 L58.3,120.3" fill="none" stroke="#cec8bb" stroke-width="3.2" stroke-linecap="round" stroke-linejoin="round"/><path d="M77.4,164.3 L66.2,164.5 L58.9,164.8 L58.3,120.3" fill="none" stroke="#ffffff" stroke-width="2.2" stroke-linecap="round" stroke-linejoin="round"></path><path d="M58.9,164.8 L59.2,196.5" fill="none" stroke="#cec8bb" stroke-width="3.2" stroke-linecap="round" stroke-linejoin="round"/><path d="M58.9,164.8 L59.2,196.5" fill="none" stroke="#ffffff" stroke-width="2.2" stroke-linecap="round" stroke-linejoin="round"></path><path d="M252.9,16.2 L262.5,16.2 L310.6,15.1" fill="none" stroke="#cec8bb" stroke-width="3.2" stroke-linecap="round" stroke-linejoin="round"/><path d="M252.9,16.2 L262.5,16.2 L310.6,15.1" fill="none" stroke="#ffffff" stroke-width="2.2" stroke-linecap="round" stroke-linejoin="round"></path><path d="M77.1,149.9 L88.1,149.4 L126.6,147.8" fill="none" stroke="#cec8bb" stroke-width="3.2" stroke-linecap="round" stroke-linejoin="round"/><path d="M77.1,149.9 L88.1,149.4 L126.6,147.8" fill="none" stroke="#ffffff" stroke-width="2.2" stroke-linecap="round" stroke-linejoin="round"></path><path d="M202.7,88.2 L203.0,80.6 L204.9,70.4 L237.1,70.1" fill="none" stroke="#cec8bb" stroke-width="3.2" stroke-linecap="round" stroke-linejoin="round"/><path d="M202.7,88.2 L203.0,80.6 L204.9,70.4 L237.1,70.1" fill="none" stroke="#ffffff" stroke-width="2.2" stroke-linecap="round" stroke-linejoin="round"></path><path d="M146.2,206.1 L116.6,207.4 L78.4,209.0 L-11.8,211.8 L-49.0,213.3" fill="none" stroke="#cec8bb" stroke-width="4.3" stroke-linecap="round" stroke-linejoin="round"/><path d="M146.2,206.1 L116.6,207.4 L78.4,209.0 L-11.8,211.8 L-49.0,213.3" fill="none" stroke="#ffffff" stroke-width="3.2" stroke-linecap="round" stroke-linejoin="round"><title>Northwest 16th Street</title></path><path d="M253.5,87.7 L202.7,88.2 L196.4,88.3" fill="none" stroke="#cec8bb" stroke-width="4.3" stroke-linecap="round" stroke-linejoin="round"/><path d="M253.5,87.7 L202.7,88.2 L196.4,88.3" fill="none" stroke="#ffffff" stroke-width="3.2" stroke-linecap="round" stroke-linejoin="round"><title>Northwest 17th Street</title></path><path d="M168.5,89.4 L84.7,91.8 L75.8,92.1 L-15.1,95.4 L-53.1,96.9" fill="none" stroke="#cec8bb" stroke-width="4.3" stroke-linecap="round" stroke-linejoin="round"/><path d="M168.5,89.4 L84.7,91.8 L75.8,92.1 L-15.1,95.4 L-53.1,96.9" fill="none" stroke="#ffffff" stroke-width="3.2" stroke-linecap="round" stroke-linejoin="round"><title>Northwest 17th Street</title></path><path d="M80.7,325.6 L78.4,209.0 L77.4,164.3 L77.1,149.9 L75.8,92.1 L73.5,-41.0 L68.2,-175.6" fill="none" stroke="#cec8bb" stroke-width="4.3" stroke-linecap="round" stroke-linejoin="round"/><path d="M80.7,325.6 L78.4,209.0 L77.4,164.3 L77.1,149.9 L75.8,92.1 L73.5,-41.0 L68.2,-175.6" fill="none" stroke="#ffffff" stroke-width="3.2" stroke-linecap="round" stroke-linejoin="round"><title>Northwest 1st Avenue</title></path><path d="M253.5,87.7 L252.9,16.2 L252.8,-1.9 L250.4,-87.8" fill="none" stroke="#d1c4aa" stroke-width="5.8" stroke-linecap="round" stroke-linejoin="round"/><path d="M253.5,87.7 L252.9,16.2 L252.8,-1.9 L250.4,-87.8" fill="none" stroke="#f1c77d" stroke-width="4.4" stroke-linecap="round" stroke-linejoin="round"><title>North Miami Avenue</title></path><path d="M253.5,87.7 L256.9,202.4 L257.4,225.5 L257.6,234.4 L259.5,318.7" fill="none" stroke="#d1c4aa" stroke-width="5.8" stroke-linecap="round" stroke-linejoin="round"/><path d="M253.5,87.7 L256.9,202.4 L257.4,225.5 L257.6,234.4 L259.5,318.7" fill="none" stroke="#f1c77d" stroke-width="4.4" stroke-linecap="round" stroke-linejoin="round"><title>North Miami Avenue</title></path><path d="M278.8,86.8 L253.5,87.7" fill="none" stroke="#d1c4aa" stroke-width="5.8" stroke-linecap="round" stroke-linejoin="round"/><path d="M278.8,86.8 L253.5,87.7" fill="none" stroke="#f1c77d" stroke-width="4.4" stroke-linecap="round" stroke-linejoin="round"><title>Northeast 17th Street</title></path><path d="M183.9,89.2 L156.1,222.5" fill="none" stroke="#fbf8ef" stroke-width="6.3" stroke-linecap="round" stroke-linejoin="round"/><path d="M183.9,89.2 L156.1,222.5" fill="none" stroke="#465158" stroke-width="4.1" stroke-linecap="round" stroke-linejoin="round"><title>Florida East Coast Railway</title></path><path d="M186.6,95.1 L179.1,93.5" fill="none" stroke="#3f494e" stroke-width="0.9" stroke-linecap="round"/><path d="M184.5,105.2 L176.9,103.7" fill="none" stroke="#3f494e" stroke-width="0.9" stroke-linecap="round"/><path d="M182.4,115.4 L174.8,113.8" fill="none" stroke="#3f494e" stroke-width="0.9" stroke-linecap="round"/><path d="M180.2,125.6 L172.7,124.0" fill="none" stroke="#3f494e" stroke-width="0.9" stroke-linecap="round"/><path d="M178.1,135.8 L170.6,134.2" fill="none" stroke="#3f494e" stroke-width="0.9" stroke-linecap="round"/><path d="M176.0,146.0 L168.5,144.4" fill="none" stroke="#3f494e" stroke-width="0.9" stroke-linecap="round"/><path d="M173.9,156.1 L166.3,154.6" fill="none" stroke="#3f494e" stroke-width="0.9" stroke-linecap="round"/><path d="M171.8,166.3 L164.2,164.8" fill="none" stroke="#3f494e" stroke-width="0.9" stroke-linecap="round"/><path d="M169.6,176.5 L162.1,174.9" fill="none" stroke="#3f494e" stroke-width="0.9" stroke-linecap="round"/><path d="M167.5,186.7 L160.0,185.1" fill="none" stroke="#3f494e" stroke-width="0.9" stroke-linecap="round"/><path d="M165.4,196.9 L157.9,195.3" fill="none" stroke="#3f494e" stroke-width="0.9" stroke-linecap="round"/><path d="M163.3,207.1 L155.8,205.5" fill="none" stroke="#3f494e" stroke-width="0.9" stroke-linecap="round"/><path d="M161.2,217.2 L153.6,215.7" fill="none" stroke="#3f494e" stroke-width="0.9" stroke-linecap="round"/><path d="M183.9,89.2 L156.1,222.5" fill="none" stroke="#ffffff" stroke-width="2.3" stroke-linecap="round" stroke-linejoin="round"/><path d="M167.2,188.3 L139.1,323.7" fill="none" stroke="#fbf8ef" stroke-width="6.3" stroke-linecap="round" stroke-linejoin="round"/><path d="M167.2,188.3 L139.1,323.7" fill="none" stroke="#465158" stroke-width="4.1" stroke-linecap="round" stroke-linejoin="round"><title>Florida East Coast Railway</title></path><path d="M169.9,194.1 L162.4,192.6" fill="none" stroke="#3f494e" stroke-width="0.9" stroke-linecap="round"/><path d="M167.8,204.3 L160.3,202.7" fill="none" stroke="#3f494e" stroke-width="0.9" stroke-linecap="round"/><path d="M165.7,214.5 L158.1,212.9" fill="none" stroke="#3f494e" stroke-width="0.9" stroke-linecap="round"/><path d="M163.6,224.7 L156.0,223.1" fill="none" stroke="#3f494e" stroke-width="0.9" stroke-linecap="round"/><path d="M161.5,234.9 L153.9,233.3" fill="none" stroke="#3f494e" stroke-width="0.9" stroke-linecap="round"/><path d="M159.3,245.0 L151.8,243.5" fill="none" stroke="#3f494e" stroke-width="0.9" stroke-linecap="round"/><path d="M157.2,255.2 L149.7,253.7" fill="none" stroke="#3f494e" stroke-width="0.9" stroke-linecap="round"/><path d="M155.1,265.4 L147.6,263.8" fill="none" stroke="#3f494e" stroke-width="0.9" stroke-linecap="round"/><path d="M153.0,275.6 L145.5,274.0" fill="none" stroke="#3f494e" stroke-width="0.9" stroke-linecap="round"/><path d="M167.2,188.3 L139.1,323.7" fill="none" stroke="#ffffff" stroke-width="2.3" stroke-linecap="round" stroke-linejoin="round"/><path d="M154.7,230.0 L131.5,340.9" fill="none" stroke="#fbf8ef" stroke-width="6.3" stroke-linecap="round" stroke-linejoin="round"/><path d="M154.7,230.0 L131.5,340.9" fill="none" stroke="#465158" stroke-width="4.1" stroke-linecap="round" stroke-linejoin="round"><title>Florida East Coast Railway</title></path><path d="M157.4,235.8 L149.8,234.3" fill="none" stroke="#3f494e" stroke-width="0.9" stroke-linecap="round"/><path d="M155.2,246.0 L147.7,244.4" fill="none" stroke="#3f494e" stroke-width="0.9" stroke-linecap="round"/><path d="M153.1,256.2 L145.6,254.6" fill="none" stroke="#3f494e" stroke-width="0.9" stroke-linecap="round"/><path d="M151.0,266.4 L143.4,264.8" fill="none" stroke="#3f494e" stroke-width="0.9" stroke-linecap="round"/><path d="M154.7,230.0 L131.5,340.9" fill="none" stroke="#ffffff" stroke-width="2.3" stroke-linecap="round" stroke-linejoin="round"/><path d="M156.1,222.5 L154.7,230.0" fill="none" stroke="#fbf8ef" stroke-width="6.3" stroke-linecap="round" stroke-linejoin="round"/><path d="M156.1,222.5 L154.7,230.0" fill="none" stroke="#465158" stroke-width="4.1" stroke-linecap="round" stroke-linejoin="round"><title>Florida East Coast Railway</title></path><path d="M156.1,222.5 L154.7,230.0" fill="none" stroke="#ffffff" stroke-width="2.3" stroke-linecap="round" stroke-linejoin="round"/><path d="M234.4,-131.6 L186.3,96.9" fill="none" stroke="#fbf8ef" stroke-width="6.3" stroke-linecap="round" stroke-linejoin="round"/><path d="M234.4,-131.6 L186.3,96.9" fill="none" stroke="#465158" stroke-width="4.1" stroke-linecap="round" stroke-linejoin="round"><title>Florida East Coast Railway</title></path><path d="M213.5,-13.8 L206.0,-15.4" fill="none" stroke="#3f494e" stroke-width="0.9" stroke-linecap="round"/><path d="M211.4,-3.6 L203.8,-5.2" fill="none" stroke="#3f494e" stroke-width="0.9" stroke-linecap="round"/><path d="M209.2,6.6 L201.7,5.0" fill="none" stroke="#3f494e" stroke-width="0.9" stroke-linecap="round"/><path d="M207.1,16.7 L199.6,15.2" fill="none" stroke="#3f494e" stroke-width="0.9" stroke-linecap="round"/><path d="M204.9,26.9 L197.4,25.3" fill="none" stroke="#3f494e" stroke-width="0.9" stroke-linecap="round"/><path d="M202.8,37.1 L195.3,35.5" fill="none" stroke="#3f494e" stroke-width="0.9" stroke-linecap="round"/><path d="M200.7,47.3 L193.1,45.7" fill="none" stroke="#3f494e" stroke-width="0.9" stroke-linecap="round"/><path d="M198.5,57.5 L191.0,55.9" fill="none" stroke="#3f494e" stroke-width="0.9" stroke-linecap="round"/><path d="M196.4,67.6 L188.8,66.0" fill="none" stroke="#3f494e" stroke-width="0.9" stroke-linecap="round"/><path d="M194.2,77.8 L186.7,76.2" fill="none" stroke="#3f494e" stroke-width="0.9" stroke-linecap="round"/><path d="M192.1,88.0 L184.6,86.4" fill="none" stroke="#3f494e" stroke-width="0.9" stroke-linecap="round"/><path d="M234.4,-131.6 L186.3,96.9" fill="none" stroke="#ffffff" stroke-width="2.3" stroke-linecap="round" stroke-linejoin="round"/><path d="M183.9,89.2 L189.8,60.9 L205.5,-14.7" fill="none" stroke="#fbf8ef" stroke-width="6.3" stroke-linecap="round" stroke-linejoin="round"/><path d="M183.9,89.2 L189.8,60.9 L205.5,-14.7" fill="none" stroke="#465158" stroke-width="4.1" stroke-linecap="round" stroke-linejoin="round"><title>Florida East Coast Railway</title></path><path d="M181.2,83.3 L188.7,84.9" fill="none" stroke="#3f494e" stroke-width="0.9" stroke-linecap="round"/><path d="M183.3,73.1 L190.8,74.7" fill="none" stroke="#3f494e" stroke-width="0.9" stroke-linecap="round"/><path d="M187.1,55.0 L194.6,56.6" fill="none" stroke="#3f494e" stroke-width="0.9" stroke-linecap="round"/><path d="M189.2,44.9 L196.7,46.4" fill="none" stroke="#3f494e" stroke-width="0.9" stroke-linecap="round"/><path d="M191.3,34.7 L198.8,36.3" fill="none" stroke="#3f494e" stroke-width="0.9" stroke-linecap="round"/><path d="M193.4,24.5 L201.0,26.1" fill="none" stroke="#3f494e" stroke-width="0.9" stroke-linecap="round"/><path d="M195.6,14.3 L203.1,15.9" fill="none" stroke="#3f494e" stroke-width="0.9" stroke-linecap="round"/><path d="M197.7,4.1 L205.2,5.7" fill="none" stroke="#3f494e" stroke-width="0.9" stroke-linecap="round"/><path d="M199.8,-6.0 L207.3,-4.5" fill="none" stroke="#3f494e" stroke-width="0.9" stroke-linecap="round"/><path d="M183.9,89.2 L189.8,60.9 L205.5,-14.7" fill="none" stroke="#ffffff" stroke-width="2.3" stroke-linecap="round" stroke-linejoin="round"/><path d="M183.1,113.0 L167.2,188.3" fill="none" stroke="#fbf8ef" stroke-width="6.3" stroke-linecap="round" stroke-linejoin="round"/><path d="M183.1,113.0 L167.2,188.3" fill="none" stroke="#465158" stroke-width="4.1" stroke-linecap="round" stroke-linejoin="round"><title>Florida East Coast Railway</title></path><path d="M185.7,118.8 L178.2,117.2" fill="none" stroke="#3f494e" stroke-width="0.9" stroke-linecap="round"/><path d="M183.6,129.0 L176.1,127.4" fill="none" stroke="#3f494e" stroke-width="0.9" stroke-linecap="round"/><path d="M181.5,139.2 L173.9,137.6" fill="none" stroke="#3f494e" stroke-width="0.9" stroke-linecap="round"/><path d="M179.3,149.4 L171.8,147.8" fill="none" stroke="#3f494e" stroke-width="0.9" stroke-linecap="round"/><path d="M177.2,159.5 L169.6,158.0" fill="none" stroke="#3f494e" stroke-width="0.9" stroke-linecap="round"/><path d="M175.0,169.7 L167.5,168.1" fill="none" stroke="#3f494e" stroke-width="0.9" stroke-linecap="round"/><path d="M172.9,179.9 L165.4,178.3" fill="none" stroke="#3f494e" stroke-width="0.9" stroke-linecap="round"/><path d="M183.1,113.0 L167.2,188.3" fill="none" stroke="#ffffff" stroke-width="2.3" stroke-linecap="round" stroke-linejoin="round"/><path d="M186.3,96.9 L183.1,113.0" fill="none" stroke="#fbf8ef" stroke-width="6.3" stroke-linecap="round" stroke-linejoin="round"/><path d="M186.3,96.9 L183.1,113.0" fill="none" stroke="#465158" stroke-width="4.1" stroke-linecap="round" stroke-linejoin="round"><title>Florida East Coast Railway</title></path><path d="M189.0,102.8 L181.5,101.3" fill="none" stroke="#3f494e" stroke-width="0.9" stroke-linecap="round"/><path d="M186.3,96.9 L183.1,113.0" fill="none" stroke="#ffffff" stroke-width="2.3" stroke-linecap="round" stroke-linejoin="round"/><path d="M127.5,340.1 L160.9,181.5 L183.9,89.2" fill="none" stroke="#fbf8ef" stroke-width="6.3" stroke-linecap="round" stroke-linejoin="round"/><path d="M127.5,340.1 L160.9,181.5 L183.9,89.2" fill="none" stroke="#465158" stroke-width="4.1" stroke-linecap="round" stroke-linejoin="round"><title>Port Branch</title></path><path d="M137.6,273.2 L145.2,274.7" fill="none" stroke="#3f494e" stroke-width="0.9" stroke-linecap="round"/><path d="M139.8,263.0 L147.3,264.6" fill="none" stroke="#3f494e" stroke-width="0.9" stroke-linecap="round"/><path d="M141.9,252.8 L149.4,254.4" fill="none" stroke="#3f494e" stroke-width="0.9" stroke-linecap="round"/><path d="M144.1,242.6 L151.6,244.2" fill="none" stroke="#3f494e" stroke-width="0.9" stroke-linecap="round"/><path d="M146.2,232.4 L153.7,234.0" fill="none" stroke="#3f494e" stroke-width="0.9" stroke-linecap="round"/><path d="M148.3,222.3 L155.9,223.9" fill="none" stroke="#3f494e" stroke-width="0.9" stroke-linecap="round"/><path d="M150.5,212.1 L158.0,213.7" fill="none" stroke="#3f494e" stroke-width="0.9" stroke-linecap="round"/><path d="M152.6,201.9 L160.2,203.5" fill="none" stroke="#3f494e" stroke-width="0.9" stroke-linecap="round"/><path d="M154.8,191.7 L162.3,193.3" fill="none" stroke="#3f494e" stroke-width="0.9" stroke-linecap="round"/><path d="M158.4,175.5 L165.9,177.4" fill="none" stroke="#3f494e" stroke-width="0.9" stroke-linecap="round"/><path d="M160.9,165.4 L168.4,167.3" fill="none" stroke="#3f494e" stroke-width="0.9" stroke-linecap="round"/><path d="M163.4,155.3 L170.9,157.2" fill="none" stroke="#3f494e" stroke-width="0.9" stroke-linecap="round"/><path d="M165.9,145.2 L173.4,147.1" fill="none" stroke="#3f494e" stroke-width="0.9" stroke-linecap="round"/><path d="M168.4,135.2 L175.9,137.0" fill="none" stroke="#3f494e" stroke-width="0.9" stroke-linecap="round"/><path d="M171.0,125.1 L178.4,126.9" fill="none" stroke="#3f494e" stroke-width="0.9" stroke-linecap="round"/><path d="M173.5,115.0 L180.9,116.8" fill="none" stroke="#3f494e" stroke-width="0.9" stroke-linecap="round"/><path d="M176.0,104.9 L183.5,106.7" fill="none" stroke="#3f494e" stroke-width="0.9" stroke-linecap="round"/><path d="M178.5,94.8 L186.0,96.7" fill="none" stroke="#3f494e" stroke-width="0.9" stroke-linecap="round"/><path d="M127.5,340.1 L160.9,181.5 L183.9,89.2" fill="none" stroke="#ffffff" stroke-width="2.3" stroke-linecap="round" stroke-linejoin="round"/><path d="M167.2,188.3 L154.0,267.7 L149.7,292.0 L139.2,342.5" fill="none" stroke="#fbf8ef" stroke-width="6.3" stroke-linecap="round" stroke-linejoin="round"/><path d="M167.2,188.3 L154.0,267.7 L149.7,292.0 L139.2,342.5" fill="none" stroke="#465158" stroke-width="4.1" stroke-linecap="round" stroke-linejoin="round"></path><path d="M170.1,194.0 L162.5,192.8" fill="none" stroke="#3f494e" stroke-width="0.9" stroke-linecap="round"/><path d="M168.4,204.3 L160.8,203.0" fill="none" stroke="#3f494e" stroke-width="0.9" stroke-linecap="round"/><path d="M166.7,214.5 L159.1,213.3" fill="none" stroke="#3f494e" stroke-width="0.9" stroke-linecap="round"/><path d="M165.0,224.8 L157.4,223.5" fill="none" stroke="#3f494e" stroke-width="0.9" stroke-linecap="round"/><path d="M163.3,235.1 L155.7,233.8" fill="none" stroke="#3f494e" stroke-width="0.9" stroke-linecap="round"/><path d="M161.6,245.3 L154.0,244.0" fill="none" stroke="#3f494e" stroke-width="0.9" stroke-linecap="round"/><path d="M159.9,255.6 L152.3,254.3" fill="none" stroke="#3f494e" stroke-width="0.9" stroke-linecap="round"/><path d="M156.9,273.4 L149.3,272.1" fill="none" stroke="#3f494e" stroke-width="0.9" stroke-linecap="round"/><path d="M167.2,188.3 L154.0,267.7 L149.7,292.0 L139.2,342.5" fill="none" stroke="#ffffff" stroke-width="2.3" stroke-linecap="round" stroke-linejoin="round"/><path d="M156.1,222.5 L183.1,113.0" fill="none" stroke="#fbf8ef" stroke-width="6.3" stroke-linecap="round" stroke-linejoin="round"/><path d="M156.1,222.5 L183.1,113.0" fill="none" stroke="#465158" stroke-width="4.1" stroke-linecap="round" stroke-linejoin="round"></path><path d="M153.6,216.6 L161.1,218.4" fill="none" stroke="#3f494e" stroke-width="0.9" stroke-linecap="round"/><path d="M156.1,206.5 L163.6,208.3" fill="none" stroke="#3f494e" stroke-width="0.9" stroke-linecap="round"/><path d="M158.6,196.4 L166.1,198.2" fill="none" stroke="#3f494e" stroke-width="0.9" stroke-linecap="round"/><path d="M161.1,186.3 L168.6,188.1" fill="none" stroke="#3f494e" stroke-width="0.9" stroke-linecap="round"/><path d="M163.6,176.2 L171.0,178.0" fill="none" stroke="#3f494e" stroke-width="0.9" stroke-linecap="round"/><path d="M166.0,166.1 L173.5,167.9" fill="none" stroke="#3f494e" stroke-width="0.9" stroke-linecap="round"/><path d="M168.5,156.0 L176.0,157.8" fill="none" stroke="#3f494e" stroke-width="0.9" stroke-linecap="round"/><path d="M171.0,145.9 L178.5,147.7" fill="none" stroke="#3f494e" stroke-width="0.9" stroke-linecap="round"/><path d="M173.5,135.8 L181.0,137.6" fill="none" stroke="#3f494e" stroke-width="0.9" stroke-linecap="round"/><path d="M176.0,125.7 L183.4,127.5" fill="none" stroke="#3f494e" stroke-width="0.9" stroke-linecap="round"/><path d="M156.1,222.5 L183.1,113.0" fill="none" stroke="#ffffff" stroke-width="2.3" stroke-linecap="round" stroke-linejoin="round"/><path d="M135.4,341.6 L154.7,230.0" fill="none" stroke="#fbf8ef" stroke-width="6.3" stroke-linecap="round" stroke-linejoin="round"/><path d="M135.4,341.6 L154.7,230.0" fill="none" stroke="#465158" stroke-width="4.1" stroke-linecap="round" stroke-linejoin="round"></path><path d="M143.1,274.3 L150.7,275.6" fill="none" stroke="#3f494e" stroke-width="0.9" stroke-linecap="round"/><path d="M144.9,264.0 L152.5,265.4" fill="none" stroke="#3f494e" stroke-width="0.9" stroke-linecap="round"/><path d="M146.6,253.8 L154.2,255.1" fill="none" stroke="#3f494e" stroke-width="0.9" stroke-linecap="round"/><path d="M148.4,243.5 L156.0,244.9" fill="none" stroke="#3f494e" stroke-width="0.9" stroke-linecap="round"/><path d="M135.4,341.6 L154.7,230.0" fill="none" stroke="#ffffff" stroke-width="2.3" stroke-linecap="round" stroke-linejoin="round"/><text x="126.1" y="24.2" text-anchor="middle" font-family="Arial, sans-serif" font-size="8" font-weight="600" paint-order="stroke" stroke="#edf6e8" stroke-width="1.9" stroke-linejoin="round" fill="#4f7d54" textLength="56.3" lengthAdjust="spacing">Dorsey Park</text><text x="55.3" y="105.9" text-anchor="middle" font-family="Arial, sans-serif" font-size="7.4" font-weight="600" paint-order="stroke" stroke="#eee9df" stroke-width="1.65" stroke-linejoin="round" fill="#5d5349" textLength="66.3" lengthAdjust="spacing">Dorsey Library</text><text x="42.9" y="42.3" text-anchor="middle" font-family="Arial, sans-serif" font-size="6.5" textLength="18.0" lengthAdjust="spacing" font-weight="500" paint-order="stroke" stroke="#f3f5ee" stroke-width="1.55" stroke-linejoin="round" fill="#6f777a">1720</text><text x="15.0" y="77.6" text-anchor="middle" font-family="Arial, sans-serif" font-size="6.5" textLength="18.0" lengthAdjust="spacing" font-weight="500" paint-order="stroke" stroke="#f3f5ee" stroke-width="1.55" stroke-linejoin="round" fill="#6f777a">1701</text><text x="15.0" y="44.6" text-anchor="middle" font-family="Arial, sans-serif" font-size="6.5" textLength="18.0" lengthAdjust="spacing" font-weight="500" paint-order="stroke" stroke="#f3f5ee" stroke-width="1.55" stroke-linejoin="round" fill="#6f777a">1721</text><text x="42.5" y="26.5" text-anchor="middle" font-family="Arial, sans-serif" font-size="6.5" textLength="18.0" lengthAdjust="spacing" font-weight="500" paint-order="stroke" stroke="#f3f5ee" stroke-width="1.55" stroke-linejoin="round" fill="#6f777a">1730</text><text x="43.3" y="59.1" text-anchor="middle" font-family="Arial, sans-serif" font-size="6.5" textLength="18.0" lengthAdjust="spacing" font-weight="500" paint-order="stroke" stroke="#f3f5ee" stroke-width="1.55" stroke-linejoin="round" fill="#6f777a">1710</text><text x="15.0" y="60.9" text-anchor="middle" font-family="Arial, sans-serif" font-size="6.5" textLength="18.0" lengthAdjust="spacing" font-weight="500" paint-order="stroke" stroke="#f3f5ee" stroke-width="1.55" stroke-linejoin="round" fill="#6f777a">1711</text><text x="15.0" y="191.2" text-anchor="middle" font-family="Arial, sans-serif" font-size="6.5" textLength="18.0" lengthAdjust="spacing" font-weight="500" paint-order="stroke" stroke="#f3f5ee" stroke-width="1.55" stroke-linejoin="round" fill="#6f777a">1603</text><text x="44.4" y="76.1" text-anchor="middle" font-family="Arial, sans-serif" font-size="6.5" textLength="18.0" lengthAdjust="spacing" font-weight="500" paint-order="stroke" stroke="#f3f5ee" stroke-width="1.55" stroke-linejoin="round" fill="#6f777a">1700</text><text x="44.0" y="158.7" text-anchor="middle" font-family="Arial, sans-serif" font-size="6.5" textLength="18.0" lengthAdjust="spacing" font-weight="500" paint-order="stroke" stroke="#f3f5ee" stroke-width="1.55" stroke-linejoin="round" fill="#6f777a">1600</text><text x="15.0" y="26.1" text-anchor="middle" font-family="Arial, sans-serif" font-size="6.5" textLength="18.0" lengthAdjust="spacing" font-weight="500" paint-order="stroke" stroke="#f3f5ee" stroke-width="1.55" stroke-linejoin="round" fill="#6f777a">1731</text><text x="222.2" y="40.3" text-anchor="middle" font-family="Arial, sans-serif" font-size="6.5" textLength="18.0" lengthAdjust="spacing" font-weight="500" paint-order="stroke" stroke="#f3f5ee" stroke-width="1.55" stroke-linejoin="round" fill="#6f777a">1750</text><text x="212.8" y="140.6" text-anchor="middle" font-family="Arial, sans-serif" font-size="6.5" textLength="18.0" lengthAdjust="spacing" font-weight="500" paint-order="stroke" stroke="#f3f5ee" stroke-width="1.55" stroke-linejoin="round" fill="#6f777a">1600</text><text x="15.0" y="141.3" text-anchor="middle" font-family="Arial, sans-serif" font-size="6.5" textLength="18.0" lengthAdjust="spacing" font-weight="500" paint-order="stroke" stroke="#f3f5ee" stroke-width="1.55" stroke-linejoin="round" fill="#6f777a">1639</text><text x="182.2" y="16.5" text-anchor="middle" font-family="Arial, sans-serif" font-size="6.5" textLength="18.0" lengthAdjust="spacing" font-weight="500" paint-order="stroke" stroke="#f3f5ee" stroke-width="1.55" stroke-linejoin="round" fill="#6f777a">1845</text><text x="60.3" y="239.8" text-anchor="middle" font-family="Arial, sans-serif" font-size="6.5" textLength="18.0" lengthAdjust="spacing" font-weight="500" paint-order="stroke" stroke="#f3f5ee" stroke-width="1.55" stroke-linejoin="round" fill="#6f777a">1540</text><text x="106.4" y="105.7" text-anchor="middle" font-family="Arial, sans-serif" font-size="6.5" textLength="18.0" lengthAdjust="spacing" font-weight="500" paint-order="stroke" stroke="#f3f5ee" stroke-width="1.55" stroke-linejoin="round" fill="#6f777a">60</text><text x="115.9" y="239.6" text-anchor="middle" font-family="Arial, sans-serif" font-size="6.5" textLength="18.0" lengthAdjust="spacing" font-weight="500" paint-order="stroke" stroke="#f3f5ee" stroke-width="1.55" stroke-linejoin="round" fill="#6f777a">1551</text><text x="15.0" y="226.1" text-anchor="middle" font-family="Arial, sans-serif" font-size="6.5" textLength="18.0" lengthAdjust="spacing" font-weight="500" paint-order="stroke" stroke="#f3f5ee" stroke-width="1.55" stroke-linejoin="round" fill="#6f777a">1553</text><text x="15.0" y="162.5" text-anchor="middle" font-family="Arial, sans-serif" font-size="6.5" textLength="18.0" lengthAdjust="spacing" font-weight="500" paint-order="stroke" stroke="#f3f5ee" stroke-width="1.55" stroke-linejoin="round" fill="#6f777a">1629</text><text x="15.0" y="245.0" text-anchor="middle" font-family="Arial, sans-serif" font-size="6.5" textLength="18.0" lengthAdjust="spacing" font-weight="500" paint-order="stroke" stroke="#f3f5ee" stroke-width="1.55" stroke-linejoin="round" fill="#6f777a">1539</text><text x="50.4" y="219.6" text-anchor="middle" font-family="Arial, sans-serif" font-size="6.5" textLength="18.0" lengthAdjust="spacing" font-weight="500" paint-order="stroke" stroke="#f3f5ee" stroke-width="1.55" stroke-linejoin="round" fill="#6f777a">1558</text></svg>