<svg xmlns="http://www.w3.org/2000/svg" width="256" height="256" viewBox="0 0 256 256"><rect width="256" height="256" fill="#f1efe7"/><path d="M-16906.7,9682.3 L-16691.9,9593.0 L-16624.7,9560.7 L-16324.2,9416.4 L-16267.8,9471.0 L-16262.9,9475.7 L-16157.5,9385.5 L-16132.4,9366.4 L-16090.5,9328.6 L-15854.4,9111.8 L-15663.9,8894.2 L-15656.6,8880.3 L-15649.6,8872.4 L-15638.5,8859.7 L-15627.2,8846.8 L-15622.6,8841.5 L-15697.7,8744.4 L-15598.3,8684.8 L-15544.4,8756.5 L-15468.2,8669.3 L-15532.7,8583.9 L-15452.8,8500.6 L-15391.3,8581.6 L-15320.7,8501.2 L-15290.6,8481.5 L-15143.4,8386.0 L-15070.7,8337.7 L-14983.1,8280.1 L-14941.7,8252.9 L-14836.8,8185.2 L-14863.8,8149.7 L-14912.1,8085.0 L-14787.2,8005.6 L-14741.7,7982.1 L-14738.2,7979.6 L-14714.2,7961.1 L-14628.6,7915.3 L-14622.7,7906.1 L-14598.7,7889.6 L-14585.7,7870.6 L-14582.0,7867.8 L-14561.1,7859.7 L-14513.9,7842.8 L-14481.6,7828.6 L-14367.5,7775.0 L-14366.1,7778.7 L-14270.4,7737.8 L-14231.3,7787.9 L-14144.2,7729.8 L-14131.8,7721.3 L-14130.6,7720.3 L-14129.4,7718.7 L-14127.5,7715.4 L-14126.5,7712.3 L-14125.9,7708.6 L-14126.0,7705.6 L-14126.4,7702.7 L-14126.8,7699.4 L-14126.9,7696.9 L-14126.7,7694.8 L-14126.3,7692.6 L-14124.7,7688.6 L-14123.6,7686.4 L-14121.1,7682.6 L-14118.5,7679.8 L-14105.8,7674.7 L-14095.2,7670.7 L-14081.7,7666.3 L-14075.4,7664.6 L-14064.2,7660.9 L-14056.3,7658.1 L-14045.4,7653.6 L-14030.6,7647.1 L-14014.6,7639.6 L-14006.0,7635.4 L-13995.2,7629.9 L-13985.1,7624.3 L-13975.0,7618.3 L-13964.7,7611.6 L-13961.5,7609.4 L-13940.8,7593.6 L-13923.4,7580.2 L-13906.4,7565.8 L-13890.5,7550.8 L-13879.0,7537.9 L-13867.6,7524.0 L-13853.6,7506.0 L-13840.8,7488.0 L-13826.1,7464.9 L-13816.5,7447.0 L-13810.5,7435.6 L-13801.6,7416.3 L-13794.1,7398.4 L-13787.4,7379.1 L-13782.0,7362.2 L-13776.1,7334.8 L-13771.8,7310.3 L-13769.5,7289.3 L-13767.5,7264.5 L-13767.3,7238.0 L-13768.9,7213.5 L-13773.1,7181.5 L-13777.5,7159.7 L-13782.5,7139.1 L-13789.9,7115.7 L-13796.2,7097.8 L-13803.4,7078.3 L-13810.2,7062.1 L-13814.8,7051.6 L-13816.7,7043.9 L-13817.0,7038.0 L-13816.4,7032.7 L-13814.3,7028.1 L-13811.1,7024.2 L-13806.9,7022.0 L-13802.4,7021.4 L-13790.3,7024.3 L-13756.6,7032.4 L-13745.4,6777.7 L-13701.7,6323.1 L-13749.2,6311.9 L-13754.4,6297.6 L-13754.2,6277.1 L-13747.6,6230.6 L-13738.6,6220.1 L-13730.6,6189.9 L-13680.1,6201.6 L-13652.3,5911.1 L-13644.6,5830.7 L-13660.3,5826.8 L-13650.8,5788.4 L-13683.1,5780.7 L-13679.0,5757.2 L-13673.3,5741.7 L-13666.2,5723.6 L-13654.2,5698.3 L-13641.3,5701.2 L-13623.9,5518.5 L-13619.8,5407.7 L-13619.0,5387.3 L-13609.6,5316.8 L-13590.9,5141.1 L-13466.1,4815.7 L-13437.6,4727.0 L-13090.9,4594.0 L-13057.0,4580.4 L-13051.1,4577.2 L-13046.5,4573.0 L-13041.4,4567.1 L-13037.5,4560.2 L-13034.9,4553.4 L-13034.3,4543.5 L-13034.8,4531.2 L-13039.4,4375.7 L-13041.1,4345.6 L-13041.6,4324.9 L-13042.3,4284.7 L-13043.1,4272.1 L-13044.6,4261.5 L-13046.7,4252.1 L-13049.8,4242.5 L-13054.7,4231.2 L-13061.9,4219.1 L-13068.9,4209.5 L-13074.3,4200.4 L-13079.8,4188.3 L-13084.4,4176.7 L-13086.2,4167.2 L-13087.6,4156.7 L-13088.3,4146.2 L-13088.0,4136.0 L-13086.8,4124.1 L-13084.0,4112.4 L-13080.3,4102.0 L-13076.4,4092.5 L-13071.4,4083.3 L-13065.3,4072.1 L-13061.3,4062.0 L-13057.8,4049.1 L-13051.4,4039.3 L-13053.6,3950.1 L-13056.9,3944.9 L-13057.9,3884.3 L-13059.6,3812.8 L-13058.4,3802.9 L-13055.2,3792.8 L-13047.2,3777.0 L-12993.7,3661.9 L-12992.6,3660.0 L-12983.2,3639.5 L-12974.3,3620.1 L-12964.3,3600.1 L-12954.5,3579.5 L-12949.7,3569.5 L-12897.1,3461.6 L-12840.9,3342.4 L-12719.3,3095.6 L-12792.4,3013.7 L-12852.0,3140.7 L-12903.5,3250.6 L-12911.3,3266.2 L-12927.2,3298.7 L-12959.0,3296.0 L-12967.7,3295.5 L-12970.8,3298.3 L-12966.6,3302.1 L-12982.9,3316.6 L-12995.8,3328.5 L-12998.2,3379.4 L-13003.0,3389.6 L-13018.6,3389.0 L-13021.2,3388.1 L-13225.6,3303.7 L-13230.0,3301.4 L-13234.7,3298.4 L-13242.1,3292.8 L-13247.8,3287.4 L-13252.6,3282.2 L-13257.3,3275.8 L-13260.9,3270.2 L-13263.7,3264.4 L-13265.9,3258.3 L-13267.4,3254.1 L-13268.5,3249.0 L-13269.3,3243.0 L-13270.1,3234.8 L-13270.1,3223.1 L-13271.5,3183.4 L-13265.9,3183.1 L-13266.7,3162.1 L-13267.6,3127.5 L-13262.4,3127.4 L-13262.8,3103.8 L-13268.7,3103.9 L-13271.4,3004.5 L-13265.8,3004.2 L-13266.7,2980.9 L-13272.1,2981.1 L-13274.4,2907.6 L-13247.4,2878.5 L-13212.9,2877.3 L-13187.2,2876.4 L-13153.3,2875.3 L-13120.7,2874.3 L-13091.5,2873.3 L-13078.8,2872.7 L-13079.4,2861.4 L-13079.6,2849.6 L-13081.5,2811.3 L-13082.2,2738.2 L-13083.2,2736.9 L-13083.4,2729.7 L-13081.3,2729.6 L-13086.4,2553.5 L-13090.8,2387.8 L-13091.5,2382.6 L-13091.9,2373.0 L-13164.1,2375.6 L-13212.1,2371.5 L-13571.4,2384.0 L-13571.5,2380.8 L-13572.2,2365.5 L-13742.6,2371.5 L-13742.9,2343.2 L-13765.4,2338.1 L-13769.4,2217.0 L-13106.6,2194.0 L-13095.6,2178.9 L-13096.0,2135.9 L-13096.8,2098.7 L-13097.4,2075.4 L-13098.3,2052.7 L-13151.0,2027.9 L-13153.1,1972.8 L-13099.1,1946.0 L-13104.0,1818.5 L-13105.4,1812.2 L-13159.1,1787.1 L-13160.8,1718.9 L-13109.8,1692.6 L-13132.5,1415.7 L-13126.5,1292.5 L-13123.5,1091.6 L-13123.7,873.1 L-13118.9,842.5 L-13118.6,827.7 L-13123.4,809.9 L-13118.4,809.9 L-13118.4,793.8 L-13115.4,382.8 L-13115.9,364.5 L-13121.6,364.5 L-13121.4,288.9 L-13124.7,284.2 L-13129.9,206.2 L-13119.6,134.9 L-13120.9,48.6 L-13124.4,27.9 L-13119.1,-36.0 L-13122.7,-113.3 L-13131.7,-196.0 L-13148.8,-330.0 L-13140.7,-366.9 L-13144.3,-402.8 L-13174.9,-428.9 L-13219.8,-428.5 L-13288.2,-419.5 L-13332.7,-419.5 L-13373.1,-434.3 L-13426.2,-470.7 L-13426.2,-536.0 L-13427.6,-616.3 L-13422.4,-683.2 L-13404.8,-735.4 L-13110.1,-740.9 L-13103.3,-1158.8 L-13103.3,-1760.4 L-13106.4,-1978.7 L2805.8,-8550.4 L2805.8,27667.8 L-16906.7,27667.8 L-16906.7,9682.3 Z" fill="#add7e1" stroke="none"><title>Biscayne Bay</title></path><path d="M-1.0,-1.0 L257.0,-1.0 L257.0,257.0 L-1.0,257.0 L-1.0,-1.0 Z" fill="#add7e1" stroke="none" fill-rule="evenodd"><title>Biscayne Bay</title></path></svg>