<svg xmlns="http://www.w3.org/2000/svg" width="256" height="256" viewBox="0 0 256 256"><rect width="256" height="256" fill="#f1efe7"/><path d="M-16138.7,11730.3 L-15923.9,11641.0 L-15856.7,11608.7 L-15556.2,11464.4 L-15499.8,11519.0 L-15494.9,11523.7 L-15389.5,11433.5 L-15364.4,11414.4 L-15322.5,11376.6 L-15086.4,11159.8 L-14895.9,10942.2 L-14888.6,10928.3 L-14881.6,10920.4 L-14870.5,10907.7 L-14859.2,10894.8 L-14854.6,10889.5 L-14929.7,10792.4 L-14830.3,10732.8 L-14776.4,10804.5 L-14700.2,10717.3 L-14764.7,10631.9 L-14684.8,10548.6 L-14623.3,10629.6 L-14552.7,10549.2 L-14522.6,10529.5 L-14375.4,10434.0 L-14302.7,10385.7 L-14215.1,10328.1 L-14173.7,10300.9 L-14068.8,10233.2 L-14095.8,10197.7 L-14144.1,10133.0 L-14019.2,10053.6 L-13973.7,10030.1 L-13970.2,10027.6 L-13946.2,10009.1 L-13860.6,9963.3 L-13854.7,9954.1 L-13830.7,9937.6 L-13817.7,9918.6 L-13814.0,9915.8 L-13793.1,9907.7 L-13745.9,9890.8 L-13713.6,9876.6 L-13599.5,9823.0 L-13598.1,9826.7 L-13502.4,9785.8 L-13463.3,9835.9 L-13376.2,9777.8 L-13363.8,9769.3 L-13362.6,9768.3 L-13361.4,9766.7 L-13359.5,9763.4 L-13358.5,9760.3 L-13357.9,9756.6 L-13358.0,9753.6 L-13358.4,9750.7 L-13358.8,9747.4 L-13358.9,9744.9 L-13358.7,9742.8 L-13358.3,9740.6 L-13356.7,9736.6 L-13355.6,9734.4 L-13353.1,9730.6 L-13350.5,9727.8 L-13337.8,9722.7 L-13327.2,9718.7 L-13313.7,9714.3 L-13307.4,9712.6 L-13296.2,9708.9 L-13288.3,9706.1 L-13277.4,9701.6 L-13262.6,9695.1 L-13246.6,9687.6 L-13238.0,9683.4 L-13227.2,9677.9 L-13217.1,9672.3 L-13207.0,9666.3 L-13196.7,9659.6 L-13193.5,9657.4 L-13172.8,9641.6 L-13155.4,9628.2 L-13138.4,9613.8 L-13122.5,9598.8 L-13111.0,9585.9 L-13099.6,9572.0 L-13085.6,9554.0 L-13072.8,9536.0 L-13058.1,9512.9 L-13048.5,9495.0 L-13042.5,9483.6 L-13033.6,9464.3 L-13026.1,9446.4 L-13019.4,9427.1 L-13014.0,9410.2 L-13008.1,9382.8 L-13003.8,9358.3 L-13001.5,9337.3 L-12999.5,9312.5 L-12999.3,9286.0 L-13000.9,9261.5 L-13005.1,9229.5 L-13009.5,9207.7 L-13014.5,9187.1 L-13021.9,9163.7 L-13028.2,9145.8 L-13035.4,9126.3 L-13042.2,9110.1 L-13046.8,9099.6 L-13048.7,9091.9 L-13049.0,9086.0 L-13048.4,9080.7 L-13046.3,9076.1 L-13043.1,9072.2 L-13038.9,9070.0 L-13034.4,9069.4 L-13022.3,9072.3 L-12988.6,9080.4 L-12977.4,8825.7 L-12933.7,8371.1 L-12981.2,8359.9 L-12986.4,8345.6 L-12986.2,8325.1 L-12979.6,8278.6 L-12970.6,8268.1 L-12962.6,8237.9 L-12912.1,8249.6 L-12884.3,7959.1 L-12876.6,7878.7 L-12892.3,7874.8 L-12882.8,7836.4 L-12915.1,7828.7 L-12911.0,7805.2 L-12905.3,7789.7 L-12898.2,7771.6 L-12886.2,7746.3 L-12873.3,7749.2 L-12855.9,7566.5 L-12851.8,7455.7 L-12851.0,7435.3 L-12841.6,7364.8 L-12822.9,7189.1 L-12698.1,6863.7 L-12669.6,6775.0 L-12322.9,6642.0 L-12289.0,6628.4 L-12283.1,6625.2 L-12278.5,6621.0 L-12273.4,6615.1 L-12269.5,6608.2 L-12266.9,6601.4 L-12266.3,6591.5 L-12266.8,6579.2 L-12271.4,6423.7 L-12273.1,6393.6 L-12273.6,6372.9 L-12274.3,6332.7 L-12275.1,6320.1 L-12276.6,6309.5 L-12278.7,6300.1 L-12281.8,6290.5 L-12286.7,6279.2 L-12293.9,6267.1 L-12300.9,6257.5 L-12306.3,6248.4 L-12311.8,6236.3 L-12316.4,6224.7 L-12318.2,6215.2 L-12319.6,6204.7 L-12320.3,6194.2 L-12320.0,6184.0 L-12318.8,6172.1 L-12316.0,6160.4 L-12312.3,6150.0 L-12308.4,6140.5 L-12303.4,6131.3 L-12297.3,6120.1 L-12293.3,6110.0 L-12289.8,6097.1 L-12283.4,6087.3 L-12285.6,5998.1 L-12288.9,5992.9 L-12289.9,5932.3 L-12291.6,5860.8 L-12290.4,5850.9 L-12287.2,5840.8 L-12279.2,5825.0 L-12225.7,5709.9 L-12224.6,5708.0 L-12215.2,5687.5 L-12206.3,5668.1 L-12196.3,5648.1 L-12186.5,5627.5 L-12181.7,5617.5 L-12129.1,5509.6 L-12072.9,5390.4 L-11951.3,5143.6 L-12024.4,5061.7 L-12084.0,5188.7 L-12135.5,5298.6 L-12143.3,5314.2 L-12159.2,5346.7 L-12191.0,5344.0 L-12199.7,5343.5 L-12202.8,5346.3 L-12198.6,5350.1 L-12214.9,5364.6 L-12227.8,5376.5 L-12230.2,5427.4 L-12235.0,5437.6 L-12250.6,5437.0 L-12253.2,5436.1 L-12457.6,5351.7 L-12462.0,5349.4 L-12466.7,5346.4 L-12474.1,5340.8 L-12479.8,5335.4 L-12484.6,5330.2 L-12489.3,5323.8 L-12492.9,5318.2 L-12495.7,5312.4 L-12497.9,5306.3 L-12499.4,5302.1 L-12500.5,5297.0 L-12501.3,5291.0 L-12502.1,5282.8 L-12502.1,5271.1 L-12503.5,5231.4 L-12497.9,5231.1 L-12498.7,5210.1 L-12499.6,5175.5 L-12494.4,5175.4 L-12494.8,5151.8 L-12500.7,5151.9 L-12503.4,5052.5 L-12497.8,5052.2 L-12498.7,5028.9 L-12504.1,5029.1 L-12506.4,4955.6 L-12479.4,4926.5 L-12444.9,4925.3 L-12419.2,4924.4 L-12385.3,4923.3 L-12352.7,4922.3 L-12323.5,4921.3 L-12310.8,4920.7 L-12311.4,4909.4 L-12311.6,4897.6 L-12313.5,4859.3 L-12314.2,4786.2 L-12315.2,4784.9 L-12315.4,4777.7 L-12313.3,4777.6 L-12318.4,4601.5 L-12322.8,4435.8 L-12323.5,4430.6 L-12323.9,4421.0 L-12396.1,4423.6 L-12444.1,4419.5 L-12803.4,4432.0 L-12803.5,4428.8 L-12804.2,4413.5 L-12974.6,4419.5 L-12974.9,4391.2 L-12997.4,4386.1 L-13001.4,4265.0 L-12338.6,4242.0 L-12327.6,4226.9 L-12328.0,4183.9 L-12328.8,4146.7 L-12329.4,4123.4 L-12330.3,4100.7 L-12383.0,4075.9 L-12385.1,4020.8 L-12331.1,3994.0 L-12336.0,3866.5 L-12337.4,3860.2 L-12391.1,3835.1 L-12392.8,3766.9 L-12341.8,3740.6 L-12364.5,3463.7 L-12358.5,3340.5 L-12355.5,3139.6 L-12355.7,2921.1 L-12350.9,2890.5 L-12350.6,2875.7 L-12355.4,2857.9 L-12350.4,2857.9 L-12350.4,2841.8 L-12347.4,2430.8 L-12347.9,2412.5 L-12353.6,2412.5 L-12353.4,2336.9 L-12356.7,2332.2 L-12361.9,2254.2 L-12351.6,2182.9 L-12352.9,2096.6 L-12356.4,2075.9 L-12351.1,2012.0 L-12354.7,1934.7 L-12363.7,1852.0 L-12380.8,1718.0 L-12372.7,1681.1 L-12376.3,1645.2 L-12406.9,1619.1 L-12451.8,1619.5 L-12520.2,1628.5 L-12564.7,1628.5 L-12605.1,1613.7 L-12658.2,1577.3 L-12658.2,1512.0 L-12659.6,1431.7 L-12654.4,1364.8 L-12636.8,1312.6 L-12342.1,1307.1 L-12335.3,889.2 L-12335.3,287.6 L-12338.4,69.3 L3573.8,-6502.4 L3573.8,29715.8 L-16138.7,29715.8 L-16138.7,11730.3 Z" fill="#add7e1" stroke="none"><title>Biscayne Bay</title></path><path d="M-1.0,-1.0 L257.0,-1.0 L257.0,257.0 L-1.0,257.0 L-1.0,-1.0 Z" fill="#add7e1" stroke="none" fill-rule="evenodd"><title>Biscayne Bay</title></path></svg>