<svg xmlns="http://www.w3.org/2000/svg" width="256" height="256" viewBox="0 0 256 256"><rect width="256" height="256" fill="#f1efe7"/><path d="M-16138.7,-13869.7 L-15923.9,-13959.0 L-15856.7,-13991.3 L-15556.2,-14135.6 L-15499.8,-14081.0 L-15494.9,-14076.3 L-15389.5,-14166.5 L-15364.4,-14185.6 L-15322.5,-14223.4 L-15086.4,-14440.2 L-14895.9,-14657.8 L-14888.6,-14671.7 L-14881.6,-14679.6 L-14870.5,-14692.3 L-14859.2,-14705.2 L-14854.6,-14710.5 L-14929.7,-14807.6 L-14830.3,-14867.2 L-14776.4,-14795.5 L-14700.2,-14882.7 L-14764.7,-14968.1 L-14684.8,-15051.4 L-14623.3,-14970.4 L-14552.7,-15050.8 L-14522.6,-15070.5 L-14375.4,-15166.0 L-14302.7,-15214.3 L-14215.1,-15271.9 L-14173.7,-15299.1 L-14068.8,-15366.8 L-14095.8,-15402.3 L-14144.1,-15467.0 L-14019.2,-15546.4 L-13973.7,-15569.9 L-13970.2,-15572.4 L-13946.2,-15590.9 L-13860.6,-15636.7 L-13854.7,-15645.9 L-13830.7,-15662.4 L-13817.7,-15681.4 L-13814.0,-15684.2 L-13793.1,-15692.3 L-13745.9,-15709.2 L-13713.6,-15723.4 L-13599.5,-15777.0 L-13598.1,-15773.3 L-13502.4,-15814.2 L-13463.3,-15764.1 L-13376.2,-15822.2 L-13363.8,-15830.7 L-13362.6,-15831.7 L-13361.4,-15833.3 L-13359.5,-15836.6 L-13358.5,-15839.7 L-13357.9,-15843.4 L-13358.0,-15846.4 L-13358.4,-15849.3 L-13358.8,-15852.6 L-13358.9,-15855.1 L-13358.7,-15857.2 L-13358.3,-15859.4 L-13356.7,-15863.4 L-13355.6,-15865.6 L-13353.1,-15869.4 L-13350.5,-15872.2 L-13337.8,-15877.3 L-13327.2,-15881.3 L-13313.7,-15885.7 L-13307.4,-15887.4 L-13296.2,-15891.1 L-13288.3,-15893.9 L-13277.4,-15898.4 L-13262.6,-15904.9 L-13246.6,-15912.4 L-13238.0,-15916.6 L-13227.2,-15922.1 L-13217.1,-15927.7 L-13207.0,-15933.7 L-13196.7,-15940.4 L-13193.5,-15942.6 L-13172.8,-15958.4 L-13155.4,-15971.8 L-13138.4,-15986.2 L-13122.5,-16001.2 L-13111.0,-16014.1 L-13099.6,-16028.0 L-13085.6,-16046.0 L-13072.8,-16064.0 L-13058.1,-16087.1 L-13048.5,-16105.0 L-13042.5,-16116.4 L-13033.6,-16135.7 L-13026.1,-16153.6 L-13019.4,-16172.9 L-13014.0,-16189.8 L-13008.1,-16217.2 L-13003.8,-16241.7 L-13001.5,-16262.7 L-12999.5,-16287.5 L-12999.3,-16314.0 L-13000.9,-16338.5 L-13005.1,-16370.5 L-13009.5,-16392.3 L-13014.5,-16412.9 L-13021.9,-16436.3 L-13028.2,-16454.2 L-13035.4,-16473.7 L-13042.2,-16489.9 L-13046.8,-16500.4 L-13048.7,-16508.1 L-13049.0,-16514.0 L-13048.4,-16519.3 L-13046.3,-16523.9 L-13043.1,-16527.8 L-13038.9,-16530.0 L-13034.4,-16530.6 L-13022.3,-16527.7 L-12988.6,-16519.6 L-12977.4,-16774.3 L-12933.7,-17228.9 L-12981.2,-17240.1 L-12986.4,-17254.4 L-12986.2,-17274.9 L-12979.6,-17321.4 L-12970.6,-17331.9 L-12962.6,-17362.1 L-12912.1,-17350.4 L-12884.3,-17640.9 L-12876.6,-17721.3 L-12892.3,-17725.2 L-12882.8,-17763.6 L-12915.1,-17771.3 L-12911.0,-17794.8 L-12905.3,-17810.3 L-12898.2,-17828.4 L-12886.2,-17853.7 L-12873.3,-17850.8 L-12855.9,-18033.5 L-12851.8,-18144.3 L-12851.0,-18164.7 L-12841.6,-18235.2 L-12822.9,-18410.9 L-12698.1,-18736.3 L-12669.6,-18825.0 L-12322.9,-18958.0 L-12289.0,-18971.6 L-12283.1,-18974.8 L-12278.5,-18979.0 L-12273.4,-18984.9 L-12269.5,-18991.8 L-12266.9,-18998.6 L-12266.3,-19008.5 L-12266.8,-19020.8 L-12271.4,-19176.3 L-12273.1,-19206.4 L-12273.6,-19227.1 L-12274.3,-19267.3 L-12275.1,-19279.9 L-12276.6,-19290.5 L-12278.7,-19299.9 L-12281.8,-19309.5 L-12286.7,-19320.8 L-12293.9,-19332.9 L-12300.9,-19342.5 L-12306.3,-19351.6 L-12311.8,-19363.7 L-12316.4,-19375.3 L-12318.2,-19384.8 L-12319.6,-19395.3 L-12320.3,-19405.8 L-12320.0,-19416.0 L-12318.8,-19427.9 L-12316.0,-19439.6 L-12312.3,-19450.0 L-12308.4,-19459.5 L-12303.4,-19468.7 L-12297.3,-19479.9 L-12293.3,-19490.0 L-12289.8,-19502.9 L-12283.4,-19512.7 L-12285.6,-19601.9 L-12288.9,-19607.1 L-12289.9,-19667.7 L-12291.6,-19739.2 L-12290.4,-19749.1 L-12287.2,-19759.2 L-12279.2,-19775.0 L-12225.7,-19890.1 L-12224.6,-19892.0 L-12215.2,-19912.5 L-12206.3,-19931.9 L-12196.3,-19951.9 L-12186.5,-19972.5 L-12181.7,-19982.5 L-12129.1,-20090.4 L-12072.9,-20209.6 L-11951.3,-20456.4 L-12024.4,-20538.3 L-12084.0,-20411.3 L-12135.5,-20301.4 L-12143.3,-20285.8 L-12159.2,-20253.3 L-12191.0,-20256.0 L-12199.7,-20256.5 L-12202.8,-20253.7 L-12198.6,-20249.9 L-12214.9,-20235.4 L-12227.8,-20223.5 L-12230.2,-20172.6 L-12235.0,-20162.4 L-12250.6,-20163.0 L-12253.2,-20163.9 L-12457.6,-20248.3 L-12462.0,-20250.6 L-12466.7,-20253.6 L-12474.1,-20259.2 L-12479.8,-20264.6 L-12484.6,-20269.8 L-12489.3,-20276.2 L-12492.9,-20281.8 L-12495.7,-20287.6 L-12497.9,-20293.7 L-12499.4,-20297.9 L-12500.5,-20303.0 L-12501.3,-20309.0 L-12502.1,-20317.2 L-12502.1,-20328.9 L-12503.5,-20368.6 L-12497.9,-20368.9 L-12498.7,-20389.9 L-12499.6,-20424.5 L-12494.4,-20424.6 L-12494.8,-20448.2 L-12500.7,-20448.1 L-12503.4,-20547.5 L-12497.8,-20547.8 L-12498.7,-20571.1 L-12504.1,-20570.9 L-12506.4,-20644.4 L-12479.4,-20673.5 L-12444.9,-20674.7 L-12419.2,-20675.6 L-12385.3,-20676.7 L-12352.7,-20677.7 L-12323.5,-20678.7 L-12310.8,-20679.3 L-12311.4,-20690.6 L-12311.6,-20702.4 L-12313.5,-20740.7 L-12314.2,-20813.8 L-12315.2,-20815.1 L-12315.4,-20822.3 L-12313.3,-20822.4 L-12318.4,-20998.5 L-12322.8,-21164.2 L-12323.5,-21169.4 L-12323.9,-21179.0 L-12396.1,-21176.4 L-12444.1,-21180.5 L-12803.4,-21168.0 L-12803.5,-21171.2 L-12804.2,-21186.5 L-12974.6,-21180.5 L-12974.9,-21208.8 L-12997.4,-21213.9 L-13001.4,-21335.0 L-12338.6,-21358.0 L-12327.6,-21373.1 L-12328.0,-21416.1 L-12328.8,-21453.3 L-12329.4,-21476.6 L-12330.3,-21499.3 L-12383.0,-21524.1 L-12385.1,-21579.2 L-12331.1,-21606.0 L-12336.0,-21733.5 L-12337.4,-21739.8 L-12391.1,-21764.9 L-12392.8,-21833.1 L-12341.8,-21859.4 L-12364.5,-22136.3 L-12358.5,-22259.5 L-12355.5,-22460.4 L-12355.7,-22678.9 L-12350.9,-22709.5 L-12350.6,-22724.3 L-12355.4,-22742.1 L-12350.4,-22742.1 L-12350.4,-22758.2 L-12347.4,-23169.2 L-12347.9,-23187.5 L-12353.6,-23187.5 L-12353.4,-23263.1 L-12356.7,-23267.8 L-12361.9,-23345.8 L-12351.6,-23417.1 L-12352.9,-23503.4 L-12356.4,-23524.1 L-12351.1,-23588.0 L-12354.7,-23665.3 L-12363.7,-23748.0 L-12380.8,-23882.0 L-12372.7,-23918.9 L-12376.3,-23954.8 L-12406.9,-23980.9 L-12451.8,-23980.5 L-12520.2,-23971.5 L-12564.7,-23971.5 L-12605.1,-23986.3 L-12658.2,-24022.7 L-12658.2,-24088.0 L-12659.6,-24168.3 L-12654.4,-24235.2 L-12636.8,-24287.4 L-12342.1,-24292.9 L-12335.3,-24710.8 L-12335.3,-25312.4 L-12338.4,-25530.7 L3573.8,-32102.4 L3573.8,4115.8 L-16138.7,4115.8 L-16138.7,-13869.7 Z" fill="#add7e1" stroke="none"><title>Biscayne Bay</title></path></svg>