<svg xmlns="http://www.w3.org/2000/svg" width="256" height="256" viewBox="0 0 256 256"><rect width="256" height="256" fill="#f1efe7"/><path d="M-4874.7,-9261.7 L-4659.9,-9351.0 L-4592.7,-9383.3 L-4292.2,-9527.6 L-4235.8,-9473.0 L-4230.9,-9468.3 L-4125.5,-9558.5 L-4100.4,-9577.6 L-4058.5,-9615.4 L-3822.4,-9832.2 L-3631.9,-10049.8 L-3624.6,-10063.7 L-3617.6,-10071.6 L-3606.5,-10084.3 L-3595.2,-10097.2 L-3590.6,-10102.5 L-3665.7,-10199.6 L-3566.3,-10259.2 L-3512.4,-10187.5 L-3436.2,-10274.7 L-3500.7,-10360.1 L-3420.8,-10443.4 L-3359.3,-10362.4 L-3288.7,-10442.8 L-3258.6,-10462.5 L-3111.4,-10558.0 L-3038.7,-10606.3 L-2951.1,-10663.9 L-2909.7,-10691.1 L-2804.8,-10758.8 L-2831.8,-10794.3 L-2880.1,-10859.0 L-2755.2,-10938.4 L-2709.7,-10961.9 L-2706.2,-10964.4 L-2682.2,-10982.9 L-2596.6,-11028.7 L-2590.7,-11037.9 L-2566.7,-11054.4 L-2553.7,-11073.4 L-2550.0,-11076.2 L-2529.1,-11084.3 L-2481.9,-11101.2 L-2449.6,-11115.4 L-2335.5,-11169.0 L-2334.1,-11165.3 L-2238.4,-11206.2 L-2199.3,-11156.1 L-2112.2,-11214.2 L-2099.8,-11222.7 L-2098.6,-11223.7 L-2097.4,-11225.3 L-2095.5,-11228.6 L-2094.5,-11231.7 L-2093.9,-11235.4 L-2094.0,-11238.4 L-2094.4,-11241.3 L-2094.8,-11244.6 L-2094.9,-11247.1 L-2094.7,-11249.2 L-2094.3,-11251.4 L-2092.7,-11255.4 L-2091.6,-11257.6 L-2089.1,-11261.4 L-2086.5,-11264.2 L-2073.8,-11269.3 L-2063.2,-11273.3 L-2049.7,-11277.7 L-2043.4,-11279.4 L-2032.2,-11283.1 L-2024.3,-11285.9 L-2013.4,-11290.4 L-1998.6,-11296.9 L-1982.6,-11304.4 L-1974.0,-11308.6 L-1963.2,-11314.1 L-1953.1,-11319.7 L-1943.0,-11325.7 L-1932.7,-11332.4 L-1929.5,-11334.6 L-1908.8,-11350.4 L-1891.4,-11363.8 L-1874.4,-11378.2 L-1858.5,-11393.2 L-1847.0,-11406.1 L-1835.6,-11420.0 L-1821.6,-11438.0 L-1808.8,-11456.0 L-1794.1,-11479.1 L-1784.5,-11497.0 L-1778.5,-11508.4 L-1769.6,-11527.7 L-1762.1,-11545.6 L-1755.4,-11564.9 L-1750.0,-11581.8 L-1744.1,-11609.2 L-1739.8,-11633.7 L-1737.5,-11654.7 L-1735.5,-11679.5 L-1735.3,-11706.0 L-1736.9,-11730.5 L-1741.1,-11762.5 L-1745.5,-11784.3 L-1750.5,-11804.9 L-1757.9,-11828.3 L-1764.2,-11846.2 L-1771.4,-11865.7 L-1778.2,-11881.9 L-1782.8,-11892.4 L-1784.7,-11900.1 L-1785.0,-11906.0 L-1784.4,-11911.3 L-1782.3,-11915.9 L-1779.1,-11919.8 L-1774.9,-11922.0 L-1770.4,-11922.6 L-1758.3,-11919.7 L-1724.6,-11911.6 L-1713.4,-12166.3 L-1669.7,-12620.9 L-1717.2,-12632.1 L-1722.4,-12646.4 L-1722.2,-12666.9 L-1715.6,-12713.4 L-1706.6,-12723.9 L-1698.6,-12754.1 L-1648.1,-12742.4 L-1620.3,-13032.9 L-1612.6,-13113.3 L-1628.3,-13117.2 L-1618.8,-13155.6 L-1651.1,-13163.3 L-1647.0,-13186.8 L-1641.3,-13202.3 L-1634.2,-13220.4 L-1622.2,-13245.7 L-1609.3,-13242.8 L-1591.9,-13425.5 L-1587.8,-13536.3 L-1587.0,-13556.7 L-1577.6,-13627.2 L-1558.9,-13802.9 L-1434.1,-14128.3 L-1405.6,-14217.0 L-1058.9,-14350.0 L-1025.0,-14363.6 L-1019.1,-14366.8 L-1014.5,-14371.0 L-1009.4,-14376.9 L-1005.5,-14383.8 L-1002.9,-14390.6 L-1002.3,-14400.5 L-1002.8,-14412.8 L-1007.4,-14568.3 L-1009.1,-14598.4 L-1009.6,-14619.1 L-1010.3,-14659.3 L-1011.1,-14671.9 L-1012.6,-14682.5 L-1014.7,-14691.9 L-1017.8,-14701.5 L-1022.7,-14712.8 L-1029.9,-14724.9 L-1036.9,-14734.5 L-1042.3,-14743.6 L-1047.8,-14755.7 L-1052.4,-14767.3 L-1054.2,-14776.8 L-1055.6,-14787.3 L-1056.3,-14797.8 L-1056.0,-14808.0 L-1054.8,-14819.9 L-1052.0,-14831.6 L-1048.3,-14842.0 L-1044.4,-14851.5 L-1039.4,-14860.7 L-1033.3,-14871.9 L-1029.3,-14882.0 L-1025.8,-14894.9 L-1019.4,-14904.7 L-1021.6,-14993.9 L-1024.9,-14999.1 L-1025.9,-15059.7 L-1027.6,-15131.2 L-1026.4,-15141.1 L-1023.2,-15151.2 L-1015.2,-15167.0 L-961.7,-15282.1 L-960.6,-15284.0 L-951.2,-15304.5 L-942.3,-15323.9 L-932.3,-15343.9 L-922.5,-15364.5 L-917.7,-15374.5 L-865.1,-15482.4 L-808.9,-15601.6 L-687.3,-15848.4 L-760.4,-15930.3 L-820.0,-15803.3 L-871.5,-15693.4 L-879.3,-15677.8 L-895.2,-15645.3 L-927.0,-15648.0 L-935.7,-15648.5 L-938.8,-15645.7 L-934.6,-15641.9 L-950.9,-15627.4 L-963.8,-15615.5 L-966.2,-15564.6 L-971.0,-15554.4 L-986.6,-15555.0 L-989.2,-15555.9 L-1193.6,-15640.3 L-1198.0,-15642.6 L-1202.7,-15645.6 L-1210.1,-15651.2 L-1215.8,-15656.6 L-1220.6,-15661.8 L-1225.3,-15668.2 L-1228.9,-15673.8 L-1231.7,-15679.6 L-1233.9,-15685.7 L-1235.4,-15689.9 L-1236.5,-15695.0 L-1237.3,-15701.0 L-1238.1,-15709.2 L-1238.1,-15720.9 L-1239.5,-15760.6 L-1233.9,-15760.9 L-1234.7,-15781.9 L-1235.6,-15816.5 L-1230.4,-15816.6 L-1230.8,-15840.2 L-1236.7,-15840.1 L-1239.4,-15939.5 L-1233.8,-15939.8 L-1234.7,-15963.1 L-1240.1,-15962.9 L-1242.4,-16036.4 L-1215.4,-16065.5 L-1180.9,-16066.7 L-1155.2,-16067.6 L-1121.3,-16068.7 L-1088.7,-16069.7 L-1059.5,-16070.7 L-1046.8,-16071.3 L-1047.4,-16082.6 L-1047.6,-16094.4 L-1049.5,-16132.7 L-1050.2,-16205.8 L-1051.2,-16207.1 L-1051.4,-16214.3 L-1049.3,-16214.4 L-1054.4,-16390.5 L-1058.8,-16556.2 L-1059.5,-16561.4 L-1059.9,-16571.0 L-1132.1,-16568.4 L-1180.1,-16572.5 L-1539.4,-16560.0 L-1539.5,-16563.2 L-1540.2,-16578.5 L-1710.6,-16572.5 L-1710.9,-16600.8 L-1733.4,-16605.9 L-1737.4,-16727.0 L-1074.6,-16750.0 L-1063.6,-16765.1 L-1064.0,-16808.1 L-1064.8,-16845.3 L-1065.4,-16868.6 L-1066.3,-16891.3 L-1119.0,-16916.1 L-1121.1,-16971.2 L-1067.1,-16998.0 L-1072.0,-17125.5 L-1073.4,-17131.8 L-1127.1,-17156.9 L-1128.8,-17225.1 L-1077.8,-17251.4 L-1100.5,-17528.3 L-1094.5,-17651.5 L-1091.5,-17852.4 L-1091.7,-18070.9 L-1086.9,-18101.5 L-1086.6,-18116.3 L-1091.4,-18134.1 L-1086.4,-18134.1 L-1086.4,-18150.2 L-1083.4,-18561.2 L-1083.9,-18579.5 L-1089.6,-18579.5 L-1089.4,-18655.1 L-1092.7,-18659.8 L-1097.9,-18737.8 L-1087.6,-18809.1 L-1088.9,-18895.4 L-1092.4,-18916.1 L-1087.1,-18980.0 L-1090.7,-19057.3 L-1099.7,-19140.0 L-1116.8,-19274.0 L-1108.7,-19310.9 L-1112.3,-19346.8 L-1142.9,-19372.9 L-1187.8,-19372.5 L-1256.2,-19363.5 L-1300.7,-19363.5 L-1341.1,-19378.3 L-1394.2,-19414.7 L-1394.2,-19480.0 L-1395.6,-19560.3 L-1390.4,-19627.2 L-1372.8,-19679.4 L-1078.1,-19684.9 L-1071.3,-20102.8 L-1071.3,-20704.4 L-1074.4,-20922.7 L14837.8,-27494.4 L14837.8,8723.8 L-4874.7,8723.8 L-4874.7,-9261.7 Z" fill="#add7e1" stroke="none"><title>Biscayne Bay</title></path><path d="M-12266.8,23.5 L-12811.0,-378.2 L-12854.5,-410.2 L-12901.7,-420.5 L-12935.0,-448.5 L-12961.6,-451.6 L-13047.6,-445.9 L-13047.5,-454.0 L-13052.3,-461.6 L-13061.9,-467.5 L-13248.7,-548.4 L-13261.4,-554.2 L-13272.5,-557.4 L-13286.3,-558.5 L-13300.2,-558.8 L-13346.6,-558.8 L-13358.9,-559.5 L-13371.0,-561.9 L-13383.8,-566.9 L-13399.2,-571.0 L-13410.4,-572.0 L-13443.3,-573.4 L-13454.3,-575.4 L-13468.3,-579.9 L-13482.0,-583.4 L-13495.3,-586.5 L-13505.7,-590.7 L-13518.3,-598.5 L-13529.5,-606.9 L-13540.4,-615.1 L-13549.3,-619.3 L-13556.1,-620.7 L-13562.2,-620.3 L-13568.7,-618.5 L-13576.3,-614.6 L-13582.3,-608.0 L-13590.4,-600.1 L-13599.4,-591.8 L-13609.6,-586.2 L-13622.5,-582.0 L-13633.2,-579.4 L-13646.1,-577.4 L-13667.7,-574.9 L-13721.9,-572.3 L-13767.9,-570.0 L-13787.7,-562.9 L-13828.3,-561.5 L-13833.8,-570.0 L-13839.9,-573.9 L-13846.2,-575.1 L-13890.0,-572.6 L-13909.0,-565.8 L-13932.3,-565.6 L-13948.0,-567.9 L-13960.9,-571.8 L-14008.0,-569.0 L-14132.6,-559.3 L-14161.3,-558.5 L-14171.1,-558.7 L-14179.9,-560.9 L-14190.1,-566.0 L-14197.6,-572.0 L-14230.0,-571.9 L-14257.1,-572.3 L-14264.4,-567.8 L-14301.7,-566.9 L-14306.5,-559.0 L-14311.8,-558.8 L-14321.0,-561.0 L-14337.5,-563.0 L-14354.5,-562.1 L-14359.7,-560.5 L-14365.0,-561.4 L-14368.6,-564.9 L-14374.7,-568.4 L-14397.4,-568.3 L-14420.3,-567.1 L-14442.0,-554.3 L-14452.7,-549.2 L-14464.9,-546.5 L-14475.0,-545.8 L-14484.1,-547.2 L-14505.1,-556.2 L-14517.1,-560.0 L-14527.3,-561.5 L-14572.0,-560.9 L-14574.8,-566.3 L-14614.3,-565.4 L-14641.5,-560.4 L-14659.4,-558.3 L-14669.0,-556.2 L-14672.7,-558.7 L-14679.5,-559.6 L-14743.2,-565.4 L-14748.7,-562.4 L-14755.4,-561.0 L-14764.2,-560.9 L-14764.2,-564.1 L-14803.7,-571.5 L-14828.6,-576.3 L-14888.8,-596.5 L-14892.1,-592.0 L-14932.3,-604.4 L-14940.7,-607.2 L-14936.6,-621.2 L-14941.4,-622.7 L-14942.4,-624.2 L-14945.0,-625.0 L-14948.6,-625.5 L-14953.0,-627.7 L-14951.5,-629.0 L-14969.3,-643.5 L-14998.9,-670.3 L-15014.8,-684.3 L-15026.1,-696.6 L-15032.4,-704.9 L-15041.8,-717.7 L-15047.2,-727.6 L-15064.0,-748.7 L-15065.6,-749.9 L-15066.7,-750.0 L-15067.9,-749.8 L-15070.1,-749.7 L-15072.1,-750.7 L-15076.3,-753.4 L-15084.9,-757.9 L-15089.1,-761.5 L-15094.0,-765.8 L-15100.7,-769.4 L-15111.2,-772.7 L-15122.3,-774.7 L-15131.8,-774.9 L-15129.1,-800.1 L-15126.9,-833.0 L-15116.6,-832.0 L-15106.3,-830.2 L-15092.8,-826.2 L-15082.9,-822.5 L-15074.0,-818.4 L-15065.4,-814.4 L-15057.3,-809.8 L-15050.7,-804.7 L-15041.9,-797.9 L-15032.7,-791.0 L-15030.6,-789.7 L-15028.7,-789.3 L-15003.5,-790.4 L-15003.2,-784.7 L-15004.7,-782.2 L-15023.6,-780.4 L-15018.8,-770.6 L-15015.5,-771.8 L-15012.5,-768.8 L-15010.6,-765.9 L-15009.0,-763.7 L-15005.1,-758.5 L-15003.6,-752.8 L-14997.5,-744.4 L-14983.1,-735.3 L-14965.2,-726.2 L-14943.8,-712.7 L-14934.0,-708.1 L-14913.4,-696.4 L-14903.7,-691.3 L-14886.0,-684.8 L-14851.2,-675.5 L-14830.8,-670.6 L-14812.2,-668.7 L-14802.3,-667.4 L-14800.1,-667.6 L-14799.2,-668.9 L-14798.9,-675.5 L-14775.8,-675.5 L-14775.3,-668.1 L-14726.9,-665.6 L-14679.7,-664.2 L-14647.6,-665.4 L-14637.0,-666.2 L-14629.3,-667.2 L-14623.0,-669.0 L-14617.2,-672.5 L-14614.3,-677.2 L-14615.4,-754.7 L-14595.9,-755.8 L-14594.2,-680.2 L-14593.1,-678.3 L-14589.2,-675.6 L-14584.7,-674.3 L-14481.3,-674.1 L-14481.8,-707.4 L-14473.7,-707.6 L-14470.3,-674.1 L-14406.5,-674.7 L-14406.5,-678.3 L-14400.2,-678.4 L-14400.0,-675.8 L-13974.5,-683.9 L-13943.7,-687.5 L-13906.1,-688.6 L-13870.5,-683.9 L-13858.6,-684.9 L-13849.9,-686.6 L-13841.8,-689.5 L-13831.3,-693.5 L-13617.4,-697.3 L-13617.5,-712.1 L-13497.8,-714.2 L-13497.7,-697.9 L-13446.9,-696.1 L-13443.0,-696.2 L-13439.4,-696.5 L-13434.7,-697.1 L-13430.9,-698.1 L-13427.2,-699.3 L-13420.9,-702.3 L-13418.0,-697.3 L-13411.8,-701.2 L-13406.1,-705.8 L-13401.3,-710.8 L-13397.1,-716.7 L-13393.2,-724.0 L-13400.5,-728.1 L-13398.5,-734.2 L-13397.2,-740.5 L-13396.5,-746.5 L-13396.4,-751.2 L-13396.6,-755.6 L-13397.3,-793.5 L-13403.4,-799.1 L-13398.2,-804.6 L-13403.5,-809.2 L-13397.5,-816.3 L-13404.0,-822.0 L-13398.8,-827.5 L-13404.0,-832.5 L-13397.9,-839.0 L-13404.2,-845.4 L-13391.1,-859.8 L-13388.8,-859.9 L-13394.5,-1074.4 L-13346.4,-1075.5 L-13344.1,-1074.3 L-13341.5,-1072.3 L-13339.6,-1070.6 L-13338.8,-1068.6 L-13338.1,-1066.2 L-13337.9,-1063.8 L-13333.8,-730.5 L-13331.9,-719.7 L-13329.2,-712.4 L-13325.0,-703.4 L-13320.1,-694.6 L-13315.0,-687.6 L-13310.9,-683.3 L-13306.5,-679.9 L-13301.4,-676.9 L-13296.1,-674.9 L-13288.9,-672.8 L-13280.0,-671.1 L-13269.2,-669.1 L-13256.6,-666.8 L-13244.6,-664.2 L-13231.3,-661.8 L-13218.7,-659.1 L-13214.7,-658.3 L-13209.8,-657.3 L-13205.0,-656.7 L-13200.8,-656.6 L-13196.0,-656.6 L-13192.3,-656.8 L-13188.6,-657.5 L-13185.4,-658.3 L-13182.0,-659.3 L-13179.1,-660.6 L-13173.3,-663.4 L-13168.2,-666.4 L-13163.1,-670.1 L-13157.2,-675.8 L-13151.7,-682.0 L-13148.7,-687.3 L-13146.0,-693.8 L-13144.6,-699.1 L-13143.8,-704.8 L-13143.3,-710.2 L-13143.3,-715.2 L-13150.6,-1072.4 L-13140.2,-1083.1 L-13136.4,-1083.5 L-13134.9,-1084.9 L-13113.2,-1085.5 L-13111.3,-1088.7 L-13108.0,-1087.8 L-13102.5,-1082.7 L-13098.7,-1077.4 L-13094.9,-1070.8 L-13087.7,-671.6 L-13087.0,-664.6 L-13085.7,-650.7 L-13084.4,-647.9 L-13085.4,-647.2 L-13083.6,-643.3 L-13081.3,-638.7 L-13079.3,-635.8 L-13076.9,-632.3 L-13073.6,-628.5 L-13069.7,-624.5 L-13065.0,-620.5 L-13060.8,-617.4 L-13056.2,-614.9 L-13051.8,-612.7 L-13047.1,-611.2 L-13046.5,-612.6 L-12980.3,-588.6 L-12972.0,-585.5 L-12968.2,-584.1 L-12962.3,-582.0 L-12958.0,-581.0 L-12954.3,-580.5 L-12950.9,-580.5 L-12946.1,-580.9 L-12940.9,-581.4 L-12936.3,-582.4 L-12931.6,-583.7 L-12928.1,-585.1 L-12924.4,-586.8 L-12921.4,-588.7 L-12917.6,-591.5 L-12912.8,-595.7 L-12908.4,-600.0 L-12903.6,-606.0 L-12900.2,-611.6 L-12897.4,-617.8 L-12895.4,-624.7 L-12894.2,-631.7 L-12893.5,-644.2 L-12893.8,-669.7 L-12901.1,-1075.8 L-12901.1,-1080.3 L-12900.3,-1083.5 L-12898.9,-1086.1 L-12896.0,-1088.5 L-12892.7,-1090.2 L-12889.0,-1090.8 L-12858.9,-1091.8 L-12855.3,-1091.2 L-12852.1,-1089.8 L-12849.8,-1087.6 L-12847.2,-1083.8 L-12845.7,-1078.4 L-12844.8,-1071.1 L-12837.3,-550.2 L-12836.9,-547.1 L-12836.3,-544.0 L-12835.4,-540.8 L-12834.3,-537.3 L-12833.1,-533.8 L-12831.7,-530.6 L-12830.5,-527.9 L-12829.2,-525.5 L-12827.3,-522.5 L-12825.2,-519.9 L-12823.3,-517.5 L-12820.4,-514.4 L-12817.6,-511.7 L-12814.5,-509.2 L-12811.2,-506.7 L-12802.0,-500.9 L-12801.1,-502.0 L-12793.0,-497.5 L-12783.4,-492.3 L-12777.9,-489.3 L-12771.8,-485.7 L-12765.5,-482.0 L-12759.0,-478.0 L-12751.7,-473.5 L-12744.5,-469.0 L-12737.3,-464.7 L-12731.3,-461.0 L-12724.6,-456.7 L-12717.5,-452.1 L-12710.7,-447.6 L-12704.4,-443.3 L-12705.1,-442.4 L-12696.3,-436.3 L-12687.2,-430.2 L-12684.4,-428.5 L-12681.3,-426.8 L-12676.9,-424.7 L-12672.8,-423.2 L-12668.4,-422.0 L-12664.5,-421.0 L-12659.9,-420.3 L-12654.8,-419.7 L-12650.4,-419.7 L-12646.7,-420.0 L-12643.5,-420.7 L-12639.4,-421.8 L-12635.3,-423.1 L-12631.5,-424.4 L-12628.0,-426.1 L-12624.4,-428.0 L-12620.9,-430.2 L-12617.3,-433.0 L-12614.1,-435.9 L-12611.0,-439.0 L-12608.1,-442.2 L-12605.1,-446.6 L-12602.6,-451.0 L-12600.2,-455.9 L-12598.8,-459.7 L-12597.7,-463.7 L-12596.9,-468.0 L-12596.5,-472.3 L-12596.8,-477.2 L-12656.1,-1044.9 L-12652.0,-1045.3 L-12655.3,-1073.7 L-12658.3,-1073.5 L-12660.7,-1086.6 L-12659.9,-1089.3 L-12657.4,-1093.3 L-12652.3,-1097.2 L-12645.6,-1098.0 L-12618.7,-1098.9 L-12614.2,-1098.0 L-12611.1,-1096.5 L-12607.8,-1093.9 L-12605.5,-1091.5 L-12603.9,-1089.0 L-12538.9,-452.1 L-12537.4,-446.6 L-12534.6,-439.8 L-12532.2,-435.4 L-12529.6,-430.7 L-12526.2,-426.1 L-12523.4,-422.9 L-12520.3,-419.7 L-12516.9,-417.0 L-12513.9,-414.9 L-12509.7,-412.2 L-12506.0,-410.3 L-12501.1,-408.2 L-12496.5,-406.8 L-12491.3,-405.7 L-12487.3,-405.1 L-12483.8,-405.0 L-12479.7,-404.9 L-12338.5,-407.8 L-12333.9,-408.4 L-12329.5,-410.5 L-12326.3,-413.4 L-12324.1,-417.8 L-12323.3,-421.8 L-12323.5,-425.8 L-12395.0,-1107.9 L-12458.0,-1190.1 L-12460.8,-1187.8 L-12515.6,-1264.3 L-12516.6,-1280.5 L-12518.3,-1283.9 L-12521.2,-1287.0 L-12524.9,-1292.2 L-12525.2,-1299.8 L-12531.7,-1302.3 L-12538.0,-1302.4 L-12546.5,-1298.2 L-12536.9,-1280.2 L-12549.0,-1274.4 L-12558.1,-1282.8 L-12565.9,-1287.6 L-12571.2,-1289.4 L-12584.2,-1289.9 L-12590.8,-1303.3 L-12549.3,-1320.3 L-12551.3,-1323.7 L-12560.1,-1335.5 L-12561.5,-1334.8 L-12870.4,-1739.3 L-12875.1,-1806.0 L-12872.6,-1806.6 L-12884.5,-1928.9 L-12889.1,-1940.2 L-12894.1,-1952.9 L-12897.9,-1962.7 L-12902.5,-1975.2 L-12917.5,-2017.3 L-12923.6,-2014.6 L-12932.5,-2048.7 L-12931.0,-2049.0 L-12962.1,-2133.3 L-12965.5,-2280.7 L-12961.9,-2280.7 L-12961.4,-2293.6 L-12959.6,-2306.3 L-12958.9,-2311.0 L-12960.2,-2314.8 L-12956.0,-2334.9 L-12917.7,-2402.7 L-12937.8,-2414.9 L-12922.9,-2439.6 L-12903.5,-2428.2 L-12901.8,-2430.8 L-12895.7,-2427.7 L-12889.1,-2425.1 L-12881.5,-2422.7 L-12875.8,-2421.5 L-12870.4,-2421.3 L-12864.0,-2422.4 L-12857.7,-2424.5 L-12851.5,-2426.9 L-12848.6,-2430.0 L-12847.5,-2434.1 L-12846.0,-2439.0 L-12845.7,-2441.0 L-12845.8,-2443.5 L-12847.2,-2447.4 L-12849.8,-2451.1 L-12852.8,-2453.2 L-12857.2,-2457.4 L-12861.0,-2461.4 L-12866.6,-2465.0 L-12868.9,-2470.7 L-12871.6,-2476.4 L-12875.9,-2483.1 L-12880.8,-2488.9 L-12889.8,-2495.3 L-12933.4,-2517.9 L-12959.2,-2530.7 L-12983.3,-2543.7 L-13006.2,-2556.4 L-13021.0,-2566.0 L-13026.7,-2567.5 L-13033.0,-2565.6 L-13036.5,-2561.3 L-13043.6,-2543.6 L-13087.7,-2563.4 L-13061.3,-2605.1 L-13055.5,-2607.8 L-13048.4,-2609.2 L-13040.1,-2607.4 L-12874.4,-2510.5 L-12865.4,-2507.8 L-12856.0,-2505.5 L-12842.7,-2505.2 L-12829.2,-2507.6 L-12820.6,-2511.1 L-12811.2,-2518.7 L-12805.7,-2524.0 L-12799.8,-2532.3 L-12799.9,-2533.4 L-12800.3,-2534.4 L-12801.2,-2535.2 L-12854.8,-2568.3 L-12856.1,-2568.7 L-12857.5,-2568.8 L-12858.9,-2568.7 L-12864.0,-2566.5 L-12865.9,-2566.3 L-12868.0,-2566.5 L-12871.1,-2567.0 L-12873.5,-2567.7 L-12876.9,-2569.4 L-12880.2,-2571.3 L-12953.9,-2616.3 L-12988.6,-2640.7 L-12991.9,-2641.2 L-12995.2,-2641.1 L-12999.1,-2641.0 L-13001.7,-2641.4 L-13003.9,-2642.4 L-13006.5,-2644.4 L-13009.4,-2646.7 L-13011.4,-2649.5 L-13012.6,-2652.3 L-13012.8,-2654.4 L-13012.5,-2657.1 L-13012.0,-2659.4 L-13000.2,-2679.2 L-13000.2,-2680.1 L-13001.1,-2680.8 L-13011.9,-2688.4 L-13014.0,-2691.5 L-13012.8,-2693.4 L-13009.3,-2692.9 L-13005.5,-2691.8 L-12983.3,-2678.1 L-12857.5,-2597.8 L-12854.9,-2596.3 L-12853.1,-2594.4 L-12851.9,-2592.2 L-12850.6,-2587.6 L-12849.7,-2584.0 L-12849.2,-2580.9 L-12792.4,-2546.8 L-12790.4,-2545.9 L-12788.0,-2545.7 L-12785.2,-2546.1 L-12783.2,-2546.8 L-12781.5,-2547.6 L-12720.4,-2646.5 L-12694.8,-2684.1 L-12670.9,-2711.0 L-12658.8,-2704.3 L-12651.0,-2716.9 L-12692.5,-2741.7 L-12683.7,-2756.1 L-12642.2,-2731.1 L-12632.9,-2746.3 L-12640.4,-2754.7 L-12632.8,-2763.4 L-12624.6,-2754.0 L-12622.6,-2755.5 L-12620.3,-2757.1 L-12617.1,-2758.9 L-12613.8,-2760.5 L-12609.7,-2762.0 L-12605.8,-2763.1 L-12601.6,-2763.8 L-12597.4,-2764.1 L-12593.4,-2764.0 L-12589.5,-2763.4 L-12585.8,-2762.5 L-12582.7,-2761.6 L-12580.0,-2760.4 L-12576.2,-2758.6 L-12572.7,-2756.4 L-12569.7,-2754.3 L-12566.7,-2751.6 L-12564.0,-2749.0 L-12561.0,-2745.1 L-12558.9,-2741.6 L-12556.8,-2737.1 L-12555.4,-2732.6 L-12554.2,-2726.4 L-12553.8,-2721.0 L-12553.9,-2717.9 L-12554.3,-2714.7 L-12555.4,-2709.9 L-12558.2,-2703.3 L-12560.0,-2699.0 L-12562.5,-2693.9 L-12552.1,-2688.7 L-12503.5,-2746.7 L-12592.0,-2800.5 L-12587.5,-2810.1 L-12584.3,-2819.0 L-12584.1,-2822.8 L-12579.0,-2833.7 L-12568.5,-2843.4 L-12555.5,-2854.0 L-12540.0,-2863.9 L-12510.9,-2872.4 L-12460.7,-2877.4 L-12440.9,-2893.4 L-12436.8,-2894.1 L-12433.5,-2894.3 L-12428.8,-2892.5 L-12424.5,-2892.0 L-12396.6,-2875.1 L-12323.2,-2962.2 L-12592.2,-3133.2 L-12608.9,-3106.9 L-12645.2,-3129.9 L-12593.7,-3210.9 L-12557.5,-3188.5 L-12573.6,-3160.9 L-12299.9,-2988.4 L-12265.4,-3032.7 L-12241.0,-3061.7 L-12208.8,-3110.1 L-12191.0,-3134.5 L-12192.8,-3148.4 L-12192.3,-3148.8 L-12195.5,-3159.1 L-12197.6,-3165.5 L-12199.6,-3172.1 L-12202.0,-3177.8 L-12206.6,-3185.3 L-12211.2,-3192.6 L-12213.2,-3196.4 L-12214.7,-3200.2 L-12215.8,-3203.7 L-12216.2,-3206.8 L-12216.7,-3217.0 L-12334.9,-3325.5 L-12338.8,-3321.3 L-12342.1,-3324.1 L-12351.7,-3314.6 L-12358.0,-3323.0 L-12350.4,-3331.8 L-12358.0,-3341.5 L-12363.2,-3340.1 L-12368.6,-3339.9 L-12373.5,-3340.8 L-12377.8,-3342.6 L-12382.8,-3346.3 L-12389.0,-3352.4 L-12399.9,-3364.4 L-12403.2,-3369.5 L-12404.4,-3375.9 L-12403.6,-3383.5 L-12400.7,-3390.5 L-12398.2,-3395.3 L-12393.4,-3400.1 L-12388.1,-3403.7 L-12383.0,-3405.6 L-12379.2,-3406.2 L-12374.2,-3405.3 L-12369.1,-3403.5 L-12364.3,-3399.7 L-12353.2,-3389.7 L-12347.5,-3384.3 L-12342.3,-3378.6 L-12340.6,-3375.9 L-12339.4,-3373.0 L-12338.7,-3370.4 L-12338.2,-3366.8 L-12338.8,-3363.4 L-12339.8,-3360.2 L-12341.2,-3357.8 L-12341.6,-3356.7 L-12341.3,-3355.3 L-12340.5,-3353.9 L-12213.6,-3235.0 L-12209.2,-3232.0 L-12206.1,-3230.7 L-12201.7,-3231.7 L-12196.5,-3232.1 L-12189.9,-3229.3 L-12183.3,-3225.2 L-12170.4,-3217.9 L-12165.0,-3215.3 L-12160.1,-3220.1 L-12154.7,-3225.3 L-12151.1,-3229.4 L-12145.1,-3237.2 L-12141.7,-3241.9 L-12138.1,-3247.7 L-12135.8,-3252.8 L-12133.3,-3258.2 L-12131.0,-3263.9 L-12128.9,-3269.7 L-12127.7,-3274.6 L-12126.3,-3280.8 L-12125.7,-3284.5 L-12125.3,-3287.5 L-12124.6,-3292.8 L-12123.9,-3298.0 L-12123.6,-3301.4 L-12123.4,-3305.1 L-12123.4,-3309.4 L-12123.6,-3313.0 L-12124.3,-3318.0 L-12125.1,-3323.7 L-12125.9,-3329.0 L-12126.4,-3333.3 L-12127.0,-3336.5 L-12127.7,-3339.9 L-12128.5,-3343.3 L-12129.7,-3347.3 L-12131.1,-3351.3 L-12132.2,-3353.7 L-12133.4,-3356.1 L-12135.1,-3358.4 L-12137.4,-3361.7 L-12139.9,-3364.8 L-12142.6,-3367.4 L-12146.0,-3370.2 L-12149.5,-3372.4 L-12153.0,-3374.3 L-12156.2,-3375.5 L-12158.4,-3376.2 L-12160.9,-3376.5 L-12163.9,-3376.4 L-12166.7,-3375.8 L-12168.9,-3374.9 L-12171.0,-3373.4 L-12172.5,-3371.8 L-12173.7,-3370.3 L-12174.6,-3368.0 L-12175.1,-3365.5 L-12175.0,-3362.5 L-12174.8,-3359.0 L-12174.8,-3356.4 L-12175.0,-3353.8 L-12175.4,-3351.2 L-12175.9,-3348.9 L-12176.8,-3346.5 L-12178.2,-3343.9 L-12179.9,-3341.4 L-12181.6,-3339.1 L-12183.3,-3337.5 L-12186.7,-3334.8 L-12189.5,-3332.9 L-12193.9,-3331.6 L-12196.5,-3331.0 L-12199.5,-3330.6 L-12202.2,-3330.5 L-12205.8,-3330.7 L-12208.4,-3331.2 L-12212.0,-3332.0 L-12217.0,-3333.5 L-12221.2,-3335.1 L-12224.3,-3336.3 L-12227.6,-3338.1 L-12230.5,-3340.1 L-12233.7,-3342.6 L-12236.2,-3344.9 L-12238.3,-3347.0 L-12240.5,-3349.6 L-12242.3,-3352.0 L-12244.0,-3354.4 L-12245.5,-3357.1 L-12247.1,-3360.7 L-12248.5,-3364.0 L-12249.9,-3367.6 L-12250.8,-3370.4 L-12251.5,-3373.0 L-12252.0,-3375.7 L-12252.4,-3379.9 L-12252.7,-3383.6 L-12252.5,-3387.6 L-12251.6,-3392.9 L-12250.1,-3398.1 L-12248.2,-3403.5 L-12246.9,-3406.0 L-12245.6,-3407.5 L-12235.3,-3420.6 L-12232.9,-3423.3 L-12229.8,-3424.8 L-12226.5,-3426.0 L-12222.8,-3426.8 L-12218.7,-3427.3 L-12215.1,-3427.5 L-12211.5,-3427.4 L-12207.9,-3427.0 L-12203.8,-3425.8 L-12199.5,-3423.7 L-12195.8,-3421.4 L-12192.5,-3418.8 L-12182.1,-3409.2 L-12179.6,-3408.4 L-12178.2,-3408.1 L-12176.5,-3408.5 L-12175.4,-3408.9 L-12174.0,-3410.5 L-12173.4,-3412.1 L-12173.3,-3414.3 L-12173.2,-3416.3 L-12173.6,-3417.2 L-12194.6,-3438.0 L-12166.0,-3468.5 L-12167.6,-3472.1 L-12151.1,-3488.4 L-12119.3,-3456.6 L-12144.9,-3424.0 L-12145.1,-3422.1 L-12143.8,-3421.3 L-12142.2,-3421.7 L-12114.1,-3456.9 L-12105.9,-3466.8 L-12105.6,-3469.1 L-12106.3,-3471.1 L-12107.8,-3472.9 L-12129.8,-3493.7 L-12124.3,-3500.1 L-12129.9,-3504.8 L-12126.7,-3512.2 L-12069.7,-3569.5 L-12050.1,-3572.8 L-12044.0,-3573.7 L-12038.2,-3574.5 L-12035.5,-3575.2 L-12032.3,-3576.9 L-12028.5,-3579.0 L-12025.6,-3581.9 L-12022.8,-3585.4 L-11993.7,-3627.7 L-11993.1,-3628.8 L-11993.4,-3630.2 L-11993.8,-3631.2 L-11994.5,-3632.1 L-11998.0,-3634.3 L-11998.9,-3634.8 L-11999.7,-3634.7 L-12000.6,-3634.2 L-12002.5,-3632.8 L-12026.9,-3610.0 L-12036.4,-3603.2 L-12075.4,-3643.2 L-12070.9,-3657.4 L-12069.0,-3661.6 L-12062.9,-3672.8 L-12055.8,-3685.3 L-12051.5,-3690.1 L-12043.8,-3698.3 L-12035.6,-3707.3 L-12026.6,-3716.8 L-12018.9,-3723.4 L-12015.2,-3726.7 L-12010.3,-3730.3 L-12005.8,-3732.7 L-11999.4,-3735.6 L-11995.4,-3737.0 L-11991.4,-3738.2 L-11988.3,-3738.5 L-11983.9,-3738.2 L-11980.2,-3737.7 L-11976.0,-3736.5 L-11971.9,-3733.1 L-11969.4,-3729.6 L-11967.9,-3726.0 L-11967.3,-3720.6 L-11967.5,-3713.5 L-11968.4,-3705.5 L-11970.1,-3697.8 L-11980.4,-3674.8 L-11990.2,-3654.1 L-11986.8,-3648.6 L-11985.0,-3647.5 L-11983.1,-3647.5 L-11981.4,-3647.9 L-11980.1,-3648.7 L-11973.4,-3658.2 L-11964.8,-3662.5 L-11947.7,-3708.2 L-11946.5,-3710.5 L-11944.8,-3712.5 L-11943.1,-3713.4 L-11941.5,-3713.8 L-11939.2,-3713.8 L-11936.8,-3713.2 L-11924.3,-3709.7 L-11921.9,-3709.2 L-11919.1,-3709.1 L-11916.5,-3709.5 L-11914.4,-3710.4 L-11912.6,-3711.8 L-11910.8,-3714.1 L-11889.8,-3742.2 L-11888.8,-3744.3 L-11888.3,-3746.5 L-11888.3,-3748.6 L-11888.7,-3750.8 L-11889.5,-3752.4 L-11890.7,-3754.0 L-11892.1,-3755.3 L-11894.1,-3756.3 L-11896.0,-3756.8 L-11897.9,-3756.9 L-11899.5,-3756.6 L-11901.4,-3755.7 L-11902.8,-3754.7 L-11903.9,-3753.3 L-11909.4,-3744.4 L-11910.6,-3742.7 L-11912.0,-3741.1 L-11914.1,-3739.3 L-11916.0,-3738.2 L-11918.3,-3737.5 L-11921.1,-3736.9 L-11922.7,-3736.9 L-11924.9,-3737.2 L-11926.8,-3737.7 L-11928.4,-3738.4 L-11945.6,-3754.0 L-11947.6,-3756.4 L-11949.1,-3758.6 L-11950.5,-3761.3 L-11951.4,-3763.6 L-11952.0,-3766.0 L-11952.5,-3768.6 L-11952.8,-3771.8 L-11952.9,-3775.0 L-11952.6,-3777.7 L-11952.2,-3780.0 L-11951.7,-3782.0 L-11950.9,-3783.7 L-11919.6,-3833.4 L-11917.6,-3836.7 L-11916.4,-3838.4 L-11915.0,-3839.2 L-11912.7,-3840.2 L-11910.3,-3840.9 L-11908.0,-3841.3 L-11906.7,-3841.3 L-11905.4,-3841.1 L-11904.3,-3840.7 L-11902.7,-3839.9 L-11900.8,-3838.7 L-11897.6,-3836.1 L-11883.3,-3822.7 L-11880.9,-3819.3 L-11879.5,-3816.0 L-11878.2,-3812.1 L-11877.8,-3809.1 L-11877.6,-3805.9 L-11877.6,-3803.2 L-11877.9,-3800.5 L-11878.4,-3797.8 L-11879.0,-3796.0 L-11880.6,-3792.3 L-11886.3,-3781.7 L-11886.9,-3779.3 L-11886.9,-3776.4 L-11886.7,-3774.2 L-11885.9,-3772.5 L-11884.4,-3770.9 L-11882.0,-3769.2 L-11880.0,-3768.1 L-11877.7,-3767.6 L-11875.0,-3767.7 L-11872.8,-3768.2 L-11870.3,-3769.5 L-11868.1,-3771.5 L-11831.1,-3822.3 L-11842.4,-3832.5 L-11835.6,-3839.8 L-11825.5,-3830.1 L-11804.7,-3857.4 L-11773.2,-3899.5 L-11900.0,-4021.0 L-11927.5,-3992.1 L-11959.8,-4022.6 L-11928.6,-4056.2 L-11932.7,-4060.7 L-11926.2,-4066.7 L-11922.2,-4062.6 L-11900.5,-4086.2 L-11881.0,-4068.1 L-11878.7,-4053.1 L-11796.7,-3976.6 L-11780.7,-3970.4 L-11767.9,-3974.9 L-11743.6,-3965.2 L-11727.5,-3971.1 L-11679.6,-4029.6 L-11676.9,-4035.1 L-11676.1,-4042.5 L-11678.5,-4049.8 L-11681.7,-4055.0 L-11710.1,-4081.2 L-11709.7,-4088.4 L-11704.1,-4102.5 L-11692.9,-4123.4 L-11715.0,-4137.7 L-11706.6,-4140.9 L-11701.3,-4144.3 L-11696.0,-4150.3 L-11689.8,-4166.2 L-11678.4,-4195.2 L-11671.0,-4202.0 L-11741.2,-4270.0 L-11756.6,-4260.4 L-11760.2,-4259.5 L-11763.6,-4259.4 L-11768.0,-4259.9 L-11771.6,-4260.9 L-11775.1,-4263.0 L-11778.0,-4265.5 L-11814.3,-4300.5 L-11821.1,-4307.3 L-11824.1,-4310.9 L-11826.6,-4315.4 L-11827.8,-4319.5 L-11828.3,-4323.5 L-11828.2,-4327.3 L-11827.5,-4330.9 L-11826.6,-4333.8 L-11825.4,-4335.9 L-11822.8,-4339.6 L-11819.7,-4343.3 L-11803.4,-4360.2 L-11679.4,-4245.3 L-11687.9,-4235.7 L-11596.0,-4148.8 L-11490.1,-4303.9 L-11557.3,-4366.7 L-11565.9,-4359.0 L-11691.4,-4477.5 L-11675.0,-4492.8 L-11602.9,-4425.2 L-11595.7,-4435.8 L-11591.7,-4441.1 L-11586.6,-4446.3 L-11580.7,-4452.8 L-11574.7,-4456.7 L-11565.2,-4464.7 L-11555.7,-4473.5 L-11537.5,-4490.7 L-11494.0,-4539.6 L-11486.2,-4547.7 L-11457.5,-4562.4 L-11430.3,-4583.7 L-11427.7,-4585.7 L-11420.6,-4591.2 L-11417.5,-4594.0 L-11415.0,-4597.2 L-11413.3,-4600.5 L-11412.2,-4603.8 L-11410.9,-4606.3 L-11409.4,-4609.0 L-11406.8,-4613.3 L-11405.0,-4616.0 L-11403.2,-4618.5 L-11399.9,-4621.1 L-11396.7,-4623.3 L-11393.2,-4625.4 L-11384.9,-4629.4 L-11376.9,-4633.4 L-11375.7,-4633.6 L-11374.5,-4633.4 L-11372.1,-4632.7 L-11365.6,-4629.4 L-11360.7,-4627.0 L-11358.4,-4625.6 L-11356.3,-4623.9 L-11322.9,-4592.2 L-11320.6,-4590.9 L-11309.7,-4588.0 L-11306.2,-4587.0 L-11302.3,-4586.6 L-11299.3,-4586.7 L-11297.0,-4587.5 L-11294.7,-4589.1 L-11282.8,-4605.9 L-11282.8,-4608.2 L-11283.2,-4610.3 L-11284.5,-4612.6 L-11286.5,-4614.8 L-11295.6,-4623.3 L-11294.9,-4624.7 L-11283.2,-4649.5 L-11263.2,-4689.8 L-11245.0,-4703.2 L-11234.5,-4713.7 L-11227.3,-4722.0 L-11219.7,-4729.7 L-11211.3,-4736.6 L-11206.2,-4741.3 L-11200.8,-4746.2 L-11196.8,-4750.2 L-11194.8,-4753.8 L-11193.2,-4756.6 L-11192.2,-4759.3 L-11191.8,-4762.5 L-11191.6,-4765.7 L-11185.5,-4771.9 L-11176.5,-4780.4 L-11161.5,-4792.7 L-11145.8,-4804.6 L-11138.8,-4814.4 L-11136.2,-4824.5 L-11128.4,-4829.3 L-11118.6,-4829.5 L-11108.7,-4835.4 L-11100.0,-4851.1 L-11100.2,-4867.4 L-11098.6,-4892.6 L-11096.1,-4896.2 L-11094.6,-4898.6 L-11091.8,-4903.2 L-11095.3,-4913.9 L-11091.3,-4918.9 L-11071.5,-4943.4 L-11037.5,-4983.1 L-11031.0,-4992.5 L-11028.4,-4997.4 L-11017.6,-5012.3 L-11014.6,-5021.7 L-11014.5,-5036.2 L-11014.9,-5050.7 L-11015.0,-5065.5 L-11010.6,-5081.8 L-11003.2,-5097.9 L-10992.6,-5113.4 L-10984.9,-5124.9 L-10975.8,-5136.4 L-10958.2,-5156.0 L-10880.2,-5194.6 L-10869.9,-5197.3 L-10867.3,-5191.7 L-10864.2,-5186.3 L-10863.2,-5185.3 L-10861.5,-5186.0 L-10861.2,-5189.8 L-10862.4,-5193.0 L-10858.1,-5194.3 L-10842.1,-5199.0 L-10821.3,-5205.2 L-10804.5,-5210.2 L-10798.5,-5212.0 L-10804.5,-5230.9 L-10794.1,-5233.7 L-10776.8,-5236.1 L-10774.7,-5236.4 L-10774.6,-5237.6 L-10774.6,-5242.0 L-10758.9,-5242.7 L-10734.3,-5243.7 L-10724.8,-5239.1 L-10701.1,-5153.7 L-10695.8,-5148.6 L-10706.1,-5138.0 L-10697.0,-5129.0 L-10688.0,-5120.0 L-10677.2,-5131.0 L-10476.7,-4940.4 L-10209.1,-5226.0 L-10115.6,-5136.6 L-10112.0,-5137.7 L-10110.6,-5136.1 L-10104.3,-5140.1 L-10099.1,-5142.0 L-10093.6,-5144.5 L-10084.2,-5149.4 L-10078.4,-5152.7 L-10071.5,-5156.7 L-10065.1,-5160.7 L-10059.9,-5164.1 L-10055.1,-5167.2 L-10049.5,-5171.3 L-10043.1,-5176.0 L-10038.2,-5180.1 L-10033.0,-5184.7 L-10027.3,-5190.1 L-10021.9,-5195.5 L-10009.3,-5208.9 L-10001.7,-5218.0 L-9994.3,-5227.9 L-9989.2,-5235.1 L-9984.4,-5242.5 L-9978.7,-5252.8 L-9973.7,-5262.9 L-9969.7,-5271.2 L-9966.3,-5279.5 L-9964.2,-5285.0 L-9961.9,-5291.2 L-9956.5,-5297.9 L-10127.5,-5460.6 L-10125.4,-5462.9 L-10104.9,-5484.9 L-10090.0,-5500.7 L-10088.5,-5502.3 L-10045.1,-5461.7 L-10034.6,-5467.1 L-10033.4,-5465.6 L-9931.4,-5518.7 L-9927.2,-5520.9 L-9924.3,-5523.2 L-9921.6,-5525.7 L-9918.5,-5528.9 L-9915.5,-5533.4 L-9912.9,-5537.6 L-9911.2,-5540.8 L-9910.0,-5544.9 L-9908.9,-5549.4 L-9908.4,-5554.3 L-9908.4,-5559.8 L-9908.8,-5564.2 L-9909.6,-5568.1 L-9910.9,-5572.8 L-9942.8,-5664.6 L-9947.1,-5679.7 L-9946.0,-5684.9 L-10023.0,-5704.0 L-10019.4,-5717.3 L-10016.4,-5729.3 L-9993.6,-5819.5 L-10011.3,-5872.1 L-10021.7,-5906.1 L-10024.7,-5914.6 L-9997.1,-5939.9 L-9966.0,-5956.6 L-9964.1,-5954.0 L-9961.1,-5949.7 L-9954.1,-5940.6 L-9953.3,-5941.4 L-9953.1,-5944.5 L-9962.8,-5957.9 L-9945.5,-5970.3 L-9941.7,-5972.5 L-9932.7,-5960.8 L-9931.2,-5959.7 L-9929.7,-5959.4 L-9928.9,-5959.6 L-9928.9,-5960.4 L-9971.7,-6019.0 L-9974.8,-6022.4 L-9978.4,-6027.3 L-9997.0,-6049.8 L-9981.1,-6099.1 L-9968.9,-6111.8 L-9954.8,-6118.4 L-9924.8,-6136.2 L-9918.6,-6142.6 L-9891.7,-6166.2 L-9883.2,-6157.3 L-9858.3,-6130.4 L-9835.2,-6149.8 L-9819.7,-6134.9 L-9805.8,-6121.3 L-9805.1,-6120.6 L-9793.3,-6130.7 L-9777.7,-6114.1 L-9764.3,-6096.9 L-9754.4,-6085.4 L-9753.1,-6083.9 L-9724.3,-6109.2 L-9722.8,-6110.5 L-9729.6,-6118.8 L-9713.9,-6131.7 L-9666.3,-6076.2 L-9625.8,-6102.9 L-9621.8,-6106.7 L-9604.2,-6114.1 L-9600.2,-6118.0 L-9596.4,-6123.0 L-9574.7,-6142.3 L-9579.6,-6149.0 L-9618.4,-6140.1 L-9662.8,-6190.6 L-9657.7,-6195.0 L-9651.0,-6187.2 L-9619.6,-6214.2 L-9586.3,-6177.8 L-9577.3,-6174.2 L-9571.9,-6171.1 L-9565.1,-6163.4 L-9561.4,-6166.7 L-9585.5,-6194.1 L-9570.7,-6206.9 L-9540.8,-6171.0 L-9537.0,-6173.8 L-9537.4,-6174.6 L-9471.8,-6222.0 L-9452.3,-6236.4 L-9516.0,-6316.0 L-9502.4,-6325.5 L-9447.0,-6260.6 L-9406.1,-6253.1 L-9379.1,-6268.9 L-9375.3,-6271.3 L-9375.5,-6274.3 L-9377.4,-6277.8 L-9356.3,-6291.1 L-9350.1,-6284.9 L-9332.3,-6295.4 L-9345.2,-6311.4 L-9407.5,-6394.7 L-9363.5,-6440.3 L-9334.6,-6483.0 L-9333.9,-6516.4 L-9349.3,-6560.8 L-9316.9,-6587.8 L-9282.9,-6600.9 L-9271.7,-6603.5 L-9262.7,-6604.7 L-9251.7,-6604.0 L-9240.3,-6601.2 L-9223.8,-6587.1 L-9181.0,-6534.9 L-9146.8,-6491.5 L-9105.9,-6464.2 L-9089.8,-6461.6 L-9075.4,-6459.9 L-9063.2,-6459.4 L-9047.6,-6460.5 L-9030.7,-6463.3 L-9017.0,-6467.2 L-9005.4,-6472.6 L-8997.7,-6477.1 L-8992.0,-6483.1 L-8982.4,-6494.7 L-8972.0,-6513.7 L-8960.7,-6538.9 L-8940.6,-6528.6 L-8932.6,-6525.9 L-8924.0,-6524.7 L-8910.3,-6525.6 L-8901.2,-6528.3 L-8890.8,-6532.8 L-8881.1,-6538.4 L-8870.8,-6548.4 L-8862.0,-6556.4 L-8851.0,-6563.9 L-8843.4,-6568.8 L-8832.2,-6572.8 L-8812.9,-6578.4 L-8801.5,-6581.6 L-8789.3,-6586.2 L-8778.7,-6591.7 L-8772.4,-6595.3 L-8767.4,-6600.5 L-8702.0,-6633.3 L-8699.5,-6634.7 L-8696.6,-6636.5 L-8693.6,-6638.8 L-8689.2,-6641.3 L-8686.3,-6642.7 L-8683.2,-6645.4 L-8680.8,-6647.9 L-8677.6,-6650.0 L-8674.2,-6652.4 L-8669.7,-6656.6 L-8663.3,-6657.1 L-8656.7,-6657.9 L-8652.4,-6659.3 L-8646.8,-6661.9 L-8639.9,-6665.0 L-8632.6,-6669.5 L-8628.5,-6673.4 L-8623.9,-6678.7 L-8621.0,-6683.6 L-8619.4,-6688.1 L-8619.3,-6691.3 L-8619.2,-6693.9 L-8617.6,-6704.3 L-8581.2,-6725.4 L-8517.4,-6762.2 L-8505.0,-6769.3 L-8396.8,-6831.7 L-8279.6,-6899.0 L-8229.7,-6927.6 L-8212.4,-6937.3 L-8067.5,-7021.5 L-8035.3,-7039.2 L-8035.8,-7040.3 L-7969.5,-7077.8 L-7944.0,-7092.1 L-7897.0,-7118.1 L-7896.5,-7117.4 L-7878.3,-7127.4 L-7834.1,-7152.1 L-7828.8,-7156.9 L-7784.0,-7189.7 L-7761.7,-7208.2 L-7741.2,-7225.5 L-7731.8,-7230.8 L-7710.6,-7251.8 L-7708.8,-7250.7 L-7706.0,-7251.0 L-7704.6,-7250.1 L-7674.8,-7285.0 L-7682.3,-7292.0 L-7681.3,-7293.8 L-7678.1,-7298.4 L-7669.5,-7309.3 L-7664.3,-7317.2 L-7660.2,-7323.7 L-7654.5,-7332.4 L-7649.0,-7341.4 L-7642.8,-7351.7 L-7636.4,-7362.9 L-7622.5,-7391.6 L-7618.2,-7400.7 L-7614.7,-7408.0 L-7612.3,-7413.5 L-7610.2,-7417.7 L-7605.8,-7428.7 L-7721.6,-7644.7 L-7723.8,-7648.8 L-7725.5,-7651.1 L-7726.7,-7652.8 L-7728.3,-7654.2 L-7729.8,-7655.2 L-7731.8,-7656.4 L-7733.9,-7657.2 L-7735.7,-7657.6 L-7737.5,-7657.8 L-7740.2,-7657.8 L-7743.3,-7657.3 L-7746.0,-7656.5 L-7748.8,-7655.1 L-7775.7,-7639.6 L-7810.8,-7619.5 L-7835.3,-7605.9 L-7880.0,-7581.3 L-7907.4,-7566.4 L-7906.4,-7564.7 L-7918.1,-7558.0 L-7956.4,-7538.2 L-7984.8,-7521.4 L-8001.5,-7512.1 L-8026.9,-7497.5 L-8029.8,-7495.5 L-8052.1,-7535.6 L-8008.3,-7559.6 L-7948.5,-7592.1 L-7907.8,-7614.7 L-7902.8,-7617.6 L-7903.5,-7618.7 L-7868.3,-7637.9 L-7849.6,-7648.2 L-7806.7,-7669.1 L-7798.5,-7673.3 L-7733.8,-7709.3 L-7709.5,-7722.7 L-7692.4,-7731.9 L-7672.2,-7743.5 L-7644.2,-7692.9 L-7688.2,-7668.8 L-7690.5,-7665.1 L-7691.4,-7661.2 L-7691.8,-7658.2 L-7691.9,-7655.6 L-7691.7,-7653.5 L-7690.9,-7650.6 L-7601.2,-7484.7 L-7599.5,-7482.2 L-7597.5,-7480.3 L-7595.5,-7479.0 L-7593.4,-7478.3 L-7591.1,-7478.0 L-7588.9,-7478.2 L-7587.2,-7478.7 L-7547.4,-7508.9 L-7528.7,-7524.6 L-7509.4,-7540.9 L-7502.1,-7547.6 L-7478.2,-7567.2 L-7477.1,-7567.2 L-7453.9,-7587.0 L-7453.8,-7588.2 L-7438.6,-7600.7 L-7426.6,-7610.5 L-7406.0,-7627.5 L-7404.1,-7625.2 L-7383.9,-7641.9 L-7373.7,-7650.4 L-7345.4,-7673.9 L-7325.7,-7690.3 L-7327.6,-7693.1 L-7321.1,-7698.6 L-7310.4,-7707.4 L-7303.8,-7713.2 L-7275.9,-7725.7 L-7257.0,-7732.3 L-7247.3,-7736.9 L-7220.1,-7737.1 L-7210.6,-7737.1 L-7190.5,-7736.1 L-7167.0,-7735.1 L-7165.3,-7736.7 L-7163.0,-7733.7 L-7155.6,-7733.3 L-7088.3,-7727.5 L-7080.4,-7725.8 L-7073.5,-7724.7 L-7057.9,-7723.4 L-7028.8,-7722.0 L-7022.4,-7721.9 L-7016.4,-7722.1 L-6993.1,-7723.0 L-6981.1,-7723.6 L-6969.2,-7724.7 L-6950.9,-7726.6 L-6951.0,-7725.5 L-6936.5,-7728.0 L-6922.8,-7730.6 L-6912.3,-7732.5 L-6898.5,-7742.9 L-6896.9,-7740.7 L-6895.2,-7738.3 L-6773.6,-7577.5 L-6480.1,-7476.3 L-5941.5,-7871.9 L-5794.7,-7977.6 L-5738.0,-8098.6 L-5828.2,-8216.8 L-5824.2,-8233.7 L-5808.4,-8238.0 L-5778.0,-8231.7 L-5756.4,-8239.8 L-5750.4,-8248.2 L-5751.7,-8255.5 L-5767.8,-8287.1 L-5768.9,-8298.9 L-5769.8,-8322.3 L-5772.6,-8344.9 L-5769.8,-8348.9 L-5760.7,-8353.3 L-5749.6,-8355.8 L-5741.6,-8364.4 L-5739.8,-8374.8 L-5746.6,-8394.9 L-5747.3,-8408.8 L-5745.1,-8424.6 L-5734.1,-8452.3 L-5736.4,-8465.1 L-5741.9,-8479.4 L-5742.1,-8498.8 L-5745.3,-8524.4 L-5751.1,-8540.4 L-5754.7,-8548.8 L-5752.3,-8552.5 L-5750.0,-8552.3 L-5749.4,-8553.8 L-5749.1,-8555.8 L-5749.2,-8557.8 L-5752.7,-8558.2 L-5754.9,-8561.3 L-5754.5,-8565.0 L-5757.5,-8565.8 L-5761.2,-8565.9 L-5761.7,-8565.0 L-5769.3,-8574.0 L-5770.9,-8576.8 L-5772.2,-8580.7 L-5773.1,-8584.5 L-5773.8,-8588.5 L-5774.1,-8592.5 L-5774.3,-8596.1 L-5774.3,-8599.8 L-5774.0,-8601.8 L-5772.4,-8606.8 L-5770.6,-8610.8 L-5768.3,-8614.7 L-5764.9,-8619.6 L-5761.4,-8624.3 L-5758.1,-8627.7 L-5754.0,-8630.8 L-5753.2,-8630.0 L-5718.1,-8656.8 L-5713.0,-8660.7 L-5714.0,-8662.2 L-5714.0,-8664.8 L-5705.3,-8671.6 L-5703.1,-8671.5 L-5701.0,-8670.0 L-5697.3,-8672.8 L-5661.3,-8700.1 L-5661.7,-8701.0 L-5657.5,-8704.1 L-5652.5,-8707.2 L-5649.0,-8708.8 L-5644.0,-8710.7 L-5639.7,-8711.9 L-5635.4,-8712.5 L-5630.7,-8712.9 L-5627.9,-8712.7 L-5624.0,-8712.1 L-5620.2,-8710.8 L-5617.4,-8709.4 L-5614.7,-8707.8 L-5612.7,-8706.3 L-5611.0,-8704.7 L-5608.5,-8702.3 L-5607.4,-8701.9 L-5605.6,-8701.9 L-5603.8,-8702.2 L-5598.3,-8706.1 L-5598.3,-8707.2 L-5597.7,-8708.0 L-5597.1,-8709.1 L-5597.2,-8710.4 L-5597.5,-8711.5 L-5598.3,-8712.5 L-5602.2,-8716.4 L-5605.3,-8718.9 L-5608.9,-8720.9 L-5614.8,-8723.5 L-5619.9,-8725.5 L-5611.0,-8730.1 L-5600.1,-8737.7 L-5586.6,-8739.4 L-5573.1,-8738.5 L-5564.3,-8742.0 L-5556.6,-8753.0 L-5527.6,-8804.9 L-5515.8,-8826.3 L-5506.5,-8849.1 L-5504.9,-8853.9 L-5491.1,-8896.2 L-5488.9,-8900.3 L-5486.3,-8904.4 L-5453.9,-8944.5 L-5447.0,-8951.7 L-5441.9,-8956.1 L-5369.3,-9018.3 L-5365.3,-9021.0 L-5352.9,-9027.8 L-5338.0,-9036.2 L-5291.6,-9060.5 L-5190.5,-9114.8 L-5188.1,-9112.9 L-5186.2,-9112.2 L-5184.5,-9111.7 L-5182.7,-9112.0 L-5180.8,-9112.4 L-5175.4,-9113.5 L-5169.1,-9114.9 L-5163.4,-9116.2 L-5157.5,-9117.3 L-5154.3,-9118.0 L-5149.9,-9119.3 L-5144.9,-9121.4 L-5132.8,-9128.0 L-5128.4,-9130.4 L-5126.1,-9131.8 L-5123.8,-9132.8 L-5114.4,-9136.8 L-5104.1,-9140.8 L-5091.1,-9146.4 L-5075.8,-9152.7 L-5075.2,-9153.0 L-5073.9,-9153.1 L-5072.2,-9153.6 L-5069.8,-9155.4 L-5067.1,-9156.4 L-5064.1,-9157.9 L-5058.5,-9161.1 L-5056.5,-9163.1 L-5053.2,-9165.2 L-5053.5,-9165.8 L-5052.1,-9167.5 L-5050.3,-9169.4 L-5047.3,-9170.9 L-5044.8,-9171.9 L-5042.1,-9172.9 L-5039.6,-9174.2 L-5034.7,-9177.3 L-5033.3,-9178.7 L-5031.9,-9180.9 L-5031.3,-9182.5 L-5031.1,-9184.1 L-5031.3,-9185.6 L-5031.0,-9187.1 L-5045.0,-9204.0 L-5000.9,-9229.9 L-4980.0,-9241.0 L-4975.9,-9242.3 L-4969.5,-9241.1 L-4962.4,-9231.2 L-4959.2,-9228.4 L-4956.3,-9227.0 L-4953.6,-9226.4 L-4951.1,-9226.5 L-4913.3,-9242.1 L-4903.0,-9247.1 L-4893.4,-9252.4 L-4877.9,-9260.6 L-4874.7,-9261.7 L-4659.9,-9351.0 L-4592.7,-9383.3 L-4292.2,-9527.6 L2720.9,-9585.6 L2720.9,450.0 L-12266.8,450.0 L-12266.8,23.5 Z" fill="#add7e1" stroke="none"><title>Biscayne Bay</title></path></svg>