<svg xmlns="http://www.w3.org/2000/svg" width="256" height="256" viewBox="0 0 256 256"><rect width="256" height="256" fill="#f1efe7"/><path d="M-4874.7,6866.3 L-4659.9,6777.0 L-4592.7,6744.7 L-4292.2,6600.4 L-4235.8,6655.0 L-4230.9,6659.7 L-4125.5,6569.5 L-4100.4,6550.4 L-4058.5,6512.6 L-3822.4,6295.8 L-3631.9,6078.2 L-3624.6,6064.3 L-3617.6,6056.4 L-3606.5,6043.7 L-3595.2,6030.8 L-3590.6,6025.5 L-3665.7,5928.4 L-3566.3,5868.8 L-3512.4,5940.5 L-3436.2,5853.3 L-3500.7,5767.9 L-3420.8,5684.6 L-3359.3,5765.6 L-3288.7,5685.2 L-3258.6,5665.5 L-3111.4,5570.0 L-3038.7,5521.7 L-2951.1,5464.1 L-2909.7,5436.9 L-2804.8,5369.2 L-2831.8,5333.7 L-2880.1,5269.0 L-2755.2,5189.6 L-2709.7,5166.1 L-2706.2,5163.6 L-2682.2,5145.1 L-2596.6,5099.3 L-2590.7,5090.1 L-2566.7,5073.6 L-2553.7,5054.6 L-2550.0,5051.8 L-2529.1,5043.7 L-2481.9,5026.8 L-2449.6,5012.6 L-2335.5,4959.0 L-2334.1,4962.7 L-2238.4,4921.8 L-2199.3,4971.9 L-2112.2,4913.8 L-2099.8,4905.3 L-2098.6,4904.3 L-2097.4,4902.7 L-2095.5,4899.4 L-2094.5,4896.3 L-2093.9,4892.6 L-2094.0,4889.6 L-2094.4,4886.7 L-2094.8,4883.4 L-2094.9,4880.9 L-2094.7,4878.8 L-2094.3,4876.6 L-2092.7,4872.6 L-2091.6,4870.4 L-2089.1,4866.6 L-2086.5,4863.8 L-2073.8,4858.7 L-2063.2,4854.7 L-2049.7,4850.3 L-2043.4,4848.6 L-2032.2,4844.9 L-2024.3,4842.1 L-2013.4,4837.6 L-1998.6,4831.1 L-1982.6,4823.6 L-1974.0,4819.4 L-1963.2,4813.9 L-1953.1,4808.3 L-1943.0,4802.3 L-1932.7,4795.6 L-1929.5,4793.4 L-1908.8,4777.6 L-1891.4,4764.2 L-1874.4,4749.8 L-1858.5,4734.8 L-1847.0,4721.9 L-1835.6,4708.0 L-1821.6,4690.0 L-1808.8,4672.0 L-1794.1,4648.9 L-1784.5,4631.0 L-1778.5,4619.6 L-1769.6,4600.3 L-1762.1,4582.4 L-1755.4,4563.1 L-1750.0,4546.2 L-1744.1,4518.8 L-1739.8,4494.3 L-1737.5,4473.3 L-1735.5,4448.5 L-1735.3,4422.0 L-1736.9,4397.5 L-1741.1,4365.5 L-1745.5,4343.7 L-1750.5,4323.1 L-1757.9,4299.7 L-1764.2,4281.8 L-1771.4,4262.3 L-1778.2,4246.1 L-1782.8,4235.6 L-1784.7,4227.9 L-1785.0,4222.0 L-1784.4,4216.7 L-1782.3,4212.1 L-1779.1,4208.2 L-1774.9,4206.0 L-1770.4,4205.4 L-1758.3,4208.3 L-1724.6,4216.4 L-1713.4,3961.7 L-1669.7,3507.1 L-1717.2,3495.9 L-1722.4,3481.6 L-1722.2,3461.1 L-1715.6,3414.6 L-1706.6,3404.1 L-1698.6,3373.9 L-1648.1,3385.6 L-1620.3,3095.1 L-1612.6,3014.7 L-1628.3,3010.8 L-1618.8,2972.4 L-1651.1,2964.7 L-1647.0,2941.2 L-1641.3,2925.7 L-1634.2,2907.6 L-1622.2,2882.3 L-1609.3,2885.2 L-1591.9,2702.5 L-1587.8,2591.7 L-1587.0,2571.3 L-1577.6,2500.8 L-1558.9,2325.1 L-1434.1,1999.7 L-1405.6,1911.0 L-1058.9,1778.0 L-1025.0,1764.4 L-1019.1,1761.2 L-1014.5,1757.0 L-1009.4,1751.1 L-1005.5,1744.2 L-1002.9,1737.4 L-1002.3,1727.5 L-1002.8,1715.2 L-1007.4,1559.7 L-1009.1,1529.6 L-1009.6,1508.9 L-1010.3,1468.7 L-1011.1,1456.1 L-1012.6,1445.5 L-1014.7,1436.1 L-1017.8,1426.5 L-1022.7,1415.2 L-1029.9,1403.1 L-1036.9,1393.5 L-1042.3,1384.4 L-1047.8,1372.3 L-1052.4,1360.7 L-1054.2,1351.2 L-1055.6,1340.7 L-1056.3,1330.2 L-1056.0,1320.0 L-1054.8,1308.1 L-1052.0,1296.4 L-1048.3,1286.0 L-1044.4,1276.5 L-1039.4,1267.3 L-1033.3,1256.1 L-1029.3,1246.0 L-1025.8,1233.1 L-1019.4,1223.3 L-1021.6,1134.1 L-1024.9,1128.9 L-1025.9,1068.3 L-1027.6,996.8 L-1026.4,986.9 L-1023.2,976.8 L-1015.2,961.0 L-961.7,845.9 L-960.6,844.0 L-951.2,823.5 L-942.3,804.1 L-932.3,784.1 L-922.5,763.5 L-917.7,753.5 L-865.1,645.6 L-808.9,526.4 L-687.3,279.6 L-760.4,197.7 L-820.0,324.7 L-871.5,434.6 L-879.3,450.2 L-895.2,482.7 L-927.0,480.0 L-935.7,479.5 L-938.8,482.3 L-934.6,486.1 L-950.9,500.6 L-963.8,512.5 L-966.2,563.4 L-971.0,573.6 L-986.6,573.0 L-989.2,572.1 L-1193.6,487.7 L-1198.0,485.4 L-1202.7,482.4 L-1210.1,476.8 L-1215.8,471.4 L-1220.6,466.2 L-1225.3,459.8 L-1228.9,454.2 L-1231.7,448.4 L-1233.9,442.3 L-1235.4,438.1 L-1236.5,433.0 L-1237.3,427.0 L-1238.1,418.8 L-1238.1,407.1 L-1239.5,367.4 L-1233.9,367.1 L-1234.7,346.1 L-1235.6,311.5 L-1230.4,311.4 L-1230.8,287.8 L-1236.7,287.9 L-1239.4,188.5 L-1233.8,188.2 L-1234.7,164.9 L-1240.1,165.1 L-1242.4,91.6 L-1215.4,62.5 L-1180.9,61.3 L-1155.2,60.4 L-1121.3,59.3 L-1088.7,58.3 L-1059.5,57.3 L-1046.8,56.7 L-1047.4,45.4 L-1047.6,33.6 L-1049.5,-4.7 L-1050.2,-77.8 L-1051.2,-79.1 L-1051.4,-86.3 L-1049.3,-86.4 L-1054.4,-262.5 L-1058.8,-428.2 L-1059.5,-433.4 L-1059.9,-443.0 L-1132.1,-440.4 L-1180.1,-444.5 L-1539.4,-432.0 L-1539.5,-435.2 L-1540.2,-450.5 L-1710.6,-444.5 L-1710.9,-472.8 L-1733.4,-477.9 L-1737.4,-599.0 L-1074.6,-622.0 L-1063.6,-637.1 L-1064.0,-680.1 L-1064.8,-717.3 L-1065.4,-740.6 L-1066.3,-763.3 L-1119.0,-788.1 L-1121.1,-843.2 L-1067.1,-870.0 L-1072.0,-997.5 L-1073.4,-1003.8 L-1127.1,-1028.9 L-1128.8,-1097.1 L-1077.8,-1123.4 L-1100.5,-1400.3 L-1094.5,-1523.5 L-1091.5,-1724.4 L-1091.7,-1942.9 L-1086.9,-1973.5 L-1086.6,-1988.3 L-1091.4,-2006.1 L-1086.4,-2006.1 L-1086.4,-2022.2 L-1083.4,-2433.2 L-1083.9,-2451.5 L-1089.6,-2451.5 L-1089.4,-2527.1 L-1092.7,-2531.8 L-1097.9,-2609.8 L-1087.6,-2681.1 L-1088.9,-2767.4 L-1092.4,-2788.1 L-1087.1,-2852.0 L-1090.7,-2929.3 L-1099.7,-3012.0 L-1116.8,-3146.0 L-1108.7,-3182.9 L-1112.3,-3218.8 L-1142.9,-3244.9 L-1187.8,-3244.5 L-1256.2,-3235.5 L-1300.7,-3235.5 L-1341.1,-3250.3 L-1394.2,-3286.7 L-1394.2,-3352.0 L-1395.6,-3432.3 L-1390.4,-3499.2 L-1372.8,-3551.4 L-1078.1,-3556.9 L-1071.3,-3974.8 L-1071.3,-4576.4 L-1074.4,-4794.7 L14837.8,-11366.4 L14837.8,24851.8 L-4874.7,24851.8 L-4874.7,6866.3 Z" fill="#add7e1" stroke="none"><title>Biscayne Bay</title></path><path d="M-254.1,154.7 L-301.4,131.0 L-305.1,132.7 L-360.0,261.8 L-365.6,279.3 L-375.7,298.7 L-382.8,315.9 L-417.4,395.2 L-420.2,402.0 L-421.3,406.9 L-421.8,412.0 L-421.4,416.7 L-417.7,425.3 L-413.1,432.8 L-410.1,437.4 L-406.0,443.1 L-395.5,456.4 L-362.0,500.3 L-323.2,551.9 L-309.8,566.4 L-288.3,592.4 L-268.1,619.0 L-247.4,644.5 L-236.1,662.0 L-224.8,678.2 L-222.8,680.6 L-219.9,681.9 L-217.1,681.3 L-216.0,680.7 L-217.9,699.1 L-110.4,834.3 L-100.6,827.7 L-97.3,827.8 L-92.3,828.2 L-85.8,829.8 L-78.9,833.0 L-73.0,835.6 L-69.5,837.3 L-65.1,840.2 L-61.4,843.8 L-53.5,852.3 L-41.8,865.1 L-30.9,877.9 L-22.0,889.8 L-7.5,915.8 L1.9,933.9 L12.8,958.1 L24.3,980.8 L43.6,1019.4 L48.7,1025.8 L55.8,1033.1 L63.3,1040.1 L115.0,1080.0 L120.9,1085.3 L125.1,1089.6 L129.1,1096.0 L141.4,1130.4 L143.4,1137.3 L505.3,1310.3 L524.2,1319.3 L714.7,1410.3 L906.0,1501.8 L956.8,1481.9 L972.2,1533.7 L1550.2,1809.4 L1532.0,1848.8 L1593.2,1878.5 L1612.6,1838.8 L2178.0,2108.3 L2592.3,2309.1 L2577.8,2339.8 L2639.3,2369.4 L2653.6,2338.0 L2916.5,2463.1 L2878.8,2538.8 L3467.1,2825.7 L4338.4,2851.8 L4949.2,2869.9 L5094.8,2874.9 L5657.2,2890.7 L5703.2,2891.9 L5703.3,2889.3 L6036.2,2899.3 L6108.3,2901.5 L6178.5,2903.7 L6178.3,2906.9 L6261.7,2908.3 L6281.5,2909.8 L6281.8,2904.3 L6362.3,2827.7 L6369.5,2828.0 L6384.6,2844.8 L6390.7,2840.4 L6394.6,2841.7 L6399.8,2841.6 L6407.6,2839.7 L6416.3,2837.0 L6422.7,2833.2 L6428.7,2827.6 L6442.9,2796.1 L6446.9,2785.5 L6448.3,2775.9 L6448.6,2766.6 L6444.8,2747.6 L6442.9,2741.5 L6439.7,2735.5 L6434.3,2726.9 L6427.2,2717.4 L6421.2,2711.1 L6409.0,2700.8 L6394.9,2690.2 L6372.1,2674.1 L6347.8,2661.3 L6334.9,2654.5 L6317.9,2647.9 L6292.9,2637.6 L6180.6,2577.6 L6071.5,2510.3 L6030.0,2480.0 L5984.0,2450.8 L5845.1,2373.8 L5696.6,2304.5 L5689.5,2319.6 L5661.0,2305.9 L5633.6,2364.3 L5325.4,2223.1 L5238.7,2182.3 L5135.3,2135.4 L4840.4,1999.6 L4573.9,1877.1 L4467.0,1827.7 L4413.9,1804.3 L4359.4,1780.0 L4136.5,1673.0 L3771.0,1498.5 L3615.2,1423.6 L3571.2,1514.5 L3085.7,1282.6 L2841.2,1165.7 L2603.4,1051.7 L2214.5,866.2 L1824.5,679.6 L1320.1,439.0 L905.3,241.3 L827.6,201.1 L598.0,94.2 L363.5,-18.2 L-107.4,-243.4 L-130.5,-180.1 L-249.2,134.6 L-246.8,138.7 L-254.1,154.7 Z" fill="#f1efe7" stroke="#8ab09d" stroke-width="0.65"></path><path d="M208.4,145.1 L203.3,156.0 L208.4,158.4 L204.2,167.3 L195.2,186.3 L199.5,188.4 L203.5,179.9 L219.0,187.2 L201.3,224.4 L185.8,217.1 L194.4,199.1 L190.1,197.0 L174.7,229.6 L134.9,313.4 L129.7,311.0 L124.8,321.4 L112.0,315.3 L11.2,267.6 L-73.9,227.2 L-89.4,219.8 L-84.4,209.3 L-89.2,207.1 L-38.8,100.9 L-15.4,51.5 L-10.6,53.8 L-5.7,43.5 L88.2,88.2 L98.5,93.0 L208.4,145.1 Z" fill="#d6d2c9" stroke="#bab6ad" stroke-width="0.4"><title>Garage G</title></path><path d="M-212.7,101.7 L-210.7,96.4 L-208.0,94.6 L-207.0,90.6 L-205.1,88.1 L-204.1,84.3 L-201.2,82.4 L-199.4,79.0 L-199.6,76.5 L-198.6,73.6 L-195.9,70.1 L-196.4,67.9 L-195.1,64.6 L-193.1,63.9 L-192.4,62.6 L-192.6,59.5 L-191.4,55.6 L-189.5,53.7 L-187.8,48.6 L-186.5,46.3 L-187.3,45.3 L-187.2,42.6 L-186.3,41.1 L-184.0,38.3 L-183.3,36.9 L-183.7,35.9 L-183.4,33.1 L-182.2,32.0 L-181.1,31.3 L-180.4,28.8 L-181.3,26.6 L-180.5,23.8 L-178.3,21.7 L-177.0,19.2 L-177.2,18.4 L-177.0,16.1 L-175.9,14.7 L-176.3,13.4 L-174.0,8.5 L-172.0,7.2 L-171.3,3.9 L-172.1,2.4 L-170.2,-1.3 L-168.2,-1.9 L-168.0,-4.0 L-168.5,-5.8 L-166.0,-8.9 L-166.9,-11.3 L-165.7,-14.6 L-163.0,-17.0 L-164.3,-18.6 L-163.4,-23.0 L-160.7,-27.1 L-160.5,-30.3 L-157.5,-32.5 L-156.7,-37.4 L-154.7,-41.0 L-154.6,-45.4 L-153.2,-48.8 L-150.0,-51.8 L-148.9,-53.9 L-150.1,-56.9 L-149.8,-60.3 L-152.0,-63.4 L-153.0,-71.9 L-151.6,-74.7 L-149.8,-76.7 L-149.5,-79.2 L-146.3,-81.3 L-145.4,-83.0 L-144.6,-87.5 L-141.8,-91.5 L-137.8,-94.5 L-135.2,-97.5 L-132.9,-104.3 L-130.7,-105.9 L-129.4,-109.9 L-128.0,-111.8 L-128.2,-114.5 L-125.7,-118.1 L-125.4,-123.0 L-124.0,-126.8 L-121.6,-128.9 L-121.1,-132.0 L-119.6,-134.2 L-120.9,-135.3 L-120.7,-141.5 L-118.5,-146.5 L-115.2,-152.0 L-111.9,-154.1 L-107.1,-153.0 L-105.4,-148.8 L-97.3,-169.2 L-29.7,-143.0 L-31.8,-139.7 L-24.3,-133.3 L-17.8,-134.1 L-10.4,-129.8 L-9.5,-126.0 L-6.8,-123.8 L-2.9,-122.7 L-0.4,-120.1 L1.6,-121.5 L6.6,-120.4 L7.6,-118.0 L12.9,-116.5 L15.8,-113.4 L15.9,-109.8 L14.5,-106.3 L15.2,-101.5 L16.9,-96.5 L15.6,-92.0 L10.5,-87.3 L7.2,-83.2 L6.1,-74.5 L0.9,-71.5 L-3.1,-68.0 L-7.6,-69.2 L-9.9,-72.4 L-14.2,-73.1 L-16.7,-71.0 L-16.8,-67.4 L-14.7,-63.9 L-11.4,-63.4 L-8.5,-55.9 L-11.3,-49.8 L-15.4,-47.9 L-18.4,-35.3 L-23.1,-34.1 L-26.4,-25.1 L-24.8,-21.8 L-28.0,-16.6 L-30.4,-16.2 L-32.2,-13.6 L-31.5,-10.3 L-32.2,-6.2 L-30.1,-2.2 L-32.3,3.0 L-31.3,9.1 L-35.7,13.9 L-40.5,14.9 L-44.5,20.0 L-49.8,23.7 L-50.6,33.6 L-55.3,35.7 L-61.5,33.9 L-65.2,30.2 L-69.4,29.0 L-73.4,32.4 L-76.8,33.6 L-76.9,39.1 L-70.4,41.1 L-66.7,41.0 L-59.8,43.6 L-59.0,46.6 L-59.8,49.8 L-62.1,51.5 L-64.1,54.7 L-67.4,58.1 L-68.1,61.5 L-67.5,64.8 L-69.4,68.7 L-72.6,69.5 L-72.8,74.5 L-76.8,78.8 L-78.4,87.3 L-82.0,88.3 L-86.5,90.1 L-91.9,89.6 L-95.4,84.2 L-102.1,82.4 L-104.8,86.5 L-108.6,89.1 L-108.7,92.6 L-110.5,96.3 L-107.9,98.8 L-107.4,104.2 L-109.9,108.5 L-112.1,109.0 L-112.3,111.8 L-114.3,114.6 L-114.5,118.8 L-117.7,124.3 L-122.0,124.4 L-124.9,125.6 L-127.8,125.7 L-131.9,127.8 L-134.6,132.4 L-137.2,133.8 L-120.6,142.8 L-134.3,168.5 L-194.8,139.0 L-185.4,119.2 L-187.1,118.5 L-190.4,112.1 L-195.1,110.9 L-202.9,111.8 L-207.7,107.5 L-211.3,105.5 L-212.7,101.7 Z" fill="#d6d2c9" stroke="#bab6ad" stroke-width="0.4"><title>Cruise Terminal V</title></path><path d="M345.8,260.3 L373.2,259.7 L372.6,234.9 L372.4,223.9 L257.4,226.4 L257.6,234.0 L254.1,234.1 L254.3,244.8 L258.1,244.7 L258.3,256.1 L258.5,262.5 L273.6,262.2 L273.4,253.0 L345.7,251.5 L345.8,260.3 Z" fill="#d6d2c9" stroke="#bab6ad" stroke-width="0.4"></path><path d="M187.1,-390.4 L6776.2,2577.3" fill="none" stroke="#6fb5c7" stroke-width="1.7" stroke-dasharray="5 7" opacity="0.34" stroke-linecap="round" stroke-linejoin="round"><title>Main Channel</title></path><path d="M-466.2,196.4 L104.4,467.3" fill="none" stroke="#cec8bb" stroke-width="4.5" stroke-linecap="round" stroke-linejoin="round"/><path d="M-466.2,196.4 L104.4,467.3" fill="none" stroke="#ffffff" stroke-width="3.4" stroke-linecap="round" stroke-linejoin="round"></path><path d="M204.2,167.3 L220.2,174.5 L226.5,180.8 L229.5,187.8 L226.1,210.6 L208.5,245.8 L201.8,261.5 L197.1,287.9 L195.1,316.5" fill="none" stroke="#eeeeea" stroke-width="2.2" stroke-linecap="round" stroke-linejoin="round"></path><path d="M296.7,167.6 L255.0,180.5 L246.7,185.0 L235.5,198.8 L226.1,210.6" fill="none" stroke="#eeeeea" stroke-width="2.2" stroke-linecap="round" stroke-linejoin="round"></path><path d="M116.9,79.6 L107.0,74.8" fill="none" stroke="#eeeeea" stroke-width="2.2" stroke-linecap="round" stroke-linejoin="round"><title>North Cruise Boulevard</title></path><path d="M296.7,167.6 L232.4,135.5 L116.9,79.6" fill="none" stroke="#eeeeea" stroke-width="2.2" stroke-linecap="round" stroke-linejoin="round"><title>North Cruise Boulevard</title></path><path d="M246.9,78.6 L152.4,31.5 L146.4,33.6 L141.9,37.7 L132.4,53.2" fill="none" stroke="#eeeeea" stroke-width="2.2" stroke-linecap="round" stroke-linejoin="round"></path><path d="M263.6,86.9 L246.9,78.6" fill="none" stroke="#eeeeea" stroke-width="2.2" stroke-linecap="round" stroke-linejoin="round"></path><path d="M127.0,62.2 L116.9,79.6" fill="none" stroke="#eeeeea" stroke-width="2.2" stroke-linecap="round" stroke-linejoin="round"></path><path d="M132.4,53.2 L127.0,62.2" fill="none" stroke="#eeeeea" stroke-width="2.2" stroke-linecap="round" stroke-linejoin="round"></path><path d="M94.7,46.7 L99.2,37.2" fill="none" stroke="#eeeeea" stroke-width="2.2" stroke-linecap="round" stroke-linejoin="round"></path><path d="M86.7,65.0 L94.7,46.7" fill="none" stroke="#eeeeea" stroke-width="2.2" stroke-linecap="round" stroke-linejoin="round"></path><path d="M96.7,69.8 L86.7,65.0" fill="none" stroke="#eeeeea" stroke-width="2.2" stroke-linecap="round" stroke-linejoin="round"><title>North Cruise Boulevard</title></path><path d="M107.0,74.8 L102.6,72.7 L96.7,69.8" fill="none" stroke="#eeeeea" stroke-width="2.2" stroke-linecap="round" stroke-linejoin="round"><title>North Cruise Boulevard</title></path><path d="M99.2,37.2 L100.5,34.0 L105.6,23.2 L106.7,14.3 L96.2,2.2" fill="none" stroke="#eeeeea" stroke-width="2.2" stroke-linecap="round" stroke-linejoin="round"></path><path d="M86.7,65.0 L43.2,43.8" fill="none" stroke="#eeeeea" stroke-width="2.2" stroke-linecap="round" stroke-linejoin="round"><title>North Cruise Boulevard</title></path><path d="M199.5,241.4 L174.7,229.6" fill="none" stroke="#cf828d" stroke-width="1.5" stroke-dasharray="1.6 3.0" opacity="0.62" stroke-linecap="round" stroke-linejoin="round"></path><path d="M218.1,250.6 L208.5,245.8 L199.5,241.4" fill="none" stroke="#cf828d" stroke-width="1.5" stroke-dasharray="1.6 3.0" opacity="0.62" stroke-linecap="round" stroke-linejoin="round"></path><path d="M134.9,377.4 L-161.6,235.2" fill="none" stroke="#cf828d" stroke-width="1.5" stroke-dasharray="1.6 3.0" opacity="0.62" stroke-linecap="round" stroke-linejoin="round"></path><path d="M-22.5,-97.3 L-95.4,72.5" fill="none" stroke="#cec8bb" stroke-width="3.5" stroke-linecap="round" stroke-linejoin="round"/><path d="M-22.5,-97.3 L-95.4,72.5" fill="none" stroke="#ffffff" stroke-width="2.5" stroke-linecap="round" stroke-linejoin="round"></path><path d="M43.2,43.8 L50.2,24.9 L61.6,-1.8 L70.4,-18.8 L77.8,-33.0 L67.9,-50.3" fill="none" stroke="#cec8bb" stroke-width="3.5" stroke-linecap="round" stroke-linejoin="round"/><path d="M43.2,43.8 L50.2,24.9 L61.6,-1.8 L70.4,-18.8 L77.8,-33.0 L67.9,-50.3" fill="none" stroke="#ffffff" stroke-width="2.5" stroke-linecap="round" stroke-linejoin="round"></path><path d="M50.2,24.9 L33.9,-10.3 L-9.5,-28.7 L-30.2,18.2 L-27.3,30.3" fill="none" stroke="#cec8bb" stroke-width="3.5" stroke-linecap="round" stroke-linejoin="round"/><path d="M50.2,24.9 L33.9,-10.3 L-9.5,-28.7 L-30.2,18.2 L-27.3,30.3" fill="none" stroke="#ffffff" stroke-width="2.5" stroke-linecap="round" stroke-linejoin="round"></path><path d="M43.2,43.8 L12.1,28.3 L2.4,25.2 L-7.3,24.0 L-14.7,24.6" fill="none" stroke="#d1c4aa" stroke-width="5.4" stroke-linecap="round" stroke-linejoin="round"/><path d="M43.2,43.8 L12.1,28.3 L2.4,25.2 L-7.3,24.0 L-14.7,24.6" fill="none" stroke="#f4d99b" stroke-width="4.0" stroke-linecap="round" stroke-linejoin="round"><title>North Cruise Boulevard</title></path><path d="M-528.5,106.6 L75.4,396.2" fill="none" stroke="#d1c4aa" stroke-width="7.3" stroke-linecap="round" stroke-linejoin="round"/><path d="M-528.5,106.6 L75.4,396.2" fill="none" stroke="#efb36f" stroke-width="5.9" stroke-linecap="round" stroke-linejoin="round"><title>Port Boulevard</title></path><path d="M124.5,390.4 L-231.9,220.5" fill="none" stroke="#d1c4aa" stroke-width="7.3" stroke-linecap="round" stroke-linejoin="round"/><path d="M124.5,390.4 L-231.9,220.5" fill="none" stroke="#efb36f" stroke-width="5.9" stroke-linecap="round" stroke-linejoin="round"><title>Port Boulevard</title></path><path d="M-578.5,37.9 L165.5,388.0" fill="none" stroke="#f3efe5" stroke-width="5.9" stroke-linecap="round" stroke-linejoin="round" opacity="0.95"/><path d="M-578.5,37.9 L165.5,388.0" fill="none" stroke="#aeb7ae" stroke-width="3.7" stroke-linecap="round" stroke-linejoin="round" opacity="0.9"><title>Port Miami Bridge</title></path><path d="M139.6,441.3 L-603.4,92.8" fill="none" stroke="#f3efe5" stroke-width="5.9" stroke-linecap="round" stroke-linejoin="round" opacity="0.95"/><path d="M139.6,441.3 L-603.4,92.8" fill="none" stroke="#aeb7ae" stroke-width="3.7" stroke-linecap="round" stroke-linejoin="round" opacity="0.9"><title>Port Miami Bridge</title></path><text x="64.8" y="182.5" text-anchor="middle" font-family="Arial, sans-serif" font-size="7.4" font-weight="600" paint-order="stroke" stroke="#e9f3f8" stroke-width="1.65" stroke-linejoin="round" fill="#2f7fad" textLength="37.9" lengthAdjust="spacing">Garage G</text><text x="114.5" y="183.3" text-anchor="middle" font-family="Arial, sans-serif" font-size="6.5" textLength="18.0" lengthAdjust="spacing" font-weight="500" paint-order="stroke" stroke="#f3f5ee" stroke-width="1.55" stroke-linejoin="round" fill="#6f777a">921</text><g opacity="0.56"><title>crossing</title><path d="M230.2,133.7 L234.7,133.7 M230.2,135.5 L234.7,135.5 M230.2,137.3 L234.7,137.3" stroke="#ffffff" stroke-width="2.1" stroke-linecap="round"/><path d="M230.2,133.7 L234.7,133.7 M230.2,135.5 L234.7,135.5 M230.2,137.3 L234.7,137.3" stroke="#59656a" stroke-width="0.85" stroke-linecap="round"/></g><g opacity="0.56"><title>crossing</title><path d="M100.4,70.9 L104.9,70.9 M100.4,72.7 L104.9,72.7 M100.4,74.5 L104.9,74.5" stroke="#ffffff" stroke-width="2.1" stroke-linecap="round"/><path d="M100.4,70.9 L104.9,70.9 M100.4,72.7 L104.9,72.7 M100.4,74.5 L104.9,74.5" stroke="#59656a" stroke-width="0.85" stroke-linecap="round"/></g></svg>