<svg xmlns="http://www.w3.org/2000/svg" width="256" height="256" viewBox="0 0 256 256"><rect width="256" height="256" fill="#f1efe7"/><path d="M-13322.7,16082.3 L-13107.9,15993.0 L-13040.7,15960.7 L-12740.2,15816.4 L-12683.8,15871.0 L-12678.9,15875.7 L-12573.5,15785.5 L-12548.4,15766.4 L-12506.5,15728.6 L-12270.4,15511.8 L-12079.9,15294.2 L-12072.6,15280.3 L-12065.6,15272.4 L-12054.5,15259.7 L-12043.2,15246.8 L-12038.6,15241.5 L-12113.7,15144.4 L-12014.3,15084.8 L-11960.4,15156.5 L-11884.2,15069.3 L-11948.7,14983.9 L-11868.8,14900.6 L-11807.3,14981.6 L-11736.7,14901.2 L-11706.6,14881.5 L-11559.4,14786.0 L-11486.7,14737.7 L-11399.1,14680.1 L-11357.7,14652.9 L-11252.8,14585.2 L-11279.8,14549.7 L-11328.1,14485.0 L-11203.2,14405.6 L-11157.7,14382.1 L-11154.2,14379.6 L-11130.2,14361.1 L-11044.6,14315.3 L-11038.7,14306.1 L-11014.7,14289.6 L-11001.7,14270.6 L-10998.0,14267.8 L-10977.1,14259.7 L-10929.9,14242.8 L-10897.6,14228.6 L-10783.5,14175.0 L-10782.1,14178.7 L-10686.4,14137.8 L-10647.3,14187.9 L-10560.2,14129.8 L-10547.8,14121.3 L-10546.6,14120.3 L-10545.4,14118.7 L-10543.5,14115.4 L-10542.5,14112.3 L-10541.9,14108.6 L-10542.0,14105.6 L-10542.4,14102.7 L-10542.8,14099.4 L-10542.9,14096.9 L-10542.7,14094.8 L-10542.3,14092.6 L-10540.7,14088.6 L-10539.6,14086.4 L-10537.1,14082.6 L-10534.5,14079.8 L-10521.8,14074.7 L-10511.2,14070.7 L-10497.7,14066.3 L-10491.4,14064.6 L-10480.2,14060.9 L-10472.3,14058.1 L-10461.4,14053.6 L-10446.6,14047.1 L-10430.6,14039.6 L-10422.0,14035.4 L-10411.2,14029.9 L-10401.1,14024.3 L-10391.0,14018.3 L-10380.7,14011.6 L-10377.5,14009.4 L-10356.8,13993.6 L-10339.4,13980.2 L-10322.4,13965.8 L-10306.5,13950.8 L-10295.0,13937.9 L-10283.6,13924.0 L-10269.6,13906.0 L-10256.8,13888.0 L-10242.1,13864.9 L-10232.5,13847.0 L-10226.5,13835.6 L-10217.6,13816.3 L-10210.1,13798.4 L-10203.4,13779.1 L-10198.0,13762.2 L-10192.1,13734.8 L-10187.8,13710.3 L-10185.5,13689.3 L-10183.5,13664.5 L-10183.3,13638.0 L-10184.9,13613.5 L-10189.1,13581.5 L-10193.5,13559.7 L-10198.5,13539.1 L-10205.9,13515.7 L-10212.2,13497.8 L-10219.4,13478.3 L-10226.2,13462.1 L-10230.8,13451.6 L-10232.7,13443.9 L-10233.0,13438.0 L-10232.4,13432.7 L-10230.3,13428.1 L-10227.1,13424.2 L-10222.9,13422.0 L-10218.4,13421.4 L-10206.3,13424.3 L-10172.6,13432.4 L-10161.4,13177.7 L-10117.7,12723.1 L-10165.2,12711.9 L-10170.4,12697.6 L-10170.2,12677.1 L-10163.6,12630.6 L-10154.6,12620.1 L-10146.6,12589.9 L-10096.1,12601.6 L-10068.3,12311.1 L-10060.6,12230.7 L-10076.3,12226.8 L-10066.8,12188.4 L-10099.1,12180.7 L-10095.0,12157.2 L-10089.3,12141.7 L-10082.2,12123.6 L-10070.2,12098.3 L-10057.3,12101.2 L-10039.9,11918.5 L-10035.8,11807.7 L-10035.0,11787.3 L-10025.6,11716.8 L-10006.9,11541.1 L-9882.1,11215.7 L-9853.6,11127.0 L-9506.9,10994.0 L-9473.0,10980.4 L-9467.1,10977.2 L-9462.5,10973.0 L-9457.4,10967.1 L-9453.5,10960.2 L-9450.9,10953.4 L-9450.3,10943.5 L-9450.8,10931.2 L-9455.4,10775.7 L-9457.1,10745.6 L-9457.6,10724.9 L-9458.3,10684.7 L-9459.1,10672.1 L-9460.6,10661.5 L-9462.7,10652.1 L-9465.8,10642.5 L-9470.7,10631.2 L-9477.9,10619.1 L-9484.9,10609.5 L-9490.3,10600.4 L-9495.8,10588.3 L-9500.4,10576.7 L-9502.2,10567.2 L-9503.6,10556.7 L-9504.3,10546.2 L-9504.0,10536.0 L-9502.8,10524.1 L-9500.0,10512.4 L-9496.3,10502.0 L-9492.4,10492.5 L-9487.4,10483.3 L-9481.3,10472.1 L-9477.3,10462.0 L-9473.8,10449.1 L-9467.4,10439.3 L-9469.6,10350.1 L-9472.9,10344.9 L-9473.9,10284.3 L-9475.6,10212.8 L-9474.4,10202.9 L-9471.2,10192.8 L-9463.2,10177.0 L-9409.7,10061.9 L-9408.6,10060.0 L-9399.2,10039.5 L-9390.3,10020.1 L-9380.3,10000.1 L-9370.5,9979.5 L-9365.7,9969.5 L-9313.1,9861.6 L-9256.9,9742.4 L-9135.3,9495.6 L-9208.4,9413.7 L-9268.0,9540.7 L-9319.5,9650.6 L-9327.3,9666.2 L-9343.2,9698.7 L-9375.0,9696.0 L-9383.7,9695.5 L-9386.8,9698.3 L-9382.6,9702.1 L-9398.9,9716.6 L-9411.8,9728.5 L-9414.2,9779.4 L-9419.0,9789.6 L-9434.6,9789.0 L-9437.2,9788.1 L-9641.6,9703.7 L-9646.0,9701.4 L-9650.7,9698.4 L-9658.1,9692.8 L-9663.8,9687.4 L-9668.6,9682.2 L-9673.3,9675.8 L-9676.9,9670.2 L-9679.7,9664.4 L-9681.9,9658.3 L-9683.4,9654.1 L-9684.5,9649.0 L-9685.3,9643.0 L-9686.1,9634.8 L-9686.1,9623.1 L-9687.5,9583.4 L-9681.9,9583.1 L-9682.7,9562.1 L-9683.6,9527.5 L-9678.4,9527.4 L-9678.8,9503.8 L-9684.7,9503.9 L-9687.4,9404.5 L-9681.8,9404.2 L-9682.7,9380.9 L-9688.1,9381.1 L-9690.4,9307.6 L-9663.4,9278.5 L-9628.9,9277.3 L-9603.2,9276.4 L-9569.3,9275.3 L-9536.7,9274.3 L-9507.5,9273.3 L-9494.8,9272.7 L-9495.4,9261.4 L-9495.6,9249.6 L-9497.5,9211.3 L-9498.2,9138.2 L-9499.2,9136.9 L-9499.4,9129.7 L-9497.3,9129.6 L-9502.4,8953.5 L-9506.8,8787.8 L-9507.5,8782.6 L-9507.9,8773.0 L-9580.1,8775.6 L-9628.1,8771.5 L-9987.4,8784.0 L-9987.5,8780.8 L-9988.2,8765.5 L-10158.6,8771.5 L-10158.9,8743.2 L-10181.4,8738.1 L-10185.4,8617.0 L-9522.6,8594.0 L-9511.6,8578.9 L-9512.0,8535.9 L-9512.8,8498.7 L-9513.4,8475.4 L-9514.3,8452.7 L-9567.0,8427.9 L-9569.1,8372.8 L-9515.1,8346.0 L-9520.0,8218.5 L-9521.4,8212.2 L-9575.1,8187.1 L-9576.8,8118.9 L-9525.8,8092.6 L-9548.5,7815.7 L-9542.5,7692.5 L-9539.5,7491.6 L-9539.7,7273.1 L-9534.9,7242.5 L-9534.6,7227.7 L-9539.4,7209.9 L-9534.4,7209.9 L-9534.4,7193.8 L-9531.4,6782.8 L-9531.9,6764.5 L-9537.6,6764.5 L-9537.4,6688.9 L-9540.7,6684.2 L-9545.9,6606.2 L-9535.6,6534.9 L-9536.9,6448.6 L-9540.4,6427.9 L-9535.1,6364.0 L-9538.7,6286.7 L-9547.7,6204.0 L-9564.8,6070.0 L-9556.7,6033.1 L-9560.3,5997.2 L-9590.9,5971.1 L-9635.8,5971.5 L-9704.2,5980.5 L-9748.7,5980.5 L-9789.1,5965.7 L-9842.2,5929.3 L-9842.2,5864.0 L-9843.6,5783.7 L-9838.4,5716.8 L-9820.8,5664.6 L-9526.1,5659.1 L-9519.3,5241.2 L-9519.3,4639.6 L-9522.4,4421.3 L6389.8,-2150.4 L6389.8,34067.8 L-13322.7,34067.8 L-13322.7,16082.3 Z" fill="#add7e1" stroke="none"><title>Biscayne Bay</title></path><path d="M30.4,-268.2 L60.8,-253.8 L89.6,-234.6 L108.8,-209.0 L139.2,-186.6 L172.8,-149.8 L196.8,-119.4 L262.4,-29.8 L299.2,11.8 L352.0,63.0 L404.8,115.8 L446.4,144.6 L494.4,163.8 L595.2,211.8 L641.6,218.2 L675.2,237.4 L667.2,247.0 L680.0,264.6 L699.2,307.8 L708.4,359.8 L700.3,532.5 L698.1,591.8 L686.3,675.0 L680.8,773.1 L673.2,834.9 L662.1,917.4 L649.8,984.4 L635.0,1058.0 L604.8,1185.4 L562.8,1326.9 L502.0,1489.2 L485.1,1538.3 L456.6,1606.2 L433.7,1659.0 L405.6,1727.4 L378.9,1784.5 L353.4,1842.1 L328.4,1902.9 L298.6,1988.3 L283.8,2068.9 L272.3,2114.2 L264.0,2151.0 L253.8,2197.5 L253.9,2200.3 L255.9,2251.3 L246.2,2250.5 L117.3,2249.1 L136.6,2204.6 L147.3,2106.5 L-122.8,2230.7 L-250.5,2288.2 L-219.0,2399.4 L-253.4,2442.8 L-251.6,2528.3 L-217.9,2563.1 L-148.3,2561.7 L-118.0,2542.3 L-105.1,2517.1 L-93.0,2455.8 L-70.8,2408.7 L51.5,2346.9 L59.5,2352.1 L151.1,2341.4 L262.6,2339.7 L270.9,2341.0 L273.2,2354.3 L272.3,2455.3 L258.3,2535.0 L233.7,2648.7 L204.4,2736.0 L165.3,2854.4 L144.0,2912.6 L103.3,2967.6 L60.8,3016.6 L8.0,3064.6 L-60.8,3091.8 L-147.2,3114.2 L-219.2,3127.0 L-281.6,3133.4 L-336.0,3130.2 L-389.7,3117.9 L-444.6,3105.0 L-499.5,3090.4 L-537.9,3078.1 L-577.6,3064.6 L-592.0,3059.8 L-623.5,3049.4 L-655.0,3042.3 L-692.6,3042.0 L-771.0,3039.7 L-854.1,3037.0 L-975.4,3032.5 L-1107.2,3043.8 L-1270.4,3037.4 L-1425.6,3032.6 L-1520.0,3029.4 L-1664.0,3026.2 L-1745.6,3026.2 L-1832.0,3026.2 L-1910.4,3023.0 L-1969.6,3026.2 L-2022.4,3026.2 L-2080.0,3021.4 L-2150.4,3016.6 L-2206.4,3018.2 L-2323.2,3010.2 L-2364.8,3010.2 L-2388.8,2997.4 L-2398.4,2978.2 L-2397.8,2891.3 L-2390.0,2879.1 L-2377.2,2871.1 L-2288.2,2872.2 L-2286.6,2864.8 L-2255.6,2859.0 L-2213.7,2848.9 L-2175.8,2839.3 L-2130.9,2862.3 L-2127.7,2862.4 L-2118.7,2862.2 L-2112.0,2862.9 L-1790.1,2872.0 L-1566.8,2846.3 L-1531.8,2842.2 L-1392.2,2812.5 L-1251.3,2774.8 L-1105.9,2722.4 L-966.4,2656.9 L-856.0,2495.4 L-837.9,2371.9 L-828.0,2228.6 L-753.9,2070.5 L-683.0,1937.0 L-650.1,1874.4 L-734.3,1756.8 L-843.3,1749.9 L-904.0,1741.4 L-868.8,1728.6 L-848.0,1706.2 L-840.0,1675.8 L-836.8,1645.4 L-838.4,1605.4 L-840.0,1559.0 L-828.2,1519.5 L-816.0,1504.6 L-810.0,1488.1 L-811.0,1464.9 L-814.8,1450.8 L-820.0,1436.6 L-823.5,1415.5 L-821.5,1397.2 L-810.8,1370.6 L-795.3,1341.8 L-777.2,1308.7 L-750.3,1283.1 L-713.6,1266.2 L-679.5,1248.4 L-651.3,1221.2 L-643.6,1200.1 L-637.3,1180.8 L-619.3,1146.0 L-588.8,1120.6 L-556.8,1091.8 L-544.0,1050.2 L-546.2,1003.7 L-553.8,987.0 L-579.2,955.8 L-620.8,906.2 L-636.8,856.6 L-644.8,795.8 L-649.6,739.8 L-659.2,682.2 L-660.8,631.0 L-659.2,591.0 L-648.0,559.0 L-612.8,522.2 L-592.0,496.6 L-547.2,448.6 L-521.6,423.0 L-512.0,402.2 L-504.0,367.0 L-502.4,339.8 L-504.0,312.6 L-504.0,282.2 L-496.0,258.2 L-476.8,234.2 L-436.8,192.6 L-414.4,154.2 L-406.4,112.6 L-400.0,71.0 L-388.8,32.6 L-364.8,-1.0 L-329.6,-28.2 L-288.0,-60.2 L-233.6,-90.6 L-188.8,-124.2 L-134.4,-157.8 L-75.2,-199.4 L11.2,-252.2 L30.4,-268.2 Z" fill="#ece7dc" stroke="#d7d1c5" stroke-width="0.3"></path><path d="M1090.1,134.4 L1149.3,145.6 L1192.5,169.6 L1224.5,198.4 L1250.1,233.6 L1272.5,251.2 L1310.9,265.6 L1342.9,260.8 L1365.3,257.6 L1398.9,233.6 L1413.3,212.8 L1435.7,164.8 L1461.3,104.0 L1491.7,20.8 L1504.6,-40.6 L1523.6,-102.7 L1540.1,-170.3 L1547.7,-216.0 L1544.5,-273.6 L1547.7,-318.4 L1558.9,-348.8 L1584.5,-376.0 L1616.5,-396.8 L1659.7,-404.8 L1710.9,-408.0 L1786.1,-417.6 L1882.1,-430.4 L1985.4,-447.6 L2002.2,-454.5 L2008.7,-468.7 L2011.3,-482.2 L2006.2,-517.3 L1996.0,-595.0 L1984.3,-697.7 L1975.1,-771.3 L1971.3,-875.0 L1968.7,-952.3 L1969.0,-1033.9 L1972.6,-1128.9 L1965.8,-1220.8 L1962.9,-1291.6 L1963.3,-1327.1 L1966.7,-1380.3 L1967.4,-1425.8 L1971.6,-1481.4 L1973.5,-1516.4 L1974.5,-1568.4 L1979.1,-1610.0 L1986.7,-1654.9 L1997.5,-1706.3 L2013.0,-1767.0 L2030.1,-1819.2 L2040.8,-1850.2 L2051.1,-1871.8 L2075.2,-1921.2 L2093.5,-1959.9 L2102.3,-1978.3 L2106.1,-2019.2 L2107.7,-2083.2 L2104.5,-2142.4 L2094.9,-2192.0 L2086.9,-2252.8 L2073.7,-2319.1 L2072.8,-2352.0 L2073.6,-2387.8 L2082.1,-2430.4 L2094.9,-2470.4 L2101.3,-2504.0 L2099.7,-2536.0 L2091.7,-2563.2 L2082.1,-2590.4 L2074.1,-2625.6 L2069.3,-2667.2 L2067.7,-2710.4 L2066.1,-2772.8 L2067.7,-2835.2 L2069.3,-2904.0 L2064.0,-2969.2 L2062.2,-3016.8 L2056.8,-3051.0 L2050.9,-3077.4 L2040.5,-3123.2 L2021.3,-3172.8 L1997.3,-3236.8 L1981.3,-3296.0 L1949.7,-3377.9 L1899.1,-3514.2 L1869.7,-3598.9 L1831.0,-3674.4 L1784.5,-3805.1 L1770.1,-3862.4 L1750.6,-3909.6 L1730.1,-3972.8 L1714.1,-4036.8 L1693.3,-4112.0 L1680.5,-4160.0 L1677.3,-4192.0 L1664.5,-4227.2 L1658.1,-4267.2 L1634.1,-4331.2 L1621.3,-4379.2 L1611.7,-4432.0 L1600.5,-4483.2 L1589.3,-4524.8 L1582.9,-4548.8 L1576.5,-4563.2 L1558.9,-4572.8 L1542.9,-4574.4 L1520.5,-4571.2 L1478.9,-4561.6 L1437.3,-4552.0 L1378.1,-4539.2 L1306.1,-4523.2 L1258.1,-4512.0 L1235.7,-4504.0 L1222.9,-4486.4 L1174.9,-4408.0 L1123.7,-4315.2 L1054.9,-4216.0 L990.9,-4131.2 L926.9,-4059.2 L874.1,-4009.6 L806.9,-3942.4 L736.5,-3878.4 L688.5,-3835.2 L627.7,-3785.6 L589.3,-3760.0 L502.9,-3713.6 L422.9,-3665.6 L371.7,-3636.8 L317.3,-3604.8 L282.1,-3574.4 L264.5,-3553.6 L256.5,-3531.2 L254.9,-3508.8 L258.1,-3478.4 L274.1,-3430.4 L297.4,-3333.9 L298.1,-3331.2 L299.7,-3280.0 L298.1,-3225.6 L285.3,-3161.6 L274.1,-3123.2 L253.3,-3067.2 L235.7,-3014.4 L221.3,-2961.6 L210.1,-2907.2 L206.9,-2848.0 L210.1,-2776.0 L210.6,-2740.0 L218.1,-2704.0 L235.7,-2654.4 L266.1,-2593.6 L368.5,-2432.0 L424.5,-2358.4 L493.3,-2251.2 L558.9,-2158.4 L642.1,-2022.4 L667.7,-1971.2 L699.7,-1873.6 L718.9,-1793.6 L726.9,-1721.6 L734.9,-1638.4 L733.3,-1561.6 L722.1,-1457.6 L712.5,-1395.2 L690.1,-1320.0 L670.9,-1259.2 L642.1,-1195.2 L614.9,-1147.2 L582.9,-1092.8 L542.9,-1028.8 L499.7,-972.8 L456.5,-928.0 L402.1,-888.0 L328.5,-844.8 L242.1,-779.2 L213.3,-740.8 L170.1,-683.2 L142.9,-638.4 L118.9,-577.6 L90.1,-468.8 L88.5,-408.0 L94.9,-358.4 L110.9,-323.2 L152.5,-275.2 L202.1,-211.2 L242.1,-153.6 L288.5,-107.2 L328.5,-76.8 L379.7,-11.2 L443.7,59.2 L475.7,86.4 L531.7,116.8 L598.9,139.2 L669.3,150.4 L738.1,153.6 L822.9,147.2 L930.1,144.0 L1016.5,137.6 L1090.1,134.4 Z" fill="#ece7dc" stroke="#d7d1c5" stroke-width="0.3"></path><path d="M-336.0,3130.2 L-281.6,3133.4 L-219.2,3127.0 L-147.2,3114.2 L-60.8,3091.8 L8.0,3064.6 L60.8,3016.6 L103.3,2967.6 L144.0,2912.6 L165.3,2854.4 L204.4,2736.0 L233.7,2648.7 L258.3,2535.0 L272.3,2455.3 L273.2,2354.3 L270.9,2341.0 L256.3,2253.8 L255.9,2251.3 L253.9,2200.3 L253.8,2197.5 L264.0,2151.0 L272.3,2114.2 L283.8,2068.9 L298.6,1988.3 L328.4,1902.9 L353.4,1842.1 L378.9,1784.5 L405.6,1727.4 L433.7,1659.0 L456.6,1606.2 L485.1,1538.3 L502.0,1489.2 L524.1,1428.3 L547.5,1369.8 L562.8,1326.9 L581.9,1260.4 L604.8,1185.4 L618.0,1122.7 L635.0,1058.0 L649.8,984.4 L662.1,917.4 L673.2,834.9 L680.8,773.1 L686.3,675.0 L698.1,591.8 L700.3,532.5 L708.4,415.5 L708.4,359.8 L699.2,307.8 L680.0,264.6 L667.2,247.0 L675.2,237.4 L641.6,218.2 L595.2,211.8 L560.0,192.6 L494.4,163.8 L446.4,144.6 L404.8,115.8 L352.0,63.0 L299.2,11.8 L262.4,-29.8 L196.8,-119.4 L172.8,-149.8 L139.2,-186.6 L108.8,-209.0 L89.6,-234.6 L60.8,-253.8 L30.4,-268.2 L11.2,-252.2 L-75.2,-199.4 L-134.4,-157.8 L-188.8,-124.2 L-233.6,-90.6 L-288.0,-60.2 L-329.6,-28.2 L-364.8,-1.0 L-388.8,32.6 L-400.0,71.0 L-406.4,112.6 L-414.4,154.2 L-436.8,192.6 L-476.8,234.2 L-496.0,258.2 L-504.0,282.2 L-504.0,312.6 L-502.4,339.8 L-504.0,367.0 L-512.0,402.2 L-521.6,423.0 L-547.2,448.6 L-592.0,496.6 L-612.8,522.2 L-648.0,559.0 L-659.2,591.0 L-660.8,631.0 L-659.2,682.2 L-649.6,739.8 L-644.8,795.8 L-636.8,856.6 L-620.8,906.2 L-579.2,955.8 L-553.8,987.0 L-546.2,1003.7 L-544.0,1050.2 L-556.8,1091.8 L-588.8,1120.6 L-619.3,1146.0 L-637.3,1180.8 L-643.6,1200.1 L-651.3,1221.2 L-679.5,1248.4 L-713.6,1266.2 L-750.3,1283.1 L-777.2,1308.7 L-795.3,1341.8 L-810.8,1370.6 L-821.5,1397.2 L-823.5,1415.5 L-820.0,1436.6 L-814.8,1450.8 L-811.0,1464.9 L-810.0,1488.1 L-816.0,1504.6 L-828.2,1519.5 L-830.4,1522.2 L-840.0,1559.0 L-838.4,1605.4 L-836.8,1645.4 L-840.0,1675.8 L-848.0,1706.2 L-868.8,1728.6 L-904.0,1741.4 L-945.6,1751.0 L-987.2,1765.4 L-1016.0,1792.6 L-1073.6,1837.4 L-1179.2,1925.4 L-1254.4,1995.8 L-1347.2,2077.4 L-1510.4,2218.2 L-1586.4,2281.8 L-1662.4,2371.8 L-1785.6,2509.4 L-1862.4,2591.0 L-1925.8,2658.3 L-1997.6,2737.8 L-2027.0,2770.4 L-2044.8,2787.8 L-2067.5,2800.5 L-2084.8,2810.2 L-2128.0,2827.8 L-2175.8,2839.3 L-2213.7,2848.9 L-2255.6,2859.0 L-2261.7,2854.9 L-2286.6,2864.8 L-2288.2,2872.2 L-2320.5,2871.5 L-2362.5,2871.2 L-2377.2,2871.1 L-2390.0,2879.1 L-2397.8,2891.3 L-2398.4,2978.2 L-2388.8,2997.4 L-2364.8,3010.2 L-2323.2,3010.2 L-2206.4,3018.2 L-2150.4,3016.6 L-2080.0,3021.4 L-2022.4,3026.2 L-1969.6,3026.2 L-1910.4,3023.0 L-1832.0,3026.2 L-1745.6,3026.2 L-1664.0,3026.2 L-1520.0,3029.4 L-1425.6,3032.6 L-1270.4,3037.4 L-1107.2,3043.8 L-975.4,3032.5 L-854.1,3037.0 L-771.0,3039.7 L-692.6,3042.0 L-655.0,3042.3 L-623.5,3049.4 L-592.0,3059.8 L-577.6,3064.6 L-537.9,3078.1 L-499.5,3090.4 L-444.6,3105.0 L-389.7,3117.9 L-336.0,3130.2 Z" fill="#f1efe7" stroke="#8ab09d" stroke-width="0.65"></path><path d="M1558.9,-4572.8 L1542.9,-4574.4 L1520.5,-4571.2 L1478.9,-4561.6 L1437.3,-4552.0 L1378.1,-4539.2 L1306.1,-4523.2 L1258.1,-4512.0 L1235.7,-4504.0 L1222.9,-4486.4 L1174.9,-4408.0 L1123.7,-4315.2 L1054.9,-4216.0 L990.9,-4131.2 L926.9,-4059.2 L874.1,-4009.6 L806.9,-3942.4 L736.5,-3878.4 L688.5,-3835.2 L627.7,-3785.6 L589.3,-3760.0 L502.9,-3713.6 L422.9,-3665.6 L371.7,-3636.8 L317.3,-3604.8 L282.1,-3574.4 L264.5,-3553.6 L256.5,-3531.2 L254.9,-3508.8 L258.1,-3478.4 L274.1,-3430.4 L286.9,-3379.2 L297.4,-3333.9 L298.1,-3331.2 L299.7,-3280.0 L298.1,-3225.6 L285.3,-3161.6 L274.1,-3123.2 L253.3,-3067.2 L235.7,-3014.4 L221.3,-2961.6 L210.1,-2907.2 L206.9,-2848.0 L210.1,-2776.0 L210.6,-2740.0 L218.1,-2704.0 L235.7,-2654.4 L266.1,-2593.6 L368.5,-2432.0 L424.5,-2358.4 L493.3,-2251.2 L558.9,-2158.4 L642.1,-2022.4 L667.7,-1971.2 L699.7,-1873.6 L718.9,-1793.6 L726.9,-1721.6 L734.9,-1638.4 L733.3,-1561.6 L722.1,-1457.6 L712.5,-1395.2 L690.1,-1320.0 L670.9,-1259.2 L642.1,-1195.2 L614.9,-1147.2 L582.9,-1092.8 L542.9,-1028.8 L499.7,-972.8 L456.5,-928.0 L402.1,-888.0 L328.5,-844.8 L286.9,-816.0 L242.1,-779.2 L213.3,-740.8 L170.1,-683.2 L142.9,-638.4 L118.9,-577.6 L106.1,-526.4 L90.1,-468.8 L88.5,-408.0 L94.9,-358.4 L110.9,-323.2 L152.5,-275.2 L202.1,-211.2 L242.1,-153.6 L288.5,-107.2 L328.5,-76.8 L379.7,-11.2 L443.7,59.2 L475.7,86.4 L531.7,116.8 L598.9,139.2 L669.3,150.4 L738.1,153.6 L822.9,147.2 L930.1,144.0 L1016.5,137.6 L1090.1,134.4 L1149.3,145.6 L1192.5,169.6 L1224.5,198.4 L1250.1,233.6 L1272.5,251.2 L1310.9,265.6 L1342.9,260.8 L1365.3,257.6 L1398.9,233.6 L1413.3,212.8 L1435.7,164.8 L1461.3,104.0 L1491.7,20.8 L1504.6,-40.6 L1523.6,-102.7 L1540.1,-170.3 L1547.7,-216.0 L1544.5,-273.6 L1547.7,-318.4 L1558.9,-348.8 L1584.5,-376.0 L1616.5,-396.8 L1659.7,-404.8 L1710.9,-408.0 L1786.1,-417.6 L1882.1,-430.4 L1985.4,-447.6 L2002.2,-454.5 L2008.7,-468.7 L2011.3,-482.2 L2006.2,-517.3 L1996.0,-595.0 L1984.3,-697.7 L1975.1,-771.3 L1971.3,-875.0 L1968.7,-952.3 L1969.0,-1033.9 L1972.6,-1128.9 L1965.8,-1220.8 L1962.9,-1291.6 L1963.3,-1327.1 L1966.7,-1380.3 L1967.4,-1425.8 L1971.6,-1481.4 L1973.5,-1516.4 L1974.5,-1568.4 L1979.1,-1610.0 L1986.7,-1654.9 L1997.5,-1706.3 L2013.0,-1767.0 L2030.1,-1819.2 L2040.8,-1850.2 L2051.1,-1871.8 L2075.2,-1921.2 L2093.5,-1959.9 L2102.3,-1978.3 L2106.1,-2019.2 L2107.7,-2083.2 L2104.5,-2142.4 L2094.9,-2192.0 L2086.9,-2252.8 L2073.7,-2319.1 L2072.8,-2352.0 L2073.6,-2387.8 L2082.1,-2430.4 L2094.9,-2470.4 L2101.3,-2504.0 L2099.7,-2536.0 L2091.7,-2563.2 L2082.1,-2590.4 L2074.1,-2625.6 L2069.3,-2667.2 L2067.7,-2710.4 L2066.1,-2772.8 L2067.7,-2835.2 L2069.3,-2904.0 L2064.0,-2969.2 L2062.2,-3016.8 L2056.8,-3051.0 L2050.9,-3077.4 L2040.5,-3123.2 L2021.3,-3172.8 L1997.3,-3236.8 L1981.3,-3296.0 L1949.7,-3377.9 L1899.1,-3514.2 L1869.7,-3598.9 L1831.0,-3674.4 L1784.5,-3805.1 L1770.1,-3862.4 L1750.6,-3909.6 L1730.1,-3972.8 L1714.1,-4036.8 L1693.3,-4112.0 L1680.5,-4160.0 L1677.3,-4192.0 L1664.5,-4227.2 L1658.1,-4267.2 L1634.1,-4331.2 L1621.3,-4379.2 L1611.7,-4432.0 L1600.5,-4483.2 L1589.3,-4524.8 L1582.9,-4548.8 L1576.5,-4563.2 L1558.9,-4572.8 Z" fill="#f1efe7" stroke="#8ab09d" stroke-width="0.65"></path><path d="M95.0,191.7 L89.6,225.0 L83.7,224.1 L83.1,227.8 L72.4,226.1 L71.9,228.8 L64.3,227.5 L68.9,197.7 L71.4,198.1 L71.9,195.1 L77.4,196.0 L78.5,189.1 L95.0,191.7 Z" fill="#d6d2c9" stroke="#bab6ad" stroke-width="0.4"></path><path d="M40.5,-44.3 L61.9,-19.6 L38.7,0.7 L14.3,-28.6 L23.1,-36.1 L26.3,-32.3 L40.5,-44.3 Z" fill="#d6d2c9" stroke="#bab6ad" stroke-width="0.4"></path><path d="M11.5,132.1 L39.7,165.0 L26.0,176.8 L32.6,184.6 L23.1,192.9 L-9.9,154.4 L-0.9,146.5 L6.2,154.8 L12.9,149.0 L4.0,138.6 L11.5,132.1 Z" fill="#d6d2c9" stroke="#bab6ad" stroke-width="0.4"></path><path d="M108.3,86.8 L103.2,91.2 L107.8,96.5 L89.3,112.5 L66.8,86.2 L75.2,78.6 L83.3,87.7 L90.8,81.0 L81.2,70.3 L88.6,63.7 L108.3,86.8 Z" fill="#d6d2c9" stroke="#bab6ad" stroke-width="0.4"></path><path d="M272.0,243.5 L268.5,268.9 L252.8,266.7 L253.3,263.1 L233.4,260.3 L233.0,263.5 L223.5,262.2 L225.9,244.6 L241.7,246.8 L242.1,243.4 L259.4,245.8 L259.9,241.9 L272.0,243.5 Z" fill="#d6d2c9" stroke="#bab6ad" stroke-width="0.4"></path><path d="M263.7,183.6 L244.5,199.9 L241.4,196.1 L234.7,201.7 L228.8,194.7 L220.1,202.1 L209.7,189.7 L218.8,181.9 L216.8,179.6 L243.6,156.9 L249.9,164.3 L248.5,165.5 L263.7,183.6 Z" fill="#d6d2c9" stroke="#bab6ad" stroke-width="0.4"></path><path d="M271.9,189.9 L277.6,194.8 L279.6,192.4 L284.7,196.7 L281.5,200.5 L286.1,204.3 L287.2,203.0 L306.8,219.7 L299.3,228.6 L297.7,227.2 L292.5,233.4 L284.2,226.3 L282.6,228.2 L275.9,222.5 L266.2,234.1 L253.4,223.3 L257.9,217.9 L252.4,213.2 L271.9,189.9 Z" fill="#d6d2c9" stroke="#bab6ad" stroke-width="0.4"></path><path d="M59.3,195.0 L55.9,217.9 L59.5,218.4 L57.6,231.0 L31.5,227.1 L31.0,230.3 L21.4,228.8 L24.1,210.6 L34.2,212.2 L37.9,187.0 L48.8,188.6 L48.1,193.4 L59.3,195.0 Z" fill="#d6d2c9" stroke="#bab6ad" stroke-width="0.4"></path><path d="M-12.4,-0.0 L9.6,26.3 L3.4,31.5 L-3.6,23.1 L-10.7,29.1 L-6.3,34.2 L-14.8,41.3 L-36.0,15.9 L-28.0,8.8 L-25.6,11.6 L-12.4,-0.0 Z" fill="#d6d2c9" stroke="#bab6ad" stroke-width="0.4"></path><path d="M37.0,110.9 L57.0,134.2 L51.8,138.7 L59.2,147.3 L48.3,156.8 L41.5,148.8 L35.9,153.7 L19.6,134.8 L26.2,129.1 L29.4,133.0 L38.9,124.7 L31.3,115.8 L37.0,110.9 Z" fill="#d6d2c9" stroke="#bab6ad" stroke-width="0.4"></path><path d="M132.0,204.0 L127.7,232.4 L121.0,231.4 L120.6,234.0 L111.4,232.6 L111.0,235.2 L103.3,234.0 L107.8,204.0 L114.5,205.0 L115.0,201.4 L132.0,204.0 Z" fill="#d6d2c9" stroke="#bab6ad" stroke-width="0.4"></path><path d="M205.2,133.3 L191.6,144.9 L184.9,136.7 L178.7,142.0 L172.2,134.3 L178.1,129.4 L170.6,120.5 L184.7,108.7 L205.2,133.3 Z" fill="#d6d2c9" stroke="#bab6ad" stroke-width="0.4"></path><path d="M198.7,207.8 L197.3,218.4 L185.8,216.7 L187.3,206.1 L198.7,207.8 Z" fill="#d6d2c9" stroke="#bab6ad" stroke-width="0.4"></path><path d="M190.1,225.7 L216.2,229.8 L212.9,250.7 L205.8,249.6 L206.3,246.1 L188.1,243.2 L188.5,240.8 L182.0,239.8 L184.0,227.2 L189.8,228.1 L190.1,225.7 Z" fill="#d6d2c9" stroke="#bab6ad" stroke-width="0.4"></path><path d="M20.7,207.2 L17.8,224.8 L0.4,222.0 L-0.1,225.3 L-12.4,223.3 L-7.2,191.4 L12.6,194.6 L10.8,205.6 L20.7,207.2 Z" fill="#d6d2c9" stroke="#bab6ad" stroke-width="0.4"></path><path d="M19.6,-14.4 L35.7,4.2 L29.0,10.1 L25.3,5.7 L18.0,12.1 L19.6,13.9 L12.0,20.5 L-6.1,-0.3 L0.7,-6.4 L2.3,-4.6 L11.2,-12.8 L14.2,-9.5 L19.6,-14.4 Z" fill="#d6d2c9" stroke="#bab6ad" stroke-width="0.4"></path><path d="M135.4,80.8 L121.8,93.0 L93.8,59.8 L106.8,48.7 L135.4,80.8 Z" fill="#d6d2c9" stroke="#bab6ad" stroke-width="0.4"></path><path d="M175.1,241.7 L147.8,236.6 L149.9,225.1 L171.6,228.7 L170.9,232.8 L176.4,233.8 L175.1,241.7 Z" fill="#d6d2c9" stroke="#bab6ad" stroke-width="0.4"></path><path d="M238.8,156.2 L211.2,179.6 L210.2,178.4 L201.1,186.1 L183.6,165.3 L188.6,161.1 L187.0,159.2 L218.7,132.2 L238.8,156.2 Z" fill="#d6d2c9" stroke="#bab6ad" stroke-width="0.4"></path><path d="M61.5,89.4 L77.6,108.0 L79.0,106.8 L82.9,111.3 L76.3,117.1 L79.5,120.7 L72.8,126.5 L67.7,120.7 L66.2,122.0 L67.9,123.9 L64.1,127.3 L46.0,106.4 L54.1,99.2 L52.5,97.4 L61.5,89.4 Z" fill="#d6d2c9" stroke="#bab6ad" stroke-width="0.4"></path><path d="M138.4,28.8 L155.1,48.2 L158.7,45.0 L166.4,53.9 L156.8,62.3 L142.6,46.0 L133.8,53.7 L123.5,41.9 L138.4,28.8 Z" fill="#d6d2c9" stroke="#bab6ad" stroke-width="0.4"></path><path d="M164.1,100.7 L167.0,104.2 L163.3,107.1 L168.9,114.0 L158.4,122.6 L159.9,124.5 L138.7,141.8 L136.8,139.4 L133.4,142.1 L117.3,122.1 L121.0,119.1 L120.2,118.1 L139.9,101.8 L141.4,103.6 L160.4,87.9 L158.5,85.6 L169.2,76.8 L177.3,86.7 L166.6,95.5 L168.2,97.4 L164.1,100.7 Z" fill="#d6d2c9" stroke="#bab6ad" stroke-width="0.4"></path><path d="M152.3,-16.1 L143.6,-5.2 L133.3,7.7" fill="none" stroke="#cf828d" stroke-width="1.5" stroke-dasharray="1.6 3.0" opacity="0.62" stroke-linecap="round" stroke-linejoin="round"></path><path d="M308.1,160.3 L301.2,153.6 L296.4,148.5 L290.6,142.3 L286.3,137.7 L278.8,129.0 L191.4,27.6 L184.6,19.9 L178.1,12.3 L172.7,6.0 L171.1,4.0 L169.8,2.6 L162.0,-2.9 L157.8,-8.3 L156.1,-11.4 L155.1,-14.2 L154.8,-16.7 L154.9,-18.1 L155.0,-19.8 L155.5,-22.5 L156.7,-24.6 L158.3,-26.3 L216.5,-77.1" fill="none" stroke="#cf828d" stroke-width="1.5" stroke-dasharray="1.6 3.0" opacity="0.62" stroke-linecap="round" stroke-linejoin="round"></path><path d="M313.3,186.2 L295.3,168.5 L235.2,101.0 L205.3,66.0 L173.7,29.7 L147.5,-0.7 L143.6,-5.2 L133.3,-17.1" fill="none" stroke="#cec8bb" stroke-width="4.8" stroke-linecap="round" stroke-linejoin="round"/><path d="M313.3,186.2 L295.3,168.5 L235.2,101.0 L205.3,66.0 L173.7,29.7 L147.5,-0.7 L143.6,-5.2 L133.3,-17.1" fill="none" stroke="#ffffff" stroke-width="3.7" stroke-linecap="round" stroke-linejoin="round"><title>West 48th Street</title></path><path d="M-156.2,10.5 L27.1,-143.8" fill="none" stroke="#cec8bb" stroke-width="4.8" stroke-linecap="round" stroke-linejoin="round"/><path d="M-156.2,10.5 L27.1,-143.8" fill="none" stroke="#ffffff" stroke-width="3.7" stroke-linecap="round" stroke-linejoin="round"><title>North Bay Road</title></path><path d="M-117.9,237.0 L31.0,261.3 L127.8,277.1 L152.2,281.1 L167.8,283.6 L370.0,316.6" fill="none" stroke="#cec8bb" stroke-width="4.8" stroke-linecap="round" stroke-linejoin="round"/><path d="M-117.9,237.0 L31.0,261.3 L127.8,277.1 L152.2,281.1 L167.8,283.6 L370.0,316.6" fill="none" stroke="#ffffff" stroke-width="3.7" stroke-linecap="round" stroke-linejoin="round"><title>West 47th Court</title></path><path d="M121.0,-30.8 L-10.9,80.2 L-107.9,167.3" fill="none" stroke="#d1c4aa" stroke-width="7.3" stroke-linecap="round" stroke-linejoin="round"/><path d="M121.0,-30.8 L-10.9,80.2 L-107.9,167.3" fill="none" stroke="#efb36f" stroke-width="5.9" stroke-linecap="round" stroke-linejoin="round"><title>Alton Road</title></path><path d="M-65.8,161.0 L43.7,64.4 L133.3,-17.1 L210.2,-84.2" fill="none" stroke="#d1c4aa" stroke-width="7.3" stroke-linecap="round" stroke-linejoin="round"/><path d="M-65.8,161.0 L43.7,64.4 L133.3,-17.1 L210.2,-84.2" fill="none" stroke="#efb36f" stroke-width="5.9" stroke-linecap="round" stroke-linejoin="round"><title>Alton Road</title></path><g transform="translate(40.9 36.6) rotate(139.9)"><path d="M -3.6 -3.2 L 4.4 0 L -3.6 3.2 Z" fill="#58656d" opacity="0.46"/></g><g transform="translate(71.4 39.2) rotate(-42.3)"><path d="M -3.6 -3.2 L 4.4 0 L -3.6 3.2 Z" fill="#58656d" opacity="0.46"/></g><g><rect x="20.0" y="29.9" width="41.0" height="14.0" rx="3" fill="#ffffff" stroke="#8a8f96" stroke-width="1"/><text x="40.5" y="37.3" text-anchor="middle" dominant-baseline="central" font-family="Arial, sans-serif" font-size="8" font-weight="700" fill="#56616a">SR 907</text></g><text x="189.5" y="47.9" transform="rotate(49.0 189.5 47.9)" text-anchor="middle" dominant-baseline="central" font-family="Arial, sans-serif" font-size="8.3" textLength="85.0" lengthAdjust="spacing" font-weight="650" paint-order="stroke" stroke="#fffaf0" stroke-width="2.05" stroke-linejoin="round" fill="#695f54">West 48th Street</text><text x="77.3" y="210.6" text-anchor="middle" font-family="Arial, sans-serif" font-size="6.5" textLength="18.0" lengthAdjust="spacing" font-weight="500" paint-order="stroke" stroke="#f3f5ee" stroke-width="1.55" stroke-linejoin="round" fill="#6f777a">1015</text><text x="15.0" y="159.5" text-anchor="middle" font-family="Arial, sans-serif" font-size="6.5" textLength="18.0" lengthAdjust="spacing" font-weight="500" paint-order="stroke" stroke="#f3f5ee" stroke-width="1.55" stroke-linejoin="round" fill="#6f777a">4741</text><text x="89.4" y="85.5" text-anchor="middle" font-family="Arial, sans-serif" font-size="6.5" textLength="18.0" lengthAdjust="spacing" font-weight="500" paint-order="stroke" stroke="#f3f5ee" stroke-width="1.55" stroke-linejoin="round" fill="#6f777a">4755</text><text x="241.0" y="246.0" text-anchor="middle" font-family="Arial, sans-serif" font-size="6.5" textLength="18.0" lengthAdjust="spacing" font-weight="500" paint-order="stroke" stroke="#f3f5ee" stroke-width="1.55" stroke-linejoin="round" fill="#6f777a">925</text><text x="235.0" y="184.7" text-anchor="middle" font-family="Arial, sans-serif" font-size="6.5" textLength="18.0" lengthAdjust="spacing" font-weight="500" paint-order="stroke" stroke="#f3f5ee" stroke-width="1.55" stroke-linejoin="round" fill="#6f777a">950</text><text x="42.5" y="211.7" text-anchor="middle" font-family="Arial, sans-serif" font-size="6.5" textLength="18.0" lengthAdjust="spacing" font-weight="500" paint-order="stroke" stroke="#f3f5ee" stroke-width="1.55" stroke-linejoin="round" fill="#6f777a">1025</text><text x="39.7" y="135.6" text-anchor="middle" font-family="Arial, sans-serif" font-size="6.5" textLength="18.0" lengthAdjust="spacing" font-weight="500" paint-order="stroke" stroke="#f3f5ee" stroke-width="1.55" stroke-linejoin="round" fill="#6f777a">4747</text><text x="116.4" y="221.4" text-anchor="middle" font-family="Arial, sans-serif" font-size="6.5" textLength="18.0" lengthAdjust="spacing" font-weight="500" paint-order="stroke" stroke="#f3f5ee" stroke-width="1.55" stroke-linejoin="round" fill="#6f777a">1001</text><text x="183.3" y="131.2" text-anchor="middle" font-family="Arial, sans-serif" font-size="6.5" textLength="18.0" lengthAdjust="spacing" font-weight="500" paint-order="stroke" stroke="#f3f5ee" stroke-width="1.55" stroke-linejoin="round" fill="#6f777a">970</text><text x="196.4" y="238.1" text-anchor="middle" font-family="Arial, sans-serif" font-size="6.5" textLength="18.0" lengthAdjust="spacing" font-weight="500" paint-order="stroke" stroke="#f3f5ee" stroke-width="1.55" stroke-linejoin="round" fill="#6f777a">939</text><text x="15.0" y="211.8" text-anchor="middle" font-family="Arial, sans-serif" font-size="6.5" textLength="18.0" lengthAdjust="spacing" font-weight="500" paint-order="stroke" stroke="#f3f5ee" stroke-width="1.55" stroke-linejoin="round" fill="#6f777a">1045</text><text x="15.1" y="16.5" text-anchor="middle" font-family="Arial, sans-serif" font-size="6.5" textLength="18.0" lengthAdjust="spacing" font-weight="500" paint-order="stroke" stroke="#f3f5ee" stroke-width="1.55" stroke-linejoin="round" fill="#6f777a">4760</text><text x="114.5" y="70.6" text-anchor="middle" font-family="Arial, sans-serif" font-size="6.5" textLength="18.0" lengthAdjust="spacing" font-weight="500" paint-order="stroke" stroke="#f3f5ee" stroke-width="1.55" stroke-linejoin="round" fill="#6f777a">4763</text><text x="165.3" y="233.1" text-anchor="middle" font-family="Arial, sans-serif" font-size="6.5" textLength="18.0" lengthAdjust="spacing" font-weight="500" paint-order="stroke" stroke="#f3f5ee" stroke-width="1.55" stroke-linejoin="round" fill="#6f777a">951</text><text x="204.9" y="164.7" text-anchor="middle" font-family="Arial, sans-serif" font-size="6.5" textLength="18.0" lengthAdjust="spacing" font-weight="500" paint-order="stroke" stroke="#f3f5ee" stroke-width="1.55" stroke-linejoin="round" fill="#6f777a">960</text><text x="67.7" y="112.6" text-anchor="middle" font-family="Arial, sans-serif" font-size="6.5" textLength="18.0" lengthAdjust="spacing" font-weight="500" paint-order="stroke" stroke="#f3f5ee" stroke-width="1.55" stroke-linejoin="round" fill="#6f777a">4753</text><text x="146.9" y="47.5" text-anchor="middle" font-family="Arial, sans-serif" font-size="6.5" textLength="18.0" lengthAdjust="spacing" font-weight="500" paint-order="stroke" stroke="#f3f5ee" stroke-width="1.55" stroke-linejoin="round" fill="#6f777a">4767</text><text x="151.5" y="109.5" text-anchor="middle" font-family="Arial, sans-serif" font-size="6.5" textLength="18.0" lengthAdjust="spacing" font-weight="500" paint-order="stroke" stroke="#f3f5ee" stroke-width="1.55" stroke-linejoin="round" fill="#6f777a">980</text><g><title>Alton Road @ 48th Street</title><rect x="44.9" y="15.7" width="6.9" height="6.1" rx="1.3" fill="#2796c9" stroke="#ffffff" stroke-width="1.05"/><rect x="46.2" y="17.0" width="4.4" height="2.1" rx="0.35" fill="#ffffff"/><circle cx="46.5" cy="20.7" r="0.5" fill="#ffffff"/><circle cx="50.2" cy="20.7" r="0.5" fill="#ffffff"/></g></svg>