<svg xmlns="http://www.w3.org/2000/svg" width="256" height="256" viewBox="0 0 256 256"><rect width="256" height="256" fill="#f1efe7"/><path d="M-13322.7,-45.7 L-13107.9,-135.0 L-13040.7,-167.3 L-12740.2,-311.6 L-12683.8,-257.0 L-12678.9,-252.3 L-12573.5,-342.5 L-12548.4,-361.6 L-12506.5,-399.4 L-12270.4,-616.2 L-12079.9,-833.8 L-12072.6,-847.7 L-12065.6,-855.6 L-12054.5,-868.3 L-12043.2,-881.2 L-12038.6,-886.5 L-12113.7,-983.6 L-12014.3,-1043.2 L-11960.4,-971.5 L-11884.2,-1058.7 L-11948.7,-1144.1 L-11868.8,-1227.4 L-11807.3,-1146.4 L-11736.7,-1226.8 L-11706.6,-1246.5 L-11559.4,-1342.0 L-11486.7,-1390.3 L-11399.1,-1447.9 L-11357.7,-1475.1 L-11252.8,-1542.8 L-11279.8,-1578.3 L-11328.1,-1643.0 L-11203.2,-1722.4 L-11157.7,-1745.9 L-11154.2,-1748.4 L-11130.2,-1766.9 L-11044.6,-1812.7 L-11038.7,-1821.9 L-11014.7,-1838.4 L-11001.7,-1857.4 L-10998.0,-1860.2 L-10977.1,-1868.3 L-10929.9,-1885.2 L-10897.6,-1899.4 L-10783.5,-1953.0 L-10782.1,-1949.3 L-10686.4,-1990.2 L-10647.3,-1940.1 L-10560.2,-1998.2 L-10547.8,-2006.7 L-10546.6,-2007.7 L-10545.4,-2009.3 L-10543.5,-2012.6 L-10542.5,-2015.7 L-10541.9,-2019.4 L-10542.0,-2022.4 L-10542.4,-2025.3 L-10542.8,-2028.6 L-10542.9,-2031.1 L-10542.7,-2033.2 L-10542.3,-2035.4 L-10540.7,-2039.4 L-10539.6,-2041.6 L-10537.1,-2045.4 L-10534.5,-2048.2 L-10521.8,-2053.3 L-10511.2,-2057.3 L-10497.7,-2061.7 L-10491.4,-2063.4 L-10480.2,-2067.1 L-10472.3,-2069.9 L-10461.4,-2074.4 L-10446.6,-2080.9 L-10430.6,-2088.4 L-10422.0,-2092.6 L-10411.2,-2098.1 L-10401.1,-2103.7 L-10391.0,-2109.7 L-10380.7,-2116.4 L-10377.5,-2118.6 L-10356.8,-2134.4 L-10339.4,-2147.8 L-10322.4,-2162.2 L-10306.5,-2177.2 L-10295.0,-2190.1 L-10283.6,-2204.0 L-10269.6,-2222.0 L-10256.8,-2240.0 L-10242.1,-2263.1 L-10232.5,-2281.0 L-10226.5,-2292.4 L-10217.6,-2311.7 L-10210.1,-2329.6 L-10203.4,-2348.9 L-10198.0,-2365.8 L-10192.1,-2393.2 L-10187.8,-2417.7 L-10185.5,-2438.7 L-10183.5,-2463.5 L-10183.3,-2490.0 L-10184.9,-2514.5 L-10189.1,-2546.5 L-10193.5,-2568.3 L-10198.5,-2588.9 L-10205.9,-2612.3 L-10212.2,-2630.2 L-10219.4,-2649.7 L-10226.2,-2665.9 L-10230.8,-2676.4 L-10232.7,-2684.1 L-10233.0,-2690.0 L-10232.4,-2695.3 L-10230.3,-2699.9 L-10227.1,-2703.8 L-10222.9,-2706.0 L-10218.4,-2706.6 L-10206.3,-2703.7 L-10172.6,-2695.6 L-10161.4,-2950.3 L-10117.7,-3404.9 L-10165.2,-3416.1 L-10170.4,-3430.4 L-10170.2,-3450.9 L-10163.6,-3497.4 L-10154.6,-3507.9 L-10146.6,-3538.1 L-10096.1,-3526.4 L-10068.3,-3816.9 L-10060.6,-3897.3 L-10076.3,-3901.2 L-10066.8,-3939.6 L-10099.1,-3947.3 L-10095.0,-3970.8 L-10089.3,-3986.3 L-10082.2,-4004.4 L-10070.2,-4029.7 L-10057.3,-4026.8 L-10039.9,-4209.5 L-10035.8,-4320.3 L-10035.0,-4340.7 L-10025.6,-4411.2 L-10006.9,-4586.9 L-9882.1,-4912.3 L-9853.6,-5001.0 L-9506.9,-5134.0 L-9473.0,-5147.6 L-9467.1,-5150.8 L-9462.5,-5155.0 L-9457.4,-5160.9 L-9453.5,-5167.8 L-9450.9,-5174.6 L-9450.3,-5184.5 L-9450.8,-5196.8 L-9455.4,-5352.3 L-9457.1,-5382.4 L-9457.6,-5403.1 L-9458.3,-5443.3 L-9459.1,-5455.9 L-9460.6,-5466.5 L-9462.7,-5475.9 L-9465.8,-5485.5 L-9470.7,-5496.8 L-9477.9,-5508.9 L-9484.9,-5518.5 L-9490.3,-5527.6 L-9495.8,-5539.7 L-9500.4,-5551.3 L-9502.2,-5560.8 L-9503.6,-5571.3 L-9504.3,-5581.8 L-9504.0,-5592.0 L-9502.8,-5603.9 L-9500.0,-5615.6 L-9496.3,-5626.0 L-9492.4,-5635.5 L-9487.4,-5644.7 L-9481.3,-5655.9 L-9477.3,-5666.0 L-9473.8,-5678.9 L-9467.4,-5688.7 L-9469.6,-5777.9 L-9472.9,-5783.1 L-9473.9,-5843.7 L-9475.6,-5915.2 L-9474.4,-5925.1 L-9471.2,-5935.2 L-9463.2,-5951.0 L-9409.7,-6066.1 L-9408.6,-6068.0 L-9399.2,-6088.5 L-9390.3,-6107.9 L-9380.3,-6127.9 L-9370.5,-6148.5 L-9365.7,-6158.5 L-9313.1,-6266.4 L-9256.9,-6385.6 L-9135.3,-6632.4 L-9208.4,-6714.3 L-9268.0,-6587.3 L-9319.5,-6477.4 L-9327.3,-6461.8 L-9343.2,-6429.3 L-9375.0,-6432.0 L-9383.7,-6432.5 L-9386.8,-6429.7 L-9382.6,-6425.9 L-9398.9,-6411.4 L-9411.8,-6399.5 L-9414.2,-6348.6 L-9419.0,-6338.4 L-9434.6,-6339.0 L-9437.2,-6339.9 L-9641.6,-6424.3 L-9646.0,-6426.6 L-9650.7,-6429.6 L-9658.1,-6435.2 L-9663.8,-6440.6 L-9668.6,-6445.8 L-9673.3,-6452.2 L-9676.9,-6457.8 L-9679.7,-6463.6 L-9681.9,-6469.7 L-9683.4,-6473.9 L-9684.5,-6479.0 L-9685.3,-6485.0 L-9686.1,-6493.2 L-9686.1,-6504.9 L-9687.5,-6544.6 L-9681.9,-6544.9 L-9682.7,-6565.9 L-9683.6,-6600.5 L-9678.4,-6600.6 L-9678.8,-6624.2 L-9684.7,-6624.1 L-9687.4,-6723.5 L-9681.8,-6723.8 L-9682.7,-6747.1 L-9688.1,-6746.9 L-9690.4,-6820.4 L-9663.4,-6849.5 L-9628.9,-6850.7 L-9603.2,-6851.6 L-9569.3,-6852.7 L-9536.7,-6853.7 L-9507.5,-6854.7 L-9494.8,-6855.3 L-9495.4,-6866.6 L-9495.6,-6878.4 L-9497.5,-6916.7 L-9498.2,-6989.8 L-9499.2,-6991.1 L-9499.4,-6998.3 L-9497.3,-6998.4 L-9502.4,-7174.5 L-9506.8,-7340.2 L-9507.5,-7345.4 L-9507.9,-7355.0 L-9580.1,-7352.4 L-9628.1,-7356.5 L-9987.4,-7344.0 L-9987.5,-7347.2 L-9988.2,-7362.5 L-10158.6,-7356.5 L-10158.9,-7384.8 L-10181.4,-7389.9 L-10185.4,-7511.0 L-9522.6,-7534.0 L-9511.6,-7549.1 L-9512.0,-7592.1 L-9512.8,-7629.3 L-9513.4,-7652.6 L-9514.3,-7675.3 L-9567.0,-7700.1 L-9569.1,-7755.2 L-9515.1,-7782.0 L-9520.0,-7909.5 L-9521.4,-7915.8 L-9575.1,-7940.9 L-9576.8,-8009.1 L-9525.8,-8035.4 L-9548.5,-8312.3 L-9542.5,-8435.5 L-9539.5,-8636.4 L-9539.7,-8854.9 L-9534.9,-8885.5 L-9534.6,-8900.3 L-9539.4,-8918.1 L-9534.4,-8918.1 L-9534.4,-8934.2 L-9531.4,-9345.2 L-9531.9,-9363.5 L-9537.6,-9363.5 L-9537.4,-9439.1 L-9540.7,-9443.8 L-9545.9,-9521.8 L-9535.6,-9593.1 L-9536.9,-9679.4 L-9540.4,-9700.1 L-9535.1,-9764.0 L-9538.7,-9841.3 L-9547.7,-9924.0 L-9564.8,-10058.0 L-9556.7,-10094.9 L-9560.3,-10130.8 L-9590.9,-10156.9 L-9635.8,-10156.5 L-9704.2,-10147.5 L-9748.7,-10147.5 L-9789.1,-10162.3 L-9842.2,-10198.7 L-9842.2,-10264.0 L-9843.6,-10344.3 L-9838.4,-10411.2 L-9820.8,-10463.4 L-9526.1,-10468.9 L-9519.3,-10886.8 L-9519.3,-11488.4 L-9522.4,-11706.7 L6389.8,-18278.4 L6389.8,17939.8 L-13322.7,17939.8 L-13322.7,-45.7 Z" fill="#add7e1" stroke="none"><title>Biscayne Bay</title></path><path d="M-1.0,-1.0 L257.0,-1.0 L257.0,257.0 L-1.0,257.0 L-1.0,-1.0 Z" fill="#add7e1" stroke="none" fill-rule="evenodd"><title>Biscayne Bay</title></path></svg>