<svg xmlns="http://www.w3.org/2000/svg" width="256" height="256" viewBox="0 0 256 256"><rect width="256" height="256" fill="#f1efe7"/><path d="M-13322.7,-17709.7 L-13107.9,-17799.0 L-13040.7,-17831.3 L-12740.2,-17975.6 L-12683.8,-17921.0 L-12678.9,-17916.3 L-12573.5,-18006.5 L-12548.4,-18025.6 L-12506.5,-18063.4 L-12270.4,-18280.2 L-12079.9,-18497.8 L-12072.6,-18511.7 L-12065.6,-18519.6 L-12054.5,-18532.3 L-12043.2,-18545.2 L-12038.6,-18550.5 L-12113.7,-18647.6 L-12014.3,-18707.2 L-11960.4,-18635.5 L-11884.2,-18722.7 L-11948.7,-18808.1 L-11868.8,-18891.4 L-11807.3,-18810.4 L-11736.7,-18890.8 L-11706.6,-18910.5 L-11559.4,-19006.0 L-11486.7,-19054.3 L-11399.1,-19111.9 L-11357.7,-19139.1 L-11252.8,-19206.8 L-11279.8,-19242.3 L-11328.1,-19307.0 L-11203.2,-19386.4 L-11157.7,-19409.9 L-11154.2,-19412.4 L-11130.2,-19430.9 L-11044.6,-19476.7 L-11038.7,-19485.9 L-11014.7,-19502.4 L-11001.7,-19521.4 L-10998.0,-19524.2 L-10977.1,-19532.3 L-10929.9,-19549.2 L-10897.6,-19563.4 L-10783.5,-19617.0 L-10782.1,-19613.3 L-10686.4,-19654.2 L-10647.3,-19604.1 L-10560.2,-19662.2 L-10547.8,-19670.7 L-10546.6,-19671.7 L-10545.4,-19673.3 L-10543.5,-19676.6 L-10542.5,-19679.7 L-10541.9,-19683.4 L-10542.0,-19686.4 L-10542.4,-19689.3 L-10542.8,-19692.6 L-10542.9,-19695.1 L-10542.7,-19697.2 L-10542.3,-19699.4 L-10540.7,-19703.4 L-10539.6,-19705.6 L-10537.1,-19709.4 L-10534.5,-19712.2 L-10521.8,-19717.3 L-10511.2,-19721.3 L-10497.7,-19725.7 L-10491.4,-19727.4 L-10480.2,-19731.1 L-10472.3,-19733.9 L-10461.4,-19738.4 L-10446.6,-19744.9 L-10430.6,-19752.4 L-10422.0,-19756.6 L-10411.2,-19762.1 L-10401.1,-19767.7 L-10391.0,-19773.7 L-10380.7,-19780.4 L-10377.5,-19782.6 L-10356.8,-19798.4 L-10339.4,-19811.8 L-10322.4,-19826.2 L-10306.5,-19841.2 L-10295.0,-19854.1 L-10283.6,-19868.0 L-10269.6,-19886.0 L-10256.8,-19904.0 L-10242.1,-19927.1 L-10232.5,-19945.0 L-10226.5,-19956.4 L-10217.6,-19975.7 L-10210.1,-19993.6 L-10203.4,-20012.9 L-10198.0,-20029.8 L-10192.1,-20057.2 L-10187.8,-20081.7 L-10185.5,-20102.7 L-10183.5,-20127.5 L-10183.3,-20154.0 L-10184.9,-20178.5 L-10189.1,-20210.5 L-10193.5,-20232.3 L-10198.5,-20252.9 L-10205.9,-20276.3 L-10212.2,-20294.2 L-10219.4,-20313.7 L-10226.2,-20329.9 L-10230.8,-20340.4 L-10232.7,-20348.1 L-10233.0,-20354.0 L-10232.4,-20359.3 L-10230.3,-20363.9 L-10227.1,-20367.8 L-10222.9,-20370.0 L-10218.4,-20370.6 L-10206.3,-20367.7 L-10172.6,-20359.6 L-10161.4,-20614.3 L-10117.7,-21068.9 L-10165.2,-21080.1 L-10170.4,-21094.4 L-10170.2,-21114.9 L-10163.6,-21161.4 L-10154.6,-21171.9 L-10146.6,-21202.1 L-10096.1,-21190.4 L-10068.3,-21480.9 L-10060.6,-21561.3 L-10076.3,-21565.2 L-10066.8,-21603.6 L-10099.1,-21611.3 L-10095.0,-21634.8 L-10089.3,-21650.3 L-10082.2,-21668.4 L-10070.2,-21693.7 L-10057.3,-21690.8 L-10039.9,-21873.5 L-10035.8,-21984.3 L-10035.0,-22004.7 L-10025.6,-22075.2 L-10006.9,-22250.9 L-9882.1,-22576.3 L-9853.6,-22665.0 L-9506.9,-22798.0 L-9473.0,-22811.6 L-9467.1,-22814.8 L-9462.5,-22819.0 L-9457.4,-22824.9 L-9453.5,-22831.8 L-9450.9,-22838.6 L-9450.3,-22848.5 L-9450.8,-22860.8 L-9455.4,-23016.3 L-9457.1,-23046.4 L-9457.6,-23067.1 L-9458.3,-23107.3 L-9459.1,-23119.9 L-9460.6,-23130.5 L-9462.7,-23139.9 L-9465.8,-23149.5 L-9470.7,-23160.8 L-9477.9,-23172.9 L-9484.9,-23182.5 L-9490.3,-23191.6 L-9495.8,-23203.7 L-9500.4,-23215.3 L-9502.2,-23224.8 L-9503.6,-23235.3 L-9504.3,-23245.8 L-9504.0,-23256.0 L-9502.8,-23267.9 L-9500.0,-23279.6 L-9496.3,-23290.0 L-9492.4,-23299.5 L-9487.4,-23308.7 L-9481.3,-23319.9 L-9477.3,-23330.0 L-9473.8,-23342.9 L-9467.4,-23352.7 L-9469.6,-23441.9 L-9472.9,-23447.1 L-9473.9,-23507.7 L-9475.6,-23579.2 L-9474.4,-23589.1 L-9471.2,-23599.2 L-9463.2,-23615.0 L-9409.7,-23730.1 L-9408.6,-23732.0 L-9399.2,-23752.5 L-9390.3,-23771.9 L-9380.3,-23791.9 L-9370.5,-23812.5 L-9365.7,-23822.5 L-9313.1,-23930.4 L-9256.9,-24049.6 L-9135.3,-24296.4 L-9208.4,-24378.3 L-9268.0,-24251.3 L-9319.5,-24141.4 L-9327.3,-24125.8 L-9343.2,-24093.3 L-9375.0,-24096.0 L-9383.7,-24096.5 L-9386.8,-24093.7 L-9382.6,-24089.9 L-9398.9,-24075.4 L-9411.8,-24063.5 L-9414.2,-24012.6 L-9419.0,-24002.4 L-9434.6,-24003.0 L-9437.2,-24003.9 L-9641.6,-24088.3 L-9646.0,-24090.6 L-9650.7,-24093.6 L-9658.1,-24099.2 L-9663.8,-24104.6 L-9668.6,-24109.8 L-9673.3,-24116.2 L-9676.9,-24121.8 L-9679.7,-24127.6 L-9681.9,-24133.7 L-9683.4,-24137.9 L-9684.5,-24143.0 L-9685.3,-24149.0 L-9686.1,-24157.2 L-9686.1,-24168.9 L-9687.5,-24208.6 L-9681.9,-24208.9 L-9682.7,-24229.9 L-9683.6,-24264.5 L-9678.4,-24264.6 L-9678.8,-24288.2 L-9684.7,-24288.1 L-9687.4,-24387.5 L-9681.8,-24387.8 L-9682.7,-24411.1 L-9688.1,-24410.9 L-9690.4,-24484.4 L-9663.4,-24513.5 L-9628.9,-24514.7 L-9603.2,-24515.6 L-9569.3,-24516.7 L-9536.7,-24517.7 L-9507.5,-24518.7 L-9494.8,-24519.3 L-9495.4,-24530.6 L-9495.6,-24542.4 L-9497.5,-24580.7 L-9498.2,-24653.8 L-9499.2,-24655.1 L-9499.4,-24662.3 L-9497.3,-24662.4 L-9502.4,-24838.5 L-9506.8,-25004.2 L-9507.5,-25009.4 L-9507.9,-25019.0 L-9580.1,-25016.4 L-9628.1,-25020.5 L-9987.4,-25008.0 L-9987.5,-25011.2 L-9988.2,-25026.5 L-10158.6,-25020.5 L-10158.9,-25048.8 L-10181.4,-25053.9 L-10185.4,-25175.0 L-9522.6,-25198.0 L-9511.6,-25213.1 L-9512.0,-25256.1 L-9512.8,-25293.3 L-9513.4,-25316.6 L-9514.3,-25339.3 L-9567.0,-25364.1 L-9569.1,-25419.2 L-9515.1,-25446.0 L-9520.0,-25573.5 L-9521.4,-25579.8 L-9575.1,-25604.9 L-9576.8,-25673.1 L-9525.8,-25699.4 L-9548.5,-25976.3 L-9542.5,-26099.5 L-9539.5,-26300.4 L-9539.7,-26518.9 L-9534.9,-26549.5 L-9534.6,-26564.3 L-9539.4,-26582.1 L-9534.4,-26582.1 L-9534.4,-26598.2 L-9531.4,-27009.2 L-9531.9,-27027.5 L-9537.6,-27027.5 L-9537.4,-27103.1 L-9540.7,-27107.8 L-9545.9,-27185.8 L-9535.6,-27257.1 L-9536.9,-27343.4 L-9540.4,-27364.1 L-9535.1,-27428.0 L-9538.7,-27505.3 L-9547.7,-27588.0 L-9564.8,-27722.0 L-9556.7,-27758.9 L-9560.3,-27794.8 L-9590.9,-27820.9 L-9635.8,-27820.5 L-9704.2,-27811.5 L-9748.7,-27811.5 L-9789.1,-27826.3 L-9842.2,-27862.7 L-9842.2,-27928.0 L-9843.6,-28008.3 L-9838.4,-28075.2 L-9820.8,-28127.4 L-9526.1,-28132.9 L-9519.3,-28550.8 L-9519.3,-29152.4 L-9522.4,-29370.7 L6389.8,-35942.4 L6389.8,275.8 L-13322.7,275.8 L-13322.7,-17709.7 Z" fill="#add7e1" stroke="none"><title>Biscayne Bay</title></path></svg>