<svg xmlns="http://www.w3.org/2000/svg" width="256" height="256" viewBox="0 0 256 256"><rect width="256" height="256" fill="#f1efe7"/><path d="M-5893.4,2409.1 L-5786.0,2364.5 L-5752.4,2348.4 L-5602.1,2276.2 L-5573.9,2303.5 L-5571.4,2305.8 L-5518.8,2260.8 L-5506.2,2251.2 L-5485.3,2232.3 L-5367.2,2123.9 L-5271.9,2015.1 L-5268.3,2008.2 L-5264.8,2004.2 L-5259.2,1997.9 L-5253.6,1991.4 L-5251.3,1988.7 L-5288.9,1940.2 L-5239.2,1910.4 L-5212.2,1946.3 L-5174.1,1902.7 L-5206.4,1859.9 L-5166.4,1818.3 L-5135.7,1858.8 L-5100.3,1818.6 L-5085.3,1808.8 L-5011.7,1761.0 L-4975.3,1736.9 L-4931.5,1708.0 L-4910.8,1694.5 L-4858.4,1660.6 L-4871.9,1642.8 L-4896.1,1610.5 L-4833.6,1570.8 L-4810.8,1559.0 L-4809.1,1557.8 L-4797.1,1548.5 L-4754.3,1525.7 L-4751.3,1521.0 L-4739.3,1512.8 L-4732.8,1503.3 L-4731.0,1501.9 L-4720.6,1497.9 L-4696.9,1489.4 L-4680.8,1482.3 L-4623.7,1455.5 L-4623.0,1457.4 L-4575.2,1436.9 L-4555.7,1462.0 L-4512.1,1432.9 L-4505.9,1428.7 L-4505.3,1428.2 L-4504.7,1427.4 L-4503.8,1425.7 L-4503.2,1424.2 L-4503.0,1422.3 L-4503.0,1420.8 L-4503.2,1419.4 L-4503.4,1417.7 L-4503.5,1416.5 L-4503.4,1415.4 L-4503.1,1414.3 L-4502.3,1412.3 L-4501.8,1411.2 L-4500.6,1409.3 L-4499.2,1407.9 L-4492.9,1405.3 L-4487.6,1403.4 L-4480.8,1401.2 L-4477.7,1400.3 L-4472.1,1398.5 L-4468.1,1397.0 L-4462.7,1394.8 L-4455.3,1391.6 L-4447.3,1387.8 L-4443.0,1385.7 L-4437.6,1383.0 L-4432.6,1380.1 L-4427.5,1377.1 L-4422.4,1373.8 L-4420.8,1372.7 L-4410.4,1364.8 L-4401.7,1358.1 L-4393.2,1350.9 L-4385.2,1343.4 L-4379.5,1336.9 L-4373.8,1330.0 L-4366.8,1321.0 L-4360.4,1312.0 L-4353.1,1300.4 L-4348.3,1291.5 L-4345.3,1285.8 L-4340.8,1276.1 L-4337.1,1267.2 L-4333.7,1257.6 L-4331.0,1249.1 L-4328.1,1235.4 L-4325.9,1223.2 L-4324.7,1212.6 L-4323.8,1200.3 L-4323.6,1187.0 L-4324.5,1174.7 L-4326.6,1158.8 L-4328.7,1147.9 L-4331.3,1137.5 L-4334.9,1125.9 L-4338.1,1116.9 L-4341.7,1107.1 L-4345.1,1099.1 L-4347.4,1093.8 L-4348.4,1090.0 L-4348.5,1087.0 L-4348.2,1084.4 L-4347.1,1082.1 L-4345.5,1080.1 L-4343.4,1079.0 L-4341.2,1078.7 L-4335.1,1080.2 L-4318.3,1084.2 L-4312.7,956.9 L-4290.8,729.6 L-4314.6,723.9 L-4317.2,716.8 L-4317.1,706.6 L-4313.8,683.3 L-4309.3,678.1 L-4305.3,662.9 L-4280.1,668.8 L-4266.1,523.6 L-4262.3,483.3 L-4270.1,481.4 L-4265.4,462.2 L-4281.6,458.4 L-4279.5,446.6 L-4276.7,438.9 L-4273.1,429.8 L-4267.1,417.2 L-4260.7,418.6 L-4251.9,327.3 L-4249.9,271.9 L-4249.5,261.7 L-4244.8,226.4 L-4235.4,138.5 L-4173.0,-24.2 L-4158.8,-68.5 L-3985.5,-135.0 L-3968.5,-141.8 L-3965.6,-143.4 L-3963.2,-145.5 L-3960.7,-148.4 L-3958.8,-151.9 L-3957.5,-155.3 L-3957.1,-160.2 L-3957.4,-166.4 L-3959.7,-244.1 L-3960.6,-259.2 L-3960.8,-269.6 L-3961.1,-289.6 L-3961.5,-295.9 L-3962.3,-301.2 L-3963.4,-306.0 L-3964.9,-310.7 L-3967.3,-316.4 L-3970.9,-322.5 L-3974.5,-327.3 L-3977.2,-331.8 L-3979.9,-337.8 L-3982.2,-343.7 L-3983.1,-348.4 L-3983.8,-353.6 L-3984.1,-358.9 L-3984.0,-364.0 L-3983.4,-369.9 L-3982.0,-375.8 L-3980.1,-381.0 L-3978.2,-385.8 L-3975.7,-390.4 L-3972.7,-395.9 L-3970.6,-401.0 L-3968.9,-407.5 L-3965.7,-412.3 L-3966.8,-457.0 L-3968.4,-459.5 L-3969.0,-489.8 L-3969.8,-525.6 L-3969.2,-530.5 L-3967.6,-535.6 L-3963.6,-543.5 L-3936.9,-601.0 L-3936.3,-602.0 L-3931.6,-612.2 L-3927.1,-622.0 L-3922.2,-632.0 L-3917.2,-642.2 L-3914.8,-647.3 L-3888.6,-701.2 L-3860.5,-760.8 L-3799.6,-884.2 L-3836.2,-925.1 L-3866.0,-861.7 L-3891.8,-806.7 L-3895.7,-798.9 L-3903.6,-782.7 L-3919.5,-784.0 L-3923.9,-784.3 L-3925.4,-782.8 L-3923.3,-780.9 L-3931.5,-773.7 L-3937.9,-767.7 L-3939.1,-742.3 L-3941.5,-737.2 L-3949.3,-737.5 L-3950.6,-738.0 L-4052.8,-780.1 L-4055.0,-781.3 L-4057.4,-782.8 L-4061.0,-785.6 L-4063.9,-788.3 L-4066.3,-790.9 L-4068.6,-794.1 L-4070.4,-796.9 L-4071.8,-799.8 L-4073.0,-802.9 L-4073.7,-804.9 L-4074.2,-807.5 L-4074.7,-810.5 L-4075.1,-814.6 L-4075.1,-820.4 L-4075.8,-840.3 L-4073.0,-840.5 L-4073.4,-850.9 L-4073.8,-868.2 L-4071.2,-868.3 L-4071.4,-880.1 L-4074.3,-880.0 L-4075.7,-929.8 L-4072.9,-929.9 L-4073.4,-941.5 L-4076.1,-941.4 L-4077.2,-978.2 L-4063.7,-992.7 L-4046.5,-993.3 L-4033.6,-993.8 L-4016.7,-994.3 L-4000.4,-994.9 L-3985.7,-995.4 L-3979.4,-995.6 L-3979.7,-1001.3 L-3979.8,-1007.2 L-3980.8,-1026.3 L-3981.1,-1062.9 L-3981.6,-1063.5 L-3981.7,-1067.2 L-3980.6,-1067.2 L-3983.2,-1155.3 L-3985.4,-1238.1 L-3985.8,-1240.7 L-3986.0,-1245.5 L-4022.1,-1244.2 L-4046.1,-1246.3 L-4225.7,-1240.0 L-4225.7,-1241.6 L-4226.1,-1249.3 L-4311.3,-1246.3 L-4311.5,-1260.4 L-4322.7,-1262.9 L-4324.7,-1323.5 L-3993.3,-1335.0 L-3987.8,-1342.6 L-3988.0,-1364.1 L-3988.4,-1382.6 L-3988.7,-1394.3 L-3989.2,-1405.6 L-4015.5,-1418.1 L-4016.6,-1445.6 L-3989.5,-1459.0 L-3992.0,-1522.7 L-3992.7,-1525.9 L-4019.5,-1538.4 L-4020.4,-1572.5 L-3994.9,-1585.7 L-4006.3,-1724.1 L-4003.2,-1785.8 L-4001.8,-1886.2 L-4001.9,-1995.4 L-3999.5,-2010.8 L-3999.3,-2018.1 L-4001.7,-2027.1 L-3999.2,-2027.1 L-3999.2,-2035.1 L-3997.7,-2240.6 L-3997.9,-2249.8 L-4000.8,-2249.7 L-4000.7,-2287.5 L-4002.4,-2289.9 L-4004.9,-2328.9 L-3999.8,-2364.5 L-4000.5,-2407.7 L-4002.2,-2418.0 L-3999.6,-2450.0 L-4001.4,-2488.6 L-4005.9,-2530.0 L-4014.4,-2597.0 L-4010.4,-2615.4 L-4012.1,-2633.4 L-4027.4,-2646.5 L-4049.9,-2646.2 L-4084.1,-2641.7 L-4106.3,-2641.7 L-4126.6,-2649.2 L-4153.1,-2667.4 L-4153.1,-2700.0 L-4153.8,-2740.2 L-4151.2,-2773.6 L-4142.4,-2799.7 L-3995.0,-2802.4 L-3991.7,-3011.4 L-3991.7,-3312.2 L-3993.2,-3421.4 L3962.9,-6707.2 L3962.9,11401.9 L-5893.4,11401.9 L-5893.4,2409.1 Z" fill="#add7e1" stroke="none"><title>Biscayne Bay</title></path><path d="M-65.3,-330.8 L65.0,-409.7 L81.1,-374.7 L102.4,-330.7 L106.6,-323.6 L142.1,-263.0 L173.9,-208.8 L179.4,-200.3 L225.0,-125.5 L228.5,-119.2 L245.7,-99.6 L284.5,-39.1 L318.9,15.3 L337.2,43.7 L352.6,69.9 L370.5,100.6 L366.2,103.2 L376.1,119.4 L404.6,166.2 L423.5,196.0 L431.1,195.5 L438.5,209.1 L466.6,252.9 L467.9,255.5 L370.9,317.6 L323.4,298.2 L122.1,-27.7 L-65.3,-330.8 Z" fill="#add7e1" stroke="#78b8c7" stroke-width="0.55"><title>Miami Beach Marina</title></path><path d="M613.6,-93.6 L615.4,27.5 L615.5,38.9 L515.2,41.2 L519.5,105.2 L525.9,124.0 L527.3,156.9 L530.7,199.6 L651.0,200.1 L627.2,318.3 L613.7,312.4 L612.2,319.3 L591.2,319.2 L572.1,312.9 L554.6,300.2 L540.6,276.7 L481.8,277.8 L466.6,252.9 L438.5,209.1 L431.1,195.5 L423.5,196.0 L376.1,119.4 L366.2,103.2 L370.5,100.6 L352.6,69.9 L318.9,15.3 L245.7,-99.6 L228.5,-119.2 L225.0,-125.5 L179.4,-200.3 L173.9,-208.8 L142.1,-263.0 L106.6,-323.6 L102.4,-330.7 L81.1,-374.7 L65.0,-409.7 L63.2,-413.6 L59.8,-422.0 L60.6,-422.2 L115.6,-426.5 L173.5,-424.9 L173.4,-412.4 L215.8,-336.8 L223.8,-340.5 L227.6,-341.0 L231.5,-341.5 L234.2,-341.8 L284.9,-343.9 L293.2,-344.1 L340.1,-345.2 L386.9,-346.3 L395.5,-346.4 L394.7,-382.9 L403.5,-382.9 L444.2,-383.9 L462.1,-384.8 L461.4,-411.1 L494.4,-412.9 L495.1,-385.2 L602.3,-387.9 L601.9,-402.3 L693.6,-404.6 L702.7,-405.2 L709.3,-352.2 L710.1,-327.2 L754.2,-327.2 L749.2,-305.4 L736.1,-234.2 L726.6,-181.7 L709.1,-92.5 L613.6,-93.6 Z" fill="#ece7dc" stroke="#d7d1c5" stroke-width="0.3"></path><path d="M-725.4,984.6 L1.6,560.3 L-240.7,-133.1 L-371.2,-1706.4 L-371.2,-2938.3 L-1713.4,-4180.7 L2052.1,-5340.3 L2070.8,-3704.4 L1763.2,-2255.1 L1483.6,-702.4 L1297.2,539.6 L905.7,984.6 L-725.4,984.6 Z" fill="#f1efe7" stroke="#8ab09d" stroke-width="0.65"><title>Miami Beach</title></path><path d="M245.7,-99.6 L284.5,-39.1 L318.9,15.3" fill="none" stroke="#79bdd0" stroke-width="1.4" stroke-linecap="round" stroke-linejoin="round"></path><path d="M176.2,-51.5 L164.5,-21.4 L139.2,7.1 L137.8,15.0 L165.4,66.6 L170.3,102.7 L158.0,155.9 L83.9,260.2 L-108.0,453.9" fill="none" stroke="#ecfbff" stroke-width="4.1" stroke-dasharray="6 8" opacity="0.90" stroke-linecap="round" stroke-linejoin="round"/><path d="M176.2,-51.5 L164.5,-21.4 L139.2,7.1 L137.8,15.0 L165.4,66.6 L170.3,102.7 L158.0,155.9 L83.9,260.2 L-108.0,453.9" fill="none" stroke="#388fb3" stroke-width="2.0" stroke-dasharray="5 8" opacity="0.86" stroke-linecap="round" stroke-linejoin="round"><title>Water Taxi Miami - Yellow</title></path><path d="M31.8,391.8 L161.0,200.0 L177.0,127.0 L174.8,101.5 L169.6,65.9 L150.0,20.4 L150.5,11.1 L169.3,-23.4 L176.2,-51.5" fill="none" stroke="#ecfbff" stroke-width="4.1" stroke-dasharray="6 8" opacity="0.90" stroke-linecap="round" stroke-linejoin="round"/><path d="M31.8,391.8 L161.0,200.0 L177.0,127.0 L174.8,101.5 L169.6,65.9 L150.0,20.4 L150.5,11.1 L169.3,-23.4 L176.2,-51.5" fill="none" stroke="#388fb3" stroke-width="2.0" stroke-dasharray="5 8" opacity="0.86" stroke-linecap="round" stroke-linejoin="round"><title>Water Taxi Miami - Green</title></path><path d="M-221.9,101.7 L-46.9,350.7" fill="none" stroke="#ecfbff" stroke-width="4.1" stroke-dasharray="6 8" opacity="0.90" stroke-linecap="round" stroke-linejoin="round"/><path d="M-221.9,101.7 L-46.9,350.7" fill="none" stroke="#388fb3" stroke-width="2.0" stroke-dasharray="5 8" opacity="0.86" stroke-linecap="round" stroke-linejoin="round"><title>Fisher Island Ferry</title></path><path d="M308.1,-13.8 L303.5,-19.1 L287.6,-44.5 L274.6,-66.0" fill="none" stroke="#f4f0e4" stroke-width="2.6" stroke-linecap="round" stroke-linejoin="round"><title>Miami Beach Marina Walk</title></path><text x="128.1" y="198.0" transform="rotate(-54.6 128.1 198.0)" text-anchor="middle" dominant-baseline="central" font-family="Arial, sans-serif" font-size="7.4" textLength="80.5" lengthAdjust="spacing" font-weight="650" paint-order="stroke" stroke="#e4f8fb" stroke-width="2.0" stroke-linejoin="round" fill="#2f8298">Water Taxi Yellow</text></svg>