<svg xmlns="http://www.w3.org/2000/svg" width="256" height="256" viewBox="0 0 256 256"><rect width="256" height="256" fill="#f1efe7"/><path d="M25.1,24.1 L7.3,24.3 L6.8,-16.5 L24.6,-16.7 L25.1,24.1 Z" fill="#d6d2c9" stroke="#bab6ad" stroke-width="0.4"></path><path d="M145.4,309.9 L124.0,310.6 L122.1,251.5 L143.6,250.8 L145.4,309.9 Z" fill="#d6d2c9" stroke="#bab6ad" stroke-width="0.4"></path><path d="M140.6,219.5 L119.5,220.1 L118.0,170.7 L145.1,169.8 L145.6,183.5 L139.5,183.6 L140.6,219.5 Z" fill="#d6d2c9" stroke="#bab6ad" stroke-width="0.4"></path><path d="M7.7,210.1 L-21.3,211.1 L-22.0,191.8 L-10.4,191.4 L-11.0,173.5 L6.5,172.9 L7.7,210.1 Z" fill="#d6d2c9" stroke="#bab6ad" stroke-width="0.4"></path><path d="M2.7,60.9 L-4.7,61.1 L-5.0,51.9 L2.4,51.7 L2.7,60.9 Z" fill="#d6d2c9" stroke="#bab6ad" stroke-width="0.4"></path><path d="M193.6,39.3 L174.6,39.9 L173.8,12.6 L192.8,12.0 L193.6,39.3 Z" fill="#d6d2c9" stroke="#bab6ad" stroke-width="0.4"></path><path d="M52.7,3.4 L53.0,12.1 L28.8,12.9 L28.5,4.0 L26.4,4.1 L26.1,-6.4 L25.7,-16.9 L49.3,-17.7 L49.2,-20.8 L58.5,-21.1 L67.7,-21.4 L68.5,2.8 L52.7,3.4 Z" fill="#d6d2c9" stroke="#bab6ad" stroke-width="0.4"></path><path d="M-0.9,15.3 L-0.8,18.0 L2.0,17.9 L2.8,48.5 L-12.4,48.9 L-13.3,15.6 L-0.9,15.3 Z" fill="#d6d2c9" stroke="#bab6ad" stroke-width="0.4"></path><path d="M-1.6,66.6 L-1.3,78.8 L3.5,78.7 L4.5,113.6 L1.3,113.7 L1.5,122.4 L-14.9,122.9 L-15.6,67.0 L-1.6,66.6 Z" fill="#d6d2c9" stroke="#bab6ad" stroke-width="0.4"></path><path d="M56.1,248.0 L56.2,251.4 L66.3,251.2 L66.3,253.8 L68.6,253.8 L68.6,255.4 L74.4,255.3 L74.7,270.7 L66.8,270.8 L66.9,274.2 L58.2,274.4 L58.2,277.5 L49.7,277.6 L49.6,271.5 L39.7,271.7 L39.3,248.3 L56.1,248.0 Z" fill="#d6d2c9" stroke="#bab6ad" stroke-width="0.4"></path><path d="M156.1,-22.0 L156.2,-17.5 L162.5,-17.8 L163.1,1.5 L159.0,1.6 L159.3,9.8 L156.3,9.9 L153.5,10.0 L153.2,1.8 L150.8,1.9 L151.0,7.6 L146.7,7.7 L142.3,7.8 L141.8,-8.3 L142.9,-8.4 L142.5,-21.6 L149.3,-21.8 L156.1,-22.0 Z" fill="#d6d2c9" stroke="#bab6ad" stroke-width="0.4"></path><path d="M127.0,-21.9 L127.1,-17.1 L132.6,-17.3 L133.5,9.2 L115.0,9.9 L114.7,2.0 L112.6,2.1 L112.4,-5.2 L112.1,-12.5 L117.6,-12.7 L117.5,-16.6 L118.5,-16.6 L118.3,-21.6 L122.7,-21.8 L127.0,-21.9 Z" fill="#d6d2c9" stroke="#bab6ad" stroke-width="0.4"></path><path d="M28.9,205.2 L11.6,205.7 L11.1,189.6 L10.7,173.5 L28.0,173.0 L28.4,189.1 L28.9,205.2 Z" fill="#d6d2c9" stroke="#bab6ad" stroke-width="0.4"></path><path d="M137.5,81.6 L138.3,112.2 L127.3,112.6 L127.1,108.6 L117.6,108.9 L116.2,74.5 L116.7,66.7 L131.1,66.2 L131.0,63.8 L140.7,63.5 L141.2,81.4 L137.5,81.6 Z" fill="#d6d2c9" stroke="#bab6ad" stroke-width="0.4"></path><path d="M171.0,62.8 L172.3,117.9 L150.0,118.8 L148.4,78.4 L146.8,78.4 L146.4,69.0 L151.9,68.8 L151.8,65.6 L159.1,65.3 L159.1,63.2 L171.0,62.8 Z" fill="#d6d2c9" stroke="#bab6ad" stroke-width="0.4"></path><path d="M47.1,67.3 L29.2,67.5 L29.0,51.4 L46.9,51.2 L47.1,67.3 Z" fill="#d6d2c9" stroke="#bab6ad" stroke-width="0.4"></path><path d="M31.3,241.0 L11.6,241.1 L11.5,232.2 L11.4,223.2 L31.2,223.1 L31.2,232.0 L31.3,241.0 Z" fill="#d6d2c9" stroke="#bab6ad" stroke-width="0.4"></path><path d="M58.6,48.3 L58.6,50.6 L68.6,50.3 L69.1,65.8 L51.7,66.3 L51.2,48.5 L58.6,48.3 Z" fill="#d6d2c9" stroke="#bab6ad" stroke-width="0.4"></path><path d="M170.6,169.0 L171.0,189.7 L172.8,189.7 L172.9,194.0 L173.0,198.2 L171.4,198.3 L171.6,207.4 L150.6,207.9 L149.8,172.7 L159.8,172.5 L159.7,169.2 L165.1,169.1 L170.6,169.0 Z" fill="#d6d2c9" stroke="#bab6ad" stroke-width="0.4"></path><path d="M55.1,200.6 L32.3,201.3 L31.9,186.9 L33.4,186.9 L33.0,172.7 L68.4,171.6 L69.2,196.2 L58.3,196.5 L58.4,198.3 L55.1,198.4 L55.1,200.6 Z" fill="#d6d2c9" stroke="#bab6ad" stroke-width="0.4"></path><path d="M262.4,75.4 L263.2,104.8 L255.2,105.1 L255.3,108.3 L240.4,108.7 L239.9,89.4 L241.0,89.3 L240.9,86.3 L239.0,86.4 L238.7,76.1 L262.4,75.4 Z" fill="#d6d2c9" stroke="#bab6ad" stroke-width="0.4"></path><path d="M62.2,201.6 L62.7,218.5 L64.3,218.5 L64.3,220.1 L69.8,220.0 L70.2,235.9 L45.7,236.6 L45.3,215.0 L42.1,215.1 L41.9,208.6 L41.8,202.2 L62.2,201.6 Z" fill="#d6d2c9" stroke="#bab6ad" stroke-width="0.4"></path><path d="M262.6,168.8 L262.9,179.4 L267.4,179.2 L267.5,182.3 L275.6,182.1 L276.0,194.8 L272.9,194.9 L273.4,210.5 L264.1,210.8 L264.2,213.6 L253.6,213.9 L252.3,169.1 L262.6,168.8 Z" fill="#d6d2c9" stroke="#bab6ad" stroke-width="0.4"></path><path d="M182.6,-22.8 L182.6,-20.9 L193.4,-21.3 L193.5,-18.4 L201.0,-18.6 L201.8,7.8 L173.1,9.0 L172.2,-22.5 L182.6,-22.8 Z" fill="#d6d2c9" stroke="#bab6ad" stroke-width="0.4"></path><path d="M21.4,85.5 L21.6,90.7 L22.6,90.7 L23.6,117.2 L18.0,117.4 L18.1,121.6 L9.7,121.9 L8.4,86.0 L21.4,85.5 Z" fill="#d6d2c9" stroke="#bab6ad" stroke-width="0.4"></path><path d="M60.9,93.7 L61.0,98.5 L69.4,98.3 L69.6,105.9 L71.6,105.9 L71.7,109.2 L71.8,112.5 L69.8,112.5 L69.9,117.2 L47.2,117.8 L46.9,104.3 L45.4,104.3 L45.3,99.2 L45.2,94.1 L60.9,93.7 Z" fill="#d6d2c9" stroke="#bab6ad" stroke-width="0.4"></path><path d="M225.4,109.8 L211.0,110.3 L210.2,82.5 L233.5,81.8 L234.2,107.9 L225.3,108.1 L225.4,109.8 Z" fill="#d6d2c9" stroke="#bab6ad" stroke-width="0.4"></path><path d="M197.5,109.0 L181.8,109.2 L181.7,102.2 L188.1,102.1 L187.9,86.9 L187.1,82.0 L203.1,81.7 L203.4,104.6 L197.4,104.7 L197.5,109.0 Z" fill="#d6d2c9" stroke="#bab6ad" stroke-width="0.4"></path><path d="M251.1,-25.9 L251.2,-24.7 L257.9,-25.0 L258.8,-1.0 L251.3,-0.7 L251.6,6.1 L236.7,6.6 L235.7,-21.9 L242.5,-22.1 L242.4,-25.6 L251.1,-25.9 Z" fill="#d6d2c9" stroke="#bab6ad" stroke-width="0.4"></path><path d="M211.7,-23.9 L211.7,-22.6 L218.8,-22.8 L218.8,-20.9 L227.1,-21.1 L227.9,7.8 L216.8,8.1 L216.6,2.4 L208.3,2.6 L208.0,-5.4 L205.3,-5.3 L204.8,-23.7 L211.7,-23.9 Z" fill="#d6d2c9" stroke="#bab6ad" stroke-width="0.4"></path><path d="M-5.7,-18.1 L-5.5,-12.9 L-0.3,-13.1 L0.6,10.3 L-15.5,10.9 L-16.1,-7.7 L-20.9,-7.5 L-21.3,-17.5 L-5.7,-18.1 Z" fill="#d6d2c9" stroke="#bab6ad" stroke-width="0.4"></path><path d="M192.8,206.1 L184.4,206.4 L183.3,171.1 L211.2,170.3 L212.2,200.9 L192.6,201.5 L192.8,206.1 Z" fill="#d6d2c9" stroke="#bab6ad" stroke-width="0.4"></path><path d="M243.7,169.3 L244.6,200.9 L225.0,201.4 L224.8,194.8 L219.6,195.0 L219.0,172.6 L228.6,172.4 L228.6,174.0 L233.1,173.8 L233.0,169.5 L243.7,169.3 Z" fill="#d6d2c9" stroke="#bab6ad" stroke-width="0.4"></path><path d="M476.5,136.2 L95.6,145.5 L-286.1,154.8" fill="none" stroke="#cec8bb" stroke-width="4.8" stroke-linecap="round" stroke-linejoin="round"/><path d="M476.5,136.2 L95.6,145.5 L-286.1,154.8" fill="none" stroke="#ffffff" stroke-width="3.7" stroke-linecap="round" stroke-linejoin="round"><title>Northwest 33rd Street</title></path><path d="M102.5,338.8 L95.6,145.5 L90.4,-44.9 L83.8,-238.3" fill="none" stroke="#cec8bb" stroke-width="4.8" stroke-linecap="round" stroke-linejoin="round"/><path d="M102.5,338.8 L95.6,145.5 L90.4,-44.9 L83.8,-238.3" fill="none" stroke="#ffffff" stroke-width="3.7" stroke-linecap="round" stroke-linejoin="round"><title>Northwest 21st Avenue</title></path><text x="167.8" y="143.7" transform="rotate(-1.4 167.8 143.7)" text-anchor="middle" dominant-baseline="central" font-family="Arial, sans-serif" font-size="8.3" textLength="111.6" lengthAdjust="spacing" font-weight="650" paint-order="stroke" stroke="#fffaf0" stroke-width="2.05" stroke-linejoin="round" fill="#695f54">Northwest 33rd Street</text><text x="93.8" y="80.7" transform="rotate(88.4 93.8 80.7)" text-anchor="middle" dominant-baseline="central" font-family="Arial, sans-serif" font-size="8.3" textLength="111.6" lengthAdjust="spacing" font-weight="650" paint-order="stroke" stroke="#fffaf0" stroke-width="2.05" stroke-linejoin="round" fill="#695f54">Northwest 21st Avenue</text><text x="16.0" y="16.5" text-anchor="middle" font-family="Arial, sans-serif" font-size="6.5" textLength="18.0" lengthAdjust="spacing" font-weight="500" paint-order="stroke" stroke="#f3f5ee" stroke-width="1.55" stroke-linejoin="round" fill="#6f777a">2110</text><text x="134.7" y="191.2" text-anchor="middle" font-family="Arial, sans-serif" font-size="6.5" textLength="18.0" lengthAdjust="spacing" font-weight="500" paint-order="stroke" stroke="#f3f5ee" stroke-width="1.55" stroke-linejoin="round" fill="#6f777a">2030</text><text x="19.8" y="189.3" text-anchor="middle" font-family="Arial, sans-serif" font-size="6.5" textLength="18.0" lengthAdjust="spacing" font-weight="500" paint-order="stroke" stroke="#f3f5ee" stroke-width="1.55" stroke-linejoin="round" fill="#6f777a">2118</text><text x="129.5" y="85.5" text-anchor="middle" font-family="Arial, sans-serif" font-size="6.5" textLength="18.0" lengthAdjust="spacing" font-weight="500" paint-order="stroke" stroke="#f3f5ee" stroke-width="1.55" stroke-linejoin="round" fill="#6f777a">2041</text><text x="155.7" y="78.8" text-anchor="middle" font-family="Arial, sans-serif" font-size="6.5" textLength="18.0" lengthAdjust="spacing" font-weight="500" paint-order="stroke" stroke="#f3f5ee" stroke-width="1.55" stroke-linejoin="round" fill="#6f777a">2031</text><text x="165.7" y="186.5" text-anchor="middle" font-family="Arial, sans-serif" font-size="6.5" textLength="18.0" lengthAdjust="spacing" font-weight="500" paint-order="stroke" stroke="#f3f5ee" stroke-width="1.55" stroke-linejoin="round" fill="#6f777a">2020</text><text x="49.5" y="190.9" text-anchor="middle" font-family="Arial, sans-serif" font-size="6.5" textLength="18.0" lengthAdjust="spacing" font-weight="500" paint-order="stroke" stroke="#f3f5ee" stroke-width="1.55" stroke-linejoin="round" fill="#6f777a">2100</text><text x="241.0" y="93.0" text-anchor="middle" font-family="Arial, sans-serif" font-size="6.5" textLength="18.0" lengthAdjust="spacing" font-weight="500" paint-order="stroke" stroke="#f3f5ee" stroke-width="1.55" stroke-linejoin="round" fill="#6f777a">2001</text><text x="55.5" y="217.5" text-anchor="middle" font-family="Arial, sans-serif" font-size="6.5" textLength="18.0" lengthAdjust="spacing" font-weight="500" paint-order="stroke" stroke="#f3f5ee" stroke-width="1.55" stroke-linejoin="round" fill="#6f777a">3250</text><text x="17.9" y="103.9" text-anchor="middle" font-family="Arial, sans-serif" font-size="6.5" textLength="18.0" lengthAdjust="spacing" font-weight="500" paint-order="stroke" stroke="#f3f5ee" stroke-width="1.55" stroke-linejoin="round" fill="#6f777a">2121</text><text x="60.4" y="105.2" text-anchor="middle" font-family="Arial, sans-serif" font-size="6.5" textLength="18.0" lengthAdjust="spacing" font-weight="500" paint-order="stroke" stroke="#f3f5ee" stroke-width="1.55" stroke-linejoin="round" fill="#6f777a">3310</text><text x="192.0" y="98.0" text-anchor="middle" font-family="Arial, sans-serif" font-size="6.5" textLength="18.0" lengthAdjust="spacing" font-weight="500" paint-order="stroke" stroke="#f3f5ee" stroke-width="1.55" stroke-linejoin="round" fill="#6f777a">2029</text><text x="196.1" y="192.7" text-anchor="middle" font-family="Arial, sans-serif" font-size="6.5" textLength="18.0" lengthAdjust="spacing" font-weight="500" paint-order="stroke" stroke="#f3f5ee" stroke-width="1.55" stroke-linejoin="round" fill="#6f777a">2010</text><text x="230.0" y="182.4" text-anchor="middle" font-family="Arial, sans-serif" font-size="6.5" textLength="18.0" lengthAdjust="spacing" font-weight="500" paint-order="stroke" stroke="#f3f5ee" stroke-width="1.55" stroke-linejoin="round" fill="#6f777a">2000</text><text x="53.1" y="16.5" text-anchor="middle" font-family="Arial, sans-serif" font-size="6.5" textLength="18.0" lengthAdjust="spacing" font-weight="500" paint-order="stroke" stroke="#f3f5ee" stroke-width="1.55" stroke-linejoin="round" fill="#6f777a">2100</text></svg>