<svg xmlns="http://www.w3.org/2000/svg" width="256" height="256" viewBox="0 0 256 256"><rect width="256" height="256" fill="#f1efe7"/><path d="M223.2,184.1 L223.3,188.4 L268.5,186.8 L270.0,228.0 L216.1,230.0 L215.3,207.4 L201.5,207.9 L200.6,184.9 L223.2,184.1 Z" fill="#d6d2c9" stroke="#bab6ad" stroke-width="0.4"></path><path d="M183.4,208.4 L183.6,214.2 L197.3,213.8 L197.8,233.5 L167.2,234.3 L163.9,232.6 L161.8,230.2 L161.5,214.9 L164.6,214.8 L164.5,208.9 L176.2,208.6 L183.4,208.4 Z" fill="#d6d2c9" stroke="#bab6ad" stroke-width="0.4"></path><path d="M66.0,154.9 L69.3,231.2 L-1.4,235.3 L-5.5,165.1 L25.3,163.3 L28.5,165.8 L28.6,169.3 L32.8,169.2 L33.2,175.7 L53.5,174.9 L52.4,155.7 L66.0,154.9 Z" fill="#d6d2c9" stroke="#bab6ad" stroke-width="0.4"></path><path d="M115.3,143.9 L116.0,158.1 L125.9,157.5 L127.5,187.5 L130.7,187.3 L131.5,201.3 L133.4,201.2 L134.9,229.8 L83.0,232.6 L78.3,145.9 L115.3,143.9 Z" fill="#d6d2c9" stroke="#bab6ad" stroke-width="0.4"></path><path d="M189.1,208.4 L183.4,208.4 L176.2,208.6 L176.1,204.2 L188.9,203.7 L189.1,208.4 Z" fill="#d6d2c9" stroke="#bab6ad" stroke-width="0.4"></path><path d="M181.6,248.5 L182.4,263.6" fill="none" stroke="#cec8bb" stroke-width="3.2" stroke-linecap="round" stroke-linejoin="round"/><path d="M181.6,248.5 L182.4,263.6" fill="none" stroke="#ffffff" stroke-width="2.2" stroke-linecap="round" stroke-linejoin="round"></path><path d="M100.3,251.9 L100.7,260.9 L105.3,273.4 L115.9,286.4 L129.5,301.3" fill="none" stroke="#cec8bb" stroke-width="3.2" stroke-linecap="round" stroke-linejoin="round"/><path d="M100.3,251.9 L100.7,260.9 L105.3,273.4 L115.9,286.4 L129.5,301.3" fill="none" stroke="#ffffff" stroke-width="2.2" stroke-linecap="round" stroke-linejoin="round"></path><path d="M154.3,350.3 L149.6,249.8 L147.6,171.3 L144.5,106.6 L144.1,98.4 L137.1,-14.6 L136.2,-28.3 L130.1,-114.4" fill="none" stroke="#cec8bb" stroke-width="4.3" stroke-linecap="round" stroke-linejoin="round"/><path d="M154.3,350.3 L149.6,249.8 L147.6,171.3 L144.5,106.6 L144.1,98.4 L137.1,-14.6 L136.2,-28.3 L130.1,-114.4" fill="none" stroke="#ffffff" stroke-width="3.2" stroke-linecap="round" stroke-linejoin="round"><title>Northwest 35th Avenue</title></path><path d="M309.9,243.7 L282.7,244.8 L263.1,245.6 L181.6,248.5 L149.6,249.8 L100.3,251.9 L77.2,252.9 L-21.7,256.2 L-40.6,256.8 L-76.4,258.0" fill="none" stroke="#cec8bb" stroke-width="4.3" stroke-linecap="round" stroke-linejoin="round"/><path d="M309.9,243.7 L282.7,244.8 L263.1,245.6 L181.6,248.5 L149.6,249.8 L100.3,251.9 L77.2,252.9 L-21.7,256.2 L-40.6,256.8 L-76.4,258.0" fill="none" stroke="#ffffff" stroke-width="3.2" stroke-linecap="round" stroke-linejoin="round"><title>Northwest 67th Street</title></path><text x="208.3" y="223.7" text-anchor="middle" font-family="Arial, sans-serif" font-size="6.5" textLength="18.0" lengthAdjust="spacing" font-weight="500" paint-order="stroke" stroke="#f3f5ee" stroke-width="1.55" stroke-linejoin="round" fill="#6f777a">3361</text><text x="174.7" y="219.5" text-anchor="middle" font-family="Arial, sans-serif" font-size="6.5" textLength="18.0" lengthAdjust="spacing" font-weight="500" paint-order="stroke" stroke="#f3f5ee" stroke-width="1.55" stroke-linejoin="round" fill="#6f777a">3397</text><text x="34.8" y="178.2" text-anchor="middle" font-family="Arial, sans-serif" font-size="6.5" textLength="18.0" lengthAdjust="spacing" font-weight="500" paint-order="stroke" stroke="#f3f5ee" stroke-width="1.55" stroke-linejoin="round" fill="#6f777a">6721</text><text x="241.0" y="212.0" text-anchor="middle" font-family="Arial, sans-serif" font-size="6.5" textLength="18.0" lengthAdjust="spacing" font-weight="500" paint-order="stroke" stroke="#f3f5ee" stroke-width="1.55" stroke-linejoin="round" fill="#6f777a">3339</text></svg>