<svg xmlns="http://www.w3.org/2000/svg" width="256" height="256" viewBox="0 0 256 256"><rect width="256" height="256" fill="#f1efe7"/><path d="M-2309.4,2665.1 L-2202.0,2620.5 L-2168.4,2604.4 L-2018.1,2532.2 L-1989.9,2559.5 L-1987.4,2561.8 L-1934.8,2516.8 L-1922.2,2507.2 L-1901.3,2488.3 L-1783.2,2379.9 L-1687.9,2271.1 L-1684.3,2264.2 L-1680.8,2260.2 L-1675.2,2253.9 L-1669.6,2247.4 L-1667.3,2244.7 L-1704.9,2196.2 L-1655.2,2166.4 L-1628.2,2202.3 L-1590.1,2158.7 L-1622.4,2115.9 L-1582.4,2074.3 L-1551.7,2114.8 L-1516.3,2074.6 L-1501.3,2064.8 L-1427.7,2017.0 L-1391.3,1992.9 L-1347.5,1964.0 L-1326.8,1950.5 L-1274.4,1916.6 L-1287.9,1898.8 L-1312.1,1866.5 L-1249.6,1826.8 L-1226.8,1815.0 L-1225.1,1813.8 L-1213.1,1804.5 L-1170.3,1781.7 L-1167.3,1777.0 L-1155.3,1768.8 L-1148.8,1759.3 L-1147.0,1757.9 L-1136.6,1753.9 L-1112.9,1745.4 L-1096.8,1738.3 L-1039.7,1711.5 L-1039.0,1713.4 L-991.2,1692.9 L-971.7,1718.0 L-928.1,1688.9 L-921.9,1684.7 L-921.3,1684.2 L-920.7,1683.4 L-919.8,1681.7 L-919.2,1680.2 L-919.0,1678.3 L-919.0,1676.8 L-919.2,1675.4 L-919.4,1673.7 L-919.5,1672.5 L-919.4,1671.4 L-919.1,1670.3 L-918.3,1668.3 L-917.8,1667.2 L-916.6,1665.3 L-915.2,1663.9 L-908.9,1661.3 L-903.6,1659.4 L-896.8,1657.2 L-893.7,1656.3 L-888.1,1654.5 L-884.1,1653.0 L-878.7,1650.8 L-871.3,1647.6 L-863.3,1643.8 L-859.0,1641.7 L-853.6,1639.0 L-848.6,1636.1 L-843.5,1633.1 L-838.4,1629.8 L-836.8,1628.7 L-826.4,1620.8 L-817.7,1614.1 L-809.2,1606.9 L-801.2,1599.4 L-795.5,1592.9 L-789.8,1586.0 L-782.8,1577.0 L-776.4,1568.0 L-769.1,1556.4 L-764.3,1547.5 L-761.3,1541.8 L-756.8,1532.1 L-753.1,1523.2 L-749.7,1513.6 L-747.0,1505.1 L-744.1,1491.4 L-741.9,1479.2 L-740.7,1468.6 L-739.8,1456.3 L-739.6,1443.0 L-740.5,1430.7 L-742.6,1414.8 L-744.7,1403.9 L-747.3,1393.5 L-750.9,1381.9 L-754.1,1372.9 L-757.7,1363.1 L-761.1,1355.1 L-763.4,1349.8 L-764.4,1346.0 L-764.5,1343.0 L-764.2,1340.4 L-763.1,1338.1 L-761.5,1336.1 L-759.4,1335.0 L-757.2,1334.7 L-751.1,1336.2 L-734.3,1340.2 L-728.7,1212.9 L-706.8,985.6 L-730.6,979.9 L-733.2,972.8 L-733.1,962.6 L-729.8,939.3 L-725.3,934.1 L-721.3,918.9 L-696.1,924.8 L-682.1,779.6 L-678.3,739.3 L-686.1,737.4 L-681.4,718.2 L-697.6,714.4 L-695.5,702.6 L-692.7,694.9 L-689.1,685.8 L-683.1,673.2 L-676.7,674.6 L-667.9,583.3 L-665.9,527.9 L-665.5,517.7 L-660.8,482.4 L-651.4,394.5 L-589.0,231.8 L-574.8,187.5 L-401.5,121.0 L-384.5,114.2 L-381.6,112.6 L-379.2,110.5 L-376.7,107.6 L-374.8,104.1 L-373.5,100.7 L-373.1,95.8 L-373.4,89.6 L-375.7,11.9 L-376.6,-3.2 L-376.8,-13.6 L-377.1,-33.6 L-377.5,-39.9 L-378.3,-45.2 L-379.4,-50.0 L-380.9,-54.7 L-383.3,-60.4 L-386.9,-66.5 L-390.5,-71.3 L-393.2,-75.8 L-395.9,-81.8 L-398.2,-87.7 L-399.1,-92.4 L-399.8,-97.6 L-400.1,-102.9 L-400.0,-108.0 L-399.4,-113.9 L-398.0,-119.8 L-396.1,-125.0 L-394.2,-129.8 L-391.7,-134.4 L-388.7,-139.9 L-386.6,-145.0 L-384.9,-151.5 L-381.7,-156.3 L-382.8,-201.0 L-384.4,-203.5 L-385.0,-233.8 L-385.8,-269.6 L-385.2,-274.5 L-383.6,-279.6 L-379.6,-287.5 L-352.9,-345.0 L-352.3,-346.0 L-347.6,-356.2 L-343.1,-366.0 L-338.2,-376.0 L-333.2,-386.2 L-330.8,-391.3 L-304.6,-445.2 L-276.5,-504.8 L-215.6,-628.2 L-252.2,-669.1 L-282.0,-605.7 L-307.8,-550.7 L-311.7,-542.9 L-319.6,-526.7 L-335.5,-528.0 L-339.9,-528.3 L-341.4,-526.8 L-339.3,-524.9 L-347.5,-517.7 L-353.9,-511.7 L-355.1,-486.3 L-357.5,-481.2 L-365.3,-481.5 L-366.6,-482.0 L-468.8,-524.1 L-471.0,-525.3 L-473.4,-526.8 L-477.0,-529.6 L-479.9,-532.3 L-482.3,-534.9 L-484.6,-538.1 L-486.4,-540.9 L-487.8,-543.8 L-489.0,-546.9 L-489.7,-548.9 L-490.2,-551.5 L-490.7,-554.5 L-491.1,-558.6 L-491.1,-564.4 L-491.8,-584.3 L-489.0,-584.5 L-489.4,-594.9 L-489.8,-612.2 L-487.2,-612.3 L-487.4,-624.1 L-490.3,-624.0 L-491.7,-673.8 L-488.9,-673.9 L-489.4,-685.5 L-492.1,-685.4 L-493.2,-722.2 L-479.7,-736.7 L-462.5,-737.3 L-449.6,-737.8 L-432.7,-738.3 L-416.4,-738.9 L-401.7,-739.4 L-395.4,-739.6 L-395.7,-745.3 L-395.8,-751.2 L-396.8,-770.3 L-397.1,-806.9 L-397.6,-807.5 L-397.7,-811.2 L-396.6,-811.2 L-399.2,-899.3 L-401.4,-982.1 L-401.8,-984.7 L-402.0,-989.5 L-438.1,-988.2 L-462.1,-990.3 L-641.7,-984.0 L-641.7,-985.6 L-642.1,-993.3 L-727.3,-990.3 L-727.5,-1004.4 L-738.7,-1006.9 L-740.7,-1067.5 L-409.3,-1079.0 L-403.8,-1086.6 L-404.0,-1108.1 L-404.4,-1126.6 L-404.7,-1138.3 L-405.2,-1149.6 L-431.5,-1162.1 L-432.6,-1189.6 L-405.5,-1203.0 L-408.0,-1266.7 L-408.7,-1269.9 L-435.5,-1282.4 L-436.4,-1316.5 L-410.9,-1329.7 L-422.3,-1468.1 L-419.2,-1529.8 L-417.8,-1630.2 L-417.9,-1739.4 L-415.5,-1754.8 L-415.3,-1762.1 L-417.7,-1771.1 L-415.2,-1771.1 L-415.2,-1779.1 L-413.7,-1984.6 L-413.9,-1993.8 L-416.8,-1993.7 L-416.7,-2031.5 L-418.4,-2033.9 L-420.9,-2072.9 L-415.8,-2108.5 L-416.5,-2151.7 L-418.2,-2162.0 L-415.6,-2194.0 L-417.4,-2232.6 L-421.9,-2274.0 L-430.4,-2341.0 L-426.4,-2359.4 L-428.1,-2377.4 L-443.4,-2390.5 L-465.9,-2390.2 L-500.1,-2385.7 L-522.3,-2385.7 L-542.6,-2393.2 L-569.1,-2411.4 L-569.1,-2444.0 L-569.8,-2484.2 L-567.2,-2517.6 L-558.4,-2543.7 L-411.0,-2546.4 L-407.7,-2755.4 L-407.7,-3056.2 L-409.2,-3165.4 L7546.9,-6451.2 L7546.9,11657.9 L-2309.4,11657.9 L-2309.4,2665.1 Z" fill="#add7e1" stroke="none"><title>Biscayne Bay</title></path><path d="M1.0,-690.7 L-22.7,-702.5 L-24.6,-701.6 L-52.0,-637.1 L-54.8,-628.4 L-59.9,-618.6 L-63.4,-610.0 L-80.7,-570.4 L-82.1,-567.0 L-82.6,-564.5 L-82.9,-562.0 L-82.7,-559.6 L-80.9,-555.3 L-78.5,-551.6 L-77.1,-549.3 L-75.0,-546.5 L-69.8,-539.8 L-53.0,-517.9 L-33.6,-492.1 L-26.9,-484.8 L-16.2,-471.8 L-6.1,-458.5 L4.3,-445.7 L10.0,-437.0 L15.6,-428.9 L16.6,-427.7 L18.0,-427.1 L19.4,-427.4 L20.0,-427.7 L19.0,-418.4 L72.8,-350.8 L77.7,-354.2 L79.3,-354.1 L81.9,-353.9 L85.1,-353.1 L88.6,-351.5 L91.5,-350.2 L93.2,-349.4 L95.5,-347.9 L97.3,-346.1 L101.2,-341.9 L107.1,-335.5 L112.6,-329.1 L117.0,-323.1 L124.3,-310.1 L129.0,-301.0 L134.4,-288.9 L140.1,-277.6 L149.8,-258.3 L152.3,-255.1 L155.9,-251.4 L159.6,-247.9 L185.5,-228.0 L188.4,-225.3 L190.6,-223.2 L192.6,-220.0 L198.7,-202.8 L199.7,-199.3 L380.6,-112.9 L390.1,-108.3 L485.3,-62.8 L581.0,-17.1 L606.4,-27.0 L614.1,-1.1 L903.1,136.7 L894.0,156.4 L924.6,171.3 L934.3,151.4 L1217.0,286.2 L1424.1,386.6 L1416.9,401.9 L1447.7,416.7 L1454.8,401.0 L1586.3,463.6 L1567.4,501.4 L1861.5,644.8 L2297.2,657.9 L2602.6,667.0 L2675.4,669.5 L2956.6,677.3 L2979.6,678.0 L2979.7,676.7 L3146.1,681.7 L3182.2,682.8 L3217.2,683.9 L3217.1,685.4 L3258.8,686.1 L3268.8,686.9 L3268.9,684.1 L3309.1,645.9 L3312.8,646.0 L3320.3,654.4 L3323.3,652.2 L3325.3,652.9 L3327.9,652.8 L3331.8,651.8 L3336.2,650.5 L3339.4,648.6 L3342.4,645.8 L3349.5,630.0 L3351.5,624.7 L3352.1,619.9 L3352.3,615.3 L3350.4,605.8 L3349.4,602.8 L3347.8,599.7 L3345.2,595.5 L3341.6,590.7 L3338.6,587.6 L3332.5,582.4 L3325.5,577.1 L3314.1,569.0 L3301.9,562.6 L3295.5,559.3 L3286.9,556.0 L3274.5,550.8 L3218.3,520.8 L3163.7,487.2 L3143.0,472.0 L3120.0,457.4 L3050.6,418.9 L2976.3,384.2 L2972.7,391.8 L2958.5,385.0 L2944.8,414.2 L2790.7,343.6 L2747.4,323.1 L2695.7,299.7 L2548.2,231.8 L2414.9,170.5 L2361.5,145.8 L2335.0,134.2 L2307.7,122.0 L2196.3,68.5 L2013.5,-18.7 L1935.6,-56.2 L1913.6,-10.7 L1670.9,-126.7 L1548.6,-185.2 L1429.7,-242.2 L1235.2,-334.9 L1040.2,-428.2 L788.1,-548.5 L580.6,-647.3 L541.8,-667.4 L427.0,-720.9 L309.8,-777.1 L74.3,-889.7 L62.8,-858.1 L3.4,-700.7 L4.6,-698.7 L1.0,-690.7 Z" fill="#f1efe7" stroke="#8ab09d" stroke-width="0.65"></path><path d="M-1.0,-1.0 L257.0,-1.0 L257.0,257.0 L-1.0,257.0 L-1.0,-1.0 Z" fill="#add7e1" stroke="none" fill-rule="evenodd"><title>Biscayne Bay</title></path><path d="M-261.4,-334.5 L1017.0,301.6" fill="none" stroke="#6fb5c7" stroke-width="1.4" stroke-dasharray="5 7" opacity="0.34" stroke-linecap="round" stroke-linejoin="round"><title>Dodge Island Cut</title></path><path d="M221.6,-963.2 L3516.1,520.7" fill="none" stroke="#6fb5c7" stroke-width="1.4" stroke-dasharray="5 7" opacity="0.34" stroke-linecap="round" stroke-linejoin="round"><title>Main Channel</title></path><path d="M718.8,202.5 L174.2,-43.9 L112.5,-171.4" fill="none" stroke="#ecfbff" stroke-width="4.1" stroke-dasharray="6 8" opacity="0.90" stroke-linecap="round" stroke-linejoin="round"/><path d="M718.8,202.5 L174.2,-43.9 L112.5,-171.4" fill="none" stroke="#388fb3" stroke-width="2.0" stroke-dasharray="5 8" opacity="0.86" stroke-linecap="round" stroke-linejoin="round"><title>Water Taxi Miami - Yellow</title></path></svg>