<svg xmlns="http://www.w3.org/2000/svg" width="256" height="256" viewBox="0 0 256 256"><rect width="256" height="256" fill="#f1efe7"/><path d="M-7941.4,-3990.9 L-7834.0,-4035.5 L-7800.4,-4051.6 L-7650.1,-4123.8 L-7621.9,-4096.5 L-7619.4,-4094.2 L-7566.8,-4139.2 L-7554.2,-4148.8 L-7533.3,-4167.7 L-7415.2,-4276.1 L-7319.9,-4384.9 L-7316.3,-4391.8 L-7312.8,-4395.8 L-7307.2,-4402.1 L-7301.6,-4408.6 L-7299.3,-4411.3 L-7336.9,-4459.8 L-7287.2,-4489.6 L-7260.2,-4453.7 L-7222.1,-4497.3 L-7254.4,-4540.1 L-7214.4,-4581.7 L-7183.7,-4541.2 L-7148.3,-4581.4 L-7133.3,-4591.2 L-7059.7,-4639.0 L-7023.3,-4663.1 L-6979.5,-4692.0 L-6958.8,-4705.5 L-6906.4,-4739.4 L-6919.9,-4757.2 L-6944.1,-4789.5 L-6881.6,-4829.2 L-6858.8,-4841.0 L-6857.1,-4842.2 L-6845.1,-4851.5 L-6802.3,-4874.3 L-6799.3,-4879.0 L-6787.3,-4887.2 L-6780.8,-4896.7 L-6779.0,-4898.1 L-6768.6,-4902.1 L-6744.9,-4910.6 L-6728.8,-4917.7 L-6671.7,-4944.5 L-6671.0,-4942.6 L-6623.2,-4963.1 L-6603.7,-4938.0 L-6560.1,-4967.1 L-6553.9,-4971.3 L-6553.3,-4971.8 L-6552.7,-4972.6 L-6551.8,-4974.3 L-6551.2,-4975.8 L-6551.0,-4977.7 L-6551.0,-4979.2 L-6551.2,-4980.6 L-6551.4,-4982.3 L-6551.5,-4983.5 L-6551.4,-4984.6 L-6551.1,-4985.7 L-6550.3,-4987.7 L-6549.8,-4988.8 L-6548.6,-4990.7 L-6547.2,-4992.1 L-6540.9,-4994.7 L-6535.6,-4996.6 L-6528.8,-4998.8 L-6525.7,-4999.7 L-6520.1,-5001.5 L-6516.1,-5003.0 L-6510.7,-5005.2 L-6503.3,-5008.4 L-6495.3,-5012.2 L-6491.0,-5014.3 L-6485.6,-5017.0 L-6480.6,-5019.9 L-6475.5,-5022.9 L-6470.4,-5026.2 L-6468.8,-5027.3 L-6458.4,-5035.2 L-6449.7,-5041.9 L-6441.2,-5049.1 L-6433.2,-5056.6 L-6427.5,-5063.1 L-6421.8,-5070.0 L-6414.8,-5079.0 L-6408.4,-5088.0 L-6401.1,-5099.6 L-6396.3,-5108.5 L-6393.3,-5114.2 L-6388.8,-5123.9 L-6385.1,-5132.8 L-6381.7,-5142.4 L-6379.0,-5150.9 L-6376.1,-5164.6 L-6373.9,-5176.8 L-6372.7,-5187.4 L-6371.8,-5199.7 L-6371.6,-5213.0 L-6372.5,-5225.3 L-6374.6,-5241.2 L-6376.7,-5252.1 L-6379.3,-5262.5 L-6382.9,-5274.1 L-6386.1,-5283.1 L-6389.7,-5292.9 L-6393.1,-5300.9 L-6395.4,-5306.2 L-6396.4,-5310.0 L-6396.5,-5313.0 L-6396.2,-5315.6 L-6395.1,-5317.9 L-6393.5,-5319.9 L-6391.4,-5321.0 L-6389.2,-5321.3 L-6383.1,-5319.8 L-6366.3,-5315.8 L-6360.7,-5443.1 L-6338.8,-5670.4 L-6362.6,-5676.1 L-6365.2,-5683.2 L-6365.1,-5693.4 L-6361.8,-5716.7 L-6357.3,-5721.9 L-6353.3,-5737.1 L-6328.1,-5731.2 L-6314.1,-5876.4 L-6310.3,-5916.7 L-6318.1,-5918.6 L-6313.4,-5937.8 L-6329.6,-5941.6 L-6327.5,-5953.4 L-6324.7,-5961.1 L-6321.1,-5970.2 L-6315.1,-5982.8 L-6308.7,-5981.4 L-6299.9,-6072.7 L-6297.9,-6128.1 L-6297.5,-6138.3 L-6292.8,-6173.6 L-6283.4,-6261.5 L-6221.0,-6424.2 L-6206.8,-6468.5 L-6033.5,-6535.0 L-6016.5,-6541.8 L-6013.6,-6543.4 L-6011.2,-6545.5 L-6008.7,-6548.4 L-6006.8,-6551.9 L-6005.5,-6555.3 L-6005.1,-6560.2 L-6005.4,-6566.4 L-6007.7,-6644.1 L-6008.6,-6659.2 L-6008.8,-6669.6 L-6009.1,-6689.6 L-6009.5,-6695.9 L-6010.3,-6701.2 L-6011.4,-6706.0 L-6012.9,-6710.7 L-6015.3,-6716.4 L-6018.9,-6722.5 L-6022.5,-6727.3 L-6025.2,-6731.8 L-6027.9,-6737.8 L-6030.2,-6743.7 L-6031.1,-6748.4 L-6031.8,-6753.6 L-6032.1,-6758.9 L-6032.0,-6764.0 L-6031.4,-6769.9 L-6030.0,-6775.8 L-6028.1,-6781.0 L-6026.2,-6785.8 L-6023.7,-6790.4 L-6020.7,-6795.9 L-6018.6,-6801.0 L-6016.9,-6807.5 L-6013.7,-6812.3 L-6014.8,-6857.0 L-6016.4,-6859.5 L-6017.0,-6889.8 L-6017.8,-6925.6 L-6017.2,-6930.5 L-6015.6,-6935.6 L-6011.6,-6943.5 L-5984.9,-7001.0 L-5984.3,-7002.0 L-5979.6,-7012.2 L-5975.1,-7022.0 L-5970.2,-7032.0 L-5965.2,-7042.2 L-5962.8,-7047.3 L-5936.6,-7101.2 L-5908.5,-7160.8 L-5847.6,-7284.2 L-5884.2,-7325.1 L-5914.0,-7261.7 L-5939.8,-7206.7 L-5943.7,-7198.9 L-5951.6,-7182.7 L-5967.5,-7184.0 L-5971.9,-7184.3 L-5973.4,-7182.8 L-5971.3,-7180.9 L-5979.5,-7173.7 L-5985.9,-7167.7 L-5987.1,-7142.3 L-5989.5,-7137.2 L-5997.3,-7137.5 L-5998.6,-7138.0 L-6100.8,-7180.1 L-6103.0,-7181.3 L-6105.4,-7182.8 L-6109.0,-7185.6 L-6111.9,-7188.3 L-6114.3,-7190.9 L-6116.6,-7194.1 L-6118.4,-7196.9 L-6119.8,-7199.8 L-6121.0,-7202.9 L-6121.7,-7204.9 L-6122.2,-7207.5 L-6122.7,-7210.5 L-6123.1,-7214.6 L-6123.1,-7220.4 L-6123.8,-7240.3 L-6121.0,-7240.5 L-6121.4,-7250.9 L-6121.8,-7268.2 L-6119.2,-7268.3 L-6119.4,-7280.1 L-6122.3,-7280.0 L-6123.7,-7329.8 L-6120.9,-7329.9 L-6121.4,-7341.5 L-6124.1,-7341.4 L-6125.2,-7378.2 L-6111.7,-7392.7 L-6094.5,-7393.3 L-6081.6,-7393.8 L-6064.7,-7394.3 L-6048.4,-7394.9 L-6033.7,-7395.4 L-6027.4,-7395.6 L-6027.7,-7401.3 L-6027.8,-7407.2 L-6028.8,-7426.3 L-6029.1,-7462.9 L-6029.6,-7463.5 L-6029.7,-7467.2 L-6028.6,-7467.2 L-6031.2,-7555.3 L-6033.4,-7638.1 L-6033.8,-7640.7 L-6034.0,-7645.5 L-6070.1,-7644.2 L-6094.1,-7646.3 L-6273.7,-7640.0 L-6273.7,-7641.6 L-6274.1,-7649.3 L-6359.3,-7646.3 L-6359.5,-7660.4 L-6370.7,-7662.9 L-6372.7,-7723.5 L-6041.3,-7735.0 L-6035.8,-7742.6 L-6036.0,-7764.1 L-6036.4,-7782.6 L-6036.7,-7794.3 L-6037.2,-7805.6 L-6063.5,-7818.1 L-6064.6,-7845.6 L-6037.5,-7859.0 L-6040.0,-7922.7 L-6040.7,-7925.9 L-6067.5,-7938.4 L-6068.4,-7972.5 L-6042.9,-7985.7 L-6054.3,-8124.1 L-6051.2,-8185.8 L-6049.8,-8286.2 L-6049.9,-8395.4 L-6047.5,-8410.8 L-6047.3,-8418.1 L-6049.7,-8427.1 L-6047.2,-8427.1 L-6047.2,-8435.1 L-6045.7,-8640.6 L-6045.9,-8649.8 L-6048.8,-8649.7 L-6048.7,-8687.5 L-6050.4,-8689.9 L-6052.9,-8728.9 L-6047.8,-8764.5 L-6048.5,-8807.7 L-6050.2,-8818.0 L-6047.6,-8850.0 L-6049.4,-8888.6 L-6053.9,-8930.0 L-6062.4,-8997.0 L-6058.4,-9015.4 L-6060.1,-9033.4 L-6075.4,-9046.5 L-6097.9,-9046.2 L-6132.1,-9041.7 L-6154.3,-9041.7 L-6174.6,-9049.2 L-6201.1,-9067.4 L-6201.1,-9100.0 L-6201.8,-9140.2 L-6199.2,-9173.6 L-6190.4,-9199.7 L-6043.0,-9202.4 L-6039.7,-9411.4 L-6039.7,-9712.2 L-6041.2,-9821.4 L1914.9,-13107.2 L1914.9,5001.9 L-7941.4,5001.9 L-7941.4,-3990.9 Z" fill="#add7e1" stroke="none"><title>Biscayne Bay</title></path></svg>