<svg xmlns="http://www.w3.org/2000/svg" width="256" height="256" viewBox="0 0 256 256"><rect width="256" height="256" fill="#f1efe7"/><path d="M290.2,187.8 L250.1,189.0 L249.5,168.7 L289.6,167.5 L290.2,187.8 Z" fill="#d6d2c9" stroke="#bab6ad" stroke-width="0.4"></path><path d="M266.7,8.3 L243.9,8.9 L243.3,-13.9 L266.1,-14.6 L266.7,8.3 Z" fill="#d6d2c9" stroke="#bab6ad" stroke-width="0.4"></path><path d="M338.6,50.9 L339.5,71.7 L330.6,71.6 L330.8,75.9 L345.3,76.1 L345.9,91.7 L307.3,93.4 L306.9,84.7 L291.2,85.4 L291.3,77.4 L294.4,77.3 L294.2,73.2 L266.6,74.4 L266.5,78.4 L280.1,78.5 L280.9,94.9 L244.1,94.5 L244.2,79.7 L258.4,79.1 L258.2,74.7 L250.0,74.6 L250.2,54.8 L338.6,50.9 Z" fill="#d6d2c9" stroke="#bab6ad" stroke-width="0.4"></path><path d="M54.2,126.8 L48.1,137.2 L51.8,139.4 L59.2,126.7 L68.2,132.0 L66.2,135.5 L78.6,142.9 L74.3,150.3 L64.4,144.4 L62.1,148.3 L73.8,155.2 L69.1,163.3 L65.1,160.9 L57.9,173.2 L50.7,169.0 L56.5,159.1 L52.3,156.6 L45.0,169.0 L36.2,163.7 L37.9,160.8 L27.0,154.3 L31.5,146.6 L40.3,151.8 L42.2,148.6 L32.2,142.7 L37.7,133.3 L39.7,134.5 L46.8,122.4 L54.2,126.8 Z" fill="#d6d2c9" stroke="#bab6ad" stroke-width="0.4"></path><path d="M276.8,164.8 L252.3,165.5 L251.7,145.3 L276.2,144.5 L276.8,164.8 Z" fill="#d6d2c9" stroke="#bab6ad" stroke-width="0.4"></path><path d="M90.7,29.5 L98.7,34.1 L96.2,38.4 L101.2,41.3 L98.6,45.8 L101.3,47.3 L104.3,41.9 L108.2,44.2 L111.5,38.4 L120.8,43.8 L122.4,41.0 L130.5,45.7 L127.4,51.2 L132.2,53.9 L128.4,60.6 L131.8,62.6 L137.3,53.0 L146.3,58.1 L148.2,54.9 L157.9,60.4 L152.2,70.5 L159.3,74.6 L153.8,84.2 L145.9,79.7 L141.4,87.5 L134.8,83.8 L132.9,87.2 L123.5,81.7 L125.0,79.1 L116.6,74.2 L119.2,69.5 L115.5,67.3 L118.3,62.4 L114.1,60.0 L110.6,66.2 L106.3,63.7 L103.0,69.5 L94.1,64.4 L92.2,67.6 L84.2,63.0 L87.6,56.9 L81.9,53.7 L85.5,47.4 L82.5,45.6 L76.3,56.5 L67.1,51.2 L65.0,54.8 L54.9,49.0 L61.1,38.2 L54.6,34.5 L59.9,25.1 L69.2,30.5 L73.8,22.5 L78.5,25.2 L75.1,31.1 L77.1,32.3 L82.9,22.1 L92.0,27.2 L90.7,29.5 Z" fill="#d6d2c9" stroke="#bab6ad" stroke-width="0.4"></path><path d="M274.7,224.4 L274.8,227.2 L294.0,226.9 L294.4,249.5 L272.2,249.9 L272.2,247.2 L254.0,247.6 L253.6,225.2 L274.7,224.4 Z" fill="#d6d2c9" stroke="#bab6ad" stroke-width="0.4"></path><path d="M70.4,215.3 L98.5,214.5 L100.8,299.5 L-2.1,302.3 L-4.6,209.9 L26.0,209.1 L27.7,271.3 L71.9,270.1 L70.4,215.3 Z" fill="#d6d2c9" stroke="#bab6ad" stroke-width="0.4"></path><path d="M188.0,307.4 L189.0,303.2 L189.5,301.6 L190.9,297.7 L193.9,293.0 L197.5,289.6 L203.4,286.4 L207.9,283.9 L211.0,281.3 L213.4,277.3 L214.7,272.6 L212.5,194.6 L208.3,44.1 L207.0,5.5 L206.9,2.8 L206.6,-3.3 L206.0,-14.0 L205.4,-16.6 L203.7,-20.0 L202.2,-21.9 L200.1,-24.0 L196.1,-26.0 L192.0,-26.7 L188.0,-26.8 L72.9,-22.6 L23.8,-21.0 L14.9,-20.7 L5.0,-20.4 L-4.6,-20.0 L-8.3,-19.3 L-11.0,-18.1 L-13.6,-16.5 L-16.2,-14.0 L-17.8,-11.1 L-18.8,-7.8 L-19.0,-4.6 L-15.7,114.3 L-15.5,123.5 L-15.3,131.7 L-15.1,136.7 L-11.2,301.0 L-10.9,305.3" fill="none" stroke="#cf828d" stroke-width="1.5" stroke-dasharray="1.6 3.0" opacity="0.62" stroke-linecap="round" stroke-linejoin="round"></path><path d="M323.7,128.8 L292.9,129.6" fill="none" stroke="#cf828d" stroke-width="1.5" stroke-dasharray="1.6 3.0" opacity="0.62" stroke-linecap="round" stroke-linejoin="round"></path><path d="M322.8,103.3 L252.1,106.4 L247.7,106.0 L243.9,105.1 L241.3,103.8 L238.5,101.6 L236.3,98.8 L235.0,96.1 L234.6,93.0 L228.4,-122.6" fill="none" stroke="#cf828d" stroke-width="1.5" stroke-dasharray="1.6 3.0" opacity="0.62" stroke-linecap="round" stroke-linejoin="round"></path><path d="M-41.3,100.3 L-40.8,113.8 L-34.3,305.0" fill="none" stroke="#cf828d" stroke-width="1.5" stroke-dasharray="1.6 3.0" opacity="0.62" stroke-linecap="round" stroke-linejoin="round"></path><path d="M179.5,-52.2 L-28.0,-45.0 L-37.4,-26.1 L-44.6,-26.5 L-41.8,80.8 L-41.3,100.3" fill="none" stroke="#cf828d" stroke-width="1.5" stroke-dasharray="1.6 3.0" opacity="0.62" stroke-linecap="round" stroke-linejoin="round"></path><path d="M175.3,304.3 L182.9,286.9 L180.9,195.3" fill="none" stroke="#cf828d" stroke-width="1.5" stroke-dasharray="1.6 3.0" opacity="0.62" stroke-linecap="round" stroke-linejoin="round"></path><path d="M212.5,194.6 L180.9,195.3 L101.4,197.1 L102.5,243.3 L106.1,243.7 L107.8,304.4" fill="none" stroke="#cf828d" stroke-width="1.5" stroke-dasharray="1.6 3.0" opacity="0.62" stroke-linecap="round" stroke-linejoin="round"></path><path d="M206.9,2.8 L194.4,2.8 L194.4,10.5 L192.3,10.6" fill="none" stroke="#cf828d" stroke-width="1.5" stroke-dasharray="1.6 3.0" opacity="0.62" stroke-linecap="round" stroke-linejoin="round"></path><path d="M192.3,10.6 L184.5,10.8 L178.1,10.9" fill="none" stroke="#cf828d" stroke-width="1.5" stroke-dasharray="1.6 3.0" opacity="0.62" stroke-linecap="round" stroke-linejoin="round"></path><path d="M178.1,10.9 L175.3,10.8 L175.4,16.1 L167.6,16.4 L97.8,19.0" fill="none" stroke="#cf828d" stroke-width="1.5" stroke-dasharray="1.6 3.0" opacity="0.62" stroke-linecap="round" stroke-linejoin="round"></path><path d="M167.6,16.4 L168.4,57.4 L168.7,72.0 L169.0,85.1" fill="none" stroke="#cf828d" stroke-width="1.5" stroke-dasharray="1.6 3.0" opacity="0.62" stroke-linecap="round" stroke-linejoin="round"></path><path d="M168.4,57.4 L97.8,19.0 L65.1,1.2 L54.7,20.1 L40.0,46.8 L38.6,49.3 L94.1,79.1 L148.9,108.4 L157.5,113.1 L159.1,161.7" fill="none" stroke="#cf828d" stroke-width="1.5" stroke-dasharray="1.6 3.0" opacity="0.62" stroke-linecap="round" stroke-linejoin="round"></path><path d="M26.0,81.3 L25.9,74.4 L25.8,67.7" fill="none" stroke="#cf828d" stroke-width="1.5" stroke-dasharray="1.6 3.0" opacity="0.62" stroke-linecap="round" stroke-linejoin="round"></path><path d="M25.8,67.7 L25.3,46.9 L24.2,3.4 L23.8,-21.0" fill="none" stroke="#cf828d" stroke-width="1.5" stroke-dasharray="1.6 3.0" opacity="0.62" stroke-linecap="round" stroke-linejoin="round"></path><path d="M24.2,3.4 L54.7,20.1" fill="none" stroke="#cf828d" stroke-width="1.5" stroke-dasharray="1.6 3.0" opacity="0.62" stroke-linecap="round" stroke-linejoin="round"></path><path d="M25.3,46.9 L40.0,46.8" fill="none" stroke="#cf828d" stroke-width="1.5" stroke-dasharray="1.6 3.0" opacity="0.62" stroke-linecap="round" stroke-linejoin="round"></path><path d="M26.0,81.3 L26.6,100.7 L40.0,108.0 L65.3,121.8 L91.9,136.2 L96.6,138.8 L97.4,163.3 L143.1,162.2 L159.1,161.7 L166.9,161.5" fill="none" stroke="#cf828d" stroke-width="1.5" stroke-dasharray="1.6 3.0" opacity="0.62" stroke-linecap="round" stroke-linejoin="round"></path><path d="M65.3,121.8 L67.7,111.8 L72.4,103.6" fill="none" stroke="#cf828d" stroke-width="1.5" stroke-dasharray="1.6 3.0" opacity="0.62" stroke-linecap="round" stroke-linejoin="round"></path><path d="M94.1,79.1 L83.3,83.1 L79.0,91.5" fill="none" stroke="#cf828d" stroke-width="1.5" stroke-dasharray="1.6 3.0" opacity="0.62" stroke-linecap="round" stroke-linejoin="round"></path><path d="M79.0,91.5 L75.6,97.8 L72.4,103.6" fill="none" stroke="#cf828d" stroke-width="1.5" stroke-dasharray="1.6 3.0" opacity="0.62" stroke-linecap="round" stroke-linejoin="round"></path><path d="M91.9,136.2 L70.6,177.0 L64.1,189.5 L42.7,178.1 L11.0,161.3 L22.5,140.3 L3.3,129.9 L0.7,129.4 L-0.8,129.9 L-6.0,135.8 L-7.9,136.3 L-15.1,136.7" fill="none" stroke="#cf828d" stroke-width="1.5" stroke-dasharray="1.6 3.0" opacity="0.62" stroke-linecap="round" stroke-linejoin="round"></path><path d="M-0.5,128.0 L1.8,123.3" fill="none" stroke="#cf828d" stroke-width="1.5" stroke-dasharray="1.6 3.0" opacity="0.62" stroke-linecap="round" stroke-linejoin="round"></path><path d="M70.6,177.0 L88.5,186.8 L98.3,186.7 L99.0,197.0 L101.4,197.1" fill="none" stroke="#cf828d" stroke-width="1.5" stroke-dasharray="1.6 3.0" opacity="0.62" stroke-linecap="round" stroke-linejoin="round"></path><path d="M143.1,162.2 L142.1,120.7 L148.9,108.4 L168.7,72.0" fill="none" stroke="#cf828d" stroke-width="1.5" stroke-dasharray="1.6 3.0" opacity="0.62" stroke-linecap="round" stroke-linejoin="round"></path><path d="M22.5,140.3 L40.0,108.0" fill="none" stroke="#cf828d" stroke-width="1.5" stroke-dasharray="1.6 3.0" opacity="0.62" stroke-linecap="round" stroke-linejoin="round"></path><path d="M48.8,230.0 L46.9,230.4 L45.1,231.7 L44.6,232.3 L43.8,233.2 L42.8,235.4 L42.2,237.8 L41.9,240.3 L42.1,243.0 L43.0,245.5 L44.1,247.8 L46.3,249.7 L48.8,250.7 L51.7,250.4 L54.1,248.4 L55.6,245.6 L56.5,242.3 L56.7,239.6 L56.4,237.1 L55.4,234.6 L53.9,232.4 L53.5,232.0 L52.1,230.7 L50.7,230.2 L48.8,230.0" fill="none" stroke="#cf828d" stroke-width="1.5" stroke-dasharray="1.6 3.0" opacity="0.62" stroke-linecap="round" stroke-linejoin="round"></path><path d="M53.5,232.0 L56.9,227.5 L58.0,225.2 L58.5,222.7 L58.4,220.9 L58.0,218.3 L57.6,216.2 L57.8,214.1 L59.3,208.4 L64.4,193.6 L64.1,189.5" fill="none" stroke="#cf828d" stroke-width="1.5" stroke-dasharray="1.6 3.0" opacity="0.62" stroke-linecap="round" stroke-linejoin="round"></path><path d="M97.4,163.3 L98.3,186.7" fill="none" stroke="#cf828d" stroke-width="1.5" stroke-dasharray="1.6 3.0" opacity="0.62" stroke-linecap="round" stroke-linejoin="round"></path><path d="M48.8,250.7 L48.6,255.5 L48.5,258.6 L48.8,261.6 L49.5,265.9 L50.4,268.5" fill="none" stroke="#cf828d" stroke-width="1.5" stroke-dasharray="1.6 3.0" opacity="0.62" stroke-linecap="round" stroke-linejoin="round"></path><path d="M44.6,232.3 L40.1,228.6 L37.5,225.8 L35.9,223.2 L35.1,219.7 L35.7,214.8 L36.4,208.5 L36.4,204.7 L37.0,191.2 L42.7,178.1" fill="none" stroke="#cf828d" stroke-width="1.5" stroke-dasharray="1.6 3.0" opacity="0.62" stroke-linecap="round" stroke-linejoin="round"></path><path d="M1.8,123.3 L5.5,112.1 L6.4,104.8 L5.8,74.4 L5.1,-18.1 L5.0,-20.4 L5.3,-33.3" fill="none" stroke="#cec8bb" stroke-width="3.5" stroke-linecap="round" stroke-linejoin="round"/><path d="M1.8,123.3 L5.5,112.1 L6.4,104.8 L5.8,74.4 L5.1,-18.1 L5.0,-20.4 L5.3,-33.3" fill="none" stroke="#ffffff" stroke-width="2.5" stroke-linecap="round" stroke-linejoin="round"></path><path d="M186.9,93.0 L184.5,10.8 L184.1,-2.8" fill="none" stroke="#cec8bb" stroke-width="3.5" stroke-linecap="round" stroke-linejoin="round"/><path d="M186.9,93.0 L184.5,10.8 L184.1,-2.8" fill="none" stroke="#ffffff" stroke-width="2.5" stroke-linecap="round" stroke-linejoin="round"></path><path d="M126.9,321.1 L126.4,303.6 L124.1,219.5 L163.3,218.4 L166.1,305.4" fill="none" stroke="#cec8bb" stroke-width="3.5" stroke-linecap="round" stroke-linejoin="round"/><path d="M126.9,321.1 L126.4,303.6 L124.1,219.5 L163.3,218.4 L166.1,305.4" fill="none" stroke="#ffffff" stroke-width="2.5" stroke-linecap="round" stroke-linejoin="round"></path><path d="M5.8,74.4 L25.9,74.4 L30.8,74.3 L75.6,97.8 L109.3,115.4 L114.1,119.6 L118.3,124.7 L120.6,131.3 L121.8,159.5" fill="none" stroke="#cec8bb" stroke-width="3.5" stroke-linecap="round" stroke-linejoin="round"/><path d="M5.8,74.4 L25.9,74.4 L30.8,74.3 L75.6,97.8 L109.3,115.4 L114.1,119.6 L118.3,124.7 L120.6,131.3 L121.8,159.5" fill="none" stroke="#ffffff" stroke-width="2.5" stroke-linecap="round" stroke-linejoin="round"></path><path d="M-25.3,124.0 L-15.5,123.5 L-12.5,123.4 L-1.8,122.9 L1.8,123.3 L6.0,124.4 L13.6,128.4 L22.7,133.5" fill="none" stroke="#cec8bb" stroke-width="3.5" stroke-linecap="round" stroke-linejoin="round"/><path d="M-25.3,124.0 L-15.5,123.5 L-12.5,123.4 L-1.8,122.9 L1.8,123.3 L6.0,124.4 L13.6,128.4 L22.7,133.5" fill="none" stroke="#ffffff" stroke-width="2.5" stroke-linecap="round" stroke-linejoin="round"></path><path d="M216.2,-95.8 L217.5,-37.9 L218.2,-3.5 L222.1,120.1" fill="none" stroke="#cec8bb" stroke-width="4.8" stroke-linecap="round" stroke-linejoin="round"/><path d="M216.2,-95.8 L217.5,-37.9 L218.2,-3.5 L222.1,120.1" fill="none" stroke="#ffffff" stroke-width="3.7" stroke-linecap="round" stroke-linejoin="round"><title>Southwest 29th Court</title></path><path d="M-19.1,-27.9 L-22.3,-24.0 L-25.4,-19.0 L-27.3,-12.4 L-27.9,-2.3 L-26.4,80.5 L-25.6,113.5 L-25.3,124.0 L-21.1,302.4 L-20.3,314.4" fill="none" stroke="#cec8bb" stroke-width="4.8" stroke-linecap="round" stroke-linejoin="round"/><path d="M-19.1,-27.9 L-22.3,-24.0 L-25.4,-19.0 L-27.3,-12.4 L-27.9,-2.3 L-26.4,80.5 L-25.6,113.5 L-25.3,124.0 L-21.1,302.4 L-20.3,314.4" fill="none" stroke="#ffffff" stroke-width="3.7" stroke-linecap="round" stroke-linejoin="round"><title>Southwest 30th Avenue</title></path><path d="M323.2,116.1 L241.7,119.4 L222.1,120.1" fill="none" stroke="#cec8bb" stroke-width="4.8" stroke-linecap="round" stroke-linejoin="round"/><path d="M323.2,116.1 L241.7,119.4 L222.1,120.1" fill="none" stroke="#ffffff" stroke-width="3.7" stroke-linecap="round" stroke-linejoin="round"><title>Southwest 10th Street</title></path><path d="M222.1,120.1 L226.4,266.7 L226.1,277.2 L225.0,286.5 L216.8,310.8" fill="none" stroke="#cec8bb" stroke-width="4.8" stroke-linecap="round" stroke-linejoin="round"/><path d="M222.1,120.1 L226.4,266.7 L226.1,277.2 L225.0,286.5 L216.8,310.8" fill="none" stroke="#ffffff" stroke-width="3.7" stroke-linecap="round" stroke-linejoin="round"><title>Southwest 29th Court</title></path><text x="220.5" y="68.1" transform="rotate(88.2 220.5 68.1)" text-anchor="middle" dominant-baseline="central" font-family="Arial, sans-serif" font-size="8.3" textLength="106.2" lengthAdjust="spacing" font-weight="650" paint-order="stroke" stroke="#fffaf0" stroke-width="2.05" stroke-linejoin="round" fill="#695f54">Southwest 29th Court</text><text x="223.9" y="180.1" transform="rotate(88.3 223.9 180.1)" text-anchor="middle" dominant-baseline="central" font-family="Arial, sans-serif" font-size="8.3" textLength="106.2" lengthAdjust="spacing" font-weight="650" paint-order="stroke" stroke="#fffaf0" stroke-width="2.05" stroke-linejoin="round" fill="#695f54">Southwest 29th Court</text><text x="150.8" y="163.0" text-anchor="middle" font-family="Arial, sans-serif" font-size="6.5" textLength="18.0" lengthAdjust="spacing" font-weight="500" paint-order="stroke" stroke="#f3f5ee" stroke-width="1.55" stroke-linejoin="round" fill="#6f777a">1040</text><text x="52.5" y="148.2" text-anchor="middle" font-family="Arial, sans-serif" font-size="6.5" textLength="18.0" lengthAdjust="spacing" font-weight="500" paint-order="stroke" stroke="#f3f5ee" stroke-width="1.55" stroke-linejoin="round" fill="#6f777a">935</text><text x="241.0" y="16.5" text-anchor="middle" font-family="Arial, sans-serif" font-size="6.5" textLength="18.0" lengthAdjust="spacing" font-weight="500" paint-order="stroke" stroke="#f3f5ee" stroke-width="1.55" stroke-linejoin="round" fill="#6f777a">901</text><text x="76.5" y="38.6" text-anchor="middle" font-family="Arial, sans-serif" font-size="6.5" textLength="18.0" lengthAdjust="spacing" font-weight="500" paint-order="stroke" stroke="#f3f5ee" stroke-width="1.55" stroke-linejoin="round" fill="#6f777a">2970</text><text x="125.2" y="61.4" text-anchor="middle" font-family="Arial, sans-serif" font-size="6.5" textLength="18.0" lengthAdjust="spacing" font-weight="500" paint-order="stroke" stroke="#f3f5ee" stroke-width="1.55" stroke-linejoin="round" fill="#6f777a">940</text></svg>