<svg xmlns="http://www.w3.org/2000/svg" width="256" height="256" viewBox="0 0 256 256"><rect width="256" height="256" fill="#f1efe7"/><path d="M-5637.4,-6294.9 L-5530.0,-6339.5 L-5496.4,-6355.6 L-5346.1,-6427.8 L-5317.9,-6400.5 L-5315.4,-6398.2 L-5262.8,-6443.2 L-5250.2,-6452.8 L-5229.3,-6471.7 L-5111.2,-6580.1 L-5015.9,-6688.9 L-5012.3,-6695.8 L-5008.8,-6699.8 L-5003.2,-6706.1 L-4997.6,-6712.6 L-4995.3,-6715.3 L-5032.9,-6763.8 L-4983.2,-6793.6 L-4956.2,-6757.7 L-4918.1,-6801.3 L-4950.4,-6844.1 L-4910.4,-6885.7 L-4879.7,-6845.2 L-4844.3,-6885.4 L-4829.3,-6895.2 L-4755.7,-6943.0 L-4719.3,-6967.1 L-4675.5,-6996.0 L-4654.8,-7009.5 L-4602.4,-7043.4 L-4615.9,-7061.2 L-4640.1,-7093.5 L-4577.6,-7133.2 L-4554.8,-7145.0 L-4553.1,-7146.2 L-4541.1,-7155.5 L-4498.3,-7178.3 L-4495.3,-7183.0 L-4483.3,-7191.2 L-4476.8,-7200.7 L-4475.0,-7202.1 L-4464.6,-7206.1 L-4440.9,-7214.6 L-4424.8,-7221.7 L-4367.7,-7248.5 L-4367.0,-7246.6 L-4319.2,-7267.1 L-4299.7,-7242.0 L-4256.1,-7271.1 L-4249.9,-7275.3 L-4249.3,-7275.8 L-4248.7,-7276.6 L-4247.8,-7278.3 L-4247.2,-7279.8 L-4247.0,-7281.7 L-4247.0,-7283.2 L-4247.2,-7284.6 L-4247.4,-7286.3 L-4247.5,-7287.5 L-4247.4,-7288.6 L-4247.1,-7289.7 L-4246.3,-7291.7 L-4245.8,-7292.8 L-4244.6,-7294.7 L-4243.2,-7296.1 L-4236.9,-7298.7 L-4231.6,-7300.6 L-4224.8,-7302.8 L-4221.7,-7303.7 L-4216.1,-7305.5 L-4212.1,-7307.0 L-4206.7,-7309.2 L-4199.3,-7312.4 L-4191.3,-7316.2 L-4187.0,-7318.3 L-4181.6,-7321.0 L-4176.6,-7323.9 L-4171.5,-7326.9 L-4166.4,-7330.2 L-4164.8,-7331.3 L-4154.4,-7339.2 L-4145.7,-7345.9 L-4137.2,-7353.1 L-4129.2,-7360.6 L-4123.5,-7367.1 L-4117.8,-7374.0 L-4110.8,-7383.0 L-4104.4,-7392.0 L-4097.1,-7403.6 L-4092.3,-7412.5 L-4089.3,-7418.2 L-4084.8,-7427.9 L-4081.1,-7436.8 L-4077.7,-7446.4 L-4075.0,-7454.9 L-4072.1,-7468.6 L-4069.9,-7480.8 L-4068.7,-7491.4 L-4067.8,-7503.7 L-4067.6,-7517.0 L-4068.5,-7529.3 L-4070.6,-7545.2 L-4072.7,-7556.1 L-4075.3,-7566.5 L-4078.9,-7578.1 L-4082.1,-7587.1 L-4085.7,-7596.9 L-4089.1,-7604.9 L-4091.4,-7610.2 L-4092.4,-7614.0 L-4092.5,-7617.0 L-4092.2,-7619.6 L-4091.1,-7621.9 L-4089.5,-7623.9 L-4087.4,-7625.0 L-4085.2,-7625.3 L-4079.1,-7623.8 L-4062.3,-7619.8 L-4056.7,-7747.1 L-4034.8,-7974.4 L-4058.6,-7980.1 L-4061.2,-7987.2 L-4061.1,-7997.4 L-4057.8,-8020.7 L-4053.3,-8025.9 L-4049.3,-8041.1 L-4024.1,-8035.2 L-4010.1,-8180.4 L-4006.3,-8220.7 L-4014.1,-8222.6 L-4009.4,-8241.8 L-4025.6,-8245.6 L-4023.5,-8257.4 L-4020.7,-8265.1 L-4017.1,-8274.2 L-4011.1,-8286.8 L-4004.7,-8285.4 L-3995.9,-8376.7 L-3993.9,-8432.1 L-3993.5,-8442.3 L-3988.8,-8477.6 L-3979.4,-8565.5 L-3917.0,-8728.2 L-3902.8,-8772.5 L-3729.5,-8839.0 L-3712.5,-8845.8 L-3709.6,-8847.4 L-3707.2,-8849.5 L-3704.7,-8852.4 L-3702.8,-8855.9 L-3701.5,-8859.3 L-3701.1,-8864.2 L-3701.4,-8870.4 L-3703.7,-8948.1 L-3704.6,-8963.2 L-3704.8,-8973.6 L-3705.1,-8993.6 L-3705.5,-8999.9 L-3706.3,-9005.2 L-3707.4,-9010.0 L-3708.9,-9014.7 L-3711.3,-9020.4 L-3714.9,-9026.5 L-3718.5,-9031.3 L-3721.2,-9035.8 L-3723.9,-9041.8 L-3726.2,-9047.7 L-3727.1,-9052.4 L-3727.8,-9057.6 L-3728.1,-9062.9 L-3728.0,-9068.0 L-3727.4,-9073.9 L-3726.0,-9079.8 L-3724.1,-9085.0 L-3722.2,-9089.8 L-3719.7,-9094.4 L-3716.7,-9099.9 L-3714.6,-9105.0 L-3712.9,-9111.5 L-3709.7,-9116.3 L-3710.8,-9161.0 L-3712.4,-9163.5 L-3713.0,-9193.8 L-3713.8,-9229.6 L-3713.2,-9234.5 L-3711.6,-9239.6 L-3707.6,-9247.5 L-3680.9,-9305.0 L-3680.3,-9306.0 L-3675.6,-9316.2 L-3671.1,-9326.0 L-3666.2,-9336.0 L-3661.2,-9346.2 L-3658.8,-9351.3 L-3632.6,-9405.2 L-3604.5,-9464.8 L-3543.6,-9588.2 L-3580.2,-9629.1 L-3610.0,-9565.7 L-3635.8,-9510.7 L-3639.7,-9502.9 L-3647.6,-9486.7 L-3663.5,-9488.0 L-3667.9,-9488.3 L-3669.4,-9486.8 L-3667.3,-9484.9 L-3675.5,-9477.7 L-3681.9,-9471.7 L-3683.1,-9446.3 L-3685.5,-9441.2 L-3693.3,-9441.5 L-3694.6,-9442.0 L-3796.8,-9484.1 L-3799.0,-9485.3 L-3801.4,-9486.8 L-3805.0,-9489.6 L-3807.9,-9492.3 L-3810.3,-9494.9 L-3812.6,-9498.1 L-3814.4,-9500.9 L-3815.8,-9503.8 L-3817.0,-9506.9 L-3817.7,-9508.9 L-3818.2,-9511.5 L-3818.7,-9514.5 L-3819.1,-9518.6 L-3819.1,-9524.4 L-3819.8,-9544.3 L-3817.0,-9544.5 L-3817.4,-9554.9 L-3817.8,-9572.2 L-3815.2,-9572.3 L-3815.4,-9584.1 L-3818.3,-9584.0 L-3819.7,-9633.8 L-3816.9,-9633.9 L-3817.4,-9645.5 L-3820.1,-9645.4 L-3821.2,-9682.2 L-3807.7,-9696.7 L-3790.5,-9697.3 L-3777.6,-9697.8 L-3760.7,-9698.3 L-3744.4,-9698.9 L-3729.7,-9699.4 L-3723.4,-9699.6 L-3723.7,-9705.3 L-3723.8,-9711.2 L-3724.8,-9730.3 L-3725.1,-9766.9 L-3725.6,-9767.5 L-3725.7,-9771.2 L-3724.6,-9771.2 L-3727.2,-9859.3 L-3729.4,-9942.1 L-3729.8,-9944.7 L-3730.0,-9949.5 L-3766.1,-9948.2 L-3790.1,-9950.3 L-3969.7,-9944.0 L-3969.7,-9945.6 L-3970.1,-9953.3 L-4055.3,-9950.3 L-4055.5,-9964.4 L-4066.7,-9966.9 L-4068.7,-10027.5 L-3737.3,-10039.0 L-3731.8,-10046.6 L-3732.0,-10068.1 L-3732.4,-10086.6 L-3732.7,-10098.3 L-3733.2,-10109.6 L-3759.5,-10122.1 L-3760.6,-10149.6 L-3733.5,-10163.0 L-3736.0,-10226.7 L-3736.7,-10229.9 L-3763.5,-10242.4 L-3764.4,-10276.5 L-3738.9,-10289.7 L-3750.3,-10428.1 L-3747.2,-10489.8 L-3745.8,-10590.2 L-3745.9,-10699.4 L-3743.5,-10714.8 L-3743.3,-10722.1 L-3745.7,-10731.1 L-3743.2,-10731.1 L-3743.2,-10739.1 L-3741.7,-10944.6 L-3741.9,-10953.8 L-3744.8,-10953.7 L-3744.7,-10991.5 L-3746.4,-10993.9 L-3748.9,-11032.9 L-3743.8,-11068.5 L-3744.5,-11111.7 L-3746.2,-11122.0 L-3743.6,-11154.0 L-3745.4,-11192.6 L-3749.9,-11234.0 L-3758.4,-11301.0 L-3754.4,-11319.4 L-3756.1,-11337.4 L-3771.4,-11350.5 L-3793.9,-11350.2 L-3828.1,-11345.7 L-3850.3,-11345.7 L-3870.6,-11353.2 L-3897.1,-11371.4 L-3897.1,-11404.0 L-3897.8,-11444.2 L-3895.2,-11477.6 L-3886.4,-11503.7 L-3739.0,-11506.4 L-3735.7,-11715.4 L-3735.7,-12016.2 L-3737.2,-12125.4 L4218.9,-15411.2 L4218.9,2697.9 L-5637.4,2697.9 L-5637.4,-6294.9 Z" fill="#add7e1" stroke="none"><title>Biscayne Bay</title></path></svg>