<svg xmlns="http://www.w3.org/2000/svg" width="256" height="256" viewBox="0 0 256 256"><rect width="256" height="256" fill="#f1efe7"/><path d="M-5637.4,-8854.9 L-5530.0,-8899.5 L-5496.4,-8915.6 L-5346.1,-8987.8 L-5317.9,-8960.5 L-5315.4,-8958.2 L-5262.8,-9003.2 L-5250.2,-9012.8 L-5229.3,-9031.7 L-5111.2,-9140.1 L-5015.9,-9248.9 L-5012.3,-9255.8 L-5008.8,-9259.8 L-5003.2,-9266.1 L-4997.6,-9272.6 L-4995.3,-9275.3 L-5032.9,-9323.8 L-4983.2,-9353.6 L-4956.2,-9317.7 L-4918.1,-9361.3 L-4950.4,-9404.1 L-4910.4,-9445.7 L-4879.7,-9405.2 L-4844.3,-9445.4 L-4829.3,-9455.2 L-4755.7,-9503.0 L-4719.3,-9527.1 L-4675.5,-9556.0 L-4654.8,-9569.5 L-4602.4,-9603.4 L-4615.9,-9621.2 L-4640.1,-9653.5 L-4577.6,-9693.2 L-4554.8,-9705.0 L-4553.1,-9706.2 L-4541.1,-9715.5 L-4498.3,-9738.3 L-4495.3,-9743.0 L-4483.3,-9751.2 L-4476.8,-9760.7 L-4475.0,-9762.1 L-4464.6,-9766.1 L-4440.9,-9774.6 L-4424.8,-9781.7 L-4367.7,-9808.5 L-4367.0,-9806.6 L-4319.2,-9827.1 L-4299.7,-9802.0 L-4256.1,-9831.1 L-4249.9,-9835.3 L-4249.3,-9835.8 L-4248.7,-9836.6 L-4247.8,-9838.3 L-4247.2,-9839.8 L-4247.0,-9841.7 L-4247.0,-9843.2 L-4247.2,-9844.6 L-4247.4,-9846.3 L-4247.5,-9847.5 L-4247.4,-9848.6 L-4247.1,-9849.7 L-4246.3,-9851.7 L-4245.8,-9852.8 L-4244.6,-9854.7 L-4243.2,-9856.1 L-4236.9,-9858.7 L-4231.6,-9860.6 L-4224.8,-9862.8 L-4221.7,-9863.7 L-4216.1,-9865.5 L-4212.1,-9867.0 L-4206.7,-9869.2 L-4199.3,-9872.4 L-4191.3,-9876.2 L-4187.0,-9878.3 L-4181.6,-9881.0 L-4176.6,-9883.9 L-4171.5,-9886.9 L-4166.4,-9890.2 L-4164.8,-9891.3 L-4154.4,-9899.2 L-4145.7,-9905.9 L-4137.2,-9913.1 L-4129.2,-9920.6 L-4123.5,-9927.1 L-4117.8,-9934.0 L-4110.8,-9943.0 L-4104.4,-9952.0 L-4097.1,-9963.6 L-4092.3,-9972.5 L-4089.3,-9978.2 L-4084.8,-9987.9 L-4081.1,-9996.8 L-4077.7,-10006.4 L-4075.0,-10014.9 L-4072.1,-10028.6 L-4069.9,-10040.8 L-4068.7,-10051.4 L-4067.8,-10063.7 L-4067.6,-10077.0 L-4068.5,-10089.3 L-4070.6,-10105.2 L-4072.7,-10116.1 L-4075.3,-10126.5 L-4078.9,-10138.1 L-4082.1,-10147.1 L-4085.7,-10156.9 L-4089.1,-10164.9 L-4091.4,-10170.2 L-4092.4,-10174.0 L-4092.5,-10177.0 L-4092.2,-10179.6 L-4091.1,-10181.9 L-4089.5,-10183.9 L-4087.4,-10185.0 L-4085.2,-10185.3 L-4079.1,-10183.8 L-4062.3,-10179.8 L-4056.7,-10307.1 L-4034.8,-10534.4 L-4058.6,-10540.1 L-4061.2,-10547.2 L-4061.1,-10557.4 L-4057.8,-10580.7 L-4053.3,-10585.9 L-4049.3,-10601.1 L-4024.1,-10595.2 L-4010.1,-10740.4 L-4006.3,-10780.7 L-4014.1,-10782.6 L-4009.4,-10801.8 L-4025.6,-10805.6 L-4023.5,-10817.4 L-4020.7,-10825.1 L-4017.1,-10834.2 L-4011.1,-10846.8 L-4004.7,-10845.4 L-3995.9,-10936.7 L-3993.9,-10992.1 L-3993.5,-11002.3 L-3988.8,-11037.6 L-3979.4,-11125.5 L-3917.0,-11288.2 L-3902.8,-11332.5 L-3729.5,-11399.0 L-3712.5,-11405.8 L-3709.6,-11407.4 L-3707.2,-11409.5 L-3704.7,-11412.4 L-3702.8,-11415.9 L-3701.5,-11419.3 L-3701.1,-11424.2 L-3701.4,-11430.4 L-3703.7,-11508.1 L-3704.6,-11523.2 L-3704.8,-11533.6 L-3705.1,-11553.6 L-3705.5,-11559.9 L-3706.3,-11565.2 L-3707.4,-11570.0 L-3708.9,-11574.7 L-3711.3,-11580.4 L-3714.9,-11586.5 L-3718.5,-11591.3 L-3721.2,-11595.8 L-3723.9,-11601.8 L-3726.2,-11607.7 L-3727.1,-11612.4 L-3727.8,-11617.6 L-3728.1,-11622.9 L-3728.0,-11628.0 L-3727.4,-11633.9 L-3726.0,-11639.8 L-3724.1,-11645.0 L-3722.2,-11649.8 L-3719.7,-11654.4 L-3716.7,-11659.9 L-3714.6,-11665.0 L-3712.9,-11671.5 L-3709.7,-11676.3 L-3710.8,-11721.0 L-3712.4,-11723.5 L-3713.0,-11753.8 L-3713.8,-11789.6 L-3713.2,-11794.5 L-3711.6,-11799.6 L-3707.6,-11807.5 L-3680.9,-11865.0 L-3680.3,-11866.0 L-3675.6,-11876.2 L-3671.1,-11886.0 L-3666.2,-11896.0 L-3661.2,-11906.2 L-3658.8,-11911.3 L-3632.6,-11965.2 L-3604.5,-12024.8 L-3543.6,-12148.2 L-3580.2,-12189.1 L-3610.0,-12125.7 L-3635.8,-12070.7 L-3639.7,-12062.9 L-3647.6,-12046.7 L-3663.5,-12048.0 L-3667.9,-12048.3 L-3669.4,-12046.8 L-3667.3,-12044.9 L-3675.5,-12037.7 L-3681.9,-12031.7 L-3683.1,-12006.3 L-3685.5,-12001.2 L-3693.3,-12001.5 L-3694.6,-12002.0 L-3796.8,-12044.1 L-3799.0,-12045.3 L-3801.4,-12046.8 L-3805.0,-12049.6 L-3807.9,-12052.3 L-3810.3,-12054.9 L-3812.6,-12058.1 L-3814.4,-12060.9 L-3815.8,-12063.8 L-3817.0,-12066.9 L-3817.7,-12068.9 L-3818.2,-12071.5 L-3818.7,-12074.5 L-3819.1,-12078.6 L-3819.1,-12084.4 L-3819.8,-12104.3 L-3817.0,-12104.5 L-3817.4,-12114.9 L-3817.8,-12132.2 L-3815.2,-12132.3 L-3815.4,-12144.1 L-3818.3,-12144.0 L-3819.7,-12193.8 L-3816.9,-12193.9 L-3817.4,-12205.5 L-3820.1,-12205.4 L-3821.2,-12242.2 L-3807.7,-12256.7 L-3790.5,-12257.3 L-3777.6,-12257.8 L-3760.7,-12258.3 L-3744.4,-12258.9 L-3729.7,-12259.4 L-3723.4,-12259.6 L-3723.7,-12265.3 L-3723.8,-12271.2 L-3724.8,-12290.3 L-3725.1,-12326.9 L-3725.6,-12327.5 L-3725.7,-12331.2 L-3724.6,-12331.2 L-3727.2,-12419.3 L-3729.4,-12502.1 L-3729.8,-12504.7 L-3730.0,-12509.5 L-3766.1,-12508.2 L-3790.1,-12510.3 L-3969.7,-12504.0 L-3969.7,-12505.6 L-3970.1,-12513.3 L-4055.3,-12510.3 L-4055.5,-12524.4 L-4066.7,-12526.9 L-4068.7,-12587.5 L-3737.3,-12599.0 L-3731.8,-12606.6 L-3732.0,-12628.1 L-3732.4,-12646.6 L-3732.7,-12658.3 L-3733.2,-12669.6 L-3759.5,-12682.1 L-3760.6,-12709.6 L-3733.5,-12723.0 L-3736.0,-12786.7 L-3736.7,-12789.9 L-3763.5,-12802.4 L-3764.4,-12836.5 L-3738.9,-12849.7 L-3750.3,-12988.1 L-3747.2,-13049.8 L-3745.8,-13150.2 L-3745.9,-13259.4 L-3743.5,-13274.8 L-3743.3,-13282.1 L-3745.7,-13291.1 L-3743.2,-13291.1 L-3743.2,-13299.1 L-3741.7,-13504.6 L-3741.9,-13513.8 L-3744.8,-13513.7 L-3744.7,-13551.5 L-3746.4,-13553.9 L-3748.9,-13592.9 L-3743.8,-13628.5 L-3744.5,-13671.7 L-3746.2,-13682.0 L-3743.6,-13714.0 L-3745.4,-13752.6 L-3749.9,-13794.0 L-3758.4,-13861.0 L-3754.4,-13879.4 L-3756.1,-13897.4 L-3771.4,-13910.5 L-3793.9,-13910.2 L-3828.1,-13905.7 L-3850.3,-13905.7 L-3870.6,-13913.2 L-3897.1,-13931.4 L-3897.1,-13964.0 L-3897.8,-14004.2 L-3895.2,-14037.6 L-3886.4,-14063.7 L-3739.0,-14066.4 L-3735.7,-14275.4 L-3735.7,-14576.2 L-3737.2,-14685.4 L4218.9,-17971.2 L4218.9,137.9 L-5637.4,137.9 L-5637.4,-8854.9 Z" fill="#add7e1" stroke="none"><title>Biscayne Bay</title></path></svg>