<svg xmlns="http://www.w3.org/2000/svg" width="256" height="256" viewBox="0 0 256 256"><rect width="256" height="256" fill="#f1efe7"/><path d="M-629.4,3723.7 L-901.5,3522.9 L-923.3,3506.9 L-946.9,3501.8 L-963.5,3487.7 L-976.8,3486.2 L-1019.8,3489.1 L-1019.8,3485.0 L-1022.2,3481.2 L-1026.9,3478.3 L-1120.3,3437.8 L-1126.7,3434.9 L-1132.2,3433.3 L-1139.1,3432.7 L-1146.1,3432.6 L-1169.3,3432.6 L-1175.5,3432.2 L-1181.5,3431.1 L-1187.9,3428.6 L-1195.6,3426.5 L-1201.2,3426.0 L-1217.7,3425.3 L-1223.1,3424.3 L-1230.1,3422.1 L-1237.0,3420.3 L-1243.7,3418.7 L-1248.9,3416.7 L-1255.1,3412.8 L-1260.8,3408.6 L-1266.2,3404.5 L-1270.6,3402.3 L-1274.1,3401.7 L-1277.1,3401.8 L-1280.3,3402.8 L-1284.1,3404.7 L-1287.1,3408.0 L-1291.2,3412.0 L-1295.7,3416.1 L-1300.8,3418.9 L-1307.2,3421.0 L-1312.6,3422.3 L-1319.1,3423.3 L-1329.8,3424.6 L-1356.9,3425.8 L-1379.9,3427.0 L-1389.9,3430.5 L-1410.2,3431.2 L-1412.9,3427.0 L-1415.9,3425.1 L-1419.1,3424.4 L-1441.0,3425.7 L-1450.5,3429.1 L-1462.2,3429.2 L-1470.0,3428.1 L-1476.5,3426.1 L-1500.0,3427.5 L-1562.3,3432.3 L-1576.7,3432.8 L-1581.6,3432.7 L-1585.9,3431.5 L-1591.1,3429.0 L-1594.8,3426.0 L-1611.0,3426.1 L-1624.6,3425.9 L-1628.2,3428.1 L-1646.9,3428.5 L-1649.3,3432.5 L-1651.9,3432.6 L-1656.5,3431.5 L-1664.8,3430.5 L-1673.2,3430.9 L-1675.9,3431.8 L-1678.5,3431.3 L-1680.3,3429.5 L-1683.4,3427.8 L-1694.7,3427.8 L-1706.2,3428.5 L-1717.0,3434.8 L-1722.4,3437.4 L-1728.4,3438.7 L-1733.5,3439.1 L-1738.1,3438.4 L-1748.5,3433.9 L-1754.5,3432.0 L-1759.7,3431.3 L-1782.0,3431.6 L-1783.4,3428.9 L-1803.1,3429.3 L-1816.7,3431.8 L-1825.7,3432.8 L-1830.5,3433.9 L-1832.3,3432.6 L-1835.8,3432.2 L-1867.6,3429.3 L-1870.3,3430.8 L-1873.7,3431.5 L-1878.1,3431.5 L-1878.1,3429.9 L-1897.9,3426.3 L-1910.3,3423.9 L-1940.4,3413.7 L-1942.1,3416.0 L-1962.2,3409.8 L-1966.4,3408.4 L-1964.3,3401.4 L-1966.7,3400.6 L-1967.2,3399.9 L-1968.5,3399.5 L-1970.3,3399.2 L-1972.5,3398.2 L-1971.7,3397.5 L-1980.6,3390.2 L-1995.4,3376.8 L-2003.4,3369.9 L-2009.1,3363.7 L-2012.2,3359.6 L-2016.9,3353.1 L-2019.6,3348.2 L-2028.0,3337.6 L-2028.8,3337.1 L-2029.4,3337.0 L-2029.9,3337.1 L-2031.1,3337.1 L-2032.1,3336.7 L-2034.1,3335.3 L-2038.4,3333.0 L-2040.6,3331.3 L-2043.0,3329.1 L-2046.3,3327.3 L-2051.6,3325.6 L-2057.2,3324.7 L-2061.9,3324.5 L-2060.6,3312.0 L-2059.4,3295.5 L-2054.3,3296.0 L-2049.1,3296.9 L-2042.4,3298.9 L-2037.4,3300.7 L-2033.0,3302.8 L-2028.7,3304.8 L-2024.7,3307.1 L-2021.3,3309.6 L-2017.0,3313.1 L-2012.4,3316.5 L-2011.3,3317.1 L-2010.4,3317.4 L-1997.7,3316.8 L-1997.6,3319.6 L-1998.4,3320.9 L-2007.8,3321.8 L-2005.4,3326.7 L-2003.8,3326.1 L-2002.2,3327.6 L-2001.3,3329.1 L-2000.5,3330.1 L-1998.5,3332.7 L-1997.8,3335.6 L-1994.7,3339.8 L-1987.5,3344.4 L-1978.6,3348.9 L-1967.9,3355.6 L-1963.0,3357.9 L-1952.7,3363.8 L-1947.9,3366.3 L-1939.0,3369.6 L-1921.6,3374.3 L-1911.4,3376.7 L-1902.1,3377.7 L-1897.2,3378.3 L-1896.1,3378.2 L-1895.6,3377.6 L-1895.4,3374.3 L-1883.9,3374.2 L-1883.7,3378.0 L-1859.5,3379.2 L-1835.8,3379.9 L-1819.8,3379.3 L-1814.5,3378.9 L-1810.7,3378.4 L-1807.5,3377.5 L-1804.6,3375.8 L-1803.2,3373.4 L-1803.7,3334.7 L-1794.0,3334.1 L-1793.1,3371.9 L-1792.6,3372.9 L-1790.6,3374.2 L-1788.4,3374.9 L-1736.7,3374.9 L-1736.9,3358.3 L-1732.8,3358.2 L-1731.2,3374.9 L-1699.3,3374.7 L-1699.2,3372.9 L-1696.1,3372.8 L-1696.0,3374.1 L-1483.3,3370.1 L-1467.8,3368.2 L-1449.0,3367.7 L-1431.2,3370.0 L-1425.3,3369.5 L-1420.9,3368.7 L-1416.9,3367.2 L-1411.6,3365.3 L-1304.7,3363.3 L-1304.7,3356.0 L-1244.9,3354.9 L-1244.8,3363.1 L-1219.4,3363.9 L-1217.5,3363.9 L-1215.7,3363.8 L-1213.3,3363.4 L-1211.4,3362.9 L-1209.6,3362.4 L-1206.5,3360.9 L-1205.0,3363.4 L-1201.9,3361.4 L-1199.1,3359.1 L-1196.6,3356.6 L-1194.5,3353.6 L-1192.6,3350.0 L-1196.2,3348.0 L-1195.2,3344.9 L-1194.6,3341.7 L-1194.3,3338.7 L-1194.2,3336.4 L-1194.3,3334.2 L-1194.6,3315.2 L-1197.7,3312.5 L-1195.1,3309.7 L-1197.7,3307.4 L-1194.7,3303.8 L-1198.0,3301.0 L-1195.4,3298.3 L-1198.0,3295.7 L-1195.0,3292.5 L-1198.1,3289.3 L-1191.5,3282.1 L-1190.4,3282.1 L-1193.3,3174.8 L-1169.2,3174.2 L-1168.1,3174.8 L-1166.7,3175.8 L-1165.8,3176.7 L-1165.4,3177.7 L-1165.0,3178.9 L-1165.0,3180.1 L-1162.9,3346.7 L-1162.0,3352.2 L-1160.6,3355.8 L-1158.5,3360.3 L-1156.1,3364.7 L-1153.5,3368.2 L-1151.5,3370.3 L-1149.2,3372.1 L-1146.7,3373.6 L-1144.1,3374.6 L-1140.5,3375.6 L-1136.0,3376.5 L-1130.6,3377.5 L-1124.3,3378.6 L-1118.3,3379.9 L-1111.6,3381.1 L-1105.3,3382.5 L-1103.3,3382.9 L-1100.9,3383.3 L-1098.5,3383.6 L-1096.4,3383.7 L-1094.0,3383.7 L-1092.1,3383.6 L-1090.3,3383.3 L-1088.7,3382.9 L-1087.0,3382.3 L-1085.5,3381.7 L-1082.7,3380.3 L-1080.1,3378.8 L-1077.6,3376.9 L-1074.6,3374.1 L-1071.8,3371.0 L-1070.3,3368.4 L-1069.0,3365.1 L-1068.3,3362.4 L-1067.9,3359.6 L-1067.6,3356.9 L-1067.6,3354.4 L-1071.3,3175.8 L-1066.1,3170.4 L-1064.2,3170.2 L-1063.5,3169.5 L-1052.6,3169.3 L-1051.6,3167.6 L-1050.0,3168.1 L-1047.3,3170.7 L-1045.4,3173.3 L-1043.5,3176.6 L-1039.9,3376.2 L-1039.5,3379.7 L-1038.9,3386.7 L-1038.2,3388.0 L-1038.7,3388.4 L-1037.8,3390.3 L-1036.6,3392.6 L-1035.7,3394.1 L-1034.4,3395.9 L-1032.8,3397.8 L-1030.9,3399.7 L-1028.5,3401.7 L-1026.4,3403.3 L-1024.1,3404.6 L-1021.9,3405.6 L-1019.5,3406.4 L-1019.2,3405.7 L-986.1,3417.7 L-982.0,3419.2 L-980.1,3419.9 L-977.1,3421.0 L-975.0,3421.5 L-973.2,3421.8 L-971.4,3421.8 L-969.1,3421.6 L-966.4,3421.3 L-964.2,3420.8 L-961.8,3420.1 L-960.0,3419.4 L-958.2,3418.6 L-956.7,3417.6 L-954.8,3416.3 L-952.4,3414.2 L-950.2,3412.0 L-947.8,3409.0 L-946.1,3406.2 L-944.7,3403.1 L-943.7,3399.7 L-943.1,3396.1 L-942.8,3389.9 L-942.9,3377.1 L-946.6,3174.1 L-946.6,3171.9 L-946.1,3170.3 L-945.4,3169.0 L-944.0,3167.7 L-942.4,3166.9 L-940.5,3166.6 L-925.4,3166.1 L-923.7,3166.4 L-922.0,3167.1 L-920.9,3168.2 L-919.6,3170.1 L-918.8,3172.8 L-918.4,3176.5 L-914.6,3436.9 L-914.4,3438.4 L-914.1,3440.0 L-913.7,3441.6 L-913.2,3443.4 L-912.6,3445.1 L-911.9,3446.7 L-911.2,3448.0 L-910.6,3449.3 L-909.6,3450.7 L-908.6,3452.1 L-907.6,3453.3 L-906.2,3454.8 L-904.8,3456.1 L-903.3,3457.4 L-901.6,3458.6 L-897.0,3461.5 L-896.5,3461.0 L-892.5,3463.2 L-887.7,3465.9 L-884.9,3467.4 L-881.9,3469.2 L-878.7,3471.0 L-875.5,3473.0 L-871.9,3475.3 L-868.2,3477.5 L-864.6,3479.7 L-861.7,3481.5 L-858.3,3483.7 L-854.8,3486.0 L-851.4,3488.2 L-848.2,3490.4 L-848.5,3490.8 L-844.1,3493.9 L-839.6,3496.9 L-838.2,3497.7 L-836.6,3498.6 L-834.5,3499.7 L-832.4,3500.4 L-830.2,3501.0 L-828.2,3501.5 L-826.0,3501.9 L-823.4,3502.1 L-821.2,3502.2 L-819.4,3502.0 L-817.7,3501.7 L-815.7,3501.1 L-813.6,3500.4 L-811.7,3499.8 L-810.0,3499.0 L-808.2,3498.0 L-806.4,3496.9 L-804.7,3495.5 L-803.1,3494.1 L-801.5,3492.5 L-800.1,3490.9 L-798.5,3488.7 L-797.3,3486.5 L-796.1,3484.1 L-795.4,3482.2 L-794.8,3480.2 L-794.5,3478.0 L-794.3,3475.9 L-794.4,3473.4 L-824.1,3189.5 L-822.0,3189.4 L-823.6,3175.1 L-825.2,3175.2 L-826.4,3168.7 L-826.0,3167.3 L-824.7,3165.4 L-822.1,3163.4 L-818.8,3163.0 L-805.3,3162.6 L-803.1,3163.0 L-801.5,3163.7 L-799.9,3165.0 L-798.7,3166.2 L-798.0,3167.5 L-765.5,3485.9 L-764.7,3488.7 L-763.3,3492.1 L-762.1,3494.3 L-760.8,3496.6 L-759.1,3498.9 L-757.7,3500.5 L-756.2,3502.1 L-754.5,3503.5 L-753.0,3504.6 L-750.8,3505.9 L-749.0,3506.9 L-746.5,3507.9 L-744.2,3508.6 L-741.7,3509.2 L-739.6,3509.4 L-737.9,3509.5 L-735.9,3509.5 L-665.2,3508.1 L-662.9,3507.8 L-660.7,3506.7 L-659.2,3505.3 L-658.0,3503.1 L-657.7,3501.1 L-657.7,3499.1 L-693.5,3158.1 L-725.0,3117.0 L-726.4,3118.1 L-753.8,3079.8 L-754.3,3071.8 L-755.1,3070.1 L-756.6,3068.5 L-758.4,3065.9 L-758.6,3062.1 L-761.9,3060.9 L-765.0,3060.8 L-769.2,3062.9 L-764.4,3071.9 L-770.5,3074.8 L-775.1,3070.6 L-778.9,3068.2 L-781.6,3067.3 L-788.1,3067.1 L-791.4,3060.3 L-770.7,3051.8 L-771.6,3050.2 L-776.0,3044.2 L-776.7,3044.6 L-931.2,2842.4 L-933.5,2809.0 L-932.3,2808.7 L-938.3,2747.5 L-940.6,2741.9 L-943.0,2735.5 L-945.0,2730.6 L-947.2,2724.4 L-954.8,2703.3 L-957.8,2704.7 L-962.2,2687.7 L-961.5,2687.5 L-977.0,2645.4 L-978.7,2571.7 L-976.9,2571.7 L-976.7,2565.2 L-975.8,2558.9 L-975.5,2556.5 L-976.1,2554.6 L-974.0,2544.5 L-954.8,2510.7 L-964.9,2504.5 L-957.5,2492.2 L-947.7,2497.9 L-946.9,2496.6 L-943.8,2498.1 L-940.5,2499.5 L-936.8,2500.7 L-933.9,2501.3 L-931.2,2501.3 L-928.0,2500.8 L-924.8,2499.7 L-921.7,2498.5 L-920.3,2497.0 L-919.7,2495.0 L-919.0,2492.5 L-918.8,2491.5 L-918.9,2490.2 L-919.6,2488.3 L-920.9,2486.5 L-922.4,2485.4 L-924.6,2483.3 L-926.5,2481.3 L-929.3,2479.5 L-930.5,2476.7 L-931.8,2473.8 L-933.9,2470.5 L-936.4,2467.5 L-940.9,2464.3 L-962.7,2453.0 L-975.6,2446.7 L-987.6,2440.1 L-999.1,2433.8 L-1006.5,2429.0 L-1009.3,2428.2 L-1012.5,2429.2 L-1014.2,2431.4 L-1017.8,2440.2 L-1039.9,2430.3 L-1026.6,2409.5 L-1023.8,2408.1 L-1020.2,2407.4 L-1016.1,2408.3 L-933.2,2456.8 L-928.7,2458.1 L-924.0,2459.2 L-917.3,2459.4 L-910.6,2458.2 L-906.3,2456.5 L-901.6,2452.7 L-898.9,2450.0 L-895.9,2445.9 L-895.9,2445.3 L-896.1,2444.8 L-896.6,2444.4 L-923.4,2427.8 L-924.1,2427.6 L-924.7,2427.6 L-925.5,2427.6 L-928.0,2428.7 L-928.9,2428.8 L-930.0,2428.7 L-931.6,2428.5 L-932.7,2428.1 L-934.4,2427.3 L-936.1,2426.3 L-973.0,2403.9 L-990.3,2391.6 L-992.0,2391.4 L-993.6,2391.5 L-995.5,2391.5 L-996.9,2391.3 L-997.9,2390.8 L-999.3,2389.8 L-1000.7,2388.6 L-1001.7,2387.3 L-1002.3,2385.8 L-1002.4,2384.8 L-1002.3,2383.5 L-1002.0,2382.3 L-996.1,2372.4 L-996.1,2371.9 L-996.5,2371.6 L-1001.9,2367.8 L-1003.0,2366.2 L-1002.4,2365.3 L-1000.6,2365.5 L-998.7,2366.1 L-987.6,2373.0 L-924.7,2413.1 L-923.5,2413.8 L-922.6,2414.8 L-922.0,2415.9 L-921.3,2418.2 L-920.8,2420.0 L-920.6,2421.5 L-892.2,2438.6 L-891.2,2439.0 L-890.0,2439.2 L-888.6,2438.9 L-887.6,2438.6 L-886.7,2438.2 L-856.2,2388.7 L-843.4,2370.0 L-831.4,2356.5 L-825.4,2359.8 L-821.5,2353.6 L-842.2,2341.2 L-837.8,2333.9 L-817.1,2346.4 L-812.4,2338.8 L-816.2,2334.6 L-812.4,2330.3 L-808.3,2335.0 L-807.3,2334.2 L-806.2,2333.5 L-804.6,2332.5 L-802.9,2331.7 L-800.9,2331.0 L-798.9,2330.5 L-796.8,2330.1 L-794.7,2330.0 L-792.7,2330.0 L-790.8,2330.3 L-788.9,2330.7 L-787.3,2331.2 L-786.0,2331.8 L-784.1,2332.7 L-782.3,2333.8 L-780.9,2334.9 L-779.4,2336.2 L-778.0,2337.5 L-776.5,2339.5 L-775.5,2341.2 L-774.4,2343.4 L-773.7,2345.7 L-773.1,2348.8 L-772.9,2351.5 L-773.0,2353.1 L-773.2,2354.6 L-773.7,2357.1 L-775.1,2360.3 L-776.0,2362.5 L-777.2,2365.0 L-772.1,2367.6 L-747.8,2338.6 L-792.0,2311.7 L-789.7,2307.0 L-788.2,2302.5 L-788.1,2300.6 L-785.5,2295.1 L-780.3,2290.3 L-773.7,2285.0 L-766.0,2280.0 L-751.5,2275.8 L-726.3,2273.3 L-716.5,2265.3 L-714.4,2264.9 L-712.8,2264.9 L-710.4,2265.8 L-708.2,2266.0 L-694.3,2274.4 L-657.6,2230.9 L-792.1,2145.4 L-800.4,2158.5 L-818.6,2147.1 L-792.8,2106.6 L-774.7,2117.7 L-782.8,2131.5 L-645.9,2217.8 L-628.7,2195.7 L-616.5,2181.2 L-600.4,2157.0 L-591.5,2144.7 L-592.4,2137.8 L-592.2,2137.6 L-593.7,2132.4 L-594.8,2129.3 L-595.8,2126.0 L-597.0,2123.1 L-599.3,2119.3 L-601.6,2115.7 L-602.6,2113.8 L-603.4,2111.9 L-603.9,2110.1 L-604.1,2108.6 L-604.4,2103.5 L-663.4,2049.3 L-665.4,2051.4 L-667.0,2050.0 L-671.8,2054.7 L-675.0,2050.5 L-671.2,2046.1 L-675.0,2041.3 L-677.6,2041.9 L-680.3,2042.0 L-682.8,2041.6 L-684.9,2040.7 L-687.4,2038.9 L-690.5,2035.8 L-695.9,2029.8 L-697.6,2027.2 L-698.2,2024.0 L-697.8,2020.3 L-696.4,2016.7 L-695.1,2014.3 L-692.7,2012.0 L-690.1,2010.2 L-687.5,2009.2 L-685.6,2008.9 L-683.1,2009.3 L-680.6,2010.3 L-678.2,2012.1 L-672.6,2017.2 L-669.8,2019.9 L-667.1,2022.7 L-666.3,2024.1 L-665.7,2025.5 L-665.4,2026.8 L-665.1,2028.6 L-665.4,2030.3 L-665.9,2031.9 L-666.6,2033.1 L-666.8,2033.6 L-666.7,2034.3 L-666.2,2035.1 L-602.8,2094.5 L-600.6,2096.0 L-599.1,2096.7 L-596.8,2096.2 L-594.3,2095.9 L-591.0,2097.4 L-587.6,2099.4 L-581.2,2103.1 L-578.5,2104.3 L-576.1,2101.9 L-573.4,2099.4 L-571.5,2097.3 L-568.5,2093.4 L-566.8,2091.1 L-565.1,2088.1 L-563.9,2085.6 L-562.6,2082.9 L-561.5,2080.0 L-560.5,2077.2 L-559.8,2074.7 L-559.1,2071.6 L-558.9,2069.8 L-558.6,2068.3 L-558.3,2065.6 L-558.0,2063.0 L-557.8,2061.3 L-557.7,2059.4 L-557.7,2057.3 L-557.8,2055.5 L-558.2,2053.0 L-558.5,2050.1 L-558.9,2047.5 L-559.2,2045.4 L-559.5,2043.7 L-559.9,2042.1 L-560.3,2040.3 L-560.9,2038.4 L-561.6,2036.4 L-562.1,2035.1 L-562.7,2033.9 L-563.5,2032.8 L-564.7,2031.1 L-565.9,2029.6 L-567.3,2028.3 L-569.0,2026.9 L-570.7,2025.8 L-572.5,2024.9 L-574.1,2024.2 L-575.2,2023.9 L-576.5,2023.7 L-577.9,2023.8 L-579.3,2024.1 L-580.4,2024.5 L-581.5,2025.3 L-582.3,2026.1 L-582.9,2026.9 L-583.3,2028.0 L-583.6,2029.3 L-583.5,2030.7 L-583.4,2032.5 L-583.4,2033.8 L-583.5,2035.1 L-583.7,2036.4 L-584.0,2037.5 L-584.4,2038.8 L-585.1,2040.1 L-585.9,2041.3 L-586.8,2042.4 L-587.7,2043.3 L-589.3,2044.6 L-590.8,2045.5 L-592.9,2046.2 L-594.2,2046.5 L-595.7,2046.7 L-597.1,2046.7 L-598.9,2046.7 L-600.2,2046.4 L-602.0,2046.0 L-604.5,2045.3 L-606.6,2044.5 L-608.2,2043.8 L-609.8,2042.9 L-611.2,2041.9 L-612.9,2040.7 L-614.1,2039.6 L-615.2,2038.5 L-616.3,2037.2 L-617.2,2036.0 L-618.0,2034.8 L-618.7,2033.5 L-619.6,2031.7 L-620.2,2030.0 L-620.9,2028.2 L-621.4,2026.8 L-621.7,2025.5 L-622.0,2024.2 L-622.2,2022.1 L-622.3,2020.2 L-622.2,2018.2 L-621.8,2015.5 L-621.1,2012.9 L-620.1,2010.2 L-619.4,2009.0 L-618.8,2008.2 L-613.6,2001.7 L-612.5,2000.3 L-610.9,1999.6 L-609.3,1999.0 L-607.4,1998.6 L-605.3,1998.3 L-603.5,1998.2 L-601.8,1998.3 L-600.0,1998.5 L-597.9,1999.1 L-595.8,2000.2 L-593.9,2001.3 L-592.2,2002.6 L-587.0,2007.4 L-585.8,2007.8 L-585.1,2007.9 L-584.2,2007.8 L-583.7,2007.6 L-583.0,2006.8 L-582.7,2006.0 L-582.6,2004.8 L-582.6,2003.9 L-582.8,2003.4 L-593.3,1993.0 L-579.0,1977.8 L-579.8,1975.9 L-571.6,1967.8 L-555.6,1983.7 L-568.5,2000.0 L-568.5,2001.0 L-567.9,2001.3 L-567.1,2001.2 L-553.1,1983.6 L-548.9,1978.6 L-548.8,1977.5 L-549.2,1976.4 L-549.9,1975.6 L-560.9,1965.2 L-558.2,1962.0 L-560.9,1959.6 L-559.4,1955.9 L-530.8,1927.3 L-521.1,1925.6 L-518.0,1925.2 L-515.1,1924.7 L-513.7,1924.4 L-512.1,1923.6 L-510.3,1922.5 L-508.8,1921.0 L-507.4,1919.3 L-492.8,1898.2 L-492.5,1897.6 L-492.7,1896.9 L-492.9,1896.4 L-493.3,1895.9 L-495.0,1894.9 L-495.4,1894.6 L-495.9,1894.6 L-496.3,1894.9 L-497.2,1895.6 L-509.5,1907.0 L-514.2,1910.4 L-533.7,1890.4 L-531.4,1883.3 L-530.5,1881.2 L-527.5,1875.6 L-523.9,1869.4 L-521.7,1867.0 L-517.9,1862.9 L-513.8,1858.3 L-509.3,1853.6 L-505.4,1850.3 L-503.6,1848.6 L-501.2,1846.9 L-498.9,1845.6 L-495.7,1844.2 L-493.7,1843.5 L-491.7,1842.9 L-490.2,1842.8 L-488.0,1842.9 L-486.1,1843.2 L-484.0,1843.7 L-481.9,1845.4 L-480.7,1847.2 L-479.9,1849.0 L-479.6,1851.7 L-479.8,1855.3 L-480.2,1859.2 L-481.1,1863.1 L-486.2,1874.6 L-491.1,1884.9 L-489.4,1887.7 L-488.5,1888.2 L-487.5,1888.2 L-486.7,1888.1 L-486.0,1887.6 L-482.7,1882.9 L-478.4,1880.7 L-469.8,1857.9 L-469.3,1856.8 L-468.4,1855.8 L-467.5,1855.3 L-466.8,1855.1 L-465.6,1855.1 L-464.4,1855.4 L-458.2,1857.2 L-456.9,1857.4 L-455.6,1857.4 L-454.3,1857.2 L-453.2,1856.8 L-452.3,1856.1 L-451.4,1854.9 L-440.9,1840.9 L-440.4,1839.9 L-440.2,1838.8 L-440.2,1837.7 L-440.4,1836.6 L-440.7,1835.8 L-441.4,1835.0 L-442.1,1834.4 L-443.1,1833.9 L-444.0,1833.6 L-445.0,1833.6 L-445.8,1833.7 L-446.7,1834.1 L-447.4,1834.7 L-448.0,1835.4 L-450.7,1839.8 L-451.3,1840.7 L-452.0,1841.5 L-453.1,1842.4 L-454.0,1842.9 L-455.2,1843.3 L-456.6,1843.5 L-457.4,1843.5 L-458.4,1843.4 L-459.4,1843.2 L-460.2,1842.8 L-468.8,1835.0 L-469.8,1833.8 L-470.5,1832.7 L-471.2,1831.3 L-471.7,1830.2 L-472.0,1829.0 L-472.2,1827.7 L-472.4,1826.1 L-472.4,1824.5 L-472.3,1823.1 L-472.1,1822.0 L-471.8,1821.0 L-471.5,1820.2 L-455.8,1795.3 L-454.8,1793.7 L-454.2,1792.8 L-453.5,1792.4 L-452.4,1791.9 L-451.2,1791.5 L-450.0,1791.4 L-449.3,1791.4 L-448.7,1791.5 L-448.1,1791.7 L-447.3,1792.0 L-446.4,1792.6 L-444.8,1794.0 L-437.7,1800.6 L-436.5,1802.3 L-435.7,1804.0 L-435.1,1805.9 L-434.9,1807.4 L-434.8,1809.0 L-434.8,1810.4 L-434.9,1811.7 L-435.2,1813.1 L-435.5,1814.0 L-436.3,1815.9 L-439.1,1821.1 L-439.5,1822.3 L-439.5,1823.8 L-439.4,1824.9 L-438.9,1825.7 L-438.2,1826.5 L-437.0,1827.4 L-436.0,1827.9 L-434.9,1828.2 L-433.5,1828.2 L-432.4,1827.9 L-431.1,1827.3 L-430.0,1826.3 L-411.5,1800.9 L-417.2,1795.8 L-413.8,1792.1 L-408.7,1796.9 L-398.4,1783.3 L-382.6,1762.3 L-446.0,1701.5 L-459.8,1716.0 L-475.9,1700.7 L-460.3,1683.9 L-462.4,1681.7 L-459.1,1678.7 L-457.1,1680.7 L-446.2,1668.9 L-436.5,1677.9 L-435.4,1685.4 L-394.3,1723.7 L-386.3,1726.8 L-380.0,1724.6 L-367.8,1729.4 L-359.8,1726.4 L-335.8,1697.2 L-334.5,1694.4 L-334.1,1690.7 L-335.2,1687.1 L-336.9,1684.5 L-351.0,1671.4 L-350.9,1667.8 L-348.1,1660.7 L-342.4,1650.3 L-353.5,1643.1 L-349.3,1641.6 L-346.6,1639.8 L-344.0,1636.8 L-340.9,1628.9 L-335.2,1614.4 L-331.5,1611.0 L-366.6,1577.0 L-374.3,1581.8 L-376.1,1582.3 L-377.8,1582.3 L-380.0,1582.0 L-381.8,1581.5 L-383.6,1580.5 L-385.0,1579.2 L-403.2,1561.7 L-406.6,1558.4 L-408.0,1556.6 L-409.3,1554.3 L-409.9,1552.2 L-410.1,1550.2 L-410.1,1548.4 L-409.7,1546.5 L-409.3,1545.1 L-408.7,1544.0 L-407.4,1542.2 L-405.9,1540.4 L-397.7,1531.9 L-335.7,1589.3 L-340.0,1594.1 L-294.0,1637.6 L-241.0,1560.1 L-274.7,1528.6 L-279.0,1532.5 L-341.7,1473.3 L-333.5,1465.6 L-297.4,1499.4 L-293.8,1494.1 L-291.9,1491.5 L-289.3,1488.8 L-286.4,1485.6 L-283.4,1483.7 L-278.6,1479.7 L-273.9,1475.3 L-264.7,1466.7 L-243.0,1442.2 L-239.1,1438.1 L-224.7,1430.8 L-211.1,1420.2 L-209.8,1419.1 L-206.3,1416.4 L-204.8,1415.0 L-203.5,1413.4 L-202.7,1411.8 L-202.1,1410.1 L-201.4,1408.9 L-200.7,1407.5 L-199.4,1405.3 L-198.5,1404.0 L-197.6,1402.8 L-196.0,1401.4 L-194.4,1400.4 L-192.6,1399.3 L-188.5,1397.3 L-184.4,1395.3 L-183.9,1395.2 L-183.2,1395.3 L-182.0,1395.7 L-178.8,1397.3 L-176.3,1398.5 L-175.2,1399.2 L-174.2,1400.0 L-157.4,1415.9 L-156.3,1416.6 L-150.9,1418.0 L-149.1,1418.5 L-147.1,1418.7 L-145.7,1418.6 L-144.5,1418.2 L-143.3,1417.5 L-137.4,1409.1 L-137.4,1407.9 L-137.6,1406.8 L-138.3,1405.7 L-139.2,1404.6 L-143.8,1400.4 L-143.5,1399.7 L-137.6,1387.3 L-127.6,1367.1 L-118.5,1360.4 L-113.3,1355.1 L-109.6,1351.0 L-105.9,1347.1 L-101.6,1343.7 L-99.1,1341.4 L-96.4,1338.9 L-94.4,1336.9 L-93.4,1335.1 L-92.6,1333.7 L-92.1,1332.3 L-91.9,1330.7 L-91.8,1329.2 L-88.7,1326.1 L-84.3,1321.8 L-76.7,1315.7 L-68.9,1309.7 L-65.4,1304.8 L-64.1,1299.7 L-60.2,1297.4 L-55.3,1297.3 L-50.3,1294.3 L-46.0,1286.5 L-46.1,1278.3 L-45.3,1265.7 L-44.0,1263.9 L-43.3,1262.7 L-41.9,1260.4 L-43.7,1255.1 L-41.7,1252.6 L-31.8,1240.3 L-14.7,1220.4 L-11.5,1215.7 L-10.2,1213.3 L-4.8,1205.8 L-3.3,1201.2 L-3.3,1193.9 L-3.5,1186.7 L-3.5,1179.3 L-1.3,1171.1 L2.4,1163.0 L7.7,1155.3 L11.5,1149.6 L16.1,1143.8 L24.9,1134.0 L63.9,1114.7 L69.1,1113.4 L70.4,1116.2 L71.9,1118.9 L72.4,1119.4 L73.2,1119.0 L73.4,1117.1 L72.8,1115.5 L75.0,1114.9 L83.0,1112.5 L93.4,1109.4 L101.8,1106.9 L104.7,1106.0 L101.8,1096.6 L106.9,1095.2 L115.6,1094.0 L116.7,1093.8 L116.7,1093.2 L116.7,1091.0 L124.5,1090.6 L136.8,1090.1 L141.6,1092.5 L153.4,1135.2 L156.1,1137.7 L151.0,1143.0 L155.5,1147.5 L160.0,1152.0 L165.4,1146.5 L265.6,1241.8 L399.4,1099.0 L446.2,1143.7 L448.0,1143.1 L448.7,1143.9 L451.8,1142.0 L454.4,1141.0 L457.2,1139.8 L461.9,1137.3 L464.8,1135.7 L468.3,1133.7 L471.4,1131.7 L474.0,1130.0 L476.4,1128.4 L479.3,1126.3 L482.4,1124.0 L484.9,1121.9 L487.5,1119.7 L490.3,1116.9 L493.1,1114.2 L499.4,1107.6 L503.1,1103.0 L506.9,1098.1 L509.4,1094.5 L511.8,1090.8 L514.6,1085.6 L517.1,1080.5 L519.1,1076.4 L520.8,1072.3 L521.9,1069.5 L523.0,1066.4 L525.8,1063.1 L440.2,981.7 L441.3,980.5 L451.5,969.6 L459.0,961.7 L459.7,960.9 L481.4,981.2 L486.7,978.5 L487.3,979.2 L538.3,952.7 L540.4,951.5 L541.8,950.4 L543.2,949.1 L544.7,947.5 L546.3,945.3 L547.5,943.2 L548.4,941.6 L549.0,939.5 L549.6,937.3 L549.8,934.9 L549.8,932.1 L549.6,929.9 L549.2,927.9 L548.5,925.6 L532.6,879.7 L530.4,872.2 L531.0,869.6 L492.5,860.0 L494.3,853.4 L495.8,847.4 L507.2,802.2 L498.3,776.0 L493.2,759.0 L491.6,754.7 L505.4,742.0 L521.0,733.7 L521.9,735.0 L523.4,737.1 L527.0,741.7 L527.3,741.3 L527.4,739.7 L522.6,733.1 L531.2,726.8 L533.1,725.7 L537.7,731.6 L538.4,732.2 L539.2,732.3 L539.6,732.2 L539.6,731.8 L518.2,702.5 L516.6,700.8 L514.8,698.3 L505.5,687.1 L513.4,662.4 L519.6,656.1 L526.6,652.8 L541.6,643.9 L544.7,640.7 L558.1,628.9 L562.4,633.4 L574.8,646.8 L586.4,637.1 L594.1,644.5 L601.1,651.4 L601.5,651.7 L607.4,646.6 L615.1,655.0 L621.9,663.6 L626.8,669.3 L627.5,670.0 L641.9,657.4 L642.6,656.8 L639.2,652.6 L647.1,646.2 L670.8,673.9 L691.1,660.6 L693.1,658.7 L701.9,655.0 L703.9,653.0 L705.8,650.5 L716.6,640.9 L714.2,637.5 L694.8,641.9 L672.6,616.7 L675.1,614.5 L678.5,618.4 L694.2,604.9 L710.9,623.1 L715.4,624.9 L718.0,626.5 L721.5,630.3 L723.3,628.7 L711.2,615.0 L718.6,608.5 L733.6,626.5 L735.5,625.1 L735.3,624.7 L768.1,601.0 L777.8,593.8 L746.0,554.0 L752.8,549.3 L780.5,581.7 L800.9,585.4 L814.5,577.6 L816.3,576.4 L816.2,574.9 L815.3,573.1 L825.9,566.5 L828.9,569.6 L837.9,564.3 L831.4,556.3 L800.2,514.7 L822.2,491.8 L836.7,470.5 L837.0,453.8 L829.3,431.6 L845.5,418.1 L862.6,411.5 L868.1,410.3 L872.6,409.7 L878.1,410.0 L883.9,411.4 L892.1,418.4 L913.5,444.6 L930.6,466.3 L951.0,479.9 L959.1,481.2 L966.3,482.1 L972.4,482.3 L980.2,481.8 L988.7,480.4 L995.5,478.4 L1001.3,475.7 L1005.1,473.4 L1008.0,470.5 L1012.8,464.6 L1018.0,455.1 L1023.6,442.5 L1033.7,447.7 L1037.7,449.0 L1042.0,449.7 L1048.9,449.2 L1053.4,447.9 L1058.6,445.6 L1063.5,442.8 L1068.6,437.8 L1073.0,433.8 L1078.5,430.1 L1082.3,427.6 L1087.9,425.6 L1097.5,422.8 L1103.2,421.2 L1109.4,418.9 L1114.7,416.2 L1117.8,414.3 L1120.3,411.8 L1153.0,395.4 L1154.2,394.7 L1155.7,393.7 L1157.2,392.6 L1159.4,391.3 L1160.9,390.6 L1162.4,389.3 L1163.6,388.0 L1165.2,387.0 L1166.9,385.8 L1169.2,383.7 L1172.4,383.4 L1175.7,383.0 L1177.8,382.4 L1180.6,381.1 L1184.0,379.5 L1187.7,377.3 L1189.8,375.3 L1192.1,372.7 L1193.5,370.2 L1194.3,367.9 L1194.3,366.4 L1194.4,365.0 L1195.2,359.9 L1213.4,349.3 L1245.3,330.9 L1251.5,327.4 L1305.6,296.1 L1364.2,262.5 L1389.1,248.2 L1397.8,243.4 L1470.3,201.3 L1486.3,192.4 L1486.1,191.8 L1519.3,173.1 L1532.0,166.0 L1555.5,152.9 L1555.7,153.3 L1564.8,148.3 L1586.9,136.0 L1589.6,133.6 L1612.0,117.1 L1623.1,107.9 L1633.4,99.2 L1638.1,96.6 L1648.7,86.1 L1649.6,86.7 L1651.0,86.5 L1651.7,87.0 L1666.6,69.5 L1662.9,66.0 L1663.4,65.1 L1665.0,62.8 L1669.2,57.3 L1671.8,53.4 L1673.9,50.2 L1676.7,45.8 L1679.5,41.3 L1682.6,36.1 L1685.8,30.6 L1692.8,16.2 L1694.9,11.6 L1696.6,8.0 L1697.9,5.3 L1698.9,3.1 L1701.1,-2.3 L1643.2,-110.3 L1642.1,-112.4 L1641.3,-113.6 L1640.6,-114.4 L1639.8,-115.1 L1639.1,-115.6 L1638.1,-116.2 L1637.0,-116.6 L1636.1,-116.8 L1635.2,-116.9 L1633.9,-116.9 L1632.4,-116.7 L1631.0,-116.3 L1629.6,-115.6 L1616.1,-107.8 L1598.6,-97.7 L1586.3,-90.9 L1564.0,-78.7 L1550.3,-71.2 L1550.8,-70.3 L1545.0,-67.0 L1525.8,-57.1 L1511.6,-48.7 L1503.3,-44.1 L1490.5,-36.7 L1489.1,-35.8 L1477.9,-55.8 L1499.9,-67.8 L1529.8,-84.0 L1550.1,-95.4 L1552.6,-96.8 L1552.3,-97.4 L1569.8,-106.9 L1579.2,-112.1 L1600.7,-122.6 L1604.7,-124.6 L1637.1,-142.6 L1649.2,-149.3 L1657.8,-153.9 L1667.9,-159.7 L1681.9,-134.4 L1659.9,-122.4 L1658.8,-120.6 L1658.3,-118.6 L1658.1,-117.1 L1658.1,-115.8 L1658.2,-114.8 L1658.6,-113.3 L1703.4,-30.4 L1704.3,-29.1 L1705.3,-28.2 L1706.2,-27.5 L1707.3,-27.2 L1708.4,-27.0 L1709.5,-27.1 L1710.4,-27.4 L1730.3,-42.5 L1739.6,-50.3 L1749.3,-58.4 L1753.0,-61.8 L1764.9,-71.6 L1765.5,-71.6 L1777.0,-81.5 L1777.1,-82.1 L1784.7,-88.3 L1790.7,-93.3 L1801.0,-101.8 L1801.9,-100.6 L1812.0,-108.9 L1817.1,-113.2 L1831.3,-124.9 L1841.1,-133.1 L1840.2,-134.5 L1843.5,-137.3 L1848.8,-141.7 L1852.1,-144.6 L1866.1,-150.8 L1875.5,-154.2 L1880.4,-156.5 L1893.9,-156.6 L1898.7,-156.6 L1908.7,-156.0 L1920.5,-155.5 L1921.4,-156.4 L1922.5,-154.8 L1926.2,-154.7 L1959.9,-151.8 L1963.8,-150.9 L1967.2,-150.4 L1975.0,-149.7 L1989.6,-149.0 L1992.8,-149.0 L1995.8,-149.0 L2007.5,-149.5 L2013.5,-149.8 L2019.4,-150.4 L2028.5,-151.3 L2028.5,-150.8 L2035.7,-152.0 L2042.6,-153.3 L2047.9,-154.3 L2054.7,-159.5 L2055.6,-158.3 L2056.4,-157.2 L2117.2,-76.7 L2263.9,-26.2 L2533.3,-224.0 L2606.6,-276.8 L2635.0,-337.3 L2589.9,-396.4 L2591.9,-404.8 L2599.8,-407.0 L2615.0,-403.8 L2625.8,-407.9 L2628.8,-412.1 L2628.1,-415.7 L2620.1,-431.6 L2619.5,-437.5 L2619.1,-449.2 L2617.7,-460.4 L2619.1,-462.5 L2623.7,-464.6 L2629.2,-465.9 L2633.2,-470.2 L2634.1,-475.4 L2630.7,-485.5 L2630.4,-492.4 L2631.4,-500.3 L2636.9,-514.2 L2635.8,-520.6 L2633.1,-527.7 L2633.0,-537.4 L2631.4,-550.2 L2628.4,-558.2 L2626.7,-562.4 L2627.8,-564.3 L2629.0,-564.1 L2629.3,-564.9 L2629.4,-565.9 L2629.4,-566.9 L2627.7,-567.1 L2626.5,-568.7 L2626.7,-570.5 L2625.2,-570.9 L2623.4,-571.0 L2623.1,-570.5 L2619.4,-575.0 L2618.6,-576.4 L2617.9,-578.4 L2617.4,-580.2 L2617.1,-582.2 L2616.9,-584.3 L2616.9,-586.0 L2616.8,-587.9 L2617.0,-588.9 L2617.8,-591.4 L2618.7,-593.4 L2619.9,-595.3 L2621.6,-597.8 L2623.3,-600.2 L2625.0,-601.8 L2627.0,-603.4 L2627.4,-603.0 L2645.0,-616.4 L2647.5,-618.4 L2647.0,-619.1 L2647.0,-620.4 L2651.4,-623.8 L2652.4,-623.8 L2653.5,-623.0 L2655.3,-624.4 L2673.4,-638.0 L2673.1,-638.5 L2675.3,-640.1 L2677.8,-641.6 L2679.5,-642.4 L2682.0,-643.4 L2684.2,-643.9 L2686.3,-644.3 L2688.6,-644.5 L2690.1,-644.3 L2692.0,-644.0 L2693.9,-643.4 L2695.3,-642.7 L2696.7,-641.9 L2697.7,-641.2 L2698.5,-640.3 L2699.8,-639.2 L2700.3,-638.9 L2701.2,-638.9 L2702.1,-639.1 L2704.8,-641.1 L2704.9,-641.6 L2705.2,-642.0 L2705.4,-642.5 L2705.4,-643.2 L2705.3,-643.7 L2704.8,-644.3 L2702.9,-646.2 L2701.4,-647.5 L2699.6,-648.5 L2696.6,-649.7 L2694.1,-650.8 L2698.5,-653.1 L2703.9,-656.8 L2710.7,-657.7 L2717.4,-657.3 L2721.9,-659.0 L2725.7,-664.5 L2740.2,-690.5 L2746.1,-701.2 L2750.7,-712.6 L2751.5,-714.9 L2758.5,-736.1 L2759.5,-738.2 L2760.8,-740.2 L2777.1,-760.3 L2780.5,-763.9 L2783.1,-766.1 L2819.4,-797.2 L2821.3,-798.5 L2827.6,-801.9 L2835.0,-806.1 L2858.2,-818.2 L2908.8,-845.4 L2909.9,-844.5 L2910.9,-844.1 L2911.8,-843.9 L2912.7,-844.0 L2913.6,-844.2 L2916.3,-844.8 L2919.4,-845.5 L2922.3,-846.1 L2925.2,-846.6 L2926.8,-847.0 L2929.1,-847.7 L2931.5,-848.7 L2937.6,-852.0 L2939.8,-853.2 L2940.9,-853.9 L2942.1,-854.4 L2946.8,-856.4 L2951.9,-858.4 L2958.4,-861.2 L2966.1,-864.3 L2966.4,-864.5 L2967.0,-864.5 L2967.9,-864.8 L2969.1,-865.7 L2970.4,-866.2 L2971.9,-866.9 L2974.7,-868.5 L2975.7,-869.5 L2977.4,-870.6 L2977.2,-870.9 L2977.9,-871.7 L2978.9,-872.7 L2980.3,-873.5 L2981.6,-873.9 L2982.9,-874.4 L2984.2,-875.1 L2986.6,-876.7 L2987.4,-877.4 L2988.1,-878.5 L2988.4,-879.2 L2988.4,-880.0 L2988.4,-880.8 L2988.5,-881.6 L2981.5,-890.0 L3003.5,-902.9 L3014.0,-908.5 L3016.1,-909.1 L3019.3,-908.6 L3022.8,-903.6 L3024.4,-902.2 L3025.9,-901.5 L3027.2,-901.2 L3028.4,-901.3 L3047.4,-909.0 L3052.5,-911.5 L3057.3,-914.2 L3065.0,-918.3 L3066.6,-918.9 L3174.0,-963.5 L3207.6,-979.6 L3357.9,-1051.8 L6864.4,-1080.8 L6864.4,3937.0 L-629.4,3937.0 L-629.4,3723.7 Z" fill="#add7e1" stroke="none"><title>Biscayne Bay</title></path><path d="M103.9,196.8 L107.4,196.6 L108.9,199.5 L103.2,199.8 L103.9,196.8 Z" fill="#dce8e7" stroke="#96bdc1" stroke-width="0.55"><title>Garden Pond</title></path><path d="M74.2,249.8 L54.8,250.7 L54.8,243.3 L56.7,243.1 L56.6,232.1 L76.1,231.0 L76.7,246.2 L76.3,248.0 L74.2,249.8 Z" fill="#d6d2c9" stroke="#bab6ad" stroke-width="0.4"></path><path d="M20.9,208.1 L12.6,208.1 L12.5,195.0 L24.2,195.0 L24.2,203.7 L20.9,203.7 L20.9,208.1 Z" fill="#d6d2c9" stroke="#bab6ad" stroke-width="0.4"></path><path d="M29.1,93.1 L29.0,103.2 L24.8,103.1 L24.9,101.1 L20.8,101.1 L20.8,103.4 L16.3,103.3 L16.3,101.2 L12.8,101.2 L12.8,103.2 L7.5,103.1 L7.5,93.8 L12.0,93.8 L12.0,91.9 L16.8,92.0 L16.8,93.4 L19.8,93.5 L19.8,91.8 L25.1,91.8 L25.1,93.0 L29.1,93.1 Z" fill="#d6d2c9" stroke="#bab6ad" stroke-width="0.4"></path><path d="M60.9,99.4 L61.4,107.3 L66.4,107.0 L66.6,110.3 L60.7,110.6 L61.1,117.9 L66.0,117.6 L67.0,134.8 L61.4,135.2 L62.2,147.2 L66.9,146.9 L67.1,150.4 L62.2,150.7 L62.8,160.8 L41.2,162.2 L39.6,135.4 L58.4,134.3 L57.4,117.1 L39.9,118.2 L38.9,100.7 L60.9,99.4 Z" fill="#d6d2c9" stroke="#bab6ad" stroke-width="0.4"></path><path d="M22.8,121.8 L17.3,122.0 L17.0,110.5 L27.8,110.1 L28.0,119.6 L22.7,119.8 L22.8,121.8 Z" fill="#d6d2c9" stroke="#bab6ad" stroke-width="0.4"></path><path d="M37.3,220.9 L37.7,230.1 L42.6,229.9 L42.9,238.3 L38.3,238.5 L38.6,248.3 L23.4,248.9 L23.0,237.3 L18.7,237.4 L18.3,226.3 L22.2,226.1 L22.0,221.5 L37.3,220.9 Z" fill="#d6d2c9" stroke="#bab6ad" stroke-width="0.4"></path><path d="M4.2,72.5 L4.4,78.7 L14.7,78.4 L14.9,88.2 L3.4,88.5 L3.3,83.9 L-4.3,84.1 L-4.6,72.7 L4.2,72.5 Z" fill="#d6d2c9" stroke="#bab6ad" stroke-width="0.4"></path><path d="M142.2,204.9 L175.1,243.3 L151.9,244.2 L148.5,240.9 L151.9,238.0 L137.6,220.4 L134.2,222.1 L130.4,217.0 L142.2,204.9 Z" fill="#d6d2c9" stroke="#bab6ad" stroke-width="0.4"></path><path d="M6.7,207.7 L-2.0,207.7 L-2.0,195.4 L10.0,195.5 L9.9,203.7 L6.8,203.7 L6.7,207.7 Z" fill="#d6d2c9" stroke="#bab6ad" stroke-width="0.4"></path><path d="M167.1,136.7 L148.4,152.3 L144.6,147.7 L163.4,132.1 L167.1,136.7 Z" fill="#d6d2c9" stroke="#bab6ad" stroke-width="0.4"></path><path d="M105.5,11.9 L99.4,12.8 L95.4,12.3 L92.5,11.1 L91.0,9.1 L91.0,3.3 L96.4,2.2 L96.3,-10.4 L102.4,-10.4 L102.6,-7.4 L106.4,-6.5 L106.9,0.2 L105.2,0.5 L105.5,11.9 Z" fill="#d6d2c9" stroke="#bab6ad" stroke-width="0.4"></path><path d="M74.0,215.7 L74.0,219.1 L65.4,219.0 L65.4,215.6 L74.0,215.7 Z" fill="#d6d2c9" stroke="#bab6ad" stroke-width="0.4"></path><path d="M126.7,188.8 L119.5,195.4 L116.5,195.3 L114.8,193.2 L112.1,194.1 L107.5,189.9 L107.8,183.9 L118.3,176.6 L127.5,186.4 L126.7,188.8 Z" fill="#d6d2c9" stroke="#bab6ad" stroke-width="0.4"></path><path d="M51.1,205.9 L42.8,205.9 L42.7,188.6 L51.1,188.6 L51.1,205.9 Z" fill="#d6d2c9" stroke="#bab6ad" stroke-width="0.4"></path><path d="M9.1,127.0 L9.1,132.0 L10.9,132.0 L10.9,138.0 L-0.8,138.0 L-0.7,132.8 L-2.5,132.8 L-2.5,126.9 L9.1,127.0 Z" fill="#d6d2c9" stroke="#bab6ad" stroke-width="0.4"></path><path d="M12.8,232.1 L-1.5,232.0 L-1.4,219.4 L3.9,219.4 L3.9,217.0 L12.9,217.0 L12.8,232.1 Z" fill="#d6d2c9" stroke="#bab6ad" stroke-width="0.4"></path><path d="M27.7,138.1 L16.6,138.2 L16.6,132.2 L18.0,132.1 L17.9,126.3 L28.9,126.2 L29.0,131.2 L27.6,131.2 L27.7,138.1 Z" fill="#d6d2c9" stroke="#bab6ad" stroke-width="0.4"></path><path d="M47.8,54.1 L36.4,54.3 L36.3,47.6 L47.7,47.4 L47.8,54.1 Z" fill="#d6d2c9" stroke="#bab6ad" stroke-width="0.4"></path><path d="M39.0,194.1 L38.7,203.9 L35.4,203.8 L35.3,207.2 L28.7,207.0 L28.8,203.6 L26.6,203.6 L26.9,193.8 L39.0,194.1 Z" fill="#d6d2c9" stroke="#bab6ad" stroke-width="0.4"></path><path d="M4.3,56.7 L-5.7,56.7 L-5.8,45.3 L4.2,45.3 L4.3,56.7 Z" fill="#d6d2c9" stroke="#bab6ad" stroke-width="0.4"></path><path d="M65.6,67.7 L52.4,68.0 L52.2,60.2 L65.4,59.8 L65.6,67.7 Z" fill="#d6d2c9" stroke="#bab6ad" stroke-width="0.4"></path><path d="M50.2,68.7 L37.5,69.0 L37.3,60.6 L50.0,60.3 L50.2,68.7 Z" fill="#d6d2c9" stroke="#bab6ad" stroke-width="0.4"></path><path d="M130.7,247.9 L106.1,248.8 L104.3,247.5 L103.0,245.7 L102.2,243.2 L102.1,240.7 L102.3,238.4 L102.8,236.9 L104.1,234.5 L123.9,218.1 L132.4,228.5 L129.4,230.9 L130.7,247.9 Z" fill="#d6d2c9" stroke="#bab6ad" stroke-width="0.4"></path><path d="M155.7,87.7 L168.9,102.5 L168.0,104.3 L169.6,106.8 L124.7,144.6 L116.0,134.7 L114.0,130.2 L114.4,125.7 L121.2,119.7 L122.4,120.5 L125.8,118.4 L126.8,119.5 L128.4,118.5 L131.1,120.8 L137.9,116.5 L129.6,106.1 L131.4,104.4 L130.0,101.6 L134.5,98.7 L133.8,95.9 L138.0,93.5 L145.1,100.4 L148.5,97.6 L147.4,95.7 L154.9,91.0 L153.5,89.3 L155.7,87.7 Z" fill="#d6d2c9" stroke="#bab6ad" stroke-width="0.4"></path><path d="M62.9,85.0 L35.5,85.4 L35.4,76.0 L62.8,75.6 L62.9,85.0 Z" fill="#d6d2c9" stroke="#bab6ad" stroke-width="0.4"></path><path d="M31.5,8.5 L21.4,9.2 L20.8,-1.6 L33.3,-2.2 L33.6,3.2 L31.4,3.2 L31.5,8.5 Z" fill="#d6d2c9" stroke="#bab6ad" stroke-width="0.4"></path><path d="M19.9,157.8 L20.2,165.5 L13.9,165.7 L13.9,164.3 L7.5,164.5 L7.5,166.3 L-0.5,166.5 L-0.7,158.4 L19.9,157.8 Z" fill="#d6d2c9" stroke="#bab6ad" stroke-width="0.4"></path><path d="M32.6,46.2 L32.7,48.7 L34.0,48.6 L34.2,54.2 L33.1,54.3 L33.3,58.7 L34.3,58.6 L34.5,64.6 L33.5,64.6 L33.6,66.8 L29.6,67.0 L25.4,67.2 L24.5,46.5 L32.6,46.2 Z" fill="#d6d2c9" stroke="#bab6ad" stroke-width="0.4"></path><path d="M15.0,37.0 L15.1,37.9 L19.9,37.8 L20.1,45.6 L18.8,45.7 L18.9,49.8 L17.3,49.8 L17.6,58.6 L13.8,58.8 L13.9,60.6 L8.7,60.8 L7.8,40.2 L9.8,40.1 L9.7,37.1 L15.0,37.0 Z" fill="#d6d2c9" stroke="#bab6ad" stroke-width="0.4"></path><path d="M32.5,159.0 L32.6,163.1 L25.1,163.3 L25.1,162.5 L24.3,162.5 L24.2,159.6 L22.4,159.6 L22.0,147.4 L33.7,147.0 L34.1,159.0 L32.5,159.0 Z" fill="#d6d2c9" stroke="#bab6ad" stroke-width="0.4"></path><path d="M16.1,143.9 L16.6,155.3 L15.8,155.4 L15.8,156.0 L3.4,156.5 L3.3,154.3 L-0.7,154.5 L-1.0,146.4 L3.1,146.2 L3.1,144.2 L15.3,143.7 L16.1,143.9 Z" fill="#d6d2c9" stroke="#bab6ad" stroke-width="0.4"></path><path d="M255.6,112.0 L251.4,115.4 L247.8,110.9 L252.0,107.5 L255.6,112.0 Z" fill="#d6d2c9" stroke="#bab6ad" stroke-width="0.4"></path><path d="M185.2,13.2 L180.8,16.8 L177.1,12.3 L181.5,8.7 L185.2,13.2 Z" fill="#d6d2c9" stroke="#bab6ad" stroke-width="0.4"></path><path d="M152.2,170.8 L147.1,164.1 L149.4,162.3 L147.8,160.1 L152.9,156.1 L159.2,163.6 L157.8,164.8 L158.5,165.6 L152.2,170.8 Z" fill="#d6d2c9" stroke="#bab6ad" stroke-width="0.4"></path><path d="M250.3,170.0 L255.9,176.3 L256.5,175.8 L262.2,182.2 L258.9,185.2 L259.7,186.1 L256.7,188.9 L244.6,175.5 L250.3,170.0 Z" fill="#d6d2c9" stroke="#bab6ad" stroke-width="0.4"></path><path d="M252.9,53.3 L265.4,68.0 L256.5,75.8 L246.9,64.0 L246.3,64.6 L241.8,59.1 L246.3,55.4 L247.9,57.4 L252.9,53.3 Z" fill="#d6d2c9" stroke="#bab6ad" stroke-width="0.4"></path><path d="M143.0,46.6 L144.9,49.0 L146.1,48.1 L149.1,51.8 L148.6,52.2 L151.1,55.4 L136.8,67.0 L130.8,59.6 L134.9,56.3 L133.3,54.4 L143.0,46.6 Z" fill="#d6d2c9" stroke="#bab6ad" stroke-width="0.4"></path><path d="M206.7,46.1 L216.6,57.9 L216.0,58.4 L216.5,59.0 L214.7,60.5 L217.3,63.6 L215.0,65.6 L212.7,62.9 L210.7,64.6 L203.8,56.4 L201.7,58.2 L197.8,53.6 L206.7,46.1 Z" fill="#d6d2c9" stroke="#bab6ad" stroke-width="0.4"></path><path d="M181.8,-12.3 L183.1,-10.7 L183.9,-11.4 L185.3,-9.6 L184.7,-9.0 L186.9,-6.2 L174.2,5.0 L171.5,1.9 L170.3,2.9 L169.2,1.7 L170.4,0.7 L168.9,-0.9 L181.8,-12.3 Z" fill="#d6d2c9" stroke="#bab6ad" stroke-width="0.4"></path><path d="M200.3,2.3 L207.0,10.2 L203.0,13.7 L202.3,12.9 L199.2,15.5 L198.8,15.1 L194.8,18.6 L193.5,17.1 L190.3,19.8 L185.7,14.3 L188.9,11.6 L188.2,10.8 L191.3,8.1 L192.2,9.1 L200.3,2.3 Z" fill="#d6d2c9" stroke="#bab6ad" stroke-width="0.4"></path><path d="M219.2,-17.1 L227.8,-6.9 L213.4,5.2 L212.7,4.4 L208.2,8.2 L202.1,0.9 L204.6,-1.3 L202.2,-4.1 L212.1,-12.4 L216.0,-7.7 L219.2,-10.4 L215.9,-14.3 L219.2,-17.1 Z" fill="#d6d2c9" stroke="#bab6ad" stroke-width="0.4"></path><path d="M231.3,193.5 L236.4,199.3 L229.1,205.8 L232.4,209.6 L228.0,213.4 L220.6,205.0 L223.0,202.9 L222.0,201.8 L223.9,200.0 L222.1,198.0 L227.0,193.6 L228.8,195.7 L231.3,193.5 Z" fill="#d6d2c9" stroke="#bab6ad" stroke-width="0.4"></path><path d="M207.4,159.8 L217.1,171.2 L212.6,175.0 L210.1,172.0 L209.3,172.7 L206.6,169.6 L204.8,171.1 L200.9,166.5 L203.7,164.1 L203.2,163.5 L207.4,159.8 Z" fill="#d6d2c9" stroke="#bab6ad" stroke-width="0.4"></path><path d="M175.2,19.8 L176.7,21.5 L177.3,20.9 L178.3,21.9 L177.6,22.5 L178.6,23.6 L174.1,27.8 L178.4,32.6 L171.7,38.7 L164.2,30.5 L170.1,25.1 L168.7,23.6 L170.4,22.0 L171.5,23.2 L175.2,19.8 Z" fill="#d6d2c9" stroke="#bab6ad" stroke-width="0.4"></path><path d="M189.9,209.9 L191.6,212.4 L193.2,211.3 L195.0,214.1 L194.0,214.8 L196.2,218.0 L192.4,220.6 L190.4,217.6 L188.4,218.9 L184.9,213.1 L189.9,209.9 Z" fill="#d6d2c9" stroke="#bab6ad" stroke-width="0.4"></path><path d="M235.0,53.4 L231.7,56.4 L226.4,50.2 L229.8,47.3 L235.0,53.4 Z" fill="#d6d2c9" stroke="#bab6ad" stroke-width="0.4"></path><path d="M248.4,115.6 L252.5,120.5 L253.6,119.5 L257.1,123.8 L256.4,124.3 L259.1,127.6 L257.4,129.1 L261.9,134.4 L256.3,139.1 L247.3,128.0 L248.4,127.0 L247.0,125.3 L245.8,126.2 L243.4,123.3 L244.2,122.7 L242.4,120.6 L248.4,115.6 Z" fill="#d6d2c9" stroke="#bab6ad" stroke-width="0.4"></path><path d="M268.5,125.4 L263.8,129.3 L253.1,116.5 L262.6,108.5 L260.8,106.3 L263.9,103.7 L273.4,115.2 L265.5,121.8 L268.5,125.4 Z" fill="#d6d2c9" stroke="#bab6ad" stroke-width="0.4"></path><path d="M251.4,6.4 L255.5,11.3 L256.0,10.8 L261.5,17.3 L261.0,17.8 L262.9,20.1 L259.8,22.8 L257.7,20.3 L254.7,22.8 L257.1,25.7 L253.4,28.8 L244.5,18.2 L244.9,17.9 L243.3,16.0 L245.4,14.3 L244.0,12.6 L251.4,6.4 Z" fill="#d6d2c9" stroke="#bab6ad" stroke-width="0.4"></path><path d="M123.8,63.5 L125.7,65.9 L126.7,65.1 L132.8,72.7 L126.1,78.0 L125.1,76.7 L123.1,78.3 L116.8,70.4 L119.5,68.3 L118.9,67.5 L123.8,63.5 Z" fill="#d6d2c9" stroke="#bab6ad" stroke-width="0.4"></path><path d="M166.1,14.4 L158.0,21.4 L152.1,15.0 L152.9,14.3 L150.9,12.1 L160.4,3.9 L165.8,10.0 L163.8,11.9 L166.1,14.4 Z" fill="#d6d2c9" stroke="#bab6ad" stroke-width="0.4"></path><path d="M253.4,190.4 L243.9,198.3 L241.1,194.9 L243.3,193.0 L239.0,187.8 L246.3,181.7 L253.4,190.4 Z" fill="#d6d2c9" stroke="#bab6ad" stroke-width="0.4"></path><path d="M109.2,63.8 L108.7,63.1 L104.1,67.0 L103.6,66.3 L101.9,67.7 L99.0,64.2 L100.7,62.7 L99.9,61.9 L102.2,59.9 L99.7,56.9 L104.7,52.7 L104.1,52.0 L111.2,46.1 L118.4,54.7 L113.3,59.0 L114.0,59.8 L109.2,63.8 Z" fill="#d6d2c9" stroke="#bab6ad" stroke-width="0.4"></path><path d="M131.1,33.3 L132.6,35.0 L133.7,34.0 L137.1,37.7 L135.8,38.9 L138.6,41.9 L131.9,48.0 L128.7,44.5 L129.3,44.0 L126.6,40.9 L125.2,42.2 L122.0,38.7 L124.1,36.8 L125.6,38.4 L131.1,33.3 Z" fill="#d6d2c9" stroke="#bab6ad" stroke-width="0.4"></path><path d="M235.4,65.9 L242.0,73.5 L248.1,68.8 L255.4,77.1 L251.6,80.4 L252.4,81.3 L248.4,84.8 L247.1,83.2 L246.6,83.7 L244.9,81.7 L243.1,83.2 L231.2,69.6 L235.4,65.9 Z" fill="#d6d2c9" stroke="#bab6ad" stroke-width="0.4"></path><path d="M229.3,144.1 L211.8,157.9 L207.5,152.1 L213.9,147.4 L214.8,148.7 L218.0,146.3 L217.1,145.2 L218.2,144.3 L216.8,142.3 L224.1,136.9 L229.3,144.1 Z" fill="#d6d2c9" stroke="#bab6ad" stroke-width="0.4"></path><path d="M227.1,27.0 L228.5,28.6 L229.1,28.1 L231.5,31.0 L234.3,28.7 L241.5,37.2 L229.8,47.2 L228.7,45.9 L226.4,47.8 L217.3,37.1 L223.7,31.7 L222.8,30.7 L227.1,27.0 Z" fill="#d6d2c9" stroke="#bab6ad" stroke-width="0.4"></path><path d="M224.7,103.3 L212.0,88.4 L213.6,87.0 L209.8,82.4 L212.0,80.6 L210.9,79.3 L215.1,75.7 L232.4,96.2 L224.7,103.3 Z" fill="#d6d2c9" stroke="#bab6ad" stroke-width="0.4"></path><path d="M220.4,71.2 L224.1,75.6 L226.3,73.8 L229.2,77.3 L231.5,75.3 L241.9,87.7 L238.6,90.8 L236.9,89.0 L234.3,91.4 L233.7,90.7 L231.4,92.9 L228.2,89.3 L230.5,87.3 L228.2,84.8 L226.6,86.0 L220.9,79.2 L220.0,80.0 L215.7,75.1 L220.4,71.2 Z" fill="#d6d2c9" stroke="#bab6ad" stroke-width="0.4"></path><path d="M165.2,83.6 L170.9,90.3 L172.2,89.2 L174.5,91.9 L173.8,92.5 L175.6,94.6 L177.8,92.7 L181.3,96.8 L177.0,100.6 L174.8,98.0 L171.7,100.6 L160.6,87.6 L165.2,83.6 Z" fill="#d6d2c9" stroke="#bab6ad" stroke-width="0.4"></path><path d="M197.6,107.9 L200.1,110.4 L202.7,108.0 L208.0,113.7 L204.9,116.7 L207.3,119.3 L200.1,126.0 L197.0,122.6 L198.9,120.8 L197.2,119.0 L194.9,121.1 L191.0,116.9 L196.2,112.0 L194.8,110.4 L197.6,107.9 Z" fill="#d6d2c9" stroke="#bab6ad" stroke-width="0.4"></path><path d="M189.6,190.7 L186.4,193.3 L188.1,195.4 L185.0,197.9 L185.5,198.5 L181.7,201.7 L179.2,199.0 L175.7,201.8 L171.5,196.7 L176.7,192.4 L177.4,193.2 L185.8,186.3 L189.6,190.7 Z" fill="#d6d2c9" stroke="#bab6ad" stroke-width="0.4"></path><path d="M207.9,199.0 L212.0,203.5 L212.9,202.7 L221.4,212.3 L219.9,213.6 L221.7,215.6 L217.4,219.4 L215.5,217.2 L214.5,218.1 L212.1,215.4 L210.0,217.3 L204.3,210.8 L207.6,207.9 L203.3,203.1 L207.9,199.0 Z" fill="#d6d2c9" stroke="#bab6ad" stroke-width="0.4"></path><path d="M257.1,238.5 L248.2,247.3 L243.2,242.3 L247.1,238.2 L244.3,235.4 L249.5,230.3 L257.1,238.5 Z" fill="#d6d2c9" stroke="#bab6ad" stroke-width="0.4"></path><path d="M175.0,127.5 L176.3,129.1 L178.1,127.6 L184.6,135.4 L181.5,138.0 L182.7,139.3 L179.4,142.1 L170.1,131.0 L175.0,127.5 Z" fill="#d6d2c9" stroke="#bab6ad" stroke-width="0.4"></path><path d="M186.5,180.0 L169.1,194.5 L165.8,190.8 L166.6,190.1 L163.9,187.0 L180.6,172.9 L186.5,180.0 Z" fill="#d6d2c9" stroke="#bab6ad" stroke-width="0.4"></path><path d="M174.1,149.3 L171.0,151.9 L169.9,150.8 L168.1,152.6 L168.9,153.4 L164.2,156.9 L163.4,155.9 L162.0,157.1 L157.8,152.0 L159.3,150.8 L158.5,149.9 L172.1,138.8 L177.4,145.3 L173.4,148.5 L174.1,149.3 Z" fill="#d6d2c9" stroke="#bab6ad" stroke-width="0.4"></path><path d="M102.4,84.1 L102.5,91.3 L98.7,91.4 L98.7,90.4 L97.8,90.4 L97.7,84.2 L102.4,84.1 Z" fill="#d6d2c9" stroke="#bab6ad" stroke-width="0.4"></path><path d="M181.6,117.3 L175.1,122.6 L174.5,122.0 L173.4,122.8 L172.3,121.4 L173.3,120.5 L168.6,114.7 L175.1,109.3 L181.6,117.3 Z" fill="#d6d2c9" stroke="#bab6ad" stroke-width="0.4"></path><path d="M262.8,-3.3 L278.6,14.5 L272.4,20.0 L266.1,12.8 L264.4,14.3 L259.9,9.0 L257.8,10.8 L253.1,5.4 L262.8,-3.3 Z" fill="#d6d2c9" stroke="#bab6ad" stroke-width="0.4"></path><path d="M194.3,51.0 L210.5,70.1 L205.1,74.8 L198.2,66.6 L195.3,69.0 L189.4,62.1 L193.4,58.6 L190.1,54.6 L194.3,51.0 Z" fill="#d6d2c9" stroke="#bab6ad" stroke-width="0.4"></path><path d="M202.6,172.8 L200.7,174.4 L206.6,181.3 L201.3,185.6 L191.2,173.6 L195.6,169.8 L196.3,170.6 L198.9,168.4 L202.6,172.8 Z" fill="#d6d2c9" stroke="#bab6ad" stroke-width="0.4"></path><path d="M268.6,230.5 L263.5,235.6 L260.9,232.9 L258.9,234.9 L252.4,227.9 L259.8,220.6 L268.6,230.5 Z" fill="#d6d2c9" stroke="#bab6ad" stroke-width="0.4"></path><path d="M139.9,235.9 L139.9,237.4 L141.2,237.4 L141.2,241.2 L143.1,241.2 L143.1,245.3 L142.0,245.3 L141.9,246.3 L131.4,246.3 L131.3,235.9 L139.9,235.9 Z" fill="#d6d2c9" stroke="#bab6ad" stroke-width="0.4"></path><path d="M193.0,226.1 L203.4,237.8 L214.0,228.5 L205.3,218.6 L199.6,223.7 L197.9,221.8 L193.0,226.1 Z" fill="#d6d2c9" stroke="#bab6ad" stroke-width="0.4"></path><path d="M233.7,149.3 L240.2,157.4 L234.6,161.9 L235.7,163.2 L232.0,166.1 L230.3,164.0 L227.5,166.3 L229.8,169.2 L226.1,172.1 L218.5,162.7 L222.0,159.9 L220.6,158.2 L228.7,151.7 L229.5,152.7 L233.7,149.3 Z" fill="#d6d2c9" stroke="#bab6ad" stroke-width="0.4"></path><path d="M102.9,253.6 L103.0,259.4 L103.0,265.9" fill="none" stroke="#cf828d" stroke-width="1.3" stroke-dasharray="1.6 3.0" opacity="0.62" stroke-linecap="round" stroke-linejoin="round"></path><path d="M75.8,255.9 L76.4,261.5 L77.2,268.7" fill="none" stroke="#cf828d" stroke-width="1.3" stroke-dasharray="1.6 3.0" opacity="0.62" stroke-linecap="round" stroke-linejoin="round"></path><path d="M88.5,10.2 L88.0,-15.4 L88.2,-17.5 L89.1,-18.9 L90.4,-19.7 L92.1,-20.4 L93.2,-21.4 L93.7,-23.1 L92.4,-66.4" fill="none" stroke="#cf828d" stroke-width="1.3" stroke-dasharray="1.6 3.0" opacity="0.62" stroke-linecap="round" stroke-linejoin="round"></path><path d="M65.6,-62.4 L67.0,-21.9 L67.7,0.1" fill="none" stroke="#cf828d" stroke-width="1.3" stroke-dasharray="1.6 3.0" opacity="0.62" stroke-linecap="round" stroke-linejoin="round"></path><path d="M67.7,0.1 L68.0,10.7 L68.1,14.4 L68.1,16.1" fill="none" stroke="#cf828d" stroke-width="1.3" stroke-dasharray="1.6 3.0" opacity="0.62" stroke-linecap="round" stroke-linejoin="round"></path><path d="M68.0,10.7 L72.8,10.6" fill="none" stroke="#cf828d" stroke-width="1.3" stroke-dasharray="1.6 3.0" opacity="0.62" stroke-linecap="round" stroke-linejoin="round"></path><path d="M72.8,10.6 L76.9,10.5 L83.2,10.3 L88.5,10.2" fill="none" stroke="#cf828d" stroke-width="1.3" stroke-dasharray="1.6 3.0" opacity="0.62" stroke-linecap="round" stroke-linejoin="round"></path><path d="M-132.3,20.4 L0.1,16.7 L17.7,16.1 L68.1,14.4" fill="none" stroke="#cf828d" stroke-width="1.3" stroke-dasharray="1.6 3.0" opacity="0.62" stroke-linecap="round" stroke-linejoin="round"></path><path d="M68.1,16.1 L68.2,21.1 L68.4,27.8" fill="none" stroke="#cf828d" stroke-width="1.3" stroke-dasharray="1.6 3.0" opacity="0.62" stroke-linecap="round" stroke-linejoin="round"></path><path d="M68.4,27.8 L0.3,29.6" fill="none" stroke="#cf828d" stroke-width="1.3" stroke-dasharray="1.6 3.0" opacity="0.62" stroke-linecap="round" stroke-linejoin="round"></path><path d="M68.4,27.8 L73.6,168.1 L74.0,169.6" fill="none" stroke="#cf828d" stroke-width="1.3" stroke-dasharray="1.6 3.0" opacity="0.62" stroke-linecap="round" stroke-linejoin="round"></path><path d="M73.6,168.1 L0.3,170.6" fill="none" stroke="#cf828d" stroke-width="1.3" stroke-dasharray="1.6 3.0" opacity="0.62" stroke-linecap="round" stroke-linejoin="round"></path><path d="M92.2,107.3 L93.7,146.2" fill="none" stroke="#cf828d" stroke-width="1.3" stroke-dasharray="1.6 3.0" opacity="0.62" stroke-linecap="round" stroke-linejoin="round"></path><path d="M92.2,107.3 L92.0,103.2 L91.9,98.7" fill="none" stroke="#cf828d" stroke-width="1.3" stroke-dasharray="1.6 3.0" opacity="0.62" stroke-linecap="round" stroke-linejoin="round"></path><path d="M91.9,98.7 L91.7,92.0 L93.9,89.2 L93.7,84.6 L92.9,61.4 L95.2,57.8 L94.2,20.0" fill="none" stroke="#cf828d" stroke-width="1.3" stroke-dasharray="1.6 3.0" opacity="0.62" stroke-linecap="round" stroke-linejoin="round"></path><path d="M88.5,10.2 L88.9,11.6 L90.0,12.8 L92.1,13.8 L94.0,14.4 L94.2,20.0" fill="none" stroke="#cf828d" stroke-width="1.3" stroke-dasharray="1.6 3.0" opacity="0.62" stroke-linecap="round" stroke-linejoin="round"></path><path d="M93.7,146.2 L94.0,150.9 L94.5,159.6" fill="none" stroke="#cf828d" stroke-width="1.3" stroke-dasharray="1.6 3.0" opacity="0.62" stroke-linecap="round" stroke-linejoin="round"></path><path d="M104.2,249.8 L106.9,250.7 L110.1,250.9 L176.4,249.3 L178.9,248.8 L180.4,247.6 L180.9,245.9 L180.9,243.7 L179.1,241.5 L145.8,202.9 L142.7,200.4" fill="none" stroke="#cf828d" stroke-width="1.3" stroke-dasharray="1.6 3.0" opacity="0.62" stroke-linecap="round" stroke-linejoin="round"></path><path d="M104.2,249.8 L102.9,253.6" fill="none" stroke="#cf828d" stroke-width="1.3" stroke-dasharray="1.6 3.0" opacity="0.62" stroke-linecap="round" stroke-linejoin="round"></path><path d="M94.5,159.6 L94.5,167.2 L96.8,168.7 L98.5,169.8 L99.6,172.1 L100.3,244.2 L100.4,246.9 L101.8,248.7 L104.2,249.8" fill="none" stroke="#cf828d" stroke-width="1.3" stroke-dasharray="1.6 3.0" opacity="0.62" stroke-linecap="round" stroke-linejoin="round"></path><path d="M142.7,200.4 L139.4,195.5 L137.2,192.1" fill="none" stroke="#cf828d" stroke-width="1.3" stroke-dasharray="1.6 3.0" opacity="0.62" stroke-linecap="round" stroke-linejoin="round"></path><path d="M122.6,172.2 L136.1,188.6 L137.2,192.1" fill="none" stroke="#cf828d" stroke-width="1.3" stroke-dasharray="1.6 3.0" opacity="0.62" stroke-linecap="round" stroke-linejoin="round"></path><path d="M-86.7,256.3 L-46.0,254.9 L-17.2,254.0 L-0.4,253.5 L17.0,252.9 L46.8,252.0 L64.8,251.4 L72.8,251.1 L74.1,250.8 L75.4,250.2 L76.0,249.5 L78.7,251.7" fill="none" stroke="#cf828d" stroke-width="1.3" stroke-dasharray="1.6 3.0" opacity="0.62" stroke-linecap="round" stroke-linejoin="round"></path><path d="M78.7,251.7 L77.9,252.9 L76.8,253.9 L75.5,254.8 L75.8,255.9" fill="none" stroke="#cf828d" stroke-width="1.3" stroke-dasharray="1.6 3.0" opacity="0.62" stroke-linecap="round" stroke-linejoin="round"></path><path d="M78.7,251.7 L79.2,250.8 L79.3,249.3 L79.3,247.3 L78.5,223.7 L77.1,183.5 L76.6,181.8 L74.8,181.0 L74.7,179.3" fill="none" stroke="#cf828d" stroke-width="1.3" stroke-dasharray="1.6 3.0" opacity="0.62" stroke-linecap="round" stroke-linejoin="round"></path><path d="M74.0,169.6 L74.4,174.7 L74.7,179.3" fill="none" stroke="#cf828d" stroke-width="1.3" stroke-dasharray="1.6 3.0" opacity="0.62" stroke-linecap="round" stroke-linejoin="round"></path><path d="M79.3,247.3 L83.0,247.1" fill="none" stroke="#cf828d" stroke-width="1.3" stroke-dasharray="1.6 3.0" opacity="0.62" stroke-linecap="round" stroke-linejoin="round"></path><path d="M100.4,246.9 L97.1,247.0" fill="none" stroke="#cf828d" stroke-width="1.3" stroke-dasharray="1.6 3.0" opacity="0.62" stroke-linecap="round" stroke-linejoin="round"></path><path d="M83.0,247.1 L89.8,247.1 L97.1,247.0" fill="none" stroke="#cf828d" stroke-width="1.3" stroke-dasharray="1.6 3.0" opacity="0.62" stroke-linecap="round" stroke-linejoin="round"></path><path d="M36.0,182.4 L0.2,183.2" fill="none" stroke="#cf828d" stroke-width="1.3" stroke-dasharray="1.6 3.0" opacity="0.62" stroke-linecap="round" stroke-linejoin="round"></path><path d="M122.6,172.2 L119.3,168.2 L113.8,164.3 L112.0,163.2 L110.0,162.3 L107.9,161.8 L105.7,161.8 L103.7,162.1 L102.2,162.8 L100.7,163.6 L99.5,164.6 L98.0,166.8 L96.8,168.7" fill="none" stroke="#cf828d" stroke-width="1.3" stroke-dasharray="1.6 3.0" opacity="0.62" stroke-linecap="round" stroke-linejoin="round"></path><path d="M123.7,151.9 L112.0,135.1 L110.1,131.2 L109.1,127.7 L109.1,124.7 L109.4,120.9 L110.8,117.1 L112.8,113.5 L115.3,110.6 L117.7,108.3" fill="none" stroke="#cf828d" stroke-width="1.3" stroke-dasharray="1.6 3.0" opacity="0.62" stroke-linecap="round" stroke-linejoin="round"></path><path d="M47.1,262.3 L46.8,252.0 L45.8,222.5 L44.6,220.2 L43.7,219.0 L42.0,218.2 L18.6,219.5 L17.3,221.3 L16.7,223.4 L16.4,226.0 L17.0,252.9 L17.3,263.1" fill="none" stroke="#cec8bb" stroke-width="3.2" stroke-linecap="round" stroke-linejoin="round"/><path d="M47.1,262.3 L46.8,252.0 L45.8,222.5 L44.6,220.2 L43.7,219.0 L42.0,218.2 L18.6,219.5 L17.3,221.3 L16.7,223.4 L16.4,226.0 L17.0,252.9 L17.3,263.1" fill="none" stroke="#ffffff" stroke-width="2.2" stroke-linecap="round" stroke-linejoin="round"></path><path d="M62.4,175.0 L63.2,223.9 L78.5,223.7 L88.9,223.6" fill="none" stroke="#cec8bb" stroke-width="3.2" stroke-linecap="round" stroke-linejoin="round"/><path d="M62.4,175.0 L63.2,223.9 L78.5,223.7 L88.9,223.6" fill="none" stroke="#ffffff" stroke-width="2.2" stroke-linecap="round" stroke-linejoin="round"></path><path d="M18.0,22.6 L17.7,16.1 L17.1,1.2 L16.0,-21.1 L30.8,-21.7 L40.5,-21.8 L55.9,-21.9" fill="none" stroke="#cec8bb" stroke-width="3.2" stroke-linecap="round" stroke-linejoin="round"/><path d="M18.0,22.6 L17.7,16.1 L17.1,1.2 L16.0,-21.1 L30.8,-21.7 L40.5,-21.8 L55.9,-21.9" fill="none" stroke="#ffffff" stroke-width="2.2" stroke-linecap="round" stroke-linejoin="round"></path><path d="M40.5,-21.8 L41.5,2.5" fill="none" stroke="#cec8bb" stroke-width="3.2" stroke-linecap="round" stroke-linejoin="round"/><path d="M40.5,-21.8 L41.5,2.5" fill="none" stroke="#ffffff" stroke-width="2.2" stroke-linecap="round" stroke-linejoin="round"></path><path d="M17.1,1.2 L4.1,1.6" fill="none" stroke="#cec8bb" stroke-width="3.2" stroke-linecap="round" stroke-linejoin="round"/><path d="M17.1,1.2 L4.1,1.6" fill="none" stroke="#ffffff" stroke-width="2.2" stroke-linecap="round" stroke-linejoin="round"></path><path d="M158.3,131.2 L136.0,150.4 L134.5,151.3" fill="none" stroke="#cec8bb" stroke-width="3.2" stroke-linecap="round" stroke-linejoin="round"/><path d="M158.3,131.2 L136.0,150.4 L134.5,151.3" fill="none" stroke="#ffffff" stroke-width="2.2" stroke-linecap="round" stroke-linejoin="round"></path><path d="M134.5,151.3 L133.1,151.3 L129.3,151.5 L123.7,151.9 L121.3,153.5" fill="none" stroke="#cec8bb" stroke-width="3.2" stroke-linecap="round" stroke-linejoin="round"/><path d="M134.5,151.3 L133.1,151.3 L129.3,151.5 L123.7,151.9 L121.3,153.5" fill="none" stroke="#ffffff" stroke-width="2.2" stroke-linecap="round" stroke-linejoin="round"></path><path d="M121.3,153.5 L117.5,155.8" fill="none" stroke="#cec8bb" stroke-width="3.2" stroke-linecap="round" stroke-linejoin="round"/><path d="M121.3,153.5 L117.5,155.8" fill="none" stroke="#ffffff" stroke-width="2.2" stroke-linecap="round" stroke-linejoin="round"></path><path d="M121.3,153.5 L124.0,154.1 L129.8,153.9 L133.9,152.5 L134.5,151.3" fill="none" stroke="#cec8bb" stroke-width="3.2" stroke-linecap="round" stroke-linejoin="round"/><path d="M121.3,153.5 L124.0,154.1 L129.8,153.9 L133.9,152.5 L134.5,151.3" fill="none" stroke="#ffffff" stroke-width="2.2" stroke-linecap="round" stroke-linejoin="round"></path><path d="M109.9,19.3 L110.8,11.7 L112.5,1.0 L113.2,-10.5" fill="none" stroke="#cec8bb" stroke-width="3.2" stroke-linecap="round" stroke-linejoin="round"/><path d="M109.9,19.3 L110.8,11.7 L112.5,1.0 L113.2,-10.5" fill="none" stroke="#ffffff" stroke-width="2.2" stroke-linecap="round" stroke-linejoin="round"></path><path d="M86.8,174.4 L74.4,174.7 L70.8,174.8 L62.4,175.0 L-4.8,176.8 L-13.1,177.3 L-18.8,177.6 L-67.8,179.3" fill="none" stroke="#cec8bb" stroke-width="4.3" stroke-linecap="round" stroke-linejoin="round"/><path d="M86.8,174.4 L74.4,174.7 L70.8,174.8 L62.4,175.0 L-4.8,176.8 L-13.1,177.3 L-18.8,177.6 L-67.8,179.3" fill="none" stroke="#ffffff" stroke-width="3.2" stroke-linecap="round" stroke-linejoin="round"><title>West Trade Avenue</title></path><path d="M218.4,-60.8 L142.1,4.2 L132.8,12.6 L129.3,15.7 L125.6,17.5 L122.7,18.3" fill="none" stroke="#cec8bb" stroke-width="4.3" stroke-linecap="round" stroke-linejoin="round"/><path d="M218.4,-60.8 L142.1,4.2 L132.8,12.6 L129.3,15.7 L125.6,17.5 L122.7,18.3" fill="none" stroke="#ffffff" stroke-width="3.2" stroke-linecap="round" stroke-linejoin="round"><title>Andros Avenue</title></path><path d="M228.7,-57.9 L253.4,-28.9 L259.6,-21.5 L263.9,-16.5 L309.0,35.9" fill="none" stroke="#cec8bb" stroke-width="4.3" stroke-linecap="round" stroke-linejoin="round"/><path d="M228.7,-57.9 L253.4,-28.9 L259.6,-21.5 L263.9,-16.5 L309.0,35.9" fill="none" stroke="#ffffff" stroke-width="3.2" stroke-linecap="round" stroke-linejoin="round"><title>Jefferson Street</title></path><path d="M349.6,126.0 L281.4,185.2 L207.3,246.5" fill="none" stroke="#cec8bb" stroke-width="4.3" stroke-linecap="round" stroke-linejoin="round"/><path d="M349.6,126.0 L281.4,185.2 L207.3,246.5" fill="none" stroke="#ffffff" stroke-width="3.2" stroke-linecap="round" stroke-linejoin="round"><title>Swanson Avenue</title></path><path d="M18.0,22.6 L-6.9,23.1 L-18.3,23.4 L-28.7,23.7 L-69.5,25.0" fill="none" stroke="#cec8bb" stroke-width="4.3" stroke-linecap="round" stroke-linejoin="round"/><path d="M18.0,22.6 L-6.9,23.1 L-18.3,23.4 L-28.7,23.7 L-69.5,25.0" fill="none" stroke="#ffffff" stroke-width="3.2" stroke-linecap="round" stroke-linejoin="round"><title>Coconut Avenue</title></path><path d="M332.3,-83.5 L268.0,-28.7 L259.6,-21.5 L254.9,-17.3 L171.0,57.4 L154.9,71.1" fill="none" stroke="#cec8bb" stroke-width="4.3" stroke-linecap="round" stroke-linejoin="round"/><path d="M332.3,-83.5 L268.0,-28.7 L259.6,-21.5 L254.9,-17.3 L171.0,57.4 L154.9,71.1" fill="none" stroke="#ffffff" stroke-width="3.2" stroke-linecap="round" stroke-linejoin="round"><title>Abaco Avenue</title></path><path d="M132.8,12.6 L139.6,21.4 L163.8,49.0 L171.0,57.4 L175.4,62.6 L219.9,113.9 L225.6,120.7 L230.9,127.2 L274.5,177.2 L281.4,185.2 L287.0,192.2 L331.1,244.9" fill="none" stroke="#cec8bb" stroke-width="4.3" stroke-linecap="round" stroke-linejoin="round"/><path d="M132.8,12.6 L139.6,21.4 L163.8,49.0 L171.0,57.4 L175.4,62.6 L219.9,113.9 L225.6,120.7 L230.9,127.2 L274.5,177.2 L281.4,185.2 L287.0,192.2 L331.1,244.9" fill="none" stroke="#ffffff" stroke-width="3.2" stroke-linecap="round" stroke-linejoin="round"><title>Washington Street</title></path><path d="M308.2,49.3 L225.6,120.7 L154.6,180.7" fill="none" stroke="#cec8bb" stroke-width="4.3" stroke-linecap="round" stroke-linejoin="round"/><path d="M308.2,49.3 L225.6,120.7 L154.6,180.7" fill="none" stroke="#ffffff" stroke-width="3.2" stroke-linecap="round" stroke-linejoin="round"><title>Inagua Avenue</title></path><path d="M146.3,190.3 L139.4,195.5 L137.5,196.9 L104.7,220.9" fill="none" stroke="#cec8bb" stroke-width="4.3" stroke-linecap="round" stroke-linejoin="round"/><path d="M146.3,190.3 L139.4,195.5 L137.5,196.9 L104.7,220.9" fill="none" stroke="#ffffff" stroke-width="3.2" stroke-linecap="round" stroke-linejoin="round"><title>Inagua Avenue</title></path><path d="M144.7,78.2 L115.4,101.7" fill="none" stroke="#cec8bb" stroke-width="4.3" stroke-linecap="round" stroke-linejoin="round"/><path d="M144.7,78.2 L115.4,101.7" fill="none" stroke="#ffffff" stroke-width="3.2" stroke-linecap="round" stroke-linejoin="round"><title>Abaco Avenue</title></path><path d="M109.9,19.3 L97.8,19.8 L94.2,20.0 L84.1,20.4" fill="none" stroke="#cec8bb" stroke-width="4.3" stroke-linecap="round" stroke-linejoin="round"/><path d="M109.9,19.3 L97.8,19.8 L94.2,20.0 L84.1,20.4" fill="none" stroke="#ffffff" stroke-width="3.2" stroke-linecap="round" stroke-linejoin="round"><title>Andros Avenue</title></path><path d="M99.4,149.6 L101.3,146.9 L102.9,144.2 L103.7,141.9 L104.1,139.3 L104.2,136.3" fill="none" stroke="#cec8bb" stroke-width="4.3" stroke-linecap="round" stroke-linejoin="round"/><path d="M99.4,149.6 L101.3,146.9 L102.9,144.2 L103.7,141.9 L104.1,139.3 L104.2,136.3" fill="none" stroke="#ffffff" stroke-width="3.2" stroke-linecap="round" stroke-linejoin="round"><title>Abaco Avenue</title></path><path d="M103.6,117.9 L106.3,114.6 L107.5,112.3 L109.0,110.0 L110.8,107.8 L113.4,105.2 L115.4,101.7" fill="none" stroke="#cec8bb" stroke-width="4.3" stroke-linecap="round" stroke-linejoin="round"/><path d="M103.6,117.9 L106.3,114.6 L107.5,112.3 L109.0,110.0 L110.8,107.8 L113.4,105.2 L115.4,101.7" fill="none" stroke="#ffffff" stroke-width="3.2" stroke-linecap="round" stroke-linejoin="round"></path><path d="M115.4,101.7 L111.4,102.1 L108.0,103.4 L104.2,104.6 L102.0,105.0 L98.6,105.4" fill="none" stroke="#cec8bb" stroke-width="4.3" stroke-linecap="round" stroke-linejoin="round"/><path d="M115.4,101.7 L111.4,102.1 L108.0,103.4 L104.2,104.6 L102.0,105.0 L98.6,105.4" fill="none" stroke="#ffffff" stroke-width="3.2" stroke-linecap="round" stroke-linejoin="round"><title>Abaco Avenue</title></path><path d="M98.6,105.4 L96.4,104.4 L92.0,103.2 L87.7,102.2" fill="none" stroke="#cec8bb" stroke-width="4.3" stroke-linecap="round" stroke-linejoin="round"/><path d="M98.6,105.4 L96.4,104.4 L92.0,103.2 L87.7,102.2" fill="none" stroke="#ffffff" stroke-width="3.2" stroke-linecap="round" stroke-linejoin="round"><title>Abaco Avenue</title></path><path d="M104.2,136.3 L103.9,130.1 L103.6,117.9" fill="none" stroke="#cec8bb" stroke-width="4.3" stroke-linecap="round" stroke-linejoin="round"/><path d="M104.2,136.3 L103.9,130.1 L103.6,117.9" fill="none" stroke="#ffffff" stroke-width="3.2" stroke-linecap="round" stroke-linejoin="round"><title>Abaco Avenue</title></path><path d="M103.6,117.9 L102.9,113.9 L102.5,111.6 L101.8,109.4 L100.7,107.6 L98.6,105.4" fill="none" stroke="#cec8bb" stroke-width="4.3" stroke-linecap="round" stroke-linejoin="round"/><path d="M103.6,117.9 L102.9,113.9 L102.5,111.6 L101.8,109.4 L100.7,107.6 L98.6,105.4" fill="none" stroke="#ffffff" stroke-width="3.2" stroke-linecap="round" stroke-linejoin="round"><title>Abaco Avenue</title></path><path d="M84.1,20.4 L77.1,20.7" fill="none" stroke="#cec8bb" stroke-width="4.3" stroke-linecap="round" stroke-linejoin="round"/><path d="M84.1,20.4 L77.1,20.7" fill="none" stroke="#ffffff" stroke-width="3.2" stroke-linecap="round" stroke-linejoin="round"><title>Coconut Avenue</title></path><path d="M77.1,20.7 L68.2,21.1 L66.1,21.2 L18.0,22.6" fill="none" stroke="#cec8bb" stroke-width="4.3" stroke-linecap="round" stroke-linejoin="round"/><path d="M77.1,20.7 L68.2,21.1 L66.1,21.2 L18.0,22.6" fill="none" stroke="#ffffff" stroke-width="3.2" stroke-linecap="round" stroke-linejoin="round"><title>Coconut Avenue</title></path><path d="M89.1,151.4 L94.0,150.9 L94.5,150.9 L97.0,150.4 L99.4,149.6" fill="none" stroke="#d1c4aa" stroke-width="4.9" stroke-linecap="round" stroke-linejoin="round"/><path d="M89.1,151.4 L94.0,150.9 L94.5,150.9 L97.0,150.4 L99.4,149.6" fill="none" stroke="#f4d99b" stroke-width="3.5" stroke-linecap="round" stroke-linejoin="round"><title>Aviation Avenue</title></path><path d="M198.8,252.0 L189.3,255.6 L170.1,256.6 L151.4,257.4 L145.1,257.8 L138.7,258.2 L127.5,258.6 L106.5,259.1 L103.0,259.4 L90.3,260.2" fill="none" stroke="#d1c4aa" stroke-width="4.9" stroke-linecap="round" stroke-linejoin="round"/><path d="M198.8,252.0 L189.3,255.6 L170.1,256.6 L151.4,257.4 L145.1,257.8 L138.7,258.2 L127.5,258.6 L106.5,259.1 L103.0,259.4 L90.3,260.2" fill="none" stroke="#f4d99b" stroke-width="3.5" stroke-linecap="round" stroke-linejoin="round"><title>Bird Avenue</title></path><path d="M116.0,154.2 L113.5,147.7 L107.7,140.6 L104.2,136.3" fill="none" stroke="#d1c4aa" stroke-width="4.9" stroke-linecap="round" stroke-linejoin="round"/><path d="M116.0,154.2 L113.5,147.7 L107.7,140.6 L104.2,136.3" fill="none" stroke="#f4d99b" stroke-width="3.5" stroke-linecap="round" stroke-linejoin="round"></path><path d="M99.4,149.6 L103.3,149.7 L105.6,150.1 L108.3,151.0 L110.9,152.3 L116.0,154.2" fill="none" stroke="#d1c4aa" stroke-width="4.9" stroke-linecap="round" stroke-linejoin="round"/><path d="M99.4,149.6 L103.3,149.7 L105.6,150.1 L108.3,151.0 L110.9,152.3 L116.0,154.2" fill="none" stroke="#f4d99b" stroke-width="3.5" stroke-linecap="round" stroke-linejoin="round"><title>Aviation Avenue</title></path><path d="M116.0,154.2 L117.5,155.8 L138.7,181.3 L146.3,190.3 L156.9,202.7 L188.0,239.2 L198.8,252.0" fill="none" stroke="#d1c4aa" stroke-width="4.9" stroke-linecap="round" stroke-linejoin="round"/><path d="M116.0,154.2 L117.5,155.8 L138.7,181.3 L146.3,190.3 L156.9,202.7 L188.0,239.2 L198.8,252.0" fill="none" stroke="#f4d99b" stroke-width="3.5" stroke-linecap="round" stroke-linejoin="round"><title>Aviation Avenue</title></path><path d="M198.8,252.0 L207.2,262.3 L207.4,262.5 L257.7,320.0" fill="none" stroke="#d1c4aa" stroke-width="4.9" stroke-linecap="round" stroke-linejoin="round"/><path d="M198.8,252.0 L207.2,262.3 L207.4,262.5 L257.7,320.0" fill="none" stroke="#f4d99b" stroke-width="3.5" stroke-linecap="round" stroke-linejoin="round"><title>Aviation Avenue</title></path><path d="M90.3,260.2 L89.8,247.1 L89.7,243.7 L89.2,230.4 L88.9,223.6 L88.6,214.4" fill="none" stroke="#d1c4aa" stroke-width="5.8" stroke-linecap="round" stroke-linejoin="round"/><path d="M90.3,260.2 L89.8,247.1 L89.7,243.7 L89.2,230.4 L88.9,223.6 L88.6,214.4" fill="none" stroke="#f1c77d" stroke-width="4.4" stroke-linecap="round" stroke-linejoin="round"><title>Southwest 27th Avenue</title></path><path d="M86.8,174.4 L89.5,167.7 L89.1,151.4 L88.5,128.0 L87.7,102.2 L85.7,54.0" fill="none" stroke="#d1c4aa" stroke-width="5.8" stroke-linecap="round" stroke-linejoin="round"/><path d="M86.8,174.4 L89.5,167.7 L89.1,151.4 L88.5,128.0 L87.7,102.2 L85.7,54.0" fill="none" stroke="#f1c77d" stroke-width="4.4" stroke-linecap="round" stroke-linejoin="round"><title>Southwest 27th Avenue</title></path><path d="M77.1,20.7 L77.3,26.8 L78.2,53.1 L80.2,113.2" fill="none" stroke="#d1c4aa" stroke-width="5.8" stroke-linecap="round" stroke-linejoin="round"/><path d="M77.1,20.7 L77.3,26.8 L78.2,53.1 L80.2,113.2" fill="none" stroke="#f1c77d" stroke-width="4.4" stroke-linecap="round" stroke-linejoin="round"><title>Southwest 27th Avenue</title></path><path d="M81.4,142.0 L84.0,148.2 L86.7,150.5 L89.1,151.4" fill="none" stroke="#d1c4aa" stroke-width="4.9" stroke-linecap="round" stroke-linejoin="round"/><path d="M81.4,142.0 L84.0,148.2 L86.7,150.5 L89.1,151.4" fill="none" stroke="#f1c77d" stroke-width="3.5" stroke-linecap="round" stroke-linejoin="round"></path><path d="M85.7,54.0 L85.1,33.9 L84.1,20.4" fill="none" stroke="#d1c4aa" stroke-width="5.8" stroke-linecap="round" stroke-linejoin="round"/><path d="M85.7,54.0 L85.1,33.9 L84.1,20.4" fill="none" stroke="#f1c77d" stroke-width="4.4" stroke-linecap="round" stroke-linejoin="round"><title>Southwest 27th Avenue</title></path><path d="M81.4,142.0 L82.7,167.6 L86.8,174.4" fill="none" stroke="#d1c4aa" stroke-width="5.8" stroke-linecap="round" stroke-linejoin="round"/><path d="M81.4,142.0 L82.7,167.6 L86.8,174.4" fill="none" stroke="#f1c77d" stroke-width="4.4" stroke-linecap="round" stroke-linejoin="round"><title>Southwest 27th Avenue</title></path><path d="M80.2,113.2 L80.5,122.8 L81.4,142.0" fill="none" stroke="#d1c4aa" stroke-width="5.8" stroke-linecap="round" stroke-linejoin="round"/><path d="M80.2,113.2 L80.5,122.8 L81.4,142.0" fill="none" stroke="#f1c77d" stroke-width="4.4" stroke-linecap="round" stroke-linejoin="round"><title>Southwest 27th Avenue</title></path><path d="M88.1,201.6 L86.8,174.4" fill="none" stroke="#d1c4aa" stroke-width="5.8" stroke-linecap="round" stroke-linejoin="round"/><path d="M88.1,201.6 L86.8,174.4" fill="none" stroke="#f1c77d" stroke-width="4.4" stroke-linecap="round" stroke-linejoin="round"><title>Southwest 27th Avenue</title></path><path d="M88.6,214.4 L88.1,201.6" fill="none" stroke="#d1c4aa" stroke-width="5.8" stroke-linecap="round" stroke-linejoin="round"/><path d="M88.6,214.4 L88.1,201.6" fill="none" stroke="#f1c77d" stroke-width="4.4" stroke-linecap="round" stroke-linejoin="round"><title>Southwest 27th Avenue</title></path><path d="M84.1,20.4 L83.2,10.3 L82.9,6.7 L82.2,-12.1 L79.8,-18.2" fill="none" stroke="#d1c4aa" stroke-width="5.8" stroke-linecap="round" stroke-linejoin="round"/><path d="M84.1,20.4 L83.2,10.3 L82.9,6.7 L82.2,-12.1 L79.8,-18.2" fill="none" stroke="#f1c77d" stroke-width="4.4" stroke-linecap="round" stroke-linejoin="round"><title>Southwest 27th Avenue</title></path><path d="M79.8,-18.2 L76.5,-11.5 L76.9,10.5 L77.1,20.7" fill="none" stroke="#d1c4aa" stroke-width="5.8" stroke-linecap="round" stroke-linejoin="round"/><path d="M79.8,-18.2 L76.5,-11.5 L76.9,10.5 L77.1,20.7" fill="none" stroke="#f1c77d" stroke-width="4.4" stroke-linecap="round" stroke-linejoin="round"><title>Southwest 27th Avenue</title></path><text x="76.4" y="133.3" text-anchor="middle" font-family="Arial, sans-serif" font-size="8" font-weight="600" paint-order="stroke" stroke="#fbf7ed" stroke-width="1.9" stroke-linejoin="round" fill="#514a42" textLength="92.2" lengthAdjust="spacing">Ocean View Heights</text><text x="146.0" y="117.0" text-anchor="middle" font-family="Arial, sans-serif" font-size="6.5" font-weight="600" paint-order="stroke" stroke="#f7edf6" stroke-width="1.45" stroke-linejoin="round" fill="#8f4b9f" textLength="70.7" lengthAdjust="spacing">Watches World LLC</text><text x="194.2" y="36.7" transform="rotate(-41.7 194.2 36.7)" text-anchor="middle" dominant-baseline="central" font-family="Arial, sans-serif" font-size="8.3" textLength="63.7" lengthAdjust="spacing" font-weight="650" paint-order="stroke" stroke="#fffaf0" stroke-width="2.05" stroke-linejoin="round" fill="#695f54">Abaco Avenue</text><text x="190.1" y="150.7" transform="rotate(-40.2 190.1 150.7)" text-anchor="middle" dominant-baseline="central" font-family="Arial, sans-serif" font-size="8.3" textLength="69.1" lengthAdjust="spacing" font-weight="650" paint-order="stroke" stroke="#fffaf0" stroke-width="2.05" stroke-linejoin="round" fill="#695f54">Inagua Avenue</text><text x="65.8" y="243.0" text-anchor="middle" font-family="Arial, sans-serif" font-size="6.5" textLength="18.0" lengthAdjust="spacing" font-weight="500" paint-order="stroke" stroke="#f3f5ee" stroke-width="1.55" stroke-linejoin="round" fill="#6f777a">2988</text><text x="19.2" y="202.3" text-anchor="middle" font-family="Arial, sans-serif" font-size="6.5" textLength="18.0" lengthAdjust="spacing" font-weight="500" paint-order="stroke" stroke="#f3f5ee" stroke-width="1.55" stroke-linejoin="round" fill="#6f777a">2758</text><text x="18.5" y="97.6" text-anchor="middle" font-family="Arial, sans-serif" font-size="6.5" textLength="18.0" lengthAdjust="spacing" font-weight="500" paint-order="stroke" stroke="#f3f5ee" stroke-width="1.55" stroke-linejoin="round" fill="#6f777a">2925</text><text x="22.6" y="117.3" text-anchor="middle" font-family="Arial, sans-serif" font-size="6.5" textLength="18.0" lengthAdjust="spacing" font-weight="500" paint-order="stroke" stroke="#f3f5ee" stroke-width="1.55" stroke-linejoin="round" fill="#6f777a">2929</text><text x="146.5" y="228.9" text-anchor="middle" font-family="Arial, sans-serif" font-size="6.5" textLength="18.0" lengthAdjust="spacing" font-weight="500" paint-order="stroke" stroke="#f3f5ee" stroke-width="1.55" stroke-linejoin="round" fill="#6f777a">3006</text><text x="116.7" y="189.3" text-anchor="middle" font-family="Arial, sans-serif" font-size="6.5" textLength="18.0" lengthAdjust="spacing" font-weight="500" paint-order="stroke" stroke="#f3f5ee" stroke-width="1.55" stroke-linejoin="round" fill="#6f777a">2964</text><text x="15.0" y="222.8" text-anchor="middle" font-family="Arial, sans-serif" font-size="6.5" textLength="18.0" lengthAdjust="spacing" font-weight="500" paint-order="stroke" stroke="#f3f5ee" stroke-width="1.55" stroke-linejoin="round" fill="#6f777a">2779</text><text x="49.1" y="80.5" text-anchor="middle" font-family="Arial, sans-serif" font-size="6.5" textLength="18.0" lengthAdjust="spacing" font-weight="500" paint-order="stroke" stroke="#f3f5ee" stroke-width="1.55" stroke-linejoin="round" fill="#6f777a">2920</text><text x="15.0" y="47.1" text-anchor="middle" font-family="Arial, sans-serif" font-size="6.5" textLength="18.0" lengthAdjust="spacing" font-weight="500" paint-order="stroke" stroke="#f3f5ee" stroke-width="1.55" stroke-linejoin="round" fill="#6f777a">2730</text><text x="27.6" y="158.3" text-anchor="middle" font-family="Arial, sans-serif" font-size="6.5" textLength="18.0" lengthAdjust="spacing" font-weight="500" paint-order="stroke" stroke="#f3f5ee" stroke-width="1.55" stroke-linejoin="round" fill="#6f777a">2753</text><text x="241.0" y="180.0" text-anchor="middle" font-family="Arial, sans-serif" font-size="6.5" textLength="18.0" lengthAdjust="spacing" font-weight="500" paint-order="stroke" stroke="#f3f5ee" stroke-width="1.55" stroke-linejoin="round" fill="#6f777a">2531</text><text x="241.0" y="62.2" text-anchor="middle" font-family="Arial, sans-serif" font-size="6.5" textLength="18.0" lengthAdjust="spacing" font-weight="500" paint-order="stroke" stroke="#f3f5ee" stroke-width="1.55" stroke-linejoin="round" fill="#6f777a">2527</text><text x="141.8" y="54.0" text-anchor="middle" font-family="Arial, sans-serif" font-size="6.5" textLength="18.0" lengthAdjust="spacing" font-weight="500" paint-order="stroke" stroke="#f3f5ee" stroke-width="1.55" stroke-linejoin="round" fill="#6f777a">2920</text><text x="227.1" y="201.5" text-anchor="middle" font-family="Arial, sans-serif" font-size="6.5" textLength="18.0" lengthAdjust="spacing" font-weight="500" paint-order="stroke" stroke="#f3f5ee" stroke-width="1.55" stroke-linejoin="round" fill="#6f777a">2545</text><text x="241.0" y="125.4" text-anchor="middle" font-family="Arial, sans-serif" font-size="6.5" textLength="18.0" lengthAdjust="spacing" font-weight="500" paint-order="stroke" stroke="#f3f5ee" stroke-width="1.55" stroke-linejoin="round" fill="#6f777a">2975</text><text x="241.0" y="17.7" text-anchor="middle" font-family="Arial, sans-serif" font-size="6.5" textLength="18.0" lengthAdjust="spacing" font-weight="500" paint-order="stroke" stroke="#f3f5ee" stroke-width="1.55" stroke-linejoin="round" fill="#6f777a">2512</text><text x="123.8" y="70.6" text-anchor="middle" font-family="Arial, sans-serif" font-size="6.5" textLength="18.0" lengthAdjust="spacing" font-weight="500" paint-order="stroke" stroke="#f3f5ee" stroke-width="1.55" stroke-linejoin="round" fill="#6f777a">2641</text><text x="241.0" y="77.8" text-anchor="middle" font-family="Arial, sans-serif" font-size="6.5" textLength="18.0" lengthAdjust="spacing" font-weight="500" paint-order="stroke" stroke="#f3f5ee" stroke-width="1.55" stroke-linejoin="round" fill="#6f777a">2535</text><text x="216.3" y="86.6" text-anchor="middle" font-family="Arial, sans-serif" font-size="6.5" textLength="18.0" lengthAdjust="spacing" font-weight="500" paint-order="stroke" stroke="#f3f5ee" stroke-width="1.55" stroke-linejoin="round" fill="#6f777a">2965</text><text x="172.9" y="93.2" text-anchor="middle" font-family="Arial, sans-serif" font-size="6.5" textLength="18.0" lengthAdjust="spacing" font-weight="500" paint-order="stroke" stroke="#f3f5ee" stroke-width="1.55" stroke-linejoin="round" fill="#6f777a">2950</text><text x="199.3" y="116.1" text-anchor="middle" font-family="Arial, sans-serif" font-size="6.5" textLength="18.0" lengthAdjust="spacing" font-weight="500" paint-order="stroke" stroke="#f3f5ee" stroke-width="1.55" stroke-linejoin="round" fill="#6f777a">2960</text><text x="181.9" y="195.6" text-anchor="middle" font-family="Arial, sans-serif" font-size="6.5" textLength="18.0" lengthAdjust="spacing" font-weight="500" paint-order="stroke" stroke="#f3f5ee" stroke-width="1.55" stroke-linejoin="round" fill="#6f777a">2975</text><text x="241.0" y="238.7" text-anchor="middle" font-family="Arial, sans-serif" font-size="6.5" textLength="18.0" lengthAdjust="spacing" font-weight="500" paint-order="stroke" stroke="#f3f5ee" stroke-width="1.55" stroke-linejoin="round" fill="#6f777a">2544</text><text x="99.6" y="88.6" text-anchor="middle" font-family="Arial, sans-serif" font-size="6.5" textLength="18.0" lengthAdjust="spacing" font-weight="500" paint-order="stroke" stroke="#f3f5ee" stroke-width="1.55" stroke-linejoin="round" fill="#6f777a">2921</text><text x="41.9" y="50.8" text-anchor="middle" font-family="Arial, sans-serif" font-size="6.5" textLength="18.0" lengthAdjust="spacing" font-weight="500" paint-order="stroke" stroke="#f3f5ee" stroke-width="1.55" stroke-linejoin="round" fill="#6f777a">2908</text><text x="35.4" y="228.8" text-anchor="middle" font-family="Arial, sans-serif" font-size="6.5" textLength="18.0" lengthAdjust="spacing" font-weight="500" paint-order="stroke" stroke="#f3f5ee" stroke-width="1.55" stroke-linejoin="round" fill="#6f777a">2721</text><text x="45.3" y="197.5" text-anchor="middle" font-family="Arial, sans-serif" font-size="6.5" textLength="18.0" lengthAdjust="spacing" font-weight="500" paint-order="stroke" stroke="#f3f5ee" stroke-width="1.55" stroke-linejoin="round" fill="#6f777a">2730</text><text x="49.4" y="32.8" text-anchor="middle" font-family="Arial, sans-serif" font-size="6.5" textLength="18.0" lengthAdjust="spacing" font-weight="500" paint-order="stroke" stroke="#f3f5ee" stroke-width="1.55" stroke-linejoin="round" fill="#6f777a">2700</text><text x="60.6" y="219.8" text-anchor="middle" font-family="Arial, sans-serif" font-size="6.5" textLength="18.0" lengthAdjust="spacing" font-weight="500" paint-order="stroke" stroke="#f3f5ee" stroke-width="1.55" stroke-linejoin="round" fill="#6f777a">2970</text><text x="99.3" y="16.5" text-anchor="middle" font-family="Arial, sans-serif" font-size="6.5" textLength="18.0" lengthAdjust="spacing" font-weight="500" paint-order="stroke" stroke="#f3f5ee" stroke-width="1.55" stroke-linejoin="round" fill="#6f777a">2869</text><text x="117.7" y="237.5" text-anchor="middle" font-family="Arial, sans-serif" font-size="6.5" textLength="18.0" lengthAdjust="spacing" font-weight="500" paint-order="stroke" stroke="#f3f5ee" stroke-width="1.55" stroke-linejoin="round" fill="#6f777a">2695</text><text x="204.9" y="227.9" text-anchor="middle" font-family="Arial, sans-serif" font-size="6.5" textLength="18.0" lengthAdjust="spacing" font-weight="500" paint-order="stroke" stroke="#f3f5ee" stroke-width="1.55" stroke-linejoin="round" fill="#6f777a">2555</text><g><title>Southwest 27th Avenue &amp; Coconut Avenue</title><rect x="70.1" y="50.0" width="6.9" height="6.1" rx="1.3" fill="#2796c9" stroke="#ffffff" stroke-width="1.05"/><rect x="71.3" y="51.2" width="4.4" height="2.1" rx="0.35" fill="#ffffff"/><circle cx="71.6" cy="55.0" r="0.5" fill="#ffffff"/><circle cx="75.4" cy="55.0" r="0.5" fill="#ffffff"/></g><g><title>Southwest 27th Avenue &amp; Coconut Avenue</title><rect x="87.0" y="30.8" width="6.9" height="6.1" rx="1.3" fill="#2796c9" stroke="#ffffff" stroke-width="1.05"/><rect x="88.2" y="32.1" width="4.4" height="2.1" rx="0.35" fill="#ffffff"/><circle cx="88.5" cy="35.8" r="0.5" fill="#ffffff"/><circle cx="92.3" cy="35.8" r="0.5" fill="#ffffff"/></g><g><title>signal</title><rect x="87.0" y="238.5" width="5.4" height="10.4" rx="2.1" fill="#3f4b52" stroke="#ffffff" stroke-width="1.1"/><circle cx="89.7" cy="240.9" r="1.1" fill="#d85a4f"/><circle cx="89.7" cy="243.7" r="1.1" fill="#e2b84b"/><circle cx="89.7" cy="246.5" r="1.1" fill="#55a86b"/></g><g><title>Bid Daddy&#x27;s Wine &amp; Liquors</title><circle cx="67.3" cy="241.2" r="4.6" fill="#a34ab4" stroke="#ffffff" stroke-width="1.7"/><path d="M64.8,240.3 H69.9 V244.0 H64.8 Z" stroke="#ffffff" stroke-width="1.10" stroke-linejoin="round" fill="none"/><path d="M66.1,240.3 C66.2,238.1 68.5,238.1 68.6,240.3" stroke="#ffffff" stroke-width="1.10" stroke-linecap="round" fill="none"/></g><g><title>Watches World LLC</title><circle cx="146.0" cy="117.0" r="4.6" fill="#a34ab4" stroke="#ffffff" stroke-width="1.7"/><path d="M143.4,116.1 H148.5 V119.8 H143.4 Z" stroke="#ffffff" stroke-width="1.10" stroke-linejoin="round" fill="none"/><path d="M144.7,116.1 C144.9,113.9 147.1,113.9 147.2,116.1" stroke="#ffffff" stroke-width="1.10" stroke-linecap="round" fill="none"/></g><g opacity="0.56"><title>crossing</title><path d="M72.1,172.9 L76.7,172.9 M72.1,174.7 L76.7,174.7 M72.1,176.5 L76.7,176.5" stroke="#ffffff" stroke-width="2.1" stroke-linecap="round"/><path d="M72.1,172.9 L76.7,172.9 M72.1,174.7 L76.7,174.7 M72.1,176.5 L76.7,176.5" stroke="#59656a" stroke-width="0.85" stroke-linecap="round"/></g><g opacity="0.56"><title>crossing</title><path d="M89.8,101.4 L94.3,101.4 M89.8,103.2 L94.3,103.2 M89.8,105.0 L94.3,105.0" stroke="#ffffff" stroke-width="2.1" stroke-linecap="round"/><path d="M89.8,101.4 L94.3,101.4 M89.8,103.2 L94.3,103.2 M89.8,105.0 L94.3,105.0" stroke="#59656a" stroke-width="0.85" stroke-linecap="round"/></g><g opacity="0.56"><title>crossing</title><path d="M81.0,8.5 L85.5,8.5 M81.0,10.3 L85.5,10.3 M81.0,12.1 L85.5,12.1" stroke="#ffffff" stroke-width="2.1" stroke-linecap="round"/><path d="M81.0,8.5 L85.5,8.5 M81.0,10.3 L85.5,10.3 M81.0,12.1 L85.5,12.1" stroke="#59656a" stroke-width="0.85" stroke-linecap="round"/></g><g opacity="0.56"><title>crossing</title><path d="M65.9,19.3 L70.5,19.3 M65.9,21.1 L70.5,21.1 M65.9,22.9 L70.5,22.9" stroke="#ffffff" stroke-width="2.1" stroke-linecap="round"/><path d="M65.9,19.3 L70.5,19.3 M65.9,21.1 L70.5,21.1 M65.9,22.9 L70.5,22.9" stroke="#59656a" stroke-width="0.85" stroke-linecap="round"/></g><g opacity="0.56"><title>crossing</title><path d="M91.7,149.1 L96.3,149.1 M91.7,150.9 L96.3,150.9 M91.7,152.7 L96.3,152.7" stroke="#ffffff" stroke-width="2.1" stroke-linecap="round"/><path d="M91.7,149.1 L96.3,149.1 M91.7,150.9 L96.3,150.9 M91.7,152.7 L96.3,152.7" stroke="#59656a" stroke-width="0.85" stroke-linecap="round"/></g><g opacity="0.56"><title>crossing</title><path d="M137.1,193.7 L141.7,193.7 M137.1,195.5 L141.7,195.5 M137.1,197.3 L141.7,197.3" stroke="#ffffff" stroke-width="2.1" stroke-linecap="round"/><path d="M137.1,193.7 L141.7,193.7 M137.1,195.5 L141.7,195.5 M137.1,197.3 L141.7,197.3" stroke="#59656a" stroke-width="0.85" stroke-linecap="round"/></g></svg>