<svg xmlns="http://www.w3.org/2000/svg" width="256" height="256" viewBox="0 0 256 256"><rect width="256" height="256" fill="#f1efe7"/><path d="M-629.4,1675.7 L-901.5,1474.9 L-923.3,1458.9 L-946.9,1453.8 L-963.5,1439.7 L-976.8,1438.2 L-1019.8,1441.1 L-1019.8,1437.0 L-1022.2,1433.2 L-1026.9,1430.3 L-1120.3,1389.8 L-1126.7,1386.9 L-1132.2,1385.3 L-1139.1,1384.7 L-1146.1,1384.6 L-1169.3,1384.6 L-1175.5,1384.2 L-1181.5,1383.1 L-1187.9,1380.6 L-1195.6,1378.5 L-1201.2,1378.0 L-1217.7,1377.3 L-1223.1,1376.3 L-1230.1,1374.1 L-1237.0,1372.3 L-1243.7,1370.7 L-1248.9,1368.7 L-1255.1,1364.8 L-1260.8,1360.6 L-1266.2,1356.5 L-1270.6,1354.3 L-1274.1,1353.7 L-1277.1,1353.8 L-1280.3,1354.8 L-1284.1,1356.7 L-1287.1,1360.0 L-1291.2,1364.0 L-1295.7,1368.1 L-1300.8,1370.9 L-1307.2,1373.0 L-1312.6,1374.3 L-1319.1,1375.3 L-1329.8,1376.6 L-1356.9,1377.8 L-1379.9,1379.0 L-1389.9,1382.5 L-1410.2,1383.2 L-1412.9,1379.0 L-1415.9,1377.1 L-1419.1,1376.4 L-1441.0,1377.7 L-1450.5,1381.1 L-1462.2,1381.2 L-1470.0,1380.1 L-1476.5,1378.1 L-1500.0,1379.5 L-1562.3,1384.3 L-1576.7,1384.8 L-1581.6,1384.7 L-1585.9,1383.5 L-1591.1,1381.0 L-1594.8,1378.0 L-1611.0,1378.1 L-1624.6,1377.9 L-1628.2,1380.1 L-1646.9,1380.5 L-1649.3,1384.5 L-1651.9,1384.6 L-1656.5,1383.5 L-1664.8,1382.5 L-1673.2,1382.9 L-1675.9,1383.8 L-1678.5,1383.3 L-1680.3,1381.5 L-1683.4,1379.8 L-1694.7,1379.8 L-1706.2,1380.5 L-1717.0,1386.8 L-1722.4,1389.4 L-1728.4,1390.7 L-1733.5,1391.1 L-1738.1,1390.4 L-1748.5,1385.9 L-1754.5,1384.0 L-1759.7,1383.3 L-1782.0,1383.6 L-1783.4,1380.9 L-1803.1,1381.3 L-1816.7,1383.8 L-1825.7,1384.8 L-1830.5,1385.9 L-1832.3,1384.6 L-1835.8,1384.2 L-1867.6,1381.3 L-1870.3,1382.8 L-1873.7,1383.5 L-1878.1,1383.5 L-1878.1,1381.9 L-1897.9,1378.3 L-1910.3,1375.9 L-1940.4,1365.7 L-1942.1,1368.0 L-1962.2,1361.8 L-1966.4,1360.4 L-1964.3,1353.4 L-1966.7,1352.6 L-1967.2,1351.9 L-1968.5,1351.5 L-1970.3,1351.2 L-1972.5,1350.2 L-1971.7,1349.5 L-1980.6,1342.2 L-1995.4,1328.8 L-2003.4,1321.9 L-2009.1,1315.7 L-2012.2,1311.6 L-2016.9,1305.1 L-2019.6,1300.2 L-2028.0,1289.6 L-2028.8,1289.1 L-2029.4,1289.0 L-2029.9,1289.1 L-2031.1,1289.1 L-2032.1,1288.7 L-2034.1,1287.3 L-2038.4,1285.0 L-2040.6,1283.3 L-2043.0,1281.1 L-2046.3,1279.3 L-2051.6,1277.6 L-2057.2,1276.7 L-2061.9,1276.5 L-2060.6,1264.0 L-2059.4,1247.5 L-2054.3,1248.0 L-2049.1,1248.9 L-2042.4,1250.9 L-2037.4,1252.7 L-2033.0,1254.8 L-2028.7,1256.8 L-2024.7,1259.1 L-2021.3,1261.6 L-2017.0,1265.1 L-2012.4,1268.5 L-2011.3,1269.1 L-2010.4,1269.4 L-1997.7,1268.8 L-1997.6,1271.6 L-1998.4,1272.9 L-2007.8,1273.8 L-2005.4,1278.7 L-2003.8,1278.1 L-2002.2,1279.6 L-2001.3,1281.1 L-2000.5,1282.1 L-1998.5,1284.7 L-1997.8,1287.6 L-1994.7,1291.8 L-1987.5,1296.4 L-1978.6,1300.9 L-1967.9,1307.6 L-1963.0,1309.9 L-1952.7,1315.8 L-1947.9,1318.3 L-1939.0,1321.6 L-1921.6,1326.3 L-1911.4,1328.7 L-1902.1,1329.7 L-1897.2,1330.3 L-1896.1,1330.2 L-1895.6,1329.6 L-1895.4,1326.3 L-1883.9,1326.2 L-1883.7,1330.0 L-1859.5,1331.2 L-1835.8,1331.9 L-1819.8,1331.3 L-1814.5,1330.9 L-1810.7,1330.4 L-1807.5,1329.5 L-1804.6,1327.8 L-1803.2,1325.4 L-1803.7,1286.7 L-1794.0,1286.1 L-1793.1,1323.9 L-1792.6,1324.9 L-1790.6,1326.2 L-1788.4,1326.9 L-1736.7,1326.9 L-1736.9,1310.3 L-1732.8,1310.2 L-1731.2,1326.9 L-1699.3,1326.7 L-1699.2,1324.9 L-1696.1,1324.8 L-1696.0,1326.1 L-1483.3,1322.1 L-1467.8,1320.2 L-1449.0,1319.7 L-1431.2,1322.0 L-1425.3,1321.5 L-1420.9,1320.7 L-1416.9,1319.2 L-1411.6,1317.3 L-1304.7,1315.3 L-1304.7,1308.0 L-1244.9,1306.9 L-1244.8,1315.1 L-1219.4,1315.9 L-1217.5,1315.9 L-1215.7,1315.8 L-1213.3,1315.4 L-1211.4,1314.9 L-1209.6,1314.4 L-1206.5,1312.9 L-1205.0,1315.4 L-1201.9,1313.4 L-1199.1,1311.1 L-1196.6,1308.6 L-1194.5,1305.6 L-1192.6,1302.0 L-1196.2,1300.0 L-1195.2,1296.9 L-1194.6,1293.7 L-1194.3,1290.7 L-1194.2,1288.4 L-1194.3,1286.2 L-1194.6,1267.2 L-1197.7,1264.5 L-1195.1,1261.7 L-1197.7,1259.4 L-1194.7,1255.8 L-1198.0,1253.0 L-1195.4,1250.3 L-1198.0,1247.7 L-1195.0,1244.5 L-1198.1,1241.3 L-1191.5,1234.1 L-1190.4,1234.1 L-1193.3,1126.8 L-1169.2,1126.2 L-1168.1,1126.8 L-1166.7,1127.8 L-1165.8,1128.7 L-1165.4,1129.7 L-1165.0,1130.9 L-1165.0,1132.1 L-1162.9,1298.7 L-1162.0,1304.2 L-1160.6,1307.8 L-1158.5,1312.3 L-1156.1,1316.7 L-1153.5,1320.2 L-1151.5,1322.3 L-1149.2,1324.1 L-1146.7,1325.6 L-1144.1,1326.6 L-1140.5,1327.6 L-1136.0,1328.5 L-1130.6,1329.5 L-1124.3,1330.6 L-1118.3,1331.9 L-1111.6,1333.1 L-1105.3,1334.5 L-1103.3,1334.9 L-1100.9,1335.3 L-1098.5,1335.6 L-1096.4,1335.7 L-1094.0,1335.7 L-1092.1,1335.6 L-1090.3,1335.3 L-1088.7,1334.9 L-1087.0,1334.3 L-1085.5,1333.7 L-1082.7,1332.3 L-1080.1,1330.8 L-1077.6,1328.9 L-1074.6,1326.1 L-1071.8,1323.0 L-1070.3,1320.4 L-1069.0,1317.1 L-1068.3,1314.4 L-1067.9,1311.6 L-1067.6,1308.9 L-1067.6,1306.4 L-1071.3,1127.8 L-1066.1,1122.4 L-1064.2,1122.2 L-1063.5,1121.5 L-1052.6,1121.3 L-1051.6,1119.6 L-1050.0,1120.1 L-1047.3,1122.7 L-1045.4,1125.3 L-1043.5,1128.6 L-1039.9,1328.2 L-1039.5,1331.7 L-1038.9,1338.7 L-1038.2,1340.0 L-1038.7,1340.4 L-1037.8,1342.3 L-1036.6,1344.6 L-1035.7,1346.1 L-1034.4,1347.9 L-1032.8,1349.8 L-1030.9,1351.7 L-1028.5,1353.7 L-1026.4,1355.3 L-1024.1,1356.6 L-1021.9,1357.6 L-1019.5,1358.4 L-1019.2,1357.7 L-986.1,1369.7 L-982.0,1371.2 L-980.1,1371.9 L-977.1,1373.0 L-975.0,1373.5 L-973.2,1373.8 L-971.4,1373.8 L-969.1,1373.6 L-966.4,1373.3 L-964.2,1372.8 L-961.8,1372.1 L-960.0,1371.4 L-958.2,1370.6 L-956.7,1369.6 L-954.8,1368.3 L-952.4,1366.2 L-950.2,1364.0 L-947.8,1361.0 L-946.1,1358.2 L-944.7,1355.1 L-943.7,1351.7 L-943.1,1348.1 L-942.8,1341.9 L-942.9,1329.1 L-946.6,1126.1 L-946.6,1123.9 L-946.1,1122.3 L-945.4,1121.0 L-944.0,1119.7 L-942.4,1118.9 L-940.5,1118.6 L-925.4,1118.1 L-923.7,1118.4 L-922.0,1119.1 L-920.9,1120.2 L-919.6,1122.1 L-918.8,1124.8 L-918.4,1128.5 L-914.6,1388.9 L-914.4,1390.4 L-914.1,1392.0 L-913.7,1393.6 L-913.2,1395.4 L-912.6,1397.1 L-911.9,1398.7 L-911.2,1400.0 L-910.6,1401.3 L-909.6,1402.7 L-908.6,1404.1 L-907.6,1405.3 L-906.2,1406.8 L-904.8,1408.1 L-903.3,1409.4 L-901.6,1410.6 L-897.0,1413.5 L-896.5,1413.0 L-892.5,1415.2 L-887.7,1417.9 L-884.9,1419.4 L-881.9,1421.2 L-878.7,1423.0 L-875.5,1425.0 L-871.9,1427.3 L-868.2,1429.5 L-864.6,1431.7 L-861.7,1433.5 L-858.3,1435.7 L-854.8,1438.0 L-851.4,1440.2 L-848.2,1442.4 L-848.5,1442.8 L-844.1,1445.9 L-839.6,1448.9 L-838.2,1449.7 L-836.6,1450.6 L-834.5,1451.7 L-832.4,1452.4 L-830.2,1453.0 L-828.2,1453.5 L-826.0,1453.9 L-823.4,1454.1 L-821.2,1454.2 L-819.4,1454.0 L-817.7,1453.7 L-815.7,1453.1 L-813.6,1452.4 L-811.7,1451.8 L-810.0,1451.0 L-808.2,1450.0 L-806.4,1448.9 L-804.7,1447.5 L-803.1,1446.1 L-801.5,1444.5 L-800.1,1442.9 L-798.5,1440.7 L-797.3,1438.5 L-796.1,1436.1 L-795.4,1434.2 L-794.8,1432.2 L-794.5,1430.0 L-794.3,1427.9 L-794.4,1425.4 L-824.1,1141.5 L-822.0,1141.4 L-823.6,1127.1 L-825.2,1127.2 L-826.4,1120.7 L-826.0,1119.3 L-824.7,1117.4 L-822.1,1115.4 L-818.8,1115.0 L-805.3,1114.6 L-803.1,1115.0 L-801.5,1115.7 L-799.9,1117.0 L-798.7,1118.2 L-798.0,1119.5 L-765.5,1437.9 L-764.7,1440.7 L-763.3,1444.1 L-762.1,1446.3 L-760.8,1448.6 L-759.1,1450.9 L-757.7,1452.5 L-756.2,1454.1 L-754.5,1455.5 L-753.0,1456.6 L-750.8,1457.9 L-749.0,1458.9 L-746.5,1459.9 L-744.2,1460.6 L-741.7,1461.2 L-739.6,1461.4 L-737.9,1461.5 L-735.9,1461.5 L-665.2,1460.1 L-662.9,1459.8 L-660.7,1458.7 L-659.2,1457.3 L-658.0,1455.1 L-657.7,1453.1 L-657.7,1451.1 L-693.5,1110.1 L-725.0,1069.0 L-726.4,1070.1 L-753.8,1031.8 L-754.3,1023.8 L-755.1,1022.1 L-756.6,1020.5 L-758.4,1017.9 L-758.6,1014.1 L-761.9,1012.9 L-765.0,1012.8 L-769.2,1014.9 L-764.4,1023.9 L-770.5,1026.8 L-775.1,1022.6 L-778.9,1020.2 L-781.6,1019.3 L-788.1,1019.1 L-791.4,1012.3 L-770.7,1003.8 L-771.6,1002.2 L-776.0,996.2 L-776.7,996.6 L-931.2,794.4 L-933.5,761.0 L-932.3,760.7 L-938.3,699.5 L-940.6,693.9 L-943.0,687.5 L-945.0,682.6 L-947.2,676.4 L-954.8,655.3 L-957.8,656.7 L-962.2,639.7 L-961.5,639.5 L-977.0,597.4 L-978.7,523.7 L-976.9,523.7 L-976.7,517.2 L-975.8,510.9 L-975.5,508.5 L-976.1,506.6 L-974.0,496.5 L-954.8,462.7 L-964.9,456.5 L-957.5,444.2 L-947.7,449.9 L-946.9,448.6 L-943.8,450.1 L-940.5,451.5 L-936.8,452.7 L-933.9,453.3 L-931.2,453.3 L-928.0,452.8 L-924.8,451.7 L-921.7,450.5 L-920.3,449.0 L-919.7,447.0 L-919.0,444.5 L-918.8,443.5 L-918.9,442.2 L-919.6,440.3 L-920.9,438.5 L-922.4,437.4 L-924.6,435.3 L-926.5,433.3 L-929.3,431.5 L-930.5,428.7 L-931.8,425.8 L-933.9,422.5 L-936.4,419.5 L-940.9,416.3 L-962.7,405.0 L-975.6,398.7 L-987.6,392.1 L-999.1,385.8 L-1006.5,381.0 L-1009.3,380.2 L-1012.5,381.2 L-1014.2,383.4 L-1017.8,392.2 L-1039.9,382.3 L-1026.6,361.5 L-1023.8,360.1 L-1020.2,359.4 L-1016.1,360.3 L-933.2,408.8 L-928.7,410.1 L-924.0,411.2 L-917.3,411.4 L-910.6,410.2 L-906.3,408.5 L-901.6,404.7 L-898.9,402.0 L-895.9,397.9 L-895.9,397.3 L-896.1,396.8 L-896.6,396.4 L-923.4,379.8 L-924.1,379.6 L-924.7,379.6 L-925.5,379.6 L-928.0,380.7 L-928.9,380.8 L-930.0,380.7 L-931.6,380.5 L-932.7,380.1 L-934.4,379.3 L-936.1,378.3 L-973.0,355.9 L-990.3,343.6 L-992.0,343.4 L-993.6,343.5 L-995.5,343.5 L-996.9,343.3 L-997.9,342.8 L-999.3,341.8 L-1000.7,340.6 L-1001.7,339.3 L-1002.3,337.8 L-1002.4,336.8 L-1002.3,335.5 L-1002.0,334.3 L-996.1,324.4 L-996.1,323.9 L-996.5,323.6 L-1001.9,319.8 L-1003.0,318.2 L-1002.4,317.3 L-1000.6,317.5 L-998.7,318.1 L-987.6,325.0 L-924.7,365.1 L-923.5,365.8 L-922.6,366.8 L-922.0,367.9 L-921.3,370.2 L-920.8,372.0 L-920.6,373.5 L-892.2,390.6 L-891.2,391.0 L-890.0,391.2 L-888.6,390.9 L-887.6,390.6 L-886.7,390.2 L-856.2,340.7 L-843.4,322.0 L-831.4,308.5 L-825.4,311.8 L-821.5,305.6 L-842.2,293.2 L-837.8,285.9 L-817.1,298.4 L-812.4,290.8 L-816.2,286.6 L-812.4,282.3 L-808.3,287.0 L-807.3,286.2 L-806.2,285.5 L-804.6,284.5 L-802.9,283.7 L-800.9,283.0 L-798.9,282.5 L-796.8,282.1 L-794.7,282.0 L-792.7,282.0 L-790.8,282.3 L-788.9,282.7 L-787.3,283.2 L-786.0,283.8 L-784.1,284.7 L-782.3,285.8 L-780.9,286.9 L-779.4,288.2 L-778.0,289.5 L-776.5,291.5 L-775.5,293.2 L-774.4,295.4 L-773.7,297.7 L-773.1,300.8 L-772.9,303.5 L-773.0,305.1 L-773.2,306.6 L-773.7,309.1 L-775.1,312.3 L-776.0,314.5 L-777.2,317.0 L-772.1,319.6 L-747.8,290.6 L-792.0,263.7 L-789.7,259.0 L-788.2,254.5 L-788.1,252.6 L-785.5,247.1 L-780.3,242.3 L-773.7,237.0 L-766.0,232.0 L-751.5,227.8 L-726.3,225.3 L-716.5,217.3 L-714.4,216.9 L-712.8,216.9 L-710.4,217.8 L-708.2,218.0 L-694.3,226.4 L-657.6,182.9 L-792.1,97.4 L-800.4,110.5 L-818.6,99.1 L-792.8,58.6 L-774.7,69.7 L-782.8,83.5 L-645.9,169.8 L-628.7,147.7 L-616.5,133.2 L-600.4,109.0 L-591.5,96.7 L-592.4,89.8 L-592.2,89.6 L-593.7,84.4 L-594.8,81.3 L-595.8,78.0 L-597.0,75.1 L-599.3,71.3 L-601.6,67.7 L-602.6,65.8 L-603.4,63.9 L-603.9,62.1 L-604.1,60.6 L-604.4,55.5 L-663.4,1.3 L-665.4,3.4 L-667.0,2.0 L-671.8,6.7 L-675.0,2.5 L-671.2,-1.9 L-675.0,-6.7 L-677.6,-6.1 L-680.3,-6.0 L-682.8,-6.4 L-684.9,-7.3 L-687.4,-9.1 L-690.5,-12.2 L-695.9,-18.2 L-697.6,-20.8 L-698.2,-24.0 L-697.8,-27.7 L-696.4,-31.3 L-695.1,-33.7 L-692.7,-36.0 L-690.1,-37.8 L-687.5,-38.8 L-685.6,-39.1 L-683.1,-38.7 L-680.6,-37.7 L-678.2,-35.9 L-672.6,-30.8 L-669.8,-28.1 L-667.1,-25.3 L-666.3,-23.9 L-665.7,-22.5 L-665.4,-21.2 L-665.1,-19.4 L-665.4,-17.7 L-665.9,-16.1 L-666.6,-14.9 L-666.8,-14.4 L-666.7,-13.7 L-666.2,-12.9 L-602.8,46.5 L-600.6,48.0 L-599.1,48.7 L-596.8,48.2 L-594.3,47.9 L-591.0,49.4 L-587.6,51.4 L-581.2,55.1 L-578.5,56.3 L-576.1,53.9 L-573.4,51.4 L-571.5,49.3 L-568.5,45.4 L-566.8,43.1 L-565.1,40.1 L-563.9,37.6 L-562.6,34.9 L-561.5,32.0 L-560.5,29.2 L-559.8,26.7 L-559.1,23.6 L-558.9,21.8 L-558.6,20.3 L-558.3,17.6 L-558.0,15.0 L-557.8,13.3 L-557.7,11.4 L-557.7,9.3 L-557.8,7.5 L-558.2,5.0 L-558.5,2.1 L-558.9,-0.5 L-559.2,-2.6 L-559.5,-4.3 L-559.9,-5.9 L-560.3,-7.7 L-560.9,-9.6 L-561.6,-11.6 L-562.1,-12.9 L-562.7,-14.1 L-563.5,-15.2 L-564.7,-16.9 L-565.9,-18.4 L-567.3,-19.7 L-569.0,-21.1 L-570.7,-22.2 L-572.5,-23.1 L-574.1,-23.8 L-575.2,-24.1 L-576.5,-24.3 L-577.9,-24.2 L-579.3,-23.9 L-580.4,-23.5 L-581.5,-22.7 L-582.3,-21.9 L-582.9,-21.1 L-583.3,-20.0 L-583.6,-18.7 L-583.5,-17.3 L-583.4,-15.5 L-583.4,-14.2 L-583.5,-12.9 L-583.7,-11.6 L-584.0,-10.5 L-584.4,-9.2 L-585.1,-7.9 L-585.9,-6.7 L-586.8,-5.6 L-587.7,-4.7 L-589.3,-3.4 L-590.8,-2.5 L-592.9,-1.8 L-594.2,-1.5 L-595.7,-1.3 L-597.1,-1.3 L-598.9,-1.3 L-600.2,-1.6 L-602.0,-2.0 L-604.5,-2.7 L-606.6,-3.5 L-608.2,-4.2 L-609.8,-5.1 L-611.2,-6.1 L-612.9,-7.3 L-614.1,-8.4 L-615.2,-9.5 L-616.3,-10.8 L-617.2,-12.0 L-618.0,-13.2 L-618.7,-14.5 L-619.6,-16.3 L-620.2,-18.0 L-620.9,-19.8 L-621.4,-21.2 L-621.7,-22.5 L-622.0,-23.8 L-622.2,-25.9 L-622.3,-27.8 L-622.2,-29.8 L-621.8,-32.5 L-621.1,-35.1 L-620.1,-37.8 L-619.4,-39.0 L-618.8,-39.8 L-613.6,-46.3 L-612.5,-47.7 L-610.9,-48.4 L-609.3,-49.0 L-607.4,-49.4 L-605.3,-49.7 L-603.5,-49.8 L-601.8,-49.7 L-600.0,-49.5 L-597.9,-48.9 L-595.8,-47.8 L-593.9,-46.7 L-592.2,-45.4 L-587.0,-40.6 L-585.8,-40.2 L-585.1,-40.1 L-584.2,-40.2 L-583.7,-40.4 L-583.0,-41.2 L-582.7,-42.0 L-582.6,-43.2 L-582.6,-44.1 L-582.8,-44.6 L-593.3,-55.0 L-579.0,-70.2 L-579.8,-72.1 L-571.6,-80.2 L-555.6,-64.3 L-568.5,-48.0 L-568.5,-47.0 L-567.9,-46.7 L-567.1,-46.8 L-553.1,-64.4 L-548.9,-69.4 L-548.8,-70.5 L-549.2,-71.6 L-549.9,-72.4 L-560.9,-82.8 L-558.2,-86.0 L-560.9,-88.4 L-559.4,-92.1 L-530.8,-120.7 L-521.1,-122.4 L-518.0,-122.8 L-515.1,-123.3 L-513.7,-123.6 L-512.1,-124.4 L-510.3,-125.5 L-508.8,-127.0 L-507.4,-128.7 L-492.8,-149.8 L-492.5,-150.4 L-492.7,-151.1 L-492.9,-151.6 L-493.3,-152.1 L-495.0,-153.1 L-495.4,-153.4 L-495.9,-153.4 L-496.3,-153.1 L-497.2,-152.4 L-509.5,-141.0 L-514.2,-137.6 L-533.7,-157.6 L-531.4,-164.7 L-530.5,-166.8 L-527.5,-172.4 L-523.9,-178.6 L-521.7,-181.0 L-517.9,-185.1 L-513.8,-189.7 L-509.3,-194.4 L-505.4,-197.7 L-503.6,-199.4 L-501.2,-201.1 L-498.9,-202.4 L-495.7,-203.8 L-493.7,-204.5 L-491.7,-205.1 L-490.2,-205.2 L-488.0,-205.1 L-486.1,-204.8 L-484.0,-204.3 L-481.9,-202.6 L-480.7,-200.8 L-479.9,-199.0 L-479.6,-196.3 L-479.8,-192.7 L-480.2,-188.8 L-481.1,-184.9 L-486.2,-173.4 L-491.1,-163.1 L-489.4,-160.3 L-488.5,-159.8 L-487.5,-159.8 L-486.7,-159.9 L-486.0,-160.4 L-482.7,-165.1 L-478.4,-167.3 L-469.8,-190.1 L-469.3,-191.2 L-468.4,-192.2 L-467.5,-192.7 L-466.8,-192.9 L-465.6,-192.9 L-464.4,-192.6 L-458.2,-190.8 L-456.9,-190.6 L-455.6,-190.6 L-454.3,-190.8 L-453.2,-191.2 L-452.3,-191.9 L-451.4,-193.1 L-440.9,-207.1 L-440.4,-208.1 L-440.2,-209.2 L-440.2,-210.3 L-440.4,-211.4 L-440.7,-212.2 L-441.4,-213.0 L-442.1,-213.6 L-443.1,-214.1 L-444.0,-214.4 L-445.0,-214.4 L-445.8,-214.3 L-446.7,-213.9 L-447.4,-213.3 L-448.0,-212.6 L-450.7,-208.2 L-451.3,-207.3 L-452.0,-206.5 L-453.1,-205.6 L-454.0,-205.1 L-455.2,-204.7 L-456.6,-204.5 L-457.4,-204.5 L-458.4,-204.6 L-459.4,-204.8 L-460.2,-205.2 L-468.8,-213.0 L-469.8,-214.2 L-470.5,-215.3 L-471.2,-216.7 L-471.7,-217.8 L-472.0,-219.0 L-472.2,-220.3 L-472.4,-221.9 L-472.4,-223.5 L-472.3,-224.9 L-472.1,-226.0 L-471.8,-227.0 L-471.5,-227.8 L-455.8,-252.7 L-454.8,-254.3 L-454.2,-255.2 L-453.5,-255.6 L-452.4,-256.1 L-451.2,-256.5 L-450.0,-256.6 L-449.3,-256.6 L-448.7,-256.5 L-448.1,-256.3 L-447.3,-256.0 L-446.4,-255.4 L-444.8,-254.0 L-437.7,-247.4 L-436.5,-245.7 L-435.7,-244.0 L-435.1,-242.1 L-434.9,-240.6 L-434.8,-239.0 L-434.8,-237.6 L-434.9,-236.3 L-435.2,-234.9 L-435.5,-234.0 L-436.3,-232.1 L-439.1,-226.9 L-439.5,-225.7 L-439.5,-224.2 L-439.4,-223.1 L-438.9,-222.3 L-438.2,-221.5 L-437.0,-220.6 L-436.0,-220.1 L-434.9,-219.8 L-433.5,-219.8 L-432.4,-220.1 L-431.1,-220.7 L-430.0,-221.7 L-411.5,-247.1 L-417.2,-252.2 L-413.8,-255.9 L-408.7,-251.1 L-398.4,-264.7 L-382.6,-285.7 L-446.0,-346.5 L-459.8,-332.0 L-475.9,-347.3 L-460.3,-364.1 L-462.4,-366.3 L-459.1,-369.3 L-457.1,-367.3 L-446.2,-379.1 L-436.5,-370.1 L-435.4,-362.6 L-394.3,-324.3 L-386.3,-321.2 L-380.0,-323.4 L-367.8,-318.6 L-359.8,-321.6 L-335.8,-350.8 L-334.5,-353.6 L-334.1,-357.3 L-335.2,-360.9 L-336.9,-363.5 L-351.0,-376.6 L-350.9,-380.2 L-348.1,-387.3 L-342.4,-397.7 L-353.5,-404.9 L-349.3,-406.4 L-346.6,-408.2 L-344.0,-411.2 L-340.9,-419.1 L-335.2,-433.6 L-331.5,-437.0 L-366.6,-471.0 L-374.3,-466.2 L-376.1,-465.7 L-377.8,-465.7 L-380.0,-466.0 L-381.8,-466.5 L-383.6,-467.5 L-385.0,-468.8 L-403.2,-486.3 L-406.6,-489.6 L-408.0,-491.4 L-409.3,-493.7 L-409.9,-495.8 L-410.1,-497.8 L-410.1,-499.6 L-409.7,-501.5 L-409.3,-502.9 L-408.7,-504.0 L-407.4,-505.8 L-405.9,-507.6 L-397.7,-516.1 L-335.7,-458.7 L-340.0,-453.9 L-294.0,-410.4 L-241.0,-487.9 L-274.7,-519.4 L-279.0,-515.5 L-341.7,-574.7 L-333.5,-582.4 L-297.4,-548.6 L-293.8,-553.9 L-291.9,-556.5 L-289.3,-559.2 L-286.4,-562.4 L-283.4,-564.3 L-278.6,-568.3 L-273.9,-572.7 L-264.7,-581.3 L-243.0,-605.8 L-239.1,-609.9 L-224.7,-617.2 L-211.1,-627.8 L-209.8,-628.9 L-206.3,-631.6 L-204.8,-633.0 L-203.5,-634.6 L-202.7,-636.2 L-202.1,-637.9 L-201.4,-639.1 L-200.7,-640.5 L-199.4,-642.7 L-198.5,-644.0 L-197.6,-645.2 L-196.0,-646.6 L-194.4,-647.6 L-192.6,-648.7 L-188.5,-650.7 L-184.4,-652.7 L-183.9,-652.8 L-183.2,-652.7 L-182.0,-652.3 L-178.8,-650.7 L-176.3,-649.5 L-175.2,-648.8 L-174.2,-648.0 L-157.4,-632.1 L-156.3,-631.4 L-150.9,-630.0 L-149.1,-629.5 L-147.1,-629.3 L-145.7,-629.4 L-144.5,-629.8 L-143.3,-630.5 L-137.4,-638.9 L-137.4,-640.1 L-137.6,-641.2 L-138.3,-642.3 L-139.2,-643.4 L-143.8,-647.6 L-143.5,-648.3 L-137.6,-660.7 L-127.6,-680.9 L-118.5,-687.6 L-113.3,-692.9 L-109.6,-697.0 L-105.9,-700.9 L-101.6,-704.3 L-99.1,-706.6 L-96.4,-709.1 L-94.4,-711.1 L-93.4,-712.9 L-92.6,-714.3 L-92.1,-715.7 L-91.9,-717.3 L-91.8,-718.8 L-88.7,-721.9 L-84.3,-726.2 L-76.7,-732.3 L-68.9,-738.3 L-65.4,-743.2 L-64.1,-748.3 L-60.2,-750.6 L-55.3,-750.7 L-50.3,-753.7 L-46.0,-761.5 L-46.1,-769.7 L-45.3,-782.3 L-44.0,-784.1 L-43.3,-785.3 L-41.9,-787.6 L-43.7,-792.9 L-41.7,-795.4 L-31.8,-807.7 L-14.7,-827.6 L-11.5,-832.3 L-10.2,-834.7 L-4.8,-842.2 L-3.3,-846.8 L-3.3,-854.1 L-3.5,-861.3 L-3.5,-868.7 L-1.3,-876.9 L2.4,-885.0 L7.7,-892.7 L11.5,-898.4 L16.1,-904.2 L24.9,-914.0 L63.9,-933.3 L69.1,-934.6 L70.4,-931.8 L71.9,-929.1 L72.4,-928.6 L73.2,-929.0 L73.4,-930.9 L72.8,-932.5 L75.0,-933.1 L83.0,-935.5 L93.4,-938.6 L101.8,-941.1 L104.7,-942.0 L101.8,-951.4 L106.9,-952.8 L115.6,-954.0 L116.7,-954.2 L116.7,-954.8 L116.7,-957.0 L124.5,-957.4 L136.8,-957.9 L141.6,-955.5 L153.4,-912.8 L156.1,-910.3 L151.0,-905.0 L155.5,-900.5 L160.0,-896.0 L165.4,-901.5 L265.6,-806.2 L399.4,-949.0 L446.2,-904.3 L448.0,-904.9 L448.7,-904.1 L451.8,-906.0 L454.4,-907.0 L457.2,-908.2 L461.9,-910.7 L464.8,-912.3 L468.3,-914.3 L471.4,-916.3 L474.0,-918.0 L476.4,-919.6 L479.3,-921.7 L482.4,-924.0 L484.9,-926.1 L487.5,-928.3 L490.3,-931.1 L493.1,-933.8 L499.4,-940.4 L503.1,-945.0 L506.9,-949.9 L509.4,-953.5 L511.8,-957.2 L514.6,-962.4 L517.1,-967.5 L519.1,-971.6 L520.8,-975.7 L521.9,-978.5 L523.0,-981.6 L525.8,-984.9 L440.2,-1066.3 L441.3,-1067.5 L451.5,-1078.4 L459.0,-1086.3 L459.7,-1087.1 L481.4,-1066.8 L486.7,-1069.5 L487.3,-1068.8 L538.3,-1095.3 L540.4,-1096.5 L541.8,-1097.6 L543.2,-1098.9 L544.7,-1100.5 L546.3,-1102.7 L547.5,-1104.8 L548.4,-1106.4 L549.0,-1108.5 L549.6,-1110.7 L549.8,-1113.1 L549.8,-1115.9 L549.6,-1118.1 L549.2,-1120.1 L548.5,-1122.4 L532.6,-1168.3 L530.4,-1175.8 L531.0,-1178.4 L492.5,-1188.0 L494.3,-1194.6 L495.8,-1200.6 L507.2,-1245.8 L498.3,-1272.0 L493.2,-1289.0 L491.6,-1293.3 L505.4,-1306.0 L521.0,-1314.3 L521.9,-1313.0 L523.4,-1310.9 L527.0,-1306.3 L527.3,-1306.7 L527.4,-1308.3 L522.6,-1314.9 L531.2,-1321.2 L533.1,-1322.3 L537.7,-1316.4 L538.4,-1315.8 L539.2,-1315.7 L539.6,-1315.8 L539.6,-1316.2 L518.2,-1345.5 L516.6,-1347.2 L514.8,-1349.7 L505.5,-1360.9 L513.4,-1385.6 L519.6,-1391.9 L526.6,-1395.2 L541.6,-1404.1 L544.7,-1407.3 L558.1,-1419.1 L562.4,-1414.6 L574.8,-1401.2 L586.4,-1410.9 L594.1,-1403.5 L601.1,-1396.6 L601.5,-1396.3 L607.4,-1401.4 L615.1,-1393.0 L621.9,-1384.4 L626.8,-1378.7 L627.5,-1378.0 L641.9,-1390.6 L642.6,-1391.2 L639.2,-1395.4 L647.1,-1401.8 L670.8,-1374.1 L691.1,-1387.4 L693.1,-1389.3 L701.9,-1393.0 L703.9,-1395.0 L705.8,-1397.5 L716.6,-1407.1 L714.2,-1410.5 L694.8,-1406.1 L672.6,-1431.3 L675.1,-1433.5 L678.5,-1429.6 L694.2,-1443.1 L710.9,-1424.9 L715.4,-1423.1 L718.0,-1421.5 L721.5,-1417.7 L723.3,-1419.3 L711.2,-1433.0 L718.6,-1439.5 L733.6,-1421.5 L735.5,-1422.9 L735.3,-1423.3 L768.1,-1447.0 L777.8,-1454.2 L746.0,-1494.0 L752.8,-1498.7 L780.5,-1466.3 L800.9,-1462.6 L814.5,-1470.4 L816.3,-1471.6 L816.2,-1473.1 L815.3,-1474.9 L825.9,-1481.5 L828.9,-1478.4 L837.9,-1483.7 L831.4,-1491.7 L800.2,-1533.3 L822.2,-1556.2 L836.7,-1577.5 L837.0,-1594.2 L829.3,-1616.4 L845.5,-1629.9 L862.6,-1636.5 L868.1,-1637.7 L872.6,-1638.3 L878.1,-1638.0 L883.9,-1636.6 L892.1,-1629.6 L913.5,-1603.4 L930.6,-1581.7 L951.0,-1568.1 L959.1,-1566.8 L966.3,-1565.9 L972.4,-1565.7 L980.2,-1566.2 L988.7,-1567.6 L995.5,-1569.6 L1001.3,-1572.3 L1005.1,-1574.6 L1008.0,-1577.5 L1012.8,-1583.4 L1018.0,-1592.9 L1023.6,-1605.5 L1033.7,-1600.3 L1037.7,-1599.0 L1042.0,-1598.3 L1048.9,-1598.8 L1053.4,-1600.1 L1058.6,-1602.4 L1063.5,-1605.2 L1068.6,-1610.2 L1073.0,-1614.2 L1078.5,-1617.9 L1082.3,-1620.4 L1087.9,-1622.4 L1097.5,-1625.2 L1103.2,-1626.8 L1109.4,-1629.1 L1114.7,-1631.8 L1117.8,-1633.7 L1120.3,-1636.2 L1153.0,-1652.6 L1154.2,-1653.3 L1155.7,-1654.3 L1157.2,-1655.4 L1159.4,-1656.7 L1160.9,-1657.4 L1162.4,-1658.7 L1163.6,-1660.0 L1165.2,-1661.0 L1166.9,-1662.2 L1169.2,-1664.3 L1172.4,-1664.6 L1175.7,-1665.0 L1177.8,-1665.6 L1180.6,-1666.9 L1184.0,-1668.5 L1187.7,-1670.7 L1189.8,-1672.7 L1192.1,-1675.3 L1193.5,-1677.8 L1194.3,-1680.1 L1194.3,-1681.6 L1194.4,-1683.0 L1195.2,-1688.1 L1213.4,-1698.7 L1245.3,-1717.1 L1251.5,-1720.6 L1305.6,-1751.9 L1364.2,-1785.5 L1389.1,-1799.8 L1397.8,-1804.6 L1470.3,-1846.7 L1486.3,-1855.6 L1486.1,-1856.2 L1519.3,-1874.9 L1532.0,-1882.0 L1555.5,-1895.1 L1555.7,-1894.7 L1564.8,-1899.7 L1586.9,-1912.0 L1589.6,-1914.4 L1612.0,-1930.9 L1623.1,-1940.1 L1633.4,-1948.8 L1638.1,-1951.4 L1648.7,-1961.9 L1649.6,-1961.3 L1651.0,-1961.5 L1651.7,-1961.0 L1666.6,-1978.5 L1662.9,-1982.0 L1663.4,-1982.9 L1665.0,-1985.2 L1669.2,-1990.7 L1671.8,-1994.6 L1673.9,-1997.8 L1676.7,-2002.2 L1679.5,-2006.7 L1682.6,-2011.9 L1685.8,-2017.4 L1692.8,-2031.8 L1694.9,-2036.4 L1696.6,-2040.0 L1697.9,-2042.7 L1698.9,-2044.9 L1701.1,-2050.3 L1643.2,-2158.3 L1642.1,-2160.4 L1641.3,-2161.6 L1640.6,-2162.4 L1639.8,-2163.1 L1639.1,-2163.6 L1638.1,-2164.2 L1637.0,-2164.6 L1636.1,-2164.8 L1635.2,-2164.9 L1633.9,-2164.9 L1632.4,-2164.7 L1631.0,-2164.3 L1629.6,-2163.6 L1616.1,-2155.8 L1598.6,-2145.7 L1586.3,-2138.9 L1564.0,-2126.7 L1550.3,-2119.2 L1550.8,-2118.3 L1545.0,-2115.0 L1525.8,-2105.1 L1511.6,-2096.7 L1503.3,-2092.1 L1490.5,-2084.7 L1489.1,-2083.8 L1477.9,-2103.8 L1499.9,-2115.8 L1529.8,-2132.0 L1550.1,-2143.4 L1552.6,-2144.8 L1552.3,-2145.4 L1569.8,-2154.9 L1579.2,-2160.1 L1600.7,-2170.6 L1604.7,-2172.6 L1637.1,-2190.6 L1649.2,-2197.3 L1657.8,-2201.9 L1667.9,-2207.7 L1681.9,-2182.4 L1659.9,-2170.4 L1658.8,-2168.6 L1658.3,-2166.6 L1658.1,-2165.1 L1658.1,-2163.8 L1658.2,-2162.8 L1658.6,-2161.3 L1703.4,-2078.4 L1704.3,-2077.1 L1705.3,-2076.2 L1706.2,-2075.5 L1707.3,-2075.2 L1708.4,-2075.0 L1709.5,-2075.1 L1710.4,-2075.4 L1730.3,-2090.5 L1739.6,-2098.3 L1749.3,-2106.4 L1753.0,-2109.8 L1764.9,-2119.6 L1765.5,-2119.6 L1777.0,-2129.5 L1777.1,-2130.1 L1784.7,-2136.3 L1790.7,-2141.3 L1801.0,-2149.8 L1801.9,-2148.6 L1812.0,-2156.9 L1817.1,-2161.2 L1831.3,-2172.9 L1841.1,-2181.1 L1840.2,-2182.5 L1843.5,-2185.3 L1848.8,-2189.7 L1852.1,-2192.6 L1866.1,-2198.8 L1875.5,-2202.2 L1880.4,-2204.5 L1893.9,-2204.6 L1898.7,-2204.6 L1908.7,-2204.0 L1920.5,-2203.5 L1921.4,-2204.4 L1922.5,-2202.8 L1926.2,-2202.7 L1959.9,-2199.8 L1963.8,-2198.9 L1967.2,-2198.4 L1975.0,-2197.7 L1989.6,-2197.0 L1992.8,-2197.0 L1995.8,-2197.0 L2007.5,-2197.5 L2013.5,-2197.8 L2019.4,-2198.4 L2028.5,-2199.3 L2028.5,-2198.8 L2035.7,-2200.0 L2042.6,-2201.3 L2047.9,-2202.3 L2054.7,-2207.5 L2055.6,-2206.3 L2056.4,-2205.2 L2117.2,-2124.7 L2263.9,-2074.2 L2533.3,-2272.0 L2606.6,-2324.8 L2635.0,-2385.3 L2589.9,-2444.4 L2591.9,-2452.8 L2599.8,-2455.0 L2615.0,-2451.8 L2625.8,-2455.9 L2628.8,-2460.1 L2628.1,-2463.7 L2620.1,-2479.6 L2619.5,-2485.5 L2619.1,-2497.2 L2617.7,-2508.4 L2619.1,-2510.5 L2623.7,-2512.6 L2629.2,-2513.9 L2633.2,-2518.2 L2634.1,-2523.4 L2630.7,-2533.5 L2630.4,-2540.4 L2631.4,-2548.3 L2636.9,-2562.2 L2635.8,-2568.6 L2633.1,-2575.7 L2633.0,-2585.4 L2631.4,-2598.2 L2628.4,-2606.2 L2626.7,-2610.4 L2627.8,-2612.3 L2629.0,-2612.1 L2629.3,-2612.9 L2629.4,-2613.9 L2629.4,-2614.9 L2627.7,-2615.1 L2626.5,-2616.7 L2626.7,-2618.5 L2625.2,-2618.9 L2623.4,-2619.0 L2623.1,-2618.5 L2619.4,-2623.0 L2618.6,-2624.4 L2617.9,-2626.4 L2617.4,-2628.2 L2617.1,-2630.2 L2616.9,-2632.3 L2616.9,-2634.0 L2616.8,-2635.9 L2617.0,-2636.9 L2617.8,-2639.4 L2618.7,-2641.4 L2619.9,-2643.3 L2621.6,-2645.8 L2623.3,-2648.2 L2625.0,-2649.8 L2627.0,-2651.4 L2627.4,-2651.0 L2645.0,-2664.4 L2647.5,-2666.4 L2647.0,-2667.1 L2647.0,-2668.4 L2651.4,-2671.8 L2652.4,-2671.8 L2653.5,-2671.0 L2655.3,-2672.4 L2673.4,-2686.0 L2673.1,-2686.5 L2675.3,-2688.1 L2677.8,-2689.6 L2679.5,-2690.4 L2682.0,-2691.4 L2684.2,-2691.9 L2686.3,-2692.3 L2688.6,-2692.5 L2690.1,-2692.3 L2692.0,-2692.0 L2693.9,-2691.4 L2695.3,-2690.7 L2696.7,-2689.9 L2697.7,-2689.2 L2698.5,-2688.3 L2699.8,-2687.2 L2700.3,-2686.9 L2701.2,-2686.9 L2702.1,-2687.1 L2704.8,-2689.1 L2704.9,-2689.6 L2705.2,-2690.0 L2705.4,-2690.5 L2705.4,-2691.2 L2705.3,-2691.7 L2704.8,-2692.3 L2702.9,-2694.2 L2701.4,-2695.5 L2699.6,-2696.5 L2696.6,-2697.7 L2694.1,-2698.8 L2698.5,-2701.1 L2703.9,-2704.8 L2710.7,-2705.7 L2717.4,-2705.3 L2721.9,-2707.0 L2725.7,-2712.5 L2740.2,-2738.5 L2746.1,-2749.2 L2750.7,-2760.6 L2751.5,-2762.9 L2758.5,-2784.1 L2759.5,-2786.2 L2760.8,-2788.2 L2777.1,-2808.3 L2780.5,-2811.9 L2783.1,-2814.1 L2819.4,-2845.2 L2821.3,-2846.5 L2827.6,-2849.9 L2835.0,-2854.1 L2858.2,-2866.2 L2908.8,-2893.4 L2909.9,-2892.5 L2910.9,-2892.1 L2911.8,-2891.9 L2912.7,-2892.0 L2913.6,-2892.2 L2916.3,-2892.8 L2919.4,-2893.5 L2922.3,-2894.1 L2925.2,-2894.6 L2926.8,-2895.0 L2929.1,-2895.7 L2931.5,-2896.7 L2937.6,-2900.0 L2939.8,-2901.2 L2940.9,-2901.9 L2942.1,-2902.4 L2946.8,-2904.4 L2951.9,-2906.4 L2958.4,-2909.2 L2966.1,-2912.3 L2966.4,-2912.5 L2967.0,-2912.5 L2967.9,-2912.8 L2969.1,-2913.7 L2970.4,-2914.2 L2971.9,-2914.9 L2974.7,-2916.5 L2975.7,-2917.5 L2977.4,-2918.6 L2977.2,-2918.9 L2977.9,-2919.7 L2978.9,-2920.7 L2980.3,-2921.5 L2981.6,-2921.9 L2982.9,-2922.4 L2984.2,-2923.1 L2986.6,-2924.7 L2987.4,-2925.4 L2988.1,-2926.5 L2988.4,-2927.2 L2988.4,-2928.0 L2988.4,-2928.8 L2988.5,-2929.6 L2981.5,-2938.0 L3003.5,-2950.9 L3014.0,-2956.5 L3016.1,-2957.1 L3019.3,-2956.6 L3022.8,-2951.6 L3024.4,-2950.2 L3025.9,-2949.5 L3027.2,-2949.2 L3028.4,-2949.3 L3047.4,-2957.0 L3052.5,-2959.5 L3057.3,-2962.2 L3065.0,-2966.3 L3066.6,-2966.9 L3174.0,-3011.5 L3207.6,-3027.6 L3357.9,-3099.8 L6864.4,-3128.8 L6864.4,1889.0 L-629.4,1889.0 L-629.4,1675.7 Z" fill="#add7e1" stroke="none"><title>Biscayne Bay</title></path></svg>