<svg xmlns="http://www.w3.org/2000/svg" width="256" height="256" viewBox="0 0 256 256"><rect width="256" height="256" fill="#f1efe7"/><path d="M-826.7,197.9 L-962.8,97.5 L-973.6,89.4 L-985.4,86.9 L-993.8,79.9 L-1000.4,79.1 L-1021.9,80.5 L-1021.9,78.5 L-1023.1,76.6 L-1025.5,75.1 L-1072.2,54.9 L-1075.4,53.5 L-1078.1,52.6 L-1081.6,52.4 L-1085.0,52.3 L-1096.7,52.3 L-1099.7,52.1 L-1102.8,51.5 L-1106.0,50.3 L-1109.8,49.3 L-1112.6,49.0 L-1120.8,48.7 L-1123.6,48.1 L-1127.1,47.0 L-1130.5,46.2 L-1133.8,45.4 L-1136.4,44.3 L-1139.6,42.4 L-1142.4,40.3 L-1145.1,38.2 L-1147.3,37.2 L-1149.0,36.8 L-1150.5,36.9 L-1152.2,37.4 L-1154.1,38.4 L-1155.6,40.0 L-1157.6,42.0 L-1159.8,44.1 L-1162.4,45.4 L-1165.6,46.5 L-1168.3,47.1 L-1171.5,47.7 L-1176.9,48.3 L-1190.5,48.9 L-1202.0,49.5 L-1206.9,51.3 L-1217.1,51.6 L-1218.4,49.5 L-1220.0,48.5 L-1221.5,48.2 L-1232.5,48.9 L-1237.3,50.5 L-1243.1,50.6 L-1247.0,50.0 L-1250.2,49.0 L-1262.0,49.7 L-1293.1,52.2 L-1300.3,52.4 L-1302.8,52.3 L-1305.0,51.8 L-1307.5,50.5 L-1309.4,49.0 L-1317.5,49.0 L-1324.3,48.9 L-1326.1,50.0 L-1335.4,50.3 L-1336.6,52.3 L-1338.0,52.3 L-1340.3,51.7 L-1344.4,51.2 L-1348.6,51.5 L-1349.9,51.9 L-1351.2,51.7 L-1352.1,50.8 L-1353.7,49.9 L-1359.4,49.9 L-1365.1,50.2 L-1370.5,53.4 L-1373.2,54.7 L-1376.2,55.4 L-1378.7,55.5 L-1381.0,55.2 L-1386.3,53.0 L-1389.3,52.0 L-1391.8,51.6 L-1403.0,51.8 L-1403.7,50.4 L-1413.6,50.6 L-1420.4,51.9 L-1424.8,52.4 L-1427.3,53.0 L-1428.2,52.3 L-1429.9,52.1 L-1445.8,50.7 L-1447.2,51.4 L-1448.9,51.7 L-1451.0,51.8 L-1451.0,51.0 L-1460.9,49.1 L-1467.1,47.9 L-1482.2,42.9 L-1483.0,44.0 L-1493.1,40.9 L-1495.2,40.2 L-1494.1,36.7 L-1495.3,36.3 L-1495.6,35.9 L-1496.3,35.7 L-1497.1,35.6 L-1498.2,35.1 L-1497.9,34.7 L-1502.3,31.1 L-1509.7,24.4 L-1513.7,20.9 L-1516.5,17.9 L-1518.1,15.8 L-1520.4,12.6 L-1521.8,10.1 L-1526.0,4.8 L-1526.4,4.5 L-1526.7,4.5 L-1527.0,4.5 L-1527.5,4.6 L-1528.0,4.3 L-1529.1,3.6 L-1531.2,2.5 L-1532.3,1.6 L-1533.5,0.6 L-1535.2,-0.4 L-1537.8,-1.2 L-1540.6,-1.7 L-1543.0,-1.7 L-1542.3,-8.0 L-1541.7,-16.3 L-1539.1,-16.0 L-1536.6,-15.6 L-1533.2,-14.5 L-1530.7,-13.6 L-1528.5,-12.6 L-1526.4,-11.6 L-1524.3,-10.4 L-1522.7,-9.2 L-1520.5,-7.5 L-1518.2,-5.8 L-1517.7,-5.4 L-1517.2,-5.3 L-1510.9,-5.6 L-1510.8,-4.2 L-1511.2,-3.6 L-1515.9,-3.1 L-1514.7,-0.7 L-1513.9,-0.9 L-1513.1,-0.2 L-1512.6,0.5 L-1512.3,1.1 L-1511.3,2.4 L-1510.9,3.8 L-1509.4,5.9 L-1505.8,8.2 L-1501.3,10.5 L-1495.9,13.8 L-1493.5,15.0 L-1488.4,17.9 L-1485.9,19.2 L-1481.5,20.8 L-1472.8,23.1 L-1467.7,24.3 L-1463.0,24.8 L-1460.6,25.1 L-1460.0,25.1 L-1459.8,24.8 L-1459.7,23.1 L-1453.9,23.1 L-1453.8,25.0 L-1441.7,25.6 L-1429.9,25.9 L-1421.9,25.6 L-1419.3,25.4 L-1417.3,25.2 L-1415.8,24.7 L-1414.3,23.9 L-1413.6,22.7 L-1413.8,3.3 L-1409.0,3.0 L-1408.6,21.9 L-1408.3,22.4 L-1407.3,23.1 L-1406.2,23.4 L-1380.3,23.5 L-1380.5,15.1 L-1378.4,15.1 L-1377.6,23.5 L-1361.6,23.3 L-1361.6,22.4 L-1360.0,22.4 L-1360.0,23.1 L-1253.6,21.0 L-1245.9,20.1 L-1236.5,19.8 L-1227.6,21.0 L-1224.7,20.8 L-1222.5,20.4 L-1220.4,19.6 L-1217.8,18.6 L-1164.4,17.7 L-1164.4,14.0 L-1134.4,13.4 L-1134.4,17.5 L-1121.7,18.0 L-1120.8,18.0 L-1119.9,17.9 L-1118.7,17.7 L-1117.7,17.5 L-1116.8,17.2 L-1115.2,16.4 L-1114.5,17.7 L-1112.9,16.7 L-1111.5,15.6 L-1110.3,14.3 L-1109.3,12.8 L-1108.3,11.0 L-1110.1,10.0 L-1109.6,8.4 L-1109.3,6.9 L-1109.1,5.4 L-1109.1,4.2 L-1109.2,3.1 L-1109.3,-6.4 L-1110.8,-7.8 L-1109.5,-9.1 L-1110.9,-10.3 L-1109.4,-12.1 L-1111.0,-13.5 L-1109.7,-14.9 L-1111.0,-16.1 L-1109.5,-17.7 L-1111.1,-19.4 L-1107.8,-22.9 L-1107.2,-23.0 L-1108.6,-76.6 L-1096.6,-76.9 L-1096.0,-76.6 L-1095.4,-76.1 L-1094.9,-75.7 L-1094.7,-75.2 L-1094.5,-74.5 L-1094.5,-74.0 L-1093.4,9.4 L-1093.0,12.1 L-1092.3,13.9 L-1091.2,16.1 L-1090.0,18.4 L-1088.8,20.1 L-1087.7,21.2 L-1086.6,22.0 L-1085.3,22.8 L-1084.0,23.3 L-1082.2,23.8 L-1080.0,24.2 L-1077.3,24.7 L-1074.2,25.3 L-1071.2,25.9 L-1067.8,26.6 L-1064.7,27.2 L-1063.7,27.4 L-1062.4,27.7 L-1061.3,27.8 L-1060.2,27.9 L-1059.0,27.9 L-1058.1,27.8 L-1057.2,27.6 L-1056.3,27.4 L-1055.5,27.2 L-1054.8,26.8 L-1053.3,26.1 L-1052.1,25.4 L-1050.8,24.5 L-1049.3,23.1 L-1047.9,21.5 L-1047.2,20.2 L-1046.5,18.5 L-1046.2,17.2 L-1046.0,15.8 L-1045.8,14.4 L-1045.8,13.2 L-1047.7,-76.1 L-1045.0,-78.8 L-1044.1,-78.9 L-1043.7,-79.2 L-1038.3,-79.4 L-1037.8,-80.2 L-1037.0,-79.9 L-1035.6,-78.7 L-1034.7,-77.3 L-1033.7,-75.7 L-1031.9,24.1 L-1031.8,25.9 L-1031.4,29.3 L-1031.1,30.0 L-1031.3,30.2 L-1030.9,31.2 L-1030.3,32.3 L-1029.8,33.1 L-1029.2,33.9 L-1028.4,34.9 L-1027.4,35.9 L-1026.3,36.9 L-1025.2,37.7 L-1024.1,38.3 L-1023.0,38.8 L-1021.8,39.2 L-1021.6,38.8 L-1005.1,44.9 L-1003.0,45.6 L-1002.0,46.0 L-1000.6,46.5 L-999.5,46.8 L-998.6,46.9 L-997.7,46.9 L-996.5,46.8 L-995.2,46.7 L-994.1,46.4 L-992.9,46.1 L-992.0,45.7 L-991.1,45.3 L-990.4,44.8 L-989.4,44.1 L-988.2,43.1 L-987.1,42.0 L-985.9,40.5 L-985.1,39.1 L-984.4,37.5 L-983.8,35.8 L-983.5,34.1 L-983.4,31.0 L-983.5,24.6 L-985.3,-77.0 L-985.3,-78.1 L-985.1,-78.9 L-984.7,-79.5 L-984.0,-80.1 L-983.2,-80.6 L-982.2,-80.7 L-974.7,-80.9 L-973.8,-80.8 L-973.0,-80.5 L-972.5,-79.9 L-971.8,-79.0 L-971.4,-77.6 L-971.2,-75.8 L-969.3,54.5 L-969.2,55.2 L-969.1,56.0 L-968.9,56.8 L-968.6,57.7 L-968.3,58.6 L-967.9,59.3 L-967.6,60.0 L-967.3,60.6 L-966.8,61.4 L-966.3,62.0 L-965.8,62.6 L-965.1,63.4 L-964.4,64.1 L-963.6,64.7 L-962.8,65.3 L-960.5,66.8 L-960.3,66.5 L-958.2,67.6 L-955.8,68.9 L-954.5,69.7 L-952.9,70.6 L-951.4,71.5 L-949.7,72.5 L-947.9,73.6 L-946.1,74.7 L-944.3,75.8 L-942.8,76.8 L-941.2,77.8 L-939.4,79.0 L-937.7,80.1 L-936.1,81.2 L-936.3,81.4 L-934.1,82.9 L-931.8,84.5 L-931.1,84.9 L-930.3,85.3 L-929.2,85.8 L-928.2,86.2 L-927.1,86.5 L-926.1,86.7 L-925.0,86.9 L-923.7,87.1 L-922.6,87.1 L-921.7,87.0 L-920.9,86.8 L-919.9,86.6 L-918.8,86.2 L-917.9,85.9 L-917.0,85.5 L-916.1,85.0 L-915.2,84.5 L-914.3,83.8 L-913.5,83.0 L-912.7,82.2 L-912.0,81.4 L-911.3,80.4 L-910.6,79.3 L-910.1,78.0 L-909.7,77.1 L-909.4,76.1 L-909.2,75.0 L-909.1,73.9 L-909.2,72.7 L-924.0,-69.2 L-923.0,-69.3 L-923.8,-76.4 L-924.6,-76.4 L-925.2,-79.6 L-925.0,-80.3 L-924.4,-81.3 L-923.1,-82.3 L-921.4,-82.5 L-914.7,-82.7 L-913.5,-82.5 L-912.8,-82.1 L-912.0,-81.5 L-911.4,-80.9 L-911.0,-80.3 L-894.7,79.0 L-894.4,80.4 L-893.7,82.0 L-893.1,83.2 L-892.4,84.3 L-891.5,85.5 L-890.8,86.3 L-890.1,87.1 L-889.2,87.7 L-888.5,88.3 L-887.4,89.0 L-886.5,89.4 L-885.3,89.9 L-884.1,90.3 L-882.8,90.6 L-881.8,90.7 L-880.9,90.8 L-879.9,90.8 L-844.6,90.0 L-843.5,89.9 L-842.4,89.4 L-841.6,88.6 L-841.0,87.5 L-840.8,86.6 L-840.9,85.5 L-858.8,-85.0 L-874.5,-105.5 L-875.2,-105.0 L-888.9,-124.1 L-889.2,-128.1 L-889.6,-129.0 L-890.3,-129.7 L-891.2,-131.1 L-891.3,-133.0 L-892.9,-133.6 L-894.5,-133.6 L-896.6,-132.6 L-894.2,-128.1 L-897.2,-126.6 L-899.5,-128.7 L-901.5,-129.9 L-902.8,-130.3 L-906.1,-130.5 L-907.7,-133.8 L-897.3,-138.1 L-897.8,-138.9 L-900.0,-141.9 L-900.4,-141.7 L-977.6,-242.8 L-978.8,-259.5 L-978.1,-259.7 L-981.1,-290.2 L-982.3,-293.1 L-983.5,-296.2 L-984.5,-298.7 L-985.6,-301.8 L-989.4,-312.3 L-990.9,-311.6 L-993.1,-320.2 L-992.8,-320.3 L-1000.5,-341.3 L-1001.4,-378.2 L-1000.5,-378.2 L-1000.4,-381.4 L-999.9,-384.6 L-999.7,-385.8 L-1000.1,-386.7 L-999.0,-391.7 L-989.4,-408.7 L-994.5,-411.7 L-990.7,-417.9 L-985.9,-415.0 L-985.4,-415.7 L-983.9,-414.9 L-982.3,-414.3 L-980.4,-413.7 L-979.0,-413.4 L-977.6,-413.3 L-976.0,-413.6 L-974.4,-414.1 L-972.9,-414.7 L-972.1,-415.5 L-971.9,-416.5 L-971.5,-417.7 L-971.4,-418.2 L-971.5,-418.9 L-971.8,-419.8 L-972.5,-420.8 L-973.2,-421.3 L-974.3,-422.3 L-975.2,-423.3 L-976.6,-424.2 L-977.2,-425.7 L-977.9,-427.1 L-979.0,-428.8 L-980.2,-430.2 L-982.5,-431.8 L-993.3,-437.5 L-999.8,-440.7 L-1005.8,-443.9 L-1011.6,-447.1 L-1015.2,-449.5 L-1016.7,-449.9 L-1018.2,-449.4 L-1019.1,-448.3 L-1020.9,-443.9 L-1031.9,-448.8 L-1025.3,-459.3 L-1023.9,-459.9 L-1022.1,-460.3 L-1020.0,-459.9 L-978.6,-435.6 L-976.4,-435.0 L-974.0,-434.4 L-970.7,-434.3 L-967.3,-434.9 L-965.1,-435.8 L-962.8,-437.7 L-961.4,-439.0 L-959.9,-441.1 L-960.0,-441.3 L-960.1,-441.6 L-960.3,-441.8 L-973.7,-450.1 L-974.0,-450.2 L-974.4,-450.2 L-974.7,-450.2 L-976.0,-449.6 L-976.5,-449.6 L-977.0,-449.6 L-977.8,-449.7 L-978.4,-449.9 L-979.2,-450.3 L-980.0,-450.8 L-998.5,-462.1 L-1007.2,-468.2 L-1008.0,-468.3 L-1008.8,-468.3 L-1009.8,-468.2 L-1010.4,-468.4 L-1011.0,-468.6 L-1011.6,-469.1 L-1012.4,-469.7 L-1012.9,-470.4 L-1013.2,-471.1 L-1013.2,-471.6 L-1013.1,-472.3 L-1013.0,-472.9 L-1010.1,-477.8 L-1010.1,-478.0 L-1010.3,-478.2 L-1013.0,-480.1 L-1013.5,-480.9 L-1013.2,-481.3 L-1012.3,-481.2 L-1011.4,-480.9 L-1005.8,-477.5 L-974.4,-457.5 L-973.7,-457.1 L-973.3,-456.6 L-973.0,-456.1 L-972.6,-454.9 L-972.4,-454.0 L-972.3,-453.2 L-958.1,-444.7 L-957.6,-444.5 L-957.0,-444.4 L-956.3,-444.5 L-955.8,-444.7 L-955.4,-444.9 L-940.1,-469.6 L-933.7,-479.0 L-927.7,-485.7 L-924.7,-484.1 L-922.7,-487.2 L-933.1,-493.4 L-930.9,-497.0 L-920.6,-490.8 L-918.2,-494.6 L-920.1,-496.7 L-918.2,-498.9 L-916.2,-496.5 L-915.6,-496.9 L-915.1,-497.3 L-914.3,-497.7 L-913.4,-498.1 L-912.4,-498.5 L-911.4,-498.8 L-910.4,-498.9 L-909.3,-499.0 L-908.4,-499.0 L-907.4,-498.8 L-906.5,-498.6 L-905.7,-498.4 L-905.0,-498.1 L-904.1,-497.6 L-903.2,-497.1 L-902.4,-496.6 L-901.7,-495.9 L-901.0,-495.3 L-900.3,-494.3 L-899.7,-493.4 L-899.2,-492.3 L-898.9,-491.1 L-898.5,-489.6 L-898.5,-488.3 L-898.5,-487.5 L-898.6,-486.7 L-898.8,-485.5 L-899.5,-483.8 L-900.0,-482.8 L-900.6,-481.5 L-898.0,-480.2 L-885.9,-494.7 L-908.0,-508.1 L-906.9,-510.5 L-906.1,-512.8 L-906.0,-513.7 L-904.7,-516.4 L-902.1,-518.9 L-898.9,-521.5 L-895.0,-524.0 L-887.7,-526.1 L-875.2,-527.4 L-870.2,-531.4 L-869.2,-531.5 L-868.4,-531.6 L-867.2,-531.1 L-866.1,-531.0 L-859.1,-526.8 L-840.8,-548.5 L-908.1,-591.3 L-912.2,-584.7 L-921.3,-590.5 L-908.4,-610.7 L-899.4,-605.1 L-903.4,-598.2 L-835.0,-555.1 L-826.3,-566.2 L-820.3,-573.4 L-812.2,-585.5 L-807.7,-591.6 L-808.2,-595.1 L-808.1,-595.2 L-808.9,-597.8 L-809.4,-599.4 L-809.9,-601.0 L-810.5,-602.5 L-811.7,-604.3 L-812.8,-606.1 L-813.3,-607.1 L-813.7,-608.0 L-814.0,-608.9 L-814.0,-609.7 L-814.2,-612.3 L-843.7,-639.4 L-844.7,-638.3 L-845.5,-639.0 L-847.9,-636.7 L-849.5,-638.8 L-847.6,-640.9 L-849.5,-643.4 L-850.8,-643.0 L-852.2,-643.0 L-853.4,-643.2 L-854.5,-643.6 L-855.7,-644.6 L-857.2,-646.1 L-860.0,-649.1 L-860.8,-650.4 L-861.1,-652.0 L-860.9,-653.9 L-860.2,-655.6 L-859.5,-656.8 L-858.3,-658.0 L-857.0,-658.9 L-855.7,-659.4 L-854.8,-659.5 L-853.6,-659.3 L-852.3,-658.9 L-851.1,-657.9 L-848.3,-655.4 L-846.9,-654.1 L-845.6,-652.6 L-845.1,-652.0 L-844.9,-651.3 L-844.7,-650.6 L-844.6,-649.7 L-844.7,-648.9 L-845.0,-648.1 L-845.3,-647.5 L-845.4,-647.2 L-845.3,-646.8 L-845.1,-646.5 L-813.4,-616.7 L-812.3,-616.0 L-811.5,-615.7 L-810.4,-615.9 L-809.1,-616.0 L-807.5,-615.3 L-805.8,-614.3 L-802.6,-612.5 L-801.2,-611.8 L-800.0,-613.0 L-798.7,-614.3 L-797.8,-615.3 L-796.3,-617.3 L-795.4,-618.5 L-794.5,-619.9 L-793.9,-621.2 L-793.3,-622.5 L-792.8,-624.0 L-792.2,-625.4 L-791.9,-626.7 L-791.6,-628.2 L-791.4,-629.1 L-791.3,-629.9 L-791.2,-631.2 L-791.0,-632.5 L-790.9,-633.4 L-790.8,-634.3 L-790.9,-635.4 L-790.9,-636.3 L-791.1,-637.5 L-791.3,-638.9 L-791.5,-640.2 L-791.6,-641.3 L-791.7,-642.1 L-791.9,-643.0 L-792.1,-643.8 L-792.4,-644.8 L-792.8,-645.8 L-793.0,-646.4 L-793.4,-647.0 L-793.8,-647.6 L-794.4,-648.4 L-795.0,-649.2 L-795.7,-649.9 L-796.5,-650.5 L-797.4,-651.1 L-798.2,-651.6 L-799.0,-651.9 L-799.6,-652.1 L-800.2,-652.1 L-801.0,-652.1 L-801.7,-651.9 L-802.2,-651.7 L-802.7,-651.4 L-803.1,-651.0 L-803.4,-650.6 L-803.7,-650.0 L-803.8,-649.4 L-803.8,-648.6 L-803.7,-647.8 L-803.7,-647.1 L-803.8,-646.4 L-803.9,-645.8 L-804.0,-645.2 L-804.2,-644.6 L-804.6,-644.0 L-805.0,-643.3 L-805.4,-642.8 L-805.8,-642.4 L-806.7,-641.7 L-807.4,-641.2 L-808.5,-640.9 L-809.1,-640.7 L-809.9,-640.6 L-810.5,-640.6 L-811.5,-640.7 L-812.1,-640.8 L-813.0,-641.0 L-814.2,-641.4 L-815.3,-641.8 L-816.1,-642.1 L-816.9,-642.5 L-817.6,-643.0 L-818.4,-643.7 L-819.0,-644.2 L-819.6,-644.7 L-820.1,-645.4 L-820.6,-646.0 L-821.0,-646.6 L-821.4,-647.3 L-821.8,-648.2 L-822.1,-649.0 L-822.5,-649.9 L-822.7,-650.6 L-822.9,-651.3 L-823.0,-651.9 L-823.1,-653.0 L-823.2,-653.9 L-823.1,-654.9 L-822.9,-656.2 L-822.5,-657.5 L-822.1,-658.9 L-821.7,-659.5 L-821.4,-659.9 L-818.8,-663.1 L-818.2,-663.8 L-817.4,-664.2 L-816.6,-664.5 L-815.7,-664.7 L-814.7,-664.8 L-813.8,-664.9 L-812.9,-664.8 L-812.0,-664.7 L-811.0,-664.4 L-809.9,-663.9 L-808.9,-663.4 L-808.1,-662.7 L-805.5,-660.3 L-804.9,-660.1 L-804.5,-660.0 L-804.1,-660.1 L-803.8,-660.2 L-803.5,-660.6 L-803.4,-661.0 L-803.3,-661.6 L-803.3,-662.1 L-803.4,-662.3 L-808.7,-667.5 L-801.5,-675.1 L-801.9,-676.0 L-797.8,-680.1 L-789.8,-672.2 L-796.2,-664.0 L-796.3,-663.5 L-795.9,-663.3 L-795.5,-663.4 L-788.5,-672.2 L-786.5,-674.7 L-786.4,-675.3 L-786.6,-675.8 L-786.9,-676.2 L-792.4,-681.4 L-791.1,-683.0 L-792.5,-684.2 L-791.7,-686.1 L-777.4,-700.4 L-772.5,-701.2 L-771.0,-701.4 L-769.5,-701.6 L-768.9,-701.8 L-768.1,-702.2 L-767.1,-702.8 L-766.4,-703.5 L-765.7,-704.3 L-758.4,-714.9 L-758.3,-715.2 L-758.3,-715.6 L-758.5,-715.8 L-758.6,-716.0 L-759.5,-716.6 L-759.7,-716.7 L-759.9,-716.7 L-760.2,-716.6 L-760.6,-716.2 L-766.7,-710.5 L-769.1,-708.8 L-778.8,-718.8 L-777.7,-722.3 L-777.2,-723.4 L-775.7,-726.2 L-774.0,-729.3 L-772.9,-730.5 L-770.9,-732.6 L-768.9,-734.8 L-766.7,-737.2 L-764.7,-738.8 L-763.8,-739.7 L-762.6,-740.6 L-761.5,-741.2 L-759.9,-741.9 L-758.8,-742.3 L-757.8,-742.5 L-757.1,-742.6 L-756.0,-742.5 L-755.0,-742.4 L-754.0,-742.1 L-753.0,-741.3 L-752.4,-740.4 L-752.0,-739.5 L-751.8,-738.2 L-751.9,-736.4 L-752.1,-734.4 L-752.5,-732.4 L-755.1,-726.7 L-757.5,-721.5 L-756.7,-720.1 L-756.2,-719.9 L-755.8,-719.9 L-755.4,-720.0 L-755.0,-720.2 L-753.4,-722.6 L-751.2,-723.6 L-746.9,-735.0 L-746.6,-735.6 L-746.2,-736.1 L-745.8,-736.3 L-745.4,-736.5 L-744.8,-736.4 L-744.2,-736.3 L-741.1,-735.4 L-740.5,-735.3 L-739.8,-735.3 L-739.1,-735.4 L-738.6,-735.6 L-738.1,-736.0 L-737.7,-736.5 L-732.5,-743.5 L-732.2,-744.1 L-732.1,-744.6 L-732.1,-745.2 L-732.2,-745.7 L-732.4,-746.1 L-732.7,-746.5 L-733.0,-746.8 L-733.5,-747.1 L-734.0,-747.2 L-734.5,-747.2 L-734.9,-747.2 L-735.4,-746.9 L-735.7,-746.7 L-736.0,-746.3 L-737.3,-744.1 L-737.6,-743.7 L-738.0,-743.3 L-738.5,-742.8 L-739.0,-742.6 L-739.6,-742.4 L-740.3,-742.2 L-740.7,-742.2 L-741.2,-742.3 L-741.7,-742.4 L-742.1,-742.6 L-746.4,-746.5 L-746.9,-747.1 L-747.3,-747.6 L-747.6,-748.3 L-747.8,-748.9 L-748.0,-749.5 L-748.1,-750.2 L-748.2,-750.9 L-748.2,-751.8 L-748.1,-752.4 L-748.1,-753.0 L-747.9,-753.5 L-747.7,-753.9 L-739.9,-766.3 L-739.4,-767.2 L-739.1,-767.6 L-738.8,-767.8 L-738.2,-768.1 L-737.6,-768.2 L-737.0,-768.3 L-736.7,-768.3 L-736.4,-768.3 L-736.1,-768.2 L-735.7,-768.0 L-735.2,-767.7 L-734.4,-767.0 L-730.8,-763.7 L-730.2,-762.8 L-729.9,-762.0 L-729.6,-761.0 L-729.5,-760.3 L-729.4,-759.5 L-729.4,-758.8 L-729.5,-758.1 L-729.6,-757.4 L-729.8,-757.0 L-730.1,-756.1 L-731.6,-753.4 L-731.7,-752.8 L-731.7,-752.1 L-731.7,-751.5 L-731.5,-751.1 L-731.1,-750.7 L-730.5,-750.3 L-730.0,-750.0 L-729.4,-749.9 L-728.8,-749.9 L-728.2,-750.1 L-727.6,-750.4 L-727.0,-750.9 L-717.8,-763.6 L-720.6,-766.1 L-718.9,-767.9 L-716.4,-765.5 L-711.2,-772.4 L-703.3,-782.9 L-735.0,-813.3 L-741.9,-806.0 L-750.0,-813.6 L-742.2,-822.0 L-743.2,-823.2 L-741.5,-824.7 L-740.6,-823.7 L-735.1,-829.5 L-730.2,-825.0 L-729.7,-821.3 L-709.2,-802.2 L-705.2,-800.6 L-702.0,-801.7 L-695.9,-799.3 L-691.9,-800.8 L-679.9,-815.4 L-679.2,-816.8 L-679.0,-818.6 L-679.6,-820.5 L-680.4,-821.7 L-687.5,-828.3 L-687.4,-830.1 L-686.0,-833.6 L-683.2,-838.8 L-688.7,-842.4 L-686.7,-843.2 L-685.3,-844.1 L-684.0,-845.6 L-682.4,-849.5 L-679.6,-856.8 L-677.8,-858.5 L-695.3,-875.5 L-699.1,-873.1 L-700.0,-872.9 L-700.9,-872.8 L-702.0,-873.0 L-702.9,-873.2 L-703.8,-873.8 L-704.5,-874.4 L-713.6,-883.1 L-715.3,-884.8 L-716.0,-885.7 L-716.7,-886.8 L-716.9,-887.9 L-717.1,-888.9 L-717.0,-889.8 L-716.9,-890.7 L-716.6,-891.4 L-716.4,-892.0 L-715.7,-892.9 L-714.9,-893.8 L-710.8,-898.1 L-679.8,-869.3 L-682.0,-866.9 L-659.0,-845.2 L-632.5,-884.0 L-649.3,-899.7 L-651.5,-897.8 L-682.9,-927.4 L-678.7,-931.2 L-660.7,-914.3 L-658.9,-916.9 L-657.9,-918.3 L-656.7,-919.6 L-655.2,-921.2 L-653.7,-922.2 L-651.3,-924.2 L-648.9,-926.4 L-644.4,-930.7 L-633.5,-942.9 L-631.5,-944.9 L-624.4,-948.6 L-617.6,-953.9 L-616.9,-954.4 L-615.1,-955.8 L-614.4,-956.5 L-613.7,-957.3 L-613.3,-958.1 L-613.0,-958.9 L-612.7,-959.6 L-612.4,-960.3 L-611.7,-961.3 L-611.3,-962.0 L-610.8,-962.6 L-610.0,-963.3 L-609.2,-963.8 L-608.3,-964.4 L-606.2,-965.3 L-604.2,-966.3 L-603.9,-966.4 L-603.6,-966.3 L-603.0,-966.2 L-601.4,-965.4 L-600.2,-964.8 L-599.6,-964.4 L-599.1,-964.0 L-590.7,-956.0 L-590.2,-955.7 L-587.4,-955.0 L-586.6,-954.8 L-585.6,-954.6 L-584.8,-954.7 L-584.2,-954.9 L-583.7,-955.3 L-580.7,-959.5 L-580.7,-960.0 L-580.8,-960.6 L-581.1,-961.2 L-581.6,-961.7 L-583.9,-963.8 L-583.7,-964.2 L-580.8,-970.4 L-575.8,-980.4 L-571.3,-983.8 L-568.6,-986.4 L-566.8,-988.5 L-564.9,-990.4 L-562.8,-992.2 L-561.5,-993.3 L-560.2,-994.5 L-559.2,-995.6 L-558.7,-996.5 L-558.3,-997.2 L-558.1,-997.8 L-557.9,-998.6 L-557.9,-999.4 L-556.4,-1001.0 L-554.1,-1003.1 L-550.4,-1006.2 L-546.4,-1009.2 L-544.7,-1011.6 L-544.0,-1014.1 L-542.1,-1015.3 L-539.7,-1015.4 L-537.2,-1016.9 L-535.0,-1020.8 L-535.0,-1024.9 L-534.6,-1031.2 L-534.0,-1032.0 L-533.7,-1032.6 L-532.9,-1033.8 L-533.8,-1036.5 L-532.8,-1037.7 L-527.9,-1043.8 L-519.4,-1053.8 L-517.8,-1056.1 L-517.1,-1057.3 L-514.4,-1061.1 L-513.6,-1063.4 L-513.6,-1067.0 L-513.7,-1070.7 L-513.8,-1074.4 L-512.6,-1078.5 L-510.8,-1082.5 L-508.1,-1086.3 L-506.2,-1089.2 L-504.0,-1092.1 L-499.5,-1097.0 L-480.0,-1106.6 L-477.5,-1107.3 L-476.8,-1105.9 L-476.1,-1104.6 L-475.8,-1104.3 L-475.4,-1104.5 L-475.3,-1105.5 L-475.6,-1106.2 L-474.5,-1106.6 L-470.5,-1107.8 L-465.3,-1109.3 L-461.1,-1110.6 L-459.6,-1111.0 L-461.1,-1115.7 L-458.5,-1116.4 L-454.2,-1117.0 L-453.7,-1117.1 L-453.7,-1117.4 L-453.6,-1118.5 L-449.7,-1118.7 L-443.6,-1118.9 L-441.2,-1117.8 L-435.3,-1096.4 L-434.0,-1095.2 L-436.5,-1092.5 L-434.3,-1090.2 L-432.0,-1088.0 L-429.3,-1090.7 L-379.2,-1043.1 L-312.3,-1114.5 L-288.9,-1092.2 L-288.0,-1092.4 L-287.6,-1092.0 L-286.1,-1093.0 L-284.8,-1093.5 L-283.4,-1094.1 L-281.0,-1095.4 L-279.6,-1096.2 L-277.9,-1097.2 L-276.3,-1098.2 L-275.0,-1099.0 L-273.8,-1099.8 L-272.4,-1100.8 L-270.8,-1102.0 L-269.5,-1103.0 L-268.3,-1104.2 L-266.8,-1105.5 L-265.5,-1106.9 L-262.3,-1110.2 L-260.4,-1112.5 L-258.6,-1115.0 L-257.3,-1116.8 L-256.1,-1118.6 L-254.7,-1121.2 L-253.4,-1123.7 L-252.4,-1125.8 L-251.6,-1127.9 L-251.1,-1129.2 L-250.5,-1130.8 L-249.1,-1132.5 L-291.9,-1173.2 L-291.3,-1173.7 L-286.2,-1179.2 L-282.5,-1183.2 L-282.1,-1183.6 L-271.3,-1173.4 L-268.6,-1174.8 L-268.4,-1174.4 L-242.8,-1187.7 L-241.8,-1188.2 L-241.1,-1188.8 L-240.4,-1189.4 L-239.6,-1190.2 L-238.9,-1191.4 L-238.2,-1192.4 L-237.8,-1193.2 L-237.5,-1194.2 L-237.2,-1195.4 L-237.1,-1196.6 L-237.1,-1197.9 L-237.2,-1199.1 L-237.4,-1200.0 L-237.7,-1201.2 L-245.7,-1224.2 L-246.8,-1227.9 L-246.5,-1229.2 L-265.7,-1234.0 L-264.9,-1237.3 L-264.1,-1240.3 L-258.4,-1262.9 L-262.8,-1276.0 L-265.4,-1284.5 L-266.2,-1286.6 L-259.3,-1293.0 L-251.5,-1297.2 L-251.0,-1296.5 L-250.3,-1295.4 L-248.5,-1293.1 L-248.3,-1293.3 L-248.3,-1294.1 L-250.7,-1297.5 L-246.4,-1300.6 L-245.4,-1301.1 L-243.2,-1298.2 L-242.8,-1297.9 L-242.4,-1297.9 L-242.2,-1297.9 L-242.2,-1298.1 L-252.9,-1312.7 L-253.7,-1313.6 L-254.6,-1314.8 L-259.3,-1320.4 L-255.3,-1332.8 L-252.2,-1336.0 L-248.7,-1337.6 L-241.2,-1342.1 L-239.6,-1343.6 L-232.9,-1349.5 L-230.8,-1347.3 L-224.6,-1340.6 L-218.8,-1345.5 L-214.9,-1341.7 L-211.4,-1338.3 L-211.3,-1338.1 L-208.3,-1340.7 L-204.4,-1336.5 L-201.1,-1332.2 L-198.6,-1329.4 L-198.3,-1329.0 L-191.1,-1335.3 L-190.7,-1335.6 L-192.4,-1337.7 L-188.5,-1340.9 L-176.6,-1327.1 L-166.4,-1333.7 L-165.5,-1334.7 L-161.1,-1336.5 L-160.0,-1337.5 L-159.1,-1338.8 L-153.7,-1343.6 L-154.9,-1345.2 L-164.6,-1343.0 L-175.7,-1355.7 L-174.4,-1356.7 L-172.8,-1354.8 L-164.9,-1361.6 L-156.6,-1352.4 L-154.3,-1351.6 L-153.0,-1350.8 L-151.3,-1348.9 L-150.3,-1349.7 L-156.4,-1356.5 L-152.7,-1359.7 L-145.2,-1350.8 L-144.3,-1351.5 L-144.3,-1351.7 L-128.0,-1363.5 L-123.1,-1367.1 L-139.0,-1387.0 L-135.6,-1389.4 L-121.7,-1373.1 L-111.5,-1371.3 L-104.8,-1375.2 L-103.8,-1375.8 L-103.9,-1376.6 L-104.3,-1377.5 L-99.1,-1380.8 L-97.5,-1379.2 L-93.1,-1381.8 L-96.3,-1385.9 L-111.9,-1406.7 L-100.9,-1418.1 L-93.6,-1428.7 L-93.5,-1437.1 L-97.3,-1448.2 L-89.2,-1455.0 L-80.7,-1458.2 L-77.9,-1458.9 L-75.7,-1459.2 L-72.9,-1459.0 L-70.1,-1458.3 L-66.0,-1454.8 L-55.3,-1441.7 L-46.7,-1430.9 L-36.5,-1424.0 L-32.4,-1423.4 L-28.8,-1423.0 L-25.8,-1422.9 L-21.9,-1423.1 L-17.7,-1423.8 L-14.2,-1424.8 L-11.4,-1426.1 L-9.4,-1427.3 L-8.0,-1428.8 L-5.6,-1431.7 L-3.0,-1436.4 L-0.2,-1442.7 L4.8,-1440.2 L6.9,-1439.5 L9.0,-1439.2 L12.4,-1439.4 L14.7,-1440.1 L17.3,-1441.2 L19.7,-1442.6 L22.3,-1445.1 L24.5,-1447.1 L27.3,-1449.0 L29.2,-1450.2 L31.9,-1451.2 L36.8,-1452.6 L39.6,-1453.4 L42.7,-1454.5 L45.3,-1455.9 L46.9,-1456.8 L48.1,-1458.1 L64.5,-1466.3 L65.1,-1466.7 L65.9,-1467.1 L66.6,-1467.7 L67.7,-1468.3 L68.4,-1468.7 L69.2,-1469.3 L69.8,-1470.0 L70.6,-1470.5 L71.5,-1471.1 L72.6,-1472.1 L74.2,-1472.3 L75.8,-1472.5 L76.9,-1472.8 L78.3,-1473.5 L80.0,-1474.2 L81.8,-1475.4 L82.9,-1476.3 L84.0,-1477.7 L84.8,-1478.9 L85.1,-1480.0 L85.2,-1480.8 L85.2,-1481.5 L85.6,-1484.1 L94.7,-1489.3 L110.6,-1498.5 L113.8,-1500.3 L140.8,-1515.9 L170.1,-1532.7 L182.6,-1539.9 L186.9,-1542.3 L223.1,-1563.4 L231.2,-1567.8 L231.0,-1568.1 L247.6,-1577.5 L254.0,-1581.0 L265.8,-1587.5 L265.9,-1587.4 L270.4,-1589.9 L281.5,-1596.0 L282.8,-1597.2 L294.0,-1605.4 L299.6,-1610.0 L304.7,-1614.4 L307.0,-1615.7 L312.4,-1621.0 L312.8,-1620.7 L313.5,-1620.8 L313.9,-1620.5 L321.3,-1629.3 L319.4,-1631.0 L319.7,-1631.5 L320.5,-1632.6 L322.6,-1635.3 L323.9,-1637.3 L324.9,-1638.9 L326.4,-1641.1 L327.7,-1643.4 L329.3,-1645.9 L330.9,-1648.7 L334.4,-1655.9 L335.4,-1658.2 L336.3,-1660.0 L336.9,-1661.4 L337.4,-1662.4 L338.5,-1665.2 L309.6,-1719.2 L309.0,-1720.2 L308.6,-1720.8 L308.3,-1721.2 L307.9,-1721.5 L307.6,-1721.8 L307.0,-1722.1 L306.5,-1722.3 L306.1,-1722.4 L305.6,-1722.5 L305.0,-1722.5 L304.2,-1722.3 L303.5,-1722.1 L302.8,-1721.8 L296.1,-1717.9 L287.3,-1712.9 L281.2,-1709.5 L270.0,-1703.3 L263.1,-1699.6 L263.4,-1699.2 L260.5,-1697.5 L250.9,-1692.6 L243.8,-1688.4 L239.6,-1686.0 L233.3,-1682.4 L232.5,-1681.9 L227.0,-1691.9 L237.9,-1697.9 L252.9,-1706.0 L263.0,-1711.7 L264.3,-1712.4 L264.1,-1712.7 L272.9,-1717.5 L277.6,-1720.0 L288.3,-1725.3 L290.4,-1726.3 L306.5,-1735.3 L312.6,-1738.7 L316.9,-1741.0 L321.9,-1743.9 L328.9,-1731.2 L318.0,-1725.2 L317.4,-1724.3 L317.2,-1723.3 L317.0,-1722.5 L317.0,-1721.9 L317.1,-1721.4 L317.3,-1720.6 L339.7,-1679.2 L340.1,-1678.6 L340.6,-1678.1 L341.1,-1677.8 L341.7,-1677.6 L342.2,-1677.5 L342.8,-1677.5 L343.2,-1677.7 L353.1,-1685.2 L357.8,-1689.1 L362.7,-1693.2 L364.5,-1694.9 L370.4,-1699.8 L370.7,-1699.8 L376.5,-1704.7 L376.5,-1705.1 L380.4,-1708.2 L383.3,-1710.6 L388.5,-1714.9 L389.0,-1714.3 L394.0,-1718.5 L396.6,-1720.6 L403.7,-1726.5 L408.6,-1730.6 L408.1,-1731.3 L409.7,-1732.6 L412.4,-1734.9 L414.1,-1736.3 L421.0,-1739.4 L425.8,-1741.1 L428.2,-1742.2 L435.0,-1742.3 L437.3,-1742.3 L442.4,-1742.0 L448.3,-1741.8 L448.7,-1742.2 L449.3,-1741.4 L451.1,-1741.3 L467.9,-1739.9 L469.9,-1739.5 L471.6,-1739.2 L475.5,-1738.8 L482.8,-1738.5 L484.4,-1738.5 L485.9,-1738.5 L491.7,-1738.7 L494.7,-1738.9 L497.7,-1739.2 L502.3,-1739.6 L502.3,-1739.4 L505.9,-1740.0 L509.3,-1740.6 L511.9,-1741.1 L515.4,-1743.7 L515.8,-1743.2 L516.2,-1742.6 L546.6,-1702.4 L620.0,-1677.1 L754.6,-1776.0 L791.3,-1802.4 L805.5,-1832.7 L783.0,-1862.2 L784.0,-1866.4 L787.9,-1867.5 L795.5,-1865.9 L800.9,-1868.0 L802.4,-1870.1 L802.1,-1871.9 L798.1,-1879.8 L797.8,-1882.7 L797.5,-1888.6 L796.9,-1894.2 L797.5,-1895.2 L799.8,-1896.3 L802.6,-1896.9 L804.6,-1899.1 L805.1,-1901.7 L803.4,-1906.7 L803.2,-1910.2 L803.7,-1914.1 L806.5,-1921.1 L805.9,-1924.3 L804.5,-1927.8 L804.5,-1932.7 L803.7,-1939.1 L802.2,-1943.1 L801.3,-1945.2 L801.9,-1946.1 L802.5,-1946.1 L802.6,-1946.4 L802.7,-1947.0 L802.7,-1947.5 L801.8,-1947.6 L801.3,-1948.3 L801.4,-1949.2 L800.6,-1949.5 L799.7,-1949.5 L799.6,-1949.3 L797.7,-1951.5 L797.3,-1952.2 L796.9,-1953.2 L796.7,-1954.1 L796.6,-1955.1 L796.5,-1956.1 L796.4,-1957.0 L796.4,-1957.9 L796.5,-1958.5 L796.9,-1959.7 L797.4,-1960.7 L797.9,-1961.7 L798.8,-1962.9 L799.6,-1964.1 L800.5,-1964.9 L801.5,-1965.7 L801.7,-1965.5 L810.5,-1972.2 L811.7,-1973.2 L811.5,-1973.6 L811.5,-1974.2 L813.7,-1975.9 L814.2,-1975.9 L814.8,-1975.5 L815.7,-1976.2 L824.7,-1983.0 L824.6,-1983.3 L825.6,-1984.0 L826.9,-1984.8 L827.8,-1985.2 L829.0,-1985.7 L830.1,-1986.0 L831.2,-1986.1 L832.3,-1986.2 L833.0,-1986.2 L834.0,-1986.0 L834.9,-1985.7 L835.6,-1985.4 L836.3,-1984.9 L836.8,-1984.6 L837.3,-1984.2 L837.9,-1983.6 L838.1,-1983.5 L838.6,-1983.5 L839.0,-1983.5 L840.4,-1984.5 L840.4,-1984.8 L840.6,-1985.0 L840.7,-1985.3 L840.7,-1985.6 L840.6,-1985.9 L840.4,-1986.1 L839.4,-1987.1 L838.7,-1987.7 L837.8,-1988.2 L836.3,-1988.9 L835.0,-1989.4 L837.2,-1990.5 L840.0,-1992.4 L843.4,-1992.9 L846.7,-1992.6 L848.9,-1993.5 L850.8,-1996.3 L858.1,-2009.2 L861.1,-2014.6 L863.4,-2020.3 L863.8,-2021.5 L867.2,-2032.0 L867.8,-2033.1 L868.4,-2034.1 L876.5,-2044.1 L878.2,-2045.9 L879.5,-2047.0 L897.7,-2062.6 L898.7,-2063.3 L901.8,-2064.9 L905.5,-2067.0 L917.1,-2073.1 L942.4,-2086.7 L943.0,-2086.2 L943.4,-2086.0 L943.9,-2085.9 L944.3,-2086.0 L944.8,-2086.1 L946.2,-2086.4 L947.7,-2086.7 L949.2,-2087.0 L950.6,-2087.3 L951.4,-2087.5 L952.5,-2087.8 L953.8,-2088.4 L956.8,-2090.0 L957.9,-2090.6 L958.5,-2091.0 L959.0,-2091.2 L961.4,-2092.2 L964.0,-2093.2 L967.2,-2094.6 L971.0,-2096.2 L971.2,-2096.2 L971.5,-2096.3 L972.0,-2096.4 L972.5,-2096.9 L973.2,-2097.1 L974.0,-2097.5 L975.4,-2098.3 L975.9,-2098.8 L976.7,-2099.3 L976.6,-2099.5 L977.0,-2099.9 L977.4,-2100.3 L978.2,-2100.7 L978.8,-2101.0 L979.5,-2101.2 L980.1,-2101.6 L981.3,-2102.3 L981.7,-2102.7 L982.0,-2103.2 L982.2,-2103.6 L982.2,-2104.0 L982.2,-2104.4 L982.2,-2104.8 L978.7,-2109.0 L989.8,-2115.5 L995.0,-2118.2 L996.0,-2118.6 L997.6,-2118.3 L999.4,-2115.8 L1000.2,-2115.1 L1000.9,-2114.8 L1001.6,-2114.6 L1002.2,-2114.6 L1011.7,-2118.5 L1014.2,-2119.8 L1016.6,-2121.1 L1020.5,-2123.1 L1021.3,-2123.4 L1075.0,-2145.8 L1091.8,-2153.8 L1166.9,-2189.9 L2920.2,-2204.4 L2920.2,304.5 L-826.7,304.5 L-826.7,197.9 Z" fill="#add7e1" stroke="none"><title>Biscayne Bay</title></path></svg>