<svg xmlns="http://www.w3.org/2000/svg" width="256" height="256" viewBox="0 0 256 256"><defs><pattern id="park-dots" width="22" height="22" patternUnits="userSpaceOnUse"><circle cx="5" cy="5" r="2.1" fill="#63a95d" fill-opacity="0.26"/><circle cx="16" cy="7" r="1.55" fill="#76b970" fill-opacity="0.23"/><circle cx="10" cy="17" r="1.9" fill="#61a65b" fill-opacity="0.24"/><circle cx="21" cy="17" r="1.25" fill="#80c174" fill-opacity="0.18"/><circle cx="1" cy="19" r="1.2" fill="#70b46a" fill-opacity="0.17"/></pattern><pattern id="park-canopy" width="54" height="48" patternUnits="userSpaceOnUse"><circle cx="12" cy="11" r="3.6" fill="#5ea75a" fill-opacity="0.22"/><circle cx="31" cy="15" r="2.9" fill="#75ba6d" fill-opacity="0.18"/><circle cx="45" cy="31" r="3.3" fill="#67ae62" fill-opacity="0.20"/><circle cx="19" cy="39" r="2.5" fill="#83c378" fill-opacity="0.16"/></pattern></defs><rect width="256" height="256" fill="#f1efe7"/><path d="M112.5,28.1 L115.8,27.9 L117.5,27.7 L118.6,27.8 L119.8,28.3 L120.8,28.9 L121.0,28.9 L121.6,28.5 L121.9,28.9 L121.3,29.4 L121.2,29.8 L121.4,30.1 L121.9,30.9 L122.3,32.2 L122.3,33.4 L122.2,34.5 L122.9,35.0 L122.7,36.2 L122.2,37.5 L121.3,38.9 L119.8,40.4 L118.2,41.6 L117.3,42.0 L116.2,42.3 L115.5,42.3 L115.2,42.3 L115.0,42.6 L114.8,43.4 L115.5,44.1 L113.7,44.1 L114.3,43.4 L114.4,42.6 L114.2,42.2 L113.8,42.1 L113.4,42.1 L111.8,40.5 L109.8,38.8 L108.7,37.1 L108.0,35.0 L107.5,34.1 L107.6,33.1 L107.9,32.4 L108.2,31.3 L108.6,29.7 L109.1,28.5 L110.2,28.2 L112.5,28.1 Z" fill="#add7e1" stroke="none"></path><path d="M53.6,28.8 L70.5,35.0 L53.6,28.8 Z" fill="#e8ecec" stroke="#d7d1c5" stroke-width="0.3"></path><path d="M89.8,16.1 L92.8,12.2 L99.4,17.0 L96.7,20.9 L90.4,16.8 L89.8,16.1 Z" fill="#e8ecec" stroke="#d7d1c5" stroke-width="0.3"></path><path d="M93.6,7.9 L107.9,19.0 L93.6,7.9 Z" fill="#e8ecec" stroke="#d7d1c5" stroke-width="0.3"></path><path d="M-116.7,126.3 L-115.7,163.1 L-151.3,164.2 L-155.9,190.8 L-157.7,197.6 L-160.9,204.9 L-165.3,211.3 L-170.7,216.8 L-178.7,222.3 L-182.3,223.9 L-140.6,222.6 L-140.1,270.4 L-135.3,270.4 L-134.2,318.9 L-133.6,326.5 L-133.3,366.5 L-132.4,367.2 L5.5,368.7 L9.4,265.2 L41.1,161.2 L78.0,86.3 L81.1,68.1 L75.2,67.3 L72.2,68.0 L64.0,65.5 L60.8,53.0 L58.2,44.6 L46.9,33.6 L45.8,31.4 L42.7,28.7 L35.0,40.2 L28.5,49.4 L17.3,85.4 L7.2,105.2 L-4.9,115.6 L-11.3,120.6 L-23.5,122.6 L-24.0,124.2 L-51.3,124.7 L-70.5,125.5 L-69.6,174.4 L-93.0,174.7 L-93.8,125.6 L-116.7,126.3 Z" fill="#c4e7bd" stroke="#9fcf91" stroke-width="0.4"><title>R Hardy Matheson County Preserve</title></path><path d="M-116.7,126.3 L-115.7,163.1 L-151.3,164.2 L-155.9,190.8 L-157.7,197.6 L-160.9,204.9 L-165.3,211.3 L-170.7,216.8 L-178.7,222.3 L-182.3,223.9 L-140.6,222.6 L-140.1,270.4 L-135.3,270.4 L-134.2,318.9 L-133.6,326.5 L-133.3,366.5 L-132.4,367.2 L5.5,368.7 L9.4,265.2 L41.1,161.2 L78.0,86.3 L81.1,68.1 L75.2,67.3 L72.2,68.0 L64.0,65.5 L60.8,53.0 L58.2,44.6 L46.9,33.6 L45.8,31.4 L42.7,28.7 L35.0,40.2 L28.5,49.4 L17.3,85.4 L7.2,105.2 L-4.9,115.6 L-11.3,120.6 L-23.5,122.6 L-24.0,124.2 L-51.3,124.7 L-70.5,125.5 L-69.6,174.4 L-93.0,174.7 L-93.8,125.6 L-116.7,126.3 Z" fill="url(#park-dots)" stroke="none"/><path d="M53.5,123.4 L59.3,110.7 L58.4,105.2 L62.0,94.5 L59.2,95.1 L50.2,115.4 L48.0,120.7 L48.9,122.5 L53.5,123.4 Z" fill="#d5f2cb" stroke="#9fcf91" stroke-width="0.4"></path><path d="M53.5,123.4 L59.3,110.7 L58.4,105.2 L62.0,94.5 L59.2,95.1 L50.2,115.4 L48.0,120.7 L48.9,122.5 L53.5,123.4 Z" fill="url(#park-dots)" stroke="none"/><path d="M-133.3,213.3 L3.0,323.3" fill="none" stroke="#6fb5c7" stroke-width="0.8" stroke-dasharray="5 7" opacity="0.34" stroke-linecap="round" stroke-linejoin="round"><title>Snapper Creek Canal</title></path><path d="M-8.2,180.3 L-0.6,174.7 L12.7,164.6 L19.9,166.8" fill="none" stroke="#6fb5c7" stroke-width="0.8" stroke-dasharray="5 7" opacity="0.34" stroke-linecap="round" stroke-linejoin="round"></path><path d="M-11.7,156.6 L-1.4,159.2 L12.1,161.7 L14.9,163.7" fill="none" stroke="#6fb5c7" stroke-width="0.8" stroke-dasharray="5 7" opacity="0.34" stroke-linecap="round" stroke-linejoin="round"></path><path d="M-23.9,170.3 L1.4,165.0 L10.6,160.8" fill="none" stroke="#6fb5c7" stroke-width="0.8" stroke-dasharray="5 7" opacity="0.34" stroke-linecap="round" stroke-linejoin="round"></path><path d="M2.2,316.4 L14.2,234.2 L19.9,166.8 L43.3,154.5 L76.7,64.6 L70.3,30.5 L58.5,21.5 L46.7,27.2" fill="none" stroke="#79bdd0" stroke-width="1.4" stroke-linecap="round" stroke-linejoin="round"></path><path d="M46.7,27.2 L48.8,9.4 L58.7,4.8 L69.9,2.7 L85.1,11.9 L96.9,21.7 L92.1,32.8 L90.8,34.6 L95.4,38.0 L99.1,41.1 L108.9,41.5 L123.4,38.8 L121.9,28.9 L98.1,5.5 L-36.4,-21.3 L-41.4,-21.1" fill="none" stroke="#79bdd0" stroke-width="1.4" stroke-linecap="round" stroke-linejoin="round"></path><text x="56.4" y="49.1" text-anchor="middle" font-family="Arial, sans-serif" font-size="7.5" font-weight="600" paint-order="stroke" stroke="#edf6e8" stroke-width="1.9" stroke-linejoin="round" fill="#4f7d54" textLength="100.8" lengthAdjust="spacing">Matheson Hammock Park</text></svg>