<svg xmlns="http://www.w3.org/2000/svg" width="256" height="256" viewBox="0 0 256 256"><rect width="256" height="256" fill="#f1efe7"/><path d="M-15114.7,-15149.7 L-14899.9,-15239.0 L-14832.7,-15271.3 L-14532.2,-15415.6 L-14475.8,-15361.0 L-14470.9,-15356.3 L-14365.5,-15446.5 L-14340.4,-15465.6 L-14298.5,-15503.4 L-14062.4,-15720.2 L-13871.9,-15937.8 L-13864.6,-15951.7 L-13857.6,-15959.6 L-13846.5,-15972.3 L-13835.2,-15985.2 L-13830.6,-15990.5 L-13905.7,-16087.6 L-13806.3,-16147.2 L-13752.4,-16075.5 L-13676.2,-16162.7 L-13740.7,-16248.1 L-13660.8,-16331.4 L-13599.3,-16250.4 L-13528.7,-16330.8 L-13498.6,-16350.5 L-13351.4,-16446.0 L-13278.7,-16494.3 L-13191.1,-16551.9 L-13149.7,-16579.1 L-13044.8,-16646.8 L-13071.8,-16682.3 L-13120.1,-16747.0 L-12995.2,-16826.4 L-12949.7,-16849.9 L-12946.2,-16852.4 L-12922.2,-16870.9 L-12836.6,-16916.7 L-12830.7,-16925.9 L-12806.7,-16942.4 L-12793.7,-16961.4 L-12790.0,-16964.2 L-12769.1,-16972.3 L-12721.9,-16989.2 L-12689.6,-17003.4 L-12575.5,-17057.0 L-12574.1,-17053.3 L-12478.4,-17094.2 L-12439.3,-17044.1 L-12352.2,-17102.2 L-12339.8,-17110.7 L-12338.6,-17111.7 L-12337.4,-17113.3 L-12335.5,-17116.6 L-12334.5,-17119.7 L-12333.9,-17123.4 L-12334.0,-17126.4 L-12334.4,-17129.3 L-12334.8,-17132.6 L-12334.9,-17135.1 L-12334.7,-17137.2 L-12334.3,-17139.4 L-12332.7,-17143.4 L-12331.6,-17145.6 L-12329.1,-17149.4 L-12326.5,-17152.2 L-12313.8,-17157.3 L-12303.2,-17161.3 L-12289.7,-17165.7 L-12283.4,-17167.4 L-12272.2,-17171.1 L-12264.3,-17173.9 L-12253.4,-17178.4 L-12238.6,-17184.9 L-12222.6,-17192.4 L-12214.0,-17196.6 L-12203.2,-17202.1 L-12193.1,-17207.7 L-12183.0,-17213.7 L-12172.7,-17220.4 L-12169.5,-17222.6 L-12148.8,-17238.4 L-12131.4,-17251.8 L-12114.4,-17266.2 L-12098.5,-17281.2 L-12087.0,-17294.1 L-12075.6,-17308.0 L-12061.6,-17326.0 L-12048.8,-17344.0 L-12034.1,-17367.1 L-12024.5,-17385.0 L-12018.5,-17396.4 L-12009.6,-17415.7 L-12002.1,-17433.6 L-11995.4,-17452.9 L-11990.0,-17469.8 L-11984.1,-17497.2 L-11979.8,-17521.7 L-11977.5,-17542.7 L-11975.5,-17567.5 L-11975.3,-17594.0 L-11976.9,-17618.5 L-11981.1,-17650.5 L-11985.5,-17672.3 L-11990.5,-17692.9 L-11997.9,-17716.3 L-12004.2,-17734.2 L-12011.4,-17753.7 L-12018.2,-17769.9 L-12022.8,-17780.4 L-12024.7,-17788.1 L-12025.0,-17794.0 L-12024.4,-17799.3 L-12022.3,-17803.9 L-12019.1,-17807.8 L-12014.9,-17810.0 L-12010.4,-17810.6 L-11998.3,-17807.7 L-11964.6,-17799.6 L-11953.4,-18054.3 L-11909.7,-18508.9 L-11957.2,-18520.1 L-11962.4,-18534.4 L-11962.2,-18554.9 L-11955.6,-18601.4 L-11946.6,-18611.9 L-11938.6,-18642.1 L-11888.1,-18630.4 L-11860.3,-18920.9 L-11852.6,-19001.3 L-11868.3,-19005.2 L-11858.8,-19043.6 L-11891.1,-19051.3 L-11887.0,-19074.8 L-11881.3,-19090.3 L-11874.2,-19108.4 L-11862.2,-19133.7 L-11849.3,-19130.8 L-11831.9,-19313.5 L-11827.8,-19424.3 L-11827.0,-19444.7 L-11817.6,-19515.2 L-11798.9,-19690.9 L-11674.1,-20016.3 L-11645.6,-20105.0 L-11298.9,-20238.0 L-11265.0,-20251.6 L-11259.1,-20254.8 L-11254.5,-20259.0 L-11249.4,-20264.9 L-11245.5,-20271.8 L-11242.9,-20278.6 L-11242.3,-20288.5 L-11242.8,-20300.8 L-11247.4,-20456.3 L-11249.1,-20486.4 L-11249.6,-20507.1 L-11250.3,-20547.3 L-11251.1,-20559.9 L-11252.6,-20570.5 L-11254.7,-20579.9 L-11257.8,-20589.5 L-11262.7,-20600.8 L-11269.9,-20612.9 L-11276.9,-20622.5 L-11282.3,-20631.6 L-11287.8,-20643.7 L-11292.4,-20655.3 L-11294.2,-20664.8 L-11295.6,-20675.3 L-11296.3,-20685.8 L-11296.0,-20696.0 L-11294.8,-20707.9 L-11292.0,-20719.6 L-11288.3,-20730.0 L-11284.4,-20739.5 L-11279.4,-20748.7 L-11273.3,-20759.9 L-11269.3,-20770.0 L-11265.8,-20782.9 L-11259.4,-20792.7 L-11261.6,-20881.9 L-11264.9,-20887.1 L-11265.9,-20947.7 L-11267.6,-21019.2 L-11266.4,-21029.1 L-11263.2,-21039.2 L-11255.2,-21055.0 L-11201.7,-21170.1 L-11200.6,-21172.0 L-11191.2,-21192.5 L-11182.3,-21211.9 L-11172.3,-21231.9 L-11162.5,-21252.5 L-11157.7,-21262.5 L-11105.1,-21370.4 L-11048.9,-21489.6 L-10927.3,-21736.4 L-11000.4,-21818.3 L-11060.0,-21691.3 L-11111.5,-21581.4 L-11119.3,-21565.8 L-11135.2,-21533.3 L-11167.0,-21536.0 L-11175.7,-21536.5 L-11178.8,-21533.7 L-11174.6,-21529.9 L-11190.9,-21515.4 L-11203.8,-21503.5 L-11206.2,-21452.6 L-11211.0,-21442.4 L-11226.6,-21443.0 L-11229.2,-21443.9 L-11433.6,-21528.3 L-11438.0,-21530.6 L-11442.7,-21533.6 L-11450.1,-21539.2 L-11455.8,-21544.6 L-11460.6,-21549.8 L-11465.3,-21556.2 L-11468.9,-21561.8 L-11471.7,-21567.6 L-11473.9,-21573.7 L-11475.4,-21577.9 L-11476.5,-21583.0 L-11477.3,-21589.0 L-11478.1,-21597.2 L-11478.1,-21608.9 L-11479.5,-21648.6 L-11473.9,-21648.9 L-11474.7,-21669.9 L-11475.6,-21704.5 L-11470.4,-21704.6 L-11470.8,-21728.2 L-11476.7,-21728.1 L-11479.4,-21827.5 L-11473.8,-21827.8 L-11474.7,-21851.1 L-11480.1,-21850.9 L-11482.4,-21924.4 L-11455.4,-21953.5 L-11420.9,-21954.7 L-11395.2,-21955.6 L-11361.3,-21956.7 L-11328.7,-21957.7 L-11299.5,-21958.7 L-11286.8,-21959.3 L-11287.4,-21970.6 L-11287.6,-21982.4 L-11289.5,-22020.7 L-11290.2,-22093.8 L-11291.2,-22095.1 L-11291.4,-22102.3 L-11289.3,-22102.4 L-11294.4,-22278.5 L-11298.8,-22444.2 L-11299.5,-22449.4 L-11299.9,-22459.0 L-11372.1,-22456.4 L-11420.1,-22460.5 L-11779.4,-22448.0 L-11779.5,-22451.2 L-11780.2,-22466.5 L-11950.6,-22460.5 L-11950.9,-22488.8 L-11973.4,-22493.9 L-11977.4,-22615.0 L-11314.6,-22638.0 L-11303.6,-22653.1 L-11304.0,-22696.1 L-11304.8,-22733.3 L-11305.4,-22756.6 L-11306.3,-22779.3 L-11359.0,-22804.1 L-11361.1,-22859.2 L-11307.1,-22886.0 L-11312.0,-23013.5 L-11313.4,-23019.8 L-11367.1,-23044.9 L-11368.8,-23113.1 L-11317.8,-23139.4 L-11340.5,-23416.3 L-11334.5,-23539.5 L-11331.5,-23740.4 L-11331.7,-23958.9 L-11326.9,-23989.5 L-11326.6,-24004.3 L-11331.4,-24022.1 L-11326.4,-24022.1 L-11326.4,-24038.2 L-11323.4,-24449.2 L-11323.9,-24467.5 L-11329.6,-24467.5 L-11329.4,-24543.1 L-11332.7,-24547.8 L-11337.9,-24625.8 L-11327.6,-24697.1 L-11328.9,-24783.4 L-11332.4,-24804.1 L-11327.1,-24868.0 L-11330.7,-24945.3 L-11339.7,-25028.0 L-11356.8,-25162.0 L-11348.7,-25198.9 L-11352.3,-25234.8 L-11382.9,-25260.9 L-11427.8,-25260.5 L-11496.2,-25251.5 L-11540.7,-25251.5 L-11581.1,-25266.3 L-11634.2,-25302.7 L-11634.2,-25368.0 L-11635.6,-25448.3 L-11630.4,-25515.2 L-11612.8,-25567.4 L-11318.1,-25572.9 L-11311.3,-25990.8 L-11311.3,-26592.4 L-11314.4,-26810.7 L4597.8,-33382.4 L4597.8,2835.8 L-15114.7,2835.8 L-15114.7,-15149.7 Z" fill="#add7e1" stroke="none"><title>Biscayne Bay</title></path><path d="M-1.0,-1.0 L257.0,-1.0 L257.0,257.0 L-1.0,257.0 L-1.0,-1.0 Z" fill="#add7e1" stroke="none" fill-rule="evenodd"><title>Biscayne Bay</title></path></svg>