<svg xmlns="http://www.w3.org/2000/svg" width="256" height="256" viewBox="0 0 256 256"><rect width="256" height="256" fill="#f1efe7"/><path d="M199.5,39.5 L174.8,40.4 L174.2,23.5 L198.9,22.6 L199.5,39.5 Z" fill="#d6d2c9" stroke="#bab6ad" stroke-width="0.4"></path><path d="M135.5,211.2 L99.7,212.3 L99.2,195.2 L134.9,194.1 L135.5,211.2 Z" fill="#d6d2c9" stroke="#bab6ad" stroke-width="0.4"></path><path d="M106.3,74.3 L86.7,75.0 L86.0,51.3 L130.0,49.9 L130.5,65.5 L106.0,66.3 L106.3,74.3 Z" fill="#d6d2c9" stroke="#bab6ad" stroke-width="0.4"></path><path d="M114.0,133.3 L114.2,140.7 L133.7,140.1 L134.3,157.7 L88.6,159.3 L87.8,134.2 L114.0,133.3 Z" fill="#d6d2c9" stroke="#bab6ad" stroke-width="0.4"></path><path d="M39.6,186.0 L-1.6,187.4 L-2.2,169.0 L39.1,167.7 L39.6,186.0 Z" fill="#d6d2c9" stroke="#bab6ad" stroke-width="0.4"></path><path d="M7.8,72.8 L-5.1,73.4 L-6.2,49.4 L6.7,48.8 L7.8,72.8 Z" fill="#d6d2c9" stroke="#bab6ad" stroke-width="0.4"></path><path d="M102.8,129.1 L74.3,130.0 L73.9,115.5 L96.0,114.8 L95.8,106.7 L110.7,106.3 L111.1,117.1 L102.4,117.3 L102.8,129.1 Z" fill="#d6d2c9" stroke="#bab6ad" stroke-width="0.4"></path><path d="M47.1,244.2 L5.3,245.8 L4.6,228.5 L24.5,227.8 L24.2,220.5 L50.3,219.5 L50.8,234.0 L46.7,234.1 L47.1,244.2 Z" fill="#d6d2c9" stroke="#bab6ad" stroke-width="0.4"></path><path d="M17.6,127.7 L-1.3,128.5 L-2.1,110.5 L16.9,109.7 L17.6,127.7 Z" fill="#d6d2c9" stroke="#bab6ad" stroke-width="0.4"></path><path d="M43.4,215.5 L4.3,216.8 L3.8,200.9 L24.6,200.2 L24.4,192.7 L42.7,192.2 L43.4,215.5 Z" fill="#d6d2c9" stroke="#bab6ad" stroke-width="0.4"></path><path d="M209.4,152.2 L186.6,152.6 L186.2,131.9 L209.1,131.5 L209.4,152.2 Z" fill="#d6d2c9" stroke="#bab6ad" stroke-width="0.4"></path><path d="M138.7,239.8 L108.1,240.2 L107.8,219.1 L138.4,218.6 L138.7,239.8 Z" fill="#d6d2c9" stroke="#bab6ad" stroke-width="0.4"></path><path d="M31.7,269.5 L1.8,270.2 L1.4,251.1 L31.3,250.4 L31.7,269.5 Z" fill="#d6d2c9" stroke="#bab6ad" stroke-width="0.4"></path><path d="M43.5,105.0 L-1.8,106.3 L-2.3,88.3 L17.4,87.8 L17.2,82.1 L42.8,81.3 L43.5,105.0 Z" fill="#d6d2c9" stroke="#bab6ad" stroke-width="0.4"></path><path d="M91.6,49.1 L75.2,49.3 L75.0,29.1 L91.4,28.9 L91.6,49.1 Z" fill="#d6d2c9" stroke="#bab6ad" stroke-width="0.4"></path><path d="M141.4,117.0 L125.7,117.7 L125.3,107.3 L141.0,106.6 L141.4,117.0 Z" fill="#d6d2c9" stroke="#bab6ad" stroke-width="0.4"></path><path d="M242.4,68.4 L226.5,68.8 L225.8,41.0 L241.7,40.6 L242.4,68.4 Z" fill="#d6d2c9" stroke="#bab6ad" stroke-width="0.4"></path><path d="M60.4,66.9 L46.5,67.7 L44.8,37.4 L58.7,36.6 L60.4,66.9 Z" fill="#d6d2c9" stroke="#bab6ad" stroke-width="0.4"></path><path d="M110.1,78.5 L110.3,85.1 L132.8,84.6 L133.2,102.0 L80.0,103.3 L79.4,79.3 L110.1,78.5 Z" fill="#d6d2c9" stroke="#bab6ad" stroke-width="0.4"></path><path d="M30.2,38.4 L31.4,68.4 L20.5,68.8 L20.8,76.1 L12.6,76.4 L12.1,63.2 L18.5,62.9 L17.9,48.3 L10.8,48.6 L10.5,39.2 L30.2,38.4 Z" fill="#d6d2c9" stroke="#bab6ad" stroke-width="0.4"></path><path d="M211.3,209.9 L185.5,210.5 L185.0,189.5 L210.9,189.0 L211.3,209.9 Z" fill="#d6d2c9" stroke="#bab6ad" stroke-width="0.4"></path><path d="M134.8,179.6 L100.9,180.7 L100.4,163.9 L134.2,162.8 L134.8,179.6 Z" fill="#d6d2c9" stroke="#bab6ad" stroke-width="0.4"></path><path d="M119.0,245.7 L119.2,251.8 L138.6,251.2 L139.1,268.7 L98.4,269.9 L97.7,246.4 L119.0,245.7 Z" fill="#d6d2c9" stroke="#bab6ad" stroke-width="0.4"></path><path d="M234.0,100.7 L234.6,124.3 L216.2,124.8 L216.1,118.1 L189.6,118.8 L189.2,101.9 L234.0,100.7 Z" fill="#d6d2c9" stroke="#bab6ad" stroke-width="0.4"></path><path d="M231.9,72.2 L233.0,96.5 L213.4,97.4 L213.1,90.3 L186.2,91.6 L185.4,74.4 L231.9,72.2 Z" fill="#d6d2c9" stroke="#bab6ad" stroke-width="0.4"></path><path d="M222.7,40.8 L206.0,41.5 L205.1,18.7 L221.8,18.0 L222.7,40.8 Z" fill="#d6d2c9" stroke="#bab6ad" stroke-width="0.4"></path><path d="M25.4,160.5 L4.7,161.3 L3.8,138.1 L46.2,136.3 L46.8,151.4 L25.1,152.2 L25.4,160.5 Z" fill="#d6d2c9" stroke="#bab6ad" stroke-width="0.4"></path><path d="M208.5,67.9 L185.6,68.7 L184.8,46.6 L207.8,45.8 L208.5,67.9 Z" fill="#d6d2c9" stroke="#bab6ad" stroke-width="0.4"></path><path d="M217.8,246.2 L218.2,254.6 L226.7,254.1 L227.4,267.2 L207.7,268.3 L206.5,246.8 L217.8,246.2 Z" fill="#d6d2c9" stroke="#bab6ad" stroke-width="0.4"></path><path d="M257.5,207.6 L243.6,208.1 L242.8,187.0 L256.7,186.5 L257.5,207.6 Z" fill="#d6d2c9" stroke="#bab6ad" stroke-width="0.4"></path><path d="M226.1,216.8 L226.6,235.9 L210.7,236.3 L210.6,231.4 L190.2,231.9 L189.9,217.7 L226.1,216.8 Z" fill="#d6d2c9" stroke="#bab6ad" stroke-width="0.4"></path><path d="M-34.4,5.7 L-36.6,-116.8" fill="none" stroke="#cf828d" stroke-width="1.5" stroke-dasharray="1.6 3.0" opacity="0.62" stroke-linecap="round" stroke-linejoin="round"></path><path d="M276.6,-107.2 L278.9,-1.1 L-4.2,5.3" fill="none" stroke="#cf828d" stroke-width="1.5" stroke-dasharray="1.6 3.0" opacity="0.62" stroke-linecap="round" stroke-linejoin="round"></path><path d="M170.5,373.8 L156.6,29.0 L155.9,11.0" fill="none" stroke="#cec8bb" stroke-width="4.8" stroke-linecap="round" stroke-linejoin="round"/><path d="M170.5,373.8 L156.6,29.0 L155.9,11.0" fill="none" stroke="#ffffff" stroke-width="3.7" stroke-linecap="round" stroke-linejoin="round"><title>Northwest 18th Avenue</title></path><path d="M-116.0,20.9 L-37.2,18.1 L78.1,13.8 L155.9,11.0 L255.6,9.2 L266.3,9.6 L271.0,10.1 L282.6,12.7 L293.7,15.6 L305.9,18.1" fill="none" stroke="#cec8bb" stroke-width="4.8" stroke-linecap="round" stroke-linejoin="round"/><path d="M-116.0,20.9 L-37.2,18.1 L78.1,13.8 L155.9,11.0 L255.6,9.2 L266.3,9.6 L271.0,10.1 L282.6,12.7 L293.7,15.6 L305.9,18.1" fill="none" stroke="#ffffff" stroke-width="3.7" stroke-linecap="round" stroke-linejoin="round"><title>Northwest 3rd Street</title></path><text x="160.9" y="134.5" transform="rotate(87.7 160.9 134.5)" text-anchor="middle" dominant-baseline="central" font-family="Arial, sans-serif" font-size="8.3" textLength="111.6" lengthAdjust="spacing" font-weight="650" paint-order="stroke" stroke="#fffaf0" stroke-width="2.05" stroke-linejoin="round" fill="#695f54">Northwest 18th Avenue</text><text x="186.9" y="31.5" text-anchor="middle" font-family="Arial, sans-serif" font-size="6.5" textLength="18.0" lengthAdjust="spacing" font-weight="500" paint-order="stroke" stroke="#f3f5ee" stroke-width="1.55" stroke-linejoin="round" fill="#6f777a">237</text><text x="117.3" y="203.2" text-anchor="middle" font-family="Arial, sans-serif" font-size="6.5" textLength="18.0" lengthAdjust="spacing" font-weight="500" paint-order="stroke" stroke="#f3f5ee" stroke-width="1.55" stroke-linejoin="round" fill="#6f777a">150</text><text x="107.6" y="63.7" text-anchor="middle" font-family="Arial, sans-serif" font-size="6.5" textLength="18.0" lengthAdjust="spacing" font-weight="500" paint-order="stroke" stroke="#f3f5ee" stroke-width="1.55" stroke-linejoin="round" fill="#6f777a">244</text><text x="112.1" y="144.2" text-anchor="middle" font-family="Arial, sans-serif" font-size="6.5" textLength="18.0" lengthAdjust="spacing" font-weight="500" paint-order="stroke" stroke="#f3f5ee" stroke-width="1.55" stroke-linejoin="round" fill="#6f777a">190</text><text x="18.7" y="177.5" text-anchor="middle" font-family="Arial, sans-serif" font-size="6.5" textLength="18.0" lengthAdjust="spacing" font-weight="500" paint-order="stroke" stroke="#f3f5ee" stroke-width="1.55" stroke-linejoin="round" fill="#6f777a">157</text><text x="23.9" y="203.0" text-anchor="middle" font-family="Arial, sans-serif" font-size="6.5" textLength="18.0" lengthAdjust="spacing" font-weight="500" paint-order="stroke" stroke="#f3f5ee" stroke-width="1.55" stroke-linejoin="round" fill="#6f777a">151</text><text x="123.2" y="229.4" text-anchor="middle" font-family="Arial, sans-serif" font-size="6.5" textLength="18.0" lengthAdjust="spacing" font-weight="500" paint-order="stroke" stroke="#f3f5ee" stroke-width="1.55" stroke-linejoin="round" fill="#6f777a">144</text><text x="19.5" y="91.8" text-anchor="middle" font-family="Arial, sans-serif" font-size="6.5" textLength="18.0" lengthAdjust="spacing" font-weight="500" paint-order="stroke" stroke="#f3f5ee" stroke-width="1.55" stroke-linejoin="round" fill="#6f777a">185</text><text x="83.3" y="39.1" text-anchor="middle" font-family="Arial, sans-serif" font-size="6.5" textLength="18.0" lengthAdjust="spacing" font-weight="500" paint-order="stroke" stroke="#f3f5ee" stroke-width="1.55" stroke-linejoin="round" fill="#6f777a">1818</text><text x="52.6" y="52.1" text-anchor="middle" font-family="Arial, sans-serif" font-size="6.5" textLength="18.0" lengthAdjust="spacing" font-weight="500" paint-order="stroke" stroke="#f3f5ee" stroke-width="1.55" stroke-linejoin="round" fill="#6f777a">1824</text><text x="107.6" y="88.8" text-anchor="middle" font-family="Arial, sans-serif" font-size="6.5" textLength="18.0" lengthAdjust="spacing" font-weight="500" paint-order="stroke" stroke="#f3f5ee" stroke-width="1.55" stroke-linejoin="round" fill="#6f777a">240</text><text x="18.5" y="59.0" text-anchor="middle" font-family="Arial, sans-serif" font-size="6.5" textLength="18.0" lengthAdjust="spacing" font-weight="500" paint-order="stroke" stroke="#f3f5ee" stroke-width="1.55" stroke-linejoin="round" fill="#6f777a">1834</text><text x="117.6" y="171.8" text-anchor="middle" font-family="Arial, sans-serif" font-size="6.5" textLength="18.0" lengthAdjust="spacing" font-weight="500" paint-order="stroke" stroke="#f3f5ee" stroke-width="1.55" stroke-linejoin="round" fill="#6f777a">160</text><text x="118.7" y="246.0" text-anchor="middle" font-family="Arial, sans-serif" font-size="6.5" textLength="18.0" lengthAdjust="spacing" font-weight="500" paint-order="stroke" stroke="#f3f5ee" stroke-width="1.55" stroke-linejoin="round" fill="#6f777a">132</text><text x="213.3" y="114.8" text-anchor="middle" font-family="Arial, sans-serif" font-size="6.5" textLength="18.0" lengthAdjust="spacing" font-weight="500" paint-order="stroke" stroke="#f3f5ee" stroke-width="1.55" stroke-linejoin="round" fill="#6f777a">211</text><text x="210.5" y="87.1" text-anchor="middle" font-family="Arial, sans-serif" font-size="6.5" textLength="18.0" lengthAdjust="spacing" font-weight="500" paint-order="stroke" stroke="#f3f5ee" stroke-width="1.55" stroke-linejoin="round" fill="#6f777a">223</text><text x="213.9" y="29.7" text-anchor="middle" font-family="Arial, sans-serif" font-size="6.5" textLength="18.0" lengthAdjust="spacing" font-weight="500" paint-order="stroke" stroke="#f3f5ee" stroke-width="1.55" stroke-linejoin="round" fill="#6f777a">1790</text><text x="25.4" y="150.0" text-anchor="middle" font-family="Arial, sans-serif" font-size="6.5" textLength="18.0" lengthAdjust="spacing" font-weight="500" paint-order="stroke" stroke="#f3f5ee" stroke-width="1.55" stroke-linejoin="round" fill="#6f777a">163</text><text x="209.0" y="228.3" text-anchor="middle" font-family="Arial, sans-serif" font-size="6.5" textLength="18.0" lengthAdjust="spacing" font-weight="500" paint-order="stroke" stroke="#f3f5ee" stroke-width="1.55" stroke-linejoin="round" fill="#6f777a">143</text><text x="15.0" y="232.2" text-anchor="middle" font-family="Arial, sans-serif" font-size="6.5" textLength="18.0" lengthAdjust="spacing" font-weight="500" paint-order="stroke" stroke="#f3f5ee" stroke-width="1.55" stroke-linejoin="round" fill="#6f777a">147</text><text x="15.0" y="119.7" text-anchor="middle" font-family="Arial, sans-serif" font-size="6.5" textLength="18.0" lengthAdjust="spacing" font-weight="500" paint-order="stroke" stroke="#f3f5ee" stroke-width="1.55" stroke-linejoin="round" fill="#6f777a">171</text><text x="42.3" y="240.6" text-anchor="middle" font-family="Arial, sans-serif" font-size="6.5" textLength="18.0" lengthAdjust="spacing" font-weight="500" paint-order="stroke" stroke="#f3f5ee" stroke-width="1.55" stroke-linejoin="round" fill="#6f777a">145</text><text x="102.9" y="111.5" text-anchor="middle" font-family="Arial, sans-serif" font-size="6.5" textLength="18.0" lengthAdjust="spacing" font-weight="500" paint-order="stroke" stroke="#f3f5ee" stroke-width="1.55" stroke-linejoin="round" fill="#6f777a">212</text><text x="114.1" y="38.7" text-anchor="middle" font-family="Arial, sans-serif" font-size="6.5" textLength="18.0" lengthAdjust="spacing" font-weight="500" paint-order="stroke" stroke="#f3f5ee" stroke-width="1.55" stroke-linejoin="round" fill="#6f777a">1810</text><text x="194.2" y="108.9" text-anchor="middle" font-family="Arial, sans-serif" font-size="6.5" textLength="18.0" lengthAdjust="spacing" font-weight="500" paint-order="stroke" stroke="#f3f5ee" stroke-width="1.55" stroke-linejoin="round" fill="#6f777a">213</text><text x="196.1" y="141.8" text-anchor="middle" font-family="Arial, sans-serif" font-size="6.5" textLength="18.0" lengthAdjust="spacing" font-weight="500" paint-order="stroke" stroke="#f3f5ee" stroke-width="1.55" stroke-linejoin="round" fill="#6f777a">201</text><text x="195.9" y="59.5" text-anchor="middle" font-family="Arial, sans-serif" font-size="6.5" textLength="18.0" lengthAdjust="spacing" font-weight="500" paint-order="stroke" stroke="#f3f5ee" stroke-width="1.55" stroke-linejoin="round" fill="#6f777a">227</text><text x="196.6" y="200.9" text-anchor="middle" font-family="Arial, sans-serif" font-size="6.5" textLength="18.0" lengthAdjust="spacing" font-weight="500" paint-order="stroke" stroke="#f3f5ee" stroke-width="1.55" stroke-linejoin="round" fill="#6f777a">151</text><text x="196.8" y="170.7" text-anchor="middle" font-family="Arial, sans-serif" font-size="6.5" textLength="18.0" lengthAdjust="spacing" font-weight="500" paint-order="stroke" stroke="#f3f5ee" stroke-width="1.55" stroke-linejoin="round" fill="#6f777a">161</text></svg>