<svg xmlns="http://www.w3.org/2000/svg" width="256" height="256" viewBox="0 0 256 256"><defs><pattern id="park-dots" width="22" height="22" patternUnits="userSpaceOnUse"><circle cx="5" cy="5" r="2.1" fill="#63a95d" fill-opacity="0.26"/><circle cx="16" cy="7" r="1.55" fill="#76b970" fill-opacity="0.23"/><circle cx="10" cy="17" r="1.9" fill="#61a65b" fill-opacity="0.24"/><circle cx="21" cy="17" r="1.25" fill="#80c174" fill-opacity="0.18"/><circle cx="1" cy="19" r="1.2" fill="#70b46a" fill-opacity="0.17"/></pattern><pattern id="park-canopy" width="54" height="48" patternUnits="userSpaceOnUse"><circle cx="12" cy="11" r="3.6" fill="#5ea75a" fill-opacity="0.22"/><circle cx="31" cy="15" r="2.9" fill="#75ba6d" fill-opacity="0.18"/><circle cx="45" cy="31" r="3.3" fill="#67ae62" fill-opacity="0.20"/><circle cx="19" cy="39" r="2.5" fill="#83c378" fill-opacity="0.16"/></pattern></defs><rect width="256" height="256" fill="#f1efe7"/><path d="M-353.4,212.8 L-14.4,205.8 L-7.6,207.0 L-3.0,209.7 L0.6,214.3 L2.6,219.6 L11.9,476.7 L9.8,483.0 L5.0,487.4 L-1.6,489.9 L-324.9,496.5 L-330.7,494.7 L-335.9,490.0 L-338.1,484.2 L-342.2,377.3 L-349.1,359.6 L-353.4,212.8 Z" fill="#eadfc8" stroke="#d7d1c5" stroke-width="0.3"><title>Shenandoah Middle School</title></path><path d="M35.9,51.4 L30.9,53.1 L27.5,56.6 L25.4,61.9 L25.4,68.9 L28.8,162.0 L30.5,167.0 L33.4,170.5 L37.6,173.3 L42.9,174.3 L50.1,174.4 L371.8,166.3 L375.1,164.3 L376.7,160.8 L372.1,52.0 L370.3,47.7 L367.2,45.2 L363.4,43.4 L358.5,42.9 L35.9,51.4 Z" fill="#ece7dc" stroke="#d7d1c5" stroke-width="0.3"></path><path d="M30.0,-101.0 L26.0,-99.9 L22.8,-97.4 L21.0,-94.4 L20.3,-90.1 L24.2,13.6 L25.6,17.0 L28.6,19.2 L32.9,20.2 L359.9,13.5 L364.1,11.5 L367.1,8.6 L369.3,5.0 L370.0,0.5 L366.5,-106.3 L362.1,-110.1 L30.0,-101.0 Z" fill="#ece7dc" stroke="#d7d1c5" stroke-width="0.3"></path><path d="M-181.6,64.0 L-178.7,178.7 L-14.3,176.0 L-9.3,175.0 L-4.9,172.6 L-1.6,169.2 L0.1,165.1 L0.5,159.7 L-3.3,68.5 L-4.6,64.7 L-7.1,62.0 L-10.6,60.5 L-14.4,60.0 L-181.6,64.0 Z" fill="#ece7dc" stroke="#d7d1c5" stroke-width="0.3"></path><path d="M8.0,190.6 L9.8,193.3 L12.6,194.7 L15.9,194.6 L18.5,192.8 L20.0,189.9 L19.8,186.7 L18.0,184.0 L15.1,182.6 L11.9,182.8 L9.3,184.5 L7.8,187.4 L8.0,190.6 Z" fill="#dcf5d2" stroke="#9fcf91" stroke-width="0.4"></path><path d="M8.0,190.6 L9.8,193.3 L12.6,194.7 L15.9,194.6 L18.5,192.8 L20.0,189.9 L19.8,186.7 L18.0,184.0 L15.1,182.6 L11.9,182.8 L9.3,184.5 L7.8,187.4 L8.0,190.6 Z" fill="url(#park-dots)" stroke="none"/><path d="M8.0,190.6 L9.8,193.3 L12.6,194.7 L15.9,194.6 L18.5,192.8 L20.0,189.9 L19.8,186.7 L18.0,184.0 L15.1,182.6 L11.9,182.8 L9.3,184.5 L7.8,187.4 L8.0,190.6 Z" fill="url(#park-canopy)" stroke="none"/><path d="M283.0,204.6 L283.6,217.2 L287.4,217.1 L287.9,228.5 L282.6,228.7 L282.9,235.2 L244.9,236.8 L244.1,219.8 L255.4,219.3 L254.8,205.8 L283.0,204.6 Z" fill="#d6d2c9" stroke="#bab6ad" stroke-width="0.4"></path><path d="M191.2,210.3 L191.4,215.7 L197.8,215.5 L198.9,253.1 L181.4,253.6 L180.9,236.0 L182.5,236.0 L181.9,216.6 L180.2,216.7 L180.0,210.6 L191.2,210.3 Z" fill="#d6d2c9" stroke="#bab6ad" stroke-width="0.4"></path><path d="M248.3,58.2 L248.4,60.7 L253.3,60.5 L254.1,83.2 L231.9,84.1 L231.0,61.0 L237.1,60.7 L237.0,58.7 L242.7,58.4 L248.3,58.2 Z" fill="#d6d2c9" stroke="#bab6ad" stroke-width="0.4"></path><path d="M251.7,-34.9 L252.8,-1.0 L243.6,-0.7 L243.7,3.2 L229.0,3.7 L228.6,-9.1 L234.1,-9.3 L233.9,-15.6 L229.7,-15.5 L229.4,-24.8 L229.0,-34.2 L251.7,-34.9 Z" fill="#d6d2c9" stroke="#bab6ad" stroke-width="0.4"></path><path d="M56.8,2.9 L56.8,4.7 L42.2,5.0 L42.1,3.2 L33.6,3.4 L33.1,-19.5 L64.1,-20.2 L64.6,2.7 L56.8,2.9 Z" fill="#d6d2c9" stroke="#bab6ad" stroke-width="0.4"></path><path d="M65.5,56.1 L66.2,74.2 L55.7,74.6 L56.1,87.4 L38.2,88.1 L37.7,73.2 L35.7,73.3 L35.1,58.2 L65.5,56.1 Z" fill="#d6d2c9" stroke="#bab6ad" stroke-width="0.4"></path><path d="M124.8,226.2 L124.9,227.9 L116.7,228.1 L116.9,234.5 L102.7,234.9 L102.5,226.6 L90.5,226.9 L90.3,216.5 L102.2,216.1 L102.0,210.3 L132.6,209.4 L132.8,217.7 L133.0,226.0 L124.8,226.2 Z" fill="#d6d2c9" stroke="#bab6ad" stroke-width="0.4"></path><path d="M209.5,59.9 L209.6,62.3 L213.7,62.1 L213.7,60.7 L221.3,60.4 L221.4,62.0 L226.4,61.8 L227.0,76.8 L228.3,76.8 L228.8,89.4 L208.8,90.2 L208.2,74.3 L203.8,74.5 L203.2,60.2 L209.5,59.9 Z" fill="#d6d2c9" stroke="#bab6ad" stroke-width="0.4"></path><path d="M225.2,208.8 L225.2,209.9 L233.6,209.5 L234.8,242.6 L210.8,243.5 L209.5,209.4 L225.2,208.8 Z" fill="#d6d2c9" stroke="#bab6ad" stroke-width="0.4"></path><path d="M175.9,124.6 L176.4,135.4 L200.1,134.3 L201.1,157.7 L190.6,158.2 L190.3,152.2 L167.1,153.2 L166.1,129.3 L171.4,129.1 L171.2,124.8 L175.9,124.6 Z" fill="#d6d2c9" stroke="#bab6ad" stroke-width="0.4"></path><path d="M138.4,62.9 L138.5,64.5 L156.0,63.8 L156.5,75.8 L157.0,87.8 L137.8,88.6 L137.8,90.0 L125.9,90.4 L125.1,71.1 L129.3,71.0 L129.0,63.3 L133.7,63.1 L138.4,62.9 Z" fill="#d6d2c9" stroke="#bab6ad" stroke-width="0.4"></path><path d="M187.0,0.4 L187.1,4.4 L177.5,4.7 L177.4,3.3 L172.3,3.5 L171.6,-22.6 L176.4,-22.7 L176.2,-27.3 L195.0,-27.9 L195.8,0.1 L187.0,0.4 Z" fill="#d6d2c9" stroke="#bab6ad" stroke-width="0.4"></path><path d="M61.4,273.0 L43.5,273.6 L42.6,250.3 L74.5,249.1 L75.2,269.5 L61.3,270.0 L61.4,273.0 Z" fill="#d6d2c9" stroke="#bab6ad" stroke-width="0.4"></path><path d="M57.1,132.0 L57.2,134.7 L68.9,134.3 L69.6,152.2 L57.7,152.7 L58.2,166.4 L41.2,167.0 L40.7,152.5 L38.6,152.6 L38.1,138.1 L40.2,138.0 L40.0,132.7 L57.1,132.0 Z" fill="#d6d2c9" stroke="#bab6ad" stroke-width="0.4"></path><path d="M279.1,244.8 L279.2,245.8 L282.0,245.7 L282.6,260.5 L281.5,260.5 L281.8,269.3 L245.5,270.6 L244.6,246.1 L279.1,244.8 Z" fill="#d6d2c9" stroke="#bab6ad" stroke-width="0.4"></path><path d="M53.8,99.1 L54.1,105.7 L65.5,105.1 L66.0,114.2 L66.5,123.4 L38.0,125.0 L36.6,100.0 L45.2,99.6 L53.8,99.1 Z" fill="#d6d2c9" stroke="#bab6ad" stroke-width="0.4"></path><path d="M178.2,59.9 L178.4,63.6 L197.2,62.7 L198.2,85.2 L165.3,86.8 L164.8,60.6 L171.5,60.2 L178.2,59.9 Z" fill="#d6d2c9" stroke="#bab6ad" stroke-width="0.4"></path><path d="M229.5,151.9 L230.5,159.7 L212.0,160.1 L211.9,156.3 L206.7,156.4 L206.3,138.6 L209.2,138.5 L208.9,123.6 L213.2,123.5 L213.2,122.5 L228.8,122.1 L229.5,151.9 Z" fill="#d6d2c9" stroke="#bab6ad" stroke-width="0.4"></path><path d="M97.1,129.0 L99.0,130.8 L109.1,130.7 L109.1,132.8 L117.7,132.8 L117.8,142.6 L116.7,142.6 L117.2,159.9 L112.7,160.1 L113.0,169.6 L102.4,169.9 L102.1,160.3 L88.1,160.3 L87.9,117.2 L93.8,117.1 L93.8,113.7 L97.1,113.7 L97.1,129.0 Z" fill="#d6d2c9" stroke="#bab6ad" stroke-width="0.4"></path><path d="M153.9,-22.1 L154.0,-15.5 L167.0,-15.8 L167.4,0.2 L163.8,0.3 L163.9,5.3 L154.8,5.5 L154.7,0.7 L150.0,0.8 L150.1,3.1 L143.6,3.2 L143.2,-10.2 L145.6,-10.3 L145.3,-21.8 L153.9,-22.1 Z" fill="#d6d2c9" stroke="#bab6ad" stroke-width="0.4"></path><path d="M154.9,161.4 L128.8,162.1 L127.1,128.4 L154.0,127.7 L154.9,161.4 Z" fill="#d6d2c9" stroke="#bab6ad" stroke-width="0.4"></path><path d="M101.4,62.2 L101.5,65.8 L117.3,65.1 L118.7,97.0 L114.2,97.2 L109.8,97.4 L109.1,82.7 L85.6,83.8 L85.5,80.5 L85.3,77.2 L86.4,77.2 L85.8,62.9 L93.6,62.6 L101.4,62.2 Z" fill="#d6d2c9" stroke="#bab6ad" stroke-width="0.4"></path><path d="M223.5,-15.9 L223.5,-0.0 L220.3,-0.0 L220.3,2.9 L211.6,2.9 L211.6,-0.4 L208.0,-0.4 L208.0,1.5 L202.2,1.5 L202.2,-15.8 L223.5,-15.9 Z" fill="#d6d2c9" stroke="#bab6ad" stroke-width="0.4"></path><path d="M138.4,-13.7 L138.6,5.5 L131.3,5.6 L130.9,-2.2 L118.1,-2.0 L118.0,-7.8 L118.0,-13.6 L138.4,-13.7 Z" fill="#d6d2c9" stroke="#bab6ad" stroke-width="0.4"></path><path d="M52.1,211.6 L52.2,217.3 L59.5,217.1 L59.6,221.3 L64.0,221.2 L63.9,218.7 L71.4,218.4 L71.9,233.1 L64.7,233.3 L64.6,230.7 L59.8,230.9 L60.1,240.0 L41.2,240.6 L40.7,224.2 L43.3,224.1 L43.2,218.9 L40.5,218.9 L40.3,211.9 L52.1,211.6 Z" fill="#d6d2c9" stroke="#bab6ad" stroke-width="0.4"></path><path d="M258.4,158.5 L235.4,159.1 L234.6,130.9 L239.0,130.8 L238.7,121.7 L257.5,121.3 L258.4,158.5 Z" fill="#d6d2c9" stroke="#bab6ad" stroke-width="0.4"></path><path d="M97.4,-25.4 L97.5,-23.9 L110.2,-24.3 L110.9,2.3 L101.6,2.6 L101.8,6.9 L92.6,7.1 L92.6,6.2 L87.5,6.3 L86.7,-25.1 L97.4,-25.4 Z" fill="#d6d2c9" stroke="#bab6ad" stroke-width="0.4"></path><path d="M129.9,247.9 L130.1,253.9 L133.9,253.7 L134.2,259.5 L134.4,265.3 L131.7,265.5 L132.1,273.9 L123.5,274.3 L115.0,274.7 L114.4,263.6 L108.9,263.8 L108.6,256.3 L108.3,248.9 L129.9,247.9 Z" fill="#d6d2c9" stroke="#bab6ad" stroke-width="0.4"></path><path d="M19.9,25.5 L25.5,20.2" fill="none" stroke="#cf828d" stroke-width="1.5" stroke-dasharray="1.6 3.0" opacity="0.62" stroke-linecap="round" stroke-linejoin="round"></path><path d="M27.1,52.8 L20.4,47.1" fill="none" stroke="#cf828d" stroke-width="1.5" stroke-dasharray="1.6 3.0" opacity="0.62" stroke-linecap="round" stroke-linejoin="round"></path><path d="M20.4,47.1 L20.2,38.5 L19.9,25.5" fill="none" stroke="#cf828d" stroke-width="1.5" stroke-dasharray="1.6 3.0" opacity="0.62" stroke-linecap="round" stroke-linejoin="round"></path><path d="M51.2,182.4 L51.3,189.2 L51.4,195.3" fill="none" stroke="#cf828d" stroke-width="1.5" stroke-dasharray="1.6 3.0" opacity="0.62" stroke-linecap="round" stroke-linejoin="round"></path><path d="M51.1,176.0 L51.2,182.4" fill="none" stroke="#cf828d" stroke-width="1.5" stroke-dasharray="1.6 3.0" opacity="0.62" stroke-linecap="round" stroke-linejoin="round"></path><path d="M21.8,153.0 L26.9,152.6" fill="none" stroke="#cf828d" stroke-width="1.5" stroke-dasharray="1.6 3.0" opacity="0.62" stroke-linecap="round" stroke-linejoin="round"></path><path d="M372.7,167.4 L51.1,176.0 L43.4,176.3 L37.9,175.4 L33.9,173.4 L30.5,170.0 L28.2,165.9 L27.2,161.5 L26.9,152.6 L23.6,60.1 L25.0,56.0 L27.1,52.8 L31.1,50.4 L35.5,49.3 L357.6,41.4" fill="none" stroke="#cf828d" stroke-width="1.5" stroke-dasharray="1.6 3.0" opacity="0.62" stroke-linecap="round" stroke-linejoin="round"></path><path d="M18.5,-87.2 L22.5,15.1 L23.6,18.1 L25.5,20.2 L28.1,21.8 L31.9,22.4 L359.1,15.1" fill="none" stroke="#cf828d" stroke-width="1.5" stroke-dasharray="1.6 3.0" opacity="0.62" stroke-linecap="round" stroke-linejoin="round"></path><path d="M3.8,154.1 L12.2,153.6 L21.8,153.0" fill="none" stroke="#cf828d" stroke-width="1.5" stroke-dasharray="1.6 3.0" opacity="0.62" stroke-linecap="round" stroke-linejoin="round"></path><path d="M2.3,154.1 L3.8,154.1" fill="none" stroke="#cf828d" stroke-width="1.5" stroke-dasharray="1.6 3.0" opacity="0.62" stroke-linecap="round" stroke-linejoin="round"></path><path d="M-177.9,181.1 L-30.2,178.0 L-13.1,177.9 L-8.4,177.0 L-4.0,174.6 L-1.4,172.1 L0.3,169.9 L1.5,167.0 L2.2,162.7 L2.3,158.3 L2.3,154.1 L-1.6,65.5 L-3.9,61.9 L-6.3,59.8 L-9.5,58.5 L-14.0,58.1 L-177.4,62.4" fill="none" stroke="#cf828d" stroke-width="1.5" stroke-dasharray="1.6 3.0" opacity="0.62" stroke-linecap="round" stroke-linejoin="round"></path><path d="M144.3,198.9 L157.3,198.6 L171.9,198.3" fill="none" stroke="#cf828d" stroke-width="1.5" stroke-dasharray="1.6 3.0" opacity="0.62" stroke-linecap="round" stroke-linejoin="round"></path><path d="M140.3,203.0 L142.9,205.6 L144.6,208.7 L145.3,213.9 L150.8,350.0" fill="none" stroke="#cf828d" stroke-width="1.5" stroke-dasharray="1.6 3.0" opacity="0.62" stroke-linecap="round" stroke-linejoin="round"></path><path d="M34.8,353.7 L30.0,226.7 L29.7,217.1 L30.0,213.6 L31.0,210.3 L33.0,206.7 L36.5,204.1 L40.4,202.1 L45.4,200.9 L51.2,200.7 L129.3,199.7 L133.4,199.8 L137.1,201.0 L140.3,203.0" fill="none" stroke="#cf828d" stroke-width="1.5" stroke-dasharray="1.6 3.0" opacity="0.62" stroke-linecap="round" stroke-linejoin="round"></path><path d="M51.4,195.3 L51.2,200.7" fill="none" stroke="#cf828d" stroke-width="1.5" stroke-dasharray="1.6 3.0" opacity="0.62" stroke-linecap="round" stroke-linejoin="round"></path><path d="M9.1,226.8 L16.0,226.7 L24.3,226.7" fill="none" stroke="#cf828d" stroke-width="1.5" stroke-dasharray="1.6 3.0" opacity="0.62" stroke-linecap="round" stroke-linejoin="round"></path><path d="M4.4,226.7 L5.5,260.4 L7.8,328.2" fill="none" stroke="#cf828d" stroke-width="1.5" stroke-dasharray="1.6 3.0" opacity="0.62" stroke-linecap="round" stroke-linejoin="round"></path><path d="M-166.8,207.4 L-29.4,204.4 L-17.3,204.1 L-11.3,204.6 L-5.5,206.2 L-1.4,208.6 L1.8,211.8 L3.5,215.2 L4.2,219.6 L4.4,226.7" fill="none" stroke="#cf828d" stroke-width="1.5" stroke-dasharray="1.6 3.0" opacity="0.62" stroke-linecap="round" stroke-linejoin="round"></path><path d="M291.3,200.2 L293.9,203.3 L294.9,207.9 L300.3,338.1" fill="none" stroke="#cf828d" stroke-width="1.5" stroke-dasharray="1.6 3.0" opacity="0.62" stroke-linecap="round" stroke-linejoin="round"></path><path d="M175.6,345.4 L173.2,269.9 L171.7,215.6 L172.3,211.0 L174.2,205.8 L176.3,201.8 L178.4,199.8 L180.7,198.3 L183.7,197.7 L282.4,196.3 L285.4,197.0 L288.6,198.3 L291.3,200.2" fill="none" stroke="#cf828d" stroke-width="1.5" stroke-dasharray="1.6 3.0" opacity="0.62" stroke-linecap="round" stroke-linejoin="round"></path><path d="M4.4,226.7 L9.1,226.8" fill="none" stroke="#cf828d" stroke-width="1.5" stroke-dasharray="1.6 3.0" opacity="0.62" stroke-linecap="round" stroke-linejoin="round"></path><path d="M24.3,226.7 L30.0,226.7" fill="none" stroke="#cf828d" stroke-width="1.5" stroke-dasharray="1.6 3.0" opacity="0.62" stroke-linecap="round" stroke-linejoin="round"></path><path d="M140.3,203.0 L144.3,198.9" fill="none" stroke="#cf828d" stroke-width="1.5" stroke-dasharray="1.6 3.0" opacity="0.62" stroke-linecap="round" stroke-linejoin="round"></path><path d="M171.9,198.3 L176.3,201.8" fill="none" stroke="#cf828d" stroke-width="1.5" stroke-dasharray="1.6 3.0" opacity="0.62" stroke-linecap="round" stroke-linejoin="round"></path><path d="M306.9,182.2 L156.9,186.1 L51.3,189.2" fill="none" stroke="#cec8bb" stroke-width="4.8" stroke-linecap="round" stroke-linejoin="round"/><path d="M306.9,182.2 L156.9,186.1 L51.3,189.2" fill="none" stroke="#ffffff" stroke-width="3.7" stroke-linecap="round" stroke-linejoin="round"><title>Southwest 19th Street</title></path><path d="M156.9,186.1 L157.3,198.6 L157.5,206.5 L163.7,377.0" fill="none" stroke="#cec8bb" stroke-width="4.8" stroke-linecap="round" stroke-linejoin="round"/><path d="M156.9,186.1 L157.3,198.6 L157.5,206.5 L163.7,377.0" fill="none" stroke="#ffffff" stroke-width="3.7" stroke-linecap="round" stroke-linejoin="round"><title>Southwest 18th Court</title></path><path d="M369.4,28.5 L27.8,36.5 L20.2,38.5 L8.1,41.6" fill="none" stroke="#cec8bb" stroke-width="4.8" stroke-linecap="round" stroke-linejoin="round"/><path d="M369.4,28.5 L27.8,36.5 L20.2,38.5 L8.1,41.6" fill="none" stroke="#ffffff" stroke-width="3.7" stroke-linecap="round" stroke-linejoin="round"><title>Southwest 18th Street</title></path><path d="M8.1,41.6 L-4.5,44.9 L-10.1,46.4 L-177.0,50.3" fill="none" stroke="#cec8bb" stroke-width="4.8" stroke-linecap="round" stroke-linejoin="round"/><path d="M8.1,41.6 L-4.5,44.9 L-10.1,46.4 L-177.0,50.3" fill="none" stroke="#ffffff" stroke-width="3.7" stroke-linecap="round" stroke-linejoin="round"><title>Southwest 18th Street</title></path><path d="M-29.8,189.8 L-19.4,193.3 L-11.3,194.7 L-4.4,196.7 L2.4,197.1" fill="none" stroke="#cec8bb" stroke-width="4.8" stroke-linecap="round" stroke-linejoin="round"/><path d="M-29.8,189.8 L-19.4,193.3 L-11.3,194.7 L-4.4,196.7 L2.4,197.1" fill="none" stroke="#ffffff" stroke-width="3.7" stroke-linecap="round" stroke-linejoin="round"><title>Southwest 19th Street</title></path><path d="M12.2,153.6 L9.3,159.8 L8.2,164.9 L7.1,169.9 L5.9,177.7" fill="none" stroke="#cec8bb" stroke-width="4.8" stroke-linecap="round" stroke-linejoin="round"/><path d="M12.2,153.6 L9.3,159.8 L8.2,164.9 L7.1,169.9 L5.9,177.7" fill="none" stroke="#ffffff" stroke-width="3.7" stroke-linecap="round" stroke-linejoin="round"><title>Southwest 19th Avenue</title></path><path d="M51.3,189.2 L41.6,186.8 L36.4,185.6 L31.0,183.5 L24.5,181.1" fill="none" stroke="#cec8bb" stroke-width="4.8" stroke-linecap="round" stroke-linejoin="round"/><path d="M51.3,189.2 L41.6,186.8 L36.4,185.6 L31.0,183.5 L24.5,181.1" fill="none" stroke="#ffffff" stroke-width="3.7" stroke-linecap="round" stroke-linejoin="round"><title>Southwest 19th Street</title></path><path d="M16.0,226.7 L19.7,218.5 L20.6,212.4 L21.7,206.2 L23.2,198.7" fill="none" stroke="#cec8bb" stroke-width="4.8" stroke-linecap="round" stroke-linejoin="round"/><path d="M16.0,226.7 L19.7,218.5 L20.6,212.4 L21.7,206.2 L23.2,198.7" fill="none" stroke="#ffffff" stroke-width="3.7" stroke-linecap="round" stroke-linejoin="round"><title>Southwest 19th Avenue</title></path><path d="M21.1,177.8 L19.6,169.4 L17.7,164.4 L16.2,159.2 L12.2,153.6" fill="none" stroke="#cec8bb" stroke-width="4.8" stroke-linecap="round" stroke-linejoin="round"/><path d="M21.1,177.8 L19.6,169.4 L17.7,164.4 L16.2,159.2 L12.2,153.6" fill="none" stroke="#ffffff" stroke-width="3.7" stroke-linecap="round" stroke-linejoin="round"><title>Southwest 19th Avenue</title></path><path d="M25.5,195.6 L31.2,194.6 L40.3,192.1 L51.3,189.2" fill="none" stroke="#cec8bb" stroke-width="4.8" stroke-linecap="round" stroke-linejoin="round"/><path d="M25.5,195.6 L31.2,194.6 L40.3,192.1 L51.3,189.2" fill="none" stroke="#ffffff" stroke-width="3.7" stroke-linecap="round" stroke-linejoin="round"><title>Southwest 19th Street</title></path><path d="M5.7,200.4 L9.6,207.6 L11.4,212.4 L12.7,218.0 L16.0,226.7" fill="none" stroke="#cec8bb" stroke-width="4.8" stroke-linecap="round" stroke-linejoin="round"/><path d="M5.7,200.4 L9.6,207.6 L11.4,212.4 L12.7,218.0 L16.0,226.7" fill="none" stroke="#ffffff" stroke-width="3.7" stroke-linecap="round" stroke-linejoin="round"><title>Southwest 19th Avenue</title></path><path d="M3.6,179.7 L-4.7,182.1 L-13.2,184.4 L-21.7,186.0 L-29.8,189.8" fill="none" stroke="#cec8bb" stroke-width="4.8" stroke-linecap="round" stroke-linejoin="round"/><path d="M3.6,179.7 L-4.7,182.1 L-13.2,184.4 L-21.7,186.0 L-29.8,189.8" fill="none" stroke="#ffffff" stroke-width="3.7" stroke-linecap="round" stroke-linejoin="round"><title>Southwest 19th Street</title></path><path d="M14.8,202.7 L19.3,201.4 L23.2,198.7 L25.5,195.6 L26.8,192.0 L27.1,188.2 L26.3,184.5 L24.5,181.1 L23.0,179.3 L21.1,177.8 L17.5,176.1 L13.5,175.5 L9.6,176.0 L5.9,177.7 L3.6,179.7 L1.0,183.6 L-0.2,188.2 L0.3,192.9 L2.4,197.1 L5.7,200.4 L10.1,202.3 L14.8,202.7" fill="none" stroke="#cec8bb" stroke-width="4.8" stroke-linecap="round" stroke-linejoin="round"/><path d="M14.8,202.7 L19.3,201.4 L23.2,198.7 L25.5,195.6 L26.8,192.0 L27.1,188.2 L26.3,184.5 L24.5,181.1 L23.0,179.3 L21.1,177.8 L17.5,176.1 L13.5,175.5 L9.6,176.0 L5.9,177.7 L3.6,179.7 L1.0,183.6 L-0.2,188.2 L0.3,192.9 L2.4,197.1 L5.7,200.4 L10.1,202.3 L14.8,202.7" fill="none" stroke="#ffffff" stroke-width="3.7" stroke-linecap="round" stroke-linejoin="round"></path><path d="M16.0,226.7 L18.1,276.8 L21.3,380.6" fill="none" stroke="#cec8bb" stroke-width="4.8" stroke-linecap="round" stroke-linejoin="round"/><path d="M16.0,226.7 L18.1,276.8 L21.3,380.6" fill="none" stroke="#ffffff" stroke-width="3.7" stroke-linecap="round" stroke-linejoin="round"><title>Southwest 19th Avenue</title></path><path d="M2.6,-115.1 L8.1,41.6 L12.2,153.6" fill="none" stroke="#cec8bb" stroke-width="4.8" stroke-linecap="round" stroke-linejoin="round"/><path d="M2.6,-115.1 L8.1,41.6 L12.2,153.6" fill="none" stroke="#ffffff" stroke-width="3.7" stroke-linecap="round" stroke-linejoin="round"><title>Southwest 19th Avenue</title></path><text x="104.1" y="187.6" transform="rotate(-1.7 104.1 187.6)" text-anchor="middle" dominant-baseline="central" font-family="Arial, sans-serif" font-size="8.3" textLength="111.6" lengthAdjust="spacing" font-weight="650" paint-order="stroke" stroke="#fffaf0" stroke-width="2.05" stroke-linejoin="round" fill="#695f54">Southwest 19th Street</text><text x="133.9" y="34.0" transform="rotate(-1.3 133.9 34.0)" text-anchor="middle" dominant-baseline="central" font-family="Arial, sans-serif" font-size="8.3" textLength="111.6" lengthAdjust="spacing" font-weight="650" paint-order="stroke" stroke="#fffaf0" stroke-width="2.05" stroke-linejoin="round" fill="#695f54">Southwest 18th Street</text><text x="186.6" y="226.4" text-anchor="middle" font-family="Arial, sans-serif" font-size="6.5" textLength="18.0" lengthAdjust="spacing" font-weight="500" paint-order="stroke" stroke="#f3f5ee" stroke-width="1.55" stroke-linejoin="round" fill="#6f777a">1901</text><text x="241.0" y="65.1" text-anchor="middle" font-family="Arial, sans-serif" font-size="6.5" textLength="18.0" lengthAdjust="spacing" font-weight="500" paint-order="stroke" stroke="#f3f5ee" stroke-width="1.55" stroke-linejoin="round" fill="#6f777a">1832</text><text x="48.8" y="73.2" text-anchor="middle" font-family="Arial, sans-serif" font-size="6.5" textLength="18.0" lengthAdjust="spacing" font-weight="500" paint-order="stroke" stroke="#f3f5ee" stroke-width="1.55" stroke-linejoin="round" fill="#6f777a">1801</text><text x="113.2" y="223.2" text-anchor="middle" font-family="Arial, sans-serif" font-size="6.5" textLength="18.0" lengthAdjust="spacing" font-weight="500" paint-order="stroke" stroke="#f3f5ee" stroke-width="1.55" stroke-linejoin="round" fill="#6f777a">1880</text><text x="216.0" y="69.4" text-anchor="middle" font-family="Arial, sans-serif" font-size="6.5" textLength="18.0" lengthAdjust="spacing" font-weight="500" paint-order="stroke" stroke="#f3f5ee" stroke-width="1.55" stroke-linejoin="round" fill="#6f777a">1842</text><text x="223.2" y="220.6" text-anchor="middle" font-family="Arial, sans-serif" font-size="6.5" textLength="18.0" lengthAdjust="spacing" font-weight="500" paint-order="stroke" stroke="#f3f5ee" stroke-width="1.55" stroke-linejoin="round" fill="#6f777a">1820</text><text x="181.0" y="139.9" text-anchor="middle" font-family="Arial, sans-serif" font-size="6.5" textLength="18.0" lengthAdjust="spacing" font-weight="500" paint-order="stroke" stroke="#f3f5ee" stroke-width="1.55" stroke-linejoin="round" fill="#6f777a">1851</text><text x="138.7" y="74.3" text-anchor="middle" font-family="Arial, sans-serif" font-size="6.5" textLength="18.0" lengthAdjust="spacing" font-weight="500" paint-order="stroke" stroke="#f3f5ee" stroke-width="1.55" stroke-linejoin="round" fill="#6f777a">1860</text><text x="50.6" y="146.1" text-anchor="middle" font-family="Arial, sans-serif" font-size="6.5" textLength="18.0" lengthAdjust="spacing" font-weight="500" paint-order="stroke" stroke="#f3f5ee" stroke-width="1.55" stroke-linejoin="round" fill="#6f777a">1881</text><text x="53.2" y="109.0" text-anchor="middle" font-family="Arial, sans-serif" font-size="6.5" textLength="18.0" lengthAdjust="spacing" font-weight="500" paint-order="stroke" stroke="#f3f5ee" stroke-width="1.55" stroke-linejoin="round" fill="#6f777a">1821</text><text x="179.1" y="68.4" text-anchor="middle" font-family="Arial, sans-serif" font-size="6.5" textLength="18.0" lengthAdjust="spacing" font-weight="500" paint-order="stroke" stroke="#f3f5ee" stroke-width="1.55" stroke-linejoin="round" fill="#6f777a">1850</text><text x="215.5" y="141.2" text-anchor="middle" font-family="Arial, sans-serif" font-size="6.5" textLength="18.0" lengthAdjust="spacing" font-weight="500" paint-order="stroke" stroke="#f3f5ee" stroke-width="1.55" stroke-linejoin="round" fill="#6f777a">1841</text><text x="104.4" y="140.2" text-anchor="middle" font-family="Arial, sans-serif" font-size="6.5" textLength="18.0" lengthAdjust="spacing" font-weight="500" paint-order="stroke" stroke="#f3f5ee" stroke-width="1.55" stroke-linejoin="round" fill="#6f777a">1871</text><text x="141.2" y="144.9" text-anchor="middle" font-family="Arial, sans-serif" font-size="6.5" textLength="18.0" lengthAdjust="spacing" font-weight="500" paint-order="stroke" stroke="#f3f5ee" stroke-width="1.55" stroke-linejoin="round" fill="#6f777a">1861</text><text x="99.6" y="77.8" text-anchor="middle" font-family="Arial, sans-serif" font-size="6.5" textLength="18.0" lengthAdjust="spacing" font-weight="500" paint-order="stroke" stroke="#f3f5ee" stroke-width="1.55" stroke-linejoin="round" fill="#6f777a">1870</text><text x="55.2" y="224.0" text-anchor="middle" font-family="Arial, sans-serif" font-size="6.5" textLength="18.0" lengthAdjust="spacing" font-weight="500" paint-order="stroke" stroke="#f3f5ee" stroke-width="1.55" stroke-linejoin="round" fill="#6f777a">1901</text><text x="241.0" y="137.1" text-anchor="middle" font-family="Arial, sans-serif" font-size="6.5" textLength="18.0" lengthAdjust="spacing" font-weight="500" paint-order="stroke" stroke="#f3f5ee" stroke-width="1.55" stroke-linejoin="round" fill="#6f777a">1835</text><g opacity="0.56"><title>crossing</title><path d="M9.9,151.8 L14.5,151.8 M9.9,153.6 L14.5,153.6 M9.9,155.4 L14.5,155.4" stroke="#ffffff" stroke-width="2.1" stroke-linecap="round"/><path d="M9.9,151.8 L14.5,151.8 M9.9,153.6 L14.5,153.6 M9.9,155.4 L14.5,155.4" stroke="#59656a" stroke-width="0.85" stroke-linecap="round"/></g><g opacity="0.56"><title>crossing</title><path d="M13.7,224.9 L18.3,224.9 M13.7,226.7 L18.3,226.7 M13.7,228.5 L18.3,228.5" stroke="#ffffff" stroke-width="2.1" stroke-linecap="round"/><path d="M13.7,224.9 L18.3,224.9 M13.7,226.7 L18.3,226.7 M13.7,228.5 L18.3,228.5" stroke="#59656a" stroke-width="0.85" stroke-linecap="round"/></g><g opacity="0.56"><title>crossing</title><path d="M17.9,36.7 L22.5,36.7 M17.9,38.5 L22.5,38.5 M17.9,40.3 L22.5,40.3" stroke="#ffffff" stroke-width="2.1" stroke-linecap="round"/><path d="M17.9,36.7 L22.5,36.7 M17.9,38.5 L22.5,38.5 M17.9,40.3 L22.5,40.3" stroke="#59656a" stroke-width="0.85" stroke-linecap="round"/></g></svg>