<svg xmlns="http://www.w3.org/2000/svg" width="256" height="256" viewBox="0 0 256 256"><rect width="256" height="256" fill="#f1efe7"/><path d="M-5898.7,9170.3 L-5683.9,9081.0 L-5616.7,9048.7 L-5316.2,8904.4 L-5259.8,8959.0 L-5254.9,8963.7 L-5149.5,8873.5 L-5124.4,8854.4 L-5082.5,8816.6 L-4846.4,8599.8 L-4655.9,8382.2 L-4648.6,8368.3 L-4641.6,8360.4 L-4630.5,8347.7 L-4619.2,8334.8 L-4614.6,8329.5 L-4689.7,8232.4 L-4590.3,8172.8 L-4536.4,8244.5 L-4460.2,8157.3 L-4524.7,8071.9 L-4444.8,7988.6 L-4383.3,8069.6 L-4312.7,7989.2 L-4282.6,7969.5 L-4135.4,7874.0 L-4062.7,7825.7 L-3975.1,7768.1 L-3933.7,7740.9 L-3828.8,7673.2 L-3855.8,7637.7 L-3904.1,7573.0 L-3779.2,7493.6 L-3733.7,7470.1 L-3730.2,7467.6 L-3706.2,7449.1 L-3620.6,7403.3 L-3614.7,7394.1 L-3590.7,7377.6 L-3577.7,7358.6 L-3574.0,7355.8 L-3553.1,7347.7 L-3505.9,7330.8 L-3473.6,7316.6 L-3359.5,7263.0 L-3358.1,7266.7 L-3262.4,7225.8 L-3223.3,7275.9 L-3136.2,7217.8 L-3123.8,7209.3 L-3122.6,7208.3 L-3121.4,7206.7 L-3119.5,7203.4 L-3118.5,7200.3 L-3117.9,7196.6 L-3118.0,7193.6 L-3118.4,7190.7 L-3118.8,7187.4 L-3118.9,7184.9 L-3118.7,7182.8 L-3118.3,7180.6 L-3116.7,7176.6 L-3115.6,7174.4 L-3113.1,7170.6 L-3110.5,7167.8 L-3097.8,7162.7 L-3087.2,7158.7 L-3073.7,7154.3 L-3067.4,7152.6 L-3056.2,7148.9 L-3048.3,7146.1 L-3037.4,7141.6 L-3022.6,7135.1 L-3006.6,7127.6 L-2998.0,7123.4 L-2987.2,7117.9 L-2977.1,7112.3 L-2967.0,7106.3 L-2956.7,7099.6 L-2953.5,7097.4 L-2932.8,7081.6 L-2915.4,7068.2 L-2898.4,7053.8 L-2882.5,7038.8 L-2871.0,7025.9 L-2859.6,7012.0 L-2845.6,6994.0 L-2832.8,6976.0 L-2818.1,6952.9 L-2808.5,6935.0 L-2802.5,6923.6 L-2793.6,6904.3 L-2786.1,6886.4 L-2779.4,6867.1 L-2774.0,6850.2 L-2768.1,6822.8 L-2763.8,6798.3 L-2761.5,6777.3 L-2759.5,6752.5 L-2759.3,6726.0 L-2760.9,6701.5 L-2765.1,6669.5 L-2769.5,6647.7 L-2774.5,6627.1 L-2781.9,6603.7 L-2788.2,6585.8 L-2795.4,6566.3 L-2802.2,6550.1 L-2806.8,6539.6 L-2808.7,6531.9 L-2809.0,6526.0 L-2808.4,6520.7 L-2806.3,6516.1 L-2803.1,6512.2 L-2798.9,6510.0 L-2794.4,6509.4 L-2782.3,6512.3 L-2748.6,6520.4 L-2737.4,6265.7 L-2693.7,5811.1 L-2741.2,5799.9 L-2746.4,5785.6 L-2746.2,5765.1 L-2739.6,5718.6 L-2730.6,5708.1 L-2722.6,5677.9 L-2672.1,5689.6 L-2644.3,5399.1 L-2636.6,5318.7 L-2652.3,5314.8 L-2642.8,5276.4 L-2675.1,5268.7 L-2671.0,5245.2 L-2665.3,5229.7 L-2658.2,5211.6 L-2646.2,5186.3 L-2633.3,5189.2 L-2615.9,5006.5 L-2611.8,4895.7 L-2611.0,4875.3 L-2601.6,4804.8 L-2582.9,4629.1 L-2458.1,4303.7 L-2429.6,4215.0 L-2082.9,4082.0 L-2049.0,4068.4 L-2043.1,4065.2 L-2038.5,4061.0 L-2033.4,4055.1 L-2029.5,4048.2 L-2026.9,4041.4 L-2026.3,4031.5 L-2026.8,4019.2 L-2031.4,3863.7 L-2033.1,3833.6 L-2033.6,3812.9 L-2034.3,3772.7 L-2035.1,3760.1 L-2036.6,3749.5 L-2038.7,3740.1 L-2041.8,3730.5 L-2046.7,3719.2 L-2053.9,3707.1 L-2060.9,3697.5 L-2066.3,3688.4 L-2071.8,3676.3 L-2076.4,3664.7 L-2078.2,3655.2 L-2079.6,3644.7 L-2080.3,3634.2 L-2080.0,3624.0 L-2078.8,3612.1 L-2076.0,3600.4 L-2072.3,3590.0 L-2068.4,3580.5 L-2063.4,3571.3 L-2057.3,3560.1 L-2053.3,3550.0 L-2049.8,3537.1 L-2043.4,3527.3 L-2045.6,3438.1 L-2048.9,3432.9 L-2049.9,3372.3 L-2051.6,3300.8 L-2050.4,3290.9 L-2047.2,3280.8 L-2039.2,3265.0 L-1985.7,3149.9 L-1984.6,3148.0 L-1975.2,3127.5 L-1966.3,3108.1 L-1956.3,3088.1 L-1946.5,3067.5 L-1941.7,3057.5 L-1889.1,2949.6 L-1832.9,2830.4 L-1711.3,2583.6 L-1784.4,2501.7 L-1844.0,2628.7 L-1895.5,2738.6 L-1903.3,2754.2 L-1919.2,2786.7 L-1951.0,2784.0 L-1959.7,2783.5 L-1962.8,2786.3 L-1958.6,2790.1 L-1974.9,2804.6 L-1987.8,2816.5 L-1990.2,2867.4 L-1995.0,2877.6 L-2010.6,2877.0 L-2013.2,2876.1 L-2217.6,2791.7 L-2222.0,2789.4 L-2226.7,2786.4 L-2234.1,2780.8 L-2239.8,2775.4 L-2244.6,2770.2 L-2249.3,2763.8 L-2252.9,2758.2 L-2255.7,2752.4 L-2257.9,2746.3 L-2259.4,2742.1 L-2260.5,2737.0 L-2261.3,2731.0 L-2262.1,2722.8 L-2262.1,2711.1 L-2263.5,2671.4 L-2257.9,2671.1 L-2258.7,2650.1 L-2259.6,2615.5 L-2254.4,2615.4 L-2254.8,2591.8 L-2260.7,2591.9 L-2263.4,2492.5 L-2257.8,2492.2 L-2258.7,2468.9 L-2264.1,2469.1 L-2266.4,2395.6 L-2239.4,2366.5 L-2204.9,2365.3 L-2179.2,2364.4 L-2145.3,2363.3 L-2112.7,2362.3 L-2083.5,2361.3 L-2070.8,2360.7 L-2071.4,2349.4 L-2071.6,2337.6 L-2073.5,2299.3 L-2074.2,2226.2 L-2075.2,2224.9 L-2075.4,2217.7 L-2073.3,2217.6 L-2078.4,2041.5 L-2082.8,1875.8 L-2083.5,1870.6 L-2083.9,1861.0 L-2156.1,1863.6 L-2204.1,1859.5 L-2563.4,1872.0 L-2563.5,1868.8 L-2564.2,1853.5 L-2734.6,1859.5 L-2734.9,1831.2 L-2757.4,1826.1 L-2761.4,1705.0 L-2098.6,1682.0 L-2087.6,1666.9 L-2088.0,1623.9 L-2088.8,1586.7 L-2089.4,1563.4 L-2090.3,1540.7 L-2143.0,1515.9 L-2145.1,1460.8 L-2091.1,1434.0 L-2096.0,1306.5 L-2097.4,1300.2 L-2151.1,1275.1 L-2152.8,1206.9 L-2101.8,1180.6 L-2124.5,903.7 L-2118.5,780.5 L-2115.5,579.6 L-2115.7,361.1 L-2110.9,330.5 L-2110.6,315.7 L-2115.4,297.9 L-2110.4,297.9 L-2110.4,281.8 L-2107.4,-129.2 L-2107.9,-147.5 L-2113.6,-147.5 L-2113.4,-223.1 L-2116.7,-227.8 L-2121.9,-305.8 L-2111.6,-377.1 L-2112.9,-463.4 L-2116.4,-484.1 L-2111.1,-548.0 L-2114.7,-625.3 L-2123.7,-708.0 L-2140.8,-842.0 L-2132.7,-878.9 L-2136.3,-914.8 L-2166.9,-940.9 L-2211.8,-940.5 L-2280.2,-931.5 L-2324.7,-931.5 L-2365.1,-946.3 L-2418.2,-982.7 L-2418.2,-1048.0 L-2419.6,-1128.3 L-2414.4,-1195.2 L-2396.8,-1247.4 L-2102.1,-1252.9 L-2095.3,-1670.8 L-2095.3,-2272.4 L-2098.4,-2490.7 L13813.8,-9062.4 L13813.8,27155.8 L-5898.7,27155.8 L-5898.7,9170.3 Z" fill="#add7e1" stroke="none"><title>Biscayne Bay</title></path><path d="M-974.8,357.2 L-656.3,340.6 L-544.6,351.1 L-480.8,353.6 L-385.2,350.8 L-364.8,354.7 L-336.3,353.6 L-307.2,347.6 L-271.7,335.8 L-254.2,331.1 L-226.4,329.8 L-211.8,328.3 L-195.9,323.0 L-179.6,320.5 L-164.5,320.5 L-159.6,316.3 L-156.4,314.3 L-142.0,318.3 L-127.1,318.4 L-121.6,420.2 L95.4,408.7 L112.5,409.8 L128.3,409.4 L155.4,408.2 L210.4,405.3 L215.4,409.2 L348.6,402.3 L348.3,396.6 L374.6,395.2 L390.6,391.0 L405.3,383.2 L417.5,376.7 L428.5,367.4 L438.9,357.4 L448.0,345.3 L456.9,329.1 L462.3,315.8 L465.5,300.4 L467.4,278.9 L460.9,169.9 L457.4,95.4 L453.3,73.2 L443.1,52.5 L429.7,34.0 L417.9,22.6 L406.1,13.4 L388.2,4.0 L370.9,-2.1 L351.1,-4.3 L334.9,-4.1 L74.3,9.1 L-209.0,24.3 L-306.9,29.6 L-696.1,50.5 L-940.0,61.9 L-950.8,63.0 L-960.0,67.3 L-973.3,77.2 L-982.5,86.8 L-988.0,97.4 L-991.1,109.4 L-991.8,121.7 L-990.7,138.4 L-983.0,277.9 L-986.4,281.9 L-985.3,304.0 L-983.1,316.6 L-976.4,327.2 L-974.8,357.2 Z" fill="#ece7dc" stroke="#d7d1c5" stroke-width="0.3"><title>Biscayne Island</title></path><path d="M2.0,36.0 L3.3,61.4 L-1.2,61.6 L-0.8,68.4 L3.6,68.1 L4.3,82.2 L-6.5,82.8 L-6.6,80.8 L-19.5,81.4 L-19.6,79.4 L-27.7,79.8 L-29.9,33.9 L-17.8,33.3 L-17.7,35.9 L-10.3,35.5 L-9.7,36.6 L2.0,36.0 Z" fill="#d6d2c9" stroke="#bab6ad" stroke-width="0.4"></path><path d="M-17.9,324.9 L-21.5,255.0 L106.3,248.5 L107.6,272.8 L113.5,272.6 L136.1,271.4 L136.4,279.2 L137.1,291.6 L138.4,316.8 L112.3,318.2 L85.4,319.6 L-7.9,324.4 L-17.9,324.9 Z" fill="#d6d2c9" stroke="#bab6ad" stroke-width="0.4"></path><path d="M217.6,30.2 L218.0,37.7 L225.7,37.3 L227.2,70.1 L218.4,70.5 L212.7,73.0 L203.7,73.5 L203.5,70.1 L188.7,70.8 L188.1,57.9 L189.4,57.8 L188.6,39.5 L203.4,38.9 L203.1,30.9 L217.6,30.2 Z" fill="#d6d2c9" stroke="#bab6ad" stroke-width="0.4"></path><path d="M7.0,127.8 L7.4,134.6 L14.5,134.3 L14.3,129.5 L32.4,128.6 L33.4,149.9 L31.1,150.0 L32.2,172.6 L19.5,173.2 L18.9,160.2 L18.9,159.5 L14.3,159.7 L14.1,157.5 L-4.4,158.3 L-5.8,128.4 L7.0,127.8 Z" fill="#d6d2c9" stroke="#bab6ad" stroke-width="0.4"></path><path d="M49.2,125.5 L49.6,132.4 L57.1,132.0 L56.8,127.1 L74.6,126.0 L75.9,147.9 L59.6,148.8 L60.0,155.0 L38.7,156.3 L36.9,126.2 L49.2,125.5 Z" fill="#d6d2c9" stroke="#bab6ad" stroke-width="0.4"></path><path d="M247.2,68.1 L232.4,68.8 L230.1,21.4 L244.9,20.6 L244.6,14.5 L266.3,13.4 L268.1,51.0 L256.2,51.6 L256.4,54.0 L246.5,54.5 L247.2,68.1 Z" fill="#d6d2c9" stroke="#bab6ad" stroke-width="0.4"></path><path d="M173.9,120.4 L174.0,122.3 L183.1,121.8 L184.5,145.9 L178.3,146.3 L179.2,161.0 L165.7,161.9 L164.8,146.3 L156.0,146.9 L156.4,153.8 L144.2,154.5 L142.2,122.0 L154.3,121.2 L154.6,125.7 L167.6,124.9 L167.4,120.8 L173.9,120.4 Z" fill="#d6d2c9" stroke="#bab6ad" stroke-width="0.4"></path><path d="M210.8,121.3 L212.8,129.0 L229.6,128.4 L230.2,148.6 L226.1,148.7 L226.3,155.8 L196.8,156.7 L195.9,125.2 L210.8,121.3 Z" fill="#d6d2c9" stroke="#bab6ad" stroke-width="0.4"></path><path d="M74.4,19.5 L75.6,35.3 L73.4,35.4 L74.9,55.0 L77.5,54.8 L77.9,61.1 L80.3,60.9 L81.0,70.4 L100.2,68.9 L96.3,17.8 L74.4,19.5 Z" fill="#d6d2c9" stroke="#bab6ad" stroke-width="0.4"></path><path d="M-60.5,244.2 L-34.7,242.8 L-28.0,242.4 L-5.0,241.1 L-0.4,238.1 L21.0,236.5 L26.5,239.6 L43.5,238.6 L48.1,235.4 L68.9,233.7 L75.0,237.1 L102.7,235.3 L107.9,235.3 L110.8,236.0 L112.1,236.5 L114.2,237.4 L117.1,240.1 L119.1,242.9 L118.8,231.1 L143.4,226.9 L183.7,223.4 L183.5,218.3 L191.9,217.5" fill="none" stroke="#cf828d" stroke-width="1.5" stroke-dasharray="1.6 3.0" opacity="0.62" stroke-linecap="round" stroke-linejoin="round"></path><path d="M191.9,217.5 L203.2,216.5 L213.1,215.6" fill="none" stroke="#cf828d" stroke-width="1.5" stroke-dasharray="1.6 3.0" opacity="0.62" stroke-linecap="round" stroke-linejoin="round"></path><path d="M-103.8,195.1 L34.6,187.6 L62.1,187.1 L199.6,180.5 L344.8,172.9" fill="none" stroke="#cf828d" stroke-width="1.5" stroke-dasharray="1.6 3.0" opacity="0.62" stroke-linecap="round" stroke-linejoin="round"></path><path d="M213.1,215.6 L331.8,208.8" fill="none" stroke="#cf828d" stroke-width="1.5" stroke-dasharray="1.6 3.0" opacity="0.62" stroke-linecap="round" stroke-linejoin="round"></path><path d="M113.5,272.6 L112.9,244.3 L112.1,236.5 L111.0,225.4 L107.4,215.9" fill="none" stroke="#cec8bb" stroke-width="3.5" stroke-linecap="round" stroke-linejoin="round"/><path d="M113.5,272.6 L112.9,244.3 L112.1,236.5 L111.0,225.4 L107.4,215.9" fill="none" stroke="#ffffff" stroke-width="2.5" stroke-linecap="round" stroke-linejoin="round"></path><path d="M202.3,199.5 L203.2,216.5 L203.5,221.2 L204.4,238.8" fill="none" stroke="#cec8bb" stroke-width="3.5" stroke-linecap="round" stroke-linejoin="round"/><path d="M202.3,199.5 L203.2,216.5 L203.5,221.2 L204.4,238.8" fill="none" stroke="#ffffff" stroke-width="2.5" stroke-linecap="round" stroke-linejoin="round"></path><path d="M204.4,238.8 L331.6,233.8" fill="none" stroke="#cec8bb" stroke-width="3.5" stroke-linecap="round" stroke-linejoin="round"/><path d="M204.4,238.8 L331.6,233.8" fill="none" stroke="#ffffff" stroke-width="2.5" stroke-linecap="round" stroke-linejoin="round"></path><path d="M-220.8,115.7 L354.9,86.2" fill="none" stroke="#cec8bb" stroke-width="4.8" stroke-linecap="round" stroke-linejoin="round"/><path d="M-220.8,115.7 L354.9,86.2" fill="none" stroke="#ffffff" stroke-width="3.7" stroke-linecap="round" stroke-linejoin="round"><title>North Venetian Drive</title></path><path d="M202.3,199.5 L281.4,194.8" fill="none" stroke="#d1c4aa" stroke-width="6.4" stroke-linecap="round" stroke-linejoin="round"/><path d="M202.3,199.5 L281.4,194.8" fill="none" stroke="#f1c77d" stroke-width="5.0" stroke-linecap="round" stroke-linejoin="round"><title>Venetian Way</title></path><path d="M202.3,199.5 L183.5,192.6 L78.8,198.1 L66.2,199.2 L53.7,200.9 L40.3,202.6 L26.8,203.8" fill="none" stroke="#d1c4aa" stroke-width="6.4" stroke-linecap="round" stroke-linejoin="round"/><path d="M202.3,199.5 L183.5,192.6 L78.8,198.1 L66.2,199.2 L53.7,200.9 L40.3,202.6 L26.8,203.8" fill="none" stroke="#f1c77d" stroke-width="5.0" stroke-linecap="round" stroke-linejoin="round"><title>Venetian Way</title></path><path d="M107.4,215.9 L105.3,212.3 L102.6,209.3 L99.4,206.9 L94.8,204.8 L78.8,198.1" fill="none" stroke="#d1c4aa" stroke-width="5.4" stroke-linecap="round" stroke-linejoin="round"/><path d="M107.4,215.9 L105.3,212.3 L102.6,209.3 L99.4,206.9 L94.8,204.8 L78.8,198.1" fill="none" stroke="#f1c77d" stroke-width="4.0" stroke-linecap="round" stroke-linejoin="round"></path><path d="M-28.8,224.6 L-14.7,224.0 L28.5,221.6 L51.5,220.3 L70.6,218.8 L92.5,217.1 L107.4,215.9" fill="none" stroke="#d1c4aa" stroke-width="6.4" stroke-linecap="round" stroke-linejoin="round"/><path d="M-28.8,224.6 L-14.7,224.0 L28.5,221.6 L51.5,220.3 L70.6,218.8 L92.5,217.1 L107.4,215.9" fill="none" stroke="#f1c77d" stroke-width="5.0" stroke-linecap="round" stroke-linejoin="round"><title>Venetian Way</title></path><path d="M26.8,203.8 L-15.3,206.0 L-29.7,206.8" fill="none" stroke="#d1c4aa" stroke-width="6.4" stroke-linecap="round" stroke-linejoin="round"/><path d="M26.8,203.8 L-15.3,206.0 L-29.7,206.8" fill="none" stroke="#f1c77d" stroke-width="5.0" stroke-linecap="round" stroke-linejoin="round"><title>Venetian Way</title></path><path d="M107.4,215.9 L184.9,208.9 L202.3,199.5" fill="none" stroke="#d1c4aa" stroke-width="6.4" stroke-linecap="round" stroke-linejoin="round"/><path d="M107.4,215.9 L184.9,208.9 L202.3,199.5" fill="none" stroke="#f1c77d" stroke-width="5.0" stroke-linecap="round" stroke-linejoin="round"><title>Venetian Way</title></path><g transform="translate(131.2 195.3) rotate(177.0)"><path d="M -3.6 -3.2 L 4.4 0 L -3.6 3.2 Z" fill="#58656d" opacity="0.46"/></g><g transform="translate(146.1 212.4) rotate(-5.2)"><path d="M -3.6 -3.2 L 4.4 0 L -3.6 3.2 Z" fill="#58656d" opacity="0.46"/></g><text x="131.2" y="195.3" transform="rotate(-3.0 131.2 195.3)" text-anchor="middle" dominant-baseline="central" font-family="Arial, sans-serif" font-size="8.3" textLength="63.7" lengthAdjust="spacing" font-weight="650" paint-order="stroke" stroke="#fffaf0" stroke-width="2.05" stroke-linejoin="round" fill="#6f573d">Venetian Way</text><text x="128.0" y="97.8" transform="rotate(-2.9 128.0 97.8)" text-anchor="middle" dominant-baseline="central" font-family="Arial, sans-serif" font-size="8.3" textLength="106.2" lengthAdjust="spacing" font-weight="650" paint-order="stroke" stroke="#fffaf0" stroke-width="2.05" stroke-linejoin="round" fill="#695f54">North Venetian Drive</text><text x="206.3" y="54.2" text-anchor="middle" font-family="Arial, sans-serif" font-size="6.5" textLength="18.0" lengthAdjust="spacing" font-weight="500" paint-order="stroke" stroke="#f3f5ee" stroke-width="1.55" stroke-linejoin="round" fill="#6f777a">1101</text><text x="16.5" y="148.3" text-anchor="middle" font-family="Arial, sans-serif" font-size="6.5" textLength="18.0" lengthAdjust="spacing" font-weight="500" paint-order="stroke" stroke="#f3f5ee" stroke-width="1.55" stroke-linejoin="round" fill="#6f777a">1030</text><text x="55.8" y="137.7" text-anchor="middle" font-family="Arial, sans-serif" font-size="6.5" textLength="18.0" lengthAdjust="spacing" font-weight="500" paint-order="stroke" stroke="#f3f5ee" stroke-width="1.55" stroke-linejoin="round" fill="#6f777a">1040</text><text x="241.0" y="41.8" text-anchor="middle" font-family="Arial, sans-serif" font-size="6.5" textLength="18.0" lengthAdjust="spacing" font-weight="500" paint-order="stroke" stroke="#f3f5ee" stroke-width="1.55" stroke-linejoin="round" fill="#6f777a">1111</text><text x="165.4" y="137.2" text-anchor="middle" font-family="Arial, sans-serif" font-size="6.5" textLength="18.0" lengthAdjust="spacing" font-weight="500" paint-order="stroke" stroke="#f3f5ee" stroke-width="1.55" stroke-linejoin="round" fill="#6f777a">1098</text><text x="216.1" y="139.2" text-anchor="middle" font-family="Arial, sans-serif" font-size="6.5" textLength="18.0" lengthAdjust="spacing" font-weight="500" paint-order="stroke" stroke="#f3f5ee" stroke-width="1.55" stroke-linejoin="round" fill="#6f777a">1100</text><text x="84.0" y="42.3" text-anchor="middle" font-family="Arial, sans-serif" font-size="6.5" textLength="18.0" lengthAdjust="spacing" font-weight="500" paint-order="stroke" stroke="#f3f5ee" stroke-width="1.55" stroke-linejoin="round" fill="#6f777a">1051</text><text x="112.5" y="41.1" text-anchor="middle" font-family="Arial, sans-serif" font-size="6.5" textLength="18.0" lengthAdjust="spacing" font-weight="500" paint-order="stroke" stroke="#f3f5ee" stroke-width="1.55" stroke-linejoin="round" fill="#6f777a">1055</text><text x="37.8" y="44.7" text-anchor="middle" font-family="Arial, sans-serif" font-size="6.5" textLength="18.0" lengthAdjust="spacing" font-weight="500" paint-order="stroke" stroke="#f3f5ee" stroke-width="1.55" stroke-linejoin="round" fill="#6f777a">1041</text><text x="155.4" y="38.2" text-anchor="middle" font-family="Arial, sans-serif" font-size="6.5" textLength="18.0" lengthAdjust="spacing" font-weight="500" paint-order="stroke" stroke="#f3f5ee" stroke-width="1.55" stroke-linejoin="round" fill="#6f777a">1061</text><text x="241.0" y="134.8" text-anchor="middle" font-family="Arial, sans-serif" font-size="6.5" textLength="18.0" lengthAdjust="spacing" font-weight="500" paint-order="stroke" stroke="#f3f5ee" stroke-width="1.55" stroke-linejoin="round" fill="#6f777a">1110</text><text x="98.5" y="141.5" text-anchor="middle" font-family="Arial, sans-serif" font-size="6.5" textLength="18.0" lengthAdjust="spacing" font-weight="500" paint-order="stroke" stroke="#f3f5ee" stroke-width="1.55" stroke-linejoin="round" fill="#6f777a">1090</text></svg>