<svg xmlns="http://www.w3.org/2000/svg" width="256" height="256" viewBox="0 0 256 256"><defs><pattern id="park-dots" width="22" height="22" patternUnits="userSpaceOnUse"><circle cx="5" cy="5" r="2.1" fill="#63a95d" fill-opacity="0.26"/><circle cx="16" cy="7" r="1.55" fill="#76b970" fill-opacity="0.23"/><circle cx="10" cy="17" r="1.9" fill="#61a65b" fill-opacity="0.24"/><circle cx="21" cy="17" r="1.25" fill="#80c174" fill-opacity="0.18"/><circle cx="1" cy="19" r="1.2" fill="#70b46a" fill-opacity="0.17"/></pattern><pattern id="park-canopy" width="54" height="48" patternUnits="userSpaceOnUse"><circle cx="12" cy="11" r="3.6" fill="#5ea75a" fill-opacity="0.22"/><circle cx="31" cy="15" r="2.9" fill="#75ba6d" fill-opacity="0.18"/><circle cx="45" cy="31" r="3.3" fill="#67ae62" fill-opacity="0.20"/><circle cx="19" cy="39" r="2.5" fill="#83c378" fill-opacity="0.16"/></pattern></defs><rect width="256" height="256" fill="#f1efe7"/><path d="M-5898.7,-4397.7 L-5683.9,-4487.0 L-5616.7,-4519.3 L-5316.2,-4663.6 L-5259.8,-4609.0 L-5254.9,-4604.3 L-5149.5,-4694.5 L-5124.4,-4713.6 L-5082.5,-4751.4 L-4846.4,-4968.2 L-4655.9,-5185.8 L-4648.6,-5199.7 L-4641.6,-5207.6 L-4630.5,-5220.3 L-4619.2,-5233.2 L-4614.6,-5238.5 L-4689.7,-5335.6 L-4590.3,-5395.2 L-4536.4,-5323.5 L-4460.2,-5410.7 L-4524.7,-5496.1 L-4444.8,-5579.4 L-4383.3,-5498.4 L-4312.7,-5578.8 L-4282.6,-5598.5 L-4135.4,-5694.0 L-4062.7,-5742.3 L-3975.1,-5799.9 L-3933.7,-5827.1 L-3828.8,-5894.8 L-3855.8,-5930.3 L-3904.1,-5995.0 L-3779.2,-6074.4 L-3733.7,-6097.9 L-3730.2,-6100.4 L-3706.2,-6118.9 L-3620.6,-6164.7 L-3614.7,-6173.9 L-3590.7,-6190.4 L-3577.7,-6209.4 L-3574.0,-6212.2 L-3553.1,-6220.3 L-3505.9,-6237.2 L-3473.6,-6251.4 L-3359.5,-6305.0 L-3358.1,-6301.3 L-3262.4,-6342.2 L-3223.3,-6292.1 L-3136.2,-6350.2 L-3123.8,-6358.7 L-3122.6,-6359.7 L-3121.4,-6361.3 L-3119.5,-6364.6 L-3118.5,-6367.7 L-3117.9,-6371.4 L-3118.0,-6374.4 L-3118.4,-6377.3 L-3118.8,-6380.6 L-3118.9,-6383.1 L-3118.7,-6385.2 L-3118.3,-6387.4 L-3116.7,-6391.4 L-3115.6,-6393.6 L-3113.1,-6397.4 L-3110.5,-6400.2 L-3097.8,-6405.3 L-3087.2,-6409.3 L-3073.7,-6413.7 L-3067.4,-6415.4 L-3056.2,-6419.1 L-3048.3,-6421.9 L-3037.4,-6426.4 L-3022.6,-6432.9 L-3006.6,-6440.4 L-2998.0,-6444.6 L-2987.2,-6450.1 L-2977.1,-6455.7 L-2967.0,-6461.7 L-2956.7,-6468.4 L-2953.5,-6470.6 L-2932.8,-6486.4 L-2915.4,-6499.8 L-2898.4,-6514.2 L-2882.5,-6529.2 L-2871.0,-6542.1 L-2859.6,-6556.0 L-2845.6,-6574.0 L-2832.8,-6592.0 L-2818.1,-6615.1 L-2808.5,-6633.0 L-2802.5,-6644.4 L-2793.6,-6663.7 L-2786.1,-6681.6 L-2779.4,-6700.9 L-2774.0,-6717.8 L-2768.1,-6745.2 L-2763.8,-6769.7 L-2761.5,-6790.7 L-2759.5,-6815.5 L-2759.3,-6842.0 L-2760.9,-6866.5 L-2765.1,-6898.5 L-2769.5,-6920.3 L-2774.5,-6940.9 L-2781.9,-6964.3 L-2788.2,-6982.2 L-2795.4,-7001.7 L-2802.2,-7017.9 L-2806.8,-7028.4 L-2808.7,-7036.1 L-2809.0,-7042.0 L-2808.4,-7047.3 L-2806.3,-7051.9 L-2803.1,-7055.8 L-2798.9,-7058.0 L-2794.4,-7058.6 L-2782.3,-7055.7 L-2748.6,-7047.6 L-2737.4,-7302.3 L-2693.7,-7756.9 L-2741.2,-7768.1 L-2746.4,-7782.4 L-2746.2,-7802.9 L-2739.6,-7849.4 L-2730.6,-7859.9 L-2722.6,-7890.1 L-2672.1,-7878.4 L-2644.3,-8168.9 L-2636.6,-8249.3 L-2652.3,-8253.2 L-2642.8,-8291.6 L-2675.1,-8299.3 L-2671.0,-8322.8 L-2665.3,-8338.3 L-2658.2,-8356.4 L-2646.2,-8381.7 L-2633.3,-8378.8 L-2615.9,-8561.5 L-2611.8,-8672.3 L-2611.0,-8692.7 L-2601.6,-8763.2 L-2582.9,-8938.9 L-2458.1,-9264.3 L-2429.6,-9353.0 L-2082.9,-9486.0 L-2049.0,-9499.6 L-2043.1,-9502.8 L-2038.5,-9507.0 L-2033.4,-9512.9 L-2029.5,-9519.8 L-2026.9,-9526.6 L-2026.3,-9536.5 L-2026.8,-9548.8 L-2031.4,-9704.3 L-2033.1,-9734.4 L-2033.6,-9755.1 L-2034.3,-9795.3 L-2035.1,-9807.9 L-2036.6,-9818.5 L-2038.7,-9827.9 L-2041.8,-9837.5 L-2046.7,-9848.8 L-2053.9,-9860.9 L-2060.9,-9870.5 L-2066.3,-9879.6 L-2071.8,-9891.7 L-2076.4,-9903.3 L-2078.2,-9912.8 L-2079.6,-9923.3 L-2080.3,-9933.8 L-2080.0,-9944.0 L-2078.8,-9955.9 L-2076.0,-9967.6 L-2072.3,-9978.0 L-2068.4,-9987.5 L-2063.4,-9996.7 L-2057.3,-10007.9 L-2053.3,-10018.0 L-2049.8,-10030.9 L-2043.4,-10040.7 L-2045.6,-10129.9 L-2048.9,-10135.1 L-2049.9,-10195.7 L-2051.6,-10267.2 L-2050.4,-10277.1 L-2047.2,-10287.2 L-2039.2,-10303.0 L-1985.7,-10418.1 L-1984.6,-10420.0 L-1975.2,-10440.5 L-1966.3,-10459.9 L-1956.3,-10479.9 L-1946.5,-10500.5 L-1941.7,-10510.5 L-1889.1,-10618.4 L-1832.9,-10737.6 L-1711.3,-10984.4 L-1784.4,-11066.3 L-1844.0,-10939.3 L-1895.5,-10829.4 L-1903.3,-10813.8 L-1919.2,-10781.3 L-1951.0,-10784.0 L-1959.7,-10784.5 L-1962.8,-10781.7 L-1958.6,-10777.9 L-1974.9,-10763.4 L-1987.8,-10751.5 L-1990.2,-10700.6 L-1995.0,-10690.4 L-2010.6,-10691.0 L-2013.2,-10691.9 L-2217.6,-10776.3 L-2222.0,-10778.6 L-2226.7,-10781.6 L-2234.1,-10787.2 L-2239.8,-10792.6 L-2244.6,-10797.8 L-2249.3,-10804.2 L-2252.9,-10809.8 L-2255.7,-10815.6 L-2257.9,-10821.7 L-2259.4,-10825.9 L-2260.5,-10831.0 L-2261.3,-10837.0 L-2262.1,-10845.2 L-2262.1,-10856.9 L-2263.5,-10896.6 L-2257.9,-10896.9 L-2258.7,-10917.9 L-2259.6,-10952.5 L-2254.4,-10952.6 L-2254.8,-10976.2 L-2260.7,-10976.1 L-2263.4,-11075.5 L-2257.8,-11075.8 L-2258.7,-11099.1 L-2264.1,-11098.9 L-2266.4,-11172.4 L-2239.4,-11201.5 L-2204.9,-11202.7 L-2179.2,-11203.6 L-2145.3,-11204.7 L-2112.7,-11205.7 L-2083.5,-11206.7 L-2070.8,-11207.3 L-2071.4,-11218.6 L-2071.6,-11230.4 L-2073.5,-11268.7 L-2074.2,-11341.8 L-2075.2,-11343.1 L-2075.4,-11350.3 L-2073.3,-11350.4 L-2078.4,-11526.5 L-2082.8,-11692.2 L-2083.5,-11697.4 L-2083.9,-11707.0 L-2156.1,-11704.4 L-2204.1,-11708.5 L-2563.4,-11696.0 L-2563.5,-11699.2 L-2564.2,-11714.5 L-2734.6,-11708.5 L-2734.9,-11736.8 L-2757.4,-11741.9 L-2761.4,-11863.0 L-2098.6,-11886.0 L-2087.6,-11901.1 L-2088.0,-11944.1 L-2088.8,-11981.3 L-2089.4,-12004.6 L-2090.3,-12027.3 L-2143.0,-12052.1 L-2145.1,-12107.2 L-2091.1,-12134.0 L-2096.0,-12261.5 L-2097.4,-12267.8 L-2151.1,-12292.9 L-2152.8,-12361.1 L-2101.8,-12387.4 L-2124.5,-12664.3 L-2118.5,-12787.5 L-2115.5,-12988.4 L-2115.7,-13206.9 L-2110.9,-13237.5 L-2110.6,-13252.3 L-2115.4,-13270.1 L-2110.4,-13270.1 L-2110.4,-13286.2 L-2107.4,-13697.2 L-2107.9,-13715.5 L-2113.6,-13715.5 L-2113.4,-13791.1 L-2116.7,-13795.8 L-2121.9,-13873.8 L-2111.6,-13945.1 L-2112.9,-14031.4 L-2116.4,-14052.1 L-2111.1,-14116.0 L-2114.7,-14193.3 L-2123.7,-14276.0 L-2140.8,-14410.0 L-2132.7,-14446.9 L-2136.3,-14482.8 L-2166.9,-14508.9 L-2211.8,-14508.5 L-2280.2,-14499.5 L-2324.7,-14499.5 L-2365.1,-14514.3 L-2418.2,-14550.7 L-2418.2,-14616.0 L-2419.6,-14696.3 L-2414.4,-14763.2 L-2396.8,-14815.4 L-2102.1,-14820.9 L-2095.3,-15238.8 L-2095.3,-15840.4 L-2098.4,-16058.7 L13813.8,-22630.4 L13813.8,13587.8 L-5898.7,13587.8 L-5898.7,-4397.7 Z" fill="#add7e1" stroke="none"><title>Biscayne Bay</title></path><path d="M-13290.8,4887.5 L-13835.0,4485.8 L-13878.5,4453.8 L-13925.7,4443.5 L-13959.0,4415.5 L-13985.6,4412.4 L-14071.6,4418.1 L-14071.5,4410.0 L-14076.3,4402.4 L-14085.9,4396.5 L-14272.7,4315.6 L-14285.4,4309.8 L-14296.5,4306.6 L-14310.3,4305.5 L-14324.2,4305.2 L-14370.6,4305.2 L-14382.9,4304.5 L-14395.0,4302.1 L-14407.8,4297.1 L-14423.2,4293.0 L-14434.4,4292.0 L-14467.3,4290.6 L-14478.3,4288.6 L-14492.3,4284.1 L-14506.0,4280.6 L-14519.3,4277.5 L-14529.7,4273.3 L-14542.3,4265.5 L-14553.5,4257.1 L-14564.4,4248.9 L-14573.3,4244.7 L-14580.1,4243.3 L-14586.2,4243.7 L-14592.7,4245.5 L-14600.3,4249.4 L-14606.3,4256.0 L-14614.4,4263.9 L-14623.4,4272.2 L-14633.6,4277.8 L-14646.5,4282.0 L-14657.2,4284.6 L-14670.1,4286.6 L-14691.7,4289.1 L-14745.9,4291.7 L-14791.9,4294.0 L-14811.7,4301.1 L-14852.3,4302.5 L-14857.8,4294.0 L-14863.9,4290.1 L-14870.2,4288.9 L-14914.0,4291.4 L-14933.0,4298.2 L-14956.3,4298.4 L-14972.0,4296.1 L-14984.9,4292.2 L-15032.0,4295.0 L-15156.6,4304.7 L-15185.3,4305.5 L-15195.1,4305.3 L-15203.9,4303.1 L-15214.1,4298.0 L-15221.6,4292.0 L-15254.0,4292.1 L-15281.1,4291.7 L-15288.4,4296.2 L-15325.7,4297.1 L-15330.5,4305.0 L-15335.8,4305.2 L-15345.0,4303.0 L-15361.5,4301.0 L-15378.5,4301.9 L-15383.7,4303.5 L-15389.0,4302.6 L-15392.6,4299.1 L-15398.7,4295.6 L-15421.4,4295.7 L-15444.3,4296.9 L-15466.0,4309.7 L-15476.7,4314.8 L-15488.9,4317.5 L-15499.0,4318.2 L-15508.1,4316.8 L-15529.1,4307.8 L-15541.1,4304.0 L-15551.3,4302.5 L-15596.0,4303.1 L-15598.8,4297.7 L-15638.3,4298.6 L-15665.5,4303.6 L-15683.4,4305.7 L-15693.0,4307.8 L-15696.7,4305.3 L-15703.5,4304.4 L-15767.2,4298.6 L-15772.7,4301.6 L-15779.4,4303.0 L-15788.2,4303.1 L-15788.2,4299.9 L-15827.7,4292.5 L-15852.6,4287.7 L-15912.8,4267.5 L-15916.1,4272.0 L-15956.3,4259.6 L-15964.7,4256.8 L-15960.6,4242.8 L-15965.4,4241.3 L-15966.4,4239.8 L-15969.0,4239.0 L-15972.6,4238.5 L-15977.0,4236.3 L-15975.5,4235.0 L-15993.3,4220.5 L-16022.9,4193.7 L-16038.8,4179.7 L-16050.1,4167.4 L-16056.4,4159.1 L-16065.8,4146.3 L-16071.2,4136.4 L-16088.0,4115.3 L-16089.6,4114.1 L-16090.7,4114.0 L-16091.9,4114.2 L-16094.1,4114.3 L-16096.1,4113.3 L-16100.3,4110.6 L-16108.9,4106.1 L-16113.1,4102.5 L-16118.0,4098.2 L-16124.7,4094.6 L-16135.2,4091.3 L-16146.3,4089.3 L-16155.8,4089.1 L-16153.1,4063.9 L-16150.9,4031.0 L-16140.6,4032.0 L-16130.3,4033.8 L-16116.8,4037.8 L-16106.9,4041.5 L-16098.0,4045.6 L-16089.4,4049.6 L-16081.3,4054.2 L-16074.7,4059.3 L-16065.9,4066.1 L-16056.7,4073.0 L-16054.6,4074.3 L-16052.7,4074.7 L-16027.5,4073.6 L-16027.2,4079.3 L-16028.7,4081.8 L-16047.6,4083.6 L-16042.8,4093.4 L-16039.5,4092.2 L-16036.5,4095.2 L-16034.6,4098.1 L-16033.0,4100.3 L-16029.1,4105.5 L-16027.6,4111.2 L-16021.5,4119.6 L-16007.1,4128.7 L-15989.2,4137.8 L-15967.8,4151.3 L-15958.0,4155.9 L-15937.4,4167.6 L-15927.7,4172.7 L-15910.0,4179.2 L-15875.2,4188.5 L-15854.8,4193.4 L-15836.2,4195.3 L-15826.3,4196.6 L-15824.1,4196.4 L-15823.2,4195.1 L-15822.9,4188.5 L-15799.8,4188.5 L-15799.3,4195.9 L-15750.9,4198.4 L-15703.7,4199.8 L-15671.6,4198.6 L-15661.0,4197.8 L-15653.3,4196.8 L-15647.0,4195.0 L-15641.2,4191.5 L-15638.3,4186.8 L-15639.4,4109.3 L-15619.9,4108.2 L-15618.2,4183.8 L-15617.1,4185.7 L-15613.2,4188.4 L-15608.7,4189.7 L-15505.3,4189.9 L-15505.8,4156.6 L-15497.7,4156.4 L-15494.3,4189.9 L-15430.5,4189.3 L-15430.5,4185.7 L-15424.2,4185.6 L-15424.0,4188.2 L-14998.5,4180.1 L-14967.7,4176.5 L-14930.1,4175.4 L-14894.5,4180.1 L-14882.6,4179.1 L-14873.9,4177.4 L-14865.8,4174.5 L-14855.3,4170.5 L-14641.4,4166.7 L-14641.5,4151.9 L-14521.8,4149.8 L-14521.7,4166.1 L-14470.9,4167.9 L-14467.0,4167.8 L-14463.4,4167.5 L-14458.7,4166.9 L-14454.9,4165.9 L-14451.2,4164.7 L-14444.9,4161.7 L-14442.0,4166.7 L-14435.8,4162.8 L-14430.1,4158.2 L-14425.3,4153.2 L-14421.1,4147.3 L-14417.2,4140.0 L-14424.5,4135.9 L-14422.5,4129.8 L-14421.2,4123.5 L-14420.5,4117.5 L-14420.4,4112.8 L-14420.6,4108.4 L-14421.3,4070.5 L-14427.4,4064.9 L-14422.2,4059.4 L-14427.5,4054.8 L-14421.5,4047.7 L-14428.0,4042.0 L-14422.8,4036.5 L-14428.0,4031.5 L-14421.9,4025.0 L-14428.2,4018.6 L-14415.1,4004.2 L-14412.8,4004.1 L-14418.5,3789.6 L-14370.4,3788.5 L-14368.1,3789.7 L-14365.5,3791.7 L-14363.6,3793.4 L-14362.8,3795.4 L-14362.1,3797.8 L-14361.9,3800.2 L-14357.8,4133.5 L-14355.9,4144.3 L-14353.2,4151.6 L-14349.0,4160.6 L-14344.1,4169.4 L-14339.0,4176.4 L-14334.9,4180.7 L-14330.5,4184.1 L-14325.4,4187.1 L-14320.1,4189.1 L-14312.9,4191.2 L-14304.0,4192.9 L-14293.2,4194.9 L-14280.6,4197.2 L-14268.6,4199.8 L-14255.3,4202.2 L-14242.7,4204.9 L-14238.7,4205.7 L-14233.8,4206.7 L-14229.0,4207.3 L-14224.8,4207.4 L-14220.0,4207.4 L-14216.3,4207.2 L-14212.6,4206.5 L-14209.4,4205.7 L-14206.0,4204.7 L-14203.1,4203.4 L-14197.3,4200.6 L-14192.2,4197.6 L-14187.1,4193.9 L-14181.2,4188.2 L-14175.7,4182.0 L-14172.7,4176.7 L-14170.0,4170.2 L-14168.6,4164.9 L-14167.8,4159.2 L-14167.3,4153.8 L-14167.3,4148.8 L-14174.6,3791.6 L-14164.2,3780.9 L-14160.4,3780.5 L-14158.9,3779.1 L-14137.2,3778.5 L-14135.3,3775.3 L-14132.0,3776.2 L-14126.5,3781.3 L-14122.7,3786.6 L-14118.9,3793.2 L-14111.7,4192.4 L-14111.0,4199.4 L-14109.7,4213.3 L-14108.4,4216.1 L-14109.4,4216.8 L-14107.6,4220.7 L-14105.3,4225.3 L-14103.3,4228.2 L-14100.9,4231.7 L-14097.6,4235.5 L-14093.7,4239.5 L-14089.0,4243.5 L-14084.8,4246.6 L-14080.2,4249.1 L-14075.8,4251.3 L-14071.1,4252.8 L-14070.5,4251.4 L-14004.3,4275.4 L-13996.0,4278.5 L-13992.2,4279.9 L-13986.3,4282.0 L-13982.0,4283.0 L-13978.3,4283.5 L-13974.9,4283.5 L-13970.1,4283.1 L-13964.9,4282.6 L-13960.3,4281.6 L-13955.6,4280.3 L-13952.1,4278.9 L-13948.4,4277.2 L-13945.4,4275.3 L-13941.6,4272.5 L-13936.8,4268.3 L-13932.4,4264.0 L-13927.6,4258.0 L-13924.2,4252.4 L-13921.4,4246.2 L-13919.4,4239.3 L-13918.2,4232.3 L-13917.5,4219.8 L-13917.8,4194.3 L-13925.1,3788.2 L-13925.1,3783.7 L-13924.3,3780.5 L-13922.9,3777.9 L-13920.0,3775.5 L-13916.7,3773.8 L-13913.0,3773.2 L-13882.9,3772.2 L-13879.3,3772.8 L-13876.1,3774.2 L-13873.8,3776.4 L-13871.2,3780.2 L-13869.7,3785.6 L-13868.8,3792.9 L-13861.3,4313.8 L-13860.9,4316.9 L-13860.3,4320.0 L-13859.4,4323.2 L-13858.3,4326.7 L-13857.1,4330.2 L-13855.7,4333.4 L-13854.5,4336.1 L-13853.2,4338.5 L-13851.3,4341.5 L-13849.2,4344.1 L-13847.3,4346.5 L-13844.4,4349.6 L-13841.6,4352.3 L-13838.5,4354.8 L-13835.2,4357.3 L-13826.0,4363.1 L-13825.1,4362.0 L-13817.0,4366.5 L-13807.4,4371.7 L-13801.9,4374.7 L-13795.8,4378.3 L-13789.5,4382.0 L-13783.0,4386.0 L-13775.7,4390.5 L-13768.5,4395.0 L-13761.3,4399.3 L-13755.3,4403.0 L-13748.6,4407.3 L-13741.5,4411.9 L-13734.7,4416.4 L-13728.4,4420.7 L-13729.1,4421.6 L-13720.3,4427.7 L-13711.2,4433.8 L-13708.4,4435.5 L-13705.3,4437.2 L-13700.9,4439.3 L-13696.8,4440.8 L-13692.4,4442.0 L-13688.5,4443.0 L-13683.9,4443.7 L-13678.8,4444.3 L-13674.4,4444.3 L-13670.7,4444.0 L-13667.5,4443.3 L-13663.4,4442.2 L-13659.3,4440.9 L-13655.5,4439.6 L-13652.0,4437.9 L-13648.4,4436.0 L-13644.9,4433.8 L-13641.3,4431.0 L-13638.1,4428.1 L-13635.0,4425.0 L-13632.1,4421.8 L-13629.1,4417.4 L-13626.6,4413.0 L-13624.2,4408.1 L-13622.8,4404.3 L-13621.7,4400.3 L-13620.9,4396.0 L-13620.5,4391.7 L-13620.8,4386.8 L-13680.1,3819.1 L-13676.0,3818.7 L-13679.3,3790.3 L-13682.3,3790.5 L-13684.7,3777.4 L-13683.9,3774.7 L-13681.4,3770.7 L-13676.3,3766.8 L-13669.6,3766.0 L-13642.7,3765.1 L-13638.2,3766.0 L-13635.1,3767.5 L-13631.8,3770.1 L-13629.5,3772.5 L-13627.9,3775.0 L-13562.9,4411.9 L-13561.4,4417.4 L-13558.6,4424.2 L-13556.2,4428.6 L-13553.6,4433.3 L-13550.2,4437.9 L-13547.4,4441.1 L-13544.3,4444.3 L-13540.9,4447.0 L-13537.9,4449.1 L-13533.7,4451.8 L-13530.0,4453.7 L-13525.1,4455.8 L-13520.5,4457.2 L-13515.3,4458.3 L-13511.3,4458.9 L-13507.8,4459.0 L-13503.7,4459.1 L-13362.5,4456.2 L-13357.9,4455.6 L-13353.5,4453.5 L-13350.3,4450.6 L-13348.1,4446.2 L-13347.3,4442.2 L-13347.5,4438.2 L-13419.0,3756.1 L-13482.0,3673.9 L-13484.8,3676.2 L-13539.6,3599.7 L-13540.6,3583.5 L-13542.3,3580.1 L-13545.2,3577.0 L-13548.9,3571.8 L-13549.2,3564.2 L-13555.7,3561.7 L-13562.0,3561.6 L-13570.5,3565.8 L-13560.9,3583.8 L-13573.0,3589.6 L-13582.1,3581.2 L-13589.9,3576.4 L-13595.2,3574.6 L-13608.2,3574.1 L-13614.8,3560.7 L-13573.3,3543.7 L-13575.3,3540.3 L-13584.1,3528.5 L-13585.5,3529.2 L-13894.4,3124.7 L-13899.1,3058.0 L-13896.6,3057.4 L-13908.5,2935.1 L-13913.1,2923.8 L-13918.1,2911.1 L-13921.9,2901.3 L-13926.5,2888.8 L-13941.5,2846.7 L-13947.6,2849.4 L-13956.5,2815.3 L-13955.0,2815.0 L-13986.1,2730.7 L-13989.5,2583.3 L-13985.9,2583.3 L-13985.4,2570.4 L-13983.6,2557.7 L-13982.9,2553.0 L-13984.2,2549.2 L-13980.0,2529.1 L-13941.7,2461.3 L-13961.8,2449.1 L-13946.9,2424.4 L-13927.5,2435.8 L-13925.8,2433.2 L-13919.7,2436.3 L-13913.1,2438.9 L-13905.5,2441.3 L-13899.8,2442.5 L-13894.4,2442.7 L-13888.0,2441.6 L-13881.7,2439.5 L-13875.5,2437.1 L-13872.6,2434.0 L-13871.5,2429.9 L-13870.0,2425.0 L-13869.7,2423.0 L-13869.8,2420.5 L-13871.2,2416.6 L-13873.8,2412.9 L-13876.8,2410.8 L-13881.2,2406.6 L-13885.0,2402.6 L-13890.6,2399.0 L-13892.9,2393.3 L-13895.6,2387.6 L-13899.9,2380.9 L-13904.8,2375.1 L-13913.8,2368.7 L-13957.4,2346.1 L-13983.2,2333.3 L-14007.3,2320.3 L-14030.2,2307.6 L-14045.0,2298.0 L-14050.7,2296.5 L-14057.0,2298.4 L-14060.5,2302.7 L-14067.6,2320.4 L-14111.7,2300.6 L-14085.3,2258.9 L-14079.5,2256.2 L-14072.4,2254.8 L-14064.1,2256.6 L-13898.4,2353.5 L-13889.4,2356.2 L-13880.0,2358.5 L-13866.7,2358.8 L-13853.2,2356.4 L-13844.6,2352.9 L-13835.2,2345.3 L-13829.7,2340.0 L-13823.8,2331.7 L-13823.9,2330.6 L-13824.3,2329.6 L-13825.2,2328.8 L-13878.8,2295.7 L-13880.1,2295.3 L-13881.5,2295.2 L-13882.9,2295.3 L-13888.0,2297.5 L-13889.9,2297.7 L-13892.0,2297.5 L-13895.1,2297.0 L-13897.5,2296.3 L-13900.9,2294.6 L-13904.2,2292.7 L-13977.9,2247.7 L-14012.6,2223.3 L-14015.9,2222.8 L-14019.2,2222.9 L-14023.1,2223.0 L-14025.7,2222.6 L-14027.9,2221.6 L-14030.5,2219.6 L-14033.4,2217.3 L-14035.4,2214.5 L-14036.6,2211.7 L-14036.8,2209.6 L-14036.5,2206.9 L-14036.0,2204.6 L-14024.2,2184.8 L-14024.2,2183.9 L-14025.1,2183.2 L-14035.9,2175.6 L-14038.0,2172.5 L-14036.8,2170.6 L-14033.3,2171.1 L-14029.5,2172.2 L-14007.3,2185.9 L-13881.5,2266.2 L-13878.9,2267.7 L-13877.1,2269.6 L-13875.9,2271.8 L-13874.6,2276.4 L-13873.7,2280.0 L-13873.2,2283.1 L-13816.4,2317.2 L-13814.4,2318.1 L-13812.0,2318.3 L-13809.2,2317.9 L-13807.2,2317.2 L-13805.5,2316.4 L-13744.4,2217.5 L-13718.8,2179.9 L-13694.9,2153.0 L-13682.8,2159.7 L-13675.0,2147.1 L-13716.5,2122.3 L-13707.7,2107.9 L-13666.2,2132.9 L-13656.9,2117.7 L-13664.4,2109.3 L-13656.8,2100.6 L-13648.6,2110.0 L-13646.6,2108.5 L-13644.3,2106.9 L-13641.1,2105.1 L-13637.8,2103.5 L-13633.7,2102.0 L-13629.8,2100.9 L-13625.6,2100.2 L-13621.4,2099.9 L-13617.4,2100.0 L-13613.5,2100.6 L-13609.8,2101.5 L-13606.7,2102.4 L-13604.0,2103.6 L-13600.2,2105.4 L-13596.7,2107.6 L-13593.7,2109.7 L-13590.7,2112.4 L-13588.0,2115.0 L-13585.0,2118.9 L-13582.9,2122.4 L-13580.8,2126.9 L-13579.4,2131.4 L-13578.2,2137.6 L-13577.8,2143.0 L-13577.9,2146.1 L-13578.3,2149.3 L-13579.4,2154.1 L-13582.2,2160.7 L-13584.0,2165.0 L-13586.5,2170.1 L-13576.1,2175.3 L-13527.5,2117.3 L-13616.0,2063.5 L-13611.5,2053.9 L-13608.3,2045.0 L-13608.1,2041.2 L-13603.0,2030.3 L-13592.5,2020.6 L-13579.5,2010.0 L-13564.0,2000.1 L-13534.9,1991.6 L-13484.7,1986.6 L-13464.9,1970.6 L-13460.8,1969.9 L-13457.5,1969.7 L-13452.8,1971.5 L-13448.5,1972.0 L-13420.6,1988.9 L-13347.2,1901.8 L-13616.2,1730.8 L-13632.9,1757.1 L-13669.2,1734.1 L-13617.7,1653.1 L-13581.5,1675.5 L-13597.6,1703.1 L-13323.9,1875.6 L-13289.4,1831.3 L-13265.0,1802.3 L-13232.8,1753.9 L-13215.0,1729.5 L-13216.8,1715.6 L-13216.3,1715.2 L-13219.5,1704.9 L-13221.6,1698.5 L-13223.6,1691.9 L-13226.0,1686.2 L-13230.6,1678.7 L-13235.2,1671.4 L-13237.2,1667.6 L-13238.7,1663.8 L-13239.8,1660.3 L-13240.2,1657.2 L-13240.7,1647.0 L-13358.9,1538.5 L-13362.8,1542.7 L-13366.1,1539.9 L-13375.7,1549.4 L-13382.0,1541.0 L-13374.4,1532.2 L-13382.0,1522.5 L-13387.2,1523.9 L-13392.6,1524.1 L-13397.5,1523.2 L-13401.8,1521.4 L-13406.8,1517.7 L-13413.0,1511.6 L-13423.9,1499.6 L-13427.2,1494.5 L-13428.4,1488.1 L-13427.6,1480.5 L-13424.7,1473.5 L-13422.2,1468.7 L-13417.4,1463.9 L-13412.1,1460.3 L-13407.0,1458.4 L-13403.2,1457.8 L-13398.2,1458.7 L-13393.1,1460.5 L-13388.3,1464.3 L-13377.2,1474.3 L-13371.5,1479.7 L-13366.3,1485.4 L-13364.6,1488.1 L-13363.4,1491.0 L-13362.7,1493.6 L-13362.2,1497.2 L-13362.8,1500.6 L-13363.8,1503.8 L-13365.2,1506.2 L-13365.6,1507.3 L-13365.3,1508.7 L-13364.5,1510.1 L-13237.6,1629.0 L-13233.2,1632.0 L-13230.1,1633.3 L-13225.7,1632.3 L-13220.5,1631.9 L-13213.9,1634.7 L-13207.3,1638.8 L-13194.4,1646.1 L-13189.0,1648.7 L-13184.1,1643.9 L-13178.7,1638.7 L-13175.1,1634.6 L-13169.1,1626.8 L-13165.7,1622.1 L-13162.1,1616.3 L-13159.8,1611.2 L-13157.3,1605.8 L-13155.0,1600.1 L-13152.9,1594.3 L-13151.7,1589.4 L-13150.3,1583.2 L-13149.7,1579.5 L-13149.3,1576.5 L-13148.6,1571.2 L-13147.9,1566.0 L-13147.6,1562.6 L-13147.4,1558.9 L-13147.4,1554.6 L-13147.6,1551.0 L-13148.3,1546.0 L-13149.1,1540.3 L-13149.9,1535.0 L-13150.4,1530.7 L-13151.0,1527.5 L-13151.7,1524.1 L-13152.5,1520.7 L-13153.7,1516.7 L-13155.1,1512.7 L-13156.2,1510.3 L-13157.4,1507.9 L-13159.1,1505.6 L-13161.4,1502.3 L-13163.9,1499.2 L-13166.6,1496.6 L-13170.0,1493.8 L-13173.5,1491.6 L-13177.0,1489.7 L-13180.2,1488.5 L-13182.4,1487.8 L-13184.9,1487.5 L-13187.9,1487.6 L-13190.7,1488.2 L-13192.9,1489.1 L-13195.0,1490.6 L-13196.5,1492.2 L-13197.7,1493.7 L-13198.6,1496.0 L-13199.1,1498.5 L-13199.0,1501.5 L-13198.8,1505.0 L-13198.8,1507.6 L-13199.0,1510.2 L-13199.4,1512.8 L-13199.9,1515.1 L-13200.8,1517.5 L-13202.2,1520.1 L-13203.9,1522.6 L-13205.6,1524.9 L-13207.3,1526.5 L-13210.7,1529.2 L-13213.5,1531.1 L-13217.9,1532.4 L-13220.5,1533.0 L-13223.5,1533.4 L-13226.2,1533.5 L-13229.8,1533.3 L-13232.4,1532.8 L-13236.0,1532.0 L-13241.0,1530.5 L-13245.2,1528.9 L-13248.3,1527.7 L-13251.6,1525.9 L-13254.5,1523.9 L-13257.7,1521.4 L-13260.2,1519.1 L-13262.3,1517.0 L-13264.5,1514.4 L-13266.3,1512.0 L-13268.0,1509.6 L-13269.5,1506.9 L-13271.1,1503.3 L-13272.5,1500.0 L-13273.9,1496.4 L-13274.8,1493.6 L-13275.5,1491.0 L-13276.0,1488.3 L-13276.4,1484.1 L-13276.7,1480.4 L-13276.5,1476.4 L-13275.6,1471.1 L-13274.1,1465.9 L-13272.2,1460.5 L-13270.9,1458.0 L-13269.6,1456.5 L-13259.3,1443.4 L-13256.9,1440.7 L-13253.8,1439.2 L-13250.5,1438.0 L-13246.8,1437.2 L-13242.7,1436.7 L-13239.1,1436.5 L-13235.5,1436.6 L-13231.9,1437.0 L-13227.8,1438.2 L-13223.5,1440.3 L-13219.8,1442.6 L-13216.5,1445.2 L-13206.1,1454.8 L-13203.6,1455.6 L-13202.2,1455.9 L-13200.5,1455.5 L-13199.4,1455.1 L-13198.0,1453.5 L-13197.4,1451.9 L-13197.3,1449.7 L-13197.2,1447.7 L-13197.6,1446.8 L-13218.6,1426.0 L-13190.0,1395.5 L-13191.6,1391.9 L-13175.1,1375.6 L-13143.3,1407.4 L-13168.9,1440.0 L-13169.1,1441.9 L-13167.8,1442.7 L-13166.2,1442.3 L-13138.1,1407.1 L-13129.9,1397.2 L-13129.6,1394.9 L-13130.3,1392.9 L-13131.8,1391.1 L-13153.8,1370.3 L-13148.3,1363.9 L-13153.9,1359.2 L-13150.7,1351.8 L-13093.7,1294.5 L-13074.1,1291.2 L-13068.0,1290.3 L-13062.2,1289.5 L-13059.5,1288.8 L-13056.3,1287.1 L-13052.5,1285.0 L-13049.6,1282.1 L-13046.8,1278.6 L-13017.7,1236.3 L-13017.1,1235.2 L-13017.4,1233.8 L-13017.8,1232.8 L-13018.5,1231.9 L-13022.0,1229.7 L-13022.9,1229.2 L-13023.7,1229.3 L-13024.6,1229.8 L-13026.5,1231.2 L-13050.9,1254.0 L-13060.4,1260.8 L-13099.4,1220.8 L-13094.9,1206.6 L-13093.0,1202.4 L-13086.9,1191.2 L-13079.8,1178.7 L-13075.5,1173.9 L-13067.8,1165.7 L-13059.6,1156.7 L-13050.6,1147.2 L-13042.9,1140.6 L-13039.2,1137.3 L-13034.3,1133.7 L-13029.8,1131.3 L-13023.4,1128.4 L-13019.4,1127.0 L-13015.4,1125.8 L-13012.3,1125.5 L-13007.9,1125.8 L-13004.2,1126.3 L-13000.0,1127.5 L-12995.9,1130.9 L-12993.4,1134.4 L-12991.9,1138.0 L-12991.3,1143.4 L-12991.5,1150.5 L-12992.4,1158.5 L-12994.1,1166.2 L-13004.4,1189.2 L-13014.2,1209.9 L-13010.8,1215.4 L-13009.0,1216.5 L-13007.1,1216.5 L-13005.4,1216.1 L-13004.1,1215.3 L-12997.4,1205.8 L-12988.8,1201.5 L-12971.7,1155.8 L-12970.5,1153.5 L-12968.8,1151.5 L-12967.1,1150.6 L-12965.5,1150.2 L-12963.2,1150.2 L-12960.8,1150.8 L-12948.3,1154.3 L-12945.9,1154.8 L-12943.1,1154.9 L-12940.5,1154.5 L-12938.4,1153.6 L-12936.6,1152.2 L-12934.8,1149.9 L-12913.8,1121.8 L-12912.8,1119.7 L-12912.3,1117.5 L-12912.3,1115.4 L-12912.7,1113.2 L-12913.5,1111.6 L-12914.7,1110.0 L-12916.1,1108.7 L-12918.1,1107.7 L-12920.0,1107.2 L-12921.9,1107.1 L-12923.5,1107.4 L-12925.4,1108.3 L-12926.8,1109.3 L-12927.9,1110.7 L-12933.4,1119.6 L-12934.6,1121.3 L-12936.0,1122.9 L-12938.1,1124.7 L-12940.0,1125.8 L-12942.3,1126.5 L-12945.1,1127.1 L-12946.7,1127.1 L-12948.9,1126.8 L-12950.8,1126.3 L-12952.4,1125.6 L-12969.6,1110.0 L-12971.6,1107.6 L-12973.1,1105.4 L-12974.5,1102.7 L-12975.4,1100.4 L-12976.0,1098.0 L-12976.5,1095.4 L-12976.8,1092.2 L-12976.9,1089.0 L-12976.6,1086.3 L-12976.2,1084.0 L-12975.7,1082.0 L-12974.9,1080.3 L-12943.6,1030.6 L-12941.6,1027.3 L-12940.4,1025.6 L-12939.0,1024.8 L-12936.7,1023.8 L-12934.3,1023.1 L-12932.0,1022.7 L-12930.7,1022.7 L-12929.4,1022.9 L-12928.3,1023.3 L-12926.7,1024.1 L-12924.8,1025.3 L-12921.6,1027.9 L-12907.3,1041.3 L-12904.9,1044.7 L-12903.5,1048.0 L-12902.2,1051.9 L-12901.8,1054.9 L-12901.6,1058.1 L-12901.6,1060.8 L-12901.9,1063.5 L-12902.4,1066.2 L-12903.0,1068.0 L-12904.6,1071.7 L-12910.3,1082.3 L-12910.9,1084.7 L-12910.9,1087.6 L-12910.7,1089.8 L-12909.9,1091.5 L-12908.4,1093.1 L-12906.0,1094.8 L-12904.0,1095.9 L-12901.7,1096.4 L-12899.0,1096.3 L-12896.8,1095.8 L-12894.3,1094.5 L-12892.1,1092.5 L-12855.1,1041.7 L-12866.4,1031.5 L-12859.6,1024.2 L-12849.5,1033.9 L-12828.7,1006.6 L-12797.2,964.5 L-12924.0,843.0 L-12951.5,871.9 L-12983.8,841.4 L-12952.6,807.8 L-12956.7,803.3 L-12950.2,797.3 L-12946.2,801.4 L-12924.5,777.8 L-12905.0,795.9 L-12902.7,810.9 L-12820.7,887.4 L-12804.7,893.6 L-12791.9,889.1 L-12767.6,898.8 L-12751.5,892.9 L-12703.6,834.4 L-12700.9,828.9 L-12700.1,821.5 L-12702.5,814.2 L-12705.7,809.0 L-12734.1,782.8 L-12733.7,775.6 L-12728.1,761.5 L-12716.9,740.6 L-12739.0,726.3 L-12730.6,723.1 L-12725.3,719.7 L-12720.0,713.7 L-12713.8,697.8 L-12702.4,668.8 L-12695.0,662.0 L-12765.2,594.0 L-12780.6,603.6 L-12784.2,604.5 L-12787.6,604.6 L-12792.0,604.1 L-12795.6,603.1 L-12799.1,601.0 L-12802.0,598.5 L-12838.3,563.5 L-12845.1,556.7 L-12848.1,553.1 L-12850.6,548.6 L-12851.8,544.5 L-12852.3,540.5 L-12852.2,536.7 L-12851.5,533.1 L-12850.6,530.2 L-12849.4,528.1 L-12846.8,524.4 L-12843.7,520.7 L-12827.4,503.8 L-12703.4,618.7 L-12711.9,628.3 L-12620.0,715.2 L-12514.1,560.1 L-12581.3,497.3 L-12589.9,505.0 L-12715.4,386.5 L-12699.0,371.2 L-12626.9,438.8 L-12619.7,428.2 L-12615.7,422.9 L-12610.6,417.7 L-12604.7,411.2 L-12598.7,407.3 L-12589.2,399.3 L-12579.7,390.5 L-12561.5,373.3 L-12518.0,324.4 L-12510.2,316.3 L-12481.5,301.6 L-12454.3,280.3 L-12451.7,278.3 L-12444.6,272.8 L-12441.5,270.0 L-12439.0,266.8 L-12437.3,263.5 L-12436.2,260.2 L-12434.9,257.7 L-12433.4,255.0 L-12430.8,250.7 L-12429.0,248.0 L-12427.2,245.5 L-12423.9,242.9 L-12420.7,240.7 L-12417.2,238.6 L-12408.9,234.6 L-12400.9,230.6 L-12399.7,230.4 L-12398.5,230.6 L-12396.1,231.3 L-12389.6,234.6 L-12384.7,237.0 L-12382.4,238.4 L-12380.3,240.1 L-12346.9,271.8 L-12344.6,273.1 L-12333.7,276.0 L-12330.2,277.0 L-12326.3,277.4 L-12323.3,277.3 L-12321.0,276.5 L-12318.7,274.9 L-12306.8,258.1 L-12306.8,255.8 L-12307.2,253.7 L-12308.5,251.4 L-12310.5,249.2 L-12319.6,240.7 L-12318.9,239.3 L-12307.2,214.5 L-12287.2,174.2 L-12269.0,160.8 L-12258.5,150.3 L-12251.3,142.0 L-12243.7,134.3 L-12235.3,127.4 L-12230.2,122.7 L-12224.8,117.8 L-12220.8,113.8 L-12218.8,110.2 L-12217.2,107.4 L-12216.2,104.7 L-12215.8,101.5 L-12215.6,98.3 L-12209.5,92.1 L-12200.5,83.6 L-12185.5,71.3 L-12169.8,59.4 L-12162.8,49.6 L-12160.2,39.5 L-12152.4,34.7 L-12142.6,34.5 L-12132.7,28.6 L-12124.0,12.9 L-12124.2,-3.4 L-12122.6,-28.6 L-12120.1,-32.2 L-12118.6,-34.6 L-12115.8,-39.2 L-12119.3,-49.9 L-12115.3,-54.9 L-12095.5,-79.4 L-12061.5,-119.1 L-12055.0,-128.5 L-12052.4,-133.4 L-12041.6,-148.3 L-12038.6,-157.7 L-12038.5,-172.2 L-12038.9,-186.7 L-12039.0,-201.5 L-12034.6,-217.8 L-12027.2,-233.9 L-12016.6,-249.4 L-12008.9,-260.9 L-11999.8,-272.4 L-11982.2,-292.0 L-11904.2,-330.6 L-11893.9,-333.3 L-11891.3,-327.7 L-11888.2,-322.3 L-11887.2,-321.3 L-11885.5,-322.0 L-11885.2,-325.8 L-11886.4,-329.0 L-11882.1,-330.3 L-11866.1,-335.0 L-11845.3,-341.2 L-11828.5,-346.2 L-11822.5,-348.0 L-11828.5,-366.9 L-11818.1,-369.7 L-11800.8,-372.1 L-11798.7,-372.4 L-11798.6,-373.6 L-11798.6,-378.0 L-11782.9,-378.7 L-11758.3,-379.7 L-11748.8,-375.1 L-11725.1,-289.7 L-11719.8,-284.6 L-11730.1,-274.0 L-11721.0,-265.0 L-11712.0,-256.0 L-11701.2,-267.0 L-11500.7,-76.4 L-11233.1,-362.0 L-11139.6,-272.6 L-11136.0,-273.7 L-11134.6,-272.1 L-11128.3,-276.1 L-11123.1,-278.0 L-11117.6,-280.5 L-11108.2,-285.4 L-11102.4,-288.7 L-11095.5,-292.7 L-11089.1,-296.7 L-11083.9,-300.1 L-11079.1,-303.2 L-11073.5,-307.3 L-11067.1,-312.0 L-11062.2,-316.1 L-11057.0,-320.7 L-11051.3,-326.1 L-11045.9,-331.5 L-11033.3,-344.9 L-11025.7,-354.0 L-11018.3,-363.9 L-11013.2,-371.1 L-11008.4,-378.5 L-11002.7,-388.8 L-10997.7,-398.9 L-10993.7,-407.2 L-10990.3,-415.5 L-10988.2,-421.0 L-10985.9,-427.2 L-10980.5,-433.9 L-11151.5,-596.6 L-11149.4,-598.9 L-11128.9,-620.9 L-11114.0,-636.7 L-11112.5,-638.3 L-11069.1,-597.7 L-11058.6,-603.1 L-11057.4,-601.6 L-10955.4,-654.7 L-10951.2,-656.9 L-10948.3,-659.2 L-10945.6,-661.7 L-10942.5,-664.9 L-10939.5,-669.4 L-10936.9,-673.6 L-10935.2,-676.8 L-10934.0,-680.9 L-10932.9,-685.4 L-10932.4,-690.3 L-10932.4,-695.8 L-10932.8,-700.2 L-10933.6,-704.1 L-10934.9,-708.8 L-10966.8,-800.6 L-10971.1,-815.7 L-10970.0,-820.9 L-11047.0,-840.0 L-11043.4,-853.3 L-11040.4,-865.3 L-11017.6,-955.5 L-11035.3,-1008.1 L-11045.7,-1042.1 L-11048.7,-1050.6 L-11021.1,-1075.9 L-10990.0,-1092.6 L-10988.1,-1090.0 L-10985.1,-1085.7 L-10978.1,-1076.6 L-10977.3,-1077.4 L-10977.1,-1080.5 L-10986.8,-1093.9 L-10969.5,-1106.3 L-10965.7,-1108.5 L-10956.7,-1096.8 L-10955.2,-1095.7 L-10953.7,-1095.4 L-10952.9,-1095.6 L-10952.9,-1096.4 L-10995.7,-1155.0 L-10998.8,-1158.4 L-11002.4,-1163.3 L-11021.0,-1185.8 L-11005.1,-1235.1 L-10992.9,-1247.8 L-10978.8,-1254.4 L-10948.8,-1272.2 L-10942.6,-1278.6 L-10915.7,-1302.2 L-10907.2,-1293.3 L-10882.3,-1266.4 L-10859.2,-1285.8 L-10843.7,-1270.9 L-10829.8,-1257.3 L-10829.1,-1256.6 L-10817.3,-1266.7 L-10801.7,-1250.1 L-10788.3,-1232.9 L-10778.4,-1221.4 L-10777.1,-1219.9 L-10748.3,-1245.2 L-10746.8,-1246.5 L-10753.6,-1254.8 L-10737.9,-1267.7 L-10690.3,-1212.2 L-10649.8,-1238.9 L-10645.8,-1242.7 L-10628.2,-1250.1 L-10624.2,-1254.0 L-10620.4,-1259.0 L-10598.7,-1278.3 L-10603.6,-1285.0 L-10642.4,-1276.1 L-10686.8,-1326.6 L-10681.7,-1331.0 L-10675.0,-1323.2 L-10643.6,-1350.2 L-10610.3,-1313.8 L-10601.3,-1310.2 L-10595.9,-1307.1 L-10589.1,-1299.4 L-10585.4,-1302.7 L-10609.5,-1330.1 L-10594.7,-1342.9 L-10564.8,-1307.0 L-10561.0,-1309.8 L-10561.4,-1310.6 L-10495.8,-1358.0 L-10476.3,-1372.4 L-10540.0,-1452.0 L-10526.4,-1461.5 L-10471.0,-1396.6 L-10430.1,-1389.1 L-10403.1,-1404.9 L-10399.3,-1407.3 L-10399.5,-1410.3 L-10401.4,-1413.8 L-10380.3,-1427.1 L-10374.1,-1420.9 L-10356.3,-1431.4 L-10369.2,-1447.4 L-10431.5,-1530.7 L-10387.5,-1576.3 L-10358.6,-1619.0 L-10357.9,-1652.4 L-10373.3,-1696.8 L-10340.9,-1723.8 L-10306.9,-1736.9 L-10295.7,-1739.5 L-10286.7,-1740.7 L-10275.7,-1740.0 L-10264.3,-1737.2 L-10247.8,-1723.1 L-10205.0,-1670.9 L-10170.8,-1627.5 L-10129.9,-1600.2 L-10113.8,-1597.6 L-10099.4,-1595.9 L-10087.2,-1595.4 L-10071.6,-1596.5 L-10054.7,-1599.3 L-10041.0,-1603.2 L-10029.4,-1608.6 L-10021.7,-1613.1 L-10016.0,-1619.1 L-10006.4,-1630.7 L-9996.0,-1649.7 L-9984.7,-1674.9 L-9964.6,-1664.6 L-9956.6,-1661.9 L-9948.0,-1660.7 L-9934.3,-1661.6 L-9925.2,-1664.3 L-9914.8,-1668.8 L-9905.1,-1674.4 L-9894.8,-1684.4 L-9886.0,-1692.4 L-9875.0,-1699.9 L-9867.4,-1704.8 L-9856.2,-1708.8 L-9836.9,-1714.4 L-9825.5,-1717.6 L-9813.3,-1722.2 L-9802.7,-1727.7 L-9796.4,-1731.3 L-9791.4,-1736.5 L-9726.0,-1769.3 L-9723.5,-1770.7 L-9720.6,-1772.5 L-9717.6,-1774.8 L-9713.2,-1777.3 L-9710.3,-1778.7 L-9707.2,-1781.4 L-9704.8,-1783.9 L-9701.6,-1786.0 L-9698.2,-1788.4 L-9693.7,-1792.6 L-9687.3,-1793.1 L-9680.7,-1793.9 L-9676.4,-1795.3 L-9670.8,-1797.9 L-9663.9,-1801.0 L-9656.6,-1805.5 L-9652.5,-1809.4 L-9647.9,-1814.7 L-9645.0,-1819.6 L-9643.4,-1824.1 L-9643.3,-1827.3 L-9643.2,-1829.9 L-9641.6,-1840.3 L-9605.2,-1861.4 L-9541.4,-1898.2 L-9529.0,-1905.3 L-9420.8,-1967.7 L-9303.6,-2035.0 L-9253.7,-2063.6 L-9236.4,-2073.3 L-9091.5,-2157.5 L-9059.3,-2175.2 L-9059.8,-2176.3 L-8993.5,-2213.8 L-8968.0,-2228.1 L-8921.0,-2254.1 L-8920.5,-2253.4 L-8902.3,-2263.4 L-8858.1,-2288.1 L-8852.8,-2292.9 L-8808.0,-2325.7 L-8785.7,-2344.2 L-8765.2,-2361.5 L-8755.8,-2366.8 L-8734.6,-2387.8 L-8732.8,-2386.7 L-8730.0,-2387.0 L-8728.6,-2386.1 L-8698.8,-2421.0 L-8706.3,-2428.0 L-8705.3,-2429.8 L-8702.1,-2434.4 L-8693.5,-2445.3 L-8688.3,-2453.2 L-8684.2,-2459.7 L-8678.5,-2468.4 L-8673.0,-2477.4 L-8666.8,-2487.7 L-8660.4,-2498.9 L-8646.5,-2527.6 L-8642.2,-2536.7 L-8638.7,-2544.0 L-8636.3,-2549.5 L-8634.2,-2553.7 L-8629.8,-2564.7 L-8745.6,-2780.7 L-8747.8,-2784.8 L-8749.5,-2787.1 L-8750.7,-2788.8 L-8752.3,-2790.2 L-8753.8,-2791.2 L-8755.8,-2792.4 L-8757.9,-2793.2 L-8759.7,-2793.6 L-8761.5,-2793.8 L-8764.2,-2793.8 L-8767.3,-2793.3 L-8770.0,-2792.5 L-8772.8,-2791.1 L-8799.7,-2775.6 L-8834.8,-2755.5 L-8859.3,-2741.9 L-8904.0,-2717.3 L-8931.4,-2702.4 L-8930.4,-2700.7 L-8942.1,-2694.0 L-8980.4,-2674.2 L-9008.8,-2657.4 L-9025.5,-2648.1 L-9050.9,-2633.5 L-9053.8,-2631.5 L-9076.1,-2671.6 L-9032.3,-2695.6 L-8972.5,-2728.1 L-8931.8,-2750.7 L-8926.8,-2753.6 L-8927.5,-2754.7 L-8892.3,-2773.9 L-8873.6,-2784.2 L-8830.7,-2805.1 L-8822.5,-2809.3 L-8757.8,-2845.3 L-8733.5,-2858.7 L-8716.4,-2867.9 L-8696.2,-2879.5 L-8668.2,-2828.9 L-8712.2,-2804.8 L-8714.5,-2801.1 L-8715.4,-2797.2 L-8715.8,-2794.2 L-8715.9,-2791.6 L-8715.7,-2789.5 L-8714.9,-2786.6 L-8625.2,-2620.7 L-8623.5,-2618.2 L-8621.5,-2616.3 L-8619.5,-2615.0 L-8617.4,-2614.3 L-8615.1,-2614.0 L-8612.9,-2614.2 L-8611.2,-2614.7 L-8571.4,-2644.9 L-8552.7,-2660.6 L-8533.4,-2676.9 L-8526.1,-2683.6 L-8502.2,-2703.2 L-8501.1,-2703.2 L-8477.9,-2723.0 L-8477.8,-2724.2 L-8462.6,-2736.7 L-8450.6,-2746.5 L-8430.0,-2763.5 L-8428.1,-2761.2 L-8407.9,-2777.9 L-8397.7,-2786.4 L-8369.4,-2809.9 L-8349.7,-2826.3 L-8351.6,-2829.1 L-8345.1,-2834.6 L-8334.4,-2843.4 L-8327.8,-2849.2 L-8299.9,-2861.7 L-8281.0,-2868.3 L-8271.3,-2872.9 L-8244.1,-2873.1 L-8234.6,-2873.1 L-8214.5,-2872.1 L-8191.0,-2871.1 L-8189.3,-2872.7 L-8187.0,-2869.7 L-8179.6,-2869.3 L-8112.3,-2863.5 L-8104.4,-2861.8 L-8097.5,-2860.7 L-8081.9,-2859.4 L-8052.8,-2858.0 L-8046.4,-2857.9 L-8040.4,-2858.1 L-8017.1,-2859.0 L-8005.1,-2859.6 L-7993.2,-2860.7 L-7974.9,-2862.6 L-7975.0,-2861.5 L-7960.5,-2864.0 L-7946.8,-2866.6 L-7936.3,-2868.5 L-7922.5,-2878.9 L-7920.9,-2876.7 L-7919.2,-2874.3 L-7797.6,-2713.5 L-7504.1,-2612.3 L-6965.5,-3007.9 L-6818.7,-3113.6 L-6762.0,-3234.6 L-6852.2,-3352.8 L-6848.2,-3369.7 L-6832.4,-3374.0 L-6802.0,-3367.7 L-6780.4,-3375.8 L-6774.4,-3384.2 L-6775.7,-3391.5 L-6791.8,-3423.1 L-6792.9,-3434.9 L-6793.8,-3458.3 L-6796.6,-3480.9 L-6793.8,-3484.9 L-6784.7,-3489.3 L-6773.6,-3491.8 L-6765.6,-3500.4 L-6763.8,-3510.8 L-6770.6,-3530.9 L-6771.3,-3544.8 L-6769.1,-3560.6 L-6758.1,-3588.3 L-6760.4,-3601.1 L-6765.9,-3615.4 L-6766.1,-3634.8 L-6769.3,-3660.4 L-6775.1,-3676.4 L-6778.7,-3684.8 L-6776.3,-3688.5 L-6774.0,-3688.3 L-6773.4,-3689.8 L-6773.1,-3691.8 L-6773.2,-3693.8 L-6776.7,-3694.2 L-6778.9,-3697.3 L-6778.5,-3701.0 L-6781.5,-3701.8 L-6785.2,-3701.9 L-6785.7,-3701.0 L-6793.3,-3710.0 L-6794.9,-3712.8 L-6796.2,-3716.7 L-6797.1,-3720.5 L-6797.8,-3724.5 L-6798.1,-3728.5 L-6798.3,-3732.1 L-6798.3,-3735.8 L-6798.0,-3737.8 L-6796.4,-3742.8 L-6794.6,-3746.8 L-6792.3,-3750.7 L-6788.9,-3755.6 L-6785.4,-3760.3 L-6782.1,-3763.7 L-6778.0,-3766.8 L-6777.2,-3766.0 L-6742.1,-3792.8 L-6737.0,-3796.7 L-6738.0,-3798.2 L-6738.0,-3800.8 L-6729.3,-3807.6 L-6727.1,-3807.5 L-6725.0,-3806.0 L-6721.3,-3808.8 L-6685.3,-3836.1 L-6685.7,-3837.0 L-6681.5,-3840.1 L-6676.5,-3843.2 L-6673.0,-3844.8 L-6668.0,-3846.7 L-6663.7,-3847.9 L-6659.4,-3848.5 L-6654.7,-3848.9 L-6651.9,-3848.7 L-6648.0,-3848.1 L-6644.2,-3846.8 L-6641.4,-3845.4 L-6638.7,-3843.8 L-6636.7,-3842.3 L-6635.0,-3840.7 L-6632.5,-3838.3 L-6631.4,-3837.9 L-6629.6,-3837.9 L-6627.8,-3838.2 L-6622.3,-3842.1 L-6622.3,-3843.2 L-6621.7,-3844.0 L-6621.1,-3845.1 L-6621.2,-3846.4 L-6621.5,-3847.5 L-6622.3,-3848.5 L-6626.2,-3852.4 L-6629.3,-3854.9 L-6632.9,-3856.9 L-6638.8,-3859.5 L-6643.9,-3861.5 L-6635.0,-3866.1 L-6624.1,-3873.7 L-6610.6,-3875.4 L-6597.1,-3874.5 L-6588.3,-3878.0 L-6580.6,-3889.0 L-6551.6,-3940.9 L-6539.8,-3962.3 L-6530.5,-3985.1 L-6528.9,-3989.9 L-6515.1,-4032.2 L-6512.9,-4036.3 L-6510.3,-4040.4 L-6477.9,-4080.5 L-6471.0,-4087.7 L-6465.9,-4092.1 L-6393.3,-4154.3 L-6389.3,-4157.0 L-6376.9,-4163.8 L-6362.0,-4172.2 L-6315.6,-4196.5 L-6214.5,-4250.8 L-6212.1,-4248.9 L-6210.2,-4248.2 L-6208.5,-4247.7 L-6206.7,-4248.0 L-6204.8,-4248.4 L-6199.4,-4249.5 L-6193.1,-4250.9 L-6187.4,-4252.2 L-6181.5,-4253.3 L-6178.3,-4254.0 L-6173.9,-4255.3 L-6168.9,-4257.4 L-6156.8,-4264.0 L-6152.4,-4266.4 L-6150.1,-4267.8 L-6147.8,-4268.8 L-6138.4,-4272.8 L-6128.1,-4276.8 L-6115.1,-4282.4 L-6099.8,-4288.7 L-6099.2,-4289.0 L-6097.9,-4289.1 L-6096.2,-4289.6 L-6093.8,-4291.4 L-6091.1,-4292.4 L-6088.1,-4293.9 L-6082.5,-4297.1 L-6080.5,-4299.1 L-6077.2,-4301.2 L-6077.5,-4301.8 L-6076.1,-4303.5 L-6074.3,-4305.4 L-6071.3,-4306.9 L-6068.8,-4307.9 L-6066.1,-4308.9 L-6063.6,-4310.2 L-6058.7,-4313.3 L-6057.3,-4314.7 L-6055.9,-4316.9 L-6055.3,-4318.5 L-6055.1,-4320.1 L-6055.3,-4321.6 L-6055.0,-4323.1 L-6069.0,-4340.0 L-6024.9,-4365.9 L-6004.0,-4377.0 L-5999.9,-4378.3 L-5993.5,-4377.1 L-5986.4,-4367.2 L-5983.2,-4364.4 L-5980.3,-4363.0 L-5977.6,-4362.4 L-5975.1,-4362.5 L-5937.3,-4378.1 L-5927.0,-4383.1 L-5917.4,-4388.4 L-5901.9,-4396.6 L-5898.7,-4397.7 L-5683.9,-4487.0 L-5616.7,-4519.3 L-5316.2,-4663.6 L1696.9,-4721.6 L1696.9,5314.0 L-13290.8,5314.0 L-13290.8,4887.5 Z" fill="#add7e1" stroke="none"><title>Biscayne Bay</title></path><path d="M1191.7,5231.3 L3434.7,5245.2 L3542.5,5276.7 L3585.2,5163.3 L3643.2,5073.6 L3809.9,4726.7 L3883.8,4638.5 L3956.2,4487.7 L4016.5,4385.1 L4061.0,4327.1 L4077.6,4272.8 L4085.1,4161.2 L4088.1,4112.9 L4092.7,4076.7 L4082.9,4011.1 L4105.5,3879.9 L4114.5,3793.9 L4134.9,3703.4 L4140.2,3635.6 L4165.1,3513.4 L4174.9,3450.1 L4220.8,3358.1 L4224.6,3306.1 L4217.8,3198.2 L4233.7,3059.5 L4235.2,2960.7 L4241.2,2763.9 L4281.9,2613.1 L4334.7,2443.4 L4412.4,2279.1 L4567.2,2072.7 L4599.2,2011.7 L4620.0,1954.6 L4626.0,1893.2 L4637.7,1835.6 L4651.3,1794.5 L4720.5,1600.2 L4743.3,1528.0 L4755.2,1504.4 L4782.8,1454.8 L4814.3,1392.3 L4828.7,1339.2 L4839.7,1283.9 L4859.4,1208.5 L4879.8,1112.2 L4904.9,979.2 L4920.8,905.9 L4935.5,829.2 L4942.9,761.4 L4948.8,660.6 L4948.4,558.2 L4942.0,498.0 L4934.4,434.3 L4920.8,348.7 L4921.1,303.6 L4918.1,251.4 L4908.3,203.6 L4882.5,140.7 L4872.8,56.2 L4874.5,3.5 L4868.8,-37.9 L4857.6,-48.7 L4832.9,-76.4 L4848.4,-89.2 L4840.5,-105.4 L4821.3,-119.8 L4774.6,-177.1 L4772.3,-197.8 L4764.7,-223.1 L4713.1,-254.7 L4692.4,-246.8 L4668.2,-206.9 L4653.9,-217.4 L4655.0,-225.7 L4671.3,-243.0 L4675.4,-267.9 L4661.9,-270.3 L4637.3,-275.9 L4623.4,-305.3 L4582.7,-306.0 L4531.8,-300.2 L4483.9,-350.3 L4468.9,-401.5 L4316.4,-465.5 L4186.3,-529.4 L4006.1,-641.4 L3878.5,-676.7 L3738.4,-627.5 L3664.8,-578.5 L3628.6,-545.4 L3508.1,-545.4 L3362.4,-567.5 L3290.3,-598.2 L3232.7,-542.2 L3314.2,-454.5 L3254.4,-386.8 L3167.6,-342.5 L3022.9,-290.8 L2944.7,-234.1 L2985.1,-30.5 L3004.2,15.8 L3017.1,32.2 L3025.6,36.4 L3034.5,37.5 L3055.8,25.0 L3110.4,-6.3 L3110.9,-6.3 L3347.0,-247.6 L3346.5,-247.6 L3421.7,-247.7 L3422.2,-247.7 L3593.2,-77.7 L3593.3,-3.3 L3459.9,133.3 L3459.4,133.3 L3356.6,238.5 L3357.1,238.5 L3393.0,273.8 L3389.1,289.7 L3388.0,301.5 L3390.6,312.4 L3402.1,315.0 L3416.1,313.7 L3428.5,305.8 L3526.5,400.7 L3536.2,397.5 L3538.9,406.1 L3545.7,417.6 L3562.2,433.3 L3578.7,449.0 L3594.5,464.1 L3612.4,481.2 L3628.4,496.5 L3644.4,511.7 L3660.2,526.7 L3640.6,565.8 L3605.6,597.8 L3501.6,632.8 L3471.6,626.8 L3420.6,650.8 L3364.2,873.7 L3305.6,909.8 L3272.6,964.8 L3236.0,944.8 L3183.5,984.3 L3176.5,1082.3 L3175.9,1107.7 L3158.8,1117.9 L3166.0,1143.3 L3174.5,1167.8 L3166.7,1174.6 L3157.3,1174.7 L3148.5,1171.8 L3095.9,1111.1 L3079.1,1105.3 L3057.4,1124.5 L3033.3,1145.8 L2987.4,1185.6 L2974.9,1205.3 L2978.7,1228.8 L3031.8,1293.0 L3012.7,1320.7 L2975.8,1311.5 L2771.2,1463.2 L2748.4,1487.5 L2749.0,1507.3 L2738.8,1524.7 L2718.4,1532.0 L2688.7,1586.1 L2645.8,1625.0 L2636.9,1647.8 L2612.8,1647.5 L2588.4,1655.4 L2556.4,1678.1 L2483.5,1744.4 L2415.5,1833.6 L2388.1,1879.8 L2376.6,1880.5 L2358.4,1905.9 L2359.1,1943.8 L2327.1,1944.8 L2297.2,1977.8 L2224.2,1987.9 L2195.1,1953.8 L2159.2,1975.9 L2148.2,2017.9 L2164.7,2070.0 L2138.0,2086.4 L2096.5,2093.9 L2005.5,2077.9 L1981.5,2102.9 L1955.0,2107.4 L1928.0,2111.4 L1843.3,2236.8 L1846.3,2270.2 L1794.0,2370.9 L1853.2,2406.6 L1867.6,2441.4 L1915.3,2452.0 L1935.0,2439.2 L2029.2,2469.6 L2062.8,2468.3 L2087.8,2443.3 L2115.8,2423.3 L2169.3,2414.3 L2190.8,2421.3 L2208.3,2431.8 L2222.3,2441.3 L2232.8,2459.8 L2226.3,2474.8 L2213.8,2485.8 L2184.8,2476.8 L2155.8,2482.8 L2134.3,2507.3 L2127.8,2539.8 L2109.2,2551.4 L2103.3,2567.2 L2099.3,2587.3 L2080.2,2602.2 L2058.4,2608.1 L2044.7,2658.3 L2080.9,2730.1 L2067.0,2744.7 L2041.3,2750.0 L2034.9,2768.0 L2032.0,2786.3 L2045.9,2812.7 L2014.3,2818.0 L1990.4,2858.9 L2010.9,2897.8 L2055.0,2914.4 L2091.4,2920.9 L2135.0,2894.5 L2183.8,2902.4 L2279.6,2886.6 L2300.9,2874.7 L2307.5,2859.8 L2293.0,2842.3 L2274.8,2826.5 L2282.7,2821.6 L2333.2,2859.8 L2348.7,2861.8 L2358.3,2853.9 L2362.2,2844.3 L2361.6,2835.4 L2351.7,2821.9 L2326.6,2792.2 L2347.1,2802.4 L2359.3,2803.8 L2369.2,2802.1 L2381.4,2805.4 L2382.7,2817.6 L2392.6,2833.1 L2400.6,2840.6 L2410.7,2849.9 L2419.0,2862.8 L2430.2,2867.4 L2437.4,2884.9 L2443.4,2904.0 L2458.6,2911.0 L2466.5,2918.5 L2474.4,2930.8 L2469.5,2944.3 L2456.3,2957.5 L2446.0,2985.2 L2447.3,2991.1 L2401.7,2998.7 L2379.7,3013.1 L2379.0,3035.1 L2363.0,3044.9 L2338.8,3045.7 L2304.7,3060.8 L2304.7,3080.5 L2246.3,3113.9 L2186.5,3124.5 L2158.4,3144.9 L2065.9,3121.3 L1926.9,3151.4 L1785.8,3170.4 L1741.1,3234.2 L1611.2,3219.7 L1502.9,3309.7 L1454.6,3370.6 L1423.6,3339.6 L1375.6,3353.2 L1376.5,3420.0 L1319.1,3426.9 L1265.1,3495.8 L1195.2,3461.6 L778.9,3087.8 L633.7,3057.0 L558.4,3133.3 L499.3,3147.7 L475.0,3227.3 L428.0,3248.5 L410.9,3210.9 L289.2,3055.5 L119.4,3074.8 L141.7,3130.5 L67.8,3193.9 L95.6,3266.4 L48.0,3286.2 L-31.6,3262.5 L-189.5,3269.1 L-364.4,3217.1 L-408.5,3233.5 L-242.2,3498.7 L-11.3,3654.4 L149.6,3753.3 L374.0,3808.8 L905.7,3936.8 L1072.0,4107.0 L1095.7,4211.2 L1157.8,4252.1 L1273.0,4814.3 L1293.5,4875.0 L1294.2,4901.5 L1301.8,4941.7 L1323.0,4956.1 L1341.2,4978.0 L1304.8,4999.3 L1303.3,5035.6 L1338.2,5086.4 L1310.9,5105.4 L1307.9,5151.6 L1258.6,5159.2 L1194.9,5199.3 L1193.0,5203.8 L1194.3,5216.6 L1191.7,5231.3 Z" fill="#d5f2cb" stroke="#9fcf91" stroke-width="0.4"><title>Crandon Park</title></path><path d="M1191.7,5231.3 L3434.7,5245.2 L3542.5,5276.7 L3585.2,5163.3 L3643.2,5073.6 L3809.9,4726.7 L3883.8,4638.5 L3956.2,4487.7 L4016.5,4385.1 L4061.0,4327.1 L4077.6,4272.8 L4085.1,4161.2 L4088.1,4112.9 L4092.7,4076.7 L4082.9,4011.1 L4105.5,3879.9 L4114.5,3793.9 L4134.9,3703.4 L4140.2,3635.6 L4165.1,3513.4 L4174.9,3450.1 L4220.8,3358.1 L4224.6,3306.1 L4217.8,3198.2 L4233.7,3059.5 L4235.2,2960.7 L4241.2,2763.9 L4281.9,2613.1 L4334.7,2443.4 L4412.4,2279.1 L4567.2,2072.7 L4599.2,2011.7 L4620.0,1954.6 L4626.0,1893.2 L4637.7,1835.6 L4651.3,1794.5 L4720.5,1600.2 L4743.3,1528.0 L4755.2,1504.4 L4782.8,1454.8 L4814.3,1392.3 L4828.7,1339.2 L4839.7,1283.9 L4859.4,1208.5 L4879.8,1112.2 L4904.9,979.2 L4920.8,905.9 L4935.5,829.2 L4942.9,761.4 L4948.8,660.6 L4948.4,558.2 L4942.0,498.0 L4934.4,434.3 L4920.8,348.7 L4921.1,303.6 L4918.1,251.4 L4908.3,203.6 L4882.5,140.7 L4872.8,56.2 L4874.5,3.5 L4868.8,-37.9 L4857.6,-48.7 L4832.9,-76.4 L4848.4,-89.2 L4840.5,-105.4 L4821.3,-119.8 L4774.6,-177.1 L4772.3,-197.8 L4764.7,-223.1 L4713.1,-254.7 L4692.4,-246.8 L4668.2,-206.9 L4653.9,-217.4 L4655.0,-225.7 L4671.3,-243.0 L4675.4,-267.9 L4661.9,-270.3 L4637.3,-275.9 L4623.4,-305.3 L4582.7,-306.0 L4531.8,-300.2 L4483.9,-350.3 L4468.9,-401.5 L4316.4,-465.5 L4186.3,-529.4 L4006.1,-641.4 L3878.5,-676.7 L3738.4,-627.5 L3664.8,-578.5 L3628.6,-545.4 L3508.1,-545.4 L3362.4,-567.5 L3290.3,-598.2 L3232.7,-542.2 L3314.2,-454.5 L3254.4,-386.8 L3167.6,-342.5 L3022.9,-290.8 L2944.7,-234.1 L2985.1,-30.5 L3004.2,15.8 L3017.1,32.2 L3025.6,36.4 L3034.5,37.5 L3055.8,25.0 L3110.4,-6.3 L3110.9,-6.3 L3347.0,-247.6 L3346.5,-247.6 L3421.7,-247.7 L3422.2,-247.7 L3593.2,-77.7 L3593.3,-3.3 L3459.9,133.3 L3459.4,133.3 L3356.6,238.5 L3357.1,238.5 L3393.0,273.8 L3389.1,289.7 L3388.0,301.5 L3390.6,312.4 L3402.1,315.0 L3416.1,313.7 L3428.5,305.8 L3526.5,400.7 L3536.2,397.5 L3538.9,406.1 L3545.7,417.6 L3562.2,433.3 L3578.7,449.0 L3594.5,464.1 L3612.4,481.2 L3628.4,496.5 L3644.4,511.7 L3660.2,526.7 L3640.6,565.8 L3605.6,597.8 L3501.6,632.8 L3471.6,626.8 L3420.6,650.8 L3364.2,873.7 L3305.6,909.8 L3272.6,964.8 L3236.0,944.8 L3183.5,984.3 L3176.5,1082.3 L3175.9,1107.7 L3158.8,1117.9 L3166.0,1143.3 L3174.5,1167.8 L3166.7,1174.6 L3157.3,1174.7 L3148.5,1171.8 L3095.9,1111.1 L3079.1,1105.3 L3057.4,1124.5 L3033.3,1145.8 L2987.4,1185.6 L2974.9,1205.3 L2978.7,1228.8 L3031.8,1293.0 L3012.7,1320.7 L2975.8,1311.5 L2771.2,1463.2 L2748.4,1487.5 L2749.0,1507.3 L2738.8,1524.7 L2718.4,1532.0 L2688.7,1586.1 L2645.8,1625.0 L2636.9,1647.8 L2612.8,1647.5 L2588.4,1655.4 L2556.4,1678.1 L2483.5,1744.4 L2415.5,1833.6 L2388.1,1879.8 L2376.6,1880.5 L2358.4,1905.9 L2359.1,1943.8 L2327.1,1944.8 L2297.2,1977.8 L2224.2,1987.9 L2195.1,1953.8 L2159.2,1975.9 L2148.2,2017.9 L2164.7,2070.0 L2138.0,2086.4 L2096.5,2093.9 L2005.5,2077.9 L1981.5,2102.9 L1955.0,2107.4 L1928.0,2111.4 L1843.3,2236.8 L1846.3,2270.2 L1794.0,2370.9 L1853.2,2406.6 L1867.6,2441.4 L1915.3,2452.0 L1935.0,2439.2 L2029.2,2469.6 L2062.8,2468.3 L2087.8,2443.3 L2115.8,2423.3 L2169.3,2414.3 L2190.8,2421.3 L2208.3,2431.8 L2222.3,2441.3 L2232.8,2459.8 L2226.3,2474.8 L2213.8,2485.8 L2184.8,2476.8 L2155.8,2482.8 L2134.3,2507.3 L2127.8,2539.8 L2109.2,2551.4 L2103.3,2567.2 L2099.3,2587.3 L2080.2,2602.2 L2058.4,2608.1 L2044.7,2658.3 L2080.9,2730.1 L2067.0,2744.7 L2041.3,2750.0 L2034.9,2768.0 L2032.0,2786.3 L2045.9,2812.7 L2014.3,2818.0 L1990.4,2858.9 L2010.9,2897.8 L2055.0,2914.4 L2091.4,2920.9 L2135.0,2894.5 L2183.8,2902.4 L2279.6,2886.6 L2300.9,2874.7 L2307.5,2859.8 L2293.0,2842.3 L2274.8,2826.5 L2282.7,2821.6 L2333.2,2859.8 L2348.7,2861.8 L2358.3,2853.9 L2362.2,2844.3 L2361.6,2835.4 L2351.7,2821.9 L2326.6,2792.2 L2347.1,2802.4 L2359.3,2803.8 L2369.2,2802.1 L2381.4,2805.4 L2382.7,2817.6 L2392.6,2833.1 L2400.6,2840.6 L2410.7,2849.9 L2419.0,2862.8 L2430.2,2867.4 L2437.4,2884.9 L2443.4,2904.0 L2458.6,2911.0 L2466.5,2918.5 L2474.4,2930.8 L2469.5,2944.3 L2456.3,2957.5 L2446.0,2985.2 L2447.3,2991.1 L2401.7,2998.7 L2379.7,3013.1 L2379.0,3035.1 L2363.0,3044.9 L2338.8,3045.7 L2304.7,3060.8 L2304.7,3080.5 L2246.3,3113.9 L2186.5,3124.5 L2158.4,3144.9 L2065.9,3121.3 L1926.9,3151.4 L1785.8,3170.4 L1741.1,3234.2 L1611.2,3219.7 L1502.9,3309.7 L1454.6,3370.6 L1423.6,3339.6 L1375.6,3353.2 L1376.5,3420.0 L1319.1,3426.9 L1265.1,3495.8 L1195.2,3461.6 L778.9,3087.8 L633.7,3057.0 L558.4,3133.3 L499.3,3147.7 L475.0,3227.3 L428.0,3248.5 L410.9,3210.9 L289.2,3055.5 L119.4,3074.8 L141.7,3130.5 L67.8,3193.9 L95.6,3266.4 L48.0,3286.2 L-31.6,3262.5 L-189.5,3269.1 L-364.4,3217.1 L-408.5,3233.5 L-242.2,3498.7 L-11.3,3654.4 L149.6,3753.3 L374.0,3808.8 L905.7,3936.8 L1072.0,4107.0 L1095.7,4211.2 L1157.8,4252.1 L1273.0,4814.3 L1293.5,4875.0 L1294.2,4901.5 L1301.8,4941.7 L1323.0,4956.1 L1341.2,4978.0 L1304.8,4999.3 L1303.3,5035.6 L1338.2,5086.4 L1310.9,5105.4 L1307.9,5151.6 L1258.6,5159.2 L1194.9,5199.3 L1193.0,5203.8 L1194.3,5216.6 L1191.7,5231.3 Z" fill="url(#park-dots)" stroke="none"/><path d="M1191.7,5231.3 L3434.7,5245.2 L3542.5,5276.7 L3585.2,5163.3 L3643.2,5073.6 L3809.9,4726.7 L3883.8,4638.5 L3956.2,4487.7 L4016.5,4385.1 L4061.0,4327.1 L4077.6,4272.8 L4085.1,4161.2 L4088.1,4112.9 L4092.7,4076.7 L4082.9,4011.1 L4105.5,3879.9 L4114.5,3793.9 L4134.9,3703.4 L4140.2,3635.6 L4165.1,3513.4 L4174.9,3450.1 L4220.8,3358.1 L4224.6,3306.1 L4217.8,3198.2 L4233.7,3059.5 L4235.2,2960.7 L4241.2,2763.9 L4281.9,2613.1 L4334.7,2443.4 L4412.4,2279.1 L4567.2,2072.7 L4599.2,2011.7 L4620.0,1954.6 L4626.0,1893.2 L4637.7,1835.6 L4651.3,1794.5 L4720.5,1600.2 L4743.3,1528.0 L4755.2,1504.4 L4782.8,1454.8 L4814.3,1392.3 L4828.7,1339.2 L4839.7,1283.9 L4859.4,1208.5 L4879.8,1112.2 L4904.9,979.2 L4920.8,905.9 L4935.5,829.2 L4942.9,761.4 L4948.8,660.6 L4948.4,558.2 L4942.0,498.0 L4934.4,434.3 L4920.8,348.7 L4921.1,303.6 L4918.1,251.4 L4908.3,203.6 L4882.5,140.7 L4872.8,56.2 L4874.5,3.5 L4868.8,-37.9 L4857.6,-48.7 L4832.9,-76.4 L4848.4,-89.2 L4840.5,-105.4 L4821.3,-119.8 L4774.6,-177.1 L4772.3,-197.8 L4764.7,-223.1 L4713.1,-254.7 L4692.4,-246.8 L4668.2,-206.9 L4653.9,-217.4 L4655.0,-225.7 L4671.3,-243.0 L4675.4,-267.9 L4661.9,-270.3 L4637.3,-275.9 L4623.4,-305.3 L4582.7,-306.0 L4531.8,-300.2 L4483.9,-350.3 L4468.9,-401.5 L4316.4,-465.5 L4186.3,-529.4 L4006.1,-641.4 L3878.5,-676.7 L3738.4,-627.5 L3664.8,-578.5 L3628.6,-545.4 L3508.1,-545.4 L3362.4,-567.5 L3290.3,-598.2 L3232.7,-542.2 L3314.2,-454.5 L3254.4,-386.8 L3167.6,-342.5 L3022.9,-290.8 L2944.7,-234.1 L2985.1,-30.5 L3004.2,15.8 L3017.1,32.2 L3025.6,36.4 L3034.5,37.5 L3055.8,25.0 L3110.4,-6.3 L3110.9,-6.3 L3347.0,-247.6 L3346.5,-247.6 L3421.7,-247.7 L3422.2,-247.7 L3593.2,-77.7 L3593.3,-3.3 L3459.9,133.3 L3459.4,133.3 L3356.6,238.5 L3357.1,238.5 L3393.0,273.8 L3389.1,289.7 L3388.0,301.5 L3390.6,312.4 L3402.1,315.0 L3416.1,313.7 L3428.5,305.8 L3526.5,400.7 L3536.2,397.5 L3538.9,406.1 L3545.7,417.6 L3562.2,433.3 L3578.7,449.0 L3594.5,464.1 L3612.4,481.2 L3628.4,496.5 L3644.4,511.7 L3660.2,526.7 L3640.6,565.8 L3605.6,597.8 L3501.6,632.8 L3471.6,626.8 L3420.6,650.8 L3364.2,873.7 L3305.6,909.8 L3272.6,964.8 L3236.0,944.8 L3183.5,984.3 L3176.5,1082.3 L3175.9,1107.7 L3158.8,1117.9 L3166.0,1143.3 L3174.5,1167.8 L3166.7,1174.6 L3157.3,1174.7 L3148.5,1171.8 L3095.9,1111.1 L3079.1,1105.3 L3057.4,1124.5 L3033.3,1145.8 L2987.4,1185.6 L2974.9,1205.3 L2978.7,1228.8 L3031.8,1293.0 L3012.7,1320.7 L2975.8,1311.5 L2771.2,1463.2 L2748.4,1487.5 L2749.0,1507.3 L2738.8,1524.7 L2718.4,1532.0 L2688.7,1586.1 L2645.8,1625.0 L2636.9,1647.8 L2612.8,1647.5 L2588.4,1655.4 L2556.4,1678.1 L2483.5,1744.4 L2415.5,1833.6 L2388.1,1879.8 L2376.6,1880.5 L2358.4,1905.9 L2359.1,1943.8 L2327.1,1944.8 L2297.2,1977.8 L2224.2,1987.9 L2195.1,1953.8 L2159.2,1975.9 L2148.2,2017.9 L2164.7,2070.0 L2138.0,2086.4 L2096.5,2093.9 L2005.5,2077.9 L1981.5,2102.9 L1955.0,2107.4 L1928.0,2111.4 L1843.3,2236.8 L1846.3,2270.2 L1794.0,2370.9 L1853.2,2406.6 L1867.6,2441.4 L1915.3,2452.0 L1935.0,2439.2 L2029.2,2469.6 L2062.8,2468.3 L2087.8,2443.3 L2115.8,2423.3 L2169.3,2414.3 L2190.8,2421.3 L2208.3,2431.8 L2222.3,2441.3 L2232.8,2459.8 L2226.3,2474.8 L2213.8,2485.8 L2184.8,2476.8 L2155.8,2482.8 L2134.3,2507.3 L2127.8,2539.8 L2109.2,2551.4 L2103.3,2567.2 L2099.3,2587.3 L2080.2,2602.2 L2058.4,2608.1 L2044.7,2658.3 L2080.9,2730.1 L2067.0,2744.7 L2041.3,2750.0 L2034.9,2768.0 L2032.0,2786.3 L2045.9,2812.7 L2014.3,2818.0 L1990.4,2858.9 L2010.9,2897.8 L2055.0,2914.4 L2091.4,2920.9 L2135.0,2894.5 L2183.8,2902.4 L2279.6,2886.6 L2300.9,2874.7 L2307.5,2859.8 L2293.0,2842.3 L2274.8,2826.5 L2282.7,2821.6 L2333.2,2859.8 L2348.7,2861.8 L2358.3,2853.9 L2362.2,2844.3 L2361.6,2835.4 L2351.7,2821.9 L2326.6,2792.2 L2347.1,2802.4 L2359.3,2803.8 L2369.2,2802.1 L2381.4,2805.4 L2382.7,2817.6 L2392.6,2833.1 L2400.6,2840.6 L2410.7,2849.9 L2419.0,2862.8 L2430.2,2867.4 L2437.4,2884.9 L2443.4,2904.0 L2458.6,2911.0 L2466.5,2918.5 L2474.4,2930.8 L2469.5,2944.3 L2456.3,2957.5 L2446.0,2985.2 L2447.3,2991.1 L2401.7,2998.7 L2379.7,3013.1 L2379.0,3035.1 L2363.0,3044.9 L2338.8,3045.7 L2304.7,3060.8 L2304.7,3080.5 L2246.3,3113.9 L2186.5,3124.5 L2158.4,3144.9 L2065.9,3121.3 L1926.9,3151.4 L1785.8,3170.4 L1741.1,3234.2 L1611.2,3219.7 L1502.9,3309.7 L1454.6,3370.6 L1423.6,3339.6 L1375.6,3353.2 L1376.5,3420.0 L1319.1,3426.9 L1265.1,3495.8 L1195.2,3461.6 L778.9,3087.8 L633.7,3057.0 L558.4,3133.3 L499.3,3147.7 L475.0,3227.3 L428.0,3248.5 L410.9,3210.9 L289.2,3055.5 L119.4,3074.8 L141.7,3130.5 L67.8,3193.9 L95.6,3266.4 L48.0,3286.2 L-31.6,3262.5 L-189.5,3269.1 L-364.4,3217.1 L-408.5,3233.5 L-242.2,3498.7 L-11.3,3654.4 L149.6,3753.3 L374.0,3808.8 L905.7,3936.8 L1072.0,4107.0 L1095.7,4211.2 L1157.8,4252.1 L1273.0,4814.3 L1293.5,4875.0 L1294.2,4901.5 L1301.8,4941.7 L1323.0,4956.1 L1341.2,4978.0 L1304.8,4999.3 L1303.3,5035.6 L1338.2,5086.4 L1310.9,5105.4 L1307.9,5151.6 L1258.6,5159.2 L1194.9,5199.3 L1193.0,5203.8 L1194.3,5216.6 L1191.7,5231.3 Z" fill="url(#park-canopy)" stroke="none"/></svg>