<svg xmlns="http://www.w3.org/2000/svg" width="256" height="256" viewBox="0 0 256 256"><rect width="256" height="256" fill="#f1efe7"/><path d="M-5898.7,722.3 L-5683.9,633.0 L-5616.7,600.7 L-5316.2,456.4 L-5259.8,511.0 L-5254.9,515.7 L-5149.5,425.5 L-5124.4,406.4 L-5082.5,368.6 L-4846.4,151.8 L-4655.9,-65.8 L-4648.6,-79.7 L-4641.6,-87.6 L-4630.5,-100.3 L-4619.2,-113.2 L-4614.6,-118.5 L-4689.7,-215.6 L-4590.3,-275.2 L-4536.4,-203.5 L-4460.2,-290.7 L-4524.7,-376.1 L-4444.8,-459.4 L-4383.3,-378.4 L-4312.7,-458.8 L-4282.6,-478.5 L-4135.4,-574.0 L-4062.7,-622.3 L-3975.1,-679.9 L-3933.7,-707.1 L-3828.8,-774.8 L-3855.8,-810.3 L-3904.1,-875.0 L-3779.2,-954.4 L-3733.7,-977.9 L-3730.2,-980.4 L-3706.2,-998.9 L-3620.6,-1044.7 L-3614.7,-1053.9 L-3590.7,-1070.4 L-3577.7,-1089.4 L-3574.0,-1092.2 L-3553.1,-1100.3 L-3505.9,-1117.2 L-3473.6,-1131.4 L-3359.5,-1185.0 L-3358.1,-1181.3 L-3262.4,-1222.2 L-3223.3,-1172.1 L-3136.2,-1230.2 L-3123.8,-1238.7 L-3122.6,-1239.7 L-3121.4,-1241.3 L-3119.5,-1244.6 L-3118.5,-1247.7 L-3117.9,-1251.4 L-3118.0,-1254.4 L-3118.4,-1257.3 L-3118.8,-1260.6 L-3118.9,-1263.1 L-3118.7,-1265.2 L-3118.3,-1267.4 L-3116.7,-1271.4 L-3115.6,-1273.6 L-3113.1,-1277.4 L-3110.5,-1280.2 L-3097.8,-1285.3 L-3087.2,-1289.3 L-3073.7,-1293.7 L-3067.4,-1295.4 L-3056.2,-1299.1 L-3048.3,-1301.9 L-3037.4,-1306.4 L-3022.6,-1312.9 L-3006.6,-1320.4 L-2998.0,-1324.6 L-2987.2,-1330.1 L-2977.1,-1335.7 L-2967.0,-1341.7 L-2956.7,-1348.4 L-2953.5,-1350.6 L-2932.8,-1366.4 L-2915.4,-1379.8 L-2898.4,-1394.2 L-2882.5,-1409.2 L-2871.0,-1422.1 L-2859.6,-1436.0 L-2845.6,-1454.0 L-2832.8,-1472.0 L-2818.1,-1495.1 L-2808.5,-1513.0 L-2802.5,-1524.4 L-2793.6,-1543.7 L-2786.1,-1561.6 L-2779.4,-1580.9 L-2774.0,-1597.8 L-2768.1,-1625.2 L-2763.8,-1649.7 L-2761.5,-1670.7 L-2759.5,-1695.5 L-2759.3,-1722.0 L-2760.9,-1746.5 L-2765.1,-1778.5 L-2769.5,-1800.3 L-2774.5,-1820.9 L-2781.9,-1844.3 L-2788.2,-1862.2 L-2795.4,-1881.7 L-2802.2,-1897.9 L-2806.8,-1908.4 L-2808.7,-1916.1 L-2809.0,-1922.0 L-2808.4,-1927.3 L-2806.3,-1931.9 L-2803.1,-1935.8 L-2798.9,-1938.0 L-2794.4,-1938.6 L-2782.3,-1935.7 L-2748.6,-1927.6 L-2737.4,-2182.3 L-2693.7,-2636.9 L-2741.2,-2648.1 L-2746.4,-2662.4 L-2746.2,-2682.9 L-2739.6,-2729.4 L-2730.6,-2739.9 L-2722.6,-2770.1 L-2672.1,-2758.4 L-2644.3,-3048.9 L-2636.6,-3129.3 L-2652.3,-3133.2 L-2642.8,-3171.6 L-2675.1,-3179.3 L-2671.0,-3202.8 L-2665.3,-3218.3 L-2658.2,-3236.4 L-2646.2,-3261.7 L-2633.3,-3258.8 L-2615.9,-3441.5 L-2611.8,-3552.3 L-2611.0,-3572.7 L-2601.6,-3643.2 L-2582.9,-3818.9 L-2458.1,-4144.3 L-2429.6,-4233.0 L-2082.9,-4366.0 L-2049.0,-4379.6 L-2043.1,-4382.8 L-2038.5,-4387.0 L-2033.4,-4392.9 L-2029.5,-4399.8 L-2026.9,-4406.6 L-2026.3,-4416.5 L-2026.8,-4428.8 L-2031.4,-4584.3 L-2033.1,-4614.4 L-2033.6,-4635.1 L-2034.3,-4675.3 L-2035.1,-4687.9 L-2036.6,-4698.5 L-2038.7,-4707.9 L-2041.8,-4717.5 L-2046.7,-4728.8 L-2053.9,-4740.9 L-2060.9,-4750.5 L-2066.3,-4759.6 L-2071.8,-4771.7 L-2076.4,-4783.3 L-2078.2,-4792.8 L-2079.6,-4803.3 L-2080.3,-4813.8 L-2080.0,-4824.0 L-2078.8,-4835.9 L-2076.0,-4847.6 L-2072.3,-4858.0 L-2068.4,-4867.5 L-2063.4,-4876.7 L-2057.3,-4887.9 L-2053.3,-4898.0 L-2049.8,-4910.9 L-2043.4,-4920.7 L-2045.6,-5009.9 L-2048.9,-5015.1 L-2049.9,-5075.7 L-2051.6,-5147.2 L-2050.4,-5157.1 L-2047.2,-5167.2 L-2039.2,-5183.0 L-1985.7,-5298.1 L-1984.6,-5300.0 L-1975.2,-5320.5 L-1966.3,-5339.9 L-1956.3,-5359.9 L-1946.5,-5380.5 L-1941.7,-5390.5 L-1889.1,-5498.4 L-1832.9,-5617.6 L-1711.3,-5864.4 L-1784.4,-5946.3 L-1844.0,-5819.3 L-1895.5,-5709.4 L-1903.3,-5693.8 L-1919.2,-5661.3 L-1951.0,-5664.0 L-1959.7,-5664.5 L-1962.8,-5661.7 L-1958.6,-5657.9 L-1974.9,-5643.4 L-1987.8,-5631.5 L-1990.2,-5580.6 L-1995.0,-5570.4 L-2010.6,-5571.0 L-2013.2,-5571.9 L-2217.6,-5656.3 L-2222.0,-5658.6 L-2226.7,-5661.6 L-2234.1,-5667.2 L-2239.8,-5672.6 L-2244.6,-5677.8 L-2249.3,-5684.2 L-2252.9,-5689.8 L-2255.7,-5695.6 L-2257.9,-5701.7 L-2259.4,-5705.9 L-2260.5,-5711.0 L-2261.3,-5717.0 L-2262.1,-5725.2 L-2262.1,-5736.9 L-2263.5,-5776.6 L-2257.9,-5776.9 L-2258.7,-5797.9 L-2259.6,-5832.5 L-2254.4,-5832.6 L-2254.8,-5856.2 L-2260.7,-5856.1 L-2263.4,-5955.5 L-2257.8,-5955.8 L-2258.7,-5979.1 L-2264.1,-5978.9 L-2266.4,-6052.4 L-2239.4,-6081.5 L-2204.9,-6082.7 L-2179.2,-6083.6 L-2145.3,-6084.7 L-2112.7,-6085.7 L-2083.5,-6086.7 L-2070.8,-6087.3 L-2071.4,-6098.6 L-2071.6,-6110.4 L-2073.5,-6148.7 L-2074.2,-6221.8 L-2075.2,-6223.1 L-2075.4,-6230.3 L-2073.3,-6230.4 L-2078.4,-6406.5 L-2082.8,-6572.2 L-2083.5,-6577.4 L-2083.9,-6587.0 L-2156.1,-6584.4 L-2204.1,-6588.5 L-2563.4,-6576.0 L-2563.5,-6579.2 L-2564.2,-6594.5 L-2734.6,-6588.5 L-2734.9,-6616.8 L-2757.4,-6621.9 L-2761.4,-6743.0 L-2098.6,-6766.0 L-2087.6,-6781.1 L-2088.0,-6824.1 L-2088.8,-6861.3 L-2089.4,-6884.6 L-2090.3,-6907.3 L-2143.0,-6932.1 L-2145.1,-6987.2 L-2091.1,-7014.0 L-2096.0,-7141.5 L-2097.4,-7147.8 L-2151.1,-7172.9 L-2152.8,-7241.1 L-2101.8,-7267.4 L-2124.5,-7544.3 L-2118.5,-7667.5 L-2115.5,-7868.4 L-2115.7,-8086.9 L-2110.9,-8117.5 L-2110.6,-8132.3 L-2115.4,-8150.1 L-2110.4,-8150.1 L-2110.4,-8166.2 L-2107.4,-8577.2 L-2107.9,-8595.5 L-2113.6,-8595.5 L-2113.4,-8671.1 L-2116.7,-8675.8 L-2121.9,-8753.8 L-2111.6,-8825.1 L-2112.9,-8911.4 L-2116.4,-8932.1 L-2111.1,-8996.0 L-2114.7,-9073.3 L-2123.7,-9156.0 L-2140.8,-9290.0 L-2132.7,-9326.9 L-2136.3,-9362.8 L-2166.9,-9388.9 L-2211.8,-9388.5 L-2280.2,-9379.5 L-2324.7,-9379.5 L-2365.1,-9394.3 L-2418.2,-9430.7 L-2418.2,-9496.0 L-2419.6,-9576.3 L-2414.4,-9643.2 L-2396.8,-9695.4 L-2102.1,-9700.9 L-2095.3,-10118.8 L-2095.3,-10720.4 L-2098.4,-10938.7 L13813.8,-17510.4 L13813.8,18707.8 L-5898.7,18707.8 L-5898.7,722.3 Z" fill="#add7e1" stroke="none"><title>Biscayne Bay</title></path><path d="M-130.0,-2354.4 L1920.6,-1940.4 L4157.5,-822.7 L5872.5,874.4 L6543.6,2530.0 L5723.4,3895.8 L4194.8,4640.7 L2740.8,4599.4 L1547.8,3771.6 L429.3,2364.4 L-950.2,750.2 L-801.1,-1153.9 Z" fill="#f1efe7" stroke="#8ab09d" stroke-width="0.65"><title>Virginia Key</title></path><path d="M-50.7,167.8 L-32.1,174.5 L-13.3,178.9 L-0.2,188.2 L10.3,188.2 L22.1,183.5 L27.1,175.1 L29.5,164.6 L30.5,150.5 L28.2,136.2 L32.5,118.5 L31.5,105.5 L24.6,91.7 L14.4,85.8 L3.0,88.3 L-15.4,98.3 L-37.9,112.2 L-51.9,134.4 L-57.8,152.8 L-55.1,162.4 L-50.7,167.8 Z" fill="#f1efe7" stroke="#8ab09d" stroke-width="0.65"></path><path d="M-1323.0,957.2 L19.2,708.8 L1510.5,812.3 L3039.1,357.0 L4791.3,-346.7 L5686.1,-760.6 L6059.0,67.2 L5425.2,1288.3 L4269.4,2240.3 L2852.6,3026.7 L1995.1,3813.0 L429.3,4040.7 L-540.1,3957.9 L-1285.7,3192.2 Z" fill="#f1efe7" stroke="#8ab09d" stroke-width="0.65"><title>Virginia Key north of Bear Cut</title></path><path d="M784.4,226.1 L296.9,-216.9" fill="none" stroke="#79bdd0" stroke-width="1.4" stroke-linecap="round" stroke-linejoin="round"></path><path d="M267.0,-160.2 L950.2,518.9" fill="none" stroke="#79bdd0" stroke-width="1.4" stroke-linecap="round" stroke-linejoin="round"></path></svg>