<svg xmlns="http://www.w3.org/2000/svg" width="256" height="256" viewBox="0 0 256 256"><defs><pattern id="park-dots" width="22" height="22" patternUnits="userSpaceOnUse"><circle cx="5" cy="5" r="2.1" fill="#63a95d" fill-opacity="0.26"/><circle cx="16" cy="7" r="1.55" fill="#76b970" fill-opacity="0.23"/><circle cx="10" cy="17" r="1.9" fill="#61a65b" fill-opacity="0.24"/><circle cx="21" cy="17" r="1.25" fill="#80c174" fill-opacity="0.18"/><circle cx="1" cy="19" r="1.2" fill="#70b46a" fill-opacity="0.17"/></pattern><pattern id="park-canopy" width="54" height="48" patternUnits="userSpaceOnUse"><circle cx="12" cy="11" r="3.6" fill="#5ea75a" fill-opacity="0.22"/><circle cx="31" cy="15" r="2.9" fill="#75ba6d" fill-opacity="0.18"/><circle cx="45" cy="31" r="3.3" fill="#67ae62" fill-opacity="0.20"/><circle cx="19" cy="39" r="2.5" fill="#83c378" fill-opacity="0.16"/></pattern></defs><rect width="256" height="256" fill="#f1efe7"/><path d="M-12042.7,466.3 L-11827.9,377.0 L-11760.7,344.7 L-11460.2,200.4 L-11403.8,255.0 L-11398.9,259.7 L-11293.5,169.5 L-11268.4,150.4 L-11226.5,112.6 L-10990.4,-104.2 L-10799.9,-321.8 L-10792.6,-335.7 L-10785.6,-343.6 L-10774.5,-356.3 L-10763.2,-369.2 L-10758.6,-374.5 L-10833.7,-471.6 L-10734.3,-531.2 L-10680.4,-459.5 L-10604.2,-546.7 L-10668.7,-632.1 L-10588.8,-715.4 L-10527.3,-634.4 L-10456.7,-714.8 L-10426.6,-734.5 L-10279.4,-830.0 L-10206.7,-878.3 L-10119.1,-935.9 L-10077.7,-963.1 L-9972.8,-1030.8 L-9999.8,-1066.3 L-10048.1,-1131.0 L-9923.2,-1210.4 L-9877.7,-1233.9 L-9874.2,-1236.4 L-9850.2,-1254.9 L-9764.6,-1300.7 L-9758.7,-1309.9 L-9734.7,-1326.4 L-9721.7,-1345.4 L-9718.0,-1348.2 L-9697.1,-1356.3 L-9649.9,-1373.2 L-9617.6,-1387.4 L-9503.5,-1441.0 L-9502.1,-1437.3 L-9406.4,-1478.2 L-9367.3,-1428.1 L-9280.2,-1486.2 L-9267.8,-1494.7 L-9266.6,-1495.7 L-9265.4,-1497.3 L-9263.5,-1500.6 L-9262.5,-1503.7 L-9261.9,-1507.4 L-9262.0,-1510.4 L-9262.4,-1513.3 L-9262.8,-1516.6 L-9262.9,-1519.1 L-9262.7,-1521.2 L-9262.3,-1523.4 L-9260.7,-1527.4 L-9259.6,-1529.6 L-9257.1,-1533.4 L-9254.5,-1536.2 L-9241.8,-1541.3 L-9231.2,-1545.3 L-9217.7,-1549.7 L-9211.4,-1551.4 L-9200.2,-1555.1 L-9192.3,-1557.9 L-9181.4,-1562.4 L-9166.6,-1568.9 L-9150.6,-1576.4 L-9142.0,-1580.6 L-9131.2,-1586.1 L-9121.1,-1591.7 L-9111.0,-1597.7 L-9100.7,-1604.4 L-9097.5,-1606.6 L-9076.8,-1622.4 L-9059.4,-1635.8 L-9042.4,-1650.2 L-9026.5,-1665.2 L-9015.0,-1678.1 L-9003.6,-1692.0 L-8989.6,-1710.0 L-8976.8,-1728.0 L-8962.1,-1751.1 L-8952.5,-1769.0 L-8946.5,-1780.4 L-8937.6,-1799.7 L-8930.1,-1817.6 L-8923.4,-1836.9 L-8918.0,-1853.8 L-8912.1,-1881.2 L-8907.8,-1905.7 L-8905.5,-1926.7 L-8903.5,-1951.5 L-8903.3,-1978.0 L-8904.9,-2002.5 L-8909.1,-2034.5 L-8913.5,-2056.3 L-8918.5,-2076.9 L-8925.9,-2100.3 L-8932.2,-2118.2 L-8939.4,-2137.7 L-8946.2,-2153.9 L-8950.8,-2164.4 L-8952.7,-2172.1 L-8953.0,-2178.0 L-8952.4,-2183.3 L-8950.3,-2187.9 L-8947.1,-2191.8 L-8942.9,-2194.0 L-8938.4,-2194.6 L-8926.3,-2191.7 L-8892.6,-2183.6 L-8881.4,-2438.3 L-8837.7,-2892.9 L-8885.2,-2904.1 L-8890.4,-2918.4 L-8890.2,-2938.9 L-8883.6,-2985.4 L-8874.6,-2995.9 L-8866.6,-3026.1 L-8816.1,-3014.4 L-8788.3,-3304.9 L-8780.6,-3385.3 L-8796.3,-3389.2 L-8786.8,-3427.6 L-8819.1,-3435.3 L-8815.0,-3458.8 L-8809.3,-3474.3 L-8802.2,-3492.4 L-8790.2,-3517.7 L-8777.3,-3514.8 L-8759.9,-3697.5 L-8755.8,-3808.3 L-8755.0,-3828.7 L-8745.6,-3899.2 L-8726.9,-4074.9 L-8602.1,-4400.3 L-8573.6,-4489.0 L-8226.9,-4622.0 L-8193.0,-4635.6 L-8187.1,-4638.8 L-8182.5,-4643.0 L-8177.4,-4648.9 L-8173.5,-4655.8 L-8170.9,-4662.6 L-8170.3,-4672.5 L-8170.8,-4684.8 L-8175.4,-4840.3 L-8177.1,-4870.4 L-8177.6,-4891.1 L-8178.3,-4931.3 L-8179.1,-4943.9 L-8180.6,-4954.5 L-8182.7,-4963.9 L-8185.8,-4973.5 L-8190.7,-4984.8 L-8197.9,-4996.9 L-8204.9,-5006.5 L-8210.3,-5015.6 L-8215.8,-5027.7 L-8220.4,-5039.3 L-8222.2,-5048.8 L-8223.6,-5059.3 L-8224.3,-5069.8 L-8224.0,-5080.0 L-8222.8,-5091.9 L-8220.0,-5103.6 L-8216.3,-5114.0 L-8212.4,-5123.5 L-8207.4,-5132.7 L-8201.3,-5143.9 L-8197.3,-5154.0 L-8193.8,-5166.9 L-8187.4,-5176.7 L-8189.6,-5265.9 L-8192.9,-5271.1 L-8193.9,-5331.7 L-8195.6,-5403.2 L-8194.4,-5413.1 L-8191.2,-5423.2 L-8183.2,-5439.0 L-8129.7,-5554.1 L-8128.6,-5556.0 L-8119.2,-5576.5 L-8110.3,-5595.9 L-8100.3,-5615.9 L-8090.5,-5636.5 L-8085.7,-5646.5 L-8033.1,-5754.4 L-7976.9,-5873.6 L-7855.3,-6120.4 L-7928.4,-6202.3 L-7988.0,-6075.3 L-8039.5,-5965.4 L-8047.3,-5949.8 L-8063.2,-5917.3 L-8095.0,-5920.0 L-8103.7,-5920.5 L-8106.8,-5917.7 L-8102.6,-5913.9 L-8118.9,-5899.4 L-8131.8,-5887.5 L-8134.2,-5836.6 L-8139.0,-5826.4 L-8154.6,-5827.0 L-8157.2,-5827.9 L-8361.6,-5912.3 L-8366.0,-5914.6 L-8370.7,-5917.6 L-8378.1,-5923.2 L-8383.8,-5928.6 L-8388.6,-5933.8 L-8393.3,-5940.2 L-8396.9,-5945.8 L-8399.7,-5951.6 L-8401.9,-5957.7 L-8403.4,-5961.9 L-8404.5,-5967.0 L-8405.3,-5973.0 L-8406.1,-5981.2 L-8406.1,-5992.9 L-8407.5,-6032.6 L-8401.9,-6032.9 L-8402.7,-6053.9 L-8403.6,-6088.5 L-8398.4,-6088.6 L-8398.8,-6112.2 L-8404.7,-6112.1 L-8407.4,-6211.5 L-8401.8,-6211.8 L-8402.7,-6235.1 L-8408.1,-6234.9 L-8410.4,-6308.4 L-8383.4,-6337.5 L-8348.9,-6338.7 L-8323.2,-6339.6 L-8289.3,-6340.7 L-8256.7,-6341.7 L-8227.5,-6342.7 L-8214.8,-6343.3 L-8215.4,-6354.6 L-8215.6,-6366.4 L-8217.5,-6404.7 L-8218.2,-6477.8 L-8219.2,-6479.1 L-8219.4,-6486.3 L-8217.3,-6486.4 L-8222.4,-6662.5 L-8226.8,-6828.2 L-8227.5,-6833.4 L-8227.9,-6843.0 L-8300.1,-6840.4 L-8348.1,-6844.5 L-8707.4,-6832.0 L-8707.5,-6835.2 L-8708.2,-6850.5 L-8878.6,-6844.5 L-8878.9,-6872.8 L-8901.4,-6877.9 L-8905.4,-6999.0 L-8242.6,-7022.0 L-8231.6,-7037.1 L-8232.0,-7080.1 L-8232.8,-7117.3 L-8233.4,-7140.6 L-8234.3,-7163.3 L-8287.0,-7188.1 L-8289.1,-7243.2 L-8235.1,-7270.0 L-8240.0,-7397.5 L-8241.4,-7403.8 L-8295.1,-7428.9 L-8296.8,-7497.1 L-8245.8,-7523.4 L-8268.5,-7800.3 L-8262.5,-7923.5 L-8259.5,-8124.4 L-8259.7,-8342.9 L-8254.9,-8373.5 L-8254.6,-8388.3 L-8259.4,-8406.1 L-8254.4,-8406.1 L-8254.4,-8422.2 L-8251.4,-8833.2 L-8251.9,-8851.5 L-8257.6,-8851.5 L-8257.4,-8927.1 L-8260.7,-8931.8 L-8265.9,-9009.8 L-8255.6,-9081.1 L-8256.9,-9167.4 L-8260.4,-9188.1 L-8255.1,-9252.0 L-8258.7,-9329.3 L-8267.7,-9412.0 L-8284.8,-9546.0 L-8276.7,-9582.9 L-8280.3,-9618.8 L-8310.9,-9644.9 L-8355.8,-9644.5 L-8424.2,-9635.5 L-8468.7,-9635.5 L-8509.1,-9650.3 L-8562.2,-9686.7 L-8562.2,-9752.0 L-8563.6,-9832.3 L-8558.4,-9899.2 L-8540.8,-9951.4 L-8246.1,-9956.9 L-8239.3,-10374.8 L-8239.3,-10976.4 L-8242.4,-11194.7 L7669.8,-17766.4 L7669.8,18451.8 L-12042.7,18451.8 L-12042.7,466.3 Z" fill="#add7e1" stroke="none"><title>Biscayne Bay</title></path><path d="M-6274.0,-2610.4 L-4223.4,-2196.4 L-1986.5,-1078.7 L-271.5,618.4 L399.6,2274.0 L-420.6,3639.8 L-1949.2,4384.7 L-3403.2,4343.4 L-4596.2,3515.6 L-5714.7,2108.4 L-7094.2,494.2 L-6945.1,-1409.9 Z" fill="#f1efe7" stroke="#8ab09d" stroke-width="0.65"><title>Virginia Key</title></path><path d="M-4362.2,2514.6 L-4354.1,2535.3 L-4328.0,2590.6 L-4316.6,2611.7 L-4134.9,2532.0 L-4051.5,2497.0 L-3879.7,2417.3 L-3777.3,2350.2 L-3583.2,2251.4 L-3380.1,2147.8 L-3322.1,2114.1 L-3327.3,2087.9 L-3169.3,2006.1 L-3113.4,1981.9 L-3099.1,2007.7 L-2948.7,1997.8 L-2633.6,1998.2 L-2335.9,1994.6 L-1996.0,1989.9 L-1699.2,1987.9 L-1559.4,2014.9 L-1234.3,2367.6 L-533.8,1745.2 L-135.7,830.6 L30.6,-111.9 L-138.7,-798.6 L-1453.6,-2006.8 L-1824.0,-2034.5 L-2005.4,-880.4 L-1962.6,-535.2 L-1118.2,-526.8 L-1128.5,-376.2 L-1128.5,155.2 L-1126.1,422.5 L-1016.7,423.3 L-1021.0,535.7 L-1034.5,562.8 L-1073.2,562.8 L-1070.7,704.6 L-1100.2,743.4 L-1030.2,770.1 L-922.8,872.5 L-874.1,995.0 L-929.4,1117.8 L-1375.5,1629.3 L-1531.0,1762.8 L-1787.3,1862.1 L-2275.0,1896.4 L-2466.5,1866.2 L-3063.0,1931.0 L-4404.3,2460.9 L-4362.2,2514.6 Z" fill="#d5f2cb" stroke="#9fcf91" stroke-width="0.4"><title>Virginia Key Beach North Point Park</title></path><path d="M-4362.2,2514.6 L-4354.1,2535.3 L-4328.0,2590.6 L-4316.6,2611.7 L-4134.9,2532.0 L-4051.5,2497.0 L-3879.7,2417.3 L-3777.3,2350.2 L-3583.2,2251.4 L-3380.1,2147.8 L-3322.1,2114.1 L-3327.3,2087.9 L-3169.3,2006.1 L-3113.4,1981.9 L-3099.1,2007.7 L-2948.7,1997.8 L-2633.6,1998.2 L-2335.9,1994.6 L-1996.0,1989.9 L-1699.2,1987.9 L-1559.4,2014.9 L-1234.3,2367.6 L-533.8,1745.2 L-135.7,830.6 L30.6,-111.9 L-138.7,-798.6 L-1453.6,-2006.8 L-1824.0,-2034.5 L-2005.4,-880.4 L-1962.6,-535.2 L-1118.2,-526.8 L-1128.5,-376.2 L-1128.5,155.2 L-1126.1,422.5 L-1016.7,423.3 L-1021.0,535.7 L-1034.5,562.8 L-1073.2,562.8 L-1070.7,704.6 L-1100.2,743.4 L-1030.2,770.1 L-922.8,872.5 L-874.1,995.0 L-929.4,1117.8 L-1375.5,1629.3 L-1531.0,1762.8 L-1787.3,1862.1 L-2275.0,1896.4 L-2466.5,1866.2 L-3063.0,1931.0 L-4404.3,2460.9 L-4362.2,2514.6 Z" fill="url(#park-dots)" stroke="none"/><path d="M-4362.2,2514.6 L-4354.1,2535.3 L-4328.0,2590.6 L-4316.6,2611.7 L-4134.9,2532.0 L-4051.5,2497.0 L-3879.7,2417.3 L-3777.3,2350.2 L-3583.2,2251.4 L-3380.1,2147.8 L-3322.1,2114.1 L-3327.3,2087.9 L-3169.3,2006.1 L-3113.4,1981.9 L-3099.1,2007.7 L-2948.7,1997.8 L-2633.6,1998.2 L-2335.9,1994.6 L-1996.0,1989.9 L-1699.2,1987.9 L-1559.4,2014.9 L-1234.3,2367.6 L-533.8,1745.2 L-135.7,830.6 L30.6,-111.9 L-138.7,-798.6 L-1453.6,-2006.8 L-1824.0,-2034.5 L-2005.4,-880.4 L-1962.6,-535.2 L-1118.2,-526.8 L-1128.5,-376.2 L-1128.5,155.2 L-1126.1,422.5 L-1016.7,423.3 L-1021.0,535.7 L-1034.5,562.8 L-1073.2,562.8 L-1070.7,704.6 L-1100.2,743.4 L-1030.2,770.1 L-922.8,872.5 L-874.1,995.0 L-929.4,1117.8 L-1375.5,1629.3 L-1531.0,1762.8 L-1787.3,1862.1 L-2275.0,1896.4 L-2466.5,1866.2 L-3063.0,1931.0 L-4404.3,2460.9 L-4362.2,2514.6 Z" fill="url(#park-canopy)" stroke="none"/></svg>