<svg xmlns="http://www.w3.org/2000/svg" width="256" height="256" viewBox="0 0 256 256"><rect width="256" height="256" fill="#f1efe7"/><path d="M-12042.7,-4397.7 L-11827.9,-4487.0 L-11760.7,-4519.3 L-11460.2,-4663.6 L-11403.8,-4609.0 L-11398.9,-4604.3 L-11293.5,-4694.5 L-11268.4,-4713.6 L-11226.5,-4751.4 L-10990.4,-4968.2 L-10799.9,-5185.8 L-10792.6,-5199.7 L-10785.6,-5207.6 L-10774.5,-5220.3 L-10763.2,-5233.2 L-10758.6,-5238.5 L-10833.7,-5335.6 L-10734.3,-5395.2 L-10680.4,-5323.5 L-10604.2,-5410.7 L-10668.7,-5496.1 L-10588.8,-5579.4 L-10527.3,-5498.4 L-10456.7,-5578.8 L-10426.6,-5598.5 L-10279.4,-5694.0 L-10206.7,-5742.3 L-10119.1,-5799.9 L-10077.7,-5827.1 L-9972.8,-5894.8 L-9999.8,-5930.3 L-10048.1,-5995.0 L-9923.2,-6074.4 L-9877.7,-6097.9 L-9874.2,-6100.4 L-9850.2,-6118.9 L-9764.6,-6164.7 L-9758.7,-6173.9 L-9734.7,-6190.4 L-9721.7,-6209.4 L-9718.0,-6212.2 L-9697.1,-6220.3 L-9649.9,-6237.2 L-9617.6,-6251.4 L-9503.5,-6305.0 L-9502.1,-6301.3 L-9406.4,-6342.2 L-9367.3,-6292.1 L-9280.2,-6350.2 L-9267.8,-6358.7 L-9266.6,-6359.7 L-9265.4,-6361.3 L-9263.5,-6364.6 L-9262.5,-6367.7 L-9261.9,-6371.4 L-9262.0,-6374.4 L-9262.4,-6377.3 L-9262.8,-6380.6 L-9262.9,-6383.1 L-9262.7,-6385.2 L-9262.3,-6387.4 L-9260.7,-6391.4 L-9259.6,-6393.6 L-9257.1,-6397.4 L-9254.5,-6400.2 L-9241.8,-6405.3 L-9231.2,-6409.3 L-9217.7,-6413.7 L-9211.4,-6415.4 L-9200.2,-6419.1 L-9192.3,-6421.9 L-9181.4,-6426.4 L-9166.6,-6432.9 L-9150.6,-6440.4 L-9142.0,-6444.6 L-9131.2,-6450.1 L-9121.1,-6455.7 L-9111.0,-6461.7 L-9100.7,-6468.4 L-9097.5,-6470.6 L-9076.8,-6486.4 L-9059.4,-6499.8 L-9042.4,-6514.2 L-9026.5,-6529.2 L-9015.0,-6542.1 L-9003.6,-6556.0 L-8989.6,-6574.0 L-8976.8,-6592.0 L-8962.1,-6615.1 L-8952.5,-6633.0 L-8946.5,-6644.4 L-8937.6,-6663.7 L-8930.1,-6681.6 L-8923.4,-6700.9 L-8918.0,-6717.8 L-8912.1,-6745.2 L-8907.8,-6769.7 L-8905.5,-6790.7 L-8903.5,-6815.5 L-8903.3,-6842.0 L-8904.9,-6866.5 L-8909.1,-6898.5 L-8913.5,-6920.3 L-8918.5,-6940.9 L-8925.9,-6964.3 L-8932.2,-6982.2 L-8939.4,-7001.7 L-8946.2,-7017.9 L-8950.8,-7028.4 L-8952.7,-7036.1 L-8953.0,-7042.0 L-8952.4,-7047.3 L-8950.3,-7051.9 L-8947.1,-7055.8 L-8942.9,-7058.0 L-8938.4,-7058.6 L-8926.3,-7055.7 L-8892.6,-7047.6 L-8881.4,-7302.3 L-8837.7,-7756.9 L-8885.2,-7768.1 L-8890.4,-7782.4 L-8890.2,-7802.9 L-8883.6,-7849.4 L-8874.6,-7859.9 L-8866.6,-7890.1 L-8816.1,-7878.4 L-8788.3,-8168.9 L-8780.6,-8249.3 L-8796.3,-8253.2 L-8786.8,-8291.6 L-8819.1,-8299.3 L-8815.0,-8322.8 L-8809.3,-8338.3 L-8802.2,-8356.4 L-8790.2,-8381.7 L-8777.3,-8378.8 L-8759.9,-8561.5 L-8755.8,-8672.3 L-8755.0,-8692.7 L-8745.6,-8763.2 L-8726.9,-8938.9 L-8602.1,-9264.3 L-8573.6,-9353.0 L-8226.9,-9486.0 L-8193.0,-9499.6 L-8187.1,-9502.8 L-8182.5,-9507.0 L-8177.4,-9512.9 L-8173.5,-9519.8 L-8170.9,-9526.6 L-8170.3,-9536.5 L-8170.8,-9548.8 L-8175.4,-9704.3 L-8177.1,-9734.4 L-8177.6,-9755.1 L-8178.3,-9795.3 L-8179.1,-9807.9 L-8180.6,-9818.5 L-8182.7,-9827.9 L-8185.8,-9837.5 L-8190.7,-9848.8 L-8197.9,-9860.9 L-8204.9,-9870.5 L-8210.3,-9879.6 L-8215.8,-9891.7 L-8220.4,-9903.3 L-8222.2,-9912.8 L-8223.6,-9923.3 L-8224.3,-9933.8 L-8224.0,-9944.0 L-8222.8,-9955.9 L-8220.0,-9967.6 L-8216.3,-9978.0 L-8212.4,-9987.5 L-8207.4,-9996.7 L-8201.3,-10007.9 L-8197.3,-10018.0 L-8193.8,-10030.9 L-8187.4,-10040.7 L-8189.6,-10129.9 L-8192.9,-10135.1 L-8193.9,-10195.7 L-8195.6,-10267.2 L-8194.4,-10277.1 L-8191.2,-10287.2 L-8183.2,-10303.0 L-8129.7,-10418.1 L-8128.6,-10420.0 L-8119.2,-10440.5 L-8110.3,-10459.9 L-8100.3,-10479.9 L-8090.5,-10500.5 L-8085.7,-10510.5 L-8033.1,-10618.4 L-7976.9,-10737.6 L-7855.3,-10984.4 L-7928.4,-11066.3 L-7988.0,-10939.3 L-8039.5,-10829.4 L-8047.3,-10813.8 L-8063.2,-10781.3 L-8095.0,-10784.0 L-8103.7,-10784.5 L-8106.8,-10781.7 L-8102.6,-10777.9 L-8118.9,-10763.4 L-8131.8,-10751.5 L-8134.2,-10700.6 L-8139.0,-10690.4 L-8154.6,-10691.0 L-8157.2,-10691.9 L-8361.6,-10776.3 L-8366.0,-10778.6 L-8370.7,-10781.6 L-8378.1,-10787.2 L-8383.8,-10792.6 L-8388.6,-10797.8 L-8393.3,-10804.2 L-8396.9,-10809.8 L-8399.7,-10815.6 L-8401.9,-10821.7 L-8403.4,-10825.9 L-8404.5,-10831.0 L-8405.3,-10837.0 L-8406.1,-10845.2 L-8406.1,-10856.9 L-8407.5,-10896.6 L-8401.9,-10896.9 L-8402.7,-10917.9 L-8403.6,-10952.5 L-8398.4,-10952.6 L-8398.8,-10976.2 L-8404.7,-10976.1 L-8407.4,-11075.5 L-8401.8,-11075.8 L-8402.7,-11099.1 L-8408.1,-11098.9 L-8410.4,-11172.4 L-8383.4,-11201.5 L-8348.9,-11202.7 L-8323.2,-11203.6 L-8289.3,-11204.7 L-8256.7,-11205.7 L-8227.5,-11206.7 L-8214.8,-11207.3 L-8215.4,-11218.6 L-8215.6,-11230.4 L-8217.5,-11268.7 L-8218.2,-11341.8 L-8219.2,-11343.1 L-8219.4,-11350.3 L-8217.3,-11350.4 L-8222.4,-11526.5 L-8226.8,-11692.2 L-8227.5,-11697.4 L-8227.9,-11707.0 L-8300.1,-11704.4 L-8348.1,-11708.5 L-8707.4,-11696.0 L-8707.5,-11699.2 L-8708.2,-11714.5 L-8878.6,-11708.5 L-8878.9,-11736.8 L-8901.4,-11741.9 L-8905.4,-11863.0 L-8242.6,-11886.0 L-8231.6,-11901.1 L-8232.0,-11944.1 L-8232.8,-11981.3 L-8233.4,-12004.6 L-8234.3,-12027.3 L-8287.0,-12052.1 L-8289.1,-12107.2 L-8235.1,-12134.0 L-8240.0,-12261.5 L-8241.4,-12267.8 L-8295.1,-12292.9 L-8296.8,-12361.1 L-8245.8,-12387.4 L-8268.5,-12664.3 L-8262.5,-12787.5 L-8259.5,-12988.4 L-8259.7,-13206.9 L-8254.9,-13237.5 L-8254.6,-13252.3 L-8259.4,-13270.1 L-8254.4,-13270.1 L-8254.4,-13286.2 L-8251.4,-13697.2 L-8251.9,-13715.5 L-8257.6,-13715.5 L-8257.4,-13791.1 L-8260.7,-13795.8 L-8265.9,-13873.8 L-8255.6,-13945.1 L-8256.9,-14031.4 L-8260.4,-14052.1 L-8255.1,-14116.0 L-8258.7,-14193.3 L-8267.7,-14276.0 L-8284.8,-14410.0 L-8276.7,-14446.9 L-8280.3,-14482.8 L-8310.9,-14508.9 L-8355.8,-14508.5 L-8424.2,-14499.5 L-8468.7,-14499.5 L-8509.1,-14514.3 L-8562.2,-14550.7 L-8562.2,-14616.0 L-8563.6,-14696.3 L-8558.4,-14763.2 L-8540.8,-14815.4 L-8246.1,-14820.9 L-8239.3,-15238.8 L-8239.3,-15840.4 L-8242.4,-16058.7 L7669.8,-22630.4 L7669.8,13587.8 L-12042.7,13587.8 L-12042.7,-4397.7 Z" fill="#add7e1" stroke="none"><title>Biscayne Bay</title></path><path d="M-1.0,-1.0 L257.0,-1.0 L257.0,257.0 L-1.0,257.0 L-1.0,-1.0 Z" fill="#add7e1" stroke="none" fill-rule="evenodd"><title>Biscayne Bay</title></path></svg>