<svg xmlns="http://www.w3.org/2000/svg" width="256" height="256" viewBox="0 0 256 256"><defs><pattern id="park-dots" width="22" height="22" patternUnits="userSpaceOnUse"><circle cx="5" cy="5" r="2.1" fill="#63a95d" fill-opacity="0.26"/><circle cx="16" cy="7" r="1.55" fill="#76b970" fill-opacity="0.23"/><circle cx="10" cy="17" r="1.9" fill="#61a65b" fill-opacity="0.24"/><circle cx="21" cy="17" r="1.25" fill="#80c174" fill-opacity="0.18"/><circle cx="1" cy="19" r="1.2" fill="#70b46a" fill-opacity="0.17"/></pattern><pattern id="park-canopy" width="54" height="48" patternUnits="userSpaceOnUse"><circle cx="12" cy="11" r="3.6" fill="#5ea75a" fill-opacity="0.22"/><circle cx="31" cy="15" r="2.9" fill="#75ba6d" fill-opacity="0.18"/><circle cx="45" cy="31" r="3.3" fill="#67ae62" fill-opacity="0.20"/><circle cx="19" cy="39" r="2.5" fill="#83c378" fill-opacity="0.16"/></pattern></defs><rect width="256" height="256" fill="#f1efe7"/><path d="M-4330.8,7447.5 L-4875.0,7045.8 L-4918.5,7013.8 L-4965.7,7003.5 L-4999.0,6975.5 L-5025.6,6972.4 L-5111.6,6978.1 L-5111.5,6970.0 L-5116.3,6962.4 L-5125.9,6956.5 L-5312.7,6875.6 L-5325.4,6869.8 L-5336.5,6866.6 L-5350.3,6865.5 L-5364.2,6865.2 L-5410.6,6865.2 L-5422.9,6864.5 L-5435.0,6862.1 L-5447.8,6857.1 L-5463.2,6853.0 L-5474.4,6852.0 L-5507.3,6850.6 L-5518.3,6848.6 L-5532.3,6844.1 L-5546.0,6840.6 L-5559.3,6837.5 L-5569.7,6833.3 L-5582.3,6825.5 L-5593.5,6817.1 L-5604.4,6808.9 L-5613.3,6804.7 L-5620.1,6803.3 L-5626.2,6803.7 L-5632.7,6805.5 L-5640.3,6809.4 L-5646.3,6816.0 L-5654.4,6823.9 L-5663.4,6832.2 L-5673.6,6837.8 L-5686.5,6842.0 L-5697.2,6844.6 L-5710.1,6846.6 L-5731.7,6849.1 L-5785.9,6851.7 L-5831.9,6854.0 L-5851.7,6861.1 L-5892.3,6862.5 L-5897.8,6854.0 L-5903.9,6850.1 L-5910.2,6848.9 L-5954.0,6851.4 L-5973.0,6858.2 L-5996.3,6858.4 L-6012.0,6856.1 L-6024.9,6852.2 L-6072.0,6855.0 L-6196.6,6864.7 L-6225.3,6865.5 L-6235.1,6865.3 L-6243.9,6863.1 L-6254.1,6858.0 L-6261.6,6852.0 L-6294.0,6852.1 L-6321.1,6851.7 L-6328.4,6856.2 L-6365.7,6857.1 L-6370.5,6865.0 L-6375.8,6865.2 L-6385.0,6863.0 L-6401.5,6861.0 L-6418.5,6861.9 L-6423.7,6863.5 L-6429.0,6862.6 L-6432.6,6859.1 L-6438.7,6855.6 L-6461.4,6855.7 L-6484.3,6856.9 L-6506.0,6869.7 L-6516.7,6874.8 L-6528.9,6877.5 L-6539.0,6878.2 L-6548.1,6876.8 L-6569.1,6867.8 L-6581.1,6864.0 L-6591.3,6862.5 L-6636.0,6863.1 L-6638.8,6857.7 L-6678.3,6858.6 L-6705.5,6863.6 L-6723.4,6865.7 L-6733.0,6867.8 L-6736.7,6865.3 L-6743.5,6864.4 L-6807.2,6858.6 L-6812.7,6861.6 L-6819.4,6863.0 L-6828.2,6863.1 L-6828.2,6859.9 L-6867.7,6852.5 L-6892.6,6847.7 L-6952.8,6827.5 L-6956.1,6832.0 L-6996.3,6819.6 L-7004.7,6816.8 L-7000.6,6802.8 L-7005.4,6801.3 L-7006.4,6799.8 L-7009.0,6799.0 L-7012.6,6798.5 L-7017.0,6796.3 L-7015.5,6795.0 L-7033.3,6780.5 L-7062.9,6753.7 L-7078.8,6739.7 L-7090.1,6727.4 L-7096.4,6719.1 L-7105.8,6706.3 L-7111.2,6696.4 L-7128.0,6675.3 L-7129.6,6674.1 L-7130.7,6674.0 L-7131.9,6674.2 L-7134.1,6674.3 L-7136.1,6673.3 L-7140.3,6670.6 L-7148.9,6666.1 L-7153.1,6662.5 L-7158.0,6658.2 L-7164.7,6654.6 L-7175.2,6651.3 L-7186.3,6649.3 L-7195.8,6649.1 L-7193.1,6623.9 L-7190.9,6591.0 L-7180.6,6592.0 L-7170.3,6593.8 L-7156.8,6597.8 L-7146.9,6601.5 L-7138.0,6605.6 L-7129.4,6609.6 L-7121.3,6614.2 L-7114.7,6619.3 L-7105.9,6626.1 L-7096.7,6633.0 L-7094.6,6634.3 L-7092.7,6634.7 L-7067.5,6633.6 L-7067.2,6639.3 L-7068.7,6641.8 L-7087.6,6643.6 L-7082.8,6653.4 L-7079.5,6652.2 L-7076.5,6655.2 L-7074.6,6658.1 L-7073.0,6660.3 L-7069.1,6665.5 L-7067.6,6671.2 L-7061.5,6679.6 L-7047.1,6688.7 L-7029.2,6697.8 L-7007.8,6711.3 L-6998.0,6715.9 L-6977.4,6727.6 L-6967.7,6732.7 L-6950.0,6739.2 L-6915.2,6748.5 L-6894.8,6753.4 L-6876.2,6755.3 L-6866.3,6756.6 L-6864.1,6756.4 L-6863.2,6755.1 L-6862.9,6748.5 L-6839.8,6748.5 L-6839.3,6755.9 L-6790.9,6758.4 L-6743.7,6759.8 L-6711.6,6758.6 L-6701.0,6757.8 L-6693.3,6756.8 L-6687.0,6755.0 L-6681.2,6751.5 L-6678.3,6746.8 L-6679.4,6669.3 L-6659.9,6668.2 L-6658.2,6743.8 L-6657.1,6745.7 L-6653.2,6748.4 L-6648.7,6749.7 L-6545.3,6749.9 L-6545.8,6716.6 L-6537.7,6716.4 L-6534.3,6749.9 L-6470.5,6749.3 L-6470.5,6745.7 L-6464.2,6745.6 L-6464.0,6748.2 L-6038.5,6740.1 L-6007.7,6736.5 L-5970.1,6735.4 L-5934.5,6740.1 L-5922.6,6739.1 L-5913.9,6737.4 L-5905.8,6734.5 L-5895.3,6730.5 L-5681.4,6726.7 L-5681.5,6711.9 L-5561.8,6709.8 L-5561.7,6726.1 L-5510.9,6727.9 L-5507.0,6727.8 L-5503.4,6727.5 L-5498.7,6726.9 L-5494.9,6725.9 L-5491.2,6724.7 L-5484.9,6721.7 L-5482.0,6726.7 L-5475.8,6722.8 L-5470.1,6718.2 L-5465.3,6713.2 L-5461.1,6707.3 L-5457.2,6700.0 L-5464.5,6695.9 L-5462.5,6689.8 L-5461.2,6683.5 L-5460.5,6677.5 L-5460.4,6672.8 L-5460.6,6668.4 L-5461.3,6630.5 L-5467.4,6624.9 L-5462.2,6619.4 L-5467.5,6614.8 L-5461.5,6607.7 L-5468.0,6602.0 L-5462.8,6596.5 L-5468.0,6591.5 L-5461.9,6585.0 L-5468.2,6578.6 L-5455.1,6564.2 L-5452.8,6564.1 L-5458.5,6349.6 L-5410.4,6348.5 L-5408.1,6349.7 L-5405.5,6351.7 L-5403.6,6353.4 L-5402.8,6355.4 L-5402.1,6357.8 L-5401.9,6360.2 L-5397.8,6693.5 L-5395.9,6704.3 L-5393.2,6711.6 L-5389.0,6720.6 L-5384.1,6729.4 L-5379.0,6736.4 L-5374.9,6740.7 L-5370.5,6744.1 L-5365.4,6747.1 L-5360.1,6749.1 L-5352.9,6751.2 L-5344.0,6752.9 L-5333.2,6754.9 L-5320.6,6757.2 L-5308.6,6759.8 L-5295.3,6762.2 L-5282.7,6764.9 L-5278.7,6765.7 L-5273.8,6766.7 L-5269.0,6767.3 L-5264.8,6767.4 L-5260.0,6767.4 L-5256.3,6767.2 L-5252.6,6766.5 L-5249.4,6765.7 L-5246.0,6764.7 L-5243.1,6763.4 L-5237.3,6760.6 L-5232.2,6757.6 L-5227.1,6753.9 L-5221.2,6748.2 L-5215.7,6742.0 L-5212.7,6736.7 L-5210.0,6730.2 L-5208.6,6724.9 L-5207.8,6719.2 L-5207.3,6713.8 L-5207.3,6708.8 L-5214.6,6351.6 L-5204.2,6340.9 L-5200.4,6340.5 L-5198.9,6339.1 L-5177.2,6338.5 L-5175.3,6335.3 L-5172.0,6336.2 L-5166.5,6341.3 L-5162.7,6346.6 L-5158.9,6353.2 L-5151.7,6752.4 L-5151.0,6759.4 L-5149.7,6773.3 L-5148.4,6776.1 L-5149.4,6776.8 L-5147.6,6780.7 L-5145.3,6785.3 L-5143.3,6788.2 L-5140.9,6791.7 L-5137.6,6795.5 L-5133.7,6799.5 L-5129.0,6803.5 L-5124.8,6806.6 L-5120.2,6809.1 L-5115.8,6811.3 L-5111.1,6812.8 L-5110.5,6811.4 L-5044.3,6835.4 L-5036.0,6838.5 L-5032.2,6839.9 L-5026.3,6842.0 L-5022.0,6843.0 L-5018.3,6843.5 L-5014.9,6843.5 L-5010.1,6843.1 L-5004.9,6842.6 L-5000.3,6841.6 L-4995.6,6840.3 L-4992.1,6838.9 L-4988.4,6837.2 L-4985.4,6835.3 L-4981.6,6832.5 L-4976.8,6828.3 L-4972.4,6824.0 L-4967.6,6818.0 L-4964.2,6812.4 L-4961.4,6806.2 L-4959.4,6799.3 L-4958.2,6792.3 L-4957.5,6779.8 L-4957.8,6754.3 L-4965.1,6348.2 L-4965.1,6343.7 L-4964.3,6340.5 L-4962.9,6337.9 L-4960.0,6335.5 L-4956.7,6333.8 L-4953.0,6333.2 L-4922.9,6332.2 L-4919.3,6332.8 L-4916.1,6334.2 L-4913.8,6336.4 L-4911.2,6340.2 L-4909.7,6345.6 L-4908.8,6352.9 L-4901.3,6873.8 L-4900.9,6876.9 L-4900.3,6880.0 L-4899.4,6883.2 L-4898.3,6886.7 L-4897.1,6890.2 L-4895.7,6893.4 L-4894.5,6896.1 L-4893.2,6898.5 L-4891.3,6901.5 L-4889.2,6904.1 L-4887.3,6906.5 L-4884.4,6909.6 L-4881.6,6912.3 L-4878.5,6914.8 L-4875.2,6917.3 L-4866.0,6923.1 L-4865.1,6922.0 L-4857.0,6926.5 L-4847.4,6931.7 L-4841.9,6934.7 L-4835.8,6938.3 L-4829.5,6942.0 L-4823.0,6946.0 L-4815.7,6950.5 L-4808.5,6955.0 L-4801.3,6959.3 L-4795.3,6963.0 L-4788.6,6967.3 L-4781.5,6971.9 L-4774.7,6976.4 L-4768.4,6980.7 L-4769.1,6981.6 L-4760.3,6987.7 L-4751.2,6993.8 L-4748.4,6995.5 L-4745.3,6997.2 L-4740.9,6999.3 L-4736.8,7000.8 L-4732.4,7002.0 L-4728.5,7003.0 L-4723.9,7003.7 L-4718.8,7004.3 L-4714.4,7004.3 L-4710.7,7004.0 L-4707.5,7003.3 L-4703.4,7002.2 L-4699.3,7000.9 L-4695.5,6999.6 L-4692.0,6997.9 L-4688.4,6996.0 L-4684.9,6993.8 L-4681.3,6991.0 L-4678.1,6988.1 L-4675.0,6985.0 L-4672.1,6981.8 L-4669.1,6977.4 L-4666.6,6973.0 L-4664.2,6968.1 L-4662.8,6964.3 L-4661.7,6960.3 L-4660.9,6956.0 L-4660.5,6951.7 L-4660.8,6946.8 L-4720.1,6379.1 L-4716.0,6378.7 L-4719.3,6350.3 L-4722.3,6350.5 L-4724.7,6337.4 L-4723.9,6334.7 L-4721.4,6330.7 L-4716.3,6326.8 L-4709.6,6326.0 L-4682.7,6325.1 L-4678.2,6326.0 L-4675.1,6327.5 L-4671.8,6330.1 L-4669.5,6332.5 L-4667.9,6335.0 L-4602.9,6971.9 L-4601.4,6977.4 L-4598.6,6984.2 L-4596.2,6988.6 L-4593.6,6993.3 L-4590.2,6997.9 L-4587.4,7001.1 L-4584.3,7004.3 L-4580.9,7007.0 L-4577.9,7009.1 L-4573.7,7011.8 L-4570.0,7013.7 L-4565.1,7015.8 L-4560.5,7017.2 L-4555.3,7018.3 L-4551.3,7018.9 L-4547.8,7019.0 L-4543.7,7019.1 L-4402.5,7016.2 L-4397.9,7015.6 L-4393.5,7013.5 L-4390.3,7010.6 L-4388.1,7006.2 L-4387.3,7002.2 L-4387.5,6998.2 L-4459.0,6316.1 L-4522.0,6233.9 L-4524.8,6236.2 L-4579.6,6159.7 L-4580.6,6143.5 L-4582.3,6140.1 L-4585.2,6137.0 L-4588.9,6131.8 L-4589.2,6124.2 L-4595.7,6121.7 L-4602.0,6121.6 L-4610.5,6125.8 L-4600.9,6143.8 L-4613.0,6149.6 L-4622.1,6141.2 L-4629.9,6136.4 L-4635.2,6134.6 L-4648.2,6134.1 L-4654.8,6120.7 L-4613.3,6103.7 L-4615.3,6100.3 L-4624.1,6088.5 L-4625.5,6089.2 L-4934.4,5684.7 L-4939.1,5618.0 L-4936.6,5617.4 L-4948.5,5495.1 L-4953.1,5483.8 L-4958.1,5471.1 L-4961.9,5461.3 L-4966.5,5448.8 L-4981.5,5406.7 L-4987.6,5409.4 L-4996.5,5375.3 L-4995.0,5375.0 L-5026.1,5290.7 L-5029.5,5143.3 L-5025.9,5143.3 L-5025.4,5130.4 L-5023.6,5117.7 L-5022.9,5113.0 L-5024.2,5109.2 L-5020.0,5089.1 L-4981.7,5021.3 L-5001.8,5009.1 L-4986.9,4984.4 L-4967.5,4995.8 L-4965.8,4993.2 L-4959.7,4996.3 L-4953.1,4998.9 L-4945.5,5001.3 L-4939.8,5002.5 L-4934.4,5002.7 L-4928.0,5001.6 L-4921.7,4999.5 L-4915.5,4997.1 L-4912.6,4994.0 L-4911.5,4989.9 L-4910.0,4985.0 L-4909.7,4983.0 L-4909.8,4980.5 L-4911.2,4976.6 L-4913.8,4972.9 L-4916.8,4970.8 L-4921.2,4966.6 L-4925.0,4962.6 L-4930.6,4959.0 L-4932.9,4953.3 L-4935.6,4947.6 L-4939.9,4940.9 L-4944.8,4935.1 L-4953.8,4928.7 L-4997.4,4906.1 L-5023.2,4893.3 L-5047.3,4880.3 L-5070.2,4867.6 L-5085.0,4858.0 L-5090.7,4856.5 L-5097.0,4858.4 L-5100.5,4862.7 L-5107.6,4880.4 L-5151.7,4860.6 L-5125.3,4818.9 L-5119.5,4816.2 L-5112.4,4814.8 L-5104.1,4816.6 L-4938.4,4913.5 L-4929.4,4916.2 L-4920.0,4918.5 L-4906.7,4918.8 L-4893.2,4916.4 L-4884.6,4912.9 L-4875.2,4905.3 L-4869.7,4900.0 L-4863.8,4891.7 L-4863.9,4890.6 L-4864.3,4889.6 L-4865.2,4888.8 L-4918.8,4855.7 L-4920.1,4855.3 L-4921.5,4855.2 L-4922.9,4855.3 L-4928.0,4857.5 L-4929.9,4857.7 L-4932.0,4857.5 L-4935.1,4857.0 L-4937.5,4856.3 L-4940.9,4854.6 L-4944.2,4852.7 L-5017.9,4807.7 L-5052.6,4783.3 L-5055.9,4782.8 L-5059.2,4782.9 L-5063.1,4783.0 L-5065.7,4782.6 L-5067.9,4781.6 L-5070.5,4779.6 L-5073.4,4777.3 L-5075.4,4774.5 L-5076.6,4771.7 L-5076.8,4769.6 L-5076.5,4766.9 L-5076.0,4764.6 L-5064.2,4744.8 L-5064.2,4743.9 L-5065.1,4743.2 L-5075.9,4735.6 L-5078.0,4732.5 L-5076.8,4730.6 L-5073.3,4731.1 L-5069.5,4732.2 L-5047.3,4745.9 L-4921.5,4826.2 L-4918.9,4827.7 L-4917.1,4829.6 L-4915.9,4831.8 L-4914.6,4836.4 L-4913.7,4840.0 L-4913.2,4843.1 L-4856.4,4877.2 L-4854.4,4878.1 L-4852.0,4878.3 L-4849.2,4877.9 L-4847.2,4877.2 L-4845.5,4876.4 L-4784.4,4777.5 L-4758.8,4739.9 L-4734.9,4713.0 L-4722.8,4719.7 L-4715.0,4707.1 L-4756.5,4682.3 L-4747.7,4667.9 L-4706.2,4692.9 L-4696.9,4677.7 L-4704.4,4669.3 L-4696.8,4660.6 L-4688.6,4670.0 L-4686.6,4668.5 L-4684.3,4666.9 L-4681.1,4665.1 L-4677.8,4663.5 L-4673.7,4662.0 L-4669.8,4660.9 L-4665.6,4660.2 L-4661.4,4659.9 L-4657.4,4660.0 L-4653.5,4660.6 L-4649.8,4661.5 L-4646.7,4662.4 L-4644.0,4663.6 L-4640.2,4665.4 L-4636.7,4667.6 L-4633.7,4669.7 L-4630.7,4672.4 L-4628.0,4675.0 L-4625.0,4678.9 L-4622.9,4682.4 L-4620.8,4686.9 L-4619.4,4691.4 L-4618.2,4697.6 L-4617.8,4703.0 L-4617.9,4706.1 L-4618.3,4709.3 L-4619.4,4714.1 L-4622.2,4720.7 L-4624.0,4725.0 L-4626.5,4730.1 L-4616.1,4735.3 L-4567.5,4677.3 L-4656.0,4623.5 L-4651.5,4613.9 L-4648.3,4605.0 L-4648.1,4601.2 L-4643.0,4590.3 L-4632.5,4580.6 L-4619.5,4570.0 L-4604.0,4560.1 L-4574.9,4551.6 L-4524.7,4546.6 L-4504.9,4530.6 L-4500.8,4529.9 L-4497.5,4529.7 L-4492.8,4531.5 L-4488.5,4532.0 L-4460.6,4548.9 L-4387.2,4461.8 L-4656.2,4290.8 L-4672.9,4317.1 L-4709.2,4294.1 L-4657.7,4213.1 L-4621.5,4235.5 L-4637.6,4263.1 L-4363.9,4435.6 L-4329.4,4391.3 L-4305.0,4362.3 L-4272.8,4313.9 L-4255.0,4289.5 L-4256.8,4275.6 L-4256.3,4275.2 L-4259.5,4264.9 L-4261.6,4258.5 L-4263.6,4251.9 L-4266.0,4246.2 L-4270.6,4238.7 L-4275.2,4231.4 L-4277.2,4227.6 L-4278.7,4223.8 L-4279.8,4220.3 L-4280.2,4217.2 L-4280.7,4207.0 L-4398.9,4098.5 L-4402.8,4102.7 L-4406.1,4099.9 L-4415.7,4109.4 L-4422.0,4101.0 L-4414.4,4092.2 L-4422.0,4082.5 L-4427.2,4083.9 L-4432.6,4084.1 L-4437.5,4083.2 L-4441.8,4081.4 L-4446.8,4077.7 L-4453.0,4071.6 L-4463.9,4059.6 L-4467.2,4054.5 L-4468.4,4048.1 L-4467.6,4040.5 L-4464.7,4033.5 L-4462.2,4028.7 L-4457.4,4023.9 L-4452.1,4020.3 L-4447.0,4018.4 L-4443.2,4017.8 L-4438.2,4018.7 L-4433.1,4020.5 L-4428.3,4024.3 L-4417.2,4034.3 L-4411.5,4039.7 L-4406.3,4045.4 L-4404.6,4048.1 L-4403.4,4051.0 L-4402.7,4053.6 L-4402.2,4057.2 L-4402.8,4060.6 L-4403.8,4063.8 L-4405.2,4066.2 L-4405.6,4067.3 L-4405.3,4068.7 L-4404.5,4070.1 L-4277.6,4189.0 L-4273.2,4192.0 L-4270.1,4193.3 L-4265.7,4192.3 L-4260.5,4191.9 L-4253.9,4194.7 L-4247.3,4198.8 L-4234.4,4206.1 L-4229.0,4208.7 L-4224.1,4203.9 L-4218.7,4198.7 L-4215.1,4194.6 L-4209.1,4186.8 L-4205.7,4182.1 L-4202.1,4176.3 L-4199.8,4171.2 L-4197.3,4165.8 L-4195.0,4160.1 L-4192.9,4154.3 L-4191.7,4149.4 L-4190.3,4143.2 L-4189.7,4139.5 L-4189.3,4136.5 L-4188.6,4131.2 L-4187.9,4126.0 L-4187.6,4122.6 L-4187.4,4118.9 L-4187.4,4114.6 L-4187.6,4111.0 L-4188.3,4106.0 L-4189.1,4100.3 L-4189.9,4095.0 L-4190.4,4090.7 L-4191.0,4087.5 L-4191.7,4084.1 L-4192.5,4080.7 L-4193.7,4076.7 L-4195.1,4072.7 L-4196.2,4070.3 L-4197.4,4067.9 L-4199.1,4065.6 L-4201.4,4062.3 L-4203.9,4059.2 L-4206.6,4056.6 L-4210.0,4053.8 L-4213.5,4051.6 L-4217.0,4049.7 L-4220.2,4048.5 L-4222.4,4047.8 L-4224.9,4047.5 L-4227.9,4047.6 L-4230.7,4048.2 L-4232.9,4049.1 L-4235.0,4050.6 L-4236.5,4052.2 L-4237.7,4053.7 L-4238.6,4056.0 L-4239.1,4058.5 L-4239.0,4061.5 L-4238.8,4065.0 L-4238.8,4067.6 L-4239.0,4070.2 L-4239.4,4072.8 L-4239.9,4075.1 L-4240.8,4077.5 L-4242.2,4080.1 L-4243.9,4082.6 L-4245.6,4084.9 L-4247.3,4086.5 L-4250.7,4089.2 L-4253.5,4091.1 L-4257.9,4092.4 L-4260.5,4093.0 L-4263.5,4093.4 L-4266.2,4093.5 L-4269.8,4093.3 L-4272.4,4092.8 L-4276.0,4092.0 L-4281.0,4090.5 L-4285.2,4088.9 L-4288.3,4087.7 L-4291.6,4085.9 L-4294.5,4083.9 L-4297.7,4081.4 L-4300.2,4079.1 L-4302.3,4077.0 L-4304.5,4074.4 L-4306.3,4072.0 L-4308.0,4069.6 L-4309.5,4066.9 L-4311.1,4063.3 L-4312.5,4060.0 L-4313.9,4056.4 L-4314.8,4053.6 L-4315.5,4051.0 L-4316.0,4048.3 L-4316.4,4044.1 L-4316.7,4040.4 L-4316.5,4036.4 L-4315.6,4031.1 L-4314.1,4025.9 L-4312.2,4020.5 L-4310.9,4018.0 L-4309.6,4016.5 L-4299.3,4003.4 L-4296.9,4000.7 L-4293.8,3999.2 L-4290.5,3998.0 L-4286.8,3997.2 L-4282.7,3996.7 L-4279.1,3996.5 L-4275.5,3996.6 L-4271.9,3997.0 L-4267.8,3998.2 L-4263.5,4000.3 L-4259.8,4002.6 L-4256.5,4005.2 L-4246.1,4014.8 L-4243.6,4015.6 L-4242.2,4015.9 L-4240.5,4015.5 L-4239.4,4015.1 L-4238.0,4013.5 L-4237.4,4011.9 L-4237.3,4009.7 L-4237.2,4007.7 L-4237.6,4006.8 L-4258.6,3986.0 L-4230.0,3955.5 L-4231.6,3951.9 L-4215.1,3935.6 L-4183.3,3967.4 L-4208.9,4000.0 L-4209.1,4001.9 L-4207.8,4002.7 L-4206.2,4002.3 L-4178.1,3967.1 L-4169.9,3957.2 L-4169.6,3954.9 L-4170.3,3952.9 L-4171.8,3951.1 L-4193.8,3930.3 L-4188.3,3923.9 L-4193.9,3919.2 L-4190.7,3911.8 L-4133.7,3854.5 L-4114.1,3851.2 L-4108.0,3850.3 L-4102.2,3849.5 L-4099.5,3848.8 L-4096.3,3847.1 L-4092.5,3845.0 L-4089.6,3842.1 L-4086.8,3838.6 L-4057.7,3796.3 L-4057.1,3795.2 L-4057.4,3793.8 L-4057.8,3792.8 L-4058.5,3791.9 L-4062.0,3789.7 L-4062.9,3789.2 L-4063.7,3789.3 L-4064.6,3789.8 L-4066.5,3791.2 L-4090.9,3814.0 L-4100.4,3820.8 L-4139.4,3780.8 L-4134.9,3766.6 L-4133.0,3762.4 L-4126.9,3751.2 L-4119.8,3738.7 L-4115.5,3733.9 L-4107.8,3725.7 L-4099.6,3716.7 L-4090.6,3707.2 L-4082.9,3700.6 L-4079.2,3697.3 L-4074.3,3693.7 L-4069.8,3691.3 L-4063.4,3688.4 L-4059.4,3687.0 L-4055.4,3685.8 L-4052.3,3685.5 L-4047.9,3685.8 L-4044.2,3686.3 L-4040.0,3687.5 L-4035.9,3690.9 L-4033.4,3694.4 L-4031.9,3698.0 L-4031.3,3703.4 L-4031.5,3710.5 L-4032.4,3718.5 L-4034.1,3726.2 L-4044.4,3749.2 L-4054.2,3769.9 L-4050.8,3775.4 L-4049.0,3776.5 L-4047.1,3776.5 L-4045.4,3776.1 L-4044.1,3775.3 L-4037.4,3765.8 L-4028.8,3761.5 L-4011.7,3715.8 L-4010.5,3713.5 L-4008.8,3711.5 L-4007.1,3710.6 L-4005.5,3710.2 L-4003.2,3710.2 L-4000.8,3710.8 L-3988.3,3714.3 L-3985.9,3714.8 L-3983.1,3714.9 L-3980.5,3714.5 L-3978.4,3713.6 L-3976.6,3712.2 L-3974.8,3709.9 L-3953.8,3681.8 L-3952.8,3679.7 L-3952.3,3677.5 L-3952.3,3675.4 L-3952.7,3673.2 L-3953.5,3671.6 L-3954.7,3670.0 L-3956.1,3668.7 L-3958.1,3667.7 L-3960.0,3667.2 L-3961.9,3667.1 L-3963.5,3667.4 L-3965.4,3668.3 L-3966.8,3669.3 L-3967.9,3670.7 L-3973.4,3679.6 L-3974.6,3681.3 L-3976.0,3682.9 L-3978.1,3684.7 L-3980.0,3685.8 L-3982.3,3686.5 L-3985.1,3687.1 L-3986.7,3687.1 L-3988.9,3686.8 L-3990.8,3686.3 L-3992.4,3685.6 L-4009.6,3670.0 L-4011.6,3667.6 L-4013.1,3665.4 L-4014.5,3662.7 L-4015.4,3660.4 L-4016.0,3658.0 L-4016.5,3655.4 L-4016.8,3652.2 L-4016.9,3649.0 L-4016.6,3646.3 L-4016.2,3644.0 L-4015.7,3642.0 L-4014.9,3640.3 L-3983.6,3590.6 L-3981.6,3587.3 L-3980.4,3585.6 L-3979.0,3584.8 L-3976.7,3583.8 L-3974.3,3583.1 L-3972.0,3582.7 L-3970.7,3582.7 L-3969.4,3582.9 L-3968.3,3583.3 L-3966.7,3584.1 L-3964.8,3585.3 L-3961.6,3587.9 L-3947.3,3601.3 L-3944.9,3604.7 L-3943.5,3608.0 L-3942.2,3611.9 L-3941.8,3614.9 L-3941.6,3618.1 L-3941.6,3620.8 L-3941.9,3623.5 L-3942.4,3626.2 L-3943.0,3628.0 L-3944.6,3631.7 L-3950.3,3642.3 L-3950.9,3644.7 L-3950.9,3647.6 L-3950.7,3649.8 L-3949.9,3651.5 L-3948.4,3653.1 L-3946.0,3654.8 L-3944.0,3655.9 L-3941.7,3656.4 L-3939.0,3656.3 L-3936.8,3655.8 L-3934.3,3654.5 L-3932.1,3652.5 L-3895.1,3601.7 L-3906.4,3591.5 L-3899.6,3584.2 L-3889.5,3593.9 L-3868.7,3566.6 L-3837.2,3524.5 L-3964.0,3403.0 L-3991.5,3431.9 L-4023.8,3401.4 L-3992.6,3367.8 L-3996.7,3363.3 L-3990.2,3357.3 L-3986.2,3361.4 L-3964.5,3337.8 L-3945.0,3355.9 L-3942.7,3370.9 L-3860.7,3447.4 L-3844.7,3453.6 L-3831.9,3449.1 L-3807.6,3458.8 L-3791.5,3452.9 L-3743.6,3394.4 L-3740.9,3388.9 L-3740.1,3381.5 L-3742.5,3374.2 L-3745.7,3369.0 L-3774.1,3342.8 L-3773.7,3335.6 L-3768.1,3321.5 L-3756.9,3300.6 L-3779.0,3286.3 L-3770.6,3283.1 L-3765.3,3279.7 L-3760.0,3273.7 L-3753.8,3257.8 L-3742.4,3228.8 L-3735.0,3222.0 L-3805.2,3154.0 L-3820.6,3163.6 L-3824.2,3164.5 L-3827.6,3164.6 L-3832.0,3164.1 L-3835.6,3163.1 L-3839.1,3161.0 L-3842.0,3158.5 L-3878.3,3123.5 L-3885.1,3116.7 L-3888.1,3113.1 L-3890.6,3108.6 L-3891.8,3104.5 L-3892.3,3100.5 L-3892.2,3096.7 L-3891.5,3093.1 L-3890.6,3090.2 L-3889.4,3088.1 L-3886.8,3084.4 L-3883.7,3080.7 L-3867.4,3063.8 L-3743.4,3178.7 L-3751.9,3188.3 L-3660.0,3275.2 L-3554.1,3120.1 L-3621.3,3057.3 L-3629.9,3065.0 L-3755.4,2946.5 L-3739.0,2931.2 L-3666.9,2998.8 L-3659.7,2988.2 L-3655.7,2982.9 L-3650.6,2977.7 L-3644.7,2971.2 L-3638.7,2967.3 L-3629.2,2959.3 L-3619.7,2950.5 L-3601.5,2933.3 L-3558.0,2884.4 L-3550.2,2876.3 L-3521.5,2861.6 L-3494.3,2840.3 L-3491.7,2838.3 L-3484.6,2832.8 L-3481.5,2830.0 L-3479.0,2826.8 L-3477.3,2823.5 L-3476.2,2820.2 L-3474.9,2817.7 L-3473.4,2815.0 L-3470.8,2810.7 L-3469.0,2808.0 L-3467.2,2805.5 L-3463.9,2802.9 L-3460.7,2800.7 L-3457.2,2798.6 L-3448.9,2794.6 L-3440.9,2790.6 L-3439.7,2790.4 L-3438.5,2790.6 L-3436.1,2791.3 L-3429.6,2794.6 L-3424.7,2797.0 L-3422.4,2798.4 L-3420.3,2800.1 L-3386.9,2831.8 L-3384.6,2833.1 L-3373.7,2836.0 L-3370.2,2837.0 L-3366.3,2837.4 L-3363.3,2837.3 L-3361.0,2836.5 L-3358.7,2834.9 L-3346.8,2818.1 L-3346.8,2815.8 L-3347.2,2813.7 L-3348.5,2811.4 L-3350.5,2809.2 L-3359.6,2800.7 L-3358.9,2799.3 L-3347.2,2774.5 L-3327.2,2734.2 L-3309.0,2720.8 L-3298.5,2710.3 L-3291.3,2702.0 L-3283.7,2694.3 L-3275.3,2687.4 L-3270.2,2682.7 L-3264.8,2677.8 L-3260.8,2673.8 L-3258.8,2670.2 L-3257.2,2667.4 L-3256.2,2664.7 L-3255.8,2661.5 L-3255.6,2658.3 L-3249.5,2652.1 L-3240.5,2643.6 L-3225.5,2631.3 L-3209.8,2619.4 L-3202.8,2609.6 L-3200.2,2599.5 L-3192.4,2594.7 L-3182.6,2594.5 L-3172.7,2588.6 L-3164.0,2572.9 L-3164.2,2556.6 L-3162.6,2531.4 L-3160.1,2527.8 L-3158.6,2525.4 L-3155.8,2520.8 L-3159.3,2510.1 L-3155.3,2505.1 L-3135.5,2480.6 L-3101.5,2440.9 L-3095.0,2431.5 L-3092.4,2426.6 L-3081.6,2411.7 L-3078.6,2402.3 L-3078.5,2387.8 L-3078.9,2373.3 L-3079.0,2358.5 L-3074.6,2342.2 L-3067.2,2326.1 L-3056.6,2310.6 L-3048.9,2299.1 L-3039.8,2287.6 L-3022.2,2268.0 L-2944.2,2229.4 L-2933.9,2226.7 L-2931.3,2232.3 L-2928.2,2237.7 L-2927.2,2238.7 L-2925.5,2238.0 L-2925.2,2234.2 L-2926.4,2231.0 L-2922.1,2229.7 L-2906.1,2225.0 L-2885.3,2218.8 L-2868.5,2213.8 L-2862.5,2212.0 L-2868.5,2193.1 L-2858.1,2190.3 L-2840.8,2187.9 L-2838.7,2187.6 L-2838.6,2186.4 L-2838.6,2182.0 L-2822.9,2181.3 L-2798.3,2180.3 L-2788.8,2184.9 L-2765.1,2270.3 L-2759.8,2275.4 L-2770.1,2286.0 L-2761.0,2295.0 L-2752.0,2304.0 L-2741.2,2293.0 L-2540.7,2483.6 L-2273.1,2198.0 L-2179.6,2287.4 L-2176.0,2286.3 L-2174.6,2287.9 L-2168.3,2283.9 L-2163.1,2282.0 L-2157.6,2279.5 L-2148.2,2274.6 L-2142.4,2271.3 L-2135.5,2267.3 L-2129.1,2263.3 L-2123.9,2259.9 L-2119.1,2256.8 L-2113.5,2252.7 L-2107.1,2248.0 L-2102.2,2243.9 L-2097.0,2239.3 L-2091.3,2233.9 L-2085.9,2228.5 L-2073.3,2215.1 L-2065.7,2206.0 L-2058.3,2196.1 L-2053.2,2188.9 L-2048.4,2181.5 L-2042.7,2171.2 L-2037.7,2161.1 L-2033.7,2152.8 L-2030.3,2144.5 L-2028.2,2139.0 L-2025.9,2132.8 L-2020.5,2126.1 L-2191.5,1963.4 L-2189.4,1961.1 L-2168.9,1939.1 L-2154.0,1923.3 L-2152.5,1921.7 L-2109.1,1962.3 L-2098.6,1956.9 L-2097.4,1958.4 L-1995.4,1905.3 L-1991.2,1903.1 L-1988.3,1900.8 L-1985.6,1898.3 L-1982.5,1895.1 L-1979.5,1890.6 L-1976.9,1886.4 L-1975.2,1883.2 L-1974.0,1879.1 L-1972.9,1874.6 L-1972.4,1869.7 L-1972.4,1864.2 L-1972.8,1859.8 L-1973.6,1855.9 L-1974.9,1851.2 L-2006.8,1759.4 L-2011.1,1744.3 L-2010.0,1739.1 L-2087.0,1720.0 L-2083.4,1706.7 L-2080.4,1694.7 L-2057.6,1604.5 L-2075.3,1551.9 L-2085.7,1517.9 L-2088.7,1509.4 L-2061.1,1484.1 L-2030.0,1467.4 L-2028.1,1470.0 L-2025.1,1474.3 L-2018.1,1483.4 L-2017.3,1482.6 L-2017.1,1479.5 L-2026.8,1466.1 L-2009.5,1453.7 L-2005.7,1451.5 L-1996.7,1463.2 L-1995.2,1464.3 L-1993.7,1464.6 L-1992.9,1464.4 L-1992.9,1463.6 L-2035.7,1405.0 L-2038.8,1401.6 L-2042.4,1396.7 L-2061.0,1374.2 L-2045.1,1324.9 L-2032.9,1312.2 L-2018.8,1305.6 L-1988.8,1287.8 L-1982.6,1281.4 L-1955.7,1257.8 L-1947.2,1266.7 L-1922.3,1293.6 L-1899.2,1274.2 L-1883.7,1289.1 L-1869.8,1302.7 L-1869.1,1303.4 L-1857.3,1293.3 L-1841.7,1309.9 L-1828.3,1327.1 L-1818.4,1338.6 L-1817.1,1340.1 L-1788.3,1314.8 L-1786.8,1313.5 L-1793.6,1305.2 L-1777.9,1292.3 L-1730.3,1347.8 L-1689.8,1321.1 L-1685.8,1317.3 L-1668.2,1309.9 L-1664.2,1306.0 L-1660.4,1301.0 L-1638.7,1281.7 L-1643.6,1275.0 L-1682.4,1283.9 L-1726.8,1233.4 L-1721.7,1229.0 L-1715.0,1236.8 L-1683.6,1209.8 L-1650.3,1246.2 L-1641.3,1249.8 L-1635.9,1252.9 L-1629.1,1260.6 L-1625.4,1257.3 L-1649.5,1229.9 L-1634.7,1217.1 L-1604.8,1253.0 L-1601.0,1250.2 L-1601.4,1249.4 L-1535.8,1202.0 L-1516.3,1187.6 L-1580.0,1108.0 L-1566.4,1098.5 L-1511.0,1163.4 L-1470.1,1170.9 L-1443.1,1155.1 L-1439.3,1152.7 L-1439.5,1149.7 L-1441.4,1146.2 L-1420.3,1132.9 L-1414.1,1139.1 L-1396.3,1128.6 L-1409.2,1112.6 L-1471.5,1029.3 L-1427.5,983.7 L-1398.6,941.0 L-1397.9,907.6 L-1413.3,863.2 L-1380.9,836.2 L-1346.9,823.1 L-1335.7,820.5 L-1326.7,819.3 L-1315.7,820.0 L-1304.3,822.8 L-1287.8,836.9 L-1245.0,889.1 L-1210.8,932.5 L-1169.9,959.8 L-1153.8,962.4 L-1139.4,964.1 L-1127.2,964.6 L-1111.6,963.5 L-1094.7,960.7 L-1081.0,956.8 L-1069.4,951.4 L-1061.7,946.9 L-1056.0,940.9 L-1046.4,929.3 L-1036.0,910.3 L-1024.7,885.1 L-1004.6,895.4 L-996.6,898.1 L-988.0,899.3 L-974.3,898.4 L-965.2,895.7 L-954.8,891.2 L-945.1,885.6 L-934.8,875.6 L-926.0,867.6 L-915.0,860.1 L-907.4,855.2 L-896.2,851.2 L-876.9,845.6 L-865.5,842.4 L-853.3,837.8 L-842.7,832.3 L-836.4,828.7 L-831.4,823.5 L-766.0,790.7 L-763.5,789.3 L-760.6,787.5 L-757.6,785.2 L-753.2,782.7 L-750.3,781.3 L-747.2,778.6 L-744.8,776.1 L-741.6,774.0 L-738.2,771.6 L-733.7,767.4 L-727.3,766.9 L-720.7,766.1 L-716.4,764.7 L-710.8,762.1 L-703.9,759.0 L-696.6,754.5 L-692.5,750.6 L-687.9,745.3 L-685.0,740.4 L-683.4,735.9 L-683.3,732.7 L-683.2,730.1 L-681.6,719.7 L-645.2,698.6 L-581.4,661.8 L-569.0,654.7 L-460.8,592.3 L-343.6,525.0 L-293.7,496.4 L-276.4,486.7 L-131.5,402.5 L-99.3,384.8 L-99.8,383.7 L-33.5,346.2 L-8.0,331.9 L39.0,305.9 L39.5,306.6 L57.7,296.6 L101.9,271.9 L107.2,267.1 L152.0,234.3 L174.3,215.8 L194.8,198.5 L204.2,193.2 L225.4,172.2 L227.2,173.3 L230.0,173.0 L231.4,173.9 L261.2,139.0 L253.7,132.0 L254.7,130.2 L257.9,125.6 L266.5,114.7 L271.7,106.8 L275.8,100.3 L281.5,91.6 L287.0,82.6 L293.2,72.3 L299.6,61.1 L313.5,32.4 L317.8,23.3 L321.3,16.0 L323.7,10.5 L325.8,6.3 L330.2,-4.7 L214.4,-220.7 L212.2,-224.8 L210.5,-227.1 L209.3,-228.8 L207.7,-230.2 L206.2,-231.2 L204.2,-232.4 L202.1,-233.2 L200.3,-233.6 L198.5,-233.8 L195.8,-233.8 L192.7,-233.3 L190.0,-232.5 L187.2,-231.1 L160.3,-215.6 L125.2,-195.5 L100.7,-181.9 L56.0,-157.3 L28.6,-142.4 L29.6,-140.7 L17.9,-134.0 L-20.4,-114.2 L-48.8,-97.4 L-65.5,-88.1 L-90.9,-73.5 L-93.8,-71.5 L-116.1,-111.6 L-72.3,-135.6 L-12.5,-168.1 L28.2,-190.7 L33.2,-193.6 L32.5,-194.7 L67.7,-213.9 L86.4,-224.2 L129.3,-245.1 L137.5,-249.3 L202.2,-285.3 L226.5,-298.7 L243.6,-307.9 L263.8,-319.5 L291.8,-268.9 L247.8,-244.8 L245.5,-241.1 L244.6,-237.2 L244.2,-234.2 L244.1,-231.6 L244.3,-229.5 L245.1,-226.6 L334.8,-60.7 L336.5,-58.2 L338.5,-56.3 L340.5,-55.0 L342.6,-54.3 L344.9,-54.0 L347.1,-54.2 L348.8,-54.7 L388.6,-84.9 L407.3,-100.6 L426.6,-116.9 L433.9,-123.6 L457.8,-143.2 L458.9,-143.2 L482.1,-163.0 L482.2,-164.2 L497.4,-176.7 L509.4,-186.5 L530.0,-203.5 L531.9,-201.2 L552.1,-217.9 L562.3,-226.4 L590.6,-249.9 L610.3,-266.3 L608.4,-269.1 L614.9,-274.6 L625.6,-283.4 L632.2,-289.2 L660.1,-301.7 L679.0,-308.3 L688.7,-312.9 L715.9,-313.1 L725.4,-313.1 L745.5,-312.1 L769.0,-311.1 L770.7,-312.7 L773.0,-309.7 L780.4,-309.3 L847.7,-303.5 L855.6,-301.8 L862.5,-300.7 L878.1,-299.4 L907.2,-298.0 L913.6,-297.9 L919.6,-298.1 L942.9,-299.0 L954.9,-299.6 L966.8,-300.7 L985.1,-302.6 L985.0,-301.5 L999.5,-304.0 L1013.2,-306.6 L1023.7,-308.5 L1037.5,-318.9 L1039.1,-316.7 L1040.8,-314.3 L1162.4,-153.5 L1455.9,-52.3 L1994.5,-447.9 L2141.3,-553.6 L2198.0,-674.6 L2107.8,-792.8 L2111.8,-809.7 L2127.6,-814.0 L2158.0,-807.7 L2179.6,-815.8 L2185.6,-824.2 L2184.3,-831.5 L2168.2,-863.1 L2167.1,-874.9 L2166.2,-898.3 L2163.4,-920.9 L2166.2,-924.9 L2175.3,-929.3 L2186.4,-931.8 L2194.4,-940.4 L2196.2,-950.8 L2189.4,-970.9 L2188.7,-984.8 L2190.9,-1000.6 L2201.9,-1028.3 L2199.6,-1041.1 L2194.1,-1055.4 L2193.9,-1074.8 L2190.7,-1100.4 L2184.9,-1116.4 L2181.3,-1124.8 L2183.7,-1128.5 L2186.0,-1128.3 L2186.6,-1129.8 L2186.9,-1131.8 L2186.8,-1133.8 L2183.3,-1134.2 L2181.1,-1137.3 L2181.5,-1141.0 L2178.5,-1141.8 L2174.8,-1141.9 L2174.3,-1141.0 L2166.7,-1150.0 L2165.1,-1152.8 L2163.8,-1156.7 L2162.9,-1160.5 L2162.2,-1164.5 L2161.9,-1168.5 L2161.7,-1172.1 L2161.7,-1175.8 L2162.0,-1177.8 L2163.6,-1182.8 L2165.4,-1186.8 L2167.7,-1190.7 L2171.1,-1195.6 L2174.6,-1200.3 L2177.9,-1203.7 L2182.0,-1206.8 L2182.8,-1206.0 L2217.9,-1232.8 L2223.0,-1236.7 L2222.0,-1238.2 L2222.0,-1240.8 L2230.7,-1247.6 L2232.9,-1247.5 L2235.0,-1246.0 L2238.7,-1248.8 L2274.7,-1276.1 L2274.3,-1277.0 L2278.5,-1280.1 L2283.5,-1283.2 L2287.0,-1284.8 L2292.0,-1286.7 L2296.3,-1287.9 L2300.6,-1288.5 L2305.3,-1288.9 L2308.1,-1288.7 L2312.0,-1288.1 L2315.8,-1286.8 L2318.6,-1285.4 L2321.3,-1283.8 L2323.3,-1282.3 L2325.0,-1280.7 L2327.5,-1278.3 L2328.6,-1277.9 L2330.4,-1277.9 L2332.2,-1278.2 L2337.7,-1282.1 L2337.7,-1283.2 L2338.3,-1284.0 L2338.9,-1285.1 L2338.8,-1286.4 L2338.5,-1287.5 L2337.7,-1288.5 L2333.8,-1292.4 L2330.7,-1294.9 L2327.1,-1296.9 L2321.2,-1299.5 L2316.1,-1301.5 L2325.0,-1306.1 L2335.9,-1313.7 L2349.4,-1315.4 L2362.9,-1314.5 L2371.7,-1318.0 L2379.4,-1329.0 L2408.4,-1380.9 L2420.2,-1402.3 L2429.5,-1425.1 L2431.1,-1429.9 L2444.9,-1472.2 L2447.1,-1476.3 L2449.7,-1480.4 L2482.1,-1520.5 L2489.0,-1527.7 L2494.1,-1532.1 L2566.7,-1594.3 L2570.7,-1597.0 L2583.1,-1603.8 L2598.0,-1612.2 L2644.4,-1636.5 L2745.5,-1690.8 L2747.9,-1688.9 L2749.8,-1688.2 L2751.5,-1687.7 L2753.3,-1688.0 L2755.2,-1688.4 L2760.6,-1689.5 L2766.9,-1690.9 L2772.6,-1692.2 L2778.5,-1693.3 L2781.7,-1694.0 L2786.1,-1695.3 L2791.1,-1697.4 L2803.2,-1704.0 L2807.6,-1706.4 L2809.9,-1707.8 L2812.2,-1708.8 L2821.6,-1712.8 L2831.9,-1716.8 L2844.9,-1722.4 L2860.2,-1728.7 L2860.8,-1729.0 L2862.1,-1729.1 L2863.8,-1729.6 L2866.2,-1731.4 L2868.9,-1732.4 L2871.9,-1733.9 L2877.5,-1737.1 L2879.5,-1739.1 L2882.8,-1741.2 L2882.5,-1741.8 L2883.9,-1743.5 L2885.7,-1745.4 L2888.7,-1746.9 L2891.2,-1747.9 L2893.9,-1748.9 L2896.4,-1750.2 L2901.3,-1753.3 L2902.7,-1754.7 L2904.1,-1756.9 L2904.7,-1758.5 L2904.9,-1760.1 L2904.7,-1761.6 L2905.0,-1763.1 L2891.0,-1780.0 L2935.1,-1805.9 L2956.0,-1817.0 L2960.1,-1818.3 L2966.5,-1817.1 L2973.6,-1807.2 L2976.8,-1804.4 L2979.7,-1803.0 L2982.4,-1802.4 L2984.9,-1802.5 L3022.7,-1818.1 L3033.0,-1823.1 L3042.6,-1828.4 L3058.1,-1836.6 L3061.3,-1837.7 L3276.1,-1927.0 L3343.3,-1959.3 L3643.8,-2103.6 L10656.9,-2161.6 L10656.9,7874.0 L-4330.8,7874.0 L-4330.8,7447.5 Z" fill="#add7e1" stroke="none"><title>Biscayne Bay</title></path><path d="M-495.6,-3.7 L-189.5,-185.0 L-113.4,-48.9 L201.6,-227.1 L321.4,-5.1 L236.2,154.0 L122.0,251.2 L-240.4,460.9 L-495.6,-3.7 Z" fill="#ece7dc" stroke="#d7d1c5" stroke-width="0.3"></path><path d="M-78.5,158.0 L-53.1,203.8 L13.0,167.1 L-12.4,121.4 L-78.5,158.0 Z" fill="#dcf5d2" stroke="#9fcf91" stroke-width="0.4"></path><path d="M-78.5,158.0 L-53.1,203.8 L13.0,167.1 L-12.4,121.4 L-78.5,158.0 Z" fill="url(#park-dots)" stroke="none"/><path d="M-78.5,158.0 L-53.1,203.8 L13.0,167.1 L-12.4,121.4 L-78.5,158.0 Z" fill="url(#park-canopy)" stroke="none"/><path d="M257.0,257.0 L121.0,257.0 L152.0,234.3 L174.3,215.8 L194.8,198.5 L204.2,193.2 L225.4,172.2 L227.2,173.3 L230.0,173.0 L231.4,173.9 L257.0,143.9 L257.0,135.0 L253.7,132.0 L254.7,130.2 L257.0,126.9 L257.0,257.0 Z" fill="#add7e1" stroke="none" fill-rule="evenodd"><title>Biscayne Bay</title></path><path d="M96.0,6.7 L84.4,13.5 L77.5,1.5 L89.1,-5.2 L96.0,6.7 Z" fill="#d6d2c9" stroke="#bab6ad" stroke-width="0.4"></path><path d="M86.6,35.5 L81.2,39.7 L74.5,31.0 L88.0,20.5 L92.4,26.2 L84.3,32.5 L86.6,35.5 Z" fill="#d6d2c9" stroke="#bab6ad" stroke-width="0.4"></path><path d="M105.7,39.8 L113.0,47.5 L114.3,46.3 L125.1,57.6 L112.1,70.2 L93.9,51.3 L105.7,39.8 Z" fill="#d6d2c9" stroke="#bab6ad" stroke-width="0.4"></path><path d="M65.2,69.6 L78.7,88.3 L80.0,87.3 L87.9,98.2 L73.0,109.0 L51.8,79.4 L65.2,69.6 Z" fill="#d6d2c9" stroke="#bab6ad" stroke-width="0.4"></path><path d="M45.9,13.1 L32.1,20.9 L27.9,13.4 L26.2,14.4 L16.5,-3.0 L34.5,-13.1 L44.3,4.5 L41.8,5.8 L45.9,13.1 Z" fill="#d6d2c9" stroke="#bab6ad" stroke-width="0.4"></path><path d="M80.4,46.6 L91.9,60.7 L93.1,59.7 L104.7,74.0 L102.8,75.5 L104.9,78.0 L88.8,92.1 L63.8,61.3 L76.8,50.6 L80.4,46.6 Z" fill="#d6d2c9" stroke="#bab6ad" stroke-width="0.4"></path><path d="M6.2,63.3 L-7.7,70.8 L-24.6,39.2 L-23.5,38.6 L-27.3,31.3 L-14.6,24.4 L6.2,63.3 Z" fill="#d6d2c9" stroke="#bab6ad" stroke-width="0.4"></path><path d="M81.4,188.2 L98.9,213.7 L84.8,223.4 L65.4,195.1 L73.7,189.4 L75.6,192.2 L81.4,188.2 Z" fill="#d6d2c9" stroke="#bab6ad" stroke-width="0.4"></path><path d="M38.2,129.7 L43.5,139.4 L34.8,144.3 L29.4,134.6 L25.1,137.0 L8.1,106.3 L11.4,104.5 L10.0,102.0 L21.3,95.6 L39.7,128.9 L38.2,129.7 Z" fill="#d6d2c9" stroke="#bab6ad" stroke-width="0.4"></path><path d="M253.1,110.5 L244.3,122.2 L236.6,116.3 L237.2,115.5 L221.5,103.5 L236.1,84.1 L252.4,96.5 L251.7,97.5 L254.0,103.6 L253.1,110.5 Z" fill="#d6d2c9" stroke="#bab6ad" stroke-width="0.4"></path><path d="M243.2,31.6 L285.6,56.9 L278.4,70.4 L274.1,68.1 L272.4,71.2 L259.3,64.1 L264.3,54.6 L248.7,46.2 L250.6,42.9 L249.2,42.1 L245.3,48.8 L237.8,44.3 L238.9,42.4 L236.6,41.1 L243.2,31.6 Z" fill="#d6d2c9" stroke="#bab6ad" stroke-width="0.4"></path><path d="M35.7,72.1 L41.2,79.8 L42.3,79.0 L47.9,86.8 L46.9,87.5 L48.6,89.8 L42.1,94.6 L51.0,106.9 L57.5,102.2 L63.3,110.3 L64.6,109.4 L69.8,116.6 L68.4,117.6 L69.5,119.1 L51.7,132.0 L39.8,115.4 L48.5,109.1 L39.3,96.3 L31.9,101.6 L19.2,84.0 L35.7,72.1 Z" fill="#d6d2c9" stroke="#bab6ad" stroke-width="0.4"></path><path d="M56.5,61.8 L41.9,70.8 L35.3,60.3 L50.0,51.2 L56.5,61.8 Z" fill="#d6d2c9" stroke="#bab6ad" stroke-width="0.4"></path><path d="M219.7,63.4 L216.7,68.0 L212.4,65.2 L211.7,66.2 L199.4,58.2 L206.6,47.1 L218.9,55.1 L217.2,57.7 L219.8,59.4 L217.9,62.2 L219.7,63.4 Z" fill="#d6d2c9" stroke="#bab6ad" stroke-width="0.4"></path><path d="M118.1,158.4 L126.2,167.3 L127.3,166.4 L138.3,178.6 L136.9,179.9 L142.7,186.3 L133.1,195.1 L109.1,168.4 L110.9,166.8 L110.1,165.8 L118.1,158.4 Z" fill="#d6d2c9" stroke="#bab6ad" stroke-width="0.4"></path><path d="M184.2,-41.5 L181.8,-25.9 L179.3,-24.5 L178.4,-26.1 L162.3,-17.0 L170.1,-3.2 L158.4,3.4 L150.6,-10.7 L145.5,-7.9 L138.7,-20.0 L171.2,-38.3 L170.3,-40.1 L177.6,-44.2 L180.9,-44.4 L184.2,-41.5 Z" fill="#d6d2c9" stroke="#bab6ad" stroke-width="0.4"></path><path d="M11.6,220.6 L16.4,229.3 L24.5,224.7 L30.6,235.7 L26.9,237.8 L36.5,255.0 L40.5,252.7 L54.9,278.6 L33.9,290.3 L3.6,236.5 L12.9,231.3 L2.0,212.8 L12.9,206.7 L18.4,216.7 L11.6,220.6 Z" fill="#d6d2c9" stroke="#bab6ad" stroke-width="0.4"></path><path d="M5.7,51.2 L-0.1,40.0 L5.6,37.0 L-6.1,14.2 L1.8,10.1 L-1.1,4.5 L7.0,0.3 L25.1,35.5 L9.7,43.5 L12.0,48.0 L5.7,51.2 Z" fill="#d6d2c9" stroke="#bab6ad" stroke-width="0.4"></path><path d="M127.2,205.3 L140.8,224.8 L123.0,237.4 L104.8,211.5 L111.3,206.9 L115.8,213.4 L127.2,205.3 Z" fill="#d6d2c9" stroke="#bab6ad" stroke-width="0.4"></path><path d="M113.1,11.0 L129.5,28.2 L132.5,25.2 L140.6,33.6 L131.0,42.9 L136.7,48.8 L129.4,56.0 L99.3,26.0 L103.5,21.9 L100.5,18.8 L105.5,13.9 L107.7,16.2 L113.1,11.0 Z" fill="#d6d2c9" stroke="#bab6ad" stroke-width="0.4"></path><path d="M201.5,96.6 L231.5,119.7 L210.2,146.3 L194.7,133.8 L205.0,119.3 L195.4,111.5 L189.9,112.8 L190.8,116.9 L188.3,117.5 L190.5,126.9 L187.5,127.6 L179.0,120.2 L174.8,121.2 L171.7,106.9 L188.4,103.3 L189.0,106.4 L194.8,105.2 L201.5,96.6 Z" fill="#d6d2c9" stroke="#bab6ad" stroke-width="0.4"></path><path d="M246.8,3.3 L264.3,14.0 L265.4,12.2 L296.6,29.9 L290.3,41.1 L287.6,39.6 L283.7,46.6 L282.0,48.0 L246.7,28.0 L248.6,24.8 L242.5,21.3 L244.1,18.4 L241.1,16.7 L245.7,8.5 L244.3,7.7 L246.8,3.3 Z" fill="#d6d2c9" stroke="#bab6ad" stroke-width="0.4"></path><path d="M156.3,15.1 L144.4,28.9 L136.2,21.7 L135.3,22.7 L124.2,12.9 L138.0,-3.0 L150.4,8.0 L149.5,9.1 L156.3,15.1 Z" fill="#d6d2c9" stroke="#bab6ad" stroke-width="0.4"></path><path d="M-17.7,229.5 L-14.9,234.5 L-13.7,233.8 L-8.9,242.4 L-15.7,246.2 L-14.7,248.1 L-15.6,248.6 L-9.0,260.6 L-0.7,255.9 L1.6,260.0 L5.8,257.6 L6.4,258.6 L9.7,256.7 L28.5,290.7 L9.9,301.1 L9.4,300.2 L7.1,301.5 L5.5,298.7 L4.2,299.4 L-21.3,251.7 L-20.1,251.0 L-21.1,249.2 L-22.1,249.8 L-26.9,241.0 L-20.0,237.2 L-22.7,232.3 L-17.7,229.5 Z" fill="#d6d2c9" stroke="#bab6ad" stroke-width="0.4"></path><path d="M68.9,-1.9 L72.3,4.8 L64.5,8.9 L61.4,3.2 L57.2,5.4 L65.3,20.8 L63.2,21.9 L65.1,25.6 L60.5,28.0 L50.4,8.7 L54.3,6.7 L44.0,-12.8 L48.6,-15.2 L45.8,-20.6 L56.7,-26.4 L65.6,-9.4 L70.2,-2.6 L68.9,-1.9 Z" fill="#d6d2c9" stroke="#bab6ad" stroke-width="0.4"></path><path d="M130.7,143.1 L144.8,158.8 L146.4,157.3 L150.9,162.3 L155.0,158.6 L171.2,176.2 L156.8,189.4 L124.0,153.4 L130.3,147.6 L128.3,145.3 L130.7,143.1 Z" fill="#d6d2c9" stroke="#bab6ad" stroke-width="0.4"></path><path d="M150.6,124.9 L169.5,143.0 L159.4,153.6 L173.2,166.7 L171.9,168.0 L187.4,182.8 L210.0,159.2 L195.5,145.3 L194.0,146.8 L160.4,114.6 L150.6,124.9 Z" fill="#d6d2c9" stroke="#bab6ad" stroke-width="0.4"></path><path d="M139.7,198.1 L144.4,194.1 L159.5,211.6 L154.9,215.6 L139.7,198.1 Z" fill="#e0e9e8" stroke="#91b7bc" stroke-width="0.55"></path><path d="M230.0,173.0 L231.4,173.9 L261.2,139.0 L253.7,132.0 L254.7,130.2 L257.9,125.6 L266.5,114.7 L271.7,106.8 L275.8,100.3 L281.5,91.6 L287.0,82.6 L293.2,72.3 L299.6,61.1 L313.5,32.4" fill="none" stroke="#79bdd0" stroke-width="1.4" stroke-linecap="round" stroke-linejoin="round"></path><path d="M330.2,-4.7 L214.4,-220.7" fill="none" stroke="#79bdd0" stroke-width="1.4" stroke-linecap="round" stroke-linejoin="round"></path><path d="M39.5,306.6 L57.7,296.6 L101.9,271.9 L107.2,267.1 L152.0,234.3 L174.3,215.8 L194.8,198.5 L204.2,193.2 L225.4,172.2 L227.2,173.3 L230.0,173.0" fill="none" stroke="#79bdd0" stroke-width="1.4" stroke-linecap="round" stroke-linejoin="round"></path><path d="M-66.0,9.9 L-46.6,-1.0 L169.7,-121.4" fill="none" stroke="#cec8bb" stroke-width="4.8" stroke-linecap="round" stroke-linejoin="round"/><path d="M-66.0,9.9 L-46.6,-1.0 L169.7,-121.4" fill="none" stroke="#ffffff" stroke-width="3.7" stroke-linecap="round" stroke-linejoin="round"><title>Fairhaven Place</title></path><path d="M-66.0,9.9 L26.5,180.0" fill="none" stroke="#cec8bb" stroke-width="4.8" stroke-linecap="round" stroke-linejoin="round"/><path d="M-66.0,9.9 L26.5,180.0" fill="none" stroke="#ffffff" stroke-width="3.7" stroke-linecap="round" stroke-linejoin="round"><title>Fair Isle Street</title></path><path d="M26.5,180.0 L11.2,188.2 L-60.5,226.5" fill="none" stroke="#cec8bb" stroke-width="4.8" stroke-linecap="round" stroke-linejoin="round"/><path d="M26.5,180.0 L11.2,188.2 L-60.5,226.5" fill="none" stroke="#ffffff" stroke-width="3.7" stroke-linecap="round" stroke-linejoin="round"><title>South Bayshore Lane</title></path><path d="M26.5,180.0 L46.6,222.5 L76.1,278.0" fill="none" stroke="#cec8bb" stroke-width="4.8" stroke-linecap="round" stroke-linejoin="round"/><path d="M26.5,180.0 L46.6,222.5 L76.1,278.0" fill="none" stroke="#ffffff" stroke-width="3.7" stroke-linecap="round" stroke-linejoin="round"><title>Fair Isle Street</title></path><path d="M26.5,180.0 L56.0,176.5 L70.1,166.9 L79.0,160.7 L90.2,152.0 L100.5,143.5 L111.4,134.0 L120.0,125.8 L127.7,118.3 L136.5,109.7 L144.9,100.7 L153.0,92.0 L161.6,82.0 L168.9,72.8 L176.9,61.8 L184.6,50.5 L190.8,41.5 L198.4,30.0 L204.8,18.9 L210.2,8.9 L215.7,-2.1 L219.6,-10.8 L216.3,-25.8" fill="none" stroke="#cec8bb" stroke-width="4.8" stroke-linecap="round" stroke-linejoin="round"/><path d="M26.5,180.0 L56.0,176.5 L70.1,166.9 L79.0,160.7 L90.2,152.0 L100.5,143.5 L111.4,134.0 L120.0,125.8 L127.7,118.3 L136.5,109.7 L144.9,100.7 L153.0,92.0 L161.6,82.0 L168.9,72.8 L176.9,61.8 L184.6,50.5 L190.8,41.5 L198.4,30.0 L204.8,18.9 L210.2,8.9 L215.7,-2.1 L219.6,-10.8 L216.3,-25.8" fill="none" stroke="#ffffff" stroke-width="3.7" stroke-linecap="round" stroke-linejoin="round"><title>South Bayshore Lane</title></path><path d="M216.3,-25.8 L204.2,-13.5 L198.5,-2.4 L191.0,10.8 L183.1,23.7 L174.8,36.3 L167.7,46.7 L160.1,57.3 L153.1,65.8 L145.0,75.7 L135.0,86.9 L126.5,96.0 L116.3,106.7 L109.0,113.8 L100.9,121.1 L91.2,129.8 L79.4,139.5 L68.9,147.7 L58.6,155.2 L46.9,163.3 L26.5,180.0" fill="none" stroke="#cec8bb" stroke-width="4.8" stroke-linecap="round" stroke-linejoin="round"/><path d="M216.3,-25.8 L204.2,-13.5 L198.5,-2.4 L191.0,10.8 L183.1,23.7 L174.8,36.3 L167.7,46.7 L160.1,57.3 L153.1,65.8 L145.0,75.7 L135.0,86.9 L126.5,96.0 L116.3,106.7 L109.0,113.8 L100.9,121.1 L91.2,129.8 L79.4,139.5 L68.9,147.7 L58.6,155.2 L46.9,163.3 L26.5,180.0" fill="none" stroke="#ffffff" stroke-width="3.7" stroke-linecap="round" stroke-linejoin="round"><title>South Bayshore Lane</title></path><text x="36.5" y="201.2" transform="rotate(64.7 36.5 201.2)" text-anchor="middle" dominant-baseline="central" font-family="Arial, sans-serif" font-size="8.3" textLength="85.0" lengthAdjust="spacing" font-weight="650" paint-order="stroke" stroke="#fffaf0" stroke-width="2.05" stroke-linejoin="round" fill="#695f54">Fair Isle Street</text><text x="84.5" y="30.9" text-anchor="middle" font-family="Arial, sans-serif" font-size="6.5" textLength="18.0" lengthAdjust="spacing" font-weight="500" paint-order="stroke" stroke="#f3f5ee" stroke-width="1.55" stroke-linejoin="round" fill="#6f777a">1801</text><text x="72.8" y="88.6" text-anchor="middle" font-family="Arial, sans-serif" font-size="6.5" textLength="18.0" lengthAdjust="spacing" font-weight="500" paint-order="stroke" stroke="#f3f5ee" stroke-width="1.55" stroke-linejoin="round" fill="#6f777a">1823</text><text x="33.6" y="16.5" text-anchor="middle" font-family="Arial, sans-serif" font-size="6.5" textLength="18.0" lengthAdjust="spacing" font-weight="500" paint-order="stroke" stroke="#f3f5ee" stroke-width="1.55" stroke-linejoin="round" fill="#6f777a">1812</text><text x="89.7" y="66.5" text-anchor="middle" font-family="Arial, sans-serif" font-size="6.5" textLength="18.0" lengthAdjust="spacing" font-weight="500" paint-order="stroke" stroke="#f3f5ee" stroke-width="1.55" stroke-linejoin="round" fill="#6f777a">1803</text><text x="80.0" y="200.3" text-anchor="middle" font-family="Arial, sans-serif" font-size="6.5" textLength="18.0" lengthAdjust="spacing" font-weight="500" paint-order="stroke" stroke="#f3f5ee" stroke-width="1.55" stroke-linejoin="round" fill="#6f777a">1828</text><text x="26.2" y="122.2" text-anchor="middle" font-family="Arial, sans-serif" font-size="6.5" textLength="18.0" lengthAdjust="spacing" font-weight="500" paint-order="stroke" stroke="#f3f5ee" stroke-width="1.55" stroke-linejoin="round" fill="#6f777a">3571</text><text x="241.0" y="105.5" text-anchor="middle" font-family="Arial, sans-serif" font-size="6.5" textLength="18.0" lengthAdjust="spacing" font-weight="500" paint-order="stroke" stroke="#f3f5ee" stroke-width="1.55" stroke-linejoin="round" fill="#6f777a">1778</text><text x="49.0" y="100.5" text-anchor="middle" font-family="Arial, sans-serif" font-size="6.5" textLength="18.0" lengthAdjust="spacing" font-weight="500" paint-order="stroke" stroke="#f3f5ee" stroke-width="1.55" stroke-linejoin="round" fill="#6f777a">1827</text><text x="120.5" y="216.6" text-anchor="middle" font-family="Arial, sans-serif" font-size="6.5" textLength="18.0" lengthAdjust="spacing" font-weight="500" paint-order="stroke" stroke="#f3f5ee" stroke-width="1.55" stroke-linejoin="round" fill="#6f777a">1826</text><text x="119.1" y="28.5" text-anchor="middle" font-family="Arial, sans-serif" font-size="6.5" textLength="18.0" lengthAdjust="spacing" font-weight="500" paint-order="stroke" stroke="#f3f5ee" stroke-width="1.55" stroke-linejoin="round" fill="#6f777a">1791</text><text x="193.1" y="117.2" text-anchor="middle" font-family="Arial, sans-serif" font-size="6.5" textLength="18.0" lengthAdjust="spacing" font-weight="500" paint-order="stroke" stroke="#f3f5ee" stroke-width="1.55" stroke-linejoin="round" fill="#6f777a">1796</text><text x="141.8" y="16.5" text-anchor="middle" font-family="Arial, sans-serif" font-size="6.5" textLength="18.0" lengthAdjust="spacing" font-weight="500" paint-order="stroke" stroke="#f3f5ee" stroke-width="1.55" stroke-linejoin="round" fill="#6f777a">1771</text><text x="59.6" y="16.5" text-anchor="middle" font-family="Arial, sans-serif" font-size="6.5" textLength="18.0" lengthAdjust="spacing" font-weight="500" paint-order="stroke" stroke="#f3f5ee" stroke-width="1.55" stroke-linejoin="round" fill="#6f777a">1800</text><text x="143.8" y="159.2" text-anchor="middle" font-family="Arial, sans-serif" font-size="6.5" textLength="18.0" lengthAdjust="spacing" font-weight="500" paint-order="stroke" stroke="#f3f5ee" stroke-width="1.55" stroke-linejoin="round" fill="#6f777a">1814</text><text x="154.1" y="209.1" text-anchor="middle" font-family="Arial, sans-serif" font-size="6.5" textLength="18.0" lengthAdjust="spacing" font-weight="500" paint-order="stroke" stroke="#f3f5ee" stroke-width="1.55" stroke-linejoin="round" fill="#6f777a">1818</text><text x="173.4" y="141.9" text-anchor="middle" font-family="Arial, sans-serif" font-size="6.5" textLength="18.0" lengthAdjust="spacing" font-weight="500" paint-order="stroke" stroke="#f3f5ee" stroke-width="1.55" stroke-linejoin="round" fill="#6f777a">1800</text></svg>