<svg xmlns="http://www.w3.org/2000/svg" width="256" height="256" viewBox="0 0 256 256"><rect width="256" height="256" fill="#f1efe7"/><path d="M-2421.4,2955.7 L-2693.5,2754.9 L-2715.3,2738.9 L-2738.9,2733.8 L-2755.5,2719.7 L-2768.8,2718.2 L-2811.8,2721.1 L-2811.8,2717.0 L-2814.2,2713.2 L-2818.9,2710.3 L-2912.3,2669.8 L-2918.7,2666.9 L-2924.2,2665.3 L-2931.1,2664.7 L-2938.1,2664.6 L-2961.3,2664.6 L-2967.5,2664.2 L-2973.5,2663.1 L-2979.9,2660.6 L-2987.6,2658.5 L-2993.2,2658.0 L-3009.7,2657.3 L-3015.1,2656.3 L-3022.1,2654.1 L-3029.0,2652.3 L-3035.7,2650.7 L-3040.9,2648.7 L-3047.1,2644.8 L-3052.8,2640.6 L-3058.2,2636.5 L-3062.6,2634.3 L-3066.1,2633.7 L-3069.1,2633.8 L-3072.3,2634.8 L-3076.1,2636.7 L-3079.1,2640.0 L-3083.2,2644.0 L-3087.7,2648.1 L-3092.8,2650.9 L-3099.2,2653.0 L-3104.6,2654.3 L-3111.1,2655.3 L-3121.8,2656.6 L-3148.9,2657.8 L-3171.9,2659.0 L-3181.9,2662.5 L-3202.2,2663.2 L-3204.9,2659.0 L-3207.9,2657.1 L-3211.1,2656.4 L-3233.0,2657.7 L-3242.5,2661.1 L-3254.2,2661.2 L-3262.0,2660.1 L-3268.5,2658.1 L-3292.0,2659.5 L-3354.3,2664.3 L-3368.7,2664.8 L-3373.6,2664.7 L-3377.9,2663.5 L-3383.1,2661.0 L-3386.8,2658.0 L-3403.0,2658.1 L-3416.6,2657.9 L-3420.2,2660.1 L-3438.9,2660.5 L-3441.3,2664.5 L-3443.9,2664.6 L-3448.5,2663.5 L-3456.8,2662.5 L-3465.2,2662.9 L-3467.9,2663.8 L-3470.5,2663.3 L-3472.3,2661.5 L-3475.4,2659.8 L-3486.7,2659.8 L-3498.2,2660.5 L-3509.0,2666.8 L-3514.4,2669.4 L-3520.4,2670.7 L-3525.5,2671.1 L-3530.1,2670.4 L-3540.5,2665.9 L-3546.5,2664.0 L-3551.7,2663.3 L-3574.0,2663.6 L-3575.4,2660.9 L-3595.1,2661.3 L-3608.7,2663.8 L-3617.7,2664.8 L-3622.5,2665.9 L-3624.3,2664.6 L-3627.8,2664.2 L-3659.6,2661.3 L-3662.3,2662.8 L-3665.7,2663.5 L-3670.1,2663.5 L-3670.1,2661.9 L-3689.9,2658.3 L-3702.3,2655.9 L-3732.4,2645.7 L-3734.1,2648.0 L-3754.2,2641.8 L-3758.4,2640.4 L-3756.3,2633.4 L-3758.7,2632.6 L-3759.2,2631.9 L-3760.5,2631.5 L-3762.3,2631.2 L-3764.5,2630.2 L-3763.7,2629.5 L-3772.6,2622.2 L-3787.4,2608.8 L-3795.4,2601.9 L-3801.1,2595.7 L-3804.2,2591.6 L-3808.9,2585.1 L-3811.6,2580.2 L-3820.0,2569.6 L-3820.8,2569.1 L-3821.4,2569.0 L-3821.9,2569.1 L-3823.1,2569.1 L-3824.1,2568.7 L-3826.1,2567.3 L-3830.4,2565.0 L-3832.6,2563.3 L-3835.0,2561.1 L-3838.3,2559.3 L-3843.6,2557.6 L-3849.2,2556.7 L-3853.9,2556.5 L-3852.6,2544.0 L-3851.4,2527.5 L-3846.3,2528.0 L-3841.1,2528.9 L-3834.4,2530.9 L-3829.4,2532.7 L-3825.0,2534.8 L-3820.7,2536.8 L-3816.7,2539.1 L-3813.3,2541.6 L-3809.0,2545.1 L-3804.4,2548.5 L-3803.3,2549.1 L-3802.4,2549.4 L-3789.7,2548.8 L-3789.6,2551.6 L-3790.4,2552.9 L-3799.8,2553.8 L-3797.4,2558.7 L-3795.8,2558.1 L-3794.2,2559.6 L-3793.3,2561.1 L-3792.5,2562.1 L-3790.5,2564.7 L-3789.8,2567.6 L-3786.7,2571.8 L-3779.5,2576.4 L-3770.6,2580.9 L-3759.9,2587.6 L-3755.0,2589.9 L-3744.7,2595.8 L-3739.9,2598.3 L-3731.0,2601.6 L-3713.6,2606.3 L-3703.4,2608.7 L-3694.1,2609.7 L-3689.2,2610.3 L-3688.1,2610.2 L-3687.6,2609.6 L-3687.4,2606.3 L-3675.9,2606.2 L-3675.7,2610.0 L-3651.5,2611.2 L-3627.8,2611.9 L-3611.8,2611.3 L-3606.5,2610.9 L-3602.7,2610.4 L-3599.5,2609.5 L-3596.6,2607.8 L-3595.2,2605.4 L-3595.7,2566.7 L-3586.0,2566.1 L-3585.1,2603.9 L-3584.6,2604.9 L-3582.6,2606.2 L-3580.4,2606.9 L-3528.7,2606.9 L-3528.9,2590.3 L-3524.8,2590.2 L-3523.2,2606.9 L-3491.3,2606.7 L-3491.2,2604.9 L-3488.1,2604.8 L-3488.0,2606.1 L-3275.3,2602.1 L-3259.8,2600.2 L-3241.0,2599.7 L-3223.2,2602.0 L-3217.3,2601.5 L-3212.9,2600.7 L-3208.9,2599.2 L-3203.6,2597.3 L-3096.7,2595.3 L-3096.7,2588.0 L-3036.9,2586.9 L-3036.8,2595.1 L-3011.4,2595.9 L-3009.5,2595.9 L-3007.7,2595.8 L-3005.3,2595.4 L-3003.4,2594.9 L-3001.6,2594.4 L-2998.5,2592.9 L-2997.0,2595.4 L-2993.9,2593.4 L-2991.1,2591.1 L-2988.6,2588.6 L-2986.5,2585.6 L-2984.6,2582.0 L-2988.2,2580.0 L-2987.2,2576.9 L-2986.6,2573.7 L-2986.3,2570.7 L-2986.2,2568.4 L-2986.3,2566.2 L-2986.6,2547.2 L-2989.7,2544.5 L-2987.1,2541.7 L-2989.7,2539.4 L-2986.7,2535.8 L-2990.0,2533.0 L-2987.4,2530.3 L-2990.0,2527.7 L-2987.0,2524.5 L-2990.1,2521.3 L-2983.5,2514.1 L-2982.4,2514.1 L-2985.3,2406.8 L-2961.2,2406.2 L-2960.1,2406.8 L-2958.7,2407.8 L-2957.8,2408.7 L-2957.4,2409.7 L-2957.0,2410.9 L-2957.0,2412.1 L-2954.9,2578.7 L-2954.0,2584.2 L-2952.6,2587.8 L-2950.5,2592.3 L-2948.1,2596.7 L-2945.5,2600.2 L-2943.5,2602.3 L-2941.2,2604.1 L-2938.7,2605.6 L-2936.1,2606.6 L-2932.5,2607.6 L-2928.0,2608.5 L-2922.6,2609.5 L-2916.3,2610.6 L-2910.3,2611.9 L-2903.6,2613.1 L-2897.3,2614.5 L-2895.3,2614.9 L-2892.9,2615.3 L-2890.5,2615.6 L-2888.4,2615.7 L-2886.0,2615.7 L-2884.1,2615.6 L-2882.3,2615.3 L-2880.7,2614.9 L-2879.0,2614.3 L-2877.5,2613.7 L-2874.7,2612.3 L-2872.1,2610.8 L-2869.6,2608.9 L-2866.6,2606.1 L-2863.8,2603.0 L-2862.3,2600.4 L-2861.0,2597.1 L-2860.3,2594.4 L-2859.9,2591.6 L-2859.6,2588.9 L-2859.6,2586.4 L-2863.3,2407.8 L-2858.1,2402.4 L-2856.2,2402.2 L-2855.5,2401.5 L-2844.6,2401.3 L-2843.6,2399.6 L-2842.0,2400.1 L-2839.3,2402.7 L-2837.4,2405.3 L-2835.5,2408.6 L-2831.9,2608.2 L-2831.5,2611.7 L-2830.9,2618.7 L-2830.2,2620.0 L-2830.7,2620.4 L-2829.8,2622.3 L-2828.6,2624.6 L-2827.7,2626.1 L-2826.4,2627.9 L-2824.8,2629.8 L-2822.9,2631.7 L-2820.5,2633.7 L-2818.4,2635.3 L-2816.1,2636.6 L-2813.9,2637.6 L-2811.5,2638.4 L-2811.2,2637.7 L-2778.1,2649.7 L-2774.0,2651.2 L-2772.1,2651.9 L-2769.1,2653.0 L-2767.0,2653.5 L-2765.2,2653.8 L-2763.4,2653.8 L-2761.1,2653.6 L-2758.4,2653.3 L-2756.2,2652.8 L-2753.8,2652.1 L-2752.0,2651.4 L-2750.2,2650.6 L-2748.7,2649.6 L-2746.8,2648.3 L-2744.4,2646.2 L-2742.2,2644.0 L-2739.8,2641.0 L-2738.1,2638.2 L-2736.7,2635.1 L-2735.7,2631.7 L-2735.1,2628.1 L-2734.8,2621.9 L-2734.9,2609.1 L-2738.6,2406.1 L-2738.6,2403.9 L-2738.1,2402.3 L-2737.4,2401.0 L-2736.0,2399.7 L-2734.4,2398.9 L-2732.5,2398.6 L-2717.4,2398.1 L-2715.7,2398.4 L-2714.0,2399.1 L-2712.9,2400.2 L-2711.6,2402.1 L-2710.8,2404.8 L-2710.4,2408.5 L-2706.6,2668.9 L-2706.4,2670.4 L-2706.1,2672.0 L-2705.7,2673.6 L-2705.2,2675.4 L-2704.6,2677.1 L-2703.9,2678.7 L-2703.2,2680.0 L-2702.6,2681.3 L-2701.6,2682.7 L-2700.6,2684.1 L-2699.6,2685.3 L-2698.2,2686.8 L-2696.8,2688.1 L-2695.3,2689.4 L-2693.6,2690.6 L-2689.0,2693.5 L-2688.5,2693.0 L-2684.5,2695.2 L-2679.7,2697.9 L-2676.9,2699.4 L-2673.9,2701.2 L-2670.7,2703.0 L-2667.5,2705.0 L-2663.9,2707.3 L-2660.2,2709.5 L-2656.6,2711.7 L-2653.7,2713.5 L-2650.3,2715.7 L-2646.8,2718.0 L-2643.4,2720.2 L-2640.2,2722.4 L-2640.5,2722.8 L-2636.1,2725.9 L-2631.6,2728.9 L-2630.2,2729.7 L-2628.6,2730.6 L-2626.5,2731.7 L-2624.4,2732.4 L-2622.2,2733.0 L-2620.2,2733.5 L-2618.0,2733.9 L-2615.4,2734.1 L-2613.2,2734.2 L-2611.4,2734.0 L-2609.7,2733.7 L-2607.7,2733.1 L-2605.6,2732.4 L-2603.7,2731.8 L-2602.0,2731.0 L-2600.2,2730.0 L-2598.4,2728.9 L-2596.7,2727.5 L-2595.1,2726.1 L-2593.5,2724.5 L-2592.1,2722.9 L-2590.5,2720.7 L-2589.3,2718.5 L-2588.1,2716.1 L-2587.4,2714.2 L-2586.8,2712.2 L-2586.5,2710.0 L-2586.3,2707.9 L-2586.4,2705.4 L-2616.1,2421.5 L-2614.0,2421.4 L-2615.6,2407.1 L-2617.2,2407.2 L-2618.4,2400.7 L-2618.0,2399.3 L-2616.7,2397.4 L-2614.1,2395.4 L-2610.8,2395.0 L-2597.3,2394.6 L-2595.1,2395.0 L-2593.5,2395.7 L-2591.9,2397.0 L-2590.7,2398.2 L-2590.0,2399.5 L-2557.5,2717.9 L-2556.7,2720.7 L-2555.3,2724.1 L-2554.1,2726.3 L-2552.8,2728.6 L-2551.1,2730.9 L-2549.7,2732.5 L-2548.2,2734.1 L-2546.5,2735.5 L-2545.0,2736.6 L-2542.8,2737.9 L-2541.0,2738.9 L-2538.5,2739.9 L-2536.2,2740.6 L-2533.7,2741.2 L-2531.6,2741.4 L-2529.9,2741.5 L-2527.9,2741.5 L-2457.2,2740.1 L-2454.9,2739.8 L-2452.7,2738.7 L-2451.2,2737.3 L-2450.0,2735.1 L-2449.7,2733.1 L-2449.7,2731.1 L-2485.5,2390.1 L-2517.0,2349.0 L-2518.4,2350.1 L-2545.8,2311.8 L-2546.3,2303.8 L-2547.1,2302.1 L-2548.6,2300.5 L-2550.4,2297.9 L-2550.6,2294.1 L-2553.9,2292.9 L-2557.0,2292.8 L-2561.2,2294.9 L-2556.4,2303.9 L-2562.5,2306.8 L-2567.1,2302.6 L-2570.9,2300.2 L-2573.6,2299.3 L-2580.1,2299.1 L-2583.4,2292.3 L-2562.7,2283.8 L-2563.6,2282.2 L-2568.0,2276.2 L-2568.7,2276.6 L-2723.2,2074.4 L-2725.5,2041.0 L-2724.3,2040.7 L-2730.3,1979.5 L-2732.6,1973.9 L-2735.0,1967.5 L-2737.0,1962.6 L-2739.2,1956.4 L-2746.8,1935.3 L-2749.8,1936.7 L-2754.2,1919.7 L-2753.5,1919.5 L-2769.0,1877.4 L-2770.7,1803.7 L-2768.9,1803.7 L-2768.7,1797.2 L-2767.8,1790.9 L-2767.5,1788.5 L-2768.1,1786.6 L-2766.0,1776.5 L-2746.8,1742.7 L-2756.9,1736.5 L-2749.5,1724.2 L-2739.7,1729.9 L-2738.9,1728.6 L-2735.8,1730.1 L-2732.5,1731.5 L-2728.8,1732.7 L-2725.9,1733.3 L-2723.2,1733.3 L-2720.0,1732.8 L-2716.8,1731.7 L-2713.7,1730.5 L-2712.3,1729.0 L-2711.7,1727.0 L-2711.0,1724.5 L-2710.8,1723.5 L-2710.9,1722.2 L-2711.6,1720.3 L-2712.9,1718.5 L-2714.4,1717.4 L-2716.6,1715.3 L-2718.5,1713.3 L-2721.3,1711.5 L-2722.5,1708.7 L-2723.8,1705.8 L-2725.9,1702.5 L-2728.4,1699.5 L-2732.9,1696.3 L-2754.7,1685.0 L-2767.6,1678.7 L-2779.6,1672.1 L-2791.1,1665.8 L-2798.5,1661.0 L-2801.3,1660.2 L-2804.5,1661.2 L-2806.2,1663.4 L-2809.8,1672.2 L-2831.9,1662.3 L-2818.6,1641.5 L-2815.8,1640.1 L-2812.2,1639.4 L-2808.1,1640.3 L-2725.2,1688.8 L-2720.7,1690.1 L-2716.0,1691.2 L-2709.3,1691.4 L-2702.6,1690.2 L-2698.3,1688.5 L-2693.6,1684.7 L-2690.9,1682.0 L-2687.9,1677.9 L-2687.9,1677.3 L-2688.1,1676.8 L-2688.6,1676.4 L-2715.4,1659.8 L-2716.1,1659.6 L-2716.7,1659.6 L-2717.5,1659.6 L-2720.0,1660.7 L-2720.9,1660.8 L-2722.0,1660.7 L-2723.6,1660.5 L-2724.7,1660.1 L-2726.4,1659.3 L-2728.1,1658.3 L-2765.0,1635.9 L-2782.3,1623.6 L-2784.0,1623.4 L-2785.6,1623.5 L-2787.5,1623.5 L-2788.9,1623.3 L-2789.9,1622.8 L-2791.3,1621.8 L-2792.7,1620.6 L-2793.7,1619.3 L-2794.3,1617.8 L-2794.4,1616.8 L-2794.3,1615.5 L-2794.0,1614.3 L-2788.1,1604.4 L-2788.1,1603.9 L-2788.5,1603.6 L-2793.9,1599.8 L-2795.0,1598.2 L-2794.4,1597.3 L-2792.6,1597.5 L-2790.7,1598.1 L-2779.6,1605.0 L-2716.7,1645.1 L-2715.5,1645.8 L-2714.6,1646.8 L-2714.0,1647.9 L-2713.3,1650.2 L-2712.8,1652.0 L-2712.6,1653.5 L-2684.2,1670.6 L-2683.2,1671.0 L-2682.0,1671.2 L-2680.6,1670.9 L-2679.6,1670.6 L-2678.7,1670.2 L-2648.2,1620.7 L-2635.4,1602.0 L-2623.4,1588.5 L-2617.4,1591.8 L-2613.5,1585.6 L-2634.2,1573.2 L-2629.8,1565.9 L-2609.1,1578.4 L-2604.4,1570.8 L-2608.2,1566.6 L-2604.4,1562.3 L-2600.3,1567.0 L-2599.3,1566.2 L-2598.2,1565.5 L-2596.6,1564.5 L-2594.9,1563.7 L-2592.9,1563.0 L-2590.9,1562.5 L-2588.8,1562.1 L-2586.7,1562.0 L-2584.7,1562.0 L-2582.8,1562.3 L-2580.9,1562.7 L-2579.3,1563.2 L-2578.0,1563.8 L-2576.1,1564.7 L-2574.3,1565.8 L-2572.9,1566.9 L-2571.4,1568.2 L-2570.0,1569.5 L-2568.5,1571.5 L-2567.5,1573.2 L-2566.4,1575.4 L-2565.7,1577.7 L-2565.1,1580.8 L-2564.9,1583.5 L-2565.0,1585.1 L-2565.2,1586.6 L-2565.7,1589.1 L-2567.1,1592.3 L-2568.0,1594.5 L-2569.2,1597.0 L-2564.1,1599.6 L-2539.8,1570.6 L-2584.0,1543.7 L-2581.7,1539.0 L-2580.2,1534.5 L-2580.1,1532.6 L-2577.5,1527.1 L-2572.3,1522.3 L-2565.7,1517.0 L-2558.0,1512.0 L-2543.5,1507.8 L-2518.3,1505.3 L-2508.5,1497.3 L-2506.4,1496.9 L-2504.8,1496.9 L-2502.4,1497.8 L-2500.2,1498.0 L-2486.3,1506.4 L-2449.6,1462.9 L-2584.1,1377.4 L-2592.4,1390.5 L-2610.6,1379.1 L-2584.8,1338.6 L-2566.7,1349.7 L-2574.8,1363.5 L-2437.9,1449.8 L-2420.7,1427.7 L-2408.5,1413.2 L-2392.4,1389.0 L-2383.5,1376.7 L-2384.4,1369.8 L-2384.2,1369.6 L-2385.7,1364.4 L-2386.8,1361.3 L-2387.8,1358.0 L-2389.0,1355.1 L-2391.3,1351.3 L-2393.6,1347.7 L-2394.6,1345.8 L-2395.4,1343.9 L-2395.9,1342.1 L-2396.1,1340.6 L-2396.4,1335.5 L-2455.4,1281.3 L-2457.4,1283.4 L-2459.0,1282.0 L-2463.8,1286.7 L-2467.0,1282.5 L-2463.2,1278.1 L-2467.0,1273.3 L-2469.6,1273.9 L-2472.3,1274.0 L-2474.8,1273.6 L-2476.9,1272.7 L-2479.4,1270.9 L-2482.5,1267.8 L-2487.9,1261.8 L-2489.6,1259.2 L-2490.2,1256.0 L-2489.8,1252.3 L-2488.4,1248.7 L-2487.1,1246.3 L-2484.7,1244.0 L-2482.1,1242.2 L-2479.5,1241.2 L-2477.6,1240.9 L-2475.1,1241.3 L-2472.6,1242.3 L-2470.2,1244.1 L-2464.6,1249.2 L-2461.8,1251.9 L-2459.1,1254.7 L-2458.3,1256.1 L-2457.7,1257.5 L-2457.4,1258.8 L-2457.1,1260.6 L-2457.4,1262.3 L-2457.9,1263.9 L-2458.6,1265.1 L-2458.8,1265.6 L-2458.7,1266.3 L-2458.2,1267.1 L-2394.8,1326.5 L-2392.6,1328.0 L-2391.1,1328.7 L-2388.8,1328.2 L-2386.3,1327.9 L-2383.0,1329.4 L-2379.6,1331.4 L-2373.2,1335.1 L-2370.5,1336.3 L-2368.1,1333.9 L-2365.4,1331.4 L-2363.5,1329.3 L-2360.5,1325.4 L-2358.8,1323.1 L-2357.1,1320.1 L-2355.9,1317.6 L-2354.6,1314.9 L-2353.5,1312.0 L-2352.5,1309.2 L-2351.8,1306.7 L-2351.1,1303.6 L-2350.9,1301.8 L-2350.6,1300.3 L-2350.3,1297.6 L-2350.0,1295.0 L-2349.8,1293.3 L-2349.7,1291.4 L-2349.7,1289.3 L-2349.8,1287.5 L-2350.2,1285.0 L-2350.5,1282.1 L-2350.9,1279.5 L-2351.2,1277.4 L-2351.5,1275.7 L-2351.9,1274.1 L-2352.3,1272.3 L-2352.9,1270.4 L-2353.6,1268.4 L-2354.1,1267.1 L-2354.7,1265.9 L-2355.5,1264.8 L-2356.7,1263.1 L-2357.9,1261.6 L-2359.3,1260.3 L-2361.0,1258.9 L-2362.7,1257.8 L-2364.5,1256.9 L-2366.1,1256.2 L-2367.2,1255.9 L-2368.5,1255.7 L-2369.9,1255.8 L-2371.3,1256.1 L-2372.4,1256.5 L-2373.5,1257.3 L-2374.3,1258.1 L-2374.9,1258.9 L-2375.3,1260.0 L-2375.6,1261.3 L-2375.5,1262.7 L-2375.4,1264.5 L-2375.4,1265.8 L-2375.5,1267.1 L-2375.7,1268.4 L-2376.0,1269.5 L-2376.4,1270.8 L-2377.1,1272.1 L-2377.9,1273.3 L-2378.8,1274.4 L-2379.7,1275.3 L-2381.3,1276.6 L-2382.8,1277.5 L-2384.9,1278.2 L-2386.2,1278.5 L-2387.7,1278.7 L-2389.1,1278.7 L-2390.9,1278.7 L-2392.2,1278.4 L-2394.0,1278.0 L-2396.5,1277.3 L-2398.6,1276.5 L-2400.2,1275.8 L-2401.8,1274.9 L-2403.2,1273.9 L-2404.9,1272.7 L-2406.1,1271.6 L-2407.2,1270.5 L-2408.3,1269.2 L-2409.2,1268.0 L-2410.0,1266.8 L-2410.7,1265.5 L-2411.6,1263.7 L-2412.2,1262.0 L-2412.9,1260.2 L-2413.4,1258.8 L-2413.7,1257.5 L-2414.0,1256.2 L-2414.2,1254.1 L-2414.3,1252.2 L-2414.2,1250.2 L-2413.8,1247.5 L-2413.1,1244.9 L-2412.1,1242.2 L-2411.4,1241.0 L-2410.8,1240.2 L-2405.6,1233.7 L-2404.5,1232.3 L-2402.9,1231.6 L-2401.3,1231.0 L-2399.4,1230.6 L-2397.3,1230.3 L-2395.5,1230.2 L-2393.8,1230.3 L-2392.0,1230.5 L-2389.9,1231.1 L-2387.8,1232.2 L-2385.9,1233.3 L-2384.2,1234.6 L-2379.0,1239.4 L-2377.8,1239.8 L-2377.1,1239.9 L-2376.2,1239.8 L-2375.7,1239.6 L-2375.0,1238.8 L-2374.7,1238.0 L-2374.6,1236.8 L-2374.6,1235.9 L-2374.8,1235.4 L-2385.3,1225.0 L-2371.0,1209.8 L-2371.8,1207.9 L-2363.6,1199.8 L-2347.6,1215.7 L-2360.5,1232.0 L-2360.5,1233.0 L-2359.9,1233.3 L-2359.1,1233.2 L-2345.1,1215.6 L-2340.9,1210.6 L-2340.8,1209.5 L-2341.2,1208.4 L-2341.9,1207.6 L-2352.9,1197.2 L-2350.2,1194.0 L-2352.9,1191.6 L-2351.4,1187.9 L-2322.8,1159.3 L-2313.1,1157.6 L-2310.0,1157.2 L-2307.1,1156.7 L-2305.7,1156.4 L-2304.1,1155.6 L-2302.3,1154.5 L-2300.8,1153.0 L-2299.4,1151.3 L-2284.8,1130.2 L-2284.5,1129.6 L-2284.7,1128.9 L-2284.9,1128.4 L-2285.3,1127.9 L-2287.0,1126.9 L-2287.4,1126.6 L-2287.9,1126.6 L-2288.3,1126.9 L-2289.2,1127.6 L-2301.5,1139.0 L-2306.2,1142.4 L-2325.7,1122.4 L-2323.4,1115.3 L-2322.5,1113.2 L-2319.5,1107.6 L-2315.9,1101.4 L-2313.7,1099.0 L-2309.9,1094.9 L-2305.8,1090.3 L-2301.3,1085.6 L-2297.4,1082.3 L-2295.6,1080.6 L-2293.2,1078.9 L-2290.9,1077.6 L-2287.7,1076.2 L-2285.7,1075.5 L-2283.7,1074.9 L-2282.2,1074.8 L-2280.0,1074.9 L-2278.1,1075.2 L-2276.0,1075.7 L-2273.9,1077.4 L-2272.7,1079.2 L-2271.9,1081.0 L-2271.6,1083.7 L-2271.8,1087.3 L-2272.2,1091.2 L-2273.1,1095.1 L-2278.2,1106.6 L-2283.1,1116.9 L-2281.4,1119.7 L-2280.5,1120.2 L-2279.5,1120.2 L-2278.7,1120.1 L-2278.0,1119.6 L-2274.7,1114.9 L-2270.4,1112.7 L-2261.8,1089.9 L-2261.3,1088.8 L-2260.4,1087.8 L-2259.5,1087.3 L-2258.8,1087.1 L-2257.6,1087.1 L-2256.4,1087.4 L-2250.2,1089.2 L-2248.9,1089.4 L-2247.6,1089.4 L-2246.3,1089.2 L-2245.2,1088.8 L-2244.3,1088.1 L-2243.4,1086.9 L-2232.9,1072.9 L-2232.4,1071.9 L-2232.2,1070.8 L-2232.2,1069.7 L-2232.4,1068.6 L-2232.7,1067.8 L-2233.4,1067.0 L-2234.1,1066.4 L-2235.1,1065.9 L-2236.0,1065.6 L-2237.0,1065.6 L-2237.8,1065.7 L-2238.7,1066.1 L-2239.4,1066.7 L-2240.0,1067.4 L-2242.7,1071.8 L-2243.3,1072.7 L-2244.0,1073.5 L-2245.1,1074.4 L-2246.0,1074.9 L-2247.2,1075.3 L-2248.6,1075.5 L-2249.4,1075.5 L-2250.4,1075.4 L-2251.4,1075.2 L-2252.2,1074.8 L-2260.8,1067.0 L-2261.8,1065.8 L-2262.5,1064.7 L-2263.2,1063.3 L-2263.7,1062.2 L-2264.0,1061.0 L-2264.2,1059.7 L-2264.4,1058.1 L-2264.4,1056.5 L-2264.3,1055.1 L-2264.1,1054.0 L-2263.8,1053.0 L-2263.5,1052.2 L-2247.8,1027.3 L-2246.8,1025.7 L-2246.2,1024.8 L-2245.5,1024.4 L-2244.4,1023.9 L-2243.2,1023.5 L-2242.0,1023.4 L-2241.3,1023.4 L-2240.7,1023.5 L-2240.1,1023.7 L-2239.3,1024.0 L-2238.4,1024.6 L-2236.8,1026.0 L-2229.7,1032.6 L-2228.5,1034.3 L-2227.7,1036.0 L-2227.1,1037.9 L-2226.9,1039.4 L-2226.8,1041.0 L-2226.8,1042.4 L-2226.9,1043.7 L-2227.2,1045.1 L-2227.5,1046.0 L-2228.3,1047.9 L-2231.1,1053.1 L-2231.5,1054.3 L-2231.5,1055.8 L-2231.4,1056.9 L-2230.9,1057.7 L-2230.2,1058.5 L-2229.0,1059.4 L-2228.0,1059.9 L-2226.9,1060.2 L-2225.5,1060.2 L-2224.4,1059.9 L-2223.1,1059.3 L-2222.0,1058.3 L-2203.5,1032.9 L-2209.2,1027.8 L-2205.8,1024.1 L-2200.7,1028.9 L-2190.4,1015.3 L-2174.6,994.3 L-2238.0,933.5 L-2251.8,948.0 L-2267.9,932.7 L-2252.3,915.9 L-2254.4,913.7 L-2251.1,910.7 L-2249.1,912.7 L-2238.2,900.9 L-2228.5,909.9 L-2227.4,917.4 L-2186.3,955.7 L-2178.3,958.8 L-2172.0,956.6 L-2159.8,961.4 L-2151.8,958.4 L-2127.8,929.2 L-2126.5,926.4 L-2126.1,922.7 L-2127.2,919.1 L-2128.9,916.5 L-2143.0,903.4 L-2142.9,899.8 L-2140.1,892.7 L-2134.4,882.3 L-2145.5,875.1 L-2141.3,873.6 L-2138.6,871.8 L-2136.0,868.8 L-2132.9,860.9 L-2127.2,846.4 L-2123.5,843.0 L-2158.6,809.0 L-2166.3,813.8 L-2168.1,814.3 L-2169.8,814.3 L-2172.0,814.0 L-2173.8,813.5 L-2175.6,812.5 L-2177.0,811.2 L-2195.2,793.7 L-2198.6,790.4 L-2200.0,788.6 L-2201.3,786.3 L-2201.9,784.2 L-2202.1,782.2 L-2202.1,780.4 L-2201.7,778.5 L-2201.3,777.1 L-2200.7,776.0 L-2199.4,774.2 L-2197.9,772.4 L-2189.7,763.9 L-2127.7,821.3 L-2132.0,826.1 L-2086.0,869.6 L-2033.0,792.1 L-2066.7,760.6 L-2071.0,764.5 L-2133.7,705.3 L-2125.5,697.6 L-2089.4,731.4 L-2085.8,726.1 L-2083.9,723.5 L-2081.3,720.8 L-2078.4,717.6 L-2075.4,715.7 L-2070.6,711.7 L-2065.9,707.3 L-2056.7,698.7 L-2035.0,674.2 L-2031.1,670.1 L-2016.7,662.8 L-2003.1,652.2 L-2001.8,651.1 L-1998.3,648.4 L-1996.8,647.0 L-1995.5,645.4 L-1994.7,643.8 L-1994.1,642.1 L-1993.4,640.9 L-1992.7,639.5 L-1991.4,637.3 L-1990.5,636.0 L-1989.6,634.8 L-1988.0,633.4 L-1986.4,632.4 L-1984.6,631.3 L-1980.5,629.3 L-1976.4,627.3 L-1975.9,627.2 L-1975.2,627.3 L-1974.0,627.7 L-1970.8,629.3 L-1968.3,630.5 L-1967.2,631.2 L-1966.2,632.0 L-1949.4,647.9 L-1948.3,648.6 L-1942.9,650.0 L-1941.1,650.5 L-1939.1,650.7 L-1937.7,650.6 L-1936.5,650.2 L-1935.3,649.5 L-1929.4,641.1 L-1929.4,639.9 L-1929.6,638.8 L-1930.3,637.7 L-1931.2,636.6 L-1935.8,632.4 L-1935.5,631.7 L-1929.6,619.3 L-1919.6,599.1 L-1910.5,592.4 L-1905.3,587.1 L-1901.6,583.0 L-1897.9,579.1 L-1893.6,575.7 L-1891.1,573.4 L-1888.4,570.9 L-1886.4,568.9 L-1885.4,567.1 L-1884.6,565.7 L-1884.1,564.3 L-1883.9,562.7 L-1883.8,561.2 L-1880.7,558.1 L-1876.3,553.8 L-1868.7,547.7 L-1860.9,541.7 L-1857.4,536.8 L-1856.1,531.7 L-1852.2,529.4 L-1847.3,529.3 L-1842.3,526.3 L-1838.0,518.5 L-1838.1,510.3 L-1837.3,497.7 L-1836.0,495.9 L-1835.3,494.7 L-1833.9,492.4 L-1835.7,487.1 L-1833.7,484.6 L-1823.8,472.3 L-1806.7,452.4 L-1803.5,447.7 L-1802.2,445.3 L-1796.8,437.8 L-1795.3,433.2 L-1795.3,425.9 L-1795.5,418.7 L-1795.5,411.3 L-1793.3,403.1 L-1789.6,395.0 L-1784.3,387.3 L-1780.5,381.6 L-1775.9,375.8 L-1767.1,366.0 L-1728.1,346.7 L-1722.9,345.4 L-1721.6,348.2 L-1720.1,350.9 L-1719.6,351.4 L-1718.8,351.0 L-1718.6,349.1 L-1719.2,347.5 L-1717.0,346.9 L-1709.0,344.5 L-1698.6,341.4 L-1690.2,338.9 L-1687.3,338.0 L-1690.2,328.6 L-1685.1,327.2 L-1676.4,326.0 L-1675.3,325.8 L-1675.3,325.2 L-1675.3,323.0 L-1667.5,322.6 L-1655.2,322.1 L-1650.4,324.5 L-1638.6,367.2 L-1635.9,369.7 L-1641.0,375.0 L-1636.5,379.5 L-1632.0,384.0 L-1626.6,378.5 L-1526.4,473.8 L-1392.6,331.0 L-1345.8,375.7 L-1344.0,375.1 L-1343.3,375.9 L-1340.2,374.0 L-1337.6,373.0 L-1334.8,371.8 L-1330.1,369.3 L-1327.2,367.7 L-1323.7,365.7 L-1320.6,363.7 L-1318.0,362.0 L-1315.6,360.4 L-1312.7,358.3 L-1309.6,356.0 L-1307.1,353.9 L-1304.5,351.7 L-1301.7,348.9 L-1298.9,346.2 L-1292.6,339.6 L-1288.9,335.0 L-1285.1,330.1 L-1282.6,326.5 L-1280.2,322.8 L-1277.4,317.6 L-1274.9,312.5 L-1272.9,308.4 L-1271.2,304.3 L-1270.1,301.5 L-1269.0,298.4 L-1266.2,295.1 L-1351.8,213.7 L-1350.7,212.5 L-1340.5,201.6 L-1333.0,193.7 L-1332.3,192.9 L-1310.6,213.2 L-1305.3,210.5 L-1304.7,211.2 L-1253.7,184.7 L-1251.6,183.5 L-1250.2,182.4 L-1248.8,181.1 L-1247.3,179.5 L-1245.7,177.3 L-1244.5,175.2 L-1243.6,173.6 L-1243.0,171.5 L-1242.4,169.3 L-1242.2,166.9 L-1242.2,164.1 L-1242.4,161.9 L-1242.8,159.9 L-1243.5,157.6 L-1259.4,111.7 L-1261.6,104.2 L-1261.0,101.6 L-1299.5,92.0 L-1297.7,85.4 L-1296.2,79.4 L-1284.8,34.2 L-1293.7,8.0 L-1298.8,-9.0 L-1300.4,-13.3 L-1286.6,-26.0 L-1271.0,-34.3 L-1270.1,-33.0 L-1268.6,-30.9 L-1265.0,-26.3 L-1264.7,-26.7 L-1264.6,-28.3 L-1269.4,-34.9 L-1260.8,-41.2 L-1258.9,-42.3 L-1254.3,-36.4 L-1253.6,-35.8 L-1252.8,-35.7 L-1252.4,-35.8 L-1252.4,-36.2 L-1273.8,-65.5 L-1275.4,-67.2 L-1277.2,-69.7 L-1286.5,-80.9 L-1278.6,-105.6 L-1272.4,-111.9 L-1265.4,-115.2 L-1250.4,-124.1 L-1247.3,-127.3 L-1233.9,-139.1 L-1229.6,-134.6 L-1217.2,-121.2 L-1205.6,-130.9 L-1197.9,-123.5 L-1190.9,-116.6 L-1190.5,-116.3 L-1184.6,-121.4 L-1176.9,-113.0 L-1170.1,-104.4 L-1165.2,-98.7 L-1164.5,-98.0 L-1150.1,-110.6 L-1149.4,-111.2 L-1152.8,-115.4 L-1144.9,-121.8 L-1121.2,-94.1 L-1100.9,-107.4 L-1098.9,-109.3 L-1090.1,-113.0 L-1088.1,-115.0 L-1086.2,-117.5 L-1075.4,-127.1 L-1077.8,-130.5 L-1097.2,-126.1 L-1119.4,-151.3 L-1116.9,-153.5 L-1113.5,-149.6 L-1097.8,-163.1 L-1081.1,-144.9 L-1076.6,-143.1 L-1074.0,-141.5 L-1070.5,-137.7 L-1068.7,-139.3 L-1080.8,-153.0 L-1073.4,-159.5 L-1058.4,-141.5 L-1056.5,-142.9 L-1056.7,-143.3 L-1023.9,-167.0 L-1014.2,-174.2 L-1046.0,-214.0 L-1039.2,-218.7 L-1011.5,-186.3 L-991.1,-182.6 L-977.5,-190.4 L-975.7,-191.6 L-975.8,-193.1 L-976.7,-194.9 L-966.1,-201.5 L-963.1,-198.4 L-954.1,-203.7 L-960.6,-211.7 L-991.8,-253.3 L-969.8,-276.2 L-955.3,-297.5 L-955.0,-314.2 L-962.7,-336.4 L-946.5,-349.9 L-929.4,-356.5 L-923.9,-357.7 L-919.4,-358.3 L-913.9,-358.0 L-908.1,-356.6 L-899.9,-349.6 L-878.5,-323.4 L-861.4,-301.7 L-841.0,-288.1 L-832.9,-286.8 L-825.7,-285.9 L-819.6,-285.7 L-811.8,-286.2 L-803.3,-287.6 L-796.5,-289.6 L-790.7,-292.3 L-786.9,-294.6 L-784.0,-297.5 L-779.2,-303.4 L-774.0,-312.9 L-768.4,-325.5 L-758.3,-320.3 L-754.3,-319.0 L-750.0,-318.3 L-743.1,-318.8 L-738.6,-320.1 L-733.4,-322.4 L-728.5,-325.2 L-723.4,-330.2 L-719.0,-334.2 L-713.5,-337.9 L-709.7,-340.4 L-704.1,-342.4 L-694.5,-345.2 L-688.8,-346.8 L-682.6,-349.1 L-677.3,-351.8 L-674.2,-353.7 L-671.7,-356.2 L-639.0,-372.6 L-637.8,-373.3 L-636.3,-374.3 L-634.8,-375.4 L-632.6,-376.7 L-631.1,-377.4 L-629.6,-378.7 L-628.4,-380.0 L-626.8,-381.0 L-625.1,-382.2 L-622.8,-384.3 L-619.6,-384.6 L-616.3,-385.0 L-614.2,-385.6 L-611.4,-386.9 L-608.0,-388.5 L-604.3,-390.7 L-602.2,-392.7 L-599.9,-395.3 L-598.5,-397.8 L-597.7,-400.1 L-597.7,-401.6 L-597.6,-403.0 L-596.8,-408.1 L-578.6,-418.7 L-546.7,-437.1 L-540.5,-440.6 L-486.4,-471.9 L-427.8,-505.5 L-402.9,-519.8 L-394.2,-524.6 L-321.7,-566.7 L-305.7,-575.6 L-305.9,-576.2 L-272.7,-594.9 L-260.0,-602.0 L-236.5,-615.1 L-236.3,-614.7 L-227.2,-619.7 L-205.1,-632.0 L-202.4,-634.4 L-180.0,-650.9 L-168.9,-660.1 L-158.6,-668.8 L-153.9,-671.4 L-143.3,-681.9 L-142.4,-681.3 L-141.0,-681.5 L-140.3,-681.0 L-125.4,-698.5 L-129.1,-702.0 L-128.6,-702.9 L-127.0,-705.2 L-122.8,-710.7 L-120.2,-714.6 L-118.1,-717.8 L-115.3,-722.2 L-112.5,-726.7 L-109.4,-731.9 L-106.2,-737.4 L-99.2,-751.8 L-97.1,-756.4 L-95.4,-760.0 L-94.1,-762.7 L-93.1,-764.9 L-90.9,-770.3 L-148.8,-878.3 L-149.9,-880.4 L-150.7,-881.6 L-151.4,-882.4 L-152.2,-883.1 L-152.9,-883.6 L-153.9,-884.2 L-155.0,-884.6 L-155.9,-884.8 L-156.8,-884.9 L-158.1,-884.9 L-159.6,-884.7 L-161.0,-884.3 L-162.4,-883.6 L-175.9,-875.8 L-193.4,-865.7 L-205.7,-858.9 L-228.0,-846.7 L-241.7,-839.2 L-241.2,-838.3 L-247.0,-835.0 L-266.2,-825.1 L-280.4,-816.7 L-288.7,-812.1 L-301.5,-804.7 L-302.9,-803.8 L-314.1,-823.8 L-292.1,-835.8 L-262.2,-852.0 L-241.9,-863.4 L-239.4,-864.8 L-239.7,-865.4 L-222.2,-874.9 L-212.8,-880.1 L-191.3,-890.6 L-187.3,-892.6 L-154.9,-910.6 L-142.8,-917.3 L-134.2,-921.9 L-124.1,-927.7 L-110.1,-902.4 L-132.1,-890.4 L-133.2,-888.6 L-133.7,-886.6 L-133.9,-885.1 L-133.9,-883.8 L-133.8,-882.8 L-133.4,-881.3 L-88.6,-798.4 L-87.7,-797.1 L-86.7,-796.2 L-85.8,-795.5 L-84.7,-795.2 L-83.6,-795.0 L-82.5,-795.1 L-81.6,-795.4 L-61.7,-810.5 L-52.4,-818.3 L-42.7,-826.4 L-39.0,-829.8 L-27.1,-839.6 L-26.5,-839.6 L-15.0,-849.5 L-14.9,-850.1 L-7.3,-856.3 L-1.3,-861.3 L9.0,-869.8 L9.9,-868.6 L20.0,-876.9 L25.1,-881.2 L39.3,-892.9 L49.1,-901.1 L48.2,-902.5 L51.5,-905.3 L56.8,-909.7 L60.1,-912.6 L74.1,-918.8 L83.5,-922.2 L88.4,-924.5 L101.9,-924.6 L106.7,-924.6 L116.7,-924.0 L128.5,-923.5 L129.4,-924.4 L130.5,-922.8 L134.2,-922.7 L167.9,-919.8 L171.8,-918.9 L175.2,-918.4 L183.0,-917.7 L197.6,-917.0 L200.8,-917.0 L203.8,-917.0 L215.5,-917.5 L221.5,-917.8 L227.4,-918.4 L236.5,-919.3 L236.5,-918.8 L243.7,-920.0 L250.6,-921.3 L255.9,-922.3 L262.7,-927.5 L263.6,-926.3 L264.4,-925.2 L325.2,-844.7 L471.9,-794.2 L741.3,-992.0 L814.6,-1044.8 L843.0,-1105.3 L797.9,-1164.4 L799.9,-1172.8 L807.8,-1175.0 L823.0,-1171.8 L833.8,-1175.9 L836.8,-1180.1 L836.1,-1183.7 L828.1,-1199.6 L827.5,-1205.5 L827.1,-1217.2 L825.7,-1228.4 L827.1,-1230.5 L831.7,-1232.6 L837.2,-1233.9 L841.2,-1238.2 L842.1,-1243.4 L838.7,-1253.5 L838.4,-1260.4 L839.4,-1268.3 L844.9,-1282.2 L843.8,-1288.6 L841.1,-1295.7 L841.0,-1305.4 L839.4,-1318.2 L836.4,-1326.2 L834.7,-1330.4 L835.8,-1332.3 L837.0,-1332.1 L837.3,-1332.9 L837.4,-1333.9 L837.4,-1334.9 L835.7,-1335.1 L834.5,-1336.7 L834.7,-1338.5 L833.2,-1338.9 L831.4,-1339.0 L831.1,-1338.5 L827.4,-1343.0 L826.6,-1344.4 L825.9,-1346.4 L825.4,-1348.2 L825.1,-1350.2 L824.9,-1352.3 L824.9,-1354.0 L824.8,-1355.9 L825.0,-1356.9 L825.8,-1359.4 L826.7,-1361.4 L827.9,-1363.3 L829.6,-1365.8 L831.3,-1368.2 L833.0,-1369.8 L835.0,-1371.4 L835.4,-1371.0 L853.0,-1384.4 L855.5,-1386.4 L855.0,-1387.1 L855.0,-1388.4 L859.4,-1391.8 L860.4,-1391.8 L861.5,-1391.0 L863.3,-1392.4 L881.4,-1406.0 L881.1,-1406.5 L883.3,-1408.1 L885.8,-1409.6 L887.5,-1410.4 L890.0,-1411.4 L892.2,-1411.9 L894.3,-1412.3 L896.6,-1412.5 L898.1,-1412.3 L900.0,-1412.0 L901.9,-1411.4 L903.3,-1410.7 L904.7,-1409.9 L905.7,-1409.2 L906.5,-1408.3 L907.8,-1407.2 L908.3,-1406.9 L909.2,-1406.9 L910.1,-1407.1 L912.8,-1409.1 L912.9,-1409.6 L913.2,-1410.0 L913.4,-1410.5 L913.4,-1411.2 L913.3,-1411.7 L912.8,-1412.3 L910.9,-1414.2 L909.4,-1415.5 L907.6,-1416.5 L904.6,-1417.7 L902.1,-1418.8 L906.5,-1421.1 L911.9,-1424.8 L918.7,-1425.7 L925.4,-1425.3 L929.9,-1427.0 L933.7,-1432.5 L948.2,-1458.5 L954.1,-1469.2 L958.7,-1480.6 L959.5,-1482.9 L966.5,-1504.1 L967.5,-1506.2 L968.8,-1508.2 L985.1,-1528.3 L988.5,-1531.9 L991.1,-1534.1 L1027.4,-1565.2 L1029.3,-1566.5 L1035.6,-1569.9 L1043.0,-1574.1 L1066.2,-1586.2 L1116.8,-1613.4 L1117.9,-1612.5 L1118.9,-1612.1 L1119.8,-1611.9 L1120.7,-1612.0 L1121.6,-1612.2 L1124.3,-1612.8 L1127.4,-1613.5 L1130.3,-1614.1 L1133.2,-1614.6 L1134.8,-1615.0 L1137.1,-1615.7 L1139.5,-1616.7 L1145.6,-1620.0 L1147.8,-1621.2 L1148.9,-1621.9 L1150.1,-1622.4 L1154.8,-1624.4 L1159.9,-1626.4 L1166.4,-1629.2 L1174.1,-1632.3 L1174.4,-1632.5 L1175.0,-1632.5 L1175.9,-1632.8 L1177.1,-1633.7 L1178.4,-1634.2 L1179.9,-1634.9 L1182.7,-1636.5 L1183.7,-1637.5 L1185.4,-1638.6 L1185.2,-1638.9 L1185.9,-1639.7 L1186.9,-1640.7 L1188.3,-1641.5 L1189.6,-1641.9 L1190.9,-1642.4 L1192.2,-1643.1 L1194.6,-1644.7 L1195.4,-1645.4 L1196.1,-1646.5 L1196.4,-1647.2 L1196.4,-1648.0 L1196.4,-1648.8 L1196.5,-1649.6 L1189.5,-1658.0 L1211.5,-1670.9 L1222.0,-1676.5 L1224.1,-1677.1 L1227.3,-1676.6 L1230.8,-1671.6 L1232.4,-1670.2 L1233.9,-1669.5 L1235.2,-1669.2 L1236.4,-1669.3 L1255.4,-1677.0 L1260.5,-1679.5 L1265.3,-1682.2 L1273.0,-1686.3 L1274.6,-1686.9 L1382.0,-1731.5 L1415.6,-1747.6 L1565.9,-1819.8 L5072.4,-1848.8 L5072.4,3169.0 L-2421.4,3169.0 L-2421.4,2955.7 Z" fill="#add7e1" stroke="none"><title>Biscayne Bay</title></path></svg>