<svg xmlns="http://www.w3.org/2000/svg" width="256" height="256" viewBox="0 0 256 256"><rect width="256" height="256" fill="#f1efe7"/><path d="M394.6,395.7 L122.5,194.9 L100.7,178.9 L77.1,173.8 L60.5,159.7 L47.2,158.2 L4.2,161.1 L4.2,157.0 L1.8,153.2 L-2.9,150.3 L-96.3,109.8 L-102.7,106.9 L-108.2,105.3 L-115.1,104.7 L-122.1,104.6 L-145.3,104.6 L-151.5,104.2 L-157.5,103.1 L-163.9,100.6 L-171.6,98.5 L-177.2,98.0 L-193.7,97.3 L-199.1,96.3 L-206.1,94.1 L-213.0,92.3 L-219.7,90.7 L-224.9,88.7 L-231.1,84.8 L-236.8,80.6 L-242.2,76.5 L-246.6,74.3 L-250.1,73.7 L-253.1,73.8 L-256.3,74.8 L-260.1,76.7 L-263.1,80.0 L-267.2,84.0 L-271.7,88.1 L-276.8,90.9 L-283.2,93.0 L-288.6,94.3 L-295.1,95.3 L-305.8,96.6 L-332.9,97.8 L-355.9,99.0 L-365.9,102.5 L-386.2,103.2 L-388.9,99.0 L-391.9,97.1 L-395.1,96.4 L-417.0,97.7 L-426.5,101.1 L-438.2,101.2 L-446.0,100.1 L-452.5,98.1 L-476.0,99.5 L-538.3,104.3 L-552.7,104.8 L-557.6,104.7 L-561.9,103.5 L-567.1,101.0 L-570.8,98.0 L-587.0,98.1 L-600.6,97.9 L-604.2,100.1 L-622.9,100.5 L-625.3,104.5 L-627.9,104.6 L-632.5,103.5 L-640.8,102.5 L-649.2,102.9 L-651.9,103.8 L-654.5,103.3 L-656.3,101.5 L-659.4,99.8 L-670.7,99.8 L-682.2,100.5 L-693.0,106.8 L-698.4,109.4 L-704.4,110.7 L-709.5,111.1 L-714.1,110.4 L-724.5,105.9 L-730.5,104.0 L-735.7,103.3 L-758.0,103.6 L-759.4,100.9 L-779.1,101.3 L-792.7,103.8 L-801.7,104.8 L-806.5,105.9 L-808.3,104.6 L-811.8,104.2 L-843.6,101.3 L-846.3,102.8 L-849.7,103.5 L-854.1,103.5 L-854.1,101.9 L-873.9,98.3 L-886.3,95.9 L-916.4,85.7 L-918.1,88.0 L-938.2,81.8 L-942.4,80.4 L-940.3,73.4 L-942.7,72.6 L-943.2,71.9 L-944.5,71.5 L-946.3,71.2 L-948.5,70.2 L-947.7,69.5 L-956.6,62.2 L-971.4,48.8 L-979.4,41.9 L-985.1,35.7 L-988.2,31.6 L-992.9,25.1 L-995.6,20.2 L-1004.0,9.6 L-1004.8,9.1 L-1005.4,9.0 L-1005.9,9.1 L-1007.1,9.1 L-1008.1,8.7 L-1010.1,7.3 L-1014.4,5.0 L-1016.6,3.3 L-1019.0,1.1 L-1022.3,-0.7 L-1027.6,-2.4 L-1033.2,-3.3 L-1037.9,-3.5 L-1036.6,-16.0 L-1035.4,-32.5 L-1030.3,-32.0 L-1025.1,-31.1 L-1018.4,-29.1 L-1013.4,-27.3 L-1009.0,-25.2 L-1004.7,-23.2 L-1000.7,-20.9 L-997.3,-18.4 L-993.0,-14.9 L-988.4,-11.5 L-987.3,-10.9 L-986.4,-10.6 L-973.7,-11.2 L-973.6,-8.4 L-974.4,-7.1 L-983.8,-6.2 L-981.4,-1.3 L-979.8,-1.9 L-978.2,-0.4 L-977.3,1.1 L-976.5,2.1 L-974.5,4.7 L-973.8,7.6 L-970.7,11.8 L-963.5,16.4 L-954.6,20.9 L-943.9,27.6 L-939.0,29.9 L-928.7,35.8 L-923.9,38.3 L-915.0,41.6 L-897.6,46.3 L-887.4,48.7 L-878.1,49.7 L-873.2,50.3 L-872.1,50.2 L-871.6,49.6 L-871.4,46.3 L-859.9,46.2 L-859.7,50.0 L-835.5,51.2 L-811.8,51.9 L-795.8,51.3 L-790.5,50.9 L-786.7,50.4 L-783.5,49.5 L-780.6,47.8 L-779.2,45.4 L-779.7,6.7 L-770.0,6.1 L-769.1,43.9 L-768.6,44.9 L-766.6,46.2 L-764.4,46.9 L-712.7,46.9 L-712.9,30.3 L-708.8,30.2 L-707.2,46.9 L-675.3,46.7 L-675.2,44.9 L-672.1,44.8 L-672.0,46.1 L-459.3,42.1 L-443.8,40.2 L-425.0,39.7 L-407.2,42.0 L-401.3,41.5 L-396.9,40.7 L-392.9,39.2 L-387.6,37.3 L-280.7,35.3 L-280.7,28.0 L-220.9,26.9 L-220.8,35.1 L-195.4,35.9 L-193.5,35.9 L-191.7,35.8 L-189.3,35.4 L-187.4,34.9 L-185.6,34.4 L-182.5,32.9 L-181.0,35.4 L-177.9,33.4 L-175.1,31.1 L-172.6,28.6 L-170.5,25.6 L-168.6,22.0 L-172.2,20.0 L-171.2,16.9 L-170.6,13.7 L-170.3,10.7 L-170.2,8.4 L-170.3,6.2 L-170.6,-12.8 L-173.7,-15.5 L-171.1,-18.3 L-173.7,-20.6 L-170.7,-24.2 L-174.0,-27.0 L-171.4,-29.7 L-174.0,-32.3 L-171.0,-35.5 L-174.1,-38.7 L-167.5,-45.9 L-166.4,-45.9 L-169.3,-153.2 L-145.2,-153.8 L-144.1,-153.2 L-142.7,-152.2 L-141.8,-151.3 L-141.4,-150.3 L-141.0,-149.1 L-141.0,-147.9 L-138.9,18.7 L-138.0,24.2 L-136.6,27.8 L-134.5,32.3 L-132.1,36.7 L-129.5,40.2 L-127.5,42.3 L-125.2,44.1 L-122.7,45.6 L-120.1,46.6 L-116.5,47.6 L-112.0,48.5 L-106.6,49.5 L-100.3,50.6 L-94.3,51.9 L-87.6,53.1 L-81.3,54.5 L-79.3,54.9 L-76.9,55.3 L-74.5,55.6 L-72.4,55.7 L-70.0,55.7 L-68.1,55.6 L-66.3,55.3 L-64.7,54.9 L-63.0,54.3 L-61.5,53.7 L-58.7,52.3 L-56.1,50.8 L-53.6,48.9 L-50.6,46.1 L-47.8,43.0 L-46.3,40.4 L-45.0,37.1 L-44.3,34.4 L-43.9,31.6 L-43.6,28.9 L-43.6,26.4 L-47.3,-152.2 L-42.1,-157.6 L-40.2,-157.8 L-39.5,-158.5 L-28.6,-158.7 L-27.6,-160.4 L-26.0,-159.9 L-23.3,-157.3 L-21.4,-154.7 L-19.5,-151.4 L-15.9,48.2 L-15.5,51.7 L-14.9,58.7 L-14.2,60.0 L-14.7,60.4 L-13.8,62.3 L-12.6,64.6 L-11.7,66.1 L-10.4,67.9 L-8.8,69.8 L-6.9,71.7 L-4.5,73.7 L-2.4,75.3 L-0.1,76.6 L2.1,77.6 L4.5,78.4 L4.8,77.7 L37.9,89.7 L42.0,91.2 L43.9,91.9 L46.9,93.0 L49.0,93.5 L50.8,93.8 L52.6,93.8 L54.9,93.6 L57.6,93.3 L59.8,92.8 L62.2,92.1 L64.0,91.4 L65.8,90.6 L67.3,89.6 L69.2,88.3 L71.6,86.2 L73.8,84.0 L76.2,81.0 L77.9,78.2 L79.3,75.1 L80.3,71.7 L80.9,68.1 L81.2,61.9 L81.1,49.1 L77.4,-153.9 L77.4,-156.1 L77.9,-157.7 L78.6,-159.0 L80.0,-160.3 L81.6,-161.1 L83.5,-161.4 L98.6,-161.9 L100.3,-161.6 L102.0,-160.9 L103.1,-159.8 L104.4,-157.9 L105.2,-155.2 L105.6,-151.5 L109.4,108.9 L109.6,110.4 L109.9,112.0 L110.3,113.6 L110.8,115.4 L111.4,117.1 L112.1,118.7 L112.8,120.0 L113.4,121.3 L114.4,122.7 L115.4,124.1 L116.4,125.3 L117.8,126.8 L119.2,128.1 L120.7,129.4 L122.4,130.6 L127.0,133.5 L127.5,133.0 L131.5,135.2 L136.3,137.9 L139.1,139.4 L142.1,141.2 L145.3,143.0 L148.5,145.0 L152.1,147.3 L155.8,149.5 L159.4,151.7 L162.3,153.5 L165.7,155.7 L169.2,158.0 L172.6,160.2 L175.8,162.4 L175.5,162.8 L179.9,165.9 L184.4,168.9 L185.8,169.7 L187.4,170.6 L189.5,171.7 L191.6,172.4 L193.8,173.0 L195.8,173.5 L198.0,173.9 L200.6,174.1 L202.8,174.2 L204.6,174.0 L206.3,173.7 L208.3,173.1 L210.4,172.4 L212.3,171.8 L214.0,171.0 L215.8,170.0 L217.6,168.9 L219.3,167.5 L220.9,166.1 L222.5,164.5 L223.9,162.9 L225.5,160.7 L226.7,158.5 L227.9,156.1 L228.6,154.2 L229.2,152.2 L229.5,150.0 L229.7,147.9 L229.6,145.4 L199.9,-138.5 L202.0,-138.6 L200.4,-152.9 L198.8,-152.8 L197.6,-159.3 L198.0,-160.7 L199.3,-162.6 L201.9,-164.6 L205.2,-165.0 L218.7,-165.4 L220.9,-165.0 L222.5,-164.3 L224.1,-163.0 L225.3,-161.8 L226.0,-160.5 L258.5,157.9 L259.3,160.7 L260.7,164.1 L261.9,166.3 L263.2,168.6 L264.9,170.9 L266.3,172.5 L267.8,174.1 L269.5,175.5 L271.0,176.6 L273.2,177.9 L275.0,178.9 L277.5,179.9 L279.8,180.6 L282.3,181.2 L284.4,181.4 L286.1,181.5 L288.1,181.5 L358.8,180.1 L361.1,179.8 L363.3,178.7 L364.8,177.3 L366.0,175.1 L366.3,173.1 L366.3,171.1 L330.5,-169.9 L299.0,-211.0 L297.6,-209.9 L270.2,-248.2 L269.7,-256.2 L268.9,-257.9 L267.4,-259.5 L265.6,-262.1 L265.4,-265.9 L262.1,-267.1 L259.0,-267.2 L254.8,-265.1 L259.6,-256.1 L253.5,-253.2 L248.9,-257.4 L245.1,-259.8 L242.4,-260.7 L235.9,-260.9 L232.6,-267.7 L253.3,-276.2 L252.4,-277.8 L248.0,-283.8 L247.3,-283.4 L92.8,-485.6 L90.5,-519.0 L91.7,-519.3 L85.7,-580.5 L83.4,-586.1 L81.0,-592.5 L79.0,-597.4 L76.8,-603.6 L69.2,-624.7 L66.2,-623.3 L61.8,-640.3 L62.5,-640.5 L47.0,-682.6 L45.3,-756.3 L47.1,-756.3 L47.3,-762.8 L48.2,-769.1 L48.5,-771.5 L47.9,-773.4 L50.0,-783.5 L69.2,-817.3 L59.1,-823.5 L66.5,-835.8 L76.3,-830.1 L77.1,-831.4 L80.2,-829.9 L83.5,-828.5 L87.2,-827.3 L90.1,-826.7 L92.8,-826.7 L96.0,-827.2 L99.2,-828.3 L102.3,-829.5 L103.7,-831.0 L104.3,-833.0 L105.0,-835.5 L105.2,-836.5 L105.1,-837.8 L104.4,-839.7 L103.1,-841.5 L101.6,-842.6 L99.4,-844.7 L97.5,-846.7 L94.7,-848.5 L93.5,-851.3 L92.2,-854.2 L90.1,-857.5 L87.6,-860.5 L83.1,-863.7 L61.3,-875.0 L48.4,-881.3 L36.4,-887.9 L24.9,-894.2 L17.5,-899.0 L14.7,-899.8 L11.5,-898.8 L9.8,-896.6 L6.2,-887.8 L-15.9,-897.7 L-2.6,-918.5 L0.2,-919.9 L3.8,-920.6 L7.9,-919.7 L90.8,-871.2 L95.3,-869.9 L100.0,-868.8 L106.7,-868.6 L113.4,-869.8 L117.7,-871.5 L122.4,-875.3 L125.1,-878.0 L128.1,-882.1 L128.1,-882.7 L127.9,-883.2 L127.4,-883.6 L100.6,-900.2 L99.9,-900.4 L99.3,-900.4 L98.5,-900.4 L96.0,-899.3 L95.1,-899.2 L94.0,-899.3 L92.4,-899.5 L91.3,-899.9 L89.6,-900.7 L87.9,-901.7 L51.0,-924.1 L33.7,-936.4 L32.0,-936.6 L30.4,-936.5 L28.5,-936.5 L27.1,-936.7 L26.1,-937.2 L24.7,-938.2 L23.3,-939.4 L22.3,-940.7 L21.7,-942.2 L21.6,-943.2 L21.7,-944.5 L22.0,-945.7 L27.9,-955.6 L27.9,-956.1 L27.5,-956.4 L22.1,-960.2 L21.0,-961.8 L21.6,-962.7 L23.4,-962.5 L25.3,-961.9 L36.4,-955.0 L99.3,-914.9 L100.5,-914.2 L101.4,-913.2 L102.0,-912.1 L102.7,-909.8 L103.2,-908.0 L103.4,-906.5 L131.8,-889.4 L132.8,-889.0 L134.0,-888.8 L135.4,-889.1 L136.4,-889.4 L137.3,-889.8 L167.8,-939.3 L180.6,-958.0 L192.6,-971.5 L198.6,-968.2 L202.5,-974.4 L181.8,-986.8 L186.2,-994.1 L206.9,-981.6 L211.6,-989.2 L207.8,-993.4 L211.6,-997.7 L215.7,-993.0 L216.7,-993.8 L217.8,-994.5 L219.4,-995.5 L221.1,-996.3 L223.1,-997.0 L225.1,-997.5 L227.2,-997.9 L229.3,-998.0 L231.3,-998.0 L233.2,-997.7 L235.1,-997.3 L236.7,-996.8 L238.0,-996.2 L239.9,-995.3 L241.7,-994.2 L243.1,-993.1 L244.6,-991.8 L246.0,-990.5 L247.5,-988.5 L248.5,-986.8 L249.6,-984.6 L250.3,-982.3 L250.9,-979.2 L251.1,-976.5 L251.0,-974.9 L250.8,-973.4 L250.3,-970.9 L248.9,-967.7 L248.0,-965.5 L246.8,-963.0 L251.9,-960.4 L276.2,-989.4 L232.0,-1016.3 L234.3,-1021.0 L235.8,-1025.5 L235.9,-1027.4 L238.5,-1032.9 L243.7,-1037.7 L250.3,-1043.0 L258.0,-1048.0 L272.5,-1052.2 L297.7,-1054.7 L307.5,-1062.7 L309.6,-1063.1 L311.2,-1063.1 L313.6,-1062.2 L315.8,-1062.0 L329.7,-1053.6 L366.4,-1097.1 L231.9,-1182.6 L223.6,-1169.5 L205.4,-1180.9 L231.2,-1221.4 L249.3,-1210.3 L241.2,-1196.5 L378.1,-1110.2 L395.3,-1132.3 L407.5,-1146.8 L423.6,-1171.0 L432.5,-1183.3 L431.6,-1190.2 L431.8,-1190.4 L430.3,-1195.6 L429.2,-1198.7 L428.2,-1202.0 L427.0,-1204.9 L424.7,-1208.7 L422.4,-1212.3 L421.4,-1214.2 L420.6,-1216.1 L420.1,-1217.9 L419.9,-1219.4 L419.6,-1224.5 L360.6,-1278.7 L358.6,-1276.6 L357.0,-1278.0 L352.2,-1273.3 L349.0,-1277.5 L352.8,-1281.9 L349.0,-1286.7 L346.4,-1286.1 L343.7,-1286.0 L341.2,-1286.4 L339.1,-1287.3 L336.6,-1289.1 L333.5,-1292.2 L328.1,-1298.2 L326.4,-1300.8 L325.8,-1304.0 L326.2,-1307.7 L327.6,-1311.3 L328.9,-1313.7 L331.3,-1316.0 L333.9,-1317.8 L336.5,-1318.8 L338.4,-1319.1 L340.9,-1318.7 L343.4,-1317.7 L345.8,-1315.9 L351.4,-1310.8 L354.2,-1308.1 L356.9,-1305.3 L357.7,-1303.9 L358.3,-1302.5 L358.6,-1301.2 L358.9,-1299.4 L358.6,-1297.7 L358.1,-1296.1 L357.4,-1294.9 L357.2,-1294.4 L357.3,-1293.7 L357.8,-1292.9 L421.2,-1233.5 L423.4,-1232.0 L424.9,-1231.3 L427.2,-1231.8 L429.7,-1232.1 L433.0,-1230.6 L436.4,-1228.6 L442.8,-1224.9 L445.5,-1223.7 L447.9,-1226.1 L450.6,-1228.6 L452.5,-1230.7 L455.5,-1234.6 L457.2,-1236.9 L458.9,-1239.9 L460.1,-1242.4 L461.4,-1245.1 L462.5,-1248.0 L463.5,-1250.8 L464.2,-1253.3 L464.9,-1256.4 L465.1,-1258.2 L465.4,-1259.7 L465.7,-1262.4 L466.0,-1265.0 L466.2,-1266.7 L466.3,-1268.6 L466.3,-1270.7 L466.2,-1272.5 L465.8,-1275.0 L465.5,-1277.9 L465.1,-1280.5 L464.8,-1282.6 L464.5,-1284.3 L464.1,-1285.9 L463.7,-1287.7 L463.1,-1289.6 L462.4,-1291.6 L461.9,-1292.9 L461.3,-1294.1 L460.5,-1295.2 L459.3,-1296.9 L458.1,-1298.4 L456.7,-1299.7 L455.0,-1301.1 L453.3,-1302.2 L451.5,-1303.1 L449.9,-1303.8 L448.8,-1304.1 L447.5,-1304.3 L446.1,-1304.2 L444.7,-1303.9 L443.6,-1303.5 L442.5,-1302.7 L441.7,-1301.9 L441.1,-1301.1 L440.7,-1300.0 L440.4,-1298.7 L440.5,-1297.3 L440.6,-1295.5 L440.6,-1294.2 L440.5,-1292.9 L440.3,-1291.6 L440.0,-1290.5 L439.6,-1289.2 L438.9,-1287.9 L438.1,-1286.7 L437.2,-1285.6 L436.3,-1284.7 L434.7,-1283.4 L433.2,-1282.5 L431.1,-1281.8 L429.8,-1281.5 L428.3,-1281.3 L426.9,-1281.3 L425.1,-1281.3 L423.8,-1281.6 L422.0,-1282.0 L419.5,-1282.7 L417.4,-1283.5 L415.8,-1284.2 L414.2,-1285.1 L412.8,-1286.1 L411.1,-1287.3 L409.9,-1288.4 L408.8,-1289.5 L407.7,-1290.8 L406.8,-1292.0 L406.0,-1293.2 L405.3,-1294.5 L404.4,-1296.3 L403.8,-1298.0 L403.1,-1299.8 L402.6,-1301.2 L402.3,-1302.5 L402.0,-1303.8 L401.8,-1305.9 L401.7,-1307.8 L401.8,-1309.8 L402.2,-1312.5 L402.9,-1315.1 L403.9,-1317.8 L404.6,-1319.0 L405.2,-1319.8 L410.4,-1326.3 L411.5,-1327.7 L413.1,-1328.4 L414.7,-1329.0 L416.6,-1329.4 L418.7,-1329.7 L420.5,-1329.8 L422.2,-1329.7 L424.0,-1329.5 L426.1,-1328.9 L428.2,-1327.8 L430.1,-1326.7 L431.8,-1325.4 L437.0,-1320.6 L438.2,-1320.2 L438.9,-1320.1 L439.8,-1320.2 L440.3,-1320.4 L441.0,-1321.2 L441.3,-1322.0 L441.4,-1323.2 L441.4,-1324.1 L441.2,-1324.6 L430.7,-1335.0 L445.0,-1350.2 L444.2,-1352.1 L452.4,-1360.2 L468.4,-1344.3 L455.5,-1328.0 L455.5,-1327.0 L456.1,-1326.7 L456.9,-1326.8 L470.9,-1344.4 L475.1,-1349.4 L475.2,-1350.5 L474.8,-1351.6 L474.1,-1352.4 L463.1,-1362.8 L465.8,-1366.0 L463.1,-1368.4 L464.6,-1372.1 L493.2,-1400.7 L502.9,-1402.4 L506.0,-1402.8 L508.9,-1403.3 L510.3,-1403.6 L511.9,-1404.4 L513.7,-1405.5 L515.2,-1407.0 L516.6,-1408.7 L531.2,-1429.8 L531.5,-1430.4 L531.3,-1431.1 L531.1,-1431.6 L530.7,-1432.1 L529.0,-1433.1 L528.6,-1433.4 L528.1,-1433.4 L527.7,-1433.1 L526.8,-1432.4 L514.5,-1421.0 L509.8,-1417.6 L490.3,-1437.6 L492.6,-1444.7 L493.5,-1446.8 L496.5,-1452.4 L500.1,-1458.6 L502.3,-1461.0 L506.1,-1465.1 L510.2,-1469.7 L514.7,-1474.4 L518.6,-1477.7 L520.4,-1479.4 L522.8,-1481.1 L525.1,-1482.4 L528.3,-1483.8 L530.3,-1484.5 L532.3,-1485.1 L533.8,-1485.2 L536.0,-1485.1 L537.9,-1484.8 L540.0,-1484.3 L542.1,-1482.6 L543.3,-1480.8 L544.1,-1479.0 L544.4,-1476.3 L544.2,-1472.7 L543.8,-1468.8 L542.9,-1464.9 L537.8,-1453.4 L532.9,-1443.1 L534.6,-1440.3 L535.5,-1439.8 L536.5,-1439.8 L537.3,-1439.9 L538.0,-1440.4 L541.3,-1445.1 L545.6,-1447.3 L554.2,-1470.1 L554.7,-1471.2 L555.6,-1472.2 L556.5,-1472.7 L557.2,-1472.9 L558.4,-1472.9 L559.6,-1472.6 L565.8,-1470.8 L567.1,-1470.6 L568.4,-1470.6 L569.7,-1470.8 L570.8,-1471.2 L571.7,-1471.9 L572.6,-1473.1 L583.1,-1487.1 L583.6,-1488.1 L583.8,-1489.2 L583.8,-1490.3 L583.6,-1491.4 L583.3,-1492.2 L582.6,-1493.0 L581.9,-1493.6 L580.9,-1494.1 L580.0,-1494.4 L579.0,-1494.4 L578.2,-1494.3 L577.3,-1493.9 L576.6,-1493.3 L576.0,-1492.6 L573.3,-1488.2 L572.7,-1487.3 L572.0,-1486.5 L570.9,-1485.6 L570.0,-1485.1 L568.8,-1484.7 L567.4,-1484.5 L566.6,-1484.5 L565.6,-1484.6 L564.6,-1484.8 L563.8,-1485.2 L555.2,-1493.0 L554.2,-1494.2 L553.5,-1495.3 L552.8,-1496.7 L552.3,-1497.8 L552.0,-1499.0 L551.8,-1500.3 L551.6,-1501.9 L551.6,-1503.5 L551.7,-1504.9 L551.9,-1506.0 L552.2,-1507.0 L552.5,-1507.8 L568.2,-1532.7 L569.2,-1534.3 L569.8,-1535.2 L570.5,-1535.6 L571.6,-1536.1 L572.8,-1536.5 L574.0,-1536.6 L574.7,-1536.6 L575.3,-1536.5 L575.9,-1536.3 L576.7,-1536.0 L577.6,-1535.4 L579.2,-1534.0 L586.3,-1527.4 L587.5,-1525.7 L588.3,-1524.0 L588.9,-1522.1 L589.1,-1520.6 L589.2,-1519.0 L589.2,-1517.6 L589.1,-1516.3 L588.8,-1514.9 L588.5,-1514.0 L587.7,-1512.1 L584.9,-1506.9 L584.5,-1505.7 L584.5,-1504.2 L584.6,-1503.1 L585.1,-1502.3 L585.8,-1501.5 L587.0,-1500.6 L588.0,-1500.1 L589.1,-1499.8 L590.5,-1499.8 L591.6,-1500.1 L592.9,-1500.7 L594.0,-1501.7 L612.5,-1527.1 L606.8,-1532.2 L610.2,-1535.9 L615.3,-1531.1 L625.6,-1544.7 L641.4,-1565.7 L578.0,-1626.5 L564.2,-1612.0 L548.1,-1627.3 L563.7,-1644.1 L561.6,-1646.3 L564.9,-1649.3 L566.9,-1647.3 L577.8,-1659.1 L587.5,-1650.1 L588.6,-1642.6 L629.7,-1604.3 L637.7,-1601.2 L644.0,-1603.4 L656.2,-1598.6 L664.2,-1601.6 L688.2,-1630.8 L689.5,-1633.6 L689.9,-1637.3 L688.8,-1640.9 L687.1,-1643.5 L673.0,-1656.6 L673.1,-1660.2 L675.9,-1667.3 L681.6,-1677.7 L670.5,-1684.9 L674.7,-1686.4 L677.4,-1688.2 L680.0,-1691.2 L683.1,-1699.1 L688.8,-1713.6 L692.5,-1717.0 L657.4,-1751.0 L649.7,-1746.2 L647.9,-1745.7 L646.2,-1745.7 L644.0,-1746.0 L642.2,-1746.5 L640.4,-1747.5 L639.0,-1748.8 L620.8,-1766.3 L617.4,-1769.6 L616.0,-1771.4 L614.7,-1773.7 L614.1,-1775.8 L613.9,-1777.8 L613.9,-1779.6 L614.3,-1781.5 L614.7,-1782.9 L615.3,-1784.0 L616.6,-1785.8 L618.1,-1787.6 L626.3,-1796.1 L688.3,-1738.7 L684.0,-1733.9 L730.0,-1690.4 L783.0,-1767.9 L749.3,-1799.4 L745.0,-1795.5 L682.3,-1854.7 L690.5,-1862.4 L726.6,-1828.6 L730.2,-1833.9 L732.1,-1836.5 L734.7,-1839.2 L737.6,-1842.4 L740.6,-1844.3 L745.4,-1848.3 L750.1,-1852.7 L759.3,-1861.3 L781.0,-1885.8 L784.9,-1889.9 L799.3,-1897.2 L812.9,-1907.8 L814.2,-1908.9 L817.7,-1911.6 L819.2,-1913.0 L820.5,-1914.6 L821.3,-1916.2 L821.9,-1917.9 L822.6,-1919.1 L823.3,-1920.5 L824.6,-1922.7 L825.5,-1924.0 L826.4,-1925.2 L828.0,-1926.6 L829.6,-1927.6 L831.4,-1928.7 L835.5,-1930.7 L839.6,-1932.7 L840.1,-1932.8 L840.8,-1932.7 L842.0,-1932.3 L845.2,-1930.7 L847.7,-1929.5 L848.8,-1928.8 L849.8,-1928.0 L866.6,-1912.1 L867.7,-1911.4 L873.1,-1910.0 L874.9,-1909.5 L876.9,-1909.3 L878.3,-1909.4 L879.5,-1909.8 L880.7,-1910.5 L886.6,-1918.9 L886.6,-1920.1 L886.4,-1921.2 L885.7,-1922.3 L884.8,-1923.4 L880.2,-1927.6 L880.5,-1928.3 L886.4,-1940.7 L896.4,-1960.9 L905.5,-1967.6 L910.7,-1972.9 L914.4,-1977.0 L918.1,-1980.9 L922.4,-1984.3 L924.9,-1986.6 L927.6,-1989.1 L929.6,-1991.1 L930.6,-1992.9 L931.4,-1994.3 L931.9,-1995.7 L932.1,-1997.3 L932.2,-1998.8 L935.3,-2001.9 L939.7,-2006.2 L947.3,-2012.3 L955.1,-2018.3 L958.6,-2023.2 L959.9,-2028.3 L963.8,-2030.6 L968.7,-2030.7 L973.7,-2033.7 L978.0,-2041.5 L977.9,-2049.7 L978.7,-2062.3 L980.0,-2064.1 L980.7,-2065.3 L982.1,-2067.6 L980.3,-2072.9 L982.3,-2075.4 L992.2,-2087.7 L1009.3,-2107.6 L1012.5,-2112.3 L1013.8,-2114.7 L1019.2,-2122.2 L1020.7,-2126.8 L1020.7,-2134.1 L1020.5,-2141.3 L1020.5,-2148.7 L1022.7,-2156.9 L1026.4,-2165.0 L1031.7,-2172.7 L1035.5,-2178.4 L1040.1,-2184.2 L1048.9,-2194.0 L1087.9,-2213.3 L1093.1,-2214.6 L1094.4,-2211.8 L1095.9,-2209.1 L1096.4,-2208.6 L1097.2,-2209.0 L1097.4,-2210.9 L1096.8,-2212.5 L1099.0,-2213.1 L1107.0,-2215.5 L1117.4,-2218.6 L1125.8,-2221.1 L1128.7,-2222.0 L1125.8,-2231.4 L1130.9,-2232.8 L1139.6,-2234.0 L1140.7,-2234.2 L1140.7,-2234.8 L1140.7,-2237.0 L1148.5,-2237.4 L1160.8,-2237.9 L1165.6,-2235.5 L1177.4,-2192.8 L1180.1,-2190.3 L1175.0,-2185.0 L1179.5,-2180.5 L1184.0,-2176.0 L1189.4,-2181.5 L1289.6,-2086.2 L1423.4,-2229.0 L1470.2,-2184.3 L1472.0,-2184.9 L1472.7,-2184.1 L1475.8,-2186.0 L1478.4,-2187.0 L1481.2,-2188.2 L1485.9,-2190.7 L1488.8,-2192.3 L1492.3,-2194.3 L1495.4,-2196.3 L1498.0,-2198.0 L1500.4,-2199.6 L1503.3,-2201.7 L1506.4,-2204.0 L1508.9,-2206.1 L1511.5,-2208.3 L1514.3,-2211.1 L1517.1,-2213.8 L1523.4,-2220.4 L1527.1,-2225.0 L1530.9,-2229.9 L1533.4,-2233.5 L1535.8,-2237.2 L1538.6,-2242.4 L1541.1,-2247.5 L1543.1,-2251.6 L1544.8,-2255.7 L1545.9,-2258.5 L1547.0,-2261.6 L1549.8,-2264.9 L1464.2,-2346.3 L1465.3,-2347.5 L1475.5,-2358.4 L1483.0,-2366.3 L1483.7,-2367.1 L1505.4,-2346.8 L1510.7,-2349.5 L1511.3,-2348.8 L1562.3,-2375.3 L1564.4,-2376.5 L1565.8,-2377.6 L1567.2,-2378.9 L1568.7,-2380.5 L1570.3,-2382.7 L1571.5,-2384.8 L1572.4,-2386.4 L1573.0,-2388.5 L1573.6,-2390.7 L1573.8,-2393.1 L1573.8,-2395.9 L1573.6,-2398.1 L1573.2,-2400.1 L1572.5,-2402.4 L1556.6,-2448.3 L1554.4,-2455.8 L1555.0,-2458.4 L1516.5,-2468.0 L1518.3,-2474.6 L1519.8,-2480.6 L1531.2,-2525.8 L1522.3,-2552.0 L1517.2,-2569.0 L1515.6,-2573.3 L1529.4,-2586.0 L1545.0,-2594.3 L1545.9,-2593.0 L1547.4,-2590.9 L1551.0,-2586.3 L1551.3,-2586.7 L1551.4,-2588.3 L1546.6,-2594.9 L1555.2,-2601.2 L1557.1,-2602.3 L1561.7,-2596.4 L1562.4,-2595.8 L1563.2,-2595.7 L1563.6,-2595.8 L1563.6,-2596.2 L1542.2,-2625.5 L1540.6,-2627.2 L1538.8,-2629.7 L1529.5,-2640.9 L1537.4,-2665.6 L1543.6,-2671.9 L1550.6,-2675.2 L1565.6,-2684.1 L1568.7,-2687.3 L1582.1,-2699.1 L1586.4,-2694.6 L1598.8,-2681.2 L1610.4,-2690.9 L1618.1,-2683.5 L1625.1,-2676.6 L1625.5,-2676.3 L1631.4,-2681.4 L1639.1,-2673.0 L1645.9,-2664.4 L1650.8,-2658.7 L1651.5,-2658.0 L1665.9,-2670.6 L1666.6,-2671.2 L1663.2,-2675.4 L1671.1,-2681.8 L1694.8,-2654.1 L1715.1,-2667.4 L1717.1,-2669.3 L1725.9,-2673.0 L1727.9,-2675.0 L1729.8,-2677.5 L1740.6,-2687.1 L1738.2,-2690.5 L1718.8,-2686.1 L1696.6,-2711.3 L1699.1,-2713.5 L1702.5,-2709.6 L1718.2,-2723.1 L1734.9,-2704.9 L1739.4,-2703.1 L1742.0,-2701.5 L1745.5,-2697.7 L1747.3,-2699.3 L1735.2,-2713.0 L1742.6,-2719.5 L1757.6,-2701.5 L1759.5,-2702.9 L1759.3,-2703.3 L1792.1,-2727.0 L1801.8,-2734.2 L1770.0,-2774.0 L1776.8,-2778.7 L1804.5,-2746.3 L1824.9,-2742.6 L1838.5,-2750.4 L1840.3,-2751.6 L1840.2,-2753.1 L1839.3,-2754.9 L1849.9,-2761.5 L1852.9,-2758.4 L1861.9,-2763.7 L1855.4,-2771.7 L1824.2,-2813.3 L1846.2,-2836.2 L1860.7,-2857.5 L1861.0,-2874.2 L1853.3,-2896.4 L1869.5,-2909.9 L1886.6,-2916.5 L1892.1,-2917.7 L1896.6,-2918.3 L1902.1,-2918.0 L1907.9,-2916.6 L1916.1,-2909.6 L1937.5,-2883.4 L1954.6,-2861.7 L1975.0,-2848.1 L1983.1,-2846.8 L1990.3,-2845.9 L1996.4,-2845.7 L2004.2,-2846.2 L2012.7,-2847.6 L2019.5,-2849.6 L2025.3,-2852.3 L2029.1,-2854.6 L2032.0,-2857.5 L2036.8,-2863.4 L2042.0,-2872.9 L2047.6,-2885.5 L2057.7,-2880.3 L2061.7,-2879.0 L2066.0,-2878.3 L2072.9,-2878.8 L2077.4,-2880.1 L2082.6,-2882.4 L2087.5,-2885.2 L2092.6,-2890.2 L2097.0,-2894.2 L2102.5,-2897.9 L2106.3,-2900.4 L2111.9,-2902.4 L2121.5,-2905.2 L2127.2,-2906.8 L2133.4,-2909.1 L2138.7,-2911.8 L2141.8,-2913.7 L2144.3,-2916.2 L2177.0,-2932.6 L2178.2,-2933.3 L2179.7,-2934.3 L2181.2,-2935.4 L2183.4,-2936.7 L2184.9,-2937.4 L2186.4,-2938.7 L2187.6,-2940.0 L2189.2,-2941.0 L2190.9,-2942.2 L2193.2,-2944.3 L2196.4,-2944.6 L2199.7,-2945.0 L2201.8,-2945.6 L2204.6,-2946.9 L2208.0,-2948.5 L2211.7,-2950.7 L2213.8,-2952.7 L2216.1,-2955.3 L2217.5,-2957.8 L2218.3,-2960.1 L2218.3,-2961.6 L2218.4,-2963.0 L2219.2,-2968.1 L2237.4,-2978.7 L2269.3,-2997.1 L2275.5,-3000.6 L2329.6,-3031.9 L2388.2,-3065.5 L2413.1,-3079.8 L2421.8,-3084.6 L2494.3,-3126.7 L2510.3,-3135.6 L2510.1,-3136.2 L2543.3,-3154.9 L2556.0,-3162.0 L2579.5,-3175.1 L2579.7,-3174.7 L2588.8,-3179.7 L2610.9,-3192.0 L2613.6,-3194.4 L2636.0,-3210.9 L2647.1,-3220.1 L2657.4,-3228.8 L2662.1,-3231.4 L2672.7,-3241.9 L2673.6,-3241.3 L2675.0,-3241.5 L2675.7,-3241.0 L2690.6,-3258.5 L2686.9,-3262.0 L2687.4,-3262.9 L2689.0,-3265.2 L2693.2,-3270.7 L2695.8,-3274.6 L2697.9,-3277.8 L2700.7,-3282.2 L2703.5,-3286.7 L2706.6,-3291.9 L2709.8,-3297.4 L2716.8,-3311.8 L2718.9,-3316.4 L2720.6,-3320.0 L2721.9,-3322.7 L2722.9,-3324.9 L2725.1,-3330.3 L2667.2,-3438.3 L2666.1,-3440.4 L2665.3,-3441.6 L2664.6,-3442.4 L2663.8,-3443.1 L2663.1,-3443.6 L2662.1,-3444.2 L2661.0,-3444.6 L2660.1,-3444.8 L2659.2,-3444.9 L2657.9,-3444.9 L2656.4,-3444.7 L2655.0,-3444.3 L2653.6,-3443.6 L2640.1,-3435.8 L2622.6,-3425.7 L2610.3,-3418.9 L2588.0,-3406.7 L2574.3,-3399.2 L2574.8,-3398.3 L2569.0,-3395.0 L2549.8,-3385.1 L2535.6,-3376.7 L2527.3,-3372.1 L2514.5,-3364.7 L2513.1,-3363.8 L2501.9,-3383.8 L2523.9,-3395.8 L2553.8,-3412.0 L2574.1,-3423.4 L2576.6,-3424.8 L2576.3,-3425.4 L2593.8,-3434.9 L2603.2,-3440.1 L2624.7,-3450.6 L2628.7,-3452.6 L2661.1,-3470.6 L2673.2,-3477.3 L2681.8,-3481.9 L2691.9,-3487.7 L2705.9,-3462.4 L2683.9,-3450.4 L2682.8,-3448.6 L2682.3,-3446.6 L2682.1,-3445.1 L2682.1,-3443.8 L2682.2,-3442.8 L2682.6,-3441.3 L2727.4,-3358.4 L2728.3,-3357.1 L2729.3,-3356.2 L2730.2,-3355.5 L2731.3,-3355.2 L2732.4,-3355.0 L2733.5,-3355.1 L2734.4,-3355.4 L2754.3,-3370.5 L2763.6,-3378.3 L2773.3,-3386.4 L2777.0,-3389.8 L2788.9,-3399.6 L2789.5,-3399.6 L2801.0,-3409.5 L2801.1,-3410.1 L2808.7,-3416.3 L2814.7,-3421.3 L2825.0,-3429.8 L2825.9,-3428.6 L2836.0,-3436.9 L2841.1,-3441.2 L2855.3,-3452.9 L2865.1,-3461.1 L2864.2,-3462.5 L2867.5,-3465.3 L2872.8,-3469.7 L2876.1,-3472.6 L2890.1,-3478.8 L2899.5,-3482.2 L2904.4,-3484.5 L2917.9,-3484.6 L2922.7,-3484.6 L2932.7,-3484.0 L2944.5,-3483.5 L2945.4,-3484.4 L2946.5,-3482.8 L2950.2,-3482.7 L2983.9,-3479.8 L2987.8,-3478.9 L2991.2,-3478.4 L2999.0,-3477.7 L3013.6,-3477.0 L3016.8,-3477.0 L3019.8,-3477.0 L3031.5,-3477.5 L3037.5,-3477.8 L3043.4,-3478.4 L3052.5,-3479.3 L3052.5,-3478.8 L3059.7,-3480.0 L3066.6,-3481.3 L3071.9,-3482.3 L3078.7,-3487.5 L3079.6,-3486.3 L3080.4,-3485.2 L3141.2,-3404.7 L3287.9,-3354.2 L3557.3,-3552.0 L3630.6,-3604.8 L3659.0,-3665.3 L3613.9,-3724.4 L3615.9,-3732.8 L3623.8,-3735.0 L3639.0,-3731.8 L3649.8,-3735.9 L3652.8,-3740.1 L3652.1,-3743.7 L3644.1,-3759.6 L3643.5,-3765.5 L3643.1,-3777.2 L3641.7,-3788.4 L3643.1,-3790.5 L3647.7,-3792.6 L3653.2,-3793.9 L3657.2,-3798.2 L3658.1,-3803.4 L3654.7,-3813.5 L3654.4,-3820.4 L3655.4,-3828.3 L3660.9,-3842.2 L3659.8,-3848.6 L3657.1,-3855.7 L3657.0,-3865.4 L3655.4,-3878.2 L3652.4,-3886.2 L3650.7,-3890.4 L3651.8,-3892.3 L3653.0,-3892.1 L3653.3,-3892.9 L3653.4,-3893.9 L3653.4,-3894.9 L3651.7,-3895.1 L3650.5,-3896.7 L3650.7,-3898.5 L3649.2,-3898.9 L3647.4,-3899.0 L3647.1,-3898.5 L3643.4,-3903.0 L3642.6,-3904.4 L3641.9,-3906.4 L3641.4,-3908.2 L3641.1,-3910.2 L3640.9,-3912.3 L3640.9,-3914.0 L3640.8,-3915.9 L3641.0,-3916.9 L3641.8,-3919.4 L3642.7,-3921.4 L3643.9,-3923.3 L3645.6,-3925.8 L3647.3,-3928.2 L3649.0,-3929.8 L3651.0,-3931.4 L3651.4,-3931.0 L3669.0,-3944.4 L3671.5,-3946.4 L3671.0,-3947.1 L3671.0,-3948.4 L3675.4,-3951.8 L3676.4,-3951.8 L3677.5,-3951.0 L3679.3,-3952.4 L3697.4,-3966.0 L3697.1,-3966.5 L3699.3,-3968.1 L3701.8,-3969.6 L3703.5,-3970.4 L3706.0,-3971.4 L3708.2,-3971.9 L3710.3,-3972.3 L3712.6,-3972.5 L3714.1,-3972.3 L3716.0,-3972.0 L3717.9,-3971.4 L3719.3,-3970.7 L3720.7,-3969.9 L3721.7,-3969.2 L3722.5,-3968.3 L3723.8,-3967.2 L3724.3,-3966.9 L3725.2,-3966.9 L3726.1,-3967.1 L3728.8,-3969.1 L3728.9,-3969.6 L3729.2,-3970.0 L3729.4,-3970.5 L3729.4,-3971.2 L3729.3,-3971.7 L3728.8,-3972.3 L3726.9,-3974.2 L3725.4,-3975.5 L3723.6,-3976.5 L3720.6,-3977.7 L3718.1,-3978.8 L3722.5,-3981.1 L3727.9,-3984.8 L3734.7,-3985.7 L3741.4,-3985.3 L3745.9,-3987.0 L3749.7,-3992.5 L3764.2,-4018.5 L3770.1,-4029.2 L3774.7,-4040.6 L3775.5,-4042.9 L3782.5,-4064.1 L3783.5,-4066.2 L3784.8,-4068.2 L3801.1,-4088.3 L3804.5,-4091.9 L3807.1,-4094.1 L3843.4,-4125.2 L3845.3,-4126.5 L3851.6,-4129.9 L3859.0,-4134.1 L3882.2,-4146.2 L3932.8,-4173.4 L3933.9,-4172.5 L3934.9,-4172.1 L3935.8,-4171.9 L3936.7,-4172.0 L3937.6,-4172.2 L3940.3,-4172.8 L3943.4,-4173.5 L3946.3,-4174.1 L3949.2,-4174.6 L3950.8,-4175.0 L3953.1,-4175.7 L3955.5,-4176.7 L3961.6,-4180.0 L3963.8,-4181.2 L3964.9,-4181.9 L3966.1,-4182.4 L3970.8,-4184.4 L3975.9,-4186.4 L3982.4,-4189.2 L3990.1,-4192.3 L3990.4,-4192.5 L3991.0,-4192.5 L3991.9,-4192.8 L3993.1,-4193.7 L3994.4,-4194.2 L3995.9,-4194.9 L3998.7,-4196.5 L3999.7,-4197.5 L4001.4,-4198.6 L4001.2,-4198.9 L4001.9,-4199.7 L4002.9,-4200.7 L4004.3,-4201.5 L4005.6,-4201.9 L4006.9,-4202.4 L4008.2,-4203.1 L4010.6,-4204.7 L4011.4,-4205.4 L4012.1,-4206.5 L4012.4,-4207.2 L4012.4,-4208.0 L4012.4,-4208.8 L4012.5,-4209.6 L4005.5,-4218.0 L4027.5,-4230.9 L4038.0,-4236.5 L4040.1,-4237.1 L4043.3,-4236.6 L4046.8,-4231.6 L4048.4,-4230.2 L4049.9,-4229.5 L4051.2,-4229.2 L4052.4,-4229.3 L4071.4,-4237.0 L4076.5,-4239.5 L4081.3,-4242.2 L4089.0,-4246.3 L4090.6,-4246.9 L4198.0,-4291.5 L4231.6,-4307.6 L4381.9,-4379.8 L7888.4,-4408.8 L7888.4,609.0 L394.6,609.0 L394.6,395.7 Z" fill="#add7e1" stroke="none"><title>Biscayne Bay</title></path><path d="M132.9,228.5 L129.6,232.3 L135.4,236.6 L120.1,257.8 L117.6,256.0 L114.8,259.8 L116.1,260.5 L109.7,269.5 L102.6,264.8 L108.6,256.0 L111.6,258.2 L114.8,253.9 L114.5,253.7 L118.0,248.9 L113.9,246.0 L118.1,240.2 L114.9,237.8 L113.8,239.3 L108.9,235.7 L112.1,231.3 L111.0,230.4 L109.9,231.9 L105.1,228.4 L116.5,212.6 L126.4,210.9 L127.7,218.4 L132.2,221.5 L132.9,228.5 Z" fill="#d6d2c9" stroke="#bab6ad" stroke-width="0.4"></path><path d="M217.5,147.7 L210.6,143.5 L214.7,136.6 L221.7,140.8 L217.5,147.7 Z" fill="#d6d2c9" stroke="#bab6ad" stroke-width="0.4"></path><path d="M192.1,137.3 L184.7,132.8 L189.2,125.5 L196.5,129.9 L195.0,132.4 L198.8,134.7 L202.3,128.9 L211.4,134.5 L210.8,135.5 L213.0,136.8 L205.4,149.3 L203.2,148.0 L202.8,148.7 L209.1,152.5 L204.9,159.3 L196.5,154.2 L194.2,158.0 L188.9,154.8 L185.9,159.7 L174.7,152.8 L180.2,143.7 L185.8,147.2 L189.9,140.4 L193.8,142.8 L197.3,137.1 L193.5,134.9 L192.1,137.3 Z" fill="#d6d2c9" stroke="#bab6ad" stroke-width="0.4"></path><path d="M127.7,95.1 L130.4,100.3 L131.1,100.0 L132.6,103.0 L138.4,100.0 L140.6,104.5 L141.9,103.8 L144.6,109.1 L142.8,110.1 L144.5,113.5 L132.0,119.9 L127.7,111.4 L124.8,112.9 L119.0,101.4 L123.2,99.3 L122.5,97.8 L127.7,95.1 Z" fill="#d6d2c9" stroke="#bab6ad" stroke-width="0.4"></path><path d="M8.1,-12.8 L8.2,-4.5 L7.2,-4.5 L7.4,3.1 L14.0,2.9 L14.1,11.0 L-5.6,11.4 L-5.9,-4.9 L-7.5,-4.9 L-7.8,-12.6 L8.1,-12.8 Z" fill="#d6d2c9" stroke="#bab6ad" stroke-width="0.4"></path><path d="M164.3,130.5 L158.2,140.1 L148.6,134.1 L147.5,128.8 L146.0,124.3 L162.1,120.7 L164.3,130.5 Z" fill="#d6d2c9" stroke="#bab6ad" stroke-width="0.4"></path><path d="M270.1,-16.4 L268.7,-14.1 L272.9,-11.6 L271.1,-8.6 L274.3,-6.8 L271.0,-1.2 L269.1,-2.4 L267.2,0.8 L265.1,-0.4 L264.1,1.3 L257.2,-2.9 L258.1,-4.5 L251.2,-8.6 L256.1,-16.9 L258.2,-15.7 L261.6,-21.4 L270.1,-16.4 Z" fill="#d6d2c9" stroke="#bab6ad" stroke-width="0.4"></path><path d="M129.6,92.3 L122.2,92.4 L122.1,86.5 L123.7,86.5 L123.4,70.4 L131.4,70.2 L131.3,68.7 L138.9,68.6 L139.1,75.5 L137.9,75.5 L138.1,89.2 L129.5,89.3 L129.6,92.3 Z" fill="#d6d2c9" stroke="#bab6ad" stroke-width="0.4"></path><path d="M28.5,59.8 L34.3,63.0 L34.9,62.1 L40.9,61.1 L46.2,62.3 L50.3,68.6 L51.0,68.1 L56.5,76.5 L49.9,80.9 L44.3,73.0 L37.1,74.1 L29.2,70.0 L27.8,72.5 L23.2,70.1 L28.5,59.8 Z" fill="#d6d2c9" stroke="#bab6ad" stroke-width="0.4"></path><path d="M184.0,119.0 L176.9,130.8 L168.1,125.5 L175.2,113.7 L184.0,119.0 Z" fill="#d6d2c9" stroke="#bab6ad" stroke-width="0.4"></path><path d="M181.6,142.2 L173.3,144.2 L170.5,132.6 L178.7,130.6 L181.6,142.2 Z" fill="#d6d2c9" stroke="#bab6ad" stroke-width="0.4"></path><path d="M20.8,57.6 L14.5,66.5 L4.4,59.0 L3.7,60.1 L-2.1,55.9 L4.8,46.3 L20.8,57.6 Z" fill="#d6d2c9" stroke="#bab6ad" stroke-width="0.4"></path><path d="M133.5,37.1 L121.4,37.4 L120.8,19.6 L124.3,19.5 L124.2,14.4 L143.0,13.8 L143.2,21.8 L139.6,21.9 L139.7,24.8 L136.0,24.9 L136.1,28.7 L134.4,28.7 L134.5,31.6 L133.4,31.7 L133.5,37.1 Z" fill="#d6d2c9" stroke="#bab6ad" stroke-width="0.4"></path><path d="M67.1,64.8 L63.5,69.8 L49.9,60.4 L57.5,49.3 L52.6,45.9 L57.4,38.8 L65.0,44.1 L64.5,44.9 L72.7,50.8 L70.9,53.4 L71.9,54.1 L65.1,63.3 L67.1,64.8 Z" fill="#d6d2c9" stroke="#bab6ad" stroke-width="0.4"></path><path d="M183.8,37.4 L183.8,39.6 L198.6,39.2 L198.7,44.7 L197.1,44.7 L197.4,56.0 L195.5,56.1 L195.6,60.3 L186.2,60.6 L186.1,56.4 L183.5,56.4 L183.3,45.5 L173.3,45.7 L173.1,37.7 L183.8,37.4 Z" fill="#d6d2c9" stroke="#bab6ad" stroke-width="0.4"></path><path d="M142.8,40.8 L142.8,47.9 L135.7,47.8 L135.7,64.1 L124.6,63.7 L125.0,52.0 L121.3,51.9 L121.7,41.8 L131.4,41.9 L131.4,40.8 L142.8,40.8 Z" fill="#d6d2c9" stroke="#bab6ad" stroke-width="0.4"></path><path d="M130.1,269.5 L145.0,280.2 L148.6,275.2 L144.9,272.6 L148.4,267.6 L156.1,273.1 L165.0,260.8 L160.1,257.3 L157.0,261.6 L144.5,252.6 L150.3,244.5 L145.5,241.0 L133.6,257.6 L136.9,259.9 L130.1,269.5 Z" fill="#d6d2c9" stroke="#bab6ad" stroke-width="0.4"></path><path d="M181.4,-13.2 L197.7,-13.6 L197.9,-4.1 L190.1,-3.9 L190.2,1.8 L186.4,1.9 L186.5,4.9 L190.3,4.8 L190.6,16.9 L174.7,17.2 L174.5,9.0 L179.1,8.9 L178.8,-2.1 L174.3,-2.0 L174.1,-10.0 L181.4,-10.1 L181.4,-13.2 Z" fill="#d6d2c9" stroke="#bab6ad" stroke-width="0.4"></path><path d="M187.0,96.2 L213.8,95.1 L214.2,103.1 L209.0,103.4 L209.5,114.4 L211.7,114.3 L212.1,123.3 L204.7,123.6 L204.7,122.1 L199.1,122.3 L199.0,118.5 L194.4,118.7 L193.8,104.4 L187.4,104.6 L187.0,96.2 Z" fill="#d6d2c9" stroke="#bab6ad" stroke-width="0.4"></path><path d="M46.1,-15.0 L70.5,-16.5 L71.5,-2.2 L61.0,-1.5 L61.7,9.0 L49.3,9.8 L48.5,-3.7 L46.9,-3.6 L46.1,-15.0 Z" fill="#d6d2c9" stroke="#bab6ad" stroke-width="0.4"></path><path d="M-6.5,15.0 L-6.1,39.4 L6.2,39.1 L6.1,34.8 L9.1,34.8 L8.9,22.7 L15.4,22.6 L15.2,14.6 L-6.5,15.0 Z" fill="#d6d2c9" stroke="#bab6ad" stroke-width="0.4"></path><path d="M-133.8,66.1 L-47.8,82.6 L60.2,125.6 L122.2,166.1 L591.7,519.1" fill="none" stroke="#6fb5c7" stroke-width="1.4" stroke-dasharray="5 7" opacity="0.34" stroke-linecap="round" stroke-linejoin="round"><title>Coral Gables Waterway</title></path><path d="M-50.6,46.1 L-47.8,43.0 L-46.3,40.4 L-45.0,37.1 L-44.3,34.4 L-43.9,31.6 L-43.6,28.9 L-43.6,26.4 L-47.3,-152.2" fill="none" stroke="#79bdd0" stroke-width="1.4" stroke-linecap="round" stroke-linejoin="round"></path><path d="M-19.5,-151.4 L-15.9,48.2 L-15.5,51.7 L-14.9,58.7 L-14.2,60.0 L-14.7,60.4 L-13.8,62.3 L-12.6,64.6 L-11.7,66.1 L-10.4,67.9 L-8.8,69.8 L-6.9,71.7 L-4.5,73.7 L-2.4,75.3 L-0.1,76.6 L2.1,77.6 L4.5,78.4 L4.8,77.7 L37.9,89.7 L42.0,91.2 L43.9,91.9 L46.9,93.0 L49.0,93.5 L50.8,93.8 L52.6,93.8 L54.9,93.6 L57.6,93.3 L59.8,92.8 L62.2,92.1 L64.0,91.4 L65.8,90.6 L67.3,89.6 L69.2,88.3 L71.6,86.2 L73.8,84.0 L76.2,81.0 L77.9,78.2 L79.3,75.1 L80.3,71.7 L80.9,68.1 L81.2,61.9 L81.1,49.1 L77.4,-153.9" fill="none" stroke="#79bdd0" stroke-width="1.4" stroke-linecap="round" stroke-linejoin="round"></path><path d="M105.6,-151.5 L109.4,108.9 L109.6,110.4 L109.9,112.0 L110.3,113.6 L110.8,115.4 L111.4,117.1 L112.1,118.7 L112.8,120.0 L113.4,121.3 L114.4,122.7 L115.4,124.1 L116.4,125.3 L117.8,126.8 L119.2,128.1 L120.7,129.4 L122.4,130.6 L127.0,133.5 L127.5,133.0 L131.5,135.2 L136.3,137.9 L139.1,139.4 L142.1,141.2 L145.3,143.0 L148.5,145.0 L152.1,147.3 L155.8,149.5 L159.4,151.7 L162.3,153.5 L165.7,155.7 L169.2,158.0 L172.6,160.2 L175.8,162.4 L175.5,162.8 L179.9,165.9 L184.4,168.9 L185.8,169.7 L187.4,170.6 L189.5,171.7 L191.6,172.4 L193.8,173.0 L195.8,173.5 L198.0,173.9 L200.6,174.1 L202.8,174.2 L204.6,174.0 L206.3,173.7 L208.3,173.1 L210.4,172.4 L212.3,171.8 L214.0,171.0 L215.8,170.0 L217.6,168.9 L219.3,167.5 L220.9,166.1 L222.5,164.5 L223.9,162.9 L225.5,160.7 L226.7,158.5 L227.9,156.1 L228.6,154.2 L229.2,152.2 L229.5,150.0 L229.7,147.9 L229.6,145.4 L199.9,-138.5" fill="none" stroke="#79bdd0" stroke-width="1.4" stroke-linecap="round" stroke-linejoin="round"></path><path d="M226.0,-160.5 L258.5,157.9 L259.3,160.7 L260.7,164.1 L261.9,166.3 L263.2,168.6 L264.9,170.9 L266.3,172.5 L267.8,174.1 L269.5,175.5 L271.0,176.6 L273.2,177.9 L275.0,178.9 L277.5,179.9 L279.8,180.6 L282.3,181.2 L284.4,181.4 L286.1,181.5 L288.1,181.5 L358.8,180.1" fill="none" stroke="#79bdd0" stroke-width="1.4" stroke-linecap="round" stroke-linejoin="round"></path><path d="M122.5,194.9 L100.7,178.9 L77.1,173.8 L60.5,159.7 L47.2,158.2" fill="none" stroke="#79bdd0" stroke-width="1.4" stroke-linecap="round" stroke-linejoin="round"></path><path d="M47.2,158.2 L4.2,161.1" fill="none" stroke="#79bdd0" stroke-width="1.4" stroke-linecap="round" stroke-linejoin="round"></path><path d="M394.6,395.7 L122.5,194.9" fill="none" stroke="#79bdd0" stroke-width="1.4" stroke-linecap="round" stroke-linejoin="round"></path><path d="M4.2,161.1 L4.2,157.0 L1.8,153.2 L-2.9,150.3 L-96.3,109.8" fill="none" stroke="#79bdd0" stroke-width="1.4" stroke-linecap="round" stroke-linejoin="round"></path><path d="M159.8,104.5 L177.8,113.2 L211.3,133.0" fill="none" stroke="#cec8bb" stroke-width="3.2" stroke-linecap="round" stroke-linejoin="round"/><path d="M159.8,104.5 L177.8,113.2 L211.3,133.0" fill="none" stroke="#ffffff" stroke-width="2.2" stroke-linecap="round" stroke-linejoin="round"></path><path d="M28.8,-174.9 L32.7,39.6" fill="none" stroke="#cec8bb" stroke-width="4.3" stroke-linecap="round" stroke-linejoin="round"/><path d="M28.8,-174.9 L32.7,39.6" fill="none" stroke="#ffffff" stroke-width="3.2" stroke-linecap="round" stroke-linejoin="round"><title>Sunrise Court</title></path><path d="M153.3,-160.9 L158.3,91.3 L159.8,104.5" fill="none" stroke="#cec8bb" stroke-width="4.3" stroke-linecap="round" stroke-linejoin="round"/><path d="M153.3,-160.9 L158.3,91.3 L159.8,104.5" fill="none" stroke="#ffffff" stroke-width="3.2" stroke-linecap="round" stroke-linejoin="round"><title>Sunrise Terrace</title></path><text x="168.3" y="23.8" text-anchor="middle" font-family="Arial, sans-serif" font-size="8" font-weight="600" paint-order="stroke" stroke="#fbf7ed" stroke-width="1.9" stroke-linejoin="round" fill="#514a42" textLength="71.7" lengthAdjust="spacing">Sunrise Harbor</text><text x="196.2" y="142.7" text-anchor="middle" font-family="Arial, sans-serif" font-size="6.5" textLength="18.0" lengthAdjust="spacing" font-weight="500" paint-order="stroke" stroke="#f3f5ee" stroke-width="1.55" stroke-linejoin="round" fill="#6f777a">6975</text><text x="59.4" y="25.9" text-anchor="middle" font-family="Arial, sans-serif" font-size="6.5" textLength="18.0" lengthAdjust="spacing" font-weight="500" paint-order="stroke" stroke="#f3f5ee" stroke-width="1.55" stroke-linejoin="round" fill="#6f777a">6935</text><text x="132.7" y="105.1" text-anchor="middle" font-family="Arial, sans-serif" font-size="6.5" textLength="18.0" lengthAdjust="spacing" font-weight="500" paint-order="stroke" stroke="#f3f5ee" stroke-width="1.55" stroke-linejoin="round" fill="#6f777a">6966</text><text x="154.5" y="129.7" text-anchor="middle" font-family="Arial, sans-serif" font-size="6.5" textLength="18.0" lengthAdjust="spacing" font-weight="500" paint-order="stroke" stroke="#f3f5ee" stroke-width="1.55" stroke-linejoin="round" fill="#6f777a">6974</text><text x="130.6" y="80.4" text-anchor="middle" font-family="Arial, sans-serif" font-size="6.5" textLength="18.0" lengthAdjust="spacing" font-weight="500" paint-order="stroke" stroke="#f3f5ee" stroke-width="1.55" stroke-linejoin="round" fill="#6f777a">6956</text><text x="39.6" y="68.7" text-anchor="middle" font-family="Arial, sans-serif" font-size="6.5" textLength="18.0" lengthAdjust="spacing" font-weight="500" paint-order="stroke" stroke="#f3f5ee" stroke-width="1.55" stroke-linejoin="round" fill="#6f777a">6946</text><text x="15.0" y="57.6" text-anchor="middle" font-family="Arial, sans-serif" font-size="6.5" textLength="18.0" lengthAdjust="spacing" font-weight="500" paint-order="stroke" stroke="#f3f5ee" stroke-width="1.55" stroke-linejoin="round" fill="#6f777a">6938</text><text x="63.2" y="53.3" text-anchor="middle" font-family="Arial, sans-serif" font-size="6.5" textLength="18.0" lengthAdjust="spacing" font-weight="500" paint-order="stroke" stroke="#f3f5ee" stroke-width="1.55" stroke-linejoin="round" fill="#6f777a">6941</text><text x="188.3" y="48.6" text-anchor="middle" font-family="Arial, sans-serif" font-size="6.5" textLength="18.0" lengthAdjust="spacing" font-weight="500" paint-order="stroke" stroke="#f3f5ee" stroke-width="1.55" stroke-linejoin="round" fill="#6f777a">6945</text><text x="131.2" y="49.3" text-anchor="middle" font-family="Arial, sans-serif" font-size="6.5" textLength="18.0" lengthAdjust="spacing" font-weight="500" paint-order="stroke" stroke="#f3f5ee" stroke-width="1.55" stroke-linejoin="round" fill="#6f777a">6944</text><text x="203.5" y="111.4" text-anchor="middle" font-family="Arial, sans-serif" font-size="6.5" textLength="18.0" lengthAdjust="spacing" font-weight="500" paint-order="stroke" stroke="#f3f5ee" stroke-width="1.55" stroke-linejoin="round" fill="#6f777a">6965</text><text x="194.8" y="75.0" text-anchor="middle" font-family="Arial, sans-serif" font-size="6.5" textLength="18.0" lengthAdjust="spacing" font-weight="500" paint-order="stroke" stroke="#f3f5ee" stroke-width="1.55" stroke-linejoin="round" fill="#6f777a">6955</text><text x="15.0" y="31.8" text-anchor="middle" font-family="Arial, sans-serif" font-size="6.5" textLength="18.0" lengthAdjust="spacing" font-weight="500" paint-order="stroke" stroke="#f3f5ee" stroke-width="1.55" stroke-linejoin="round" fill="#6f777a">6934</text><text x="121.8" y="231.7" text-anchor="middle" font-family="Arial, sans-serif" font-size="6.5" textLength="18.0" lengthAdjust="spacing" font-weight="500" paint-order="stroke" stroke="#f3f5ee" stroke-width="1.55" stroke-linejoin="round" fill="#6f777a">24</text></svg>