<svg xmlns="http://www.w3.org/2000/svg" width="256" height="256" viewBox="0 0 256 256"><rect width="256" height="256" fill="#f1efe7"/><path d="M-19466.7,6866.3 L-19251.9,6777.0 L-19184.7,6744.7 L-18884.2,6600.4 L-18827.8,6655.0 L-18822.9,6659.7 L-18717.5,6569.5 L-18692.4,6550.4 L-18650.5,6512.6 L-18414.4,6295.8 L-18223.9,6078.2 L-18216.6,6064.3 L-18209.6,6056.4 L-18198.5,6043.7 L-18187.2,6030.8 L-18182.6,6025.5 L-18257.7,5928.4 L-18158.3,5868.8 L-18104.4,5940.5 L-18028.2,5853.3 L-18092.7,5767.9 L-18012.8,5684.6 L-17951.3,5765.6 L-17880.7,5685.2 L-17850.6,5665.5 L-17703.4,5570.0 L-17630.7,5521.7 L-17543.1,5464.1 L-17501.7,5436.9 L-17396.8,5369.2 L-17423.8,5333.7 L-17472.1,5269.0 L-17347.2,5189.6 L-17301.7,5166.1 L-17298.2,5163.6 L-17274.2,5145.1 L-17188.6,5099.3 L-17182.7,5090.1 L-17158.7,5073.6 L-17145.7,5054.6 L-17142.0,5051.8 L-17121.1,5043.7 L-17073.9,5026.8 L-17041.6,5012.6 L-16927.5,4959.0 L-16926.1,4962.7 L-16830.4,4921.8 L-16791.3,4971.9 L-16704.2,4913.8 L-16691.8,4905.3 L-16690.6,4904.3 L-16689.4,4902.7 L-16687.5,4899.4 L-16686.5,4896.3 L-16685.9,4892.6 L-16686.0,4889.6 L-16686.4,4886.7 L-16686.8,4883.4 L-16686.9,4880.9 L-16686.7,4878.8 L-16686.3,4876.6 L-16684.7,4872.6 L-16683.6,4870.4 L-16681.1,4866.6 L-16678.5,4863.8 L-16665.8,4858.7 L-16655.2,4854.7 L-16641.7,4850.3 L-16635.4,4848.6 L-16624.2,4844.9 L-16616.3,4842.1 L-16605.4,4837.6 L-16590.6,4831.1 L-16574.6,4823.6 L-16566.0,4819.4 L-16555.2,4813.9 L-16545.1,4808.3 L-16535.0,4802.3 L-16524.7,4795.6 L-16521.5,4793.4 L-16500.8,4777.6 L-16483.4,4764.2 L-16466.4,4749.8 L-16450.5,4734.8 L-16439.0,4721.9 L-16427.6,4708.0 L-16413.6,4690.0 L-16400.8,4672.0 L-16386.1,4648.9 L-16376.5,4631.0 L-16370.5,4619.6 L-16361.6,4600.3 L-16354.1,4582.4 L-16347.4,4563.1 L-16342.0,4546.2 L-16336.1,4518.8 L-16331.8,4494.3 L-16329.5,4473.3 L-16327.5,4448.5 L-16327.3,4422.0 L-16328.9,4397.5 L-16333.1,4365.5 L-16337.5,4343.7 L-16342.5,4323.1 L-16349.9,4299.7 L-16356.2,4281.8 L-16363.4,4262.3 L-16370.2,4246.1 L-16374.8,4235.6 L-16376.7,4227.9 L-16377.0,4222.0 L-16376.4,4216.7 L-16374.3,4212.1 L-16371.1,4208.2 L-16366.9,4206.0 L-16362.4,4205.4 L-16350.3,4208.3 L-16316.6,4216.4 L-16305.4,3961.7 L-16261.7,3507.1 L-16309.2,3495.9 L-16314.4,3481.6 L-16314.2,3461.1 L-16307.6,3414.6 L-16298.6,3404.1 L-16290.6,3373.9 L-16240.1,3385.6 L-16212.3,3095.1 L-16204.6,3014.7 L-16220.3,3010.8 L-16210.8,2972.4 L-16243.1,2964.7 L-16239.0,2941.2 L-16233.3,2925.7 L-16226.2,2907.6 L-16214.2,2882.3 L-16201.3,2885.2 L-16183.9,2702.5 L-16179.8,2591.7 L-16179.0,2571.3 L-16169.6,2500.8 L-16150.9,2325.1 L-16026.1,1999.7 L-15997.6,1911.0 L-15650.9,1778.0 L-15617.0,1764.4 L-15611.1,1761.2 L-15606.5,1757.0 L-15601.4,1751.1 L-15597.5,1744.2 L-15594.9,1737.4 L-15594.3,1727.5 L-15594.8,1715.2 L-15599.4,1559.7 L-15601.1,1529.6 L-15601.6,1508.9 L-15602.3,1468.7 L-15603.1,1456.1 L-15604.6,1445.5 L-15606.7,1436.1 L-15609.8,1426.5 L-15614.7,1415.2 L-15621.9,1403.1 L-15628.9,1393.5 L-15634.3,1384.4 L-15639.8,1372.3 L-15644.4,1360.7 L-15646.2,1351.2 L-15647.6,1340.7 L-15648.3,1330.2 L-15648.0,1320.0 L-15646.8,1308.1 L-15644.0,1296.4 L-15640.3,1286.0 L-15636.4,1276.5 L-15631.4,1267.3 L-15625.3,1256.1 L-15621.3,1246.0 L-15617.8,1233.1 L-15611.4,1223.3 L-15613.6,1134.1 L-15616.9,1128.9 L-15617.9,1068.3 L-15619.6,996.8 L-15618.4,986.9 L-15615.2,976.8 L-15607.2,961.0 L-15553.7,845.9 L-15552.6,844.0 L-15543.2,823.5 L-15534.3,804.1 L-15524.3,784.1 L-15514.5,763.5 L-15509.7,753.5 L-15457.1,645.6 L-15400.9,526.4 L-15279.3,279.6 L-15352.4,197.7 L-15412.0,324.7 L-15463.5,434.6 L-15471.3,450.2 L-15487.2,482.7 L-15519.0,480.0 L-15527.7,479.5 L-15530.8,482.3 L-15526.6,486.1 L-15542.9,500.6 L-15555.8,512.5 L-15558.2,563.4 L-15563.0,573.6 L-15578.6,573.0 L-15581.2,572.1 L-15785.6,487.7 L-15790.0,485.4 L-15794.7,482.4 L-15802.1,476.8 L-15807.8,471.4 L-15812.6,466.2 L-15817.3,459.8 L-15820.9,454.2 L-15823.7,448.4 L-15825.9,442.3 L-15827.4,438.1 L-15828.5,433.0 L-15829.3,427.0 L-15830.1,418.8 L-15830.1,407.1 L-15831.5,367.4 L-15825.9,367.1 L-15826.7,346.1 L-15827.6,311.5 L-15822.4,311.4 L-15822.8,287.8 L-15828.7,287.9 L-15831.4,188.5 L-15825.8,188.2 L-15826.7,164.9 L-15832.1,165.1 L-15834.4,91.6 L-15807.4,62.5 L-15772.9,61.3 L-15747.2,60.4 L-15713.3,59.3 L-15680.7,58.3 L-15651.5,57.3 L-15638.8,56.7 L-15639.4,45.4 L-15639.6,33.6 L-15641.5,-4.7 L-15642.2,-77.8 L-15643.2,-79.1 L-15643.4,-86.3 L-15641.3,-86.4 L-15646.4,-262.5 L-15650.8,-428.2 L-15651.5,-433.4 L-15651.9,-443.0 L-15724.1,-440.4 L-15772.1,-444.5 L-16131.4,-432.0 L-16131.5,-435.2 L-16132.2,-450.5 L-16302.6,-444.5 L-16302.9,-472.8 L-16325.4,-477.9 L-16329.4,-599.0 L-15666.6,-622.0 L-15655.6,-637.1 L-15656.0,-680.1 L-15656.8,-717.3 L-15657.4,-740.6 L-15658.3,-763.3 L-15711.0,-788.1 L-15713.1,-843.2 L-15659.1,-870.0 L-15664.0,-997.5 L-15665.4,-1003.8 L-15719.1,-1028.9 L-15720.8,-1097.1 L-15669.8,-1123.4 L-15692.5,-1400.3 L-15686.5,-1523.5 L-15683.5,-1724.4 L-15683.7,-1942.9 L-15678.9,-1973.5 L-15678.6,-1988.3 L-15683.4,-2006.1 L-15678.4,-2006.1 L-15678.4,-2022.2 L-15675.4,-2433.2 L-15675.9,-2451.5 L-15681.6,-2451.5 L-15681.4,-2527.1 L-15684.7,-2531.8 L-15689.9,-2609.8 L-15679.6,-2681.1 L-15680.9,-2767.4 L-15684.4,-2788.1 L-15679.1,-2852.0 L-15682.7,-2929.3 L-15691.7,-3012.0 L-15708.8,-3146.0 L-15700.7,-3182.9 L-15704.3,-3218.8 L-15734.9,-3244.9 L-15779.8,-3244.5 L-15848.2,-3235.5 L-15892.7,-3235.5 L-15933.1,-3250.3 L-15986.2,-3286.7 L-15986.2,-3352.0 L-15987.6,-3432.3 L-15982.4,-3499.2 L-15964.8,-3551.4 L-15670.1,-3556.9 L-15663.3,-3974.8 L-15663.3,-4576.4 L-15666.4,-4794.7 L245.8,-11366.4 L245.8,24851.8 L-19466.7,24851.8 L-19466.7,6866.3 Z" fill="#add7e1" stroke="none"><title>Biscayne Bay</title></path><path d="M-1.0,-1.0 L257.0,-1.0 L257.0,257.0 L-1.0,257.0 L-1.0,-1.0 Z" fill="#add7e1" stroke="none" fill-rule="evenodd"><title>Biscayne Bay</title></path></svg>