<svg xmlns="http://www.w3.org/2000/svg" width="256" height="256" viewBox="0 0 256 256"><rect width="256" height="256" fill="#f1efe7"/><path d="M-19466.7,11730.3 L-19251.9,11641.0 L-19184.7,11608.7 L-18884.2,11464.4 L-18827.8,11519.0 L-18822.9,11523.7 L-18717.5,11433.5 L-18692.4,11414.4 L-18650.5,11376.6 L-18414.4,11159.8 L-18223.9,10942.2 L-18216.6,10928.3 L-18209.6,10920.4 L-18198.5,10907.7 L-18187.2,10894.8 L-18182.6,10889.5 L-18257.7,10792.4 L-18158.3,10732.8 L-18104.4,10804.5 L-18028.2,10717.3 L-18092.7,10631.9 L-18012.8,10548.6 L-17951.3,10629.6 L-17880.7,10549.2 L-17850.6,10529.5 L-17703.4,10434.0 L-17630.7,10385.7 L-17543.1,10328.1 L-17501.7,10300.9 L-17396.8,10233.2 L-17423.8,10197.7 L-17472.1,10133.0 L-17347.2,10053.6 L-17301.7,10030.1 L-17298.2,10027.6 L-17274.2,10009.1 L-17188.6,9963.3 L-17182.7,9954.1 L-17158.7,9937.6 L-17145.7,9918.6 L-17142.0,9915.8 L-17121.1,9907.7 L-17073.9,9890.8 L-17041.6,9876.6 L-16927.5,9823.0 L-16926.1,9826.7 L-16830.4,9785.8 L-16791.3,9835.9 L-16704.2,9777.8 L-16691.8,9769.3 L-16690.6,9768.3 L-16689.4,9766.7 L-16687.5,9763.4 L-16686.5,9760.3 L-16685.9,9756.6 L-16686.0,9753.6 L-16686.4,9750.7 L-16686.8,9747.4 L-16686.9,9744.9 L-16686.7,9742.8 L-16686.3,9740.6 L-16684.7,9736.6 L-16683.6,9734.4 L-16681.1,9730.6 L-16678.5,9727.8 L-16665.8,9722.7 L-16655.2,9718.7 L-16641.7,9714.3 L-16635.4,9712.6 L-16624.2,9708.9 L-16616.3,9706.1 L-16605.4,9701.6 L-16590.6,9695.1 L-16574.6,9687.6 L-16566.0,9683.4 L-16555.2,9677.9 L-16545.1,9672.3 L-16535.0,9666.3 L-16524.7,9659.6 L-16521.5,9657.4 L-16500.8,9641.6 L-16483.4,9628.2 L-16466.4,9613.8 L-16450.5,9598.8 L-16439.0,9585.9 L-16427.6,9572.0 L-16413.6,9554.0 L-16400.8,9536.0 L-16386.1,9512.9 L-16376.5,9495.0 L-16370.5,9483.6 L-16361.6,9464.3 L-16354.1,9446.4 L-16347.4,9427.1 L-16342.0,9410.2 L-16336.1,9382.8 L-16331.8,9358.3 L-16329.5,9337.3 L-16327.5,9312.5 L-16327.3,9286.0 L-16328.9,9261.5 L-16333.1,9229.5 L-16337.5,9207.7 L-16342.5,9187.1 L-16349.9,9163.7 L-16356.2,9145.8 L-16363.4,9126.3 L-16370.2,9110.1 L-16374.8,9099.6 L-16376.7,9091.9 L-16377.0,9086.0 L-16376.4,9080.7 L-16374.3,9076.1 L-16371.1,9072.2 L-16366.9,9070.0 L-16362.4,9069.4 L-16350.3,9072.3 L-16316.6,9080.4 L-16305.4,8825.7 L-16261.7,8371.1 L-16309.2,8359.9 L-16314.4,8345.6 L-16314.2,8325.1 L-16307.6,8278.6 L-16298.6,8268.1 L-16290.6,8237.9 L-16240.1,8249.6 L-16212.3,7959.1 L-16204.6,7878.7 L-16220.3,7874.8 L-16210.8,7836.4 L-16243.1,7828.7 L-16239.0,7805.2 L-16233.3,7789.7 L-16226.2,7771.6 L-16214.2,7746.3 L-16201.3,7749.2 L-16183.9,7566.5 L-16179.8,7455.7 L-16179.0,7435.3 L-16169.6,7364.8 L-16150.9,7189.1 L-16026.1,6863.7 L-15997.6,6775.0 L-15650.9,6642.0 L-15617.0,6628.4 L-15611.1,6625.2 L-15606.5,6621.0 L-15601.4,6615.1 L-15597.5,6608.2 L-15594.9,6601.4 L-15594.3,6591.5 L-15594.8,6579.2 L-15599.4,6423.7 L-15601.1,6393.6 L-15601.6,6372.9 L-15602.3,6332.7 L-15603.1,6320.1 L-15604.6,6309.5 L-15606.7,6300.1 L-15609.8,6290.5 L-15614.7,6279.2 L-15621.9,6267.1 L-15628.9,6257.5 L-15634.3,6248.4 L-15639.8,6236.3 L-15644.4,6224.7 L-15646.2,6215.2 L-15647.6,6204.7 L-15648.3,6194.2 L-15648.0,6184.0 L-15646.8,6172.1 L-15644.0,6160.4 L-15640.3,6150.0 L-15636.4,6140.5 L-15631.4,6131.3 L-15625.3,6120.1 L-15621.3,6110.0 L-15617.8,6097.1 L-15611.4,6087.3 L-15613.6,5998.1 L-15616.9,5992.9 L-15617.9,5932.3 L-15619.6,5860.8 L-15618.4,5850.9 L-15615.2,5840.8 L-15607.2,5825.0 L-15553.7,5709.9 L-15552.6,5708.0 L-15543.2,5687.5 L-15534.3,5668.1 L-15524.3,5648.1 L-15514.5,5627.5 L-15509.7,5617.5 L-15457.1,5509.6 L-15400.9,5390.4 L-15279.3,5143.6 L-15352.4,5061.7 L-15412.0,5188.7 L-15463.5,5298.6 L-15471.3,5314.2 L-15487.2,5346.7 L-15519.0,5344.0 L-15527.7,5343.5 L-15530.8,5346.3 L-15526.6,5350.1 L-15542.9,5364.6 L-15555.8,5376.5 L-15558.2,5427.4 L-15563.0,5437.6 L-15578.6,5437.0 L-15581.2,5436.1 L-15785.6,5351.7 L-15790.0,5349.4 L-15794.7,5346.4 L-15802.1,5340.8 L-15807.8,5335.4 L-15812.6,5330.2 L-15817.3,5323.8 L-15820.9,5318.2 L-15823.7,5312.4 L-15825.9,5306.3 L-15827.4,5302.1 L-15828.5,5297.0 L-15829.3,5291.0 L-15830.1,5282.8 L-15830.1,5271.1 L-15831.5,5231.4 L-15825.9,5231.1 L-15826.7,5210.1 L-15827.6,5175.5 L-15822.4,5175.4 L-15822.8,5151.8 L-15828.7,5151.9 L-15831.4,5052.5 L-15825.8,5052.2 L-15826.7,5028.9 L-15832.1,5029.1 L-15834.4,4955.6 L-15807.4,4926.5 L-15772.9,4925.3 L-15747.2,4924.4 L-15713.3,4923.3 L-15680.7,4922.3 L-15651.5,4921.3 L-15638.8,4920.7 L-15639.4,4909.4 L-15639.6,4897.6 L-15641.5,4859.3 L-15642.2,4786.2 L-15643.2,4784.9 L-15643.4,4777.7 L-15641.3,4777.6 L-15646.4,4601.5 L-15650.8,4435.8 L-15651.5,4430.6 L-15651.9,4421.0 L-15724.1,4423.6 L-15772.1,4419.5 L-16131.4,4432.0 L-16131.5,4428.8 L-16132.2,4413.5 L-16302.6,4419.5 L-16302.9,4391.2 L-16325.4,4386.1 L-16329.4,4265.0 L-15666.6,4242.0 L-15655.6,4226.9 L-15656.0,4183.9 L-15656.8,4146.7 L-15657.4,4123.4 L-15658.3,4100.7 L-15711.0,4075.9 L-15713.1,4020.8 L-15659.1,3994.0 L-15664.0,3866.5 L-15665.4,3860.2 L-15719.1,3835.1 L-15720.8,3766.9 L-15669.8,3740.6 L-15692.5,3463.7 L-15686.5,3340.5 L-15683.5,3139.6 L-15683.7,2921.1 L-15678.9,2890.5 L-15678.6,2875.7 L-15683.4,2857.9 L-15678.4,2857.9 L-15678.4,2841.8 L-15675.4,2430.8 L-15675.9,2412.5 L-15681.6,2412.5 L-15681.4,2336.9 L-15684.7,2332.2 L-15689.9,2254.2 L-15679.6,2182.9 L-15680.9,2096.6 L-15684.4,2075.9 L-15679.1,2012.0 L-15682.7,1934.7 L-15691.7,1852.0 L-15708.8,1718.0 L-15700.7,1681.1 L-15704.3,1645.2 L-15734.9,1619.1 L-15779.8,1619.5 L-15848.2,1628.5 L-15892.7,1628.5 L-15933.1,1613.7 L-15986.2,1577.3 L-15986.2,1512.0 L-15987.6,1431.7 L-15982.4,1364.8 L-15964.8,1312.6 L-15670.1,1307.1 L-15663.3,889.2 L-15663.3,287.6 L-15666.4,69.3 L245.8,-6502.4 L245.8,29715.8 L-19466.7,29715.8 L-19466.7,11730.3 Z" fill="#add7e1" stroke="none"><title>Biscayne Bay</title></path></svg>