<svg xmlns="http://www.w3.org/2000/svg" width="256" height="256" viewBox="0 0 256 256"><defs><pattern id="park-dots" width="22" height="22" patternUnits="userSpaceOnUse"><circle cx="5" cy="5" r="2.1" fill="#63a95d" fill-opacity="0.26"/><circle cx="16" cy="7" r="1.55" fill="#76b970" fill-opacity="0.23"/><circle cx="10" cy="17" r="1.9" fill="#61a65b" fill-opacity="0.24"/><circle cx="21" cy="17" r="1.25" fill="#80c174" fill-opacity="0.18"/><circle cx="1" cy="19" r="1.2" fill="#70b46a" fill-opacity="0.17"/></pattern><pattern id="park-canopy" width="54" height="48" patternUnits="userSpaceOnUse"><circle cx="12" cy="11" r="3.6" fill="#5ea75a" fill-opacity="0.22"/><circle cx="31" cy="15" r="2.9" fill="#75ba6d" fill-opacity="0.18"/><circle cx="45" cy="31" r="3.3" fill="#67ae62" fill-opacity="0.20"/><circle cx="19" cy="39" r="2.5" fill="#83c378" fill-opacity="0.16"/></pattern></defs><rect width="256" height="256" fill="#f1efe7"/><path d="M-1034.7,12754.3 L-819.9,12665.0 L-752.7,12632.7 L-452.2,12488.4 L-395.8,12543.0 L-390.9,12547.7 L-285.5,12457.5 L-260.4,12438.4 L-218.5,12400.6 L17.6,12183.8 L208.1,11966.2 L215.4,11952.3 L222.4,11944.4 L233.5,11931.7 L244.8,11918.8 L249.4,11913.5 L174.3,11816.4 L273.7,11756.8 L327.6,11828.5 L403.8,11741.3 L339.3,11655.9 L419.2,11572.6 L480.7,11653.6 L551.3,11573.2 L581.4,11553.5 L728.6,11458.0 L801.3,11409.7 L888.9,11352.1 L930.3,11324.9 L1035.2,11257.2 L1008.2,11221.7 L959.9,11157.0 L1084.8,11077.6 L1130.3,11054.1 L1133.8,11051.6 L1157.8,11033.1 L1243.4,10987.3 L1249.3,10978.1 L1273.3,10961.6 L1286.3,10942.6 L1290.0,10939.8 L1310.9,10931.7 L1358.1,10914.8 L1390.4,10900.6 L1504.5,10847.0 L1505.9,10850.7 L1601.6,10809.8 L1640.7,10859.9 L1727.8,10801.8 L1740.2,10793.3 L1741.4,10792.3 L1742.6,10790.7 L1744.5,10787.4 L1745.5,10784.3 L1746.1,10780.6 L1746.0,10777.6 L1745.6,10774.7 L1745.2,10771.4 L1745.1,10768.9 L1745.3,10766.8 L1745.7,10764.6 L1747.3,10760.6 L1748.4,10758.4 L1750.9,10754.6 L1753.5,10751.8 L1766.2,10746.7 L1776.8,10742.7 L1790.3,10738.3 L1796.6,10736.6 L1807.8,10732.9 L1815.7,10730.1 L1826.6,10725.6 L1841.4,10719.1 L1857.4,10711.6 L1866.0,10707.4 L1876.8,10701.9 L1886.9,10696.3 L1897.0,10690.3 L1907.3,10683.6 L1910.5,10681.4 L1931.2,10665.6 L1948.6,10652.2 L1965.6,10637.8 L1981.5,10622.8 L1993.0,10609.9 L2004.4,10596.0 L2018.4,10578.0 L2031.2,10560.0 L2045.9,10536.9 L2055.5,10519.0 L2061.5,10507.6 L2070.4,10488.3 L2077.9,10470.4 L2084.6,10451.1 L2090.0,10434.2 L2095.9,10406.8 L2100.2,10382.3 L2102.5,10361.3 L2104.5,10336.5 L2104.7,10310.0 L2103.1,10285.5 L2098.9,10253.5 L2094.5,10231.7 L2089.5,10211.1 L2082.1,10187.7 L2075.8,10169.8 L2068.6,10150.3 L2061.8,10134.1 L2057.2,10123.6 L2055.3,10115.9 L2055.0,10110.0 L2055.6,10104.7 L2057.7,10100.1 L2060.9,10096.2 L2065.1,10094.0 L2069.6,10093.4 L2081.7,10096.3 L2115.4,10104.4 L2126.6,9849.7 L2170.3,9395.1 L2122.8,9383.9 L2117.6,9369.6 L2117.8,9349.1 L2124.4,9302.6 L2133.4,9292.1 L2141.4,9261.9 L2191.9,9273.6 L2219.7,8983.1 L2227.4,8902.7 L2211.7,8898.8 L2221.2,8860.4 L2188.9,8852.7 L2193.0,8829.2 L2198.7,8813.7 L2205.8,8795.6 L2217.8,8770.3 L2230.7,8773.2 L2248.1,8590.5 L2252.2,8479.7 L2253.0,8459.3 L2262.4,8388.8 L2281.1,8213.1 L2405.9,7887.7 L2434.4,7799.0 L2781.1,7666.0 L2815.0,7652.4 L2820.9,7649.2 L2825.5,7645.0 L2830.6,7639.1 L2834.5,7632.2 L2837.1,7625.4 L2837.7,7615.5 L2837.2,7603.2 L2832.6,7447.7 L2830.9,7417.6 L2830.4,7396.9 L2829.7,7356.7 L2828.9,7344.1 L2827.4,7333.5 L2825.3,7324.1 L2822.2,7314.5 L2817.3,7303.2 L2810.1,7291.1 L2803.1,7281.5 L2797.7,7272.4 L2792.2,7260.3 L2787.6,7248.7 L2785.8,7239.2 L2784.4,7228.7 L2783.7,7218.2 L2784.0,7208.0 L2785.2,7196.1 L2788.0,7184.4 L2791.7,7174.0 L2795.6,7164.5 L2800.6,7155.3 L2806.7,7144.1 L2810.7,7134.0 L2814.2,7121.1 L2820.6,7111.3 L2818.4,7022.1 L2815.1,7016.9 L2814.1,6956.3 L2812.4,6884.8 L2813.6,6874.9 L2816.8,6864.8 L2824.8,6849.0 L2878.3,6733.9 L2879.4,6732.0 L2888.8,6711.5 L2897.7,6692.1 L2907.7,6672.1 L2917.5,6651.5 L2922.3,6641.5 L2974.9,6533.6 L3031.1,6414.4 L3152.7,6167.6 L3079.6,6085.7 L3020.0,6212.7 L2968.5,6322.6 L2960.7,6338.2 L2944.8,6370.7 L2913.0,6368.0 L2904.3,6367.5 L2901.2,6370.3 L2905.4,6374.1 L2889.1,6388.6 L2876.2,6400.5 L2873.8,6451.4 L2869.0,6461.6 L2853.4,6461.0 L2850.8,6460.1 L2646.4,6375.7 L2642.0,6373.4 L2637.3,6370.4 L2629.9,6364.8 L2624.2,6359.4 L2619.4,6354.2 L2614.7,6347.8 L2611.1,6342.2 L2608.3,6336.4 L2606.1,6330.3 L2604.6,6326.1 L2603.5,6321.0 L2602.7,6315.0 L2601.9,6306.8 L2601.9,6295.1 L2600.5,6255.4 L2606.1,6255.1 L2605.3,6234.1 L2604.4,6199.5 L2609.6,6199.4 L2609.2,6175.8 L2603.3,6175.9 L2600.6,6076.5 L2606.2,6076.2 L2605.3,6052.9 L2599.9,6053.1 L2597.6,5979.6 L2624.6,5950.5 L2659.1,5949.3 L2684.8,5948.4 L2718.7,5947.3 L2751.3,5946.3 L2780.5,5945.3 L2793.2,5944.7 L2792.6,5933.4 L2792.4,5921.6 L2790.5,5883.3 L2789.8,5810.2 L2788.8,5808.9 L2788.6,5801.7 L2790.7,5801.6 L2785.6,5625.5 L2781.2,5459.8 L2780.5,5454.6 L2780.1,5445.0 L2707.9,5447.6 L2659.9,5443.5 L2300.6,5456.0 L2300.5,5452.8 L2299.8,5437.5 L2129.4,5443.5 L2129.1,5415.2 L2106.6,5410.1 L2102.6,5289.0 L2765.4,5266.0 L2776.4,5250.9 L2776.0,5207.9 L2775.2,5170.7 L2774.6,5147.4 L2773.7,5124.7 L2721.0,5099.9 L2718.9,5044.8 L2772.9,5018.0 L2768.0,4890.5 L2766.6,4884.2 L2712.9,4859.1 L2711.2,4790.9 L2762.2,4764.6 L2739.5,4487.7 L2745.5,4364.5 L2748.5,4163.6 L2748.3,3945.1 L2753.1,3914.5 L2753.4,3899.7 L2748.6,3881.9 L2753.6,3881.9 L2753.6,3865.8 L2756.6,3454.8 L2756.1,3436.5 L2750.4,3436.5 L2750.6,3360.9 L2747.3,3356.2 L2742.1,3278.2 L2752.4,3206.9 L2751.1,3120.6 L2747.6,3099.9 L2752.9,3036.0 L2749.3,2958.7 L2740.3,2876.0 L2723.2,2742.0 L2731.3,2705.1 L2727.7,2669.2 L2697.1,2643.1 L2652.2,2643.5 L2583.8,2652.5 L2539.3,2652.5 L2498.9,2637.7 L2445.8,2601.3 L2445.8,2536.0 L2444.4,2455.7 L2449.6,2388.8 L2467.2,2336.6 L2761.9,2331.1 L2768.7,1913.2 L2768.7,1311.6 L2765.6,1093.3 L18677.8,-5478.4 L18677.8,30739.8 L-1034.7,30739.8 L-1034.7,12754.3 Z" fill="#add7e1" stroke="none"><title>Biscayne Bay</title></path><path d="M173.7,-136.1 L175.2,-45.5 L176.9,81.6 L516.2,68.8 L512.8,-60.3 L479.4,-59.5 L478.0,-145.7 L362.4,-143.0 L275.5,-139.8 L173.7,-136.1 Z" fill="#d5f2cb" stroke="#9fcf91" stroke-width="0.4"><title>Roberto Clemente Park</title></path><path d="M173.7,-136.1 L175.2,-45.5 L176.9,81.6 L516.2,68.8 L512.8,-60.3 L479.4,-59.5 L478.0,-145.7 L362.4,-143.0 L275.5,-139.8 L173.7,-136.1 Z" fill="url(#park-dots)" stroke="none"/><path d="M173.7,-136.1 L175.2,-45.5 L176.9,81.6 L516.2,68.8 L512.8,-60.3 L479.4,-59.5 L478.0,-145.7 L362.4,-143.0 L275.5,-139.8 L173.7,-136.1 Z" fill="url(#park-canopy)" stroke="none"/><path d="M187.0,23.7 L188.1,63.1 L192.6,68.7 L226.0,64.8 L234.0,61.1 L238.1,54.3 L238.3,42.8 L232.3,27.0 L219.6,18.7 L208.9,17.0 L192.8,20.0 L187.0,23.7 Z" fill="#c7dfbd" stroke="#8eb580" stroke-width="0.5"></path><path d="M87.4,37.2 L65.9,38.3 L65.4,28.1 L86.9,26.9 L87.4,37.2 Z" fill="#d6d2c9" stroke="#bab6ad" stroke-width="0.4"></path><path d="M141.2,-8.5 L142.0,11.9 L129.5,12.4 L129.3,7.7 L94.0,8.9 L93.4,-6.8 L141.2,-8.5 Z" fill="#d6d2c9" stroke="#bab6ad" stroke-width="0.4"></path><path d="M206.1,191.1 L178.2,191.9 L177.8,175.2 L205.7,174.4 L206.1,191.1 Z" fill="#d6d2c9" stroke="#bab6ad" stroke-width="0.4"></path><path d="M147.7,127.1 L122.3,127.4 L122.1,111.4 L147.5,111.1 L147.7,127.1 Z" fill="#d6d2c9" stroke="#bab6ad" stroke-width="0.4"></path><path d="M5.4,157.4 L-19.0,158.2 L-20.1,122.7 L4.3,121.9 L5.4,157.4 Z" fill="#d6d2c9" stroke="#bab6ad" stroke-width="0.4"></path><path d="M148.9,167.8 L124.0,169.0 L123.3,153.0 L148.1,151.9 L148.9,167.8 Z" fill="#d6d2c9" stroke="#bab6ad" stroke-width="0.4"></path><path d="M195.3,150.2 L187.1,150.5 L187.6,166.8 L177.2,167.1 L175.9,115.5 L192.7,114.9 L193.2,123.2 L204.0,123.3 L204.4,146.2 L195.6,146.5 L195.3,150.2 Z" fill="#d6d2c9" stroke="#bab6ad" stroke-width="0.4"></path><path d="M61.0,156.7 L35.6,156.8 L35.5,119.8 L60.9,119.7 L61.0,156.7 Z" fill="#d6d2c9" stroke="#bab6ad" stroke-width="0.4"></path><path d="M131.5,75.1 L100.5,76.0 L99.4,38.8 L130.4,37.9 L131.5,75.1 Z" fill="#d6d2c9" stroke="#bab6ad" stroke-width="0.4"></path><path d="M57.2,4.9 L33.1,5.3 L32.5,-33.0 L56.6,-33.3 L57.2,4.9 Z" fill="#d6d2c9" stroke="#bab6ad" stroke-width="0.4"></path><path d="M83.7,147.2 L68.0,147.3 L68.0,128.1 L83.6,128.0 L83.7,147.2 Z" fill="#d6d2c9" stroke="#bab6ad" stroke-width="0.4"></path><path d="M59.4,42.5 L43.8,42.7 L43.1,27.7 L59.3,27.0 L59.4,42.5 Z" fill="#d6d2c9" stroke="#bab6ad" stroke-width="0.4"></path><path d="M148.2,147.4 L123.0,148.3 L122.4,132.4 L147.7,131.5 L148.2,147.4 Z" fill="#d6d2c9" stroke="#bab6ad" stroke-width="0.4"></path><path d="M12.2,-2.8 L12.2,-1.3 L22.4,-1.5 L22.8,17.4 L16.5,17.6 L10.2,17.7 L10.1,13.9 L8.0,13.9 L7.9,10.6 L2.8,10.8 L2.5,-2.6 L7.3,-2.7 L12.2,-2.8 Z" fill="#d6d2c9" stroke="#bab6ad" stroke-width="0.4"></path><path d="M2.2,18.5 L-10.5,18.9 L-10.7,11.0 L-10.9,3.2 L1.7,2.9 L1.9,10.7 L2.2,18.5 Z" fill="#d6d2c9" stroke="#bab6ad" stroke-width="0.4"></path><path d="M104.8,180.3 L104.9,185.2 L108.2,185.2 L108.6,208.0 L103.5,208.0 L98.4,208.1 L98.2,203.1 L93.6,203.2 L93.5,196.5 L93.4,189.9 L94.6,189.8 L94.4,180.5 L99.6,180.4 L104.8,180.3 Z" fill="#d6d2c9" stroke="#bab6ad" stroke-width="0.4"></path><path d="M29.8,154.1 L12.2,154.6 L11.5,126.6 L29.0,126.1 L29.8,154.1 Z" fill="#d6d2c9" stroke="#bab6ad" stroke-width="0.4"></path><path d="M26.1,211.3 L11.1,211.6 L10.6,182.4 L25.6,182.1 L26.1,211.3 Z" fill="#d6d2c9" stroke="#bab6ad" stroke-width="0.4"></path><path d="M19.8,43.2 L20.1,50.1 L22.7,50.0 L23.3,63.3 L25.6,63.2 L26.4,75.6 L7.7,76.4 L5.6,27.3 L22.2,26.5 L22.9,43.0 L19.8,43.2 Z" fill="#d6d2c9" stroke="#bab6ad" stroke-width="0.4"></path><path d="M8.1,227.2 L-19.0,227.9 L-19.3,213.3 L-15.5,213.2 L-15.8,202.5 L7.3,201.8 L8.1,227.2 Z" fill="#d6d2c9" stroke="#bab6ad" stroke-width="0.4"></path><path d="M89.2,75.0 L67.8,75.7 L67.4,64.4 L72.8,64.2 L72.3,49.3 L88.3,48.7 L89.2,75.0 Z" fill="#d6d2c9" stroke="#bab6ad" stroke-width="0.4"></path><path d="M55.2,75.6 L39.3,76.0 L38.9,61.9 L38.6,47.8 L54.6,47.4 L55.2,75.6 Z" fill="#d6d2c9" stroke="#bab6ad" stroke-width="0.4"></path><path d="M141.5,204.9 L110.3,205.7 L109.6,181.5 L140.9,180.7 L141.5,204.9 Z" fill="#d6d2c9" stroke="#bab6ad" stroke-width="0.4"></path><path d="M83.1,191.9 L83.2,194.4 L90.0,194.2 L90.2,202.4 L85.7,202.5 L86.3,226.9 L69.3,227.4 L69.0,192.0 L76.0,192.0 L83.1,191.9 Z" fill="#d6d2c9" stroke="#bab6ad" stroke-width="0.4"></path><path d="M141.9,209.6 L142.3,227.4 L117.2,227.9 L116.8,214.6 L113.9,214.7 L113.8,210.2 L141.9,209.6 Z" fill="#d6d2c9" stroke="#bab6ad" stroke-width="0.4"></path><path d="M221.1,113.8 L221.2,146.1 L215.0,146.1 L215.0,140.7 L205.5,140.7 L205.4,113.9 L221.1,113.8 Z" fill="#d6d2c9" stroke="#bab6ad" stroke-width="0.4"></path><path d="M257.8,117.3 L258.7,135.7 L255.4,135.8 L255.5,137.1 L261.4,136.8 L261.7,142.7 L255.8,143.0 L256.3,153.8 L258.1,153.7 L258.6,164.3 L236.9,165.3 L236.4,155.2 L249.0,154.5 L248.1,135.3 L234.9,135.9 L234.0,118.4 L257.8,117.3 Z" fill="#d6d2c9" stroke="#bab6ad" stroke-width="0.4"></path><path d="M58.1,204.3 L58.9,226.9 L52.2,227.1 L45.5,227.4 L45.3,223.8 L44.3,223.8 L43.7,204.8 L50.9,204.6 L58.1,204.3 Z" fill="#d6d2c9" stroke="#bab6ad" stroke-width="0.4"></path><path d="M167.8,-200.8 L173.2,85.0 L320.7,79.6" fill="none" stroke="#cf828d" stroke-width="1.5" stroke-dasharray="1.6 3.0" opacity="0.62" stroke-linecap="round" stroke-linejoin="round"></path><path d="M143.0,-48.5 L-40.4,-41.4 L-74.8,-32.8" fill="none" stroke="#cf828d" stroke-width="1.5" stroke-dasharray="1.6 3.0" opacity="0.62" stroke-linecap="round" stroke-linejoin="round"></path><path d="M-63.7,86.4 L-27.8,92.0 L43.7,89.0 L147.5,87.1 L144.8,18.2 L143.0,-48.5" fill="none" stroke="#cf828d" stroke-width="1.5" stroke-dasharray="1.6 3.0" opacity="0.62" stroke-linecap="round" stroke-linejoin="round"></path><path d="M148.2,109.1 L3.3,116.0 L-38.8,117.1 L-66.2,112.2" fill="none" stroke="#cf828d" stroke-width="1.5" stroke-dasharray="1.6 3.0" opacity="0.62" stroke-linecap="round" stroke-linejoin="round"></path><path d="M-61.7,241.4 L-40.6,243.7 L151.8,237.4 L150.7,173.2 L148.2,109.1" fill="none" stroke="#cf828d" stroke-width="1.5" stroke-dasharray="1.6 3.0" opacity="0.62" stroke-linecap="round" stroke-linejoin="round"></path><path d="M147.5,87.1 L147.8,96.4 L148.2,109.1" fill="none" stroke="#cf828d" stroke-width="1.5" stroke-dasharray="1.6 3.0" opacity="0.62" stroke-linecap="round" stroke-linejoin="round"></path><path d="M173.2,85.0 L173.3,95.7 L173.3,109.0" fill="none" stroke="#cf828d" stroke-width="1.5" stroke-dasharray="1.6 3.0" opacity="0.62" stroke-linecap="round" stroke-linejoin="round"></path><path d="M173.3,109.0 L175.1,172.5 L178.1,236.2 L521.7,223.9" fill="none" stroke="#cf828d" stroke-width="1.5" stroke-dasharray="1.6 3.0" opacity="0.62" stroke-linecap="round" stroke-linejoin="round"></path><path d="M518.9,95.6 L173.3,109.0" fill="none" stroke="#cf828d" stroke-width="1.5" stroke-dasharray="1.6 3.0" opacity="0.62" stroke-linecap="round" stroke-linejoin="round"></path><path d="M521.7,249.0 L229.1,260.3 L178.7,261.4 L179.3,277.5 L179.6,303.6 L183.0,389.2" fill="none" stroke="#cf828d" stroke-width="1.5" stroke-dasharray="1.6 3.0" opacity="0.62" stroke-linecap="round" stroke-linejoin="round"></path><path d="M178.1,236.2 L178.3,247.7 L178.7,261.4" fill="none" stroke="#cf828d" stroke-width="1.5" stroke-dasharray="1.6 3.0" opacity="0.62" stroke-linecap="round" stroke-linejoin="round"></path><path d="M151.8,237.4 L151.8,248.6 L152.5,262.7" fill="none" stroke="#cf828d" stroke-width="1.5" stroke-dasharray="1.6 3.0" opacity="0.62" stroke-linecap="round" stroke-linejoin="round"></path><path d="M152.5,262.7 L-47.0,269.1 L-60.9,266.8" fill="none" stroke="#cf828d" stroke-width="1.5" stroke-dasharray="1.6 3.0" opacity="0.62" stroke-linecap="round" stroke-linejoin="round"></path><path d="M156.6,390.9 L152.5,262.7" fill="none" stroke="#cf828d" stroke-width="1.5" stroke-dasharray="1.6 3.0" opacity="0.62" stroke-linecap="round" stroke-linejoin="round"></path><path d="M230.5,302.3 L229.7,276.3 L229.1,260.3 L228.7,246.0" fill="none" stroke="#cec8bb" stroke-width="3.5" stroke-linecap="round" stroke-linejoin="round"/><path d="M230.5,302.3 L229.7,276.3 L229.1,260.3 L228.7,246.0" fill="none" stroke="#ffffff" stroke-width="2.5" stroke-linecap="round" stroke-linejoin="round"></path><path d="M-51.0,176.9 L-32.8,177.9 L-12.1,178.0 L42.9,176.4 L150.7,173.2 L162.7,172.8 L175.1,172.5 L222.6,171.6 L281.2,169.3 L318.5,167.6" fill="none" stroke="#cec8bb" stroke-width="3.5" stroke-linecap="round" stroke-linejoin="round"/><path d="M-51.0,176.9 L-32.8,177.9 L-12.1,178.0 L42.9,176.4 L150.7,173.2 L162.7,172.8 L175.1,172.5 L222.6,171.6 L281.2,169.3 L318.5,167.6" fill="none" stroke="#ffffff" stroke-width="2.5" stroke-linecap="round" stroke-linejoin="round"></path><path d="M-48.1,24.0 L8.3,22.3 L59.8,20.3 L90.9,18.8 L106.5,18.5 L133.5,18.4 L144.8,18.2 L158.5,18.0" fill="none" stroke="#cec8bb" stroke-width="3.5" stroke-linecap="round" stroke-linejoin="round"/><path d="M-48.1,24.0 L8.3,22.3 L59.8,20.3 L90.9,18.8 L106.5,18.5 L133.5,18.4 L144.8,18.2 L158.5,18.0" fill="none" stroke="#ffffff" stroke-width="2.5" stroke-linecap="round" stroke-linejoin="round"></path><path d="M-59.8,99.1 L-28.1,103.6 L147.8,96.4 L160.4,96.1 L173.3,95.7 L320.4,90.9" fill="none" stroke="#cec8bb" stroke-width="4.8" stroke-linecap="round" stroke-linejoin="round"/><path d="M-59.8,99.1 L-28.1,103.6 L147.8,96.4 L160.4,96.1 L173.3,95.7 L320.4,90.9" fill="none" stroke="#ffffff" stroke-width="3.7" stroke-linecap="round" stroke-linejoin="round"><title>Northwest 34th Street</title></path><path d="M524.9,235.4 L228.7,246.0 L178.3,247.7 L165.1,248.3 L151.8,248.6 L-62.4,253.2" fill="none" stroke="#cec8bb" stroke-width="4.8" stroke-linecap="round" stroke-linejoin="round"/><path d="M524.9,235.4 L228.7,246.0 L178.3,247.7 L165.1,248.3 L151.8,248.6 L-62.4,253.2" fill="none" stroke="#ffffff" stroke-width="3.7" stroke-linecap="round" stroke-linejoin="round"><title>Northwest 33rd Street</title></path><path d="M167.9,355.3 L166.4,303.9 L165.8,277.6 L165.1,248.3 L162.7,172.8 L160.4,96.1 L159.7,70.4 L158.7,29.5 L158.5,18.0 L156.0,-61.5" fill="none" stroke="#d1c4aa" stroke-width="5.4" stroke-linecap="round" stroke-linejoin="round"/><path d="M167.9,355.3 L166.4,303.9 L165.8,277.6 L165.1,248.3 L162.7,172.8 L160.4,96.1 L159.7,70.4 L158.7,29.5 L158.5,18.0 L156.0,-61.5" fill="none" stroke="#f4d99b" stroke-width="4.0" stroke-linecap="round" stroke-linejoin="round"><title>Northwest 2nd Avenue</title></path><g transform="translate(80.9 99.1) rotate(-2.4)"><path d="M -3.6 -3.2 L 4.4 0 L -3.6 3.2 Z" fill="#58656d" opacity="0.46"/></g><text x="161.5" y="134.5" transform="rotate(88.3 161.5 134.5)" text-anchor="middle" dominant-baseline="central" font-family="Arial, sans-serif" font-size="8.3" textLength="106.2" lengthAdjust="spacing" font-weight="650" paint-order="stroke" stroke="#fffaf0" stroke-width="2.05" stroke-linejoin="round" fill="#6f573d">Northwest 2nd Avenue</text><text x="81.9" y="99.1" transform="rotate(-2.4 81.9 99.1)" text-anchor="middle" dominant-baseline="central" font-family="Arial, sans-serif" font-size="8.3" textLength="111.6" lengthAdjust="spacing" font-weight="650" paint-order="stroke" stroke="#fffaf0" stroke-width="2.05" stroke-linejoin="round" fill="#695f54">Northwest 34th Street</text><text x="121.6" y="16.5" text-anchor="middle" font-family="Arial, sans-serif" font-size="6.5" textLength="18.0" lengthAdjust="spacing" font-weight="500" paint-order="stroke" stroke="#f3f5ee" stroke-width="1.55" stroke-linejoin="round" fill="#6f777a">3420</text><text x="134.9" y="119.2" text-anchor="middle" font-family="Arial, sans-serif" font-size="6.5" textLength="18.0" lengthAdjust="spacing" font-weight="500" paint-order="stroke" stroke="#f3f5ee" stroke-width="1.55" stroke-linejoin="round" fill="#6f777a">3330</text><text x="48.3" y="138.3" text-anchor="middle" font-family="Arial, sans-serif" font-size="6.5" textLength="18.0" lengthAdjust="spacing" font-weight="500" paint-order="stroke" stroke="#f3f5ee" stroke-width="1.55" stroke-linejoin="round" fill="#6f777a">228</text><text x="115.4" y="56.9" text-anchor="middle" font-family="Arial, sans-serif" font-size="6.5" textLength="18.0" lengthAdjust="spacing" font-weight="500" paint-order="stroke" stroke="#f3f5ee" stroke-width="1.55" stroke-linejoin="round" fill="#6f777a">3412</text><text x="75.8" y="137.7" text-anchor="middle" font-family="Arial, sans-serif" font-size="6.5" textLength="18.0" lengthAdjust="spacing" font-weight="500" paint-order="stroke" stroke="#f3f5ee" stroke-width="1.55" stroke-linejoin="round" fill="#6f777a">218</text><text x="135.3" y="139.9" text-anchor="middle" font-family="Arial, sans-serif" font-size="6.5" textLength="18.0" lengthAdjust="spacing" font-weight="500" paint-order="stroke" stroke="#f3f5ee" stroke-width="1.55" stroke-linejoin="round" fill="#6f777a">3320</text><text x="20.6" y="140.3" text-anchor="middle" font-family="Arial, sans-serif" font-size="6.5" textLength="18.0" lengthAdjust="spacing" font-weight="500" paint-order="stroke" stroke="#f3f5ee" stroke-width="1.55" stroke-linejoin="round" fill="#6f777a">234</text><text x="18.3" y="196.9" text-anchor="middle" font-family="Arial, sans-serif" font-size="6.5" textLength="18.0" lengthAdjust="spacing" font-weight="500" paint-order="stroke" stroke="#f3f5ee" stroke-width="1.55" stroke-linejoin="round" fill="#6f777a">237</text><text x="19.6" y="51.9" text-anchor="middle" font-family="Arial, sans-serif" font-size="6.5" textLength="18.0" lengthAdjust="spacing" font-weight="500" paint-order="stroke" stroke="#f3f5ee" stroke-width="1.55" stroke-linejoin="round" fill="#6f777a">235</text><text x="125.6" y="193.2" text-anchor="middle" font-family="Arial, sans-serif" font-size="6.5" textLength="18.0" lengthAdjust="spacing" font-weight="500" paint-order="stroke" stroke="#f3f5ee" stroke-width="1.55" stroke-linejoin="round" fill="#6f777a">3312</text><text x="81.4" y="202.6" text-anchor="middle" font-family="Arial, sans-serif" font-size="6.5" textLength="18.0" lengthAdjust="spacing" font-weight="500" paint-order="stroke" stroke="#f3f5ee" stroke-width="1.55" stroke-linejoin="round" fill="#6f777a">221</text><text x="124.3" y="217.4" text-anchor="middle" font-family="Arial, sans-serif" font-size="6.5" textLength="18.0" lengthAdjust="spacing" font-weight="500" paint-order="stroke" stroke="#f3f5ee" stroke-width="1.55" stroke-linejoin="round" fill="#6f777a">3302</text><text x="213.9" y="133.6" text-anchor="middle" font-family="Arial, sans-serif" font-size="6.5" textLength="18.0" lengthAdjust="spacing" font-weight="500" paint-order="stroke" stroke="#f3f5ee" stroke-width="1.55" stroke-linejoin="round" fill="#6f777a">182</text><text x="241.0" y="142.8" text-anchor="middle" font-family="Arial, sans-serif" font-size="6.5" textLength="18.0" lengthAdjust="spacing" font-weight="500" paint-order="stroke" stroke="#f3f5ee" stroke-width="1.55" stroke-linejoin="round" fill="#6f777a">174</text><text x="49.8" y="217.8" text-anchor="middle" font-family="Arial, sans-serif" font-size="6.5" textLength="18.0" lengthAdjust="spacing" font-weight="500" paint-order="stroke" stroke="#f3f5ee" stroke-width="1.55" stroke-linejoin="round" fill="#6f777a">227</text><text x="100.2" y="137.2" text-anchor="middle" font-family="Arial, sans-serif" font-size="6.5" textLength="18.0" lengthAdjust="spacing" font-weight="500" paint-order="stroke" stroke="#f3f5ee" stroke-width="1.55" stroke-linejoin="round" fill="#6f777a">212</text><text x="238.4" y="200.2" text-anchor="middle" font-family="Arial, sans-serif" font-size="6.5" textLength="18.0" lengthAdjust="spacing" font-weight="500" paint-order="stroke" stroke="#f3f5ee" stroke-width="1.55" stroke-linejoin="round" fill="#6f777a">3311</text><text x="48.9" y="34.3" text-anchor="middle" font-family="Arial, sans-serif" font-size="6.5" textLength="18.0" lengthAdjust="spacing" font-weight="500" paint-order="stroke" stroke="#f3f5ee" stroke-width="1.55" stroke-linejoin="round" fill="#6f777a">227</text><text x="76.6" y="32.0" text-anchor="middle" font-family="Arial, sans-serif" font-size="6.5" textLength="18.0" lengthAdjust="spacing" font-weight="500" paint-order="stroke" stroke="#f3f5ee" stroke-width="1.55" stroke-linejoin="round" fill="#6f777a">221</text><g><title>Northwest 2nd Avenue &amp; Northwest 34th Street</title><rect x="169.7" y="26.6" width="6.9" height="6.1" rx="1.3" fill="#2796c9" stroke="#ffffff" stroke-width="1.05"/><rect x="170.9" y="27.8" width="4.4" height="2.1" rx="0.35" fill="#ffffff"/><circle cx="171.2" cy="31.6" r="0.5" fill="#ffffff"/><circle cx="175.0" cy="31.6" r="0.5" fill="#ffffff"/></g><g><title>Northwest 2nd Avenue &amp; Northwest 34th Street</title><rect x="140.8" y="67.3" width="6.9" height="6.1" rx="1.3" fill="#2796c9" stroke="#ffffff" stroke-width="1.05"/><rect x="142.1" y="68.6" width="4.4" height="2.1" rx="0.35" fill="#ffffff"/><circle cx="142.4" cy="72.3" r="0.5" fill="#ffffff"/><circle cx="146.1" cy="72.3" r="0.5" fill="#ffffff"/></g><g><title>shop</title><circle cx="191.3" cy="140.4" r="4.6" fill="#a34ab4" stroke="#ffffff" stroke-width="1.7"/><path d="M188.7,139.5 H193.9 V143.2 H188.7 Z" stroke="#ffffff" stroke-width="1.10" stroke-linejoin="round" fill="none"/><path d="M190.0,139.5 C190.2,137.3 192.4,137.3 192.6,139.5" stroke="#ffffff" stroke-width="1.10" stroke-linecap="round" fill="none"/></g><g opacity="0.56"><title>crossing</title><path d="M145.5,94.6 L150.1,94.6 M145.5,96.4 L150.1,96.4 M145.5,98.2 L150.1,98.2" stroke="#ffffff" stroke-width="2.1" stroke-linecap="round"/><path d="M145.5,94.6 L150.1,94.6 M145.5,96.4 L150.1,96.4 M145.5,98.2 L150.1,98.2" stroke="#59656a" stroke-width="0.85" stroke-linecap="round"/></g></svg>