<svg xmlns="http://www.w3.org/2000/svg" width="256" height="256" viewBox="0 0 256 256"><rect width="256" height="256" fill="#f1efe7"/><path d="M-1034.7,-14637.7 L-819.9,-14727.0 L-752.7,-14759.3 L-452.2,-14903.6 L-395.8,-14849.0 L-390.9,-14844.3 L-285.5,-14934.5 L-260.4,-14953.6 L-218.5,-14991.4 L17.6,-15208.2 L208.1,-15425.8 L215.4,-15439.7 L222.4,-15447.6 L233.5,-15460.3 L244.8,-15473.2 L249.4,-15478.5 L174.3,-15575.6 L273.7,-15635.2 L327.6,-15563.5 L403.8,-15650.7 L339.3,-15736.1 L419.2,-15819.4 L480.7,-15738.4 L551.3,-15818.8 L581.4,-15838.5 L728.6,-15934.0 L801.3,-15982.3 L888.9,-16039.9 L930.3,-16067.1 L1035.2,-16134.8 L1008.2,-16170.3 L959.9,-16235.0 L1084.8,-16314.4 L1130.3,-16337.9 L1133.8,-16340.4 L1157.8,-16358.9 L1243.4,-16404.7 L1249.3,-16413.9 L1273.3,-16430.4 L1286.3,-16449.4 L1290.0,-16452.2 L1310.9,-16460.3 L1358.1,-16477.2 L1390.4,-16491.4 L1504.5,-16545.0 L1505.9,-16541.3 L1601.6,-16582.2 L1640.7,-16532.1 L1727.8,-16590.2 L1740.2,-16598.7 L1741.4,-16599.7 L1742.6,-16601.3 L1744.5,-16604.6 L1745.5,-16607.7 L1746.1,-16611.4 L1746.0,-16614.4 L1745.6,-16617.3 L1745.2,-16620.6 L1745.1,-16623.1 L1745.3,-16625.2 L1745.7,-16627.4 L1747.3,-16631.4 L1748.4,-16633.6 L1750.9,-16637.4 L1753.5,-16640.2 L1766.2,-16645.3 L1776.8,-16649.3 L1790.3,-16653.7 L1796.6,-16655.4 L1807.8,-16659.1 L1815.7,-16661.9 L1826.6,-16666.4 L1841.4,-16672.9 L1857.4,-16680.4 L1866.0,-16684.6 L1876.8,-16690.1 L1886.9,-16695.7 L1897.0,-16701.7 L1907.3,-16708.4 L1910.5,-16710.6 L1931.2,-16726.4 L1948.6,-16739.8 L1965.6,-16754.2 L1981.5,-16769.2 L1993.0,-16782.1 L2004.4,-16796.0 L2018.4,-16814.0 L2031.2,-16832.0 L2045.9,-16855.1 L2055.5,-16873.0 L2061.5,-16884.4 L2070.4,-16903.7 L2077.9,-16921.6 L2084.6,-16940.9 L2090.0,-16957.8 L2095.9,-16985.2 L2100.2,-17009.7 L2102.5,-17030.7 L2104.5,-17055.5 L2104.7,-17082.0 L2103.1,-17106.5 L2098.9,-17138.5 L2094.5,-17160.3 L2089.5,-17180.9 L2082.1,-17204.3 L2075.8,-17222.2 L2068.6,-17241.7 L2061.8,-17257.9 L2057.2,-17268.4 L2055.3,-17276.1 L2055.0,-17282.0 L2055.6,-17287.3 L2057.7,-17291.9 L2060.9,-17295.8 L2065.1,-17298.0 L2069.6,-17298.6 L2081.7,-17295.7 L2115.4,-17287.6 L2126.6,-17542.3 L2170.3,-17996.9 L2122.8,-18008.1 L2117.6,-18022.4 L2117.8,-18042.9 L2124.4,-18089.4 L2133.4,-18099.9 L2141.4,-18130.1 L2191.9,-18118.4 L2219.7,-18408.9 L2227.4,-18489.3 L2211.7,-18493.2 L2221.2,-18531.6 L2188.9,-18539.3 L2193.0,-18562.8 L2198.7,-18578.3 L2205.8,-18596.4 L2217.8,-18621.7 L2230.7,-18618.8 L2248.1,-18801.5 L2252.2,-18912.3 L2253.0,-18932.7 L2262.4,-19003.2 L2281.1,-19178.9 L2405.9,-19504.3 L2434.4,-19593.0 L2781.1,-19726.0 L2815.0,-19739.6 L2820.9,-19742.8 L2825.5,-19747.0 L2830.6,-19752.9 L2834.5,-19759.8 L2837.1,-19766.6 L2837.7,-19776.5 L2837.2,-19788.8 L2832.6,-19944.3 L2830.9,-19974.4 L2830.4,-19995.1 L2829.7,-20035.3 L2828.9,-20047.9 L2827.4,-20058.5 L2825.3,-20067.9 L2822.2,-20077.5 L2817.3,-20088.8 L2810.1,-20100.9 L2803.1,-20110.5 L2797.7,-20119.6 L2792.2,-20131.7 L2787.6,-20143.3 L2785.8,-20152.8 L2784.4,-20163.3 L2783.7,-20173.8 L2784.0,-20184.0 L2785.2,-20195.9 L2788.0,-20207.6 L2791.7,-20218.0 L2795.6,-20227.5 L2800.6,-20236.7 L2806.7,-20247.9 L2810.7,-20258.0 L2814.2,-20270.9 L2820.6,-20280.7 L2818.4,-20369.9 L2815.1,-20375.1 L2814.1,-20435.7 L2812.4,-20507.2 L2813.6,-20517.1 L2816.8,-20527.2 L2824.8,-20543.0 L2878.3,-20658.1 L2879.4,-20660.0 L2888.8,-20680.5 L2897.7,-20699.9 L2907.7,-20719.9 L2917.5,-20740.5 L2922.3,-20750.5 L2974.9,-20858.4 L3031.1,-20977.6 L3152.7,-21224.4 L3079.6,-21306.3 L3020.0,-21179.3 L2968.5,-21069.4 L2960.7,-21053.8 L2944.8,-21021.3 L2913.0,-21024.0 L2904.3,-21024.5 L2901.2,-21021.7 L2905.4,-21017.9 L2889.1,-21003.4 L2876.2,-20991.5 L2873.8,-20940.6 L2869.0,-20930.4 L2853.4,-20931.0 L2850.8,-20931.9 L2646.4,-21016.3 L2642.0,-21018.6 L2637.3,-21021.6 L2629.9,-21027.2 L2624.2,-21032.6 L2619.4,-21037.8 L2614.7,-21044.2 L2611.1,-21049.8 L2608.3,-21055.6 L2606.1,-21061.7 L2604.6,-21065.9 L2603.5,-21071.0 L2602.7,-21077.0 L2601.9,-21085.2 L2601.9,-21096.9 L2600.5,-21136.6 L2606.1,-21136.9 L2605.3,-21157.9 L2604.4,-21192.5 L2609.6,-21192.6 L2609.2,-21216.2 L2603.3,-21216.1 L2600.6,-21315.5 L2606.2,-21315.8 L2605.3,-21339.1 L2599.9,-21338.9 L2597.6,-21412.4 L2624.6,-21441.5 L2659.1,-21442.7 L2684.8,-21443.6 L2718.7,-21444.7 L2751.3,-21445.7 L2780.5,-21446.7 L2793.2,-21447.3 L2792.6,-21458.6 L2792.4,-21470.4 L2790.5,-21508.7 L2789.8,-21581.8 L2788.8,-21583.1 L2788.6,-21590.3 L2790.7,-21590.4 L2785.6,-21766.5 L2781.2,-21932.2 L2780.5,-21937.4 L2780.1,-21947.0 L2707.9,-21944.4 L2659.9,-21948.5 L2300.6,-21936.0 L2300.5,-21939.2 L2299.8,-21954.5 L2129.4,-21948.5 L2129.1,-21976.8 L2106.6,-21981.9 L2102.6,-22103.0 L2765.4,-22126.0 L2776.4,-22141.1 L2776.0,-22184.1 L2775.2,-22221.3 L2774.6,-22244.6 L2773.7,-22267.3 L2721.0,-22292.1 L2718.9,-22347.2 L2772.9,-22374.0 L2768.0,-22501.5 L2766.6,-22507.8 L2712.9,-22532.9 L2711.2,-22601.1 L2762.2,-22627.4 L2739.5,-22904.3 L2745.5,-23027.5 L2748.5,-23228.4 L2748.3,-23446.9 L2753.1,-23477.5 L2753.4,-23492.3 L2748.6,-23510.1 L2753.6,-23510.1 L2753.6,-23526.2 L2756.6,-23937.2 L2756.1,-23955.5 L2750.4,-23955.5 L2750.6,-24031.1 L2747.3,-24035.8 L2742.1,-24113.8 L2752.4,-24185.1 L2751.1,-24271.4 L2747.6,-24292.1 L2752.9,-24356.0 L2749.3,-24433.3 L2740.3,-24516.0 L2723.2,-24650.0 L2731.3,-24686.9 L2727.7,-24722.8 L2697.1,-24748.9 L2652.2,-24748.5 L2583.8,-24739.5 L2539.3,-24739.5 L2498.9,-24754.3 L2445.8,-24790.7 L2445.8,-24856.0 L2444.4,-24936.3 L2449.6,-25003.2 L2467.2,-25055.4 L2761.9,-25060.9 L2768.7,-25478.8 L2768.7,-26080.4 L2765.6,-26298.7 L18677.8,-32870.4 L18677.8,3347.8 L-1034.7,3347.8 L-1034.7,-14637.7 Z" fill="#add7e1" stroke="none"><title>Biscayne Bay</title></path><path d="M-1.0,-1.0 L257.0,-1.0 L257.0,257.0 L-1.0,257.0 L-1.0,-1.0 Z" fill="#add7e1" stroke="none" fill-rule="evenodd"><title>Biscayne Bay</title></path><path d="M-9097.9,-6994.8 L-5183.2,-6581.1 L-336.4,-4719.1 L3019.0,-2236.7 L4137.5,2106.9 L1900.5,3347.8 L-8538.6,3347.8 L-10775.6,-2029.8 Z" fill="#add7e1" stroke="none"><title>Biscayne Bay</title></path><path d="M3156.6,-12351.6 L47.0,1020.9" fill="none" stroke="#6fb5c7" stroke-width="1.7" stroke-dasharray="5 7" opacity="0.34" stroke-linecap="round" stroke-linejoin="round"><title>Atlantic Intracoastal Waterway</title></path></svg>