<svg xmlns="http://www.w3.org/2000/svg" width="256" height="256" viewBox="0 0 256 256"><rect width="256" height="256" fill="#f1efe7"/><path d="M130.5,-38.8 L130.6,-33.4 L135.6,-33.6 L136.6,-0.1 L120.9,0.3 L121.0,2.5 L98.2,3.1 L97.2,-32.0 L117.3,-32.6 L117.2,-38.4 L130.5,-38.8 Z" fill="#d6d2c9" stroke="#bab6ad" stroke-width="0.4"></path><path d="M162.8,238.3 L163.0,245.4 L188.4,244.6 L188.7,254.3 L195.8,254.0 L196.3,268.3 L194.6,268.4 L194.8,274.8 L185.4,275.1 L185.3,271.1 L177.6,271.4 L177.8,276.1 L158.7,276.8 L158.5,269.9 L157.1,269.9 L156.6,254.5 L148.1,254.7 L147.6,238.8 L162.8,238.3 Z" fill="#d6d2c9" stroke="#bab6ad" stroke-width="0.4"></path><path d="M266.0,151.0 L266.1,154.3 L277.7,154.0 L277.9,163.9 L273.8,163.9 L274.1,174.1 L239.8,174.8 L239.0,139.7 L251.3,139.4 L251.6,152.4 L258.8,152.2 L258.5,138.8 L266.7,138.6 L266.6,132.9 L276.8,132.7 L277.1,148.1 L272.4,148.2 L272.4,150.9 L266.0,151.0 Z" fill="#d6d2c9" stroke="#bab6ad" stroke-width="0.4"></path><path d="M175.6,-48.6 L175.7,-44.4 L178.8,-44.5 L178.8,-42.2 L180.5,-42.3 L180.7,-31.9 L175.3,-31.8 L176.0,0.1 L167.7,0.3 L167.7,-0.8 L159.9,-0.6 L159.7,-5.8 L151.8,-5.7 L151.9,-4.0 L144.8,-3.8 L144.5,-17.1 L150.6,-17.3 L150.5,-21.5 L152.1,-21.5 L151.9,-29.2 L147.3,-29.1 L147.0,-38.7 L162.6,-39.1 L162.4,-48.4 L175.6,-48.6 Z" fill="#d6d2c9" stroke="#bab6ad" stroke-width="0.4"></path><path d="M180.2,61.3 L180.7,78.4 L185.1,78.3 L186.0,107.0 L159.4,107.9 L158.6,82.6 L153.2,82.8 L153.1,79.5 L145.8,79.7 L145.3,63.3 L168.9,62.6 L168.9,61.6 L180.2,61.3 Z" fill="#d6d2c9" stroke="#bab6ad" stroke-width="0.4"></path><path d="M213.3,130.1 L213.4,134.8 L229.6,134.4 L230.6,173.9 L218.7,174.2 L218.7,172.6 L209.5,172.9 L209.6,175.6 L200.1,175.9 L199.6,153.2 L206.0,153.0 L206.0,155.4 L219.3,155.1 L219.0,142.6 L205.6,143.0 L205.7,146.3 L198.3,146.5 L197.9,130.5 L213.3,130.1 Z" fill="#d6d2c9" stroke="#bab6ad" stroke-width="0.4"></path><path d="M247.7,234.0 L248.7,267.8 L206.4,269.0 L205.8,246.4 L209.6,246.2 L209.3,237.8 L223.5,237.4 L223.6,239.0 L234.8,238.7 L234.7,234.3 L247.7,234.0 Z" fill="#d6d2c9" stroke="#bab6ad" stroke-width="0.4"></path><path d="M143.9,138.1 L145.1,177.3 L133.7,177.6 L133.7,179.0 L122.2,179.3 L122.1,178.3 L109.7,178.7 L108.4,139.4 L118.2,139.1 L118.5,148.2 L129.6,147.8 L129.3,138.5 L143.9,138.1 Z" fill="#d6d2c9" stroke="#bab6ad" stroke-width="0.4"></path><path d="M163.2,132.2 L163.5,144.1 L166.6,144.0 L166.8,153.2 L176.8,153.0 L176.3,132.8 L189.3,132.5 L190.4,170.8 L176.4,171.1 L176.5,175.1 L154.5,175.7 L154.4,172.1 L152.3,172.1 L151.6,144.7 L154.0,144.6 L153.7,132.5 L163.2,132.2 Z" fill="#d6d2c9" stroke="#bab6ad" stroke-width="0.4"></path><path d="M229.7,58.4 L231.9,111.7 L215.6,112.4 L214.5,87.0 L192.2,87.9 L191.1,60.0 L200.3,59.7 L200.3,61.1 L213.7,60.6 L213.7,59.1 L229.7,58.4 Z" fill="#d6d2c9" stroke="#bab6ad" stroke-width="0.4"></path><path d="M248.1,58.3 L248.3,63.5 L263.3,62.8 L263.1,60.1 L275.3,59.5 L276.2,83.7 L242.4,85.3 L242.2,81.3 L239.5,81.5 L238.4,58.8 L248.1,58.3 Z" fill="#d6d2c9" stroke="#bab6ad" stroke-width="0.4"></path><path d="M76.0,241.5 L77.5,241.4 L77.5,239.9 L88.5,239.5 L88.5,240.7 L128.6,239.4 L129.6,270.8 L136.3,270.6 L137.0,290.8 L123.0,291.3 L122.4,271.2 L110.3,271.5 L110.2,267.4 L91.3,268.0 L91.5,271.9 L79.9,272.2 L79.8,268.5 L74.8,268.7 L74.1,248.3 L76.3,248.2 L76.0,241.5 Z" fill="#d6d2c9" stroke="#bab6ad" stroke-width="0.4"></path><path d="M432.6,20.7 L263.3,27.3 L-8.8,39.0 L-209.0,47.9" fill="none" stroke="#cec8bb" stroke-width="4.8" stroke-linecap="round" stroke-linejoin="round"/><path d="M432.6,20.7 L263.3,27.3 L-8.8,39.0 L-209.0,47.9" fill="none" stroke="#ffffff" stroke-width="3.7" stroke-linecap="round" stroke-linejoin="round"><title>Placetas Avenue</title></path><path d="M431.5,197.4 L19.8,214.5 L-2.2,215.4" fill="none" stroke="#cec8bb" stroke-width="4.8" stroke-linecap="round" stroke-linejoin="round"/><path d="M431.5,197.4 L19.8,214.5 L-2.2,215.4" fill="none" stroke="#ffffff" stroke-width="3.7" stroke-linecap="round" stroke-linejoin="round"><title>Andora Avenue</title></path><text x="128.0" y="33.1" transform="rotate(-2.5 128.0 33.1)" text-anchor="middle" dominant-baseline="central" font-family="Arial, sans-serif" font-size="8.3" textLength="79.7" lengthAdjust="spacing" font-weight="650" paint-order="stroke" stroke="#fffaf0" stroke-width="2.05" stroke-linejoin="round" fill="#695f54">Placetas Avenue</text><text x="129.9" y="209.9" transform="rotate(-2.4 129.9 209.9)" text-anchor="middle" dominant-baseline="central" font-family="Arial, sans-serif" font-size="8.3" textLength="69.1" lengthAdjust="spacing" font-weight="650" paint-order="stroke" stroke="#fffaf0" stroke-width="2.05" stroke-linejoin="round" fill="#695f54">Andora Avenue</text><text x="165.4" y="78.7" text-anchor="middle" font-family="Arial, sans-serif" font-size="6.5" textLength="18.0" lengthAdjust="spacing" font-weight="500" paint-order="stroke" stroke="#f3f5ee" stroke-width="1.55" stroke-linejoin="round" fill="#6f777a">1122</text><text x="211.2" y="153.9" text-anchor="middle" font-family="Arial, sans-serif" font-size="6.5" textLength="18.0" lengthAdjust="spacing" font-weight="500" paint-order="stroke" stroke="#f3f5ee" stroke-width="1.55" stroke-linejoin="round" fill="#6f777a">1121</text><text x="224.4" y="245.1" text-anchor="middle" font-family="Arial, sans-serif" font-size="6.5" textLength="18.0" lengthAdjust="spacing" font-weight="500" paint-order="stroke" stroke="#f3f5ee" stroke-width="1.55" stroke-linejoin="round" fill="#6f777a">1116</text><text x="126.2" y="160.1" text-anchor="middle" font-family="Arial, sans-serif" font-size="6.5" textLength="18.0" lengthAdjust="spacing" font-weight="500" paint-order="stroke" stroke="#f3f5ee" stroke-width="1.55" stroke-linejoin="round" fill="#6f777a">1127</text><text x="166.7" y="153.2" text-anchor="middle" font-family="Arial, sans-serif" font-size="6.5" textLength="18.0" lengthAdjust="spacing" font-weight="500" paint-order="stroke" stroke="#f3f5ee" stroke-width="1.55" stroke-linejoin="round" fill="#6f777a">1125</text><text x="210.3" y="75.8" text-anchor="middle" font-family="Arial, sans-serif" font-size="6.5" textLength="18.0" lengthAdjust="spacing" font-weight="500" paint-order="stroke" stroke="#f3f5ee" stroke-width="1.55" stroke-linejoin="round" fill="#6f777a">1118</text><text x="241.0" y="69.5" text-anchor="middle" font-family="Arial, sans-serif" font-size="6.5" textLength="18.0" lengthAdjust="spacing" font-weight="500" paint-order="stroke" stroke="#f3f5ee" stroke-width="1.55" stroke-linejoin="round" fill="#6f777a">1114</text></svg>