<svg xmlns="http://www.w3.org/2000/svg" width="256" height="256" viewBox="0 0 256 256"><defs><pattern id="park-dots" width="22" height="22" patternUnits="userSpaceOnUse"><circle cx="5" cy="5" r="2.1" fill="#63a95d" fill-opacity="0.26"/><circle cx="16" cy="7" r="1.55" fill="#76b970" fill-opacity="0.23"/><circle cx="10" cy="17" r="1.9" fill="#61a65b" fill-opacity="0.24"/><circle cx="21" cy="17" r="1.25" fill="#80c174" fill-opacity="0.18"/><circle cx="1" cy="19" r="1.2" fill="#70b46a" fill-opacity="0.17"/></pattern><pattern id="park-canopy" width="54" height="48" patternUnits="userSpaceOnUse"><circle cx="12" cy="11" r="3.6" fill="#5ea75a" fill-opacity="0.22"/><circle cx="31" cy="15" r="2.9" fill="#75ba6d" fill-opacity="0.18"/><circle cx="45" cy="31" r="3.3" fill="#67ae62" fill-opacity="0.20"/><circle cx="19" cy="39" r="2.5" fill="#83c378" fill-opacity="0.16"/></pattern></defs><rect width="256" height="256" fill="#f1efe7"/><path d="M436.3,-441.9 L458.4,-432.9 L477.6,-423.9 L486.4,-408.9 L487.7,-371.8 L482.9,-313.8 L482.6,-254.4 L475.1,-230.6 L449.9,-224.8 L440.9,-208.5 L415.7,-184.9 L392.0,-182.0 L366.9,-185.2 L346.3,-194.2 L321.2,-212.2 L299.1,-221.2 L269.6,-227.3 L239.9,-214.1 L214.7,-193.4 L186.3,-147.5 L189.2,-119.3 L197.9,-92.5 L219.9,-70.0 L259.8,-65.4 L274.6,-74.2 L285.1,-86.0 L304.5,-127.5 L331.2,-151.2 L365.2,-149.5 L403.6,-137.4 L431.6,-123.9 L447.8,-101.5 L455.0,-77.7 L457.8,-52.4 L462.1,-36.1 L468.0,-13.7 L454.4,30.9 L427.6,69.4 L400.9,78.1 L369.9,82.4 L309.2,91.0 L263.4,83.3 L168.9,72.4 L121.7,60.2 L90.7,37.8 L64.8,-36.1 L63.1,-41.2 L28.3,-166.2 L30.4,-289.6 L33.9,-387.7 L54.7,-403.9 L81.4,-412.7 L134.6,-413.8 L159.7,-415.2 L294.4,-439.7 L321.0,-441.1 L353.5,-439.4 L377.2,-439.3 L394.9,-437.7 L420.1,-445.0 L436.3,-441.9 Z" fill="#dce8e7" stroke="#96bdc1" stroke-width="0.55"></path><path d="M-164.8,239.2 L-921.6,258.3 L-896.1,1026.5 L-1582.9,1044.8 L-1574.7,1426.4 L-1098.9,1415.7 L-996.9,1417.2 L-997.3,1358.5 L-12.4,1321.3 L-7.2,1436.4 L140.8,1720.2 L269.1,1560.4 L360.9,1392.3 L481.2,1101.5 L500.1,1016.5 L500.9,1002.0 L502.1,980.5 L234.8,985.1 L228.8,604.0 L-152.9,617.3 L-164.8,239.2 Z" fill="#d5f2cb" stroke="#9fcf91" stroke-width="0.4"><title>Matheson Hammock County Park</title></path><path d="M-164.8,239.2 L-921.6,258.3 L-896.1,1026.5 L-1582.9,1044.8 L-1574.7,1426.4 L-1098.9,1415.7 L-996.9,1417.2 L-997.3,1358.5 L-12.4,1321.3 L-7.2,1436.4 L140.8,1720.2 L269.1,1560.4 L360.9,1392.3 L481.2,1101.5 L500.1,1016.5 L500.9,1002.0 L502.1,980.5 L234.8,985.1 L228.8,604.0 L-152.9,617.3 L-164.8,239.2 Z" fill="url(#park-dots)" stroke="none"/><path d="M-164.8,239.2 L-921.6,258.3 L-896.1,1026.5 L-1582.9,1044.8 L-1574.7,1426.4 L-1098.9,1415.7 L-996.9,1417.2 L-997.3,1358.5 L-12.4,1321.3 L-7.2,1436.4 L140.8,1720.2 L269.1,1560.4 L360.9,1392.3 L481.2,1101.5 L500.1,1016.5 L500.9,1002.0 L502.1,980.5 L234.8,985.1 L228.8,604.0 L-152.9,617.3 L-164.8,239.2 Z" fill="url(#park-canopy)" stroke="none"/><path d="M127.9,107.2 L120.8,138.3 L169.4,149.3 L176.5,118.3 L127.9,107.2 Z" fill="#d6d2c9" stroke="#bab6ad" stroke-width="0.4"></path><path d="M160.4,153.0 L156.3,170.8 L173.8,174.7 L177.8,156.9 L160.4,153.0 Z" fill="#d6d2c9" stroke="#bab6ad" stroke-width="0.4"></path><path d="M201.0,132.1 L202.4,168.9 L257.0,166.9 L256.5,153.1 L264.1,152.8 L264.5,162.4 L279.2,161.9 L278.2,133.5 L264.4,134.0 L264.6,137.4 L255.3,137.7 L255.0,130.1 L201.0,132.1 Z" fill="#d6d2c9" stroke="#bab6ad" stroke-width="0.4"></path><path d="M-1.5,151.3 L0.7,152.8 L10.5,158.6 L31.4,170.9 L49.3,179.6 L61.1,184.6 L80.7,192.7 L97.8,199.3 L113.4,204.1 L125.1,206.6 L134.5,208.3 L150.8,209.5 L205.7,210.6 L332.6,207.3" fill="none" stroke="#cec8bb" stroke-width="4.8" stroke-linecap="round" stroke-linejoin="round"/><path d="M-1.5,151.3 L0.7,152.8 L10.5,158.6 L31.4,170.9 L49.3,179.6 L61.1,184.6 L80.7,192.7 L97.8,199.3 L113.4,204.1 L125.1,206.6 L134.5,208.3 L150.8,209.5 L205.7,210.6 L332.6,207.3" fill="none" stroke="#ffffff" stroke-width="3.7" stroke-linecap="round" stroke-linejoin="round"><title>Hammock Lakes Drive</title></path><text x="241.0" y="148.4" text-anchor="middle" font-family="Arial, sans-serif" font-size="6.5" textLength="18.0" lengthAdjust="spacing" font-weight="500" paint-order="stroke" stroke="#f3f5ee" stroke-width="1.55" stroke-linejoin="round" fill="#6f777a">4995</text><text x="157.5" y="117.4" text-anchor="middle" font-family="Arial, sans-serif" font-size="6.5" textLength="18.0" lengthAdjust="spacing" font-weight="500" paint-order="stroke" stroke="#f3f5ee" stroke-width="1.55" stroke-linejoin="round" fill="#6f777a">5001</text></svg>