<svg xmlns="http://www.w3.org/2000/svg" width="256" height="256" viewBox="0 0 256 256"><rect width="256" height="256" fill="#f1efe7"/><path d="M2581.2,3351.5 L2037.0,2949.8 L1993.5,2917.8 L1946.3,2907.5 L1913.0,2879.5 L1886.4,2876.4 L1800.4,2882.1 L1800.5,2874.0 L1795.7,2866.4 L1786.1,2860.5 L1599.3,2779.6 L1586.6,2773.8 L1575.5,2770.6 L1561.7,2769.5 L1547.8,2769.2 L1501.4,2769.2 L1489.1,2768.5 L1477.0,2766.1 L1464.2,2761.1 L1448.8,2757.0 L1437.6,2756.0 L1404.7,2754.6 L1393.7,2752.6 L1379.7,2748.1 L1366.0,2744.6 L1352.7,2741.5 L1342.3,2737.3 L1329.7,2729.5 L1318.5,2721.1 L1307.6,2712.9 L1298.7,2708.7 L1291.9,2707.3 L1285.8,2707.7 L1279.3,2709.5 L1271.7,2713.4 L1265.7,2720.0 L1257.6,2727.9 L1248.6,2736.2 L1238.4,2741.8 L1225.5,2746.0 L1214.8,2748.6 L1201.9,2750.6 L1180.3,2753.1 L1126.1,2755.7 L1080.1,2758.0 L1060.3,2765.1 L1019.7,2766.5 L1014.2,2758.0 L1008.1,2754.1 L1001.8,2752.9 L958.0,2755.4 L939.0,2762.2 L915.7,2762.4 L900.0,2760.1 L887.1,2756.2 L840.0,2759.0 L715.4,2768.7 L686.7,2769.5 L676.9,2769.3 L668.1,2767.1 L657.9,2762.0 L650.4,2756.0 L618.0,2756.1 L590.9,2755.7 L583.6,2760.2 L546.3,2761.1 L541.5,2769.0 L536.2,2769.2 L527.0,2767.0 L510.5,2765.0 L493.5,2765.9 L488.3,2767.5 L483.0,2766.6 L479.4,2763.1 L473.3,2759.6 L450.6,2759.7 L427.7,2760.9 L406.0,2773.7 L395.3,2778.8 L383.1,2781.5 L373.0,2782.2 L363.9,2780.8 L342.9,2771.8 L330.9,2768.0 L320.7,2766.5 L276.0,2767.1 L273.2,2761.7 L233.7,2762.6 L206.5,2767.6 L188.6,2769.7 L179.0,2771.8 L175.3,2769.3 L168.5,2768.4 L104.8,2762.6 L99.3,2765.6 L92.6,2767.0 L83.8,2767.1 L83.8,2763.9 L44.3,2756.5 L19.4,2751.7 L-40.8,2731.5 L-44.1,2736.0 L-84.3,2723.6 L-92.7,2720.8 L-88.6,2706.8 L-93.4,2705.3 L-94.4,2703.8 L-97.0,2703.0 L-100.6,2702.5 L-105.0,2700.3 L-103.5,2699.0 L-121.3,2684.5 L-150.9,2657.7 L-166.8,2643.7 L-178.1,2631.4 L-184.4,2623.1 L-193.8,2610.3 L-199.2,2600.4 L-216.0,2579.3 L-217.6,2578.1 L-218.7,2578.0 L-219.9,2578.2 L-222.1,2578.3 L-224.1,2577.3 L-228.3,2574.6 L-236.9,2570.1 L-241.1,2566.5 L-246.0,2562.2 L-252.7,2558.6 L-263.2,2555.3 L-274.3,2553.3 L-283.8,2553.1 L-281.1,2527.9 L-278.9,2495.0 L-268.6,2496.0 L-258.3,2497.8 L-244.8,2501.8 L-234.9,2505.5 L-226.0,2509.6 L-217.4,2513.6 L-209.3,2518.2 L-202.7,2523.3 L-193.9,2530.1 L-184.7,2537.0 L-182.6,2538.3 L-180.7,2538.7 L-155.5,2537.6 L-155.2,2543.3 L-156.7,2545.8 L-175.6,2547.6 L-170.8,2557.4 L-167.5,2556.2 L-164.5,2559.2 L-162.6,2562.1 L-161.0,2564.3 L-157.1,2569.5 L-155.6,2575.2 L-149.5,2583.6 L-135.1,2592.7 L-117.2,2601.8 L-95.8,2615.3 L-86.0,2619.9 L-65.4,2631.6 L-55.7,2636.7 L-38.0,2643.2 L-3.2,2652.5 L17.2,2657.4 L35.8,2659.3 L45.7,2660.6 L47.9,2660.4 L48.8,2659.1 L49.1,2652.5 L72.2,2652.5 L72.7,2659.9 L121.1,2662.4 L168.3,2663.8 L200.4,2662.6 L211.0,2661.8 L218.7,2660.8 L225.0,2659.0 L230.8,2655.5 L233.7,2650.8 L232.6,2573.3 L252.1,2572.2 L253.8,2647.8 L254.9,2649.7 L258.8,2652.4 L263.3,2653.7 L366.7,2653.9 L366.2,2620.6 L374.3,2620.4 L377.7,2653.9 L441.5,2653.3 L441.5,2649.7 L447.8,2649.6 L448.0,2652.2 L873.5,2644.1 L904.3,2640.5 L941.9,2639.4 L977.5,2644.1 L989.4,2643.1 L998.1,2641.4 L1006.2,2638.5 L1016.7,2634.5 L1230.6,2630.7 L1230.5,2615.9 L1350.2,2613.8 L1350.3,2630.1 L1401.1,2631.9 L1405.0,2631.8 L1408.6,2631.5 L1413.3,2630.9 L1417.1,2629.9 L1420.8,2628.7 L1427.1,2625.7 L1430.0,2630.7 L1436.2,2626.8 L1441.9,2622.2 L1446.7,2617.2 L1450.9,2611.3 L1454.8,2604.0 L1447.5,2599.9 L1449.5,2593.8 L1450.8,2587.5 L1451.5,2581.5 L1451.6,2576.8 L1451.4,2572.4 L1450.7,2534.5 L1444.6,2528.9 L1449.8,2523.4 L1444.5,2518.8 L1450.5,2511.7 L1444.0,2506.0 L1449.2,2500.5 L1444.0,2495.5 L1450.1,2489.0 L1443.8,2482.6 L1456.9,2468.2 L1459.2,2468.1 L1453.5,2253.6 L1501.6,2252.5 L1503.9,2253.7 L1506.5,2255.7 L1508.4,2257.4 L1509.2,2259.4 L1509.9,2261.8 L1510.1,2264.2 L1514.2,2597.5 L1516.1,2608.3 L1518.8,2615.6 L1523.0,2624.6 L1527.9,2633.4 L1533.0,2640.4 L1537.1,2644.7 L1541.5,2648.1 L1546.6,2651.1 L1551.9,2653.1 L1559.1,2655.2 L1568.0,2656.9 L1578.8,2658.9 L1591.4,2661.2 L1603.4,2663.8 L1616.7,2666.2 L1629.3,2668.9 L1633.3,2669.7 L1638.2,2670.7 L1643.0,2671.3 L1647.2,2671.4 L1652.0,2671.4 L1655.7,2671.2 L1659.4,2670.5 L1662.6,2669.7 L1666.0,2668.7 L1668.9,2667.4 L1674.7,2664.6 L1679.8,2661.6 L1684.9,2657.9 L1690.8,2652.2 L1696.3,2646.0 L1699.3,2640.7 L1702.0,2634.2 L1703.4,2628.9 L1704.2,2623.2 L1704.7,2617.8 L1704.7,2612.8 L1697.4,2255.6 L1707.8,2244.9 L1711.6,2244.5 L1713.1,2243.1 L1734.8,2242.5 L1736.7,2239.3 L1740.0,2240.2 L1745.5,2245.3 L1749.3,2250.6 L1753.1,2257.2 L1760.3,2656.4 L1761.0,2663.4 L1762.3,2677.3 L1763.6,2680.1 L1762.6,2680.8 L1764.4,2684.7 L1766.7,2689.3 L1768.7,2692.2 L1771.1,2695.7 L1774.4,2699.5 L1778.3,2703.5 L1783.0,2707.5 L1787.2,2710.6 L1791.8,2713.1 L1796.2,2715.3 L1800.9,2716.8 L1801.5,2715.4 L1867.7,2739.4 L1876.0,2742.5 L1879.8,2743.9 L1885.7,2746.0 L1890.0,2747.0 L1893.7,2747.5 L1897.1,2747.5 L1901.9,2747.1 L1907.1,2746.6 L1911.7,2745.6 L1916.4,2744.3 L1919.9,2742.9 L1923.6,2741.2 L1926.6,2739.3 L1930.4,2736.5 L1935.2,2732.3 L1939.6,2728.0 L1944.4,2722.0 L1947.8,2716.4 L1950.6,2710.2 L1952.6,2703.3 L1953.8,2696.3 L1954.5,2683.8 L1954.2,2658.3 L1946.9,2252.2 L1946.9,2247.7 L1947.7,2244.5 L1949.1,2241.9 L1952.0,2239.5 L1955.3,2237.8 L1959.0,2237.2 L1989.1,2236.2 L1992.7,2236.8 L1995.9,2238.2 L1998.2,2240.4 L2000.8,2244.2 L2002.3,2249.6 L2003.2,2256.9 L2010.7,2777.8 L2011.1,2780.9 L2011.7,2784.0 L2012.6,2787.2 L2013.7,2790.7 L2014.9,2794.2 L2016.3,2797.4 L2017.5,2800.1 L2018.8,2802.5 L2020.7,2805.5 L2022.8,2808.1 L2024.7,2810.5 L2027.6,2813.6 L2030.4,2816.3 L2033.5,2818.8 L2036.8,2821.3 L2046.0,2827.1 L2046.9,2826.0 L2055.0,2830.5 L2064.6,2835.7 L2070.1,2838.7 L2076.2,2842.3 L2082.5,2846.0 L2089.0,2850.0 L2096.3,2854.5 L2103.5,2859.0 L2110.7,2863.3 L2116.7,2867.0 L2123.4,2871.3 L2130.5,2875.9 L2137.3,2880.4 L2143.6,2884.7 L2142.9,2885.6 L2151.7,2891.7 L2160.8,2897.8 L2163.6,2899.5 L2166.7,2901.2 L2171.1,2903.3 L2175.2,2904.8 L2179.6,2906.0 L2183.5,2907.0 L2188.1,2907.7 L2193.2,2908.3 L2197.6,2908.3 L2201.3,2908.0 L2204.5,2907.3 L2208.6,2906.2 L2212.7,2904.9 L2216.5,2903.6 L2220.0,2901.9 L2223.6,2900.0 L2227.1,2897.8 L2230.7,2895.0 L2233.9,2892.1 L2237.0,2889.0 L2239.9,2885.8 L2242.9,2881.4 L2245.4,2877.0 L2247.8,2872.1 L2249.2,2868.3 L2250.3,2864.3 L2251.1,2860.0 L2251.5,2855.7 L2251.2,2850.8 L2191.9,2283.1 L2196.0,2282.7 L2192.7,2254.3 L2189.7,2254.5 L2187.3,2241.4 L2188.1,2238.7 L2190.6,2234.7 L2195.7,2230.8 L2202.4,2230.0 L2229.3,2229.1 L2233.8,2230.0 L2236.9,2231.5 L2240.2,2234.1 L2242.5,2236.5 L2244.1,2239.0 L2309.1,2875.9 L2310.6,2881.4 L2313.4,2888.2 L2315.8,2892.6 L2318.4,2897.3 L2321.8,2901.9 L2324.6,2905.1 L2327.7,2908.3 L2331.1,2911.0 L2334.1,2913.1 L2338.3,2915.8 L2342.0,2917.7 L2346.9,2919.8 L2351.5,2921.2 L2356.7,2922.3 L2360.7,2922.9 L2364.2,2923.0 L2368.3,2923.1 L2509.5,2920.2 L2514.1,2919.6 L2518.5,2917.5 L2521.7,2914.6 L2523.9,2910.2 L2524.7,2906.2 L2524.5,2902.2 L2453.0,2220.1 L2390.0,2137.9 L2387.2,2140.2 L2332.4,2063.7 L2331.4,2047.5 L2329.7,2044.1 L2326.8,2041.0 L2323.1,2035.8 L2322.8,2028.2 L2316.3,2025.7 L2310.0,2025.6 L2301.5,2029.8 L2311.1,2047.8 L2299.0,2053.6 L2289.9,2045.2 L2282.1,2040.4 L2276.8,2038.6 L2263.8,2038.1 L2257.2,2024.7 L2298.7,2007.7 L2296.7,2004.3 L2287.9,1992.5 L2286.5,1993.2 L1977.6,1588.7 L1972.9,1522.0 L1975.4,1521.4 L1963.5,1399.1 L1958.9,1387.8 L1953.9,1375.1 L1950.1,1365.3 L1945.5,1352.8 L1930.5,1310.7 L1924.4,1313.4 L1915.5,1279.3 L1917.0,1279.0 L1885.9,1194.7 L1882.5,1047.3 L1886.1,1047.3 L1886.6,1034.4 L1888.4,1021.7 L1889.1,1017.0 L1887.8,1013.2 L1892.0,993.1 L1930.3,925.3 L1910.2,913.1 L1925.1,888.4 L1944.5,899.8 L1946.2,897.2 L1952.3,900.3 L1958.9,902.9 L1966.5,905.3 L1972.2,906.5 L1977.6,906.7 L1984.0,905.6 L1990.3,903.5 L1996.5,901.1 L1999.4,898.0 L2000.5,893.9 L2002.0,889.0 L2002.3,887.0 L2002.2,884.5 L2000.8,880.6 L1998.2,876.9 L1995.2,874.8 L1990.8,870.6 L1987.0,866.6 L1981.4,863.0 L1979.1,857.3 L1976.4,851.6 L1972.1,844.9 L1967.2,839.1 L1958.2,832.7 L1914.6,810.1 L1888.8,797.3 L1864.7,784.3 L1841.8,771.6 L1827.0,762.0 L1821.3,760.5 L1815.0,762.4 L1811.5,766.7 L1804.4,784.4 L1760.3,764.6 L1786.7,722.9 L1792.5,720.2 L1799.6,718.8 L1807.9,720.6 L1973.6,817.5 L1982.6,820.2 L1992.0,822.5 L2005.3,822.8 L2018.8,820.4 L2027.4,816.9 L2036.8,809.3 L2042.3,804.0 L2048.2,795.7 L2048.1,794.6 L2047.7,793.6 L2046.8,792.8 L1993.2,759.7 L1991.9,759.3 L1990.5,759.2 L1989.1,759.3 L1984.0,761.5 L1982.1,761.7 L1980.0,761.5 L1976.9,761.0 L1974.5,760.3 L1971.1,758.6 L1967.8,756.7 L1894.1,711.7 L1859.4,687.3 L1856.1,686.8 L1852.8,686.9 L1848.9,687.0 L1846.3,686.6 L1844.1,685.6 L1841.5,683.6 L1838.6,681.3 L1836.6,678.5 L1835.4,675.7 L1835.2,673.6 L1835.5,670.9 L1836.0,668.6 L1847.8,648.8 L1847.8,647.9 L1846.9,647.2 L1836.1,639.6 L1834.0,636.5 L1835.2,634.6 L1838.7,635.1 L1842.5,636.2 L1864.7,649.9 L1990.5,730.2 L1993.1,731.7 L1994.9,733.6 L1996.1,735.8 L1997.4,740.4 L1998.3,744.0 L1998.8,747.1 L2055.6,781.2 L2057.6,782.1 L2060.0,782.3 L2062.8,781.9 L2064.8,781.2 L2066.5,780.4 L2127.6,681.5 L2153.2,643.9 L2177.1,617.0 L2189.2,623.7 L2197.0,611.1 L2155.5,586.3 L2164.3,571.9 L2205.8,596.9 L2215.1,581.7 L2207.6,573.3 L2215.2,564.6 L2223.4,574.0 L2225.4,572.5 L2227.7,570.9 L2230.9,569.1 L2234.2,567.5 L2238.3,566.0 L2242.2,564.9 L2246.4,564.2 L2250.6,563.9 L2254.6,564.0 L2258.5,564.6 L2262.2,565.5 L2265.3,566.4 L2268.0,567.6 L2271.8,569.4 L2275.3,571.6 L2278.3,573.7 L2281.3,576.4 L2284.0,579.0 L2287.0,582.9 L2289.1,586.4 L2291.2,590.9 L2292.6,595.4 L2293.8,601.6 L2294.2,607.0 L2294.1,610.1 L2293.7,613.3 L2292.6,618.1 L2289.8,624.7 L2288.0,629.0 L2285.5,634.1 L2295.9,639.3 L2344.5,581.3 L2256.0,527.5 L2260.5,517.9 L2263.7,509.0 L2263.9,505.2 L2269.0,494.3 L2279.5,484.6 L2292.5,474.0 L2308.0,464.1 L2337.1,455.6 L2387.3,450.6 L2407.1,434.6 L2411.2,433.9 L2414.5,433.7 L2419.2,435.5 L2423.5,436.0 L2451.4,452.9 L2524.8,365.8 L2255.8,194.8 L2239.1,221.1 L2202.8,198.1 L2254.3,117.1 L2290.5,139.5 L2274.4,167.1 L2548.1,339.6 L2582.6,295.3 L2607.0,266.3 L2639.2,217.9 L2657.0,193.5 L2655.2,179.6 L2655.7,179.2 L2652.5,168.9 L2650.4,162.5 L2648.4,155.9 L2646.0,150.2 L2641.4,142.7 L2636.8,135.4 L2634.8,131.6 L2633.3,127.8 L2632.2,124.3 L2631.8,121.2 L2631.3,111.0 L2513.1,2.5 L2509.2,6.7 L2505.9,3.9 L2496.3,13.4 L2490.0,5.0 L2497.6,-3.8 L2490.0,-13.5 L2484.8,-12.1 L2479.4,-11.9 L2474.5,-12.8 L2470.2,-14.6 L2465.2,-18.3 L2459.0,-24.4 L2448.1,-36.4 L2444.8,-41.5 L2443.6,-47.9 L2444.4,-55.5 L2447.3,-62.5 L2449.8,-67.3 L2454.6,-72.1 L2459.9,-75.7 L2465.0,-77.6 L2468.8,-78.2 L2473.8,-77.3 L2478.9,-75.5 L2483.7,-71.7 L2494.8,-61.7 L2500.5,-56.3 L2505.7,-50.6 L2507.4,-47.9 L2508.6,-45.0 L2509.3,-42.4 L2509.8,-38.8 L2509.2,-35.4 L2508.2,-32.2 L2506.8,-29.8 L2506.4,-28.7 L2506.7,-27.3 L2507.5,-25.9 L2634.4,93.0 L2638.8,96.0 L2641.9,97.3 L2646.3,96.3 L2651.5,95.9 L2658.1,98.7 L2664.7,102.8 L2677.6,110.1 L2683.0,112.7 L2687.9,107.9 L2693.3,102.7 L2696.9,98.6 L2702.9,90.8 L2706.3,86.1 L2709.9,80.3 L2712.2,75.2 L2714.7,69.8 L2717.0,64.1 L2719.1,58.3 L2720.3,53.4 L2721.7,47.2 L2722.3,43.5 L2722.7,40.5 L2723.4,35.2 L2724.1,30.0 L2724.4,26.6 L2724.6,22.9 L2724.6,18.6 L2724.4,15.0 L2723.7,10.0 L2722.9,4.3 L2722.1,-1.0 L2721.6,-5.3 L2721.0,-8.5 L2720.3,-11.9 L2719.5,-15.3 L2718.3,-19.3 L2716.9,-23.3 L2715.8,-25.7 L2714.6,-28.1 L2712.9,-30.4 L2710.6,-33.7 L2708.1,-36.8 L2705.4,-39.4 L2702.0,-42.2 L2698.5,-44.4 L2695.0,-46.3 L2691.8,-47.5 L2689.6,-48.2 L2687.1,-48.5 L2684.1,-48.4 L2681.3,-47.8 L2679.1,-46.9 L2677.0,-45.4 L2675.5,-43.8 L2674.3,-42.3 L2673.4,-40.0 L2672.9,-37.5 L2673.0,-34.5 L2673.2,-31.0 L2673.2,-28.4 L2673.0,-25.8 L2672.6,-23.2 L2672.1,-20.9 L2671.2,-18.5 L2669.8,-15.9 L2668.1,-13.4 L2666.4,-11.1 L2664.7,-9.5 L2661.3,-6.8 L2658.5,-4.9 L2654.1,-3.6 L2651.5,-3.0 L2648.5,-2.6 L2645.8,-2.5 L2642.2,-2.7 L2639.6,-3.2 L2636.0,-4.0 L2631.0,-5.5 L2626.8,-7.1 L2623.7,-8.3 L2620.4,-10.1 L2617.5,-12.1 L2614.3,-14.6 L2611.8,-16.9 L2609.7,-19.0 L2607.5,-21.6 L2605.7,-24.0 L2604.0,-26.4 L2602.5,-29.1 L2600.9,-32.7 L2599.5,-36.0 L2598.1,-39.6 L2597.2,-42.4 L2596.5,-45.0 L2596.0,-47.7 L2595.6,-51.9 L2595.3,-55.6 L2595.5,-59.6 L2596.4,-64.9 L2597.9,-70.1 L2599.8,-75.5 L2601.1,-78.0 L2602.4,-79.5 L2612.7,-92.6 L2615.1,-95.3 L2618.2,-96.8 L2621.5,-98.0 L2625.2,-98.8 L2629.3,-99.3 L2632.9,-99.5 L2636.5,-99.4 L2640.1,-99.0 L2644.2,-97.8 L2648.5,-95.7 L2652.2,-93.4 L2655.5,-90.8 L2665.9,-81.2 L2668.4,-80.4 L2669.8,-80.1 L2671.5,-80.5 L2672.6,-80.9 L2674.0,-82.5 L2674.6,-84.1 L2674.7,-86.3 L2674.8,-88.3 L2674.4,-89.2 L2653.4,-110.0 L2682.0,-140.5 L2680.4,-144.1 L2696.9,-160.4 L2728.7,-128.6 L2703.1,-96.0 L2702.9,-94.1 L2704.2,-93.3 L2705.8,-93.7 L2733.9,-128.9 L2742.1,-138.8 L2742.4,-141.1 L2741.7,-143.1 L2740.2,-144.9 L2718.2,-165.7 L2723.7,-172.1 L2718.1,-176.8 L2721.3,-184.2 L2778.3,-241.5 L2797.9,-244.8 L2804.0,-245.7 L2809.8,-246.5 L2812.5,-247.2 L2815.7,-248.9 L2819.5,-251.0 L2822.4,-253.9 L2825.2,-257.4 L2854.3,-299.7 L2854.9,-300.8 L2854.6,-302.2 L2854.2,-303.2 L2853.5,-304.1 L2850.0,-306.3 L2849.1,-306.8 L2848.3,-306.7 L2847.4,-306.2 L2845.5,-304.8 L2821.1,-282.0 L2811.6,-275.2 L2772.6,-315.2 L2777.1,-329.4 L2779.0,-333.6 L2785.1,-344.8 L2792.2,-357.3 L2796.5,-362.1 L2804.2,-370.3 L2812.4,-379.3 L2821.4,-388.8 L2829.1,-395.4 L2832.8,-398.7 L2837.7,-402.3 L2842.2,-404.7 L2848.6,-407.6 L2852.6,-409.0 L2856.6,-410.2 L2859.7,-410.5 L2864.1,-410.2 L2867.8,-409.7 L2872.0,-408.5 L2876.1,-405.1 L2878.6,-401.6 L2880.1,-398.0 L2880.7,-392.6 L2880.5,-385.5 L2879.6,-377.5 L2877.9,-369.8 L2867.6,-346.8 L2857.8,-326.1 L2861.2,-320.6 L2863.0,-319.5 L2864.9,-319.5 L2866.6,-319.9 L2867.9,-320.7 L2874.6,-330.2 L2883.2,-334.5 L2900.3,-380.2 L2901.5,-382.5 L2903.2,-384.5 L2904.9,-385.4 L2906.5,-385.8 L2908.8,-385.8 L2911.2,-385.2 L2923.7,-381.7 L2926.1,-381.2 L2928.9,-381.1 L2931.5,-381.5 L2933.6,-382.4 L2935.4,-383.8 L2937.2,-386.1 L2958.2,-414.2 L2959.2,-416.3 L2959.7,-418.5 L2959.7,-420.6 L2959.3,-422.8 L2958.5,-424.4 L2957.3,-426.0 L2955.9,-427.3 L2953.9,-428.3 L2952.0,-428.8 L2950.1,-428.9 L2948.5,-428.6 L2946.6,-427.7 L2945.2,-426.7 L2944.1,-425.3 L2938.6,-416.4 L2937.4,-414.7 L2936.0,-413.1 L2933.9,-411.3 L2932.0,-410.2 L2929.7,-409.5 L2926.9,-408.9 L2925.3,-408.9 L2923.1,-409.2 L2921.2,-409.7 L2919.6,-410.4 L2902.4,-426.0 L2900.4,-428.4 L2898.9,-430.6 L2897.5,-433.3 L2896.6,-435.6 L2896.0,-438.0 L2895.5,-440.6 L2895.2,-443.8 L2895.1,-447.0 L2895.4,-449.7 L2895.8,-452.0 L2896.3,-454.0 L2897.1,-455.7 L2928.4,-505.4 L2930.4,-508.7 L2931.6,-510.4 L2933.0,-511.2 L2935.3,-512.2 L2937.7,-512.9 L2940.0,-513.3 L2941.3,-513.3 L2942.6,-513.1 L2943.7,-512.7 L2945.3,-511.9 L2947.2,-510.7 L2950.4,-508.1 L2964.7,-494.7 L2967.1,-491.3 L2968.5,-488.0 L2969.8,-484.1 L2970.2,-481.1 L2970.4,-477.9 L2970.4,-475.2 L2970.1,-472.5 L2969.6,-469.8 L2969.0,-468.0 L2967.4,-464.3 L2961.7,-453.7 L2961.1,-451.3 L2961.1,-448.4 L2961.3,-446.2 L2962.1,-444.5 L2963.6,-442.9 L2966.0,-441.2 L2968.0,-440.1 L2970.3,-439.6 L2973.0,-439.7 L2975.2,-440.2 L2977.7,-441.5 L2979.9,-443.5 L3016.9,-494.3 L3005.6,-504.5 L3012.4,-511.8 L3022.5,-502.1 L3043.3,-529.4 L3074.8,-571.5 L2948.0,-693.0 L2920.5,-664.1 L2888.2,-694.6 L2919.4,-728.2 L2915.3,-732.7 L2921.8,-738.7 L2925.8,-734.6 L2947.5,-758.2 L2967.0,-740.1 L2969.3,-725.1 L3051.3,-648.6 L3067.3,-642.4 L3080.1,-646.9 L3104.4,-637.2 L3120.5,-643.1 L3168.4,-701.6 L3171.1,-707.1 L3171.9,-714.5 L3169.5,-721.8 L3166.3,-727.0 L3137.9,-753.2 L3138.3,-760.4 L3143.9,-774.5 L3155.1,-795.4 L3133.0,-809.7 L3141.4,-812.9 L3146.7,-816.3 L3152.0,-822.3 L3158.2,-838.2 L3169.6,-867.2 L3177.0,-874.0 L3106.8,-942.0 L3091.4,-932.4 L3087.8,-931.5 L3084.4,-931.4 L3080.0,-931.9 L3076.4,-932.9 L3072.9,-935.0 L3070.0,-937.5 L3033.7,-972.5 L3026.9,-979.3 L3023.9,-982.9 L3021.4,-987.4 L3020.2,-991.5 L3019.7,-995.5 L3019.8,-999.3 L3020.5,-1002.9 L3021.4,-1005.8 L3022.6,-1007.9 L3025.2,-1011.6 L3028.3,-1015.3 L3044.6,-1032.2 L3168.6,-917.3 L3160.1,-907.7 L3252.0,-820.8 L3357.9,-975.9 L3290.7,-1038.7 L3282.1,-1031.0 L3156.6,-1149.5 L3173.0,-1164.8 L3245.1,-1097.2 L3252.3,-1107.8 L3256.3,-1113.1 L3261.4,-1118.3 L3267.3,-1124.8 L3273.3,-1128.7 L3282.8,-1136.7 L3292.3,-1145.5 L3310.5,-1162.7 L3354.0,-1211.6 L3361.8,-1219.7 L3390.5,-1234.4 L3417.7,-1255.7 L3420.3,-1257.7 L3427.4,-1263.2 L3430.5,-1266.0 L3433.0,-1269.2 L3434.7,-1272.5 L3435.8,-1275.8 L3437.1,-1278.3 L3438.6,-1281.0 L3441.2,-1285.3 L3443.0,-1288.0 L3444.8,-1290.5 L3448.1,-1293.1 L3451.3,-1295.3 L3454.8,-1297.4 L3463.1,-1301.4 L3471.1,-1305.4 L3472.3,-1305.6 L3473.5,-1305.4 L3475.9,-1304.7 L3482.4,-1301.4 L3487.3,-1299.0 L3489.6,-1297.6 L3491.7,-1295.9 L3525.1,-1264.2 L3527.4,-1262.9 L3538.3,-1260.0 L3541.8,-1259.0 L3545.7,-1258.6 L3548.7,-1258.7 L3551.0,-1259.5 L3553.3,-1261.1 L3565.2,-1277.9 L3565.2,-1280.2 L3564.8,-1282.3 L3563.5,-1284.6 L3561.5,-1286.8 L3552.4,-1295.3 L3553.1,-1296.7 L3564.8,-1321.5 L3584.8,-1361.8 L3603.0,-1375.2 L3613.5,-1385.7 L3620.7,-1394.0 L3628.3,-1401.7 L3636.7,-1408.6 L3641.8,-1413.3 L3647.2,-1418.2 L3651.2,-1422.2 L3653.2,-1425.8 L3654.8,-1428.6 L3655.8,-1431.3 L3656.2,-1434.5 L3656.4,-1437.7 L3662.5,-1443.9 L3671.5,-1452.4 L3686.5,-1464.7 L3702.2,-1476.6 L3709.2,-1486.4 L3711.8,-1496.5 L3719.6,-1501.3 L3729.4,-1501.5 L3739.3,-1507.4 L3748.0,-1523.1 L3747.8,-1539.4 L3749.4,-1564.6 L3751.9,-1568.2 L3753.4,-1570.6 L3756.2,-1575.2 L3752.7,-1585.9 L3756.7,-1590.9 L3776.5,-1615.4 L3810.5,-1655.1 L3817.0,-1664.5 L3819.6,-1669.4 L3830.4,-1684.3 L3833.4,-1693.7 L3833.5,-1708.2 L3833.1,-1722.7 L3833.0,-1737.5 L3837.4,-1753.8 L3844.8,-1769.9 L3855.4,-1785.4 L3863.1,-1796.9 L3872.2,-1808.4 L3889.8,-1828.0 L3967.8,-1866.6 L3978.1,-1869.3 L3980.7,-1863.7 L3983.8,-1858.3 L3984.8,-1857.3 L3986.5,-1858.0 L3986.8,-1861.8 L3985.6,-1865.0 L3989.9,-1866.3 L4005.9,-1871.0 L4026.7,-1877.2 L4043.5,-1882.2 L4049.5,-1884.0 L4043.5,-1902.9 L4053.9,-1905.7 L4071.2,-1908.1 L4073.3,-1908.4 L4073.4,-1909.6 L4073.4,-1914.0 L4089.1,-1914.7 L4113.7,-1915.7 L4123.2,-1911.1 L4146.9,-1825.7 L4152.2,-1820.6 L4141.9,-1810.0 L4151.0,-1801.0 L4160.0,-1792.0 L4170.8,-1803.0 L4371.3,-1612.4 L4638.9,-1898.0 L4732.4,-1808.6 L4736.0,-1809.7 L4737.4,-1808.1 L4743.7,-1812.1 L4748.9,-1814.0 L4754.4,-1816.5 L4763.8,-1821.4 L4769.6,-1824.7 L4776.5,-1828.7 L4782.9,-1832.7 L4788.1,-1836.1 L4792.9,-1839.2 L4798.5,-1843.3 L4804.9,-1848.0 L4809.8,-1852.1 L4815.0,-1856.7 L4820.7,-1862.1 L4826.1,-1867.5 L4838.7,-1880.9 L4846.3,-1890.0 L4853.7,-1899.9 L4858.8,-1907.1 L4863.6,-1914.5 L4869.3,-1924.8 L4874.3,-1934.9 L4878.3,-1943.2 L4881.7,-1951.5 L4883.8,-1957.0 L4886.1,-1963.2 L4891.5,-1969.9 L4720.5,-2132.6 L4722.6,-2134.9 L4743.1,-2156.9 L4758.0,-2172.7 L4759.5,-2174.3 L4802.9,-2133.7 L4813.4,-2139.1 L4814.6,-2137.6 L4916.6,-2190.7 L4920.8,-2192.9 L4923.7,-2195.2 L4926.4,-2197.7 L4929.5,-2200.9 L4932.5,-2205.4 L4935.1,-2209.6 L4936.8,-2212.8 L4938.0,-2216.9 L4939.1,-2221.4 L4939.6,-2226.3 L4939.6,-2231.8 L4939.2,-2236.2 L4938.4,-2240.1 L4937.1,-2244.8 L4905.2,-2336.6 L4900.9,-2351.7 L4902.0,-2356.9 L4825.0,-2376.0 L4828.6,-2389.3 L4831.6,-2401.3 L4854.4,-2491.5 L4836.7,-2544.1 L4826.3,-2578.1 L4823.3,-2586.6 L4850.9,-2611.9 L4882.0,-2628.6 L4883.9,-2626.0 L4886.9,-2621.7 L4893.9,-2612.6 L4894.7,-2613.4 L4894.9,-2616.5 L4885.2,-2629.9 L4902.5,-2642.3 L4906.3,-2644.5 L4915.3,-2632.8 L4916.8,-2631.7 L4918.3,-2631.4 L4919.1,-2631.6 L4919.1,-2632.4 L4876.3,-2691.0 L4873.2,-2694.4 L4869.6,-2699.3 L4851.0,-2721.8 L4866.9,-2771.1 L4879.1,-2783.8 L4893.2,-2790.4 L4923.2,-2808.2 L4929.4,-2814.6 L4956.3,-2838.2 L4964.8,-2829.3 L4989.7,-2802.4 L5012.8,-2821.8 L5028.3,-2806.9 L5042.2,-2793.3 L5042.9,-2792.6 L5054.7,-2802.7 L5070.3,-2786.1 L5083.7,-2768.9 L5093.6,-2757.4 L5094.9,-2755.9 L5123.7,-2781.2 L5125.2,-2782.5 L5118.4,-2790.8 L5134.1,-2803.7 L5181.7,-2748.2 L5222.2,-2774.9 L5226.2,-2778.7 L5243.8,-2786.1 L5247.8,-2790.0 L5251.6,-2795.0 L5273.3,-2814.3 L5268.4,-2821.0 L5229.6,-2812.1 L5185.2,-2862.6 L5190.3,-2867.0 L5197.0,-2859.2 L5228.4,-2886.2 L5261.7,-2849.8 L5270.7,-2846.2 L5276.1,-2843.1 L5282.9,-2835.4 L5286.6,-2838.7 L5262.5,-2866.1 L5277.3,-2878.9 L5307.2,-2843.0 L5311.0,-2845.8 L5310.6,-2846.6 L5376.2,-2894.0 L5395.7,-2908.4 L5332.0,-2988.0 L5345.6,-2997.5 L5401.0,-2932.6 L5441.9,-2925.1 L5468.9,-2940.9 L5472.7,-2943.3 L5472.5,-2946.3 L5470.6,-2949.8 L5491.7,-2963.1 L5497.9,-2956.9 L5515.7,-2967.4 L5502.8,-2983.4 L5440.5,-3066.7 L5484.5,-3112.3 L5513.4,-3155.0 L5514.1,-3188.4 L5498.7,-3232.8 L5531.1,-3259.8 L5565.1,-3272.9 L5576.3,-3275.5 L5585.3,-3276.7 L5596.3,-3276.0 L5607.7,-3273.2 L5624.2,-3259.1 L5667.0,-3206.9 L5701.2,-3163.5 L5742.1,-3136.2 L5758.2,-3133.6 L5772.6,-3131.9 L5784.8,-3131.4 L5800.4,-3132.5 L5817.3,-3135.3 L5831.0,-3139.2 L5842.6,-3144.6 L5850.3,-3149.1 L5856.0,-3155.1 L5865.6,-3166.7 L5876.0,-3185.7 L5887.3,-3210.9 L5907.4,-3200.6 L5915.4,-3197.9 L5924.0,-3196.7 L5937.7,-3197.6 L5946.8,-3200.3 L5957.2,-3204.8 L5966.9,-3210.4 L5977.2,-3220.4 L5986.0,-3228.4 L5997.0,-3235.9 L6004.6,-3240.8 L6015.8,-3244.8 L6035.1,-3250.4 L6046.5,-3253.6 L6058.7,-3258.2 L6069.3,-3263.7 L6075.6,-3267.3 L6080.6,-3272.5 L6146.0,-3305.3 L6148.5,-3306.7 L6151.4,-3308.5 L6154.4,-3310.8 L6158.8,-3313.3 L6161.7,-3314.7 L6164.8,-3317.4 L6167.2,-3319.9 L6170.4,-3322.0 L6173.8,-3324.4 L6178.3,-3328.6 L6184.7,-3329.1 L6191.3,-3329.9 L6195.6,-3331.3 L6201.2,-3333.9 L6208.1,-3337.0 L6215.4,-3341.5 L6219.5,-3345.4 L6224.1,-3350.7 L6227.0,-3355.6 L6228.6,-3360.1 L6228.7,-3363.3 L6228.8,-3365.9 L6230.4,-3376.3 L6266.8,-3397.4 L6330.6,-3434.2 L6343.0,-3441.3 L6451.2,-3503.7 L6568.4,-3571.0 L6618.3,-3599.6 L6635.6,-3609.3 L6780.5,-3693.5 L6812.7,-3711.2 L6812.2,-3712.3 L6878.5,-3749.8 L6904.0,-3764.1 L6951.0,-3790.1 L6951.5,-3789.4 L6969.7,-3799.4 L7013.9,-3824.1 L7019.2,-3828.9 L7064.0,-3861.7 L7086.3,-3880.2 L7106.8,-3897.5 L7116.2,-3902.8 L7137.4,-3923.8 L7139.2,-3922.7 L7142.0,-3923.0 L7143.4,-3922.1 L7173.2,-3957.0 L7165.7,-3964.0 L7166.7,-3965.8 L7169.9,-3970.4 L7178.5,-3981.3 L7183.7,-3989.2 L7187.8,-3995.7 L7193.5,-4004.4 L7199.0,-4013.4 L7205.2,-4023.7 L7211.6,-4034.9 L7225.5,-4063.6 L7229.8,-4072.7 L7233.3,-4080.0 L7235.7,-4085.5 L7237.8,-4089.7 L7242.2,-4100.7 L7126.4,-4316.7 L7124.2,-4320.8 L7122.5,-4323.1 L7121.3,-4324.8 L7119.7,-4326.2 L7118.2,-4327.2 L7116.2,-4328.4 L7114.1,-4329.2 L7112.3,-4329.6 L7110.5,-4329.8 L7107.8,-4329.8 L7104.7,-4329.3 L7102.0,-4328.5 L7099.2,-4327.1 L7072.3,-4311.6 L7037.2,-4291.5 L7012.7,-4277.9 L6968.0,-4253.3 L6940.6,-4238.4 L6941.6,-4236.7 L6929.9,-4230.0 L6891.6,-4210.2 L6863.2,-4193.4 L6846.5,-4184.1 L6821.1,-4169.5 L6818.2,-4167.5 L6795.9,-4207.6 L6839.7,-4231.6 L6899.5,-4264.1 L6940.2,-4286.7 L6945.2,-4289.6 L6944.5,-4290.7 L6979.7,-4309.9 L6998.4,-4320.2 L7041.3,-4341.1 L7049.5,-4345.3 L7114.2,-4381.3 L7138.5,-4394.7 L7155.6,-4403.9 L7175.8,-4415.5 L7203.8,-4364.9 L7159.8,-4340.8 L7157.5,-4337.1 L7156.6,-4333.2 L7156.2,-4330.2 L7156.1,-4327.6 L7156.3,-4325.5 L7157.1,-4322.6 L7246.8,-4156.7 L7248.5,-4154.2 L7250.5,-4152.3 L7252.5,-4151.0 L7254.6,-4150.3 L7256.9,-4150.0 L7259.1,-4150.2 L7260.8,-4150.7 L7300.6,-4180.9 L7319.3,-4196.6 L7338.6,-4212.9 L7345.9,-4219.6 L7369.8,-4239.2 L7370.9,-4239.2 L7394.1,-4259.0 L7394.2,-4260.2 L7409.4,-4272.7 L7421.4,-4282.5 L7442.0,-4299.5 L7443.9,-4297.2 L7464.1,-4313.9 L7474.3,-4322.4 L7502.6,-4345.9 L7522.3,-4362.3 L7520.4,-4365.1 L7526.9,-4370.6 L7537.6,-4379.4 L7544.2,-4385.2 L7572.1,-4397.7 L7591.0,-4404.3 L7600.7,-4408.9 L7627.9,-4409.1 L7637.4,-4409.1 L7657.5,-4408.1 L7681.0,-4407.1 L7682.7,-4408.7 L7685.0,-4405.7 L7692.4,-4405.3 L7759.7,-4399.5 L7767.6,-4397.8 L7774.5,-4396.7 L7790.1,-4395.4 L7819.2,-4394.0 L7825.6,-4393.9 L7831.6,-4394.1 L7854.9,-4395.0 L7866.9,-4395.6 L7878.8,-4396.7 L7897.1,-4398.6 L7897.0,-4397.5 L7911.5,-4400.0 L7925.2,-4402.6 L7935.7,-4404.5 L7949.5,-4414.9 L7951.1,-4412.7 L7952.8,-4410.3 L8074.4,-4249.5 L8367.9,-4148.3 L8906.5,-4543.9 L9053.3,-4649.6 L9110.0,-4770.6 L9019.8,-4888.8 L9023.8,-4905.7 L9039.6,-4910.0 L9070.0,-4903.7 L9091.6,-4911.8 L9097.6,-4920.2 L9096.3,-4927.5 L9080.2,-4959.1 L9079.1,-4970.9 L9078.2,-4994.3 L9075.4,-5016.9 L9078.2,-5020.9 L9087.3,-5025.3 L9098.4,-5027.8 L9106.4,-5036.4 L9108.2,-5046.8 L9101.4,-5066.9 L9100.7,-5080.8 L9102.9,-5096.6 L9113.9,-5124.3 L9111.6,-5137.1 L9106.1,-5151.4 L9105.9,-5170.8 L9102.7,-5196.4 L9096.9,-5212.4 L9093.3,-5220.8 L9095.7,-5224.5 L9098.0,-5224.3 L9098.6,-5225.8 L9098.9,-5227.8 L9098.8,-5229.8 L9095.3,-5230.2 L9093.1,-5233.3 L9093.5,-5237.0 L9090.5,-5237.8 L9086.8,-5237.9 L9086.3,-5237.0 L9078.7,-5246.0 L9077.1,-5248.8 L9075.8,-5252.7 L9074.9,-5256.5 L9074.2,-5260.5 L9073.9,-5264.5 L9073.7,-5268.1 L9073.7,-5271.8 L9074.0,-5273.8 L9075.6,-5278.8 L9077.4,-5282.8 L9079.7,-5286.7 L9083.1,-5291.6 L9086.6,-5296.3 L9089.9,-5299.7 L9094.0,-5302.8 L9094.8,-5302.0 L9129.9,-5328.8 L9135.0,-5332.7 L9134.0,-5334.2 L9134.0,-5336.8 L9142.7,-5343.6 L9144.9,-5343.5 L9147.0,-5342.0 L9150.7,-5344.8 L9186.7,-5372.1 L9186.3,-5373.0 L9190.5,-5376.1 L9195.5,-5379.2 L9199.0,-5380.8 L9204.0,-5382.7 L9208.3,-5383.9 L9212.6,-5384.5 L9217.3,-5384.9 L9220.1,-5384.7 L9224.0,-5384.1 L9227.8,-5382.8 L9230.6,-5381.4 L9233.3,-5379.8 L9235.3,-5378.3 L9237.0,-5376.7 L9239.5,-5374.3 L9240.6,-5373.9 L9242.4,-5373.9 L9244.2,-5374.2 L9249.7,-5378.1 L9249.7,-5379.2 L9250.3,-5380.0 L9250.9,-5381.1 L9250.8,-5382.4 L9250.5,-5383.5 L9249.7,-5384.5 L9245.8,-5388.4 L9242.7,-5390.9 L9239.1,-5392.9 L9233.2,-5395.5 L9228.1,-5397.5 L9237.0,-5402.1 L9247.9,-5409.7 L9261.4,-5411.4 L9274.9,-5410.5 L9283.7,-5414.0 L9291.4,-5425.0 L9320.4,-5476.9 L9332.2,-5498.3 L9341.5,-5521.1 L9343.1,-5525.9 L9356.9,-5568.2 L9359.1,-5572.3 L9361.7,-5576.4 L9394.1,-5616.5 L9401.0,-5623.7 L9406.1,-5628.1 L9478.7,-5690.3 L9482.7,-5693.0 L9495.1,-5699.8 L9510.0,-5708.2 L9556.4,-5732.5 L9657.5,-5786.8 L9659.9,-5784.9 L9661.8,-5784.2 L9663.5,-5783.7 L9665.3,-5784.0 L9667.2,-5784.4 L9672.6,-5785.5 L9678.9,-5786.9 L9684.6,-5788.2 L9690.5,-5789.3 L9693.7,-5790.0 L9698.1,-5791.3 L9703.1,-5793.4 L9715.2,-5800.0 L9719.6,-5802.4 L9721.9,-5803.8 L9724.2,-5804.8 L9733.6,-5808.8 L9743.9,-5812.8 L9756.9,-5818.4 L9772.2,-5824.7 L9772.8,-5825.0 L9774.1,-5825.1 L9775.8,-5825.6 L9778.2,-5827.4 L9780.9,-5828.4 L9783.9,-5829.9 L9789.5,-5833.1 L9791.5,-5835.1 L9794.8,-5837.2 L9794.5,-5837.8 L9795.9,-5839.5 L9797.7,-5841.4 L9800.7,-5842.9 L9803.2,-5843.9 L9805.9,-5844.9 L9808.4,-5846.2 L9813.3,-5849.3 L9814.7,-5850.7 L9816.1,-5852.9 L9816.7,-5854.5 L9816.9,-5856.1 L9816.7,-5857.6 L9817.0,-5859.1 L9803.0,-5876.0 L9847.1,-5901.9 L9868.0,-5913.0 L9872.1,-5914.3 L9878.5,-5913.1 L9885.6,-5903.2 L9888.8,-5900.4 L9891.7,-5899.0 L9894.4,-5898.4 L9896.9,-5898.5 L9934.7,-5914.1 L9945.0,-5919.1 L9954.6,-5924.4 L9970.1,-5932.6 L9973.3,-5933.7 L10188.1,-6023.0 L10255.3,-6055.3 L10555.8,-6199.6 L17568.9,-6257.6 L17568.9,3778.0 L2581.2,3778.0 L2581.2,3351.5 Z" fill="#add7e1" stroke="none"><title>Biscayne Bay</title></path><path d="M39.8,229.7 L40.6,254.3 L27.5,254.8 L27.3,247.6 L-2.5,248.6 L-2.8,239.1 L-0.4,239.1 L-0.6,231.0 L39.8,229.7 Z" fill="#d6d2c9" stroke="#bab6ad" stroke-width="0.4"></path><path d="M220.4,-23.7 L220.8,-11.9 L223.2,-12.0 L223.0,-19.1 L236.2,-19.5 L236.6,-5.9 L234.4,-5.9 L235.1,16.5 L223.2,16.9 L224.0,42.2 L212.2,42.5 L210.1,-23.3 L220.4,-23.7 Z" fill="#d6d2c9" stroke="#bab6ad" stroke-width="0.4"></path><path d="M85.5,9.9 L86.0,20.1 L81.9,20.3 L77.7,20.5 L77.6,17.1 L70.9,17.4 L70.7,12.7 L69.1,12.8 L68.0,-9.8 L77.1,-10.2 L86.2,-10.7 L87.2,9.8 L85.5,9.9 Z" fill="#d6d2c9" stroke="#bab6ad" stroke-width="0.4"></path><path d="M115.2,203.1 L104.1,203.3 L103.5,170.0 L128.0,169.5 L128.4,192.0 L126.0,192.0 L126.1,197.2 L115.0,197.4 L115.2,203.1 Z" fill="#d6d2c9" stroke="#bab6ad" stroke-width="0.4"></path><path d="M259.3,187.5 L259.1,195.1 L242.6,194.6 L242.9,184.8 L224.2,184.2 L224.7,165.4 L255.8,166.3 L255.2,187.4 L259.3,187.5 Z" fill="#d6d2c9" stroke="#bab6ad" stroke-width="0.4"></path><path d="M222.4,49.8 L222.5,50.8 L237.9,50.3 L238.2,61.9 L222.7,62.3 L223.2,77.9 L238.5,77.4 L239.1,97.8 L231.1,98.1 L231.2,101.2 L222.5,101.4 L222.4,95.7 L212.6,96.0 L212.1,78.2 L213.8,78.1 L212.9,51.2 L215.6,51.1 L215.6,50.0 L222.4,49.8 Z" fill="#d6d2c9" stroke="#bab6ad" stroke-width="0.4"></path><path d="M122.7,27.6 L98.2,28.0 L97.8,0.0 L103.3,-0.1 L103.2,-3.7 L108.5,-3.8 L108.4,-11.4 L122.1,-11.6 L122.7,27.6 Z" fill="#d6d2c9" stroke="#bab6ad" stroke-width="0.4"></path><path d="M156.6,68.7 L156.6,73.4 L159.8,73.4 L160.0,88.5 L151.9,88.6 L151.9,84.9 L142.0,85.1 L141.7,61.7 L153.7,61.5 L153.6,60.2 L167.7,60.0 L167.8,68.5 L156.6,68.7 Z" fill="#d6d2c9" stroke="#bab6ad" stroke-width="0.4"></path><path d="M96.1,61.5 L97.2,100.6 L89.2,100.8 L89.1,98.0 L73.2,98.4 L72.7,80.2 L81.4,79.9 L80.9,61.9 L96.1,61.5 Z" fill="#d6d2c9" stroke="#bab6ad" stroke-width="0.4"></path><path d="M114.1,263.5 L114.4,268.7 L108.4,269.1 L102.4,269.4 L102.1,265.0 L84.2,266.0 L83.3,248.8 L101.5,247.8 L101.0,237.6 L116.6,236.7 L116.2,229.1 L121.5,228.8 L126.9,228.5 L128.1,250.1 L126.7,250.1 L127.1,256.7 L123.3,256.9 L123.6,263.0 L114.1,263.5 Z" fill="#d6d2c9" stroke="#bab6ad" stroke-width="0.4"></path><path d="M111.8,71.4 L112.4,95.0 L114.5,94.9 L114.7,106.6 L108.9,106.8 L109.2,116.3 L100.4,116.6 L99.3,71.7 L111.8,71.4 Z" fill="#d6d2c9" stroke="#bab6ad" stroke-width="0.4"></path><path d="M173.0,158.7 L173.5,178.6 L178.6,178.5 L178.7,180.4 L184.8,180.3 L185.0,189.1 L185.3,198.0 L162.5,198.7 L162.1,184.5 L159.8,184.5 L159.1,159.0 L166.1,158.8 L173.0,158.7 Z" fill="#d6d2c9" stroke="#bab6ad" stroke-width="0.4"></path><path d="M94.1,30.8 L94.4,36.8 L96.4,36.8 L96.9,49.2 L84.1,49.7 L83.9,43.7 L83.6,37.7 L84.9,37.6 L84.7,31.2 L89.4,31.0 L94.1,30.8 Z" fill="#d6d2c9" stroke="#bab6ad" stroke-width="0.4"></path><path d="M197.0,194.2 L197.1,198.1 L202.3,197.9 L202.7,210.8 L189.5,211.3 L188.9,194.4 L197.0,194.2 Z" fill="#d6d2c9" stroke="#bab6ad" stroke-width="0.4"></path><path d="M263.1,26.7 L263.3,29.0 L267.0,28.8 L267.5,35.7 L264.0,35.8 L264.2,42.2 L240.2,43.6 L239.7,34.5 L250.1,33.8 L249.7,27.5 L263.1,26.7 Z" fill="#d6d2c9" stroke="#bab6ad" stroke-width="0.4"></path><path d="M57.5,-8.3 L57.9,-0.6 L65.5,-0.9 L66.4,19.6 L49.9,20.4 L50.1,24.1 L46.1,24.3 L46.3,29.1 L39.7,29.4 L39.1,15.8 L32.6,16.1 L31.8,-1.8 L39.0,-2.1 L38.8,-7.5 L57.5,-8.3 Z" fill="#d6d2c9" stroke="#bab6ad" stroke-width="0.4"></path><path d="M151.0,-12.6 L152.0,21.1 L146.2,21.3 L146.6,34.9 L126.0,35.6 L124.7,-9.5 L134.3,-9.8 L134.4,-5.5 L139.9,-5.6 L139.7,-12.3 L151.0,-12.6 Z" fill="#d6d2c9" stroke="#bab6ad" stroke-width="0.4"></path><path d="M195.3,-20.7 L195.7,-7.9 L206.8,-8.2 L207.7,22.0 L200.0,22.2 L200.3,32.3 L187.4,32.6 L187.1,25.4 L183.6,25.5 L182.9,0.3 L190.1,0.1 L189.9,-6.6 L182.9,-6.4 L182.5,-20.3 L195.3,-20.7 Z" fill="#d6d2c9" stroke="#bab6ad" stroke-width="0.4"></path><path d="M246.5,220.2 L246.7,227.3 L259.7,227.0 L259.9,234.6 L268.2,234.4 L268.5,246.6 L260.4,246.8 L260.6,253.7 L268.1,253.5 L268.4,266.6 L261.1,266.8 L261.0,265.5 L248.2,265.8 L248.2,267.5 L234.3,267.9 L233.1,220.5 L246.5,220.2 Z" fill="#d6d2c9" stroke="#bab6ad" stroke-width="0.4"></path><path d="M211.0,223.5 L211.2,229.9 L214.8,229.8 L215.7,266.1 L204.6,266.4 L204.7,269.4 L192.6,269.7 L192.6,266.7 L190.7,266.7 L189.8,230.4 L194.0,230.3 L193.8,223.9 L211.0,223.5 Z" fill="#d6d2c9" stroke="#bab6ad" stroke-width="0.4"></path><path d="M84.2,159.3 L84.5,167.2 L95.2,166.7 L95.5,173.5 L97.6,173.4 L97.9,181.9 L99.1,181.8 L100.2,207.6 L74.1,208.8 L72.0,159.9 L84.2,159.3 Z" fill="#d6d2c9" stroke="#bab6ad" stroke-width="0.4"></path><path d="M21.6,157.5 L21.6,160.5 L28.4,160.2 L28.8,171.7 L22.0,172.0 L22.6,187.3 L17.5,187.5 L17.9,199.1 L26.0,198.8 L26.4,209.0 L1.1,209.9 L0.8,199.8 L5.5,199.6 L4.7,178.1 L12.3,177.9 L11.5,157.9 L21.6,157.5 Z" fill="#d6d2c9" stroke="#bab6ad" stroke-width="0.4"></path><path d="M163.7,-3.3 L163.8,-0.3 L178.9,-0.7 L179.7,33.0 L169.1,33.2 L169.1,34.3 L165.0,34.4 L164.8,26.2 L155.0,26.4 L154.0,-17.4 L167.6,-17.7 L167.9,-3.4 L163.7,-3.3 Z" fill="#d6d2c9" stroke="#bab6ad" stroke-width="0.4"></path><path d="M253.2,60.4 L253.7,76.8 L267.2,76.4 L267.8,94.7 L259.8,95.0 L261.2,110.2 L251.0,110.5 L250.6,99.8 L252.1,99.8 L252.1,96.8 L242.1,97.2 L240.6,49.6 L264.1,48.9 L264.5,60.1 L253.2,60.4 Z" fill="#d6d2c9" stroke="#bab6ad" stroke-width="0.4"></path><path d="M148.3,90.3 L148.9,111.0 L134.7,111.5 L134.6,107.8 L128.8,108.0 L128.3,90.9 L148.3,90.3 Z" fill="#d6d2c9" stroke="#bab6ad" stroke-width="0.4"></path><path d="M211.5,189.7 L195.5,190.2 L194.5,161.9 L210.5,161.4 L211.5,189.7 Z" fill="#d6d2c9" stroke="#bab6ad" stroke-width="0.4"></path><path d="M264.5,3.1 L239.3,3.9 L238.2,-22.6 L263.7,-23.4 L264.5,3.1 Z" fill="#d6d2c9" stroke="#bab6ad" stroke-width="0.4"></path><path d="M156.7,171.2 L157.7,203.6 L144.9,204.0 L144.8,200.2 L131.5,200.6 L130.6,174.7 L136.1,174.5 L137.7,173.1 L140.7,173.0 L141.9,174.2 L141.8,171.7 L156.7,171.2 Z" fill="#d6d2c9" stroke="#bab6ad" stroke-width="0.4"></path><path d="M65.5,49.4 L53.1,49.6 L52.9,34.7 L59.6,34.6 L59.5,30.8 L65.2,30.7 L65.5,49.4 Z" fill="#d6d2c9" stroke="#bab6ad" stroke-width="0.4"></path><path d="M195.9,55.9 L196.3,69.6 L209.8,69.2 L210.8,101.3 L199.6,101.6 L199.5,98.7 L185.5,99.2 L184.2,56.3 L195.9,55.9 Z" fill="#d6d2c9" stroke="#bab6ad" stroke-width="0.4"></path><path d="M59.9,226.4 L60.1,231.2 L64.4,231.0 L65.1,248.7 L74.4,248.4 L75.1,267.7 L59.4,268.3 L59.3,265.7 L50.6,266.0 L49.1,226.8 L59.9,226.4 Z" fill="#d6d2c9" stroke="#bab6ad" stroke-width="0.4"></path><path d="M183.4,237.1 L184.3,265.0 L168.4,265.6 L168.0,252.0 L166.8,252.1 L166.4,241.8 L169.8,241.7 L169.7,237.6 L183.4,237.1 Z" fill="#d6d2c9" stroke="#bab6ad" stroke-width="0.4"></path><path d="M148.9,241.6 L149.1,247.3 L156.9,247.0 L157.3,256.8 L157.7,266.6 L135.5,267.4 L134.3,235.5 L153.1,234.8 L153.2,238.1 L153.4,241.4 L148.9,241.6 Z" fill="#d6d2c9" stroke="#bab6ad" stroke-width="0.4"></path><path d="M22.9,56.0 L36.9,56.5 L36.6,67.4 L49.1,67.9 L49.4,59.6 L70.4,60.3 L68.4,119.1 L53.9,118.6 L54.3,104.0 L21.3,102.9 L22.9,56.0 Z" fill="#d6d2c9" stroke="#bab6ad" stroke-width="0.4"></path><path d="M356.5,-44.6 L96.4,-36.9 L59.6,-36.1 L35.9,-36.1 L20.0,-36.1 L8.2,-34.5 L-0.9,-32.9 L-12.8,-30.2 L-32.4,-25.3 L-54.0,-20.2" fill="none" stroke="#cec8bb" stroke-width="4.8" stroke-linecap="round" stroke-linejoin="round"/><path d="M356.5,-44.6 L96.4,-36.9 L59.6,-36.1 L35.9,-36.1 L20.0,-36.1 L8.2,-34.5 L-0.9,-32.9 L-12.8,-30.2 L-32.4,-25.3 L-54.0,-20.2" fill="none" stroke="#ffffff" stroke-width="3.7" stroke-linecap="round" stroke-linejoin="round"><title>Ventura Avenue</title></path><path d="M6.9,-58.8 L7.6,-46.1 L8.2,-34.5 L8.7,-27.3 L8.8,-17.0 L8.7,-2.6 L8.0,11.2 L7.3,18.5 L6.5,24.6 L5.0,33.9 L1.3,52.4 L-2.7,67.9 L-6.2,78.8 L-10.7,92.8 L-14.9,103.9 L-19.7,115.1 L-23.9,130.7 L-28.3,145.6 L-30.6,162.8 L-31.2,171.2 L-31.6,177.9 L-32.0,186.1 L-32.9,201.0 L-32.9,209.1 L-32.7,215.9 L-32.4,223.5 L-31.9,231.1 L-31.2,238.5 L-30.1,245.9 L-27.9,261.3 L-26.0,275.9 L-25.0,283.2 L-24.4,290.7 L-22.6,305.0" fill="none" stroke="#cec8bb" stroke-width="4.8" stroke-linecap="round" stroke-linejoin="round"/><path d="M6.9,-58.8 L7.6,-46.1 L8.2,-34.5 L8.7,-27.3 L8.8,-17.0 L8.7,-2.6 L8.0,11.2 L7.3,18.5 L6.5,24.6 L5.0,33.9 L1.3,52.4 L-2.7,67.9 L-6.2,78.8 L-10.7,92.8 L-14.9,103.9 L-19.7,115.1 L-23.9,130.7 L-28.3,145.6 L-30.6,162.8 L-31.2,171.2 L-31.6,177.9 L-32.0,186.1 L-32.9,201.0 L-32.9,209.1 L-32.7,215.9 L-32.4,223.5 L-31.9,231.1 L-31.2,238.5 L-30.1,245.9 L-27.9,261.3 L-26.0,275.9 L-25.0,283.2 L-24.4,290.7 L-22.6,305.0" fill="none" stroke="#ffffff" stroke-width="3.7" stroke-linecap="round" stroke-linejoin="round"><title>La Playa Boulevard</title></path><path d="M322.2,167.9 L289.1,146.1 L280.5,141.2 L272.0,137.1 L262.9,134.3 L253.6,132.4 L243.8,130.9 L235.4,130.6 L228.4,130.8 L210.9,132.7 L202.0,133.9 L187.8,136.2 L172.1,139.2 L158.5,140.8 L140.5,142.0 L124.1,142.6 L112.4,142.5 L92.5,140.9 L77.6,139.1 L63.4,136.7 L50.3,134.4 L36.9,131.9 L8.8,125.4 L-23.9,130.7 L-46.5,134.2 L-102.9,137.1" fill="none" stroke="#cec8bb" stroke-width="4.8" stroke-linecap="round" stroke-linejoin="round"/><path d="M322.2,167.9 L289.1,146.1 L280.5,141.2 L272.0,137.1 L262.9,134.3 L253.6,132.4 L243.8,130.9 L235.4,130.6 L228.4,130.8 L210.9,132.7 L202.0,133.9 L187.8,136.2 L172.1,139.2 L158.5,140.8 L140.5,142.0 L124.1,142.6 L112.4,142.5 L92.5,140.9 L77.6,139.1 L63.4,136.7 L50.3,134.4 L36.9,131.9 L8.8,125.4 L-23.9,130.7 L-46.5,134.2 L-102.9,137.1" fill="none" stroke="#ffffff" stroke-width="3.7" stroke-linecap="round" stroke-linejoin="round"><title>El Prado Boulevard</title></path><text x="16.1" y="243.0" text-anchor="middle" font-family="Arial, sans-serif" font-size="6.5" textLength="18.0" lengthAdjust="spacing" font-weight="500" paint-order="stroke" stroke="#f3f5ee" stroke-width="1.55" stroke-linejoin="round" fill="#6f777a">4095</text><text x="78.1" y="16.5" text-anchor="middle" font-family="Arial, sans-serif" font-size="6.5" textLength="18.0" lengthAdjust="spacing" font-weight="500" paint-order="stroke" stroke="#f3f5ee" stroke-width="1.55" stroke-linejoin="round" fill="#6f777a">4080</text><text x="118.3" y="190.6" text-anchor="middle" font-family="Arial, sans-serif" font-size="6.5" textLength="18.0" lengthAdjust="spacing" font-weight="500" paint-order="stroke" stroke="#f3f5ee" stroke-width="1.55" stroke-linejoin="round" fill="#6f777a">4066</text><text x="241.0" y="183.2" text-anchor="middle" font-family="Arial, sans-serif" font-size="6.5" textLength="18.0" lengthAdjust="spacing" font-weight="500" paint-order="stroke" stroke="#f3f5ee" stroke-width="1.55" stroke-linejoin="round" fill="#6f777a">4016</text><text x="224.1" y="73.8" text-anchor="middle" font-family="Arial, sans-serif" font-size="6.5" textLength="18.0" lengthAdjust="spacing" font-weight="500" paint-order="stroke" stroke="#f3f5ee" stroke-width="1.55" stroke-linejoin="round" fill="#6f777a">4021</text><text x="108.0" y="16.5" text-anchor="middle" font-family="Arial, sans-serif" font-size="6.5" textLength="18.0" lengthAdjust="spacing" font-weight="500" paint-order="stroke" stroke="#f3f5ee" stroke-width="1.55" stroke-linejoin="round" fill="#6f777a">4070</text><text x="155.3" y="72.9" text-anchor="middle" font-family="Arial, sans-serif" font-size="6.5" textLength="18.0" lengthAdjust="spacing" font-weight="500" paint-order="stroke" stroke="#f3f5ee" stroke-width="1.55" stroke-linejoin="round" fill="#6f777a">4037</text><text x="85.0" y="85.2" text-anchor="middle" font-family="Arial, sans-serif" font-size="6.5" textLength="18.0" lengthAdjust="spacing" font-weight="500" paint-order="stroke" stroke="#f3f5ee" stroke-width="1.55" stroke-linejoin="round" fill="#6f777a">4075</text><text x="112.3" y="246.0" text-anchor="middle" font-family="Arial, sans-serif" font-size="6.5" textLength="18.0" lengthAdjust="spacing" font-weight="500" paint-order="stroke" stroke="#f3f5ee" stroke-width="1.55" stroke-linejoin="round" fill="#6f777a">4075</text><text x="108.9" y="97.4" text-anchor="middle" font-family="Arial, sans-serif" font-size="6.5" textLength="18.0" lengthAdjust="spacing" font-weight="500" paint-order="stroke" stroke="#f3f5ee" stroke-width="1.55" stroke-linejoin="round" fill="#6f777a">4061</text><text x="172.4" y="179.1" text-anchor="middle" font-family="Arial, sans-serif" font-size="6.5" textLength="18.0" lengthAdjust="spacing" font-weight="500" paint-order="stroke" stroke="#f3f5ee" stroke-width="1.55" stroke-linejoin="round" fill="#6f777a">4046</text><text x="47.2" y="16.5" text-anchor="middle" font-family="Arial, sans-serif" font-size="6.5" textLength="18.0" lengthAdjust="spacing" font-weight="500" paint-order="stroke" stroke="#f3f5ee" stroke-width="1.55" stroke-linejoin="round" fill="#6f777a">3909</text><text x="139.5" y="16.5" text-anchor="middle" font-family="Arial, sans-serif" font-size="6.5" textLength="18.0" lengthAdjust="spacing" font-weight="500" paint-order="stroke" stroke="#f3f5ee" stroke-width="1.55" stroke-linejoin="round" fill="#6f777a">4060</text><text x="192.3" y="16.5" text-anchor="middle" font-family="Arial, sans-serif" font-size="6.5" textLength="18.0" lengthAdjust="spacing" font-weight="500" paint-order="stroke" stroke="#f3f5ee" stroke-width="1.55" stroke-linejoin="round" fill="#6f777a">4050</text><text x="241.0" y="246.0" text-anchor="middle" font-family="Arial, sans-serif" font-size="6.5" textLength="18.0" lengthAdjust="spacing" font-weight="500" paint-order="stroke" stroke="#f3f5ee" stroke-width="1.55" stroke-linejoin="round" fill="#6f777a">4035</text><text x="201.3" y="246.0" text-anchor="middle" font-family="Arial, sans-serif" font-size="6.5" textLength="18.0" lengthAdjust="spacing" font-weight="500" paint-order="stroke" stroke="#f3f5ee" stroke-width="1.55" stroke-linejoin="round" fill="#6f777a">4045</text><text x="90.0" y="178.0" text-anchor="middle" font-family="Arial, sans-serif" font-size="6.5" textLength="18.0" lengthAdjust="spacing" font-weight="500" paint-order="stroke" stroke="#f3f5ee" stroke-width="1.55" stroke-linejoin="round" fill="#6f777a">4080</text><text x="16.8" y="182.9" text-anchor="middle" font-family="Arial, sans-serif" font-size="6.5" textLength="18.0" lengthAdjust="spacing" font-weight="500" paint-order="stroke" stroke="#f3f5ee" stroke-width="1.55" stroke-linejoin="round" fill="#6f777a">4001</text><text x="166.5" y="16.5" text-anchor="middle" font-family="Arial, sans-serif" font-size="6.5" textLength="18.0" lengthAdjust="spacing" font-weight="500" paint-order="stroke" stroke="#f3f5ee" stroke-width="1.55" stroke-linejoin="round" fill="#6f777a">4052</text><text x="137.3" y="103.2" text-anchor="middle" font-family="Arial, sans-serif" font-size="6.5" textLength="18.0" lengthAdjust="spacing" font-weight="500" paint-order="stroke" stroke="#f3f5ee" stroke-width="1.55" stroke-linejoin="round" fill="#6f777a">4047</text><text x="203.0" y="175.8" text-anchor="middle" font-family="Arial, sans-serif" font-size="6.5" textLength="18.0" lengthAdjust="spacing" font-weight="500" paint-order="stroke" stroke="#f3f5ee" stroke-width="1.55" stroke-linejoin="round" fill="#6f777a">4036</text><text x="142.2" y="183.7" text-anchor="middle" font-family="Arial, sans-serif" font-size="6.5" textLength="18.0" lengthAdjust="spacing" font-weight="500" paint-order="stroke" stroke="#f3f5ee" stroke-width="1.55" stroke-linejoin="round" fill="#6f777a">4060</text><text x="197.7" y="81.5" text-anchor="middle" font-family="Arial, sans-serif" font-size="6.5" textLength="18.0" lengthAdjust="spacing" font-weight="500" paint-order="stroke" stroke="#f3f5ee" stroke-width="1.55" stroke-linejoin="round" fill="#6f777a">4031</text><text x="61.7" y="246.0" text-anchor="middle" font-family="Arial, sans-serif" font-size="6.5" textLength="18.0" lengthAdjust="spacing" font-weight="500" paint-order="stroke" stroke="#f3f5ee" stroke-width="1.55" stroke-linejoin="round" fill="#6f777a">4085</text><text x="172.1" y="246.0" text-anchor="middle" font-family="Arial, sans-serif" font-size="6.5" textLength="18.0" lengthAdjust="spacing" font-weight="500" paint-order="stroke" stroke="#f3f5ee" stroke-width="1.55" stroke-linejoin="round" fill="#6f777a">4047</text><text x="149.9" y="246.0" text-anchor="middle" font-family="Arial, sans-serif" font-size="6.5" textLength="18.0" lengthAdjust="spacing" font-weight="500" paint-order="stroke" stroke="#f3f5ee" stroke-width="1.55" stroke-linejoin="round" fill="#6f777a">4057</text><text x="38.9" y="82.3" text-anchor="middle" font-family="Arial, sans-serif" font-size="6.5" textLength="18.0" lengthAdjust="spacing" font-weight="500" paint-order="stroke" stroke="#f3f5ee" stroke-width="1.55" stroke-linejoin="round" fill="#6f777a">4095</text></svg>