<svg xmlns="http://www.w3.org/2000/svg" width="256" height="256" viewBox="0 0 256 256"><rect width="256" height="256" fill="#f1efe7"/><path d="M2581.2,4631.5 L2037.0,4229.8 L1993.5,4197.8 L1946.3,4187.5 L1913.0,4159.5 L1886.4,4156.4 L1800.4,4162.1 L1800.5,4154.0 L1795.7,4146.4 L1786.1,4140.5 L1599.3,4059.6 L1586.6,4053.8 L1575.5,4050.6 L1561.7,4049.5 L1547.8,4049.2 L1501.4,4049.2 L1489.1,4048.5 L1477.0,4046.1 L1464.2,4041.1 L1448.8,4037.0 L1437.6,4036.0 L1404.7,4034.6 L1393.7,4032.6 L1379.7,4028.1 L1366.0,4024.6 L1352.7,4021.5 L1342.3,4017.3 L1329.7,4009.5 L1318.5,4001.1 L1307.6,3992.9 L1298.7,3988.7 L1291.9,3987.3 L1285.8,3987.7 L1279.3,3989.5 L1271.7,3993.4 L1265.7,4000.0 L1257.6,4007.9 L1248.6,4016.2 L1238.4,4021.8 L1225.5,4026.0 L1214.8,4028.6 L1201.9,4030.6 L1180.3,4033.1 L1126.1,4035.7 L1080.1,4038.0 L1060.3,4045.1 L1019.7,4046.5 L1014.2,4038.0 L1008.1,4034.1 L1001.8,4032.9 L958.0,4035.4 L939.0,4042.2 L915.7,4042.4 L900.0,4040.1 L887.1,4036.2 L840.0,4039.0 L715.4,4048.7 L686.7,4049.5 L676.9,4049.3 L668.1,4047.1 L657.9,4042.0 L650.4,4036.0 L618.0,4036.1 L590.9,4035.7 L583.6,4040.2 L546.3,4041.1 L541.5,4049.0 L536.2,4049.2 L527.0,4047.0 L510.5,4045.0 L493.5,4045.9 L488.3,4047.5 L483.0,4046.6 L479.4,4043.1 L473.3,4039.6 L450.6,4039.7 L427.7,4040.9 L406.0,4053.7 L395.3,4058.8 L383.1,4061.5 L373.0,4062.2 L363.9,4060.8 L342.9,4051.8 L330.9,4048.0 L320.7,4046.5 L276.0,4047.1 L273.2,4041.7 L233.7,4042.6 L206.5,4047.6 L188.6,4049.7 L179.0,4051.8 L175.3,4049.3 L168.5,4048.4 L104.8,4042.6 L99.3,4045.6 L92.6,4047.0 L83.8,4047.1 L83.8,4043.9 L44.3,4036.5 L19.4,4031.7 L-40.8,4011.5 L-44.1,4016.0 L-84.3,4003.6 L-92.7,4000.8 L-88.6,3986.8 L-93.4,3985.3 L-94.4,3983.8 L-97.0,3983.0 L-100.6,3982.5 L-105.0,3980.3 L-103.5,3979.0 L-121.3,3964.5 L-150.9,3937.7 L-166.8,3923.7 L-178.1,3911.4 L-184.4,3903.1 L-193.8,3890.3 L-199.2,3880.4 L-216.0,3859.3 L-217.6,3858.1 L-218.7,3858.0 L-219.9,3858.2 L-222.1,3858.3 L-224.1,3857.3 L-228.3,3854.6 L-236.9,3850.1 L-241.1,3846.5 L-246.0,3842.2 L-252.7,3838.6 L-263.2,3835.3 L-274.3,3833.3 L-283.8,3833.1 L-281.1,3807.9 L-278.9,3775.0 L-268.6,3776.0 L-258.3,3777.8 L-244.8,3781.8 L-234.9,3785.5 L-226.0,3789.6 L-217.4,3793.6 L-209.3,3798.2 L-202.7,3803.3 L-193.9,3810.1 L-184.7,3817.0 L-182.6,3818.3 L-180.7,3818.7 L-155.5,3817.6 L-155.2,3823.3 L-156.7,3825.8 L-175.6,3827.6 L-170.8,3837.4 L-167.5,3836.2 L-164.5,3839.2 L-162.6,3842.1 L-161.0,3844.3 L-157.1,3849.5 L-155.6,3855.2 L-149.5,3863.6 L-135.1,3872.7 L-117.2,3881.8 L-95.8,3895.3 L-86.0,3899.9 L-65.4,3911.6 L-55.7,3916.7 L-38.0,3923.2 L-3.2,3932.5 L17.2,3937.4 L35.8,3939.3 L45.7,3940.6 L47.9,3940.4 L48.8,3939.1 L49.1,3932.5 L72.2,3932.5 L72.7,3939.9 L121.1,3942.4 L168.3,3943.8 L200.4,3942.6 L211.0,3941.8 L218.7,3940.8 L225.0,3939.0 L230.8,3935.5 L233.7,3930.8 L232.6,3853.3 L252.1,3852.2 L253.8,3927.8 L254.9,3929.7 L258.8,3932.4 L263.3,3933.7 L366.7,3933.9 L366.2,3900.6 L374.3,3900.4 L377.7,3933.9 L441.5,3933.3 L441.5,3929.7 L447.8,3929.6 L448.0,3932.2 L873.5,3924.1 L904.3,3920.5 L941.9,3919.4 L977.5,3924.1 L989.4,3923.1 L998.1,3921.4 L1006.2,3918.5 L1016.7,3914.5 L1230.6,3910.7 L1230.5,3895.9 L1350.2,3893.8 L1350.3,3910.1 L1401.1,3911.9 L1405.0,3911.8 L1408.6,3911.5 L1413.3,3910.9 L1417.1,3909.9 L1420.8,3908.7 L1427.1,3905.7 L1430.0,3910.7 L1436.2,3906.8 L1441.9,3902.2 L1446.7,3897.2 L1450.9,3891.3 L1454.8,3884.0 L1447.5,3879.9 L1449.5,3873.8 L1450.8,3867.5 L1451.5,3861.5 L1451.6,3856.8 L1451.4,3852.4 L1450.7,3814.5 L1444.6,3808.9 L1449.8,3803.4 L1444.5,3798.8 L1450.5,3791.7 L1444.0,3786.0 L1449.2,3780.5 L1444.0,3775.5 L1450.1,3769.0 L1443.8,3762.6 L1456.9,3748.2 L1459.2,3748.1 L1453.5,3533.6 L1501.6,3532.5 L1503.9,3533.7 L1506.5,3535.7 L1508.4,3537.4 L1509.2,3539.4 L1509.9,3541.8 L1510.1,3544.2 L1514.2,3877.5 L1516.1,3888.3 L1518.8,3895.6 L1523.0,3904.6 L1527.9,3913.4 L1533.0,3920.4 L1537.1,3924.7 L1541.5,3928.1 L1546.6,3931.1 L1551.9,3933.1 L1559.1,3935.2 L1568.0,3936.9 L1578.8,3938.9 L1591.4,3941.2 L1603.4,3943.8 L1616.7,3946.2 L1629.3,3948.9 L1633.3,3949.7 L1638.2,3950.7 L1643.0,3951.3 L1647.2,3951.4 L1652.0,3951.4 L1655.7,3951.2 L1659.4,3950.5 L1662.6,3949.7 L1666.0,3948.7 L1668.9,3947.4 L1674.7,3944.6 L1679.8,3941.6 L1684.9,3937.9 L1690.8,3932.2 L1696.3,3926.0 L1699.3,3920.7 L1702.0,3914.2 L1703.4,3908.9 L1704.2,3903.2 L1704.7,3897.8 L1704.7,3892.8 L1697.4,3535.6 L1707.8,3524.9 L1711.6,3524.5 L1713.1,3523.1 L1734.8,3522.5 L1736.7,3519.3 L1740.0,3520.2 L1745.5,3525.3 L1749.3,3530.6 L1753.1,3537.2 L1760.3,3936.4 L1761.0,3943.4 L1762.3,3957.3 L1763.6,3960.1 L1762.6,3960.8 L1764.4,3964.7 L1766.7,3969.3 L1768.7,3972.2 L1771.1,3975.7 L1774.4,3979.5 L1778.3,3983.5 L1783.0,3987.5 L1787.2,3990.6 L1791.8,3993.1 L1796.2,3995.3 L1800.9,3996.8 L1801.5,3995.4 L1867.7,4019.4 L1876.0,4022.5 L1879.8,4023.9 L1885.7,4026.0 L1890.0,4027.0 L1893.7,4027.5 L1897.1,4027.5 L1901.9,4027.1 L1907.1,4026.6 L1911.7,4025.6 L1916.4,4024.3 L1919.9,4022.9 L1923.6,4021.2 L1926.6,4019.3 L1930.4,4016.5 L1935.2,4012.3 L1939.6,4008.0 L1944.4,4002.0 L1947.8,3996.4 L1950.6,3990.2 L1952.6,3983.3 L1953.8,3976.3 L1954.5,3963.8 L1954.2,3938.3 L1946.9,3532.2 L1946.9,3527.7 L1947.7,3524.5 L1949.1,3521.9 L1952.0,3519.5 L1955.3,3517.8 L1959.0,3517.2 L1989.1,3516.2 L1992.7,3516.8 L1995.9,3518.2 L1998.2,3520.4 L2000.8,3524.2 L2002.3,3529.6 L2003.2,3536.9 L2010.7,4057.8 L2011.1,4060.9 L2011.7,4064.0 L2012.6,4067.2 L2013.7,4070.7 L2014.9,4074.2 L2016.3,4077.4 L2017.5,4080.1 L2018.8,4082.5 L2020.7,4085.5 L2022.8,4088.1 L2024.7,4090.5 L2027.6,4093.6 L2030.4,4096.3 L2033.5,4098.8 L2036.8,4101.3 L2046.0,4107.1 L2046.9,4106.0 L2055.0,4110.5 L2064.6,4115.7 L2070.1,4118.7 L2076.2,4122.3 L2082.5,4126.0 L2089.0,4130.0 L2096.3,4134.5 L2103.5,4139.0 L2110.7,4143.3 L2116.7,4147.0 L2123.4,4151.3 L2130.5,4155.9 L2137.3,4160.4 L2143.6,4164.7 L2142.9,4165.6 L2151.7,4171.7 L2160.8,4177.8 L2163.6,4179.5 L2166.7,4181.2 L2171.1,4183.3 L2175.2,4184.8 L2179.6,4186.0 L2183.5,4187.0 L2188.1,4187.7 L2193.2,4188.3 L2197.6,4188.3 L2201.3,4188.0 L2204.5,4187.3 L2208.6,4186.2 L2212.7,4184.9 L2216.5,4183.6 L2220.0,4181.9 L2223.6,4180.0 L2227.1,4177.8 L2230.7,4175.0 L2233.9,4172.1 L2237.0,4169.0 L2239.9,4165.8 L2242.9,4161.4 L2245.4,4157.0 L2247.8,4152.1 L2249.2,4148.3 L2250.3,4144.3 L2251.1,4140.0 L2251.5,4135.7 L2251.2,4130.8 L2191.9,3563.1 L2196.0,3562.7 L2192.7,3534.3 L2189.7,3534.5 L2187.3,3521.4 L2188.1,3518.7 L2190.6,3514.7 L2195.7,3510.8 L2202.4,3510.0 L2229.3,3509.1 L2233.8,3510.0 L2236.9,3511.5 L2240.2,3514.1 L2242.5,3516.5 L2244.1,3519.0 L2309.1,4155.9 L2310.6,4161.4 L2313.4,4168.2 L2315.8,4172.6 L2318.4,4177.3 L2321.8,4181.9 L2324.6,4185.1 L2327.7,4188.3 L2331.1,4191.0 L2334.1,4193.1 L2338.3,4195.8 L2342.0,4197.7 L2346.9,4199.8 L2351.5,4201.2 L2356.7,4202.3 L2360.7,4202.9 L2364.2,4203.0 L2368.3,4203.1 L2509.5,4200.2 L2514.1,4199.6 L2518.5,4197.5 L2521.7,4194.6 L2523.9,4190.2 L2524.7,4186.2 L2524.5,4182.2 L2453.0,3500.1 L2390.0,3417.9 L2387.2,3420.2 L2332.4,3343.7 L2331.4,3327.5 L2329.7,3324.1 L2326.8,3321.0 L2323.1,3315.8 L2322.8,3308.2 L2316.3,3305.7 L2310.0,3305.6 L2301.5,3309.8 L2311.1,3327.8 L2299.0,3333.6 L2289.9,3325.2 L2282.1,3320.4 L2276.8,3318.6 L2263.8,3318.1 L2257.2,3304.7 L2298.7,3287.7 L2296.7,3284.3 L2287.9,3272.5 L2286.5,3273.2 L1977.6,2868.7 L1972.9,2802.0 L1975.4,2801.4 L1963.5,2679.1 L1958.9,2667.8 L1953.9,2655.1 L1950.1,2645.3 L1945.5,2632.8 L1930.5,2590.7 L1924.4,2593.4 L1915.5,2559.3 L1917.0,2559.0 L1885.9,2474.7 L1882.5,2327.3 L1886.1,2327.3 L1886.6,2314.4 L1888.4,2301.7 L1889.1,2297.0 L1887.8,2293.2 L1892.0,2273.1 L1930.3,2205.3 L1910.2,2193.1 L1925.1,2168.4 L1944.5,2179.8 L1946.2,2177.2 L1952.3,2180.3 L1958.9,2182.9 L1966.5,2185.3 L1972.2,2186.5 L1977.6,2186.7 L1984.0,2185.6 L1990.3,2183.5 L1996.5,2181.1 L1999.4,2178.0 L2000.5,2173.9 L2002.0,2169.0 L2002.3,2167.0 L2002.2,2164.5 L2000.8,2160.6 L1998.2,2156.9 L1995.2,2154.8 L1990.8,2150.6 L1987.0,2146.6 L1981.4,2143.0 L1979.1,2137.3 L1976.4,2131.6 L1972.1,2124.9 L1967.2,2119.1 L1958.2,2112.7 L1914.6,2090.1 L1888.8,2077.3 L1864.7,2064.3 L1841.8,2051.6 L1827.0,2042.0 L1821.3,2040.5 L1815.0,2042.4 L1811.5,2046.7 L1804.4,2064.4 L1760.3,2044.6 L1786.7,2002.9 L1792.5,2000.2 L1799.6,1998.8 L1807.9,2000.6 L1973.6,2097.5 L1982.6,2100.2 L1992.0,2102.5 L2005.3,2102.8 L2018.8,2100.4 L2027.4,2096.9 L2036.8,2089.3 L2042.3,2084.0 L2048.2,2075.7 L2048.1,2074.6 L2047.7,2073.6 L2046.8,2072.8 L1993.2,2039.7 L1991.9,2039.3 L1990.5,2039.2 L1989.1,2039.3 L1984.0,2041.5 L1982.1,2041.7 L1980.0,2041.5 L1976.9,2041.0 L1974.5,2040.3 L1971.1,2038.6 L1967.8,2036.7 L1894.1,1991.7 L1859.4,1967.3 L1856.1,1966.8 L1852.8,1966.9 L1848.9,1967.0 L1846.3,1966.6 L1844.1,1965.6 L1841.5,1963.6 L1838.6,1961.3 L1836.6,1958.5 L1835.4,1955.7 L1835.2,1953.6 L1835.5,1950.9 L1836.0,1948.6 L1847.8,1928.8 L1847.8,1927.9 L1846.9,1927.2 L1836.1,1919.6 L1834.0,1916.5 L1835.2,1914.6 L1838.7,1915.1 L1842.5,1916.2 L1864.7,1929.9 L1990.5,2010.2 L1993.1,2011.7 L1994.9,2013.6 L1996.1,2015.8 L1997.4,2020.4 L1998.3,2024.0 L1998.8,2027.1 L2055.6,2061.2 L2057.6,2062.1 L2060.0,2062.3 L2062.8,2061.9 L2064.8,2061.2 L2066.5,2060.4 L2127.6,1961.5 L2153.2,1923.9 L2177.1,1897.0 L2189.2,1903.7 L2197.0,1891.1 L2155.5,1866.3 L2164.3,1851.9 L2205.8,1876.9 L2215.1,1861.7 L2207.6,1853.3 L2215.2,1844.6 L2223.4,1854.0 L2225.4,1852.5 L2227.7,1850.9 L2230.9,1849.1 L2234.2,1847.5 L2238.3,1846.0 L2242.2,1844.9 L2246.4,1844.2 L2250.6,1843.9 L2254.6,1844.0 L2258.5,1844.6 L2262.2,1845.5 L2265.3,1846.4 L2268.0,1847.6 L2271.8,1849.4 L2275.3,1851.6 L2278.3,1853.7 L2281.3,1856.4 L2284.0,1859.0 L2287.0,1862.9 L2289.1,1866.4 L2291.2,1870.9 L2292.6,1875.4 L2293.8,1881.6 L2294.2,1887.0 L2294.1,1890.1 L2293.7,1893.3 L2292.6,1898.1 L2289.8,1904.7 L2288.0,1909.0 L2285.5,1914.1 L2295.9,1919.3 L2344.5,1861.3 L2256.0,1807.5 L2260.5,1797.9 L2263.7,1789.0 L2263.9,1785.2 L2269.0,1774.3 L2279.5,1764.6 L2292.5,1754.0 L2308.0,1744.1 L2337.1,1735.6 L2387.3,1730.6 L2407.1,1714.6 L2411.2,1713.9 L2414.5,1713.7 L2419.2,1715.5 L2423.5,1716.0 L2451.4,1732.9 L2524.8,1645.8 L2255.8,1474.8 L2239.1,1501.1 L2202.8,1478.1 L2254.3,1397.1 L2290.5,1419.5 L2274.4,1447.1 L2548.1,1619.6 L2582.6,1575.3 L2607.0,1546.3 L2639.2,1497.9 L2657.0,1473.5 L2655.2,1459.6 L2655.7,1459.2 L2652.5,1448.9 L2650.4,1442.5 L2648.4,1435.9 L2646.0,1430.2 L2641.4,1422.7 L2636.8,1415.4 L2634.8,1411.6 L2633.3,1407.8 L2632.2,1404.3 L2631.8,1401.2 L2631.3,1391.0 L2513.1,1282.5 L2509.2,1286.7 L2505.9,1283.9 L2496.3,1293.4 L2490.0,1285.0 L2497.6,1276.2 L2490.0,1266.5 L2484.8,1267.9 L2479.4,1268.1 L2474.5,1267.2 L2470.2,1265.4 L2465.2,1261.7 L2459.0,1255.6 L2448.1,1243.6 L2444.8,1238.5 L2443.6,1232.1 L2444.4,1224.5 L2447.3,1217.5 L2449.8,1212.7 L2454.6,1207.9 L2459.9,1204.3 L2465.0,1202.4 L2468.8,1201.8 L2473.8,1202.7 L2478.9,1204.5 L2483.7,1208.3 L2494.8,1218.3 L2500.5,1223.7 L2505.7,1229.4 L2507.4,1232.1 L2508.6,1235.0 L2509.3,1237.6 L2509.8,1241.2 L2509.2,1244.6 L2508.2,1247.8 L2506.8,1250.2 L2506.4,1251.3 L2506.7,1252.7 L2507.5,1254.1 L2634.4,1373.0 L2638.8,1376.0 L2641.9,1377.3 L2646.3,1376.3 L2651.5,1375.9 L2658.1,1378.7 L2664.7,1382.8 L2677.6,1390.1 L2683.0,1392.7 L2687.9,1387.9 L2693.3,1382.7 L2696.9,1378.6 L2702.9,1370.8 L2706.3,1366.1 L2709.9,1360.3 L2712.2,1355.2 L2714.7,1349.8 L2717.0,1344.1 L2719.1,1338.3 L2720.3,1333.4 L2721.7,1327.2 L2722.3,1323.5 L2722.7,1320.5 L2723.4,1315.2 L2724.1,1310.0 L2724.4,1306.6 L2724.6,1302.9 L2724.6,1298.6 L2724.4,1295.0 L2723.7,1290.0 L2722.9,1284.3 L2722.1,1279.0 L2721.6,1274.7 L2721.0,1271.5 L2720.3,1268.1 L2719.5,1264.7 L2718.3,1260.7 L2716.9,1256.7 L2715.8,1254.3 L2714.6,1251.9 L2712.9,1249.6 L2710.6,1246.3 L2708.1,1243.2 L2705.4,1240.6 L2702.0,1237.8 L2698.5,1235.6 L2695.0,1233.7 L2691.8,1232.5 L2689.6,1231.8 L2687.1,1231.5 L2684.1,1231.6 L2681.3,1232.2 L2679.1,1233.1 L2677.0,1234.6 L2675.5,1236.2 L2674.3,1237.7 L2673.4,1240.0 L2672.9,1242.5 L2673.0,1245.5 L2673.2,1249.0 L2673.2,1251.6 L2673.0,1254.2 L2672.6,1256.8 L2672.1,1259.1 L2671.2,1261.5 L2669.8,1264.1 L2668.1,1266.6 L2666.4,1268.9 L2664.7,1270.5 L2661.3,1273.2 L2658.5,1275.1 L2654.1,1276.4 L2651.5,1277.0 L2648.5,1277.4 L2645.8,1277.5 L2642.2,1277.3 L2639.6,1276.8 L2636.0,1276.0 L2631.0,1274.5 L2626.8,1272.9 L2623.7,1271.7 L2620.4,1269.9 L2617.5,1267.9 L2614.3,1265.4 L2611.8,1263.1 L2609.7,1261.0 L2607.5,1258.4 L2605.7,1256.0 L2604.0,1253.6 L2602.5,1250.9 L2600.9,1247.3 L2599.5,1244.0 L2598.1,1240.4 L2597.2,1237.6 L2596.5,1235.0 L2596.0,1232.3 L2595.6,1228.1 L2595.3,1224.4 L2595.5,1220.4 L2596.4,1215.1 L2597.9,1209.9 L2599.8,1204.5 L2601.1,1202.0 L2602.4,1200.5 L2612.7,1187.4 L2615.1,1184.7 L2618.2,1183.2 L2621.5,1182.0 L2625.2,1181.2 L2629.3,1180.7 L2632.9,1180.5 L2636.5,1180.6 L2640.1,1181.0 L2644.2,1182.2 L2648.5,1184.3 L2652.2,1186.6 L2655.5,1189.2 L2665.9,1198.8 L2668.4,1199.6 L2669.8,1199.9 L2671.5,1199.5 L2672.6,1199.1 L2674.0,1197.5 L2674.6,1195.9 L2674.7,1193.7 L2674.8,1191.7 L2674.4,1190.8 L2653.4,1170.0 L2682.0,1139.5 L2680.4,1135.9 L2696.9,1119.6 L2728.7,1151.4 L2703.1,1184.0 L2702.9,1185.9 L2704.2,1186.7 L2705.8,1186.3 L2733.9,1151.1 L2742.1,1141.2 L2742.4,1138.9 L2741.7,1136.9 L2740.2,1135.1 L2718.2,1114.3 L2723.7,1107.9 L2718.1,1103.2 L2721.3,1095.8 L2778.3,1038.5 L2797.9,1035.2 L2804.0,1034.3 L2809.8,1033.5 L2812.5,1032.8 L2815.7,1031.1 L2819.5,1029.0 L2822.4,1026.1 L2825.2,1022.6 L2854.3,980.3 L2854.9,979.2 L2854.6,977.8 L2854.2,976.8 L2853.5,975.9 L2850.0,973.7 L2849.1,973.2 L2848.3,973.3 L2847.4,973.8 L2845.5,975.2 L2821.1,998.0 L2811.6,1004.8 L2772.6,964.8 L2777.1,950.6 L2779.0,946.4 L2785.1,935.2 L2792.2,922.7 L2796.5,917.9 L2804.2,909.7 L2812.4,900.7 L2821.4,891.2 L2829.1,884.6 L2832.8,881.3 L2837.7,877.7 L2842.2,875.3 L2848.6,872.4 L2852.6,871.0 L2856.6,869.8 L2859.7,869.5 L2864.1,869.8 L2867.8,870.3 L2872.0,871.5 L2876.1,874.9 L2878.6,878.4 L2880.1,882.0 L2880.7,887.4 L2880.5,894.5 L2879.6,902.5 L2877.9,910.2 L2867.6,933.2 L2857.8,953.9 L2861.2,959.4 L2863.0,960.5 L2864.9,960.5 L2866.6,960.1 L2867.9,959.3 L2874.6,949.8 L2883.2,945.5 L2900.3,899.8 L2901.5,897.5 L2903.2,895.5 L2904.9,894.6 L2906.5,894.2 L2908.8,894.2 L2911.2,894.8 L2923.7,898.3 L2926.1,898.8 L2928.9,898.9 L2931.5,898.5 L2933.6,897.6 L2935.4,896.2 L2937.2,893.9 L2958.2,865.8 L2959.2,863.7 L2959.7,861.5 L2959.7,859.4 L2959.3,857.2 L2958.5,855.6 L2957.3,854.0 L2955.9,852.7 L2953.9,851.7 L2952.0,851.2 L2950.1,851.1 L2948.5,851.4 L2946.6,852.3 L2945.2,853.3 L2944.1,854.7 L2938.6,863.6 L2937.4,865.3 L2936.0,866.9 L2933.9,868.7 L2932.0,869.8 L2929.7,870.5 L2926.9,871.1 L2925.3,871.1 L2923.1,870.8 L2921.2,870.3 L2919.6,869.6 L2902.4,854.0 L2900.4,851.6 L2898.9,849.4 L2897.5,846.7 L2896.6,844.4 L2896.0,842.0 L2895.5,839.4 L2895.2,836.2 L2895.1,833.0 L2895.4,830.3 L2895.8,828.0 L2896.3,826.0 L2897.1,824.3 L2928.4,774.6 L2930.4,771.3 L2931.6,769.6 L2933.0,768.8 L2935.3,767.8 L2937.7,767.1 L2940.0,766.7 L2941.3,766.7 L2942.6,766.9 L2943.7,767.3 L2945.3,768.1 L2947.2,769.3 L2950.4,771.9 L2964.7,785.3 L2967.1,788.7 L2968.5,792.0 L2969.8,795.9 L2970.2,798.9 L2970.4,802.1 L2970.4,804.8 L2970.1,807.5 L2969.6,810.2 L2969.0,812.0 L2967.4,815.7 L2961.7,826.3 L2961.1,828.7 L2961.1,831.6 L2961.3,833.8 L2962.1,835.5 L2963.6,837.1 L2966.0,838.8 L2968.0,839.9 L2970.3,840.4 L2973.0,840.3 L2975.2,839.8 L2977.7,838.5 L2979.9,836.5 L3016.9,785.7 L3005.6,775.5 L3012.4,768.2 L3022.5,777.9 L3043.3,750.6 L3074.8,708.5 L2948.0,587.0 L2920.5,615.9 L2888.2,585.4 L2919.4,551.8 L2915.3,547.3 L2921.8,541.3 L2925.8,545.4 L2947.5,521.8 L2967.0,539.9 L2969.3,554.9 L3051.3,631.4 L3067.3,637.6 L3080.1,633.1 L3104.4,642.8 L3120.5,636.9 L3168.4,578.4 L3171.1,572.9 L3171.9,565.5 L3169.5,558.2 L3166.3,553.0 L3137.9,526.8 L3138.3,519.6 L3143.9,505.5 L3155.1,484.6 L3133.0,470.3 L3141.4,467.1 L3146.7,463.7 L3152.0,457.7 L3158.2,441.8 L3169.6,412.8 L3177.0,406.0 L3106.8,338.0 L3091.4,347.6 L3087.8,348.5 L3084.4,348.6 L3080.0,348.1 L3076.4,347.1 L3072.9,345.0 L3070.0,342.5 L3033.7,307.5 L3026.9,300.7 L3023.9,297.1 L3021.4,292.6 L3020.2,288.5 L3019.7,284.5 L3019.8,280.7 L3020.5,277.1 L3021.4,274.2 L3022.6,272.1 L3025.2,268.4 L3028.3,264.7 L3044.6,247.8 L3168.6,362.7 L3160.1,372.3 L3252.0,459.2 L3357.9,304.1 L3290.7,241.3 L3282.1,249.0 L3156.6,130.5 L3173.0,115.2 L3245.1,182.8 L3252.3,172.2 L3256.3,166.9 L3261.4,161.7 L3267.3,155.2 L3273.3,151.3 L3282.8,143.3 L3292.3,134.5 L3310.5,117.3 L3354.0,68.4 L3361.8,60.3 L3390.5,45.6 L3417.7,24.3 L3420.3,22.3 L3427.4,16.8 L3430.5,14.0 L3433.0,10.8 L3434.7,7.5 L3435.8,4.2 L3437.1,1.7 L3438.6,-1.0 L3441.2,-5.3 L3443.0,-8.0 L3444.8,-10.5 L3448.1,-13.1 L3451.3,-15.3 L3454.8,-17.4 L3463.1,-21.4 L3471.1,-25.4 L3472.3,-25.6 L3473.5,-25.4 L3475.9,-24.7 L3482.4,-21.4 L3487.3,-19.0 L3489.6,-17.6 L3491.7,-15.9 L3525.1,15.8 L3527.4,17.1 L3538.3,20.0 L3541.8,21.0 L3545.7,21.4 L3548.7,21.3 L3551.0,20.5 L3553.3,18.9 L3565.2,2.1 L3565.2,-0.2 L3564.8,-2.3 L3563.5,-4.6 L3561.5,-6.8 L3552.4,-15.3 L3553.1,-16.7 L3564.8,-41.5 L3584.8,-81.8 L3603.0,-95.2 L3613.5,-105.7 L3620.7,-114.0 L3628.3,-121.7 L3636.7,-128.6 L3641.8,-133.3 L3647.2,-138.2 L3651.2,-142.2 L3653.2,-145.8 L3654.8,-148.6 L3655.8,-151.3 L3656.2,-154.5 L3656.4,-157.7 L3662.5,-163.9 L3671.5,-172.4 L3686.5,-184.7 L3702.2,-196.6 L3709.2,-206.4 L3711.8,-216.5 L3719.6,-221.3 L3729.4,-221.5 L3739.3,-227.4 L3748.0,-243.1 L3747.8,-259.4 L3749.4,-284.6 L3751.9,-288.2 L3753.4,-290.6 L3756.2,-295.2 L3752.7,-305.9 L3756.7,-310.9 L3776.5,-335.4 L3810.5,-375.1 L3817.0,-384.5 L3819.6,-389.4 L3830.4,-404.3 L3833.4,-413.7 L3833.5,-428.2 L3833.1,-442.7 L3833.0,-457.5 L3837.4,-473.8 L3844.8,-489.9 L3855.4,-505.4 L3863.1,-516.9 L3872.2,-528.4 L3889.8,-548.0 L3967.8,-586.6 L3978.1,-589.3 L3980.7,-583.7 L3983.8,-578.3 L3984.8,-577.3 L3986.5,-578.0 L3986.8,-581.8 L3985.6,-585.0 L3989.9,-586.3 L4005.9,-591.0 L4026.7,-597.2 L4043.5,-602.2 L4049.5,-604.0 L4043.5,-622.9 L4053.9,-625.7 L4071.2,-628.1 L4073.3,-628.4 L4073.4,-629.6 L4073.4,-634.0 L4089.1,-634.7 L4113.7,-635.7 L4123.2,-631.1 L4146.9,-545.7 L4152.2,-540.6 L4141.9,-530.0 L4151.0,-521.0 L4160.0,-512.0 L4170.8,-523.0 L4371.3,-332.4 L4638.9,-618.0 L4732.4,-528.6 L4736.0,-529.7 L4737.4,-528.1 L4743.7,-532.1 L4748.9,-534.0 L4754.4,-536.5 L4763.8,-541.4 L4769.6,-544.7 L4776.5,-548.7 L4782.9,-552.7 L4788.1,-556.1 L4792.9,-559.2 L4798.5,-563.3 L4804.9,-568.0 L4809.8,-572.1 L4815.0,-576.7 L4820.7,-582.1 L4826.1,-587.5 L4838.7,-600.9 L4846.3,-610.0 L4853.7,-619.9 L4858.8,-627.1 L4863.6,-634.5 L4869.3,-644.8 L4874.3,-654.9 L4878.3,-663.2 L4881.7,-671.5 L4883.8,-677.0 L4886.1,-683.2 L4891.5,-689.9 L4720.5,-852.6 L4722.6,-854.9 L4743.1,-876.9 L4758.0,-892.7 L4759.5,-894.3 L4802.9,-853.7 L4813.4,-859.1 L4814.6,-857.6 L4916.6,-910.7 L4920.8,-912.9 L4923.7,-915.2 L4926.4,-917.7 L4929.5,-920.9 L4932.5,-925.4 L4935.1,-929.6 L4936.8,-932.8 L4938.0,-936.9 L4939.1,-941.4 L4939.6,-946.3 L4939.6,-951.8 L4939.2,-956.2 L4938.4,-960.1 L4937.1,-964.8 L4905.2,-1056.6 L4900.9,-1071.7 L4902.0,-1076.9 L4825.0,-1096.0 L4828.6,-1109.3 L4831.6,-1121.3 L4854.4,-1211.5 L4836.7,-1264.1 L4826.3,-1298.1 L4823.3,-1306.6 L4850.9,-1331.9 L4882.0,-1348.6 L4883.9,-1346.0 L4886.9,-1341.7 L4893.9,-1332.6 L4894.7,-1333.4 L4894.9,-1336.5 L4885.2,-1349.9 L4902.5,-1362.3 L4906.3,-1364.5 L4915.3,-1352.8 L4916.8,-1351.7 L4918.3,-1351.4 L4919.1,-1351.6 L4919.1,-1352.4 L4876.3,-1411.0 L4873.2,-1414.4 L4869.6,-1419.3 L4851.0,-1441.8 L4866.9,-1491.1 L4879.1,-1503.8 L4893.2,-1510.4 L4923.2,-1528.2 L4929.4,-1534.6 L4956.3,-1558.2 L4964.8,-1549.3 L4989.7,-1522.4 L5012.8,-1541.8 L5028.3,-1526.9 L5042.2,-1513.3 L5042.9,-1512.6 L5054.7,-1522.7 L5070.3,-1506.1 L5083.7,-1488.9 L5093.6,-1477.4 L5094.9,-1475.9 L5123.7,-1501.2 L5125.2,-1502.5 L5118.4,-1510.8 L5134.1,-1523.7 L5181.7,-1468.2 L5222.2,-1494.9 L5226.2,-1498.7 L5243.8,-1506.1 L5247.8,-1510.0 L5251.6,-1515.0 L5273.3,-1534.3 L5268.4,-1541.0 L5229.6,-1532.1 L5185.2,-1582.6 L5190.3,-1587.0 L5197.0,-1579.2 L5228.4,-1606.2 L5261.7,-1569.8 L5270.7,-1566.2 L5276.1,-1563.1 L5282.9,-1555.4 L5286.6,-1558.7 L5262.5,-1586.1 L5277.3,-1598.9 L5307.2,-1563.0 L5311.0,-1565.8 L5310.6,-1566.6 L5376.2,-1614.0 L5395.7,-1628.4 L5332.0,-1708.0 L5345.6,-1717.5 L5401.0,-1652.6 L5441.9,-1645.1 L5468.9,-1660.9 L5472.7,-1663.3 L5472.5,-1666.3 L5470.6,-1669.8 L5491.7,-1683.1 L5497.9,-1676.9 L5515.7,-1687.4 L5502.8,-1703.4 L5440.5,-1786.7 L5484.5,-1832.3 L5513.4,-1875.0 L5514.1,-1908.4 L5498.7,-1952.8 L5531.1,-1979.8 L5565.1,-1992.9 L5576.3,-1995.5 L5585.3,-1996.7 L5596.3,-1996.0 L5607.7,-1993.2 L5624.2,-1979.1 L5667.0,-1926.9 L5701.2,-1883.5 L5742.1,-1856.2 L5758.2,-1853.6 L5772.6,-1851.9 L5784.8,-1851.4 L5800.4,-1852.5 L5817.3,-1855.3 L5831.0,-1859.2 L5842.6,-1864.6 L5850.3,-1869.1 L5856.0,-1875.1 L5865.6,-1886.7 L5876.0,-1905.7 L5887.3,-1930.9 L5907.4,-1920.6 L5915.4,-1917.9 L5924.0,-1916.7 L5937.7,-1917.6 L5946.8,-1920.3 L5957.2,-1924.8 L5966.9,-1930.4 L5977.2,-1940.4 L5986.0,-1948.4 L5997.0,-1955.9 L6004.6,-1960.8 L6015.8,-1964.8 L6035.1,-1970.4 L6046.5,-1973.6 L6058.7,-1978.2 L6069.3,-1983.7 L6075.6,-1987.3 L6080.6,-1992.5 L6146.0,-2025.3 L6148.5,-2026.7 L6151.4,-2028.5 L6154.4,-2030.8 L6158.8,-2033.3 L6161.7,-2034.7 L6164.8,-2037.4 L6167.2,-2039.9 L6170.4,-2042.0 L6173.8,-2044.4 L6178.3,-2048.6 L6184.7,-2049.1 L6191.3,-2049.9 L6195.6,-2051.3 L6201.2,-2053.9 L6208.1,-2057.0 L6215.4,-2061.5 L6219.5,-2065.4 L6224.1,-2070.7 L6227.0,-2075.6 L6228.6,-2080.1 L6228.7,-2083.3 L6228.8,-2085.9 L6230.4,-2096.3 L6266.8,-2117.4 L6330.6,-2154.2 L6343.0,-2161.3 L6451.2,-2223.7 L6568.4,-2291.0 L6618.3,-2319.6 L6635.6,-2329.3 L6780.5,-2413.5 L6812.7,-2431.2 L6812.2,-2432.3 L6878.5,-2469.8 L6904.0,-2484.1 L6951.0,-2510.1 L6951.5,-2509.4 L6969.7,-2519.4 L7013.9,-2544.1 L7019.2,-2548.9 L7064.0,-2581.7 L7086.3,-2600.2 L7106.8,-2617.5 L7116.2,-2622.8 L7137.4,-2643.8 L7139.2,-2642.7 L7142.0,-2643.0 L7143.4,-2642.1 L7173.2,-2677.0 L7165.7,-2684.0 L7166.7,-2685.8 L7169.9,-2690.4 L7178.5,-2701.3 L7183.7,-2709.2 L7187.8,-2715.7 L7193.5,-2724.4 L7199.0,-2733.4 L7205.2,-2743.7 L7211.6,-2754.9 L7225.5,-2783.6 L7229.8,-2792.7 L7233.3,-2800.0 L7235.7,-2805.5 L7237.8,-2809.7 L7242.2,-2820.7 L7126.4,-3036.7 L7124.2,-3040.8 L7122.5,-3043.1 L7121.3,-3044.8 L7119.7,-3046.2 L7118.2,-3047.2 L7116.2,-3048.4 L7114.1,-3049.2 L7112.3,-3049.6 L7110.5,-3049.8 L7107.8,-3049.8 L7104.7,-3049.3 L7102.0,-3048.5 L7099.2,-3047.1 L7072.3,-3031.6 L7037.2,-3011.5 L7012.7,-2997.9 L6968.0,-2973.3 L6940.6,-2958.4 L6941.6,-2956.7 L6929.9,-2950.0 L6891.6,-2930.2 L6863.2,-2913.4 L6846.5,-2904.1 L6821.1,-2889.5 L6818.2,-2887.5 L6795.9,-2927.6 L6839.7,-2951.6 L6899.5,-2984.1 L6940.2,-3006.7 L6945.2,-3009.6 L6944.5,-3010.7 L6979.7,-3029.9 L6998.4,-3040.2 L7041.3,-3061.1 L7049.5,-3065.3 L7114.2,-3101.3 L7138.5,-3114.7 L7155.6,-3123.9 L7175.8,-3135.5 L7203.8,-3084.9 L7159.8,-3060.8 L7157.5,-3057.1 L7156.6,-3053.2 L7156.2,-3050.2 L7156.1,-3047.6 L7156.3,-3045.5 L7157.1,-3042.6 L7246.8,-2876.7 L7248.5,-2874.2 L7250.5,-2872.3 L7252.5,-2871.0 L7254.6,-2870.3 L7256.9,-2870.0 L7259.1,-2870.2 L7260.8,-2870.7 L7300.6,-2900.9 L7319.3,-2916.6 L7338.6,-2932.9 L7345.9,-2939.6 L7369.8,-2959.2 L7370.9,-2959.2 L7394.1,-2979.0 L7394.2,-2980.2 L7409.4,-2992.7 L7421.4,-3002.5 L7442.0,-3019.5 L7443.9,-3017.2 L7464.1,-3033.9 L7474.3,-3042.4 L7502.6,-3065.9 L7522.3,-3082.3 L7520.4,-3085.1 L7526.9,-3090.6 L7537.6,-3099.4 L7544.2,-3105.2 L7572.1,-3117.7 L7591.0,-3124.3 L7600.7,-3128.9 L7627.9,-3129.1 L7637.4,-3129.1 L7657.5,-3128.1 L7681.0,-3127.1 L7682.7,-3128.7 L7685.0,-3125.7 L7692.4,-3125.3 L7759.7,-3119.5 L7767.6,-3117.8 L7774.5,-3116.7 L7790.1,-3115.4 L7819.2,-3114.0 L7825.6,-3113.9 L7831.6,-3114.1 L7854.9,-3115.0 L7866.9,-3115.6 L7878.8,-3116.7 L7897.1,-3118.6 L7897.0,-3117.5 L7911.5,-3120.0 L7925.2,-3122.6 L7935.7,-3124.5 L7949.5,-3134.9 L7951.1,-3132.7 L7952.8,-3130.3 L8074.4,-2969.5 L8367.9,-2868.3 L8906.5,-3263.9 L9053.3,-3369.6 L9110.0,-3490.6 L9019.8,-3608.8 L9023.8,-3625.7 L9039.6,-3630.0 L9070.0,-3623.7 L9091.6,-3631.8 L9097.6,-3640.2 L9096.3,-3647.5 L9080.2,-3679.1 L9079.1,-3690.9 L9078.2,-3714.3 L9075.4,-3736.9 L9078.2,-3740.9 L9087.3,-3745.3 L9098.4,-3747.8 L9106.4,-3756.4 L9108.2,-3766.8 L9101.4,-3786.9 L9100.7,-3800.8 L9102.9,-3816.6 L9113.9,-3844.3 L9111.6,-3857.1 L9106.1,-3871.4 L9105.9,-3890.8 L9102.7,-3916.4 L9096.9,-3932.4 L9093.3,-3940.8 L9095.7,-3944.5 L9098.0,-3944.3 L9098.6,-3945.8 L9098.9,-3947.8 L9098.8,-3949.8 L9095.3,-3950.2 L9093.1,-3953.3 L9093.5,-3957.0 L9090.5,-3957.8 L9086.8,-3957.9 L9086.3,-3957.0 L9078.7,-3966.0 L9077.1,-3968.8 L9075.8,-3972.7 L9074.9,-3976.5 L9074.2,-3980.5 L9073.9,-3984.5 L9073.7,-3988.1 L9073.7,-3991.8 L9074.0,-3993.8 L9075.6,-3998.8 L9077.4,-4002.8 L9079.7,-4006.7 L9083.1,-4011.6 L9086.6,-4016.3 L9089.9,-4019.7 L9094.0,-4022.8 L9094.8,-4022.0 L9129.9,-4048.8 L9135.0,-4052.7 L9134.0,-4054.2 L9134.0,-4056.8 L9142.7,-4063.6 L9144.9,-4063.5 L9147.0,-4062.0 L9150.7,-4064.8 L9186.7,-4092.1 L9186.3,-4093.0 L9190.5,-4096.1 L9195.5,-4099.2 L9199.0,-4100.8 L9204.0,-4102.7 L9208.3,-4103.9 L9212.6,-4104.5 L9217.3,-4104.9 L9220.1,-4104.7 L9224.0,-4104.1 L9227.8,-4102.8 L9230.6,-4101.4 L9233.3,-4099.8 L9235.3,-4098.3 L9237.0,-4096.7 L9239.5,-4094.3 L9240.6,-4093.9 L9242.4,-4093.9 L9244.2,-4094.2 L9249.7,-4098.1 L9249.7,-4099.2 L9250.3,-4100.0 L9250.9,-4101.1 L9250.8,-4102.4 L9250.5,-4103.5 L9249.7,-4104.5 L9245.8,-4108.4 L9242.7,-4110.9 L9239.1,-4112.9 L9233.2,-4115.5 L9228.1,-4117.5 L9237.0,-4122.1 L9247.9,-4129.7 L9261.4,-4131.4 L9274.9,-4130.5 L9283.7,-4134.0 L9291.4,-4145.0 L9320.4,-4196.9 L9332.2,-4218.3 L9341.5,-4241.1 L9343.1,-4245.9 L9356.9,-4288.2 L9359.1,-4292.3 L9361.7,-4296.4 L9394.1,-4336.5 L9401.0,-4343.7 L9406.1,-4348.1 L9478.7,-4410.3 L9482.7,-4413.0 L9495.1,-4419.8 L9510.0,-4428.2 L9556.4,-4452.5 L9657.5,-4506.8 L9659.9,-4504.9 L9661.8,-4504.2 L9663.5,-4503.7 L9665.3,-4504.0 L9667.2,-4504.4 L9672.6,-4505.5 L9678.9,-4506.9 L9684.6,-4508.2 L9690.5,-4509.3 L9693.7,-4510.0 L9698.1,-4511.3 L9703.1,-4513.4 L9715.2,-4520.0 L9719.6,-4522.4 L9721.9,-4523.8 L9724.2,-4524.8 L9733.6,-4528.8 L9743.9,-4532.8 L9756.9,-4538.4 L9772.2,-4544.7 L9772.8,-4545.0 L9774.1,-4545.1 L9775.8,-4545.6 L9778.2,-4547.4 L9780.9,-4548.4 L9783.9,-4549.9 L9789.5,-4553.1 L9791.5,-4555.1 L9794.8,-4557.2 L9794.5,-4557.8 L9795.9,-4559.5 L9797.7,-4561.4 L9800.7,-4562.9 L9803.2,-4563.9 L9805.9,-4564.9 L9808.4,-4566.2 L9813.3,-4569.3 L9814.7,-4570.7 L9816.1,-4572.9 L9816.7,-4574.5 L9816.9,-4576.1 L9816.7,-4577.6 L9817.0,-4579.1 L9803.0,-4596.0 L9847.1,-4621.9 L9868.0,-4633.0 L9872.1,-4634.3 L9878.5,-4633.1 L9885.6,-4623.2 L9888.8,-4620.4 L9891.7,-4619.0 L9894.4,-4618.4 L9896.9,-4618.5 L9934.7,-4634.1 L9945.0,-4639.1 L9954.6,-4644.4 L9970.1,-4652.6 L9973.3,-4653.7 L10188.1,-4743.0 L10255.3,-4775.3 L10555.8,-4919.6 L17568.9,-4977.6 L17568.9,5058.0 L2581.2,5058.0 L2581.2,4631.5 Z" fill="#add7e1" stroke="none"><title>Biscayne Bay</title></path><path d="M87.3,82.1 L48.3,84.1 L47.0,58.0 L85.9,55.9 L87.3,82.1 Z" fill="#d6d2c9" stroke="#bab6ad" stroke-width="0.4"></path><path d="M189.9,194.7 L190.1,200.2 L206.6,199.6 L206.9,206.9 L205.1,207.0 L205.6,219.1 L200.9,219.2 L201.5,233.9 L171.4,235.2 L170.8,220.8 L184.0,220.3 L183.6,211.3 L179.1,211.5 L179.0,208.2 L167.6,208.6 L167.1,195.6 L189.9,194.7 Z" fill="#d6d2c9" stroke="#bab6ad" stroke-width="0.4"></path><path d="M136.8,197.0 L137.2,204.4 L126.9,204.9 L126.5,197.5 L118.3,197.9 L117.7,186.4 L120.5,186.3 L120.4,183.1 L130.8,182.5 L130.2,172.5 L143.3,171.8 L144.6,196.5 L136.8,197.0 Z" fill="#d6d2c9" stroke="#bab6ad" stroke-width="0.4"></path><path d="M170.8,167.4 L171.2,173.8 L207.6,171.8 L208.1,180.5 L199.8,181.0 L200.2,189.1 L151.0,191.8 L150.0,173.3 L160.1,172.6 L159.8,168.0 L170.8,167.4 Z" fill="#d6d2c9" stroke="#bab6ad" stroke-width="0.4"></path><path d="M53.1,178.9 L54.6,214.8 L48.5,215.0 L42.4,215.3 L41.9,203.7 L36.2,203.9 L35.2,179.7 L53.1,178.9 Z" fill="#d6d2c9" stroke="#bab6ad" stroke-width="0.4"></path><path d="M207.9,244.4 L209.1,275.5 L200.0,275.9 L190.8,276.2 L190.5,268.3 L180.0,268.7 L179.6,257.1 L179.1,245.5 L207.9,244.4 Z" fill="#d6d2c9" stroke="#bab6ad" stroke-width="0.4"></path><path d="M76.6,225.8 L68.9,226.1 L67.6,190.7 L110.0,189.1 L110.3,197.2 L110.6,205.3 L80.6,206.5 L84.4,225.5 L76.6,225.8 Z" fill="#d6d2c9" stroke="#bab6ad" stroke-width="0.4"></path><path d="M-7.6,174.9 L3.1,184.0 L10.2,175.5 L23.5,186.9 L14.8,197.3 L22.9,204.2 L9.8,219.8 L-22.4,192.5 L-7.6,174.9 Z" fill="#d6d2c9" stroke="#bab6ad" stroke-width="0.4"></path><path d="M289.2,161.7 L290.4,193.5 L277.8,194.1 L277.6,191.4 L254.0,192.3 L253.5,178.7 L258.4,178.5 L258.4,176.9 L268.0,176.5 L267.6,164.3 L278.1,163.9 L278.0,162.2 L289.2,161.7 Z" fill="#d6d2c9" stroke="#bab6ad" stroke-width="0.4"></path><path d="M253.7,27.6 L255.1,30.5 L257.2,29.5 L261.5,38.0 L248.6,44.6 L238.9,25.5 L263.9,12.8 L265.8,21.4 L253.7,27.6 Z" fill="#d6d2c9" stroke="#bab6ad" stroke-width="0.4"></path><path d="M187.1,70.3 L188.7,111.0 L180.0,111.4 L171.3,111.7 L171.1,108.1 L165.4,108.3 L164.0,71.3 L175.6,70.8 L187.1,70.3 Z" fill="#d6d2c9" stroke="#bab6ad" stroke-width="0.4"></path><path d="M19.3,80.9 L7.6,81.3 L7.5,77.3 L7.4,73.3 L19.0,72.8 L19.2,76.8 L19.3,80.9 Z" fill="#d6d2c9" stroke="#bab6ad" stroke-width="0.4"></path><path d="M230.6,33.1 L249.1,61.3 L242.5,65.7 L233.7,52.4 L224.6,58.4 L218.9,49.8 L224.7,45.9 L220.6,39.7 L230.6,33.1 Z" fill="#d6d2c9" stroke="#bab6ad" stroke-width="0.4"></path><path d="M160.8,29.4 L161.6,41.5 L174.3,40.6 L175.0,51.8 L150.7,53.4 L149.2,30.2 L160.8,29.4 Z" fill="#d6d2c9" stroke="#bab6ad" stroke-width="0.4"></path><path d="M203.8,83.4 L204.9,100.2 L215.0,99.6 L215.7,110.1 L205.6,110.7 L206.1,117.7 L197.5,118.3 L195.4,83.9 L203.8,83.4 Z" fill="#d6d2c9" stroke="#bab6ad" stroke-width="0.4"></path><path d="M240.9,2.0 L227.0,15.3 L213.7,1.2 L221.5,-6.3 L210.4,-18.0 L216.5,-23.8 L240.9,2.0 Z" fill="#d6d2c9" stroke="#bab6ad" stroke-width="0.4"></path><path d="M162.3,11.5 L150.9,11.9 L149.8,-13.0 L174.0,-14.0 L174.5,-2.4 L161.7,-1.8 L162.3,11.5 Z" fill="#d6d2c9" stroke="#bab6ad" stroke-width="0.4"></path><path d="M64.2,-48.7 L69.5,-45.3 L74.6,-41.2 L77.4,-38.5 L79.8,-35.8 L82.0,-32.5 L83.2,-30.9 L86.1,-25.4 L88.5,-19.6 L90.5,-13.4 L95.1,1.3 L98.7,133.9 L99.2,152.3" fill="none" stroke="#cec8bb" stroke-width="3.5" stroke-linecap="round" stroke-linejoin="round"/><path d="M64.2,-48.7 L69.5,-45.3 L74.6,-41.2 L77.4,-38.5 L79.8,-35.8 L82.0,-32.5 L83.2,-30.9 L86.1,-25.4 L88.5,-19.6 L90.5,-13.4 L95.1,1.3 L98.7,133.9 L99.2,152.3" fill="none" stroke="#ffffff" stroke-width="2.5" stroke-linecap="round" stroke-linejoin="round"></path><path d="M95.1,1.3 L102.5,-3.9 L104.7,-10.0 L106.6,-14.2 L112.2,-23.2 L114.9,-27.1 L116.8,-30.8 L118.0,-34.2 L118.7,-38.6 L118.8,-43.5 L118.7,-48.9" fill="none" stroke="#cec8bb" stroke-width="3.5" stroke-linecap="round" stroke-linejoin="round"/><path d="M95.1,1.3 L102.5,-3.9 L104.7,-10.0 L106.6,-14.2 L112.2,-23.2 L114.9,-27.1 L116.8,-30.8 L118.0,-34.2 L118.7,-38.6 L118.8,-43.5 L118.7,-48.9" fill="none" stroke="#ffffff" stroke-width="2.5" stroke-linecap="round" stroke-linejoin="round"></path><path d="M64.0,-2.8 L64.6,43.5" fill="none" stroke="#cec8bb" stroke-width="3.5" stroke-linecap="round" stroke-linejoin="round"/><path d="M64.0,-2.8 L64.6,43.5" fill="none" stroke="#ffffff" stroke-width="2.5" stroke-linecap="round" stroke-linejoin="round"></path><path d="M64.6,43.5 L26.0,55.3 L-0.4,65.1 L-15.4,73.3 L-19.7,73.9" fill="none" stroke="#cec8bb" stroke-width="3.5" stroke-linecap="round" stroke-linejoin="round"/><path d="M64.6,43.5 L26.0,55.3 L-0.4,65.1 L-15.4,73.3 L-19.7,73.9" fill="none" stroke="#ffffff" stroke-width="2.5" stroke-linecap="round" stroke-linejoin="round"></path><path d="M26.0,55.3 L22.6,-31.4" fill="none" stroke="#cec8bb" stroke-width="3.5" stroke-linecap="round" stroke-linejoin="round"/><path d="M26.0,55.3 L22.6,-31.4" fill="none" stroke="#ffffff" stroke-width="2.5" stroke-linecap="round" stroke-linejoin="round"></path><path d="M304.9,38.9 L298.6,41.9 L293.8,45.4 L290.2,49.0 L285.0,56.3 L278.3,65.8 L274.4,72.0 L269.7,79.6 L265.6,86.2 L258.6,97.9 L252.9,107.7 L245.4,120.0 L240.2,128.2 L237.1,132.9 L234.8,136.7 L233.0,140.5 L231.4,145.0 L230.3,151.1" fill="none" stroke="#cec8bb" stroke-width="4.8" stroke-linecap="round" stroke-linejoin="round"/><path d="M304.9,38.9 L298.6,41.9 L293.8,45.4 L290.2,49.0 L285.0,56.3 L278.3,65.8 L274.4,72.0 L269.7,79.6 L265.6,86.2 L258.6,97.9 L252.9,107.7 L245.4,120.0 L240.2,128.2 L237.1,132.9 L234.8,136.7 L233.0,140.5 L231.4,145.0 L230.3,151.1" fill="none" stroke="#ffffff" stroke-width="3.7" stroke-linecap="round" stroke-linejoin="round"><title>Kumquat Avenue</title></path><path d="M454.9,221.2 L261.1,228.3 L239.2,229.1" fill="none" stroke="#cec8bb" stroke-width="4.8" stroke-linecap="round" stroke-linejoin="round"/><path d="M454.9,221.2 L261.1,228.3 L239.2,229.1" fill="none" stroke="#ffffff" stroke-width="3.7" stroke-linecap="round" stroke-linejoin="round"><title>Loquat Avenue</title></path><path d="M230.3,151.1 L217.0,149.0 L211.4,148.5 L201.6,148.1 L190.6,148.1 L99.2,152.3 L-4.9,156.8 L-72.9,160.3" fill="none" stroke="#cec8bb" stroke-width="4.8" stroke-linecap="round" stroke-linejoin="round"/><path d="M230.3,151.1 L217.0,149.0 L211.4,148.5 L201.6,148.1 L190.6,148.1 L99.2,152.3 L-4.9,156.8 L-72.9,160.3" fill="none" stroke="#ffffff" stroke-width="3.7" stroke-linecap="round" stroke-linejoin="round"><title>Loquat Avenue</title></path><path d="M-58.7,183.5 L-47.0,203.6 L-38.2,219.1 L-21.1,251.1 L1.3,290.5 L9.7,304.6" fill="none" stroke="#cec8bb" stroke-width="4.8" stroke-linecap="round" stroke-linejoin="round"/><path d="M-58.7,183.5 L-47.0,203.6 L-38.2,219.1 L-21.1,251.1 L1.3,290.5 L9.7,304.6" fill="none" stroke="#ffffff" stroke-width="3.7" stroke-linecap="round" stroke-linejoin="round"><title>Justison Road</title></path><path d="M230.3,151.1 L230.5,157.9 L231.1,163.7 L232.0,169.1 L233.5,175.1 L235.1,181.5 L236.5,188.6 L237.4,194.3 L237.8,198.7 L238.1,202.5 L239.2,229.1 L243.7,328.6" fill="none" stroke="#cec8bb" stroke-width="4.8" stroke-linecap="round" stroke-linejoin="round"/><path d="M230.3,151.1 L230.5,157.9 L231.1,163.7 L232.0,169.1 L233.5,175.1 L235.1,181.5 L236.5,188.6 L237.4,194.3 L237.8,198.7 L238.1,202.5 L239.2,229.1 L243.7,328.6" fill="none" stroke="#ffffff" stroke-width="3.7" stroke-linecap="round" stroke-linejoin="round"><title>Solana Road</title></path><text x="52.1" y="37.0" text-anchor="middle" font-family="Arial, sans-serif" font-size="8" font-weight="600" paint-order="stroke" stroke="#edf5ec" stroke-width="1.9" stroke-linejoin="round" fill="#5c806b" textLength="92.2" lengthAdjust="spacing">Carver High School</text><text x="144.9" y="150.2" transform="rotate(-2.6 144.9 150.2)" text-anchor="middle" dominant-baseline="central" font-family="Arial, sans-serif" font-size="8.3" textLength="69.1" lengthAdjust="spacing" font-weight="650" paint-order="stroke" stroke="#fffaf0" stroke-width="2.05" stroke-linejoin="round" fill="#695f54">Loquat Avenue</text><text x="188.1" y="212.0" text-anchor="middle" font-family="Arial, sans-serif" font-size="6.5" textLength="18.0" lengthAdjust="spacing" font-weight="500" paint-order="stroke" stroke="#f3f5ee" stroke-width="1.55" stroke-linejoin="round" fill="#6f777a">3504</text><text x="129.4" y="190.1" text-anchor="middle" font-family="Arial, sans-serif" font-size="6.5" textLength="18.0" lengthAdjust="spacing" font-weight="500" paint-order="stroke" stroke="#f3f5ee" stroke-width="1.55" stroke-linejoin="round" fill="#6f777a">4050</text><text x="177.8" y="176.9" text-anchor="middle" font-family="Arial, sans-serif" font-size="6.5" textLength="18.0" lengthAdjust="spacing" font-weight="500" paint-order="stroke" stroke="#f3f5ee" stroke-width="1.55" stroke-linejoin="round" fill="#6f777a">3500</text><text x="44.6" y="201.6" text-anchor="middle" font-family="Arial, sans-serif" font-size="6.5" textLength="18.0" lengthAdjust="spacing" font-weight="500" paint-order="stroke" stroke="#f3f5ee" stroke-width="1.55" stroke-linejoin="round" fill="#6f777a">4064</text><text x="88.6" y="208.2" text-anchor="middle" font-family="Arial, sans-serif" font-size="6.5" textLength="18.0" lengthAdjust="spacing" font-weight="500" paint-order="stroke" stroke="#f3f5ee" stroke-width="1.55" stroke-linejoin="round" fill="#6f777a">4060</text><text x="15.0" y="191.9" text-anchor="middle" font-family="Arial, sans-serif" font-size="6.5" textLength="18.0" lengthAdjust="spacing" font-weight="500" paint-order="stroke" stroke="#f3f5ee" stroke-width="1.55" stroke-linejoin="round" fill="#6f777a">3601</text><text x="241.0" y="28.7" text-anchor="middle" font-family="Arial, sans-serif" font-size="6.5" textLength="18.0" lengthAdjust="spacing" font-weight="500" paint-order="stroke" stroke="#f3f5ee" stroke-width="1.55" stroke-linejoin="round" fill="#6f777a">4004</text><text x="175.4" y="95.4" text-anchor="middle" font-family="Arial, sans-serif" font-size="6.5" textLength="18.0" lengthAdjust="spacing" font-weight="500" paint-order="stroke" stroke="#f3f5ee" stroke-width="1.55" stroke-linejoin="round" fill="#6f777a">4005</text><text x="230.6" y="50.8" text-anchor="middle" font-family="Arial, sans-serif" font-size="6.5" textLength="18.0" lengthAdjust="spacing" font-weight="500" paint-order="stroke" stroke="#f3f5ee" stroke-width="1.55" stroke-linejoin="round" fill="#6f777a">4007</text><text x="161.9" y="41.1" text-anchor="middle" font-family="Arial, sans-serif" font-size="6.5" textLength="18.0" lengthAdjust="spacing" font-weight="500" paint-order="stroke" stroke="#f3f5ee" stroke-width="1.55" stroke-linejoin="round" fill="#6f777a">4010</text><text x="205.5" y="103.0" text-anchor="middle" font-family="Arial, sans-serif" font-size="6.5" textLength="18.0" lengthAdjust="spacing" font-weight="500" paint-order="stroke" stroke="#f3f5ee" stroke-width="1.55" stroke-linejoin="round" fill="#6f777a">4012</text></svg>