<svg xmlns="http://www.w3.org/2000/svg" width="256" height="256" viewBox="0 0 256 256"><rect width="256" height="256" fill="#f1efe7"/><path d="M2581.2,1559.5 L2037.0,1157.8 L1993.5,1125.8 L1946.3,1115.5 L1913.0,1087.5 L1886.4,1084.4 L1800.4,1090.1 L1800.5,1082.0 L1795.7,1074.4 L1786.1,1068.5 L1599.3,987.6 L1586.6,981.8 L1575.5,978.6 L1561.7,977.5 L1547.8,977.2 L1501.4,977.2 L1489.1,976.5 L1477.0,974.1 L1464.2,969.1 L1448.8,965.0 L1437.6,964.0 L1404.7,962.6 L1393.7,960.6 L1379.7,956.1 L1366.0,952.6 L1352.7,949.5 L1342.3,945.3 L1329.7,937.5 L1318.5,929.1 L1307.6,920.9 L1298.7,916.7 L1291.9,915.3 L1285.8,915.7 L1279.3,917.5 L1271.7,921.4 L1265.7,928.0 L1257.6,935.9 L1248.6,944.2 L1238.4,949.8 L1225.5,954.0 L1214.8,956.6 L1201.9,958.6 L1180.3,961.1 L1126.1,963.7 L1080.1,966.0 L1060.3,973.1 L1019.7,974.5 L1014.2,966.0 L1008.1,962.1 L1001.8,960.9 L958.0,963.4 L939.0,970.2 L915.7,970.4 L900.0,968.1 L887.1,964.2 L840.0,967.0 L715.4,976.7 L686.7,977.5 L676.9,977.3 L668.1,975.1 L657.9,970.0 L650.4,964.0 L618.0,964.1 L590.9,963.7 L583.6,968.2 L546.3,969.1 L541.5,977.0 L536.2,977.2 L527.0,975.0 L510.5,973.0 L493.5,973.9 L488.3,975.5 L483.0,974.6 L479.4,971.1 L473.3,967.6 L450.6,967.7 L427.7,968.9 L406.0,981.7 L395.3,986.8 L383.1,989.5 L373.0,990.2 L363.9,988.8 L342.9,979.8 L330.9,976.0 L320.7,974.5 L276.0,975.1 L273.2,969.7 L233.7,970.6 L206.5,975.6 L188.6,977.7 L179.0,979.8 L175.3,977.3 L168.5,976.4 L104.8,970.6 L99.3,973.6 L92.6,975.0 L83.8,975.1 L83.8,971.9 L44.3,964.5 L19.4,959.7 L-40.8,939.5 L-44.1,944.0 L-84.3,931.6 L-92.7,928.8 L-88.6,914.8 L-93.4,913.3 L-94.4,911.8 L-97.0,911.0 L-100.6,910.5 L-105.0,908.3 L-103.5,907.0 L-121.3,892.5 L-150.9,865.7 L-166.8,851.7 L-178.1,839.4 L-184.4,831.1 L-193.8,818.3 L-199.2,808.4 L-216.0,787.3 L-217.6,786.1 L-218.7,786.0 L-219.9,786.2 L-222.1,786.3 L-224.1,785.3 L-228.3,782.6 L-236.9,778.1 L-241.1,774.5 L-246.0,770.2 L-252.7,766.6 L-263.2,763.3 L-274.3,761.3 L-283.8,761.1 L-281.1,735.9 L-278.9,703.0 L-268.6,704.0 L-258.3,705.8 L-244.8,709.8 L-234.9,713.5 L-226.0,717.6 L-217.4,721.6 L-209.3,726.2 L-202.7,731.3 L-193.9,738.1 L-184.7,745.0 L-182.6,746.3 L-180.7,746.7 L-155.5,745.6 L-155.2,751.3 L-156.7,753.8 L-175.6,755.6 L-170.8,765.4 L-167.5,764.2 L-164.5,767.2 L-162.6,770.1 L-161.0,772.3 L-157.1,777.5 L-155.6,783.2 L-149.5,791.6 L-135.1,800.7 L-117.2,809.8 L-95.8,823.3 L-86.0,827.9 L-65.4,839.6 L-55.7,844.7 L-38.0,851.2 L-3.2,860.5 L17.2,865.4 L35.8,867.3 L45.7,868.6 L47.9,868.4 L48.8,867.1 L49.1,860.5 L72.2,860.5 L72.7,867.9 L121.1,870.4 L168.3,871.8 L200.4,870.6 L211.0,869.8 L218.7,868.8 L225.0,867.0 L230.8,863.5 L233.7,858.8 L232.6,781.3 L252.1,780.2 L253.8,855.8 L254.9,857.7 L258.8,860.4 L263.3,861.7 L366.7,861.9 L366.2,828.6 L374.3,828.4 L377.7,861.9 L441.5,861.3 L441.5,857.7 L447.8,857.6 L448.0,860.2 L873.5,852.1 L904.3,848.5 L941.9,847.4 L977.5,852.1 L989.4,851.1 L998.1,849.4 L1006.2,846.5 L1016.7,842.5 L1230.6,838.7 L1230.5,823.9 L1350.2,821.8 L1350.3,838.1 L1401.1,839.9 L1405.0,839.8 L1408.6,839.5 L1413.3,838.9 L1417.1,837.9 L1420.8,836.7 L1427.1,833.7 L1430.0,838.7 L1436.2,834.8 L1441.9,830.2 L1446.7,825.2 L1450.9,819.3 L1454.8,812.0 L1447.5,807.9 L1449.5,801.8 L1450.8,795.5 L1451.5,789.5 L1451.6,784.8 L1451.4,780.4 L1450.7,742.5 L1444.6,736.9 L1449.8,731.4 L1444.5,726.8 L1450.5,719.7 L1444.0,714.0 L1449.2,708.5 L1444.0,703.5 L1450.1,697.0 L1443.8,690.6 L1456.9,676.2 L1459.2,676.1 L1453.5,461.6 L1501.6,460.5 L1503.9,461.7 L1506.5,463.7 L1508.4,465.4 L1509.2,467.4 L1509.9,469.8 L1510.1,472.2 L1514.2,805.5 L1516.1,816.3 L1518.8,823.6 L1523.0,832.6 L1527.9,841.4 L1533.0,848.4 L1537.1,852.7 L1541.5,856.1 L1546.6,859.1 L1551.9,861.1 L1559.1,863.2 L1568.0,864.9 L1578.8,866.9 L1591.4,869.2 L1603.4,871.8 L1616.7,874.2 L1629.3,876.9 L1633.3,877.7 L1638.2,878.7 L1643.0,879.3 L1647.2,879.4 L1652.0,879.4 L1655.7,879.2 L1659.4,878.5 L1662.6,877.7 L1666.0,876.7 L1668.9,875.4 L1674.7,872.6 L1679.8,869.6 L1684.9,865.9 L1690.8,860.2 L1696.3,854.0 L1699.3,848.7 L1702.0,842.2 L1703.4,836.9 L1704.2,831.2 L1704.7,825.8 L1704.7,820.8 L1697.4,463.6 L1707.8,452.9 L1711.6,452.5 L1713.1,451.1 L1734.8,450.5 L1736.7,447.3 L1740.0,448.2 L1745.5,453.3 L1749.3,458.6 L1753.1,465.2 L1760.3,864.4 L1761.0,871.4 L1762.3,885.3 L1763.6,888.1 L1762.6,888.8 L1764.4,892.7 L1766.7,897.3 L1768.7,900.2 L1771.1,903.7 L1774.4,907.5 L1778.3,911.5 L1783.0,915.5 L1787.2,918.6 L1791.8,921.1 L1796.2,923.3 L1800.9,924.8 L1801.5,923.4 L1867.7,947.4 L1876.0,950.5 L1879.8,951.9 L1885.7,954.0 L1890.0,955.0 L1893.7,955.5 L1897.1,955.5 L1901.9,955.1 L1907.1,954.6 L1911.7,953.6 L1916.4,952.3 L1919.9,950.9 L1923.6,949.2 L1926.6,947.3 L1930.4,944.5 L1935.2,940.3 L1939.6,936.0 L1944.4,930.0 L1947.8,924.4 L1950.6,918.2 L1952.6,911.3 L1953.8,904.3 L1954.5,891.8 L1954.2,866.3 L1946.9,460.2 L1946.9,455.7 L1947.7,452.5 L1949.1,449.9 L1952.0,447.5 L1955.3,445.8 L1959.0,445.2 L1989.1,444.2 L1992.7,444.8 L1995.9,446.2 L1998.2,448.4 L2000.8,452.2 L2002.3,457.6 L2003.2,464.9 L2010.7,985.8 L2011.1,988.9 L2011.7,992.0 L2012.6,995.2 L2013.7,998.7 L2014.9,1002.2 L2016.3,1005.4 L2017.5,1008.1 L2018.8,1010.5 L2020.7,1013.5 L2022.8,1016.1 L2024.7,1018.5 L2027.6,1021.6 L2030.4,1024.3 L2033.5,1026.8 L2036.8,1029.3 L2046.0,1035.1 L2046.9,1034.0 L2055.0,1038.5 L2064.6,1043.7 L2070.1,1046.7 L2076.2,1050.3 L2082.5,1054.0 L2089.0,1058.0 L2096.3,1062.5 L2103.5,1067.0 L2110.7,1071.3 L2116.7,1075.0 L2123.4,1079.3 L2130.5,1083.9 L2137.3,1088.4 L2143.6,1092.7 L2142.9,1093.6 L2151.7,1099.7 L2160.8,1105.8 L2163.6,1107.5 L2166.7,1109.2 L2171.1,1111.3 L2175.2,1112.8 L2179.6,1114.0 L2183.5,1115.0 L2188.1,1115.7 L2193.2,1116.3 L2197.6,1116.3 L2201.3,1116.0 L2204.5,1115.3 L2208.6,1114.2 L2212.7,1112.9 L2216.5,1111.6 L2220.0,1109.9 L2223.6,1108.0 L2227.1,1105.8 L2230.7,1103.0 L2233.9,1100.1 L2237.0,1097.0 L2239.9,1093.8 L2242.9,1089.4 L2245.4,1085.0 L2247.8,1080.1 L2249.2,1076.3 L2250.3,1072.3 L2251.1,1068.0 L2251.5,1063.7 L2251.2,1058.8 L2191.9,491.1 L2196.0,490.7 L2192.7,462.3 L2189.7,462.5 L2187.3,449.4 L2188.1,446.7 L2190.6,442.7 L2195.7,438.8 L2202.4,438.0 L2229.3,437.1 L2233.8,438.0 L2236.9,439.5 L2240.2,442.1 L2242.5,444.5 L2244.1,447.0 L2309.1,1083.9 L2310.6,1089.4 L2313.4,1096.2 L2315.8,1100.6 L2318.4,1105.3 L2321.8,1109.9 L2324.6,1113.1 L2327.7,1116.3 L2331.1,1119.0 L2334.1,1121.1 L2338.3,1123.8 L2342.0,1125.7 L2346.9,1127.8 L2351.5,1129.2 L2356.7,1130.3 L2360.7,1130.9 L2364.2,1131.0 L2368.3,1131.1 L2509.5,1128.2 L2514.1,1127.6 L2518.5,1125.5 L2521.7,1122.6 L2523.9,1118.2 L2524.7,1114.2 L2524.5,1110.2 L2453.0,428.1 L2390.0,345.9 L2387.2,348.2 L2332.4,271.7 L2331.4,255.5 L2329.7,252.1 L2326.8,249.0 L2323.1,243.8 L2322.8,236.2 L2316.3,233.7 L2310.0,233.6 L2301.5,237.8 L2311.1,255.8 L2299.0,261.6 L2289.9,253.2 L2282.1,248.4 L2276.8,246.6 L2263.8,246.1 L2257.2,232.7 L2298.7,215.7 L2296.7,212.3 L2287.9,200.5 L2286.5,201.2 L1977.6,-203.3 L1972.9,-270.0 L1975.4,-270.6 L1963.5,-392.9 L1958.9,-404.2 L1953.9,-416.9 L1950.1,-426.7 L1945.5,-439.2 L1930.5,-481.3 L1924.4,-478.6 L1915.5,-512.7 L1917.0,-513.0 L1885.9,-597.3 L1882.5,-744.7 L1886.1,-744.7 L1886.6,-757.6 L1888.4,-770.3 L1889.1,-775.0 L1887.8,-778.8 L1892.0,-798.9 L1930.3,-866.7 L1910.2,-878.9 L1925.1,-903.6 L1944.5,-892.2 L1946.2,-894.8 L1952.3,-891.7 L1958.9,-889.1 L1966.5,-886.7 L1972.2,-885.5 L1977.6,-885.3 L1984.0,-886.4 L1990.3,-888.5 L1996.5,-890.9 L1999.4,-894.0 L2000.5,-898.1 L2002.0,-903.0 L2002.3,-905.0 L2002.2,-907.5 L2000.8,-911.4 L1998.2,-915.1 L1995.2,-917.2 L1990.8,-921.4 L1987.0,-925.4 L1981.4,-929.0 L1979.1,-934.7 L1976.4,-940.4 L1972.1,-947.1 L1967.2,-952.9 L1958.2,-959.3 L1914.6,-981.9 L1888.8,-994.7 L1864.7,-1007.7 L1841.8,-1020.4 L1827.0,-1030.0 L1821.3,-1031.5 L1815.0,-1029.6 L1811.5,-1025.3 L1804.4,-1007.6 L1760.3,-1027.4 L1786.7,-1069.1 L1792.5,-1071.8 L1799.6,-1073.2 L1807.9,-1071.4 L1973.6,-974.5 L1982.6,-971.8 L1992.0,-969.5 L2005.3,-969.2 L2018.8,-971.6 L2027.4,-975.1 L2036.8,-982.7 L2042.3,-988.0 L2048.2,-996.3 L2048.1,-997.4 L2047.7,-998.4 L2046.8,-999.2 L1993.2,-1032.3 L1991.9,-1032.7 L1990.5,-1032.8 L1989.1,-1032.7 L1984.0,-1030.5 L1982.1,-1030.3 L1980.0,-1030.5 L1976.9,-1031.0 L1974.5,-1031.7 L1971.1,-1033.4 L1967.8,-1035.3 L1894.1,-1080.3 L1859.4,-1104.7 L1856.1,-1105.2 L1852.8,-1105.1 L1848.9,-1105.0 L1846.3,-1105.4 L1844.1,-1106.4 L1841.5,-1108.4 L1838.6,-1110.7 L1836.6,-1113.5 L1835.4,-1116.3 L1835.2,-1118.4 L1835.5,-1121.1 L1836.0,-1123.4 L1847.8,-1143.2 L1847.8,-1144.1 L1846.9,-1144.8 L1836.1,-1152.4 L1834.0,-1155.5 L1835.2,-1157.4 L1838.7,-1156.9 L1842.5,-1155.8 L1864.7,-1142.1 L1990.5,-1061.8 L1993.1,-1060.3 L1994.9,-1058.4 L1996.1,-1056.2 L1997.4,-1051.6 L1998.3,-1048.0 L1998.8,-1044.9 L2055.6,-1010.8 L2057.6,-1009.9 L2060.0,-1009.7 L2062.8,-1010.1 L2064.8,-1010.8 L2066.5,-1011.6 L2127.6,-1110.5 L2153.2,-1148.1 L2177.1,-1175.0 L2189.2,-1168.3 L2197.0,-1180.9 L2155.5,-1205.7 L2164.3,-1220.1 L2205.8,-1195.1 L2215.1,-1210.3 L2207.6,-1218.7 L2215.2,-1227.4 L2223.4,-1218.0 L2225.4,-1219.5 L2227.7,-1221.1 L2230.9,-1222.9 L2234.2,-1224.5 L2238.3,-1226.0 L2242.2,-1227.1 L2246.4,-1227.8 L2250.6,-1228.1 L2254.6,-1228.0 L2258.5,-1227.4 L2262.2,-1226.5 L2265.3,-1225.6 L2268.0,-1224.4 L2271.8,-1222.6 L2275.3,-1220.4 L2278.3,-1218.3 L2281.3,-1215.6 L2284.0,-1213.0 L2287.0,-1209.1 L2289.1,-1205.6 L2291.2,-1201.1 L2292.6,-1196.6 L2293.8,-1190.4 L2294.2,-1185.0 L2294.1,-1181.9 L2293.7,-1178.7 L2292.6,-1173.9 L2289.8,-1167.3 L2288.0,-1163.0 L2285.5,-1157.9 L2295.9,-1152.7 L2344.5,-1210.7 L2256.0,-1264.5 L2260.5,-1274.1 L2263.7,-1283.0 L2263.9,-1286.8 L2269.0,-1297.7 L2279.5,-1307.4 L2292.5,-1318.0 L2308.0,-1327.9 L2337.1,-1336.4 L2387.3,-1341.4 L2407.1,-1357.4 L2411.2,-1358.1 L2414.5,-1358.3 L2419.2,-1356.5 L2423.5,-1356.0 L2451.4,-1339.1 L2524.8,-1426.2 L2255.8,-1597.2 L2239.1,-1570.9 L2202.8,-1593.9 L2254.3,-1674.9 L2290.5,-1652.5 L2274.4,-1624.9 L2548.1,-1452.4 L2582.6,-1496.7 L2607.0,-1525.7 L2639.2,-1574.1 L2657.0,-1598.5 L2655.2,-1612.4 L2655.7,-1612.8 L2652.5,-1623.1 L2650.4,-1629.5 L2648.4,-1636.1 L2646.0,-1641.8 L2641.4,-1649.3 L2636.8,-1656.6 L2634.8,-1660.4 L2633.3,-1664.2 L2632.2,-1667.7 L2631.8,-1670.8 L2631.3,-1681.0 L2513.1,-1789.5 L2509.2,-1785.3 L2505.9,-1788.1 L2496.3,-1778.6 L2490.0,-1787.0 L2497.6,-1795.8 L2490.0,-1805.5 L2484.8,-1804.1 L2479.4,-1803.9 L2474.5,-1804.8 L2470.2,-1806.6 L2465.2,-1810.3 L2459.0,-1816.4 L2448.1,-1828.4 L2444.8,-1833.5 L2443.6,-1839.9 L2444.4,-1847.5 L2447.3,-1854.5 L2449.8,-1859.3 L2454.6,-1864.1 L2459.9,-1867.7 L2465.0,-1869.6 L2468.8,-1870.2 L2473.8,-1869.3 L2478.9,-1867.5 L2483.7,-1863.7 L2494.8,-1853.7 L2500.5,-1848.3 L2505.7,-1842.6 L2507.4,-1839.9 L2508.6,-1837.0 L2509.3,-1834.4 L2509.8,-1830.8 L2509.2,-1827.4 L2508.2,-1824.2 L2506.8,-1821.8 L2506.4,-1820.7 L2506.7,-1819.3 L2507.5,-1817.9 L2634.4,-1699.0 L2638.8,-1696.0 L2641.9,-1694.7 L2646.3,-1695.7 L2651.5,-1696.1 L2658.1,-1693.3 L2664.7,-1689.2 L2677.6,-1681.9 L2683.0,-1679.3 L2687.9,-1684.1 L2693.3,-1689.3 L2696.9,-1693.4 L2702.9,-1701.2 L2706.3,-1705.9 L2709.9,-1711.7 L2712.2,-1716.8 L2714.7,-1722.2 L2717.0,-1727.9 L2719.1,-1733.7 L2720.3,-1738.6 L2721.7,-1744.8 L2722.3,-1748.5 L2722.7,-1751.5 L2723.4,-1756.8 L2724.1,-1762.0 L2724.4,-1765.4 L2724.6,-1769.1 L2724.6,-1773.4 L2724.4,-1777.0 L2723.7,-1782.0 L2722.9,-1787.7 L2722.1,-1793.0 L2721.6,-1797.3 L2721.0,-1800.5 L2720.3,-1803.9 L2719.5,-1807.3 L2718.3,-1811.3 L2716.9,-1815.3 L2715.8,-1817.7 L2714.6,-1820.1 L2712.9,-1822.4 L2710.6,-1825.7 L2708.1,-1828.8 L2705.4,-1831.4 L2702.0,-1834.2 L2698.5,-1836.4 L2695.0,-1838.3 L2691.8,-1839.5 L2689.6,-1840.2 L2687.1,-1840.5 L2684.1,-1840.4 L2681.3,-1839.8 L2679.1,-1838.9 L2677.0,-1837.4 L2675.5,-1835.8 L2674.3,-1834.3 L2673.4,-1832.0 L2672.9,-1829.5 L2673.0,-1826.5 L2673.2,-1823.0 L2673.2,-1820.4 L2673.0,-1817.8 L2672.6,-1815.2 L2672.1,-1812.9 L2671.2,-1810.5 L2669.8,-1807.9 L2668.1,-1805.4 L2666.4,-1803.1 L2664.7,-1801.5 L2661.3,-1798.8 L2658.5,-1796.9 L2654.1,-1795.6 L2651.5,-1795.0 L2648.5,-1794.6 L2645.8,-1794.5 L2642.2,-1794.7 L2639.6,-1795.2 L2636.0,-1796.0 L2631.0,-1797.5 L2626.8,-1799.1 L2623.7,-1800.3 L2620.4,-1802.1 L2617.5,-1804.1 L2614.3,-1806.6 L2611.8,-1808.9 L2609.7,-1811.0 L2607.5,-1813.6 L2605.7,-1816.0 L2604.0,-1818.4 L2602.5,-1821.1 L2600.9,-1824.7 L2599.5,-1828.0 L2598.1,-1831.6 L2597.2,-1834.4 L2596.5,-1837.0 L2596.0,-1839.7 L2595.6,-1843.9 L2595.3,-1847.6 L2595.5,-1851.6 L2596.4,-1856.9 L2597.9,-1862.1 L2599.8,-1867.5 L2601.1,-1870.0 L2602.4,-1871.5 L2612.7,-1884.6 L2615.1,-1887.3 L2618.2,-1888.8 L2621.5,-1890.0 L2625.2,-1890.8 L2629.3,-1891.3 L2632.9,-1891.5 L2636.5,-1891.4 L2640.1,-1891.0 L2644.2,-1889.8 L2648.5,-1887.7 L2652.2,-1885.4 L2655.5,-1882.8 L2665.9,-1873.2 L2668.4,-1872.4 L2669.8,-1872.1 L2671.5,-1872.5 L2672.6,-1872.9 L2674.0,-1874.5 L2674.6,-1876.1 L2674.7,-1878.3 L2674.8,-1880.3 L2674.4,-1881.2 L2653.4,-1902.0 L2682.0,-1932.5 L2680.4,-1936.1 L2696.9,-1952.4 L2728.7,-1920.6 L2703.1,-1888.0 L2702.9,-1886.1 L2704.2,-1885.3 L2705.8,-1885.7 L2733.9,-1920.9 L2742.1,-1930.8 L2742.4,-1933.1 L2741.7,-1935.1 L2740.2,-1936.9 L2718.2,-1957.7 L2723.7,-1964.1 L2718.1,-1968.8 L2721.3,-1976.2 L2778.3,-2033.5 L2797.9,-2036.8 L2804.0,-2037.7 L2809.8,-2038.5 L2812.5,-2039.2 L2815.7,-2040.9 L2819.5,-2043.0 L2822.4,-2045.9 L2825.2,-2049.4 L2854.3,-2091.7 L2854.9,-2092.8 L2854.6,-2094.2 L2854.2,-2095.2 L2853.5,-2096.1 L2850.0,-2098.3 L2849.1,-2098.8 L2848.3,-2098.7 L2847.4,-2098.2 L2845.5,-2096.8 L2821.1,-2074.0 L2811.6,-2067.2 L2772.6,-2107.2 L2777.1,-2121.4 L2779.0,-2125.6 L2785.1,-2136.8 L2792.2,-2149.3 L2796.5,-2154.1 L2804.2,-2162.3 L2812.4,-2171.3 L2821.4,-2180.8 L2829.1,-2187.4 L2832.8,-2190.7 L2837.7,-2194.3 L2842.2,-2196.7 L2848.6,-2199.6 L2852.6,-2201.0 L2856.6,-2202.2 L2859.7,-2202.5 L2864.1,-2202.2 L2867.8,-2201.7 L2872.0,-2200.5 L2876.1,-2197.1 L2878.6,-2193.6 L2880.1,-2190.0 L2880.7,-2184.6 L2880.5,-2177.5 L2879.6,-2169.5 L2877.9,-2161.8 L2867.6,-2138.8 L2857.8,-2118.1 L2861.2,-2112.6 L2863.0,-2111.5 L2864.9,-2111.5 L2866.6,-2111.9 L2867.9,-2112.7 L2874.6,-2122.2 L2883.2,-2126.5 L2900.3,-2172.2 L2901.5,-2174.5 L2903.2,-2176.5 L2904.9,-2177.4 L2906.5,-2177.8 L2908.8,-2177.8 L2911.2,-2177.2 L2923.7,-2173.7 L2926.1,-2173.2 L2928.9,-2173.1 L2931.5,-2173.5 L2933.6,-2174.4 L2935.4,-2175.8 L2937.2,-2178.1 L2958.2,-2206.2 L2959.2,-2208.3 L2959.7,-2210.5 L2959.7,-2212.6 L2959.3,-2214.8 L2958.5,-2216.4 L2957.3,-2218.0 L2955.9,-2219.3 L2953.9,-2220.3 L2952.0,-2220.8 L2950.1,-2220.9 L2948.5,-2220.6 L2946.6,-2219.7 L2945.2,-2218.7 L2944.1,-2217.3 L2938.6,-2208.4 L2937.4,-2206.7 L2936.0,-2205.1 L2933.9,-2203.3 L2932.0,-2202.2 L2929.7,-2201.5 L2926.9,-2200.9 L2925.3,-2200.9 L2923.1,-2201.2 L2921.2,-2201.7 L2919.6,-2202.4 L2902.4,-2218.0 L2900.4,-2220.4 L2898.9,-2222.6 L2897.5,-2225.3 L2896.6,-2227.6 L2896.0,-2230.0 L2895.5,-2232.6 L2895.2,-2235.8 L2895.1,-2239.0 L2895.4,-2241.7 L2895.8,-2244.0 L2896.3,-2246.0 L2897.1,-2247.7 L2928.4,-2297.4 L2930.4,-2300.7 L2931.6,-2302.4 L2933.0,-2303.2 L2935.3,-2304.2 L2937.7,-2304.9 L2940.0,-2305.3 L2941.3,-2305.3 L2942.6,-2305.1 L2943.7,-2304.7 L2945.3,-2303.9 L2947.2,-2302.7 L2950.4,-2300.1 L2964.7,-2286.7 L2967.1,-2283.3 L2968.5,-2280.0 L2969.8,-2276.1 L2970.2,-2273.1 L2970.4,-2269.9 L2970.4,-2267.2 L2970.1,-2264.5 L2969.6,-2261.8 L2969.0,-2260.0 L2967.4,-2256.3 L2961.7,-2245.7 L2961.1,-2243.3 L2961.1,-2240.4 L2961.3,-2238.2 L2962.1,-2236.5 L2963.6,-2234.9 L2966.0,-2233.2 L2968.0,-2232.1 L2970.3,-2231.6 L2973.0,-2231.7 L2975.2,-2232.2 L2977.7,-2233.5 L2979.9,-2235.5 L3016.9,-2286.3 L3005.6,-2296.5 L3012.4,-2303.8 L3022.5,-2294.1 L3043.3,-2321.4 L3074.8,-2363.5 L2948.0,-2485.0 L2920.5,-2456.1 L2888.2,-2486.6 L2919.4,-2520.2 L2915.3,-2524.7 L2921.8,-2530.7 L2925.8,-2526.6 L2947.5,-2550.2 L2967.0,-2532.1 L2969.3,-2517.1 L3051.3,-2440.6 L3067.3,-2434.4 L3080.1,-2438.9 L3104.4,-2429.2 L3120.5,-2435.1 L3168.4,-2493.6 L3171.1,-2499.1 L3171.9,-2506.5 L3169.5,-2513.8 L3166.3,-2519.0 L3137.9,-2545.2 L3138.3,-2552.4 L3143.9,-2566.5 L3155.1,-2587.4 L3133.0,-2601.7 L3141.4,-2604.9 L3146.7,-2608.3 L3152.0,-2614.3 L3158.2,-2630.2 L3169.6,-2659.2 L3177.0,-2666.0 L3106.8,-2734.0 L3091.4,-2724.4 L3087.8,-2723.5 L3084.4,-2723.4 L3080.0,-2723.9 L3076.4,-2724.9 L3072.9,-2727.0 L3070.0,-2729.5 L3033.7,-2764.5 L3026.9,-2771.3 L3023.9,-2774.9 L3021.4,-2779.4 L3020.2,-2783.5 L3019.7,-2787.5 L3019.8,-2791.3 L3020.5,-2794.9 L3021.4,-2797.8 L3022.6,-2799.9 L3025.2,-2803.6 L3028.3,-2807.3 L3044.6,-2824.2 L3168.6,-2709.3 L3160.1,-2699.7 L3252.0,-2612.8 L3357.9,-2767.9 L3290.7,-2830.7 L3282.1,-2823.0 L3156.6,-2941.5 L3173.0,-2956.8 L3245.1,-2889.2 L3252.3,-2899.8 L3256.3,-2905.1 L3261.4,-2910.3 L3267.3,-2916.8 L3273.3,-2920.7 L3282.8,-2928.7 L3292.3,-2937.5 L3310.5,-2954.7 L3354.0,-3003.6 L3361.8,-3011.7 L3390.5,-3026.4 L3417.7,-3047.7 L3420.3,-3049.7 L3427.4,-3055.2 L3430.5,-3058.0 L3433.0,-3061.2 L3434.7,-3064.5 L3435.8,-3067.8 L3437.1,-3070.3 L3438.6,-3073.0 L3441.2,-3077.3 L3443.0,-3080.0 L3444.8,-3082.5 L3448.1,-3085.1 L3451.3,-3087.3 L3454.8,-3089.4 L3463.1,-3093.4 L3471.1,-3097.4 L3472.3,-3097.6 L3473.5,-3097.4 L3475.9,-3096.7 L3482.4,-3093.4 L3487.3,-3091.0 L3489.6,-3089.6 L3491.7,-3087.9 L3525.1,-3056.2 L3527.4,-3054.9 L3538.3,-3052.0 L3541.8,-3051.0 L3545.7,-3050.6 L3548.7,-3050.7 L3551.0,-3051.5 L3553.3,-3053.1 L3565.2,-3069.9 L3565.2,-3072.2 L3564.8,-3074.3 L3563.5,-3076.6 L3561.5,-3078.8 L3552.4,-3087.3 L3553.1,-3088.7 L3564.8,-3113.5 L3584.8,-3153.8 L3603.0,-3167.2 L3613.5,-3177.7 L3620.7,-3186.0 L3628.3,-3193.7 L3636.7,-3200.6 L3641.8,-3205.3 L3647.2,-3210.2 L3651.2,-3214.2 L3653.2,-3217.8 L3654.8,-3220.6 L3655.8,-3223.3 L3656.2,-3226.5 L3656.4,-3229.7 L3662.5,-3235.9 L3671.5,-3244.4 L3686.5,-3256.7 L3702.2,-3268.6 L3709.2,-3278.4 L3711.8,-3288.5 L3719.6,-3293.3 L3729.4,-3293.5 L3739.3,-3299.4 L3748.0,-3315.1 L3747.8,-3331.4 L3749.4,-3356.6 L3751.9,-3360.2 L3753.4,-3362.6 L3756.2,-3367.2 L3752.7,-3377.9 L3756.7,-3382.9 L3776.5,-3407.4 L3810.5,-3447.1 L3817.0,-3456.5 L3819.6,-3461.4 L3830.4,-3476.3 L3833.4,-3485.7 L3833.5,-3500.2 L3833.1,-3514.7 L3833.0,-3529.5 L3837.4,-3545.8 L3844.8,-3561.9 L3855.4,-3577.4 L3863.1,-3588.9 L3872.2,-3600.4 L3889.8,-3620.0 L3967.8,-3658.6 L3978.1,-3661.3 L3980.7,-3655.7 L3983.8,-3650.3 L3984.8,-3649.3 L3986.5,-3650.0 L3986.8,-3653.8 L3985.6,-3657.0 L3989.9,-3658.3 L4005.9,-3663.0 L4026.7,-3669.2 L4043.5,-3674.2 L4049.5,-3676.0 L4043.5,-3694.9 L4053.9,-3697.7 L4071.2,-3700.1 L4073.3,-3700.4 L4073.4,-3701.6 L4073.4,-3706.0 L4089.1,-3706.7 L4113.7,-3707.7 L4123.2,-3703.1 L4146.9,-3617.7 L4152.2,-3612.6 L4141.9,-3602.0 L4151.0,-3593.0 L4160.0,-3584.0 L4170.8,-3595.0 L4371.3,-3404.4 L4638.9,-3690.0 L4732.4,-3600.6 L4736.0,-3601.7 L4737.4,-3600.1 L4743.7,-3604.1 L4748.9,-3606.0 L4754.4,-3608.5 L4763.8,-3613.4 L4769.6,-3616.7 L4776.5,-3620.7 L4782.9,-3624.7 L4788.1,-3628.1 L4792.9,-3631.2 L4798.5,-3635.3 L4804.9,-3640.0 L4809.8,-3644.1 L4815.0,-3648.7 L4820.7,-3654.1 L4826.1,-3659.5 L4838.7,-3672.9 L4846.3,-3682.0 L4853.7,-3691.9 L4858.8,-3699.1 L4863.6,-3706.5 L4869.3,-3716.8 L4874.3,-3726.9 L4878.3,-3735.2 L4881.7,-3743.5 L4883.8,-3749.0 L4886.1,-3755.2 L4891.5,-3761.9 L4720.5,-3924.6 L4722.6,-3926.9 L4743.1,-3948.9 L4758.0,-3964.7 L4759.5,-3966.3 L4802.9,-3925.7 L4813.4,-3931.1 L4814.6,-3929.6 L4916.6,-3982.7 L4920.8,-3984.9 L4923.7,-3987.2 L4926.4,-3989.7 L4929.5,-3992.9 L4932.5,-3997.4 L4935.1,-4001.6 L4936.8,-4004.8 L4938.0,-4008.9 L4939.1,-4013.4 L4939.6,-4018.3 L4939.6,-4023.8 L4939.2,-4028.2 L4938.4,-4032.1 L4937.1,-4036.8 L4905.2,-4128.6 L4900.9,-4143.7 L4902.0,-4148.9 L4825.0,-4168.0 L4828.6,-4181.3 L4831.6,-4193.3 L4854.4,-4283.5 L4836.7,-4336.1 L4826.3,-4370.1 L4823.3,-4378.6 L4850.9,-4403.9 L4882.0,-4420.6 L4883.9,-4418.0 L4886.9,-4413.7 L4893.9,-4404.6 L4894.7,-4405.4 L4894.9,-4408.5 L4885.2,-4421.9 L4902.5,-4434.3 L4906.3,-4436.5 L4915.3,-4424.8 L4916.8,-4423.7 L4918.3,-4423.4 L4919.1,-4423.6 L4919.1,-4424.4 L4876.3,-4483.0 L4873.2,-4486.4 L4869.6,-4491.3 L4851.0,-4513.8 L4866.9,-4563.1 L4879.1,-4575.8 L4893.2,-4582.4 L4923.2,-4600.2 L4929.4,-4606.6 L4956.3,-4630.2 L4964.8,-4621.3 L4989.7,-4594.4 L5012.8,-4613.8 L5028.3,-4598.9 L5042.2,-4585.3 L5042.9,-4584.6 L5054.7,-4594.7 L5070.3,-4578.1 L5083.7,-4560.9 L5093.6,-4549.4 L5094.9,-4547.9 L5123.7,-4573.2 L5125.2,-4574.5 L5118.4,-4582.8 L5134.1,-4595.7 L5181.7,-4540.2 L5222.2,-4566.9 L5226.2,-4570.7 L5243.8,-4578.1 L5247.8,-4582.0 L5251.6,-4587.0 L5273.3,-4606.3 L5268.4,-4613.0 L5229.6,-4604.1 L5185.2,-4654.6 L5190.3,-4659.0 L5197.0,-4651.2 L5228.4,-4678.2 L5261.7,-4641.8 L5270.7,-4638.2 L5276.1,-4635.1 L5282.9,-4627.4 L5286.6,-4630.7 L5262.5,-4658.1 L5277.3,-4670.9 L5307.2,-4635.0 L5311.0,-4637.8 L5310.6,-4638.6 L5376.2,-4686.0 L5395.7,-4700.4 L5332.0,-4780.0 L5345.6,-4789.5 L5401.0,-4724.6 L5441.9,-4717.1 L5468.9,-4732.9 L5472.7,-4735.3 L5472.5,-4738.3 L5470.6,-4741.8 L5491.7,-4755.1 L5497.9,-4748.9 L5515.7,-4759.4 L5502.8,-4775.4 L5440.5,-4858.7 L5484.5,-4904.3 L5513.4,-4947.0 L5514.1,-4980.4 L5498.7,-5024.8 L5531.1,-5051.8 L5565.1,-5064.9 L5576.3,-5067.5 L5585.3,-5068.7 L5596.3,-5068.0 L5607.7,-5065.2 L5624.2,-5051.1 L5667.0,-4998.9 L5701.2,-4955.5 L5742.1,-4928.2 L5758.2,-4925.6 L5772.6,-4923.9 L5784.8,-4923.4 L5800.4,-4924.5 L5817.3,-4927.3 L5831.0,-4931.2 L5842.6,-4936.6 L5850.3,-4941.1 L5856.0,-4947.1 L5865.6,-4958.7 L5876.0,-4977.7 L5887.3,-5002.9 L5907.4,-4992.6 L5915.4,-4989.9 L5924.0,-4988.7 L5937.7,-4989.6 L5946.8,-4992.3 L5957.2,-4996.8 L5966.9,-5002.4 L5977.2,-5012.4 L5986.0,-5020.4 L5997.0,-5027.9 L6004.6,-5032.8 L6015.8,-5036.8 L6035.1,-5042.4 L6046.5,-5045.6 L6058.7,-5050.2 L6069.3,-5055.7 L6075.6,-5059.3 L6080.6,-5064.5 L6146.0,-5097.3 L6148.5,-5098.7 L6151.4,-5100.5 L6154.4,-5102.8 L6158.8,-5105.3 L6161.7,-5106.7 L6164.8,-5109.4 L6167.2,-5111.9 L6170.4,-5114.0 L6173.8,-5116.4 L6178.3,-5120.6 L6184.7,-5121.1 L6191.3,-5121.9 L6195.6,-5123.3 L6201.2,-5125.9 L6208.1,-5129.0 L6215.4,-5133.5 L6219.5,-5137.4 L6224.1,-5142.7 L6227.0,-5147.6 L6228.6,-5152.1 L6228.7,-5155.3 L6228.8,-5157.9 L6230.4,-5168.3 L6266.8,-5189.4 L6330.6,-5226.2 L6343.0,-5233.3 L6451.2,-5295.7 L6568.4,-5363.0 L6618.3,-5391.6 L6635.6,-5401.3 L6780.5,-5485.5 L6812.7,-5503.2 L6812.2,-5504.3 L6878.5,-5541.8 L6904.0,-5556.1 L6951.0,-5582.1 L6951.5,-5581.4 L6969.7,-5591.4 L7013.9,-5616.1 L7019.2,-5620.9 L7064.0,-5653.7 L7086.3,-5672.2 L7106.8,-5689.5 L7116.2,-5694.8 L7137.4,-5715.8 L7139.2,-5714.7 L7142.0,-5715.0 L7143.4,-5714.1 L7173.2,-5749.0 L7165.7,-5756.0 L7166.7,-5757.8 L7169.9,-5762.4 L7178.5,-5773.3 L7183.7,-5781.2 L7187.8,-5787.7 L7193.5,-5796.4 L7199.0,-5805.4 L7205.2,-5815.7 L7211.6,-5826.9 L7225.5,-5855.6 L7229.8,-5864.7 L7233.3,-5872.0 L7235.7,-5877.5 L7237.8,-5881.7 L7242.2,-5892.7 L7126.4,-6108.7 L7124.2,-6112.8 L7122.5,-6115.1 L7121.3,-6116.8 L7119.7,-6118.2 L7118.2,-6119.2 L7116.2,-6120.4 L7114.1,-6121.2 L7112.3,-6121.6 L7110.5,-6121.8 L7107.8,-6121.8 L7104.7,-6121.3 L7102.0,-6120.5 L7099.2,-6119.1 L7072.3,-6103.6 L7037.2,-6083.5 L7012.7,-6069.9 L6968.0,-6045.3 L6940.6,-6030.4 L6941.6,-6028.7 L6929.9,-6022.0 L6891.6,-6002.2 L6863.2,-5985.4 L6846.5,-5976.1 L6821.1,-5961.5 L6818.2,-5959.5 L6795.9,-5999.6 L6839.7,-6023.6 L6899.5,-6056.1 L6940.2,-6078.7 L6945.2,-6081.6 L6944.5,-6082.7 L6979.7,-6101.9 L6998.4,-6112.2 L7041.3,-6133.1 L7049.5,-6137.3 L7114.2,-6173.3 L7138.5,-6186.7 L7155.6,-6195.9 L7175.8,-6207.5 L7203.8,-6156.9 L7159.8,-6132.8 L7157.5,-6129.1 L7156.6,-6125.2 L7156.2,-6122.2 L7156.1,-6119.6 L7156.3,-6117.5 L7157.1,-6114.6 L7246.8,-5948.7 L7248.5,-5946.2 L7250.5,-5944.3 L7252.5,-5943.0 L7254.6,-5942.3 L7256.9,-5942.0 L7259.1,-5942.2 L7260.8,-5942.7 L7300.6,-5972.9 L7319.3,-5988.6 L7338.6,-6004.9 L7345.9,-6011.6 L7369.8,-6031.2 L7370.9,-6031.2 L7394.1,-6051.0 L7394.2,-6052.2 L7409.4,-6064.7 L7421.4,-6074.5 L7442.0,-6091.5 L7443.9,-6089.2 L7464.1,-6105.9 L7474.3,-6114.4 L7502.6,-6137.9 L7522.3,-6154.3 L7520.4,-6157.1 L7526.9,-6162.6 L7537.6,-6171.4 L7544.2,-6177.2 L7572.1,-6189.7 L7591.0,-6196.3 L7600.7,-6200.9 L7627.9,-6201.1 L7637.4,-6201.1 L7657.5,-6200.1 L7681.0,-6199.1 L7682.7,-6200.7 L7685.0,-6197.7 L7692.4,-6197.3 L7759.7,-6191.5 L7767.6,-6189.8 L7774.5,-6188.7 L7790.1,-6187.4 L7819.2,-6186.0 L7825.6,-6185.9 L7831.6,-6186.1 L7854.9,-6187.0 L7866.9,-6187.6 L7878.8,-6188.7 L7897.1,-6190.6 L7897.0,-6189.5 L7911.5,-6192.0 L7925.2,-6194.6 L7935.7,-6196.5 L7949.5,-6206.9 L7951.1,-6204.7 L7952.8,-6202.3 L8074.4,-6041.5 L8367.9,-5940.3 L8906.5,-6335.9 L9053.3,-6441.6 L9110.0,-6562.6 L9019.8,-6680.8 L9023.8,-6697.7 L9039.6,-6702.0 L9070.0,-6695.7 L9091.6,-6703.8 L9097.6,-6712.2 L9096.3,-6719.5 L9080.2,-6751.1 L9079.1,-6762.9 L9078.2,-6786.3 L9075.4,-6808.9 L9078.2,-6812.9 L9087.3,-6817.3 L9098.4,-6819.8 L9106.4,-6828.4 L9108.2,-6838.8 L9101.4,-6858.9 L9100.7,-6872.8 L9102.9,-6888.6 L9113.9,-6916.3 L9111.6,-6929.1 L9106.1,-6943.4 L9105.9,-6962.8 L9102.7,-6988.4 L9096.9,-7004.4 L9093.3,-7012.8 L9095.7,-7016.5 L9098.0,-7016.3 L9098.6,-7017.8 L9098.9,-7019.8 L9098.8,-7021.8 L9095.3,-7022.2 L9093.1,-7025.3 L9093.5,-7029.0 L9090.5,-7029.8 L9086.8,-7029.9 L9086.3,-7029.0 L9078.7,-7038.0 L9077.1,-7040.8 L9075.8,-7044.7 L9074.9,-7048.5 L9074.2,-7052.5 L9073.9,-7056.5 L9073.7,-7060.1 L9073.7,-7063.8 L9074.0,-7065.8 L9075.6,-7070.8 L9077.4,-7074.8 L9079.7,-7078.7 L9083.1,-7083.6 L9086.6,-7088.3 L9089.9,-7091.7 L9094.0,-7094.8 L9094.8,-7094.0 L9129.9,-7120.8 L9135.0,-7124.7 L9134.0,-7126.2 L9134.0,-7128.8 L9142.7,-7135.6 L9144.9,-7135.5 L9147.0,-7134.0 L9150.7,-7136.8 L9186.7,-7164.1 L9186.3,-7165.0 L9190.5,-7168.1 L9195.5,-7171.2 L9199.0,-7172.8 L9204.0,-7174.7 L9208.3,-7175.9 L9212.6,-7176.5 L9217.3,-7176.9 L9220.1,-7176.7 L9224.0,-7176.1 L9227.8,-7174.8 L9230.6,-7173.4 L9233.3,-7171.8 L9235.3,-7170.3 L9237.0,-7168.7 L9239.5,-7166.3 L9240.6,-7165.9 L9242.4,-7165.9 L9244.2,-7166.2 L9249.7,-7170.1 L9249.7,-7171.2 L9250.3,-7172.0 L9250.9,-7173.1 L9250.8,-7174.4 L9250.5,-7175.5 L9249.7,-7176.5 L9245.8,-7180.4 L9242.7,-7182.9 L9239.1,-7184.9 L9233.2,-7187.5 L9228.1,-7189.5 L9237.0,-7194.1 L9247.9,-7201.7 L9261.4,-7203.4 L9274.9,-7202.5 L9283.7,-7206.0 L9291.4,-7217.0 L9320.4,-7268.9 L9332.2,-7290.3 L9341.5,-7313.1 L9343.1,-7317.9 L9356.9,-7360.2 L9359.1,-7364.3 L9361.7,-7368.4 L9394.1,-7408.5 L9401.0,-7415.7 L9406.1,-7420.1 L9478.7,-7482.3 L9482.7,-7485.0 L9495.1,-7491.8 L9510.0,-7500.2 L9556.4,-7524.5 L9657.5,-7578.8 L9659.9,-7576.9 L9661.8,-7576.2 L9663.5,-7575.7 L9665.3,-7576.0 L9667.2,-7576.4 L9672.6,-7577.5 L9678.9,-7578.9 L9684.6,-7580.2 L9690.5,-7581.3 L9693.7,-7582.0 L9698.1,-7583.3 L9703.1,-7585.4 L9715.2,-7592.0 L9719.6,-7594.4 L9721.9,-7595.8 L9724.2,-7596.8 L9733.6,-7600.8 L9743.9,-7604.8 L9756.9,-7610.4 L9772.2,-7616.7 L9772.8,-7617.0 L9774.1,-7617.1 L9775.8,-7617.6 L9778.2,-7619.4 L9780.9,-7620.4 L9783.9,-7621.9 L9789.5,-7625.1 L9791.5,-7627.1 L9794.8,-7629.2 L9794.5,-7629.8 L9795.9,-7631.5 L9797.7,-7633.4 L9800.7,-7634.9 L9803.2,-7635.9 L9805.9,-7636.9 L9808.4,-7638.2 L9813.3,-7641.3 L9814.7,-7642.7 L9816.1,-7644.9 L9816.7,-7646.5 L9816.9,-7648.1 L9816.7,-7649.6 L9817.0,-7651.1 L9803.0,-7668.0 L9847.1,-7693.9 L9868.0,-7705.0 L9872.1,-7706.3 L9878.5,-7705.1 L9885.6,-7695.2 L9888.8,-7692.4 L9891.7,-7691.0 L9894.4,-7690.4 L9896.9,-7690.5 L9934.7,-7706.1 L9945.0,-7711.1 L9954.6,-7716.4 L9970.1,-7724.6 L9973.3,-7725.7 L10188.1,-7815.0 L10255.3,-7847.3 L10555.8,-7991.6 L17568.9,-8049.6 L17568.9,1986.0 L2581.2,1986.0 L2581.2,1559.5 Z" fill="#add7e1" stroke="none"><title>Biscayne Bay</title></path><path d="M40.3,237.1 L40.3,242.8 L49.3,242.7 L50.1,283.1 L39.5,290.6 L25.3,270.2 L32.0,270.2 L39.2,264.9 L39.2,255.5 L24.3,255.6 L24.3,249.2 L24.2,242.9 L34.5,242.8 L34.4,237.2 L40.3,237.1 Z" fill="#d6d2c9" stroke="#bab6ad" stroke-width="0.4"></path><path d="M95.0,92.5 L80.7,93.2 L78.2,33.8 L92.5,33.2 L95.0,92.5 Z" fill="#d6d2c9" stroke="#bab6ad" stroke-width="0.4"></path><path d="M274.7,127.3 L283.8,136.2 L288.6,131.3 L306.1,148.7 L296.6,158.9 L293.9,156.4 L279.2,172.2 L251.8,145.1 L265.6,130.9 L268.4,133.7 L274.7,127.3 Z" fill="#d6d2c9" stroke="#bab6ad" stroke-width="0.4"></path><path d="M184.7,237.0 L196.2,248.9 L208.7,236.7 L215.6,243.9 L210.1,248.9 L215.4,254.7 L201.2,267.7 L202.7,269.3 L195.3,276.1 L170.7,248.7 L171.7,241.7 L160.5,239.8 L162.8,225.8 L186.1,229.6 L184.7,237.0 Z" fill="#d6d2c9" stroke="#bab6ad" stroke-width="0.4"></path><path d="M-0.6,137.1 L-24.1,137.5 L-24.3,126.5 L-33.4,126.4 L-33.8,113.3 L2.2,112.2 L2.8,129.3 L-0.8,129.4 L-0.6,137.1 Z" fill="#d6d2c9" stroke="#bab6ad" stroke-width="0.4"></path><path d="M43.7,117.7 L44.4,139.0 L64.7,138.2 L64.4,127.8 L75.6,127.3 L77.0,166.4 L65.2,166.8 L64.9,159.5 L43.9,160.2 L44.5,176.5 L29.8,177.0 L27.7,118.3 L43.7,117.7 Z" fill="#d6d2c9" stroke="#bab6ad" stroke-width="0.4"></path><path d="M176.2,124.1 L177.6,160.4 L167.0,160.6 L167.1,169.4 L147.2,170.2 L146.7,156.9 L140.0,157.2 L139.3,140.1 L151.3,139.6 L151.6,145.4 L163.2,144.9 L162.4,124.6 L176.2,124.1 Z" fill="#d6d2c9" stroke="#bab6ad" stroke-width="0.4"></path><path d="M-4.2,154.2 L-4.1,164.8 L19.1,163.9 L19.1,169.3 L19.2,174.6 L-11.9,175.8 L-12.7,154.5 L-4.2,154.2 Z" fill="#d6d2c9" stroke="#bab6ad" stroke-width="0.4"></path><path d="M72.0,28.7 L73.4,77.5 L64.8,77.6 L64.4,56.1 L56.7,56.4 L57.2,66.5 L49.1,66.8 L49.0,29.4 L57.0,29.1 L57.6,43.8 L63.4,43.7 L63.1,33.7 L63.9,28.9 L72.0,28.7 Z" fill="#d6d2c9" stroke="#bab6ad" stroke-width="0.4"></path><path d="M15.7,30.3 L17.5,97.9 L3.8,98.5 L3.0,80.3 L-7.0,80.7 L-7.7,64.6 L-2.4,64.4 L-2.2,61.0 L2.9,55.8 L5.3,55.6 L5.1,45.4 L2.6,45.6 L2.2,30.7 L15.7,30.3 Z" fill="#d6d2c9" stroke="#bab6ad" stroke-width="0.4"></path><path d="M194.2,135.6 L194.5,148.6 L209.3,148.3 L209.1,138.4 L218.8,138.2 L219.7,172.8 L200.0,173.3 L200.0,171.3 L183.2,171.8 L182.4,135.9 L194.2,135.6 Z" fill="#d6d2c9" stroke="#bab6ad" stroke-width="0.4"></path><path d="M97.7,226.9 L97.8,228.5 L102.6,228.3 L103.3,249.0 L91.9,249.4 L91.9,251.6 L74.5,252.2 L74.3,263.8 L79.0,271.1 L67.2,279.0 L56.5,279.3 L56.0,264.0 L68.0,263.6 L67.3,243.7 L63.8,243.8 L63.4,228.1 L97.7,226.9 Z" fill="#d6d2c9" stroke="#bab6ad" stroke-width="0.4"></path><path d="M114.2,136.3 L114.4,145.2 L119.9,145.0 L119.7,137.3 L124.4,137.1 L129.1,137.0 L129.3,144.7 L133.5,144.5 L133.9,158.9 L91.1,160.3 L90.4,137.0 L114.2,136.3 Z" fill="#d6d2c9" stroke="#bab6ad" stroke-width="0.4"></path><path d="M119.3,28.8 L119.6,36.8 L129.6,36.4 L130.1,50.0 L122.4,50.3 L123.1,69.2 L116.5,69.5 L117.2,87.1 L106.8,87.4 L105.6,44.4 L106.5,44.4 L106.1,29.3 L119.3,28.8 Z" fill="#d6d2c9" stroke="#bab6ad" stroke-width="0.4"></path><path d="M36.2,29.9 L36.2,32.7 L43.2,32.5 L44.4,71.6 L21.0,72.4 L19.8,33.2 L26.8,33.0 L26.7,30.2 L36.2,29.9 Z" fill="#d6d2c9" stroke="#bab6ad" stroke-width="0.4"></path><path d="M257.6,161.7 L280.8,186.1 L270.0,196.5 L273.7,200.3 L265.3,208.4 L246.7,188.8 L248.3,187.2 L235.9,174.1 L248.8,161.7 L253.0,166.2 L257.6,161.7 Z" fill="#d6d2c9" stroke="#bab6ad" stroke-width="0.4"></path><path d="M254.1,28.1 L267.7,27.7 L268.1,40.7 L277.6,40.4 L278.4,63.0 L255.3,63.8 L254.1,28.1 Z" fill="#d6d2c9" stroke="#bab6ad" stroke-width="0.4"></path><path d="M192.8,26.8 L210.5,25.7 L211.4,40.1 L238.3,38.4 L239.5,57.6 L210.8,59.4 L211.9,76.6 L196.1,77.6 L192.8,26.8 Z" fill="#d6d2c9" stroke="#bab6ad" stroke-width="0.4"></path><path d="M143.0,49.8 L181.9,48.3 L183.2,84.2 L144.3,85.7 L143.0,49.8 Z" fill="#d6d2c9" stroke="#bab6ad" stroke-width="0.4"></path><path d="M264.5,248.9 L254.9,238.1 L246.8,232.6 L239.6,228.4 L235.0,225.8 L230.3,223.3 L218.7,218.2 L208.9,214.2 L199.8,210.7 L190.5,207.7 L183.3,206.0 L175.3,204.6 L163.1,202.9 L153.2,201.9 L142.9,201.3 L132.2,201.0 L118.6,201.1 L-25.5,204.4 L-38.5,204.5 L-42.8,204.4 L-48.3,204.4" fill="none" stroke="#cec8bb" stroke-width="4.8" stroke-linecap="round" stroke-linejoin="round"/><path d="M264.5,248.9 L254.9,238.1 L246.8,232.6 L239.6,228.4 L235.0,225.8 L230.3,223.3 L218.7,218.2 L208.9,214.2 L199.8,210.7 L190.5,207.7 L183.3,206.0 L175.3,204.6 L163.1,202.9 L153.2,201.9 L142.9,201.3 L132.2,201.0 L118.6,201.1 L-25.5,204.4 L-38.5,204.5 L-42.8,204.4 L-48.3,204.4" fill="none" stroke="#ffffff" stroke-width="3.7" stroke-linecap="round" stroke-linejoin="round"><title>Ridgewood Road</title></path><path d="M354.7,-3.5 L-21.8,9.2 L-48.1,9.7" fill="none" stroke="#cec8bb" stroke-width="4.8" stroke-linecap="round" stroke-linejoin="round"/><path d="M354.7,-3.5 L-21.8,9.2 L-48.1,9.7" fill="none" stroke="#ffffff" stroke-width="3.7" stroke-linecap="round" stroke-linejoin="round"><title>Battersea Road</title></path><path d="M353.0,161.4 L295.2,218.1 L264.5,248.9 L251.6,261.9 L228.5,284.5 L211.8,301.2 L190.7,322.0" fill="none" stroke="#d1c4aa" stroke-width="6.4" stroke-linecap="round" stroke-linejoin="round"/><path d="M353.0,161.4 L295.2,218.1 L264.5,248.9 L251.6,261.9 L228.5,284.5 L211.8,301.2 L190.7,322.0" fill="none" stroke="#f1c77d" stroke-width="5.0" stroke-linecap="round" stroke-linejoin="round"><title>Ingraham Highway</title></path><text x="67.3" y="202.3" transform="rotate(-1.3 67.3 202.3)" text-anchor="middle" dominant-baseline="central" font-family="Arial, sans-serif" font-size="8.3" textLength="74.4" lengthAdjust="spacing" font-weight="650" paint-order="stroke" stroke="#fffaf0" stroke-width="2.05" stroke-linejoin="round" fill="#695f54">Ridgewood Road</text><text x="86.6" y="63.2" text-anchor="middle" font-family="Arial, sans-serif" font-size="6.5" textLength="18.0" lengthAdjust="spacing" font-weight="500" paint-order="stroke" stroke="#f3f5ee" stroke-width="1.55" stroke-linejoin="round" fill="#6f777a">4074</text><text x="191.6" y="246.0" text-anchor="middle" font-family="Arial, sans-serif" font-size="6.5" textLength="18.0" lengthAdjust="spacing" font-weight="500" paint-order="stroke" stroke="#f3f5ee" stroke-width="1.55" stroke-linejoin="round" fill="#6f777a">200</text><text x="157.5" y="149.4" text-anchor="middle" font-family="Arial, sans-serif" font-size="6.5" textLength="18.0" lengthAdjust="spacing" font-weight="500" paint-order="stroke" stroke="#f3f5ee" stroke-width="1.55" stroke-linejoin="round" fill="#6f777a">211</text><text x="15.0" y="165.3" text-anchor="middle" font-family="Arial, sans-serif" font-size="6.5" textLength="18.0" lengthAdjust="spacing" font-weight="500" paint-order="stroke" stroke="#f3f5ee" stroke-width="1.55" stroke-linejoin="round" fill="#6f777a">235</text><text x="60.9" y="49.1" text-anchor="middle" font-family="Arial, sans-serif" font-size="6.5" textLength="18.0" lengthAdjust="spacing" font-weight="500" paint-order="stroke" stroke="#f3f5ee" stroke-width="1.55" stroke-linejoin="round" fill="#6f777a">4078</text><text x="15.0" y="62.4" text-anchor="middle" font-family="Arial, sans-serif" font-size="6.5" textLength="18.0" lengthAdjust="spacing" font-weight="500" paint-order="stroke" stroke="#f3f5ee" stroke-width="1.55" stroke-linejoin="round" fill="#6f777a">4086</text><text x="201.1" y="153.4" text-anchor="middle" font-family="Arial, sans-serif" font-size="6.5" textLength="18.0" lengthAdjust="spacing" font-weight="500" paint-order="stroke" stroke="#f3f5ee" stroke-width="1.55" stroke-linejoin="round" fill="#6f777a">203</text><text x="78.5" y="246.0" text-anchor="middle" font-family="Arial, sans-serif" font-size="6.5" textLength="18.0" lengthAdjust="spacing" font-weight="500" paint-order="stroke" stroke="#f3f5ee" stroke-width="1.55" stroke-linejoin="round" fill="#6f777a">224</text><text x="118.2" y="143.9" text-anchor="middle" font-family="Arial, sans-serif" font-size="6.5" textLength="18.0" lengthAdjust="spacing" font-weight="500" paint-order="stroke" stroke="#f3f5ee" stroke-width="1.55" stroke-linejoin="round" fill="#6f777a">219</text><text x="116.9" y="52.8" text-anchor="middle" font-family="Arial, sans-serif" font-size="6.5" textLength="18.0" lengthAdjust="spacing" font-weight="500" paint-order="stroke" stroke="#f3f5ee" stroke-width="1.55" stroke-linejoin="round" fill="#6f777a">4068</text><text x="31.8" y="41.9" text-anchor="middle" font-family="Arial, sans-serif" font-size="6.5" textLength="18.0" lengthAdjust="spacing" font-weight="500" paint-order="stroke" stroke="#f3f5ee" stroke-width="1.55" stroke-linejoin="round" fill="#6f777a">4082</text><text x="48.4" y="139.2" text-anchor="middle" font-family="Arial, sans-serif" font-size="6.5" textLength="18.0" lengthAdjust="spacing" font-weight="500" paint-order="stroke" stroke="#f3f5ee" stroke-width="1.55" stroke-linejoin="round" fill="#6f777a">229</text><text x="176.0" y="60.2" text-anchor="middle" font-family="Arial, sans-serif" font-size="6.5" textLength="18.0" lengthAdjust="spacing" font-weight="500" paint-order="stroke" stroke="#f3f5ee" stroke-width="1.55" stroke-linejoin="round" fill="#6f777a">4060</text><text x="212.1" y="55.4" text-anchor="middle" font-family="Arial, sans-serif" font-size="6.5" textLength="18.0" lengthAdjust="spacing" font-weight="500" paint-order="stroke" stroke="#f3f5ee" stroke-width="1.55" stroke-linejoin="round" fill="#6f777a">4050</text></svg>