<svg xmlns="http://www.w3.org/2000/svg" width="256" height="256" viewBox="0 0 256 256"><defs><pattern id="park-dots" width="22" height="22" patternUnits="userSpaceOnUse"><circle cx="5" cy="5" r="2.1" fill="#63a95d" fill-opacity="0.26"/><circle cx="16" cy="7" r="1.55" fill="#76b970" fill-opacity="0.23"/><circle cx="10" cy="17" r="1.9" fill="#61a65b" fill-opacity="0.24"/><circle cx="21" cy="17" r="1.25" fill="#80c174" fill-opacity="0.18"/><circle cx="1" cy="19" r="1.2" fill="#70b46a" fill-opacity="0.17"/></pattern><pattern id="park-canopy" width="54" height="48" patternUnits="userSpaceOnUse"><circle cx="12" cy="11" r="3.6" fill="#5ea75a" fill-opacity="0.22"/><circle cx="31" cy="15" r="2.9" fill="#75ba6d" fill-opacity="0.18"/><circle cx="45" cy="31" r="3.3" fill="#67ae62" fill-opacity="0.20"/><circle cx="19" cy="39" r="2.5" fill="#83c378" fill-opacity="0.16"/></pattern></defs><rect width="256" height="256" fill="#f1efe7"/><path d="M-5.4,873.1 L102.0,828.5 L135.6,812.4 L285.9,740.2 L314.1,767.5 L316.6,769.8 L369.2,724.8 L381.8,715.2 L402.7,696.3 L520.8,587.9 L616.1,479.1 L619.7,472.2 L623.2,468.2 L628.8,461.9 L634.4,455.4 L636.7,452.7 L599.1,404.2 L648.8,374.4 L675.8,410.3 L713.9,366.7 L681.6,323.9 L721.6,282.3 L752.3,322.8 L787.7,282.6 L802.7,272.8 L876.3,225.0 L912.7,200.9 L956.5,172.0 L977.2,158.5 L1029.6,124.6 L1016.1,106.8 L991.9,74.5 L1054.4,34.8 L1077.2,23.0 L1078.9,21.8 L1090.9,12.5 L1133.7,-10.3 L1136.7,-15.0 L1148.7,-23.2 L1155.2,-32.7 L1157.0,-34.1 L1167.4,-38.1 L1191.1,-46.6 L1207.2,-53.7 L1264.3,-80.5 L1265.0,-78.6 L1312.8,-99.1 L1332.3,-74.0 L1375.9,-103.1 L1382.1,-107.3 L1382.7,-107.8 L1383.3,-108.6 L1384.2,-110.3 L1384.8,-111.8 L1385.0,-113.7 L1385.0,-115.2 L1384.8,-116.6 L1384.6,-118.3 L1384.5,-119.5 L1384.6,-120.6 L1384.9,-121.7 L1385.7,-123.7 L1386.2,-124.8 L1387.4,-126.7 L1388.8,-128.1 L1395.1,-130.7 L1400.4,-132.6 L1407.2,-134.8 L1410.3,-135.7 L1415.9,-137.5 L1419.9,-139.0 L1425.3,-141.2 L1432.7,-144.4 L1440.7,-148.2 L1445.0,-150.3 L1450.4,-153.0 L1455.4,-155.9 L1460.5,-158.9 L1465.6,-162.2 L1467.2,-163.3 L1477.6,-171.2 L1486.3,-177.9 L1494.8,-185.1 L1502.8,-192.6 L1508.5,-199.1 L1514.2,-206.0 L1521.2,-215.0 L1527.6,-224.0 L1534.9,-235.6 L1539.7,-244.5 L1542.7,-250.2 L1547.2,-259.9 L1550.9,-268.8 L1554.3,-278.4 L1557.0,-286.9 L1559.9,-300.6 L1562.1,-312.8 L1563.3,-323.4 L1564.2,-335.7 L1564.4,-349.0 L1563.5,-361.3 L1561.4,-377.2 L1559.3,-388.1 L1556.7,-398.5 L1553.1,-410.1 L1549.9,-419.1 L1546.3,-428.9 L1542.9,-436.9 L1540.6,-442.2 L1539.6,-446.0 L1539.5,-449.0 L1539.8,-451.6 L1540.9,-453.9 L1542.5,-455.9 L1544.6,-457.0 L1546.8,-457.3 L1552.9,-455.8 L1569.7,-451.8 L1575.3,-579.1 L1597.2,-806.4 L1573.4,-812.1 L1570.8,-819.2 L1570.9,-829.4 L1574.2,-852.7 L1578.7,-857.9 L1582.7,-873.1 L1607.9,-867.2 L1621.9,-1012.4 L1625.7,-1052.7 L1617.9,-1054.6 L1622.6,-1073.8 L1606.4,-1077.6 L1608.5,-1089.4 L1611.3,-1097.1 L1614.9,-1106.2 L1620.9,-1118.8 L1627.3,-1117.4 L1636.1,-1208.7 L1638.1,-1264.1 L1638.5,-1274.3 L1643.2,-1309.6 L1652.6,-1397.5 L1715.0,-1560.2 L1729.2,-1604.5 L1902.5,-1671.0 L1919.5,-1677.8 L1922.4,-1679.4 L1924.8,-1681.5 L1927.3,-1684.4 L1929.2,-1687.9 L1930.5,-1691.3 L1930.9,-1696.2 L1930.6,-1702.4 L1928.3,-1780.1 L1927.4,-1795.2 L1927.2,-1805.6 L1926.9,-1825.6 L1926.5,-1831.9 L1925.7,-1837.2 L1924.6,-1842.0 L1923.1,-1846.7 L1920.7,-1852.4 L1917.1,-1858.5 L1913.5,-1863.3 L1910.8,-1867.8 L1908.1,-1873.8 L1905.8,-1879.7 L1904.9,-1884.4 L1904.2,-1889.6 L1903.9,-1894.9 L1904.0,-1900.0 L1904.6,-1905.9 L1906.0,-1911.8 L1907.9,-1917.0 L1909.8,-1921.8 L1912.3,-1926.4 L1915.3,-1931.9 L1917.4,-1937.0 L1919.1,-1943.5 L1922.3,-1948.3 L1921.2,-1993.0 L1919.6,-1995.5 L1919.0,-2025.8 L1918.2,-2061.6 L1918.8,-2066.5 L1920.4,-2071.6 L1924.4,-2079.5 L1951.1,-2137.0 L1951.7,-2138.0 L1956.4,-2148.2 L1960.9,-2158.0 L1965.8,-2168.0 L1970.8,-2178.2 L1973.2,-2183.3 L1999.4,-2237.2 L2027.5,-2296.8 L2088.4,-2420.2 L2051.8,-2461.1 L2022.0,-2397.7 L1996.2,-2342.7 L1992.3,-2334.9 L1984.4,-2318.7 L1968.5,-2320.0 L1964.1,-2320.3 L1962.6,-2318.8 L1964.7,-2316.9 L1956.5,-2309.7 L1950.1,-2303.7 L1948.9,-2278.3 L1946.5,-2273.2 L1938.7,-2273.5 L1937.4,-2274.0 L1835.2,-2316.1 L1833.0,-2317.3 L1830.6,-2318.8 L1827.0,-2321.6 L1824.1,-2324.3 L1821.7,-2326.9 L1819.4,-2330.1 L1817.6,-2332.9 L1816.2,-2335.8 L1815.0,-2338.9 L1814.3,-2340.9 L1813.8,-2343.5 L1813.3,-2346.5 L1812.9,-2350.6 L1812.9,-2356.4 L1812.2,-2376.3 L1815.0,-2376.5 L1814.6,-2386.9 L1814.2,-2404.2 L1816.8,-2404.3 L1816.6,-2416.1 L1813.7,-2416.0 L1812.3,-2465.8 L1815.1,-2465.9 L1814.6,-2477.5 L1811.9,-2477.4 L1810.8,-2514.2 L1824.3,-2528.7 L1841.5,-2529.3 L1854.4,-2529.8 L1871.3,-2530.3 L1887.6,-2530.9 L1902.3,-2531.4 L1908.6,-2531.6 L1908.3,-2537.3 L1908.2,-2543.2 L1907.2,-2562.3 L1906.9,-2598.9 L1906.4,-2599.5 L1906.3,-2603.2 L1907.4,-2603.2 L1904.8,-2691.3 L1902.6,-2774.1 L1902.2,-2776.7 L1902.0,-2781.5 L1865.9,-2780.2 L1841.9,-2782.3 L1662.3,-2776.0 L1662.3,-2777.6 L1661.9,-2785.3 L1576.7,-2782.3 L1576.5,-2796.4 L1565.3,-2798.9 L1563.3,-2859.5 L1894.7,-2871.0 L1900.2,-2878.6 L1900.0,-2900.1 L1899.6,-2918.6 L1899.3,-2930.3 L1898.8,-2941.6 L1872.5,-2954.1 L1871.4,-2981.6 L1898.5,-2995.0 L1896.0,-3058.7 L1895.3,-3061.9 L1868.5,-3074.4 L1867.6,-3108.5 L1893.1,-3121.7 L1881.7,-3260.1 L1884.8,-3321.8 L1886.2,-3422.2 L1886.1,-3531.4 L1888.5,-3546.8 L1888.7,-3554.1 L1886.3,-3563.1 L1888.8,-3563.1 L1888.8,-3571.1 L1890.3,-3776.6 L1890.1,-3785.8 L1887.2,-3785.7 L1887.3,-3823.5 L1885.6,-3825.9 L1883.1,-3864.9 L1888.2,-3900.5 L1887.5,-3943.7 L1885.8,-3954.0 L1888.4,-3986.0 L1886.6,-4024.6 L1882.1,-4066.0 L1873.6,-4133.0 L1877.6,-4151.4 L1875.9,-4169.4 L1860.6,-4182.5 L1838.1,-4182.2 L1803.9,-4177.7 L1781.7,-4177.7 L1761.4,-4185.2 L1734.9,-4203.4 L1734.9,-4236.0 L1734.2,-4276.2 L1736.8,-4309.6 L1745.6,-4335.7 L1893.0,-4338.4 L1896.3,-4547.4 L1896.3,-4848.2 L1894.8,-4957.4 L9850.9,-8243.2 L9850.9,9865.9 L-5.4,9865.9 L-5.4,873.1 Z" fill="#add7e1" stroke="none"><title>Biscayne Bay</title></path><path d="M170.7,329.5 L196.6,309.9 L210.1,299.8 L228.0,286.3 L174.2,215.0 L116.9,258.3 L170.7,329.5 Z" fill="#ece7dc" stroke="#d7d1c5" stroke-width="0.3"></path><path d="M245.3,273.2 L261.5,261.6 L304.9,227.5 L249.6,155.4 L190.0,201.1 L245.3,273.2 Z" fill="#ece7dc" stroke="#d7d1c5" stroke-width="0.3"></path><path d="M315.3,237.6 L317.8,237.3 L319.4,238.6 L319.5,240.8 L318.3,242.2 L257.1,289.1 L253.7,284.6 L315.3,237.6 Z" fill="#dcf5d2" stroke="#9fcf91" stroke-width="0.4"></path><path d="M315.3,237.6 L317.8,237.3 L319.4,238.6 L319.5,240.8 L318.3,242.2 L257.1,289.1 L253.7,284.6 L315.3,237.6 Z" fill="url(#park-dots)" stroke="none"/><path d="M315.3,237.6 L317.8,237.3 L319.4,238.6 L319.5,240.8 L318.3,242.2 L257.1,289.1 L253.7,284.6 L315.3,237.6 Z" fill="url(#park-canopy)" stroke="none"/><path d="M232.6,278.6 L234.7,279.2 L236.1,278.7 L236.8,277.3 L236.2,275.7 L193.7,219.5 L191.9,218.7 L190.6,219.1 L190.0,220.4 L190.3,222.1 L232.6,278.6 Z" fill="#dcf5d2" stroke="#9fcf91" stroke-width="0.4"></path><path d="M232.6,278.6 L234.7,279.2 L236.1,278.7 L236.8,277.3 L236.2,275.7 L193.7,219.5 L191.9,218.7 L190.6,219.1 L190.0,220.4 L190.3,222.1 L232.6,278.6 Z" fill="url(#park-dots)" stroke="none"/><path d="M232.6,278.6 L234.7,279.2 L236.1,278.7 L236.8,277.3 L236.2,275.7 L193.7,219.5 L191.9,218.7 L190.6,219.1 L190.0,220.4 L190.3,222.1 L232.6,278.6 Z" fill="url(#park-canopy)" stroke="none"/><path d="M242.1,275.1 L243.6,273.9 L200.9,218.1 L199.8,219.4 L242.1,275.1 Z" fill="#dcf5d2" stroke="#9fcf91" stroke-width="0.4"></path><path d="M242.1,275.1 L243.6,273.9 L200.9,218.1 L199.8,219.4 L242.1,275.1 Z" fill="url(#park-dots)" stroke="none"/><path d="M242.1,275.1 L243.6,273.9 L200.9,218.1 L199.8,219.4 L242.1,275.1 Z" fill="url(#park-canopy)" stroke="none"/><path d="M185.0,227.2 L186.2,224.9 L179.9,216.5 L177.4,217.3 L185.0,227.2 Z" fill="#dcf5d2" stroke="#9fcf91" stroke-width="0.4"></path><path d="M185.0,227.2 L186.2,224.9 L179.9,216.5 L177.4,217.3 L185.0,227.2 Z" fill="url(#park-dots)" stroke="none"/><path d="M185.0,227.2 L186.2,224.9 L179.9,216.5 L177.4,217.3 L185.0,227.2 Z" fill="url(#park-canopy)" stroke="none"/><path d="M186.8,229.7 L194.5,239.6 L195.8,237.8 L189.3,229.0 L186.8,229.7 Z" fill="#dcf5d2" stroke="#9fcf91" stroke-width="0.4"></path><path d="M186.8,229.7 L194.5,239.6 L195.8,237.8 L189.3,229.0 L186.8,229.7 Z" fill="url(#park-dots)" stroke="none"/><path d="M186.8,229.7 L194.5,239.6 L195.8,237.8 L189.3,229.0 L186.8,229.7 Z" fill="url(#park-canopy)" stroke="none"/><path d="M196.3,242.3 L228.9,285.3 L230.6,284.1 L228.4,281.3 L198.3,241.0 L196.3,242.3 Z" fill="#dcf5d2" stroke="#9fcf91" stroke-width="0.4"></path><path d="M196.3,242.3 L228.9,285.3 L230.6,284.1 L228.4,281.3 L198.3,241.0 L196.3,242.3 Z" fill="url(#park-dots)" stroke="none"/><path d="M196.3,242.3 L228.9,285.3 L230.6,284.1 L228.4,281.3 L198.3,241.0 L196.3,242.3 Z" fill="url(#park-canopy)" stroke="none"/><path d="M47.2,89.8 L41.8,93.8 L41.0,92.7 L39.7,93.7 L36.6,89.7 L43.4,84.6 L47.2,89.8 Z" fill="#d6d2c9" stroke="#bab6ad" stroke-width="0.4"></path><path d="M50.5,98.4 L46.5,101.5 L41.6,95.3 L45.6,92.0 L50.5,98.4 Z" fill="#d6d2c9" stroke="#bab6ad" stroke-width="0.4"></path><path d="M143.8,248.3 L140.5,250.9 L141.6,252.3 L139.1,254.3 L140.6,256.3 L131.8,263.2 L129.4,260.0 L128.0,261.1 L127.5,260.1 L127.8,258.0 L127.4,256.6 L126.5,257.4 L124.4,254.7 L133.7,247.1 L134.8,248.5 L140.5,244.0 L143.8,248.3 Z" fill="#d6d2c9" stroke="#bab6ad" stroke-width="0.4"></path><path d="M221.6,196.5 L208.5,205.9 L206.4,202.9 L205.5,203.5 L202.9,199.9 L199.0,202.7 L196.0,198.5 L213.9,185.7 L221.6,196.5 Z" fill="#d6d2c9" stroke="#bab6ad" stroke-width="0.4"></path><path d="M104.3,34.1 L98.2,38.4 L94.2,32.9 L100.3,28.5 L104.3,34.1 Z" fill="#d6d2c9" stroke="#bab6ad" stroke-width="0.4"></path><path d="M47.5,128.4 L54.0,137.3 L42.0,146.1 L38.0,140.7 L37.3,141.3 L34.2,136.8 L42.6,130.5 L43.6,130.3 L44.0,130.8 L47.5,128.4 Z" fill="#d6d2c9" stroke="#bab6ad" stroke-width="0.4"></path><path d="M50.8,154.1 L49.1,155.4 L48.3,154.3 L47.6,154.9 L42.6,148.3 L58.2,136.3 L63.1,142.4 L50.0,153.1 L50.8,154.1 Z" fill="#d6d2c9" stroke="#bab6ad" stroke-width="0.4"></path><path d="M0.8,192.9 L-5.4,197.5 L-11.5,189.5 L9.0,174.2 L14.0,181.0 L9.0,184.7 L9.7,185.6 L0.5,192.5 L0.8,192.9 Z" fill="#d6d2c9" stroke="#bab6ad" stroke-width="0.4"></path><path d="M122.5,-1.9 L126.4,3.1 L127.2,2.5 L130.7,7.0 L120.6,14.9 L117.9,11.4 L115.8,13.0 L112.1,8.3 L114.2,6.7 L113.4,5.7 L116.1,3.1 L122.5,-1.9 Z" fill="#d6d2c9" stroke="#bab6ad" stroke-width="0.4"></path><path d="M227.4,202.4 L225.5,203.9 L229.0,208.6 L212.7,221.0 L207.7,214.3 L212.8,210.5 L212.1,208.6 L211.3,206.0 L215.9,202.5 L216.2,203.0 L223.6,197.3 L227.4,202.4 Z" fill="#d6d2c9" stroke="#bab6ad" stroke-width="0.4"></path><path d="M115.4,70.3 L116.0,71.1 L118.7,69.1 L119.3,69.9 L121.5,68.2 L124.5,72.2 L109.8,83.5 L106.3,78.8 L107.4,78.0 L105.3,75.3 L104.5,76.0 L101.7,72.3 L116.2,61.2 L120.3,66.6 L115.4,70.3 Z" fill="#d6d2c9" stroke="#bab6ad" stroke-width="0.4"></path><path d="M14.7,78.0 L-2.2,90.7 L-5.6,86.5 L-6.0,85.3 L-10.0,81.2 L7.3,68.2 L14.7,78.0 Z" fill="#d6d2c9" stroke="#bab6ad" stroke-width="0.4"></path><path d="M86.9,23.9 L88.1,25.5 L81.5,30.6 L82.0,31.4 L78.8,34.0 L78.2,33.3 L74.9,35.8 L71.4,31.4 L69.6,29.8 L70.1,29.4 L66.3,24.4 L71.7,20.3 L75.6,25.4 L83.5,19.3 L82.4,17.8 L88.1,13.4 L92.7,19.4 L86.9,23.9 Z" fill="#d6d2c9" stroke="#bab6ad" stroke-width="0.4"></path><path d="M175.6,231.3 L165.9,238.5 L162.8,234.4 L159.4,237.0 L155.8,232.2 L157.5,231.0 L155.9,228.8 L169.0,219.0 L170.4,220.9 L172.2,223.3 L170.6,224.5 L175.6,231.3 Z" fill="#d6d2c9" stroke="#bab6ad" stroke-width="0.4"></path><path d="M52.4,67.1 L54.0,69.2 L53.8,70.7 L52.1,71.8 L59.4,75.2 L57.3,80.5 L55.3,79.7 L53.9,83.0 L52.3,82.3 L50.9,85.6 L40.6,81.8 L34.2,72.6 L43.3,66.2 L44.4,67.8 L51.2,63.0 L53.6,66.2 L52.4,67.1 Z" fill="#d6d2c9" stroke="#bab6ad" stroke-width="0.4"></path><path d="M18.1,74.8 L15.4,76.9 L12.9,73.3 L15.6,71.3 L18.1,74.8 Z" fill="#d6d2c9" stroke="#bab6ad" stroke-width="0.4"></path><path d="M9.9,106.1 L5.3,109.7 L3.6,107.5 L8.2,103.9 L9.9,106.1 Z" fill="#d6d2c9" stroke="#bab6ad" stroke-width="0.4"></path><path d="M202.8,-1.7 L198.2,1.7 L194.6,-3.1 L199.2,-6.6 L202.8,-1.7 Z" fill="#d6d2c9" stroke="#bab6ad" stroke-width="0.4"></path><path d="M34.3,117.1 L25.8,123.7 L22.7,119.6 L23.3,119.2 L21.9,117.5 L21.1,118.2 L20.4,117.3 L19.5,118.0 L17.0,114.7 L31.5,103.4 L35.8,108.9 L31.0,112.6 L34.3,117.1 Z" fill="#d6d2c9" stroke="#bab6ad" stroke-width="0.4"></path><path d="M25.8,29.5 L31.5,37.6 L31.1,37.9 L33.2,40.9 L31.2,42.3 L32.8,44.6 L28.1,47.9 L25.7,44.5 L18.1,49.9 L14.3,44.6 L13.7,45.1 L13.2,44.4 L10.0,46.6 L4.6,38.9 L10.8,34.5 L12.7,37.3 L21.7,30.9 L22.4,31.9 L25.8,29.5 Z" fill="#d6d2c9" stroke="#bab6ad" stroke-width="0.4"></path><path d="M245.5,5.9 L229.4,18.2 L223.4,9.8 L242.0,-4.3 L246.2,1.3 L243.6,3.3 L245.5,5.9 Z" fill="#d6d2c9" stroke="#bab6ad" stroke-width="0.4"></path><path d="M36.6,52.5 L39.9,56.7 L44.4,53.2 L48.1,58.2 L35.8,67.7 L33.3,64.5 L32.7,64.9 L28.9,60.0 L23.7,64.1 L20.1,59.3 L35.0,47.3 L38.1,51.4 L36.6,52.5 Z" fill="#d6d2c9" stroke="#bab6ad" stroke-width="0.4"></path><path d="M75.4,-9.2 L83.3,1.6 L71.2,10.9 L62.9,0.1 L67.8,-3.6 L69.8,-3.3 L70.0,-4.6 L66.8,-5.1 L67.4,-10.2 L75.4,-9.2 Z" fill="#d6d2c9" stroke="#bab6ad" stroke-width="0.4"></path><path d="M178.5,-8.4 L182.4,-3.2 L186.0,-5.9 L189.1,-1.6 L175.9,8.3 L175.0,7.2 L173.1,8.6 L171.0,5.8 L173.2,4.1 L170.8,0.9 L172.1,-0.1 L170.5,-2.4 L178.5,-8.4 Z" fill="#d6d2c9" stroke="#bab6ad" stroke-width="0.4"></path><path d="M187.1,250.3 L188.8,252.6 L190.2,251.5 L193.7,256.1 L185.2,262.5 L182.4,258.7 L175.3,264.6 L171.9,260.0 L178.0,255.0 L176.8,253.4 L181.5,249.9 L181.2,249.5 L187.9,244.4 L190.4,247.8 L187.1,250.3 Z" fill="#d6d2c9" stroke="#bab6ad" stroke-width="0.4"></path><path d="M252.8,171.7 L247.8,175.6 L246.5,173.9 L243.8,175.9 L241.5,172.9 L239.4,174.5 L235.3,169.2 L246.1,160.7 L250.5,165.7 L251.7,167.9 L250.5,168.8 L252.8,171.7 Z" fill="#d6d2c9" stroke="#bab6ad" stroke-width="0.4"></path><path d="M199.2,11.3 L190.6,17.9 L189.3,16.1 L185.6,18.9 L178.4,9.4 L190.8,0.0 L199.2,11.3 Z" fill="#d6d2c9" stroke="#bab6ad" stroke-width="0.4"></path><path d="M22.6,92.8 L29.7,102.2 L17.3,111.9 L12.8,106.1 L12.3,106.5 L11.5,105.5 L10.7,106.1 L8.4,103.0 L17.2,96.2 L17.6,96.7 L22.6,92.8 Z" fill="#d6d2c9" stroke="#bab6ad" stroke-width="0.4"></path><path d="M43.5,114.2 L45.8,117.2 L44.9,117.9 L48.0,122.0 L40.2,128.1 L40.9,129.1 L34.5,134.0 L33.5,134.4 L33.0,133.7 L32.4,134.2 L31.3,132.7 L31.8,132.2 L31.3,131.4 L30.0,132.4 L25.6,126.7 L35.0,119.1 L35.4,119.6 L37.5,118.0 L36.9,117.3 L39.5,115.3 L40.1,116.1 L42.3,114.4 L42.6,114.8 L43.5,114.2 Z" fill="#d6d2c9" stroke="#bab6ad" stroke-width="0.4"></path><path d="M253.4,174.4 L254.6,175.9 L257.7,179.9 L260.8,177.5 L263.8,181.4 L251.8,190.9 L249.6,188.0 L246.7,190.3 L242.9,185.4 L245.9,183.0 L244.6,181.3 L253.4,174.4 Z" fill="#d6d2c9" stroke="#bab6ad" stroke-width="0.4"></path><path d="M108.7,-4.8 L110.2,-2.9 L112.4,-4.5 L116.0,0.2 L103.5,9.7 L101.4,7.0 L100.8,7.5 L97.8,3.5 L108.7,-4.8 Z" fill="#d6d2c9" stroke="#bab6ad" stroke-width="0.4"></path><path d="M-6.4,-6.0 L-2.0,-0.2 L-0.7,-1.2 L2.4,3.0 L-3.9,7.8 L-3.5,8.4 L-16.7,18.5 L-23.3,9.8 L-18.0,5.8 L-17.6,6.2 L-15.3,4.5 L-17.0,2.2 L-6.4,-6.0 Z" fill="#d6d2c9" stroke="#bab6ad" stroke-width="0.4"></path><path d="M234.5,-0.2 L222.2,9.4 L214.3,-1.0 L233.4,-15.9 L238.3,-9.6 L231.4,-4.2 L234.5,-0.2 Z" fill="#d6d2c9" stroke="#bab6ad" stroke-width="0.4"></path><path d="M141.5,25.3 L143.4,27.7 L145.3,26.1 L151.9,34.4 L143.1,41.5 L142.7,40.9 L134.6,47.5 L129.5,41.2 L138.7,33.7 L137.7,32.4 L139.7,30.8 L134.9,24.8 L140.3,20.5 L143.1,24.0 L141.5,25.3 Z" fill="#d6d2c9" stroke="#bab6ad" stroke-width="0.4"></path><path d="M264.1,233.7 L271.3,243.5 L263.1,249.7 L262.5,248.8 L255.7,253.9 L253.4,255.6 L245.2,244.5 L255.5,236.8 L256.6,238.3 L257.1,237.9 L257.6,238.5 L264.1,233.7 Z" fill="#d6d2c9" stroke="#bab6ad" stroke-width="0.4"></path><path d="M90.3,38.1 L92.3,40.5 L94.3,38.9 L98.6,44.3 L97.2,45.5 L99.6,48.5 L89.4,56.7 L85.7,52.1 L88.7,49.7 L86.6,47.2 L85.3,48.3 L82.2,44.4 L85.1,42.1 L84.6,41.5 L86.4,40.0 L87.0,40.8 L90.3,38.1 Z" fill="#d6d2c9" stroke="#bab6ad" stroke-width="0.4"></path><path d="M77.0,99.3 L78.3,100.9 L78.7,100.5 L80.6,100.5 L82.6,103.1 L82.4,104.9 L83.8,106.8 L83.6,108.8 L72.1,117.7 L65.1,108.5 L77.0,99.3 Z" fill="#d6d2c9" stroke="#bab6ad" stroke-width="0.4"></path><path d="M65.1,79.5 L70.2,86.2 L71.8,84.9 L73.1,86.7 L71.7,87.7 L72.8,89.2 L61.8,97.6 L54.3,87.7 L65.1,79.5 Z" fill="#d6d2c9" stroke="#bab6ad" stroke-width="0.4"></path><path d="M273.1,194.7 L262.2,203.2 L255.2,194.1 L266.3,185.8 L273.1,194.7 Z" fill="#d6d2c9" stroke="#bab6ad" stroke-width="0.4"></path><path d="M22.5,89.3 L10.3,98.8 L7.4,95.2 L9.0,93.8 L7.6,92.0 L3.4,95.0 L0.3,91.0 L14.9,80.1 L22.5,89.3 Z" fill="#d6d2c9" stroke="#bab6ad" stroke-width="0.4"></path><path d="M119.7,80.6 L122.0,83.8 L124.7,81.8 L127.6,85.7 L128.1,85.4 L133.0,92.0 L122.0,100.2 L111.9,86.5 L119.7,80.6 Z" fill="#d6d2c9" stroke="#bab6ad" stroke-width="0.4"></path><path d="M66.1,136.7 L61.9,139.9 L59.1,136.2 L63.3,133.0 L66.1,136.7 Z" fill="#d6d2c9" stroke="#bab6ad" stroke-width="0.4"></path><path d="M93.9,121.8 L90.3,124.5 L89.9,124.0 L87.0,126.2 L87.4,126.7 L83.2,129.9 L81.2,127.2 L80.6,127.7 L80.4,127.3 L76.6,130.2 L72.8,125.2 L89.1,112.9 L94.6,120.2 L93.4,121.2 L93.9,121.8 Z" fill="#d6d2c9" stroke="#bab6ad" stroke-width="0.4"></path><path d="M154.0,39.0 L155.9,41.7 L156.5,41.3 L164.0,51.7 L155.5,57.8 L147.9,47.4 L149.7,46.1 L147.8,43.5 L154.0,39.0 Z" fill="#d6d2c9" stroke="#bab6ad" stroke-width="0.4"></path><path d="M130.7,9.8 L134.6,15.1 L135.6,14.4 L138.6,18.5 L125.3,28.4 L122.3,24.3 L119.5,26.4 L116.2,22.0 L122.0,17.7 L121.3,16.8 L130.7,9.8 Z" fill="#d6d2c9" stroke="#bab6ad" stroke-width="0.4"></path><path d="M106.0,65.7 L98.7,71.3 L89.8,59.5 L108.9,44.9 L116.9,55.5 L104.9,64.3 L106.0,65.7 Z" fill="#d6d2c9" stroke="#bab6ad" stroke-width="0.4"></path><path d="M202.3,18.6 L205.5,22.8 L206.4,22.2 L210.3,27.3 L209.4,28.0 L211.4,30.6 L201.0,38.6 L198.1,34.8 L200.2,33.2 L199.4,32.1 L198.8,32.5 L197.6,30.9 L198.1,30.5 L196.6,28.6 L193.2,31.1 L190.5,27.6 L202.3,18.6 Z" fill="#d6d2c9" stroke="#bab6ad" stroke-width="0.4"></path><path d="M0.2,162.7 L2.2,165.3 L2.8,164.9 L8.5,172.4 L-4.3,182.2 L-11.2,173.0 L-8.6,171.0 L-9.4,170.0 L0.2,162.7 Z" fill="#d6d2c9" stroke="#bab6ad" stroke-width="0.4"></path><path d="M166.1,54.7 L171.3,61.5 L163.7,67.3 L164.1,67.9 L158.0,72.2 L152.6,65.1 L156.3,62.2 L156.0,61.8 L157.0,61.1 L157.3,61.5 L159.9,59.4 L159.6,59.1 L160.8,58.2 L161.1,58.6 L166.1,54.7 Z" fill="#d6d2c9" stroke="#bab6ad" stroke-width="0.4"></path><path d="M178.1,232.7 L180.3,235.6 L181.2,235.0 L186.6,242.1 L178.7,248.3 L178.2,247.7 L171.9,252.6 L171.2,251.7 L169.0,253.5 L162.7,245.3 L165.0,243.5 L164.6,242.9 L178.1,232.7 Z" fill="#d6d2c9" stroke="#bab6ad" stroke-width="0.4"></path><path d="M232.2,248.0 L225.9,239.7 L232.5,234.7 L250.2,258.0 L245.5,261.6 L247.9,264.7 L246.2,265.9 L233.9,249.8 L231.9,251.3 L230.5,249.4 L232.2,248.0 Z" fill="#d6d2c9" stroke="#bab6ad" stroke-width="0.4"></path><path d="M62.2,20.9 L49.4,3.9 L58.2,-2.8 L71.1,14.1 L62.2,20.9 Z" fill="#d6d2c9" stroke="#bab6ad" stroke-width="0.4"></path><path d="M255.5,307.3 L264.1,300.8 L273.5,293.6 L338.9,243.8" fill="none" stroke="#cf828d" stroke-width="1.3" stroke-dasharray="1.6 3.0" opacity="0.62" stroke-linecap="round" stroke-linejoin="round"></path><path d="M192.0,204.8 L197.7,212.3 L200.7,216.2 L244.8,274.5 L261.5,261.6 L305.7,227.6 L283.1,197.7 L279.6,193.1 L262.0,170.3 L252.6,157.5 L249.7,153.7" fill="none" stroke="#cf828d" stroke-width="1.3" stroke-dasharray="1.6 3.0" opacity="0.62" stroke-linecap="round" stroke-linejoin="round"></path><path d="M114.7,256.4 L110.9,253.6 L107.3,250.9" fill="none" stroke="#cf828d" stroke-width="1.3" stroke-dasharray="1.6 3.0" opacity="0.62" stroke-linecap="round" stroke-linejoin="round"></path><path d="M174.8,214.7 L176.3,216.8 L185.5,229.0 L194.8,241.3 L228.9,286.4" fill="none" stroke="#cf828d" stroke-width="1.3" stroke-dasharray="1.6 3.0" opacity="0.62" stroke-linecap="round" stroke-linejoin="round"></path><path d="M116.9,108.9 L113.4,111.5 L107.3,116.3 L104.1,118.7" fill="none" stroke="#cf828d" stroke-width="1.3" stroke-dasharray="1.6 3.0" opacity="0.62" stroke-linecap="round" stroke-linejoin="round"></path><path d="M116.9,105.6 L40.8,5.0 L99.6,-40.5 L101.0,-40.9 L101.5,-40.9 L102.0,-41.0 L102.9,-40.4 L180.6,61.1 L120.0,106.7 L119.1,107.0 L118.3,106.9 L117.6,106.4 L116.9,105.6" fill="none" stroke="#cf828d" stroke-width="1.3" stroke-dasharray="1.6 3.0" opacity="0.62" stroke-linecap="round" stroke-linejoin="round"></path><path d="M194.6,50.5 L191.8,52.6 L185.1,57.6 L181.5,60.4" fill="none" stroke="#cf828d" stroke-width="1.3" stroke-dasharray="1.6 3.0" opacity="0.62" stroke-linecap="round" stroke-linejoin="round"></path><path d="M199.1,46.6 L197.7,47.5 L196.3,47.7 L195.6,47.6 L195.3,47.6 L194.1,47.1 L193.1,46.3 L119.6,-56.5" fill="none" stroke="#cf828d" stroke-width="1.3" stroke-dasharray="1.6 3.0" opacity="0.62" stroke-linecap="round" stroke-linejoin="round"></path><path d="M179.7,-102.8 L257.7,1.6 L199.1,46.6" fill="none" stroke="#cf828d" stroke-width="1.3" stroke-dasharray="1.6 3.0" opacity="0.62" stroke-linecap="round" stroke-linejoin="round"></path><path d="M201.0,56.6 L202.2,58.2" fill="none" stroke="#cf828d" stroke-width="1.3" stroke-dasharray="1.6 3.0" opacity="0.62" stroke-linecap="round" stroke-linejoin="round"></path><path d="M194.6,50.5 L195.5,49.3 L196.6,50.7" fill="none" stroke="#cf828d" stroke-width="1.3" stroke-dasharray="1.6 3.0" opacity="0.62" stroke-linecap="round" stroke-linejoin="round"></path><path d="M196.6,50.7 L199.4,54.4 L201.0,56.6" fill="none" stroke="#cf828d" stroke-width="1.3" stroke-dasharray="1.6 3.0" opacity="0.62" stroke-linecap="round" stroke-linejoin="round"></path><path d="M42.7,166.8 L46.3,171.1 L49.7,175.1" fill="none" stroke="#cf828d" stroke-width="1.3" stroke-dasharray="1.6 3.0" opacity="0.62" stroke-linecap="round" stroke-linejoin="round"></path><path d="M44.2,164.0 L43.6,163.1 L-19.4,80.4 L-31.5,63.5 L-31.8,62.1 L-31.6,60.4 L-30.8,59.3 L-25.4,55.3 L24.3,17.5 L101.6,118.5 L102.0,119.5 L102.1,120.2 L101.7,121.0 L64.7,149.0 L45.7,163.9 L44.9,164.2 L44.2,164.0" fill="none" stroke="#cf828d" stroke-width="1.3" stroke-dasharray="1.6 3.0" opacity="0.62" stroke-linecap="round" stroke-linejoin="round"></path><path d="M-69.5,-107.9 L11.7,-2.5 L12.6,-1.1 L12.9,-0.1 L12.6,1.1 L-37.3,39.1 L-43.1,43.6 L-44.0,44.3 L-45.4,44.6 L-46.5,44.2 L-48.1,42.0" fill="none" stroke="#cf828d" stroke-width="1.3" stroke-dasharray="1.6 3.0" opacity="0.62" stroke-linecap="round" stroke-linejoin="round"></path><path d="M35.1,194.0 L36.9,197.5 L38.0,200.3 L49.7,213.6" fill="none" stroke="#cf828d" stroke-width="1.3" stroke-dasharray="1.6 3.0" opacity="0.62" stroke-linecap="round" stroke-linejoin="round"></path><path d="M-0.1,322.0 L-37.1,272.0 L-47.7,257.9 L-51.5,252.7" fill="none" stroke="#cf828d" stroke-width="1.3" stroke-dasharray="1.6 3.0" opacity="0.62" stroke-linecap="round" stroke-linejoin="round"></path><path d="M66.6,195.9 L72.1,204.9 L75.2,209.9" fill="none" stroke="#cf828d" stroke-width="1.3" stroke-dasharray="1.6 3.0" opacity="0.62" stroke-linecap="round" stroke-linejoin="round"></path><path d="M75.2,209.9 L80.9,217.5 L107.3,250.9" fill="none" stroke="#cf828d" stroke-width="1.3" stroke-dasharray="1.6 3.0" opacity="0.62" stroke-linecap="round" stroke-linejoin="round"></path><path d="M83.7,258.1 L80.9,254.4 L62.8,229.4 L57.4,224.4" fill="none" stroke="#cf828d" stroke-width="1.3" stroke-dasharray="1.6 3.0" opacity="0.62" stroke-linecap="round" stroke-linejoin="round"></path><path d="M57.4,224.4 L53.5,219.0 L49.7,213.6" fill="none" stroke="#cf828d" stroke-width="1.3" stroke-dasharray="1.6 3.0" opacity="0.62" stroke-linecap="round" stroke-linejoin="round"></path><path d="M26.0,180.2 L29.2,184.3 L32.3,188.4" fill="none" stroke="#cf828d" stroke-width="1.3" stroke-dasharray="1.6 3.0" opacity="0.62" stroke-linecap="round" stroke-linejoin="round"></path><path d="M32.3,188.4 L35.1,194.0" fill="none" stroke="#cf828d" stroke-width="1.3" stroke-dasharray="1.6 3.0" opacity="0.62" stroke-linecap="round" stroke-linejoin="round"></path><path d="M195.5,49.3 L195.6,47.6" fill="none" stroke="#cf828d" stroke-width="1.3" stroke-dasharray="1.6 3.0" opacity="0.62" stroke-linecap="round" stroke-linejoin="round"></path><path d="M181.5,60.4 L180.6,61.1" fill="none" stroke="#cf828d" stroke-width="1.3" stroke-dasharray="1.6 3.0" opacity="0.62" stroke-linecap="round" stroke-linejoin="round"></path><path d="M118.3,106.9 L116.9,108.9" fill="none" stroke="#cf828d" stroke-width="1.3" stroke-dasharray="1.6 3.0" opacity="0.62" stroke-linecap="round" stroke-linejoin="round"></path><path d="M27.9,-9.5 L24.5,-6.9 L17.9,-2.2 L14.8,0.1" fill="none" stroke="#cf828d" stroke-width="1.3" stroke-dasharray="1.6 3.0" opacity="0.62" stroke-linecap="round" stroke-linejoin="round"></path><path d="M14.8,0.1 L12.9,-0.1" fill="none" stroke="#cf828d" stroke-width="1.3" stroke-dasharray="1.6 3.0" opacity="0.62" stroke-linecap="round" stroke-linejoin="round"></path><path d="M104.1,118.7 L102.1,120.2" fill="none" stroke="#cf828d" stroke-width="1.3" stroke-dasharray="1.6 3.0" opacity="0.62" stroke-linecap="round" stroke-linejoin="round"></path><path d="M44.2,164.0 L42.7,166.8" fill="none" stroke="#cf828d" stroke-width="1.3" stroke-dasharray="1.6 3.0" opacity="0.62" stroke-linecap="round" stroke-linejoin="round"></path><path d="M-44.3,229.3 L-43.5,230.0 L-42.9,230.2 L-42.4,230.4 L-41.2,230.1 L-32.6,223.2 L22.3,183.5 L23.4,182.4 L23.4,181.1 L22.7,179.9 L-44.6,90.6 L-51.1,82.2" fill="none" stroke="#cf828d" stroke-width="1.3" stroke-dasharray="1.6 3.0" opacity="0.62" stroke-linecap="round" stroke-linejoin="round"></path><path d="M-117.0,133.3 L-44.3,229.3" fill="none" stroke="#cf828d" stroke-width="1.3" stroke-dasharray="1.6 3.0" opacity="0.62" stroke-linecap="round" stroke-linejoin="round"></path><path d="M26.0,180.2 L23.4,181.1" fill="none" stroke="#cf828d" stroke-width="1.3" stroke-dasharray="1.6 3.0" opacity="0.62" stroke-linecap="round" stroke-linejoin="round"></path><path d="M24.3,17.5 L25.3,15.5" fill="none" stroke="#cf828d" stroke-width="1.3" stroke-dasharray="1.6 3.0" opacity="0.62" stroke-linecap="round" stroke-linejoin="round"></path><path d="M40.8,5.0 L39.3,5.1" fill="none" stroke="#cf828d" stroke-width="1.3" stroke-dasharray="1.6 3.0" opacity="0.62" stroke-linecap="round" stroke-linejoin="round"></path><path d="M25.3,15.5 L29.0,12.5 L35.7,7.7 L39.3,5.1" fill="none" stroke="#cf828d" stroke-width="1.3" stroke-dasharray="1.6 3.0" opacity="0.62" stroke-linecap="round" stroke-linejoin="round"></path><path d="M49.7,175.1 L54.9,178.2" fill="none" stroke="#cf828d" stroke-width="1.3" stroke-dasharray="1.6 3.0" opacity="0.62" stroke-linecap="round" stroke-linejoin="round"></path><path d="M202.2,58.2 L203.2,59.4 L204.2,60.6" fill="none" stroke="#cf828d" stroke-width="1.3" stroke-dasharray="1.6 3.0" opacity="0.62" stroke-linecap="round" stroke-linejoin="round"></path><path d="M54.9,178.2 L55.8,179.5 L58.2,181.5 L62.6,186.3 L65.5,190.0 L66.8,191.9 L66.6,195.9" fill="none" stroke="#8fb58e" stroke-width="1.7" opacity="0.58" stroke-linecap="round" stroke-linejoin="round"></path><path d="M127.5,120.0 L127.9,123.6 L127.6,126.8 L126.9,129.5 L126.0,131.8 L124.3,134.6 L122.6,136.8 L120.2,138.5 L118.2,139.4 L111.1,140.7" fill="none" stroke="#8fb58e" stroke-width="1.7" opacity="0.58" stroke-linecap="round" stroke-linejoin="round"></path><path d="M52.6,181.5 L54.9,178.2 L60.5,174.4 L64.7,171.5 L67.0,170.0 L68.7,169.1 L70.1,168.5 L72.2,167.9 L74.2,167.2 L76.8,166.0 L79.4,164.3 L83.0,161.8 L90.6,156.0 L107.7,143.0 L111.1,140.7 L115.4,135.4 L117.8,131.5 L120.9,126.8 L123.1,123.7 L124.9,121.9 L127.5,120.0 L130.9,117.5 L154.2,98.6 L159.1,94.3 L167.2,87.4 L175.2,80.7 L203.2,59.4 L231.2,37.8 L269.1,8.4 L276.1,2.9 L279.6,0.2 L293.6,-10.8 L317.5,-28.6" fill="none" stroke="#5fa977" stroke-width="2.1" opacity="0.66" stroke-linecap="round" stroke-linejoin="round"><title>M-Path</title></path><path d="M37.6,193.2 L44.7,187.7 L52.6,181.5" fill="none" stroke="#5fa977" stroke-width="2.1" opacity="0.66" stroke-linecap="round" stroke-linejoin="round"><title>M-Path</title></path><path d="M-34.0,248.1 L-32.5,246.9 L-26.8,242.3 L-21.0,237.8 L-16.5,237.2 L-12.8,236.0 L-10.2,234.9 L-7.7,233.5 L-3.3,230.5 L9.2,220.6 L16.4,215.4 L18.2,213.7 L19.7,212.1 L21.5,209.8 L23.2,207.4 L25.6,203.3 L27.6,199.5 L30.1,197.7 L35.1,194.0" fill="none" stroke="#5fa977" stroke-width="2.1" opacity="0.66" stroke-linecap="round" stroke-linejoin="round"><title>M-Path</title></path><path d="M-21.0,237.8 L-19.8,235.1 L-17.1,232.4 L-15.1,230.3 L-12.9,228.2 L-10.1,226.1 L-6.5,223.4 L6.9,213.3 L22.6,201.1 L27.6,199.5" fill="none" stroke="#5fa977" stroke-width="2.1" opacity="0.66" stroke-linecap="round" stroke-linejoin="round"><title>M-Path</title></path><path d="M37.6,193.2 L35.1,194.0" fill="none" stroke="#5fa977" stroke-width="2.1" opacity="0.66" stroke-linecap="round" stroke-linejoin="round"><title>M-Path</title></path><path d="M202.1,203.0 L203.6,205.2 L203.6,207.0 L202.7,208.4 L197.7,212.3 L193.7,215.4" fill="none" stroke="#cec8bb" stroke-width="3.2" stroke-linecap="round" stroke-linejoin="round"/><path d="M202.1,203.0 L203.6,205.2 L203.6,207.0 L202.7,208.4 L197.7,212.3 L193.7,215.4" fill="none" stroke="#ffffff" stroke-width="2.2" stroke-linecap="round" stroke-linejoin="round"></path><path d="M212.1,208.6 L200.7,216.2 L196.5,219.2" fill="none" stroke="#cec8bb" stroke-width="3.2" stroke-linecap="round" stroke-linejoin="round"/><path d="M212.1,208.6 L200.7,216.2 L196.5,219.2" fill="none" stroke="#ffffff" stroke-width="2.2" stroke-linecap="round" stroke-linejoin="round"></path><path d="M189.9,245.1 L194.8,241.3 L199.1,237.8" fill="none" stroke="#cec8bb" stroke-width="3.2" stroke-linecap="round" stroke-linejoin="round"/><path d="M189.9,245.1 L194.8,241.3 L199.1,237.8" fill="none" stroke="#ffffff" stroke-width="2.2" stroke-linecap="round" stroke-linejoin="round"></path><path d="M180.3,233.2 L185.5,229.0 L189.8,225.4" fill="none" stroke="#cec8bb" stroke-width="3.2" stroke-linecap="round" stroke-linejoin="round"/><path d="M180.3,233.2 L185.5,229.0 L189.8,225.4" fill="none" stroke="#ffffff" stroke-width="2.2" stroke-linecap="round" stroke-linejoin="round"></path><path d="M170.4,220.9 L176.3,216.8 L179.8,214.7 L185.7,214.6" fill="none" stroke="#cec8bb" stroke-width="3.2" stroke-linecap="round" stroke-linejoin="round"/><path d="M170.4,220.9 L176.3,216.8 L179.8,214.7 L185.7,214.6" fill="none" stroke="#ffffff" stroke-width="2.2" stroke-linecap="round" stroke-linejoin="round"></path><path d="M247.8,161.3 L252.6,157.5 L255.4,155.7 L262.1,154.5" fill="none" stroke="#cec8bb" stroke-width="3.2" stroke-linecap="round" stroke-linejoin="round"/><path d="M247.8,161.3 L252.6,157.5 L255.4,155.7 L262.1,154.5" fill="none" stroke="#ffffff" stroke-width="2.2" stroke-linecap="round" stroke-linejoin="round"></path><path d="M254.6,175.9 L262.0,170.3 L266.4,167.0" fill="none" stroke="#cec8bb" stroke-width="3.2" stroke-linecap="round" stroke-linejoin="round"/><path d="M254.6,175.9 L262.0,170.3 L266.4,167.0" fill="none" stroke="#ffffff" stroke-width="2.2" stroke-linecap="round" stroke-linejoin="round"></path><path d="M255.7,253.9 L261.5,261.6 L268.6,270.9" fill="none" stroke="#cec8bb" stroke-width="3.2" stroke-linecap="round" stroke-linejoin="round"/><path d="M255.7,253.9 L261.5,261.6 L268.6,270.9" fill="none" stroke="#ffffff" stroke-width="2.2" stroke-linecap="round" stroke-linejoin="round"></path><path d="M195.4,57.4 L191.8,52.6 L114.7,-48.9" fill="none" stroke="#cec8bb" stroke-width="4.3" stroke-linecap="round" stroke-linejoin="round"/><path d="M195.4,57.4 L191.8,52.6 L114.7,-48.9" fill="none" stroke="#ffffff" stroke-width="3.2" stroke-linecap="round" stroke-linejoin="round"><title>Southwest 23rd Road</title></path><path d="M253.2,294.6 L247.5,287.0 L240.5,277.5 L196.5,219.2 L193.7,215.4 L193.0,214.6 L190.3,212.8 L187.8,213.1 L185.7,214.6 L184.9,217.1 L185.7,220.1 L189.8,225.4 L199.1,237.8 L231.6,280.5 L233.4,282.9 L240.5,292.4 L246.2,300.0" fill="none" stroke="#cec8bb" stroke-width="4.3" stroke-linecap="round" stroke-linejoin="round"/><path d="M253.2,294.6 L247.5,287.0 L240.5,277.5 L196.5,219.2 L193.7,215.4 L193.0,214.6 L190.3,212.8 L187.8,213.1 L185.7,214.6 L184.9,217.1 L185.7,220.1 L189.8,225.4 L199.1,237.8 L231.6,280.5 L233.4,282.9 L240.5,292.4 L246.2,300.0" fill="none" stroke="#ffffff" stroke-width="3.2" stroke-linecap="round" stroke-linejoin="round"><title>Southwest 24th Road</title></path><path d="M117.5,116.9 L113.4,111.5 L37.5,10.1 L35.7,7.7 L32.3,3.4 L27.7,-2.7 L24.5,-6.9 L-56.3,-113.8" fill="none" stroke="#cec8bb" stroke-width="4.3" stroke-linecap="round" stroke-linejoin="round"/><path d="M117.5,116.9 L113.4,111.5 L37.5,10.1 L35.7,7.7 L32.3,3.4 L27.7,-2.7 L24.5,-6.9 L-56.3,-113.8" fill="none" stroke="#ffffff" stroke-width="3.2" stroke-linecap="round" stroke-linejoin="round"><title>Southwest 24th Road</title></path><path d="M268.5,1.2 L264.9,-3.8 L263.0,-6.3 L187.6,-106.1" fill="none" stroke="#cec8bb" stroke-width="4.3" stroke-linecap="round" stroke-linejoin="round"/><path d="M268.5,1.2 L264.9,-3.8 L263.0,-6.3 L187.6,-106.1" fill="none" stroke="#ffffff" stroke-width="3.2" stroke-linecap="round" stroke-linejoin="round"><title>Southwest 22nd Road</title></path><path d="M345.3,-57.6 L276.1,-4.5 L268.5,1.2 L199.4,54.4 L195.4,57.4 L188.6,62.4 L157.5,86.2 L117.5,116.9" fill="none" stroke="#cec8bb" stroke-width="4.3" stroke-linecap="round" stroke-linejoin="round"/><path d="M345.3,-57.6 L276.1,-4.5 L268.5,1.2 L199.4,54.4 L195.4,57.4 L188.6,62.4 L157.5,86.2 L117.5,116.9" fill="none" stroke="#ffffff" stroke-width="3.2" stroke-linecap="round" stroke-linejoin="round"><title>Southwest 1st Avenue</title></path><path d="M37.5,178.1 L29.2,184.3 L26.8,186.1 L-37.0,235.4 L-39.6,237.5 L-43.8,240.6" fill="none" stroke="#cec8bb" stroke-width="4.3" stroke-linecap="round" stroke-linejoin="round"/><path d="M37.5,178.1 L29.2,184.3 L26.8,186.1 L-37.0,235.4 L-39.6,237.5 L-43.8,240.6" fill="none" stroke="#ffffff" stroke-width="3.2" stroke-linecap="round" stroke-linejoin="round"><title>Southwest 1st Avenue</title></path><path d="M98.2,-56.3 L27.7,-2.7 L21.4,2.4 L-33.5,44.3 L-36.6,46.6 L-38.7,48.0 L-41.3,49.3 L-43.4,49.8 L-46.8,51.5" fill="none" stroke="#cec8bb" stroke-width="4.3" stroke-linecap="round" stroke-linejoin="round"/><path d="M98.2,-56.3 L27.7,-2.7 L21.4,2.4 L-33.5,44.3 L-36.6,46.6 L-38.7,48.0 L-41.3,49.3 L-43.4,49.8 L-46.8,51.5" fill="none" stroke="#ffffff" stroke-width="3.2" stroke-linecap="round" stroke-linejoin="round"><title>Southwest 2nd Avenue</title></path><path d="M117.5,116.9 L111.1,121.6 L49.0,169.0 L46.3,171.1 L37.5,178.1" fill="none" stroke="#cec8bb" stroke-width="4.3" stroke-linecap="round" stroke-linejoin="round"/><path d="M117.5,116.9 L111.1,121.6 L49.0,169.0 L46.3,171.1 L37.5,178.1" fill="none" stroke="#ffffff" stroke-width="3.2" stroke-linecap="round" stroke-linejoin="round"><title>Southwest 1st Avenue</title></path><path d="M-64.9,-111.4 L15.6,-5.3 L17.9,-2.2 L21.4,2.4 L25.8,8.3 L29.0,12.5 L105.6,113.9 L107.3,116.3 L111.1,121.6" fill="none" stroke="#cec8bb" stroke-width="4.3" stroke-linecap="round" stroke-linejoin="round"/><path d="M-64.9,-111.4 L15.6,-5.3 L17.9,-2.2 L21.4,2.4 L25.8,8.3 L29.0,12.5 L105.6,113.9 L107.3,116.3 L111.1,121.6" fill="none" stroke="#ffffff" stroke-width="3.2" stroke-linecap="round" stroke-linejoin="round"><title>Southwest 24th Road</title></path><path d="M102.9,-50.6 L105.9,-46.6 L183.4,55.3 L185.1,57.6 L188.6,62.4" fill="none" stroke="#cec8bb" stroke-width="4.3" stroke-linecap="round" stroke-linejoin="round"/><path d="M102.9,-50.6 L105.9,-46.6 L183.4,55.3 L185.1,57.6 L188.6,62.4" fill="none" stroke="#ffffff" stroke-width="3.2" stroke-linecap="round" stroke-linejoin="round"><title>Southwest 23rd Road</title></path><path d="M-39.0,60.7 L-37.0,57.6 L-36.0,56.2 L-34.6,54.6 L-32.7,52.9 L-29.1,50.2 L25.8,8.3 L32.3,3.4 L102.9,-50.6" fill="none" stroke="#cec8bb" stroke-width="4.3" stroke-linecap="round" stroke-linejoin="round"/><path d="M-39.0,60.7 L-37.0,57.6 L-36.0,56.2 L-34.6,54.6 L-32.7,52.9 L-29.1,50.2 L25.8,8.3 L32.3,3.4 L102.9,-50.6" fill="none" stroke="#ffffff" stroke-width="3.2" stroke-linecap="round" stroke-linejoin="round"><title>Southwest 2nd Avenue</title></path><path d="M99.9,258.5 L93.1,249.8 L77.6,230.1" fill="none" stroke="#d1c4aa" stroke-width="5.8" stroke-linecap="round" stroke-linejoin="round"/><path d="M99.9,258.5 L93.1,249.8 L77.6,230.1" fill="none" stroke="#f1c77d" stroke-width="4.4" stroke-linecap="round" stroke-linejoin="round"><title>Southwest 25th Road</title></path><path d="M212.1,326.2 L246.2,300.0 L248.8,298.1 L253.2,294.6 L257.4,291.4 L266.5,284.4 L322.9,241.1" fill="none" stroke="#d1c4aa" stroke-width="5.8" stroke-linecap="round" stroke-linejoin="round"/><path d="M212.1,326.2 L246.2,300.0 L248.8,298.1 L253.2,294.6 L257.4,291.4 L266.5,284.4 L322.9,241.1" fill="none" stroke="#f1c77d" stroke-width="4.4" stroke-linecap="round" stroke-linejoin="round"><title>South Miami Avenue</title></path><path d="M37.5,178.1 L37.8,167.9 L-25.5,85.3 L-27.1,83.2 L-32.5,76.0 L-35.2,72.6 L-37.4,68.7 L-39.7,66.0" fill="none" stroke="#d1c4aa" stroke-width="5.8" stroke-linecap="round" stroke-linejoin="round"/><path d="M37.5,178.1 L37.8,167.9 L-25.5,85.3 L-27.1,83.2 L-32.5,76.0 L-35.2,72.6 L-37.4,68.7 L-39.7,66.0" fill="none" stroke="#f1c77d" stroke-width="4.4" stroke-linecap="round" stroke-linejoin="round"><title>Southwest 25th Road</title></path><path d="M-49.1,73.1 L-46.6,75.5 L-44.6,77.8 L-43.0,79.9 L-37.4,87.4 L27.5,174.4 L37.5,178.1" fill="none" stroke="#d1c4aa" stroke-width="5.8" stroke-linecap="round" stroke-linejoin="round"/><path d="M-49.1,73.1 L-46.6,75.5 L-44.6,77.8 L-43.0,79.9 L-37.4,87.4 L27.5,174.4 L37.5,178.1" fill="none" stroke="#f1c77d" stroke-width="4.4" stroke-linecap="round" stroke-linejoin="round"><title>Southwest 25th Road</title></path><path d="M317.2,233.9 L268.6,270.9 L251.8,283.6 L247.5,287.0 L240.5,292.4 L217.5,309.9" fill="none" stroke="#d1c4aa" stroke-width="5.8" stroke-linecap="round" stroke-linejoin="round"/><path d="M317.2,233.9 L268.6,270.9 L251.8,283.6 L247.5,287.0 L240.5,292.4 L217.5,309.9" fill="none" stroke="#f1c77d" stroke-width="4.4" stroke-linecap="round" stroke-linejoin="round"><title>South Miami Avenue</title></path><path d="M48.6,192.9 L44.7,187.7 L37.5,178.1" fill="none" stroke="#d1c4aa" stroke-width="5.8" stroke-linecap="round" stroke-linejoin="round"/><path d="M48.6,192.9 L44.7,187.7 L37.5,178.1" fill="none" stroke="#f1c77d" stroke-width="4.4" stroke-linecap="round" stroke-linejoin="round"><title>Southwest 25th Road</title></path><path d="M63.2,211.7 L59.3,206.8 L55.5,201.8 L48.6,192.9" fill="none" stroke="#d1c4aa" stroke-width="5.8" stroke-linecap="round" stroke-linejoin="round"/><path d="M63.2,211.7 L59.3,206.8 L55.5,201.8 L48.6,192.9" fill="none" stroke="#f1c77d" stroke-width="4.4" stroke-linecap="round" stroke-linejoin="round"><title>Southwest 25th Road</title></path><path d="M77.6,230.1 L69.6,219.9 L63.2,211.7" fill="none" stroke="#d1c4aa" stroke-width="5.8" stroke-linecap="round" stroke-linejoin="round"/><path d="M77.6,230.1 L69.6,219.9 L63.2,211.7" fill="none" stroke="#f1c77d" stroke-width="4.4" stroke-linecap="round" stroke-linejoin="round"><title>Southwest 25th Road</title></path><path d="M63.2,211.7 L53.5,219.0 L-0.7,260.1" fill="none" stroke="#d1c4aa" stroke-width="6.5" stroke-linecap="round" stroke-linejoin="round"/><path d="M63.2,211.7 L53.5,219.0 L-0.7,260.1" fill="none" stroke="#efb36f" stroke-width="5.2" stroke-linecap="round" stroke-linejoin="round"><title>Mary Brickell Road</title></path><path d="M303.6,57.4 L287.0,60.1 L272.4,70.1 L261.7,77.2 L251.1,84.0 L240.1,90.9 L228.3,98.2 L191.0,120.6 L174.7,131.1" fill="none" stroke="#d87a99" stroke-width="7.1" stroke-linecap="round" stroke-linejoin="round"/><path d="M303.6,57.4 L287.0,60.1 L272.4,70.1 L261.7,77.2 L251.1,84.0 L240.1,90.9 L228.3,98.2 L191.0,120.6 L174.7,131.1" fill="none" stroke="#e88fa8" stroke-width="5.3" stroke-linecap="round" stroke-linejoin="round"></path><path d="M303.6,57.4 L287.0,60.1 L272.4,70.1 L261.7,77.2 L251.1,84.0 L240.1,90.9 L228.3,98.2 L191.0,120.6 L174.7,131.1" fill="none" stroke="#fff8ef" stroke-width="1.3" stroke-dasharray="5.5 6.5" opacity="0.82" stroke-linecap="round" stroke-linejoin="round"/><path d="M60.1,305.7 L60.0,300.8 L60.3,295.7 L61.0,290.5 L62.0,286.2 L63.5,281.9 L65.7,276.9 L68.0,272.4 L70.8,267.6 L73.8,263.4 L76.9,259.9 L80.3,257.0 L84.0,253.9 L111.6,233.2" fill="none" stroke="#d87a99" stroke-width="7.1" stroke-linecap="round" stroke-linejoin="round"/><path d="M60.1,305.7 L60.0,300.8 L60.3,295.7 L61.0,290.5 L62.0,286.2 L63.5,281.9 L65.7,276.9 L68.0,272.4 L70.8,267.6 L73.8,263.4 L76.9,259.9 L80.3,257.0 L84.0,253.9 L111.6,233.2" fill="none" stroke="#e88fa8" stroke-width="5.3" stroke-linecap="round" stroke-linejoin="round"></path><path d="M60.1,305.7 L60.0,300.8 L60.3,295.7 L61.0,290.5 L62.0,286.2 L63.5,281.9 L65.7,276.9 L68.0,272.4 L70.8,267.6 L73.8,263.4 L76.9,259.9 L80.3,257.0 L84.0,253.9 L111.6,233.2" fill="none" stroke="#fff8ef" stroke-width="1.3" stroke-dasharray="5.5 6.5" opacity="0.82" stroke-linecap="round" stroke-linejoin="round"/><path d="M111.6,233.2 L186.5,175.5 L197.0,167.2 L206.0,160.0 L217.1,150.9 L279.2,100.0 L312.8,74.4" fill="none" stroke="#d87a99" stroke-width="7.1" stroke-linecap="round" stroke-linejoin="round"/><path d="M111.6,233.2 L186.5,175.5 L197.0,167.2 L206.0,160.0 L217.1,150.9 L279.2,100.0 L312.8,74.4" fill="none" stroke="#e88fa8" stroke-width="5.3" stroke-linecap="round" stroke-linejoin="round"></path><path d="M111.6,233.2 L186.5,175.5 L197.0,167.2 L206.0,160.0 L217.1,150.9 L279.2,100.0 L312.8,74.4" fill="none" stroke="#fff8ef" stroke-width="1.3" stroke-dasharray="5.5 6.5" opacity="0.82" stroke-linecap="round" stroke-linejoin="round"/><path d="M-20.4,319.2 L104.6,223.6" fill="none" stroke="#d87a99" stroke-width="9.9" stroke-linecap="round" stroke-linejoin="round"/><path d="M-20.4,319.2 L104.6,223.6" fill="none" stroke="#e88fa8" stroke-width="8.1" stroke-linecap="round" stroke-linejoin="round"></path><path d="M-20.4,319.2 L104.6,223.6" fill="none" stroke="#fff8ef" stroke-width="1.9" stroke-dasharray="5.5 6.5" opacity="0.82" stroke-linecap="round" stroke-linejoin="round"/><path d="M97.9,214.4 L-27.6,310.1" fill="none" stroke="#d87a99" stroke-width="9.9" stroke-linecap="round" stroke-linejoin="round"/><path d="M97.9,214.4 L-27.6,310.1" fill="none" stroke="#e88fa8" stroke-width="8.1" stroke-linecap="round" stroke-linejoin="round"></path><path d="M97.9,214.4 L-27.6,310.1" fill="none" stroke="#fff8ef" stroke-width="1.9" stroke-dasharray="5.5 6.5" opacity="0.82" stroke-linecap="round" stroke-linejoin="round"/><path d="M104.6,223.6 L144.9,192.6 L182.6,163.6 L245.6,115.5 L297.2,76.0 L319.6,58.9" fill="none" stroke="#d87a99" stroke-width="9.9" stroke-linecap="round" stroke-linejoin="round"/><path d="M104.6,223.6 L144.9,192.6 L182.6,163.6 L245.6,115.5 L297.2,76.0 L319.6,58.9" fill="none" stroke="#e88fa8" stroke-width="8.1" stroke-linecap="round" stroke-linejoin="round"></path><path d="M104.6,223.6 L144.9,192.6 L182.6,163.6 L245.6,115.5 L297.2,76.0 L319.6,58.9" fill="none" stroke="#fff8ef" stroke-width="1.9" stroke-dasharray="5.5 6.5" opacity="0.82" stroke-linecap="round" stroke-linejoin="round"/><path d="M99.9,258.5 L110.9,253.6 L137.9,231.8 L217.7,161.7 L265.7,120.0 L290.9,97.8 L307.4,83.4" fill="none" stroke="#d87a99" stroke-width="7.1" stroke-linecap="round" stroke-linejoin="round"/><path d="M99.9,258.5 L110.9,253.6 L137.9,231.8 L217.7,161.7 L265.7,120.0 L290.9,97.8 L307.4,83.4" fill="none" stroke="#e88fa8" stroke-width="5.3" stroke-linecap="round" stroke-linejoin="round"></path><path d="M99.9,258.5 L110.9,253.6 L137.9,231.8 L217.7,161.7 L265.7,120.0 L290.9,97.8 L307.4,83.4" fill="none" stroke="#fff8ef" stroke-width="1.3" stroke-dasharray="5.5 6.5" opacity="0.82" stroke-linecap="round" stroke-linejoin="round"/><path d="M303.6,57.4 L292.0,66.6 L276.5,78.8 L257.3,93.4 L231.7,113.7 L199.7,137.9 L167.3,162.8 L130.3,191.5 L97.9,214.4" fill="none" stroke="#d87a99" stroke-width="9.9" stroke-linecap="round" stroke-linejoin="round"/><path d="M303.6,57.4 L292.0,66.6 L276.5,78.8 L257.3,93.4 L231.7,113.7 L199.7,137.9 L167.3,162.8 L130.3,191.5 L97.9,214.4" fill="none" stroke="#e88fa8" stroke-width="8.1" stroke-linecap="round" stroke-linejoin="round"></path><path d="M303.6,57.4 L292.0,66.6 L276.5,78.8 L257.3,93.4 L231.7,113.7 L199.7,137.9 L167.3,162.8 L130.3,191.5 L97.9,214.4" fill="none" stroke="#fff8ef" stroke-width="1.9" stroke-dasharray="5.5 6.5" opacity="0.82" stroke-linecap="round" stroke-linejoin="round"/><path d="M174.7,131.1 L162.3,139.1 L149.1,148.2 L136.2,157.3 L120.6,168.5 L109.1,176.7 L75.3,202.4 L72.1,204.9 L63.2,211.7" fill="none" stroke="#d87a99" stroke-width="7.1" stroke-linecap="round" stroke-linejoin="round"/><path d="M174.7,131.1 L162.3,139.1 L149.1,148.2 L136.2,157.3 L120.6,168.5 L109.1,176.7 L75.3,202.4 L72.1,204.9 L63.2,211.7" fill="none" stroke="#e88fa8" stroke-width="5.3" stroke-linecap="round" stroke-linejoin="round"></path><path d="M174.7,131.1 L162.3,139.1 L149.1,148.2 L136.2,157.3 L120.6,168.5 L109.1,176.7 L75.3,202.4 L72.1,204.9 L63.2,211.7" fill="none" stroke="#fff8ef" stroke-width="1.3" stroke-dasharray="5.5 6.5" opacity="0.82" stroke-linecap="round" stroke-linejoin="round"/><path d="M130.6,131.1 L59.6,186.2 L39.1,202.2 L-42.0,263.7 L-249.0,421.5" fill="none" stroke="#fbf8ef" stroke-width="6.5" stroke-linecap="round" stroke-linejoin="round"/><path d="M130.6,131.1 L59.6,186.2 L39.1,202.2 L-42.0,263.7 L-249.0,421.5" fill="none" stroke="#5a5796" stroke-width="4.3" stroke-linecap="round" stroke-linejoin="round"><title>Metrorail</title></path><path d="M128.9,137.3 L124.2,131.2" fill="none" stroke="#3f494e" stroke-width="0.9" stroke-linecap="round"/><path d="M120.7,143.7 L115.9,137.6" fill="none" stroke="#3f494e" stroke-width="0.9" stroke-linecap="round"/><path d="M112.5,150.1 L107.7,144.0" fill="none" stroke="#3f494e" stroke-width="0.9" stroke-linecap="round"/><path d="M104.2,156.5 L99.5,150.4" fill="none" stroke="#3f494e" stroke-width="0.9" stroke-linecap="round"/><path d="M96.0,162.8 L91.3,156.8" fill="none" stroke="#3f494e" stroke-width="0.9" stroke-linecap="round"/><path d="M87.8,169.2 L83.1,163.2" fill="none" stroke="#3f494e" stroke-width="0.9" stroke-linecap="round"/><path d="M79.6,175.6 L74.9,169.5" fill="none" stroke="#3f494e" stroke-width="0.9" stroke-linecap="round"/><path d="M71.4,182.0 L66.7,175.9" fill="none" stroke="#3f494e" stroke-width="0.9" stroke-linecap="round"/><path d="M57.9,192.5 L53.2,186.4" fill="none" stroke="#3f494e" stroke-width="0.9" stroke-linecap="round"/><path d="M49.7,198.8 L45.0,192.8" fill="none" stroke="#3f494e" stroke-width="0.9" stroke-linecap="round"/><path d="M37.3,208.4 L32.6,202.2" fill="none" stroke="#3f494e" stroke-width="0.9" stroke-linecap="round"/><path d="M29.0,214.7 L24.3,208.5" fill="none" stroke="#3f494e" stroke-width="0.9" stroke-linecap="round"/><path d="M20.7,220.9 L16.1,214.8" fill="none" stroke="#3f494e" stroke-width="0.9" stroke-linecap="round"/><path d="M12.4,227.2 L7.8,221.1" fill="none" stroke="#3f494e" stroke-width="0.9" stroke-linecap="round"/><path d="M4.1,233.5 L-0.5,227.4" fill="none" stroke="#3f494e" stroke-width="0.9" stroke-linecap="round"/><path d="M-4.2,239.8 L-8.8,233.7" fill="none" stroke="#3f494e" stroke-width="0.9" stroke-linecap="round"/><path d="M-12.4,246.1 L-17.1,240.0" fill="none" stroke="#3f494e" stroke-width="0.9" stroke-linecap="round"/><path d="M130.6,131.1 L59.6,186.2 L39.1,202.2 L-42.0,263.7 L-249.0,421.5" fill="none" stroke="#ffffff" stroke-width="2.4" stroke-linecap="round" stroke-linejoin="round"/><path d="M-246.6,424.6 L-39.6,267.0 L41.7,205.0 L133.8,135.0" fill="none" stroke="#fbf8ef" stroke-width="6.5" stroke-linecap="round" stroke-linejoin="round"/><path d="M-246.6,424.6 L-39.6,267.0 L41.7,205.0 L133.8,135.0" fill="none" stroke="#5a5796" stroke-width="4.3" stroke-linecap="round" stroke-linejoin="round"><title>Metrorail</title></path><path d="M-21.3,248.1 L-16.6,254.3" fill="none" stroke="#3f494e" stroke-width="0.9" stroke-linecap="round"/><path d="M-13.0,241.8 L-8.3,248.0" fill="none" stroke="#3f494e" stroke-width="0.9" stroke-linecap="round"/><path d="M-4.7,235.5 L-0.1,241.7" fill="none" stroke="#3f494e" stroke-width="0.9" stroke-linecap="round"/><path d="M3.5,229.2 L8.2,235.3" fill="none" stroke="#3f494e" stroke-width="0.9" stroke-linecap="round"/><path d="M11.8,222.9 L16.5,229.0" fill="none" stroke="#3f494e" stroke-width="0.9" stroke-linecap="round"/><path d="M20.1,216.6 L24.7,222.7" fill="none" stroke="#3f494e" stroke-width="0.9" stroke-linecap="round"/><path d="M28.3,210.3 L33.0,216.4" fill="none" stroke="#3f494e" stroke-width="0.9" stroke-linecap="round"/><path d="M43.5,198.8 L48.1,204.9" fill="none" stroke="#3f494e" stroke-width="0.9" stroke-linecap="round"/><path d="M51.8,192.5 L56.4,198.6" fill="none" stroke="#3f494e" stroke-width="0.9" stroke-linecap="round"/><path d="M60.0,186.2 L64.7,192.3" fill="none" stroke="#3f494e" stroke-width="0.9" stroke-linecap="round"/><path d="M68.3,179.9 L73.0,186.1" fill="none" stroke="#3f494e" stroke-width="0.9" stroke-linecap="round"/><path d="M76.6,173.6 L81.3,179.8" fill="none" stroke="#3f494e" stroke-width="0.9" stroke-linecap="round"/><path d="M84.9,167.4 L89.5,173.5" fill="none" stroke="#3f494e" stroke-width="0.9" stroke-linecap="round"/><path d="M93.2,161.1 L97.8,167.2" fill="none" stroke="#3f494e" stroke-width="0.9" stroke-linecap="round"/><path d="M101.5,154.8 L106.1,160.9" fill="none" stroke="#3f494e" stroke-width="0.9" stroke-linecap="round"/><path d="M109.7,148.5 L114.4,154.6" fill="none" stroke="#3f494e" stroke-width="0.9" stroke-linecap="round"/><path d="M118.0,142.2 L122.7,148.3" fill="none" stroke="#3f494e" stroke-width="0.9" stroke-linecap="round"/><path d="M126.3,135.9 L131.0,142.0" fill="none" stroke="#3f494e" stroke-width="0.9" stroke-linecap="round"/><path d="M-246.6,424.6 L-39.6,267.0 L41.7,205.0 L133.8,135.0" fill="none" stroke="#ffffff" stroke-width="2.4" stroke-linecap="round" stroke-linejoin="round"/><path d="M335.5,-32.0 L269.9,19.4 L205.1,70.2 L130.6,131.1" fill="none" stroke="#fbf8ef" stroke-width="6.5" stroke-linecap="round" stroke-linejoin="round"/><path d="M335.5,-32.0 L269.9,19.4 L205.1,70.2 L130.6,131.1" fill="none" stroke="#5a5796" stroke-width="4.3" stroke-linecap="round" stroke-linejoin="round"><title>Metrorail</title></path><path d="M276.5,19.1 L271.8,13.1" fill="none" stroke="#3f494e" stroke-width="0.9" stroke-linecap="round"/><path d="M268.1,25.7 L263.4,19.6" fill="none" stroke="#3f494e" stroke-width="0.9" stroke-linecap="round"/><path d="M260.0,32.1 L255.2,26.0" fill="none" stroke="#3f494e" stroke-width="0.9" stroke-linecap="round"/><path d="M251.8,38.5 L247.0,32.4" fill="none" stroke="#3f494e" stroke-width="0.9" stroke-linecap="round"/><path d="M243.6,44.9 L238.8,38.8" fill="none" stroke="#3f494e" stroke-width="0.9" stroke-linecap="round"/><path d="M235.4,51.3 L230.7,45.3" fill="none" stroke="#3f494e" stroke-width="0.9" stroke-linecap="round"/><path d="M227.2,57.7 L222.5,51.7" fill="none" stroke="#3f494e" stroke-width="0.9" stroke-linecap="round"/><path d="M219.0,64.1 L214.3,58.1" fill="none" stroke="#3f494e" stroke-width="0.9" stroke-linecap="round"/><path d="M203.5,76.5 L198.6,70.5" fill="none" stroke="#3f494e" stroke-width="0.9" stroke-linecap="round"/><path d="M195.4,83.1 L190.6,77.1" fill="none" stroke="#3f494e" stroke-width="0.9" stroke-linecap="round"/><path d="M187.4,89.6 L182.5,83.7" fill="none" stroke="#3f494e" stroke-width="0.9" stroke-linecap="round"/><path d="M179.3,96.2 L174.5,90.3" fill="none" stroke="#3f494e" stroke-width="0.9" stroke-linecap="round"/><path d="M171.3,102.8 L166.4,96.9" fill="none" stroke="#3f494e" stroke-width="0.9" stroke-linecap="round"/><path d="M163.2,109.4 L158.4,103.4" fill="none" stroke="#3f494e" stroke-width="0.9" stroke-linecap="round"/><path d="M155.2,116.0 L150.3,110.0" fill="none" stroke="#3f494e" stroke-width="0.9" stroke-linecap="round"/><path d="M147.1,122.6 L142.3,116.6" fill="none" stroke="#3f494e" stroke-width="0.9" stroke-linecap="round"/><path d="M139.1,129.1 L134.2,123.2" fill="none" stroke="#3f494e" stroke-width="0.9" stroke-linecap="round"/><path d="M335.5,-32.0 L269.9,19.4 L205.1,70.2 L130.6,131.1" fill="none" stroke="#ffffff" stroke-width="2.4" stroke-linecap="round" stroke-linejoin="round"/><path d="M133.8,135.0 L342.1,-23.8" fill="none" stroke="#fbf8ef" stroke-width="6.5" stroke-linecap="round" stroke-linejoin="round"/><path d="M133.8,135.0 L342.1,-23.8" fill="none" stroke="#5a5796" stroke-width="4.3" stroke-linecap="round" stroke-linejoin="round"><title>Metrorail</title></path><path d="M135.6,128.8 L140.3,134.9" fill="none" stroke="#3f494e" stroke-width="0.9" stroke-linecap="round"/><path d="M143.9,122.5 L148.6,128.6" fill="none" stroke="#3f494e" stroke-width="0.9" stroke-linecap="round"/><path d="M152.2,116.2 L156.8,122.3" fill="none" stroke="#3f494e" stroke-width="0.9" stroke-linecap="round"/><path d="M160.4,109.9 L165.1,116.0" fill="none" stroke="#3f494e" stroke-width="0.9" stroke-linecap="round"/><path d="M168.7,103.6 L173.4,109.7" fill="none" stroke="#3f494e" stroke-width="0.9" stroke-linecap="round"/><path d="M177.0,97.3 L181.6,103.4" fill="none" stroke="#3f494e" stroke-width="0.9" stroke-linecap="round"/><path d="M185.2,91.0 L189.9,97.1" fill="none" stroke="#3f494e" stroke-width="0.9" stroke-linecap="round"/><path d="M193.5,84.7 L198.2,90.8" fill="none" stroke="#3f494e" stroke-width="0.9" stroke-linecap="round"/><path d="M201.8,78.4 L206.5,84.5" fill="none" stroke="#3f494e" stroke-width="0.9" stroke-linecap="round"/><path d="M210.1,72.1 L214.7,78.2" fill="none" stroke="#3f494e" stroke-width="0.9" stroke-linecap="round"/><path d="M218.3,65.8 L223.0,71.9" fill="none" stroke="#3f494e" stroke-width="0.9" stroke-linecap="round"/><path d="M226.6,59.5 L231.3,65.6" fill="none" stroke="#3f494e" stroke-width="0.9" stroke-linecap="round"/><path d="M234.9,53.2 L239.5,59.3" fill="none" stroke="#3f494e" stroke-width="0.9" stroke-linecap="round"/><path d="M243.1,46.8 L247.8,53.0" fill="none" stroke="#3f494e" stroke-width="0.9" stroke-linecap="round"/><path d="M251.4,40.5 L256.1,46.7" fill="none" stroke="#3f494e" stroke-width="0.9" stroke-linecap="round"/><path d="M259.7,34.2 L264.3,40.4" fill="none" stroke="#3f494e" stroke-width="0.9" stroke-linecap="round"/><path d="M267.9,27.9 L272.6,34.0" fill="none" stroke="#3f494e" stroke-width="0.9" stroke-linecap="round"/><path d="M133.8,135.0 L342.1,-23.8" fill="none" stroke="#ffffff" stroke-width="2.4" stroke-linecap="round" stroke-linejoin="round"/><g transform="translate(212.3 141.0) rotate(-37.4)"><path d="M -3.6 -3.2 L 4.4 0 L -3.6 3.2 Z" fill="#58656d" opacity="0.46"/></g><g transform="translate(76.9 62.8) rotate(-126.8)"><path d="M -3.6 -3.2 L 4.4 0 L -3.6 3.2 Z" fill="#58656d" opacity="0.46"/></g><g transform="translate(67.9 63.9) rotate(52.9)"><path d="M -3.6 -3.2 L 4.4 0 L -3.6 3.2 Z" fill="#58656d" opacity="0.46"/></g><g><rect x="195.3" y="135.0" width="30.0" height="15.0" rx="3" fill="#f7fbff" stroke="#4f78a7" stroke-width="1"/><text x="210.3" y="142.9" text-anchor="middle" dominant-baseline="central" font-family="Arial, sans-serif" font-size="8.2" font-weight="700" fill="#315d8b">I 95</text></g><g><rect x="133.8" y="169.6" width="30.0" height="15.0" rx="3" fill="#f7fbff" stroke="#4f78a7" stroke-width="1"/><text x="148.8" y="177.5" text-anchor="middle" dominant-baseline="central" font-family="Arial, sans-serif" font-size="8.2" font-weight="700" fill="#315d8b">I 95</text></g><text x="77.7" y="63.8" transform="rotate(53.2 77.7 63.8)" text-anchor="middle" dominant-baseline="central" font-family="Arial, sans-serif" font-size="8.3" textLength="100.9" lengthAdjust="spacing" font-weight="650" paint-order="stroke" stroke="#fffaf0" stroke-width="2.05" stroke-linejoin="round" fill="#695f54">Southwest 24th Road</text><text x="133.6" y="246.0" text-anchor="middle" font-family="Arial, sans-serif" font-size="6.5" textLength="18.0" lengthAdjust="spacing" font-weight="500" paint-order="stroke" stroke="#f3f5ee" stroke-width="1.55" stroke-linejoin="round" fill="#6f777a">45</text><text x="206.7" y="199.4" text-anchor="middle" font-family="Arial, sans-serif" font-size="6.5" textLength="18.0" lengthAdjust="spacing" font-weight="500" paint-order="stroke" stroke="#f3f5ee" stroke-width="1.55" stroke-linejoin="round" fill="#6f777a">45</text><text x="42.6" y="135.8" text-anchor="middle" font-family="Arial, sans-serif" font-size="6.5" textLength="18.0" lengthAdjust="spacing" font-weight="500" paint-order="stroke" stroke="#f3f5ee" stroke-width="1.55" stroke-linejoin="round" fill="#6f777a">115</text><text x="15.0" y="187.2" text-anchor="middle" font-family="Arial, sans-serif" font-size="6.5" textLength="18.0" lengthAdjust="spacing" font-weight="500" paint-order="stroke" stroke="#f3f5ee" stroke-width="1.55" stroke-linejoin="round" fill="#6f777a">2500</text><text x="165.0" y="229.2" text-anchor="middle" font-family="Arial, sans-serif" font-size="6.5" textLength="18.0" lengthAdjust="spacing" font-weight="500" paint-order="stroke" stroke="#f3f5ee" stroke-width="1.55" stroke-linejoin="round" fill="#6f777a">54</text><text x="25.4" y="115.8" text-anchor="middle" font-family="Arial, sans-serif" font-size="6.5" textLength="18.0" lengthAdjust="spacing" font-weight="500" paint-order="stroke" stroke="#f3f5ee" stroke-width="1.55" stroke-linejoin="round" fill="#6f777a">135</text><text x="21.2" y="40.5" text-anchor="middle" font-family="Arial, sans-serif" font-size="6.5" textLength="18.0" lengthAdjust="spacing" font-weight="500" paint-order="stroke" stroke="#f3f5ee" stroke-width="1.55" stroke-linejoin="round" fill="#6f777a">180</text><text x="238.4" y="16.5" text-anchor="middle" font-family="Arial, sans-serif" font-size="6.5" textLength="18.0" lengthAdjust="spacing" font-weight="500" paint-order="stroke" stroke="#f3f5ee" stroke-width="1.55" stroke-linejoin="round" fill="#6f777a">2200</text><text x="176.5" y="16.5" text-anchor="middle" font-family="Arial, sans-serif" font-size="6.5" textLength="18.0" lengthAdjust="spacing" font-weight="500" paint-order="stroke" stroke="#f3f5ee" stroke-width="1.55" stroke-linejoin="round" fill="#6f777a">129</text><text x="183.6" y="246.0" text-anchor="middle" font-family="Arial, sans-serif" font-size="6.5" textLength="18.0" lengthAdjust="spacing" font-weight="500" paint-order="stroke" stroke="#f3f5ee" stroke-width="1.55" stroke-linejoin="round" fill="#6f777a">24</text><text x="241.0" y="170.6" text-anchor="middle" font-family="Arial, sans-serif" font-size="6.5" textLength="18.0" lengthAdjust="spacing" font-weight="500" paint-order="stroke" stroke="#f3f5ee" stroke-width="1.55" stroke-linejoin="round" fill="#6f777a">32</text><text x="140.5" y="32.2" text-anchor="middle" font-family="Arial, sans-serif" font-size="6.5" textLength="18.0" lengthAdjust="spacing" font-weight="500" paint-order="stroke" stroke="#f3f5ee" stroke-width="1.55" stroke-linejoin="round" fill="#6f777a">122</text><text x="15.0" y="91.9" text-anchor="middle" font-family="Arial, sans-serif" font-size="6.5" textLength="18.0" lengthAdjust="spacing" font-weight="500" paint-order="stroke" stroke="#f3f5ee" stroke-width="1.55" stroke-linejoin="round" fill="#6f777a">155</text><text x="123.6" y="87.0" text-anchor="middle" font-family="Arial, sans-serif" font-size="6.5" textLength="18.0" lengthAdjust="spacing" font-weight="500" paint-order="stroke" stroke="#f3f5ee" stroke-width="1.55" stroke-linejoin="round" fill="#6f777a">101</text><text x="85.8" y="124.6" text-anchor="middle" font-family="Arial, sans-serif" font-size="6.5" textLength="18.0" lengthAdjust="spacing" font-weight="500" paint-order="stroke" stroke="#f3f5ee" stroke-width="1.55" stroke-linejoin="round" fill="#6f777a">2400</text><text x="201.2" y="29.3" text-anchor="middle" font-family="Arial, sans-serif" font-size="6.5" textLength="18.0" lengthAdjust="spacing" font-weight="500" paint-order="stroke" stroke="#f3f5ee" stroke-width="1.55" stroke-linejoin="round" fill="#6f777a">115</text><text x="160.3" y="62.2" text-anchor="middle" font-family="Arial, sans-serif" font-size="6.5" textLength="18.0" lengthAdjust="spacing" font-weight="500" paint-order="stroke" stroke="#f3f5ee" stroke-width="1.55" stroke-linejoin="round" fill="#6f777a">2300</text><text x="237.7" y="246.0" text-anchor="middle" font-family="Arial, sans-serif" font-size="6.5" textLength="18.0" lengthAdjust="spacing" font-weight="500" paint-order="stroke" stroke="#f3f5ee" stroke-width="1.55" stroke-linejoin="round" fill="#6f777a">2390</text><text x="232.5" y="216.3" text-anchor="middle" font-family="Arial, sans-serif" font-size="6.5" textLength="18.0" lengthAdjust="spacing" font-weight="500" paint-order="stroke" stroke="#f3f5ee" stroke-width="1.55" stroke-linejoin="round" fill="#6f777a">25</text><g><title>signal</title><rect x="66.9" y="214.7" width="5.4" height="10.4" rx="2.1" fill="#3f4b52" stroke="#ffffff" stroke-width="1.1"/><circle cx="69.6" cy="217.1" r="1.1" fill="#d85a4f"/><circle cx="69.6" cy="219.9" r="1.1" fill="#e2b84b"/><circle cx="69.6" cy="222.7" r="1.1" fill="#55a86b"/></g><g><title>signal</title><rect x="52.8" y="196.6" width="5.4" height="10.4" rx="2.1" fill="#3f4b52" stroke="#ffffff" stroke-width="1.1"/><circle cx="55.5" cy="199.0" r="1.1" fill="#d85a4f"/><circle cx="55.5" cy="201.8" r="1.1" fill="#e2b84b"/><circle cx="55.5" cy="204.6" r="1.1" fill="#55a86b"/></g><g opacity="0.56"><title>crossing</title><path d="M42.4,185.9 L47.0,185.9 M42.4,187.7 L47.0,187.7 M42.4,189.5 L47.0,189.5" stroke="#ffffff" stroke-width="2.1" stroke-linecap="round"/><path d="M42.4,185.9 L47.0,185.9 M42.4,187.7 L47.0,187.7 M42.4,189.5 L47.0,189.5" stroke="#59656a" stroke-width="0.85" stroke-linecap="round"/></g><g opacity="0.56"><title>crossing</title><path d="M197.1,52.6 L201.7,52.6 M197.1,54.4 L201.7,54.4 M197.1,56.2 L201.7,56.2" stroke="#ffffff" stroke-width="2.1" stroke-linecap="round"/><path d="M197.1,52.6 L201.7,52.6 M197.1,54.4 L201.7,54.4 M197.1,56.2 L201.7,56.2" stroke="#59656a" stroke-width="0.85" stroke-linecap="round"/></g><g opacity="0.56"><title>crossing</title><path d="M44.1,169.3 L48.6,169.3 M44.1,171.1 L48.6,171.1 M44.1,172.9 L48.6,172.9" stroke="#ffffff" stroke-width="2.1" stroke-linecap="round"/><path d="M44.1,169.3 L48.6,169.3 M44.1,171.1 L48.6,171.1 M44.1,172.9 L48.6,172.9" stroke="#59656a" stroke-width="0.85" stroke-linecap="round"/></g><g opacity="0.56"><title>crossing</title><path d="M182.8,55.8 L187.4,55.8 M182.8,57.6 L187.4,57.6 M182.8,59.4 L187.4,59.4" stroke="#ffffff" stroke-width="2.1" stroke-linecap="round"/><path d="M182.8,55.8 L187.4,55.8 M182.8,57.6 L187.4,57.6 M182.8,59.4 L187.4,59.4" stroke="#59656a" stroke-width="0.85" stroke-linecap="round"/></g><g opacity="0.56"><title>crossing</title><path d="M105.0,114.5 L109.5,114.5 M105.0,116.3 L109.5,116.3 M105.0,118.1 L109.5,118.1" stroke="#ffffff" stroke-width="2.1" stroke-linecap="round"/><path d="M105.0,114.5 L109.5,114.5 M105.0,116.3 L109.5,116.3 M105.0,118.1 L109.5,118.1" stroke="#59656a" stroke-width="0.85" stroke-linecap="round"/></g><g opacity="0.56"><title>crossing</title><path d="M51.3,217.2 L55.8,217.2 M51.3,219.0 L55.8,219.0 M51.3,220.8 L55.8,220.8" stroke="#ffffff" stroke-width="2.1" stroke-linecap="round"/><path d="M51.3,217.2 L55.8,217.2 M51.3,219.0 L55.8,219.0 M51.3,220.8 L55.8,220.8" stroke="#59656a" stroke-width="0.85" stroke-linecap="round"/></g><g opacity="0.56"><title>crossing</title><path d="M26.9,182.5 L31.5,182.5 M26.9,184.3 L31.5,184.3 M26.9,186.1 L31.5,186.1" stroke="#ffffff" stroke-width="2.1" stroke-linecap="round"/><path d="M26.9,182.5 L31.5,182.5 M26.9,184.3 L31.5,184.3 M26.9,186.1 L31.5,186.1" stroke="#59656a" stroke-width="0.85" stroke-linecap="round"/></g><g opacity="0.56"><title>crossing</title><path d="M26.7,10.7 L31.3,10.7 M26.7,12.5 L31.3,12.5 M26.7,14.3 L31.3,14.3" stroke="#ffffff" stroke-width="2.1" stroke-linecap="round"/><path d="M26.7,10.7 L31.3,10.7 M26.7,12.5 L31.3,12.5 M26.7,14.3 L31.3,14.3" stroke="#59656a" stroke-width="0.85" stroke-linecap="round"/></g></svg>