<svg xmlns="http://www.w3.org/2000/svg" width="256" height="256" viewBox="0 0 256 256"><rect width="256" height="256" fill="#f1efe7"/><path d="M-5.4,-1430.9 L102.0,-1475.5 L135.6,-1491.6 L285.9,-1563.8 L314.1,-1536.5 L316.6,-1534.2 L369.2,-1579.2 L381.8,-1588.8 L402.7,-1607.7 L520.8,-1716.1 L616.1,-1824.9 L619.7,-1831.8 L623.2,-1835.8 L628.8,-1842.1 L634.4,-1848.6 L636.7,-1851.3 L599.1,-1899.8 L648.8,-1929.6 L675.8,-1893.7 L713.9,-1937.3 L681.6,-1980.1 L721.6,-2021.7 L752.3,-1981.2 L787.7,-2021.4 L802.7,-2031.2 L876.3,-2079.0 L912.7,-2103.1 L956.5,-2132.0 L977.2,-2145.5 L1029.6,-2179.4 L1016.1,-2197.2 L991.9,-2229.5 L1054.4,-2269.2 L1077.2,-2281.0 L1078.9,-2282.2 L1090.9,-2291.5 L1133.7,-2314.3 L1136.7,-2319.0 L1148.7,-2327.2 L1155.2,-2336.7 L1157.0,-2338.1 L1167.4,-2342.1 L1191.1,-2350.6 L1207.2,-2357.7 L1264.3,-2384.5 L1265.0,-2382.6 L1312.8,-2403.1 L1332.3,-2378.0 L1375.9,-2407.1 L1382.1,-2411.3 L1382.7,-2411.8 L1383.3,-2412.6 L1384.2,-2414.3 L1384.8,-2415.8 L1385.0,-2417.7 L1385.0,-2419.2 L1384.8,-2420.6 L1384.6,-2422.3 L1384.5,-2423.5 L1384.6,-2424.6 L1384.9,-2425.7 L1385.7,-2427.7 L1386.2,-2428.8 L1387.4,-2430.7 L1388.8,-2432.1 L1395.1,-2434.7 L1400.4,-2436.6 L1407.2,-2438.8 L1410.3,-2439.7 L1415.9,-2441.5 L1419.9,-2443.0 L1425.3,-2445.2 L1432.7,-2448.4 L1440.7,-2452.2 L1445.0,-2454.3 L1450.4,-2457.0 L1455.4,-2459.9 L1460.5,-2462.9 L1465.6,-2466.2 L1467.2,-2467.3 L1477.6,-2475.2 L1486.3,-2481.9 L1494.8,-2489.1 L1502.8,-2496.6 L1508.5,-2503.1 L1514.2,-2510.0 L1521.2,-2519.0 L1527.6,-2528.0 L1534.9,-2539.6 L1539.7,-2548.5 L1542.7,-2554.2 L1547.2,-2563.9 L1550.9,-2572.8 L1554.3,-2582.4 L1557.0,-2590.9 L1559.9,-2604.6 L1562.1,-2616.8 L1563.3,-2627.4 L1564.2,-2639.7 L1564.4,-2653.0 L1563.5,-2665.3 L1561.4,-2681.2 L1559.3,-2692.1 L1556.7,-2702.5 L1553.1,-2714.1 L1549.9,-2723.1 L1546.3,-2732.9 L1542.9,-2740.9 L1540.6,-2746.2 L1539.6,-2750.0 L1539.5,-2753.0 L1539.8,-2755.6 L1540.9,-2757.9 L1542.5,-2759.9 L1544.6,-2761.0 L1546.8,-2761.3 L1552.9,-2759.8 L1569.7,-2755.8 L1575.3,-2883.1 L1597.2,-3110.4 L1573.4,-3116.1 L1570.8,-3123.2 L1570.9,-3133.4 L1574.2,-3156.7 L1578.7,-3161.9 L1582.7,-3177.1 L1607.9,-3171.2 L1621.9,-3316.4 L1625.7,-3356.7 L1617.9,-3358.6 L1622.6,-3377.8 L1606.4,-3381.6 L1608.5,-3393.4 L1611.3,-3401.1 L1614.9,-3410.2 L1620.9,-3422.8 L1627.3,-3421.4 L1636.1,-3512.7 L1638.1,-3568.1 L1638.5,-3578.3 L1643.2,-3613.6 L1652.6,-3701.5 L1715.0,-3864.2 L1729.2,-3908.5 L1902.5,-3975.0 L1919.5,-3981.8 L1922.4,-3983.4 L1924.8,-3985.5 L1927.3,-3988.4 L1929.2,-3991.9 L1930.5,-3995.3 L1930.9,-4000.2 L1930.6,-4006.4 L1928.3,-4084.1 L1927.4,-4099.2 L1927.2,-4109.6 L1926.9,-4129.6 L1926.5,-4135.9 L1925.7,-4141.2 L1924.6,-4146.0 L1923.1,-4150.7 L1920.7,-4156.4 L1917.1,-4162.5 L1913.5,-4167.3 L1910.8,-4171.8 L1908.1,-4177.8 L1905.8,-4183.7 L1904.9,-4188.4 L1904.2,-4193.6 L1903.9,-4198.9 L1904.0,-4204.0 L1904.6,-4209.9 L1906.0,-4215.8 L1907.9,-4221.0 L1909.8,-4225.8 L1912.3,-4230.4 L1915.3,-4235.9 L1917.4,-4241.0 L1919.1,-4247.5 L1922.3,-4252.3 L1921.2,-4297.0 L1919.6,-4299.5 L1919.0,-4329.8 L1918.2,-4365.6 L1918.8,-4370.5 L1920.4,-4375.6 L1924.4,-4383.5 L1951.1,-4441.0 L1951.7,-4442.0 L1956.4,-4452.2 L1960.9,-4462.0 L1965.8,-4472.0 L1970.8,-4482.2 L1973.2,-4487.3 L1999.4,-4541.2 L2027.5,-4600.8 L2088.4,-4724.2 L2051.8,-4765.1 L2022.0,-4701.7 L1996.2,-4646.7 L1992.3,-4638.9 L1984.4,-4622.7 L1968.5,-4624.0 L1964.1,-4624.3 L1962.6,-4622.8 L1964.7,-4620.9 L1956.5,-4613.7 L1950.1,-4607.7 L1948.9,-4582.3 L1946.5,-4577.2 L1938.7,-4577.5 L1937.4,-4578.0 L1835.2,-4620.1 L1833.0,-4621.3 L1830.6,-4622.8 L1827.0,-4625.6 L1824.1,-4628.3 L1821.7,-4630.9 L1819.4,-4634.1 L1817.6,-4636.9 L1816.2,-4639.8 L1815.0,-4642.9 L1814.3,-4644.9 L1813.8,-4647.5 L1813.3,-4650.5 L1812.9,-4654.6 L1812.9,-4660.4 L1812.2,-4680.3 L1815.0,-4680.5 L1814.6,-4690.9 L1814.2,-4708.2 L1816.8,-4708.3 L1816.6,-4720.1 L1813.7,-4720.0 L1812.3,-4769.8 L1815.1,-4769.9 L1814.6,-4781.5 L1811.9,-4781.4 L1810.8,-4818.2 L1824.3,-4832.7 L1841.5,-4833.3 L1854.4,-4833.8 L1871.3,-4834.3 L1887.6,-4834.9 L1902.3,-4835.4 L1908.6,-4835.6 L1908.3,-4841.3 L1908.2,-4847.2 L1907.2,-4866.3 L1906.9,-4902.9 L1906.4,-4903.5 L1906.3,-4907.2 L1907.4,-4907.2 L1904.8,-4995.3 L1902.6,-5078.1 L1902.2,-5080.7 L1902.0,-5085.5 L1865.9,-5084.2 L1841.9,-5086.3 L1662.3,-5080.0 L1662.3,-5081.6 L1661.9,-5089.3 L1576.7,-5086.3 L1576.5,-5100.4 L1565.3,-5102.9 L1563.3,-5163.5 L1894.7,-5175.0 L1900.2,-5182.6 L1900.0,-5204.1 L1899.6,-5222.6 L1899.3,-5234.3 L1898.8,-5245.6 L1872.5,-5258.1 L1871.4,-5285.6 L1898.5,-5299.0 L1896.0,-5362.7 L1895.3,-5365.9 L1868.5,-5378.4 L1867.6,-5412.5 L1893.1,-5425.7 L1881.7,-5564.1 L1884.8,-5625.8 L1886.2,-5726.2 L1886.1,-5835.4 L1888.5,-5850.8 L1888.7,-5858.1 L1886.3,-5867.1 L1888.8,-5867.1 L1888.8,-5875.1 L1890.3,-6080.6 L1890.1,-6089.8 L1887.2,-6089.7 L1887.3,-6127.5 L1885.6,-6129.9 L1883.1,-6168.9 L1888.2,-6204.5 L1887.5,-6247.7 L1885.8,-6258.0 L1888.4,-6290.0 L1886.6,-6328.6 L1882.1,-6370.0 L1873.6,-6437.0 L1877.6,-6455.4 L1875.9,-6473.4 L1860.6,-6486.5 L1838.1,-6486.2 L1803.9,-6481.7 L1781.7,-6481.7 L1761.4,-6489.2 L1734.9,-6507.4 L1734.9,-6540.0 L1734.2,-6580.2 L1736.8,-6613.6 L1745.6,-6639.7 L1893.0,-6642.4 L1896.3,-6851.4 L1896.3,-7152.2 L1894.8,-7261.4 L9850.9,-10547.2 L9850.9,7561.9 L-5.4,7561.9 L-5.4,-1430.9 Z" fill="#add7e1" stroke="none"><title>Biscayne Bay</title></path><path d="M-3701.4,3211.7 L-3973.5,3010.9 L-3995.3,2994.9 L-4018.9,2989.8 L-4035.5,2975.7 L-4048.8,2974.2 L-4091.8,2977.1 L-4091.8,2973.0 L-4094.2,2969.2 L-4098.9,2966.3 L-4192.3,2925.8 L-4198.7,2922.9 L-4204.2,2921.3 L-4211.1,2920.7 L-4218.1,2920.6 L-4241.3,2920.6 L-4247.5,2920.2 L-4253.5,2919.1 L-4259.9,2916.6 L-4267.6,2914.5 L-4273.2,2914.0 L-4289.7,2913.3 L-4295.1,2912.3 L-4302.1,2910.1 L-4309.0,2908.3 L-4315.7,2906.7 L-4320.9,2904.7 L-4327.1,2900.8 L-4332.8,2896.6 L-4338.2,2892.5 L-4342.6,2890.3 L-4346.1,2889.7 L-4349.1,2889.8 L-4352.3,2890.8 L-4356.1,2892.7 L-4359.1,2896.0 L-4363.2,2900.0 L-4367.7,2904.1 L-4372.8,2906.9 L-4379.2,2909.0 L-4384.6,2910.3 L-4391.1,2911.3 L-4401.8,2912.6 L-4428.9,2913.8 L-4451.9,2915.0 L-4461.9,2918.5 L-4482.2,2919.2 L-4484.9,2915.0 L-4487.9,2913.1 L-4491.1,2912.4 L-4513.0,2913.7 L-4522.5,2917.1 L-4534.2,2917.2 L-4542.0,2916.1 L-4548.5,2914.1 L-4572.0,2915.5 L-4634.3,2920.3 L-4648.7,2920.8 L-4653.6,2920.7 L-4657.9,2919.5 L-4663.1,2917.0 L-4666.8,2914.0 L-4683.0,2914.1 L-4696.6,2913.9 L-4700.2,2916.1 L-4718.9,2916.5 L-4721.3,2920.5 L-4723.9,2920.6 L-4728.5,2919.5 L-4736.8,2918.5 L-4745.2,2918.9 L-4747.9,2919.8 L-4750.5,2919.3 L-4752.3,2917.5 L-4755.4,2915.8 L-4766.7,2915.8 L-4778.2,2916.5 L-4789.0,2922.8 L-4794.4,2925.4 L-4800.4,2926.7 L-4805.5,2927.1 L-4810.1,2926.4 L-4820.5,2921.9 L-4826.5,2920.0 L-4831.7,2919.3 L-4854.0,2919.6 L-4855.4,2916.9 L-4875.1,2917.3 L-4888.7,2919.8 L-4897.7,2920.8 L-4902.5,2921.9 L-4904.3,2920.6 L-4907.8,2920.2 L-4939.6,2917.3 L-4942.3,2918.8 L-4945.7,2919.5 L-4950.1,2919.5 L-4950.1,2917.9 L-4969.9,2914.3 L-4982.3,2911.9 L-5012.4,2901.7 L-5014.1,2904.0 L-5034.2,2897.8 L-5038.4,2896.4 L-5036.3,2889.4 L-5038.7,2888.6 L-5039.2,2887.9 L-5040.5,2887.5 L-5042.3,2887.2 L-5044.5,2886.2 L-5043.7,2885.5 L-5052.6,2878.2 L-5067.4,2864.8 L-5075.4,2857.9 L-5081.1,2851.7 L-5084.2,2847.6 L-5088.9,2841.1 L-5091.6,2836.2 L-5100.0,2825.6 L-5100.8,2825.1 L-5101.4,2825.0 L-5101.9,2825.1 L-5103.1,2825.1 L-5104.1,2824.7 L-5106.1,2823.3 L-5110.4,2821.0 L-5112.6,2819.3 L-5115.0,2817.1 L-5118.3,2815.3 L-5123.6,2813.6 L-5129.2,2812.7 L-5133.9,2812.5 L-5132.6,2800.0 L-5131.4,2783.5 L-5126.3,2784.0 L-5121.1,2784.9 L-5114.4,2786.9 L-5109.4,2788.7 L-5105.0,2790.8 L-5100.7,2792.8 L-5096.7,2795.1 L-5093.3,2797.6 L-5089.0,2801.1 L-5084.4,2804.5 L-5083.3,2805.1 L-5082.4,2805.4 L-5069.7,2804.8 L-5069.6,2807.6 L-5070.4,2808.9 L-5079.8,2809.8 L-5077.4,2814.7 L-5075.8,2814.1 L-5074.2,2815.6 L-5073.3,2817.1 L-5072.5,2818.1 L-5070.5,2820.7 L-5069.8,2823.6 L-5066.7,2827.8 L-5059.5,2832.4 L-5050.6,2836.9 L-5039.9,2843.6 L-5035.0,2845.9 L-5024.7,2851.8 L-5019.9,2854.3 L-5011.0,2857.6 L-4993.6,2862.3 L-4983.4,2864.7 L-4974.1,2865.7 L-4969.2,2866.3 L-4968.1,2866.2 L-4967.6,2865.6 L-4967.4,2862.3 L-4955.9,2862.2 L-4955.7,2866.0 L-4931.5,2867.2 L-4907.8,2867.9 L-4891.8,2867.3 L-4886.5,2866.9 L-4882.7,2866.4 L-4879.5,2865.5 L-4876.6,2863.8 L-4875.2,2861.4 L-4875.7,2822.7 L-4866.0,2822.1 L-4865.1,2859.9 L-4864.6,2860.9 L-4862.6,2862.2 L-4860.4,2862.9 L-4808.7,2862.9 L-4808.9,2846.3 L-4804.8,2846.2 L-4803.2,2862.9 L-4771.3,2862.7 L-4771.2,2860.9 L-4768.1,2860.8 L-4768.0,2862.1 L-4555.3,2858.1 L-4539.8,2856.2 L-4521.0,2855.7 L-4503.2,2858.0 L-4497.3,2857.5 L-4492.9,2856.7 L-4488.9,2855.2 L-4483.6,2853.3 L-4376.7,2851.3 L-4376.7,2844.0 L-4316.9,2842.9 L-4316.8,2851.1 L-4291.4,2851.9 L-4289.5,2851.9 L-4287.7,2851.8 L-4285.3,2851.4 L-4283.4,2850.9 L-4281.6,2850.4 L-4278.5,2848.9 L-4277.0,2851.4 L-4273.9,2849.4 L-4271.1,2847.1 L-4268.6,2844.6 L-4266.5,2841.6 L-4264.6,2838.0 L-4268.2,2836.0 L-4267.2,2832.9 L-4266.6,2829.7 L-4266.3,2826.7 L-4266.2,2824.4 L-4266.3,2822.2 L-4266.6,2803.2 L-4269.7,2800.5 L-4267.1,2797.7 L-4269.7,2795.4 L-4266.7,2791.8 L-4270.0,2789.0 L-4267.4,2786.3 L-4270.0,2783.7 L-4267.0,2780.5 L-4270.1,2777.3 L-4263.5,2770.1 L-4262.4,2770.1 L-4265.3,2662.8 L-4241.2,2662.2 L-4240.1,2662.8 L-4238.7,2663.8 L-4237.8,2664.7 L-4237.4,2665.7 L-4237.0,2666.9 L-4237.0,2668.1 L-4234.9,2834.7 L-4234.0,2840.2 L-4232.6,2843.8 L-4230.5,2848.3 L-4228.1,2852.7 L-4225.5,2856.2 L-4223.5,2858.3 L-4221.2,2860.1 L-4218.7,2861.6 L-4216.1,2862.6 L-4212.5,2863.6 L-4208.0,2864.5 L-4202.6,2865.5 L-4196.3,2866.6 L-4190.3,2867.9 L-4183.6,2869.1 L-4177.3,2870.5 L-4175.3,2870.9 L-4172.9,2871.3 L-4170.5,2871.6 L-4168.4,2871.7 L-4166.0,2871.7 L-4164.1,2871.6 L-4162.3,2871.3 L-4160.7,2870.9 L-4159.0,2870.3 L-4157.5,2869.7 L-4154.7,2868.3 L-4152.1,2866.8 L-4149.6,2864.9 L-4146.6,2862.1 L-4143.8,2859.0 L-4142.3,2856.4 L-4141.0,2853.1 L-4140.3,2850.4 L-4139.9,2847.6 L-4139.6,2844.9 L-4139.6,2842.4 L-4143.3,2663.8 L-4138.1,2658.4 L-4136.2,2658.2 L-4135.5,2657.5 L-4124.6,2657.3 L-4123.6,2655.6 L-4122.0,2656.1 L-4119.3,2658.7 L-4117.4,2661.3 L-4115.5,2664.6 L-4111.9,2864.2 L-4111.5,2867.7 L-4110.9,2874.7 L-4110.2,2876.0 L-4110.7,2876.4 L-4109.8,2878.3 L-4108.6,2880.6 L-4107.7,2882.1 L-4106.4,2883.9 L-4104.8,2885.8 L-4102.9,2887.7 L-4100.5,2889.7 L-4098.4,2891.3 L-4096.1,2892.6 L-4093.9,2893.6 L-4091.5,2894.4 L-4091.2,2893.7 L-4058.1,2905.7 L-4054.0,2907.2 L-4052.1,2907.9 L-4049.1,2909.0 L-4047.0,2909.5 L-4045.2,2909.8 L-4043.4,2909.8 L-4041.1,2909.6 L-4038.4,2909.3 L-4036.2,2908.8 L-4033.8,2908.1 L-4032.0,2907.4 L-4030.2,2906.6 L-4028.7,2905.6 L-4026.8,2904.3 L-4024.4,2902.2 L-4022.2,2900.0 L-4019.8,2897.0 L-4018.1,2894.2 L-4016.7,2891.1 L-4015.7,2887.7 L-4015.1,2884.1 L-4014.8,2877.9 L-4014.9,2865.1 L-4018.6,2662.1 L-4018.6,2659.9 L-4018.1,2658.3 L-4017.4,2657.0 L-4016.0,2655.7 L-4014.4,2654.9 L-4012.5,2654.6 L-3997.4,2654.1 L-3995.7,2654.4 L-3994.0,2655.1 L-3992.9,2656.2 L-3991.6,2658.1 L-3990.8,2660.8 L-3990.4,2664.5 L-3986.6,2924.9 L-3986.4,2926.4 L-3986.1,2928.0 L-3985.7,2929.6 L-3985.2,2931.4 L-3984.6,2933.1 L-3983.9,2934.7 L-3983.2,2936.0 L-3982.6,2937.3 L-3981.6,2938.7 L-3980.6,2940.1 L-3979.6,2941.3 L-3978.2,2942.8 L-3976.8,2944.1 L-3975.3,2945.4 L-3973.6,2946.6 L-3969.0,2949.5 L-3968.5,2949.0 L-3964.5,2951.2 L-3959.7,2953.9 L-3956.9,2955.4 L-3953.9,2957.2 L-3950.7,2959.0 L-3947.5,2961.0 L-3943.9,2963.3 L-3940.2,2965.5 L-3936.6,2967.7 L-3933.7,2969.5 L-3930.3,2971.7 L-3926.8,2974.0 L-3923.4,2976.2 L-3920.2,2978.4 L-3920.5,2978.8 L-3916.1,2981.9 L-3911.6,2984.9 L-3910.2,2985.7 L-3908.6,2986.6 L-3906.5,2987.7 L-3904.4,2988.4 L-3902.2,2989.0 L-3900.2,2989.5 L-3898.0,2989.9 L-3895.4,2990.1 L-3893.2,2990.2 L-3891.4,2990.0 L-3889.7,2989.7 L-3887.7,2989.1 L-3885.6,2988.4 L-3883.7,2987.8 L-3882.0,2987.0 L-3880.2,2986.0 L-3878.4,2984.9 L-3876.7,2983.5 L-3875.1,2982.1 L-3873.5,2980.5 L-3872.1,2978.9 L-3870.5,2976.7 L-3869.3,2974.5 L-3868.1,2972.1 L-3867.4,2970.2 L-3866.8,2968.2 L-3866.5,2966.0 L-3866.3,2963.9 L-3866.4,2961.4 L-3896.1,2677.5 L-3894.0,2677.4 L-3895.6,2663.1 L-3897.2,2663.2 L-3898.4,2656.7 L-3898.0,2655.3 L-3896.7,2653.4 L-3894.1,2651.4 L-3890.8,2651.0 L-3877.3,2650.6 L-3875.1,2651.0 L-3873.5,2651.7 L-3871.9,2653.0 L-3870.7,2654.2 L-3870.0,2655.5 L-3837.5,2973.9 L-3836.7,2976.7 L-3835.3,2980.1 L-3834.1,2982.3 L-3832.8,2984.6 L-3831.1,2986.9 L-3829.7,2988.5 L-3828.2,2990.1 L-3826.5,2991.5 L-3825.0,2992.6 L-3822.8,2993.9 L-3821.0,2994.9 L-3818.5,2995.9 L-3816.2,2996.6 L-3813.7,2997.2 L-3811.6,2997.4 L-3809.9,2997.5 L-3807.9,2997.5 L-3737.2,2996.1 L-3734.9,2995.8 L-3732.7,2994.7 L-3731.2,2993.3 L-3730.0,2991.1 L-3729.7,2989.1 L-3729.7,2987.1 L-3765.5,2646.1 L-3797.0,2605.0 L-3798.4,2606.1 L-3825.8,2567.8 L-3826.3,2559.8 L-3827.1,2558.1 L-3828.6,2556.5 L-3830.4,2553.9 L-3830.6,2550.1 L-3833.9,2548.9 L-3837.0,2548.8 L-3841.2,2550.9 L-3836.4,2559.9 L-3842.5,2562.8 L-3847.1,2558.6 L-3850.9,2556.2 L-3853.6,2555.3 L-3860.1,2555.1 L-3863.4,2548.3 L-3842.7,2539.8 L-3843.6,2538.2 L-3848.0,2532.2 L-3848.7,2532.6 L-4003.2,2330.4 L-4005.5,2297.0 L-4004.3,2296.7 L-4010.3,2235.5 L-4012.6,2229.9 L-4015.0,2223.5 L-4017.0,2218.6 L-4019.2,2212.4 L-4026.8,2191.3 L-4029.8,2192.7 L-4034.2,2175.7 L-4033.5,2175.5 L-4049.0,2133.4 L-4050.7,2059.7 L-4048.9,2059.7 L-4048.7,2053.2 L-4047.8,2046.9 L-4047.5,2044.5 L-4048.1,2042.6 L-4046.0,2032.5 L-4026.8,1998.7 L-4036.9,1992.5 L-4029.5,1980.2 L-4019.7,1985.9 L-4018.9,1984.6 L-4015.8,1986.1 L-4012.5,1987.5 L-4008.8,1988.7 L-4005.9,1989.3 L-4003.2,1989.3 L-4000.0,1988.8 L-3996.8,1987.7 L-3993.7,1986.5 L-3992.3,1985.0 L-3991.7,1983.0 L-3991.0,1980.5 L-3990.8,1979.5 L-3990.9,1978.2 L-3991.6,1976.3 L-3992.9,1974.5 L-3994.4,1973.4 L-3996.6,1971.3 L-3998.5,1969.3 L-4001.3,1967.5 L-4002.5,1964.7 L-4003.8,1961.8 L-4005.9,1958.5 L-4008.4,1955.5 L-4012.9,1952.3 L-4034.7,1941.0 L-4047.6,1934.7 L-4059.6,1928.1 L-4071.1,1921.8 L-4078.5,1917.0 L-4081.3,1916.2 L-4084.5,1917.2 L-4086.2,1919.4 L-4089.8,1928.2 L-4111.9,1918.3 L-4098.6,1897.5 L-4095.8,1896.1 L-4092.2,1895.4 L-4088.1,1896.3 L-4005.2,1944.8 L-4000.7,1946.1 L-3996.0,1947.2 L-3989.3,1947.4 L-3982.6,1946.2 L-3978.3,1944.5 L-3973.6,1940.7 L-3970.9,1938.0 L-3967.9,1933.9 L-3967.9,1933.3 L-3968.1,1932.8 L-3968.6,1932.4 L-3995.4,1915.8 L-3996.1,1915.6 L-3996.7,1915.6 L-3997.5,1915.6 L-4000.0,1916.7 L-4000.9,1916.8 L-4002.0,1916.7 L-4003.6,1916.5 L-4004.7,1916.1 L-4006.4,1915.3 L-4008.1,1914.3 L-4045.0,1891.9 L-4062.3,1879.6 L-4064.0,1879.4 L-4065.6,1879.5 L-4067.5,1879.5 L-4068.9,1879.3 L-4069.9,1878.8 L-4071.3,1877.8 L-4072.7,1876.6 L-4073.7,1875.3 L-4074.3,1873.8 L-4074.4,1872.8 L-4074.3,1871.5 L-4074.0,1870.3 L-4068.1,1860.4 L-4068.1,1859.9 L-4068.5,1859.6 L-4073.9,1855.8 L-4075.0,1854.2 L-4074.4,1853.3 L-4072.6,1853.5 L-4070.7,1854.1 L-4059.6,1861.0 L-3996.7,1901.1 L-3995.5,1901.8 L-3994.6,1902.8 L-3994.0,1903.9 L-3993.3,1906.2 L-3992.8,1908.0 L-3992.6,1909.5 L-3964.2,1926.6 L-3963.2,1927.0 L-3962.0,1927.2 L-3960.6,1926.9 L-3959.6,1926.6 L-3958.7,1926.2 L-3928.2,1876.7 L-3915.4,1858.0 L-3903.4,1844.5 L-3897.4,1847.8 L-3893.5,1841.6 L-3914.2,1829.2 L-3909.8,1821.9 L-3889.1,1834.4 L-3884.4,1826.8 L-3888.2,1822.6 L-3884.4,1818.3 L-3880.3,1823.0 L-3879.3,1822.2 L-3878.2,1821.5 L-3876.6,1820.5 L-3874.9,1819.7 L-3872.9,1819.0 L-3870.9,1818.5 L-3868.8,1818.1 L-3866.7,1818.0 L-3864.7,1818.0 L-3862.8,1818.3 L-3860.9,1818.7 L-3859.3,1819.2 L-3858.0,1819.8 L-3856.1,1820.7 L-3854.3,1821.8 L-3852.9,1822.9 L-3851.4,1824.2 L-3850.0,1825.5 L-3848.5,1827.5 L-3847.5,1829.2 L-3846.4,1831.4 L-3845.7,1833.7 L-3845.1,1836.8 L-3844.9,1839.5 L-3845.0,1841.1 L-3845.2,1842.6 L-3845.7,1845.1 L-3847.1,1848.3 L-3848.0,1850.5 L-3849.2,1853.0 L-3844.1,1855.6 L-3819.8,1826.6 L-3864.0,1799.7 L-3861.7,1795.0 L-3860.2,1790.5 L-3860.1,1788.6 L-3857.5,1783.1 L-3852.3,1778.3 L-3845.7,1773.0 L-3838.0,1768.0 L-3823.5,1763.8 L-3798.3,1761.3 L-3788.5,1753.3 L-3786.4,1752.9 L-3784.8,1752.9 L-3782.4,1753.8 L-3780.2,1754.0 L-3766.3,1762.4 L-3729.6,1718.9 L-3864.1,1633.4 L-3872.4,1646.5 L-3890.6,1635.1 L-3864.8,1594.6 L-3846.7,1605.7 L-3854.8,1619.5 L-3717.9,1705.8 L-3700.7,1683.7 L-3688.5,1669.2 L-3672.4,1645.0 L-3663.5,1632.7 L-3664.4,1625.8 L-3664.2,1625.6 L-3665.7,1620.4 L-3666.8,1617.3 L-3667.8,1614.0 L-3669.0,1611.1 L-3671.3,1607.3 L-3673.6,1603.7 L-3674.6,1601.8 L-3675.4,1599.9 L-3675.9,1598.1 L-3676.1,1596.6 L-3676.4,1591.5 L-3735.4,1537.3 L-3737.4,1539.4 L-3739.0,1538.0 L-3743.8,1542.7 L-3747.0,1538.5 L-3743.2,1534.1 L-3747.0,1529.3 L-3749.6,1529.9 L-3752.3,1530.0 L-3754.8,1529.6 L-3756.9,1528.7 L-3759.4,1526.9 L-3762.5,1523.8 L-3767.9,1517.8 L-3769.6,1515.2 L-3770.2,1512.0 L-3769.8,1508.3 L-3768.4,1504.7 L-3767.1,1502.3 L-3764.7,1500.0 L-3762.1,1498.2 L-3759.5,1497.2 L-3757.6,1496.9 L-3755.1,1497.3 L-3752.6,1498.3 L-3750.2,1500.1 L-3744.6,1505.2 L-3741.8,1507.9 L-3739.1,1510.7 L-3738.3,1512.1 L-3737.7,1513.5 L-3737.4,1514.8 L-3737.1,1516.6 L-3737.4,1518.3 L-3737.9,1519.9 L-3738.6,1521.1 L-3738.8,1521.6 L-3738.7,1522.3 L-3738.2,1523.1 L-3674.8,1582.5 L-3672.6,1584.0 L-3671.1,1584.7 L-3668.8,1584.2 L-3666.3,1583.9 L-3663.0,1585.4 L-3659.6,1587.4 L-3653.2,1591.1 L-3650.5,1592.3 L-3648.1,1589.9 L-3645.4,1587.4 L-3643.5,1585.3 L-3640.5,1581.4 L-3638.8,1579.1 L-3637.1,1576.1 L-3635.9,1573.6 L-3634.6,1570.9 L-3633.5,1568.0 L-3632.5,1565.2 L-3631.8,1562.7 L-3631.1,1559.6 L-3630.9,1557.8 L-3630.6,1556.3 L-3630.3,1553.6 L-3630.0,1551.0 L-3629.8,1549.3 L-3629.7,1547.4 L-3629.7,1545.3 L-3629.8,1543.5 L-3630.2,1541.0 L-3630.5,1538.1 L-3630.9,1535.5 L-3631.2,1533.4 L-3631.5,1531.7 L-3631.9,1530.1 L-3632.3,1528.3 L-3632.9,1526.4 L-3633.6,1524.4 L-3634.1,1523.1 L-3634.7,1521.9 L-3635.5,1520.8 L-3636.7,1519.1 L-3637.9,1517.6 L-3639.3,1516.3 L-3641.0,1514.9 L-3642.7,1513.8 L-3644.5,1512.9 L-3646.1,1512.2 L-3647.2,1511.9 L-3648.5,1511.7 L-3649.9,1511.8 L-3651.3,1512.1 L-3652.4,1512.5 L-3653.5,1513.3 L-3654.3,1514.1 L-3654.9,1514.9 L-3655.3,1516.0 L-3655.6,1517.3 L-3655.5,1518.7 L-3655.4,1520.5 L-3655.4,1521.8 L-3655.5,1523.1 L-3655.7,1524.4 L-3656.0,1525.5 L-3656.4,1526.8 L-3657.1,1528.1 L-3657.9,1529.3 L-3658.8,1530.4 L-3659.7,1531.3 L-3661.3,1532.6 L-3662.8,1533.5 L-3664.9,1534.2 L-3666.2,1534.5 L-3667.7,1534.7 L-3669.1,1534.7 L-3670.9,1534.7 L-3672.2,1534.4 L-3674.0,1534.0 L-3676.5,1533.3 L-3678.6,1532.5 L-3680.2,1531.8 L-3681.8,1530.9 L-3683.2,1529.9 L-3684.9,1528.7 L-3686.1,1527.6 L-3687.2,1526.5 L-3688.3,1525.2 L-3689.2,1524.0 L-3690.0,1522.8 L-3690.7,1521.5 L-3691.6,1519.7 L-3692.2,1518.0 L-3692.9,1516.2 L-3693.4,1514.8 L-3693.7,1513.5 L-3694.0,1512.2 L-3694.2,1510.1 L-3694.3,1508.2 L-3694.2,1506.2 L-3693.8,1503.5 L-3693.1,1500.9 L-3692.1,1498.2 L-3691.4,1497.0 L-3690.8,1496.2 L-3685.6,1489.7 L-3684.5,1488.3 L-3682.9,1487.6 L-3681.3,1487.0 L-3679.4,1486.6 L-3677.3,1486.3 L-3675.5,1486.2 L-3673.8,1486.3 L-3672.0,1486.5 L-3669.9,1487.1 L-3667.8,1488.2 L-3665.9,1489.3 L-3664.2,1490.6 L-3659.0,1495.4 L-3657.8,1495.8 L-3657.1,1495.9 L-3656.2,1495.8 L-3655.7,1495.6 L-3655.0,1494.8 L-3654.7,1494.0 L-3654.6,1492.8 L-3654.6,1491.9 L-3654.8,1491.4 L-3665.3,1481.0 L-3651.0,1465.8 L-3651.8,1463.9 L-3643.6,1455.8 L-3627.6,1471.7 L-3640.5,1488.0 L-3640.5,1489.0 L-3639.9,1489.3 L-3639.1,1489.2 L-3625.1,1471.6 L-3620.9,1466.6 L-3620.8,1465.5 L-3621.2,1464.4 L-3621.9,1463.6 L-3632.9,1453.2 L-3630.2,1450.0 L-3632.9,1447.6 L-3631.4,1443.9 L-3602.8,1415.3 L-3593.1,1413.6 L-3590.0,1413.2 L-3587.1,1412.7 L-3585.7,1412.4 L-3584.1,1411.6 L-3582.3,1410.5 L-3580.8,1409.0 L-3579.4,1407.3 L-3564.8,1386.2 L-3564.5,1385.6 L-3564.7,1384.9 L-3564.9,1384.4 L-3565.3,1383.9 L-3567.0,1382.9 L-3567.4,1382.6 L-3567.9,1382.6 L-3568.3,1382.9 L-3569.2,1383.6 L-3581.5,1395.0 L-3586.2,1398.4 L-3605.7,1378.4 L-3603.4,1371.3 L-3602.5,1369.2 L-3599.5,1363.6 L-3595.9,1357.4 L-3593.7,1355.0 L-3589.9,1350.9 L-3585.8,1346.3 L-3581.3,1341.6 L-3577.4,1338.3 L-3575.6,1336.6 L-3573.2,1334.9 L-3570.9,1333.6 L-3567.7,1332.2 L-3565.7,1331.5 L-3563.7,1330.9 L-3562.2,1330.8 L-3560.0,1330.9 L-3558.1,1331.2 L-3556.0,1331.7 L-3553.9,1333.4 L-3552.7,1335.2 L-3551.9,1337.0 L-3551.6,1339.7 L-3551.8,1343.3 L-3552.2,1347.2 L-3553.1,1351.1 L-3558.2,1362.6 L-3563.1,1372.9 L-3561.4,1375.7 L-3560.5,1376.2 L-3559.5,1376.2 L-3558.7,1376.1 L-3558.0,1375.6 L-3554.7,1370.9 L-3550.4,1368.7 L-3541.8,1345.9 L-3541.3,1344.8 L-3540.4,1343.8 L-3539.5,1343.3 L-3538.8,1343.1 L-3537.6,1343.1 L-3536.4,1343.4 L-3530.2,1345.2 L-3528.9,1345.4 L-3527.6,1345.4 L-3526.3,1345.2 L-3525.2,1344.8 L-3524.3,1344.1 L-3523.4,1342.9 L-3512.9,1328.9 L-3512.4,1327.9 L-3512.2,1326.8 L-3512.2,1325.7 L-3512.4,1324.6 L-3512.7,1323.8 L-3513.4,1323.0 L-3514.1,1322.4 L-3515.1,1321.9 L-3516.0,1321.6 L-3517.0,1321.6 L-3517.8,1321.7 L-3518.7,1322.1 L-3519.4,1322.7 L-3520.0,1323.4 L-3522.7,1327.8 L-3523.3,1328.7 L-3524.0,1329.5 L-3525.1,1330.4 L-3526.0,1330.9 L-3527.2,1331.3 L-3528.6,1331.5 L-3529.4,1331.5 L-3530.4,1331.4 L-3531.4,1331.2 L-3532.2,1330.8 L-3540.8,1323.0 L-3541.8,1321.8 L-3542.5,1320.7 L-3543.2,1319.3 L-3543.7,1318.2 L-3544.0,1317.0 L-3544.2,1315.7 L-3544.4,1314.1 L-3544.4,1312.5 L-3544.3,1311.1 L-3544.1,1310.0 L-3543.8,1309.0 L-3543.5,1308.2 L-3527.8,1283.3 L-3526.8,1281.7 L-3526.2,1280.8 L-3525.5,1280.4 L-3524.4,1279.9 L-3523.2,1279.5 L-3522.0,1279.4 L-3521.3,1279.4 L-3520.7,1279.5 L-3520.1,1279.7 L-3519.3,1280.0 L-3518.4,1280.6 L-3516.8,1282.0 L-3509.7,1288.6 L-3508.5,1290.3 L-3507.7,1292.0 L-3507.1,1293.9 L-3506.9,1295.4 L-3506.8,1297.0 L-3506.8,1298.4 L-3506.9,1299.7 L-3507.2,1301.1 L-3507.5,1302.0 L-3508.3,1303.9 L-3511.1,1309.1 L-3511.5,1310.3 L-3511.5,1311.8 L-3511.4,1312.9 L-3510.9,1313.7 L-3510.2,1314.5 L-3509.0,1315.4 L-3508.0,1315.9 L-3506.9,1316.2 L-3505.5,1316.2 L-3504.4,1315.9 L-3503.1,1315.3 L-3502.0,1314.3 L-3483.5,1288.9 L-3489.2,1283.8 L-3485.8,1280.1 L-3480.7,1284.9 L-3470.4,1271.3 L-3454.6,1250.3 L-3518.0,1189.5 L-3531.8,1204.0 L-3547.9,1188.7 L-3532.3,1171.9 L-3534.4,1169.7 L-3531.1,1166.7 L-3529.1,1168.7 L-3518.2,1156.9 L-3508.5,1165.9 L-3507.4,1173.4 L-3466.3,1211.7 L-3458.3,1214.8 L-3452.0,1212.6 L-3439.8,1217.4 L-3431.8,1214.4 L-3407.8,1185.2 L-3406.5,1182.4 L-3406.1,1178.7 L-3407.2,1175.1 L-3408.9,1172.5 L-3423.0,1159.4 L-3422.9,1155.8 L-3420.1,1148.7 L-3414.4,1138.3 L-3425.5,1131.1 L-3421.3,1129.6 L-3418.6,1127.8 L-3416.0,1124.8 L-3412.9,1116.9 L-3407.2,1102.4 L-3403.5,1099.0 L-3438.6,1065.0 L-3446.3,1069.8 L-3448.1,1070.3 L-3449.8,1070.3 L-3452.0,1070.0 L-3453.8,1069.5 L-3455.6,1068.5 L-3457.0,1067.2 L-3475.2,1049.7 L-3478.6,1046.4 L-3480.0,1044.6 L-3481.3,1042.3 L-3481.9,1040.2 L-3482.1,1038.2 L-3482.1,1036.4 L-3481.7,1034.5 L-3481.3,1033.1 L-3480.7,1032.0 L-3479.4,1030.2 L-3477.9,1028.4 L-3469.7,1019.9 L-3407.7,1077.3 L-3412.0,1082.1 L-3366.0,1125.6 L-3313.0,1048.1 L-3346.7,1016.6 L-3351.0,1020.5 L-3413.7,961.3 L-3405.5,953.6 L-3369.4,987.4 L-3365.8,982.1 L-3363.9,979.5 L-3361.3,976.8 L-3358.4,973.6 L-3355.4,971.7 L-3350.6,967.7 L-3345.9,963.3 L-3336.7,954.7 L-3315.0,930.2 L-3311.1,926.1 L-3296.7,918.8 L-3283.1,908.2 L-3281.8,907.1 L-3278.3,904.4 L-3276.8,903.0 L-3275.5,901.4 L-3274.7,899.8 L-3274.1,898.1 L-3273.4,896.9 L-3272.7,895.5 L-3271.4,893.3 L-3270.5,892.0 L-3269.6,890.8 L-3268.0,889.4 L-3266.4,888.4 L-3264.6,887.3 L-3260.5,885.3 L-3256.4,883.3 L-3255.9,883.2 L-3255.2,883.3 L-3254.0,883.7 L-3250.8,885.3 L-3248.3,886.5 L-3247.2,887.2 L-3246.2,888.0 L-3229.4,903.9 L-3228.3,904.6 L-3222.9,906.0 L-3221.1,906.5 L-3219.1,906.7 L-3217.7,906.6 L-3216.5,906.2 L-3215.3,905.5 L-3209.4,897.1 L-3209.4,895.9 L-3209.6,894.8 L-3210.3,893.7 L-3211.2,892.6 L-3215.8,888.4 L-3215.5,887.7 L-3209.6,875.3 L-3199.6,855.1 L-3190.5,848.4 L-3185.3,843.1 L-3181.6,839.0 L-3177.9,835.1 L-3173.6,831.7 L-3171.1,829.4 L-3168.4,826.9 L-3166.4,824.9 L-3165.4,823.1 L-3164.6,821.7 L-3164.1,820.3 L-3163.9,818.7 L-3163.8,817.2 L-3160.7,814.1 L-3156.3,809.8 L-3148.7,803.7 L-3140.9,797.7 L-3137.4,792.8 L-3136.1,787.7 L-3132.2,785.4 L-3127.3,785.3 L-3122.3,782.3 L-3118.0,774.5 L-3118.1,766.3 L-3117.3,753.7 L-3116.0,751.9 L-3115.3,750.7 L-3113.9,748.4 L-3115.7,743.1 L-3113.7,740.6 L-3103.8,728.3 L-3086.7,708.4 L-3083.5,703.7 L-3082.2,701.3 L-3076.8,693.8 L-3075.3,689.2 L-3075.3,681.9 L-3075.5,674.7 L-3075.5,667.3 L-3073.3,659.1 L-3069.6,651.0 L-3064.3,643.3 L-3060.5,637.6 L-3055.9,631.8 L-3047.1,622.0 L-3008.1,602.7 L-3002.9,601.4 L-3001.6,604.2 L-3000.1,606.9 L-2999.6,607.4 L-2998.8,607.0 L-2998.6,605.1 L-2999.2,603.5 L-2997.0,602.9 L-2989.0,600.5 L-2978.6,597.4 L-2970.2,594.9 L-2967.3,594.0 L-2970.2,584.6 L-2965.1,583.2 L-2956.4,582.0 L-2955.3,581.8 L-2955.3,581.2 L-2955.3,579.0 L-2947.5,578.6 L-2935.2,578.1 L-2930.4,580.5 L-2918.6,623.2 L-2915.9,625.7 L-2921.0,631.0 L-2916.5,635.5 L-2912.0,640.0 L-2906.6,634.5 L-2806.4,729.8 L-2672.6,587.0 L-2625.8,631.7 L-2624.0,631.1 L-2623.3,631.9 L-2620.2,630.0 L-2617.6,629.0 L-2614.8,627.8 L-2610.1,625.3 L-2607.2,623.7 L-2603.7,621.7 L-2600.6,619.7 L-2598.0,618.0 L-2595.6,616.4 L-2592.7,614.3 L-2589.6,612.0 L-2587.1,609.9 L-2584.5,607.7 L-2581.7,604.9 L-2578.9,602.2 L-2572.6,595.6 L-2568.9,591.0 L-2565.1,586.1 L-2562.6,582.5 L-2560.2,578.8 L-2557.4,573.6 L-2554.9,568.5 L-2552.9,564.4 L-2551.2,560.3 L-2550.1,557.5 L-2549.0,554.4 L-2546.2,551.1 L-2631.8,469.7 L-2630.7,468.5 L-2620.5,457.6 L-2613.0,449.7 L-2612.3,448.9 L-2590.6,469.2 L-2585.3,466.5 L-2584.7,467.2 L-2533.7,440.7 L-2531.6,439.5 L-2530.2,438.4 L-2528.8,437.1 L-2527.3,435.5 L-2525.7,433.3 L-2524.5,431.2 L-2523.6,429.6 L-2523.0,427.5 L-2522.4,425.3 L-2522.2,422.9 L-2522.2,420.1 L-2522.4,417.9 L-2522.8,415.9 L-2523.5,413.6 L-2539.4,367.7 L-2541.6,360.2 L-2541.0,357.6 L-2579.5,348.0 L-2577.7,341.4 L-2576.2,335.4 L-2564.8,290.2 L-2573.7,264.0 L-2578.8,247.0 L-2580.4,242.7 L-2566.6,230.0 L-2551.0,221.7 L-2550.1,223.0 L-2548.6,225.1 L-2545.0,229.7 L-2544.7,229.3 L-2544.6,227.7 L-2549.4,221.1 L-2540.8,214.8 L-2538.9,213.7 L-2534.3,219.6 L-2533.6,220.2 L-2532.8,220.3 L-2532.4,220.2 L-2532.4,219.8 L-2553.8,190.5 L-2555.4,188.8 L-2557.2,186.3 L-2566.5,175.1 L-2558.6,150.4 L-2552.4,144.1 L-2545.4,140.8 L-2530.4,131.9 L-2527.3,128.7 L-2513.9,116.9 L-2509.6,121.4 L-2497.2,134.8 L-2485.6,125.1 L-2477.9,132.5 L-2470.9,139.4 L-2470.5,139.7 L-2464.6,134.6 L-2456.9,143.0 L-2450.1,151.6 L-2445.2,157.3 L-2444.5,158.0 L-2430.1,145.4 L-2429.4,144.8 L-2432.8,140.6 L-2424.9,134.2 L-2401.2,161.9 L-2380.9,148.6 L-2378.9,146.7 L-2370.1,143.0 L-2368.1,141.0 L-2366.2,138.5 L-2355.4,128.9 L-2357.8,125.5 L-2377.2,129.9 L-2399.4,104.7 L-2396.9,102.5 L-2393.5,106.4 L-2377.8,92.9 L-2361.1,111.1 L-2356.6,112.9 L-2354.0,114.5 L-2350.5,118.3 L-2348.7,116.7 L-2360.8,103.0 L-2353.4,96.5 L-2338.4,114.5 L-2336.5,113.1 L-2336.7,112.7 L-2303.9,89.0 L-2294.2,81.8 L-2326.0,42.0 L-2319.2,37.3 L-2291.5,69.7 L-2271.1,73.4 L-2257.5,65.6 L-2255.7,64.4 L-2255.8,62.9 L-2256.7,61.1 L-2246.1,54.5 L-2243.1,57.6 L-2234.1,52.3 L-2240.6,44.3 L-2271.8,2.7 L-2249.8,-20.2 L-2235.3,-41.5 L-2235.0,-58.2 L-2242.7,-80.4 L-2226.5,-93.9 L-2209.4,-100.5 L-2203.9,-101.7 L-2199.4,-102.3 L-2193.9,-102.0 L-2188.1,-100.6 L-2179.9,-93.6 L-2158.5,-67.4 L-2141.4,-45.7 L-2121.0,-32.1 L-2112.9,-30.8 L-2105.7,-29.9 L-2099.6,-29.7 L-2091.8,-30.2 L-2083.3,-31.6 L-2076.5,-33.6 L-2070.7,-36.3 L-2066.9,-38.6 L-2064.0,-41.5 L-2059.2,-47.4 L-2054.0,-56.9 L-2048.4,-69.5 L-2038.3,-64.3 L-2034.3,-63.0 L-2030.0,-62.3 L-2023.1,-62.8 L-2018.6,-64.1 L-2013.4,-66.4 L-2008.5,-69.2 L-2003.4,-74.2 L-1999.0,-78.2 L-1993.5,-81.9 L-1989.7,-84.4 L-1984.1,-86.4 L-1974.5,-89.2 L-1968.8,-90.8 L-1962.6,-93.1 L-1957.3,-95.8 L-1954.2,-97.7 L-1951.7,-100.2 L-1919.0,-116.6 L-1917.8,-117.3 L-1916.3,-118.3 L-1914.8,-119.4 L-1912.6,-120.7 L-1911.1,-121.4 L-1909.6,-122.7 L-1908.4,-124.0 L-1906.8,-125.0 L-1905.1,-126.2 L-1902.8,-128.3 L-1899.6,-128.6 L-1896.3,-129.0 L-1894.2,-129.6 L-1891.4,-130.9 L-1888.0,-132.5 L-1884.3,-134.7 L-1882.2,-136.7 L-1879.9,-139.3 L-1878.5,-141.8 L-1877.7,-144.1 L-1877.7,-145.6 L-1877.6,-147.0 L-1876.8,-152.1 L-1858.6,-162.7 L-1826.7,-181.1 L-1820.5,-184.6 L-1766.4,-215.9 L-1707.8,-249.5 L-1682.9,-263.8 L-1674.2,-268.6 L-1601.7,-310.7 L-1585.7,-319.6 L-1585.9,-320.2 L-1552.7,-338.9 L-1540.0,-346.0 L-1516.5,-359.1 L-1516.3,-358.7 L-1507.2,-363.7 L-1485.1,-376.0 L-1482.4,-378.4 L-1460.0,-394.9 L-1448.9,-404.1 L-1438.6,-412.8 L-1433.9,-415.4 L-1423.3,-425.9 L-1422.4,-425.3 L-1421.0,-425.5 L-1420.3,-425.0 L-1405.4,-442.5 L-1409.1,-446.0 L-1408.6,-446.9 L-1407.0,-449.2 L-1402.8,-454.7 L-1400.2,-458.6 L-1398.1,-461.8 L-1395.3,-466.2 L-1392.5,-470.7 L-1389.4,-475.9 L-1386.2,-481.4 L-1379.2,-495.8 L-1377.1,-500.4 L-1375.4,-504.0 L-1374.1,-506.7 L-1373.1,-508.9 L-1370.9,-514.3 L-1428.8,-622.3 L-1429.9,-624.4 L-1430.7,-625.6 L-1431.4,-626.4 L-1432.2,-627.1 L-1432.9,-627.6 L-1433.9,-628.2 L-1435.0,-628.6 L-1435.9,-628.8 L-1436.8,-628.9 L-1438.1,-628.9 L-1439.6,-628.7 L-1441.0,-628.3 L-1442.4,-627.6 L-1455.9,-619.8 L-1473.4,-609.7 L-1485.7,-602.9 L-1508.0,-590.7 L-1521.7,-583.2 L-1521.2,-582.3 L-1527.0,-579.0 L-1546.2,-569.1 L-1560.4,-560.7 L-1568.7,-556.1 L-1581.5,-548.7 L-1582.9,-547.8 L-1594.1,-567.8 L-1572.1,-579.8 L-1542.2,-596.0 L-1521.9,-607.4 L-1519.4,-608.8 L-1519.7,-609.4 L-1502.2,-618.9 L-1492.8,-624.1 L-1471.3,-634.6 L-1467.3,-636.6 L-1434.9,-654.6 L-1422.8,-661.3 L-1414.2,-665.9 L-1404.1,-671.7 L-1390.1,-646.4 L-1412.1,-634.4 L-1413.2,-632.6 L-1413.7,-630.6 L-1413.9,-629.1 L-1413.9,-627.8 L-1413.8,-626.8 L-1413.4,-625.3 L-1368.6,-542.4 L-1367.7,-541.1 L-1366.7,-540.2 L-1365.8,-539.5 L-1364.7,-539.2 L-1363.6,-539.0 L-1362.5,-539.1 L-1361.6,-539.4 L-1341.7,-554.5 L-1332.4,-562.3 L-1322.7,-570.4 L-1319.0,-573.8 L-1307.1,-583.6 L-1306.5,-583.6 L-1295.0,-593.5 L-1294.9,-594.1 L-1287.3,-600.3 L-1281.3,-605.3 L-1271.0,-613.8 L-1270.1,-612.6 L-1260.0,-620.9 L-1254.9,-625.2 L-1240.7,-636.9 L-1230.9,-645.1 L-1231.8,-646.5 L-1228.5,-649.3 L-1223.2,-653.7 L-1219.9,-656.6 L-1205.9,-662.8 L-1196.5,-666.2 L-1191.6,-668.5 L-1178.1,-668.6 L-1173.3,-668.6 L-1163.3,-668.0 L-1151.5,-667.5 L-1150.6,-668.4 L-1149.5,-666.8 L-1145.8,-666.7 L-1112.1,-663.8 L-1108.2,-662.9 L-1104.8,-662.4 L-1097.0,-661.7 L-1082.4,-661.0 L-1079.2,-661.0 L-1076.2,-661.0 L-1064.5,-661.5 L-1058.5,-661.8 L-1052.6,-662.4 L-1043.5,-663.3 L-1043.5,-662.8 L-1036.3,-664.0 L-1029.4,-665.3 L-1024.1,-666.3 L-1017.3,-671.5 L-1016.4,-670.3 L-1015.6,-669.2 L-954.8,-588.7 L-808.1,-538.2 L-538.7,-736.0 L-465.4,-788.8 L-437.0,-849.3 L-482.1,-908.4 L-480.1,-916.8 L-472.2,-919.0 L-457.0,-915.8 L-446.2,-919.9 L-443.2,-924.1 L-443.9,-927.7 L-451.9,-943.6 L-452.5,-949.5 L-452.9,-961.2 L-454.3,-972.4 L-452.9,-974.5 L-448.3,-976.6 L-442.8,-977.9 L-438.8,-982.2 L-437.9,-987.4 L-441.3,-997.5 L-441.6,-1004.4 L-440.6,-1012.3 L-435.1,-1026.2 L-436.2,-1032.6 L-438.9,-1039.7 L-439.0,-1049.4 L-440.6,-1062.2 L-443.6,-1070.2 L-445.3,-1074.4 L-444.2,-1076.3 L-443.0,-1076.1 L-442.7,-1076.9 L-442.6,-1077.9 L-442.6,-1078.9 L-444.3,-1079.1 L-445.5,-1080.7 L-445.3,-1082.5 L-446.8,-1082.9 L-448.6,-1083.0 L-448.9,-1082.5 L-452.6,-1087.0 L-453.4,-1088.4 L-454.1,-1090.4 L-454.6,-1092.2 L-454.9,-1094.2 L-455.1,-1096.3 L-455.1,-1098.0 L-455.2,-1099.9 L-455.0,-1100.9 L-454.2,-1103.4 L-453.3,-1105.4 L-452.1,-1107.3 L-450.4,-1109.8 L-448.7,-1112.2 L-447.0,-1113.8 L-445.0,-1115.4 L-444.6,-1115.0 L-427.0,-1128.4 L-424.5,-1130.4 L-425.0,-1131.1 L-425.0,-1132.4 L-420.6,-1135.8 L-419.6,-1135.8 L-418.5,-1135.0 L-416.7,-1136.4 L-398.6,-1150.0 L-398.9,-1150.5 L-396.7,-1152.1 L-394.2,-1153.6 L-392.5,-1154.4 L-390.0,-1155.4 L-387.8,-1155.9 L-385.7,-1156.3 L-383.4,-1156.5 L-381.9,-1156.3 L-380.0,-1156.0 L-378.1,-1155.4 L-376.7,-1154.7 L-375.3,-1153.9 L-374.3,-1153.2 L-373.5,-1152.3 L-372.2,-1151.2 L-371.7,-1150.9 L-370.8,-1150.9 L-369.9,-1151.1 L-367.2,-1153.1 L-367.1,-1153.6 L-366.8,-1154.0 L-366.6,-1154.5 L-366.6,-1155.2 L-366.7,-1155.7 L-367.2,-1156.3 L-369.1,-1158.2 L-370.6,-1159.5 L-372.4,-1160.5 L-375.4,-1161.7 L-377.9,-1162.8 L-373.5,-1165.1 L-368.1,-1168.8 L-361.3,-1169.7 L-354.6,-1169.3 L-350.1,-1171.0 L-346.3,-1176.5 L-331.8,-1202.5 L-325.9,-1213.2 L-321.3,-1224.6 L-320.5,-1226.9 L-313.5,-1248.1 L-312.5,-1250.2 L-311.2,-1252.2 L-294.9,-1272.3 L-291.5,-1275.9 L-288.9,-1278.1 L-252.6,-1309.2 L-250.7,-1310.5 L-244.4,-1313.9 L-237.0,-1318.1 L-213.8,-1330.2 L-163.2,-1357.4 L-162.1,-1356.5 L-161.1,-1356.1 L-160.2,-1355.9 L-159.3,-1356.0 L-158.4,-1356.2 L-155.7,-1356.8 L-152.6,-1357.5 L-149.7,-1358.1 L-146.8,-1358.6 L-145.2,-1359.0 L-142.9,-1359.7 L-140.5,-1360.7 L-134.4,-1364.0 L-132.2,-1365.2 L-131.1,-1365.9 L-129.9,-1366.4 L-125.2,-1368.4 L-120.1,-1370.4 L-113.6,-1373.2 L-105.9,-1376.3 L-105.6,-1376.5 L-105.0,-1376.5 L-104.1,-1376.8 L-102.9,-1377.7 L-101.6,-1378.2 L-100.1,-1378.9 L-97.3,-1380.5 L-96.3,-1381.5 L-94.6,-1382.6 L-94.8,-1382.9 L-94.1,-1383.7 L-93.1,-1384.7 L-91.7,-1385.5 L-90.4,-1385.9 L-89.1,-1386.4 L-87.8,-1387.1 L-85.4,-1388.7 L-84.6,-1389.4 L-83.9,-1390.5 L-83.6,-1391.2 L-83.6,-1392.0 L-83.6,-1392.8 L-83.5,-1393.6 L-90.5,-1402.0 L-68.5,-1414.9 L-58.0,-1420.5 L-55.9,-1421.1 L-52.7,-1420.6 L-49.2,-1415.6 L-47.6,-1414.2 L-46.1,-1413.5 L-44.8,-1413.2 L-43.6,-1413.3 L-24.6,-1421.0 L-19.5,-1423.5 L-14.7,-1426.2 L-7.0,-1430.3 L-5.4,-1430.9 L102.0,-1475.5 L135.6,-1491.6 L285.9,-1563.8 L3792.4,-1592.8 L3792.4,3425.0 L-3701.4,3425.0 L-3701.4,3211.7 Z" fill="#add7e1" stroke="none"><title>Biscayne Bay</title></path></svg>