<svg xmlns="http://www.w3.org/2000/svg" width="256" height="256" viewBox="0 0 256 256"><defs><pattern id="park-dots" width="22" height="22" patternUnits="userSpaceOnUse"><circle cx="5" cy="5" r="2.1" fill="#63a95d" fill-opacity="0.26"/><circle cx="16" cy="7" r="1.55" fill="#76b970" fill-opacity="0.23"/><circle cx="10" cy="17" r="1.9" fill="#61a65b" fill-opacity="0.24"/><circle cx="21" cy="17" r="1.25" fill="#80c174" fill-opacity="0.18"/><circle cx="1" cy="19" r="1.2" fill="#70b46a" fill-opacity="0.17"/></pattern><pattern id="park-canopy" width="54" height="48" patternUnits="userSpaceOnUse"><circle cx="12" cy="11" r="3.6" fill="#5ea75a" fill-opacity="0.22"/><circle cx="31" cy="15" r="2.9" fill="#75ba6d" fill-opacity="0.18"/><circle cx="45" cy="31" r="3.3" fill="#67ae62" fill-opacity="0.20"/><circle cx="19" cy="39" r="2.5" fill="#83c378" fill-opacity="0.16"/></pattern></defs><rect width="256" height="256" fill="#f1efe7"/><path d="M252.4,-110.5 L263.1,-110.7 L263.2,-124.2 L224.1,-123.4 L216.9,-122.1 L212.1,-118.7 L209.3,-113.8 L208.6,-108.6 L211.9,-12.9 L214.2,-5.3 L218.2,1.4 L223.6,3.5 L296.7,1.5 L296.6,-7.3 L273.3,-7.0 L272.5,-56.0 L253.2,-55.7 L252.9,-76.2 L224.1,-75.6 L223.6,-105.1 L228.0,-110.2 L252.4,-110.5 Z" fill="#e8ecec" stroke="#d7d1c5" stroke-width="0.3"></path><path d="M265.1,256.9 L233.3,258.1 L233.0,250.8 L222.1,251.2 L221.7,241.3 L221.1,224.5 L263.8,222.9 L264.2,232.4 L264.8,247.9 L265.1,256.9 Z" fill="#e8ecec" stroke="#d7d1c5" stroke-width="0.3"></path><path d="M276.3,114.9 L276.7,148.9 L224.0,150.2 L223.4,117.9 L276.3,114.9 Z" fill="#e8ecec" stroke="#d7d1c5" stroke-width="0.3"></path><path d="M341.6,74.4 L342.1,91.0 L233.8,95.1 L233.2,76.7 L341.6,74.4 Z" fill="#e8ecec" stroke="#d7d1c5" stroke-width="0.3"></path><path d="M262.3,194.1 L262.7,180.1 L247.5,180.5 L248.1,194.6 L262.3,194.1 Z" fill="#dcf5d2" stroke="#9fcf91" stroke-width="0.4"></path><path d="M262.3,194.1 L262.7,180.1 L247.5,180.5 L248.1,194.6 L262.3,194.1 Z" fill="url(#park-dots)" stroke="none"/><path d="M262.3,194.1 L262.7,180.1 L247.5,180.5 L248.1,194.6 L262.3,194.1 Z" fill="url(#park-canopy)" stroke="none"/><path d="M239.8,220.8 L219.1,221.4 L217.8,193.8 L218.5,190.6 L219.6,188.1 L220.8,186.0 L223.2,183.9 L225.8,182.2 L228.1,181.2 L231.1,181.0 L245.0,180.5 L245.1,191.6 L236.0,191.9 L236.1,194.9 L228.0,195.2 L228.7,216.1 L239.7,215.8 L239.8,220.8 Z" fill="#dcf5d2" stroke="#9fcf91" stroke-width="0.4"></path><path d="M239.8,220.8 L219.1,221.4 L217.8,193.8 L218.5,190.6 L219.6,188.1 L220.8,186.0 L223.2,183.9 L225.8,182.2 L228.1,181.2 L231.1,181.0 L245.0,180.5 L245.1,191.6 L236.0,191.9 L236.1,194.9 L228.0,195.2 L228.7,216.1 L239.7,215.8 L239.8,220.8 Z" fill="url(#park-dots)" stroke="none"/><path d="M239.8,220.8 L219.1,221.4 L217.8,193.8 L218.5,190.6 L219.6,188.1 L220.8,186.0 L223.2,183.9 L225.8,182.2 L228.1,181.2 L231.1,181.0 L245.0,180.5 L245.1,191.6 L236.0,191.9 L236.1,194.9 L228.0,195.2 L228.7,216.1 L239.7,215.8 L239.8,220.8 Z" fill="url(#park-canopy)" stroke="none"/><path d="M172.0,78.0 L113.5,79.6 L113.9,95.1 L172.4,93.5 L172.0,78.0 Z" fill="#d6d2c9" stroke="#bab6ad" stroke-width="0.4"></path><path d="M171.8,49.9 L111.4,51.5 L111.9,69.0 L172.3,67.3 L171.8,49.9 Z" fill="#d6d2c9" stroke="#bab6ad" stroke-width="0.4"></path><path d="M103.5,14.9 L49.8,16.7 L47.9,-39.1 L101.7,-40.9 L103.5,14.9 Z" fill="#d6d2c9" stroke="#bab6ad" stroke-width="0.4"></path><path d="M93.4,31.3 L93.9,60.7 L93.2,63.9 L90.1,66.9 L86.9,67.5 L85.8,67.4 L78.3,67.7 L77.1,37.7 L48.2,38.9 L48.5,49.0 L47.5,50.6 L45.8,51.4 L44.8,51.4 L29.4,51.7 L28.8,25.2 L85.9,24.0 L90.7,26.6 L93.4,31.3 Z" fill="#d6d2c9" stroke="#bab6ad" stroke-width="0.4"></path><path d="M353.6,212.0 L239.7,215.8 L228.7,216.1 L228.0,195.2 L236.1,194.9 L236.0,191.9 L245.1,191.6 L245.1,194.7 L246.5,194.7 L248.1,194.6 L262.3,194.1 L263.5,194.1 L265.8,194.0 L265.7,191.1 L273.6,190.8 L273.7,193.8 L283.8,193.5 L283.7,190.4 L292.6,190.1 L292.6,193.0 L294.2,192.9 L295.4,192.9 L309.8,192.4 L311.0,192.4 L312.3,192.3 L312.1,189.0 L313.1,189.0 L321.7,188.7 L321.8,191.7 L331.6,191.4 L331.5,188.4 L340.8,188.1 L340.8,191.2 L342.2,191.1 L352.9,190.8 L353.6,212.0 Z" fill="#d6d2c9" stroke="#bab6ad" stroke-width="0.4"></path><path d="M146.4,248.0 L146.6,270.3 L144.6,270.1 L114.6,271.0 L114.1,248.4 L146.4,248.0 Z" fill="#d6d2c9" stroke="#bab6ad" stroke-width="0.4"></path><path d="M163.8,37.3 L115.4,38.8 L114.9,21.8 L163.3,20.3 L163.8,37.3 Z" fill="#d6d2c9" stroke="#bab6ad" stroke-width="0.4"></path><path d="M98.9,255.1 L37.2,256.1 L36.9,241.3 L98.7,240.3 L98.9,255.1 Z" fill="#d6d2c9" stroke="#bab6ad" stroke-width="0.4"></path><path d="M162.9,8.6 L115.9,9.5 L115.6,-7.1 L162.6,-8.1 L162.9,8.6 Z" fill="#d6d2c9" stroke="#bab6ad" stroke-width="0.4"></path><path d="M103.5,207.2 L82.2,207.3 L82.2,192.7 L91.5,192.7 L91.5,188.4 L103.5,188.4 L103.5,207.2 Z" fill="#d6d2c9" stroke="#bab6ad" stroke-width="0.4"></path><path d="M178.9,150.2 L147.1,150.3 L147.0,134.1 L178.8,134.0 L178.9,150.2 Z" fill="#d6d2c9" stroke="#bab6ad" stroke-width="0.4"></path><path d="M347.7,69.2 L226.7,72.8 L225.9,45.1 L346.9,41.6 L347.7,69.2 Z" fill="#d6d2c9" stroke="#bab6ad" stroke-width="0.4"></path><path d="M85.6,157.1 L45.6,158.3 L44.0,102.6 L84.0,101.4 L85.6,157.1 Z" fill="#d6d2c9" stroke="#bab6ad" stroke-width="0.4"></path><path d="M166.8,122.4 L115.8,124.4 L115.1,106.0 L166.1,104.1 L166.8,122.4 Z" fill="#d6d2c9" stroke="#bab6ad" stroke-width="0.4"></path><path d="M135.7,150.8 L115.8,151.3 L115.4,133.4 L135.3,132.9 L135.7,150.8 Z" fill="#d6d2c9" stroke="#bab6ad" stroke-width="0.4"></path><path d="M175.1,247.4 L175.2,257.0 L178.1,257.0 L178.4,272.6 L175.4,272.7 L175.6,283.0 L152.1,283.4 L151.5,248.0 L175.1,247.4 Z" fill="#d6d2c9" stroke="#bab6ad" stroke-width="0.4"></path><path d="M161.9,190.5 L162.1,202.3 L133.1,202.7 L132.9,190.8 L118.5,191.0 L118.1,164.7 L173.7,163.9 L174.1,190.3 L161.9,190.5 Z" fill="#d6d2c9" stroke="#bab6ad" stroke-width="0.4"></path><path d="M352.3,298.2 L233.7,302.0 L230.0,301.3 L226.9,300.0 L224.9,298.6 L223.8,297.9 L221.4,295.4 L219.8,292.4 L219.0,288.8 L217.8,259.9 L217.3,241.4 L216.7,222.6 L215.9,193.6 L216.2,190.5 L217.4,187.5 L219.2,185.2 L220.7,183.9 L221.8,182.9 L224.4,181.1 L227.0,180.1 L230.2,179.4 L245.9,179.2 L263.8,178.7 L293.6,177.7 L311.5,177.2" fill="none" stroke="#cf828d" stroke-width="1.5" stroke-dasharray="1.6 3.0" opacity="0.62" stroke-linecap="round" stroke-linejoin="round"></path><path d="M213.3,133.8 L213.7,141.2 L214.4,143.9 L216.2,147.3 L219.0,150.3 L220.5,151.5 L221.5,152.2 L224.9,153.3 L228.9,153.8 L311.7,152.0" fill="none" stroke="#cf828d" stroke-width="1.5" stroke-dasharray="1.6 3.0" opacity="0.62" stroke-linecap="round" stroke-linejoin="round"></path><path d="M343.8,27.6 L223.8,31.6 L219.9,32.3 L217.0,34.0 L215.5,35.5 L214.5,36.5 L212.2,40.0 L210.8,43.5 L210.5,46.1 L211.9,88.1 L213.3,133.8" fill="none" stroke="#cf828d" stroke-width="1.5" stroke-dasharray="1.6 3.0" opacity="0.62" stroke-linecap="round" stroke-linejoin="round"></path><path d="M245.9,179.2 L246.5,194.7" fill="none" stroke="#cf828d" stroke-width="1.5" stroke-dasharray="1.6 3.0" opacity="0.62" stroke-linecap="round" stroke-linejoin="round"></path><path d="M216.7,222.6 L364.1,218.1" fill="none" stroke="#cf828d" stroke-width="1.5" stroke-dasharray="1.6 3.0" opacity="0.62" stroke-linecap="round" stroke-linejoin="round"></path><path d="M365.1,255.7 L217.8,259.9" fill="none" stroke="#cf828d" stroke-width="1.5" stroke-dasharray="1.6 3.0" opacity="0.62" stroke-linecap="round" stroke-linejoin="round"></path><path d="M19.7,-50.3 L23.6,61.3 L24.8,96.0 L27.4,169.6 L28.8,210.0 L29.0,212.5 L29.8,215.0 L31.2,216.8 L33.3,218.5 L35.9,219.5 L38.8,220.1 L125.9,217.3 L125.8,213.0 L177.9,210.0 L182.2,208.9 L185.5,207.7 L187.7,205.4 L189.0,202.3 L187.4,96.7 L182.7,-38.0 L182.3,-50.5" fill="none" stroke="#cf828d" stroke-width="1.5" stroke-dasharray="1.6 3.0" opacity="0.62" stroke-linecap="round" stroke-linejoin="round"></path><path d="M205.9,-113.8 L208.7,-23.3 L209.3,-6.2 L210.1,-3.6 L211.4,-0.7 L213.8,1.9 L216.8,4.1 L220.5,5.8 L223.4,6.1 L316.7,3.3" fill="none" stroke="#cf828d" stroke-width="1.5" stroke-dasharray="1.6 3.0" opacity="0.62" stroke-linecap="round" stroke-linejoin="round"></path><path d="M212.8,32.0 L215.5,35.5" fill="none" stroke="#cf828d" stroke-width="1.5" stroke-dasharray="1.6 3.0" opacity="0.62" stroke-linecap="round" stroke-linejoin="round"></path><path d="M212.8,32.0 L212.8,19.7 L212.8,3.6" fill="none" stroke="#cf828d" stroke-width="1.5" stroke-dasharray="1.6 3.0" opacity="0.62" stroke-linecap="round" stroke-linejoin="round"></path><path d="M212.8,3.6 L213.8,1.9" fill="none" stroke="#cf828d" stroke-width="1.5" stroke-dasharray="1.6 3.0" opacity="0.62" stroke-linecap="round" stroke-linejoin="round"></path><path d="M220.5,151.5 L217.8,154.9" fill="none" stroke="#cf828d" stroke-width="1.5" stroke-dasharray="1.6 3.0" opacity="0.62" stroke-linecap="round" stroke-linejoin="round"></path><path d="M217.8,154.9 L218.0,166.3 L218.3,181.3" fill="none" stroke="#cf828d" stroke-width="1.5" stroke-dasharray="1.6 3.0" opacity="0.62" stroke-linecap="round" stroke-linejoin="round"></path><path d="M218.3,181.3 L220.7,183.9" fill="none" stroke="#cf828d" stroke-width="1.5" stroke-dasharray="1.6 3.0" opacity="0.62" stroke-linecap="round" stroke-linejoin="round"></path><path d="M30.2,219.4 L30.5,227.9 L30.7,235.3" fill="none" stroke="#cf828d" stroke-width="1.5" stroke-dasharray="1.6 3.0" opacity="0.62" stroke-linecap="round" stroke-linejoin="round"></path><path d="M30.2,219.4 L31.2,216.8" fill="none" stroke="#cf828d" stroke-width="1.5" stroke-dasharray="1.6 3.0" opacity="0.62" stroke-linecap="round" stroke-linejoin="round"></path><path d="M199.4,465.6 L194.0,294.1 L192.2,235.5 L50.5,233.5 L38.6,233.7 L36.0,234.2 L34.2,235.1 L32.0,236.8 L30.7,238.9 L29.8,241.1 L29.5,244.0 L31.7,305.4" fill="none" stroke="#cf828d" stroke-width="1.5" stroke-dasharray="1.6 3.0" opacity="0.62" stroke-linecap="round" stroke-linejoin="round"></path><path d="M30.7,235.3 L32.0,236.8" fill="none" stroke="#cf828d" stroke-width="1.5" stroke-dasharray="1.6 3.0" opacity="0.62" stroke-linecap="round" stroke-linejoin="round"></path><path d="M185.5,207.7 L190.6,211.4" fill="none" stroke="#cf828d" stroke-width="1.5" stroke-dasharray="1.6 3.0" opacity="0.62" stroke-linecap="round" stroke-linejoin="round"></path><path d="M192.2,235.5 L192.1,231.8" fill="none" stroke="#cf828d" stroke-width="1.5" stroke-dasharray="1.6 3.0" opacity="0.62" stroke-linecap="round" stroke-linejoin="round"></path><path d="M192.1,231.8 L191.4,222.3 L190.6,211.4" fill="none" stroke="#cf828d" stroke-width="1.5" stroke-dasharray="1.6 3.0" opacity="0.62" stroke-linecap="round" stroke-linejoin="round"></path><path d="M202.1,134.1 L213.3,133.8 L273.3,131.9" fill="none" stroke="#cec8bb" stroke-width="3.5" stroke-linecap="round" stroke-linejoin="round"/><path d="M202.1,134.1 L213.3,133.8 L273.3,131.9" fill="none" stroke="#ffffff" stroke-width="2.5" stroke-linecap="round" stroke-linejoin="round"></path><path d="M359.9,83.7 L211.9,88.1 L200.8,88.4" fill="none" stroke="#cec8bb" stroke-width="3.5" stroke-linecap="round" stroke-linejoin="round"/><path d="M359.9,83.7 L211.9,88.1 L200.8,88.4" fill="none" stroke="#ffffff" stroke-width="2.5" stroke-linecap="round" stroke-linejoin="round"></path><path d="M8.2,170.4 L27.4,169.6 L98.9,166.6" fill="none" stroke="#cec8bb" stroke-width="3.5" stroke-linecap="round" stroke-linejoin="round"/><path d="M8.2,170.4 L27.4,169.6 L98.9,166.6" fill="none" stroke="#ffffff" stroke-width="2.5" stroke-linecap="round" stroke-linejoin="round"></path><path d="M5.3,96.4 L24.8,96.0 L92.7,94.6" fill="none" stroke="#cec8bb" stroke-width="3.5" stroke-linecap="round" stroke-linejoin="round"/><path d="M5.3,96.4 L24.8,96.0 L92.7,94.6" fill="none" stroke="#ffffff" stroke-width="2.5" stroke-linecap="round" stroke-linejoin="round"></path><path d="M4.0,62.0 L23.6,61.3 L72.0,59.5" fill="none" stroke="#cec8bb" stroke-width="3.5" stroke-linecap="round" stroke-linejoin="round"/><path d="M4.0,62.0 L23.6,61.3 L72.0,59.5" fill="none" stroke="#ffffff" stroke-width="2.5" stroke-linecap="round" stroke-linejoin="round"></path><path d="M205.1,241.2 L217.3,241.4 L221.7,241.3 L262.5,240.4" fill="none" stroke="#cec8bb" stroke-width="3.5" stroke-linecap="round" stroke-linejoin="round"/><path d="M205.1,241.2 L217.3,241.4 L221.7,241.3 L262.5,240.4" fill="none" stroke="#ffffff" stroke-width="2.5" stroke-linecap="round" stroke-linejoin="round"></path><path d="M10.1,228.6 L30.5,227.9 L186.6,222.5 L191.4,222.3 L204.5,221.9" fill="none" stroke="#cec8bb" stroke-width="4.8" stroke-linecap="round" stroke-linejoin="round"/><path d="M10.1,228.6 L30.5,227.9 L186.6,222.5 L191.4,222.3 L204.5,221.9" fill="none" stroke="#ffffff" stroke-width="3.7" stroke-linecap="round" stroke-linejoin="round"><title>Southwest 9th Terrace</title></path><path d="M9.6,208.7 L-9.1,209.3 L-217.3,215.0" fill="none" stroke="#cec8bb" stroke-width="4.8" stroke-linecap="round" stroke-linejoin="round"/><path d="M9.6,208.7 L-9.1,209.3 L-217.3,215.0" fill="none" stroke="#ffffff" stroke-width="3.7" stroke-linecap="round" stroke-linejoin="round"><title>Calabria Avenue</title></path><path d="M317.1,17.5 L216.5,19.6 L212.8,19.7 L198.9,20.0" fill="none" stroke="#cec8bb" stroke-width="4.8" stroke-linecap="round" stroke-linejoin="round"/><path d="M317.1,17.5 L216.5,19.6 L212.8,19.7 L198.9,20.0" fill="none" stroke="#ffffff" stroke-width="3.7" stroke-linecap="round" stroke-linejoin="round"><title>Southwest 9th Street</title></path><path d="M195.6,-98.4 L197.3,-38.0 L197.7,-22.8 L198.9,20.0 L200.8,88.4 L202.1,134.1 L203.0,166.4 L204.5,221.9 L205.1,241.2 L206.6,294.2 L207.1,314.6" fill="none" stroke="#cec8bb" stroke-width="4.8" stroke-linecap="round" stroke-linejoin="round"/><path d="M195.6,-98.4 L197.3,-38.0 L197.7,-22.8 L198.9,20.0 L200.8,88.4 L202.1,134.1 L203.0,166.4 L204.5,221.9 L205.1,241.2 L206.6,294.2 L207.1,314.6" fill="none" stroke="#ffffff" stroke-width="3.7" stroke-linecap="round" stroke-linejoin="round"><title>Southwest 36th Court</title></path><path d="M315.5,164.1 L221.3,166.2 L218.0,166.3 L203.0,166.4" fill="none" stroke="#cec8bb" stroke-width="4.8" stroke-linecap="round" stroke-linejoin="round"/><path d="M315.5,164.1 L221.3,166.2 L218.0,166.3 L203.0,166.4" fill="none" stroke="#ffffff" stroke-width="3.7" stroke-linecap="round" stroke-linejoin="round"><title>Southwest 9th Terrace</title></path><path d="M12.6,305.6 L10.1,228.6" fill="none" stroke="#d1c4aa" stroke-width="6.4" stroke-linecap="round" stroke-linejoin="round"/><path d="M12.6,305.6 L10.1,228.6" fill="none" stroke="#f1c77d" stroke-width="5.0" stroke-linecap="round" stroke-linejoin="round"><title>Southwest 37th Avenue</title></path><path d="M10.1,228.6 L9.6,208.7" fill="none" stroke="#d1c4aa" stroke-width="6.4" stroke-linecap="round" stroke-linejoin="round"/><path d="M10.1,228.6 L9.6,208.7" fill="none" stroke="#f1c77d" stroke-width="5.0" stroke-linecap="round" stroke-linejoin="round"><title>Southwest 37th Avenue</title></path><path d="M8.2,170.4 L5.3,96.4 L4.0,62.0 L1.1,-14.8" fill="none" stroke="#d1c4aa" stroke-width="6.4" stroke-linecap="round" stroke-linejoin="round"/><path d="M8.2,170.4 L5.3,96.4 L4.0,62.0 L1.1,-14.8" fill="none" stroke="#f1c77d" stroke-width="5.0" stroke-linecap="round" stroke-linejoin="round"><title>Southwest 37th Avenue</title></path><path d="M9.6,208.7 L8.4,177.1 L8.2,170.4" fill="none" stroke="#d1c4aa" stroke-width="6.4" stroke-linecap="round" stroke-linejoin="round"/><path d="M9.6,208.7 L8.4,177.1 L8.2,170.4" fill="none" stroke="#f1c77d" stroke-width="5.0" stroke-linecap="round" stroke-linejoin="round"><title>Southwest 37th Avenue</title></path><g transform="translate(108.5 225.2) rotate(-2.0)"><path d="M -3.6 -3.2 L 4.4 0 L -3.6 3.2 Z" fill="#58656d" opacity="0.46"/></g><text x="108.5" y="225.2" transform="rotate(-2.0 108.5 225.2)" text-anchor="middle" dominant-baseline="central" font-family="Arial, sans-serif" font-size="8.3" textLength="111.6" lengthAdjust="spacing" font-weight="650" paint-order="stroke" stroke="#fffaf0" stroke-width="2.05" stroke-linejoin="round" fill="#695f54">Southwest 9th Terrace</text><text x="67.9" y="246.0" text-anchor="middle" font-family="Arial, sans-serif" font-size="6.5" textLength="18.0" lengthAdjust="spacing" font-weight="500" paint-order="stroke" stroke="#f3f5ee" stroke-width="1.55" stroke-linejoin="round" fill="#6f777a">3690</text><text x="64.8" y="129.8" text-anchor="middle" font-family="Arial, sans-serif" font-size="6.5" textLength="18.0" lengthAdjust="spacing" font-weight="500" paint-order="stroke" stroke="#f3f5ee" stroke-width="1.55" stroke-linejoin="round" fill="#6f777a">901</text><text x="141.0" y="114.2" text-anchor="middle" font-family="Arial, sans-serif" font-size="6.5" textLength="18.0" lengthAdjust="spacing" font-weight="500" paint-order="stroke" stroke="#f3f5ee" stroke-width="1.55" stroke-linejoin="round" fill="#6f777a">940</text><text x="146.8" y="187.0" text-anchor="middle" font-family="Arial, sans-serif" font-size="6.5" textLength="18.0" lengthAdjust="spacing" font-weight="500" paint-order="stroke" stroke="#f3f5ee" stroke-width="1.55" stroke-linejoin="round" fill="#6f777a">954</text><text x="60.8" y="31.0" text-anchor="middle" font-family="Arial, sans-serif" font-size="6.5" textLength="18.0" lengthAdjust="spacing" font-weight="500" paint-order="stroke" stroke="#f3f5ee" stroke-width="1.55" stroke-linejoin="round" fill="#6f777a">835</text><text x="94.5" y="200.2" text-anchor="middle" font-family="Arial, sans-serif" font-size="6.5" textLength="18.0" lengthAdjust="spacing" font-weight="500" paint-order="stroke" stroke="#f3f5ee" stroke-width="1.55" stroke-linejoin="round" fill="#6f777a">3675</text><text x="144.6" y="86.1" text-anchor="middle" font-family="Arial, sans-serif" font-size="6.5" textLength="18.0" lengthAdjust="spacing" font-weight="500" paint-order="stroke" stroke="#f3f5ee" stroke-width="1.55" stroke-linejoin="round" fill="#6f777a">930</text><text x="143.7" y="57.6" text-anchor="middle" font-family="Arial, sans-serif" font-size="6.5" textLength="18.0" lengthAdjust="spacing" font-weight="500" paint-order="stroke" stroke="#f3f5ee" stroke-width="1.55" stroke-linejoin="round" fill="#6f777a">920</text><text x="149.0" y="29.3" text-anchor="middle" font-family="Arial, sans-serif" font-size="6.5" textLength="18.0" lengthAdjust="spacing" font-weight="500" paint-order="stroke" stroke="#f3f5ee" stroke-width="1.55" stroke-linejoin="round" fill="#6f777a">900</text><text x="166.0" y="143.1" text-anchor="middle" font-family="Arial, sans-serif" font-size="6.5" textLength="18.0" lengthAdjust="spacing" font-weight="500" paint-order="stroke" stroke="#f3f5ee" stroke-width="1.55" stroke-linejoin="round" fill="#6f777a">950</text><text x="241.0" y="202.1" text-anchor="middle" font-family="Arial, sans-serif" font-size="6.5" textLength="18.0" lengthAdjust="spacing" font-weight="500" paint-order="stroke" stroke="#f3f5ee" stroke-width="1.55" stroke-linejoin="round" fill="#6f777a">3670</text><g><title>Southwest 37th Avenue &amp; Southwest 9th Terrace</title><rect x="25.0" y="173.8" width="6.9" height="6.1" rx="1.3" fill="#2796c9" stroke="#ffffff" stroke-width="1.05"/><rect x="26.2" y="175.1" width="4.4" height="2.1" rx="0.35" fill="#ffffff"/><circle cx="26.5" cy="178.8" r="0.5" fill="#ffffff"/><circle cx="30.3" cy="178.8" r="0.5" fill="#ffffff"/></g><g opacity="0.56"><title>crossing</title><path d="M210.5,17.9 L215.1,17.9 M210.5,19.7 L215.1,19.7 M210.5,21.5 L215.1,21.5" stroke="#ffffff" stroke-width="2.1" stroke-linecap="round"/><path d="M210.5,17.9 L215.1,17.9 M210.5,19.7 L215.1,19.7 M210.5,21.5 L215.1,21.5" stroke="#59656a" stroke-width="0.85" stroke-linecap="round"/></g><g opacity="0.56"><title>crossing</title><path d="M215.7,164.5 L220.3,164.5 M215.7,166.3 L220.3,166.3 M215.7,168.1 L220.3,168.1" stroke="#ffffff" stroke-width="2.1" stroke-linecap="round"/><path d="M215.7,164.5 L220.3,164.5 M215.7,166.3 L220.3,166.3 M215.7,168.1 L220.3,168.1" stroke="#59656a" stroke-width="0.85" stroke-linecap="round"/></g><g opacity="0.56"><title>crossing</title><path d="M28.2,226.1 L32.8,226.1 M28.2,227.9 L32.8,227.9 M28.2,229.7 L32.8,229.7" stroke="#ffffff" stroke-width="2.1" stroke-linecap="round"/><path d="M28.2,226.1 L32.8,226.1 M28.2,227.9 L32.8,227.9 M28.2,229.7 L32.8,229.7" stroke="#59656a" stroke-width="0.85" stroke-linecap="round"/></g><g opacity="0.56"><title>crossing</title><path d="M189.1,220.5 L193.7,220.5 M189.1,222.3 L193.7,222.3 M189.1,224.1 L193.7,224.1" stroke="#ffffff" stroke-width="2.1" stroke-linecap="round"/><path d="M189.1,220.5 L193.7,220.5 M189.1,222.3 L193.7,222.3 M189.1,224.1 L193.7,224.1" stroke="#59656a" stroke-width="0.85" stroke-linecap="round"/></g></svg>