<svg xmlns="http://www.w3.org/2000/svg" width="256" height="256" viewBox="0 0 256 256"><rect width="256" height="256" fill="#f1efe7"/><path d="M245.5,152.4 L253.1,406.4 L382.5,402.6 L378.1,255.8 L305.5,258.0 L302.3,150.7 L245.5,152.4 Z" fill="#d6d2c9" stroke="#bab6ad" stroke-width="0.4"></path><path d="M232.3,-15.3 L232.7,-0.2 L246.4,-0.6 L249.2,93.1 L118.1,97.1 L117.4,73.8 L102.5,74.2 L101.0,24.4 L85.5,24.8 L83.9,-30.0 L245.8,-34.9 L246.4,-15.7 L232.3,-15.3 Z" fill="#d6d2c9" stroke="#bab6ad" stroke-width="0.4"></path><path d="M-20.0,-90.4 L-19.7,-81.7 L-8.3,-82.1 L-8.1,-75.8 L-2.6,-75.9 L-3.0,-65.7 L23.4,-67.2 L24.3,-46.8 L25.1,-22.1 L-45.8,-19.8 L-45.2,1.2 L-101.5,2.9 L-102.2,-17.2 L-105.1,-45.0 L-129.3,-43.1 L-128.9,-59.4 L-130.1,-86.7 L-93.5,-87.8 L-92.2,-45.9 L-103.2,-45.6 L-103.1,-41.9 L-49.3,-43.6 L-49.4,-47.5 L-86.3,-46.3 L-87.6,-88.2 L-20.0,-90.4 Z" fill="#d6d2c9" stroke="#bab6ad" stroke-width="0.4"></path><path d="M43.3,208.7 L46.7,308.8 L-29.6,311.5 L-29.8,304.6 L-72.1,306.1 L-71.8,312.4 L-111.1,313.7 L-112.6,271.5 L-109.1,271.4 L-109.3,264.5 L-85.1,263.1 L-62.0,262.3 L-63.7,212.5 L43.3,208.7 Z" fill="#d6d2c9" stroke="#bab6ad" stroke-width="0.4"></path><path d="M162.6,235.4 L93.2,237.4 L92.3,204.3 L105.4,203.9 L105.2,198.0 L138.6,197.0 L138.0,175.3 L160.9,174.6 L162.6,235.4 Z" fill="#d6d2c9" stroke="#bab6ad" stroke-width="0.4"></path><path d="M39.7,56.0 L40.0,108.1 L17.2,108.3 L17.2,104.8 L-14.3,105.0 L-14.3,109.6 L-45.8,109.8 L-45.8,107.0 L-68.8,107.1 L-69.1,61.3 L-46.1,61.2 L-45.9,94.4 L-15.2,94.3 L-15.5,56.2 L39.7,56.0 Z" fill="#d6d2c9" stroke="#bab6ad" stroke-width="0.4"></path><path d="M266.0,81.1 L252.1,81.5 L246.9,-82.5 L266.0,-83.1 L265.4,-103.2 L375.9,-106.8 L381.0,54.0 L290.3,56.9 L290.6,65.3 L265.6,66.1 L266.0,81.1 Z" fill="#d6d2c9" stroke="#bab6ad" stroke-width="0.4"></path><path d="M180.8,293.7 L123.7,295.5 L122.0,239.4 L179.1,237.6 L180.8,293.7 Z" fill="#d6d2c9" stroke="#bab6ad" stroke-width="0.4"></path><path d="M190.0,271.6 L242.6,269.1 L241.6,239.4" fill="none" stroke="#cec8bb" stroke-width="3.5" stroke-linecap="round" stroke-linejoin="round"/><path d="M190.0,271.6 L242.6,269.1 L241.6,239.4" fill="none" stroke="#ffffff" stroke-width="2.5" stroke-linecap="round" stroke-linejoin="round"></path><path d="M90.7,122.7 L137.4,120.8" fill="none" stroke="#cec8bb" stroke-width="3.5" stroke-linecap="round" stroke-linejoin="round"/><path d="M90.7,122.7 L137.4,120.8" fill="none" stroke="#ffffff" stroke-width="2.5" stroke-linecap="round" stroke-linejoin="round"></path><path d="M86.7,28.1 L87.4,86.3 L90.7,122.7 L94.1,160.0 L153.4,156.9" fill="none" stroke="#cec8bb" stroke-width="3.5" stroke-linecap="round" stroke-linejoin="round"/><path d="M86.7,28.1 L87.4,86.3 L90.7,122.7 L94.1,160.0 L153.4,156.9" fill="none" stroke="#ffffff" stroke-width="2.5" stroke-linecap="round" stroke-linejoin="round"></path><path d="M60.1,87.3 L87.4,86.3" fill="none" stroke="#cec8bb" stroke-width="3.5" stroke-linecap="round" stroke-linejoin="round"/><path d="M60.1,87.3 L87.4,86.3" fill="none" stroke="#ffffff" stroke-width="2.5" stroke-linecap="round" stroke-linejoin="round"></path><path d="M67.8,332.3 L63.0,185.3 L60.1,87.3 L58.4,32.4 L55.2,-124.5" fill="none" stroke="#cec8bb" stroke-width="4.8" stroke-linecap="round" stroke-linejoin="round"/><path d="M67.8,332.3 L63.0,185.3 L60.1,87.3 L58.4,32.4 L55.2,-124.5" fill="none" stroke="#ffffff" stroke-width="3.7" stroke-linecap="round" stroke-linejoin="round"><title>Northwest 36th Avenue</title></path><path d="M63.0,185.3 L-315.3,196.5" fill="none" stroke="#cec8bb" stroke-width="4.8" stroke-linecap="round" stroke-linejoin="round"/><path d="M63.0,185.3 L-315.3,196.5" fill="none" stroke="#ffffff" stroke-width="3.7" stroke-linecap="round" stroke-linejoin="round"><title>Northwest 48th Street</title></path><path d="M58.4,32.4 L-320.6,47.6" fill="none" stroke="#cec8bb" stroke-width="4.8" stroke-linecap="round" stroke-linejoin="round"/><path d="M58.4,32.4 L-320.6,47.6" fill="none" stroke="#ffffff" stroke-width="3.7" stroke-linecap="round" stroke-linejoin="round"><title>Northwest 48th Terrace</title></path><text x="61.5" y="136.3" transform="rotate(88.3 61.5 136.3)" text-anchor="middle" dominant-baseline="central" font-family="Arial, sans-serif" font-size="8.3" textLength="111.6" lengthAdjust="spacing" font-weight="650" paint-order="stroke" stroke="#fffaf0" stroke-width="2.05" stroke-linejoin="round" fill="#695f54">Northwest 36th Avenue</text><text x="171.8" y="24.2" text-anchor="middle" font-family="Arial, sans-serif" font-size="6.5" textLength="18.0" lengthAdjust="spacing" font-weight="500" paint-order="stroke" stroke="#f3f5ee" stroke-width="1.55" stroke-linejoin="round" fill="#6f777a">4851</text><text x="124.5" y="203.2" text-anchor="middle" font-family="Arial, sans-serif" font-size="6.5" textLength="18.0" lengthAdjust="spacing" font-weight="500" paint-order="stroke" stroke="#f3f5ee" stroke-width="1.55" stroke-linejoin="round" fill="#6f777a">4725</text><text x="15.0" y="74.4" text-anchor="middle" font-family="Arial, sans-serif" font-size="6.5" textLength="18.0" lengthAdjust="spacing" font-weight="500" paint-order="stroke" stroke="#f3f5ee" stroke-width="1.55" stroke-linejoin="round" fill="#6f777a">3624</text><text x="33.6" y="227.3" text-anchor="middle" font-family="Arial, sans-serif" font-size="6.5" textLength="18.0" lengthAdjust="spacing" font-weight="500" paint-order="stroke" stroke="#f3f5ee" stroke-width="1.55" stroke-linejoin="round" fill="#6f777a">3600</text><text x="131.3" y="136.3" text-anchor="middle" font-family="Arial, sans-serif" font-size="6.5" textLength="18.0" lengthAdjust="spacing" font-weight="500" paint-order="stroke" stroke="#f3f5ee" stroke-width="1.55" stroke-linejoin="round" fill="#6f777a">4801</text></svg>