<svg xmlns="http://www.w3.org/2000/svg" width="256" height="256" viewBox="0 0 256 256"><rect width="256" height="256" fill="#f1efe7"/><path d="M160.1,-8.6 L137.7,17.5 L160.0,36.7 L182.4,10.6 L160.1,-8.6 Z" fill="#e8ecec" stroke="#d7d1c5" stroke-width="0.3"></path><path d="M1142.1,-2386.8 L5056.8,-1973.1 L9903.6,-111.1 L13259.0,2371.3 L14377.5,6714.9 L12140.5,7955.8 L1701.4,7955.8 L-535.6,2578.2 Z" fill="#add7e1" stroke="none"><title>Biscayne Bay</title></path><path d="M272.6,132.0 L284.3,134.1 L287.9,121.5 L266.0,115.7 L262.6,128.8 L264.0,129.2 L262.2,137.2 L260.3,137.6 L259.6,132.4 L248.6,132.9 L249.0,138.5 L223.9,140.0 L225.1,154.7 L233.6,154.2 L233.7,158.5 L268.8,155.9 L270.3,171.3 L274.6,171.0 L274.7,172.0 L287.6,171.0 L284.3,135.9 L272.0,136.4 L272.6,132.0 Z" fill="#d6d2c9" stroke="#bab6ad" stroke-width="0.4"></path><path d="M82.4,254.7 L83.5,262.3 L95.1,260.5 L95.6,263.5 L103.2,262.4 L107.8,292.2 L93.0,294.5 L94.6,304.8 L72.9,308.2 L65.1,257.4 L82.4,254.7 Z" fill="#d6d2c9" stroke="#bab6ad" stroke-width="0.4"></path><path d="M13.9,181.9 L15.9,192.2 L31.1,189.2 L34.1,204.4 L19.1,207.4 L18.9,206.1 L15.3,206.8 L15.8,209.1 L-0.4,212.4 L-1.4,207.3 L-13.3,209.7 L-15.7,197.6 L-19.2,198.3 L-21.9,184.6 L-13.7,182.9 L-15.6,173.3 L13.9,167.4 L16.7,181.3 L13.9,181.9 Z" fill="#d6d2c9" stroke="#bab6ad" stroke-width="0.4"></path><path d="M243.0,47.4 L258.1,54.8 L247.1,77.5 L234.3,71.2 L227.3,85.5 L249.7,96.4 L252.7,90.1 L259.0,93.2 L257.1,97.2 L270.5,103.7 L284.7,74.5 L300.5,82.1 L307.3,68.1 L288.4,58.9 L290.8,54.0 L249.5,33.9 L243.0,47.4 Z" fill="#d6d2c9" stroke="#bab6ad" stroke-width="0.4"></path><path d="M104.5,119.6 L115.4,185.6 L155.4,179.0 L149.5,143.3 L153.7,142.6 L150.6,123.8 L132.5,126.8 L133.9,135.3 L126.0,136.6 L122.7,116.6 L104.5,119.6 Z" fill="#d6d2c9" stroke="#bab6ad" stroke-width="0.4"></path><path d="M52.4,145.1 L55.8,169.2 L57.9,168.9 L59.9,183.1 L62.2,182.8 L64.0,195.6 L82.4,193.0 L81.5,186.5 L87.2,185.7 L86.7,182.3 L100.0,180.5 L94.8,143.3 L78.0,145.6 L77.4,141.6 L52.4,145.1 Z" fill="#d6d2c9" stroke="#bab6ad" stroke-width="0.4"></path><path d="M-30.6,146.3 L-26.5,163.7 L25.2,151.4 L22.2,138.5 L17.6,139.6 L15.1,129.2 L19.7,128.1 L16.4,114.0 L-12.1,120.8 L-16.1,127.5 L-18.6,130.4 L-16.0,140.5 L-12.4,140.3 L-12.0,142.4 L-30.6,146.3 Z" fill="#d6d2c9" stroke="#bab6ad" stroke-width="0.4"></path><path d="M-49.3,75.7 L-41.4,87.8 L-29.6,80.2 L-14.4,103.9 L-8.4,100.0 L-7.5,101.4 L14.1,87.5 L-9.9,50.3 L-49.3,75.7 Z" fill="#d6d2c9" stroke="#bab6ad" stroke-width="0.4"></path><path d="M259.3,244.2 L260.5,262.2 L252.8,262.8 L254.2,283.9 L272.1,282.7 L272.4,287.3 L324.6,283.7 L324.4,279.5 L332.0,279.0 L330.7,259.7 L321.6,260.3 L320.1,238.9 L304.0,240.0 L304.3,245.2 L299.7,245.5 L298.6,228.8 L278.8,230.1 L279.6,242.8 L259.3,244.2 Z" fill="#d6d2c9" stroke="#bab6ad" stroke-width="0.4"></path><path d="M174.9,247.2 L179.1,279.1 L216.5,274.2 L216.0,270.8 L225.9,269.5 L225.5,266.3 L232.1,265.4 L228.4,237.4 L209.8,239.9 L211.1,249.7 L205.5,250.5 L204.5,243.3 L174.9,247.2 Z" fill="#d6d2c9" stroke="#bab6ad" stroke-width="0.4"></path><path d="M112.8,249.2 L121.5,296.2 L128.7,302.2 L139.2,302.5 L145.7,293.7 L145.2,285.5 L163.8,281.2 L159.7,252.5 L133.5,256.5 L132.3,246.0 L112.8,249.2 Z" fill="#d6d2c9" stroke="#bab6ad" stroke-width="0.4"></path><path d="M145.7,67.4 L181.7,34.3 L145.6,2.0" fill="none" stroke="#cec8bb" stroke-width="3.5" stroke-linecap="round" stroke-linejoin="round"/><path d="M145.7,67.4 L181.7,34.3 L145.6,2.0" fill="none" stroke="#ffffff" stroke-width="2.5" stroke-linecap="round" stroke-linejoin="round"></path><path d="M41.7,-30.2 L56.0,-15.8 L129.5,53.4 L145.7,67.4 L149.2,70.4 L160.9,81.6 L168.3,89.6 L172.8,94.7 L176.7,101.1 L180.4,111.5 L183.2,123.4 L186.3,140.2 L188.2,156.3 L192.6,209.4" fill="none" stroke="#cec8bb" stroke-width="4.8" stroke-linecap="round" stroke-linejoin="round"/><path d="M41.7,-30.2 L56.0,-15.8 L129.5,53.4 L145.7,67.4 L149.2,70.4 L160.9,81.6 L168.3,89.6 L172.8,94.7 L176.7,101.1 L180.4,111.5 L183.2,123.4 L186.3,140.2 L188.2,156.3 L192.6,209.4" fill="none" stroke="#ffffff" stroke-width="3.7" stroke-linecap="round" stroke-linejoin="round"><title>Sinsonte Avenue</title></path><path d="M-37.4,236.4 L-29.2,238.9 L-18.6,240.5 L-7.7,240.7 L0.7,240.1 L8.9,238.7 L23.8,235.6 L41.1,232.1 L58.3,228.6 L74.4,225.8 L120.0,218.8 L170.0,211.8 L192.6,209.4 L255.9,203.5 L294.8,201.2 L320.2,200.2" fill="none" stroke="#cec8bb" stroke-width="4.8" stroke-linecap="round" stroke-linejoin="round"/><path d="M-37.4,236.4 L-29.2,238.9 L-18.6,240.5 L-7.7,240.7 L0.7,240.1 L8.9,238.7 L23.8,235.6 L41.1,232.1 L58.3,228.6 L74.4,225.8 L120.0,218.8 L170.0,211.8 L192.6,209.4 L255.9,203.5 L294.8,201.2 L320.2,200.2" fill="none" stroke="#ffffff" stroke-width="3.7" stroke-linecap="round" stroke-linejoin="round"><title>Paloma Drive</title></path><path d="M-51.4,47.2 L-39.2,39.5 L-25.8,30.2 L-12.5,20.1 L-1.9,11.3 L10.6,0.0 L21.5,-10.0 L30.7,-18.9 L41.7,-30.2 L50.7,-39.9 L60.4,-51.2" fill="none" stroke="#cec8bb" stroke-width="4.8" stroke-linecap="round" stroke-linejoin="round"/><path d="M-51.4,47.2 L-39.2,39.5 L-25.8,30.2 L-12.5,20.1 L-1.9,11.3 L10.6,0.0 L21.5,-10.0 L30.7,-18.9 L41.7,-30.2 L50.7,-39.9 L60.4,-51.2" fill="none" stroke="#ffffff" stroke-width="3.7" stroke-linecap="round" stroke-linejoin="round"><title>Isla Dorada Boulevard</title></path><text x="221.4" y="120.7" text-anchor="middle" font-family="Arial, sans-serif" font-size="8" font-weight="600" paint-order="stroke" stroke="#f4f0e7" stroke-width="1.9" stroke-linejoin="round" fill="#6a655c" textLength="56.3" lengthAdjust="spacing">Isla Grande</text><text x="145.0" y="215.3" transform="rotate(-8.0 145.0 215.3)" text-anchor="middle" dominant-baseline="central" font-family="Arial, sans-serif" font-size="8.3" textLength="63.7" lengthAdjust="spacing" font-weight="650" paint-order="stroke" stroke="#fffaf0" stroke-width="2.05" stroke-linejoin="round" fill="#695f54">Paloma Drive</text><text x="15.0" y="195.1" text-anchor="middle" font-family="Arial, sans-serif" font-size="6.5" textLength="18.0" lengthAdjust="spacing" font-weight="500" paint-order="stroke" stroke="#f3f5ee" stroke-width="1.55" stroke-linejoin="round" fill="#6f777a">195</text><text x="15.2" y="134.8" text-anchor="middle" font-family="Arial, sans-serif" font-size="6.5" textLength="18.0" lengthAdjust="spacing" font-weight="500" paint-order="stroke" stroke="#f3f5ee" stroke-width="1.55" stroke-linejoin="round" fill="#6f777a">199</text><text x="88.8" y="157.8" text-anchor="middle" font-family="Arial, sans-serif" font-size="6.5" textLength="18.0" lengthAdjust="spacing" font-weight="500" paint-order="stroke" stroke="#f3f5ee" stroke-width="1.55" stroke-linejoin="round" fill="#6f777a">177</text><text x="133.6" y="149.8" text-anchor="middle" font-family="Arial, sans-serif" font-size="6.5" textLength="18.0" lengthAdjust="spacing" font-weight="500" paint-order="stroke" stroke="#f3f5ee" stroke-width="1.55" stroke-linejoin="round" fill="#6f777a">173</text><g><title>parking</title><circle cx="160.0" cy="14.0" r="6.0" fill="#2f8ec8" stroke="#ffffff" stroke-width="1.7"/><text x="160.0" y="14.2" text-anchor="middle" dominant-baseline="central" font-family="Arial, sans-serif" font-size="11.4" font-weight="700" fill="#ffffff">P</text></g></svg>