<svg xmlns="http://www.w3.org/2000/svg" width="256" height="256" viewBox="0 0 256 256"><rect width="256" height="256" fill="#f1efe7"/><path d="M43.6,-10.4 L35.2,-10.0 L35.8,8.4 L30.1,8.5 L30.6,24.3 L-48.5,27.1 L-49.4,10.9 L-57.8,11.2 L-58.3,-7.2 L-51.0,-7.4 L-51.2,-14.5 L-41.0,-14.8 L-41.2,-20.6 L25.3,-22.6 L43.3,-23.1 L43.6,-10.4 Z" fill="#e8ecec" stroke="#d7d1c5" stroke-width="0.3"></path><path d="M221.2,290.4 L219.0,274.5 L206.3,275.3 L206.4,256.6 L283.4,254.5 L308.0,253.8 L323.6,253.4 L342.7,253.0 L344.5,285.1 L221.2,290.4 Z" fill="#d6d2c9" stroke="#bab6ad" stroke-width="0.4"></path><path d="M204.7,-54.3 L370.6,-58.7 L374.2,76.4 L312.8,78.1 L313.5,105.0 L209.0,107.8 L204.7,-54.3 Z" fill="#d6d2c9" stroke="#bab6ad" stroke-width="0.4"></path><path d="M-11.0,31.4 L-10.1,60.9 L-6.0,60.8 L-6.1,57.4 L-1.6,57.3 L-1.4,60.6 L2.6,60.5 L1.7,31.3 L-2.2,31.4 L-2.2,33.7 L-6.5,33.8 L-6.6,31.3 L-11.0,31.4 Z" fill="#e0e9e8" stroke="#91b7bc" stroke-width="0.55"></path><path d="M-209.3,261.4 L-28.8,255.6 L58.0,252.8 L97.6,251.6 L101.5,252.1 L105.2,254.3 L107.3,256.8 L108.1,257.6 L110.4,261.8 L111.2,271.5 L112.2,329.9" fill="none" stroke="#cf828d" stroke-width="1.5" stroke-dasharray="1.6 3.0" opacity="0.62" stroke-linecap="round" stroke-linejoin="round"></path><path d="M109.3,255.6 L124.5,254.4 L140.7,253.1" fill="none" stroke="#cf828d" stroke-width="1.5" stroke-dasharray="1.6 3.0" opacity="0.62" stroke-linecap="round" stroke-linejoin="round"></path><path d="M109.3,255.6 L107.3,256.8" fill="none" stroke="#cf828d" stroke-width="1.5" stroke-dasharray="1.6 3.0" opacity="0.62" stroke-linecap="round" stroke-linejoin="round"></path><path d="M141.7,339.0 L140.1,290.6 L139.3,265.6 L140.1,260.3 L142.2,256.5 L143.2,254.9 L144.6,252.6 L148.3,250.6 L156.0,249.2 L195.7,247.9 L393.8,241.5" fill="none" stroke="#cf828d" stroke-width="1.5" stroke-dasharray="1.6 3.0" opacity="0.62" stroke-linecap="round" stroke-linejoin="round"></path><path d="M140.7,253.1 L143.2,254.9" fill="none" stroke="#cf828d" stroke-width="1.5" stroke-dasharray="1.6 3.0" opacity="0.62" stroke-linecap="round" stroke-linejoin="round"></path><path d="M-200.6,225.4 L-13.3,219.0 L-11.6,219.0 L0.2,218.6 L12.9,218.2 L79.7,216.1" fill="none" stroke="#cf828d" stroke-width="1.5" stroke-dasharray="1.6 3.0" opacity="0.62" stroke-linecap="round" stroke-linejoin="round"></path><path d="M109.3,255.6 L109.5,232.7 L109.6,213.7" fill="none" stroke="#cf828d" stroke-width="1.5" stroke-dasharray="1.6 3.0" opacity="0.62" stroke-linecap="round" stroke-linejoin="round"></path><path d="M141.2,212.3 L141.0,231.6 L140.7,253.1" fill="none" stroke="#cf828d" stroke-width="1.5" stroke-dasharray="1.6 3.0" opacity="0.62" stroke-linecap="round" stroke-linejoin="round"></path><path d="M109.6,213.7 L124.7,213.0 L141.2,212.3" fill="none" stroke="#cf828d" stroke-width="1.5" stroke-dasharray="1.6 3.0" opacity="0.62" stroke-linecap="round" stroke-linejoin="round"></path><path d="M106.4,210.8 L109.6,213.7" fill="none" stroke="#cf828d" stroke-width="1.5" stroke-dasharray="1.6 3.0" opacity="0.62" stroke-linecap="round" stroke-linejoin="round"></path><path d="M135.7,196.0 L136.1,200.9 L138.0,205.1 L140.9,209.4 L142.4,210.5 L143.9,211.6 L149.0,213.0 L154.3,213.5 L178.5,212.8 L475.3,203.1" fill="none" stroke="#cf828d" stroke-width="1.5" stroke-dasharray="1.6 3.0" opacity="0.62" stroke-linecap="round" stroke-linejoin="round"></path><path d="M141.2,212.3 L142.4,210.5" fill="none" stroke="#cf828d" stroke-width="1.5" stroke-dasharray="1.6 3.0" opacity="0.62" stroke-linecap="round" stroke-linejoin="round"></path><path d="M79.7,216.1 L99.5,215.4 L104.8,213.0 L106.4,210.8 L108.3,207.9 L110.9,199.3 L109.9,172.0" fill="none" stroke="#cf828d" stroke-width="1.5" stroke-dasharray="1.6 3.0" opacity="0.62" stroke-linecap="round" stroke-linejoin="round"></path><path d="M-26.9,126.9 L-27.2,115.0 L24.3,113.7" fill="none" stroke="#cf828d" stroke-width="1.5" stroke-dasharray="1.6 3.0" opacity="0.62" stroke-linecap="round" stroke-linejoin="round"></path><path d="M94.6,105.8 L82.6,106.3 L82.3,91.0 L72.1,91.5" fill="none" stroke="#cf828d" stroke-width="1.5" stroke-dasharray="1.6 3.0" opacity="0.62" stroke-linecap="round" stroke-linejoin="round"></path><path d="M94.6,105.8 L101.2,105.5" fill="none" stroke="#cf828d" stroke-width="1.5" stroke-dasharray="1.6 3.0" opacity="0.62" stroke-linecap="round" stroke-linejoin="round"></path><path d="M123.4,47.2 L180.0,45.1 L187.1,33.2 L177.6,22.4 L154.4,22.8 L122.8,23.5" fill="none" stroke="#cec8bb" stroke-width="3.5" stroke-linecap="round" stroke-linejoin="round"/><path d="M123.4,47.2 L180.0,45.1 L187.1,33.2 L177.6,22.4 L154.4,22.8 L122.8,23.5" fill="none" stroke="#ffffff" stroke-width="2.5" stroke-linecap="round" stroke-linejoin="round"></path><path d="M187.1,33.2 L184.7,-52.4" fill="none" stroke="#cec8bb" stroke-width="3.5" stroke-linecap="round" stroke-linejoin="round"/><path d="M187.1,33.2 L184.7,-52.4" fill="none" stroke="#ffffff" stroke-width="2.5" stroke-linecap="round" stroke-linejoin="round"></path><path d="M187.1,33.2 L188.4,69.6 L190.2,123.3 L190.6,132.9 L316.7,128.2" fill="none" stroke="#cec8bb" stroke-width="3.5" stroke-linecap="round" stroke-linejoin="round"/><path d="M187.1,33.2 L188.4,69.6 L190.2,123.3 L190.6,132.9 L316.7,128.2" fill="none" stroke="#ffffff" stroke-width="2.5" stroke-linecap="round" stroke-linejoin="round"></path><path d="M190.6,132.9 L157.8,134.0 L126.6,134.9" fill="none" stroke="#cec8bb" stroke-width="3.5" stroke-linecap="round" stroke-linejoin="round"/><path d="M190.6,132.9 L157.8,134.0 L126.6,134.9" fill="none" stroke="#ffffff" stroke-width="2.5" stroke-linecap="round" stroke-linejoin="round"></path><path d="M157.8,134.0 L156.4,70.4 L188.4,69.6" fill="none" stroke="#cec8bb" stroke-width="3.5" stroke-linecap="round" stroke-linejoin="round"/><path d="M157.8,134.0 L156.4,70.4 L188.4,69.6" fill="none" stroke="#ffffff" stroke-width="2.5" stroke-linecap="round" stroke-linejoin="round"></path><path d="M195.4,230.0 L195.7,247.9 L195.8,249.9 L195.9,263.3" fill="none" stroke="#cec8bb" stroke-width="3.5" stroke-linecap="round" stroke-linejoin="round"/><path d="M195.4,230.0 L195.7,247.9 L195.8,249.9 L195.9,263.3" fill="none" stroke="#ffffff" stroke-width="2.5" stroke-linecap="round" stroke-linejoin="round"></path><path d="M152.6,-51.6 L154.4,22.8" fill="none" stroke="#cec8bb" stroke-width="3.5" stroke-linecap="round" stroke-linejoin="round"/><path d="M152.6,-51.6 L154.4,22.8" fill="none" stroke="#ffffff" stroke-width="2.5" stroke-linecap="round" stroke-linejoin="round"></path><path d="M0.6,237.0 L0.2,218.6 L-2.9,132.4 L101.7,129.6 L101.2,105.5 L98.0,-34.1 L97.2,-39.9 L96.1,-42.6 L93.6,-47.1 L90.1,-50.6" fill="none" stroke="#cec8bb" stroke-width="3.5" stroke-linecap="round" stroke-linejoin="round"/><path d="M0.6,237.0 L0.2,218.6 L-2.9,132.4 L101.7,129.6 L101.2,105.5 L98.0,-34.1 L97.2,-39.9 L96.1,-42.6 L93.6,-47.1 L90.1,-50.6" fill="none" stroke="#ffffff" stroke-width="2.5" stroke-linecap="round" stroke-linejoin="round"></path><path d="M24.4,-48.9 L5.7,-44.0 L-11.1,-39.0 L-89.0,-11.9" fill="none" stroke="#cec8bb" stroke-width="3.5" stroke-linecap="round" stroke-linejoin="round"/><path d="M24.4,-48.9 L5.7,-44.0 L-11.1,-39.0 L-89.0,-11.9" fill="none" stroke="#ffffff" stroke-width="2.5" stroke-linecap="round" stroke-linejoin="round"></path><path d="M-63.1,134.5 L-26.6,133.2 L-2.9,132.4" fill="none" stroke="#cec8bb" stroke-width="3.5" stroke-linecap="round" stroke-linejoin="round"/><path d="M-63.1,134.5 L-26.6,133.2 L-2.9,132.4" fill="none" stroke="#ffffff" stroke-width="2.5" stroke-linecap="round" stroke-linejoin="round"></path><path d="M101.7,129.6 L106.5,133.0 L110.4,138.3 L112.7,142.3 L114.1,145.5 L116.1,152.6 L118.1,160.8 L124.1,167.8" fill="none" stroke="#cec8bb" stroke-width="3.5" stroke-linecap="round" stroke-linejoin="round"/><path d="M101.7,129.6 L106.5,133.0 L110.4,138.3 L112.7,142.3 L114.1,145.5 L116.1,152.6 L118.1,160.8 L124.1,167.8" fill="none" stroke="#ffffff" stroke-width="2.5" stroke-linecap="round" stroke-linejoin="round"></path><path d="M124.7,232.2 L124.7,213.0 L126.1,206.3 L124.1,167.8 L126.5,141.9 L126.6,134.9 L125.4,116.5 L123.6,53.2 L123.4,47.2 L122.8,23.5" fill="none" stroke="#cec8bb" stroke-width="4.8" stroke-linecap="round" stroke-linejoin="round"/><path d="M124.7,232.2 L124.7,213.0 L126.1,206.3 L124.1,167.8 L126.5,141.9 L126.6,134.9 L125.4,116.5 L123.6,53.2 L123.4,47.2 L122.8,23.5" fill="none" stroke="#ffffff" stroke-width="3.7" stroke-linecap="round" stroke-linejoin="round"><title>Northwest 36th Avenue</title></path><path d="M122.8,23.5 L121.3,-23.9 L120.7,-47.7 L121.7,-55.5" fill="none" stroke="#cec8bb" stroke-width="4.8" stroke-linecap="round" stroke-linejoin="round"/><path d="M122.8,23.5 L121.3,-23.9 L120.7,-47.7 L121.7,-55.5" fill="none" stroke="#ffffff" stroke-width="3.7" stroke-linecap="round" stroke-linejoin="round"><title>Northwest 36th Avenue</title></path><path d="M127.3,339.7 L125.5,291.4 L124.7,260.8 L124.5,254.4 L124.7,232.2" fill="none" stroke="#cec8bb" stroke-width="4.8" stroke-linecap="round" stroke-linejoin="round"/><path d="M127.3,339.7 L125.5,291.4 L124.7,260.8 L124.5,254.4 L124.7,232.2" fill="none" stroke="#ffffff" stroke-width="3.7" stroke-linecap="round" stroke-linejoin="round"><title>Northwest 36th Avenue</title></path><path d="M307.0,225.9 L232.7,228.6" fill="none" stroke="#d8955f" stroke-width="9.0" stroke-linecap="round" stroke-linejoin="round"/><path d="M307.0,225.9 L232.7,228.6" fill="none" stroke="#f0a86f" stroke-width="7.5" stroke-linecap="round" stroke-linejoin="round"><title>Northwest 36th Street</title></path><path d="M307.0,225.9 L232.7,228.6" fill="none" stroke="#fff8ef" stroke-width="1.8" stroke-dasharray="5.5 6.5" opacity="0.82" stroke-linecap="round" stroke-linejoin="round"/><path d="M56.4,234.6 L0.6,237.0" fill="none" stroke="#d8955f" stroke-width="9.0" stroke-linecap="round" stroke-linejoin="round"/><path d="M56.4,234.6 L0.6,237.0" fill="none" stroke="#f0a86f" stroke-width="7.5" stroke-linecap="round" stroke-linejoin="round"><title>Northwest 36th Street</title></path><path d="M56.4,234.6 L0.6,237.0" fill="none" stroke="#fff8ef" stroke-width="1.8" stroke-dasharray="5.5 6.5" opacity="0.82" stroke-linecap="round" stroke-linejoin="round"/><path d="M124.7,232.2 L109.5,232.7 L102.4,233.0 L80.1,233.8 L64.8,234.3 L56.4,234.6" fill="none" stroke="#d8955f" stroke-width="9.0" stroke-linecap="round" stroke-linejoin="round"/><path d="M124.7,232.2 L109.5,232.7 L102.4,233.0 L80.1,233.8 L64.8,234.3 L56.4,234.6" fill="none" stroke="#f0a86f" stroke-width="7.5" stroke-linecap="round" stroke-linejoin="round"><title>Northwest 36th Street</title></path><path d="M124.7,232.2 L109.5,232.7 L102.4,233.0 L80.1,233.8 L64.8,234.3 L56.4,234.6" fill="none" stroke="#fff8ef" stroke-width="1.8" stroke-dasharray="5.5 6.5" opacity="0.82" stroke-linecap="round" stroke-linejoin="round"/><path d="M232.7,228.6 L195.4,230.0 L166.2,230.7 L148.8,231.3 L141.0,231.6 L124.7,232.2" fill="none" stroke="#d8955f" stroke-width="9.0" stroke-linecap="round" stroke-linejoin="round"/><path d="M232.7,228.6 L195.4,230.0 L166.2,230.7 L148.8,231.3 L141.0,231.6 L124.7,232.2" fill="none" stroke="#f0a86f" stroke-width="7.5" stroke-linecap="round" stroke-linejoin="round"><title>Northwest 36th Street</title></path><path d="M232.7,228.6 L195.4,230.0 L166.2,230.7 L148.8,231.3 L141.0,231.6 L124.7,232.2" fill="none" stroke="#fff8ef" stroke-width="1.8" stroke-dasharray="5.5 6.5" opacity="0.82" stroke-linecap="round" stroke-linejoin="round"/><path d="M0.6,237.0 L-29.2,237.9" fill="none" stroke="#d8955f" stroke-width="9.0" stroke-linecap="round" stroke-linejoin="round"/><path d="M0.6,237.0 L-29.2,237.9" fill="none" stroke="#f0a86f" stroke-width="7.5" stroke-linecap="round" stroke-linejoin="round"><title>Northwest 36th Street</title></path><path d="M0.6,237.0 L-29.2,237.9" fill="none" stroke="#fff8ef" stroke-width="1.8" stroke-dasharray="5.5 6.5" opacity="0.82" stroke-linecap="round" stroke-linejoin="round"/><text x="57.2" y="184.9" text-anchor="middle" font-family="Arial, sans-serif" font-size="8" font-weight="600" paint-order="stroke" stroke="#fbf7ed" stroke-width="1.9" stroke-linejoin="round" fill="#514a42" textLength="102.4" lengthAdjust="spacing">Fronton Trailer Park</text><text x="124.5" y="84.8" transform="rotate(88.4 124.5 84.8)" text-anchor="middle" dominant-baseline="central" font-family="Arial, sans-serif" font-size="8.3" textLength="111.6" lengthAdjust="spacing" font-weight="650" paint-order="stroke" stroke="#fffaf0" stroke-width="2.05" stroke-linejoin="round" fill="#695f54">Northwest 36th Avenue</text><text x="236.5" y="175.2" text-anchor="middle" font-family="Arial, sans-serif" font-size="6.5" textLength="18.0" lengthAdjust="spacing" font-weight="500" paint-order="stroke" stroke="#f3f5ee" stroke-width="1.55" stroke-linejoin="round" fill="#6f777a">3565</text><g><title>Northwest 36th Street &amp; Northwest 36th Avenue</title><rect x="161.7" y="209.2" width="6.9" height="6.1" rx="1.3" fill="#2796c9" stroke="#ffffff" stroke-width="1.05"/><rect x="163.0" y="210.4" width="4.4" height="2.1" rx="0.35" fill="#ffffff"/><circle cx="163.3" cy="214.1" r="0.5" fill="#ffffff"/><circle cx="167.0" cy="214.1" r="0.5" fill="#ffffff"/></g><g><title>signal</title><rect x="99.7" y="227.8" width="5.4" height="10.4" rx="2.1" fill="#3f4b52" stroke="#ffffff" stroke-width="1.1"/><circle cx="102.4" cy="230.2" r="1.1" fill="#d85a4f"/><circle cx="102.4" cy="233.0" r="1.1" fill="#e2b84b"/><circle cx="102.4" cy="235.8" r="1.1" fill="#55a86b"/></g><g><title>signal</title><rect x="146.1" y="226.1" width="5.4" height="10.4" rx="2.1" fill="#3f4b52" stroke="#ffffff" stroke-width="1.1"/><circle cx="148.8" cy="228.5" r="1.1" fill="#d85a4f"/><circle cx="148.8" cy="231.3" r="1.1" fill="#e2b84b"/><circle cx="148.8" cy="234.1" r="1.1" fill="#55a86b"/></g><g><title>signal</title><rect x="123.4" y="201.1" width="5.4" height="10.4" rx="2.1" fill="#3f4b52" stroke="#ffffff" stroke-width="1.1"/><circle cx="126.1" cy="203.5" r="1.1" fill="#d85a4f"/><circle cx="126.1" cy="206.3" r="1.1" fill="#e2b84b"/><circle cx="126.1" cy="209.1" r="1.1" fill="#55a86b"/></g></svg>