<svg xmlns="http://www.w3.org/2000/svg" width="256" height="256" viewBox="0 0 256 256"><rect width="256" height="256" fill="#f1efe7"/><path d="M43.6,245.6 L35.2,246.0 L35.8,264.4 L30.1,264.5 L30.6,280.3 L-48.5,283.1 L-49.4,266.9 L-57.8,267.2 L-58.3,248.8 L-51.0,248.6 L-51.2,241.5 L-41.0,241.2 L-41.2,235.4 L25.3,233.4 L43.3,232.9 L43.6,245.6 Z" fill="#e8ecec" stroke="#d7d1c5" stroke-width="0.3"></path><path d="M54.8,220.3 L55.3,237.0 L83.0,236.2 L82.5,219.4 L54.8,220.3 Z" fill="#ead9a5" stroke="#d3bb7d" stroke-width="0.45"></path><path d="M204.7,201.7 L370.6,197.3 L374.2,332.4 L312.8,334.1 L313.5,361.0 L209.0,363.8 L204.7,201.7 Z" fill="#d6d2c9" stroke="#bab6ad" stroke-width="0.4"></path><path d="M102.9,211.0 L96.1,213.4 L88.8,216.0" fill="none" stroke="#cf828d" stroke-width="1.5" stroke-dasharray="1.6 3.0" opacity="0.62" stroke-linecap="round" stroke-linejoin="round"></path><path d="M102.9,211.0 L112.0,210.5 L111.7,196.8" fill="none" stroke="#cf828d" stroke-width="1.5" stroke-dasharray="1.6 3.0" opacity="0.62" stroke-linecap="round" stroke-linejoin="round"></path><path d="M88.8,216.0 L83.9,217.6 L85.5,221.2 L86.2,224.5 L86.5,238.4 L58.0,239.0 L58.1,243.7 L50.2,243.7 L49.5,224.0 L48.5,219.4" fill="none" stroke="#cf828d" stroke-width="1.5" stroke-dasharray="1.6 3.0" opacity="0.62" stroke-linecap="round" stroke-linejoin="round"></path><path d="M187.1,289.2 L184.7,203.6 L183.5,172.1 L239.6,162.9 L312.2,158.4" fill="none" stroke="#cec8bb" stroke-width="3.5" stroke-linecap="round" stroke-linejoin="round"/><path d="M187.1,289.2 L184.7,203.6 L183.5,172.1 L239.6,162.9 L312.2,158.4" fill="none" stroke="#ffffff" stroke-width="2.5" stroke-linecap="round" stroke-linejoin="round"></path><path d="M184.7,203.6 L152.6,204.4 L154.4,278.8" fill="none" stroke="#cec8bb" stroke-width="3.5" stroke-linecap="round" stroke-linejoin="round"/><path d="M184.7,203.6 L152.6,204.4 L154.4,278.8" fill="none" stroke="#ffffff" stroke-width="2.5" stroke-linecap="round" stroke-linejoin="round"></path><path d="M101.2,361.5 L98.0,221.9 L97.2,216.1 L96.1,213.4 L93.6,208.9 L90.1,205.4 L84.5,201.5 L78.1,198.8 L72.5,198.0 L65.8,198.1 L59.3,199.1 L25.0,207.0 L24.4,207.1 L5.7,212.0 L-11.1,217.0 L-89.0,244.1" fill="none" stroke="#cec8bb" stroke-width="3.5" stroke-linecap="round" stroke-linejoin="round"/><path d="M101.2,361.5 L98.0,221.9 L97.2,216.1 L96.1,213.4 L93.6,208.9 L90.1,205.4 L84.5,201.5 L78.1,198.8 L72.5,198.0 L65.8,198.1 L59.3,199.1 L25.0,207.0 L24.4,207.1 L5.7,212.0 L-11.1,217.0 L-89.0,244.1" fill="none" stroke="#ffffff" stroke-width="2.5" stroke-linecap="round" stroke-linejoin="round"></path><path d="M25.0,207.0 L25.3,233.4" fill="none" stroke="#cec8bb" stroke-width="3.5" stroke-linecap="round" stroke-linejoin="round"/><path d="M25.0,207.0 L25.3,233.4" fill="none" stroke="#ffffff" stroke-width="2.5" stroke-linecap="round" stroke-linejoin="round"></path><path d="M122.8,279.5 L121.3,232.1 L120.7,208.3 L121.7,200.5 L124.1,194.1 L128.2,188.8 L132.9,184.4 L140.5,181.3 L183.5,172.1" fill="none" stroke="#cec8bb" stroke-width="4.8" stroke-linecap="round" stroke-linejoin="round"/><path d="M122.8,279.5 L121.3,232.1 L120.7,208.3 L121.7,200.5 L124.1,194.1 L128.2,188.8 L132.9,184.4 L140.5,181.3 L183.5,172.1" fill="none" stroke="#ffffff" stroke-width="3.7" stroke-linecap="round" stroke-linejoin="round"><title>Northwest 36th Avenue</title></path><path d="M328.5,-80.7 L119.1,-34.1 L-16.9,-2.1 L-77.7,13.9" fill="none" stroke="#d87a99" stroke-width="7.8" stroke-linecap="round" stroke-linejoin="round"/><path d="M328.5,-80.7 L119.1,-34.1 L-16.9,-2.1 L-77.7,13.9" fill="none" stroke="#e88fa8" stroke-width="6.0" stroke-linecap="round" stroke-linejoin="round"></path><path d="M328.5,-80.7 L119.1,-34.1 L-16.9,-2.1 L-77.7,13.9" fill="none" stroke="#fff8ef" stroke-width="1.5" stroke-dasharray="5.5 6.5" opacity="0.82" stroke-linecap="round" stroke-linejoin="round"/><path d="M-74.5,65.1 L88.7,28.3 L464.7,-58.1" fill="none" stroke="#d87a99" stroke-width="11.0" stroke-linecap="round" stroke-linejoin="round"/><path d="M-74.5,65.1 L88.7,28.3 L464.7,-58.1" fill="none" stroke="#e88fa8" stroke-width="9.2" stroke-linecap="round" stroke-linejoin="round"><title>Airport Expressway</title></path><path d="M-74.5,65.1 L88.7,28.3 L464.7,-58.1" fill="none" stroke="#fff8ef" stroke-width="2.0" stroke-dasharray="5.5 6.5" opacity="0.82" stroke-linecap="round" stroke-linejoin="round"/><path d="M579.8,-122.0 L-5.7,15.5 L-84.1,36.3" fill="none" stroke="#d87a99" stroke-width="11.0" stroke-linecap="round" stroke-linejoin="round"/><path d="M579.8,-122.0 L-5.7,15.5 L-84.1,36.3" fill="none" stroke="#e88fa8" stroke-width="9.2" stroke-linecap="round" stroke-linejoin="round"><title>Airport Expressway</title></path><path d="M579.8,-122.0 L-5.7,15.5 L-84.1,36.3" fill="none" stroke="#fff8ef" stroke-width="2.0" stroke-dasharray="5.5 6.5" opacity="0.82" stroke-linecap="round" stroke-linejoin="round"/><path d="M448.3,81.9 L76.5,158.7 L31.1,169.2 L8.9,175.0 L-20.0,183.2 L-43.2,190.4 L-64.9,197.9" fill="none" stroke="#fbf8ef" stroke-width="7.2" stroke-linecap="round" stroke-linejoin="round"/><path d="M448.3,81.9 L76.5,158.7 L31.1,169.2 L8.9,175.0 L-20.0,183.2 L-43.2,190.4 L-64.9,197.9" fill="none" stroke="#5a5796" stroke-width="5.0" stroke-linecap="round" stroke-linejoin="round"><title>Metrorail</title></path><path d="M275.4,121.8 L273.7,113.7" fill="none" stroke="#3f494e" stroke-width="0.9" stroke-linecap="round"/><path d="M266.5,123.7 L264.8,115.6" fill="none" stroke="#3f494e" stroke-width="0.9" stroke-linecap="round"/><path d="M257.6,125.5 L255.9,117.4" fill="none" stroke="#3f494e" stroke-width="0.9" stroke-linecap="round"/><path d="M248.7,127.4 L247.0,119.3" fill="none" stroke="#3f494e" stroke-width="0.9" stroke-linecap="round"/><path d="M239.8,129.2 L238.1,121.1" fill="none" stroke="#3f494e" stroke-width="0.9" stroke-linecap="round"/><path d="M230.8,131.1 L229.2,123.0" fill="none" stroke="#3f494e" stroke-width="0.9" stroke-linecap="round"/><path d="M221.9,132.9 L220.3,124.8" fill="none" stroke="#3f494e" stroke-width="0.9" stroke-linecap="round"/><path d="M213.0,134.7 L211.3,126.6" fill="none" stroke="#3f494e" stroke-width="0.9" stroke-linecap="round"/><path d="M204.1,136.6 L202.4,128.5" fill="none" stroke="#3f494e" stroke-width="0.9" stroke-linecap="round"/><path d="M195.2,138.4 L193.5,130.3" fill="none" stroke="#3f494e" stroke-width="0.9" stroke-linecap="round"/><path d="M186.3,140.3 L184.6,132.2" fill="none" stroke="#3f494e" stroke-width="0.9" stroke-linecap="round"/><path d="M177.4,142.1 L175.7,134.0" fill="none" stroke="#3f494e" stroke-width="0.9" stroke-linecap="round"/><path d="M168.5,144.0 L166.8,135.8" fill="none" stroke="#3f494e" stroke-width="0.9" stroke-linecap="round"/><path d="M159.5,145.8 L157.9,137.7" fill="none" stroke="#3f494e" stroke-width="0.9" stroke-linecap="round"/><path d="M150.6,147.6 L149.0,139.5" fill="none" stroke="#3f494e" stroke-width="0.9" stroke-linecap="round"/><path d="M141.7,149.5 L140.0,141.4" fill="none" stroke="#3f494e" stroke-width="0.9" stroke-linecap="round"/><path d="M132.8,151.3 L131.1,143.2" fill="none" stroke="#3f494e" stroke-width="0.9" stroke-linecap="round"/><path d="M123.9,153.2 L122.2,145.1" fill="none" stroke="#3f494e" stroke-width="0.9" stroke-linecap="round"/><path d="M115.0,155.0 L113.3,146.9" fill="none" stroke="#3f494e" stroke-width="0.9" stroke-linecap="round"/><path d="M106.1,156.9 L104.4,148.7" fill="none" stroke="#3f494e" stroke-width="0.9" stroke-linecap="round"/><path d="M97.2,158.7 L95.5,150.6" fill="none" stroke="#3f494e" stroke-width="0.9" stroke-linecap="round"/><path d="M88.3,160.5 L86.6,152.4" fill="none" stroke="#3f494e" stroke-width="0.9" stroke-linecap="round"/><path d="M73.0,163.8 L71.2,155.7" fill="none" stroke="#3f494e" stroke-width="0.9" stroke-linecap="round"/><path d="M64.2,165.8 L62.3,157.8" fill="none" stroke="#3f494e" stroke-width="0.9" stroke-linecap="round"/><path d="M55.3,167.9 L53.4,159.8" fill="none" stroke="#3f494e" stroke-width="0.9" stroke-linecap="round"/><path d="M46.4,169.9 L44.6,161.9" fill="none" stroke="#3f494e" stroke-width="0.9" stroke-linecap="round"/><path d="M37.6,172.0 L35.7,163.9" fill="none" stroke="#3f494e" stroke-width="0.9" stroke-linecap="round"/><path d="M27.7,174.4 L25.6,166.4" fill="none" stroke="#3f494e" stroke-width="0.9" stroke-linecap="round"/><path d="M18.9,176.7 L16.8,168.7" fill="none" stroke="#3f494e" stroke-width="0.9" stroke-linecap="round"/><path d="M5.6,180.2 L3.4,172.2" fill="none" stroke="#3f494e" stroke-width="0.9" stroke-linecap="round"/><path d="M-3.1,182.7 L-5.4,174.7" fill="none" stroke="#3f494e" stroke-width="0.9" stroke-linecap="round"/><path d="M-11.9,185.2 L-14.1,177.2" fill="none" stroke="#3f494e" stroke-width="0.9" stroke-linecap="round"/><path d="M448.3,81.9 L76.5,158.7 L31.1,169.2 L8.9,175.0 L-20.0,183.2 L-43.2,190.4 L-64.9,197.9" fill="none" stroke="#ffffff" stroke-width="3.1" stroke-linecap="round" stroke-linejoin="round"/><path d="M-61.9,206.7 L-40.2,198.9 L-17.6,191.7 L10.9,183.5 L33.7,177.5 L78.7,167.3 L450.1,90.4" fill="none" stroke="#fbf8ef" stroke-width="7.2" stroke-linecap="round" stroke-linejoin="round"/><path d="M-61.9,206.7 L-40.2,198.9 L-17.6,191.7 L10.9,183.5 L33.7,177.5 L78.7,167.3 L450.1,90.4" fill="none" stroke="#5a5796" stroke-width="5.0" stroke-linecap="round" stroke-linejoin="round"><title>Metrorail</title></path><path d="M-14.4,186.4 L-12.1,194.4" fill="none" stroke="#3f494e" stroke-width="0.9" stroke-linecap="round"/><path d="M-5.6,183.9 L-3.4,191.9" fill="none" stroke="#3f494e" stroke-width="0.9" stroke-linecap="round"/><path d="M3.1,181.4 L5.4,189.4" fill="none" stroke="#3f494e" stroke-width="0.9" stroke-linecap="round"/><path d="M14.2,178.3 L16.3,186.3" fill="none" stroke="#3f494e" stroke-width="0.9" stroke-linecap="round"/><path d="M23.0,176.0 L25.1,184.0" fill="none" stroke="#3f494e" stroke-width="0.9" stroke-linecap="round"/><path d="M37.2,172.5 L39.0,180.6" fill="none" stroke="#3f494e" stroke-width="0.9" stroke-linecap="round"/><path d="M46.0,170.5 L47.9,178.5" fill="none" stroke="#3f494e" stroke-width="0.9" stroke-linecap="round"/><path d="M54.9,168.4 L56.8,176.5" fill="none" stroke="#3f494e" stroke-width="0.9" stroke-linecap="round"/><path d="M63.8,166.4 L65.6,174.5" fill="none" stroke="#3f494e" stroke-width="0.9" stroke-linecap="round"/><path d="M72.7,164.4 L74.5,172.5" fill="none" stroke="#3f494e" stroke-width="0.9" stroke-linecap="round"/><path d="M82.3,162.3 L84.0,170.4" fill="none" stroke="#3f494e" stroke-width="0.9" stroke-linecap="round"/><path d="M91.2,160.4 L92.9,168.6" fill="none" stroke="#3f494e" stroke-width="0.9" stroke-linecap="round"/><path d="M100.1,158.6 L101.8,166.7" fill="none" stroke="#3f494e" stroke-width="0.9" stroke-linecap="round"/><path d="M109.0,156.8 L110.7,164.9" fill="none" stroke="#3f494e" stroke-width="0.9" stroke-linecap="round"/><path d="M117.9,154.9 L119.6,163.0" fill="none" stroke="#3f494e" stroke-width="0.9" stroke-linecap="round"/><path d="M126.8,153.1 L128.5,161.2" fill="none" stroke="#3f494e" stroke-width="0.9" stroke-linecap="round"/><path d="M135.8,151.2 L137.4,159.3" fill="none" stroke="#3f494e" stroke-width="0.9" stroke-linecap="round"/><path d="M144.7,149.4 L146.3,157.5" fill="none" stroke="#3f494e" stroke-width="0.9" stroke-linecap="round"/><path d="M153.6,147.5 L155.3,155.6" fill="none" stroke="#3f494e" stroke-width="0.9" stroke-linecap="round"/><path d="M162.5,145.7 L164.2,153.8" fill="none" stroke="#3f494e" stroke-width="0.9" stroke-linecap="round"/><path d="M171.4,143.8 L173.1,152.0" fill="none" stroke="#3f494e" stroke-width="0.9" stroke-linecap="round"/><path d="M180.3,142.0 L182.0,150.1" fill="none" stroke="#3f494e" stroke-width="0.9" stroke-linecap="round"/><path d="M189.2,140.2 L190.9,148.3" fill="none" stroke="#3f494e" stroke-width="0.9" stroke-linecap="round"/><path d="M198.1,138.3 L199.8,146.4" fill="none" stroke="#3f494e" stroke-width="0.9" stroke-linecap="round"/><path d="M207.0,136.5 L208.7,144.6" fill="none" stroke="#3f494e" stroke-width="0.9" stroke-linecap="round"/><path d="M216.0,134.6 L217.6,142.7" fill="none" stroke="#3f494e" stroke-width="0.9" stroke-linecap="round"/><path d="M224.9,132.8 L226.6,140.9" fill="none" stroke="#3f494e" stroke-width="0.9" stroke-linecap="round"/><path d="M233.8,130.9 L235.5,139.0" fill="none" stroke="#3f494e" stroke-width="0.9" stroke-linecap="round"/><path d="M242.7,129.1 L244.4,137.2" fill="none" stroke="#3f494e" stroke-width="0.9" stroke-linecap="round"/><path d="M251.6,127.3 L253.3,135.4" fill="none" stroke="#3f494e" stroke-width="0.9" stroke-linecap="round"/><path d="M260.5,125.4 L262.2,133.5" fill="none" stroke="#3f494e" stroke-width="0.9" stroke-linecap="round"/><path d="M269.4,123.6 L271.1,131.7" fill="none" stroke="#3f494e" stroke-width="0.9" stroke-linecap="round"/><path d="M-61.9,206.7 L-40.2,198.9 L-17.6,191.7 L10.9,183.5 L33.7,177.5 L78.7,167.3 L450.1,90.4" fill="none" stroke="#ffffff" stroke-width="3.1" stroke-linecap="round" stroke-linejoin="round"/><g transform="translate(51.4 36.7) rotate(-12.7)"><path d="M -3.6 -3.2 L 4.4 0 L -3.6 3.2 Z" fill="#58656d" opacity="0.46"/></g><g><rect x="32.9" y="28.8" width="41.0" height="15.0" rx="3" fill="#f7fbff" stroke="#4f78a7" stroke-width="1"/><text x="53.4" y="36.7" text-anchor="middle" dominant-baseline="central" font-family="Arial, sans-serif" font-size="8.2" font-weight="700" fill="#315d8b">SR 112</text></g><text x="165.6" y="201.1" text-anchor="middle" font-family="Arial, sans-serif" font-size="6.5" textLength="18.0" lengthAdjust="spacing" font-weight="500" paint-order="stroke" stroke="#f3f5ee" stroke-width="1.55" stroke-linejoin="round" fill="#6f777a">3751</text><text x="213.2" y="243.4" text-anchor="middle" font-family="Arial, sans-serif" font-size="6.5" textLength="18.0" lengthAdjust="spacing" font-weight="500" paint-order="stroke" stroke="#f3f5ee" stroke-width="1.55" stroke-linejoin="round" fill="#6f777a">3575</text></svg>