<svg xmlns="http://www.w3.org/2000/svg" width="256" height="256" viewBox="0 0 256 256"><rect width="256" height="256" fill="#f1efe7"/><path d="M-7173.4,2153.1 L-7066.0,2108.5 L-7032.4,2092.4 L-6882.1,2020.2 L-6853.9,2047.5 L-6851.4,2049.8 L-6798.8,2004.8 L-6786.2,1995.2 L-6765.3,1976.3 L-6647.2,1867.9 L-6551.9,1759.1 L-6548.3,1752.2 L-6544.8,1748.2 L-6539.2,1741.9 L-6533.6,1735.4 L-6531.3,1732.7 L-6568.9,1684.2 L-6519.2,1654.4 L-6492.2,1690.3 L-6454.1,1646.7 L-6486.4,1603.9 L-6446.4,1562.3 L-6415.7,1602.8 L-6380.3,1562.6 L-6365.3,1552.8 L-6291.7,1505.0 L-6255.3,1480.9 L-6211.5,1452.0 L-6190.8,1438.5 L-6138.4,1404.6 L-6151.9,1386.8 L-6176.1,1354.5 L-6113.6,1314.8 L-6090.8,1303.0 L-6089.1,1301.8 L-6077.1,1292.5 L-6034.3,1269.7 L-6031.3,1265.0 L-6019.3,1256.8 L-6012.8,1247.3 L-6011.0,1245.9 L-6000.6,1241.9 L-5976.9,1233.4 L-5960.8,1226.3 L-5903.7,1199.5 L-5903.0,1201.4 L-5855.2,1180.9 L-5835.7,1206.0 L-5792.1,1176.9 L-5785.9,1172.7 L-5785.3,1172.2 L-5784.7,1171.4 L-5783.8,1169.7 L-5783.2,1168.2 L-5783.0,1166.3 L-5783.0,1164.8 L-5783.2,1163.4 L-5783.4,1161.7 L-5783.5,1160.5 L-5783.4,1159.4 L-5783.1,1158.3 L-5782.3,1156.3 L-5781.8,1155.2 L-5780.6,1153.3 L-5779.2,1151.9 L-5772.9,1149.3 L-5767.6,1147.4 L-5760.8,1145.2 L-5757.7,1144.3 L-5752.1,1142.5 L-5748.1,1141.0 L-5742.7,1138.8 L-5735.3,1135.6 L-5727.3,1131.8 L-5723.0,1129.7 L-5717.6,1127.0 L-5712.6,1124.1 L-5707.5,1121.1 L-5702.4,1117.8 L-5700.8,1116.7 L-5690.4,1108.8 L-5681.7,1102.1 L-5673.2,1094.9 L-5665.2,1087.4 L-5659.5,1080.9 L-5653.8,1074.0 L-5646.8,1065.0 L-5640.4,1056.0 L-5633.1,1044.4 L-5628.3,1035.5 L-5625.3,1029.8 L-5620.8,1020.1 L-5617.1,1011.2 L-5613.7,1001.6 L-5611.0,993.1 L-5608.1,979.4 L-5605.9,967.2 L-5604.7,956.6 L-5603.8,944.3 L-5603.6,931.0 L-5604.5,918.7 L-5606.6,902.8 L-5608.7,891.9 L-5611.3,881.5 L-5614.9,869.9 L-5618.1,860.9 L-5621.7,851.1 L-5625.1,843.1 L-5627.4,837.8 L-5628.4,834.0 L-5628.5,831.0 L-5628.2,828.4 L-5627.1,826.1 L-5625.5,824.1 L-5623.4,823.0 L-5621.2,822.7 L-5615.1,824.2 L-5598.3,828.2 L-5592.7,700.9 L-5570.8,473.6 L-5594.6,467.9 L-5597.2,460.8 L-5597.1,450.6 L-5593.8,427.3 L-5589.3,422.1 L-5585.3,406.9 L-5560.1,412.8 L-5546.1,267.6 L-5542.3,227.3 L-5550.1,225.4 L-5545.4,206.2 L-5561.6,202.4 L-5559.5,190.6 L-5556.7,182.9 L-5553.1,173.8 L-5547.1,161.2 L-5540.7,162.6 L-5531.9,71.3 L-5529.9,15.9 L-5529.5,5.7 L-5524.8,-29.6 L-5515.4,-117.5 L-5453.0,-280.2 L-5438.8,-324.5 L-5265.5,-391.0 L-5248.5,-397.8 L-5245.6,-399.4 L-5243.2,-401.5 L-5240.7,-404.4 L-5238.8,-407.9 L-5237.5,-411.3 L-5237.1,-416.2 L-5237.4,-422.4 L-5239.7,-500.1 L-5240.6,-515.2 L-5240.8,-525.6 L-5241.1,-545.6 L-5241.5,-551.9 L-5242.3,-557.2 L-5243.4,-562.0 L-5244.9,-566.7 L-5247.3,-572.4 L-5250.9,-578.5 L-5254.5,-583.3 L-5257.2,-587.8 L-5259.9,-593.8 L-5262.2,-599.7 L-5263.1,-604.4 L-5263.8,-609.6 L-5264.1,-614.9 L-5264.0,-620.0 L-5263.4,-625.9 L-5262.0,-631.8 L-5260.1,-637.0 L-5258.2,-641.8 L-5255.7,-646.4 L-5252.7,-651.9 L-5250.6,-657.0 L-5248.9,-663.5 L-5245.7,-668.3 L-5246.8,-713.0 L-5248.4,-715.5 L-5249.0,-745.8 L-5249.8,-781.6 L-5249.2,-786.5 L-5247.6,-791.6 L-5243.6,-799.5 L-5216.9,-857.0 L-5216.3,-858.0 L-5211.6,-868.2 L-5207.1,-878.0 L-5202.2,-888.0 L-5197.2,-898.2 L-5194.8,-903.3 L-5168.6,-957.2 L-5140.5,-1016.8 L-5079.6,-1140.2 L-5116.2,-1181.1 L-5146.0,-1117.7 L-5171.8,-1062.7 L-5175.7,-1054.9 L-5183.6,-1038.7 L-5199.5,-1040.0 L-5203.9,-1040.3 L-5205.4,-1038.8 L-5203.3,-1036.9 L-5211.5,-1029.7 L-5217.9,-1023.7 L-5219.1,-998.3 L-5221.5,-993.2 L-5229.3,-993.5 L-5230.6,-994.0 L-5332.8,-1036.1 L-5335.0,-1037.3 L-5337.4,-1038.8 L-5341.0,-1041.6 L-5343.9,-1044.3 L-5346.3,-1046.9 L-5348.6,-1050.1 L-5350.4,-1052.9 L-5351.8,-1055.8 L-5353.0,-1058.9 L-5353.7,-1060.9 L-5354.2,-1063.5 L-5354.7,-1066.5 L-5355.1,-1070.6 L-5355.1,-1076.4 L-5355.8,-1096.3 L-5353.0,-1096.5 L-5353.4,-1106.9 L-5353.8,-1124.2 L-5351.2,-1124.3 L-5351.4,-1136.1 L-5354.3,-1136.0 L-5355.7,-1185.8 L-5352.9,-1185.9 L-5353.4,-1197.5 L-5356.1,-1197.4 L-5357.2,-1234.2 L-5343.7,-1248.7 L-5326.5,-1249.3 L-5313.6,-1249.8 L-5296.7,-1250.3 L-5280.4,-1250.9 L-5265.7,-1251.4 L-5259.4,-1251.6 L-5259.7,-1257.3 L-5259.8,-1263.2 L-5260.8,-1282.3 L-5261.1,-1318.9 L-5261.6,-1319.5 L-5261.7,-1323.2 L-5260.6,-1323.2 L-5263.2,-1411.3 L-5265.4,-1494.1 L-5265.8,-1496.7 L-5266.0,-1501.5 L-5302.1,-1500.2 L-5326.1,-1502.3 L-5505.7,-1496.0 L-5505.7,-1497.6 L-5506.1,-1505.3 L-5591.3,-1502.3 L-5591.5,-1516.4 L-5602.7,-1518.9 L-5604.7,-1579.5 L-5273.3,-1591.0 L-5267.8,-1598.6 L-5268.0,-1620.1 L-5268.4,-1638.6 L-5268.7,-1650.3 L-5269.2,-1661.6 L-5295.5,-1674.1 L-5296.6,-1701.6 L-5269.5,-1715.0 L-5272.0,-1778.7 L-5272.7,-1781.9 L-5299.5,-1794.4 L-5300.4,-1828.5 L-5274.9,-1841.7 L-5286.3,-1980.1 L-5283.2,-2041.8 L-5281.8,-2142.2 L-5281.9,-2251.4 L-5279.5,-2266.8 L-5279.3,-2274.1 L-5281.7,-2283.1 L-5279.2,-2283.1 L-5279.2,-2291.1 L-5277.7,-2496.6 L-5277.9,-2505.8 L-5280.8,-2505.7 L-5280.7,-2543.5 L-5282.4,-2545.9 L-5284.9,-2584.9 L-5279.8,-2620.5 L-5280.5,-2663.7 L-5282.2,-2674.0 L-5279.6,-2706.0 L-5281.4,-2744.6 L-5285.9,-2786.0 L-5294.4,-2853.0 L-5290.4,-2871.4 L-5292.1,-2889.4 L-5307.4,-2902.5 L-5329.9,-2902.2 L-5364.1,-2897.7 L-5386.3,-2897.7 L-5406.6,-2905.2 L-5433.1,-2923.4 L-5433.1,-2956.0 L-5433.8,-2996.2 L-5431.2,-3029.6 L-5422.4,-3055.7 L-5275.0,-3058.4 L-5271.7,-3267.4 L-5271.7,-3568.2 L-5273.2,-3677.4 L2682.9,-6963.2 L2682.9,11145.9 L-7173.4,11145.9 L-7173.4,2153.1 Z" fill="#add7e1" stroke="none"><title>Biscayne Bay</title></path><path d="M-2005.4,728.6 L-1278.4,304.3 L-1520.7,-389.1 L-1651.2,-1962.4 L-1651.2,-3194.3 L-1511.4,-4436.7 L772.1,-5596.3 L790.8,-3960.4 L483.2,-2511.1 L203.6,-958.4 L17.2,283.6 L-374.3,728.6 L-2005.4,728.6 Z" fill="#f1efe7" stroke="#8ab09d" stroke-width="0.65"><title>Miami Beach</title></path><path d="M-1.0,-1.0 L257.0,-1.0 L257.0,257.0 L-1.0,257.0 L-1.0,-1.0 Z" fill="#add7e1" stroke="none" fill-rule="evenodd"><title>Biscayne Bay</title></path><path d="M-225.2,469.9 L1284.8,1297.8 L2216.8,1235.7 L3754.8,614.8 L3726.8,159.4 L1117.0,304.3 Z" fill="#add7e1" stroke="none"><title>Government Cut</title></path></svg>