<svg xmlns="http://www.w3.org/2000/svg" width="256" height="256" viewBox="0 0 256 256"><rect width="256" height="256" fill="#f1efe7"/><path d="M-7173.4,-8854.9 L-7066.0,-8899.5 L-7032.4,-8915.6 L-6882.1,-8987.8 L-6853.9,-8960.5 L-6851.4,-8958.2 L-6798.8,-9003.2 L-6786.2,-9012.8 L-6765.3,-9031.7 L-6647.2,-9140.1 L-6551.9,-9248.9 L-6548.3,-9255.8 L-6544.8,-9259.8 L-6539.2,-9266.1 L-6533.6,-9272.6 L-6531.3,-9275.3 L-6568.9,-9323.8 L-6519.2,-9353.6 L-6492.2,-9317.7 L-6454.1,-9361.3 L-6486.4,-9404.1 L-6446.4,-9445.7 L-6415.7,-9405.2 L-6380.3,-9445.4 L-6365.3,-9455.2 L-6291.7,-9503.0 L-6255.3,-9527.1 L-6211.5,-9556.0 L-6190.8,-9569.5 L-6138.4,-9603.4 L-6151.9,-9621.2 L-6176.1,-9653.5 L-6113.6,-9693.2 L-6090.8,-9705.0 L-6089.1,-9706.2 L-6077.1,-9715.5 L-6034.3,-9738.3 L-6031.3,-9743.0 L-6019.3,-9751.2 L-6012.8,-9760.7 L-6011.0,-9762.1 L-6000.6,-9766.1 L-5976.9,-9774.6 L-5960.8,-9781.7 L-5903.7,-9808.5 L-5903.0,-9806.6 L-5855.2,-9827.1 L-5835.7,-9802.0 L-5792.1,-9831.1 L-5785.9,-9835.3 L-5785.3,-9835.8 L-5784.7,-9836.6 L-5783.8,-9838.3 L-5783.2,-9839.8 L-5783.0,-9841.7 L-5783.0,-9843.2 L-5783.2,-9844.6 L-5783.4,-9846.3 L-5783.5,-9847.5 L-5783.4,-9848.6 L-5783.1,-9849.7 L-5782.3,-9851.7 L-5781.8,-9852.8 L-5780.6,-9854.7 L-5779.2,-9856.1 L-5772.9,-9858.7 L-5767.6,-9860.6 L-5760.8,-9862.8 L-5757.7,-9863.7 L-5752.1,-9865.5 L-5748.1,-9867.0 L-5742.7,-9869.2 L-5735.3,-9872.4 L-5727.3,-9876.2 L-5723.0,-9878.3 L-5717.6,-9881.0 L-5712.6,-9883.9 L-5707.5,-9886.9 L-5702.4,-9890.2 L-5700.8,-9891.3 L-5690.4,-9899.2 L-5681.7,-9905.9 L-5673.2,-9913.1 L-5665.2,-9920.6 L-5659.5,-9927.1 L-5653.8,-9934.0 L-5646.8,-9943.0 L-5640.4,-9952.0 L-5633.1,-9963.6 L-5628.3,-9972.5 L-5625.3,-9978.2 L-5620.8,-9987.9 L-5617.1,-9996.8 L-5613.7,-10006.4 L-5611.0,-10014.9 L-5608.1,-10028.6 L-5605.9,-10040.8 L-5604.7,-10051.4 L-5603.8,-10063.7 L-5603.6,-10077.0 L-5604.5,-10089.3 L-5606.6,-10105.2 L-5608.7,-10116.1 L-5611.3,-10126.5 L-5614.9,-10138.1 L-5618.1,-10147.1 L-5621.7,-10156.9 L-5625.1,-10164.9 L-5627.4,-10170.2 L-5628.4,-10174.0 L-5628.5,-10177.0 L-5628.2,-10179.6 L-5627.1,-10181.9 L-5625.5,-10183.9 L-5623.4,-10185.0 L-5621.2,-10185.3 L-5615.1,-10183.8 L-5598.3,-10179.8 L-5592.7,-10307.1 L-5570.8,-10534.4 L-5594.6,-10540.1 L-5597.2,-10547.2 L-5597.1,-10557.4 L-5593.8,-10580.7 L-5589.3,-10585.9 L-5585.3,-10601.1 L-5560.1,-10595.2 L-5546.1,-10740.4 L-5542.3,-10780.7 L-5550.1,-10782.6 L-5545.4,-10801.8 L-5561.6,-10805.6 L-5559.5,-10817.4 L-5556.7,-10825.1 L-5553.1,-10834.2 L-5547.1,-10846.8 L-5540.7,-10845.4 L-5531.9,-10936.7 L-5529.9,-10992.1 L-5529.5,-11002.3 L-5524.8,-11037.6 L-5515.4,-11125.5 L-5453.0,-11288.2 L-5438.8,-11332.5 L-5265.5,-11399.0 L-5248.5,-11405.8 L-5245.6,-11407.4 L-5243.2,-11409.5 L-5240.7,-11412.4 L-5238.8,-11415.9 L-5237.5,-11419.3 L-5237.1,-11424.2 L-5237.4,-11430.4 L-5239.7,-11508.1 L-5240.6,-11523.2 L-5240.8,-11533.6 L-5241.1,-11553.6 L-5241.5,-11559.9 L-5242.3,-11565.2 L-5243.4,-11570.0 L-5244.9,-11574.7 L-5247.3,-11580.4 L-5250.9,-11586.5 L-5254.5,-11591.3 L-5257.2,-11595.8 L-5259.9,-11601.8 L-5262.2,-11607.7 L-5263.1,-11612.4 L-5263.8,-11617.6 L-5264.1,-11622.9 L-5264.0,-11628.0 L-5263.4,-11633.9 L-5262.0,-11639.8 L-5260.1,-11645.0 L-5258.2,-11649.8 L-5255.7,-11654.4 L-5252.7,-11659.9 L-5250.6,-11665.0 L-5248.9,-11671.5 L-5245.7,-11676.3 L-5246.8,-11721.0 L-5248.4,-11723.5 L-5249.0,-11753.8 L-5249.8,-11789.6 L-5249.2,-11794.5 L-5247.6,-11799.6 L-5243.6,-11807.5 L-5216.9,-11865.0 L-5216.3,-11866.0 L-5211.6,-11876.2 L-5207.1,-11886.0 L-5202.2,-11896.0 L-5197.2,-11906.2 L-5194.8,-11911.3 L-5168.6,-11965.2 L-5140.5,-12024.8 L-5079.6,-12148.2 L-5116.2,-12189.1 L-5146.0,-12125.7 L-5171.8,-12070.7 L-5175.7,-12062.9 L-5183.6,-12046.7 L-5199.5,-12048.0 L-5203.9,-12048.3 L-5205.4,-12046.8 L-5203.3,-12044.9 L-5211.5,-12037.7 L-5217.9,-12031.7 L-5219.1,-12006.3 L-5221.5,-12001.2 L-5229.3,-12001.5 L-5230.6,-12002.0 L-5332.8,-12044.1 L-5335.0,-12045.3 L-5337.4,-12046.8 L-5341.0,-12049.6 L-5343.9,-12052.3 L-5346.3,-12054.9 L-5348.6,-12058.1 L-5350.4,-12060.9 L-5351.8,-12063.8 L-5353.0,-12066.9 L-5353.7,-12068.9 L-5354.2,-12071.5 L-5354.7,-12074.5 L-5355.1,-12078.6 L-5355.1,-12084.4 L-5355.8,-12104.3 L-5353.0,-12104.5 L-5353.4,-12114.9 L-5353.8,-12132.2 L-5351.2,-12132.3 L-5351.4,-12144.1 L-5354.3,-12144.0 L-5355.7,-12193.8 L-5352.9,-12193.9 L-5353.4,-12205.5 L-5356.1,-12205.4 L-5357.2,-12242.2 L-5343.7,-12256.7 L-5326.5,-12257.3 L-5313.6,-12257.8 L-5296.7,-12258.3 L-5280.4,-12258.9 L-5265.7,-12259.4 L-5259.4,-12259.6 L-5259.7,-12265.3 L-5259.8,-12271.2 L-5260.8,-12290.3 L-5261.1,-12326.9 L-5261.6,-12327.5 L-5261.7,-12331.2 L-5260.6,-12331.2 L-5263.2,-12419.3 L-5265.4,-12502.1 L-5265.8,-12504.7 L-5266.0,-12509.5 L-5302.1,-12508.2 L-5326.1,-12510.3 L-5505.7,-12504.0 L-5505.7,-12505.6 L-5506.1,-12513.3 L-5591.3,-12510.3 L-5591.5,-12524.4 L-5602.7,-12526.9 L-5604.7,-12587.5 L-5273.3,-12599.0 L-5267.8,-12606.6 L-5268.0,-12628.1 L-5268.4,-12646.6 L-5268.7,-12658.3 L-5269.2,-12669.6 L-5295.5,-12682.1 L-5296.6,-12709.6 L-5269.5,-12723.0 L-5272.0,-12786.7 L-5272.7,-12789.9 L-5299.5,-12802.4 L-5300.4,-12836.5 L-5274.9,-12849.7 L-5286.3,-12988.1 L-5283.2,-13049.8 L-5281.8,-13150.2 L-5281.9,-13259.4 L-5279.5,-13274.8 L-5279.3,-13282.1 L-5281.7,-13291.1 L-5279.2,-13291.1 L-5279.2,-13299.1 L-5277.7,-13504.6 L-5277.9,-13513.8 L-5280.8,-13513.7 L-5280.7,-13551.5 L-5282.4,-13553.9 L-5284.9,-13592.9 L-5279.8,-13628.5 L-5280.5,-13671.7 L-5282.2,-13682.0 L-5279.6,-13714.0 L-5281.4,-13752.6 L-5285.9,-13794.0 L-5294.4,-13861.0 L-5290.4,-13879.4 L-5292.1,-13897.4 L-5307.4,-13910.5 L-5329.9,-13910.2 L-5364.1,-13905.7 L-5386.3,-13905.7 L-5406.6,-13913.2 L-5433.1,-13931.4 L-5433.1,-13964.0 L-5433.8,-14004.2 L-5431.2,-14037.6 L-5422.4,-14063.7 L-5275.0,-14066.4 L-5271.7,-14275.4 L-5271.7,-14576.2 L-5273.2,-14685.4 L2682.9,-17971.2 L2682.9,137.9 L-7173.4,137.9 L-7173.4,-8854.9 Z" fill="#add7e1" stroke="none"><title>Biscayne Bay</title></path><path d="M-1.0,-1.0 L257.0,-1.0 L257.0,257.0 L-1.0,257.0 L-1.0,-1.0 Z" fill="#add7e1" stroke="none" fill-rule="evenodd"><title>Biscayne Bay</title></path></svg>