<svg xmlns="http://www.w3.org/2000/svg" width="256" height="256" viewBox="0 0 256 256"><rect width="256" height="256" fill="#f1efe7"/><path d="M1301.2,2327.5 L757.0,1925.8 L713.5,1893.8 L666.3,1883.5 L633.0,1855.5 L606.4,1852.4 L520.4,1858.1 L520.5,1850.0 L515.7,1842.4 L506.1,1836.5 L319.3,1755.6 L306.6,1749.8 L295.5,1746.6 L281.7,1745.5 L267.8,1745.2 L221.4,1745.2 L209.1,1744.5 L197.0,1742.1 L184.2,1737.1 L168.8,1733.0 L157.6,1732.0 L124.7,1730.6 L113.7,1728.6 L99.7,1724.1 L86.0,1720.6 L72.7,1717.5 L62.3,1713.3 L49.7,1705.5 L38.5,1697.1 L27.6,1688.9 L18.7,1684.7 L11.9,1683.3 L5.8,1683.7 L-0.7,1685.5 L-8.3,1689.4 L-14.3,1696.0 L-22.4,1703.9 L-31.4,1712.2 L-41.6,1717.8 L-54.5,1722.0 L-65.2,1724.6 L-78.1,1726.6 L-99.7,1729.1 L-153.9,1731.7 L-199.9,1734.0 L-219.7,1741.1 L-260.3,1742.5 L-265.8,1734.0 L-271.9,1730.1 L-278.2,1728.9 L-322.0,1731.4 L-341.0,1738.2 L-364.3,1738.4 L-380.0,1736.1 L-392.9,1732.2 L-440.0,1735.0 L-564.6,1744.7 L-593.3,1745.5 L-603.1,1745.3 L-611.9,1743.1 L-622.1,1738.0 L-629.6,1732.0 L-662.0,1732.1 L-689.1,1731.7 L-696.4,1736.2 L-733.7,1737.1 L-738.5,1745.0 L-743.8,1745.2 L-753.0,1743.0 L-769.5,1741.0 L-786.5,1741.9 L-791.7,1743.5 L-797.0,1742.6 L-800.6,1739.1 L-806.7,1735.6 L-829.4,1735.7 L-852.3,1736.9 L-874.0,1749.7 L-884.7,1754.8 L-896.9,1757.5 L-907.0,1758.2 L-916.1,1756.8 L-937.1,1747.8 L-949.1,1744.0 L-959.3,1742.5 L-1004.0,1743.1 L-1006.8,1737.7 L-1046.3,1738.6 L-1073.5,1743.6 L-1091.4,1745.7 L-1101.0,1747.8 L-1104.7,1745.3 L-1111.5,1744.4 L-1175.2,1738.6 L-1180.7,1741.6 L-1187.4,1743.0 L-1196.2,1743.1 L-1196.2,1739.9 L-1235.7,1732.5 L-1260.6,1727.7 L-1320.8,1707.5 L-1324.1,1712.0 L-1364.3,1699.6 L-1372.7,1696.8 L-1368.6,1682.8 L-1373.4,1681.3 L-1374.4,1679.8 L-1377.0,1679.0 L-1380.6,1678.5 L-1385.0,1676.3 L-1383.5,1675.0 L-1401.3,1660.5 L-1430.9,1633.7 L-1446.8,1619.7 L-1458.1,1607.4 L-1464.4,1599.1 L-1473.8,1586.3 L-1479.2,1576.4 L-1496.0,1555.3 L-1497.6,1554.1 L-1498.7,1554.0 L-1499.9,1554.2 L-1502.1,1554.3 L-1504.1,1553.3 L-1508.3,1550.6 L-1516.9,1546.1 L-1521.1,1542.5 L-1526.0,1538.2 L-1532.7,1534.6 L-1543.2,1531.3 L-1554.3,1529.3 L-1563.8,1529.1 L-1561.1,1503.9 L-1558.9,1471.0 L-1548.6,1472.0 L-1538.3,1473.8 L-1524.8,1477.8 L-1514.9,1481.5 L-1506.0,1485.6 L-1497.4,1489.6 L-1489.3,1494.2 L-1482.7,1499.3 L-1473.9,1506.1 L-1464.7,1513.0 L-1462.6,1514.3 L-1460.7,1514.7 L-1435.5,1513.6 L-1435.2,1519.3 L-1436.7,1521.8 L-1455.6,1523.6 L-1450.8,1533.4 L-1447.5,1532.2 L-1444.5,1535.2 L-1442.6,1538.1 L-1441.0,1540.3 L-1437.1,1545.5 L-1435.6,1551.2 L-1429.5,1559.6 L-1415.1,1568.7 L-1397.2,1577.8 L-1375.8,1591.3 L-1366.0,1595.9 L-1345.4,1607.6 L-1335.7,1612.7 L-1318.0,1619.2 L-1283.2,1628.5 L-1262.8,1633.4 L-1244.2,1635.3 L-1234.3,1636.6 L-1232.1,1636.4 L-1231.2,1635.1 L-1230.9,1628.5 L-1207.8,1628.5 L-1207.3,1635.9 L-1158.9,1638.4 L-1111.7,1639.8 L-1079.6,1638.6 L-1069.0,1637.8 L-1061.3,1636.8 L-1055.0,1635.0 L-1049.2,1631.5 L-1046.3,1626.8 L-1047.4,1549.3 L-1027.9,1548.2 L-1026.2,1623.8 L-1025.1,1625.7 L-1021.2,1628.4 L-1016.7,1629.7 L-913.3,1629.9 L-913.8,1596.6 L-905.7,1596.4 L-902.3,1629.9 L-838.5,1629.3 L-838.5,1625.7 L-832.2,1625.6 L-832.0,1628.2 L-406.5,1620.1 L-375.7,1616.5 L-338.1,1615.4 L-302.5,1620.1 L-290.6,1619.1 L-281.9,1617.4 L-273.8,1614.5 L-263.3,1610.5 L-49.4,1606.7 L-49.5,1591.9 L70.2,1589.8 L70.3,1606.1 L121.1,1607.9 L125.0,1607.8 L128.6,1607.5 L133.3,1606.9 L137.1,1605.9 L140.8,1604.7 L147.1,1601.7 L150.0,1606.7 L156.2,1602.8 L161.9,1598.2 L166.7,1593.2 L170.9,1587.3 L174.8,1580.0 L167.5,1575.9 L169.5,1569.8 L170.8,1563.5 L171.5,1557.5 L171.6,1552.8 L171.4,1548.4 L170.7,1510.5 L164.6,1504.9 L169.8,1499.4 L164.5,1494.8 L170.5,1487.7 L164.0,1482.0 L169.2,1476.5 L164.0,1471.5 L170.1,1465.0 L163.8,1458.6 L176.9,1444.2 L179.2,1444.1 L173.5,1229.6 L221.6,1228.5 L223.9,1229.7 L226.5,1231.7 L228.4,1233.4 L229.2,1235.4 L229.9,1237.8 L230.1,1240.2 L234.2,1573.5 L236.1,1584.3 L238.8,1591.6 L243.0,1600.6 L247.9,1609.4 L253.0,1616.4 L257.1,1620.7 L261.5,1624.1 L266.6,1627.1 L271.9,1629.1 L279.1,1631.2 L288.0,1632.9 L298.8,1634.9 L311.4,1637.2 L323.4,1639.8 L336.7,1642.2 L349.3,1644.9 L353.3,1645.7 L358.2,1646.7 L363.0,1647.3 L367.2,1647.4 L372.0,1647.4 L375.7,1647.2 L379.4,1646.5 L382.6,1645.7 L386.0,1644.7 L388.9,1643.4 L394.7,1640.6 L399.8,1637.6 L404.9,1633.9 L410.8,1628.2 L416.3,1622.0 L419.3,1616.7 L422.0,1610.2 L423.4,1604.9 L424.2,1599.2 L424.7,1593.8 L424.7,1588.8 L417.4,1231.6 L427.8,1220.9 L431.6,1220.5 L433.1,1219.1 L454.8,1218.5 L456.7,1215.3 L460.0,1216.2 L465.5,1221.3 L469.3,1226.6 L473.1,1233.2 L480.3,1632.4 L481.0,1639.4 L482.3,1653.3 L483.6,1656.1 L482.6,1656.8 L484.4,1660.7 L486.7,1665.3 L488.7,1668.2 L491.1,1671.7 L494.4,1675.5 L498.3,1679.5 L503.0,1683.5 L507.2,1686.6 L511.8,1689.1 L516.2,1691.3 L520.9,1692.8 L521.5,1691.4 L587.7,1715.4 L596.0,1718.5 L599.8,1719.9 L605.7,1722.0 L610.0,1723.0 L613.7,1723.5 L617.1,1723.5 L621.9,1723.1 L627.1,1722.6 L631.7,1721.6 L636.4,1720.3 L639.9,1718.9 L643.6,1717.2 L646.6,1715.3 L650.4,1712.5 L655.2,1708.3 L659.6,1704.0 L664.4,1698.0 L667.8,1692.4 L670.6,1686.2 L672.6,1679.3 L673.8,1672.3 L674.5,1659.8 L674.2,1634.3 L666.9,1228.2 L666.9,1223.7 L667.7,1220.5 L669.1,1217.9 L672.0,1215.5 L675.3,1213.8 L679.0,1213.2 L709.1,1212.2 L712.7,1212.8 L715.9,1214.2 L718.2,1216.4 L720.8,1220.2 L722.3,1225.6 L723.2,1232.9 L730.7,1753.8 L731.1,1756.9 L731.7,1760.0 L732.6,1763.2 L733.7,1766.7 L734.9,1770.2 L736.3,1773.4 L737.5,1776.1 L738.8,1778.5 L740.7,1781.5 L742.8,1784.1 L744.7,1786.5 L747.6,1789.6 L750.4,1792.3 L753.5,1794.8 L756.8,1797.3 L766.0,1803.1 L766.9,1802.0 L775.0,1806.5 L784.6,1811.7 L790.1,1814.7 L796.2,1818.3 L802.5,1822.0 L809.0,1826.0 L816.3,1830.5 L823.5,1835.0 L830.7,1839.3 L836.7,1843.0 L843.4,1847.3 L850.5,1851.9 L857.3,1856.4 L863.6,1860.7 L862.9,1861.6 L871.7,1867.7 L880.8,1873.8 L883.6,1875.5 L886.7,1877.2 L891.1,1879.3 L895.2,1880.8 L899.6,1882.0 L903.5,1883.0 L908.1,1883.7 L913.2,1884.3 L917.6,1884.3 L921.3,1884.0 L924.5,1883.3 L928.6,1882.2 L932.7,1880.9 L936.5,1879.6 L940.0,1877.9 L943.6,1876.0 L947.1,1873.8 L950.7,1871.0 L953.9,1868.1 L957.0,1865.0 L959.9,1861.8 L962.9,1857.4 L965.4,1853.0 L967.8,1848.1 L969.2,1844.3 L970.3,1840.3 L971.1,1836.0 L971.5,1831.7 L971.2,1826.8 L911.9,1259.1 L916.0,1258.7 L912.7,1230.3 L909.7,1230.5 L907.3,1217.4 L908.1,1214.7 L910.6,1210.7 L915.7,1206.8 L922.4,1206.0 L949.3,1205.1 L953.8,1206.0 L956.9,1207.5 L960.2,1210.1 L962.5,1212.5 L964.1,1215.0 L1029.1,1851.9 L1030.6,1857.4 L1033.4,1864.2 L1035.8,1868.6 L1038.4,1873.3 L1041.8,1877.9 L1044.6,1881.1 L1047.7,1884.3 L1051.1,1887.0 L1054.1,1889.1 L1058.3,1891.8 L1062.0,1893.7 L1066.9,1895.8 L1071.5,1897.2 L1076.7,1898.3 L1080.7,1898.9 L1084.2,1899.0 L1088.3,1899.1 L1229.5,1896.2 L1234.1,1895.6 L1238.5,1893.5 L1241.7,1890.6 L1243.9,1886.2 L1244.7,1882.2 L1244.5,1878.2 L1173.0,1196.1 L1110.0,1113.9 L1107.2,1116.2 L1052.4,1039.7 L1051.4,1023.5 L1049.7,1020.1 L1046.8,1017.0 L1043.1,1011.8 L1042.8,1004.2 L1036.3,1001.7 L1030.0,1001.6 L1021.5,1005.8 L1031.1,1023.8 L1019.0,1029.6 L1009.9,1021.2 L1002.1,1016.4 L996.8,1014.6 L983.8,1014.1 L977.2,1000.7 L1018.7,983.7 L1016.7,980.3 L1007.9,968.5 L1006.5,969.2 L697.6,564.7 L692.9,498.0 L695.4,497.4 L683.5,375.1 L678.9,363.8 L673.9,351.1 L670.1,341.3 L665.5,328.8 L650.5,286.7 L644.4,289.4 L635.5,255.3 L637.0,255.0 L605.9,170.7 L602.5,23.3 L606.1,23.3 L606.6,10.4 L608.4,-2.3 L609.1,-7.0 L607.8,-10.8 L612.0,-30.9 L650.3,-98.7 L630.2,-110.9 L645.1,-135.6 L664.5,-124.2 L666.2,-126.8 L672.3,-123.7 L678.9,-121.1 L686.5,-118.7 L692.2,-117.5 L697.6,-117.3 L704.0,-118.4 L710.3,-120.5 L716.5,-122.9 L719.4,-126.0 L720.5,-130.1 L722.0,-135.0 L722.3,-137.0 L722.2,-139.5 L720.8,-143.4 L718.2,-147.1 L715.2,-149.2 L710.8,-153.4 L707.0,-157.4 L701.4,-161.0 L699.1,-166.7 L696.4,-172.4 L692.1,-179.1 L687.2,-184.9 L678.2,-191.3 L634.6,-213.9 L608.8,-226.7 L584.7,-239.7 L561.8,-252.4 L547.0,-262.0 L541.3,-263.5 L535.0,-261.6 L531.5,-257.3 L524.4,-239.6 L480.3,-259.4 L506.7,-301.1 L512.5,-303.8 L519.6,-305.2 L527.9,-303.4 L693.6,-206.5 L702.6,-203.8 L712.0,-201.5 L725.3,-201.2 L738.8,-203.6 L747.4,-207.1 L756.8,-214.7 L762.3,-220.0 L768.2,-228.3 L768.1,-229.4 L767.7,-230.4 L766.8,-231.2 L713.2,-264.3 L711.9,-264.7 L710.5,-264.8 L709.1,-264.7 L704.0,-262.5 L702.1,-262.3 L700.0,-262.5 L696.9,-263.0 L694.5,-263.7 L691.1,-265.4 L687.8,-267.3 L614.1,-312.3 L579.4,-336.7 L576.1,-337.2 L572.8,-337.1 L568.9,-337.0 L566.3,-337.4 L564.1,-338.4 L561.5,-340.4 L558.6,-342.7 L556.6,-345.5 L555.4,-348.3 L555.2,-350.4 L555.5,-353.1 L556.0,-355.4 L567.8,-375.2 L567.8,-376.1 L566.9,-376.8 L556.1,-384.4 L554.0,-387.5 L555.2,-389.4 L558.7,-388.9 L562.5,-387.8 L584.7,-374.1 L710.5,-293.8 L713.1,-292.3 L714.9,-290.4 L716.1,-288.2 L717.4,-283.6 L718.3,-280.0 L718.8,-276.9 L775.6,-242.8 L777.6,-241.9 L780.0,-241.7 L782.8,-242.1 L784.8,-242.8 L786.5,-243.6 L847.6,-342.5 L873.2,-380.1 L897.1,-407.0 L909.2,-400.3 L917.0,-412.9 L875.5,-437.7 L884.3,-452.1 L925.8,-427.1 L935.1,-442.3 L927.6,-450.7 L935.2,-459.4 L943.4,-450.0 L945.4,-451.5 L947.7,-453.1 L950.9,-454.9 L954.2,-456.5 L958.3,-458.0 L962.2,-459.1 L966.4,-459.8 L970.6,-460.1 L974.6,-460.0 L978.5,-459.4 L982.2,-458.5 L985.3,-457.6 L988.0,-456.4 L991.8,-454.6 L995.3,-452.4 L998.3,-450.3 L1001.3,-447.6 L1004.0,-445.0 L1007.0,-441.1 L1009.1,-437.6 L1011.2,-433.1 L1012.6,-428.6 L1013.8,-422.4 L1014.2,-417.0 L1014.1,-413.9 L1013.7,-410.7 L1012.6,-405.9 L1009.8,-399.3 L1008.0,-395.0 L1005.5,-389.9 L1015.9,-384.7 L1064.5,-442.7 L976.0,-496.5 L980.5,-506.1 L983.7,-515.0 L983.9,-518.8 L989.0,-529.7 L999.5,-539.4 L1012.5,-550.0 L1028.0,-559.9 L1057.1,-568.4 L1107.3,-573.4 L1127.1,-589.4 L1131.2,-590.1 L1134.5,-590.3 L1139.2,-588.5 L1143.5,-588.0 L1171.4,-571.1 L1244.8,-658.2 L975.8,-829.2 L959.1,-802.9 L922.8,-825.9 L974.3,-906.9 L1010.5,-884.5 L994.4,-856.9 L1268.1,-684.4 L1302.6,-728.7 L1327.0,-757.7 L1359.2,-806.1 L1377.0,-830.5 L1375.2,-844.4 L1375.7,-844.8 L1372.5,-855.1 L1370.4,-861.5 L1368.4,-868.1 L1366.0,-873.8 L1361.4,-881.3 L1356.8,-888.6 L1354.8,-892.4 L1353.3,-896.2 L1352.2,-899.7 L1351.8,-902.8 L1351.3,-913.0 L1233.1,-1021.5 L1229.2,-1017.3 L1225.9,-1020.1 L1216.3,-1010.6 L1210.0,-1019.0 L1217.6,-1027.8 L1210.0,-1037.5 L1204.8,-1036.1 L1199.4,-1035.9 L1194.5,-1036.8 L1190.2,-1038.6 L1185.2,-1042.3 L1179.0,-1048.4 L1168.1,-1060.4 L1164.8,-1065.5 L1163.6,-1071.9 L1164.4,-1079.5 L1167.3,-1086.5 L1169.8,-1091.3 L1174.6,-1096.1 L1179.9,-1099.7 L1185.0,-1101.6 L1188.8,-1102.2 L1193.8,-1101.3 L1198.9,-1099.5 L1203.7,-1095.7 L1214.8,-1085.7 L1220.5,-1080.3 L1225.7,-1074.6 L1227.4,-1071.9 L1228.6,-1069.0 L1229.3,-1066.4 L1229.8,-1062.8 L1229.2,-1059.4 L1228.2,-1056.2 L1226.8,-1053.8 L1226.4,-1052.7 L1226.7,-1051.3 L1227.5,-1049.9 L1354.4,-931.0 L1358.8,-928.0 L1361.9,-926.7 L1366.3,-927.7 L1371.5,-928.1 L1378.1,-925.3 L1384.7,-921.2 L1397.6,-913.9 L1403.0,-911.3 L1407.9,-916.1 L1413.3,-921.3 L1416.9,-925.4 L1422.9,-933.2 L1426.3,-937.9 L1429.9,-943.7 L1432.2,-948.8 L1434.7,-954.2 L1437.0,-959.9 L1439.1,-965.7 L1440.3,-970.6 L1441.7,-976.8 L1442.3,-980.5 L1442.7,-983.5 L1443.4,-988.8 L1444.1,-994.0 L1444.4,-997.4 L1444.6,-1001.1 L1444.6,-1005.4 L1444.4,-1009.0 L1443.7,-1014.0 L1442.9,-1019.7 L1442.1,-1025.0 L1441.6,-1029.3 L1441.0,-1032.5 L1440.3,-1035.9 L1439.5,-1039.3 L1438.3,-1043.3 L1436.9,-1047.3 L1435.8,-1049.7 L1434.6,-1052.1 L1432.9,-1054.4 L1430.6,-1057.7 L1428.1,-1060.8 L1425.4,-1063.4 L1422.0,-1066.2 L1418.5,-1068.4 L1415.0,-1070.3 L1411.8,-1071.5 L1409.6,-1072.2 L1407.1,-1072.5 L1404.1,-1072.4 L1401.3,-1071.8 L1399.1,-1070.9 L1397.0,-1069.4 L1395.5,-1067.8 L1394.3,-1066.3 L1393.4,-1064.0 L1392.9,-1061.5 L1393.0,-1058.5 L1393.2,-1055.0 L1393.2,-1052.4 L1393.0,-1049.8 L1392.6,-1047.2 L1392.1,-1044.9 L1391.2,-1042.5 L1389.8,-1039.9 L1388.1,-1037.4 L1386.4,-1035.1 L1384.7,-1033.5 L1381.3,-1030.8 L1378.5,-1028.9 L1374.1,-1027.6 L1371.5,-1027.0 L1368.5,-1026.6 L1365.8,-1026.5 L1362.2,-1026.7 L1359.6,-1027.2 L1356.0,-1028.0 L1351.0,-1029.5 L1346.8,-1031.1 L1343.7,-1032.3 L1340.4,-1034.1 L1337.5,-1036.1 L1334.3,-1038.6 L1331.8,-1040.9 L1329.7,-1043.0 L1327.5,-1045.6 L1325.7,-1048.0 L1324.0,-1050.4 L1322.5,-1053.1 L1320.9,-1056.7 L1319.5,-1060.0 L1318.1,-1063.6 L1317.2,-1066.4 L1316.5,-1069.0 L1316.0,-1071.7 L1315.6,-1075.9 L1315.3,-1079.6 L1315.5,-1083.6 L1316.4,-1088.9 L1317.9,-1094.1 L1319.8,-1099.5 L1321.1,-1102.0 L1322.4,-1103.5 L1332.7,-1116.6 L1335.1,-1119.3 L1338.2,-1120.8 L1341.5,-1122.0 L1345.2,-1122.8 L1349.3,-1123.3 L1352.9,-1123.5 L1356.5,-1123.4 L1360.1,-1123.0 L1364.2,-1121.8 L1368.5,-1119.7 L1372.2,-1117.4 L1375.5,-1114.8 L1385.9,-1105.2 L1388.4,-1104.4 L1389.8,-1104.1 L1391.5,-1104.5 L1392.6,-1104.9 L1394.0,-1106.5 L1394.6,-1108.1 L1394.7,-1110.3 L1394.8,-1112.3 L1394.4,-1113.2 L1373.4,-1134.0 L1402.0,-1164.5 L1400.4,-1168.1 L1416.9,-1184.4 L1448.7,-1152.6 L1423.1,-1120.0 L1422.9,-1118.1 L1424.2,-1117.3 L1425.8,-1117.7 L1453.9,-1152.9 L1462.1,-1162.8 L1462.4,-1165.1 L1461.7,-1167.1 L1460.2,-1168.9 L1438.2,-1189.7 L1443.7,-1196.1 L1438.1,-1200.8 L1441.3,-1208.2 L1498.3,-1265.5 L1517.9,-1268.8 L1524.0,-1269.7 L1529.8,-1270.5 L1532.5,-1271.2 L1535.7,-1272.9 L1539.5,-1275.0 L1542.4,-1277.9 L1545.2,-1281.4 L1574.3,-1323.7 L1574.9,-1324.8 L1574.6,-1326.2 L1574.2,-1327.2 L1573.5,-1328.1 L1570.0,-1330.3 L1569.1,-1330.8 L1568.3,-1330.7 L1567.4,-1330.2 L1565.5,-1328.8 L1541.1,-1306.0 L1531.6,-1299.2 L1492.6,-1339.2 L1497.1,-1353.4 L1499.0,-1357.6 L1505.1,-1368.8 L1512.2,-1381.3 L1516.5,-1386.1 L1524.2,-1394.3 L1532.4,-1403.3 L1541.4,-1412.8 L1549.1,-1419.4 L1552.8,-1422.7 L1557.7,-1426.3 L1562.2,-1428.7 L1568.6,-1431.6 L1572.6,-1433.0 L1576.6,-1434.2 L1579.7,-1434.5 L1584.1,-1434.2 L1587.8,-1433.7 L1592.0,-1432.5 L1596.1,-1429.1 L1598.6,-1425.6 L1600.1,-1422.0 L1600.7,-1416.6 L1600.5,-1409.5 L1599.6,-1401.5 L1597.9,-1393.8 L1587.6,-1370.8 L1577.8,-1350.1 L1581.2,-1344.6 L1583.0,-1343.5 L1584.9,-1343.5 L1586.6,-1343.9 L1587.9,-1344.7 L1594.6,-1354.2 L1603.2,-1358.5 L1620.3,-1404.2 L1621.5,-1406.5 L1623.2,-1408.5 L1624.9,-1409.4 L1626.5,-1409.8 L1628.8,-1409.8 L1631.2,-1409.2 L1643.7,-1405.7 L1646.1,-1405.2 L1648.9,-1405.1 L1651.5,-1405.5 L1653.6,-1406.4 L1655.4,-1407.8 L1657.2,-1410.1 L1678.2,-1438.2 L1679.2,-1440.3 L1679.7,-1442.5 L1679.7,-1444.6 L1679.3,-1446.8 L1678.5,-1448.4 L1677.3,-1450.0 L1675.9,-1451.3 L1673.9,-1452.3 L1672.0,-1452.8 L1670.1,-1452.9 L1668.5,-1452.6 L1666.6,-1451.7 L1665.2,-1450.7 L1664.1,-1449.3 L1658.6,-1440.4 L1657.4,-1438.7 L1656.0,-1437.1 L1653.9,-1435.3 L1652.0,-1434.2 L1649.7,-1433.5 L1646.9,-1432.9 L1645.3,-1432.9 L1643.1,-1433.2 L1641.2,-1433.7 L1639.6,-1434.4 L1622.4,-1450.0 L1620.4,-1452.4 L1618.9,-1454.6 L1617.5,-1457.3 L1616.6,-1459.6 L1616.0,-1462.0 L1615.5,-1464.6 L1615.2,-1467.8 L1615.1,-1471.0 L1615.4,-1473.7 L1615.8,-1476.0 L1616.3,-1478.0 L1617.1,-1479.7 L1648.4,-1529.4 L1650.4,-1532.7 L1651.6,-1534.4 L1653.0,-1535.2 L1655.3,-1536.2 L1657.7,-1536.9 L1660.0,-1537.3 L1661.3,-1537.3 L1662.6,-1537.1 L1663.7,-1536.7 L1665.3,-1535.9 L1667.2,-1534.7 L1670.4,-1532.1 L1684.7,-1518.7 L1687.1,-1515.3 L1688.5,-1512.0 L1689.8,-1508.1 L1690.2,-1505.1 L1690.4,-1501.9 L1690.4,-1499.2 L1690.1,-1496.5 L1689.6,-1493.8 L1689.0,-1492.0 L1687.4,-1488.3 L1681.7,-1477.7 L1681.1,-1475.3 L1681.1,-1472.4 L1681.3,-1470.2 L1682.1,-1468.5 L1683.6,-1466.9 L1686.0,-1465.2 L1688.0,-1464.1 L1690.3,-1463.6 L1693.0,-1463.7 L1695.2,-1464.2 L1697.7,-1465.5 L1699.9,-1467.5 L1736.9,-1518.3 L1725.6,-1528.5 L1732.4,-1535.8 L1742.5,-1526.1 L1763.3,-1553.4 L1794.8,-1595.5 L1668.0,-1717.0 L1640.5,-1688.1 L1608.2,-1718.6 L1639.4,-1752.2 L1635.3,-1756.7 L1641.8,-1762.7 L1645.8,-1758.6 L1667.5,-1782.2 L1687.0,-1764.1 L1689.3,-1749.1 L1771.3,-1672.6 L1787.3,-1666.4 L1800.1,-1670.9 L1824.4,-1661.2 L1840.5,-1667.1 L1888.4,-1725.6 L1891.1,-1731.1 L1891.9,-1738.5 L1889.5,-1745.8 L1886.3,-1751.0 L1857.9,-1777.2 L1858.3,-1784.4 L1863.9,-1798.5 L1875.1,-1819.4 L1853.0,-1833.7 L1861.4,-1836.9 L1866.7,-1840.3 L1872.0,-1846.3 L1878.2,-1862.2 L1889.6,-1891.2 L1897.0,-1898.0 L1826.8,-1966.0 L1811.4,-1956.4 L1807.8,-1955.5 L1804.4,-1955.4 L1800.0,-1955.9 L1796.4,-1956.9 L1792.9,-1959.0 L1790.0,-1961.5 L1753.7,-1996.5 L1746.9,-2003.3 L1743.9,-2006.9 L1741.4,-2011.4 L1740.2,-2015.5 L1739.7,-2019.5 L1739.8,-2023.3 L1740.5,-2026.9 L1741.4,-2029.8 L1742.6,-2031.9 L1745.2,-2035.6 L1748.3,-2039.3 L1764.6,-2056.2 L1888.6,-1941.3 L1880.1,-1931.7 L1972.0,-1844.8 L2077.9,-1999.9 L2010.7,-2062.7 L2002.1,-2055.0 L1876.6,-2173.5 L1893.0,-2188.8 L1965.1,-2121.2 L1972.3,-2131.8 L1976.3,-2137.1 L1981.4,-2142.3 L1987.3,-2148.8 L1993.3,-2152.7 L2002.8,-2160.7 L2012.3,-2169.5 L2030.5,-2186.7 L2074.0,-2235.6 L2081.8,-2243.7 L2110.5,-2258.4 L2137.7,-2279.7 L2140.3,-2281.7 L2147.4,-2287.2 L2150.5,-2290.0 L2153.0,-2293.2 L2154.7,-2296.5 L2155.8,-2299.8 L2157.1,-2302.3 L2158.6,-2305.0 L2161.2,-2309.3 L2163.0,-2312.0 L2164.8,-2314.5 L2168.1,-2317.1 L2171.3,-2319.3 L2174.8,-2321.4 L2183.1,-2325.4 L2191.1,-2329.4 L2192.3,-2329.6 L2193.5,-2329.4 L2195.9,-2328.7 L2202.4,-2325.4 L2207.3,-2323.0 L2209.6,-2321.6 L2211.7,-2319.9 L2245.1,-2288.2 L2247.4,-2286.9 L2258.3,-2284.0 L2261.8,-2283.0 L2265.7,-2282.6 L2268.7,-2282.7 L2271.0,-2283.5 L2273.3,-2285.1 L2285.2,-2301.9 L2285.2,-2304.2 L2284.8,-2306.3 L2283.5,-2308.6 L2281.5,-2310.8 L2272.4,-2319.3 L2273.1,-2320.7 L2284.8,-2345.5 L2304.8,-2385.8 L2323.0,-2399.2 L2333.5,-2409.7 L2340.7,-2418.0 L2348.3,-2425.7 L2356.7,-2432.6 L2361.8,-2437.3 L2367.2,-2442.2 L2371.2,-2446.2 L2373.2,-2449.8 L2374.8,-2452.6 L2375.8,-2455.3 L2376.2,-2458.5 L2376.4,-2461.7 L2382.5,-2467.9 L2391.5,-2476.4 L2406.5,-2488.7 L2422.2,-2500.6 L2429.2,-2510.4 L2431.8,-2520.5 L2439.6,-2525.3 L2449.4,-2525.5 L2459.3,-2531.4 L2468.0,-2547.1 L2467.8,-2563.4 L2469.4,-2588.6 L2471.9,-2592.2 L2473.4,-2594.6 L2476.2,-2599.2 L2472.7,-2609.9 L2476.7,-2614.9 L2496.5,-2639.4 L2530.5,-2679.1 L2537.0,-2688.5 L2539.6,-2693.4 L2550.4,-2708.3 L2553.4,-2717.7 L2553.5,-2732.2 L2553.1,-2746.7 L2553.0,-2761.5 L2557.4,-2777.8 L2564.8,-2793.9 L2575.4,-2809.4 L2583.1,-2820.9 L2592.2,-2832.4 L2609.8,-2852.0 L2687.8,-2890.6 L2698.1,-2893.3 L2700.7,-2887.7 L2703.8,-2882.3 L2704.8,-2881.3 L2706.5,-2882.0 L2706.8,-2885.8 L2705.6,-2889.0 L2709.9,-2890.3 L2725.9,-2895.0 L2746.7,-2901.2 L2763.5,-2906.2 L2769.5,-2908.0 L2763.5,-2926.9 L2773.9,-2929.7 L2791.2,-2932.1 L2793.3,-2932.4 L2793.4,-2933.6 L2793.4,-2938.0 L2809.1,-2938.7 L2833.7,-2939.7 L2843.2,-2935.1 L2866.9,-2849.7 L2872.2,-2844.6 L2861.9,-2834.0 L2871.0,-2825.0 L2880.0,-2816.0 L2890.8,-2827.0 L3091.3,-2636.4 L3358.9,-2922.0 L3452.4,-2832.6 L3456.0,-2833.7 L3457.4,-2832.1 L3463.7,-2836.1 L3468.9,-2838.0 L3474.4,-2840.5 L3483.8,-2845.4 L3489.6,-2848.7 L3496.5,-2852.7 L3502.9,-2856.7 L3508.1,-2860.1 L3512.9,-2863.2 L3518.5,-2867.3 L3524.9,-2872.0 L3529.8,-2876.1 L3535.0,-2880.7 L3540.7,-2886.1 L3546.1,-2891.5 L3558.7,-2904.9 L3566.3,-2914.0 L3573.7,-2923.9 L3578.8,-2931.1 L3583.6,-2938.5 L3589.3,-2948.8 L3594.3,-2958.9 L3598.3,-2967.2 L3601.7,-2975.5 L3603.8,-2981.0 L3606.1,-2987.2 L3611.5,-2993.9 L3440.5,-3156.6 L3442.6,-3158.9 L3463.1,-3180.9 L3478.0,-3196.7 L3479.5,-3198.3 L3522.9,-3157.7 L3533.4,-3163.1 L3534.6,-3161.6 L3636.6,-3214.7 L3640.8,-3216.9 L3643.7,-3219.2 L3646.4,-3221.7 L3649.5,-3224.9 L3652.5,-3229.4 L3655.1,-3233.6 L3656.8,-3236.8 L3658.0,-3240.9 L3659.1,-3245.4 L3659.6,-3250.3 L3659.6,-3255.8 L3659.2,-3260.2 L3658.4,-3264.1 L3657.1,-3268.8 L3625.2,-3360.6 L3620.9,-3375.7 L3622.0,-3380.9 L3545.0,-3400.0 L3548.6,-3413.3 L3551.6,-3425.3 L3574.4,-3515.5 L3556.7,-3568.1 L3546.3,-3602.1 L3543.3,-3610.6 L3570.9,-3635.9 L3602.0,-3652.6 L3603.9,-3650.0 L3606.9,-3645.7 L3613.9,-3636.6 L3614.7,-3637.4 L3614.9,-3640.5 L3605.2,-3653.9 L3622.5,-3666.3 L3626.3,-3668.5 L3635.3,-3656.8 L3636.8,-3655.7 L3638.3,-3655.4 L3639.1,-3655.6 L3639.1,-3656.4 L3596.3,-3715.0 L3593.2,-3718.4 L3589.6,-3723.3 L3571.0,-3745.8 L3586.9,-3795.1 L3599.1,-3807.8 L3613.2,-3814.4 L3643.2,-3832.2 L3649.4,-3838.6 L3676.3,-3862.2 L3684.8,-3853.3 L3709.7,-3826.4 L3732.8,-3845.8 L3748.3,-3830.9 L3762.2,-3817.3 L3762.9,-3816.6 L3774.7,-3826.7 L3790.3,-3810.1 L3803.7,-3792.9 L3813.6,-3781.4 L3814.9,-3779.9 L3843.7,-3805.2 L3845.2,-3806.5 L3838.4,-3814.8 L3854.1,-3827.7 L3901.7,-3772.2 L3942.2,-3798.9 L3946.2,-3802.7 L3963.8,-3810.1 L3967.8,-3814.0 L3971.6,-3819.0 L3993.3,-3838.3 L3988.4,-3845.0 L3949.6,-3836.1 L3905.2,-3886.6 L3910.3,-3891.0 L3917.0,-3883.2 L3948.4,-3910.2 L3981.7,-3873.8 L3990.7,-3870.2 L3996.1,-3867.1 L4002.9,-3859.4 L4006.6,-3862.7 L3982.5,-3890.1 L3997.3,-3902.9 L4027.2,-3867.0 L4031.0,-3869.8 L4030.6,-3870.6 L4096.2,-3918.0 L4115.7,-3932.4 L4052.0,-4012.0 L4065.6,-4021.5 L4121.0,-3956.6 L4161.9,-3949.1 L4188.9,-3964.9 L4192.7,-3967.3 L4192.5,-3970.3 L4190.6,-3973.8 L4211.7,-3987.1 L4217.9,-3980.9 L4235.7,-3991.4 L4222.8,-4007.4 L4160.5,-4090.7 L4204.5,-4136.3 L4233.4,-4179.0 L4234.1,-4212.4 L4218.7,-4256.8 L4251.1,-4283.8 L4285.1,-4296.9 L4296.3,-4299.5 L4305.3,-4300.7 L4316.3,-4300.0 L4327.7,-4297.2 L4344.2,-4283.1 L4387.0,-4230.9 L4421.2,-4187.5 L4462.1,-4160.2 L4478.2,-4157.6 L4492.6,-4155.9 L4504.8,-4155.4 L4520.4,-4156.5 L4537.3,-4159.3 L4551.0,-4163.2 L4562.6,-4168.6 L4570.3,-4173.1 L4576.0,-4179.1 L4585.6,-4190.7 L4596.0,-4209.7 L4607.3,-4234.9 L4627.4,-4224.6 L4635.4,-4221.9 L4644.0,-4220.7 L4657.7,-4221.6 L4666.8,-4224.3 L4677.2,-4228.8 L4686.9,-4234.4 L4697.2,-4244.4 L4706.0,-4252.4 L4717.0,-4259.9 L4724.6,-4264.8 L4735.8,-4268.8 L4755.1,-4274.4 L4766.5,-4277.6 L4778.7,-4282.2 L4789.3,-4287.7 L4795.6,-4291.3 L4800.6,-4296.5 L4866.0,-4329.3 L4868.5,-4330.7 L4871.4,-4332.5 L4874.4,-4334.8 L4878.8,-4337.3 L4881.7,-4338.7 L4884.8,-4341.4 L4887.2,-4343.9 L4890.4,-4346.0 L4893.8,-4348.4 L4898.3,-4352.6 L4904.7,-4353.1 L4911.3,-4353.9 L4915.6,-4355.3 L4921.2,-4357.9 L4928.1,-4361.0 L4935.4,-4365.5 L4939.5,-4369.4 L4944.1,-4374.7 L4947.0,-4379.6 L4948.6,-4384.1 L4948.7,-4387.3 L4948.8,-4389.9 L4950.4,-4400.3 L4986.8,-4421.4 L5050.6,-4458.2 L5063.0,-4465.3 L5171.2,-4527.7 L5288.4,-4595.0 L5338.3,-4623.6 L5355.6,-4633.3 L5500.5,-4717.5 L5532.7,-4735.2 L5532.2,-4736.3 L5598.5,-4773.8 L5624.0,-4788.1 L5671.0,-4814.1 L5671.5,-4813.4 L5689.7,-4823.4 L5733.9,-4848.1 L5739.2,-4852.9 L5784.0,-4885.7 L5806.3,-4904.2 L5826.8,-4921.5 L5836.2,-4926.8 L5857.4,-4947.8 L5859.2,-4946.7 L5862.0,-4947.0 L5863.4,-4946.1 L5893.2,-4981.0 L5885.7,-4988.0 L5886.7,-4989.8 L5889.9,-4994.4 L5898.5,-5005.3 L5903.7,-5013.2 L5907.8,-5019.7 L5913.5,-5028.4 L5919.0,-5037.4 L5925.2,-5047.7 L5931.6,-5058.9 L5945.5,-5087.6 L5949.8,-5096.7 L5953.3,-5104.0 L5955.7,-5109.5 L5957.8,-5113.7 L5962.2,-5124.7 L5846.4,-5340.7 L5844.2,-5344.8 L5842.5,-5347.1 L5841.3,-5348.8 L5839.7,-5350.2 L5838.2,-5351.2 L5836.2,-5352.4 L5834.1,-5353.2 L5832.3,-5353.6 L5830.5,-5353.8 L5827.8,-5353.8 L5824.7,-5353.3 L5822.0,-5352.5 L5819.2,-5351.1 L5792.3,-5335.6 L5757.2,-5315.5 L5732.7,-5301.9 L5688.0,-5277.3 L5660.6,-5262.4 L5661.6,-5260.7 L5649.9,-5254.0 L5611.6,-5234.2 L5583.2,-5217.4 L5566.5,-5208.1 L5541.1,-5193.5 L5538.2,-5191.5 L5515.9,-5231.6 L5559.7,-5255.6 L5619.5,-5288.1 L5660.2,-5310.7 L5665.2,-5313.6 L5664.5,-5314.7 L5699.7,-5333.9 L5718.4,-5344.2 L5761.3,-5365.1 L5769.5,-5369.3 L5834.2,-5405.3 L5858.5,-5418.7 L5875.6,-5427.9 L5895.8,-5439.5 L5923.8,-5388.9 L5879.8,-5364.8 L5877.5,-5361.1 L5876.6,-5357.2 L5876.2,-5354.2 L5876.1,-5351.6 L5876.3,-5349.5 L5877.1,-5346.6 L5966.8,-5180.7 L5968.5,-5178.2 L5970.5,-5176.3 L5972.5,-5175.0 L5974.6,-5174.3 L5976.9,-5174.0 L5979.1,-5174.2 L5980.8,-5174.7 L6020.6,-5204.9 L6039.3,-5220.6 L6058.6,-5236.9 L6065.9,-5243.6 L6089.8,-5263.2 L6090.9,-5263.2 L6114.1,-5283.0 L6114.2,-5284.2 L6129.4,-5296.7 L6141.4,-5306.5 L6162.0,-5323.5 L6163.9,-5321.2 L6184.1,-5337.9 L6194.3,-5346.4 L6222.6,-5369.9 L6242.3,-5386.3 L6240.4,-5389.1 L6246.9,-5394.6 L6257.6,-5403.4 L6264.2,-5409.2 L6292.1,-5421.7 L6311.0,-5428.3 L6320.7,-5432.9 L6347.9,-5433.1 L6357.4,-5433.1 L6377.5,-5432.1 L6401.0,-5431.1 L6402.7,-5432.7 L6405.0,-5429.7 L6412.4,-5429.3 L6479.7,-5423.5 L6487.6,-5421.8 L6494.5,-5420.7 L6510.1,-5419.4 L6539.2,-5418.0 L6545.6,-5417.9 L6551.6,-5418.1 L6574.9,-5419.0 L6586.9,-5419.6 L6598.8,-5420.7 L6617.1,-5422.6 L6617.0,-5421.5 L6631.5,-5424.0 L6645.2,-5426.6 L6655.7,-5428.5 L6669.5,-5438.9 L6671.1,-5436.7 L6672.8,-5434.3 L6794.4,-5273.5 L7087.9,-5172.3 L7626.5,-5567.9 L7773.3,-5673.6 L7830.0,-5794.6 L7739.8,-5912.8 L7743.8,-5929.7 L7759.6,-5934.0 L7790.0,-5927.7 L7811.6,-5935.8 L7817.6,-5944.2 L7816.3,-5951.5 L7800.2,-5983.1 L7799.1,-5994.9 L7798.2,-6018.3 L7795.4,-6040.9 L7798.2,-6044.9 L7807.3,-6049.3 L7818.4,-6051.8 L7826.4,-6060.4 L7828.2,-6070.8 L7821.4,-6090.9 L7820.7,-6104.8 L7822.9,-6120.6 L7833.9,-6148.3 L7831.6,-6161.1 L7826.1,-6175.4 L7825.9,-6194.8 L7822.7,-6220.4 L7816.9,-6236.4 L7813.3,-6244.8 L7815.7,-6248.5 L7818.0,-6248.3 L7818.6,-6249.8 L7818.9,-6251.8 L7818.8,-6253.8 L7815.3,-6254.2 L7813.1,-6257.3 L7813.5,-6261.0 L7810.5,-6261.8 L7806.8,-6261.9 L7806.3,-6261.0 L7798.7,-6270.0 L7797.1,-6272.8 L7795.8,-6276.7 L7794.9,-6280.5 L7794.2,-6284.5 L7793.9,-6288.5 L7793.7,-6292.1 L7793.7,-6295.8 L7794.0,-6297.8 L7795.6,-6302.8 L7797.4,-6306.8 L7799.7,-6310.7 L7803.1,-6315.6 L7806.6,-6320.3 L7809.9,-6323.7 L7814.0,-6326.8 L7814.8,-6326.0 L7849.9,-6352.8 L7855.0,-6356.7 L7854.0,-6358.2 L7854.0,-6360.8 L7862.7,-6367.6 L7864.9,-6367.5 L7867.0,-6366.0 L7870.7,-6368.8 L7906.7,-6396.1 L7906.3,-6397.0 L7910.5,-6400.1 L7915.5,-6403.2 L7919.0,-6404.8 L7924.0,-6406.7 L7928.3,-6407.9 L7932.6,-6408.5 L7937.3,-6408.9 L7940.1,-6408.7 L7944.0,-6408.1 L7947.8,-6406.8 L7950.6,-6405.4 L7953.3,-6403.8 L7955.3,-6402.3 L7957.0,-6400.7 L7959.5,-6398.3 L7960.6,-6397.9 L7962.4,-6397.9 L7964.2,-6398.2 L7969.7,-6402.1 L7969.7,-6403.2 L7970.3,-6404.0 L7970.9,-6405.1 L7970.8,-6406.4 L7970.5,-6407.5 L7969.7,-6408.5 L7965.8,-6412.4 L7962.7,-6414.9 L7959.1,-6416.9 L7953.2,-6419.5 L7948.1,-6421.5 L7957.0,-6426.1 L7967.9,-6433.7 L7981.4,-6435.4 L7994.9,-6434.5 L8003.7,-6438.0 L8011.4,-6449.0 L8040.4,-6500.9 L8052.2,-6522.3 L8061.5,-6545.1 L8063.1,-6549.9 L8076.9,-6592.2 L8079.1,-6596.3 L8081.7,-6600.4 L8114.1,-6640.5 L8121.0,-6647.7 L8126.1,-6652.1 L8198.7,-6714.3 L8202.7,-6717.0 L8215.1,-6723.8 L8230.0,-6732.2 L8276.4,-6756.5 L8377.5,-6810.8 L8379.9,-6808.9 L8381.8,-6808.2 L8383.5,-6807.7 L8385.3,-6808.0 L8387.2,-6808.4 L8392.6,-6809.5 L8398.9,-6810.9 L8404.6,-6812.2 L8410.5,-6813.3 L8413.7,-6814.0 L8418.1,-6815.3 L8423.1,-6817.4 L8435.2,-6824.0 L8439.6,-6826.4 L8441.9,-6827.8 L8444.2,-6828.8 L8453.6,-6832.8 L8463.9,-6836.8 L8476.9,-6842.4 L8492.2,-6848.7 L8492.8,-6849.0 L8494.1,-6849.1 L8495.8,-6849.6 L8498.2,-6851.4 L8500.9,-6852.4 L8503.9,-6853.9 L8509.5,-6857.1 L8511.5,-6859.1 L8514.8,-6861.2 L8514.5,-6861.8 L8515.9,-6863.5 L8517.7,-6865.4 L8520.7,-6866.9 L8523.2,-6867.9 L8525.9,-6868.9 L8528.4,-6870.2 L8533.3,-6873.3 L8534.7,-6874.7 L8536.1,-6876.9 L8536.7,-6878.5 L8536.9,-6880.1 L8536.7,-6881.6 L8537.0,-6883.1 L8523.0,-6900.0 L8567.1,-6925.9 L8588.0,-6937.0 L8592.1,-6938.3 L8598.5,-6937.1 L8605.6,-6927.2 L8608.8,-6924.4 L8611.7,-6923.0 L8614.4,-6922.4 L8616.9,-6922.5 L8654.7,-6938.1 L8665.0,-6943.1 L8674.6,-6948.4 L8690.1,-6956.6 L8693.3,-6957.7 L8908.1,-7047.0 L8975.3,-7079.3 L9275.8,-7223.6 L16288.9,-7281.6 L16288.9,2754.0 L1301.2,2754.0 L1301.2,2327.5 Z" fill="#add7e1" stroke="none"><title>Biscayne Bay</title></path><path d="M36.5,160.1 L45.8,168.6 L48.0,165.9 L51.0,168.9 L51.1,173.1 L48.0,175.2 L57.2,175.0 L62.6,180.4 L64.8,187.3 L65.1,191.8 L58.2,199.2 L48.6,199.4 L41.2,192.8 L40.7,186.3 L34.0,186.0 L28.8,180.9 L23.7,186.2 L13.3,176.1 L21.9,167.1 L25.8,171.0 L36.5,160.1 Z" fill="#d6d2c9" stroke="#bab6ad" stroke-width="0.4"></path><path d="M153.1,23.8 L152.1,27.8 L133.2,23.0 L134.8,15.4 L154.1,19.9 L153.1,23.8 Z" fill="#d6d2c9" stroke="#bab6ad" stroke-width="0.4"></path><path d="M108.7,12.4 L108.0,25.8 L107.2,39.1 L97.9,38.5 L97.1,51.5 L75.9,50.1 L75.9,49.0 L69.5,48.6 L69.2,52.9 L44.1,50.8 L45.3,35.2 L86.5,36.6 L87.3,15.3 L95.6,15.6 L95.8,11.9 L108.7,12.4 Z" fill="#d6d2c9" stroke="#bab6ad" stroke-width="0.4"></path><path d="M4.1,114.0 L-25.7,115.4 L-26.0,110.5 L-26.3,105.7 L-12.5,104.7 L-12.8,97.2 L3.4,96.7 L4.1,114.0 Z" fill="#d6d2c9" stroke="#bab6ad" stroke-width="0.4"></path><path d="M159.6,225.7 L159.5,255.5 L157.1,255.5 L157.1,257.7 L148.7,257.7 L148.7,255.9 L146.8,255.9 L146.8,254.6 L140.8,254.5 L140.7,255.8 L122.2,254.7 L122.5,225.9 L133.3,226.0 L133.2,229.3 L145.6,229.4 L145.7,225.7 L159.6,225.7 Z" fill="#d6d2c9" stroke="#bab6ad" stroke-width="0.4"></path><path d="M246.4,106.7 L237.0,117.1 L227.5,108.6 L237.4,97.6 L229.5,90.7 L246.8,70.4 L261.8,82.9 L256.8,88.9 L258.6,90.5 L245.3,105.8 L246.4,106.7 Z" fill="#d6d2c9" stroke="#bab6ad" stroke-width="0.4"></path><path d="M37.4,218.6 L37.7,231.9 L41.1,231.8 L41.5,241.0 L57.3,240.2 L57.6,256.3 L23.5,256.7 L23.2,231.2 L7.5,231.3 L7.3,218.9 L37.4,218.6 Z" fill="#d6d2c9" stroke="#bab6ad" stroke-width="0.4"></path><path d="M288.7,213.7 L289.0,223.8 L299.6,223.5 L300.3,246.8 L289.3,247.1 L289.5,253.8 L274.0,254.2 L273.8,247.5 L265.1,247.8 L265.4,255.2 L253.2,255.6 L252.9,246.2 L253.9,246.2 L253.8,240.0 L252.5,239.0 L252.3,232.6 L253.6,231.5 L253.1,214.6 L265.3,214.3 L265.6,223.0 L273.1,222.8 L272.8,214.2 L288.7,213.7 Z" fill="#d6d2c9" stroke="#bab6ad" stroke-width="0.4"></path><path d="M171.5,225.3 L211.9,226.2 L212.1,216.7 L236.9,217.3 L236.1,254.5 L170.9,253.0 L171.5,225.3 Z" fill="#d6d2c9" stroke="#bab6ad" stroke-width="0.4"></path><path d="M207.8,152.7 L234.3,131.3 L268.2,173.1 L241.7,194.5 L207.8,152.7 Z" fill="#d6d2c9" stroke="#bab6ad" stroke-width="0.4"></path><path d="M121.3,101.1 L148.7,101.9 L148.3,117.4 L154.1,117.6 L152.9,159.5 L119.7,158.6 L121.3,101.1 Z" fill="#d6d2c9" stroke="#bab6ad" stroke-width="0.4"></path><path d="M-53.8,-9.5 L-45.8,-5.5 L-40.3,-2.6 L-36.2,-1.0 L-29.8,-1.0 L-19.8,-2.3 L-13.2,-2.9 L-6.0,-2.3 L2.3,-1.0 L8.9,1.5 L15.4,5.6 L25.6,13.6 L30.2,19.3 L32.9,24.8 L33.1,32.3 L31.9,38.5 L29.7,42.3 L25.6,45.0 L19.6,46.1 L14.2,45.1 L11.5,42.9 L10.3,38.4 L9.6,32.5 L9.8,27.1 L11.7,21.3 L14.1,17.5 L25.6,13.6" fill="none" stroke="#cec8bb" stroke-width="3.5" stroke-linecap="round" stroke-linejoin="round"/><path d="M-53.8,-9.5 L-45.8,-5.5 L-40.3,-2.6 L-36.2,-1.0 L-29.8,-1.0 L-19.8,-2.3 L-13.2,-2.9 L-6.0,-2.3 L2.3,-1.0 L8.9,1.5 L15.4,5.6 L25.6,13.6 L30.2,19.3 L32.9,24.8 L33.1,32.3 L31.9,38.5 L29.7,42.3 L25.6,45.0 L19.6,46.1 L14.2,45.1 L11.5,42.9 L10.3,38.4 L9.6,32.5 L9.8,27.1 L11.7,21.3 L14.1,17.5 L25.6,13.6" fill="none" stroke="#ffffff" stroke-width="2.5" stroke-linecap="round" stroke-linejoin="round"></path><path d="M258.5,-40.7 L253.2,-19.7 L251.2,-9.3 L246.8,1.7 L239.0,19.0" fill="none" stroke="#cec8bb" stroke-width="4.8" stroke-linecap="round" stroke-linejoin="round"/><path d="M258.5,-40.7 L253.2,-19.7 L251.2,-9.3 L246.8,1.7 L239.0,19.0" fill="none" stroke="#ffffff" stroke-width="3.7" stroke-linecap="round" stroke-linejoin="round"><title>Park Court</title></path><path d="M345.4,37.8 L298.2,39.1 L290.5,38.8 L283.2,37.4 L275.9,35.0 L265.3,30.9 L249.8,24.4 L239.0,19.0" fill="none" stroke="#cec8bb" stroke-width="4.8" stroke-linecap="round" stroke-linejoin="round"/><path d="M345.4,37.8 L298.2,39.1 L290.5,38.8 L283.2,37.4 L275.9,35.0 L265.3,30.9 L249.8,24.4 L239.0,19.0" fill="none" stroke="#ffffff" stroke-width="3.7" stroke-linecap="round" stroke-linejoin="round"><title>South Bayhomes Drive</title></path><path d="M239.0,19.0 L213.5,5.3 L188.2,-9.1 L68.2,-80.7" fill="none" stroke="#cec8bb" stroke-width="4.8" stroke-linecap="round" stroke-linejoin="round"/><path d="M239.0,19.0 L213.5,5.3 L188.2,-9.1 L68.2,-80.7" fill="none" stroke="#ffffff" stroke-width="3.7" stroke-linecap="round" stroke-linejoin="round"><title>Park Lane</title></path><path d="M59.5,136.1 L-70.3,141.7" fill="none" stroke="#cec8bb" stroke-width="4.8" stroke-linecap="round" stroke-linejoin="round"/><path d="M59.5,136.1 L-70.3,141.7" fill="none" stroke="#ffffff" stroke-width="3.7" stroke-linecap="round" stroke-linejoin="round"><title>Klebba Lane</title></path><path d="M87.4,131.5 L85.5,127.3 L82.4,123.8 L78.3,121.6 L73.7,120.8 L69.1,121.5 L64.9,123.7 L61.8,127.2 L59.9,131.4 L59.5,136.1 L60.6,140.6 L63.1,144.6 L66.8,147.4 L71.2,149.0 L75.9,149.0 L80.3,147.5 L84.0,144.6 L86.6,140.7 L87.8,136.2 L87.4,131.5" fill="none" stroke="#cec8bb" stroke-width="4.8" stroke-linecap="round" stroke-linejoin="round"/><path d="M87.4,131.5 L85.5,127.3 L82.4,123.8 L78.3,121.6 L73.7,120.8 L69.1,121.5 L64.9,123.7 L61.8,127.2 L59.9,131.4 L59.5,136.1 L60.6,140.6 L63.1,144.6 L66.8,147.4 L71.2,149.0 L75.9,149.0 L80.3,147.5 L84.0,144.6 L86.6,140.7 L87.8,136.2 L87.4,131.5" fill="none" stroke="#ffffff" stroke-width="3.7" stroke-linecap="round" stroke-linejoin="round"><title>Klebba Lane</title></path><text x="43.3" y="179.6" text-anchor="middle" font-family="Arial, sans-serif" font-size="6.5" textLength="18.0" lengthAdjust="spacing" font-weight="500" paint-order="stroke" stroke="#f3f5ee" stroke-width="1.55" stroke-linejoin="round" fill="#6f777a">3666</text><text x="144.3" y="245.0" text-anchor="middle" font-family="Arial, sans-serif" font-size="6.5" textLength="18.0" lengthAdjust="spacing" font-weight="500" paint-order="stroke" stroke="#f3f5ee" stroke-width="1.55" stroke-linejoin="round" fill="#6f777a">3661</text><text x="241.0" y="95.9" text-anchor="middle" font-family="Arial, sans-serif" font-size="6.5" textLength="18.0" lengthAdjust="spacing" font-weight="500" paint-order="stroke" stroke="#f3f5ee" stroke-width="1.55" stroke-linejoin="round" fill="#6f777a">3625</text><text x="33.4" y="235.8" text-anchor="middle" font-family="Arial, sans-serif" font-size="6.5" textLength="18.0" lengthAdjust="spacing" font-weight="500" paint-order="stroke" stroke="#f3f5ee" stroke-width="1.55" stroke-linejoin="round" fill="#6f777a">3671</text><text x="41.5" y="23.0" text-anchor="middle" font-family="Arial, sans-serif" font-size="6.5" textLength="18.0" lengthAdjust="spacing" font-weight="500" paint-order="stroke" stroke="#f3f5ee" stroke-width="1.55" stroke-linejoin="round" fill="#6f777a">4197</text><text x="200.7" y="232.8" text-anchor="middle" font-family="Arial, sans-serif" font-size="6.5" textLength="18.0" lengthAdjust="spacing" font-weight="500" paint-order="stroke" stroke="#f3f5ee" stroke-width="1.55" stroke-linejoin="round" fill="#6f777a">3647</text><text x="238.0" y="158.8" text-anchor="middle" font-family="Arial, sans-serif" font-size="6.5" textLength="18.0" lengthAdjust="spacing" font-weight="500" paint-order="stroke" stroke="#f3f5ee" stroke-width="1.55" stroke-linejoin="round" fill="#6f777a">3650</text><text x="141.3" y="118.5" text-anchor="middle" font-family="Arial, sans-serif" font-size="6.5" textLength="18.0" lengthAdjust="spacing" font-weight="500" paint-order="stroke" stroke="#f3f5ee" stroke-width="1.55" stroke-linejoin="round" fill="#6f777a">3650</text></svg>