<svg xmlns="http://www.w3.org/2000/svg" width="256" height="256" viewBox="0 0 256 256"><rect width="256" height="256" fill="#f1efe7"/><path d="M-58.7,453.9 L-194.8,353.5 L-205.6,345.4 L-217.4,342.9 L-225.8,335.9 L-232.4,335.1 L-253.9,336.5 L-253.9,334.5 L-255.1,332.6 L-257.5,331.1 L-304.2,310.9 L-307.4,309.5 L-310.1,308.6 L-313.6,308.4 L-317.0,308.3 L-328.7,308.3 L-331.7,308.1 L-334.8,307.5 L-338.0,306.3 L-341.8,305.3 L-344.6,305.0 L-352.8,304.7 L-355.6,304.1 L-359.1,303.0 L-362.5,302.2 L-365.8,301.4 L-368.4,300.3 L-371.6,298.4 L-374.4,296.3 L-377.1,294.2 L-379.3,293.2 L-381.0,292.8 L-382.5,292.9 L-384.2,293.4 L-386.1,294.4 L-387.6,296.0 L-389.6,298.0 L-391.8,300.1 L-394.4,301.4 L-397.6,302.5 L-400.3,303.1 L-403.5,303.7 L-408.9,304.3 L-422.5,304.9 L-434.0,305.5 L-438.9,307.3 L-449.1,307.6 L-450.4,305.5 L-452.0,304.5 L-453.5,304.2 L-464.5,304.9 L-469.3,306.5 L-475.1,306.6 L-479.0,306.0 L-482.2,305.0 L-494.0,305.7 L-525.1,308.2 L-532.3,308.4 L-534.8,308.3 L-537.0,307.8 L-539.5,306.5 L-541.4,305.0 L-549.5,305.0 L-556.3,304.9 L-558.1,306.0 L-567.4,306.3 L-568.6,308.3 L-570.0,308.3 L-572.3,307.7 L-576.4,307.2 L-580.6,307.5 L-581.9,307.9 L-583.2,307.7 L-584.1,306.8 L-585.7,305.9 L-591.4,305.9 L-597.1,306.2 L-602.5,309.4 L-605.2,310.7 L-608.2,311.4 L-610.7,311.5 L-613.0,311.2 L-618.3,309.0 L-621.3,308.0 L-623.8,307.6 L-635.0,307.8 L-635.7,306.4 L-645.6,306.6 L-652.4,307.9 L-656.8,308.4 L-659.3,309.0 L-660.2,308.3 L-661.9,308.1 L-677.8,306.7 L-679.2,307.4 L-680.9,307.7 L-683.0,307.8 L-683.0,307.0 L-692.9,305.1 L-699.1,303.9 L-714.2,298.9 L-715.0,300.0 L-725.1,296.9 L-727.2,296.2 L-726.1,292.7 L-727.3,292.3 L-727.6,291.9 L-728.3,291.7 L-729.1,291.6 L-730.2,291.1 L-729.9,290.7 L-734.3,287.1 L-741.7,280.4 L-745.7,276.9 L-748.5,273.9 L-750.1,271.8 L-752.4,268.6 L-753.8,266.1 L-758.0,260.8 L-758.4,260.5 L-758.7,260.5 L-759.0,260.5 L-759.5,260.6 L-760.0,260.3 L-761.1,259.6 L-763.2,258.5 L-764.3,257.6 L-765.5,256.6 L-767.2,255.6 L-769.8,254.8 L-772.6,254.3 L-775.0,254.3 L-774.3,248.0 L-773.7,239.7 L-771.1,240.0 L-768.6,240.4 L-765.2,241.5 L-762.7,242.4 L-760.5,243.4 L-758.4,244.4 L-756.3,245.6 L-754.7,246.8 L-752.5,248.5 L-750.2,250.2 L-749.7,250.6 L-749.2,250.7 L-742.9,250.4 L-742.8,251.8 L-743.2,252.4 L-747.9,252.9 L-746.7,255.3 L-745.9,255.1 L-745.1,255.8 L-744.6,256.5 L-744.3,257.1 L-743.3,258.4 L-742.9,259.8 L-741.4,261.9 L-737.8,264.2 L-733.3,266.5 L-727.9,269.8 L-725.5,271.0 L-720.4,273.9 L-717.9,275.2 L-713.5,276.8 L-704.8,279.1 L-699.7,280.3 L-695.0,280.8 L-692.6,281.1 L-692.0,281.1 L-691.8,280.8 L-691.7,279.1 L-685.9,279.1 L-685.8,281.0 L-673.7,281.6 L-661.9,281.9 L-653.9,281.6 L-651.3,281.4 L-649.3,281.2 L-647.8,280.7 L-646.3,279.9 L-645.6,278.7 L-645.8,259.3 L-641.0,259.0 L-640.6,277.9 L-640.3,278.4 L-639.3,279.1 L-638.2,279.4 L-612.3,279.5 L-612.5,271.1 L-610.4,271.1 L-609.6,279.5 L-593.6,279.3 L-593.6,278.4 L-592.0,278.4 L-592.0,279.1 L-485.6,277.0 L-477.9,276.1 L-468.5,275.8 L-459.6,277.0 L-456.7,276.8 L-454.5,276.4 L-452.4,275.6 L-449.8,274.6 L-396.4,273.7 L-396.4,270.0 L-366.4,269.4 L-366.4,273.5 L-353.7,274.0 L-352.8,274.0 L-351.9,273.9 L-350.7,273.7 L-349.7,273.5 L-348.8,273.2 L-347.2,272.4 L-346.5,273.7 L-344.9,272.7 L-343.5,271.6 L-342.3,270.3 L-341.3,268.8 L-340.3,267.0 L-342.1,266.0 L-341.6,264.4 L-341.3,262.9 L-341.1,261.4 L-341.1,260.2 L-341.2,259.1 L-341.3,249.6 L-342.8,248.2 L-341.5,246.9 L-342.9,245.7 L-341.4,243.9 L-343.0,242.5 L-341.7,241.1 L-343.0,239.9 L-341.5,238.3 L-343.1,236.6 L-339.8,233.1 L-339.2,233.0 L-340.6,179.4 L-328.6,179.1 L-328.0,179.4 L-327.4,179.9 L-326.9,180.3 L-326.7,180.8 L-326.5,181.5 L-326.5,182.0 L-325.4,265.4 L-325.0,268.1 L-324.3,269.9 L-323.2,272.1 L-322.0,274.4 L-320.8,276.1 L-319.7,277.2 L-318.6,278.0 L-317.3,278.8 L-316.0,279.3 L-314.2,279.8 L-312.0,280.2 L-309.3,280.7 L-306.2,281.3 L-303.2,281.9 L-299.8,282.6 L-296.7,283.2 L-295.7,283.4 L-294.4,283.7 L-293.3,283.8 L-292.2,283.9 L-291.0,283.9 L-290.1,283.8 L-289.2,283.6 L-288.3,283.4 L-287.5,283.2 L-286.8,282.8 L-285.3,282.1 L-284.1,281.4 L-282.8,280.5 L-281.3,279.1 L-279.9,277.5 L-279.2,276.2 L-278.5,274.5 L-278.2,273.2 L-278.0,271.8 L-277.8,270.4 L-277.8,269.2 L-279.7,179.9 L-277.0,177.2 L-276.1,177.1 L-275.7,176.8 L-270.3,176.6 L-269.8,175.8 L-269.0,176.1 L-267.6,177.3 L-266.7,178.7 L-265.7,180.3 L-263.9,280.1 L-263.8,281.9 L-263.4,285.3 L-263.1,286.0 L-263.3,286.2 L-262.9,287.2 L-262.3,288.3 L-261.8,289.1 L-261.2,289.9 L-260.4,290.9 L-259.4,291.9 L-258.3,292.9 L-257.2,293.7 L-256.1,294.3 L-255.0,294.8 L-253.8,295.2 L-253.6,294.8 L-237.1,300.9 L-235.0,301.6 L-234.0,302.0 L-232.6,302.5 L-231.5,302.8 L-230.6,302.9 L-229.7,302.9 L-228.5,302.8 L-227.2,302.7 L-226.1,302.4 L-224.9,302.1 L-224.0,301.7 L-223.1,301.3 L-222.4,300.8 L-221.4,300.1 L-220.2,299.1 L-219.1,298.0 L-217.9,296.5 L-217.1,295.1 L-216.4,293.5 L-215.8,291.8 L-215.5,290.1 L-215.4,287.0 L-215.5,280.6 L-217.3,179.0 L-217.3,177.9 L-217.1,177.1 L-216.7,176.5 L-216.0,175.9 L-215.2,175.4 L-214.2,175.3 L-206.7,175.1 L-205.8,175.2 L-205.0,175.5 L-204.5,176.1 L-203.8,177.0 L-203.4,178.4 L-203.2,180.2 L-201.3,310.5 L-201.2,311.2 L-201.1,312.0 L-200.9,312.8 L-200.6,313.7 L-200.3,314.6 L-199.9,315.3 L-199.6,316.0 L-199.3,316.6 L-198.8,317.4 L-198.3,318.0 L-197.8,318.6 L-197.1,319.4 L-196.4,320.1 L-195.6,320.7 L-194.8,321.3 L-192.5,322.8 L-192.3,322.5 L-190.2,323.6 L-187.8,324.9 L-186.5,325.7 L-184.9,326.6 L-183.4,327.5 L-181.7,328.5 L-179.9,329.6 L-178.1,330.7 L-176.3,331.8 L-174.8,332.8 L-173.2,333.8 L-171.4,335.0 L-169.7,336.1 L-168.1,337.2 L-168.3,337.4 L-166.1,338.9 L-163.8,340.5 L-163.1,340.9 L-162.3,341.3 L-161.2,341.8 L-160.2,342.2 L-159.1,342.5 L-158.1,342.7 L-157.0,342.9 L-155.7,343.1 L-154.6,343.1 L-153.7,343.0 L-152.9,342.8 L-151.9,342.6 L-150.8,342.2 L-149.9,341.9 L-149.0,341.5 L-148.1,341.0 L-147.2,340.5 L-146.3,339.8 L-145.5,339.0 L-144.7,338.2 L-144.0,337.4 L-143.3,336.4 L-142.6,335.3 L-142.1,334.0 L-141.7,333.1 L-141.4,332.1 L-141.2,331.0 L-141.1,329.9 L-141.2,328.7 L-156.0,186.8 L-155.0,186.7 L-155.8,179.6 L-156.6,179.6 L-157.2,176.4 L-157.0,175.7 L-156.4,174.7 L-155.1,173.7 L-153.4,173.5 L-146.7,173.3 L-145.5,173.5 L-144.8,173.9 L-144.0,174.5 L-143.4,175.1 L-143.0,175.7 L-126.7,335.0 L-126.4,336.4 L-125.7,338.0 L-125.1,339.2 L-124.4,340.3 L-123.5,341.5 L-122.8,342.3 L-122.1,343.1 L-121.2,343.7 L-120.5,344.3 L-119.4,345.0 L-118.5,345.4 L-117.3,345.9 L-116.1,346.3 L-114.8,346.6 L-113.8,346.7 L-112.9,346.8 L-111.9,346.8 L-76.6,346.0 L-75.5,345.9 L-74.4,345.4 L-73.6,344.6 L-73.0,343.5 L-72.8,342.6 L-72.9,341.5 L-90.8,171.0 L-106.5,150.5 L-107.2,151.0 L-120.9,131.9 L-121.2,127.9 L-121.6,127.0 L-122.3,126.3 L-123.2,124.9 L-123.3,123.0 L-124.9,122.4 L-126.5,122.4 L-128.6,123.4 L-126.2,127.9 L-129.2,129.4 L-131.5,127.3 L-133.5,126.1 L-134.8,125.7 L-138.1,125.5 L-139.7,122.2 L-129.3,117.9 L-129.8,117.1 L-132.0,114.1 L-132.4,114.3 L-209.6,13.2 L-210.8,-3.5 L-210.1,-3.7 L-213.1,-34.2 L-214.3,-37.1 L-215.5,-40.2 L-216.5,-42.7 L-217.6,-45.8 L-221.4,-56.3 L-222.9,-55.6 L-225.1,-64.2 L-224.8,-64.3 L-232.5,-85.3 L-233.4,-122.2 L-232.5,-122.2 L-232.4,-125.4 L-231.9,-128.6 L-231.7,-129.8 L-232.1,-130.7 L-231.0,-135.7 L-221.4,-152.7 L-226.5,-155.7 L-222.7,-161.9 L-217.9,-159.0 L-217.4,-159.7 L-215.9,-158.9 L-214.3,-158.3 L-212.4,-157.7 L-211.0,-157.4 L-209.6,-157.3 L-208.0,-157.6 L-206.4,-158.1 L-204.9,-158.7 L-204.1,-159.5 L-203.9,-160.5 L-203.5,-161.7 L-203.4,-162.2 L-203.5,-162.9 L-203.8,-163.8 L-204.5,-164.8 L-205.2,-165.3 L-206.3,-166.3 L-207.2,-167.3 L-208.6,-168.2 L-209.2,-169.7 L-209.9,-171.1 L-211.0,-172.8 L-212.2,-174.2 L-214.5,-175.8 L-225.3,-181.5 L-231.8,-184.7 L-237.8,-187.9 L-243.6,-191.1 L-247.2,-193.5 L-248.7,-193.9 L-250.2,-193.4 L-251.1,-192.3 L-252.9,-187.9 L-263.9,-192.8 L-257.3,-203.3 L-255.9,-203.9 L-254.1,-204.3 L-252.0,-203.9 L-210.6,-179.6 L-208.4,-179.0 L-206.0,-178.4 L-202.7,-178.3 L-199.3,-178.9 L-197.1,-179.8 L-194.8,-181.7 L-193.4,-183.0 L-191.9,-185.1 L-192.0,-185.3 L-192.1,-185.6 L-192.3,-185.8 L-205.7,-194.1 L-206.0,-194.2 L-206.4,-194.2 L-206.7,-194.2 L-208.0,-193.6 L-208.5,-193.6 L-209.0,-193.6 L-209.8,-193.7 L-210.4,-193.9 L-211.2,-194.3 L-212.0,-194.8 L-230.5,-206.1 L-239.2,-212.2 L-240.0,-212.3 L-240.8,-212.3 L-241.8,-212.2 L-242.4,-212.4 L-243.0,-212.6 L-243.6,-213.1 L-244.4,-213.7 L-244.9,-214.4 L-245.2,-215.1 L-245.2,-215.6 L-245.1,-216.3 L-245.0,-216.9 L-242.1,-221.8 L-242.1,-222.0 L-242.3,-222.2 L-245.0,-224.1 L-245.5,-224.9 L-245.2,-225.3 L-244.3,-225.2 L-243.4,-224.9 L-237.8,-221.5 L-206.4,-201.5 L-205.7,-201.1 L-205.3,-200.6 L-205.0,-200.1 L-204.6,-198.9 L-204.4,-198.0 L-204.3,-197.2 L-190.1,-188.7 L-189.6,-188.5 L-189.0,-188.4 L-188.3,-188.5 L-187.8,-188.7 L-187.4,-188.9 L-172.1,-213.6 L-165.7,-223.0 L-159.7,-229.7 L-156.7,-228.1 L-154.7,-231.2 L-165.1,-237.4 L-162.9,-241.0 L-152.6,-234.8 L-150.2,-238.6 L-152.1,-240.7 L-150.2,-242.9 L-148.2,-240.5 L-147.6,-240.9 L-147.1,-241.3 L-146.3,-241.7 L-145.4,-242.1 L-144.4,-242.5 L-143.4,-242.8 L-142.4,-242.9 L-141.3,-243.0 L-140.4,-243.0 L-139.4,-242.8 L-138.5,-242.6 L-137.7,-242.4 L-137.0,-242.1 L-136.1,-241.6 L-135.2,-241.1 L-134.4,-240.6 L-133.7,-239.9 L-133.0,-239.3 L-132.3,-238.3 L-131.7,-237.4 L-131.2,-236.3 L-130.9,-235.1 L-130.5,-233.6 L-130.5,-232.3 L-130.5,-231.5 L-130.6,-230.7 L-130.8,-229.5 L-131.5,-227.8 L-132.0,-226.8 L-132.6,-225.5 L-130.0,-224.2 L-117.9,-238.7 L-140.0,-252.1 L-138.9,-254.5 L-138.1,-256.8 L-138.0,-257.7 L-136.7,-260.4 L-134.1,-262.9 L-130.9,-265.5 L-127.0,-268.0 L-119.7,-270.1 L-107.2,-271.4 L-102.2,-275.4 L-101.2,-275.5 L-100.4,-275.6 L-99.2,-275.1 L-98.1,-275.0 L-91.1,-270.8 L-72.8,-292.5 L-140.1,-335.3 L-144.2,-328.7 L-153.3,-334.5 L-140.4,-354.7 L-131.4,-349.1 L-135.4,-342.2 L-67.0,-299.1 L-58.3,-310.2 L-52.3,-317.4 L-44.2,-329.5 L-39.7,-335.6 L-40.2,-339.1 L-40.1,-339.2 L-40.9,-341.8 L-41.4,-343.4 L-41.9,-345.0 L-42.5,-346.5 L-43.7,-348.3 L-44.8,-350.1 L-45.3,-351.1 L-45.7,-352.0 L-46.0,-352.9 L-46.0,-353.7 L-46.2,-356.3 L-75.7,-383.4 L-76.7,-382.3 L-77.5,-383.0 L-79.9,-380.7 L-81.5,-382.8 L-79.6,-384.9 L-81.5,-387.4 L-82.8,-387.0 L-84.2,-387.0 L-85.4,-387.2 L-86.5,-387.6 L-87.7,-388.6 L-89.2,-390.1 L-92.0,-393.1 L-92.8,-394.4 L-93.1,-396.0 L-92.9,-397.9 L-92.2,-399.6 L-91.5,-400.8 L-90.3,-402.0 L-89.0,-402.9 L-87.7,-403.4 L-86.8,-403.5 L-85.6,-403.3 L-84.3,-402.9 L-83.1,-401.9 L-80.3,-399.4 L-78.9,-398.1 L-77.6,-396.6 L-77.1,-396.0 L-76.9,-395.3 L-76.7,-394.6 L-76.6,-393.7 L-76.7,-392.9 L-77.0,-392.1 L-77.3,-391.5 L-77.4,-391.2 L-77.3,-390.8 L-77.1,-390.5 L-45.4,-360.7 L-44.3,-360.0 L-43.5,-359.7 L-42.4,-359.9 L-41.1,-360.0 L-39.5,-359.3 L-37.8,-358.3 L-34.6,-356.5 L-33.2,-355.8 L-32.0,-357.0 L-30.7,-358.3 L-29.8,-359.3 L-28.3,-361.3 L-27.4,-362.5 L-26.5,-363.9 L-25.9,-365.2 L-25.3,-366.5 L-24.8,-368.0 L-24.2,-369.4 L-23.9,-370.7 L-23.6,-372.2 L-23.4,-373.1 L-23.3,-373.9 L-23.2,-375.2 L-23.0,-376.5 L-22.9,-377.4 L-22.8,-378.3 L-22.9,-379.4 L-22.9,-380.3 L-23.1,-381.5 L-23.3,-382.9 L-23.5,-384.2 L-23.6,-385.3 L-23.7,-386.1 L-23.9,-387.0 L-24.1,-387.8 L-24.4,-388.8 L-24.8,-389.8 L-25.0,-390.4 L-25.4,-391.0 L-25.8,-391.6 L-26.4,-392.4 L-27.0,-393.2 L-27.7,-393.9 L-28.5,-394.5 L-29.4,-395.1 L-30.2,-395.6 L-31.0,-395.9 L-31.6,-396.1 L-32.2,-396.1 L-33.0,-396.1 L-33.7,-395.9 L-34.2,-395.7 L-34.7,-395.4 L-35.1,-395.0 L-35.4,-394.6 L-35.7,-394.0 L-35.8,-393.4 L-35.8,-392.6 L-35.7,-391.8 L-35.7,-391.1 L-35.8,-390.4 L-35.9,-389.8 L-36.0,-389.2 L-36.2,-388.6 L-36.6,-388.0 L-37.0,-387.3 L-37.4,-386.8 L-37.8,-386.4 L-38.7,-385.7 L-39.4,-385.2 L-40.5,-384.9 L-41.1,-384.7 L-41.9,-384.6 L-42.5,-384.6 L-43.5,-384.7 L-44.1,-384.8 L-45.0,-385.0 L-46.2,-385.4 L-47.3,-385.8 L-48.1,-386.1 L-48.9,-386.5 L-49.6,-387.0 L-50.4,-387.7 L-51.0,-388.2 L-51.6,-388.7 L-52.1,-389.4 L-52.6,-390.0 L-53.0,-390.6 L-53.4,-391.3 L-53.8,-392.2 L-54.1,-393.0 L-54.5,-393.9 L-54.7,-394.6 L-54.9,-395.3 L-55.0,-395.9 L-55.1,-397.0 L-55.2,-397.9 L-55.1,-398.9 L-54.9,-400.2 L-54.5,-401.5 L-54.1,-402.9 L-53.7,-403.5 L-53.4,-403.9 L-50.8,-407.1 L-50.2,-407.8 L-49.4,-408.2 L-48.6,-408.5 L-47.7,-408.7 L-46.7,-408.8 L-45.8,-408.9 L-44.9,-408.8 L-44.0,-408.7 L-43.0,-408.4 L-41.9,-407.9 L-40.9,-407.4 L-40.1,-406.7 L-37.5,-404.3 L-36.9,-404.1 L-36.5,-404.0 L-36.1,-404.1 L-35.8,-404.2 L-35.5,-404.6 L-35.4,-405.0 L-35.3,-405.6 L-35.3,-406.1 L-35.4,-406.3 L-40.7,-411.5 L-33.5,-419.1 L-33.9,-420.0 L-29.8,-424.1 L-21.8,-416.2 L-28.2,-408.0 L-28.3,-407.5 L-27.9,-407.3 L-27.5,-407.4 L-20.5,-416.2 L-18.5,-418.7 L-18.4,-419.3 L-18.6,-419.8 L-18.9,-420.2 L-24.4,-425.4 L-23.1,-427.0 L-24.5,-428.2 L-23.7,-430.1 L-9.4,-444.4 L-4.5,-445.2 L-3.0,-445.4 L-1.5,-445.6 L-0.9,-445.8 L-0.1,-446.2 L0.9,-446.8 L1.6,-447.5 L2.3,-448.3 L9.6,-458.9 L9.7,-459.2 L9.7,-459.6 L9.5,-459.8 L9.4,-460.0 L8.5,-460.6 L8.3,-460.7 L8.1,-460.7 L7.8,-460.6 L7.4,-460.2 L1.3,-454.5 L-1.1,-452.8 L-10.8,-462.8 L-9.7,-466.3 L-9.2,-467.4 L-7.7,-470.2 L-6.0,-473.3 L-4.9,-474.5 L-2.9,-476.6 L-0.9,-478.8 L1.3,-481.2 L3.3,-482.8 L4.2,-483.7 L5.4,-484.6 L6.5,-485.2 L8.1,-485.9 L9.2,-486.3 L10.2,-486.5 L10.9,-486.6 L12.0,-486.5 L13.0,-486.4 L14.0,-486.1 L15.0,-485.3 L15.6,-484.4 L16.0,-483.5 L16.2,-482.2 L16.1,-480.4 L15.9,-478.4 L15.5,-476.4 L12.9,-470.7 L10.5,-465.5 L11.3,-464.1 L11.8,-463.9 L12.2,-463.9 L12.6,-464.0 L13.0,-464.2 L14.6,-466.6 L16.8,-467.6 L21.1,-479.0 L21.4,-479.6 L21.8,-480.1 L22.2,-480.3 L22.6,-480.5 L23.2,-480.4 L23.8,-480.3 L26.9,-479.4 L27.5,-479.3 L28.2,-479.3 L28.9,-479.4 L29.4,-479.6 L29.9,-480.0 L30.3,-480.5 L35.5,-487.5 L35.8,-488.1 L35.9,-488.6 L35.9,-489.2 L35.8,-489.7 L35.6,-490.1 L35.3,-490.5 L35.0,-490.8 L34.5,-491.1 L34.0,-491.2 L33.5,-491.2 L33.1,-491.2 L32.6,-490.9 L32.3,-490.7 L32.0,-490.3 L30.7,-488.1 L30.4,-487.7 L30.0,-487.3 L29.5,-486.8 L29.0,-486.6 L28.4,-486.4 L27.7,-486.2 L27.3,-486.2 L26.8,-486.3 L26.3,-486.4 L25.9,-486.6 L21.6,-490.5 L21.1,-491.1 L20.7,-491.6 L20.4,-492.3 L20.2,-492.9 L20.0,-493.5 L19.9,-494.2 L19.8,-494.9 L19.8,-495.8 L19.9,-496.4 L19.9,-497.0 L20.1,-497.5 L20.3,-497.9 L28.1,-510.3 L28.6,-511.2 L28.9,-511.6 L29.2,-511.8 L29.8,-512.1 L30.4,-512.2 L31.0,-512.3 L31.3,-512.3 L31.6,-512.3 L31.9,-512.2 L32.3,-512.0 L32.8,-511.7 L33.6,-511.0 L37.2,-507.7 L37.8,-506.8 L38.1,-506.0 L38.4,-505.0 L38.5,-504.3 L38.6,-503.5 L38.6,-502.8 L38.5,-502.1 L38.4,-501.4 L38.2,-501.0 L37.9,-500.1 L36.4,-497.4 L36.3,-496.8 L36.3,-496.1 L36.3,-495.5 L36.5,-495.1 L36.9,-494.7 L37.5,-494.3 L38.0,-494.0 L38.6,-493.9 L39.2,-493.9 L39.8,-494.1 L40.4,-494.4 L41.0,-494.9 L50.2,-507.6 L47.4,-510.1 L49.1,-511.9 L51.6,-509.5 L56.8,-516.4 L64.7,-526.9 L33.0,-557.3 L26.1,-550.0 L18.0,-557.6 L25.8,-566.0 L24.8,-567.2 L26.5,-568.7 L27.4,-567.7 L32.9,-573.5 L37.8,-569.0 L38.3,-565.3 L58.8,-546.2 L62.8,-544.6 L66.0,-545.7 L72.1,-543.3 L76.1,-544.8 L88.1,-559.4 L88.8,-560.8 L89.0,-562.6 L88.4,-564.5 L87.6,-565.7 L80.5,-572.3 L80.6,-574.1 L82.0,-577.6 L84.8,-582.8 L79.3,-586.4 L81.3,-587.2 L82.7,-588.1 L84.0,-589.6 L85.6,-593.5 L88.4,-600.8 L90.2,-602.5 L72.7,-619.5 L68.9,-617.1 L68.0,-616.9 L67.1,-616.8 L66.0,-617.0 L65.1,-617.2 L64.2,-617.8 L63.5,-618.4 L54.4,-627.1 L52.7,-628.8 L52.0,-629.7 L51.3,-630.8 L51.1,-631.9 L50.9,-632.9 L51.0,-633.8 L51.1,-634.7 L51.4,-635.4 L51.6,-636.0 L52.3,-636.9 L53.1,-637.8 L57.2,-642.1 L88.2,-613.3 L86.0,-610.9 L109.0,-589.2 L135.5,-628.0 L118.7,-643.7 L116.5,-641.8 L85.1,-671.4 L89.3,-675.2 L107.3,-658.3 L109.1,-660.9 L110.1,-662.3 L111.3,-663.6 L112.8,-665.2 L114.3,-666.2 L116.7,-668.2 L119.1,-670.4 L123.6,-674.7 L134.5,-686.9 L136.5,-688.9 L143.6,-692.6 L150.4,-697.9 L151.1,-698.4 L152.9,-699.8 L153.6,-700.5 L154.3,-701.3 L154.7,-702.1 L155.0,-702.9 L155.3,-703.6 L155.6,-704.3 L156.3,-705.3 L156.7,-706.0 L157.2,-706.6 L158.0,-707.3 L158.8,-707.8 L159.7,-708.4 L161.8,-709.3 L163.8,-710.3 L164.1,-710.4 L164.4,-710.3 L165.0,-710.2 L166.6,-709.4 L167.8,-708.8 L168.4,-708.4 L168.9,-708.0 L177.3,-700.0 L177.8,-699.7 L180.6,-699.0 L181.4,-698.8 L182.4,-698.6 L183.2,-698.7 L183.8,-698.9 L184.3,-699.3 L187.3,-703.5 L187.3,-704.0 L187.2,-704.6 L186.9,-705.2 L186.4,-705.7 L184.1,-707.8 L184.3,-708.2 L187.2,-714.4 L192.2,-724.4 L196.7,-727.8 L199.4,-730.4 L201.2,-732.5 L203.1,-734.4 L205.2,-736.2 L206.5,-737.3 L207.8,-738.5 L208.8,-739.6 L209.3,-740.5 L209.7,-741.2 L209.9,-741.8 L210.1,-742.6 L210.1,-743.4 L211.6,-745.0 L213.9,-747.1 L217.6,-750.2 L221.6,-753.2 L223.3,-755.6 L224.0,-758.1 L225.9,-759.3 L228.3,-759.4 L230.8,-760.9 L233.0,-764.8 L233.0,-768.9 L233.4,-775.2 L234.0,-776.0 L234.3,-776.6 L235.1,-777.8 L234.2,-780.5 L235.2,-781.7 L240.1,-787.8 L248.6,-797.8 L250.2,-800.1 L250.9,-801.3 L253.6,-805.1 L254.4,-807.4 L254.4,-811.0 L254.3,-814.7 L254.2,-818.4 L255.4,-822.5 L257.2,-826.5 L259.9,-830.3 L261.8,-833.2 L264.0,-836.1 L268.5,-841.0 L288.0,-850.6 L290.5,-851.3 L291.2,-849.9 L291.9,-848.6 L292.2,-848.3 L292.6,-848.5 L292.7,-849.5 L292.4,-850.2 L293.5,-850.6 L297.5,-851.8 L302.7,-853.3 L306.9,-854.6 L308.4,-855.0 L306.9,-859.7 L309.5,-860.4 L313.8,-861.0 L314.3,-861.1 L314.3,-861.4 L314.4,-862.5 L318.3,-862.7 L324.4,-862.9 L326.8,-861.8 L332.7,-840.4 L334.0,-839.2 L331.5,-836.5 L333.7,-834.2 L336.0,-832.0 L338.7,-834.7 L388.8,-787.1 L455.7,-858.5 L479.1,-836.2 L480.0,-836.4 L480.4,-836.0 L481.9,-837.0 L483.2,-837.5 L484.6,-838.1 L487.0,-839.4 L488.4,-840.2 L490.1,-841.2 L491.7,-842.2 L493.0,-843.0 L494.2,-843.8 L495.6,-844.8 L497.2,-846.0 L498.5,-847.0 L499.7,-848.2 L501.2,-849.5 L502.5,-850.9 L505.7,-854.2 L507.6,-856.5 L509.4,-859.0 L510.7,-860.8 L511.9,-862.6 L513.3,-865.2 L514.6,-867.7 L515.6,-869.8 L516.4,-871.9 L516.9,-873.2 L517.5,-874.8 L518.9,-876.5 L476.1,-917.2 L476.7,-917.7 L481.8,-923.2 L485.5,-927.2 L485.9,-927.6 L496.7,-917.4 L499.4,-918.8 L499.6,-918.4 L525.2,-931.7 L526.2,-932.2 L526.9,-932.8 L527.6,-933.4 L528.4,-934.2 L529.1,-935.4 L529.8,-936.4 L530.2,-937.2 L530.5,-938.2 L530.8,-939.4 L530.9,-940.6 L530.9,-941.9 L530.8,-943.1 L530.6,-944.0 L530.3,-945.2 L522.3,-968.2 L521.2,-971.9 L521.5,-973.2 L502.3,-978.0 L503.1,-981.3 L503.9,-984.3 L509.6,-1006.9 L505.2,-1020.0 L502.6,-1028.5 L501.8,-1030.6 L508.7,-1037.0 L516.5,-1041.2 L517.0,-1040.5 L517.7,-1039.4 L519.5,-1037.1 L519.7,-1037.3 L519.7,-1038.1 L517.3,-1041.5 L521.6,-1044.6 L522.6,-1045.1 L524.8,-1042.2 L525.2,-1041.9 L525.6,-1041.9 L525.8,-1041.9 L525.8,-1042.1 L515.1,-1056.7 L514.3,-1057.6 L513.4,-1058.8 L508.7,-1064.4 L512.7,-1076.8 L515.8,-1080.0 L519.3,-1081.6 L526.8,-1086.1 L528.4,-1087.6 L535.1,-1093.5 L537.2,-1091.3 L543.4,-1084.6 L549.2,-1089.5 L553.1,-1085.7 L556.6,-1082.3 L556.7,-1082.1 L559.7,-1084.7 L563.6,-1080.5 L566.9,-1076.2 L569.4,-1073.4 L569.7,-1073.0 L576.9,-1079.3 L577.3,-1079.6 L575.6,-1081.7 L579.5,-1084.9 L591.4,-1071.1 L601.6,-1077.7 L602.5,-1078.7 L606.9,-1080.5 L608.0,-1081.5 L608.9,-1082.8 L614.3,-1087.6 L613.1,-1089.2 L603.4,-1087.0 L592.3,-1099.7 L593.6,-1100.7 L595.2,-1098.8 L603.1,-1105.6 L611.4,-1096.4 L613.7,-1095.6 L615.0,-1094.8 L616.7,-1092.9 L617.7,-1093.7 L611.6,-1100.5 L615.3,-1103.7 L622.8,-1094.8 L623.7,-1095.5 L623.7,-1095.7 L640.0,-1107.5 L644.9,-1111.1 L629.0,-1131.0 L632.4,-1133.4 L646.3,-1117.1 L656.5,-1115.3 L663.2,-1119.2 L664.2,-1119.8 L664.1,-1120.6 L663.7,-1121.5 L668.9,-1124.8 L670.5,-1123.2 L674.9,-1125.8 L671.7,-1129.9 L656.1,-1150.7 L667.1,-1162.1 L674.4,-1172.7 L674.5,-1181.1 L670.7,-1192.2 L678.8,-1199.0 L687.3,-1202.2 L690.1,-1202.9 L692.3,-1203.2 L695.1,-1203.0 L697.9,-1202.3 L702.0,-1198.8 L712.7,-1185.7 L721.3,-1174.9 L731.5,-1168.0 L735.6,-1167.4 L739.2,-1167.0 L742.2,-1166.9 L746.1,-1167.1 L750.3,-1167.8 L753.8,-1168.8 L756.6,-1170.1 L758.6,-1171.3 L760.0,-1172.8 L762.4,-1175.7 L765.0,-1180.4 L767.8,-1186.7 L772.8,-1184.2 L774.9,-1183.5 L777.0,-1183.2 L780.4,-1183.4 L782.7,-1184.1 L785.3,-1185.2 L787.7,-1186.6 L790.3,-1189.1 L792.5,-1191.1 L795.3,-1193.0 L797.2,-1194.2 L799.9,-1195.2 L804.8,-1196.6 L807.6,-1197.4 L810.7,-1198.5 L813.3,-1199.9 L814.9,-1200.8 L816.1,-1202.1 L832.5,-1210.3 L833.1,-1210.7 L833.9,-1211.1 L834.6,-1211.7 L835.7,-1212.3 L836.4,-1212.7 L837.2,-1213.3 L837.8,-1214.0 L838.6,-1214.5 L839.5,-1215.1 L840.6,-1216.1 L842.2,-1216.3 L843.8,-1216.5 L844.9,-1216.8 L846.3,-1217.5 L848.0,-1218.2 L849.8,-1219.4 L850.9,-1220.3 L852.0,-1221.7 L852.8,-1222.9 L853.1,-1224.0 L853.2,-1224.8 L853.2,-1225.5 L853.6,-1228.1 L862.7,-1233.3 L878.6,-1242.5 L881.8,-1244.3 L908.8,-1259.9 L938.1,-1276.7 L950.6,-1283.9 L954.9,-1286.3 L991.1,-1307.4 L999.2,-1311.8 L999.0,-1312.1 L1015.6,-1321.5 L1022.0,-1325.0 L1033.8,-1331.5 L1033.9,-1331.4 L1038.4,-1333.9 L1049.5,-1340.0 L1050.8,-1341.2 L1062.0,-1349.4 L1067.6,-1354.0 L1072.7,-1358.4 L1075.0,-1359.7 L1080.4,-1365.0 L1080.8,-1364.7 L1081.5,-1364.8 L1081.9,-1364.5 L1089.3,-1373.3 L1087.4,-1375.0 L1087.7,-1375.5 L1088.5,-1376.6 L1090.6,-1379.3 L1091.9,-1381.3 L1092.9,-1382.9 L1094.4,-1385.1 L1095.7,-1387.4 L1097.3,-1389.9 L1098.9,-1392.7 L1102.4,-1399.9 L1103.4,-1402.2 L1104.3,-1404.0 L1104.9,-1405.4 L1105.4,-1406.4 L1106.5,-1409.2 L1077.6,-1463.2 L1077.0,-1464.2 L1076.6,-1464.8 L1076.3,-1465.2 L1075.9,-1465.5 L1075.6,-1465.8 L1075.0,-1466.1 L1074.5,-1466.3 L1074.1,-1466.4 L1073.6,-1466.5 L1073.0,-1466.5 L1072.2,-1466.3 L1071.5,-1466.1 L1070.8,-1465.8 L1064.1,-1461.9 L1055.3,-1456.9 L1049.2,-1453.5 L1038.0,-1447.3 L1031.1,-1443.6 L1031.4,-1443.2 L1028.5,-1441.5 L1018.9,-1436.6 L1011.8,-1432.4 L1007.6,-1430.0 L1001.3,-1426.4 L1000.5,-1425.9 L995.0,-1435.9 L1005.9,-1441.9 L1020.9,-1450.0 L1031.0,-1455.7 L1032.3,-1456.4 L1032.1,-1456.7 L1040.9,-1461.5 L1045.6,-1464.0 L1056.3,-1469.3 L1058.4,-1470.3 L1074.5,-1479.3 L1080.6,-1482.7 L1084.9,-1485.0 L1089.9,-1487.9 L1096.9,-1475.2 L1086.0,-1469.2 L1085.4,-1468.3 L1085.2,-1467.3 L1085.0,-1466.5 L1085.0,-1465.9 L1085.1,-1465.4 L1085.3,-1464.6 L1107.7,-1423.2 L1108.1,-1422.6 L1108.6,-1422.1 L1109.1,-1421.8 L1109.7,-1421.6 L1110.2,-1421.5 L1110.8,-1421.5 L1111.2,-1421.7 L1121.1,-1429.2 L1125.8,-1433.1 L1130.7,-1437.2 L1132.5,-1438.9 L1138.4,-1443.8 L1138.7,-1443.8 L1144.5,-1448.7 L1144.5,-1449.1 L1148.4,-1452.2 L1151.3,-1454.6 L1156.5,-1458.9 L1157.0,-1458.3 L1162.0,-1462.5 L1164.6,-1464.6 L1171.7,-1470.5 L1176.6,-1474.6 L1176.1,-1475.3 L1177.7,-1476.6 L1180.4,-1478.9 L1182.1,-1480.3 L1189.0,-1483.4 L1193.8,-1485.1 L1196.2,-1486.2 L1203.0,-1486.3 L1205.3,-1486.3 L1210.4,-1486.0 L1216.3,-1485.8 L1216.7,-1486.2 L1217.3,-1485.4 L1219.1,-1485.3 L1235.9,-1483.9 L1237.9,-1483.5 L1239.6,-1483.2 L1243.5,-1482.8 L1250.8,-1482.5 L1252.4,-1482.5 L1253.9,-1482.5 L1259.7,-1482.7 L1262.7,-1482.9 L1265.7,-1483.2 L1270.3,-1483.6 L1270.3,-1483.4 L1273.9,-1484.0 L1277.3,-1484.6 L1279.9,-1485.1 L1283.4,-1487.7 L1283.8,-1487.2 L1284.2,-1486.6 L1314.6,-1446.4 L1388.0,-1421.1 L1522.6,-1520.0 L1559.3,-1546.4 L1573.5,-1576.7 L1551.0,-1606.2 L1552.0,-1610.4 L1555.9,-1611.5 L1563.5,-1609.9 L1568.9,-1612.0 L1570.4,-1614.1 L1570.1,-1615.9 L1566.1,-1623.8 L1565.8,-1626.7 L1565.5,-1632.6 L1564.9,-1638.2 L1565.5,-1639.2 L1567.8,-1640.3 L1570.6,-1640.9 L1572.6,-1643.1 L1573.1,-1645.7 L1571.4,-1650.7 L1571.2,-1654.2 L1571.7,-1658.1 L1574.5,-1665.1 L1573.9,-1668.3 L1572.5,-1671.8 L1572.5,-1676.7 L1571.7,-1683.1 L1570.2,-1687.1 L1569.3,-1689.2 L1569.9,-1690.1 L1570.5,-1690.1 L1570.6,-1690.4 L1570.7,-1691.0 L1570.7,-1691.5 L1569.8,-1691.6 L1569.3,-1692.3 L1569.4,-1693.2 L1568.6,-1693.5 L1567.7,-1693.5 L1567.6,-1693.3 L1565.7,-1695.5 L1565.3,-1696.2 L1564.9,-1697.2 L1564.7,-1698.1 L1564.6,-1699.1 L1564.5,-1700.1 L1564.4,-1701.0 L1564.4,-1701.9 L1564.5,-1702.5 L1564.9,-1703.7 L1565.4,-1704.7 L1565.9,-1705.7 L1566.8,-1706.9 L1567.6,-1708.1 L1568.5,-1708.9 L1569.5,-1709.7 L1569.7,-1709.5 L1578.5,-1716.2 L1579.7,-1717.2 L1579.5,-1717.6 L1579.5,-1718.2 L1581.7,-1719.9 L1582.2,-1719.9 L1582.8,-1719.5 L1583.7,-1720.2 L1592.7,-1727.0 L1592.6,-1727.3 L1593.6,-1728.0 L1594.9,-1728.8 L1595.8,-1729.2 L1597.0,-1729.7 L1598.1,-1730.0 L1599.2,-1730.1 L1600.3,-1730.2 L1601.0,-1730.2 L1602.0,-1730.0 L1602.9,-1729.7 L1603.6,-1729.4 L1604.3,-1728.9 L1604.8,-1728.6 L1605.3,-1728.2 L1605.9,-1727.6 L1606.1,-1727.5 L1606.6,-1727.5 L1607.0,-1727.5 L1608.4,-1728.5 L1608.4,-1728.8 L1608.6,-1729.0 L1608.7,-1729.3 L1608.7,-1729.6 L1608.6,-1729.9 L1608.4,-1730.1 L1607.4,-1731.1 L1606.7,-1731.7 L1605.8,-1732.2 L1604.3,-1732.9 L1603.0,-1733.4 L1605.2,-1734.5 L1608.0,-1736.4 L1611.4,-1736.9 L1614.7,-1736.6 L1616.9,-1737.5 L1618.8,-1740.3 L1626.1,-1753.2 L1629.1,-1758.6 L1631.4,-1764.3 L1631.8,-1765.5 L1635.2,-1776.0 L1635.8,-1777.1 L1636.4,-1778.1 L1644.5,-1788.1 L1646.2,-1789.9 L1647.5,-1791.0 L1665.7,-1806.6 L1666.7,-1807.3 L1669.8,-1808.9 L1673.5,-1811.0 L1685.1,-1817.1 L1710.4,-1830.7 L1711.0,-1830.2 L1711.4,-1830.0 L1711.9,-1829.9 L1712.3,-1830.0 L1712.8,-1830.1 L1714.2,-1830.4 L1715.7,-1830.7 L1717.2,-1831.0 L1718.6,-1831.3 L1719.4,-1831.5 L1720.5,-1831.8 L1721.8,-1832.4 L1724.8,-1834.0 L1725.9,-1834.6 L1726.5,-1835.0 L1727.0,-1835.2 L1729.4,-1836.2 L1732.0,-1837.2 L1735.2,-1838.6 L1739.0,-1840.2 L1739.2,-1840.2 L1739.5,-1840.3 L1740.0,-1840.4 L1740.5,-1840.9 L1741.2,-1841.1 L1742.0,-1841.5 L1743.4,-1842.3 L1743.9,-1842.8 L1744.7,-1843.3 L1744.6,-1843.5 L1745.0,-1843.9 L1745.4,-1844.3 L1746.2,-1844.7 L1746.8,-1845.0 L1747.5,-1845.2 L1748.1,-1845.6 L1749.3,-1846.3 L1749.7,-1846.7 L1750.0,-1847.2 L1750.2,-1847.6 L1750.2,-1848.0 L1750.2,-1848.4 L1750.2,-1848.8 L1746.7,-1853.0 L1757.8,-1859.5 L1763.0,-1862.2 L1764.0,-1862.6 L1765.6,-1862.3 L1767.4,-1859.8 L1768.2,-1859.1 L1768.9,-1858.8 L1769.6,-1858.6 L1770.2,-1858.6 L1779.7,-1862.5 L1782.2,-1863.8 L1784.6,-1865.1 L1788.5,-1867.1 L1789.3,-1867.4 L1843.0,-1889.8 L1859.8,-1897.8 L1934.9,-1933.9 L3688.2,-1948.4 L3688.2,560.5 L-58.7,560.5 L-58.7,453.9 Z" fill="#add7e1" stroke="none"><title>Biscayne Bay</title></path><path d="M-1.0,-1.0 L257.0,-1.0 L257.0,257.0 L-1.0,257.0 L-1.0,-1.0 Z" fill="#add7e1" stroke="none" fill-rule="evenodd"><title>Biscayne Bay</title></path><path d="M-226.5,43.3 L752.2,146.7 L1963.9,612.2 L2802.8,1232.8 L3082.4,2318.7 L2523.1,2628.9 L-86.7,2628.9 L-645.9,1284.5 Z" fill="#add7e1" stroke="none"><title>Biscayne Bay</title></path></svg>