<svg xmlns="http://www.w3.org/2000/svg" width="256" height="256" viewBox="0 0 256 256"><rect width="256" height="256" fill="#f1efe7"/><path d="M15.6,195.1 L-3.5,195.4 L-4.1,161.4 L15.1,161.1 L15.6,195.1 Z" fill="#d6d2c9" stroke="#bab6ad" stroke-width="0.4"></path><path d="M163.8,126.6 L124.0,126.8 L124.3,114.0 L129.8,113.4 L129.0,98.7 L135.0,98.5 L132.7,54.1 L150.5,41.5 L161.3,45.2 L163.8,126.6 Z" fill="#d6d2c9" stroke="#bab6ad" stroke-width="0.4"></path><path d="M255.7,157.9 L232.4,158.7 L227.6,14.5 L250.9,13.7 L255.7,157.9 Z" fill="#d6d2c9" stroke="#bab6ad" stroke-width="0.4"></path><path d="M43.4,249.5 L43.5,268.2 L49.0,268.2 L49.1,282.8 L35.3,282.8 L35.3,276.4 L26.9,276.4 L26.9,272.4 L25.0,272.4 L25.0,255.6 L22.4,255.6 L22.4,249.5 L43.4,249.5 Z" fill="#d6d2c9" stroke="#bab6ad" stroke-width="0.4"></path><path d="M124.3,178.2 L116.4,178.7 L115.8,159.4 L131.0,159.4 L131.5,166.8 L124.5,167.6 L124.3,178.2 Z" fill="#d6d2c9" stroke="#bab6ad" stroke-width="0.4"></path><path d="M156.3,-33.4 L157.0,-14.2 L159.9,-14.3 L159.9,-5.6 L74.9,55.0 L71.1,-47.6 L110.8,-49.0 L110.5,-62.9 L158.3,-64.1 L159.6,-33.5 L156.3,-33.4 Z" fill="#d6d2c9" stroke="#bab6ad" stroke-width="0.4"></path><path d="M88.4,153.7 L79.8,154.0 L79.6,147.2 L90.5,146.8 L90.7,151.2 L88.3,151.3 L88.4,153.7 Z" fill="#d6d2c9" stroke="#bab6ad" stroke-width="0.4"></path><path d="M12.1,248.2 L12.4,257.1 L17.6,256.9 L18.2,273.5 L0.8,274.1 L0.6,268.0 L-5.7,268.2 L-6.3,251.3 L-0.8,251.1 L-0.9,248.7 L12.1,248.2 Z" fill="#d6d2c9" stroke="#bab6ad" stroke-width="0.4"></path><path d="M6.0,101.0 L6.1,104.0 L13.4,103.8 L14.2,130.8 L5.0,131.1 L-4.2,131.3 L-4.3,127.5 L-10.0,127.6 L-10.7,101.5 L-2.4,101.3 L6.0,101.0 Z" fill="#d6d2c9" stroke="#bab6ad" stroke-width="0.4"></path><path d="M100.3,151.5 L101.4,184.5 L91.7,184.9 L91.9,190.0 L81.5,190.4 L81.4,185.6 L80.2,185.7 L79.7,171.4 L75.6,171.5 L75.4,164.5 L84.8,164.2 L84.5,156.9 L91.8,156.6 L91.7,151.8 L100.3,151.5 Z" fill="#d6d2c9" stroke="#bab6ad" stroke-width="0.4"></path><path d="M35.5,102.2 L35.6,104.9 L48.5,104.5 L49.2,129.3 L40.1,129.6 L40.2,131.0 L28.2,131.3 L28.0,122.9 L26.4,122.9 L25.8,102.5 L30.7,102.3 L35.5,102.2 Z" fill="#d6d2c9" stroke="#bab6ad" stroke-width="0.4"></path><path d="M63.3,169.6 L63.5,173.9 L73.2,173.5 L73.9,189.7 L56.3,190.5 L56.4,193.8 L50.3,194.1 L49.6,178.5 L52.1,178.4 L51.8,170.1 L63.3,169.6 Z" fill="#d6d2c9" stroke="#bab6ad" stroke-width="0.4"></path><path d="M86.3,101.2 L87.2,125.4 L79.1,125.7 L71.0,126.0 L70.8,121.0 L64.4,121.2 L63.6,102.0 L86.3,101.2 Z" fill="#d6d2c9" stroke="#bab6ad" stroke-width="0.4"></path><path d="M2.3,17.8 L2.5,24.2 L12.2,23.9 L12.9,46.4 L3.3,46.6 L3.3,48.2 L-12.7,48.7 L-13.4,24.7 L-10.0,24.6 L-10.2,18.2 L2.3,17.8 Z" fill="#d6d2c9" stroke="#bab6ad" stroke-width="0.4"></path><path d="M21.7,25.8 L21.8,28.7 L31.6,28.3 L31.5,26.8 L35.6,26.6 L39.7,26.5 L40.3,45.5 L17.0,47.1 L16.3,28.8 L18.9,28.7 L18.8,25.9 L21.7,25.8 Z" fill="#d6d2c9" stroke="#bab6ad" stroke-width="0.4"></path><path d="M34.8,149.3 L35.2,165.5 L39.2,165.4 L39.4,171.3 L40.4,171.3 L41.0,194.8 L19.7,195.4 L19.6,189.9 L19.4,184.5 L24.4,184.3 L24.0,171.5 L25.1,171.5 L24.8,160.5 L20.1,160.7 L19.8,149.7 L34.8,149.3 Z" fill="#d6d2c9" stroke="#bab6ad" stroke-width="0.4"></path><path d="M97.3,247.8 L98.0,277.5 L94.7,277.5 L94.7,281.1 L87.8,281.2 L87.7,276.8 L80.0,276.9 L79.8,268.9 L83.0,268.8 L82.5,248.1 L97.3,247.8 Z" fill="#d6d2c9" stroke="#bab6ad" stroke-width="0.4"></path><path d="M119.5,222.5 L152.7,206.5 L164.5,226.0 L164.5,346.7 L122.0,347.7 L119.5,222.5 Z" fill="#d6d2c9" stroke="#bab6ad" stroke-width="0.4"></path><path d="M209.3,196.8 L208.3,178.8 L207.5,163.0" fill="none" stroke="#cf828d" stroke-width="1.5" stroke-dasharray="1.6 3.0" opacity="0.62" stroke-linecap="round" stroke-linejoin="round"></path><path d="M210.7,198.1 L209.3,196.8" fill="none" stroke="#cf828d" stroke-width="1.5" stroke-dasharray="1.6 3.0" opacity="0.62" stroke-linecap="round" stroke-linejoin="round"></path><path d="M209.0,161.0 L211.3,163.1 L214.6,165.0 L217.8,166.4 L220.5,166.7 L223.6,166.8 L306.5,163.9" fill="none" stroke="#cf828d" stroke-width="1.5" stroke-dasharray="1.6 3.0" opacity="0.62" stroke-linecap="round" stroke-linejoin="round"></path><path d="M381.6,1.9 L218.6,6.4 L215.7,6.6 L212.7,7.1 L209.9,8.1 L207.3,9.6 L205.0,11.8 L203.3,14.0 L202.4,16.5 L201.8,19.5 L201.5,22.7 L201.4,25.7 L202.3,47.4 L204.6,125.7 L205.3,150.0 L206.0,154.4 L207.3,157.7 L209.0,161.0" fill="none" stroke="#cf828d" stroke-width="1.5" stroke-dasharray="1.6 3.0" opacity="0.62" stroke-linecap="round" stroke-linejoin="round"></path><path d="M211.0,336.4 L209.3,273.2 L207.3,208.2 L208.0,202.6 L210.7,198.1 L214.7,194.9 L221.4,192.6 L233.6,192.1 L475.7,185.2" fill="none" stroke="#cf828d" stroke-width="1.5" stroke-dasharray="1.6 3.0" opacity="0.62" stroke-linecap="round" stroke-linejoin="round"></path><path d="M-167.0,241.8 L69.6,234.2 L78.3,233.9 L85.6,233.3 L91.4,231.8 L111.4,222.8 L130.2,214.2 L151.2,204.7 L155.1,204.2 L159.0,204.4 L162.0,205.2 L164.6,206.6 L166.2,208.8 L167.3,211.8 L167.9,215.4 L171.8,338.8" fill="none" stroke="#cf828d" stroke-width="1.5" stroke-dasharray="1.6 3.0" opacity="0.62" stroke-linecap="round" stroke-linejoin="round"></path><path d="M207.5,163.0 L209.0,161.0" fill="none" stroke="#cf828d" stroke-width="1.5" stroke-dasharray="1.6 3.0" opacity="0.62" stroke-linecap="round" stroke-linejoin="round"></path><path d="M160.2,-63.6 L161.8,-14.3 L161.8,-4.1 L161.2,-1.4 L159.0,2.3 L152.6,6.8 L145.8,11.3 L81.6,56.8 L77.0,59.4 L74.2,59.8 L57.8,60.3 L-167.9,68.0" fill="none" stroke="#cf828d" stroke-width="1.5" stroke-dasharray="1.6 3.0" opacity="0.62" stroke-linecap="round" stroke-linejoin="round"></path><path d="M-165.2,93.2 L50.4,86.5 L73.4,85.6 L82.7,84.5 L88.4,82.7 L92.6,80.2 L99.9,75.3 L109.9,68.1 L119.3,61.3 L147.2,42.0 L149.9,40.4 L153.1,40.1 L157.6,41.1 L160.6,42.8 L163.0,45.4 L166.7,150.1 L166.9,158.1 L166.7,162.1 L165.7,165.9 L164.7,167.6 L164.1,168.4 L161.3,171.4 L157.2,174.3 L152.5,176.9 L123.3,189.6 L110.9,195.2 L87.6,205.7 L83.2,207.4 L80.3,208.1 L-164.4,216.4" fill="none" stroke="#cf828d" stroke-width="1.5" stroke-dasharray="1.6 3.0" opacity="0.62" stroke-linecap="round" stroke-linejoin="round"></path><path d="M165.8,169.2 L166.4,185.4 L167.0,201.2" fill="none" stroke="#cf828d" stroke-width="1.5" stroke-dasharray="1.6 3.0" opacity="0.62" stroke-linecap="round" stroke-linejoin="round"></path><path d="M167.0,201.2 L164.6,206.6" fill="none" stroke="#cf828d" stroke-width="1.5" stroke-dasharray="1.6 3.0" opacity="0.62" stroke-linecap="round" stroke-linejoin="round"></path><path d="M164.7,167.6 L165.8,169.2" fill="none" stroke="#cf828d" stroke-width="1.5" stroke-dasharray="1.6 3.0" opacity="0.62" stroke-linecap="round" stroke-linejoin="round"></path><path d="M159.6,3.9 L160.5,27.3 L160.9,39.4" fill="none" stroke="#cf828d" stroke-width="1.5" stroke-dasharray="1.6 3.0" opacity="0.62" stroke-linecap="round" stroke-linejoin="round"></path><path d="M160.9,39.4 L160.6,42.8" fill="none" stroke="#cf828d" stroke-width="1.5" stroke-dasharray="1.6 3.0" opacity="0.62" stroke-linecap="round" stroke-linejoin="round"></path><path d="M159.6,3.9 L159.0,2.3" fill="none" stroke="#cf828d" stroke-width="1.5" stroke-dasharray="1.6 3.0" opacity="0.62" stroke-linecap="round" stroke-linejoin="round"></path><path d="M202.5,-14.9 L203.2,-0.3 L203.7,9.3" fill="none" stroke="#cf828d" stroke-width="1.5" stroke-dasharray="1.6 3.0" opacity="0.62" stroke-linecap="round" stroke-linejoin="round"></path><path d="M203.7,9.3 L205.0,11.8" fill="none" stroke="#cf828d" stroke-width="1.5" stroke-dasharray="1.6 3.0" opacity="0.62" stroke-linecap="round" stroke-linejoin="round"></path><path d="M111.0,210.0 L111.4,222.8 L113.0,276.6 L114.9,355.3" fill="none" stroke="#cec8bb" stroke-width="3.5" stroke-linecap="round" stroke-linejoin="round"/><path d="M111.0,210.0 L111.4,222.8 L113.0,276.6 L114.9,355.3" fill="none" stroke="#ffffff" stroke-width="2.5" stroke-linecap="round" stroke-linejoin="round"></path><path d="M111.0,210.0 L110.9,195.2 L109.9,68.1 L109.8,53.6" fill="none" stroke="#cec8bb" stroke-width="3.5" stroke-linecap="round" stroke-linejoin="round"/><path d="M111.0,210.0 L110.9,195.2 L109.9,68.1 L109.8,53.6" fill="none" stroke="#ffffff" stroke-width="2.5" stroke-linecap="round" stroke-linejoin="round"></path><path d="M54.9,-60.7 L57.4,52.9 L57.8,60.3 L58.3,73.1" fill="none" stroke="#cec8bb" stroke-width="3.5" stroke-linecap="round" stroke-linejoin="round"/><path d="M54.9,-60.7 L57.4,52.9 L57.8,60.3 L58.3,73.1" fill="none" stroke="#ffffff" stroke-width="2.5" stroke-linecap="round" stroke-linejoin="round"></path><path d="M193.4,47.7 L202.3,47.4 L213.6,47.1 L212.7,10.9" fill="none" stroke="#cec8bb" stroke-width="3.5" stroke-linecap="round" stroke-linejoin="round"/><path d="M193.4,47.7 L202.3,47.4 L213.6,47.1 L212.7,10.9" fill="none" stroke="#ffffff" stroke-width="2.5" stroke-linecap="round" stroke-linejoin="round"></path><path d="M213.6,47.1 L215.8,125.3 L204.6,125.7 L195.6,126.0" fill="none" stroke="#cec8bb" stroke-width="3.5" stroke-linecap="round" stroke-linejoin="round"/><path d="M213.6,47.1 L215.8,125.3 L204.6,125.7 L195.6,126.0" fill="none" stroke="#ffffff" stroke-width="2.5" stroke-linecap="round" stroke-linejoin="round"></path><path d="M215.8,125.3 L216.7,163.7" fill="none" stroke="#cec8bb" stroke-width="3.5" stroke-linecap="round" stroke-linejoin="round"/><path d="M215.8,125.3 L216.7,163.7" fill="none" stroke="#ffffff" stroke-width="2.5" stroke-linecap="round" stroke-linejoin="round"></path><path d="M-173.0,229.3 L74.8,222.0 L86.5,220.0 L98.3,215.4 L111.0,210.0 L160.7,187.3 L166.4,185.4 L176.6,182.1" fill="none" stroke="#cec8bb" stroke-width="4.8" stroke-linecap="round" stroke-linejoin="round"/><path d="M-173.0,229.3 L74.8,222.0 L86.5,220.0 L98.3,215.4 L111.0,210.0 L160.7,187.3 L166.4,185.4 L176.6,182.1" fill="none" stroke="#ffffff" stroke-width="3.7" stroke-linecap="round" stroke-linejoin="round"><title>Southwest 5th Street</title></path><path d="M171.9,27.2 L160.5,27.3 L154.4,27.3 L151.2,27.6 L144.8,29.1 L138.4,33.0 L109.8,53.6 L95.4,63.8 L88.0,68.5 L80.3,71.3 L70.4,72.6 L58.3,73.1 L-177.6,81.4" fill="none" stroke="#cec8bb" stroke-width="4.8" stroke-linecap="round" stroke-linejoin="round"/><path d="M171.9,27.2 L160.5,27.3 L154.4,27.3 L151.2,27.6 L144.8,29.1 L138.4,33.0 L109.8,53.6 L95.4,63.8 L88.0,68.5 L80.3,71.3 L70.4,72.6 L58.3,73.1 L-177.6,81.4" fill="none" stroke="#ffffff" stroke-width="3.7" stroke-linecap="round" stroke-linejoin="round"><title>Southwest 4th Street</title></path><path d="M197.1,179.1 L208.3,178.8 L480.2,171.1" fill="none" stroke="#cec8bb" stroke-width="4.8" stroke-linecap="round" stroke-linejoin="round"/><path d="M197.1,179.1 L208.3,178.8 L480.2,171.1" fill="none" stroke="#ffffff" stroke-width="3.7" stroke-linecap="round" stroke-linejoin="round"><title>Southwest 5th Street</title></path><path d="M291.3,-3.4 L210.7,-0.6 L203.2,-0.3 L192.1,0.0" fill="none" stroke="#cec8bb" stroke-width="4.8" stroke-linecap="round" stroke-linejoin="round"/><path d="M291.3,-3.4 L210.7,-0.6 L203.2,-0.3 L192.1,0.0" fill="none" stroke="#ffffff" stroke-width="3.7" stroke-linecap="round" stroke-linejoin="round"><title>Southwest 4th Street</title></path><path d="M176.6,182.1 L197.1,179.1" fill="none" stroke="#cec8bb" stroke-width="4.8" stroke-linecap="round" stroke-linejoin="round"/><path d="M176.6,182.1 L197.1,179.1" fill="none" stroke="#ffffff" stroke-width="3.7" stroke-linecap="round" stroke-linejoin="round"><title>Southwest 5th Street</title></path><path d="M200.8,309.4 L199.2,251.9" fill="none" stroke="#d1c4aa" stroke-width="6.4" stroke-linecap="round" stroke-linejoin="round"/><path d="M200.8,309.4 L199.2,251.9" fill="none" stroke="#f1c77d" stroke-width="5.0" stroke-linecap="round" stroke-linejoin="round"><title>Southwest 22nd Avenue</title></path><path d="M168.3,-78.5 L171.9,27.2 L173.0,58.9 L176.6,182.1 L180.4,340.4" fill="none" stroke="#d1c4aa" stroke-width="6.4" stroke-linecap="round" stroke-linejoin="round"/><path d="M168.3,-78.5 L171.9,27.2 L173.0,58.9 L176.6,182.1 L180.4,340.4" fill="none" stroke="#f1c77d" stroke-width="5.0" stroke-linecap="round" stroke-linejoin="round"><title>Southwest 22nd Avenue</title></path><path d="M192.1,0.0 L190.5,-41.1 L190.0,-57.7" fill="none" stroke="#d1c4aa" stroke-width="6.4" stroke-linecap="round" stroke-linejoin="round"/><path d="M192.1,0.0 L190.5,-41.1 L190.0,-57.7" fill="none" stroke="#f1c77d" stroke-width="5.0" stroke-linecap="round" stroke-linejoin="round"><title>Southwest 22nd Avenue</title></path><path d="M197.1,179.1 L195.6,126.0 L193.4,47.7 L192.1,0.0" fill="none" stroke="#d1c4aa" stroke-width="6.4" stroke-linecap="round" stroke-linejoin="round"/><path d="M197.1,179.1 L195.6,126.0 L193.4,47.7 L192.1,0.0" fill="none" stroke="#f1c77d" stroke-width="5.0" stroke-linecap="round" stroke-linejoin="round"><title>Southwest 22nd Avenue</title></path><path d="M199.2,251.9 L197.1,179.1" fill="none" stroke="#d1c4aa" stroke-width="6.4" stroke-linecap="round" stroke-linejoin="round"/><path d="M199.2,251.9 L197.1,179.1" fill="none" stroke="#f1c77d" stroke-width="5.0" stroke-linecap="round" stroke-linejoin="round"><title>Southwest 22nd Avenue</title></path><g transform="translate(174.8 120.5) rotate(88.3)"><path d="M -3.6 -3.2 L 4.4 0 L -3.6 3.2 Z" fill="#58656d" opacity="0.46"/></g><g transform="translate(194.5 86.9) rotate(-91.6)"><path d="M -3.6 -3.2 L 4.4 0 L -3.6 3.2 Z" fill="#58656d" opacity="0.46"/></g><text x="174.8" y="120.5" transform="rotate(88.3 174.8 120.5)" text-anchor="middle" dominant-baseline="central" font-family="Arial, sans-serif" font-size="8.3" textLength="111.6" lengthAdjust="spacing" font-weight="650" paint-order="stroke" stroke="#fffaf0" stroke-width="2.05" stroke-linejoin="round" fill="#6f573d">Southwest 22nd Avenue</text><text x="194.5" y="86.9" transform="rotate(88.4 194.5 86.9)" text-anchor="middle" dominant-baseline="central" font-family="Arial, sans-serif" font-size="8.3" textLength="111.6" lengthAdjust="spacing" font-weight="650" paint-order="stroke" stroke="#fffaf0" stroke-width="2.05" stroke-linejoin="round" fill="#6f573d">Southwest 22nd Avenue</text><text x="15.0" y="178.3" text-anchor="middle" font-family="Arial, sans-serif" font-size="6.5" textLength="18.0" lengthAdjust="spacing" font-weight="500" paint-order="stroke" stroke="#f3f5ee" stroke-width="1.55" stroke-linejoin="round" fill="#6f777a">2251</text><text x="123.9" y="168.3" text-anchor="middle" font-family="Arial, sans-serif" font-size="6.5" textLength="18.0" lengthAdjust="spacing" font-weight="500" paint-order="stroke" stroke="#f3f5ee" stroke-width="1.55" stroke-linejoin="round" fill="#6f777a">424</text><text x="15.0" y="116.0" text-anchor="middle" font-family="Arial, sans-serif" font-size="6.5" textLength="18.0" lengthAdjust="spacing" font-weight="500" paint-order="stroke" stroke="#f3f5ee" stroke-width="1.55" stroke-linejoin="round" fill="#6f777a">2240</text><text x="86.6" y="172.1" text-anchor="middle" font-family="Arial, sans-serif" font-size="6.5" textLength="18.0" lengthAdjust="spacing" font-weight="500" paint-order="stroke" stroke="#f3f5ee" stroke-width="1.55" stroke-linejoin="round" fill="#6f777a">2211</text><text x="35.3" y="116.7" text-anchor="middle" font-family="Arial, sans-serif" font-size="6.5" textLength="18.0" lengthAdjust="spacing" font-weight="500" paint-order="stroke" stroke="#f3f5ee" stroke-width="1.55" stroke-linejoin="round" fill="#6f777a">2236</text><text x="59.0" y="181.2" text-anchor="middle" font-family="Arial, sans-serif" font-size="6.5" textLength="18.0" lengthAdjust="spacing" font-weight="500" paint-order="stroke" stroke="#f3f5ee" stroke-width="1.55" stroke-linejoin="round" fill="#6f777a">2231</text><text x="74.7" y="117.5" text-anchor="middle" font-family="Arial, sans-serif" font-size="6.5" textLength="18.0" lengthAdjust="spacing" font-weight="500" paint-order="stroke" stroke="#f3f5ee" stroke-width="1.55" stroke-linejoin="round" fill="#6f777a">2220</text><text x="26.7" y="30.8" text-anchor="middle" font-family="Arial, sans-serif" font-size="6.5" textLength="18.0" lengthAdjust="spacing" font-weight="500" paint-order="stroke" stroke="#f3f5ee" stroke-width="1.55" stroke-linejoin="round" fill="#6f777a">2241</text><text x="93.0" y="27.4" text-anchor="middle" font-family="Arial, sans-serif" font-size="6.5" textLength="18.0" lengthAdjust="spacing" font-weight="500" paint-order="stroke" stroke="#f3f5ee" stroke-width="1.55" stroke-linejoin="round" fill="#6f777a">2201</text><text x="138.8" y="68.7" text-anchor="middle" font-family="Arial, sans-serif" font-size="6.5" textLength="18.0" lengthAdjust="spacing" font-weight="500" paint-order="stroke" stroke="#f3f5ee" stroke-width="1.55" stroke-linejoin="round" fill="#6f777a">414</text><text x="140.5" y="119.9" text-anchor="middle" font-family="Arial, sans-serif" font-size="6.5" textLength="18.0" lengthAdjust="spacing" font-weight="500" paint-order="stroke" stroke="#f3f5ee" stroke-width="1.55" stroke-linejoin="round" fill="#6f777a">422</text><text x="238.7" y="29.8" text-anchor="middle" font-family="Arial, sans-serif" font-size="6.5" textLength="18.0" lengthAdjust="spacing" font-weight="500" paint-order="stroke" stroke="#f3f5ee" stroke-width="1.55" stroke-linejoin="round" fill="#6f777a">401</text><text x="237.1" y="213.6" text-anchor="middle" font-family="Arial, sans-serif" font-size="6.5" textLength="18.0" lengthAdjust="spacing" font-weight="500" paint-order="stroke" stroke="#f3f5ee" stroke-width="1.55" stroke-linejoin="round" fill="#6f777a">505</text><text x="240.8" y="85.2" text-anchor="middle" font-family="Arial, sans-serif" font-size="6.5" textLength="18.0" lengthAdjust="spacing" font-weight="500" paint-order="stroke" stroke="#f3f5ee" stroke-width="1.55" stroke-linejoin="round" fill="#6f777a">405</text><text x="241.0" y="151.7" text-anchor="middle" font-family="Arial, sans-serif" font-size="6.5" textLength="18.0" lengthAdjust="spacing" font-weight="500" paint-order="stroke" stroke="#f3f5ee" stroke-width="1.55" stroke-linejoin="round" fill="#6f777a">2155</text><g><title>Southwest 22nd Avenue &amp; Southwest 4th Street</title><rect x="160.2" y="55.5" width="6.9" height="6.1" rx="1.3" fill="#2796c9" stroke="#ffffff" stroke-width="1.05"/><rect x="161.4" y="56.8" width="4.4" height="2.1" rx="0.35" fill="#ffffff"/><circle cx="161.7" cy="60.5" r="0.5" fill="#ffffff"/><circle cx="165.5" cy="60.5" r="0.5" fill="#ffffff"/></g><g><title>Rico Bakery &amp; Cafe</title><circle cx="239.3" cy="96.6" r="4.8" fill="#6a9952" stroke="#ffffff" stroke-width="1.7"/><path d="M236.6,95.6 H242.0 L241.1,99.5 H237.6 Z" stroke="#ffffff" stroke-width="1.15" stroke-linejoin="round" fill="none"/><path d="M238.0,95.6 C238.2,93.3 240.5,93.3 240.7,95.6" stroke="#ffffff" stroke-width="1.15" stroke-linecap="round" fill="none"/></g><g opacity="0.56"><title>crossing</title><path d="M206.1,177.0 L210.6,177.0 M206.1,178.8 L210.6,178.8 M206.1,180.6 L210.6,180.6" stroke="#ffffff" stroke-width="2.1" stroke-linecap="round"/><path d="M206.1,177.0 L210.6,177.0 M206.1,178.8 L210.6,178.8 M206.1,180.6 L210.6,180.6" stroke="#59656a" stroke-width="0.85" stroke-linecap="round"/></g><g opacity="0.56"><title>crossing</title><path d="M164.1,183.6 L168.7,183.6 M164.1,185.4 L168.7,185.4 M164.1,187.2 L168.7,187.2" stroke="#ffffff" stroke-width="2.1" stroke-linecap="round"/><path d="M164.1,183.6 L168.7,183.6 M164.1,185.4 L168.7,185.4 M164.1,187.2 L168.7,187.2" stroke="#59656a" stroke-width="0.85" stroke-linecap="round"/></g><g opacity="0.56"><title>crossing</title><path d="M158.2,25.5 L162.7,25.5 M158.2,27.3 L162.7,27.3 M158.2,29.1 L162.7,29.1" stroke="#ffffff" stroke-width="2.1" stroke-linecap="round"/><path d="M158.2,25.5 L162.7,25.5 M158.2,27.3 L162.7,27.3 M158.2,29.1 L162.7,29.1" stroke="#59656a" stroke-width="0.85" stroke-linecap="round"/></g></svg>