<svg xmlns="http://www.w3.org/2000/svg" width="256" height="256" viewBox="0 0 256 256"><defs><pattern id="park-dots" width="22" height="22" patternUnits="userSpaceOnUse"><circle cx="5" cy="5" r="2.1" fill="#63a95d" fill-opacity="0.26"/><circle cx="16" cy="7" r="1.55" fill="#76b970" fill-opacity="0.23"/><circle cx="10" cy="17" r="1.9" fill="#61a65b" fill-opacity="0.24"/><circle cx="21" cy="17" r="1.25" fill="#80c174" fill-opacity="0.18"/><circle cx="1" cy="19" r="1.2" fill="#70b46a" fill-opacity="0.17"/></pattern><pattern id="park-canopy" width="54" height="48" patternUnits="userSpaceOnUse"><circle cx="12" cy="11" r="3.6" fill="#5ea75a" fill-opacity="0.22"/><circle cx="31" cy="15" r="2.9" fill="#75ba6d" fill-opacity="0.18"/><circle cx="45" cy="31" r="3.3" fill="#67ae62" fill-opacity="0.20"/><circle cx="19" cy="39" r="2.5" fill="#83c378" fill-opacity="0.16"/></pattern></defs><rect width="256" height="256" fill="#f1efe7"/><path d="M68.7,69.7 L73.8,327.1 L61.0,340.8 L-149.9,341.9 L-497.9,169.9 L-679.9,109.9 L-762.5,62.2 L-880.5,30.5 L-933.9,14.0 L-925.9,1.9 L-888.4,13.8 L-767.9,51.9 L-709.9,68.1 L-653.8,72.2 L-652.3,72.3 L-573.9,71.9 L-522.8,65.9 L-500.6,71.2 L-483.3,77.8 L-463.3,85.4 L-381.9,107.9 L-329.5,112.8 L-270.4,113.1 L-222.1,113.7 L-182.8,100.1 L-145.7,78.2 L-93.9,71.9 L-29.9,69.9 L60.0,69.9 L68.7,69.7 Z" fill="#d5f2cb" stroke="#9fcf91" stroke-width="0.4"></path><path d="M68.7,69.7 L73.8,327.1 L61.0,340.8 L-149.9,341.9 L-497.9,169.9 L-679.9,109.9 L-762.5,62.2 L-880.5,30.5 L-933.9,14.0 L-925.9,1.9 L-888.4,13.8 L-767.9,51.9 L-709.9,68.1 L-653.8,72.2 L-652.3,72.3 L-573.9,71.9 L-522.8,65.9 L-500.6,71.2 L-483.3,77.8 L-463.3,85.4 L-381.9,107.9 L-329.5,112.8 L-270.4,113.1 L-222.1,113.7 L-182.8,100.1 L-145.7,78.2 L-93.9,71.9 L-29.9,69.9 L60.0,69.9 L68.7,69.7 Z" fill="url(#park-dots)" stroke="none"/><path d="M68.7,69.7 L73.8,327.1 L61.0,340.8 L-149.9,341.9 L-497.9,169.9 L-679.9,109.9 L-762.5,62.2 L-880.5,30.5 L-933.9,14.0 L-925.9,1.9 L-888.4,13.8 L-767.9,51.9 L-709.9,68.1 L-653.8,72.2 L-652.3,72.3 L-573.9,71.9 L-522.8,65.9 L-500.6,71.2 L-483.3,77.8 L-463.3,85.4 L-381.9,107.9 L-329.5,112.8 L-270.4,113.1 L-222.1,113.7 L-182.8,100.1 L-145.7,78.2 L-93.9,71.9 L-29.9,69.9 L60.0,69.9 L68.7,69.7 Z" fill="url(#park-canopy)" stroke="none"/><path d="M-101.1,86.2 L-97.0,226.4 L-95.1,234.3 L-92.3,241.5 L-88.7,245.0 L-84.2,247.8 L-78.1,249.8 L-71.0,250.8 L49.3,246.2 L53.2,245.9 L57.0,245.0 L60.2,244.0 L62.2,243.1 L62.1,238.1 L61.9,232.7 L61.2,226.4 L59.8,220.0 L56.1,201.1 L51.4,179.5 L47.1,164.5 L42.9,153.5 L39.7,147.8 L36.1,142.4 L30.5,135.4 L24.6,129.3 L17.9,123.2 L10.9,117.2 L4.0,112.9 L-3.2,109.2 L-19.6,103.7 L-34.2,99.3 L-54.3,93.8 L-74.3,88.5 L-80.5,87.3 L-87.2,86.5 L-94.0,85.9 L-101.1,86.2 Z" fill="#c7dfbd" stroke="#8eb580" stroke-width="0.5"></path><path d="M171.2,255.8 L160.7,309.0 L128.2,302.6 L132.5,280.8 L126.5,279.6 L130.8,257.8 L124.1,256.5 L130.3,225.3 L164.6,232.1 L160.3,253.7 L171.2,255.8 Z" fill="#ded0d4" stroke="#c6b5bb" stroke-width="0.4"></path><path d="M186.3,99.2 L186.4,103.8 L212.6,103.7 L212.7,114.1 L228.3,114.0 L228.5,136.9 L225.9,145.6 L182.7,145.8 L182.6,138.4 L153.2,138.6 L153.1,112.1 L167.9,112.0 L167.8,101.9 L167.8,99.3 L182.0,99.2 L186.3,99.2 Z" fill="#d6d2c9" stroke="#bab6ad" stroke-width="0.4"></path><path d="M172.3,183.6 L250.6,200.0 L251.6,194.8 L272.3,199.9 L269.8,216.0 L281.4,218.9 L281.1,221.4 L298.0,225.0 L321.8,229.5 L321.7,327.9 L266.1,328.4 L265.2,297.2 L271.4,297.3 L270.7,263.7 L277.3,263.3 L277.2,245.6 L239.2,238.2 L240.6,232.9 L226.7,230.0 L225.5,235.4 L193.2,229.2 L195.0,218.3 L184.2,216.2 L182.6,225.2 L127.4,214.0 L131.4,193.5 L124.7,192.1 L131.1,161.9 L170.1,169.3 L168.2,177.6 L173.6,178.5 L172.3,183.6 Z" fill="#ded0d4" stroke="#c6b5bb" stroke-width="0.4"></path><path d="M264.3,-21.3 L269.5,-16.1 L272.1,-18.7 L274.7,-16.0 L277.3,-13.4 L274.4,-10.4 L283.3,-1.4 L261.4,20.5 L247.9,6.8 L246.3,8.4 L243.4,5.4 L240.5,2.5 L264.3,-21.3 Z" fill="#d6d2c9" stroke="#bab6ad" stroke-width="0.4"></path><path d="M219.5,-19.9 L219.6,-2.9 L227.4,-3.0 L227.6,17.9 L203.5,18.2 L193.1,15.5 L193.2,1.3 L196.5,-17.8 L202.5,-17.9 L202.4,-19.7 L219.5,-19.9 Z" fill="#d6d2c9" stroke="#bab6ad" stroke-width="0.4"></path><path d="M249.8,131.2 L249.7,141.2 L232.5,141.1 L232.6,131.1 L249.8,131.2 Z" fill="#d6d2c9" stroke="#bab6ad" stroke-width="0.4"></path><path d="M41.6,138.6 L49.9,138.6 L55.5,132.3 L55.2,127.1 L55.0,124.2 L52.7,121.8 L49.2,118.1 L41.0,118.4 L35.2,124.5 L34.6,133.2 L41.6,138.6 Z" fill="#d6d2c9" stroke="#bab6ad" stroke-width="0.4"></path><path d="M-89.6,49.1 L0.4,55.1 L59.4,44.1 L176.4,46.1 L240.4,61.1 L345.4,104.1" fill="none" stroke="#6fb5c7" stroke-width="1.7" stroke-dasharray="5 7" opacity="0.34" stroke-linecap="round" stroke-linejoin="round"><title>South Fork Miami River</title></path><path d="M302.2,195.3 L273.0,176.7 L118.1,146.9 L113.1,147.0 L94.2,147.3" fill="none" stroke="#cec8bb" stroke-width="4.5" stroke-linecap="round" stroke-linejoin="round"/><path d="M302.2,195.3 L273.0,176.7 L118.1,146.9 L113.1,147.0 L94.2,147.3" fill="none" stroke="#ffffff" stroke-width="3.4" stroke-linecap="round" stroke-linejoin="round"><title>Northwest 12th Street</title></path><path d="M51.6,272.3 L53.2,263.7 L55.3,260.9 L58.3,259.6 L59.4,255.2 L60.9,252.2 L62.7,250.0 L64.3,247.9 L65.2,245.5 L65.0,229.9 L63.7,201.5 L63.2,183.5 L62.7,167.9 L61.3,144.4 L60.5,126.9 L60.3,123.5 L58.9,114.8 L55.4,103.9 L53.6,100.8 L50.9,97.6 L46.4,95.3 L43.1,95.0 L38.0,95.9 L27.8,98.2 L2.7,98.1 L-11.1,98.0 L-24.2,97.4 L-64.1,87.8" fill="none" stroke="#cf828d" stroke-width="1.5" stroke-dasharray="1.6 3.0" opacity="0.62" stroke-linecap="round" stroke-linejoin="round"></path><path d="M25.7,315.6 L24.4,268.3" fill="none" stroke="#cf828d" stroke-width="1.5" stroke-dasharray="1.6 3.0" opacity="0.62" stroke-linecap="round" stroke-linejoin="round"></path><path d="M-54.9,264.1 L-30.9,268.7 L24.4,268.3 L51.6,272.3 L71.8,272.3 L77.8,272.0" fill="none" stroke="#cf828d" stroke-width="1.5" stroke-dasharray="1.6 3.0" opacity="0.62" stroke-linecap="round" stroke-linejoin="round"></path><path d="M55.2,127.1 L60.5,126.9" fill="none" stroke="#cf828d" stroke-width="1.5" stroke-dasharray="1.6 3.0" opacity="0.62" stroke-linecap="round" stroke-linejoin="round"></path><path d="M306.1,222.0 L299.0,221.6 L292.9,220.4 L288.9,218.8 L285.5,216.7 L281.0,212.6 L277.9,209.0 L276.3,204.9 L274.5,198.3 L272.1,192.5 L269.9,189.3 L267.4,187.3 L265.0,186.5 L150.0,163.7 L131.9,160.2 L124.5,161.2 L119.8,163.7 L115.9,167.8 L113.7,172.8 L112.8,178.1 L113.0,188.6 L113.7,214.1 L115.5,288.8 L115.7,307.9" fill="none" stroke="#cf828d" stroke-width="1.5" stroke-dasharray="1.6 3.0" opacity="0.62" stroke-linecap="round" stroke-linejoin="round"></path><path d="M79.1,336.2 L77.8,272.0 L73.8,85.2 L74.2,75.7" fill="none" stroke="#cf828d" stroke-width="1.5" stroke-dasharray="1.6 3.0" opacity="0.62" stroke-linecap="round" stroke-linejoin="round"></path><path d="M70.4,-146.4 L73.2,15.1" fill="none" stroke="#cf828d" stroke-width="1.5" stroke-dasharray="1.6 3.0" opacity="0.62" stroke-linecap="round" stroke-linejoin="round"></path><path d="M73.2,15.1 L74.2,75.7" fill="none" stroke="#cf828d" stroke-width="1.5" stroke-dasharray="1.6 3.0" opacity="0.62" stroke-linecap="round" stroke-linejoin="round"></path><path d="M111.6,127.4 L113.1,147.0 L115.0,166.9" fill="none" stroke="#cf828d" stroke-width="1.5" stroke-dasharray="1.6 3.0" opacity="0.62" stroke-linecap="round" stroke-linejoin="round"></path><path d="M111.6,127.4 L111.6,75.1" fill="none" stroke="#cf828d" stroke-width="1.5" stroke-dasharray="1.6 3.0" opacity="0.62" stroke-linecap="round" stroke-linejoin="round"></path><path d="M111.6,75.1 L110.3,14.5" fill="none" stroke="#cf828d" stroke-width="1.5" stroke-dasharray="1.6 3.0" opacity="0.62" stroke-linecap="round" stroke-linejoin="round"></path><path d="M110.3,14.5 L109.4,-24.3 L106.5,-177.3" fill="none" stroke="#cf828d" stroke-width="1.5" stroke-dasharray="1.6 3.0" opacity="0.62" stroke-linecap="round" stroke-linejoin="round"></path><path d="M115.0,166.9 L115.9,167.8" fill="none" stroke="#cf828d" stroke-width="1.5" stroke-dasharray="1.6 3.0" opacity="0.62" stroke-linecap="round" stroke-linejoin="round"></path><path d="M209.8,251.1 L194.7,337.0" fill="none" stroke="#cec8bb" stroke-width="3.5" stroke-linecap="round" stroke-linejoin="round"/><path d="M209.8,251.1 L194.7,337.0" fill="none" stroke="#ffffff" stroke-width="2.5" stroke-linecap="round" stroke-linejoin="round"></path><path d="M169.2,319.6 L185.1,246.1 L209.8,251.1" fill="none" stroke="#cec8bb" stroke-width="3.5" stroke-linecap="round" stroke-linejoin="round"/><path d="M169.2,319.6 L185.1,246.1 L209.8,251.1" fill="none" stroke="#ffffff" stroke-width="2.5" stroke-linecap="round" stroke-linejoin="round"></path><path d="M209.8,251.1 L235.1,256.3" fill="none" stroke="#cec8bb" stroke-width="3.5" stroke-linecap="round" stroke-linejoin="round"/><path d="M209.8,251.1 L235.1,256.3" fill="none" stroke="#ffffff" stroke-width="2.5" stroke-linecap="round" stroke-linejoin="round"></path><path d="M121.5,205.0 L121.5,207.1 L119.0,211.7 L113.7,214.1 L95.0,214.1" fill="none" stroke="#cec8bb" stroke-width="3.5" stroke-linecap="round" stroke-linejoin="round"/><path d="M121.5,205.0 L121.5,207.1 L119.0,211.7 L113.7,214.1 L95.0,214.1" fill="none" stroke="#ffffff" stroke-width="2.5" stroke-linecap="round" stroke-linejoin="round"></path><path d="M94.5,188.3 L113.0,188.6 L118.4,190.6 L121.4,194.2 L121.4,199.4" fill="none" stroke="#cec8bb" stroke-width="3.5" stroke-linecap="round" stroke-linejoin="round"/><path d="M94.5,188.3 L113.0,188.6 L118.4,190.6 L121.4,194.2 L121.4,199.4" fill="none" stroke="#ffffff" stroke-width="2.5" stroke-linecap="round" stroke-linejoin="round"></path><path d="M121.4,199.4 L121.5,205.0" fill="none" stroke="#cec8bb" stroke-width="3.5" stroke-linecap="round" stroke-linejoin="round"/><path d="M121.4,199.4 L121.5,205.0" fill="none" stroke="#ffffff" stroke-width="2.5" stroke-linecap="round" stroke-linejoin="round"></path><path d="M304.2,-26.2 L291.9,-40.4 L279.7,-59.7" fill="none" stroke="#cec8bb" stroke-width="4.8" stroke-linecap="round" stroke-linejoin="round"/><path d="M304.2,-26.2 L291.9,-40.4 L279.7,-59.7" fill="none" stroke="#ffffff" stroke-width="3.7" stroke-linecap="round" stroke-linejoin="round"><title>Northwest 13th Street</title></path><path d="M92.3,15.1 L89.4,-128.0" fill="none" stroke="#d1c4aa" stroke-width="6.4" stroke-linecap="round" stroke-linejoin="round"/><path d="M92.3,15.1 L89.4,-128.0" fill="none" stroke="#f1c77d" stroke-width="5.0" stroke-linecap="round" stroke-linejoin="round"><title>Northwest 22nd Avenue</title></path><path d="M93.2,77.2 L92.3,15.1" fill="none" stroke="#d1c4aa" stroke-width="6.4" stroke-linecap="round" stroke-linejoin="round"/><path d="M93.2,77.2 L92.3,15.1" fill="none" stroke="#f1c77d" stroke-width="5.0" stroke-linecap="round" stroke-linejoin="round"><title>Northwest 22nd Avenue</title></path><path d="M96.8,322.5 L96.4,303.7 L95.8,272.7 L95.0,214.1 L94.5,188.3 L94.6,178.1" fill="none" stroke="#d1c4aa" stroke-width="6.4" stroke-linecap="round" stroke-linejoin="round"/><path d="M96.8,322.5 L96.4,303.7 L95.8,272.7 L95.0,214.1 L94.5,188.3 L94.6,178.1" fill="none" stroke="#f1c77d" stroke-width="5.0" stroke-linecap="round" stroke-linejoin="round"><title>Northwest 22nd Avenue</title></path><path d="M94.2,147.3 L93.5,95.6" fill="none" stroke="#d1c4aa" stroke-width="6.4" stroke-linecap="round" stroke-linejoin="round"/><path d="M94.2,147.3 L93.5,95.6" fill="none" stroke="#f1c77d" stroke-width="5.0" stroke-linecap="round" stroke-linejoin="round"><title>Northwest 22nd Avenue</title></path><path d="M93.5,95.6 L93.2,77.2" fill="none" stroke="#d1c4aa" stroke-width="6.4" stroke-linecap="round" stroke-linejoin="round"/><path d="M93.5,95.6 L93.2,77.2" fill="none" stroke="#f1c77d" stroke-width="5.0" stroke-linecap="round" stroke-linejoin="round"><title>Northwest 22nd Avenue</title></path><path d="M94.6,178.1 L94.2,147.3" fill="none" stroke="#d1c4aa" stroke-width="6.4" stroke-linecap="round" stroke-linejoin="round"/><path d="M94.6,178.1 L94.2,147.3" fill="none" stroke="#f1c77d" stroke-width="5.0" stroke-linecap="round" stroke-linejoin="round"><title>Northwest 22nd Avenue</title></path><text x="126.9" y="99.6" text-anchor="middle" font-family="Arial, sans-serif" font-size="6.5" textLength="18.0" lengthAdjust="spacing" font-weight="500" paint-order="stroke" stroke="#f3f5ee" stroke-width="1.55" stroke-linejoin="round" fill="#6f777a">1201</text><text x="151.8" y="100.7" text-anchor="middle" font-family="Arial, sans-serif" font-size="6.5" textLength="18.0" lengthAdjust="spacing" font-weight="500" paint-order="stroke" stroke="#f3f5ee" stroke-width="1.55" stroke-linejoin="round" fill="#6f777a">2181</text><text x="166.3" y="16.5" text-anchor="middle" font-family="Arial, sans-serif" font-size="6.5" textLength="18.0" lengthAdjust="spacing" font-weight="500" paint-order="stroke" stroke="#f3f5ee" stroke-width="1.55" stroke-linejoin="round" fill="#6f777a">1235</text><text x="179.5" y="102.9" text-anchor="middle" font-family="Arial, sans-serif" font-size="6.5" textLength="18.0" lengthAdjust="spacing" font-weight="500" paint-order="stroke" stroke="#f3f5ee" stroke-width="1.55" stroke-linejoin="round" fill="#6f777a">2161</text><text x="210.1" y="105.9" text-anchor="middle" font-family="Arial, sans-serif" font-size="6.5" textLength="18.0" lengthAdjust="spacing" font-weight="500" paint-order="stroke" stroke="#f3f5ee" stroke-width="1.55" stroke-linejoin="round" fill="#6f777a">2151</text><text x="222.5" y="246.0" text-anchor="middle" font-family="Arial, sans-serif" font-size="6.5" textLength="18.0" lengthAdjust="spacing" font-weight="500" paint-order="stroke" stroke="#f3f5ee" stroke-width="1.55" stroke-linejoin="round" fill="#6f777a">1101</text><g opacity="0.56"><title>crossing</title><path d="M110.8,145.2 L115.4,145.2 M110.8,147.0 L115.4,147.0 M110.8,148.8 L115.4,148.8" stroke="#ffffff" stroke-width="2.1" stroke-linecap="round"/><path d="M110.8,145.2 L115.4,145.2 M110.8,147.0 L115.4,147.0 M110.8,148.8 L115.4,148.8" stroke="#59656a" stroke-width="0.85" stroke-linecap="round"/></g></svg>