<svg xmlns="http://www.w3.org/2000/svg" width="256" height="256" viewBox="0 0 256 256"><rect width="256" height="256" fill="#f1efe7"/><path d="M-11530.7,-12077.7 L-11315.9,-12167.0 L-11248.7,-12199.3 L-10948.2,-12343.6 L-10891.8,-12289.0 L-10886.9,-12284.3 L-10781.5,-12374.5 L-10756.4,-12393.6 L-10714.5,-12431.4 L-10478.4,-12648.2 L-10287.9,-12865.8 L-10280.6,-12879.7 L-10273.6,-12887.6 L-10262.5,-12900.3 L-10251.2,-12913.2 L-10246.6,-12918.5 L-10321.7,-13015.6 L-10222.3,-13075.2 L-10168.4,-13003.5 L-10092.2,-13090.7 L-10156.7,-13176.1 L-10076.8,-13259.4 L-10015.3,-13178.4 L-9944.7,-13258.8 L-9914.6,-13278.5 L-9767.4,-13374.0 L-9694.7,-13422.3 L-9607.1,-13479.9 L-9565.7,-13507.1 L-9460.8,-13574.8 L-9487.8,-13610.3 L-9536.1,-13675.0 L-9411.2,-13754.4 L-9365.7,-13777.9 L-9362.2,-13780.4 L-9338.2,-13798.9 L-9252.6,-13844.7 L-9246.7,-13853.9 L-9222.7,-13870.4 L-9209.7,-13889.4 L-9206.0,-13892.2 L-9185.1,-13900.3 L-9137.9,-13917.2 L-9105.6,-13931.4 L-8991.5,-13985.0 L-8990.1,-13981.3 L-8894.4,-14022.2 L-8855.3,-13972.1 L-8768.2,-14030.2 L-8755.8,-14038.7 L-8754.6,-14039.7 L-8753.4,-14041.3 L-8751.5,-14044.6 L-8750.5,-14047.7 L-8749.9,-14051.4 L-8750.0,-14054.4 L-8750.4,-14057.3 L-8750.8,-14060.6 L-8750.9,-14063.1 L-8750.7,-14065.2 L-8750.3,-14067.4 L-8748.7,-14071.4 L-8747.6,-14073.6 L-8745.1,-14077.4 L-8742.5,-14080.2 L-8729.8,-14085.3 L-8719.2,-14089.3 L-8705.7,-14093.7 L-8699.4,-14095.4 L-8688.2,-14099.1 L-8680.3,-14101.9 L-8669.4,-14106.4 L-8654.6,-14112.9 L-8638.6,-14120.4 L-8630.0,-14124.6 L-8619.2,-14130.1 L-8609.1,-14135.7 L-8599.0,-14141.7 L-8588.7,-14148.4 L-8585.5,-14150.6 L-8564.8,-14166.4 L-8547.4,-14179.8 L-8530.4,-14194.2 L-8514.5,-14209.2 L-8503.0,-14222.1 L-8491.6,-14236.0 L-8477.6,-14254.0 L-8464.8,-14272.0 L-8450.1,-14295.1 L-8440.5,-14313.0 L-8434.5,-14324.4 L-8425.6,-14343.7 L-8418.1,-14361.6 L-8411.4,-14380.9 L-8406.0,-14397.8 L-8400.1,-14425.2 L-8395.8,-14449.7 L-8393.5,-14470.7 L-8391.5,-14495.5 L-8391.3,-14522.0 L-8392.9,-14546.5 L-8397.1,-14578.5 L-8401.5,-14600.3 L-8406.5,-14620.9 L-8413.9,-14644.3 L-8420.2,-14662.2 L-8427.4,-14681.7 L-8434.2,-14697.9 L-8438.8,-14708.4 L-8440.7,-14716.1 L-8441.0,-14722.0 L-8440.4,-14727.3 L-8438.3,-14731.9 L-8435.1,-14735.8 L-8430.9,-14738.0 L-8426.4,-14738.6 L-8414.3,-14735.7 L-8380.6,-14727.6 L-8369.4,-14982.3 L-8325.7,-15436.9 L-8373.2,-15448.1 L-8378.4,-15462.4 L-8378.2,-15482.9 L-8371.6,-15529.4 L-8362.6,-15539.9 L-8354.6,-15570.1 L-8304.1,-15558.4 L-8276.3,-15848.9 L-8268.6,-15929.3 L-8284.3,-15933.2 L-8274.8,-15971.6 L-8307.1,-15979.3 L-8303.0,-16002.8 L-8297.3,-16018.3 L-8290.2,-16036.4 L-8278.2,-16061.7 L-8265.3,-16058.8 L-8247.9,-16241.5 L-8243.8,-16352.3 L-8243.0,-16372.7 L-8233.6,-16443.2 L-8214.9,-16618.9 L-8090.1,-16944.3 L-8061.6,-17033.0 L-7714.9,-17166.0 L-7681.0,-17179.6 L-7675.1,-17182.8 L-7670.5,-17187.0 L-7665.4,-17192.9 L-7661.5,-17199.8 L-7658.9,-17206.6 L-7658.3,-17216.5 L-7658.8,-17228.8 L-7663.4,-17384.3 L-7665.1,-17414.4 L-7665.6,-17435.1 L-7666.3,-17475.3 L-7667.1,-17487.9 L-7668.6,-17498.5 L-7670.7,-17507.9 L-7673.8,-17517.5 L-7678.7,-17528.8 L-7685.9,-17540.9 L-7692.9,-17550.5 L-7698.3,-17559.6 L-7703.8,-17571.7 L-7708.4,-17583.3 L-7710.2,-17592.8 L-7711.6,-17603.3 L-7712.3,-17613.8 L-7712.0,-17624.0 L-7710.8,-17635.9 L-7708.0,-17647.6 L-7704.3,-17658.0 L-7700.4,-17667.5 L-7695.4,-17676.7 L-7689.3,-17687.9 L-7685.3,-17698.0 L-7681.8,-17710.9 L-7675.4,-17720.7 L-7677.6,-17809.9 L-7680.9,-17815.1 L-7681.9,-17875.7 L-7683.6,-17947.2 L-7682.4,-17957.1 L-7679.2,-17967.2 L-7671.2,-17983.0 L-7617.7,-18098.1 L-7616.6,-18100.0 L-7607.2,-18120.5 L-7598.3,-18139.9 L-7588.3,-18159.9 L-7578.5,-18180.5 L-7573.7,-18190.5 L-7521.1,-18298.4 L-7464.9,-18417.6 L-7343.3,-18664.4 L-7416.4,-18746.3 L-7476.0,-18619.3 L-7527.5,-18509.4 L-7535.3,-18493.8 L-7551.2,-18461.3 L-7583.0,-18464.0 L-7591.7,-18464.5 L-7594.8,-18461.7 L-7590.6,-18457.9 L-7606.9,-18443.4 L-7619.8,-18431.5 L-7622.2,-18380.6 L-7627.0,-18370.4 L-7642.6,-18371.0 L-7645.2,-18371.9 L-7849.6,-18456.3 L-7854.0,-18458.6 L-7858.7,-18461.6 L-7866.1,-18467.2 L-7871.8,-18472.6 L-7876.6,-18477.8 L-7881.3,-18484.2 L-7884.9,-18489.8 L-7887.7,-18495.6 L-7889.9,-18501.7 L-7891.4,-18505.9 L-7892.5,-18511.0 L-7893.3,-18517.0 L-7894.1,-18525.2 L-7894.1,-18536.9 L-7895.5,-18576.6 L-7889.9,-18576.9 L-7890.7,-18597.9 L-7891.6,-18632.5 L-7886.4,-18632.6 L-7886.8,-18656.2 L-7892.7,-18656.1 L-7895.4,-18755.5 L-7889.8,-18755.8 L-7890.7,-18779.1 L-7896.1,-18778.9 L-7898.4,-18852.4 L-7871.4,-18881.5 L-7836.9,-18882.7 L-7811.2,-18883.6 L-7777.3,-18884.7 L-7744.7,-18885.7 L-7715.5,-18886.7 L-7702.8,-18887.3 L-7703.4,-18898.6 L-7703.6,-18910.4 L-7705.5,-18948.7 L-7706.2,-19021.8 L-7707.2,-19023.1 L-7707.4,-19030.3 L-7705.3,-19030.4 L-7710.4,-19206.5 L-7714.8,-19372.2 L-7715.5,-19377.4 L-7715.9,-19387.0 L-7788.1,-19384.4 L-7836.1,-19388.5 L-8195.4,-19376.0 L-8195.5,-19379.2 L-8196.2,-19394.5 L-8366.6,-19388.5 L-8366.9,-19416.8 L-8389.4,-19421.9 L-8393.4,-19543.0 L-7730.6,-19566.0 L-7719.6,-19581.1 L-7720.0,-19624.1 L-7720.8,-19661.3 L-7721.4,-19684.6 L-7722.3,-19707.3 L-7775.0,-19732.1 L-7777.1,-19787.2 L-7723.1,-19814.0 L-7728.0,-19941.5 L-7729.4,-19947.8 L-7783.1,-19972.9 L-7784.8,-20041.1 L-7733.8,-20067.4 L-7756.5,-20344.3 L-7750.5,-20467.5 L-7747.5,-20668.4 L-7747.7,-20886.9 L-7742.9,-20917.5 L-7742.6,-20932.3 L-7747.4,-20950.1 L-7742.4,-20950.1 L-7742.4,-20966.2 L-7739.4,-21377.2 L-7739.9,-21395.5 L-7745.6,-21395.5 L-7745.4,-21471.1 L-7748.7,-21475.8 L-7753.9,-21553.8 L-7743.6,-21625.1 L-7744.9,-21711.4 L-7748.4,-21732.1 L-7743.1,-21796.0 L-7746.7,-21873.3 L-7755.7,-21956.0 L-7772.8,-22090.0 L-7764.7,-22126.9 L-7768.3,-22162.8 L-7798.9,-22188.9 L-7843.8,-22188.5 L-7912.2,-22179.5 L-7956.7,-22179.5 L-7997.1,-22194.3 L-8050.2,-22230.7 L-8050.2,-22296.0 L-8051.6,-22376.3 L-8046.4,-22443.2 L-8028.8,-22495.4 L-7734.1,-22500.9 L-7727.3,-22918.8 L-7727.3,-23520.4 L-7730.4,-23738.7 L8181.8,-30310.4 L8181.8,5907.8 L-11530.7,5907.8 L-11530.7,-12077.7 Z" fill="#add7e1" stroke="none"><title>Biscayne Bay</title></path></svg>