<svg xmlns="http://www.w3.org/2000/svg" width="256" height="256" viewBox="0 0 256 256"><rect width="256" height="256" fill="#f1efe7"/><path d="M178.0,8.4 L132.8,9.4 L132.1,-19.3 L177.4,-20.3 L178.0,8.4 Z" fill="#d6d2c9" stroke="#bab6ad" stroke-width="0.4"><title>Gerson and Schwartz Accident &amp; Injury Lawyers</title></path><path d="M31.0,-13.8 L32.1,16.7 L9.9,17.5 L9.8,14.4 L-1.7,14.8 L-1.7,17.7 L-25.9,18.5 L-26.9,-11.7 L-3.9,-12.5 L-3.8,-10.5 L8.4,-10.9 L8.3,-13.1 L31.0,-13.8 Z" fill="#d6d2c9" stroke="#bab6ad" stroke-width="0.4"></path><path d="M275.3,8.2 L239.0,9.2 L238.1,-22.2 L274.4,-23.2 L275.3,8.2 Z" fill="#d6d2c9" stroke="#bab6ad" stroke-width="0.4"></path><path d="M222.5,-21.5 L221.8,5.9 L199.7,5.3 L199.6,9.5 L189.9,9.2 L190.1,3.3 L184.4,3.2 L184.7,-9.0 L192.5,-8.7 L192.9,-22.3 L222.5,-21.5 Z" fill="#d6d2c9" stroke="#bab6ad" stroke-width="0.4"></path><path d="M87.3,-15.9 L87.3,-8.2 L99.8,-8.3 L100.1,11.7 L89.3,11.8 L89.3,7.4 L80.2,7.5 L80.1,-3.2 L74.9,-3.1 L74.8,-15.8 L87.3,-15.9 Z" fill="#d6d2c9" stroke="#bab6ad" stroke-width="0.4"></path><path d="M-15.8,149.2 L-15.7,151.5 L0.2,150.3 L0.9,173.1 L-5.5,173.3 L-5.4,178.9 L-17.5,179.3 L-17.6,174.0 L-22.6,174.1 L-23.1,154.9 L-22.1,154.8 L-22.3,149.4 L-15.8,149.2 Z" fill="#d6d2c9" stroke="#bab6ad" stroke-width="0.4"></path><path d="M245.6,140.5 L245.7,142.5 L252.4,142.3 L253.3,169.3 L245.7,169.6 L245.5,164.0 L240.0,164.2 L240.1,166.2 L234.2,166.4 L233.8,156.0 L237.3,155.9 L237.2,151.8 L232.1,151.9 L231.7,141.0 L245.6,140.5 Z" fill="#d6d2c9" stroke="#bab6ad" stroke-width="0.4"></path><path d="M259.1,35.4 L259.5,43.2 L271.5,42.6 L271.9,50.5 L274.2,50.4 L274.7,60.8 L277.4,60.7 L278.1,75.1 L275.8,75.2 L276.2,83.7 L258.5,84.7 L257.4,63.3 L255.4,63.5 L254.8,51.9 L250.4,52.1 L250.1,46.3 L244.0,46.6 L243.5,36.2 L259.1,35.4 Z" fill="#d6d2c9" stroke="#bab6ad" stroke-width="0.4"></path><path d="M160.7,60.6 L160.8,65.9 L166.9,65.7 L167.4,85.3 L159.9,85.5 L159.9,83.5 L155.4,83.6 L155.4,85.8 L152.8,85.9 L152.9,87.9 L146.0,88.1 L145.4,66.8 L151.2,66.7 L151.1,60.9 L160.7,60.6 Z" fill="#d6d2c9" stroke="#bab6ad" stroke-width="0.4"></path><path d="M250.4,190.9 L240.9,191.2 L240.6,182.9 L250.1,182.6 L250.4,190.9 Z" fill="#d6d2c9" stroke="#bab6ad" stroke-width="0.4"></path><path d="M244.6,202.7 L234.8,203.0 L234.5,195.2 L244.4,194.9 L244.6,202.7 Z" fill="#d6d2c9" stroke="#bab6ad" stroke-width="0.4"></path><path d="M55.5,88.3 L32.0,88.7 L31.3,70.8 L35.1,70.6 L34.8,61.5 L53.7,60.9 L54.6,66.6 L55.5,88.3 Z" fill="#d6d2c9" stroke="#bab6ad" stroke-width="0.4"></path><path d="M114.7,143.6 L115.1,162.0 L96.7,162.3 L96.6,156.5 L90.5,156.6 L90.3,146.4 L96.4,146.3 L96.3,142.9 L114.7,143.6 Z" fill="#d6d2c9" stroke="#bab6ad" stroke-width="0.4"></path><path d="M19.6,62.0 L19.9,72.0 L26.3,71.8 L26.7,89.0 L17.2,89.3 L17.3,90.4 L10.3,90.6 L10.2,89.0 L3.5,89.1 L2.8,62.4 L19.6,62.0 Z" fill="#d6d2c9" stroke="#bab6ad" stroke-width="0.4"></path><path d="M-2.8,220.1 L-2.7,223.4 L4.3,223.2 L5.2,255.8 L-6.0,256.2 L-6.1,253.5 L-9.9,253.6 L-9.8,256.3 L-19.7,256.6 L-20.7,224.0 L-19.6,223.9 L-19.7,220.6 L-2.8,220.1 Z" fill="#d6d2c9" stroke="#bab6ad" stroke-width="0.4"></path><path d="M13.2,144.7 L13.5,151.7 L28.7,151.0 L29.1,161.6 L22.2,161.9 L22.8,176.4 L6.5,177.1 L5.2,145.1 L13.2,144.7 Z" fill="#d6d2c9" stroke="#bab6ad" stroke-width="0.4"></path><path d="M225.2,138.5 L225.8,152.9 L224.6,153.0 L225.3,169.9 L204.4,170.9 L204.1,163.0 L210.8,162.7 L210.7,161.0 L208.3,161.1 L207.9,152.7 L205.0,152.9 L204.7,145.1 L211.7,144.8 L211.5,141.1 L217.1,140.8 L217.0,138.9 L225.2,138.5 Z" fill="#d6d2c9" stroke="#bab6ad" stroke-width="0.4"></path><path d="M86.6,142.2 L88.0,180.2 L83.0,180.4 L83.1,182.4 L77.6,182.6 L77.5,180.5 L66.1,181.0 L65.6,167.2 L68.0,167.1 L67.7,157.4 L62.0,157.6 L61.5,143.2 L86.6,142.2 Z" fill="#d6d2c9" stroke="#bab6ad" stroke-width="0.4"></path><path d="M230.3,190.9 L213.0,191.6 L212.5,180.1 L229.8,179.4 L230.3,190.9 Z" fill="#d6d2c9" stroke="#bab6ad" stroke-width="0.4"></path><path d="M49.8,200.6 L49.9,202.9 L60.5,202.5 L60.9,214.4 L43.8,215.1 L43.3,203.3 L45.0,203.3 L44.9,200.8 L49.8,200.6 Z" fill="#d6d2c9" stroke="#bab6ad" stroke-width="0.4"></path><path d="M105.0,196.3 L90.4,197.0 L89.8,183.9 L104.4,183.2 L105.0,196.3 Z" fill="#d6d2c9" stroke="#bab6ad" stroke-width="0.4"></path><path d="M168.2,236.6 L168.6,249.0 L154.9,249.5 L154.7,243.9 L148.1,244.1 L148.2,245.4 L141.0,245.7 L139.4,219.7 L147.7,219.3 L147.6,215.6 L174.2,214.6 L175.0,236.4 L168.2,236.6 Z" fill="#d6d2c9" stroke="#bab6ad" stroke-width="0.4"></path><path d="M223.9,58.8 L224.4,68.1 L225.6,68.0 L226.4,82.9 L220.7,83.2 L220.9,87.5 L202.0,88.4 L200.9,65.5 L205.8,65.3 L205.5,59.7 L223.9,58.8 Z" fill="#d6d2c9" stroke="#bab6ad" stroke-width="0.4"></path><path d="M88.8,223.6 L89.4,250.4 L81.5,250.6 L81.5,254.9 L66.7,256.1 L66.4,243.5 L68.0,243.5 L67.8,235.9 L66.0,235.9 L65.8,228.0 L79.8,227.7 L79.7,223.8 L88.8,223.6 Z" fill="#d6d2c9" stroke="#bab6ad" stroke-width="0.4"></path><path d="M46.3,144.0 L46.4,146.9 L56.8,146.5 L58.1,184.7 L41.9,185.3 L41.3,171.0 L35.6,171.3 L34.6,144.5 L46.3,144.0 Z" fill="#d6d2c9" stroke="#bab6ad" stroke-width="0.4"></path><path d="M122.6,245.7 L122.8,251.4 L108.6,251.9 L108.5,249.8 L102.3,250.0 L102.2,246.5 L101.2,246.5 L100.6,230.8 L110.2,230.4 L109.9,222.4 L128.7,221.7 L129.2,234.5 L125.5,234.6 L125.9,245.6 L122.6,245.7 Z" fill="#d6d2c9" stroke="#bab6ad" stroke-width="0.4"></path><path d="M249.0,246.5 L249.2,252.4 L241.5,252.6 L241.4,249.9 L236.1,250.0 L235.1,220.3 L246.8,219.9 L246.6,213.7 L257.8,213.3 L258.9,246.2 L249.0,246.5 Z" fill="#d6d2c9" stroke="#bab6ad" stroke-width="0.4"></path><path d="M131.8,61.8 L132.0,66.8 L140.8,66.4 L142.2,91.1 L117.6,92.0 L116.8,69.2 L119.3,69.1 L119.0,62.3 L131.8,61.8 Z" fill="#d6d2c9" stroke="#bab6ad" stroke-width="0.4"></path><path d="M134.0,143.7 L134.1,145.2 L143.2,144.8 L143.9,165.1 L133.8,165.5 L134.0,170.8 L121.2,171.2 L121.0,165.5 L119.4,165.5 L119.3,144.2 L134.0,143.7 Z" fill="#d6d2c9" stroke="#bab6ad" stroke-width="0.4"></path><path d="M190.4,211.9 L190.5,213.7 L194.3,213.6 L194.6,219.4 L195.6,219.3 L196.4,236.3 L202.6,235.9 L203.3,250.1 L182.7,251.1 L180.9,212.3 L190.4,211.9 Z" fill="#d6d2c9" stroke="#bab6ad" stroke-width="0.4"></path><path d="M54.0,218.3 L54.4,244.8 L61.3,244.7 L61.5,255.3 L38.5,256.5 L37.3,228.6 L46.2,228.4 L46.0,218.4 L54.0,218.3 Z" fill="#d6d2c9" stroke="#bab6ad" stroke-width="0.4"></path><path d="M215.4,219.0 L215.4,220.7 L228.5,220.3 L229.5,250.0 L207.9,250.7 L206.3,205.8 L222.2,205.2 L222.7,218.7 L215.4,219.0 Z" fill="#d6d2c9" stroke="#bab6ad" stroke-width="0.4"></path><path d="M22.7,220.3 L23.2,234.7 L31.5,234.5 L32.1,251.6 L25.3,251.8 L25.3,253.4 L16.6,253.7 L16.7,257.7 L9.9,257.9 L8.3,235.5 L11.2,235.4 L10.7,220.7 L22.7,220.3 Z" fill="#d6d2c9" stroke="#bab6ad" stroke-width="0.4"></path><path d="M225.7,57.6 L219.1,57.8 L218.9,47.1 L225.5,47.0 L225.7,57.6 Z" fill="#d6d2c9" stroke="#bab6ad" stroke-width="0.4"></path><path d="M196.2,35.5 L199.3,88.6 L181.1,89.4 L181.2,91.4 L173.9,91.8 L172.3,55.9 L184.4,55.4 L184.8,65.0 L191.1,64.7 L190.9,60.8 L189.2,60.9 L189.0,56.4 L187.9,56.4 L188.0,35.9 L196.2,35.5 Z" fill="#d6d2c9" stroke="#bab6ad" stroke-width="0.4"></path><path d="M60.8,90.2 L60.3,74.1 L64.1,74.0 L63.9,70.5 L83.6,69.9 L84.1,84.3 L76.1,84.6 L76.3,89.7 L60.8,90.2 Z" fill="#d6d2c9" stroke="#bab6ad" stroke-width="0.4"></path><path d="M202.8,213.6 L195.8,213.9 L195.4,202.6 L202.5,202.4 L202.8,213.6 Z" fill="#d6d2c9" stroke="#bab6ad" stroke-width="0.4"></path><path d="M150.9,141.1 L159.1,141.0 L159.2,146.4 L162.8,146.4 L162.8,149.1 L182.0,148.9 L182.1,157.1 L176.0,157.2 L176.1,166.8 L150.4,167.1 L150.3,158.3 L155.2,158.3 L155.1,149.3 L151.1,149.4 L150.9,141.1 Z" fill="#d6d2c9" stroke="#bab6ad" stroke-width="0.4"></path><path d="M229.4,-35.6 L272.8,-36.7 L277.9,-36.4 L281.7,-35.2 L283.5,-33.8 L284.9,-32.8 L288.2,-29.5 L289.4,-25.1 L290.3,12.3 L292.0,85.9 L291.1,88.8 L289.2,92.2 L288.5,92.9 L286.5,95.0 L283.4,96.8 L279.8,98.1 L276.4,98.6 L-32.5,109.8 L-48.4,110.2" fill="none" stroke="#cf828d" stroke-width="1.5" stroke-dasharray="1.6 3.0" opacity="0.62" stroke-linecap="round" stroke-linejoin="round"></path><path d="M-56.8,-26.2 L-31.7,-27.0 L34.2,-29.2 L108.0,-31.6 L224.4,-35.5 L229.4,-35.6" fill="none" stroke="#cf828d" stroke-width="1.5" stroke-dasharray="1.6 3.0" opacity="0.62" stroke-linecap="round" stroke-linejoin="round"></path><path d="M-49.1,270.1 L-46.4,271.1 L-44.0,271.5 L-40.4,271.6 L261.2,260.8 L284.1,259.7 L287.8,259.0 L290.6,257.9 L293.3,255.7 L295.5,252.9 L297.0,250.2 L297.8,247.7 L298.2,244.4 L297.9,236.2 L294.2,138.2 L293.5,135.1 L292.2,132.0 L290.4,129.6 L288.2,127.6 L285.8,125.9 L283.2,125.0 L280.4,124.7 L277.1,124.6 L-46.1,136.4 L-49.5,136.8" fill="none" stroke="#cf828d" stroke-width="1.5" stroke-dasharray="1.6 3.0" opacity="0.62" stroke-linecap="round" stroke-linejoin="round"></path><path d="M33.2,-43.2 L34.2,-29.2 L34.5,-24.7 L36.6,22.3 L51.7,22.0 L92.7,21.3 L99.8,18.7 L104.2,12.7 L109.2,3.7 L109.4,-1.7" fill="none" stroke="#cec8bb" stroke-width="3.5" stroke-linecap="round" stroke-linejoin="round"/><path d="M33.2,-43.2 L34.2,-29.2 L34.5,-24.7 L36.6,22.3 L51.7,22.0 L92.7,21.3 L99.8,18.7 L104.2,12.7 L109.2,3.7 L109.4,-1.7" fill="none" stroke="#ffffff" stroke-width="2.5" stroke-linecap="round" stroke-linejoin="round"></path><path d="M223.6,-50.2 L224.4,-35.5 L227.2,15.3 L191.4,15.3" fill="none" stroke="#cec8bb" stroke-width="3.5" stroke-linecap="round" stroke-linejoin="round"/><path d="M223.6,-50.2 L224.4,-35.5 L227.2,15.3 L191.4,15.3" fill="none" stroke="#ffffff" stroke-width="2.5" stroke-linecap="round" stroke-linejoin="round"></path><path d="M227.2,15.3 L281.8,12.7 L290.3,12.3 L302.0,11.9" fill="none" stroke="#cec8bb" stroke-width="3.5" stroke-linecap="round" stroke-linejoin="round"/><path d="M227.2,15.3 L281.8,12.7 L290.3,12.3 L302.0,11.9" fill="none" stroke="#ffffff" stroke-width="2.5" stroke-linecap="round" stroke-linejoin="round"></path><path d="M306.2,110.6 L293.4,111.2 L287.4,111.5 L-54.3,123.4" fill="none" stroke="#cec8bb" stroke-width="4.8" stroke-linecap="round" stroke-linejoin="round"/><path d="M306.2,110.6 L293.4,111.2 L287.4,111.5 L-54.3,123.4" fill="none" stroke="#ffffff" stroke-width="3.7" stroke-linecap="round" stroke-linejoin="round"><title>Southwest 22nd Terrace</title></path><text x="128.0" y="117.1" transform="rotate(-2.0 128.0 117.1)" text-anchor="middle" dominant-baseline="central" font-family="Arial, sans-serif" font-size="8.3" textLength="116.9" lengthAdjust="spacing" font-weight="650" paint-order="stroke" stroke="#fffaf0" stroke-width="2.05" stroke-linejoin="round" fill="#695f54">Southwest 22nd Terrace</text><text x="15.0" y="16.5" text-anchor="middle" font-family="Arial, sans-serif" font-size="6.5" textLength="18.0" lengthAdjust="spacing" font-weight="500" paint-order="stroke" stroke="#f3f5ee" stroke-width="1.55" stroke-linejoin="round" fill="#6f777a">2050</text><text x="241.0" y="155.8" text-anchor="middle" font-family="Arial, sans-serif" font-size="6.5" textLength="18.0" lengthAdjust="spacing" font-weight="500" paint-order="stroke" stroke="#f3f5ee" stroke-width="1.55" stroke-linejoin="round" fill="#6f777a">1914</text><text x="156.1" y="76.6" text-anchor="middle" font-family="Arial, sans-serif" font-size="6.5" textLength="18.0" lengthAdjust="spacing" font-weight="500" paint-order="stroke" stroke="#f3f5ee" stroke-width="1.55" stroke-linejoin="round" fill="#6f777a">1941</text><text x="42.4" y="72.5" text-anchor="middle" font-family="Arial, sans-serif" font-size="6.5" textLength="18.0" lengthAdjust="spacing" font-weight="500" paint-order="stroke" stroke="#f3f5ee" stroke-width="1.55" stroke-linejoin="round" fill="#6f777a">2007</text><text x="99.6" y="152.1" text-anchor="middle" font-family="Arial, sans-serif" font-size="6.5" textLength="18.0" lengthAdjust="spacing" font-weight="500" paint-order="stroke" stroke="#f3f5ee" stroke-width="1.55" stroke-linejoin="round" fill="#6f777a">1952</text><text x="15.4" y="80.6" text-anchor="middle" font-family="Arial, sans-serif" font-size="6.5" textLength="18.0" lengthAdjust="spacing" font-weight="500" paint-order="stroke" stroke="#f3f5ee" stroke-width="1.55" stroke-linejoin="round" fill="#6f777a">2015</text><text x="17.7" y="158.7" text-anchor="middle" font-family="Arial, sans-serif" font-size="6.5" textLength="18.0" lengthAdjust="spacing" font-weight="500" paint-order="stroke" stroke="#f3f5ee" stroke-width="1.55" stroke-linejoin="round" fill="#6f777a">2044</text><text x="213.4" y="153.1" text-anchor="middle" font-family="Arial, sans-serif" font-size="6.5" textLength="18.0" lengthAdjust="spacing" font-weight="500" paint-order="stroke" stroke="#f3f5ee" stroke-width="1.55" stroke-linejoin="round" fill="#6f777a">1924</text><text x="73.9" y="168.5" text-anchor="middle" font-family="Arial, sans-serif" font-size="6.5" textLength="18.0" lengthAdjust="spacing" font-weight="500" paint-order="stroke" stroke="#f3f5ee" stroke-width="1.55" stroke-linejoin="round" fill="#6f777a">1954</text><text x="155.6" y="235.0" text-anchor="middle" font-family="Arial, sans-serif" font-size="6.5" textLength="18.0" lengthAdjust="spacing" font-weight="500" paint-order="stroke" stroke="#f3f5ee" stroke-width="1.55" stroke-linejoin="round" fill="#6f777a">1941</text><text x="215.6" y="72.7" text-anchor="middle" font-family="Arial, sans-serif" font-size="6.5" textLength="18.0" lengthAdjust="spacing" font-weight="500" paint-order="stroke" stroke="#f3f5ee" stroke-width="1.55" stroke-linejoin="round" fill="#6f777a">1923</text><text x="75.1" y="239.5" text-anchor="middle" font-family="Arial, sans-serif" font-size="6.5" textLength="18.0" lengthAdjust="spacing" font-weight="500" paint-order="stroke" stroke="#f3f5ee" stroke-width="1.55" stroke-linejoin="round" fill="#6f777a">2001</text><text x="45.1" y="161.8" text-anchor="middle" font-family="Arial, sans-serif" font-size="6.5" textLength="18.0" lengthAdjust="spacing" font-weight="500" paint-order="stroke" stroke="#f3f5ee" stroke-width="1.55" stroke-linejoin="round" fill="#6f777a">2034</text><text x="114.2" y="240.1" text-anchor="middle" font-family="Arial, sans-serif" font-size="6.5" textLength="18.0" lengthAdjust="spacing" font-weight="500" paint-order="stroke" stroke="#f3f5ee" stroke-width="1.55" stroke-linejoin="round" fill="#6f777a">1951</text><text x="241.0" y="236.5" text-anchor="middle" font-family="Arial, sans-serif" font-size="6.5" textLength="18.0" lengthAdjust="spacing" font-weight="500" paint-order="stroke" stroke="#f3f5ee" stroke-width="1.55" stroke-linejoin="round" fill="#6f777a">1911</text><text x="127.5" y="72.3" text-anchor="middle" font-family="Arial, sans-serif" font-size="6.5" textLength="18.0" lengthAdjust="spacing" font-weight="500" paint-order="stroke" stroke="#f3f5ee" stroke-width="1.55" stroke-linejoin="round" fill="#6f777a">1947</text><text x="130.4" y="158.2" text-anchor="middle" font-family="Arial, sans-serif" font-size="6.5" textLength="18.0" lengthAdjust="spacing" font-weight="500" paint-order="stroke" stroke="#f3f5ee" stroke-width="1.55" stroke-linejoin="round" fill="#6f777a">1946</text><text x="193.1" y="226.4" text-anchor="middle" font-family="Arial, sans-serif" font-size="6.5" textLength="18.0" lengthAdjust="spacing" font-weight="500" paint-order="stroke" stroke="#f3f5ee" stroke-width="1.55" stroke-linejoin="round" fill="#6f777a">1925</text><text x="49.9" y="236.9" text-anchor="middle" font-family="Arial, sans-serif" font-size="6.5" textLength="18.0" lengthAdjust="spacing" font-weight="500" paint-order="stroke" stroke="#f3f5ee" stroke-width="1.55" stroke-linejoin="round" fill="#6f777a">2013</text><text x="218.5" y="223.8" text-anchor="middle" font-family="Arial, sans-serif" font-size="6.5" textLength="18.0" lengthAdjust="spacing" font-weight="500" paint-order="stroke" stroke="#f3f5ee" stroke-width="1.55" stroke-linejoin="round" fill="#6f777a">1923</text><text x="19.5" y="242.3" text-anchor="middle" font-family="Arial, sans-serif" font-size="6.5" textLength="18.0" lengthAdjust="spacing" font-weight="500" paint-order="stroke" stroke="#f3f5ee" stroke-width="1.55" stroke-linejoin="round" fill="#6f777a">2017</text><text x="186.4" y="64.9" text-anchor="middle" font-family="Arial, sans-serif" font-size="6.5" textLength="18.0" lengthAdjust="spacing" font-weight="500" paint-order="stroke" stroke="#f3f5ee" stroke-width="1.55" stroke-linejoin="round" fill="#6f777a">1933</text><text x="71.2" y="79.7" text-anchor="middle" font-family="Arial, sans-serif" font-size="6.5" textLength="18.0" lengthAdjust="spacing" font-weight="500" paint-order="stroke" stroke="#f3f5ee" stroke-width="1.55" stroke-linejoin="round" fill="#6f777a">2001</text><text x="103.3" y="63.4" text-anchor="middle" font-family="Arial, sans-serif" font-size="6.5" textLength="18.0" lengthAdjust="spacing" font-weight="500" paint-order="stroke" stroke="#f3f5ee" stroke-width="1.55" stroke-linejoin="round" fill="#6f777a">1955</text><text x="168.8" y="158.7" text-anchor="middle" font-family="Arial, sans-serif" font-size="6.5" textLength="18.0" lengthAdjust="spacing" font-weight="500" paint-order="stroke" stroke="#f3f5ee" stroke-width="1.55" stroke-linejoin="round" fill="#6f777a">1938</text></svg>