<svg xmlns="http://www.w3.org/2000/svg" width="256" height="256" viewBox="0 0 256 256"><rect width="256" height="256" fill="#f1efe7"/><path d="M118.7,153.2 L102.3,153.8 L101.2,125.2 L117.7,124.6 L118.7,153.2 Z" fill="#d6d2c9" stroke="#bab6ad" stroke-width="0.4"></path><path d="M50.1,176.0 L37.2,176.2 L37.0,164.8 L49.9,164.6 L50.1,176.0 Z" fill="#d6d2c9" stroke="#bab6ad" stroke-width="0.4"></path><path d="M192.7,-4.7 L193.0,6.1 L194.2,6.1 L194.5,16.6 L174.1,17.2 L173.7,2.5 L185.5,2.2 L185.3,-4.5 L189.0,-4.6 L192.7,-4.7 Z" fill="#d6d2c9" stroke="#bab6ad" stroke-width="0.4"></path><path d="M38.0,-21.6 L38.7,8.1 L26.3,8.4 L26.3,4.6 L22.3,4.7 L21.6,-21.2 L38.0,-21.6 Z" fill="#d6d2c9" stroke="#bab6ad" stroke-width="0.4"></path><path d="M84.1,75.2 L75.8,75.5 L75.0,53.7 L79.0,53.6 L78.8,48.1 L85.1,47.9 L91.4,47.7 L92.4,74.9 L84.1,75.2 Z" fill="#d6d2c9" stroke="#bab6ad" stroke-width="0.4"></path><path d="M95.0,157.3 L77.1,157.9 L76.2,127.8 L98.2,127.2 L98.6,138.2 L94.4,138.4 L95.0,157.3 Z" fill="#d6d2c9" stroke="#bab6ad" stroke-width="0.4"></path><path d="M71.0,226.9 L55.3,227.4 L54.3,199.4 L70.0,198.8 L71.0,226.9 Z" fill="#d6d2c9" stroke="#bab6ad" stroke-width="0.4"></path><path d="M56.2,1.3 L50.2,1.5 L49.4,-18.6 L66.6,-19.4 L67.3,-3.9 L56.0,-3.5 L56.2,1.3 Z" fill="#d6d2c9" stroke="#bab6ad" stroke-width="0.4"></path><path d="M212.1,122.4 L213.6,157.4 L201.7,158.0 L201.2,144.6 L178.7,143.2 L178.2,127.5 L200.4,127.4 L200.2,123.0 L212.1,122.4 Z" fill="#d6d2c9" stroke="#bab6ad" stroke-width="0.4"></path><path d="M13.4,56.0 L13.5,60.1 L15.7,60.0 L16.5,77.4 L9.5,77.7 L9.7,82.1 L1.5,82.5 L0.5,60.5 L2.1,60.4 L1.9,56.5 L13.4,56.0 Z" fill="#d6d2c9" stroke="#bab6ad" stroke-width="0.4"></path><path d="M34.5,127.5 L34.5,128.5 L47.3,127.9 L47.7,137.0 L42.2,137.3 L42.9,152.1 L41.9,152.1 L42.0,157.0 L27.9,157.2 L26.4,133.4 L27.0,127.9 L34.5,127.5 Z" fill="#d6d2c9" stroke="#bab6ad" stroke-width="0.4"></path><path d="M198.0,199.0 L198.2,205.4 L200.3,205.3 L201.1,222.4 L192.9,222.8 L184.6,223.1 L183.9,205.4 L189.6,205.2 L189.3,199.3 L198.0,199.0 Z" fill="#d6d2c9" stroke="#bab6ad" stroke-width="0.4"></path><path d="M-7.5,207.3 L-7.5,209.4 L-0.0,209.0 L0.8,231.0 L-14.0,231.6 L-15.0,207.6 L-11.3,207.4 L-7.5,207.3 Z" fill="#d6d2c9" stroke="#bab6ad" stroke-width="0.4"></path><path d="M88.2,-13.4 L88.5,-6.5 L90.8,-6.6 L91.1,1.8 L83.6,2.1 L83.8,5.0 L72.0,5.5 L71.0,-22.7 L79.2,-23.0 L79.2,-24.3 L92.9,-24.8 L93.3,-13.6 L88.2,-13.4 Z" fill="#d6d2c9" stroke="#bab6ad" stroke-width="0.4"></path><path d="M204.0,-29.8 L204.2,-23.6 L212.0,-23.8 L213.2,8.9 L210.4,9.0 L210.5,11.9 L204.0,12.2 L203.8,9.3 L196.8,9.6 L196.4,-1.2 L197.4,-1.2 L196.4,-29.6 L204.0,-29.8 Z" fill="#d6d2c9" stroke="#bab6ad" stroke-width="0.4"></path><path d="M155.1,43.2 L155.5,54.6 L166.1,54.3 L166.7,71.9 L158.5,72.2 L150.3,72.4 L149.1,33.2 L165.1,32.7 L165.2,37.8 L165.4,42.9 L155.1,43.2 Z" fill="#d6d2c9" stroke="#bab6ad" stroke-width="0.4"></path><path d="M46.0,229.0 L30.8,229.5 L29.9,202.6 L45.1,202.1 L46.0,229.0 Z" fill="#d6d2c9" stroke="#bab6ad" stroke-width="0.4"></path><path d="M15.9,10.8 L-2.8,11.6 L-4.1,-19.6 L5.6,-20.0 L5.5,-22.3 L14.6,-22.7 L15.9,10.8 Z" fill="#d6d2c9" stroke="#bab6ad" stroke-width="0.4"></path><path d="M120.4,197.6 L121.0,214.3 L126.4,214.1 L126.9,225.9 L106.7,226.7 L106.5,221.2 L105.1,221.3 L104.2,198.3 L120.4,197.6 Z" fill="#d6d2c9" stroke="#bab6ad" stroke-width="0.4"></path><path d="M66.3,26.8 L66.6,32.0 L68.7,31.8 L69.8,51.1 L59.2,51.7 L58.8,43.5 L54.7,43.7 L53.8,27.5 L60.0,27.1 L66.3,26.8 Z" fill="#d6d2c9" stroke="#bab6ad" stroke-width="0.4"></path><path d="M221.5,220.1 L206.0,220.6 L205.5,179.1 L208.0,179.1 L207.8,173.7 L213.9,173.5 L220.0,173.3 L221.5,220.1 Z" fill="#d6d2c9" stroke="#bab6ad" stroke-width="0.4"></path><path d="M95.6,198.8 L96.1,216.9 L101.6,216.7 L101.9,226.5 L81.5,227.1 L81.3,222.1 L79.6,222.2 L78.9,199.4 L95.6,198.8 Z" fill="#d6d2c9" stroke="#bab6ad" stroke-width="0.4"></path><path d="M136.9,43.2 L137.2,53.3 L143.0,53.1 L143.5,73.1 L124.5,73.7 L123.9,53.9 L124.9,53.8 L124.6,43.6 L136.9,43.2 Z" fill="#d6d2c9" stroke="#bab6ad" stroke-width="0.4"></path><path d="M14.6,204.3 L14.7,207.3 L18.9,207.2 L19.3,217.9 L26.8,217.6 L27.2,228.4 L19.6,228.7 L19.7,230.1 L5.2,230.6 L4.3,204.7 L14.6,204.3 Z" fill="#d6d2c9" stroke="#bab6ad" stroke-width="0.4"></path><path d="M213.2,50.1 L213.9,63.1 L215.3,63.0 L215.5,66.6 L203.1,67.3 L202.0,47.0 L214.5,46.4 L214.7,50.1 L213.2,50.1 Z" fill="#d6d2c9" stroke="#bab6ad" stroke-width="0.4"></path><path d="M152.1,222.5 L130.0,223.4 L129.0,196.8 L151.1,195.9 L152.1,222.5 Z" fill="#d6d2c9" stroke="#bab6ad" stroke-width="0.4"></path><path d="M171.4,197.4 L171.8,211.4 L178.1,211.2 L178.5,223.7 L172.3,223.9 L172.4,228.1 L166.1,228.3 L166.1,226.6 L163.8,226.7 L163.7,224.7 L155.1,225.0 L154.6,210.8 L157.3,210.7 L156.9,197.9 L171.4,197.4 Z" fill="#d6d2c9" stroke="#bab6ad" stroke-width="0.4"></path><path d="M156.3,122.4 L156.3,124.6 L165.5,124.4 L165.6,125.6 L172.3,125.4 L172.5,133.7 L172.8,142.0 L156.4,142.4 L156.1,134.6 L151.3,134.7 L151.0,122.6 L153.6,122.5 L156.3,122.4 Z" fill="#d6d2c9" stroke="#bab6ad" stroke-width="0.4"></path><path d="M186.0,48.1 L186.2,52.8 L194.6,52.5 L195.3,68.3 L185.9,68.7 L186.0,70.8 L181.3,71.0 L181.2,68.5 L174.7,68.8 L173.9,48.6 L186.0,48.1 Z" fill="#d6d2c9" stroke="#bab6ad" stroke-width="0.4"></path><path d="M74.7,166.5 L52.7,167.4 L51.2,128.7 L73.2,127.9 L74.7,166.5 Z" fill="#d6d2c9" stroke="#bab6ad" stroke-width="0.4"></path><path d="M120.4,71.1 L99.6,72.2 L98.5,50.1 L109.1,49.6 L108.9,46.9 L114.0,46.6 L119.1,46.4 L120.4,71.1 Z" fill="#d6d2c9" stroke="#bab6ad" stroke-width="0.4"></path><path d="M130.7,-10.1 L130.9,-7.0 L137.2,-7.3 L137.6,1.1 L143.8,0.8 L144.4,12.5 L123.0,13.4 L121.9,-9.7 L130.7,-10.1 Z" fill="#d6d2c9" stroke="#bab6ad" stroke-width="0.4"></path><path d="M42.3,76.7 L26.0,77.0 L25.7,64.8 L25.4,52.6 L41.8,52.2 L42.3,76.7 Z" fill="#d6d2c9" stroke="#bab6ad" stroke-width="0.4"></path><path d="M19.7,131.2 L20.5,154.1 L13.6,154.4 L13.4,147.4 L3.4,147.7 L3.1,136.9 L11.9,136.6 L11.7,131.5 L19.7,131.2 Z" fill="#d6d2c9" stroke="#bab6ad" stroke-width="0.4"></path><path d="M623.2,233.2 L243.1,247.4 L-133.4,261.3" fill="none" stroke="#cec8bb" stroke-width="4.8" stroke-linecap="round" stroke-linejoin="round"/><path d="M623.2,233.2 L243.1,247.4 L-133.4,261.3" fill="none" stroke="#ffffff" stroke-width="3.7" stroke-linecap="round" stroke-linejoin="round"><title>Northwest 47th Terrace</title></path><path d="M546.6,82.5 L238.3,96.3 L-140.0,108.1" fill="none" stroke="#cec8bb" stroke-width="4.8" stroke-linecap="round" stroke-linejoin="round"/><path d="M546.6,82.5 L238.3,96.3 L-140.0,108.1" fill="none" stroke="#ffffff" stroke-width="3.7" stroke-linecap="round" stroke-linejoin="round"><title>Northwest 48th Street</title></path><path d="M248.9,400.9 L243.1,247.4 L238.3,96.3 L232.6,-17.9 L231.4,-59.2" fill="none" stroke="#cec8bb" stroke-width="4.8" stroke-linecap="round" stroke-linejoin="round"/><path d="M248.9,400.9 L243.1,247.4 L238.3,96.3 L232.6,-17.9 L231.4,-59.2" fill="none" stroke="#ffffff" stroke-width="3.7" stroke-linecap="round" stroke-linejoin="round"><title>Northwest 18th Avenue</title></path><text x="127.1" y="99.8" transform="rotate(-1.8 127.1 99.8)" text-anchor="middle" dominant-baseline="central" font-family="Arial, sans-serif" font-size="8.3" textLength="111.6" lengthAdjust="spacing" font-weight="650" paint-order="stroke" stroke="#fffaf0" stroke-width="2.05" stroke-linejoin="round" fill="#695f54">Northwest 48th Street</text><text x="110.0" y="139.2" text-anchor="middle" font-family="Arial, sans-serif" font-size="6.5" textLength="18.0" lengthAdjust="spacing" font-weight="500" paint-order="stroke" stroke="#f3f5ee" stroke-width="1.55" stroke-linejoin="round" fill="#6f777a">1828</text><text x="82.7" y="59.6" text-anchor="middle" font-family="Arial, sans-serif" font-size="6.5" textLength="18.0" lengthAdjust="spacing" font-weight="500" paint-order="stroke" stroke="#f3f5ee" stroke-width="1.55" stroke-linejoin="round" fill="#6f777a">1841</text><text x="89.9" y="141.1" text-anchor="middle" font-family="Arial, sans-serif" font-size="6.5" textLength="18.0" lengthAdjust="spacing" font-weight="500" paint-order="stroke" stroke="#f3f5ee" stroke-width="1.55" stroke-linejoin="round" fill="#6f777a">1842</text><text x="62.7" y="213.1" text-anchor="middle" font-family="Arial, sans-serif" font-size="6.5" textLength="18.0" lengthAdjust="spacing" font-weight="500" paint-order="stroke" stroke="#f3f5ee" stroke-width="1.55" stroke-linejoin="round" fill="#6f777a">1845</text><text x="198.2" y="137.9" text-anchor="middle" font-family="Arial, sans-serif" font-size="6.5" textLength="18.0" lengthAdjust="spacing" font-weight="500" paint-order="stroke" stroke="#f3f5ee" stroke-width="1.55" stroke-linejoin="round" fill="#6f777a">1800</text><text x="15.0" y="67.3" text-anchor="middle" font-family="Arial, sans-serif" font-size="6.5" textLength="18.0" lengthAdjust="spacing" font-weight="500" paint-order="stroke" stroke="#f3f5ee" stroke-width="1.55" stroke-linejoin="round" fill="#6f777a">1855</text><text x="37.7" y="139.8" text-anchor="middle" font-family="Arial, sans-serif" font-size="6.5" textLength="18.0" lengthAdjust="spacing" font-weight="500" paint-order="stroke" stroke="#f3f5ee" stroke-width="1.55" stroke-linejoin="round" fill="#6f777a">1852</text><text x="193.1" y="209.8" text-anchor="middle" font-family="Arial, sans-serif" font-size="6.5" textLength="18.0" lengthAdjust="spacing" font-weight="500" paint-order="stroke" stroke="#f3f5ee" stroke-width="1.55" stroke-linejoin="round" fill="#6f777a">1809</text><text x="159.7" y="51.5" text-anchor="middle" font-family="Arial, sans-serif" font-size="6.5" textLength="18.0" lengthAdjust="spacing" font-weight="500" paint-order="stroke" stroke="#f3f5ee" stroke-width="1.55" stroke-linejoin="round" fill="#6f777a">1815</text><text x="37.9" y="215.8" text-anchor="middle" font-family="Arial, sans-serif" font-size="6.5" textLength="18.0" lengthAdjust="spacing" font-weight="500" paint-order="stroke" stroke="#f3f5ee" stroke-width="1.55" stroke-linejoin="round" fill="#6f777a">1853</text><text x="114.6" y="214.9" text-anchor="middle" font-family="Arial, sans-serif" font-size="6.5" textLength="18.0" lengthAdjust="spacing" font-weight="500" paint-order="stroke" stroke="#f3f5ee" stroke-width="1.55" stroke-linejoin="round" fill="#6f777a">1831</text><text x="62.0" y="37.2" text-anchor="middle" font-family="Arial, sans-serif" font-size="6.5" textLength="18.0" lengthAdjust="spacing" font-weight="500" paint-order="stroke" stroke="#f3f5ee" stroke-width="1.55" stroke-linejoin="round" fill="#6f777a">1845</text><text x="134.7" y="135.7" text-anchor="middle" font-family="Arial, sans-serif" font-size="6.5" textLength="18.0" lengthAdjust="spacing" font-weight="500" paint-order="stroke" stroke="#f3f5ee" stroke-width="1.55" stroke-linejoin="round" fill="#6f777a">1820</text><text x="211.8" y="188.5" text-anchor="middle" font-family="Arial, sans-serif" font-size="6.5" textLength="18.0" lengthAdjust="spacing" font-weight="500" paint-order="stroke" stroke="#f3f5ee" stroke-width="1.55" stroke-linejoin="round" fill="#6f777a">1805</text><text x="89.6" y="216.2" text-anchor="middle" font-family="Arial, sans-serif" font-size="6.5" textLength="18.0" lengthAdjust="spacing" font-weight="500" paint-order="stroke" stroke="#f3f5ee" stroke-width="1.55" stroke-linejoin="round" fill="#6f777a">1837</text><text x="132.3" y="56.0" text-anchor="middle" font-family="Arial, sans-serif" font-size="6.5" textLength="18.0" lengthAdjust="spacing" font-weight="500" paint-order="stroke" stroke="#f3f5ee" stroke-width="1.55" stroke-linejoin="round" fill="#6f777a">1825</text><text x="17.0" y="217.7" text-anchor="middle" font-family="Arial, sans-serif" font-size="6.5" textLength="18.0" lengthAdjust="spacing" font-weight="500" paint-order="stroke" stroke="#f3f5ee" stroke-width="1.55" stroke-linejoin="round" fill="#6f777a">1861</text><text x="211.5" y="56.7" text-anchor="middle" font-family="Arial, sans-serif" font-size="6.5" textLength="18.0" lengthAdjust="spacing" font-weight="500" paint-order="stroke" stroke="#f3f5ee" stroke-width="1.55" stroke-linejoin="round" fill="#6f777a">4800</text><text x="140.5" y="209.6" text-anchor="middle" font-family="Arial, sans-serif" font-size="6.5" textLength="18.0" lengthAdjust="spacing" font-weight="500" paint-order="stroke" stroke="#f3f5ee" stroke-width="1.55" stroke-linejoin="round" fill="#6f777a">1825</text><text x="166.3" y="217.6" text-anchor="middle" font-family="Arial, sans-serif" font-size="6.5" textLength="18.0" lengthAdjust="spacing" font-weight="500" paint-order="stroke" stroke="#f3f5ee" stroke-width="1.55" stroke-linejoin="round" fill="#6f777a">1817</text><text x="160.8" y="129.6" text-anchor="middle" font-family="Arial, sans-serif" font-size="6.5" textLength="18.0" lengthAdjust="spacing" font-weight="500" paint-order="stroke" stroke="#f3f5ee" stroke-width="1.55" stroke-linejoin="round" fill="#6f777a">1812</text><text x="184.5" y="61.8" text-anchor="middle" font-family="Arial, sans-serif" font-size="6.5" textLength="18.0" lengthAdjust="spacing" font-weight="500" paint-order="stroke" stroke="#f3f5ee" stroke-width="1.55" stroke-linejoin="round" fill="#6f777a">1811</text><text x="63.0" y="147.6" text-anchor="middle" font-family="Arial, sans-serif" font-size="6.5" textLength="18.0" lengthAdjust="spacing" font-weight="500" paint-order="stroke" stroke="#f3f5ee" stroke-width="1.55" stroke-linejoin="round" fill="#6f777a">1848</text><text x="109.9" y="54.7" text-anchor="middle" font-family="Arial, sans-serif" font-size="6.5" textLength="18.0" lengthAdjust="spacing" font-weight="500" paint-order="stroke" stroke="#f3f5ee" stroke-width="1.55" stroke-linejoin="round" fill="#6f777a">1835</text><text x="15.0" y="142.5" text-anchor="middle" font-family="Arial, sans-serif" font-size="6.5" textLength="18.0" lengthAdjust="spacing" font-weight="500" paint-order="stroke" stroke="#f3f5ee" stroke-width="1.55" stroke-linejoin="round" fill="#6f777a">1860</text></svg>