<svg xmlns="http://www.w3.org/2000/svg" width="256" height="256" viewBox="0 0 256 256"><defs><pattern id="park-dots" width="22" height="22" patternUnits="userSpaceOnUse"><circle cx="5" cy="5" r="2.1" fill="#63a95d" fill-opacity="0.26"/><circle cx="16" cy="7" r="1.55" fill="#76b970" fill-opacity="0.23"/><circle cx="10" cy="17" r="1.9" fill="#61a65b" fill-opacity="0.24"/><circle cx="21" cy="17" r="1.25" fill="#80c174" fill-opacity="0.18"/><circle cx="1" cy="19" r="1.2" fill="#70b46a" fill-opacity="0.17"/></pattern><pattern id="park-canopy" width="54" height="48" patternUnits="userSpaceOnUse"><circle cx="12" cy="11" r="3.6" fill="#5ea75a" fill-opacity="0.22"/><circle cx="31" cy="15" r="2.9" fill="#75ba6d" fill-opacity="0.18"/><circle cx="45" cy="31" r="3.3" fill="#67ae62" fill-opacity="0.20"/><circle cx="19" cy="39" r="2.5" fill="#83c378" fill-opacity="0.16"/></pattern></defs><rect width="256" height="256" fill="#f1efe7"/><path d="M-4101.4,-1430.9 L-3994.0,-1475.5 L-3960.4,-1491.6 L-3810.1,-1563.8 L-3781.9,-1536.5 L-3779.4,-1534.2 L-3726.8,-1579.2 L-3714.2,-1588.8 L-3693.3,-1607.7 L-3575.2,-1716.1 L-3479.9,-1824.9 L-3476.3,-1831.8 L-3472.8,-1835.8 L-3467.2,-1842.1 L-3461.6,-1848.6 L-3459.3,-1851.3 L-3496.9,-1899.8 L-3447.2,-1929.6 L-3420.2,-1893.7 L-3382.1,-1937.3 L-3414.4,-1980.1 L-3374.4,-2021.7 L-3343.7,-1981.2 L-3308.3,-2021.4 L-3293.3,-2031.2 L-3219.7,-2079.0 L-3183.3,-2103.1 L-3139.5,-2132.0 L-3118.8,-2145.5 L-3066.4,-2179.4 L-3079.9,-2197.2 L-3104.1,-2229.5 L-3041.6,-2269.2 L-3018.8,-2281.0 L-3017.1,-2282.2 L-3005.1,-2291.5 L-2962.3,-2314.3 L-2959.3,-2319.0 L-2947.3,-2327.2 L-2940.8,-2336.7 L-2939.0,-2338.1 L-2928.6,-2342.1 L-2904.9,-2350.6 L-2888.8,-2357.7 L-2831.7,-2384.5 L-2831.0,-2382.6 L-2783.2,-2403.1 L-2763.7,-2378.0 L-2720.1,-2407.1 L-2713.9,-2411.3 L-2713.3,-2411.8 L-2712.7,-2412.6 L-2711.8,-2414.3 L-2711.2,-2415.8 L-2711.0,-2417.7 L-2711.0,-2419.2 L-2711.2,-2420.6 L-2711.4,-2422.3 L-2711.5,-2423.5 L-2711.4,-2424.6 L-2711.1,-2425.7 L-2710.3,-2427.7 L-2709.8,-2428.8 L-2708.6,-2430.7 L-2707.2,-2432.1 L-2700.9,-2434.7 L-2695.6,-2436.6 L-2688.8,-2438.8 L-2685.7,-2439.7 L-2680.1,-2441.5 L-2676.1,-2443.0 L-2670.7,-2445.2 L-2663.3,-2448.4 L-2655.3,-2452.2 L-2651.0,-2454.3 L-2645.6,-2457.0 L-2640.6,-2459.9 L-2635.5,-2462.9 L-2630.4,-2466.2 L-2628.8,-2467.3 L-2618.4,-2475.2 L-2609.7,-2481.9 L-2601.2,-2489.1 L-2593.2,-2496.6 L-2587.5,-2503.1 L-2581.8,-2510.0 L-2574.8,-2519.0 L-2568.4,-2528.0 L-2561.1,-2539.6 L-2556.3,-2548.5 L-2553.3,-2554.2 L-2548.8,-2563.9 L-2545.1,-2572.8 L-2541.7,-2582.4 L-2539.0,-2590.9 L-2536.1,-2604.6 L-2533.9,-2616.8 L-2532.7,-2627.4 L-2531.8,-2639.7 L-2531.6,-2653.0 L-2532.5,-2665.3 L-2534.6,-2681.2 L-2536.7,-2692.1 L-2539.3,-2702.5 L-2542.9,-2714.1 L-2546.1,-2723.1 L-2549.7,-2732.9 L-2553.1,-2740.9 L-2555.4,-2746.2 L-2556.4,-2750.0 L-2556.5,-2753.0 L-2556.2,-2755.6 L-2555.1,-2757.9 L-2553.5,-2759.9 L-2551.4,-2761.0 L-2549.2,-2761.3 L-2543.1,-2759.8 L-2526.3,-2755.8 L-2520.7,-2883.1 L-2498.8,-3110.4 L-2522.6,-3116.1 L-2525.2,-3123.2 L-2525.1,-3133.4 L-2521.8,-3156.7 L-2517.3,-3161.9 L-2513.3,-3177.1 L-2488.1,-3171.2 L-2474.1,-3316.4 L-2470.3,-3356.7 L-2478.1,-3358.6 L-2473.4,-3377.8 L-2489.6,-3381.6 L-2487.5,-3393.4 L-2484.7,-3401.1 L-2481.1,-3410.2 L-2475.1,-3422.8 L-2468.7,-3421.4 L-2459.9,-3512.7 L-2457.9,-3568.1 L-2457.5,-3578.3 L-2452.8,-3613.6 L-2443.4,-3701.5 L-2381.0,-3864.2 L-2366.8,-3908.5 L-2193.5,-3975.0 L-2176.5,-3981.8 L-2173.6,-3983.4 L-2171.2,-3985.5 L-2168.7,-3988.4 L-2166.8,-3991.9 L-2165.5,-3995.3 L-2165.1,-4000.2 L-2165.4,-4006.4 L-2167.7,-4084.1 L-2168.6,-4099.2 L-2168.8,-4109.6 L-2169.1,-4129.6 L-2169.5,-4135.9 L-2170.3,-4141.2 L-2171.4,-4146.0 L-2172.9,-4150.7 L-2175.3,-4156.4 L-2178.9,-4162.5 L-2182.5,-4167.3 L-2185.2,-4171.8 L-2187.9,-4177.8 L-2190.2,-4183.7 L-2191.1,-4188.4 L-2191.8,-4193.6 L-2192.1,-4198.9 L-2192.0,-4204.0 L-2191.4,-4209.9 L-2190.0,-4215.8 L-2188.1,-4221.0 L-2186.2,-4225.8 L-2183.7,-4230.4 L-2180.7,-4235.9 L-2178.6,-4241.0 L-2176.9,-4247.5 L-2173.7,-4252.3 L-2174.8,-4297.0 L-2176.4,-4299.5 L-2177.0,-4329.8 L-2177.8,-4365.6 L-2177.2,-4370.5 L-2175.6,-4375.6 L-2171.6,-4383.5 L-2144.9,-4441.0 L-2144.3,-4442.0 L-2139.6,-4452.2 L-2135.1,-4462.0 L-2130.2,-4472.0 L-2125.2,-4482.2 L-2122.8,-4487.3 L-2096.6,-4541.2 L-2068.5,-4600.8 L-2007.6,-4724.2 L-2044.2,-4765.1 L-2074.0,-4701.7 L-2099.8,-4646.7 L-2103.7,-4638.9 L-2111.6,-4622.7 L-2127.5,-4624.0 L-2131.9,-4624.3 L-2133.4,-4622.8 L-2131.3,-4620.9 L-2139.5,-4613.7 L-2145.9,-4607.7 L-2147.1,-4582.3 L-2149.5,-4577.2 L-2157.3,-4577.5 L-2158.6,-4578.0 L-2260.8,-4620.1 L-2263.0,-4621.3 L-2265.4,-4622.8 L-2269.0,-4625.6 L-2271.9,-4628.3 L-2274.3,-4630.9 L-2276.6,-4634.1 L-2278.4,-4636.9 L-2279.8,-4639.8 L-2281.0,-4642.9 L-2281.7,-4644.9 L-2282.2,-4647.5 L-2282.7,-4650.5 L-2283.1,-4654.6 L-2283.1,-4660.4 L-2283.8,-4680.3 L-2281.0,-4680.5 L-2281.4,-4690.9 L-2281.8,-4708.2 L-2279.2,-4708.3 L-2279.4,-4720.1 L-2282.3,-4720.0 L-2283.7,-4769.8 L-2280.9,-4769.9 L-2281.4,-4781.5 L-2284.1,-4781.4 L-2285.2,-4818.2 L-2271.7,-4832.7 L-2254.5,-4833.3 L-2241.6,-4833.8 L-2224.7,-4834.3 L-2208.4,-4834.9 L-2193.7,-4835.4 L-2187.4,-4835.6 L-2187.7,-4841.3 L-2187.8,-4847.2 L-2188.8,-4866.3 L-2189.1,-4902.9 L-2189.6,-4903.5 L-2189.7,-4907.2 L-2188.6,-4907.2 L-2191.2,-4995.3 L-2193.4,-5078.1 L-2193.8,-5080.7 L-2194.0,-5085.5 L-2230.1,-5084.2 L-2254.1,-5086.3 L-2433.7,-5080.0 L-2433.7,-5081.6 L-2434.1,-5089.3 L-2519.3,-5086.3 L-2519.5,-5100.4 L-2530.7,-5102.9 L-2532.7,-5163.5 L-2201.3,-5175.0 L-2195.8,-5182.6 L-2196.0,-5204.1 L-2196.4,-5222.6 L-2196.7,-5234.3 L-2197.2,-5245.6 L-2223.5,-5258.1 L-2224.6,-5285.6 L-2197.5,-5299.0 L-2200.0,-5362.7 L-2200.7,-5365.9 L-2227.5,-5378.4 L-2228.4,-5412.5 L-2202.9,-5425.7 L-2214.3,-5564.1 L-2211.2,-5625.8 L-2209.8,-5726.2 L-2209.9,-5835.4 L-2207.5,-5850.8 L-2207.3,-5858.1 L-2209.7,-5867.1 L-2207.2,-5867.1 L-2207.2,-5875.1 L-2205.7,-6080.6 L-2205.9,-6089.8 L-2208.8,-6089.7 L-2208.7,-6127.5 L-2210.4,-6129.9 L-2212.9,-6168.9 L-2207.8,-6204.5 L-2208.5,-6247.7 L-2210.2,-6258.0 L-2207.6,-6290.0 L-2209.4,-6328.6 L-2213.9,-6370.0 L-2222.4,-6437.0 L-2218.4,-6455.4 L-2220.1,-6473.4 L-2235.4,-6486.5 L-2257.9,-6486.2 L-2292.1,-6481.7 L-2314.3,-6481.7 L-2334.6,-6489.2 L-2361.1,-6507.4 L-2361.1,-6540.0 L-2361.8,-6580.2 L-2359.2,-6613.6 L-2350.4,-6639.7 L-2203.0,-6642.4 L-2199.7,-6851.4 L-2199.7,-7152.2 L-2201.2,-7261.4 L5754.9,-10547.2 L5754.9,7561.9 L-4101.4,7561.9 L-4101.4,-1430.9 Z" fill="#add7e1" stroke="none"><title>Biscayne Bay</title></path><path d="M149.2,-23.0 L164.2,-6.1 L163.8,2.8 L159.1,12.3 L147.2,13.2 L139.0,10.4 L133.9,3.0 L131.2,-4.5 L133.7,-14.3 L133.9,-17.0 L149.2,-23.0 Z" fill="#dce8e7" stroke="#96bdc1" stroke-width="0.55"></path><path d="M149.2,-23.0 L164.2,-6.1 L169.7,0.1 L173.1,-2.1 L179.8,-6.7 L188.6,-12.8 L187.3,-14.1 L184.9,-16.6 L163.0,-38.9 L149.2,-23.0 Z" fill="#e8ecec" stroke="#d7d1c5" stroke-width="0.3"></path><path d="M137.8,14.5 L127.8,24.5 L111.9,8.4 L121.8,-1.6 L137.8,14.5 Z" fill="#ece7dc" stroke="#d7d1c5" stroke-width="0.3"><title>NOAA - NMFS</title></path><path d="M-3.4,72.7 L12.2,87.5 L-21.0,102.8 L-25.9,97.5 L-23.0,94.8 L-20.8,93.5 L-19.0,93.1 L-16.5,93.1 L-14.5,93.0 L-13.1,92.5 L-12.0,92.1 L-10.5,90.9 L-9.2,89.6 L-8.2,88.0 L-7.4,86.6 L-6.8,84.9 L-6.6,82.2 L-6.4,80.0 L-6.3,78.3 L-6.1,76.8 L-5.4,75.7 L-3.4,72.7 Z" fill="#e8ecec" stroke="#d7d1c5" stroke-width="0.3"></path><path d="M-1217.0,-2969.2 L-191.7,-2762.2 L926.8,-2203.4 L1784.3,-1354.8 L2119.8,-527.0 L1709.7,155.9 L945.4,528.4 L218.4,507.7 L-378.1,93.8 L-937.4,-609.8 L-1627.1,-1416.9 L-1552.5,-2368.9 Z" fill="#f1efe7" stroke="#8ab09d" stroke-width="0.65"><title>Virginia Key</title></path><path d="M68.2,-79.1 L72.4,-75.5 L74.8,-70.4 L75.4,-63.5 L73.6,-55.4 L73.6,-46.2 L75.0,-39.9 L78.2,-36.2 L82.7,-35.2 L82.9,-21.9 L91.8,-22.1 L92.2,3.3 L83.9,13.5 L9.7,-61.9 L68.2,-79.1 Z" fill="#dcf5d2" stroke="#9fcf91" stroke-width="0.4"></path><path d="M68.2,-79.1 L72.4,-75.5 L74.8,-70.4 L75.4,-63.5 L73.6,-55.4 L73.6,-46.2 L75.0,-39.9 L78.2,-36.2 L82.7,-35.2 L82.9,-21.9 L91.8,-22.1 L92.2,3.3 L83.9,13.5 L9.7,-61.9 L68.2,-79.1 Z" fill="url(#park-dots)" stroke="none"/><path d="M68.2,-79.1 L72.4,-75.5 L74.8,-70.4 L75.4,-63.5 L73.6,-55.4 L73.6,-46.2 L75.0,-39.9 L78.2,-36.2 L82.7,-35.2 L82.9,-21.9 L91.8,-22.1 L92.2,3.3 L83.9,13.5 L9.7,-61.9 L68.2,-79.1 Z" fill="url(#park-canopy)" stroke="none"/><path d="M-1571.2,-289.0 L-163.7,-320.1 L1560.6,-216.6 L1840.2,342.1 L814.9,611.1 L-937.4,642.2 L-1608.5,424.9 Z" fill="#add7e1" stroke="none"><title>Bear Cut</title></path><text x="27.5" y="170.7" text-anchor="middle" dominant-baseline="central" font-family="Arial, sans-serif" font-size="8.4" textLength="43.0" lengthAdjust="spacing" font-weight="650" paint-order="stroke" stroke="#e7f7fa" stroke-width="1.75" stroke-linejoin="round" fill="#3d7c89">Bear Cut</text><path d="M-1813.5,-1313.4 L-1142.4,-1437.6 L-396.8,-1385.9 L367.5,-1613.5 L1243.7,-1965.4 L1691.1,-2172.3 L1877.5,-1758.4 L1560.6,-1147.9 L982.7,-671.9 L274.3,-278.7 L-154.4,114.5 L-937.4,228.3 L-1422.0,186.9 L-1794.9,-195.9 Z" fill="#f1efe7" stroke="#8ab09d" stroke-width="0.65"><title>Virginia Key north of Bear Cut</title></path><path d="M116.8,-44.6 L109.3,-36.5 L113.3,-36.5 L113.3,-23.4 L107.8,-23.4 L107.8,-16.6 L113.1,-16.6 L113.0,-1.5 L119.6,-7.3 L122.3,-4.2 L115.2,2.2 L112.5,-0.9 L109.4,-0.8 L109.3,-9.9 L108.6,-9.9 L108.8,3.1 L92.2,3.3 L91.8,-22.1 L82.9,-21.9 L82.7,-35.2 L82.7,-36.7 L91.7,-36.8 L91.6,-44.9 L94.5,-44.9 L94.5,-49.3 L96.6,-50.3 L99.4,-52.3 L101.1,-54.4 L103.2,-58.5 L108.4,-58.4 L108.4,-62.7 L149.8,-62.4 L149.7,-44.4 L116.8,-44.6 Z" fill="#d6d2c9" stroke="#bab6ad" stroke-width="0.4"><title>NOAA Southeast Fisheries Science Center</title></path><path d="M123.6,25.3 L121.2,28.1 L116.9,24.5 L119.2,21.7 L123.6,25.3 Z" fill="#d6d2c9" stroke="#bab6ad" stroke-width="0.4"><title>NOAA</title></path><path d="M11.8,34.8 L11.7,42.4 L4.0,42.3 L4.1,34.7 L11.8,34.8 Z" fill="#d6d2c9" stroke="#bab6ad" stroke-width="0.4"></path><path d="M9.7,-61.9 L68.2,-79.1 L132.1,-98.0 L155.0,-75.6 L175.1,-55.8 L231.2,-0.9 L223.4,4.4 L221.4,1.2 L218.1,-0.4 L210.6,0.7 L200.7,4.8 L181.7,15.4 L144.7,34.7 L119.7,49.4 L9.7,-61.9 Z" fill="#d6d2c9" stroke="#bab6ad" stroke-width="0.4"><title>NOAA - National Marine Fisheries Service</title></path><path d="M73.1,97.3 L100.7,66.4 L119.7,49.4 L144.7,34.7 L149.6,31.8 L151.3,30.9 L181.7,15.4 L200.7,4.8 L202.3,3.9 L210.6,0.7 L218.1,-0.4 L221.4,1.2 L223.4,4.4 L231.2,-0.9 L243.2,-9.1 L251.1,-12.8 L255.7,-14.3 L258.6,-14.2 L260.8,-10.0 L279.1,-23.3 L283.6,-23.3 L288.7,-23.4 L296.8,-31.1 L322.3,-46.1" fill="none" stroke="#79bdd0" stroke-width="1.4" stroke-linecap="round" stroke-linejoin="round"></path><path d="M-48.1,155.8 L-39.4,155.4 L-34.6,151.6 L-27.9,143.4 L-14.6,131.6 L30.7,117.3 L73.1,97.3" fill="none" stroke="#79bdd0" stroke-width="1.4" stroke-linecap="round" stroke-linejoin="round"></path><path d="M78.7,-41.6 L78.2,-36.2 L78.0,-34.1 L79.5,-24.6 L83.4,-12.4 L88.4,-0.9 L92.5,10.3 L99.0,17.1 L106.2,15.0 L109.6,10.4 L111.1,6.3" fill="none" stroke="#eeeeea" stroke-width="1.9" stroke-linecap="round" stroke-linejoin="round"><title>NOAA</title></path><path d="M477.1,493.8 L54.8,74.7" fill="none" stroke="#8fb58e" stroke-width="1.7" opacity="0.58" stroke-linecap="round" stroke-linejoin="round"></path><path d="M72.6,58.2 L494.4,476.2" fill="none" stroke="#8fb58e" stroke-width="1.7" opacity="0.58" stroke-linecap="round" stroke-linejoin="round"><title>Rickenbacker Trail</title></path><path d="M4.2,-19.9 L7.3,-16.2 L9.6,-13.2 L13.3,-7.1 L16.9,-0.8 L20.3,4.3 L22.7,7.4 L25.6,10.8 L28.6,13.9 L41.8,26.7 L72.6,58.2" fill="none" stroke="#8fb58e" stroke-width="1.7" opacity="0.58" stroke-linecap="round" stroke-linejoin="round"><title>Rickenbacker Trail</title></path><path d="M54.8,74.7 L49.9,70.0 L44.7,65.8 L40.3,62.8 L36.9,60.6 L32.5,57.9 L28.6,55.8 L25.2,54.2 L21.0,52.6 L18.1,51.6 L14.7,50.8 L11.7,50.2 L8.8,49.7 L6.1,49.0 L3.5,48.0 L1.6,46.6 L0.3,45.1 L-0.3,43.7 L-0.5,42.1 L-0.5,40.0 L-0.2,37.2 L-0.0,34.4 L-0.1,32.0 L-0.9,28.4 L-1.9,25.3 L-3.0,22.7 L-4.6,20.7 L-7.2,18.2 L-33.6,-6.3 L-59.6,-32.0" fill="none" stroke="#8fb58e" stroke-width="1.7" opacity="0.58" stroke-linecap="round" stroke-linejoin="round"></path><path d="M488.8,481.7 L67.6,63.6" fill="none" stroke="#d1c4aa" stroke-width="6.5" stroke-linecap="round" stroke-linejoin="round"/><path d="M488.8,481.7 L67.6,63.6" fill="none" stroke="#efb36f" stroke-width="5.2" stroke-linecap="round" stroke-linejoin="round"><title>Rickenbacker Causeway</title></path><path d="M60.8,70.2 L482.4,488.4" fill="none" stroke="#d1c4aa" stroke-width="6.5" stroke-linecap="round" stroke-linejoin="round"/><path d="M60.8,70.2 L482.4,488.4" fill="none" stroke="#efb36f" stroke-width="5.2" stroke-linecap="round" stroke-linejoin="round"><title>Rickenbacker Causeway</title></path><path d="M67.6,63.6 L25.8,21.7 L11.3,6.9" fill="none" stroke="#d1c4aa" stroke-width="6.5" stroke-linecap="round" stroke-linejoin="round"/><path d="M67.6,63.6 L25.8,21.7 L11.3,6.9" fill="none" stroke="#efb36f" stroke-width="5.2" stroke-linecap="round" stroke-linejoin="round"><title>Rickenbacker Causeway</title></path><path d="M21.9,31.1 L60.8,70.2" fill="none" stroke="#d1c4aa" stroke-width="6.5" stroke-linecap="round" stroke-linejoin="round"/><path d="M21.9,31.1 L60.8,70.2" fill="none" stroke="#efb36f" stroke-width="5.2" stroke-linecap="round" stroke-linejoin="round"><title>Rickenbacker Causeway</title></path><path d="M11.3,6.9 L-27.7,-33.0" fill="none" stroke="#d1c4aa" stroke-width="6.5" stroke-linecap="round" stroke-linejoin="round"/><path d="M11.3,6.9 L-27.7,-33.0" fill="none" stroke="#efb36f" stroke-width="5.2" stroke-linecap="round" stroke-linejoin="round"><title>Rickenbacker Causeway</title></path><path d="M-51.8,-39.3 L-46.3,-34.0 L21.9,31.1" fill="none" stroke="#d1c4aa" stroke-width="6.5" stroke-linecap="round" stroke-linejoin="round"/><path d="M-51.8,-39.3 L-46.3,-34.0 L21.9,31.1" fill="none" stroke="#efb36f" stroke-width="5.2" stroke-linecap="round" stroke-linejoin="round"><title>Rickenbacker Causeway</title></path><path d="M491.1,469.4 L73.8,56.0 L53.3,76.8 L475.3,494.7" fill="none" stroke="#f3efe5" stroke-width="5.5" stroke-linecap="round" stroke-linejoin="round" opacity="0.95"/><path d="M491.1,469.4 L73.8,56.0 L53.3,76.8 L475.3,494.7" fill="none" stroke="#aeb7ae" stroke-width="3.3" stroke-linecap="round" stroke-linejoin="round" opacity="0.9"><title>Bear Cut Bridge</title></path><g transform="translate(183.9 179.0) rotate(-135.2)"><path d="M -3.6 -3.2 L 4.4 0 L -3.6 3.2 Z" fill="#58656d" opacity="0.46"/></g><g transform="translate(125.8 121.3) rotate(-135.2)"><path d="M -3.6 -3.2 L 4.4 0 L -3.6 3.2 Z" fill="#58656d" opacity="0.46"/></g><g transform="translate(118.5 127.4) rotate(44.8)"><path d="M -3.6 -3.2 L 4.4 0 L -3.6 3.2 Z" fill="#58656d" opacity="0.46"/></g><g transform="translate(176.3 184.7) rotate(44.8)"><path d="M -3.6 -3.2 L 4.4 0 L -3.6 3.2 Z" fill="#58656d" opacity="0.46"/></g><text x="153.8" y="149.2" transform="rotate(44.8 153.8 149.2)" text-anchor="middle" dominant-baseline="central" font-family="Arial, sans-serif" font-size="8.3" textLength="111.6" lengthAdjust="spacing" font-weight="650" paint-order="stroke" stroke="#fffaf0" stroke-width="2.05" stroke-linejoin="round" fill="#6f573d">Rickenbacker Causeway</text></svg>