<svg xmlns="http://www.w3.org/2000/svg" width="256" height="256" viewBox="0 0 256 256"><rect width="256" height="256" fill="#f1efe7"/><path d="M-2562.7,2228.6 L-2509.0,2206.2 L-2492.2,2198.2 L-2417.1,2162.1 L-2402.9,2175.7 L-2401.7,2176.9 L-2375.4,2154.4 L-2369.1,2149.6 L-2358.6,2140.1 L-2299.6,2086.0 L-2252.0,2031.5 L-2250.2,2028.1 L-2248.4,2026.1 L-2245.6,2022.9 L-2242.8,2019.7 L-2241.6,2018.4 L-2260.4,1994.1 L-2235.6,1979.2 L-2222.1,1997.1 L-2203.1,1975.3 L-2219.2,1954.0 L-2199.2,1933.2 L-2183.8,1953.4 L-2166.2,1933.3 L-2158.7,1928.4 L-2121.9,1904.5 L-2103.7,1892.4 L-2081.8,1878.0 L-2071.4,1871.2 L-2045.2,1854.3 L-2052.0,1845.4 L-2064.0,1829.2 L-2032.8,1809.4 L-2021.4,1803.5 L-2020.6,1802.9 L-2014.5,1798.3 L-1993.2,1786.8 L-1991.7,1784.5 L-1985.7,1780.4 L-1982.4,1775.6 L-1981.5,1775.0 L-1976.3,1772.9 L-1964.5,1768.7 L-1956.4,1765.2 L-1927.9,1751.7 L-1927.5,1752.7 L-1903.6,1742.4 L-1893.8,1755.0 L-1872.1,1740.4 L-1869.0,1738.3 L-1868.7,1738.1 L-1868.3,1737.7 L-1867.9,1736.9 L-1867.6,1736.1 L-1867.5,1735.2 L-1867.5,1734.4 L-1867.6,1733.7 L-1867.7,1732.9 L-1867.7,1732.2 L-1867.7,1731.7 L-1867.6,1731.1 L-1867.2,1730.2 L-1866.9,1729.6 L-1866.3,1728.7 L-1865.6,1727.9 L-1862.4,1726.7 L-1859.8,1725.7 L-1856.4,1724.6 L-1854.9,1724.1 L-1852.0,1723.2 L-1850.1,1722.5 L-1847.3,1721.4 L-1843.6,1719.8 L-1839.7,1717.9 L-1837.5,1716.9 L-1834.8,1715.5 L-1832.3,1714.1 L-1829.8,1712.6 L-1827.2,1710.9 L-1826.4,1710.3 L-1821.2,1706.4 L-1816.8,1703.1 L-1812.6,1699.4 L-1808.6,1695.7 L-1805.7,1692.5 L-1802.9,1689.0 L-1799.4,1684.5 L-1796.2,1680.0 L-1792.5,1674.2 L-1790.1,1669.7 L-1788.6,1666.9 L-1786.4,1662.1 L-1784.5,1657.6 L-1782.8,1652.8 L-1781.5,1648.6 L-1780.0,1641.7 L-1778.9,1635.6 L-1778.4,1630.3 L-1777.9,1624.1 L-1777.8,1617.5 L-1778.2,1611.4 L-1779.3,1603.4 L-1780.4,1597.9 L-1781.6,1592.8 L-1783.5,1586.9 L-1785.0,1582.5 L-1786.8,1577.6 L-1788.6,1573.5 L-1789.7,1570.9 L-1790.2,1569.0 L-1790.2,1567.5 L-1790.1,1566.2 L-1789.6,1565.0 L-1788.8,1564.0 L-1787.7,1563.5 L-1786.6,1563.3 L-1783.6,1564.1 L-1775.1,1566.1 L-1772.4,1502.4 L-1761.4,1388.8 L-1773.3,1386.0 L-1774.6,1382.4 L-1774.5,1377.3 L-1772.9,1365.7 L-1770.7,1363.0 L-1768.7,1355.5 L-1756.0,1358.4 L-1749.1,1285.8 L-1747.1,1265.7 L-1751.1,1264.7 L-1748.7,1255.1 L-1756.8,1253.2 L-1755.8,1247.3 L-1754.3,1243.4 L-1752.5,1238.9 L-1749.6,1232.6 L-1746.3,1233.3 L-1742.0,1187.6 L-1740.9,1159.9 L-1740.8,1154.8 L-1738.4,1137.2 L-1733.7,1093.3 L-1702.5,1011.9 L-1695.4,989.8 L-1608.7,956.5 L-1600.3,953.1 L-1598.8,952.3 L-1597.6,951.2 L-1596.4,949.8 L-1595.4,948.0 L-1594.7,946.4 L-1594.6,943.9 L-1594.7,940.8 L-1595.8,901.9 L-1596.3,894.4 L-1596.4,889.2 L-1596.6,879.2 L-1596.8,876.0 L-1597.2,873.4 L-1597.7,871.0 L-1598.4,868.6 L-1599.7,865.8 L-1601.5,862.8 L-1603.2,860.4 L-1604.6,858.1 L-1605.9,855.1 L-1607.1,852.2 L-1607.5,849.8 L-1607.9,847.2 L-1608.1,844.6 L-1608.0,842.0 L-1607.7,839.0 L-1607.0,836.1 L-1606.1,833.5 L-1605.1,831.1 L-1603.8,828.8 L-1602.3,826.0 L-1601.3,823.5 L-1600.5,820.3 L-1598.8,817.8 L-1599.4,795.5 L-1600.2,794.2 L-1600.5,779.1 L-1600.9,761.2 L-1600.6,758.7 L-1599.8,756.2 L-1597.8,752.3 L-1584.4,723.5 L-1584.1,723.0 L-1581.8,717.9 L-1579.6,713.0 L-1577.1,708.0 L-1574.6,702.9 L-1573.4,700.4 L-1560.3,673.4 L-1546.2,643.6 L-1515.8,581.9 L-1534.1,561.4 L-1549.0,593.2 L-1561.9,620.6 L-1563.8,624.5 L-1567.8,632.7 L-1575.7,632.0 L-1577.9,631.9 L-1578.7,632.6 L-1577.7,633.5 L-1581.7,637.2 L-1584.9,640.1 L-1585.5,652.9 L-1586.8,655.4 L-1590.7,655.3 L-1591.3,655.0 L-1642.4,633.9 L-1643.5,633.4 L-1644.7,632.6 L-1646.5,631.2 L-1647.9,629.9 L-1649.1,628.5 L-1650.3,627.0 L-1651.2,625.5 L-1651.9,624.1 L-1652.5,622.6 L-1652.8,621.5 L-1653.1,620.2 L-1653.3,618.7 L-1653.5,616.7 L-1653.5,613.8 L-1653.9,603.8 L-1652.5,603.8 L-1652.7,598.5 L-1652.9,589.9 L-1651.6,589.9 L-1651.7,583.9 L-1653.2,584.0 L-1653.8,559.1 L-1652.5,559.1 L-1652.7,553.2 L-1654.0,553.3 L-1654.6,534.9 L-1647.8,527.6 L-1639.2,527.3 L-1632.8,527.1 L-1624.3,526.8 L-1616.2,526.6 L-1608.9,526.3 L-1605.7,526.2 L-1605.8,523.3 L-1605.9,520.4 L-1606.4,510.8 L-1606.6,492.6 L-1606.8,492.2 L-1606.8,490.4 L-1606.3,490.4 L-1607.6,446.4 L-1608.7,405.0 L-1608.9,403.6 L-1609.0,401.3 L-1627.0,401.9 L-1639.0,400.9 L-1728.8,404.0 L-1728.9,403.2 L-1729.0,399.4 L-1771.6,400.9 L-1771.7,393.8 L-1777.3,392.5 L-1778.4,362.2 L-1612.6,356.5 L-1609.9,352.7 L-1610.0,342.0 L-1610.2,332.7 L-1610.4,326.9 L-1610.6,321.2 L-1623.8,315.0 L-1624.3,301.2 L-1610.8,294.5 L-1612.0,262.6 L-1612.4,261.1 L-1625.8,254.8 L-1626.2,237.7 L-1613.5,231.2 L-1619.1,161.9 L-1617.6,131.1 L-1616.9,80.9 L-1616.9,26.3 L-1615.7,18.6 L-1615.7,14.9 L-1616.9,10.5 L-1615.6,10.5 L-1615.6,6.4 L-1614.9,-96.3 L-1615.0,-100.9 L-1616.4,-100.9 L-1616.4,-119.8 L-1617.2,-121.0 L-1618.5,-140.5 L-1615.9,-158.3 L-1616.2,-179.9 L-1617.1,-185.0 L-1615.8,-201.0 L-1616.7,-220.3 L-1618.9,-241.0 L-1623.2,-274.5 L-1621.2,-283.7 L-1622.1,-292.7 L-1629.7,-299.2 L-1641.0,-299.1 L-1658.0,-296.9 L-1669.2,-296.9 L-1679.3,-300.6 L-1692.5,-309.7 L-1692.5,-326.0 L-1692.9,-346.1 L-1691.6,-362.8 L-1687.2,-375.8 L-1613.5,-377.2 L-1611.8,-481.7 L-1611.8,-632.1 L-1612.6,-686.7 L2365.4,-2329.6 L2365.4,6724.9 L-2562.7,6724.9 L-2562.7,2228.6 Z" fill="#add7e1" stroke="none"><title>Biscayne Bay</title></path><path d="M21.3,1516.3 L384.8,1304.2 L263.6,957.4 L198.4,170.8 L198.4,-445.2 L268.3,-1066.3 L1410.1,-1646.2 L1419.4,-828.2 L1265.6,-103.5 L1125.8,672.8 L1032.6,1293.8 L836.8,1516.3 L21.3,1516.3 Z" fill="#f1efe7" stroke="#8ab09d" stroke-width="0.65"><title>Miami Beach</title></path><path d="M26.8,-41.9 L28.3,-38.8 L31.0,-33.3 L35.7,-25.3 L47.0,-5.3 L45.9,-4.4 L48.1,-1.0 L53.4,5.1 L61.0,11.6 L70.5,16.9 L80.8,22.2 L94.5,29.1 L95.0,28.2 L118.3,39.4 L121.1,40.7 L127.6,43.4 L138.0,45.3 L144.6,45.4 L150.8,44.7 L165.0,42.0 L169.7,39.3 L174.5,35.9 L202.9,12.2 L203.7,13.0 L214.3,4.2 L214.9,3.8 L214.1,2.8 L226.7,-8.4 L229.9,-12.3 L231.5,-15.6 L232.1,-17.9 L232.4,-20.1 L232.3,-21.8 L232.1,-24.1 L230.4,-27.8 L227.2,-33.2 L222.2,-41.6 L222.6,-42.0 L216.8,-52.0 L210.1,-62.9 L200.9,-76.1 L201.4,-81.2 L198.4,-82.8 L196.4,-82.7 L192.5,-88.2 L179.8,-102.6 L165.4,-119.2 L143.3,-133.8 L124.9,-147.1 L121.7,-148.6 L116.4,-150.2 L108.4,-150.9 L102.2,-151.3 L93.0,-151.2 L84.6,-151.2 L78.2,-149.8 L75.6,-149.2 L74.7,-152.3 L64.5,-150.7 L60.8,-149.4 L57.8,-148.0 L54.5,-145.6 L55.3,-143.2 L49.4,-139.8 L44.7,-135.9 L43.1,-137.4 L36.3,-127.7 L38.3,-124.9 L35.5,-120.6 L33.0,-116.5 L30.7,-112.2 L28.2,-106.4 L23.6,-95.1 L20.6,-87.2 L17.9,-72.2 L17.1,-71.6 L17.3,-66.2 L17.9,-64.8 L19.4,-58.0 L22.8,-48.9 L26.8,-41.9 Z" fill="#f1efe7" stroke="#8ab09d" stroke-width="0.65"><title>Belle Isle</title></path><path d="M162.2,-24.2 L169.6,-27.3 L173.8,-12.3 L176.1,-7.2 L178.9,-7.2 L189.5,9.4 L187.3,16.5 L162.2,-24.2 Z" fill="#e8ecec" stroke="#d7d1c5" stroke-width="0.3"></path><path d="M38.3,-124.9 L72.7,-82.8 L75.3,-84.0 L80.8,-84.0 L78.2,-149.8 L93.0,-151.2 L108.4,-150.9 L121.7,-148.6 L143.3,-133.8 L179.8,-102.6 L196.4,-82.7 L201.4,-81.2 L210.1,-62.9 L222.6,-42.0 L227.2,-33.2 L232.1,-24.1 L232.4,-20.1 L231.5,-15.6 L226.7,-8.4 L214.9,3.8 L203.7,13.0 L174.5,35.9 L165.0,42.0 L144.6,45.4 L127.6,43.4 L118.3,39.4 L94.5,29.1 L70.5,16.9 L53.4,5.1 L45.9,-4.4 L35.7,-25.3 L26.8,-41.9 L19.4,-58.0 L17.3,-66.2 L17.9,-72.2 L23.6,-95.1 L30.7,-112.2 L35.5,-120.6 L38.3,-124.9 Z" fill="#ece7dc" stroke="#d7d1c5" stroke-width="0.3"></path><path d="M346.1,396.8 L392.7,379.1 L457.2,291.6 L424.0,278.4 L456.9,246.2 L424.0,231.1 L384.8,-19.5 L373.9,-98.7 L357.7,-103.2 L302.1,-76.2 L281.0,-61.7 L279.6,-60.3 L278.9,-59.6 L278.5,-57.7 L278.5,-55.3 L277.6,-53.6 L278.7,-45.1 L278.6,-35.9 L277.7,-30.8 L279.1,-30.1 L279.3,-12.2 L279.7,-10.9 L278.4,-10.7 L279.2,0.0 L278.9,4.6 L278.9,6.8 L277.8,19.3 L277.7,20.7 L277.3,22.8 L276.8,26.0 L276.5,28.0 L275.2,32.4 L273.5,37.7 L271.9,42.6 L270.5,47.4 L269.1,51.8 L268.0,54.9 L265.4,61.6 L263.5,66.5 L260.5,74.3 L258.8,78.2 L257.5,81.1 L256.4,83.0 L254.5,85.6 L251.1,90.7 L249.3,92.9 L247.9,94.9 L246.5,97.1 L243.6,101.6 L241.8,104.2 L239.5,107.6 L237.4,110.9 L236.3,113.0 L235.4,115.4 L234.7,117.7 L234.2,120.2 L233.9,122.6 L233.7,124.2 L233.8,125.7 L234.0,128.8 L234.4,134.0 L235.0,142.5 L235.7,151.2 L236.0,153.9 L236.5,155.7 L237.2,157.8 L238.5,160.9 L239.7,163.5 L241.2,166.4 L244.0,172.0 L246.2,176.8 L249.3,182.8 L251.8,187.3 L255.7,194.5 L257.2,197.2 L259.0,200.1 L261.4,204.1 L265.5,210.8 L273.0,222.8 L278.5,230.8 L287.5,242.9 L291.5,248.7 L296.8,255.9 L298.9,258.6 L306.6,269.1 L310.5,274.4 L312.4,277.4 L313.7,279.0 L314.8,280.9 L316.4,283.9 L318.8,288.7 L319.9,290.2 L319.6,290.6 L320.7,293.7 L322.0,296.4 L323.9,300.0 L325.6,303.3 L326.4,305.2 L327.3,307.9 L328.7,311.8 L329.1,311.9 L331.8,320.7 L330.9,331.3 L335.6,337.1 L336.6,342.7 L337.3,346.9 L337.9,352.7 L338.5,356.2 L340.6,366.8 L342.4,376.7 L344.5,388.5 L346.1,396.8 Z" fill="#ece7dc" stroke="#d7d1c5" stroke-width="0.3"></path><path d="M116.1,20.1 L120.6,20.6 L119.3,31.4 L114.7,30.8 L116.1,20.1 Z" fill="#c7dfbd" stroke="#8eb580" stroke-width="0.5"></path><path d="M118.1,3.8 L122.9,4.4 L121.4,15.3 L116.7,14.7 L118.1,3.8 Z" fill="#c7dfbd" stroke="#8eb580" stroke-width="0.5"></path><path d="M-1.0,-1.0 L257.0,-1.0 L257.0,257.0 L-1.0,257.0 L-1.0,-1.0 Z M48.0,-1.0 L48.1,-1.0 L53.4,5.1 L61.0,11.6 L70.5,16.9 L80.8,22.2 L94.5,29.1 L95.0,28.2 L118.3,39.4 L121.1,40.7 L127.6,43.4 L138.0,45.3 L144.6,45.4 L150.8,44.7 L165.0,42.0 L169.7,39.3 L174.5,35.9 L202.9,12.2 L203.7,13.0 L214.3,4.2 L214.9,3.8 L214.1,2.8 L218.4,-1.0 L48.0,-1.0 Z M257.0,82.0 L256.9,82.1 L256.4,83.0 L255.4,84.4 L254.5,85.6 L251.9,89.5 L251.1,90.7 L250.0,92.0 L249.3,92.9 L248.4,94.1 L247.9,94.9 L247.3,95.9 L246.5,97.1 L244.4,100.5 L243.6,101.6 L242.8,102.8 L241.8,104.2 L241.0,105.5 L239.5,107.6 L238.5,109.2 L237.4,110.9 L236.7,112.2 L236.3,113.0 L235.8,114.2 L235.4,115.4 L235.0,116.6 L234.7,117.7 L234.4,119.3 L234.2,120.2 L234.1,121.2 L233.9,122.6 L233.7,123.8 L233.7,124.2 L233.7,124.7 L233.8,125.7 L233.8,126.9 L234.0,128.8 L234.1,131.1 L234.4,134.0 L234.6,137.3 L235.0,142.5 L235.5,149.1 L235.7,151.2 L235.8,152.6 L236.0,153.9 L236.3,154.8 L236.5,155.7 L236.7,156.5 L237.2,157.8 L237.8,159.1 L238.5,160.9 L239.1,162.3 L239.7,163.5 L240.3,164.7 L241.2,166.4 L242.4,168.8 L244.0,172.0 L245.0,174.1 L246.2,176.8 L247.7,179.7 L249.3,182.8 L250.9,185.7 L251.8,187.3 L254.1,191.6 L255.7,194.5 L256.6,196.2 L257.0,196.9 L257.0,82.0 Z" fill="#add7e1" stroke="none" fill-rule="evenodd"><title>Biscayne Bay</title></path><path d="M168.1,11.8 L172.2,6.5 L176.6,6.5 L182.0,14.0 L180.1,16.6 L173.5,18.4 L169.2,22.2 L169.0,28.3 L165.2,29.6 L161.9,22.5 L156.4,22.8 L157.3,18.8 L163.0,15.6 L165.1,15.1 L166.7,12.5 L168.5,12.5 L168.1,11.8 Z" fill="#d6d2c9" stroke="#bab6ad" stroke-width="0.4"></path><path d="M133.9,-6.5 L136.0,-7.1 L140.6,-7.4 L142.5,-6.8 L143.3,-5.6 L144.2,-0.3 L144.6,9.9 L144.6,32.1 L135.6,37.5 L133.3,10.2 L132.8,-0.0 L133.3,-5.3 L133.9,-6.5 Z" fill="#d6d2c9" stroke="#bab6ad" stroke-width="0.4"></path><path d="M181.9,-4.7 L188.5,-13.3 L190.6,-18.3 L193.8,-14.6 L222.4,-25.2 L204.3,-10.4 L181.9,-4.7 Z" fill="#d6d2c9" stroke="#bab6ad" stroke-width="0.4"><title>Belle Plaza</title></path><path d="M243.5,167.7 L263.7,138.5 L262.5,134.6 L258.5,107.3 L303.7,127.4 L304.7,132.2 L276.2,142.1 L251.1,173.5 L243.5,167.7 Z" fill="#d6d2c9" stroke="#bab6ad" stroke-width="0.4"><title>Flamingo Point</title></path><path d="M102.8,27.4 L102.9,17.5 L100.9,12.9 L98.2,4.4 L91.0,-5.4 L80.2,-14.0 L84.5,-15.8 L93.4,-17.9 L96.2,-16.6 L96.2,-14.0 L103.7,-7.7 L107.8,-4.1 L109.2,2.0 L113.0,15.3 L114.4,17.7 L113.9,27.7 L109.7,25.7 L105.9,27.1 L102.8,27.4 Z" fill="#d6d2c9" stroke="#bab6ad" stroke-width="0.4"></path><path d="M157.3,11.0 L147.6,-23.4 L148.5,-26.7 L157.3,11.0 Z" fill="#d6d2c9" stroke="#bab6ad" stroke-width="0.4"></path><path d="M163.6,35.4 L161.1,36.1 L158.2,25.4 L160.7,24.7 L163.6,35.4 Z" fill="#d6d2c9" stroke="#bab6ad" stroke-width="0.4"></path><path d="M172.9,0.0 L167.6,-2.0 L160.4,-26.6 L172.9,0.0 Z" fill="#d6d2c9" stroke="#bab6ad" stroke-width="0.4"></path><path d="M189.7,14.6 L187.2,16.5 L185.9,14.7 L188.4,12.8 L189.7,14.6 Z" fill="#d6d2c9" stroke="#bab6ad" stroke-width="0.4"></path><path d="M245.9,113.6 L243.9,114.9 L240.2,108.7 L242.2,107.5 L245.9,113.6 Z" fill="#d6d2c9" stroke="#bab6ad" stroke-width="0.4"></path><path d="M246.9,120.8 L243.7,122.9 L241.1,118.9 L244.3,116.8 L246.9,120.8 Z" fill="#d6d2c9" stroke="#bab6ad" stroke-width="0.4"></path><path d="M196.5,6.5 L204.4,0.0 L207.3,3.6 L199.4,10.1 L196.5,6.5 Z" fill="#e0e9e8" stroke="#91b7bc" stroke-width="0.55"></path><path d="M177.4,26.3 L178.6,24.8 L179.0,23.3 L180.6,23.0 L181.4,24.0 L181.6,25.7 L181.1,27.3 L180.1,28.7 L178.9,29.7 L177.2,30.5 L175.4,30.7 L173.9,30.3 L173.1,29.1 L173.4,27.7 L174.6,27.0 L176.4,26.9 L177.4,26.3 Z" fill="#e0e9e8" stroke="#91b7bc" stroke-width="0.55"></path><path d="M125.6,30.6 L129.7,30.5 L129.9,37.9 L125.8,38.0 L125.6,30.6 Z" fill="#e0e9e8" stroke="#91b7bc" stroke-width="0.55"></path><path d="M196.1,3.5 L197.5,3.1 L196.5,5.5 L196.1,3.5 Z" fill="#e0e9e8" stroke="#91b7bc" stroke-width="0.55"></path><path d="M243.2,130.2 L239.7,132.7 L241.4,135.3 L243.8,141.5 L245.6,142.2 L249.5,139.9 L250.1,138.1 L246.5,134.1 L244.0,130.1 L243.2,130.2 Z" fill="#e0e9e8" stroke="#91b7bc" stroke-width="0.55"></path><path d="M70.0,2.1 L73.3,2.5 L75.2,5.5 L76.5,6.2 L77.3,5.2 L77.7,3.5 L78.0,2.3 L76.5,0.3 L74.7,0.4 L73.2,-0.3 L72.7,-1.4 L70.8,-2.3 L68.6,-2.4 L67.5,-1.8 L67.4,-0.3 L67.0,0.5 L67.3,1.4 L70.0,2.1 Z" fill="#e0e9e8" stroke="#91b7bc" stroke-width="0.55"></path><path d="M277.6,-53.6 L278.7,-45.1 L278.6,-35.9 L277.7,-30.8 L279.1,-30.1 L279.3,-12.2 L279.7,-10.9 L278.4,-10.7 L279.2,0.0 L278.9,4.6 L278.9,6.8 L277.8,19.3 L277.7,20.7 L277.3,22.8 L276.8,26.0 L276.5,28.0 L275.2,32.4 L273.5,37.7 L271.9,42.6 L270.5,47.4 L269.1,51.8 L268.0,54.9 L265.4,61.6 L263.5,66.5 L260.5,74.3 L258.8,78.2 L257.5,81.1 L256.4,83.0 L254.5,85.6 L251.1,90.7 L249.3,92.9 L247.9,94.9 L246.5,97.1 L243.6,101.6 L241.8,104.2 L239.5,107.6 L237.4,110.9 L236.3,113.0 L235.4,115.4 L234.7,117.7 L234.2,120.2 L233.9,122.6 L233.7,124.2 L233.8,125.7 L234.0,128.8 L234.4,134.0 L235.0,142.5 L235.7,151.2 L236.0,153.9 L236.5,155.7 L237.2,157.8 L238.5,160.9 L239.7,163.5 L241.2,166.4 L244.0,172.0 L246.2,176.8 L249.3,182.8 L251.8,187.3 L255.7,194.5 L257.2,197.2 L259.0,200.1 L261.4,204.1 L265.5,210.8 L273.0,222.8 L278.5,230.8 L287.5,242.9 L291.5,248.7 L296.8,255.9 L298.9,258.6 L306.6,269.1" fill="none" stroke="#79bdd0" stroke-width="1.4" stroke-linecap="round" stroke-linejoin="round"></path><path d="M-415.0,232.0 L43.0,386.0" fill="none" stroke="#ecfbff" stroke-width="3.8" stroke-dasharray="6 8" opacity="0.90" stroke-linecap="round" stroke-linejoin="round"/><path d="M-415.0,232.0 L43.0,386.0" fill="none" stroke="#388fb3" stroke-width="1.7" stroke-dasharray="5 8" opacity="0.86" stroke-linecap="round" stroke-linejoin="round"><title>Water Taxi Miami - Yellow</title></path><path d="M279.8,6.5 L278.7,18.0 L278.0,24.4 L276.8,29.6 L270.0,51.6 L269.5,53.0 L261.9,73.7 L247.2,97.7 L238.5,110.8 L235.3,117.7 L234.5,125.2 L236.9,154.8 L250.4,183.1 L258.4,197.2 L270.9,218.3" fill="none" stroke="#cf828d" stroke-width="1.1" stroke-dasharray="1.6 3.0" opacity="0.62" stroke-linecap="round" stroke-linejoin="round"></path><path d="M60.8,2.1 L54.7,-2.2 L56.3,-9.4 L89.4,-32.5" fill="none" stroke="#cec8bb" stroke-width="2.9" stroke-linecap="round" stroke-linejoin="round"/><path d="M60.8,2.1 L54.7,-2.2 L56.3,-9.4 L89.4,-32.5" fill="none" stroke="#ffffff" stroke-width="1.9" stroke-linecap="round" stroke-linejoin="round"><title>Harbor Lane</title></path><path d="M150.3,-30.8 L153.4,-16.9 L159.3,6.5 L164.8,5.8 L166.0,0.5 L153.7,-31.0" fill="none" stroke="#cec8bb" stroke-width="2.9" stroke-linecap="round" stroke-linejoin="round"/><path d="M150.3,-30.8 L153.4,-16.9 L159.3,6.5 L164.8,5.8 L166.0,0.5 L153.7,-31.0" fill="none" stroke="#ffffff" stroke-width="1.9" stroke-linecap="round" stroke-linejoin="round"></path><path d="M147.7,6.6 L148.6,6.1 L148.4,-3.6 L145.7,-16.5" fill="none" stroke="#cec8bb" stroke-width="2.9" stroke-linecap="round" stroke-linejoin="round"/><path d="M147.7,6.6 L148.6,6.1 L148.4,-3.6 L145.7,-16.5" fill="none" stroke="#ffffff" stroke-width="1.9" stroke-linecap="round" stroke-linejoin="round"></path><path d="M166.4,-26.0 L173.6,-8.5 L176.1,-4.1 L189.0,11.4" fill="none" stroke="#cec8bb" stroke-width="2.9" stroke-linecap="round" stroke-linejoin="round"/><path d="M166.4,-26.0 L173.6,-8.5 L176.1,-4.1 L189.0,11.4" fill="none" stroke="#ffffff" stroke-width="1.9" stroke-linecap="round" stroke-linejoin="round"></path><path d="M129.6,-7.1 L129.8,5.3 L130.1,10.1 L133.3,10.2" fill="none" stroke="#cec8bb" stroke-width="2.9" stroke-linecap="round" stroke-linejoin="round"/><path d="M129.6,-7.1 L129.8,5.3 L130.1,10.1 L133.3,10.2" fill="none" stroke="#ffffff" stroke-width="1.9" stroke-linecap="round" stroke-linejoin="round"></path><path d="M121.2,0.7 L124.1,-18.5 L123.3,-20.9 L121.8,-23.9" fill="none" stroke="#cec8bb" stroke-width="2.9" stroke-linecap="round" stroke-linejoin="round"/><path d="M121.2,0.7 L124.1,-18.5 L123.3,-20.9 L121.8,-23.9" fill="none" stroke="#ffffff" stroke-width="1.9" stroke-linecap="round" stroke-linejoin="round"></path><path d="M144.4,5.1 L147.7,6.6" fill="none" stroke="#cec8bb" stroke-width="2.9" stroke-linecap="round" stroke-linejoin="round"/><path d="M144.4,5.1 L147.7,6.6" fill="none" stroke="#ffffff" stroke-width="1.9" stroke-linecap="round" stroke-linejoin="round"></path><path d="M133.0,5.1 L144.4,5.1" fill="none" stroke="#cec8bb" stroke-width="2.9" stroke-linecap="round" stroke-linejoin="round"/><path d="M133.0,5.1 L144.4,5.1" fill="none" stroke="#ffffff" stroke-width="1.9" stroke-linecap="round" stroke-linejoin="round"></path><path d="M129.8,5.3 L133.0,5.1" fill="none" stroke="#cec8bb" stroke-width="2.9" stroke-linecap="round" stroke-linejoin="round"/><path d="M129.8,5.3 L133.0,5.1" fill="none" stroke="#ffffff" stroke-width="1.9" stroke-linecap="round" stroke-linejoin="round"></path><path d="M133.3,10.2 L144.6,9.9" fill="none" stroke="#cec8bb" stroke-width="2.9" stroke-linecap="round" stroke-linejoin="round"/><path d="M133.3,10.2 L144.6,9.9" fill="none" stroke="#ffffff" stroke-width="1.9" stroke-linecap="round" stroke-linejoin="round"></path><path d="M144.6,9.9 L147.7,6.6" fill="none" stroke="#cec8bb" stroke-width="2.9" stroke-linecap="round" stroke-linejoin="round"/><path d="M144.6,9.9 L147.7,6.6" fill="none" stroke="#ffffff" stroke-width="1.9" stroke-linecap="round" stroke-linejoin="round"></path></svg>