<svg xmlns="http://www.w3.org/2000/svg" width="256" height="256" viewBox="0 0 256 256"><rect width="256" height="256" fill="#f1efe7"/><path d="M-2562.7,-587.4 L-2509.0,-609.8 L-2492.2,-617.8 L-2417.1,-653.9 L-2402.9,-640.3 L-2401.7,-639.1 L-2375.4,-661.6 L-2369.1,-666.4 L-2358.6,-675.9 L-2299.6,-730.0 L-2252.0,-784.5 L-2250.2,-787.9 L-2248.4,-789.9 L-2245.6,-793.1 L-2242.8,-796.3 L-2241.6,-797.6 L-2260.4,-821.9 L-2235.6,-836.8 L-2222.1,-818.9 L-2203.1,-840.7 L-2219.2,-862.0 L-2199.2,-882.8 L-2183.8,-862.6 L-2166.2,-882.7 L-2158.7,-887.6 L-2121.9,-911.5 L-2103.7,-923.6 L-2081.8,-938.0 L-2071.4,-944.8 L-2045.2,-961.7 L-2052.0,-970.6 L-2064.0,-986.8 L-2032.8,-1006.6 L-2021.4,-1012.5 L-2020.6,-1013.1 L-2014.5,-1017.7 L-1993.2,-1029.2 L-1991.7,-1031.5 L-1985.7,-1035.6 L-1982.4,-1040.4 L-1981.5,-1041.0 L-1976.3,-1043.1 L-1964.5,-1047.3 L-1956.4,-1050.8 L-1927.9,-1064.3 L-1927.5,-1063.3 L-1903.6,-1073.6 L-1893.8,-1061.0 L-1872.1,-1075.6 L-1869.0,-1077.7 L-1868.7,-1077.9 L-1868.3,-1078.3 L-1867.9,-1079.1 L-1867.6,-1079.9 L-1867.5,-1080.8 L-1867.5,-1081.6 L-1867.6,-1082.3 L-1867.7,-1083.1 L-1867.7,-1083.8 L-1867.7,-1084.3 L-1867.6,-1084.9 L-1867.2,-1085.8 L-1866.9,-1086.4 L-1866.3,-1087.3 L-1865.6,-1088.1 L-1862.4,-1089.3 L-1859.8,-1090.3 L-1856.4,-1091.4 L-1854.9,-1091.9 L-1852.0,-1092.8 L-1850.1,-1093.5 L-1847.3,-1094.6 L-1843.6,-1096.2 L-1839.7,-1098.1 L-1837.5,-1099.1 L-1834.8,-1100.5 L-1832.3,-1101.9 L-1829.8,-1103.4 L-1827.2,-1105.1 L-1826.4,-1105.7 L-1821.2,-1109.6 L-1816.8,-1112.9 L-1812.6,-1116.6 L-1808.6,-1120.3 L-1805.7,-1123.5 L-1802.9,-1127.0 L-1799.4,-1131.5 L-1796.2,-1136.0 L-1792.5,-1141.8 L-1790.1,-1146.3 L-1788.6,-1149.1 L-1786.4,-1153.9 L-1784.5,-1158.4 L-1782.8,-1163.2 L-1781.5,-1167.4 L-1780.0,-1174.3 L-1778.9,-1180.4 L-1778.4,-1185.7 L-1777.9,-1191.9 L-1777.8,-1198.5 L-1778.2,-1204.6 L-1779.3,-1212.6 L-1780.4,-1218.1 L-1781.6,-1223.2 L-1783.5,-1229.1 L-1785.0,-1233.5 L-1786.8,-1238.4 L-1788.6,-1242.5 L-1789.7,-1245.1 L-1790.2,-1247.0 L-1790.2,-1248.5 L-1790.1,-1249.8 L-1789.6,-1251.0 L-1788.8,-1252.0 L-1787.7,-1252.5 L-1786.6,-1252.7 L-1783.6,-1251.9 L-1775.1,-1249.9 L-1772.4,-1313.6 L-1761.4,-1427.2 L-1773.3,-1430.0 L-1774.6,-1433.6 L-1774.5,-1438.7 L-1772.9,-1450.3 L-1770.7,-1453.0 L-1768.7,-1460.5 L-1756.0,-1457.6 L-1749.1,-1530.2 L-1747.1,-1550.3 L-1751.1,-1551.3 L-1748.7,-1560.9 L-1756.8,-1562.8 L-1755.8,-1568.7 L-1754.3,-1572.6 L-1752.5,-1577.1 L-1749.6,-1583.4 L-1746.3,-1582.7 L-1742.0,-1628.4 L-1740.9,-1656.1 L-1740.8,-1661.2 L-1738.4,-1678.8 L-1733.7,-1722.7 L-1702.5,-1804.1 L-1695.4,-1826.2 L-1608.7,-1859.5 L-1600.3,-1862.9 L-1598.8,-1863.7 L-1597.6,-1864.8 L-1596.4,-1866.2 L-1595.4,-1868.0 L-1594.7,-1869.6 L-1594.6,-1872.1 L-1594.7,-1875.2 L-1595.8,-1914.1 L-1596.3,-1921.6 L-1596.4,-1926.8 L-1596.6,-1936.8 L-1596.8,-1940.0 L-1597.2,-1942.6 L-1597.7,-1945.0 L-1598.4,-1947.4 L-1599.7,-1950.2 L-1601.5,-1953.2 L-1603.2,-1955.6 L-1604.6,-1957.9 L-1605.9,-1960.9 L-1607.1,-1963.8 L-1607.5,-1966.2 L-1607.9,-1968.8 L-1608.1,-1971.4 L-1608.0,-1974.0 L-1607.7,-1977.0 L-1607.0,-1979.9 L-1606.1,-1982.5 L-1605.1,-1984.9 L-1603.8,-1987.2 L-1602.3,-1990.0 L-1601.3,-1992.5 L-1600.5,-1995.7 L-1598.8,-1998.2 L-1599.4,-2020.5 L-1600.2,-2021.8 L-1600.5,-2036.9 L-1600.9,-2054.8 L-1600.6,-2057.3 L-1599.8,-2059.8 L-1597.8,-2063.7 L-1584.4,-2092.5 L-1584.1,-2093.0 L-1581.8,-2098.1 L-1579.6,-2103.0 L-1577.1,-2108.0 L-1574.6,-2113.1 L-1573.4,-2115.6 L-1560.3,-2142.6 L-1546.2,-2172.4 L-1515.8,-2234.1 L-1534.1,-2254.6 L-1549.0,-2222.8 L-1561.9,-2195.4 L-1563.8,-2191.5 L-1567.8,-2183.3 L-1575.7,-2184.0 L-1577.9,-2184.1 L-1578.7,-2183.4 L-1577.7,-2182.5 L-1581.7,-2178.8 L-1584.9,-2175.9 L-1585.5,-2163.1 L-1586.8,-2160.6 L-1590.7,-2160.7 L-1591.3,-2161.0 L-1642.4,-2182.1 L-1643.5,-2182.6 L-1644.7,-2183.4 L-1646.5,-2184.8 L-1647.9,-2186.1 L-1649.1,-2187.5 L-1650.3,-2189.0 L-1651.2,-2190.5 L-1651.9,-2191.9 L-1652.5,-2193.4 L-1652.8,-2194.5 L-1653.1,-2195.8 L-1653.3,-2197.3 L-1653.5,-2199.3 L-1653.5,-2202.2 L-1653.9,-2212.2 L-1652.5,-2212.2 L-1652.7,-2217.5 L-1652.9,-2226.1 L-1651.6,-2226.1 L-1651.7,-2232.1 L-1653.2,-2232.0 L-1653.8,-2256.9 L-1652.5,-2256.9 L-1652.7,-2262.8 L-1654.0,-2262.7 L-1654.6,-2281.1 L-1647.8,-2288.4 L-1639.2,-2288.7 L-1632.8,-2288.9 L-1624.3,-2289.2 L-1616.2,-2289.4 L-1608.9,-2289.7 L-1605.7,-2289.8 L-1605.8,-2292.7 L-1605.9,-2295.6 L-1606.4,-2305.2 L-1606.6,-2323.4 L-1606.8,-2323.8 L-1606.8,-2325.6 L-1606.3,-2325.6 L-1607.6,-2369.6 L-1608.7,-2411.0 L-1608.9,-2412.4 L-1609.0,-2414.7 L-1627.0,-2414.1 L-1639.0,-2415.1 L-1728.8,-2412.0 L-1728.9,-2412.8 L-1729.0,-2416.6 L-1771.6,-2415.1 L-1771.7,-2422.2 L-1777.3,-2423.5 L-1778.4,-2453.8 L-1612.6,-2459.5 L-1609.9,-2463.3 L-1610.0,-2474.0 L-1610.2,-2483.3 L-1610.4,-2489.1 L-1610.6,-2494.8 L-1623.8,-2501.0 L-1624.3,-2514.8 L-1610.8,-2521.5 L-1612.0,-2553.4 L-1612.4,-2554.9 L-1625.8,-2561.2 L-1626.2,-2578.3 L-1613.5,-2584.8 L-1619.1,-2654.1 L-1617.6,-2684.9 L-1616.9,-2735.1 L-1616.9,-2789.7 L-1615.7,-2797.4 L-1615.7,-2801.1 L-1616.9,-2805.5 L-1615.6,-2805.5 L-1615.6,-2809.6 L-1614.9,-2912.3 L-1615.0,-2916.9 L-1616.4,-2916.9 L-1616.4,-2935.8 L-1617.2,-2937.0 L-1618.5,-2956.5 L-1615.9,-2974.3 L-1616.2,-2995.9 L-1617.1,-3001.0 L-1615.8,-3017.0 L-1616.7,-3036.3 L-1618.9,-3057.0 L-1623.2,-3090.5 L-1621.2,-3099.7 L-1622.1,-3108.7 L-1629.7,-3115.2 L-1641.0,-3115.1 L-1658.0,-3112.9 L-1669.2,-3112.9 L-1679.3,-3116.6 L-1692.5,-3125.7 L-1692.5,-3142.0 L-1692.9,-3162.1 L-1691.6,-3178.8 L-1687.2,-3191.8 L-1613.5,-3193.2 L-1611.8,-3297.7 L-1611.8,-3448.1 L-1612.6,-3502.7 L2365.4,-5145.6 L2365.4,3908.9 L-2562.7,3908.9 L-2562.7,-587.4 Z" fill="#add7e1" stroke="none"><title>Biscayne Bay</title></path><path d="M109.8,-301.1 L259.0,-125.2 L314.9,112.8 L203.0,257.7 L-48.6,319.8 L-104.5,195.6 L81.9,61.1 L53.9,-135.5 Z" fill="#add7e1" stroke="none"><title>Virginia Key east cove</title></path><path d="M-1120.5,-1356.6 L-607.9,-1253.1 L-48.6,-973.7 L380.1,-549.4 L547.9,-135.5 L342.9,205.9 L-39.3,392.2 L-402.8,381.8 L-701.1,174.9 L-980.7,-176.9 L-1325.5,-580.4 L-1288.3,-1056.5 Z" fill="#f1efe7" stroke="#8ab09d" stroke-width="0.65"><title>Virginia Key</title></path><path d="M-1.0,-1.0 L257.0,-1.0 L257.0,257.0 L-1.0,257.0 L-1.0,-1.0 Z" fill="#add7e1" stroke="none" fill-rule="evenodd"><title>Biscayne Bay</title></path><path d="M-1297.6,-16.5 L-593.9,-32.0 L268.3,19.7 L408.1,299.1 L-104.5,433.6 L-980.7,449.1 L-1316.2,340.5 Z" fill="#add7e1" stroke="none"><title>Bear Cut</title></path><path d="M-1418.8,-528.7 L-1083.2,-590.8 L-710.4,-564.9 L-328.2,-678.8 L109.8,-854.7 L333.5,-958.2 L426.7,-751.2 L268.3,-445.9 L-20.7,-207.9 L-374.8,-11.3 L-589.2,185.3 L-980.7,242.2 L-1223.0,221.5 L-1409.4,30.1 Z" fill="#f1efe7" stroke="#8ab09d" stroke-width="0.65"><title>Virginia Key north of Bear Cut</title></path></svg>