<svg xmlns="http://www.w3.org/2000/svg" width="256" height="256" viewBox="0 0 256 256"><rect width="256" height="256" fill="#f1efe7"/><path d="M245.3,-2605.7 L460.1,-2695.0 L527.3,-2727.3 L827.8,-2871.6 L884.2,-2817.0 L889.1,-2812.3 L994.5,-2902.5 L1019.6,-2921.6 L1061.5,-2959.4 L1297.6,-3176.2 L1488.1,-3393.8 L1495.4,-3407.7 L1502.4,-3415.6 L1513.5,-3428.3 L1524.8,-3441.2 L1529.4,-3446.5 L1454.3,-3543.6 L1553.7,-3603.2 L1607.6,-3531.5 L1683.8,-3618.7 L1619.3,-3704.1 L1699.2,-3787.4 L1760.7,-3706.4 L1831.3,-3786.8 L1861.4,-3806.5 L2008.6,-3902.0 L2081.3,-3950.3 L2168.9,-4007.9 L2210.3,-4035.1 L2315.2,-4102.8 L2288.2,-4138.3 L2239.9,-4203.0 L2364.8,-4282.4 L2410.3,-4305.9 L2413.8,-4308.4 L2437.8,-4326.9 L2523.4,-4372.7 L2529.3,-4381.9 L2553.3,-4398.4 L2566.3,-4417.4 L2570.0,-4420.2 L2590.9,-4428.3 L2638.1,-4445.2 L2670.4,-4459.4 L2784.5,-4513.0 L2785.9,-4509.3 L2881.6,-4550.2 L2920.7,-4500.1 L3007.8,-4558.2 L3020.2,-4566.7 L3021.4,-4567.7 L3022.6,-4569.3 L3024.5,-4572.6 L3025.5,-4575.7 L3026.1,-4579.4 L3026.0,-4582.4 L3025.6,-4585.3 L3025.2,-4588.6 L3025.1,-4591.1 L3025.3,-4593.2 L3025.7,-4595.4 L3027.3,-4599.4 L3028.4,-4601.6 L3030.9,-4605.4 L3033.5,-4608.2 L3046.2,-4613.3 L3056.8,-4617.3 L3070.3,-4621.7 L3076.6,-4623.4 L3087.8,-4627.1 L3095.7,-4629.9 L3106.6,-4634.4 L3121.4,-4640.9 L3137.4,-4648.4 L3146.0,-4652.6 L3156.8,-4658.1 L3166.9,-4663.7 L3177.0,-4669.7 L3187.3,-4676.4 L3190.5,-4678.6 L3211.2,-4694.4 L3228.6,-4707.8 L3245.6,-4722.2 L3261.5,-4737.2 L3273.0,-4750.1 L3284.4,-4764.0 L3298.4,-4782.0 L3311.2,-4800.0 L3325.9,-4823.1 L3335.5,-4841.0 L3341.5,-4852.4 L3350.4,-4871.7 L3357.9,-4889.6 L3364.6,-4908.9 L3370.0,-4925.8 L3375.9,-4953.2 L3380.2,-4977.7 L3382.5,-4998.7 L3384.5,-5023.5 L3384.7,-5050.0 L3383.1,-5074.5 L3378.9,-5106.5 L3374.5,-5128.3 L3369.5,-5148.9 L3362.1,-5172.3 L3355.8,-5190.2 L3348.6,-5209.7 L3341.8,-5225.9 L3337.2,-5236.4 L3335.3,-5244.1 L3335.0,-5250.0 L3335.6,-5255.3 L3337.7,-5259.9 L3340.9,-5263.8 L3345.1,-5266.0 L3349.6,-5266.6 L3361.7,-5263.7 L3395.4,-5255.6 L3406.6,-5510.3 L3450.3,-5964.9 L3402.8,-5976.1 L3397.6,-5990.4 L3397.8,-6010.9 L3404.4,-6057.4 L3413.4,-6067.9 L3421.4,-6098.1 L3471.9,-6086.4 L3499.7,-6376.9 L3507.4,-6457.3 L3491.7,-6461.2 L3501.2,-6499.6 L3468.9,-6507.3 L3473.0,-6530.8 L3478.7,-6546.3 L3485.8,-6564.4 L3497.8,-6589.7 L3510.7,-6586.8 L3528.1,-6769.5 L3532.2,-6880.3 L3533.0,-6900.7 L3542.4,-6971.2 L3561.1,-7146.9 L3685.9,-7472.3 L3714.4,-7561.0 L4061.1,-7694.0 L4095.0,-7707.6 L4100.9,-7710.8 L4105.5,-7715.0 L4110.6,-7720.9 L4114.5,-7727.8 L4117.1,-7734.6 L4117.7,-7744.5 L4117.2,-7756.8 L4112.6,-7912.3 L4110.9,-7942.4 L4110.4,-7963.1 L4109.7,-8003.3 L4108.9,-8015.9 L4107.4,-8026.5 L4105.3,-8035.9 L4102.2,-8045.5 L4097.3,-8056.8 L4090.1,-8068.9 L4083.1,-8078.5 L4077.7,-8087.6 L4072.2,-8099.7 L4067.6,-8111.3 L4065.8,-8120.8 L4064.4,-8131.3 L4063.7,-8141.8 L4064.0,-8152.0 L4065.2,-8163.9 L4068.0,-8175.6 L4071.7,-8186.0 L4075.6,-8195.5 L4080.6,-8204.7 L4086.7,-8215.9 L4090.7,-8226.0 L4094.2,-8238.9 L4100.6,-8248.7 L4098.4,-8337.9 L4095.1,-8343.1 L4094.1,-8403.7 L4092.4,-8475.2 L4093.6,-8485.1 L4096.8,-8495.2 L4104.8,-8511.0 L4158.3,-8626.1 L4159.4,-8628.0 L4168.8,-8648.5 L4177.7,-8667.9 L4187.7,-8687.9 L4197.5,-8708.5 L4202.3,-8718.5 L4254.9,-8826.4 L4311.1,-8945.6 L4432.7,-9192.4 L4359.6,-9274.3 L4300.0,-9147.3 L4248.5,-9037.4 L4240.7,-9021.8 L4224.8,-8989.3 L4193.0,-8992.0 L4184.3,-8992.5 L4181.2,-8989.7 L4185.4,-8985.9 L4169.1,-8971.4 L4156.2,-8959.5 L4153.8,-8908.6 L4149.0,-8898.4 L4133.4,-8899.0 L4130.8,-8899.9 L3926.4,-8984.3 L3922.0,-8986.6 L3917.3,-8989.6 L3909.9,-8995.2 L3904.2,-9000.6 L3899.4,-9005.8 L3894.7,-9012.2 L3891.1,-9017.8 L3888.3,-9023.6 L3886.1,-9029.7 L3884.6,-9033.9 L3883.5,-9039.0 L3882.7,-9045.0 L3881.9,-9053.2 L3881.9,-9064.9 L3880.5,-9104.6 L3886.1,-9104.9 L3885.3,-9125.9 L3884.4,-9160.5 L3889.6,-9160.6 L3889.2,-9184.2 L3883.3,-9184.1 L3880.6,-9283.5 L3886.2,-9283.8 L3885.3,-9307.1 L3879.9,-9306.9 L3877.6,-9380.4 L3904.6,-9409.5 L3939.1,-9410.7 L3964.8,-9411.6 L3998.7,-9412.7 L4031.3,-9413.7 L4060.5,-9414.7 L4073.2,-9415.3 L4072.6,-9426.6 L4072.4,-9438.4 L4070.5,-9476.7 L4069.8,-9549.8 L4068.8,-9551.1 L4068.6,-9558.3 L4070.7,-9558.4 L4065.6,-9734.5 L4061.2,-9900.2 L4060.5,-9905.4 L4060.1,-9915.0 L3987.9,-9912.4 L3939.9,-9916.5 L3580.6,-9904.0 L3580.5,-9907.2 L3579.8,-9922.5 L3409.4,-9916.5 L3409.1,-9944.8 L3386.6,-9949.9 L3382.6,-10071.0 L4045.4,-10094.0 L4056.4,-10109.1 L4056.0,-10152.1 L4055.2,-10189.3 L4054.6,-10212.6 L4053.7,-10235.3 L4001.0,-10260.1 L3998.9,-10315.2 L4052.9,-10342.0 L4048.0,-10469.5 L4046.6,-10475.8 L3992.9,-10500.9 L3991.2,-10569.1 L4042.2,-10595.4 L4019.5,-10872.3 L4025.5,-10995.5 L4028.5,-11196.4 L4028.3,-11414.9 L4033.1,-11445.5 L4033.4,-11460.3 L4028.6,-11478.1 L4033.6,-11478.1 L4033.6,-11494.2 L4036.6,-11905.2 L4036.1,-11923.5 L4030.4,-11923.5 L4030.6,-11999.1 L4027.3,-12003.8 L4022.1,-12081.8 L4032.4,-12153.1 L4031.1,-12239.4 L4027.6,-12260.1 L4032.9,-12324.0 L4029.3,-12401.3 L4020.3,-12484.0 L4003.2,-12618.0 L4011.3,-12654.9 L4007.7,-12690.8 L3977.1,-12716.9 L3932.2,-12716.5 L3863.8,-12707.5 L3819.3,-12707.5 L3778.9,-12722.3 L3725.8,-12758.7 L3725.8,-12824.0 L3724.4,-12904.3 L3729.6,-12971.2 L3747.2,-13023.4 L4041.9,-13028.9 L4048.7,-13446.8 L4048.7,-14048.4 L4045.6,-14266.7 L19957.8,-20838.4 L19957.8,15379.8 L245.3,15379.8 L245.3,-2605.7 Z" fill="#add7e1" stroke="none"><title>Biscayne Bay</title></path><path d="M-7146.8,6679.5 L-7691.0,6277.8 L-7734.5,6245.8 L-7781.7,6235.5 L-7815.0,6207.5 L-7841.6,6204.4 L-7927.6,6210.1 L-7927.5,6202.0 L-7932.3,6194.4 L-7941.9,6188.5 L-8128.7,6107.6 L-8141.4,6101.8 L-8152.5,6098.6 L-8166.3,6097.5 L-8180.2,6097.2 L-8226.6,6097.2 L-8238.9,6096.5 L-8251.0,6094.1 L-8263.8,6089.1 L-8279.2,6085.0 L-8290.4,6084.0 L-8323.3,6082.6 L-8334.3,6080.6 L-8348.3,6076.1 L-8362.0,6072.6 L-8375.3,6069.5 L-8385.7,6065.3 L-8398.3,6057.5 L-8409.5,6049.1 L-8420.4,6040.9 L-8429.3,6036.7 L-8436.1,6035.3 L-8442.2,6035.7 L-8448.7,6037.5 L-8456.3,6041.4 L-8462.3,6048.0 L-8470.4,6055.9 L-8479.4,6064.2 L-8489.6,6069.8 L-8502.5,6074.0 L-8513.2,6076.6 L-8526.1,6078.6 L-8547.7,6081.1 L-8601.9,6083.7 L-8647.9,6086.0 L-8667.7,6093.1 L-8708.3,6094.5 L-8713.8,6086.0 L-8719.9,6082.1 L-8726.2,6080.9 L-8770.0,6083.4 L-8789.0,6090.2 L-8812.3,6090.4 L-8828.0,6088.1 L-8840.9,6084.2 L-8888.0,6087.0 L-9012.6,6096.7 L-9041.3,6097.5 L-9051.1,6097.3 L-9059.9,6095.1 L-9070.1,6090.0 L-9077.6,6084.0 L-9110.0,6084.1 L-9137.1,6083.7 L-9144.4,6088.2 L-9181.7,6089.1 L-9186.5,6097.0 L-9191.8,6097.2 L-9201.0,6095.0 L-9217.5,6093.0 L-9234.5,6093.9 L-9239.7,6095.5 L-9245.0,6094.6 L-9248.6,6091.1 L-9254.7,6087.6 L-9277.4,6087.7 L-9300.3,6088.9 L-9322.0,6101.7 L-9332.7,6106.8 L-9344.9,6109.5 L-9355.0,6110.2 L-9364.1,6108.8 L-9385.1,6099.8 L-9397.1,6096.0 L-9407.3,6094.5 L-9452.0,6095.1 L-9454.8,6089.7 L-9494.3,6090.6 L-9521.5,6095.6 L-9539.4,6097.7 L-9549.0,6099.8 L-9552.7,6097.3 L-9559.5,6096.4 L-9623.2,6090.6 L-9628.7,6093.6 L-9635.4,6095.0 L-9644.2,6095.1 L-9644.2,6091.9 L-9683.7,6084.5 L-9708.6,6079.7 L-9768.8,6059.5 L-9772.1,6064.0 L-9812.3,6051.6 L-9820.7,6048.8 L-9816.6,6034.8 L-9821.4,6033.3 L-9822.4,6031.8 L-9825.0,6031.0 L-9828.6,6030.5 L-9833.0,6028.3 L-9831.5,6027.0 L-9849.3,6012.5 L-9878.9,5985.7 L-9894.8,5971.7 L-9906.1,5959.4 L-9912.4,5951.1 L-9921.8,5938.3 L-9927.2,5928.4 L-9944.0,5907.3 L-9945.6,5906.1 L-9946.7,5906.0 L-9947.9,5906.2 L-9950.1,5906.3 L-9952.1,5905.3 L-9956.3,5902.6 L-9964.9,5898.1 L-9969.1,5894.5 L-9974.0,5890.2 L-9980.7,5886.6 L-9991.2,5883.3 L-10002.3,5881.3 L-10011.8,5881.1 L-10009.1,5855.9 L-10006.9,5823.0 L-9996.6,5824.0 L-9986.3,5825.8 L-9972.8,5829.8 L-9962.9,5833.5 L-9954.0,5837.6 L-9945.4,5841.6 L-9937.3,5846.2 L-9930.7,5851.3 L-9921.9,5858.1 L-9912.7,5865.0 L-9910.6,5866.3 L-9908.7,5866.7 L-9883.5,5865.6 L-9883.2,5871.3 L-9884.7,5873.8 L-9903.6,5875.6 L-9898.8,5885.4 L-9895.5,5884.2 L-9892.5,5887.2 L-9890.6,5890.1 L-9889.0,5892.3 L-9885.1,5897.5 L-9883.6,5903.2 L-9877.5,5911.6 L-9863.1,5920.7 L-9845.2,5929.8 L-9823.8,5943.3 L-9814.0,5947.9 L-9793.4,5959.6 L-9783.7,5964.7 L-9766.0,5971.2 L-9731.2,5980.5 L-9710.8,5985.4 L-9692.2,5987.3 L-9682.3,5988.6 L-9680.1,5988.4 L-9679.2,5987.1 L-9678.9,5980.5 L-9655.8,5980.5 L-9655.3,5987.9 L-9606.9,5990.4 L-9559.7,5991.8 L-9527.6,5990.6 L-9517.0,5989.8 L-9509.3,5988.8 L-9503.0,5987.0 L-9497.2,5983.5 L-9494.3,5978.8 L-9495.4,5901.3 L-9475.9,5900.2 L-9474.2,5975.8 L-9473.1,5977.7 L-9469.2,5980.4 L-9464.7,5981.7 L-9361.3,5981.9 L-9361.8,5948.6 L-9353.7,5948.4 L-9350.3,5981.9 L-9286.5,5981.3 L-9286.5,5977.7 L-9280.2,5977.6 L-9280.0,5980.2 L-8854.5,5972.1 L-8823.7,5968.5 L-8786.1,5967.4 L-8750.5,5972.1 L-8738.6,5971.1 L-8729.9,5969.4 L-8721.8,5966.5 L-8711.3,5962.5 L-8497.4,5958.7 L-8497.5,5943.9 L-8377.8,5941.8 L-8377.7,5958.1 L-8326.9,5959.9 L-8323.0,5959.8 L-8319.4,5959.5 L-8314.7,5958.9 L-8310.9,5957.9 L-8307.2,5956.7 L-8300.9,5953.7 L-8298.0,5958.7 L-8291.8,5954.8 L-8286.1,5950.2 L-8281.3,5945.2 L-8277.1,5939.3 L-8273.2,5932.0 L-8280.5,5927.9 L-8278.5,5921.8 L-8277.2,5915.5 L-8276.5,5909.5 L-8276.4,5904.8 L-8276.6,5900.4 L-8277.3,5862.5 L-8283.4,5856.9 L-8278.2,5851.4 L-8283.5,5846.8 L-8277.5,5839.7 L-8284.0,5834.0 L-8278.8,5828.5 L-8284.0,5823.5 L-8277.9,5817.0 L-8284.2,5810.6 L-8271.1,5796.2 L-8268.8,5796.1 L-8274.5,5581.6 L-8226.4,5580.5 L-8224.1,5581.7 L-8221.5,5583.7 L-8219.6,5585.4 L-8218.8,5587.4 L-8218.1,5589.8 L-8217.9,5592.2 L-8213.8,5925.5 L-8211.9,5936.3 L-8209.2,5943.6 L-8205.0,5952.6 L-8200.1,5961.4 L-8195.0,5968.4 L-8190.9,5972.7 L-8186.5,5976.1 L-8181.4,5979.1 L-8176.1,5981.1 L-8168.9,5983.2 L-8160.0,5984.9 L-8149.2,5986.9 L-8136.6,5989.2 L-8124.6,5991.8 L-8111.3,5994.2 L-8098.7,5996.9 L-8094.7,5997.7 L-8089.8,5998.7 L-8085.0,5999.3 L-8080.8,5999.4 L-8076.0,5999.4 L-8072.3,5999.2 L-8068.6,5998.5 L-8065.4,5997.7 L-8062.0,5996.7 L-8059.1,5995.4 L-8053.3,5992.6 L-8048.2,5989.6 L-8043.1,5985.9 L-8037.2,5980.2 L-8031.7,5974.0 L-8028.7,5968.7 L-8026.0,5962.2 L-8024.6,5956.9 L-8023.8,5951.2 L-8023.3,5945.8 L-8023.3,5940.8 L-8030.6,5583.6 L-8020.2,5572.9 L-8016.4,5572.5 L-8014.9,5571.1 L-7993.2,5570.5 L-7991.3,5567.3 L-7988.0,5568.2 L-7982.5,5573.3 L-7978.7,5578.6 L-7974.9,5585.2 L-7967.7,5984.4 L-7967.0,5991.4 L-7965.7,6005.3 L-7964.4,6008.1 L-7965.4,6008.8 L-7963.6,6012.7 L-7961.3,6017.3 L-7959.3,6020.2 L-7956.9,6023.7 L-7953.6,6027.5 L-7949.7,6031.5 L-7945.0,6035.5 L-7940.8,6038.6 L-7936.2,6041.1 L-7931.8,6043.3 L-7927.1,6044.8 L-7926.5,6043.4 L-7860.3,6067.4 L-7852.0,6070.5 L-7848.2,6071.9 L-7842.3,6074.0 L-7838.0,6075.0 L-7834.3,6075.5 L-7830.9,6075.5 L-7826.1,6075.1 L-7820.9,6074.6 L-7816.3,6073.6 L-7811.6,6072.3 L-7808.1,6070.9 L-7804.4,6069.2 L-7801.4,6067.3 L-7797.6,6064.5 L-7792.8,6060.3 L-7788.4,6056.0 L-7783.6,6050.0 L-7780.2,6044.4 L-7777.4,6038.2 L-7775.4,6031.3 L-7774.2,6024.3 L-7773.5,6011.8 L-7773.8,5986.3 L-7781.1,5580.2 L-7781.1,5575.7 L-7780.3,5572.5 L-7778.9,5569.9 L-7776.0,5567.5 L-7772.7,5565.8 L-7769.0,5565.2 L-7738.9,5564.2 L-7735.3,5564.8 L-7732.1,5566.2 L-7729.8,5568.4 L-7727.2,5572.2 L-7725.7,5577.6 L-7724.8,5584.9 L-7717.3,6105.8 L-7716.9,6108.9 L-7716.3,6112.0 L-7715.4,6115.2 L-7714.3,6118.7 L-7713.1,6122.2 L-7711.7,6125.4 L-7710.5,6128.1 L-7709.2,6130.5 L-7707.3,6133.5 L-7705.2,6136.1 L-7703.3,6138.5 L-7700.4,6141.6 L-7697.6,6144.3 L-7694.5,6146.8 L-7691.2,6149.3 L-7682.0,6155.1 L-7681.1,6154.0 L-7673.0,6158.5 L-7663.4,6163.7 L-7657.9,6166.7 L-7651.8,6170.3 L-7645.5,6174.0 L-7639.0,6178.0 L-7631.7,6182.5 L-7624.5,6187.0 L-7617.3,6191.3 L-7611.3,6195.0 L-7604.6,6199.3 L-7597.5,6203.9 L-7590.7,6208.4 L-7584.4,6212.7 L-7585.1,6213.6 L-7576.3,6219.7 L-7567.2,6225.8 L-7564.4,6227.5 L-7561.3,6229.2 L-7556.9,6231.3 L-7552.8,6232.8 L-7548.4,6234.0 L-7544.5,6235.0 L-7539.9,6235.7 L-7534.8,6236.3 L-7530.4,6236.3 L-7526.7,6236.0 L-7523.5,6235.3 L-7519.4,6234.2 L-7515.3,6232.9 L-7511.5,6231.6 L-7508.0,6229.9 L-7504.4,6228.0 L-7500.9,6225.8 L-7497.3,6223.0 L-7494.1,6220.1 L-7491.0,6217.0 L-7488.1,6213.8 L-7485.1,6209.4 L-7482.6,6205.0 L-7480.2,6200.1 L-7478.8,6196.3 L-7477.7,6192.3 L-7476.9,6188.0 L-7476.5,6183.7 L-7476.8,6178.8 L-7536.1,5611.1 L-7532.0,5610.7 L-7535.3,5582.3 L-7538.3,5582.5 L-7540.7,5569.4 L-7539.9,5566.7 L-7537.4,5562.7 L-7532.3,5558.8 L-7525.6,5558.0 L-7498.7,5557.1 L-7494.2,5558.0 L-7491.1,5559.5 L-7487.8,5562.1 L-7485.5,5564.5 L-7483.9,5567.0 L-7418.9,6203.9 L-7417.4,6209.4 L-7414.6,6216.2 L-7412.2,6220.6 L-7409.6,6225.3 L-7406.2,6229.9 L-7403.4,6233.1 L-7400.3,6236.3 L-7396.9,6239.0 L-7393.9,6241.1 L-7389.7,6243.8 L-7386.0,6245.7 L-7381.1,6247.8 L-7376.5,6249.2 L-7371.3,6250.3 L-7367.3,6250.9 L-7363.8,6251.0 L-7359.7,6251.1 L-7218.5,6248.2 L-7213.9,6247.6 L-7209.5,6245.5 L-7206.3,6242.6 L-7204.1,6238.2 L-7203.3,6234.2 L-7203.5,6230.2 L-7275.0,5548.1 L-7338.0,5465.9 L-7340.8,5468.2 L-7395.6,5391.7 L-7396.6,5375.5 L-7398.3,5372.1 L-7401.2,5369.0 L-7404.9,5363.8 L-7405.2,5356.2 L-7411.7,5353.7 L-7418.0,5353.6 L-7426.5,5357.8 L-7416.9,5375.8 L-7429.0,5381.6 L-7438.1,5373.2 L-7445.9,5368.4 L-7451.2,5366.6 L-7464.2,5366.1 L-7470.8,5352.7 L-7429.3,5335.7 L-7431.3,5332.3 L-7440.1,5320.5 L-7441.5,5321.2 L-7750.4,4916.7 L-7755.1,4850.0 L-7752.6,4849.4 L-7764.5,4727.1 L-7769.1,4715.8 L-7774.1,4703.1 L-7777.9,4693.3 L-7782.5,4680.8 L-7797.5,4638.7 L-7803.6,4641.4 L-7812.5,4607.3 L-7811.0,4607.0 L-7842.1,4522.7 L-7845.5,4375.3 L-7841.9,4375.3 L-7841.4,4362.4 L-7839.6,4349.7 L-7838.9,4345.0 L-7840.2,4341.2 L-7836.0,4321.1 L-7797.7,4253.3 L-7817.8,4241.1 L-7802.9,4216.4 L-7783.5,4227.8 L-7781.8,4225.2 L-7775.7,4228.3 L-7769.1,4230.9 L-7761.5,4233.3 L-7755.8,4234.5 L-7750.4,4234.7 L-7744.0,4233.6 L-7737.7,4231.5 L-7731.5,4229.1 L-7728.6,4226.0 L-7727.5,4221.9 L-7726.0,4217.0 L-7725.7,4215.0 L-7725.8,4212.5 L-7727.2,4208.6 L-7729.8,4204.9 L-7732.8,4202.8 L-7737.2,4198.6 L-7741.0,4194.6 L-7746.6,4191.0 L-7748.9,4185.3 L-7751.6,4179.6 L-7755.9,4172.9 L-7760.8,4167.1 L-7769.8,4160.7 L-7813.4,4138.1 L-7839.2,4125.3 L-7863.3,4112.3 L-7886.2,4099.6 L-7901.0,4090.0 L-7906.7,4088.5 L-7913.0,4090.4 L-7916.5,4094.7 L-7923.6,4112.4 L-7967.7,4092.6 L-7941.3,4050.9 L-7935.5,4048.2 L-7928.4,4046.8 L-7920.1,4048.6 L-7754.4,4145.5 L-7745.4,4148.2 L-7736.0,4150.5 L-7722.7,4150.8 L-7709.2,4148.4 L-7700.6,4144.9 L-7691.2,4137.3 L-7685.7,4132.0 L-7679.8,4123.7 L-7679.9,4122.6 L-7680.3,4121.6 L-7681.2,4120.8 L-7734.8,4087.7 L-7736.1,4087.3 L-7737.5,4087.2 L-7738.9,4087.3 L-7744.0,4089.5 L-7745.9,4089.7 L-7748.0,4089.5 L-7751.1,4089.0 L-7753.5,4088.3 L-7756.9,4086.6 L-7760.2,4084.7 L-7833.9,4039.7 L-7868.6,4015.3 L-7871.9,4014.8 L-7875.2,4014.9 L-7879.1,4015.0 L-7881.7,4014.6 L-7883.9,4013.6 L-7886.5,4011.6 L-7889.4,4009.3 L-7891.4,4006.5 L-7892.6,4003.7 L-7892.8,4001.6 L-7892.5,3998.9 L-7892.0,3996.6 L-7880.2,3976.8 L-7880.2,3975.9 L-7881.1,3975.2 L-7891.9,3967.6 L-7894.0,3964.5 L-7892.8,3962.6 L-7889.3,3963.1 L-7885.5,3964.2 L-7863.3,3977.9 L-7737.5,4058.2 L-7734.9,4059.7 L-7733.1,4061.6 L-7731.9,4063.8 L-7730.6,4068.4 L-7729.7,4072.0 L-7729.2,4075.1 L-7672.4,4109.2 L-7670.4,4110.1 L-7668.0,4110.3 L-7665.2,4109.9 L-7663.2,4109.2 L-7661.5,4108.4 L-7600.4,4009.5 L-7574.8,3971.9 L-7550.9,3945.0 L-7538.8,3951.7 L-7531.0,3939.1 L-7572.5,3914.3 L-7563.7,3899.9 L-7522.2,3924.9 L-7512.9,3909.7 L-7520.4,3901.3 L-7512.8,3892.6 L-7504.6,3902.0 L-7502.6,3900.5 L-7500.3,3898.9 L-7497.1,3897.1 L-7493.8,3895.5 L-7489.7,3894.0 L-7485.8,3892.9 L-7481.6,3892.2 L-7477.4,3891.9 L-7473.4,3892.0 L-7469.5,3892.6 L-7465.8,3893.5 L-7462.7,3894.4 L-7460.0,3895.6 L-7456.2,3897.4 L-7452.7,3899.6 L-7449.7,3901.7 L-7446.7,3904.4 L-7444.0,3907.0 L-7441.0,3910.9 L-7438.9,3914.4 L-7436.8,3918.9 L-7435.4,3923.4 L-7434.2,3929.6 L-7433.8,3935.0 L-7433.9,3938.1 L-7434.3,3941.3 L-7435.4,3946.1 L-7438.2,3952.7 L-7440.0,3957.0 L-7442.5,3962.1 L-7432.1,3967.3 L-7383.5,3909.3 L-7472.0,3855.5 L-7467.5,3845.9 L-7464.3,3837.0 L-7464.1,3833.2 L-7459.0,3822.3 L-7448.5,3812.6 L-7435.5,3802.0 L-7420.0,3792.1 L-7390.9,3783.6 L-7340.7,3778.6 L-7320.9,3762.6 L-7316.8,3761.9 L-7313.5,3761.7 L-7308.8,3763.5 L-7304.5,3764.0 L-7276.6,3780.9 L-7203.2,3693.8 L-7472.2,3522.8 L-7488.9,3549.1 L-7525.2,3526.1 L-7473.7,3445.1 L-7437.5,3467.5 L-7453.6,3495.1 L-7179.9,3667.6 L-7145.4,3623.3 L-7121.0,3594.3 L-7088.8,3545.9 L-7071.0,3521.5 L-7072.8,3507.6 L-7072.3,3507.2 L-7075.5,3496.9 L-7077.6,3490.5 L-7079.6,3483.9 L-7082.0,3478.2 L-7086.6,3470.7 L-7091.2,3463.4 L-7093.2,3459.6 L-7094.7,3455.8 L-7095.8,3452.3 L-7096.2,3449.2 L-7096.7,3439.0 L-7214.9,3330.5 L-7218.8,3334.7 L-7222.1,3331.9 L-7231.7,3341.4 L-7238.0,3333.0 L-7230.4,3324.2 L-7238.0,3314.5 L-7243.2,3315.9 L-7248.6,3316.1 L-7253.5,3315.2 L-7257.8,3313.4 L-7262.8,3309.7 L-7269.0,3303.6 L-7279.9,3291.6 L-7283.2,3286.5 L-7284.4,3280.1 L-7283.6,3272.5 L-7280.7,3265.5 L-7278.2,3260.7 L-7273.4,3255.9 L-7268.1,3252.3 L-7263.0,3250.4 L-7259.2,3249.8 L-7254.2,3250.7 L-7249.1,3252.5 L-7244.3,3256.3 L-7233.2,3266.3 L-7227.5,3271.7 L-7222.3,3277.4 L-7220.6,3280.1 L-7219.4,3283.0 L-7218.7,3285.6 L-7218.2,3289.2 L-7218.8,3292.6 L-7219.8,3295.8 L-7221.2,3298.2 L-7221.6,3299.3 L-7221.3,3300.7 L-7220.5,3302.1 L-7093.6,3421.0 L-7089.2,3424.0 L-7086.1,3425.3 L-7081.7,3424.3 L-7076.5,3423.9 L-7069.9,3426.7 L-7063.3,3430.8 L-7050.4,3438.1 L-7045.0,3440.7 L-7040.1,3435.9 L-7034.7,3430.7 L-7031.1,3426.6 L-7025.1,3418.8 L-7021.7,3414.1 L-7018.1,3408.3 L-7015.8,3403.2 L-7013.3,3397.8 L-7011.0,3392.1 L-7008.9,3386.3 L-7007.7,3381.4 L-7006.3,3375.2 L-7005.7,3371.5 L-7005.3,3368.5 L-7004.6,3363.2 L-7003.9,3358.0 L-7003.6,3354.6 L-7003.4,3350.9 L-7003.4,3346.6 L-7003.6,3343.0 L-7004.3,3338.0 L-7005.1,3332.3 L-7005.9,3327.0 L-7006.4,3322.7 L-7007.0,3319.5 L-7007.7,3316.1 L-7008.5,3312.7 L-7009.7,3308.7 L-7011.1,3304.7 L-7012.2,3302.3 L-7013.4,3299.9 L-7015.1,3297.6 L-7017.4,3294.3 L-7019.9,3291.2 L-7022.6,3288.6 L-7026.0,3285.8 L-7029.5,3283.6 L-7033.0,3281.7 L-7036.2,3280.5 L-7038.4,3279.8 L-7040.9,3279.5 L-7043.9,3279.6 L-7046.7,3280.2 L-7048.9,3281.1 L-7051.0,3282.6 L-7052.5,3284.2 L-7053.7,3285.7 L-7054.6,3288.0 L-7055.1,3290.5 L-7055.0,3293.5 L-7054.8,3297.0 L-7054.8,3299.6 L-7055.0,3302.2 L-7055.4,3304.8 L-7055.9,3307.1 L-7056.8,3309.5 L-7058.2,3312.1 L-7059.9,3314.6 L-7061.6,3316.9 L-7063.3,3318.5 L-7066.7,3321.2 L-7069.5,3323.1 L-7073.9,3324.4 L-7076.5,3325.0 L-7079.5,3325.4 L-7082.2,3325.5 L-7085.8,3325.3 L-7088.4,3324.8 L-7092.0,3324.0 L-7097.0,3322.5 L-7101.2,3320.9 L-7104.3,3319.7 L-7107.6,3317.9 L-7110.5,3315.9 L-7113.7,3313.4 L-7116.2,3311.1 L-7118.3,3309.0 L-7120.5,3306.4 L-7122.3,3304.0 L-7124.0,3301.6 L-7125.5,3298.9 L-7127.1,3295.3 L-7128.5,3292.0 L-7129.9,3288.4 L-7130.8,3285.6 L-7131.5,3283.0 L-7132.0,3280.3 L-7132.4,3276.1 L-7132.7,3272.4 L-7132.5,3268.4 L-7131.6,3263.1 L-7130.1,3257.9 L-7128.2,3252.5 L-7126.9,3250.0 L-7125.6,3248.5 L-7115.3,3235.4 L-7112.9,3232.7 L-7109.8,3231.2 L-7106.5,3230.0 L-7102.8,3229.2 L-7098.7,3228.7 L-7095.1,3228.5 L-7091.5,3228.6 L-7087.9,3229.0 L-7083.8,3230.2 L-7079.5,3232.3 L-7075.8,3234.6 L-7072.5,3237.2 L-7062.1,3246.8 L-7059.6,3247.6 L-7058.2,3247.9 L-7056.5,3247.5 L-7055.4,3247.1 L-7054.0,3245.5 L-7053.4,3243.9 L-7053.3,3241.7 L-7053.2,3239.7 L-7053.6,3238.8 L-7074.6,3218.0 L-7046.0,3187.5 L-7047.6,3183.9 L-7031.1,3167.6 L-6999.3,3199.4 L-7024.9,3232.0 L-7025.1,3233.9 L-7023.8,3234.7 L-7022.2,3234.3 L-6994.1,3199.1 L-6985.9,3189.2 L-6985.6,3186.9 L-6986.3,3184.9 L-6987.8,3183.1 L-7009.8,3162.3 L-7004.3,3155.9 L-7009.9,3151.2 L-7006.7,3143.8 L-6949.7,3086.5 L-6930.1,3083.2 L-6924.0,3082.3 L-6918.2,3081.5 L-6915.5,3080.8 L-6912.3,3079.1 L-6908.5,3077.0 L-6905.6,3074.1 L-6902.8,3070.6 L-6873.7,3028.3 L-6873.1,3027.2 L-6873.4,3025.8 L-6873.8,3024.8 L-6874.5,3023.9 L-6878.0,3021.7 L-6878.9,3021.2 L-6879.7,3021.3 L-6880.6,3021.8 L-6882.5,3023.2 L-6906.9,3046.0 L-6916.4,3052.8 L-6955.4,3012.8 L-6950.9,2998.6 L-6949.0,2994.4 L-6942.9,2983.2 L-6935.8,2970.7 L-6931.5,2965.9 L-6923.8,2957.7 L-6915.6,2948.7 L-6906.6,2939.2 L-6898.9,2932.6 L-6895.2,2929.3 L-6890.3,2925.7 L-6885.8,2923.3 L-6879.4,2920.4 L-6875.4,2919.0 L-6871.4,2917.8 L-6868.3,2917.5 L-6863.9,2917.8 L-6860.2,2918.3 L-6856.0,2919.5 L-6851.9,2922.9 L-6849.4,2926.4 L-6847.9,2930.0 L-6847.3,2935.4 L-6847.5,2942.5 L-6848.4,2950.5 L-6850.1,2958.2 L-6860.4,2981.2 L-6870.2,3001.9 L-6866.8,3007.4 L-6865.0,3008.5 L-6863.1,3008.5 L-6861.4,3008.1 L-6860.1,3007.3 L-6853.4,2997.8 L-6844.8,2993.5 L-6827.7,2947.8 L-6826.5,2945.5 L-6824.8,2943.5 L-6823.1,2942.6 L-6821.5,2942.2 L-6819.2,2942.2 L-6816.8,2942.8 L-6804.3,2946.3 L-6801.9,2946.8 L-6799.1,2946.9 L-6796.5,2946.5 L-6794.4,2945.6 L-6792.6,2944.2 L-6790.8,2941.9 L-6769.8,2913.8 L-6768.8,2911.7 L-6768.3,2909.5 L-6768.3,2907.4 L-6768.7,2905.2 L-6769.5,2903.6 L-6770.7,2902.0 L-6772.1,2900.7 L-6774.1,2899.7 L-6776.0,2899.2 L-6777.9,2899.1 L-6779.5,2899.4 L-6781.4,2900.3 L-6782.8,2901.3 L-6783.9,2902.7 L-6789.4,2911.6 L-6790.6,2913.3 L-6792.0,2914.9 L-6794.1,2916.7 L-6796.0,2917.8 L-6798.3,2918.5 L-6801.1,2919.1 L-6802.7,2919.1 L-6804.9,2918.8 L-6806.8,2918.3 L-6808.4,2917.6 L-6825.6,2902.0 L-6827.6,2899.6 L-6829.1,2897.4 L-6830.5,2894.7 L-6831.4,2892.4 L-6832.0,2890.0 L-6832.5,2887.4 L-6832.8,2884.2 L-6832.9,2881.0 L-6832.6,2878.3 L-6832.2,2876.0 L-6831.7,2874.0 L-6830.9,2872.3 L-6799.6,2822.6 L-6797.6,2819.3 L-6796.4,2817.6 L-6795.0,2816.8 L-6792.7,2815.8 L-6790.3,2815.1 L-6788.0,2814.7 L-6786.7,2814.7 L-6785.4,2814.9 L-6784.3,2815.3 L-6782.7,2816.1 L-6780.8,2817.3 L-6777.6,2819.9 L-6763.3,2833.3 L-6760.9,2836.7 L-6759.5,2840.0 L-6758.2,2843.9 L-6757.8,2846.9 L-6757.6,2850.1 L-6757.6,2852.8 L-6757.9,2855.5 L-6758.4,2858.2 L-6759.0,2860.0 L-6760.6,2863.7 L-6766.3,2874.3 L-6766.9,2876.7 L-6766.9,2879.6 L-6766.7,2881.8 L-6765.9,2883.5 L-6764.4,2885.1 L-6762.0,2886.8 L-6760.0,2887.9 L-6757.7,2888.4 L-6755.0,2888.3 L-6752.8,2887.8 L-6750.3,2886.5 L-6748.1,2884.5 L-6711.1,2833.7 L-6722.4,2823.5 L-6715.6,2816.2 L-6705.5,2825.9 L-6684.7,2798.6 L-6653.2,2756.5 L-6780.0,2635.0 L-6807.5,2663.9 L-6839.8,2633.4 L-6808.6,2599.8 L-6812.7,2595.3 L-6806.2,2589.3 L-6802.2,2593.4 L-6780.5,2569.8 L-6761.0,2587.9 L-6758.7,2602.9 L-6676.7,2679.4 L-6660.7,2685.6 L-6647.9,2681.1 L-6623.6,2690.8 L-6607.5,2684.9 L-6559.6,2626.4 L-6556.9,2620.9 L-6556.1,2613.5 L-6558.5,2606.2 L-6561.7,2601.0 L-6590.1,2574.8 L-6589.7,2567.6 L-6584.1,2553.5 L-6572.9,2532.6 L-6595.0,2518.3 L-6586.6,2515.1 L-6581.3,2511.7 L-6576.0,2505.7 L-6569.8,2489.8 L-6558.4,2460.8 L-6551.0,2454.0 L-6621.2,2386.0 L-6636.6,2395.6 L-6640.2,2396.5 L-6643.6,2396.6 L-6648.0,2396.1 L-6651.6,2395.1 L-6655.1,2393.0 L-6658.0,2390.5 L-6694.3,2355.5 L-6701.1,2348.7 L-6704.1,2345.1 L-6706.6,2340.6 L-6707.8,2336.5 L-6708.3,2332.5 L-6708.2,2328.7 L-6707.5,2325.1 L-6706.6,2322.2 L-6705.4,2320.1 L-6702.8,2316.4 L-6699.7,2312.7 L-6683.4,2295.8 L-6559.4,2410.7 L-6567.9,2420.3 L-6476.0,2507.2 L-6370.1,2352.1 L-6437.3,2289.3 L-6445.9,2297.0 L-6571.4,2178.5 L-6555.0,2163.2 L-6482.9,2230.8 L-6475.7,2220.2 L-6471.7,2214.9 L-6466.6,2209.7 L-6460.7,2203.2 L-6454.7,2199.3 L-6445.2,2191.3 L-6435.7,2182.5 L-6417.5,2165.3 L-6374.0,2116.4 L-6366.2,2108.3 L-6337.5,2093.6 L-6310.3,2072.3 L-6307.7,2070.3 L-6300.6,2064.8 L-6297.5,2062.0 L-6295.0,2058.8 L-6293.3,2055.5 L-6292.2,2052.2 L-6290.9,2049.7 L-6289.4,2047.0 L-6286.8,2042.7 L-6285.0,2040.0 L-6283.2,2037.5 L-6279.9,2034.9 L-6276.7,2032.7 L-6273.2,2030.6 L-6264.9,2026.6 L-6256.9,2022.6 L-6255.7,2022.4 L-6254.5,2022.6 L-6252.1,2023.3 L-6245.6,2026.6 L-6240.7,2029.0 L-6238.4,2030.4 L-6236.3,2032.1 L-6202.9,2063.8 L-6200.6,2065.1 L-6189.7,2068.0 L-6186.2,2069.0 L-6182.3,2069.4 L-6179.3,2069.3 L-6177.0,2068.5 L-6174.7,2066.9 L-6162.8,2050.1 L-6162.8,2047.8 L-6163.2,2045.7 L-6164.5,2043.4 L-6166.5,2041.2 L-6175.6,2032.7 L-6174.9,2031.3 L-6163.2,2006.5 L-6143.2,1966.2 L-6125.0,1952.8 L-6114.5,1942.3 L-6107.3,1934.0 L-6099.7,1926.3 L-6091.3,1919.4 L-6086.2,1914.7 L-6080.8,1909.8 L-6076.8,1905.8 L-6074.8,1902.2 L-6073.2,1899.4 L-6072.2,1896.7 L-6071.8,1893.5 L-6071.6,1890.3 L-6065.5,1884.1 L-6056.5,1875.6 L-6041.5,1863.3 L-6025.8,1851.4 L-6018.8,1841.6 L-6016.2,1831.5 L-6008.4,1826.7 L-5998.6,1826.5 L-5988.7,1820.6 L-5980.0,1804.9 L-5980.2,1788.6 L-5978.6,1763.4 L-5976.1,1759.8 L-5974.6,1757.4 L-5971.8,1752.8 L-5975.3,1742.1 L-5971.3,1737.1 L-5951.5,1712.6 L-5917.5,1672.9 L-5911.0,1663.5 L-5908.4,1658.6 L-5897.6,1643.7 L-5894.6,1634.3 L-5894.5,1619.8 L-5894.9,1605.3 L-5895.0,1590.5 L-5890.6,1574.2 L-5883.2,1558.1 L-5872.6,1542.6 L-5864.9,1531.1 L-5855.8,1519.6 L-5838.2,1500.0 L-5760.2,1461.4 L-5749.9,1458.7 L-5747.3,1464.3 L-5744.2,1469.7 L-5743.2,1470.7 L-5741.5,1470.0 L-5741.2,1466.2 L-5742.4,1463.0 L-5738.1,1461.7 L-5722.1,1457.0 L-5701.3,1450.8 L-5684.5,1445.8 L-5678.5,1444.0 L-5684.5,1425.1 L-5674.1,1422.3 L-5656.8,1419.9 L-5654.7,1419.6 L-5654.6,1418.4 L-5654.6,1414.0 L-5638.9,1413.3 L-5614.3,1412.3 L-5604.8,1416.9 L-5581.1,1502.3 L-5575.8,1507.4 L-5586.1,1518.0 L-5577.0,1527.0 L-5568.0,1536.0 L-5557.2,1525.0 L-5356.7,1715.6 L-5089.1,1430.0 L-4995.6,1519.4 L-4992.0,1518.3 L-4990.6,1519.9 L-4984.3,1515.9 L-4979.1,1514.0 L-4973.6,1511.5 L-4964.2,1506.6 L-4958.4,1503.3 L-4951.5,1499.3 L-4945.1,1495.3 L-4939.9,1491.9 L-4935.1,1488.8 L-4929.5,1484.7 L-4923.1,1480.0 L-4918.2,1475.9 L-4913.0,1471.3 L-4907.3,1465.9 L-4901.9,1460.5 L-4889.3,1447.1 L-4881.7,1438.0 L-4874.3,1428.1 L-4869.2,1420.9 L-4864.4,1413.5 L-4858.7,1403.2 L-4853.7,1393.1 L-4849.7,1384.8 L-4846.3,1376.5 L-4844.2,1371.0 L-4841.9,1364.8 L-4836.5,1358.1 L-5007.5,1195.4 L-5005.4,1193.1 L-4984.9,1171.1 L-4970.0,1155.3 L-4968.5,1153.7 L-4925.1,1194.3 L-4914.6,1188.9 L-4913.4,1190.4 L-4811.4,1137.3 L-4807.2,1135.1 L-4804.3,1132.8 L-4801.6,1130.3 L-4798.5,1127.1 L-4795.5,1122.6 L-4792.9,1118.4 L-4791.2,1115.2 L-4790.0,1111.1 L-4788.9,1106.6 L-4788.4,1101.7 L-4788.4,1096.2 L-4788.8,1091.8 L-4789.6,1087.9 L-4790.9,1083.2 L-4822.8,991.4 L-4827.1,976.3 L-4826.0,971.1 L-4903.0,952.0 L-4899.4,938.7 L-4896.4,926.7 L-4873.6,836.5 L-4891.3,783.9 L-4901.7,749.9 L-4904.7,741.4 L-4877.1,716.1 L-4846.0,699.4 L-4844.1,702.0 L-4841.1,706.3 L-4834.1,715.4 L-4833.3,714.6 L-4833.1,711.5 L-4842.8,698.1 L-4825.5,685.7 L-4821.7,683.5 L-4812.7,695.2 L-4811.2,696.3 L-4809.7,696.6 L-4808.9,696.4 L-4808.9,695.6 L-4851.7,637.0 L-4854.8,633.6 L-4858.4,628.7 L-4877.0,606.2 L-4861.1,556.9 L-4848.9,544.2 L-4834.8,537.6 L-4804.8,519.8 L-4798.6,513.4 L-4771.7,489.8 L-4763.2,498.7 L-4738.3,525.6 L-4715.2,506.2 L-4699.7,521.1 L-4685.8,534.7 L-4685.1,535.4 L-4673.3,525.3 L-4657.7,541.9 L-4644.3,559.1 L-4634.4,570.6 L-4633.1,572.1 L-4604.3,546.8 L-4602.8,545.5 L-4609.6,537.2 L-4593.9,524.3 L-4546.3,579.8 L-4505.8,553.1 L-4501.8,549.3 L-4484.2,541.9 L-4480.2,538.0 L-4476.4,533.0 L-4454.7,513.7 L-4459.6,507.0 L-4498.4,515.9 L-4542.8,465.4 L-4537.7,461.0 L-4531.0,468.8 L-4499.6,441.8 L-4466.3,478.2 L-4457.3,481.8 L-4451.9,484.9 L-4445.1,492.6 L-4441.4,489.3 L-4465.5,461.9 L-4450.7,449.1 L-4420.8,485.0 L-4417.0,482.2 L-4417.4,481.4 L-4351.8,434.0 L-4332.3,419.6 L-4396.0,340.0 L-4382.4,330.5 L-4327.0,395.4 L-4286.1,402.9 L-4259.1,387.1 L-4255.3,384.7 L-4255.5,381.7 L-4257.4,378.2 L-4236.3,364.9 L-4230.1,371.1 L-4212.3,360.6 L-4225.2,344.6 L-4287.5,261.3 L-4243.5,215.7 L-4214.6,173.0 L-4213.9,139.6 L-4229.3,95.2 L-4196.9,68.2 L-4162.9,55.1 L-4151.7,52.5 L-4142.7,51.3 L-4131.7,52.0 L-4120.3,54.8 L-4103.8,68.9 L-4061.0,121.1 L-4026.8,164.5 L-3985.9,191.8 L-3969.8,194.4 L-3955.4,196.1 L-3943.2,196.6 L-3927.6,195.5 L-3910.7,192.7 L-3897.0,188.8 L-3885.4,183.4 L-3877.7,178.9 L-3872.0,172.9 L-3862.4,161.3 L-3852.0,142.3 L-3840.7,117.1 L-3820.6,127.4 L-3812.6,130.1 L-3804.0,131.3 L-3790.3,130.4 L-3781.2,127.7 L-3770.8,123.2 L-3761.1,117.6 L-3750.8,107.6 L-3742.0,99.6 L-3731.0,92.1 L-3723.4,87.2 L-3712.2,83.2 L-3692.9,77.6 L-3681.5,74.4 L-3669.3,69.8 L-3658.7,64.3 L-3652.4,60.7 L-3647.4,55.5 L-3582.0,22.7 L-3579.5,21.3 L-3576.6,19.5 L-3573.6,17.2 L-3569.2,14.7 L-3566.3,13.3 L-3563.2,10.6 L-3560.8,8.1 L-3557.6,6.0 L-3554.2,3.6 L-3549.7,-0.6 L-3543.3,-1.1 L-3536.7,-1.9 L-3532.4,-3.3 L-3526.8,-5.9 L-3519.9,-9.0 L-3512.6,-13.5 L-3508.5,-17.4 L-3503.9,-22.7 L-3501.0,-27.6 L-3499.4,-32.1 L-3499.3,-35.3 L-3499.2,-37.9 L-3497.6,-48.3 L-3461.2,-69.4 L-3397.4,-106.2 L-3385.0,-113.3 L-3276.8,-175.7 L-3159.6,-243.0 L-3109.7,-271.6 L-3092.4,-281.3 L-2947.5,-365.5 L-2915.3,-383.2 L-2915.8,-384.3 L-2849.5,-421.8 L-2824.0,-436.1 L-2777.0,-462.1 L-2776.5,-461.4 L-2758.3,-471.4 L-2714.1,-496.1 L-2708.8,-500.9 L-2664.0,-533.7 L-2641.7,-552.2 L-2621.2,-569.5 L-2611.8,-574.8 L-2590.6,-595.8 L-2588.8,-594.7 L-2586.0,-595.0 L-2584.6,-594.1 L-2554.8,-629.0 L-2562.3,-636.0 L-2561.3,-637.8 L-2558.1,-642.4 L-2549.5,-653.3 L-2544.3,-661.2 L-2540.2,-667.7 L-2534.5,-676.4 L-2529.0,-685.4 L-2522.8,-695.7 L-2516.4,-706.9 L-2502.5,-735.6 L-2498.2,-744.7 L-2494.7,-752.0 L-2492.3,-757.5 L-2490.2,-761.7 L-2485.8,-772.7 L-2601.6,-988.7 L-2603.8,-992.8 L-2605.5,-995.1 L-2606.7,-996.8 L-2608.3,-998.2 L-2609.8,-999.2 L-2611.8,-1000.4 L-2613.9,-1001.2 L-2615.7,-1001.6 L-2617.5,-1001.8 L-2620.2,-1001.8 L-2623.3,-1001.3 L-2626.0,-1000.5 L-2628.8,-999.1 L-2655.7,-983.6 L-2690.8,-963.5 L-2715.3,-949.9 L-2760.0,-925.3 L-2787.4,-910.4 L-2786.4,-908.7 L-2798.1,-902.0 L-2836.4,-882.2 L-2864.8,-865.4 L-2881.5,-856.1 L-2906.9,-841.5 L-2909.8,-839.5 L-2932.1,-879.6 L-2888.3,-903.6 L-2828.5,-936.1 L-2787.8,-958.7 L-2782.8,-961.6 L-2783.5,-962.7 L-2748.3,-981.9 L-2729.6,-992.2 L-2686.7,-1013.1 L-2678.5,-1017.3 L-2613.8,-1053.3 L-2589.5,-1066.7 L-2572.4,-1075.9 L-2552.2,-1087.5 L-2524.2,-1036.9 L-2568.2,-1012.8 L-2570.5,-1009.1 L-2571.4,-1005.2 L-2571.8,-1002.2 L-2571.9,-999.6 L-2571.7,-997.5 L-2570.9,-994.6 L-2481.2,-828.7 L-2479.5,-826.2 L-2477.5,-824.3 L-2475.5,-823.0 L-2473.4,-822.3 L-2471.1,-822.0 L-2468.9,-822.2 L-2467.2,-822.7 L-2427.4,-852.9 L-2408.7,-868.6 L-2389.4,-884.9 L-2382.1,-891.6 L-2358.2,-911.2 L-2357.1,-911.2 L-2333.9,-931.0 L-2333.8,-932.2 L-2318.6,-944.7 L-2306.6,-954.5 L-2286.0,-971.5 L-2284.1,-969.2 L-2263.9,-985.9 L-2253.7,-994.4 L-2225.4,-1017.9 L-2205.7,-1034.3 L-2207.6,-1037.1 L-2201.1,-1042.6 L-2190.4,-1051.4 L-2183.8,-1057.2 L-2155.9,-1069.7 L-2137.0,-1076.3 L-2127.3,-1080.9 L-2100.1,-1081.1 L-2090.6,-1081.1 L-2070.5,-1080.1 L-2047.0,-1079.1 L-2045.3,-1080.7 L-2043.0,-1077.7 L-2035.6,-1077.3 L-1968.3,-1071.5 L-1960.4,-1069.8 L-1953.5,-1068.7 L-1937.9,-1067.4 L-1908.8,-1066.0 L-1902.4,-1065.9 L-1896.4,-1066.1 L-1873.1,-1067.0 L-1861.1,-1067.6 L-1849.2,-1068.7 L-1830.9,-1070.6 L-1831.0,-1069.5 L-1816.5,-1072.0 L-1802.8,-1074.6 L-1792.3,-1076.5 L-1778.5,-1086.9 L-1776.9,-1084.7 L-1775.2,-1082.3 L-1653.6,-921.5 L-1360.1,-820.3 L-821.5,-1215.9 L-674.7,-1321.6 L-618.0,-1442.6 L-708.2,-1560.8 L-704.2,-1577.7 L-688.4,-1582.0 L-658.0,-1575.7 L-636.4,-1583.8 L-630.4,-1592.2 L-631.7,-1599.5 L-647.8,-1631.1 L-648.9,-1642.9 L-649.8,-1666.3 L-652.6,-1688.9 L-649.8,-1692.9 L-640.7,-1697.3 L-629.6,-1699.8 L-621.6,-1708.4 L-619.8,-1718.8 L-626.6,-1738.9 L-627.3,-1752.8 L-625.1,-1768.6 L-614.1,-1796.3 L-616.4,-1809.1 L-621.9,-1823.4 L-622.1,-1842.8 L-625.3,-1868.4 L-631.1,-1884.4 L-634.7,-1892.8 L-632.3,-1896.5 L-630.0,-1896.3 L-629.4,-1897.8 L-629.1,-1899.8 L-629.2,-1901.8 L-632.7,-1902.2 L-634.9,-1905.3 L-634.5,-1909.0 L-637.5,-1909.8 L-641.2,-1909.9 L-641.7,-1909.0 L-649.3,-1918.0 L-650.9,-1920.8 L-652.2,-1924.7 L-653.1,-1928.5 L-653.8,-1932.5 L-654.1,-1936.5 L-654.3,-1940.1 L-654.3,-1943.8 L-654.0,-1945.8 L-652.4,-1950.8 L-650.6,-1954.8 L-648.3,-1958.7 L-644.9,-1963.6 L-641.4,-1968.3 L-638.1,-1971.7 L-634.0,-1974.8 L-633.2,-1974.0 L-598.1,-2000.8 L-593.0,-2004.7 L-594.0,-2006.2 L-594.0,-2008.8 L-585.3,-2015.6 L-583.1,-2015.5 L-581.0,-2014.0 L-577.3,-2016.8 L-541.3,-2044.1 L-541.7,-2045.0 L-537.5,-2048.1 L-532.5,-2051.2 L-529.0,-2052.8 L-524.0,-2054.7 L-519.7,-2055.9 L-515.4,-2056.5 L-510.7,-2056.9 L-507.9,-2056.7 L-504.0,-2056.1 L-500.2,-2054.8 L-497.4,-2053.4 L-494.7,-2051.8 L-492.7,-2050.3 L-491.0,-2048.7 L-488.5,-2046.3 L-487.4,-2045.9 L-485.6,-2045.9 L-483.8,-2046.2 L-478.3,-2050.1 L-478.3,-2051.2 L-477.7,-2052.0 L-477.1,-2053.1 L-477.2,-2054.4 L-477.5,-2055.5 L-478.3,-2056.5 L-482.2,-2060.4 L-485.3,-2062.9 L-488.9,-2064.9 L-494.8,-2067.5 L-499.9,-2069.5 L-491.0,-2074.1 L-480.1,-2081.7 L-466.6,-2083.4 L-453.1,-2082.5 L-444.3,-2086.0 L-436.6,-2097.0 L-407.6,-2148.9 L-395.8,-2170.3 L-386.5,-2193.1 L-384.9,-2197.9 L-371.1,-2240.2 L-368.9,-2244.3 L-366.3,-2248.4 L-333.9,-2288.5 L-327.0,-2295.7 L-321.9,-2300.1 L-249.3,-2362.3 L-245.3,-2365.0 L-232.9,-2371.8 L-218.0,-2380.2 L-171.6,-2404.5 L-70.5,-2458.8 L-68.1,-2456.9 L-66.2,-2456.2 L-64.5,-2455.7 L-62.7,-2456.0 L-60.8,-2456.4 L-55.4,-2457.5 L-49.1,-2458.9 L-43.4,-2460.2 L-37.5,-2461.3 L-34.3,-2462.0 L-29.9,-2463.3 L-24.9,-2465.4 L-12.8,-2472.0 L-8.4,-2474.4 L-6.1,-2475.8 L-3.8,-2476.8 L5.6,-2480.8 L15.9,-2484.8 L28.9,-2490.4 L44.2,-2496.7 L44.8,-2497.0 L46.1,-2497.1 L47.8,-2497.6 L50.2,-2499.4 L52.9,-2500.4 L55.9,-2501.9 L61.5,-2505.1 L63.5,-2507.1 L66.8,-2509.2 L66.5,-2509.8 L67.9,-2511.5 L69.7,-2513.4 L72.7,-2514.9 L75.2,-2515.9 L77.9,-2516.9 L80.4,-2518.2 L85.3,-2521.3 L86.7,-2522.7 L88.1,-2524.9 L88.7,-2526.5 L88.9,-2528.1 L88.7,-2529.6 L89.0,-2531.1 L75.0,-2548.0 L119.1,-2573.9 L140.0,-2585.0 L144.1,-2586.3 L150.5,-2585.1 L157.6,-2575.2 L160.8,-2572.4 L163.7,-2571.0 L166.4,-2570.4 L168.9,-2570.5 L206.7,-2586.1 L217.0,-2591.1 L226.6,-2596.4 L242.1,-2604.6 L245.3,-2605.7 L460.1,-2695.0 L527.3,-2727.3 L827.8,-2871.6 L7840.9,-2929.6 L7840.9,7106.0 L-7146.8,7106.0 L-7146.8,6679.5 Z" fill="#add7e1" stroke="none"><title>Biscayne Bay</title></path><path d="M-1.0,-1.0 L257.0,-1.0 L257.0,257.0 L-1.0,257.0 L-1.0,-1.0 Z" fill="#add7e1" stroke="none" fill-rule="evenodd"><title>Biscayne Bay</title></path></svg>