<svg xmlns="http://www.w3.org/2000/svg" width="256" height="256" viewBox="0 0 256 256"><rect width="256" height="256" fill="#f1efe7"/><path d="M245.3,-14893.7 L460.1,-14983.0 L527.3,-15015.3 L827.8,-15159.6 L884.2,-15105.0 L889.1,-15100.3 L994.5,-15190.5 L1019.6,-15209.6 L1061.5,-15247.4 L1297.6,-15464.2 L1488.1,-15681.8 L1495.4,-15695.7 L1502.4,-15703.6 L1513.5,-15716.3 L1524.8,-15729.2 L1529.4,-15734.5 L1454.3,-15831.6 L1553.7,-15891.2 L1607.6,-15819.5 L1683.8,-15906.7 L1619.3,-15992.1 L1699.2,-16075.4 L1760.7,-15994.4 L1831.3,-16074.8 L1861.4,-16094.5 L2008.6,-16190.0 L2081.3,-16238.3 L2168.9,-16295.9 L2210.3,-16323.1 L2315.2,-16390.8 L2288.2,-16426.3 L2239.9,-16491.0 L2364.8,-16570.4 L2410.3,-16593.9 L2413.8,-16596.4 L2437.8,-16614.9 L2523.4,-16660.7 L2529.3,-16669.9 L2553.3,-16686.4 L2566.3,-16705.4 L2570.0,-16708.2 L2590.9,-16716.3 L2638.1,-16733.2 L2670.4,-16747.4 L2784.5,-16801.0 L2785.9,-16797.3 L2881.6,-16838.2 L2920.7,-16788.1 L3007.8,-16846.2 L3020.2,-16854.7 L3021.4,-16855.7 L3022.6,-16857.3 L3024.5,-16860.6 L3025.5,-16863.7 L3026.1,-16867.4 L3026.0,-16870.4 L3025.6,-16873.3 L3025.2,-16876.6 L3025.1,-16879.1 L3025.3,-16881.2 L3025.7,-16883.4 L3027.3,-16887.4 L3028.4,-16889.6 L3030.9,-16893.4 L3033.5,-16896.2 L3046.2,-16901.3 L3056.8,-16905.3 L3070.3,-16909.7 L3076.6,-16911.4 L3087.8,-16915.1 L3095.7,-16917.9 L3106.6,-16922.4 L3121.4,-16928.9 L3137.4,-16936.4 L3146.0,-16940.6 L3156.8,-16946.1 L3166.9,-16951.7 L3177.0,-16957.7 L3187.3,-16964.4 L3190.5,-16966.6 L3211.2,-16982.4 L3228.6,-16995.8 L3245.6,-17010.2 L3261.5,-17025.2 L3273.0,-17038.1 L3284.4,-17052.0 L3298.4,-17070.0 L3311.2,-17088.0 L3325.9,-17111.1 L3335.5,-17129.0 L3341.5,-17140.4 L3350.4,-17159.7 L3357.9,-17177.6 L3364.6,-17196.9 L3370.0,-17213.8 L3375.9,-17241.2 L3380.2,-17265.7 L3382.5,-17286.7 L3384.5,-17311.5 L3384.7,-17338.0 L3383.1,-17362.5 L3378.9,-17394.5 L3374.5,-17416.3 L3369.5,-17436.9 L3362.1,-17460.3 L3355.8,-17478.2 L3348.6,-17497.7 L3341.8,-17513.9 L3337.2,-17524.4 L3335.3,-17532.1 L3335.0,-17538.0 L3335.6,-17543.3 L3337.7,-17547.9 L3340.9,-17551.8 L3345.1,-17554.0 L3349.6,-17554.6 L3361.7,-17551.7 L3395.4,-17543.6 L3406.6,-17798.3 L3450.3,-18252.9 L3402.8,-18264.1 L3397.6,-18278.4 L3397.8,-18298.9 L3404.4,-18345.4 L3413.4,-18355.9 L3421.4,-18386.1 L3471.9,-18374.4 L3499.7,-18664.9 L3507.4,-18745.3 L3491.7,-18749.2 L3501.2,-18787.6 L3468.9,-18795.3 L3473.0,-18818.8 L3478.7,-18834.3 L3485.8,-18852.4 L3497.8,-18877.7 L3510.7,-18874.8 L3528.1,-19057.5 L3532.2,-19168.3 L3533.0,-19188.7 L3542.4,-19259.2 L3561.1,-19434.9 L3685.9,-19760.3 L3714.4,-19849.0 L4061.1,-19982.0 L4095.0,-19995.6 L4100.9,-19998.8 L4105.5,-20003.0 L4110.6,-20008.9 L4114.5,-20015.8 L4117.1,-20022.6 L4117.7,-20032.5 L4117.2,-20044.8 L4112.6,-20200.3 L4110.9,-20230.4 L4110.4,-20251.1 L4109.7,-20291.3 L4108.9,-20303.9 L4107.4,-20314.5 L4105.3,-20323.9 L4102.2,-20333.5 L4097.3,-20344.8 L4090.1,-20356.9 L4083.1,-20366.5 L4077.7,-20375.6 L4072.2,-20387.7 L4067.6,-20399.3 L4065.8,-20408.8 L4064.4,-20419.3 L4063.7,-20429.8 L4064.0,-20440.0 L4065.2,-20451.9 L4068.0,-20463.6 L4071.7,-20474.0 L4075.6,-20483.5 L4080.6,-20492.7 L4086.7,-20503.9 L4090.7,-20514.0 L4094.2,-20526.9 L4100.6,-20536.7 L4098.4,-20625.9 L4095.1,-20631.1 L4094.1,-20691.7 L4092.4,-20763.2 L4093.6,-20773.1 L4096.8,-20783.2 L4104.8,-20799.0 L4158.3,-20914.1 L4159.4,-20916.0 L4168.8,-20936.5 L4177.7,-20955.9 L4187.7,-20975.9 L4197.5,-20996.5 L4202.3,-21006.5 L4254.9,-21114.4 L4311.1,-21233.6 L4432.7,-21480.4 L4359.6,-21562.3 L4300.0,-21435.3 L4248.5,-21325.4 L4240.7,-21309.8 L4224.8,-21277.3 L4193.0,-21280.0 L4184.3,-21280.5 L4181.2,-21277.7 L4185.4,-21273.9 L4169.1,-21259.4 L4156.2,-21247.5 L4153.8,-21196.6 L4149.0,-21186.4 L4133.4,-21187.0 L4130.8,-21187.9 L3926.4,-21272.3 L3922.0,-21274.6 L3917.3,-21277.6 L3909.9,-21283.2 L3904.2,-21288.6 L3899.4,-21293.8 L3894.7,-21300.2 L3891.1,-21305.8 L3888.3,-21311.6 L3886.1,-21317.7 L3884.6,-21321.9 L3883.5,-21327.0 L3882.7,-21333.0 L3881.9,-21341.2 L3881.9,-21352.9 L3880.5,-21392.6 L3886.1,-21392.9 L3885.3,-21413.9 L3884.4,-21448.5 L3889.6,-21448.6 L3889.2,-21472.2 L3883.3,-21472.1 L3880.6,-21571.5 L3886.2,-21571.8 L3885.3,-21595.1 L3879.9,-21594.9 L3877.6,-21668.4 L3904.6,-21697.5 L3939.1,-21698.7 L3964.8,-21699.6 L3998.7,-21700.7 L4031.3,-21701.7 L4060.5,-21702.7 L4073.2,-21703.3 L4072.6,-21714.6 L4072.4,-21726.4 L4070.5,-21764.7 L4069.8,-21837.8 L4068.8,-21839.1 L4068.6,-21846.3 L4070.7,-21846.4 L4065.6,-22022.5 L4061.2,-22188.2 L4060.5,-22193.4 L4060.1,-22203.0 L3987.9,-22200.4 L3939.9,-22204.5 L3580.6,-22192.0 L3580.5,-22195.2 L3579.8,-22210.5 L3409.4,-22204.5 L3409.1,-22232.8 L3386.6,-22237.9 L3382.6,-22359.0 L4045.4,-22382.0 L4056.4,-22397.1 L4056.0,-22440.1 L4055.2,-22477.3 L4054.6,-22500.6 L4053.7,-22523.3 L4001.0,-22548.1 L3998.9,-22603.2 L4052.9,-22630.0 L4048.0,-22757.5 L4046.6,-22763.8 L3992.9,-22788.9 L3991.2,-22857.1 L4042.2,-22883.4 L4019.5,-23160.3 L4025.5,-23283.5 L4028.5,-23484.4 L4028.3,-23702.9 L4033.1,-23733.5 L4033.4,-23748.3 L4028.6,-23766.1 L4033.6,-23766.1 L4033.6,-23782.2 L4036.6,-24193.2 L4036.1,-24211.5 L4030.4,-24211.5 L4030.6,-24287.1 L4027.3,-24291.8 L4022.1,-24369.8 L4032.4,-24441.1 L4031.1,-24527.4 L4027.6,-24548.1 L4032.9,-24612.0 L4029.3,-24689.3 L4020.3,-24772.0 L4003.2,-24906.0 L4011.3,-24942.9 L4007.7,-24978.8 L3977.1,-25004.9 L3932.2,-25004.5 L3863.8,-24995.5 L3819.3,-24995.5 L3778.9,-25010.3 L3725.8,-25046.7 L3725.8,-25112.0 L3724.4,-25192.3 L3729.6,-25259.2 L3747.2,-25311.4 L4041.9,-25316.9 L4048.7,-25734.8 L4048.7,-26336.4 L4045.6,-26554.7 L19957.8,-33126.4 L19957.8,3091.8 L245.3,3091.8 L245.3,-14893.7 Z" fill="#add7e1" stroke="none"><title>Biscayne Bay</title></path><path d="M-1.0,-1.0 L257.0,-1.0 L257.0,257.0 L-1.0,257.0 L-1.0,-1.0 Z" fill="#add7e1" stroke="none" fill-rule="evenodd"><title>Biscayne Bay</title></path><path d="M-7817.9,-7250.8 L-3903.2,-6837.1 L943.6,-4975.1 L4299.0,-2492.7 L5417.5,1850.9 L3180.5,3091.8 L-7258.6,3091.8 L-9495.6,-2285.8 Z" fill="#add7e1" stroke="none"><title>Biscayne Bay</title></path></svg>