<svg xmlns="http://www.w3.org/2000/svg" width="256" height="256" viewBox="0 0 256 256"><rect width="256" height="256" fill="#f1efe7"/><path d="M213.9,171.5 L204.9,171.7 L204.4,153.0 L225.3,152.5 L225.7,168.0 L213.8,168.3 L213.9,171.5 Z" fill="#d6d2c9" stroke="#bab6ad" stroke-width="0.4"></path><path d="M182.1,152.5 L182.2,154.0 L190.7,153.7 L191.3,169.5 L178.8,170.0 L178.9,172.1 L170.9,172.4 L170.1,154.1 L175.4,153.9 L175.4,152.7 L182.1,152.5 Z" fill="#d6d2c9" stroke="#bab6ad" stroke-width="0.4"></path><path d="M5.8,178.5 L-1.8,179.0 L-2.9,160.9 L17.0,159.7 L17.9,175.8 L5.7,176.6 L5.8,178.5 Z" fill="#d6d2c9" stroke="#bab6ad" stroke-width="0.4"></path><path d="M112.8,237.8 L112.9,239.6 L125.4,239.2 L125.8,255.1 L113.0,255.5 L113.1,257.9 L109.5,258.0 L109.4,255.9 L104.0,256.0 L103.6,239.7 L104.6,239.7 L104.5,238.0 L112.8,237.8 Z" fill="#d6d2c9" stroke="#bab6ad" stroke-width="0.4"></path><path d="M251.6,231.2 L251.7,233.9 L266.2,233.1 L267.5,258.7 L264.3,258.9 L264.7,265.4 L239.4,266.7 L237.7,234.5 L242.4,234.3 L242.2,231.7 L251.6,231.2 Z" fill="#d6d2c9" stroke="#bab6ad" stroke-width="0.4"></path><path d="M111.4,143.0 L111.7,156.2 L122.0,156.0 L122.2,171.9 L109.7,172.1 L109.7,174.5 L102.1,174.6 L102.1,171.5 L101.0,171.5 L100.8,156.7 L94.4,156.8 L94.3,147.5 L103.8,147.4 L103.5,130.8 L113.0,130.6 L113.2,143.0 L111.4,143.0 Z" fill="#d6d2c9" stroke="#bab6ad" stroke-width="0.4"></path><path d="M139.5,47.8 L139.6,50.1 L151.8,49.8 L152.3,66.0 L140.7,66.4 L140.7,67.4 L137.7,67.5 L138.0,78.1 L125.9,78.5 L125.4,61.6 L131.4,61.4 L131.7,48.1 L139.5,47.8 Z" fill="#d6d2c9" stroke="#bab6ad" stroke-width="0.4"></path><path d="M173.7,46.3 L173.7,48.7 L186.5,48.4 L186.8,64.2 L165.8,64.6 L165.5,46.5 L173.7,46.3 Z" fill="#d6d2c9" stroke="#bab6ad" stroke-width="0.4"></path><path d="M35.6,51.7 L35.6,53.5 L47.7,53.1 L48.2,68.7 L27.5,69.3 L27.4,65.8 L22.1,66.0 L21.7,54.4 L26.8,54.3 L26.8,51.9 L35.6,51.7 Z" fill="#d6d2c9" stroke="#bab6ad" stroke-width="0.4"></path><path d="M43.1,239.3 L43.2,241.7 L56.1,241.2 L56.6,257.0 L44.8,257.4 L44.8,258.6 L40.5,258.8 L40.5,257.5 L35.6,257.7 L35.0,239.6 L43.1,239.3 Z" fill="#d6d2c9" stroke="#bab6ad" stroke-width="0.4"></path><path d="M147.2,235.9 L147.3,238.2 L159.9,237.7 L160.6,253.5 L151.8,253.9 L151.8,255.4 L144.7,255.7 L144.6,254.2 L139.3,254.4 L138.6,236.3 L147.2,235.9 Z" fill="#d6d2c9" stroke="#bab6ad" stroke-width="0.4"></path><path d="M190.7,138.5 L181.3,138.7 L181.0,123.0 L190.4,122.8 L190.7,138.5 Z" fill="#d6d2c9" stroke="#bab6ad" stroke-width="0.4"></path><path d="M180.6,234.9 L180.7,236.7 L194.0,236.1 L194.7,251.8 L183.2,252.3 L183.3,253.7 L181.3,253.8 L179.3,253.9 L179.3,252.4 L174.3,252.7 L173.5,235.2 L180.6,234.9 Z" fill="#d6d2c9" stroke="#bab6ad" stroke-width="0.4"></path><path d="M216.5,233.5 L216.6,235.5 L229.0,235.0 L229.6,250.5 L218.6,250.9 L219.0,259.3 L201.7,260.0 L200.8,236.2 L208.8,235.8 L208.7,233.8 L216.5,233.5 Z" fill="#d6d2c9" stroke="#bab6ad" stroke-width="0.4"></path><path d="M208.8,45.0 L208.8,47.2 L220.9,46.8 L221.8,71.8 L193.9,72.8 L193.5,59.3 L200.6,59.1 L200.2,45.3 L208.8,45.0 Z" fill="#d6d2c9" stroke="#bab6ad" stroke-width="0.4"></path><path d="M69.9,50.6 L70.0,52.4 L82.2,51.9 L82.9,68.0 L66.9,68.6 L67.0,73.4 L63.8,73.5 L64.1,79.9 L56.2,80.2 L55.1,53.0 L61.7,52.7 L61.6,50.9 L69.9,50.6 Z" fill="#d6d2c9" stroke="#bab6ad" stroke-width="0.4"></path><path d="M104.6,49.3 L104.7,51.5 L117.4,51.0 L117.9,66.8 L106.4,67.2 L106.6,71.6 L97.1,71.9 L96.2,49.6 L104.6,49.3 Z" fill="#d6d2c9" stroke="#bab6ad" stroke-width="0.4"></path><path d="M78.2,238.4 L78.3,240.6 L90.1,240.2 L90.7,255.7 L79.3,256.1 L79.5,262.1 L64.2,262.7 L64.1,241.2 L69.8,241.0 L69.7,238.7 L78.2,238.4 Z" fill="#d6d2c9" stroke="#bab6ad" stroke-width="0.4"></path><path d="M243.5,40.9 L243.7,45.5 L255.6,45.0 L256.3,60.8 L245.1,61.3 L245.8,75.4 L235.7,75.8 L234.2,41.3 L243.5,40.9 Z" fill="#d6d2c9" stroke="#bab6ad" stroke-width="0.4"></path><path d="M140.7,145.0 L141.1,154.5 L156.1,153.8 L156.9,170.1 L144.1,170.7 L144.2,172.9 L136.6,173.2 L136.5,171.4 L130.1,171.7 L128.9,145.5 L140.7,145.0 Z" fill="#d6d2c9" stroke="#bab6ad" stroke-width="0.4"></path><path d="M40.4,148.4 L40.8,158.8 L52.6,158.5 L53.2,174.5 L40.5,175.0 L40.5,176.5 L32.3,176.8 L31.4,148.7 L40.4,148.4 Z" fill="#d6d2c9" stroke="#bab6ad" stroke-width="0.4"></path><path d="M51.9,137.9 L41.3,138.4 L40.5,119.1 L51.0,118.6 L51.9,137.9 Z" fill="#d6d2c9" stroke="#bab6ad" stroke-width="0.4"></path><path d="M77.5,147.4 L77.9,157.7 L86.6,157.4 L87.2,173.1 L75.0,173.6 L75.2,179.0 L67.0,179.3 L65.8,147.8 L77.5,147.4 Z" fill="#d6d2c9" stroke="#bab6ad" stroke-width="0.4"></path><path d="M244.6,144.6 L244.9,152.0 L260.0,151.4 L260.6,167.9 L248.3,168.4 L248.4,170.5 L233.3,171.1 L232.6,152.9 L234.7,152.9 L234.3,145.0 L244.6,144.6 Z" fill="#d6d2c9" stroke="#bab6ad" stroke-width="0.4"></path><path d="M8.1,240.1 L8.2,242.0 L20.9,241.4 L21.7,257.3 L10.0,257.8 L10.1,259.4 L6.0,259.6 L5.9,258.0 L0.9,258.3 L-0.0,240.5 L8.1,240.1 Z" fill="#d6d2c9" stroke="#bab6ad" stroke-width="0.4"></path><path d="M0.7,52.2 L0.8,54.3 L13.6,53.9 L14.4,77.8 L-7.1,78.5 L-7.9,52.5 L0.7,52.2 Z" fill="#d6d2c9" stroke="#bab6ad" stroke-width="0.4"></path><path d="M121.3,15.3 L112.7,-171.2" fill="none" stroke="#cec8bb" stroke-width="4.8" stroke-linecap="round" stroke-linejoin="round"/><path d="M121.3,15.3 L112.7,-171.2" fill="none" stroke="#ffffff" stroke-width="3.7" stroke-linecap="round" stroke-linejoin="round"><title>Northwest 24th Court</title></path><path d="M312.1,12.2 L121.3,15.3 L-71.9,20.7" fill="none" stroke="#cec8bb" stroke-width="4.8" stroke-linecap="round" stroke-linejoin="round"/><path d="M312.1,12.2 L121.3,15.3 L-71.9,20.7" fill="none" stroke="#ffffff" stroke-width="3.7" stroke-linecap="round" stroke-linejoin="round"><title>Northwest 60th Street</title></path><path d="M320.5,197.1 L-65.3,213.4" fill="none" stroke="#cec8bb" stroke-width="4.8" stroke-linecap="round" stroke-linejoin="round"/><path d="M320.5,197.1 L-65.3,213.4" fill="none" stroke="#ffffff" stroke-width="3.7" stroke-linecap="round" stroke-linejoin="round"><title>Northwest 59th Street</title></path><text x="52.1" y="24.2" text-anchor="middle" font-family="Arial, sans-serif" font-size="8" font-weight="600" paint-order="stroke" stroke="#edf5ec" stroke-width="1.9" stroke-linejoin="round" fill="#5c806b"><tspan x="52.1" textLength="92.2" lengthAdjust="spacing">Johnson&#x27;s Toddlers</tspan><tspan x="52.1" dy="9.4" textLength="51.2" lengthAdjust="spacing">University</tspan></text><text x="128.0" y="205.2" transform="rotate(-2.4 128.0 205.2)" text-anchor="middle" dominant-baseline="central" font-family="Arial, sans-serif" font-size="8.3" textLength="111.6" lengthAdjust="spacing" font-weight="650" paint-order="stroke" stroke="#fffaf0" stroke-width="2.05" stroke-linejoin="round" fill="#695f54">Northwest 59th Street</text><text x="111.5" y="246.0" text-anchor="middle" font-family="Arial, sans-serif" font-size="6.5" textLength="18.0" lengthAdjust="spacing" font-weight="500" paint-order="stroke" stroke="#f3f5ee" stroke-width="1.55" stroke-linejoin="round" fill="#6f777a">2450</text><text x="241.0" y="244.8" text-anchor="middle" font-family="Arial, sans-serif" font-size="6.5" textLength="18.0" lengthAdjust="spacing" font-weight="500" paint-order="stroke" stroke="#f3f5ee" stroke-width="1.55" stroke-linejoin="round" fill="#6f777a">2410</text><text x="107.2" y="156.5" text-anchor="middle" font-family="Arial, sans-serif" font-size="6.5" textLength="18.0" lengthAdjust="spacing" font-weight="500" paint-order="stroke" stroke="#f3f5ee" stroke-width="1.55" stroke-linejoin="round" fill="#6f777a">2451</text><text x="137.9" y="61.9" text-anchor="middle" font-family="Arial, sans-serif" font-size="6.5" textLength="18.0" lengthAdjust="spacing" font-weight="500" paint-order="stroke" stroke="#f3f5ee" stroke-width="1.55" stroke-linejoin="round" fill="#6f777a">2440</text><text x="175.3" y="53.1" text-anchor="middle" font-family="Arial, sans-serif" font-size="6.5" textLength="18.0" lengthAdjust="spacing" font-weight="500" paint-order="stroke" stroke="#f3f5ee" stroke-width="1.55" stroke-linejoin="round" fill="#6f777a">2430</text><text x="31.9" y="58.9" text-anchor="middle" font-family="Arial, sans-serif" font-size="6.5" textLength="18.0" lengthAdjust="spacing" font-weight="500" paint-order="stroke" stroke="#f3f5ee" stroke-width="1.55" stroke-linejoin="round" fill="#6f777a">2470</text><text x="44.0" y="246.0" text-anchor="middle" font-family="Arial, sans-serif" font-size="6.5" textLength="18.0" lengthAdjust="spacing" font-weight="500" paint-order="stroke" stroke="#f3f5ee" stroke-width="1.55" stroke-linejoin="round" fill="#6f777a">2470</text><text x="148.6" y="246.0" text-anchor="middle" font-family="Arial, sans-serif" font-size="6.5" textLength="18.0" lengthAdjust="spacing" font-weight="500" paint-order="stroke" stroke="#f3f5ee" stroke-width="1.55" stroke-linejoin="round" fill="#6f777a">2440</text><text x="185.8" y="130.8" text-anchor="middle" font-family="Arial, sans-serif" font-size="6.5" textLength="18.0" lengthAdjust="spacing" font-weight="500" paint-order="stroke" stroke="#f3f5ee" stroke-width="1.55" stroke-linejoin="round" fill="#6f777a">2431</text><text x="182.2" y="246.0" text-anchor="middle" font-family="Arial, sans-serif" font-size="6.5" textLength="18.0" lengthAdjust="spacing" font-weight="500" paint-order="stroke" stroke="#f3f5ee" stroke-width="1.55" stroke-linejoin="round" fill="#6f777a">2430</text><text x="214.9" y="243.0" text-anchor="middle" font-family="Arial, sans-serif" font-size="6.5" textLength="18.0" lengthAdjust="spacing" font-weight="500" paint-order="stroke" stroke="#f3f5ee" stroke-width="1.55" stroke-linejoin="round" fill="#6f777a">2420</text><text x="206.0" y="55.9" text-anchor="middle" font-family="Arial, sans-serif" font-size="6.5" textLength="18.0" lengthAdjust="spacing" font-weight="500" paint-order="stroke" stroke="#f3f5ee" stroke-width="1.55" stroke-linejoin="round" fill="#6f777a">2420</text><text x="66.8" y="62.9" text-anchor="middle" font-family="Arial, sans-serif" font-size="6.5" textLength="18.0" lengthAdjust="spacing" font-weight="500" paint-order="stroke" stroke="#f3f5ee" stroke-width="1.55" stroke-linejoin="round" fill="#6f777a">2460</text><text x="106.4" y="59.9" text-anchor="middle" font-family="Arial, sans-serif" font-size="6.5" textLength="18.0" lengthAdjust="spacing" font-weight="500" paint-order="stroke" stroke="#f3f5ee" stroke-width="1.55" stroke-linejoin="round" fill="#6f777a">2450</text><text x="76.4" y="246.0" text-anchor="middle" font-family="Arial, sans-serif" font-size="6.5" textLength="18.0" lengthAdjust="spacing" font-weight="500" paint-order="stroke" stroke="#f3f5ee" stroke-width="1.55" stroke-linejoin="round" fill="#6f777a">2460</text><text x="241.0" y="55.8" text-anchor="middle" font-family="Arial, sans-serif" font-size="6.5" textLength="18.0" lengthAdjust="spacing" font-weight="500" paint-order="stroke" stroke="#f3f5ee" stroke-width="1.55" stroke-linejoin="round" fill="#6f777a">2410</text><text x="141.5" y="162.9" text-anchor="middle" font-family="Arial, sans-serif" font-size="6.5" textLength="18.0" lengthAdjust="spacing" font-weight="500" paint-order="stroke" stroke="#f3f5ee" stroke-width="1.55" stroke-linejoin="round" fill="#6f777a">2441</text><text x="41.5" y="164.7" text-anchor="middle" font-family="Arial, sans-serif" font-size="6.5" textLength="18.0" lengthAdjust="spacing" font-weight="500" paint-order="stroke" stroke="#f3f5ee" stroke-width="1.55" stroke-linejoin="round" fill="#6f777a">2471</text><text x="76.5" y="164.4" text-anchor="middle" font-family="Arial, sans-serif" font-size="6.5" textLength="18.0" lengthAdjust="spacing" font-weight="500" paint-order="stroke" stroke="#f3f5ee" stroke-width="1.55" stroke-linejoin="round" fill="#6f777a">2461</text><text x="241.0" y="157.7" text-anchor="middle" font-family="Arial, sans-serif" font-size="6.5" textLength="18.0" lengthAdjust="spacing" font-weight="500" paint-order="stroke" stroke="#f3f5ee" stroke-width="1.55" stroke-linejoin="round" fill="#6f777a">2411</text><text x="15.0" y="246.0" text-anchor="middle" font-family="Arial, sans-serif" font-size="6.5" textLength="18.0" lengthAdjust="spacing" font-weight="500" paint-order="stroke" stroke="#f3f5ee" stroke-width="1.55" stroke-linejoin="round" fill="#6f777a">2480</text><text x="15.0" y="147.1" text-anchor="middle" font-family="Arial, sans-serif" font-size="6.5" textLength="18.0" lengthAdjust="spacing" font-weight="500" paint-order="stroke" stroke="#f3f5ee" stroke-width="1.55" stroke-linejoin="round" fill="#6f777a">2481</text><text x="212.8" y="140.0" text-anchor="middle" font-family="Arial, sans-serif" font-size="6.5" textLength="18.0" lengthAdjust="spacing" font-weight="500" paint-order="stroke" stroke="#f3f5ee" stroke-width="1.55" stroke-linejoin="round" fill="#6f777a">2421</text></svg>