<svg xmlns="http://www.w3.org/2000/svg" width="256" height="256" viewBox="0 0 256 256"><rect width="256" height="256" fill="#f1efe7"/><path d="M-223.4,-197.7 L-350.7,-193.0 L-352.1,-257.1 L-263.4,-261.4 L-265.3,-294.3 L-213.4,-296.0 L-212.9,-288.1 L-113.5,-294.8 L-63.5,-295.7 L-71.2,-494.8 L-65.9,-498.8 L-55.1,-500.5 L0.2,-499.6 L6.2,-253.5 L7.7,-203.3 L-112.5,-198.6 L-107.0,11.8 L-216.8,15.6 L-219.0,-68.8 L-223.4,-197.7 Z" fill="#eadde0" stroke="#d7d1c5" stroke-width="0.3"></path><path d="M236.5,127.4 L288.5,127.4 L289.7,190.2 L237.2,191.9 L236.5,127.4 Z" fill="#c7dfbd" stroke="#8eb580" stroke-width="0.5"></path><path d="M0.9,239.6 L-36.1,240.5 L-35.0,286.5 L2.0,285.6 L0.9,239.6 Z" fill="#d6d2c9" stroke="#bab6ad" stroke-width="0.4"></path><path d="M6.0,41.9 L7.4,90.3 L-39.9,91.7 L-41.2,43.3 L6.0,41.9 Z" fill="#d6d2c9" stroke="#bab6ad" stroke-width="0.4"></path><path d="M122.7,270.3 L116.3,271.2 L116.7,285.3 L98.8,285.5 L98.5,269.3 L103.1,269.4 L102.7,245.7 L121.9,245.1 L122.7,270.3 Z" fill="#d6d2c9" stroke="#bab6ad" stroke-width="0.4"></path><path d="M95.3,277.0 L76.8,277.7 L75.6,246.9 L94.2,246.2 L95.3,277.0 Z" fill="#d6d2c9" stroke="#bab6ad" stroke-width="0.4"></path><path d="M143.2,241.6 L143.9,262.6 L151.1,262.3 L152.0,289.5 L128.2,290.5 L126.6,242.2 L143.2,241.6 Z" fill="#d6d2c9" stroke="#bab6ad" stroke-width="0.4"></path><path d="M170.6,287.7 L156.3,287.9 L155.8,262.1 L163.7,261.9 L163.2,240.3 L179.6,240.0 L180.4,280.0 L170.5,280.2 L170.6,287.7 Z" fill="#d6d2c9" stroke="#bab6ad" stroke-width="0.4"></path><path d="M271.5,239.1 L273.0,289.5 L277.3,289.4 L277.7,301.2 L294.2,300.6 L296.7,383.1 L298.3,383.1 L298.5,392.6 L285.8,393.0 L285.8,391.1 L245.4,392.3 L242.6,302.0 L196.5,303.4 L196.1,292.2 L185.6,292.5 L184.1,245.2 L195.1,244.9 L194.8,233.8 L260.9,231.7 L260.9,230.1 L274.3,229.7 L274.6,239.0 L271.5,239.1 Z" fill="#d6d2c9" stroke="#bab6ad" stroke-width="0.4"></path><path d="M-41.9,327.4 L-45.1,239.4 L-44.6,236.0 L-43.2,233.4 L-42.1,232.8 L-40.3,231.9 L-35.6,231.2 L-11.7,231.8 L294.9,222.3 L300.9,390.5" fill="none" stroke="#cf828d" stroke-width="1.5" stroke-dasharray="1.6 3.0" opacity="0.62" stroke-linecap="round" stroke-linejoin="round"></path><path d="M282.3,-166.8 L287.5,-17.5 L287.0,-13.2 L284.7,-8.8 L282.1,-5.5 L278.4,-3.3 L274.1,-1.7 L41.4,5.8 L-25.6,8.0 L-46.6,9.3 L-48.7,8.6" fill="none" stroke="#cf828d" stroke-width="1.5" stroke-dasharray="1.6 3.0" opacity="0.62" stroke-linecap="round" stroke-linejoin="round"></path><path d="M-49.8,40.3 L-47.0,37.4 L-45.0,35.5 L-39.3,33.5 L-28.9,32.2 L-12.6,32.2 L25.5,31.0 L133.0,27.6 L281.6,22.9 L287.7,24.6 L290.2,31.4 L289.5,40.0 L294.0,189.7 L294.2,197.0 L138.8,202.4 L30.8,206.1 L-29.7,208.2 L-39.7,208.5 L-42.1,207.5 L-43.9,206.8 L-45.8,203.4 L-46.5,195.9 L-51.1,66.6" fill="none" stroke="#cf828d" stroke-width="1.5" stroke-dasharray="1.6 3.0" opacity="0.62" stroke-linecap="round" stroke-linejoin="round"></path><path d="M74.4,-101.8 L76.8,1.4" fill="none" stroke="#cec8bb" stroke-width="3.5" stroke-linecap="round" stroke-linejoin="round"/><path d="M74.4,-101.8 L76.8,1.4" fill="none" stroke="#ffffff" stroke-width="2.5" stroke-linecap="round" stroke-linejoin="round"></path><path d="M31.1,218.3 L30.8,206.1 L30.6,201.7 L30.1,192.8 L30.5,186.7 L31.2,181.1 L31.7,177.4 L32.3,168.6 L31.4,138.7 L30.8,117.8 L30.1,96.1 L29.3,69.9 L28.8,64.7 L26.6,57.8 L26.3,55.9 L25.5,50.2 L25.6,37.7 L25.5,31.0 L25.3,19.2" fill="none" stroke="#cec8bb" stroke-width="3.5" stroke-linecap="round" stroke-linejoin="round"/><path d="M31.1,218.3 L30.8,206.1 L30.6,201.7 L30.1,192.8 L30.5,186.7 L31.2,181.1 L31.7,177.4 L32.3,168.6 L31.4,138.7 L30.8,117.8 L30.1,96.1 L29.3,69.9 L28.8,64.7 L26.6,57.8 L26.3,55.9 L25.5,50.2 L25.6,37.7 L25.5,31.0 L25.3,19.2" fill="none" stroke="#ffffff" stroke-width="2.5" stroke-linecap="round" stroke-linejoin="round"></path><path d="M41.9,18.7 L41.4,5.8 L40.7,-13.0 L39.5,-44.8 L38.5,-66.7" fill="none" stroke="#cec8bb" stroke-width="3.5" stroke-linecap="round" stroke-linejoin="round"/><path d="M41.9,18.7 L41.4,5.8 L40.7,-13.0 L39.5,-44.8 L38.5,-66.7" fill="none" stroke="#ffffff" stroke-width="2.5" stroke-linecap="round" stroke-linejoin="round"></path><path d="M132.6,15.4 L133.0,27.6 L133.7,52.9 L135.2,92.4 L136.3,134.7 L138.0,177.1 L138.8,202.4 L139.2,214.5" fill="none" stroke="#cec8bb" stroke-width="3.5" stroke-linecap="round" stroke-linejoin="round"/><path d="M132.6,15.4 L133.0,27.6 L133.7,52.9 L135.2,92.4 L136.3,134.7 L138.0,177.1 L138.8,202.4 L139.2,214.5" fill="none" stroke="#ffffff" stroke-width="2.5" stroke-linecap="round" stroke-linejoin="round"></path><path d="M26.3,55.9 L133.7,52.9 L229.3,49.9 L230.7,89.1 L135.2,92.4 L30.1,96.1" fill="none" stroke="#cec8bb" stroke-width="3.5" stroke-linecap="round" stroke-linejoin="round"/><path d="M26.3,55.9 L133.7,52.9 L229.3,49.9 L230.7,89.1 L135.2,92.4 L30.1,96.1" fill="none" stroke="#ffffff" stroke-width="2.5" stroke-linecap="round" stroke-linejoin="round"></path><path d="M31.4,138.7 L136.3,134.7 L205.4,133.1 L206.8,174.7 L138.0,177.1 L31.2,181.1" fill="none" stroke="#cec8bb" stroke-width="3.5" stroke-linecap="round" stroke-linejoin="round"/><path d="M31.4,138.7 L136.3,134.7 L205.4,133.1 L206.8,174.7 L138.0,177.1 L31.2,181.1" fill="none" stroke="#ffffff" stroke-width="2.5" stroke-linecap="round" stroke-linejoin="round"></path><path d="M-49.6,21.8 L-43.3,21.5 L25.3,19.2 L41.9,18.7 L132.6,15.4 L280.5,10.5 L287.8,10.2 L301.3,9.7" fill="none" stroke="#cec8bb" stroke-width="4.8" stroke-linecap="round" stroke-linejoin="round"/><path d="M-49.6,21.8 L-43.3,21.5 L25.3,19.2 L41.9,18.7 L132.6,15.4 L280.5,10.5 L287.8,10.2 L301.3,9.7" fill="none" stroke="#ffffff" stroke-width="3.7" stroke-linecap="round" stroke-linejoin="round"><title>Southwest 1st Street</title></path><path d="M307.7,208.1 L295.7,208.5 L290.7,208.8 L139.2,214.5 L31.1,218.3 L-36.6,220.8 L-42.8,221.0 L-58.4,221.4" fill="none" stroke="#cec8bb" stroke-width="4.8" stroke-linecap="round" stroke-linejoin="round"/><path d="M307.7,208.1 L295.7,208.5 L290.7,208.8 L139.2,214.5 L31.1,218.3 L-36.6,220.8 L-42.8,221.0 L-58.4,221.4" fill="none" stroke="#ffffff" stroke-width="3.7" stroke-linecap="round" stroke-linejoin="round"><title>Southwest 2nd Street</title></path><text x="79.0" y="17.3" transform="rotate(-2.1 79.0 17.3)" text-anchor="middle" dominant-baseline="central" font-family="Arial, sans-serif" font-size="8.3" textLength="106.2" lengthAdjust="spacing" font-weight="650" paint-order="stroke" stroke="#fffaf0" stroke-width="2.05" stroke-linejoin="round" fill="#695f54">Southwest 1st Street</text><text x="85.2" y="216.4" transform="rotate(-2.0 85.2 216.4)" text-anchor="middle" dominant-baseline="central" font-family="Arial, sans-serif" font-size="8.3" textLength="106.2" lengthAdjust="spacing" font-weight="650" paint-order="stroke" stroke="#fffaf0" stroke-width="2.05" stroke-linejoin="round" fill="#695f54">Southwest 2nd Street</text><text x="109.7" y="165.3" text-anchor="middle" font-family="Arial, sans-serif" font-size="6.5" textLength="18.0" lengthAdjust="spacing" font-weight="500" paint-order="stroke" stroke="#f3f5ee" stroke-width="1.55" stroke-linejoin="round" fill="#6f777a">2551</text><text x="241.0" y="64.1" text-anchor="middle" font-family="Arial, sans-serif" font-size="6.5" textLength="18.0" lengthAdjust="spacing" font-weight="500" paint-order="stroke" stroke="#f3f5ee" stroke-width="1.55" stroke-linejoin="round" fill="#6f777a">2512</text><text x="164.5" y="174.1" text-anchor="middle" font-family="Arial, sans-serif" font-size="6.5" textLength="18.0" lengthAdjust="spacing" font-weight="500" paint-order="stroke" stroke="#f3f5ee" stroke-width="1.55" stroke-linejoin="round" fill="#6f777a">2535</text><text x="162.9" y="134.0" text-anchor="middle" font-family="Arial, sans-serif" font-size="6.5" textLength="18.0" lengthAdjust="spacing" font-weight="500" paint-order="stroke" stroke="#f3f5ee" stroke-width="1.55" stroke-linejoin="round" fill="#6f777a">2537</text><text x="192.3" y="162.9" text-anchor="middle" font-family="Arial, sans-serif" font-size="6.5" textLength="18.0" lengthAdjust="spacing" font-weight="500" paint-order="stroke" stroke="#f3f5ee" stroke-width="1.55" stroke-linejoin="round" fill="#6f777a">2527</text><text x="201.8" y="54.9" text-anchor="middle" font-family="Arial, sans-serif" font-size="6.5" textLength="18.0" lengthAdjust="spacing" font-weight="500" paint-order="stroke" stroke="#f3f5ee" stroke-width="1.55" stroke-linejoin="round" fill="#6f777a">2522</text><text x="76.1" y="166.7" text-anchor="middle" font-family="Arial, sans-serif" font-size="6.5" textLength="18.0" lengthAdjust="spacing" font-weight="500" paint-order="stroke" stroke="#f3f5ee" stroke-width="1.55" stroke-linejoin="round" fill="#6f777a">2601</text><text x="160.2" y="54.5" text-anchor="middle" font-family="Arial, sans-serif" font-size="6.5" textLength="18.0" lengthAdjust="spacing" font-weight="500" paint-order="stroke" stroke="#f3f5ee" stroke-width="1.55" stroke-linejoin="round" fill="#6f777a">2534</text><text x="101.7" y="58.0" text-anchor="middle" font-family="Arial, sans-serif" font-size="6.5" textLength="18.0" lengthAdjust="spacing" font-weight="500" paint-order="stroke" stroke="#f3f5ee" stroke-width="1.55" stroke-linejoin="round" fill="#6f777a">2550</text><text x="53.0" y="162.1" text-anchor="middle" font-family="Arial, sans-serif" font-size="6.5" textLength="18.0" lengthAdjust="spacing" font-weight="500" paint-order="stroke" stroke="#f3f5ee" stroke-width="1.55" stroke-linejoin="round" fill="#6f777a">2611</text><text x="131.7" y="58.2" text-anchor="middle" font-family="Arial, sans-serif" font-size="6.5" textLength="18.0" lengthAdjust="spacing" font-weight="500" paint-order="stroke" stroke="#f3f5ee" stroke-width="1.55" stroke-linejoin="round" fill="#6f777a">2542</text><text x="135.7" y="171.1" text-anchor="middle" font-family="Arial, sans-serif" font-size="6.5" textLength="18.0" lengthAdjust="spacing" font-weight="500" paint-order="stroke" stroke="#f3f5ee" stroke-width="1.55" stroke-linejoin="round" fill="#6f777a">2541</text><text x="44.5" y="69.1" text-anchor="middle" font-family="Arial, sans-serif" font-size="6.5" textLength="18.0" lengthAdjust="spacing" font-weight="500" paint-order="stroke" stroke="#f3f5ee" stroke-width="1.55" stroke-linejoin="round" fill="#6f777a">2612</text><text x="217.5" y="173.0" text-anchor="middle" font-family="Arial, sans-serif" font-size="6.5" textLength="18.0" lengthAdjust="spacing" font-weight="500" paint-order="stroke" stroke="#f3f5ee" stroke-width="1.55" stroke-linejoin="round" fill="#6f777a">2517</text><text x="15.0" y="58.2" text-anchor="middle" font-family="Arial, sans-serif" font-size="6.5" textLength="18.0" lengthAdjust="spacing" font-weight="500" paint-order="stroke" stroke="#f3f5ee" stroke-width="1.55" stroke-linejoin="round" fill="#6f777a">2618</text><text x="72.6" y="68.1" text-anchor="middle" font-family="Arial, sans-serif" font-size="6.5" textLength="18.0" lengthAdjust="spacing" font-weight="500" paint-order="stroke" stroke="#f3f5ee" stroke-width="1.55" stroke-linejoin="round" fill="#6f777a">2600</text></svg>