<svg xmlns="http://www.w3.org/2000/svg" width="256" height="256" viewBox="0 0 256 256"><rect width="256" height="256" fill="#f1efe7"/><path d="M-2.7,-3147.4 L51.0,-3169.8 L67.8,-3177.8 L142.9,-3213.9 L157.1,-3200.3 L158.3,-3199.1 L184.6,-3221.6 L190.9,-3226.4 L201.4,-3235.9 L260.4,-3290.0 L308.0,-3344.5 L309.8,-3347.9 L311.6,-3349.9 L314.4,-3353.1 L317.2,-3356.3 L318.4,-3357.6 L299.6,-3381.9 L324.4,-3396.8 L337.9,-3378.9 L356.9,-3400.7 L340.8,-3422.0 L360.8,-3442.8 L376.2,-3422.6 L393.8,-3442.7 L401.3,-3447.6 L438.1,-3471.5 L456.3,-3483.6 L478.2,-3498.0 L488.6,-3504.8 L514.8,-3521.7 L508.0,-3530.6 L496.0,-3546.8 L527.2,-3566.6 L538.6,-3572.5 L539.4,-3573.1 L545.5,-3577.7 L566.8,-3589.2 L568.3,-3591.5 L574.3,-3595.6 L577.6,-3600.4 L578.5,-3601.0 L583.7,-3603.1 L595.5,-3607.3 L603.6,-3610.8 L632.1,-3624.3 L632.5,-3623.3 L656.4,-3633.6 L666.2,-3621.0 L687.9,-3635.6 L691.0,-3637.7 L691.3,-3637.9 L691.7,-3638.3 L692.1,-3639.1 L692.4,-3639.9 L692.5,-3640.8 L692.5,-3641.6 L692.4,-3642.3 L692.3,-3643.1 L692.3,-3643.8 L692.3,-3644.3 L692.4,-3644.9 L692.8,-3645.8 L693.1,-3646.4 L693.7,-3647.3 L694.4,-3648.1 L697.6,-3649.3 L700.2,-3650.3 L703.6,-3651.4 L705.1,-3651.9 L708.0,-3652.8 L709.9,-3653.5 L712.7,-3654.6 L716.4,-3656.2 L720.3,-3658.1 L722.5,-3659.1 L725.2,-3660.5 L727.7,-3661.9 L730.2,-3663.4 L732.8,-3665.1 L733.6,-3665.7 L738.8,-3669.6 L743.2,-3672.9 L747.4,-3676.6 L751.4,-3680.3 L754.3,-3683.5 L757.1,-3687.0 L760.6,-3691.5 L763.8,-3696.0 L767.5,-3701.8 L769.9,-3706.3 L771.4,-3709.1 L773.6,-3713.9 L775.5,-3718.4 L777.2,-3723.2 L778.5,-3727.4 L780.0,-3734.3 L781.1,-3740.4 L781.6,-3745.7 L782.1,-3751.9 L782.2,-3758.5 L781.8,-3764.6 L780.7,-3772.6 L779.6,-3778.1 L778.4,-3783.2 L776.5,-3789.1 L775.0,-3793.5 L773.2,-3798.4 L771.4,-3802.5 L770.3,-3805.1 L769.8,-3807.0 L769.8,-3808.5 L769.9,-3809.8 L770.4,-3811.0 L771.2,-3812.0 L772.3,-3812.5 L773.4,-3812.7 L776.4,-3811.9 L784.9,-3809.9 L787.6,-3873.6 L798.6,-3987.2 L786.7,-3990.0 L785.4,-3993.6 L785.5,-3998.7 L787.1,-4010.3 L789.3,-4013.0 L791.3,-4020.5 L804.0,-4017.6 L810.9,-4090.2 L812.9,-4110.3 L808.9,-4111.3 L811.3,-4120.9 L803.2,-4122.8 L804.2,-4128.7 L805.7,-4132.6 L807.5,-4137.1 L810.4,-4143.4 L813.7,-4142.7 L818.0,-4188.4 L819.1,-4216.1 L819.2,-4221.2 L821.6,-4238.8 L826.3,-4282.7 L857.5,-4364.1 L864.6,-4386.2 L951.3,-4419.5 L959.7,-4422.9 L961.2,-4423.7 L962.4,-4424.8 L963.6,-4426.2 L964.6,-4428.0 L965.3,-4429.6 L965.4,-4432.1 L965.3,-4435.2 L964.2,-4474.1 L963.7,-4481.6 L963.6,-4486.8 L963.4,-4496.8 L963.2,-4500.0 L962.8,-4502.6 L962.3,-4505.0 L961.6,-4507.4 L960.3,-4510.2 L958.5,-4513.2 L956.8,-4515.6 L955.4,-4517.9 L954.1,-4520.9 L952.9,-4523.8 L952.5,-4526.2 L952.1,-4528.8 L951.9,-4531.4 L952.0,-4534.0 L952.3,-4537.0 L953.0,-4539.9 L953.9,-4542.5 L954.9,-4544.9 L956.2,-4547.2 L957.7,-4550.0 L958.7,-4552.5 L959.5,-4555.7 L961.2,-4558.2 L960.6,-4580.5 L959.8,-4581.8 L959.5,-4596.9 L959.1,-4614.8 L959.4,-4617.3 L960.2,-4619.8 L962.2,-4623.7 L975.6,-4652.5 L975.9,-4653.0 L978.2,-4658.1 L980.4,-4663.0 L982.9,-4668.0 L985.4,-4673.1 L986.6,-4675.6 L999.7,-4702.6 L1013.8,-4732.4 L1044.2,-4794.1 L1025.9,-4814.6 L1011.0,-4782.8 L998.1,-4755.4 L996.2,-4751.5 L992.2,-4743.3 L984.3,-4744.0 L982.1,-4744.1 L981.3,-4743.4 L982.3,-4742.5 L978.3,-4738.8 L975.1,-4735.9 L974.5,-4723.1 L973.2,-4720.6 L969.3,-4720.7 L968.7,-4721.0 L917.6,-4742.1 L916.5,-4742.6 L915.3,-4743.4 L913.5,-4744.8 L912.1,-4746.1 L910.9,-4747.5 L909.7,-4749.0 L908.8,-4750.5 L908.1,-4751.9 L907.5,-4753.4 L907.2,-4754.5 L906.9,-4755.8 L906.7,-4757.3 L906.5,-4759.3 L906.5,-4762.2 L906.1,-4772.2 L907.5,-4772.2 L907.3,-4777.5 L907.1,-4786.1 L908.4,-4786.1 L908.3,-4792.1 L906.8,-4792.0 L906.2,-4816.9 L907.5,-4816.9 L907.3,-4822.8 L906.0,-4822.7 L905.4,-4841.1 L912.2,-4848.4 L920.8,-4848.7 L927.2,-4848.9 L935.7,-4849.2 L943.8,-4849.4 L951.1,-4849.7 L954.3,-4849.8 L954.2,-4852.7 L954.1,-4855.6 L953.6,-4865.2 L953.4,-4883.4 L953.2,-4883.8 L953.2,-4885.6 L953.7,-4885.6 L952.4,-4929.6 L951.3,-4971.0 L951.1,-4972.4 L951.0,-4974.7 L933.0,-4974.1 L921.0,-4975.1 L831.2,-4972.0 L831.1,-4972.8 L831.0,-4976.6 L788.4,-4975.1 L788.3,-4982.2 L782.7,-4983.5 L781.6,-5013.8 L947.4,-5019.5 L950.1,-5023.3 L950.0,-5034.0 L949.8,-5043.3 L949.6,-5049.1 L949.4,-5054.8 L936.2,-5061.0 L935.7,-5074.8 L949.2,-5081.5 L948.0,-5113.4 L947.6,-5114.9 L934.2,-5121.2 L933.8,-5138.3 L946.5,-5144.8 L940.9,-5214.1 L942.4,-5244.9 L943.1,-5295.1 L943.1,-5349.7 L944.3,-5357.4 L944.3,-5361.1 L943.1,-5365.5 L944.4,-5365.5 L944.4,-5369.6 L945.1,-5472.3 L945.0,-5476.9 L943.6,-5476.9 L943.6,-5495.8 L942.8,-5497.0 L941.5,-5516.5 L944.1,-5534.3 L943.8,-5555.9 L942.9,-5561.0 L944.2,-5577.0 L943.3,-5596.3 L941.1,-5617.0 L936.8,-5650.5 L938.8,-5659.7 L937.9,-5668.7 L930.3,-5675.2 L919.0,-5675.1 L902.0,-5672.9 L890.8,-5672.9 L880.7,-5676.6 L867.5,-5685.7 L867.5,-5702.0 L867.1,-5722.1 L868.4,-5738.8 L872.8,-5751.8 L946.5,-5753.2 L948.2,-5857.7 L948.2,-6008.1 L947.4,-6062.7 L4925.4,-7705.6 L4925.4,1348.9 L-2.7,1348.9 L-2.7,-3147.4 Z" fill="#add7e1" stroke="none"><title>Biscayne Bay</title></path><path d="M-1.0,-1.0 L257.0,-1.0 L257.0,257.0 L-1.0,257.0 L-1.0,-1.0 Z" fill="#add7e1" stroke="none" fill-rule="evenodd"><title>Biscayne Bay</title></path><path d="M-2018.5,-1236.7 L-1039.8,-1133.3 L171.9,-667.8 L1010.8,-47.2 L1290.4,1038.7 L731.1,1348.9 L-1878.7,1348.9 L-2437.9,4.5 Z" fill="#add7e1" stroke="none"><title>Biscayne Bay</title></path><path d="M981.8,-3915.1 L267.7,767.2" fill="none" stroke="#6fb5c7" stroke-width="1.2" stroke-dasharray="5 7" opacity="0.34" stroke-linecap="round" stroke-linejoin="round"><title>Atlantic Intracoastal Waterway</title></path></svg>