<svg xmlns="http://www.w3.org/2000/svg" width="256" height="256" viewBox="0 0 256 256"><rect width="256" height="256" fill="#f1efe7"/><path d="M277.2,791.5 L-267.0,389.8 L-310.5,357.8 L-357.7,347.5 L-391.0,319.5 L-417.6,316.4 L-503.6,322.1 L-503.5,314.0 L-508.3,306.4 L-517.9,300.5 L-704.7,219.6 L-717.4,213.8 L-728.5,210.6 L-742.3,209.5 L-756.2,209.2 L-802.6,209.2 L-814.9,208.5 L-827.0,206.1 L-839.8,201.1 L-855.2,197.0 L-866.4,196.0 L-899.3,194.6 L-910.3,192.6 L-924.3,188.1 L-938.0,184.6 L-951.3,181.5 L-961.7,177.3 L-974.3,169.5 L-985.5,161.1 L-996.4,152.9 L-1005.3,148.7 L-1012.1,147.3 L-1018.2,147.7 L-1024.7,149.5 L-1032.3,153.4 L-1038.3,160.0 L-1046.4,167.9 L-1055.4,176.2 L-1065.6,181.8 L-1078.5,186.0 L-1089.2,188.6 L-1102.1,190.6 L-1123.7,193.1 L-1177.9,195.7 L-1223.9,198.0 L-1243.7,205.1 L-1284.3,206.5 L-1289.8,198.0 L-1295.9,194.1 L-1302.2,192.9 L-1346.0,195.4 L-1365.0,202.2 L-1388.3,202.4 L-1404.0,200.1 L-1416.9,196.2 L-1464.0,199.0 L-1588.6,208.7 L-1617.3,209.5 L-1627.1,209.3 L-1635.9,207.1 L-1646.1,202.0 L-1653.6,196.0 L-1686.0,196.1 L-1713.1,195.7 L-1720.4,200.2 L-1757.7,201.1 L-1762.5,209.0 L-1767.8,209.2 L-1777.0,207.0 L-1793.5,205.0 L-1810.5,205.9 L-1815.7,207.5 L-1821.0,206.6 L-1824.6,203.1 L-1830.7,199.6 L-1853.4,199.7 L-1876.3,200.9 L-1898.0,213.7 L-1908.7,218.8 L-1920.9,221.5 L-1931.0,222.2 L-1940.1,220.8 L-1961.1,211.8 L-1973.1,208.0 L-1983.3,206.5 L-2028.0,207.1 L-2030.8,201.7 L-2070.3,202.6 L-2097.5,207.6 L-2115.4,209.7 L-2125.0,211.8 L-2128.7,209.3 L-2135.5,208.4 L-2199.2,202.6 L-2204.7,205.6 L-2211.4,207.0 L-2220.2,207.1 L-2220.2,203.9 L-2259.7,196.5 L-2284.6,191.7 L-2344.8,171.5 L-2348.1,176.0 L-2388.3,163.6 L-2396.7,160.8 L-2392.6,146.8 L-2397.4,145.3 L-2398.4,143.8 L-2401.0,143.0 L-2404.6,142.5 L-2409.0,140.3 L-2407.5,139.0 L-2425.3,124.5 L-2454.9,97.7 L-2470.8,83.7 L-2482.1,71.4 L-2488.4,63.1 L-2497.8,50.3 L-2503.2,40.4 L-2520.0,19.3 L-2521.6,18.1 L-2522.7,18.0 L-2523.9,18.2 L-2526.1,18.3 L-2528.1,17.3 L-2532.3,14.6 L-2540.9,10.1 L-2545.1,6.5 L-2550.0,2.2 L-2556.7,-1.4 L-2567.2,-4.7 L-2578.3,-6.7 L-2587.8,-6.9 L-2585.1,-32.1 L-2582.9,-65.0 L-2572.6,-64.0 L-2562.3,-62.2 L-2548.8,-58.2 L-2538.9,-54.5 L-2530.0,-50.4 L-2521.4,-46.4 L-2513.3,-41.8 L-2506.7,-36.7 L-2497.9,-29.9 L-2488.7,-23.0 L-2486.6,-21.7 L-2484.7,-21.3 L-2459.5,-22.4 L-2459.2,-16.7 L-2460.7,-14.2 L-2479.6,-12.4 L-2474.8,-2.6 L-2471.5,-3.8 L-2468.5,-0.8 L-2466.6,2.1 L-2465.0,4.3 L-2461.1,9.5 L-2459.6,15.2 L-2453.5,23.6 L-2439.1,32.7 L-2421.2,41.8 L-2399.8,55.3 L-2390.0,59.9 L-2369.4,71.6 L-2359.7,76.7 L-2342.0,83.2 L-2307.2,92.5 L-2286.8,97.4 L-2268.2,99.3 L-2258.3,100.6 L-2256.1,100.4 L-2255.2,99.1 L-2254.9,92.5 L-2231.8,92.5 L-2231.3,99.9 L-2182.9,102.4 L-2135.7,103.8 L-2103.6,102.6 L-2093.0,101.8 L-2085.3,100.8 L-2079.0,99.0 L-2073.2,95.5 L-2070.3,90.8 L-2071.4,13.3 L-2051.9,12.2 L-2050.2,87.8 L-2049.1,89.7 L-2045.2,92.4 L-2040.7,93.7 L-1937.3,93.9 L-1937.8,60.6 L-1929.7,60.4 L-1926.3,93.9 L-1862.5,93.3 L-1862.5,89.7 L-1856.2,89.6 L-1856.0,92.2 L-1430.5,84.1 L-1399.7,80.5 L-1362.1,79.4 L-1326.5,84.1 L-1314.6,83.1 L-1305.9,81.4 L-1297.8,78.5 L-1287.3,74.5 L-1073.4,70.7 L-1073.5,55.9 L-953.8,53.8 L-953.7,70.1 L-902.9,71.9 L-899.0,71.8 L-895.4,71.5 L-890.7,70.9 L-886.9,69.9 L-883.2,68.7 L-876.9,65.7 L-874.0,70.7 L-867.8,66.8 L-862.1,62.2 L-857.3,57.2 L-853.1,51.3 L-849.2,44.0 L-856.5,39.9 L-854.5,33.8 L-853.2,27.5 L-852.5,21.5 L-852.4,16.8 L-852.6,12.4 L-853.3,-25.5 L-859.4,-31.1 L-854.2,-36.6 L-859.5,-41.2 L-853.5,-48.3 L-860.0,-54.0 L-854.8,-59.5 L-860.0,-64.5 L-853.9,-71.0 L-860.2,-77.4 L-847.1,-91.8 L-844.8,-91.9 L-850.5,-306.4 L-802.4,-307.5 L-800.1,-306.3 L-797.5,-304.3 L-795.6,-302.6 L-794.8,-300.6 L-794.1,-298.2 L-793.9,-295.8 L-789.8,37.5 L-787.9,48.3 L-785.2,55.6 L-781.0,64.6 L-776.1,73.4 L-771.0,80.4 L-766.9,84.7 L-762.5,88.1 L-757.4,91.1 L-752.1,93.1 L-744.9,95.2 L-736.0,96.9 L-725.2,98.9 L-712.6,101.2 L-700.6,103.8 L-687.3,106.2 L-674.7,108.9 L-670.7,109.7 L-665.8,110.7 L-661.0,111.3 L-656.8,111.4 L-652.0,111.4 L-648.3,111.2 L-644.6,110.5 L-641.4,109.7 L-638.0,108.7 L-635.1,107.4 L-629.3,104.6 L-624.2,101.6 L-619.1,97.9 L-613.2,92.2 L-607.7,86.0 L-604.7,80.7 L-602.0,74.2 L-600.6,68.9 L-599.8,63.2 L-599.3,57.8 L-599.3,52.8 L-606.6,-304.4 L-596.2,-315.1 L-592.4,-315.5 L-590.9,-316.9 L-569.2,-317.5 L-567.3,-320.7 L-564.0,-319.8 L-558.5,-314.7 L-554.7,-309.4 L-550.9,-302.8 L-543.7,96.4 L-543.0,103.4 L-541.7,117.3 L-540.4,120.1 L-541.4,120.8 L-539.6,124.7 L-537.3,129.3 L-535.3,132.2 L-532.9,135.7 L-529.6,139.5 L-525.7,143.5 L-521.0,147.5 L-516.8,150.6 L-512.2,153.1 L-507.8,155.3 L-503.1,156.8 L-502.5,155.4 L-436.3,179.4 L-428.0,182.5 L-424.2,183.9 L-418.3,186.0 L-414.0,187.0 L-410.3,187.5 L-406.9,187.5 L-402.1,187.1 L-396.9,186.6 L-392.3,185.6 L-387.6,184.3 L-384.1,182.9 L-380.4,181.2 L-377.4,179.3 L-373.6,176.5 L-368.8,172.3 L-364.4,168.0 L-359.6,162.0 L-356.2,156.4 L-353.4,150.2 L-351.4,143.3 L-350.2,136.3 L-349.5,123.8 L-349.8,98.3 L-357.1,-307.8 L-357.1,-312.3 L-356.3,-315.5 L-354.9,-318.1 L-352.0,-320.5 L-348.7,-322.2 L-345.0,-322.8 L-314.9,-323.8 L-311.3,-323.2 L-308.1,-321.8 L-305.8,-319.6 L-303.2,-315.8 L-301.7,-310.4 L-300.8,-303.1 L-293.3,217.8 L-292.9,220.9 L-292.3,224.0 L-291.4,227.2 L-290.3,230.7 L-289.1,234.2 L-287.7,237.4 L-286.5,240.1 L-285.2,242.5 L-283.3,245.5 L-281.2,248.1 L-279.3,250.5 L-276.4,253.6 L-273.6,256.3 L-270.5,258.8 L-267.2,261.3 L-258.0,267.1 L-257.1,266.0 L-249.0,270.5 L-239.4,275.7 L-233.9,278.7 L-227.8,282.3 L-221.5,286.0 L-215.0,290.0 L-207.7,294.5 L-200.5,299.0 L-193.3,303.3 L-187.3,307.0 L-180.6,311.3 L-173.5,315.9 L-166.7,320.4 L-160.4,324.7 L-161.1,325.6 L-152.3,331.7 L-143.2,337.8 L-140.4,339.5 L-137.3,341.2 L-132.9,343.3 L-128.8,344.8 L-124.4,346.0 L-120.5,347.0 L-115.9,347.7 L-110.8,348.3 L-106.4,348.3 L-102.7,348.0 L-99.5,347.3 L-95.4,346.2 L-91.3,344.9 L-87.5,343.6 L-84.0,341.9 L-80.4,340.0 L-76.9,337.8 L-73.3,335.0 L-70.1,332.1 L-67.0,329.0 L-64.1,325.8 L-61.1,321.4 L-58.6,317.0 L-56.2,312.1 L-54.8,308.3 L-53.7,304.3 L-52.9,300.0 L-52.5,295.7 L-52.8,290.8 L-112.1,-276.9 L-108.0,-277.3 L-111.3,-305.7 L-114.3,-305.5 L-116.7,-318.6 L-115.9,-321.3 L-113.4,-325.3 L-108.3,-329.2 L-101.6,-330.0 L-74.7,-330.9 L-70.2,-330.0 L-67.1,-328.5 L-63.8,-325.9 L-61.5,-323.5 L-59.9,-321.0 L5.1,315.9 L6.6,321.4 L9.4,328.2 L11.8,332.6 L14.4,337.3 L17.8,341.9 L20.6,345.1 L23.7,348.3 L27.1,351.0 L30.1,353.1 L34.3,355.8 L38.0,357.7 L42.9,359.8 L47.5,361.2 L52.7,362.3 L56.7,362.9 L60.2,363.0 L64.3,363.1 L205.5,360.2 L210.1,359.6 L214.5,357.5 L217.7,354.6 L219.9,350.2 L220.7,346.2 L220.5,342.2 L149.0,-339.9 L86.0,-422.1 L83.2,-419.8 L28.4,-496.3 L27.4,-512.5 L25.7,-515.9 L22.8,-519.0 L19.1,-524.2 L18.8,-531.8 L12.3,-534.3 L6.0,-534.4 L-2.5,-530.2 L7.1,-512.2 L-5.0,-506.4 L-14.1,-514.8 L-21.9,-519.6 L-27.2,-521.4 L-40.2,-521.9 L-46.8,-535.3 L-5.3,-552.3 L-7.3,-555.7 L-16.1,-567.5 L-17.5,-566.8 L-326.4,-971.3 L-331.1,-1038.0 L-328.6,-1038.6 L-340.5,-1160.9 L-345.1,-1172.2 L-350.1,-1184.9 L-353.9,-1194.7 L-358.5,-1207.2 L-373.5,-1249.3 L-379.6,-1246.6 L-388.5,-1280.7 L-387.0,-1281.0 L-418.1,-1365.3 L-421.5,-1512.7 L-417.9,-1512.7 L-417.4,-1525.6 L-415.6,-1538.3 L-414.9,-1543.0 L-416.2,-1546.8 L-412.0,-1566.9 L-373.7,-1634.7 L-393.8,-1646.9 L-378.9,-1671.6 L-359.5,-1660.2 L-357.8,-1662.8 L-351.7,-1659.7 L-345.1,-1657.1 L-337.5,-1654.7 L-331.8,-1653.5 L-326.4,-1653.3 L-320.0,-1654.4 L-313.7,-1656.5 L-307.5,-1658.9 L-304.6,-1662.0 L-303.5,-1666.1 L-302.0,-1671.0 L-301.7,-1673.0 L-301.8,-1675.5 L-303.2,-1679.4 L-305.8,-1683.1 L-308.8,-1685.2 L-313.2,-1689.4 L-317.0,-1693.4 L-322.6,-1697.0 L-324.9,-1702.7 L-327.6,-1708.4 L-331.9,-1715.1 L-336.8,-1720.9 L-345.8,-1727.3 L-389.4,-1749.9 L-415.2,-1762.7 L-439.3,-1775.7 L-462.2,-1788.4 L-477.0,-1798.0 L-482.7,-1799.5 L-489.0,-1797.6 L-492.5,-1793.3 L-499.6,-1775.6 L-543.7,-1795.4 L-517.3,-1837.1 L-511.5,-1839.8 L-504.4,-1841.2 L-496.1,-1839.4 L-330.4,-1742.5 L-321.4,-1739.8 L-312.0,-1737.5 L-298.7,-1737.2 L-285.2,-1739.6 L-276.6,-1743.1 L-267.2,-1750.7 L-261.7,-1756.0 L-255.8,-1764.3 L-255.9,-1765.4 L-256.3,-1766.4 L-257.2,-1767.2 L-310.8,-1800.3 L-312.1,-1800.7 L-313.5,-1800.8 L-314.9,-1800.7 L-320.0,-1798.5 L-321.9,-1798.3 L-324.0,-1798.5 L-327.1,-1799.0 L-329.5,-1799.7 L-332.9,-1801.4 L-336.2,-1803.3 L-409.9,-1848.3 L-444.6,-1872.7 L-447.9,-1873.2 L-451.2,-1873.1 L-455.1,-1873.0 L-457.7,-1873.4 L-459.9,-1874.4 L-462.5,-1876.4 L-465.4,-1878.7 L-467.4,-1881.5 L-468.6,-1884.3 L-468.8,-1886.4 L-468.5,-1889.1 L-468.0,-1891.4 L-456.2,-1911.2 L-456.2,-1912.1 L-457.1,-1912.8 L-467.9,-1920.4 L-470.0,-1923.5 L-468.8,-1925.4 L-465.3,-1924.9 L-461.5,-1923.8 L-439.3,-1910.1 L-313.5,-1829.8 L-310.9,-1828.3 L-309.1,-1826.4 L-307.9,-1824.2 L-306.6,-1819.6 L-305.7,-1816.0 L-305.2,-1812.9 L-248.4,-1778.8 L-246.4,-1777.9 L-244.0,-1777.7 L-241.2,-1778.1 L-239.2,-1778.8 L-237.5,-1779.6 L-176.4,-1878.5 L-150.8,-1916.1 L-126.9,-1943.0 L-114.8,-1936.3 L-107.0,-1948.9 L-148.5,-1973.7 L-139.7,-1988.1 L-98.2,-1963.1 L-88.9,-1978.3 L-96.4,-1986.7 L-88.8,-1995.4 L-80.6,-1986.0 L-78.6,-1987.5 L-76.3,-1989.1 L-73.1,-1990.9 L-69.8,-1992.5 L-65.7,-1994.0 L-61.8,-1995.1 L-57.6,-1995.8 L-53.4,-1996.1 L-49.4,-1996.0 L-45.5,-1995.4 L-41.8,-1994.5 L-38.7,-1993.6 L-36.0,-1992.4 L-32.2,-1990.6 L-28.7,-1988.4 L-25.7,-1986.3 L-22.7,-1983.6 L-20.0,-1981.0 L-17.0,-1977.1 L-14.9,-1973.6 L-12.8,-1969.1 L-11.4,-1964.6 L-10.2,-1958.4 L-9.8,-1953.0 L-9.9,-1949.9 L-10.3,-1946.7 L-11.4,-1941.9 L-14.2,-1935.3 L-16.0,-1931.0 L-18.5,-1925.9 L-8.1,-1920.7 L40.5,-1978.7 L-48.0,-2032.5 L-43.5,-2042.1 L-40.3,-2051.0 L-40.1,-2054.8 L-35.0,-2065.7 L-24.5,-2075.4 L-11.5,-2086.0 L4.0,-2095.9 L33.1,-2104.4 L83.3,-2109.4 L103.1,-2125.4 L107.2,-2126.1 L110.5,-2126.3 L115.2,-2124.5 L119.5,-2124.0 L147.4,-2107.1 L220.8,-2194.2 L-48.2,-2365.2 L-64.9,-2338.9 L-101.2,-2361.9 L-49.7,-2442.9 L-13.5,-2420.5 L-29.6,-2392.9 L244.1,-2220.4 L278.6,-2264.7 L303.0,-2293.7 L335.2,-2342.1 L353.0,-2366.5 L351.2,-2380.4 L351.7,-2380.8 L348.5,-2391.1 L346.4,-2397.5 L344.4,-2404.1 L342.0,-2409.8 L337.4,-2417.3 L332.8,-2424.6 L330.8,-2428.4 L329.3,-2432.2 L328.2,-2435.7 L327.8,-2438.8 L327.3,-2449.0 L209.1,-2557.5 L205.2,-2553.3 L201.9,-2556.1 L192.3,-2546.6 L186.0,-2555.0 L193.6,-2563.8 L186.0,-2573.5 L180.8,-2572.1 L175.4,-2571.9 L170.5,-2572.8 L166.2,-2574.6 L161.2,-2578.3 L155.0,-2584.4 L144.1,-2596.4 L140.8,-2601.5 L139.6,-2607.9 L140.4,-2615.5 L143.3,-2622.5 L145.8,-2627.3 L150.6,-2632.1 L155.9,-2635.7 L161.0,-2637.6 L164.8,-2638.2 L169.8,-2637.3 L174.9,-2635.5 L179.7,-2631.7 L190.8,-2621.7 L196.5,-2616.3 L201.7,-2610.6 L203.4,-2607.9 L204.6,-2605.0 L205.3,-2602.4 L205.8,-2598.8 L205.2,-2595.4 L204.2,-2592.2 L202.8,-2589.8 L202.4,-2588.7 L202.7,-2587.3 L203.5,-2585.9 L330.4,-2467.0 L334.8,-2464.0 L337.9,-2462.7 L342.3,-2463.7 L347.5,-2464.1 L354.1,-2461.3 L360.7,-2457.2 L373.6,-2449.9 L379.0,-2447.3 L383.9,-2452.1 L389.3,-2457.3 L392.9,-2461.4 L398.9,-2469.2 L402.3,-2473.9 L405.9,-2479.7 L408.2,-2484.8 L410.7,-2490.2 L413.0,-2495.9 L415.1,-2501.7 L416.3,-2506.6 L417.7,-2512.8 L418.3,-2516.5 L418.7,-2519.5 L419.4,-2524.8 L420.1,-2530.0 L420.4,-2533.4 L420.6,-2537.1 L420.6,-2541.4 L420.4,-2545.0 L419.7,-2550.0 L418.9,-2555.7 L418.1,-2561.0 L417.6,-2565.3 L417.0,-2568.5 L416.3,-2571.9 L415.5,-2575.3 L414.3,-2579.3 L412.9,-2583.3 L411.8,-2585.7 L410.6,-2588.1 L408.9,-2590.4 L406.6,-2593.7 L404.1,-2596.8 L401.4,-2599.4 L398.0,-2602.2 L394.5,-2604.4 L391.0,-2606.3 L387.8,-2607.5 L385.6,-2608.2 L383.1,-2608.5 L380.1,-2608.4 L377.3,-2607.8 L375.1,-2606.9 L373.0,-2605.4 L371.5,-2603.8 L370.3,-2602.3 L369.4,-2600.0 L368.9,-2597.5 L369.0,-2594.5 L369.2,-2591.0 L369.2,-2588.4 L369.0,-2585.8 L368.6,-2583.2 L368.1,-2580.9 L367.2,-2578.5 L365.8,-2575.9 L364.1,-2573.4 L362.4,-2571.1 L360.7,-2569.5 L357.3,-2566.8 L354.5,-2564.9 L350.1,-2563.6 L347.5,-2563.0 L344.5,-2562.6 L341.8,-2562.5 L338.2,-2562.7 L335.6,-2563.2 L332.0,-2564.0 L327.0,-2565.5 L322.8,-2567.1 L319.7,-2568.3 L316.4,-2570.1 L313.5,-2572.1 L310.3,-2574.6 L307.8,-2576.9 L305.7,-2579.0 L303.5,-2581.6 L301.7,-2584.0 L300.0,-2586.4 L298.5,-2589.1 L296.9,-2592.7 L295.5,-2596.0 L294.1,-2599.6 L293.2,-2602.4 L292.5,-2605.0 L292.0,-2607.7 L291.6,-2611.9 L291.3,-2615.6 L291.5,-2619.6 L292.4,-2624.9 L293.9,-2630.1 L295.8,-2635.5 L297.1,-2638.0 L298.4,-2639.5 L308.7,-2652.6 L311.1,-2655.3 L314.2,-2656.8 L317.5,-2658.0 L321.2,-2658.8 L325.3,-2659.3 L328.9,-2659.5 L332.5,-2659.4 L336.1,-2659.0 L340.2,-2657.8 L344.5,-2655.7 L348.2,-2653.4 L351.5,-2650.8 L361.9,-2641.2 L364.4,-2640.4 L365.8,-2640.1 L367.5,-2640.5 L368.6,-2640.9 L370.0,-2642.5 L370.6,-2644.1 L370.7,-2646.3 L370.8,-2648.3 L370.4,-2649.2 L349.4,-2670.0 L378.0,-2700.5 L376.4,-2704.1 L392.9,-2720.4 L424.7,-2688.6 L399.1,-2656.0 L398.9,-2654.1 L400.2,-2653.3 L401.8,-2653.7 L429.9,-2688.9 L438.1,-2698.8 L438.4,-2701.1 L437.7,-2703.1 L436.2,-2704.9 L414.2,-2725.7 L419.7,-2732.1 L414.1,-2736.8 L417.3,-2744.2 L474.3,-2801.5 L493.9,-2804.8 L500.0,-2805.7 L505.8,-2806.5 L508.5,-2807.2 L511.7,-2808.9 L515.5,-2811.0 L518.4,-2813.9 L521.2,-2817.4 L550.3,-2859.7 L550.9,-2860.8 L550.6,-2862.2 L550.2,-2863.2 L549.5,-2864.1 L546.0,-2866.3 L545.1,-2866.8 L544.3,-2866.7 L543.4,-2866.2 L541.5,-2864.8 L517.1,-2842.0 L507.6,-2835.2 L468.6,-2875.2 L473.1,-2889.4 L475.0,-2893.6 L481.1,-2904.8 L488.2,-2917.3 L492.5,-2922.1 L500.2,-2930.3 L508.4,-2939.3 L517.4,-2948.8 L525.1,-2955.4 L528.8,-2958.7 L533.7,-2962.3 L538.2,-2964.7 L544.6,-2967.6 L548.6,-2969.0 L552.6,-2970.2 L555.7,-2970.5 L560.1,-2970.2 L563.8,-2969.7 L568.0,-2968.5 L572.1,-2965.1 L574.6,-2961.6 L576.1,-2958.0 L576.7,-2952.6 L576.5,-2945.5 L575.6,-2937.5 L573.9,-2929.8 L563.6,-2906.8 L553.8,-2886.1 L557.2,-2880.6 L559.0,-2879.5 L560.9,-2879.5 L562.6,-2879.9 L563.9,-2880.7 L570.6,-2890.2 L579.2,-2894.5 L596.3,-2940.2 L597.5,-2942.5 L599.2,-2944.5 L600.9,-2945.4 L602.5,-2945.8 L604.8,-2945.8 L607.2,-2945.2 L619.7,-2941.7 L622.1,-2941.2 L624.9,-2941.1 L627.5,-2941.5 L629.6,-2942.4 L631.4,-2943.8 L633.2,-2946.1 L654.2,-2974.2 L655.2,-2976.3 L655.7,-2978.5 L655.7,-2980.6 L655.3,-2982.8 L654.5,-2984.4 L653.3,-2986.0 L651.9,-2987.3 L649.9,-2988.3 L648.0,-2988.8 L646.1,-2988.9 L644.5,-2988.6 L642.6,-2987.7 L641.2,-2986.7 L640.1,-2985.3 L634.6,-2976.4 L633.4,-2974.7 L632.0,-2973.1 L629.9,-2971.3 L628.0,-2970.2 L625.7,-2969.5 L622.9,-2968.9 L621.3,-2968.9 L619.1,-2969.2 L617.2,-2969.7 L615.6,-2970.4 L598.4,-2986.0 L596.4,-2988.4 L594.9,-2990.6 L593.5,-2993.3 L592.6,-2995.6 L592.0,-2998.0 L591.5,-3000.6 L591.2,-3003.8 L591.1,-3007.0 L591.4,-3009.7 L591.8,-3012.0 L592.3,-3014.0 L593.1,-3015.7 L624.4,-3065.4 L626.4,-3068.7 L627.6,-3070.4 L629.0,-3071.2 L631.3,-3072.2 L633.7,-3072.9 L636.0,-3073.3 L637.3,-3073.3 L638.6,-3073.1 L639.7,-3072.7 L641.3,-3071.9 L643.2,-3070.7 L646.4,-3068.1 L660.7,-3054.7 L663.1,-3051.3 L664.5,-3048.0 L665.8,-3044.1 L666.2,-3041.1 L666.4,-3037.9 L666.4,-3035.2 L666.1,-3032.5 L665.6,-3029.8 L665.0,-3028.0 L663.4,-3024.3 L657.7,-3013.7 L657.1,-3011.3 L657.1,-3008.4 L657.3,-3006.2 L658.1,-3004.5 L659.6,-3002.9 L662.0,-3001.2 L664.0,-3000.1 L666.3,-2999.6 L669.0,-2999.7 L671.2,-3000.2 L673.7,-3001.5 L675.9,-3003.5 L712.9,-3054.3 L701.6,-3064.5 L708.4,-3071.8 L718.5,-3062.1 L739.3,-3089.4 L770.8,-3131.5 L644.0,-3253.0 L616.5,-3224.1 L584.2,-3254.6 L615.4,-3288.2 L611.3,-3292.7 L617.8,-3298.7 L621.8,-3294.6 L643.5,-3318.2 L663.0,-3300.1 L665.3,-3285.1 L747.3,-3208.6 L763.3,-3202.4 L776.1,-3206.9 L800.4,-3197.2 L816.5,-3203.1 L864.4,-3261.6 L867.1,-3267.1 L867.9,-3274.5 L865.5,-3281.8 L862.3,-3287.0 L833.9,-3313.2 L834.3,-3320.4 L839.9,-3334.5 L851.1,-3355.4 L829.0,-3369.7 L837.4,-3372.9 L842.7,-3376.3 L848.0,-3382.3 L854.2,-3398.2 L865.6,-3427.2 L873.0,-3434.0 L802.8,-3502.0 L787.4,-3492.4 L783.8,-3491.5 L780.4,-3491.4 L776.0,-3491.9 L772.4,-3492.9 L768.9,-3495.0 L766.0,-3497.5 L729.7,-3532.5 L722.9,-3539.3 L719.9,-3542.9 L717.4,-3547.4 L716.2,-3551.5 L715.7,-3555.5 L715.8,-3559.3 L716.5,-3562.9 L717.4,-3565.8 L718.6,-3567.9 L721.2,-3571.6 L724.3,-3575.3 L740.6,-3592.2 L864.6,-3477.3 L856.1,-3467.7 L948.0,-3380.8 L1053.9,-3535.9 L986.7,-3598.7 L978.1,-3591.0 L852.6,-3709.5 L869.0,-3724.8 L941.1,-3657.2 L948.3,-3667.8 L952.3,-3673.1 L957.4,-3678.3 L963.3,-3684.8 L969.3,-3688.7 L978.8,-3696.7 L988.3,-3705.5 L1006.5,-3722.7 L1050.0,-3771.6 L1057.8,-3779.7 L1086.5,-3794.4 L1113.7,-3815.7 L1116.3,-3817.7 L1123.4,-3823.2 L1126.5,-3826.0 L1129.0,-3829.2 L1130.7,-3832.5 L1131.8,-3835.8 L1133.1,-3838.3 L1134.6,-3841.0 L1137.2,-3845.3 L1139.0,-3848.0 L1140.8,-3850.5 L1144.1,-3853.1 L1147.3,-3855.3 L1150.8,-3857.4 L1159.1,-3861.4 L1167.1,-3865.4 L1168.3,-3865.6 L1169.5,-3865.4 L1171.9,-3864.7 L1178.4,-3861.4 L1183.3,-3859.0 L1185.6,-3857.6 L1187.7,-3855.9 L1221.1,-3824.2 L1223.4,-3822.9 L1234.3,-3820.0 L1237.8,-3819.0 L1241.7,-3818.6 L1244.7,-3818.7 L1247.0,-3819.5 L1249.3,-3821.1 L1261.2,-3837.9 L1261.2,-3840.2 L1260.8,-3842.3 L1259.5,-3844.6 L1257.5,-3846.8 L1248.4,-3855.3 L1249.1,-3856.7 L1260.8,-3881.5 L1280.8,-3921.8 L1299.0,-3935.2 L1309.5,-3945.7 L1316.7,-3954.0 L1324.3,-3961.7 L1332.7,-3968.6 L1337.8,-3973.3 L1343.2,-3978.2 L1347.2,-3982.2 L1349.2,-3985.8 L1350.8,-3988.6 L1351.8,-3991.3 L1352.2,-3994.5 L1352.4,-3997.7 L1358.5,-4003.9 L1367.5,-4012.4 L1382.5,-4024.7 L1398.2,-4036.6 L1405.2,-4046.4 L1407.8,-4056.5 L1415.6,-4061.3 L1425.4,-4061.5 L1435.3,-4067.4 L1444.0,-4083.1 L1443.8,-4099.4 L1445.4,-4124.6 L1447.9,-4128.2 L1449.4,-4130.6 L1452.2,-4135.2 L1448.7,-4145.9 L1452.7,-4150.9 L1472.5,-4175.4 L1506.5,-4215.1 L1513.0,-4224.5 L1515.6,-4229.4 L1526.4,-4244.3 L1529.4,-4253.7 L1529.5,-4268.2 L1529.1,-4282.7 L1529.0,-4297.5 L1533.4,-4313.8 L1540.8,-4329.9 L1551.4,-4345.4 L1559.1,-4356.9 L1568.2,-4368.4 L1585.8,-4388.0 L1663.8,-4426.6 L1674.1,-4429.3 L1676.7,-4423.7 L1679.8,-4418.3 L1680.8,-4417.3 L1682.5,-4418.0 L1682.8,-4421.8 L1681.6,-4425.0 L1685.9,-4426.3 L1701.9,-4431.0 L1722.7,-4437.2 L1739.5,-4442.2 L1745.5,-4444.0 L1739.5,-4462.9 L1749.9,-4465.7 L1767.2,-4468.1 L1769.3,-4468.4 L1769.4,-4469.6 L1769.4,-4474.0 L1785.1,-4474.7 L1809.7,-4475.7 L1819.2,-4471.1 L1842.9,-4385.7 L1848.2,-4380.6 L1837.9,-4370.0 L1847.0,-4361.0 L1856.0,-4352.0 L1866.8,-4363.0 L2067.3,-4172.4 L2334.9,-4458.0 L2428.4,-4368.6 L2432.0,-4369.7 L2433.4,-4368.1 L2439.7,-4372.1 L2444.9,-4374.0 L2450.4,-4376.5 L2459.8,-4381.4 L2465.6,-4384.7 L2472.5,-4388.7 L2478.9,-4392.7 L2484.1,-4396.1 L2488.9,-4399.2 L2494.5,-4403.3 L2500.9,-4408.0 L2505.8,-4412.1 L2511.0,-4416.7 L2516.7,-4422.1 L2522.1,-4427.5 L2534.7,-4440.9 L2542.3,-4450.0 L2549.7,-4459.9 L2554.8,-4467.1 L2559.6,-4474.5 L2565.3,-4484.8 L2570.3,-4494.9 L2574.3,-4503.2 L2577.7,-4511.5 L2579.8,-4517.0 L2582.1,-4523.2 L2587.5,-4529.9 L2416.5,-4692.6 L2418.6,-4694.9 L2439.1,-4716.9 L2454.0,-4732.7 L2455.5,-4734.3 L2498.9,-4693.7 L2509.4,-4699.1 L2510.6,-4697.6 L2612.6,-4750.7 L2616.8,-4752.9 L2619.7,-4755.2 L2622.4,-4757.7 L2625.5,-4760.9 L2628.5,-4765.4 L2631.1,-4769.6 L2632.8,-4772.8 L2634.0,-4776.9 L2635.1,-4781.4 L2635.6,-4786.3 L2635.6,-4791.8 L2635.2,-4796.2 L2634.4,-4800.1 L2633.1,-4804.8 L2601.2,-4896.6 L2596.9,-4911.7 L2598.0,-4916.9 L2521.0,-4936.0 L2524.6,-4949.3 L2527.6,-4961.3 L2550.4,-5051.5 L2532.7,-5104.1 L2522.3,-5138.1 L2519.3,-5146.6 L2546.9,-5171.9 L2578.0,-5188.6 L2579.9,-5186.0 L2582.9,-5181.7 L2589.9,-5172.6 L2590.7,-5173.4 L2590.9,-5176.5 L2581.2,-5189.9 L2598.5,-5202.3 L2602.3,-5204.5 L2611.3,-5192.8 L2612.8,-5191.7 L2614.3,-5191.4 L2615.1,-5191.6 L2615.1,-5192.4 L2572.3,-5251.0 L2569.2,-5254.4 L2565.6,-5259.3 L2547.0,-5281.8 L2562.9,-5331.1 L2575.1,-5343.8 L2589.2,-5350.4 L2619.2,-5368.2 L2625.4,-5374.6 L2652.3,-5398.2 L2660.8,-5389.3 L2685.7,-5362.4 L2708.8,-5381.8 L2724.3,-5366.9 L2738.2,-5353.3 L2738.9,-5352.6 L2750.7,-5362.7 L2766.3,-5346.1 L2779.7,-5328.9 L2789.6,-5317.4 L2790.9,-5315.9 L2819.7,-5341.2 L2821.2,-5342.5 L2814.4,-5350.8 L2830.1,-5363.7 L2877.7,-5308.2 L2918.2,-5334.9 L2922.2,-5338.7 L2939.8,-5346.1 L2943.8,-5350.0 L2947.6,-5355.0 L2969.3,-5374.3 L2964.4,-5381.0 L2925.6,-5372.1 L2881.2,-5422.6 L2886.3,-5427.0 L2893.0,-5419.2 L2924.4,-5446.2 L2957.7,-5409.8 L2966.7,-5406.2 L2972.1,-5403.1 L2978.9,-5395.4 L2982.6,-5398.7 L2958.5,-5426.1 L2973.3,-5438.9 L3003.2,-5403.0 L3007.0,-5405.8 L3006.6,-5406.6 L3072.2,-5454.0 L3091.7,-5468.4 L3028.0,-5548.0 L3041.6,-5557.5 L3097.0,-5492.6 L3137.9,-5485.1 L3164.9,-5500.9 L3168.7,-5503.3 L3168.5,-5506.3 L3166.6,-5509.8 L3187.7,-5523.1 L3193.9,-5516.9 L3211.7,-5527.4 L3198.8,-5543.4 L3136.5,-5626.7 L3180.5,-5672.3 L3209.4,-5715.0 L3210.1,-5748.4 L3194.7,-5792.8 L3227.1,-5819.8 L3261.1,-5832.9 L3272.3,-5835.5 L3281.3,-5836.7 L3292.3,-5836.0 L3303.7,-5833.2 L3320.2,-5819.1 L3363.0,-5766.9 L3397.2,-5723.5 L3438.1,-5696.2 L3454.2,-5693.6 L3468.6,-5691.9 L3480.8,-5691.4 L3496.4,-5692.5 L3513.3,-5695.3 L3527.0,-5699.2 L3538.6,-5704.6 L3546.3,-5709.1 L3552.0,-5715.1 L3561.6,-5726.7 L3572.0,-5745.7 L3583.3,-5770.9 L3603.4,-5760.6 L3611.4,-5757.9 L3620.0,-5756.7 L3633.7,-5757.6 L3642.8,-5760.3 L3653.2,-5764.8 L3662.9,-5770.4 L3673.2,-5780.4 L3682.0,-5788.4 L3693.0,-5795.9 L3700.6,-5800.8 L3711.8,-5804.8 L3731.1,-5810.4 L3742.5,-5813.6 L3754.7,-5818.2 L3765.3,-5823.7 L3771.6,-5827.3 L3776.6,-5832.5 L3842.0,-5865.3 L3844.5,-5866.7 L3847.4,-5868.5 L3850.4,-5870.8 L3854.8,-5873.3 L3857.7,-5874.7 L3860.8,-5877.4 L3863.2,-5879.9 L3866.4,-5882.0 L3869.8,-5884.4 L3874.3,-5888.6 L3880.7,-5889.1 L3887.3,-5889.9 L3891.6,-5891.3 L3897.2,-5893.9 L3904.1,-5897.0 L3911.4,-5901.5 L3915.5,-5905.4 L3920.1,-5910.7 L3923.0,-5915.6 L3924.6,-5920.1 L3924.7,-5923.3 L3924.8,-5925.9 L3926.4,-5936.3 L3962.8,-5957.4 L4026.6,-5994.2 L4039.0,-6001.3 L4147.2,-6063.7 L4264.4,-6131.0 L4314.3,-6159.6 L4331.6,-6169.3 L4476.5,-6253.5 L4508.7,-6271.2 L4508.2,-6272.3 L4574.5,-6309.8 L4600.0,-6324.1 L4647.0,-6350.1 L4647.5,-6349.4 L4665.7,-6359.4 L4709.9,-6384.1 L4715.2,-6388.9 L4760.0,-6421.7 L4782.3,-6440.2 L4802.8,-6457.5 L4812.2,-6462.8 L4833.4,-6483.8 L4835.2,-6482.7 L4838.0,-6483.0 L4839.4,-6482.1 L4869.2,-6517.0 L4861.7,-6524.0 L4862.7,-6525.8 L4865.9,-6530.4 L4874.5,-6541.3 L4879.7,-6549.2 L4883.8,-6555.7 L4889.5,-6564.4 L4895.0,-6573.4 L4901.2,-6583.7 L4907.6,-6594.9 L4921.5,-6623.6 L4925.8,-6632.7 L4929.3,-6640.0 L4931.7,-6645.5 L4933.8,-6649.7 L4938.2,-6660.7 L4822.4,-6876.7 L4820.2,-6880.8 L4818.5,-6883.1 L4817.3,-6884.8 L4815.7,-6886.2 L4814.2,-6887.2 L4812.2,-6888.4 L4810.1,-6889.2 L4808.3,-6889.6 L4806.5,-6889.8 L4803.8,-6889.8 L4800.7,-6889.3 L4798.0,-6888.5 L4795.2,-6887.1 L4768.3,-6871.6 L4733.2,-6851.5 L4708.7,-6837.9 L4664.0,-6813.3 L4636.6,-6798.4 L4637.6,-6796.7 L4625.9,-6790.0 L4587.6,-6770.2 L4559.2,-6753.4 L4542.5,-6744.1 L4517.1,-6729.5 L4514.2,-6727.5 L4491.9,-6767.6 L4535.7,-6791.6 L4595.5,-6824.1 L4636.2,-6846.7 L4641.2,-6849.6 L4640.5,-6850.7 L4675.7,-6869.9 L4694.4,-6880.2 L4737.3,-6901.1 L4745.5,-6905.3 L4810.2,-6941.3 L4834.5,-6954.7 L4851.6,-6963.9 L4871.8,-6975.5 L4899.8,-6924.9 L4855.8,-6900.8 L4853.5,-6897.1 L4852.6,-6893.2 L4852.2,-6890.2 L4852.1,-6887.6 L4852.3,-6885.5 L4853.1,-6882.6 L4942.8,-6716.7 L4944.5,-6714.2 L4946.5,-6712.3 L4948.5,-6711.0 L4950.6,-6710.3 L4952.9,-6710.0 L4955.1,-6710.2 L4956.8,-6710.7 L4996.6,-6740.9 L5015.3,-6756.6 L5034.6,-6772.9 L5041.9,-6779.6 L5065.8,-6799.2 L5066.9,-6799.2 L5090.1,-6819.0 L5090.2,-6820.2 L5105.4,-6832.7 L5117.4,-6842.5 L5138.0,-6859.5 L5139.9,-6857.2 L5160.1,-6873.9 L5170.3,-6882.4 L5198.6,-6905.9 L5218.3,-6922.3 L5216.4,-6925.1 L5222.9,-6930.6 L5233.6,-6939.4 L5240.2,-6945.2 L5268.1,-6957.7 L5287.0,-6964.3 L5296.7,-6968.9 L5323.9,-6969.1 L5333.4,-6969.1 L5353.5,-6968.1 L5377.0,-6967.1 L5378.7,-6968.7 L5381.0,-6965.7 L5388.4,-6965.3 L5455.7,-6959.5 L5463.6,-6957.8 L5470.5,-6956.7 L5486.1,-6955.4 L5515.2,-6954.0 L5521.6,-6953.9 L5527.6,-6954.1 L5550.9,-6955.0 L5562.9,-6955.6 L5574.8,-6956.7 L5593.1,-6958.6 L5593.0,-6957.5 L5607.5,-6960.0 L5621.2,-6962.6 L5631.7,-6964.5 L5645.5,-6974.9 L5647.1,-6972.7 L5648.8,-6970.3 L5770.4,-6809.5 L6063.9,-6708.3 L6602.5,-7103.9 L6749.3,-7209.6 L6806.0,-7330.6 L6715.8,-7448.8 L6719.8,-7465.7 L6735.6,-7470.0 L6766.0,-7463.7 L6787.6,-7471.8 L6793.6,-7480.2 L6792.3,-7487.5 L6776.2,-7519.1 L6775.1,-7530.9 L6774.2,-7554.3 L6771.4,-7576.9 L6774.2,-7580.9 L6783.3,-7585.3 L6794.4,-7587.8 L6802.4,-7596.4 L6804.2,-7606.8 L6797.4,-7626.9 L6796.7,-7640.8 L6798.9,-7656.6 L6809.9,-7684.3 L6807.6,-7697.1 L6802.1,-7711.4 L6801.9,-7730.8 L6798.7,-7756.4 L6792.9,-7772.4 L6789.3,-7780.8 L6791.7,-7784.5 L6794.0,-7784.3 L6794.6,-7785.8 L6794.9,-7787.8 L6794.8,-7789.8 L6791.3,-7790.2 L6789.1,-7793.3 L6789.5,-7797.0 L6786.5,-7797.8 L6782.8,-7797.9 L6782.3,-7797.0 L6774.7,-7806.0 L6773.1,-7808.8 L6771.8,-7812.7 L6770.9,-7816.5 L6770.2,-7820.5 L6769.9,-7824.5 L6769.7,-7828.1 L6769.7,-7831.8 L6770.0,-7833.8 L6771.6,-7838.8 L6773.4,-7842.8 L6775.7,-7846.7 L6779.1,-7851.6 L6782.6,-7856.3 L6785.9,-7859.7 L6790.0,-7862.8 L6790.8,-7862.0 L6825.9,-7888.8 L6831.0,-7892.7 L6830.0,-7894.2 L6830.0,-7896.8 L6838.7,-7903.6 L6840.9,-7903.5 L6843.0,-7902.0 L6846.7,-7904.8 L6882.7,-7932.1 L6882.3,-7933.0 L6886.5,-7936.1 L6891.5,-7939.2 L6895.0,-7940.8 L6900.0,-7942.7 L6904.3,-7943.9 L6908.6,-7944.5 L6913.3,-7944.9 L6916.1,-7944.7 L6920.0,-7944.1 L6923.8,-7942.8 L6926.6,-7941.4 L6929.3,-7939.8 L6931.3,-7938.3 L6933.0,-7936.7 L6935.5,-7934.3 L6936.6,-7933.9 L6938.4,-7933.9 L6940.2,-7934.2 L6945.7,-7938.1 L6945.7,-7939.2 L6946.3,-7940.0 L6946.9,-7941.1 L6946.8,-7942.4 L6946.5,-7943.5 L6945.7,-7944.5 L6941.8,-7948.4 L6938.7,-7950.9 L6935.1,-7952.9 L6929.2,-7955.5 L6924.1,-7957.5 L6933.0,-7962.1 L6943.9,-7969.7 L6957.4,-7971.4 L6970.9,-7970.5 L6979.7,-7974.0 L6987.4,-7985.0 L7016.4,-8036.9 L7028.2,-8058.3 L7037.5,-8081.1 L7039.1,-8085.9 L7052.9,-8128.2 L7055.1,-8132.3 L7057.7,-8136.4 L7090.1,-8176.5 L7097.0,-8183.7 L7102.1,-8188.1 L7174.7,-8250.3 L7178.7,-8253.0 L7191.1,-8259.8 L7206.0,-8268.2 L7252.4,-8292.5 L7353.5,-8346.8 L7355.9,-8344.9 L7357.8,-8344.2 L7359.5,-8343.7 L7361.3,-8344.0 L7363.2,-8344.4 L7368.6,-8345.5 L7374.9,-8346.9 L7380.6,-8348.2 L7386.5,-8349.3 L7389.7,-8350.0 L7394.1,-8351.3 L7399.1,-8353.4 L7411.2,-8360.0 L7415.6,-8362.4 L7417.9,-8363.8 L7420.2,-8364.8 L7429.6,-8368.8 L7439.9,-8372.8 L7452.9,-8378.4 L7468.2,-8384.7 L7468.8,-8385.0 L7470.1,-8385.1 L7471.8,-8385.6 L7474.2,-8387.4 L7476.9,-8388.4 L7479.9,-8389.9 L7485.5,-8393.1 L7487.5,-8395.1 L7490.8,-8397.2 L7490.5,-8397.8 L7491.9,-8399.5 L7493.7,-8401.4 L7496.7,-8402.9 L7499.2,-8403.9 L7501.9,-8404.9 L7504.4,-8406.2 L7509.3,-8409.3 L7510.7,-8410.7 L7512.1,-8412.9 L7512.7,-8414.5 L7512.9,-8416.1 L7512.7,-8417.6 L7513.0,-8419.1 L7499.0,-8436.0 L7543.1,-8461.9 L7564.0,-8473.0 L7568.1,-8474.3 L7574.5,-8473.1 L7581.6,-8463.2 L7584.8,-8460.4 L7587.7,-8459.0 L7590.4,-8458.4 L7592.9,-8458.5 L7630.7,-8474.1 L7641.0,-8479.1 L7650.6,-8484.4 L7666.1,-8492.6 L7669.3,-8493.7 L7884.1,-8583.0 L7951.3,-8615.3 L8251.8,-8759.6 L15264.9,-8817.6 L15264.9,1218.0 L277.2,1218.0 L277.2,791.5 Z" fill="#add7e1" stroke="none"><title>Biscayne Bay</title></path><path d="M257.0,-1.0 L257.0,257.0 L-1.0,257.0 L-1.0,256.4 L-0.9,257.0 L211.6,257.0 L211.2,253.6 L184.5,-1.0 L257.0,-1.0 Z" fill="#add7e1" stroke="none" fill-rule="evenodd"><title>Biscayne Bay</title></path><path d="M-393.9,-850.8 L3520.8,-437.1 L8367.6,1424.9 L11723.0,3907.3 L12841.5,8250.9 L10604.5,9491.8 L165.4,9491.8 L-2071.6,4114.2 Z" fill="#add7e1" stroke="none"><title>Biscayne Bay</title></path><path d="M52.7,130.3 L20.1,131.0 L20.8,162.8 L10.0,163.1 L10.3,176.7 L45.9,175.9 L45.2,145.2 L53.0,145.1 L52.7,130.3 Z" fill="#d6d2c9" stroke="#bab6ad" stroke-width="0.4"></path><path d="M191.7,251.3 L181.4,252.6 L179.9,240.7 L190.2,239.4 L191.7,251.3 Z" fill="#d6d2c9" stroke="#bab6ad" stroke-width="0.4"></path><path d="M164.0,236.1 L166.8,255.4 L175.5,254.1 L183.7,309.6 L194.5,308.1 L199.2,340.2 L188.1,341.9 L187.7,339.2 L176.6,340.8 L173.0,316.6 L167.8,317.4 L169.6,329.9 L154.9,332.1 L150.0,298.6 L147.5,299.0 L145.1,282.3 L139.7,283.1 L133.5,240.6 L164.0,236.1 Z" fill="#d6d2c9" stroke="#bab6ad" stroke-width="0.4"></path><path d="M28.2,-32.8 L25.5,-28.1 L33.7,-23.3 L30.2,-17.3 L36.5,-13.5 L30.0,-2.5 L26.1,-4.8 L22.4,1.6 L18.3,-0.8 L16.3,2.5 L2.3,-5.7 L4.3,-9.0 L-9.5,-17.2 L0.3,-33.7 L4.3,-31.4 L11.1,-42.9 L28.2,-32.8 Z" fill="#d6d2c9" stroke="#bab6ad" stroke-width="0.4"></path><path d="M45.6,238.4 L46.0,242.0 L50.5,241.5 L51.8,253.9 L47.9,254.3 L50.2,276.2 L42.3,277.0 L43.4,287.6 L21.1,290.0 L19.8,277.4 L24.2,277.0 L20.9,245.4 L23.8,245.1 L23.4,240.7 L45.6,238.4 Z" fill="#d6d2c9" stroke="#bab6ad" stroke-width="0.4"></path><path d="M63.3,214.9 L64.6,214.9 L65.2,231.6 L59.3,231.8 L59.2,230.5 L40.9,231.1 L41.0,233.4 L30.3,233.7 L29.2,202.0 L30.6,201.9 L30.1,187.5 L62.4,186.4 L63.3,214.9 Z" fill="#d6d2c9" stroke="#bab6ad" stroke-width="0.4"></path><path d="M39.4,82.6 L39.5,85.7 L45.5,85.5 L46.1,102.7 L51.0,102.6 L51.5,116.9 L37.3,117.3 L37.0,108.5 L29.7,108.8 L30.0,117.7 L7.0,118.5 L6.6,104.0 L14.0,103.8 L13.1,75.8 L24.5,75.4 L24.4,70.9 L40.8,70.4 L41.1,82.6 L39.4,82.6 Z" fill="#d6d2c9" stroke="#bab6ad" stroke-width="0.4"></path><path d="M170.0,201.0 L167.3,204.5 L165.0,204.7 L165.1,206.2 L136.5,208.7 L135.8,200.9 L123.6,201.9 L121.0,173.0 L164.8,168.4 L167.3,194.6 L169.6,196.6 L170.0,201.0 Z" fill="#d6d2c9" stroke="#bab6ad" stroke-width="0.4"></path><path d="M163.5,-9.1 L169.4,37.9 L152.6,40.1 L150.2,21.0 L142.3,22.0 L138.8,-5.9 L163.5,-9.1 Z" fill="#d6d2c9" stroke="#bab6ad" stroke-width="0.4"></path><path d="M128.4,58.5 L157.4,57.3 L159.1,96.5 L130.0,97.7 L128.4,58.5 Z" fill="#d6d2c9" stroke="#bab6ad" stroke-width="0.4"></path><path d="M115.3,107.2 L162.6,106.8 L162.7,117.0 L173.9,117.0 L174.1,152.8 L146.7,153.0 L146.7,149.1 L142.0,149.1 L141.8,122.9 L115.4,123.1 L115.3,107.2 Z" fill="#d6d2c9" stroke="#bab6ad" stroke-width="0.4"></path><path d="M4.7,17.3 L43.0,13.1 L45.1,32.2 L29.1,34.0 L30.0,41.8 L35.4,41.2 L37.6,61.0 L8.3,64.2 L6.8,50.2 L2.4,50.6 L0.7,35.7 L6.7,35.0 L4.7,17.3 Z" fill="#d6d2c9" stroke="#bab6ad" stroke-width="0.4"></path><path d="M-59.9,-321.0 L5.1,315.9" fill="none" stroke="#79bdd0" stroke-width="1.4" stroke-linecap="round" stroke-linejoin="round"></path><path d="M220.5,342.2 L149.0,-339.9" fill="none" stroke="#79bdd0" stroke-width="1.4" stroke-linecap="round" stroke-linejoin="round"></path><path d="M31.9,318.1 L51.3,296.1 L72.8,281.4 L82.8,265.7 L98.9,254.3" fill="none" stroke="#cec8bb" stroke-width="3.5" stroke-linecap="round" stroke-linejoin="round"/><path d="M31.9,318.1 L51.3,296.1 L72.8,281.4 L82.8,265.7 L98.9,254.3" fill="none" stroke="#ffffff" stroke-width="2.5" stroke-linecap="round" stroke-linejoin="round"></path><path d="M55.3,-162.5 L68.3,-43.8 L93.7,204.3 L98.9,254.3" fill="none" stroke="#cec8bb" stroke-width="4.8" stroke-linecap="round" stroke-linejoin="round"/><path d="M55.3,-162.5 L68.3,-43.8 L93.7,204.3 L98.9,254.3" fill="none" stroke="#ffffff" stroke-width="3.7" stroke-linecap="round" stroke-linejoin="round"><title>Sunrise Drive</title></path><text x="84.1" y="110.1" transform="rotate(84.1 84.1 110.1)" text-anchor="middle" dominant-baseline="central" font-family="Arial, sans-serif" font-size="8.3" textLength="69.1" lengthAdjust="spacing" font-weight="650" paint-order="stroke" stroke="#fffaf0" stroke-width="2.05" stroke-linejoin="round" fill="#695f54">Sunrise Drive</text><text x="48.0" y="216.6" text-anchor="middle" font-family="Arial, sans-serif" font-size="6.5" textLength="18.0" lengthAdjust="spacing" font-weight="500" paint-order="stroke" stroke="#f3f5ee" stroke-width="1.55" stroke-linejoin="round" fill="#6f777a">6970</text><text x="32.1" y="96.1" text-anchor="middle" font-family="Arial, sans-serif" font-size="6.5" textLength="18.0" lengthAdjust="spacing" font-weight="500" paint-order="stroke" stroke="#f3f5ee" stroke-width="1.55" stroke-linejoin="round" fill="#6f777a">6950</text><text x="153.3" y="196.4" text-anchor="middle" font-family="Arial, sans-serif" font-size="6.5" textLength="18.0" lengthAdjust="spacing" font-weight="500" paint-order="stroke" stroke="#f3f5ee" stroke-width="1.55" stroke-linejoin="round" fill="#6f777a">6969</text><text x="152.8" y="17.7" text-anchor="middle" font-family="Arial, sans-serif" font-size="6.5" textLength="18.0" lengthAdjust="spacing" font-weight="500" paint-order="stroke" stroke="#f3f5ee" stroke-width="1.55" stroke-linejoin="round" fill="#6f777a">6939</text><text x="16.6" y="42.1" text-anchor="middle" font-family="Arial, sans-serif" font-size="6.5" textLength="18.0" lengthAdjust="spacing" font-weight="500" paint-order="stroke" stroke="#f3f5ee" stroke-width="1.55" stroke-linejoin="round" fill="#6f777a">6940</text><text x="26.9" y="145.0" text-anchor="middle" font-family="Arial, sans-serif" font-size="6.5" textLength="18.0" lengthAdjust="spacing" font-weight="500" paint-order="stroke" stroke="#f3f5ee" stroke-width="1.55" stroke-linejoin="round" fill="#6f777a">6960</text><text x="141.3" y="67.7" text-anchor="middle" font-family="Arial, sans-serif" font-size="6.5" textLength="18.0" lengthAdjust="spacing" font-weight="500" paint-order="stroke" stroke="#f3f5ee" stroke-width="1.55" stroke-linejoin="round" fill="#6f777a">6949</text><text x="144.4" y="125.3" text-anchor="middle" font-family="Arial, sans-serif" font-size="6.5" textLength="18.0" lengthAdjust="spacing" font-weight="500" paint-order="stroke" stroke="#f3f5ee" stroke-width="1.55" stroke-linejoin="round" fill="#6f777a">6959</text></svg>