<svg xmlns="http://www.w3.org/2000/svg" width="256" height="256" viewBox="0 0 256 256"><rect width="256" height="256" fill="#f1efe7"/><path d="M277.2,279.5 L-267.0,-122.2 L-310.5,-154.2 L-357.7,-164.5 L-391.0,-192.5 L-417.6,-195.6 L-503.6,-189.9 L-503.5,-198.0 L-508.3,-205.6 L-517.9,-211.5 L-704.7,-292.4 L-717.4,-298.2 L-728.5,-301.4 L-742.3,-302.5 L-756.2,-302.8 L-802.6,-302.8 L-814.9,-303.5 L-827.0,-305.9 L-839.8,-310.9 L-855.2,-315.0 L-866.4,-316.0 L-899.3,-317.4 L-910.3,-319.4 L-924.3,-323.9 L-938.0,-327.4 L-951.3,-330.5 L-961.7,-334.7 L-974.3,-342.5 L-985.5,-350.9 L-996.4,-359.1 L-1005.3,-363.3 L-1012.1,-364.7 L-1018.2,-364.3 L-1024.7,-362.5 L-1032.3,-358.6 L-1038.3,-352.0 L-1046.4,-344.1 L-1055.4,-335.8 L-1065.6,-330.2 L-1078.5,-326.0 L-1089.2,-323.4 L-1102.1,-321.4 L-1123.7,-318.9 L-1177.9,-316.3 L-1223.9,-314.0 L-1243.7,-306.9 L-1284.3,-305.5 L-1289.8,-314.0 L-1295.9,-317.9 L-1302.2,-319.1 L-1346.0,-316.6 L-1365.0,-309.8 L-1388.3,-309.6 L-1404.0,-311.9 L-1416.9,-315.8 L-1464.0,-313.0 L-1588.6,-303.3 L-1617.3,-302.5 L-1627.1,-302.7 L-1635.9,-304.9 L-1646.1,-310.0 L-1653.6,-316.0 L-1686.0,-315.9 L-1713.1,-316.3 L-1720.4,-311.8 L-1757.7,-310.9 L-1762.5,-303.0 L-1767.8,-302.8 L-1777.0,-305.0 L-1793.5,-307.0 L-1810.5,-306.1 L-1815.7,-304.5 L-1821.0,-305.4 L-1824.6,-308.9 L-1830.7,-312.4 L-1853.4,-312.3 L-1876.3,-311.1 L-1898.0,-298.3 L-1908.7,-293.2 L-1920.9,-290.5 L-1931.0,-289.8 L-1940.1,-291.2 L-1961.1,-300.2 L-1973.1,-304.0 L-1983.3,-305.5 L-2028.0,-304.9 L-2030.8,-310.3 L-2070.3,-309.4 L-2097.5,-304.4 L-2115.4,-302.3 L-2125.0,-300.2 L-2128.7,-302.7 L-2135.5,-303.6 L-2199.2,-309.4 L-2204.7,-306.4 L-2211.4,-305.0 L-2220.2,-304.9 L-2220.2,-308.1 L-2259.7,-315.5 L-2284.6,-320.3 L-2344.8,-340.5 L-2348.1,-336.0 L-2388.3,-348.4 L-2396.7,-351.2 L-2392.6,-365.2 L-2397.4,-366.7 L-2398.4,-368.2 L-2401.0,-369.0 L-2404.6,-369.5 L-2409.0,-371.7 L-2407.5,-373.0 L-2425.3,-387.5 L-2454.9,-414.3 L-2470.8,-428.3 L-2482.1,-440.6 L-2488.4,-448.9 L-2497.8,-461.7 L-2503.2,-471.6 L-2520.0,-492.7 L-2521.6,-493.9 L-2522.7,-494.0 L-2523.9,-493.8 L-2526.1,-493.7 L-2528.1,-494.7 L-2532.3,-497.4 L-2540.9,-501.9 L-2545.1,-505.5 L-2550.0,-509.8 L-2556.7,-513.4 L-2567.2,-516.7 L-2578.3,-518.7 L-2587.8,-518.9 L-2585.1,-544.1 L-2582.9,-577.0 L-2572.6,-576.0 L-2562.3,-574.2 L-2548.8,-570.2 L-2538.9,-566.5 L-2530.0,-562.4 L-2521.4,-558.4 L-2513.3,-553.8 L-2506.7,-548.7 L-2497.9,-541.9 L-2488.7,-535.0 L-2486.6,-533.7 L-2484.7,-533.3 L-2459.5,-534.4 L-2459.2,-528.7 L-2460.7,-526.2 L-2479.6,-524.4 L-2474.8,-514.6 L-2471.5,-515.8 L-2468.5,-512.8 L-2466.6,-509.9 L-2465.0,-507.7 L-2461.1,-502.5 L-2459.6,-496.8 L-2453.5,-488.4 L-2439.1,-479.3 L-2421.2,-470.2 L-2399.8,-456.7 L-2390.0,-452.1 L-2369.4,-440.4 L-2359.7,-435.3 L-2342.0,-428.8 L-2307.2,-419.5 L-2286.8,-414.6 L-2268.2,-412.7 L-2258.3,-411.4 L-2256.1,-411.6 L-2255.2,-412.9 L-2254.9,-419.5 L-2231.8,-419.5 L-2231.3,-412.1 L-2182.9,-409.6 L-2135.7,-408.2 L-2103.6,-409.4 L-2093.0,-410.2 L-2085.3,-411.2 L-2079.0,-413.0 L-2073.2,-416.5 L-2070.3,-421.2 L-2071.4,-498.7 L-2051.9,-499.8 L-2050.2,-424.2 L-2049.1,-422.3 L-2045.2,-419.6 L-2040.7,-418.3 L-1937.3,-418.1 L-1937.8,-451.4 L-1929.7,-451.6 L-1926.3,-418.1 L-1862.5,-418.7 L-1862.5,-422.3 L-1856.2,-422.4 L-1856.0,-419.8 L-1430.5,-427.9 L-1399.7,-431.5 L-1362.1,-432.6 L-1326.5,-427.9 L-1314.6,-428.9 L-1305.9,-430.6 L-1297.8,-433.5 L-1287.3,-437.5 L-1073.4,-441.3 L-1073.5,-456.1 L-953.8,-458.2 L-953.7,-441.9 L-902.9,-440.1 L-899.0,-440.2 L-895.4,-440.5 L-890.7,-441.1 L-886.9,-442.1 L-883.2,-443.3 L-876.9,-446.3 L-874.0,-441.3 L-867.8,-445.2 L-862.1,-449.8 L-857.3,-454.8 L-853.1,-460.7 L-849.2,-468.0 L-856.5,-472.1 L-854.5,-478.2 L-853.2,-484.5 L-852.5,-490.5 L-852.4,-495.2 L-852.6,-499.6 L-853.3,-537.5 L-859.4,-543.1 L-854.2,-548.6 L-859.5,-553.2 L-853.5,-560.3 L-860.0,-566.0 L-854.8,-571.5 L-860.0,-576.5 L-853.9,-583.0 L-860.2,-589.4 L-847.1,-603.8 L-844.8,-603.9 L-850.5,-818.4 L-802.4,-819.5 L-800.1,-818.3 L-797.5,-816.3 L-795.6,-814.6 L-794.8,-812.6 L-794.1,-810.2 L-793.9,-807.8 L-789.8,-474.5 L-787.9,-463.7 L-785.2,-456.4 L-781.0,-447.4 L-776.1,-438.6 L-771.0,-431.6 L-766.9,-427.3 L-762.5,-423.9 L-757.4,-420.9 L-752.1,-418.9 L-744.9,-416.8 L-736.0,-415.1 L-725.2,-413.1 L-712.6,-410.8 L-700.6,-408.2 L-687.3,-405.8 L-674.7,-403.1 L-670.7,-402.3 L-665.8,-401.3 L-661.0,-400.7 L-656.8,-400.6 L-652.0,-400.6 L-648.3,-400.8 L-644.6,-401.5 L-641.4,-402.3 L-638.0,-403.3 L-635.1,-404.6 L-629.3,-407.4 L-624.2,-410.4 L-619.1,-414.1 L-613.2,-419.8 L-607.7,-426.0 L-604.7,-431.3 L-602.0,-437.8 L-600.6,-443.1 L-599.8,-448.8 L-599.3,-454.2 L-599.3,-459.2 L-606.6,-816.4 L-596.2,-827.1 L-592.4,-827.5 L-590.9,-828.9 L-569.2,-829.5 L-567.3,-832.7 L-564.0,-831.8 L-558.5,-826.7 L-554.7,-821.4 L-550.9,-814.8 L-543.7,-415.6 L-543.0,-408.6 L-541.7,-394.7 L-540.4,-391.9 L-541.4,-391.2 L-539.6,-387.3 L-537.3,-382.7 L-535.3,-379.8 L-532.9,-376.3 L-529.6,-372.5 L-525.7,-368.5 L-521.0,-364.5 L-516.8,-361.4 L-512.2,-358.9 L-507.8,-356.7 L-503.1,-355.2 L-502.5,-356.6 L-436.3,-332.6 L-428.0,-329.5 L-424.2,-328.1 L-418.3,-326.0 L-414.0,-325.0 L-410.3,-324.5 L-406.9,-324.5 L-402.1,-324.9 L-396.9,-325.4 L-392.3,-326.4 L-387.6,-327.7 L-384.1,-329.1 L-380.4,-330.8 L-377.4,-332.7 L-373.6,-335.5 L-368.8,-339.7 L-364.4,-344.0 L-359.6,-350.0 L-356.2,-355.6 L-353.4,-361.8 L-351.4,-368.7 L-350.2,-375.7 L-349.5,-388.2 L-349.8,-413.7 L-357.1,-819.8 L-357.1,-824.3 L-356.3,-827.5 L-354.9,-830.1 L-352.0,-832.5 L-348.7,-834.2 L-345.0,-834.8 L-314.9,-835.8 L-311.3,-835.2 L-308.1,-833.8 L-305.8,-831.6 L-303.2,-827.8 L-301.7,-822.4 L-300.8,-815.1 L-293.3,-294.2 L-292.9,-291.1 L-292.3,-288.0 L-291.4,-284.8 L-290.3,-281.3 L-289.1,-277.8 L-287.7,-274.6 L-286.5,-271.9 L-285.2,-269.5 L-283.3,-266.5 L-281.2,-263.9 L-279.3,-261.5 L-276.4,-258.4 L-273.6,-255.7 L-270.5,-253.2 L-267.2,-250.7 L-258.0,-244.9 L-257.1,-246.0 L-249.0,-241.5 L-239.4,-236.3 L-233.9,-233.3 L-227.8,-229.7 L-221.5,-226.0 L-215.0,-222.0 L-207.7,-217.5 L-200.5,-213.0 L-193.3,-208.7 L-187.3,-205.0 L-180.6,-200.7 L-173.5,-196.1 L-166.7,-191.6 L-160.4,-187.3 L-161.1,-186.4 L-152.3,-180.3 L-143.2,-174.2 L-140.4,-172.5 L-137.3,-170.8 L-132.9,-168.7 L-128.8,-167.2 L-124.4,-166.0 L-120.5,-165.0 L-115.9,-164.3 L-110.8,-163.7 L-106.4,-163.7 L-102.7,-164.0 L-99.5,-164.7 L-95.4,-165.8 L-91.3,-167.1 L-87.5,-168.4 L-84.0,-170.1 L-80.4,-172.0 L-76.9,-174.2 L-73.3,-177.0 L-70.1,-179.9 L-67.0,-183.0 L-64.1,-186.2 L-61.1,-190.6 L-58.6,-195.0 L-56.2,-199.9 L-54.8,-203.7 L-53.7,-207.7 L-52.9,-212.0 L-52.5,-216.3 L-52.8,-221.2 L-112.1,-788.9 L-108.0,-789.3 L-111.3,-817.7 L-114.3,-817.5 L-116.7,-830.6 L-115.9,-833.3 L-113.4,-837.3 L-108.3,-841.2 L-101.6,-842.0 L-74.7,-842.9 L-70.2,-842.0 L-67.1,-840.5 L-63.8,-837.9 L-61.5,-835.5 L-59.9,-833.0 L5.1,-196.1 L6.6,-190.6 L9.4,-183.8 L11.8,-179.4 L14.4,-174.7 L17.8,-170.1 L20.6,-166.9 L23.7,-163.7 L27.1,-161.0 L30.1,-158.9 L34.3,-156.2 L38.0,-154.3 L42.9,-152.2 L47.5,-150.8 L52.7,-149.7 L56.7,-149.1 L60.2,-149.0 L64.3,-148.9 L205.5,-151.8 L210.1,-152.4 L214.5,-154.5 L217.7,-157.4 L219.9,-161.8 L220.7,-165.8 L220.5,-169.8 L149.0,-851.9 L86.0,-934.1 L83.2,-931.8 L28.4,-1008.3 L27.4,-1024.5 L25.7,-1027.9 L22.8,-1031.0 L19.1,-1036.2 L18.8,-1043.8 L12.3,-1046.3 L6.0,-1046.4 L-2.5,-1042.2 L7.1,-1024.2 L-5.0,-1018.4 L-14.1,-1026.8 L-21.9,-1031.6 L-27.2,-1033.4 L-40.2,-1033.9 L-46.8,-1047.3 L-5.3,-1064.3 L-7.3,-1067.7 L-16.1,-1079.5 L-17.5,-1078.8 L-326.4,-1483.3 L-331.1,-1550.0 L-328.6,-1550.6 L-340.5,-1672.9 L-345.1,-1684.2 L-350.1,-1696.9 L-353.9,-1706.7 L-358.5,-1719.2 L-373.5,-1761.3 L-379.6,-1758.6 L-388.5,-1792.7 L-387.0,-1793.0 L-418.1,-1877.3 L-421.5,-2024.7 L-417.9,-2024.7 L-417.4,-2037.6 L-415.6,-2050.3 L-414.9,-2055.0 L-416.2,-2058.8 L-412.0,-2078.9 L-373.7,-2146.7 L-393.8,-2158.9 L-378.9,-2183.6 L-359.5,-2172.2 L-357.8,-2174.8 L-351.7,-2171.7 L-345.1,-2169.1 L-337.5,-2166.7 L-331.8,-2165.5 L-326.4,-2165.3 L-320.0,-2166.4 L-313.7,-2168.5 L-307.5,-2170.9 L-304.6,-2174.0 L-303.5,-2178.1 L-302.0,-2183.0 L-301.7,-2185.0 L-301.8,-2187.5 L-303.2,-2191.4 L-305.8,-2195.1 L-308.8,-2197.2 L-313.2,-2201.4 L-317.0,-2205.4 L-322.6,-2209.0 L-324.9,-2214.7 L-327.6,-2220.4 L-331.9,-2227.1 L-336.8,-2232.9 L-345.8,-2239.3 L-389.4,-2261.9 L-415.2,-2274.7 L-439.3,-2287.7 L-462.2,-2300.4 L-477.0,-2310.0 L-482.7,-2311.5 L-489.0,-2309.6 L-492.5,-2305.3 L-499.6,-2287.6 L-543.7,-2307.4 L-517.3,-2349.1 L-511.5,-2351.8 L-504.4,-2353.2 L-496.1,-2351.4 L-330.4,-2254.5 L-321.4,-2251.8 L-312.0,-2249.5 L-298.7,-2249.2 L-285.2,-2251.6 L-276.6,-2255.1 L-267.2,-2262.7 L-261.7,-2268.0 L-255.8,-2276.3 L-255.9,-2277.4 L-256.3,-2278.4 L-257.2,-2279.2 L-310.8,-2312.3 L-312.1,-2312.7 L-313.5,-2312.8 L-314.9,-2312.7 L-320.0,-2310.5 L-321.9,-2310.3 L-324.0,-2310.5 L-327.1,-2311.0 L-329.5,-2311.7 L-332.9,-2313.4 L-336.2,-2315.3 L-409.9,-2360.3 L-444.6,-2384.7 L-447.9,-2385.2 L-451.2,-2385.1 L-455.1,-2385.0 L-457.7,-2385.4 L-459.9,-2386.4 L-462.5,-2388.4 L-465.4,-2390.7 L-467.4,-2393.5 L-468.6,-2396.3 L-468.8,-2398.4 L-468.5,-2401.1 L-468.0,-2403.4 L-456.2,-2423.2 L-456.2,-2424.1 L-457.1,-2424.8 L-467.9,-2432.4 L-470.0,-2435.5 L-468.8,-2437.4 L-465.3,-2436.9 L-461.5,-2435.8 L-439.3,-2422.1 L-313.5,-2341.8 L-310.9,-2340.3 L-309.1,-2338.4 L-307.9,-2336.2 L-306.6,-2331.6 L-305.7,-2328.0 L-305.2,-2324.9 L-248.4,-2290.8 L-246.4,-2289.9 L-244.0,-2289.7 L-241.2,-2290.1 L-239.2,-2290.8 L-237.5,-2291.6 L-176.4,-2390.5 L-150.8,-2428.1 L-126.9,-2455.0 L-114.8,-2448.3 L-107.0,-2460.9 L-148.5,-2485.7 L-139.7,-2500.1 L-98.2,-2475.1 L-88.9,-2490.3 L-96.4,-2498.7 L-88.8,-2507.4 L-80.6,-2498.0 L-78.6,-2499.5 L-76.3,-2501.1 L-73.1,-2502.9 L-69.8,-2504.5 L-65.7,-2506.0 L-61.8,-2507.1 L-57.6,-2507.8 L-53.4,-2508.1 L-49.4,-2508.0 L-45.5,-2507.4 L-41.8,-2506.5 L-38.7,-2505.6 L-36.0,-2504.4 L-32.2,-2502.6 L-28.7,-2500.4 L-25.7,-2498.3 L-22.7,-2495.6 L-20.0,-2493.0 L-17.0,-2489.1 L-14.9,-2485.6 L-12.8,-2481.1 L-11.4,-2476.6 L-10.2,-2470.4 L-9.8,-2465.0 L-9.9,-2461.9 L-10.3,-2458.7 L-11.4,-2453.9 L-14.2,-2447.3 L-16.0,-2443.0 L-18.5,-2437.9 L-8.1,-2432.7 L40.5,-2490.7 L-48.0,-2544.5 L-43.5,-2554.1 L-40.3,-2563.0 L-40.1,-2566.8 L-35.0,-2577.7 L-24.5,-2587.4 L-11.5,-2598.0 L4.0,-2607.9 L33.1,-2616.4 L83.3,-2621.4 L103.1,-2637.4 L107.2,-2638.1 L110.5,-2638.3 L115.2,-2636.5 L119.5,-2636.0 L147.4,-2619.1 L220.8,-2706.2 L-48.2,-2877.2 L-64.9,-2850.9 L-101.2,-2873.9 L-49.7,-2954.9 L-13.5,-2932.5 L-29.6,-2904.9 L244.1,-2732.4 L278.6,-2776.7 L303.0,-2805.7 L335.2,-2854.1 L353.0,-2878.5 L351.2,-2892.4 L351.7,-2892.8 L348.5,-2903.1 L346.4,-2909.5 L344.4,-2916.1 L342.0,-2921.8 L337.4,-2929.3 L332.8,-2936.6 L330.8,-2940.4 L329.3,-2944.2 L328.2,-2947.7 L327.8,-2950.8 L327.3,-2961.0 L209.1,-3069.5 L205.2,-3065.3 L201.9,-3068.1 L192.3,-3058.6 L186.0,-3067.0 L193.6,-3075.8 L186.0,-3085.5 L180.8,-3084.1 L175.4,-3083.9 L170.5,-3084.8 L166.2,-3086.6 L161.2,-3090.3 L155.0,-3096.4 L144.1,-3108.4 L140.8,-3113.5 L139.6,-3119.9 L140.4,-3127.5 L143.3,-3134.5 L145.8,-3139.3 L150.6,-3144.1 L155.9,-3147.7 L161.0,-3149.6 L164.8,-3150.2 L169.8,-3149.3 L174.9,-3147.5 L179.7,-3143.7 L190.8,-3133.7 L196.5,-3128.3 L201.7,-3122.6 L203.4,-3119.9 L204.6,-3117.0 L205.3,-3114.4 L205.8,-3110.8 L205.2,-3107.4 L204.2,-3104.2 L202.8,-3101.8 L202.4,-3100.7 L202.7,-3099.3 L203.5,-3097.9 L330.4,-2979.0 L334.8,-2976.0 L337.9,-2974.7 L342.3,-2975.7 L347.5,-2976.1 L354.1,-2973.3 L360.7,-2969.2 L373.6,-2961.9 L379.0,-2959.3 L383.9,-2964.1 L389.3,-2969.3 L392.9,-2973.4 L398.9,-2981.2 L402.3,-2985.9 L405.9,-2991.7 L408.2,-2996.8 L410.7,-3002.2 L413.0,-3007.9 L415.1,-3013.7 L416.3,-3018.6 L417.7,-3024.8 L418.3,-3028.5 L418.7,-3031.5 L419.4,-3036.8 L420.1,-3042.0 L420.4,-3045.4 L420.6,-3049.1 L420.6,-3053.4 L420.4,-3057.0 L419.7,-3062.0 L418.9,-3067.7 L418.1,-3073.0 L417.6,-3077.3 L417.0,-3080.5 L416.3,-3083.9 L415.5,-3087.3 L414.3,-3091.3 L412.9,-3095.3 L411.8,-3097.7 L410.6,-3100.1 L408.9,-3102.4 L406.6,-3105.7 L404.1,-3108.8 L401.4,-3111.4 L398.0,-3114.2 L394.5,-3116.4 L391.0,-3118.3 L387.8,-3119.5 L385.6,-3120.2 L383.1,-3120.5 L380.1,-3120.4 L377.3,-3119.8 L375.1,-3118.9 L373.0,-3117.4 L371.5,-3115.8 L370.3,-3114.3 L369.4,-3112.0 L368.9,-3109.5 L369.0,-3106.5 L369.2,-3103.0 L369.2,-3100.4 L369.0,-3097.8 L368.6,-3095.2 L368.1,-3092.9 L367.2,-3090.5 L365.8,-3087.9 L364.1,-3085.4 L362.4,-3083.1 L360.7,-3081.5 L357.3,-3078.8 L354.5,-3076.9 L350.1,-3075.6 L347.5,-3075.0 L344.5,-3074.6 L341.8,-3074.5 L338.2,-3074.7 L335.6,-3075.2 L332.0,-3076.0 L327.0,-3077.5 L322.8,-3079.1 L319.7,-3080.3 L316.4,-3082.1 L313.5,-3084.1 L310.3,-3086.6 L307.8,-3088.9 L305.7,-3091.0 L303.5,-3093.6 L301.7,-3096.0 L300.0,-3098.4 L298.5,-3101.1 L296.9,-3104.7 L295.5,-3108.0 L294.1,-3111.6 L293.2,-3114.4 L292.5,-3117.0 L292.0,-3119.7 L291.6,-3123.9 L291.3,-3127.6 L291.5,-3131.6 L292.4,-3136.9 L293.9,-3142.1 L295.8,-3147.5 L297.1,-3150.0 L298.4,-3151.5 L308.7,-3164.6 L311.1,-3167.3 L314.2,-3168.8 L317.5,-3170.0 L321.2,-3170.8 L325.3,-3171.3 L328.9,-3171.5 L332.5,-3171.4 L336.1,-3171.0 L340.2,-3169.8 L344.5,-3167.7 L348.2,-3165.4 L351.5,-3162.8 L361.9,-3153.2 L364.4,-3152.4 L365.8,-3152.1 L367.5,-3152.5 L368.6,-3152.9 L370.0,-3154.5 L370.6,-3156.1 L370.7,-3158.3 L370.8,-3160.3 L370.4,-3161.2 L349.4,-3182.0 L378.0,-3212.5 L376.4,-3216.1 L392.9,-3232.4 L424.7,-3200.6 L399.1,-3168.0 L398.9,-3166.1 L400.2,-3165.3 L401.8,-3165.7 L429.9,-3200.9 L438.1,-3210.8 L438.4,-3213.1 L437.7,-3215.1 L436.2,-3216.9 L414.2,-3237.7 L419.7,-3244.1 L414.1,-3248.8 L417.3,-3256.2 L474.3,-3313.5 L493.9,-3316.8 L500.0,-3317.7 L505.8,-3318.5 L508.5,-3319.2 L511.7,-3320.9 L515.5,-3323.0 L518.4,-3325.9 L521.2,-3329.4 L550.3,-3371.7 L550.9,-3372.8 L550.6,-3374.2 L550.2,-3375.2 L549.5,-3376.1 L546.0,-3378.3 L545.1,-3378.8 L544.3,-3378.7 L543.4,-3378.2 L541.5,-3376.8 L517.1,-3354.0 L507.6,-3347.2 L468.6,-3387.2 L473.1,-3401.4 L475.0,-3405.6 L481.1,-3416.8 L488.2,-3429.3 L492.5,-3434.1 L500.2,-3442.3 L508.4,-3451.3 L517.4,-3460.8 L525.1,-3467.4 L528.8,-3470.7 L533.7,-3474.3 L538.2,-3476.7 L544.6,-3479.6 L548.6,-3481.0 L552.6,-3482.2 L555.7,-3482.5 L560.1,-3482.2 L563.8,-3481.7 L568.0,-3480.5 L572.1,-3477.1 L574.6,-3473.6 L576.1,-3470.0 L576.7,-3464.6 L576.5,-3457.5 L575.6,-3449.5 L573.9,-3441.8 L563.6,-3418.8 L553.8,-3398.1 L557.2,-3392.6 L559.0,-3391.5 L560.9,-3391.5 L562.6,-3391.9 L563.9,-3392.7 L570.6,-3402.2 L579.2,-3406.5 L596.3,-3452.2 L597.5,-3454.5 L599.2,-3456.5 L600.9,-3457.4 L602.5,-3457.8 L604.8,-3457.8 L607.2,-3457.2 L619.7,-3453.7 L622.1,-3453.2 L624.9,-3453.1 L627.5,-3453.5 L629.6,-3454.4 L631.4,-3455.8 L633.2,-3458.1 L654.2,-3486.2 L655.2,-3488.3 L655.7,-3490.5 L655.7,-3492.6 L655.3,-3494.8 L654.5,-3496.4 L653.3,-3498.0 L651.9,-3499.3 L649.9,-3500.3 L648.0,-3500.8 L646.1,-3500.9 L644.5,-3500.6 L642.6,-3499.7 L641.2,-3498.7 L640.1,-3497.3 L634.6,-3488.4 L633.4,-3486.7 L632.0,-3485.1 L629.9,-3483.3 L628.0,-3482.2 L625.7,-3481.5 L622.9,-3480.9 L621.3,-3480.9 L619.1,-3481.2 L617.2,-3481.7 L615.6,-3482.4 L598.4,-3498.0 L596.4,-3500.4 L594.9,-3502.6 L593.5,-3505.3 L592.6,-3507.6 L592.0,-3510.0 L591.5,-3512.6 L591.2,-3515.8 L591.1,-3519.0 L591.4,-3521.7 L591.8,-3524.0 L592.3,-3526.0 L593.1,-3527.7 L624.4,-3577.4 L626.4,-3580.7 L627.6,-3582.4 L629.0,-3583.2 L631.3,-3584.2 L633.7,-3584.9 L636.0,-3585.3 L637.3,-3585.3 L638.6,-3585.1 L639.7,-3584.7 L641.3,-3583.9 L643.2,-3582.7 L646.4,-3580.1 L660.7,-3566.7 L663.1,-3563.3 L664.5,-3560.0 L665.8,-3556.1 L666.2,-3553.1 L666.4,-3549.9 L666.4,-3547.2 L666.1,-3544.5 L665.6,-3541.8 L665.0,-3540.0 L663.4,-3536.3 L657.7,-3525.7 L657.1,-3523.3 L657.1,-3520.4 L657.3,-3518.2 L658.1,-3516.5 L659.6,-3514.9 L662.0,-3513.2 L664.0,-3512.1 L666.3,-3511.6 L669.0,-3511.7 L671.2,-3512.2 L673.7,-3513.5 L675.9,-3515.5 L712.9,-3566.3 L701.6,-3576.5 L708.4,-3583.8 L718.5,-3574.1 L739.3,-3601.4 L770.8,-3643.5 L644.0,-3765.0 L616.5,-3736.1 L584.2,-3766.6 L615.4,-3800.2 L611.3,-3804.7 L617.8,-3810.7 L621.8,-3806.6 L643.5,-3830.2 L663.0,-3812.1 L665.3,-3797.1 L747.3,-3720.6 L763.3,-3714.4 L776.1,-3718.9 L800.4,-3709.2 L816.5,-3715.1 L864.4,-3773.6 L867.1,-3779.1 L867.9,-3786.5 L865.5,-3793.8 L862.3,-3799.0 L833.9,-3825.2 L834.3,-3832.4 L839.9,-3846.5 L851.1,-3867.4 L829.0,-3881.7 L837.4,-3884.9 L842.7,-3888.3 L848.0,-3894.3 L854.2,-3910.2 L865.6,-3939.2 L873.0,-3946.0 L802.8,-4014.0 L787.4,-4004.4 L783.8,-4003.5 L780.4,-4003.4 L776.0,-4003.9 L772.4,-4004.9 L768.9,-4007.0 L766.0,-4009.5 L729.7,-4044.5 L722.9,-4051.3 L719.9,-4054.9 L717.4,-4059.4 L716.2,-4063.5 L715.7,-4067.5 L715.8,-4071.3 L716.5,-4074.9 L717.4,-4077.8 L718.6,-4079.9 L721.2,-4083.6 L724.3,-4087.3 L740.6,-4104.2 L864.6,-3989.3 L856.1,-3979.7 L948.0,-3892.8 L1053.9,-4047.9 L986.7,-4110.7 L978.1,-4103.0 L852.6,-4221.5 L869.0,-4236.8 L941.1,-4169.2 L948.3,-4179.8 L952.3,-4185.1 L957.4,-4190.3 L963.3,-4196.8 L969.3,-4200.7 L978.8,-4208.7 L988.3,-4217.5 L1006.5,-4234.7 L1050.0,-4283.6 L1057.8,-4291.7 L1086.5,-4306.4 L1113.7,-4327.7 L1116.3,-4329.7 L1123.4,-4335.2 L1126.5,-4338.0 L1129.0,-4341.2 L1130.7,-4344.5 L1131.8,-4347.8 L1133.1,-4350.3 L1134.6,-4353.0 L1137.2,-4357.3 L1139.0,-4360.0 L1140.8,-4362.5 L1144.1,-4365.1 L1147.3,-4367.3 L1150.8,-4369.4 L1159.1,-4373.4 L1167.1,-4377.4 L1168.3,-4377.6 L1169.5,-4377.4 L1171.9,-4376.7 L1178.4,-4373.4 L1183.3,-4371.0 L1185.6,-4369.6 L1187.7,-4367.9 L1221.1,-4336.2 L1223.4,-4334.9 L1234.3,-4332.0 L1237.8,-4331.0 L1241.7,-4330.6 L1244.7,-4330.7 L1247.0,-4331.5 L1249.3,-4333.1 L1261.2,-4349.9 L1261.2,-4352.2 L1260.8,-4354.3 L1259.5,-4356.6 L1257.5,-4358.8 L1248.4,-4367.3 L1249.1,-4368.7 L1260.8,-4393.5 L1280.8,-4433.8 L1299.0,-4447.2 L1309.5,-4457.7 L1316.7,-4466.0 L1324.3,-4473.7 L1332.7,-4480.6 L1337.8,-4485.3 L1343.2,-4490.2 L1347.2,-4494.2 L1349.2,-4497.8 L1350.8,-4500.6 L1351.8,-4503.3 L1352.2,-4506.5 L1352.4,-4509.7 L1358.5,-4515.9 L1367.5,-4524.4 L1382.5,-4536.7 L1398.2,-4548.6 L1405.2,-4558.4 L1407.8,-4568.5 L1415.6,-4573.3 L1425.4,-4573.5 L1435.3,-4579.4 L1444.0,-4595.1 L1443.8,-4611.4 L1445.4,-4636.6 L1447.9,-4640.2 L1449.4,-4642.6 L1452.2,-4647.2 L1448.7,-4657.9 L1452.7,-4662.9 L1472.5,-4687.4 L1506.5,-4727.1 L1513.0,-4736.5 L1515.6,-4741.4 L1526.4,-4756.3 L1529.4,-4765.7 L1529.5,-4780.2 L1529.1,-4794.7 L1529.0,-4809.5 L1533.4,-4825.8 L1540.8,-4841.9 L1551.4,-4857.4 L1559.1,-4868.9 L1568.2,-4880.4 L1585.8,-4900.0 L1663.8,-4938.6 L1674.1,-4941.3 L1676.7,-4935.7 L1679.8,-4930.3 L1680.8,-4929.3 L1682.5,-4930.0 L1682.8,-4933.8 L1681.6,-4937.0 L1685.9,-4938.3 L1701.9,-4943.0 L1722.7,-4949.2 L1739.5,-4954.2 L1745.5,-4956.0 L1739.5,-4974.9 L1749.9,-4977.7 L1767.2,-4980.1 L1769.3,-4980.4 L1769.4,-4981.6 L1769.4,-4986.0 L1785.1,-4986.7 L1809.7,-4987.7 L1819.2,-4983.1 L1842.9,-4897.7 L1848.2,-4892.6 L1837.9,-4882.0 L1847.0,-4873.0 L1856.0,-4864.0 L1866.8,-4875.0 L2067.3,-4684.4 L2334.9,-4970.0 L2428.4,-4880.6 L2432.0,-4881.7 L2433.4,-4880.1 L2439.7,-4884.1 L2444.9,-4886.0 L2450.4,-4888.5 L2459.8,-4893.4 L2465.6,-4896.7 L2472.5,-4900.7 L2478.9,-4904.7 L2484.1,-4908.1 L2488.9,-4911.2 L2494.5,-4915.3 L2500.9,-4920.0 L2505.8,-4924.1 L2511.0,-4928.7 L2516.7,-4934.1 L2522.1,-4939.5 L2534.7,-4952.9 L2542.3,-4962.0 L2549.7,-4971.9 L2554.8,-4979.1 L2559.6,-4986.5 L2565.3,-4996.8 L2570.3,-5006.9 L2574.3,-5015.2 L2577.7,-5023.5 L2579.8,-5029.0 L2582.1,-5035.2 L2587.5,-5041.9 L2416.5,-5204.6 L2418.6,-5206.9 L2439.1,-5228.9 L2454.0,-5244.7 L2455.5,-5246.3 L2498.9,-5205.7 L2509.4,-5211.1 L2510.6,-5209.6 L2612.6,-5262.7 L2616.8,-5264.9 L2619.7,-5267.2 L2622.4,-5269.7 L2625.5,-5272.9 L2628.5,-5277.4 L2631.1,-5281.6 L2632.8,-5284.8 L2634.0,-5288.9 L2635.1,-5293.4 L2635.6,-5298.3 L2635.6,-5303.8 L2635.2,-5308.2 L2634.4,-5312.1 L2633.1,-5316.8 L2601.2,-5408.6 L2596.9,-5423.7 L2598.0,-5428.9 L2521.0,-5448.0 L2524.6,-5461.3 L2527.6,-5473.3 L2550.4,-5563.5 L2532.7,-5616.1 L2522.3,-5650.1 L2519.3,-5658.6 L2546.9,-5683.9 L2578.0,-5700.6 L2579.9,-5698.0 L2582.9,-5693.7 L2589.9,-5684.6 L2590.7,-5685.4 L2590.9,-5688.5 L2581.2,-5701.9 L2598.5,-5714.3 L2602.3,-5716.5 L2611.3,-5704.8 L2612.8,-5703.7 L2614.3,-5703.4 L2615.1,-5703.6 L2615.1,-5704.4 L2572.3,-5763.0 L2569.2,-5766.4 L2565.6,-5771.3 L2547.0,-5793.8 L2562.9,-5843.1 L2575.1,-5855.8 L2589.2,-5862.4 L2619.2,-5880.2 L2625.4,-5886.6 L2652.3,-5910.2 L2660.8,-5901.3 L2685.7,-5874.4 L2708.8,-5893.8 L2724.3,-5878.9 L2738.2,-5865.3 L2738.9,-5864.6 L2750.7,-5874.7 L2766.3,-5858.1 L2779.7,-5840.9 L2789.6,-5829.4 L2790.9,-5827.9 L2819.7,-5853.2 L2821.2,-5854.5 L2814.4,-5862.8 L2830.1,-5875.7 L2877.7,-5820.2 L2918.2,-5846.9 L2922.2,-5850.7 L2939.8,-5858.1 L2943.8,-5862.0 L2947.6,-5867.0 L2969.3,-5886.3 L2964.4,-5893.0 L2925.6,-5884.1 L2881.2,-5934.6 L2886.3,-5939.0 L2893.0,-5931.2 L2924.4,-5958.2 L2957.7,-5921.8 L2966.7,-5918.2 L2972.1,-5915.1 L2978.9,-5907.4 L2982.6,-5910.7 L2958.5,-5938.1 L2973.3,-5950.9 L3003.2,-5915.0 L3007.0,-5917.8 L3006.6,-5918.6 L3072.2,-5966.0 L3091.7,-5980.4 L3028.0,-6060.0 L3041.6,-6069.5 L3097.0,-6004.6 L3137.9,-5997.1 L3164.9,-6012.9 L3168.7,-6015.3 L3168.5,-6018.3 L3166.6,-6021.8 L3187.7,-6035.1 L3193.9,-6028.9 L3211.7,-6039.4 L3198.8,-6055.4 L3136.5,-6138.7 L3180.5,-6184.3 L3209.4,-6227.0 L3210.1,-6260.4 L3194.7,-6304.8 L3227.1,-6331.8 L3261.1,-6344.9 L3272.3,-6347.5 L3281.3,-6348.7 L3292.3,-6348.0 L3303.7,-6345.2 L3320.2,-6331.1 L3363.0,-6278.9 L3397.2,-6235.5 L3438.1,-6208.2 L3454.2,-6205.6 L3468.6,-6203.9 L3480.8,-6203.4 L3496.4,-6204.5 L3513.3,-6207.3 L3527.0,-6211.2 L3538.6,-6216.6 L3546.3,-6221.1 L3552.0,-6227.1 L3561.6,-6238.7 L3572.0,-6257.7 L3583.3,-6282.9 L3603.4,-6272.6 L3611.4,-6269.9 L3620.0,-6268.7 L3633.7,-6269.6 L3642.8,-6272.3 L3653.2,-6276.8 L3662.9,-6282.4 L3673.2,-6292.4 L3682.0,-6300.4 L3693.0,-6307.9 L3700.6,-6312.8 L3711.8,-6316.8 L3731.1,-6322.4 L3742.5,-6325.6 L3754.7,-6330.2 L3765.3,-6335.7 L3771.6,-6339.3 L3776.6,-6344.5 L3842.0,-6377.3 L3844.5,-6378.7 L3847.4,-6380.5 L3850.4,-6382.8 L3854.8,-6385.3 L3857.7,-6386.7 L3860.8,-6389.4 L3863.2,-6391.9 L3866.4,-6394.0 L3869.8,-6396.4 L3874.3,-6400.6 L3880.7,-6401.1 L3887.3,-6401.9 L3891.6,-6403.3 L3897.2,-6405.9 L3904.1,-6409.0 L3911.4,-6413.5 L3915.5,-6417.4 L3920.1,-6422.7 L3923.0,-6427.6 L3924.6,-6432.1 L3924.7,-6435.3 L3924.8,-6437.9 L3926.4,-6448.3 L3962.8,-6469.4 L4026.6,-6506.2 L4039.0,-6513.3 L4147.2,-6575.7 L4264.4,-6643.0 L4314.3,-6671.6 L4331.6,-6681.3 L4476.5,-6765.5 L4508.7,-6783.2 L4508.2,-6784.3 L4574.5,-6821.8 L4600.0,-6836.1 L4647.0,-6862.1 L4647.5,-6861.4 L4665.7,-6871.4 L4709.9,-6896.1 L4715.2,-6900.9 L4760.0,-6933.7 L4782.3,-6952.2 L4802.8,-6969.5 L4812.2,-6974.8 L4833.4,-6995.8 L4835.2,-6994.7 L4838.0,-6995.0 L4839.4,-6994.1 L4869.2,-7029.0 L4861.7,-7036.0 L4862.7,-7037.8 L4865.9,-7042.4 L4874.5,-7053.3 L4879.7,-7061.2 L4883.8,-7067.7 L4889.5,-7076.4 L4895.0,-7085.4 L4901.2,-7095.7 L4907.6,-7106.9 L4921.5,-7135.6 L4925.8,-7144.7 L4929.3,-7152.0 L4931.7,-7157.5 L4933.8,-7161.7 L4938.2,-7172.7 L4822.4,-7388.7 L4820.2,-7392.8 L4818.5,-7395.1 L4817.3,-7396.8 L4815.7,-7398.2 L4814.2,-7399.2 L4812.2,-7400.4 L4810.1,-7401.2 L4808.3,-7401.6 L4806.5,-7401.8 L4803.8,-7401.8 L4800.7,-7401.3 L4798.0,-7400.5 L4795.2,-7399.1 L4768.3,-7383.6 L4733.2,-7363.5 L4708.7,-7349.9 L4664.0,-7325.3 L4636.6,-7310.4 L4637.6,-7308.7 L4625.9,-7302.0 L4587.6,-7282.2 L4559.2,-7265.4 L4542.5,-7256.1 L4517.1,-7241.5 L4514.2,-7239.5 L4491.9,-7279.6 L4535.7,-7303.6 L4595.5,-7336.1 L4636.2,-7358.7 L4641.2,-7361.6 L4640.5,-7362.7 L4675.7,-7381.9 L4694.4,-7392.2 L4737.3,-7413.1 L4745.5,-7417.3 L4810.2,-7453.3 L4834.5,-7466.7 L4851.6,-7475.9 L4871.8,-7487.5 L4899.8,-7436.9 L4855.8,-7412.8 L4853.5,-7409.1 L4852.6,-7405.2 L4852.2,-7402.2 L4852.1,-7399.6 L4852.3,-7397.5 L4853.1,-7394.6 L4942.8,-7228.7 L4944.5,-7226.2 L4946.5,-7224.3 L4948.5,-7223.0 L4950.6,-7222.3 L4952.9,-7222.0 L4955.1,-7222.2 L4956.8,-7222.7 L4996.6,-7252.9 L5015.3,-7268.6 L5034.6,-7284.9 L5041.9,-7291.6 L5065.8,-7311.2 L5066.9,-7311.2 L5090.1,-7331.0 L5090.2,-7332.2 L5105.4,-7344.7 L5117.4,-7354.5 L5138.0,-7371.5 L5139.9,-7369.2 L5160.1,-7385.9 L5170.3,-7394.4 L5198.6,-7417.9 L5218.3,-7434.3 L5216.4,-7437.1 L5222.9,-7442.6 L5233.6,-7451.4 L5240.2,-7457.2 L5268.1,-7469.7 L5287.0,-7476.3 L5296.7,-7480.9 L5323.9,-7481.1 L5333.4,-7481.1 L5353.5,-7480.1 L5377.0,-7479.1 L5378.7,-7480.7 L5381.0,-7477.7 L5388.4,-7477.3 L5455.7,-7471.5 L5463.6,-7469.8 L5470.5,-7468.7 L5486.1,-7467.4 L5515.2,-7466.0 L5521.6,-7465.9 L5527.6,-7466.1 L5550.9,-7467.0 L5562.9,-7467.6 L5574.8,-7468.7 L5593.1,-7470.6 L5593.0,-7469.5 L5607.5,-7472.0 L5621.2,-7474.6 L5631.7,-7476.5 L5645.5,-7486.9 L5647.1,-7484.7 L5648.8,-7482.3 L5770.4,-7321.5 L6063.9,-7220.3 L6602.5,-7615.9 L6749.3,-7721.6 L6806.0,-7842.6 L6715.8,-7960.8 L6719.8,-7977.7 L6735.6,-7982.0 L6766.0,-7975.7 L6787.6,-7983.8 L6793.6,-7992.2 L6792.3,-7999.5 L6776.2,-8031.1 L6775.1,-8042.9 L6774.2,-8066.3 L6771.4,-8088.9 L6774.2,-8092.9 L6783.3,-8097.3 L6794.4,-8099.8 L6802.4,-8108.4 L6804.2,-8118.8 L6797.4,-8138.9 L6796.7,-8152.8 L6798.9,-8168.6 L6809.9,-8196.3 L6807.6,-8209.1 L6802.1,-8223.4 L6801.9,-8242.8 L6798.7,-8268.4 L6792.9,-8284.4 L6789.3,-8292.8 L6791.7,-8296.5 L6794.0,-8296.3 L6794.6,-8297.8 L6794.9,-8299.8 L6794.8,-8301.8 L6791.3,-8302.2 L6789.1,-8305.3 L6789.5,-8309.0 L6786.5,-8309.8 L6782.8,-8309.9 L6782.3,-8309.0 L6774.7,-8318.0 L6773.1,-8320.8 L6771.8,-8324.7 L6770.9,-8328.5 L6770.2,-8332.5 L6769.9,-8336.5 L6769.7,-8340.1 L6769.7,-8343.8 L6770.0,-8345.8 L6771.6,-8350.8 L6773.4,-8354.8 L6775.7,-8358.7 L6779.1,-8363.6 L6782.6,-8368.3 L6785.9,-8371.7 L6790.0,-8374.8 L6790.8,-8374.0 L6825.9,-8400.8 L6831.0,-8404.7 L6830.0,-8406.2 L6830.0,-8408.8 L6838.7,-8415.6 L6840.9,-8415.5 L6843.0,-8414.0 L6846.7,-8416.8 L6882.7,-8444.1 L6882.3,-8445.0 L6886.5,-8448.1 L6891.5,-8451.2 L6895.0,-8452.8 L6900.0,-8454.7 L6904.3,-8455.9 L6908.6,-8456.5 L6913.3,-8456.9 L6916.1,-8456.7 L6920.0,-8456.1 L6923.8,-8454.8 L6926.6,-8453.4 L6929.3,-8451.8 L6931.3,-8450.3 L6933.0,-8448.7 L6935.5,-8446.3 L6936.6,-8445.9 L6938.4,-8445.9 L6940.2,-8446.2 L6945.7,-8450.1 L6945.7,-8451.2 L6946.3,-8452.0 L6946.9,-8453.1 L6946.8,-8454.4 L6946.5,-8455.5 L6945.7,-8456.5 L6941.8,-8460.4 L6938.7,-8462.9 L6935.1,-8464.9 L6929.2,-8467.5 L6924.1,-8469.5 L6933.0,-8474.1 L6943.9,-8481.7 L6957.4,-8483.4 L6970.9,-8482.5 L6979.7,-8486.0 L6987.4,-8497.0 L7016.4,-8548.9 L7028.2,-8570.3 L7037.5,-8593.1 L7039.1,-8597.9 L7052.9,-8640.2 L7055.1,-8644.3 L7057.7,-8648.4 L7090.1,-8688.5 L7097.0,-8695.7 L7102.1,-8700.1 L7174.7,-8762.3 L7178.7,-8765.0 L7191.1,-8771.8 L7206.0,-8780.2 L7252.4,-8804.5 L7353.5,-8858.8 L7355.9,-8856.9 L7357.8,-8856.2 L7359.5,-8855.7 L7361.3,-8856.0 L7363.2,-8856.4 L7368.6,-8857.5 L7374.9,-8858.9 L7380.6,-8860.2 L7386.5,-8861.3 L7389.7,-8862.0 L7394.1,-8863.3 L7399.1,-8865.4 L7411.2,-8872.0 L7415.6,-8874.4 L7417.9,-8875.8 L7420.2,-8876.8 L7429.6,-8880.8 L7439.9,-8884.8 L7452.9,-8890.4 L7468.2,-8896.7 L7468.8,-8897.0 L7470.1,-8897.1 L7471.8,-8897.6 L7474.2,-8899.4 L7476.9,-8900.4 L7479.9,-8901.9 L7485.5,-8905.1 L7487.5,-8907.1 L7490.8,-8909.2 L7490.5,-8909.8 L7491.9,-8911.5 L7493.7,-8913.4 L7496.7,-8914.9 L7499.2,-8915.9 L7501.9,-8916.9 L7504.4,-8918.2 L7509.3,-8921.3 L7510.7,-8922.7 L7512.1,-8924.9 L7512.7,-8926.5 L7512.9,-8928.1 L7512.7,-8929.6 L7513.0,-8931.1 L7499.0,-8948.0 L7543.1,-8973.9 L7564.0,-8985.0 L7568.1,-8986.3 L7574.5,-8985.1 L7581.6,-8975.2 L7584.8,-8972.4 L7587.7,-8971.0 L7590.4,-8970.4 L7592.9,-8970.5 L7630.7,-8986.1 L7641.0,-8991.1 L7650.6,-8996.4 L7666.1,-9004.6 L7669.3,-9005.7 L7884.1,-9095.0 L7951.3,-9127.3 L8251.8,-9271.6 L15264.9,-9329.6 L15264.9,706.0 L277.2,706.0 L277.2,279.5 Z" fill="#add7e1" stroke="none"><title>Biscayne Bay</title></path><path d="M67.9,187.0 L99.5,207.6 L103.3,201.7 L116.4,210.2 L97.8,239.0 L86.7,231.7 L83.9,236.2 L87.2,238.4 L76.2,255.3 L57.8,243.3 L62.6,235.7 L50.6,227.8 L53.4,223.5 L44.9,218.0 L48.0,213.2 L45.4,211.5 L48.0,207.5 L44.0,204.9 L46.4,201.2 L40.3,197.2 L56.8,171.5 L71.6,181.2 L67.9,187.0 Z" fill="#d6d2c9" stroke="#bab6ad" stroke-width="0.4"></path><path d="M137.9,267.0 L154.4,241.0 L164.5,247.4 L148.1,273.4 L137.9,267.0 Z" fill="#d6d2c9" stroke="#bab6ad" stroke-width="0.4"></path><path d="M107.4,253.0 L128.2,267.8 L144.6,244.7 L120.7,227.7 L104.3,250.8 L107.4,253.0 Z" fill="#d6d2c9" stroke="#bab6ad" stroke-width="0.4"></path><path d="M154.7,328.6 L155.6,332.4 L159.6,335.1 L204.5,330.6 L207.1,327.9 L207.3,325.6 L206.2,322.2 L203.5,319.0 L191.5,320.6 L190.5,312.7 L195.3,311.5 L197.1,307.1 L196.7,302.8 L194.1,299.1 L189.9,297.6 L189.5,291.9 L189.2,290.5 L189.0,288.6 L195.6,286.9 L203.0,280.4 L202.1,275.8 L200.4,269.4 L197.4,266.5 L199.0,263.0 L184.5,251.1 L158.0,285.6 L159.4,288.4 L164.9,290.2 L167.1,289.2 L169.4,287.0 L173.1,282.6 L175.0,299.5 L172.6,300.5 L169.5,303.5 L168.6,306.9 L168.7,309.3 L170.3,312.3 L173.0,313.5 L177.4,313.5 L176.8,320.0 L161.8,321.6 L156.8,323.8 L155.0,326.1 L154.7,328.6 Z" fill="#d6d2c9" stroke="#bab6ad" stroke-width="0.4"></path><path d="M-46.8,201.8 L-12.7,155.0 L-8.5,149.5 L-5.0,146.5 L0.5,145.3 L5.3,147.2 L9.8,151.8 L11.0,156.2 L11.0,161.7 L9.8,166.0 L6.5,168.5 L16.5,176.7 L19.5,173.0 L31.2,181.3 L14.7,207.8 L2.5,202.0 L5.7,197.5 L-16.0,179.2 L-36.8,208.0 L-46.8,201.8 Z" fill="#d6d2c9" stroke="#bab6ad" stroke-width="0.4"></path><path d="M-267.6,-179.8 L671.4,526.2" fill="none" stroke="#6fb5c7" stroke-width="1.7" stroke-dasharray="5 7" opacity="0.34" stroke-linecap="round" stroke-linejoin="round"><title>Coral Gables Waterway</title></path><path d="M346.5,1028.4 L277.2,279.5 L-267.0,-122.2" fill="none" stroke="#79bdd0" stroke-width="1.4" stroke-linecap="round" stroke-linejoin="round"></path><path d="M-54.1,273.0 L-45.1,272.9 L-35.3,272.1 L-15.0,270.2 L-4.2,269.5 L2.3,269.6 L9.8,270.4 L19.1,272.3 L25.1,274.4 L30.9,277.3 L36.4,280.4 L41.2,283.7 L46.9,288.5 L52.0,293.6 L55.6,299.1 L59.3,306.0" fill="none" stroke="#cec8bb" stroke-width="4.8" stroke-linecap="round" stroke-linejoin="round"/><path d="M-54.1,273.0 L-45.1,272.9 L-35.3,272.1 L-15.0,270.2 L-4.2,269.5 L2.3,269.6 L9.8,270.4 L19.1,272.3 L25.1,274.4 L30.9,277.3 L36.4,280.4 L41.2,283.7 L46.9,288.5 L52.0,293.6 L55.6,299.1 L59.3,306.0" fill="none" stroke="#ffffff" stroke-width="3.7" stroke-linecap="round" stroke-linejoin="round"><title>Tahiti Beach Island Road</title></path><text x="67.7" y="215.6" text-anchor="middle" font-family="Arial, sans-serif" font-size="6.5" textLength="18.0" lengthAdjust="spacing" font-weight="500" paint-order="stroke" stroke="#f3f5ee" stroke-width="1.55" stroke-linejoin="round" fill="#6f777a">18</text><text x="153.9" y="244.4" text-anchor="middle" font-family="Arial, sans-serif" font-size="6.5" textLength="18.0" lengthAdjust="spacing" font-weight="500" paint-order="stroke" stroke="#f3f5ee" stroke-width="1.55" stroke-linejoin="round" fill="#6f777a">17</text></svg>