<svg xmlns="http://www.w3.org/2000/svg" width="256" height="256" viewBox="0 0 256 256"><rect width="256" height="256" fill="#f1efe7"/><path d="M-54.9,119.3 L28.6,119.7 L28.6,124.9 L36.8,124.9 L36.7,146.0 L29.8,146.0 L29.7,154.3 L-54.4,154.0 L-54.4,148.3 L-61.2,148.2 L-61.1,126.0 L-54.9,126.0 L-54.9,119.3 Z" fill="#d6d2c9" stroke="#bab6ad" stroke-width="0.4"></path><path d="M-69.0,29.6 L31.3,26.9 L32.2,60.0 L-68.0,62.7 L-69.0,29.6 Z" fill="#d6d2c9" stroke="#bab6ad" stroke-width="0.4"></path><path d="M56.8,2.9 L51.7,3.1 L-83.7,7.9" fill="none" stroke="#cf828d" stroke-width="1.5" stroke-dasharray="1.6 3.0" opacity="0.62" stroke-linecap="round" stroke-linejoin="round"></path><path d="M-275.0,184.1 L835.7,144.6" fill="none" stroke="#cf828d" stroke-width="1.5" stroke-dasharray="1.6 3.0" opacity="0.62" stroke-linecap="round" stroke-linejoin="round"></path><path d="M-60.7,95.2 L-14.6,93.8 L38.4,93.1 L44.7,92.3 L48.1,90.3 L51.0,87.9 L53.0,84.2 L53.9,80.3 L54.7,75.8 L52.5,15.8" fill="none" stroke="#cec8bb" stroke-width="3.5" stroke-linecap="round" stroke-linejoin="round"/><path d="M-60.7,95.2 L-14.6,93.8 L38.4,93.1 L44.7,92.3 L48.1,90.3 L51.0,87.9 L53.0,84.2 L53.9,80.3 L54.7,75.8 L52.5,15.8" fill="none" stroke="#ffffff" stroke-width="2.5" stroke-linecap="round" stroke-linejoin="round"></path><path d="M52.5,15.8 L51.7,3.1 L51.0,-9.0" fill="none" stroke="#cec8bb" stroke-width="3.5" stroke-linecap="round" stroke-linejoin="round"/><path d="M52.5,15.8 L51.7,3.1 L51.0,-9.0" fill="none" stroke="#ffffff" stroke-width="2.5" stroke-linecap="round" stroke-linejoin="round"></path><path d="M51.0,87.9 L54.6,104.5 L56.3,156.1" fill="none" stroke="#cec8bb" stroke-width="3.5" stroke-linecap="round" stroke-linejoin="round"/><path d="M51.0,87.9 L54.6,104.5 L56.3,156.1" fill="none" stroke="#ffffff" stroke-width="2.5" stroke-linecap="round" stroke-linejoin="round"></path><path d="M63.9,-18.0 L59.1,-12.1 L51.0,-9.0 L-84.8,-4.3" fill="none" stroke="#cec8bb" stroke-width="4.8" stroke-linecap="round" stroke-linejoin="round"/><path d="M63.9,-18.0 L59.1,-12.1 L51.0,-9.0 L-84.8,-4.3" fill="none" stroke="#ffffff" stroke-width="3.7" stroke-linecap="round" stroke-linejoin="round"><title>Northwest 42nd Street</title></path><path d="M316.6,171.8 L-276.7,194.8" fill="none" stroke="#cec8bb" stroke-width="4.8" stroke-linecap="round" stroke-linejoin="round"/><path d="M316.6,171.8 L-276.7,194.8" fill="none" stroke="#ffffff" stroke-width="3.7" stroke-linecap="round" stroke-linejoin="round"><title>Northwest 41st Street</title></path><path d="M-53.7,261.9 L48.7,257.1 L222.2,254.0" fill="none" stroke="#d87a99" stroke-width="11.0" stroke-linecap="round" stroke-linejoin="round"/><path d="M-53.7,261.9 L48.7,257.1 L222.2,254.0" fill="none" stroke="#e88fa8" stroke-width="9.2" stroke-linecap="round" stroke-linejoin="round"><title>Airport Expressway</title></path><path d="M-53.7,261.9 L48.7,257.1 L222.2,254.0" fill="none" stroke="#fff8ef" stroke-width="2.0" stroke-dasharray="5.5 6.5" opacity="0.82" stroke-linecap="round" stroke-linejoin="round"/><path d="M453.5,215.5 L232.7,220.3 L47.1,225.1 L-48.9,229.9" fill="none" stroke="#d87a99" stroke-width="11.0" stroke-linecap="round" stroke-linejoin="round"/><path d="M453.5,215.5 L232.7,220.3 L47.1,225.1 L-48.9,229.9" fill="none" stroke="#e88fa8" stroke-width="9.2" stroke-linecap="round" stroke-linejoin="round"><title>Airport Expressway</title></path><path d="M453.5,215.5 L232.7,220.3 L47.1,225.1 L-48.9,229.9" fill="none" stroke="#fff8ef" stroke-width="2.0" stroke-dasharray="5.5 6.5" opacity="0.82" stroke-linecap="round" stroke-linejoin="round"/><path d="M222.2,254.0 L567.6,246.7" fill="none" stroke="#d87a99" stroke-width="11.0" stroke-linecap="round" stroke-linejoin="round"/><path d="M222.2,254.0 L567.6,246.7" fill="none" stroke="#e88fa8" stroke-width="9.2" stroke-linecap="round" stroke-linejoin="round"><title>Airport Expressway</title></path><path d="M222.2,254.0 L567.6,246.7" fill="none" stroke="#fff8ef" stroke-width="2.0" stroke-dasharray="5.5 6.5" opacity="0.82" stroke-linecap="round" stroke-linejoin="round"/><path d="M1080.8,158.7 L-110.5,199.1" fill="none" stroke="#fbf8ef" stroke-width="7.2" stroke-linecap="round" stroke-linejoin="round"/><path d="M1080.8,158.7 L-110.5,199.1" fill="none" stroke="#5a5796" stroke-width="5.0" stroke-linecap="round" stroke-linejoin="round"><title>Metrorail</title></path><path d="M276.0,190.1 L275.7,181.8" fill="none" stroke="#3f494e" stroke-width="0.9" stroke-linecap="round"/><path d="M266.9,190.4 L266.6,182.1" fill="none" stroke="#3f494e" stroke-width="0.9" stroke-linecap="round"/><path d="M257.8,190.7 L257.6,182.4" fill="none" stroke="#3f494e" stroke-width="0.9" stroke-linecap="round"/><path d="M248.7,191.0 L248.5,182.8" fill="none" stroke="#3f494e" stroke-width="0.9" stroke-linecap="round"/><path d="M239.6,191.3 L239.4,183.1" fill="none" stroke="#3f494e" stroke-width="0.9" stroke-linecap="round"/><path d="M230.5,191.6 L230.3,183.4" fill="none" stroke="#3f494e" stroke-width="0.9" stroke-linecap="round"/><path d="M221.5,192.0 L221.2,183.7" fill="none" stroke="#3f494e" stroke-width="0.9" stroke-linecap="round"/><path d="M212.4,192.3 L212.1,184.0" fill="none" stroke="#3f494e" stroke-width="0.9" stroke-linecap="round"/><path d="M203.3,192.6 L203.0,184.3" fill="none" stroke="#3f494e" stroke-width="0.9" stroke-linecap="round"/><path d="M194.2,192.9 L193.9,184.6" fill="none" stroke="#3f494e" stroke-width="0.9" stroke-linecap="round"/><path d="M185.1,193.2 L184.8,184.9" fill="none" stroke="#3f494e" stroke-width="0.9" stroke-linecap="round"/><path d="M176.0,193.5 L175.7,185.2" fill="none" stroke="#3f494e" stroke-width="0.9" stroke-linecap="round"/><path d="M166.9,193.8 L166.6,185.5" fill="none" stroke="#3f494e" stroke-width="0.9" stroke-linecap="round"/><path d="M157.8,194.1 L157.5,185.8" fill="none" stroke="#3f494e" stroke-width="0.9" stroke-linecap="round"/><path d="M148.7,194.4 L148.4,186.1" fill="none" stroke="#3f494e" stroke-width="0.9" stroke-linecap="round"/><path d="M139.6,194.7 L139.3,186.5" fill="none" stroke="#3f494e" stroke-width="0.9" stroke-linecap="round"/><path d="M130.5,195.0 L130.2,186.8" fill="none" stroke="#3f494e" stroke-width="0.9" stroke-linecap="round"/><path d="M121.4,195.3 L121.1,187.1" fill="none" stroke="#3f494e" stroke-width="0.9" stroke-linecap="round"/><path d="M112.3,195.7 L112.0,187.4" fill="none" stroke="#3f494e" stroke-width="0.9" stroke-linecap="round"/><path d="M103.2,196.0 L102.9,187.7" fill="none" stroke="#3f494e" stroke-width="0.9" stroke-linecap="round"/><path d="M94.1,196.3 L93.8,188.0" fill="none" stroke="#3f494e" stroke-width="0.9" stroke-linecap="round"/><path d="M85.0,196.6 L84.8,188.3" fill="none" stroke="#3f494e" stroke-width="0.9" stroke-linecap="round"/><path d="M75.9,196.9 L75.7,188.6" fill="none" stroke="#3f494e" stroke-width="0.9" stroke-linecap="round"/><path d="M66.8,197.2 L66.6,188.9" fill="none" stroke="#3f494e" stroke-width="0.9" stroke-linecap="round"/><path d="M57.7,197.5 L57.5,189.2" fill="none" stroke="#3f494e" stroke-width="0.9" stroke-linecap="round"/><path d="M48.7,197.8 L48.4,189.5" fill="none" stroke="#3f494e" stroke-width="0.9" stroke-linecap="round"/><path d="M39.6,198.1 L39.3,189.8" fill="none" stroke="#3f494e" stroke-width="0.9" stroke-linecap="round"/><path d="M30.5,198.4 L30.2,190.2" fill="none" stroke="#3f494e" stroke-width="0.9" stroke-linecap="round"/><path d="M21.4,198.7 L21.1,190.5" fill="none" stroke="#3f494e" stroke-width="0.9" stroke-linecap="round"/><path d="M12.3,199.0 L12.0,190.8" fill="none" stroke="#3f494e" stroke-width="0.9" stroke-linecap="round"/><path d="M3.2,199.4 L2.9,191.1" fill="none" stroke="#3f494e" stroke-width="0.9" stroke-linecap="round"/><path d="M-5.9,199.7 L-6.2,191.4" fill="none" stroke="#3f494e" stroke-width="0.9" stroke-linecap="round"/><path d="M-15.0,200.0 L-15.3,191.7" fill="none" stroke="#3f494e" stroke-width="0.9" stroke-linecap="round"/><path d="M1080.8,158.7 L-110.5,199.1" fill="none" stroke="#ffffff" stroke-width="3.1" stroke-linecap="round" stroke-linejoin="round"/><path d="M-109.6,207.7 L1079.8,167.4" fill="none" stroke="#fbf8ef" stroke-width="7.2" stroke-linecap="round" stroke-linejoin="round"/><path d="M-109.6,207.7 L1079.8,167.4" fill="none" stroke="#5a5796" stroke-width="5.0" stroke-linecap="round" stroke-linejoin="round"><title>Metrorail</title></path><path d="M-14.3,200.3 L-14.0,208.6" fill="none" stroke="#3f494e" stroke-width="0.9" stroke-linecap="round"/><path d="M-5.2,200.0 L-4.9,208.3" fill="none" stroke="#3f494e" stroke-width="0.9" stroke-linecap="round"/><path d="M3.9,199.7 L4.2,207.9" fill="none" stroke="#3f494e" stroke-width="0.9" stroke-linecap="round"/><path d="M13.0,199.4 L13.3,207.6" fill="none" stroke="#3f494e" stroke-width="0.9" stroke-linecap="round"/><path d="M22.1,199.1 L22.4,207.3" fill="none" stroke="#3f494e" stroke-width="0.9" stroke-linecap="round"/><path d="M31.2,198.7 L31.5,207.0" fill="none" stroke="#3f494e" stroke-width="0.9" stroke-linecap="round"/><path d="M40.3,198.4 L40.6,206.7" fill="none" stroke="#3f494e" stroke-width="0.9" stroke-linecap="round"/><path d="M49.4,198.1 L49.7,206.4" fill="none" stroke="#3f494e" stroke-width="0.9" stroke-linecap="round"/><path d="M58.5,197.8 L58.8,206.1" fill="none" stroke="#3f494e" stroke-width="0.9" stroke-linecap="round"/><path d="M67.6,197.5 L67.9,205.8" fill="none" stroke="#3f494e" stroke-width="0.9" stroke-linecap="round"/><path d="M76.7,197.2 L77.0,205.5" fill="none" stroke="#3f494e" stroke-width="0.9" stroke-linecap="round"/><path d="M85.8,196.9 L86.0,205.2" fill="none" stroke="#3f494e" stroke-width="0.9" stroke-linecap="round"/><path d="M94.9,196.6 L95.1,204.9" fill="none" stroke="#3f494e" stroke-width="0.9" stroke-linecap="round"/><path d="M104.0,196.3 L104.2,204.6" fill="none" stroke="#3f494e" stroke-width="0.9" stroke-linecap="round"/><path d="M113.1,196.0 L113.3,204.2" fill="none" stroke="#3f494e" stroke-width="0.9" stroke-linecap="round"/><path d="M122.1,195.7 L122.4,203.9" fill="none" stroke="#3f494e" stroke-width="0.9" stroke-linecap="round"/><path d="M131.2,195.4 L131.5,203.6" fill="none" stroke="#3f494e" stroke-width="0.9" stroke-linecap="round"/><path d="M140.3,195.0 L140.6,203.3" fill="none" stroke="#3f494e" stroke-width="0.9" stroke-linecap="round"/><path d="M149.4,194.7 L149.7,203.0" fill="none" stroke="#3f494e" stroke-width="0.9" stroke-linecap="round"/><path d="M158.5,194.4 L158.8,202.7" fill="none" stroke="#3f494e" stroke-width="0.9" stroke-linecap="round"/><path d="M167.6,194.1 L167.9,202.4" fill="none" stroke="#3f494e" stroke-width="0.9" stroke-linecap="round"/><path d="M176.7,193.8 L177.0,202.1" fill="none" stroke="#3f494e" stroke-width="0.9" stroke-linecap="round"/><path d="M185.8,193.5 L186.1,201.8" fill="none" stroke="#3f494e" stroke-width="0.9" stroke-linecap="round"/><path d="M194.9,193.2 L195.2,201.5" fill="none" stroke="#3f494e" stroke-width="0.9" stroke-linecap="round"/><path d="M204.0,192.9 L204.3,201.2" fill="none" stroke="#3f494e" stroke-width="0.9" stroke-linecap="round"/><path d="M213.1,192.6 L213.4,200.9" fill="none" stroke="#3f494e" stroke-width="0.9" stroke-linecap="round"/><path d="M222.2,192.3 L222.5,200.5" fill="none" stroke="#3f494e" stroke-width="0.9" stroke-linecap="round"/><path d="M231.3,192.0 L231.6,200.2" fill="none" stroke="#3f494e" stroke-width="0.9" stroke-linecap="round"/><path d="M240.4,191.7 L240.7,199.9" fill="none" stroke="#3f494e" stroke-width="0.9" stroke-linecap="round"/><path d="M249.5,191.3 L249.8,199.6" fill="none" stroke="#3f494e" stroke-width="0.9" stroke-linecap="round"/><path d="M258.6,191.0 L258.9,199.3" fill="none" stroke="#3f494e" stroke-width="0.9" stroke-linecap="round"/><path d="M267.7,190.7 L267.9,199.0" fill="none" stroke="#3f494e" stroke-width="0.9" stroke-linecap="round"/><path d="M-109.6,207.7 L1079.8,167.4" fill="none" stroke="#ffffff" stroke-width="3.1" stroke-linecap="round" stroke-linejoin="round"/><g transform="translate(139.9 222.7) rotate(178.5)"><path d="M -3.6 -3.2 L 4.4 0 L -3.6 3.2 Z" fill="#58656d" opacity="0.46"/></g><g transform="translate(128.0 179.1) rotate(177.8)"><path d="M -3.6 -3.2 L 4.4 0 L -3.6 3.2 Z" fill="#58656d" opacity="0.46"/></g><g><rect x="119.4" y="215.2" width="41.0" height="15.0" rx="3" fill="#f7fbff" stroke="#4f78a7" stroke-width="1"/><text x="139.9" y="223.1" text-anchor="middle" dominant-baseline="central" font-family="Arial, sans-serif" font-size="8.2" font-weight="700" fill="#315d8b">SR 112</text></g><text x="128.0" y="179.1" transform="rotate(-2.2 128.0 179.1)" text-anchor="middle" dominant-baseline="central" font-family="Arial, sans-serif" font-size="8.3" textLength="111.6" lengthAdjust="spacing" font-weight="650" paint-order="stroke" stroke="#fffaf0" stroke-width="2.05" stroke-linejoin="round" fill="#695f54">Northwest 41st Street</text></svg>