<svg xmlns="http://www.w3.org/2000/svg" width="256" height="256" viewBox="0 0 256 256"><rect width="256" height="256" fill="#f1efe7"/><path d="M106.1,271.2 L89.6,271.4 L89.1,240.0 L105.6,239.8 L106.1,271.2 Z" fill="#d6d2c9" stroke="#bab6ad" stroke-width="0.4"></path><path d="M45.9,273.6 L28.6,274.0 L27.7,237.5 L42.8,237.2 L42.6,228.1 L51.8,227.9 L52.5,257.4 L45.5,257.5 L45.9,273.6 Z" fill="#d6d2c9" stroke="#bab6ad" stroke-width="0.4"></path><path d="M200.6,-46.3 L201.9,4.6 L190.5,4.9 L190.2,-3.9 L177.5,-3.6 L177.0,-22.7 L185.9,-22.9 L185.3,-46.0 L200.6,-46.3 Z" fill="#d6d2c9" stroke="#bab6ad" stroke-width="0.4"></path><path d="M167.7,142.2 L167.8,145.6 L177.3,145.5 L178.4,195.9 L170.5,195.3 L169.0,202.7 L157.8,203.3 L158.3,142.4 L167.7,142.2 Z" fill="#d6d2c9" stroke="#bab6ad" stroke-width="0.4"></path><path d="M221.1,13.4 L205.7,13.8 L205.5,6.7 L211.5,6.5 L211.4,2.1 L220.8,1.9 L221.1,13.4 Z" fill="#d6d2c9" stroke="#bab6ad" stroke-width="0.4"></path><path d="M175.1,15.4 L158.5,15.9 L157.9,-1.9 L174.5,-2.5 L175.1,15.4 Z" fill="#d6d2c9" stroke="#bab6ad" stroke-width="0.4"></path><path d="M203.0,245.0 L203.8,270.8 L199.2,270.9 L194.5,271.0 L194.5,268.8 L187.5,269.0 L186.3,228.5 L205.5,227.9 L205.8,236.4 L206.0,244.9 L203.0,245.0 Z" fill="#d6d2c9" stroke="#bab6ad" stroke-width="0.4"></path><path d="M249.9,77.5 L240.7,77.7 L240.3,58.2 L252.1,57.9 L252.0,52.1 L255.3,52.1 L258.6,52.0 L259.1,77.3 L249.9,77.5 Z" fill="#d6d2c9" stroke="#bab6ad" stroke-width="0.4"></path><path d="M67.6,60.0 L67.7,63.5 L70.2,63.4 L70.8,84.1 L53.4,84.6 L52.7,63.9 L55.1,63.8 L55.0,60.3 L67.6,60.0 Z" fill="#d6d2c9" stroke="#bab6ad" stroke-width="0.4"></path><path d="M229.9,192.7 L230.2,202.1 L217.0,202.5 L216.9,199.0 L213.5,199.1 L213.2,189.5 L220.2,189.2 L219.9,178.3 L232.0,177.8 L232.5,192.6 L229.9,192.7 Z" fill="#d6d2c9" stroke="#bab6ad" stroke-width="0.4"></path><path d="M52.1,183.1 L51.1,203.8 L49.8,203.8 L49.6,208.8 L36.1,208.1 L37.2,186.4 L42.0,186.6 L42.2,182.6 L52.1,183.1 Z" fill="#d6d2c9" stroke="#bab6ad" stroke-width="0.4"></path><path d="M70.0,233.6 L70.1,238.1 L74.8,237.9 L74.9,243.3 L78.2,243.2 L78.9,270.7 L61.2,271.2 L60.2,233.9 L70.0,233.6 Z" fill="#d6d2c9" stroke="#bab6ad" stroke-width="0.4"></path><path d="M66.0,215.3 L54.4,215.6 L54.1,206.0 L65.7,205.6 L66.0,215.3 Z" fill="#d6d2c9" stroke="#bab6ad" stroke-width="0.4"></path><path d="M13.5,146.2 L13.6,149.7 L20.2,149.6 L20.5,171.0 L19.5,171.0 L19.6,181.3 L11.5,181.4 L11.6,187.8 L7.3,187.9 L3.1,187.9 L3.0,180.9 L-4.7,180.9 L-4.8,168.9 L-4.9,156.8 L3.9,156.8 L3.8,146.3 L8.7,146.2 L13.5,146.2 Z" fill="#d6d2c9" stroke="#bab6ad" stroke-width="0.4"></path><path d="M175.5,20.8 L176.6,54.8 L168.4,55.1 L168.1,46.1 L160.7,46.3 L160.5,37.6 L151.3,37.9 L150.8,21.6 L175.5,20.8 Z" fill="#d6d2c9" stroke="#bab6ad" stroke-width="0.4"></path><path d="M252.7,136.0 L252.9,142.8 L261.4,142.6 L261.9,160.4 L263.1,160.4 L263.7,185.5 L255.1,185.7 L254.8,174.1 L238.2,174.5 L237.4,142.4 L244.1,142.2 L243.9,136.2 L252.7,136.0 Z" fill="#d6d2c9" stroke="#bab6ad" stroke-width="0.4"></path><path d="M224.3,266.1 L213.6,266.5 L212.1,227.3 L232.7,226.4 L234.0,257.2 L224.0,257.6 L224.3,266.1 Z" fill="#d6d2c9" stroke="#bab6ad" stroke-width="0.4"></path><path d="M196.4,169.8 L196.8,182.7 L187.6,182.9 L187.2,170.1 L182.2,170.3 L180.2,132.7 L206.2,131.7 L206.6,144.5 L204.6,144.5 L205.4,169.6 L196.4,169.8 Z" fill="#d6d2c9" stroke="#bab6ad" stroke-width="0.4"></path><path d="M1.9,35.5 L-6.6,35.6 L-6.7,27.7 L-4.3,27.7 L-4.4,23.5 L1.7,23.4 L1.9,35.5 Z" fill="#d6d2c9" stroke="#bab6ad" stroke-width="0.4"></path><path d="M98.7,28.6 L99.0,36.8 L84.5,37.4 L84.2,29.2 L81.9,29.3 L81.7,24.8 L84.0,24.7 L83.9,20.7 L100.6,20.0 L100.9,28.6 L98.7,28.6 Z" fill="#d6d2c9" stroke="#bab6ad" stroke-width="0.4"></path><path d="M258.7,204.3 L258.8,205.9 L265.2,205.7 L265.6,219.7 L259.4,219.9 L259.4,221.1 L251.5,221.3 L251.6,224.7 L239.2,224.9 L238.7,204.8 L258.7,204.3 Z" fill="#d6d2c9" stroke="#bab6ad" stroke-width="0.4"></path><path d="M180.2,242.5 L180.8,261.1 L184.1,261.0 L184.3,268.7 L157.4,269.4 L156.6,243.2 L168.4,242.9 L180.2,242.5 Z" fill="#d6d2c9" stroke="#bab6ad" stroke-width="0.4"></path><path d="M163.4,61.6 L163.5,65.4 L171.9,65.3 L172.2,80.6 L152.9,81.0 L152.6,65.6 L157.2,65.5 L157.1,61.7 L160.3,61.7 L163.4,61.6 Z" fill="#d6d2c9" stroke="#bab6ad" stroke-width="0.4"></path><path d="M225.0,80.8 L207.0,81.2 L206.1,43.5 L211.7,43.3 L211.6,36.9 L231.2,36.4 L231.8,62.5 L224.6,62.7 L225.0,80.8 Z" fill="#d6d2c9" stroke="#bab6ad" stroke-width="0.4"></path><path d="M226.0,140.1 L226.1,143.8 L232.9,143.5 L233.6,159.8 L223.0,160.3 L223.3,167.4 L220.6,167.5 L217.8,167.6 L217.4,158.5 L210.8,158.8 L210.5,151.8 L210.2,144.8 L216.8,144.5 L216.7,140.5 L221.3,140.3 L226.0,140.1 Z" fill="#d6d2c9" stroke="#bab6ad" stroke-width="0.4"></path><path d="M180.2,232.0 L157.5,232.3 L157.2,209.4 L180.0,209.1 L180.2,232.0 Z" fill="#d6d2c9" stroke="#bab6ad" stroke-width="0.4"></path><path d="M261.1,235.0 L261.3,241.3 L262.4,241.2 L263.2,264.2 L248.3,264.7 L248.4,266.2 L242.0,266.4 L241.1,236.7 L247.9,236.5 L247.8,235.4 L261.1,235.0 Z" fill="#d6d2c9" stroke="#bab6ad" stroke-width="0.4"></path><path d="M100.1,146.7 L100.2,150.9 L101.5,150.8 L102.3,170.6 L84.8,171.3 L84.7,169.6 L80.8,169.7 L80.6,162.8 L84.4,162.6 L83.8,147.4 L100.1,146.7 Z" fill="#d6d2c9" stroke="#bab6ad" stroke-width="0.4"></path><path d="M198.3,47.4 L198.6,57.9 L201.5,57.8 L202.0,76.3 L193.0,76.6 L193.1,82.0 L184.9,82.3 L184.1,54.0 L189.3,53.9 L189.1,48.9 L192.0,48.8 L191.9,47.5 L198.3,47.4 Z" fill="#d6d2c9" stroke="#bab6ad" stroke-width="0.4"></path><path d="M90.4,54.0 L90.5,58.5 L104.1,58.3 L104.3,77.9 L94.6,78.1 L94.7,83.2 L79.3,83.4 L78.9,54.1 L90.4,54.0 Z" fill="#d6d2c9" stroke="#bab6ad" stroke-width="0.4"></path><path d="M254.6,38.0 L240.1,38.1 L240.0,26.2 L239.9,14.3 L255.4,14.2 L255.0,26.1 L254.6,38.0 Z" fill="#d6d2c9" stroke="#bab6ad" stroke-width="0.4"></path><path d="M13.9,84.1 L14.0,86.5 L8.5,86.7 L3.1,86.8 L3.0,84.4 L-2.1,84.6 L-2.9,60.4 L7.6,60.0 L18.0,59.7 L18.8,83.9 L13.9,84.1 Z" fill="#d6d2c9" stroke="#bab6ad" stroke-width="0.4"></path><path d="M74.0,49.4 L55.4,50.2 L54.8,37.4 L54.2,24.6 L72.9,23.8 L73.4,36.6 L74.0,49.4 Z" fill="#d6d2c9" stroke="#bab6ad" stroke-width="0.4"></path><path d="M8.7,212.1 L8.8,216.3 L22.2,216.0 L22.7,240.7 L15.2,240.8 L7.7,241.0 L7.5,231.7 L0.4,231.9 L0.3,223.2 L-3.1,223.2 L-3.2,217.8 L-3.3,212.4 L8.7,212.1 Z" fill="#d6d2c9" stroke="#bab6ad" stroke-width="0.4"></path><path d="M90.3,187.0 L90.5,193.7 L91.7,193.7 L92.0,204.4 L63.3,205.3 L63.1,200.2 L64.6,200.2 L64.4,193.3 L68.6,193.2 L68.4,186.8 L83.3,186.3 L90.3,187.0 Z" fill="#d6d2c9" stroke="#bab6ad" stroke-width="0.4"></path><path d="M41.6,83.1 L41.7,85.5 L36.1,85.6 L30.6,85.8 L30.5,83.4 L25.7,83.6 L24.6,47.9 L40.8,47.4 L40.7,43.5 L43.1,43.4 L45.5,43.3 L46.4,83.0 L41.6,83.1 Z" fill="#d6d2c9" stroke="#bab6ad" stroke-width="0.4"></path><path d="M42.0,145.5 L42.1,148.8 L48.5,148.6 L49.3,171.9 L37.5,172.3 L37.6,176.9 L31.2,177.1 L31.1,172.5 L28.9,172.6 L28.0,149.3 L35.0,149.1 L34.8,145.8 L42.0,145.5 Z" fill="#d6d2c9" stroke="#bab6ad" stroke-width="0.4"></path><path d="M16.6,-32.6 L16.4,6.0 L-2.7,5.8 L-2.5,-19.8 L3.4,-19.8 L3.5,-32.7 L16.6,-32.6 Z" fill="#d6d2c9" stroke="#bab6ad" stroke-width="0.4"></path><path d="M489.0,101.1 L150.3,111.9 L128.1,112.6 L103.4,113.4 L-226.6,124.5" fill="none" stroke="#cec8bb" stroke-width="4.8" stroke-linecap="round" stroke-linejoin="round"/><path d="M489.0,101.1 L150.3,111.9 L128.1,112.6 L103.4,113.4 L-226.6,124.5" fill="none" stroke="#ffffff" stroke-width="3.7" stroke-linecap="round" stroke-linejoin="round"><title>Northwest 31st Street</title></path><path d="M133.4,305.9 L132.8,284.4 L128.1,112.6 L123.1,-54.2" fill="none" stroke="#cec8bb" stroke-width="4.8" stroke-linecap="round" stroke-linejoin="round"/><path d="M133.4,305.9 L132.8,284.4 L128.1,112.6 L123.1,-54.2" fill="none" stroke="#ffffff" stroke-width="3.7" stroke-linecap="round" stroke-linejoin="round"><title>Northwest 31st Avenue</title></path><text x="59.8" y="175.9" text-anchor="middle" font-family="Arial, sans-serif" font-size="8" font-weight="600" paint-order="stroke" stroke="#edf5ec" stroke-width="1.9" stroke-linejoin="round" fill="#5c806b"><tspan x="59.8" textLength="107.5" lengthAdjust="spacing">North Hialeah Baptist</tspan><tspan x="59.8" dy="9.4" textLength="61.4" lengthAdjust="spacing">Kindergarten</tspan></text><text x="129.9" y="176.3" transform="rotate(88.5 129.9 176.3)" text-anchor="middle" dominant-baseline="central" font-family="Arial, sans-serif" font-size="8.3" textLength="111.6" lengthAdjust="spacing" font-weight="650" paint-order="stroke" stroke="#fffaf0" stroke-width="2.05" stroke-linejoin="round" fill="#695f54">Northwest 31st Avenue</text><text x="97.6" y="246.0" text-anchor="middle" font-family="Arial, sans-serif" font-size="6.5" textLength="18.0" lengthAdjust="spacing" font-weight="500" paint-order="stroke" stroke="#f3f5ee" stroke-width="1.55" stroke-linejoin="round" fill="#6f777a">3000</text><text x="42.2" y="246.0" text-anchor="middle" font-family="Arial, sans-serif" font-size="6.5" textLength="18.0" lengthAdjust="spacing" font-weight="500" paint-order="stroke" stroke="#f3f5ee" stroke-width="1.55" stroke-linejoin="round" fill="#6f777a">3121</text><text x="168.4" y="171.6" text-anchor="middle" font-family="Arial, sans-serif" font-size="6.5" textLength="18.0" lengthAdjust="spacing" font-weight="500" paint-order="stroke" stroke="#f3f5ee" stroke-width="1.55" stroke-linejoin="round" fill="#6f777a">3090</text><text x="164.0" y="40.0" text-anchor="middle" font-family="Arial, sans-serif" font-size="6.5" textLength="18.0" lengthAdjust="spacing" font-weight="500" paint-order="stroke" stroke="#f3f5ee" stroke-width="1.55" stroke-linejoin="round" fill="#6f777a">3103</text><text x="241.0" y="156.9" text-anchor="middle" font-family="Arial, sans-serif" font-size="6.5" textLength="18.0" lengthAdjust="spacing" font-weight="500" paint-order="stroke" stroke="#f3f5ee" stroke-width="1.55" stroke-linejoin="round" fill="#6f777a">3068</text><text x="223.4" y="246.0" text-anchor="middle" font-family="Arial, sans-serif" font-size="6.5" textLength="18.0" lengthAdjust="spacing" font-weight="500" paint-order="stroke" stroke="#f3f5ee" stroke-width="1.55" stroke-linejoin="round" fill="#6f777a">3057</text><text x="195.3" y="159.9" text-anchor="middle" font-family="Arial, sans-serif" font-size="6.5" textLength="18.0" lengthAdjust="spacing" font-weight="500" paint-order="stroke" stroke="#f3f5ee" stroke-width="1.55" stroke-linejoin="round" fill="#6f777a">3080</text><text x="173.1" y="246.0" text-anchor="middle" font-family="Arial, sans-serif" font-size="6.5" textLength="18.0" lengthAdjust="spacing" font-weight="500" paint-order="stroke" stroke="#f3f5ee" stroke-width="1.55" stroke-linejoin="round" fill="#6f777a">3091</text><text x="161.2" y="67.6" text-anchor="middle" font-family="Arial, sans-serif" font-size="6.5" textLength="18.0" lengthAdjust="spacing" font-weight="500" paint-order="stroke" stroke="#f3f5ee" stroke-width="1.55" stroke-linejoin="round" fill="#6f777a">3091</text><text x="218.6" y="55.9" text-anchor="middle" font-family="Arial, sans-serif" font-size="6.5" textLength="18.0" lengthAdjust="spacing" font-weight="500" paint-order="stroke" stroke="#f3f5ee" stroke-width="1.55" stroke-linejoin="round" fill="#6f777a">3071</text><text x="220.5" y="152.6" text-anchor="middle" font-family="Arial, sans-serif" font-size="6.5" textLength="18.0" lengthAdjust="spacing" font-weight="500" paint-order="stroke" stroke="#f3f5ee" stroke-width="1.55" stroke-linejoin="round" fill="#6f777a">3076</text><text x="168.7" y="220.7" text-anchor="middle" font-family="Arial, sans-serif" font-size="6.5" textLength="18.0" lengthAdjust="spacing" font-weight="500" paint-order="stroke" stroke="#f3f5ee" stroke-width="1.55" stroke-linejoin="round" fill="#6f777a">3005</text><text x="90.3" y="160.2" text-anchor="middle" font-family="Arial, sans-serif" font-size="6.5" textLength="18.0" lengthAdjust="spacing" font-weight="500" paint-order="stroke" stroke="#f3f5ee" stroke-width="1.55" stroke-linejoin="round" fill="#6f777a">3102</text><text x="193.1" y="61.1" text-anchor="middle" font-family="Arial, sans-serif" font-size="6.5" textLength="18.0" lengthAdjust="spacing" font-weight="500" paint-order="stroke" stroke="#f3f5ee" stroke-width="1.55" stroke-linejoin="round" fill="#6f777a">3083</text><text x="92.1" y="68.4" text-anchor="middle" font-family="Arial, sans-serif" font-size="6.5" textLength="18.0" lengthAdjust="spacing" font-weight="500" paint-order="stroke" stroke="#f3f5ee" stroke-width="1.55" stroke-linejoin="round" fill="#6f777a">3108</text><text x="241.0" y="26.2" text-anchor="middle" font-family="Arial, sans-serif" font-size="6.5" textLength="18.0" lengthAdjust="spacing" font-weight="500" paint-order="stroke" stroke="#f3f5ee" stroke-width="1.55" stroke-linejoin="round" fill="#6f777a">3067</text><text x="15.0" y="77.7" text-anchor="middle" font-family="Arial, sans-serif" font-size="6.5" textLength="18.0" lengthAdjust="spacing" font-weight="500" paint-order="stroke" stroke="#f3f5ee" stroke-width="1.55" stroke-linejoin="round" fill="#6f777a">3131</text><text x="64.1" y="37.0" text-anchor="middle" font-family="Arial, sans-serif" font-size="6.5" textLength="18.0" lengthAdjust="spacing" font-weight="500" paint-order="stroke" stroke="#f3f5ee" stroke-width="1.55" stroke-linejoin="round" fill="#6f777a">3105</text><text x="15.0" y="225.6" text-anchor="middle" font-family="Arial, sans-serif" font-size="6.5" textLength="18.0" lengthAdjust="spacing" font-weight="500" paint-order="stroke" stroke="#f3f5ee" stroke-width="1.55" stroke-linejoin="round" fill="#6f777a">3135</text><text x="37.3" y="68.0" text-anchor="middle" font-family="Arial, sans-serif" font-size="6.5" textLength="18.0" lengthAdjust="spacing" font-weight="500" paint-order="stroke" stroke="#f3f5ee" stroke-width="1.55" stroke-linejoin="round" fill="#6f777a">3121</text><text x="37.2" y="160.9" text-anchor="middle" font-family="Arial, sans-serif" font-size="6.5" textLength="18.0" lengthAdjust="spacing" font-weight="500" paint-order="stroke" stroke="#f3f5ee" stroke-width="1.55" stroke-linejoin="round" fill="#6f777a">3122</text><text x="65.1" y="243.0" text-anchor="middle" font-family="Arial, sans-serif" font-size="6.5" textLength="18.0" lengthAdjust="spacing" font-weight="500" paint-order="stroke" stroke="#f3f5ee" stroke-width="1.55" stroke-linejoin="round" fill="#6f777a">3111</text><text x="201.3" y="246.0" text-anchor="middle" font-family="Arial, sans-serif" font-size="6.5" textLength="18.0" lengthAdjust="spacing" font-weight="500" paint-order="stroke" stroke="#f3f5ee" stroke-width="1.55" stroke-linejoin="round" fill="#6f777a">3083</text></svg>