<svg xmlns="http://www.w3.org/2000/svg" width="256" height="256" viewBox="0 0 256 256"><rect width="256" height="256" fill="#f1efe7"/><path d="M-18186.7,-2861.7 L-17971.9,-2951.0 L-17904.7,-2983.3 L-17604.2,-3127.6 L-17547.8,-3073.0 L-17542.9,-3068.3 L-17437.5,-3158.5 L-17412.4,-3177.6 L-17370.5,-3215.4 L-17134.4,-3432.2 L-16943.9,-3649.8 L-16936.6,-3663.7 L-16929.6,-3671.6 L-16918.5,-3684.3 L-16907.2,-3697.2 L-16902.6,-3702.5 L-16977.7,-3799.6 L-16878.3,-3859.2 L-16824.4,-3787.5 L-16748.2,-3874.7 L-16812.7,-3960.1 L-16732.8,-4043.4 L-16671.3,-3962.4 L-16600.7,-4042.8 L-16570.6,-4062.5 L-16423.4,-4158.0 L-16350.7,-4206.3 L-16263.1,-4263.9 L-16221.7,-4291.1 L-16116.8,-4358.8 L-16143.8,-4394.3 L-16192.1,-4459.0 L-16067.2,-4538.4 L-16021.7,-4561.9 L-16018.2,-4564.4 L-15994.2,-4582.9 L-15908.6,-4628.7 L-15902.7,-4637.9 L-15878.7,-4654.4 L-15865.7,-4673.4 L-15862.0,-4676.2 L-15841.1,-4684.3 L-15793.9,-4701.2 L-15761.6,-4715.4 L-15647.5,-4769.0 L-15646.1,-4765.3 L-15550.4,-4806.2 L-15511.3,-4756.1 L-15424.2,-4814.2 L-15411.8,-4822.7 L-15410.6,-4823.7 L-15409.4,-4825.3 L-15407.5,-4828.6 L-15406.5,-4831.7 L-15405.9,-4835.4 L-15406.0,-4838.4 L-15406.4,-4841.3 L-15406.8,-4844.6 L-15406.9,-4847.1 L-15406.7,-4849.2 L-15406.3,-4851.4 L-15404.7,-4855.4 L-15403.6,-4857.6 L-15401.1,-4861.4 L-15398.5,-4864.2 L-15385.8,-4869.3 L-15375.2,-4873.3 L-15361.7,-4877.7 L-15355.4,-4879.4 L-15344.2,-4883.1 L-15336.3,-4885.9 L-15325.4,-4890.4 L-15310.6,-4896.9 L-15294.6,-4904.4 L-15286.0,-4908.6 L-15275.2,-4914.1 L-15265.1,-4919.7 L-15255.0,-4925.7 L-15244.7,-4932.4 L-15241.5,-4934.6 L-15220.8,-4950.4 L-15203.4,-4963.8 L-15186.4,-4978.2 L-15170.5,-4993.2 L-15159.0,-5006.1 L-15147.6,-5020.0 L-15133.6,-5038.0 L-15120.8,-5056.0 L-15106.1,-5079.1 L-15096.5,-5097.0 L-15090.5,-5108.4 L-15081.6,-5127.7 L-15074.1,-5145.6 L-15067.4,-5164.9 L-15062.0,-5181.8 L-15056.1,-5209.2 L-15051.8,-5233.7 L-15049.5,-5254.7 L-15047.5,-5279.5 L-15047.3,-5306.0 L-15048.9,-5330.5 L-15053.1,-5362.5 L-15057.5,-5384.3 L-15062.5,-5404.9 L-15069.9,-5428.3 L-15076.2,-5446.2 L-15083.4,-5465.7 L-15090.2,-5481.9 L-15094.8,-5492.4 L-15096.7,-5500.1 L-15097.0,-5506.0 L-15096.4,-5511.3 L-15094.3,-5515.9 L-15091.1,-5519.8 L-15086.9,-5522.0 L-15082.4,-5522.6 L-15070.3,-5519.7 L-15036.6,-5511.6 L-15025.4,-5766.3 L-14981.7,-6220.9 L-15029.2,-6232.1 L-15034.4,-6246.4 L-15034.2,-6266.9 L-15027.6,-6313.4 L-15018.6,-6323.9 L-15010.6,-6354.1 L-14960.1,-6342.4 L-14932.3,-6632.9 L-14924.6,-6713.3 L-14940.3,-6717.2 L-14930.8,-6755.6 L-14963.1,-6763.3 L-14959.0,-6786.8 L-14953.3,-6802.3 L-14946.2,-6820.4 L-14934.2,-6845.7 L-14921.3,-6842.8 L-14903.9,-7025.5 L-14899.8,-7136.3 L-14899.0,-7156.7 L-14889.6,-7227.2 L-14870.9,-7402.9 L-14746.1,-7728.3 L-14717.6,-7817.0 L-14370.9,-7950.0 L-14337.0,-7963.6 L-14331.1,-7966.8 L-14326.5,-7971.0 L-14321.4,-7976.9 L-14317.5,-7983.8 L-14314.9,-7990.6 L-14314.3,-8000.5 L-14314.8,-8012.8 L-14319.4,-8168.3 L-14321.1,-8198.4 L-14321.6,-8219.1 L-14322.3,-8259.3 L-14323.1,-8271.9 L-14324.6,-8282.5 L-14326.7,-8291.9 L-14329.8,-8301.5 L-14334.7,-8312.8 L-14341.9,-8324.9 L-14348.9,-8334.5 L-14354.3,-8343.6 L-14359.8,-8355.7 L-14364.4,-8367.3 L-14366.2,-8376.8 L-14367.6,-8387.3 L-14368.3,-8397.8 L-14368.0,-8408.0 L-14366.8,-8419.9 L-14364.0,-8431.6 L-14360.3,-8442.0 L-14356.4,-8451.5 L-14351.4,-8460.7 L-14345.3,-8471.9 L-14341.3,-8482.0 L-14337.8,-8494.9 L-14331.4,-8504.7 L-14333.6,-8593.9 L-14336.9,-8599.1 L-14337.9,-8659.7 L-14339.6,-8731.2 L-14338.4,-8741.1 L-14335.2,-8751.2 L-14327.2,-8767.0 L-14273.7,-8882.1 L-14272.6,-8884.0 L-14263.2,-8904.5 L-14254.3,-8923.9 L-14244.3,-8943.9 L-14234.5,-8964.5 L-14229.7,-8974.5 L-14177.1,-9082.4 L-14120.9,-9201.6 L-13999.3,-9448.4 L-14072.4,-9530.3 L-14132.0,-9403.3 L-14183.5,-9293.4 L-14191.3,-9277.8 L-14207.2,-9245.3 L-14239.0,-9248.0 L-14247.7,-9248.5 L-14250.8,-9245.7 L-14246.6,-9241.9 L-14262.9,-9227.4 L-14275.8,-9215.5 L-14278.2,-9164.6 L-14283.0,-9154.4 L-14298.6,-9155.0 L-14301.2,-9155.9 L-14505.6,-9240.3 L-14510.0,-9242.6 L-14514.7,-9245.6 L-14522.1,-9251.2 L-14527.8,-9256.6 L-14532.6,-9261.8 L-14537.3,-9268.2 L-14540.9,-9273.8 L-14543.7,-9279.6 L-14545.9,-9285.7 L-14547.4,-9289.9 L-14548.5,-9295.0 L-14549.3,-9301.0 L-14550.1,-9309.2 L-14550.1,-9320.9 L-14551.5,-9360.6 L-14545.9,-9360.9 L-14546.7,-9381.9 L-14547.6,-9416.5 L-14542.4,-9416.6 L-14542.8,-9440.2 L-14548.7,-9440.1 L-14551.4,-9539.5 L-14545.8,-9539.8 L-14546.7,-9563.1 L-14552.1,-9562.9 L-14554.4,-9636.4 L-14527.4,-9665.5 L-14492.9,-9666.7 L-14467.2,-9667.6 L-14433.3,-9668.7 L-14400.7,-9669.7 L-14371.5,-9670.7 L-14358.8,-9671.3 L-14359.4,-9682.6 L-14359.6,-9694.4 L-14361.5,-9732.7 L-14362.2,-9805.8 L-14363.2,-9807.1 L-14363.4,-9814.3 L-14361.3,-9814.4 L-14366.4,-9990.5 L-14370.8,-10156.2 L-14371.5,-10161.4 L-14371.9,-10171.0 L-14444.1,-10168.4 L-14492.1,-10172.5 L-14851.4,-10160.0 L-14851.5,-10163.2 L-14852.2,-10178.5 L-15022.6,-10172.5 L-15022.9,-10200.8 L-15045.4,-10205.9 L-15049.4,-10327.0 L-14386.6,-10350.0 L-14375.6,-10365.1 L-14376.0,-10408.1 L-14376.8,-10445.3 L-14377.4,-10468.6 L-14378.3,-10491.3 L-14431.0,-10516.1 L-14433.1,-10571.2 L-14379.1,-10598.0 L-14384.0,-10725.5 L-14385.4,-10731.8 L-14439.1,-10756.9 L-14440.8,-10825.1 L-14389.8,-10851.4 L-14412.5,-11128.3 L-14406.5,-11251.5 L-14403.5,-11452.4 L-14403.7,-11670.9 L-14398.9,-11701.5 L-14398.6,-11716.3 L-14403.4,-11734.1 L-14398.4,-11734.1 L-14398.4,-11750.2 L-14395.4,-12161.2 L-14395.9,-12179.5 L-14401.6,-12179.5 L-14401.4,-12255.1 L-14404.7,-12259.8 L-14409.9,-12337.8 L-14399.6,-12409.1 L-14400.9,-12495.4 L-14404.4,-12516.1 L-14399.1,-12580.0 L-14402.7,-12657.3 L-14411.7,-12740.0 L-14428.8,-12874.0 L-14420.7,-12910.9 L-14424.3,-12946.8 L-14454.9,-12972.9 L-14499.8,-12972.5 L-14568.2,-12963.5 L-14612.7,-12963.5 L-14653.1,-12978.3 L-14706.2,-13014.7 L-14706.2,-13080.0 L-14707.6,-13160.3 L-14702.4,-13227.2 L-14684.8,-13279.4 L-14390.1,-13284.9 L-14383.3,-13702.8 L-14383.3,-14304.4 L-14386.4,-14522.7 L1525.8,-21094.4 L1525.8,15123.8 L-18186.7,15123.8 L-18186.7,-2861.7 Z" fill="#add7e1" stroke="none"><title>Biscayne Bay</title></path><path d="M-1.0,-1.0 L257.0,-1.0 L257.0,257.0 L-1.0,257.0 L-1.0,-1.0 Z" fill="#add7e1" stroke="none" fill-rule="evenodd"><title>Biscayne Bay</title></path></svg>