<svg xmlns="http://www.w3.org/2000/svg" width="256" height="256" viewBox="0 0 256 256"><rect width="256" height="256" fill="#f1efe7"/><path d="M207.6,3.9 L193.4,4.5 L192.8,-6.6 L202.0,-6.9 L204.9,-5.5 L206.8,-3.0 L207.5,-0.4 L207.6,3.9 Z" fill="#d6d2c9" stroke="#bab6ad" stroke-width="0.4"></path><path d="M204.1,136.9 L189.8,137.2 L189.6,130.7 L188.4,124.2 L194.8,123.9 L203.8,123.6 L204.1,136.9 Z" fill="#d6d2c9" stroke="#bab6ad" stroke-width="0.4"></path><path d="M209.1,193.9 L192.1,194.4 L191.9,186.9 L208.9,186.3 L209.1,193.9 Z" fill="#d6d2c9" stroke="#bab6ad" stroke-width="0.4"></path><path d="M27.0,25.0 L5.2,25.7 L-9.9,26.2 L-13.5,26.3 L-14.2,2.1 L26.3,0.8 L27.0,25.0 Z" fill="#d6d2c9" stroke="#bab6ad" stroke-width="0.4"></path><path d="M238.7,-6.0 L239.3,14.6 L243.7,14.5 L243.7,17.2 L239.9,17.3 L240.0,20.9 L230.5,21.2 L229.7,-5.8 L238.7,-6.0 Z" fill="#d6d2c9" stroke="#bab6ad" stroke-width="0.4"></path><path d="M162.4,17.3 L154.4,17.5 L154.2,10.5 L162.2,10.3 L162.4,17.3 Z" fill="#d6d2c9" stroke="#bab6ad" stroke-width="0.4"></path><path d="M97.1,42.4 L97.1,44.6 L107.6,44.3 L107.9,52.6 L84.1,53.4 L83.7,42.8 L97.1,42.4 Z" fill="#d6d2c9" stroke="#bab6ad" stroke-width="0.4"></path><path d="M106.3,257.0 L90.2,257.5 L90.0,248.5 L106.0,248.0 L106.3,257.0 Z" fill="#d6d2c9" stroke="#bab6ad" stroke-width="0.4"></path><path d="M62.6,29.4 L49.6,29.8 L48.7,-1.6 L61.6,-2.0 L62.6,29.4 Z" fill="#d6d2c9" stroke="#bab6ad" stroke-width="0.4"></path><path d="M245.6,106.0 L228.8,106.5 L228.5,97.9 L245.4,97.4 L245.6,106.0 Z" fill="#d6d2c9" stroke="#bab6ad" stroke-width="0.4"></path><path d="M246.2,122.3 L229.1,122.7 L228.9,114.2 L246.0,113.8 L246.2,122.3 Z" fill="#d6d2c9" stroke="#bab6ad" stroke-width="0.4"></path><path d="M106.2,228.5 L90.6,228.7 L90.5,219.0 L106.1,218.8 L106.2,228.5 Z" fill="#d6d2c9" stroke="#bab6ad" stroke-width="0.4"></path><path d="M244.9,86.4 L228.0,86.8 L227.9,78.2 L244.8,77.9 L244.9,86.4 Z" fill="#d6d2c9" stroke="#bab6ad" stroke-width="0.4"></path><path d="M94.6,108.2 L85.1,108.3 L85.1,98.5 L94.5,98.4 L94.6,108.2 Z" fill="#d6d2c9" stroke="#bab6ad" stroke-width="0.4"></path><path d="M119.5,9.0 L114.9,9.1 L114.5,-2.3 L119.1,-2.4 L119.5,9.0 Z" fill="#d6d2c9" stroke="#bab6ad" stroke-width="0.4"></path><path d="M102.6,23.2 L88.7,24.8 L88.0,16.0 L101.6,14.7 L102.6,23.2 Z" fill="#d6d2c9" stroke="#bab6ad" stroke-width="0.4"></path><path d="M170.7,33.7 L145.2,34.4 L145.0,26.5 L170.5,25.8 L170.7,33.7 Z" fill="#d6d2c9" stroke="#bab6ad" stroke-width="0.4"></path><path d="M178.9,-5.4 L179.4,15.2 L185.2,15.1 L185.0,5.6 L192.5,5.5 L192.9,22.1 L172.3,22.5 L171.6,-5.3 L178.9,-5.4 Z" fill="#d6d2c9" stroke="#bab6ad" stroke-width="0.4"></path><path d="M142.1,9.4 L129.7,9.8 L129.2,-4.3 L141.6,-4.7 L142.1,9.4 Z" fill="#d6d2c9" stroke="#bab6ad" stroke-width="0.4"><title>The Pawn Shop</title></path><path d="M115.4,40.9 L110.8,41.1 L110.5,33.8 L116.2,33.6 L116.0,29.2 L132.5,28.6 L132.7,35.4 L115.2,36.1 L115.4,40.9 Z" fill="#d6d2c9" stroke="#bab6ad" stroke-width="0.4"></path><path d="M98.0,73.6 L84.8,74.1 L84.5,63.4 L108.4,62.6 L108.7,70.9 L97.9,71.2 L98.0,73.6 Z" fill="#d6d2c9" stroke="#bab6ad" stroke-width="0.4"></path><path d="M178.1,259.1 L170.1,259.2 L169.8,242.2 L177.8,242.1 L178.1,259.1 Z" fill="#d6d2c9" stroke="#bab6ad" stroke-width="0.4"></path><path d="M158.4,68.6 L147.0,68.9 L146.3,46.5 L150.6,46.4 L157.7,46.1 L158.4,68.6 Z" fill="#d6d2c9" stroke="#bab6ad" stroke-width="0.4"></path><path d="M57.0,124.4 L45.2,124.7 L44.9,115.5 L49.0,115.3 L48.7,105.2 L56.5,104.9 L57.0,124.4 Z" fill="#d6d2c9" stroke="#bab6ad" stroke-width="0.4"></path><path d="M244.0,74.0 L229.0,74.4 L228.5,58.2 L243.6,57.8 L244.0,74.0 Z" fill="#d6d2c9" stroke="#bab6ad" stroke-width="0.4"></path><path d="M14.9,160.4 L-4.3,160.9 L-4.5,152.3 L5.3,152.1 L5.2,148.0 L14.6,147.8 L14.9,160.4 Z" fill="#d6d2c9" stroke="#bab6ad" stroke-width="0.4"></path><path d="M3.5,164.1 L3.6,166.5 L7.1,166.3 L7.2,170.0 L8.5,169.9 L8.5,175.0 L5.4,175.1 L5.5,174.0 L-1.7,174.1 L-1.8,170.9 L-3.7,171.0 L-3.9,166.7 L-1.6,166.7 L-1.7,164.1 L3.5,164.1 Z" fill="#d6d2c9" stroke="#bab6ad" stroke-width="0.4"></path><path d="M-9.9,26.2 L5.2,25.7 L5.5,38.5 L-9.7,39.1 L-9.8,33.9 L-5.4,34.0 L-5.5,31.0 L-9.9,31.0 L-9.9,26.2 Z" fill="#d6d2c9" stroke="#bab6ad" stroke-width="0.4"></path><path d="M61.2,148.1 L61.3,153.0 L63.4,152.9 L63.8,168.5 L56.9,168.7 L49.9,168.9 L49.5,153.4 L50.0,153.4 L49.8,148.4 L55.5,148.3 L61.2,148.1 Z" fill="#d6d2c9" stroke="#bab6ad" stroke-width="0.4"></path><path d="M6.7,184.1 L6.7,185.1 L12.8,184.9 L12.9,187.8 L14.1,187.8 L14.2,191.8 L9.5,191.9 L9.5,192.9 L6.8,193.0 L6.7,191.9 L1.5,192.1 L1.3,185.2 L4.2,185.1 L4.2,184.2 L6.7,184.1 Z" fill="#d6d2c9" stroke="#bab6ad" stroke-width="0.4"></path><path d="M25.8,140.2 L21.8,140.3 L21.3,129.5 L25.4,129.3 L25.8,140.2 Z" fill="#d6d2c9" stroke="#bab6ad" stroke-width="0.4"></path><path d="M10.9,205.9 L4.7,206.1 L4.8,206.9 L2.5,207.0 L2.5,206.1 L-0.3,206.2 L-0.6,199.5 L12.0,198.9 L12.2,203.0 L10.8,203.1 L10.9,205.9 Z" fill="#d6d2c9" stroke="#bab6ad" stroke-width="0.4"></path><path d="M-0.2,128.4 L-0.2,131.0 L10.0,130.8 L10.2,139.2 L-3.1,139.5 L-3.2,136.3 L-5.6,136.3 L-5.7,128.5 L-0.2,128.4 Z" fill="#d6d2c9" stroke="#bab6ad" stroke-width="0.4"></path><path d="M46.0,153.7 L46.3,161.8 L46.9,161.8 L47.0,164.3 L46.5,164.3 L46.6,169.1 L41.0,169.3 L41.0,168.8 L34.5,169.0 L34.5,169.6 L29.0,169.8 L28.5,154.4 L46.0,153.7 Z" fill="#d6d2c9" stroke="#bab6ad" stroke-width="0.4"></path><path d="M4.1,70.6 L4.1,71.3 L8.8,71.2 L8.9,75.6 L9.0,80.1 L-5.4,80.5 L-5.3,82.5 L-8.0,82.6 L-8.3,71.7 L-4.1,71.6 L-4.1,70.8 L-0.0,70.7 L4.1,70.6 Z" fill="#d6d2c9" stroke="#bab6ad" stroke-width="0.4"></path><path d="M62.7,199.6 L62.9,208.6 L61.8,208.7 L61.9,211.5 L58.5,211.6 L58.6,213.8 L52.1,214.0 L52.1,212.6 L52.0,211.2 L52.9,211.2 L52.8,208.6 L50.2,208.6 L50.2,207.7 L50.2,206.8 L55.4,206.7 L55.2,199.8 L58.9,199.7 L62.7,199.6 Z" fill="#d6d2c9" stroke="#bab6ad" stroke-width="0.4"></path><path d="M9.8,102.5 L-7.1,103.1 L-7.2,97.8 L-7.4,92.6 L2.5,92.2 L2.4,89.5 L5.8,89.3 L9.3,89.2 L9.8,102.5 Z" fill="#d6d2c9" stroke="#bab6ad" stroke-width="0.4"></path><path d="M18.1,40.8 L18.5,53.0 L16.0,53.1 L13.4,53.2 L13.4,52.4 L-7.6,53.0 L-8.0,43.4 L6.3,42.8 L6.3,42.3 L11.8,42.2 L11.8,41.0 L15.0,40.9 L18.1,40.8 Z" fill="#d6d2c9" stroke="#bab6ad" stroke-width="0.4"></path><path d="M55.7,55.5 L55.9,59.1 L43.3,59.5 L43.3,58.7 L38.6,58.8 L38.5,53.1 L43.1,53.0 L43.0,51.6 L45.6,51.6 L45.5,46.5 L56.5,46.2 L56.7,55.5 L55.7,55.5 Z" fill="#d6d2c9" stroke="#bab6ad" stroke-width="0.4"></path><path d="M22.9,166.9 L23.3,179.8 L14.4,180.0 L14.2,172.4 L12.9,172.4 L12.9,170.2 L14.0,170.2 L13.9,167.1 L22.9,166.9 Z" fill="#d6d2c9" stroke="#bab6ad" stroke-width="0.4"></path><path d="M60.6,132.7 L60.1,145.4 L35.0,144.4 L35.5,131.7 L60.6,132.7 Z" fill="#d6d2c9" stroke="#bab6ad" stroke-width="0.4"></path><path d="M16.0,216.0 L16.1,219.1 L19.6,218.9 L19.7,221.5 L20.7,221.4 L20.8,223.4 L20.1,223.4 L20.3,229.9 L16.2,230.0 L16.0,227.0 L10.4,227.2 L10.2,221.9 L9.3,221.9 L9.2,219.5 L10.2,219.5 L10.0,216.2 L16.0,216.0 Z" fill="#d6d2c9" stroke="#bab6ad" stroke-width="0.4"></path><path d="M5.3,216.5 L5.7,227.6 L-0.1,227.8 L-0.0,230.5 L-3.6,230.7 L-3.8,224.4 L-4.9,224.4 L-5.0,222.4 L-4.0,222.4 L-4.1,220.1 L-0.5,220.0 L-0.7,216.7 L5.3,216.5 Z" fill="#d6d2c9" stroke="#bab6ad" stroke-width="0.4"></path><path d="M40.6,219.2 L40.7,222.4 L50.0,222.1 L50.2,229.0 L41.1,229.3 L41.0,227.9 L35.8,228.1 L35.5,219.4 L40.6,219.2 Z" fill="#d6d2c9" stroke="#bab6ad" stroke-width="0.4"></path><path d="M53.6,61.2 L53.6,62.3 L56.8,62.2 L57.1,72.5 L46.7,72.8 L46.6,68.5 L45.3,68.6 L45.1,61.4 L53.6,61.2 Z" fill="#d6d2c9" stroke="#bab6ad" stroke-width="0.4"></path><path d="M7.4,105.6 L7.7,114.0 L6.5,114.0 L6.8,122.0 L-1.0,122.3 L-1.1,119.9 L-1.6,119.9 L-1.8,113.3 L-7.2,113.5 L-7.5,106.2 L7.4,105.6 Z" fill="#d6d2c9" stroke="#bab6ad" stroke-width="0.4"></path><path d="M50.2,193.9 L50.3,196.4 L52.8,196.3 L52.9,200.8 L45.9,200.9 L45.7,194.0 L50.2,193.9 Z" fill="#d6d2c9" stroke="#bab6ad" stroke-width="0.4"></path><path d="M62.1,254.0 L47.7,254.7 L47.4,247.7 L61.7,247.0 L61.9,250.5 L62.1,254.0 Z" fill="#d6d2c9" stroke="#bab6ad" stroke-width="0.4"></path><path d="M41.2,203.7 L41.7,216.2 L32.5,216.6 L32.4,214.6 L34.2,214.5 L33.9,207.3 L32.1,207.4 L32.0,204.1 L41.2,203.7 Z" fill="#d6d2c9" stroke="#bab6ad" stroke-width="0.4"></path><path d="M23.7,120.1 L15.5,120.4 L14.9,106.2 L24.8,105.8 L24.9,109.3 L23.4,109.4 L23.7,120.1 Z" fill="#d6d2c9" stroke="#bab6ad" stroke-width="0.4"></path><path d="M149.5,224.0 L140.0,224.4 L139.8,220.6 L139.7,216.7 L149.2,216.4 L149.5,224.0 Z" fill="#d6d2c9" stroke="#bab6ad" stroke-width="0.4"></path><path d="M91.5,205.2 L86.9,205.4 L86.4,194.3 L95.3,193.8 L95.3,193.3 L97.4,193.2 L99.6,193.1 L100.1,204.0 L96.2,204.2 L96.2,205.0 L91.5,205.2 Z" fill="#d6d2c9" stroke="#bab6ad" stroke-width="0.4"></path><path d="M238.1,198.7 L238.1,199.3 L248.8,198.9 L249.0,206.1 L247.4,206.2 L247.5,208.2 L243.0,208.3 L242.9,206.6 L234.5,206.9 L234.2,198.8 L238.1,198.7 Z" fill="#d6d2c9" stroke="#bab6ad" stroke-width="0.4"></path><path d="M97.2,167.0 L86.8,167.4 L86.5,159.2 L96.9,158.8 L97.2,167.0 Z" fill="#d6d2c9" stroke="#bab6ad" stroke-width="0.4"></path><path d="M111.1,245.5 L94.8,245.5 L94.8,233.6 L111.1,233.6 L111.1,245.5 Z" fill="#d6d2c9" stroke="#bab6ad" stroke-width="0.4"></path><path d="M175.8,190.6 L176.7,207.4 L167.9,207.9 L167.6,202.5 L168.1,202.5 L167.8,197.4 L164.9,197.6 L164.6,192.9 L167.8,192.7 L167.7,191.1 L175.8,190.6 Z" fill="#d6d2c9" stroke="#bab6ad" stroke-width="0.4"></path><path d="M240.3,55.5 L228.3,56.0 L227.9,48.5 L233.1,48.2 L232.9,45.0 L241.9,44.6 L242.2,53.2 L240.2,53.3 L240.3,55.5 Z" fill="#d6d2c9" stroke="#bab6ad" stroke-width="0.4"></path><path d="M196.6,61.6 L196.7,62.9 L203.8,62.8 L203.9,70.1 L192.0,70.4 L191.8,61.7 L196.6,61.6 Z" fill="#d6d2c9" stroke="#bab6ad" stroke-width="0.4"></path><path d="M127.4,154.1 L127.4,155.6 L132.9,155.4 L133.1,163.6 L130.0,163.7 L130.1,165.9 L126.1,166.0 L126.1,164.2 L122.9,164.3 L122.6,155.6 L123.0,154.2 L127.4,154.1 Z" fill="#d6d2c9" stroke="#bab6ad" stroke-width="0.4"></path><path d="M97.7,129.7 L97.7,130.7 L101.2,130.6 L101.5,139.5 L100.5,139.5 L97.5,139.6 L96.2,139.2 L96.3,140.2 L92.0,140.3 L87.7,140.5 L87.6,137.2 L85.5,137.2 L85.5,133.4 L87.4,133.4 L87.4,130.2 L97.7,129.7 Z" fill="#d6d2c9" stroke="#bab6ad" stroke-width="0.4"></path><path d="M168.9,94.9 L169.0,96.4 L173.1,96.3 L173.3,100.4 L173.4,104.5 L171.2,104.6 L171.4,110.3 L162.0,110.6 L161.8,103.9 L163.3,103.8 L163.3,102.6 L164.4,102.5 L164.4,100.6 L161.3,100.7 L161.2,98.0 L161.1,95.2 L168.9,94.9 Z" fill="#d6d2c9" stroke="#bab6ad" stroke-width="0.4"></path><path d="M236.2,127.3 L236.2,128.0 L244.0,127.7 L244.2,134.7 L242.2,134.8 L242.2,135.2 L234.0,135.5 L234.0,137.7 L230.1,137.8 L229.8,127.5 L236.2,127.3 Z" fill="#d6d2c9" stroke="#bab6ad" stroke-width="0.4"></path><path d="M136.6,76.2 L131.5,76.3 L131.3,70.0 L136.4,69.8 L136.6,76.2 Z" fill="#d6d2c9" stroke="#bab6ad" stroke-width="0.4"></path><path d="M94.1,143.6 L94.3,149.6 L104.7,149.1 L104.9,154.0 L86.4,154.9 L85.8,144.0 L94.1,143.6 Z" fill="#d6d2c9" stroke="#bab6ad" stroke-width="0.4"></path><path d="M144.0,59.7 L144.3,68.8 L136.0,69.1 L136.0,69.5 L134.2,69.6 L132.3,69.7 L132.1,60.0 L133.8,59.9 L135.6,59.9 L135.7,62.1 L139.5,62.0 L139.5,59.8 L141.8,59.7 L144.0,59.7 Z" fill="#d6d2c9" stroke="#bab6ad" stroke-width="0.4"></path><path d="M148.7,226.7 L148.8,227.9 L150.5,227.9 L150.6,231.3 L146.4,231.4 L146.6,235.1 L137.8,235.4 L137.5,227.1 L148.7,226.7 Z" fill="#d6d2c9" stroke="#bab6ad" stroke-width="0.4"></path><path d="M128.3,110.0 L120.8,110.3 L120.6,104.0 L120.4,97.7 L127.9,97.4 L128.1,103.7 L128.3,110.0 Z" fill="#d6d2c9" stroke="#bab6ad" stroke-width="0.4"></path><path d="M95.8,115.4 L95.9,116.8 L97.0,116.7 L97.1,118.3 L97.1,120.0 L95.5,120.0 L95.7,125.6 L87.3,125.9 L87.2,123.0 L85.2,123.0 L85.1,121.1 L85.1,119.1 L87.0,119.1 L86.9,115.7 L95.8,115.4 Z" fill="#d6d2c9" stroke="#bab6ad" stroke-width="0.4"></path><path d="M130.3,192.4 L130.4,193.7 L134.6,193.5 L134.7,197.6 L134.9,201.8 L129.9,202.0 L130.0,203.8 L132.0,203.7 L132.1,205.2 L132.2,206.7 L130.1,206.8 L130.2,207.8 L122.8,208.1 L122.4,200.1 L122.9,200.1 L122.6,192.7 L126.4,192.6 L130.3,192.4 Z" fill="#d6d2c9" stroke="#bab6ad" stroke-width="0.4"></path><path d="M117.7,193.2 L118.0,201.5 L112.4,201.7 L112.6,207.8 L107.3,208.0 L107.1,201.1 L108.2,201.1 L108.1,199.9 L106.2,200.0 L106.0,193.1 L117.7,193.2 Z" fill="#d6d2c9" stroke="#bab6ad" stroke-width="0.4"></path><path d="M146.4,203.0 L146.4,203.5 L149.0,203.4 L149.2,207.9 L143.7,208.0 L143.5,203.3 L140.8,203.4 L140.4,190.2 L148.0,189.9 L148.5,202.9 L146.4,203.0 Z" fill="#d6d2c9" stroke="#bab6ad" stroke-width="0.4"></path><path d="M143.5,110.4 L134.2,110.7 L133.8,97.4 L143.1,97.1 L143.5,110.4 Z" fill="#d6d2c9" stroke="#bab6ad" stroke-width="0.4"></path><path d="M151.0,90.5 L151.2,94.1 L155.1,93.9 L155.3,98.2 L159.0,98.0 L159.4,105.4 L154.6,105.7 L154.7,107.0 L159.5,106.7 L159.9,113.7 L148.1,114.4 L147.2,97.2 L146.6,97.3 L146.2,90.8 L151.0,90.5 Z" fill="#d6d2c9" stroke="#bab6ad" stroke-width="0.4"></path><path d="M199.1,41.5 L199.3,45.9 L192.3,46.2 L192.1,42.1 L189.4,42.2 L189.1,35.2 L201.1,34.7 L201.3,41.4 L199.1,41.5 Z" fill="#d6d2c9" stroke="#bab6ad" stroke-width="0.4"></path><path d="M159.1,151.4 L159.2,155.3 L161.7,155.2 L161.8,159.2 L162.0,163.2 L157.8,163.3 L157.9,164.7 L150.1,165.0 L149.9,159.7 L153.1,159.6 L152.8,151.6 L159.1,151.4 Z" fill="#d6d2c9" stroke="#bab6ad" stroke-width="0.4"></path><path d="M149.7,237.5 L149.9,241.4 L150.4,241.4 L150.9,258.6 L147.3,258.8 L147.4,260.9 L143.1,261.1 L143.0,258.9 L140.6,259.0 L140.0,241.8 L142.4,241.7 L142.3,237.8 L149.7,237.5 Z" fill="#d6d2c9" stroke="#bab6ad" stroke-width="0.4"></path><path d="M176.2,24.1 L176.3,26.6 L187.5,26.4 L187.7,33.2 L173.4,33.6 L173.2,24.2 L176.2,24.1 Z" fill="#d6d2c9" stroke="#bab6ad" stroke-width="0.4"></path><path d="M189.4,96.2 L189.5,100.2 L185.4,100.3 L185.5,101.5 L183.5,101.5 L181.5,101.6 L181.4,98.4 L179.4,98.5 L179.3,95.5 L179.3,92.5 L189.4,92.3 L189.4,96.2 Z" fill="#d6d2c9" stroke="#bab6ad" stroke-width="0.4"></path><path d="M120.0,166.3 L109.4,166.7 L109.1,158.2 L119.7,157.9 L120.0,166.3 Z" fill="#d6d2c9" stroke="#bab6ad" stroke-width="0.4"></path><path d="M203.1,155.1 L203.4,164.8 L199.9,164.9 L196.3,165.0 L196.1,159.5 L194.2,159.6 L194.2,161.1 L185.1,161.5 L185.0,158.7 L184.9,155.9 L203.1,155.1 Z" fill="#d6d2c9" stroke="#bab6ad" stroke-width="0.4"></path><path d="M209.4,221.9 L193.1,222.6 L192.9,218.9 L197.5,218.7 L197.4,215.5 L198.4,215.5 L198.2,211.4 L208.9,210.9 L209.4,221.9 Z" fill="#d6d2c9" stroke="#bab6ad" stroke-width="0.4"></path><path d="M159.6,259.5 L152.7,259.8 L152.4,252.6 L156.1,252.4 L155.7,243.8 L159.2,243.6 L159.1,242.6 L163.0,242.5 L163.7,257.9 L159.5,258.1 L159.6,259.5 Z" fill="#d6d2c9" stroke="#bab6ad" stroke-width="0.4"></path><path d="M147.5,155.6 L147.8,163.5 L143.5,163.7 L143.5,165.2 L139.1,165.3 L139.0,162.3 L135.9,162.4 L135.8,159.7 L135.7,157.0 L138.8,156.9 L138.8,155.9 L147.5,155.6 Z" fill="#d6d2c9" stroke="#bab6ad" stroke-width="0.4"></path><path d="M250.2,225.0 L236.1,225.6 L235.8,217.2 L250.0,216.8 L250.1,220.9 L250.2,225.0 Z" fill="#d6d2c9" stroke="#bab6ad" stroke-width="0.4"></path><path d="M125.8,55.2 L126.0,58.3 L129.0,58.2 L129.7,72.2 L117.1,72.8 L117.0,71.3 L117.0,69.8 L118.0,69.8 L117.8,64.2 L120.6,64.1 L120.3,57.4 L123.3,57.3 L123.2,55.3 L124.5,55.2 L125.8,55.2 Z" fill="#d6d2c9" stroke="#bab6ad" stroke-width="0.4"></path><path d="M176.2,164.1 L164.7,164.7 L163.8,147.9 L175.3,147.3 L176.2,164.1 Z" fill="#d6d2c9" stroke="#bab6ad" stroke-width="0.4"></path><path d="M207.7,224.1 L207.9,228.7 L210.2,228.6 L210.5,234.3 L208.3,234.4 L208.4,236.0 L195.9,236.6 L195.8,234.0 L195.7,231.5 L196.9,231.4 L196.7,227.4 L202.8,227.1 L202.7,224.4 L205.1,224.3 L205.2,224.3 L207.7,224.1 Z" fill="#d6d2c9" stroke="#bab6ad" stroke-width="0.4"></path><path d="M249.0,258.3 L237.7,258.6 L237.3,244.6 L248.6,244.3 L248.8,251.3 L249.0,258.3 Z" fill="#d6d2c9" stroke="#bab6ad" stroke-width="0.4"></path><path d="M204.4,113.0 L183.2,113.7 L182.9,104.0 L204.1,103.3 L204.4,113.0 Z" fill="#d6d2c9" stroke="#bab6ad" stroke-width="0.4"></path><path d="M242.5,226.9 L242.6,230.0 L246.3,229.9 L246.3,230.5 L248.4,230.4 L248.5,234.7 L246.6,234.8 L246.7,239.8 L237.3,240.1 L237.2,235.6 L235.4,235.7 L235.3,227.0 L242.5,226.9 Z" fill="#d6d2c9" stroke="#bab6ad" stroke-width="0.4"></path><path d="M106.7,210.9 L102.5,211.0 L102.3,203.3 L106.5,203.2 L106.7,210.9 Z" fill="#d6d2c9" stroke="#bab6ad" stroke-width="0.4"></path><path d="M209.3,208.2 L199.7,208.7 L199.2,197.9 L208.8,197.4 L209.3,208.2 Z" fill="#d6d2c9" stroke="#bab6ad" stroke-width="0.4"></path><path d="M207.4,12.9 L194.9,13.0" fill="none" stroke="#cec8bb" stroke-width="3.2" stroke-linecap="round" stroke-linejoin="round"/><path d="M207.4,12.9 L194.9,13.0" fill="none" stroke="#ffffff" stroke-width="2.2" stroke-linecap="round" stroke-linejoin="round"></path><path d="M214.5,12.6 L207.4,12.9" fill="none" stroke="#cec8bb" stroke-width="3.2" stroke-linecap="round" stroke-linejoin="round"/><path d="M214.5,12.6 L207.4,12.9" fill="none" stroke="#ffffff" stroke-width="2.2" stroke-linecap="round" stroke-linejoin="round"></path><path d="M122.7,-13.1 L122.8,-3.7 L123.8,10.1 L124.5,23.3" fill="none" stroke="#cec8bb" stroke-width="3.2" stroke-linecap="round" stroke-linejoin="round"/><path d="M122.7,-13.1 L122.8,-3.7 L123.8,10.1 L124.5,23.3" fill="none" stroke="#ffffff" stroke-width="2.2" stroke-linecap="round" stroke-linejoin="round"></path><path d="M32.5,1.0 L33.1,22.0" fill="none" stroke="#cec8bb" stroke-width="3.2" stroke-linecap="round" stroke-linejoin="round"/><path d="M32.5,1.0 L33.1,22.0" fill="none" stroke="#ffffff" stroke-width="2.2" stroke-linecap="round" stroke-linejoin="round"></path><path d="M31.7,-10.2 L32.5,1.0" fill="none" stroke="#cec8bb" stroke-width="3.2" stroke-linecap="round" stroke-linejoin="round"/><path d="M31.7,-10.2 L32.5,1.0" fill="none" stroke="#ffffff" stroke-width="2.2" stroke-linecap="round" stroke-linejoin="round"></path><path d="M76.0,276.7 L31.6,279.3 L28.4,244.3 L-15.4,244.8 L-107.9,248.8" fill="none" stroke="#cec8bb" stroke-width="4.3" stroke-linecap="round" stroke-linejoin="round"/><path d="M76.0,276.7 L31.6,279.3 L28.4,244.3 L-15.4,244.8 L-107.9,248.8" fill="none" stroke="#ffffff" stroke-width="3.2" stroke-linecap="round" stroke-linejoin="round"><title>Northwest 33rd Street</title></path><path d="M331.4,172.2 L258.7,174.2 L219.7,175.0 L73.5,180.5 L32.6,181.0" fill="none" stroke="#cec8bb" stroke-width="4.3" stroke-linecap="round" stroke-linejoin="round"/><path d="M331.4,172.2 L258.7,174.2 L219.7,175.0 L73.5,180.5 L32.6,181.0" fill="none" stroke="#ffffff" stroke-width="3.2" stroke-linecap="round" stroke-linejoin="round"><title>Northwest 34th Street</title></path><path d="M217.5,81.0 L68.9,85.8" fill="none" stroke="#cec8bb" stroke-width="4.3" stroke-linecap="round" stroke-linejoin="round"/><path d="M217.5,81.0 L68.9,85.8" fill="none" stroke="#ffffff" stroke-width="3.2" stroke-linecap="round" stroke-linejoin="round"><title>Northwest 35th Street</title></path><path d="M79.4,373.2 L76.0,276.7 L73.5,180.5 L68.9,85.8 L67.6,-11.6" fill="none" stroke="#cec8bb" stroke-width="4.3" stroke-linecap="round" stroke-linejoin="round"/><path d="M79.4,373.2 L76.0,276.7 L73.5,180.5 L68.9,85.8 L67.6,-11.6" fill="none" stroke="#ffffff" stroke-width="3.2" stroke-linecap="round" stroke-linejoin="round"><title>Northwest 11th Avenue</title></path><path d="M275.3,304.2 L261.0,286.4 L258.7,174.2 L251.9,-17.1" fill="none" stroke="#cec8bb" stroke-width="4.3" stroke-linecap="round" stroke-linejoin="round"/><path d="M275.3,304.2 L261.0,286.4 L258.7,174.2 L251.9,-17.1" fill="none" stroke="#ffffff" stroke-width="3.2" stroke-linecap="round" stroke-linejoin="round"><title>Northwest 9th Court</title></path><path d="M225.8,368.2 L223.1,272.9 L219.7,175.0 L217.5,81.0 L214.5,12.6 L213.5,-16.4" fill="none" stroke="#d1c4aa" stroke-width="4.9" stroke-linecap="round" stroke-linejoin="round"/><path d="M225.8,368.2 L223.1,272.9 L219.7,175.0 L217.5,81.0 L214.5,12.6 L213.5,-16.4" fill="none" stroke="#f4d99b" stroke-width="3.5" stroke-linecap="round" stroke-linejoin="round"><title>Northwest 10th Avenue</title></path><text x="234.6" y="14.0" text-anchor="middle" font-family="Arial, sans-serif" font-size="8" font-weight="600" paint-order="stroke" stroke="#fbf7ed" stroke-width="1.9" stroke-linejoin="round" fill="#514a42" textLength="30.7" lengthAdjust="spacing">Sunoco</text><text x="218.6" y="128.0" transform="rotate(88.6 218.6 128.0)" text-anchor="middle" dominant-baseline="central" font-family="Arial, sans-serif" font-size="8.3" textLength="111.6" lengthAdjust="spacing" font-weight="650" paint-order="stroke" stroke="#fffaf0" stroke-width="2.05" stroke-linejoin="round" fill="#6f573d">Northwest 10th Avenue</text><text x="146.6" y="177.7" transform="rotate(-2.1 146.6 177.7)" text-anchor="middle" dominant-baseline="central" font-family="Arial, sans-serif" font-size="8.3" textLength="111.6" lengthAdjust="spacing" font-weight="650" paint-order="stroke" stroke="#fffaf0" stroke-width="2.05" stroke-linejoin="round" fill="#695f54">Northwest 34th Street</text><text x="143.2" y="83.4" transform="rotate(-1.9 143.2 83.4)" text-anchor="middle" dominant-baseline="central" font-family="Arial, sans-serif" font-size="8.3" textLength="111.6" lengthAdjust="spacing" font-weight="650" paint-order="stroke" stroke="#fffaf0" stroke-width="2.05" stroke-linejoin="round" fill="#695f54">Northwest 35th Street</text><text x="71.2" y="133.1" transform="rotate(87.2 71.2 133.1)" text-anchor="middle" dominant-baseline="central" font-family="Arial, sans-serif" font-size="8.3" textLength="111.6" lengthAdjust="spacing" font-weight="650" paint-order="stroke" stroke="#fffaf0" stroke-width="2.05" stroke-linejoin="round" fill="#695f54">Northwest 11th Avenue</text><text x="15.0" y="17.7" text-anchor="middle" font-family="Arial, sans-serif" font-size="6.5" textLength="18.0" lengthAdjust="spacing" font-weight="500" paint-order="stroke" stroke="#f3f5ee" stroke-width="1.55" stroke-linejoin="round" fill="#6f777a">1140</text><text x="158.3" y="16.5" text-anchor="middle" font-family="Arial, sans-serif" font-size="6.5" textLength="18.0" lengthAdjust="spacing" font-weight="500" paint-order="stroke" stroke="#f3f5ee" stroke-width="1.55" stroke-linejoin="round" fill="#6f777a">1022</text><text x="96.3" y="46.7" text-anchor="middle" font-family="Arial, sans-serif" font-size="6.5" textLength="18.0" lengthAdjust="spacing" font-weight="500" paint-order="stroke" stroke="#f3f5ee" stroke-width="1.55" stroke-linejoin="round" fill="#6f777a">3505</text><text x="55.6" y="16.5" text-anchor="middle" font-family="Arial, sans-serif" font-size="6.5" textLength="18.0" lengthAdjust="spacing" font-weight="500" paint-order="stroke" stroke="#f3f5ee" stroke-width="1.55" stroke-linejoin="round" fill="#6f777a">1100</text><text x="237.1" y="101.9" text-anchor="middle" font-family="Arial, sans-serif" font-size="6.5" textLength="18.0" lengthAdjust="spacing" font-weight="500" paint-order="stroke" stroke="#f3f5ee" stroke-width="1.55" stroke-linejoin="round" fill="#6f777a">3430</text><text x="237.5" y="118.2" text-anchor="middle" font-family="Arial, sans-serif" font-size="6.5" textLength="18.0" lengthAdjust="spacing" font-weight="500" paint-order="stroke" stroke="#f3f5ee" stroke-width="1.55" stroke-linejoin="round" fill="#6f777a">3420</text><text x="98.4" y="223.8" text-anchor="middle" font-family="Arial, sans-serif" font-size="6.5" textLength="18.0" lengthAdjust="spacing" font-weight="500" paint-order="stroke" stroke="#f3f5ee" stroke-width="1.55" stroke-linejoin="round" fill="#6f777a">3323</text><text x="236.4" y="82.3" text-anchor="middle" font-family="Arial, sans-serif" font-size="6.5" textLength="18.0" lengthAdjust="spacing" font-weight="500" paint-order="stroke" stroke="#f3f5ee" stroke-width="1.55" stroke-linejoin="round" fill="#6f777a">3440</text><text x="95.2" y="19.7" text-anchor="middle" font-family="Arial, sans-serif" font-size="6.5" textLength="18.0" lengthAdjust="spacing" font-weight="500" paint-order="stroke" stroke="#f3f5ee" stroke-width="1.55" stroke-linejoin="round" fill="#6f777a">1068</text><text x="135.6" y="16.5" text-anchor="middle" font-family="Arial, sans-serif" font-size="6.5" textLength="18.0" lengthAdjust="spacing" font-weight="500" paint-order="stroke" stroke="#f3f5ee" stroke-width="1.55" stroke-linejoin="round" fill="#6f777a">1038</text><text x="97.1" y="69.3" text-anchor="middle" font-family="Arial, sans-serif" font-size="6.5" textLength="18.0" lengthAdjust="spacing" font-weight="500" paint-order="stroke" stroke="#f3f5ee" stroke-width="1.55" stroke-linejoin="round" fill="#6f777a">3501</text><text x="174.0" y="246.0" text-anchor="middle" font-family="Arial, sans-serif" font-size="6.5" textLength="18.0" lengthAdjust="spacing" font-weight="500" paint-order="stroke" stroke="#f3f5ee" stroke-width="1.55" stroke-linejoin="round" fill="#6f777a">1025</text><text x="152.0" y="55.3" text-anchor="middle" font-family="Arial, sans-serif" font-size="6.5" textLength="18.0" lengthAdjust="spacing" font-weight="500" paint-order="stroke" stroke="#f3f5ee" stroke-width="1.55" stroke-linejoin="round" fill="#6f777a">1035</text><text x="50.2" y="115.0" text-anchor="middle" font-family="Arial, sans-serif" font-size="6.5" textLength="18.0" lengthAdjust="spacing" font-weight="500" paint-order="stroke" stroke="#f3f5ee" stroke-width="1.55" stroke-linejoin="round" fill="#6f777a">3450</text><text x="236.3" y="66.1" text-anchor="middle" font-family="Arial, sans-serif" font-size="6.5" textLength="18.0" lengthAdjust="spacing" font-weight="500" paint-order="stroke" stroke="#f3f5ee" stroke-width="1.55" stroke-linejoin="round" fill="#6f777a">3546</text><text x="15.0" y="153.6" text-anchor="middle" font-family="Arial, sans-serif" font-size="6.5" textLength="18.0" lengthAdjust="spacing" font-weight="500" paint-order="stroke" stroke="#f3f5ee" stroke-width="1.55" stroke-linejoin="round" fill="#6f777a">3411</text><text x="15.0" y="133.7" text-anchor="middle" font-family="Arial, sans-serif" font-size="6.5" textLength="18.0" lengthAdjust="spacing" font-weight="500" paint-order="stroke" stroke="#f3f5ee" stroke-width="1.55" stroke-linejoin="round" fill="#6f777a">3419</text><text x="40.7" y="164.7" text-anchor="middle" font-family="Arial, sans-serif" font-size="6.5" textLength="18.0" lengthAdjust="spacing" font-weight="500" paint-order="stroke" stroke="#f3f5ee" stroke-width="1.55" stroke-linejoin="round" fill="#6f777a">1109</text><text x="55.8" y="208.3" text-anchor="middle" font-family="Arial, sans-serif" font-size="6.5" textLength="18.0" lengthAdjust="spacing" font-weight="500" paint-order="stroke" stroke="#f3f5ee" stroke-width="1.55" stroke-linejoin="round" fill="#6f777a">3350</text><text x="55.5" y="235.5" text-anchor="middle" font-family="Arial, sans-serif" font-size="6.5" textLength="18.0" lengthAdjust="spacing" font-weight="500" paint-order="stroke" stroke="#f3f5ee" stroke-width="1.55" stroke-linejoin="round" fill="#6f777a">3316</text><text x="15.0" y="94.5" text-anchor="middle" font-family="Arial, sans-serif" font-size="6.5" textLength="18.0" lengthAdjust="spacing" font-weight="500" paint-order="stroke" stroke="#f3f5ee" stroke-width="1.55" stroke-linejoin="round" fill="#6f777a">3453</text><text x="15.0" y="46.5" text-anchor="middle" font-family="Arial, sans-serif" font-size="6.5" textLength="18.0" lengthAdjust="spacing" font-weight="500" paint-order="stroke" stroke="#f3f5ee" stroke-width="1.55" stroke-linejoin="round" fill="#6f777a">3511</text><text x="47.1" y="54.1" text-anchor="middle" font-family="Arial, sans-serif" font-size="6.5" textLength="18.0" lengthAdjust="spacing" font-weight="500" paint-order="stroke" stroke="#f3f5ee" stroke-width="1.55" stroke-linejoin="round" fill="#6f777a">3518</text><text x="16.0" y="172.4" text-anchor="middle" font-family="Arial, sans-serif" font-size="6.5" textLength="18.0" lengthAdjust="spacing" font-weight="500" paint-order="stroke" stroke="#f3f5ee" stroke-width="1.55" stroke-linejoin="round" fill="#6f777a">3401</text><text x="47.8" y="138.6" text-anchor="middle" font-family="Arial, sans-serif" font-size="6.5" textLength="18.0" lengthAdjust="spacing" font-weight="500" paint-order="stroke" stroke="#f3f5ee" stroke-width="1.55" stroke-linejoin="round" fill="#6f777a">3418</text><text x="15.0" y="115.1" text-anchor="middle" font-family="Arial, sans-serif" font-size="6.5" textLength="18.0" lengthAdjust="spacing" font-weight="500" paint-order="stroke" stroke="#f3f5ee" stroke-width="1.55" stroke-linejoin="round" fill="#6f777a">3435</text><text x="35.0" y="210.6" text-anchor="middle" font-family="Arial, sans-serif" font-size="6.5" textLength="18.0" lengthAdjust="spacing" font-weight="500" paint-order="stroke" stroke="#f3f5ee" stroke-width="1.55" stroke-linejoin="round" fill="#6f777a">1110</text><text x="94.5" y="199.2" text-anchor="middle" font-family="Arial, sans-serif" font-size="6.5" textLength="18.0" lengthAdjust="spacing" font-weight="500" paint-order="stroke" stroke="#f3f5ee" stroke-width="1.55" stroke-linejoin="round" fill="#6f777a">1068</text><text x="241.0" y="203.8" text-anchor="middle" font-family="Arial, sans-serif" font-size="6.5" textLength="18.0" lengthAdjust="spacing" font-weight="500" paint-order="stroke" stroke="#f3f5ee" stroke-width="1.55" stroke-linejoin="round" fill="#6f777a">3328</text><text x="91.8" y="163.1" text-anchor="middle" font-family="Arial, sans-serif" font-size="6.5" textLength="18.0" lengthAdjust="spacing" font-weight="500" paint-order="stroke" stroke="#f3f5ee" stroke-width="1.55" stroke-linejoin="round" fill="#6f777a">3411</text><text x="103.0" y="239.6" text-anchor="middle" font-family="Arial, sans-serif" font-size="6.5" textLength="18.0" lengthAdjust="spacing" font-weight="500" paint-order="stroke" stroke="#f3f5ee" stroke-width="1.55" stroke-linejoin="round" fill="#6f777a">3315</text><text x="168.9" y="198.3" text-anchor="middle" font-family="Arial, sans-serif" font-size="6.5" textLength="18.0" lengthAdjust="spacing" font-weight="500" paint-order="stroke" stroke="#f3f5ee" stroke-width="1.55" stroke-linejoin="round" fill="#6f777a">1022</text><text x="235.9" y="50.5" text-anchor="middle" font-family="Arial, sans-serif" font-size="6.5" textLength="18.0" lengthAdjust="spacing" font-weight="500" paint-order="stroke" stroke="#f3f5ee" stroke-width="1.55" stroke-linejoin="round" fill="#6f777a">3501</text><text x="197.5" y="64.9" text-anchor="middle" font-family="Arial, sans-serif" font-size="6.5" textLength="18.0" lengthAdjust="spacing" font-weight="500" paint-order="stroke" stroke="#f3f5ee" stroke-width="1.55" stroke-linejoin="round" fill="#6f777a">3500</text><text x="127.4" y="160.2" text-anchor="middle" font-family="Arial, sans-serif" font-size="6.5" textLength="18.0" lengthAdjust="spacing" font-weight="500" paint-order="stroke" stroke="#f3f5ee" stroke-width="1.55" stroke-linejoin="round" fill="#6f777a">1041</text><text x="93.4" y="136.1" text-anchor="middle" font-family="Arial, sans-serif" font-size="6.5" textLength="18.0" lengthAdjust="spacing" font-weight="500" paint-order="stroke" stroke="#f3f5ee" stroke-width="1.55" stroke-linejoin="round" fill="#6f777a">3421</text><text x="124.3" y="103.9" text-anchor="middle" font-family="Arial, sans-serif" font-size="6.5" textLength="18.0" lengthAdjust="spacing" font-weight="500" paint-order="stroke" stroke="#f3f5ee" stroke-width="1.55" stroke-linejoin="round" fill="#6f777a">1050</text><text x="91.3" y="120.0" text-anchor="middle" font-family="Arial, sans-serif" font-size="6.5" textLength="18.0" lengthAdjust="spacing" font-weight="500" paint-order="stroke" stroke="#f3f5ee" stroke-width="1.55" stroke-linejoin="round" fill="#6f777a">3431</text><text x="129.3" y="200.5" text-anchor="middle" font-family="Arial, sans-serif" font-size="6.5" textLength="18.0" lengthAdjust="spacing" font-weight="500" paint-order="stroke" stroke="#f3f5ee" stroke-width="1.55" stroke-linejoin="round" fill="#6f777a">1048</text><text x="195.5" y="41.1" text-anchor="middle" font-family="Arial, sans-serif" font-size="6.5" textLength="18.0" lengthAdjust="spacing" font-weight="500" paint-order="stroke" stroke="#f3f5ee" stroke-width="1.55" stroke-linejoin="round" fill="#6f777a">3516</text><text x="156.9" y="158.9" text-anchor="middle" font-family="Arial, sans-serif" font-size="6.5" textLength="18.0" lengthAdjust="spacing" font-weight="500" paint-order="stroke" stroke="#f3f5ee" stroke-width="1.55" stroke-linejoin="round" fill="#6f777a">1021</text><text x="145.6" y="246.0" text-anchor="middle" font-family="Arial, sans-serif" font-size="6.5" textLength="18.0" lengthAdjust="spacing" font-weight="500" paint-order="stroke" stroke="#f3f5ee" stroke-width="1.55" stroke-linejoin="round" fill="#6f777a">1043</text><text x="194.2" y="160.6" text-anchor="middle" font-family="Arial, sans-serif" font-size="6.5" textLength="18.0" lengthAdjust="spacing" font-weight="500" paint-order="stroke" stroke="#f3f5ee" stroke-width="1.55" stroke-linejoin="round" fill="#6f777a">3400</text><text x="199.5" y="216.9" text-anchor="middle" font-family="Arial, sans-serif" font-size="6.5" textLength="18.0" lengthAdjust="spacing" font-weight="500" paint-order="stroke" stroke="#f3f5ee" stroke-width="1.55" stroke-linejoin="round" fill="#6f777a">3324</text><text x="241.0" y="221.1" text-anchor="middle" font-family="Arial, sans-serif" font-size="6.5" textLength="18.0" lengthAdjust="spacing" font-weight="500" paint-order="stroke" stroke="#f3f5ee" stroke-width="1.55" stroke-linejoin="round" fill="#6f777a">3314</text><text x="122.1" y="62.9" text-anchor="middle" font-family="Arial, sans-serif" font-size="6.5" textLength="18.0" lengthAdjust="spacing" font-weight="500" paint-order="stroke" stroke="#f3f5ee" stroke-width="1.55" stroke-linejoin="round" fill="#6f777a">1043</text><text x="241.0" y="246.0" text-anchor="middle" font-family="Arial, sans-serif" font-size="6.5" textLength="18.0" lengthAdjust="spacing" font-weight="500" paint-order="stroke" stroke="#f3f5ee" stroke-width="1.55" stroke-linejoin="round" fill="#6f777a">3310</text><text x="193.6" y="108.5" text-anchor="middle" font-family="Arial, sans-serif" font-size="6.5" textLength="18.0" lengthAdjust="spacing" font-weight="500" paint-order="stroke" stroke="#f3f5ee" stroke-width="1.55" stroke-linejoin="round" fill="#6f777a">3430</text><text x="15.0" y="201.4" text-anchor="middle" font-family="Arial, sans-serif" font-size="6.5" textLength="18.0" lengthAdjust="spacing" font-weight="500" paint-order="stroke" stroke="#f3f5ee" stroke-width="1.55" stroke-linejoin="round" fill="#6f777a">3347</text><text x="46.6" y="88.4" text-anchor="middle" font-family="Arial, sans-serif" font-size="6.5" textLength="18.0" lengthAdjust="spacing" font-weight="500" paint-order="stroke" stroke="#f3f5ee" stroke-width="1.55" stroke-linejoin="round" fill="#6f777a">3500</text><text x="15.0" y="225.4" text-anchor="middle" font-family="Arial, sans-serif" font-size="6.5" textLength="18.0" lengthAdjust="spacing" font-weight="500" paint-order="stroke" stroke="#f3f5ee" stroke-width="1.55" stroke-linejoin="round" fill="#6f777a">3301</text><text x="15.0" y="63.2" text-anchor="middle" font-family="Arial, sans-serif" font-size="6.5" textLength="18.0" lengthAdjust="spacing" font-weight="500" paint-order="stroke" stroke="#f3f5ee" stroke-width="1.55" stroke-linejoin="round" fill="#6f777a">3501</text><text x="45.3" y="37.8" text-anchor="middle" font-family="Arial, sans-serif" font-size="6.5" textLength="18.0" lengthAdjust="spacing" font-weight="500" paint-order="stroke" stroke="#f3f5ee" stroke-width="1.55" stroke-linejoin="round" fill="#6f777a">3520</text><text x="199.3" y="132.1" text-anchor="middle" font-family="Arial, sans-serif" font-size="6.5" textLength="18.0" lengthAdjust="spacing" font-weight="500" paint-order="stroke" stroke="#f3f5ee" stroke-width="1.55" stroke-linejoin="round" fill="#6f777a">3420</text><text x="187.8" y="16.5" text-anchor="middle" font-family="Arial, sans-serif" font-size="6.5" textLength="18.0" lengthAdjust="spacing" font-weight="500" paint-order="stroke" stroke="#f3f5ee" stroke-width="1.55" stroke-linejoin="round" fill="#6f777a">1010</text><text x="198.2" y="243.0" text-anchor="middle" font-family="Arial, sans-serif" font-size="6.5" textLength="18.0" lengthAdjust="spacing" font-weight="500" paint-order="stroke" stroke="#f3f5ee" stroke-width="1.55" stroke-linejoin="round" fill="#6f777a">3306</text><text x="241.0" y="149.2" text-anchor="middle" font-family="Arial, sans-serif" font-size="6.5" textLength="18.0" lengthAdjust="spacing" font-weight="500" paint-order="stroke" stroke="#f3f5ee" stroke-width="1.55" stroke-linejoin="round" fill="#6f777a">3406</text></svg>