<svg xmlns="http://www.w3.org/2000/svg" width="256" height="256" viewBox="0 0 256 256"><defs><pattern id="park-dots" width="22" height="22" patternUnits="userSpaceOnUse"><circle cx="5" cy="5" r="2.1" fill="#63a95d" fill-opacity="0.26"/><circle cx="16" cy="7" r="1.55" fill="#76b970" fill-opacity="0.23"/><circle cx="10" cy="17" r="1.9" fill="#61a65b" fill-opacity="0.24"/><circle cx="21" cy="17" r="1.25" fill="#80c174" fill-opacity="0.18"/><circle cx="1" cy="19" r="1.2" fill="#70b46a" fill-opacity="0.17"/></pattern><pattern id="park-canopy" width="54" height="48" patternUnits="userSpaceOnUse"><circle cx="12" cy="11" r="3.6" fill="#5ea75a" fill-opacity="0.22"/><circle cx="31" cy="15" r="2.9" fill="#75ba6d" fill-opacity="0.18"/><circle cx="45" cy="31" r="3.3" fill="#67ae62" fill-opacity="0.20"/><circle cx="19" cy="39" r="2.5" fill="#83c378" fill-opacity="0.16"/></pattern></defs><rect width="256" height="256" fill="#f1efe7"/><path d="M-2933.4,4747.7 L-3205.5,4546.9 L-3227.3,4530.9 L-3250.9,4525.8 L-3267.5,4511.7 L-3280.8,4510.2 L-3323.8,4513.1 L-3323.8,4509.0 L-3326.2,4505.2 L-3330.9,4502.3 L-3424.3,4461.8 L-3430.7,4458.9 L-3436.2,4457.3 L-3443.1,4456.7 L-3450.1,4456.6 L-3473.3,4456.6 L-3479.5,4456.2 L-3485.5,4455.1 L-3491.9,4452.6 L-3499.6,4450.5 L-3505.2,4450.0 L-3521.7,4449.3 L-3527.1,4448.3 L-3534.1,4446.1 L-3541.0,4444.3 L-3547.7,4442.7 L-3552.9,4440.7 L-3559.1,4436.8 L-3564.8,4432.6 L-3570.2,4428.5 L-3574.6,4426.3 L-3578.1,4425.7 L-3581.1,4425.8 L-3584.3,4426.8 L-3588.1,4428.7 L-3591.1,4432.0 L-3595.2,4436.0 L-3599.7,4440.1 L-3604.8,4442.9 L-3611.2,4445.0 L-3616.6,4446.3 L-3623.1,4447.3 L-3633.8,4448.6 L-3660.9,4449.8 L-3683.9,4451.0 L-3693.9,4454.5 L-3714.2,4455.2 L-3716.9,4451.0 L-3719.9,4449.1 L-3723.1,4448.4 L-3745.0,4449.7 L-3754.5,4453.1 L-3766.2,4453.2 L-3774.0,4452.1 L-3780.5,4450.1 L-3804.0,4451.5 L-3866.3,4456.3 L-3880.7,4456.8 L-3885.6,4456.7 L-3889.9,4455.5 L-3895.1,4453.0 L-3898.8,4450.0 L-3915.0,4450.1 L-3928.6,4449.9 L-3932.2,4452.1 L-3950.9,4452.5 L-3953.3,4456.5 L-3955.9,4456.6 L-3960.5,4455.5 L-3968.8,4454.5 L-3977.2,4454.9 L-3979.9,4455.8 L-3982.5,4455.3 L-3984.3,4453.5 L-3987.4,4451.8 L-3998.7,4451.8 L-4010.2,4452.5 L-4021.0,4458.8 L-4026.4,4461.4 L-4032.4,4462.7 L-4037.5,4463.1 L-4042.1,4462.4 L-4052.5,4457.9 L-4058.5,4456.0 L-4063.7,4455.3 L-4086.0,4455.6 L-4087.4,4452.9 L-4107.1,4453.3 L-4120.7,4455.8 L-4129.7,4456.8 L-4134.5,4457.9 L-4136.3,4456.6 L-4139.8,4456.2 L-4171.6,4453.3 L-4174.3,4454.8 L-4177.7,4455.5 L-4182.1,4455.5 L-4182.1,4453.9 L-4201.9,4450.3 L-4214.3,4447.9 L-4244.4,4437.7 L-4246.1,4440.0 L-4266.2,4433.8 L-4270.4,4432.4 L-4268.3,4425.4 L-4270.7,4424.6 L-4271.2,4423.9 L-4272.5,4423.5 L-4274.3,4423.2 L-4276.5,4422.2 L-4275.7,4421.5 L-4284.6,4414.2 L-4299.4,4400.8 L-4307.4,4393.9 L-4313.1,4387.7 L-4316.2,4383.6 L-4320.9,4377.1 L-4323.6,4372.2 L-4332.0,4361.6 L-4332.8,4361.1 L-4333.4,4361.0 L-4333.9,4361.1 L-4335.1,4361.1 L-4336.1,4360.7 L-4338.1,4359.3 L-4342.4,4357.0 L-4344.6,4355.3 L-4347.0,4353.1 L-4350.3,4351.3 L-4355.6,4349.6 L-4361.2,4348.7 L-4365.9,4348.5 L-4364.6,4336.0 L-4363.4,4319.5 L-4358.3,4320.0 L-4353.1,4320.9 L-4346.4,4322.9 L-4341.4,4324.7 L-4337.0,4326.8 L-4332.7,4328.8 L-4328.7,4331.1 L-4325.3,4333.6 L-4321.0,4337.1 L-4316.4,4340.5 L-4315.3,4341.1 L-4314.4,4341.4 L-4301.7,4340.8 L-4301.6,4343.6 L-4302.4,4344.9 L-4311.8,4345.8 L-4309.4,4350.7 L-4307.8,4350.1 L-4306.2,4351.6 L-4305.3,4353.1 L-4304.5,4354.1 L-4302.5,4356.7 L-4301.8,4359.6 L-4298.7,4363.8 L-4291.5,4368.4 L-4282.6,4372.9 L-4271.9,4379.6 L-4267.0,4381.9 L-4256.7,4387.8 L-4251.9,4390.3 L-4243.0,4393.6 L-4225.6,4398.3 L-4215.4,4400.7 L-4206.1,4401.7 L-4201.2,4402.3 L-4200.1,4402.2 L-4199.6,4401.6 L-4199.4,4398.3 L-4187.9,4398.2 L-4187.7,4402.0 L-4163.5,4403.2 L-4139.8,4403.9 L-4123.8,4403.3 L-4118.5,4402.9 L-4114.7,4402.4 L-4111.5,4401.5 L-4108.6,4399.8 L-4107.2,4397.4 L-4107.7,4358.7 L-4098.0,4358.1 L-4097.1,4395.9 L-4096.6,4396.9 L-4094.6,4398.2 L-4092.4,4398.9 L-4040.7,4398.9 L-4040.9,4382.3 L-4036.8,4382.2 L-4035.2,4398.9 L-4003.3,4398.7 L-4003.2,4396.9 L-4000.1,4396.8 L-4000.0,4398.1 L-3787.3,4394.1 L-3771.8,4392.2 L-3753.0,4391.7 L-3735.2,4394.0 L-3729.3,4393.5 L-3724.9,4392.7 L-3720.9,4391.2 L-3715.6,4389.3 L-3608.7,4387.3 L-3608.7,4380.0 L-3548.9,4378.9 L-3548.8,4387.1 L-3523.4,4387.9 L-3521.5,4387.9 L-3519.7,4387.8 L-3517.3,4387.4 L-3515.4,4386.9 L-3513.6,4386.4 L-3510.5,4384.9 L-3509.0,4387.4 L-3505.9,4385.4 L-3503.1,4383.1 L-3500.6,4380.6 L-3498.5,4377.6 L-3496.6,4374.0 L-3500.2,4372.0 L-3499.2,4368.9 L-3498.6,4365.7 L-3498.3,4362.7 L-3498.2,4360.4 L-3498.3,4358.2 L-3498.6,4339.2 L-3501.7,4336.5 L-3499.1,4333.7 L-3501.7,4331.4 L-3498.7,4327.8 L-3502.0,4325.0 L-3499.4,4322.3 L-3502.0,4319.7 L-3499.0,4316.5 L-3502.1,4313.3 L-3495.5,4306.1 L-3494.4,4306.1 L-3497.3,4198.8 L-3473.2,4198.2 L-3472.1,4198.8 L-3470.7,4199.8 L-3469.8,4200.7 L-3469.4,4201.7 L-3469.0,4202.9 L-3469.0,4204.1 L-3466.9,4370.7 L-3466.0,4376.2 L-3464.6,4379.8 L-3462.5,4384.3 L-3460.1,4388.7 L-3457.5,4392.2 L-3455.5,4394.3 L-3453.2,4396.1 L-3450.7,4397.6 L-3448.1,4398.6 L-3444.5,4399.6 L-3440.0,4400.5 L-3434.6,4401.5 L-3428.3,4402.6 L-3422.3,4403.9 L-3415.6,4405.1 L-3409.3,4406.5 L-3407.3,4406.9 L-3404.9,4407.3 L-3402.5,4407.6 L-3400.4,4407.7 L-3398.0,4407.7 L-3396.1,4407.6 L-3394.3,4407.3 L-3392.7,4406.9 L-3391.0,4406.3 L-3389.5,4405.7 L-3386.7,4404.3 L-3384.1,4402.8 L-3381.6,4400.9 L-3378.6,4398.1 L-3375.8,4395.0 L-3374.3,4392.4 L-3373.0,4389.1 L-3372.3,4386.4 L-3371.9,4383.6 L-3371.6,4380.9 L-3371.6,4378.4 L-3375.3,4199.8 L-3370.1,4194.4 L-3368.2,4194.2 L-3367.5,4193.5 L-3356.6,4193.3 L-3355.6,4191.6 L-3354.0,4192.1 L-3351.3,4194.7 L-3349.4,4197.3 L-3347.5,4200.6 L-3343.9,4400.2 L-3343.5,4403.7 L-3342.9,4410.7 L-3342.2,4412.0 L-3342.7,4412.4 L-3341.8,4414.3 L-3340.6,4416.6 L-3339.7,4418.1 L-3338.4,4419.9 L-3336.8,4421.8 L-3334.9,4423.7 L-3332.5,4425.7 L-3330.4,4427.3 L-3328.1,4428.6 L-3325.9,4429.6 L-3323.5,4430.4 L-3323.2,4429.7 L-3290.1,4441.7 L-3286.0,4443.2 L-3284.1,4443.9 L-3281.1,4445.0 L-3279.0,4445.5 L-3277.2,4445.8 L-3275.4,4445.8 L-3273.1,4445.6 L-3270.4,4445.3 L-3268.2,4444.8 L-3265.8,4444.1 L-3264.0,4443.4 L-3262.2,4442.6 L-3260.7,4441.6 L-3258.8,4440.3 L-3256.4,4438.2 L-3254.2,4436.0 L-3251.8,4433.0 L-3250.1,4430.2 L-3248.7,4427.1 L-3247.7,4423.7 L-3247.1,4420.1 L-3246.8,4413.9 L-3246.9,4401.1 L-3250.6,4198.1 L-3250.6,4195.9 L-3250.1,4194.3 L-3249.4,4193.0 L-3248.0,4191.7 L-3246.4,4190.9 L-3244.5,4190.6 L-3229.4,4190.1 L-3227.7,4190.4 L-3226.0,4191.1 L-3224.9,4192.2 L-3223.6,4194.1 L-3222.8,4196.8 L-3222.4,4200.5 L-3218.6,4460.9 L-3218.4,4462.4 L-3218.1,4464.0 L-3217.7,4465.6 L-3217.2,4467.4 L-3216.6,4469.1 L-3215.9,4470.7 L-3215.2,4472.0 L-3214.6,4473.3 L-3213.6,4474.7 L-3212.6,4476.1 L-3211.6,4477.3 L-3210.2,4478.8 L-3208.8,4480.1 L-3207.3,4481.4 L-3205.6,4482.6 L-3201.0,4485.5 L-3200.5,4485.0 L-3196.5,4487.2 L-3191.7,4489.9 L-3188.9,4491.4 L-3185.9,4493.2 L-3182.7,4495.0 L-3179.5,4497.0 L-3175.9,4499.3 L-3172.2,4501.5 L-3168.6,4503.7 L-3165.7,4505.5 L-3162.3,4507.7 L-3158.8,4510.0 L-3155.4,4512.2 L-3152.2,4514.4 L-3152.5,4514.8 L-3148.1,4517.9 L-3143.6,4520.9 L-3142.2,4521.7 L-3140.6,4522.6 L-3138.5,4523.7 L-3136.4,4524.4 L-3134.2,4525.0 L-3132.2,4525.5 L-3130.0,4525.9 L-3127.4,4526.1 L-3125.2,4526.2 L-3123.4,4526.0 L-3121.7,4525.7 L-3119.7,4525.1 L-3117.6,4524.4 L-3115.7,4523.8 L-3114.0,4523.0 L-3112.2,4522.0 L-3110.4,4520.9 L-3108.7,4519.5 L-3107.1,4518.1 L-3105.5,4516.5 L-3104.1,4514.9 L-3102.5,4512.7 L-3101.3,4510.5 L-3100.1,4508.1 L-3099.4,4506.2 L-3098.8,4504.2 L-3098.5,4502.0 L-3098.3,4499.9 L-3098.4,4497.4 L-3128.1,4213.5 L-3126.0,4213.4 L-3127.6,4199.1 L-3129.2,4199.2 L-3130.4,4192.7 L-3130.0,4191.3 L-3128.7,4189.4 L-3126.1,4187.4 L-3122.8,4187.0 L-3109.3,4186.6 L-3107.1,4187.0 L-3105.5,4187.7 L-3103.9,4189.0 L-3102.7,4190.2 L-3102.0,4191.5 L-3069.5,4509.9 L-3068.7,4512.7 L-3067.3,4516.1 L-3066.1,4518.3 L-3064.8,4520.6 L-3063.1,4522.9 L-3061.7,4524.5 L-3060.2,4526.1 L-3058.5,4527.5 L-3057.0,4528.6 L-3054.8,4529.9 L-3053.0,4530.9 L-3050.5,4531.9 L-3048.2,4532.6 L-3045.7,4533.2 L-3043.6,4533.4 L-3041.9,4533.5 L-3039.9,4533.5 L-2969.2,4532.1 L-2966.9,4531.8 L-2964.7,4530.7 L-2963.2,4529.3 L-2962.0,4527.1 L-2961.7,4525.1 L-2961.7,4523.1 L-2997.5,4182.1 L-3029.0,4141.0 L-3030.4,4142.1 L-3057.8,4103.8 L-3058.3,4095.8 L-3059.1,4094.1 L-3060.6,4092.5 L-3062.4,4089.9 L-3062.6,4086.1 L-3065.9,4084.9 L-3069.0,4084.8 L-3073.2,4086.9 L-3068.4,4095.9 L-3074.5,4098.8 L-3079.1,4094.6 L-3082.9,4092.2 L-3085.6,4091.3 L-3092.1,4091.1 L-3095.4,4084.3 L-3074.7,4075.8 L-3075.6,4074.2 L-3080.0,4068.2 L-3080.7,4068.6 L-3235.2,3866.4 L-3237.5,3833.0 L-3236.3,3832.7 L-3242.3,3771.5 L-3244.6,3765.9 L-3247.0,3759.5 L-3249.0,3754.6 L-3251.2,3748.4 L-3258.8,3727.3 L-3261.8,3728.7 L-3266.2,3711.7 L-3265.5,3711.5 L-3281.0,3669.4 L-3282.7,3595.7 L-3280.9,3595.7 L-3280.7,3589.2 L-3279.8,3582.9 L-3279.5,3580.5 L-3280.1,3578.6 L-3278.0,3568.5 L-3258.8,3534.7 L-3268.9,3528.5 L-3261.5,3516.2 L-3251.7,3521.9 L-3250.9,3520.6 L-3247.8,3522.1 L-3244.5,3523.5 L-3240.8,3524.7 L-3237.9,3525.3 L-3235.2,3525.3 L-3232.0,3524.8 L-3228.8,3523.7 L-3225.7,3522.5 L-3224.3,3521.0 L-3223.7,3519.0 L-3223.0,3516.5 L-3222.8,3515.5 L-3222.9,3514.2 L-3223.6,3512.3 L-3224.9,3510.5 L-3226.4,3509.4 L-3228.6,3507.3 L-3230.5,3505.3 L-3233.3,3503.5 L-3234.5,3500.7 L-3235.8,3497.8 L-3237.9,3494.5 L-3240.4,3491.5 L-3244.9,3488.3 L-3266.7,3477.0 L-3279.6,3470.7 L-3291.6,3464.1 L-3303.1,3457.8 L-3310.5,3453.0 L-3313.3,3452.2 L-3316.5,3453.2 L-3318.2,3455.4 L-3321.8,3464.2 L-3343.9,3454.3 L-3330.6,3433.5 L-3327.8,3432.1 L-3324.2,3431.4 L-3320.1,3432.3 L-3237.2,3480.8 L-3232.7,3482.1 L-3228.0,3483.2 L-3221.3,3483.4 L-3214.6,3482.2 L-3210.3,3480.5 L-3205.6,3476.7 L-3202.9,3474.0 L-3199.9,3469.9 L-3199.9,3469.3 L-3200.1,3468.8 L-3200.6,3468.4 L-3227.4,3451.8 L-3228.1,3451.6 L-3228.7,3451.6 L-3229.5,3451.6 L-3232.0,3452.7 L-3232.9,3452.8 L-3234.0,3452.7 L-3235.6,3452.5 L-3236.7,3452.1 L-3238.4,3451.3 L-3240.1,3450.3 L-3277.0,3427.9 L-3294.3,3415.6 L-3296.0,3415.4 L-3297.6,3415.5 L-3299.5,3415.5 L-3300.9,3415.3 L-3301.9,3414.8 L-3303.3,3413.8 L-3304.7,3412.6 L-3305.7,3411.3 L-3306.3,3409.8 L-3306.4,3408.8 L-3306.3,3407.5 L-3306.0,3406.3 L-3300.1,3396.4 L-3300.1,3395.9 L-3300.5,3395.6 L-3305.9,3391.8 L-3307.0,3390.2 L-3306.4,3389.3 L-3304.6,3389.5 L-3302.7,3390.1 L-3291.6,3397.0 L-3228.7,3437.1 L-3227.5,3437.8 L-3226.6,3438.8 L-3226.0,3439.9 L-3225.3,3442.2 L-3224.8,3444.0 L-3224.6,3445.5 L-3196.2,3462.6 L-3195.2,3463.0 L-3194.0,3463.2 L-3192.6,3462.9 L-3191.6,3462.6 L-3190.7,3462.2 L-3160.2,3412.7 L-3147.4,3394.0 L-3135.4,3380.5 L-3129.4,3383.8 L-3125.5,3377.6 L-3146.2,3365.2 L-3141.8,3357.9 L-3121.1,3370.4 L-3116.4,3362.8 L-3120.2,3358.6 L-3116.4,3354.3 L-3112.3,3359.0 L-3111.3,3358.2 L-3110.2,3357.5 L-3108.6,3356.5 L-3106.9,3355.7 L-3104.9,3355.0 L-3102.9,3354.5 L-3100.8,3354.1 L-3098.7,3354.0 L-3096.7,3354.0 L-3094.8,3354.3 L-3092.9,3354.7 L-3091.3,3355.2 L-3090.0,3355.8 L-3088.1,3356.7 L-3086.3,3357.8 L-3084.9,3358.9 L-3083.4,3360.2 L-3082.0,3361.5 L-3080.5,3363.5 L-3079.5,3365.2 L-3078.4,3367.4 L-3077.7,3369.7 L-3077.1,3372.8 L-3076.9,3375.5 L-3077.0,3377.1 L-3077.2,3378.6 L-3077.7,3381.1 L-3079.1,3384.3 L-3080.0,3386.5 L-3081.2,3389.0 L-3076.1,3391.6 L-3051.8,3362.6 L-3096.0,3335.7 L-3093.7,3331.0 L-3092.2,3326.5 L-3092.1,3324.6 L-3089.5,3319.1 L-3084.3,3314.3 L-3077.7,3309.0 L-3070.0,3304.0 L-3055.5,3299.8 L-3030.3,3297.3 L-3020.5,3289.3 L-3018.4,3288.9 L-3016.8,3288.9 L-3014.4,3289.8 L-3012.2,3290.0 L-2998.3,3298.4 L-2961.6,3254.9 L-3096.1,3169.4 L-3104.4,3182.5 L-3122.6,3171.1 L-3096.8,3130.6 L-3078.7,3141.7 L-3086.8,3155.5 L-2949.9,3241.8 L-2932.7,3219.7 L-2920.5,3205.2 L-2904.4,3181.0 L-2895.5,3168.7 L-2896.4,3161.8 L-2896.2,3161.6 L-2897.7,3156.4 L-2898.8,3153.3 L-2899.8,3150.0 L-2901.0,3147.1 L-2903.3,3143.3 L-2905.6,3139.7 L-2906.6,3137.8 L-2907.4,3135.9 L-2907.9,3134.1 L-2908.1,3132.6 L-2908.4,3127.5 L-2967.4,3073.3 L-2969.4,3075.4 L-2971.0,3074.0 L-2975.8,3078.7 L-2979.0,3074.5 L-2975.2,3070.1 L-2979.0,3065.3 L-2981.6,3065.9 L-2984.3,3066.0 L-2986.8,3065.6 L-2988.9,3064.7 L-2991.4,3062.9 L-2994.5,3059.8 L-2999.9,3053.8 L-3001.6,3051.2 L-3002.2,3048.0 L-3001.8,3044.3 L-3000.4,3040.7 L-2999.1,3038.3 L-2996.7,3036.0 L-2994.1,3034.2 L-2991.5,3033.2 L-2989.6,3032.9 L-2987.1,3033.3 L-2984.6,3034.3 L-2982.2,3036.1 L-2976.6,3041.2 L-2973.8,3043.9 L-2971.1,3046.7 L-2970.3,3048.1 L-2969.7,3049.5 L-2969.4,3050.8 L-2969.1,3052.6 L-2969.4,3054.3 L-2969.9,3055.9 L-2970.6,3057.1 L-2970.8,3057.6 L-2970.7,3058.3 L-2970.2,3059.1 L-2906.8,3118.5 L-2904.6,3120.0 L-2903.1,3120.7 L-2900.8,3120.2 L-2898.3,3119.9 L-2895.0,3121.4 L-2891.6,3123.4 L-2885.2,3127.1 L-2882.5,3128.3 L-2880.1,3125.9 L-2877.4,3123.4 L-2875.5,3121.3 L-2872.5,3117.4 L-2870.8,3115.1 L-2869.1,3112.1 L-2867.9,3109.6 L-2866.6,3106.9 L-2865.5,3104.0 L-2864.5,3101.2 L-2863.8,3098.7 L-2863.1,3095.6 L-2862.9,3093.8 L-2862.6,3092.3 L-2862.3,3089.6 L-2862.0,3087.0 L-2861.8,3085.3 L-2861.7,3083.4 L-2861.7,3081.3 L-2861.8,3079.5 L-2862.2,3077.0 L-2862.5,3074.1 L-2862.9,3071.5 L-2863.2,3069.4 L-2863.5,3067.7 L-2863.9,3066.1 L-2864.3,3064.3 L-2864.9,3062.4 L-2865.6,3060.4 L-2866.1,3059.1 L-2866.7,3057.9 L-2867.5,3056.8 L-2868.7,3055.1 L-2869.9,3053.6 L-2871.3,3052.3 L-2873.0,3050.9 L-2874.7,3049.8 L-2876.5,3048.9 L-2878.1,3048.2 L-2879.2,3047.9 L-2880.5,3047.7 L-2881.9,3047.8 L-2883.3,3048.1 L-2884.4,3048.5 L-2885.5,3049.3 L-2886.3,3050.1 L-2886.9,3050.9 L-2887.3,3052.0 L-2887.6,3053.3 L-2887.5,3054.7 L-2887.4,3056.5 L-2887.4,3057.8 L-2887.5,3059.1 L-2887.7,3060.4 L-2888.0,3061.5 L-2888.4,3062.8 L-2889.1,3064.1 L-2889.9,3065.3 L-2890.8,3066.4 L-2891.7,3067.3 L-2893.3,3068.6 L-2894.8,3069.5 L-2896.9,3070.2 L-2898.2,3070.5 L-2899.7,3070.7 L-2901.1,3070.7 L-2902.9,3070.7 L-2904.2,3070.4 L-2906.0,3070.0 L-2908.5,3069.3 L-2910.6,3068.5 L-2912.2,3067.8 L-2913.8,3066.9 L-2915.2,3065.9 L-2916.9,3064.7 L-2918.1,3063.6 L-2919.2,3062.5 L-2920.3,3061.2 L-2921.2,3060.0 L-2922.0,3058.8 L-2922.7,3057.5 L-2923.6,3055.7 L-2924.2,3054.0 L-2924.9,3052.2 L-2925.4,3050.8 L-2925.7,3049.5 L-2926.0,3048.2 L-2926.2,3046.1 L-2926.3,3044.2 L-2926.2,3042.2 L-2925.8,3039.5 L-2925.1,3036.9 L-2924.1,3034.2 L-2923.4,3033.0 L-2922.8,3032.2 L-2917.6,3025.7 L-2916.5,3024.3 L-2914.9,3023.6 L-2913.3,3023.0 L-2911.4,3022.6 L-2909.3,3022.3 L-2907.5,3022.2 L-2905.8,3022.3 L-2904.0,3022.5 L-2901.9,3023.1 L-2899.8,3024.2 L-2897.9,3025.3 L-2896.2,3026.6 L-2891.0,3031.4 L-2889.8,3031.8 L-2889.1,3031.9 L-2888.2,3031.8 L-2887.7,3031.6 L-2887.0,3030.8 L-2886.7,3030.0 L-2886.6,3028.8 L-2886.6,3027.9 L-2886.8,3027.4 L-2897.3,3017.0 L-2883.0,3001.8 L-2883.8,2999.9 L-2875.6,2991.8 L-2859.6,3007.7 L-2872.5,3024.0 L-2872.5,3025.0 L-2871.9,3025.3 L-2871.1,3025.2 L-2857.1,3007.6 L-2852.9,3002.6 L-2852.8,3001.5 L-2853.2,3000.4 L-2853.9,2999.6 L-2864.9,2989.2 L-2862.2,2986.0 L-2864.9,2983.6 L-2863.4,2979.9 L-2834.8,2951.3 L-2825.1,2949.6 L-2822.0,2949.2 L-2819.1,2948.7 L-2817.7,2948.4 L-2816.1,2947.6 L-2814.3,2946.5 L-2812.8,2945.0 L-2811.4,2943.3 L-2796.8,2922.2 L-2796.5,2921.6 L-2796.7,2920.9 L-2796.9,2920.4 L-2797.3,2919.9 L-2799.0,2918.9 L-2799.4,2918.6 L-2799.9,2918.6 L-2800.3,2918.9 L-2801.2,2919.6 L-2813.5,2931.0 L-2818.2,2934.4 L-2837.7,2914.4 L-2835.4,2907.3 L-2834.5,2905.2 L-2831.5,2899.6 L-2827.9,2893.4 L-2825.7,2891.0 L-2821.9,2886.9 L-2817.8,2882.3 L-2813.3,2877.6 L-2809.4,2874.3 L-2807.6,2872.6 L-2805.2,2870.9 L-2802.9,2869.6 L-2799.7,2868.2 L-2797.7,2867.5 L-2795.7,2866.9 L-2794.2,2866.8 L-2792.0,2866.9 L-2790.1,2867.2 L-2788.0,2867.7 L-2785.9,2869.4 L-2784.7,2871.2 L-2783.9,2873.0 L-2783.6,2875.7 L-2783.8,2879.3 L-2784.2,2883.2 L-2785.1,2887.1 L-2790.2,2898.6 L-2795.1,2908.9 L-2793.4,2911.7 L-2792.5,2912.2 L-2791.5,2912.2 L-2790.7,2912.1 L-2790.0,2911.6 L-2786.7,2906.9 L-2782.4,2904.7 L-2773.8,2881.9 L-2773.3,2880.8 L-2772.4,2879.8 L-2771.5,2879.3 L-2770.8,2879.1 L-2769.6,2879.1 L-2768.4,2879.4 L-2762.2,2881.2 L-2760.9,2881.4 L-2759.6,2881.4 L-2758.3,2881.2 L-2757.2,2880.8 L-2756.3,2880.1 L-2755.4,2878.9 L-2744.9,2864.9 L-2744.4,2863.9 L-2744.2,2862.8 L-2744.2,2861.7 L-2744.4,2860.6 L-2744.7,2859.8 L-2745.4,2859.0 L-2746.1,2858.4 L-2747.1,2857.9 L-2748.0,2857.6 L-2749.0,2857.6 L-2749.8,2857.7 L-2750.7,2858.1 L-2751.4,2858.7 L-2752.0,2859.4 L-2754.7,2863.8 L-2755.3,2864.7 L-2756.0,2865.5 L-2757.1,2866.4 L-2758.0,2866.9 L-2759.2,2867.3 L-2760.6,2867.5 L-2761.4,2867.5 L-2762.4,2867.4 L-2763.4,2867.2 L-2764.2,2866.8 L-2772.8,2859.0 L-2773.8,2857.8 L-2774.5,2856.7 L-2775.2,2855.3 L-2775.7,2854.2 L-2776.0,2853.0 L-2776.2,2851.7 L-2776.4,2850.1 L-2776.4,2848.5 L-2776.3,2847.1 L-2776.1,2846.0 L-2775.8,2845.0 L-2775.5,2844.2 L-2759.8,2819.3 L-2758.8,2817.7 L-2758.2,2816.8 L-2757.5,2816.4 L-2756.4,2815.9 L-2755.2,2815.5 L-2754.0,2815.4 L-2753.3,2815.4 L-2752.7,2815.5 L-2752.1,2815.7 L-2751.3,2816.0 L-2750.4,2816.6 L-2748.8,2818.0 L-2741.7,2824.6 L-2740.5,2826.3 L-2739.7,2828.0 L-2739.1,2829.9 L-2738.9,2831.4 L-2738.8,2833.0 L-2738.8,2834.4 L-2738.9,2835.7 L-2739.2,2837.1 L-2739.5,2838.0 L-2740.3,2839.9 L-2743.1,2845.1 L-2743.5,2846.3 L-2743.5,2847.8 L-2743.4,2848.9 L-2742.9,2849.7 L-2742.2,2850.5 L-2741.0,2851.4 L-2740.0,2851.9 L-2738.9,2852.2 L-2737.5,2852.2 L-2736.4,2851.9 L-2735.1,2851.3 L-2734.0,2850.3 L-2715.5,2824.9 L-2721.2,2819.8 L-2717.8,2816.1 L-2712.7,2820.9 L-2702.4,2807.3 L-2686.6,2786.3 L-2750.0,2725.5 L-2763.8,2740.0 L-2779.9,2724.7 L-2764.3,2707.9 L-2766.4,2705.7 L-2763.1,2702.7 L-2761.1,2704.7 L-2750.2,2692.9 L-2740.5,2701.9 L-2739.4,2709.4 L-2698.3,2747.7 L-2690.3,2750.8 L-2684.0,2748.6 L-2671.8,2753.4 L-2663.8,2750.4 L-2639.8,2721.2 L-2638.5,2718.4 L-2638.1,2714.7 L-2639.2,2711.1 L-2640.9,2708.5 L-2655.0,2695.4 L-2654.9,2691.8 L-2652.1,2684.7 L-2646.4,2674.3 L-2657.5,2667.1 L-2653.3,2665.6 L-2650.6,2663.8 L-2648.0,2660.8 L-2644.9,2652.9 L-2639.2,2638.4 L-2635.5,2635.0 L-2670.6,2601.0 L-2678.3,2605.8 L-2680.1,2606.3 L-2681.8,2606.3 L-2684.0,2606.0 L-2685.8,2605.5 L-2687.6,2604.5 L-2689.0,2603.2 L-2707.2,2585.7 L-2710.6,2582.4 L-2712.0,2580.6 L-2713.3,2578.3 L-2713.9,2576.2 L-2714.1,2574.2 L-2714.1,2572.4 L-2713.7,2570.5 L-2713.3,2569.1 L-2712.7,2568.0 L-2711.4,2566.2 L-2709.9,2564.4 L-2701.7,2555.9 L-2639.7,2613.3 L-2644.0,2618.1 L-2598.0,2661.6 L-2545.0,2584.1 L-2578.7,2552.6 L-2583.0,2556.5 L-2645.7,2497.3 L-2637.5,2489.6 L-2601.4,2523.4 L-2597.8,2518.1 L-2595.9,2515.5 L-2593.3,2512.8 L-2590.4,2509.6 L-2587.4,2507.7 L-2582.6,2503.7 L-2577.9,2499.3 L-2568.7,2490.7 L-2547.0,2466.2 L-2543.1,2462.1 L-2528.7,2454.8 L-2515.1,2444.2 L-2513.8,2443.1 L-2510.3,2440.4 L-2508.8,2439.0 L-2507.5,2437.4 L-2506.7,2435.8 L-2506.1,2434.1 L-2505.4,2432.9 L-2504.7,2431.5 L-2503.4,2429.3 L-2502.5,2428.0 L-2501.6,2426.8 L-2500.0,2425.4 L-2498.4,2424.4 L-2496.6,2423.3 L-2492.5,2421.3 L-2488.4,2419.3 L-2487.9,2419.2 L-2487.2,2419.3 L-2486.0,2419.7 L-2482.8,2421.3 L-2480.3,2422.5 L-2479.2,2423.2 L-2478.2,2424.0 L-2461.4,2439.9 L-2460.3,2440.6 L-2454.9,2442.0 L-2453.1,2442.5 L-2451.1,2442.7 L-2449.7,2442.6 L-2448.5,2442.2 L-2447.3,2441.5 L-2441.4,2433.1 L-2441.4,2431.9 L-2441.6,2430.8 L-2442.3,2429.7 L-2443.2,2428.6 L-2447.8,2424.4 L-2447.5,2423.7 L-2441.6,2411.3 L-2431.6,2391.1 L-2422.5,2384.4 L-2417.3,2379.1 L-2413.6,2375.0 L-2409.9,2371.1 L-2405.6,2367.7 L-2403.1,2365.4 L-2400.4,2362.9 L-2398.4,2360.9 L-2397.4,2359.1 L-2396.6,2357.7 L-2396.1,2356.3 L-2395.9,2354.7 L-2395.8,2353.2 L-2392.7,2350.1 L-2388.3,2345.8 L-2380.7,2339.7 L-2372.9,2333.7 L-2369.4,2328.8 L-2368.1,2323.7 L-2364.2,2321.4 L-2359.3,2321.3 L-2354.3,2318.3 L-2350.0,2310.5 L-2350.1,2302.3 L-2349.3,2289.7 L-2348.0,2287.9 L-2347.3,2286.7 L-2345.9,2284.4 L-2347.7,2279.1 L-2345.7,2276.6 L-2335.8,2264.3 L-2318.7,2244.4 L-2315.5,2239.7 L-2314.2,2237.3 L-2308.8,2229.8 L-2307.3,2225.2 L-2307.3,2217.9 L-2307.5,2210.7 L-2307.5,2203.3 L-2305.3,2195.1 L-2301.6,2187.0 L-2296.3,2179.3 L-2292.5,2173.6 L-2287.9,2167.8 L-2279.1,2158.0 L-2240.1,2138.7 L-2234.9,2137.4 L-2233.6,2140.2 L-2232.1,2142.9 L-2231.6,2143.4 L-2230.8,2143.0 L-2230.6,2141.1 L-2231.2,2139.5 L-2229.0,2138.9 L-2221.0,2136.5 L-2210.6,2133.4 L-2202.2,2130.9 L-2199.3,2130.0 L-2202.2,2120.6 L-2197.1,2119.2 L-2188.4,2118.0 L-2187.3,2117.8 L-2187.3,2117.2 L-2187.3,2115.0 L-2179.5,2114.6 L-2167.2,2114.1 L-2162.4,2116.5 L-2150.6,2159.2 L-2147.9,2161.7 L-2153.0,2167.0 L-2148.5,2171.5 L-2144.0,2176.0 L-2138.6,2170.5 L-2038.4,2265.8 L-1904.6,2123.0 L-1857.8,2167.7 L-1856.0,2167.1 L-1855.3,2167.9 L-1852.2,2166.0 L-1849.6,2165.0 L-1846.8,2163.8 L-1842.1,2161.3 L-1839.2,2159.7 L-1835.7,2157.7 L-1832.6,2155.7 L-1830.0,2154.0 L-1827.6,2152.4 L-1824.7,2150.3 L-1821.6,2148.0 L-1819.1,2145.9 L-1816.5,2143.7 L-1813.7,2140.9 L-1810.9,2138.2 L-1804.6,2131.6 L-1800.9,2127.0 L-1797.1,2122.1 L-1794.6,2118.5 L-1792.2,2114.8 L-1789.4,2109.6 L-1786.9,2104.5 L-1784.9,2100.4 L-1783.2,2096.3 L-1782.1,2093.5 L-1781.0,2090.4 L-1778.2,2087.1 L-1863.8,2005.7 L-1862.7,2004.5 L-1852.5,1993.6 L-1845.0,1985.7 L-1844.3,1984.9 L-1822.6,2005.2 L-1817.3,2002.5 L-1816.7,2003.2 L-1765.7,1976.7 L-1763.6,1975.5 L-1762.2,1974.4 L-1760.8,1973.1 L-1759.3,1971.5 L-1757.7,1969.3 L-1756.5,1967.2 L-1755.6,1965.6 L-1755.0,1963.5 L-1754.4,1961.3 L-1754.2,1958.9 L-1754.2,1956.1 L-1754.4,1953.9 L-1754.8,1951.9 L-1755.5,1949.6 L-1771.4,1903.7 L-1773.6,1896.2 L-1773.0,1893.6 L-1811.5,1884.0 L-1809.7,1877.4 L-1808.2,1871.4 L-1796.8,1826.2 L-1805.7,1800.0 L-1810.8,1783.0 L-1812.4,1778.7 L-1798.6,1766.0 L-1783.0,1757.7 L-1782.1,1759.0 L-1780.6,1761.1 L-1777.0,1765.7 L-1776.7,1765.3 L-1776.6,1763.7 L-1781.4,1757.1 L-1772.8,1750.8 L-1770.9,1749.7 L-1766.3,1755.6 L-1765.6,1756.2 L-1764.8,1756.3 L-1764.4,1756.2 L-1764.4,1755.8 L-1785.8,1726.5 L-1787.4,1724.8 L-1789.2,1722.3 L-1798.5,1711.1 L-1790.6,1686.4 L-1784.4,1680.1 L-1777.4,1676.8 L-1762.4,1667.9 L-1759.3,1664.7 L-1745.9,1652.9 L-1741.6,1657.4 L-1729.2,1670.8 L-1717.6,1661.1 L-1709.9,1668.5 L-1702.9,1675.4 L-1702.5,1675.7 L-1696.6,1670.6 L-1688.9,1679.0 L-1682.1,1687.6 L-1677.2,1693.3 L-1676.5,1694.0 L-1662.1,1681.4 L-1661.4,1680.8 L-1664.8,1676.6 L-1656.9,1670.2 L-1633.2,1697.9 L-1612.9,1684.6 L-1610.9,1682.7 L-1602.1,1679.0 L-1600.1,1677.0 L-1598.2,1674.5 L-1587.4,1664.9 L-1589.8,1661.5 L-1609.2,1665.9 L-1631.4,1640.7 L-1628.9,1638.5 L-1625.5,1642.4 L-1609.8,1628.9 L-1593.1,1647.1 L-1588.6,1648.9 L-1586.0,1650.5 L-1582.5,1654.3 L-1580.7,1652.7 L-1592.8,1639.0 L-1585.4,1632.5 L-1570.4,1650.5 L-1568.5,1649.1 L-1568.7,1648.7 L-1535.9,1625.0 L-1526.2,1617.8 L-1558.0,1578.0 L-1551.2,1573.3 L-1523.5,1605.7 L-1503.1,1609.4 L-1489.5,1601.6 L-1487.7,1600.4 L-1487.8,1598.9 L-1488.7,1597.1 L-1478.1,1590.5 L-1475.1,1593.6 L-1466.1,1588.3 L-1472.6,1580.3 L-1503.8,1538.7 L-1481.8,1515.8 L-1467.3,1494.5 L-1467.0,1477.8 L-1474.7,1455.6 L-1458.5,1442.1 L-1441.4,1435.5 L-1435.9,1434.3 L-1431.4,1433.7 L-1425.9,1434.0 L-1420.1,1435.4 L-1411.9,1442.4 L-1390.5,1468.6 L-1373.4,1490.3 L-1353.0,1503.9 L-1344.9,1505.2 L-1337.7,1506.1 L-1331.6,1506.3 L-1323.8,1505.8 L-1315.3,1504.4 L-1308.5,1502.4 L-1302.7,1499.7 L-1298.9,1497.4 L-1296.0,1494.5 L-1291.2,1488.6 L-1286.0,1479.1 L-1280.4,1466.5 L-1270.3,1471.7 L-1266.3,1473.0 L-1262.0,1473.7 L-1255.1,1473.2 L-1250.6,1471.9 L-1245.4,1469.6 L-1240.5,1466.8 L-1235.4,1461.8 L-1231.0,1457.8 L-1225.5,1454.1 L-1221.7,1451.6 L-1216.1,1449.6 L-1206.5,1446.8 L-1200.8,1445.2 L-1194.6,1442.9 L-1189.3,1440.2 L-1186.2,1438.3 L-1183.7,1435.8 L-1151.0,1419.4 L-1149.8,1418.7 L-1148.3,1417.7 L-1146.8,1416.6 L-1144.6,1415.3 L-1143.1,1414.6 L-1141.6,1413.3 L-1140.4,1412.0 L-1138.8,1411.0 L-1137.1,1409.8 L-1134.8,1407.7 L-1131.6,1407.4 L-1128.3,1407.0 L-1126.2,1406.4 L-1123.4,1405.1 L-1120.0,1403.5 L-1116.3,1401.3 L-1114.2,1399.3 L-1111.9,1396.7 L-1110.5,1394.2 L-1109.7,1391.9 L-1109.7,1390.4 L-1109.6,1389.0 L-1108.8,1383.9 L-1090.6,1373.3 L-1058.7,1354.9 L-1052.5,1351.4 L-998.4,1320.1 L-939.8,1286.5 L-914.9,1272.2 L-906.2,1267.4 L-833.7,1225.3 L-817.7,1216.4 L-817.9,1215.8 L-784.7,1197.1 L-772.0,1190.0 L-748.5,1176.9 L-748.3,1177.3 L-739.2,1172.3 L-717.1,1160.0 L-714.4,1157.6 L-692.0,1141.1 L-680.9,1131.9 L-670.6,1123.2 L-665.9,1120.6 L-655.3,1110.1 L-654.4,1110.7 L-653.0,1110.5 L-652.3,1111.0 L-637.4,1093.5 L-641.1,1090.0 L-640.6,1089.1 L-639.0,1086.8 L-634.8,1081.3 L-632.2,1077.4 L-630.1,1074.2 L-627.3,1069.8 L-624.5,1065.3 L-621.4,1060.1 L-618.2,1054.6 L-611.2,1040.2 L-609.1,1035.6 L-607.4,1032.0 L-606.1,1029.3 L-605.1,1027.1 L-602.9,1021.7 L-660.8,913.7 L-661.9,911.6 L-662.7,910.4 L-663.4,909.6 L-664.2,908.9 L-664.9,908.4 L-665.9,907.8 L-667.0,907.4 L-667.9,907.2 L-668.8,907.1 L-670.1,907.1 L-671.6,907.3 L-673.0,907.7 L-674.4,908.4 L-687.9,916.2 L-705.4,926.3 L-717.7,933.1 L-740.0,945.3 L-753.7,952.8 L-753.2,953.7 L-759.0,957.0 L-778.2,966.9 L-792.4,975.3 L-800.7,979.9 L-813.5,987.3 L-814.9,988.2 L-826.1,968.2 L-804.1,956.2 L-774.2,940.0 L-753.9,928.6 L-751.4,927.2 L-751.7,926.6 L-734.2,917.1 L-724.8,911.9 L-703.3,901.4 L-699.3,899.4 L-666.9,881.4 L-654.8,874.7 L-646.2,870.1 L-636.1,864.3 L-622.1,889.6 L-644.1,901.6 L-645.2,903.4 L-645.7,905.4 L-645.9,906.9 L-645.9,908.2 L-645.8,909.2 L-645.4,910.7 L-600.6,993.6 L-599.7,994.9 L-598.7,995.8 L-597.8,996.5 L-596.7,996.8 L-595.6,997.0 L-594.5,996.9 L-593.6,996.6 L-573.7,981.5 L-564.4,973.7 L-554.7,965.6 L-551.0,962.2 L-539.1,952.4 L-538.5,952.4 L-527.0,942.5 L-526.9,941.9 L-519.3,935.7 L-513.3,930.7 L-503.0,922.2 L-502.1,923.4 L-492.0,915.1 L-486.9,910.8 L-472.7,899.1 L-462.9,890.9 L-463.8,889.5 L-460.5,886.7 L-455.2,882.3 L-451.9,879.4 L-437.9,873.2 L-428.5,869.8 L-423.6,867.5 L-410.1,867.4 L-405.3,867.4 L-395.3,868.0 L-383.5,868.5 L-382.6,867.6 L-381.5,869.2 L-377.8,869.3 L-344.1,872.2 L-340.2,873.1 L-336.8,873.6 L-329.0,874.3 L-314.4,875.0 L-311.2,875.0 L-308.2,875.0 L-296.5,874.5 L-290.5,874.2 L-284.6,873.6 L-275.5,872.7 L-275.5,873.2 L-268.3,872.0 L-261.4,870.7 L-256.1,869.7 L-249.3,864.5 L-248.4,865.7 L-247.6,866.8 L-186.8,947.3 L-40.1,997.8 L229.3,800.0 L302.6,747.2 L331.0,686.7 L285.9,627.6 L287.9,619.2 L295.8,617.0 L311.0,620.2 L321.8,616.1 L324.8,611.9 L324.1,608.3 L316.1,592.4 L315.5,586.5 L315.1,574.8 L313.7,563.6 L315.1,561.5 L319.7,559.4 L325.2,558.1 L329.2,553.8 L330.1,548.6 L326.7,538.5 L326.4,531.6 L327.4,523.7 L332.9,509.8 L331.8,503.4 L329.1,496.3 L329.0,486.6 L327.4,473.8 L324.4,465.8 L322.7,461.6 L323.8,459.7 L325.0,459.9 L325.3,459.1 L325.4,458.1 L325.4,457.1 L323.7,456.9 L322.5,455.3 L322.7,453.5 L321.2,453.1 L319.4,453.0 L319.1,453.5 L315.4,449.0 L314.6,447.6 L313.9,445.6 L313.4,443.8 L313.1,441.8 L312.9,439.7 L312.9,438.0 L312.8,436.1 L313.0,435.1 L313.8,432.6 L314.7,430.6 L315.9,428.7 L317.6,426.2 L319.3,423.8 L321.0,422.2 L323.0,420.6 L323.4,421.0 L341.0,407.6 L343.5,405.6 L343.0,404.9 L343.0,403.6 L347.4,400.2 L348.4,400.2 L349.5,401.0 L351.3,399.6 L369.4,386.0 L369.1,385.5 L371.3,383.9 L373.8,382.4 L375.5,381.6 L378.0,380.6 L380.2,380.1 L382.3,379.7 L384.6,379.5 L386.1,379.7 L388.0,380.0 L389.9,380.6 L391.3,381.3 L392.7,382.1 L393.7,382.8 L394.5,383.7 L395.8,384.8 L396.3,385.1 L397.2,385.1 L398.1,384.9 L400.8,382.9 L400.9,382.4 L401.2,382.0 L401.4,381.5 L401.4,380.8 L401.3,380.3 L400.8,379.7 L398.9,377.8 L397.4,376.5 L395.6,375.5 L392.6,374.3 L390.1,373.2 L394.5,370.9 L399.9,367.2 L406.7,366.3 L413.4,366.7 L417.9,365.0 L421.7,359.5 L436.2,333.5 L442.1,322.8 L446.7,311.4 L447.5,309.1 L454.5,287.9 L455.5,285.8 L456.8,283.8 L473.1,263.7 L476.5,260.1 L479.1,257.9 L515.4,226.8 L517.3,225.5 L523.6,222.1 L531.0,217.9 L554.2,205.8 L604.8,178.6 L605.9,179.5 L606.9,179.9 L607.8,180.1 L608.7,180.0 L609.6,179.8 L612.3,179.2 L615.4,178.5 L618.3,177.9 L621.2,177.4 L622.8,177.0 L625.1,176.3 L627.5,175.3 L633.6,172.0 L635.8,170.8 L636.9,170.1 L638.1,169.6 L642.8,167.6 L647.9,165.6 L654.4,162.8 L662.1,159.7 L662.4,159.5 L663.0,159.5 L663.9,159.2 L665.1,158.3 L666.4,157.8 L667.9,157.1 L670.7,155.5 L671.7,154.5 L673.4,153.4 L673.2,153.1 L673.9,152.3 L674.9,151.3 L676.3,150.5 L677.6,150.1 L678.9,149.6 L680.2,148.9 L682.6,147.3 L683.4,146.6 L684.1,145.5 L684.4,144.8 L684.4,144.0 L684.4,143.2 L684.5,142.4 L677.5,134.0 L699.5,121.1 L710.0,115.5 L712.1,114.9 L715.3,115.4 L718.8,120.4 L720.4,121.8 L721.9,122.5 L723.2,122.8 L724.4,122.7 L743.4,115.0 L748.5,112.5 L753.3,109.8 L761.0,105.7 L762.6,105.1 L870.0,60.5 L903.6,44.4 L1053.9,-27.8 L4560.4,-56.8 L4560.4,4961.0 L-2933.4,4961.0 L-2933.4,4747.7 Z" fill="#add7e1" stroke="none"><title>Biscayne Bay</title></path><path d="M174.5,462.3 L180.5,458.8 L188.5,459.0 L192.7,459.8 L198.4,459.2 L208.2,451.8 L210.5,444.5 L217.5,437.5 L209.7,427.4 L202.3,418.5 L196.3,409.1 L190.7,398.0 L182.3,398.9 L178.7,385.4 L173.5,382.7 L171.3,386.8 L173.9,399.6 L167.5,404.0 L157.9,405.2 L153.6,401.9 L151.9,391.1 L153.6,385.6 L159.9,382.3 L164.8,374.0 L162.5,368.6 L142.6,348.2 L134.7,350.0 L123.4,344.7 L109.4,334.0 L93.5,315.9 L85.8,300.5 L85.1,291.1 L91.6,283.4 L148.2,240.8 L157.8,231.6 L167.1,221.5 L168.8,215.5 L161.0,200.4 L21.8,307.4 L156.6,463.5 L175.8,490.0 L182.0,496.4 L186.3,490.8 L179.0,480.6 L175.4,471.7 L173.6,466.2 L174.5,462.3 Z" fill="#d5f2cb" stroke="#9fcf91" stroke-width="0.4"></path><path d="M174.5,462.3 L180.5,458.8 L188.5,459.0 L192.7,459.8 L198.4,459.2 L208.2,451.8 L210.5,444.5 L217.5,437.5 L209.7,427.4 L202.3,418.5 L196.3,409.1 L190.7,398.0 L182.3,398.9 L178.7,385.4 L173.5,382.7 L171.3,386.8 L173.9,399.6 L167.5,404.0 L157.9,405.2 L153.6,401.9 L151.9,391.1 L153.6,385.6 L159.9,382.3 L164.8,374.0 L162.5,368.6 L142.6,348.2 L134.7,350.0 L123.4,344.7 L109.4,334.0 L93.5,315.9 L85.8,300.5 L85.1,291.1 L91.6,283.4 L148.2,240.8 L157.8,231.6 L167.1,221.5 L168.8,215.5 L161.0,200.4 L21.8,307.4 L156.6,463.5 L175.8,490.0 L182.0,496.4 L186.3,490.8 L179.0,480.6 L175.4,471.7 L173.6,466.2 L174.5,462.3 Z" fill="url(#park-dots)" stroke="none"/><path d="M174.5,462.3 L180.5,458.8 L188.5,459.0 L192.7,459.8 L198.4,459.2 L208.2,451.8 L210.5,444.5 L217.5,437.5 L209.7,427.4 L202.3,418.5 L196.3,409.1 L190.7,398.0 L182.3,398.9 L178.7,385.4 L173.5,382.7 L171.3,386.8 L173.9,399.6 L167.5,404.0 L157.9,405.2 L153.6,401.9 L151.9,391.1 L153.6,385.6 L159.9,382.3 L164.8,374.0 L162.5,368.6 L142.6,348.2 L134.7,350.0 L123.4,344.7 L109.4,334.0 L93.5,315.9 L85.8,300.5 L85.1,291.1 L91.6,283.4 L148.2,240.8 L157.8,231.6 L167.1,221.5 L168.8,215.5 L161.0,200.4 L21.8,307.4 L156.6,463.5 L175.8,490.0 L182.0,496.4 L186.3,490.8 L179.0,480.6 L175.4,471.7 L173.6,466.2 L174.5,462.3 Z" fill="url(#park-canopy)" stroke="none"/><path d="M353.7,353.3 L357.2,352.1 L360.4,352.4 L362.4,355.5 L361.3,360.7 L371.0,374.2 L388.0,371.9 L394.0,369.3 L398.8,364.9 L407.8,364.3 L413.8,364.1 L409.6,357.4 L398.0,343.9 L383.5,326.3 L376.7,318.1 L363.6,300.8 L351.4,284.0 L331.1,260.1 L317.5,242.5 L289.7,207.2 L281.0,194.4 L303.3,177.2 L341.7,145.8 L363.9,130.7 L354.8,121.4 L326.4,103.6 L333.2,117.9 L329.8,127.7 L306.1,138.6 L289.4,147.9 L276.6,156.0 L267.8,169.9 L261.7,189.5 L259.1,226.8 L258.1,241.0 L257.4,248.6 L255.3,256.0 L252.4,260.5 L257.4,272.3 L298.4,327.7 L309.8,329.2 L321.5,326.2 L328.1,321.8 L335.0,325.3 L343.7,339.0 L353.5,333.2 L364.5,326.4 L367.5,326.1 L370.8,326.9 L373.5,330.2 L374.9,334.3 L354.2,350.7 L353.8,352.1 L353.7,353.3 Z" fill="#d5f2cb" stroke="#9fcf91" stroke-width="0.4"></path><path d="M353.7,353.3 L357.2,352.1 L360.4,352.4 L362.4,355.5 L361.3,360.7 L371.0,374.2 L388.0,371.9 L394.0,369.3 L398.8,364.9 L407.8,364.3 L413.8,364.1 L409.6,357.4 L398.0,343.9 L383.5,326.3 L376.7,318.1 L363.6,300.8 L351.4,284.0 L331.1,260.1 L317.5,242.5 L289.7,207.2 L281.0,194.4 L303.3,177.2 L341.7,145.8 L363.9,130.7 L354.8,121.4 L326.4,103.6 L333.2,117.9 L329.8,127.7 L306.1,138.6 L289.4,147.9 L276.6,156.0 L267.8,169.9 L261.7,189.5 L259.1,226.8 L258.1,241.0 L257.4,248.6 L255.3,256.0 L252.4,260.5 L257.4,272.3 L298.4,327.7 L309.8,329.2 L321.5,326.2 L328.1,321.8 L335.0,325.3 L343.7,339.0 L353.5,333.2 L364.5,326.4 L367.5,326.1 L370.8,326.9 L373.5,330.2 L374.9,334.3 L354.2,350.7 L353.8,352.1 L353.7,353.3 Z" fill="url(#park-dots)" stroke="none"/><path d="M353.7,353.3 L357.2,352.1 L360.4,352.4 L362.4,355.5 L361.3,360.7 L371.0,374.2 L388.0,371.9 L394.0,369.3 L398.8,364.9 L407.8,364.3 L413.8,364.1 L409.6,357.4 L398.0,343.9 L383.5,326.3 L376.7,318.1 L363.6,300.8 L351.4,284.0 L331.1,260.1 L317.5,242.5 L289.7,207.2 L281.0,194.4 L303.3,177.2 L341.7,145.8 L363.9,130.7 L354.8,121.4 L326.4,103.6 L333.2,117.9 L329.8,127.7 L306.1,138.6 L289.4,147.9 L276.6,156.0 L267.8,169.9 L261.7,189.5 L259.1,226.8 L258.1,241.0 L257.4,248.6 L255.3,256.0 L252.4,260.5 L257.4,272.3 L298.4,327.7 L309.8,329.2 L321.5,326.2 L328.1,321.8 L335.0,325.3 L343.7,339.0 L353.5,333.2 L364.5,326.4 L367.5,326.1 L370.8,326.9 L373.5,330.2 L374.9,334.3 L354.2,350.7 L353.8,352.1 L353.7,353.3 Z" fill="url(#park-canopy)" stroke="none"/><path d="M159.4,242.9 L194.8,289.2 L205.8,279.3 L217.0,268.1 L240.5,259.9 L247.8,246.8 L253.9,202.6 L258.6,172.5 L265.8,157.8 L288.2,140.6 L271.6,120.7 L169.3,197.0 L175.7,216.4 L172.8,225.1 L167.1,233.4 L159.4,242.9 Z" fill="#d5f2cb" stroke="#9fcf91" stroke-width="0.4"></path><path d="M159.4,242.9 L194.8,289.2 L205.8,279.3 L217.0,268.1 L240.5,259.9 L247.8,246.8 L253.9,202.6 L258.6,172.5 L265.8,157.8 L288.2,140.6 L271.6,120.7 L169.3,197.0 L175.7,216.4 L172.8,225.1 L167.1,233.4 L159.4,242.9 Z" fill="url(#park-dots)" stroke="none"/><path d="M159.4,242.9 L194.8,289.2 L205.8,279.3 L217.0,268.1 L240.5,259.9 L247.8,246.8 L253.9,202.6 L258.6,172.5 L265.8,157.8 L288.2,140.6 L271.6,120.7 L169.3,197.0 L175.7,216.4 L172.8,225.1 L167.1,233.4 L159.4,242.9 Z" fill="url(#park-canopy)" stroke="none"/><path d="M274.2,6.1 L282.8,18.7 L278.6,21.6 L277.3,19.8 L274.7,21.6 L275.2,22.2 L259.4,33.1 L253.7,24.7 L257.5,22.1 L255.1,18.5 L261.2,14.3 L262.8,16.6 L267.5,13.3 L271.0,18.4 L273.4,16.7 L268.7,9.9 L274.2,6.1 Z" fill="#d6d2c9" stroke="#bab6ad" stroke-width="0.4"></path><path d="M35.3,241.9 L30.6,245.5 L25.7,239.0 L30.4,235.5 L35.3,241.9 Z" fill="#d6d2c9" stroke="#bab6ad" stroke-width="0.4"></path><path d="M161.6,78.8 L149.4,88.1 L142.6,79.0 L140.0,78.4 L137.0,74.4 L140.0,72.6 L155.3,61.2 L158.6,65.6 L155.9,67.7 L158.1,70.7 L156.5,71.9 L161.6,78.8 Z" fill="#d6d2c9" stroke="#bab6ad" stroke-width="0.4"></path><path d="M0.7,-2.2 L2.3,2.1 L12.7,-2.0 L16.1,6.9 L15.4,7.1 L16.7,10.6 L8.6,13.8 L10.5,18.7 L8.4,19.6 L8.6,20.1 L2.2,22.6 L-6.5,0.6 L0.7,-2.2 Z" fill="#d6d2c9" stroke="#bab6ad" stroke-width="0.4"></path><path d="M75.1,51.0 L77.0,53.5 L78.1,52.6 L82.7,58.6 L70.1,68.3 L60.2,55.5 L67.0,50.2 L65.7,48.4 L75.5,40.8 L80.2,47.1 L75.1,51.0 Z" fill="#d6d2c9" stroke="#bab6ad" stroke-width="0.4"></path><path d="M130.7,176.1 L128.3,177.8 L128.7,178.4 L126.9,179.7 L131.7,186.3 L136.2,183.0 L139.7,187.8 L125.2,198.4 L118.1,188.5 L118.4,186.2 L117.8,186.1 L118.4,182.0 L119.0,182.0 L119.7,177.0 L112.7,178.6 L110.3,175.3 L116.1,171.0 L115.7,170.4 L122.8,165.2 L130.7,176.1 Z" fill="#d6d2c9" stroke="#bab6ad" stroke-width="0.4"></path><path d="M103.9,82.6 L105.3,84.3 L107.3,82.7 L109.9,86.1 L107.8,87.8 L110.3,90.9 L94.5,103.3 L89.3,96.6 L93.3,93.5 L87.3,85.8 L101.2,74.9 L105.9,81.0 L103.9,82.6 Z" fill="#d6d2c9" stroke="#bab6ad" stroke-width="0.4"></path><path d="M71.0,40.1 L59.0,49.1 L48.6,34.8 L53.7,30.9 L53.5,30.5 L62.7,23.6 L68.3,31.2 L67.4,31.8 L70.3,35.7 L68.7,37.0 L71.0,40.1 Z" fill="#d6d2c9" stroke="#bab6ad" stroke-width="0.4"></path><path d="M99.8,2.9 L102.8,6.8 L110.7,0.8 L115.4,7.0 L100.2,18.5 L94.9,11.5 L90.0,15.2 L84.4,7.7 L99.8,-4.1 L103.1,0.3 L99.8,2.9 Z" fill="#d6d2c9" stroke="#bab6ad" stroke-width="0.4"></path><path d="M38.6,229.2 L44.5,236.9 L45.8,235.9 L45.1,234.9 L52.4,229.2 L59.2,238.2 L54.5,241.7 L56.1,243.7 L49.1,249.1 L47.7,247.2 L44.5,249.6 L32.6,233.8 L38.6,229.2 Z" fill="#d6d2c9" stroke="#bab6ad" stroke-width="0.4"></path><path d="M-12.7,143.1 L0.0,148.2 L1.8,143.8 L8.4,146.5 L1.0,165.3 L-14.0,159.4 L-14.4,160.2 L-20.4,157.9 L-15.0,144.3 L-13.5,145.0 L-12.7,143.1 Z" fill="#d6d2c9" stroke="#bab6ad" stroke-width="0.4"></path><path d="M158.1,88.5 L160.1,95.6 L173.9,91.5 L175.4,96.6 L180.2,95.2 L182.2,102.2 L156.6,109.8 L154.0,100.9 L152.7,101.3 L149.7,91.1 L158.1,88.5 Z" fill="#d6d2c9" stroke="#bab6ad" stroke-width="0.4"></path><path d="M8.9,260.9 L11.6,264.5 L17.5,259.9 L21.1,264.7 L25.0,261.7 L30.5,269.0 L25.7,272.7 L20.6,265.9 L17.3,268.4 L16.6,267.4 L12.7,270.5 L13.2,271.1 L10.1,273.6 L0.7,261.3 L8.2,255.5 L7.0,253.9 L13.1,249.2 L17.2,254.6 L8.9,260.9 Z" fill="#d6d2c9" stroke="#bab6ad" stroke-width="0.4"></path><path d="M86.7,193.9 L94.6,205.7 L83.0,214.5 L86.6,219.3 L81.0,223.5 L69.0,207.6 L75.1,202.9 L76.4,204.5 L78.1,203.2 L79.0,204.4 L82.4,201.8 L80.2,199.0 L86.7,193.9 Z" fill="#d6d2c9" stroke="#bab6ad" stroke-width="0.4"></path><path d="M161.5,139.2 L175.7,150.8 L170.7,156.9 L166.4,153.4 L159.7,161.6 L151.9,155.2 L151.5,155.8 L145.0,150.4 L149.8,144.5 L154.7,148.5 L158.1,144.2 L157.7,143.9 L161.5,139.2 Z" fill="#d6d2c9" stroke="#bab6ad" stroke-width="0.4"></path><path d="M29.8,46.3 L29.4,49.5 L32.0,49.9 L29.9,64.5 L23.9,63.7 L23.2,69.3 L18.3,68.7 L19.6,58.4 L19.1,58.4 L18.5,62.8 L7.1,61.2 L7.7,57.8 L7.6,57.7 L9.2,46.5 L22.7,48.5 L23.1,45.4 L29.8,46.3 Z" fill="#d6d2c9" stroke="#bab6ad" stroke-width="0.4"></path><path d="M1.6,214.2 L5.9,219.9 L2.1,222.8 L2.5,223.4 L-12.4,234.7 L-17.8,227.6 L-17.3,227.2 L-18.4,225.6 L-11.6,220.0 L-11.5,219.0 L-10.8,218.0 L-9.9,217.6 L-8.7,217.8 L-6.9,216.4 L-9.9,212.3 L-2.1,206.4 L2.9,213.2 L1.6,214.2 Z" fill="#d6d2c9" stroke="#bab6ad" stroke-width="0.4"></path><path d="M106.2,120.3 L103.4,122.5 L97.5,115.1 L100.4,112.8 L106.2,120.3 Z" fill="#d6d2c9" stroke="#bab6ad" stroke-width="0.4"></path><path d="M73.4,228.1 L61.8,237.1 L51.0,223.0 L58.8,217.0 L57.7,215.5 L65.5,209.5 L74.3,221.0 L70.3,224.1 L73.4,228.1 Z" fill="#d6d2c9" stroke="#bab6ad" stroke-width="0.4"></path><path d="M62.0,78.7 L69.5,84.8 L68.1,86.5 L71.4,89.2 L69.1,92.0 L69.8,92.6 L66.7,96.4 L66.0,95.8 L63.9,98.5 L60.2,95.5 L59.3,96.7 L61.8,100.2 L61.0,100.8 L61.6,101.7 L55.6,106.3 L50.6,99.4 L55.8,95.4 L56.1,95.9 L61.2,89.6 L57.5,86.6 L52.3,93.0 L46.0,87.9 L53.5,78.6 L54.4,79.3 L58.7,73.9 L63.0,77.4 L62.0,78.7 Z" fill="#d6d2c9" stroke="#bab6ad" stroke-width="0.4"></path><path d="M84.6,114.5 L86.5,116.9 L89.1,114.9 L94.0,121.4 L96.3,119.6 L99.9,124.3 L95.9,127.3 L96.7,128.4 L86.2,136.4 L79.6,127.7 L74.7,131.4 L70.2,125.5 L84.6,114.5 Z" fill="#d6d2c9" stroke="#bab6ad" stroke-width="0.4"></path><path d="M90.1,-22.5 L96.7,-13.7 L98.1,-14.8 L101.8,-9.8 L86.9,1.7 L82.6,-3.9 L81.2,-2.8 L78.8,-6.0 L75.6,-3.6 L71.1,-9.6 L81.6,-17.7 L82.3,-16.7 L90.1,-22.5 Z" fill="#d6d2c9" stroke="#bab6ad" stroke-width="0.4"></path><path d="M189.6,106.8 L187.6,116.5 L195.0,115.5 L196.5,126.6 L189.2,127.6 L189.0,126.2 L183.7,126.9 L182.7,131.6 L179.6,130.9 L178.7,134.8 L172.7,133.5 L175.7,120.3 L166.8,118.3 L168.7,109.9 L177.7,112.0 L177.1,114.5 L180.7,115.4 L182.6,107.4 L189.6,106.8 Z" fill="#d6d2c9" stroke="#bab6ad" stroke-width="0.4"></path><path d="M133.9,46.4 L121.0,56.2 L115.6,48.9 L119.4,46.0 L113.7,38.3 L129.1,26.6 L137.4,37.7 L131.0,42.6 L133.9,46.4 Z" fill="#d6d2c9" stroke="#bab6ad" stroke-width="0.4"></path><path d="M50.8,66.6 L46.6,77.0 L36.4,72.8 L35.5,75.0 L28.6,72.2 L38.8,47.2 L44.8,49.7 L42.4,55.7 L46.1,57.2 L43.5,63.6 L50.8,66.6 Z" fill="#d6d2c9" stroke="#bab6ad" stroke-width="0.4"></path><path d="M97.6,132.3 L103.1,139.6 L104.4,138.6 L107.2,142.2 L100.9,147.1 L102.4,149.1 L96.4,153.8 L93.2,149.6 L94.6,148.5 L93.8,147.3 L94.4,146.3 L92.8,144.3 L88.0,148.0 L84.0,142.8 L97.6,132.3 Z" fill="#d6d2c9" stroke="#bab6ad" stroke-width="0.4"></path><path d="M96.1,75.2 L77.5,89.0 L75.0,85.5 L79.2,82.3 L70.5,71.2 L88.4,57.4 L93.2,63.4 L89.6,66.3 L96.1,75.2 Z" fill="#d6d2c9" stroke="#bab6ad" stroke-width="0.4"></path><path d="M76.5,93.8 L87.3,108.5 L75.4,117.4 L69.8,109.9 L70.4,109.4 L69.0,107.5 L67.5,108.7 L68.4,109.8 L61.7,114.7 L57.0,108.4 L76.5,93.8 Z" fill="#d6d2c9" stroke="#bab6ad" stroke-width="0.4"></path><path d="M44.6,145.4 L49.8,152.7 L51.0,151.8 L52.0,153.2 L55.1,150.9 L59.8,157.4 L47.6,166.3 L41.8,158.2 L42.7,157.4 L37.7,150.4 L44.6,145.4 Z" fill="#d6d2c9" stroke="#bab6ad" stroke-width="0.4"></path><path d="M109.1,15.2 L111.3,18.3 L114.2,16.1 L115.4,17.6 L117.6,15.9 L121.3,20.9 L119.8,22.1 L123.8,27.4 L113.3,35.4 L106.8,26.8 L101.8,30.6 L97.1,24.4 L109.1,15.2 Z" fill="#d6d2c9" stroke="#bab6ad" stroke-width="0.4"></path><path d="M115.0,101.8 L116.5,103.8 L120.8,100.5 L125.4,106.7 L111.3,117.3 L105.2,109.2 L101.2,112.3 L96.3,105.7 L112.1,93.6 L117.1,100.2 L115.0,101.8 Z" fill="#d6d2c9" stroke="#bab6ad" stroke-width="0.4"></path><path d="M53.4,13.7 L48.5,17.5 L51.0,20.8 L51.7,20.2 L55.6,25.2 L44.6,33.7 L41.3,29.5 L40.2,30.4 L36.9,26.0 L30.1,31.2 L25.2,24.7 L31.9,19.2 L31.5,18.6 L37.0,14.4 L37.9,15.7 L48.6,7.4 L53.4,13.7 Z" fill="#d6d2c9" stroke="#bab6ad" stroke-width="0.4"></path><path d="M43.0,142.6 L25.8,156.0 L23.6,153.2 L25.0,152.1 L24.1,150.9 L26.5,149.1 L22.0,143.3 L23.5,142.2 L21.1,139.1 L26.8,134.7 L25.9,133.5 L35.6,125.9 L40.1,131.7 L36.7,134.4 L43.0,142.6 Z" fill="#d6d2c9" stroke="#bab6ad" stroke-width="0.4"></path><path d="M40.0,179.2 L48.7,191.3 L44.1,194.6 L40.9,195.0 L38.8,194.0 L36.1,195.9 L35.8,195.5 L32.9,197.6 L30.5,194.3 L27.1,196.7 L27.5,197.2 L22.7,200.6 L17.9,193.9 L25.3,188.5 L24.0,186.8 L33.3,180.0 L35.2,182.7 L40.0,179.2 Z" fill="#d6d2c9" stroke="#bab6ad" stroke-width="0.4"></path><path d="M70.0,173.2 L61.6,179.8 L60.3,178.1 L52.2,184.3 L44.6,174.5 L53.1,167.9 L52.1,166.5 L59.7,160.6 L70.0,173.2 Z" fill="#d6d2c9" stroke="#bab6ad" stroke-width="0.4"></path><path d="M145.3,155.7 L152.1,164.6 L146.2,169.2 L148.7,172.5 L140.0,179.2 L126.8,161.8 L132.8,157.2 L136.7,162.3 L145.3,155.7 Z" fill="#d6d2c9" stroke="#bab6ad" stroke-width="0.4"></path><path d="M13.6,105.4 L25.0,117.9 L27.2,115.9 L32.6,121.8 L18.5,134.7 L5.4,120.3 L9.3,116.8 L5.6,112.7 L13.6,105.4 Z" fill="#d6d2c9" stroke="#bab6ad" stroke-width="0.4"></path><path d="M138.2,46.9 L140.9,50.5 L143.0,48.8 L146.8,53.9 L142.6,57.1 L147.0,63.0 L138.3,69.8 L132.5,62.3 L128.4,65.2 L123.2,58.4 L138.2,46.9 Z" fill="#d6d2c9" stroke="#bab6ad" stroke-width="0.4"></path><path d="M-7.3,90.1 L-6.6,95.3 L-1.6,94.6 L-1.0,99.0 L-0.4,98.9 L2.0,115.7 L-6.4,116.9 L-7.1,112.2 L-9.4,112.5 L-8.8,116.3 L-19.1,117.8 L-20.3,109.8 L-23.0,110.2 L-24.2,102.2 L-23.4,102.1 L-24.3,95.5 L-14.2,94.1 L-14.6,91.2 L-7.3,90.1 Z" fill="#d6d2c9" stroke="#bab6ad" stroke-width="0.4"></path><path d="M127.4,118.8 L129.6,121.6 L130.3,121.0 L134.0,125.8 L119.7,136.9 L115.9,132.0 L118.7,129.8 L112.3,121.4 L116.1,118.5 L115.7,117.9 L126.9,109.3 L131.7,115.5 L127.4,118.8 Z" fill="#d6d2c9" stroke="#bab6ad" stroke-width="0.4"></path><path d="M23.6,-9.4 L23.9,-7.2 L30.2,-8.0 L30.3,-7.4 L36.9,-8.2 L47.0,5.1 L38.5,11.6 L33.8,5.6 L26.5,6.6 L25.7,2.9 L17.7,4.0 L16.0,-8.4 L23.6,-9.4 Z" fill="#d6d2c9" stroke="#bab6ad" stroke-width="0.4"></path><path d="M-178.1,385.9 L79.5,189.1 L81.2,188.4 L83.4,188.2 L85.5,188.4 L87.5,189.3 L90.0,192.1 L102.7,206.3 L104.5,206.9 L106.7,206.8 L109.0,205.7" fill="none" stroke="#cf828d" stroke-width="1.3" stroke-dasharray="1.6 3.0" opacity="0.62" stroke-linecap="round" stroke-linejoin="round"></path><path d="M268.3,115.1 L291.8,141.7 L294.5,145.4 L299.5,157.6 L297.5,181.6 L278.5,197.9 L276.0,207.2 L280.8,216.1 L285.5,223.2 L288.0,232.4 L281.5,235.9 L271.3,248.7 L247.7,270.9" fill="none" stroke="#cf828d" stroke-width="1.3" stroke-dasharray="1.6 3.0" opacity="0.62" stroke-linecap="round" stroke-linejoin="round"></path><path d="M109.0,205.7 L110.5,204.6 L111.8,203.6 L116.4,200.2" fill="none" stroke="#cf828d" stroke-width="1.3" stroke-dasharray="1.6 3.0" opacity="0.62" stroke-linecap="round" stroke-linejoin="round"></path><path d="M159.7,198.5 L126.4,224.1 L-154.7,439.5" fill="none" stroke="#cf828d" stroke-width="1.3" stroke-dasharray="1.6 3.0" opacity="0.62" stroke-linecap="round" stroke-linejoin="round"></path><path d="M305.6,86.4 L268.3,115.1 L164.7,194.7" fill="none" stroke="#cf828d" stroke-width="1.3" stroke-dasharray="1.6 3.0" opacity="0.62" stroke-linecap="round" stroke-linejoin="round"></path><path d="M164.7,194.7 L162.1,196.7 L159.7,198.5" fill="none" stroke="#cf828d" stroke-width="1.3" stroke-dasharray="1.6 3.0" opacity="0.62" stroke-linecap="round" stroke-linejoin="round"></path><path d="M116.4,200.2 L118.0,198.7 L119.0,197.1 L118.8,194.5 L114.8,189.1 L105.1,176.6 L104.6,175.5 L104.3,173.7 L104.6,171.8 L105.3,170.4 L106.2,169.0 L108.5,166.8 L142.4,141.0 L145.0,138.5 L147.2,135.9 L148.8,133.6 L150.2,130.8 L151.3,127.7 L152.0,125.0 L152.3,122.8 L152.5,119.9 L152.4,116.0 L151.8,112.7 L151.0,109.8 L149.4,106.7 L147.6,103.9 L144.6,100.0 L51.7,-21.3 L49.4,-23.1 L46.7,-24.6 L44.5,-25.7 L42.3,-26.5 L39.5,-27.6 L36.2,-28.4 L33.4,-28.9 L30.6,-29.0 L28.1,-29.0 L26.0,-28.8 L22.9,-28.4 L19.3,-27.6 L16.9,-26.7 L12.8,-25.0 L-447.7,161.5" fill="none" stroke="#cf828d" stroke-width="1.3" stroke-dasharray="1.6 3.0" opacity="0.62" stroke-linecap="round" stroke-linejoin="round"></path><path d="M244.8,-110.6 L295.6,-43.2 L298.3,-39.7 L344.3,20.3" fill="none" stroke="#cf828d" stroke-width="1.3" stroke-dasharray="1.6 3.0" opacity="0.62" stroke-linecap="round" stroke-linejoin="round"></path><path d="M243.8,263.9 L245.8,261.1 L247.8,257.9 L249.9,252.7 L251.2,248.2 L254.0,230.0 L256.5,210.1 L258.9,196.5 L260.6,180.7 L264.3,167.3 L276.1,152.5 L291.8,141.7 L327.4,124.6" fill="none" stroke="#cec8bb" stroke-width="3.2" stroke-linecap="round" stroke-linejoin="round"/><path d="M243.8,263.9 L245.8,261.1 L247.8,257.9 L249.9,252.7 L251.2,248.2 L254.0,230.0 L256.5,210.1 L258.9,196.5 L260.6,180.7 L264.3,167.3 L276.1,152.5 L291.8,141.7 L327.4,124.6" fill="none" stroke="#ffffff" stroke-width="2.2" stroke-linecap="round" stroke-linejoin="round"></path><path d="M251.9,80.4 L250.8,62.4 L249.8,47.8 L247.7,40.5 L245.4,35.3 L241.8,29.1 L237.7,23.4 L235.0,19.6 L226.6,8.8 L214.7,-6.0" fill="none" stroke="#cec8bb" stroke-width="3.2" stroke-linecap="round" stroke-linejoin="round"/><path d="M251.9,80.4 L250.8,62.4 L249.8,47.8 L247.7,40.5 L245.4,35.3 L241.8,29.1 L237.7,23.4 L235.0,19.6 L226.6,8.8 L214.7,-6.0" fill="none" stroke="#ffffff" stroke-width="2.2" stroke-linecap="round" stroke-linejoin="round"></path><path d="M147.9,-36.0 L159.0,-22.6 L170.4,-8.6 L187.6,13.4 L189.6,16.0 L191.7,19.8 L195.9,26.9 L197.7,29.2 L209.3,44.0 L215.1,50.1 L219.8,57.1 L220.1,60.3 L220.5,63.4 L220.7,68.8 L221.2,84.0 L221.6,95.5 L220.9,102.8 L221.2,111.3" fill="none" stroke="#cec8bb" stroke-width="3.2" stroke-linecap="round" stroke-linejoin="round"/><path d="M147.9,-36.0 L159.0,-22.6 L170.4,-8.6 L187.6,13.4 L189.6,16.0 L191.7,19.8 L195.9,26.9 L197.7,29.2 L209.3,44.0 L215.1,50.1 L219.8,57.1 L220.1,60.3 L220.5,63.4 L220.7,68.8 L221.2,84.0 L221.6,95.5 L220.9,102.8 L221.2,111.3" fill="none" stroke="#ffffff" stroke-width="2.2" stroke-linecap="round" stroke-linejoin="round"></path><path d="M220.9,102.8 L251.9,80.4" fill="none" stroke="#cec8bb" stroke-width="3.2" stroke-linecap="round" stroke-linejoin="round"/><path d="M220.9,102.8 L251.9,80.4" fill="none" stroke="#ffffff" stroke-width="2.2" stroke-linecap="round" stroke-linejoin="round"></path><path d="M153.6,240.5 L155.5,238.0 L168.3,225.7 L171.0,219.9 L171.6,214.5 L162.1,196.7 L156.3,188.6" fill="none" stroke="#cec8bb" stroke-width="3.2" stroke-linecap="round" stroke-linejoin="round"/><path d="M153.6,240.5 L155.5,238.0 L168.3,225.7 L171.0,219.9 L171.6,214.5 L162.1,196.7 L156.3,188.6" fill="none" stroke="#ffffff" stroke-width="2.2" stroke-linecap="round" stroke-linejoin="round"></path><path d="M153.6,240.5 L152.8,244.1 L156.2,248.6 L193.8,297.6" fill="none" stroke="#cec8bb" stroke-width="3.2" stroke-linecap="round" stroke-linejoin="round"/><path d="M153.6,240.5 L152.8,244.1 L156.2,248.6 L193.8,297.6" fill="none" stroke="#ffffff" stroke-width="2.2" stroke-linecap="round" stroke-linejoin="round"></path><path d="M153.6,240.5 L137.6,252.2 L123.5,262.5 L108.4,273.6 L92.4,285.3 L87.5,294.7 L90.3,304.5" fill="none" stroke="#cec8bb" stroke-width="3.2" stroke-linecap="round" stroke-linejoin="round"/><path d="M153.6,240.5 L137.6,252.2 L123.5,262.5 L108.4,273.6 L92.4,285.3 L87.5,294.7 L90.3,304.5" fill="none" stroke="#ffffff" stroke-width="2.2" stroke-linecap="round" stroke-linejoin="round"></path><path d="M137.6,252.2 L181.2,308.3" fill="none" stroke="#cec8bb" stroke-width="3.2" stroke-linecap="round" stroke-linejoin="round"/><path d="M137.6,252.2 L181.2,308.3" fill="none" stroke="#ffffff" stroke-width="2.2" stroke-linecap="round" stroke-linejoin="round"></path><path d="M221.2,111.3 L223.2,116.5 L233.4,129.3" fill="none" stroke="#cec8bb" stroke-width="3.2" stroke-linecap="round" stroke-linejoin="round"/><path d="M221.2,111.3 L223.2,116.5 L233.4,129.3" fill="none" stroke="#ffffff" stroke-width="2.2" stroke-linecap="round" stroke-linejoin="round"></path><path d="M221.2,84.0 L250.8,62.4" fill="none" stroke="#cec8bb" stroke-width="3.2" stroke-linecap="round" stroke-linejoin="round"/><path d="M221.2,84.0 L250.8,62.4" fill="none" stroke="#ffffff" stroke-width="2.2" stroke-linecap="round" stroke-linejoin="round"></path><path d="M220.1,60.3 L247.7,40.5" fill="none" stroke="#cec8bb" stroke-width="3.2" stroke-linecap="round" stroke-linejoin="round"/><path d="M220.1,60.3 L247.7,40.5" fill="none" stroke="#ffffff" stroke-width="2.2" stroke-linecap="round" stroke-linejoin="round"></path><path d="M209.3,44.0 L237.7,23.4" fill="none" stroke="#cec8bb" stroke-width="3.2" stroke-linecap="round" stroke-linejoin="round"/><path d="M209.3,44.0 L237.7,23.4" fill="none" stroke="#ffffff" stroke-width="2.2" stroke-linecap="round" stroke-linejoin="round"></path><path d="M197.7,29.2 L226.6,8.8" fill="none" stroke="#cec8bb" stroke-width="3.2" stroke-linecap="round" stroke-linejoin="round"/><path d="M197.7,29.2 L226.6,8.8" fill="none" stroke="#ffffff" stroke-width="2.2" stroke-linecap="round" stroke-linejoin="round"></path><path d="M187.6,13.4 L214.7,-6.0" fill="none" stroke="#cec8bb" stroke-width="3.2" stroke-linecap="round" stroke-linejoin="round"/><path d="M187.6,13.4 L214.7,-6.0" fill="none" stroke="#ffffff" stroke-width="2.2" stroke-linecap="round" stroke-linejoin="round"></path><path d="M259.5,109.8 L256.6,102.9 L255.2,99.4 L252.8,94.3 L252.0,90.6 L251.9,80.4" fill="none" stroke="#cec8bb" stroke-width="3.2" stroke-linecap="round" stroke-linejoin="round"/><path d="M259.5,109.8 L256.6,102.9 L255.2,99.4 L252.8,94.3 L252.0,90.6 L251.9,80.4" fill="none" stroke="#ffffff" stroke-width="2.2" stroke-linecap="round" stroke-linejoin="round"></path><path d="M220.7,68.8 L203.0,82.0 L213.6,95.4 L221.6,95.5" fill="none" stroke="#cec8bb" stroke-width="3.2" stroke-linecap="round" stroke-linejoin="round"/><path d="M220.7,68.8 L203.0,82.0 L213.6,95.4 L221.6,95.5" fill="none" stroke="#ffffff" stroke-width="2.2" stroke-linecap="round" stroke-linejoin="round"></path><path d="M187.8,69.4 L215.1,50.1" fill="none" stroke="#cec8bb" stroke-width="3.2" stroke-linecap="round" stroke-linejoin="round"/><path d="M187.8,69.4 L215.1,50.1" fill="none" stroke="#ffffff" stroke-width="2.2" stroke-linecap="round" stroke-linejoin="round"></path><path d="M249.8,47.8 L255.5,44.2 L265.2,37.3 L280.2,26.5 L287.4,35.8 L272.4,46.3 L265.2,37.3" fill="none" stroke="#cec8bb" stroke-width="3.2" stroke-linecap="round" stroke-linejoin="round"/><path d="M249.8,47.8 L255.5,44.2 L265.2,37.3 L280.2,26.5 L287.4,35.8 L272.4,46.3 L265.2,37.3" fill="none" stroke="#ffffff" stroke-width="2.2" stroke-linecap="round" stroke-linejoin="round"></path><path d="M145.2,120.4 L145.0,125.0 L143.4,129.3 L141.1,133.2 L137.2,136.9 L99.1,165.9 L89.4,173.4 L80.5,180.1 L35.4,214.8 L24.0,223.5 L17.6,228.4 L-241.2,426.1" fill="none" stroke="#cec8bb" stroke-width="4.3" stroke-linecap="round" stroke-linejoin="round"/><path d="M145.2,120.4 L145.0,125.0 L143.4,129.3 L141.1,133.2 L137.2,136.9 L99.1,165.9 L89.4,173.4 L80.5,180.1 L35.4,214.8 L24.0,223.5 L17.6,228.4 L-241.2,426.1" fill="none" stroke="#ffffff" stroke-width="3.2" stroke-linecap="round" stroke-linejoin="round"><title>Shore Drive East</title></path><path d="M33.4,-22.6 L37.8,-21.5 L43.4,-19.2 L47.1,-16.8 L49.9,-14.3 L140.1,104.5 L142.9,109.0 L144.8,113.6 L145.3,117.4 L145.2,120.4" fill="none" stroke="#cec8bb" stroke-width="4.3" stroke-linecap="round" stroke-linejoin="round"/><path d="M33.4,-22.6 L37.8,-21.5 L43.4,-19.2 L47.1,-16.8 L49.9,-14.3 L140.1,104.5 L142.9,109.0 L144.8,113.6 L145.3,117.4 L145.2,120.4" fill="none" stroke="#ffffff" stroke-width="3.2" stroke-linecap="round" stroke-linejoin="round"><title>Shore Drive North</title></path><path d="M33.4,-22.6 L29.4,-23.1 L25.3,-23.0 L20.4,-22.1 L13.8,-20.0 L-219.8,73.9" fill="none" stroke="#cec8bb" stroke-width="4.3" stroke-linecap="round" stroke-linejoin="round"/><path d="M33.4,-22.6 L29.4,-23.1 L25.3,-23.0 L20.4,-22.1 L13.8,-20.0 L-219.8,73.9" fill="none" stroke="#ffffff" stroke-width="3.2" stroke-linecap="round" stroke-linejoin="round"><title>Shore Drive West</title></path><path d="M272.1,-85.1 L300.6,-47.1 L305.3,-40.8" fill="none" stroke="#cec8bb" stroke-width="4.3" stroke-linecap="round" stroke-linejoin="round"/><path d="M272.1,-85.1 L300.6,-47.1 L305.3,-40.8" fill="none" stroke="#ffffff" stroke-width="3.2" stroke-linecap="round" stroke-linejoin="round"><title>Southwest 32nd Road</title></path><path d="M121.3,215.2 L113.7,206.1 L111.8,203.6 L109.8,201.1 L94.1,179.9 L89.4,173.4 L84.1,166.4 L38.3,105.9 L32.3,98.1 L27.9,92.8 L22.9,88.0 L17.4,84.1 L12.0,81.3 L6.4,79.7 L-0.2,78.7 L-5.9,78.4 L-11.4,78.9 L-20.1,81.3 L-156.2,135.9" fill="none" stroke="#cec8bb" stroke-width="4.3" stroke-linecap="round" stroke-linejoin="round"/><path d="M121.3,215.2 L113.7,206.1 L111.8,203.6 L109.8,201.1 L94.1,179.9 L89.4,173.4 L84.1,166.4 L38.3,105.9 L32.3,98.1 L27.9,92.8 L22.9,88.0 L17.4,84.1 L12.0,81.3 L6.4,79.7 L-0.2,78.7 L-5.9,78.4 L-11.4,78.9 L-20.1,81.3 L-156.2,135.9" fill="none" stroke="#ffffff" stroke-width="3.2" stroke-linecap="round" stroke-linejoin="round"><title>Samana Drive</title></path><path d="M24.0,223.5 L17.6,215.3 L-1.8,190.5 L-4.6,187.4 L-8.1,184.4 L-11.6,182.4 L-16.4,180.9 L-20.2,180.3 L-24.7,180.0 L-28.7,180.5 L-34.3,181.8 L-42.0,184.3 L-51.6,187.8" fill="none" stroke="#cec8bb" stroke-width="4.3" stroke-linecap="round" stroke-linejoin="round"/><path d="M24.0,223.5 L17.6,215.3 L-1.8,190.5 L-4.6,187.4 L-8.1,184.4 L-11.6,182.4 L-16.4,180.9 L-20.2,180.3 L-24.7,180.0 L-28.7,180.5 L-34.3,181.8 L-42.0,184.3 L-51.6,187.8" fill="none" stroke="#ffffff" stroke-width="3.2" stroke-linecap="round" stroke-linejoin="round"><title>Bay Heights Drive</title></path><path d="M259.5,109.8 L233.4,129.3 L156.3,188.6 L135.9,204.2 L121.3,215.2 L115.9,219.4 L112.8,221.8 L109.2,224.5 L105.1,227.7 L-142.2,417.0" fill="none" stroke="#d1c4aa" stroke-width="5.8" stroke-linecap="round" stroke-linejoin="round"/><path d="M259.5,109.8 L233.4,129.3 L156.3,188.6 L135.9,204.2 L121.3,215.2 L115.9,219.4 L112.8,221.8 L109.2,224.5 L105.1,227.7 L-142.2,417.0" fill="none" stroke="#f1c77d" stroke-width="4.4" stroke-linecap="round" stroke-linejoin="round"><title>South Miami Avenue</title></path><path d="M109.8,201.1 L110.5,204.6 L112.8,221.8" fill="none" stroke="#d1c4aa" stroke-width="4.9" stroke-linecap="round" stroke-linejoin="round"/><path d="M109.8,201.1 L110.5,204.6 L112.8,221.8" fill="none" stroke="#f1c77d" stroke-width="3.5" stroke-linecap="round" stroke-linejoin="round"></path><path d="M157.2,-144.9 L-521.4,130.3" fill="none" stroke="#d8955f" stroke-width="8.1" stroke-linecap="round" stroke-linejoin="round"/><path d="M157.2,-144.9 L-521.4,130.3" fill="none" stroke="#f0a86f" stroke-width="6.6" stroke-linecap="round" stroke-linejoin="round"><title>South Dixie Highway</title></path><path d="M157.2,-144.9 L-521.4,130.3" fill="none" stroke="#fff8ef" stroke-width="1.6" stroke-dasharray="5.5 6.5" opacity="0.82" stroke-linecap="round" stroke-linejoin="round"/><path d="M-541.7,152.0 L109.2,-111.3" fill="none" stroke="#d8955f" stroke-width="8.1" stroke-linecap="round" stroke-linejoin="round"/><path d="M-541.7,152.0 L109.2,-111.3" fill="none" stroke="#f0a86f" stroke-width="6.6" stroke-linecap="round" stroke-linejoin="round"><title>South Dixie Highway</title></path><path d="M-541.7,152.0 L109.2,-111.3" fill="none" stroke="#fff8ef" stroke-width="1.6" stroke-dasharray="5.5 6.5" opacity="0.82" stroke-linecap="round" stroke-linejoin="round"/><text x="194.8" y="159.0" transform="rotate(-37.5 194.8 159.0)" text-anchor="middle" dominant-baseline="central" font-family="Arial, sans-serif" font-size="8.3" textLength="95.6" lengthAdjust="spacing" font-weight="650" paint-order="stroke" stroke="#fffaf0" stroke-width="2.05" stroke-linejoin="round" fill="#6f573d">South Miami Avenue</text><text x="58.0" y="197.5" transform="rotate(-37.5 58.0 197.5)" text-anchor="middle" dominant-baseline="central" font-family="Arial, sans-serif" font-size="8.3" textLength="85.0" lengthAdjust="spacing" font-weight="650" paint-order="stroke" stroke="#fffaf0" stroke-width="2.05" stroke-linejoin="round" fill="#695f54">Shore Drive East</text><text x="106.5" y="60.3" transform="rotate(52.8 106.5 60.3)" text-anchor="middle" dominant-baseline="central" font-family="Arial, sans-serif" font-size="8.3" textLength="90.3" lengthAdjust="spacing" font-weight="650" paint-order="stroke" stroke="#fffaf0" stroke-width="2.05" stroke-linejoin="round" fill="#695f54">Shore Drive North</text><text x="171.2" y="31.2" text-anchor="middle" font-family="Arial, sans-serif" font-size="6.5" textLength="18.0" lengthAdjust="spacing" font-weight="500" paint-order="stroke" stroke="#f3f5ee" stroke-width="1.55" stroke-linejoin="round" fill="#6f777a">3280</text><text x="150.4" y="73.5" text-anchor="middle" font-family="Arial, sans-serif" font-size="6.5" textLength="18.0" lengthAdjust="spacing" font-weight="500" paint-order="stroke" stroke="#f3f5ee" stroke-width="1.55" stroke-linejoin="round" fill="#6f777a">21</text><text x="15.0" y="16.5" text-anchor="middle" font-family="Arial, sans-serif" font-size="6.5" textLength="18.0" lengthAdjust="spacing" font-weight="500" paint-order="stroke" stroke="#f3f5ee" stroke-width="1.55" stroke-linejoin="round" fill="#6f777a">50</text><text x="123.0" y="180.5" text-anchor="middle" font-family="Arial, sans-serif" font-size="6.5" textLength="18.0" lengthAdjust="spacing" font-weight="500" paint-order="stroke" stroke="#f3f5ee" stroke-width="1.55" stroke-linejoin="round" fill="#6f777a">1</text><text x="62.3" y="34.5" text-anchor="middle" font-family="Arial, sans-serif" font-size="6.5" textLength="18.0" lengthAdjust="spacing" font-weight="500" paint-order="stroke" stroke="#f3f5ee" stroke-width="1.55" stroke-linejoin="round" fill="#6f777a">36</text><text x="164.3" y="97.2" text-anchor="middle" font-family="Arial, sans-serif" font-size="6.5" textLength="18.0" lengthAdjust="spacing" font-weight="500" paint-order="stroke" stroke="#f3f5ee" stroke-width="1.55" stroke-linejoin="round" fill="#6f777a">17</text><text x="20.1" y="56.8" text-anchor="middle" font-family="Arial, sans-serif" font-size="6.5" textLength="18.0" lengthAdjust="spacing" font-weight="500" paint-order="stroke" stroke="#f3f5ee" stroke-width="1.55" stroke-linejoin="round" fill="#6f777a">23</text><text x="60.6" y="91.2" text-anchor="middle" font-family="Arial, sans-serif" font-size="6.5" textLength="18.0" lengthAdjust="spacing" font-weight="500" paint-order="stroke" stroke="#f3f5ee" stroke-width="1.55" stroke-linejoin="round" fill="#6f777a">15</text><text x="87.8" y="124.0" text-anchor="middle" font-family="Arial, sans-serif" font-size="6.5" textLength="18.0" lengthAdjust="spacing" font-weight="500" paint-order="stroke" stroke="#f3f5ee" stroke-width="1.55" stroke-linejoin="round" fill="#6f777a">7</text><text x="41.4" y="63.7" text-anchor="middle" font-family="Arial, sans-serif" font-size="6.5" textLength="18.0" lengthAdjust="spacing" font-weight="500" paint-order="stroke" stroke="#f3f5ee" stroke-width="1.55" stroke-linejoin="round" fill="#6f777a">19</text><text x="96.6" y="145.0" text-anchor="middle" font-family="Arial, sans-serif" font-size="6.5" textLength="18.0" lengthAdjust="spacing" font-weight="500" paint-order="stroke" stroke="#f3f5ee" stroke-width="1.55" stroke-linejoin="round" fill="#6f777a">1</text><text x="48.2" y="154.4" text-anchor="middle" font-family="Arial, sans-serif" font-size="6.5" textLength="18.0" lengthAdjust="spacing" font-weight="500" paint-order="stroke" stroke="#f3f5ee" stroke-width="1.55" stroke-linejoin="round" fill="#6f777a">6</text><text x="41.6" y="21.8" text-anchor="middle" font-family="Arial, sans-serif" font-size="6.5" textLength="18.0" lengthAdjust="spacing" font-weight="500" paint-order="stroke" stroke="#f3f5ee" stroke-width="1.55" stroke-linejoin="round" fill="#6f777a">40</text><text x="28.5" y="142.1" text-anchor="middle" font-family="Arial, sans-serif" font-size="6.5" textLength="18.0" lengthAdjust="spacing" font-weight="500" paint-order="stroke" stroke="#f3f5ee" stroke-width="1.55" stroke-linejoin="round" fill="#6f777a">10</text><text x="17.1" y="118.2" text-anchor="middle" font-family="Arial, sans-serif" font-size="6.5" textLength="18.0" lengthAdjust="spacing" font-weight="500" paint-order="stroke" stroke="#f3f5ee" stroke-width="1.55" stroke-linejoin="round" fill="#6f777a">18</text><text x="123.2" y="122.4" text-anchor="middle" font-family="Arial, sans-serif" font-size="6.5" textLength="18.0" lengthAdjust="spacing" font-weight="500" paint-order="stroke" stroke="#f3f5ee" stroke-width="1.55" stroke-linejoin="round" fill="#6f777a">10</text><g><title>South Miami Avenue &amp; Samana Drive</title><rect x="98.1" y="219.0" width="6.9" height="6.1" rx="1.3" fill="#2796c9" stroke="#ffffff" stroke-width="1.05"/><rect x="99.3" y="220.2" width="4.4" height="2.1" rx="0.35" fill="#ffffff"/><circle cx="99.7" cy="224.0" r="0.5" fill="#ffffff"/><circle cx="103.4" cy="224.0" r="0.5" fill="#ffffff"/></g><g><title>South Miami Avenue &amp; Samana Drive</title><rect x="118.8" y="226.1" width="6.9" height="6.1" rx="1.3" fill="#2796c9" stroke="#ffffff" stroke-width="1.05"/><rect x="120.0" y="227.3" width="4.4" height="2.1" rx="0.35" fill="#ffffff"/><circle cx="120.3" cy="231.1" r="0.5" fill="#ffffff"/><circle cx="124.1" cy="231.1" r="0.5" fill="#ffffff"/></g><g><title>signal</title><rect x="111.0" y="200.9" width="5.4" height="10.4" rx="2.1" fill="#3f4b52" stroke="#ffffff" stroke-width="1.1"/><circle cx="113.7" cy="203.3" r="1.1" fill="#d85a4f"/><circle cx="113.7" cy="206.1" r="1.1" fill="#e2b84b"/><circle cx="113.7" cy="208.9" r="1.1" fill="#55a86b"/></g><g><title>signal</title><rect x="133.2" y="199.0" width="5.4" height="10.4" rx="2.1" fill="#3f4b52" stroke="#ffffff" stroke-width="1.1"/><circle cx="135.9" cy="201.4" r="1.1" fill="#d85a4f"/><circle cx="135.9" cy="204.2" r="1.1" fill="#e2b84b"/><circle cx="135.9" cy="207.0" r="1.1" fill="#55a86b"/></g></svg>