<svg xmlns="http://www.w3.org/2000/svg" width="256" height="256" viewBox="0 0 256 256"><defs><pattern id="park-dots" width="22" height="22" patternUnits="userSpaceOnUse"><circle cx="5" cy="5" r="2.1" fill="#63a95d" fill-opacity="0.26"/><circle cx="16" cy="7" r="1.55" fill="#76b970" fill-opacity="0.23"/><circle cx="10" cy="17" r="1.9" fill="#61a65b" fill-opacity="0.24"/><circle cx="21" cy="17" r="1.25" fill="#80c174" fill-opacity="0.18"/><circle cx="1" cy="19" r="1.2" fill="#70b46a" fill-opacity="0.17"/></pattern><pattern id="park-canopy" width="54" height="48" patternUnits="userSpaceOnUse"><circle cx="12" cy="11" r="3.6" fill="#5ea75a" fill-opacity="0.22"/><circle cx="31" cy="15" r="2.9" fill="#75ba6d" fill-opacity="0.18"/><circle cx="45" cy="31" r="3.3" fill="#67ae62" fill-opacity="0.20"/><circle cx="19" cy="39" r="2.5" fill="#83c378" fill-opacity="0.16"/></pattern></defs><rect width="256" height="256" fill="#f1efe7"/><path d="M185.9,7.0 L153.1,28.0 L104.1,55.5 L90.3,70.9 L102.2,93.1 L135.8,122.1 L150.0,126.0 L172.0,109.5 L189.9,77.5 L200.0,38.6 L185.8,14.8 L185.9,7.0 Z" fill="#ead7d9" stroke="#d7d1c5" stroke-width="0.3"><title>Doctors Hospital</title></path><path d="M92.5,171.5 L91.6,184.2 L100.2,190.7 L101.9,191.9 L103.5,194.3 L103.4,196.2 L110.0,196.4 L109.0,194.2 L110.7,192.0 L110.0,190.7 L108.8,190.1 L106.8,191.9 L106.6,191.2 L107.5,189.1 L94.4,174.5 L92.2,176.2 L92.1,175.7 L93.4,172.5 L92.5,171.5 Z" fill="#e8ecec" stroke="#d7d1c5" stroke-width="0.3"><title>Lot 201 (Restricted)</title></path><path d="M166.7,189.7 L175.2,162.1 L98.8,244.9 L164.2,284.0 L187.3,274.6 L180.8,260.9 L175.6,248.0 L170.1,231.1 L167.7,220.7 L166.0,210.6 L165.8,202.8 L166.7,189.7 Z" fill="#eadfc8" stroke="#d7d1c5" stroke-width="0.3"><title>Henry S West Laboratory Elementary School</title></path><path d="M119.3,195.0 L120.5,191.2 L122.1,191.1 L124.2,189.8 L124.9,188.2 L128.9,178.0 L140.1,156.6 L144.0,152.6 L145.2,150.5 L144.8,148.7 L143.5,148.1 L145.3,145.6 L146.1,147.5 L146.6,149.9 L146.2,152.2 L146.5,154.2 L143.9,161.4 L138.1,172.5 L135.2,173.8 L128.1,187.2 L125.1,191.6 L121.9,193.2 L120.5,194.1 L119.3,195.0 Z" fill="#e8ecec" stroke="#d7d1c5" stroke-width="0.3"><title>Lot 302 (Red)</title></path><path d="M166.9,-58.7 L184.8,-58.7 L185.4,-57.7 L186.1,-31.8 L185.7,-22.3 L183.5,-12.6 L178.4,-4.1 L165.2,8.5 L149.7,20.5 L129.0,33.8 L112.1,42.8 L90.1,51.6 L74.2,56.4 L56.5,61.1 L36.0,63.8 L16.7,64.8 L-5.0,63.5 L-27.2,60.1 L-47.0,55.2 L-69.0,47.3 L-85.2,39.8 L-97.7,33.0 L-113.5,21.5 L-121.9,12.7 L-125.8,5.6 L-127.1,-36.5 L-127.1,-46.5 L-124.6,-47.8 L42.4,-52.8 L-113.0,-28.7 L-102.9,5.8 L-81.8,20.5 L-60.3,30.5 L-41.7,37.5 L-22.3,42.3 L-1.6,45.3 L17.9,46.4 L37.3,45.1 L54.0,42.8 L76.1,37.2 L105.9,26.6 L137.1,8.3 L163.1,-14.8 L167.7,-40.8 L166.9,-58.7 Z" fill="#ece7dc" stroke="#d7d1c5" stroke-width="0.3"></path><path d="M94.9,93.6 L99.8,100.1 L105.0,105.8 L110.3,110.7 L116.6,115.7 L121.9,119.4 L117.3,117.6 L111.3,113.1 L106.0,108.5 L101.6,103.9 L97.3,98.8 L94.9,93.6 Z" fill="#e8ecec" stroke="#d7d1c5" stroke-width="0.3"></path><path d="M103.9,59.1 L106.3,66.1 L111.2,72.4 L105.0,74.7 L103.3,76.1 L105.8,81.0 L109.9,86.6 L112.1,89.5 L115.8,93.6 L117.5,100.8 L112.2,102.7 L106.8,97.1 L101.9,90.9 L97.5,83.8 L93.4,75.4 L90.2,66.7 L90.3,64.9 L91.1,63.9 L92.6,63.1 L103.9,59.1 Z" fill="#e8ecec" stroke="#d7d1c5" stroke-width="0.3"></path><path d="M198.6,168.7 L200.5,169.9 L202.0,170.1 L203.6,169.8 L206.1,168.2 L207.4,167.0 L209.3,165.2 L209.8,164.1 L210.7,153.1 L211.5,146.9 L212.5,140.2 L214.2,132.9 L215.6,127.3 L216.2,123.6 L215.9,122.7 L215.5,121.8 L214.9,121.3 L214.3,121.5 L205.8,131.6 L186.3,157.2 L185.8,158.2 L185.9,159.1 L186.1,159.9 L186.7,160.7 L187.3,161.2 L198.6,168.7 Z" fill="#d5f2cb" stroke="#9fcf91" stroke-width="0.4"><title>Granada Park</title></path><path d="M198.6,168.7 L200.5,169.9 L202.0,170.1 L203.6,169.8 L206.1,168.2 L207.4,167.0 L209.3,165.2 L209.8,164.1 L210.7,153.1 L211.5,146.9 L212.5,140.2 L214.2,132.9 L215.6,127.3 L216.2,123.6 L215.9,122.7 L215.5,121.8 L214.9,121.3 L214.3,121.5 L205.8,131.6 L186.3,157.2 L185.8,158.2 L185.9,159.1 L186.1,159.9 L186.7,160.7 L187.3,161.2 L198.6,168.7 Z" fill="url(#park-dots)" stroke="none"/><path d="M102.6,1.9 L106.8,1.6 L109.5,0.8 L111.7,-0.4 L113.0,-1.6 L113.5,-2.8 L113.5,-4.3 L113.2,-5.9 L112.6,-6.9 L111.7,-7.8 L110.1,-8.6 L108.4,-8.8 L106.6,-8.4 L105.1,-7.7 L103.8,-6.8 L102.8,-6.0 L101.8,-5.4 L100.7,-5.2 L99.7,-5.3 L98.5,-5.4 L97.3,-5.1 L96.0,-4.3 L94.9,-3.3 L94.3,-2.0 L94.5,-0.7 L95.1,0.8 L96.3,1.8 L98.2,2.3 L100.3,2.2 L102.6,1.9 Z" fill="#dcf5d2" stroke="#9fcf91" stroke-width="0.4"></path><path d="M102.6,1.9 L106.8,1.6 L109.5,0.8 L111.7,-0.4 L113.0,-1.6 L113.5,-2.8 L113.5,-4.3 L113.2,-5.9 L112.6,-6.9 L111.7,-7.8 L110.1,-8.6 L108.4,-8.8 L106.6,-8.4 L105.1,-7.7 L103.8,-6.8 L102.8,-6.0 L101.8,-5.4 L100.7,-5.2 L99.7,-5.3 L98.5,-5.4 L97.3,-5.1 L96.0,-4.3 L94.9,-3.3 L94.3,-2.0 L94.5,-0.7 L95.1,0.8 L96.3,1.8 L98.2,2.3 L100.3,2.2 L102.6,1.9 Z" fill="url(#park-dots)" stroke="none"/><path d="M234.7,323.9 L259.1,303.0 L241.6,283.1 L232.8,270.3 L217.8,242.8 L209.9,219.2 L205.6,201.5 L204.2,192.6 L201.7,187.1 L197.5,182.2 L182.4,172.8 L180.0,176.1 L175.7,202.9 L176.9,212.5 L185.9,246.1 L197.0,271.9 L213.7,297.7 L234.7,323.9 Z" fill="#dcf5d2" stroke="#9fcf91" stroke-width="0.4"></path><path d="M234.7,323.9 L259.1,303.0 L241.6,283.1 L232.8,270.3 L217.8,242.8 L209.9,219.2 L205.6,201.5 L204.2,192.6 L201.7,187.1 L197.5,182.2 L182.4,172.8 L180.0,176.1 L175.7,202.9 L176.9,212.5 L185.9,246.1 L197.0,271.9 L213.7,297.7 L234.7,323.9 Z" fill="url(#park-dots)" stroke="none"/><path d="M127.4,127.4 L125.6,129.7 L125.0,129.7 L121.9,127.3 L121.7,126.7 L122.6,125.3 L112.8,118.2 L106.9,113.3 L105.9,114.5 L105.4,114.6 L104.1,113.5 L104.2,113.0 L105.2,112.0 L99.8,106.6 L95.4,101.2 L91.5,95.8 L90.4,96.8 L89.8,96.9 L89.3,96.7 L86.7,93.4 L86.7,92.8 L87.0,92.3 L89.3,90.9 L92.9,96.6 L97.4,102.5 L103.5,109.2 L108.7,113.9 L114.0,118.0 L122.1,123.8 L127.4,127.4 Z" fill="#dcf5d2" stroke="#9fcf91" stroke-width="0.4"></path><path d="M127.4,127.4 L125.6,129.7 L125.0,129.7 L121.9,127.3 L121.7,126.7 L122.6,125.3 L112.8,118.2 L106.9,113.3 L105.9,114.5 L105.4,114.6 L104.1,113.5 L104.2,113.0 L105.2,112.0 L99.8,106.6 L95.4,101.2 L91.5,95.8 L90.4,96.8 L89.8,96.9 L89.3,96.7 L86.7,93.4 L86.7,92.8 L87.0,92.3 L89.3,90.9 L92.9,96.6 L97.4,102.5 L103.5,109.2 L108.7,113.9 L114.0,118.0 L122.1,123.8 L127.4,127.4 Z" fill="url(#park-dots)" stroke="none"/><path d="M128.0,125.8 L128.0,124.6 L127.6,123.5 L121.9,119.4 L120.2,119.6 L117.3,117.6 L114.2,115.3 L111.3,113.1 L108.3,110.6 L106.0,108.5 L103.8,106.3 L101.6,103.9 L99.6,101.6 L97.3,98.8 L94.6,95.2 L94.9,93.6 L93.6,91.5 L92.9,90.9 L91.9,90.4 L90.9,90.3 L93.5,94.7 L96.4,98.7 L99.7,102.8 L103.8,107.2 L106.7,109.8 L109.6,112.4 L115.2,116.7 L121.9,121.5 L128.0,125.8 Z" fill="#dcf5d2" stroke="#9fcf91" stroke-width="0.4"></path><path d="M128.0,125.8 L128.0,124.6 L127.6,123.5 L121.9,119.4 L120.2,119.6 L117.3,117.6 L114.2,115.3 L111.3,113.1 L108.3,110.6 L106.0,108.5 L103.8,106.3 L101.6,103.9 L99.6,101.6 L97.3,98.8 L94.6,95.2 L94.9,93.6 L93.6,91.5 L92.9,90.9 L91.9,90.4 L90.9,90.3 L93.5,94.7 L96.4,98.7 L99.7,102.8 L103.8,107.2 L106.7,109.8 L109.6,112.4 L115.2,116.7 L121.9,121.5 L128.0,125.8 Z" fill="url(#park-dots)" stroke="none"/><path d="M131.7,128.4 L144.6,137.5 L144.6,136.6 L144.3,135.6 L143.8,134.9 L142.8,134.1 L135.1,128.7 L134.3,128.1 L132.9,128.1 L131.7,128.4 Z" fill="#dcf5d2" stroke="#9fcf91" stroke-width="0.4"></path><path d="M131.7,128.4 L144.6,137.5 L144.6,136.6 L144.3,135.6 L143.8,134.9 L142.8,134.1 L135.1,128.7 L134.3,128.1 L132.9,128.1 L131.7,128.4 Z" fill="url(#park-dots)" stroke="none"/><path d="M108.1,189.8 L106.6,191.2 L106.5,191.6 L106.8,191.9 L107.2,191.8 L108.8,190.1 L108.9,189.4 L108.5,188.7 L107.1,187.2 L103.2,182.9 L95.8,174.3 L95.3,173.8 L94.9,173.6 L94.4,173.6 L92.1,175.7 L92.0,176.0 L92.2,176.2 L92.6,176.1 L94.4,174.5 L106.4,187.9 L107.5,189.1 L108.1,189.8 Z" fill="#dcf5d2" stroke="#9fcf91" stroke-width="0.4"></path><path d="M108.1,189.8 L106.6,191.2 L106.5,191.6 L106.8,191.9 L107.2,191.8 L108.8,190.1 L108.9,189.4 L108.5,188.7 L107.1,187.2 L103.2,182.9 L95.8,174.3 L95.3,173.8 L94.9,173.6 L94.4,173.6 L92.1,175.7 L92.0,176.0 L92.2,176.2 L92.6,176.1 L94.4,174.5 L106.4,187.9 L107.5,189.1 L108.1,189.8 Z" fill="url(#park-dots)" stroke="none"/><path d="M100.5,170.2 L100.2,170.1 L99.7,170.2 L98.9,170.9 L98.6,171.3 L98.3,171.8 L98.4,172.4 L98.9,173.2 L106.4,181.9 L109.5,185.3 L111.2,187.2 L112.8,188.3 L115.2,188.7 L116.7,188.7 L118.1,188.2 L118.9,187.4 L119.7,186.2 L128.4,169.5 L134.6,157.1 L144.1,139.2 L130.4,129.5 L128.6,132.1 L128.7,132.5 L139.9,141.4 L135.0,154.0 L128.7,166.5 L118.7,186.0 L115.9,184.7 L115.4,184.8 L112.6,187.2 L110.5,184.8 L99.1,171.9 L100.5,170.6 L100.5,170.2 Z" fill="#dcf5d2" stroke="#9fcf91" stroke-width="0.4"></path><path d="M100.5,170.2 L100.2,170.1 L99.7,170.2 L98.9,170.9 L98.6,171.3 L98.3,171.8 L98.4,172.4 L98.9,173.2 L106.4,181.9 L109.5,185.3 L111.2,187.2 L112.8,188.3 L115.2,188.7 L116.7,188.7 L118.1,188.2 L118.9,187.4 L119.7,186.2 L128.4,169.5 L134.6,157.1 L144.1,139.2 L130.4,129.5 L128.6,132.1 L128.7,132.5 L139.9,141.4 L135.0,154.0 L128.7,166.5 L118.7,186.0 L115.9,184.7 L115.4,184.8 L112.6,187.2 L110.5,184.8 L99.1,171.9 L100.5,170.6 L100.5,170.2 Z" fill="url(#park-dots)" stroke="none"/><path d="M120.5,191.2 L120.5,190.9 L127.9,177.7 L133.4,167.4 L140.4,154.3 L143.0,148.4 L143.5,148.1 L144.1,148.2 L144.8,148.7 L145.2,149.5 L145.2,150.5 L144.8,151.7 L144.0,152.6 L142.4,152.8 L140.1,156.6 L133.6,168.8 L128.9,178.0 L123.8,187.6 L124.9,188.2 L124.9,188.6 L124.2,189.8 L123.3,190.5 L122.1,191.1 L121.2,191.5 L120.5,191.2 Z" fill="#dcf5d2" stroke="#9fcf91" stroke-width="0.4"></path><path d="M120.5,191.2 L120.5,190.9 L127.9,177.7 L133.4,167.4 L140.4,154.3 L143.0,148.4 L143.5,148.1 L144.1,148.2 L144.8,148.7 L145.2,149.5 L145.2,150.5 L144.8,151.7 L144.0,152.6 L142.4,152.8 L140.1,156.6 L133.6,168.8 L128.9,178.0 L123.8,187.6 L124.9,188.2 L124.9,188.6 L124.2,189.8 L123.3,190.5 L122.1,191.1 L121.2,191.5 L120.5,191.2 Z" fill="url(#park-dots)" stroke="none"/><path d="M75.1,136.7 L77.7,139.5 L78.0,139.5 L78.2,139.4 L78.2,139.0 L77.2,137.9 L83.3,132.5 L87.8,128.4 L94.9,122.1 L100.3,117.4 L101.4,116.4 L102.4,117.5 L102.8,117.5 L103.0,117.4 L103.1,117.1 L101.1,115.2 L100.1,114.3 L99.7,114.2 L99.4,114.5 L99.4,114.9 L100.5,116.0 L98.5,117.7 L94.6,121.1 L88.9,126.2 L85.3,129.4 L81.9,132.5 L76.7,137.2 L75.7,136.2 L75.4,136.1 L75.2,136.3 L75.1,136.7 Z" fill="#dcf5d2" stroke="#9fcf91" stroke-width="0.4"></path><path d="M75.1,136.7 L77.7,139.5 L78.0,139.5 L78.2,139.4 L78.2,139.0 L77.2,137.9 L83.3,132.5 L87.8,128.4 L94.9,122.1 L100.3,117.4 L101.4,116.4 L102.4,117.5 L102.8,117.5 L103.0,117.4 L103.1,117.1 L101.1,115.2 L100.1,114.3 L99.7,114.2 L99.4,114.5 L99.4,114.9 L100.5,116.0 L98.5,117.7 L94.6,121.1 L88.9,126.2 L85.3,129.4 L81.9,132.5 L76.7,137.2 L75.7,136.2 L75.4,136.1 L75.2,136.3 L75.1,136.7 Z" fill="url(#park-dots)" stroke="none"/><path d="M107.3,121.6 L108.4,122.7 L108.8,122.8 L109.1,122.5 L109.2,122.1 L108.9,121.7 L105.5,119.2 L105.2,119.2 L105.1,119.5 L106.6,120.9 L102.5,124.8 L97.7,129.1 L91.8,134.5 L86.0,139.7 L82.2,142.8 L81.2,141.8 L80.9,141.8 L80.6,142.0 L80.7,142.4 L83.2,145.1 L83.6,145.1 L83.8,144.8 L83.7,144.5 L82.9,143.6 L87.4,139.8 L91.3,136.2 L96.2,131.8 L102.9,125.7 L107.3,121.6 Z" fill="#dcf5d2" stroke="#9fcf91" stroke-width="0.4"></path><path d="M107.3,121.6 L108.4,122.7 L108.8,122.8 L109.1,122.5 L109.2,122.1 L108.9,121.7 L105.5,119.2 L105.2,119.2 L105.1,119.5 L106.6,120.9 L102.5,124.8 L97.7,129.1 L91.8,134.5 L86.0,139.7 L82.2,142.8 L81.2,141.8 L80.9,141.8 L80.6,142.0 L80.7,142.4 L83.2,145.1 L83.6,145.1 L83.8,144.8 L83.7,144.5 L82.9,143.6 L87.4,139.8 L91.3,136.2 L96.2,131.8 L102.9,125.7 L107.3,121.6 Z" fill="url(#park-dots)" stroke="none"/><path d="M120.8,193.9 L124.1,197.4 L131.2,186.7 L142.0,168.5 L153.2,149.2 L155.3,146.6 L155.8,145.7 L152.5,143.1 L151.5,142.5 L150.2,142.2 L149.1,142.1 L148.5,141.5 L147.8,141.6 L146.6,142.3 L145.8,143.1 L145.3,144.0 L145.3,144.7 L145.3,145.6 L145.7,146.7 L146.1,147.5 L146.5,148.8 L146.6,149.9 L146.6,151.1 L146.2,152.2 L144.6,155.2 L146.5,154.2 L146.6,156.0 L143.9,161.4 L140.6,167.8 L138.1,172.5 L136.5,172.7 L135.2,173.8 L133.5,176.8 L128.1,187.2 L126.1,190.5 L125.1,191.6 L123.7,192.4 L121.9,193.2 L120.8,193.9 Z" fill="#dcf5d2" stroke="#9fcf91" stroke-width="0.4"></path><path d="M120.8,193.9 L124.1,197.4 L131.2,186.7 L142.0,168.5 L153.2,149.2 L155.3,146.6 L155.8,145.7 L152.5,143.1 L151.5,142.5 L150.2,142.2 L149.1,142.1 L148.5,141.5 L147.8,141.6 L146.6,142.3 L145.8,143.1 L145.3,144.0 L145.3,144.7 L145.3,145.6 L145.7,146.7 L146.1,147.5 L146.5,148.8 L146.6,149.9 L146.6,151.1 L146.2,152.2 L144.6,155.2 L146.5,154.2 L146.6,156.0 L143.9,161.4 L140.6,167.8 L138.1,172.5 L136.5,172.7 L135.2,173.8 L133.5,176.8 L128.1,187.2 L126.1,190.5 L125.1,191.6 L123.7,192.4 L121.9,193.2 L120.8,193.9 Z" fill="url(#park-dots)" stroke="none"/><path d="M127.9,2.7 L127.3,3.1 L127.0,3.6 L127.5,5.6 L128.1,6.0 L128.9,6.0 L134.3,4.5 L134.6,4.0 L134.7,3.3 L134.1,1.7 L133.6,1.4 L133.0,1.3 L127.9,2.7 Z" fill="#dcf5d2" stroke="#9fcf91" stroke-width="0.4"></path><path d="M127.9,2.7 L127.3,3.1 L127.0,3.6 L127.5,5.6 L128.1,6.0 L128.9,6.0 L134.3,4.5 L134.6,4.0 L134.7,3.3 L134.1,1.7 L133.6,1.4 L133.0,1.3 L127.9,2.7 Z" fill="url(#park-dots)" stroke="none"/><path d="M114.8,8.3 L114.3,8.7 L114.2,9.3 L114.8,11.2 L115.3,11.6 L116.0,11.6 L119.4,10.8 L119.8,10.3 L119.8,9.7 L119.4,8.2 L119.0,7.7 L118.3,7.6 L114.8,8.3 Z" fill="#dcf5d2" stroke="#9fcf91" stroke-width="0.4"></path><path d="M114.8,8.3 L114.3,8.7 L114.2,9.3 L114.8,11.2 L115.3,11.6 L116.0,11.6 L119.4,10.8 L119.8,10.3 L119.8,9.7 L119.4,8.2 L119.0,7.7 L118.3,7.6 L114.8,8.3 Z" fill="url(#park-dots)" stroke="none"/><path d="M105.0,15.6 L104.3,15.9 L104.0,16.4 L104.3,18.9 L104.8,19.3 L105.5,19.3 L109.9,18.6 L110.4,18.1 L110.4,17.5 L110.3,15.8 L110.0,15.4 L109.4,15.2 L105.0,15.6 Z" fill="#dcf5d2" stroke="#9fcf91" stroke-width="0.4"></path><path d="M105.0,15.6 L104.3,15.9 L104.0,16.4 L104.3,18.9 L104.8,19.3 L105.5,19.3 L109.9,18.6 L110.4,18.1 L110.4,17.5 L110.3,15.8 L110.0,15.4 L109.4,15.2 L105.0,15.6 Z" fill="url(#park-dots)" stroke="none"/><path d="M91.5,19.3 L90.9,19.6 L90.7,20.2 L91.0,22.6 L91.4,23.2 L92.1,23.3 L97.9,22.9 L98.4,22.6 L98.7,22.0 L98.5,19.5 L98.0,19.0 L97.4,18.7 L91.5,19.3 Z" fill="#dcf5d2" stroke="#9fcf91" stroke-width="0.4"></path><path d="M91.5,19.3 L90.9,19.6 L90.7,20.2 L91.0,22.6 L91.4,23.2 L92.1,23.3 L97.9,22.9 L98.4,22.6 L98.7,22.0 L98.5,19.5 L98.0,19.0 L97.4,18.7 L91.5,19.3 Z" fill="url(#park-dots)" stroke="none"/><path d="M111.1,177.3 L113.9,180.4 L114.7,180.7 L115.2,180.7 L115.6,180.3 L116.1,179.3 L116.1,178.8 L114.1,178.0 L118.7,169.7 L120.3,170.6 L120.6,170.5 L126.5,160.0 L126.4,159.6 L126.1,159.3 L125.7,159.2 L125.2,159.2 L121.5,162.4 L121.5,162.8 L123.0,164.6 L110.7,175.7 L109.2,174.1 L109.0,174.1 L108.7,174.3 L108.8,174.6 L111.1,177.3 Z" fill="#dcf5d2" stroke="#9fcf91" stroke-width="0.4"></path><path d="M111.1,177.3 L113.9,180.4 L114.7,180.7 L115.2,180.7 L115.6,180.3 L116.1,179.3 L116.1,178.8 L114.1,178.0 L118.7,169.7 L120.3,170.6 L120.6,170.5 L126.5,160.0 L126.4,159.6 L126.1,159.3 L125.7,159.2 L125.2,159.2 L121.5,162.4 L121.5,162.8 L123.0,164.6 L110.7,175.7 L109.2,174.1 L109.0,174.1 L108.7,174.3 L108.8,174.6 L111.1,177.3 Z" fill="url(#park-dots)" stroke="none"/><path d="M109.9,163.8 L114.5,159.9 L122.3,152.9 L129.9,146.1 L133.9,142.4 L132.6,141.0 L132.5,140.7 L132.6,140.4 L132.8,140.2 L133.2,140.1 L133.5,140.1 L134.8,141.2 L135.1,141.5 L135.2,142.0 L135.3,142.6 L132.1,148.7 L131.8,148.9 L131.4,148.9 L130.1,147.5 L117.3,158.9 L111.3,164.1 L105.3,169.6 L106.6,171.1 L106.5,171.4 L106.3,171.6 L105.9,171.5 L102.6,168.1 L102.5,167.7 L102.8,167.4 L103.3,167.4 L104.5,168.8 L109.9,163.8 Z" fill="#dcf5d2" stroke="#9fcf91" stroke-width="0.4"></path><path d="M109.9,163.8 L114.5,159.9 L122.3,152.9 L129.9,146.1 L133.9,142.4 L132.6,141.0 L132.5,140.7 L132.6,140.4 L132.8,140.2 L133.2,140.1 L133.5,140.1 L134.8,141.2 L135.1,141.5 L135.2,142.0 L135.3,142.6 L132.1,148.7 L131.8,148.9 L131.4,148.9 L130.1,147.5 L117.3,158.9 L111.3,164.1 L105.3,169.6 L106.6,171.1 L106.5,171.4 L106.3,171.6 L105.9,171.5 L102.6,168.1 L102.5,167.7 L102.8,167.4 L103.3,167.4 L104.5,168.8 L109.9,163.8 Z" fill="url(#park-dots)" stroke="none"/><path d="M98.2,159.8 L97.8,159.8 L97.6,160.0 L97.6,160.4 L101.0,164.2 L101.4,164.2 L101.6,163.9 L101.6,163.6 L100.2,162.1 L107.2,155.8 L112.8,150.8 L118.7,145.5 L127.7,137.4 L129.2,139.0 L129.7,139.0 L130.1,138.9 L130.4,138.4 L130.5,137.7 L130.2,137.3 L126.8,134.3 L126.3,134.1 L125.9,134.2 L125.7,134.5 L125.7,134.9 L127.0,136.5 L117.6,144.8 L108.1,153.5 L99.5,161.2 L98.2,159.8 Z" fill="#dcf5d2" stroke="#9fcf91" stroke-width="0.4"></path><path d="M98.2,159.8 L97.8,159.8 L97.6,160.0 L97.6,160.4 L101.0,164.2 L101.4,164.2 L101.6,163.9 L101.6,163.6 L100.2,162.1 L107.2,155.8 L112.8,150.8 L118.7,145.5 L127.7,137.4 L129.2,139.0 L129.7,139.0 L130.1,138.9 L130.4,138.4 L130.5,137.7 L130.2,137.3 L126.8,134.3 L126.3,134.1 L125.9,134.2 L125.7,134.5 L125.7,134.9 L127.0,136.5 L117.6,144.8 L108.1,153.5 L99.5,161.2 L98.2,159.8 Z" fill="url(#park-dots)" stroke="none"/><path d="M94.1,155.2 L104.2,146.2 L120.7,131.4 L122.1,132.9 L122.6,132.9 L123.0,132.7 L123.1,132.3 L123.1,132.0 L119.3,129.2 L118.9,129.0 L118.4,129.1 L118.2,129.3 L118.2,129.7 L119.4,130.9 L112.7,136.8 L103.4,145.3 L93.4,154.3 L92.4,153.2 L92.0,153.2 L91.7,153.4 L91.7,153.7 L95.0,157.4 L95.4,157.4 L95.6,157.2 L95.5,156.9 L94.1,155.2 Z" fill="#dcf5d2" stroke="#9fcf91" stroke-width="0.4"></path><path d="M94.1,155.2 L104.2,146.2 L120.7,131.4 L122.1,132.9 L122.6,132.9 L123.0,132.7 L123.1,132.3 L123.1,132.0 L119.3,129.2 L118.9,129.0 L118.4,129.1 L118.2,129.3 L118.2,129.7 L119.4,130.9 L112.7,136.8 L103.4,145.3 L93.4,154.3 L92.4,153.2 L92.0,153.2 L91.7,153.4 L91.7,153.7 L95.0,157.4 L95.4,157.4 L95.6,157.2 L95.5,156.9 L94.1,155.2 Z" fill="url(#park-dots)" stroke="none"/><path d="M88.5,149.0 L94.9,143.3 L104.6,134.6 L114.1,126.0 L115.5,127.4 L115.7,127.3 L115.9,127.0 L115.8,126.8 L112.4,124.5 L112.0,124.4 L111.8,124.5 L111.8,124.9 L113.0,126.0 L104.3,133.8 L95.5,141.7 L87.9,148.2 L86.9,147.2 L86.6,147.2 L86.3,147.5 L86.4,147.9 L89.1,150.8 L89.5,150.8 L89.7,150.7 L89.6,150.2 L88.5,149.0 Z" fill="#dcf5d2" stroke="#9fcf91" stroke-width="0.4"></path><path d="M88.5,149.0 L94.9,143.3 L104.6,134.6 L114.1,126.0 L115.5,127.4 L115.7,127.3 L115.9,127.0 L115.8,126.8 L112.4,124.5 L112.0,124.4 L111.8,124.5 L111.8,124.9 L113.0,126.0 L104.3,133.8 L95.5,141.7 L87.9,148.2 L86.9,147.2 L86.6,147.2 L86.3,147.5 L86.4,147.9 L89.1,150.8 L89.5,150.8 L89.7,150.7 L89.6,150.2 L88.5,149.0 Z" fill="url(#park-dots)" stroke="none"/><path d="M30.2,79.9 L29.3,80.2 L28.7,80.6 L28.3,81.2 L27.9,81.9 L27.9,82.6 L28.0,83.5 L28.5,84.4 L30.8,87.2 L31.2,87.3 L31.4,87.1 L31.3,86.7 L29.9,85.1 L34.7,80.8 L36.3,82.4 L36.8,82.4 L39.4,80.1 L39.5,79.7 L39.3,79.4 L38.7,79.4 L30.2,79.9 Z" fill="#dcf5d2" stroke="#9fcf91" stroke-width="0.4"></path><path d="M30.2,79.9 L29.3,80.2 L28.7,80.6 L28.3,81.2 L27.9,81.9 L27.9,82.6 L28.0,83.5 L28.5,84.4 L30.8,87.2 L31.2,87.3 L31.4,87.1 L31.3,86.7 L29.9,85.1 L34.7,80.8 L36.3,82.4 L36.8,82.4 L39.4,80.1 L39.5,79.7 L39.3,79.4 L38.7,79.4 L30.2,79.9 Z" fill="url(#park-dots)" stroke="none"/><path d="M34.0,89.8 L33.7,89.7 L33.5,89.8 L33.6,90.2 L37.2,94.3 L37.5,94.3 L37.8,94.1 L37.7,93.8 L36.2,92.2 L50.5,79.2 L52.2,80.7 L52.7,80.6 L56.0,77.7 L55.8,77.2 L45.7,78.7 L45.4,79.0 L47.0,80.9 L35.5,91.4 L34.0,89.8 Z" fill="#dcf5d2" stroke="#9fcf91" stroke-width="0.4"></path><path d="M34.0,89.8 L33.7,89.7 L33.5,89.8 L33.6,90.2 L37.2,94.3 L37.5,94.3 L37.8,94.1 L37.7,93.8 L36.2,92.2 L50.5,79.2 L52.2,80.7 L52.7,80.6 L56.0,77.7 L55.8,77.2 L45.7,78.7 L45.4,79.0 L47.0,80.9 L35.5,91.4 L34.0,89.8 Z" fill="url(#park-dots)" stroke="none"/><path d="M41.8,98.4 L40.3,96.7 L40.0,96.6 L39.8,96.8 L39.8,97.2 L43.5,101.3 L43.8,101.3 L44.0,101.1 L43.9,100.7 L42.4,99.1 L68.1,75.9 L69.6,77.6 L70.1,77.6 L73.5,74.7 L73.6,74.2 L73.3,74.0 L72.8,73.8 L63.1,75.9 L62.6,76.1 L62.4,76.6 L62.4,77.2 L63.7,78.6 L41.8,98.4 Z" fill="#dcf5d2" stroke="#9fcf91" stroke-width="0.4"></path><path d="M41.8,98.4 L40.3,96.7 L40.0,96.6 L39.8,96.8 L39.8,97.2 L43.5,101.3 L43.8,101.3 L44.0,101.1 L43.9,100.7 L42.4,99.1 L68.1,75.9 L69.6,77.6 L70.1,77.6 L73.5,74.7 L73.6,74.2 L73.3,74.0 L72.8,73.8 L63.1,75.9 L62.6,76.1 L62.4,76.6 L62.4,77.2 L63.7,78.6 L41.8,98.4 Z" fill="url(#park-dots)" stroke="none"/><path d="M46.5,103.6 L46.2,103.7 L45.9,103.9 L45.9,104.2 L49.7,108.3 L50.0,108.3 L50.2,108.0 L50.2,107.7 L48.7,106.1 L57.3,98.4 L69.9,86.9 L75.3,82.1 L76.8,83.7 L77.3,83.8 L77.6,83.5 L77.4,82.9 L75.6,78.3 L75.2,78.0 L74.7,78.0 L74.3,78.3 L74.1,78.7 L74.3,79.2 L75.7,80.5 L65.2,89.7 L55.9,98.3 L48.1,105.4 L46.5,103.6 Z" fill="#dcf5d2" stroke="#9fcf91" stroke-width="0.4"></path><path d="M46.5,103.6 L46.2,103.7 L45.9,103.9 L45.9,104.2 L49.7,108.3 L50.0,108.3 L50.2,108.0 L50.2,107.7 L48.7,106.1 L57.3,98.4 L69.9,86.9 L75.3,82.1 L76.8,83.7 L77.3,83.8 L77.6,83.5 L77.4,82.9 L75.6,78.3 L75.2,78.0 L74.7,78.0 L74.3,78.3 L74.1,78.7 L74.3,79.2 L75.7,80.5 L65.2,89.7 L55.9,98.3 L48.1,105.4 L46.5,103.6 Z" fill="url(#park-dots)" stroke="none"/><path d="M79.6,90.8 L81.1,92.6 L81.4,92.7 L81.7,92.5 L81.8,92.1 L81.6,91.6 L80.4,89.6 L79.5,87.6 L79.1,86.9 L78.4,87.1 L77.6,87.8 L77.5,88.2 L79.1,90.2 L72.7,95.7 L66.3,101.6 L54.4,112.3 L52.9,110.6 L52.6,110.5 L52.3,110.7 L52.4,111.2 L55.7,114.9 L56.2,115.3 L56.6,115.0 L56.4,114.7 L55.0,113.1 L61.6,107.1 L67.4,101.9 L74.8,95.2 L79.6,90.8 Z" fill="#dcf5d2" stroke="#9fcf91" stroke-width="0.4"></path><path d="M79.6,90.8 L81.1,92.6 L81.4,92.7 L81.7,92.5 L81.8,92.1 L81.6,91.6 L80.4,89.6 L79.5,87.6 L79.1,86.9 L78.4,87.1 L77.6,87.8 L77.5,88.2 L79.1,90.2 L72.7,95.7 L66.3,101.6 L54.4,112.3 L52.9,110.6 L52.6,110.5 L52.3,110.7 L52.4,111.2 L55.7,114.9 L56.2,115.3 L56.6,115.0 L56.4,114.7 L55.0,113.1 L61.6,107.1 L67.4,101.9 L74.8,95.2 L79.6,90.8 Z" fill="url(#park-dots)" stroke="none"/><path d="M58.4,118.0 L61.6,121.7 L62.1,121.8 L62.5,121.6 L62.5,121.1 L61.4,119.9 L69.4,112.9 L76.6,106.6 L81.3,102.3 L85.2,98.6 L86.5,99.8 L86.9,99.9 L87.3,99.6 L87.3,99.2 L85.4,96.9 L84.0,95.0 L83.6,94.8 L83.1,95.0 L82.9,95.3 L83.0,95.6 L84.5,97.4 L80.4,101.4 L76.5,104.9 L72.7,108.5 L68.6,112.0 L64.8,115.4 L62.5,117.4 L60.7,118.9 L59.3,117.2 L58.8,117.1 L58.4,117.5 L58.4,118.0 Z" fill="#dcf5d2" stroke="#9fcf91" stroke-width="0.4"></path><path d="M58.4,118.0 L61.6,121.7 L62.1,121.8 L62.5,121.6 L62.5,121.1 L61.4,119.9 L69.4,112.9 L76.6,106.6 L81.3,102.3 L85.2,98.6 L86.5,99.8 L86.9,99.9 L87.3,99.6 L87.3,99.2 L85.4,96.9 L84.0,95.0 L83.6,94.8 L83.1,95.0 L82.9,95.3 L83.0,95.6 L84.5,97.4 L80.4,101.4 L76.5,104.9 L72.7,108.5 L68.6,112.0 L64.8,115.4 L62.5,117.4 L60.7,118.9 L59.3,117.2 L58.8,117.1 L58.4,117.5 L58.4,118.0 Z" fill="url(#park-dots)" stroke="none"/><path d="M64.4,124.8 L66.9,127.7 L67.3,127.8 L67.7,127.5 L67.5,127.2 L66.5,126.1 L70.5,122.6 L74.8,118.7 L78.3,115.6 L81.7,112.6 L90.3,104.7 L91.5,105.8 L91.8,105.9 L92.0,105.6 L91.9,105.3 L90.8,103.9 L89.5,102.3 L89.2,102.2 L89.0,102.4 L89.0,102.7 L90.1,103.8 L87.9,105.7 L83.1,110.1 L78.7,114.1 L74.7,117.6 L71.4,120.5 L68.2,123.5 L66.1,125.4 L65.1,124.2 L64.7,124.1 L64.4,124.4 L64.4,124.8 Z" fill="#dcf5d2" stroke="#9fcf91" stroke-width="0.4"></path><path d="M64.4,124.8 L66.9,127.7 L67.3,127.8 L67.7,127.5 L67.5,127.2 L66.5,126.1 L70.5,122.6 L74.8,118.7 L78.3,115.6 L81.7,112.6 L90.3,104.7 L91.5,105.8 L91.8,105.9 L92.0,105.6 L91.9,105.3 L90.8,103.9 L89.5,102.3 L89.2,102.2 L89.0,102.4 L89.0,102.7 L90.1,103.8 L87.9,105.7 L83.1,110.1 L78.7,114.1 L74.7,117.6 L71.4,120.5 L68.2,123.5 L66.1,125.4 L65.1,124.2 L64.7,124.1 L64.4,124.4 L64.4,124.8 Z" fill="url(#park-dots)" stroke="none"/><path d="M69.6,130.7 L72.4,133.8 L72.7,133.9 L73.2,133.5 L73.1,133.2 L72.0,132.0 L76.7,127.8 L81.2,123.7 L85.9,119.5 L89.2,116.6 L94.9,111.2 L96.1,112.3 L96.5,112.3 L96.9,112.0 L97.1,111.5 L96.9,111.1 L94.7,108.7 L94.2,108.5 L93.7,108.6 L93.6,109.0 L93.6,109.4 L94.4,110.4 L87.5,116.6 L85.2,118.8 L79.8,123.7 L76.5,126.7 L71.3,131.3 L70.3,130.1 L70.0,130.1 L69.7,130.3 L69.6,130.7 Z" fill="#dcf5d2" stroke="#9fcf91" stroke-width="0.4"></path><path d="M69.6,130.7 L72.4,133.8 L72.7,133.9 L73.2,133.5 L73.1,133.2 L72.0,132.0 L76.7,127.8 L81.2,123.7 L85.9,119.5 L89.2,116.6 L94.9,111.2 L96.1,112.3 L96.5,112.3 L96.9,112.0 L97.1,111.5 L96.9,111.1 L94.7,108.7 L94.2,108.5 L93.7,108.6 L93.6,109.0 L93.6,109.4 L94.4,110.4 L87.5,116.6 L85.2,118.8 L79.8,123.7 L76.5,126.7 L71.3,131.3 L70.3,130.1 L70.0,130.1 L69.7,130.3 L69.6,130.7 Z" fill="url(#park-dots)" stroke="none"/><path d="M152.4,178.6 L158.7,178.4 L158.8,186.9 L152.5,186.8 L152.4,178.6 Z" fill="#ead9a5" stroke="#d3bb7d" stroke-width="0.45"></path><path d="M144.2,14.0 L146.9,13.9 L146.7,19.3 L151.9,-0.9 L144.2,14.0 Z" fill="#d6d2c9" stroke="#bab6ad" stroke-width="0.4"></path><path d="M137.0,28.9 L131.5,32.5 L129.5,29.5 L135.1,25.9 L137.0,28.9 Z" fill="#d6d2c9" stroke="#bab6ad" stroke-width="0.4"></path><path d="M170.3,2.9 L165.4,7.6 L163.0,5.1 L167.9,0.4 L170.3,2.9 Z" fill="#d6d2c9" stroke="#bab6ad" stroke-width="0.4"></path><path d="M118.4,22.2 L121.1,35.0 L121.2,30.3 L111.7,33.3 L114.5,34.0 L117.4,39.7 L112.3,39.0 L107.6,28.1 L118.4,22.2 Z" fill="#d6d2c9" stroke="#bab6ad" stroke-width="0.4"></path><path d="M164.8,-13.0 L172.3,-8.2 L172.4,-2.9 L161.0,0.5 L164.8,-13.0 Z" fill="#d6d2c9" stroke="#bab6ad" stroke-width="0.4"></path><path d="M143.2,24.9 L140.2,26.5 L138.6,23.6 L141.6,22.0 L143.2,24.9 Z" fill="#d6d2c9" stroke="#bab6ad" stroke-width="0.4"></path><path d="M162.5,202.1 L151.2,202.5 L150.8,191.3 L162.1,190.9 L162.5,202.1 Z" fill="#d6d2c9" stroke="#bab6ad" stroke-width="0.4"></path><path d="M103.2,46.4 L99.8,47.9 L98.5,45.0 L101.8,43.4 L103.2,46.4 Z" fill="#d6d2c9" stroke="#bab6ad" stroke-width="0.4"></path><path d="M137.6,10.4 L143.0,17.0 L142.1,22.1 L140.9,18.3 L125.4,26.4 L127.1,27.1 L126.4,32.0 L125.2,28.6 L137.6,10.4 Z" fill="#d6d2c9" stroke="#bab6ad" stroke-width="0.4"></path><path d="M158.1,218.8 L163.4,240.6 L152.5,252.2 L152.9,240.9 L143.8,238.0 L137.1,237.0 L138.3,241.5 L127.2,253.4 L109.7,242.6 L121.3,251.7 L126.7,242.3 L135.7,236.3 L126.6,225.3 L138.0,235.9 L143.4,227.3 L154.6,229.2 L156.7,219.8 L147.5,208.4 L158.8,218.8 L158.1,218.8 Z" fill="#d6d2c9" stroke="#bab6ad" stroke-width="0.4"><title>Henry S West Laboratory Elementary School</title></path><path d="M105.5,29.0 L109.8,40.5 L107.3,44.4 L106.6,41.6 L107.4,37.2 L94.1,41.3 L96.8,41.9 L95.0,46.8 L105.5,29.0 Z" fill="#d6d2c9" stroke="#bab6ad" stroke-width="0.4"></path><path d="M162.4,10.9 L157.3,14.9 L154.9,11.7 L160.0,7.7 L162.4,10.9 Z" fill="#d6d2c9" stroke="#bab6ad" stroke-width="0.4"></path><path d="M154.1,17.0 L151.6,19.0 L149.3,16.0 L151.8,14.0 L154.1,17.0 Z" fill="#d6d2c9" stroke="#bab6ad" stroke-width="0.4"></path><path d="M233.1,123.7 L240.3,129.2 L236.9,131.9 L233.7,134.7 L228.6,129.9 L231.7,125.2 L233.1,123.7 Z" fill="#d6d2c9" stroke="#bab6ad" stroke-width="0.4"></path><path d="M263.7,75.1 L260.1,78.5 L251.3,81.4 L250.2,79.2 L250.8,76.7 L263.7,75.1 Z" fill="#d6d2c9" stroke="#bab6ad" stroke-width="0.4"></path><path d="M257.1,118.8 L254.9,124.1 L253.6,126.7 L252.2,127.8 L248.6,125.2 L249.0,121.7 L249.2,120.2 L250.0,119.1 L254.0,116.6 L256.2,118.5 L257.1,118.8 Z" fill="#d6d2c9" stroke="#bab6ad" stroke-width="0.4"></path><path d="M251.4,211.1 L253.7,222.7 L251.2,224.4 L249.4,224.5 L248.1,221.8 L249.3,220.2 L246.5,217.4 L247.8,212.6 L251.4,211.1 Z" fill="#d6d2c9" stroke="#bab6ad" stroke-width="0.4"></path><path d="M236.8,147.9 L233.2,150.5 L227.3,152.4 L226.8,150.9 L224.9,148.7 L236.8,147.9 Z" fill="#d6d2c9" stroke="#bab6ad" stroke-width="0.4"></path><path d="M236.0,112.4 L238.8,119.7 L236.4,123.1 L232.8,116.8 L234.6,113.6 L236.0,112.4 Z" fill="#d6d2c9" stroke="#bab6ad" stroke-width="0.4"></path><path d="M236.1,222.2 L239.8,225.8 L240.8,228.4 L240.4,230.3 L240.3,232.2 L237.4,233.0 L235.4,231.8 L236.1,229.6 L235.2,228.2 L233.7,227.0 L232.4,223.6 L236.1,222.2 Z" fill="#d6d2c9" stroke="#bab6ad" stroke-width="0.4"></path><path d="M233.0,159.7 L233.4,161.0 L231.3,165.0 L225.2,171.2 L224.5,168.9 L223.3,164.7 L227.1,160.8 L233.0,159.7 Z" fill="#d6d2c9" stroke="#bab6ad" stroke-width="0.4"></path><path d="M245.8,111.8 L245.2,113.4 L242.7,112.5 L243.2,110.8 L245.8,111.8 Z" fill="#d6d2c9" stroke="#bab6ad" stroke-width="0.4"></path><path d="M249.2,82.0 L254.9,84.1 L256.9,88.7 L252.8,90.7 L250.9,92.6 L247.8,94.8 L245.6,88.6 L247.0,88.3 L246.9,85.7 L249.2,82.0 Z" fill="#d6d2c9" stroke="#bab6ad" stroke-width="0.4"></path><path d="M258.3,227.4 L259.2,231.2 L261.3,233.1 L253.6,230.6 L248.6,229.8 L251.3,227.9 L253.1,227.4 L258.3,227.4 Z" fill="#d6d2c9" stroke="#bab6ad" stroke-width="0.4"></path><path d="M244.9,182.6 L245.9,184.3 L247.0,186.2 L247.7,188.0 L247.3,189.6 L246.9,191.9 L244.1,194.2 L241.6,196.4 L242.7,190.7 L241.2,185.9 L244.9,182.6 Z" fill="#d6d2c9" stroke="#bab6ad" stroke-width="0.4"></path><path d="M234.4,183.2 L233.4,187.4 L229.3,188.9 L225.1,193.0 L226.9,184.9 L228.7,184.2 L232.2,184.1 L234.4,183.2 Z" fill="#d6d2c9" stroke="#bab6ad" stroke-width="0.4"></path><path d="M248.7,204.1 L247.7,208.8 L245.7,209.6 L244.9,208.8 L244.2,208.4 L244.2,206.5 L244.3,205.9 L240.7,205.7 L249.2,197.2 L248.9,201.3 L248.7,204.1 Z" fill="#d6d2c9" stroke="#bab6ad" stroke-width="0.4"></path><path d="M262.4,100.3 L262.4,105.4 L252.6,111.2 L262.4,100.3 Z" fill="#d6d2c9" stroke="#bab6ad" stroke-width="0.4"></path><path d="M245.5,236.5 L246.6,241.2 L244.9,244.0 L242.8,242.9 L241.2,242.1 L241.2,240.2 L238.7,239.7 L247.8,231.8 L245.5,236.5 Z" fill="#d6d2c9" stroke="#bab6ad" stroke-width="0.4"></path><path d="M233.1,195.5 L236.5,202.9 L227.1,208.1 L229.0,204.2 L228.2,202.3 L225.8,199.8 L233.1,195.5 Z" fill="#d6d2c9" stroke="#bab6ad" stroke-width="0.4"></path><path d="M247.3,158.5 L246.8,162.4 L246.1,165.5 L236.1,169.2 L239.8,165.8 L241.5,159.4 L243.4,159.2 L247.3,158.5 Z" fill="#d6d2c9" stroke="#bab6ad" stroke-width="0.4"></path><path d="M244.7,107.7 L242.3,109.0 L235.5,110.2 L236.8,107.1 L239.8,103.6 L240.7,99.2 L243.0,104.6 L244.7,107.7 Z" fill="#d6d2c9" stroke="#bab6ad" stroke-width="0.4"></path><path d="M235.4,138.6 L231.7,141.7 L225.5,144.7 L226.5,141.1 L235.0,136.4 L235.4,138.6 Z" fill="#d6d2c9" stroke="#bab6ad" stroke-width="0.4"></path><path d="M235.3,211.4 L235.8,215.4 L239.2,215.8 L236.5,218.3 L231.2,219.9 L230.3,217.0 L231.5,213.7 L230.6,211.6 L229.1,210.8 L235.2,207.6 L235.9,210.1 L235.3,211.4 Z" fill="#d6d2c9" stroke="#bab6ad" stroke-width="0.4"></path><path d="M243.8,143.1 L248.7,145.9 L247.6,146.7 L247.2,155.7 L243.1,152.6 L242.2,143.2 L243.8,143.1 Z" fill="#d6d2c9" stroke="#bab6ad" stroke-width="0.4"></path><path d="M252.5,131.2 L251.5,134.8 L249.3,137.3 L249.3,139.0 L246.9,140.2 L245.1,141.4 L244.8,136.8 L244.5,135.9 L244.4,132.3 L245.6,131.9 L247.5,129.8 L252.5,131.2 Z" fill="#d6d2c9" stroke="#bab6ad" stroke-width="0.4"></path><path d="M249.5,244.6 L251.7,247.2 L255.9,247.1 L253.4,253.6 L251.3,255.7 L247.0,255.4 L247.1,252.6 L244.5,251.1 L245.2,247.8 L249.5,244.6 Z" fill="#d6d2c9" stroke="#bab6ad" stroke-width="0.4"></path><path d="M253.6,97.5 L252.4,99.9 L249.2,98.3 L250.4,95.9 L253.6,97.5 Z" fill="#d6d2c9" stroke="#bab6ad" stroke-width="0.4"></path><path d="M225.9,69.5 L224.4,70.7 L225.4,74.4 L215.3,75.9 L216.9,72.5 L220.8,65.0 L225.9,67.3 L226.6,68.0 L225.9,69.5 Z" fill="#d6d2c9" stroke="#bab6ad" stroke-width="0.4"></path><path d="M234.9,34.0 L235.4,36.7 L236.9,39.7 L238.7,43.7 L236.5,43.2 L235.9,46.8 L235.1,46.8 L236.6,49.3 L233.8,50.1 L230.3,50.0 L229.7,45.1 L227.2,42.7 L230.6,42.7 L229.9,41.4 L228.8,38.7 L230.4,34.7 L231.6,32.7 L234.9,34.0 Z" fill="#d6d2c9" stroke="#bab6ad" stroke-width="0.4"></path><path d="M223.3,51.4 L229.5,53.4 L233.0,59.1 L229.6,58.6 L225.4,60.4 L225.9,64.2 L223.3,51.4 Z" fill="#d6d2c9" stroke="#bab6ad" stroke-width="0.4"></path><path d="M215.4,95.1 L211.1,95.8 L214.8,97.7 L213.5,100.6 L208.5,102.9 L204.2,100.9 L204.0,100.8 L199.0,98.5 L200.6,94.9 L203.5,91.6 L205.2,87.8 L210.4,90.2 L215.4,95.1 Z" fill="#d6d2c9" stroke="#bab6ad" stroke-width="0.4"></path><path d="M201.7,27.7 L197.7,36.2 L195.2,34.2 L195.5,28.4 L196.3,27.0 L201.7,27.7 Z" fill="#d6d2c9" stroke="#bab6ad" stroke-width="0.4"></path><path d="M213.9,78.3 L218.9,79.7 L222.0,83.8 L217.9,84.2 L218.2,85.5 L217.3,87.1 L214.5,90.6 L212.1,80.6 L212.1,77.1 L214.0,78.1 L213.9,78.3 Z" fill="#d6d2c9" stroke="#bab6ad" stroke-width="0.4"></path><path d="M190.2,130.0 L185.7,133.7 L186.3,137.0 L180.3,137.8 L173.9,138.6 L190.2,130.0 Z" fill="#d6d2c9" stroke="#bab6ad" stroke-width="0.4"></path><path d="M198.1,117.1 L194.6,121.4 L194.9,124.3 L183.2,123.4 L186.6,121.5 L189.5,118.1 L198.1,117.1 Z" fill="#d6d2c9" stroke="#bab6ad" stroke-width="0.4"></path><path d="M246.0,10.7 L241.6,13.5 L245.1,15.2 L244.8,17.0 L244.4,18.0 L243.5,21.7 L241.8,28.2 L236.7,27.2 L235.0,26.5 L231.1,21.1 L238.2,13.5 L240.2,13.2 L240.0,9.2 L246.0,10.7 Z" fill="#d6d2c9" stroke="#bab6ad" stroke-width="0.4"></path><path d="M197.0,101.0 L204.5,108.4 L201.9,112.6 L201.8,116.0 L193.0,109.1 L193.0,108.1 L198.8,104.9 L195.9,102.6 L197.0,101.0 Z" fill="#d6d2c9" stroke="#bab6ad" stroke-width="0.4"></path><path d="M240.4,-3.5 L249.6,3.1 L246.0,3.8 L243.3,5.3 L241.6,6.4 L235.4,5.1 L235.0,4.2 L237.1,-3.3 L240.4,-3.5 Z" fill="#d6d2c9" stroke="#bab6ad" stroke-width="0.4"></path><path d="M209.6,5.4 L202.0,10.5 L196.5,14.4 L199.6,5.8 L209.6,5.4 Z" fill="#d6d2c9" stroke="#bab6ad" stroke-width="0.4"></path><path d="M204.7,-5.3 L203.5,-0.1 L198.0,3.5 L199.3,-3.6 L204.7,-5.3 Z" fill="#d6d2c9" stroke="#bab6ad" stroke-width="0.4"></path><path d="M207.5,78.3 L205.6,81.8 L203.5,80.7 L205.3,77.2 L207.5,78.3 Z" fill="#d6d2c9" stroke="#bab6ad" stroke-width="0.4"></path><path d="M204.0,20.9 L196.2,25.1 L196.2,19.2 L202.9,16.6 L204.0,20.9 Z" fill="#d6d2c9" stroke="#bab6ad" stroke-width="0.4"></path><path d="M137.5,254.5 L152.1,253.7 L152.7,263.9 L138.1,264.7 L137.5,254.5 Z" fill="#d6d2c9" stroke="#bab6ad" stroke-width="0.4"></path><path d="M103.8,57.3 L104.9,56.0 L106.9,54.9 L108.9,54.5 L109.7,54.6 L107.1,59.3 L103.8,57.3 Z" fill="#d6d2c9" stroke="#bab6ad" stroke-width="0.4"></path><path d="M226.1,-78.4 L226.6,-27.7 L212.1,40.6 L177.1,114.8 L120.4,206.3 L77.4,260.3 L25.8,314.5" fill="none" stroke="#6fb5c7" stroke-width="1.2" stroke-dasharray="5 7" opacity="0.34" stroke-linecap="round" stroke-linejoin="round"><title>Mahi Waterway</title></path><path d="M147.8,135.8 L144.6,142.1 L129.8,170.3 L121.8,185.2 L119.5,190.0 L116.2,196.7 L112.8,202.9 L107.6,211.3 L98.3,223.3 L79.2,240.9 L74.9,244.8" fill="none" stroke="#cec8bb" stroke-width="3.6" stroke-linecap="round" stroke-linejoin="round"/><path d="M147.8,135.8 L144.6,142.1 L129.8,170.3 L121.8,185.2 L119.5,190.0 L116.2,196.7 L112.8,202.9 L107.6,211.3 L98.3,223.3 L79.2,240.9 L74.9,244.8" fill="none" stroke="#ffffff" stroke-width="2.5" stroke-linecap="round" stroke-linejoin="round"><title>University Drive</title></path><path d="M88.2,164.8 L92.5,169.0 L96.9,173.2 L109.2,187.1 L113.8,190.8 L118.3,192.2" fill="none" stroke="#cec8bb" stroke-width="3.6" stroke-linecap="round" stroke-linejoin="round"/><path d="M88.2,164.8 L92.5,169.0 L96.9,173.2 L109.2,187.1 L113.8,190.8 L118.3,192.2" fill="none" stroke="#ffffff" stroke-width="2.5" stroke-linecap="round" stroke-linejoin="round"><title>Brunson Drive</title></path><path d="M120.7,194.4 L119.2,195.7 L115.8,201.8 L113.1,206.5 L101.2,224.2 L83.9,239.4 L83.0,242.3 L82.6,246.3 L80.6,248.3 L76.7,249.5 L74.2,250.9" fill="none" stroke="#cf828d" stroke-width="1.1" stroke-dasharray="1.6 3.0" opacity="0.62" stroke-linecap="round" stroke-linejoin="round"></path><path d="M209.2,210.5 L210.4,215.7 L211.9,221.2 L215.0,230.7 L219.1,241.5 L222.7,249.1 L225.1,254.2 L228.3,259.9 L231.4,264.8 L237.9,274.7 L246.0,285.8 L254.1,295.7 L235.4,326.8" fill="none" stroke="#cf828d" stroke-width="1.1" stroke-dasharray="1.6 3.0" opacity="0.62" stroke-linecap="round" stroke-linejoin="round"></path><path d="M225.4,315.9 L210.6,296.6 L199.9,280.2 L190.7,262.5 L183.9,246.7 L179.7,233.5 L177.3,223.8 L174.4,209.8 L174.4,196.7 L176.5,184.6 L179.6,174.4 L188.1,174.5 L195.6,179.4 L198.3,181.5 L200.9,184.1 L203.2,187.7 L205.0,190.9 L205.9,193.6 L206.9,197.9 L208.1,204.6 L209.2,210.5" fill="none" stroke="#cf828d" stroke-width="1.1" stroke-dasharray="1.6 3.0" opacity="0.62" stroke-linecap="round" stroke-linejoin="round"></path><path d="M210.9,197.3 L213.6,196.9 L216.2,196.6" fill="none" stroke="#cf828d" stroke-width="1.1" stroke-dasharray="1.6 3.0" opacity="0.62" stroke-linecap="round" stroke-linejoin="round"></path><path d="M220.2,196.1 L226.6,223.3 L237.7,249.7 L243.6,259.9 L246.0,261.7 L248.2,261.4 L252.1,258.5 L258.2,252.8 L268.3,243.4 L269.4,242.1 L269.0,239.6 L262.2,226.6 L258.1,216.1 L254.9,204.7 L252.3,192.8 L251.1,186.8 L250.8,184.6 L250.6,180.3 L222.3,181.5 L219.8,182.4 L218.9,184.1 L219.3,189.3 L220.2,196.1" fill="none" stroke="#cf828d" stroke-width="1.1" stroke-dasharray="1.6 3.0" opacity="0.62" stroke-linecap="round" stroke-linejoin="round"></path><path d="M219.2,183.2 L216.3,180.8" fill="none" stroke="#cf828d" stroke-width="1.1" stroke-dasharray="1.6 3.0" opacity="0.62" stroke-linecap="round" stroke-linejoin="round"></path><path d="M254.1,67.4 L282.4,78.5 L283.7,80.3 L277.3,89.5 L267.9,104.2 L258.8,123.4 L255.5,133.2 L253.1,143.1 L252.2,152.4 L250.5,170.1 L249.6,172.1 L246.6,172.6 L222.1,173.7 L220.4,173.6 L218.8,172.4 L218.2,170.8 L218.1,168.2 L218.3,162.3 L218.9,155.1 L219.7,148.4 L221.5,137.3 L223.7,127.9 L227.3,116.5 L230.2,108.5 L232.8,102.2 L236.6,94.3" fill="none" stroke="#cf828d" stroke-width="1.1" stroke-dasharray="1.6 3.0" opacity="0.62" stroke-linecap="round" stroke-linejoin="round"></path><path d="M215.9,175.3 L216.1,177.7 L216.3,180.8" fill="none" stroke="#cf828d" stroke-width="1.1" stroke-dasharray="1.6 3.0" opacity="0.62" stroke-linecap="round" stroke-linejoin="round"></path><path d="M83.4,177.6 L89.0,183.9 L91.0,184.4 L99.5,194.0 L102.4,197.3 L105.2,200.6 L108.5,201.1 L111.1,202.0" fill="none" stroke="#cf828d" stroke-width="1.1" stroke-dasharray="1.6 3.0" opacity="0.62" stroke-linecap="round" stroke-linejoin="round"></path><path d="M321.8,248.9 L302.7,227.6 L301.3,226.6 L299.6,226.6 L281.3,242.2 L253.0,268.0 L251.9,270.0 L252.1,271.3" fill="none" stroke="#cf828d" stroke-width="1.1" stroke-dasharray="1.6 3.0" opacity="0.62" stroke-linecap="round" stroke-linejoin="round"></path><path d="M110.5,184.8 L113.2,182.2" fill="none" stroke="#cf828d" stroke-width="1.1" stroke-dasharray="1.6 3.0" opacity="0.62" stroke-linecap="round" stroke-linejoin="round"></path><path d="M109.5,185.3 L110.5,184.8" fill="none" stroke="#cf828d" stroke-width="1.1" stroke-dasharray="1.6 3.0" opacity="0.62" stroke-linecap="round" stroke-linejoin="round"></path><path d="M107.1,187.2 L108.4,186.2 L109.5,185.3" fill="none" stroke="#cf828d" stroke-width="1.1" stroke-dasharray="1.6 3.0" opacity="0.62" stroke-linecap="round" stroke-linejoin="round"></path><path d="M106.4,187.9 L107.1,187.2" fill="none" stroke="#cf828d" stroke-width="1.1" stroke-dasharray="1.6 3.0" opacity="0.62" stroke-linecap="round" stroke-linejoin="round"></path><path d="M101.9,191.9 L103.1,190.8 L106.4,187.9" fill="none" stroke="#cf828d" stroke-width="1.1" stroke-dasharray="1.6 3.0" opacity="0.62" stroke-linecap="round" stroke-linejoin="round"></path><path d="M103.4,196.2 L105.8,193.4" fill="none" stroke="#cf828d" stroke-width="1.1" stroke-dasharray="1.6 3.0" opacity="0.62" stroke-linecap="round" stroke-linejoin="round"></path><path d="M61.8,239.8 L72.6,229.8 L81.3,222.3 L93.0,210.4 L97.4,204.7 L102.4,197.3 L103.4,196.2" fill="none" stroke="#cf828d" stroke-width="1.1" stroke-dasharray="1.6 3.0" opacity="0.62" stroke-linecap="round" stroke-linejoin="round"></path><path d="M216.2,196.6 L220.2,196.1" fill="none" stroke="#cf828d" stroke-width="1.1" stroke-dasharray="1.6 3.0" opacity="0.62" stroke-linecap="round" stroke-linejoin="round"></path><path d="M206.9,197.9 L210.9,197.3" fill="none" stroke="#cf828d" stroke-width="1.1" stroke-dasharray="1.6 3.0" opacity="0.62" stroke-linecap="round" stroke-linejoin="round"></path><path d="M175.4,228.8 L178.3,227.9" fill="none" stroke="#cf828d" stroke-width="1.1" stroke-dasharray="1.6 3.0" opacity="0.62" stroke-linecap="round" stroke-linejoin="round"></path><path d="M170.3,230.3 L172.6,229.6" fill="none" stroke="#cf828d" stroke-width="1.1" stroke-dasharray="1.6 3.0" opacity="0.62" stroke-linecap="round" stroke-linejoin="round"></path><path d="M172.6,229.6 L174.1,229.2 L175.4,228.8" fill="none" stroke="#cf828d" stroke-width="1.1" stroke-dasharray="1.6 3.0" opacity="0.62" stroke-linecap="round" stroke-linejoin="round"></path><path d="M178.0,161.5 L180.7,163.0 L183.0,164.4" fill="none" stroke="#cf828d" stroke-width="1.1" stroke-dasharray="1.6 3.0" opacity="0.62" stroke-linecap="round" stroke-linejoin="round"></path><path d="M175.8,161.8 L177.0,161.6 L178.0,161.5" fill="none" stroke="#cf828d" stroke-width="1.1" stroke-dasharray="1.6 3.0" opacity="0.62" stroke-linecap="round" stroke-linejoin="round"></path><path d="M183.0,164.4 L184.1,165.0 L181.5,170.2" fill="none" stroke="#cf828d" stroke-width="1.1" stroke-dasharray="1.6 3.0" opacity="0.62" stroke-linecap="round" stroke-linejoin="round"></path><path d="M181.2,260.8 L177.6,252.0 L174.4,243.6 L171.3,234.1 L169.6,227.5 L168.1,221.2 L167.4,217.3 L166.6,211.1 L166.3,200.4 L167.7,187.5 L170.4,177.0 L173.7,168.4 L175.9,163.5 L175.9,161.9 L175.7,161.4 L175.0,160.6 L172.0,157.7 L169.9,155.2 L162.0,149.3" fill="none" stroke="#cf828d" stroke-width="1.1" stroke-dasharray="1.6 3.0" opacity="0.62" stroke-linecap="round" stroke-linejoin="round"></path><path d="M155.2,144.5 L151.0,141.7 L149.6,141.2 L149.0,141.1 L148.1,141.0" fill="none" stroke="#cf828d" stroke-width="1.1" stroke-dasharray="1.6 3.0" opacity="0.62" stroke-linecap="round" stroke-linejoin="round"></path><path d="M162.0,149.3 L155.2,144.5" fill="none" stroke="#cf828d" stroke-width="1.1" stroke-dasharray="1.6 3.0" opacity="0.62" stroke-linecap="round" stroke-linejoin="round"></path><path d="M111.1,202.0 L112.8,202.9 L114.1,203.6" fill="none" stroke="#cf828d" stroke-width="1.1" stroke-dasharray="1.6 3.0" opacity="0.62" stroke-linecap="round" stroke-linejoin="round"></path><path d="M114.1,203.6 L114.6,203.9" fill="none" stroke="#cf828d" stroke-width="1.1" stroke-dasharray="1.6 3.0" opacity="0.62" stroke-linecap="round" stroke-linejoin="round"></path><path d="M107.5,189.1 L105.2,191.3" fill="none" stroke="#cf828d" stroke-width="1.1" stroke-dasharray="1.6 3.0" opacity="0.62" stroke-linecap="round" stroke-linejoin="round"></path><path d="M105.2,191.3 L107.1,193.4 L108.1,194.5" fill="none" stroke="#cf828d" stroke-width="1.1" stroke-dasharray="1.6 3.0" opacity="0.62" stroke-linecap="round" stroke-linejoin="round"></path><path d="M108.1,194.5 L110.0,196.4" fill="none" stroke="#cf828d" stroke-width="1.1" stroke-dasharray="1.6 3.0" opacity="0.62" stroke-linecap="round" stroke-linejoin="round"></path><path d="M215.9,175.3 L218.3,171.6" fill="none" stroke="#cf828d" stroke-width="1.1" stroke-dasharray="1.6 3.0" opacity="0.62" stroke-linecap="round" stroke-linejoin="round"></path><path d="M250.6,180.3 L250.4,178.4" fill="none" stroke="#cf828d" stroke-width="1.1" stroke-dasharray="1.6 3.0" opacity="0.62" stroke-linecap="round" stroke-linejoin="round"></path><path d="M250.4,178.4 L250.4,176.2 L250.4,173.4" fill="none" stroke="#cf828d" stroke-width="1.1" stroke-dasharray="1.6 3.0" opacity="0.62" stroke-linecap="round" stroke-linejoin="round"></path><path d="M250.4,173.4 L249.6,172.1" fill="none" stroke="#cf828d" stroke-width="1.1" stroke-dasharray="1.6 3.0" opacity="0.62" stroke-linecap="round" stroke-linejoin="round"></path><path d="M236.6,94.3 L248.6,67.0 L249.8,66.3 L251.5,66.4 L254.1,67.4" fill="none" stroke="#cf828d" stroke-width="1.1" stroke-dasharray="1.6 3.0" opacity="0.62" stroke-linecap="round" stroke-linejoin="round"></path><path d="M96.9,205.3 L92.6,200.5 L95.9,197.5 L96.7,196.5 L99.5,194.0 L101.9,191.9" fill="none" stroke="#cf828d" stroke-width="1.1" stroke-dasharray="1.6 3.0" opacity="0.62" stroke-linecap="round" stroke-linejoin="round"></path><path d="M91.1,63.9 L91.9,61.6 L100.1,58.8 L109.8,55.8 L121.6,49.3 L126.9,47.0 L128.3,48.3" fill="none" stroke="#cf828d" stroke-width="1.1" stroke-dasharray="1.6 3.0" opacity="0.62" stroke-linecap="round" stroke-linejoin="round"></path><path d="M128.3,48.3 L130.2,49.0 L131.3,49.4" fill="none" stroke="#cf828d" stroke-width="1.1" stroke-dasharray="1.6 3.0" opacity="0.62" stroke-linecap="round" stroke-linejoin="round"></path><path d="M177.4,67.3 L179.7,68.0 L181.4,68.4" fill="none" stroke="#cf828d" stroke-width="1.1" stroke-dasharray="1.6 3.0" opacity="0.62" stroke-linecap="round" stroke-linejoin="round"></path><path d="M177.4,67.3 L173.4,66.2" fill="none" stroke="#cf828d" stroke-width="1.1" stroke-dasharray="1.6 3.0" opacity="0.62" stroke-linecap="round" stroke-linejoin="round"></path><path d="M169.5,64.6 L169.4,69.8 L173.2,69.1 L173.4,66.2 L169.5,64.6" fill="none" stroke="#cf828d" stroke-width="1.1" stroke-dasharray="1.6 3.0" opacity="0.62" stroke-linecap="round" stroke-linejoin="round"></path><path d="M181.4,68.4 L184.3,69.2" fill="none" stroke="#cf828d" stroke-width="1.1" stroke-dasharray="1.6 3.0" opacity="0.62" stroke-linecap="round" stroke-linejoin="round"></path><path d="M184.3,69.2 L186.1,69.8" fill="none" stroke="#cf828d" stroke-width="1.1" stroke-dasharray="1.6 3.0" opacity="0.62" stroke-linecap="round" stroke-linejoin="round"></path><path d="M96.6,164.4 L98.0,163.3" fill="none" stroke="#cf828d" stroke-width="1.1" stroke-dasharray="1.6 3.0" opacity="0.62" stroke-linecap="round" stroke-linejoin="round"></path><path d="M184.9,164.2 L186.4,163.0 L187.7,161.8" fill="none" stroke="#cf828d" stroke-width="1.1" stroke-dasharray="1.6 3.0" opacity="0.62" stroke-linecap="round" stroke-linejoin="round"></path><path d="M184.9,164.2 L184.1,165.0" fill="none" stroke="#cf828d" stroke-width="1.1" stroke-dasharray="1.6 3.0" opacity="0.62" stroke-linecap="round" stroke-linejoin="round"></path><path d="M182.8,155.1 L184.7,156.7 L186.1,157.9" fill="none" stroke="#cf828d" stroke-width="1.1" stroke-dasharray="1.6 3.0" opacity="0.62" stroke-linecap="round" stroke-linejoin="round"></path><path d="M177.5,160.5 L179.3,158.0 L181.1,155.5" fill="none" stroke="#cf828d" stroke-width="1.1" stroke-dasharray="1.6 3.0" opacity="0.62" stroke-linecap="round" stroke-linejoin="round"></path><path d="M177.5,160.5 L177.0,161.6" fill="none" stroke="#cf828d" stroke-width="1.1" stroke-dasharray="1.6 3.0" opacity="0.62" stroke-linecap="round" stroke-linejoin="round"></path><path d="M181.1,155.5 L181.9,154.4 L182.8,155.1" fill="none" stroke="#cf828d" stroke-width="1.1" stroke-dasharray="1.6 3.0" opacity="0.62" stroke-linecap="round" stroke-linejoin="round"></path><path d="M186.1,157.9 L188.7,160.7 L187.7,161.8" fill="none" stroke="#cf828d" stroke-width="1.1" stroke-dasharray="1.6 3.0" opacity="0.62" stroke-linecap="round" stroke-linejoin="round"></path><path d="M131.3,49.4 L132.9,50.0 L134.8,49.7 L137.6,48.2 L140.8,50.3" fill="none" stroke="#cf828d" stroke-width="1.1" stroke-dasharray="1.6 3.0" opacity="0.62" stroke-linecap="round" stroke-linejoin="round"></path><path d="M168.1,221.2 L162.5,230.0 L164.4,230.8 L165.8,230.8 L170.3,230.3" fill="none" stroke="#cf828d" stroke-width="1.1" stroke-dasharray="1.6 3.0" opacity="0.62" stroke-linecap="round" stroke-linejoin="round"></path><path d="M163.9,227.9 L164.6,228.8 L165.1,229.6 L165.6,230.8" fill="none" stroke="#cf828d" stroke-width="1.1" stroke-dasharray="1.6 3.0" opacity="0.62" stroke-linecap="round" stroke-linejoin="round"></path><path d="M162.0,230.1 L160.6,230.3 L159.2,230.5" fill="none" stroke="#cf828d" stroke-width="1.1" stroke-dasharray="1.6 3.0" opacity="0.62" stroke-linecap="round" stroke-linejoin="round"></path><path d="M162.0,230.1 L162.5,230.0" fill="none" stroke="#cf828d" stroke-width="1.1" stroke-dasharray="1.6 3.0" opacity="0.62" stroke-linecap="round" stroke-linejoin="round"></path><path d="M89.9,90.5 L94.5,97.5 L101.0,105.4 L112.3,115.6 L124.1,124.1 L129.5,127.8 L137.5,133.5 L144.4,138.4" fill="none" stroke="#8fb58e" stroke-width="1.5" opacity="0.58" stroke-linecap="round" stroke-linejoin="round"></path><path d="M148.1,141.0 L145.9,139.5 L144.4,138.4" fill="none" stroke="#8fb58e" stroke-width="1.5" opacity="0.58" stroke-linecap="round" stroke-linejoin="round"></path><path d="M111.3,189.2 L110.0,190.7 L107.1,193.4 L106.5,193.6 L105.8,193.4 L104.9,192.8" fill="none" stroke="#cec8bb" stroke-width="2.9" stroke-linecap="round" stroke-linejoin="round"/><path d="M111.3,189.2 L110.0,190.7 L107.1,193.4 L106.5,193.6 L105.8,193.4 L104.9,192.8" fill="none" stroke="#ffffff" stroke-width="1.9" stroke-linecap="round" stroke-linejoin="round"></path><path d="M171.1,216.1 L165.5,218.0 L162.1,220.9 L160.5,224.3 L160.7,232.4 L162.1,235.8 L172.4,242.7 L179.0,245.0" fill="none" stroke="#cec8bb" stroke-width="2.9" stroke-linecap="round" stroke-linejoin="round"/><path d="M171.1,216.1 L165.5,218.0 L162.1,220.9 L160.5,224.3 L160.7,232.4 L162.1,235.8 L172.4,242.7 L179.0,245.0" fill="none" stroke="#ffffff" stroke-width="1.9" stroke-linecap="round" stroke-linejoin="round"></path><path d="M131.7,124.4 L125.9,132.1 L123.7,134.5 L95.0,160.0" fill="none" stroke="#cec8bb" stroke-width="2.9" stroke-linecap="round" stroke-linejoin="round"/><path d="M131.7,124.4 L125.9,132.1 L123.7,134.5 L95.0,160.0" fill="none" stroke="#ffffff" stroke-width="1.9" stroke-linecap="round" stroke-linejoin="round"></path><path d="M100.9,166.6 L97.6,162.9 L91.9,156.5 L83.4,147.8 L77.9,142.1 L69.0,132.9 L67.1,130.7 L65.1,128.6 L59.0,121.2 L56.1,117.8 L45.5,105.9 L43.5,103.8 L40.8,100.8 L30.9,90.0 L26.4,85.0 L25.9,83.2 L26.1,81.3 L27.1,79.4 L29.0,78.3 L42.4,77.2 L56.3,75.5 L63.5,74.3 L73.4,72.0 L75.2,73.3 L76.4,76.6 L79.7,83.9 L84.2,92.2 L87.6,96.9 L93.1,104.0 L96.9,108.6 L103.4,115.1 L106.0,117.2 L115.2,124.4 L123.7,130.6 L132.7,137.3 L137.1,140.7 L136.9,143.7 L126.4,164.5 L116.6,182.5 L114.0,182.7 L106.2,174.4 L100.1,167.2" fill="none" stroke="#cec8bb" stroke-width="2.9" stroke-linecap="round" stroke-linejoin="round"/><path d="M100.9,166.6 L97.6,162.9 L91.9,156.5 L83.4,147.8 L77.9,142.1 L69.0,132.9 L67.1,130.7 L65.1,128.6 L59.0,121.2 L56.1,117.8 L45.5,105.9 L43.5,103.8 L40.8,100.8 L30.9,90.0 L26.4,85.0 L25.9,83.2 L26.1,81.3 L27.1,79.4 L29.0,78.3 L42.4,77.2 L56.3,75.5 L63.5,74.3 L73.4,72.0 L75.2,73.3 L76.4,76.6 L79.7,83.9 L84.2,92.2 L87.6,96.9 L93.1,104.0 L96.9,108.6 L103.4,115.1 L106.0,117.2 L115.2,124.4 L123.7,130.6 L132.7,137.3 L137.1,140.7 L136.9,143.7 L126.4,164.5 L116.6,182.5 L114.0,182.7 L106.2,174.4 L100.1,167.2" fill="none" stroke="#ffffff" stroke-width="1.9" stroke-linecap="round" stroke-linejoin="round"></path><path d="M152.2,-52.3 L157.7,-46.9 L159.8,-43.3 L160.5,-39.6 L160.1,-35.6 L158.7,-28.5 L157.8,-23.6 L156.3,-20.2 L151.3,-13.4 L148.8,-11.5 L144.9,-10.4 L141.7,-9.1 L138.1,-6.2 L134.6,-3.7 L128.4,-0.4 L125.1,1.7 L123.6,4.0 L123.0,6.3 L123.2,9.6 L122.6,12.2 L120.0,14.0 L116.3,16.3 L112.5,20.0 L109.3,21.4 L104.9,22.1 L100.8,24.1 L93.2,25.8 L78.0,28.3 L72.1,30.6 L67.1,33.1 L54.8,36.0 L49.4,37.4 L43.2,39.8 L38.3,40.4 L34.6,41.3 L31.2,42.3 L24.9,41.9 L18.7,40.9 L12.0,41.3 L-0.9,40.9 L-6.5,40.2 L-9.9,38.3 L-14.5,35.2 L-18.9,33.4 L-23.1,33.2 L-30.1,33.5 L-33.9,32.3 L-38.5,30.8 L-42.2,30.6 L-47.6,28.7 L-69.8,22.0" fill="none" stroke="#cec8bb" stroke-width="2.9" stroke-linecap="round" stroke-linejoin="round"/><path d="M152.2,-52.3 L157.7,-46.9 L159.8,-43.3 L160.5,-39.6 L160.1,-35.6 L158.7,-28.5 L157.8,-23.6 L156.3,-20.2 L151.3,-13.4 L148.8,-11.5 L144.9,-10.4 L141.7,-9.1 L138.1,-6.2 L134.6,-3.7 L128.4,-0.4 L125.1,1.7 L123.6,4.0 L123.0,6.3 L123.2,9.6 L122.6,12.2 L120.0,14.0 L116.3,16.3 L112.5,20.0 L109.3,21.4 L104.9,22.1 L100.8,24.1 L93.2,25.8 L78.0,28.3 L72.1,30.6 L67.1,33.1 L54.8,36.0 L49.4,37.4 L43.2,39.8 L38.3,40.4 L34.6,41.3 L31.2,42.3 L24.9,41.9 L18.7,40.9 L12.0,41.3 L-0.9,40.9 L-6.5,40.2 L-9.9,38.3 L-14.5,35.2 L-18.9,33.4 L-23.1,33.2 L-30.1,33.5 L-33.9,32.3 L-38.5,30.8 L-42.2,30.6 L-47.6,28.7 L-69.8,22.0" fill="none" stroke="#ffffff" stroke-width="1.9" stroke-linecap="round" stroke-linejoin="round"></path><path d="M-48.1,-28.6 L-44.7,-28.9 L-37.5,-28.8 L-29.8,-29.9 L-23.7,-30.7 L-16.9,-30.4 L-10.2,-29.1 L-6.8,-28.7 L-2.1,-29.8 L4.3,-30.3 L9.4,-29.4 L14.8,-26.3 L17.8,-25.9 L22.2,-27.1 L27.0,-28.0 L30.1,-27.5 L32.4,-25.7 L38.0,-19.3 L41.9,-16.3 L45.8,-14.4 L50.6,-13.7 L54.9,-13.1 L58.1,-11.7 L60.8,-9.3 L63.8,-6.8 L67.2,-5.9 L70.0,-6.8 L73.4,-9.5 L76.8,-11.3 L81.3,-13.7 L85.5,-17.2 L91.0,-24.3 L92.4,-27.4 L93.3,-31.1 L93.9,-36.2 L95.8,-39.3 L98.8,-42.2 L102.0,-44.1 L105.2,-45.2 L107.0,-48.0 L108.3,-51.0" fill="none" stroke="#cec8bb" stroke-width="2.9" stroke-linecap="round" stroke-linejoin="round"/><path d="M-48.1,-28.6 L-44.7,-28.9 L-37.5,-28.8 L-29.8,-29.9 L-23.7,-30.7 L-16.9,-30.4 L-10.2,-29.1 L-6.8,-28.7 L-2.1,-29.8 L4.3,-30.3 L9.4,-29.4 L14.8,-26.3 L17.8,-25.9 L22.2,-27.1 L27.0,-28.0 L30.1,-27.5 L32.4,-25.7 L38.0,-19.3 L41.9,-16.3 L45.8,-14.4 L50.6,-13.7 L54.9,-13.1 L58.1,-11.7 L60.8,-9.3 L63.8,-6.8 L67.2,-5.9 L70.0,-6.8 L73.4,-9.5 L76.8,-11.3 L81.3,-13.7 L85.5,-17.2 L91.0,-24.3 L92.4,-27.4 L93.3,-31.1 L93.9,-36.2 L95.8,-39.3 L98.8,-42.2 L102.0,-44.1 L105.2,-45.2 L107.0,-48.0 L108.3,-51.0" fill="none" stroke="#ffffff" stroke-width="1.9" stroke-linecap="round" stroke-linejoin="round"></path><path d="M130.5,-1.6 L125.9,-2.3 L122.7,-2.0 L120.7,-0.2 L120.6,2.2 L121.8,4.9 L123.0,6.3" fill="none" stroke="#cec8bb" stroke-width="2.9" stroke-linecap="round" stroke-linejoin="round"/><path d="M130.5,-1.6 L125.9,-2.3 L122.7,-2.0 L120.7,-0.2 L120.6,2.2 L121.8,4.9 L123.0,6.3" fill="none" stroke="#ffffff" stroke-width="1.9" stroke-linecap="round" stroke-linejoin="round"></path><path d="M311.1,237.0 L260.3,281.9 L254.9,286.4" fill="none" stroke="#cec8bb" stroke-width="2.9" stroke-linecap="round" stroke-linejoin="round"/><path d="M311.1,237.0 L260.3,281.9 L254.9,286.4" fill="none" stroke="#ffffff" stroke-width="1.9" stroke-linecap="round" stroke-linejoin="round"></path><path d="M106.2,174.4 L121.3,160.7 L129.0,154.5 L131.3,154.8" fill="none" stroke="#cec8bb" stroke-width="2.9" stroke-linecap="round" stroke-linejoin="round"/><path d="M106.2,174.4 L121.3,160.7 L129.0,154.5 L131.3,154.8" fill="none" stroke="#ffffff" stroke-width="1.9" stroke-linecap="round" stroke-linejoin="round"></path><path d="M95.0,171.4 L97.8,169.3 L100.9,166.6 L121.0,148.9 L131.3,139.1 L132.7,137.3" fill="none" stroke="#cec8bb" stroke-width="2.9" stroke-linecap="round" stroke-linejoin="round"/><path d="M95.0,171.4 L97.8,169.3 L100.9,166.6 L121.0,148.9 L131.3,139.1 L132.7,137.3" fill="none" stroke="#ffffff" stroke-width="1.9" stroke-linecap="round" stroke-linejoin="round"></path><path d="M89.0,153.5 L90.8,152.0 L100.8,143.2 L110.3,134.4 L118.5,126.8" fill="none" stroke="#cec8bb" stroke-width="2.9" stroke-linecap="round" stroke-linejoin="round"/><path d="M89.0,153.5 L90.8,152.0 L100.8,143.2 L110.3,134.4 L118.5,126.8" fill="none" stroke="#ffffff" stroke-width="1.9" stroke-linecap="round" stroke-linejoin="round"></path><path d="M83.4,147.8 L85.1,146.4 L94.0,138.7 L102.6,130.8 L107.7,126.0 L112.0,121.9" fill="none" stroke="#cec8bb" stroke-width="2.9" stroke-linecap="round" stroke-linejoin="round"/><path d="M83.4,147.8 L85.1,146.4 L94.0,138.7 L102.6,130.8 L107.7,126.0 L112.0,121.9" fill="none" stroke="#ffffff" stroke-width="1.9" stroke-linecap="round" stroke-linejoin="round"></path><path d="M77.9,142.1 L82.0,138.5 L91.7,130.0 L103.0,119.9 L106.0,117.2" fill="none" stroke="#cec8bb" stroke-width="2.9" stroke-linecap="round" stroke-linejoin="round"/><path d="M77.9,142.1 L82.0,138.5 L91.7,130.0 L103.0,119.9 L106.0,117.2" fill="none" stroke="#ffffff" stroke-width="1.9" stroke-linecap="round" stroke-linejoin="round"></path><path d="M72.4,136.5 L82.7,127.2 L93.4,117.7 L99.8,111.5" fill="none" stroke="#cec8bb" stroke-width="2.9" stroke-linecap="round" stroke-linejoin="round"/><path d="M72.4,136.5 L82.7,127.2 L93.4,117.7 L99.8,111.5" fill="none" stroke="#ffffff" stroke-width="1.9" stroke-linecap="round" stroke-linejoin="round"></path><path d="M118.3,192.2 L122.3,191.9 L125.2,190.0 L130.6,180.5 L144.8,152.4 L145.6,149.2 L144.5,146.7 L142.9,145.3" fill="none" stroke="#cec8bb" stroke-width="2.9" stroke-linecap="round" stroke-linejoin="round"/><path d="M118.3,192.2 L122.3,191.9 L125.2,190.0 L130.6,180.5 L144.8,152.4 L145.6,149.2 L144.5,146.7 L142.9,145.3" fill="none" stroke="#ffffff" stroke-width="1.9" stroke-linecap="round" stroke-linejoin="round"></path><path d="M116.0,113.3 L120.8,106.8" fill="none" stroke="#cec8bb" stroke-width="2.9" stroke-linecap="round" stroke-linejoin="round"/><path d="M116.0,113.3 L120.8,106.8" fill="none" stroke="#ffffff" stroke-width="1.9" stroke-linecap="round" stroke-linejoin="round"></path><path d="M120.8,106.8 L123.9,108.1 L127.8,106.3 L129.7,99.7 L128.9,95.0 L126.3,92.6 L123.4,94.1 L121.7,100.4 L120.9,103.5 L120.8,106.8" fill="none" stroke="#cec8bb" stroke-width="2.9" stroke-linecap="round" stroke-linejoin="round"/><path d="M120.8,106.8 L123.9,108.1 L127.8,106.3 L129.7,99.7 L128.9,95.0 L126.3,92.6 L123.4,94.1 L121.7,100.4 L120.9,103.5 L120.8,106.8" fill="none" stroke="#ffffff" stroke-width="1.9" stroke-linecap="round" stroke-linejoin="round"></path><path d="M183.3,52.9 L177.6,52.4 L172.9,53.5 L169.4,58.3 L168.1,61.9" fill="none" stroke="#cec8bb" stroke-width="2.9" stroke-linecap="round" stroke-linejoin="round"/><path d="M183.3,52.9 L177.6,52.4 L172.9,53.5 L169.4,58.3 L168.1,61.9" fill="none" stroke="#ffffff" stroke-width="1.9" stroke-linecap="round" stroke-linejoin="round"></path><path d="M166.0,76.7 L175.6,79.8" fill="none" stroke="#cec8bb" stroke-width="2.9" stroke-linecap="round" stroke-linejoin="round"/><path d="M166.0,76.7 L175.6,79.8" fill="none" stroke="#ffffff" stroke-width="1.9" stroke-linecap="round" stroke-linejoin="round"></path><path d="M168.1,61.9 L166.7,66.9" fill="none" stroke="#cec8bb" stroke-width="2.9" stroke-linecap="round" stroke-linejoin="round"/><path d="M168.1,61.9 L166.7,66.9" fill="none" stroke="#ffffff" stroke-width="1.9" stroke-linecap="round" stroke-linejoin="round"></path><path d="M166.7,66.9 L166.2,71.0 L166.0,76.7 L154.8,102.6 L145.1,118.9 L141.6,120.5 L123.9,108.1" fill="none" stroke="#cec8bb" stroke-width="2.9" stroke-linecap="round" stroke-linejoin="round"/><path d="M166.7,66.9 L166.2,71.0 L166.0,76.7 L154.8,102.6 L145.1,118.9 L141.6,120.5 L123.9,108.1" fill="none" stroke="#ffffff" stroke-width="1.9" stroke-linecap="round" stroke-linejoin="round"></path><path d="M148.8,13.5 L159.5,4.4 L168.8,-3.4" fill="none" stroke="#cec8bb" stroke-width="2.9" stroke-linecap="round" stroke-linejoin="round"/><path d="M148.8,13.5 L159.5,4.4 L168.8,-3.4" fill="none" stroke="#ffffff" stroke-width="1.9" stroke-linecap="round" stroke-linejoin="round"></path><path d="M167.1,13.3 L159.5,4.4" fill="none" stroke="#cec8bb" stroke-width="2.9" stroke-linecap="round" stroke-linejoin="round"/><path d="M167.1,13.3 L159.5,4.4" fill="none" stroke="#ffffff" stroke-width="1.9" stroke-linecap="round" stroke-linejoin="round"></path><path d="M186.0,38.1 L175.4,35.6 L160.5,32.0" fill="none" stroke="#cec8bb" stroke-width="2.9" stroke-linecap="round" stroke-linejoin="round"/><path d="M186.0,38.1 L175.4,35.6 L160.5,32.0" fill="none" stroke="#ffffff" stroke-width="1.9" stroke-linecap="round" stroke-linejoin="round"></path><path d="M160.5,32.0 L170.7,22.2 L175.2,18.7 L178.1,20.7 L175.4,35.6" fill="none" stroke="#cec8bb" stroke-width="2.9" stroke-linecap="round" stroke-linejoin="round"/><path d="M160.5,32.0 L170.7,22.2 L175.2,18.7 L178.1,20.7 L175.4,35.6" fill="none" stroke="#ffffff" stroke-width="1.9" stroke-linecap="round" stroke-linejoin="round"></path><path d="M145.1,30.1 L149.5,37.0 L160.5,32.0" fill="none" stroke="#cec8bb" stroke-width="2.9" stroke-linecap="round" stroke-linejoin="round"/><path d="M145.1,30.1 L149.5,37.0 L160.5,32.0" fill="none" stroke="#ffffff" stroke-width="1.9" stroke-linecap="round" stroke-linejoin="round"></path><path d="M109.0,204.9 L111.0,206.2" fill="none" stroke="#cec8bb" stroke-width="2.9" stroke-linecap="round" stroke-linejoin="round"/><path d="M109.0,204.9 L111.0,206.2" fill="none" stroke="#ffffff" stroke-width="1.9" stroke-linecap="round" stroke-linejoin="round"></path><path d="M76.5,233.3 L89.1,222.0 L99.0,210.6 L104.5,204.3 L107.8,204.2 L109.0,204.9" fill="none" stroke="#cec8bb" stroke-width="2.9" stroke-linecap="round" stroke-linejoin="round"/><path d="M76.5,233.3 L89.1,222.0 L99.0,210.6 L104.5,204.3 L107.8,204.2 L109.0,204.9" fill="none" stroke="#ffffff" stroke-width="1.9" stroke-linecap="round" stroke-linejoin="round"></path><path d="M104.9,192.8 L103.1,190.8 L90.6,177.1 L90.3,176.1 L90.5,175.3 L93.4,172.5" fill="none" stroke="#cec8bb" stroke-width="2.9" stroke-linecap="round" stroke-linejoin="round"/><path d="M104.9,192.8 L103.1,190.8 L90.6,177.1 L90.3,176.1 L90.5,175.3 L93.4,172.5" fill="none" stroke="#ffffff" stroke-width="1.9" stroke-linecap="round" stroke-linejoin="round"></path><path d="M109.3,54.6 L113.3,50.1 L114.5,47.3" fill="none" stroke="#cec8bb" stroke-width="2.9" stroke-linecap="round" stroke-linejoin="round"/><path d="M109.3,54.6 L113.3,50.1 L114.5,47.3" fill="none" stroke="#ffffff" stroke-width="1.9" stroke-linecap="round" stroke-linejoin="round"></path><path d="M96.0,55.1 L100.8,57.2 L103.9,57.0" fill="none" stroke="#cec8bb" stroke-width="2.9" stroke-linecap="round" stroke-linejoin="round"/><path d="M96.0,55.1 L100.8,57.2 L103.9,57.0" fill="none" stroke="#ffffff" stroke-width="1.9" stroke-linecap="round" stroke-linejoin="round"></path><path d="M103.9,57.0 L109.3,54.6" fill="none" stroke="#cec8bb" stroke-width="2.9" stroke-linecap="round" stroke-linejoin="round"/><path d="M103.9,57.0 L109.3,54.6" fill="none" stroke="#ffffff" stroke-width="1.9" stroke-linecap="round" stroke-linejoin="round"></path><path d="M160.3,110.6 L167.0,109.7 L174.4,101.1 L182.3,81.9 L186.1,69.8 L193.0,39.3 L186.0,38.1" fill="none" stroke="#cec8bb" stroke-width="2.9" stroke-linecap="round" stroke-linejoin="round"/><path d="M160.3,110.6 L167.0,109.7 L174.4,101.1 L182.3,81.9 L186.1,69.8 L193.0,39.3 L186.0,38.1" fill="none" stroke="#ffffff" stroke-width="1.9" stroke-linecap="round" stroke-linejoin="round"></path><path d="M120.9,103.5 L117.5,100.8" fill="none" stroke="#cec8bb" stroke-width="2.9" stroke-linecap="round" stroke-linejoin="round"/><path d="M120.9,103.5 L117.5,100.8" fill="none" stroke="#ffffff" stroke-width="1.9" stroke-linecap="round" stroke-linejoin="round"></path><path d="M149.5,37.0 L146.7,39.3 L142.0,43.2 L133.4,47.3 L128.4,44.3 L126.9,41.2" fill="none" stroke="#cec8bb" stroke-width="2.9" stroke-linecap="round" stroke-linejoin="round"/><path d="M149.5,37.0 L146.7,39.3 L142.0,43.2 L133.4,47.3 L128.4,44.3 L126.9,41.2" fill="none" stroke="#ffffff" stroke-width="1.9" stroke-linecap="round" stroke-linejoin="round"></path><path d="M130.6,47.9 L130.2,49.0 L129.4,51.5" fill="none" stroke="#cec8bb" stroke-width="2.9" stroke-linecap="round" stroke-linejoin="round"/><path d="M130.6,47.9 L130.2,49.0 L129.4,51.5" fill="none" stroke="#ffffff" stroke-width="1.9" stroke-linecap="round" stroke-linejoin="round"></path><path d="M290.5,79.3 L278.8,93.9 L272.3,103.5 L265.9,116.8 L260.7,128.9 L258.1,137.8 L255.4,154.6 L254.0,167.3 L253.9,176.0 L254.4,184.2 L256.1,194.6 L258.4,203.5 L261.9,214.0 L266.1,225.2 L271.0,234.9 L273.7,240.0 L275.6,242.8" fill="none" stroke="#cec8bb" stroke-width="3.9" stroke-linecap="round" stroke-linejoin="round"/><path d="M290.5,79.3 L278.8,93.9 L272.3,103.5 L265.9,116.8 L260.7,128.9 L258.1,137.8 L255.4,154.6 L254.0,167.3 L253.9,176.0 L254.4,184.2 L256.1,194.6 L258.4,203.5 L261.9,214.0 L266.1,225.2 L271.0,234.9 L273.7,240.0 L275.6,242.8" fill="none" stroke="#ffffff" stroke-width="2.8" stroke-linecap="round" stroke-linejoin="round"><title>Paradiso Avenue</title></path><path d="M182.4,160.1 L178.9,166.4 L175.1,175.4 L171.7,187.2 L170.2,200.0 L170.4,211.2 L172.5,223.0 L175.6,234.6 L183.4,256.3 L190.8,271.8 L199.7,287.3 L208.5,300.3 L215.9,310.1" fill="none" stroke="#cec8bb" stroke-width="3.9" stroke-linecap="round" stroke-linejoin="round"/><path d="M182.4,160.1 L178.9,166.4 L175.1,175.4 L171.7,187.2 L170.2,200.0 L170.4,211.2 L172.5,223.0 L175.6,234.6 L183.4,256.3 L190.8,271.8 L199.7,287.3 L208.5,300.3 L215.9,310.1" fill="none" stroke="#ffffff" stroke-width="2.8" stroke-linecap="round" stroke-linejoin="round"><title>Carillo Street</title></path><path d="M332.2,191.7 L302.4,218.4 L275.6,242.8 L249.4,266.1 L243.6,271.1" fill="none" stroke="#cec8bb" stroke-width="3.9" stroke-linecap="round" stroke-linejoin="round"/><path d="M332.2,191.7 L302.4,218.4 L275.6,242.8 L249.4,266.1 L243.6,271.1" fill="none" stroke="#ffffff" stroke-width="2.8" stroke-linecap="round" stroke-linejoin="round"><title>Benevento Avenue</title></path><path d="M211.7,177.5 L217.5,177.7 L250.4,176.2 L258.5,175.8 L286.3,174.8 L290.7,174.6" fill="none" stroke="#cec8bb" stroke-width="3.9" stroke-linecap="round" stroke-linejoin="round"/><path d="M211.7,177.5 L217.5,177.7 L250.4,176.2 L258.5,175.8 L286.3,174.8 L290.7,174.6" fill="none" stroke="#ffffff" stroke-width="2.8" stroke-linecap="round" stroke-linejoin="round"><title>Pisano Avenue</title></path><path d="M220.5,115.5 L216.2,117.2 L185.5,155.5 L182.4,160.1" fill="none" stroke="#cec8bb" stroke-width="3.9" stroke-linecap="round" stroke-linejoin="round"/><path d="M220.5,115.5 L216.2,117.2 L185.5,155.5 L182.4,160.1" fill="none" stroke="#ffffff" stroke-width="2.8" stroke-linecap="round" stroke-linejoin="round"><title>Carillo Street</title></path><path d="M244.7,59.3 L253.9,63.2 L269.2,69.2 L280.3,73.7 L284.9,75.8 L290.5,79.3" fill="none" stroke="#cec8bb" stroke-width="3.9" stroke-linecap="round" stroke-linejoin="round"/><path d="M244.7,59.3 L253.9,63.2 L269.2,69.2 L280.3,73.7 L284.9,75.8 L290.5,79.3" fill="none" stroke="#ffffff" stroke-width="2.8" stroke-linecap="round" stroke-linejoin="round"><title>Donatello Street</title></path><path d="M189.7,-0.0 L183.7,0.0 L181.9,0.5 L179.8,1.8 L178.3,2.9" fill="none" stroke="#d1c4aa" stroke-width="4.4" stroke-linecap="round" stroke-linejoin="round"/><path d="M189.7,-0.0 L183.7,0.0 L181.9,0.5 L179.8,1.8 L178.3,2.9" fill="none" stroke="#f4d99b" stroke-width="3.0" stroke-linecap="round" stroke-linejoin="round"><title>Campo Sano Avenue</title></path><path d="M82.2,59.5 L83.5,64.0 L84.8,68.8 L86.6,74.2 L88.4,78.7 L90.2,82.4 L92.6,86.9 L95.7,92.0 L97.8,95.0 L100.6,98.6 L103.7,102.1 L108.1,106.6 L111.4,109.6 L116.0,113.3 L131.7,124.4 L143.7,132.7 L147.8,135.8" fill="none" stroke="#d1c4aa" stroke-width="4.4" stroke-linecap="round" stroke-linejoin="round"/><path d="M82.2,59.5 L83.5,64.0 L84.8,68.8 L86.6,74.2 L88.4,78.7 L90.2,82.4 L92.6,86.9 L95.7,92.0 L97.8,95.0 L100.6,98.6 L103.7,102.1 L108.1,106.6 L111.4,109.6 L116.0,113.3 L131.7,124.4 L143.7,132.7 L147.8,135.8" fill="none" stroke="#f4d99b" stroke-width="3.0" stroke-linecap="round" stroke-linejoin="round"><title>Pisano Avenue</title></path><path d="M189.7,-0.0 L188.6,15.7 L187.7,25.7 L187.1,30.6 L186.0,38.1 L185.0,43.6 L183.7,50.7 L182.3,57.2 L179.7,68.0 L177.6,74.1 L174.3,83.1 L170.5,91.3 L166.7,98.8 L162.6,106.5 L158.6,113.9 L155.3,120.3 L150.4,130.3 L147.8,135.8" fill="none" stroke="#d1c4aa" stroke-width="4.4" stroke-linecap="round" stroke-linejoin="round"/><path d="M189.7,-0.0 L188.6,15.7 L187.7,25.7 L187.1,30.6 L186.0,38.1 L185.0,43.6 L183.7,50.7 L182.3,57.2 L179.7,68.0 L177.6,74.1 L174.3,83.1 L170.5,91.3 L166.7,98.8 L162.6,106.5 L158.6,113.9 L155.3,120.3 L150.4,130.3 L147.8,135.8" fill="none" stroke="#f4d99b" stroke-width="3.0" stroke-linecap="round" stroke-linejoin="round"><title>University Drive</title></path><path d="M156.9,142.4 L163.8,147.3" fill="none" stroke="#d1c4aa" stroke-width="4.4" stroke-linecap="round" stroke-linejoin="round"/><path d="M156.9,142.4 L163.8,147.3" fill="none" stroke="#f4d99b" stroke-width="3.0" stroke-linecap="round" stroke-linejoin="round"><title>Pisano Avenue</title></path><path d="M163.8,147.3 L179.3,158.0 L182.4,160.1 L186.4,163.0 L187.7,164.0 L199.2,172.1" fill="none" stroke="#d1c4aa" stroke-width="4.4" stroke-linecap="round" stroke-linejoin="round"/><path d="M163.8,147.3 L179.3,158.0 L182.4,160.1 L186.4,163.0 L187.7,164.0 L199.2,172.1" fill="none" stroke="#f4d99b" stroke-width="3.0" stroke-linecap="round" stroke-linejoin="round"><title>Pisano Avenue</title></path><path d="M213.3,194.6 L213.6,196.9 L216.0,210.0 L222.0,229.1 L229.2,246.2 L233.4,254.7" fill="none" stroke="#d1c4aa" stroke-width="4.4" stroke-linecap="round" stroke-linejoin="round"/><path d="M213.3,194.6 L213.6,196.9 L216.0,210.0 L222.0,229.1 L229.2,246.2 L233.4,254.7" fill="none" stroke="#f4d99b" stroke-width="3.0" stroke-linecap="round" stroke-linejoin="round"><title>Granada Boulevard</title></path><path d="M147.8,135.8 L151.9,138.8 L156.9,142.4" fill="none" stroke="#d1c4aa" stroke-width="4.4" stroke-linecap="round" stroke-linejoin="round"/><path d="M147.8,135.8 L151.9,138.8 L156.9,142.4" fill="none" stroke="#f4d99b" stroke-width="3.0" stroke-linecap="round" stroke-linejoin="round"><title>Pisano Avenue</title></path><path d="M190.6,-16.1 L186.4,-9.2 L183.7,-4.9 L180.9,-1.5 L178.3,2.9" fill="none" stroke="#f4d99b" stroke-width="2.6" stroke-linecap="round" stroke-linejoin="round"></path><path d="M211.7,164.5 L208.7,168.0 L206.5,169.9 L204.6,171.2 L202.8,171.7 L199.2,172.1" fill="none" stroke="#f4d99b" stroke-width="2.6" stroke-linecap="round" stroke-linejoin="round"></path><path d="M199.2,172.1 L204.1,179.2 L206.7,182.7 L210.5,188.6 L211.6,190.4 L213.3,194.6" fill="none" stroke="#f4d99b" stroke-width="2.6" stroke-linecap="round" stroke-linejoin="round"></path><path d="M265.3,-63.2 L265.9,-37.3 L265.4,-24.9 L263.9,-10.8 L262.2,0.0 L257.7,20.7 L248.5,49.7 L235.4,81.2 L230.6,91.3" fill="none" stroke="#d1c4aa" stroke-width="4.4" stroke-linecap="round" stroke-linejoin="round"/><path d="M265.3,-63.2 L265.9,-37.3 L265.4,-24.9 L263.9,-10.8 L262.2,0.0 L257.7,20.7 L248.5,49.7 L235.4,81.2 L230.6,91.3" fill="none" stroke="#f4d99b" stroke-width="3.0" stroke-linecap="round" stroke-linejoin="round"><title>Granada Boulevard</title></path><path d="M230.6,91.3 L224.2,105.6 L218.2,124.0 L214.5,139.5 L212.6,151.8 L211.7,164.5 L211.7,177.5" fill="none" stroke="#d1c4aa" stroke-width="4.4" stroke-linecap="round" stroke-linejoin="round"/><path d="M230.6,91.3 L224.2,105.6 L218.2,124.0 L214.5,139.5 L212.6,151.8 L211.7,164.5 L211.7,177.5" fill="none" stroke="#f4d99b" stroke-width="3.0" stroke-linecap="round" stroke-linejoin="round"><title>Granada Boulevard</title></path><path d="M211.7,177.5 L213.0,190.3 L213.3,194.6" fill="none" stroke="#d1c4aa" stroke-width="4.4" stroke-linecap="round" stroke-linejoin="round"/><path d="M211.7,177.5 L213.0,190.3 L213.3,194.6" fill="none" stroke="#f4d99b" stroke-width="3.0" stroke-linecap="round" stroke-linejoin="round"><title>Granada Boulevard</title></path><path d="M199.2,172.1 L202.9,174.2 L205.2,175.4 L207.5,176.4 L211.7,177.5" fill="none" stroke="#d1c4aa" stroke-width="4.4" stroke-linecap="round" stroke-linejoin="round"/><path d="M199.2,172.1 L202.9,174.2 L205.2,175.4 L207.5,176.4 L211.7,177.5" fill="none" stroke="#f4d99b" stroke-width="3.0" stroke-linecap="round" stroke-linejoin="round"><title>Pisano Avenue</title></path><path d="M126.9,41.2 L118.5,45.5 L106.3,50.9 L96.0,55.1 L88.1,57.8 L78.5,60.6 L72.3,62.1 L61.7,64.4 L56.1,65.5 L51.3,66.3 L47.2,66.9 L41.8,67.6 L37.1,68.0 L33.5,68.3 L28.5,68.6 L23.0,68.8 L16.4,68.8 L7.3,68.7 L2.6,68.4 L-2.8,68.0 L-8.5,67.4 L-14.2,66.6 L-18.5,66.0 L-23.5,65.2 L-28.6,64.2 L-34.5,62.9 L-38.8,61.9 L-44.9,60.1 L-52.4,57.9" fill="none" stroke="#d1c4aa" stroke-width="4.4" stroke-linecap="round" stroke-linejoin="round"/><path d="M126.9,41.2 L118.5,45.5 L106.3,50.9 L96.0,55.1 L88.1,57.8 L78.5,60.6 L72.3,62.1 L61.7,64.4 L56.1,65.5 L51.3,66.3 L47.2,66.9 L41.8,67.6 L37.1,68.0 L33.5,68.3 L28.5,68.6 L23.0,68.8 L16.4,68.8 L7.3,68.7 L2.6,68.4 L-2.8,68.0 L-8.5,67.4 L-14.2,66.6 L-18.5,66.0 L-23.5,65.2 L-28.6,64.2 L-34.5,62.9 L-38.8,61.9 L-44.9,60.1 L-52.4,57.9" fill="none" stroke="#f4d99b" stroke-width="3.0" stroke-linecap="round" stroke-linejoin="round"><title>Campo Sano Avenue</title></path><path d="M233.4,254.7 L237.6,261.7" fill="none" stroke="#d1c4aa" stroke-width="4.4" stroke-linecap="round" stroke-linejoin="round"/><path d="M233.4,254.7 L237.6,261.7" fill="none" stroke="#f4d99b" stroke-width="3.0" stroke-linecap="round" stroke-linejoin="round"><title>Granada Boulevard</title></path><path d="M178.3,2.9 L167.1,13.3 L160.9,18.5 L153.3,24.3 L145.1,30.1 L138.9,34.2 L126.9,41.2" fill="none" stroke="#d1c4aa" stroke-width="4.4" stroke-linecap="round" stroke-linejoin="round"/><path d="M178.3,2.9 L167.1,13.3 L160.9,18.5 L153.3,24.3 L145.1,30.1 L138.9,34.2 L126.9,41.2" fill="none" stroke="#f4d99b" stroke-width="3.0" stroke-linecap="round" stroke-linejoin="round"><title>Campo Sano Avenue</title></path><path d="M499.8,117.4 L273.3,321.7" fill="none" stroke="#fbf8ef" stroke-width="5.9" stroke-linecap="round" stroke-linejoin="round"/><path d="M499.8,117.4 L273.3,321.7" fill="none" stroke="#5a5796" stroke-width="3.7" stroke-linecap="round" stroke-linejoin="round"><title>Metrorail</title></path><path d="M499.8,117.4 L273.3,321.7" fill="none" stroke="#ffffff" stroke-width="1.8" stroke-linecap="round" stroke-linejoin="round"/><path d="M274.7,323.1 L486.1,132.7" fill="none" stroke="#fbf8ef" stroke-width="5.9" stroke-linecap="round" stroke-linejoin="round"/><path d="M274.7,323.1 L486.1,132.7" fill="none" stroke="#5a5796" stroke-width="3.7" stroke-linecap="round" stroke-linejoin="round"><title>Metrorail</title></path><path d="M274.7,323.1 L486.1,132.7" fill="none" stroke="#ffffff" stroke-width="1.8" stroke-linecap="round" stroke-linejoin="round"/><text x="125.4" y="64.4" text-anchor="middle" font-family="Arial, sans-serif" font-size="7.5" font-weight="600" paint-order="stroke" stroke="#e2f3f7" stroke-width="1.9" stroke-linejoin="round" fill="#347f99" textLength="62.4" lengthAdjust="spacing">Mahi Waterway</text><text x="201.0" y="145.7" text-anchor="middle" font-family="Arial, sans-serif" font-size="7.5" font-weight="600" paint-order="stroke" stroke="#edf6e8" stroke-width="1.9" stroke-linejoin="round" fill="#4f7d54" textLength="57.6" lengthAdjust="spacing">Granada Park</text><text x="37.2" y="246.0" text-anchor="middle" font-family="Arial, sans-serif" font-size="7.5" font-weight="600" paint-order="stroke" stroke="#e2f3f7" stroke-width="1.9" stroke-linejoin="round" fill="#347f99" textLength="62.4" lengthAdjust="spacing">Mahi Waterway</text><text x="144.5" y="224.9" text-anchor="middle" font-family="Arial, sans-serif" font-size="7.5" font-weight="600" paint-order="stroke" stroke="#edf5ec" stroke-width="1.9" stroke-linejoin="round" fill="#5c806b" textLength="196.8" lengthAdjust="spacing">Henry S West Laboratory Elementary School</text></svg>