<svg xmlns="http://www.w3.org/2000/svg" width="256" height="256" viewBox="0 0 256 256"><rect width="256" height="256" fill="#f1efe7"/><path d="M-8453.4,1385.1 L-8346.0,1340.5 L-8312.4,1324.4 L-8162.1,1252.2 L-8133.9,1279.5 L-8131.4,1281.8 L-8078.8,1236.8 L-8066.2,1227.2 L-8045.3,1208.3 L-7927.2,1099.9 L-7831.9,991.1 L-7828.3,984.2 L-7824.8,980.2 L-7819.2,973.9 L-7813.6,967.4 L-7811.3,964.7 L-7848.9,916.2 L-7799.2,886.4 L-7772.2,922.3 L-7734.1,878.7 L-7766.4,835.9 L-7726.4,794.3 L-7695.7,834.8 L-7660.3,794.6 L-7645.3,784.8 L-7571.7,737.0 L-7535.3,712.9 L-7491.5,684.0 L-7470.8,670.5 L-7418.4,636.6 L-7431.9,618.8 L-7456.1,586.5 L-7393.6,546.8 L-7370.8,535.0 L-7369.1,533.8 L-7357.1,524.5 L-7314.3,501.7 L-7311.3,497.0 L-7299.3,488.8 L-7292.8,479.3 L-7291.0,477.9 L-7280.6,473.9 L-7256.9,465.4 L-7240.8,458.3 L-7183.7,431.5 L-7183.0,433.4 L-7135.2,412.9 L-7115.7,438.0 L-7072.1,408.9 L-7065.9,404.7 L-7065.3,404.2 L-7064.7,403.4 L-7063.8,401.7 L-7063.2,400.2 L-7063.0,398.3 L-7063.0,396.8 L-7063.2,395.4 L-7063.4,393.7 L-7063.5,392.5 L-7063.4,391.4 L-7063.1,390.3 L-7062.3,388.3 L-7061.8,387.2 L-7060.6,385.3 L-7059.2,383.9 L-7052.9,381.3 L-7047.6,379.4 L-7040.8,377.2 L-7037.7,376.3 L-7032.1,374.5 L-7028.1,373.0 L-7022.7,370.8 L-7015.3,367.6 L-7007.3,363.8 L-7003.0,361.7 L-6997.6,359.0 L-6992.6,356.1 L-6987.5,353.1 L-6982.4,349.8 L-6980.8,348.7 L-6970.4,340.8 L-6961.7,334.1 L-6953.2,326.9 L-6945.2,319.4 L-6939.5,312.9 L-6933.8,306.0 L-6926.8,297.0 L-6920.4,288.0 L-6913.1,276.4 L-6908.3,267.5 L-6905.3,261.8 L-6900.8,252.1 L-6897.1,243.2 L-6893.7,233.6 L-6891.0,225.1 L-6888.1,211.4 L-6885.9,199.2 L-6884.7,188.6 L-6883.8,176.3 L-6883.6,163.0 L-6884.5,150.7 L-6886.6,134.8 L-6888.7,123.9 L-6891.3,113.5 L-6894.9,101.9 L-6898.1,92.9 L-6901.7,83.1 L-6905.1,75.1 L-6907.4,69.8 L-6908.4,66.0 L-6908.5,63.0 L-6908.2,60.4 L-6907.1,58.1 L-6905.5,56.1 L-6903.4,55.0 L-6901.2,54.7 L-6895.1,56.2 L-6878.3,60.2 L-6872.7,-67.1 L-6850.8,-294.4 L-6874.6,-300.1 L-6877.2,-307.2 L-6877.1,-317.4 L-6873.8,-340.7 L-6869.3,-345.9 L-6865.3,-361.1 L-6840.1,-355.2 L-6826.1,-500.4 L-6822.3,-540.7 L-6830.1,-542.6 L-6825.4,-561.8 L-6841.6,-565.6 L-6839.5,-577.4 L-6836.7,-585.1 L-6833.1,-594.2 L-6827.1,-606.8 L-6820.7,-605.4 L-6811.9,-696.7 L-6809.9,-752.1 L-6809.5,-762.3 L-6804.8,-797.6 L-6795.4,-885.5 L-6733.0,-1048.2 L-6718.8,-1092.5 L-6545.5,-1159.0 L-6528.5,-1165.8 L-6525.6,-1167.4 L-6523.2,-1169.5 L-6520.7,-1172.4 L-6518.8,-1175.9 L-6517.5,-1179.3 L-6517.1,-1184.2 L-6517.4,-1190.4 L-6519.7,-1268.1 L-6520.6,-1283.2 L-6520.8,-1293.6 L-6521.1,-1313.6 L-6521.5,-1319.9 L-6522.3,-1325.2 L-6523.4,-1330.0 L-6524.9,-1334.7 L-6527.3,-1340.4 L-6530.9,-1346.5 L-6534.5,-1351.3 L-6537.2,-1355.8 L-6539.9,-1361.8 L-6542.2,-1367.7 L-6543.1,-1372.4 L-6543.8,-1377.6 L-6544.1,-1382.9 L-6544.0,-1388.0 L-6543.4,-1393.9 L-6542.0,-1399.8 L-6540.1,-1405.0 L-6538.2,-1409.8 L-6535.7,-1414.4 L-6532.7,-1419.9 L-6530.6,-1425.0 L-6528.9,-1431.5 L-6525.7,-1436.3 L-6526.8,-1481.0 L-6528.4,-1483.5 L-6529.0,-1513.8 L-6529.8,-1549.6 L-6529.2,-1554.5 L-6527.6,-1559.6 L-6523.6,-1567.5 L-6496.9,-1625.0 L-6496.3,-1626.0 L-6491.6,-1636.2 L-6487.1,-1646.0 L-6482.2,-1656.0 L-6477.2,-1666.2 L-6474.8,-1671.3 L-6448.6,-1725.2 L-6420.5,-1784.8 L-6359.6,-1908.2 L-6396.2,-1949.1 L-6426.0,-1885.7 L-6451.8,-1830.7 L-6455.7,-1822.9 L-6463.6,-1806.7 L-6479.5,-1808.0 L-6483.9,-1808.3 L-6485.4,-1806.8 L-6483.3,-1804.9 L-6491.5,-1797.7 L-6497.9,-1791.7 L-6499.1,-1766.3 L-6501.5,-1761.2 L-6509.3,-1761.5 L-6510.6,-1762.0 L-6612.8,-1804.1 L-6615.0,-1805.3 L-6617.4,-1806.8 L-6621.0,-1809.6 L-6623.9,-1812.3 L-6626.3,-1814.9 L-6628.6,-1818.1 L-6630.4,-1820.9 L-6631.8,-1823.8 L-6633.0,-1826.9 L-6633.7,-1828.9 L-6634.2,-1831.5 L-6634.7,-1834.5 L-6635.1,-1838.6 L-6635.1,-1844.4 L-6635.8,-1864.3 L-6633.0,-1864.5 L-6633.4,-1874.9 L-6633.8,-1892.2 L-6631.2,-1892.3 L-6631.4,-1904.1 L-6634.3,-1904.0 L-6635.7,-1953.8 L-6632.9,-1953.9 L-6633.4,-1965.5 L-6636.1,-1965.4 L-6637.2,-2002.2 L-6623.7,-2016.7 L-6606.5,-2017.3 L-6593.6,-2017.8 L-6576.7,-2018.3 L-6560.4,-2018.9 L-6545.7,-2019.4 L-6539.4,-2019.6 L-6539.7,-2025.3 L-6539.8,-2031.2 L-6540.8,-2050.3 L-6541.1,-2086.9 L-6541.6,-2087.5 L-6541.7,-2091.2 L-6540.6,-2091.2 L-6543.2,-2179.3 L-6545.4,-2262.1 L-6545.8,-2264.7 L-6546.0,-2269.5 L-6582.1,-2268.2 L-6606.1,-2270.3 L-6785.7,-2264.0 L-6785.7,-2265.6 L-6786.1,-2273.3 L-6871.3,-2270.3 L-6871.5,-2284.4 L-6882.7,-2286.9 L-6884.7,-2347.5 L-6553.3,-2359.0 L-6547.8,-2366.6 L-6548.0,-2388.1 L-6548.4,-2406.6 L-6548.7,-2418.3 L-6549.2,-2429.6 L-6575.5,-2442.1 L-6576.6,-2469.6 L-6549.5,-2483.0 L-6552.0,-2546.7 L-6552.7,-2549.9 L-6579.5,-2562.4 L-6580.4,-2596.5 L-6554.9,-2609.7 L-6566.3,-2748.1 L-6563.2,-2809.8 L-6561.8,-2910.2 L-6561.9,-3019.4 L-6559.5,-3034.8 L-6559.3,-3042.1 L-6561.7,-3051.1 L-6559.2,-3051.1 L-6559.2,-3059.1 L-6557.7,-3264.6 L-6557.9,-3273.8 L-6560.8,-3273.7 L-6560.7,-3311.5 L-6562.4,-3313.9 L-6564.9,-3352.9 L-6559.8,-3388.5 L-6560.5,-3431.7 L-6562.2,-3442.0 L-6559.6,-3474.0 L-6561.4,-3512.6 L-6565.9,-3554.0 L-6574.4,-3621.0 L-6570.4,-3639.4 L-6572.1,-3657.4 L-6587.4,-3670.5 L-6609.9,-3670.2 L-6644.1,-3665.7 L-6666.3,-3665.7 L-6686.6,-3673.2 L-6713.1,-3691.4 L-6713.1,-3724.0 L-6713.8,-3764.2 L-6711.2,-3797.6 L-6702.4,-3823.7 L-6555.0,-3826.4 L-6551.7,-4035.4 L-6551.7,-4336.2 L-6553.2,-4445.4 L1402.9,-7731.2 L1402.9,10377.9 L-8453.4,10377.9 L-8453.4,1385.1 Z" fill="#add7e1" stroke="none"><title>Biscayne Bay</title></path><path d="M-1627.0,-308.6 L41.4,442.9 L2344.1,-440.0" fill="none" stroke="#6fb5c7" stroke-width="1.4" stroke-dasharray="5 7" opacity="0.34" stroke-linecap="round" stroke-linejoin="round"><title>Government Cut</title></path></svg>