<svg xmlns="http://www.w3.org/2000/svg" width="256" height="256" viewBox="0 0 256 256"><rect width="256" height="256" fill="#f1efe7"/><path d="M-8453.4,-2710.9 L-8346.0,-2755.5 L-8312.4,-2771.6 L-8162.1,-2843.8 L-8133.9,-2816.5 L-8131.4,-2814.2 L-8078.8,-2859.2 L-8066.2,-2868.8 L-8045.3,-2887.7 L-7927.2,-2996.1 L-7831.9,-3104.9 L-7828.3,-3111.8 L-7824.8,-3115.8 L-7819.2,-3122.1 L-7813.6,-3128.6 L-7811.3,-3131.3 L-7848.9,-3179.8 L-7799.2,-3209.6 L-7772.2,-3173.7 L-7734.1,-3217.3 L-7766.4,-3260.1 L-7726.4,-3301.7 L-7695.7,-3261.2 L-7660.3,-3301.4 L-7645.3,-3311.2 L-7571.7,-3359.0 L-7535.3,-3383.1 L-7491.5,-3412.0 L-7470.8,-3425.5 L-7418.4,-3459.4 L-7431.9,-3477.2 L-7456.1,-3509.5 L-7393.6,-3549.2 L-7370.8,-3561.0 L-7369.1,-3562.2 L-7357.1,-3571.5 L-7314.3,-3594.3 L-7311.3,-3599.0 L-7299.3,-3607.2 L-7292.8,-3616.7 L-7291.0,-3618.1 L-7280.6,-3622.1 L-7256.9,-3630.6 L-7240.8,-3637.7 L-7183.7,-3664.5 L-7183.0,-3662.6 L-7135.2,-3683.1 L-7115.7,-3658.0 L-7072.1,-3687.1 L-7065.9,-3691.3 L-7065.3,-3691.8 L-7064.7,-3692.6 L-7063.8,-3694.3 L-7063.2,-3695.8 L-7063.0,-3697.7 L-7063.0,-3699.2 L-7063.2,-3700.6 L-7063.4,-3702.3 L-7063.5,-3703.5 L-7063.4,-3704.6 L-7063.1,-3705.7 L-7062.3,-3707.7 L-7061.8,-3708.8 L-7060.6,-3710.7 L-7059.2,-3712.1 L-7052.9,-3714.7 L-7047.6,-3716.6 L-7040.8,-3718.8 L-7037.7,-3719.7 L-7032.1,-3721.5 L-7028.1,-3723.0 L-7022.7,-3725.2 L-7015.3,-3728.4 L-7007.3,-3732.2 L-7003.0,-3734.3 L-6997.6,-3737.0 L-6992.6,-3739.9 L-6987.5,-3742.9 L-6982.4,-3746.2 L-6980.8,-3747.3 L-6970.4,-3755.2 L-6961.7,-3761.9 L-6953.2,-3769.1 L-6945.2,-3776.6 L-6939.5,-3783.1 L-6933.8,-3790.0 L-6926.8,-3799.0 L-6920.4,-3808.0 L-6913.1,-3819.6 L-6908.3,-3828.5 L-6905.3,-3834.2 L-6900.8,-3843.9 L-6897.1,-3852.8 L-6893.7,-3862.4 L-6891.0,-3870.9 L-6888.1,-3884.6 L-6885.9,-3896.8 L-6884.7,-3907.4 L-6883.8,-3919.7 L-6883.6,-3933.0 L-6884.5,-3945.3 L-6886.6,-3961.2 L-6888.7,-3972.1 L-6891.3,-3982.5 L-6894.9,-3994.1 L-6898.1,-4003.1 L-6901.7,-4012.9 L-6905.1,-4020.9 L-6907.4,-4026.2 L-6908.4,-4030.0 L-6908.5,-4033.0 L-6908.2,-4035.6 L-6907.1,-4037.9 L-6905.5,-4039.9 L-6903.4,-4041.0 L-6901.2,-4041.3 L-6895.1,-4039.8 L-6878.3,-4035.8 L-6872.7,-4163.1 L-6850.8,-4390.4 L-6874.6,-4396.1 L-6877.2,-4403.2 L-6877.1,-4413.4 L-6873.8,-4436.7 L-6869.3,-4441.9 L-6865.3,-4457.1 L-6840.1,-4451.2 L-6826.1,-4596.4 L-6822.3,-4636.7 L-6830.1,-4638.6 L-6825.4,-4657.8 L-6841.6,-4661.6 L-6839.5,-4673.4 L-6836.7,-4681.1 L-6833.1,-4690.2 L-6827.1,-4702.8 L-6820.7,-4701.4 L-6811.9,-4792.7 L-6809.9,-4848.1 L-6809.5,-4858.3 L-6804.8,-4893.6 L-6795.4,-4981.5 L-6733.0,-5144.2 L-6718.8,-5188.5 L-6545.5,-5255.0 L-6528.5,-5261.8 L-6525.6,-5263.4 L-6523.2,-5265.5 L-6520.7,-5268.4 L-6518.8,-5271.9 L-6517.5,-5275.3 L-6517.1,-5280.2 L-6517.4,-5286.4 L-6519.7,-5364.1 L-6520.6,-5379.2 L-6520.8,-5389.6 L-6521.1,-5409.6 L-6521.5,-5415.9 L-6522.3,-5421.2 L-6523.4,-5426.0 L-6524.9,-5430.7 L-6527.3,-5436.4 L-6530.9,-5442.5 L-6534.5,-5447.3 L-6537.2,-5451.8 L-6539.9,-5457.8 L-6542.2,-5463.7 L-6543.1,-5468.4 L-6543.8,-5473.6 L-6544.1,-5478.9 L-6544.0,-5484.0 L-6543.4,-5489.9 L-6542.0,-5495.8 L-6540.1,-5501.0 L-6538.2,-5505.8 L-6535.7,-5510.4 L-6532.7,-5515.9 L-6530.6,-5521.0 L-6528.9,-5527.5 L-6525.7,-5532.3 L-6526.8,-5577.0 L-6528.4,-5579.5 L-6529.0,-5609.8 L-6529.8,-5645.6 L-6529.2,-5650.5 L-6527.6,-5655.6 L-6523.6,-5663.5 L-6496.9,-5721.0 L-6496.3,-5722.0 L-6491.6,-5732.2 L-6487.1,-5742.0 L-6482.2,-5752.0 L-6477.2,-5762.2 L-6474.8,-5767.3 L-6448.6,-5821.2 L-6420.5,-5880.8 L-6359.6,-6004.2 L-6396.2,-6045.1 L-6426.0,-5981.7 L-6451.8,-5926.7 L-6455.7,-5918.9 L-6463.6,-5902.7 L-6479.5,-5904.0 L-6483.9,-5904.3 L-6485.4,-5902.8 L-6483.3,-5900.9 L-6491.5,-5893.7 L-6497.9,-5887.7 L-6499.1,-5862.3 L-6501.5,-5857.2 L-6509.3,-5857.5 L-6510.6,-5858.0 L-6612.8,-5900.1 L-6615.0,-5901.3 L-6617.4,-5902.8 L-6621.0,-5905.6 L-6623.9,-5908.3 L-6626.3,-5910.9 L-6628.6,-5914.1 L-6630.4,-5916.9 L-6631.8,-5919.8 L-6633.0,-5922.9 L-6633.7,-5924.9 L-6634.2,-5927.5 L-6634.7,-5930.5 L-6635.1,-5934.6 L-6635.1,-5940.4 L-6635.8,-5960.3 L-6633.0,-5960.5 L-6633.4,-5970.9 L-6633.8,-5988.2 L-6631.2,-5988.3 L-6631.4,-6000.1 L-6634.3,-6000.0 L-6635.7,-6049.8 L-6632.9,-6049.9 L-6633.4,-6061.5 L-6636.1,-6061.4 L-6637.2,-6098.2 L-6623.7,-6112.7 L-6606.5,-6113.3 L-6593.6,-6113.8 L-6576.7,-6114.3 L-6560.4,-6114.9 L-6545.7,-6115.4 L-6539.4,-6115.6 L-6539.7,-6121.3 L-6539.8,-6127.2 L-6540.8,-6146.3 L-6541.1,-6182.9 L-6541.6,-6183.5 L-6541.7,-6187.2 L-6540.6,-6187.2 L-6543.2,-6275.3 L-6545.4,-6358.1 L-6545.8,-6360.7 L-6546.0,-6365.5 L-6582.1,-6364.2 L-6606.1,-6366.3 L-6785.7,-6360.0 L-6785.7,-6361.6 L-6786.1,-6369.3 L-6871.3,-6366.3 L-6871.5,-6380.4 L-6882.7,-6382.9 L-6884.7,-6443.5 L-6553.3,-6455.0 L-6547.8,-6462.6 L-6548.0,-6484.1 L-6548.4,-6502.6 L-6548.7,-6514.3 L-6549.2,-6525.6 L-6575.5,-6538.1 L-6576.6,-6565.6 L-6549.5,-6579.0 L-6552.0,-6642.7 L-6552.7,-6645.9 L-6579.5,-6658.4 L-6580.4,-6692.5 L-6554.9,-6705.7 L-6566.3,-6844.1 L-6563.2,-6905.8 L-6561.8,-7006.2 L-6561.9,-7115.4 L-6559.5,-7130.8 L-6559.3,-7138.1 L-6561.7,-7147.1 L-6559.2,-7147.1 L-6559.2,-7155.1 L-6557.7,-7360.6 L-6557.9,-7369.8 L-6560.8,-7369.7 L-6560.7,-7407.5 L-6562.4,-7409.9 L-6564.9,-7448.9 L-6559.8,-7484.5 L-6560.5,-7527.7 L-6562.2,-7538.0 L-6559.6,-7570.0 L-6561.4,-7608.6 L-6565.9,-7650.0 L-6574.4,-7717.0 L-6570.4,-7735.4 L-6572.1,-7753.4 L-6587.4,-7766.5 L-6609.9,-7766.2 L-6644.1,-7761.7 L-6666.3,-7761.7 L-6686.6,-7769.2 L-6713.1,-7787.4 L-6713.1,-7820.0 L-6713.8,-7860.2 L-6711.2,-7893.6 L-6702.4,-7919.7 L-6555.0,-7922.4 L-6551.7,-8131.4 L-6551.7,-8432.2 L-6553.2,-8541.4 L1402.9,-11827.2 L1402.9,6281.9 L-8453.4,6281.9 L-8453.4,-2710.9 Z" fill="#add7e1" stroke="none"><title>Biscayne Bay</title></path></svg>