<svg xmlns="http://www.w3.org/2000/svg" width="256" height="256" viewBox="0 0 256 256"><rect width="256" height="256" fill="#f1efe7"/><path d="M3.5,74.3 L3.2,91.1 L-21.5,90.6 L-20.9,55.1 L-14.3,55.2 L-14.6,69.2 L-2.8,69.4 L-2.9,74.2 L3.5,74.3 Z" fill="#d6d2c9" stroke="#bab6ad" stroke-width="0.4"></path><path d="M21.9,55.2 L22.1,61.1 L30.8,60.7 L31.8,88.4 L7.3,89.2 L6.1,55.8 L21.9,55.2 Z" fill="#d6d2c9" stroke="#bab6ad" stroke-width="0.4"></path><path d="M0.7,59.3 L-9.3,59.7 L-10.0,43.3 L-0.0,42.9 L0.7,59.3 Z" fill="#d6d2c9" stroke="#bab6ad" stroke-width="0.4"></path><path d="M121.0,184.7 L104.0,185.0 L103.8,174.0 L120.8,173.7 L121.0,184.7 Z" fill="#d6d2c9" stroke="#bab6ad" stroke-width="0.4"></path><path d="M244.9,200.4 L233.7,201.0 L232.9,186.0 L244.2,185.5 L244.9,200.4 Z" fill="#d6d2c9" stroke="#bab6ad" stroke-width="0.4"></path><path d="M109.7,49.8 L90.4,50.4 L90.2,44.1 L90.0,37.8 L109.3,37.1 L109.7,49.8 Z" fill="#d6d2c9" stroke="#bab6ad" stroke-width="0.4"></path><path d="M171.0,-14.1 L171.3,-7.6 L177.3,-7.8 L178.6,23.4 L161.0,24.2 L159.8,-4.7 L155.4,-4.5 L155.0,-13.4 L171.0,-14.1 Z" fill="#d6d2c9" stroke="#bab6ad" stroke-width="0.4"></path><path d="M232.1,204.1 L232.2,205.8 L240.0,205.5 L241.1,230.0 L236.7,230.2 L236.7,232.3 L234.2,232.4 L234.2,233.4 L224.1,233.9 L223.4,218.2 L218.9,218.4 L218.3,205.4 L232.1,204.1 Z" fill="#d6d2c9" stroke="#bab6ad" stroke-width="0.4"></path><path d="M-11.8,243.1 L-15.9,243.3 L-17.6,204.4 L-6.1,203.8 L5.5,203.3 L6.7,230.9 L0.4,231.2 L0.4,233.3 L-8.1,233.7 L-7.7,242.9 L-11.8,243.1 Z" fill="#d6d2c9" stroke="#bab6ad" stroke-width="0.4"></path><path d="M210.8,130.6 L212.9,170.1 L204.8,169.5 L204.8,181.5 L186.5,181.7 L189.2,171.0 L195.0,170.1 L195.8,150.2 L194.7,150.2 L194.4,144.3 L187.4,144.6 L186.8,131.7 L210.8,130.6 Z" fill="#d6d2c9" stroke="#bab6ad" stroke-width="0.4"></path><path d="M258.9,154.9 L251.4,155.2 L250.4,133.3 L270.2,132.4 L270.9,149.5 L270.7,160.0 L258.6,161.0 L258.9,154.9 Z" fill="#d6d2c9" stroke="#bab6ad" stroke-width="0.4"></path><path d="M247.9,-17.2 L247.9,-15.9 L264.2,-16.5 L265.6,19.4 L254.4,19.9 L254.2,15.5 L243.0,15.9 L242.3,-3.7 L241.1,-3.7 L240.6,-17.0 L247.9,-17.2 Z" fill="#d6d2c9" stroke="#bab6ad" stroke-width="0.4"></path><path d="M239.1,41.5 L240.2,79.2 L221.4,79.7 L221.2,71.0 L214.4,71.2 L213.8,52.3 L222.4,52.0 L222.1,42.0 L239.1,41.5 Z" fill="#d6d2c9" stroke="#bab6ad" stroke-width="0.4"></path><path d="M20.3,141.2 L20.5,145.7 L26.0,145.4 L26.7,163.1 L10.4,163.7 L9.6,141.6 L20.3,141.2 Z" fill="#d6d2c9" stroke="#bab6ad" stroke-width="0.4"></path><path d="M54.5,26.9 L34.1,27.3 L33.4,-7.2 L34.0,-7.2 L39.6,-7.3 L53.8,-5.9 L54.2,10.5 L54.5,26.9 Z" fill="#d6d2c9" stroke="#bab6ad" stroke-width="0.4"></path><path d="M113.7,138.0 L113.8,142.5 L119.8,142.4 L119.8,145.3 L119.9,148.2 L116.8,148.2 L117.2,172.1 L107.6,172.3 L107.4,161.6 L100.2,161.7 L100.2,166.1 L93.3,166.3 L92.6,143.4 L101.6,143.2 L101.5,138.2 L107.6,138.1 L113.7,138.0 Z" fill="#d6d2c9" stroke="#bab6ad" stroke-width="0.4"></path><path d="M4.5,189.4 L-8.8,189.7 L-9.1,175.9 L-6.0,175.8 L-6.1,173.0 L4.1,172.7 L4.5,189.4 Z" fill="#d6d2c9" stroke="#bab6ad" stroke-width="0.4"></path><path d="M185.6,195.9 L164.5,196.9 L164.1,188.9 L185.3,188.0 L185.6,195.9 Z" fill="#d6d2c9" stroke="#bab6ad" stroke-width="0.4"></path><path d="M265.4,197.4 L248.8,198.0 L248.5,188.1 L265.1,187.5 L265.4,197.4 Z" fill="#d6d2c9" stroke="#bab6ad" stroke-width="0.4"></path><path d="M244.1,179.7 L224.4,180.7 L223.9,169.0 L232.2,168.6 L232.0,165.0 L243.4,164.5 L244.1,179.7 Z" fill="#d6d2c9" stroke="#bab6ad" stroke-width="0.4"></path><path d="M257.8,179.5 L246.3,179.9 L245.8,167.0 L257.4,166.6 L257.8,179.5 Z" fill="#d6d2c9" stroke="#bab6ad" stroke-width="0.4"></path><path d="M178.3,203.4 L178.5,209.6 L186.4,209.3 L187.5,236.3 L185.3,236.4 L183.2,236.5 L183.1,235.1 L164.8,235.8 L163.5,204.0 L178.3,203.4 Z" fill="#d6d2c9" stroke="#bab6ad" stroke-width="0.4"></path><path d="M54.5,172.7 L37.0,173.2 L36.1,140.9 L53.0,140.4 L52.9,138.4 L60.3,138.2 L60.7,153.4 L55.4,153.6 L55.6,161.7 L54.2,161.7 L54.5,172.7 Z" fill="#d6d2c9" stroke="#bab6ad" stroke-width="0.4"></path><path d="M223.5,-19.1 L223.7,-16.6 L234.2,-17.2 L236.3,18.0 L222.8,18.8 L222.5,14.6 L214.7,15.0 L212.7,-18.4 L223.5,-19.1 Z" fill="#d6d2c9" stroke="#bab6ad" stroke-width="0.4"></path><path d="M10.3,28.5 L4.4,28.7 L3.4,-5.3 L25.8,-5.1 L26.4,15.0 L19.3,15.3 L19.5,21.3 L10.0,21.6 L10.3,28.5 Z" fill="#d6d2c9" stroke="#bab6ad" stroke-width="0.4"></path><path d="M207.3,51.7 L208.5,74.8 L201.3,75.1 L201.5,79.3 L186.9,80.1 L185.8,58.7 L192.0,58.3 L191.7,52.2 L189.3,52.3 L189.0,45.8 L190.2,45.8 L190.0,43.2 L207.8,42.2 L208.3,51.7 L207.3,51.7 Z" fill="#d6d2c9" stroke="#bab6ad" stroke-width="0.4"></path><path d="M174.1,152.4 L174.5,164.4 L177.9,164.3 L178.5,183.2 L166.1,183.7 L165.5,165.3 L159.0,165.5 L158.3,145.3 L173.7,144.8 L173.3,133.9 L181.7,133.6 L182.3,152.2 L174.1,152.4 Z" fill="#d6d2c9" stroke="#bab6ad" stroke-width="0.4"></path><path d="M106.8,53.3 L107.0,56.9 L109.7,56.8 L110.1,67.8 L114.7,67.7 L115.2,81.3 L101.8,81.8 L102.0,87.3 L91.7,87.7 L90.6,57.5 L96.2,57.3 L96.1,53.7 L106.8,53.3 Z" fill="#d6d2c9" stroke="#bab6ad" stroke-width="0.4"></path><path d="M68.0,-8.6 L68.1,-7.5 L82.3,-7.7 L82.7,19.1 L76.0,19.2 L76.1,26.8 L64.8,27.0 L64.6,14.2 L61.3,14.2 L61.0,-8.5 L68.0,-8.6 Z" fill="#d6d2c9" stroke="#bab6ad" stroke-width="0.4"></path><path d="M-4.0,163.1 L-20.6,163.7 L-20.8,156.1 L-12.8,155.9 L-13.1,146.0 L0.3,145.7 L0.6,155.3 L-4.2,155.5 L-4.0,163.1 Z" fill="#d6d2c9" stroke="#bab6ad" stroke-width="0.4"></path><path d="M175.2,45.1 L176.6,81.7 L159.7,82.3 L159.2,70.0 L158.0,70.1 L157.1,46.6 L158.7,45.7 L175.2,45.1 Z" fill="#d6d2c9" stroke="#bab6ad" stroke-width="0.4"></path><path d="M200.7,205.4 L201.0,213.6 L210.0,213.3 L210.2,220.1 L214.8,219.9 L215.3,232.7 L209.5,232.9 L209.6,235.2 L201.4,235.5 L193.1,235.8 L192.0,205.7 L200.7,205.4 Z" fill="#d6d2c9" stroke="#bab6ad" stroke-width="0.4"></path><path d="M58.5,215.8 L58.6,219.0 L62.8,218.9 L63.6,239.7 L59.4,239.9 L55.2,240.1 L54.9,233.0 L46.5,233.3 L46.6,235.5 L39.9,235.7 L39.2,216.6 L58.5,215.8 Z" fill="#d6d2c9" stroke="#bab6ad" stroke-width="0.4"></path><path d="M117.7,214.8 L118.7,237.7 L104.9,238.3 L105.0,239.8 L101.3,240.0 L97.5,240.1 L97.0,229.6 L94.4,229.7 L94.1,222.8 L93.7,215.9 L117.7,214.8 Z" fill="#d6d2c9" stroke="#bab6ad" stroke-width="0.4"></path><path d="M96.8,30.2 L89.1,30.5 L87.6,-10.5 L111.2,-11.4 L112.5,25.0 L96.6,25.5 L96.8,30.2 Z" fill="#d6d2c9" stroke="#bab6ad" stroke-width="0.4"></path><path d="M31.9,211.5 L32.1,216.2 L34.5,216.1 L35.5,241.2 L25.5,241.6 L25.4,239.1 L18.9,239.4 L19.0,241.0 L15.5,241.2 L12.0,241.3 L11.6,229.1 L20.1,228.8 L19.6,216.7 L23.7,216.5 L23.5,211.8 L27.7,211.7 L31.9,211.5 Z" fill="#d6d2c9" stroke="#bab6ad" stroke-width="0.4"></path><path d="M121.7,203.5 L94.9,204.6 L94.4,192.6 L121.2,191.5 L121.7,203.5 Z" fill="#d6d2c9" stroke="#bab6ad" stroke-width="0.4"></path><path d="M229.7,132.4 L229.8,134.5 L237.4,134.0 L238.2,160.7 L230.9,160.9 L230.9,158.1 L223.5,158.3 L223.6,162.5 L216.6,162.7 L216.2,149.1 L220.9,149.0 L220.5,132.7 L229.7,132.4 Z" fill="#d6d2c9" stroke="#bab6ad" stroke-width="0.4"></path><path d="M45.3,46.4 L45.5,51.8 L56.5,51.4 L56.7,58.9 L58.0,58.9 L59.1,87.5 L45.2,88.0 L44.9,80.9 L33.4,81.3 L32.1,46.9 L45.3,46.4 Z" fill="#d6d2c9" stroke="#bab6ad" stroke-width="0.4"></path><path d="M54.4,176.0 L54.5,177.4 L71.7,176.8 L72.1,187.4 L44.1,188.4 L43.7,176.4 L54.4,176.0 Z" fill="#d6d2c9" stroke="#bab6ad" stroke-width="0.4"></path><path d="M79.3,138.9 L79.5,144.0 L86.2,143.7 L87.5,171.4 L75.7,172.0 L75.5,167.5 L72.7,167.6 L72.2,156.3 L64.9,156.7 L64.5,147.9 L71.6,147.6 L71.2,139.3 L79.3,138.9 Z" fill="#d6d2c9" stroke="#bab6ad" stroke-width="0.4"></path><path d="M82.4,87.6 L68.2,88.2 L67.3,65.5 L70.3,65.4 L70.1,60.5 L81.3,60.1 L82.4,87.6 Z" fill="#d6d2c9" stroke="#bab6ad" stroke-width="0.4"></path><path d="M194.6,-14.8 L194.7,-13.3 L206.7,-14.1 L208.0,5.9 L200.6,6.4 L201.0,12.4 L189.3,13.1 L188.9,7.1 L186.7,7.3 L185.3,-14.2 L194.6,-14.8 Z" fill="#d6d2c9" stroke="#bab6ad" stroke-width="0.4"></path><path d="M259.2,77.1 L243.5,77.5 L243.2,67.4 L249.3,67.3 L248.8,44.0 L256.0,43.8 L255.9,39.9 L264.7,39.7 L265.4,72.3 L259.1,72.5 L259.2,77.1 Z" fill="#d6d2c9" stroke="#bab6ad" stroke-width="0.4"></path><path d="M82.8,204.7 L83.1,213.2 L90.4,212.9 L91.2,233.7 L82.5,234.0 L82.7,238.8 L67.3,239.4 L67.1,233.9 L66.8,228.4 L72.4,228.1 L72.1,218.5 L75.8,218.3 L75.3,205.0 L82.8,204.7 Z" fill="#d6d2c9" stroke="#bab6ad" stroke-width="0.4"></path><path d="M481.3,236.2 L171.6,250.0 L167.8,249.9 L164.8,249.1 L161.9,247.7 L159.3,246.0 L157.2,243.5 L155.8,241.2 L154.8,238.3 L154.4,235.3 L150.9,140.8 L150.8,137.7 L150.9,135.6 L151.3,133.4 L152.3,131.2 L153.6,129.0 L154.2,128.3 L155.7,126.8 L157.6,125.3 L159.9,124.0 L162.5,123.3 L165.9,122.8 L395.3,112.6" fill="none" stroke="#cf828d" stroke-width="1.5" stroke-dasharray="1.6 3.0" opacity="0.62" stroke-linecap="round" stroke-linejoin="round"></path><path d="M483.5,82.8 L177.4,96.6 L165.5,97.2 L162.2,96.8 L158.8,95.8 L156.2,94.4 L155.1,93.4 L153.9,92.3 L151.9,89.7 L150.8,87.0 L150.0,83.6 L146.4,-13.2 L147.2,-17.5 L148.5,-20.0 L150.2,-22.6 L151.2,-24.3 L153.6,-26.5 L156.8,-27.4 L162.7,-28.3 L390.0,-39.2" fill="none" stroke="#cf828d" stroke-width="1.5" stroke-dasharray="1.6 3.0" opacity="0.62" stroke-linecap="round" stroke-linejoin="round"></path><path d="M-61.7,-17.4 L106.8,-25.5 L111.3,-24.7 L115.3,-22.4 L118.1,-19.5 L120.0,-15.4 L120.8,-11.5 L121.1,-3.1 L124.4,83.8 L124.2,88.0 L123.0,91.2 L120.6,95.1 L118.0,97.5 L114.6,98.9 L110.0,100.0 L99.6,100.3 L-165.6,112.2" fill="none" stroke="#cf828d" stroke-width="1.5" stroke-dasharray="1.6 3.0" opacity="0.62" stroke-linecap="round" stroke-linejoin="round"></path><path d="M155.1,93.4 L152.1,96.2" fill="none" stroke="#cf828d" stroke-width="1.5" stroke-dasharray="1.6 3.0" opacity="0.62" stroke-linecap="round" stroke-linejoin="round"></path><path d="M152.1,96.2 L152.1,111.1 L152.2,125.8" fill="none" stroke="#cf828d" stroke-width="1.5" stroke-dasharray="1.6 3.0" opacity="0.62" stroke-linecap="round" stroke-linejoin="round"></path><path d="M152.2,125.8 L154.2,128.3" fill="none" stroke="#cf828d" stroke-width="1.5" stroke-dasharray="1.6 3.0" opacity="0.62" stroke-linecap="round" stroke-linejoin="round"></path><path d="M155.8,241.2 L153.3,243.3" fill="none" stroke="#cf828d" stroke-width="1.5" stroke-dasharray="1.6 3.0" opacity="0.62" stroke-linecap="round" stroke-linejoin="round"></path><path d="M153.3,243.3 L155.9,263.7 L157.7,278.1" fill="none" stroke="#cf828d" stroke-width="1.5" stroke-dasharray="1.6 3.0" opacity="0.62" stroke-linecap="round" stroke-linejoin="round"></path><path d="M120.6,95.1 L122.1,96.9" fill="none" stroke="#cf828d" stroke-width="1.5" stroke-dasharray="1.6 3.0" opacity="0.62" stroke-linecap="round" stroke-linejoin="round"></path><path d="M122.1,96.9 L122.4,112.5 L122.7,126.4" fill="none" stroke="#cf828d" stroke-width="1.5" stroke-dasharray="1.6 3.0" opacity="0.62" stroke-linecap="round" stroke-linejoin="round"></path><path d="M-197.2,139.1 L102.6,125.3 L110.6,125.3 L116.4,126.6 L120.8,129.2 L124.2,134.0 L125.3,138.0 L125.8,143.7 L129.3,236.5 L128.3,241.2 L127.1,245.0 L124.4,248.0 L121.8,250.2 L119.5,251.4 L116.5,252.0 L110.0,252.3 L-207.1,267.5" fill="none" stroke="#cf828d" stroke-width="1.5" stroke-dasharray="1.6 3.0" opacity="0.62" stroke-linecap="round" stroke-linejoin="round"></path><path d="M122.7,126.4 L120.8,129.2" fill="none" stroke="#cf828d" stroke-width="1.5" stroke-dasharray="1.6 3.0" opacity="0.62" stroke-linecap="round" stroke-linejoin="round"></path><path d="M121.8,250.2 L124.5,253.2" fill="none" stroke="#cf828d" stroke-width="1.5" stroke-dasharray="1.6 3.0" opacity="0.62" stroke-linecap="round" stroke-linejoin="round"></path><path d="M124.5,253.2 L126.3,265.0 L128.4,279.0" fill="none" stroke="#cf828d" stroke-width="1.5" stroke-dasharray="1.6 3.0" opacity="0.62" stroke-linecap="round" stroke-linejoin="round"></path><path d="M132.6,-39.1 L133.0,-24.4 L133.2,-13.0 L137.4,111.8 L142.6,264.3 L145.3,346.9" fill="none" stroke="#cec8bb" stroke-width="4.8" stroke-linecap="round" stroke-linejoin="round"/><path d="M132.6,-39.1 L133.0,-24.4 L133.2,-13.0 L137.4,111.8 L142.6,264.3 L145.3,346.9" fill="none" stroke="#ffffff" stroke-width="3.7" stroke-linecap="round" stroke-linejoin="round"><title>Southwest 23rd Avenue</title></path><path d="M492.7,248.7 L168.2,263.2 L155.9,263.7 L142.6,264.3 L126.3,265.0 L119.7,265.3 L-215.4,280.5" fill="none" stroke="#cec8bb" stroke-width="4.8" stroke-linecap="round" stroke-linejoin="round"/><path d="M492.7,248.7 L168.2,263.2 L155.9,263.7 L142.6,264.3 L126.3,265.0 L119.7,265.3 L-215.4,280.5" fill="none" stroke="#ffffff" stroke-width="3.7" stroke-linecap="round" stroke-linejoin="round"><title>Southwest 17th Street</title></path><path d="M490.0,94.9 L159.0,110.7 L152.1,111.1 L137.4,111.8 L122.4,112.5 L116.9,112.7 L-221.8,128.0" fill="none" stroke="#cec8bb" stroke-width="4.8" stroke-linecap="round" stroke-linejoin="round"/><path d="M490.0,94.9 L159.0,110.7 L152.1,111.1 L137.4,111.8 L122.4,112.5 L116.9,112.7 L-221.8,128.0" fill="none" stroke="#ffffff" stroke-width="3.7" stroke-linecap="round" stroke-linejoin="round"><title>Southwest 16th Terrace</title></path><text x="139.6" y="175.9" transform="rotate(88.0 139.6 175.9)" text-anchor="middle" dominant-baseline="central" font-family="Arial, sans-serif" font-size="8.3" textLength="111.6" lengthAdjust="spacing" font-weight="650" paint-order="stroke" stroke="#fffaf0" stroke-width="2.05" stroke-linejoin="round" fill="#695f54">Southwest 23rd Avenue</text><text x="20.0" y="68.4" text-anchor="middle" font-family="Arial, sans-serif" font-size="6.5" textLength="18.0" lengthAdjust="spacing" font-weight="500" paint-order="stroke" stroke="#f3f5ee" stroke-width="1.55" stroke-linejoin="round" fill="#6f777a">2331</text><text x="231.0" y="220.8" text-anchor="middle" font-family="Arial, sans-serif" font-size="6.5" textLength="18.0" lengthAdjust="spacing" font-weight="500" paint-order="stroke" stroke="#f3f5ee" stroke-width="1.55" stroke-linejoin="round" fill="#6f777a">2277</text><text x="196.9" y="158.0" text-anchor="middle" font-family="Arial, sans-serif" font-size="6.5" textLength="18.0" lengthAdjust="spacing" font-weight="500" paint-order="stroke" stroke="#f3f5ee" stroke-width="1.55" stroke-linejoin="round" fill="#6f777a">2268</text><text x="224.3" y="61.1" text-anchor="middle" font-family="Arial, sans-serif" font-size="6.5" textLength="18.0" lengthAdjust="spacing" font-weight="500" paint-order="stroke" stroke="#f3f5ee" stroke-width="1.55" stroke-linejoin="round" fill="#6f777a">2271</text><text x="18.9" y="150.1" text-anchor="middle" font-family="Arial, sans-serif" font-size="6.5" textLength="18.0" lengthAdjust="spacing" font-weight="500" paint-order="stroke" stroke="#f3f5ee" stroke-width="1.55" stroke-linejoin="round" fill="#6f777a">2326</text><text x="43.4" y="16.5" text-anchor="middle" font-family="Arial, sans-serif" font-size="6.5" textLength="18.0" lengthAdjust="spacing" font-weight="500" paint-order="stroke" stroke="#f3f5ee" stroke-width="1.55" stroke-linejoin="round" fill="#6f777a">2320</text><text x="108.3" y="151.7" text-anchor="middle" font-family="Arial, sans-serif" font-size="6.5" textLength="18.0" lengthAdjust="spacing" font-weight="500" paint-order="stroke" stroke="#f3f5ee" stroke-width="1.55" stroke-linejoin="round" fill="#6f777a">2300</text><text x="179.0" y="222.9" text-anchor="middle" font-family="Arial, sans-serif" font-size="6.5" textLength="18.0" lengthAdjust="spacing" font-weight="500" paint-order="stroke" stroke="#f3f5ee" stroke-width="1.55" stroke-linejoin="round" fill="#6f777a">2291</text><text x="52.0" y="153.4" text-anchor="middle" font-family="Arial, sans-serif" font-size="6.5" textLength="18.0" lengthAdjust="spacing" font-weight="500" paint-order="stroke" stroke="#f3f5ee" stroke-width="1.55" stroke-linejoin="round" fill="#6f777a">2320</text><text x="15.0" y="16.5" text-anchor="middle" font-family="Arial, sans-serif" font-size="6.5" textLength="18.0" lengthAdjust="spacing" font-weight="500" paint-order="stroke" stroke="#f3f5ee" stroke-width="1.55" stroke-linejoin="round" fill="#6f777a">2330</text><text x="196.4" y="57.9" text-anchor="middle" font-family="Arial, sans-serif" font-size="6.5" textLength="18.0" lengthAdjust="spacing" font-weight="500" paint-order="stroke" stroke="#f3f5ee" stroke-width="1.55" stroke-linejoin="round" fill="#6f777a">2275</text><text x="172.1" y="157.4" text-anchor="middle" font-family="Arial, sans-serif" font-size="6.5" textLength="18.0" lengthAdjust="spacing" font-weight="500" paint-order="stroke" stroke="#f3f5ee" stroke-width="1.55" stroke-linejoin="round" fill="#6f777a">2292</text><text x="103.5" y="67.4" text-anchor="middle" font-family="Arial, sans-serif" font-size="6.5" textLength="18.0" lengthAdjust="spacing" font-weight="500" paint-order="stroke" stroke="#f3f5ee" stroke-width="1.55" stroke-linejoin="round" fill="#6f777a">2305</text><text x="70.5" y="16.5" text-anchor="middle" font-family="Arial, sans-serif" font-size="6.5" textLength="18.0" lengthAdjust="spacing" font-weight="500" paint-order="stroke" stroke="#f3f5ee" stroke-width="1.55" stroke-linejoin="round" fill="#6f777a">2310</text><text x="163.5" y="63.1" text-anchor="middle" font-family="Arial, sans-serif" font-size="6.5" textLength="18.0" lengthAdjust="spacing" font-weight="500" paint-order="stroke" stroke="#f3f5ee" stroke-width="1.55" stroke-linejoin="round" fill="#6f777a">1621</text><text x="205.3" y="222.7" text-anchor="middle" font-family="Arial, sans-serif" font-size="6.5" textLength="18.0" lengthAdjust="spacing" font-weight="500" paint-order="stroke" stroke="#f3f5ee" stroke-width="1.55" stroke-linejoin="round" fill="#6f777a">2283</text><text x="53.2" y="229.8" text-anchor="middle" font-family="Arial, sans-serif" font-size="6.5" textLength="18.0" lengthAdjust="spacing" font-weight="500" paint-order="stroke" stroke="#f3f5ee" stroke-width="1.55" stroke-linejoin="round" fill="#6f777a">2321</text><text x="99.0" y="16.5" text-anchor="middle" font-family="Arial, sans-serif" font-size="6.5" textLength="18.0" lengthAdjust="spacing" font-weight="500" paint-order="stroke" stroke="#f3f5ee" stroke-width="1.55" stroke-linejoin="round" fill="#6f777a">2300</text><text x="23.5" y="227.7" text-anchor="middle" font-family="Arial, sans-serif" font-size="6.5" textLength="18.0" lengthAdjust="spacing" font-weight="500" paint-order="stroke" stroke="#f3f5ee" stroke-width="1.55" stroke-linejoin="round" fill="#6f777a">2325</text><text x="226.5" y="149.6" text-anchor="middle" font-family="Arial, sans-serif" font-size="6.5" textLength="18.0" lengthAdjust="spacing" font-weight="500" paint-order="stroke" stroke="#f3f5ee" stroke-width="1.55" stroke-linejoin="round" fill="#6f777a">2266</text><text x="47.7" y="65.2" text-anchor="middle" font-family="Arial, sans-serif" font-size="6.5" textLength="18.0" lengthAdjust="spacing" font-weight="500" paint-order="stroke" stroke="#f3f5ee" stroke-width="1.55" stroke-linejoin="round" fill="#6f777a">2321</text><text x="75.1" y="154.4" text-anchor="middle" font-family="Arial, sans-serif" font-size="6.5" textLength="18.0" lengthAdjust="spacing" font-weight="500" paint-order="stroke" stroke="#f3f5ee" stroke-width="1.55" stroke-linejoin="round" fill="#6f777a">2312</text><text x="73.3" y="71.2" text-anchor="middle" font-family="Arial, sans-serif" font-size="6.5" textLength="18.0" lengthAdjust="spacing" font-weight="500" paint-order="stroke" stroke="#f3f5ee" stroke-width="1.55" stroke-linejoin="round" fill="#6f777a">2311</text><text x="77.6" y="223.8" text-anchor="middle" font-family="Arial, sans-serif" font-size="6.5" textLength="18.0" lengthAdjust="spacing" font-weight="500" paint-order="stroke" stroke="#f3f5ee" stroke-width="1.55" stroke-linejoin="round" fill="#6f777a">2315</text><text x="115.7" y="212.1" text-anchor="middle" font-family="Arial, sans-serif" font-size="6.5" textLength="18.0" lengthAdjust="spacing" font-weight="500" paint-order="stroke" stroke="#f3f5ee" stroke-width="1.55" stroke-linejoin="round" fill="#6f777a">2301</text><g opacity="0.56"><title>crossing</title><path d="M149.8,109.3 L154.4,109.3 M149.8,111.1 L154.4,111.1 M149.8,112.9 L154.4,112.9" stroke="#ffffff" stroke-width="2.1" stroke-linecap="round"/><path d="M149.8,109.3 L154.4,109.3 M149.8,111.1 L154.4,111.1 M149.8,112.9 L154.4,112.9" stroke="#59656a" stroke-width="0.85" stroke-linecap="round"/></g><g opacity="0.56"><title>crossing</title><path d="M120.2,110.7 L124.7,110.7 M120.2,112.5 L124.7,112.5 M120.2,114.3 L124.7,114.3" stroke="#ffffff" stroke-width="2.1" stroke-linecap="round"/><path d="M120.2,110.7 L124.7,110.7 M120.2,112.5 L124.7,112.5 M120.2,114.3 L124.7,114.3" stroke="#59656a" stroke-width="0.85" stroke-linecap="round"/></g></svg>