<svg xmlns="http://www.w3.org/2000/svg" width="256" height="256" viewBox="0 0 256 256"><rect width="256" height="256" fill="#f1efe7"/><path d="M190.5,131.2 L180.3,131.8 L179.9,125.7 L190.1,125.2 L190.5,131.2 Z" fill="#d6d2c9" stroke="#bab6ad" stroke-width="0.4"></path><path d="M235.5,113.0 L235.5,121.1 L234.1,121.0 L234.0,130.0 L226.6,130.0 L226.8,112.9 L235.5,113.0 Z" fill="#d6d2c9" stroke="#bab6ad" stroke-width="0.4"></path><path d="M61.8,137.7 L53.7,138.0 L53.5,131.3 L61.5,131.0 L61.8,137.7 Z" fill="#d6d2c9" stroke="#bab6ad" stroke-width="0.4"></path><path d="M77.3,135.4 L69.1,135.7 L68.6,119.8 L76.8,119.5 L77.3,135.4 Z" fill="#d6d2c9" stroke="#bab6ad" stroke-width="0.4"></path><path d="M217.3,149.1 L201.0,149.4 L200.8,142.1 L200.7,134.8 L217.0,134.5 L217.3,149.1 Z" fill="#d6d2c9" stroke="#bab6ad" stroke-width="0.4"></path><path d="M44.0,136.5 L35.6,137.1 L35.1,130.9 L43.5,130.2 L44.0,136.5 Z" fill="#d6d2c9" stroke="#bab6ad" stroke-width="0.4"></path><path d="M243.9,145.5 L237.6,145.7 L237.3,132.4 L253.9,132.0 L254.1,142.5 L243.8,142.7 L243.9,145.5 Z" fill="#d6d2c9" stroke="#bab6ad" stroke-width="0.4"></path><path d="M259.8,11.9 L239.0,12.2 L238.8,3.1 L238.7,-5.8 L259.5,-6.2 L259.7,2.8 L259.8,11.9 Z" fill="#d6d2c9" stroke="#bab6ad" stroke-width="0.4"></path><path d="M212.5,70.4 L212.5,72.4 L219.6,72.1 L221.0,104.4 L202.1,105.2 L201.3,85.7 L205.1,85.6 L204.4,70.7 L212.5,70.4 Z" fill="#d6d2c9" stroke="#bab6ad" stroke-width="0.4"></path><path d="M93.5,197.2 L83.8,197.6 L83.2,159.1 L107.9,158.1 L108.1,163.9 L107.0,163.9 L108.1,191.5 L100.2,191.8 L100.3,194.3 L93.4,194.6 L93.5,197.2 Z" fill="#d6d2c9" stroke="#bab6ad" stroke-width="0.4"></path><path d="M121.0,-4.5 L122.8,4.0 L124.6,12.4 L88.5,20.3 L86.7,11.8 L84.9,3.2 L93.4,1.4 L92.3,-4.1 L98.7,-4.3 L105.1,-4.6 L105.9,-1.2 L121.0,-4.5 Z" fill="#d6d2c9" stroke="#bab6ad" stroke-width="0.4"></path><path d="M35.4,-31.8 L35.5,-28.5 L48.7,-28.9 L50.0,22.8 L39.0,23.1 L38.5,5.0 L26.1,5.3 L25.2,-31.5 L35.4,-31.8 Z" fill="#d6d2c9" stroke="#bab6ad" stroke-width="0.4"></path><path d="M49.5,125.0 L24.6,125.9 L23.7,100.3 L22.7,74.7 L47.6,73.7 L49.5,125.0 Z" fill="#d6d2c9" stroke="#bab6ad" stroke-width="0.4"></path><path d="M46.4,166.5 L46.7,180.5 L50.0,180.4 L50.4,197.0 L42.5,197.2 L42.6,199.6 L35.0,199.8 L35.0,202.2 L28.2,202.4 L28.1,198.0 L26.6,198.0 L26.2,181.0 L30.3,180.9 L29.9,166.9 L46.4,166.5 Z" fill="#d6d2c9" stroke="#bab6ad" stroke-width="0.4"></path><path d="M15.6,78.2 L16.5,108.1 L1.5,108.6 L1.0,90.4 L-6.6,90.6 L-6.9,80.9 L0.2,80.7 L0.1,78.7 L15.6,78.2 Z" fill="#d6d2c9" stroke="#bab6ad" stroke-width="0.4"></path><path d="M125.0,253.6 L125.1,255.8 L137.9,255.5 L138.5,276.5 L124.4,276.8 L124.9,292.9 L111.1,293.3 L110.5,270.8 L115.0,270.6 L114.6,253.9 L125.0,253.6 Z" fill="#d6d2c9" stroke="#bab6ad" stroke-width="0.4"></path><path d="M88.8,255.7 L88.9,257.5 L102.8,257.0 L102.8,258.3 L108.4,258.1 L109.2,277.0 L107.0,277.1 L107.4,287.5 L93.5,288.0 L93.6,289.3 L79.5,289.9 L78.2,256.2 L88.8,255.7 Z" fill="#d6d2c9" stroke="#bab6ad" stroke-width="0.4"></path><path d="M121.4,75.0 L121.6,80.4 L127.8,80.2 L128.0,86.5 L133.3,86.3 L133.7,100.1 L128.9,100.2 L129.3,112.9 L133.8,112.8 L134.2,125.5 L109.6,126.3 L108.2,80.8 L113.3,80.6 L113.1,75.3 L121.4,75.0 Z" fill="#d6d2c9" stroke="#bab6ad" stroke-width="0.4"></path><path d="M79.0,156.1 L80.3,198.2 L70.0,198.8 L69.8,191.0 L62.3,191.2 L62.5,199.2 L55.1,199.5 L53.9,161.8 L68.2,161.3 L68.1,156.5 L79.0,156.1 Z" fill="#d6d2c9" stroke="#bab6ad" stroke-width="0.4"></path><path d="M123.3,197.9 L112.3,198.2 L111.1,147.3 L134.7,146.7 L134.9,155.9 L135.2,165.0 L133.6,165.1 L134.4,197.6 L123.3,197.9 Z" fill="#d6d2c9" stroke="#bab6ad" stroke-width="0.4"></path><path d="M241.1,69.2 L241.1,70.9 L248.2,70.6 L249.0,96.0 L242.8,96.2 L243.0,103.4 L234.9,103.7 L234.6,96.3 L230.5,96.4 L230.1,84.4 L233.3,84.3 L232.8,69.5 L241.1,69.2 Z" fill="#d6d2c9" stroke="#bab6ad" stroke-width="0.4"></path><path d="M231.8,15.4 L208.1,16.2 L206.7,-24.5 L230.4,-25.4 L231.8,15.4 Z" fill="#d6d2c9" stroke="#bab6ad" stroke-width="0.4"></path><path d="M94.9,72.9 L95.3,80.8 L101.6,80.5 L102.8,108.3 L104.6,108.2 L104.8,113.2 L105.0,118.2 L93.5,118.7 L93.3,114.3 L82.1,114.8 L80.4,76.3 L86.6,76.0 L86.5,73.3 L90.7,73.1 L94.9,72.9 Z" fill="#d6d2c9" stroke="#bab6ad" stroke-width="0.4"></path><path d="M195.4,70.6 L196.8,101.0 L190.5,101.3 L190.8,107.8 L176.6,108.4 L176.4,104.6 L176.2,100.7 L177.9,100.7 L177.2,85.1 L172.8,85.3 L172.1,71.7 L195.4,70.6 Z" fill="#d6d2c9" stroke="#bab6ad" stroke-width="0.4"></path><path d="M60.3,75.9 L60.4,80.3 L67.1,80.1 L68.3,119.7 L53.1,120.1 L51.9,81.0 L53.1,80.9 L53.0,76.2 L60.3,75.9 Z" fill="#d6d2c9" stroke="#bab6ad" stroke-width="0.4"></path><path d="M69.0,-16.5 L69.0,-7.3 L79.9,-7.3 L80.0,31.8 L70.1,32.2 L60.4,32.6 L60.3,29.2 L55.2,29.2 L55.2,-16.5 L62.1,-16.5 L69.0,-16.5 Z" fill="#d6d2c9" stroke="#bab6ad" stroke-width="0.4"></path><path d="M71.9,255.8 L72.6,269.9 L65.4,270.2 L65.3,267.2 L61.0,267.4 L61.6,280.0 L45.6,280.7 L44.5,257.1 L71.9,255.8 Z" fill="#d6d2c9" stroke="#bab6ad" stroke-width="0.4"></path><path d="M219.8,278.9 L193.3,279.9 L192.8,266.9 L192.2,253.9 L218.7,252.9 L219.8,278.9 Z" fill="#d6d2c9" stroke="#bab6ad" stroke-width="0.4"></path><path d="M248.4,161.8 L249.4,183.2 L254.6,183.0 L255.1,192.3 L233.8,193.3 L233.5,188.0 L231.9,188.1 L230.7,162.6 L248.4,161.8 Z" fill="#d6d2c9" stroke="#bab6ad" stroke-width="0.4"></path><path d="M224.2,149.6 L224.3,155.7 L225.6,155.7 L225.8,166.6 L222.9,166.6 L223.4,191.9 L216.0,192.1 L216.1,194.1 L209.2,194.3 L209.0,179.7 L205.5,179.8 L205.4,171.4 L204.2,171.4 L204.1,164.6 L214.4,164.4 L214.1,149.8 L224.2,149.6 Z" fill="#d6d2c9" stroke="#bab6ad" stroke-width="0.4"></path><path d="M192.3,156.8 L192.9,169.0 L197.9,168.7 L199.1,195.3 L179.7,196.2 L178.0,157.4 L192.3,156.8 Z" fill="#d6d2c9" stroke="#bab6ad" stroke-width="0.4"></path><path d="M22.3,203.5 L-1.2,204.3 L-2.6,164.8 L20.9,163.9 L22.3,203.5 Z" fill="#d6d2c9" stroke="#bab6ad" stroke-width="0.4"></path><path d="M213.8,130.1 L199.0,130.5 L198.6,113.0 L213.4,112.7 L213.8,130.1 Z" fill="#d6d2c9" stroke="#bab6ad" stroke-width="0.4"></path><path d="M271.5,249.5 L271.8,259.4 L275.8,259.3 L276.7,286.9 L248.5,287.9 L248.2,280.2 L239.7,280.5 L239.5,275.5 L235.8,275.7 L235.0,253.3 L243.8,253.0 L243.9,255.0 L261.1,254.4 L261.0,249.9 L271.5,249.5 Z" fill="#d6d2c9" stroke="#bab6ad" stroke-width="0.4"></path><path d="M189.6,-43.2 L189.8,-36.3 L196.6,-36.5 L196.6,-34.1 L201.5,-34.3 L202.1,-14.6 L197.0,-14.4 L197.7,6.2 L173.5,7.0 L173.1,-7.0 L173.9,-11.6 L181.2,-11.9 L180.2,-42.9 L189.6,-43.2 Z" fill="#d6d2c9" stroke="#bab6ad" stroke-width="0.4"></path><path d="M266.2,67.8 L266.3,71.2 L273.3,71.0 L273.4,74.6 L280.1,74.5 L280.7,98.0 L276.4,98.2 L276.5,101.2 L270.0,101.4 L270.2,109.4 L255.9,109.8 L254.8,68.1 L266.2,67.8 Z" fill="#d6d2c9" stroke="#bab6ad" stroke-width="0.4"></path><path d="M491.7,17.2 L172.0,32.5 L167.1,31.5 L165.0,30.3 L163.9,27.8 L161.5,-45.0 L161.7,-49.4" fill="none" stroke="#cf828d" stroke-width="1.5" stroke-dasharray="1.6 3.0" opacity="0.62" stroke-linecap="round" stroke-linejoin="round"></path><path d="M456.8,199.5 L191.4,210.4 L182.9,209.6 L178.0,208.1 L173.3,206.0 L170.5,202.0 L169.0,197.6 L167.0,104.2 L166.1,71.2 L166.8,66.9 L167.8,64.7 L168.5,63.3 L171.4,59.9 L174.6,57.9 L178.2,56.9 L183.4,56.2 L451.5,44.9" fill="none" stroke="#cf828d" stroke-width="1.5" stroke-dasharray="1.6 3.0" opacity="0.62" stroke-linecap="round" stroke-linejoin="round"></path><path d="M176.4,370.8 L172.2,250.5 L172.7,244.9 L173.6,242.0 L174.4,240.8 L175.6,239.1 L178.5,237.4 L183.1,236.4 L502.7,223.2" fill="none" stroke="#cf828d" stroke-width="1.5" stroke-dasharray="1.6 3.0" opacity="0.62" stroke-linecap="round" stroke-linejoin="round"></path><path d="M-196.9,-41.0 L115.3,-53.5" fill="none" stroke="#cf828d" stroke-width="1.5" stroke-dasharray="1.6 3.0" opacity="0.62" stroke-linecap="round" stroke-linejoin="round"></path><path d="M134.2,-49.8 L135.5,-47.9 L136.4,-44.6 L139.3,32.6 L-189.4,49.7" fill="none" stroke="#cf828d" stroke-width="1.5" stroke-dasharray="1.6 3.0" opacity="0.62" stroke-linecap="round" stroke-linejoin="round"></path><path d="M142.5,32.7 L139.3,32.6 L139.5,36.8" fill="none" stroke="#cf828d" stroke-width="1.5" stroke-dasharray="1.6 3.0" opacity="0.62" stroke-linecap="round" stroke-linejoin="round"></path><path d="M139.5,36.8 L138.8,46.5 L137.9,57.6" fill="none" stroke="#cf828d" stroke-width="1.5" stroke-dasharray="1.6 3.0" opacity="0.62" stroke-linecap="round" stroke-linejoin="round"></path><path d="M142.5,32.7 L152.4,32.0 L161.7,31.5" fill="none" stroke="#cf828d" stroke-width="1.5" stroke-dasharray="1.6 3.0" opacity="0.62" stroke-linecap="round" stroke-linejoin="round"></path><path d="M161.7,31.5 L165.0,30.3 L164.4,35.0" fill="none" stroke="#cf828d" stroke-width="1.5" stroke-dasharray="1.6 3.0" opacity="0.62" stroke-linecap="round" stroke-linejoin="round"></path><path d="M164.5,61.0 L153.3,59.5 L137.9,57.6" fill="none" stroke="#cf828d" stroke-width="1.5" stroke-dasharray="1.6 3.0" opacity="0.62" stroke-linecap="round" stroke-linejoin="round"></path><path d="M164.4,35.0 L164.4,45.4 L164.5,61.0" fill="none" stroke="#cf828d" stroke-width="1.5" stroke-dasharray="1.6 3.0" opacity="0.62" stroke-linecap="round" stroke-linejoin="round"></path><path d="M164.5,61.0 L167.8,64.7" fill="none" stroke="#cf828d" stroke-width="1.5" stroke-dasharray="1.6 3.0" opacity="0.62" stroke-linecap="round" stroke-linejoin="round"></path><path d="M168.8,235.6 L174.4,240.8" fill="none" stroke="#cf828d" stroke-width="1.5" stroke-dasharray="1.6 3.0" opacity="0.62" stroke-linecap="round" stroke-linejoin="round"></path><path d="M173.3,206.0 L169.8,209.3" fill="none" stroke="#cf828d" stroke-width="1.5" stroke-dasharray="1.6 3.0" opacity="0.62" stroke-linecap="round" stroke-linejoin="round"></path><path d="M169.8,209.3 L169.2,224.0 L168.8,235.6" fill="none" stroke="#cf828d" stroke-width="1.5" stroke-dasharray="1.6 3.0" opacity="0.62" stroke-linecap="round" stroke-linejoin="round"></path><path d="M119.8,59.2 L124.7,59.2 L128.3,59.5 L132.0,60.6 L134.4,61.9 L135.1,62.3 L137.6,65.2 L139.7,68.9 L140.7,72.2 L140.9,76.4 L145.1,197.9 L144.8,201.2 L144.1,204.5 L142.3,206.9 L141.1,208.4 L140.1,209.5 L136.2,211.5 L132.0,212.2 L-185.9,226.5" fill="none" stroke="#cf828d" stroke-width="1.5" stroke-dasharray="1.6 3.0" opacity="0.62" stroke-linecap="round" stroke-linejoin="round"></path><path d="M-171.7,72.5 L119.8,59.2" fill="none" stroke="#cf828d" stroke-width="1.5" stroke-dasharray="1.6 3.0" opacity="0.62" stroke-linecap="round" stroke-linejoin="round"></path><path d="M134.4,61.9 L137.9,57.6" fill="none" stroke="#cf828d" stroke-width="1.5" stroke-dasharray="1.6 3.0" opacity="0.62" stroke-linecap="round" stroke-linejoin="round"></path><path d="M-89.1,247.9 L112.9,239.1 L136.0,238.1 L140.3,238.6 L143.5,240.4 L145.2,242.2 L147.0,245.2 L147.8,248.9 L150.6,356.9" fill="none" stroke="#cf828d" stroke-width="1.5" stroke-dasharray="1.6 3.0" opacity="0.62" stroke-linecap="round" stroke-linejoin="round"></path><path d="M141.1,208.4 L143.6,211.5" fill="none" stroke="#cf828d" stroke-width="1.5" stroke-dasharray="1.6 3.0" opacity="0.62" stroke-linecap="round" stroke-linejoin="round"></path><path d="M143.6,211.5 L146.8,225.7 L149.3,236.6" fill="none" stroke="#cf828d" stroke-width="1.5" stroke-dasharray="1.6 3.0" opacity="0.62" stroke-linecap="round" stroke-linejoin="round"></path><path d="M149.3,236.6 L145.2,242.2" fill="none" stroke="#cf828d" stroke-width="1.5" stroke-dasharray="1.6 3.0" opacity="0.62" stroke-linecap="round" stroke-linejoin="round"></path><path d="M457.2,211.7 L186.2,222.6 L169.2,224.0 L158.6,224.8 L146.8,225.7 L141.5,226.1 L-193.9,240.8" fill="none" stroke="#cec8bb" stroke-width="4.8" stroke-linecap="round" stroke-linejoin="round"/><path d="M457.2,211.7 L186.2,222.6 L169.2,224.0 L158.6,224.8 L146.8,225.7 L141.5,226.1 L-193.9,240.8" fill="none" stroke="#ffffff" stroke-width="3.7" stroke-linecap="round" stroke-linejoin="round"><title>Southwest 19th Street</title></path><path d="M451.1,32.2 L174.1,45.0 L164.4,45.4 L152.9,45.9 L138.8,46.5 L128.9,47.0 L-189.1,61.1" fill="none" stroke="#cec8bb" stroke-width="4.8" stroke-linecap="round" stroke-linejoin="round"/><path d="M451.1,32.2 L174.1,45.0 L164.4,45.4 L152.9,45.9 L138.8,46.5 L128.9,47.0 L-189.1,61.1" fill="none" stroke="#ffffff" stroke-width="3.7" stroke-linecap="round" stroke-linejoin="round"><title>Southwest 18th Street</title></path><path d="M149.0,-66.4 L152.4,32.0 L152.9,45.9 L153.3,59.5 L157.7,197.1 L158.6,224.8 L159.3,242.3 L164.5,389.0" fill="none" stroke="#cec8bb" stroke-width="4.8" stroke-linecap="round" stroke-linejoin="round"/><path d="M149.0,-66.4 L152.4,32.0 L152.9,45.9 L153.3,59.5 L157.7,197.1 L158.6,224.8 L159.3,242.3 L164.5,389.0" fill="none" stroke="#ffffff" stroke-width="3.7" stroke-linecap="round" stroke-linejoin="round"><title>Southwest 23rd Avenue</title></path><text x="78.7" y="228.9" transform="rotate(-2.5 78.7 228.9)" text-anchor="middle" dominant-baseline="central" font-family="Arial, sans-serif" font-size="8.3" textLength="111.6" lengthAdjust="spacing" font-weight="650" paint-order="stroke" stroke="#fffaf0" stroke-width="2.05" stroke-linejoin="round" fill="#695f54">Southwest 19th Street</text><text x="72.4" y="49.5" transform="rotate(-2.5 72.4 49.5)" text-anchor="middle" dominant-baseline="central" font-family="Arial, sans-serif" font-size="8.3" textLength="111.6" lengthAdjust="spacing" font-weight="650" paint-order="stroke" stroke="#fffaf0" stroke-width="2.05" stroke-linejoin="round" fill="#695f54">Southwest 18th Street</text><text x="155.5" y="128.3" transform="rotate(88.2 155.5 128.3)" text-anchor="middle" dominant-baseline="central" font-family="Arial, sans-serif" font-size="8.3" textLength="111.6" lengthAdjust="spacing" font-weight="650" paint-order="stroke" stroke="#fffaf0" stroke-width="2.05" stroke-linejoin="round" fill="#695f54">Southwest 23rd Avenue</text><text x="209.8" y="83.3" text-anchor="middle" font-family="Arial, sans-serif" font-size="6.5" textLength="18.0" lengthAdjust="spacing" font-weight="500" paint-order="stroke" stroke="#f3f5ee" stroke-width="1.55" stroke-linejoin="round" fill="#6f777a">2284</text><text x="98.5" y="181.2" text-anchor="middle" font-family="Arial, sans-serif" font-size="6.5" textLength="18.0" lengthAdjust="spacing" font-weight="500" paint-order="stroke" stroke="#f3f5ee" stroke-width="1.55" stroke-linejoin="round" fill="#6f777a">2311</text><text x="102.2" y="16.5" text-anchor="middle" font-family="Arial, sans-serif" font-size="6.5" textLength="18.0" lengthAdjust="spacing" font-weight="500" paint-order="stroke" stroke="#f3f5ee" stroke-width="1.55" stroke-linejoin="round" fill="#6f777a">2301</text><text x="33.6" y="99.9" text-anchor="middle" font-family="Arial, sans-serif" font-size="6.5" textLength="18.0" lengthAdjust="spacing" font-weight="500" paint-order="stroke" stroke="#f3f5ee" stroke-width="1.55" stroke-linejoin="round" fill="#6f777a">2328</text><text x="37.0" y="189.3" text-anchor="middle" font-family="Arial, sans-serif" font-size="6.5" textLength="18.0" lengthAdjust="spacing" font-weight="500" paint-order="stroke" stroke="#f3f5ee" stroke-width="1.55" stroke-linejoin="round" fill="#6f777a">2325</text><text x="124.0" y="94.5" text-anchor="middle" font-family="Arial, sans-serif" font-size="6.5" textLength="18.0" lengthAdjust="spacing" font-weight="500" paint-order="stroke" stroke="#f3f5ee" stroke-width="1.55" stroke-linejoin="round" fill="#6f777a">1800</text><text x="66.9" y="181.4" text-anchor="middle" font-family="Arial, sans-serif" font-size="6.5" textLength="18.0" lengthAdjust="spacing" font-weight="500" paint-order="stroke" stroke="#f3f5ee" stroke-width="1.55" stroke-linejoin="round" fill="#6f777a">2321</text><text x="127.4" y="171.7" text-anchor="middle" font-family="Arial, sans-serif" font-size="6.5" textLength="18.0" lengthAdjust="spacing" font-weight="500" paint-order="stroke" stroke="#f3f5ee" stroke-width="1.55" stroke-linejoin="round" fill="#6f777a">1850</text><text x="238.5" y="86.7" text-anchor="middle" font-family="Arial, sans-serif" font-size="6.5" textLength="18.0" lengthAdjust="spacing" font-weight="500" paint-order="stroke" stroke="#f3f5ee" stroke-width="1.55" stroke-linejoin="round" fill="#6f777a">2276</text><text x="94.4" y="94.9" text-anchor="middle" font-family="Arial, sans-serif" font-size="6.5" textLength="18.0" lengthAdjust="spacing" font-weight="500" paint-order="stroke" stroke="#f3f5ee" stroke-width="1.55" stroke-linejoin="round" fill="#6f777a">2310</text><text x="182.1" y="94.3" text-anchor="middle" font-family="Arial, sans-serif" font-size="6.5" textLength="18.0" lengthAdjust="spacing" font-weight="500" paint-order="stroke" stroke="#f3f5ee" stroke-width="1.55" stroke-linejoin="round" fill="#6f777a">2292</text><text x="58.4" y="89.3" text-anchor="middle" font-family="Arial, sans-serif" font-size="6.5" textLength="18.0" lengthAdjust="spacing" font-weight="500" paint-order="stroke" stroke="#f3f5ee" stroke-width="1.55" stroke-linejoin="round" fill="#6f777a">2312</text><text x="66.1" y="16.5" text-anchor="middle" font-family="Arial, sans-serif" font-size="6.5" textLength="18.0" lengthAdjust="spacing" font-weight="500" paint-order="stroke" stroke="#f3f5ee" stroke-width="1.55" stroke-linejoin="round" fill="#6f777a">2325</text><text x="241.0" y="181.5" text-anchor="middle" font-family="Arial, sans-serif" font-size="6.5" textLength="18.0" lengthAdjust="spacing" font-weight="500" paint-order="stroke" stroke="#f3f5ee" stroke-width="1.55" stroke-linejoin="round" fill="#6f777a">2277</text><text x="215.3" y="171.7" text-anchor="middle" font-family="Arial, sans-serif" font-size="6.5" textLength="18.0" lengthAdjust="spacing" font-weight="500" paint-order="stroke" stroke="#f3f5ee" stroke-width="1.55" stroke-linejoin="round" fill="#6f777a">2285</text><text x="190.0" y="173.9" text-anchor="middle" font-family="Arial, sans-serif" font-size="6.5" textLength="18.0" lengthAdjust="spacing" font-weight="500" paint-order="stroke" stroke="#f3f5ee" stroke-width="1.55" stroke-linejoin="round" fill="#6f777a">1835</text><text x="15.0" y="184.1" text-anchor="middle" font-family="Arial, sans-serif" font-size="6.5" textLength="18.0" lengthAdjust="spacing" font-weight="500" paint-order="stroke" stroke="#f3f5ee" stroke-width="1.55" stroke-linejoin="round" fill="#6f777a">2331</text><g opacity="0.56"><title>crossing</title><path d="M136.5,44.7 L141.1,44.7 M136.5,46.5 L141.1,46.5 M136.5,48.3 L141.1,48.3" stroke="#ffffff" stroke-width="2.1" stroke-linecap="round"/><path d="M136.5,44.7 L141.1,44.7 M136.5,46.5 L141.1,46.5 M136.5,48.3 L141.1,48.3" stroke="#59656a" stroke-width="0.85" stroke-linecap="round"/></g><g opacity="0.56"><title>crossing</title><path d="M150.1,30.2 L154.7,30.2 M150.1,32.0 L154.7,32.0 M150.1,33.8 L154.7,33.8" stroke="#ffffff" stroke-width="2.1" stroke-linecap="round"/><path d="M150.1,30.2 L154.7,30.2 M150.1,32.0 L154.7,32.0 M150.1,33.8 L154.7,33.8" stroke="#59656a" stroke-width="0.85" stroke-linecap="round"/></g><g opacity="0.56"><title>crossing</title><path d="M162.2,43.6 L166.7,43.6 M162.2,45.4 L166.7,45.4 M162.2,47.2 L166.7,47.2" stroke="#ffffff" stroke-width="2.1" stroke-linecap="round"/><path d="M162.2,43.6 L166.7,43.6 M162.2,45.4 L166.7,45.4 M162.2,47.2 L166.7,47.2" stroke="#59656a" stroke-width="0.85" stroke-linecap="round"/></g><g opacity="0.56"><title>crossing</title><path d="M151.0,57.7 L155.6,57.7 M151.0,59.5 L155.6,59.5 M151.0,61.3 L155.6,61.3" stroke="#ffffff" stroke-width="2.1" stroke-linecap="round"/><path d="M151.0,57.7 L155.6,57.7 M151.0,59.5 L155.6,59.5 M151.0,61.3 L155.6,61.3" stroke="#59656a" stroke-width="0.85" stroke-linecap="round"/></g><g opacity="0.56"><title>crossing</title><path d="M167.0,222.2 L171.5,222.2 M167.0,224.0 L171.5,224.0 M167.0,225.8 L171.5,225.8" stroke="#ffffff" stroke-width="2.1" stroke-linecap="round"/><path d="M167.0,222.2 L171.5,222.2 M167.0,224.0 L171.5,224.0 M167.0,225.8 L171.5,225.8" stroke="#59656a" stroke-width="0.85" stroke-linecap="round"/></g><g opacity="0.56"><title>crossing</title><path d="M144.6,223.9 L149.1,223.9 M144.6,225.7 L149.1,225.7 M144.6,227.5 L149.1,227.5" stroke="#ffffff" stroke-width="2.1" stroke-linecap="round"/><path d="M144.6,223.9 L149.1,223.9 M144.6,225.7 L149.1,225.7 M144.6,227.5 L149.1,227.5" stroke="#59656a" stroke-width="0.85" stroke-linecap="round"/></g></svg>