<svg xmlns="http://www.w3.org/2000/svg" width="256" height="256" viewBox="0 0 256 256"><rect width="256" height="256" fill="#f1efe7"/><path d="M85.4,7.6 L88.2,97.7 L114.6,96.9 L111.8,6.8 L85.4,7.6 Z" fill="#d6d2c9" stroke="#bab6ad" stroke-width="0.4"><title>Chevron</title></path><path d="M148.2,97.6 L133.7,98.1 L130.7,9.9 L145.3,9.4 L148.2,97.6 Z" fill="#d6d2c9" stroke="#bab6ad" stroke-width="0.4"></path><path d="M71.5,112.5 L33.7,113.5 L33.2,95.1 L71.0,94.1 L71.5,112.5 Z" fill="#d6d2c9" stroke="#bab6ad" stroke-width="0.4"></path><path d="M65.8,-13.7 L68.1,28.5 L68.4,29.6 L49.0,29.9 L48.2,-10.5 L58.7,-10.7 L58.6,-13.5 L65.8,-13.7 Z" fill="#d6d2c9" stroke="#bab6ad" stroke-width="0.4"></path><path d="M168.8,322.1 L163.9,175.1 L162.4,155.9" fill="none" stroke="#cf828d" stroke-width="1.5" stroke-dasharray="1.6 3.0" opacity="0.62" stroke-linecap="round" stroke-linejoin="round"></path><path d="M162.4,155.9 L161.9,144.5 L161.2,129.7" fill="none" stroke="#cf828d" stroke-width="1.5" stroke-dasharray="1.6 3.0" opacity="0.62" stroke-linecap="round" stroke-linejoin="round"></path><path d="M222.1,310.8 L216.5,162.8 L217.3,154.6" fill="none" stroke="#cf828d" stroke-width="1.5" stroke-dasharray="1.6 3.0" opacity="0.62" stroke-linecap="round" stroke-linejoin="round"></path><path d="M217.3,154.6 L217.6,141.5 L217.9,129.2" fill="none" stroke="#cf828d" stroke-width="1.5" stroke-dasharray="1.6 3.0" opacity="0.62" stroke-linecap="round" stroke-linejoin="round"></path><path d="M-60.3,140.1 L87.2,134.7 L146.6,132.6 L149.9,132.0 L153.2,130.8 L156.4,128.9 L158.4,126.9 L159.6,124.7 L161.5,120.4 L162.2,117.1 L162.2,113.7 L161.4,94.4 L158.1,-4.1 L157.1,-34.4 L155.7,-35.9 L153.7,-36.2 L123.3,-35.2 L119.9,-34.7 L115.6,-33.9 L111.6,-33.5 L108.5,-33.8 L105.7,-34.4 L81.3,-33.5 L75.4,-33.3" fill="none" stroke="#cf828d" stroke-width="1.5" stroke-dasharray="1.6 3.0" opacity="0.62" stroke-linecap="round" stroke-linejoin="round"></path><path d="M161.2,129.7 L158.4,126.9" fill="none" stroke="#cf828d" stroke-width="1.5" stroke-dasharray="1.6 3.0" opacity="0.62" stroke-linecap="round" stroke-linejoin="round"></path><path d="M192.1,115.0 L200.4,114.2 L212.4,113.2" fill="none" stroke="#cf828d" stroke-width="1.5" stroke-dasharray="1.6 3.0" opacity="0.62" stroke-linecap="round" stroke-linejoin="round"></path><path d="M164.7,117.0 L175.9,116.0 L184.4,115.3" fill="none" stroke="#cf828d" stroke-width="1.5" stroke-dasharray="1.6 3.0" opacity="0.62" stroke-linecap="round" stroke-linejoin="round"></path><path d="M184.4,115.3 L192.1,115.0" fill="none" stroke="#cf828d" stroke-width="1.5" stroke-dasharray="1.6 3.0" opacity="0.62" stroke-linecap="round" stroke-linejoin="round"></path><path d="M164.7,117.0 L162.2,117.1" fill="none" stroke="#cf828d" stroke-width="1.5" stroke-dasharray="1.6 3.0" opacity="0.62" stroke-linecap="round" stroke-linejoin="round"></path><path d="M390.5,119.2 L218.8,124.9 L215.8,123.7 L214.6,121.4 L214.3,113.1 L212.8,72.6 L206.2,-103.5" fill="none" stroke="#cf828d" stroke-width="1.5" stroke-dasharray="1.6 3.0" opacity="0.62" stroke-linecap="round" stroke-linejoin="round"></path><path d="M212.4,113.2 L214.3,113.1" fill="none" stroke="#cf828d" stroke-width="1.5" stroke-dasharray="1.6 3.0" opacity="0.62" stroke-linecap="round" stroke-linejoin="round"></path><path d="M217.9,129.2 L218.8,124.9" fill="none" stroke="#cf828d" stroke-width="1.5" stroke-dasharray="1.6 3.0" opacity="0.62" stroke-linecap="round" stroke-linejoin="round"></path><path d="M13.3,69.5 L-192.0,76.0" fill="none" stroke="#cec8bb" stroke-width="3.5" stroke-linecap="round" stroke-linejoin="round"/><path d="M13.3,69.5 L-192.0,76.0" fill="none" stroke="#ffffff" stroke-width="2.5" stroke-linecap="round" stroke-linejoin="round"></path><path d="M15.0,110.5 L13.3,69.5" fill="none" stroke="#cec8bb" stroke-width="3.5" stroke-linecap="round" stroke-linejoin="round"/><path d="M15.0,110.5 L13.3,69.5" fill="none" stroke="#ffffff" stroke-width="2.5" stroke-linecap="round" stroke-linejoin="round"></path><path d="M-189.3,118.4 L15.0,110.5" fill="none" stroke="#cec8bb" stroke-width="3.5" stroke-linecap="round" stroke-linejoin="round"/><path d="M-189.3,118.4 L15.0,110.5" fill="none" stroke="#ffffff" stroke-width="2.5" stroke-linecap="round" stroke-linejoin="round"></path><path d="M225.3,96.3 L225.3,72.0" fill="none" stroke="#cec8bb" stroke-width="3.5" stroke-linecap="round" stroke-linejoin="round"/><path d="M225.3,96.3 L225.3,72.0" fill="none" stroke="#ffffff" stroke-width="2.5" stroke-linecap="round" stroke-linejoin="round"></path><path d="M225.3,72.0 L255.9,71.3 L256.9,95.5 L225.3,96.3" fill="none" stroke="#cec8bb" stroke-width="3.5" stroke-linecap="round" stroke-linejoin="round"/><path d="M225.3,72.0 L255.9,71.3 L256.9,95.5 L225.3,96.3" fill="none" stroke="#ffffff" stroke-width="2.5" stroke-linecap="round" stroke-linejoin="round"></path><path d="M199.3,73.2 L212.8,72.6 L225.3,72.0" fill="none" stroke="#cec8bb" stroke-width="3.5" stroke-linecap="round" stroke-linejoin="round"/><path d="M199.3,73.2 L212.8,72.6 L225.3,72.0" fill="none" stroke="#ffffff" stroke-width="2.5" stroke-linecap="round" stroke-linejoin="round"></path><path d="M-82.3,31.0 L7.1,29.5 L6.0,-14.0 L-83.0,-11.5" fill="none" stroke="#cec8bb" stroke-width="3.5" stroke-linecap="round" stroke-linejoin="round"/><path d="M-82.3,31.0 L7.1,29.5 L6.0,-14.0 L-83.0,-11.5" fill="none" stroke="#ffffff" stroke-width="2.5" stroke-linecap="round" stroke-linejoin="round"></path><path d="M87.3,146.0 L87.2,134.7 L87.0,114.2 L82.6,-2.2 L81.3,-33.5 L80.9,-45.2" fill="none" stroke="#cec8bb" stroke-width="3.5" stroke-linecap="round" stroke-linejoin="round"/><path d="M87.3,146.0 L87.2,134.7 L87.0,114.2 L82.6,-2.2 L81.3,-33.5 L80.9,-45.2" fill="none" stroke="#ffffff" stroke-width="2.5" stroke-linecap="round" stroke-linejoin="round"></path><path d="M175.0,93.0 L161.4,94.4 L152.0,95.4 L140.8,107.8 L125.9,113.0 L122.2,114.2 L87.0,114.2" fill="none" stroke="#cec8bb" stroke-width="3.5" stroke-linecap="round" stroke-linejoin="round"/><path d="M175.0,93.0 L161.4,94.4 L152.0,95.4 L140.8,107.8 L125.9,113.0 L122.2,114.2 L87.0,114.2" fill="none" stroke="#ffffff" stroke-width="2.5" stroke-linecap="round" stroke-linejoin="round"></path><path d="M121.3,-3.2 L125.9,113.0" fill="none" stroke="#cec8bb" stroke-width="3.5" stroke-linecap="round" stroke-linejoin="round"/><path d="M121.3,-3.2 L125.9,113.0" fill="none" stroke="#ffffff" stroke-width="2.5" stroke-linecap="round" stroke-linejoin="round"></path><path d="M152.0,95.4 L148.8,-3.8" fill="none" stroke="#cec8bb" stroke-width="3.5" stroke-linecap="round" stroke-linejoin="round"/><path d="M152.0,95.4 L148.8,-3.8" fill="none" stroke="#ffffff" stroke-width="2.5" stroke-linecap="round" stroke-linejoin="round"></path><path d="M47.8,147.0 L11.7,148.0 L-188.0,154.2" fill="none" stroke="#cec8bb" stroke-width="4.8" stroke-linecap="round" stroke-linejoin="round"/><path d="M47.8,147.0 L11.7,148.0 L-188.0,154.2" fill="none" stroke="#ffffff" stroke-width="3.7" stroke-linecap="round" stroke-linejoin="round"><title>Northwest 41st Street</title></path><path d="M303.9,138.6 L226.0,141.1 L217.6,141.5 L201.1,141.6 L177.0,143.4" fill="none" stroke="#d1c4aa" stroke-width="7.3" stroke-linecap="round" stroke-linejoin="round"/><path d="M303.9,138.6 L226.0,141.1 L217.6,141.5 L201.1,141.6 L177.0,143.4" fill="none" stroke="#efb36f" stroke-width="5.9" stroke-linecap="round" stroke-linejoin="round"><title>Northwest 41st Street</title></path><path d="M207.1,333.8 L202.1,175.8 L201.1,141.6 L200.4,114.2 L199.3,73.2 L198.1,1.0 L197.1,-80.1" fill="none" stroke="#d1c4aa" stroke-width="7.3" stroke-linecap="round" stroke-linejoin="round"/><path d="M207.1,333.8 L202.1,175.8 L201.1,141.6 L200.4,114.2 L199.3,73.2 L198.1,1.0 L197.1,-80.1" fill="none" stroke="#efb36f" stroke-width="5.9" stroke-linecap="round" stroke-linejoin="round"><title>Northwest 27th Avenue</title></path><path d="M173.0,51.1 L175.0,93.0 L175.4,103.8 L175.9,116.0 L177.0,143.4" fill="none" stroke="#d1c4aa" stroke-width="7.3" stroke-linecap="round" stroke-linejoin="round"/><path d="M173.0,51.1 L175.0,93.0 L175.4,103.8 L175.9,116.0 L177.0,143.4" fill="none" stroke="#efb36f" stroke-width="5.9" stroke-linecap="round" stroke-linejoin="round"><title>Northwest 27th Avenue</title></path><path d="M198.1,1.0 L187.6,-16.1 L185.6,-25.8 L182.5,-34.5 L170.7,-48.0" fill="none" stroke="#d1c4aa" stroke-width="6.0" stroke-linecap="round" stroke-linejoin="round"/><path d="M198.1,1.0 L187.6,-16.1 L185.6,-25.8 L182.5,-34.5 L170.7,-48.0" fill="none" stroke="#efb36f" stroke-width="4.6" stroke-linecap="round" stroke-linejoin="round"></path><path d="M177.0,143.4 L161.9,144.5 L87.3,146.0 L47.8,147.0" fill="none" stroke="#d1c4aa" stroke-width="7.3" stroke-linecap="round" stroke-linejoin="round"/><path d="M177.0,143.4 L161.9,144.5 L87.3,146.0 L47.8,147.0" fill="none" stroke="#efb36f" stroke-width="5.9" stroke-linecap="round" stroke-linejoin="round"><title>Northwest 41st Street</title></path><path d="M177.0,143.4 L184.0,334.8" fill="none" stroke="#d1c4aa" stroke-width="7.3" stroke-linecap="round" stroke-linejoin="round"/><path d="M177.0,143.4 L184.0,334.8" fill="none" stroke="#efb36f" stroke-width="5.9" stroke-linecap="round" stroke-linejoin="round"><title>Northwest 27th Avenue</title></path><path d="M169.8,-17.9 L170.5,-4.4 L173.0,51.1" fill="none" stroke="#d1c4aa" stroke-width="7.3" stroke-linecap="round" stroke-linejoin="round"/><path d="M169.8,-17.9 L170.5,-4.4 L173.0,51.1" fill="none" stroke="#efb36f" stroke-width="5.9" stroke-linecap="round" stroke-linejoin="round"><title>Northwest 27th Avenue</title></path><path d="M47.8,147.0 L-31.4,167.0 L-90.5,178.7" fill="none" stroke="#d87a99" stroke-width="7.8" stroke-linecap="round" stroke-linejoin="round"/><path d="M47.8,147.0 L-31.4,167.0 L-90.5,178.7" fill="none" stroke="#e88fa8" stroke-width="6.0" stroke-linecap="round" stroke-linejoin="round"></path><path d="M47.8,147.0 L-31.4,167.0 L-90.5,178.7" fill="none" stroke="#fff8ef" stroke-width="1.5" stroke-dasharray="5.5 6.5" opacity="0.82" stroke-linecap="round" stroke-linejoin="round"/><path d="M-56.9,276.3 L-15.3,266.7 L143.1,255.5" fill="none" stroke="#d87a99" stroke-width="7.8" stroke-linecap="round" stroke-linejoin="round"/><path d="M-56.9,276.3 L-15.3,266.7 L143.1,255.5" fill="none" stroke="#e88fa8" stroke-width="6.0" stroke-linecap="round" stroke-linejoin="round"></path><path d="M-56.9,276.3 L-15.3,266.7 L143.1,255.5" fill="none" stroke="#fff8ef" stroke-width="1.5" stroke-dasharray="5.5 6.5" opacity="0.82" stroke-linecap="round" stroke-linejoin="round"/><path d="M143.1,255.5 L255.1,261.9" fill="none" stroke="#d87a99" stroke-width="11.0" stroke-linecap="round" stroke-linejoin="round"/><path d="M143.1,255.5 L255.1,261.9" fill="none" stroke="#e88fa8" stroke-width="9.2" stroke-linecap="round" stroke-linejoin="round"><title>Airport Expressway</title></path><path d="M143.1,255.5 L255.1,261.9" fill="none" stroke="#fff8ef" stroke-width="2.0" stroke-dasharray="5.5 6.5" opacity="0.82" stroke-linecap="round" stroke-linejoin="round"/><path d="M253.5,228.3 L143.1,221.9" fill="none" stroke="#d87a99" stroke-width="11.0" stroke-linecap="round" stroke-linejoin="round"/><path d="M253.5,228.3 L143.1,221.9" fill="none" stroke="#e88fa8" stroke-width="9.2" stroke-linecap="round" stroke-linejoin="round"><title>Airport Expressway</title></path><path d="M253.5,228.3 L143.1,221.9" fill="none" stroke="#fff8ef" stroke-width="2.0" stroke-dasharray="5.5 6.5" opacity="0.82" stroke-linecap="round" stroke-linejoin="round"/><path d="M143.1,221.9 L87.1,218.7 L-24.9,212.3 L-350.5,212.2" fill="none" stroke="#d87a99" stroke-width="11.0" stroke-linecap="round" stroke-linejoin="round"/><path d="M143.1,221.9 L87.1,218.7 L-24.9,212.3 L-350.5,212.2" fill="none" stroke="#e88fa8" stroke-width="9.2" stroke-linecap="round" stroke-linejoin="round"><title>Airport Expressway</title></path><path d="M143.1,221.9 L87.1,218.7 L-24.9,212.3 L-350.5,212.2" fill="none" stroke="#fff8ef" stroke-width="2.0" stroke-dasharray="5.5 6.5" opacity="0.82" stroke-linecap="round" stroke-linejoin="round"/><path d="M463.1,241.1 L253.5,228.3" fill="none" stroke="#d87a99" stroke-width="11.0" stroke-linecap="round" stroke-linejoin="round"/><path d="M463.1,241.1 L253.5,228.3" fill="none" stroke="#e88fa8" stroke-width="9.2" stroke-linecap="round" stroke-linejoin="round"><title>Airport Expressway</title></path><path d="M463.1,241.1 L253.5,228.3" fill="none" stroke="#fff8ef" stroke-width="2.0" stroke-dasharray="5.5 6.5" opacity="0.82" stroke-linecap="round" stroke-linejoin="round"/><path d="M-285.7,242.7 L-21.7,245.9 L85.5,250.7 L143.1,255.5" fill="none" stroke="#d87a99" stroke-width="11.0" stroke-linecap="round" stroke-linejoin="round"/><path d="M-285.7,242.7 L-21.7,245.9 L85.5,250.7 L143.1,255.5" fill="none" stroke="#e88fa8" stroke-width="9.2" stroke-linecap="round" stroke-linejoin="round"><title>Airport Expressway</title></path><path d="M-285.7,242.7 L-21.7,245.9 L85.5,250.7 L143.1,255.5" fill="none" stroke="#fff8ef" stroke-width="2.0" stroke-dasharray="5.5 6.5" opacity="0.82" stroke-linecap="round" stroke-linejoin="round"/><path d="M261.0,156.4 L222.2,155.9 L187.4,156.2 L56.8,158.7 L-1134.5,199.1" fill="none" stroke="#fbf8ef" stroke-width="7.2" stroke-linecap="round" stroke-linejoin="round"/><path d="M261.0,156.4 L222.2,155.9 L187.4,156.2 L56.8,158.7 L-1134.5,199.1" fill="none" stroke="#5a5796" stroke-width="5.0" stroke-linecap="round" stroke-linejoin="round"><title>Metrorail</title></path><path d="M256.4,160.5 L256.5,152.2" fill="none" stroke="#3f494e" stroke-width="0.9" stroke-linecap="round"/><path d="M247.3,160.4 L247.4,152.1" fill="none" stroke="#3f494e" stroke-width="0.9" stroke-linecap="round"/><path d="M238.2,160.2 L238.3,152.0" fill="none" stroke="#3f494e" stroke-width="0.9" stroke-linecap="round"/><path d="M229.1,160.1 L229.2,151.8" fill="none" stroke="#3f494e" stroke-width="0.9" stroke-linecap="round"/><path d="M217.7,160.1 L217.6,151.8" fill="none" stroke="#3f494e" stroke-width="0.9" stroke-linecap="round"/><path d="M208.6,160.1 L208.5,151.9" fill="none" stroke="#3f494e" stroke-width="0.9" stroke-linecap="round"/><path d="M199.5,160.2 L199.4,151.9" fill="none" stroke="#3f494e" stroke-width="0.9" stroke-linecap="round"/><path d="M182.9,160.4 L182.7,152.1" fill="none" stroke="#3f494e" stroke-width="0.9" stroke-linecap="round"/><path d="M173.8,160.6 L173.6,152.3" fill="none" stroke="#3f494e" stroke-width="0.9" stroke-linecap="round"/><path d="M164.7,160.7 L164.5,152.5" fill="none" stroke="#3f494e" stroke-width="0.9" stroke-linecap="round"/><path d="M155.6,160.9 L155.4,152.6" fill="none" stroke="#3f494e" stroke-width="0.9" stroke-linecap="round"/><path d="M146.5,161.1 L146.3,152.8" fill="none" stroke="#3f494e" stroke-width="0.9" stroke-linecap="round"/><path d="M137.4,161.3 L137.3,153.0" fill="none" stroke="#3f494e" stroke-width="0.9" stroke-linecap="round"/><path d="M128.3,161.4 L128.2,153.2" fill="none" stroke="#3f494e" stroke-width="0.9" stroke-linecap="round"/><path d="M119.2,161.6 L119.1,153.3" fill="none" stroke="#3f494e" stroke-width="0.9" stroke-linecap="round"/><path d="M110.1,161.8 L110.0,153.5" fill="none" stroke="#3f494e" stroke-width="0.9" stroke-linecap="round"/><path d="M101.0,162.0 L100.9,153.7" fill="none" stroke="#3f494e" stroke-width="0.9" stroke-linecap="round"/><path d="M91.9,162.1 L91.8,153.9" fill="none" stroke="#3f494e" stroke-width="0.9" stroke-linecap="round"/><path d="M82.8,162.3 L82.7,154.0" fill="none" stroke="#3f494e" stroke-width="0.9" stroke-linecap="round"/><path d="M73.7,162.5 L73.6,154.2" fill="none" stroke="#3f494e" stroke-width="0.9" stroke-linecap="round"/><path d="M64.6,162.7 L64.5,154.4" fill="none" stroke="#3f494e" stroke-width="0.9" stroke-linecap="round"/><path d="M52.4,163.0 L52.1,154.7" fill="none" stroke="#3f494e" stroke-width="0.9" stroke-linecap="round"/><path d="M43.3,163.3 L43.0,155.0" fill="none" stroke="#3f494e" stroke-width="0.9" stroke-linecap="round"/><path d="M34.2,163.6 L33.9,155.3" fill="none" stroke="#3f494e" stroke-width="0.9" stroke-linecap="round"/><path d="M25.1,163.9 L24.8,155.6" fill="none" stroke="#3f494e" stroke-width="0.9" stroke-linecap="round"/><path d="M16.0,164.2 L15.7,155.9" fill="none" stroke="#3f494e" stroke-width="0.9" stroke-linecap="round"/><path d="M6.9,164.5 L6.6,156.2" fill="none" stroke="#3f494e" stroke-width="0.9" stroke-linecap="round"/><path d="M-2.2,164.8 L-2.5,156.6" fill="none" stroke="#3f494e" stroke-width="0.9" stroke-linecap="round"/><path d="M-11.3,165.1 L-11.6,156.9" fill="none" stroke="#3f494e" stroke-width="0.9" stroke-linecap="round"/><path d="M261.0,156.4 L222.2,155.9 L187.4,156.2 L56.8,158.7 L-1134.5,199.1" fill="none" stroke="#ffffff" stroke-width="3.1" stroke-linecap="round" stroke-linejoin="round"/><path d="M-1133.6,207.7 L55.8,167.4 L85.1,167.1 L111.5,167.3 L141.7,168.2 L194.8,170.9 L228.3,173.2 L258.5,176.2 L314.3,183.2" fill="none" stroke="#fbf8ef" stroke-width="7.2" stroke-linecap="round" stroke-linejoin="round"/><path d="M-1133.6,207.7 L55.8,167.4 L85.1,167.1 L111.5,167.3 L141.7,168.2 L194.8,170.9 L228.3,173.2 L258.5,176.2 L314.3,183.2" fill="none" stroke="#5a5796" stroke-width="5.0" stroke-linecap="round" stroke-linejoin="round"><title>Metrorail</title></path><path d="M-19.7,165.8 L-19.4,174.1" fill="none" stroke="#3f494e" stroke-width="0.9" stroke-linecap="round"/><path d="M-10.6,165.5 L-10.3,173.7" fill="none" stroke="#3f494e" stroke-width="0.9" stroke-linecap="round"/><path d="M-1.5,165.2 L-1.2,173.4" fill="none" stroke="#3f494e" stroke-width="0.9" stroke-linecap="round"/><path d="M7.6,164.9 L7.9,173.1" fill="none" stroke="#3f494e" stroke-width="0.9" stroke-linecap="round"/><path d="M16.7,164.5 L17.0,172.8" fill="none" stroke="#3f494e" stroke-width="0.9" stroke-linecap="round"/><path d="M25.8,164.2 L26.1,172.5" fill="none" stroke="#3f494e" stroke-width="0.9" stroke-linecap="round"/><path d="M34.9,163.9 L35.2,172.2" fill="none" stroke="#3f494e" stroke-width="0.9" stroke-linecap="round"/><path d="M44.0,163.6 L44.3,171.9" fill="none" stroke="#3f494e" stroke-width="0.9" stroke-linecap="round"/><path d="M60.4,163.2 L60.4,171.5" fill="none" stroke="#3f494e" stroke-width="0.9" stroke-linecap="round"/><path d="M69.5,163.1 L69.5,171.4" fill="none" stroke="#3f494e" stroke-width="0.9" stroke-linecap="round"/><path d="M78.6,163.0 L78.6,171.3" fill="none" stroke="#3f494e" stroke-width="0.9" stroke-linecap="round"/><path d="M89.7,163.0 L89.6,171.3" fill="none" stroke="#3f494e" stroke-width="0.9" stroke-linecap="round"/><path d="M98.8,163.1 L98.7,171.4" fill="none" stroke="#3f494e" stroke-width="0.9" stroke-linecap="round"/><path d="M116.2,163.3 L115.9,171.6" fill="none" stroke="#3f494e" stroke-width="0.9" stroke-linecap="round"/><path d="M125.3,163.6 L125.0,171.9" fill="none" stroke="#3f494e" stroke-width="0.9" stroke-linecap="round"/><path d="M134.4,163.9 L134.1,172.1" fill="none" stroke="#3f494e" stroke-width="0.9" stroke-linecap="round"/><path d="M146.5,164.3 L146.1,172.6" fill="none" stroke="#3f494e" stroke-width="0.9" stroke-linecap="round"/><path d="M155.6,164.8 L155.2,173.1" fill="none" stroke="#3f494e" stroke-width="0.9" stroke-linecap="round"/><path d="M164.7,165.2 L164.3,173.5" fill="none" stroke="#3f494e" stroke-width="0.9" stroke-linecap="round"/><path d="M173.8,165.7 L173.3,174.0" fill="none" stroke="#3f494e" stroke-width="0.9" stroke-linecap="round"/><path d="M182.8,166.2 L182.4,174.4" fill="none" stroke="#3f494e" stroke-width="0.9" stroke-linecap="round"/><path d="M199.6,167.1 L199.0,175.3" fill="none" stroke="#3f494e" stroke-width="0.9" stroke-linecap="round"/><path d="M208.7,167.7 L208.1,176.0" fill="none" stroke="#3f494e" stroke-width="0.9" stroke-linecap="round"/><path d="M217.8,168.3 L217.2,176.6" fill="none" stroke="#3f494e" stroke-width="0.9" stroke-linecap="round"/><path d="M233.2,169.5 L232.4,177.8" fill="none" stroke="#3f494e" stroke-width="0.9" stroke-linecap="round"/><path d="M242.3,170.4 L241.5,178.7" fill="none" stroke="#3f494e" stroke-width="0.9" stroke-linecap="round"/><path d="M251.3,171.3 L250.5,179.6" fill="none" stroke="#3f494e" stroke-width="0.9" stroke-linecap="round"/><path d="M263.5,172.7 L262.5,180.9" fill="none" stroke="#3f494e" stroke-width="0.9" stroke-linecap="round"/><path d="M272.5,173.8 L271.5,182.0" fill="none" stroke="#3f494e" stroke-width="0.9" stroke-linecap="round"/><path d="M-1133.6,207.7 L55.8,167.4 L85.1,167.1 L111.5,167.3 L141.7,168.2 L194.8,170.9 L228.3,173.2 L258.5,176.2 L314.3,183.2" fill="none" stroke="#ffffff" stroke-width="3.1" stroke-linecap="round" stroke-linejoin="round"/><path d="M324.6,-2.9 L296.1,-38.2 L269.7,-76.1" fill="none" stroke="#fbf8ef" stroke-width="7.2" stroke-linecap="round" stroke-linejoin="round"/><path d="M324.6,-2.9 L296.1,-38.2 L269.7,-76.1" fill="none" stroke="#5a5796" stroke-width="5.0" stroke-linecap="round" stroke-linejoin="round"><title>Metrorail</title></path><path d="M324.6,-2.9 L296.1,-38.2 L269.7,-76.1" fill="none" stroke="#ffffff" stroke-width="3.1" stroke-linecap="round" stroke-linejoin="round"/><path d="M260.9,-70.6 L288.0,-32.0 L316.8,4.7" fill="none" stroke="#fbf8ef" stroke-width="7.2" stroke-linecap="round" stroke-linejoin="round"/><path d="M260.9,-70.6 L288.0,-32.0 L316.8,4.7" fill="none" stroke="#5a5796" stroke-width="5.0" stroke-linecap="round" stroke-linejoin="round"><title>Metrorail</title></path><path d="M260.9,-70.6 L288.0,-32.0 L316.8,4.7" fill="none" stroke="#ffffff" stroke-width="3.1" stroke-linecap="round" stroke-linejoin="round"/><g transform="translate(192.6 224.8) rotate(-176.7)"><path d="M -3.6 -3.2 L 4.4 0 L -3.6 3.2 Z" fill="#58656d" opacity="0.46"/></g><g transform="translate(50.6 216.6) rotate(-176.7)"><path d="M -3.6 -3.2 L 4.4 0 L -3.6 3.2 Z" fill="#58656d" opacity="0.46"/></g><g transform="translate(124.6 145.2) rotate(178.9)"><path d="M -3.6 -3.2 L 4.4 0 L -3.6 3.2 Z" fill="#58656d" opacity="0.46"/></g><g transform="translate(178.8 192.7) rotate(87.9)"><path d="M -3.6 -3.2 L 4.4 0 L -3.6 3.2 Z" fill="#58656d" opacity="0.46"/></g><text x="100.0" y="52.2" text-anchor="middle" font-family="Arial, sans-serif" font-size="7.4" font-weight="600" paint-order="stroke" stroke="#eee9df" stroke-width="1.65" stroke-linejoin="round" fill="#5d5349" textLength="33.2" lengthAdjust="spacing">Chevron</text><g><rect x="170.1" y="217.2" width="41.0" height="15.0" rx="3" fill="#f7fbff" stroke="#4f78a7" stroke-width="1"/><text x="190.6" y="225.1" text-anchor="middle" dominant-baseline="central" font-family="Arial, sans-serif" font-size="8.2" font-weight="700" fill="#315d8b">SR 112</text></g><g><rect x="32.1" y="209.2" width="41.0" height="15.0" rx="3" fill="#f7fbff" stroke="#4f78a7" stroke-width="1"/><text x="52.6" y="217.1" text-anchor="middle" dominant-baseline="central" font-family="Arial, sans-serif" font-size="8.2" font-weight="700" fill="#315d8b">SR 112</text></g><g><rect x="188.1" y="199.9" width="30.0" height="14.0" rx="3" fill="#ffffff" stroke="#8a8f96" stroke-width="1"/><text x="203.1" y="207.3" text-anchor="middle" dominant-baseline="central" font-family="Arial, sans-serif" font-size="8" font-weight="700" fill="#56616a">SR 9</text></g><g><rect x="163.7" y="183.7" width="30.0" height="14.0" rx="3" fill="#ffffff" stroke="#8a8f96" stroke-width="1"/><text x="178.7" y="191.1" text-anchor="middle" dominant-baseline="central" font-family="Arial, sans-serif" font-size="8" font-weight="700" fill="#56616a">SR 9</text></g><text x="124.6" y="145.2" transform="rotate(-1.1 124.6 145.2)" text-anchor="middle" dominant-baseline="central" font-family="Arial, sans-serif" font-size="8.3" textLength="111.6" lengthAdjust="spacing" font-weight="650" paint-order="stroke" stroke="#fffaf0" stroke-width="2.05" stroke-linejoin="round" fill="#6f573d">Northwest 41st Street</text><text x="59.5" y="16.5" text-anchor="middle" font-family="Arial, sans-serif" font-size="6.5" textLength="18.0" lengthAdjust="spacing" font-weight="500" paint-order="stroke" stroke="#f3f5ee" stroke-width="1.55" stroke-linejoin="round" fill="#6f777a">2728</text><text x="139.7" y="61.5" text-anchor="middle" font-family="Arial, sans-serif" font-size="6.5" textLength="18.0" lengthAdjust="spacing" font-weight="500" paint-order="stroke" stroke="#f3f5ee" stroke-width="1.55" stroke-linejoin="round" fill="#6f777a">4100</text><text x="53.8" y="103.8" text-anchor="middle" font-family="Arial, sans-serif" font-size="6.5" textLength="18.0" lengthAdjust="spacing" font-weight="500" paint-order="stroke" stroke="#f3f5ee" stroke-width="1.55" stroke-linejoin="round" fill="#6f777a">2711</text><text x="90.1" y="16.5" text-anchor="middle" font-family="Arial, sans-serif" font-size="6.5" textLength="18.0" lengthAdjust="spacing" font-weight="500" paint-order="stroke" stroke="#f3f5ee" stroke-width="1.55" stroke-linejoin="round" fill="#6f777a">4196</text><text x="92.6" y="86.2" text-anchor="middle" font-family="Arial, sans-serif" font-size="6.5" textLength="18.0" lengthAdjust="spacing" font-weight="500" paint-order="stroke" stroke="#f3f5ee" stroke-width="1.55" stroke-linejoin="round" fill="#6f777a">2701</text><g><title>signal</title><rect x="172.7" y="98.6" width="5.4" height="10.4" rx="2.1" fill="#3f4b52" stroke="#ffffff" stroke-width="1.1"/><circle cx="175.4" cy="101.0" r="1.1" fill="#d85a4f"/><circle cx="175.4" cy="103.8" r="1.1" fill="#e2b84b"/><circle cx="175.4" cy="106.6" r="1.1" fill="#55a86b"/></g><g><title>signal</title><rect x="199.4" y="170.6" width="5.4" height="10.4" rx="2.1" fill="#3f4b52" stroke="#ffffff" stroke-width="1.1"/><circle cx="202.1" cy="173.0" r="1.1" fill="#d85a4f"/><circle cx="202.1" cy="175.8" r="1.1" fill="#e2b84b"/><circle cx="202.1" cy="178.6" r="1.1" fill="#55a86b"/></g><g><title>signal</title><rect x="223.3" y="135.9" width="5.4" height="10.4" rx="2.1" fill="#3f4b52" stroke="#ffffff" stroke-width="1.1"/><circle cx="226.0" cy="138.3" r="1.1" fill="#d85a4f"/><circle cx="226.0" cy="141.1" r="1.1" fill="#e2b84b"/><circle cx="226.0" cy="143.9" r="1.1" fill="#55a86b"/></g><g><title>Subway</title><circle cx="104.3" cy="79.7" r="5.2" fill="#c97924" stroke="#ffffff" stroke-width="1.7"/><path d="M101.9,76.4 L101.9,82.7 M100.7,76.4 L103.2,76.4 M106.4,76.4 L106.4,82.7 M106.4,76.4 C108.2,77.9 107.8,80.0 106.4,80.2" stroke="#ffffff" stroke-width="1.26" stroke-linecap="round" stroke-linejoin="round" fill="none"/></g><g opacity="0.56"><title>crossing</title><path d="M173.6,114.2 L178.2,114.2 M173.6,116.0 L178.2,116.0 M173.6,117.8 L178.2,117.8" stroke="#ffffff" stroke-width="2.1" stroke-linecap="round"/><path d="M173.6,114.2 L178.2,114.2 M173.6,116.0 L178.2,116.0 M173.6,117.8 L178.2,117.8" stroke="#59656a" stroke-width="0.85" stroke-linecap="round"/></g><g opacity="0.56"><title>crossing</title><path d="M198.1,112.4 L202.6,112.4 M198.1,114.2 L202.6,114.2 M198.1,116.0 L202.6,116.0" stroke="#ffffff" stroke-width="2.1" stroke-linecap="round"/><path d="M198.1,112.4 L202.6,112.4 M198.1,114.2 L202.6,114.2 M198.1,116.0 L202.6,116.0" stroke="#59656a" stroke-width="0.85" stroke-linecap="round"/></g></svg>