<svg xmlns="http://www.w3.org/2000/svg" width="256" height="256" viewBox="0 0 256 256"><rect width="256" height="256" fill="#f1efe7"/><path d="M-746.8,5399.5 L-1291.0,4997.8 L-1334.5,4965.8 L-1381.7,4955.5 L-1415.0,4927.5 L-1441.6,4924.4 L-1527.6,4930.1 L-1527.5,4922.0 L-1532.3,4914.4 L-1541.9,4908.5 L-1728.7,4827.6 L-1741.4,4821.8 L-1752.5,4818.6 L-1766.3,4817.5 L-1780.2,4817.2 L-1826.6,4817.2 L-1838.9,4816.5 L-1851.0,4814.1 L-1863.8,4809.1 L-1879.2,4805.0 L-1890.4,4804.0 L-1923.3,4802.6 L-1934.3,4800.6 L-1948.3,4796.1 L-1962.0,4792.6 L-1975.3,4789.5 L-1985.7,4785.3 L-1998.3,4777.5 L-2009.5,4769.1 L-2020.4,4760.9 L-2029.3,4756.7 L-2036.1,4755.3 L-2042.2,4755.7 L-2048.7,4757.5 L-2056.3,4761.4 L-2062.3,4768.0 L-2070.4,4775.9 L-2079.4,4784.2 L-2089.6,4789.8 L-2102.5,4794.0 L-2113.2,4796.6 L-2126.1,4798.6 L-2147.7,4801.1 L-2201.9,4803.7 L-2247.9,4806.0 L-2267.7,4813.1 L-2308.3,4814.5 L-2313.8,4806.0 L-2319.9,4802.1 L-2326.2,4800.9 L-2370.0,4803.4 L-2389.0,4810.2 L-2412.3,4810.4 L-2428.0,4808.1 L-2440.9,4804.2 L-2488.0,4807.0 L-2612.6,4816.7 L-2641.3,4817.5 L-2651.1,4817.3 L-2659.9,4815.1 L-2670.1,4810.0 L-2677.6,4804.0 L-2710.0,4804.1 L-2737.1,4803.7 L-2744.4,4808.2 L-2781.7,4809.1 L-2786.5,4817.0 L-2791.8,4817.2 L-2801.0,4815.0 L-2817.5,4813.0 L-2834.5,4813.9 L-2839.7,4815.5 L-2845.0,4814.6 L-2848.6,4811.1 L-2854.7,4807.6 L-2877.4,4807.7 L-2900.3,4808.9 L-2922.0,4821.7 L-2932.7,4826.8 L-2944.9,4829.5 L-2955.0,4830.2 L-2964.1,4828.8 L-2985.1,4819.8 L-2997.1,4816.0 L-3007.3,4814.5 L-3052.0,4815.1 L-3054.8,4809.7 L-3094.3,4810.6 L-3121.5,4815.6 L-3139.4,4817.7 L-3149.0,4819.8 L-3152.7,4817.3 L-3159.5,4816.4 L-3223.2,4810.6 L-3228.7,4813.6 L-3235.4,4815.0 L-3244.2,4815.1 L-3244.2,4811.9 L-3283.7,4804.5 L-3308.6,4799.7 L-3368.8,4779.5 L-3372.1,4784.0 L-3412.3,4771.6 L-3420.7,4768.8 L-3416.6,4754.8 L-3421.4,4753.3 L-3422.4,4751.8 L-3425.0,4751.0 L-3428.6,4750.5 L-3433.0,4748.3 L-3431.5,4747.0 L-3449.3,4732.5 L-3478.9,4705.7 L-3494.8,4691.7 L-3506.1,4679.4 L-3512.4,4671.1 L-3521.8,4658.3 L-3527.2,4648.4 L-3544.0,4627.3 L-3545.6,4626.1 L-3546.7,4626.0 L-3547.9,4626.2 L-3550.1,4626.3 L-3552.1,4625.3 L-3556.3,4622.6 L-3564.9,4618.1 L-3569.1,4614.5 L-3574.0,4610.2 L-3580.7,4606.6 L-3591.2,4603.3 L-3602.3,4601.3 L-3611.8,4601.1 L-3609.1,4575.9 L-3606.9,4543.0 L-3596.6,4544.0 L-3586.3,4545.8 L-3572.8,4549.8 L-3562.9,4553.5 L-3554.0,4557.6 L-3545.4,4561.6 L-3537.3,4566.2 L-3530.7,4571.3 L-3521.9,4578.1 L-3512.7,4585.0 L-3510.6,4586.3 L-3508.7,4586.7 L-3483.5,4585.6 L-3483.2,4591.3 L-3484.7,4593.8 L-3503.6,4595.6 L-3498.8,4605.4 L-3495.5,4604.2 L-3492.5,4607.2 L-3490.6,4610.1 L-3489.0,4612.3 L-3485.1,4617.5 L-3483.6,4623.2 L-3477.5,4631.6 L-3463.1,4640.7 L-3445.2,4649.8 L-3423.8,4663.3 L-3414.0,4667.9 L-3393.4,4679.6 L-3383.7,4684.7 L-3366.0,4691.2 L-3331.2,4700.5 L-3310.8,4705.4 L-3292.2,4707.3 L-3282.3,4708.6 L-3280.1,4708.4 L-3279.2,4707.1 L-3278.9,4700.5 L-3255.8,4700.5 L-3255.3,4707.9 L-3206.9,4710.4 L-3159.7,4711.8 L-3127.6,4710.6 L-3117.0,4709.8 L-3109.3,4708.8 L-3103.0,4707.0 L-3097.2,4703.5 L-3094.3,4698.8 L-3095.4,4621.3 L-3075.9,4620.2 L-3074.2,4695.8 L-3073.1,4697.7 L-3069.2,4700.4 L-3064.7,4701.7 L-2961.3,4701.9 L-2961.8,4668.6 L-2953.7,4668.4 L-2950.3,4701.9 L-2886.5,4701.3 L-2886.5,4697.7 L-2880.2,4697.6 L-2880.0,4700.2 L-2454.5,4692.1 L-2423.7,4688.5 L-2386.1,4687.4 L-2350.5,4692.1 L-2338.6,4691.1 L-2329.9,4689.4 L-2321.8,4686.5 L-2311.3,4682.5 L-2097.4,4678.7 L-2097.5,4663.9 L-1977.8,4661.8 L-1977.7,4678.1 L-1926.9,4679.9 L-1923.0,4679.8 L-1919.4,4679.5 L-1914.7,4678.9 L-1910.9,4677.9 L-1907.2,4676.7 L-1900.9,4673.7 L-1898.0,4678.7 L-1891.8,4674.8 L-1886.1,4670.2 L-1881.3,4665.2 L-1877.1,4659.3 L-1873.2,4652.0 L-1880.5,4647.9 L-1878.5,4641.8 L-1877.2,4635.5 L-1876.5,4629.5 L-1876.4,4624.8 L-1876.6,4620.4 L-1877.3,4582.5 L-1883.4,4576.9 L-1878.2,4571.4 L-1883.5,4566.8 L-1877.5,4559.7 L-1884.0,4554.0 L-1878.8,4548.5 L-1884.0,4543.5 L-1877.9,4537.0 L-1884.2,4530.6 L-1871.1,4516.2 L-1868.8,4516.1 L-1874.5,4301.6 L-1826.4,4300.5 L-1824.1,4301.7 L-1821.5,4303.7 L-1819.6,4305.4 L-1818.8,4307.4 L-1818.1,4309.8 L-1817.9,4312.2 L-1813.8,4645.5 L-1811.9,4656.3 L-1809.2,4663.6 L-1805.0,4672.6 L-1800.1,4681.4 L-1795.0,4688.4 L-1790.9,4692.7 L-1786.5,4696.1 L-1781.4,4699.1 L-1776.1,4701.1 L-1768.9,4703.2 L-1760.0,4704.9 L-1749.2,4706.9 L-1736.6,4709.2 L-1724.6,4711.8 L-1711.3,4714.2 L-1698.7,4716.9 L-1694.7,4717.7 L-1689.8,4718.7 L-1685.0,4719.3 L-1680.8,4719.4 L-1676.0,4719.4 L-1672.3,4719.2 L-1668.6,4718.5 L-1665.4,4717.7 L-1662.0,4716.7 L-1659.1,4715.4 L-1653.3,4712.6 L-1648.2,4709.6 L-1643.1,4705.9 L-1637.2,4700.2 L-1631.7,4694.0 L-1628.7,4688.7 L-1626.0,4682.2 L-1624.6,4676.9 L-1623.8,4671.2 L-1623.3,4665.8 L-1623.3,4660.8 L-1630.6,4303.6 L-1620.2,4292.9 L-1616.4,4292.5 L-1614.9,4291.1 L-1593.2,4290.5 L-1591.3,4287.3 L-1588.0,4288.2 L-1582.5,4293.3 L-1578.7,4298.6 L-1574.9,4305.2 L-1567.7,4704.4 L-1567.0,4711.4 L-1565.7,4725.3 L-1564.4,4728.1 L-1565.4,4728.8 L-1563.6,4732.7 L-1561.3,4737.3 L-1559.3,4740.2 L-1556.9,4743.7 L-1553.6,4747.5 L-1549.7,4751.5 L-1545.0,4755.5 L-1540.8,4758.6 L-1536.2,4761.1 L-1531.8,4763.3 L-1527.1,4764.8 L-1526.5,4763.4 L-1460.3,4787.4 L-1452.0,4790.5 L-1448.2,4791.9 L-1442.3,4794.0 L-1438.0,4795.0 L-1434.3,4795.5 L-1430.9,4795.5 L-1426.1,4795.1 L-1420.9,4794.6 L-1416.3,4793.6 L-1411.6,4792.3 L-1408.1,4790.9 L-1404.4,4789.2 L-1401.4,4787.3 L-1397.6,4784.5 L-1392.8,4780.3 L-1388.4,4776.0 L-1383.6,4770.0 L-1380.2,4764.4 L-1377.4,4758.2 L-1375.4,4751.3 L-1374.2,4744.3 L-1373.5,4731.8 L-1373.8,4706.3 L-1381.1,4300.2 L-1381.1,4295.7 L-1380.3,4292.5 L-1378.9,4289.9 L-1376.0,4287.5 L-1372.7,4285.8 L-1369.0,4285.2 L-1338.9,4284.2 L-1335.3,4284.8 L-1332.1,4286.2 L-1329.8,4288.4 L-1327.2,4292.2 L-1325.7,4297.6 L-1324.8,4304.9 L-1317.3,4825.8 L-1316.9,4828.9 L-1316.3,4832.0 L-1315.4,4835.2 L-1314.3,4838.7 L-1313.1,4842.2 L-1311.7,4845.4 L-1310.5,4848.1 L-1309.2,4850.5 L-1307.3,4853.5 L-1305.2,4856.1 L-1303.3,4858.5 L-1300.4,4861.6 L-1297.6,4864.3 L-1294.5,4866.8 L-1291.2,4869.3 L-1282.0,4875.1 L-1281.1,4874.0 L-1273.0,4878.5 L-1263.4,4883.7 L-1257.9,4886.7 L-1251.8,4890.3 L-1245.5,4894.0 L-1239.0,4898.0 L-1231.7,4902.5 L-1224.5,4907.0 L-1217.3,4911.3 L-1211.3,4915.0 L-1204.6,4919.3 L-1197.5,4923.9 L-1190.7,4928.4 L-1184.4,4932.7 L-1185.1,4933.6 L-1176.3,4939.7 L-1167.2,4945.8 L-1164.4,4947.5 L-1161.3,4949.2 L-1156.9,4951.3 L-1152.8,4952.8 L-1148.4,4954.0 L-1144.5,4955.0 L-1139.9,4955.7 L-1134.8,4956.3 L-1130.4,4956.3 L-1126.7,4956.0 L-1123.5,4955.3 L-1119.4,4954.2 L-1115.3,4952.9 L-1111.5,4951.6 L-1108.0,4949.9 L-1104.4,4948.0 L-1100.9,4945.8 L-1097.3,4943.0 L-1094.1,4940.1 L-1091.0,4937.0 L-1088.1,4933.8 L-1085.1,4929.4 L-1082.6,4925.0 L-1080.2,4920.1 L-1078.8,4916.3 L-1077.7,4912.3 L-1076.9,4908.0 L-1076.5,4903.7 L-1076.8,4898.8 L-1136.1,4331.1 L-1132.0,4330.7 L-1135.3,4302.3 L-1138.3,4302.5 L-1140.7,4289.4 L-1139.9,4286.7 L-1137.4,4282.7 L-1132.3,4278.8 L-1125.6,4278.0 L-1098.7,4277.1 L-1094.2,4278.0 L-1091.1,4279.5 L-1087.8,4282.1 L-1085.5,4284.5 L-1083.9,4287.0 L-1018.9,4923.9 L-1017.4,4929.4 L-1014.6,4936.2 L-1012.2,4940.6 L-1009.6,4945.3 L-1006.2,4949.9 L-1003.4,4953.1 L-1000.3,4956.3 L-996.9,4959.0 L-993.9,4961.1 L-989.7,4963.8 L-986.0,4965.7 L-981.1,4967.8 L-976.5,4969.2 L-971.3,4970.3 L-967.3,4970.9 L-963.8,4971.0 L-959.7,4971.1 L-818.5,4968.2 L-813.9,4967.6 L-809.5,4965.5 L-806.3,4962.6 L-804.1,4958.2 L-803.3,4954.2 L-803.5,4950.2 L-875.0,4268.1 L-938.0,4185.9 L-940.8,4188.2 L-995.6,4111.7 L-996.6,4095.5 L-998.3,4092.1 L-1001.2,4089.0 L-1004.9,4083.8 L-1005.2,4076.2 L-1011.7,4073.7 L-1018.0,4073.6 L-1026.5,4077.8 L-1016.9,4095.8 L-1029.0,4101.6 L-1038.1,4093.2 L-1045.9,4088.4 L-1051.2,4086.6 L-1064.2,4086.1 L-1070.8,4072.7 L-1029.3,4055.7 L-1031.3,4052.3 L-1040.1,4040.5 L-1041.5,4041.2 L-1350.4,3636.7 L-1355.1,3570.0 L-1352.6,3569.4 L-1364.5,3447.1 L-1369.1,3435.8 L-1374.1,3423.1 L-1377.9,3413.3 L-1382.5,3400.8 L-1397.5,3358.7 L-1403.6,3361.4 L-1412.5,3327.3 L-1411.0,3327.0 L-1442.1,3242.7 L-1445.5,3095.3 L-1441.9,3095.3 L-1441.4,3082.4 L-1439.6,3069.7 L-1438.9,3065.0 L-1440.2,3061.2 L-1436.0,3041.1 L-1397.7,2973.3 L-1417.8,2961.1 L-1402.9,2936.4 L-1383.5,2947.8 L-1381.8,2945.2 L-1375.7,2948.3 L-1369.1,2950.9 L-1361.5,2953.3 L-1355.8,2954.5 L-1350.4,2954.7 L-1344.0,2953.6 L-1337.7,2951.5 L-1331.5,2949.1 L-1328.6,2946.0 L-1327.5,2941.9 L-1326.0,2937.0 L-1325.7,2935.0 L-1325.8,2932.5 L-1327.2,2928.6 L-1329.8,2924.9 L-1332.8,2922.8 L-1337.2,2918.6 L-1341.0,2914.6 L-1346.6,2911.0 L-1348.9,2905.3 L-1351.6,2899.6 L-1355.9,2892.9 L-1360.8,2887.1 L-1369.8,2880.7 L-1413.4,2858.1 L-1439.2,2845.3 L-1463.3,2832.3 L-1486.2,2819.6 L-1501.0,2810.0 L-1506.7,2808.5 L-1513.0,2810.4 L-1516.5,2814.7 L-1523.6,2832.4 L-1567.7,2812.6 L-1541.3,2770.9 L-1535.5,2768.2 L-1528.4,2766.8 L-1520.1,2768.6 L-1354.4,2865.5 L-1345.4,2868.2 L-1336.0,2870.5 L-1322.7,2870.8 L-1309.2,2868.4 L-1300.6,2864.9 L-1291.2,2857.3 L-1285.7,2852.0 L-1279.8,2843.7 L-1279.9,2842.6 L-1280.3,2841.6 L-1281.2,2840.8 L-1334.8,2807.7 L-1336.1,2807.3 L-1337.5,2807.2 L-1338.9,2807.3 L-1344.0,2809.5 L-1345.9,2809.7 L-1348.0,2809.5 L-1351.1,2809.0 L-1353.5,2808.3 L-1356.9,2806.6 L-1360.2,2804.7 L-1433.9,2759.7 L-1468.6,2735.3 L-1471.9,2734.8 L-1475.2,2734.9 L-1479.1,2735.0 L-1481.7,2734.6 L-1483.9,2733.6 L-1486.5,2731.6 L-1489.4,2729.3 L-1491.4,2726.5 L-1492.6,2723.7 L-1492.8,2721.6 L-1492.5,2718.9 L-1492.0,2716.6 L-1480.2,2696.8 L-1480.2,2695.9 L-1481.1,2695.2 L-1491.9,2687.6 L-1494.0,2684.5 L-1492.8,2682.6 L-1489.3,2683.1 L-1485.5,2684.2 L-1463.3,2697.9 L-1337.5,2778.2 L-1334.9,2779.7 L-1333.1,2781.6 L-1331.9,2783.8 L-1330.6,2788.4 L-1329.7,2792.0 L-1329.2,2795.1 L-1272.4,2829.2 L-1270.4,2830.1 L-1268.0,2830.3 L-1265.2,2829.9 L-1263.2,2829.2 L-1261.5,2828.4 L-1200.4,2729.5 L-1174.8,2691.9 L-1150.9,2665.0 L-1138.8,2671.7 L-1131.0,2659.1 L-1172.5,2634.3 L-1163.7,2619.9 L-1122.2,2644.9 L-1112.9,2629.7 L-1120.4,2621.3 L-1112.8,2612.6 L-1104.6,2622.0 L-1102.6,2620.5 L-1100.3,2618.9 L-1097.1,2617.1 L-1093.8,2615.5 L-1089.7,2614.0 L-1085.8,2612.9 L-1081.6,2612.2 L-1077.4,2611.9 L-1073.4,2612.0 L-1069.5,2612.6 L-1065.8,2613.5 L-1062.7,2614.4 L-1060.0,2615.6 L-1056.2,2617.4 L-1052.7,2619.6 L-1049.7,2621.7 L-1046.7,2624.4 L-1044.0,2627.0 L-1041.0,2630.9 L-1038.9,2634.4 L-1036.8,2638.9 L-1035.4,2643.4 L-1034.2,2649.6 L-1033.8,2655.0 L-1033.9,2658.1 L-1034.3,2661.3 L-1035.4,2666.1 L-1038.2,2672.7 L-1040.0,2677.0 L-1042.5,2682.1 L-1032.1,2687.3 L-983.5,2629.3 L-1072.0,2575.5 L-1067.5,2565.9 L-1064.3,2557.0 L-1064.1,2553.2 L-1059.0,2542.3 L-1048.5,2532.6 L-1035.5,2522.0 L-1020.0,2512.1 L-990.9,2503.6 L-940.7,2498.6 L-920.9,2482.6 L-916.8,2481.9 L-913.5,2481.7 L-908.8,2483.5 L-904.5,2484.0 L-876.6,2500.9 L-803.2,2413.8 L-1072.2,2242.8 L-1088.9,2269.1 L-1125.2,2246.1 L-1073.7,2165.1 L-1037.5,2187.5 L-1053.6,2215.1 L-779.9,2387.6 L-745.4,2343.3 L-721.0,2314.3 L-688.8,2265.9 L-671.0,2241.5 L-672.8,2227.6 L-672.3,2227.2 L-675.5,2216.9 L-677.6,2210.5 L-679.6,2203.9 L-682.0,2198.2 L-686.6,2190.7 L-691.2,2183.4 L-693.2,2179.6 L-694.7,2175.8 L-695.8,2172.3 L-696.2,2169.2 L-696.7,2159.0 L-814.9,2050.5 L-818.8,2054.7 L-822.1,2051.9 L-831.7,2061.4 L-838.0,2053.0 L-830.4,2044.2 L-838.0,2034.5 L-843.2,2035.9 L-848.6,2036.1 L-853.5,2035.2 L-857.8,2033.4 L-862.8,2029.7 L-869.0,2023.6 L-879.9,2011.6 L-883.2,2006.5 L-884.4,2000.1 L-883.6,1992.5 L-880.7,1985.5 L-878.2,1980.7 L-873.4,1975.9 L-868.1,1972.3 L-863.0,1970.4 L-859.2,1969.8 L-854.2,1970.7 L-849.1,1972.5 L-844.3,1976.3 L-833.2,1986.3 L-827.5,1991.7 L-822.3,1997.4 L-820.6,2000.1 L-819.4,2003.0 L-818.7,2005.6 L-818.2,2009.2 L-818.8,2012.6 L-819.8,2015.8 L-821.2,2018.2 L-821.6,2019.3 L-821.3,2020.7 L-820.5,2022.1 L-693.6,2141.0 L-689.2,2144.0 L-686.1,2145.3 L-681.7,2144.3 L-676.5,2143.9 L-669.9,2146.7 L-663.3,2150.8 L-650.4,2158.1 L-645.0,2160.7 L-640.1,2155.9 L-634.7,2150.7 L-631.1,2146.6 L-625.1,2138.8 L-621.7,2134.1 L-618.1,2128.3 L-615.8,2123.2 L-613.3,2117.8 L-611.0,2112.1 L-608.9,2106.3 L-607.7,2101.4 L-606.3,2095.2 L-605.7,2091.5 L-605.3,2088.5 L-604.6,2083.2 L-603.9,2078.0 L-603.6,2074.6 L-603.4,2070.9 L-603.4,2066.6 L-603.6,2063.0 L-604.3,2058.0 L-605.1,2052.3 L-605.9,2047.0 L-606.4,2042.7 L-607.0,2039.5 L-607.7,2036.1 L-608.5,2032.7 L-609.7,2028.7 L-611.1,2024.7 L-612.2,2022.3 L-613.4,2019.9 L-615.1,2017.6 L-617.4,2014.3 L-619.9,2011.2 L-622.6,2008.6 L-626.0,2005.8 L-629.5,2003.6 L-633.0,2001.7 L-636.2,2000.5 L-638.4,1999.8 L-640.9,1999.5 L-643.9,1999.6 L-646.7,2000.2 L-648.9,2001.1 L-651.0,2002.6 L-652.5,2004.2 L-653.7,2005.7 L-654.6,2008.0 L-655.1,2010.5 L-655.0,2013.5 L-654.8,2017.0 L-654.8,2019.6 L-655.0,2022.2 L-655.4,2024.8 L-655.9,2027.1 L-656.8,2029.5 L-658.2,2032.1 L-659.9,2034.6 L-661.6,2036.9 L-663.3,2038.5 L-666.7,2041.2 L-669.5,2043.1 L-673.9,2044.4 L-676.5,2045.0 L-679.5,2045.4 L-682.2,2045.5 L-685.8,2045.3 L-688.4,2044.8 L-692.0,2044.0 L-697.0,2042.5 L-701.2,2040.9 L-704.3,2039.7 L-707.6,2037.9 L-710.5,2035.9 L-713.7,2033.4 L-716.2,2031.1 L-718.3,2029.0 L-720.5,2026.4 L-722.3,2024.0 L-724.0,2021.6 L-725.5,2018.9 L-727.1,2015.3 L-728.5,2012.0 L-729.9,2008.4 L-730.8,2005.6 L-731.5,2003.0 L-732.0,2000.3 L-732.4,1996.1 L-732.7,1992.4 L-732.5,1988.4 L-731.6,1983.1 L-730.1,1977.9 L-728.2,1972.5 L-726.9,1970.0 L-725.6,1968.5 L-715.3,1955.4 L-712.9,1952.7 L-709.8,1951.2 L-706.5,1950.0 L-702.8,1949.2 L-698.7,1948.7 L-695.1,1948.5 L-691.5,1948.6 L-687.9,1949.0 L-683.8,1950.2 L-679.5,1952.3 L-675.8,1954.6 L-672.5,1957.2 L-662.1,1966.8 L-659.6,1967.6 L-658.2,1967.9 L-656.5,1967.5 L-655.4,1967.1 L-654.0,1965.5 L-653.4,1963.9 L-653.3,1961.7 L-653.2,1959.7 L-653.6,1958.8 L-674.6,1938.0 L-646.0,1907.5 L-647.6,1903.9 L-631.1,1887.6 L-599.3,1919.4 L-624.9,1952.0 L-625.1,1953.9 L-623.8,1954.7 L-622.2,1954.3 L-594.1,1919.1 L-585.9,1909.2 L-585.6,1906.9 L-586.3,1904.9 L-587.8,1903.1 L-609.8,1882.3 L-604.3,1875.9 L-609.9,1871.2 L-606.7,1863.8 L-549.7,1806.5 L-530.1,1803.2 L-524.0,1802.3 L-518.2,1801.5 L-515.5,1800.8 L-512.3,1799.1 L-508.5,1797.0 L-505.6,1794.1 L-502.8,1790.6 L-473.7,1748.3 L-473.1,1747.2 L-473.4,1745.8 L-473.8,1744.8 L-474.5,1743.9 L-478.0,1741.7 L-478.9,1741.2 L-479.7,1741.3 L-480.6,1741.8 L-482.5,1743.2 L-506.9,1766.0 L-516.4,1772.8 L-555.4,1732.8 L-550.9,1718.6 L-549.0,1714.4 L-542.9,1703.2 L-535.8,1690.7 L-531.5,1685.9 L-523.8,1677.7 L-515.6,1668.7 L-506.6,1659.2 L-498.9,1652.6 L-495.2,1649.3 L-490.3,1645.7 L-485.8,1643.3 L-479.4,1640.4 L-475.4,1639.0 L-471.4,1637.8 L-468.3,1637.5 L-463.9,1637.8 L-460.2,1638.3 L-456.0,1639.5 L-451.9,1642.9 L-449.4,1646.4 L-447.9,1650.0 L-447.3,1655.4 L-447.5,1662.5 L-448.4,1670.5 L-450.1,1678.2 L-460.4,1701.2 L-470.2,1721.9 L-466.8,1727.4 L-465.0,1728.5 L-463.1,1728.5 L-461.4,1728.1 L-460.1,1727.3 L-453.4,1717.8 L-444.8,1713.5 L-427.7,1667.8 L-426.5,1665.5 L-424.8,1663.5 L-423.1,1662.6 L-421.5,1662.2 L-419.2,1662.2 L-416.8,1662.8 L-404.3,1666.3 L-401.9,1666.8 L-399.1,1666.9 L-396.5,1666.5 L-394.4,1665.6 L-392.6,1664.2 L-390.8,1661.9 L-369.8,1633.8 L-368.8,1631.7 L-368.3,1629.5 L-368.3,1627.4 L-368.7,1625.2 L-369.5,1623.6 L-370.7,1622.0 L-372.1,1620.7 L-374.1,1619.7 L-376.0,1619.2 L-377.9,1619.1 L-379.5,1619.4 L-381.4,1620.3 L-382.8,1621.3 L-383.9,1622.7 L-389.4,1631.6 L-390.6,1633.3 L-392.0,1634.9 L-394.1,1636.7 L-396.0,1637.8 L-398.3,1638.5 L-401.1,1639.1 L-402.7,1639.1 L-404.9,1638.8 L-406.8,1638.3 L-408.4,1637.6 L-425.6,1622.0 L-427.6,1619.6 L-429.1,1617.4 L-430.5,1614.7 L-431.4,1612.4 L-432.0,1610.0 L-432.5,1607.4 L-432.8,1604.2 L-432.9,1601.0 L-432.6,1598.3 L-432.2,1596.0 L-431.7,1594.0 L-430.9,1592.3 L-399.6,1542.6 L-397.6,1539.3 L-396.4,1537.6 L-395.0,1536.8 L-392.7,1535.8 L-390.3,1535.1 L-388.0,1534.7 L-386.7,1534.7 L-385.4,1534.9 L-384.3,1535.3 L-382.7,1536.1 L-380.8,1537.3 L-377.6,1539.9 L-363.3,1553.3 L-360.9,1556.7 L-359.5,1560.0 L-358.2,1563.9 L-357.8,1566.9 L-357.6,1570.1 L-357.6,1572.8 L-357.9,1575.5 L-358.4,1578.2 L-359.0,1580.0 L-360.6,1583.7 L-366.3,1594.3 L-366.9,1596.7 L-366.9,1599.6 L-366.7,1601.8 L-365.9,1603.5 L-364.4,1605.1 L-362.0,1606.8 L-360.0,1607.9 L-357.7,1608.4 L-355.0,1608.3 L-352.8,1607.8 L-350.3,1606.5 L-348.1,1604.5 L-311.1,1553.7 L-322.4,1543.5 L-315.6,1536.2 L-305.5,1545.9 L-284.7,1518.6 L-253.2,1476.5 L-380.0,1355.0 L-407.5,1383.9 L-439.8,1353.4 L-408.6,1319.8 L-412.7,1315.3 L-406.2,1309.3 L-402.2,1313.4 L-380.5,1289.8 L-361.0,1307.9 L-358.7,1322.9 L-276.7,1399.4 L-260.7,1405.6 L-247.9,1401.1 L-223.6,1410.8 L-207.5,1404.9 L-159.6,1346.4 L-156.9,1340.9 L-156.1,1333.5 L-158.5,1326.2 L-161.7,1321.0 L-190.1,1294.8 L-189.7,1287.6 L-184.1,1273.5 L-172.9,1252.6 L-195.0,1238.3 L-186.6,1235.1 L-181.3,1231.7 L-176.0,1225.7 L-169.8,1209.8 L-158.4,1180.8 L-151.0,1174.0 L-221.2,1106.0 L-236.6,1115.6 L-240.2,1116.5 L-243.6,1116.6 L-248.0,1116.1 L-251.6,1115.1 L-255.1,1113.0 L-258.0,1110.5 L-294.3,1075.5 L-301.1,1068.7 L-304.1,1065.1 L-306.6,1060.6 L-307.8,1056.5 L-308.3,1052.5 L-308.2,1048.7 L-307.5,1045.1 L-306.6,1042.2 L-305.4,1040.1 L-302.8,1036.4 L-299.7,1032.7 L-283.4,1015.8 L-159.4,1130.7 L-167.9,1140.3 L-76.0,1227.2 L29.9,1072.1 L-37.3,1009.3 L-45.9,1017.0 L-171.4,898.5 L-155.0,883.2 L-82.9,950.8 L-75.7,940.2 L-71.7,934.9 L-66.6,929.7 L-60.7,923.2 L-54.7,919.3 L-45.2,911.3 L-35.7,902.5 L-17.5,885.3 L26.0,836.4 L33.8,828.3 L62.5,813.6 L89.7,792.3 L92.3,790.3 L99.4,784.8 L102.5,782.0 L105.0,778.8 L106.7,775.5 L107.8,772.2 L109.1,769.7 L110.6,767.0 L113.2,762.7 L115.0,760.0 L116.8,757.5 L120.1,754.9 L123.3,752.7 L126.8,750.6 L135.1,746.6 L143.1,742.6 L144.3,742.4 L145.5,742.6 L147.9,743.3 L154.4,746.6 L159.3,749.0 L161.6,750.4 L163.7,752.1 L197.1,783.8 L199.4,785.1 L210.3,788.0 L213.8,789.0 L217.7,789.4 L220.7,789.3 L223.0,788.5 L225.3,786.9 L237.2,770.1 L237.2,767.8 L236.8,765.7 L235.5,763.4 L233.5,761.2 L224.4,752.7 L225.1,751.3 L236.8,726.5 L256.8,686.2 L275.0,672.8 L285.5,662.3 L292.7,654.0 L300.3,646.3 L308.7,639.4 L313.8,634.7 L319.2,629.8 L323.2,625.8 L325.2,622.2 L326.8,619.4 L327.8,616.7 L328.2,613.5 L328.4,610.3 L334.5,604.1 L343.5,595.6 L358.5,583.3 L374.2,571.4 L381.2,561.6 L383.8,551.5 L391.6,546.7 L401.4,546.5 L411.3,540.6 L420.0,524.9 L419.8,508.6 L421.4,483.4 L423.9,479.8 L425.4,477.4 L428.2,472.8 L424.7,462.1 L428.7,457.1 L448.5,432.6 L482.5,392.9 L489.0,383.5 L491.6,378.6 L502.4,363.7 L505.4,354.3 L505.5,339.8 L505.1,325.3 L505.0,310.5 L509.4,294.2 L516.8,278.1 L527.4,262.6 L535.1,251.1 L544.2,239.6 L561.8,220.0 L639.8,181.4 L650.1,178.7 L652.7,184.3 L655.8,189.7 L656.8,190.7 L658.5,190.0 L658.8,186.2 L657.6,183.0 L661.9,181.7 L677.9,177.0 L698.7,170.8 L715.5,165.8 L721.5,164.0 L715.5,145.1 L725.9,142.3 L743.2,139.9 L745.3,139.6 L745.4,138.4 L745.4,134.0 L761.1,133.3 L785.7,132.3 L795.2,136.9 L818.9,222.3 L824.2,227.4 L813.9,238.0 L823.0,247.0 L832.0,256.0 L842.8,245.0 L1043.3,435.6 L1310.9,150.0 L1404.4,239.4 L1408.0,238.3 L1409.4,239.9 L1415.7,235.9 L1420.9,234.0 L1426.4,231.5 L1435.8,226.6 L1441.6,223.3 L1448.5,219.3 L1454.9,215.3 L1460.1,211.9 L1464.9,208.8 L1470.5,204.7 L1476.9,200.0 L1481.8,195.9 L1487.0,191.3 L1492.7,185.9 L1498.1,180.5 L1510.7,167.1 L1518.3,158.0 L1525.7,148.1 L1530.8,140.9 L1535.6,133.5 L1541.3,123.2 L1546.3,113.1 L1550.3,104.8 L1553.7,96.5 L1555.8,91.0 L1558.1,84.8 L1563.5,78.1 L1392.5,-84.6 L1394.6,-86.9 L1415.1,-108.9 L1430.0,-124.7 L1431.5,-126.3 L1474.9,-85.7 L1485.4,-91.1 L1486.6,-89.6 L1588.6,-142.7 L1592.8,-144.9 L1595.7,-147.2 L1598.4,-149.7 L1601.5,-152.9 L1604.5,-157.4 L1607.1,-161.6 L1608.8,-164.8 L1610.0,-168.9 L1611.1,-173.4 L1611.6,-178.3 L1611.6,-183.8 L1611.2,-188.2 L1610.4,-192.1 L1609.1,-196.8 L1577.2,-288.6 L1572.9,-303.7 L1574.0,-308.9 L1497.0,-328.0 L1500.6,-341.3 L1503.6,-353.3 L1526.4,-443.5 L1508.7,-496.1 L1498.3,-530.1 L1495.3,-538.6 L1522.9,-563.9 L1554.0,-580.6 L1555.9,-578.0 L1558.9,-573.7 L1565.9,-564.6 L1566.7,-565.4 L1566.9,-568.5 L1557.2,-581.9 L1574.5,-594.3 L1578.3,-596.5 L1587.3,-584.8 L1588.8,-583.7 L1590.3,-583.4 L1591.1,-583.6 L1591.1,-584.4 L1548.3,-643.0 L1545.2,-646.4 L1541.6,-651.3 L1523.0,-673.8 L1538.9,-723.1 L1551.1,-735.8 L1565.2,-742.4 L1595.2,-760.2 L1601.4,-766.6 L1628.3,-790.2 L1636.8,-781.3 L1661.7,-754.4 L1684.8,-773.8 L1700.3,-758.9 L1714.2,-745.3 L1714.9,-744.6 L1726.7,-754.7 L1742.3,-738.1 L1755.7,-720.9 L1765.6,-709.4 L1766.9,-707.9 L1795.7,-733.2 L1797.2,-734.5 L1790.4,-742.8 L1806.1,-755.7 L1853.7,-700.2 L1894.2,-726.9 L1898.2,-730.7 L1915.8,-738.1 L1919.8,-742.0 L1923.6,-747.0 L1945.3,-766.3 L1940.4,-773.0 L1901.6,-764.1 L1857.2,-814.6 L1862.3,-819.0 L1869.0,-811.2 L1900.4,-838.2 L1933.7,-801.8 L1942.7,-798.2 L1948.1,-795.1 L1954.9,-787.4 L1958.6,-790.7 L1934.5,-818.1 L1949.3,-830.9 L1979.2,-795.0 L1983.0,-797.8 L1982.6,-798.6 L2048.2,-846.0 L2067.7,-860.4 L2004.0,-940.0 L2017.6,-949.5 L2073.0,-884.6 L2113.9,-877.1 L2140.9,-892.9 L2144.7,-895.3 L2144.5,-898.3 L2142.6,-901.8 L2163.7,-915.1 L2169.9,-908.9 L2187.7,-919.4 L2174.8,-935.4 L2112.5,-1018.7 L2156.5,-1064.3 L2185.4,-1107.0 L2186.1,-1140.4 L2170.7,-1184.8 L2203.1,-1211.8 L2237.1,-1224.9 L2248.3,-1227.5 L2257.3,-1228.7 L2268.3,-1228.0 L2279.7,-1225.2 L2296.2,-1211.1 L2339.0,-1158.9 L2373.2,-1115.5 L2414.1,-1088.2 L2430.2,-1085.6 L2444.6,-1083.9 L2456.8,-1083.4 L2472.4,-1084.5 L2489.3,-1087.3 L2503.0,-1091.2 L2514.6,-1096.6 L2522.3,-1101.1 L2528.0,-1107.1 L2537.6,-1118.7 L2548.0,-1137.7 L2559.3,-1162.9 L2579.4,-1152.6 L2587.4,-1149.9 L2596.0,-1148.7 L2609.7,-1149.6 L2618.8,-1152.3 L2629.2,-1156.8 L2638.9,-1162.4 L2649.2,-1172.4 L2658.0,-1180.4 L2669.0,-1187.9 L2676.6,-1192.8 L2687.8,-1196.8 L2707.1,-1202.4 L2718.5,-1205.6 L2730.7,-1210.2 L2741.3,-1215.7 L2747.6,-1219.3 L2752.6,-1224.5 L2818.0,-1257.3 L2820.5,-1258.7 L2823.4,-1260.5 L2826.4,-1262.8 L2830.8,-1265.3 L2833.7,-1266.7 L2836.8,-1269.4 L2839.2,-1271.9 L2842.4,-1274.0 L2845.8,-1276.4 L2850.3,-1280.6 L2856.7,-1281.1 L2863.3,-1281.9 L2867.6,-1283.3 L2873.2,-1285.9 L2880.1,-1289.0 L2887.4,-1293.5 L2891.5,-1297.4 L2896.1,-1302.7 L2899.0,-1307.6 L2900.6,-1312.1 L2900.7,-1315.3 L2900.8,-1317.9 L2902.4,-1328.3 L2938.8,-1349.4 L3002.6,-1386.2 L3015.0,-1393.3 L3123.2,-1455.7 L3240.4,-1523.0 L3290.3,-1551.6 L3307.6,-1561.3 L3452.5,-1645.5 L3484.7,-1663.2 L3484.2,-1664.3 L3550.5,-1701.8 L3576.0,-1716.1 L3623.0,-1742.1 L3623.5,-1741.4 L3641.7,-1751.4 L3685.9,-1776.1 L3691.2,-1780.9 L3736.0,-1813.7 L3758.3,-1832.2 L3778.8,-1849.5 L3788.2,-1854.8 L3809.4,-1875.8 L3811.2,-1874.7 L3814.0,-1875.0 L3815.4,-1874.1 L3845.2,-1909.0 L3837.7,-1916.0 L3838.7,-1917.8 L3841.9,-1922.4 L3850.5,-1933.3 L3855.7,-1941.2 L3859.8,-1947.7 L3865.5,-1956.4 L3871.0,-1965.4 L3877.2,-1975.7 L3883.6,-1986.9 L3897.5,-2015.6 L3901.8,-2024.7 L3905.3,-2032.0 L3907.7,-2037.5 L3909.8,-2041.7 L3914.2,-2052.7 L3798.4,-2268.7 L3796.2,-2272.8 L3794.5,-2275.1 L3793.3,-2276.8 L3791.7,-2278.2 L3790.2,-2279.2 L3788.2,-2280.4 L3786.1,-2281.2 L3784.3,-2281.6 L3782.5,-2281.8 L3779.8,-2281.8 L3776.7,-2281.3 L3774.0,-2280.5 L3771.2,-2279.1 L3744.3,-2263.6 L3709.2,-2243.5 L3684.7,-2229.9 L3640.0,-2205.3 L3612.6,-2190.4 L3613.6,-2188.7 L3601.9,-2182.0 L3563.6,-2162.2 L3535.2,-2145.4 L3518.5,-2136.1 L3493.1,-2121.5 L3490.2,-2119.5 L3467.9,-2159.6 L3511.7,-2183.6 L3571.5,-2216.1 L3612.2,-2238.7 L3617.2,-2241.6 L3616.5,-2242.7 L3651.7,-2261.9 L3670.4,-2272.2 L3713.3,-2293.1 L3721.5,-2297.3 L3786.2,-2333.3 L3810.5,-2346.7 L3827.6,-2355.9 L3847.8,-2367.5 L3875.8,-2316.9 L3831.8,-2292.8 L3829.5,-2289.1 L3828.6,-2285.2 L3828.2,-2282.2 L3828.1,-2279.6 L3828.3,-2277.5 L3829.1,-2274.6 L3918.8,-2108.7 L3920.5,-2106.2 L3922.5,-2104.3 L3924.5,-2103.0 L3926.6,-2102.3 L3928.9,-2102.0 L3931.1,-2102.2 L3932.8,-2102.7 L3972.6,-2132.9 L3991.3,-2148.6 L4010.6,-2164.9 L4017.9,-2171.6 L4041.8,-2191.2 L4042.9,-2191.2 L4066.1,-2211.0 L4066.2,-2212.2 L4081.4,-2224.7 L4093.4,-2234.5 L4114.0,-2251.5 L4115.9,-2249.2 L4136.1,-2265.9 L4146.3,-2274.4 L4174.6,-2297.9 L4194.3,-2314.3 L4192.4,-2317.1 L4198.9,-2322.6 L4209.6,-2331.4 L4216.2,-2337.2 L4244.1,-2349.7 L4263.0,-2356.3 L4272.7,-2360.9 L4299.9,-2361.1 L4309.4,-2361.1 L4329.5,-2360.1 L4353.0,-2359.1 L4354.7,-2360.7 L4357.0,-2357.7 L4364.4,-2357.3 L4431.7,-2351.5 L4439.6,-2349.8 L4446.5,-2348.7 L4462.1,-2347.4 L4491.2,-2346.0 L4497.6,-2345.9 L4503.6,-2346.1 L4526.9,-2347.0 L4538.9,-2347.6 L4550.8,-2348.7 L4569.1,-2350.6 L4569.0,-2349.5 L4583.5,-2352.0 L4597.2,-2354.6 L4607.7,-2356.5 L4621.5,-2366.9 L4623.1,-2364.7 L4624.8,-2362.3 L4746.4,-2201.5 L5039.9,-2100.3 L5578.5,-2495.9 L5725.3,-2601.6 L5782.0,-2722.6 L5691.8,-2840.8 L5695.8,-2857.7 L5711.6,-2862.0 L5742.0,-2855.7 L5763.6,-2863.8 L5769.6,-2872.2 L5768.3,-2879.5 L5752.2,-2911.1 L5751.1,-2922.9 L5750.2,-2946.3 L5747.4,-2968.9 L5750.2,-2972.9 L5759.3,-2977.3 L5770.4,-2979.8 L5778.4,-2988.4 L5780.2,-2998.8 L5773.4,-3018.9 L5772.7,-3032.8 L5774.9,-3048.6 L5785.9,-3076.3 L5783.6,-3089.1 L5778.1,-3103.4 L5777.9,-3122.8 L5774.7,-3148.4 L5768.9,-3164.4 L5765.3,-3172.8 L5767.7,-3176.5 L5770.0,-3176.3 L5770.6,-3177.8 L5770.9,-3179.8 L5770.8,-3181.8 L5767.3,-3182.2 L5765.1,-3185.3 L5765.5,-3189.0 L5762.5,-3189.8 L5758.8,-3189.9 L5758.3,-3189.0 L5750.7,-3198.0 L5749.1,-3200.8 L5747.8,-3204.7 L5746.9,-3208.5 L5746.2,-3212.5 L5745.9,-3216.5 L5745.7,-3220.1 L5745.7,-3223.8 L5746.0,-3225.8 L5747.6,-3230.8 L5749.4,-3234.8 L5751.7,-3238.7 L5755.1,-3243.6 L5758.6,-3248.3 L5761.9,-3251.7 L5766.0,-3254.8 L5766.8,-3254.0 L5801.9,-3280.8 L5807.0,-3284.7 L5806.0,-3286.2 L5806.0,-3288.8 L5814.7,-3295.6 L5816.9,-3295.5 L5819.0,-3294.0 L5822.7,-3296.8 L5858.7,-3324.1 L5858.3,-3325.0 L5862.5,-3328.1 L5867.5,-3331.2 L5871.0,-3332.8 L5876.0,-3334.7 L5880.3,-3335.9 L5884.6,-3336.5 L5889.3,-3336.9 L5892.1,-3336.7 L5896.0,-3336.1 L5899.8,-3334.8 L5902.6,-3333.4 L5905.3,-3331.8 L5907.3,-3330.3 L5909.0,-3328.7 L5911.5,-3326.3 L5912.6,-3325.9 L5914.4,-3325.9 L5916.2,-3326.2 L5921.7,-3330.1 L5921.7,-3331.2 L5922.3,-3332.0 L5922.9,-3333.1 L5922.8,-3334.4 L5922.5,-3335.5 L5921.7,-3336.5 L5917.8,-3340.4 L5914.7,-3342.9 L5911.1,-3344.9 L5905.2,-3347.5 L5900.1,-3349.5 L5909.0,-3354.1 L5919.9,-3361.7 L5933.4,-3363.4 L5946.9,-3362.5 L5955.7,-3366.0 L5963.4,-3377.0 L5992.4,-3428.9 L6004.2,-3450.3 L6013.5,-3473.1 L6015.1,-3477.9 L6028.9,-3520.2 L6031.1,-3524.3 L6033.7,-3528.4 L6066.1,-3568.5 L6073.0,-3575.7 L6078.1,-3580.1 L6150.7,-3642.3 L6154.7,-3645.0 L6167.1,-3651.8 L6182.0,-3660.2 L6228.4,-3684.5 L6329.5,-3738.8 L6331.9,-3736.9 L6333.8,-3736.2 L6335.5,-3735.7 L6337.3,-3736.0 L6339.2,-3736.4 L6344.6,-3737.5 L6350.9,-3738.9 L6356.6,-3740.2 L6362.5,-3741.3 L6365.7,-3742.0 L6370.1,-3743.3 L6375.1,-3745.4 L6387.2,-3752.0 L6391.6,-3754.4 L6393.9,-3755.8 L6396.2,-3756.8 L6405.6,-3760.8 L6415.9,-3764.8 L6428.9,-3770.4 L6444.2,-3776.7 L6444.8,-3777.0 L6446.1,-3777.1 L6447.8,-3777.6 L6450.2,-3779.4 L6452.9,-3780.4 L6455.9,-3781.9 L6461.5,-3785.1 L6463.5,-3787.1 L6466.8,-3789.2 L6466.5,-3789.8 L6467.9,-3791.5 L6469.7,-3793.4 L6472.7,-3794.9 L6475.2,-3795.9 L6477.9,-3796.9 L6480.4,-3798.2 L6485.3,-3801.3 L6486.7,-3802.7 L6488.1,-3804.9 L6488.7,-3806.5 L6488.9,-3808.1 L6488.7,-3809.6 L6489.0,-3811.1 L6475.0,-3828.0 L6519.1,-3853.9 L6540.0,-3865.0 L6544.1,-3866.3 L6550.5,-3865.1 L6557.6,-3855.2 L6560.8,-3852.4 L6563.7,-3851.0 L6566.4,-3850.4 L6568.9,-3850.5 L6606.7,-3866.1 L6617.0,-3871.1 L6626.6,-3876.4 L6642.1,-3884.6 L6645.3,-3885.7 L6860.1,-3975.0 L6927.3,-4007.3 L7227.8,-4151.6 L14240.9,-4209.6 L14240.9,5826.0 L-746.8,5826.0 L-746.8,5399.5 Z" fill="#add7e1" stroke="none"><title>Biscayne Bay</title></path><path d="M-322.1,161.4 L-267.0,217.8 L-243.4,239.3 L-218.4,214.2 L-188.0,244.2 L-152.3,276.1 L-41.2,166.4 L-31.4,155.8 L17.5,208.2 L144.3,76.4 L53.9,-8.2 L-40.1,-4.4 L-26.7,-26.1 L-39.2,-280.9 L-113.6,-280.3 L-111.5,-217.9 L-266.2,-211.2 L-264.1,-110.4 L-288.7,-110.6 L-285.1,28.3 L-717.1,49.5 L-715.8,106.7 L-712.6,158.5 L-699.4,186.8 L-697.5,217.2 L-664.3,245.3 L-613.3,293.8 L-528.6,371.8 L-367.7,207.2 L-322.1,161.4 Z" fill="#eadde0" stroke="#d7d1c5" stroke-width="0.3"></path><path d="M26.8,211.0 L196.7,375.7 L363.0,213.2 L200.1,44.8 L26.8,211.0 Z" fill="#eadde0" stroke="#d7d1c5" stroke-width="0.3"></path><path d="M236.8,274.5 L208.4,245.6 L229.5,224.3 L260.5,252.3 L236.8,274.5 Z" fill="#d6d2c9" stroke="#bab6ad" stroke-width="0.4"></path><path d="M-24.7,19.2 L-22.1,37.4 L0.8,36.9 L7.4,30.2 L75.9,28.9 L79.9,32.3 L86.6,26.8 L135.1,73.7 L95.5,115.1 L72.8,93.1 L66.1,99.6 L86.0,120.4 L43.6,161.4 L22.3,139.2 L15.2,146.7 L-109.2,26.6 L-106.5,20.9 L-24.7,19.2 Z" fill="#d6d2c9" stroke="#bab6ad" stroke-width="0.4"></path><path d="M333.1,221.4 L305.1,249.7 L205.1,156.8 L235.1,124.5 L333.1,221.4 Z" fill="#d6d2c9" stroke="#bab6ad" stroke-width="0.4"><title>The Mutiny Hotel</title></path><path d="M188.3,255.8 L193.3,260.6 L196.4,257.2 L217.7,279.2 L190.4,304.2 L168.5,283.4 L176.8,274.6 L172.9,270.9 L168.7,275.4 L160.3,267.4 L181.3,245.1 L190.3,253.6 L188.3,255.8 Z" fill="#d6d2c9" stroke="#bab6ad" stroke-width="0.4"></path><path d="M133.3,127.8 L200.2,191.6 L143.3,251.4 L76.3,187.6 L133.3,127.8 Z" fill="#d6d2c9" stroke="#bab6ad" stroke-width="0.4"><title>Hotel Arya, BW Premier Collection</title></path><!-- water-corrections:start --><path data-water-correction="land" data-water-correction-id="sunrise-harbor-mainland" d="M0.0,256.0 L0.0,64.0 L256.0,83.3 L256.0,256.0 Z" fill="#f1efe7" stroke="#8ab09d" stroke-width="0.55"/><!-- water-corrections:end --><path d="M-18.8,119.2 L-109.1,33.7" fill="none" stroke="#cf828d" stroke-width="1.5" stroke-dasharray="1.6 3.0" opacity="0.62" stroke-linecap="round" stroke-linejoin="round"></path><path d="M-104.8,16.4 L-4.1,13.2 L16.1,15.6 L102.9,12.1 L150.3,10.1 L171.2,9.4 L188.4,11.9 L193.1,12.5 L216.9,13.6 L348.8,7.4" fill="none" stroke="#cf828d" stroke-width="1.5" stroke-dasharray="1.6 3.0" opacity="0.62" stroke-linecap="round" stroke-linejoin="round"></path><path d="M311.5,284.9 L294.1,301.1 L287.7,307.7" fill="none" stroke="#cf828d" stroke-width="1.5" stroke-dasharray="1.6 3.0" opacity="0.62" stroke-linecap="round" stroke-linejoin="round"></path><path d="M192.1,328.9 L104.6,242.7 L45.5,183.4 L19.8,157.8 L-18.8,119.2" fill="none" stroke="#cf828d" stroke-width="1.5" stroke-dasharray="1.6 3.0" opacity="0.62" stroke-linecap="round" stroke-linejoin="round"></path><path d="M190.8,-17.3 L190.1,-6.3 L189.3,5.9" fill="none" stroke="#cf828d" stroke-width="1.5" stroke-dasharray="1.6 3.0" opacity="0.62" stroke-linecap="round" stroke-linejoin="round"></path><path d="M189.3,5.9 L188.4,11.9" fill="none" stroke="#cf828d" stroke-width="1.5" stroke-dasharray="1.6 3.0" opacity="0.62" stroke-linecap="round" stroke-linejoin="round"></path><path d="M98.4,250.2 L92.7,262.1 L84.5,279.3" fill="none" stroke="#cf828d" stroke-width="1.5" stroke-dasharray="1.6 3.0" opacity="0.62" stroke-linecap="round" stroke-linejoin="round"></path><path d="M98.4,250.2 L104.6,242.7" fill="none" stroke="#cf828d" stroke-width="1.5" stroke-dasharray="1.6 3.0" opacity="0.62" stroke-linecap="round" stroke-linejoin="round"></path><path d="M122.9,328.1 L80.1,284.9 L73.0,277.8 L-33.2,172.4 L-69.5,136.3" fill="none" stroke="#8fb58e" stroke-width="1.9" opacity="0.58" stroke-linecap="round" stroke-linejoin="round"><title>Commodore Trail</title></path><path d="M49.3,179.7 L45.5,183.4 L28.7,199.8" fill="none" stroke="#cec8bb" stroke-width="3.5" stroke-linecap="round" stroke-linejoin="round"/><path d="M49.3,179.7 L45.5,183.4 L28.7,199.8" fill="none" stroke="#ffffff" stroke-width="2.5" stroke-linecap="round" stroke-linejoin="round"></path><path d="M98.7,-2.8 L102.9,12.1 L107.3,28.2" fill="none" stroke="#cec8bb" stroke-width="3.5" stroke-linecap="round" stroke-linejoin="round"/><path d="M98.7,-2.8 L102.9,12.1 L107.3,28.2" fill="none" stroke="#ffffff" stroke-width="2.5" stroke-linecap="round" stroke-linejoin="round"></path><path d="M158.6,73.6 L182.9,50.7" fill="none" stroke="#cec8bb" stroke-width="3.5" stroke-linecap="round" stroke-linejoin="round"/><path d="M158.6,73.6 L182.9,50.7" fill="none" stroke="#ffffff" stroke-width="2.5" stroke-linecap="round" stroke-linejoin="round"></path><path d="M107.3,28.2 L133.0,48.3 L158.6,73.6" fill="none" stroke="#cec8bb" stroke-width="3.5" stroke-linecap="round" stroke-linejoin="round"/><path d="M107.3,28.2 L133.0,48.3 L158.6,73.6" fill="none" stroke="#ffffff" stroke-width="2.5" stroke-linecap="round" stroke-linejoin="round"></path><path d="M49.3,179.7 L51.9,177.0 L158.6,73.6" fill="none" stroke="#cec8bb" stroke-width="3.5" stroke-linecap="round" stroke-linejoin="round"/><path d="M49.3,179.7 L51.9,177.0 L158.6,73.6" fill="none" stroke="#ffffff" stroke-width="2.5" stroke-linecap="round" stroke-linejoin="round"></path><path d="M345.7,224.0 L234.3,114.4 L192.9,156.7" fill="none" stroke="#cec8bb" stroke-width="3.5" stroke-linecap="round" stroke-linejoin="round"/><path d="M345.7,224.0 L234.3,114.4 L192.9,156.7" fill="none" stroke="#ffffff" stroke-width="2.5" stroke-linecap="round" stroke-linejoin="round"></path><path d="M14.5,0.3 L1.4,-6.8 L-4.9,-10.0 L-9.0,-13.5 L-12.1,-17.5 L-17.2,-27.9" fill="none" stroke="#cec8bb" stroke-width="4.8" stroke-linecap="round" stroke-linejoin="round"/><path d="M14.5,0.3 L1.4,-6.8 L-4.9,-10.0 L-9.0,-13.5 L-12.1,-17.5 L-17.2,-27.9" fill="none" stroke="#ffffff" stroke-width="3.7" stroke-linecap="round" stroke-linejoin="round"><title>Virginia Street</title></path><path d="M339.9,-12.9 L190.1,-6.3 L184.0,-6.0 L174.4,-5.7 L159.8,-5.1 L98.7,-2.8 L14.5,0.3" fill="none" stroke="#d1c4aa" stroke-width="5.4" stroke-linecap="round" stroke-linejoin="round"/><path d="M339.9,-12.9 L190.1,-6.3 L184.0,-6.0 L174.4,-5.7 L159.8,-5.1 L98.7,-2.8 L14.5,0.3" fill="none" stroke="#f4d99b" stroke-width="4.0" stroke-linecap="round" stroke-linejoin="round"><title>Grand Avenue</title></path><path d="M14.5,0.3 L-38.9,3.2" fill="none" stroke="#d1c4aa" stroke-width="5.4" stroke-linecap="round" stroke-linejoin="round"/><path d="M14.5,0.3 L-38.9,3.2" fill="none" stroke="#f4d99b" stroke-width="4.0" stroke-linecap="round" stroke-linejoin="round"><title>Grand Avenue</title></path><path d="M-31.7,140.6 L28.7,199.8" fill="none" stroke="#d1c4aa" stroke-width="6.4" stroke-linecap="round" stroke-linejoin="round"/><path d="M-31.7,140.6 L28.7,199.8" fill="none" stroke="#f1c77d" stroke-width="5.0" stroke-linecap="round" stroke-linejoin="round"><title>McFarlane Road</title></path><path d="M65.9,236.0 L87.4,257.0 L92.7,262.1 L105.1,274.2" fill="none" stroke="#d1c4aa" stroke-width="6.4" stroke-linecap="round" stroke-linejoin="round"/><path d="M65.9,236.0 L87.4,257.0 L92.7,262.1 L105.1,274.2" fill="none" stroke="#f1c77d" stroke-width="5.0" stroke-linecap="round" stroke-linejoin="round"><title>McFarlane Road</title></path><path d="M28.7,199.8 L65.9,236.0" fill="none" stroke="#d1c4aa" stroke-width="6.4" stroke-linecap="round" stroke-linejoin="round"/><path d="M28.7,199.8 L65.9,236.0" fill="none" stroke="#f1c77d" stroke-width="5.0" stroke-linecap="round" stroke-linejoin="round"><title>McFarlane Road</title></path><text x="78.7" y="105.9" text-anchor="middle" font-family="Arial, sans-serif" font-size="7.1" font-weight="600" paint-order="stroke" stroke="#fbf1df" stroke-width="1.45" stroke-linejoin="round" fill="#98662b" textLength="145.4" lengthAdjust="spacing">Panorama Restaurant &amp; Sky Lounge</text><text x="65.1" y="138.4" text-anchor="middle" font-family="Arial, sans-serif" font-size="7.1" font-weight="600" paint-order="stroke" stroke="#fbf1df" stroke-width="1.45" stroke-linejoin="round" fill="#98662b" textLength="118.1" lengthAdjust="spacing">La Cabrera - Coconut Grove</text><text x="138.3" y="189.6" text-anchor="middle" font-family="Arial, sans-serif" font-size="7.4" font-weight="600" paint-order="stroke" stroke="#edf3fa" stroke-width="1.65" stroke-linejoin="round" fill="#4f73a0" textLength="156.3" lengthAdjust="spacing">Hotel Arya, BW Premier Collection</text><text x="29.5" y="27.6" text-anchor="middle" font-family="Arial, sans-serif" font-size="6.5" textLength="18.0" lengthAdjust="spacing" font-weight="500" paint-order="stroke" stroke="#f3f5ee" stroke-width="1.55" stroke-linejoin="round" fill="#6f777a">2982</text><text x="77.8" y="58.3" text-anchor="middle" font-family="Arial, sans-serif" font-size="6.5" textLength="18.0" lengthAdjust="spacing" font-weight="500" paint-order="stroke" stroke="#f3f5ee" stroke-width="1.55" stroke-linejoin="round" fill="#6f777a">2974</text><text x="235.8" y="246.0" text-anchor="middle" font-family="Arial, sans-serif" font-size="6.5" textLength="18.0" lengthAdjust="spacing" font-weight="500" paint-order="stroke" stroke="#f3f5ee" stroke-width="1.55" stroke-linejoin="round" fill="#6f777a">2985</text><g><title>Hotel Arya, BW Premier Collection</title><circle cx="138.3" cy="189.6" r="4.8" fill="#5f82b4" stroke="#ffffff" stroke-width="1.7"/><path d="M135.0,187.9 V191.9 M135.0,189.8 H141.5 V191.9 M136.6,189.1 H138.5" stroke="#ffffff" stroke-width="1.14" stroke-linecap="round" stroke-linejoin="round" fill="none"/></g><g><title>Panorama Restaurant &amp; Sky Lounge</title><circle cx="18.3" cy="105.9" r="5.2" fill="#c97924" stroke="#ffffff" stroke-width="1.7"/><path d="M16.0,102.6 L16.0,108.9 M14.7,102.6 L17.2,102.6 M20.4,102.6 L20.4,108.9 M20.4,102.6 C22.3,104.0 21.8,106.1 20.4,106.4" stroke="#ffffff" stroke-width="1.26" stroke-linecap="round" stroke-linejoin="round" fill="none"/></g><g><title>La Cabrera - Coconut Grove</title><circle cx="47.6" cy="138.4" r="5.2" fill="#c97924" stroke="#ffffff" stroke-width="1.7"/><path d="M45.3,135.1 L45.3,141.4 M44.0,135.1 L46.5,135.1 M49.7,135.1 L49.7,141.4 M49.7,135.1 C51.6,136.5 51.2,138.6 49.7,138.8" stroke="#ffffff" stroke-width="1.26" stroke-linecap="round" stroke-linejoin="round" fill="none"/></g></svg>