<svg xmlns="http://www.w3.org/2000/svg" width="256" height="256" viewBox="0 0 256 256"><rect width="256" height="256" fill="#f1efe7"/><path d="M-14346.7,-4909.7 L-14131.9,-4999.0 L-14064.7,-5031.3 L-13764.2,-5175.6 L-13707.8,-5121.0 L-13702.9,-5116.3 L-13597.5,-5206.5 L-13572.4,-5225.6 L-13530.5,-5263.4 L-13294.4,-5480.2 L-13103.9,-5697.8 L-13096.6,-5711.7 L-13089.6,-5719.6 L-13078.5,-5732.3 L-13067.2,-5745.2 L-13062.6,-5750.5 L-13137.7,-5847.6 L-13038.3,-5907.2 L-12984.4,-5835.5 L-12908.2,-5922.7 L-12972.7,-6008.1 L-12892.8,-6091.4 L-12831.3,-6010.4 L-12760.7,-6090.8 L-12730.6,-6110.5 L-12583.4,-6206.0 L-12510.7,-6254.3 L-12423.1,-6311.9 L-12381.7,-6339.1 L-12276.8,-6406.8 L-12303.8,-6442.3 L-12352.1,-6507.0 L-12227.2,-6586.4 L-12181.7,-6609.9 L-12178.2,-6612.4 L-12154.2,-6630.9 L-12068.6,-6676.7 L-12062.7,-6685.9 L-12038.7,-6702.4 L-12025.7,-6721.4 L-12022.0,-6724.2 L-12001.1,-6732.3 L-11953.9,-6749.2 L-11921.6,-6763.4 L-11807.5,-6817.0 L-11806.1,-6813.3 L-11710.4,-6854.2 L-11671.3,-6804.1 L-11584.2,-6862.2 L-11571.8,-6870.7 L-11570.6,-6871.7 L-11569.4,-6873.3 L-11567.5,-6876.6 L-11566.5,-6879.7 L-11565.9,-6883.4 L-11566.0,-6886.4 L-11566.4,-6889.3 L-11566.8,-6892.6 L-11566.9,-6895.1 L-11566.7,-6897.2 L-11566.3,-6899.4 L-11564.7,-6903.4 L-11563.6,-6905.6 L-11561.1,-6909.4 L-11558.5,-6912.2 L-11545.8,-6917.3 L-11535.2,-6921.3 L-11521.7,-6925.7 L-11515.4,-6927.4 L-11504.2,-6931.1 L-11496.3,-6933.9 L-11485.4,-6938.4 L-11470.6,-6944.9 L-11454.6,-6952.4 L-11446.0,-6956.6 L-11435.2,-6962.1 L-11425.1,-6967.7 L-11415.0,-6973.7 L-11404.7,-6980.4 L-11401.5,-6982.6 L-11380.8,-6998.4 L-11363.4,-7011.8 L-11346.4,-7026.2 L-11330.5,-7041.2 L-11319.0,-7054.1 L-11307.6,-7068.0 L-11293.6,-7086.0 L-11280.8,-7104.0 L-11266.1,-7127.1 L-11256.5,-7145.0 L-11250.5,-7156.4 L-11241.6,-7175.7 L-11234.1,-7193.6 L-11227.4,-7212.9 L-11222.0,-7229.8 L-11216.1,-7257.2 L-11211.8,-7281.7 L-11209.5,-7302.7 L-11207.5,-7327.5 L-11207.3,-7354.0 L-11208.9,-7378.5 L-11213.1,-7410.5 L-11217.5,-7432.3 L-11222.5,-7452.9 L-11229.9,-7476.3 L-11236.2,-7494.2 L-11243.4,-7513.7 L-11250.2,-7529.9 L-11254.8,-7540.4 L-11256.7,-7548.1 L-11257.0,-7554.0 L-11256.4,-7559.3 L-11254.3,-7563.9 L-11251.1,-7567.8 L-11246.9,-7570.0 L-11242.4,-7570.6 L-11230.3,-7567.7 L-11196.6,-7559.6 L-11185.4,-7814.3 L-11141.7,-8268.9 L-11189.2,-8280.1 L-11194.4,-8294.4 L-11194.2,-8314.9 L-11187.6,-8361.4 L-11178.6,-8371.9 L-11170.6,-8402.1 L-11120.1,-8390.4 L-11092.3,-8680.9 L-11084.6,-8761.3 L-11100.3,-8765.2 L-11090.8,-8803.6 L-11123.1,-8811.3 L-11119.0,-8834.8 L-11113.3,-8850.3 L-11106.2,-8868.4 L-11094.2,-8893.7 L-11081.3,-8890.8 L-11063.9,-9073.5 L-11059.8,-9184.3 L-11059.0,-9204.7 L-11049.6,-9275.2 L-11030.9,-9450.9 L-10906.1,-9776.3 L-10877.6,-9865.0 L-10530.9,-9998.0 L-10497.0,-10011.6 L-10491.1,-10014.8 L-10486.5,-10019.0 L-10481.4,-10024.9 L-10477.5,-10031.8 L-10474.9,-10038.6 L-10474.3,-10048.5 L-10474.8,-10060.8 L-10479.4,-10216.3 L-10481.1,-10246.4 L-10481.6,-10267.1 L-10482.3,-10307.3 L-10483.1,-10319.9 L-10484.6,-10330.5 L-10486.7,-10339.9 L-10489.8,-10349.5 L-10494.7,-10360.8 L-10501.9,-10372.9 L-10508.9,-10382.5 L-10514.3,-10391.6 L-10519.8,-10403.7 L-10524.4,-10415.3 L-10526.2,-10424.8 L-10527.6,-10435.3 L-10528.3,-10445.8 L-10528.0,-10456.0 L-10526.8,-10467.9 L-10524.0,-10479.6 L-10520.3,-10490.0 L-10516.4,-10499.5 L-10511.4,-10508.7 L-10505.3,-10519.9 L-10501.3,-10530.0 L-10497.8,-10542.9 L-10491.4,-10552.7 L-10493.6,-10641.9 L-10496.9,-10647.1 L-10497.9,-10707.7 L-10499.6,-10779.2 L-10498.4,-10789.1 L-10495.2,-10799.2 L-10487.2,-10815.0 L-10433.7,-10930.1 L-10432.6,-10932.0 L-10423.2,-10952.5 L-10414.3,-10971.9 L-10404.3,-10991.9 L-10394.5,-11012.5 L-10389.7,-11022.5 L-10337.1,-11130.4 L-10280.9,-11249.6 L-10159.3,-11496.4 L-10232.4,-11578.3 L-10292.0,-11451.3 L-10343.5,-11341.4 L-10351.3,-11325.8 L-10367.2,-11293.3 L-10399.0,-11296.0 L-10407.7,-11296.5 L-10410.8,-11293.7 L-10406.6,-11289.9 L-10422.9,-11275.4 L-10435.8,-11263.5 L-10438.2,-11212.6 L-10443.0,-11202.4 L-10458.6,-11203.0 L-10461.2,-11203.9 L-10665.6,-11288.3 L-10670.0,-11290.6 L-10674.7,-11293.6 L-10682.1,-11299.2 L-10687.8,-11304.6 L-10692.6,-11309.8 L-10697.3,-11316.2 L-10700.9,-11321.8 L-10703.7,-11327.6 L-10705.9,-11333.7 L-10707.4,-11337.9 L-10708.5,-11343.0 L-10709.3,-11349.0 L-10710.1,-11357.2 L-10710.1,-11368.9 L-10711.5,-11408.6 L-10705.9,-11408.9 L-10706.7,-11429.9 L-10707.6,-11464.5 L-10702.4,-11464.6 L-10702.8,-11488.2 L-10708.7,-11488.1 L-10711.4,-11587.5 L-10705.8,-11587.8 L-10706.7,-11611.1 L-10712.1,-11610.9 L-10714.4,-11684.4 L-10687.4,-11713.5 L-10652.9,-11714.7 L-10627.2,-11715.6 L-10593.3,-11716.7 L-10560.7,-11717.7 L-10531.5,-11718.7 L-10518.8,-11719.3 L-10519.4,-11730.6 L-10519.6,-11742.4 L-10521.5,-11780.7 L-10522.2,-11853.8 L-10523.2,-11855.1 L-10523.4,-11862.3 L-10521.3,-11862.4 L-10526.4,-12038.5 L-10530.8,-12204.2 L-10531.5,-12209.4 L-10531.9,-12219.0 L-10604.1,-12216.4 L-10652.1,-12220.5 L-11011.4,-12208.0 L-11011.5,-12211.2 L-11012.2,-12226.5 L-11182.6,-12220.5 L-11182.9,-12248.8 L-11205.4,-12253.9 L-11209.4,-12375.0 L-10546.6,-12398.0 L-10535.6,-12413.1 L-10536.0,-12456.1 L-10536.8,-12493.3 L-10537.4,-12516.6 L-10538.3,-12539.3 L-10591.0,-12564.1 L-10593.1,-12619.2 L-10539.1,-12646.0 L-10544.0,-12773.5 L-10545.4,-12779.8 L-10599.1,-12804.9 L-10600.8,-12873.1 L-10549.8,-12899.4 L-10572.5,-13176.3 L-10566.5,-13299.5 L-10563.5,-13500.4 L-10563.7,-13718.9 L-10558.9,-13749.5 L-10558.6,-13764.3 L-10563.4,-13782.1 L-10558.4,-13782.1 L-10558.4,-13798.2 L-10555.4,-14209.2 L-10555.9,-14227.5 L-10561.6,-14227.5 L-10561.4,-14303.1 L-10564.7,-14307.8 L-10569.9,-14385.8 L-10559.6,-14457.1 L-10560.9,-14543.4 L-10564.4,-14564.1 L-10559.1,-14628.0 L-10562.7,-14705.3 L-10571.7,-14788.0 L-10588.8,-14922.0 L-10580.7,-14958.9 L-10584.3,-14994.8 L-10614.9,-15020.9 L-10659.8,-15020.5 L-10728.2,-15011.5 L-10772.7,-15011.5 L-10813.1,-15026.3 L-10866.2,-15062.7 L-10866.2,-15128.0 L-10867.6,-15208.3 L-10862.4,-15275.2 L-10844.8,-15327.4 L-10550.1,-15332.9 L-10543.3,-15750.8 L-10543.3,-16352.4 L-10546.4,-16570.7 L5365.8,-23142.4 L5365.8,13075.8 L-14346.7,13075.8 L-14346.7,-4909.7 Z" fill="#add7e1" stroke="none"><title>Biscayne Bay</title></path></svg>