<svg xmlns="http://www.w3.org/2000/svg" width="256" height="256" viewBox="0 0 256 256"><rect width="256" height="256" fill="#f1efe7"/><path d="M-14346.7,-17197.7 L-14131.9,-17287.0 L-14064.7,-17319.3 L-13764.2,-17463.6 L-13707.8,-17409.0 L-13702.9,-17404.3 L-13597.5,-17494.5 L-13572.4,-17513.6 L-13530.5,-17551.4 L-13294.4,-17768.2 L-13103.9,-17985.8 L-13096.6,-17999.7 L-13089.6,-18007.6 L-13078.5,-18020.3 L-13067.2,-18033.2 L-13062.6,-18038.5 L-13137.7,-18135.6 L-13038.3,-18195.2 L-12984.4,-18123.5 L-12908.2,-18210.7 L-12972.7,-18296.1 L-12892.8,-18379.4 L-12831.3,-18298.4 L-12760.7,-18378.8 L-12730.6,-18398.5 L-12583.4,-18494.0 L-12510.7,-18542.3 L-12423.1,-18599.9 L-12381.7,-18627.1 L-12276.8,-18694.8 L-12303.8,-18730.3 L-12352.1,-18795.0 L-12227.2,-18874.4 L-12181.7,-18897.9 L-12178.2,-18900.4 L-12154.2,-18918.9 L-12068.6,-18964.7 L-12062.7,-18973.9 L-12038.7,-18990.4 L-12025.7,-19009.4 L-12022.0,-19012.2 L-12001.1,-19020.3 L-11953.9,-19037.2 L-11921.6,-19051.4 L-11807.5,-19105.0 L-11806.1,-19101.3 L-11710.4,-19142.2 L-11671.3,-19092.1 L-11584.2,-19150.2 L-11571.8,-19158.7 L-11570.6,-19159.7 L-11569.4,-19161.3 L-11567.5,-19164.6 L-11566.5,-19167.7 L-11565.9,-19171.4 L-11566.0,-19174.4 L-11566.4,-19177.3 L-11566.8,-19180.6 L-11566.9,-19183.1 L-11566.7,-19185.2 L-11566.3,-19187.4 L-11564.7,-19191.4 L-11563.6,-19193.6 L-11561.1,-19197.4 L-11558.5,-19200.2 L-11545.8,-19205.3 L-11535.2,-19209.3 L-11521.7,-19213.7 L-11515.4,-19215.4 L-11504.2,-19219.1 L-11496.3,-19221.9 L-11485.4,-19226.4 L-11470.6,-19232.9 L-11454.6,-19240.4 L-11446.0,-19244.6 L-11435.2,-19250.1 L-11425.1,-19255.7 L-11415.0,-19261.7 L-11404.7,-19268.4 L-11401.5,-19270.6 L-11380.8,-19286.4 L-11363.4,-19299.8 L-11346.4,-19314.2 L-11330.5,-19329.2 L-11319.0,-19342.1 L-11307.6,-19356.0 L-11293.6,-19374.0 L-11280.8,-19392.0 L-11266.1,-19415.1 L-11256.5,-19433.0 L-11250.5,-19444.4 L-11241.6,-19463.7 L-11234.1,-19481.6 L-11227.4,-19500.9 L-11222.0,-19517.8 L-11216.1,-19545.2 L-11211.8,-19569.7 L-11209.5,-19590.7 L-11207.5,-19615.5 L-11207.3,-19642.0 L-11208.9,-19666.5 L-11213.1,-19698.5 L-11217.5,-19720.3 L-11222.5,-19740.9 L-11229.9,-19764.3 L-11236.2,-19782.2 L-11243.4,-19801.7 L-11250.2,-19817.9 L-11254.8,-19828.4 L-11256.7,-19836.1 L-11257.0,-19842.0 L-11256.4,-19847.3 L-11254.3,-19851.9 L-11251.1,-19855.8 L-11246.9,-19858.0 L-11242.4,-19858.6 L-11230.3,-19855.7 L-11196.6,-19847.6 L-11185.4,-20102.3 L-11141.7,-20556.9 L-11189.2,-20568.1 L-11194.4,-20582.4 L-11194.2,-20602.9 L-11187.6,-20649.4 L-11178.6,-20659.9 L-11170.6,-20690.1 L-11120.1,-20678.4 L-11092.3,-20968.9 L-11084.6,-21049.3 L-11100.3,-21053.2 L-11090.8,-21091.6 L-11123.1,-21099.3 L-11119.0,-21122.8 L-11113.3,-21138.3 L-11106.2,-21156.4 L-11094.2,-21181.7 L-11081.3,-21178.8 L-11063.9,-21361.5 L-11059.8,-21472.3 L-11059.0,-21492.7 L-11049.6,-21563.2 L-11030.9,-21738.9 L-10906.1,-22064.3 L-10877.6,-22153.0 L-10530.9,-22286.0 L-10497.0,-22299.6 L-10491.1,-22302.8 L-10486.5,-22307.0 L-10481.4,-22312.9 L-10477.5,-22319.8 L-10474.9,-22326.6 L-10474.3,-22336.5 L-10474.8,-22348.8 L-10479.4,-22504.3 L-10481.1,-22534.4 L-10481.6,-22555.1 L-10482.3,-22595.3 L-10483.1,-22607.9 L-10484.6,-22618.5 L-10486.7,-22627.9 L-10489.8,-22637.5 L-10494.7,-22648.8 L-10501.9,-22660.9 L-10508.9,-22670.5 L-10514.3,-22679.6 L-10519.8,-22691.7 L-10524.4,-22703.3 L-10526.2,-22712.8 L-10527.6,-22723.3 L-10528.3,-22733.8 L-10528.0,-22744.0 L-10526.8,-22755.9 L-10524.0,-22767.6 L-10520.3,-22778.0 L-10516.4,-22787.5 L-10511.4,-22796.7 L-10505.3,-22807.9 L-10501.3,-22818.0 L-10497.8,-22830.9 L-10491.4,-22840.7 L-10493.6,-22929.9 L-10496.9,-22935.1 L-10497.9,-22995.7 L-10499.6,-23067.2 L-10498.4,-23077.1 L-10495.2,-23087.2 L-10487.2,-23103.0 L-10433.7,-23218.1 L-10432.6,-23220.0 L-10423.2,-23240.5 L-10414.3,-23259.9 L-10404.3,-23279.9 L-10394.5,-23300.5 L-10389.7,-23310.5 L-10337.1,-23418.4 L-10280.9,-23537.6 L-10159.3,-23784.4 L-10232.4,-23866.3 L-10292.0,-23739.3 L-10343.5,-23629.4 L-10351.3,-23613.8 L-10367.2,-23581.3 L-10399.0,-23584.0 L-10407.7,-23584.5 L-10410.8,-23581.7 L-10406.6,-23577.9 L-10422.9,-23563.4 L-10435.8,-23551.5 L-10438.2,-23500.6 L-10443.0,-23490.4 L-10458.6,-23491.0 L-10461.2,-23491.9 L-10665.6,-23576.3 L-10670.0,-23578.6 L-10674.7,-23581.6 L-10682.1,-23587.2 L-10687.8,-23592.6 L-10692.6,-23597.8 L-10697.3,-23604.2 L-10700.9,-23609.8 L-10703.7,-23615.6 L-10705.9,-23621.7 L-10707.4,-23625.9 L-10708.5,-23631.0 L-10709.3,-23637.0 L-10710.1,-23645.2 L-10710.1,-23656.9 L-10711.5,-23696.6 L-10705.9,-23696.9 L-10706.7,-23717.9 L-10707.6,-23752.5 L-10702.4,-23752.6 L-10702.8,-23776.2 L-10708.7,-23776.1 L-10711.4,-23875.5 L-10705.8,-23875.8 L-10706.7,-23899.1 L-10712.1,-23898.9 L-10714.4,-23972.4 L-10687.4,-24001.5 L-10652.9,-24002.7 L-10627.2,-24003.6 L-10593.3,-24004.7 L-10560.7,-24005.7 L-10531.5,-24006.7 L-10518.8,-24007.3 L-10519.4,-24018.6 L-10519.6,-24030.4 L-10521.5,-24068.7 L-10522.2,-24141.8 L-10523.2,-24143.1 L-10523.4,-24150.3 L-10521.3,-24150.4 L-10526.4,-24326.5 L-10530.8,-24492.2 L-10531.5,-24497.4 L-10531.9,-24507.0 L-10604.1,-24504.4 L-10652.1,-24508.5 L-11011.4,-24496.0 L-11011.5,-24499.2 L-11012.2,-24514.5 L-11182.6,-24508.5 L-11182.9,-24536.8 L-11205.4,-24541.9 L-11209.4,-24663.0 L-10546.6,-24686.0 L-10535.6,-24701.1 L-10536.0,-24744.1 L-10536.8,-24781.3 L-10537.4,-24804.6 L-10538.3,-24827.3 L-10591.0,-24852.1 L-10593.1,-24907.2 L-10539.1,-24934.0 L-10544.0,-25061.5 L-10545.4,-25067.8 L-10599.1,-25092.9 L-10600.8,-25161.1 L-10549.8,-25187.4 L-10572.5,-25464.3 L-10566.5,-25587.5 L-10563.5,-25788.4 L-10563.7,-26006.9 L-10558.9,-26037.5 L-10558.6,-26052.3 L-10563.4,-26070.1 L-10558.4,-26070.1 L-10558.4,-26086.2 L-10555.4,-26497.2 L-10555.9,-26515.5 L-10561.6,-26515.5 L-10561.4,-26591.1 L-10564.7,-26595.8 L-10569.9,-26673.8 L-10559.6,-26745.1 L-10560.9,-26831.4 L-10564.4,-26852.1 L-10559.1,-26916.0 L-10562.7,-26993.3 L-10571.7,-27076.0 L-10588.8,-27210.0 L-10580.7,-27246.9 L-10584.3,-27282.8 L-10614.9,-27308.9 L-10659.8,-27308.5 L-10728.2,-27299.5 L-10772.7,-27299.5 L-10813.1,-27314.3 L-10866.2,-27350.7 L-10866.2,-27416.0 L-10867.6,-27496.3 L-10862.4,-27563.2 L-10844.8,-27615.4 L-10550.1,-27620.9 L-10543.3,-28038.8 L-10543.3,-28640.4 L-10546.4,-28858.7 L5365.8,-35430.4 L5365.8,787.8 L-14346.7,787.8 L-14346.7,-17197.7 Z" fill="#add7e1" stroke="none"><title>Biscayne Bay</title></path></svg>