<svg xmlns="http://www.w3.org/2000/svg" width="256" height="256" viewBox="0 0 256 256"><rect width="256" height="256" fill="#f1efe7"/><path d="M58.3,251.3 L40.8,251.7 L40.5,240.2 L58.0,239.8 L58.3,251.3 Z" fill="#d6d2c9" stroke="#bab6ad" stroke-width="0.4"></path><path d="M57.1,216.6 L40.3,217.0 L40.1,209.1 L56.9,208.7 L57.1,216.6 Z" fill="#d6d2c9" stroke="#bab6ad" stroke-width="0.4"></path><path d="M12.8,194.1 L-11.3,194.6 L-11.4,186.3 L12.6,185.9 L12.8,194.1 Z" fill="#d6d2c9" stroke="#bab6ad" stroke-width="0.4"></path><path d="M14.0,205.3 L-11.2,205.8 L-11.3,197.6 L13.9,197.0 L14.0,205.3 Z" fill="#d6d2c9" stroke="#bab6ad" stroke-width="0.4"></path><path d="M55.3,171.9 L33.6,172.4 L33.4,162.7 L55.1,162.2 L55.3,171.9 Z" fill="#d6d2c9" stroke="#bab6ad" stroke-width="0.4"></path><path d="M30.9,252.4 L24.8,252.5 L24.5,241.3 L30.6,241.1 L30.9,252.4 Z" fill="#d6d2c9" stroke="#bab6ad" stroke-width="0.4"></path><path d="M58.4,222.6 L58.6,234.3 L45.5,234.5 L45.3,227.4 L43.6,227.4 L43.5,224.3 L45.6,224.3 L45.5,222.8 L58.4,222.6 Z" fill="#d6d2c9" stroke="#bab6ad" stroke-width="0.4"></path><path d="M152.3,166.2 L124.1,167.2 L123.7,156.4 L151.9,155.4 L152.3,166.2 Z" fill="#d6d2c9" stroke="#bab6ad" stroke-width="0.4"></path><path d="M153.5,258.2 L139.8,258.7 L139.5,251.2 L153.2,250.7 L153.5,258.2 Z" fill="#d6d2c9" stroke="#bab6ad" stroke-width="0.4"></path><path d="M56.6,205.7 L41.1,206.2 L40.8,198.2 L56.4,197.8 L56.6,205.7 Z" fill="#d6d2c9" stroke="#bab6ad" stroke-width="0.4"></path><path d="M64.2,258.9 L26.2,260.6 L25.9,253.9 L63.9,252.3 L64.2,258.9 Z" fill="#d6d2c9" stroke="#bab6ad" stroke-width="0.4"></path><path d="M55.8,183.1 L34.3,183.6 L34.1,173.9 L55.6,173.3 L55.8,183.1 Z" fill="#d6d2c9" stroke="#bab6ad" stroke-width="0.4"></path><path d="M19.9,239.2 L8.4,239.5 L7.6,211.5 L19.1,211.1 L19.9,239.2 Z" fill="#d6d2c9" stroke="#bab6ad" stroke-width="0.4"></path><path d="M-3.9,246.2 L-3.8,249.0 L2.2,248.8 L2.6,256.1 L-10.3,256.7 L-10.7,246.5 L-3.9,246.2 Z" fill="#d6d2c9" stroke="#bab6ad" stroke-width="0.4"></path><path d="M91.9,145.5 L82.3,145.8 L81.7,129.8 L91.3,129.5 L91.9,145.5 Z" fill="#d6d2c9" stroke="#bab6ad" stroke-width="0.4"></path><path d="M105.8,248.6 L85.7,249.2 L85.5,241.1 L105.5,240.6 L105.8,248.6 Z" fill="#d6d2c9" stroke="#bab6ad" stroke-width="0.4"></path><path d="M191.2,132.0 L176.2,132.4 L175.9,125.0 L191.0,124.5 L191.2,132.0 Z" fill="#d6d2c9" stroke="#bab6ad" stroke-width="0.4"></path><path d="M229.1,126.0 L229.6,138.2 L226.2,138.4 L226.1,134.5 L212.7,135.0 L212.4,126.6 L229.1,126.0 Z" fill="#d6d2c9" stroke="#bab6ad" stroke-width="0.4"></path><path d="M55.9,194.8 L42.0,195.1 L41.8,186.3 L55.7,185.9 L55.9,194.8 Z" fill="#d6d2c9" stroke="#bab6ad" stroke-width="0.4"></path><path d="M141.4,86.4 L141.5,87.6 L146.0,87.5 L146.2,94.2 L144.6,94.3 L144.9,102.2 L134.9,102.5 L135.0,103.5 L131.4,103.6 L131.1,92.0 L136.6,91.9 L136.5,86.6 L141.4,86.4 Z" fill="#d6d2c9" stroke="#bab6ad" stroke-width="0.4"></path><path d="M220.0,151.6 L220.0,155.4 L223.3,155.3 L223.5,164.4 L212.8,164.6 L212.6,155.5 L214.8,155.5 L214.7,151.7 L220.0,151.6 Z" fill="#d6d2c9" stroke="#bab6ad" stroke-width="0.4"></path><path d="M211.8,211.7 L204.6,211.8 L204.1,202.0 L211.3,201.5 L211.8,211.7 Z" fill="#d6d2c9" stroke="#bab6ad" stroke-width="0.4"></path><path d="M224.4,245.1 L216.1,245.6 L215.8,239.0 L224.0,238.5 L224.2,241.8 L224.4,245.1 Z" fill="#d6d2c9" stroke="#bab6ad" stroke-width="0.4"></path><path d="M230.1,256.7 L215.9,257.0 L215.8,249.9 L218.2,249.8 L218.2,247.7 L230.7,247.4 L230.9,253.1 L230.1,253.2 L230.1,256.7 Z" fill="#d6d2c9" stroke="#bab6ad" stroke-width="0.4"></path><path d="M123.1,205.2 L123.1,206.7 L126.2,206.6 L126.4,214.8 L120.0,215.0 L119.7,205.3 L123.1,205.2 Z" fill="#d6d2c9" stroke="#bab6ad" stroke-width="0.4"></path><path d="M211.6,221.7 L208.5,221.9 L207.9,217.0 L208.4,217.0 L208.2,213.3 L212.9,213.1 L213.1,216.7 L211.4,216.8 L211.6,221.7 Z" fill="#d6d2c9" stroke="#bab6ad" stroke-width="0.4"></path><path d="M221.3,200.9 L213.2,201.2 L212.8,190.4 L220.8,190.0 L221.3,200.9 Z" fill="#d6d2c9" stroke="#bab6ad" stroke-width="0.4"></path><path d="M112.2,238.3 L91.0,238.7 L90.8,229.2 L112.0,228.7 L112.2,238.3 Z" fill="#d6d2c9" stroke="#bab6ad" stroke-width="0.4"></path><path d="M238.7,154.4 L238.8,156.4 L245.7,156.3 L245.8,165.4 L230.3,165.5 L230.2,154.4 L238.7,154.4 Z" fill="#d6d2c9" stroke="#bab6ad" stroke-width="0.4"></path><path d="M109.3,181.1 L89.3,181.9 L89.0,172.1 L109.0,171.3 L109.3,181.1 Z" fill="#d6d2c9" stroke="#bab6ad" stroke-width="0.4"></path><path d="M39.9,135.9 L40.0,138.8 L36.5,138.9 L33.0,139.0 L33.0,137.6 L24.7,137.9 L24.6,134.8 L24.5,131.7 L41.1,131.1 L41.2,135.8 L39.9,135.9 Z" fill="#d6d2c9" stroke="#bab6ad" stroke-width="0.4"></path><path d="M48.4,160.7 L28.6,161.4 L28.3,151.6 L48.0,150.9 L48.4,160.7 Z" fill="#d6d2c9" stroke="#bab6ad" stroke-width="0.4"></path><path d="M192.9,181.8 L193.1,189.3 L178.2,189.8 L178.1,187.1 L175.7,187.2 L175.6,182.3 L192.9,181.8 Z" fill="#d6d2c9" stroke="#bab6ad" stroke-width="0.4"></path><path d="M200.0,88.6 L187.4,89.0 L187.2,82.9 L199.8,82.5 L200.0,88.6 Z" fill="#d6d2c9" stroke="#bab6ad" stroke-width="0.4"></path><path d="M95.0,148.7 L95.1,150.4 L102.6,150.0 L102.9,156.7 L82.9,157.6 L82.5,149.2 L95.0,148.7 Z" fill="#d6d2c9" stroke="#bab6ad" stroke-width="0.4"></path><path d="M200.0,210.0 L178.0,210.8 L177.8,203.2 L199.7,202.3 L200.0,210.0 Z" fill="#d6d2c9" stroke="#bab6ad" stroke-width="0.4"></path><path d="M52.9,41.9 L53.6,51.9 L50.7,52.1 L50.7,51.6 L36.7,52.5 L36.3,46.4 L29.7,46.9 L29.6,46.3 L26.5,46.5 L26.5,47.1 L21.4,47.4 L21.2,44.0 L52.9,41.9 Z" fill="#d6d2c9" stroke="#bab6ad" stroke-width="0.4"></path><path d="M28.8,76.9 L20.6,77.3 L20.1,66.3 L28.2,65.9 L28.8,76.9 Z" fill="#d6d2c9" stroke="#bab6ad" stroke-width="0.4"></path><path d="M108.6,63.7 L109.0,80.2 L100.0,80.4 L99.7,70.8 L96.3,70.8 L96.1,64.3 L99.6,63.9 L108.6,63.7 Z" fill="#d6d2c9" stroke="#bab6ad" stroke-width="0.4"></path><path d="M206.7,92.5 L202.0,92.8 L201.6,83.7 L206.2,83.5 L206.7,92.5 Z" fill="#d6d2c9" stroke="#bab6ad" stroke-width="0.4"></path><path d="M128.7,219.9 L128.8,222.6 L131.6,222.5 L131.7,224.7 L131.7,226.9 L119.9,227.3 L119.6,215.6 L130.3,215.3 L130.4,217.6 L130.4,219.8 L128.7,219.9 Z" fill="#d6d2c9" stroke="#bab6ad" stroke-width="0.4"></path><path d="M98.4,170.2 L83.4,170.6 L83.1,162.8 L98.2,162.3 L98.4,170.2 Z" fill="#d6d2c9" stroke="#bab6ad" stroke-width="0.4"></path><path d="M237.2,173.4 L237.3,175.0 L242.5,174.8 L242.7,178.4 L244.7,178.4 L245.0,186.8 L230.5,187.2 L230.1,175.2 L233.7,175.1 L233.6,173.5 L237.2,173.4 Z" fill="#d6d2c9" stroke="#bab6ad" stroke-width="0.4"></path><path d="M244.8,136.9 L233.3,137.4 L232.7,125.5 L243.2,125.0 L243.1,124.0 L246.7,123.9 L246.8,126.9 L244.4,127.0 L244.8,136.9 Z" fill="#d6d2c9" stroke="#bab6ad" stroke-width="0.4"></path><path d="M244.6,97.8 L230.4,98.3 L230.1,90.8 L244.3,90.3 L244.6,97.8 Z" fill="#d6d2c9" stroke="#bab6ad" stroke-width="0.4"></path><path d="M242.6,234.8 L242.7,236.1 L243.3,236.0 L243.6,243.3 L226.2,244.0 L226.0,238.6 L232.5,238.4 L232.4,236.5 L238.4,236.2 L238.4,234.9 L242.6,234.8 Z" fill="#d6d2c9" stroke="#bab6ad" stroke-width="0.4"></path><path d="M1.9,89.5 L2.0,92.6 L9.2,92.4 L9.3,97.0 L9.4,101.7 L7.9,101.7 L7.9,103.8 L-5.2,104.2 L-5.3,101.4 L-16.3,101.8 L-16.4,97.9 L-16.5,94.0 L-6.7,93.7 L-6.8,92.8 L-4.3,92.8 L-4.4,89.7 L1.9,89.5 Z" fill="#d6d2c9" stroke="#bab6ad" stroke-width="0.4"></path><path d="M249.6,256.4 L238.5,256.7 L238.2,247.9 L249.3,247.5 L249.6,256.4 Z" fill="#d6d2c9" stroke="#bab6ad" stroke-width="0.4"></path><path d="M90.6,184.0 L90.7,185.9 L94.7,185.8 L94.7,187.5 L98.4,187.4 L98.6,191.4 L82.5,192.0 L82.5,190.9 L80.5,190.9 L80.3,185.3 L82.3,185.2 L82.3,184.3 L90.6,184.0 Z" fill="#d6d2c9" stroke="#bab6ad" stroke-width="0.4"></path><path d="M125.7,85.1 L125.9,92.9 L126.9,92.9 L126.9,96.5 L125.5,96.5 L125.7,103.7 L123.0,103.8 L123.1,105.1 L120.6,105.2 L120.6,103.9 L117.6,104.0 L117.5,96.9 L118.2,96.9 L117.9,85.3 L125.7,85.1 Z" fill="#d6d2c9" stroke="#bab6ad" stroke-width="0.4"></path><path d="M101.7,206.1 L102.1,213.5 L102.1,213.9 L85.3,214.6 L85.2,211.7 L83.0,211.8 L82.7,206.9 L101.7,206.1 Z" fill="#d6d2c9" stroke="#bab6ad" stroke-width="0.4"></path><path d="M155.8,225.0 L139.3,225.4 L139.1,217.4 L155.6,217.0 L155.8,225.0 Z" fill="#d6d2c9" stroke="#bab6ad" stroke-width="0.4"></path><path d="M136.5,127.4 L136.5,128.2 L147.6,127.8 L148.1,141.0 L139.7,141.3 L139.5,135.5 L138.2,135.5 L138.2,134.3 L130.4,134.6 L130.2,127.7 L136.5,127.4 Z" fill="#d6d2c9" stroke="#bab6ad" stroke-width="0.4"></path><path d="M53.3,134.2 L53.4,138.7 L54.3,138.6 L54.4,141.0 L54.5,143.4 L42.7,143.9 L42.1,129.9 L53.9,129.4 L54.0,131.8 L54.1,134.2 L53.3,134.2 Z" fill="#d6d2c9" stroke="#bab6ad" stroke-width="0.4"></path><path d="M156.4,168.9 L156.6,175.6 L154.1,175.7 L154.3,179.4 L137.1,180.1 L136.8,173.1 L122.9,173.9 L122.8,170.3 L156.4,168.9 Z" fill="#d6d2c9" stroke="#bab6ad" stroke-width="0.4"></path><path d="M86.9,64.8 L87.0,69.5 L90.5,69.4 L90.5,71.1 L93.0,71.0 L93.1,75.1 L89.9,75.2 L90.0,78.6 L89.1,78.6 L89.1,80.6 L93.8,80.5 L93.8,78.8 L97.1,78.8 L97.1,80.4 L99.3,80.3 L99.4,84.9 L85.0,85.1 L84.9,84.3 L80.6,84.4 L80.6,81.0 L78.7,81.1 L78.7,78.7 L79.5,78.7 L79.4,74.4 L80.5,74.3 L80.4,69.1 L79.5,69.1 L79.4,64.9 L86.9,64.8 Z" fill="#d6d2c9" stroke="#bab6ad" stroke-width="0.4"></path><path d="M91.3,203.1 L83.1,203.4 L82.8,195.7 L93.9,195.2 L94.2,201.8 L91.2,201.9 L91.3,203.1 Z" fill="#d6d2c9" stroke="#bab6ad" stroke-width="0.4"></path><path d="M228.0,223.7 L228.1,226.3 L230.3,226.3 L230.3,227.5 L232.3,227.4 L232.3,229.1 L232.4,230.7 L230.5,230.7 L230.5,232.0 L214.8,232.6 L214.5,224.1 L228.0,223.7 Z" fill="#d6d2c9" stroke="#bab6ad" stroke-width="0.4"></path><path d="M114.3,226.4 L100.7,226.8 L100.4,217.8 L109.4,217.5 L109.4,216.4 L114.0,216.2 L114.3,226.4 Z" fill="#d6d2c9" stroke="#bab6ad" stroke-width="0.4"></path><path d="M206.7,212.9 L206.9,217.9 L205.4,217.9 L205.7,223.9 L193.9,224.4 L193.6,216.9 L192.2,216.9 L192.1,213.9 L206.7,212.9 Z" fill="#d6d2c9" stroke="#bab6ad" stroke-width="0.4"></path><path d="M246.2,210.0 L236.3,210.4 L235.9,201.4 L247.1,200.9 L247.3,206.5 L246.0,206.5 L246.2,210.0 Z" fill="#d6d2c9" stroke="#bab6ad" stroke-width="0.4"></path><path d="M188.2,70.0 L174.3,70.5 L174.1,65.6 L173.9,60.7 L187.9,60.2 L188.1,65.1 L188.2,70.0 Z" fill="#d6d2c9" stroke="#bab6ad" stroke-width="0.4"></path><path d="M226.0,98.4 L208.5,99.1 L208.1,88.3 L225.6,87.6 L226.0,98.4 Z" fill="#d6d2c9" stroke="#bab6ad" stroke-width="0.4"></path><path d="M245.2,221.5 L227.4,222.2 L227.3,217.9 L227.1,213.6 L244.9,212.9 L245.1,217.2 L245.2,221.5 Z" fill="#d6d2c9" stroke="#bab6ad" stroke-width="0.4"></path><path d="M197.3,177.3 L178.9,177.9 L178.8,173.8 L178.7,169.7 L197.0,169.2 L197.1,173.2 L197.3,177.3 Z" fill="#d6d2c9" stroke="#bab6ad" stroke-width="0.4"></path><path d="M84.2,109.0 L80.0,109.2 L79.5,99.1 L96.5,98.2 L96.8,104.0 L87.9,104.4 L88.0,105.8 L84.1,106.0 L84.2,109.0 Z" fill="#d6d2c9" stroke="#bab6ad" stroke-width="0.4"></path><path d="M196.7,143.3 L177.3,143.9 L177.0,135.8 L185.1,135.6 L185.0,134.4 L196.4,134.1 L196.7,143.3 Z" fill="#d6d2c9" stroke="#bab6ad" stroke-width="0.4"></path><path d="M198.5,238.0 L198.6,240.7 L204.5,240.1 L205.0,245.4 L200.7,245.8 L200.7,243.9 L198.7,244.0 L198.8,246.6 L180.1,247.3 L179.8,238.7 L198.5,238.0 Z" fill="#d6d2c9" stroke="#bab6ad" stroke-width="0.4"></path><path d="M206.1,247.6 L206.1,248.5 L211.7,248.3 L211.9,256.7 L194.7,257.3 L194.7,256.2 L186.1,256.5 L186.1,257.1 L179.3,257.3 L179.1,249.3 L194.5,248.8 L194.5,248.0 L206.1,247.6 Z" fill="#d6d2c9" stroke="#bab6ad" stroke-width="0.4"></path><path d="M197.8,225.6 L197.8,226.4 L200.3,226.3 L200.7,232.5 L198.1,232.6 L198.2,233.7 L178.3,234.3 L178.3,233.7 L175.9,233.8 L175.7,227.5 L178.1,227.4 L178.1,226.2 L197.8,225.6 Z" fill="#d6d2c9" stroke="#bab6ad" stroke-width="0.4"></path><path d="M51.5,65.1 L51.5,65.8 L54.3,65.6 L55.0,75.4 L35.8,76.7 L35.0,66.2 L51.5,65.1 Z" fill="#d6d2c9" stroke="#bab6ad" stroke-width="0.4"></path><path d="M53.6,108.5 L40.1,108.8 L39.9,102.0 L53.5,101.8 L53.6,108.5 Z" fill="#d6d2c9" stroke="#bab6ad" stroke-width="0.4"></path><path d="M196.2,71.3 L196.2,72.4 L197.9,72.4 L198.1,80.3 L196.5,80.3 L196.5,81.1 L177.9,81.8 L177.7,75.8 L178.7,75.8 L178.6,71.9 L196.2,71.3 Z" fill="#d6d2c9" stroke="#bab6ad" stroke-width="0.4"></path><path d="M198.7,200.9 L179.7,201.6 L179.4,193.0 L198.4,192.3 L198.7,200.9 Z" fill="#d6d2c9" stroke="#bab6ad" stroke-width="0.4"></path><path d="M3.2,216.0 L-2.4,216.2 L-18.5,216.8" fill="none" stroke="#cec8bb" stroke-width="3.2" stroke-linecap="round" stroke-linejoin="round"/><path d="M3.2,216.0 L-2.4,216.2 L-18.5,216.8" fill="none" stroke="#ffffff" stroke-width="2.2" stroke-linecap="round" stroke-linejoin="round"></path><path d="M-18.1,234.2 L-1.6,233.6 L3.6,233.5" fill="none" stroke="#cec8bb" stroke-width="3.2" stroke-linecap="round" stroke-linejoin="round"/><path d="M-18.1,234.2 L-1.6,233.6 L3.6,233.5" fill="none" stroke="#ffffff" stroke-width="2.2" stroke-linecap="round" stroke-linejoin="round"></path><path d="M165.9,213.1 L137.9,213.1" fill="none" stroke="#cec8bb" stroke-width="3.2" stroke-linecap="round" stroke-linejoin="round"/><path d="M165.9,213.1 L137.9,213.1" fill="none" stroke="#ffffff" stroke-width="2.2" stroke-linecap="round" stroke-linejoin="round"></path><path d="M166.7,240.7 L158.5,240.9 L133.2,241.4" fill="none" stroke="#cec8bb" stroke-width="3.2" stroke-linecap="round" stroke-linejoin="round"/><path d="M166.7,240.7 L158.5,240.9 L133.2,241.4" fill="none" stroke="#ffffff" stroke-width="2.2" stroke-linecap="round" stroke-linejoin="round"></path><path d="M164.2,153.6 L154.4,153.8 L125.0,154.5 L121.9,155.3 L120.6,157.2 L120.6,162.2 L120.7,164.6 L122.1,167.1 L124.5,168.4 L129.8,168.5 L137.5,168.2 L150.2,167.6 L152.5,167.2 L154.1,166.9 L155.4,166.8 L164.5,166.0" fill="none" stroke="#cec8bb" stroke-width="3.2" stroke-linecap="round" stroke-linejoin="round"/><path d="M164.2,153.6 L154.4,153.8 L125.0,154.5 L121.9,155.3 L120.6,157.2 L120.6,162.2 L120.7,164.6 L122.1,167.1 L124.5,168.4 L129.8,168.5 L137.5,168.2 L150.2,167.6 L152.5,167.2 L154.1,166.9 L155.4,166.8 L164.5,166.0" fill="none" stroke="#ffffff" stroke-width="2.2" stroke-linecap="round" stroke-linejoin="round"></path><path d="M73.4,309.2 L73.1,300.9 L72.6,287.0 L66.7,118.0 L65.0,51.3" fill="none" stroke="#cec8bb" stroke-width="4.3" stroke-linecap="round" stroke-linejoin="round"/><path d="M73.4,309.2 L73.1,300.9 L72.6,287.0 L66.7,118.0 L65.0,51.3" fill="none" stroke="#ffffff" stroke-width="3.2" stroke-linecap="round" stroke-linejoin="round"><title>Northwest 23rd Court</title></path><path d="M264.0,304.2 L262.3,276.8 L261.7,267.9 L261.6,262.6 L255.3,111.8 L253.5,65.4" fill="none" stroke="#cec8bb" stroke-width="4.3" stroke-linecap="round" stroke-linejoin="round"/><path d="M264.0,304.2 L262.3,276.8 L261.7,267.9 L261.6,262.6 L255.3,111.8 L253.5,65.4" fill="none" stroke="#ffffff" stroke-width="3.2" stroke-linecap="round" stroke-linejoin="round"><title>Northwest 22nd Court</title></path><path d="M310.8,109.5 L290.9,110.3 L275.9,110.6 L255.3,111.8 L163.1,114.7 L66.7,118.0 L-30.4,121.9 L-120.6,124.8" fill="none" stroke="#cec8bb" stroke-width="4.3" stroke-linecap="round" stroke-linejoin="round"/><path d="M310.8,109.5 L290.9,110.3 L275.9,110.6 L255.3,111.8 L163.1,114.7 L66.7,118.0 L-30.4,121.9 L-120.6,124.8" fill="none" stroke="#ffffff" stroke-width="3.2" stroke-linecap="round" stroke-linejoin="round"><title>Northwest 38th Street</title></path><path d="M-23.6,304.0 L-24.5,284.8 L-25.9,241.0 L-26.1,234.5 L-26.8,216.4 L-30.4,121.9 L-30.8,49.7" fill="none" stroke="#cec8bb" stroke-width="4.3" stroke-linecap="round" stroke-linejoin="round"/><path d="M-23.6,304.0 L-24.5,284.8 L-25.9,241.0 L-26.1,234.5 L-26.8,216.4 L-30.4,121.9 L-30.8,49.7" fill="none" stroke="#ffffff" stroke-width="3.2" stroke-linecap="round" stroke-linejoin="round"><title>Northwest 24th Avenue</title></path><path d="M167.5,306.1 L168.2,294.7 L167.1,270.9 L166.7,240.7 L165.9,213.1 L164.5,166.0 L164.2,153.6 L163.1,114.7 L161.4,56.7" fill="none" stroke="#cec8bb" stroke-width="4.3" stroke-linecap="round" stroke-linejoin="round"/><path d="M167.5,306.1 L168.2,294.7 L167.1,270.9 L166.7,240.7 L165.9,213.1 L164.5,166.0 L164.2,153.6 L163.1,114.7 L161.4,56.7" fill="none" stroke="#ffffff" stroke-width="3.2" stroke-linecap="round" stroke-linejoin="round"><title>Northwest 23rd Avenue</title></path><path d="M80.4,25.9 L117.6,33.6 L270.8,52.6 L317.6,57.6" fill="none" stroke="#d87a99" stroke-width="7.1" stroke-linecap="round" stroke-linejoin="round"/><path d="M80.4,25.9 L117.6,33.6 L270.8,52.6 L317.6,57.6" fill="none" stroke="#e88fa8" stroke-width="5.3" stroke-linecap="round" stroke-linejoin="round"></path><path d="M80.4,25.9 L117.6,33.6 L270.8,52.6 L317.6,57.6" fill="none" stroke="#fff8ef" stroke-width="1.3" stroke-dasharray="5.5 6.5" opacity="0.82" stroke-linecap="round" stroke-linejoin="round"/><path d="M322.5,6.3 L198.8,10.2 L57.5,10.4" fill="none" stroke="#d87a99" stroke-width="9.9" stroke-linecap="round" stroke-linejoin="round"/><path d="M322.5,6.3 L198.8,10.2 L57.5,10.4" fill="none" stroke="#e88fa8" stroke-width="8.1" stroke-linecap="round" stroke-linejoin="round"><title>Airport Expressway</title></path><path d="M322.5,6.3 L198.8,10.2 L57.5,10.4" fill="none" stroke="#fff8ef" stroke-width="1.9" stroke-dasharray="5.5 6.5" opacity="0.82" stroke-linecap="round" stroke-linejoin="round"/><path d="M80.4,25.9 L196.4,25.4 L323.2,22.5" fill="none" stroke="#d87a99" stroke-width="9.9" stroke-linecap="round" stroke-linejoin="round"/><path d="M80.4,25.9 L196.4,25.4 L323.2,22.5" fill="none" stroke="#e88fa8" stroke-width="8.1" stroke-linecap="round" stroke-linejoin="round"><title>Airport Expressway</title></path><path d="M80.4,25.9 L196.4,25.4 L323.2,22.5" fill="none" stroke="#fff8ef" stroke-width="1.9" stroke-dasharray="5.5 6.5" opacity="0.82" stroke-linecap="round" stroke-linejoin="round"/><path d="M311.8,-28.3 L302.7,-24.4 L225.2,-10.6 L157.2,-0.2 L126.2,2.5 L57.5,10.4" fill="none" stroke="#d87a99" stroke-width="7.1" stroke-linecap="round" stroke-linejoin="round"/><path d="M311.8,-28.3 L302.7,-24.4 L225.2,-10.6 L157.2,-0.2 L126.2,2.5 L57.5,10.4" fill="none" stroke="#e88fa8" stroke-width="5.3" stroke-linecap="round" stroke-linejoin="round"></path><path d="M311.8,-28.3 L302.7,-24.4 L225.2,-10.6 L157.2,-0.2 L126.2,2.5 L57.5,10.4" fill="none" stroke="#fff8ef" stroke-width="1.3" stroke-dasharray="5.5 6.5" opacity="0.82" stroke-linecap="round" stroke-linejoin="round"/><path d="M-20.9,23.1 L22.0,24.6 L80.4,25.9" fill="none" stroke="#d87a99" stroke-width="9.9" stroke-linecap="round" stroke-linejoin="round"/><path d="M-20.9,23.1 L22.0,24.6 L80.4,25.9" fill="none" stroke="#e88fa8" stroke-width="8.1" stroke-linecap="round" stroke-linejoin="round"><title>Airport Expressway</title></path><path d="M-20.9,23.1 L22.0,24.6 L80.4,25.9" fill="none" stroke="#fff8ef" stroke-width="1.9" stroke-dasharray="5.5 6.5" opacity="0.82" stroke-linecap="round" stroke-linejoin="round"/><path d="M35.1,9.2 L22.8,8.6 L-42.8,6.2 L-163.6,-1.0" fill="none" stroke="#d87a99" stroke-width="9.9" stroke-linecap="round" stroke-linejoin="round"/><path d="M35.1,9.2 L22.8,8.6 L-42.8,6.2 L-163.6,-1.0" fill="none" stroke="#e88fa8" stroke-width="8.1" stroke-linecap="round" stroke-linejoin="round"><title>Airport Expressway</title></path><path d="M35.1,9.2 L22.8,8.6 L-42.8,6.2 L-163.6,-1.0" fill="none" stroke="#fff8ef" stroke-width="1.9" stroke-dasharray="5.5 6.5" opacity="0.82" stroke-linecap="round" stroke-linejoin="round"/><path d="M57.5,10.4 L35.1,9.2" fill="none" stroke="#d87a99" stroke-width="9.9" stroke-linecap="round" stroke-linejoin="round"/><path d="M57.5,10.4 L35.1,9.2" fill="none" stroke="#e88fa8" stroke-width="8.1" stroke-linecap="round" stroke-linejoin="round"><title>Airport Expressway</title></path><path d="M57.5,10.4 L35.1,9.2" fill="none" stroke="#fff8ef" stroke-width="1.9" stroke-dasharray="5.5 6.5" opacity="0.82" stroke-linecap="round" stroke-linejoin="round"/><g transform="translate(138.4 25.6) rotate(-0.3)"><path d="M -3.6 -3.2 L 4.4 0 L -3.6 3.2 Z" fill="#58656d" opacity="0.46"/></g><text x="131.2" y="79.5" text-anchor="middle" font-family="Arial, sans-serif" font-size="8" font-weight="600" paint-order="stroke" stroke="#edf5ec" stroke-width="1.9" stroke-linejoin="round" fill="#5c806b" textLength="76.8" lengthAdjust="spacing">Lavernia School</text><g><rect x="117.9" y="18.1" width="41.0" height="15.0" rx="3" fill="#f7fbff" stroke="#4f78a7" stroke-width="1"/><text x="138.4" y="26.0" text-anchor="middle" dominant-baseline="central" font-family="Arial, sans-serif" font-size="8.2" font-weight="700" fill="#315d8b">SR 112</text></g><g><rect x="30.7" y="17.7" width="41.0" height="15.0" rx="3" fill="#f7fbff" stroke="#4f78a7" stroke-width="1"/><text x="51.2" y="25.6" text-anchor="middle" dominant-baseline="central" font-family="Arial, sans-serif" font-size="8.2" font-weight="700" fill="#315d8b">SR 112</text></g><text x="68.8" y="179.0" transform="rotate(88.0 68.8 179.0)" text-anchor="middle" dominant-baseline="central" font-family="Arial, sans-serif" font-size="8.3" textLength="106.2" lengthAdjust="spacing" font-weight="650" paint-order="stroke" stroke="#fffaf0" stroke-width="2.05" stroke-linejoin="round" fill="#695f54">Northwest 23rd Court</text><text x="49.4" y="245.8" text-anchor="middle" font-family="Arial, sans-serif" font-size="6.5" textLength="18.0" lengthAdjust="spacing" font-weight="500" paint-order="stroke" stroke="#f3f5ee" stroke-width="1.55" stroke-linejoin="round" fill="#6f777a">3640</text><text x="48.6" y="212.9" text-anchor="middle" font-family="Arial, sans-serif" font-size="6.5" textLength="18.0" lengthAdjust="spacing" font-weight="500" paint-order="stroke" stroke="#f3f5ee" stroke-width="1.55" stroke-linejoin="round" fill="#6f777a">3680</text><text x="15.0" y="190.2" text-anchor="middle" font-family="Arial, sans-serif" font-size="6.5" textLength="18.0" lengthAdjust="spacing" font-weight="500" paint-order="stroke" stroke="#f3f5ee" stroke-width="1.55" stroke-linejoin="round" fill="#6f777a">3711</text><text x="44.4" y="167.3" text-anchor="middle" font-family="Arial, sans-serif" font-size="6.5" textLength="18.0" lengthAdjust="spacing" font-weight="500" paint-order="stroke" stroke="#f3f5ee" stroke-width="1.55" stroke-linejoin="round" fill="#6f777a">3722</text><text x="138.0" y="161.3" text-anchor="middle" font-family="Arial, sans-serif" font-size="6.5" textLength="18.0" lengthAdjust="spacing" font-weight="500" paint-order="stroke" stroke="#f3f5ee" stroke-width="1.55" stroke-linejoin="round" fill="#6f777a">3738</text><text x="146.5" y="246.0" text-anchor="middle" font-family="Arial, sans-serif" font-size="6.5" textLength="18.0" lengthAdjust="spacing" font-weight="500" paint-order="stroke" stroke="#f3f5ee" stroke-width="1.55" stroke-linejoin="round" fill="#6f777a">3620</text><text x="95.6" y="244.9" text-anchor="middle" font-family="Arial, sans-serif" font-size="6.5" textLength="18.0" lengthAdjust="spacing" font-weight="500" paint-order="stroke" stroke="#f3f5ee" stroke-width="1.55" stroke-linejoin="round" fill="#6f777a">3621</text><text x="183.6" y="128.5" text-anchor="middle" font-family="Arial, sans-serif" font-size="6.5" textLength="18.0" lengthAdjust="spacing" font-weight="500" paint-order="stroke" stroke="#f3f5ee" stroke-width="1.55" stroke-linejoin="round" fill="#6f777a">2290</text><text x="222.7" y="133.1" text-anchor="middle" font-family="Arial, sans-serif" font-size="6.5" textLength="18.0" lengthAdjust="spacing" font-weight="500" paint-order="stroke" stroke="#f3f5ee" stroke-width="1.55" stroke-linejoin="round" fill="#6f777a">2240</text><text x="48.8" y="190.5" text-anchor="middle" font-family="Arial, sans-serif" font-size="6.5" textLength="18.0" lengthAdjust="spacing" font-weight="500" paint-order="stroke" stroke="#f3f5ee" stroke-width="1.55" stroke-linejoin="round" fill="#6f777a">3710</text><text x="238.3" y="158.7" text-anchor="middle" font-family="Arial, sans-serif" font-size="6.5" textLength="18.0" lengthAdjust="spacing" font-weight="500" paint-order="stroke" stroke="#f3f5ee" stroke-width="1.55" stroke-linejoin="round" fill="#6f777a">3724</text><text x="99.1" y="176.6" text-anchor="middle" font-family="Arial, sans-serif" font-size="6.5" textLength="18.0" lengthAdjust="spacing" font-weight="500" paint-order="stroke" stroke="#f3f5ee" stroke-width="1.55" stroke-linejoin="round" fill="#6f777a">3715</text><text x="182.3" y="186.3" text-anchor="middle" font-family="Arial, sans-serif" font-size="6.5" textLength="18.0" lengthAdjust="spacing" font-weight="500" paint-order="stroke" stroke="#f3f5ee" stroke-width="1.55" stroke-linejoin="round" fill="#6f777a">3715</text><text x="193.6" y="85.7" text-anchor="middle" font-family="Arial, sans-serif" font-size="6.5" textLength="18.0" lengthAdjust="spacing" font-weight="500" paint-order="stroke" stroke="#f3f5ee" stroke-width="1.55" stroke-linejoin="round" fill="#6f777a">3801</text><text x="93.5" y="152.1" text-anchor="middle" font-family="Arial, sans-serif" font-size="6.5" textLength="18.0" lengthAdjust="spacing" font-weight="500" paint-order="stroke" stroke="#f3f5ee" stroke-width="1.55" stroke-linejoin="round" fill="#6f777a">3735</text><text x="188.9" y="206.6" text-anchor="middle" font-family="Arial, sans-serif" font-size="6.5" textLength="18.0" lengthAdjust="spacing" font-weight="500" paint-order="stroke" stroke="#f3f5ee" stroke-width="1.55" stroke-linejoin="round" fill="#6f777a">3651</text><text x="36.3" y="47.9" text-anchor="middle" font-family="Arial, sans-serif" font-size="6.5" textLength="18.0" lengthAdjust="spacing" font-weight="500" paint-order="stroke" stroke="#f3f5ee" stroke-width="1.55" stroke-linejoin="round" fill="#6f777a">3910</text><text x="237.7" y="177.8" text-anchor="middle" font-family="Arial, sans-serif" font-size="6.5" textLength="18.0" lengthAdjust="spacing" font-weight="500" paint-order="stroke" stroke="#f3f5ee" stroke-width="1.55" stroke-linejoin="round" fill="#6f777a">3720</text><text x="237.3" y="94.3" text-anchor="middle" font-family="Arial, sans-serif" font-size="6.5" textLength="18.0" lengthAdjust="spacing" font-weight="500" paint-order="stroke" stroke="#f3f5ee" stroke-width="1.55" stroke-linejoin="round" fill="#6f777a">2255</text><text x="236.6" y="237.9" text-anchor="middle" font-family="Arial, sans-serif" font-size="6.5" textLength="18.0" lengthAdjust="spacing" font-weight="500" paint-order="stroke" stroke="#f3f5ee" stroke-width="1.55" stroke-linejoin="round" fill="#6f777a">3630</text><text x="122.5" y="97.8" text-anchor="middle" font-family="Arial, sans-serif" font-size="6.5" textLength="18.0" lengthAdjust="spacing" font-weight="500" paint-order="stroke" stroke="#f3f5ee" stroke-width="1.55" stroke-linejoin="round" fill="#6f777a">2311</text><text x="91.7" y="211.2" text-anchor="middle" font-family="Arial, sans-serif" font-size="6.5" textLength="18.0" lengthAdjust="spacing" font-weight="500" paint-order="stroke" stroke="#f3f5ee" stroke-width="1.55" stroke-linejoin="round" fill="#6f777a">3655</text><text x="147.4" y="221.2" text-anchor="middle" font-family="Arial, sans-serif" font-size="6.5" textLength="18.0" lengthAdjust="spacing" font-weight="500" paint-order="stroke" stroke="#f3f5ee" stroke-width="1.55" stroke-linejoin="round" fill="#6f777a">3644</text><text x="138.5" y="133.3" text-anchor="middle" font-family="Arial, sans-serif" font-size="6.5" textLength="18.0" lengthAdjust="spacing" font-weight="500" paint-order="stroke" stroke="#f3f5ee" stroke-width="1.55" stroke-linejoin="round" fill="#6f777a">3770</text><text x="241.0" y="206.0" text-anchor="middle" font-family="Arial, sans-serif" font-size="6.5" textLength="18.0" lengthAdjust="spacing" font-weight="500" paint-order="stroke" stroke="#f3f5ee" stroke-width="1.55" stroke-linejoin="round" fill="#6f777a">3652</text><text x="181.1" y="65.4" text-anchor="middle" font-family="Arial, sans-serif" font-size="6.5" textLength="18.0" lengthAdjust="spacing" font-weight="500" paint-order="stroke" stroke="#f3f5ee" stroke-width="1.55" stroke-linejoin="round" fill="#6f777a">3901</text><text x="217.1" y="93.4" text-anchor="middle" font-family="Arial, sans-serif" font-size="6.5" textLength="18.0" lengthAdjust="spacing" font-weight="500" paint-order="stroke" stroke="#f3f5ee" stroke-width="1.55" stroke-linejoin="round" fill="#6f777a">2265</text><text x="87.1" y="104.5" text-anchor="middle" font-family="Arial, sans-serif" font-size="6.5" textLength="18.0" lengthAdjust="spacing" font-weight="500" paint-order="stroke" stroke="#f3f5ee" stroke-width="1.55" stroke-linejoin="round" fill="#6f777a">3801</text><text x="196.5" y="243.1" text-anchor="middle" font-family="Arial, sans-serif" font-size="6.5" textLength="18.0" lengthAdjust="spacing" font-weight="500" paint-order="stroke" stroke="#f3f5ee" stroke-width="1.55" stroke-linejoin="round" fill="#6f777a">3627</text><text x="47.2" y="69.1" text-anchor="middle" font-family="Arial, sans-serif" font-size="6.5" textLength="18.0" lengthAdjust="spacing" font-weight="500" paint-order="stroke" stroke="#f3f5ee" stroke-width="1.55" stroke-linejoin="round" fill="#6f777a">3806</text><text x="46.8" y="105.3" text-anchor="middle" font-family="Arial, sans-serif" font-size="6.5" textLength="18.0" lengthAdjust="spacing" font-weight="500" paint-order="stroke" stroke="#f3f5ee" stroke-width="1.55" stroke-linejoin="round" fill="#6f777a">3802</text><text x="90.7" y="51.6" text-anchor="middle" font-family="Arial, sans-serif" font-size="6.5" textLength="18.0" lengthAdjust="spacing" font-weight="500" paint-order="stroke" stroke="#f3f5ee" stroke-width="1.55" stroke-linejoin="round" fill="#6f777a">3811</text><text x="132.3" y="53.0" text-anchor="middle" font-family="Arial, sans-serif" font-size="6.5" textLength="18.0" lengthAdjust="spacing" font-weight="500" paint-order="stroke" stroke="#f3f5ee" stroke-width="1.55" stroke-linejoin="round" fill="#6f777a">3910</text><text x="137.4" y="193.5" text-anchor="middle" font-family="Arial, sans-serif" font-size="6.5" textLength="18.0" lengthAdjust="spacing" font-weight="500" paint-order="stroke" stroke="#f3f5ee" stroke-width="1.55" stroke-linejoin="round" fill="#6f777a">3702</text><text x="190.4" y="157.2" text-anchor="middle" font-family="Arial, sans-serif" font-size="6.5" textLength="18.0" lengthAdjust="spacing" font-weight="500" paint-order="stroke" stroke="#f3f5ee" stroke-width="1.55" stroke-linejoin="round" fill="#6f777a">3757</text><text x="228.5" y="74.3" text-anchor="middle" font-family="Arial, sans-serif" font-size="6.5" textLength="18.0" lengthAdjust="spacing" font-weight="500" paint-order="stroke" stroke="#f3f5ee" stroke-width="1.55" stroke-linejoin="round" fill="#6f777a">3804</text><text x="15.0" y="225.5" text-anchor="middle" font-family="Arial, sans-serif" font-size="6.5" textLength="18.0" lengthAdjust="spacing" font-weight="500" paint-order="stroke" stroke="#f3f5ee" stroke-width="1.55" stroke-linejoin="round" fill="#6f777a">3633</text><text x="101.3" y="135.8" text-anchor="middle" font-family="Arial, sans-serif" font-size="6.5" textLength="18.0" lengthAdjust="spacing" font-weight="500" paint-order="stroke" stroke="#f3f5ee" stroke-width="1.55" stroke-linejoin="round" fill="#6f777a">3759</text></svg>