<svg xmlns="http://www.w3.org/2000/svg" width="256" height="256" viewBox="0 0 256 256"><rect width="256" height="256" fill="#f1efe7"/><path d="M-6661.4,9321.1 L-6554.0,9276.5 L-6520.4,9260.4 L-6370.1,9188.2 L-6341.9,9215.5 L-6339.4,9217.8 L-6286.8,9172.8 L-6274.2,9163.2 L-6253.3,9144.3 L-6135.2,9035.9 L-6039.9,8927.1 L-6036.3,8920.2 L-6032.8,8916.2 L-6027.2,8909.9 L-6021.6,8903.4 L-6019.3,8900.7 L-6056.9,8852.2 L-6007.2,8822.4 L-5980.2,8858.3 L-5942.1,8814.7 L-5974.4,8771.9 L-5934.4,8730.3 L-5903.7,8770.8 L-5868.3,8730.6 L-5853.3,8720.8 L-5779.7,8673.0 L-5743.3,8648.9 L-5699.5,8620.0 L-5678.8,8606.5 L-5626.4,8572.6 L-5639.9,8554.8 L-5664.1,8522.5 L-5601.6,8482.8 L-5578.8,8471.0 L-5577.1,8469.8 L-5565.1,8460.5 L-5522.3,8437.7 L-5519.3,8433.0 L-5507.3,8424.8 L-5500.8,8415.3 L-5499.0,8413.9 L-5488.6,8409.9 L-5464.9,8401.4 L-5448.8,8394.3 L-5391.7,8367.5 L-5391.0,8369.4 L-5343.2,8348.9 L-5323.7,8374.0 L-5280.1,8344.9 L-5273.9,8340.7 L-5273.3,8340.2 L-5272.7,8339.4 L-5271.8,8337.7 L-5271.2,8336.2 L-5271.0,8334.3 L-5271.0,8332.8 L-5271.2,8331.4 L-5271.4,8329.7 L-5271.5,8328.5 L-5271.4,8327.4 L-5271.1,8326.3 L-5270.3,8324.3 L-5269.8,8323.2 L-5268.6,8321.3 L-5267.2,8319.9 L-5260.9,8317.3 L-5255.6,8315.4 L-5248.8,8313.2 L-5245.7,8312.3 L-5240.1,8310.5 L-5236.1,8309.0 L-5230.7,8306.8 L-5223.3,8303.6 L-5215.3,8299.8 L-5211.0,8297.7 L-5205.6,8295.0 L-5200.6,8292.1 L-5195.5,8289.1 L-5190.4,8285.8 L-5188.8,8284.7 L-5178.4,8276.8 L-5169.7,8270.1 L-5161.2,8262.9 L-5153.2,8255.4 L-5147.5,8248.9 L-5141.8,8242.0 L-5134.8,8233.0 L-5128.4,8224.0 L-5121.1,8212.4 L-5116.3,8203.5 L-5113.3,8197.8 L-5108.8,8188.1 L-5105.1,8179.2 L-5101.7,8169.6 L-5099.0,8161.1 L-5096.1,8147.4 L-5093.9,8135.2 L-5092.7,8124.6 L-5091.8,8112.3 L-5091.6,8099.0 L-5092.5,8086.7 L-5094.6,8070.8 L-5096.7,8059.9 L-5099.3,8049.5 L-5102.9,8037.9 L-5106.1,8028.9 L-5109.7,8019.1 L-5113.1,8011.1 L-5115.4,8005.8 L-5116.4,8002.0 L-5116.5,7999.0 L-5116.2,7996.4 L-5115.1,7994.1 L-5113.5,7992.1 L-5111.4,7991.0 L-5109.2,7990.7 L-5103.1,7992.2 L-5086.3,7996.2 L-5080.7,7868.9 L-5058.8,7641.6 L-5082.6,7635.9 L-5085.2,7628.8 L-5085.1,7618.6 L-5081.8,7595.3 L-5077.3,7590.1 L-5073.3,7574.9 L-5048.1,7580.8 L-5034.1,7435.6 L-5030.3,7395.3 L-5038.1,7393.4 L-5033.4,7374.2 L-5049.6,7370.4 L-5047.5,7358.6 L-5044.7,7350.9 L-5041.1,7341.8 L-5035.1,7329.2 L-5028.7,7330.6 L-5019.9,7239.3 L-5017.9,7183.9 L-5017.5,7173.7 L-5012.8,7138.4 L-5003.4,7050.5 L-4941.0,6887.8 L-4926.8,6843.5 L-4753.5,6777.0 L-4736.5,6770.2 L-4733.6,6768.6 L-4731.2,6766.5 L-4728.7,6763.6 L-4726.8,6760.1 L-4725.5,6756.7 L-4725.1,6751.8 L-4725.4,6745.6 L-4727.7,6667.9 L-4728.6,6652.8 L-4728.8,6642.4 L-4729.1,6622.4 L-4729.5,6616.1 L-4730.3,6610.8 L-4731.4,6606.0 L-4732.9,6601.3 L-4735.3,6595.6 L-4738.9,6589.5 L-4742.5,6584.7 L-4745.2,6580.2 L-4747.9,6574.2 L-4750.2,6568.3 L-4751.1,6563.6 L-4751.8,6558.4 L-4752.1,6553.1 L-4752.0,6548.0 L-4751.4,6542.1 L-4750.0,6536.2 L-4748.1,6531.0 L-4746.2,6526.2 L-4743.7,6521.6 L-4740.7,6516.1 L-4738.6,6511.0 L-4736.9,6504.5 L-4733.7,6499.7 L-4734.8,6455.0 L-4736.4,6452.5 L-4737.0,6422.2 L-4737.8,6386.4 L-4737.2,6381.5 L-4735.6,6376.4 L-4731.6,6368.5 L-4704.9,6311.0 L-4704.3,6310.0 L-4699.6,6299.8 L-4695.1,6290.0 L-4690.2,6280.0 L-4685.2,6269.8 L-4682.8,6264.7 L-4656.6,6210.8 L-4628.5,6151.2 L-4567.6,6027.8 L-4604.2,5986.9 L-4634.0,6050.3 L-4659.8,6105.3 L-4663.7,6113.1 L-4671.6,6129.3 L-4687.5,6128.0 L-4691.9,6127.7 L-4693.4,6129.2 L-4691.3,6131.1 L-4699.5,6138.3 L-4705.9,6144.3 L-4707.1,6169.7 L-4709.5,6174.8 L-4717.3,6174.5 L-4718.6,6174.0 L-4820.8,6131.9 L-4823.0,6130.7 L-4825.4,6129.2 L-4829.0,6126.4 L-4831.9,6123.7 L-4834.3,6121.1 L-4836.6,6117.9 L-4838.4,6115.1 L-4839.8,6112.2 L-4841.0,6109.1 L-4841.7,6107.1 L-4842.2,6104.5 L-4842.7,6101.5 L-4843.1,6097.4 L-4843.1,6091.6 L-4843.8,6071.7 L-4841.0,6071.5 L-4841.4,6061.1 L-4841.8,6043.8 L-4839.2,6043.7 L-4839.4,6031.9 L-4842.3,6032.0 L-4843.7,5982.2 L-4840.9,5982.1 L-4841.4,5970.5 L-4844.1,5970.6 L-4845.2,5933.8 L-4831.7,5919.3 L-4814.5,5918.7 L-4801.6,5918.2 L-4784.7,5917.7 L-4768.4,5917.1 L-4753.7,5916.6 L-4747.4,5916.4 L-4747.7,5910.7 L-4747.8,5904.8 L-4748.8,5885.7 L-4749.1,5849.1 L-4749.6,5848.5 L-4749.7,5844.8 L-4748.6,5844.8 L-4751.2,5756.7 L-4753.4,5673.9 L-4753.8,5671.3 L-4754.0,5666.5 L-4790.1,5667.8 L-4814.1,5665.7 L-4993.7,5672.0 L-4993.7,5670.4 L-4994.1,5662.7 L-5079.3,5665.7 L-5079.5,5651.6 L-5090.7,5649.1 L-5092.7,5588.5 L-4761.3,5577.0 L-4755.8,5569.4 L-4756.0,5547.9 L-4756.4,5529.4 L-4756.7,5517.7 L-4757.2,5506.4 L-4783.5,5493.9 L-4784.6,5466.4 L-4757.5,5453.0 L-4760.0,5389.3 L-4760.7,5386.1 L-4787.5,5373.6 L-4788.4,5339.5 L-4762.9,5326.3 L-4774.3,5187.9 L-4771.2,5126.2 L-4769.8,5025.8 L-4769.9,4916.6 L-4767.5,4901.2 L-4767.3,4893.9 L-4769.7,4884.9 L-4767.2,4884.9 L-4767.2,4876.9 L-4765.7,4671.4 L-4765.9,4662.2 L-4768.8,4662.3 L-4768.7,4624.5 L-4770.4,4622.1 L-4772.9,4583.1 L-4767.8,4547.5 L-4768.5,4504.3 L-4770.2,4494.0 L-4767.6,4462.0 L-4769.4,4423.4 L-4773.9,4382.0 L-4782.4,4315.0 L-4778.4,4296.6 L-4780.1,4278.6 L-4795.4,4265.5 L-4817.9,4265.8 L-4852.1,4270.3 L-4874.3,4270.3 L-4894.6,4262.8 L-4921.1,4244.6 L-4921.1,4212.0 L-4921.8,4171.8 L-4919.2,4138.4 L-4910.4,4112.3 L-4763.0,4109.6 L-4759.7,3900.6 L-4759.7,3599.8 L-4761.2,3490.6 L3194.9,204.8 L3194.9,18313.9 L-6661.4,18313.9 L-6661.4,9321.1 Z" fill="#add7e1" stroke="none"><title>Biscayne Bay</title></path><path d="M779.4,-1006.4 L771.4,-1007.2 L760.2,-1005.6 L739.4,-1000.8 L718.6,-996.0 L689.0,-989.6 L653.0,-981.6 L629.0,-976.0 L617.8,-972.0 L611.4,-963.2 L587.4,-924.0 L561.8,-877.6 L527.4,-828.0 L495.4,-785.6 L463.4,-749.6 L437.0,-724.8 L403.4,-691.2 L368.2,-659.2 L344.2,-637.6 L313.8,-612.8 L294.6,-600.0 L251.4,-576.8 L211.4,-552.8 L185.8,-538.4 L158.6,-522.4 L141.0,-507.2 L132.2,-496.8 L128.2,-485.6 L127.4,-474.4 L129.0,-459.2 L137.0,-435.2 L143.4,-409.6 L148.7,-386.9 L149.0,-385.6 L149.8,-360.0 L149.0,-332.8 L142.6,-300.8 L137.0,-281.6 L126.6,-253.6 L117.8,-227.2 L110.6,-200.8 L105.0,-173.6 L103.4,-144.0 L105.0,-108.0 L105.3,-90.0 L109.0,-72.0 L117.8,-47.2 L133.0,-16.8 L184.2,64.0 L212.2,100.8 L246.6,154.4 L279.4,200.8 L321.0,268.8 L333.8,294.4 L349.8,343.2 L359.4,383.2 L363.4,419.2 L367.4,460.8 L366.6,499.2 L361.0,551.2 L356.2,582.4 L345.0,620.0 L335.4,650.4 L321.0,682.4 L307.4,706.4 L291.4,733.6 L271.4,765.6 L249.8,793.6 L228.2,816.0 L201.0,836.0 L164.2,857.6 L143.4,872.0 L121.0,890.4 L106.6,909.6 L85.0,938.4 L71.4,960.8 L59.4,991.2 L53.0,1016.8 L45.0,1045.6 L44.2,1076.0 L47.4,1100.8 L55.4,1118.4 L76.2,1142.4 L101.0,1174.4 L121.0,1203.2 L144.2,1226.4 L164.2,1241.6 L189.8,1274.4 L221.8,1309.6 L237.8,1323.2 L265.8,1338.4 L299.4,1349.6 L334.6,1355.2 L369.0,1356.8 L411.4,1353.6 L465.0,1352.0 L508.2,1348.8 L545.0,1347.2 L574.6,1352.8 L596.2,1364.8 L612.2,1379.2 L625.0,1396.8 L636.2,1405.6 L655.4,1412.8 L671.4,1410.4 L682.6,1408.8 L699.4,1396.8 L706.6,1386.4 L717.8,1362.4 L730.6,1332.0 L745.8,1290.4 L752.3,1259.7 L761.8,1228.6 L770.1,1194.9 L773.8,1172.0 L772.2,1143.2 L773.8,1120.8 L779.4,1105.6 L792.2,1092.0 L808.2,1081.6 L829.8,1077.6 L855.4,1076.0 L893.0,1071.2 L941.0,1064.8 L992.7,1056.2 L1001.1,1052.7 L1004.3,1045.7 L1005.7,1038.9 L1003.1,1021.3 L998.0,982.5 L992.2,931.2 L987.6,894.4 L985.7,842.5 L984.4,803.8 L984.5,763.1 L986.3,715.5 L982.9,669.6 L981.5,634.2 L981.6,616.4 L983.3,589.8 L983.7,567.1 L985.8,539.3 L986.8,521.8 L987.3,495.8 L989.6,475.0 L993.4,452.6 L998.7,426.9 L1006.5,396.5 L1015.0,370.4 L1020.4,354.9 L1025.6,344.1 L1037.6,319.4 L1046.7,300.0 L1051.1,290.9 L1053.0,270.4 L1053.8,238.4 L1052.2,208.8 L1047.4,184.0 L1043.4,153.6 L1036.9,120.4 L1036.4,104.0 L1036.8,86.1 L1041.0,64.8 L1047.4,44.8 L1050.6,28.0 L1049.8,12.0 L1045.8,-1.6 L1041.0,-15.2 L1037.0,-32.8 L1034.6,-53.6 L1033.8,-75.2 L1033.0,-106.4 L1033.8,-137.6 L1034.6,-172.0 L1032.0,-204.6 L1031.1,-228.4 L1028.4,-245.5 L1025.5,-258.7 L1020.2,-281.6 L1010.6,-306.4 L998.6,-338.4 L990.6,-368.0 L974.8,-408.9 L949.5,-477.1 L934.8,-519.4 L915.5,-557.2 L892.2,-622.5 L885.0,-651.2 L875.3,-674.8 L865.0,-706.4 L857.0,-738.4 L846.6,-776.0 L840.2,-800.0 L838.6,-816.0 L832.2,-833.6 L829.0,-853.6 L817.0,-885.6 L810.6,-909.6 L805.8,-936.0 L800.2,-961.6 L794.6,-982.4 L791.4,-994.4 L788.2,-1001.6 L779.4,-1006.4 Z" fill="#f1efe7" stroke="#8ab09d" stroke-width="0.65"></path><path d="M545.0,1347.2 L574.6,1352.8 L596.2,1364.8 L612.2,1379.2 L625.0,1396.8 L636.2,1405.6 L655.4,1412.8 L671.4,1410.4 L682.6,1408.8 L699.4,1396.8 L706.6,1386.4 L717.8,1362.4 L730.6,1332.0 L745.8,1290.4 L752.3,1259.7 L761.8,1228.6 L770.1,1194.9 L773.8,1172.0 L772.2,1143.2 L773.8,1120.8 L779.4,1105.6 L792.2,1092.0 L808.2,1081.6 L829.8,1077.6 L855.4,1076.0 L893.0,1071.2 L941.0,1064.8 L992.7,1056.2 L1001.1,1052.7 L1004.3,1045.7 L1005.7,1038.9 L1003.1,1021.3 L998.0,982.5 L992.2,931.2 L987.6,894.4 L985.7,842.5 L984.4,803.8 L984.5,763.1 L986.3,715.5 L982.9,669.6 L981.5,634.2 L981.6,616.4 L983.3,589.8 L983.7,567.1 L985.8,539.3 L986.8,521.8 L987.3,495.8 L989.6,475.0 L993.4,452.6 L998.7,426.9 L1006.5,396.5 L1015.0,370.4 L1020.4,354.9 L1025.6,344.1 L1037.6,319.4 L1046.7,300.0 L1051.1,290.9 L1053.0,270.4 L1053.8,238.4 L1052.2,208.8 L1047.4,184.0 L1043.4,153.6 L1036.9,120.4 L1036.4,104.0 L1036.8,86.1 L1041.0,64.8 L1047.4,44.8 L1050.6,28.0 L1049.8,12.0 L1045.8,-1.6 L1041.0,-15.2 L1037.0,-32.8 L1034.6,-53.6 L1033.8,-75.2 L1033.0,-106.4 L1033.8,-137.6 L1034.6,-172.0 L1032.0,-204.6 L1031.1,-228.4 L1028.4,-245.5 L1025.5,-258.7 L1020.2,-281.6 L1010.6,-306.4 L998.6,-338.4 L990.6,-368.0 L974.8,-408.9 L949.5,-477.1 L934.8,-519.4 L915.5,-557.2 L892.2,-622.5 L885.0,-651.2 L875.3,-674.8 L865.0,-706.4 L857.0,-738.4 L846.6,-776.0 L840.2,-800.0 L838.6,-816.0 L832.2,-833.6 L829.0,-853.6 L817.0,-885.6 L810.6,-909.6 L805.8,-936.0 L800.2,-961.6 L794.6,-982.4 L791.4,-994.4 L788.2,-1001.6 L779.4,-1006.4 L771.4,-1007.2 L760.2,-1005.6 L739.4,-1000.8 L718.6,-996.0 L689.0,-989.6 L653.0,-981.6 L629.0,-976.0 L617.8,-972.0 L611.4,-963.2 L587.4,-924.0 L561.8,-877.6 L527.4,-828.0 L495.4,-785.6 L463.4,-749.6 L437.0,-724.8 L403.4,-691.2 L368.2,-659.2 L344.2,-637.6 L313.8,-612.8 L294.6,-600.0 L251.4,-576.8 L211.4,-552.8 L185.8,-538.4 L158.6,-522.4 L141.0,-507.2 L132.2,-496.8 L128.2,-485.6 L127.4,-474.4 L129.0,-459.2 L137.0,-435.2 L148.7,-386.9 L149.0,-385.6 L149.8,-360.0 L149.0,-332.8 L142.6,-300.8 L137.0,-281.6 L126.6,-253.6 L117.8,-227.2 L110.6,-200.8 L105.0,-173.6 L103.4,-144.0 L105.0,-108.0 L105.3,-90.0 L109.0,-72.0 L117.8,-47.2 L133.0,-16.8 L184.2,64.0 L212.2,100.8 L246.6,154.4 L279.4,200.8 L321.0,268.8 L333.8,294.4 L349.8,343.2 L359.4,383.2 L363.4,419.2 L367.4,460.8 L366.6,499.2 L361.0,551.2 L356.2,582.4 L345.0,620.0 L335.4,650.4 L321.0,682.4 L307.4,706.4 L291.4,733.6 L271.4,765.6 L249.8,793.6 L228.2,816.0 L201.0,836.0 L164.2,857.6 L121.0,890.4 L106.6,909.6 L85.0,938.4 L71.4,960.8 L59.4,991.2 L45.0,1045.6 L44.2,1076.0 L47.4,1100.8 L55.4,1118.4 L76.2,1142.4 L101.0,1174.4 L121.0,1203.2 L144.2,1226.4 L164.2,1241.6 L189.8,1274.4 L221.8,1309.6 L237.8,1323.2 L265.8,1338.4 L299.4,1349.6 L334.6,1355.2 L369.0,1356.8 L411.4,1353.6 L465.0,1352.0 L508.2,1348.8 L545.0,1347.2 Z" fill="#ece7dc" stroke="#d7d1c5" stroke-width="0.3"></path><path d="M-1.0,-1.0 L257.0,-1.0 L257.0,257.0 L-1.0,257.0 L-1.0,-1.0 Z M257.0,-1.0 L143.0,-1.0 L184.2,64.0 L212.2,100.8 L246.6,154.4 L257.0,169.1 L257.0,-1.0 Z" fill="#add7e1" stroke="none" fill-rule="evenodd"><title>Biscayne Bay</title></path><path d="M321.4,152.4 L290.7,105.7 L274.0,78.0 L244.3,29.2 L226.8,-9.3 L209.8,-55.3" fill="none" stroke="#cec8bb" stroke-width="4.3" stroke-linecap="round" stroke-linejoin="round"/><path d="M321.4,152.4 L290.7,105.7 L274.0,78.0 L244.3,29.2 L226.8,-9.3 L209.8,-55.3" fill="none" stroke="#ffffff" stroke-width="3.2" stroke-linecap="round" stroke-linejoin="round"><title>North Bay Road</title></path></svg>