<svg xmlns="http://www.w3.org/2000/svg" width="256" height="256" viewBox="0 0 256 256"><rect width="256" height="256" fill="#f1efe7"/><path d="M-6661.4,-5270.9 L-6554.0,-5315.5 L-6520.4,-5331.6 L-6370.1,-5403.8 L-6341.9,-5376.5 L-6339.4,-5374.2 L-6286.8,-5419.2 L-6274.2,-5428.8 L-6253.3,-5447.7 L-6135.2,-5556.1 L-6039.9,-5664.9 L-6036.3,-5671.8 L-6032.8,-5675.8 L-6027.2,-5682.1 L-6021.6,-5688.6 L-6019.3,-5691.3 L-6056.9,-5739.8 L-6007.2,-5769.6 L-5980.2,-5733.7 L-5942.1,-5777.3 L-5974.4,-5820.1 L-5934.4,-5861.7 L-5903.7,-5821.2 L-5868.3,-5861.4 L-5853.3,-5871.2 L-5779.7,-5919.0 L-5743.3,-5943.1 L-5699.5,-5972.0 L-5678.8,-5985.5 L-5626.4,-6019.4 L-5639.9,-6037.2 L-5664.1,-6069.5 L-5601.6,-6109.2 L-5578.8,-6121.0 L-5577.1,-6122.2 L-5565.1,-6131.5 L-5522.3,-6154.3 L-5519.3,-6159.0 L-5507.3,-6167.2 L-5500.8,-6176.7 L-5499.0,-6178.1 L-5488.6,-6182.1 L-5464.9,-6190.6 L-5448.8,-6197.7 L-5391.7,-6224.5 L-5391.0,-6222.6 L-5343.2,-6243.1 L-5323.7,-6218.0 L-5280.1,-6247.1 L-5273.9,-6251.3 L-5273.3,-6251.8 L-5272.7,-6252.6 L-5271.8,-6254.3 L-5271.2,-6255.8 L-5271.0,-6257.7 L-5271.0,-6259.2 L-5271.2,-6260.6 L-5271.4,-6262.3 L-5271.5,-6263.5 L-5271.4,-6264.6 L-5271.1,-6265.7 L-5270.3,-6267.7 L-5269.8,-6268.8 L-5268.6,-6270.7 L-5267.2,-6272.1 L-5260.9,-6274.7 L-5255.6,-6276.6 L-5248.8,-6278.8 L-5245.7,-6279.7 L-5240.1,-6281.5 L-5236.1,-6283.0 L-5230.7,-6285.2 L-5223.3,-6288.4 L-5215.3,-6292.2 L-5211.0,-6294.3 L-5205.6,-6297.0 L-5200.6,-6299.9 L-5195.5,-6302.9 L-5190.4,-6306.2 L-5188.8,-6307.3 L-5178.4,-6315.2 L-5169.7,-6321.9 L-5161.2,-6329.1 L-5153.2,-6336.6 L-5147.5,-6343.1 L-5141.8,-6350.0 L-5134.8,-6359.0 L-5128.4,-6368.0 L-5121.1,-6379.6 L-5116.3,-6388.5 L-5113.3,-6394.2 L-5108.8,-6403.9 L-5105.1,-6412.8 L-5101.7,-6422.4 L-5099.0,-6430.9 L-5096.1,-6444.6 L-5093.9,-6456.8 L-5092.7,-6467.4 L-5091.8,-6479.7 L-5091.6,-6493.0 L-5092.5,-6505.3 L-5094.6,-6521.2 L-5096.7,-6532.1 L-5099.3,-6542.5 L-5102.9,-6554.1 L-5106.1,-6563.1 L-5109.7,-6572.9 L-5113.1,-6580.9 L-5115.4,-6586.2 L-5116.4,-6590.0 L-5116.5,-6593.0 L-5116.2,-6595.6 L-5115.1,-6597.9 L-5113.5,-6599.9 L-5111.4,-6601.0 L-5109.2,-6601.3 L-5103.1,-6599.8 L-5086.3,-6595.8 L-5080.7,-6723.1 L-5058.8,-6950.4 L-5082.6,-6956.1 L-5085.2,-6963.2 L-5085.1,-6973.4 L-5081.8,-6996.7 L-5077.3,-7001.9 L-5073.3,-7017.1 L-5048.1,-7011.2 L-5034.1,-7156.4 L-5030.3,-7196.7 L-5038.1,-7198.6 L-5033.4,-7217.8 L-5049.6,-7221.6 L-5047.5,-7233.4 L-5044.7,-7241.1 L-5041.1,-7250.2 L-5035.1,-7262.8 L-5028.7,-7261.4 L-5019.9,-7352.7 L-5017.9,-7408.1 L-5017.5,-7418.3 L-5012.8,-7453.6 L-5003.4,-7541.5 L-4941.0,-7704.2 L-4926.8,-7748.5 L-4753.5,-7815.0 L-4736.5,-7821.8 L-4733.6,-7823.4 L-4731.2,-7825.5 L-4728.7,-7828.4 L-4726.8,-7831.9 L-4725.5,-7835.3 L-4725.1,-7840.2 L-4725.4,-7846.4 L-4727.7,-7924.1 L-4728.6,-7939.2 L-4728.8,-7949.6 L-4729.1,-7969.6 L-4729.5,-7975.9 L-4730.3,-7981.2 L-4731.4,-7986.0 L-4732.9,-7990.7 L-4735.3,-7996.4 L-4738.9,-8002.5 L-4742.5,-8007.3 L-4745.2,-8011.8 L-4747.9,-8017.8 L-4750.2,-8023.7 L-4751.1,-8028.4 L-4751.8,-8033.6 L-4752.1,-8038.9 L-4752.0,-8044.0 L-4751.4,-8049.9 L-4750.0,-8055.8 L-4748.1,-8061.0 L-4746.2,-8065.8 L-4743.7,-8070.4 L-4740.7,-8075.9 L-4738.6,-8081.0 L-4736.9,-8087.5 L-4733.7,-8092.3 L-4734.8,-8137.0 L-4736.4,-8139.5 L-4737.0,-8169.8 L-4737.8,-8205.6 L-4737.2,-8210.5 L-4735.6,-8215.6 L-4731.6,-8223.5 L-4704.9,-8281.0 L-4704.3,-8282.0 L-4699.6,-8292.2 L-4695.1,-8302.0 L-4690.2,-8312.0 L-4685.2,-8322.2 L-4682.8,-8327.3 L-4656.6,-8381.2 L-4628.5,-8440.8 L-4567.6,-8564.2 L-4604.2,-8605.1 L-4634.0,-8541.7 L-4659.8,-8486.7 L-4663.7,-8478.9 L-4671.6,-8462.7 L-4687.5,-8464.0 L-4691.9,-8464.3 L-4693.4,-8462.8 L-4691.3,-8460.9 L-4699.5,-8453.7 L-4705.9,-8447.7 L-4707.1,-8422.3 L-4709.5,-8417.2 L-4717.3,-8417.5 L-4718.6,-8418.0 L-4820.8,-8460.1 L-4823.0,-8461.3 L-4825.4,-8462.8 L-4829.0,-8465.6 L-4831.9,-8468.3 L-4834.3,-8470.9 L-4836.6,-8474.1 L-4838.4,-8476.9 L-4839.8,-8479.8 L-4841.0,-8482.9 L-4841.7,-8484.9 L-4842.2,-8487.5 L-4842.7,-8490.5 L-4843.1,-8494.6 L-4843.1,-8500.4 L-4843.8,-8520.3 L-4841.0,-8520.5 L-4841.4,-8530.9 L-4841.8,-8548.2 L-4839.2,-8548.3 L-4839.4,-8560.1 L-4842.3,-8560.0 L-4843.7,-8609.8 L-4840.9,-8609.9 L-4841.4,-8621.5 L-4844.1,-8621.4 L-4845.2,-8658.2 L-4831.7,-8672.7 L-4814.5,-8673.3 L-4801.6,-8673.8 L-4784.7,-8674.3 L-4768.4,-8674.9 L-4753.7,-8675.4 L-4747.4,-8675.6 L-4747.7,-8681.3 L-4747.8,-8687.2 L-4748.8,-8706.3 L-4749.1,-8742.9 L-4749.6,-8743.5 L-4749.7,-8747.2 L-4748.6,-8747.2 L-4751.2,-8835.3 L-4753.4,-8918.1 L-4753.8,-8920.7 L-4754.0,-8925.5 L-4790.1,-8924.2 L-4814.1,-8926.3 L-4993.7,-8920.0 L-4993.7,-8921.6 L-4994.1,-8929.3 L-5079.3,-8926.3 L-5079.5,-8940.4 L-5090.7,-8942.9 L-5092.7,-9003.5 L-4761.3,-9015.0 L-4755.8,-9022.6 L-4756.0,-9044.1 L-4756.4,-9062.6 L-4756.7,-9074.3 L-4757.2,-9085.6 L-4783.5,-9098.1 L-4784.6,-9125.6 L-4757.5,-9139.0 L-4760.0,-9202.7 L-4760.7,-9205.9 L-4787.5,-9218.4 L-4788.4,-9252.5 L-4762.9,-9265.7 L-4774.3,-9404.1 L-4771.2,-9465.8 L-4769.8,-9566.2 L-4769.9,-9675.4 L-4767.5,-9690.8 L-4767.3,-9698.1 L-4769.7,-9707.1 L-4767.2,-9707.1 L-4767.2,-9715.1 L-4765.7,-9920.6 L-4765.9,-9929.8 L-4768.8,-9929.7 L-4768.7,-9967.5 L-4770.4,-9969.9 L-4772.9,-10008.9 L-4767.8,-10044.5 L-4768.5,-10087.7 L-4770.2,-10098.0 L-4767.6,-10130.0 L-4769.4,-10168.6 L-4773.9,-10210.0 L-4782.4,-10277.0 L-4778.4,-10295.4 L-4780.1,-10313.4 L-4795.4,-10326.5 L-4817.9,-10326.2 L-4852.1,-10321.7 L-4874.3,-10321.7 L-4894.6,-10329.2 L-4921.1,-10347.4 L-4921.1,-10380.0 L-4921.8,-10420.2 L-4919.2,-10453.6 L-4910.4,-10479.7 L-4763.0,-10482.4 L-4759.7,-10691.4 L-4759.7,-10992.2 L-4761.2,-11101.4 L3194.9,-14387.2 L3194.9,3721.9 L-6661.4,3721.9 L-6661.4,-5270.9 Z" fill="#add7e1" stroke="none"><title>Biscayne Bay</title></path></svg>