<svg xmlns="http://www.w3.org/2000/svg" width="256" height="256" viewBox="0 0 256 256"><rect width="256" height="256" fill="#f1efe7"/><path d="M-19210.7,-4397.7 L-18995.9,-4487.0 L-18928.7,-4519.3 L-18628.2,-4663.6 L-18571.8,-4609.0 L-18566.9,-4604.3 L-18461.5,-4694.5 L-18436.4,-4713.6 L-18394.5,-4751.4 L-18158.4,-4968.2 L-17967.9,-5185.8 L-17960.6,-5199.7 L-17953.6,-5207.6 L-17942.5,-5220.3 L-17931.2,-5233.2 L-17926.6,-5238.5 L-18001.7,-5335.6 L-17902.3,-5395.2 L-17848.4,-5323.5 L-17772.2,-5410.7 L-17836.7,-5496.1 L-17756.8,-5579.4 L-17695.3,-5498.4 L-17624.7,-5578.8 L-17594.6,-5598.5 L-17447.4,-5694.0 L-17374.7,-5742.3 L-17287.1,-5799.9 L-17245.7,-5827.1 L-17140.8,-5894.8 L-17167.8,-5930.3 L-17216.1,-5995.0 L-17091.2,-6074.4 L-17045.7,-6097.9 L-17042.2,-6100.4 L-17018.2,-6118.9 L-16932.6,-6164.7 L-16926.7,-6173.9 L-16902.7,-6190.4 L-16889.7,-6209.4 L-16886.0,-6212.2 L-16865.1,-6220.3 L-16817.9,-6237.2 L-16785.6,-6251.4 L-16671.5,-6305.0 L-16670.1,-6301.3 L-16574.4,-6342.2 L-16535.3,-6292.1 L-16448.2,-6350.2 L-16435.8,-6358.7 L-16434.6,-6359.7 L-16433.4,-6361.3 L-16431.5,-6364.6 L-16430.5,-6367.7 L-16429.9,-6371.4 L-16430.0,-6374.4 L-16430.4,-6377.3 L-16430.8,-6380.6 L-16430.9,-6383.1 L-16430.7,-6385.2 L-16430.3,-6387.4 L-16428.7,-6391.4 L-16427.6,-6393.6 L-16425.1,-6397.4 L-16422.5,-6400.2 L-16409.8,-6405.3 L-16399.2,-6409.3 L-16385.7,-6413.7 L-16379.4,-6415.4 L-16368.2,-6419.1 L-16360.3,-6421.9 L-16349.4,-6426.4 L-16334.6,-6432.9 L-16318.6,-6440.4 L-16310.0,-6444.6 L-16299.2,-6450.1 L-16289.1,-6455.7 L-16279.0,-6461.7 L-16268.7,-6468.4 L-16265.5,-6470.6 L-16244.8,-6486.4 L-16227.4,-6499.8 L-16210.4,-6514.2 L-16194.5,-6529.2 L-16183.0,-6542.1 L-16171.6,-6556.0 L-16157.6,-6574.0 L-16144.8,-6592.0 L-16130.1,-6615.1 L-16120.5,-6633.0 L-16114.5,-6644.4 L-16105.6,-6663.7 L-16098.1,-6681.6 L-16091.4,-6700.9 L-16086.0,-6717.8 L-16080.1,-6745.2 L-16075.8,-6769.7 L-16073.5,-6790.7 L-16071.5,-6815.5 L-16071.3,-6842.0 L-16072.9,-6866.5 L-16077.1,-6898.5 L-16081.5,-6920.3 L-16086.5,-6940.9 L-16093.9,-6964.3 L-16100.2,-6982.2 L-16107.4,-7001.7 L-16114.2,-7017.9 L-16118.8,-7028.4 L-16120.7,-7036.1 L-16121.0,-7042.0 L-16120.4,-7047.3 L-16118.3,-7051.9 L-16115.1,-7055.8 L-16110.9,-7058.0 L-16106.4,-7058.6 L-16094.3,-7055.7 L-16060.6,-7047.6 L-16049.4,-7302.3 L-16005.7,-7756.9 L-16053.2,-7768.1 L-16058.4,-7782.4 L-16058.2,-7802.9 L-16051.6,-7849.4 L-16042.6,-7859.9 L-16034.6,-7890.1 L-15984.1,-7878.4 L-15956.3,-8168.9 L-15948.6,-8249.3 L-15964.3,-8253.2 L-15954.8,-8291.6 L-15987.1,-8299.3 L-15983.0,-8322.8 L-15977.3,-8338.3 L-15970.2,-8356.4 L-15958.2,-8381.7 L-15945.3,-8378.8 L-15927.9,-8561.5 L-15923.8,-8672.3 L-15923.0,-8692.7 L-15913.6,-8763.2 L-15894.9,-8938.9 L-15770.1,-9264.3 L-15741.6,-9353.0 L-15394.9,-9486.0 L-15361.0,-9499.6 L-15355.1,-9502.8 L-15350.5,-9507.0 L-15345.4,-9512.9 L-15341.5,-9519.8 L-15338.9,-9526.6 L-15338.3,-9536.5 L-15338.8,-9548.8 L-15343.4,-9704.3 L-15345.1,-9734.4 L-15345.6,-9755.1 L-15346.3,-9795.3 L-15347.1,-9807.9 L-15348.6,-9818.5 L-15350.7,-9827.9 L-15353.8,-9837.5 L-15358.7,-9848.8 L-15365.9,-9860.9 L-15372.9,-9870.5 L-15378.3,-9879.6 L-15383.8,-9891.7 L-15388.4,-9903.3 L-15390.2,-9912.8 L-15391.6,-9923.3 L-15392.3,-9933.8 L-15392.0,-9944.0 L-15390.8,-9955.9 L-15388.0,-9967.6 L-15384.3,-9978.0 L-15380.4,-9987.5 L-15375.4,-9996.7 L-15369.3,-10007.9 L-15365.3,-10018.0 L-15361.8,-10030.9 L-15355.4,-10040.7 L-15357.6,-10129.9 L-15360.9,-10135.1 L-15361.9,-10195.7 L-15363.6,-10267.2 L-15362.4,-10277.1 L-15359.2,-10287.2 L-15351.2,-10303.0 L-15297.7,-10418.1 L-15296.6,-10420.0 L-15287.2,-10440.5 L-15278.3,-10459.9 L-15268.3,-10479.9 L-15258.5,-10500.5 L-15253.7,-10510.5 L-15201.1,-10618.4 L-15144.9,-10737.6 L-15023.3,-10984.4 L-15096.4,-11066.3 L-15156.0,-10939.3 L-15207.5,-10829.4 L-15215.3,-10813.8 L-15231.2,-10781.3 L-15263.0,-10784.0 L-15271.7,-10784.5 L-15274.8,-10781.7 L-15270.6,-10777.9 L-15286.9,-10763.4 L-15299.8,-10751.5 L-15302.2,-10700.6 L-15307.0,-10690.4 L-15322.6,-10691.0 L-15325.2,-10691.9 L-15529.6,-10776.3 L-15534.0,-10778.6 L-15538.7,-10781.6 L-15546.1,-10787.2 L-15551.8,-10792.6 L-15556.6,-10797.8 L-15561.3,-10804.2 L-15564.9,-10809.8 L-15567.7,-10815.6 L-15569.9,-10821.7 L-15571.4,-10825.9 L-15572.5,-10831.0 L-15573.3,-10837.0 L-15574.1,-10845.2 L-15574.1,-10856.9 L-15575.5,-10896.6 L-15569.9,-10896.9 L-15570.7,-10917.9 L-15571.6,-10952.5 L-15566.4,-10952.6 L-15566.8,-10976.2 L-15572.7,-10976.1 L-15575.4,-11075.5 L-15569.8,-11075.8 L-15570.7,-11099.1 L-15576.1,-11098.9 L-15578.4,-11172.4 L-15551.4,-11201.5 L-15516.9,-11202.7 L-15491.2,-11203.6 L-15457.3,-11204.7 L-15424.7,-11205.7 L-15395.5,-11206.7 L-15382.8,-11207.3 L-15383.4,-11218.6 L-15383.6,-11230.4 L-15385.5,-11268.7 L-15386.2,-11341.8 L-15387.2,-11343.1 L-15387.4,-11350.3 L-15385.3,-11350.4 L-15390.4,-11526.5 L-15394.8,-11692.2 L-15395.5,-11697.4 L-15395.9,-11707.0 L-15468.1,-11704.4 L-15516.1,-11708.5 L-15875.4,-11696.0 L-15875.5,-11699.2 L-15876.2,-11714.5 L-16046.6,-11708.5 L-16046.9,-11736.8 L-16069.4,-11741.9 L-16073.4,-11863.0 L-15410.6,-11886.0 L-15399.6,-11901.1 L-15400.0,-11944.1 L-15400.8,-11981.3 L-15401.4,-12004.6 L-15402.3,-12027.3 L-15455.0,-12052.1 L-15457.1,-12107.2 L-15403.1,-12134.0 L-15408.0,-12261.5 L-15409.4,-12267.8 L-15463.1,-12292.9 L-15464.8,-12361.1 L-15413.8,-12387.4 L-15436.5,-12664.3 L-15430.5,-12787.5 L-15427.5,-12988.4 L-15427.7,-13206.9 L-15422.9,-13237.5 L-15422.6,-13252.3 L-15427.4,-13270.1 L-15422.4,-13270.1 L-15422.4,-13286.2 L-15419.4,-13697.2 L-15419.9,-13715.5 L-15425.6,-13715.5 L-15425.4,-13791.1 L-15428.7,-13795.8 L-15433.9,-13873.8 L-15423.6,-13945.1 L-15424.9,-14031.4 L-15428.4,-14052.1 L-15423.1,-14116.0 L-15426.7,-14193.3 L-15435.7,-14276.0 L-15452.8,-14410.0 L-15444.7,-14446.9 L-15448.3,-14482.8 L-15478.9,-14508.9 L-15523.8,-14508.5 L-15592.2,-14499.5 L-15636.7,-14499.5 L-15677.1,-14514.3 L-15730.2,-14550.7 L-15730.2,-14616.0 L-15731.6,-14696.3 L-15726.4,-14763.2 L-15708.8,-14815.4 L-15414.1,-14820.9 L-15407.3,-15238.8 L-15407.3,-15840.4 L-15410.4,-16058.7 L501.8,-22630.4 L501.8,13587.8 L-19210.7,13587.8 L-19210.7,-4397.7 Z" fill="#add7e1" stroke="none"><title>Biscayne Bay</title></path></svg>