<svg xmlns="http://www.w3.org/2000/svg" width="256" height="256" viewBox="0 0 256 256"><rect width="256" height="256" fill="#f1efe7"/><path d="M-4869.4,-8854.9 L-4762.0,-8899.5 L-4728.4,-8915.6 L-4578.1,-8987.8 L-4549.9,-8960.5 L-4547.4,-8958.2 L-4494.8,-9003.2 L-4482.2,-9012.8 L-4461.3,-9031.7 L-4343.2,-9140.1 L-4247.9,-9248.9 L-4244.3,-9255.8 L-4240.8,-9259.8 L-4235.2,-9266.1 L-4229.6,-9272.6 L-4227.3,-9275.3 L-4264.9,-9323.8 L-4215.2,-9353.6 L-4188.2,-9317.7 L-4150.1,-9361.3 L-4182.4,-9404.1 L-4142.4,-9445.7 L-4111.7,-9405.2 L-4076.3,-9445.4 L-4061.3,-9455.2 L-3987.7,-9503.0 L-3951.3,-9527.1 L-3907.5,-9556.0 L-3886.8,-9569.5 L-3834.4,-9603.4 L-3847.9,-9621.2 L-3872.1,-9653.5 L-3809.6,-9693.2 L-3786.8,-9705.0 L-3785.1,-9706.2 L-3773.1,-9715.5 L-3730.3,-9738.3 L-3727.3,-9743.0 L-3715.3,-9751.2 L-3708.8,-9760.7 L-3707.0,-9762.1 L-3696.6,-9766.1 L-3672.9,-9774.6 L-3656.8,-9781.7 L-3599.7,-9808.5 L-3599.0,-9806.6 L-3551.2,-9827.1 L-3531.7,-9802.0 L-3488.1,-9831.1 L-3481.9,-9835.3 L-3481.3,-9835.8 L-3480.7,-9836.6 L-3479.8,-9838.3 L-3479.2,-9839.8 L-3479.0,-9841.7 L-3479.0,-9843.2 L-3479.2,-9844.6 L-3479.4,-9846.3 L-3479.5,-9847.5 L-3479.4,-9848.6 L-3479.1,-9849.7 L-3478.3,-9851.7 L-3477.8,-9852.8 L-3476.6,-9854.7 L-3475.2,-9856.1 L-3468.9,-9858.7 L-3463.6,-9860.6 L-3456.8,-9862.8 L-3453.7,-9863.7 L-3448.1,-9865.5 L-3444.1,-9867.0 L-3438.7,-9869.2 L-3431.3,-9872.4 L-3423.3,-9876.2 L-3419.0,-9878.3 L-3413.6,-9881.0 L-3408.6,-9883.9 L-3403.5,-9886.9 L-3398.4,-9890.2 L-3396.8,-9891.3 L-3386.4,-9899.2 L-3377.7,-9905.9 L-3369.2,-9913.1 L-3361.2,-9920.6 L-3355.5,-9927.1 L-3349.8,-9934.0 L-3342.8,-9943.0 L-3336.4,-9952.0 L-3329.1,-9963.6 L-3324.3,-9972.5 L-3321.3,-9978.2 L-3316.8,-9987.9 L-3313.1,-9996.8 L-3309.7,-10006.4 L-3307.0,-10014.9 L-3304.1,-10028.6 L-3301.9,-10040.8 L-3300.7,-10051.4 L-3299.8,-10063.7 L-3299.6,-10077.0 L-3300.5,-10089.3 L-3302.6,-10105.2 L-3304.7,-10116.1 L-3307.3,-10126.5 L-3310.9,-10138.1 L-3314.1,-10147.1 L-3317.7,-10156.9 L-3321.1,-10164.9 L-3323.4,-10170.2 L-3324.4,-10174.0 L-3324.5,-10177.0 L-3324.2,-10179.6 L-3323.1,-10181.9 L-3321.5,-10183.9 L-3319.4,-10185.0 L-3317.2,-10185.3 L-3311.1,-10183.8 L-3294.3,-10179.8 L-3288.7,-10307.1 L-3266.8,-10534.4 L-3290.6,-10540.1 L-3293.2,-10547.2 L-3293.1,-10557.4 L-3289.8,-10580.7 L-3285.3,-10585.9 L-3281.3,-10601.1 L-3256.1,-10595.2 L-3242.1,-10740.4 L-3238.3,-10780.7 L-3246.1,-10782.6 L-3241.4,-10801.8 L-3257.6,-10805.6 L-3255.5,-10817.4 L-3252.7,-10825.1 L-3249.1,-10834.2 L-3243.1,-10846.8 L-3236.7,-10845.4 L-3227.9,-10936.7 L-3225.9,-10992.1 L-3225.5,-11002.3 L-3220.8,-11037.6 L-3211.4,-11125.5 L-3149.0,-11288.2 L-3134.8,-11332.5 L-2961.5,-11399.0 L-2944.5,-11405.8 L-2941.6,-11407.4 L-2939.2,-11409.5 L-2936.7,-11412.4 L-2934.8,-11415.9 L-2933.5,-11419.3 L-2933.1,-11424.2 L-2933.4,-11430.4 L-2935.7,-11508.1 L-2936.6,-11523.2 L-2936.8,-11533.6 L-2937.1,-11553.6 L-2937.5,-11559.9 L-2938.3,-11565.2 L-2939.4,-11570.0 L-2940.9,-11574.7 L-2943.3,-11580.4 L-2946.9,-11586.5 L-2950.5,-11591.3 L-2953.2,-11595.8 L-2955.9,-11601.8 L-2958.2,-11607.7 L-2959.1,-11612.4 L-2959.8,-11617.6 L-2960.1,-11622.9 L-2960.0,-11628.0 L-2959.4,-11633.9 L-2958.0,-11639.8 L-2956.1,-11645.0 L-2954.2,-11649.8 L-2951.7,-11654.4 L-2948.7,-11659.9 L-2946.6,-11665.0 L-2944.9,-11671.5 L-2941.7,-11676.3 L-2942.8,-11721.0 L-2944.4,-11723.5 L-2945.0,-11753.8 L-2945.8,-11789.6 L-2945.2,-11794.5 L-2943.6,-11799.6 L-2939.6,-11807.5 L-2912.9,-11865.0 L-2912.3,-11866.0 L-2907.6,-11876.2 L-2903.1,-11886.0 L-2898.2,-11896.0 L-2893.2,-11906.2 L-2890.8,-11911.3 L-2864.6,-11965.2 L-2836.5,-12024.8 L-2775.6,-12148.2 L-2812.2,-12189.1 L-2842.0,-12125.7 L-2867.8,-12070.7 L-2871.7,-12062.9 L-2879.6,-12046.7 L-2895.5,-12048.0 L-2899.9,-12048.3 L-2901.4,-12046.8 L-2899.3,-12044.9 L-2907.5,-12037.7 L-2913.9,-12031.7 L-2915.1,-12006.3 L-2917.5,-12001.2 L-2925.3,-12001.5 L-2926.6,-12002.0 L-3028.8,-12044.1 L-3031.0,-12045.3 L-3033.4,-12046.8 L-3037.0,-12049.6 L-3039.9,-12052.3 L-3042.3,-12054.9 L-3044.6,-12058.1 L-3046.4,-12060.9 L-3047.8,-12063.8 L-3049.0,-12066.9 L-3049.7,-12068.9 L-3050.2,-12071.5 L-3050.7,-12074.5 L-3051.1,-12078.6 L-3051.1,-12084.4 L-3051.8,-12104.3 L-3049.0,-12104.5 L-3049.4,-12114.9 L-3049.8,-12132.2 L-3047.2,-12132.3 L-3047.4,-12144.1 L-3050.3,-12144.0 L-3051.7,-12193.8 L-3048.9,-12193.9 L-3049.4,-12205.5 L-3052.1,-12205.4 L-3053.2,-12242.2 L-3039.7,-12256.7 L-3022.5,-12257.3 L-3009.6,-12257.8 L-2992.7,-12258.3 L-2976.4,-12258.9 L-2961.7,-12259.4 L-2955.4,-12259.6 L-2955.7,-12265.3 L-2955.8,-12271.2 L-2956.8,-12290.3 L-2957.1,-12326.9 L-2957.6,-12327.5 L-2957.7,-12331.2 L-2956.6,-12331.2 L-2959.2,-12419.3 L-2961.4,-12502.1 L-2961.8,-12504.7 L-2962.0,-12509.5 L-2998.1,-12508.2 L-3022.1,-12510.3 L-3201.7,-12504.0 L-3201.7,-12505.6 L-3202.1,-12513.3 L-3287.3,-12510.3 L-3287.5,-12524.4 L-3298.7,-12526.9 L-3300.7,-12587.5 L-2969.3,-12599.0 L-2963.8,-12606.6 L-2964.0,-12628.1 L-2964.4,-12646.6 L-2964.7,-12658.3 L-2965.2,-12669.6 L-2991.5,-12682.1 L-2992.6,-12709.6 L-2965.5,-12723.0 L-2968.0,-12786.7 L-2968.7,-12789.9 L-2995.5,-12802.4 L-2996.4,-12836.5 L-2970.9,-12849.7 L-2982.3,-12988.1 L-2979.2,-13049.8 L-2977.8,-13150.2 L-2977.9,-13259.4 L-2975.5,-13274.8 L-2975.3,-13282.1 L-2977.7,-13291.1 L-2975.2,-13291.1 L-2975.2,-13299.1 L-2973.7,-13504.6 L-2973.9,-13513.8 L-2976.8,-13513.7 L-2976.7,-13551.5 L-2978.4,-13553.9 L-2980.9,-13592.9 L-2975.8,-13628.5 L-2976.5,-13671.7 L-2978.2,-13682.0 L-2975.6,-13714.0 L-2977.4,-13752.6 L-2981.9,-13794.0 L-2990.4,-13861.0 L-2986.4,-13879.4 L-2988.1,-13897.4 L-3003.4,-13910.5 L-3025.9,-13910.2 L-3060.1,-13905.7 L-3082.3,-13905.7 L-3102.6,-13913.2 L-3129.1,-13931.4 L-3129.1,-13964.0 L-3129.8,-14004.2 L-3127.2,-14037.6 L-3118.4,-14063.7 L-2971.0,-14066.4 L-2967.7,-14275.4 L-2967.7,-14576.2 L-2969.2,-14685.4 L4986.9,-17971.2 L4986.9,137.9 L-4869.4,137.9 L-4869.4,-8854.9 Z" fill="#add7e1" stroke="none"><title>Biscayne Bay</title></path><path d="M-1.0,-1.0 L257.0,-1.0 L257.0,257.0 L-1.0,257.0 L-1.0,-1.0 Z" fill="#add7e1" stroke="none" fill-rule="evenodd"><title>Biscayne Bay</title></path></svg>