<svg xmlns="http://www.w3.org/2000/svg" width="256" height="256" viewBox="0 0 256 256"><defs><pattern id="park-dots" width="22" height="22" patternUnits="userSpaceOnUse"><circle cx="5" cy="5" r="2.1" fill="#63a95d" fill-opacity="0.26"/><circle cx="16" cy="7" r="1.55" fill="#76b970" fill-opacity="0.23"/><circle cx="10" cy="17" r="1.9" fill="#61a65b" fill-opacity="0.24"/><circle cx="21" cy="17" r="1.25" fill="#80c174" fill-opacity="0.18"/><circle cx="1" cy="19" r="1.2" fill="#70b46a" fill-opacity="0.17"/></pattern><pattern id="park-canopy" width="54" height="48" patternUnits="userSpaceOnUse"><circle cx="12" cy="11" r="3.6" fill="#5ea75a" fill-opacity="0.22"/><circle cx="31" cy="15" r="2.9" fill="#75ba6d" fill-opacity="0.18"/><circle cx="45" cy="31" r="3.3" fill="#67ae62" fill-opacity="0.20"/><circle cx="19" cy="39" r="2.5" fill="#83c378" fill-opacity="0.16"/></pattern></defs><rect width="256" height="256" fill="#f1efe7"/><path d="M-3845.4,-2198.9 L-3738.0,-2243.5 L-3704.4,-2259.6 L-3554.1,-2331.8 L-3525.9,-2304.5 L-3523.4,-2302.2 L-3470.8,-2347.2 L-3458.2,-2356.8 L-3437.3,-2375.7 L-3319.2,-2484.1 L-3223.9,-2592.9 L-3220.3,-2599.8 L-3216.8,-2603.8 L-3211.2,-2610.1 L-3205.6,-2616.6 L-3203.3,-2619.3 L-3240.9,-2667.8 L-3191.2,-2697.6 L-3164.2,-2661.7 L-3126.1,-2705.3 L-3158.4,-2748.1 L-3118.4,-2789.7 L-3087.7,-2749.2 L-3052.3,-2789.4 L-3037.3,-2799.2 L-2963.7,-2847.0 L-2927.3,-2871.1 L-2883.5,-2900.0 L-2862.8,-2913.5 L-2810.4,-2947.4 L-2823.9,-2965.2 L-2848.1,-2997.5 L-2785.6,-3037.2 L-2762.8,-3049.0 L-2761.1,-3050.2 L-2749.1,-3059.5 L-2706.3,-3082.3 L-2703.3,-3087.0 L-2691.3,-3095.2 L-2684.8,-3104.7 L-2683.0,-3106.1 L-2672.6,-3110.1 L-2648.9,-3118.6 L-2632.8,-3125.7 L-2575.7,-3152.5 L-2575.0,-3150.6 L-2527.2,-3171.1 L-2507.7,-3146.0 L-2464.1,-3175.1 L-2457.9,-3179.3 L-2457.3,-3179.8 L-2456.7,-3180.6 L-2455.8,-3182.3 L-2455.2,-3183.8 L-2455.0,-3185.7 L-2455.0,-3187.2 L-2455.2,-3188.6 L-2455.4,-3190.3 L-2455.5,-3191.5 L-2455.4,-3192.6 L-2455.1,-3193.7 L-2454.3,-3195.7 L-2453.8,-3196.8 L-2452.6,-3198.7 L-2451.2,-3200.1 L-2444.9,-3202.7 L-2439.6,-3204.6 L-2432.8,-3206.8 L-2429.7,-3207.7 L-2424.1,-3209.5 L-2420.1,-3211.0 L-2414.7,-3213.2 L-2407.3,-3216.4 L-2399.3,-3220.2 L-2395.0,-3222.3 L-2389.6,-3225.0 L-2384.6,-3227.9 L-2379.5,-3230.9 L-2374.4,-3234.2 L-2372.8,-3235.3 L-2362.4,-3243.2 L-2353.7,-3249.9 L-2345.2,-3257.1 L-2337.2,-3264.6 L-2331.5,-3271.1 L-2325.8,-3278.0 L-2318.8,-3287.0 L-2312.4,-3296.0 L-2305.1,-3307.6 L-2300.3,-3316.5 L-2297.3,-3322.2 L-2292.8,-3331.9 L-2289.1,-3340.8 L-2285.7,-3350.4 L-2283.0,-3358.9 L-2280.1,-3372.6 L-2277.9,-3384.8 L-2276.7,-3395.4 L-2275.8,-3407.7 L-2275.6,-3421.0 L-2276.5,-3433.3 L-2278.6,-3449.2 L-2280.7,-3460.1 L-2283.3,-3470.5 L-2286.9,-3482.1 L-2290.1,-3491.1 L-2293.7,-3500.9 L-2297.1,-3508.9 L-2299.4,-3514.2 L-2300.4,-3518.0 L-2300.5,-3521.0 L-2300.2,-3523.6 L-2299.1,-3525.9 L-2297.5,-3527.9 L-2295.4,-3529.0 L-2293.2,-3529.3 L-2287.1,-3527.8 L-2270.3,-3523.8 L-2264.7,-3651.1 L-2242.8,-3878.4 L-2266.6,-3884.1 L-2269.2,-3891.2 L-2269.1,-3901.4 L-2265.8,-3924.7 L-2261.3,-3929.9 L-2257.3,-3945.1 L-2232.1,-3939.2 L-2218.1,-4084.4 L-2214.3,-4124.7 L-2222.1,-4126.6 L-2217.4,-4145.8 L-2233.6,-4149.6 L-2231.5,-4161.4 L-2228.7,-4169.1 L-2225.1,-4178.2 L-2219.1,-4190.8 L-2212.7,-4189.4 L-2203.9,-4280.7 L-2201.9,-4336.1 L-2201.5,-4346.3 L-2196.8,-4381.6 L-2187.4,-4469.5 L-2125.0,-4632.2 L-2110.8,-4676.5 L-1937.5,-4743.0 L-1920.5,-4749.8 L-1917.6,-4751.4 L-1915.2,-4753.5 L-1912.7,-4756.4 L-1910.8,-4759.9 L-1909.5,-4763.3 L-1909.1,-4768.2 L-1909.4,-4774.4 L-1911.7,-4852.1 L-1912.6,-4867.2 L-1912.8,-4877.6 L-1913.1,-4897.6 L-1913.5,-4903.9 L-1914.3,-4909.2 L-1915.4,-4914.0 L-1916.9,-4918.7 L-1919.3,-4924.4 L-1922.9,-4930.5 L-1926.5,-4935.3 L-1929.2,-4939.8 L-1931.9,-4945.8 L-1934.2,-4951.7 L-1935.1,-4956.4 L-1935.8,-4961.6 L-1936.1,-4966.9 L-1936.0,-4972.0 L-1935.4,-4977.9 L-1934.0,-4983.8 L-1932.1,-4989.0 L-1930.2,-4993.8 L-1927.7,-4998.4 L-1924.7,-5003.9 L-1922.6,-5009.0 L-1920.9,-5015.5 L-1917.7,-5020.3 L-1918.8,-5065.0 L-1920.4,-5067.5 L-1921.0,-5097.8 L-1921.8,-5133.6 L-1921.2,-5138.5 L-1919.6,-5143.6 L-1915.6,-5151.5 L-1888.9,-5209.0 L-1888.3,-5210.0 L-1883.6,-5220.2 L-1879.1,-5230.0 L-1874.2,-5240.0 L-1869.2,-5250.2 L-1866.8,-5255.3 L-1840.6,-5309.2 L-1812.5,-5368.8 L-1751.6,-5492.2 L-1788.2,-5533.1 L-1818.0,-5469.7 L-1843.8,-5414.7 L-1847.7,-5406.9 L-1855.6,-5390.7 L-1871.5,-5392.0 L-1875.9,-5392.3 L-1877.4,-5390.8 L-1875.3,-5388.9 L-1883.5,-5381.7 L-1889.9,-5375.7 L-1891.1,-5350.3 L-1893.5,-5345.2 L-1901.3,-5345.5 L-1902.6,-5346.0 L-2004.8,-5388.1 L-2007.0,-5389.3 L-2009.4,-5390.8 L-2013.0,-5393.6 L-2015.9,-5396.3 L-2018.3,-5398.9 L-2020.6,-5402.1 L-2022.4,-5404.9 L-2023.8,-5407.8 L-2025.0,-5410.9 L-2025.7,-5412.9 L-2026.2,-5415.5 L-2026.7,-5418.5 L-2027.1,-5422.6 L-2027.1,-5428.4 L-2027.8,-5448.3 L-2025.0,-5448.5 L-2025.4,-5458.9 L-2025.8,-5476.2 L-2023.2,-5476.3 L-2023.4,-5488.1 L-2026.3,-5488.0 L-2027.7,-5537.8 L-2024.9,-5537.9 L-2025.4,-5549.5 L-2028.1,-5549.4 L-2029.2,-5586.2 L-2015.7,-5600.7 L-1998.5,-5601.3 L-1985.6,-5601.8 L-1968.7,-5602.3 L-1952.4,-5602.9 L-1937.7,-5603.4 L-1931.4,-5603.6 L-1931.7,-5609.3 L-1931.8,-5615.2 L-1932.8,-5634.3 L-1933.1,-5670.9 L-1933.6,-5671.5 L-1933.7,-5675.2 L-1932.6,-5675.2 L-1935.2,-5763.3 L-1937.4,-5846.1 L-1937.8,-5848.7 L-1938.0,-5853.5 L-1974.1,-5852.2 L-1998.1,-5854.3 L-2177.7,-5848.0 L-2177.7,-5849.6 L-2178.1,-5857.3 L-2263.3,-5854.3 L-2263.5,-5868.4 L-2274.7,-5870.9 L-2276.7,-5931.5 L-1945.3,-5943.0 L-1939.8,-5950.6 L-1940.0,-5972.1 L-1940.4,-5990.6 L-1940.7,-6002.3 L-1941.2,-6013.6 L-1967.5,-6026.1 L-1968.6,-6053.6 L-1941.5,-6067.0 L-1944.0,-6130.7 L-1944.7,-6133.9 L-1971.5,-6146.4 L-1972.4,-6180.5 L-1946.9,-6193.7 L-1958.3,-6332.1 L-1955.2,-6393.8 L-1953.8,-6494.2 L-1953.9,-6603.4 L-1951.5,-6618.8 L-1951.3,-6626.1 L-1953.7,-6635.1 L-1951.2,-6635.1 L-1951.2,-6643.1 L-1949.7,-6848.6 L-1949.9,-6857.8 L-1952.8,-6857.7 L-1952.7,-6895.5 L-1954.4,-6897.9 L-1956.9,-6936.9 L-1951.8,-6972.5 L-1952.5,-7015.7 L-1954.2,-7026.0 L-1951.6,-7058.0 L-1953.4,-7096.6 L-1957.9,-7138.0 L-1966.4,-7205.0 L-1962.4,-7223.4 L-1964.1,-7241.4 L-1979.4,-7254.5 L-2001.9,-7254.2 L-2036.1,-7249.7 L-2058.3,-7249.7 L-2078.6,-7257.2 L-2105.1,-7275.4 L-2105.1,-7308.0 L-2105.8,-7348.2 L-2103.2,-7381.6 L-2094.4,-7407.7 L-1947.0,-7410.4 L-1943.7,-7619.4 L-1943.7,-7920.2 L-1945.2,-8029.4 L6010.9,-11315.2 L6010.9,6793.9 L-3845.4,6793.9 L-3845.4,-2198.9 Z" fill="#add7e1" stroke="none"><title>Biscayne Bay</title></path><path d="M-300.1,2615.7 L821.4,2622.6 L875.3,2638.4 L896.6,2581.7 L925.6,2536.8 L1008.9,2363.4 L1045.9,2319.2 L1082.1,2243.8 L1112.2,2192.6 L1134.5,2163.5 L1142.8,2136.4 L1146.6,2080.6 L1148.1,2056.5 L1150.3,2038.3 L1145.4,2005.5 L1156.7,1940.0 L1161.3,1897.0 L1171.4,1851.7 L1174.1,1817.8 L1186.5,1756.7 L1191.4,1725.0 L1214.4,1679.0 L1216.3,1653.0 L1212.9,1599.1 L1220.8,1529.7 L1221.6,1480.3 L1224.6,1381.9 L1245.0,1306.5 L1271.4,1221.7 L1310.2,1139.6 L1387.6,1036.3 L1403.6,1005.9 L1414.0,977.3 L1417.0,946.6 L1422.9,917.8 L1429.6,897.3 L1464.3,800.1 L1475.7,764.0 L1481.6,752.2 L1495.4,727.4 L1511.1,696.1 L1518.3,669.6 L1523.8,641.9 L1533.7,604.2 L1543.9,556.1 L1556.4,489.6 L1564.4,452.9 L1571.7,414.6 L1575.4,380.7 L1578.4,330.3 L1578.2,279.1 L1575.0,249.0 L1571.2,217.2 L1564.4,174.3 L1564.6,151.8 L1563.1,125.7 L1558.1,101.8 L1545.3,70.3 L1540.4,28.1 L1541.2,1.8 L1538.4,-19.0 L1532.8,-24.3 L1520.4,-38.2 L1528.2,-44.6 L1524.3,-52.7 L1514.7,-59.9 L1491.3,-88.5 L1490.1,-98.9 L1486.4,-111.5 L1460.6,-127.4 L1450.2,-123.4 L1438.1,-103.4 L1431.0,-108.7 L1431.5,-112.9 L1439.6,-121.5 L1441.7,-134.0 L1435.0,-135.1 L1422.7,-137.9 L1415.7,-152.6 L1395.3,-153.0 L1369.9,-150.1 L1345.9,-175.1 L1338.5,-200.7 L1262.2,-232.7 L1197.2,-264.7 L1107.0,-320.7 L1043.2,-338.4 L973.2,-313.8 L936.4,-289.2 L918.3,-272.7 L858.0,-272.7 L785.2,-283.8 L749.2,-299.1 L720.4,-271.1 L761.1,-227.3 L731.2,-193.4 L687.8,-171.3 L615.4,-145.4 L576.4,-117.0 L596.6,-15.2 L606.1,7.9 L612.5,16.1 L616.8,18.2 L621.2,18.8 L631.9,12.5 L659.2,-3.2 L659.5,-3.2 L777.5,-123.8 L777.2,-123.8 L814.9,-123.8 L815.1,-123.8 L900.6,-38.8 L900.7,-1.6 L834.0,66.7 L833.7,66.7 L782.3,119.2 L782.6,119.2 L800.5,136.9 L798.5,144.9 L798.0,150.7 L799.3,156.2 L805.1,157.5 L812.0,156.8 L818.2,152.9 L867.2,200.3 L872.1,198.8 L873.5,203.0 L876.9,208.8 L885.1,216.7 L893.3,224.5 L901.2,232.1 L910.2,240.6 L918.2,248.2 L926.2,255.8 L934.1,263.4 L924.3,282.9 L906.8,298.9 L854.8,316.4 L839.8,313.4 L814.3,325.4 L786.1,436.9 L756.8,454.9 L740.3,482.4 L722.0,472.4 L695.8,492.2 L692.3,541.1 L692.0,553.8 L683.4,558.9 L687.0,571.6 L691.2,583.9 L687.3,587.3 L682.7,587.4 L678.3,585.9 L652.0,555.6 L643.5,552.7 L632.7,562.2 L620.6,572.9 L597.7,592.8 L591.5,602.7 L593.4,614.4 L619.9,646.5 L610.4,660.4 L591.9,655.7 L489.6,731.6 L478.2,743.7 L478.5,753.6 L473.4,762.4 L463.2,766.0 L448.3,793.1 L426.9,812.5 L422.4,823.9 L410.4,823.7 L398.2,827.7 L382.2,839.1 L345.7,872.2 L311.8,916.8 L298.1,939.9 L292.3,940.2 L283.2,952.9 L283.5,971.9 L267.6,972.4 L252.6,988.9 L216.1,993.9 L201.6,976.9 L183.6,987.9 L178.1,1008.9 L186.4,1035.0 L173.0,1043.2 L152.3,1046.9 L106.8,1038.9 L94.8,1051.4 L81.5,1053.7 L68.0,1055.7 L25.7,1118.4 L27.2,1135.1 L1.0,1185.5 L30.6,1203.3 L37.8,1220.7 L61.7,1226.0 L71.5,1219.6 L118.6,1234.8 L135.4,1234.2 L147.9,1221.6 L161.9,1211.7 L188.7,1207.2 L199.4,1210.7 L208.2,1215.9 L215.2,1220.7 L220.4,1229.9 L217.2,1237.4 L210.9,1242.9 L196.4,1238.4 L181.9,1241.4 L171.2,1253.7 L167.9,1269.9 L158.6,1275.7 L155.6,1283.6 L153.7,1293.7 L144.1,1301.1 L133.2,1304.1 L126.3,1329.1 L144.4,1365.0 L137.5,1372.4 L124.6,1375.0 L121.5,1384.0 L120.0,1393.1 L126.9,1406.3 L111.1,1409.0 L99.2,1429.4 L109.5,1448.9 L131.5,1457.2 L149.7,1460.4 L171.5,1447.2 L195.9,1451.2 L243.8,1443.3 L254.4,1437.3 L257.7,1429.9 L250.5,1421.2 L241.4,1413.3 L245.4,1410.8 L270.6,1429.9 L278.4,1430.9 L283.1,1426.9 L285.1,1422.2 L284.8,1417.7 L279.8,1411.0 L267.3,1396.1 L277.5,1401.2 L283.6,1401.9 L288.6,1401.1 L294.7,1402.7 L295.3,1408.8 L300.3,1416.6 L304.3,1420.3 L309.4,1425.0 L313.5,1431.4 L319.1,1433.7 L322.7,1442.5 L325.7,1452.0 L333.3,1455.5 L337.2,1459.3 L341.2,1465.4 L338.7,1472.1 L332.1,1478.7 L327.0,1492.6 L327.6,1495.6 L304.8,1499.3 L293.9,1506.5 L293.5,1517.5 L285.5,1522.5 L273.4,1522.8 L256.3,1530.4 L256.3,1540.3 L227.2,1556.9 L197.2,1562.2 L183.2,1572.5 L136.9,1560.7 L67.4,1575.7 L-3.1,1585.2 L-25.4,1617.1 L-90.4,1609.8 L-144.6,1654.9 L-168.7,1685.3 L-184.2,1669.8 L-208.2,1676.6 L-207.7,1710.0 L-236.5,1713.4 L-263.4,1747.9 L-298.4,1730.8 L-506.6,1543.9 L-579.1,1528.5 L-616.8,1566.7 L-646.4,1573.9 L-658.5,1613.6 L-682.0,1624.3 L-690.6,1605.5 L-751.4,1527.8 L-836.3,1537.4 L-825.1,1565.3 L-862.1,1596.9 L-848.2,1633.2 L-872.0,1643.1 L-911.8,1631.2 L-990.7,1634.5 L-1078.2,1608.5 L-1100.3,1616.7 L-1017.1,1749.3 L-901.7,1827.2 L-821.2,1876.7 L-709.0,1904.4 L-443.1,1968.4 L-360.0,2053.5 L-348.1,2105.6 L-317.1,2126.1 L-259.5,2407.2 L-249.3,2437.5 L-248.9,2450.7 L-245.1,2470.8 L-234.5,2478.0 L-225.4,2489.0 L-243.6,2499.6 L-244.3,2517.8 L-226.9,2543.2 L-240.6,2552.7 L-242.1,2575.8 L-266.7,2579.6 L-298.5,2599.7 L-299.5,2601.9 L-298.8,2608.3 L-300.1,2615.7 Z" fill="#d5f2cb" stroke="#9fcf91" stroke-width="0.4"><title>Crandon Park</title></path><path d="M-300.1,2615.7 L821.4,2622.6 L875.3,2638.4 L896.6,2581.7 L925.6,2536.8 L1008.9,2363.4 L1045.9,2319.2 L1082.1,2243.8 L1112.2,2192.6 L1134.5,2163.5 L1142.8,2136.4 L1146.6,2080.6 L1148.1,2056.5 L1150.3,2038.3 L1145.4,2005.5 L1156.7,1940.0 L1161.3,1897.0 L1171.4,1851.7 L1174.1,1817.8 L1186.5,1756.7 L1191.4,1725.0 L1214.4,1679.0 L1216.3,1653.0 L1212.9,1599.1 L1220.8,1529.7 L1221.6,1480.3 L1224.6,1381.9 L1245.0,1306.5 L1271.4,1221.7 L1310.2,1139.6 L1387.6,1036.3 L1403.6,1005.9 L1414.0,977.3 L1417.0,946.6 L1422.9,917.8 L1429.6,897.3 L1464.3,800.1 L1475.7,764.0 L1481.6,752.2 L1495.4,727.4 L1511.1,696.1 L1518.3,669.6 L1523.8,641.9 L1533.7,604.2 L1543.9,556.1 L1556.4,489.6 L1564.4,452.9 L1571.7,414.6 L1575.4,380.7 L1578.4,330.3 L1578.2,279.1 L1575.0,249.0 L1571.2,217.2 L1564.4,174.3 L1564.6,151.8 L1563.1,125.7 L1558.1,101.8 L1545.3,70.3 L1540.4,28.1 L1541.2,1.8 L1538.4,-19.0 L1532.8,-24.3 L1520.4,-38.2 L1528.2,-44.6 L1524.3,-52.7 L1514.7,-59.9 L1491.3,-88.5 L1490.1,-98.9 L1486.4,-111.5 L1460.6,-127.4 L1450.2,-123.4 L1438.1,-103.4 L1431.0,-108.7 L1431.5,-112.9 L1439.6,-121.5 L1441.7,-134.0 L1435.0,-135.1 L1422.7,-137.9 L1415.7,-152.6 L1395.3,-153.0 L1369.9,-150.1 L1345.9,-175.1 L1338.5,-200.7 L1262.2,-232.7 L1197.2,-264.7 L1107.0,-320.7 L1043.2,-338.4 L973.2,-313.8 L936.4,-289.2 L918.3,-272.7 L858.0,-272.7 L785.2,-283.8 L749.2,-299.1 L720.4,-271.1 L761.1,-227.3 L731.2,-193.4 L687.8,-171.3 L615.4,-145.4 L576.4,-117.0 L596.6,-15.2 L606.1,7.9 L612.5,16.1 L616.8,18.2 L621.2,18.8 L631.9,12.5 L659.2,-3.2 L659.5,-3.2 L777.5,-123.8 L777.2,-123.8 L814.9,-123.8 L815.1,-123.8 L900.6,-38.8 L900.7,-1.6 L834.0,66.7 L833.7,66.7 L782.3,119.2 L782.6,119.2 L800.5,136.9 L798.5,144.9 L798.0,150.7 L799.3,156.2 L805.1,157.5 L812.0,156.8 L818.2,152.9 L867.2,200.3 L872.1,198.8 L873.5,203.0 L876.9,208.8 L885.1,216.7 L893.3,224.5 L901.2,232.1 L910.2,240.6 L918.2,248.2 L926.2,255.8 L934.1,263.4 L924.3,282.9 L906.8,298.9 L854.8,316.4 L839.8,313.4 L814.3,325.4 L786.1,436.9 L756.8,454.9 L740.3,482.4 L722.0,472.4 L695.8,492.2 L692.3,541.1 L692.0,553.8 L683.4,558.9 L687.0,571.6 L691.2,583.9 L687.3,587.3 L682.7,587.4 L678.3,585.9 L652.0,555.6 L643.5,552.7 L632.7,562.2 L620.6,572.9 L597.7,592.8 L591.5,602.7 L593.4,614.4 L619.9,646.5 L610.4,660.4 L591.9,655.7 L489.6,731.6 L478.2,743.7 L478.5,753.6 L473.4,762.4 L463.2,766.0 L448.3,793.1 L426.9,812.5 L422.4,823.9 L410.4,823.7 L398.2,827.7 L382.2,839.1 L345.7,872.2 L311.8,916.8 L298.1,939.9 L292.3,940.2 L283.2,952.9 L283.5,971.9 L267.6,972.4 L252.6,988.9 L216.1,993.9 L201.6,976.9 L183.6,987.9 L178.1,1008.9 L186.4,1035.0 L173.0,1043.2 L152.3,1046.9 L106.8,1038.9 L94.8,1051.4 L81.5,1053.7 L68.0,1055.7 L25.7,1118.4 L27.2,1135.1 L1.0,1185.5 L30.6,1203.3 L37.8,1220.7 L61.7,1226.0 L71.5,1219.6 L118.6,1234.8 L135.4,1234.2 L147.9,1221.6 L161.9,1211.7 L188.7,1207.2 L199.4,1210.7 L208.2,1215.9 L215.2,1220.7 L220.4,1229.9 L217.2,1237.4 L210.9,1242.9 L196.4,1238.4 L181.9,1241.4 L171.2,1253.7 L167.9,1269.9 L158.6,1275.7 L155.6,1283.6 L153.7,1293.7 L144.1,1301.1 L133.2,1304.1 L126.3,1329.1 L144.4,1365.0 L137.5,1372.4 L124.6,1375.0 L121.5,1384.0 L120.0,1393.1 L126.9,1406.3 L111.1,1409.0 L99.2,1429.4 L109.5,1448.9 L131.5,1457.2 L149.7,1460.4 L171.5,1447.2 L195.9,1451.2 L243.8,1443.3 L254.4,1437.3 L257.7,1429.9 L250.5,1421.2 L241.4,1413.3 L245.4,1410.8 L270.6,1429.9 L278.4,1430.9 L283.1,1426.9 L285.1,1422.2 L284.8,1417.7 L279.8,1411.0 L267.3,1396.1 L277.5,1401.2 L283.6,1401.9 L288.6,1401.1 L294.7,1402.7 L295.3,1408.8 L300.3,1416.6 L304.3,1420.3 L309.4,1425.0 L313.5,1431.4 L319.1,1433.7 L322.7,1442.5 L325.7,1452.0 L333.3,1455.5 L337.2,1459.3 L341.2,1465.4 L338.7,1472.1 L332.1,1478.7 L327.0,1492.6 L327.6,1495.6 L304.8,1499.3 L293.9,1506.5 L293.5,1517.5 L285.5,1522.5 L273.4,1522.8 L256.3,1530.4 L256.3,1540.3 L227.2,1556.9 L197.2,1562.2 L183.2,1572.5 L136.9,1560.7 L67.4,1575.7 L-3.1,1585.2 L-25.4,1617.1 L-90.4,1609.8 L-144.6,1654.9 L-168.7,1685.3 L-184.2,1669.8 L-208.2,1676.6 L-207.7,1710.0 L-236.5,1713.4 L-263.4,1747.9 L-298.4,1730.8 L-506.6,1543.9 L-579.1,1528.5 L-616.8,1566.7 L-646.4,1573.9 L-658.5,1613.6 L-682.0,1624.3 L-690.6,1605.5 L-751.4,1527.8 L-836.3,1537.4 L-825.1,1565.3 L-862.1,1596.9 L-848.2,1633.2 L-872.0,1643.1 L-911.8,1631.2 L-990.7,1634.5 L-1078.2,1608.5 L-1100.3,1616.7 L-1017.1,1749.3 L-901.7,1827.2 L-821.2,1876.7 L-709.0,1904.4 L-443.1,1968.4 L-360.0,2053.5 L-348.1,2105.6 L-317.1,2126.1 L-259.5,2407.2 L-249.3,2437.5 L-248.9,2450.7 L-245.1,2470.8 L-234.5,2478.0 L-225.4,2489.0 L-243.6,2499.6 L-244.3,2517.8 L-226.9,2543.2 L-240.6,2552.7 L-242.1,2575.8 L-266.7,2579.6 L-298.5,2599.7 L-299.5,2601.9 L-298.8,2608.3 L-300.1,2615.7 Z" fill="url(#park-dots)" stroke="none"/><path d="M-300.1,2615.7 L821.4,2622.6 L875.3,2638.4 L896.6,2581.7 L925.6,2536.8 L1008.9,2363.4 L1045.9,2319.2 L1082.1,2243.8 L1112.2,2192.6 L1134.5,2163.5 L1142.8,2136.4 L1146.6,2080.6 L1148.1,2056.5 L1150.3,2038.3 L1145.4,2005.5 L1156.7,1940.0 L1161.3,1897.0 L1171.4,1851.7 L1174.1,1817.8 L1186.5,1756.7 L1191.4,1725.0 L1214.4,1679.0 L1216.3,1653.0 L1212.9,1599.1 L1220.8,1529.7 L1221.6,1480.3 L1224.6,1381.9 L1245.0,1306.5 L1271.4,1221.7 L1310.2,1139.6 L1387.6,1036.3 L1403.6,1005.9 L1414.0,977.3 L1417.0,946.6 L1422.9,917.8 L1429.6,897.3 L1464.3,800.1 L1475.7,764.0 L1481.6,752.2 L1495.4,727.4 L1511.1,696.1 L1518.3,669.6 L1523.8,641.9 L1533.7,604.2 L1543.9,556.1 L1556.4,489.6 L1564.4,452.9 L1571.7,414.6 L1575.4,380.7 L1578.4,330.3 L1578.2,279.1 L1575.0,249.0 L1571.2,217.2 L1564.4,174.3 L1564.6,151.8 L1563.1,125.7 L1558.1,101.8 L1545.3,70.3 L1540.4,28.1 L1541.2,1.8 L1538.4,-19.0 L1532.8,-24.3 L1520.4,-38.2 L1528.2,-44.6 L1524.3,-52.7 L1514.7,-59.9 L1491.3,-88.5 L1490.1,-98.9 L1486.4,-111.5 L1460.6,-127.4 L1450.2,-123.4 L1438.1,-103.4 L1431.0,-108.7 L1431.5,-112.9 L1439.6,-121.5 L1441.7,-134.0 L1435.0,-135.1 L1422.7,-137.9 L1415.7,-152.6 L1395.3,-153.0 L1369.9,-150.1 L1345.9,-175.1 L1338.5,-200.7 L1262.2,-232.7 L1197.2,-264.7 L1107.0,-320.7 L1043.2,-338.4 L973.2,-313.8 L936.4,-289.2 L918.3,-272.7 L858.0,-272.7 L785.2,-283.8 L749.2,-299.1 L720.4,-271.1 L761.1,-227.3 L731.2,-193.4 L687.8,-171.3 L615.4,-145.4 L576.4,-117.0 L596.6,-15.2 L606.1,7.9 L612.5,16.1 L616.8,18.2 L621.2,18.8 L631.9,12.5 L659.2,-3.2 L659.5,-3.2 L777.5,-123.8 L777.2,-123.8 L814.9,-123.8 L815.1,-123.8 L900.6,-38.8 L900.7,-1.6 L834.0,66.7 L833.7,66.7 L782.3,119.2 L782.6,119.2 L800.5,136.9 L798.5,144.9 L798.0,150.7 L799.3,156.2 L805.1,157.5 L812.0,156.8 L818.2,152.9 L867.2,200.3 L872.1,198.8 L873.5,203.0 L876.9,208.8 L885.1,216.7 L893.3,224.5 L901.2,232.1 L910.2,240.6 L918.2,248.2 L926.2,255.8 L934.1,263.4 L924.3,282.9 L906.8,298.9 L854.8,316.4 L839.8,313.4 L814.3,325.4 L786.1,436.9 L756.8,454.9 L740.3,482.4 L722.0,472.4 L695.8,492.2 L692.3,541.1 L692.0,553.8 L683.4,558.9 L687.0,571.6 L691.2,583.9 L687.3,587.3 L682.7,587.4 L678.3,585.9 L652.0,555.6 L643.5,552.7 L632.7,562.2 L620.6,572.9 L597.7,592.8 L591.5,602.7 L593.4,614.4 L619.9,646.5 L610.4,660.4 L591.9,655.7 L489.6,731.6 L478.2,743.7 L478.5,753.6 L473.4,762.4 L463.2,766.0 L448.3,793.1 L426.9,812.5 L422.4,823.9 L410.4,823.7 L398.2,827.7 L382.2,839.1 L345.7,872.2 L311.8,916.8 L298.1,939.9 L292.3,940.2 L283.2,952.9 L283.5,971.9 L267.6,972.4 L252.6,988.9 L216.1,993.9 L201.6,976.9 L183.6,987.9 L178.1,1008.9 L186.4,1035.0 L173.0,1043.2 L152.3,1046.9 L106.8,1038.9 L94.8,1051.4 L81.5,1053.7 L68.0,1055.7 L25.7,1118.4 L27.2,1135.1 L1.0,1185.5 L30.6,1203.3 L37.8,1220.7 L61.7,1226.0 L71.5,1219.6 L118.6,1234.8 L135.4,1234.2 L147.9,1221.6 L161.9,1211.7 L188.7,1207.2 L199.4,1210.7 L208.2,1215.9 L215.2,1220.7 L220.4,1229.9 L217.2,1237.4 L210.9,1242.9 L196.4,1238.4 L181.9,1241.4 L171.2,1253.7 L167.9,1269.9 L158.6,1275.7 L155.6,1283.6 L153.7,1293.7 L144.1,1301.1 L133.2,1304.1 L126.3,1329.1 L144.4,1365.0 L137.5,1372.4 L124.6,1375.0 L121.5,1384.0 L120.0,1393.1 L126.9,1406.3 L111.1,1409.0 L99.2,1429.4 L109.5,1448.9 L131.5,1457.2 L149.7,1460.4 L171.5,1447.2 L195.9,1451.2 L243.8,1443.3 L254.4,1437.3 L257.7,1429.9 L250.5,1421.2 L241.4,1413.3 L245.4,1410.8 L270.6,1429.9 L278.4,1430.9 L283.1,1426.9 L285.1,1422.2 L284.8,1417.7 L279.8,1411.0 L267.3,1396.1 L277.5,1401.2 L283.6,1401.9 L288.6,1401.1 L294.7,1402.7 L295.3,1408.8 L300.3,1416.6 L304.3,1420.3 L309.4,1425.0 L313.5,1431.4 L319.1,1433.7 L322.7,1442.5 L325.7,1452.0 L333.3,1455.5 L337.2,1459.3 L341.2,1465.4 L338.7,1472.1 L332.1,1478.7 L327.0,1492.6 L327.6,1495.6 L304.8,1499.3 L293.9,1506.5 L293.5,1517.5 L285.5,1522.5 L273.4,1522.8 L256.3,1530.4 L256.3,1540.3 L227.2,1556.9 L197.2,1562.2 L183.2,1572.5 L136.9,1560.7 L67.4,1575.7 L-3.1,1585.2 L-25.4,1617.1 L-90.4,1609.8 L-144.6,1654.9 L-168.7,1685.3 L-184.2,1669.8 L-208.2,1676.6 L-207.7,1710.0 L-236.5,1713.4 L-263.4,1747.9 L-298.4,1730.8 L-506.6,1543.9 L-579.1,1528.5 L-616.8,1566.7 L-646.4,1573.9 L-658.5,1613.6 L-682.0,1624.3 L-690.6,1605.5 L-751.4,1527.8 L-836.3,1537.4 L-825.1,1565.3 L-862.1,1596.9 L-848.2,1633.2 L-872.0,1643.1 L-911.8,1631.2 L-990.7,1634.5 L-1078.2,1608.5 L-1100.3,1616.7 L-1017.1,1749.3 L-901.7,1827.2 L-821.2,1876.7 L-709.0,1904.4 L-443.1,1968.4 L-360.0,2053.5 L-348.1,2105.6 L-317.1,2126.1 L-259.5,2407.2 L-249.3,2437.5 L-248.9,2450.7 L-245.1,2470.8 L-234.5,2478.0 L-225.4,2489.0 L-243.6,2499.6 L-244.3,2517.8 L-226.9,2543.2 L-240.6,2552.7 L-242.1,2575.8 L-266.7,2579.6 L-298.5,2599.7 L-299.5,2601.9 L-298.8,2608.3 L-300.1,2615.7 Z" fill="url(#park-canopy)" stroke="none"/><path d="M-1.0,-1.0 L257.0,-1.0 L257.0,257.0 L-1.0,257.0 L-1.0,-1.0 Z" fill="#add7e1" stroke="none" fill-rule="evenodd"><title>Biscayne Bay</title></path></svg>