<svg xmlns="http://www.w3.org/2000/svg" width="256" height="256" viewBox="0 0 256 256"><rect width="256" height="256" fill="#f1efe7"/><path d="M-11018.7,6866.3 L-10803.9,6777.0 L-10736.7,6744.7 L-10436.2,6600.4 L-10379.8,6655.0 L-10374.9,6659.7 L-10269.5,6569.5 L-10244.4,6550.4 L-10202.5,6512.6 L-9966.4,6295.8 L-9775.9,6078.2 L-9768.6,6064.3 L-9761.6,6056.4 L-9750.5,6043.7 L-9739.2,6030.8 L-9734.6,6025.5 L-9809.7,5928.4 L-9710.3,5868.8 L-9656.4,5940.5 L-9580.2,5853.3 L-9644.7,5767.9 L-9564.8,5684.6 L-9503.3,5765.6 L-9432.7,5685.2 L-9402.6,5665.5 L-9255.4,5570.0 L-9182.7,5521.7 L-9095.1,5464.1 L-9053.7,5436.9 L-8948.8,5369.2 L-8975.8,5333.7 L-9024.1,5269.0 L-8899.2,5189.6 L-8853.7,5166.1 L-8850.2,5163.6 L-8826.2,5145.1 L-8740.6,5099.3 L-8734.7,5090.1 L-8710.7,5073.6 L-8697.7,5054.6 L-8694.0,5051.8 L-8673.1,5043.7 L-8625.9,5026.8 L-8593.6,5012.6 L-8479.5,4959.0 L-8478.1,4962.7 L-8382.4,4921.8 L-8343.3,4971.9 L-8256.2,4913.8 L-8243.8,4905.3 L-8242.6,4904.3 L-8241.4,4902.7 L-8239.5,4899.4 L-8238.5,4896.3 L-8237.9,4892.6 L-8238.0,4889.6 L-8238.4,4886.7 L-8238.8,4883.4 L-8238.9,4880.9 L-8238.7,4878.8 L-8238.3,4876.6 L-8236.7,4872.6 L-8235.6,4870.4 L-8233.1,4866.6 L-8230.5,4863.8 L-8217.8,4858.7 L-8207.2,4854.7 L-8193.7,4850.3 L-8187.4,4848.6 L-8176.2,4844.9 L-8168.3,4842.1 L-8157.4,4837.6 L-8142.6,4831.1 L-8126.6,4823.6 L-8118.0,4819.4 L-8107.2,4813.9 L-8097.1,4808.3 L-8087.0,4802.3 L-8076.7,4795.6 L-8073.5,4793.4 L-8052.8,4777.6 L-8035.4,4764.2 L-8018.4,4749.8 L-8002.5,4734.8 L-7991.0,4721.9 L-7979.6,4708.0 L-7965.6,4690.0 L-7952.8,4672.0 L-7938.1,4648.9 L-7928.5,4631.0 L-7922.5,4619.6 L-7913.6,4600.3 L-7906.1,4582.4 L-7899.4,4563.1 L-7894.0,4546.2 L-7888.1,4518.8 L-7883.8,4494.3 L-7881.5,4473.3 L-7879.5,4448.5 L-7879.3,4422.0 L-7880.9,4397.5 L-7885.1,4365.5 L-7889.5,4343.7 L-7894.5,4323.1 L-7901.9,4299.7 L-7908.2,4281.8 L-7915.4,4262.3 L-7922.2,4246.1 L-7926.8,4235.6 L-7928.7,4227.9 L-7929.0,4222.0 L-7928.4,4216.7 L-7926.3,4212.1 L-7923.1,4208.2 L-7918.9,4206.0 L-7914.4,4205.4 L-7902.3,4208.3 L-7868.6,4216.4 L-7857.4,3961.7 L-7813.7,3507.1 L-7861.2,3495.9 L-7866.4,3481.6 L-7866.2,3461.1 L-7859.6,3414.6 L-7850.6,3404.1 L-7842.6,3373.9 L-7792.1,3385.6 L-7764.3,3095.1 L-7756.6,3014.7 L-7772.3,3010.8 L-7762.8,2972.4 L-7795.1,2964.7 L-7791.0,2941.2 L-7785.3,2925.7 L-7778.2,2907.6 L-7766.2,2882.3 L-7753.3,2885.2 L-7735.9,2702.5 L-7731.8,2591.7 L-7731.0,2571.3 L-7721.6,2500.8 L-7702.9,2325.1 L-7578.1,1999.7 L-7549.6,1911.0 L-7202.9,1778.0 L-7169.0,1764.4 L-7163.1,1761.2 L-7158.5,1757.0 L-7153.4,1751.1 L-7149.5,1744.2 L-7146.9,1737.4 L-7146.3,1727.5 L-7146.8,1715.2 L-7151.4,1559.7 L-7153.1,1529.6 L-7153.6,1508.9 L-7154.3,1468.7 L-7155.1,1456.1 L-7156.6,1445.5 L-7158.7,1436.1 L-7161.8,1426.5 L-7166.7,1415.2 L-7173.9,1403.1 L-7180.9,1393.5 L-7186.3,1384.4 L-7191.8,1372.3 L-7196.4,1360.7 L-7198.2,1351.2 L-7199.6,1340.7 L-7200.3,1330.2 L-7200.0,1320.0 L-7198.8,1308.1 L-7196.0,1296.4 L-7192.3,1286.0 L-7188.4,1276.5 L-7183.4,1267.3 L-7177.3,1256.1 L-7173.3,1246.0 L-7169.8,1233.1 L-7163.4,1223.3 L-7165.6,1134.1 L-7168.9,1128.9 L-7169.9,1068.3 L-7171.6,996.8 L-7170.4,986.9 L-7167.2,976.8 L-7159.2,961.0 L-7105.7,845.9 L-7104.6,844.0 L-7095.2,823.5 L-7086.3,804.1 L-7076.3,784.1 L-7066.5,763.5 L-7061.7,753.5 L-7009.1,645.6 L-6952.9,526.4 L-6831.3,279.6 L-6904.4,197.7 L-6964.0,324.7 L-7015.5,434.6 L-7023.3,450.2 L-7039.2,482.7 L-7071.0,480.0 L-7079.7,479.5 L-7082.8,482.3 L-7078.6,486.1 L-7094.9,500.6 L-7107.8,512.5 L-7110.2,563.4 L-7115.0,573.6 L-7130.6,573.0 L-7133.2,572.1 L-7337.6,487.7 L-7342.0,485.4 L-7346.7,482.4 L-7354.1,476.8 L-7359.8,471.4 L-7364.6,466.2 L-7369.3,459.8 L-7372.9,454.2 L-7375.7,448.4 L-7377.9,442.3 L-7379.4,438.1 L-7380.5,433.0 L-7381.3,427.0 L-7382.1,418.8 L-7382.1,407.1 L-7383.5,367.4 L-7377.9,367.1 L-7378.7,346.1 L-7379.6,311.5 L-7374.4,311.4 L-7374.8,287.8 L-7380.7,287.9 L-7383.4,188.5 L-7377.8,188.2 L-7378.7,164.9 L-7384.1,165.1 L-7386.4,91.6 L-7359.4,62.5 L-7324.9,61.3 L-7299.2,60.4 L-7265.3,59.3 L-7232.7,58.3 L-7203.5,57.3 L-7190.8,56.7 L-7191.4,45.4 L-7191.6,33.6 L-7193.5,-4.7 L-7194.2,-77.8 L-7195.2,-79.1 L-7195.4,-86.3 L-7193.3,-86.4 L-7198.4,-262.5 L-7202.8,-428.2 L-7203.5,-433.4 L-7203.9,-443.0 L-7276.1,-440.4 L-7324.1,-444.5 L-7683.4,-432.0 L-7683.5,-435.2 L-7684.2,-450.5 L-7854.6,-444.5 L-7854.9,-472.8 L-7877.4,-477.9 L-7881.4,-599.0 L-7218.6,-622.0 L-7207.6,-637.1 L-7208.0,-680.1 L-7208.8,-717.3 L-7209.4,-740.6 L-7210.3,-763.3 L-7263.0,-788.1 L-7265.1,-843.2 L-7211.1,-870.0 L-7216.0,-997.5 L-7217.4,-1003.8 L-7271.1,-1028.9 L-7272.8,-1097.1 L-7221.8,-1123.4 L-7244.5,-1400.3 L-7238.5,-1523.5 L-7235.5,-1724.4 L-7235.7,-1942.9 L-7230.9,-1973.5 L-7230.6,-1988.3 L-7235.4,-2006.1 L-7230.4,-2006.1 L-7230.4,-2022.2 L-7227.4,-2433.2 L-7227.9,-2451.5 L-7233.6,-2451.5 L-7233.4,-2527.1 L-7236.7,-2531.8 L-7241.9,-2609.8 L-7231.6,-2681.1 L-7232.9,-2767.4 L-7236.4,-2788.1 L-7231.1,-2852.0 L-7234.7,-2929.3 L-7243.7,-3012.0 L-7260.8,-3146.0 L-7252.7,-3182.9 L-7256.3,-3218.8 L-7286.9,-3244.9 L-7331.8,-3244.5 L-7400.2,-3235.5 L-7444.7,-3235.5 L-7485.1,-3250.3 L-7538.2,-3286.7 L-7538.2,-3352.0 L-7539.6,-3432.3 L-7534.4,-3499.2 L-7516.8,-3551.4 L-7222.1,-3556.9 L-7215.3,-3974.8 L-7215.3,-4576.4 L-7218.4,-4794.7 L8693.8,-11366.4 L8693.8,24851.8 L-11018.7,24851.8 L-11018.7,6866.3 Z" fill="#add7e1" stroke="none"><title>Biscayne Bay</title></path><path d="M-682.8,4017.3 L771.2,3168.6 L286.5,1781.8 L25.5,-1364.9 L25.5,-3828.7 L305.2,-6313.4 L4872.3,-8632.7 L4909.6,-5360.9 L4294.4,-2462.2 L3735.2,643.2 L3362.3,3127.2 L2579.4,4017.3 L-682.8,4017.3 Z" fill="#f1efe7" stroke="#8ab09d" stroke-width="0.65"><title>Miami Beach</title></path><path d="M-6398.1,154.7 L-6445.4,131.0 L-6449.1,132.7 L-6504.0,261.8 L-6509.6,279.3 L-6519.7,298.7 L-6526.8,315.9 L-6561.4,395.2 L-6564.2,402.0 L-6565.3,406.9 L-6565.8,412.0 L-6565.4,416.7 L-6561.7,425.3 L-6557.1,432.8 L-6554.1,437.4 L-6550.0,443.1 L-6539.5,456.4 L-6506.0,500.3 L-6467.2,551.9 L-6453.8,566.4 L-6432.3,592.4 L-6412.1,619.0 L-6391.4,644.5 L-6380.1,662.0 L-6368.8,678.2 L-6366.8,680.6 L-6363.9,681.9 L-6361.1,681.3 L-6360.0,680.7 L-6361.9,699.1 L-6254.4,834.3 L-6244.6,827.7 L-6241.3,827.8 L-6236.3,828.2 L-6229.8,829.8 L-6222.9,833.0 L-6217.0,835.6 L-6213.5,837.3 L-6209.1,840.2 L-6205.4,843.8 L-6197.5,852.3 L-6185.8,865.1 L-6174.9,877.9 L-6166.0,889.8 L-6151.5,915.8 L-6142.1,933.9 L-6131.2,958.1 L-6119.7,980.8 L-6100.4,1019.4 L-6095.3,1025.8 L-6088.2,1033.1 L-6080.7,1040.1 L-6029.0,1080.0 L-6023.1,1085.3 L-6018.9,1089.6 L-6014.9,1096.0 L-6002.6,1130.4 L-6000.6,1137.3 L-5638.7,1310.3 L-5619.8,1319.3 L-5429.3,1410.3 L-5238.0,1501.8 L-5187.2,1481.9 L-5171.8,1533.7 L-4593.8,1809.4 L-4612.0,1848.8 L-4550.8,1878.5 L-4531.4,1838.8 L-3966.0,2108.3 L-3551.7,2309.1 L-3566.2,2339.8 L-3504.7,2369.4 L-3490.4,2338.0 L-3227.5,2463.1 L-3265.2,2538.8 L-2676.9,2825.7 L-1805.6,2851.8 L-1194.8,2869.9 L-1049.2,2874.9 L-486.8,2890.7 L-440.8,2891.9 L-440.7,2889.3 L-107.8,2899.3 L-35.7,2901.5 L34.5,2903.7 L34.3,2906.9 L117.7,2908.3 L137.5,2909.8 L137.8,2904.3 L218.3,2827.7 L225.5,2828.0 L240.6,2844.8 L246.7,2840.4 L250.6,2841.7 L255.8,2841.6 L263.6,2839.7 L272.3,2837.0 L278.7,2833.2 L284.7,2827.6 L298.9,2796.1 L302.9,2785.5 L304.3,2775.9 L304.6,2766.6 L300.8,2747.6 L298.9,2741.5 L295.7,2735.5 L290.3,2726.9 L283.2,2717.4 L277.2,2711.1 L265.0,2700.8 L250.9,2690.2 L228.1,2674.1 L203.8,2661.3 L190.9,2654.5 L173.9,2647.9 L148.9,2637.6 L36.6,2577.6 L-72.5,2510.3 L-114.0,2480.0 L-160.0,2450.8 L-298.9,2373.8 L-447.4,2304.5 L-454.5,2319.6 L-483.0,2305.9 L-510.4,2364.3 L-818.6,2223.1 L-905.3,2182.3 L-1008.7,2135.4 L-1303.6,1999.6 L-1570.1,1877.1 L-1677.0,1827.7 L-1730.1,1804.3 L-1784.6,1780.0 L-2007.5,1673.0 L-2373.0,1498.5 L-2528.8,1423.6 L-2572.8,1514.5 L-3058.3,1282.6 L-3302.8,1165.7 L-3540.6,1051.7 L-3929.5,866.2 L-4319.5,679.6 L-4823.9,439.0 L-5238.7,241.3 L-5316.4,201.1 L-5546.0,94.2 L-5780.5,-18.2 L-6251.4,-243.4 L-6274.5,-180.1 L-6393.2,134.6 L-6390.8,138.7 L-6398.1,154.7 Z" fill="#f1efe7" stroke="#8ab09d" stroke-width="0.65"></path><path d="M-1.0,-1.0 L257.0,-1.0 L257.0,257.0 L-1.0,257.0 L-1.0,-1.0 Z" fill="#add7e1" stroke="none" fill-rule="evenodd"><title>Biscayne Bay</title></path><path d="M-5956.9,-390.4 L632.2,2577.3" fill="none" stroke="#6fb5c7" stroke-width="1.7" stroke-dasharray="5 7" opacity="0.34" stroke-linecap="round" stroke-linejoin="round"><title>Main Channel</title></path><path d="M-144.2,252.5 L-24.2,688.5" fill="none" stroke="#ecfbff" stroke-width="4.3" stroke-dasharray="6 8" opacity="0.90" stroke-linecap="round" stroke-linejoin="round"/><path d="M-144.2,252.5 L-24.2,688.5" fill="none" stroke="#388fb3" stroke-width="2.2" stroke-dasharray="5 8" opacity="0.86" stroke-linecap="round" stroke-linejoin="round"><title>Water Taxi Miami - Yellow</title></path></svg>