<svg xmlns="http://www.w3.org/2000/svg" width="256" height="256" viewBox="0 0 256 256"><defs><pattern id="park-dots" width="22" height="22" patternUnits="userSpaceOnUse"><circle cx="5" cy="5" r="2.1" fill="#63a95d" fill-opacity="0.26"/><circle cx="16" cy="7" r="1.55" fill="#76b970" fill-opacity="0.23"/><circle cx="10" cy="17" r="1.9" fill="#61a65b" fill-opacity="0.24"/><circle cx="21" cy="17" r="1.25" fill="#80c174" fill-opacity="0.18"/><circle cx="1" cy="19" r="1.2" fill="#70b46a" fill-opacity="0.17"/></pattern><pattern id="park-canopy" width="54" height="48" patternUnits="userSpaceOnUse"><circle cx="12" cy="11" r="3.6" fill="#5ea75a" fill-opacity="0.22"/><circle cx="31" cy="15" r="2.9" fill="#75ba6d" fill-opacity="0.18"/><circle cx="45" cy="31" r="3.3" fill="#67ae62" fill-opacity="0.20"/><circle cx="19" cy="39" r="2.5" fill="#83c378" fill-opacity="0.16"/></pattern></defs><rect width="256" height="256" fill="#f1efe7"/><path d="M-11018.7,-1325.7 L-10803.9,-1415.0 L-10736.7,-1447.3 L-10436.2,-1591.6 L-10379.8,-1537.0 L-10374.9,-1532.3 L-10269.5,-1622.5 L-10244.4,-1641.6 L-10202.5,-1679.4 L-9966.4,-1896.2 L-9775.9,-2113.8 L-9768.6,-2127.7 L-9761.6,-2135.6 L-9750.5,-2148.3 L-9739.2,-2161.2 L-9734.6,-2166.5 L-9809.7,-2263.6 L-9710.3,-2323.2 L-9656.4,-2251.5 L-9580.2,-2338.7 L-9644.7,-2424.1 L-9564.8,-2507.4 L-9503.3,-2426.4 L-9432.7,-2506.8 L-9402.6,-2526.5 L-9255.4,-2622.0 L-9182.7,-2670.3 L-9095.1,-2727.9 L-9053.7,-2755.1 L-8948.8,-2822.8 L-8975.8,-2858.3 L-9024.1,-2923.0 L-8899.2,-3002.4 L-8853.7,-3025.9 L-8850.2,-3028.4 L-8826.2,-3046.9 L-8740.6,-3092.7 L-8734.7,-3101.9 L-8710.7,-3118.4 L-8697.7,-3137.4 L-8694.0,-3140.2 L-8673.1,-3148.3 L-8625.9,-3165.2 L-8593.6,-3179.4 L-8479.5,-3233.0 L-8478.1,-3229.3 L-8382.4,-3270.2 L-8343.3,-3220.1 L-8256.2,-3278.2 L-8243.8,-3286.7 L-8242.6,-3287.7 L-8241.4,-3289.3 L-8239.5,-3292.6 L-8238.5,-3295.7 L-8237.9,-3299.4 L-8238.0,-3302.4 L-8238.4,-3305.3 L-8238.8,-3308.6 L-8238.9,-3311.1 L-8238.7,-3313.2 L-8238.3,-3315.4 L-8236.7,-3319.4 L-8235.6,-3321.6 L-8233.1,-3325.4 L-8230.5,-3328.2 L-8217.8,-3333.3 L-8207.2,-3337.3 L-8193.7,-3341.7 L-8187.4,-3343.4 L-8176.2,-3347.1 L-8168.3,-3349.9 L-8157.4,-3354.4 L-8142.6,-3360.9 L-8126.6,-3368.4 L-8118.0,-3372.6 L-8107.2,-3378.1 L-8097.1,-3383.7 L-8087.0,-3389.7 L-8076.7,-3396.4 L-8073.5,-3398.6 L-8052.8,-3414.4 L-8035.4,-3427.8 L-8018.4,-3442.2 L-8002.5,-3457.2 L-7991.0,-3470.1 L-7979.6,-3484.0 L-7965.6,-3502.0 L-7952.8,-3520.0 L-7938.1,-3543.1 L-7928.5,-3561.0 L-7922.5,-3572.4 L-7913.6,-3591.7 L-7906.1,-3609.6 L-7899.4,-3628.9 L-7894.0,-3645.8 L-7888.1,-3673.2 L-7883.8,-3697.7 L-7881.5,-3718.7 L-7879.5,-3743.5 L-7879.3,-3770.0 L-7880.9,-3794.5 L-7885.1,-3826.5 L-7889.5,-3848.3 L-7894.5,-3868.9 L-7901.9,-3892.3 L-7908.2,-3910.2 L-7915.4,-3929.7 L-7922.2,-3945.9 L-7926.8,-3956.4 L-7928.7,-3964.1 L-7929.0,-3970.0 L-7928.4,-3975.3 L-7926.3,-3979.9 L-7923.1,-3983.8 L-7918.9,-3986.0 L-7914.4,-3986.6 L-7902.3,-3983.7 L-7868.6,-3975.6 L-7857.4,-4230.3 L-7813.7,-4684.9 L-7861.2,-4696.1 L-7866.4,-4710.4 L-7866.2,-4730.9 L-7859.6,-4777.4 L-7850.6,-4787.9 L-7842.6,-4818.1 L-7792.1,-4806.4 L-7764.3,-5096.9 L-7756.6,-5177.3 L-7772.3,-5181.2 L-7762.8,-5219.6 L-7795.1,-5227.3 L-7791.0,-5250.8 L-7785.3,-5266.3 L-7778.2,-5284.4 L-7766.2,-5309.7 L-7753.3,-5306.8 L-7735.9,-5489.5 L-7731.8,-5600.3 L-7731.0,-5620.7 L-7721.6,-5691.2 L-7702.9,-5866.9 L-7578.1,-6192.3 L-7549.6,-6281.0 L-7202.9,-6414.0 L-7169.0,-6427.6 L-7163.1,-6430.8 L-7158.5,-6435.0 L-7153.4,-6440.9 L-7149.5,-6447.8 L-7146.9,-6454.6 L-7146.3,-6464.5 L-7146.8,-6476.8 L-7151.4,-6632.3 L-7153.1,-6662.4 L-7153.6,-6683.1 L-7154.3,-6723.3 L-7155.1,-6735.9 L-7156.6,-6746.5 L-7158.7,-6755.9 L-7161.8,-6765.5 L-7166.7,-6776.8 L-7173.9,-6788.9 L-7180.9,-6798.5 L-7186.3,-6807.6 L-7191.8,-6819.7 L-7196.4,-6831.3 L-7198.2,-6840.8 L-7199.6,-6851.3 L-7200.3,-6861.8 L-7200.0,-6872.0 L-7198.8,-6883.9 L-7196.0,-6895.6 L-7192.3,-6906.0 L-7188.4,-6915.5 L-7183.4,-6924.7 L-7177.3,-6935.9 L-7173.3,-6946.0 L-7169.8,-6958.9 L-7163.4,-6968.7 L-7165.6,-7057.9 L-7168.9,-7063.1 L-7169.9,-7123.7 L-7171.6,-7195.2 L-7170.4,-7205.1 L-7167.2,-7215.2 L-7159.2,-7231.0 L-7105.7,-7346.1 L-7104.6,-7348.0 L-7095.2,-7368.5 L-7086.3,-7387.9 L-7076.3,-7407.9 L-7066.5,-7428.5 L-7061.7,-7438.5 L-7009.1,-7546.4 L-6952.9,-7665.6 L-6831.3,-7912.4 L-6904.4,-7994.3 L-6964.0,-7867.3 L-7015.5,-7757.4 L-7023.3,-7741.8 L-7039.2,-7709.3 L-7071.0,-7712.0 L-7079.7,-7712.5 L-7082.8,-7709.7 L-7078.6,-7705.9 L-7094.9,-7691.4 L-7107.8,-7679.5 L-7110.2,-7628.6 L-7115.0,-7618.4 L-7130.6,-7619.0 L-7133.2,-7619.9 L-7337.6,-7704.3 L-7342.0,-7706.6 L-7346.7,-7709.6 L-7354.1,-7715.2 L-7359.8,-7720.6 L-7364.6,-7725.8 L-7369.3,-7732.2 L-7372.9,-7737.8 L-7375.7,-7743.6 L-7377.9,-7749.7 L-7379.4,-7753.9 L-7380.5,-7759.0 L-7381.3,-7765.0 L-7382.1,-7773.2 L-7382.1,-7784.9 L-7383.5,-7824.6 L-7377.9,-7824.9 L-7378.7,-7845.9 L-7379.6,-7880.5 L-7374.4,-7880.6 L-7374.8,-7904.2 L-7380.7,-7904.1 L-7383.4,-8003.5 L-7377.8,-8003.8 L-7378.7,-8027.1 L-7384.1,-8026.9 L-7386.4,-8100.4 L-7359.4,-8129.5 L-7324.9,-8130.7 L-7299.2,-8131.6 L-7265.3,-8132.7 L-7232.7,-8133.7 L-7203.5,-8134.7 L-7190.8,-8135.3 L-7191.4,-8146.6 L-7191.6,-8158.4 L-7193.5,-8196.7 L-7194.2,-8269.8 L-7195.2,-8271.1 L-7195.4,-8278.3 L-7193.3,-8278.4 L-7198.4,-8454.5 L-7202.8,-8620.2 L-7203.5,-8625.4 L-7203.9,-8635.0 L-7276.1,-8632.4 L-7324.1,-8636.5 L-7683.4,-8624.0 L-7683.5,-8627.2 L-7684.2,-8642.5 L-7854.6,-8636.5 L-7854.9,-8664.8 L-7877.4,-8669.9 L-7881.4,-8791.0 L-7218.6,-8814.0 L-7207.6,-8829.1 L-7208.0,-8872.1 L-7208.8,-8909.3 L-7209.4,-8932.6 L-7210.3,-8955.3 L-7263.0,-8980.1 L-7265.1,-9035.2 L-7211.1,-9062.0 L-7216.0,-9189.5 L-7217.4,-9195.8 L-7271.1,-9220.9 L-7272.8,-9289.1 L-7221.8,-9315.4 L-7244.5,-9592.3 L-7238.5,-9715.5 L-7235.5,-9916.4 L-7235.7,-10134.9 L-7230.9,-10165.5 L-7230.6,-10180.3 L-7235.4,-10198.1 L-7230.4,-10198.1 L-7230.4,-10214.2 L-7227.4,-10625.2 L-7227.9,-10643.5 L-7233.6,-10643.5 L-7233.4,-10719.1 L-7236.7,-10723.8 L-7241.9,-10801.8 L-7231.6,-10873.1 L-7232.9,-10959.4 L-7236.4,-10980.1 L-7231.1,-11044.0 L-7234.7,-11121.3 L-7243.7,-11204.0 L-7260.8,-11338.0 L-7252.7,-11374.9 L-7256.3,-11410.8 L-7286.9,-11436.9 L-7331.8,-11436.5 L-7400.2,-11427.5 L-7444.7,-11427.5 L-7485.1,-11442.3 L-7538.2,-11478.7 L-7538.2,-11544.0 L-7539.6,-11624.3 L-7534.4,-11691.2 L-7516.8,-11743.4 L-7222.1,-11748.9 L-7215.3,-12166.8 L-7215.3,-12768.4 L-7218.4,-12986.7 L8693.8,-19558.4 L8693.8,16659.8 L-11018.7,16659.8 L-11018.7,-1325.7 Z" fill="#add7e1" stroke="none"><title>Biscayne Bay</title></path><path d="M-286.6,-20.9 L-283.1,-25.5 L-253.8,-60.0 L-226.4,-98.5 L-216.6,-112.5 L-168.4,-195.4 L-159.7,-210.1 L-111.2,-292.6 L-102.7,-307.5 L-54.0,-390.5 L-45.6,-404.6 L3.9,-488.3 L7.3,-494.5 L36.7,-475.2 L-188.3,-89.7 L-219.0,-46.3 L-258.5,1.3 L-286.6,-20.9 Z" fill="#e8ecec" stroke="#d7d1c5" stroke-width="0.3"></path><path d="M-5250.0,-4402.4 L-3199.4,-3988.4 L-962.5,-2870.7 L752.5,-1173.6 L1423.6,482.0 L603.4,1847.8 L-925.2,2592.7 L-2379.2,2551.4 L-3572.2,1723.6 L-4690.7,316.4 L-6070.2,-1297.8 L-5921.1,-3201.9 Z" fill="#f1efe7" stroke="#8ab09d" stroke-width="0.65"><title>Virginia Key</title></path><path d="M-3338.2,722.6 L-3330.1,743.3 L-3304.0,798.6 L-3292.6,819.7 L-3110.9,740.0 L-3027.5,705.0 L-2855.7,625.3 L-2753.3,558.2 L-2559.2,459.4 L-2356.1,355.8 L-2298.1,322.1 L-2303.3,295.9 L-2145.3,214.1 L-2089.4,189.9 L-2075.1,215.7 L-1924.7,205.8 L-1609.6,206.2 L-1311.9,202.6 L-972.0,197.9 L-675.2,195.9 L-535.4,222.9 L-210.3,575.6 L490.2,-46.8 L888.3,-961.4 L1054.6,-1903.9 L885.3,-2590.6 L-429.6,-3798.8 L-800.0,-3826.5 L-981.4,-2672.4 L-938.6,-2327.2 L-94.2,-2318.8 L-104.5,-2168.2 L-104.5,-1636.8 L-102.1,-1369.5 L7.3,-1368.7 L3.0,-1256.3 L-10.5,-1229.2 L-49.2,-1229.2 L-46.7,-1087.4 L-76.2,-1048.6 L-6.2,-1021.9 L101.2,-919.5 L149.9,-797.0 L94.6,-674.2 L-351.5,-162.7 L-507.0,-29.2 L-763.3,70.1 L-1251.0,104.4 L-1442.5,74.2 L-2039.0,139.0 L-3380.3,668.9 L-3338.2,722.6 Z" fill="#d5f2cb" stroke="#9fcf91" stroke-width="0.4"><title>Virginia Key Beach North Point Park</title></path><path d="M-3338.2,722.6 L-3330.1,743.3 L-3304.0,798.6 L-3292.6,819.7 L-3110.9,740.0 L-3027.5,705.0 L-2855.7,625.3 L-2753.3,558.2 L-2559.2,459.4 L-2356.1,355.8 L-2298.1,322.1 L-2303.3,295.9 L-2145.3,214.1 L-2089.4,189.9 L-2075.1,215.7 L-1924.7,205.8 L-1609.6,206.2 L-1311.9,202.6 L-972.0,197.9 L-675.2,195.9 L-535.4,222.9 L-210.3,575.6 L490.2,-46.8 L888.3,-961.4 L1054.6,-1903.9 L885.3,-2590.6 L-429.6,-3798.8 L-800.0,-3826.5 L-981.4,-2672.4 L-938.6,-2327.2 L-94.2,-2318.8 L-104.5,-2168.2 L-104.5,-1636.8 L-102.1,-1369.5 L7.3,-1368.7 L3.0,-1256.3 L-10.5,-1229.2 L-49.2,-1229.2 L-46.7,-1087.4 L-76.2,-1048.6 L-6.2,-1021.9 L101.2,-919.5 L149.9,-797.0 L94.6,-674.2 L-351.5,-162.7 L-507.0,-29.2 L-763.3,70.1 L-1251.0,104.4 L-1442.5,74.2 L-2039.0,139.0 L-3380.3,668.9 L-3338.2,722.6 Z" fill="url(#park-dots)" stroke="none"/><path d="M-3338.2,722.6 L-3330.1,743.3 L-3304.0,798.6 L-3292.6,819.7 L-3110.9,740.0 L-3027.5,705.0 L-2855.7,625.3 L-2753.3,558.2 L-2559.2,459.4 L-2356.1,355.8 L-2298.1,322.1 L-2303.3,295.9 L-2145.3,214.1 L-2089.4,189.9 L-2075.1,215.7 L-1924.7,205.8 L-1609.6,206.2 L-1311.9,202.6 L-972.0,197.9 L-675.2,195.9 L-535.4,222.9 L-210.3,575.6 L490.2,-46.8 L888.3,-961.4 L1054.6,-1903.9 L885.3,-2590.6 L-429.6,-3798.8 L-800.0,-3826.5 L-981.4,-2672.4 L-938.6,-2327.2 L-94.2,-2318.8 L-104.5,-2168.2 L-104.5,-1636.8 L-102.1,-1369.5 L7.3,-1368.7 L3.0,-1256.3 L-10.5,-1229.2 L-49.2,-1229.2 L-46.7,-1087.4 L-76.2,-1048.6 L-6.2,-1021.9 L101.2,-919.5 L149.9,-797.0 L94.6,-674.2 L-351.5,-162.7 L-507.0,-29.2 L-763.3,70.1 L-1251.0,104.4 L-1442.5,74.2 L-2039.0,139.0 L-3380.3,668.9 L-3338.2,722.6 Z" fill="url(#park-canopy)" stroke="none"/><path d="M-328.7,-180.2 L267.9,523.4 L491.6,1475.3 L44.2,2054.7 L-962.5,2303.0 L-1186.2,1806.4 L-440.5,1268.4 L-552.4,482.0 Z" fill="#add7e1" stroke="none"><title>Virginia Key east cove</title></path><path d="M-6443.0,-1090.8 L-5100.8,-1339.2 L-3609.5,-1235.7 L-2080.9,-1691.0 L-328.7,-2394.7 L566.1,-2808.6 L939.0,-1980.8 L305.2,-759.7 L-850.6,192.3 L-2267.4,978.7 L-3124.9,1765.0 L-4690.7,1992.7 L-5660.1,1909.9 L-6405.7,1144.2 Z" fill="#f1efe7" stroke="#8ab09d" stroke-width="0.65"><title>Virginia Key north of Bear Cut</title></path><path d="M-68.5,160.3 L-37.5,106.2 L-8.5,71.7 L17.3,56.2 L40.7,51.5 L59.0,71.3 L97.7,119.0 L107.6,110.0 L65.1,50.2 L88.0,-21.0 L114.5,-67.0" fill="none" stroke="#79bdd0" stroke-width="1.4" stroke-linecap="round" stroke-linejoin="round"></path><path d="M-58.8,7.6 L-32.6,25.1 L-17.1,39.3 L-9.1,42.8 L1.9,43.4 L21.4,33.6 L41.9,23.1 L57.2,14.8 L68.7,-8.7 L91.9,-49.2" fill="none" stroke="#eeeeea" stroke-width="2.2" stroke-linecap="round" stroke-linejoin="round"></path><path d="M-50.1,102.6 L-32.8,78.1 L-8.1,52.1 L1.9,43.4" fill="none" stroke="#eeeeea" stroke-width="2.2" stroke-linecap="round" stroke-linejoin="round"></path></svg>