<svg xmlns="http://www.w3.org/2000/svg" width="256" height="256" viewBox="0 0 256 256"><rect width="256" height="256" fill="#f1efe7"/><path d="M-16394.7,-5933.7 L-16179.9,-6023.0 L-16112.7,-6055.3 L-15812.2,-6199.6 L-15755.8,-6145.0 L-15750.9,-6140.3 L-15645.5,-6230.5 L-15620.4,-6249.6 L-15578.5,-6287.4 L-15342.4,-6504.2 L-15151.9,-6721.8 L-15144.6,-6735.7 L-15137.6,-6743.6 L-15126.5,-6756.3 L-15115.2,-6769.2 L-15110.6,-6774.5 L-15185.7,-6871.6 L-15086.3,-6931.2 L-15032.4,-6859.5 L-14956.2,-6946.7 L-15020.7,-7032.1 L-14940.8,-7115.4 L-14879.3,-7034.4 L-14808.7,-7114.8 L-14778.6,-7134.5 L-14631.4,-7230.0 L-14558.7,-7278.3 L-14471.1,-7335.9 L-14429.7,-7363.1 L-14324.8,-7430.8 L-14351.8,-7466.3 L-14400.1,-7531.0 L-14275.2,-7610.4 L-14229.7,-7633.9 L-14226.2,-7636.4 L-14202.2,-7654.9 L-14116.6,-7700.7 L-14110.7,-7709.9 L-14086.7,-7726.4 L-14073.7,-7745.4 L-14070.0,-7748.2 L-14049.1,-7756.3 L-14001.9,-7773.2 L-13969.6,-7787.4 L-13855.5,-7841.0 L-13854.1,-7837.3 L-13758.4,-7878.2 L-13719.3,-7828.1 L-13632.2,-7886.2 L-13619.8,-7894.7 L-13618.6,-7895.7 L-13617.4,-7897.3 L-13615.5,-7900.6 L-13614.5,-7903.7 L-13613.9,-7907.4 L-13614.0,-7910.4 L-13614.4,-7913.3 L-13614.8,-7916.6 L-13614.9,-7919.1 L-13614.7,-7921.2 L-13614.3,-7923.4 L-13612.7,-7927.4 L-13611.6,-7929.6 L-13609.1,-7933.4 L-13606.5,-7936.2 L-13593.8,-7941.3 L-13583.2,-7945.3 L-13569.7,-7949.7 L-13563.4,-7951.4 L-13552.2,-7955.1 L-13544.3,-7957.9 L-13533.4,-7962.4 L-13518.6,-7968.9 L-13502.6,-7976.4 L-13494.0,-7980.6 L-13483.2,-7986.1 L-13473.1,-7991.7 L-13463.0,-7997.7 L-13452.7,-8004.4 L-13449.5,-8006.6 L-13428.8,-8022.4 L-13411.4,-8035.8 L-13394.4,-8050.2 L-13378.5,-8065.2 L-13367.0,-8078.1 L-13355.6,-8092.0 L-13341.6,-8110.0 L-13328.8,-8128.0 L-13314.1,-8151.1 L-13304.5,-8169.0 L-13298.5,-8180.4 L-13289.6,-8199.7 L-13282.1,-8217.6 L-13275.4,-8236.9 L-13270.0,-8253.8 L-13264.1,-8281.2 L-13259.8,-8305.7 L-13257.5,-8326.7 L-13255.5,-8351.5 L-13255.3,-8378.0 L-13256.9,-8402.5 L-13261.1,-8434.5 L-13265.5,-8456.3 L-13270.5,-8476.9 L-13277.9,-8500.3 L-13284.2,-8518.2 L-13291.4,-8537.7 L-13298.2,-8553.9 L-13302.8,-8564.4 L-13304.7,-8572.1 L-13305.0,-8578.0 L-13304.4,-8583.3 L-13302.3,-8587.9 L-13299.1,-8591.8 L-13294.9,-8594.0 L-13290.4,-8594.6 L-13278.3,-8591.7 L-13244.6,-8583.6 L-13233.4,-8838.3 L-13189.7,-9292.9 L-13237.2,-9304.1 L-13242.4,-9318.4 L-13242.2,-9338.9 L-13235.6,-9385.4 L-13226.6,-9395.9 L-13218.6,-9426.1 L-13168.1,-9414.4 L-13140.3,-9704.9 L-13132.6,-9785.3 L-13148.3,-9789.2 L-13138.8,-9827.6 L-13171.1,-9835.3 L-13167.0,-9858.8 L-13161.3,-9874.3 L-13154.2,-9892.4 L-13142.2,-9917.7 L-13129.3,-9914.8 L-13111.9,-10097.5 L-13107.8,-10208.3 L-13107.0,-10228.7 L-13097.6,-10299.2 L-13078.9,-10474.9 L-12954.1,-10800.3 L-12925.6,-10889.0 L-12578.9,-11022.0 L-12545.0,-11035.6 L-12539.1,-11038.8 L-12534.5,-11043.0 L-12529.4,-11048.9 L-12525.5,-11055.8 L-12522.9,-11062.6 L-12522.3,-11072.5 L-12522.8,-11084.8 L-12527.4,-11240.3 L-12529.1,-11270.4 L-12529.6,-11291.1 L-12530.3,-11331.3 L-12531.1,-11343.9 L-12532.6,-11354.5 L-12534.7,-11363.9 L-12537.8,-11373.5 L-12542.7,-11384.8 L-12549.9,-11396.9 L-12556.9,-11406.5 L-12562.3,-11415.6 L-12567.8,-11427.7 L-12572.4,-11439.3 L-12574.2,-11448.8 L-12575.6,-11459.3 L-12576.3,-11469.8 L-12576.0,-11480.0 L-12574.8,-11491.9 L-12572.0,-11503.6 L-12568.3,-11514.0 L-12564.4,-11523.5 L-12559.4,-11532.7 L-12553.3,-11543.9 L-12549.3,-11554.0 L-12545.8,-11566.9 L-12539.4,-11576.7 L-12541.6,-11665.9 L-12544.9,-11671.1 L-12545.9,-11731.7 L-12547.6,-11803.2 L-12546.4,-11813.1 L-12543.2,-11823.2 L-12535.2,-11839.0 L-12481.7,-11954.1 L-12480.6,-11956.0 L-12471.2,-11976.5 L-12462.3,-11995.9 L-12452.3,-12015.9 L-12442.5,-12036.5 L-12437.7,-12046.5 L-12385.1,-12154.4 L-12328.9,-12273.6 L-12207.3,-12520.4 L-12280.4,-12602.3 L-12340.0,-12475.3 L-12391.5,-12365.4 L-12399.3,-12349.8 L-12415.2,-12317.3 L-12447.0,-12320.0 L-12455.7,-12320.5 L-12458.8,-12317.7 L-12454.6,-12313.9 L-12470.9,-12299.4 L-12483.8,-12287.5 L-12486.2,-12236.6 L-12491.0,-12226.4 L-12506.6,-12227.0 L-12509.2,-12227.9 L-12713.6,-12312.3 L-12718.0,-12314.6 L-12722.7,-12317.6 L-12730.1,-12323.2 L-12735.8,-12328.6 L-12740.6,-12333.8 L-12745.3,-12340.2 L-12748.9,-12345.8 L-12751.7,-12351.6 L-12753.9,-12357.7 L-12755.4,-12361.9 L-12756.5,-12367.0 L-12757.3,-12373.0 L-12758.1,-12381.2 L-12758.1,-12392.9 L-12759.5,-12432.6 L-12753.9,-12432.9 L-12754.7,-12453.9 L-12755.6,-12488.5 L-12750.4,-12488.6 L-12750.8,-12512.2 L-12756.7,-12512.1 L-12759.4,-12611.5 L-12753.8,-12611.8 L-12754.7,-12635.1 L-12760.1,-12634.9 L-12762.4,-12708.4 L-12735.4,-12737.5 L-12700.9,-12738.7 L-12675.2,-12739.6 L-12641.3,-12740.7 L-12608.7,-12741.7 L-12579.5,-12742.7 L-12566.8,-12743.3 L-12567.4,-12754.6 L-12567.6,-12766.4 L-12569.5,-12804.7 L-12570.2,-12877.8 L-12571.2,-12879.1 L-12571.4,-12886.3 L-12569.3,-12886.4 L-12574.4,-13062.5 L-12578.8,-13228.2 L-12579.5,-13233.4 L-12579.9,-13243.0 L-12652.1,-13240.4 L-12700.1,-13244.5 L-13059.4,-13232.0 L-13059.5,-13235.2 L-13060.2,-13250.5 L-13230.6,-13244.5 L-13230.9,-13272.8 L-13253.4,-13277.9 L-13257.4,-13399.0 L-12594.6,-13422.0 L-12583.6,-13437.1 L-12584.0,-13480.1 L-12584.8,-13517.3 L-12585.4,-13540.6 L-12586.3,-13563.3 L-12639.0,-13588.1 L-12641.1,-13643.2 L-12587.1,-13670.0 L-12592.0,-13797.5 L-12593.4,-13803.8 L-12647.1,-13828.9 L-12648.8,-13897.1 L-12597.8,-13923.4 L-12620.5,-14200.3 L-12614.5,-14323.5 L-12611.5,-14524.4 L-12611.7,-14742.9 L-12606.9,-14773.5 L-12606.6,-14788.3 L-12611.4,-14806.1 L-12606.4,-14806.1 L-12606.4,-14822.2 L-12603.4,-15233.2 L-12603.9,-15251.5 L-12609.6,-15251.5 L-12609.4,-15327.1 L-12612.7,-15331.8 L-12617.9,-15409.8 L-12607.6,-15481.1 L-12608.9,-15567.4 L-12612.4,-15588.1 L-12607.1,-15652.0 L-12610.7,-15729.3 L-12619.7,-15812.0 L-12636.8,-15946.0 L-12628.7,-15982.9 L-12632.3,-16018.8 L-12662.9,-16044.9 L-12707.8,-16044.5 L-12776.2,-16035.5 L-12820.7,-16035.5 L-12861.1,-16050.3 L-12914.2,-16086.7 L-12914.2,-16152.0 L-12915.6,-16232.3 L-12910.4,-16299.2 L-12892.8,-16351.4 L-12598.1,-16356.9 L-12591.3,-16774.8 L-12591.3,-17376.4 L-12594.4,-17594.7 L3317.8,-24166.4 L3317.8,12051.8 L-16394.7,12051.8 L-16394.7,-5933.7 Z" fill="#add7e1" stroke="none"><title>Biscayne Bay</title></path><path d="M-1.0,-1.0 L257.0,-1.0 L257.0,257.0 L-1.0,257.0 L-1.0,-1.0 Z" fill="#add7e1" stroke="none" fill-rule="evenodd"><title>Biscayne Bay</title></path></svg>