<svg xmlns="http://www.w3.org/2000/svg" width="256" height="256" viewBox="0 0 256 256"><rect width="256" height="256" fill="#f1efe7"/><path d="M-16394.7,-301.7 L-16179.9,-391.0 L-16112.7,-423.3 L-15812.2,-567.6 L-15755.8,-513.0 L-15750.9,-508.3 L-15645.5,-598.5 L-15620.4,-617.6 L-15578.5,-655.4 L-15342.4,-872.2 L-15151.9,-1089.8 L-15144.6,-1103.7 L-15137.6,-1111.6 L-15126.5,-1124.3 L-15115.2,-1137.2 L-15110.6,-1142.5 L-15185.7,-1239.6 L-15086.3,-1299.2 L-15032.4,-1227.5 L-14956.2,-1314.7 L-15020.7,-1400.1 L-14940.8,-1483.4 L-14879.3,-1402.4 L-14808.7,-1482.8 L-14778.6,-1502.5 L-14631.4,-1598.0 L-14558.7,-1646.3 L-14471.1,-1703.9 L-14429.7,-1731.1 L-14324.8,-1798.8 L-14351.8,-1834.3 L-14400.1,-1899.0 L-14275.2,-1978.4 L-14229.7,-2001.9 L-14226.2,-2004.4 L-14202.2,-2022.9 L-14116.6,-2068.7 L-14110.7,-2077.9 L-14086.7,-2094.4 L-14073.7,-2113.4 L-14070.0,-2116.2 L-14049.1,-2124.3 L-14001.9,-2141.2 L-13969.6,-2155.4 L-13855.5,-2209.0 L-13854.1,-2205.3 L-13758.4,-2246.2 L-13719.3,-2196.1 L-13632.2,-2254.2 L-13619.8,-2262.7 L-13618.6,-2263.7 L-13617.4,-2265.3 L-13615.5,-2268.6 L-13614.5,-2271.7 L-13613.9,-2275.4 L-13614.0,-2278.4 L-13614.4,-2281.3 L-13614.8,-2284.6 L-13614.9,-2287.1 L-13614.7,-2289.2 L-13614.3,-2291.4 L-13612.7,-2295.4 L-13611.6,-2297.6 L-13609.1,-2301.4 L-13606.5,-2304.2 L-13593.8,-2309.3 L-13583.2,-2313.3 L-13569.7,-2317.7 L-13563.4,-2319.4 L-13552.2,-2323.1 L-13544.3,-2325.9 L-13533.4,-2330.4 L-13518.6,-2336.9 L-13502.6,-2344.4 L-13494.0,-2348.6 L-13483.2,-2354.1 L-13473.1,-2359.7 L-13463.0,-2365.7 L-13452.7,-2372.4 L-13449.5,-2374.6 L-13428.8,-2390.4 L-13411.4,-2403.8 L-13394.4,-2418.2 L-13378.5,-2433.2 L-13367.0,-2446.1 L-13355.6,-2460.0 L-13341.6,-2478.0 L-13328.8,-2496.0 L-13314.1,-2519.1 L-13304.5,-2537.0 L-13298.5,-2548.4 L-13289.6,-2567.7 L-13282.1,-2585.6 L-13275.4,-2604.9 L-13270.0,-2621.8 L-13264.1,-2649.2 L-13259.8,-2673.7 L-13257.5,-2694.7 L-13255.5,-2719.5 L-13255.3,-2746.0 L-13256.9,-2770.5 L-13261.1,-2802.5 L-13265.5,-2824.3 L-13270.5,-2844.9 L-13277.9,-2868.3 L-13284.2,-2886.2 L-13291.4,-2905.7 L-13298.2,-2921.9 L-13302.8,-2932.4 L-13304.7,-2940.1 L-13305.0,-2946.0 L-13304.4,-2951.3 L-13302.3,-2955.9 L-13299.1,-2959.8 L-13294.9,-2962.0 L-13290.4,-2962.6 L-13278.3,-2959.7 L-13244.6,-2951.6 L-13233.4,-3206.3 L-13189.7,-3660.9 L-13237.2,-3672.1 L-13242.4,-3686.4 L-13242.2,-3706.9 L-13235.6,-3753.4 L-13226.6,-3763.9 L-13218.6,-3794.1 L-13168.1,-3782.4 L-13140.3,-4072.9 L-13132.6,-4153.3 L-13148.3,-4157.2 L-13138.8,-4195.6 L-13171.1,-4203.3 L-13167.0,-4226.8 L-13161.3,-4242.3 L-13154.2,-4260.4 L-13142.2,-4285.7 L-13129.3,-4282.8 L-13111.9,-4465.5 L-13107.8,-4576.3 L-13107.0,-4596.7 L-13097.6,-4667.2 L-13078.9,-4842.9 L-12954.1,-5168.3 L-12925.6,-5257.0 L-12578.9,-5390.0 L-12545.0,-5403.6 L-12539.1,-5406.8 L-12534.5,-5411.0 L-12529.4,-5416.9 L-12525.5,-5423.8 L-12522.9,-5430.6 L-12522.3,-5440.5 L-12522.8,-5452.8 L-12527.4,-5608.3 L-12529.1,-5638.4 L-12529.6,-5659.1 L-12530.3,-5699.3 L-12531.1,-5711.9 L-12532.6,-5722.5 L-12534.7,-5731.9 L-12537.8,-5741.5 L-12542.7,-5752.8 L-12549.9,-5764.9 L-12556.9,-5774.5 L-12562.3,-5783.6 L-12567.8,-5795.7 L-12572.4,-5807.3 L-12574.2,-5816.8 L-12575.6,-5827.3 L-12576.3,-5837.8 L-12576.0,-5848.0 L-12574.8,-5859.9 L-12572.0,-5871.6 L-12568.3,-5882.0 L-12564.4,-5891.5 L-12559.4,-5900.7 L-12553.3,-5911.9 L-12549.3,-5922.0 L-12545.8,-5934.9 L-12539.4,-5944.7 L-12541.6,-6033.9 L-12544.9,-6039.1 L-12545.9,-6099.7 L-12547.6,-6171.2 L-12546.4,-6181.1 L-12543.2,-6191.2 L-12535.2,-6207.0 L-12481.7,-6322.1 L-12480.6,-6324.0 L-12471.2,-6344.5 L-12462.3,-6363.9 L-12452.3,-6383.9 L-12442.5,-6404.5 L-12437.7,-6414.5 L-12385.1,-6522.4 L-12328.9,-6641.6 L-12207.3,-6888.4 L-12280.4,-6970.3 L-12340.0,-6843.3 L-12391.5,-6733.4 L-12399.3,-6717.8 L-12415.2,-6685.3 L-12447.0,-6688.0 L-12455.7,-6688.5 L-12458.8,-6685.7 L-12454.6,-6681.9 L-12470.9,-6667.4 L-12483.8,-6655.5 L-12486.2,-6604.6 L-12491.0,-6594.4 L-12506.6,-6595.0 L-12509.2,-6595.9 L-12713.6,-6680.3 L-12718.0,-6682.6 L-12722.7,-6685.6 L-12730.1,-6691.2 L-12735.8,-6696.6 L-12740.6,-6701.8 L-12745.3,-6708.2 L-12748.9,-6713.8 L-12751.7,-6719.6 L-12753.9,-6725.7 L-12755.4,-6729.9 L-12756.5,-6735.0 L-12757.3,-6741.0 L-12758.1,-6749.2 L-12758.1,-6760.9 L-12759.5,-6800.6 L-12753.9,-6800.9 L-12754.7,-6821.9 L-12755.6,-6856.5 L-12750.4,-6856.6 L-12750.8,-6880.2 L-12756.7,-6880.1 L-12759.4,-6979.5 L-12753.8,-6979.8 L-12754.7,-7003.1 L-12760.1,-7002.9 L-12762.4,-7076.4 L-12735.4,-7105.5 L-12700.9,-7106.7 L-12675.2,-7107.6 L-12641.3,-7108.7 L-12608.7,-7109.7 L-12579.5,-7110.7 L-12566.8,-7111.3 L-12567.4,-7122.6 L-12567.6,-7134.4 L-12569.5,-7172.7 L-12570.2,-7245.8 L-12571.2,-7247.1 L-12571.4,-7254.3 L-12569.3,-7254.4 L-12574.4,-7430.5 L-12578.8,-7596.2 L-12579.5,-7601.4 L-12579.9,-7611.0 L-12652.1,-7608.4 L-12700.1,-7612.5 L-13059.4,-7600.0 L-13059.5,-7603.2 L-13060.2,-7618.5 L-13230.6,-7612.5 L-13230.9,-7640.8 L-13253.4,-7645.9 L-13257.4,-7767.0 L-12594.6,-7790.0 L-12583.6,-7805.1 L-12584.0,-7848.1 L-12584.8,-7885.3 L-12585.4,-7908.6 L-12586.3,-7931.3 L-12639.0,-7956.1 L-12641.1,-8011.2 L-12587.1,-8038.0 L-12592.0,-8165.5 L-12593.4,-8171.8 L-12647.1,-8196.9 L-12648.8,-8265.1 L-12597.8,-8291.4 L-12620.5,-8568.3 L-12614.5,-8691.5 L-12611.5,-8892.4 L-12611.7,-9110.9 L-12606.9,-9141.5 L-12606.6,-9156.3 L-12611.4,-9174.1 L-12606.4,-9174.1 L-12606.4,-9190.2 L-12603.4,-9601.2 L-12603.9,-9619.5 L-12609.6,-9619.5 L-12609.4,-9695.1 L-12612.7,-9699.8 L-12617.9,-9777.8 L-12607.6,-9849.1 L-12608.9,-9935.4 L-12612.4,-9956.1 L-12607.1,-10020.0 L-12610.7,-10097.3 L-12619.7,-10180.0 L-12636.8,-10314.0 L-12628.7,-10350.9 L-12632.3,-10386.8 L-12662.9,-10412.9 L-12707.8,-10412.5 L-12776.2,-10403.5 L-12820.7,-10403.5 L-12861.1,-10418.3 L-12914.2,-10454.7 L-12914.2,-10520.0 L-12915.6,-10600.3 L-12910.4,-10667.2 L-12892.8,-10719.4 L-12598.1,-10724.9 L-12591.3,-11142.8 L-12591.3,-11744.4 L-12594.4,-11962.7 L3317.8,-18534.4 L3317.8,17683.8 L-16394.7,17683.8 L-16394.7,-301.7 Z" fill="#add7e1" stroke="none"><title>Biscayne Bay</title></path><path d="M-1.0,-1.0 L257.0,-1.0 L257.0,257.0 L-1.0,257.0 L-1.0,-1.0 Z" fill="#add7e1" stroke="none" fill-rule="evenodd"><title>Biscayne Bay</title></path></svg>