<svg xmlns="http://www.w3.org/2000/svg" width="256" height="256" viewBox="0 0 256 256"><rect width="256" height="256" fill="#f1efe7"/><path d="M-623.4,278.2 L111.9,255.9 L119.3,482.1 L121.5,527.3 L125.2,634.5 L301.4,626.2 L308.5,887.1 L381.0,885.5 L381.0,890.7 L444.4,888.4 L444.9,918.7 L471.2,917.1 L531.1,914.8 L532.4,942.6 L535.0,1013.4 L573.6,1012.6 L577.3,1074.4 L488.8,1075.8 L486.4,1018.2 L383.9,1020.6 L385.3,1080.5 L314.6,1083.3 L314.6,1069.1 L255.4,1069.7 L255.1,1109.5 L245.4,1109.8 L246.6,1139.7 L178.6,1140.4 L178.6,1138.0 L174.7,989.5 L124.1,991.3 L-348.7,1006.4 L-511.5,1010.3 L-516.8,844.4 L-493.2,753.5 L-494.9,691.7 L-495.9,645.3 L-619.3,647.2 L-623.4,278.2 Z" fill="#eadde0" stroke="#d7d1c5" stroke-width="0.3"></path><path d="M42.2,114.6 L42.3,121.3 L46.0,121.2 L46.1,127.3 L42.4,127.4 L42.6,136.7 L33.1,136.9 L32.6,114.8 L42.2,114.6 Z" fill="#d6d2c9" stroke="#bab6ad" stroke-width="0.4"></path><path d="M61.2,163.0 L61.2,165.6 L62.6,165.5 L62.8,172.7 L62.9,179.8 L34.8,180.3 L34.7,171.9 L34.5,163.5 L61.2,163.0 Z" fill="#d6d2c9" stroke="#bab6ad" stroke-width="0.4"></path><path d="M8.5,188.7 L8.5,196.6 L26.8,196.4 L27.0,213.1 L17.9,213.2 L17.9,216.2 L14.8,216.3 L11.7,216.3 L11.6,210.2 L0.5,210.3 L0.3,188.8 L4.4,188.7 L8.5,188.7 Z" fill="#d6d2c9" stroke="#bab6ad" stroke-width="0.4"></path><path d="M87.2,0.7 L87.5,14.1 L90.5,14.0 L90.8,27.3 L74.0,27.7 L73.7,12.6 L67.3,12.8 L67.1,1.1 L87.2,0.7 Z" fill="#d6d2c9" stroke="#bab6ad" stroke-width="0.4"></path><path d="M17.6,149.4 L-0.6,149.7 L-1.1,116.8 L5.5,116.7 L5.5,110.8 L25.3,110.4 L25.6,130.7 L17.3,130.8 L17.6,149.4 Z" fill="#d6d2c9" stroke="#bab6ad" stroke-width="0.4"></path><path d="M10.4,31.3 L10.4,38.4 L24.6,38.3 L24.7,55.0 L4.2,55.1 L4.2,53.2 L-2.0,53.3 L-2.2,31.4 L10.4,31.3 Z" fill="#d6d2c9" stroke="#bab6ad" stroke-width="0.4"></path><path d="M79.3,33.4 L79.4,35.7 L90.6,35.5 L91.0,59.9 L69.7,60.2 L69.5,51.8 L58.8,51.9 L58.8,50.0 L44.7,50.2 L44.5,35.7 L68.5,35.4 L68.5,33.5 L79.3,33.4 Z" fill="#d6d2c9" stroke="#bab6ad" stroke-width="0.4"></path><path d="M91.9,107.3 L92.3,122.4 L89.9,122.5 L90.0,126.1 L87.1,126.2 L87.3,131.6 L71.4,132.0 L71.1,119.9 L65.2,120.0 L65.4,127.1 L51.5,127.5 L51.0,108.4 L91.9,107.3 Z" fill="#d6d2c9" stroke="#bab6ad" stroke-width="0.4"></path><path d="M91.7,155.6 L91.8,159.9 L93.8,159.8 L93.9,167.3 L91.7,167.4 L91.9,176.3 L74.7,176.6 L74.4,164.7 L61.7,165.0 L61.4,151.9 L74.3,151.6 L74.1,146.2 L93.5,145.8 L93.7,155.6 L91.7,155.6 Z" fill="#d6d2c9" stroke="#bab6ad" stroke-width="0.4"></path><path d="M90.3,188.5 L90.4,194.5 L91.6,194.4 L91.6,200.3 L95.3,200.3 L95.5,212.8 L76.8,213.0 L76.7,203.9 L73.4,204.0 L73.4,201.7 L65.8,201.8 L65.6,188.0 L90.3,188.5 Z" fill="#d6d2c9" stroke="#bab6ad" stroke-width="0.4"></path><path d="M175.0,23.6 L174.8,30.2 L165.7,29.9 L165.9,23.2 L175.0,23.6 Z" fill="#d6d2c9" stroke="#bab6ad" stroke-width="0.4"></path><path d="M214.2,117.6 L214.2,119.9 L221.1,119.7 L221.9,144.3 L213.2,144.5 L213.4,150.6 L197.6,151.1 L196.6,120.5 L202.6,120.3 L202.5,118.0 L208.3,117.8 L214.2,117.6 Z" fill="#d6d2c9" stroke="#bab6ad" stroke-width="0.4"></path><path d="M239.4,64.9 L230.2,65.2 L229.2,39.2 L255.2,38.3 L256.1,61.9 L248.4,62.2 L248.5,64.5 L239.4,64.9 Z" fill="#d6d2c9" stroke="#bab6ad" stroke-width="0.4"></path><path d="M181.8,67.2 L157.6,67.7 L157.3,54.1 L157.0,40.4 L181.2,39.9 L181.8,67.2 Z" fill="#d6d2c9" stroke="#bab6ad" stroke-width="0.4"></path><path d="M249.8,117.5 L249.8,120.2 L263.8,119.9 L264.1,131.7 L264.4,143.4 L233.2,144.2 L232.5,118.0 L241.1,117.8 L249.8,117.5 Z" fill="#d6d2c9" stroke="#bab6ad" stroke-width="0.4"></path><path d="M213.0,24.0 L213.3,35.3 L225.3,35.0 L225.8,49.3 L219.6,49.5 L220.1,64.1 L213.4,64.3 L213.5,67.8 L195.7,68.3 L194.7,33.3 L191.7,33.4 L191.6,29.0 L191.4,24.6 L213.0,24.0 Z" fill="#d6d2c9" stroke="#bab6ad" stroke-width="0.4"></path><path d="M263.6,159.7 L230.5,161.0 L230.1,152.8 L263.3,151.4 L263.6,159.7 Z" fill="#d6d2c9" stroke="#bab6ad" stroke-width="0.4"></path><path d="M172.5,-21.1 L172.6,-18.3 L180.0,-18.5 L180.4,-3.3 L169.0,-3.0 L169.3,5.3 L162.2,5.4 L162.2,8.8 L159.2,8.9 L156.1,9.0 L155.3,-20.6 L163.9,-20.9 L172.5,-21.1 Z" fill="#d6d2c9" stroke="#bab6ad" stroke-width="0.4"></path><path d="M209.8,-25.4 L209.9,-22.2 L218.1,-22.4 L218.3,-15.1 L218.6,-7.8 L206.7,-7.4 L206.8,-6.0 L204.6,-6.0 L204.8,-0.1 L193.0,0.2 L192.4,-21.6 L199.3,-21.8 L199.2,-25.1 L209.8,-25.4 Z" fill="#d6d2c9" stroke="#bab6ad" stroke-width="0.4"></path><path d="M176.3,122.1 L176.4,124.1 L183.7,124.0 L183.9,131.4 L184.0,138.9 L174.3,139.1 L174.4,145.1 L170.0,145.2 L165.6,145.3 L165.5,136.5 L159.4,136.5 L159.3,129.4 L159.1,122.3 L176.3,122.1 Z" fill="#d6d2c9" stroke="#bab6ad" stroke-width="0.4"></path><path d="M260.1,17.8 L250.4,17.9 L250.3,9.7 L260.0,9.6 L260.1,17.8 Z" fill="#d6d2c9" stroke="#bab6ad" stroke-width="0.4"></path><path d="M173.4,165.3 L174.8,190.7 L184.9,190.1 L185.3,197.4 L185.8,204.6 L179.0,205.0 L179.2,207.9 L160.9,209.0 L160.5,201.5 L160.1,194.0 L167.0,193.6 L166.3,180.8 L161.1,181.1 L160.2,166.1 L173.4,165.3 Z" fill="#d6d2c9" stroke="#bab6ad" stroke-width="0.4"></path><path d="M246.4,-25.1 L246.5,-22.4 L254.1,-22.6 L254.9,6.6 L241.7,7.0 L228.6,7.3 L227.8,-24.6 L237.1,-24.8 L246.4,-25.1 Z" fill="#d6d2c9" stroke="#bab6ad" stroke-width="0.4"></path><path d="M244.8,179.7 L245.2,189.7 L258.4,189.2 L258.7,196.6 L259.0,204.1 L251.9,204.5 L252.0,207.5 L243.6,207.8 L235.1,208.2 L233.9,180.2 L239.3,179.9 L244.8,179.7 Z" fill="#d6d2c9" stroke="#bab6ad" stroke-width="0.4"></path><path d="M227.8,177.7 L208.5,177.7 L208.5,169.6 L214.6,169.6 L214.6,166.7 L227.9,165.7 L227.8,177.7 Z" fill="#d6d2c9" stroke="#bab6ad" stroke-width="0.4"></path><path d="M209.0,207.2 L209.1,209.2 L205.3,209.4 L205.2,207.3 L198.5,207.5 L197.9,187.8 L229.9,186.8 L230.5,206.5 L209.0,207.2 Z" fill="#d6d2c9" stroke="#bab6ad" stroke-width="0.4"></path><path d="M155.6,430.5 L151.2,267.0 L152.2,261.5 L153.3,257.9 L158.1,252.5 L162.5,251.0 L169.6,250.2 L213.0,248.6 L265.1,246.5 L271.4,248.7 L275.6,253.7 L277.6,258.2 L278.2,286.5 L281.9,426.6" fill="none" stroke="#cf828d" stroke-width="1.5" stroke-dasharray="1.6 3.0" opacity="0.62" stroke-linecap="round" stroke-linejoin="round"></path><path d="M117.2,354.3 L115.1,266.6 L113.2,259.5 L106.9,254.3 L103.4,252.9 L96.1,252.3 L-29.1,256.6 L-400.9,269.2" fill="none" stroke="#cf828d" stroke-width="1.5" stroke-dasharray="1.6 3.0" opacity="0.62" stroke-linecap="round" stroke-linejoin="round"></path><path d="M108.1,251.7 L108.5,239.5 L108.9,225.3" fill="none" stroke="#cf828d" stroke-width="1.5" stroke-dasharray="1.6 3.0" opacity="0.62" stroke-linecap="round" stroke-linejoin="round"></path><path d="M113.8,220.0 L131.8,219.6 L151.3,219.0" fill="none" stroke="#cf828d" stroke-width="1.5" stroke-dasharray="1.6 3.0" opacity="0.62" stroke-linecap="round" stroke-linejoin="round"></path><path d="M154.4,221.8 L156.4,237.9 L158.0,250.3" fill="none" stroke="#cf828d" stroke-width="1.5" stroke-dasharray="1.6 3.0" opacity="0.62" stroke-linecap="round" stroke-linejoin="round"></path><path d="M158.0,250.3 L158.1,252.5" fill="none" stroke="#cf828d" stroke-width="1.5" stroke-dasharray="1.6 3.0" opacity="0.62" stroke-linecap="round" stroke-linejoin="round"></path><path d="M163.3,107.0 L159.8,107.7 L155.3,109.4 L152.0,112.2 L149.5,115.7 L148.3,120.6 L150.2,209.8 L150.8,213.7 L152.0,216.8 L153.5,218.7 L155.5,220.7 L157.6,221.9 L159.9,223.2 L168.3,224.4 L191.2,223.6 L443.6,214.4" fill="none" stroke="#cf828d" stroke-width="1.5" stroke-dasharray="1.6 3.0" opacity="0.62" stroke-linecap="round" stroke-linejoin="round"></path><path d="M437.1,97.7 L163.3,107.0" fill="none" stroke="#cf828d" stroke-width="1.5" stroke-dasharray="1.6 3.0" opacity="0.62" stroke-linecap="round" stroke-linejoin="round"></path><path d="M162.6,-35.1 L433.0,-44.7" fill="none" stroke="#cf828d" stroke-width="1.5" stroke-dasharray="1.6 3.0" opacity="0.62" stroke-linecap="round" stroke-linejoin="round"></path><path d="M437.9,72.2 L171.2,81.3 L159.8,81.3 L156.8,80.5 L152.7,78.9 L149.4,76.1 L146.8,72.0 L146.1,67.8 L144.1,-20.0 L144.9,-24.8 L146.9,-29.4 L149.5,-32.2 L153.4,-34.2 L156.9,-34.9 L162.6,-35.1" fill="none" stroke="#cf828d" stroke-width="1.5" stroke-dasharray="1.6 3.0" opacity="0.62" stroke-linecap="round" stroke-linejoin="round"></path><path d="M159.7,105.1 L159.5,95.0 L159.3,84.0" fill="none" stroke="#cf828d" stroke-width="1.5" stroke-dasharray="1.6 3.0" opacity="0.62" stroke-linecap="round" stroke-linejoin="round"></path><path d="M151.3,219.0 L153.5,218.7 L154.4,221.8" fill="none" stroke="#cf828d" stroke-width="1.5" stroke-dasharray="1.6 3.0" opacity="0.62" stroke-linecap="round" stroke-linejoin="round"></path><path d="M-336.2,239.2 L95.0,226.5 L100.1,226.0 L104.2,225.2 L107.6,223.8 L110.0,221.4 L111.5,218.9 L113.2,213.3 L113.3,204.6 L111.1,106.3 L109.8,102.9 L107.6,99.8 L104.7,97.9 L103.7,97.2 L98.2,95.9 L91.8,95.6 L-369.0,109.4" fill="none" stroke="#cf828d" stroke-width="1.5" stroke-dasharray="1.6 3.0" opacity="0.62" stroke-linecap="round" stroke-linejoin="round"></path><path d="M113.8,220.0 L111.5,218.9" fill="none" stroke="#cf828d" stroke-width="1.5" stroke-dasharray="1.6 3.0" opacity="0.62" stroke-linecap="round" stroke-linejoin="round"></path><path d="M107.2,65.3 L106.5,83.8 L106.0,95.1" fill="none" stroke="#cf828d" stroke-width="1.5" stroke-dasharray="1.6 3.0" opacity="0.62" stroke-linecap="round" stroke-linejoin="round"></path><path d="M106.0,95.1 L104.7,97.9" fill="none" stroke="#cf828d" stroke-width="1.5" stroke-dasharray="1.6 3.0" opacity="0.62" stroke-linecap="round" stroke-linejoin="round"></path><path d="M107.0,-62.3 L109.5,38.4 L110.0,52.7 L109.4,58.0 L107.6,61.9 L106.3,64.1 L104.5,65.8 L101.9,67.4 L98.4,68.9 L92.6,69.9 L-343.4,83.1" fill="none" stroke="#cf828d" stroke-width="1.5" stroke-dasharray="1.6 3.0" opacity="0.62" stroke-linecap="round" stroke-linejoin="round"></path><path d="M107.2,65.3 L106.3,64.1" fill="none" stroke="#cf828d" stroke-width="1.5" stroke-dasharray="1.6 3.0" opacity="0.62" stroke-linecap="round" stroke-linejoin="round"></path><path d="M159.7,105.1 L159.8,107.7" fill="none" stroke="#cf828d" stroke-width="1.5" stroke-dasharray="1.6 3.0" opacity="0.62" stroke-linecap="round" stroke-linejoin="round"></path><path d="M159.8,81.3 L159.3,84.0" fill="none" stroke="#cf828d" stroke-width="1.5" stroke-dasharray="1.6 3.0" opacity="0.62" stroke-linecap="round" stroke-linejoin="round"></path><path d="M304.6,302.3 L303.6,260.8 L304.9,254.6" fill="none" stroke="#cf828d" stroke-width="1.5" stroke-dasharray="1.6 3.0" opacity="0.62" stroke-linecap="round" stroke-linejoin="round"></path><path d="M106.9,254.3 L108.1,251.7" fill="none" stroke="#cf828d" stroke-width="1.5" stroke-dasharray="1.6 3.0" opacity="0.62" stroke-linecap="round" stroke-linejoin="round"></path><path d="M108.9,225.3 L107.6,223.8" fill="none" stroke="#cf828d" stroke-width="1.5" stroke-dasharray="1.6 3.0" opacity="0.62" stroke-linecap="round" stroke-linejoin="round"></path><path d="M129.4,88.1 L106.5,83.8 L101.0,82.8 L-221.2,92.6" fill="none" stroke="#cec8bb" stroke-width="4.8" stroke-linecap="round" stroke-linejoin="round"/><path d="M129.4,88.1 L106.5,83.8 L101.0,82.8 L-221.2,92.6" fill="none" stroke="#ffffff" stroke-width="3.7" stroke-linecap="round" stroke-linejoin="round"><title>Northwest 12th Street</title></path><path d="M443.8,85.2 L159.5,95.0 L155.5,95.2 L129.4,88.1" fill="none" stroke="#cec8bb" stroke-width="4.8" stroke-linecap="round" stroke-linejoin="round"/><path d="M443.8,85.2 L159.5,95.0 L155.5,95.2 L129.4,88.1" fill="none" stroke="#ffffff" stroke-width="3.7" stroke-linecap="round" stroke-linejoin="round"><title>Northwest 12th Street</title></path><path d="M439.0,227.5 L290.0,233.3 L163.4,237.6 L156.4,237.9 L132.2,239.0" fill="none" stroke="#d1c4aa" stroke-width="5.4" stroke-linecap="round" stroke-linejoin="round"/><path d="M439.0,227.5 L290.0,233.3 L163.4,237.6 L156.4,237.9 L132.2,239.0" fill="none" stroke="#f4d99b" stroke-width="4.0" stroke-linecap="round" stroke-linejoin="round"><title>Northwest 11th Street</title></path><path d="M132.2,239.0 L108.5,239.5 L100.9,239.7 L-29.8,244.4 L-401.0,257.5" fill="none" stroke="#d1c4aa" stroke-width="5.4" stroke-linecap="round" stroke-linejoin="round"/><path d="M132.2,239.0 L108.5,239.5 L100.9,239.7 L-29.8,244.4 L-401.0,257.5" fill="none" stroke="#f4d99b" stroke-width="4.0" stroke-linecap="round" stroke-linejoin="round"><title>Northwest 11th Street</title></path><path d="M132.2,239.0 L131.8,219.6 L131.7,212.6 L131.0,178.3" fill="none" stroke="#d1c4aa" stroke-width="6.4" stroke-linecap="round" stroke-linejoin="round"/><path d="M132.2,239.0 L131.8,219.6 L131.7,212.6 L131.0,178.3" fill="none" stroke="#f1c77d" stroke-width="5.0" stroke-linecap="round" stroke-linejoin="round"><title>Northwest 37th Avenue</title></path><path d="M127.7,25.9 L125.1,-43.1 L124.9,-46.6" fill="none" stroke="#d1c4aa" stroke-width="6.4" stroke-linecap="round" stroke-linejoin="round"/><path d="M127.7,25.9 L125.1,-43.1 L124.9,-46.6" fill="none" stroke="#f1c77d" stroke-width="5.0" stroke-linecap="round" stroke-linejoin="round"><title>Northwest 37th Avenue</title></path><path d="M129.4,88.1 L127.7,25.9" fill="none" stroke="#d1c4aa" stroke-width="6.4" stroke-linecap="round" stroke-linejoin="round"/><path d="M129.4,88.1 L127.7,25.9" fill="none" stroke="#f1c77d" stroke-width="5.0" stroke-linecap="round" stroke-linejoin="round"><title>Northwest 37th Avenue</title></path><path d="M130.5,149.6 L129.4,88.1" fill="none" stroke="#d1c4aa" stroke-width="6.4" stroke-linecap="round" stroke-linejoin="round"/><path d="M130.5,149.6 L129.4,88.1" fill="none" stroke="#f1c77d" stroke-width="5.0" stroke-linecap="round" stroke-linejoin="round"><title>Northwest 37th Avenue</title></path><path d="M131.0,178.3 L130.5,149.6" fill="none" stroke="#d1c4aa" stroke-width="6.4" stroke-linecap="round" stroke-linejoin="round"/><path d="M131.0,178.3 L130.5,149.6" fill="none" stroke="#f1c77d" stroke-width="5.0" stroke-linecap="round" stroke-linejoin="round"><title>Northwest 37th Avenue</title></path><path d="M133.9,308.3 L133.5,291.7 L132.8,265.5 L132.6,258.2 L132.2,239.0" fill="none" stroke="#d1c4aa" stroke-width="6.4" stroke-linecap="round" stroke-linejoin="round"/><path d="M133.9,308.3 L133.5,291.7 L132.8,265.5 L132.6,258.2 L132.2,239.0" fill="none" stroke="#f1c77d" stroke-width="5.0" stroke-linecap="round" stroke-linejoin="round"><title>Northwest 37th Avenue</title></path><text x="129.9" y="118.9" transform="rotate(88.9 129.9 118.9)" text-anchor="middle" dominant-baseline="central" font-family="Arial, sans-serif" font-size="8.3" textLength="111.6" lengthAdjust="spacing" font-weight="650" paint-order="stroke" stroke="#fffaf0" stroke-width="2.05" stroke-linejoin="round" fill="#6f573d">Northwest 37th Avenue</text><text x="79.8" y="16.5" text-anchor="middle" font-family="Arial, sans-serif" font-size="6.5" textLength="18.0" lengthAdjust="spacing" font-weight="500" paint-order="stroke" stroke="#f3f5ee" stroke-width="1.55" stroke-linejoin="round" fill="#6f777a">1220</text><text x="15.0" y="126.9" text-anchor="middle" font-family="Arial, sans-serif" font-size="6.5" textLength="18.0" lengthAdjust="spacing" font-weight="500" paint-order="stroke" stroke="#f3f5ee" stroke-width="1.55" stroke-linejoin="round" fill="#6f777a">3710</text><text x="68.6" y="44.4" text-anchor="middle" font-family="Arial, sans-serif" font-size="6.5" textLength="18.0" lengthAdjust="spacing" font-weight="500" paint-order="stroke" stroke="#f3f5ee" stroke-width="1.55" stroke-linejoin="round" fill="#6f777a">1200</text><text x="76.2" y="122.6" text-anchor="middle" font-family="Arial, sans-serif" font-size="6.5" textLength="18.0" lengthAdjust="spacing" font-weight="500" paint-order="stroke" stroke="#f3f5ee" stroke-width="1.55" stroke-linejoin="round" fill="#6f777a">1140</text><text x="83.1" y="160.3" text-anchor="middle" font-family="Arial, sans-serif" font-size="6.5" textLength="18.0" lengthAdjust="spacing" font-weight="500" paint-order="stroke" stroke="#f3f5ee" stroke-width="1.55" stroke-linejoin="round" fill="#6f777a">1120</text><text x="82.2" y="200.3" text-anchor="middle" font-family="Arial, sans-serif" font-size="6.5" textLength="18.0" lengthAdjust="spacing" font-weight="500" paint-order="stroke" stroke="#f3f5ee" stroke-width="1.55" stroke-linejoin="round" fill="#6f777a">1100</text><text x="209.6" y="129.5" text-anchor="middle" font-family="Arial, sans-serif" font-size="6.5" textLength="18.0" lengthAdjust="spacing" font-weight="500" paint-order="stroke" stroke="#f3f5ee" stroke-width="1.55" stroke-linejoin="round" fill="#6f777a">3664</text><text x="241.0" y="56.6" text-anchor="middle" font-family="Arial, sans-serif" font-size="6.5" textLength="18.0" lengthAdjust="spacing" font-weight="500" paint-order="stroke" stroke="#f3f5ee" stroke-width="1.55" stroke-linejoin="round" fill="#6f777a">3655</text><text x="167.0" y="53.9" text-anchor="middle" font-family="Arial, sans-serif" font-size="6.5" textLength="18.0" lengthAdjust="spacing" font-weight="500" paint-order="stroke" stroke="#f3f5ee" stroke-width="1.55" stroke-linejoin="round" fill="#6f777a">3675</text><text x="241.0" y="126.6" text-anchor="middle" font-family="Arial, sans-serif" font-size="6.5" textLength="18.0" lengthAdjust="spacing" font-weight="500" paint-order="stroke" stroke="#f3f5ee" stroke-width="1.55" stroke-linejoin="round" fill="#6f777a">3654</text><text x="208.4" y="44.5" text-anchor="middle" font-family="Arial, sans-serif" font-size="6.5" textLength="18.0" lengthAdjust="spacing" font-weight="500" paint-order="stroke" stroke="#f3f5ee" stroke-width="1.55" stroke-linejoin="round" fill="#6f777a">3665</text><text x="171.7" y="133.8" text-anchor="middle" font-family="Arial, sans-serif" font-size="6.5" textLength="18.0" lengthAdjust="spacing" font-weight="500" paint-order="stroke" stroke="#f3f5ee" stroke-width="1.55" stroke-linejoin="round" fill="#6f777a">3674</text><text x="171.3" y="191.9" text-anchor="middle" font-family="Arial, sans-serif" font-size="6.5" textLength="18.0" lengthAdjust="spacing" font-weight="500" paint-order="stroke" stroke="#f3f5ee" stroke-width="1.55" stroke-linejoin="round" fill="#6f777a">3675</text><text x="241.0" y="195.2" text-anchor="middle" font-family="Arial, sans-serif" font-size="6.5" textLength="18.0" lengthAdjust="spacing" font-weight="500" paint-order="stroke" stroke="#f3f5ee" stroke-width="1.55" stroke-linejoin="round" fill="#6f777a">3655</text><text x="210.7" y="202.7" text-anchor="middle" font-family="Arial, sans-serif" font-size="6.5" textLength="18.0" lengthAdjust="spacing" font-weight="500" paint-order="stroke" stroke="#f3f5ee" stroke-width="1.55" stroke-linejoin="round" fill="#6f777a">3665</text><text x="15.0" y="179.5" text-anchor="middle" font-family="Arial, sans-serif" font-size="6.5" textLength="18.0" lengthAdjust="spacing" font-weight="500" paint-order="stroke" stroke="#f3f5ee" stroke-width="1.55" stroke-linejoin="round" fill="#6f777a">3711</text><text x="15.0" y="20.7" text-anchor="middle" font-family="Arial, sans-serif" font-size="6.5" textLength="18.0" lengthAdjust="spacing" font-weight="500" paint-order="stroke" stroke="#f3f5ee" stroke-width="1.55" stroke-linejoin="round" fill="#6f777a">3711</text><g><title>Northwest 11th Street @ Northwest 37th Avenue</title><rect x="193.6" y="218.7" width="6.9" height="6.1" rx="1.3" fill="#2796c9" stroke="#ffffff" stroke-width="1.05"/><rect x="194.9" y="219.9" width="4.4" height="2.1" rx="0.35" fill="#ffffff"/><circle cx="195.2" cy="223.7" r="0.5" fill="#ffffff"/><circle cx="198.9" cy="223.7" r="0.5" fill="#ffffff"/></g><g><title>signal</title><rect x="98.2" y="234.5" width="5.4" height="10.4" rx="2.1" fill="#3f4b52" stroke="#ffffff" stroke-width="1.1"/><circle cx="100.9" cy="236.9" r="1.1" fill="#d85a4f"/><circle cx="100.9" cy="239.7" r="1.1" fill="#e2b84b"/><circle cx="100.9" cy="242.5" r="1.1" fill="#55a86b"/></g><g><title>signal</title><rect x="129.0" y="207.4" width="5.4" height="10.4" rx="2.1" fill="#3f4b52" stroke="#ffffff" stroke-width="1.1"/><circle cx="131.7" cy="209.8" r="1.1" fill="#d85a4f"/><circle cx="131.7" cy="212.6" r="1.1" fill="#e2b84b"/><circle cx="131.7" cy="215.4" r="1.1" fill="#55a86b"/></g><g><title>signal</title><rect x="160.7" y="232.4" width="5.4" height="10.4" rx="2.1" fill="#3f4b52" stroke="#ffffff" stroke-width="1.1"/><circle cx="163.4" cy="234.8" r="1.1" fill="#d85a4f"/><circle cx="163.4" cy="237.6" r="1.1" fill="#e2b84b"/><circle cx="163.4" cy="240.4" r="1.1" fill="#55a86b"/></g><g opacity="0.56"><title>crossing</title><path d="M157.2,93.2 L161.7,93.2 M157.2,95.0 L161.7,95.0 M157.2,96.8 L161.7,96.8" stroke="#ffffff" stroke-width="2.1" stroke-linecap="round"/><path d="M157.2,93.2 L161.7,93.2 M157.2,95.0 L161.7,95.0 M157.2,96.8 L161.7,96.8" stroke="#59656a" stroke-width="0.85" stroke-linecap="round"/></g><g opacity="0.56"><title>crossing</title><path d="M104.2,82.0 L108.7,82.0 M104.2,83.8 L108.7,83.8 M104.2,85.6 L108.7,85.6" stroke="#ffffff" stroke-width="2.1" stroke-linecap="round"/><path d="M104.2,82.0 L108.7,82.0 M104.2,83.8 L108.7,83.8 M104.2,85.6 L108.7,85.6" stroke="#59656a" stroke-width="0.85" stroke-linecap="round"/></g></svg>