<svg xmlns="http://www.w3.org/2000/svg" width="256" height="256" viewBox="0 0 256 256"><rect width="256" height="256" fill="#f1efe7"/><path d="M-4618.7,11986.3 L-4403.9,11897.0 L-4336.7,11864.7 L-4036.2,11720.4 L-3979.8,11775.0 L-3974.9,11779.7 L-3869.5,11689.5 L-3844.4,11670.4 L-3802.5,11632.6 L-3566.4,11415.8 L-3375.9,11198.2 L-3368.6,11184.3 L-3361.6,11176.4 L-3350.5,11163.7 L-3339.2,11150.8 L-3334.6,11145.5 L-3409.7,11048.4 L-3310.3,10988.8 L-3256.4,11060.5 L-3180.2,10973.3 L-3244.7,10887.9 L-3164.8,10804.6 L-3103.3,10885.6 L-3032.7,10805.2 L-3002.6,10785.5 L-2855.4,10690.0 L-2782.7,10641.7 L-2695.1,10584.1 L-2653.7,10556.9 L-2548.8,10489.2 L-2575.8,10453.7 L-2624.1,10389.0 L-2499.2,10309.6 L-2453.7,10286.1 L-2450.2,10283.6 L-2426.2,10265.1 L-2340.6,10219.3 L-2334.7,10210.1 L-2310.7,10193.6 L-2297.7,10174.6 L-2294.0,10171.8 L-2273.1,10163.7 L-2225.9,10146.8 L-2193.6,10132.6 L-2079.5,10079.0 L-2078.1,10082.7 L-1982.4,10041.8 L-1943.3,10091.9 L-1856.2,10033.8 L-1843.8,10025.3 L-1842.6,10024.3 L-1841.4,10022.7 L-1839.5,10019.4 L-1838.5,10016.3 L-1837.9,10012.6 L-1838.0,10009.6 L-1838.4,10006.7 L-1838.8,10003.4 L-1838.9,10000.9 L-1838.7,9998.8 L-1838.3,9996.6 L-1836.7,9992.6 L-1835.6,9990.4 L-1833.1,9986.6 L-1830.5,9983.8 L-1817.8,9978.7 L-1807.2,9974.7 L-1793.7,9970.3 L-1787.4,9968.6 L-1776.2,9964.9 L-1768.3,9962.1 L-1757.4,9957.6 L-1742.6,9951.1 L-1726.6,9943.6 L-1718.0,9939.4 L-1707.2,9933.9 L-1697.1,9928.3 L-1687.0,9922.3 L-1676.7,9915.6 L-1673.5,9913.4 L-1652.8,9897.6 L-1635.4,9884.2 L-1618.4,9869.8 L-1602.5,9854.8 L-1591.0,9841.9 L-1579.6,9828.0 L-1565.6,9810.0 L-1552.8,9792.0 L-1538.1,9768.9 L-1528.5,9751.0 L-1522.5,9739.6 L-1513.6,9720.3 L-1506.1,9702.4 L-1499.4,9683.1 L-1494.0,9666.2 L-1488.1,9638.8 L-1483.8,9614.3 L-1481.5,9593.3 L-1479.5,9568.5 L-1479.3,9542.0 L-1480.9,9517.5 L-1485.1,9485.5 L-1489.5,9463.7 L-1494.5,9443.1 L-1501.9,9419.7 L-1508.2,9401.8 L-1515.4,9382.3 L-1522.2,9366.1 L-1526.8,9355.6 L-1528.7,9347.9 L-1529.0,9342.0 L-1528.4,9336.7 L-1526.3,9332.1 L-1523.1,9328.2 L-1518.9,9326.0 L-1514.4,9325.4 L-1502.3,9328.3 L-1468.6,9336.4 L-1457.4,9081.7 L-1413.7,8627.1 L-1461.2,8615.9 L-1466.4,8601.6 L-1466.2,8581.1 L-1459.6,8534.6 L-1450.6,8524.1 L-1442.6,8493.9 L-1392.1,8505.6 L-1364.3,8215.1 L-1356.6,8134.7 L-1372.3,8130.8 L-1362.8,8092.4 L-1395.1,8084.7 L-1391.0,8061.2 L-1385.3,8045.7 L-1378.2,8027.6 L-1366.2,8002.3 L-1353.3,8005.2 L-1335.9,7822.5 L-1331.8,7711.7 L-1331.0,7691.3 L-1321.6,7620.8 L-1302.9,7445.1 L-1178.1,7119.7 L-1149.6,7031.0 L-802.9,6898.0 L-769.0,6884.4 L-763.1,6881.2 L-758.5,6877.0 L-753.4,6871.1 L-749.5,6864.2 L-746.9,6857.4 L-746.3,6847.5 L-746.8,6835.2 L-751.4,6679.7 L-753.1,6649.6 L-753.6,6628.9 L-754.3,6588.7 L-755.1,6576.1 L-756.6,6565.5 L-758.7,6556.1 L-761.8,6546.5 L-766.7,6535.2 L-773.9,6523.1 L-780.9,6513.5 L-786.3,6504.4 L-791.8,6492.3 L-796.4,6480.7 L-798.2,6471.2 L-799.6,6460.7 L-800.3,6450.2 L-800.0,6440.0 L-798.8,6428.1 L-796.0,6416.4 L-792.3,6406.0 L-788.4,6396.5 L-783.4,6387.3 L-777.3,6376.1 L-773.3,6366.0 L-769.8,6353.1 L-763.4,6343.3 L-765.6,6254.1 L-768.9,6248.9 L-769.9,6188.3 L-771.6,6116.8 L-770.4,6106.9 L-767.2,6096.8 L-759.2,6081.0 L-705.7,5965.9 L-704.6,5964.0 L-695.2,5943.5 L-686.3,5924.1 L-676.3,5904.1 L-666.5,5883.5 L-661.7,5873.5 L-609.1,5765.6 L-552.9,5646.4 L-431.3,5399.6 L-504.4,5317.7 L-564.0,5444.7 L-615.5,5554.6 L-623.3,5570.2 L-639.2,5602.7 L-671.0,5600.0 L-679.7,5599.5 L-682.8,5602.3 L-678.6,5606.1 L-694.9,5620.6 L-707.8,5632.5 L-710.2,5683.4 L-715.0,5693.6 L-730.6,5693.0 L-733.2,5692.1 L-937.6,5607.7 L-942.0,5605.4 L-946.7,5602.4 L-954.1,5596.8 L-959.8,5591.4 L-964.6,5586.2 L-969.3,5579.8 L-972.9,5574.2 L-975.7,5568.4 L-977.9,5562.3 L-979.4,5558.1 L-980.5,5553.0 L-981.3,5547.0 L-982.1,5538.8 L-982.1,5527.1 L-983.5,5487.4 L-977.9,5487.1 L-978.7,5466.1 L-979.6,5431.5 L-974.4,5431.4 L-974.8,5407.8 L-980.7,5407.9 L-983.4,5308.5 L-977.8,5308.2 L-978.7,5284.9 L-984.1,5285.1 L-986.4,5211.6 L-959.4,5182.5 L-924.9,5181.3 L-899.2,5180.4 L-865.3,5179.3 L-832.7,5178.3 L-803.5,5177.3 L-790.8,5176.7 L-791.4,5165.4 L-791.6,5153.6 L-793.5,5115.3 L-794.2,5042.2 L-795.2,5040.9 L-795.4,5033.7 L-793.3,5033.6 L-798.4,4857.5 L-802.8,4691.8 L-803.5,4686.6 L-803.9,4677.0 L-876.1,4679.6 L-924.1,4675.5 L-1283.4,4688.0 L-1283.5,4684.8 L-1284.2,4669.5 L-1454.6,4675.5 L-1454.9,4647.2 L-1477.4,4642.1 L-1481.4,4521.0 L-818.6,4498.0 L-807.6,4482.9 L-808.0,4439.9 L-808.8,4402.7 L-809.4,4379.4 L-810.3,4356.7 L-863.0,4331.9 L-865.1,4276.8 L-811.1,4250.0 L-816.0,4122.5 L-817.4,4116.2 L-871.1,4091.1 L-872.8,4022.9 L-821.8,3996.6 L-844.5,3719.7 L-838.5,3596.5 L-835.5,3395.6 L-835.7,3177.1 L-830.9,3146.5 L-830.6,3131.7 L-835.4,3113.9 L-830.4,3113.9 L-830.4,3097.8 L-827.4,2686.8 L-827.9,2668.5 L-833.6,2668.5 L-833.4,2592.9 L-836.7,2588.2 L-841.9,2510.2 L-831.6,2438.9 L-832.9,2352.6 L-836.4,2331.9 L-831.1,2268.0 L-834.7,2190.7 L-843.7,2108.0 L-860.8,1974.0 L-852.7,1937.1 L-856.3,1901.2 L-886.9,1875.1 L-931.8,1875.5 L-1000.2,1884.5 L-1044.7,1884.5 L-1085.1,1869.7 L-1138.2,1833.3 L-1138.2,1768.0 L-1139.6,1687.7 L-1134.4,1620.8 L-1116.8,1568.6 L-822.1,1563.1 L-815.3,1145.2 L-815.3,543.6 L-818.4,325.3 L15093.8,-6246.4 L15093.8,29971.8 L-4618.7,29971.8 L-4618.7,11986.3 Z" fill="#add7e1" stroke="none"><title>Biscayne Bay</title></path><path d="M-1683.5,2616.4 L-1720.7,1457.0 L-1459.8,-1152.0 L5064.7,-1152.0 L6518.7,-282.3 L6518.7,1208.5 L5102.0,2326.6 L1895.7,2616.4 Z" fill="#add7e1" stroke="none"><title>Biscayne Bay</title></path><path d="M814.7,-1170.2 L169.3,1857.4" fill="none" stroke="#6fb5c7" stroke-width="1.7" stroke-dasharray="5 7" opacity="0.34" stroke-linecap="round" stroke-linejoin="round"><title>Atlantic Intracoastal Waterway</title></path></svg>