<svg xmlns="http://www.w3.org/2000/svg" width="256" height="256" viewBox="0 0 256 256"><rect width="256" height="256" fill="#f1efe7"/><path d="M-778.7,17874.3 L-563.9,17785.0 L-496.7,17752.7 L-196.2,17608.4 L-139.8,17663.0 L-134.9,17667.7 L-29.5,17577.5 L-4.4,17558.4 L37.5,17520.6 L273.6,17303.8 L464.1,17086.2 L471.4,17072.3 L478.4,17064.4 L489.5,17051.7 L500.8,17038.8 L505.4,17033.5 L430.3,16936.4 L529.7,16876.8 L583.6,16948.5 L659.8,16861.3 L595.3,16775.9 L675.2,16692.6 L736.7,16773.6 L807.3,16693.2 L837.4,16673.5 L984.6,16578.0 L1057.3,16529.7 L1144.9,16472.1 L1186.3,16444.9 L1291.2,16377.2 L1264.2,16341.7 L1215.9,16277.0 L1340.8,16197.6 L1386.3,16174.1 L1389.8,16171.6 L1413.8,16153.1 L1499.4,16107.3 L1505.3,16098.1 L1529.3,16081.6 L1542.3,16062.6 L1546.0,16059.8 L1566.9,16051.7 L1614.1,16034.8 L1646.4,16020.6 L1760.5,15967.0 L1761.9,15970.7 L1857.6,15929.8 L1896.7,15979.9 L1983.8,15921.8 L1996.2,15913.3 L1997.4,15912.3 L1998.6,15910.7 L2000.5,15907.4 L2001.5,15904.3 L2002.1,15900.6 L2002.0,15897.6 L2001.6,15894.7 L2001.2,15891.4 L2001.1,15888.9 L2001.3,15886.8 L2001.7,15884.6 L2003.3,15880.6 L2004.4,15878.4 L2006.9,15874.6 L2009.5,15871.8 L2022.2,15866.7 L2032.8,15862.7 L2046.3,15858.3 L2052.6,15856.6 L2063.8,15852.9 L2071.7,15850.1 L2082.6,15845.6 L2097.4,15839.1 L2113.4,15831.6 L2122.0,15827.4 L2132.8,15821.9 L2142.9,15816.3 L2153.0,15810.3 L2163.3,15803.6 L2166.5,15801.4 L2187.2,15785.6 L2204.6,15772.2 L2221.6,15757.8 L2237.5,15742.8 L2249.0,15729.9 L2260.4,15716.0 L2274.4,15698.0 L2287.2,15680.0 L2301.9,15656.9 L2311.5,15639.0 L2317.5,15627.6 L2326.4,15608.3 L2333.9,15590.4 L2340.6,15571.1 L2346.0,15554.2 L2351.9,15526.8 L2356.2,15502.3 L2358.5,15481.3 L2360.5,15456.5 L2360.7,15430.0 L2359.1,15405.5 L2354.9,15373.5 L2350.5,15351.7 L2345.5,15331.1 L2338.1,15307.7 L2331.8,15289.8 L2324.6,15270.3 L2317.8,15254.1 L2313.2,15243.6 L2311.3,15235.9 L2311.0,15230.0 L2311.6,15224.7 L2313.7,15220.1 L2316.9,15216.2 L2321.1,15214.0 L2325.6,15213.4 L2337.7,15216.3 L2371.4,15224.4 L2382.6,14969.7 L2426.3,14515.1 L2378.8,14503.9 L2373.6,14489.6 L2373.8,14469.1 L2380.4,14422.6 L2389.4,14412.1 L2397.4,14381.9 L2447.9,14393.6 L2475.7,14103.1 L2483.4,14022.7 L2467.7,14018.8 L2477.2,13980.4 L2444.9,13972.7 L2449.0,13949.2 L2454.7,13933.7 L2461.8,13915.6 L2473.8,13890.3 L2486.7,13893.2 L2504.1,13710.5 L2508.2,13599.7 L2509.0,13579.3 L2518.4,13508.8 L2537.1,13333.1 L2661.9,13007.7 L2690.4,12919.0 L3037.1,12786.0 L3071.0,12772.4 L3076.9,12769.2 L3081.5,12765.0 L3086.6,12759.1 L3090.5,12752.2 L3093.1,12745.4 L3093.7,12735.5 L3093.2,12723.2 L3088.6,12567.7 L3086.9,12537.6 L3086.4,12516.9 L3085.7,12476.7 L3084.9,12464.1 L3083.4,12453.5 L3081.3,12444.1 L3078.2,12434.5 L3073.3,12423.2 L3066.1,12411.1 L3059.1,12401.5 L3053.7,12392.4 L3048.2,12380.3 L3043.6,12368.7 L3041.8,12359.2 L3040.4,12348.7 L3039.7,12338.2 L3040.0,12328.0 L3041.2,12316.1 L3044.0,12304.4 L3047.7,12294.0 L3051.6,12284.5 L3056.6,12275.3 L3062.7,12264.1 L3066.7,12254.0 L3070.2,12241.1 L3076.6,12231.3 L3074.4,12142.1 L3071.1,12136.9 L3070.1,12076.3 L3068.4,12004.8 L3069.6,11994.9 L3072.8,11984.8 L3080.8,11969.0 L3134.3,11853.9 L3135.4,11852.0 L3144.8,11831.5 L3153.7,11812.1 L3163.7,11792.1 L3173.5,11771.5 L3178.3,11761.5 L3230.9,11653.6 L3287.1,11534.4 L3408.7,11287.6 L3335.6,11205.7 L3276.0,11332.7 L3224.5,11442.6 L3216.7,11458.2 L3200.8,11490.7 L3169.0,11488.0 L3160.3,11487.5 L3157.2,11490.3 L3161.4,11494.1 L3145.1,11508.6 L3132.2,11520.5 L3129.8,11571.4 L3125.0,11581.6 L3109.4,11581.0 L3106.8,11580.1 L2902.4,11495.7 L2898.0,11493.4 L2893.3,11490.4 L2885.9,11484.8 L2880.2,11479.4 L2875.4,11474.2 L2870.7,11467.8 L2867.1,11462.2 L2864.3,11456.4 L2862.1,11450.3 L2860.6,11446.1 L2859.5,11441.0 L2858.7,11435.0 L2857.9,11426.8 L2857.9,11415.1 L2856.5,11375.4 L2862.1,11375.1 L2861.3,11354.1 L2860.4,11319.5 L2865.6,11319.4 L2865.2,11295.8 L2859.3,11295.9 L2856.6,11196.5 L2862.2,11196.2 L2861.3,11172.9 L2855.9,11173.1 L2853.6,11099.6 L2880.6,11070.5 L2915.1,11069.3 L2940.8,11068.4 L2974.7,11067.3 L3007.3,11066.3 L3036.5,11065.3 L3049.2,11064.7 L3048.6,11053.4 L3048.4,11041.6 L3046.5,11003.3 L3045.8,10930.2 L3044.8,10928.9 L3044.6,10921.7 L3046.7,10921.6 L3041.6,10745.5 L3037.2,10579.8 L3036.5,10574.6 L3036.1,10565.0 L2963.9,10567.6 L2915.9,10563.5 L2556.6,10576.0 L2556.5,10572.8 L2555.8,10557.5 L2385.4,10563.5 L2385.1,10535.2 L2362.6,10530.1 L2358.6,10409.0 L3021.4,10386.0 L3032.4,10370.9 L3032.0,10327.9 L3031.2,10290.7 L3030.6,10267.4 L3029.7,10244.7 L2977.0,10219.9 L2974.9,10164.8 L3028.9,10138.0 L3024.0,10010.5 L3022.6,10004.2 L2968.9,9979.1 L2967.2,9910.9 L3018.2,9884.6 L2995.5,9607.7 L3001.5,9484.5 L3004.5,9283.6 L3004.3,9065.1 L3009.1,9034.5 L3009.4,9019.7 L3004.6,9001.9 L3009.6,9001.9 L3009.6,8985.8 L3012.6,8574.8 L3012.1,8556.5 L3006.4,8556.5 L3006.6,8480.9 L3003.3,8476.2 L2998.1,8398.2 L3008.4,8326.9 L3007.1,8240.6 L3003.6,8219.9 L3008.9,8156.0 L3005.3,8078.7 L2996.3,7996.0 L2979.2,7862.0 L2987.3,7825.1 L2983.7,7789.2 L2953.1,7763.1 L2908.2,7763.5 L2839.8,7772.5 L2795.3,7772.5 L2754.9,7757.7 L2701.8,7721.3 L2701.8,7656.0 L2700.4,7575.7 L2705.6,7508.8 L2723.2,7456.6 L3017.9,7451.1 L3024.7,7033.2 L3024.7,6431.6 L3021.6,6213.3 L18933.8,-358.4 L18933.8,35859.8 L-778.7,35859.8 L-778.7,17874.3 Z" fill="#add7e1" stroke="none"><title>Biscayne Bay</title></path><path d="M-683.3,206.1 L-691.2,208.7 L-698.2,218.0 L-701.5,227.9 L-688.4,538.9 L-682.8,544.6 L-671.6,547.2 L209.0,519.7 L217.6,515.1 L223.4,507.1 L211.0,185.1 L207.3,178.1 L197.0,172.9 L-683.3,206.1 Z" fill="#eadfc8" stroke="#d7d1c5" stroke-width="0.3"><title>Miami Edison Senior High School</title></path><path d="M262.6,513.4 L270.4,518.7 L403.3,513.7 L419.2,500.5 L404.7,177.7 L396.6,172.1 L258.9,176.3 L249.6,183.5 L262.6,513.4 Z" fill="#eadfc8" stroke="#d7d1c5" stroke-width="0.3"><title>iTech - Miami&#x27;s Mega Technology Magnet High School</title></path><path d="M185.4,23.1 L158.4,23.5 L158.2,14.5 L161.8,14.5 L161.6,0.1 L185.1,-0.2 L185.4,23.1 Z" fill="#d6d2c9" stroke="#bab6ad" stroke-width="0.4"></path><path d="M81.5,70.3 L81.1,91.5 L54.2,91.0 L54.6,69.7 L81.5,70.3 Z" fill="#d6d2c9" stroke="#bab6ad" stroke-width="0.4"></path><path d="M172.8,46.6 L172.9,51.5 L206.3,51.0 L206.7,79.6 L171.2,80.1 L171.0,64.8 L158.2,64.9 L158.0,46.8 L172.8,46.6 Z" fill="#d6d2c9" stroke="#bab6ad" stroke-width="0.4"></path><path d="M259.1,94.3 L259.4,104.2 L284.3,103.6 L284.9,127.8 L254.9,128.6 L247.3,123.5 L246.5,94.6 L259.1,94.3 Z" fill="#d6d2c9" stroke="#bab6ad" stroke-width="0.4"></path><path d="M15.0,99.4 L14.5,120.1 L10.7,120.0 L10.6,127.2 L-6.1,126.8 L-5.4,92.6 L10.6,93.0 L10.5,99.3 L15.0,99.4 Z" fill="#d6d2c9" stroke="#bab6ad" stroke-width="0.4"></path><path d="M5.9,5.1 L6.0,11.8 L10.0,11.7 L10.4,32.3 L6.8,32.4 L6.9,39.9 L-9.5,40.2 L-10.3,5.5 L5.9,5.1 Z" fill="#d6d2c9" stroke="#bab6ad" stroke-width="0.4"></path><path d="M113.6,20.4 L92.2,20.7 L91.9,-9.3 L113.3,-9.6 L113.6,20.4 Z" fill="#d6d2c9" stroke="#bab6ad" stroke-width="0.4"></path><path d="M119.2,50.9 L98.7,51.2 L98.5,39.1 L119.0,38.8 L119.2,50.9 Z" fill="#d6d2c9" stroke="#bab6ad" stroke-width="0.4"></path><path d="M92.1,122.7 L79.3,122.8 L79.1,103.2 L91.9,103.1 L92.1,122.7 Z" fill="#d6d2c9" stroke="#bab6ad" stroke-width="0.4"></path><path d="M7.9,61.0 L8.0,69.8 L13.4,69.7 L13.6,78.7 L-7.4,79.1 L-7.8,53.4 L12.1,53.0 L12.3,61.0 L7.9,61.0 Z" fill="#d6d2c9" stroke="#bab6ad" stroke-width="0.4"></path><path d="M144.2,31.4 L123.4,31.9 L122.5,-10.2 L143.3,-10.6 L144.2,31.4 Z" fill="#d6d2c9" stroke="#bab6ad" stroke-width="0.4"></path><path d="M141.7,247.8 L142.5,276.8 L182.2,275.8 L182.8,299.5 L138.3,300.6 L138.2,295.8 L127.0,296.1 L125.8,248.2 L141.7,247.8 Z" fill="#d6d2c9" stroke="#bab6ad" stroke-width="0.4"></path><path d="M59.9,-5.8 L59.9,-4.3 L64.9,-4.5 L65.5,20.9 L60.7,21.0 L61.0,31.7 L50.9,31.9 L50.7,22.0 L48.6,22.1 L48.0,-0.3 L52.8,-0.5 L52.6,-5.7 L56.3,-5.7 L59.9,-5.8 Z" fill="#d6d2c9" stroke="#bab6ad" stroke-width="0.4"></path><path d="M202.4,33.5 L187.3,34.4" fill="none" stroke="#cec8bb" stroke-width="3.5" stroke-linecap="round" stroke-linejoin="round"/><path d="M202.4,33.5 L187.3,34.4" fill="none" stroke="#ffffff" stroke-width="2.5" stroke-linecap="round" stroke-linejoin="round"></path><path d="M224.4,31.9 L202.4,33.5" fill="none" stroke="#cec8bb" stroke-width="3.5" stroke-linecap="round" stroke-linejoin="round"/><path d="M224.4,31.9 L202.4,33.5" fill="none" stroke="#ffffff" stroke-width="2.5" stroke-linecap="round" stroke-linejoin="round"></path><path d="M47.3,116.4 L74.1,115.8" fill="none" stroke="#cec8bb" stroke-width="3.5" stroke-linecap="round" stroke-linejoin="round"/><path d="M47.3,116.4 L74.1,115.8" fill="none" stroke="#ffffff" stroke-width="2.5" stroke-linecap="round" stroke-linejoin="round"></path><path d="M31.1,116.9 L47.3,116.4" fill="none" stroke="#cec8bb" stroke-width="3.5" stroke-linecap="round" stroke-linejoin="round"/><path d="M31.1,116.9 L47.3,116.4" fill="none" stroke="#ffffff" stroke-width="2.5" stroke-linecap="round" stroke-linejoin="round"></path><path d="M154.7,214.5 L196.4,213.9 L198.0,246.9" fill="none" stroke="#cec8bb" stroke-width="3.5" stroke-linecap="round" stroke-linejoin="round"/><path d="M154.7,214.5 L196.4,213.9 L198.0,246.9" fill="none" stroke="#ffffff" stroke-width="2.5" stroke-linecap="round" stroke-linejoin="round"></path><path d="M206.0,246.6 L198.0,246.9 L155.7,248.4 L154.7,214.5 L153.4,188.6" fill="none" stroke="#cec8bb" stroke-width="3.5" stroke-linecap="round" stroke-linejoin="round"/><path d="M206.0,246.6 L198.0,246.9 L155.7,248.4 L154.7,214.5 L153.4,188.6" fill="none" stroke="#ffffff" stroke-width="2.5" stroke-linecap="round" stroke-linejoin="round"></path><path d="M233.3,245.1 L206.0,246.6" fill="none" stroke="#cec8bb" stroke-width="3.5" stroke-linecap="round" stroke-linejoin="round"/><path d="M233.3,245.1 L206.0,246.6" fill="none" stroke="#ffffff" stroke-width="2.5" stroke-linecap="round" stroke-linejoin="round"></path><path d="M111.8,147.4 L111.1,92.5 L204.8,89.4 L227.0,88.8" fill="none" stroke="#cec8bb" stroke-width="3.5" stroke-linecap="round" stroke-linejoin="round"/><path d="M111.8,147.4 L111.1,92.5 L204.8,89.4 L227.0,88.8" fill="none" stroke="#ffffff" stroke-width="2.5" stroke-linecap="round" stroke-linejoin="round"></path><path d="M111.1,92.5 L110.5,65.0" fill="none" stroke="#cec8bb" stroke-width="3.5" stroke-linecap="round" stroke-linejoin="round"/><path d="M111.1,92.5 L110.5,65.0" fill="none" stroke="#ffffff" stroke-width="2.5" stroke-linecap="round" stroke-linejoin="round"></path><path d="M32.9,173.3 L32.4,149.7 L31.1,116.9 L25.7,-21.5 L25.3,-33.5 L21.2,-126.1" fill="none" stroke="#cec8bb" stroke-width="4.8" stroke-linecap="round" stroke-linejoin="round"/><path d="M32.9,173.3 L32.4,149.7 L31.1,116.9 L25.7,-21.5 L25.3,-33.5 L21.2,-126.1" fill="none" stroke="#ffffff" stroke-width="3.7" stroke-linecap="round" stroke-linejoin="round"><title>Northwest 2nd Place</title></path><path d="M230.3,166.6 L230.8,179.2 L232.7,228.6 L233.3,245.1 L236.4,326.5" fill="none" stroke="#d1c4aa" stroke-width="5.4" stroke-linecap="round" stroke-linejoin="round"/><path d="M230.3,166.6 L230.8,179.2 L232.7,228.6 L233.3,245.1 L236.4,326.5" fill="none" stroke="#f4d99b" stroke-width="4.0" stroke-linecap="round" stroke-linejoin="round"><title>Northwest 2nd Avenue</title></path><path d="M227.2,93.8 L227.0,88.8 L224.4,31.9 L221.2,-38.6 L219.2,-82.7" fill="none" stroke="#d1c4aa" stroke-width="5.4" stroke-linecap="round" stroke-linejoin="round"/><path d="M227.2,93.8 L227.0,88.8 L224.4,31.9 L221.2,-38.6 L219.2,-82.7" fill="none" stroke="#f4d99b" stroke-width="4.0" stroke-linecap="round" stroke-linejoin="round"><title>Northwest 2nd Avenue</title></path><path d="M229.4,143.8 L230.3,166.6" fill="none" stroke="#d1c4aa" stroke-width="5.4" stroke-linecap="round" stroke-linejoin="round"/><path d="M229.4,143.8 L230.3,166.6" fill="none" stroke="#f4d99b" stroke-width="4.0" stroke-linecap="round" stroke-linejoin="round"><title>Northwest 2nd Avenue</title></path><path d="M229.4,143.8 L228.8,130.7 L227.2,93.8" fill="none" stroke="#d1c4aa" stroke-width="5.4" stroke-linecap="round" stroke-linejoin="round"/><path d="M229.4,143.8 L228.8,130.7 L227.2,93.8" fill="none" stroke="#f4d99b" stroke-width="4.0" stroke-linecap="round" stroke-linejoin="round"><title>Northwest 2nd Avenue</title></path><path d="M-93.7,176.5 L32.9,173.3 L202.5,167.5 L230.3,166.6" fill="none" stroke="#d1c4aa" stroke-width="6.4" stroke-linecap="round" stroke-linejoin="round"/><path d="M-93.7,176.5 L32.9,173.3 L202.5,167.5 L230.3,166.6" fill="none" stroke="#f1c77d" stroke-width="5.0" stroke-linecap="round" stroke-linejoin="round"><title>Northwest 62nd Street</title></path><path d="M229.4,143.8 L199.9,144.9 L111.8,147.4 L32.4,149.7 L-94.6,154.2" fill="none" stroke="#d1c4aa" stroke-width="6.4" stroke-linecap="round" stroke-linejoin="round"/><path d="M229.4,143.8 L199.9,144.9 L111.8,147.4 L32.4,149.7 L-94.6,154.2" fill="none" stroke="#f1c77d" stroke-width="5.0" stroke-linecap="round" stroke-linejoin="round"><title>Northwest 62nd Street</title></path><path d="M230.3,166.6 L250.7,165.6 L370.9,162.2" fill="none" stroke="#d1c4aa" stroke-width="6.4" stroke-linecap="round" stroke-linejoin="round"/><path d="M230.3,166.6 L250.7,165.6 L370.9,162.2" fill="none" stroke="#f1c77d" stroke-width="5.0" stroke-linecap="round" stroke-linejoin="round"><title>Northwest 62nd Street</title></path><path d="M420.6,137.3 L248.6,143.1 L229.4,143.8" fill="none" stroke="#d1c4aa" stroke-width="6.4" stroke-linecap="round" stroke-linejoin="round"/><path d="M420.6,137.3 L248.6,143.1 L229.4,143.8" fill="none" stroke="#f1c77d" stroke-width="5.0" stroke-linecap="round" stroke-linejoin="round"><title>Northwest 62nd Street</title></path><g transform="translate(117.7 170.4) rotate(-1.9)"><path d="M -3.6 -3.2 L 4.4 0 L -3.6 3.2 Z" fill="#58656d" opacity="0.46"/></g><g transform="translate(155.9 146.1) rotate(178.3)"><path d="M -3.6 -3.2 L 4.4 0 L -3.6 3.2 Z" fill="#58656d" opacity="0.46"/></g><g transform="translate(72.1 148.6) rotate(178.3)"><path d="M -3.6 -3.2 L 4.4 0 L -3.6 3.2 Z" fill="#58656d" opacity="0.46"/></g><text x="117.7" y="170.4" transform="rotate(-1.9 117.7 170.4)" text-anchor="middle" dominant-baseline="central" font-family="Arial, sans-serif" font-size="8.3" textLength="111.6" lengthAdjust="spacing" font-weight="650" paint-order="stroke" stroke="#fffaf0" stroke-width="2.05" stroke-linejoin="round" fill="#6f573d">Northwest 62nd Street</text><text x="155.9" y="146.1" transform="rotate(-1.7 155.9 146.1)" text-anchor="middle" dominant-baseline="central" font-family="Arial, sans-serif" font-size="8.3" textLength="111.6" lengthAdjust="spacing" font-weight="650" paint-order="stroke" stroke="#fffaf0" stroke-width="2.05" stroke-linejoin="round" fill="#6f573d">Northwest 62nd Street</text><text x="29.2" y="66.5" transform="rotate(87.8 29.2 66.5)" text-anchor="middle" dominant-baseline="central" font-family="Arial, sans-serif" font-size="8.3" textLength="100.9" lengthAdjust="spacing" font-weight="650" paint-order="stroke" stroke="#fffaf0" stroke-width="2.05" stroke-linejoin="round" fill="#695f54">Northwest 2nd Place</text><text x="168.4" y="16.5" text-anchor="middle" font-family="Arial, sans-serif" font-size="6.5" textLength="18.0" lengthAdjust="spacing" font-weight="500" paint-order="stroke" stroke="#f3f5ee" stroke-width="1.55" stroke-linejoin="round" fill="#6f777a">6230</text><text x="67.8" y="80.6" text-anchor="middle" font-family="Arial, sans-serif" font-size="6.5" textLength="18.0" lengthAdjust="spacing" font-weight="500" paint-order="stroke" stroke="#f3f5ee" stroke-width="1.55" stroke-linejoin="round" fill="#6f777a">6215</text><text x="177.1" y="60.7" text-anchor="middle" font-family="Arial, sans-serif" font-size="6.5" textLength="18.0" lengthAdjust="spacing" font-weight="500" paint-order="stroke" stroke="#f3f5ee" stroke-width="1.55" stroke-linejoin="round" fill="#6f777a">6220</text><text x="102.7" y="16.5" text-anchor="middle" font-family="Arial, sans-serif" font-size="6.5" textLength="18.0" lengthAdjust="spacing" font-weight="500" paint-order="stroke" stroke="#f3f5ee" stroke-width="1.55" stroke-linejoin="round" fill="#6f777a">224</text><text x="133.4" y="16.5" text-anchor="middle" font-family="Arial, sans-serif" font-size="6.5" textLength="18.0" lengthAdjust="spacing" font-weight="500" paint-order="stroke" stroke="#f3f5ee" stroke-width="1.55" stroke-linejoin="round" fill="#6f777a">220</text><text x="56.3" y="16.5" text-anchor="middle" font-family="Arial, sans-serif" font-size="6.5" textLength="18.0" lengthAdjust="spacing" font-weight="500" paint-order="stroke" stroke="#f3f5ee" stroke-width="1.55" stroke-linejoin="round" fill="#6f777a">6231</text><text x="108.8" y="92.3" text-anchor="middle" font-family="Arial, sans-serif" font-size="6.5" textLength="18.0" lengthAdjust="spacing" font-weight="500" paint-order="stroke" stroke="#f3f5ee" stroke-width="1.55" stroke-linejoin="round" fill="#6f777a">227</text><text x="78.2" y="16.5" text-anchor="middle" font-family="Arial, sans-serif" font-size="6.5" textLength="18.0" lengthAdjust="spacing" font-weight="500" paint-order="stroke" stroke="#f3f5ee" stroke-width="1.55" stroke-linejoin="round" fill="#6f777a">238</text><text x="85.1" y="112.9" text-anchor="middle" font-family="Arial, sans-serif" font-size="6.5" textLength="18.0" lengthAdjust="spacing" font-weight="500" paint-order="stroke" stroke="#f3f5ee" stroke-width="1.55" stroke-linejoin="round" fill="#6f777a">249</text><text x="141.7" y="95.9" text-anchor="middle" font-family="Arial, sans-serif" font-size="6.5" textLength="18.0" lengthAdjust="spacing" font-weight="500" paint-order="stroke" stroke="#f3f5ee" stroke-width="1.55" stroke-linejoin="round" fill="#6f777a">219</text><text x="183.6" y="100.3" text-anchor="middle" font-family="Arial, sans-serif" font-size="6.5" textLength="18.0" lengthAdjust="spacing" font-weight="500" paint-order="stroke" stroke="#f3f5ee" stroke-width="1.55" stroke-linejoin="round" fill="#6f777a">207</text><g><title>Northwest 2nd Avenue &amp; Northwest 62nd Street</title><rect x="209.7" y="225.8" width="6.9" height="6.1" rx="1.3" fill="#2796c9" stroke="#ffffff" stroke-width="1.05"/><rect x="210.9" y="227.1" width="4.4" height="2.1" rx="0.35" fill="#ffffff"/><circle cx="211.2" cy="230.8" r="0.5" fill="#ffffff"/><circle cx="215.0" cy="230.8" r="0.5" fill="#ffffff"/></g><g><title>Northwest 62nd Street @ Northwest 2nd Avenue</title><rect x="187.9" y="173.1" width="6.9" height="6.1" rx="1.3" fill="#2796c9" stroke="#ffffff" stroke-width="1.05"/><rect x="189.2" y="174.3" width="4.4" height="2.1" rx="0.35" fill="#ffffff"/><circle cx="189.5" cy="178.1" r="0.5" fill="#ffffff"/><circle cx="193.2" cy="178.1" r="0.5" fill="#ffffff"/></g><g><title>signal</title><rect x="226.7" y="138.6" width="5.4" height="10.4" rx="2.1" fill="#3f4b52" stroke="#ffffff" stroke-width="1.1"/><circle cx="229.4" cy="141.0" r="1.1" fill="#d85a4f"/><circle cx="229.4" cy="143.8" r="1.1" fill="#e2b84b"/><circle cx="229.4" cy="146.6" r="1.1" fill="#55a86b"/></g><g><title>signal</title><rect x="227.6" y="161.4" width="5.4" height="10.4" rx="2.1" fill="#3f4b52" stroke="#ffffff" stroke-width="1.1"/><circle cx="230.3" cy="163.8" r="1.1" fill="#d85a4f"/><circle cx="230.3" cy="166.6" r="1.1" fill="#e2b84b"/><circle cx="230.3" cy="169.4" r="1.1" fill="#55a86b"/></g><g opacity="0.56"><title>crossing</title><path d="M228.5,177.4 L233.1,177.4 M228.5,179.2 L233.1,179.2 M228.5,181.0 L233.1,181.0" stroke="#ffffff" stroke-width="2.1" stroke-linecap="round"/><path d="M228.5,177.4 L233.1,177.4 M228.5,179.2 L233.1,179.2 M228.5,181.0 L233.1,181.0" stroke="#59656a" stroke-width="0.85" stroke-linecap="round"/></g><g opacity="0.56"><title>crossing</title><path d="M226.6,128.9 L231.1,128.9 M226.6,130.7 L231.1,130.7 M226.6,132.5 L231.1,132.5" stroke="#ffffff" stroke-width="2.1" stroke-linecap="round"/><path d="M226.6,128.9 L231.1,128.9 M226.6,130.7 L231.1,130.7 M226.6,132.5 L231.1,132.5" stroke="#59656a" stroke-width="0.85" stroke-linecap="round"/></g><g opacity="0.56"><title>crossing</title><path d="M200.2,165.7 L204.8,165.7 M200.2,167.5 L204.8,167.5 M200.2,169.3 L204.8,169.3" stroke="#ffffff" stroke-width="2.1" stroke-linecap="round"/><path d="M200.2,165.7 L204.8,165.7 M200.2,167.5 L204.8,167.5 M200.2,169.3 L204.8,169.3" stroke="#59656a" stroke-width="0.85" stroke-linecap="round"/></g></svg>