<svg xmlns="http://www.w3.org/2000/svg" width="256" height="256" viewBox="0 0 256 256"><defs><pattern id="park-dots" width="22" height="22" patternUnits="userSpaceOnUse"><circle cx="5" cy="5" r="2.1" fill="#63a95d" fill-opacity="0.26"/><circle cx="16" cy="7" r="1.55" fill="#76b970" fill-opacity="0.23"/><circle cx="10" cy="17" r="1.9" fill="#61a65b" fill-opacity="0.24"/><circle cx="21" cy="17" r="1.25" fill="#80c174" fill-opacity="0.18"/><circle cx="1" cy="19" r="1.2" fill="#70b46a" fill-opacity="0.17"/></pattern><pattern id="park-canopy" width="54" height="48" patternUnits="userSpaceOnUse"><circle cx="12" cy="11" r="3.6" fill="#5ea75a" fill-opacity="0.22"/><circle cx="31" cy="15" r="2.9" fill="#75ba6d" fill-opacity="0.18"/><circle cx="45" cy="31" r="3.3" fill="#67ae62" fill-opacity="0.20"/><circle cx="19" cy="39" r="2.5" fill="#83c378" fill-opacity="0.16"/></pattern></defs><rect width="256" height="256" fill="#f1efe7"/><path d="M-778.7,5842.3 L-563.9,5753.0 L-496.7,5720.7 L-196.2,5576.4 L-139.8,5631.0 L-134.9,5635.7 L-29.5,5545.5 L-4.4,5526.4 L37.5,5488.6 L273.6,5271.8 L464.1,5054.2 L471.4,5040.3 L478.4,5032.4 L489.5,5019.7 L500.8,5006.8 L505.4,5001.5 L430.3,4904.4 L529.7,4844.8 L583.6,4916.5 L659.8,4829.3 L595.3,4743.9 L675.2,4660.6 L736.7,4741.6 L807.3,4661.2 L837.4,4641.5 L984.6,4546.0 L1057.3,4497.7 L1144.9,4440.1 L1186.3,4412.9 L1291.2,4345.2 L1264.2,4309.7 L1215.9,4245.0 L1340.8,4165.6 L1386.3,4142.1 L1389.8,4139.6 L1413.8,4121.1 L1499.4,4075.3 L1505.3,4066.1 L1529.3,4049.6 L1542.3,4030.6 L1546.0,4027.8 L1566.9,4019.7 L1614.1,4002.8 L1646.4,3988.6 L1760.5,3935.0 L1761.9,3938.7 L1857.6,3897.8 L1896.7,3947.9 L1983.8,3889.8 L1996.2,3881.3 L1997.4,3880.3 L1998.6,3878.7 L2000.5,3875.4 L2001.5,3872.3 L2002.1,3868.6 L2002.0,3865.6 L2001.6,3862.7 L2001.2,3859.4 L2001.1,3856.9 L2001.3,3854.8 L2001.7,3852.6 L2003.3,3848.6 L2004.4,3846.4 L2006.9,3842.6 L2009.5,3839.8 L2022.2,3834.7 L2032.8,3830.7 L2046.3,3826.3 L2052.6,3824.6 L2063.8,3820.9 L2071.7,3818.1 L2082.6,3813.6 L2097.4,3807.1 L2113.4,3799.6 L2122.0,3795.4 L2132.8,3789.9 L2142.9,3784.3 L2153.0,3778.3 L2163.3,3771.6 L2166.5,3769.4 L2187.2,3753.6 L2204.6,3740.2 L2221.6,3725.8 L2237.5,3710.8 L2249.0,3697.9 L2260.4,3684.0 L2274.4,3666.0 L2287.2,3648.0 L2301.9,3624.9 L2311.5,3607.0 L2317.5,3595.6 L2326.4,3576.3 L2333.9,3558.4 L2340.6,3539.1 L2346.0,3522.2 L2351.9,3494.8 L2356.2,3470.3 L2358.5,3449.3 L2360.5,3424.5 L2360.7,3398.0 L2359.1,3373.5 L2354.9,3341.5 L2350.5,3319.7 L2345.5,3299.1 L2338.1,3275.7 L2331.8,3257.8 L2324.6,3238.3 L2317.8,3222.1 L2313.2,3211.6 L2311.3,3203.9 L2311.0,3198.0 L2311.6,3192.7 L2313.7,3188.1 L2316.9,3184.2 L2321.1,3182.0 L2325.6,3181.4 L2337.7,3184.3 L2371.4,3192.4 L2382.6,2937.7 L2426.3,2483.1 L2378.8,2471.9 L2373.6,2457.6 L2373.8,2437.1 L2380.4,2390.6 L2389.4,2380.1 L2397.4,2349.9 L2447.9,2361.6 L2475.7,2071.1 L2483.4,1990.7 L2467.7,1986.8 L2477.2,1948.4 L2444.9,1940.7 L2449.0,1917.2 L2454.7,1901.7 L2461.8,1883.6 L2473.8,1858.3 L2486.7,1861.2 L2504.1,1678.5 L2508.2,1567.7 L2509.0,1547.3 L2518.4,1476.8 L2537.1,1301.1 L2661.9,975.7 L2690.4,887.0 L3037.1,754.0 L3071.0,740.4 L3076.9,737.2 L3081.5,733.0 L3086.6,727.1 L3090.5,720.2 L3093.1,713.4 L3093.7,703.5 L3093.2,691.2 L3088.6,535.7 L3086.9,505.6 L3086.4,484.9 L3085.7,444.7 L3084.9,432.1 L3083.4,421.5 L3081.3,412.1 L3078.2,402.5 L3073.3,391.2 L3066.1,379.1 L3059.1,369.5 L3053.7,360.4 L3048.2,348.3 L3043.6,336.7 L3041.8,327.2 L3040.4,316.7 L3039.7,306.2 L3040.0,296.0 L3041.2,284.1 L3044.0,272.4 L3047.7,262.0 L3051.6,252.5 L3056.6,243.3 L3062.7,232.1 L3066.7,222.0 L3070.2,209.1 L3076.6,199.3 L3074.4,110.1 L3071.1,104.9 L3070.1,44.3 L3068.4,-27.2 L3069.6,-37.1 L3072.8,-47.2 L3080.8,-63.0 L3134.3,-178.1 L3135.4,-180.0 L3144.8,-200.5 L3153.7,-219.9 L3163.7,-239.9 L3173.5,-260.5 L3178.3,-270.5 L3230.9,-378.4 L3287.1,-497.6 L3408.7,-744.4 L3335.6,-826.3 L3276.0,-699.3 L3224.5,-589.4 L3216.7,-573.8 L3200.8,-541.3 L3169.0,-544.0 L3160.3,-544.5 L3157.2,-541.7 L3161.4,-537.9 L3145.1,-523.4 L3132.2,-511.5 L3129.8,-460.6 L3125.0,-450.4 L3109.4,-451.0 L3106.8,-451.9 L2902.4,-536.3 L2898.0,-538.6 L2893.3,-541.6 L2885.9,-547.2 L2880.2,-552.6 L2875.4,-557.8 L2870.7,-564.2 L2867.1,-569.8 L2864.3,-575.6 L2862.1,-581.7 L2860.6,-585.9 L2859.5,-591.0 L2858.7,-597.0 L2857.9,-605.2 L2857.9,-616.9 L2856.5,-656.6 L2862.1,-656.9 L2861.3,-677.9 L2860.4,-712.5 L2865.6,-712.6 L2865.2,-736.2 L2859.3,-736.1 L2856.6,-835.5 L2862.2,-835.8 L2861.3,-859.1 L2855.9,-858.9 L2853.6,-932.4 L2880.6,-961.5 L2915.1,-962.7 L2940.8,-963.6 L2974.7,-964.7 L3007.3,-965.7 L3036.5,-966.7 L3049.2,-967.3 L3048.6,-978.6 L3048.4,-990.4 L3046.5,-1028.7 L3045.8,-1101.8 L3044.8,-1103.1 L3044.6,-1110.3 L3046.7,-1110.4 L3041.6,-1286.5 L3037.2,-1452.2 L3036.5,-1457.4 L3036.1,-1467.0 L2963.9,-1464.4 L2915.9,-1468.5 L2556.6,-1456.0 L2556.5,-1459.2 L2555.8,-1474.5 L2385.4,-1468.5 L2385.1,-1496.8 L2362.6,-1501.9 L2358.6,-1623.0 L3021.4,-1646.0 L3032.4,-1661.1 L3032.0,-1704.1 L3031.2,-1741.3 L3030.6,-1764.6 L3029.7,-1787.3 L2977.0,-1812.1 L2974.9,-1867.2 L3028.9,-1894.0 L3024.0,-2021.5 L3022.6,-2027.8 L2968.9,-2052.9 L2967.2,-2121.1 L3018.2,-2147.4 L2995.5,-2424.3 L3001.5,-2547.5 L3004.5,-2748.4 L3004.3,-2966.9 L3009.1,-2997.5 L3009.4,-3012.3 L3004.6,-3030.1 L3009.6,-3030.1 L3009.6,-3046.2 L3012.6,-3457.2 L3012.1,-3475.5 L3006.4,-3475.5 L3006.6,-3551.1 L3003.3,-3555.8 L2998.1,-3633.8 L3008.4,-3705.1 L3007.1,-3791.4 L3003.6,-3812.1 L3008.9,-3876.0 L3005.3,-3953.3 L2996.3,-4036.0 L2979.2,-4170.0 L2987.3,-4206.9 L2983.7,-4242.8 L2953.1,-4268.9 L2908.2,-4268.5 L2839.8,-4259.5 L2795.3,-4259.5 L2754.9,-4274.3 L2701.8,-4310.7 L2701.8,-4376.0 L2700.4,-4456.3 L2705.6,-4523.2 L2723.2,-4575.4 L3017.9,-4580.9 L3024.7,-4998.8 L3024.7,-5600.4 L3021.6,-5818.7 L18933.8,-12390.4 L18933.8,23827.8 L-778.7,23827.8 L-778.7,5842.3 Z" fill="#add7e1" stroke="none"><title>Biscayne Bay</title></path><path d="M204.7,646.1 L209.7,646.1 L204.5,624.6 L194.7,584.9 L186.5,585.9 L180.6,542.5 L179.1,536.5 L177.7,532.1 L174.1,526.6 L166.0,514.1 L157.8,497.7 L149.7,481.6 L128.3,438.0 L122.2,425.9 L119.2,421.1 L113.5,414.6 L108.5,409.5 L101.6,401.6 L89.5,388.9 L78.2,375.6 L68.4,362.5 L64.9,355.9 L67.1,354.6 L30.4,283.1 L20.4,280.7 L18.8,245.9 L8.3,246.4 L5.7,236.8 L8.1,224.6 L-62.9,234.1 L18.5,368.3 L60.7,449.7 L75.9,485.0 L128.0,649.0 L204.7,646.1 Z" fill="#ece7dc" stroke="#d7d1c5" stroke-width="0.3"></path><path d="M33.4,28.9 L29.7,31.4 L18.6,39.0 L11.9,31.9 L27.6,20.5 L33.4,28.9 Z" fill="#dcf5d2" stroke="#9fcf91" stroke-width="0.4"></path><path d="M33.4,28.9 L29.7,31.4 L18.6,39.0 L11.9,31.9 L27.6,20.5 L33.4,28.9 Z" fill="url(#park-dots)" stroke="none"/><path d="M33.4,28.9 L29.7,31.4 L18.6,39.0 L11.9,31.9 L27.6,20.5 L33.4,28.9 Z" fill="url(#park-canopy)" stroke="none"/><path d="M-65.9,-56.6 L-28.4,-22.0 L16.4,19.5 L23.5,15.0 L10.5,-0.9 L-3.7,-20.0 L-20.4,-41.4 L-35.0,-60.1 L-46.1,-75.0 L-65.9,-56.6 Z" fill="#dcf5d2" stroke="#9fcf91" stroke-width="0.4"></path><path d="M-65.9,-56.6 L-28.4,-22.0 L16.4,19.5 L23.5,15.0 L10.5,-0.9 L-3.7,-20.0 L-20.4,-41.4 L-35.0,-60.1 L-46.1,-75.0 L-65.9,-56.6 Z" fill="url(#park-dots)" stroke="none"/><path d="M-65.9,-56.6 L-28.4,-22.0 L16.4,19.5 L23.5,15.0 L10.5,-0.9 L-3.7,-20.0 L-20.4,-41.4 L-35.0,-60.1 L-46.1,-75.0 L-65.9,-56.6 Z" fill="url(#park-canopy)" stroke="none"/><path d="M118.3,61.7 L85.8,-10.3 L119.8,-37.8 L176.8,-38.8 L179.8,31.7 L118.3,61.7 Z" fill="#d6d2c9" stroke="#bab6ad" stroke-width="0.4"></path><path d="M80.6,98.4 L105.8,143.2 L90.6,151.8 L85.2,154.9 L81.3,145.5 L56.8,108.1 L62.2,104.2 L64.2,107.2 L80.6,98.4 Z" fill="#d6d2c9" stroke="#bab6ad" stroke-width="0.4"></path><path d="M111.0,176.3 L95.9,178.1 L94.4,165.4 L109.6,163.7 L111.0,176.3 Z" fill="#d6d2c9" stroke="#bab6ad" stroke-width="0.4"></path><path d="M36.8,41.9 L22.2,51.8 L15.1,41.4 L29.7,31.4 L36.8,41.9 Z" fill="#d6d2c9" stroke="#bab6ad" stroke-width="0.4"></path><path d="M-162.6,-45.9 L-39.6,54.1 L4.4,111.1 L142.4,370.1" fill="none" stroke="#6fb5c7" stroke-width="1.7" stroke-dasharray="5 7" opacity="0.34" stroke-linecap="round" stroke-linejoin="round"><title>Miami River</title></path><path d="M262.8,403.0 L191.9,292.5 L166.6,253.0 L159.7,240.1 L82.3,95.6 L71.7,78.0 L66.5,69.4 L40.1,30.9 L27.7,15.7 L10.4,-5.5 L-15.6,-38.6 L-30.7,-58.5" fill="none" stroke="#cf828d" stroke-width="1.5" stroke-dasharray="1.6 3.0" opacity="0.62" stroke-linecap="round" stroke-linejoin="round"></path><path d="M15.4,23.6 L27.7,15.7" fill="none" stroke="#cf828d" stroke-width="1.5" stroke-dasharray="1.6 3.0" opacity="0.62" stroke-linecap="round" stroke-linejoin="round"></path><path d="M-73.5,-57.6 L15.4,23.6" fill="none" stroke="#cf828d" stroke-width="1.5" stroke-dasharray="1.6 3.0" opacity="0.62" stroke-linecap="round" stroke-linejoin="round"><title>Miami River Greenway</title></path><path d="M255.8,-53.7 L255.5,-29.3 L256.4,-6.2 L257.5,23.3 L258.1,44.4 L257.3,47.7 L254.6,52.7 L250.8,57.4 L250.1,57.8 L246.3,59.8 L242.1,61.0 L236.6,61.3 L221.0,57.4 L207.8,54.0 L189.6,52.0 L178.1,51.7 L167.8,53.2 L150.8,56.6 L135.2,64.1 L115.5,72.0 L107.2,72.4 L100.9,71.2 L95.9,69.1 L94.0,66.1 L79.5,43.0 L40.3,-7.7 L19.3,-34.2 L-11.1,-72.5" fill="none" stroke="#cf828d" stroke-width="1.5" stroke-dasharray="1.6 3.0" opacity="0.62" stroke-linecap="round" stroke-linejoin="round"></path><path d="M233.9,310.1 L215.9,279.6 L211.7,272.4 L212.5,271.9 L217.4,268.8 L253.0,266.8 L276.4,266.0 L311.2,264.8" fill="none" stroke="#cf828d" stroke-width="1.5" stroke-dasharray="1.6 3.0" opacity="0.62" stroke-linecap="round" stroke-linejoin="round"></path><path d="M256.4,157.4 L252.9,154.4 L249.0,151.0" fill="none" stroke="#cf828d" stroke-width="1.5" stroke-dasharray="1.6 3.0" opacity="0.62" stroke-linecap="round" stroke-linejoin="round"></path><path d="M218.3,165.1 L231.5,160.8 L238.9,156.9 L246.1,150.7 L247.1,149.4 L251.1,144.2 L254.1,138.5 L256.2,132.9 L257.3,127.0 L257.3,118.2 L257.0,87.3 L256.8,85.5 L255.2,84.4 L249.7,83.2 L223.6,77.8 L192.5,71.1 L186.0,71.2 L178.2,71.7 L169.9,72.9 L162.3,75.2 L131.2,89.5 L125.9,93.7 L122.3,99.4 L121.2,103.3 L120.2,107.2 L120.1,117.0 L122.7,125.1 L184.1,228.6 L185.9,231.6 L189.5,234.8 L191.4,235.3 L194.5,236.2 L207.6,236.2 L298.0,229.0 L346.7,227.4" fill="none" stroke="#cf828d" stroke-width="1.5" stroke-dasharray="1.6 3.0" opacity="0.62" stroke-linecap="round" stroke-linejoin="round"></path><path d="M330.2,186.4 L283.2,190.3 L222.2,198.6" fill="none" stroke="#cf828d" stroke-width="1.5" stroke-dasharray="1.6 3.0" opacity="0.62" stroke-linecap="round" stroke-linejoin="round"></path><path d="M249.0,151.0 L247.1,149.4" fill="none" stroke="#cf828d" stroke-width="1.5" stroke-dasharray="1.6 3.0" opacity="0.62" stroke-linecap="round" stroke-linejoin="round"></path><path d="M250.4,81.3 L251.4,77.3 L252.3,73.8" fill="none" stroke="#cf828d" stroke-width="1.5" stroke-dasharray="1.6 3.0" opacity="0.62" stroke-linecap="round" stroke-linejoin="round"></path><path d="M249.7,83.2 L250.4,81.3" fill="none" stroke="#cf828d" stroke-width="1.5" stroke-dasharray="1.6 3.0" opacity="0.62" stroke-linecap="round" stroke-linejoin="round"></path><path d="M252.5,68.2 L251.6,64.1 L250.6,59.3" fill="none" stroke="#cf828d" stroke-width="1.5" stroke-dasharray="1.6 3.0" opacity="0.62" stroke-linecap="round" stroke-linejoin="round"></path><path d="M252.3,73.8 L252.9,70.4 L252.5,68.2" fill="none" stroke="#cf828d" stroke-width="1.5" stroke-dasharray="1.6 3.0" opacity="0.62" stroke-linecap="round" stroke-linejoin="round"></path><path d="M259.0,70.8 L252.9,70.4" fill="none" stroke="#cf828d" stroke-width="1.5" stroke-dasharray="1.6 3.0" opacity="0.62" stroke-linecap="round" stroke-linejoin="round"></path><path d="M250.6,59.3 L250.1,57.8" fill="none" stroke="#cf828d" stroke-width="1.5" stroke-dasharray="1.6 3.0" opacity="0.62" stroke-linecap="round" stroke-linejoin="round"></path><path d="M77.4,75.2 L83.0,72.2 L89.3,68.9" fill="none" stroke="#cf828d" stroke-width="1.5" stroke-dasharray="1.6 3.0" opacity="0.62" stroke-linecap="round" stroke-linejoin="round"></path><path d="M89.3,68.9 L94.0,66.1" fill="none" stroke="#cf828d" stroke-width="1.5" stroke-dasharray="1.6 3.0" opacity="0.62" stroke-linecap="round" stroke-linejoin="round"></path><path d="M103.1,75.7 L110.7,89.0 L117.3,100.5" fill="none" stroke="#cf828d" stroke-width="1.5" stroke-dasharray="1.6 3.0" opacity="0.62" stroke-linecap="round" stroke-linejoin="round"></path><path d="M103.1,75.7 L100.9,71.2" fill="none" stroke="#cf828d" stroke-width="1.5" stroke-dasharray="1.6 3.0" opacity="0.62" stroke-linecap="round" stroke-linejoin="round"></path><path d="M117.3,100.5 L121.2,103.3" fill="none" stroke="#cf828d" stroke-width="1.5" stroke-dasharray="1.6 3.0" opacity="0.62" stroke-linecap="round" stroke-linejoin="round"></path><path d="M77.4,75.2 L71.7,78.0" fill="none" stroke="#cf828d" stroke-width="1.5" stroke-dasharray="1.6 3.0" opacity="0.62" stroke-linecap="round" stroke-linejoin="round"></path><path d="M191.4,238.5 L200.7,253.1 L209.5,266.7" fill="none" stroke="#cf828d" stroke-width="1.5" stroke-dasharray="1.6 3.0" opacity="0.62" stroke-linecap="round" stroke-linejoin="round"></path><path d="M191.4,238.5 L191.4,235.3" fill="none" stroke="#cf828d" stroke-width="1.5" stroke-dasharray="1.6 3.0" opacity="0.62" stroke-linecap="round" stroke-linejoin="round"></path><path d="M166.6,236.8 L172.0,234.3 L179.4,230.9" fill="none" stroke="#cf828d" stroke-width="1.5" stroke-dasharray="1.6 3.0" opacity="0.62" stroke-linecap="round" stroke-linejoin="round"></path><path d="M179.4,230.9 L184.1,228.6" fill="none" stroke="#cf828d" stroke-width="1.5" stroke-dasharray="1.6 3.0" opacity="0.62" stroke-linecap="round" stroke-linejoin="round"></path><path d="M166.6,236.8 L159.7,240.1" fill="none" stroke="#cf828d" stroke-width="1.5" stroke-dasharray="1.6 3.0" opacity="0.62" stroke-linecap="round" stroke-linejoin="round"></path><path d="M13.7,355.0 L-21.3,299.6 L-42.2,265.5 L-57.2,248.1" fill="none" stroke="#cf828d" stroke-width="1.5" stroke-dasharray="1.6 3.0" opacity="0.62" stroke-linecap="round" stroke-linejoin="round"></path><path d="M-67.7,199.8 L-38.8,196.5 L-3.0,192.2 L10.9,190.5" fill="none" stroke="#cf828d" stroke-width="1.5" stroke-dasharray="1.6 3.0" opacity="0.62" stroke-linecap="round" stroke-linejoin="round"></path><path d="M10.9,190.5 L36.6,187.7 L68.7,184.1 L99.7,180.2" fill="none" stroke="#cf828d" stroke-width="1.5" stroke-dasharray="1.6 3.0" opacity="0.62" stroke-linecap="round" stroke-linejoin="round"></path><path d="M99.7,180.2 L131.4,176.4 L181.0,169.7 L218.3,165.1" fill="none" stroke="#cf828d" stroke-width="1.5" stroke-dasharray="1.6 3.0" opacity="0.62" stroke-linecap="round" stroke-linejoin="round"></path><path d="M100.1,213.0 L195.7,201.6 L222.2,198.6" fill="none" stroke="#cf828d" stroke-width="1.5" stroke-dasharray="1.6 3.0" opacity="0.62" stroke-linecap="round" stroke-linejoin="round"></path><path d="M-74.3,233.9 L15.4,223.3" fill="none" stroke="#cf828d" stroke-width="1.5" stroke-dasharray="1.6 3.0" opacity="0.62" stroke-linecap="round" stroke-linejoin="round"></path><path d="M15.4,223.3 L100.1,213.0" fill="none" stroke="#cf828d" stroke-width="1.5" stroke-dasharray="1.6 3.0" opacity="0.62" stroke-linecap="round" stroke-linejoin="round"></path><path d="M184.9,-50.9 L189.7,-47.1 L205.4,-44.4 L217.7,-44.9 L219.4,17.4" fill="none" stroke="#cec8bb" stroke-width="3.5" stroke-linecap="round" stroke-linejoin="round"/><path d="M184.9,-50.9 L189.7,-47.1 L205.4,-44.4 L217.7,-44.9 L219.4,17.4" fill="none" stroke="#ffffff" stroke-width="2.5" stroke-linecap="round" stroke-linejoin="round"></path><path d="M219.4,17.4 L219.9,25.9 L218.7,38.9 L221.0,57.4 L222.2,67.5" fill="none" stroke="#cec8bb" stroke-width="3.5" stroke-linecap="round" stroke-linejoin="round"/><path d="M219.4,17.4 L219.9,25.9 L218.7,38.9 L221.0,57.4 L222.2,67.5" fill="none" stroke="#ffffff" stroke-width="2.5" stroke-linecap="round" stroke-linejoin="round"></path><path d="M-48.4,278.9 L-41.6,290.5 L5.5,369.4" fill="none" stroke="#d1c4aa" stroke-width="5.4" stroke-linecap="round" stroke-linejoin="round"/><path d="M-48.4,278.9 L-41.6,290.5 L5.5,369.4" fill="none" stroke="#f4d99b" stroke-width="4.0" stroke-linecap="round" stroke-linejoin="round"><title>Southwest South River Drive</title></path><path d="M182.4,253.7 L203.2,286.4 L396.4,589.3" fill="none" stroke="#d1c4aa" stroke-width="5.4" stroke-linecap="round" stroke-linejoin="round"/><path d="M182.4,253.7 L203.2,286.4 L396.4,589.3" fill="none" stroke="#f4d99b" stroke-width="4.0" stroke-linecap="round" stroke-linejoin="round"><title>Southwest North River Drive</title></path><path d="M97.6,95.3 L83.0,72.2 L81.4,69.7 L63.0,43.0 L45.1,18.9 L9.0,-26.8 L-12.7,-55.0" fill="none" stroke="#d1c4aa" stroke-width="5.4" stroke-linecap="round" stroke-linejoin="round"/><path d="M97.6,95.3 L83.0,72.2 L81.4,69.7 L63.0,43.0 L45.1,18.9 L9.0,-26.8 L-12.7,-55.0" fill="none" stroke="#f4d99b" stroke-width="4.0" stroke-linecap="round" stroke-linejoin="round"><title>Northwest North River Drive</title></path><path d="M157.6,207.5 L172.0,234.3 L182.4,253.7" fill="none" stroke="#d1c4aa" stroke-width="6.4" stroke-linecap="round" stroke-linejoin="round"/><path d="M157.6,207.5 L172.0,234.3 L182.4,253.7" fill="none" stroke="#f1c77d" stroke-width="5.0" stroke-linecap="round" stroke-linejoin="round"><title>Northwest North River Drive</title></path><path d="M231.9,180.9 L226.3,181.6 L220.4,182.3" fill="none" stroke="#d1c4aa" stroke-width="6.4" stroke-linecap="round" stroke-linejoin="round"/><path d="M231.9,180.9 L226.3,181.6 L220.4,182.3" fill="none" stroke="#f1c77d" stroke-width="5.0" stroke-linecap="round" stroke-linejoin="round"><title>West Flagler Street</title></path><path d="M220.4,182.3 L216.9,182.8 L99.7,197.4" fill="none" stroke="#d1c4aa" stroke-width="6.4" stroke-linecap="round" stroke-linejoin="round"/><path d="M220.4,182.3 L216.9,182.8 L99.7,197.4" fill="none" stroke="#f1c77d" stroke-width="5.0" stroke-linecap="round" stroke-linejoin="round"><title>West Flagler Street</title></path><path d="M230.1,69.1 L222.2,67.5 L201.2,62.7 L192.2,61.3 L183.1,61.3 L172.4,62.7 L160.0,66.2 L146.6,71.7 L116.5,86.2 L110.7,89.0 L97.6,95.3" fill="none" stroke="#d1c4aa" stroke-width="6.4" stroke-linecap="round" stroke-linejoin="round"/><path d="M230.1,69.1 L222.2,67.5 L201.2,62.7 L192.2,61.3 L183.1,61.3 L172.4,62.7 L160.0,66.2 L146.6,71.7 L116.5,86.2 L110.7,89.0 L97.6,95.3" fill="none" stroke="#f1c77d" stroke-width="5.0" stroke-linecap="round" stroke-linejoin="round"><title>Northwest 1st Street</title></path><path d="M302.5,183.0 L276.9,185.5 L251.7,187.6 L231.9,180.9" fill="none" stroke="#d1c4aa" stroke-width="6.4" stroke-linecap="round" stroke-linejoin="round"/><path d="M302.5,183.0 L276.9,185.5 L251.7,187.6 L231.9,180.9" fill="none" stroke="#f1c77d" stroke-width="5.0" stroke-linecap="round" stroke-linejoin="round"><title>West Flagler Street</title></path><path d="M306.0,165.2 L299.1,167.2 L285.5,170.9 L263.6,175.8 L245.1,179.2 L231.9,180.9" fill="none" stroke="#d1c4aa" stroke-width="6.4" stroke-linecap="round" stroke-linejoin="round"/><path d="M306.0,165.2 L299.1,167.2 L285.5,170.9 L263.6,175.8 L245.1,179.2 L231.9,180.9" fill="none" stroke="#f1c77d" stroke-width="5.0" stroke-linecap="round" stroke-linejoin="round"><title>West Flagler Street</title></path><path d="M264.0,79.9 L263.3,119.8 L261.9,133.4 L259.5,142.8 L256.6,148.9 L255.3,150.8 L252.9,154.4 L244.9,161.8 L234.8,167.9 L220.4,182.3" fill="none" stroke="#d1c4aa" stroke-width="6.4" stroke-linecap="round" stroke-linejoin="round"/><path d="M264.0,79.9 L263.3,119.8 L261.9,133.4 L259.5,142.8 L256.6,148.9 L255.3,150.8 L252.9,154.4 L244.9,161.8 L234.8,167.9 L220.4,182.3" fill="none" stroke="#f1c77d" stroke-width="5.0" stroke-linecap="round" stroke-linejoin="round"><title>Northwest 3rd Court</title></path><path d="M264.0,79.9 L251.4,77.3 L244.7,75.9 L230.1,69.1" fill="none" stroke="#d1c4aa" stroke-width="6.4" stroke-linecap="round" stroke-linejoin="round"/><path d="M264.0,79.9 L251.4,77.3 L244.7,75.9 L230.1,69.1" fill="none" stroke="#f1c77d" stroke-width="5.0" stroke-linecap="round" stroke-linejoin="round"><title>Northwest 1st Street</title></path><path d="M264.6,49.0 L260.8,55.7 L256.4,60.6 L251.6,64.1 L245.2,66.8 L230.1,69.1" fill="none" stroke="#d1c4aa" stroke-width="5.4" stroke-linecap="round" stroke-linejoin="round"/><path d="M264.6,49.0 L260.8,55.7 L256.4,60.6 L251.6,64.1 L245.2,66.8 L230.1,69.1" fill="none" stroke="#f1c77d" stroke-width="4.0" stroke-linecap="round" stroke-linejoin="round"></path><path d="M15.1,207.5 L-185.9,228.7" fill="none" stroke="#d1c4aa" stroke-width="6.4" stroke-linecap="round" stroke-linejoin="round"/><path d="M15.1,207.5 L-185.9,228.7" fill="none" stroke="#f1c77d" stroke-width="5.0" stroke-linecap="round" stroke-linejoin="round"><title>West Flagler Street</title></path><path d="M99.7,197.4 L15.1,207.5" fill="none" stroke="#d1c4aa" stroke-width="6.4" stroke-linecap="round" stroke-linejoin="round"/><path d="M99.7,197.4 L15.1,207.5" fill="none" stroke="#f1c77d" stroke-width="5.0" stroke-linecap="round" stroke-linejoin="round"><title>West Flagler Street</title></path><path d="M309.7,249.5 L275.8,250.6 L208.7,252.8 L200.7,253.1 L182.4,253.7" fill="none" stroke="#d1c4aa" stroke-width="6.4" stroke-linecap="round" stroke-linejoin="round"/><path d="M309.7,249.5 L275.8,250.6 L208.7,252.8 L200.7,253.1 L182.4,253.7" fill="none" stroke="#f1c77d" stroke-width="5.0" stroke-linecap="round" stroke-linejoin="round"><title>West Flagler Street</title></path><path d="M97.6,95.3 L139.1,172.9" fill="none" stroke="#d1c4aa" stroke-width="6.4" stroke-linecap="round" stroke-linejoin="round"/><path d="M97.6,95.3 L139.1,172.9" fill="none" stroke="#f1c77d" stroke-width="5.0" stroke-linecap="round" stroke-linejoin="round"><title>Northwest North River Drive</title></path><path d="M139.1,172.9 L157.6,207.5" fill="none" stroke="#d1c4aa" stroke-width="6.4" stroke-linecap="round" stroke-linejoin="round"/><path d="M139.1,172.9 L157.6,207.5" fill="none" stroke="#f1c77d" stroke-width="5.0" stroke-linecap="round" stroke-linejoin="round"><title>Northwest North River Drive</title></path><g transform="translate(158.3 190.1) rotate(172.9)"><path d="M -3.6 -3.2 L 4.4 0 L -3.6 3.2 Z" fill="#58656d" opacity="0.46"/></g><g transform="translate(57.4 202.4) rotate(173.2)"><path d="M -3.6 -3.2 L 4.4 0 L -3.6 3.2 Z" fill="#58656d" opacity="0.46"/></g><g><rect x="137.8" y="183.1" width="41.0" height="14.0" rx="3" fill="#ffffff" stroke="#8a8f96" stroke-width="1"/><text x="158.3" y="190.5" text-anchor="middle" dominant-baseline="central" font-family="Arial, sans-serif" font-size="8" font-weight="700" fill="#56616a">SR 968</text></g><g><rect x="38.3" y="195.3" width="41.0" height="14.0" rx="3" fill="#ffffff" stroke="#8a8f96" stroke-width="1"/><text x="58.8" y="202.7" text-anchor="middle" dominant-baseline="central" font-family="Arial, sans-serif" font-size="8" font-weight="700" fill="#56616a">SR 968</text></g><text x="78.3" y="126.7" text-anchor="middle" font-family="Arial, sans-serif" font-size="6.5" textLength="18.0" lengthAdjust="spacing" font-weight="500" paint-order="stroke" stroke="#f3f5ee" stroke-width="1.55" stroke-linejoin="round" fill="#6f777a">28</text><text x="176.4" y="116.1" text-anchor="middle" font-family="Arial, sans-serif" font-size="6.5" textLength="18.0" lengthAdjust="spacing" font-weight="500" paint-order="stroke" stroke="#f3f5ee" stroke-width="1.55" stroke-linejoin="round" fill="#6f777a">25</text><text x="27.5" y="40.8" text-anchor="middle" font-family="Arial, sans-serif" font-size="6.5" textLength="18.0" lengthAdjust="spacing" font-weight="500" paint-order="stroke" stroke="#f3f5ee" stroke-width="1.55" stroke-linejoin="round" fill="#6f777a">90</text><g><title>Northwest North River Drive @ West Flagler Street3</title><rect x="153.8" y="223.8" width="6.9" height="6.1" rx="1.3" fill="#2796c9" stroke="#ffffff" stroke-width="1.05"/><rect x="155.1" y="225.0" width="4.4" height="2.1" rx="0.35" fill="#ffffff"/><circle cx="155.4" cy="228.7" r="0.5" fill="#ffffff"/><circle cx="159.1" cy="228.7" r="0.5" fill="#ffffff"/></g><g><title>signal</title><rect x="214.2" y="177.6" width="5.4" height="10.4" rx="2.1" fill="#3f4b52" stroke="#ffffff" stroke-width="1.1"/><circle cx="216.9" cy="180.0" r="1.1" fill="#d85a4f"/><circle cx="216.9" cy="182.8" r="1.1" fill="#e2b84b"/><circle cx="216.9" cy="185.6" r="1.1" fill="#55a86b"/></g><g opacity="0.56"><title>crossing</title><path d="M80.7,70.4 L85.3,70.4 M80.7,72.2 L85.3,72.2 M80.7,74.0 L85.3,74.0" stroke="#ffffff" stroke-width="2.1" stroke-linecap="round"/><path d="M80.7,70.4 L85.3,70.4 M80.7,72.2 L85.3,72.2 M80.7,74.0 L85.3,74.0" stroke="#59656a" stroke-width="0.85" stroke-linecap="round"/></g><g opacity="0.56"><title>crossing</title><path d="M108.5,87.2 L113.0,87.2 M108.5,89.0 L113.0,89.0 M108.5,90.8 L113.0,90.8" stroke="#ffffff" stroke-width="2.1" stroke-linecap="round"/><path d="M108.5,87.2 L113.0,87.2 M108.5,89.0 L113.0,89.0 M108.5,90.8 L113.0,90.8" stroke="#59656a" stroke-width="0.85" stroke-linecap="round"/></g><g opacity="0.56"><title>crossing</title><path d="M169.7,232.5 L174.3,232.5 M169.7,234.3 L174.3,234.3 M169.7,236.1 L174.3,236.1" stroke="#ffffff" stroke-width="2.1" stroke-linecap="round"/><path d="M169.7,232.5 L174.3,232.5 M169.7,234.3 L174.3,234.3 M169.7,236.1 L174.3,236.1" stroke="#59656a" stroke-width="0.85" stroke-linecap="round"/></g></svg>