<svg xmlns="http://www.w3.org/2000/svg" width="256" height="256" viewBox="0 0 256 256"><defs><pattern id="park-dots" width="22" height="22" patternUnits="userSpaceOnUse"><circle cx="5" cy="5" r="2.1" fill="#63a95d" fill-opacity="0.26"/><circle cx="16" cy="7" r="1.55" fill="#76b970" fill-opacity="0.23"/><circle cx="10" cy="17" r="1.9" fill="#61a65b" fill-opacity="0.24"/><circle cx="21" cy="17" r="1.25" fill="#80c174" fill-opacity="0.18"/><circle cx="1" cy="19" r="1.2" fill="#70b46a" fill-opacity="0.17"/></pattern><pattern id="park-canopy" width="54" height="48" patternUnits="userSpaceOnUse"><circle cx="12" cy="11" r="3.6" fill="#5ea75a" fill-opacity="0.22"/><circle cx="31" cy="15" r="2.9" fill="#75ba6d" fill-opacity="0.18"/><circle cx="45" cy="31" r="3.3" fill="#67ae62" fill-opacity="0.20"/><circle cx="19" cy="39" r="2.5" fill="#83c378" fill-opacity="0.16"/></pattern></defs><rect width="256" height="256" fill="#f1efe7"/><path d="M-778.7,3282.3 L-563.9,3193.0 L-496.7,3160.7 L-196.2,3016.4 L-139.8,3071.0 L-134.9,3075.7 L-29.5,2985.5 L-4.4,2966.4 L37.5,2928.6 L273.6,2711.8 L464.1,2494.2 L471.4,2480.3 L478.4,2472.4 L489.5,2459.7 L500.8,2446.8 L505.4,2441.5 L430.3,2344.4 L529.7,2284.8 L583.6,2356.5 L659.8,2269.3 L595.3,2183.9 L675.2,2100.6 L736.7,2181.6 L807.3,2101.2 L837.4,2081.5 L984.6,1986.0 L1057.3,1937.7 L1144.9,1880.1 L1186.3,1852.9 L1291.2,1785.2 L1264.2,1749.7 L1215.9,1685.0 L1340.8,1605.6 L1386.3,1582.1 L1389.8,1579.6 L1413.8,1561.1 L1499.4,1515.3 L1505.3,1506.1 L1529.3,1489.6 L1542.3,1470.6 L1546.0,1467.8 L1566.9,1459.7 L1614.1,1442.8 L1646.4,1428.6 L1760.5,1375.0 L1761.9,1378.7 L1857.6,1337.8 L1896.7,1387.9 L1983.8,1329.8 L1996.2,1321.3 L1997.4,1320.3 L1998.6,1318.7 L2000.5,1315.4 L2001.5,1312.3 L2002.1,1308.6 L2002.0,1305.6 L2001.6,1302.7 L2001.2,1299.4 L2001.1,1296.9 L2001.3,1294.8 L2001.7,1292.6 L2003.3,1288.6 L2004.4,1286.4 L2006.9,1282.6 L2009.5,1279.8 L2022.2,1274.7 L2032.8,1270.7 L2046.3,1266.3 L2052.6,1264.6 L2063.8,1260.9 L2071.7,1258.1 L2082.6,1253.6 L2097.4,1247.1 L2113.4,1239.6 L2122.0,1235.4 L2132.8,1229.9 L2142.9,1224.3 L2153.0,1218.3 L2163.3,1211.6 L2166.5,1209.4 L2187.2,1193.6 L2204.6,1180.2 L2221.6,1165.8 L2237.5,1150.8 L2249.0,1137.9 L2260.4,1124.0 L2274.4,1106.0 L2287.2,1088.0 L2301.9,1064.9 L2311.5,1047.0 L2317.5,1035.6 L2326.4,1016.3 L2333.9,998.4 L2340.6,979.1 L2346.0,962.2 L2351.9,934.8 L2356.2,910.3 L2358.5,889.3 L2360.5,864.5 L2360.7,838.0 L2359.1,813.5 L2354.9,781.5 L2350.5,759.7 L2345.5,739.1 L2338.1,715.7 L2331.8,697.8 L2324.6,678.3 L2317.8,662.1 L2313.2,651.6 L2311.3,643.9 L2311.0,638.0 L2311.6,632.7 L2313.7,628.1 L2316.9,624.2 L2321.1,622.0 L2325.6,621.4 L2337.7,624.3 L2371.4,632.4 L2382.6,377.7 L2426.3,-76.9 L2378.8,-88.1 L2373.6,-102.4 L2373.8,-122.9 L2380.4,-169.4 L2389.4,-179.9 L2397.4,-210.1 L2447.9,-198.4 L2475.7,-488.9 L2483.4,-569.3 L2467.7,-573.2 L2477.2,-611.6 L2444.9,-619.3 L2449.0,-642.8 L2454.7,-658.3 L2461.8,-676.4 L2473.8,-701.7 L2486.7,-698.8 L2504.1,-881.5 L2508.2,-992.3 L2509.0,-1012.7 L2518.4,-1083.2 L2537.1,-1258.9 L2661.9,-1584.3 L2690.4,-1673.0 L3037.1,-1806.0 L3071.0,-1819.6 L3076.9,-1822.8 L3081.5,-1827.0 L3086.6,-1832.9 L3090.5,-1839.8 L3093.1,-1846.6 L3093.7,-1856.5 L3093.2,-1868.8 L3088.6,-2024.3 L3086.9,-2054.4 L3086.4,-2075.1 L3085.7,-2115.3 L3084.9,-2127.9 L3083.4,-2138.5 L3081.3,-2147.9 L3078.2,-2157.5 L3073.3,-2168.8 L3066.1,-2180.9 L3059.1,-2190.5 L3053.7,-2199.6 L3048.2,-2211.7 L3043.6,-2223.3 L3041.8,-2232.8 L3040.4,-2243.3 L3039.7,-2253.8 L3040.0,-2264.0 L3041.2,-2275.9 L3044.0,-2287.6 L3047.7,-2298.0 L3051.6,-2307.5 L3056.6,-2316.7 L3062.7,-2327.9 L3066.7,-2338.0 L3070.2,-2350.9 L3076.6,-2360.7 L3074.4,-2449.9 L3071.1,-2455.1 L3070.1,-2515.7 L3068.4,-2587.2 L3069.6,-2597.1 L3072.8,-2607.2 L3080.8,-2623.0 L3134.3,-2738.1 L3135.4,-2740.0 L3144.8,-2760.5 L3153.7,-2779.9 L3163.7,-2799.9 L3173.5,-2820.5 L3178.3,-2830.5 L3230.9,-2938.4 L3287.1,-3057.6 L3408.7,-3304.4 L3335.6,-3386.3 L3276.0,-3259.3 L3224.5,-3149.4 L3216.7,-3133.8 L3200.8,-3101.3 L3169.0,-3104.0 L3160.3,-3104.5 L3157.2,-3101.7 L3161.4,-3097.9 L3145.1,-3083.4 L3132.2,-3071.5 L3129.8,-3020.6 L3125.0,-3010.4 L3109.4,-3011.0 L3106.8,-3011.9 L2902.4,-3096.3 L2898.0,-3098.6 L2893.3,-3101.6 L2885.9,-3107.2 L2880.2,-3112.6 L2875.4,-3117.8 L2870.7,-3124.2 L2867.1,-3129.8 L2864.3,-3135.6 L2862.1,-3141.7 L2860.6,-3145.9 L2859.5,-3151.0 L2858.7,-3157.0 L2857.9,-3165.2 L2857.9,-3176.9 L2856.5,-3216.6 L2862.1,-3216.9 L2861.3,-3237.9 L2860.4,-3272.5 L2865.6,-3272.6 L2865.2,-3296.2 L2859.3,-3296.1 L2856.6,-3395.5 L2862.2,-3395.8 L2861.3,-3419.1 L2855.9,-3418.9 L2853.6,-3492.4 L2880.6,-3521.5 L2915.1,-3522.7 L2940.8,-3523.6 L2974.7,-3524.7 L3007.3,-3525.7 L3036.5,-3526.7 L3049.2,-3527.3 L3048.6,-3538.6 L3048.4,-3550.4 L3046.5,-3588.7 L3045.8,-3661.8 L3044.8,-3663.1 L3044.6,-3670.3 L3046.7,-3670.4 L3041.6,-3846.5 L3037.2,-4012.2 L3036.5,-4017.4 L3036.1,-4027.0 L2963.9,-4024.4 L2915.9,-4028.5 L2556.6,-4016.0 L2556.5,-4019.2 L2555.8,-4034.5 L2385.4,-4028.5 L2385.1,-4056.8 L2362.6,-4061.9 L2358.6,-4183.0 L3021.4,-4206.0 L3032.4,-4221.1 L3032.0,-4264.1 L3031.2,-4301.3 L3030.6,-4324.6 L3029.7,-4347.3 L2977.0,-4372.1 L2974.9,-4427.2 L3028.9,-4454.0 L3024.0,-4581.5 L3022.6,-4587.8 L2968.9,-4612.9 L2967.2,-4681.1 L3018.2,-4707.4 L2995.5,-4984.3 L3001.5,-5107.5 L3004.5,-5308.4 L3004.3,-5526.9 L3009.1,-5557.5 L3009.4,-5572.3 L3004.6,-5590.1 L3009.6,-5590.1 L3009.6,-5606.2 L3012.6,-6017.2 L3012.1,-6035.5 L3006.4,-6035.5 L3006.6,-6111.1 L3003.3,-6115.8 L2998.1,-6193.8 L3008.4,-6265.1 L3007.1,-6351.4 L3003.6,-6372.1 L3008.9,-6436.0 L3005.3,-6513.3 L2996.3,-6596.0 L2979.2,-6730.0 L2987.3,-6766.9 L2983.7,-6802.8 L2953.1,-6828.9 L2908.2,-6828.5 L2839.8,-6819.5 L2795.3,-6819.5 L2754.9,-6834.3 L2701.8,-6870.7 L2701.8,-6936.0 L2700.4,-7016.3 L2705.6,-7083.2 L2723.2,-7135.4 L3017.9,-7140.9 L3024.7,-7558.8 L3024.7,-8160.4 L3021.6,-8378.7 L18933.8,-14950.4 L18933.8,21267.8 L-778.7,21267.8 L-778.7,3282.3 Z" fill="#add7e1" stroke="none"><title>Biscayne Bay</title></path><path d="M-3.7,-87.1 L155.0,-91.4 L160.5,19.8 L-3.7,-87.1 Z" fill="#d5f2cb" stroke="#9fcf91" stroke-width="0.4"><title>Triangle Park</title></path><path d="M-3.7,-87.1 L155.0,-91.4 L160.5,19.8 L-3.7,-87.1 Z" fill="url(#park-dots)" stroke="none"/><path d="M-3.7,-87.1 L155.0,-91.4 L160.5,19.8 L-3.7,-87.1 Z" fill="url(#park-canopy)" stroke="none"/><path d="M174.1,210.3 L136.4,239.3 L151.2,258.5 L165.5,247.5 L161.6,242.6 L185.1,224.5 L174.1,210.3 Z" fill="#d6d2c9" stroke="#bab6ad" stroke-width="0.4"></path><path d="M210.8,255.8 L178.6,279.5 L190.9,296.2 L223.1,272.5 L210.8,255.8 Z" fill="#d6d2c9" stroke="#bab6ad" stroke-width="0.4"></path><path d="M273.7,68.8 L249.8,69.3 L248.9,26.2 L272.9,25.7 L273.7,68.8 Z" fill="#d6d2c9" stroke="#bab6ad" stroke-width="0.4"></path><path d="M248.0,154.1 L235.1,174.8 L215.0,162.1 L218.4,156.7 L207.6,149.9 L217.2,134.6 L248.0,154.1 Z" fill="#d6d2c9" stroke="#bab6ad" stroke-width="0.4"></path><path d="M148.6,224.3 L133.4,235.9 L119.1,216.9 L155.4,189.3 L165.9,203.4 L144.8,219.4 L148.6,224.3 Z" fill="#d6d2c9" stroke="#bab6ad" stroke-width="0.4"></path><path d="M135.4,169.0 L138.8,174.1 L143.1,171.2 L149.4,180.6 L145.6,183.1 L148.6,187.7 L136.7,195.7 L132.1,188.8 L128.4,191.2 L124.8,185.9 L127.3,184.2 L122.8,177.5 L135.4,169.0 Z" fill="#d6d2c9" stroke="#bab6ad" stroke-width="0.4"></path><path d="M136.5,162.7 L97.3,192.3 L83.3,173.5 L98.8,161.7 L102.8,167.0 L126.4,149.2 L136.5,162.7 Z" fill="#d6d2c9" stroke="#bab6ad" stroke-width="0.4"></path><path d="M267.0,168.6 L304.0,193.3 L303.6,208.9 L273.7,231.6 L260.4,214.7 L282.4,198.6 L264.3,187.9 L248.9,201.7 L240.3,187.4 L267.0,168.6 Z" fill="#d6d2c9" stroke="#bab6ad" stroke-width="0.4"></path><path d="M2.1,60.8 L-9.0,68.9 L-19.9,54.3 L-5.7,43.9 L0.6,52.6 L-2.3,54.7 L2.1,60.8 Z" fill="#d6d2c9" stroke="#bab6ad" stroke-width="0.4"></path><path d="M54.7,50.8 L52.1,52.8 L57.6,59.9 L39.9,73.8 L36.7,77.3 L26.0,70.7 L22.9,66.6 L24.2,65.7 L19.1,59.1 L30.1,50.5 L31.0,51.7 L46.2,39.8 L54.7,50.8 Z" fill="#d6d2c9" stroke="#bab6ad" stroke-width="0.4"></path><path d="M95.2,232.6 L56.9,261.1 L52.7,255.4 L48.3,258.6 L39.1,246.1 L81.7,214.3 L95.2,232.6 Z" fill="#d6d2c9" stroke="#bab6ad" stroke-width="0.4"></path><path d="M90.2,246.7 L101.5,261.9 L73.6,282.9 L58.5,262.6 L70.4,253.6 L74.2,258.7 L90.2,246.7 Z" fill="#d6d2c9" stroke="#bab6ad" stroke-width="0.4"></path><path d="M10.8,96.2 L5.3,100.7 L0.6,94.8 L6.1,90.3 L10.8,96.2 Z" fill="#d6d2c9" stroke="#bab6ad" stroke-width="0.4"></path><path d="M28.3,116.3 L17.1,124.7 L8.4,112.8 L19.5,104.5 L28.3,116.3 Z" fill="#d6d2c9" stroke="#bab6ad" stroke-width="0.4"></path><path d="M82.4,75.4 L69.7,85.1 L68.1,82.9 L63.4,86.4 L54.3,74.4 L57.6,71.9 L56.8,70.8 L58.5,69.5 L57.4,68.0 L77.4,52.8 L84.1,61.6 L82.5,62.8 L87.8,69.9 L81.7,74.5 L82.4,75.4 Z" fill="#d6d2c9" stroke="#bab6ad" stroke-width="0.4"></path><path d="M14.5,23.0 L-26.2,54.3 L-36.7,43.2 L-34.9,41.9 L-40.8,33.8 L2.7,0.8 L7.5,7.5 L4.8,9.5 L14.5,23.0 Z" fill="#d6d2c9" stroke="#bab6ad" stroke-width="0.4"></path><path d="M-22.7,93.8 L-15.5,103.7 L-6.0,96.7 L0.7,105.9 L-36.1,132.9 L-41.0,126.0 L-41.9,126.7 L-46.8,120.0 L-43.8,117.8 L-47.8,112.2 L-22.7,93.8 Z" fill="#d6d2c9" stroke="#bab6ad" stroke-width="0.4"></path><path d="M129.7,258.7 L117.0,268.0 L111.0,259.8 L123.7,250.5 L129.7,258.7 Z" fill="#d6d2c9" stroke="#bab6ad" stroke-width="0.4"></path><path d="M206.1,250.5 L179.4,271.3 L173.9,264.2 L166.4,270.0 L160.7,262.7 L168.3,256.8 L166.2,254.0 L192.8,233.3 L206.1,250.5 Z" fill="#d6d2c9" stroke="#bab6ad" stroke-width="0.4"></path><path d="M-5.8,143.5 L-20.7,154.7 L-31.4,140.4 L-10.7,124.8 L-13.2,121.5 L-5.4,115.7 L3.4,127.5 L-2.8,132.1 L-1.8,133.4 L-2.4,137.6 L-7.4,141.3 L-5.8,143.5 Z" fill="#d6d2c9" stroke="#bab6ad" stroke-width="0.4"></path><path d="M41.7,204.8 L46.7,211.4 L48.5,210.0 L52.0,214.5 L55.2,212.1 L60.0,218.4 L42.6,231.9 L40.6,229.3 L37.1,232.0 L28.7,221.0 L32.5,218.1 L29.5,214.2 L41.7,204.8 Z" fill="#d6d2c9" stroke="#bab6ad" stroke-width="0.4"></path><path d="M42.7,172.8 L49.1,181.1 L51.9,179.0 L57.8,186.7 L22.1,214.4 L9.7,198.3 L42.7,172.8 Z" fill="#d6d2c9" stroke="#bab6ad" stroke-width="0.4"></path><path d="M23.2,32.0 L10.6,40.7 L7.6,36.2 L20.1,27.6 L23.2,32.0 Z" fill="#d6d2c9" stroke="#bab6ad" stroke-width="0.4"></path><path d="M272.6,313.9 L130.8,127.2 L123.5,118.2 L120.6,115.6 L118.0,114.1 L115.4,113.5 L114.3,113.3 L111.5,113.3 L108.4,113.6 L105.9,114.5 L103.1,116.3 L-8.2,201.9 L125.4,379.0" fill="none" stroke="#cf828d" stroke-width="1.5" stroke-dasharray="1.6 3.0" opacity="0.62" stroke-linecap="round" stroke-linejoin="round"></path><path d="M404.3,182.1 L264.1,89.7 L196.9,46.2 L189.2,41.2 L187.7,39.4 L187.0,35.9 L183.3,-83.7" fill="none" stroke="#cf828d" stroke-width="1.5" stroke-dasharray="1.6 3.0" opacity="0.62" stroke-linecap="round" stroke-linejoin="round"></path><path d="M368.3,217.7 L215.3,122.7 L165.8,90.0 L159.7,85.9 L155.6,82.7 L152.4,81.9 L148.6,82.1 L146.2,83.2 L145.2,84.6 L144.1,86.0 L144.8,90.4 L199.6,156.0 L299.5,288.0 L304.0,294.1" fill="none" stroke="#cf828d" stroke-width="1.5" stroke-dasharray="1.6 3.0" opacity="0.62" stroke-linecap="round" stroke-linejoin="round"></path><path d="M304.5,300.8 L302.4,305.7" fill="none" stroke="#cf828d" stroke-width="1.5" stroke-dasharray="1.6 3.0" opacity="0.62" stroke-linecap="round" stroke-linejoin="round"></path><path d="M180.1,73.2 L175.9,79.6 L171.7,85.8" fill="none" stroke="#cf828d" stroke-width="1.5" stroke-dasharray="1.6 3.0" opacity="0.62" stroke-linecap="round" stroke-linejoin="round"></path><path d="M115.2,65.9 L131.9,75.9 L139.5,80.5" fill="none" stroke="#cf828d" stroke-width="1.5" stroke-dasharray="1.6 3.0" opacity="0.62" stroke-linecap="round" stroke-linejoin="round"></path><path d="M171.7,85.8 L165.8,90.0" fill="none" stroke="#cf828d" stroke-width="1.5" stroke-dasharray="1.6 3.0" opacity="0.62" stroke-linecap="round" stroke-linejoin="round"></path><path d="M180.1,73.2 L187.2,61.4" fill="none" stroke="#cf828d" stroke-width="1.5" stroke-dasharray="1.6 3.0" opacity="0.62" stroke-linecap="round" stroke-linejoin="round"></path><path d="M187.2,61.4 L189.7,57.6 L192.7,52.9" fill="none" stroke="#cf828d" stroke-width="1.5" stroke-dasharray="1.6 3.0" opacity="0.62" stroke-linecap="round" stroke-linejoin="round"></path><path d="M192.7,52.9 L196.9,46.2" fill="none" stroke="#cf828d" stroke-width="1.5" stroke-dasharray="1.6 3.0" opacity="0.62" stroke-linecap="round" stroke-linejoin="round"></path><path d="M161.4,24.9 L172.1,32.5 L182.2,39.6" fill="none" stroke="#cf828d" stroke-width="1.5" stroke-dasharray="1.6 3.0" opacity="0.62" stroke-linecap="round" stroke-linejoin="round"></path><path d="M182.2,39.6 L184.7,41.0 L187.7,39.4" fill="none" stroke="#cf828d" stroke-width="1.5" stroke-dasharray="1.6 3.0" opacity="0.62" stroke-linecap="round" stroke-linejoin="round"></path><path d="M131.6,3.2 L160.2,21.5 L161.8,22.5 L161.3,5.2 L157.2,-90.2" fill="none" stroke="#cf828d" stroke-width="1.5" stroke-dasharray="1.6 3.0" opacity="0.62" stroke-linecap="round" stroke-linejoin="round"></path><path d="M16.5,-71.0 L131.6,3.2" fill="none" stroke="#cf828d" stroke-width="1.5" stroke-dasharray="1.6 3.0" opacity="0.62" stroke-linecap="round" stroke-linejoin="round"></path><path d="M160.2,21.5 L161.4,24.9" fill="none" stroke="#cf828d" stroke-width="1.5" stroke-dasharray="1.6 3.0" opacity="0.62" stroke-linecap="round" stroke-linejoin="round"></path><path d="M129.7,445.7 L-37.7,224.3 L-161.0,318.9" fill="none" stroke="#cf828d" stroke-width="1.5" stroke-dasharray="1.6 3.0" opacity="0.62" stroke-linecap="round" stroke-linejoin="round"></path><path d="M139.5,80.5 L145.2,84.6" fill="none" stroke="#cf828d" stroke-width="1.5" stroke-dasharray="1.6 3.0" opacity="0.62" stroke-linecap="round" stroke-linejoin="round"></path><path d="M-56.3,-53.2 L74.0,31.1 L101.6,50.0 L104.6,53.3 L105.3,55.9 L105.6,60.2 L105.3,61.9 L104.7,65.2 L102.3,70.0 L98.9,74.1 L22.9,131.7 L-30.3,172.5 L-153.1,9.8" fill="none" stroke="#cf828d" stroke-width="1.5" stroke-dasharray="1.6 3.0" opacity="0.62" stroke-linecap="round" stroke-linejoin="round"></path><path d="M115.2,65.9 L105.3,61.9" fill="none" stroke="#cf828d" stroke-width="1.5" stroke-dasharray="1.6 3.0" opacity="0.62" stroke-linecap="round" stroke-linejoin="round"></path><path d="M115.4,113.5 L116.1,102.4" fill="none" stroke="#cf828d" stroke-width="1.5" stroke-dasharray="1.6 3.0" opacity="0.62" stroke-linecap="round" stroke-linejoin="round"></path><path d="M116.1,102.4 L127.3,91.9 L139.5,80.5" fill="none" stroke="#cf828d" stroke-width="1.5" stroke-dasharray="1.6 3.0" opacity="0.62" stroke-linecap="round" stroke-linejoin="round"></path><path d="M280.1,89.6 L264.1,89.7 L238.8,89.7" fill="none" stroke="#cec8bb" stroke-width="3.5" stroke-linecap="round" stroke-linejoin="round"/><path d="M280.1,89.6 L264.1,89.7 L238.8,89.7" fill="none" stroke="#ffffff" stroke-width="2.5" stroke-linecap="round" stroke-linejoin="round"><title>Southwest 12th Street</title></path><path d="M288.3,311.0 L130.3,96.1 L127.3,91.9 L121.4,83.8" fill="none" stroke="#cec8bb" stroke-width="4.8" stroke-linecap="round" stroke-linejoin="round"/><path d="M288.3,311.0 L130.3,96.1 L127.3,91.9 L121.4,83.8" fill="none" stroke="#ffffff" stroke-width="3.7" stroke-linecap="round" stroke-linejoin="round"><title>Southwest 17th Road</title></path><path d="M110.6,389.8 L-21.1,215.3 L-25.0,210.2 L-30.0,203.7 L-37.8,193.4 L-43.1,186.4 L-46.5,182.0 L-201.0,-22.3" fill="none" stroke="#cec8bb" stroke-width="4.8" stroke-linecap="round" stroke-linejoin="round"/><path d="M110.6,389.8 L-21.1,215.3 L-25.0,210.2 L-30.0,203.7 L-37.8,193.4 L-43.1,186.4 L-46.5,182.0 L-201.0,-22.3" fill="none" stroke="#ffffff" stroke-width="3.7" stroke-linecap="round" stroke-linejoin="round"><title>Southwest 18th Road</title></path><path d="M170.1,-95.2 L174.1,28.0 L172.1,32.5 L167.5,43.1" fill="none" stroke="#cec8bb" stroke-width="4.8" stroke-linecap="round" stroke-linejoin="round"/><path d="M170.1,-95.2 L174.1,28.0 L172.1,32.5 L167.5,43.1" fill="none" stroke="#ffffff" stroke-width="3.7" stroke-linecap="round" stroke-linejoin="round"><title>Southwest 4th Avenue</title></path><path d="M106.2,94.2 L89.0,97.3 L-37.8,193.4 L-191.1,311.3" fill="none" stroke="#cec8bb" stroke-width="4.8" stroke-linecap="round" stroke-linejoin="round"/><path d="M106.2,94.2 L89.0,97.3 L-37.8,193.4 L-191.1,311.3" fill="none" stroke="#ffffff" stroke-width="3.7" stroke-linecap="round" stroke-linejoin="round"><title>Southwest 4th Avenue</title></path><path d="M-183.3,321.5 L-30.0,203.7 L98.2,106.9 L106.2,94.2" fill="none" stroke="#cec8bb" stroke-width="4.8" stroke-linecap="round" stroke-linejoin="round"/><path d="M-183.3,321.5 L-30.0,203.7 L98.2,106.9 L106.2,94.2" fill="none" stroke="#ffffff" stroke-width="3.7" stroke-linecap="round" stroke-linejoin="round"><title>Southwest 4th Avenue</title></path><path d="M106.2,94.2 L121.4,83.8 L126.7,79.8 L131.9,75.9 L150.5,63.0 L167.5,43.1" fill="none" stroke="#cec8bb" stroke-width="4.8" stroke-linecap="round" stroke-linejoin="round"/><path d="M106.2,94.2 L121.4,83.8 L126.7,79.8 L131.9,75.9 L150.5,63.0 L167.5,43.1" fill="none" stroke="#ffffff" stroke-width="3.7" stroke-linecap="round" stroke-linejoin="round"><title>Southwest 4th Avenue</title></path><path d="M238.8,89.7 L189.7,57.6 L167.5,43.1 L-22.5,-80.7" fill="none" stroke="#d1c4aa" stroke-width="5.4" stroke-linecap="round" stroke-linejoin="round"/><path d="M238.8,89.7 L189.7,57.6 L167.5,43.1 L-22.5,-80.7" fill="none" stroke="#f4d99b" stroke-width="4.0" stroke-linecap="round" stroke-linejoin="round"><title>Southwest 15th Road</title></path><path d="M-60.5,-73.9 L140.2,56.5 L150.5,63.0 L175.9,79.6 L224.5,111.4 L257.2,133.4 L287.1,152.4 L311.0,167.7" fill="none" stroke="#d1c4aa" stroke-width="5.4" stroke-linecap="round" stroke-linejoin="round"/><path d="M-60.5,-73.9 L140.2,56.5 L150.5,63.0 L175.9,79.6 L224.5,111.4 L257.2,133.4 L287.1,152.4 L311.0,167.7" fill="none" stroke="#f4d99b" stroke-width="4.0" stroke-linecap="round" stroke-linejoin="round"><title>Southwest 15th Road</title></path><path d="M224.5,111.4 L238.8,89.7" fill="none" stroke="#f4d99b" stroke-width="3.5" stroke-linecap="round" stroke-linejoin="round"></path><path d="M311.9,138.4 L238.8,89.7" fill="none" stroke="#d1c4aa" stroke-width="5.4" stroke-linecap="round" stroke-linejoin="round"/><path d="M311.9,138.4 L238.8,89.7" fill="none" stroke="#f4d99b" stroke-width="4.0" stroke-linecap="round" stroke-linejoin="round"><title>Southwest 15th Road</title></path><g transform="translate(107.5 35.3) rotate(33.0)"><path d="M -3.6 -3.2 L 4.4 0 L -3.6 3.2 Z" fill="#58656d" opacity="0.46"/></g><g transform="translate(51.5 125.7) rotate(142.8)"><path d="M -3.6 -3.2 L 4.4 0 L -3.6 3.2 Z" fill="#58656d" opacity="0.46"/></g><g transform="translate(56.1 138.7) rotate(-37.1)"><path d="M -3.6 -3.2 L 4.4 0 L -3.6 3.2 Z" fill="#58656d" opacity="0.46"/></g><text x="183.2" y="168.1" transform="rotate(53.7 183.2 168.1)" text-anchor="middle" dominant-baseline="central" font-family="Arial, sans-serif" font-size="8.3" textLength="100.9" lengthAdjust="spacing" font-weight="650" paint-order="stroke" stroke="#fffaf0" stroke-width="2.05" stroke-linejoin="round" fill="#695f54">Southwest 17th Road</text><text x="57.1" y="137.9" transform="rotate(-37.1 57.1 137.9)" text-anchor="middle" dominant-baseline="central" font-family="Arial, sans-serif" font-size="8.3" textLength="106.2" lengthAdjust="spacing" font-weight="650" paint-order="stroke" stroke="#fffaf0" stroke-width="2.05" stroke-linejoin="round" fill="#695f54">Southwest 4th Avenue</text><text x="136.1" y="182.4" text-anchor="middle" font-family="Arial, sans-serif" font-size="6.5" textLength="18.0" lengthAdjust="spacing" font-weight="500" paint-order="stroke" stroke="#f3f5ee" stroke-width="1.55" stroke-linejoin="round" fill="#6f777a">362</text><text x="36.7" y="59.9" text-anchor="middle" font-family="Arial, sans-serif" font-size="6.5" textLength="18.0" lengthAdjust="spacing" font-weight="500" paint-order="stroke" stroke="#f3f5ee" stroke-width="1.55" stroke-linejoin="round" fill="#6f777a">416</text><text x="62.3" y="244.7" text-anchor="middle" font-family="Arial, sans-serif" font-size="6.5" textLength="18.0" lengthAdjust="spacing" font-weight="500" paint-order="stroke" stroke="#f3f5ee" stroke-width="1.55" stroke-linejoin="round" fill="#6f777a">357</text><text x="70.1" y="71.9" text-anchor="middle" font-family="Arial, sans-serif" font-size="6.5" textLength="18.0" lengthAdjust="spacing" font-weight="500" paint-order="stroke" stroke="#f3f5ee" stroke-width="1.55" stroke-linejoin="round" fill="#6f777a">1500</text><text x="42.9" y="218.1" text-anchor="middle" font-family="Arial, sans-serif" font-size="6.5" textLength="18.0" lengthAdjust="spacing" font-weight="500" paint-order="stroke" stroke="#f3f5ee" stroke-width="1.55" stroke-linejoin="round" fill="#6f777a">365</text><text x="38.9" y="188.7" text-anchor="middle" font-family="Arial, sans-serif" font-size="6.5" textLength="18.0" lengthAdjust="spacing" font-weight="500" paint-order="stroke" stroke="#f3f5ee" stroke-width="1.55" stroke-linejoin="round" fill="#6f777a">1721</text><text x="15.4" y="34.1" text-anchor="middle" font-family="Arial, sans-serif" font-size="6.5" textLength="18.0" lengthAdjust="spacing" font-weight="500" paint-order="stroke" stroke="#f3f5ee" stroke-width="1.55" stroke-linejoin="round" fill="#6f777a">420</text><text x="140.4" y="224.2" text-anchor="middle" font-family="Arial, sans-serif" font-size="6.5" textLength="18.0" lengthAdjust="spacing" font-weight="500" paint-order="stroke" stroke="#f3f5ee" stroke-width="1.55" stroke-linejoin="round" fill="#6f777a">350</text><text x="162.6" y="235.8" text-anchor="middle" font-family="Arial, sans-serif" font-size="6.5" textLength="18.0" lengthAdjust="spacing" font-weight="500" paint-order="stroke" stroke="#f3f5ee" stroke-width="1.55" stroke-linejoin="round" fill="#6f777a">340</text><text x="194.8" y="37.4" text-anchor="middle" font-family="Arial, sans-serif" font-size="6.5" textLength="18.0" lengthAdjust="spacing" font-weight="500" paint-order="stroke" stroke="#f3f5ee" stroke-width="1.55" stroke-linejoin="round" fill="#6f777a">379</text><text x="196.5" y="16.5" text-anchor="middle" font-family="Arial, sans-serif" font-size="6.5" textLength="18.0" lengthAdjust="spacing" font-weight="500" paint-order="stroke" stroke="#f3f5ee" stroke-width="1.55" stroke-linejoin="round" fill="#6f777a">377</text><text x="228.2" y="16.5" text-anchor="middle" font-family="Arial, sans-serif" font-size="6.5" textLength="18.0" lengthAdjust="spacing" font-weight="500" paint-order="stroke" stroke="#f3f5ee" stroke-width="1.55" stroke-linejoin="round" fill="#6f777a">373</text><g opacity="0.56"><title>crossing</title><path d="M173.6,77.8 L178.2,77.8 M173.6,79.6 L178.2,79.6 M173.6,81.4 L178.2,81.4" stroke="#ffffff" stroke-width="2.1" stroke-linecap="round"/><path d="M173.6,77.8 L178.2,77.8 M173.6,79.6 L178.2,79.6 M173.6,81.4 L178.2,81.4" stroke="#59656a" stroke-width="0.85" stroke-linecap="round"/></g><g opacity="0.56"><title>crossing</title><path d="M129.6,74.1 L134.2,74.1 M129.6,75.9 L134.2,75.9 M129.6,77.7 L134.2,77.7" stroke="#ffffff" stroke-width="2.1" stroke-linecap="round"/><path d="M129.6,74.1 L134.2,74.1 M129.6,75.9 L134.2,75.9 M129.6,77.7 L134.2,77.7" stroke="#59656a" stroke-width="0.85" stroke-linecap="round"/></g><g opacity="0.56"><title>crossing</title><path d="M187.4,55.8 L192.0,55.8 M187.4,57.6 L192.0,57.6 M187.4,59.4 L192.0,59.4" stroke="#ffffff" stroke-width="2.1" stroke-linecap="round"/><path d="M187.4,55.8 L192.0,55.8 M187.4,57.6 L192.0,57.6 M187.4,59.4 L192.0,59.4" stroke="#59656a" stroke-width="0.85" stroke-linecap="round"/></g><g opacity="0.56"><title>crossing</title><path d="M169.9,30.7 L174.4,30.7 M169.9,32.5 L174.4,32.5 M169.9,34.3 L174.4,34.3" stroke="#ffffff" stroke-width="2.1" stroke-linecap="round"/><path d="M169.9,30.7 L174.4,30.7 M169.9,32.5 L174.4,32.5 M169.9,34.3 L174.4,34.3" stroke="#59656a" stroke-width="0.85" stroke-linecap="round"/></g><g opacity="0.56"><title>crossing</title><path d="M125.0,90.1 L129.6,90.1 M125.0,91.9 L129.6,91.9 M125.0,93.7 L129.6,93.7" stroke="#ffffff" stroke-width="2.1" stroke-linecap="round"/><path d="M125.0,90.1 L129.6,90.1 M125.0,91.9 L129.6,91.9 M125.0,93.7 L129.6,93.7" stroke="#59656a" stroke-width="0.85" stroke-linecap="round"/></g></svg>