<svg xmlns="http://www.w3.org/2000/svg" width="256" height="256" viewBox="0 0 256 256"><rect width="256" height="256" fill="#f1efe7"/><path d="M-778.7,-11053.7 L-563.9,-11143.0 L-496.7,-11175.3 L-196.2,-11319.6 L-139.8,-11265.0 L-134.9,-11260.3 L-29.5,-11350.5 L-4.4,-11369.6 L37.5,-11407.4 L273.6,-11624.2 L464.1,-11841.8 L471.4,-11855.7 L478.4,-11863.6 L489.5,-11876.3 L500.8,-11889.2 L505.4,-11894.5 L430.3,-11991.6 L529.7,-12051.2 L583.6,-11979.5 L659.8,-12066.7 L595.3,-12152.1 L675.2,-12235.4 L736.7,-12154.4 L807.3,-12234.8 L837.4,-12254.5 L984.6,-12350.0 L1057.3,-12398.3 L1144.9,-12455.9 L1186.3,-12483.1 L1291.2,-12550.8 L1264.2,-12586.3 L1215.9,-12651.0 L1340.8,-12730.4 L1386.3,-12753.9 L1389.8,-12756.4 L1413.8,-12774.9 L1499.4,-12820.7 L1505.3,-12829.9 L1529.3,-12846.4 L1542.3,-12865.4 L1546.0,-12868.2 L1566.9,-12876.3 L1614.1,-12893.2 L1646.4,-12907.4 L1760.5,-12961.0 L1761.9,-12957.3 L1857.6,-12998.2 L1896.7,-12948.1 L1983.8,-13006.2 L1996.2,-13014.7 L1997.4,-13015.7 L1998.6,-13017.3 L2000.5,-13020.6 L2001.5,-13023.7 L2002.1,-13027.4 L2002.0,-13030.4 L2001.6,-13033.3 L2001.2,-13036.6 L2001.1,-13039.1 L2001.3,-13041.2 L2001.7,-13043.4 L2003.3,-13047.4 L2004.4,-13049.6 L2006.9,-13053.4 L2009.5,-13056.2 L2022.2,-13061.3 L2032.8,-13065.3 L2046.3,-13069.7 L2052.6,-13071.4 L2063.8,-13075.1 L2071.7,-13077.9 L2082.6,-13082.4 L2097.4,-13088.9 L2113.4,-13096.4 L2122.0,-13100.6 L2132.8,-13106.1 L2142.9,-13111.7 L2153.0,-13117.7 L2163.3,-13124.4 L2166.5,-13126.6 L2187.2,-13142.4 L2204.6,-13155.8 L2221.6,-13170.2 L2237.5,-13185.2 L2249.0,-13198.1 L2260.4,-13212.0 L2274.4,-13230.0 L2287.2,-13248.0 L2301.9,-13271.1 L2311.5,-13289.0 L2317.5,-13300.4 L2326.4,-13319.7 L2333.9,-13337.6 L2340.6,-13356.9 L2346.0,-13373.8 L2351.9,-13401.2 L2356.2,-13425.7 L2358.5,-13446.7 L2360.5,-13471.5 L2360.7,-13498.0 L2359.1,-13522.5 L2354.9,-13554.5 L2350.5,-13576.3 L2345.5,-13596.9 L2338.1,-13620.3 L2331.8,-13638.2 L2324.6,-13657.7 L2317.8,-13673.9 L2313.2,-13684.4 L2311.3,-13692.1 L2311.0,-13698.0 L2311.6,-13703.3 L2313.7,-13707.9 L2316.9,-13711.8 L2321.1,-13714.0 L2325.6,-13714.6 L2337.7,-13711.7 L2371.4,-13703.6 L2382.6,-13958.3 L2426.3,-14412.9 L2378.8,-14424.1 L2373.6,-14438.4 L2373.8,-14458.9 L2380.4,-14505.4 L2389.4,-14515.9 L2397.4,-14546.1 L2447.9,-14534.4 L2475.7,-14824.9 L2483.4,-14905.3 L2467.7,-14909.2 L2477.2,-14947.6 L2444.9,-14955.3 L2449.0,-14978.8 L2454.7,-14994.3 L2461.8,-15012.4 L2473.8,-15037.7 L2486.7,-15034.8 L2504.1,-15217.5 L2508.2,-15328.3 L2509.0,-15348.7 L2518.4,-15419.2 L2537.1,-15594.9 L2661.9,-15920.3 L2690.4,-16009.0 L3037.1,-16142.0 L3071.0,-16155.6 L3076.9,-16158.8 L3081.5,-16163.0 L3086.6,-16168.9 L3090.5,-16175.8 L3093.1,-16182.6 L3093.7,-16192.5 L3093.2,-16204.8 L3088.6,-16360.3 L3086.9,-16390.4 L3086.4,-16411.1 L3085.7,-16451.3 L3084.9,-16463.9 L3083.4,-16474.5 L3081.3,-16483.9 L3078.2,-16493.5 L3073.3,-16504.8 L3066.1,-16516.9 L3059.1,-16526.5 L3053.7,-16535.6 L3048.2,-16547.7 L3043.6,-16559.3 L3041.8,-16568.8 L3040.4,-16579.3 L3039.7,-16589.8 L3040.0,-16600.0 L3041.2,-16611.9 L3044.0,-16623.6 L3047.7,-16634.0 L3051.6,-16643.5 L3056.6,-16652.7 L3062.7,-16663.9 L3066.7,-16674.0 L3070.2,-16686.9 L3076.6,-16696.7 L3074.4,-16785.9 L3071.1,-16791.1 L3070.1,-16851.7 L3068.4,-16923.2 L3069.6,-16933.1 L3072.8,-16943.2 L3080.8,-16959.0 L3134.3,-17074.1 L3135.4,-17076.0 L3144.8,-17096.5 L3153.7,-17115.9 L3163.7,-17135.9 L3173.5,-17156.5 L3178.3,-17166.5 L3230.9,-17274.4 L3287.1,-17393.6 L3408.7,-17640.4 L3335.6,-17722.3 L3276.0,-17595.3 L3224.5,-17485.4 L3216.7,-17469.8 L3200.8,-17437.3 L3169.0,-17440.0 L3160.3,-17440.5 L3157.2,-17437.7 L3161.4,-17433.9 L3145.1,-17419.4 L3132.2,-17407.5 L3129.8,-17356.6 L3125.0,-17346.4 L3109.4,-17347.0 L3106.8,-17347.9 L2902.4,-17432.3 L2898.0,-17434.6 L2893.3,-17437.6 L2885.9,-17443.2 L2880.2,-17448.6 L2875.4,-17453.8 L2870.7,-17460.2 L2867.1,-17465.8 L2864.3,-17471.6 L2862.1,-17477.7 L2860.6,-17481.9 L2859.5,-17487.0 L2858.7,-17493.0 L2857.9,-17501.2 L2857.9,-17512.9 L2856.5,-17552.6 L2862.1,-17552.9 L2861.3,-17573.9 L2860.4,-17608.5 L2865.6,-17608.6 L2865.2,-17632.2 L2859.3,-17632.1 L2856.6,-17731.5 L2862.2,-17731.8 L2861.3,-17755.1 L2855.9,-17754.9 L2853.6,-17828.4 L2880.6,-17857.5 L2915.1,-17858.7 L2940.8,-17859.6 L2974.7,-17860.7 L3007.3,-17861.7 L3036.5,-17862.7 L3049.2,-17863.3 L3048.6,-17874.6 L3048.4,-17886.4 L3046.5,-17924.7 L3045.8,-17997.8 L3044.8,-17999.1 L3044.6,-18006.3 L3046.7,-18006.4 L3041.6,-18182.5 L3037.2,-18348.2 L3036.5,-18353.4 L3036.1,-18363.0 L2963.9,-18360.4 L2915.9,-18364.5 L2556.6,-18352.0 L2556.5,-18355.2 L2555.8,-18370.5 L2385.4,-18364.5 L2385.1,-18392.8 L2362.6,-18397.9 L2358.6,-18519.0 L3021.4,-18542.0 L3032.4,-18557.1 L3032.0,-18600.1 L3031.2,-18637.3 L3030.6,-18660.6 L3029.7,-18683.3 L2977.0,-18708.1 L2974.9,-18763.2 L3028.9,-18790.0 L3024.0,-18917.5 L3022.6,-18923.8 L2968.9,-18948.9 L2967.2,-19017.1 L3018.2,-19043.4 L2995.5,-19320.3 L3001.5,-19443.5 L3004.5,-19644.4 L3004.3,-19862.9 L3009.1,-19893.5 L3009.4,-19908.3 L3004.6,-19926.1 L3009.6,-19926.1 L3009.6,-19942.2 L3012.6,-20353.2 L3012.1,-20371.5 L3006.4,-20371.5 L3006.6,-20447.1 L3003.3,-20451.8 L2998.1,-20529.8 L3008.4,-20601.1 L3007.1,-20687.4 L3003.6,-20708.1 L3008.9,-20772.0 L3005.3,-20849.3 L2996.3,-20932.0 L2979.2,-21066.0 L2987.3,-21102.9 L2983.7,-21138.8 L2953.1,-21164.9 L2908.2,-21164.5 L2839.8,-21155.5 L2795.3,-21155.5 L2754.9,-21170.3 L2701.8,-21206.7 L2701.8,-21272.0 L2700.4,-21352.3 L2705.6,-21419.2 L2723.2,-21471.4 L3017.9,-21476.9 L3024.7,-21894.8 L3024.7,-22496.4 L3021.6,-22714.7 L18933.8,-29286.4 L18933.8,6931.8 L-778.7,6931.8 L-778.7,-11053.7 Z" fill="#add7e1" stroke="none"><title>Biscayne Bay</title></path><path d="M3412.6,-8767.6 L303.0,4604.9" fill="none" stroke="#6fb5c7" stroke-width="1.7" stroke-dasharray="5 7" opacity="0.34" stroke-linecap="round" stroke-linejoin="round"><title>Atlantic Intracoastal Waterway</title></path></svg>