<svg xmlns="http://www.w3.org/2000/svg" width="256" height="256" viewBox="0 0 256 256"><rect width="256" height="256" fill="#f1efe7"/><path d="M773.0,404.7 L775.5,399.8 L777.5,392.7 L764.0,-140.5 L72.0,-116.5 L82.5,162.0 L173.0,250.0 L212.5,257.5 L291.0,350.0 L318.7,380.8 L331.0,391.2 L345.3,401.7 L361.0,408.5 L383.5,416.0 L399.0,418.2 L445.2,416.8 L600.5,411.7 L773.0,404.7 Z" fill="#ead7d9" stroke="#d7d1c5" stroke-width="0.3"><title>Miami Veterans Affairs Medical Center</title></path><path d="M272.2,177.5 L272.4,179.6 L297.4,179.0 L297.5,184.0 L305.1,183.8 L305.9,215.8 L298.3,216.2 L298.4,220.9 L273.1,221.1 L273.0,227.5 L263.8,227.7 L263.6,234.9 L250.9,235.1 L250.9,228.0 L239.5,228.2 L239.2,219.9 L236.1,219.8 L235.9,221.9 L216.3,222.0 L216.3,217.7 L208.8,217.7 L208.4,185.8 L215.4,185.4 L215.6,180.6 L238.4,179.6 L238.4,178.0 L272.2,177.5 Z" fill="#d6d2c9" stroke="#bab6ad" stroke-width="0.4"></path><path d="M-387.9,-336.9 L0.4,89.9 L30.9,124.0" fill="none" stroke="#6fb5c7" stroke-width="1.7" stroke-dasharray="5 7" opacity="0.34" stroke-linecap="round" stroke-linejoin="round"></path><path d="M78.5,177.4 L479.1,626.3" fill="none" stroke="#6fb5c7" stroke-width="1.7" stroke-dasharray="5 7" opacity="0.34" stroke-linecap="round" stroke-linejoin="round"></path><path d="M30.9,124.0 L78.5,177.4" fill="none" stroke="#6fb5c7" stroke-width="1.7" stroke-dasharray="5 7" opacity="0.34" stroke-linecap="round" stroke-linejoin="round"></path><path d="M91.4,253.3 L88.0,252.6 L84.8,251.2 L82.0,249.1 L79.1,245.2 L77.6,240.5 L72.2,37.5 L67.9,-106.5" fill="none" stroke="#cf828d" stroke-width="1.5" stroke-dasharray="1.6 3.0" opacity="0.62" stroke-linecap="round" stroke-linejoin="round"></path><path d="M39.2,252.3 L38.5,255.0 L37.3,257.4 L34.4,260.8 L30.5,263.0 L26.1,263.8 L-81.9,266.6" fill="none" stroke="#cf828d" stroke-width="1.5" stroke-dasharray="1.6 3.0" opacity="0.62" stroke-linecap="round" stroke-linejoin="round"></path><path d="M172.1,258.6 L154.7,255.1 L137.7,254.0" fill="none" stroke="#cf828d" stroke-width="1.5" stroke-dasharray="1.6 3.0" opacity="0.62" stroke-linecap="round" stroke-linejoin="round"></path><path d="M137.7,254.0 L130.5,252.7 L115.2,253.0 L107.1,253.3 L103.2,252.7 L99.3,252.4 L95.3,252.6 L91.4,253.3" fill="none" stroke="#cf828d" stroke-width="1.5" stroke-dasharray="1.6 3.0" opacity="0.62" stroke-linecap="round" stroke-linejoin="round"></path><path d="M39.2,252.3 L39.2,248.2 L31.2,-61.6" fill="none" stroke="#cf828d" stroke-width="1.5" stroke-dasharray="1.6 3.0" opacity="0.62" stroke-linecap="round" stroke-linejoin="round"></path><path d="M77.6,240.5 L68.5,243.5 L47.3,249.8 L39.2,252.3" fill="none" stroke="#cf828d" stroke-width="1.5" stroke-dasharray="1.6 3.0" opacity="0.62" stroke-linecap="round" stroke-linejoin="round"></path><path d="M82.5,279.7 L82.3,266.7 L82.0,249.1" fill="none" stroke="#cf828d" stroke-width="1.5" stroke-dasharray="1.6 3.0" opacity="0.62" stroke-linecap="round" stroke-linejoin="round"></path><path d="M319.9,30.4 L301.6,30.9 L267.8,31.9 L234.0,32.8 L200.3,33.8 L163.7,34.8 L148.8,35.2 L72.2,37.5 L63.5,37.7 L42.3,38.2" fill="none" stroke="#cec8bb" stroke-width="3.5" stroke-linecap="round" stroke-linejoin="round"/><path d="M319.9,30.4 L301.6,30.9 L267.8,31.9 L234.0,32.8 L200.3,33.8 L163.7,34.8 L148.8,35.2 L72.2,37.5 L63.5,37.7 L42.3,38.2" fill="none" stroke="#ffffff" stroke-width="2.5" stroke-linecap="round" stroke-linejoin="round"></path><path d="M-63.9,244.5 L-46.3,243.8 L-12.2,242.3 L8.5,241.4 L10.9,239.3 L11.2,235.4 L8.2,138.3 L6.9,132.7 L0.4,125.4 L-14.0,111.0 L-21.2,105.4 L-28.5,103.8 L-51.5,104.5" fill="none" stroke="#cec8bb" stroke-width="3.5" stroke-linecap="round" stroke-linejoin="round"/><path d="M-63.9,244.5 L-46.3,243.8 L-12.2,242.3 L8.5,241.4 L10.9,239.3 L11.2,235.4 L8.2,138.3 L6.9,132.7 L0.4,125.4 L-14.0,111.0 L-21.2,105.4 L-28.5,103.8 L-51.5,104.5" fill="none" stroke="#ffffff" stroke-width="2.5" stroke-linecap="round" stroke-linejoin="round"></path><path d="M309.0,277.3 L294.8,277.3 L259.2,277.4 L220.6,248.8 L189.7,235.2 L174.2,221.1 L137.8,188.2 L102.7,156.4 L98.1,61.9 L133.3,61.1 L165.6,60.4" fill="none" stroke="#cec8bb" stroke-width="3.5" stroke-linecap="round" stroke-linejoin="round"/><path d="M309.0,277.3 L294.8,277.3 L259.2,277.4 L220.6,248.8 L189.7,235.2 L174.2,221.1 L137.8,188.2 L102.7,156.4 L98.1,61.9 L133.3,61.1 L165.6,60.4" fill="none" stroke="#ffffff" stroke-width="2.5" stroke-linecap="round" stroke-linejoin="round"></path><path d="M165.6,60.4 L174.2,221.1" fill="none" stroke="#cec8bb" stroke-width="3.5" stroke-linecap="round" stroke-linejoin="round"/><path d="M165.6,60.4 L174.2,221.1" fill="none" stroke="#ffffff" stroke-width="2.5" stroke-linecap="round" stroke-linejoin="round"></path><path d="M228.3,-99.8 L234.0,32.8" fill="none" stroke="#cec8bb" stroke-width="3.5" stroke-linecap="round" stroke-linejoin="round"/><path d="M228.3,-99.8 L234.0,32.8" fill="none" stroke="#ffffff" stroke-width="2.5" stroke-linecap="round" stroke-linejoin="round"></path><path d="M195.5,-98.3 L200.3,33.8" fill="none" stroke="#cec8bb" stroke-width="3.5" stroke-linecap="round" stroke-linejoin="round"/><path d="M195.5,-98.3 L200.3,33.8" fill="none" stroke="#ffffff" stroke-width="2.5" stroke-linecap="round" stroke-linejoin="round"></path><path d="M160.9,-96.7 L163.7,34.8" fill="none" stroke="#cec8bb" stroke-width="3.5" stroke-linecap="round" stroke-linejoin="round"/><path d="M160.9,-96.7 L163.7,34.8" fill="none" stroke="#ffffff" stroke-width="2.5" stroke-linecap="round" stroke-linejoin="round"></path><path d="M96.1,11.1 L91.8,-100.2" fill="none" stroke="#cec8bb" stroke-width="3.5" stroke-linecap="round" stroke-linejoin="round"/><path d="M96.1,11.1 L91.8,-100.2" fill="none" stroke="#ffffff" stroke-width="2.5" stroke-linecap="round" stroke-linejoin="round"></path><path d="M126.1,-95.1 L130.9,8.6" fill="none" stroke="#cec8bb" stroke-width="3.5" stroke-linecap="round" stroke-linejoin="round"/><path d="M126.1,-95.1 L130.9,8.6" fill="none" stroke="#ffffff" stroke-width="2.5" stroke-linecap="round" stroke-linejoin="round"></path><path d="M130.9,8.6 L126.6,15.3 L102.8,17.0 L96.1,11.1" fill="none" stroke="#cec8bb" stroke-width="3.5" stroke-linecap="round" stroke-linejoin="round"/><path d="M130.9,8.6 L126.6,15.3 L102.8,17.0 L96.1,11.1" fill="none" stroke="#ffffff" stroke-width="2.5" stroke-linecap="round" stroke-linejoin="round"></path><path d="M163.7,34.8 L165.6,60.4" fill="none" stroke="#cec8bb" stroke-width="3.5" stroke-linecap="round" stroke-linejoin="round"/><path d="M163.7,34.8 L165.6,60.4" fill="none" stroke="#ffffff" stroke-width="2.5" stroke-linecap="round" stroke-linejoin="round"></path><path d="M200.3,33.8 L204.4,141.6" fill="none" stroke="#cec8bb" stroke-width="3.5" stroke-linecap="round" stroke-linejoin="round"/><path d="M200.3,33.8 L204.4,141.6" fill="none" stroke="#ffffff" stroke-width="2.5" stroke-linecap="round" stroke-linejoin="round"></path><path d="M234.0,32.8 L238.9,137.3" fill="none" stroke="#cec8bb" stroke-width="3.5" stroke-linecap="round" stroke-linejoin="round"/><path d="M234.0,32.8 L238.9,137.3" fill="none" stroke="#ffffff" stroke-width="2.5" stroke-linecap="round" stroke-linejoin="round"></path><path d="M133.3,61.1 L137.8,188.2" fill="none" stroke="#cec8bb" stroke-width="3.5" stroke-linecap="round" stroke-linejoin="round"/><path d="M133.3,61.1 L137.8,188.2" fill="none" stroke="#ffffff" stroke-width="2.5" stroke-linecap="round" stroke-linejoin="round"></path><path d="M69.0,269.0 L68.5,243.5 L67.9,215.2 L63.5,37.7 L61.4,-64.3" fill="none" stroke="#d1c4aa" stroke-width="5.4" stroke-linecap="round" stroke-linejoin="round"/><path d="M69.0,269.0 L68.5,243.5 L67.9,215.2 L63.5,37.7 L61.4,-64.3" fill="none" stroke="#f4d99b" stroke-width="4.0" stroke-linecap="round" stroke-linejoin="round"><title>Northwest 14th Avenue</title></path><path d="M39.8,-61.8 L41.7,15.0 L42.3,38.2 L47.1,240.5 L47.3,249.8 L47.4,273.8" fill="none" stroke="#d1c4aa" stroke-width="5.4" stroke-linecap="round" stroke-linejoin="round"/><path d="M39.8,-61.8 L41.7,15.0 L42.3,38.2 L47.1,240.5 L47.3,249.8 L47.4,273.8" fill="none" stroke="#f4d99b" stroke-width="4.0" stroke-linecap="round" stroke-linejoin="round"><title>Northwest 14th Avenue</title></path><g transform="translate(65.7 126.4) rotate(-91.4)"><path d="M -3.6 -3.2 L 4.4 0 L -3.6 3.2 Z" fill="#58656d" opacity="0.46"/></g><g transform="translate(44.7 139.3) rotate(88.6)"><path d="M -3.6 -3.2 L 4.4 0 L -3.6 3.2 Z" fill="#58656d" opacity="0.46"/></g><text x="65.7" y="126.4" transform="rotate(88.6 65.7 126.4)" text-anchor="middle" dominant-baseline="central" font-family="Arial, sans-serif" font-size="8.3" textLength="111.6" lengthAdjust="spacing" font-weight="650" paint-order="stroke" stroke="#fffaf0" stroke-width="2.05" stroke-linejoin="round" fill="#6f573d">Northwest 14th Avenue</text><text x="44.7" y="139.1" transform="rotate(88.6 44.7 139.1)" text-anchor="middle" dominant-baseline="central" font-family="Arial, sans-serif" font-size="8.3" textLength="111.6" lengthAdjust="spacing" font-weight="650" paint-order="stroke" stroke="#fffaf0" stroke-width="2.05" stroke-linejoin="round" fill="#6f573d">Northwest 14th Avenue</text><g><title>Northwest 14th Avenue &amp; Northwest 19th Street</title><rect x="28.3" y="12.0" width="6.9" height="6.1" rx="1.3" fill="#2796c9" stroke="#ffffff" stroke-width="1.05"/><rect x="29.5" y="13.3" width="4.4" height="2.1" rx="0.35" fill="#ffffff"/><circle cx="29.8" cy="17.0" r="0.5" fill="#ffffff"/><circle cx="33.6" cy="17.0" r="0.5" fill="#ffffff"/></g><g><title>signal</title><rect x="44.4" y="235.3" width="5.4" height="10.4" rx="2.1" fill="#3f4b52" stroke="#ffffff" stroke-width="1.1"/><circle cx="47.1" cy="237.7" r="1.1" fill="#d85a4f"/><circle cx="47.1" cy="240.5" r="1.1" fill="#e2b84b"/><circle cx="47.1" cy="243.3" r="1.1" fill="#55a86b"/></g><g opacity="0.56"><title>crossing</title><path d="M66.2,241.7 L70.8,241.7 M66.2,243.5 L70.8,243.5 M66.2,245.3 L70.8,245.3" stroke="#ffffff" stroke-width="2.1" stroke-linecap="round"/><path d="M66.2,241.7 L70.8,241.7 M66.2,243.5 L70.8,243.5 M66.2,245.3 L70.8,245.3" stroke="#59656a" stroke-width="0.85" stroke-linecap="round"/></g></svg>