<svg xmlns="http://www.w3.org/2000/svg" width="256" height="256" viewBox="0 0 256 256"><defs><pattern id="park-dots" width="22" height="22" patternUnits="userSpaceOnUse"><circle cx="5" cy="5" r="2.1" fill="#63a95d" fill-opacity="0.26"/><circle cx="16" cy="7" r="1.55" fill="#76b970" fill-opacity="0.23"/><circle cx="10" cy="17" r="1.9" fill="#61a65b" fill-opacity="0.24"/><circle cx="21" cy="17" r="1.25" fill="#80c174" fill-opacity="0.18"/><circle cx="1" cy="19" r="1.2" fill="#70b46a" fill-opacity="0.17"/></pattern><pattern id="park-canopy" width="54" height="48" patternUnits="userSpaceOnUse"><circle cx="12" cy="11" r="3.6" fill="#5ea75a" fill-opacity="0.22"/><circle cx="31" cy="15" r="2.9" fill="#75ba6d" fill-opacity="0.18"/><circle cx="45" cy="31" r="3.3" fill="#67ae62" fill-opacity="0.20"/><circle cx="19" cy="39" r="2.5" fill="#83c378" fill-opacity="0.16"/></pattern></defs><rect width="256" height="256" fill="#f1efe7"/><path d="M-4842.8,6935.5 L-5387.0,6533.8 L-5430.5,6501.8 L-5477.7,6491.5 L-5511.0,6463.5 L-5537.6,6460.4 L-5623.6,6466.1 L-5623.5,6458.0 L-5628.3,6450.4 L-5637.9,6444.5 L-5824.7,6363.6 L-5837.4,6357.8 L-5848.5,6354.6 L-5862.3,6353.5 L-5876.2,6353.2 L-5922.6,6353.2 L-5934.9,6352.5 L-5947.0,6350.1 L-5959.8,6345.1 L-5975.2,6341.0 L-5986.4,6340.0 L-6019.3,6338.6 L-6030.3,6336.6 L-6044.3,6332.1 L-6058.0,6328.6 L-6071.3,6325.5 L-6081.7,6321.3 L-6094.3,6313.5 L-6105.5,6305.1 L-6116.4,6296.9 L-6125.3,6292.7 L-6132.1,6291.3 L-6138.2,6291.7 L-6144.7,6293.5 L-6152.3,6297.4 L-6158.3,6304.0 L-6166.4,6311.9 L-6175.4,6320.2 L-6185.6,6325.8 L-6198.5,6330.0 L-6209.2,6332.6 L-6222.1,6334.6 L-6243.7,6337.1 L-6297.9,6339.7 L-6343.9,6342.0 L-6363.7,6349.1 L-6404.3,6350.5 L-6409.8,6342.0 L-6415.9,6338.1 L-6422.2,6336.9 L-6466.0,6339.4 L-6485.0,6346.2 L-6508.3,6346.4 L-6524.0,6344.1 L-6536.9,6340.2 L-6584.0,6343.0 L-6708.6,6352.7 L-6737.3,6353.5 L-6747.1,6353.3 L-6755.9,6351.1 L-6766.1,6346.0 L-6773.6,6340.0 L-6806.0,6340.1 L-6833.1,6339.7 L-6840.4,6344.2 L-6877.7,6345.1 L-6882.5,6353.0 L-6887.8,6353.2 L-6897.0,6351.0 L-6913.5,6349.0 L-6930.5,6349.9 L-6935.7,6351.5 L-6941.0,6350.6 L-6944.6,6347.1 L-6950.7,6343.6 L-6973.4,6343.7 L-6996.3,6344.9 L-7018.0,6357.7 L-7028.7,6362.8 L-7040.9,6365.5 L-7051.0,6366.2 L-7060.1,6364.8 L-7081.1,6355.8 L-7093.1,6352.0 L-7103.3,6350.5 L-7148.0,6351.1 L-7150.8,6345.7 L-7190.3,6346.6 L-7217.5,6351.6 L-7235.4,6353.7 L-7245.0,6355.8 L-7248.7,6353.3 L-7255.5,6352.4 L-7319.2,6346.6 L-7324.7,6349.6 L-7331.4,6351.0 L-7340.2,6351.1 L-7340.2,6347.9 L-7379.7,6340.5 L-7404.6,6335.7 L-7464.8,6315.5 L-7468.1,6320.0 L-7508.3,6307.6 L-7516.7,6304.8 L-7512.6,6290.8 L-7517.4,6289.3 L-7518.4,6287.8 L-7521.0,6287.0 L-7524.6,6286.5 L-7529.0,6284.3 L-7527.5,6283.0 L-7545.3,6268.5 L-7574.9,6241.7 L-7590.8,6227.7 L-7602.1,6215.4 L-7608.4,6207.1 L-7617.8,6194.3 L-7623.2,6184.4 L-7640.0,6163.3 L-7641.6,6162.1 L-7642.7,6162.0 L-7643.9,6162.2 L-7646.1,6162.3 L-7648.1,6161.3 L-7652.3,6158.6 L-7660.9,6154.1 L-7665.1,6150.5 L-7670.0,6146.2 L-7676.7,6142.6 L-7687.2,6139.3 L-7698.3,6137.3 L-7707.8,6137.1 L-7705.1,6111.9 L-7702.9,6079.0 L-7692.6,6080.0 L-7682.3,6081.8 L-7668.8,6085.8 L-7658.9,6089.5 L-7650.0,6093.6 L-7641.4,6097.6 L-7633.3,6102.2 L-7626.7,6107.3 L-7617.9,6114.1 L-7608.7,6121.0 L-7606.6,6122.3 L-7604.7,6122.7 L-7579.5,6121.6 L-7579.2,6127.3 L-7580.7,6129.8 L-7599.6,6131.6 L-7594.8,6141.4 L-7591.5,6140.2 L-7588.5,6143.2 L-7586.6,6146.1 L-7585.0,6148.3 L-7581.1,6153.5 L-7579.6,6159.2 L-7573.5,6167.6 L-7559.1,6176.7 L-7541.2,6185.8 L-7519.8,6199.3 L-7510.0,6203.9 L-7489.4,6215.6 L-7479.7,6220.7 L-7462.0,6227.2 L-7427.2,6236.5 L-7406.8,6241.4 L-7388.2,6243.3 L-7378.3,6244.6 L-7376.1,6244.4 L-7375.2,6243.1 L-7374.9,6236.5 L-7351.8,6236.5 L-7351.3,6243.9 L-7302.9,6246.4 L-7255.7,6247.8 L-7223.6,6246.6 L-7213.0,6245.8 L-7205.3,6244.8 L-7199.0,6243.0 L-7193.2,6239.5 L-7190.3,6234.8 L-7191.4,6157.3 L-7171.9,6156.2 L-7170.2,6231.8 L-7169.1,6233.7 L-7165.2,6236.4 L-7160.7,6237.7 L-7057.3,6237.9 L-7057.8,6204.6 L-7049.7,6204.4 L-7046.3,6237.9 L-6982.5,6237.3 L-6982.5,6233.7 L-6976.2,6233.6 L-6976.0,6236.2 L-6550.5,6228.1 L-6519.7,6224.5 L-6482.1,6223.4 L-6446.5,6228.1 L-6434.6,6227.1 L-6425.9,6225.4 L-6417.8,6222.5 L-6407.3,6218.5 L-6193.4,6214.7 L-6193.5,6199.9 L-6073.8,6197.8 L-6073.7,6214.1 L-6022.9,6215.9 L-6019.0,6215.8 L-6015.4,6215.5 L-6010.7,6214.9 L-6006.9,6213.9 L-6003.2,6212.7 L-5996.9,6209.7 L-5994.0,6214.7 L-5987.8,6210.8 L-5982.1,6206.2 L-5977.3,6201.2 L-5973.1,6195.3 L-5969.2,6188.0 L-5976.5,6183.9 L-5974.5,6177.8 L-5973.2,6171.5 L-5972.5,6165.5 L-5972.4,6160.8 L-5972.6,6156.4 L-5973.3,6118.5 L-5979.4,6112.9 L-5974.2,6107.4 L-5979.5,6102.8 L-5973.5,6095.7 L-5980.0,6090.0 L-5974.8,6084.5 L-5980.0,6079.5 L-5973.9,6073.0 L-5980.2,6066.6 L-5967.1,6052.2 L-5964.8,6052.1 L-5970.5,5837.6 L-5922.4,5836.5 L-5920.1,5837.7 L-5917.5,5839.7 L-5915.6,5841.4 L-5914.8,5843.4 L-5914.1,5845.8 L-5913.9,5848.2 L-5909.8,6181.5 L-5907.9,6192.3 L-5905.2,6199.6 L-5901.0,6208.6 L-5896.1,6217.4 L-5891.0,6224.4 L-5886.9,6228.7 L-5882.5,6232.1 L-5877.4,6235.1 L-5872.1,6237.1 L-5864.9,6239.2 L-5856.0,6240.9 L-5845.2,6242.9 L-5832.6,6245.2 L-5820.6,6247.8 L-5807.3,6250.2 L-5794.7,6252.9 L-5790.7,6253.7 L-5785.8,6254.7 L-5781.0,6255.3 L-5776.8,6255.4 L-5772.0,6255.4 L-5768.3,6255.2 L-5764.6,6254.5 L-5761.4,6253.7 L-5758.0,6252.7 L-5755.1,6251.4 L-5749.3,6248.6 L-5744.2,6245.6 L-5739.1,6241.9 L-5733.2,6236.2 L-5727.7,6230.0 L-5724.7,6224.7 L-5722.0,6218.2 L-5720.6,6212.9 L-5719.8,6207.2 L-5719.3,6201.8 L-5719.3,6196.8 L-5726.6,5839.6 L-5716.2,5828.9 L-5712.4,5828.5 L-5710.9,5827.1 L-5689.2,5826.5 L-5687.3,5823.3 L-5684.0,5824.2 L-5678.5,5829.3 L-5674.7,5834.6 L-5670.9,5841.2 L-5663.7,6240.4 L-5663.0,6247.4 L-5661.7,6261.3 L-5660.4,6264.1 L-5661.4,6264.8 L-5659.6,6268.7 L-5657.3,6273.3 L-5655.3,6276.2 L-5652.9,6279.7 L-5649.6,6283.5 L-5645.7,6287.5 L-5641.0,6291.5 L-5636.8,6294.6 L-5632.2,6297.1 L-5627.8,6299.3 L-5623.1,6300.8 L-5622.5,6299.4 L-5556.3,6323.4 L-5548.0,6326.5 L-5544.2,6327.9 L-5538.3,6330.0 L-5534.0,6331.0 L-5530.3,6331.5 L-5526.9,6331.5 L-5522.1,6331.1 L-5516.9,6330.6 L-5512.3,6329.6 L-5507.6,6328.3 L-5504.1,6326.9 L-5500.4,6325.2 L-5497.4,6323.3 L-5493.6,6320.5 L-5488.8,6316.3 L-5484.4,6312.0 L-5479.6,6306.0 L-5476.2,6300.4 L-5473.4,6294.2 L-5471.4,6287.3 L-5470.2,6280.3 L-5469.5,6267.8 L-5469.8,6242.3 L-5477.1,5836.2 L-5477.1,5831.7 L-5476.3,5828.5 L-5474.9,5825.9 L-5472.0,5823.5 L-5468.7,5821.8 L-5465.0,5821.2 L-5434.9,5820.2 L-5431.3,5820.8 L-5428.1,5822.2 L-5425.8,5824.4 L-5423.2,5828.2 L-5421.7,5833.6 L-5420.8,5840.9 L-5413.3,6361.8 L-5412.9,6364.9 L-5412.3,6368.0 L-5411.4,6371.2 L-5410.3,6374.7 L-5409.1,6378.2 L-5407.7,6381.4 L-5406.5,6384.1 L-5405.2,6386.5 L-5403.3,6389.5 L-5401.2,6392.1 L-5399.3,6394.5 L-5396.4,6397.6 L-5393.6,6400.3 L-5390.5,6402.8 L-5387.2,6405.3 L-5378.0,6411.1 L-5377.1,6410.0 L-5369.0,6414.5 L-5359.4,6419.7 L-5353.9,6422.7 L-5347.8,6426.3 L-5341.5,6430.0 L-5335.0,6434.0 L-5327.7,6438.5 L-5320.5,6443.0 L-5313.3,6447.3 L-5307.3,6451.0 L-5300.6,6455.3 L-5293.5,6459.9 L-5286.7,6464.4 L-5280.4,6468.7 L-5281.1,6469.6 L-5272.3,6475.7 L-5263.2,6481.8 L-5260.4,6483.5 L-5257.3,6485.2 L-5252.9,6487.3 L-5248.8,6488.8 L-5244.4,6490.0 L-5240.5,6491.0 L-5235.9,6491.7 L-5230.8,6492.3 L-5226.4,6492.3 L-5222.7,6492.0 L-5219.5,6491.3 L-5215.4,6490.2 L-5211.3,6488.9 L-5207.5,6487.6 L-5204.0,6485.9 L-5200.4,6484.0 L-5196.9,6481.8 L-5193.3,6479.0 L-5190.1,6476.1 L-5187.0,6473.0 L-5184.1,6469.8 L-5181.1,6465.4 L-5178.6,6461.0 L-5176.2,6456.1 L-5174.8,6452.3 L-5173.7,6448.3 L-5172.9,6444.0 L-5172.5,6439.7 L-5172.8,6434.8 L-5232.1,5867.1 L-5228.0,5866.7 L-5231.3,5838.3 L-5234.3,5838.5 L-5236.7,5825.4 L-5235.9,5822.7 L-5233.4,5818.7 L-5228.3,5814.8 L-5221.6,5814.0 L-5194.7,5813.1 L-5190.2,5814.0 L-5187.1,5815.5 L-5183.8,5818.1 L-5181.5,5820.5 L-5179.9,5823.0 L-5114.9,6459.9 L-5113.4,6465.4 L-5110.6,6472.2 L-5108.2,6476.6 L-5105.6,6481.3 L-5102.2,6485.9 L-5099.4,6489.1 L-5096.3,6492.3 L-5092.9,6495.0 L-5089.9,6497.1 L-5085.7,6499.8 L-5082.0,6501.7 L-5077.1,6503.8 L-5072.5,6505.2 L-5067.3,6506.3 L-5063.3,6506.9 L-5059.8,6507.0 L-5055.7,6507.1 L-4914.5,6504.2 L-4909.9,6503.6 L-4905.5,6501.5 L-4902.3,6498.6 L-4900.1,6494.2 L-4899.3,6490.2 L-4899.5,6486.2 L-4971.0,5804.1 L-5034.0,5721.9 L-5036.8,5724.2 L-5091.6,5647.7 L-5092.6,5631.5 L-5094.3,5628.1 L-5097.2,5625.0 L-5100.9,5619.8 L-5101.2,5612.2 L-5107.7,5609.7 L-5114.0,5609.6 L-5122.5,5613.8 L-5112.9,5631.8 L-5125.0,5637.6 L-5134.1,5629.2 L-5141.9,5624.4 L-5147.2,5622.6 L-5160.2,5622.1 L-5166.8,5608.7 L-5125.3,5591.7 L-5127.3,5588.3 L-5136.1,5576.5 L-5137.5,5577.2 L-5446.4,5172.7 L-5451.1,5106.0 L-5448.6,5105.4 L-5460.5,4983.1 L-5465.1,4971.8 L-5470.1,4959.1 L-5473.9,4949.3 L-5478.5,4936.8 L-5493.5,4894.7 L-5499.6,4897.4 L-5508.5,4863.3 L-5507.0,4863.0 L-5538.1,4778.7 L-5541.5,4631.3 L-5537.9,4631.3 L-5537.4,4618.4 L-5535.6,4605.7 L-5534.9,4601.0 L-5536.2,4597.2 L-5532.0,4577.1 L-5493.7,4509.3 L-5513.8,4497.1 L-5498.9,4472.4 L-5479.5,4483.8 L-5477.8,4481.2 L-5471.7,4484.3 L-5465.1,4486.9 L-5457.5,4489.3 L-5451.8,4490.5 L-5446.4,4490.7 L-5440.0,4489.6 L-5433.7,4487.5 L-5427.5,4485.1 L-5424.6,4482.0 L-5423.5,4477.9 L-5422.0,4473.0 L-5421.7,4471.0 L-5421.8,4468.5 L-5423.2,4464.6 L-5425.8,4460.9 L-5428.8,4458.8 L-5433.2,4454.6 L-5437.0,4450.6 L-5442.6,4447.0 L-5444.9,4441.3 L-5447.6,4435.6 L-5451.9,4428.9 L-5456.8,4423.1 L-5465.8,4416.7 L-5509.4,4394.1 L-5535.2,4381.3 L-5559.3,4368.3 L-5582.2,4355.6 L-5597.0,4346.0 L-5602.7,4344.5 L-5609.0,4346.4 L-5612.5,4350.7 L-5619.6,4368.4 L-5663.7,4348.6 L-5637.3,4306.9 L-5631.5,4304.2 L-5624.4,4302.8 L-5616.1,4304.6 L-5450.4,4401.5 L-5441.4,4404.2 L-5432.0,4406.5 L-5418.7,4406.8 L-5405.2,4404.4 L-5396.6,4400.9 L-5387.2,4393.3 L-5381.7,4388.0 L-5375.8,4379.7 L-5375.9,4378.6 L-5376.3,4377.6 L-5377.2,4376.8 L-5430.8,4343.7 L-5432.1,4343.3 L-5433.5,4343.2 L-5434.9,4343.3 L-5440.0,4345.5 L-5441.9,4345.7 L-5444.0,4345.5 L-5447.1,4345.0 L-5449.5,4344.3 L-5452.9,4342.6 L-5456.2,4340.7 L-5529.9,4295.7 L-5564.6,4271.3 L-5567.9,4270.8 L-5571.2,4270.9 L-5575.1,4271.0 L-5577.7,4270.6 L-5579.9,4269.6 L-5582.5,4267.6 L-5585.4,4265.3 L-5587.4,4262.5 L-5588.6,4259.7 L-5588.8,4257.6 L-5588.5,4254.9 L-5588.0,4252.6 L-5576.2,4232.8 L-5576.2,4231.9 L-5577.1,4231.2 L-5587.9,4223.6 L-5590.0,4220.5 L-5588.8,4218.6 L-5585.3,4219.1 L-5581.5,4220.2 L-5559.3,4233.9 L-5433.5,4314.2 L-5430.9,4315.7 L-5429.1,4317.6 L-5427.9,4319.8 L-5426.6,4324.4 L-5425.7,4328.0 L-5425.2,4331.1 L-5368.4,4365.2 L-5366.4,4366.1 L-5364.0,4366.3 L-5361.2,4365.9 L-5359.2,4365.2 L-5357.5,4364.4 L-5296.4,4265.5 L-5270.8,4227.9 L-5246.9,4201.0 L-5234.8,4207.7 L-5227.0,4195.1 L-5268.5,4170.3 L-5259.7,4155.9 L-5218.2,4180.9 L-5208.9,4165.7 L-5216.4,4157.3 L-5208.8,4148.6 L-5200.6,4158.0 L-5198.6,4156.5 L-5196.3,4154.9 L-5193.1,4153.1 L-5189.8,4151.5 L-5185.7,4150.0 L-5181.8,4148.9 L-5177.6,4148.2 L-5173.4,4147.9 L-5169.4,4148.0 L-5165.5,4148.6 L-5161.8,4149.5 L-5158.7,4150.4 L-5156.0,4151.6 L-5152.2,4153.4 L-5148.7,4155.6 L-5145.7,4157.7 L-5142.7,4160.4 L-5140.0,4163.0 L-5137.0,4166.9 L-5134.9,4170.4 L-5132.8,4174.9 L-5131.4,4179.4 L-5130.2,4185.6 L-5129.8,4191.0 L-5129.9,4194.1 L-5130.3,4197.3 L-5131.4,4202.1 L-5134.2,4208.7 L-5136.0,4213.0 L-5138.5,4218.1 L-5128.1,4223.3 L-5079.5,4165.3 L-5168.0,4111.5 L-5163.5,4101.9 L-5160.3,4093.0 L-5160.1,4089.2 L-5155.0,4078.3 L-5144.5,4068.6 L-5131.5,4058.0 L-5116.0,4048.1 L-5086.9,4039.6 L-5036.7,4034.6 L-5016.9,4018.6 L-5012.8,4017.9 L-5009.5,4017.7 L-5004.8,4019.5 L-5000.5,4020.0 L-4972.6,4036.9 L-4899.2,3949.8 L-5168.2,3778.8 L-5184.9,3805.1 L-5221.2,3782.1 L-5169.7,3701.1 L-5133.5,3723.5 L-5149.6,3751.1 L-4875.9,3923.6 L-4841.4,3879.3 L-4817.0,3850.3 L-4784.8,3801.9 L-4767.0,3777.5 L-4768.8,3763.6 L-4768.3,3763.2 L-4771.5,3752.9 L-4773.6,3746.5 L-4775.6,3739.9 L-4778.0,3734.2 L-4782.6,3726.7 L-4787.2,3719.4 L-4789.2,3715.6 L-4790.7,3711.8 L-4791.8,3708.3 L-4792.2,3705.2 L-4792.7,3695.0 L-4910.9,3586.5 L-4914.8,3590.7 L-4918.1,3587.9 L-4927.7,3597.4 L-4934.0,3589.0 L-4926.4,3580.2 L-4934.0,3570.5 L-4939.2,3571.9 L-4944.6,3572.1 L-4949.5,3571.2 L-4953.8,3569.4 L-4958.8,3565.7 L-4965.0,3559.6 L-4975.9,3547.6 L-4979.2,3542.5 L-4980.4,3536.1 L-4979.6,3528.5 L-4976.7,3521.5 L-4974.2,3516.7 L-4969.4,3511.9 L-4964.1,3508.3 L-4959.0,3506.4 L-4955.2,3505.8 L-4950.2,3506.7 L-4945.1,3508.5 L-4940.3,3512.3 L-4929.2,3522.3 L-4923.5,3527.7 L-4918.3,3533.4 L-4916.6,3536.1 L-4915.4,3539.0 L-4914.7,3541.6 L-4914.2,3545.2 L-4914.8,3548.6 L-4915.8,3551.8 L-4917.2,3554.2 L-4917.6,3555.3 L-4917.3,3556.7 L-4916.5,3558.1 L-4789.6,3677.0 L-4785.2,3680.0 L-4782.1,3681.3 L-4777.7,3680.3 L-4772.5,3679.9 L-4765.9,3682.7 L-4759.3,3686.8 L-4746.4,3694.1 L-4741.0,3696.7 L-4736.1,3691.9 L-4730.7,3686.7 L-4727.1,3682.6 L-4721.1,3674.8 L-4717.7,3670.1 L-4714.1,3664.3 L-4711.8,3659.2 L-4709.3,3653.8 L-4707.0,3648.1 L-4704.9,3642.3 L-4703.7,3637.4 L-4702.3,3631.2 L-4701.7,3627.5 L-4701.3,3624.5 L-4700.6,3619.2 L-4699.9,3614.0 L-4699.6,3610.6 L-4699.4,3606.9 L-4699.4,3602.6 L-4699.6,3599.0 L-4700.3,3594.0 L-4701.1,3588.3 L-4701.9,3583.0 L-4702.4,3578.7 L-4703.0,3575.5 L-4703.7,3572.1 L-4704.5,3568.7 L-4705.7,3564.7 L-4707.1,3560.7 L-4708.2,3558.3 L-4709.4,3555.9 L-4711.1,3553.6 L-4713.4,3550.3 L-4715.9,3547.2 L-4718.6,3544.6 L-4722.0,3541.8 L-4725.5,3539.6 L-4729.0,3537.7 L-4732.2,3536.5 L-4734.4,3535.8 L-4736.9,3535.5 L-4739.9,3535.6 L-4742.7,3536.2 L-4744.9,3537.1 L-4747.0,3538.6 L-4748.5,3540.2 L-4749.7,3541.7 L-4750.6,3544.0 L-4751.1,3546.5 L-4751.0,3549.5 L-4750.8,3553.0 L-4750.8,3555.6 L-4751.0,3558.2 L-4751.4,3560.8 L-4751.9,3563.1 L-4752.8,3565.5 L-4754.2,3568.1 L-4755.9,3570.6 L-4757.6,3572.9 L-4759.3,3574.5 L-4762.7,3577.2 L-4765.5,3579.1 L-4769.9,3580.4 L-4772.5,3581.0 L-4775.5,3581.4 L-4778.2,3581.5 L-4781.8,3581.3 L-4784.4,3580.8 L-4788.0,3580.0 L-4793.0,3578.5 L-4797.2,3576.9 L-4800.3,3575.7 L-4803.6,3573.9 L-4806.5,3571.9 L-4809.7,3569.4 L-4812.2,3567.1 L-4814.3,3565.0 L-4816.5,3562.4 L-4818.3,3560.0 L-4820.0,3557.6 L-4821.5,3554.9 L-4823.1,3551.3 L-4824.5,3548.0 L-4825.9,3544.4 L-4826.8,3541.6 L-4827.5,3539.0 L-4828.0,3536.3 L-4828.4,3532.1 L-4828.7,3528.4 L-4828.5,3524.4 L-4827.6,3519.1 L-4826.1,3513.9 L-4824.2,3508.5 L-4822.9,3506.0 L-4821.6,3504.5 L-4811.3,3491.4 L-4808.9,3488.7 L-4805.8,3487.2 L-4802.5,3486.0 L-4798.8,3485.2 L-4794.7,3484.7 L-4791.1,3484.5 L-4787.5,3484.6 L-4783.9,3485.0 L-4779.8,3486.2 L-4775.5,3488.3 L-4771.8,3490.6 L-4768.5,3493.2 L-4758.1,3502.8 L-4755.6,3503.6 L-4754.2,3503.9 L-4752.5,3503.5 L-4751.4,3503.1 L-4750.0,3501.5 L-4749.4,3499.9 L-4749.3,3497.7 L-4749.2,3495.7 L-4749.6,3494.8 L-4770.6,3474.0 L-4742.0,3443.5 L-4743.6,3439.9 L-4727.1,3423.6 L-4695.3,3455.4 L-4720.9,3488.0 L-4721.1,3489.9 L-4719.8,3490.7 L-4718.2,3490.3 L-4690.1,3455.1 L-4681.9,3445.2 L-4681.6,3442.9 L-4682.3,3440.9 L-4683.8,3439.1 L-4705.8,3418.3 L-4700.3,3411.9 L-4705.9,3407.2 L-4702.7,3399.8 L-4645.7,3342.5 L-4626.1,3339.2 L-4620.0,3338.3 L-4614.2,3337.5 L-4611.5,3336.8 L-4608.3,3335.1 L-4604.5,3333.0 L-4601.6,3330.1 L-4598.8,3326.6 L-4569.7,3284.3 L-4569.1,3283.2 L-4569.4,3281.8 L-4569.8,3280.8 L-4570.5,3279.9 L-4574.0,3277.7 L-4574.9,3277.2 L-4575.7,3277.3 L-4576.6,3277.8 L-4578.5,3279.2 L-4602.9,3302.0 L-4612.4,3308.8 L-4651.4,3268.8 L-4646.9,3254.6 L-4645.0,3250.4 L-4638.9,3239.2 L-4631.8,3226.7 L-4627.5,3221.9 L-4619.8,3213.7 L-4611.6,3204.7 L-4602.6,3195.2 L-4594.9,3188.6 L-4591.2,3185.3 L-4586.3,3181.7 L-4581.8,3179.3 L-4575.4,3176.4 L-4571.4,3175.0 L-4567.4,3173.8 L-4564.3,3173.5 L-4559.9,3173.8 L-4556.2,3174.3 L-4552.0,3175.5 L-4547.9,3178.9 L-4545.4,3182.4 L-4543.9,3186.0 L-4543.3,3191.4 L-4543.5,3198.5 L-4544.4,3206.5 L-4546.1,3214.2 L-4556.4,3237.2 L-4566.2,3257.9 L-4562.8,3263.4 L-4561.0,3264.5 L-4559.1,3264.5 L-4557.4,3264.1 L-4556.1,3263.3 L-4549.4,3253.8 L-4540.8,3249.5 L-4523.7,3203.8 L-4522.5,3201.5 L-4520.8,3199.5 L-4519.1,3198.6 L-4517.5,3198.2 L-4515.2,3198.2 L-4512.8,3198.8 L-4500.3,3202.3 L-4497.9,3202.8 L-4495.1,3202.9 L-4492.5,3202.5 L-4490.4,3201.6 L-4488.6,3200.2 L-4486.8,3197.9 L-4465.8,3169.8 L-4464.8,3167.7 L-4464.3,3165.5 L-4464.3,3163.4 L-4464.7,3161.2 L-4465.5,3159.6 L-4466.7,3158.0 L-4468.1,3156.7 L-4470.1,3155.7 L-4472.0,3155.2 L-4473.9,3155.1 L-4475.5,3155.4 L-4477.4,3156.3 L-4478.8,3157.3 L-4479.9,3158.7 L-4485.4,3167.6 L-4486.6,3169.3 L-4488.0,3170.9 L-4490.1,3172.7 L-4492.0,3173.8 L-4494.3,3174.5 L-4497.1,3175.1 L-4498.7,3175.1 L-4500.9,3174.8 L-4502.8,3174.3 L-4504.4,3173.6 L-4521.6,3158.0 L-4523.6,3155.6 L-4525.1,3153.4 L-4526.5,3150.7 L-4527.4,3148.4 L-4528.0,3146.0 L-4528.5,3143.4 L-4528.8,3140.2 L-4528.9,3137.0 L-4528.6,3134.3 L-4528.2,3132.0 L-4527.7,3130.0 L-4526.9,3128.3 L-4495.6,3078.6 L-4493.6,3075.3 L-4492.4,3073.6 L-4491.0,3072.8 L-4488.7,3071.8 L-4486.3,3071.1 L-4484.0,3070.7 L-4482.7,3070.7 L-4481.4,3070.9 L-4480.3,3071.3 L-4478.7,3072.1 L-4476.8,3073.3 L-4473.6,3075.9 L-4459.3,3089.3 L-4456.9,3092.7 L-4455.5,3096.0 L-4454.2,3099.9 L-4453.8,3102.9 L-4453.6,3106.1 L-4453.6,3108.8 L-4453.9,3111.5 L-4454.4,3114.2 L-4455.0,3116.0 L-4456.6,3119.7 L-4462.3,3130.3 L-4462.9,3132.7 L-4462.9,3135.6 L-4462.7,3137.8 L-4461.9,3139.5 L-4460.4,3141.1 L-4458.0,3142.8 L-4456.0,3143.9 L-4453.7,3144.4 L-4451.0,3144.3 L-4448.8,3143.8 L-4446.3,3142.5 L-4444.1,3140.5 L-4407.1,3089.7 L-4418.4,3079.5 L-4411.6,3072.2 L-4401.5,3081.9 L-4380.7,3054.6 L-4349.2,3012.5 L-4476.0,2891.0 L-4503.5,2919.9 L-4535.8,2889.4 L-4504.6,2855.8 L-4508.7,2851.3 L-4502.2,2845.3 L-4498.2,2849.4 L-4476.5,2825.8 L-4457.0,2843.9 L-4454.7,2858.9 L-4372.7,2935.4 L-4356.7,2941.6 L-4343.9,2937.1 L-4319.6,2946.8 L-4303.5,2940.9 L-4255.6,2882.4 L-4252.9,2876.9 L-4252.1,2869.5 L-4254.5,2862.2 L-4257.7,2857.0 L-4286.1,2830.8 L-4285.7,2823.6 L-4280.1,2809.5 L-4268.9,2788.6 L-4291.0,2774.3 L-4282.6,2771.1 L-4277.3,2767.7 L-4272.0,2761.7 L-4265.8,2745.8 L-4254.4,2716.8 L-4247.0,2710.0 L-4317.2,2642.0 L-4332.6,2651.6 L-4336.2,2652.5 L-4339.6,2652.6 L-4344.0,2652.1 L-4347.6,2651.1 L-4351.1,2649.0 L-4354.0,2646.5 L-4390.3,2611.5 L-4397.1,2604.7 L-4400.1,2601.1 L-4402.6,2596.6 L-4403.8,2592.5 L-4404.3,2588.5 L-4404.2,2584.7 L-4403.5,2581.1 L-4402.6,2578.2 L-4401.4,2576.1 L-4398.8,2572.4 L-4395.7,2568.7 L-4379.4,2551.8 L-4255.4,2666.7 L-4263.9,2676.3 L-4172.0,2763.2 L-4066.1,2608.1 L-4133.3,2545.3 L-4141.9,2553.0 L-4267.4,2434.5 L-4251.0,2419.2 L-4178.9,2486.8 L-4171.7,2476.2 L-4167.7,2470.9 L-4162.6,2465.7 L-4156.7,2459.2 L-4150.7,2455.3 L-4141.2,2447.3 L-4131.7,2438.5 L-4113.5,2421.3 L-4070.0,2372.4 L-4062.2,2364.3 L-4033.5,2349.6 L-4006.3,2328.3 L-4003.7,2326.3 L-3996.6,2320.8 L-3993.5,2318.0 L-3991.0,2314.8 L-3989.3,2311.5 L-3988.2,2308.2 L-3986.9,2305.7 L-3985.4,2303.0 L-3982.8,2298.7 L-3981.0,2296.0 L-3979.2,2293.5 L-3975.9,2290.9 L-3972.7,2288.7 L-3969.2,2286.6 L-3960.9,2282.6 L-3952.9,2278.6 L-3951.7,2278.4 L-3950.5,2278.6 L-3948.1,2279.3 L-3941.6,2282.6 L-3936.7,2285.0 L-3934.4,2286.4 L-3932.3,2288.1 L-3898.9,2319.8 L-3896.6,2321.1 L-3885.7,2324.0 L-3882.2,2325.0 L-3878.3,2325.4 L-3875.3,2325.3 L-3873.0,2324.5 L-3870.7,2322.9 L-3858.8,2306.1 L-3858.8,2303.8 L-3859.2,2301.7 L-3860.5,2299.4 L-3862.5,2297.2 L-3871.6,2288.7 L-3870.9,2287.3 L-3859.2,2262.5 L-3839.2,2222.2 L-3821.0,2208.8 L-3810.5,2198.3 L-3803.3,2190.0 L-3795.7,2182.3 L-3787.3,2175.4 L-3782.2,2170.7 L-3776.8,2165.8 L-3772.8,2161.8 L-3770.8,2158.2 L-3769.2,2155.4 L-3768.2,2152.7 L-3767.8,2149.5 L-3767.6,2146.3 L-3761.5,2140.1 L-3752.5,2131.6 L-3737.5,2119.3 L-3721.8,2107.4 L-3714.8,2097.6 L-3712.2,2087.5 L-3704.4,2082.7 L-3694.6,2082.5 L-3684.7,2076.6 L-3676.0,2060.9 L-3676.2,2044.6 L-3674.6,2019.4 L-3672.1,2015.8 L-3670.6,2013.4 L-3667.8,2008.8 L-3671.3,1998.1 L-3667.3,1993.1 L-3647.5,1968.6 L-3613.5,1928.9 L-3607.0,1919.5 L-3604.4,1914.6 L-3593.6,1899.7 L-3590.6,1890.3 L-3590.5,1875.8 L-3590.9,1861.3 L-3591.0,1846.5 L-3586.6,1830.2 L-3579.2,1814.1 L-3568.6,1798.6 L-3560.9,1787.1 L-3551.8,1775.6 L-3534.2,1756.0 L-3456.2,1717.4 L-3445.9,1714.7 L-3443.3,1720.3 L-3440.2,1725.7 L-3439.2,1726.7 L-3437.5,1726.0 L-3437.2,1722.2 L-3438.4,1719.0 L-3434.1,1717.7 L-3418.1,1713.0 L-3397.3,1706.8 L-3380.5,1701.8 L-3374.5,1700.0 L-3380.5,1681.1 L-3370.1,1678.3 L-3352.8,1675.9 L-3350.7,1675.6 L-3350.6,1674.4 L-3350.6,1670.0 L-3334.9,1669.3 L-3310.3,1668.3 L-3300.8,1672.9 L-3277.1,1758.3 L-3271.8,1763.4 L-3282.1,1774.0 L-3273.0,1783.0 L-3264.0,1792.0 L-3253.2,1781.0 L-3052.7,1971.6 L-2785.1,1686.0 L-2691.6,1775.4 L-2688.0,1774.3 L-2686.6,1775.9 L-2680.3,1771.9 L-2675.1,1770.0 L-2669.6,1767.5 L-2660.2,1762.6 L-2654.4,1759.3 L-2647.5,1755.3 L-2641.1,1751.3 L-2635.9,1747.9 L-2631.1,1744.8 L-2625.5,1740.7 L-2619.1,1736.0 L-2614.2,1731.9 L-2609.0,1727.3 L-2603.3,1721.9 L-2597.9,1716.5 L-2585.3,1703.1 L-2577.7,1694.0 L-2570.3,1684.1 L-2565.2,1676.9 L-2560.4,1669.5 L-2554.7,1659.2 L-2549.7,1649.1 L-2545.7,1640.8 L-2542.3,1632.5 L-2540.2,1627.0 L-2537.9,1620.8 L-2532.5,1614.1 L-2703.5,1451.4 L-2701.4,1449.1 L-2680.9,1427.1 L-2666.0,1411.3 L-2664.5,1409.7 L-2621.1,1450.3 L-2610.6,1444.9 L-2609.4,1446.4 L-2507.4,1393.3 L-2503.2,1391.1 L-2500.3,1388.8 L-2497.6,1386.3 L-2494.5,1383.1 L-2491.5,1378.6 L-2488.9,1374.4 L-2487.2,1371.2 L-2486.0,1367.1 L-2484.9,1362.6 L-2484.4,1357.7 L-2484.4,1352.2 L-2484.8,1347.8 L-2485.6,1343.9 L-2486.9,1339.2 L-2518.8,1247.4 L-2523.1,1232.3 L-2522.0,1227.1 L-2599.0,1208.0 L-2595.4,1194.7 L-2592.4,1182.7 L-2569.6,1092.5 L-2587.3,1039.9 L-2597.7,1005.9 L-2600.7,997.4 L-2573.1,972.1 L-2542.0,955.4 L-2540.1,958.0 L-2537.1,962.3 L-2530.1,971.4 L-2529.3,970.6 L-2529.1,967.5 L-2538.8,954.1 L-2521.5,941.7 L-2517.7,939.5 L-2508.7,951.2 L-2507.2,952.3 L-2505.7,952.6 L-2504.9,952.4 L-2504.9,951.6 L-2547.7,893.0 L-2550.8,889.6 L-2554.4,884.7 L-2573.0,862.2 L-2557.1,812.9 L-2544.9,800.2 L-2530.8,793.6 L-2500.8,775.8 L-2494.6,769.4 L-2467.7,745.8 L-2459.2,754.7 L-2434.3,781.6 L-2411.2,762.2 L-2395.7,777.1 L-2381.8,790.7 L-2381.1,791.4 L-2369.3,781.3 L-2353.7,797.9 L-2340.3,815.1 L-2330.4,826.6 L-2329.1,828.1 L-2300.3,802.8 L-2298.8,801.5 L-2305.6,793.2 L-2289.9,780.3 L-2242.3,835.8 L-2201.8,809.1 L-2197.8,805.3 L-2180.2,797.9 L-2176.2,794.0 L-2172.4,789.0 L-2150.7,769.7 L-2155.6,763.0 L-2194.4,771.9 L-2238.8,721.4 L-2233.7,717.0 L-2227.0,724.8 L-2195.6,697.8 L-2162.3,734.2 L-2153.3,737.8 L-2147.9,740.9 L-2141.1,748.6 L-2137.4,745.3 L-2161.5,717.9 L-2146.7,705.1 L-2116.8,741.0 L-2113.0,738.2 L-2113.4,737.4 L-2047.8,690.0 L-2028.3,675.6 L-2092.0,596.0 L-2078.4,586.5 L-2023.0,651.4 L-1982.1,658.9 L-1955.1,643.1 L-1951.3,640.7 L-1951.5,637.7 L-1953.4,634.2 L-1932.3,620.9 L-1926.1,627.1 L-1908.3,616.6 L-1921.2,600.6 L-1983.5,517.3 L-1939.5,471.7 L-1910.6,429.0 L-1909.9,395.6 L-1925.3,351.2 L-1892.9,324.2 L-1858.9,311.1 L-1847.7,308.5 L-1838.7,307.3 L-1827.7,308.0 L-1816.3,310.8 L-1799.8,324.9 L-1757.0,377.1 L-1722.8,420.5 L-1681.9,447.8 L-1665.8,450.4 L-1651.4,452.1 L-1639.2,452.6 L-1623.6,451.5 L-1606.7,448.7 L-1593.0,444.8 L-1581.4,439.4 L-1573.7,434.9 L-1568.0,428.9 L-1558.4,417.3 L-1548.0,398.3 L-1536.7,373.1 L-1516.6,383.4 L-1508.6,386.1 L-1500.0,387.3 L-1486.3,386.4 L-1477.2,383.7 L-1466.8,379.2 L-1457.1,373.6 L-1446.8,363.6 L-1438.0,355.6 L-1427.0,348.1 L-1419.4,343.2 L-1408.2,339.2 L-1388.9,333.6 L-1377.5,330.4 L-1365.3,325.8 L-1354.7,320.3 L-1348.4,316.7 L-1343.4,311.5 L-1278.0,278.7 L-1275.5,277.3 L-1272.6,275.5 L-1269.6,273.2 L-1265.2,270.7 L-1262.3,269.3 L-1259.2,266.6 L-1256.8,264.1 L-1253.6,262.0 L-1250.2,259.6 L-1245.7,255.4 L-1239.3,254.9 L-1232.7,254.1 L-1228.4,252.7 L-1222.8,250.1 L-1215.9,247.0 L-1208.6,242.5 L-1204.5,238.6 L-1199.9,233.3 L-1197.0,228.4 L-1195.4,223.9 L-1195.3,220.7 L-1195.2,218.1 L-1193.6,207.7 L-1157.2,186.6 L-1093.4,149.8 L-1081.0,142.7 L-972.8,80.3 L-855.6,13.0 L-805.7,-15.6 L-788.4,-25.3 L-643.5,-109.5 L-611.3,-127.2 L-611.8,-128.3 L-545.5,-165.8 L-520.0,-180.1 L-473.0,-206.1 L-472.5,-205.4 L-454.3,-215.4 L-410.1,-240.1 L-404.8,-244.9 L-360.0,-277.7 L-337.7,-296.2 L-317.2,-313.5 L-307.8,-318.8 L-286.6,-339.8 L-284.8,-338.7 L-282.0,-339.0 L-280.6,-338.1 L-250.8,-373.0 L-258.3,-380.0 L-257.3,-381.8 L-254.1,-386.4 L-245.5,-397.3 L-240.3,-405.2 L-236.2,-411.7 L-230.5,-420.4 L-225.0,-429.4 L-218.8,-439.7 L-212.4,-450.9 L-198.5,-479.6 L-194.2,-488.7 L-190.7,-496.0 L-188.3,-501.5 L-186.2,-505.7 L-181.8,-516.7 L-297.6,-732.7 L-299.8,-736.8 L-301.5,-739.1 L-302.7,-740.8 L-304.3,-742.2 L-305.8,-743.2 L-307.8,-744.4 L-309.9,-745.2 L-311.7,-745.6 L-313.5,-745.8 L-316.2,-745.8 L-319.3,-745.3 L-322.0,-744.5 L-324.8,-743.1 L-351.7,-727.6 L-386.8,-707.5 L-411.3,-693.9 L-456.0,-669.3 L-483.4,-654.4 L-482.4,-652.7 L-494.1,-646.0 L-532.4,-626.2 L-560.8,-609.4 L-577.5,-600.1 L-602.9,-585.5 L-605.8,-583.5 L-628.1,-623.6 L-584.3,-647.6 L-524.5,-680.1 L-483.8,-702.7 L-478.8,-705.6 L-479.5,-706.7 L-444.3,-725.9 L-425.6,-736.2 L-382.7,-757.1 L-374.5,-761.3 L-309.8,-797.3 L-285.5,-810.7 L-268.4,-819.9 L-248.2,-831.5 L-220.2,-780.9 L-264.2,-756.8 L-266.5,-753.1 L-267.4,-749.2 L-267.8,-746.2 L-267.9,-743.6 L-267.7,-741.5 L-266.9,-738.6 L-177.2,-572.7 L-175.5,-570.2 L-173.5,-568.3 L-171.5,-567.0 L-169.4,-566.3 L-167.1,-566.0 L-164.9,-566.2 L-163.2,-566.7 L-123.4,-596.9 L-104.7,-612.6 L-85.4,-628.9 L-78.1,-635.6 L-54.2,-655.2 L-53.1,-655.2 L-29.9,-675.0 L-29.8,-676.2 L-14.6,-688.7 L-2.6,-698.5 L18.0,-715.5 L19.9,-713.2 L40.1,-729.9 L50.3,-738.4 L78.6,-761.9 L98.3,-778.3 L96.4,-781.1 L102.9,-786.6 L113.6,-795.4 L120.2,-801.2 L148.1,-813.7 L167.0,-820.3 L176.7,-824.9 L203.9,-825.1 L213.4,-825.1 L233.5,-824.1 L257.0,-823.1 L258.7,-824.7 L261.0,-821.7 L268.4,-821.3 L335.7,-815.5 L343.6,-813.8 L350.5,-812.7 L366.1,-811.4 L395.2,-810.0 L401.6,-809.9 L407.6,-810.1 L430.9,-811.0 L442.9,-811.6 L454.8,-812.7 L473.1,-814.6 L473.0,-813.5 L487.5,-816.0 L501.2,-818.6 L511.7,-820.5 L525.5,-830.9 L527.1,-828.7 L528.8,-826.3 L650.4,-665.5 L943.9,-564.3 L1482.5,-959.9 L1629.3,-1065.6 L1686.0,-1186.6 L1595.8,-1304.8 L1599.8,-1321.7 L1615.6,-1326.0 L1646.0,-1319.7 L1667.6,-1327.8 L1673.6,-1336.2 L1672.3,-1343.5 L1656.2,-1375.1 L1655.1,-1386.9 L1654.2,-1410.3 L1651.4,-1432.9 L1654.2,-1436.9 L1663.3,-1441.3 L1674.4,-1443.8 L1682.4,-1452.4 L1684.2,-1462.8 L1677.4,-1482.9 L1676.7,-1496.8 L1678.9,-1512.6 L1689.9,-1540.3 L1687.6,-1553.1 L1682.1,-1567.4 L1681.9,-1586.8 L1678.7,-1612.4 L1672.9,-1628.4 L1669.3,-1636.8 L1671.7,-1640.5 L1674.0,-1640.3 L1674.6,-1641.8 L1674.9,-1643.8 L1674.8,-1645.8 L1671.3,-1646.2 L1669.1,-1649.3 L1669.5,-1653.0 L1666.5,-1653.8 L1662.8,-1653.9 L1662.3,-1653.0 L1654.7,-1662.0 L1653.1,-1664.8 L1651.8,-1668.7 L1650.9,-1672.5 L1650.2,-1676.5 L1649.9,-1680.5 L1649.7,-1684.1 L1649.7,-1687.8 L1650.0,-1689.8 L1651.6,-1694.8 L1653.4,-1698.8 L1655.7,-1702.7 L1659.1,-1707.6 L1662.6,-1712.3 L1665.9,-1715.7 L1670.0,-1718.8 L1670.8,-1718.0 L1705.9,-1744.8 L1711.0,-1748.7 L1710.0,-1750.2 L1710.0,-1752.8 L1718.7,-1759.6 L1720.9,-1759.5 L1723.0,-1758.0 L1726.7,-1760.8 L1762.7,-1788.1 L1762.3,-1789.0 L1766.5,-1792.1 L1771.5,-1795.2 L1775.0,-1796.8 L1780.0,-1798.7 L1784.3,-1799.9 L1788.6,-1800.5 L1793.3,-1800.9 L1796.1,-1800.7 L1800.0,-1800.1 L1803.8,-1798.8 L1806.6,-1797.4 L1809.3,-1795.8 L1811.3,-1794.3 L1813.0,-1792.7 L1815.5,-1790.3 L1816.6,-1789.9 L1818.4,-1789.9 L1820.2,-1790.2 L1825.7,-1794.1 L1825.7,-1795.2 L1826.3,-1796.0 L1826.9,-1797.1 L1826.8,-1798.4 L1826.5,-1799.5 L1825.7,-1800.5 L1821.8,-1804.4 L1818.7,-1806.9 L1815.1,-1808.9 L1809.2,-1811.5 L1804.1,-1813.5 L1813.0,-1818.1 L1823.9,-1825.7 L1837.4,-1827.4 L1850.9,-1826.5 L1859.7,-1830.0 L1867.4,-1841.0 L1896.4,-1892.9 L1908.2,-1914.3 L1917.5,-1937.1 L1919.1,-1941.9 L1932.9,-1984.2 L1935.1,-1988.3 L1937.7,-1992.4 L1970.1,-2032.5 L1977.0,-2039.7 L1982.1,-2044.1 L2054.7,-2106.3 L2058.7,-2109.0 L2071.1,-2115.8 L2086.0,-2124.2 L2132.4,-2148.5 L2233.5,-2202.8 L2235.9,-2200.9 L2237.8,-2200.2 L2239.5,-2199.7 L2241.3,-2200.0 L2243.2,-2200.4 L2248.6,-2201.5 L2254.9,-2202.9 L2260.6,-2204.2 L2266.5,-2205.3 L2269.7,-2206.0 L2274.1,-2207.3 L2279.1,-2209.4 L2291.2,-2216.0 L2295.6,-2218.4 L2297.9,-2219.8 L2300.2,-2220.8 L2309.6,-2224.8 L2319.9,-2228.8 L2332.9,-2234.4 L2348.2,-2240.7 L2348.8,-2241.0 L2350.1,-2241.1 L2351.8,-2241.6 L2354.2,-2243.4 L2356.9,-2244.4 L2359.9,-2245.9 L2365.5,-2249.1 L2367.5,-2251.1 L2370.8,-2253.2 L2370.5,-2253.8 L2371.9,-2255.5 L2373.7,-2257.4 L2376.7,-2258.9 L2379.2,-2259.9 L2381.9,-2260.9 L2384.4,-2262.2 L2389.3,-2265.3 L2390.7,-2266.7 L2392.1,-2268.9 L2392.7,-2270.5 L2392.9,-2272.1 L2392.7,-2273.6 L2393.0,-2275.1 L2379.0,-2292.0 L2423.1,-2317.9 L2444.0,-2329.0 L2448.1,-2330.3 L2454.5,-2329.1 L2461.6,-2319.2 L2464.8,-2316.4 L2467.7,-2315.0 L2470.4,-2314.4 L2472.9,-2314.5 L2510.7,-2330.1 L2521.0,-2335.1 L2530.6,-2340.4 L2546.1,-2348.6 L2549.3,-2349.7 L2764.1,-2439.0 L2831.3,-2471.3 L3131.8,-2615.6 L10144.9,-2673.6 L10144.9,7362.0 L-4842.8,7362.0 L-4842.8,6935.5 Z" fill="#add7e1" stroke="none"><title>Biscayne Bay</title></path><path d="M61.3,-24.1 L2.1,35.1 L6.3,58.3 L66.0,6.3 L61.3,-24.1 Z" fill="#e8ecec" stroke="#d7d1c5" stroke-width="0.3"></path><path d="M166.9,149.3 L162.7,120.0 L100.7,128.8 L88.8,44.8 L82.0,45.8 L80.6,35.3 L64.0,37.7 L65.4,47.8 L56.1,49.1 L71.0,154.9 L83.7,153.1 L84.8,160.9 L166.9,149.3 Z" fill="#e8ecec" stroke="#d7d1c5" stroke-width="0.3"></path><path d="M206.2,-96.8 L221.0,0.4 L232.3,-1.3 L234.0,9.8 L318.4,-3.1 L315.8,-19.9 L313.1,-37.5 L263.5,-30.5 L253.9,-28.5 L255.3,-19.3 L246.5,-17.9 L242.7,-21.3 L241.5,-28.7 L249.8,-29.9 L237.7,-109.7 L229.1,-108.4 L227.6,-118.0 L214.3,-115.9 L216.9,-98.4 L206.2,-96.8 Z" fill="#e8ecec" stroke="#d7d1c5" stroke-width="0.3"></path><path d="M-187.4,187.6 L-181.0,213.3 L-171.1,238.7 L-158.1,261.4 L-139.9,286.3 L-118.7,308.7 L-94.4,324.6 L-61.4,340.5 L-31.7,348.5 L0.3,351.9 L42.4,349.3 L79.1,338.6 L107.8,325.0 L132.4,308.1 L170.7,269.2 L260.1,176.2 L328.5,106.4 L376.5,57.0 L424.2,8.0 L440.7,-9.4 L455.3,-31.0 L469.0,-58.4 L476.3,-82.8 L482.2,-119.1 L482.1,-150.0 L476.8,-183.9 L466.6,-213.4 L454.9,-236.8 L439.0,-258.7 L416.2,-282.4 L399.7,-294.8 L380.7,-307.3 L358.4,-319.0 L335.8,-327.1 L309.9,-332.1 L281.6,-333.3 L249.8,-330.3 L216.8,-321.1 L179.4,-303.3 L147.7,-277.2 L89.0,-217.7 L30.2,-154.7 L-30.3,-95.3 L-77.9,-44.8 L-88.8,-32.9 L-148.0,27.3 L-173.6,59.8 L-185.8,75.8 L-216.5,117.2 L-220.7,127.6 L-220.3,137.6 L-210.9,142.0 L-203.4,155.8 L-207.9,189.0 L-187.4,187.6 Z" fill="#f1efe7" stroke="#8ab09d" stroke-width="0.65"><title>Grove Isle</title></path><path d="M222.2,-234.1 L194.6,-296.3 L162.1,-281.9 L167.2,-270.3 L137.7,-257.3 L143.5,-244.2 L113.7,-231.0 L119.5,-217.8 L90.8,-205.1 L96.4,-192.5 L63.2,-177.7 L68.1,-166.4 L35.5,-152.0 L41.6,-138.3 L0.4,-120.0 L6.6,-105.9 L-22.7,-92.9 L-16.9,-79.7 L-47.1,-66.4 L-41.1,-52.9 L-73.0,-38.8 L-67.7,-26.9 L-98.2,-13.3 L-91.9,0.8 L-121.1,13.8 L-96.3,69.6 L-70.7,58.3 L-74.0,50.7 L-42.8,36.9 L-48.2,24.7 L-15.0,9.9 L-20.5,-2.4 L9.1,-15.6 L3.5,-28.2 L36.4,-42.8 L30.5,-55.9 L62.9,-70.4 L52.8,-92.8 L60.6,-96.3 L64.7,-87.2 L94.7,-100.5 L88.7,-113.8 L120.4,-127.9 L114.9,-140.2 L147.1,-154.5 L142.3,-165.2 L174.5,-179.5 L169.1,-191.6 L201.0,-205.8 L194.0,-221.5 L222.2,-234.1 Z" fill="#d5f2cb" stroke="#9fcf91" stroke-width="0.4"></path><path d="M222.2,-234.1 L194.6,-296.3 L162.1,-281.9 L167.2,-270.3 L137.7,-257.3 L143.5,-244.2 L113.7,-231.0 L119.5,-217.8 L90.8,-205.1 L96.4,-192.5 L63.2,-177.7 L68.1,-166.4 L35.5,-152.0 L41.6,-138.3 L0.4,-120.0 L6.6,-105.9 L-22.7,-92.9 L-16.9,-79.7 L-47.1,-66.4 L-41.1,-52.9 L-73.0,-38.8 L-67.7,-26.9 L-98.2,-13.3 L-91.9,0.8 L-121.1,13.8 L-96.3,69.6 L-70.7,58.3 L-74.0,50.7 L-42.8,36.9 L-48.2,24.7 L-15.0,9.9 L-20.5,-2.4 L9.1,-15.6 L3.5,-28.2 L36.4,-42.8 L30.5,-55.9 L62.9,-70.4 L52.8,-92.8 L60.6,-96.3 L64.7,-87.2 L94.7,-100.5 L88.7,-113.8 L120.4,-127.9 L114.9,-140.2 L147.1,-154.5 L142.3,-165.2 L174.5,-179.5 L169.1,-191.6 L201.0,-205.8 L194.0,-221.5 L222.2,-234.1 Z" fill="url(#park-dots)" stroke="none"/><path d="M222.2,-234.1 L194.6,-296.3 L162.1,-281.9 L167.2,-270.3 L137.7,-257.3 L143.5,-244.2 L113.7,-231.0 L119.5,-217.8 L90.8,-205.1 L96.4,-192.5 L63.2,-177.7 L68.1,-166.4 L35.5,-152.0 L41.6,-138.3 L0.4,-120.0 L6.6,-105.9 L-22.7,-92.9 L-16.9,-79.7 L-47.1,-66.4 L-41.1,-52.9 L-73.0,-38.8 L-67.7,-26.9 L-98.2,-13.3 L-91.9,0.8 L-121.1,13.8 L-96.3,69.6 L-70.7,58.3 L-74.0,50.7 L-42.8,36.9 L-48.2,24.7 L-15.0,9.9 L-20.5,-2.4 L9.1,-15.6 L3.5,-28.2 L36.4,-42.8 L30.5,-55.9 L62.9,-70.4 L52.8,-92.8 L60.6,-96.3 L64.7,-87.2 L94.7,-100.5 L88.7,-113.8 L120.4,-127.9 L114.9,-140.2 L147.1,-154.5 L142.3,-165.2 L174.5,-179.5 L169.1,-191.6 L201.0,-205.8 L194.0,-221.5 L222.2,-234.1 Z" fill="url(#park-canopy)" stroke="none"/><path d="M284.1,116.1 L274.8,106.7 L269.5,101.4 L234.6,136.0 L249.2,150.7 L284.1,116.1 Z" fill="#ead9a5" stroke="#d3bb7d" stroke-width="0.45"></path><path d="M-63.7,95.9 L-38.9,276.8 L12.3,269.4 L-5.5,155.9 L-12.3,106.0 L-13.6,96.6 L-14.6,89.2 L-63.7,95.9 Z" fill="#d6d2c9" stroke="#bab6ad" stroke-width="0.4"><title>One Grove Island Drive</title></path><path d="M127.2,-69.1 L128.0,-64.1 L135.8,-65.2 L145.2,-0.5 L147.8,17.5 L148.9,24.9 L154.3,62.3 L156.1,75.2 L161.0,108.6 L153.1,109.7 L153.5,112.7 L140.0,114.7 L139.7,112.1 L124.1,114.4 L123.8,112.4 L115.5,113.6 L90.4,-59.9 L96.2,-60.8 L95.7,-64.5 L127.2,-69.1 Z" fill="#d6d2c9" stroke="#bab6ad" stroke-width="0.4"><title>Two Grove Island Drive</title></path><path d="M345.1,-147.9 L347.2,-140.6 L346.9,-137.0 L349.5,-119.9 L350.5,-111.7 L363.0,-25.1 L365.8,-9.4 L365.9,-1.4 L355.1,-0.3 L335.3,3.5 L326.0,5.5 L328.2,19.3 L324.5,27.0 L305.7,47.1 L306.3,57.6 L280.5,83.1 L262.2,84.5 L229.0,124.6 L213.1,126.9 L215.1,141.4 L207.3,150.8 L195.1,151.7 L195.9,160.4 L177.2,161.7 L179.9,177.2 L174.3,179.9 L154.3,199.5 L156.1,210.4 L133.0,236.5 L114.5,239.9 L114.3,242.0 L114.1,243.3 L108.6,243.9 L108.3,251.0 L83.5,254.6 L85.5,269.7 L75.7,270.7 L76.4,280.1 L63.4,282.4 L65.2,292.7 L18.8,300.8 L17.7,294.6 L17.4,293.3 L15.3,281.9 L14.1,275.4 L12.3,269.4 L-5.5,155.9 L7.0,155.0 L5.8,136.7 L25.9,115.9 L24.2,100.5 L21.0,73.1 L30.1,71.1 L26.8,48.4 L54.8,44.3 L54.3,40.7 L89.8,36.0 L101.7,126.4 L163.5,119.1 L161.0,108.6 L156.1,75.2 L154.3,62.3 L148.9,24.9 L147.8,17.5 L145.2,-0.5 L156.0,-2.1 L156.1,-15.6 L174.3,-40.9 L168.6,-80.9 L182.2,-83.2 L180.9,-90.5 L206.3,-94.7 L216.1,-96.1 L212.6,-117.0 L239.8,-121.5 L253.9,-28.5 L263.5,-30.5 L313.1,-37.5 L304.8,-89.3 L303.8,-100.9 L294.5,-160.5 L315.7,-163.0 L342.7,-166.3 L345.1,-147.9 Z" fill="#d6d2c9" stroke="#bab6ad" stroke-width="0.4"></path><path d="M112.2,200.9 L113.9,212.2 L119.1,211.3 L120.3,218.9 L136.9,216.3 L135.8,209.5 L148.2,207.5 L146.3,195.3 L132.2,197.5 L131.4,192.8 L122.3,194.3 L123.1,199.2 L112.2,200.9 Z" fill="#e0e9e8" stroke="#91b7bc" stroke-width="0.55"></path><path d="M120.3,224.8 L120.8,232.0 L128.3,231.5 L127.7,224.2 L120.3,224.8 Z" fill="#e0e9e8" stroke="#91b7bc" stroke-width="0.55"></path><path d="M81.4,307.5 L99.3,301.5 L115.4,288.2 L154.8,249.0 L184.0,223.5 L206.9,196.7 L207.9,195.6 L225.9,174.4 L232.0,169.6 L241.8,166.1 L261.0,162.2 L272.5,151.6 L286.7,137.5 L307.9,120.1" fill="none" stroke="#cf828d" stroke-width="1.5" stroke-dasharray="1.6 3.0" opacity="0.62" stroke-linecap="round" stroke-linejoin="round"></path><path d="M-28.0,-93.1 L-87.2,-31.3" fill="none" stroke="#cf828d" stroke-width="1.5" stroke-dasharray="1.6 3.0" opacity="0.62" stroke-linecap="round" stroke-linejoin="round"></path><path d="M177.5,180.2 L175.7,165.2" fill="none" stroke="#b87984" stroke-width="1.4" stroke-dasharray="1.6 3.0" opacity="0.62" stroke-linecap="round" stroke-linejoin="round"></path><path d="M179.2,151.9 L173.5,152.8" fill="none" stroke="#b87984" stroke-width="1.4" stroke-dasharray="1.6 3.0" opacity="0.62" stroke-linecap="round" stroke-linejoin="round"></path><path d="M183.6,150.7 L182.7,144.9" fill="none" stroke="#b87984" stroke-width="1.4" stroke-dasharray="1.6 3.0" opacity="0.62" stroke-linecap="round" stroke-linejoin="round"></path><path d="M207.9,195.6 L194.7,191.9 L185.9,187.5 L180.4,183.9 L177.5,180.2" fill="none" stroke="#cf828d" stroke-width="1.5" stroke-dasharray="1.6 3.0" opacity="0.62" stroke-linecap="round" stroke-linejoin="round"></path><path d="M116.1,241.7 L132.4,239.2" fill="none" stroke="#b87984" stroke-width="1.4" stroke-dasharray="1.6 3.0" opacity="0.62" stroke-linecap="round" stroke-linejoin="round"></path><path d="M132.4,239.2 L141.7,237.2 L146.8,239.3 L150.0,242.7 L154.8,249.0" fill="none" stroke="#cf828d" stroke-width="1.5" stroke-dasharray="1.6 3.0" opacity="0.62" stroke-linecap="round" stroke-linejoin="round"></path><path d="M179.2,151.9 L183.6,150.7" fill="none" stroke="#cf828d" stroke-width="1.5" stroke-dasharray="1.6 3.0" opacity="0.62" stroke-linecap="round" stroke-linejoin="round"></path><path d="M196.2,-60.9 L188.4,-47.8 L189.8,-42.3 L192.4,-32.4 L193.6,-27.7 L190.3,-16.3 L188.4,-15.5 L174.6,-9.5 L170.9,-6.4 L165.9,-2.1 L151.4,6.4 L150.1,14.8 L154.7,41.5 L170.2,50.5 L175.7,48.5 L185.7,44.7 L185.7,41.9 L186.4,21.0 L199.6,12.6 L188.4,-15.5" fill="none" stroke="#cf828d" stroke-width="1.5" stroke-dasharray="1.6 3.0" opacity="0.62" stroke-linecap="round" stroke-linejoin="round"></path><path d="M165.9,-2.1 L186.4,21.0" fill="none" stroke="#cf828d" stroke-width="1.5" stroke-dasharray="1.6 3.0" opacity="0.62" stroke-linecap="round" stroke-linejoin="round"></path><path d="M192.4,-32.4 L205.4,-33.2 L212.9,-30.1 L214.6,-19.4 L216.8,-2.7 L212.2,4.4 L206.6,8.0 L199.6,12.6" fill="none" stroke="#cf828d" stroke-width="1.5" stroke-dasharray="1.6 3.0" opacity="0.62" stroke-linecap="round" stroke-linejoin="round"></path><path d="M206.6,8.0 L221.8,22.1" fill="none" stroke="#cf828d" stroke-width="1.5" stroke-dasharray="1.6 3.0" opacity="0.62" stroke-linecap="round" stroke-linejoin="round"></path><path d="M182.7,144.9 L189.6,130.0 L190.6,121.0 L188.5,104.2 L187.4,99.6 L186.2,93.8 L179.4,90.6 L173.3,87.7 L163.6,90.9" fill="none" stroke="#cf828d" stroke-width="1.5" stroke-dasharray="1.6 3.0" opacity="0.62" stroke-linecap="round" stroke-linejoin="round"></path><path d="M179.4,90.6 L175.6,67.4 L175.7,48.5" fill="none" stroke="#cf828d" stroke-width="1.5" stroke-dasharray="1.6 3.0" opacity="0.62" stroke-linecap="round" stroke-linejoin="round"></path><path d="M185.7,41.9 L195.1,48.1 L199.4,54.0 L203.4,70.8 L202.5,87.3 L187.4,99.6" fill="none" stroke="#cf828d" stroke-width="1.5" stroke-dasharray="1.6 3.0" opacity="0.62" stroke-linecap="round" stroke-linejoin="round"></path><path d="M195.1,48.1 L208.3,45.7 L209.5,55.0 L216.9,73.3 L227.1,81.2 L235.2,83.3 L244.7,81.1 L249.8,73.4 L250.2,64.8 L245.8,53.3 L236.6,46.9 L243.8,44.5 L248.3,48.4 L250.1,49.9 L257.4,60.3 L265.5,70.7 L268.8,79.9 L268.8,82.2" fill="none" stroke="#cf828d" stroke-width="1.5" stroke-dasharray="1.6 3.0" opacity="0.62" stroke-linecap="round" stroke-linejoin="round"></path><path d="M306.8,22.6 L299.6,28.9 L281.2,31.6 L262.8,37.4 L248.3,48.4" fill="none" stroke="#cf828d" stroke-width="1.5" stroke-dasharray="1.6 3.0" opacity="0.62" stroke-linecap="round" stroke-linejoin="round"></path><path d="M175.7,165.2 L174.0,164.9" fill="none" stroke="#cf828d" stroke-width="1.5" stroke-dasharray="1.6 3.0" opacity="0.62" stroke-linecap="round" stroke-linejoin="round"></path><path d="M116.1,241.7 L114.3,242.0" fill="none" stroke="#cf828d" stroke-width="1.5" stroke-dasharray="1.6 3.0" opacity="0.62" stroke-linecap="round" stroke-linejoin="round"></path><path d="M42.9,116.9 L26.0,124.3 L20.1,134.4 L20.7,146.8 L20.6,151.6 L20.5,157.4 L31.2,173.1 L39.3,178.5" fill="none" stroke="#cf828d" stroke-width="1.5" stroke-dasharray="1.6 3.0" opacity="0.62" stroke-linecap="round" stroke-linejoin="round"></path><path d="M42.9,116.9 L42.4,141.0 L41.0,142.6 L39.8,144.2 L26.5,148.2 L20.6,151.6" fill="none" stroke="#cf828d" stroke-width="1.5" stroke-dasharray="1.6 3.0" opacity="0.62" stroke-linecap="round" stroke-linejoin="round"></path><path d="M20.5,157.4 L5.3,161.6 L4.0,167.5 L4.7,187.0 L8.7,200.7 L15.6,208.9" fill="none" stroke="#cf828d" stroke-width="1.5" stroke-dasharray="1.6 3.0" opacity="0.62" stroke-linecap="round" stroke-linejoin="round"></path><path d="M41.0,142.6 L45.9,155.4 L50.9,166.2 L48.2,170.7 L39.3,178.5 L37.8,193.8 L42.1,197.9 L46.0,201.9 L57.8,201.6 L63.8,199.7" fill="none" stroke="#cf828d" stroke-width="1.5" stroke-dasharray="1.6 3.0" opacity="0.62" stroke-linecap="round" stroke-linejoin="round"></path><path d="M63.8,199.7 L77.7,199.2" fill="none" stroke="#b87984" stroke-width="1.4" stroke-dasharray="1.6 3.0" opacity="0.62" stroke-linecap="round" stroke-linejoin="round"></path><path d="M64.9,224.7 L75.5,236.7 L91.5,239.3 L100.7,235.1 L102.7,229.4 L102.7,217.5 L97.5,207.7 L89.1,203.5" fill="none" stroke="#cf828d" stroke-width="1.5" stroke-dasharray="1.6 3.0" opacity="0.62" stroke-linecap="round" stroke-linejoin="round"></path><path d="M15.6,208.9 L36.3,204.5 L42.1,197.9" fill="none" stroke="#cf828d" stroke-width="1.5" stroke-dasharray="1.6 3.0" opacity="0.62" stroke-linecap="round" stroke-linejoin="round"></path><path d="M15.6,208.9 L31.2,238.9 L42.9,251.8 L45.7,281.0" fill="none" stroke="#cf828d" stroke-width="1.5" stroke-dasharray="1.6 3.0" opacity="0.62" stroke-linecap="round" stroke-linejoin="round"></path><path d="M57.8,201.6 L60.9,206.5 L64.9,224.7" fill="none" stroke="#cf828d" stroke-width="1.5" stroke-dasharray="1.6 3.0" opacity="0.62" stroke-linecap="round" stroke-linejoin="round"></path><path d="M-26.4,31.4 L-16.7,41.3 L-5.7,52.8 L0.8,79.6 L3.1,94.4 L4.5,103.5" fill="none" stroke="#cec8bb" stroke-width="3.5" stroke-linecap="round" stroke-linejoin="round"/><path d="M-26.4,31.4 L-16.7,41.3 L-5.7,52.8 L0.8,79.6 L3.1,94.4 L4.5,103.5" fill="none" stroke="#ffffff" stroke-width="2.5" stroke-linecap="round" stroke-linejoin="round"></path><path d="M-5.7,52.8 L73.1,-15.7 L82.0,-21.9" fill="none" stroke="#cec8bb" stroke-width="3.5" stroke-linecap="round" stroke-linejoin="round"/><path d="M-5.7,52.8 L73.1,-15.7 L82.0,-21.9" fill="none" stroke="#ffffff" stroke-width="2.5" stroke-linecap="round" stroke-linejoin="round"></path><path d="M48.9,-45.5 L59.2,-36.3 L67.9,-27.0 L73.1,-15.7 L76.6,3.8" fill="none" stroke="#cec8bb" stroke-width="3.5" stroke-linecap="round" stroke-linejoin="round"/><path d="M48.9,-45.5 L59.2,-36.3 L67.9,-27.0 L73.1,-15.7 L76.6,3.8" fill="none" stroke="#ffffff" stroke-width="2.5" stroke-linecap="round" stroke-linejoin="round"></path><path d="M106.5,79.9 L103.0,78.2 L98.9,72.2 L92.9,34.9 L82.0,-21.9 L79.1,-39.4 L73.3,-50.8" fill="none" stroke="#cec8bb" stroke-width="3.5" stroke-linecap="round" stroke-linejoin="round"/><path d="M106.5,79.9 L103.0,78.2 L98.9,72.2 L92.9,34.9 L82.0,-21.9 L79.1,-39.4 L73.3,-50.8" fill="none" stroke="#ffffff" stroke-width="2.5" stroke-linecap="round" stroke-linejoin="round"></path><path d="M76.6,3.8 L69.1,11.6" fill="none" stroke="#cec8bb" stroke-width="3.5" stroke-linecap="round" stroke-linejoin="round"/><path d="M76.6,3.8 L69.1,11.6" fill="none" stroke="#ffffff" stroke-width="2.5" stroke-linecap="round" stroke-linejoin="round"></path><path d="M24.2,100.5 L4.5,103.5 L-12.3,106.0" fill="none" stroke="#cec8bb" stroke-width="3.5" stroke-linecap="round" stroke-linejoin="round"/><path d="M24.2,100.5 L4.5,103.5 L-12.3,106.0" fill="none" stroke="#ffffff" stroke-width="2.5" stroke-linecap="round" stroke-linejoin="round"></path><path d="M63.4,60.2 L75.4,58.6 L84.1,128.3 L87.6,136.2 L94.0,140.6 L102.3,142.0 L162.4,132.5" fill="none" stroke="#cec8bb" stroke-width="3.5" stroke-linecap="round" stroke-linejoin="round"/><path d="M63.4,60.2 L75.4,58.6 L84.1,128.3 L87.6,136.2 L94.0,140.6 L102.3,142.0 L162.4,132.5" fill="none" stroke="#ffffff" stroke-width="2.5" stroke-linecap="round" stroke-linejoin="round"></path><path d="M13.5,69.9 L0.8,79.6" fill="none" stroke="#cec8bb" stroke-width="3.5" stroke-linecap="round" stroke-linejoin="round"/><path d="M13.5,69.9 L0.8,79.6" fill="none" stroke="#ffffff" stroke-width="2.5" stroke-linecap="round" stroke-linejoin="round"></path><path d="M48.2,61.3 L44.8,54.2 L40.1,49.8 L33.0,51.4 L20.8,61.6 L13.5,69.9" fill="none" stroke="#cec8bb" stroke-width="3.5" stroke-linecap="round" stroke-linejoin="round"/><path d="M48.2,61.3 L44.8,54.2 L40.1,49.8 L33.0,51.4 L20.8,61.6 L13.5,69.9" fill="none" stroke="#ffffff" stroke-width="2.5" stroke-linecap="round" stroke-linejoin="round"></path><path d="M61.2,47.2 L63.4,60.2 L53.7,61.8 L48.2,61.3" fill="none" stroke="#cec8bb" stroke-width="3.5" stroke-linecap="round" stroke-linejoin="round"/><path d="M61.2,47.2 L63.4,60.2 L53.7,61.8 L48.2,61.3" fill="none" stroke="#ffffff" stroke-width="2.5" stroke-linecap="round" stroke-linejoin="round"></path><path d="M69.1,11.6 L63.7,16.6 L59.0,23.4 L59.0,35.6 L61.2,47.2" fill="none" stroke="#cec8bb" stroke-width="3.5" stroke-linecap="round" stroke-linejoin="round"/><path d="M69.1,11.6 L63.7,16.6 L59.0,23.4 L59.0,35.6 L61.2,47.2" fill="none" stroke="#ffffff" stroke-width="2.5" stroke-linecap="round" stroke-linejoin="round"></path><path d="M140.3,-47.5 L133.0,-45.8 L157.9,131.7 L89.2,142.3 L74.5,34.0" fill="none" stroke="#cec8bb" stroke-width="3.5" stroke-linecap="round" stroke-linejoin="round"/><path d="M140.3,-47.5 L133.0,-45.8 L157.9,131.7 L89.2,142.3 L74.5,34.0" fill="none" stroke="#ffffff" stroke-width="2.5" stroke-linecap="round" stroke-linejoin="round"></path><path d="M3.1,94.4 L-13.6,96.6" fill="none" stroke="#cec8bb" stroke-width="3.5" stroke-linecap="round" stroke-linejoin="round"/><path d="M3.1,94.4 L-13.6,96.6" fill="none" stroke="#ffffff" stroke-width="2.5" stroke-linecap="round" stroke-linejoin="round"></path><path d="M74.5,34.0 L76.3,19.2 L76.6,3.8" fill="none" stroke="#cec8bb" stroke-width="3.5" stroke-linecap="round" stroke-linejoin="round"/><path d="M74.5,34.0 L76.3,19.2 L76.6,3.8" fill="none" stroke="#ffffff" stroke-width="2.5" stroke-linecap="round" stroke-linejoin="round"></path><path d="M105.8,-52.5 L121.2,77.2 L106.5,79.9" fill="none" stroke="#cec8bb" stroke-width="3.5" stroke-linecap="round" stroke-linejoin="round"/><path d="M105.8,-52.5 L121.2,77.2 L106.5,79.9" fill="none" stroke="#ffffff" stroke-width="2.5" stroke-linecap="round" stroke-linejoin="round"></path><path d="M162.4,132.5 L183.4,128.7" fill="none" stroke="#cec8bb" stroke-width="3.5" stroke-linecap="round" stroke-linejoin="round"/><path d="M162.4,132.5 L183.4,128.7" fill="none" stroke="#ffffff" stroke-width="2.5" stroke-linecap="round" stroke-linejoin="round"></path><path d="M75.5,164.9 L173.5,152.8 L173.9,161.1 L174.0,164.9 L174.5,176.0 L153.8,178.6 L155.2,195.3 L151.8,211.8 L133.0,236.5 L114.5,239.9 L114.3,242.0 L114.1,243.3 L108.6,243.9 L108.3,251.0 L81.0,252.1 L81.8,265.3 L77.2,267.0 L74.2,279.8 L63.5,281.0 L53.2,207.8 L60.9,206.5 L62.8,206.2 L76.7,203.9 L77.7,199.2 L77.4,192.9 L75.5,164.9" fill="none" stroke="#f4f0e4" stroke-width="3.0" stroke-linecap="round" stroke-linejoin="round"></path><path d="M-75.7,102.7 L-16.7,41.3 L59.2,-36.3 L73.3,-50.8" fill="none" stroke="#cec8bb" stroke-width="4.8" stroke-linecap="round" stroke-linejoin="round"/><path d="M-75.7,102.7 L-16.7,41.3 L59.2,-36.3 L73.3,-50.8" fill="none" stroke="#ffffff" stroke-width="3.7" stroke-linecap="round" stroke-linejoin="round"></path><path d="M64.0,-60.3 L48.9,-45.5 L-26.4,31.4 L-72.9,78.8" fill="none" stroke="#cec8bb" stroke-width="4.8" stroke-linecap="round" stroke-linejoin="round"/><path d="M64.0,-60.3 L48.9,-45.5 L-26.4,31.4 L-72.9,78.8" fill="none" stroke="#ffffff" stroke-width="3.7" stroke-linecap="round" stroke-linejoin="round"></path><g transform="translate(149.7 72.8) rotate(82.0)"><path d="M -3.6 -3.2 L 4.4 0 L -3.6 3.2 Z" fill="#58656d" opacity="0.46"/></g><g transform="translate(81.9 88.1) rotate(-97.7)"><path d="M -3.6 -3.2 L 4.4 0 L -3.6 3.2 Z" fill="#58656d" opacity="0.46"/></g><text x="130.7" y="14.0" text-anchor="middle" font-family="Arial, sans-serif" font-size="8" font-weight="600" paint-order="stroke" stroke="#f4f0e7" stroke-width="1.9" stroke-linejoin="round" fill="#6a655c" textLength="51.2" lengthAdjust="spacing">Grove Isle</text><text x="133.5" y="36.5" text-anchor="middle" font-family="Arial, sans-serif" font-size="6.5" textLength="18.0" lengthAdjust="spacing" font-weight="500" paint-order="stroke" stroke="#f3f5ee" stroke-width="1.55" stroke-linejoin="round" fill="#6f777a">2</text><g><title>parking</title><circle cx="33.9" cy="18.9" r="6.0" fill="#2f8ec8" stroke="#ffffff" stroke-width="1.7"/><text x="33.9" y="19.1" text-anchor="middle" dominant-baseline="central" font-family="Arial, sans-serif" font-size="11.4" font-weight="700" fill="#ffffff">P</text></g><g><title>parking</title><circle cx="92.2" cy="93.9" r="6.0" fill="#2f8ec8" stroke="#ffffff" stroke-width="1.7"/><text x="92.2" y="94.1" text-anchor="middle" dominant-baseline="central" font-family="Arial, sans-serif" font-size="11.4" font-weight="700" fill="#ffffff">P</text></g></svg>