<svg xmlns="http://www.w3.org/2000/svg" width="256" height="256" viewBox="0 0 256 256"><rect width="256" height="256" fill="#f1efe7"/><path d="M-76.8,267.0 L-81.4,100.7 L205.7,92.7 L206.4,117.3 L210.3,259.0 L-76.8,267.0 Z" fill="#d6d2c9" stroke="#bab6ad" stroke-width="0.4"><title>896</title></path><path d="M61.8,25.4 L232.3,17.4" fill="none" stroke="#cec8bb" stroke-width="3.5" stroke-linecap="round" stroke-linejoin="round"/><path d="M61.8,25.4 L232.3,17.4" fill="none" stroke="#ffffff" stroke-width="2.5" stroke-linecap="round" stroke-linejoin="round"></path><path d="M233.2,38.5 L101.3,43.6 L62.0,44.3" fill="none" stroke="#cec8bb" stroke-width="3.5" stroke-linecap="round" stroke-linejoin="round"/><path d="M233.2,38.5 L101.3,43.6 L62.0,44.3" fill="none" stroke="#ffffff" stroke-width="2.5" stroke-linecap="round" stroke-linejoin="round"></path><path d="M197.3,73.0 L62.5,77.1 L-106.3,82.4" fill="none" stroke="#cec8bb" stroke-width="3.5" stroke-linecap="round" stroke-linejoin="round"/><path d="M197.3,73.0 L62.5,77.1 L-106.3,82.4" fill="none" stroke="#ffffff" stroke-width="2.5" stroke-linecap="round" stroke-linejoin="round"></path><path d="M62.0,44.3 L48.3,44.6 L-65.7,48.2" fill="none" stroke="#cec8bb" stroke-width="3.5" stroke-linecap="round" stroke-linejoin="round"/><path d="M62.0,44.3 L48.3,44.6 L-65.7,48.2" fill="none" stroke="#ffffff" stroke-width="2.5" stroke-linecap="round" stroke-linejoin="round"></path><path d="M229.4,-51.0 L230.8,-16.5 L232.3,17.4 L233.2,38.5 L244.3,174.0" fill="none" stroke="#cec8bb" stroke-width="3.5" stroke-linecap="round" stroke-linejoin="round"/><path d="M229.4,-51.0 L230.8,-16.5 L232.3,17.4 L233.2,38.5 L244.3,174.0" fill="none" stroke="#ffffff" stroke-width="2.5" stroke-linecap="round" stroke-linejoin="round"></path><path d="M62.5,77.1 L62.0,44.3 L61.8,25.4 L61.6,13.2 L61.2,-8.8 L61.1,-15.7 L60.5,-43.3 L59.2,-77.2" fill="none" stroke="#cec8bb" stroke-width="3.5" stroke-linecap="round" stroke-linejoin="round"/><path d="M62.5,77.1 L62.0,44.3 L61.8,25.4 L61.6,13.2 L61.2,-8.8 L61.1,-15.7 L60.5,-43.3 L59.2,-77.2" fill="none" stroke="#ffffff" stroke-width="2.5" stroke-linecap="round" stroke-linejoin="round"></path><path d="M-111.2,20.0 L61.6,13.2" fill="none" stroke="#cec8bb" stroke-width="3.5" stroke-linecap="round" stroke-linejoin="round"/><path d="M-111.2,20.0 L61.6,13.2" fill="none" stroke="#ffffff" stroke-width="2.5" stroke-linecap="round" stroke-linejoin="round"></path></svg>