<svg xmlns="http://www.w3.org/2000/svg" width="256" height="256" viewBox="0 0 256 256"><rect width="256" height="256" fill="#f1efe7"/><path d="M41.9,-20.7 L58.8,-37.3 L75.2,-14.8 L82.3,-16.8 L83.8,-7.3 L87.6,-7.6 L93.8,15.5 L89.1,17.6 L90.6,26.5 L85.8,27.4 L85.8,33.3 L59.7,27.7 L56.2,2.5 L69.8,-0.5 L65.9,-6.1 L58.2,-2.6 L41.9,-20.7 Z" fill="#d6d2c9" stroke="#bab6ad" stroke-width="0.4"></path><path d="M-38.5,92.7 L-33.2,132.2 L-5.6,139.3 L14.6,125.9 L14.6,90.6 L-6.8,79.6 L-21.3,81.4 L-20.1,93.0 L-38.5,92.7 Z" fill="#d6d2c9" stroke="#bab6ad" stroke-width="0.4"></path><path d="M294.6,13.2 L309.8,20.6 L289.5,63.7 L272.8,55.3 L278.6,42.4 L261.9,30.5 L248.5,49.9 L235.1,40.8 L254.6,14.2 L262.4,19.4 L271.5,6.3 L278.6,9.8 L282.5,3.2 L294.6,13.2 Z" fill="#d6d2c9" stroke="#bab6ad" stroke-width="0.4"></path><path d="M191.1,210.6 L223.6,216.6 L234.2,158.9 L201.7,152.9 L198.7,169.3 L191.1,210.6 Z" fill="#d6d2c9" stroke="#bab6ad" stroke-width="0.4"></path><path d="M175.3,184.9 L170.0,207.4 L150.3,202.7 L153.9,187.5 L161.1,189.2 L162.9,181.9 L175.3,184.9 Z" fill="#d6d2c9" stroke="#bab6ad" stroke-width="0.4"></path><path d="M87.4,305.6 L91.9,286.4 L93.5,280.2 L95.8,273.8 L97.3,268.7 L99.4,258.3 L100.7,251.5 L102.7,242.2 L105.0,231.1 L110.6,205.8 L113.6,195.6 L117.1,185.4 L120.8,174.2 L122.3,169.2 L123.9,163.1 L124.9,156.4 L125.5,149.4 L125.8,142.2 L127.3,136.6 L130.9,130.1 L136.6,123.3 L140.8,117.7 L145.0,111.0 L163.3,71.0 L209.5,-1.5 L251.1,-59.0" fill="none" stroke="#8fb58e" stroke-width="1.9" opacity="0.58" stroke-linecap="round" stroke-linejoin="round"><title>Old Cutler Trail</title></path><path d="M177.6,21.1 L153.2,15.1 L130.6,9.8 L123.4,0.4 L124.2,-11.8 L120.8,-21.3 L106.4,-20.0 L99.6,-11.6 L100.8,-4.1" fill="none" stroke="#cec8bb" stroke-width="3.5" stroke-linecap="round" stroke-linejoin="round"/><path d="M177.6,21.1 L153.2,15.1 L130.6,9.8 L123.4,0.4 L124.2,-11.8 L120.8,-21.3 L106.4,-20.0 L99.6,-11.6 L100.8,-4.1" fill="none" stroke="#ffffff" stroke-width="2.5" stroke-linecap="round" stroke-linejoin="round"></path><path d="M304.2,135.5 L299.3,149.6 L294.4,164.1 L292.2,172.8 L291.0,181.0 L290.2,188.8 L289.7,194.9 L288.9,200.1 L286.8,206.4 L283.4,214.1 L279.9,221.5 L264.2,259.2 L255.9,272.8 L242.8,283.6 L233.2,286.4 L221.5,287.7 L200.8,287.7 L181.0,286.7 L164.2,285.4 L155.2,283.6 L145.6,283.1 L138.6,283.5 L132.6,285.4 L128.3,289.2 L125.2,294.1 L122.7,301.4 L122.8,309.3" fill="none" stroke="#cec8bb" stroke-width="4.8" stroke-linecap="round" stroke-linejoin="round"/><path d="M304.2,135.5 L299.3,149.6 L294.4,164.1 L292.2,172.8 L291.0,181.0 L290.2,188.8 L289.7,194.9 L288.9,200.1 L286.8,206.4 L283.4,214.1 L279.9,221.5 L264.2,259.2 L255.9,272.8 L242.8,283.6 L233.2,286.4 L221.5,287.7 L200.8,287.7 L181.0,286.7 L164.2,285.4 L155.2,283.6 L145.6,283.1 L138.6,283.5 L132.6,285.4 L128.3,289.2 L125.2,294.1 L122.7,301.4 L122.8,309.3" fill="none" stroke="#ffffff" stroke-width="3.7" stroke-linecap="round" stroke-linejoin="round"><title>Old Cutler Lane</title></path><path d="M253.2,-80.3 L177.6,21.1 L142.8,81.6 L121.8,128.5 L102.8,178.7 L89.1,230.4 L75.5,323.4" fill="none" stroke="#d1c4aa" stroke-width="6.4" stroke-linecap="round" stroke-linejoin="round"/><path d="M253.2,-80.3 L177.6,21.1 L142.8,81.6 L121.8,128.5 L102.8,178.7 L89.1,230.4 L75.5,323.4" fill="none" stroke="#f1c77d" stroke-width="5.0" stroke-linecap="round" stroke-linejoin="round"><title>Old Cutler Road</title></path><text x="160.2" y="51.3" transform="rotate(-60.0 160.2 51.3)" text-anchor="middle" dominant-baseline="central" font-family="Arial, sans-serif" font-size="8.3" textLength="79.7" lengthAdjust="spacing" font-weight="650" paint-order="stroke" stroke="#fffaf0" stroke-width="2.05" stroke-linejoin="round" fill="#6f573d">Old Cutler Road</text><text x="195.6" y="185.4" text-anchor="middle" font-family="Arial, sans-serif" font-size="6.5" textLength="18.0" lengthAdjust="spacing" font-weight="500" paint-order="stroke" stroke="#f3f5ee" stroke-width="1.55" stroke-linejoin="round" fill="#6f777a">9490</text><text x="75.4" y="16.5" text-anchor="middle" font-family="Arial, sans-serif" font-size="6.5" textLength="18.0" lengthAdjust="spacing" font-weight="500" paint-order="stroke" stroke="#f3f5ee" stroke-width="1.55" stroke-linejoin="round" fill="#6f777a">9200</text></svg>