<svg xmlns="http://www.w3.org/2000/svg" width="256" height="256" viewBox="0 0 256 256"><rect width="256" height="256" fill="#f1efe7"/><path d="M-9733.4,1897.1 L-9626.0,1852.5 L-9592.4,1836.4 L-9442.1,1764.2 L-9413.9,1791.5 L-9411.4,1793.8 L-9358.8,1748.8 L-9346.2,1739.2 L-9325.3,1720.3 L-9207.2,1611.9 L-9111.9,1503.1 L-9108.3,1496.2 L-9104.8,1492.2 L-9099.2,1485.9 L-9093.6,1479.4 L-9091.3,1476.7 L-9128.9,1428.2 L-9079.2,1398.4 L-9052.2,1434.3 L-9014.1,1390.7 L-9046.4,1347.9 L-9006.4,1306.3 L-8975.7,1346.8 L-8940.3,1306.6 L-8925.3,1296.8 L-8851.7,1249.0 L-8815.3,1224.9 L-8771.5,1196.0 L-8750.8,1182.5 L-8698.4,1148.6 L-8711.9,1130.8 L-8736.1,1098.5 L-8673.6,1058.8 L-8650.8,1047.0 L-8649.1,1045.8 L-8637.1,1036.5 L-8594.3,1013.7 L-8591.3,1009.0 L-8579.3,1000.8 L-8572.8,991.3 L-8571.0,989.9 L-8560.6,985.9 L-8536.9,977.4 L-8520.8,970.3 L-8463.7,943.5 L-8463.0,945.4 L-8415.2,924.9 L-8395.7,950.0 L-8352.1,920.9 L-8345.9,916.7 L-8345.3,916.2 L-8344.7,915.4 L-8343.8,913.7 L-8343.2,912.2 L-8343.0,910.3 L-8343.0,908.8 L-8343.2,907.4 L-8343.4,905.7 L-8343.5,904.5 L-8343.4,903.4 L-8343.1,902.3 L-8342.3,900.3 L-8341.8,899.2 L-8340.6,897.3 L-8339.2,895.9 L-8332.9,893.3 L-8327.6,891.4 L-8320.8,889.2 L-8317.7,888.3 L-8312.1,886.5 L-8308.1,885.0 L-8302.7,882.8 L-8295.3,879.6 L-8287.3,875.8 L-8283.0,873.7 L-8277.6,871.0 L-8272.6,868.1 L-8267.5,865.1 L-8262.4,861.8 L-8260.8,860.7 L-8250.4,852.8 L-8241.7,846.1 L-8233.2,838.9 L-8225.2,831.4 L-8219.5,824.9 L-8213.8,818.0 L-8206.8,809.0 L-8200.4,800.0 L-8193.1,788.4 L-8188.3,779.5 L-8185.3,773.8 L-8180.8,764.1 L-8177.1,755.2 L-8173.7,745.6 L-8171.0,737.1 L-8168.1,723.4 L-8165.9,711.2 L-8164.7,700.6 L-8163.8,688.3 L-8163.6,675.0 L-8164.5,662.7 L-8166.6,646.8 L-8168.7,635.9 L-8171.3,625.5 L-8174.9,613.9 L-8178.1,604.9 L-8181.7,595.1 L-8185.1,587.1 L-8187.4,581.8 L-8188.4,578.0 L-8188.5,575.0 L-8188.2,572.4 L-8187.1,570.1 L-8185.5,568.1 L-8183.4,567.0 L-8181.2,566.7 L-8175.1,568.2 L-8158.3,572.2 L-8152.7,444.9 L-8130.8,217.6 L-8154.6,211.9 L-8157.2,204.8 L-8157.1,194.6 L-8153.8,171.3 L-8149.3,166.1 L-8145.3,150.9 L-8120.1,156.8 L-8106.1,11.6 L-8102.3,-28.7 L-8110.1,-30.6 L-8105.4,-49.8 L-8121.6,-53.6 L-8119.5,-65.4 L-8116.7,-73.1 L-8113.1,-82.2 L-8107.1,-94.8 L-8100.7,-93.4 L-8091.9,-184.7 L-8089.9,-240.1 L-8089.5,-250.3 L-8084.8,-285.6 L-8075.4,-373.5 L-8013.0,-536.2 L-7998.8,-580.5 L-7825.5,-647.0 L-7808.5,-653.8 L-7805.6,-655.4 L-7803.2,-657.5 L-7800.7,-660.4 L-7798.8,-663.9 L-7797.5,-667.3 L-7797.1,-672.2 L-7797.4,-678.4 L-7799.7,-756.1 L-7800.6,-771.2 L-7800.8,-781.6 L-7801.1,-801.6 L-7801.5,-807.9 L-7802.3,-813.2 L-7803.4,-818.0 L-7804.9,-822.7 L-7807.3,-828.4 L-7810.9,-834.5 L-7814.5,-839.3 L-7817.2,-843.8 L-7819.9,-849.8 L-7822.2,-855.7 L-7823.1,-860.4 L-7823.8,-865.6 L-7824.1,-870.9 L-7824.0,-876.0 L-7823.4,-881.9 L-7822.0,-887.8 L-7820.1,-893.0 L-7818.2,-897.8 L-7815.7,-902.4 L-7812.7,-907.9 L-7810.6,-913.0 L-7808.9,-919.5 L-7805.7,-924.3 L-7806.8,-969.0 L-7808.4,-971.5 L-7809.0,-1001.8 L-7809.8,-1037.6 L-7809.2,-1042.5 L-7807.6,-1047.6 L-7803.6,-1055.5 L-7776.9,-1113.0 L-7776.3,-1114.0 L-7771.6,-1124.2 L-7767.1,-1134.0 L-7762.2,-1144.0 L-7757.2,-1154.2 L-7754.8,-1159.3 L-7728.6,-1213.2 L-7700.5,-1272.8 L-7639.6,-1396.2 L-7676.2,-1437.1 L-7706.0,-1373.7 L-7731.8,-1318.7 L-7735.7,-1310.9 L-7743.6,-1294.7 L-7759.5,-1296.0 L-7763.9,-1296.3 L-7765.4,-1294.8 L-7763.3,-1292.9 L-7771.5,-1285.7 L-7777.9,-1279.7 L-7779.1,-1254.3 L-7781.5,-1249.2 L-7789.3,-1249.5 L-7790.6,-1250.0 L-7892.8,-1292.1 L-7895.0,-1293.3 L-7897.4,-1294.8 L-7901.0,-1297.6 L-7903.9,-1300.3 L-7906.3,-1302.9 L-7908.6,-1306.1 L-7910.4,-1308.9 L-7911.8,-1311.8 L-7913.0,-1314.9 L-7913.7,-1316.9 L-7914.2,-1319.5 L-7914.7,-1322.5 L-7915.1,-1326.6 L-7915.1,-1332.4 L-7915.8,-1352.3 L-7913.0,-1352.5 L-7913.4,-1362.9 L-7913.8,-1380.2 L-7911.2,-1380.3 L-7911.4,-1392.1 L-7914.3,-1392.0 L-7915.7,-1441.8 L-7912.9,-1441.9 L-7913.4,-1453.5 L-7916.1,-1453.4 L-7917.2,-1490.2 L-7903.7,-1504.7 L-7886.5,-1505.3 L-7873.6,-1505.8 L-7856.7,-1506.3 L-7840.4,-1506.9 L-7825.7,-1507.4 L-7819.4,-1507.6 L-7819.7,-1513.3 L-7819.8,-1519.2 L-7820.8,-1538.3 L-7821.1,-1574.9 L-7821.6,-1575.5 L-7821.7,-1579.2 L-7820.6,-1579.2 L-7823.2,-1667.3 L-7825.4,-1750.1 L-7825.8,-1752.7 L-7826.0,-1757.5 L-7862.1,-1756.2 L-7886.1,-1758.3 L-8065.7,-1752.0 L-8065.7,-1753.6 L-8066.1,-1761.3 L-8151.3,-1758.3 L-8151.5,-1772.4 L-8162.7,-1774.9 L-8164.7,-1835.5 L-7833.3,-1847.0 L-7827.8,-1854.6 L-7828.0,-1876.1 L-7828.4,-1894.6 L-7828.7,-1906.3 L-7829.2,-1917.6 L-7855.5,-1930.1 L-7856.6,-1957.6 L-7829.5,-1971.0 L-7832.0,-2034.7 L-7832.7,-2037.9 L-7859.5,-2050.4 L-7860.4,-2084.5 L-7834.9,-2097.7 L-7846.3,-2236.1 L-7843.2,-2297.8 L-7841.8,-2398.2 L-7841.9,-2507.4 L-7839.5,-2522.8 L-7839.3,-2530.1 L-7841.7,-2539.1 L-7839.2,-2539.1 L-7839.2,-2547.1 L-7837.7,-2752.6 L-7837.9,-2761.8 L-7840.8,-2761.7 L-7840.7,-2799.5 L-7842.4,-2801.9 L-7844.9,-2840.9 L-7839.8,-2876.5 L-7840.5,-2919.7 L-7842.2,-2930.0 L-7839.6,-2962.0 L-7841.4,-3000.6 L-7845.9,-3042.0 L-7854.4,-3109.0 L-7850.4,-3127.4 L-7852.1,-3145.4 L-7867.4,-3158.5 L-7889.9,-3158.2 L-7924.1,-3153.7 L-7946.3,-3153.7 L-7966.6,-3161.2 L-7993.1,-3179.4 L-7993.1,-3212.0 L-7993.8,-3252.2 L-7991.2,-3285.6 L-7982.4,-3311.7 L-7835.0,-3314.4 L-7831.7,-3523.4 L-7831.7,-3824.2 L-7833.2,-3933.4 L122.9,-7219.2 L122.9,10889.9 L-9733.4,10889.9 L-9733.4,1897.1 Z" fill="#add7e1" stroke="none"><title>Biscayne Bay</title></path><path d="M-1238.6,954.9 L1064.1,72.0" fill="none" stroke="#6fb5c7" stroke-width="1.4" stroke-dasharray="5 7" opacity="0.34" stroke-linecap="round" stroke-linejoin="round"><title>Government Cut</title></path></svg>