<svg xmlns="http://www.w3.org/2000/svg" width="256" height="256" viewBox="0 0 256 256"><rect width="256" height="256" fill="#f1efe7"/><path d="M-9226.7,-16941.7 L-9011.9,-17031.0 L-8944.7,-17063.3 L-8644.2,-17207.6 L-8587.8,-17153.0 L-8582.9,-17148.3 L-8477.5,-17238.5 L-8452.4,-17257.6 L-8410.5,-17295.4 L-8174.4,-17512.2 L-7983.9,-17729.8 L-7976.6,-17743.7 L-7969.6,-17751.6 L-7958.5,-17764.3 L-7947.2,-17777.2 L-7942.6,-17782.5 L-8017.7,-17879.6 L-7918.3,-17939.2 L-7864.4,-17867.5 L-7788.2,-17954.7 L-7852.7,-18040.1 L-7772.8,-18123.4 L-7711.3,-18042.4 L-7640.7,-18122.8 L-7610.6,-18142.5 L-7463.4,-18238.0 L-7390.7,-18286.3 L-7303.1,-18343.9 L-7261.7,-18371.1 L-7156.8,-18438.8 L-7183.8,-18474.3 L-7232.1,-18539.0 L-7107.2,-18618.4 L-7061.7,-18641.9 L-7058.2,-18644.4 L-7034.2,-18662.9 L-6948.6,-18708.7 L-6942.7,-18717.9 L-6918.7,-18734.4 L-6905.7,-18753.4 L-6902.0,-18756.2 L-6881.1,-18764.3 L-6833.9,-18781.2 L-6801.6,-18795.4 L-6687.5,-18849.0 L-6686.1,-18845.3 L-6590.4,-18886.2 L-6551.3,-18836.1 L-6464.2,-18894.2 L-6451.8,-18902.7 L-6450.6,-18903.7 L-6449.4,-18905.3 L-6447.5,-18908.6 L-6446.5,-18911.7 L-6445.9,-18915.4 L-6446.0,-18918.4 L-6446.4,-18921.3 L-6446.8,-18924.6 L-6446.9,-18927.1 L-6446.7,-18929.2 L-6446.3,-18931.4 L-6444.7,-18935.4 L-6443.6,-18937.6 L-6441.1,-18941.4 L-6438.5,-18944.2 L-6425.8,-18949.3 L-6415.2,-18953.3 L-6401.7,-18957.7 L-6395.4,-18959.4 L-6384.2,-18963.1 L-6376.3,-18965.9 L-6365.4,-18970.4 L-6350.6,-18976.9 L-6334.6,-18984.4 L-6326.0,-18988.6 L-6315.2,-18994.1 L-6305.1,-18999.7 L-6295.0,-19005.7 L-6284.7,-19012.4 L-6281.5,-19014.6 L-6260.8,-19030.4 L-6243.4,-19043.8 L-6226.4,-19058.2 L-6210.5,-19073.2 L-6199.0,-19086.1 L-6187.6,-19100.0 L-6173.6,-19118.0 L-6160.8,-19136.0 L-6146.1,-19159.1 L-6136.5,-19177.0 L-6130.5,-19188.4 L-6121.6,-19207.7 L-6114.1,-19225.6 L-6107.4,-19244.9 L-6102.0,-19261.8 L-6096.1,-19289.2 L-6091.8,-19313.7 L-6089.5,-19334.7 L-6087.5,-19359.5 L-6087.3,-19386.0 L-6088.9,-19410.5 L-6093.1,-19442.5 L-6097.5,-19464.3 L-6102.5,-19484.9 L-6109.9,-19508.3 L-6116.2,-19526.2 L-6123.4,-19545.7 L-6130.2,-19561.9 L-6134.8,-19572.4 L-6136.7,-19580.1 L-6137.0,-19586.0 L-6136.4,-19591.3 L-6134.3,-19595.9 L-6131.1,-19599.8 L-6126.9,-19602.0 L-6122.4,-19602.6 L-6110.3,-19599.7 L-6076.6,-19591.6 L-6065.4,-19846.3 L-6021.7,-20300.9 L-6069.2,-20312.1 L-6074.4,-20326.4 L-6074.2,-20346.9 L-6067.6,-20393.4 L-6058.6,-20403.9 L-6050.6,-20434.1 L-6000.1,-20422.4 L-5972.3,-20712.9 L-5964.6,-20793.3 L-5980.3,-20797.2 L-5970.8,-20835.6 L-6003.1,-20843.3 L-5999.0,-20866.8 L-5993.3,-20882.3 L-5986.2,-20900.4 L-5974.2,-20925.7 L-5961.3,-20922.8 L-5943.9,-21105.5 L-5939.8,-21216.3 L-5939.0,-21236.7 L-5929.6,-21307.2 L-5910.9,-21482.9 L-5786.1,-21808.3 L-5757.6,-21897.0 L-5410.9,-22030.0 L-5377.0,-22043.6 L-5371.1,-22046.8 L-5366.5,-22051.0 L-5361.4,-22056.9 L-5357.5,-22063.8 L-5354.9,-22070.6 L-5354.3,-22080.5 L-5354.8,-22092.8 L-5359.4,-22248.3 L-5361.1,-22278.4 L-5361.6,-22299.1 L-5362.3,-22339.3 L-5363.1,-22351.9 L-5364.6,-22362.5 L-5366.7,-22371.9 L-5369.8,-22381.5 L-5374.7,-22392.8 L-5381.9,-22404.9 L-5388.9,-22414.5 L-5394.3,-22423.6 L-5399.8,-22435.7 L-5404.4,-22447.3 L-5406.2,-22456.8 L-5407.6,-22467.3 L-5408.3,-22477.8 L-5408.0,-22488.0 L-5406.8,-22499.9 L-5404.0,-22511.6 L-5400.3,-22522.0 L-5396.4,-22531.5 L-5391.4,-22540.7 L-5385.3,-22551.9 L-5381.3,-22562.0 L-5377.8,-22574.9 L-5371.4,-22584.7 L-5373.6,-22673.9 L-5376.9,-22679.1 L-5377.9,-22739.7 L-5379.6,-22811.2 L-5378.4,-22821.1 L-5375.2,-22831.2 L-5367.2,-22847.0 L-5313.7,-22962.1 L-5312.6,-22964.0 L-5303.2,-22984.5 L-5294.3,-23003.9 L-5284.3,-23023.9 L-5274.5,-23044.5 L-5269.7,-23054.5 L-5217.1,-23162.4 L-5160.9,-23281.6 L-5039.3,-23528.4 L-5112.4,-23610.3 L-5172.0,-23483.3 L-5223.5,-23373.4 L-5231.3,-23357.8 L-5247.2,-23325.3 L-5279.0,-23328.0 L-5287.7,-23328.5 L-5290.8,-23325.7 L-5286.6,-23321.9 L-5302.9,-23307.4 L-5315.8,-23295.5 L-5318.2,-23244.6 L-5323.0,-23234.4 L-5338.6,-23235.0 L-5341.2,-23235.9 L-5545.6,-23320.3 L-5550.0,-23322.6 L-5554.7,-23325.6 L-5562.1,-23331.2 L-5567.8,-23336.6 L-5572.6,-23341.8 L-5577.3,-23348.2 L-5580.9,-23353.8 L-5583.7,-23359.6 L-5585.9,-23365.7 L-5587.4,-23369.9 L-5588.5,-23375.0 L-5589.3,-23381.0 L-5590.1,-23389.2 L-5590.1,-23400.9 L-5591.5,-23440.6 L-5585.9,-23440.9 L-5586.7,-23461.9 L-5587.6,-23496.5 L-5582.4,-23496.6 L-5582.8,-23520.2 L-5588.7,-23520.1 L-5591.4,-23619.5 L-5585.8,-23619.8 L-5586.7,-23643.1 L-5592.1,-23642.9 L-5594.4,-23716.4 L-5567.4,-23745.5 L-5532.9,-23746.7 L-5507.2,-23747.6 L-5473.3,-23748.7 L-5440.7,-23749.7 L-5411.5,-23750.7 L-5398.8,-23751.3 L-5399.4,-23762.6 L-5399.6,-23774.4 L-5401.5,-23812.7 L-5402.2,-23885.8 L-5403.2,-23887.1 L-5403.4,-23894.3 L-5401.3,-23894.4 L-5406.4,-24070.5 L-5410.8,-24236.2 L-5411.5,-24241.4 L-5411.9,-24251.0 L-5484.1,-24248.4 L-5532.1,-24252.5 L-5891.4,-24240.0 L-5891.5,-24243.2 L-5892.2,-24258.5 L-6062.6,-24252.5 L-6062.9,-24280.8 L-6085.4,-24285.9 L-6089.4,-24407.0 L-5426.6,-24430.0 L-5415.6,-24445.1 L-5416.0,-24488.1 L-5416.8,-24525.3 L-5417.4,-24548.6 L-5418.3,-24571.3 L-5471.0,-24596.1 L-5473.1,-24651.2 L-5419.1,-24678.0 L-5424.0,-24805.5 L-5425.4,-24811.8 L-5479.1,-24836.9 L-5480.8,-24905.1 L-5429.8,-24931.4 L-5452.5,-25208.3 L-5446.5,-25331.5 L-5443.5,-25532.4 L-5443.7,-25750.9 L-5438.9,-25781.5 L-5438.6,-25796.3 L-5443.4,-25814.1 L-5438.4,-25814.1 L-5438.4,-25830.2 L-5435.4,-26241.2 L-5435.9,-26259.5 L-5441.6,-26259.5 L-5441.4,-26335.1 L-5444.7,-26339.8 L-5449.9,-26417.8 L-5439.6,-26489.1 L-5440.9,-26575.4 L-5444.4,-26596.1 L-5439.1,-26660.0 L-5442.7,-26737.3 L-5451.7,-26820.0 L-5468.8,-26954.0 L-5460.7,-26990.9 L-5464.3,-27026.8 L-5494.9,-27052.9 L-5539.8,-27052.5 L-5608.2,-27043.5 L-5652.7,-27043.5 L-5693.1,-27058.3 L-5746.2,-27094.7 L-5746.2,-27160.0 L-5747.6,-27240.3 L-5742.4,-27307.2 L-5724.8,-27359.4 L-5430.1,-27364.9 L-5423.3,-27782.8 L-5423.3,-28384.4 L-5426.4,-28602.7 L10485.8,-35174.4 L10485.8,1043.8 L-9226.7,1043.8 L-9226.7,-16941.7 Z" fill="#add7e1" stroke="none"><title>Biscayne Bay</title></path></svg>