<svg xmlns="http://www.w3.org/2000/svg" width="256" height="256" viewBox="0 0 256 256"><rect width="256" height="256" fill="#f1efe7"/><path d="M-4362.7,2258.3 L-4147.9,2169.0 L-4080.7,2136.7 L-3780.2,1992.4 L-3723.8,2047.0 L-3718.9,2051.7 L-3613.5,1961.5 L-3588.4,1942.4 L-3546.5,1904.6 L-3310.4,1687.8 L-3119.9,1470.2 L-3112.6,1456.3 L-3105.6,1448.4 L-3094.5,1435.7 L-3083.2,1422.8 L-3078.6,1417.5 L-3153.7,1320.4 L-3054.3,1260.8 L-3000.4,1332.5 L-2924.2,1245.3 L-2988.7,1159.9 L-2908.8,1076.6 L-2847.3,1157.6 L-2776.7,1077.2 L-2746.6,1057.5 L-2599.4,962.0 L-2526.7,913.7 L-2439.1,856.1 L-2397.7,828.9 L-2292.8,761.2 L-2319.8,725.7 L-2368.1,661.0 L-2243.2,581.6 L-2197.7,558.1 L-2194.2,555.6 L-2170.2,537.1 L-2084.6,491.3 L-2078.7,482.1 L-2054.7,465.6 L-2041.7,446.6 L-2038.0,443.8 L-2017.1,435.7 L-1969.9,418.8 L-1937.6,404.6 L-1823.5,351.0 L-1822.1,354.7 L-1726.4,313.8 L-1687.3,363.9 L-1600.2,305.8 L-1587.8,297.3 L-1586.6,296.3 L-1585.4,294.7 L-1583.5,291.4 L-1582.5,288.3 L-1581.9,284.6 L-1582.0,281.6 L-1582.4,278.7 L-1582.8,275.4 L-1582.9,272.9 L-1582.7,270.8 L-1582.3,268.6 L-1580.7,264.6 L-1579.6,262.4 L-1577.1,258.6 L-1574.5,255.8 L-1561.8,250.7 L-1551.2,246.7 L-1537.7,242.3 L-1531.4,240.6 L-1520.2,236.9 L-1512.3,234.1 L-1501.4,229.6 L-1486.6,223.1 L-1470.6,215.6 L-1462.0,211.4 L-1451.2,205.9 L-1441.1,200.3 L-1431.0,194.3 L-1420.7,187.6 L-1417.5,185.4 L-1396.8,169.6 L-1379.4,156.2 L-1362.4,141.8 L-1346.5,126.8 L-1335.0,113.9 L-1323.6,100.0 L-1309.6,82.0 L-1296.8,64.0 L-1282.1,40.9 L-1272.5,23.0 L-1266.5,11.6 L-1257.6,-7.7 L-1250.1,-25.6 L-1243.4,-44.9 L-1238.0,-61.8 L-1232.1,-89.2 L-1227.8,-113.7 L-1225.5,-134.7 L-1223.5,-159.5 L-1223.3,-186.0 L-1224.9,-210.5 L-1229.1,-242.5 L-1233.5,-264.3 L-1238.5,-284.9 L-1245.9,-308.3 L-1252.2,-326.2 L-1259.4,-345.7 L-1266.2,-361.9 L-1270.8,-372.4 L-1272.7,-380.1 L-1273.0,-386.0 L-1272.4,-391.3 L-1270.3,-395.9 L-1267.1,-399.8 L-1262.9,-402.0 L-1258.4,-402.6 L-1246.3,-399.7 L-1212.6,-391.6 L-1201.4,-646.3 L-1157.7,-1100.9 L-1205.2,-1112.1 L-1210.4,-1126.4 L-1210.2,-1146.9 L-1203.6,-1193.4 L-1194.6,-1203.9 L-1186.6,-1234.1 L-1136.1,-1222.4 L-1108.3,-1512.9 L-1100.6,-1593.3 L-1116.3,-1597.2 L-1106.8,-1635.6 L-1139.1,-1643.3 L-1135.0,-1666.8 L-1129.3,-1682.3 L-1122.2,-1700.4 L-1110.2,-1725.7 L-1097.3,-1722.8 L-1079.9,-1905.5 L-1075.8,-2016.3 L-1075.0,-2036.7 L-1065.6,-2107.2 L-1046.9,-2282.9 L-922.1,-2608.3 L-893.6,-2697.0 L-546.9,-2830.0 L-513.0,-2843.6 L-507.1,-2846.8 L-502.5,-2851.0 L-497.4,-2856.9 L-493.5,-2863.8 L-490.9,-2870.6 L-490.3,-2880.5 L-490.8,-2892.8 L-495.4,-3048.3 L-497.1,-3078.4 L-497.6,-3099.1 L-498.3,-3139.3 L-499.1,-3151.9 L-500.6,-3162.5 L-502.7,-3171.9 L-505.8,-3181.5 L-510.7,-3192.8 L-517.9,-3204.9 L-524.9,-3214.5 L-530.3,-3223.6 L-535.8,-3235.7 L-540.4,-3247.3 L-542.2,-3256.8 L-543.6,-3267.3 L-544.3,-3277.8 L-544.0,-3288.0 L-542.8,-3299.9 L-540.0,-3311.6 L-536.3,-3322.0 L-532.4,-3331.5 L-527.4,-3340.7 L-521.3,-3351.9 L-517.3,-3362.0 L-513.8,-3374.9 L-507.4,-3384.7 L-509.6,-3473.9 L-512.9,-3479.1 L-513.9,-3539.7 L-515.6,-3611.2 L-514.4,-3621.1 L-511.2,-3631.2 L-503.2,-3647.0 L-449.7,-3762.1 L-448.6,-3764.0 L-439.2,-3784.5 L-430.3,-3803.9 L-420.3,-3823.9 L-410.5,-3844.5 L-405.7,-3854.5 L-353.1,-3962.4 L-296.9,-4081.6 L-175.3,-4328.4 L-248.4,-4410.3 L-308.0,-4283.3 L-359.5,-4173.4 L-367.3,-4157.8 L-383.2,-4125.3 L-415.0,-4128.0 L-423.7,-4128.5 L-426.8,-4125.7 L-422.6,-4121.9 L-438.9,-4107.4 L-451.8,-4095.5 L-454.2,-4044.6 L-459.0,-4034.4 L-474.6,-4035.0 L-477.2,-4035.9 L-681.6,-4120.3 L-686.0,-4122.6 L-690.7,-4125.6 L-698.1,-4131.2 L-703.8,-4136.6 L-708.6,-4141.8 L-713.3,-4148.2 L-716.9,-4153.8 L-719.7,-4159.6 L-721.9,-4165.7 L-723.4,-4169.9 L-724.5,-4175.0 L-725.3,-4181.0 L-726.1,-4189.2 L-726.1,-4200.9 L-727.5,-4240.6 L-721.9,-4240.9 L-722.7,-4261.9 L-723.6,-4296.5 L-718.4,-4296.6 L-718.8,-4320.2 L-724.7,-4320.1 L-727.4,-4419.5 L-721.8,-4419.8 L-722.7,-4443.1 L-728.1,-4442.9 L-730.4,-4516.4 L-703.4,-4545.5 L-668.9,-4546.7 L-643.2,-4547.6 L-609.3,-4548.7 L-576.7,-4549.7 L-547.5,-4550.7 L-534.8,-4551.3 L-535.4,-4562.6 L-535.6,-4574.4 L-537.5,-4612.7 L-538.2,-4685.8 L-539.2,-4687.1 L-539.4,-4694.3 L-537.3,-4694.4 L-542.4,-4870.5 L-546.8,-5036.2 L-547.5,-5041.4 L-547.9,-5051.0 L-620.1,-5048.4 L-668.1,-5052.5 L-1027.4,-5040.0 L-1027.5,-5043.2 L-1028.2,-5058.5 L-1198.6,-5052.5 L-1198.9,-5080.8 L-1221.4,-5085.9 L-1225.4,-5207.0 L-562.6,-5230.0 L-551.6,-5245.1 L-552.0,-5288.1 L-552.8,-5325.3 L-553.4,-5348.6 L-554.3,-5371.3 L-607.0,-5396.1 L-609.1,-5451.2 L-555.1,-5478.0 L-560.0,-5605.5 L-561.4,-5611.8 L-615.1,-5636.9 L-616.8,-5705.1 L-565.8,-5731.4 L-588.5,-6008.3 L-582.5,-6131.5 L-579.5,-6332.4 L-579.7,-6550.9 L-574.9,-6581.5 L-574.6,-6596.3 L-579.4,-6614.1 L-574.4,-6614.1 L-574.4,-6630.2 L-571.4,-7041.2 L-571.9,-7059.5 L-577.6,-7059.5 L-577.4,-7135.1 L-580.7,-7139.8 L-585.9,-7217.8 L-575.6,-7289.1 L-576.9,-7375.4 L-580.4,-7396.1 L-575.1,-7460.0 L-578.7,-7537.3 L-587.7,-7620.0 L-604.8,-7754.0 L-596.7,-7790.9 L-600.3,-7826.8 L-630.9,-7852.9 L-675.8,-7852.5 L-744.2,-7843.5 L-788.7,-7843.5 L-829.1,-7858.3 L-882.2,-7894.7 L-882.2,-7960.0 L-883.6,-8040.3 L-878.4,-8107.2 L-860.8,-8159.4 L-566.1,-8164.9 L-559.3,-8582.8 L-559.3,-9184.4 L-562.4,-9402.7 L15349.8,-15974.4 L15349.8,20243.8 L-4362.7,20243.8 L-4362.7,2258.3 Z" fill="#add7e1" stroke="none"><title>Biscayne Bay</title></path></svg>