<svg xmlns="http://www.w3.org/2000/svg" width="256" height="256" viewBox="0 0 256 256"><rect width="256" height="256" fill="#f1efe7"/><!-- water-corrections:start --><path data-water-correction="land" data-water-correction-id="edgewater-pallot-mainland" d="M0.0,256.0 L0.0,0.0 L256.0,0.0 L256.0,256.0 Z" fill="#f1efe7" stroke="#8ab09d" stroke-width="0.55"/><!-- water-corrections:end --><path d="M-4362.7,11986.3 L-4147.9,11897.0 L-4080.7,11864.7 L-3780.2,11720.4 L-3723.8,11775.0 L-3718.9,11779.7 L-3613.5,11689.5 L-3588.4,11670.4 L-3546.5,11632.6 L-3310.4,11415.8 L-3119.9,11198.2 L-3112.6,11184.3 L-3105.6,11176.4 L-3094.5,11163.7 L-3083.2,11150.8 L-3078.6,11145.5 L-3153.7,11048.4 L-3054.3,10988.8 L-3000.4,11060.5 L-2924.2,10973.3 L-2988.7,10887.9 L-2908.8,10804.6 L-2847.3,10885.6 L-2776.7,10805.2 L-2746.6,10785.5 L-2599.4,10690.0 L-2526.7,10641.7 L-2439.1,10584.1 L-2397.7,10556.9 L-2292.8,10489.2 L-2319.8,10453.7 L-2368.1,10389.0 L-2243.2,10309.6 L-2197.7,10286.1 L-2194.2,10283.6 L-2170.2,10265.1 L-2084.6,10219.3 L-2078.7,10210.1 L-2054.7,10193.6 L-2041.7,10174.6 L-2038.0,10171.8 L-2017.1,10163.7 L-1969.9,10146.8 L-1937.6,10132.6 L-1823.5,10079.0 L-1822.1,10082.7 L-1726.4,10041.8 L-1687.3,10091.9 L-1600.2,10033.8 L-1587.8,10025.3 L-1586.6,10024.3 L-1585.4,10022.7 L-1583.5,10019.4 L-1582.5,10016.3 L-1581.9,10012.6 L-1582.0,10009.6 L-1582.4,10006.7 L-1582.8,10003.4 L-1582.9,10000.9 L-1582.7,9998.8 L-1582.3,9996.6 L-1580.7,9992.6 L-1579.6,9990.4 L-1577.1,9986.6 L-1574.5,9983.8 L-1561.8,9978.7 L-1551.2,9974.7 L-1537.7,9970.3 L-1531.4,9968.6 L-1520.2,9964.9 L-1512.3,9962.1 L-1501.4,9957.6 L-1486.6,9951.1 L-1470.6,9943.6 L-1462.0,9939.4 L-1451.2,9933.9 L-1441.1,9928.3 L-1431.0,9922.3 L-1420.7,9915.6 L-1417.5,9913.4 L-1396.8,9897.6 L-1379.4,9884.2 L-1362.4,9869.8 L-1346.5,9854.8 L-1335.0,9841.9 L-1323.6,9828.0 L-1309.6,9810.0 L-1296.8,9792.0 L-1282.1,9768.9 L-1272.5,9751.0 L-1266.5,9739.6 L-1257.6,9720.3 L-1250.1,9702.4 L-1243.4,9683.1 L-1238.0,9666.2 L-1232.1,9638.8 L-1227.8,9614.3 L-1225.5,9593.3 L-1223.5,9568.5 L-1223.3,9542.0 L-1224.9,9517.5 L-1229.1,9485.5 L-1233.5,9463.7 L-1238.5,9443.1 L-1245.9,9419.7 L-1252.2,9401.8 L-1259.4,9382.3 L-1266.2,9366.1 L-1270.8,9355.6 L-1272.7,9347.9 L-1273.0,9342.0 L-1272.4,9336.7 L-1270.3,9332.1 L-1267.1,9328.2 L-1262.9,9326.0 L-1258.4,9325.4 L-1246.3,9328.3 L-1212.6,9336.4 L-1201.4,9081.7 L-1157.7,8627.1 L-1205.2,8615.9 L-1210.4,8601.6 L-1210.2,8581.1 L-1203.6,8534.6 L-1194.6,8524.1 L-1186.6,8493.9 L-1136.1,8505.6 L-1108.3,8215.1 L-1100.6,8134.7 L-1116.3,8130.8 L-1106.8,8092.4 L-1139.1,8084.7 L-1135.0,8061.2 L-1129.3,8045.7 L-1122.2,8027.6 L-1110.2,8002.3 L-1097.3,8005.2 L-1079.9,7822.5 L-1075.8,7711.7 L-1075.0,7691.3 L-1065.6,7620.8 L-1046.9,7445.1 L-922.1,7119.7 L-893.6,7031.0 L-546.9,6898.0 L-513.0,6884.4 L-507.1,6881.2 L-502.5,6877.0 L-497.4,6871.1 L-493.5,6864.2 L-490.9,6857.4 L-490.3,6847.5 L-490.8,6835.2 L-495.4,6679.7 L-497.1,6649.6 L-497.6,6628.9 L-498.3,6588.7 L-499.1,6576.1 L-500.6,6565.5 L-502.7,6556.1 L-505.8,6546.5 L-510.7,6535.2 L-517.9,6523.1 L-524.9,6513.5 L-530.3,6504.4 L-535.8,6492.3 L-540.4,6480.7 L-542.2,6471.2 L-543.6,6460.7 L-544.3,6450.2 L-544.0,6440.0 L-542.8,6428.1 L-540.0,6416.4 L-536.3,6406.0 L-532.4,6396.5 L-527.4,6387.3 L-521.3,6376.1 L-517.3,6366.0 L-513.8,6353.1 L-507.4,6343.3 L-509.6,6254.1 L-512.9,6248.9 L-513.9,6188.3 L-515.6,6116.8 L-514.4,6106.9 L-511.2,6096.8 L-503.2,6081.0 L-449.7,5965.9 L-448.6,5964.0 L-439.2,5943.5 L-430.3,5924.1 L-420.3,5904.1 L-410.5,5883.5 L-405.7,5873.5 L-353.1,5765.6 L-296.9,5646.4 L-175.3,5399.6 L-248.4,5317.7 L-308.0,5444.7 L-359.5,5554.6 L-367.3,5570.2 L-383.2,5602.7 L-415.0,5600.0 L-423.7,5599.5 L-426.8,5602.3 L-422.6,5606.1 L-438.9,5620.6 L-451.8,5632.5 L-454.2,5683.4 L-459.0,5693.6 L-474.6,5693.0 L-477.2,5692.1 L-681.6,5607.7 L-686.0,5605.4 L-690.7,5602.4 L-698.1,5596.8 L-703.8,5591.4 L-708.6,5586.2 L-713.3,5579.8 L-716.9,5574.2 L-719.7,5568.4 L-721.9,5562.3 L-723.4,5558.1 L-724.5,5553.0 L-725.3,5547.0 L-726.1,5538.8 L-726.1,5527.1 L-727.5,5487.4 L-721.9,5487.1 L-722.7,5466.1 L-723.6,5431.5 L-718.4,5431.4 L-718.8,5407.8 L-724.7,5407.9 L-727.4,5308.5 L-721.8,5308.2 L-722.7,5284.9 L-728.1,5285.1 L-730.4,5211.6 L-703.4,5182.5 L-668.9,5181.3 L-643.2,5180.4 L-609.3,5179.3 L-576.7,5178.3 L-547.5,5177.3 L-534.8,5176.7 L-535.4,5165.4 L-535.6,5153.6 L-537.5,5115.3 L-538.2,5042.2 L-539.2,5040.9 L-539.4,5033.7 L-537.3,5033.6 L-542.4,4857.5 L-546.8,4691.8 L-547.5,4686.6 L-547.9,4677.0 L-620.1,4679.6 L-668.1,4675.5 L-1027.4,4688.0 L-1027.5,4684.8 L-1028.2,4669.5 L-1198.6,4675.5 L-1198.9,4647.2 L-1221.4,4642.1 L-1225.4,4521.0 L-562.6,4498.0 L-551.6,4482.9 L-552.0,4439.9 L-552.8,4402.7 L-553.4,4379.4 L-554.3,4356.7 L-607.0,4331.9 L-609.1,4276.8 L-555.1,4250.0 L-560.0,4122.5 L-561.4,4116.2 L-615.1,4091.1 L-616.8,4022.9 L-565.8,3996.6 L-588.5,3719.7 L-582.5,3596.5 L-579.5,3395.6 L-579.7,3177.1 L-574.9,3146.5 L-574.6,3131.7 L-579.4,3113.9 L-574.4,3113.9 L-574.4,3097.8 L-571.4,2686.8 L-571.9,2668.5 L-577.6,2668.5 L-577.4,2592.9 L-580.7,2588.2 L-585.9,2510.2 L-575.6,2438.9 L-576.9,2352.6 L-580.4,2331.9 L-575.1,2268.0 L-578.7,2190.7 L-587.7,2108.0 L-604.8,1974.0 L-596.7,1937.1 L-600.3,1901.2 L-630.9,1875.1 L-675.8,1875.5 L-744.2,1884.5 L-788.7,1884.5 L-829.1,1869.7 L-882.2,1833.3 L-882.2,1768.0 L-883.6,1687.7 L-878.4,1620.8 L-860.8,1568.6 L-566.1,1563.1 L-559.3,1145.2 L-559.3,543.6 L-562.4,325.3 L15349.8,-6246.4 L15349.8,29971.8 L-4362.7,29971.8 L-4362.7,11986.3 Z" fill="#add7e1" stroke="none"><title>Biscayne Bay</title></path><path d="M-1427.5,2616.4 L-1464.7,1457.0 L-1203.8,-1152.0 L5320.7,-1152.0 L6774.7,-282.3 L6774.7,1208.5 L5358.0,2326.6 L2151.7,2616.4 Z" fill="#add7e1" stroke="none"><title>Biscayne Bay</title></path><path d="M-1.0,-1.0 L257.0,-1.0 L257.0,257.0 L-1.0,257.0 L-1.0,-1.0 Z" fill="#add7e1" stroke="none" fill-rule="evenodd"><title>Biscayne Bay</title></path></svg>