<svg xmlns="http://www.w3.org/2000/svg" width="256" height="256" viewBox="0 0 256 256"><rect width="256" height="256" fill="#f1efe7"/><path d="M283.1,91.1 L284.1,141.3 L255.0,141.9 L254.5,121.6 L258.9,121.5 L258.7,112.5 L253.9,112.6 L253.5,91.7 L283.1,91.1 Z" fill="#d6d2c9" stroke="#bab6ad" stroke-width="0.4"></path><path d="M172.9,156.0 L145.6,156.7 L144.5,114.9 L204.8,113.3 L205.4,136.1 L172.4,137.0 L172.9,156.0 Z" fill="#d6d2c9" stroke="#bab6ad" stroke-width="0.4"></path><path d="M-51.3,201.7 L114.6,197.3 L118.2,332.4 L56.8,334.1 L57.5,361.0 L-47.0,363.8 L-51.3,201.7 Z" fill="#d6d2c9" stroke="#bab6ad" stroke-width="0.4"></path><path d="M230.0,341.9 L224.1,184.6 L223.4,169.2 L223.1,161.6" fill="none" stroke="#cf828d" stroke-width="1.5" stroke-dasharray="1.6 3.0" opacity="0.62" stroke-linecap="round" stroke-linejoin="round"></path><path d="M228.4,140.7 L205.9,141.1" fill="none" stroke="#cec8bb" stroke-width="3.5" stroke-linecap="round" stroke-linejoin="round"/><path d="M228.4,140.7 L205.9,141.1" fill="none" stroke="#ffffff" stroke-width="2.5" stroke-linecap="round" stroke-linejoin="round"></path><path d="M238.8,140.8 L228.4,140.7" fill="none" stroke="#cec8bb" stroke-width="3.5" stroke-linecap="round" stroke-linejoin="round"/><path d="M238.8,140.8 L228.4,140.7" fill="none" stroke="#ffffff" stroke-width="2.5" stroke-linecap="round" stroke-linejoin="round"></path><path d="M-72.5,172.1 L-16.4,162.9 L56.2,158.4 L104.4,165.8 L123.3,171.6 L132.0,171.3" fill="none" stroke="#cec8bb" stroke-width="3.5" stroke-linecap="round" stroke-linejoin="round"/><path d="M-72.5,172.1 L-16.4,162.9 L56.2,158.4 L104.4,165.8 L123.3,171.6 L132.0,171.3" fill="none" stroke="#ffffff" stroke-width="2.5" stroke-linecap="round" stroke-linejoin="round"></path><path d="M129.6,382.3 L123.3,171.6" fill="none" stroke="#cec8bb" stroke-width="3.5" stroke-linecap="round" stroke-linejoin="round"/><path d="M129.6,382.3 L123.3,171.6" fill="none" stroke="#ffffff" stroke-width="2.5" stroke-linecap="round" stroke-linejoin="round"></path><path d="M341.2,166.2 L239.4,168.6" fill="none" stroke="#cec8bb" stroke-width="4.8" stroke-linecap="round" stroke-linejoin="round"/><path d="M341.2,166.2 L239.4,168.6" fill="none" stroke="#ffffff" stroke-width="3.7" stroke-linecap="round" stroke-linejoin="round"><title>Northwest 38th Street</title></path><path d="M243.4,321.0 L239.4,168.6" fill="none" stroke="#cec8bb" stroke-width="4.8" stroke-linecap="round" stroke-linejoin="round"/><path d="M243.4,321.0 L239.4,168.6" fill="none" stroke="#ffffff" stroke-width="3.7" stroke-linecap="round" stroke-linejoin="round"><title>Northwest 35th Avenue</title></path><path d="M239.4,168.6 L238.8,140.8 L237.7,36.7" fill="none" stroke="#cec8bb" stroke-width="4.8" stroke-linecap="round" stroke-linejoin="round"/><path d="M239.4,168.6 L238.8,140.8 L237.7,36.7" fill="none" stroke="#ffffff" stroke-width="3.7" stroke-linecap="round" stroke-linejoin="round"><title>Northwest 35th Avenue</title></path><path d="M239.4,168.6 L223.4,169.2 L209.3,169.8 L132.0,171.3" fill="none" stroke="#cec8bb" stroke-width="4.8" stroke-linecap="round" stroke-linejoin="round"/><path d="M239.4,168.6 L223.4,169.2 L209.3,169.8 L132.0,171.3" fill="none" stroke="#ffffff" stroke-width="3.7" stroke-linecap="round" stroke-linejoin="round"><title>Northwest 38th Street</title></path><path d="M72.5,-80.7 L-136.9,-34.1" fill="none" stroke="#d87a99" stroke-width="7.8" stroke-linecap="round" stroke-linejoin="round"/><path d="M72.5,-80.7 L-136.9,-34.1" fill="none" stroke="#e88fa8" stroke-width="6.0" stroke-linecap="round" stroke-linejoin="round"></path><path d="M72.5,-80.7 L-136.9,-34.1" fill="none" stroke="#fff8ef" stroke-width="1.5" stroke-dasharray="5.5 6.5" opacity="0.82" stroke-linecap="round" stroke-linejoin="round"/><path d="M-167.3,28.3 L208.7,-58.1" fill="none" stroke="#d87a99" stroke-width="11.0" stroke-linecap="round" stroke-linejoin="round"/><path d="M-167.3,28.3 L208.7,-58.1" fill="none" stroke="#e88fa8" stroke-width="9.2" stroke-linecap="round" stroke-linejoin="round"><title>Airport Expressway</title></path><path d="M-167.3,28.3 L208.7,-58.1" fill="none" stroke="#fff8ef" stroke-width="2.0" stroke-dasharray="5.5 6.5" opacity="0.82" stroke-linecap="round" stroke-linejoin="round"/><path d="M323.8,-122.0 L-261.7,15.5" fill="none" stroke="#d87a99" stroke-width="11.0" stroke-linecap="round" stroke-linejoin="round"/><path d="M323.8,-122.0 L-261.7,15.5" fill="none" stroke="#e88fa8" stroke-width="9.2" stroke-linecap="round" stroke-linejoin="round"><title>Airport Expressway</title></path><path d="M323.8,-122.0 L-261.7,15.5" fill="none" stroke="#fff8ef" stroke-width="2.0" stroke-dasharray="5.5 6.5" opacity="0.82" stroke-linecap="round" stroke-linejoin="round"/><path d="M310.2,53.7 L292.5,58.8 L268.3,64.8 L244.5,70.5 L220.5,75.8 L192.3,81.9 L-179.5,158.7" fill="none" stroke="#fbf8ef" stroke-width="7.2" stroke-linecap="round" stroke-linejoin="round"/><path d="M310.2,53.7 L292.5,58.8 L268.3,64.8 L244.5,70.5 L220.5,75.8 L192.3,81.9 L-179.5,158.7" fill="none" stroke="#5a5796" stroke-width="5.0" stroke-linecap="round" stroke-linejoin="round"><title>Metrorail</title></path><path d="M264.8,69.9 L262.9,61.9" fill="none" stroke="#3f494e" stroke-width="0.9" stroke-linecap="round"/><path d="M255.9,72.1 L254.0,64.0" fill="none" stroke="#3f494e" stroke-width="0.9" stroke-linecap="round"/><path d="M240.9,75.6 L239.1,67.5" fill="none" stroke="#3f494e" stroke-width="0.9" stroke-linecap="round"/><path d="M232.0,77.5 L230.2,69.4" fill="none" stroke="#3f494e" stroke-width="0.9" stroke-linecap="round"/><path d="M216.9,80.8 L215.1,72.7" fill="none" stroke="#3f494e" stroke-width="0.9" stroke-linecap="round"/><path d="M208.0,82.8 L206.2,74.7" fill="none" stroke="#3f494e" stroke-width="0.9" stroke-linecap="round"/><path d="M199.1,84.7 L197.4,76.6" fill="none" stroke="#3f494e" stroke-width="0.9" stroke-linecap="round"/><path d="M188.7,86.8 L187.0,78.7" fill="none" stroke="#3f494e" stroke-width="0.9" stroke-linecap="round"/><path d="M179.8,88.7 L178.1,80.6" fill="none" stroke="#3f494e" stroke-width="0.9" stroke-linecap="round"/><path d="M170.9,90.5 L169.2,82.4" fill="none" stroke="#3f494e" stroke-width="0.9" stroke-linecap="round"/><path d="M162.0,92.4 L160.3,84.3" fill="none" stroke="#3f494e" stroke-width="0.9" stroke-linecap="round"/><path d="M153.1,94.2 L151.4,86.1" fill="none" stroke="#3f494e" stroke-width="0.9" stroke-linecap="round"/><path d="M144.2,96.1 L142.5,87.9" fill="none" stroke="#3f494e" stroke-width="0.9" stroke-linecap="round"/><path d="M135.2,97.9 L133.6,89.8" fill="none" stroke="#3f494e" stroke-width="0.9" stroke-linecap="round"/><path d="M126.3,99.7 L124.7,91.6" fill="none" stroke="#3f494e" stroke-width="0.9" stroke-linecap="round"/><path d="M117.4,101.6 L115.7,93.5" fill="none" stroke="#3f494e" stroke-width="0.9" stroke-linecap="round"/><path d="M108.5,103.4 L106.8,95.3" fill="none" stroke="#3f494e" stroke-width="0.9" stroke-linecap="round"/><path d="M99.6,105.3 L97.9,97.2" fill="none" stroke="#3f494e" stroke-width="0.9" stroke-linecap="round"/><path d="M90.7,107.1 L89.0,99.0" fill="none" stroke="#3f494e" stroke-width="0.9" stroke-linecap="round"/><path d="M81.8,109.0 L80.1,100.8" fill="none" stroke="#3f494e" stroke-width="0.9" stroke-linecap="round"/><path d="M72.9,110.8 L71.2,102.7" fill="none" stroke="#3f494e" stroke-width="0.9" stroke-linecap="round"/><path d="M64.0,112.6 L62.3,104.5" fill="none" stroke="#3f494e" stroke-width="0.9" stroke-linecap="round"/><path d="M55.0,114.5 L53.4,106.4" fill="none" stroke="#3f494e" stroke-width="0.9" stroke-linecap="round"/><path d="M46.1,116.3 L44.5,108.2" fill="none" stroke="#3f494e" stroke-width="0.9" stroke-linecap="round"/><path d="M37.2,118.2 L35.5,110.1" fill="none" stroke="#3f494e" stroke-width="0.9" stroke-linecap="round"/><path d="M28.3,120.0 L26.6,111.9" fill="none" stroke="#3f494e" stroke-width="0.9" stroke-linecap="round"/><path d="M19.4,121.8 L17.7,113.7" fill="none" stroke="#3f494e" stroke-width="0.9" stroke-linecap="round"/><path d="M10.5,123.7 L8.8,115.6" fill="none" stroke="#3f494e" stroke-width="0.9" stroke-linecap="round"/><path d="M1.6,125.5 L-0.1,117.4" fill="none" stroke="#3f494e" stroke-width="0.9" stroke-linecap="round"/><path d="M-7.3,127.4 L-9.0,119.3" fill="none" stroke="#3f494e" stroke-width="0.9" stroke-linecap="round"/><path d="M-16.2,129.2 L-17.9,121.1" fill="none" stroke="#3f494e" stroke-width="0.9" stroke-linecap="round"/><path d="M310.2,53.7 L292.5,58.8 L268.3,64.8 L244.5,70.5 L220.5,75.8 L192.3,81.9 L-179.5,158.7" fill="none" stroke="#ffffff" stroke-width="3.1" stroke-linecap="round" stroke-linejoin="round"/><path d="M-177.3,167.3 L194.1,90.4 L223.0,84.1 L246.8,78.8 L271.2,73.2 L295.3,67.3 L312.8,62.5" fill="none" stroke="#fbf8ef" stroke-width="7.2" stroke-linecap="round" stroke-linejoin="round"/><path d="M-177.3,167.3 L194.1,90.4 L223.0,84.1 L246.8,78.8 L271.2,73.2 L295.3,67.3 L312.8,62.5" fill="none" stroke="#5a5796" stroke-width="5.0" stroke-linecap="round" stroke-linejoin="round"><title>Metrorail</title></path><path d="M-13.3,129.1 L-11.6,137.2" fill="none" stroke="#3f494e" stroke-width="0.9" stroke-linecap="round"/><path d="M-4.4,127.3 L-2.7,135.4" fill="none" stroke="#3f494e" stroke-width="0.9" stroke-linecap="round"/><path d="M4.5,125.4 L6.2,133.5" fill="none" stroke="#3f494e" stroke-width="0.9" stroke-linecap="round"/><path d="M13.4,123.6 L15.1,131.7" fill="none" stroke="#3f494e" stroke-width="0.9" stroke-linecap="round"/><path d="M22.3,121.7 L24.0,129.8" fill="none" stroke="#3f494e" stroke-width="0.9" stroke-linecap="round"/><path d="M31.3,119.9 L32.9,128.0" fill="none" stroke="#3f494e" stroke-width="0.9" stroke-linecap="round"/><path d="M40.2,118.0 L41.8,126.1" fill="none" stroke="#3f494e" stroke-width="0.9" stroke-linecap="round"/><path d="M49.1,116.2 L50.8,124.3" fill="none" stroke="#3f494e" stroke-width="0.9" stroke-linecap="round"/><path d="M58.0,114.3 L59.7,122.5" fill="none" stroke="#3f494e" stroke-width="0.9" stroke-linecap="round"/><path d="M66.9,112.5 L68.6,120.6" fill="none" stroke="#3f494e" stroke-width="0.9" stroke-linecap="round"/><path d="M75.8,110.7 L77.5,118.8" fill="none" stroke="#3f494e" stroke-width="0.9" stroke-linecap="round"/><path d="M84.7,108.8 L86.4,116.9" fill="none" stroke="#3f494e" stroke-width="0.9" stroke-linecap="round"/><path d="M93.6,107.0 L95.3,115.1" fill="none" stroke="#3f494e" stroke-width="0.9" stroke-linecap="round"/><path d="M102.5,105.1 L104.2,113.2" fill="none" stroke="#3f494e" stroke-width="0.9" stroke-linecap="round"/><path d="M111.5,103.3 L113.1,111.4" fill="none" stroke="#3f494e" stroke-width="0.9" stroke-linecap="round"/><path d="M120.4,101.4 L122.0,109.5" fill="none" stroke="#3f494e" stroke-width="0.9" stroke-linecap="round"/><path d="M129.3,99.6 L131.0,107.7" fill="none" stroke="#3f494e" stroke-width="0.9" stroke-linecap="round"/><path d="M138.2,97.7 L139.9,105.9" fill="none" stroke="#3f494e" stroke-width="0.9" stroke-linecap="round"/><path d="M147.1,95.9 L148.8,104.0" fill="none" stroke="#3f494e" stroke-width="0.9" stroke-linecap="round"/><path d="M156.0,94.1 L157.7,102.2" fill="none" stroke="#3f494e" stroke-width="0.9" stroke-linecap="round"/><path d="M164.9,92.2 L166.6,100.3" fill="none" stroke="#3f494e" stroke-width="0.9" stroke-linecap="round"/><path d="M173.8,90.4 L175.5,98.5" fill="none" stroke="#3f494e" stroke-width="0.9" stroke-linecap="round"/><path d="M182.7,88.5 L184.4,96.6" fill="none" stroke="#3f494e" stroke-width="0.9" stroke-linecap="round"/><path d="M197.7,85.4 L199.5,93.5" fill="none" stroke="#3f494e" stroke-width="0.9" stroke-linecap="round"/><path d="M206.6,83.4 L208.3,91.5" fill="none" stroke="#3f494e" stroke-width="0.9" stroke-linecap="round"/><path d="M215.5,81.5 L217.2,89.6" fill="none" stroke="#3f494e" stroke-width="0.9" stroke-linecap="round"/><path d="M226.5,79.1 L228.3,87.2" fill="none" stroke="#3f494e" stroke-width="0.9" stroke-linecap="round"/><path d="M235.4,77.1 L237.2,85.2" fill="none" stroke="#3f494e" stroke-width="0.9" stroke-linecap="round"/><path d="M250.4,73.7 L252.2,81.8" fill="none" stroke="#3f494e" stroke-width="0.9" stroke-linecap="round"/><path d="M259.2,71.7 L261.1,79.8" fill="none" stroke="#3f494e" stroke-width="0.9" stroke-linecap="round"/><path d="M274.7,68.1 L276.6,76.2" fill="none" stroke="#3f494e" stroke-width="0.9" stroke-linecap="round"/><path d="M-177.3,167.3 L194.1,90.4 L223.0,84.1 L246.8,78.8 L271.2,73.2 L295.3,67.3 L312.8,62.5" fill="none" stroke="#ffffff" stroke-width="3.1" stroke-linecap="round" stroke-linejoin="round"/><text x="238.2" y="88.7" transform="rotate(89.4 238.2 88.7)" text-anchor="middle" dominant-baseline="central" font-family="Arial, sans-serif" font-size="8.3" textLength="111.6" lengthAdjust="spacing" font-weight="650" paint-order="stroke" stroke="#fffaf0" stroke-width="2.05" stroke-linejoin="round" fill="#695f54">Northwest 35th Avenue</text><text x="170.6" y="170.5" transform="rotate(-1.2 170.6 170.5)" text-anchor="middle" dominant-baseline="central" font-family="Arial, sans-serif" font-size="8.3" textLength="111.6" lengthAdjust="spacing" font-weight="650" paint-order="stroke" stroke="#fffaf0" stroke-width="2.05" stroke-linejoin="round" fill="#695f54">Northwest 38th Street</text><text x="174.2" y="135.7" text-anchor="middle" font-family="Arial, sans-serif" font-size="6.5" textLength="18.0" lengthAdjust="spacing" font-weight="500" paint-order="stroke" stroke="#f3f5ee" stroke-width="1.55" stroke-linejoin="round" fill="#6f777a">3800</text><text x="122.1" y="28.0" text-anchor="middle" font-family="Arial, sans-serif" font-size="6.5" textLength="18.0" lengthAdjust="spacing" font-weight="500" paint-order="stroke" stroke="#f3f5ee" stroke-width="1.55" stroke-linejoin="round" fill="#6f777a">3850</text><text x="203.6" y="231.9" text-anchor="middle" font-family="Arial, sans-serif" font-size="6.5" textLength="18.0" lengthAdjust="spacing" font-weight="500" paint-order="stroke" stroke="#f3f5ee" stroke-width="1.55" stroke-linejoin="round" fill="#6f777a">3523</text></svg>