<svg xmlns="http://www.w3.org/2000/svg" width="256" height="256" viewBox="0 0 256 256"><rect width="256" height="256" fill="#f1efe7"/><path d="M232.1,79.6 L159.3,82.1 L155.3,-32.1 L228.1,-34.7 L232.1,79.6 Z" fill="#d6d2c9" stroke="#bab6ad" stroke-width="0.4"></path><path d="M150.8,-106.6 L152.5,-46.7 L91.1,-44.9 L93.5,41.2 L1.8,43.9 L-2.3,-99.0 L54.1,-100.6 L55.3,-57.1 L130.4,-59.3 L129.1,-106.0 L150.8,-106.6 Z" fill="#d6d2c9" stroke="#bab6ad" stroke-width="0.4"></path><path d="M307.0,106.0 L234.4,108.4 L231.2,7.9 L303.7,5.5 L307.0,106.0 Z" fill="#d6d2c9" stroke="#bab6ad" stroke-width="0.4"></path><path d="M151.6,109.3 L133.8,109.7 L132.9,73.9 L150.6,73.4 L151.6,109.3 Z" fill="#d6d2c9" stroke="#bab6ad" stroke-width="0.4"></path><path d="M100.8,111.6 L82.3,112.1 L81.2,75.8 L99.8,75.3 L100.8,111.6 Z" fill="#d6d2c9" stroke="#bab6ad" stroke-width="0.4"></path><path d="M66.6,233.2 L5.2,235.4 L3.5,185.8 L64.9,183.7 L66.6,233.2 Z" fill="#d6d2c9" stroke="#bab6ad" stroke-width="0.4"></path><path d="M223.2,269.5 L177.0,271.4 L176.8,256.8 L222.7,255.0 L223.2,269.5 Z" fill="#d6d2c9" stroke="#bab6ad" stroke-width="0.4"></path><path d="M230.8,236.1 L230.9,238.4 L185.3,240.6 L185.1,237.5 L165.6,238.5 L164.6,218.0 L184.5,217.0 L184.5,215.9 L332.7,208.7 L333.4,223.0 L238.8,227.6 L239.2,235.6 L230.8,236.1 Z" fill="#d6d2c9" stroke="#bab6ad" stroke-width="0.4"></path><path d="M47.3,267.6 L6.0,269.0 L5.1,241.0 L46.4,239.7 L47.3,267.6 Z" fill="#d6d2c9" stroke="#bab6ad" stroke-width="0.4"></path><path d="M121.9,261.2 L82.2,262.4 L81.2,228.7 L133.4,227.7 L131.8,252.0 L120.8,252.2 L121.9,261.2 Z" fill="#d6d2c9" stroke="#bab6ad" stroke-width="0.4"></path><path d="M42.0,73.0 L54.2,73.0 L54.7,84.5 L55.1,107.7 L37.3,108.1 L37.5,116.0 L14.0,116.5 L13.2,73.5 L42.0,73.0 Z" fill="#d6d2c9" stroke="#bab6ad" stroke-width="0.4"></path><path d="M147.9,182.6 L148.0,188.3 L130.7,188.9 L130.5,183.2 L121.3,183.5 L120.7,165.9 L156.4,164.7 L157.0,182.3 L147.9,182.6 Z" fill="#d6d2c9" stroke="#bab6ad" stroke-width="0.4"></path><path d="M105.0,184.3 L105.2,189.8 L88.1,190.3 L87.9,184.8 L78.6,185.1 L78.1,167.1 L113.9,166.1 L114.4,184.0 L105.0,184.3 Z" fill="#d6d2c9" stroke="#bab6ad" stroke-width="0.4"></path><path d="M268.4,207.1 L250.6,207.7 L250.1,194.0 L256.3,193.7 L256.1,185.1 L267.7,184.8 L268.4,207.1 Z" fill="#d6d2c9" stroke="#bab6ad" stroke-width="0.4"></path><path d="M184.8,163.5 L184.9,166.6 L200.0,165.9 L200.9,186.9 L194.3,187.1 L194.5,191.3 L165.5,192.5 L164.4,167.5 L173.9,167.1 L173.8,164.0 L184.8,163.5 Z" fill="#d6d2c9" stroke="#bab6ad" stroke-width="0.4"></path><path d="M226.9,161.4 L227.1,165.2 L236.1,164.8 L236.9,181.9 L222.4,182.7 L222.9,193.9 L208.9,194.6 L207.5,165.8 L217.2,165.3 L217.1,161.9 L226.9,161.4 Z" fill="#d6d2c9" stroke="#bab6ad" stroke-width="0.4"></path><path d="M284.2,177.5 L284.4,182.6 L267.9,183.1 L267.8,178.0 L252.6,178.4 L252.1,160.7 L284.8,159.7 L285.3,177.5 L284.2,177.5 Z" fill="#d6d2c9" stroke="#bab6ad" stroke-width="0.4"></path><path d="M-8.6,163.3 L-9.8,165.0 L-11.1,168.3 L-11.4,171.6 L-11.3,175.0 L-8.1,263.7 L-7.4,267.1 L-6.2,270.7 L-4.2,273.7 L-3.8,274.3 L-1.3,277.0 L2.2,279.3 L6.1,280.9 L10.4,281.8" fill="none" stroke="#cf828d" stroke-width="1.5" stroke-dasharray="1.6 3.0" opacity="0.62" stroke-linecap="round" stroke-linejoin="round"></path><path d="M145.5,272.6 L143.7,216.3" fill="none" stroke="#cec8bb" stroke-width="3.5" stroke-linecap="round" stroke-linejoin="round"/><path d="M145.5,272.6 L143.7,216.3" fill="none" stroke="#ffffff" stroke-width="2.5" stroke-linecap="round" stroke-linejoin="round"></path><path d="M-32.2,54.6 L-15.1,53.6 L0.1,53.0 L102.0,47.9 L112.4,40.1 L114.4,32.5 L112.8,3.4 L110.5,-36.2" fill="none" stroke="#cec8bb" stroke-width="3.5" stroke-linecap="round" stroke-linejoin="round"/><path d="M-32.2,54.6 L-15.1,53.6 L0.1,53.0 L102.0,47.9 L112.4,40.1 L114.4,32.5 L112.8,3.4 L110.5,-36.2" fill="none" stroke="#ffffff" stroke-width="2.5" stroke-linecap="round" stroke-linejoin="round"></path><path d="M309.2,133.1 L-4.0,143.3 L-10.0,143.3 L-29.7,143.1" fill="none" stroke="#cec8bb" stroke-width="4.8" stroke-linecap="round" stroke-linejoin="round"/><path d="M309.2,133.1 L-4.0,143.3 L-10.0,143.3 L-29.7,143.1" fill="none" stroke="#ffffff" stroke-width="3.7" stroke-linecap="round" stroke-linejoin="round"><title>Northwest 38th Street</title></path><text x="128.0" y="139.0" transform="rotate(-1.9 128.0 139.0)" text-anchor="middle" dominant-baseline="central" font-family="Arial, sans-serif" font-size="8.3" textLength="111.6" lengthAdjust="spacing" font-weight="650" paint-order="stroke" stroke="#fffaf0" stroke-width="2.05" stroke-linejoin="round" fill="#695f54">Northwest 38th Street</text><text x="91.0" y="93.7" text-anchor="middle" font-family="Arial, sans-serif" font-size="6.5" textLength="18.0" lengthAdjust="spacing" font-weight="500" paint-order="stroke" stroke="#f3f5ee" stroke-width="1.55" stroke-linejoin="round" fill="#6f777a">3185</text><text x="35.1" y="209.5" text-anchor="middle" font-family="Arial, sans-serif" font-size="6.5" textLength="18.0" lengthAdjust="spacing" font-weight="500" paint-order="stroke" stroke="#f3f5ee" stroke-width="1.55" stroke-linejoin="round" fill="#6f777a">3190</text><text x="26.2" y="246.0" text-anchor="middle" font-family="Arial, sans-serif" font-size="6.5" textLength="18.0" lengthAdjust="spacing" font-weight="500" paint-order="stroke" stroke="#f3f5ee" stroke-width="1.55" stroke-linejoin="round" fill="#6f777a">3701</text><text x="111.9" y="246.0" text-anchor="middle" font-family="Arial, sans-serif" font-size="6.5" textLength="18.0" lengthAdjust="spacing" font-weight="500" paint-order="stroke" stroke="#f3f5ee" stroke-width="1.55" stroke-linejoin="round" fill="#6f777a">3175</text><text x="38.5" y="94.0" text-anchor="middle" font-family="Arial, sans-serif" font-size="6.5" textLength="18.0" lengthAdjust="spacing" font-weight="500" paint-order="stroke" stroke="#f3f5ee" stroke-width="1.55" stroke-linejoin="round" fill="#6f777a">3801</text><text x="183.7" y="175.2" text-anchor="middle" font-family="Arial, sans-serif" font-size="6.5" textLength="18.0" lengthAdjust="spacing" font-weight="500" paint-order="stroke" stroke="#f3f5ee" stroke-width="1.55" stroke-linejoin="round" fill="#6f777a">3140</text><text x="222.3" y="173.8" text-anchor="middle" font-family="Arial, sans-serif" font-size="6.5" textLength="18.0" lengthAdjust="spacing" font-weight="500" paint-order="stroke" stroke="#f3f5ee" stroke-width="1.55" stroke-linejoin="round" fill="#6f777a">3130</text><text x="148.3" y="172.6" text-anchor="middle" font-family="Arial, sans-serif" font-size="6.5" textLength="18.0" lengthAdjust="spacing" font-weight="500" paint-order="stroke" stroke="#f3f5ee" stroke-width="1.55" stroke-linejoin="round" fill="#6f777a">3150</text><text x="106.5" y="177.1" text-anchor="middle" font-family="Arial, sans-serif" font-size="6.5" textLength="18.0" lengthAdjust="spacing" font-weight="500" paint-order="stroke" stroke="#f3f5ee" stroke-width="1.55" stroke-linejoin="round" fill="#6f777a">3154</text><text x="139.1" y="97.1" text-anchor="middle" font-family="Arial, sans-serif" font-size="6.5" textLength="18.0" lengthAdjust="spacing" font-weight="500" paint-order="stroke" stroke="#f3f5ee" stroke-width="1.55" stroke-linejoin="round" fill="#6f777a">3153</text><text x="241.0" y="221.1" text-anchor="middle" font-family="Arial, sans-serif" font-size="6.5" textLength="18.0" lengthAdjust="spacing" font-weight="500" paint-order="stroke" stroke="#f3f5ee" stroke-width="1.55" stroke-linejoin="round" fill="#6f777a">3700</text><text x="20.4" y="16.5" text-anchor="middle" font-family="Arial, sans-serif" font-size="6.5" textLength="18.0" lengthAdjust="spacing" font-weight="500" paint-order="stroke" stroke="#f3f5ee" stroke-width="1.55" stroke-linejoin="round" fill="#6f777a">3835</text><text x="21.9" y="32.4" text-anchor="middle" font-family="Arial, sans-serif" font-size="6.5" textLength="18.0" lengthAdjust="spacing" font-weight="500" paint-order="stroke" stroke="#f3f5ee" stroke-width="1.55" stroke-linejoin="round" fill="#6f777a">3825</text><text x="83.5" y="177.4" text-anchor="middle" font-family="Arial, sans-serif" font-size="6.5" textLength="18.0" lengthAdjust="spacing" font-weight="500" paint-order="stroke" stroke="#f3f5ee" stroke-width="1.55" stroke-linejoin="round" fill="#6f777a">3166</text><text x="128.6" y="175.7" text-anchor="middle" font-family="Arial, sans-serif" font-size="6.5" textLength="18.0" lengthAdjust="spacing" font-weight="500" paint-order="stroke" stroke="#f3f5ee" stroke-width="1.55" stroke-linejoin="round" fill="#6f777a">3152</text><text x="140.5" y="239.2" text-anchor="middle" font-family="Arial, sans-serif" font-size="6.5" textLength="18.0" lengthAdjust="spacing" font-weight="500" paint-order="stroke" stroke="#f3f5ee" stroke-width="1.55" stroke-linejoin="round" fill="#6f777a">3165</text><text x="173.4" y="75.1" text-anchor="middle" font-family="Arial, sans-serif" font-size="6.5" textLength="18.0" lengthAdjust="spacing" font-weight="500" paint-order="stroke" stroke="#f3f5ee" stroke-width="1.55" stroke-linejoin="round" fill="#6f777a">3145</text><text x="208.5" y="73.4" text-anchor="middle" font-family="Arial, sans-serif" font-size="6.5" textLength="18.0" lengthAdjust="spacing" font-weight="500" paint-order="stroke" stroke="#f3f5ee" stroke-width="1.55" stroke-linejoin="round" fill="#6f777a">3115</text></svg>