<svg xmlns="http://www.w3.org/2000/svg" width="256" height="256" viewBox="0 0 256 256"><rect width="256" height="256" fill="#f1efe7"/><path d="M4.2,120.6 L89.1,190.5 L53.0,234.8 L28.7,214.8 L16.4,229.9 L-60.6,166.5 L-23.7,121.1 L-7.3,134.7 L4.2,120.6 Z" fill="#d6d2c9" stroke="#bab6ad" stroke-width="0.4"></path><path d="M-258.6,-158.9 L573.4,548.1" fill="none" stroke="#6fb5c7" stroke-width="1.7" stroke-dasharray="5 7" opacity="0.34" stroke-linecap="round" stroke-linejoin="round"><title>Miami Canal</title></path><path d="M117.8,-63.3 L106.7,-47.8 L101.8,-38.1 L101.4,-23.9 L108.9,-13.3 L169.5,37.5 L236.3,98.1 L261.5,113.1 L288.5,117.1 L307.9,118.0" fill="none" stroke="#cec8bb" stroke-width="3.5" stroke-linecap="round" stroke-linejoin="round"/><path d="M117.8,-63.3 L106.7,-47.8 L101.8,-38.1 L101.4,-23.9 L108.9,-13.3 L169.5,37.5 L236.3,98.1 L261.5,113.1 L288.5,117.1 L307.9,118.0" fill="none" stroke="#ffffff" stroke-width="2.5" stroke-linecap="round" stroke-linejoin="round"></path><path d="M209.2,428.8 L-19.7,237.3 L-386.8,-63.5" fill="none" stroke="#d1c4aa" stroke-width="5.4" stroke-linecap="round" stroke-linejoin="round"/><path d="M209.2,428.8 L-19.7,237.3 L-386.8,-63.5" fill="none" stroke="#f4d99b" stroke-width="4.0" stroke-linecap="round" stroke-linejoin="round"><title>Northwest South River Drive</title></path><path d="M311.2,43.3 L266.9,4.4 L145.5,-95.8" fill="none" stroke="#d1c4aa" stroke-width="6.4" stroke-linecap="round" stroke-linejoin="round"/><path d="M311.2,43.3 L266.9,4.4 L145.5,-95.8" fill="none" stroke="#f1c77d" stroke-width="5.0" stroke-linecap="round" stroke-linejoin="round"><title>Northwest North River Drive</title></path><path d="M144.3,-52.9 L177.4,-30.1 L217.3,-3.1 L270.6,42.2 L294.5,59.7 L331.2,84.2" fill="none" stroke="#fbf8ef" stroke-width="6.9" stroke-linecap="round" stroke-linejoin="round"/><path d="M144.3,-52.9 L177.4,-30.1 L217.3,-3.1 L270.6,42.2 L294.5,59.7 L331.2,84.2" fill="none" stroke="#465158" stroke-width="4.7" stroke-linecap="round" stroke-linejoin="round"><title>Downtown Spur Track</title></path><path d="M198.5,-20.8 L193.9,-13.9" fill="none" stroke="#3f494e" stroke-width="0.9" stroke-linecap="round"/><path d="M206.1,-15.7 L201.4,-8.8" fill="none" stroke="#3f494e" stroke-width="0.9" stroke-linecap="round"/><path d="M213.6,-10.6 L209.0,-3.7" fill="none" stroke="#3f494e" stroke-width="0.9" stroke-linecap="round"/><path d="M223.4,-3.3 L218.1,3.0" fill="none" stroke="#3f494e" stroke-width="0.9" stroke-linecap="round"/><path d="M230.4,2.6 L225.0,8.9" fill="none" stroke="#3f494e" stroke-width="0.9" stroke-linecap="round"/><path d="M237.3,8.5 L231.9,14.8" fill="none" stroke="#3f494e" stroke-width="0.9" stroke-linecap="round"/><path d="M244.2,14.4 L238.9,20.7" fill="none" stroke="#3f494e" stroke-width="0.9" stroke-linecap="round"/><path d="M251.2,20.3 L245.8,26.6" fill="none" stroke="#3f494e" stroke-width="0.9" stroke-linecap="round"/><path d="M258.1,26.2 L252.8,32.5" fill="none" stroke="#3f494e" stroke-width="0.9" stroke-linecap="round"/><path d="M265.0,32.1 L259.7,38.4" fill="none" stroke="#3f494e" stroke-width="0.9" stroke-linecap="round"/><path d="M276.7,41.5 L271.8,48.2" fill="none" stroke="#3f494e" stroke-width="0.9" stroke-linecap="round"/><path d="M144.3,-52.9 L177.4,-30.1 L217.3,-3.1 L270.6,42.2 L294.5,59.7 L331.2,84.2" fill="none" stroke="#ffffff" stroke-width="2.9" stroke-linecap="round" stroke-linejoin="round"/><text x="15.0" y="176.6" text-anchor="middle" font-family="Arial, sans-serif" font-size="6.5" textLength="18.0" lengthAdjust="spacing" font-weight="500" paint-order="stroke" stroke="#f3f5ee" stroke-width="1.55" stroke-linejoin="round" fill="#6f777a">3301</text><text x="123.6" y="246.0" text-anchor="middle" font-family="Arial, sans-serif" font-size="6.5" textLength="18.0" lengthAdjust="spacing" font-weight="500" paint-order="stroke" stroke="#f3f5ee" stroke-width="1.55" stroke-linejoin="round" fill="#6f777a">3293</text></svg>