<svg xmlns="http://www.w3.org/2000/svg" width="256" height="256" viewBox="0 0 256 256"><defs><pattern id="park-dots" width="22" height="22" patternUnits="userSpaceOnUse"><circle cx="5" cy="5" r="2.1" fill="#63a95d" fill-opacity="0.26"/><circle cx="16" cy="7" r="1.55" fill="#76b970" fill-opacity="0.23"/><circle cx="10" cy="17" r="1.9" fill="#61a65b" fill-opacity="0.24"/><circle cx="21" cy="17" r="1.25" fill="#80c174" fill-opacity="0.18"/><circle cx="1" cy="19" r="1.2" fill="#70b46a" fill-opacity="0.17"/></pattern><pattern id="park-canopy" width="54" height="48" patternUnits="userSpaceOnUse"><circle cx="12" cy="11" r="3.6" fill="#5ea75a" fill-opacity="0.22"/><circle cx="31" cy="15" r="2.9" fill="#75ba6d" fill-opacity="0.18"/><circle cx="45" cy="31" r="3.3" fill="#67ae62" fill-opacity="0.20"/><circle cx="19" cy="39" r="2.5" fill="#83c378" fill-opacity="0.16"/></pattern></defs><rect width="256" height="256" fill="#f1efe7"/><path d="M308.0,146.1 L307.9,141.2 L128.7,146.0 L129.0,151.1 L308.0,146.1 Z" fill="#e8ecec" stroke="#d7d1c5" stroke-width="0.3"></path><path d="M128.2,158.3 L128.3,163.4 L324.3,157.9 L324.2,152.6 L128.2,158.3 Z" fill="#e8ecec" stroke="#d7d1c5" stroke-width="0.3"></path><path d="M191.5,321.2 L197.9,503.7 L142.7,505.8 L140.9,461.8 L96.4,463.3 L84.6,141.2 L550.5,128.0 L554.4,129.6 L556.5,132.6 L562.3,311.4 L375.4,317.0 L191.5,321.2 Z" fill="#d5f2cb" stroke="#9fcf91" stroke-width="0.4"><title>Charles Hadley Park</title></path><path d="M191.5,321.2 L197.9,503.7 L142.7,505.8 L140.9,461.8 L96.4,463.3 L84.6,141.2 L550.5,128.0 L554.4,129.6 L556.5,132.6 L562.3,311.4 L375.4,317.0 L191.5,321.2 Z" fill="url(#park-dots)" stroke="none"/><path d="M191.5,321.2 L197.9,503.7 L142.7,505.8 L140.9,461.8 L96.4,463.3 L84.6,141.2 L550.5,128.0 L554.4,129.6 L556.5,132.6 L562.3,311.4 L375.4,317.0 L191.5,321.2 Z" fill="url(#park-canopy)" stroke="none"/><path d="M105.3,183.0 L109.9,178.6 L169.4,178.9 L169.8,189.6 L167.5,202.3 L163.2,213.6 L156.9,223.1 L149.6,231.4 L140.9,237.3 L128.2,241.9 L116.5,243.7 L104.0,243.7 L105.3,183.0 Z" fill="#c7dfbd" stroke="#8eb580" stroke-width="0.5"></path><path d="M225.2,308.1 L235.1,297.3 L234.4,240.9 L234.8,227.0 L219.7,230.2 L204.7,234.1 L191.2,239.8 L178.0,249.3 L167.7,259.0 L158.4,273.2 L155.0,287.4 L153.9,302.4 L153.6,310.1 L225.2,308.1 Z" fill="#c7dfbd" stroke="#8eb580" stroke-width="0.5"></path><path d="M254.9,249.0 L265.1,248.7 L265.6,271.1 L255.0,271.4 L254.9,249.0 Z" fill="#c7dfbd" stroke="#8eb580" stroke-width="0.5"></path><path d="M19.8,2.3 L2.1,2.6 L2.0,-5.6 L19.6,-5.9 L19.8,2.3 Z" fill="#d6d2c9" stroke="#bab6ad" stroke-width="0.4"></path><path d="M138.2,41.1 L130.8,41.5 L130.1,26.9 L137.6,26.6 L138.2,41.1 Z" fill="#d6d2c9" stroke="#bab6ad" stroke-width="0.4"></path><path d="M71.9,166.1 L55.6,166.4 L55.4,157.5 L71.7,157.2 L71.9,166.1 Z" fill="#d6d2c9" stroke="#bab6ad" stroke-width="0.4"></path><path d="M71.8,221.0 L52.4,221.5 L52.3,213.1 L71.6,212.6 L71.8,221.0 Z" fill="#d6d2c9" stroke="#bab6ad" stroke-width="0.4"></path><path d="M162.0,5.7 L145.7,5.9 L145.6,-2.7 L161.9,-2.9 L162.0,5.7 Z" fill="#d6d2c9" stroke="#bab6ad" stroke-width="0.4"></path><path d="M22.5,253.3 L0.8,253.7 L0.7,246.8 L22.4,246.4 L22.5,253.3 Z" fill="#d6d2c9" stroke="#bab6ad" stroke-width="0.4"></path><path d="M20.3,45.1 L3.9,45.6 L3.6,36.4 L20.1,35.9 L20.3,45.1 Z" fill="#d6d2c9" stroke="#bab6ad" stroke-width="0.4"></path><path d="M164.7,39.8 L156.4,40.1 L155.9,23.4 L164.3,23.2 L164.7,39.8 Z" fill="#d6d2c9" stroke="#bab6ad" stroke-width="0.4"></path><path d="M152.4,41.1 L143.1,41.5 L142.5,26.8 L151.8,26.4 L152.4,41.1 Z" fill="#d6d2c9" stroke="#bab6ad" stroke-width="0.4"></path><path d="M162.8,19.9 L146.5,20.6 L146.1,12.2 L162.5,11.5 L162.8,19.9 Z" fill="#d6d2c9" stroke="#bab6ad" stroke-width="0.4"></path><path d="M38.6,43.4 L29.6,43.7 L29.1,27.7 L38.1,27.4 L38.6,43.4 Z" fill="#d6d2c9" stroke="#bab6ad" stroke-width="0.4"></path><path d="M62.2,241.1 L62.2,245.3 L69.2,245.2 L69.4,253.1 L65.5,253.2 L65.5,254.4 L61.7,254.5 L61.7,253.4 L54.5,253.5 L54.4,248.5 L52.6,248.5 L52.4,241.7 L54.2,241.2 L62.2,241.1 Z" fill="#d6d2c9" stroke="#bab6ad" stroke-width="0.4"></path><path d="M59.4,225.2 L59.4,225.7 L70.8,225.5 L71.0,236.9 L55.6,237.3 L55.5,233.1 L53.5,233.1 L53.4,229.4 L50.8,229.4 L50.7,225.4 L59.4,225.2 Z" fill="#d6d2c9" stroke="#bab6ad" stroke-width="0.4"></path><path d="M57.6,174.9 L57.7,178.3 L59.8,178.2 L59.9,185.6 L50.9,185.7 L50.6,180.6 L49.6,180.7 L49.4,175.3 L57.6,174.9 Z" fill="#d6d2c9" stroke="#bab6ad" stroke-width="0.4"></path><path d="M15.3,206.2 L15.3,207.0 L22.1,206.8 L22.6,219.9 L12.7,220.3 L12.2,206.3 L15.3,206.2 Z" fill="#d6d2c9" stroke="#bab6ad" stroke-width="0.4"></path><path d="M65.8,154.9 L50.7,155.5 L50.3,146.0 L65.5,145.4 L65.8,154.9 Z" fill="#d6d2c9" stroke="#bab6ad" stroke-width="0.4"></path><path d="M7.9,219.0 L-3.0,219.4 L-3.3,213.2 L-3.5,207.0 L7.4,206.6 L7.7,212.8 L7.9,219.0 Z" fill="#d6d2c9" stroke="#bab6ad" stroke-width="0.4"></path><path d="M19.2,173.9 L20.4,192.5 L7.0,193.4 L6.6,186.9 L4.8,187.0 L4.0,174.9 L19.2,173.9 Z" fill="#d6d2c9" stroke="#bab6ad" stroke-width="0.4"></path><path d="M-0.3,150.6 L-0.1,155.3 L9.0,154.9 L9.1,158.5 L10.9,158.5 L11.3,168.3 L3.4,168.6 L3.4,169.6 L-2.2,169.8 L-2.4,166.8 L-5.8,167.0 L-6.5,150.9 L-0.3,150.6 Z" fill="#d6d2c9" stroke="#bab6ad" stroke-width="0.4"></path><path d="M81.1,3.9 L69.3,4.4 L68.8,-8.3 L80.6,-8.8 L81.1,3.9 Z" fill="#d6d2c9" stroke="#bab6ad" stroke-width="0.4"></path><path d="M21.5,68.7 L21.8,76.4 L27.0,76.2 L27.1,79.6 L27.3,84.5 L27.9,84.5 L28.2,96.5 L21.3,96.7 L21.1,89.2 L12.4,89.4 L6.9,89.6 L6.8,87.1 L6.7,82.0 L7.9,82.0 L7.8,80.0 L17.2,79.7 L17.2,77.7 L20.4,77.6 L20.4,76.4 L5.0,76.9 L4.7,69.2 L21.5,68.7 Z" fill="#d6d2c9" stroke="#bab6ad" stroke-width="0.4"></path><path d="M21.1,29.2 L4.3,29.9 L4.1,25.8 L4.0,21.7 L20.8,21.0 L21.1,29.2 Z" fill="#d6d2c9" stroke="#bab6ad" stroke-width="0.4"></path><path d="M98.0,103.7 L98.1,105.2 L98.9,105.2 L99.2,112.9 L96.8,113.0 L97.1,119.9 L87.8,120.3 L87.2,105.8 L95.8,105.4 L95.7,103.8 L98.0,103.7 Z" fill="#d6d2c9" stroke="#bab6ad" stroke-width="0.4"></path><path d="M85.0,102.9 L85.2,107.5 L85.8,107.4 L86.0,111.4 L85.3,111.4 L85.7,118.6 L80.5,118.8 L80.6,120.5 L73.6,120.8 L73.1,111.2 L75.0,111.1 L74.9,108.2 L77.3,108.1 L77.1,103.3 L85.0,102.9 Z" fill="#d6d2c9" stroke="#bab6ad" stroke-width="0.4"></path><path d="M196.1,116.7 L188.2,117.0 L187.5,99.0 L195.4,98.7 L196.1,116.7 Z" fill="#d6d2c9" stroke="#bab6ad" stroke-width="0.4"></path><path d="M52.6,108.0 L52.8,112.6 L56.5,112.4 L56.7,116.4 L56.9,120.3 L53.5,120.5 L53.6,122.0 L52.5,122.0 L51.5,122.1 L51.4,120.6 L49.7,120.7 L49.7,121.2 L48.2,121.2 L46.6,121.3 L46.3,113.0 L43.6,113.1 L43.4,108.4 L52.6,108.0 Z" fill="#d6d2c9" stroke="#bab6ad" stroke-width="0.4"></path><path d="M194.4,69.4 L194.5,72.1 L199.9,71.9 L200.2,80.9 L194.9,81.1 L195.2,87.7 L187.3,88.0 L186.6,69.7 L194.4,69.4 Z" fill="#d6d2c9" stroke="#bab6ad" stroke-width="0.4"></path><path d="M117.0,-8.2 L117.1,-7.5 L123.2,-7.7 L123.6,5.0 L117.8,5.2 L112.0,5.3 L111.6,-8.1 L117.0,-8.2 Z" fill="#d6d2c9" stroke="#bab6ad" stroke-width="0.4"></path><path d="M121.2,100.8 L121.3,102.7 L124.1,102.6 L124.2,106.9 L125.0,106.9 L125.5,117.8 L124.7,117.9 L124.8,120.3 L120.6,120.5 L116.3,120.7 L116.2,118.9 L115.7,118.9 L115.2,108.4 L115.9,108.4 L115.7,103.0 L118.1,102.9 L118.0,100.9 L119.6,100.8 L121.2,100.8 Z" fill="#d6d2c9" stroke="#bab6ad" stroke-width="0.4"></path><path d="M78.9,68.4 L79.0,71.0 L82.5,70.8 L83.0,81.3 L78.5,81.5 L74.0,81.7 L73.8,68.7 L76.4,68.5 L78.9,68.4 Z" fill="#d6d2c9" stroke="#bab6ad" stroke-width="0.4"></path><path d="M105.6,103.0 L105.7,106.5 L113.8,106.3 L114.2,119.7 L105.2,119.9 L104.9,110.3 L101.6,110.4 L101.4,103.1 L105.6,103.0 Z" fill="#d6d2c9" stroke="#bab6ad" stroke-width="0.4"></path><path d="M46.5,-6.4 L46.5,-5.1 L51.8,-5.4 L52.4,7.2 L42.2,7.6 L41.7,-3.9 L42.2,-3.9 L42.1,-6.2 L46.5,-6.4 Z" fill="#d6d2c9" stroke="#bab6ad" stroke-width="0.4"></path><path d="M212.7,83.0 L209.9,83.0 L209.2,72.9 L210.7,72.8 L210.4,64.3 L219.4,64.0 L220.0,80.8 L212.6,81.0 L212.7,83.0 Z" fill="#d6d2c9" stroke="#bab6ad" stroke-width="0.4"></path><path d="M67.2,120.7 L60.1,121.0 L59.8,112.7 L61.1,112.7 L61.1,112.0 L63.3,111.9 L63.2,109.9 L66.5,109.8 L66.4,108.3 L68.6,108.2 L70.7,108.2 L71.2,120.0 L67.1,120.1 L67.2,120.7 Z" fill="#d6d2c9" stroke="#bab6ad" stroke-width="0.4"></path><path d="M90.4,-9.1 L90.4,-8.2 L94.8,-8.3 L94.9,-4.6 L95.9,-4.6 L96.1,1.3 L95.0,1.4 L95.4,11.1 L84.3,11.5 L84.1,5.5 L85.0,5.5 L84.7,-1.5 L81.9,-1.4 L81.6,-8.8 L90.4,-9.1 Z" fill="#d6d2c9" stroke="#bab6ad" stroke-width="0.4"></path><path d="M40.8,66.6 L41.7,86.8 L36.5,87.0 L36.4,84.6 L31.0,84.9 L30.3,69.0 L35.0,68.8 L34.9,66.9 L40.8,66.6 Z" fill="#d6d2c9" stroke="#bab6ad" stroke-width="0.4"></path><path d="M34.4,-5.8 L34.5,-4.2 L38.0,-4.3 L38.5,7.4 L30.0,7.7 L29.8,2.9 L26.1,3.1 L25.8,-5.5 L34.4,-5.8 Z" fill="#d6d2c9" stroke="#bab6ad" stroke-width="0.4"></path><path d="M62.5,-8.2 L62.6,-6.7 L66.5,-6.8 L66.8,2.0 L65.8,2.1 L65.8,4.4 L57.4,4.8 L57.3,2.4 L56.3,2.4 L56.0,-6.4 L59.9,-6.6 L59.9,-8.1 L62.5,-8.2 Z" fill="#d6d2c9" stroke="#bab6ad" stroke-width="0.4"></path><path d="M160.4,105.8 L160.5,107.2 L165.7,107.0 L166.0,118.3 L159.0,118.6 L158.9,117.8 L147.7,118.2 L147.4,107.7 L153.9,107.4 L153.9,106.0 L160.4,105.8 Z" fill="#d6d2c9" stroke="#bab6ad" stroke-width="0.4"></path><path d="M257.2,64.3 L257.3,65.3 L262.2,65.1 L262.6,76.9 L250.5,77.3 L250.1,64.5 L257.2,64.3 Z" fill="#d6d2c9" stroke="#bab6ad" stroke-width="0.4"></path><path d="M233.9,73.5 L224.9,73.8 L224.7,66.3 L233.7,66.1 L233.8,69.8 L233.9,73.5 Z" fill="#d6d2c9" stroke="#bab6ad" stroke-width="0.4"></path><path d="M98.2,83.1 L88.0,83.5 L87.1,70.6 L92.6,70.4 L92.6,69.3 L98.1,69.1 L98.4,79.0 L98.2,83.1 Z" fill="#d6d2c9" stroke="#bab6ad" stroke-width="0.4"></path><path d="M222.1,24.1 L222.1,27.0 L225.2,26.9 L225.2,29.1 L226.3,29.0 L226.4,32.7 L226.5,36.4 L221.0,36.6 L221.0,37.7 L216.3,37.8 L216.1,31.9 L219.0,31.8 L218.7,24.2 L222.1,24.1 Z" fill="#d6d2c9" stroke="#bab6ad" stroke-width="0.4"></path><path d="M198.0,24.8 L198.3,37.2 L192.7,37.4 L192.7,38.6 L190.4,38.7 L188.0,38.7 L187.8,32.9 L190.6,32.8 L190.5,30.7 L188.6,30.8 L188.5,27.9 L188.4,25.0 L198.0,24.8 Z" fill="#d6d2c9" stroke="#bab6ad" stroke-width="0.4"></path><path d="M260.9,97.0 L260.9,98.9 L263.4,98.8 L263.8,112.8 L264.3,114.8 L260.6,114.9 L260.7,116.2 L257.9,116.3 L255.2,116.3 L254.7,99.1 L257.1,99.0 L257.1,97.1 L259.0,97.0 L260.9,97.0 Z" fill="#d6d2c9" stroke="#bab6ad" stroke-width="0.4"></path><path d="M78.2,30.5 L78.4,36.2 L81.6,36.1 L81.9,42.3 L70.3,42.8 L70.0,36.6 L73.2,36.5 L72.9,30.7 L78.2,30.5 Z" fill="#d6d2c9" stroke="#bab6ad" stroke-width="0.4"></path><path d="M138.6,23.4 L130.2,23.7 L130.0,18.2 L138.4,17.9 L138.6,23.4 Z" fill="#d6d2c9" stroke="#bab6ad" stroke-width="0.4"></path><path d="M110.6,31.0 L110.9,41.5 L106.5,41.7 L102.1,41.8 L102.0,38.1 L98.8,38.2 L98.7,34.8 L98.6,31.4 L110.6,31.0 Z" fill="#d6d2c9" stroke="#bab6ad" stroke-width="0.4"></path><path d="M84.8,94.2 L76.0,94.6 L75.7,87.6 L84.4,87.1 L84.8,94.2 Z" fill="#d6d2c9" stroke="#bab6ad" stroke-width="0.4"></path><path d="M249.3,97.1 L245.9,97.1 L245.9,92.5 L249.2,92.5 L249.3,97.1 Z" fill="#d6d2c9" stroke="#bab6ad" stroke-width="0.4"></path><path d="M203.6,97.1 L199.5,97.2 L199.3,93.6 L203.4,93.4 L203.6,97.1 Z" fill="#d6d2c9" stroke="#bab6ad" stroke-width="0.4"></path><path d="M239.3,97.0 L233.3,97.2 L233.2,92.4 L239.2,92.1 L239.3,97.0 Z" fill="#d6d2c9" stroke="#bab6ad" stroke-width="0.4"></path><path d="M38.4,95.7 L29.8,96.1 L29.5,88.9 L38.1,88.5 L38.4,95.7 Z" fill="#d6d2c9" stroke="#bab6ad" stroke-width="0.4"></path><path d="M159.2,96.1 L159.2,97.0 L156.6,97.1 L156.6,96.1 L148.0,96.4 L147.7,90.1 L163.3,89.5 L163.5,95.9 L159.2,96.1 Z" fill="#d6d2c9" stroke="#bab6ad" stroke-width="0.4"></path><path d="M189.0,-9.1 L189.1,-7.7 L194.0,-7.9 L194.3,-0.1 L184.6,0.3 L184.4,-3.3 L182.4,-3.2 L182.2,-8.8 L189.0,-9.1 Z" fill="#d6d2c9" stroke="#bab6ad" stroke-width="0.4"></path><path d="M250.5,-14.6 L250.9,-4.9 L251.7,-4.9 L251.9,-0.3 L237.7,0.2 L237.4,-8.1 L238.6,-8.2 L238.5,-11.4 L240.8,-11.5 L240.7,-14.2 L250.5,-14.6 Z" fill="#d6d2c9" stroke="#bab6ad" stroke-width="0.4"></path><path d="M20.5,13.3 L3.8,14.1 L3.4,6.0 L20.1,5.3 L20.3,9.3 L20.5,13.3 Z" fill="#d6d2c9" stroke="#bab6ad" stroke-width="0.4"></path><path d="M49.1,43.1 L41.8,43.4 L41.7,28.4 L53.6,28.0 L54.0,37.8 L48.9,38.0 L49.1,43.1 Z" fill="#d6d2c9" stroke="#bab6ad" stroke-width="0.4"></path><path d="M106.8,-3.5 L106.8,-0.8 L107.3,-0.8 L107.6,8.8 L107.1,8.8 L107.3,15.9 L97.8,16.2 L97.6,9.2 L99.6,9.1 L99.3,-0.6 L99.9,-0.6 L99.8,-3.3 L103.3,-3.4 L106.8,-3.5 Z" fill="#d6d2c9" stroke="#bab6ad" stroke-width="0.4"></path><path d="M10.6,109.2 L10.7,112.2 L16.8,111.9 L17.2,122.5 L11.4,122.7 L11.3,121.5 L6.9,121.7 L6.5,109.3 L10.6,109.2 Z" fill="#d6d2c9" stroke="#bab6ad" stroke-width="0.4"></path><path d="M243.2,63.9 L243.3,65.7 L247.8,65.5 L248.0,69.3 L248.1,73.0 L239.3,73.4 L239.0,65.1 L240.3,65.0 L240.3,64.0 L241.7,64.0 L243.2,63.9 Z" fill="#d6d2c9" stroke="#bab6ad" stroke-width="0.4"></path><path d="M236.8,28.2 L236.5,28.8 L240.5,28.7 L240.6,32.3 L240.7,35.9 L235.2,36.1 L235.3,37.3 L232.9,37.3 L230.5,37.4 L230.4,31.6 L233.1,31.5 L232.8,23.6 L236.7,23.5 L236.8,28.2 Z" fill="#d6d2c9" stroke="#bab6ad" stroke-width="0.4"></path><path d="M250.5,22.4 L250.6,28.4 L254.7,28.2 L254.9,35.5 L249.5,35.6 L249.5,36.8 L244.8,36.9 L244.0,22.6 L250.5,22.4 Z" fill="#d6d2c9" stroke="#bab6ad" stroke-width="0.4"></path><path d="M208.1,27.4 L208.2,29.7 L212.0,29.5 L212.3,36.8 L206.8,37.0 L206.8,38.1 L202.3,38.3 L202.1,32.5 L204.9,32.4 L204.7,27.5 L208.1,27.4 Z" fill="#d6d2c9" stroke="#bab6ad" stroke-width="0.4"></path><path d="M58.6,31.9 L58.7,34.4 L67.9,34.0 L68.3,43.1 L60.1,43.4 L60.1,42.8 L56.4,42.9 L56.0,32.0 L58.6,31.9 Z" fill="#d6d2c9" stroke="#bab6ad" stroke-width="0.4"></path><path d="M205.8,4.5 L202.9,4.6 L202.7,-2.1 L205.1,-2.2 L204.9,-10.6 L214.9,-10.9 L215.2,-1.5 L208.5,-1.3 L208.7,4.4 L205.8,4.5 Z" fill="#d6d2c9" stroke="#bab6ad" stroke-width="0.4"></path><path d="M236.0,100.1 L236.1,103.1 L240.7,102.9 L241.1,114.0 L227.3,114.5 L227.0,103.5 L231.5,103.3 L231.4,100.3 L236.0,100.1 Z" fill="#d6d2c9" stroke="#bab6ad" stroke-width="0.4"></path><path d="M96.6,40.1 L86.6,40.5 L86.4,33.8 L86.1,27.1 L96.1,26.7 L96.3,33.4 L96.6,40.1 Z" fill="#d6d2c9" stroke="#bab6ad" stroke-width="0.4"></path><path d="M134.8,2.3 L135.1,9.0 L130.8,9.2 L126.6,9.3 L126.4,3.9 L125.8,3.9 L125.7,0.4 L125.5,-3.1 L126.1,-3.2 L125.9,-8.5 L130.5,-8.7 L135.0,-8.8 L135.5,2.3 L134.8,2.3 Z" fill="#d6d2c9" stroke="#bab6ad" stroke-width="0.4"></path><path d="M39.0,103.8 L39.2,108.1 L41.5,108.1 L41.6,112.9 L40.5,112.9 L40.7,119.5 L40.1,119.5 L40.1,121.7 L33.5,122.0 L33.5,119.8 L32.8,119.8 L32.7,115.0 L32.1,115.0 L32.0,112.0 L32.6,112.0 L32.5,108.4 L33.0,108.4 L32.9,104.0 L36.0,103.9 L39.0,103.8 Z" fill="#d6d2c9" stroke="#bab6ad" stroke-width="0.4"></path><path d="M220.1,98.0 L220.7,117.8 L215.0,118.0 L214.8,111.2 L211.1,111.3 L211.3,118.2 L204.1,118.4 L203.6,99.7 L209.5,99.5 L209.5,100.7 L213.6,100.6 L213.6,98.1 L220.1,98.0 Z" fill="#d6d2c9" stroke="#bab6ad" stroke-width="0.4"></path><path d="M142.0,98.5 L142.9,119.0 L137.0,119.3 L137.0,118.4 L130.7,118.7 L130.6,117.9 L129.9,117.9 L129.7,112.7 L129.5,107.5 L133.6,107.3 L133.5,105.9 L134.8,105.9 L134.7,102.0 L138.3,101.9 L138.1,98.7 L142.0,98.5 Z" fill="#d6d2c9" stroke="#bab6ad" stroke-width="0.4"></path><path d="M180.5,13.1 L179.5,-11.6 L179.7,-12.9 L180.6,-15.0 L180.9,-15.3 L182.4,-16.9 L184.6,-18.0 L188.7,-19.0 L352.5,-23.0" fill="none" stroke="#cf828d" stroke-width="1.3" stroke-dasharray="1.6 3.0" opacity="0.62" stroke-linecap="round" stroke-linejoin="round"></path><path d="M353.4,41.2 L189.8,46.5 L187.5,46.3 L185.2,45.6 L183.1,44.4 L182.2,43.0 L181.6,40.5" fill="none" stroke="#cf828d" stroke-width="1.3" stroke-dasharray="1.6 3.0" opacity="0.62" stroke-linecap="round" stroke-linejoin="round"></path><path d="M181.6,40.5 L180.6,16.3" fill="none" stroke="#cf828d" stroke-width="1.3" stroke-dasharray="1.6 3.0" opacity="0.62" stroke-linecap="round" stroke-linejoin="round"></path><path d="M180.6,16.3 L180.6,14.3 L180.5,13.1" fill="none" stroke="#cf828d" stroke-width="1.3" stroke-dasharray="1.6 3.0" opacity="0.62" stroke-linecap="round" stroke-linejoin="round"></path><path d="M166.8,-14.9 L169.1,44.7 L168.7,46.2 L167.5,47.0 L165.9,47.1 L1.7,52.3 L0.5,51.9 L-0.7,51.0 L-1.8,49.0 L-2.0,47.5 L-4.6,-8.9 L-4.6,-10.3 L-3.9,-11.6 L-2.5,-12.1 L164.3,-17.4 L165.4,-17.4 L166.3,-16.8 L166.8,-16.0 L166.8,-14.9" fill="none" stroke="#cf828d" stroke-width="1.3" stroke-dasharray="1.6 3.0" opacity="0.62" stroke-linecap="round" stroke-linejoin="round"></path><path d="M314.7,204.0 L292.4,204.0 L272.4,206.0 L260.2,208.6 L253.4,210.5 L248.9,212.4 L247.4,213.1" fill="none" stroke="#cf828d" stroke-width="1.3" stroke-dasharray="1.6 3.0" opacity="0.62" stroke-linecap="round" stroke-linejoin="round"></path><path d="M247.4,213.1 L246.9,221.8 L246.5,225.7 L246.1,227.1 L245.0,230.6 L242.5,237.6 L240.4,245.8 L239.8,252.6 L240.6,261.3 L243.9,274.1 L244.6,275.3 L246.5,278.6 L249.9,280.9 L313.2,279.0" fill="none" stroke="#cf828d" stroke-width="1.3" stroke-dasharray="1.6 3.0" opacity="0.62" stroke-linecap="round" stroke-linejoin="round"></path><path d="M247.4,213.1 L248.0,206.0 L247.5,197.1 L243.6,187.9 L236.5,179.0 L229.5,174.6 L220.0,172.5 L205.0,170.9 L192.5,168.6 L187.7,169.1 L184.6,169.4 L176.0,171.6 L167.9,172.5 L158.0,172.9 L146.4,171.9 L133.4,169.9 L120.4,167.5 L112.6,166.3 L108.2,166.1 L104.4,166.8 L96.6,170.8 L94.5,171.9 L92.9,173.7 L92.3,177.1 L91.6,184.7 L92.5,194.1 L93.5,198.6 L95.4,205.9 L96.2,213.0 L95.2,225.1 L92.6,237.2 L90.6,247.0 L90.3,254.1 L91.0,263.8 L92.9,271.9 L98.7,278.8 L107.4,287.0 L116.4,295.2 L119.0,297.5 L130.4,307.0" fill="none" stroke="#cf828d" stroke-width="1.3" stroke-dasharray="1.6 3.0" opacity="0.62" stroke-linecap="round" stroke-linejoin="round"></path><path d="M240.7,305.0 L242.4,297.4 L243.3,289.1 L243.6,281.2 L244.6,275.3" fill="none" stroke="#cf828d" stroke-width="1.3" stroke-dasharray="1.6 3.0" opacity="0.62" stroke-linecap="round" stroke-linejoin="round"></path><path d="M188.7,151.9 L188.3,159.8 L187.7,169.1" fill="none" stroke="#cf828d" stroke-width="1.3" stroke-dasharray="1.6 3.0" opacity="0.62" stroke-linecap="round" stroke-linejoin="round"></path><path d="M248.9,212.4 L253.2,217.0 L258.1,221.1 L259.1,221.6 L264.8,224.3 L273.9,227.4 L281.3,228.9 L289.2,228.7 L295.6,226.4 L303.4,221.2 L311.7,214.2" fill="none" stroke="#cf828d" stroke-width="1.3" stroke-dasharray="1.6 3.0" opacity="0.62" stroke-linecap="round" stroke-linejoin="round"></path><path d="M259.1,221.6 L255.1,222.0 L252.4,222.8 L248.9,224.3 L246.1,227.1" fill="none" stroke="#cf828d" stroke-width="1.3" stroke-dasharray="1.6 3.0" opacity="0.62" stroke-linecap="round" stroke-linejoin="round"></path><path d="M128.3,153.7 L124.2,150.3 L121.8,145.5 L120.1,134.4" fill="none" stroke="#cec8bb" stroke-width="3.2" stroke-linecap="round" stroke-linejoin="round"/><path d="M128.3,153.7 L124.2,150.3 L121.8,145.5 L120.1,134.4" fill="none" stroke="#ffffff" stroke-width="2.2" stroke-linecap="round" stroke-linejoin="round"></path><path d="M321.2,147.7 L188.7,151.9 L128.3,153.7" fill="none" stroke="#cec8bb" stroke-width="3.2" stroke-linecap="round" stroke-linejoin="round"/><path d="M321.2,147.7 L188.7,151.9 L128.3,153.7" fill="none" stroke="#ffffff" stroke-width="2.2" stroke-linecap="round" stroke-linejoin="round"></path><path d="M177.2,92.5 L209.0,91.6 L282.8,88.7 L359.5,86.8" fill="none" stroke="#cec8bb" stroke-width="3.2" stroke-linecap="round" stroke-linejoin="round"/><path d="M177.2,92.5 L209.0,91.6 L282.8,88.7 L359.5,86.8" fill="none" stroke="#ffffff" stroke-width="2.2" stroke-linecap="round" stroke-linejoin="round"></path><path d="M173.9,14.4 L180.6,14.3 L207.9,13.6 L267.8,11.3 L312.7,10.4" fill="none" stroke="#cec8bb" stroke-width="3.2" stroke-linecap="round" stroke-linejoin="round"/><path d="M173.9,14.4 L180.6,14.3 L207.9,13.6 L267.8,11.3 L312.7,10.4" fill="none" stroke="#ffffff" stroke-width="2.2" stroke-linecap="round" stroke-linejoin="round"></path><path d="M39.1,185.3 L39.2,174.6 L39.2,168.3 L38.4,135.7" fill="none" stroke="#cec8bb" stroke-width="4.3" stroke-linecap="round" stroke-linejoin="round"/><path d="M39.1,185.3 L39.2,174.6 L39.2,168.3 L38.4,135.7" fill="none" stroke="#ffffff" stroke-width="3.2" stroke-linecap="round" stroke-linejoin="round"><title>Northwest 15th Avenue</title></path><path d="M42.2,229.4 L31.3,229.9 L-8.3,231.0 L-47.0,232.2 L-55.6,232.6" fill="none" stroke="#cec8bb" stroke-width="4.3" stroke-linecap="round" stroke-linejoin="round"/><path d="M42.2,229.4 L31.3,229.9 L-8.3,231.0 L-47.0,232.2 L-55.6,232.6" fill="none" stroke="#ffffff" stroke-width="3.2" stroke-linecap="round" stroke-linejoin="round"><title>Northwest 49th Street</title></path><path d="M322.3,129.3 L178.6,133.5 L120.1,134.4 L38.4,135.7 L8.9,136.5 L-4.4,136.8 L-26.1,137.5 L-57.9,138.6" fill="none" stroke="#cec8bb" stroke-width="4.3" stroke-linecap="round" stroke-linejoin="round"/><path d="M322.3,129.3 L178.6,133.5 L120.1,134.4 L38.4,135.7 L8.9,136.5 L-4.4,136.8 L-26.1,137.5 L-57.9,138.6" fill="none" stroke="#ffffff" stroke-width="3.2" stroke-linecap="round" stroke-linejoin="round"><title>Northwest 50th Street</title></path><path d="M45.0,325.3 L43.4,270.6 L42.4,235.9 L42.2,229.4 L39.1,185.3" fill="none" stroke="#cec8bb" stroke-width="4.3" stroke-linecap="round" stroke-linejoin="round"/><path d="M45.0,325.3 L43.4,270.6 L42.4,235.9 L42.2,229.4 L39.1,185.3" fill="none" stroke="#ffffff" stroke-width="3.2" stroke-linecap="round" stroke-linejoin="round"><title>Northwest 15th Avenue</title></path><path d="M-55.2,239.5 L-46.8,239.0 L-7.9,237.8 L31.8,236.6 L42.4,235.9" fill="none" stroke="#cec8bb" stroke-width="4.3" stroke-linecap="round" stroke-linejoin="round"/><path d="M-55.2,239.5 L-46.8,239.0 L-7.9,237.8 L31.8,236.6 L42.4,235.9" fill="none" stroke="#ffffff" stroke-width="3.2" stroke-linecap="round" stroke-linejoin="round"><title>Northwest 49th Street</title></path><path d="M30.2,174.7 L39.2,174.6" fill="none" stroke="#cec8bb" stroke-width="4.3" stroke-linecap="round" stroke-linejoin="round"/><path d="M30.2,174.7 L39.2,174.6" fill="none" stroke="#ffffff" stroke-width="3.2" stroke-linecap="round" stroke-linejoin="round"></path><path d="M8.9,136.5 L14.8,145.2 L21.9,154.2 L27.9,164.1 L30.2,173.1 L30.2,174.7 L31.0,201.7 L31.3,229.9 L31.8,236.6 L34.0,268.5 L34.1,270.9 L36.1,316.6" fill="none" stroke="#cec8bb" stroke-width="4.3" stroke-linecap="round" stroke-linejoin="round"/><path d="M8.9,136.5 L14.8,145.2 L21.9,154.2 L27.9,164.1 L30.2,173.1 L30.2,174.7 L31.0,201.7 L31.3,229.9 L31.8,236.6 L34.0,268.5 L34.1,270.9 L36.1,316.6" fill="none" stroke="#ffffff" stroke-width="3.2" stroke-linecap="round" stroke-linejoin="round"><title>Northwest 15th Avenue</title></path><path d="M368.6,46.2 L176.0,54.2 L-6.4,56.2" fill="none" stroke="#cec8bb" stroke-width="4.3" stroke-linecap="round" stroke-linejoin="round"/><path d="M368.6,46.2 L176.0,54.2 L-6.4,56.2" fill="none" stroke="#ffffff" stroke-width="3.2" stroke-linecap="round" stroke-linejoin="round"><title>Northwest 51st Street</title></path><path d="M176.0,54.2 L173.9,14.4 L171.8,-25.1 L170.5,-60.8" fill="none" stroke="#cec8bb" stroke-width="4.3" stroke-linecap="round" stroke-linejoin="round"/><path d="M176.0,54.2 L173.9,14.4 L171.8,-25.1 L170.5,-60.8" fill="none" stroke="#ffffff" stroke-width="3.2" stroke-linecap="round" stroke-linejoin="round"><title>Northwest 14th Avenue</title></path><path d="M178.6,133.5 L177.2,92.5 L176.0,54.2" fill="none" stroke="#cec8bb" stroke-width="4.3" stroke-linecap="round" stroke-linejoin="round"/><path d="M178.6,133.5 L177.2,92.5 L176.0,54.2" fill="none" stroke="#ffffff" stroke-width="3.2" stroke-linecap="round" stroke-linejoin="round"><title>Northwest 14th Avenue</title></path><text x="79.2" y="135.0" transform="rotate(-0.9 79.2 135.0)" text-anchor="middle" dominant-baseline="central" font-family="Arial, sans-serif" font-size="8.3" textLength="111.6" lengthAdjust="spacing" font-weight="650" paint-order="stroke" stroke="#fffaf0" stroke-width="2.05" stroke-linejoin="round" fill="#695f54">Northwest 50th Street</text><text x="96.0" y="55.0" transform="rotate(-0.6 96.0 55.0)" text-anchor="middle" dominant-baseline="central" font-family="Arial, sans-serif" font-size="8.3" textLength="111.6" lengthAdjust="spacing" font-weight="650" paint-order="stroke" stroke="#fffaf0" stroke-width="2.05" stroke-linejoin="round" fill="#695f54">Northwest 51st Street</text><text x="134.2" y="34.0" text-anchor="middle" font-family="Arial, sans-serif" font-size="6.5" textLength="18.0" lengthAdjust="spacing" font-weight="500" paint-order="stroke" stroke="#f3f5ee" stroke-width="1.55" stroke-linejoin="round" fill="#6f777a">1411</text><text x="63.6" y="161.8" text-anchor="middle" font-family="Arial, sans-serif" font-size="6.5" textLength="18.0" lengthAdjust="spacing" font-weight="500" paint-order="stroke" stroke="#f3f5ee" stroke-width="1.55" stroke-linejoin="round" fill="#6f777a">4951</text><text x="62.0" y="217.1" text-anchor="middle" font-family="Arial, sans-serif" font-size="6.5" textLength="18.0" lengthAdjust="spacing" font-weight="500" paint-order="stroke" stroke="#f3f5ee" stroke-width="1.55" stroke-linejoin="round" fill="#6f777a">4905</text><text x="15.0" y="246.0" text-anchor="middle" font-family="Arial, sans-serif" font-size="6.5" textLength="18.0" lengthAdjust="spacing" font-weight="500" paint-order="stroke" stroke="#f3f5ee" stroke-width="1.55" stroke-linejoin="round" fill="#6f777a">1500</text><text x="15.0" y="40.7" text-anchor="middle" font-family="Arial, sans-serif" font-size="6.5" textLength="18.0" lengthAdjust="spacing" font-weight="500" paint-order="stroke" stroke="#f3f5ee" stroke-width="1.55" stroke-linejoin="round" fill="#6f777a">1491</text><text x="160.3" y="31.6" text-anchor="middle" font-family="Arial, sans-serif" font-size="6.5" textLength="18.0" lengthAdjust="spacing" font-weight="500" paint-order="stroke" stroke="#f3f5ee" stroke-width="1.55" stroke-linejoin="round" fill="#6f777a">5100</text><text x="60.4" y="246.0" text-anchor="middle" font-family="Arial, sans-serif" font-size="6.5" textLength="18.0" lengthAdjust="spacing" font-weight="500" paint-order="stroke" stroke="#f3f5ee" stroke-width="1.55" stroke-linejoin="round" fill="#6f777a">4851</text><text x="16.7" y="211.1" text-anchor="middle" font-family="Arial, sans-serif" font-size="6.5" textLength="18.0" lengthAdjust="spacing" font-weight="500" paint-order="stroke" stroke="#f3f5ee" stroke-width="1.55" stroke-linejoin="round" fill="#6f777a">4900</text><text x="15.0" y="184.8" text-anchor="middle" font-family="Arial, sans-serif" font-size="6.5" textLength="18.0" lengthAdjust="spacing" font-weight="500" paint-order="stroke" stroke="#f3f5ee" stroke-width="1.55" stroke-linejoin="round" fill="#6f777a">4930</text><text x="15.0" y="161.6" text-anchor="middle" font-family="Arial, sans-serif" font-size="6.5" textLength="18.0" lengthAdjust="spacing" font-weight="500" paint-order="stroke" stroke="#f3f5ee" stroke-width="1.55" stroke-linejoin="round" fill="#6f777a">4970</text><text x="95.5" y="109.5" text-anchor="middle" font-family="Arial, sans-serif" font-size="6.5" textLength="18.0" lengthAdjust="spacing" font-weight="500" paint-order="stroke" stroke="#f3f5ee" stroke-width="1.55" stroke-linejoin="round" fill="#6f777a">1435</text><text x="191.8" y="107.8" text-anchor="middle" font-family="Arial, sans-serif" font-size="6.5" textLength="18.0" lengthAdjust="spacing" font-weight="500" paint-order="stroke" stroke="#f3f5ee" stroke-width="1.55" stroke-linejoin="round" fill="#6f777a">1399</text><text x="50.9" y="117.4" text-anchor="middle" font-family="Arial, sans-serif" font-size="6.5" textLength="18.0" lengthAdjust="spacing" font-weight="500" paint-order="stroke" stroke="#f3f5ee" stroke-width="1.55" stroke-linejoin="round" fill="#6f777a">1461</text><text x="194.1" y="77.6" text-anchor="middle" font-family="Arial, sans-serif" font-size="6.5" textLength="18.0" lengthAdjust="spacing" font-weight="500" paint-order="stroke" stroke="#f3f5ee" stroke-width="1.55" stroke-linejoin="round" fill="#6f777a">5025</text><text x="62.6" y="75.4" text-anchor="middle" font-family="Arial, sans-serif" font-size="6.5" textLength="18.0" lengthAdjust="spacing" font-weight="500" paint-order="stroke" stroke="#f3f5ee" stroke-width="1.55" stroke-linejoin="round" fill="#6f777a">1460</text><text x="120.1" y="110.0" text-anchor="middle" font-family="Arial, sans-serif" font-size="6.5" textLength="18.0" lengthAdjust="spacing" font-weight="500" paint-order="stroke" stroke="#f3f5ee" stroke-width="1.55" stroke-linejoin="round" fill="#6f777a">1421</text><text x="35.8" y="76.8" text-anchor="middle" font-family="Arial, sans-serif" font-size="6.5" textLength="18.0" lengthAdjust="spacing" font-weight="500" paint-order="stroke" stroke="#f3f5ee" stroke-width="1.55" stroke-linejoin="round" fill="#6f777a">1480</text><text x="32.1" y="16.5" text-anchor="middle" font-family="Arial, sans-serif" font-size="6.5" textLength="18.0" lengthAdjust="spacing" font-weight="500" paint-order="stroke" stroke="#f3f5ee" stroke-width="1.55" stroke-linejoin="round" fill="#6f777a">1480</text><text x="157.3" y="111.4" text-anchor="middle" font-family="Arial, sans-serif" font-size="6.5" textLength="18.0" lengthAdjust="spacing" font-weight="500" paint-order="stroke" stroke="#f3f5ee" stroke-width="1.55" stroke-linejoin="round" fill="#6f777a">1401</text><text x="230.2" y="69.9" text-anchor="middle" font-family="Arial, sans-serif" font-size="6.5" textLength="18.0" lengthAdjust="spacing" font-weight="500" paint-order="stroke" stroke="#f3f5ee" stroke-width="1.55" stroke-linejoin="round" fill="#6f777a">1372</text><text x="93.6" y="75.0" text-anchor="middle" font-family="Arial, sans-serif" font-size="6.5" textLength="18.0" lengthAdjust="spacing" font-weight="500" paint-order="stroke" stroke="#f3f5ee" stroke-width="1.55" stroke-linejoin="round" fill="#6f777a">1444</text><text x="222.0" y="31.2" text-anchor="middle" font-family="Arial, sans-serif" font-size="6.5" textLength="18.0" lengthAdjust="spacing" font-weight="500" paint-order="stroke" stroke="#f3f5ee" stroke-width="1.55" stroke-linejoin="round" fill="#6f777a">1385</text><text x="191.2" y="33.0" text-anchor="middle" font-family="Arial, sans-serif" font-size="6.5" textLength="18.0" lengthAdjust="spacing" font-weight="500" paint-order="stroke" stroke="#f3f5ee" stroke-width="1.55" stroke-linejoin="round" fill="#6f777a">1399</text><text x="75.8" y="36.5" text-anchor="middle" font-family="Arial, sans-serif" font-size="6.5" textLength="18.0" lengthAdjust="spacing" font-weight="500" paint-order="stroke" stroke="#f3f5ee" stroke-width="1.55" stroke-linejoin="round" fill="#6f777a">1455</text><text x="103.5" y="37.3" text-anchor="middle" font-family="Arial, sans-serif" font-size="6.5" textLength="18.0" lengthAdjust="spacing" font-weight="500" paint-order="stroke" stroke="#f3f5ee" stroke-width="1.55" stroke-linejoin="round" fill="#6f777a">1437</text><text x="156.8" y="94.8" text-anchor="middle" font-family="Arial, sans-serif" font-size="6.5" textLength="18.0" lengthAdjust="spacing" font-weight="500" paint-order="stroke" stroke="#f3f5ee" stroke-width="1.55" stroke-linejoin="round" fill="#6f777a">5020</text><text x="48.2" y="36.4" text-anchor="middle" font-family="Arial, sans-serif" font-size="6.5" textLength="18.0" lengthAdjust="spacing" font-weight="500" paint-order="stroke" stroke="#f3f5ee" stroke-width="1.55" stroke-linejoin="round" fill="#6f777a">1475</text><text x="103.1" y="16.5" text-anchor="middle" font-family="Arial, sans-serif" font-size="6.5" textLength="18.0" lengthAdjust="spacing" font-weight="500" paint-order="stroke" stroke="#f3f5ee" stroke-width="1.55" stroke-linejoin="round" fill="#6f777a">1436</text><text x="15.0" y="116.4" text-anchor="middle" font-family="Arial, sans-serif" font-size="6.5" textLength="18.0" lengthAdjust="spacing" font-weight="500" paint-order="stroke" stroke="#f3f5ee" stroke-width="1.55" stroke-linejoin="round" fill="#6f777a">1479</text><text x="233.9" y="105.2" text-anchor="middle" font-family="Arial, sans-serif" font-size="6.5" textLength="18.0" lengthAdjust="spacing" font-weight="500" paint-order="stroke" stroke="#f3f5ee" stroke-width="1.55" stroke-linejoin="round" fill="#6f777a">1375</text><text x="129.5" y="16.5" text-anchor="middle" font-family="Arial, sans-serif" font-size="6.5" textLength="18.0" lengthAdjust="spacing" font-weight="500" paint-order="stroke" stroke="#f3f5ee" stroke-width="1.55" stroke-linejoin="round" fill="#6f777a">1420</text><text x="212.2" y="107.6" text-anchor="middle" font-family="Arial, sans-serif" font-size="6.5" textLength="18.0" lengthAdjust="spacing" font-weight="500" paint-order="stroke" stroke="#f3f5ee" stroke-width="1.55" stroke-linejoin="round" fill="#6f777a">1385</text><text x="65.3" y="181.9" text-anchor="middle" font-family="Arial, sans-serif" font-size="6.5" textLength="18.0" lengthAdjust="spacing" font-weight="500" paint-order="stroke" stroke="#f3f5ee" stroke-width="1.55" stroke-linejoin="round" fill="#6f777a">4941</text><text x="15.0" y="85.9" text-anchor="middle" font-family="Arial, sans-serif" font-size="6.5" textLength="18.0" lengthAdjust="spacing" font-weight="500" paint-order="stroke" stroke="#f3f5ee" stroke-width="1.55" stroke-linejoin="round" fill="#6f777a">5025</text><text x="113.3" y="76.8" text-anchor="middle" font-family="Arial, sans-serif" font-size="6.5" textLength="18.0" lengthAdjust="spacing" font-weight="500" paint-order="stroke" stroke="#f3f5ee" stroke-width="1.55" stroke-linejoin="round" fill="#6f777a">1428</text><g><title>parking</title><circle cx="218.4" cy="146.1" r="6.0" fill="#2f8ec8" stroke="#ffffff" stroke-width="1.7"/><text x="218.4" y="146.3" text-anchor="middle" dominant-baseline="central" font-family="Arial, sans-serif" font-size="11.4" font-weight="700" fill="#ffffff">P</text></g></svg>