<svg xmlns="http://www.w3.org/2000/svg" width="256" height="256" viewBox="0 0 256 256"><rect width="256" height="256" fill="#f1efe7"/><path d="M-54.5,80.1 L18.3,143.1 L-52.4,145.3 L-54.5,80.1 Z" fill="#ece7dc" stroke="#d7d1c5" stroke-width="0.3"></path><path d="M172.9,94.2 L171.8,44.8 L101.7,46.4 L102.9,95.8 L172.9,94.2 Z" fill="#ece7dc" stroke="#d7d1c5" stroke-width="0.3"></path><path d="M36.8,164.7 L36.8,166.7 L39.3,166.6 L39.7,176.4 L51.9,175.9 L52.3,186.1 L32.4,186.9 L31.5,164.9 L36.8,164.7 Z" fill="#d6d2c9" stroke="#bab6ad" stroke-width="0.4"></path><path d="M242.5,264.8 L232.4,265.0 L231.9,246.6 L242.0,246.4 L242.5,264.8 Z" fill="#d6d2c9" stroke="#bab6ad" stroke-width="0.4"></path><path d="M20.2,4.8 L20.6,35.2 L9.6,35.3 L9.5,26.7 L7.4,26.7 L7.3,21.3 L9.6,21.3 L9.5,16.7 L4.7,16.7 L4.7,19.9 L1.3,20.0 L1.2,16.6 L-2.6,16.6 L-2.4,32.3 L-0.6,32.3 L-0.6,35.6 L-12.6,35.7 L-13.0,5.2 L20.2,4.8 Z" fill="#d6d2c9" stroke="#bab6ad" stroke-width="0.4"></path><path d="M4.4,230.9 L-7.3,231.2 L-7.7,212.8 L13.2,212.3 L13.5,225.0 L4.2,225.2 L4.4,230.9 Z" fill="#d6d2c9" stroke="#bab6ad" stroke-width="0.4"></path><path d="M127.2,160.5 L127.5,184.3 L110.4,184.5 L110.3,178.6 L115.9,178.5 L115.8,167.0 L110.0,167.1 L109.9,160.7 L127.2,160.5 Z" fill="#d6d2c9" stroke="#bab6ad" stroke-width="0.4"></path><path d="M10.7,186.8 L2.4,187.0 L1.9,169.8 L3.9,169.7 L3.8,164.2 L7.6,164.1 L7.3,157.5 L14.0,157.3 L14.2,165.5 L11.6,165.6 L12.0,177.4 L10.4,177.4 L10.7,186.8 Z" fill="#d6d2c9" stroke="#bab6ad" stroke-width="0.4"></path><path d="M16.2,265.2 L6.7,265.5 L6.2,247.9 L15.8,247.6 L16.2,265.2 Z" fill="#d6d2c9" stroke="#bab6ad" stroke-width="0.4"></path><path d="M73.1,155.4 L78.9,160.5 L81.7,157.3 L87.2,162.0 L79.8,170.5 L68.6,160.7 L73.1,155.4 Z" fill="#d6d2c9" stroke="#bab6ad" stroke-width="0.4"></path><path d="M81.6,32.4 L57.9,33.2 L57.4,20.3 L68.8,19.8 L67.9,-6.8 L80.2,-7.3 L81.6,32.4 Z" fill="#d6d2c9" stroke="#bab6ad" stroke-width="0.4"></path><path d="M125.3,254.3 L107.5,254.3 L107.5,246.8 L125.3,246.7 L125.3,254.3 Z" fill="#d6d2c9" stroke="#bab6ad" stroke-width="0.4"></path><path d="M82.8,129.8 L58.5,130.2 L58.4,117.7 L72.1,117.5 L72.0,111.2 L82.6,111.1 L82.8,129.8 Z" fill="#d6d2c9" stroke="#bab6ad" stroke-width="0.4"></path><path d="M47.7,130.7 L38.1,131.1 L37.3,109.7 L46.8,109.3 L47.7,130.7 Z" fill="#d6d2c9" stroke="#bab6ad" stroke-width="0.4"></path><path d="M128.9,99.1 L129.2,111.8 L124.4,111.9 L124.4,114.1 L130.6,114.0 L130.9,128.6 L123.0,128.8 L122.7,115.7 L117.6,115.8 L117.8,122.7 L108.0,123.0 L107.8,113.5 L114.8,113.3 L114.7,109.1 L107.6,109.3 L107.4,99.6 L128.9,99.1 Z" fill="#d6d2c9" stroke="#bab6ad" stroke-width="0.4"></path><path d="M0.9,65.0 L1.4,84.3 L-18.7,84.9 L-19.2,65.5 L-10.6,65.3 L-10.2,78.5 L-7.2,78.4 L-7.5,65.2 L0.9,65.0 Z" fill="#d6d2c9" stroke="#bab6ad" stroke-width="0.4"></path><path d="M30.3,266.2 L21.2,266.5 L20.5,245.1 L29.6,244.8 L30.3,266.2 Z" fill="#d6d2c9" stroke="#bab6ad" stroke-width="0.4"></path><path d="M146.0,221.7 L136.6,222.1 L135.8,201.7 L145.2,201.4 L146.0,221.7 Z" fill="#d6d2c9" stroke="#bab6ad" stroke-width="0.4"></path><path d="M29.8,230.6 L20.4,230.9 L19.8,213.9 L29.2,213.5 L29.8,230.6 Z" fill="#d6d2c9" stroke="#bab6ad" stroke-width="0.4"></path><path d="M42.6,241.2 L32.8,241.5 L32.1,212.0 L41.8,211.8 L42.6,241.2 Z" fill="#d6d2c9" stroke="#bab6ad" stroke-width="0.4"></path><path d="M37.3,35.0 L26.3,35.4 L25.2,3.0 L36.3,2.7 L37.3,35.0 Z" fill="#d6d2c9" stroke="#bab6ad" stroke-width="0.4"></path><path d="M76.9,102.4 L60.6,102.8 L60.2,86.7 L76.5,86.2 L76.9,102.4 Z" fill="#d6d2c9" stroke="#bab6ad" stroke-width="0.4"></path><path d="M43.1,270.8 L35.2,271.0 L34.4,248.0 L42.3,247.7 L43.1,270.8 Z" fill="#d6d2c9" stroke="#bab6ad" stroke-width="0.4"></path><path d="M148.3,-21.8 L148.5,-13.0 L163.0,-13.4 L163.2,-7.0 L167.7,-7.1 L167.9,1.4 L140.7,2.2 L140.5,-5.9 L123.0,-5.4 L123.0,-7.0 L118.9,-6.9 L118.8,-12.1 L114.0,-12.0 L113.8,-19.4 L119.4,-19.5 L119.4,-21.0 L148.3,-21.8 Z" fill="#d6d2c9" stroke="#bab6ad" stroke-width="0.4"></path><path d="M72.8,81.5 L53.4,82.0 L53.1,70.7 L72.5,70.2 L72.8,81.5 Z" fill="#d6d2c9" stroke="#bab6ad" stroke-width="0.4"></path><path d="M170.3,94.9 L170.3,95.9 L170.9,95.9 L171.4,114.3 L164.1,114.5 L164.2,115.7 L159.3,115.9 L159.3,114.9 L146.9,115.2 L147.0,116.7 L141.5,116.8 L141.5,115.6 L136.6,115.7 L136.8,115.1 L134.5,115.2 L134.0,96.8 L134.7,96.8 L134.7,96.1 L136.8,96.1 L136.8,96.9 L146.3,96.7 L146.3,95.8 L151.3,95.6 L151.3,96.4 L156.8,96.2 L156.7,95.5 L159.0,95.5 L159.0,96.1 L168.1,95.9 L168.1,94.9 L170.3,94.9 Z" fill="#d6d2c9" stroke="#bab6ad" stroke-width="0.4"></path><path d="M96.8,258.0 L66.4,258.9 L66.1,250.7 L96.6,249.3 L96.8,258.0 Z" fill="#d6d2c9" stroke="#bab6ad" stroke-width="0.4"></path><path d="M203.4,260.4 L199.9,264.2 L197.7,262.2 L192.7,267.8 L186.6,262.4 L198.5,249.0 L206.8,256.5 L203.4,260.4 Z" fill="#d6d2c9" stroke="#bab6ad" stroke-width="0.4"></path><path d="M111.2,229.4 L111.3,230.4 L113.3,230.3 L113.4,233.1 L113.5,236.0 L111.5,236.1 L111.6,239.0 L101.0,239.3 L100.8,229.7 L111.2,229.4 Z" fill="#d6d2c9" stroke="#bab6ad" stroke-width="0.4"></path><path d="M189.5,244.4 L189.6,245.5 L192.6,245.3 L192.9,252.6 L191.8,252.6 L191.8,253.7 L191.0,253.7 L191.1,254.8 L184.2,255.2 L184.1,254.4 L184.1,253.5 L184.6,253.5 L184.5,252.8 L182.3,252.9 L182.3,245.8 L185.5,245.7 L185.4,244.6 L187.5,244.5 L189.5,244.4 Z" fill="#d6d2c9" stroke="#bab6ad" stroke-width="0.4"></path><path d="M32.7,61.7 L22.4,62.2 L22.2,57.9 L32.5,57.4 L32.7,61.7 Z" fill="#d6d2c9" stroke="#bab6ad" stroke-width="0.4"></path><path d="M28.0,116.4 L28.0,119.1 L33.3,119.0 L33.3,126.0 L33.0,128.3 L27.9,128.3 L27.9,126.3 L23.1,126.4 L23.0,116.5 L28.0,116.4 Z" fill="#d6d2c9" stroke="#bab6ad" stroke-width="0.4"></path><path d="M25.7,169.0 L25.8,174.0 L26.4,174.0 L26.4,175.7 L25.5,175.7 L25.8,185.9 L22.1,186.0 L22.1,187.9 L19.3,188.0 L16.5,188.1 L16.1,173.2 L17.2,173.2 L18.3,173.2 L18.3,174.2 L24.0,174.1 L23.9,169.0 L24.8,169.0 L25.7,169.0 Z" fill="#d6d2c9" stroke="#bab6ad" stroke-width="0.4"></path><path d="M30.9,75.1 L31.0,79.3 L31.8,79.3 L32.0,94.4 L20.8,94.5 L20.6,79.5 L21.1,79.4 L21.0,75.2 L30.9,75.1 Z" fill="#d6d2c9" stroke="#bab6ad" stroke-width="0.4"></path><path d="M11.5,62.6 L11.6,64.6 L15.7,64.4 L16.1,72.6 L14.3,72.6 L14.4,75.0 L12.5,75.1 L12.4,72.5 L6.1,72.8 L5.7,62.9 L11.5,62.6 Z" fill="#d6d2c9" stroke="#bab6ad" stroke-width="0.4"></path><path d="M8.6,97.7 L11.4,100.0 L13.3,97.8 L15.2,99.4 L15.9,98.6 L19.7,101.8 L11.9,111.3 L0.9,102.2 L4.2,98.2 L6.5,100.2 L8.6,97.7 Z" fill="#d6d2c9" stroke="#bab6ad" stroke-width="0.4"></path><path d="M79.6,235.1 L79.6,235.8 L85.7,235.7 L85.9,244.5 L80.3,244.6 L80.3,245.2 L65.2,245.6 L65.0,235.6 L79.6,235.1 Z" fill="#d6d2c9" stroke="#bab6ad" stroke-width="0.4"></path><path d="M0.5,245.4 L0.6,247.3 L2.6,247.2 L2.8,256.5 L-4.7,256.7 L-4.9,251.7 L-8.3,251.8 L-8.4,245.6 L0.5,245.4 Z" fill="#d6d2c9" stroke="#bab6ad" stroke-width="0.4"></path><path d="M105.7,227.3 L99.1,227.5 L99.0,223.5 L105.6,223.3 L105.7,227.3 Z" fill="#d6d2c9" stroke="#bab6ad" stroke-width="0.4"></path><path d="M62.0,-168.4 L256.2,44.9 L271.5,62.0" fill="none" stroke="#6fb5c7" stroke-width="1.4" stroke-dasharray="5 7" opacity="0.34" stroke-linecap="round" stroke-linejoin="round"></path><path d="M275.6,126.2 L275.3,127.5 L274.6,128.7 L273.2,130.4 L271.2,131.5 L269.0,131.9 L215.1,133.3 L164.1,134.7 L102.6,135.8 L99.8,36.6 L99.1,16.4 L98.0,-30.8 L97.4,-51.6" fill="none" stroke="#cf828d" stroke-width="1.3" stroke-dasharray="1.6 3.0" opacity="0.62" stroke-linecap="round" stroke-linejoin="round"></path><path d="M102.7,137.8 L102.9,142.6 L103.1,147.5" fill="none" stroke="#cf828d" stroke-width="1.3" stroke-dasharray="1.6 3.0" opacity="0.62" stroke-linecap="round" stroke-linejoin="round"></path><path d="M93.9,136.1 L97.2,136.0 L100.7,135.9" fill="none" stroke="#cf828d" stroke-width="1.3" stroke-dasharray="1.6 3.0" opacity="0.62" stroke-linecap="round" stroke-linejoin="round"></path><path d="M90.8,147.8 L97.5,147.7 L103.1,147.5" fill="none" stroke="#cf828d" stroke-width="1.3" stroke-dasharray="1.6 3.0" opacity="0.62" stroke-linecap="round" stroke-linejoin="round"></path><path d="M90.8,147.8 L90.6,143.0 L90.4,139.2" fill="none" stroke="#cf828d" stroke-width="1.3" stroke-dasharray="1.6 3.0" opacity="0.62" stroke-linecap="round" stroke-linejoin="round"></path><path d="M90.2,136.2 L89.4,109.9 L88.9,95.2 L88.3,77.7 L87.8,53.1 L0.4,55.2 L-45.8,56.2 L-47.7,56.4 L-49.2,56.9" fill="none" stroke="#cf828d" stroke-width="1.3" stroke-dasharray="1.6 3.0" opacity="0.62" stroke-linecap="round" stroke-linejoin="round"></path><path d="M-50.7,64.1 L-47.7,67.3 L-33.5,79.8 L1.6,110.9 L31.8,137.4 L50.8,137.3 L90.2,136.2" fill="none" stroke="#cf828d" stroke-width="1.3" stroke-dasharray="1.6 3.0" opacity="0.62" stroke-linecap="round" stroke-linejoin="round"></path><path d="M44.7,148.7 L40.0,144.7 L35.6,141.0" fill="none" stroke="#cf828d" stroke-width="1.3" stroke-dasharray="1.6 3.0" opacity="0.62" stroke-linecap="round" stroke-linejoin="round"></path><path d="M54.2,153.3 L49.8,152.5 L48.5,151.9 L44.7,148.7" fill="none" stroke="#cf828d" stroke-width="1.3" stroke-dasharray="1.6 3.0" opacity="0.62" stroke-linecap="round" stroke-linejoin="round"></path><path d="M-5.8,194.4 L41.1,192.8 L48.6,192.5 L50.6,192.0 L52.7,190.8 L54.4,189.4 L55.5,187.7 L56.0,186.0 L56.1,183.7 L56.0,177.6 L55.9,175.6 L54.4,174.3 L-57.1,75.9" fill="none" stroke="#cf828d" stroke-width="1.3" stroke-dasharray="1.6 3.0" opacity="0.62" stroke-linecap="round" stroke-linejoin="round"></path><path d="M-72.4,196.7 L-41.9,195.6 L-5.8,194.4" fill="none" stroke="#cf828d" stroke-width="1.3" stroke-dasharray="1.6 3.0" opacity="0.62" stroke-linecap="round" stroke-linejoin="round"></path><path d="M41.4,205.7 L41.2,199.4 L41.1,193.2" fill="none" stroke="#cf828d" stroke-width="1.3" stroke-dasharray="1.6 3.0" opacity="0.62" stroke-linecap="round" stroke-linejoin="round"></path><path d="M46.4,255.5 L47.2,272.3 L46.3,274.6 L44.9,276.6 L42.8,278.2 L40.2,279.1 L-74.2,284.0" fill="none" stroke="#cf828d" stroke-width="1.3" stroke-dasharray="1.6 3.0" opacity="0.62" stroke-linecap="round" stroke-linejoin="round"></path><path d="M-54.0,209.2 L-37.4,208.6 L14.3,206.5 L36.6,205.5 L39.3,205.8 L41.3,206.4 L43.5,208.1 L44.8,210.1 L45.3,211.6 L45.5,213.8 L45.6,218.0 L46.4,255.5" fill="none" stroke="#cf828d" stroke-width="1.3" stroke-dasharray="1.6 3.0" opacity="0.62" stroke-linecap="round" stroke-linejoin="round"></path><path d="M89.2,188.3 L94.1,192.5 L101.7,199.0" fill="none" stroke="#cf828d" stroke-width="1.3" stroke-dasharray="1.6 3.0" opacity="0.62" stroke-linecap="round" stroke-linejoin="round"></path><path d="M89.4,149.9 L88.0,149.2 L86.3,149.1 L58.7,149.6 L56.6,150.1 L55.3,151.1 L54.4,152.3 L54.2,153.3 L54.2,155.0 L54.4,156.5 L55.2,157.7 L56.2,158.7 L62.8,164.4 L76.1,176.4 L83.5,182.8 L85.3,183.6 L86.8,183.8 L88.3,183.5 L89.5,182.8 L90.6,181.6 L91.1,180.6 L91.5,179.6 L91.5,177.4 L90.6,153.0 L90.3,151.1 L89.4,149.9" fill="none" stroke="#cf828d" stroke-width="1.3" stroke-dasharray="1.6 3.0" opacity="0.62" stroke-linecap="round" stroke-linejoin="round"></path><path d="M131.4,242.7 L138.4,249.7 L145.5,256.9" fill="none" stroke="#cf828d" stroke-width="1.3" stroke-dasharray="1.6 3.0" opacity="0.62" stroke-linecap="round" stroke-linejoin="round"></path><path d="M61.0,310.8 L60.4,292.7 L59.8,275.0 L59.0,245.9 L58.1,212.7 L58.1,211.1 L58.5,209.6 L59.1,208.3 L60.2,206.9 L61.4,205.8 L62.5,205.2 L63.5,204.8 L64.8,204.5 L87.7,203.5 L110.1,222.9 L129.3,240.1 L130.0,240.9 L130.5,241.8 L130.7,242.6 L130.7,243.4 L131.0,267.2 L133.5,357.1" fill="none" stroke="#cf828d" stroke-width="1.3" stroke-dasharray="1.6 3.0" opacity="0.62" stroke-linecap="round" stroke-linejoin="round"></path><path d="M151.1,244.0 L145.3,238.6 L138.8,232.4" fill="none" stroke="#cf828d" stroke-width="1.3" stroke-dasharray="1.6 3.0" opacity="0.62" stroke-linecap="round" stroke-linejoin="round"></path><path d="M166.0,255.5 L153.8,245.4 L153.6,244.8 L153.6,244.1 L153.7,243.5 L154.3,243.0 L269.2,240.7 L272.3,240.6 L274.0,241.1 L275.5,242.6 L276.8,245.0 L277.0,247.3 L277.8,267.9 L279.2,320.8" fill="none" stroke="#cf828d" stroke-width="1.3" stroke-dasharray="1.6 3.0" opacity="0.62" stroke-linecap="round" stroke-linejoin="round"></path><path d="M248.3,328.7 L166.0,255.5" fill="none" stroke="#cf828d" stroke-width="1.3" stroke-dasharray="1.6 3.0" opacity="0.62" stroke-linecap="round" stroke-linejoin="round"></path><path d="M274.7,146.8 L272.8,145.4 L270.6,144.6 L268.2,144.7 L210.0,146.1 L103.4,148.6 L104.4,190.0 L104.8,201.5 L137.8,230.9 L208.2,229.7 L213.7,229.4 L265.5,228.2 L269.0,227.8 L271.9,227.0 L273.8,225.8 L275.3,224.2 L276.4,222.2 L276.6,220.4 L276.6,218.1 L276.4,151.5 L276.2,149.9 L275.6,148.3 L274.7,146.8" fill="none" stroke="#cf828d" stroke-width="1.3" stroke-dasharray="1.6 3.0" opacity="0.62" stroke-linecap="round" stroke-linejoin="round"></path><path d="M87.7,42.5 L87.7,46.8 L87.8,50.7" fill="none" stroke="#cf828d" stroke-width="1.3" stroke-dasharray="1.6 3.0" opacity="0.62" stroke-linecap="round" stroke-linejoin="round"></path><path d="M0.3,42.2 L45.1,41.5 L87.4,40.4 L85.2,-43.4 L13.2,-41.6 L0.5,-41.2 L-54.4,-39.8" fill="none" stroke="#cf828d" stroke-width="1.3" stroke-dasharray="1.6 3.0" opacity="0.62" stroke-linecap="round" stroke-linejoin="round"></path><path d="M-57.3,43.7 L0.3,42.2" fill="none" stroke="#cf828d" stroke-width="1.3" stroke-dasharray="1.6 3.0" opacity="0.62" stroke-linecap="round" stroke-linejoin="round"></path><path d="M275.6,126.2 L275.6,124.1 L271.6,-30.8 L271.4,-39.1 L271.3,-41.2 L270.8,-43.1 L270.0,-44.5 L268.9,-45.9 L267.2,-47.2 L265.1,-47.9 L264.2,-48.0" fill="none" stroke="#cf828d" stroke-width="1.3" stroke-dasharray="1.6 3.0" opacity="0.62" stroke-linecap="round" stroke-linejoin="round"></path><path d="M262.4,-48.2 L220.5,-47.1 L213.3,-46.9 L211.5,-46.7 L209.7,-46.1 L208.3,-45.2 L206.6,-43.7 L204.7,-42.0 L202.1,-40.8 L199.3,-40.1 L196.5,-39.9 L193.9,-40.1 L192.0,-40.7 L188.6,-42.7 L186.1,-45.1 L185.0,-47.2 L184.4,-49.4" fill="none" stroke="#cf828d" stroke-width="1.3" stroke-dasharray="1.6 3.0" opacity="0.62" stroke-linecap="round" stroke-linejoin="round"></path><path d="M131.4,242.7 L130.7,242.6" fill="none" stroke="#cf828d" stroke-width="1.3" stroke-dasharray="1.6 3.0" opacity="0.62" stroke-linecap="round" stroke-linejoin="round"></path><path d="M41.1,193.2 L41.1,192.8" fill="none" stroke="#cf828d" stroke-width="1.3" stroke-dasharray="1.6 3.0" opacity="0.62" stroke-linecap="round" stroke-linejoin="round"></path><path d="M41.4,205.7 L41.3,206.4" fill="none" stroke="#cf828d" stroke-width="1.3" stroke-dasharray="1.6 3.0" opacity="0.62" stroke-linecap="round" stroke-linejoin="round"></path><path d="M87.7,42.5 L87.4,40.4" fill="none" stroke="#cf828d" stroke-width="1.3" stroke-dasharray="1.6 3.0" opacity="0.62" stroke-linecap="round" stroke-linejoin="round"></path><path d="M87.8,50.7 L87.8,53.1" fill="none" stroke="#cf828d" stroke-width="1.3" stroke-dasharray="1.6 3.0" opacity="0.62" stroke-linecap="round" stroke-linejoin="round"></path><path d="M31.8,137.4 L35.6,141.0" fill="none" stroke="#cf828d" stroke-width="1.3" stroke-dasharray="1.6 3.0" opacity="0.62" stroke-linecap="round" stroke-linejoin="round"></path><path d="M86.8,183.8 L87.3,186.0 L89.2,188.3" fill="none" stroke="#cf828d" stroke-width="1.3" stroke-dasharray="1.6 3.0" opacity="0.62" stroke-linecap="round" stroke-linejoin="round"></path><path d="M104.8,201.5 L101.7,199.0" fill="none" stroke="#cf828d" stroke-width="1.3" stroke-dasharray="1.6 3.0" opacity="0.62" stroke-linecap="round" stroke-linejoin="round"></path><path d="M153.6,244.1 L151.1,244.0" fill="none" stroke="#cf828d" stroke-width="1.3" stroke-dasharray="1.6 3.0" opacity="0.62" stroke-linecap="round" stroke-linejoin="round"></path><path d="M137.8,230.9 L138.8,232.4" fill="none" stroke="#cf828d" stroke-width="1.3" stroke-dasharray="1.6 3.0" opacity="0.62" stroke-linecap="round" stroke-linejoin="round"></path><path d="M89.4,149.9 L90.8,147.8" fill="none" stroke="#cf828d" stroke-width="1.3" stroke-dasharray="1.6 3.0" opacity="0.62" stroke-linecap="round" stroke-linejoin="round"></path><path d="M90.4,139.2 L90.2,136.2 L93.9,136.1" fill="none" stroke="#cf828d" stroke-width="1.3" stroke-dasharray="1.6 3.0" opacity="0.62" stroke-linecap="round" stroke-linejoin="round"></path><path d="M100.7,135.9 L102.6,135.8 L102.7,137.8" fill="none" stroke="#cf828d" stroke-width="1.3" stroke-dasharray="1.6 3.0" opacity="0.62" stroke-linecap="round" stroke-linejoin="round"></path><path d="M103.1,147.5 L103.4,148.6" fill="none" stroke="#cf828d" stroke-width="1.3" stroke-dasharray="1.6 3.0" opacity="0.62" stroke-linecap="round" stroke-linejoin="round"></path><path d="M94.0,36.9 L99.8,36.6 L103.2,36.5 L215.2,33.5 L217.8,29.5 L217.8,27.3 L206.3,15.2 L102.6,16.4 L99.1,16.4 L93.4,16.6" fill="none" stroke="#cec8bb" stroke-width="3.2" stroke-linecap="round" stroke-linejoin="round"/><path d="M94.0,36.9 L99.8,36.6 L103.2,36.5 L215.2,33.5 L217.8,29.5 L217.8,27.3 L206.3,15.2 L102.6,16.4 L99.1,16.4 L93.4,16.6" fill="none" stroke="#ffffff" stroke-width="2.2" stroke-linecap="round" stroke-linejoin="round"></path><path d="M215.0,132.6 L218.9,125.4 L220.3,123.5 L221.2,122.6 L224.0,122.3 L232.8,121.9 L249.9,121.1 L260.3,120.7 L261.5,119.6 L261.6,117.7 L260.1,69.1 L259.4,66.4 L256.2,62.7 L249.0,55.5 L245.4,52.7 L241.7,51.9 L230.3,52.3 L213.3,52.8 L196.5,53.4 L189.4,53.6 L187.2,54.0 L185.7,55.0 L185.4,57.0 L186.2,116.7 L186.2,119.8 L186.7,121.6 L187.9,122.5 L190.8,122.6 L197.9,122.5 L206.8,122.3 L209.9,122.7 L211.0,124.3 L215.0,132.6" fill="none" stroke="#cec8bb" stroke-width="3.2" stroke-linecap="round" stroke-linejoin="round"/><path d="M215.0,132.6 L218.9,125.4 L220.3,123.5 L221.2,122.6 L224.0,122.3 L232.8,121.9 L249.9,121.1 L260.3,120.7 L261.5,119.6 L261.6,117.7 L260.1,69.1 L259.4,66.4 L256.2,62.7 L249.0,55.5 L245.4,52.7 L241.7,51.9 L230.3,52.3 L213.3,52.8 L196.5,53.4 L189.4,53.6 L187.2,54.0 L185.7,55.0 L185.4,57.0 L186.2,116.7 L186.2,119.8 L186.7,121.6 L187.9,122.5 L190.8,122.6 L197.9,122.5 L206.8,122.3 L209.9,122.7 L211.0,124.3 L215.0,132.6" fill="none" stroke="#ffffff" stroke-width="2.2" stroke-linecap="round" stroke-linejoin="round"></path><path d="M215.0,132.6 L215.1,133.3 L215.1,139.2" fill="none" stroke="#cec8bb" stroke-width="3.2" stroke-linecap="round" stroke-linejoin="round"/><path d="M215.0,132.6 L215.1,133.3 L215.1,139.2" fill="none" stroke="#ffffff" stroke-width="2.2" stroke-linecap="round" stroke-linejoin="round"></path><path d="M209.9,122.7 L214.7,122.6 L221.2,122.6" fill="none" stroke="#cec8bb" stroke-width="3.2" stroke-linecap="round" stroke-linejoin="round"/><path d="M209.9,122.7 L214.7,122.6 L221.2,122.6" fill="none" stroke="#ffffff" stroke-width="2.2" stroke-linecap="round" stroke-linejoin="round"></path><path d="M196.5,53.4 L197.9,122.5" fill="none" stroke="#cec8bb" stroke-width="3.2" stroke-linecap="round" stroke-linejoin="round"/><path d="M196.5,53.4 L197.9,122.5" fill="none" stroke="#ffffff" stroke-width="2.2" stroke-linecap="round" stroke-linejoin="round"></path><path d="M213.3,52.8 L214.7,122.6" fill="none" stroke="#cec8bb" stroke-width="3.2" stroke-linecap="round" stroke-linejoin="round"/><path d="M213.3,52.8 L214.7,122.6" fill="none" stroke="#ffffff" stroke-width="2.2" stroke-linecap="round" stroke-linejoin="round"></path><path d="M232.8,121.9 L230.3,52.3" fill="none" stroke="#cec8bb" stroke-width="3.2" stroke-linecap="round" stroke-linejoin="round"/><path d="M232.8,121.9 L230.3,52.3" fill="none" stroke="#ffffff" stroke-width="2.2" stroke-linecap="round" stroke-linejoin="round"></path><path d="M249.9,121.1 L249.0,55.5" fill="none" stroke="#cec8bb" stroke-width="3.2" stroke-linecap="round" stroke-linejoin="round"/><path d="M249.9,121.1 L249.0,55.5" fill="none" stroke="#ffffff" stroke-width="2.2" stroke-linecap="round" stroke-linejoin="round"></path><path d="M213.7,235.5 L213.7,229.4 L213.7,227.7 L213.5,221.6 L210.6,219.2 L208.1,221.8 L208.2,227.6 L208.2,229.7 L208.4,235.6" fill="none" stroke="#cec8bb" stroke-width="3.2" stroke-linecap="round" stroke-linejoin="round"/><path d="M213.7,235.5 L213.7,229.4 L213.7,227.7 L213.5,221.6 L210.6,219.2 L208.1,221.8 L208.2,227.6 L208.2,229.7 L208.4,235.6" fill="none" stroke="#ffffff" stroke-width="2.2" stroke-linecap="round" stroke-linejoin="round"></path><path d="M210.6,219.2 L192.0,219.4 L172.6,219.6 L160.7,219.7 L159.0,219.4 L157.7,218.3 L156.9,216.7 L156.3,215.0 L156.2,177.7 L156.1,158.5 L173.0,157.9 L192.4,157.3 L210.0,156.8 L227.7,156.2 L248.6,155.5 L261.9,155.1 L263.9,155.7 L265.2,157.0 L265.7,159.5 L265.9,212.6 L265.1,215.0 L263.7,216.7 L261.3,217.7 L258.7,217.8 L247.7,218.1 L228.3,218.7 L210.6,219.2" fill="none" stroke="#cec8bb" stroke-width="3.2" stroke-linecap="round" stroke-linejoin="round"/><path d="M210.6,219.2 L192.0,219.4 L172.6,219.6 L160.7,219.7 L159.0,219.4 L157.7,218.3 L156.9,216.7 L156.3,215.0 L156.2,177.7 L156.1,158.5 L173.0,157.9 L192.4,157.3 L210.0,156.8 L227.7,156.2 L248.6,155.5 L261.9,155.1 L263.9,155.7 L265.2,157.0 L265.7,159.5 L265.9,212.6 L265.1,215.0 L263.7,216.7 L261.3,217.7 L258.7,217.8 L247.7,218.1 L228.3,218.7 L210.6,219.2" fill="none" stroke="#ffffff" stroke-width="2.2" stroke-linecap="round" stroke-linejoin="round"></path><path d="M209.8,139.3 L210.0,146.1 L210.0,146.6 L210.0,156.8" fill="none" stroke="#cec8bb" stroke-width="3.2" stroke-linecap="round" stroke-linejoin="round"/><path d="M209.8,139.3 L210.0,146.1 L210.0,146.6 L210.0,156.8" fill="none" stroke="#ffffff" stroke-width="2.2" stroke-linecap="round" stroke-linejoin="round"></path><path d="M156.1,158.5 L145.4,158.6 L143.6,159.0 L142.4,160.6 L142.2,162.6 L142.2,174.4 L142.4,176.2 L143.4,177.5 L145.2,177.5 L156.2,177.7" fill="none" stroke="#cec8bb" stroke-width="3.2" stroke-linecap="round" stroke-linejoin="round"/><path d="M156.1,158.5 L145.4,158.6 L143.6,159.0 L142.4,160.6 L142.2,162.6 L142.2,174.4 L142.4,176.2 L143.4,177.5 L145.2,177.5 L156.2,177.7" fill="none" stroke="#ffffff" stroke-width="2.2" stroke-linecap="round" stroke-linejoin="round"></path><path d="M210.0,156.8 L210.6,219.2" fill="none" stroke="#cec8bb" stroke-width="3.2" stroke-linecap="round" stroke-linejoin="round"/><path d="M210.0,156.8 L210.6,219.2" fill="none" stroke="#ffffff" stroke-width="2.2" stroke-linecap="round" stroke-linejoin="round"></path><path d="M49.5,90.5 L49.9,104.8 L50.8,137.3 L50.8,143.9" fill="none" stroke="#cec8bb" stroke-width="3.2" stroke-linecap="round" stroke-linejoin="round"/><path d="M49.5,90.5 L49.9,104.8 L50.8,137.3 L50.8,143.9" fill="none" stroke="#ffffff" stroke-width="2.2" stroke-linecap="round" stroke-linejoin="round"></path><path d="M95.9,95.3 L88.9,95.2 L79.5,95.2" fill="none" stroke="#cec8bb" stroke-width="3.2" stroke-linecap="round" stroke-linejoin="round"/><path d="M95.9,95.3 L88.9,95.2 L79.5,95.2" fill="none" stroke="#ffffff" stroke-width="2.2" stroke-linecap="round" stroke-linejoin="round"></path><path d="M96.3,109.7 L89.4,109.9 L84.9,110.1 L80.8,108.6 L52.0,109.1" fill="none" stroke="#cec8bb" stroke-width="3.2" stroke-linecap="round" stroke-linejoin="round"/><path d="M96.3,109.7 L89.4,109.9 L84.9,110.1 L80.8,108.6 L52.0,109.1" fill="none" stroke="#ffffff" stroke-width="2.2" stroke-linecap="round" stroke-linejoin="round"></path><path d="M35.6,105.5 L49.9,104.8" fill="none" stroke="#cec8bb" stroke-width="3.2" stroke-linecap="round" stroke-linejoin="round"/><path d="M35.6,105.5 L49.9,104.8" fill="none" stroke="#ffffff" stroke-width="2.2" stroke-linecap="round" stroke-linejoin="round"></path><path d="M75.3,77.6 L88.3,77.7 L95.3,77.8" fill="none" stroke="#cec8bb" stroke-width="3.2" stroke-linecap="round" stroke-linejoin="round"/><path d="M75.3,77.6 L88.3,77.7 L95.3,77.8" fill="none" stroke="#ffffff" stroke-width="2.2" stroke-linecap="round" stroke-linejoin="round"></path><path d="M-41.7,202.6 L-41.9,195.6 L-42.5,154.5 L10.6,153.0" fill="none" stroke="#cec8bb" stroke-width="3.2" stroke-linecap="round" stroke-linejoin="round"/><path d="M-41.7,202.6 L-41.9,195.6 L-42.5,154.5 L10.6,153.0" fill="none" stroke="#ffffff" stroke-width="2.2" stroke-linecap="round" stroke-linejoin="round"></path><path d="M164.2,140.7 L164.1,134.7 L164.1,133.4 L164.0,123.6 L140.8,123.8" fill="none" stroke="#cec8bb" stroke-width="3.2" stroke-linecap="round" stroke-linejoin="round"/><path d="M164.2,140.7 L164.1,134.7 L164.1,133.4 L164.0,123.6 L140.8,123.8" fill="none" stroke="#ffffff" stroke-width="2.2" stroke-linecap="round" stroke-linejoin="round"></path><path d="M142.3,190.7 L129.1,189.6 L104.4,190.0 L96.4,190.2" fill="none" stroke="#cec8bb" stroke-width="3.2" stroke-linecap="round" stroke-linejoin="round"/><path d="M142.3,190.7 L129.1,189.6 L104.4,190.0 L96.4,190.2" fill="none" stroke="#ffffff" stroke-width="2.2" stroke-linecap="round" stroke-linejoin="round"></path><path d="M44.2,5.0 L45.1,41.5 L45.2,48.0" fill="none" stroke="#cec8bb" stroke-width="3.2" stroke-linecap="round" stroke-linejoin="round"/><path d="M44.2,5.0 L45.1,41.5 L45.2,48.0" fill="none" stroke="#ffffff" stroke-width="2.2" stroke-linecap="round" stroke-linejoin="round"></path><path d="M58.4,168.8 L62.8,164.4 L64.0,163.2 L64.8,162.5 L65.7,162.4 L66.8,162.7 L77.2,171.8 L77.5,172.7 L77.6,174.0 L77.3,174.8 L76.1,176.4 L72.2,180.8" fill="none" stroke="#cec8bb" stroke-width="3.2" stroke-linecap="round" stroke-linejoin="round"/><path d="M58.4,168.8 L62.8,164.4 L64.0,163.2 L64.8,162.5 L65.7,162.4 L66.8,162.7 L77.2,171.8 L77.5,172.7 L77.6,174.0 L77.3,174.8 L76.1,176.4 L72.2,180.8" fill="none" stroke="#ffffff" stroke-width="2.2" stroke-linecap="round" stroke-linejoin="round"></path><path d="M247.7,218.1 L248.6,155.5" fill="none" stroke="#cec8bb" stroke-width="3.2" stroke-linecap="round" stroke-linejoin="round"/><path d="M247.7,218.1 L248.6,155.5" fill="none" stroke="#ffffff" stroke-width="2.2" stroke-linecap="round" stroke-linejoin="round"></path><path d="M228.3,218.7 L227.7,156.2" fill="none" stroke="#cec8bb" stroke-width="3.2" stroke-linecap="round" stroke-linejoin="round"/><path d="M228.3,218.7 L227.7,156.2" fill="none" stroke="#ffffff" stroke-width="2.2" stroke-linecap="round" stroke-linejoin="round"></path><path d="M192.0,219.4 L192.4,157.3" fill="none" stroke="#cec8bb" stroke-width="3.2" stroke-linecap="round" stroke-linejoin="round"/><path d="M192.0,219.4 L192.4,157.3" fill="none" stroke="#ffffff" stroke-width="2.2" stroke-linecap="round" stroke-linejoin="round"></path><path d="M172.6,219.6 L173.0,157.9" fill="none" stroke="#cec8bb" stroke-width="3.2" stroke-linecap="round" stroke-linejoin="round"/><path d="M172.6,219.6 L173.0,157.9" fill="none" stroke="#ffffff" stroke-width="2.2" stroke-linecap="round" stroke-linejoin="round"></path><path d="M94.3,46.6 L87.7,46.8 L84.5,46.9 L45.2,48.0 L-47.5,49.6" fill="none" stroke="#cec8bb" stroke-width="4.3" stroke-linecap="round" stroke-linejoin="round"/><path d="M94.3,46.6 L87.7,46.8 L84.5,46.9 L45.2,48.0 L-47.5,49.6" fill="none" stroke="#ffffff" stroke-width="3.2" stroke-linecap="round" stroke-linejoin="round"><title>Northwest 18th Street</title></path><path d="M281.3,232.4 L273.0,233.9 L269.1,234.5 L265.9,234.5 L213.7,235.5 L208.4,235.6 L149.1,237.2 L145.3,238.6 L140.2,242.9" fill="none" stroke="#cec8bb" stroke-width="4.3" stroke-linecap="round" stroke-linejoin="round"/><path d="M281.3,232.4 L273.0,233.9 L269.1,234.5 L265.9,234.5 L213.7,235.5 L208.4,235.6 L149.1,237.2 L145.3,238.6 L140.2,242.9" fill="none" stroke="#ffffff" stroke-width="3.2" stroke-linecap="round" stroke-linejoin="round"><title>Northwest 16th Street</title></path><path d="M250.5,342.2 L207.6,303.8 L198.8,295.8 L140.2,242.9 L115.9,220.7 L89.6,196.3 L72.2,180.8 L60.7,170.9 L58.4,168.8 L35.5,148.5 L-56.3,67.6" fill="none" stroke="#cec8bb" stroke-width="4.3" stroke-linecap="round" stroke-linejoin="round"/><path d="M250.5,342.2 L207.6,303.8 L198.8,295.8 L140.2,242.9 L115.9,220.7 L89.6,196.3 L72.2,180.8 L60.7,170.9 L58.4,168.8 L35.5,148.5 L-56.3,67.6" fill="none" stroke="#ffffff" stroke-width="3.2" stroke-linecap="round" stroke-linejoin="round"><title>Northwest 15th Road</title></path><path d="M279.7,136.9 L274.7,138.0 L271.3,138.3 L260.6,138.5 L242.4,138.3 L219.9,139.0 L215.1,139.2 L212.6,139.2 L209.8,139.3 L164.2,140.7 L106.6,142.5 L102.9,142.6 L97.4,142.7 L90.6,143.0 L87.9,143.1 L50.8,143.9 L44.4,144.2 L40.0,144.7 L35.5,148.5" fill="none" stroke="#cec8bb" stroke-width="4.3" stroke-linecap="round" stroke-linejoin="round"/><path d="M279.7,136.9 L274.7,138.0 L271.3,138.3 L260.6,138.5 L242.4,138.3 L219.9,139.0 L215.1,139.2 L212.6,139.2 L209.8,139.3 L164.2,140.7 L106.6,142.5 L102.9,142.6 L97.4,142.7 L90.6,143.0 L87.9,143.1 L50.8,143.9 L44.4,144.2 L40.0,144.7 L35.5,148.5" fill="none" stroke="#ffffff" stroke-width="3.2" stroke-linecap="round" stroke-linejoin="round"><title>Northwest 17th Street</title></path><path d="M54.3,336.9 L53.8,293.0 L53.6,285.4 L51.5,212.8 L51.3,198.9" fill="none" stroke="#cec8bb" stroke-width="4.3" stroke-linecap="round" stroke-linejoin="round"/><path d="M54.3,336.9 L53.8,293.0 L53.6,285.4 L51.5,212.8 L51.3,198.9" fill="none" stroke="#ffffff" stroke-width="3.2" stroke-linecap="round" stroke-linejoin="round"><title>Northwest 16th Avenue</title></path><path d="M89.6,196.3 L94.1,192.5 L95.7,190.9 L96.4,190.2 L98.0,186.3 L98.7,182.0 L98.5,178.7 L97.5,147.7 L97.4,142.7 L97.2,136.0 L96.3,109.7 L95.9,95.3 L95.3,77.8 L94.3,46.6 L94.0,36.9 L93.4,16.6 L91.9,-30.6 L91.3,-50.6" fill="none" stroke="#cec8bb" stroke-width="4.3" stroke-linecap="round" stroke-linejoin="round"/><path d="M89.6,196.3 L94.1,192.5 L95.7,190.9 L96.4,190.2 L98.0,186.3 L98.7,182.0 L98.5,178.7 L97.5,147.7 L97.4,142.7 L97.2,136.0 L96.3,109.7 L95.9,95.3 L95.3,77.8 L94.3,46.6 L94.0,36.9 L93.4,16.6 L91.9,-30.6 L91.3,-50.6" fill="none" stroke="#ffffff" stroke-width="3.2" stroke-linecap="round" stroke-linejoin="round"><title>Northwest 15th Avenue</title></path><path d="M140.3,368.5 L137.3,263.9 L137.6,256.2 L138.4,249.7 L140.2,242.9" fill="none" stroke="#cec8bb" stroke-width="4.3" stroke-linecap="round" stroke-linejoin="round"/><path d="M140.3,368.5 L137.3,263.9 L137.6,256.2 L138.4,249.7 L140.2,242.9" fill="none" stroke="#ffffff" stroke-width="3.2" stroke-linecap="round" stroke-linejoin="round"><title>Northwest 15th Avenue</title></path><path d="M60.7,170.9 L60.1,180.8 L58.9,188.5 L57.7,192.3 L55.1,198.6" fill="none" stroke="#cec8bb" stroke-width="4.3" stroke-linecap="round" stroke-linejoin="round"/><path d="M60.7,170.9 L60.1,180.8 L58.9,188.5 L57.7,192.3 L55.1,198.6" fill="none" stroke="#ffffff" stroke-width="3.2" stroke-linecap="round" stroke-linejoin="round"><title>Northwest 16th Terrace</title></path><path d="M89.6,196.3 L77.4,197.2 L55.1,198.6 L51.3,198.9 L41.2,199.4 L-37.5,202.4 L-41.7,202.6 L-54.3,203.0" fill="none" stroke="#cec8bb" stroke-width="4.3" stroke-linecap="round" stroke-linejoin="round"/><path d="M89.6,196.3 L77.4,197.2 L55.1,198.6 L51.3,198.9 L41.2,199.4 L-37.5,202.4 L-41.7,202.6 L-54.3,203.0" fill="none" stroke="#ffffff" stroke-width="3.2" stroke-linecap="round" stroke-linejoin="round"><title>Northwest 16th Terrace</title></path><text x="40.1" y="173.5" text-anchor="middle" font-family="Arial, sans-serif" font-size="6.5" textLength="18.0" lengthAdjust="spacing" font-weight="500" paint-order="stroke" stroke="#f3f5ee" stroke-width="1.55" stroke-linejoin="round" fill="#6f777a">1660</text><text x="237.2" y="246.0" text-anchor="middle" font-family="Arial, sans-serif" font-size="6.5" textLength="18.0" lengthAdjust="spacing" font-weight="500" paint-order="stroke" stroke="#f3f5ee" stroke-width="1.55" stroke-linejoin="round" fill="#6f777a">1424</text><text x="15.0" y="222.9" text-anchor="middle" font-family="Arial, sans-serif" font-size="6.5" textLength="18.0" lengthAdjust="spacing" font-weight="500" paint-order="stroke" stroke="#f3f5ee" stroke-width="1.55" stroke-linejoin="round" fill="#6f777a">1632</text><text x="115.9" y="172.6" text-anchor="middle" font-family="Arial, sans-serif" font-size="6.5" textLength="18.0" lengthAdjust="spacing" font-weight="500" paint-order="stroke" stroke="#f3f5ee" stroke-width="1.55" stroke-linejoin="round" fill="#6f777a">1635</text><text x="15.0" y="170.2" text-anchor="middle" font-family="Arial, sans-serif" font-size="6.5" textLength="18.0" lengthAdjust="spacing" font-weight="500" paint-order="stroke" stroke="#f3f5ee" stroke-width="1.55" stroke-linejoin="round" fill="#6f777a">1617</text><text x="78.2" y="161.1" text-anchor="middle" font-family="Arial, sans-serif" font-size="6.5" textLength="18.0" lengthAdjust="spacing" font-weight="500" paint-order="stroke" stroke="#f3f5ee" stroke-width="1.55" stroke-linejoin="round" fill="#6f777a">1661</text><text x="116.4" y="246.0" text-anchor="middle" font-family="Arial, sans-serif" font-size="6.5" textLength="18.0" lengthAdjust="spacing" font-weight="500" paint-order="stroke" stroke="#f3f5ee" stroke-width="1.55" stroke-linejoin="round" fill="#6f777a">1552</text><text x="71.1" y="119.6" text-anchor="middle" font-family="Arial, sans-serif" font-size="6.5" textLength="18.0" lengthAdjust="spacing" font-weight="500" paint-order="stroke" stroke="#f3f5ee" stroke-width="1.55" stroke-linejoin="round" fill="#6f777a">1710</text><text x="42.5" y="120.2" text-anchor="middle" font-family="Arial, sans-serif" font-size="6.5" textLength="18.0" lengthAdjust="spacing" font-weight="500" paint-order="stroke" stroke="#f3f5ee" stroke-width="1.55" stroke-linejoin="round" fill="#6f777a">1601</text><text x="119.4" y="114.4" text-anchor="middle" font-family="Arial, sans-serif" font-size="6.5" textLength="18.0" lengthAdjust="spacing" font-weight="500" paint-order="stroke" stroke="#f3f5ee" stroke-width="1.55" stroke-linejoin="round" fill="#6f777a">1701</text><text x="25.4" y="246.0" text-anchor="middle" font-family="Arial, sans-serif" font-size="6.5" textLength="18.0" lengthAdjust="spacing" font-weight="500" paint-order="stroke" stroke="#f3f5ee" stroke-width="1.55" stroke-linejoin="round" fill="#6f777a">1613</text><text x="140.9" y="211.7" text-anchor="middle" font-family="Arial, sans-serif" font-size="6.5" textLength="18.0" lengthAdjust="spacing" font-weight="500" paint-order="stroke" stroke="#f3f5ee" stroke-width="1.55" stroke-linejoin="round" fill="#6f777a">1479</text><text x="37.3" y="226.6" text-anchor="middle" font-family="Arial, sans-serif" font-size="6.5" textLength="18.0" lengthAdjust="spacing" font-weight="500" paint-order="stroke" stroke="#f3f5ee" stroke-width="1.55" stroke-linejoin="round" fill="#6f777a">1618</text><text x="31.3" y="19.0" text-anchor="middle" font-family="Arial, sans-serif" font-size="6.5" textLength="18.0" lengthAdjust="spacing" font-weight="500" paint-order="stroke" stroke="#f3f5ee" stroke-width="1.55" stroke-linejoin="round" fill="#6f777a">1601</text><text x="68.6" y="94.5" text-anchor="middle" font-family="Arial, sans-serif" font-size="6.5" textLength="18.0" lengthAdjust="spacing" font-weight="500" paint-order="stroke" stroke="#f3f5ee" stroke-width="1.55" stroke-linejoin="round" fill="#6f777a">1730</text><text x="62.9" y="76.1" text-anchor="middle" font-family="Arial, sans-serif" font-size="6.5" textLength="18.0" lengthAdjust="spacing" font-weight="500" paint-order="stroke" stroke="#f3f5ee" stroke-width="1.55" stroke-linejoin="round" fill="#6f777a">1740</text><text x="81.5" y="246.0" text-anchor="middle" font-family="Arial, sans-serif" font-size="6.5" textLength="18.0" lengthAdjust="spacing" font-weight="500" paint-order="stroke" stroke="#f3f5ee" stroke-width="1.55" stroke-linejoin="round" fill="#6f777a">1613</text><text x="187.5" y="246.0" text-anchor="middle" font-family="Arial, sans-serif" font-size="6.5" textLength="18.0" lengthAdjust="spacing" font-weight="500" paint-order="stroke" stroke="#f3f5ee" stroke-width="1.55" stroke-linejoin="round" fill="#6f777a">1454</text><text x="26.1" y="82.1" text-anchor="middle" font-family="Arial, sans-serif" font-size="6.5" textLength="18.0" lengthAdjust="spacing" font-weight="500" paint-order="stroke" stroke="#f3f5ee" stroke-width="1.55" stroke-linejoin="round" fill="#6f777a">1612</text><text x="15.0" y="100.7" text-anchor="middle" font-family="Arial, sans-serif" font-size="6.5" textLength="18.0" lengthAdjust="spacing" font-weight="500" paint-order="stroke" stroke="#f3f5ee" stroke-width="1.55" stroke-linejoin="round" fill="#6f777a">1717</text><text x="68.8" y="59.7" text-anchor="middle" font-family="Arial, sans-serif" font-size="6.5" textLength="18.0" lengthAdjust="spacing" font-weight="500" paint-order="stroke" stroke="#f3f5ee" stroke-width="1.55" stroke-linejoin="round" fill="#6f777a">1744</text><text x="75.8" y="16.5" text-anchor="middle" font-family="Arial, sans-serif" font-size="6.5" textLength="18.0" lengthAdjust="spacing" font-weight="500" paint-order="stroke" stroke="#f3f5ee" stroke-width="1.55" stroke-linejoin="round" fill="#6f777a">1515</text><text x="77.0" y="210.3" text-anchor="middle" font-family="Arial, sans-serif" font-size="6.5" textLength="18.0" lengthAdjust="spacing" font-weight="500" paint-order="stroke" stroke="#f3f5ee" stroke-width="1.55" stroke-linejoin="round" fill="#6f777a">1510</text><text x="119.4" y="152.4" text-anchor="middle" font-family="Arial, sans-serif" font-size="6.5" textLength="18.0" lengthAdjust="spacing" font-weight="500" paint-order="stroke" stroke="#f3f5ee" stroke-width="1.55" stroke-linejoin="round" fill="#6f777a">1641</text><text x="146.9" y="70.0" text-anchor="middle" font-family="Arial, sans-serif" font-size="6.5" textLength="18.0" lengthAdjust="spacing" font-weight="500" paint-order="stroke" stroke="#f3f5ee" stroke-width="1.55" stroke-linejoin="round" fill="#6f777a">1700</text><text x="150.9" y="110.5" text-anchor="middle" font-family="Arial, sans-serif" font-size="6.5" textLength="18.0" lengthAdjust="spacing" font-weight="500" paint-order="stroke" stroke="#f3f5ee" stroke-width="1.55" stroke-linejoin="round" fill="#6f777a">1471</text><text x="205.2" y="186.3" text-anchor="middle" font-family="Arial, sans-serif" font-size="6.5" textLength="18.0" lengthAdjust="spacing" font-weight="500" paint-order="stroke" stroke="#f3f5ee" stroke-width="1.55" stroke-linejoin="round" fill="#6f777a">1401</text><text x="168.1" y="246.0" text-anchor="middle" font-family="Arial, sans-serif" font-size="6.5" textLength="18.0" lengthAdjust="spacing" font-weight="500" paint-order="stroke" stroke="#f3f5ee" stroke-width="1.55" stroke-linejoin="round" fill="#6f777a">1498</text><g opacity="0.56"><title>crossing</title><path d="M95.3,145.9 L99.8,145.9 M95.3,147.7 L99.8,147.7 M95.3,149.5 L99.8,149.5" stroke="#ffffff" stroke-width="2.1" stroke-linecap="round"/><path d="M95.3,145.9 L99.8,145.9 M95.3,147.7 L99.8,147.7 M95.3,149.5 L99.8,149.5" stroke="#59656a" stroke-width="0.85" stroke-linecap="round"/></g><g opacity="0.56"><title>crossing</title><path d="M94.9,134.2 L99.5,134.2 M94.9,136.0 L99.5,136.0 M94.9,137.8 L99.5,137.8" stroke="#ffffff" stroke-width="2.1" stroke-linecap="round"/><path d="M94.9,134.2 L99.5,134.2 M94.9,136.0 L99.5,136.0 M94.9,137.8 L99.5,137.8" stroke="#59656a" stroke-width="0.85" stroke-linecap="round"/></g><g opacity="0.56"><title>crossing</title><path d="M37.7,142.9 L42.2,142.9 M37.7,144.7 L42.2,144.7 M37.7,146.5 L42.2,146.5" stroke="#ffffff" stroke-width="2.1" stroke-linecap="round"/><path d="M37.7,142.9 L42.2,142.9 M37.7,144.7 L42.2,144.7 M37.7,146.5 L42.2,146.5" stroke="#59656a" stroke-width="0.85" stroke-linecap="round"/></g><g opacity="0.56"><title>crossing</title><path d="M38.9,197.6 L43.5,197.6 M38.9,199.4 L43.5,199.4 M38.9,201.2 L43.5,201.2" stroke="#ffffff" stroke-width="2.1" stroke-linecap="round"/><path d="M38.9,197.6 L43.5,197.6 M38.9,199.4 L43.5,199.4 M38.9,201.2 L43.5,201.2" stroke="#59656a" stroke-width="0.85" stroke-linecap="round"/></g><g opacity="0.56"><title>crossing</title><path d="M91.8,190.7 L96.4,190.7 M91.8,192.5 L96.4,192.5 M91.8,194.3 L96.4,194.3" stroke="#ffffff" stroke-width="2.1" stroke-linecap="round"/><path d="M91.8,190.7 L96.4,190.7 M91.8,192.5 L96.4,192.5 M91.8,194.3 L96.4,194.3" stroke="#59656a" stroke-width="0.85" stroke-linecap="round"/></g><g opacity="0.56"><title>crossing</title><path d="M143.0,236.8 L147.6,236.8 M143.0,238.6 L147.6,238.6 M143.0,240.4 L147.6,240.4" stroke="#ffffff" stroke-width="2.1" stroke-linecap="round"/><path d="M143.0,236.8 L147.6,236.8 M143.0,238.6 L147.6,238.6 M143.0,240.4 L147.6,240.4" stroke="#59656a" stroke-width="0.85" stroke-linecap="round"/></g><g opacity="0.56"><title>crossing</title><path d="M85.4,45.0 L90.0,45.0 M85.4,46.8 L90.0,46.8 M85.4,48.6 L90.0,48.6" stroke="#ffffff" stroke-width="2.1" stroke-linecap="round"/><path d="M85.4,45.0 L90.0,45.0 M85.4,46.8 L90.0,46.8 M85.4,48.6 L90.0,48.6" stroke="#59656a" stroke-width="0.85" stroke-linecap="round"/></g></svg>