<svg xmlns="http://www.w3.org/2000/svg" width="256" height="256" viewBox="0 0 256 256"><rect width="256" height="256" fill="#f1efe7"/><path d="M-1029.4,-2710.9 L-922.0,-2755.5 L-888.4,-2771.6 L-738.1,-2843.8 L-709.9,-2816.5 L-707.4,-2814.2 L-654.8,-2859.2 L-642.2,-2868.8 L-621.3,-2887.7 L-503.2,-2996.1 L-407.9,-3104.9 L-404.3,-3111.8 L-400.8,-3115.8 L-395.2,-3122.1 L-389.6,-3128.6 L-387.3,-3131.3 L-424.9,-3179.8 L-375.2,-3209.6 L-348.2,-3173.7 L-310.1,-3217.3 L-342.4,-3260.1 L-302.4,-3301.7 L-271.7,-3261.2 L-236.3,-3301.4 L-221.3,-3311.2 L-147.7,-3359.0 L-111.3,-3383.1 L-67.5,-3412.0 L-46.8,-3425.5 L5.6,-3459.4 L-7.9,-3477.2 L-32.1,-3509.5 L30.4,-3549.2 L53.2,-3561.0 L54.9,-3562.2 L66.9,-3571.5 L109.7,-3594.3 L112.7,-3599.0 L124.7,-3607.2 L131.2,-3616.7 L133.0,-3618.1 L143.4,-3622.1 L167.1,-3630.6 L183.2,-3637.7 L240.3,-3664.5 L241.0,-3662.6 L288.8,-3683.1 L308.3,-3658.0 L351.9,-3687.1 L358.1,-3691.3 L358.7,-3691.8 L359.3,-3692.6 L360.2,-3694.3 L360.8,-3695.8 L361.0,-3697.7 L361.0,-3699.2 L360.8,-3700.6 L360.6,-3702.3 L360.5,-3703.5 L360.6,-3704.6 L360.9,-3705.7 L361.7,-3707.7 L362.2,-3708.8 L363.4,-3710.7 L364.8,-3712.1 L371.1,-3714.7 L376.4,-3716.6 L383.2,-3718.8 L386.3,-3719.7 L391.9,-3721.5 L395.9,-3723.0 L401.3,-3725.2 L408.7,-3728.4 L416.7,-3732.2 L421.0,-3734.3 L426.4,-3737.0 L431.4,-3739.9 L436.5,-3742.9 L441.6,-3746.2 L443.2,-3747.3 L453.6,-3755.2 L462.3,-3761.9 L470.8,-3769.1 L478.8,-3776.6 L484.5,-3783.1 L490.2,-3790.0 L497.2,-3799.0 L503.6,-3808.0 L510.9,-3819.6 L515.7,-3828.5 L518.7,-3834.2 L523.2,-3843.9 L526.9,-3852.8 L530.3,-3862.4 L533.0,-3870.9 L535.9,-3884.6 L538.1,-3896.8 L539.3,-3907.4 L540.2,-3919.7 L540.4,-3933.0 L539.5,-3945.3 L537.4,-3961.2 L535.3,-3972.1 L532.7,-3982.5 L529.1,-3994.1 L525.9,-4003.1 L522.3,-4012.9 L518.9,-4020.9 L516.6,-4026.2 L515.6,-4030.0 L515.5,-4033.0 L515.8,-4035.6 L516.9,-4037.9 L518.5,-4039.9 L520.6,-4041.0 L522.8,-4041.3 L528.9,-4039.8 L545.7,-4035.8 L551.3,-4163.1 L573.2,-4390.4 L549.4,-4396.1 L546.8,-4403.2 L546.9,-4413.4 L550.2,-4436.7 L554.7,-4441.9 L558.7,-4457.1 L583.9,-4451.2 L597.9,-4596.4 L601.7,-4636.7 L593.9,-4638.6 L598.6,-4657.8 L582.4,-4661.6 L584.5,-4673.4 L587.3,-4681.1 L590.9,-4690.2 L596.9,-4702.8 L603.3,-4701.4 L612.1,-4792.7 L614.1,-4848.1 L614.5,-4858.3 L619.2,-4893.6 L628.6,-4981.5 L691.0,-5144.2 L705.2,-5188.5 L878.5,-5255.0 L895.5,-5261.8 L898.4,-5263.4 L900.8,-5265.5 L903.3,-5268.4 L905.2,-5271.9 L906.5,-5275.3 L906.9,-5280.2 L906.6,-5286.4 L904.3,-5364.1 L903.4,-5379.2 L903.2,-5389.6 L902.9,-5409.6 L902.5,-5415.9 L901.7,-5421.2 L900.6,-5426.0 L899.1,-5430.7 L896.7,-5436.4 L893.1,-5442.5 L889.5,-5447.3 L886.8,-5451.8 L884.1,-5457.8 L881.8,-5463.7 L880.9,-5468.4 L880.2,-5473.6 L879.9,-5478.9 L880.0,-5484.0 L880.6,-5489.9 L882.0,-5495.8 L883.9,-5501.0 L885.8,-5505.8 L888.3,-5510.4 L891.3,-5515.9 L893.4,-5521.0 L895.1,-5527.5 L898.3,-5532.3 L897.2,-5577.0 L895.6,-5579.5 L895.0,-5609.8 L894.2,-5645.6 L894.8,-5650.5 L896.4,-5655.6 L900.4,-5663.5 L927.1,-5721.0 L927.7,-5722.0 L932.4,-5732.2 L936.9,-5742.0 L941.8,-5752.0 L946.8,-5762.2 L949.2,-5767.3 L975.4,-5821.2 L1003.5,-5880.8 L1064.4,-6004.2 L1027.8,-6045.1 L998.0,-5981.7 L972.2,-5926.7 L968.3,-5918.9 L960.4,-5902.7 L944.5,-5904.0 L940.1,-5904.3 L938.6,-5902.8 L940.7,-5900.9 L932.5,-5893.7 L926.1,-5887.7 L924.9,-5862.3 L922.5,-5857.2 L914.7,-5857.5 L913.4,-5858.0 L811.2,-5900.1 L809.0,-5901.3 L806.6,-5902.8 L803.0,-5905.6 L800.1,-5908.3 L797.7,-5910.9 L795.4,-5914.1 L793.6,-5916.9 L792.2,-5919.8 L791.0,-5922.9 L790.3,-5924.9 L789.8,-5927.5 L789.3,-5930.5 L788.9,-5934.6 L788.9,-5940.4 L788.2,-5960.3 L791.0,-5960.5 L790.6,-5970.9 L790.2,-5988.2 L792.8,-5988.3 L792.6,-6000.1 L789.7,-6000.0 L788.3,-6049.8 L791.1,-6049.9 L790.6,-6061.5 L787.9,-6061.4 L786.8,-6098.2 L800.3,-6112.7 L817.5,-6113.3 L830.4,-6113.8 L847.3,-6114.3 L863.6,-6114.9 L878.3,-6115.4 L884.6,-6115.6 L884.3,-6121.3 L884.2,-6127.2 L883.2,-6146.3 L882.9,-6182.9 L882.4,-6183.5 L882.3,-6187.2 L883.4,-6187.2 L880.8,-6275.3 L878.6,-6358.1 L878.2,-6360.7 L878.0,-6365.5 L841.9,-6364.2 L817.9,-6366.3 L638.3,-6360.0 L638.3,-6361.6 L637.9,-6369.3 L552.7,-6366.3 L552.5,-6380.4 L541.3,-6382.9 L539.3,-6443.5 L870.7,-6455.0 L876.2,-6462.6 L876.0,-6484.1 L875.6,-6502.6 L875.3,-6514.3 L874.8,-6525.6 L848.5,-6538.1 L847.4,-6565.6 L874.5,-6579.0 L872.0,-6642.7 L871.3,-6645.9 L844.5,-6658.4 L843.6,-6692.5 L869.1,-6705.7 L857.7,-6844.1 L860.8,-6905.8 L862.2,-7006.2 L862.1,-7115.4 L864.5,-7130.8 L864.7,-7138.1 L862.3,-7147.1 L864.8,-7147.1 L864.8,-7155.1 L866.3,-7360.6 L866.1,-7369.8 L863.2,-7369.7 L863.3,-7407.5 L861.6,-7409.9 L859.1,-7448.9 L864.2,-7484.5 L863.5,-7527.7 L861.8,-7538.0 L864.4,-7570.0 L862.6,-7608.6 L858.1,-7650.0 L849.6,-7717.0 L853.6,-7735.4 L851.9,-7753.4 L836.6,-7766.5 L814.1,-7766.2 L779.9,-7761.7 L757.7,-7761.7 L737.4,-7769.2 L710.9,-7787.4 L710.9,-7820.0 L710.2,-7860.2 L712.8,-7893.6 L721.6,-7919.7 L869.0,-7922.4 L872.3,-8131.4 L872.3,-8432.2 L870.8,-8541.4 L8826.9,-11827.2 L8826.9,6281.9 L-1029.4,6281.9 L-1029.4,-2710.9 Z" fill="#add7e1" stroke="none"><title>Biscayne Bay</title></path><path d="M-4725.4,1931.7 L-4997.5,1730.9 L-5019.3,1714.9 L-5042.9,1709.8 L-5059.5,1695.7 L-5072.8,1694.2 L-5115.8,1697.1 L-5115.8,1693.0 L-5118.2,1689.2 L-5122.9,1686.3 L-5216.3,1645.8 L-5222.7,1642.9 L-5228.2,1641.3 L-5235.1,1640.7 L-5242.1,1640.6 L-5265.3,1640.6 L-5271.5,1640.2 L-5277.5,1639.1 L-5283.9,1636.6 L-5291.6,1634.5 L-5297.2,1634.0 L-5313.7,1633.3 L-5319.1,1632.3 L-5326.1,1630.1 L-5333.0,1628.3 L-5339.7,1626.7 L-5344.9,1624.7 L-5351.1,1620.8 L-5356.8,1616.6 L-5362.2,1612.5 L-5366.6,1610.3 L-5370.1,1609.7 L-5373.1,1609.8 L-5376.3,1610.8 L-5380.1,1612.7 L-5383.1,1616.0 L-5387.2,1620.0 L-5391.7,1624.1 L-5396.8,1626.9 L-5403.2,1629.0 L-5408.6,1630.3 L-5415.1,1631.3 L-5425.8,1632.6 L-5452.9,1633.8 L-5475.9,1635.0 L-5485.9,1638.5 L-5506.2,1639.2 L-5508.9,1635.0 L-5511.9,1633.1 L-5515.1,1632.4 L-5537.0,1633.7 L-5546.5,1637.1 L-5558.2,1637.2 L-5566.0,1636.1 L-5572.5,1634.1 L-5596.0,1635.5 L-5658.3,1640.3 L-5672.7,1640.8 L-5677.6,1640.7 L-5681.9,1639.5 L-5687.1,1637.0 L-5690.8,1634.0 L-5707.0,1634.1 L-5720.6,1633.9 L-5724.2,1636.1 L-5742.9,1636.5 L-5745.3,1640.5 L-5747.9,1640.6 L-5752.5,1639.5 L-5760.8,1638.5 L-5769.2,1638.9 L-5771.9,1639.8 L-5774.5,1639.3 L-5776.3,1637.5 L-5779.4,1635.8 L-5790.7,1635.8 L-5802.2,1636.5 L-5813.0,1642.8 L-5818.4,1645.4 L-5824.4,1646.7 L-5829.5,1647.1 L-5834.1,1646.4 L-5844.5,1641.9 L-5850.5,1640.0 L-5855.7,1639.3 L-5878.0,1639.6 L-5879.4,1636.9 L-5899.1,1637.3 L-5912.7,1639.8 L-5921.7,1640.8 L-5926.5,1641.9 L-5928.3,1640.6 L-5931.8,1640.2 L-5963.6,1637.3 L-5966.3,1638.8 L-5969.7,1639.5 L-5974.1,1639.5 L-5974.1,1637.9 L-5993.9,1634.3 L-6006.3,1631.9 L-6036.4,1621.7 L-6038.1,1624.0 L-6058.2,1617.8 L-6062.4,1616.4 L-6060.3,1609.4 L-6062.7,1608.6 L-6063.2,1607.9 L-6064.5,1607.5 L-6066.3,1607.2 L-6068.5,1606.2 L-6067.7,1605.5 L-6076.6,1598.2 L-6091.4,1584.8 L-6099.4,1577.9 L-6105.1,1571.7 L-6108.2,1567.6 L-6112.9,1561.1 L-6115.6,1556.2 L-6124.0,1545.6 L-6124.8,1545.1 L-6125.4,1545.0 L-6125.9,1545.1 L-6127.1,1545.1 L-6128.1,1544.7 L-6130.1,1543.3 L-6134.4,1541.0 L-6136.6,1539.3 L-6139.0,1537.1 L-6142.3,1535.3 L-6147.6,1533.6 L-6153.2,1532.7 L-6157.9,1532.5 L-6156.6,1520.0 L-6155.4,1503.5 L-6150.3,1504.0 L-6145.1,1504.9 L-6138.4,1506.9 L-6133.4,1508.7 L-6129.0,1510.8 L-6124.7,1512.8 L-6120.7,1515.1 L-6117.3,1517.6 L-6113.0,1521.1 L-6108.4,1524.5 L-6107.3,1525.1 L-6106.4,1525.4 L-6093.7,1524.8 L-6093.6,1527.6 L-6094.4,1528.9 L-6103.8,1529.8 L-6101.4,1534.7 L-6099.8,1534.1 L-6098.2,1535.6 L-6097.3,1537.1 L-6096.5,1538.1 L-6094.5,1540.7 L-6093.8,1543.6 L-6090.7,1547.8 L-6083.5,1552.4 L-6074.6,1556.9 L-6063.9,1563.6 L-6059.0,1565.9 L-6048.7,1571.8 L-6043.9,1574.3 L-6035.0,1577.6 L-6017.6,1582.3 L-6007.4,1584.7 L-5998.1,1585.7 L-5993.2,1586.3 L-5992.1,1586.2 L-5991.6,1585.6 L-5991.4,1582.3 L-5979.9,1582.2 L-5979.7,1586.0 L-5955.5,1587.2 L-5931.8,1587.9 L-5915.8,1587.3 L-5910.5,1586.9 L-5906.7,1586.4 L-5903.5,1585.5 L-5900.6,1583.8 L-5899.2,1581.4 L-5899.7,1542.7 L-5890.0,1542.1 L-5889.1,1579.9 L-5888.6,1580.9 L-5886.6,1582.2 L-5884.4,1582.9 L-5832.7,1582.9 L-5832.9,1566.3 L-5828.8,1566.2 L-5827.2,1582.9 L-5795.3,1582.7 L-5795.2,1580.9 L-5792.1,1580.8 L-5792.0,1582.1 L-5579.3,1578.1 L-5563.8,1576.2 L-5545.0,1575.7 L-5527.2,1578.0 L-5521.3,1577.5 L-5516.9,1576.7 L-5512.9,1575.2 L-5507.6,1573.3 L-5400.7,1571.3 L-5400.7,1564.0 L-5340.9,1562.9 L-5340.8,1571.1 L-5315.4,1571.9 L-5313.5,1571.9 L-5311.7,1571.8 L-5309.3,1571.4 L-5307.4,1570.9 L-5305.6,1570.4 L-5302.5,1568.9 L-5301.0,1571.4 L-5297.9,1569.4 L-5295.1,1567.1 L-5292.6,1564.6 L-5290.5,1561.6 L-5288.6,1558.0 L-5292.2,1556.0 L-5291.2,1552.9 L-5290.6,1549.7 L-5290.3,1546.7 L-5290.2,1544.4 L-5290.3,1542.2 L-5290.6,1523.2 L-5293.7,1520.5 L-5291.1,1517.7 L-5293.7,1515.4 L-5290.7,1511.8 L-5294.0,1509.0 L-5291.4,1506.3 L-5294.0,1503.7 L-5291.0,1500.5 L-5294.1,1497.3 L-5287.5,1490.1 L-5286.4,1490.1 L-5289.3,1382.8 L-5265.2,1382.2 L-5264.1,1382.8 L-5262.7,1383.8 L-5261.8,1384.7 L-5261.4,1385.7 L-5261.0,1386.9 L-5261.0,1388.1 L-5258.9,1554.7 L-5258.0,1560.2 L-5256.6,1563.8 L-5254.5,1568.3 L-5252.1,1572.7 L-5249.5,1576.2 L-5247.5,1578.3 L-5245.2,1580.1 L-5242.7,1581.6 L-5240.1,1582.6 L-5236.5,1583.6 L-5232.0,1584.5 L-5226.6,1585.5 L-5220.3,1586.6 L-5214.3,1587.9 L-5207.6,1589.1 L-5201.3,1590.5 L-5199.3,1590.9 L-5196.9,1591.3 L-5194.5,1591.6 L-5192.4,1591.7 L-5190.0,1591.7 L-5188.1,1591.6 L-5186.3,1591.3 L-5184.7,1590.9 L-5183.0,1590.3 L-5181.5,1589.7 L-5178.7,1588.3 L-5176.1,1586.8 L-5173.6,1584.9 L-5170.6,1582.1 L-5167.8,1579.0 L-5166.3,1576.4 L-5165.0,1573.1 L-5164.3,1570.4 L-5163.9,1567.6 L-5163.6,1564.9 L-5163.6,1562.4 L-5167.3,1383.8 L-5162.1,1378.4 L-5160.2,1378.2 L-5159.5,1377.5 L-5148.6,1377.3 L-5147.6,1375.6 L-5146.0,1376.1 L-5143.3,1378.7 L-5141.4,1381.3 L-5139.5,1384.6 L-5135.9,1584.2 L-5135.5,1587.7 L-5134.9,1594.7 L-5134.2,1596.0 L-5134.7,1596.4 L-5133.8,1598.3 L-5132.6,1600.6 L-5131.7,1602.1 L-5130.4,1603.9 L-5128.8,1605.8 L-5126.9,1607.7 L-5124.5,1609.7 L-5122.4,1611.3 L-5120.1,1612.6 L-5117.9,1613.6 L-5115.5,1614.4 L-5115.2,1613.7 L-5082.1,1625.7 L-5078.0,1627.2 L-5076.1,1627.9 L-5073.1,1629.0 L-5071.0,1629.5 L-5069.2,1629.8 L-5067.4,1629.8 L-5065.1,1629.6 L-5062.4,1629.3 L-5060.2,1628.8 L-5057.8,1628.1 L-5056.0,1627.4 L-5054.2,1626.6 L-5052.7,1625.6 L-5050.8,1624.3 L-5048.4,1622.2 L-5046.2,1620.0 L-5043.8,1617.0 L-5042.1,1614.2 L-5040.7,1611.1 L-5039.7,1607.7 L-5039.1,1604.1 L-5038.8,1597.9 L-5038.9,1585.1 L-5042.6,1382.1 L-5042.6,1379.9 L-5042.1,1378.3 L-5041.4,1377.0 L-5040.0,1375.7 L-5038.4,1374.9 L-5036.5,1374.6 L-5021.4,1374.1 L-5019.7,1374.4 L-5018.0,1375.1 L-5016.9,1376.2 L-5015.6,1378.1 L-5014.8,1380.8 L-5014.4,1384.5 L-5010.6,1644.9 L-5010.4,1646.4 L-5010.1,1648.0 L-5009.7,1649.6 L-5009.2,1651.4 L-5008.6,1653.1 L-5007.9,1654.7 L-5007.2,1656.0 L-5006.6,1657.3 L-5005.6,1658.7 L-5004.6,1660.1 L-5003.6,1661.3 L-5002.2,1662.8 L-5000.8,1664.1 L-4999.3,1665.4 L-4997.6,1666.6 L-4993.0,1669.5 L-4992.5,1669.0 L-4988.5,1671.2 L-4983.7,1673.9 L-4980.9,1675.4 L-4977.9,1677.2 L-4974.7,1679.0 L-4971.5,1681.0 L-4967.9,1683.3 L-4964.2,1685.5 L-4960.6,1687.7 L-4957.7,1689.5 L-4954.3,1691.7 L-4950.8,1694.0 L-4947.4,1696.2 L-4944.2,1698.4 L-4944.5,1698.8 L-4940.1,1701.9 L-4935.6,1704.9 L-4934.2,1705.7 L-4932.6,1706.6 L-4930.5,1707.7 L-4928.4,1708.4 L-4926.2,1709.0 L-4924.2,1709.5 L-4922.0,1709.9 L-4919.4,1710.1 L-4917.2,1710.2 L-4915.4,1710.0 L-4913.7,1709.7 L-4911.7,1709.1 L-4909.6,1708.4 L-4907.7,1707.8 L-4906.0,1707.0 L-4904.2,1706.0 L-4902.4,1704.9 L-4900.7,1703.5 L-4899.1,1702.1 L-4897.5,1700.5 L-4896.1,1698.9 L-4894.5,1696.7 L-4893.3,1694.5 L-4892.1,1692.1 L-4891.4,1690.2 L-4890.8,1688.2 L-4890.5,1686.0 L-4890.3,1683.9 L-4890.4,1681.4 L-4920.1,1397.5 L-4918.0,1397.4 L-4919.6,1383.1 L-4921.2,1383.2 L-4922.4,1376.7 L-4922.0,1375.3 L-4920.7,1373.4 L-4918.1,1371.4 L-4914.8,1371.0 L-4901.3,1370.6 L-4899.1,1371.0 L-4897.5,1371.7 L-4895.9,1373.0 L-4894.7,1374.2 L-4894.0,1375.5 L-4861.5,1693.9 L-4860.7,1696.7 L-4859.3,1700.1 L-4858.1,1702.3 L-4856.8,1704.6 L-4855.1,1706.9 L-4853.7,1708.5 L-4852.2,1710.1 L-4850.5,1711.5 L-4849.0,1712.6 L-4846.8,1713.9 L-4845.0,1714.9 L-4842.5,1715.9 L-4840.2,1716.6 L-4837.7,1717.2 L-4835.6,1717.4 L-4833.9,1717.5 L-4831.9,1717.5 L-4761.2,1716.1 L-4758.9,1715.8 L-4756.7,1714.7 L-4755.2,1713.3 L-4754.0,1711.1 L-4753.7,1709.1 L-4753.7,1707.1 L-4789.5,1366.1 L-4821.0,1325.0 L-4822.4,1326.1 L-4849.8,1287.8 L-4850.3,1279.8 L-4851.1,1278.1 L-4852.6,1276.5 L-4854.4,1273.9 L-4854.6,1270.1 L-4857.9,1268.9 L-4861.0,1268.8 L-4865.2,1270.9 L-4860.4,1279.9 L-4866.5,1282.8 L-4871.1,1278.6 L-4874.9,1276.2 L-4877.6,1275.3 L-4884.1,1275.1 L-4887.4,1268.3 L-4866.7,1259.8 L-4867.6,1258.2 L-4872.0,1252.2 L-4872.7,1252.6 L-5027.2,1050.4 L-5029.5,1017.0 L-5028.3,1016.7 L-5034.3,955.5 L-5036.6,949.9 L-5039.0,943.5 L-5041.0,938.6 L-5043.2,932.4 L-5050.8,911.3 L-5053.8,912.7 L-5058.2,895.7 L-5057.5,895.5 L-5073.0,853.4 L-5074.7,779.7 L-5072.9,779.7 L-5072.7,773.2 L-5071.8,766.9 L-5071.5,764.5 L-5072.1,762.6 L-5070.0,752.5 L-5050.8,718.7 L-5060.9,712.5 L-5053.5,700.2 L-5043.7,705.9 L-5042.9,704.6 L-5039.8,706.1 L-5036.5,707.5 L-5032.8,708.7 L-5029.9,709.3 L-5027.2,709.3 L-5024.0,708.8 L-5020.8,707.7 L-5017.7,706.5 L-5016.3,705.0 L-5015.7,703.0 L-5015.0,700.5 L-5014.8,699.5 L-5014.9,698.2 L-5015.6,696.3 L-5016.9,694.5 L-5018.4,693.4 L-5020.6,691.3 L-5022.5,689.3 L-5025.3,687.5 L-5026.5,684.7 L-5027.8,681.8 L-5029.9,678.5 L-5032.4,675.5 L-5036.9,672.3 L-5058.7,661.0 L-5071.6,654.7 L-5083.6,648.1 L-5095.1,641.8 L-5102.5,637.0 L-5105.3,636.2 L-5108.5,637.2 L-5110.2,639.4 L-5113.8,648.2 L-5135.9,638.3 L-5122.6,617.5 L-5119.8,616.1 L-5116.2,615.4 L-5112.1,616.3 L-5029.2,664.8 L-5024.7,666.1 L-5020.0,667.2 L-5013.3,667.4 L-5006.6,666.2 L-5002.3,664.5 L-4997.6,660.7 L-4994.9,658.0 L-4991.9,653.9 L-4991.9,653.3 L-4992.1,652.8 L-4992.6,652.4 L-5019.4,635.8 L-5020.1,635.6 L-5020.7,635.6 L-5021.5,635.6 L-5024.0,636.7 L-5024.9,636.8 L-5026.0,636.7 L-5027.6,636.5 L-5028.7,636.1 L-5030.4,635.3 L-5032.1,634.3 L-5069.0,611.9 L-5086.3,599.6 L-5088.0,599.4 L-5089.6,599.5 L-5091.5,599.5 L-5092.9,599.3 L-5093.9,598.8 L-5095.3,597.8 L-5096.7,596.6 L-5097.7,595.3 L-5098.3,593.8 L-5098.4,592.8 L-5098.3,591.5 L-5098.0,590.3 L-5092.1,580.4 L-5092.1,579.9 L-5092.5,579.6 L-5097.9,575.8 L-5099.0,574.2 L-5098.4,573.3 L-5096.6,573.5 L-5094.7,574.1 L-5083.6,581.0 L-5020.7,621.1 L-5019.5,621.8 L-5018.6,622.8 L-5018.0,623.9 L-5017.3,626.2 L-5016.8,628.0 L-5016.6,629.5 L-4988.2,646.6 L-4987.2,647.0 L-4986.0,647.2 L-4984.6,646.9 L-4983.6,646.6 L-4982.7,646.2 L-4952.2,596.7 L-4939.4,578.0 L-4927.4,564.5 L-4921.4,567.8 L-4917.5,561.6 L-4938.2,549.2 L-4933.8,541.9 L-4913.1,554.4 L-4908.4,546.8 L-4912.2,542.6 L-4908.4,538.3 L-4904.3,543.0 L-4903.3,542.2 L-4902.2,541.5 L-4900.6,540.5 L-4898.9,539.7 L-4896.9,539.0 L-4894.9,538.5 L-4892.8,538.1 L-4890.7,538.0 L-4888.7,538.0 L-4886.8,538.3 L-4884.9,538.7 L-4883.3,539.2 L-4882.0,539.8 L-4880.1,540.7 L-4878.3,541.8 L-4876.9,542.9 L-4875.4,544.2 L-4874.0,545.5 L-4872.5,547.5 L-4871.5,549.2 L-4870.4,551.4 L-4869.7,553.7 L-4869.1,556.8 L-4868.9,559.5 L-4869.0,561.1 L-4869.2,562.6 L-4869.7,565.1 L-4871.1,568.3 L-4872.0,570.5 L-4873.2,573.0 L-4868.1,575.6 L-4843.8,546.6 L-4888.0,519.7 L-4885.7,515.0 L-4884.2,510.5 L-4884.1,508.6 L-4881.5,503.1 L-4876.3,498.3 L-4869.7,493.0 L-4862.0,488.0 L-4847.5,483.8 L-4822.3,481.3 L-4812.5,473.3 L-4810.4,472.9 L-4808.8,472.9 L-4806.4,473.8 L-4804.2,474.0 L-4790.3,482.4 L-4753.6,438.9 L-4888.1,353.4 L-4896.4,366.5 L-4914.6,355.1 L-4888.8,314.6 L-4870.7,325.7 L-4878.8,339.5 L-4741.9,425.8 L-4724.7,403.7 L-4712.5,389.2 L-4696.4,365.0 L-4687.5,352.7 L-4688.4,345.8 L-4688.2,345.6 L-4689.7,340.4 L-4690.8,337.3 L-4691.8,334.0 L-4693.0,331.1 L-4695.3,327.3 L-4697.6,323.7 L-4698.6,321.8 L-4699.4,319.9 L-4699.9,318.1 L-4700.1,316.6 L-4700.4,311.5 L-4759.4,257.3 L-4761.4,259.4 L-4763.0,258.0 L-4767.8,262.7 L-4771.0,258.5 L-4767.2,254.1 L-4771.0,249.3 L-4773.6,249.9 L-4776.3,250.0 L-4778.8,249.6 L-4780.9,248.7 L-4783.4,246.9 L-4786.5,243.8 L-4791.9,237.8 L-4793.6,235.2 L-4794.2,232.0 L-4793.8,228.3 L-4792.4,224.7 L-4791.1,222.3 L-4788.7,220.0 L-4786.1,218.2 L-4783.5,217.2 L-4781.6,216.9 L-4779.1,217.3 L-4776.6,218.3 L-4774.2,220.1 L-4768.6,225.2 L-4765.8,227.9 L-4763.1,230.7 L-4762.3,232.1 L-4761.7,233.5 L-4761.4,234.8 L-4761.1,236.6 L-4761.4,238.3 L-4761.9,239.9 L-4762.6,241.1 L-4762.8,241.6 L-4762.7,242.3 L-4762.2,243.1 L-4698.8,302.5 L-4696.6,304.0 L-4695.1,304.7 L-4692.8,304.2 L-4690.3,303.9 L-4687.0,305.4 L-4683.6,307.4 L-4677.2,311.1 L-4674.5,312.3 L-4672.1,309.9 L-4669.4,307.4 L-4667.5,305.3 L-4664.5,301.4 L-4662.8,299.1 L-4661.1,296.1 L-4659.9,293.6 L-4658.6,290.9 L-4657.5,288.0 L-4656.5,285.2 L-4655.8,282.7 L-4655.1,279.6 L-4654.9,277.8 L-4654.6,276.3 L-4654.3,273.6 L-4654.0,271.0 L-4653.8,269.3 L-4653.7,267.4 L-4653.7,265.3 L-4653.8,263.5 L-4654.2,261.0 L-4654.5,258.1 L-4654.9,255.5 L-4655.2,253.4 L-4655.5,251.7 L-4655.9,250.1 L-4656.3,248.3 L-4656.9,246.4 L-4657.6,244.4 L-4658.1,243.1 L-4658.7,241.9 L-4659.5,240.8 L-4660.7,239.1 L-4661.9,237.6 L-4663.3,236.3 L-4665.0,234.9 L-4666.7,233.8 L-4668.5,232.9 L-4670.1,232.2 L-4671.2,231.9 L-4672.5,231.7 L-4673.9,231.8 L-4675.3,232.1 L-4676.4,232.5 L-4677.5,233.3 L-4678.3,234.1 L-4678.9,234.9 L-4679.3,236.0 L-4679.6,237.3 L-4679.5,238.7 L-4679.4,240.5 L-4679.4,241.8 L-4679.5,243.1 L-4679.7,244.4 L-4680.0,245.5 L-4680.4,246.8 L-4681.1,248.1 L-4681.9,249.3 L-4682.8,250.4 L-4683.7,251.3 L-4685.3,252.6 L-4686.8,253.5 L-4688.9,254.2 L-4690.2,254.5 L-4691.7,254.7 L-4693.1,254.7 L-4694.9,254.7 L-4696.2,254.4 L-4698.0,254.0 L-4700.5,253.3 L-4702.6,252.5 L-4704.2,251.8 L-4705.8,250.9 L-4707.2,249.9 L-4708.9,248.7 L-4710.1,247.6 L-4711.2,246.5 L-4712.3,245.2 L-4713.2,244.0 L-4714.0,242.8 L-4714.7,241.5 L-4715.6,239.7 L-4716.2,238.0 L-4716.9,236.2 L-4717.4,234.8 L-4717.7,233.5 L-4718.0,232.2 L-4718.2,230.1 L-4718.3,228.2 L-4718.2,226.2 L-4717.8,223.5 L-4717.1,220.9 L-4716.1,218.2 L-4715.4,217.0 L-4714.8,216.2 L-4709.6,209.7 L-4708.5,208.3 L-4706.9,207.6 L-4705.3,207.0 L-4703.4,206.6 L-4701.3,206.3 L-4699.5,206.2 L-4697.8,206.3 L-4696.0,206.5 L-4693.9,207.1 L-4691.8,208.2 L-4689.9,209.3 L-4688.2,210.6 L-4683.0,215.4 L-4681.8,215.8 L-4681.1,215.9 L-4680.2,215.8 L-4679.7,215.6 L-4679.0,214.8 L-4678.7,214.0 L-4678.6,212.8 L-4678.6,211.9 L-4678.8,211.4 L-4689.3,201.0 L-4675.0,185.8 L-4675.8,183.9 L-4667.6,175.8 L-4651.6,191.7 L-4664.5,208.0 L-4664.5,209.0 L-4663.9,209.3 L-4663.1,209.2 L-4649.1,191.6 L-4644.9,186.6 L-4644.8,185.5 L-4645.2,184.4 L-4645.9,183.6 L-4656.9,173.2 L-4654.2,170.0 L-4656.9,167.6 L-4655.4,163.9 L-4626.8,135.3 L-4617.1,133.6 L-4614.0,133.2 L-4611.1,132.7 L-4609.7,132.4 L-4608.1,131.6 L-4606.3,130.5 L-4604.8,129.0 L-4603.4,127.3 L-4588.8,106.2 L-4588.5,105.6 L-4588.7,104.9 L-4588.9,104.4 L-4589.3,103.9 L-4591.0,102.9 L-4591.4,102.6 L-4591.9,102.6 L-4592.3,102.9 L-4593.2,103.6 L-4605.5,115.0 L-4610.2,118.4 L-4629.7,98.4 L-4627.4,91.3 L-4626.5,89.2 L-4623.5,83.6 L-4619.9,77.4 L-4617.7,75.0 L-4613.9,70.9 L-4609.8,66.3 L-4605.3,61.6 L-4601.4,58.3 L-4599.6,56.6 L-4597.2,54.9 L-4594.9,53.6 L-4591.7,52.2 L-4589.7,51.5 L-4587.7,50.9 L-4586.2,50.8 L-4584.0,50.9 L-4582.1,51.2 L-4580.0,51.7 L-4577.9,53.4 L-4576.7,55.2 L-4575.9,57.0 L-4575.6,59.7 L-4575.8,63.3 L-4576.2,67.2 L-4577.1,71.1 L-4582.2,82.6 L-4587.1,92.9 L-4585.4,95.7 L-4584.5,96.2 L-4583.5,96.2 L-4582.7,96.1 L-4582.0,95.6 L-4578.7,90.9 L-4574.4,88.7 L-4565.8,65.9 L-4565.3,64.8 L-4564.4,63.8 L-4563.5,63.3 L-4562.8,63.1 L-4561.6,63.1 L-4560.4,63.4 L-4554.2,65.2 L-4552.9,65.4 L-4551.6,65.4 L-4550.3,65.2 L-4549.2,64.8 L-4548.3,64.1 L-4547.4,62.9 L-4536.9,48.9 L-4536.4,47.9 L-4536.2,46.8 L-4536.2,45.7 L-4536.4,44.6 L-4536.7,43.8 L-4537.4,43.0 L-4538.1,42.4 L-4539.1,41.9 L-4540.0,41.6 L-4541.0,41.6 L-4541.8,41.7 L-4542.7,42.1 L-4543.4,42.7 L-4544.0,43.4 L-4546.7,47.8 L-4547.3,48.7 L-4548.0,49.5 L-4549.1,50.4 L-4550.0,50.9 L-4551.2,51.3 L-4552.6,51.5 L-4553.4,51.5 L-4554.4,51.4 L-4555.4,51.2 L-4556.2,50.8 L-4564.8,43.0 L-4565.8,41.8 L-4566.5,40.7 L-4567.2,39.3 L-4567.7,38.2 L-4568.0,37.0 L-4568.2,35.7 L-4568.4,34.1 L-4568.4,32.5 L-4568.3,31.1 L-4568.1,30.0 L-4567.8,29.0 L-4567.5,28.2 L-4551.8,3.3 L-4550.8,1.7 L-4550.2,0.8 L-4549.5,0.4 L-4548.4,-0.1 L-4547.2,-0.5 L-4546.0,-0.6 L-4545.3,-0.6 L-4544.7,-0.5 L-4544.1,-0.3 L-4543.3,0.0 L-4542.4,0.6 L-4540.8,2.0 L-4533.7,8.6 L-4532.5,10.3 L-4531.7,12.0 L-4531.1,13.9 L-4530.9,15.4 L-4530.8,17.0 L-4530.8,18.4 L-4530.9,19.7 L-4531.2,21.1 L-4531.5,22.0 L-4532.3,23.9 L-4535.1,29.1 L-4535.5,30.3 L-4535.5,31.8 L-4535.4,32.9 L-4534.9,33.7 L-4534.2,34.5 L-4533.0,35.4 L-4532.0,35.9 L-4530.9,36.2 L-4529.5,36.2 L-4528.4,35.9 L-4527.1,35.3 L-4526.0,34.3 L-4507.5,8.9 L-4513.2,3.8 L-4509.8,0.1 L-4504.7,4.9 L-4494.4,-8.7 L-4478.6,-29.7 L-4542.0,-90.5 L-4555.8,-76.0 L-4571.9,-91.3 L-4556.3,-108.1 L-4558.4,-110.3 L-4555.1,-113.3 L-4553.1,-111.3 L-4542.2,-123.1 L-4532.5,-114.1 L-4531.4,-106.6 L-4490.3,-68.3 L-4482.3,-65.2 L-4476.0,-67.4 L-4463.8,-62.6 L-4455.8,-65.6 L-4431.8,-94.8 L-4430.5,-97.6 L-4430.1,-101.3 L-4431.2,-104.9 L-4432.9,-107.5 L-4447.0,-120.6 L-4446.9,-124.2 L-4444.1,-131.3 L-4438.4,-141.7 L-4449.5,-148.9 L-4445.3,-150.4 L-4442.6,-152.2 L-4440.0,-155.2 L-4436.9,-163.1 L-4431.2,-177.6 L-4427.5,-181.0 L-4462.6,-215.0 L-4470.3,-210.2 L-4472.1,-209.7 L-4473.8,-209.7 L-4476.0,-210.0 L-4477.8,-210.5 L-4479.6,-211.5 L-4481.0,-212.8 L-4499.2,-230.3 L-4502.6,-233.6 L-4504.0,-235.4 L-4505.3,-237.7 L-4505.9,-239.8 L-4506.1,-241.8 L-4506.1,-243.6 L-4505.7,-245.5 L-4505.3,-246.9 L-4504.7,-248.0 L-4503.4,-249.8 L-4501.9,-251.6 L-4493.7,-260.1 L-4431.7,-202.7 L-4436.0,-197.9 L-4390.0,-154.4 L-4337.0,-231.9 L-4370.7,-263.4 L-4375.0,-259.5 L-4437.7,-318.7 L-4429.5,-326.4 L-4393.4,-292.6 L-4389.8,-297.9 L-4387.9,-300.5 L-4385.3,-303.2 L-4382.4,-306.4 L-4379.4,-308.3 L-4374.6,-312.3 L-4369.9,-316.7 L-4360.7,-325.3 L-4339.0,-349.8 L-4335.1,-353.9 L-4320.7,-361.2 L-4307.1,-371.8 L-4305.8,-372.9 L-4302.3,-375.6 L-4300.8,-377.0 L-4299.5,-378.6 L-4298.7,-380.2 L-4298.1,-381.9 L-4297.4,-383.1 L-4296.7,-384.5 L-4295.4,-386.7 L-4294.5,-388.0 L-4293.6,-389.2 L-4292.0,-390.6 L-4290.4,-391.6 L-4288.6,-392.7 L-4284.5,-394.7 L-4280.4,-396.7 L-4279.9,-396.8 L-4279.2,-396.7 L-4278.0,-396.3 L-4274.8,-394.7 L-4272.3,-393.5 L-4271.2,-392.8 L-4270.2,-392.0 L-4253.4,-376.1 L-4252.3,-375.4 L-4246.9,-374.0 L-4245.1,-373.5 L-4243.1,-373.3 L-4241.7,-373.4 L-4240.5,-373.8 L-4239.3,-374.5 L-4233.4,-382.9 L-4233.4,-384.1 L-4233.6,-385.2 L-4234.3,-386.3 L-4235.2,-387.4 L-4239.8,-391.6 L-4239.5,-392.3 L-4233.6,-404.7 L-4223.6,-424.9 L-4214.5,-431.6 L-4209.3,-436.9 L-4205.6,-441.0 L-4201.9,-444.9 L-4197.6,-448.3 L-4195.1,-450.6 L-4192.4,-453.1 L-4190.4,-455.1 L-4189.4,-456.9 L-4188.6,-458.3 L-4188.1,-459.7 L-4187.9,-461.3 L-4187.8,-462.8 L-4184.7,-465.9 L-4180.3,-470.2 L-4172.7,-476.3 L-4164.9,-482.3 L-4161.4,-487.2 L-4160.1,-492.3 L-4156.2,-494.6 L-4151.3,-494.7 L-4146.3,-497.7 L-4142.0,-505.5 L-4142.1,-513.7 L-4141.3,-526.3 L-4140.0,-528.1 L-4139.3,-529.3 L-4137.9,-531.6 L-4139.7,-536.9 L-4137.7,-539.4 L-4127.8,-551.7 L-4110.7,-571.6 L-4107.5,-576.3 L-4106.2,-578.7 L-4100.8,-586.2 L-4099.3,-590.8 L-4099.3,-598.1 L-4099.5,-605.3 L-4099.5,-612.7 L-4097.3,-620.9 L-4093.6,-629.0 L-4088.3,-636.7 L-4084.5,-642.4 L-4079.9,-648.2 L-4071.1,-658.0 L-4032.1,-677.3 L-4026.9,-678.6 L-4025.6,-675.8 L-4024.1,-673.1 L-4023.6,-672.6 L-4022.8,-673.0 L-4022.6,-674.9 L-4023.2,-676.5 L-4021.0,-677.1 L-4013.0,-679.5 L-4002.6,-682.6 L-3994.2,-685.1 L-3991.3,-686.0 L-3994.2,-695.4 L-3989.1,-696.8 L-3980.4,-698.0 L-3979.3,-698.2 L-3979.3,-698.8 L-3979.3,-701.0 L-3971.5,-701.4 L-3959.2,-701.9 L-3954.4,-699.5 L-3942.6,-656.8 L-3939.9,-654.3 L-3945.0,-649.0 L-3940.5,-644.5 L-3936.0,-640.0 L-3930.6,-645.5 L-3830.4,-550.2 L-3696.6,-693.0 L-3649.8,-648.3 L-3648.0,-648.9 L-3647.3,-648.1 L-3644.2,-650.0 L-3641.6,-651.0 L-3638.8,-652.2 L-3634.1,-654.7 L-3631.2,-656.3 L-3627.7,-658.3 L-3624.6,-660.3 L-3622.0,-662.0 L-3619.6,-663.6 L-3616.7,-665.7 L-3613.6,-668.0 L-3611.1,-670.1 L-3608.5,-672.3 L-3605.7,-675.1 L-3602.9,-677.8 L-3596.6,-684.4 L-3592.9,-689.0 L-3589.1,-693.9 L-3586.6,-697.5 L-3584.2,-701.2 L-3581.4,-706.4 L-3578.9,-711.5 L-3576.9,-715.6 L-3575.2,-719.7 L-3574.1,-722.5 L-3573.0,-725.6 L-3570.2,-728.9 L-3655.8,-810.3 L-3654.7,-811.5 L-3644.5,-822.4 L-3637.0,-830.3 L-3636.3,-831.1 L-3614.6,-810.8 L-3609.3,-813.5 L-3608.7,-812.8 L-3557.7,-839.3 L-3555.6,-840.5 L-3554.2,-841.6 L-3552.8,-842.9 L-3551.3,-844.5 L-3549.7,-846.7 L-3548.5,-848.8 L-3547.6,-850.4 L-3547.0,-852.5 L-3546.4,-854.7 L-3546.2,-857.1 L-3546.2,-859.9 L-3546.4,-862.1 L-3546.8,-864.1 L-3547.5,-866.4 L-3563.4,-912.3 L-3565.6,-919.8 L-3565.0,-922.4 L-3603.5,-932.0 L-3601.7,-938.6 L-3600.2,-944.6 L-3588.8,-989.8 L-3597.7,-1016.0 L-3602.8,-1033.0 L-3604.4,-1037.3 L-3590.6,-1050.0 L-3575.0,-1058.3 L-3574.1,-1057.0 L-3572.6,-1054.9 L-3569.0,-1050.3 L-3568.7,-1050.7 L-3568.6,-1052.3 L-3573.4,-1058.9 L-3564.8,-1065.2 L-3562.9,-1066.3 L-3558.3,-1060.4 L-3557.6,-1059.8 L-3556.8,-1059.7 L-3556.4,-1059.8 L-3556.4,-1060.2 L-3577.8,-1089.5 L-3579.4,-1091.2 L-3581.2,-1093.7 L-3590.5,-1104.9 L-3582.6,-1129.6 L-3576.4,-1135.9 L-3569.4,-1139.2 L-3554.4,-1148.1 L-3551.3,-1151.3 L-3537.9,-1163.1 L-3533.6,-1158.6 L-3521.2,-1145.2 L-3509.6,-1154.9 L-3501.9,-1147.5 L-3494.9,-1140.6 L-3494.5,-1140.3 L-3488.6,-1145.4 L-3480.9,-1137.0 L-3474.1,-1128.4 L-3469.2,-1122.7 L-3468.5,-1122.0 L-3454.1,-1134.6 L-3453.4,-1135.2 L-3456.8,-1139.4 L-3448.9,-1145.8 L-3425.2,-1118.1 L-3404.9,-1131.4 L-3402.9,-1133.3 L-3394.1,-1137.0 L-3392.1,-1139.0 L-3390.2,-1141.5 L-3379.4,-1151.1 L-3381.8,-1154.5 L-3401.2,-1150.1 L-3423.4,-1175.3 L-3420.9,-1177.5 L-3417.5,-1173.6 L-3401.8,-1187.1 L-3385.1,-1168.9 L-3380.6,-1167.1 L-3378.0,-1165.5 L-3374.5,-1161.7 L-3372.7,-1163.3 L-3384.8,-1177.0 L-3377.4,-1183.5 L-3362.4,-1165.5 L-3360.5,-1166.9 L-3360.7,-1167.3 L-3327.9,-1191.0 L-3318.2,-1198.2 L-3350.0,-1238.0 L-3343.2,-1242.7 L-3315.5,-1210.3 L-3295.1,-1206.6 L-3281.5,-1214.4 L-3279.7,-1215.6 L-3279.8,-1217.1 L-3280.7,-1218.9 L-3270.1,-1225.5 L-3267.1,-1222.4 L-3258.1,-1227.7 L-3264.6,-1235.7 L-3295.8,-1277.3 L-3273.8,-1300.2 L-3259.3,-1321.5 L-3259.0,-1338.2 L-3266.7,-1360.4 L-3250.5,-1373.9 L-3233.4,-1380.5 L-3227.9,-1381.7 L-3223.4,-1382.3 L-3217.9,-1382.0 L-3212.1,-1380.6 L-3203.9,-1373.6 L-3182.5,-1347.4 L-3165.4,-1325.7 L-3145.0,-1312.1 L-3136.9,-1310.8 L-3129.7,-1309.9 L-3123.6,-1309.7 L-3115.8,-1310.2 L-3107.3,-1311.6 L-3100.5,-1313.6 L-3094.7,-1316.3 L-3090.9,-1318.6 L-3088.0,-1321.5 L-3083.2,-1327.4 L-3078.0,-1336.9 L-3072.4,-1349.5 L-3062.3,-1344.3 L-3058.3,-1343.0 L-3054.0,-1342.3 L-3047.1,-1342.8 L-3042.6,-1344.1 L-3037.4,-1346.4 L-3032.5,-1349.2 L-3027.4,-1354.2 L-3023.0,-1358.2 L-3017.5,-1361.9 L-3013.7,-1364.4 L-3008.1,-1366.4 L-2998.5,-1369.2 L-2992.8,-1370.8 L-2986.6,-1373.1 L-2981.3,-1375.8 L-2978.2,-1377.7 L-2975.7,-1380.2 L-2943.0,-1396.6 L-2941.8,-1397.3 L-2940.3,-1398.3 L-2938.8,-1399.4 L-2936.6,-1400.7 L-2935.1,-1401.4 L-2933.6,-1402.7 L-2932.4,-1404.0 L-2930.8,-1405.0 L-2929.1,-1406.2 L-2926.8,-1408.3 L-2923.6,-1408.6 L-2920.3,-1409.0 L-2918.2,-1409.6 L-2915.4,-1410.9 L-2912.0,-1412.5 L-2908.3,-1414.7 L-2906.2,-1416.7 L-2903.9,-1419.3 L-2902.5,-1421.8 L-2901.7,-1424.1 L-2901.7,-1425.6 L-2901.6,-1427.0 L-2900.8,-1432.1 L-2882.6,-1442.7 L-2850.7,-1461.1 L-2844.5,-1464.6 L-2790.4,-1495.9 L-2731.8,-1529.5 L-2706.9,-1543.8 L-2698.2,-1548.6 L-2625.7,-1590.7 L-2609.7,-1599.6 L-2609.9,-1600.2 L-2576.7,-1618.9 L-2564.0,-1626.0 L-2540.5,-1639.1 L-2540.3,-1638.7 L-2531.2,-1643.7 L-2509.1,-1656.0 L-2506.4,-1658.4 L-2484.0,-1674.9 L-2472.9,-1684.1 L-2462.6,-1692.8 L-2457.9,-1695.4 L-2447.3,-1705.9 L-2446.4,-1705.3 L-2445.0,-1705.5 L-2444.3,-1705.0 L-2429.4,-1722.5 L-2433.1,-1726.0 L-2432.6,-1726.9 L-2431.0,-1729.2 L-2426.8,-1734.7 L-2424.2,-1738.6 L-2422.1,-1741.8 L-2419.3,-1746.2 L-2416.5,-1750.7 L-2413.4,-1755.9 L-2410.2,-1761.4 L-2403.2,-1775.8 L-2401.1,-1780.4 L-2399.4,-1784.0 L-2398.1,-1786.7 L-2397.1,-1788.9 L-2394.9,-1794.3 L-2452.8,-1902.3 L-2453.9,-1904.4 L-2454.7,-1905.6 L-2455.4,-1906.4 L-2456.2,-1907.1 L-2456.9,-1907.6 L-2457.9,-1908.2 L-2459.0,-1908.6 L-2459.9,-1908.8 L-2460.8,-1908.9 L-2462.1,-1908.9 L-2463.6,-1908.7 L-2465.0,-1908.3 L-2466.4,-1907.6 L-2479.9,-1899.8 L-2497.4,-1889.7 L-2509.7,-1882.9 L-2532.0,-1870.7 L-2545.7,-1863.2 L-2545.2,-1862.3 L-2551.0,-1859.0 L-2570.2,-1849.1 L-2584.4,-1840.7 L-2592.7,-1836.1 L-2605.5,-1828.7 L-2606.9,-1827.8 L-2618.1,-1847.8 L-2596.1,-1859.8 L-2566.2,-1876.0 L-2545.9,-1887.4 L-2543.4,-1888.8 L-2543.7,-1889.4 L-2526.2,-1898.9 L-2516.8,-1904.1 L-2495.3,-1914.6 L-2491.3,-1916.6 L-2458.9,-1934.6 L-2446.8,-1941.3 L-2438.2,-1945.9 L-2428.1,-1951.7 L-2414.1,-1926.4 L-2436.1,-1914.4 L-2437.2,-1912.6 L-2437.7,-1910.6 L-2437.9,-1909.1 L-2437.9,-1907.8 L-2437.8,-1906.8 L-2437.4,-1905.3 L-2392.6,-1822.4 L-2391.7,-1821.1 L-2390.7,-1820.2 L-2389.8,-1819.5 L-2388.7,-1819.2 L-2387.6,-1819.0 L-2386.5,-1819.1 L-2385.6,-1819.4 L-2365.7,-1834.5 L-2356.4,-1842.3 L-2346.7,-1850.4 L-2343.0,-1853.8 L-2331.1,-1863.6 L-2330.5,-1863.6 L-2319.0,-1873.5 L-2318.9,-1874.1 L-2311.3,-1880.3 L-2305.3,-1885.3 L-2295.0,-1893.8 L-2294.1,-1892.6 L-2284.0,-1900.9 L-2278.9,-1905.2 L-2264.7,-1916.9 L-2254.9,-1925.1 L-2255.8,-1926.5 L-2252.5,-1929.3 L-2247.2,-1933.7 L-2243.9,-1936.6 L-2229.9,-1942.8 L-2220.5,-1946.2 L-2215.6,-1948.5 L-2202.1,-1948.6 L-2197.3,-1948.6 L-2187.3,-1948.0 L-2175.5,-1947.5 L-2174.6,-1948.4 L-2173.5,-1946.8 L-2169.8,-1946.7 L-2136.1,-1943.8 L-2132.2,-1942.9 L-2128.8,-1942.4 L-2121.0,-1941.7 L-2106.4,-1941.0 L-2103.2,-1941.0 L-2100.2,-1941.0 L-2088.5,-1941.5 L-2082.5,-1941.8 L-2076.6,-1942.4 L-2067.5,-1943.3 L-2067.5,-1942.8 L-2060.3,-1944.0 L-2053.4,-1945.3 L-2048.1,-1946.3 L-2041.3,-1951.5 L-2040.4,-1950.3 L-2039.6,-1949.2 L-1978.8,-1868.7 L-1832.1,-1818.2 L-1562.7,-2016.0 L-1489.4,-2068.8 L-1461.0,-2129.3 L-1506.1,-2188.4 L-1504.1,-2196.8 L-1496.2,-2199.0 L-1481.0,-2195.8 L-1470.2,-2199.9 L-1467.2,-2204.1 L-1467.9,-2207.7 L-1475.9,-2223.6 L-1476.5,-2229.5 L-1476.9,-2241.2 L-1478.3,-2252.4 L-1476.9,-2254.5 L-1472.3,-2256.6 L-1466.8,-2257.9 L-1462.8,-2262.2 L-1461.9,-2267.4 L-1465.3,-2277.5 L-1465.6,-2284.4 L-1464.6,-2292.3 L-1459.1,-2306.2 L-1460.2,-2312.6 L-1462.9,-2319.7 L-1463.0,-2329.4 L-1464.6,-2342.2 L-1467.6,-2350.2 L-1469.3,-2354.4 L-1468.2,-2356.3 L-1467.0,-2356.1 L-1466.7,-2356.9 L-1466.6,-2357.9 L-1466.6,-2358.9 L-1468.3,-2359.1 L-1469.5,-2360.7 L-1469.3,-2362.5 L-1470.8,-2362.9 L-1472.6,-2363.0 L-1472.9,-2362.5 L-1476.6,-2367.0 L-1477.4,-2368.4 L-1478.1,-2370.4 L-1478.6,-2372.2 L-1478.9,-2374.2 L-1479.1,-2376.3 L-1479.1,-2378.0 L-1479.2,-2379.9 L-1479.0,-2380.9 L-1478.2,-2383.4 L-1477.3,-2385.4 L-1476.1,-2387.3 L-1474.4,-2389.8 L-1472.7,-2392.2 L-1471.0,-2393.8 L-1469.0,-2395.4 L-1468.6,-2395.0 L-1451.0,-2408.4 L-1448.5,-2410.4 L-1449.0,-2411.1 L-1449.0,-2412.4 L-1444.6,-2415.8 L-1443.6,-2415.8 L-1442.5,-2415.0 L-1440.7,-2416.4 L-1422.6,-2430.0 L-1422.9,-2430.5 L-1420.7,-2432.1 L-1418.2,-2433.6 L-1416.5,-2434.4 L-1414.0,-2435.4 L-1411.8,-2435.9 L-1409.7,-2436.3 L-1407.4,-2436.5 L-1405.9,-2436.3 L-1404.0,-2436.0 L-1402.1,-2435.4 L-1400.7,-2434.7 L-1399.3,-2433.9 L-1398.3,-2433.2 L-1397.5,-2432.3 L-1396.2,-2431.2 L-1395.7,-2430.9 L-1394.8,-2430.9 L-1393.9,-2431.1 L-1391.2,-2433.1 L-1391.1,-2433.6 L-1390.8,-2434.0 L-1390.6,-2434.5 L-1390.6,-2435.2 L-1390.7,-2435.7 L-1391.2,-2436.3 L-1393.1,-2438.2 L-1394.6,-2439.5 L-1396.4,-2440.5 L-1399.4,-2441.7 L-1401.9,-2442.8 L-1397.5,-2445.1 L-1392.1,-2448.8 L-1385.3,-2449.7 L-1378.6,-2449.3 L-1374.1,-2451.0 L-1370.3,-2456.5 L-1355.8,-2482.5 L-1349.9,-2493.2 L-1345.3,-2504.6 L-1344.5,-2506.9 L-1337.5,-2528.1 L-1336.5,-2530.2 L-1335.2,-2532.2 L-1318.9,-2552.3 L-1315.5,-2555.9 L-1312.9,-2558.1 L-1276.6,-2589.2 L-1274.7,-2590.5 L-1268.4,-2593.9 L-1261.0,-2598.1 L-1237.8,-2610.2 L-1187.2,-2637.4 L-1186.1,-2636.5 L-1185.1,-2636.1 L-1184.2,-2635.9 L-1183.3,-2636.0 L-1182.4,-2636.2 L-1179.7,-2636.8 L-1176.6,-2637.5 L-1173.7,-2638.1 L-1170.8,-2638.6 L-1169.2,-2639.0 L-1166.9,-2639.7 L-1164.5,-2640.7 L-1158.4,-2644.0 L-1156.2,-2645.2 L-1155.1,-2645.9 L-1153.9,-2646.4 L-1149.2,-2648.4 L-1144.1,-2650.4 L-1137.6,-2653.2 L-1129.9,-2656.3 L-1129.6,-2656.5 L-1129.0,-2656.5 L-1128.1,-2656.8 L-1126.9,-2657.7 L-1125.6,-2658.2 L-1124.1,-2658.9 L-1121.3,-2660.5 L-1120.3,-2661.5 L-1118.6,-2662.6 L-1118.8,-2662.9 L-1118.1,-2663.7 L-1117.1,-2664.7 L-1115.7,-2665.5 L-1114.4,-2665.9 L-1113.1,-2666.4 L-1111.8,-2667.1 L-1109.4,-2668.7 L-1108.6,-2669.4 L-1107.9,-2670.5 L-1107.6,-2671.2 L-1107.6,-2672.0 L-1107.6,-2672.8 L-1107.5,-2673.6 L-1114.5,-2682.0 L-1092.5,-2694.9 L-1082.0,-2700.5 L-1079.9,-2701.1 L-1076.7,-2700.6 L-1073.2,-2695.6 L-1071.6,-2694.2 L-1070.1,-2693.5 L-1068.8,-2693.2 L-1067.6,-2693.3 L-1048.6,-2701.0 L-1043.5,-2703.5 L-1038.7,-2706.2 L-1031.0,-2710.3 L-1029.4,-2710.9 L-922.0,-2755.5 L-888.4,-2771.6 L-738.1,-2843.8 L2768.4,-2872.8 L2768.4,2145.0 L-4725.4,2145.0 L-4725.4,1931.7 Z" fill="#add7e1" stroke="none"><title>Biscayne Bay</title></path><path d="M-1.0,-1.0 L257.0,-1.0 L257.0,257.0 L-1.0,257.0 L-1.0,-1.0 Z" fill="#add7e1" stroke="none" fill-rule="evenodd"><title>Biscayne Bay</title></path><path d="M1066.3,-1567.8 L-488.5,5118.4" fill="none" stroke="#6fb5c7" stroke-width="1.4" stroke-dasharray="5 7" opacity="0.34" stroke-linecap="round" stroke-linejoin="round"><title>Atlantic Intracoastal Waterway</title></path></svg>