<svg xmlns="http://www.w3.org/2000/svg" width="256" height="256" viewBox="0 0 256 256"><rect width="256" height="256" fill="#f1efe7"/><path d="M2.0,56.0 L3.0,102.0 L21.0,131.0 L71.0,130.0 L74.0,168.0 L103.0,201.0 L144.0,201.0 L141.0,49.0 L124.7,49.8 L112.5,50.4 L95.0,51.3 L88.3,51.6 L82.2,52.0 L2.0,56.0 Z" fill="#d6d2c9" stroke="#bab6ad" stroke-width="0.4"><title>Wellness Center</title></path><path d="M-25.5,42.6 L-26.4,2.6 L69.5,0.5 L70.4,40.5 L-25.5,42.6 Z" fill="#d6d2c9" stroke="#bab6ad" stroke-width="0.4"><title>Professional ArtsCenter</title></path><path d="M169.0,166.5 L211.0,165.5 L206.0,20.9 L168.0,22.5 L169.0,166.5 Z" fill="#d6d2c9" stroke="#bab6ad" stroke-width="0.4"><title>Clinical Research Building</title></path><path d="M221.0,-6.7 L417.7,-13.3 L420.5,20.8 L428.2,19.7 L432.1,48.4 L225.4,53.9 L221.0,-6.7 Z" fill="#d6d2c9" stroke="#bab6ad" stroke-width="0.4"></path><path d="M100.1,234.2 L181.5,324.2" fill="none" stroke="#6fb5c7" stroke-width="1.7" stroke-dasharray="5 7" opacity="0.34" stroke-linecap="round" stroke-linejoin="round"><title>Wagner Creek</title></path><path d="M-60.7,55.0 L-25.2,103.0 L13.9,158.0 L45.2,178.1 L100.1,234.2" fill="none" stroke="#6fb5c7" stroke-width="1.7" stroke-dasharray="5 7" opacity="0.34" stroke-linecap="round" stroke-linejoin="round"><title>Wagner Creek</title></path><path d="M386.8,-19.5 L234.3,-13.9 L212.3,-13.1 L201.5,-12.7 L116.5,-9.6 L86.1,-8.5 L71.0,-7.9 L15.1,-6.0 L-131.2,-0.9" fill="none" stroke="#cf828d" stroke-width="1.5" stroke-dasharray="1.6 3.0" opacity="0.62" stroke-linecap="round" stroke-linejoin="round"></path><path d="M211.7,-31.2 L212.3,-13.1 L218.1,159.5" fill="none" stroke="#cec8bb" stroke-width="3.5" stroke-linecap="round" stroke-linejoin="round"/><path d="M211.7,-31.2 L212.3,-13.1 L218.1,159.5" fill="none" stroke="#ffffff" stroke-width="2.5" stroke-linecap="round" stroke-linejoin="round"></path><path d="M-63.4,106.0 L-45.9,132.9 L-16.9,177.5 L41.5,217.6 L-15.5,239.8 L-31.3,243.9 L-63.4,252.5" fill="none" stroke="#cec8bb" stroke-width="3.5" stroke-linecap="round" stroke-linejoin="round"/><path d="M-63.4,106.0 L-45.9,132.9 L-16.9,177.5 L41.5,217.6 L-15.5,239.8 L-31.3,243.9 L-63.4,252.5" fill="none" stroke="#ffffff" stroke-width="2.5" stroke-linecap="round" stroke-linejoin="round"></path><path d="M245.1,60.5 L245.2,62.5 L246.5,80.5 L248.0,120.8 L251.6,124.0 L258.0,125.3 L264.7,124.2 L280.8,118.2 L373.4,63.0" fill="none" stroke="#cec8bb" stroke-width="3.5" stroke-linecap="round" stroke-linejoin="round"/><path d="M245.1,60.5 L245.2,62.5 L246.5,80.5 L248.0,120.8 L251.6,124.0 L258.0,125.3 L264.7,124.2 L280.8,118.2 L373.4,63.0" fill="none" stroke="#ffffff" stroke-width="2.5" stroke-linecap="round" stroke-linejoin="round"></path><path d="M370.8,58.5 L245.2,62.5" fill="none" stroke="#cec8bb" stroke-width="3.5" stroke-linecap="round" stroke-linejoin="round"/><path d="M370.8,58.5 L245.2,62.5" fill="none" stroke="#ffffff" stroke-width="2.5" stroke-linecap="round" stroke-linejoin="round"></path><path d="M234.6,-8.3 L245.1,60.5" fill="none" stroke="#cec8bb" stroke-width="3.5" stroke-linecap="round" stroke-linejoin="round"/><path d="M234.6,-8.3 L245.1,60.5" fill="none" stroke="#ffffff" stroke-width="2.5" stroke-linecap="round" stroke-linejoin="round"></path><path d="M85.4,-26.5 L86.1,-8.5 L87.6,28.8" fill="none" stroke="#cec8bb" stroke-width="3.5" stroke-linecap="round" stroke-linejoin="round"/><path d="M85.4,-26.5 L86.1,-8.5 L87.6,28.8" fill="none" stroke="#ffffff" stroke-width="2.5" stroke-linecap="round" stroke-linejoin="round"></path><path d="M112.5,50.4 L117.9,40.6" fill="none" stroke="#cec8bb" stroke-width="3.5" stroke-linecap="round" stroke-linejoin="round"/><path d="M112.5,50.4 L117.9,40.6" fill="none" stroke="#ffffff" stroke-width="2.5" stroke-linecap="round" stroke-linejoin="round"></path><path d="M87.6,28.8 L117.5,27.4" fill="none" stroke="#cec8bb" stroke-width="3.5" stroke-linecap="round" stroke-linejoin="round"/><path d="M87.6,28.8 L117.5,27.4" fill="none" stroke="#ffffff" stroke-width="2.5" stroke-linecap="round" stroke-linejoin="round"></path><path d="M117.5,27.4 L116.5,-9.6 L116.0,-27.6" fill="none" stroke="#cec8bb" stroke-width="3.5" stroke-linecap="round" stroke-linejoin="round"/><path d="M117.5,27.4 L116.5,-9.6 L116.0,-27.6" fill="none" stroke="#ffffff" stroke-width="2.5" stroke-linecap="round" stroke-linejoin="round"></path><path d="M82.2,52.0 L88.0,41.0" fill="none" stroke="#cec8bb" stroke-width="3.5" stroke-linecap="round" stroke-linejoin="round"/><path d="M82.2,52.0 L88.0,41.0" fill="none" stroke="#ffffff" stroke-width="2.5" stroke-linecap="round" stroke-linejoin="round"></path><path d="M117.9,40.6 L124.7,49.8" fill="none" stroke="#cec8bb" stroke-width="3.5" stroke-linecap="round" stroke-linejoin="round"/><path d="M117.9,40.6 L124.7,49.8" fill="none" stroke="#ffffff" stroke-width="2.5" stroke-linecap="round" stroke-linejoin="round"></path><path d="M117.9,40.6 L117.5,27.4" fill="none" stroke="#cec8bb" stroke-width="3.5" stroke-linecap="round" stroke-linejoin="round"/><path d="M117.9,40.6 L117.5,27.4" fill="none" stroke="#ffffff" stroke-width="2.5" stroke-linecap="round" stroke-linejoin="round"></path><path d="M88.0,41.0 L88.3,51.6" fill="none" stroke="#cec8bb" stroke-width="3.5" stroke-linecap="round" stroke-linejoin="round"/><path d="M88.0,41.0 L88.3,51.6" fill="none" stroke="#ffffff" stroke-width="2.5" stroke-linecap="round" stroke-linejoin="round"></path><path d="M88.0,41.0 L95.0,51.3" fill="none" stroke="#cec8bb" stroke-width="3.5" stroke-linecap="round" stroke-linejoin="round"/><path d="M88.0,41.0 L95.0,51.3" fill="none" stroke="#ffffff" stroke-width="2.5" stroke-linecap="round" stroke-linejoin="round"></path><path d="M87.6,28.8 L88.0,41.0" fill="none" stroke="#cec8bb" stroke-width="3.5" stroke-linecap="round" stroke-linejoin="round"/><path d="M87.6,28.8 L88.0,41.0" fill="none" stroke="#ffffff" stroke-width="2.5" stroke-linecap="round" stroke-linejoin="round"></path><path d="M338.7,153.4 L241.1,200.1 L199.7,220.1 L160.1,235.3 L85.2,258.8 L-6.9,286.2" fill="none" stroke="#d87a99" stroke-width="7.8" stroke-linecap="round" stroke-linejoin="round"/><path d="M338.7,153.4 L241.1,200.1 L199.7,220.1 L160.1,235.3 L85.2,258.8 L-6.9,286.2" fill="none" stroke="#e88fa8" stroke-width="6.0" stroke-linecap="round" stroke-linejoin="round"></path><path d="M338.7,153.4 L241.1,200.1 L199.7,220.1 L160.1,235.3 L85.2,258.8 L-6.9,286.2" fill="none" stroke="#fff8ef" stroke-width="1.5" stroke-dasharray="5.5 6.5" opacity="0.82" stroke-linecap="round" stroke-linejoin="round"/><path d="M69.8,346.6 L192.2,291.2 L252.4,259.8 L313.5,229.4" fill="none" stroke="#d87a99" stroke-width="11.0" stroke-linecap="round" stroke-linejoin="round"/><path d="M69.8,346.6 L192.2,291.2 L252.4,259.8 L313.5,229.4" fill="none" stroke="#e88fa8" stroke-width="9.2" stroke-linecap="round" stroke-linejoin="round"><title>Dolphin Expressway</title></path><path d="M69.8,346.6 L192.2,291.2 L252.4,259.8 L313.5,229.4" fill="none" stroke="#fff8ef" stroke-width="2.0" stroke-dasharray="5.5 6.5" opacity="0.82" stroke-linecap="round" stroke-linejoin="round"/><path d="M338.7,153.4 L247.1,212.7 L147.2,264.1 L45.3,313.6" fill="none" stroke="#d87a99" stroke-width="11.0" stroke-linecap="round" stroke-linejoin="round"/><path d="M338.7,153.4 L247.1,212.7 L147.2,264.1 L45.3,313.6" fill="none" stroke="#e88fa8" stroke-width="9.2" stroke-linecap="round" stroke-linejoin="round"><title>Dolphin Expressway</title></path><path d="M338.7,153.4 L247.1,212.7 L147.2,264.1 L45.3,313.6" fill="none" stroke="#fff8ef" stroke-width="2.0" stroke-dasharray="5.5 6.5" opacity="0.82" stroke-linecap="round" stroke-linejoin="round"/><path d="M-57.7,179.9 L-41.5,198.1 L-23.4,216.2 L15.9,250.9 L94.9,317.2" fill="none" stroke="#fbf8ef" stroke-width="7.2" stroke-linecap="round" stroke-linejoin="round"/><path d="M-57.7,179.9 L-41.5,198.1 L-23.4,216.2 L15.9,250.9 L94.9,317.2" fill="none" stroke="#5a5796" stroke-width="5.0" stroke-linecap="round" stroke-linejoin="round"><title>Metrorail</title></path><path d="M-17.2,216.1 L-22.7,222.3" fill="none" stroke="#3f494e" stroke-width="0.9" stroke-linecap="round"/><path d="M-10.4,222.2 L-15.9,228.4" fill="none" stroke="#3f494e" stroke-width="0.9" stroke-linecap="round"/><path d="M-3.6,228.2 L-9.1,234.4" fill="none" stroke="#3f494e" stroke-width="0.9" stroke-linecap="round"/><path d="M3.2,234.2 L-2.3,240.4" fill="none" stroke="#3f494e" stroke-width="0.9" stroke-linecap="round"/><path d="M10.0,240.3 L4.5,246.5" fill="none" stroke="#3f494e" stroke-width="0.9" stroke-linecap="round"/><path d="M22.0,250.7 L16.7,257.0" fill="none" stroke="#3f494e" stroke-width="0.9" stroke-linecap="round"/><path d="M29.0,256.5 L23.7,262.9" fill="none" stroke="#3f494e" stroke-width="0.9" stroke-linecap="round"/><path d="M36.0,262.4 L30.6,268.7" fill="none" stroke="#3f494e" stroke-width="0.9" stroke-linecap="round"/><path d="M42.9,268.2 L37.6,274.6" fill="none" stroke="#3f494e" stroke-width="0.9" stroke-linecap="round"/><path d="M-57.7,179.9 L-41.5,198.1 L-23.4,216.2 L15.9,250.9 L94.9,317.2" fill="none" stroke="#ffffff" stroke-width="3.1" stroke-linecap="round" stroke-linejoin="round"/><path d="M100.6,311.2 L21.6,245.2 L-17.4,209.5 L-35.1,191.9 L-51.6,173.9" fill="none" stroke="#fbf8ef" stroke-width="7.2" stroke-linecap="round" stroke-linejoin="round"/><path d="M100.6,311.2 L21.6,245.2 L-17.4,209.5 L-35.1,191.9 L-51.6,173.9" fill="none" stroke="#5a5796" stroke-width="5.0" stroke-linecap="round" stroke-linejoin="round"><title>Metrorail</title></path><path d="M52.6,276.4 L57.9,270.1" fill="none" stroke="#3f494e" stroke-width="0.9" stroke-linecap="round"/><path d="M45.6,270.6 L50.9,264.3" fill="none" stroke="#3f494e" stroke-width="0.9" stroke-linecap="round"/><path d="M38.6,264.8 L43.9,258.4" fill="none" stroke="#3f494e" stroke-width="0.9" stroke-linecap="round"/><path d="M31.6,258.9 L37.0,252.6" fill="none" stroke="#3f494e" stroke-width="0.9" stroke-linecap="round"/><path d="M24.7,253.1 L30.0,246.7" fill="none" stroke="#3f494e" stroke-width="0.9" stroke-linecap="round"/><path d="M15.5,245.2 L21.1,239.0" fill="none" stroke="#3f494e" stroke-width="0.9" stroke-linecap="round"/><path d="M8.8,239.0 L14.4,232.9" fill="none" stroke="#3f494e" stroke-width="0.9" stroke-linecap="round"/><path d="M2.1,232.9 L7.6,226.8" fill="none" stroke="#3f494e" stroke-width="0.9" stroke-linecap="round"/><path d="M-4.7,226.8 L0.9,220.6" fill="none" stroke="#3f494e" stroke-width="0.9" stroke-linecap="round"/><path d="M-11.4,220.6 L-5.8,214.5" fill="none" stroke="#3f494e" stroke-width="0.9" stroke-linecap="round"/><path d="M100.6,311.2 L21.6,245.2 L-17.4,209.5 L-35.1,191.9 L-51.6,173.9" fill="none" stroke="#ffffff" stroke-width="3.1" stroke-linecap="round" stroke-linejoin="round"/><text x="27.5" y="20.1" text-anchor="middle" font-family="Arial, sans-serif" font-size="6.5" textLength="18.0" lengthAdjust="spacing" font-weight="500" paint-order="stroke" stroke="#f3f5ee" stroke-width="1.55" stroke-linejoin="round" fill="#6f777a">1150</text><text x="191.9" y="30.0" text-anchor="middle" font-family="Arial, sans-serif" font-size="6.5" textLength="18.0" lengthAdjust="spacing" font-weight="500" paint-order="stroke" stroke="#f3f5ee" stroke-width="1.55" stroke-linejoin="round" fill="#6f777a">1120</text></svg>