<svg xmlns="http://www.w3.org/2000/svg" width="256" height="256" viewBox="0 0 256 256"><rect width="256" height="256" fill="#f1efe7"/><path d="M-102.5,-10.5 L-98.9,155.9 L178.4,149.9 L174.7,-16.6 L-102.5,-10.5 Z" fill="#eadfc8" stroke="#d7d1c5" stroke-width="0.3"><title>Riverside School</title></path><path d="M255.1,240.4 L226.5,241.1 L226.9,259.6 L255.5,259.0 L255.1,240.4 Z" fill="#d6d2c9" stroke="#bab6ad" stroke-width="0.4"></path><path d="M232.1,112.9 L232.4,149.4 L207.4,149.6 L207.2,113.1 L232.1,112.9 Z" fill="#d6d2c9" stroke="#bab6ad" stroke-width="0.4"></path><path d="M259.6,182.4 L218.1,183.1 L218.4,201.6 L259.9,200.9 L259.6,182.4 Z" fill="#d6d2c9" stroke="#bab6ad" stroke-width="0.4"></path><path d="M259.3,211.7 L218.4,212.4 L218.7,230.3 L259.6,229.6 L259.3,211.7 Z" fill="#d6d2c9" stroke="#bab6ad" stroke-width="0.4"></path><path d="M235.5,108.9 L207.7,109.4 L207.4,93.4 L259.9,92.5 L260.1,106.1 L235.5,106.5 L235.5,108.9 Z" fill="#d6d2c9" stroke="#bab6ad" stroke-width="0.4"></path><path d="M172.0,203.0 L120.9,205.5 L120.1,189.5 L171.2,187.0 L172.0,203.0 Z" fill="#d6d2c9" stroke="#bab6ad" stroke-width="0.4"></path><path d="M261.6,34.6 L261.6,48.6 L255.4,48.6 L255.4,45.2 L242.9,45.2 L242.8,50.6 L236.1,50.6 L236.1,34.6 L261.6,34.6 Z" fill="#d6d2c9" stroke="#bab6ad" stroke-width="0.4"></path><path d="M228.0,4.4 L209.6,5.1 L209.0,-11.4 L227.4,-12.0 L228.0,4.4 Z" fill="#d6d2c9" stroke="#bab6ad" stroke-width="0.4"></path><path d="M224.5,67.2 L224.6,71.0 L242.3,70.7 L242.4,81.4 L250.1,81.3 L250.2,90.4 L206.0,90.9 L205.7,67.5 L224.5,67.2 Z" fill="#d6d2c9" stroke="#bab6ad" stroke-width="0.4"></path><path d="M163.3,209.8 L163.4,235.1 L151.9,235.2 L151.9,229.2 L134.0,229.2 L134.0,219.7 L130.1,219.7 L130.1,212.7 L134.3,212.7 L134.3,209.9 L163.3,209.8 Z" fill="#d6d2c9" stroke="#bab6ad" stroke-width="0.4"></path><path d="M222.3,19.2 L222.3,22.2 L229.5,22.2 L229.6,35.8 L206.2,35.9 L206.0,19.2 L222.3,19.2 Z" fill="#d6d2c9" stroke="#bab6ad" stroke-width="0.4"></path><path d="M260.1,118.4 L259.5,147.4 L239.6,147.0 L240.2,118.0 L260.1,118.4 Z" fill="#d6d2c9" stroke="#bab6ad" stroke-width="0.4"></path><path d="M93.9,256.3 L72.7,256.8 L71.6,215.0 L92.8,214.4 L93.9,256.3 Z" fill="#d6d2c9" stroke="#bab6ad" stroke-width="0.4"></path><path d="M233.6,59.5 L210.5,59.8 L210.3,39.4 L233.4,39.1 L233.6,59.5 Z" fill="#d6d2c9" stroke="#bab6ad" stroke-width="0.4"></path><path d="M263.4,85.6 L251.4,85.9 L250.9,62.9 L262.8,62.6 L263.4,85.6 Z" fill="#d6d2c9" stroke="#bab6ad" stroke-width="0.4"></path><path d="M65.6,145.6 L65.2,154.9 L55.2,154.5 L55.5,145.2 L65.6,145.6 Z" fill="#d6d2c9" stroke="#bab6ad" stroke-width="0.4"></path><path d="M6.1,246.7 L-12.0,247.1 L-13.2,196.6 L5.0,196.2 L6.1,246.7 Z" fill="#d6d2c9" stroke="#bab6ad" stroke-width="0.4"></path><path d="M60.3,198.8 L62.2,245.0 L43.3,245.7 L42.7,231.3 L36.8,231.5 L37.4,246.0 L19.6,246.8 L17.8,202.1 L36.7,201.4 L37.4,220.3 L41.2,220.1 L40.4,199.6 L60.3,198.8 Z" fill="#d6d2c9" stroke="#bab6ad" stroke-width="0.4"></path><path d="M159.9,242.3 L159.9,243.6 L162.7,243.5 L162.8,247.8 L163.9,247.7 L164.0,254.2 L164.1,260.7 L130.5,261.5 L130.3,250.1 L129.2,250.1 L129.0,243.4 L159.9,242.3 Z" fill="#d6d2c9" stroke="#bab6ad" stroke-width="0.4"></path><path d="M105.5,234.9 L98.3,235.0 L98.3,225.5 L105.5,225.5 L105.5,234.9 Z" fill="#d6d2c9" stroke="#bab6ad" stroke-width="0.4"></path><path d="M117.0,223.2 L117.1,226.8 L125.3,226.5 L125.9,238.9 L110.3,239.4 L109.9,223.5 L117.0,223.2 Z" fill="#d6d2c9" stroke="#bab6ad" stroke-width="0.4"></path><path d="M106.3,248.8 L106.6,256.0 L111.3,255.8 L111.8,268.0 L99.5,268.5 L98.7,249.1 L106.3,248.8 Z" fill="#d6d2c9" stroke="#bab6ad" stroke-width="0.4"></path><path d="M247.6,-13.7 L248.0,-9.5 L250.6,-9.8 L251.8,4.3 L250.8,4.3 L252.0,15.1 L237.8,15.6 L237.7,12.0 L233.3,12.1 L232.7,-8.8 L235.1,-8.9 L235.0,-13.3 L247.6,-13.7 Z" fill="#d6d2c9" stroke="#bab6ad" stroke-width="0.4"></path><path d="M-91.6,189.1 L104.7,182.5 L176.0,180.1 L179.8,180.4 L181.4,181.7 L182.4,184.2 L182.7,189.1 L184.1,353.5" fill="none" stroke="#cf828d" stroke-width="1.5" stroke-dasharray="1.6 3.0" opacity="0.62" stroke-linecap="round" stroke-linejoin="round"></path><path d="M181.9,179.2 L181.4,167.1 L181.0,155.2" fill="none" stroke="#cf828d" stroke-width="1.5" stroke-dasharray="1.6 3.0" opacity="0.62" stroke-linecap="round" stroke-linejoin="round"></path><path d="M183.6,181.0 L194.0,180.6 L203.8,180.3" fill="none" stroke="#cf828d" stroke-width="1.5" stroke-dasharray="1.6 3.0" opacity="0.62" stroke-linecap="round" stroke-linejoin="round"></path><path d="M206.8,176.8 L206.6,166.2 L206.3,156.1" fill="none" stroke="#cf828d" stroke-width="1.5" stroke-dasharray="1.6 3.0" opacity="0.62" stroke-linecap="round" stroke-linejoin="round"></path><path d="M203.9,154.4 L193.2,154.8 L181.0,155.2" fill="none" stroke="#cf828d" stroke-width="1.5" stroke-dasharray="1.6 3.0" opacity="0.62" stroke-linecap="round" stroke-linejoin="round"></path><path d="M319.0,175.9 L241.2,178.2 L210.1,178.9 L207.0,180.5 L207.0,185.2 L213.7,351.9" fill="none" stroke="#cf828d" stroke-width="1.5" stroke-dasharray="1.6 3.0" opacity="0.62" stroke-linecap="round" stroke-linejoin="round"></path><path d="M181.9,179.2 L181.4,181.7 L183.6,181.0" fill="none" stroke="#cf828d" stroke-width="1.5" stroke-dasharray="1.6 3.0" opacity="0.62" stroke-linecap="round" stroke-linejoin="round"></path><path d="M206.8,176.8 L207.0,180.5 L203.8,180.3" fill="none" stroke="#cf828d" stroke-width="1.5" stroke-dasharray="1.6 3.0" opacity="0.62" stroke-linecap="round" stroke-linejoin="round"></path><path d="M177.0,-9.9 L177.0,-6.1 L177.8,32.4 L180.2,141.4 L179.1,147.1 L177.3,150.5 L175.1,152.6 L172.6,154.0 L168.4,155.2 L157.3,155.4 L-85.2,163.3" fill="none" stroke="#cf828d" stroke-width="1.5" stroke-dasharray="1.6 3.0" opacity="0.62" stroke-linecap="round" stroke-linejoin="round"></path><path d="M201.9,-20.6 L206.3,153.2" fill="none" stroke="#cf828d" stroke-width="1.5" stroke-dasharray="1.6 3.0" opacity="0.62" stroke-linecap="round" stroke-linejoin="round"></path><path d="M463.3,145.2 L206.3,153.2" fill="none" stroke="#cf828d" stroke-width="1.5" stroke-dasharray="1.6 3.0" opacity="0.62" stroke-linecap="round" stroke-linejoin="round"></path><path d="M203.9,154.4 L206.3,153.2 L206.3,156.1" fill="none" stroke="#cf828d" stroke-width="1.5" stroke-dasharray="1.6 3.0" opacity="0.62" stroke-linecap="round" stroke-linejoin="round"></path><path d="M177.3,150.5 L181.0,155.2" fill="none" stroke="#cf828d" stroke-width="1.5" stroke-dasharray="1.6 3.0" opacity="0.62" stroke-linecap="round" stroke-linejoin="round"></path><path d="M157.4,168.1 L157.3,155.4 L157.2,151.4 L155.6,37.7 L156.2,34.5 L166.9,32.9 L174.8,32.5 L177.8,32.4 L190.4,32.0" fill="none" stroke="#cec8bb" stroke-width="3.5" stroke-linecap="round" stroke-linejoin="round"/><path d="M157.4,168.1 L157.3,155.4 L157.2,151.4 L155.6,37.7 L156.2,34.5 L166.9,32.9 L174.8,32.5 L177.8,32.4 L190.4,32.0" fill="none" stroke="#ffffff" stroke-width="2.5" stroke-linecap="round" stroke-linejoin="round"></path><path d="M184.8,-217.5 L188.6,-45.1 L188.8,-31.8 L189.1,-19.3 L190.4,32.0 L193.2,154.8 L193.6,166.6 L194.0,180.6 L198.5,345.5" fill="none" stroke="#cec8bb" stroke-width="4.8" stroke-linecap="round" stroke-linejoin="round"/><path d="M184.8,-217.5 L188.6,-45.1 L188.8,-31.8 L189.1,-19.3 L190.4,32.0 L193.2,154.8 L193.6,166.6 L194.0,180.6 L198.5,345.5" fill="none" stroke="#ffffff" stroke-width="3.7" stroke-linecap="round" stroke-linejoin="round"><title>Southwest 11th Avenue</title></path><path d="M318.7,162.8 L212.9,166.2 L206.6,166.2 L193.6,166.6 L181.4,167.1 L175.1,167.4 L157.4,168.1 L-96.3,176.3" fill="none" stroke="#cec8bb" stroke-width="4.8" stroke-linecap="round" stroke-linejoin="round"/><path d="M318.7,162.8 L212.9,166.2 L206.6,166.2 L193.6,166.6 L181.4,167.1 L175.1,167.4 L157.4,168.1 L-96.3,176.3" fill="none" stroke="#ffffff" stroke-width="3.7" stroke-linecap="round" stroke-linejoin="round"><title>Southwest 3rd Street</title></path><g transform="translate(191.8 93.4) rotate(88.7)"><path d="M -3.6 -3.2 L 4.4 0 L -3.6 3.2 Z" fill="#58656d" opacity="0.46"/></g><text x="47.0" y="69.7" text-anchor="middle" font-family="Arial, sans-serif" font-size="8" font-weight="600" paint-order="stroke" stroke="#edf5ec" stroke-width="1.9" stroke-linejoin="round" fill="#5c806b" textLength="81.9" lengthAdjust="spacing">Riverside School</text><text x="191.8" y="93.4" transform="rotate(88.7 191.8 93.4)" text-anchor="middle" dominant-baseline="central" font-family="Arial, sans-serif" font-size="8.3" textLength="111.6" lengthAdjust="spacing" font-weight="650" paint-order="stroke" stroke="#fffaf0" stroke-width="2.05" stroke-linejoin="round" fill="#695f54">Southwest 11th Avenue</text><text x="86.7" y="170.4" transform="rotate(-1.8 86.7 170.4)" text-anchor="middle" dominant-baseline="central" font-family="Arial, sans-serif" font-size="8.3" textLength="106.2" lengthAdjust="spacing" font-weight="650" paint-order="stroke" stroke="#fffaf0" stroke-width="2.05" stroke-linejoin="round" fill="#695f54">Southwest 3rd Street</text><text x="146.1" y="196.2" text-anchor="middle" font-family="Arial, sans-serif" font-size="6.5" textLength="18.0" lengthAdjust="spacing" font-weight="500" paint-order="stroke" stroke="#f3f5ee" stroke-width="1.55" stroke-linejoin="round" fill="#6f777a">1100</text><text x="230.7" y="77.6" text-anchor="middle" font-family="Arial, sans-serif" font-size="6.5" textLength="18.0" lengthAdjust="spacing" font-weight="500" paint-order="stroke" stroke="#f3f5ee" stroke-width="1.55" stroke-linejoin="round" fill="#6f777a">227</text><text x="142.7" y="221.3" text-anchor="middle" font-family="Arial, sans-serif" font-size="6.5" textLength="18.0" lengthAdjust="spacing" font-weight="500" paint-order="stroke" stroke="#f3f5ee" stroke-width="1.55" stroke-linejoin="round" fill="#6f777a">308</text><text x="219.3" y="25.8" text-anchor="middle" font-family="Arial, sans-serif" font-size="6.5" textLength="18.0" lengthAdjust="spacing" font-weight="500" paint-order="stroke" stroke="#f3f5ee" stroke-width="1.55" stroke-linejoin="round" fill="#6f777a">219</text><text x="241.0" y="132.7" text-anchor="middle" font-family="Arial, sans-serif" font-size="6.5" textLength="18.0" lengthAdjust="spacing" font-weight="500" paint-order="stroke" stroke="#f3f5ee" stroke-width="1.55" stroke-linejoin="round" fill="#6f777a">1059</text><text x="82.7" y="235.6" text-anchor="middle" font-family="Arial, sans-serif" font-size="6.5" textLength="18.0" lengthAdjust="spacing" font-weight="500" paint-order="stroke" stroke="#f3f5ee" stroke-width="1.55" stroke-linejoin="round" fill="#6f777a">1126</text><text x="221.9" y="49.5" text-anchor="middle" font-family="Arial, sans-serif" font-size="6.5" textLength="18.0" lengthAdjust="spacing" font-weight="500" paint-order="stroke" stroke="#f3f5ee" stroke-width="1.55" stroke-linejoin="round" fill="#6f777a">221</text><text x="39.6" y="224.1" text-anchor="middle" font-family="Arial, sans-serif" font-size="6.5" textLength="18.0" lengthAdjust="spacing" font-weight="500" paint-order="stroke" stroke="#f3f5ee" stroke-width="1.55" stroke-linejoin="round" fill="#6f777a">1140</text><text x="150.6" y="246.0" text-anchor="middle" font-family="Arial, sans-serif" font-size="6.5" textLength="18.0" lengthAdjust="spacing" font-weight="500" paint-order="stroke" stroke="#f3f5ee" stroke-width="1.55" stroke-linejoin="round" fill="#6f777a">318</text><text x="220.0" y="120.2" text-anchor="middle" font-family="Arial, sans-serif" font-size="6.5" textLength="18.0" lengthAdjust="spacing" font-weight="500" paint-order="stroke" stroke="#f3f5ee" stroke-width="1.55" stroke-linejoin="round" fill="#6f777a">233</text><text x="232.2" y="225.5" text-anchor="middle" font-family="Arial, sans-serif" font-size="6.5" textLength="18.0" lengthAdjust="spacing" font-weight="500" paint-order="stroke" stroke="#f3f5ee" stroke-width="1.55" stroke-linejoin="round" fill="#6f777a">311</text><text x="237.5" y="246.0" text-anchor="middle" font-family="Arial, sans-serif" font-size="6.5" textLength="18.0" lengthAdjust="spacing" font-weight="500" paint-order="stroke" stroke="#f3f5ee" stroke-width="1.55" stroke-linejoin="round" fill="#6f777a">319</text><text x="240.2" y="188.3" text-anchor="middle" font-family="Arial, sans-serif" font-size="6.5" textLength="18.0" lengthAdjust="spacing" font-weight="500" paint-order="stroke" stroke="#f3f5ee" stroke-width="1.55" stroke-linejoin="round" fill="#6f777a">301</text><g opacity="0.56"><title>crossing</title><path d="M179.1,165.3 L183.7,165.3 M179.1,167.1 L183.7,167.1 M179.1,168.9 L183.7,168.9" stroke="#ffffff" stroke-width="2.1" stroke-linecap="round"/><path d="M179.1,165.3 L183.7,165.3 M179.1,167.1 L183.7,167.1 M179.1,168.9 L183.7,168.9" stroke="#59656a" stroke-width="0.85" stroke-linecap="round"/></g><g opacity="0.56"><title>crossing</title><path d="M191.7,178.8 L196.3,178.8 M191.7,180.6 L196.3,180.6 M191.7,182.4 L196.3,182.4" stroke="#ffffff" stroke-width="2.1" stroke-linecap="round"/><path d="M191.7,178.8 L196.3,178.8 M191.7,180.6 L196.3,180.6 M191.7,182.4 L196.3,182.4" stroke="#59656a" stroke-width="0.85" stroke-linecap="round"/></g><g opacity="0.56"><title>crossing</title><path d="M204.3,164.4 L208.8,164.4 M204.3,166.2 L208.8,166.2 M204.3,168.0 L208.8,168.0" stroke="#ffffff" stroke-width="2.1" stroke-linecap="round"/><path d="M204.3,164.4 L208.8,164.4 M204.3,166.2 L208.8,166.2 M204.3,168.0 L208.8,168.0" stroke="#59656a" stroke-width="0.85" stroke-linecap="round"/></g><g opacity="0.56"><title>crossing</title><path d="M190.9,153.0 L195.5,153.0 M190.9,154.8 L195.5,154.8 M190.9,156.6 L195.5,156.6" stroke="#ffffff" stroke-width="2.1" stroke-linecap="round"/><path d="M190.9,153.0 L195.5,153.0 M190.9,154.8 L195.5,154.8 M190.9,156.6 L195.5,156.6" stroke="#59656a" stroke-width="0.85" stroke-linecap="round"/></g></svg>