<svg xmlns="http://www.w3.org/2000/svg" width="256" height="256" viewBox="0 0 256 256"><rect width="256" height="256" fill="#f1efe7"/><path d="M-9477.4,4713.1 L-9370.0,4668.5 L-9336.4,4652.4 L-9186.1,4580.2 L-9157.9,4607.5 L-9155.4,4609.8 L-9102.8,4564.8 L-9090.2,4555.2 L-9069.3,4536.3 L-8951.2,4427.9 L-8855.9,4319.1 L-8852.3,4312.2 L-8848.8,4308.2 L-8843.2,4301.9 L-8837.6,4295.4 L-8835.3,4292.7 L-8872.9,4244.2 L-8823.2,4214.4 L-8796.2,4250.3 L-8758.1,4206.7 L-8790.4,4163.9 L-8750.4,4122.3 L-8719.7,4162.8 L-8684.3,4122.6 L-8669.3,4112.8 L-8595.7,4065.0 L-8559.3,4040.9 L-8515.5,4012.0 L-8494.8,3998.5 L-8442.4,3964.6 L-8455.9,3946.8 L-8480.1,3914.5 L-8417.6,3874.8 L-8394.8,3863.0 L-8393.1,3861.8 L-8381.1,3852.5 L-8338.3,3829.7 L-8335.3,3825.0 L-8323.3,3816.8 L-8316.8,3807.3 L-8315.0,3805.9 L-8304.6,3801.9 L-8280.9,3793.4 L-8264.8,3786.3 L-8207.7,3759.5 L-8207.0,3761.4 L-8159.2,3740.9 L-8139.7,3766.0 L-8096.1,3736.9 L-8089.9,3732.7 L-8089.3,3732.2 L-8088.7,3731.4 L-8087.8,3729.7 L-8087.2,3728.2 L-8087.0,3726.3 L-8087.0,3724.8 L-8087.2,3723.4 L-8087.4,3721.7 L-8087.5,3720.5 L-8087.4,3719.4 L-8087.1,3718.3 L-8086.3,3716.3 L-8085.8,3715.2 L-8084.6,3713.3 L-8083.2,3711.9 L-8076.9,3709.3 L-8071.6,3707.4 L-8064.8,3705.2 L-8061.7,3704.3 L-8056.1,3702.5 L-8052.1,3701.0 L-8046.7,3698.8 L-8039.3,3695.6 L-8031.3,3691.8 L-8027.0,3689.7 L-8021.6,3687.0 L-8016.6,3684.1 L-8011.5,3681.1 L-8006.4,3677.8 L-8004.8,3676.7 L-7994.4,3668.8 L-7985.7,3662.1 L-7977.2,3654.9 L-7969.2,3647.4 L-7963.5,3640.9 L-7957.8,3634.0 L-7950.8,3625.0 L-7944.4,3616.0 L-7937.1,3604.4 L-7932.3,3595.5 L-7929.3,3589.8 L-7924.8,3580.1 L-7921.1,3571.2 L-7917.7,3561.6 L-7915.0,3553.1 L-7912.1,3539.4 L-7909.9,3527.2 L-7908.7,3516.6 L-7907.8,3504.3 L-7907.6,3491.0 L-7908.5,3478.7 L-7910.6,3462.8 L-7912.7,3451.9 L-7915.3,3441.5 L-7918.9,3429.9 L-7922.1,3420.9 L-7925.7,3411.1 L-7929.1,3403.1 L-7931.4,3397.8 L-7932.4,3394.0 L-7932.5,3391.0 L-7932.2,3388.4 L-7931.1,3386.1 L-7929.5,3384.1 L-7927.4,3383.0 L-7925.2,3382.7 L-7919.1,3384.2 L-7902.3,3388.2 L-7896.7,3260.9 L-7874.8,3033.6 L-7898.6,3027.9 L-7901.2,3020.8 L-7901.1,3010.6 L-7897.8,2987.3 L-7893.3,2982.1 L-7889.3,2966.9 L-7864.1,2972.8 L-7850.1,2827.6 L-7846.3,2787.3 L-7854.1,2785.4 L-7849.4,2766.2 L-7865.6,2762.4 L-7863.5,2750.6 L-7860.7,2742.9 L-7857.1,2733.8 L-7851.1,2721.2 L-7844.7,2722.6 L-7835.9,2631.3 L-7833.9,2575.9 L-7833.5,2565.7 L-7828.8,2530.4 L-7819.4,2442.5 L-7757.0,2279.8 L-7742.8,2235.5 L-7569.5,2169.0 L-7552.5,2162.2 L-7549.6,2160.6 L-7547.2,2158.5 L-7544.7,2155.6 L-7542.8,2152.1 L-7541.5,2148.7 L-7541.1,2143.8 L-7541.4,2137.6 L-7543.7,2059.9 L-7544.6,2044.8 L-7544.8,2034.4 L-7545.1,2014.4 L-7545.5,2008.1 L-7546.3,2002.8 L-7547.4,1998.0 L-7548.9,1993.3 L-7551.3,1987.6 L-7554.9,1981.5 L-7558.5,1976.7 L-7561.2,1972.2 L-7563.9,1966.2 L-7566.2,1960.3 L-7567.1,1955.6 L-7567.8,1950.4 L-7568.1,1945.1 L-7568.0,1940.0 L-7567.4,1934.1 L-7566.0,1928.2 L-7564.1,1923.0 L-7562.2,1918.2 L-7559.7,1913.6 L-7556.7,1908.1 L-7554.6,1903.0 L-7552.9,1896.5 L-7549.7,1891.7 L-7550.8,1847.0 L-7552.4,1844.5 L-7553.0,1814.2 L-7553.8,1778.4 L-7553.2,1773.5 L-7551.6,1768.4 L-7547.6,1760.5 L-7520.9,1703.0 L-7520.3,1702.0 L-7515.6,1691.8 L-7511.1,1682.0 L-7506.2,1672.0 L-7501.2,1661.8 L-7498.8,1656.7 L-7472.6,1602.8 L-7444.5,1543.2 L-7383.6,1419.8 L-7420.2,1378.9 L-7450.0,1442.3 L-7475.8,1497.3 L-7479.7,1505.1 L-7487.6,1521.3 L-7503.5,1520.0 L-7507.9,1519.7 L-7509.4,1521.2 L-7507.3,1523.1 L-7515.5,1530.3 L-7521.9,1536.3 L-7523.1,1561.7 L-7525.5,1566.8 L-7533.3,1566.5 L-7534.6,1566.0 L-7636.8,1523.9 L-7639.0,1522.7 L-7641.4,1521.2 L-7645.0,1518.4 L-7647.9,1515.7 L-7650.3,1513.1 L-7652.6,1509.9 L-7654.4,1507.1 L-7655.8,1504.2 L-7657.0,1501.1 L-7657.7,1499.1 L-7658.2,1496.5 L-7658.7,1493.5 L-7659.1,1489.4 L-7659.1,1483.6 L-7659.8,1463.7 L-7657.0,1463.5 L-7657.4,1453.1 L-7657.8,1435.8 L-7655.2,1435.7 L-7655.4,1423.9 L-7658.3,1424.0 L-7659.7,1374.2 L-7656.9,1374.1 L-7657.4,1362.5 L-7660.1,1362.6 L-7661.2,1325.8 L-7647.7,1311.3 L-7630.5,1310.7 L-7617.6,1310.2 L-7600.7,1309.7 L-7584.4,1309.1 L-7569.7,1308.6 L-7563.4,1308.4 L-7563.7,1302.7 L-7563.8,1296.8 L-7564.8,1277.7 L-7565.1,1241.1 L-7565.6,1240.5 L-7565.7,1236.8 L-7564.6,1236.8 L-7567.2,1148.7 L-7569.4,1065.9 L-7569.8,1063.3 L-7570.0,1058.5 L-7606.1,1059.8 L-7630.1,1057.7 L-7809.7,1064.0 L-7809.7,1062.4 L-7810.1,1054.7 L-7895.3,1057.7 L-7895.5,1043.6 L-7906.7,1041.1 L-7908.7,980.5 L-7577.3,969.0 L-7571.8,961.4 L-7572.0,939.9 L-7572.4,921.4 L-7572.7,909.7 L-7573.2,898.4 L-7599.5,885.9 L-7600.6,858.4 L-7573.5,845.0 L-7576.0,781.3 L-7576.7,778.1 L-7603.5,765.6 L-7604.4,731.5 L-7578.9,718.3 L-7590.3,579.9 L-7587.2,518.2 L-7585.8,417.8 L-7585.9,308.6 L-7583.5,293.2 L-7583.3,285.9 L-7585.7,276.9 L-7583.2,276.9 L-7583.2,268.9 L-7581.7,63.4 L-7581.9,54.2 L-7584.8,54.3 L-7584.7,16.5 L-7586.4,14.1 L-7588.9,-24.9 L-7583.8,-60.5 L-7584.5,-103.7 L-7586.2,-114.0 L-7583.6,-146.0 L-7585.4,-184.6 L-7589.9,-226.0 L-7598.4,-293.0 L-7594.4,-311.4 L-7596.1,-329.4 L-7611.4,-342.5 L-7633.9,-342.2 L-7668.1,-337.7 L-7690.3,-337.7 L-7710.6,-345.2 L-7737.1,-363.4 L-7737.1,-396.0 L-7737.8,-436.2 L-7735.2,-469.6 L-7726.4,-495.7 L-7579.0,-498.4 L-7575.7,-707.4 L-7575.7,-1008.2 L-7577.2,-1117.4 L378.9,-4403.2 L378.9,13705.9 L-9477.4,13705.9 L-9477.4,4713.1 Z" fill="#add7e1" stroke="none"><title>Biscayne Bay</title></path><path d="M-1.0,-1.0 L257.0,-1.0 L257.0,257.0 L-1.0,257.0 L-1.0,-1.0 Z" fill="#add7e1" stroke="none" fill-rule="evenodd"><title>Biscayne Bay</title></path></svg>