<svg xmlns="http://www.w3.org/2000/svg" width="256" height="256" viewBox="0 0 256 256"><rect width="256" height="256" fill="#f1efe7"/><path d="M-1770.8,4631.5 L-2315.0,4229.8 L-2358.5,4197.8 L-2405.7,4187.5 L-2439.0,4159.5 L-2465.6,4156.4 L-2551.6,4162.1 L-2551.5,4154.0 L-2556.3,4146.4 L-2565.9,4140.5 L-2752.7,4059.6 L-2765.4,4053.8 L-2776.5,4050.6 L-2790.3,4049.5 L-2804.2,4049.2 L-2850.6,4049.2 L-2862.9,4048.5 L-2875.0,4046.1 L-2887.8,4041.1 L-2903.2,4037.0 L-2914.4,4036.0 L-2947.3,4034.6 L-2958.3,4032.6 L-2972.3,4028.1 L-2986.0,4024.6 L-2999.3,4021.5 L-3009.7,4017.3 L-3022.3,4009.5 L-3033.5,4001.1 L-3044.4,3992.9 L-3053.3,3988.7 L-3060.1,3987.3 L-3066.2,3987.7 L-3072.7,3989.5 L-3080.3,3993.4 L-3086.3,4000.0 L-3094.4,4007.9 L-3103.4,4016.2 L-3113.6,4021.8 L-3126.5,4026.0 L-3137.2,4028.6 L-3150.1,4030.6 L-3171.7,4033.1 L-3225.9,4035.7 L-3271.9,4038.0 L-3291.7,4045.1 L-3332.3,4046.5 L-3337.8,4038.0 L-3343.9,4034.1 L-3350.2,4032.9 L-3394.0,4035.4 L-3413.0,4042.2 L-3436.3,4042.4 L-3452.0,4040.1 L-3464.9,4036.2 L-3512.0,4039.0 L-3636.6,4048.7 L-3665.3,4049.5 L-3675.1,4049.3 L-3683.9,4047.1 L-3694.1,4042.0 L-3701.6,4036.0 L-3734.0,4036.1 L-3761.1,4035.7 L-3768.4,4040.2 L-3805.7,4041.1 L-3810.5,4049.0 L-3815.8,4049.2 L-3825.0,4047.0 L-3841.5,4045.0 L-3858.5,4045.9 L-3863.7,4047.5 L-3869.0,4046.6 L-3872.6,4043.1 L-3878.7,4039.6 L-3901.4,4039.7 L-3924.3,4040.9 L-3946.0,4053.7 L-3956.7,4058.8 L-3968.9,4061.5 L-3979.0,4062.2 L-3988.1,4060.8 L-4009.1,4051.8 L-4021.1,4048.0 L-4031.3,4046.5 L-4076.0,4047.1 L-4078.8,4041.7 L-4118.3,4042.6 L-4145.5,4047.6 L-4163.4,4049.7 L-4173.0,4051.8 L-4176.7,4049.3 L-4183.5,4048.4 L-4247.2,4042.6 L-4252.7,4045.6 L-4259.4,4047.0 L-4268.2,4047.1 L-4268.2,4043.9 L-4307.7,4036.5 L-4332.6,4031.7 L-4392.8,4011.5 L-4396.1,4016.0 L-4436.3,4003.6 L-4444.7,4000.8 L-4440.6,3986.8 L-4445.4,3985.3 L-4446.4,3983.8 L-4449.0,3983.0 L-4452.6,3982.5 L-4457.0,3980.3 L-4455.5,3979.0 L-4473.3,3964.5 L-4502.9,3937.7 L-4518.8,3923.7 L-4530.1,3911.4 L-4536.4,3903.1 L-4545.8,3890.3 L-4551.2,3880.4 L-4568.0,3859.3 L-4569.6,3858.1 L-4570.7,3858.0 L-4571.9,3858.2 L-4574.1,3858.3 L-4576.1,3857.3 L-4580.3,3854.6 L-4588.9,3850.1 L-4593.1,3846.5 L-4598.0,3842.2 L-4604.7,3838.6 L-4615.2,3835.3 L-4626.3,3833.3 L-4635.8,3833.1 L-4633.1,3807.9 L-4630.9,3775.0 L-4620.6,3776.0 L-4610.3,3777.8 L-4596.8,3781.8 L-4586.9,3785.5 L-4578.0,3789.6 L-4569.4,3793.6 L-4561.3,3798.2 L-4554.7,3803.3 L-4545.9,3810.1 L-4536.7,3817.0 L-4534.6,3818.3 L-4532.7,3818.7 L-4507.5,3817.6 L-4507.2,3823.3 L-4508.7,3825.8 L-4527.6,3827.6 L-4522.8,3837.4 L-4519.5,3836.2 L-4516.5,3839.2 L-4514.6,3842.1 L-4513.0,3844.3 L-4509.1,3849.5 L-4507.6,3855.2 L-4501.5,3863.6 L-4487.1,3872.7 L-4469.2,3881.8 L-4447.8,3895.3 L-4438.0,3899.9 L-4417.4,3911.6 L-4407.7,3916.7 L-4390.0,3923.2 L-4355.2,3932.5 L-4334.8,3937.4 L-4316.2,3939.3 L-4306.3,3940.6 L-4304.1,3940.4 L-4303.2,3939.1 L-4302.9,3932.5 L-4279.8,3932.5 L-4279.3,3939.9 L-4230.9,3942.4 L-4183.7,3943.8 L-4151.6,3942.6 L-4141.0,3941.8 L-4133.3,3940.8 L-4127.0,3939.0 L-4121.2,3935.5 L-4118.3,3930.8 L-4119.4,3853.3 L-4099.9,3852.2 L-4098.2,3927.8 L-4097.1,3929.7 L-4093.2,3932.4 L-4088.7,3933.7 L-3985.3,3933.9 L-3985.8,3900.6 L-3977.7,3900.4 L-3974.3,3933.9 L-3910.5,3933.3 L-3910.5,3929.7 L-3904.2,3929.6 L-3904.0,3932.2 L-3478.5,3924.1 L-3447.7,3920.5 L-3410.1,3919.4 L-3374.5,3924.1 L-3362.6,3923.1 L-3353.9,3921.4 L-3345.8,3918.5 L-3335.3,3914.5 L-3121.4,3910.7 L-3121.5,3895.9 L-3001.8,3893.8 L-3001.7,3910.1 L-2950.9,3911.9 L-2947.0,3911.8 L-2943.4,3911.5 L-2938.7,3910.9 L-2934.9,3909.9 L-2931.2,3908.7 L-2924.9,3905.7 L-2922.0,3910.7 L-2915.8,3906.8 L-2910.1,3902.2 L-2905.3,3897.2 L-2901.1,3891.3 L-2897.2,3884.0 L-2904.5,3879.9 L-2902.5,3873.8 L-2901.2,3867.5 L-2900.5,3861.5 L-2900.4,3856.8 L-2900.6,3852.4 L-2901.3,3814.5 L-2907.4,3808.9 L-2902.2,3803.4 L-2907.5,3798.8 L-2901.5,3791.7 L-2908.0,3786.0 L-2902.8,3780.5 L-2908.0,3775.5 L-2901.9,3769.0 L-2908.2,3762.6 L-2895.1,3748.2 L-2892.8,3748.1 L-2898.5,3533.6 L-2850.4,3532.5 L-2848.1,3533.7 L-2845.5,3535.7 L-2843.6,3537.4 L-2842.8,3539.4 L-2842.1,3541.8 L-2841.9,3544.2 L-2837.8,3877.5 L-2835.9,3888.3 L-2833.2,3895.6 L-2829.0,3904.6 L-2824.1,3913.4 L-2819.0,3920.4 L-2814.9,3924.7 L-2810.5,3928.1 L-2805.4,3931.1 L-2800.1,3933.1 L-2792.9,3935.2 L-2784.0,3936.9 L-2773.2,3938.9 L-2760.6,3941.2 L-2748.6,3943.8 L-2735.3,3946.2 L-2722.7,3948.9 L-2718.7,3949.7 L-2713.8,3950.7 L-2709.0,3951.3 L-2704.8,3951.4 L-2700.0,3951.4 L-2696.3,3951.2 L-2692.6,3950.5 L-2689.4,3949.7 L-2686.0,3948.7 L-2683.1,3947.4 L-2677.3,3944.6 L-2672.2,3941.6 L-2667.1,3937.9 L-2661.2,3932.2 L-2655.7,3926.0 L-2652.7,3920.7 L-2650.0,3914.2 L-2648.6,3908.9 L-2647.8,3903.2 L-2647.3,3897.8 L-2647.3,3892.8 L-2654.6,3535.6 L-2644.2,3524.9 L-2640.4,3524.5 L-2638.9,3523.1 L-2617.2,3522.5 L-2615.3,3519.3 L-2612.0,3520.2 L-2606.5,3525.3 L-2602.7,3530.6 L-2598.9,3537.2 L-2591.7,3936.4 L-2591.0,3943.4 L-2589.7,3957.3 L-2588.4,3960.1 L-2589.4,3960.8 L-2587.6,3964.7 L-2585.3,3969.3 L-2583.3,3972.2 L-2580.9,3975.7 L-2577.6,3979.5 L-2573.7,3983.5 L-2569.0,3987.5 L-2564.8,3990.6 L-2560.2,3993.1 L-2555.8,3995.3 L-2551.1,3996.8 L-2550.5,3995.4 L-2484.3,4019.4 L-2476.0,4022.5 L-2472.2,4023.9 L-2466.3,4026.0 L-2462.0,4027.0 L-2458.3,4027.5 L-2454.9,4027.5 L-2450.1,4027.1 L-2444.9,4026.6 L-2440.3,4025.6 L-2435.6,4024.3 L-2432.1,4022.9 L-2428.4,4021.2 L-2425.4,4019.3 L-2421.6,4016.5 L-2416.8,4012.3 L-2412.4,4008.0 L-2407.6,4002.0 L-2404.2,3996.4 L-2401.4,3990.2 L-2399.4,3983.3 L-2398.2,3976.3 L-2397.5,3963.8 L-2397.8,3938.3 L-2405.1,3532.2 L-2405.1,3527.7 L-2404.3,3524.5 L-2402.9,3521.9 L-2400.0,3519.5 L-2396.7,3517.8 L-2393.0,3517.2 L-2362.9,3516.2 L-2359.3,3516.8 L-2356.1,3518.2 L-2353.8,3520.4 L-2351.2,3524.2 L-2349.7,3529.6 L-2348.8,3536.9 L-2341.3,4057.8 L-2340.9,4060.9 L-2340.3,4064.0 L-2339.4,4067.2 L-2338.3,4070.7 L-2337.1,4074.2 L-2335.7,4077.4 L-2334.5,4080.1 L-2333.2,4082.5 L-2331.3,4085.5 L-2329.2,4088.1 L-2327.3,4090.5 L-2324.4,4093.6 L-2321.6,4096.3 L-2318.5,4098.8 L-2315.2,4101.3 L-2306.0,4107.1 L-2305.1,4106.0 L-2297.0,4110.5 L-2287.4,4115.7 L-2281.9,4118.7 L-2275.8,4122.3 L-2269.5,4126.0 L-2263.0,4130.0 L-2255.7,4134.5 L-2248.5,4139.0 L-2241.3,4143.3 L-2235.3,4147.0 L-2228.6,4151.3 L-2221.5,4155.9 L-2214.7,4160.4 L-2208.4,4164.7 L-2209.1,4165.6 L-2200.3,4171.7 L-2191.2,4177.8 L-2188.4,4179.5 L-2185.3,4181.2 L-2180.9,4183.3 L-2176.8,4184.8 L-2172.4,4186.0 L-2168.5,4187.0 L-2163.9,4187.7 L-2158.8,4188.3 L-2154.4,4188.3 L-2150.7,4188.0 L-2147.5,4187.3 L-2143.4,4186.2 L-2139.3,4184.9 L-2135.5,4183.6 L-2132.0,4181.9 L-2128.4,4180.0 L-2124.9,4177.8 L-2121.3,4175.0 L-2118.1,4172.1 L-2115.0,4169.0 L-2112.1,4165.8 L-2109.1,4161.4 L-2106.6,4157.0 L-2104.2,4152.1 L-2102.8,4148.3 L-2101.7,4144.3 L-2100.9,4140.0 L-2100.5,4135.7 L-2100.8,4130.8 L-2160.1,3563.1 L-2156.0,3562.7 L-2159.3,3534.3 L-2162.3,3534.5 L-2164.7,3521.4 L-2163.9,3518.7 L-2161.4,3514.7 L-2156.3,3510.8 L-2149.6,3510.0 L-2122.7,3509.1 L-2118.2,3510.0 L-2115.1,3511.5 L-2111.8,3514.1 L-2109.5,3516.5 L-2107.9,3519.0 L-2042.9,4155.9 L-2041.4,4161.4 L-2038.6,4168.2 L-2036.2,4172.6 L-2033.6,4177.3 L-2030.2,4181.9 L-2027.4,4185.1 L-2024.3,4188.3 L-2020.9,4191.0 L-2017.9,4193.1 L-2013.7,4195.8 L-2010.0,4197.7 L-2005.1,4199.8 L-2000.5,4201.2 L-1995.3,4202.3 L-1991.3,4202.9 L-1987.8,4203.0 L-1983.7,4203.1 L-1842.5,4200.2 L-1837.9,4199.6 L-1833.5,4197.5 L-1830.3,4194.6 L-1828.1,4190.2 L-1827.3,4186.2 L-1827.5,4182.2 L-1899.0,3500.1 L-1962.0,3417.9 L-1964.8,3420.2 L-2019.6,3343.7 L-2020.6,3327.5 L-2022.3,3324.1 L-2025.2,3321.0 L-2028.9,3315.8 L-2029.2,3308.2 L-2035.7,3305.7 L-2042.0,3305.6 L-2050.5,3309.8 L-2040.9,3327.8 L-2053.0,3333.6 L-2062.1,3325.2 L-2069.9,3320.4 L-2075.2,3318.6 L-2088.2,3318.1 L-2094.8,3304.7 L-2053.3,3287.7 L-2055.3,3284.3 L-2064.1,3272.5 L-2065.5,3273.2 L-2374.4,2868.7 L-2379.1,2802.0 L-2376.6,2801.4 L-2388.5,2679.1 L-2393.1,2667.8 L-2398.1,2655.1 L-2401.9,2645.3 L-2406.5,2632.8 L-2421.5,2590.7 L-2427.6,2593.4 L-2436.5,2559.3 L-2435.0,2559.0 L-2466.1,2474.7 L-2469.5,2327.3 L-2465.9,2327.3 L-2465.4,2314.4 L-2463.6,2301.7 L-2462.9,2297.0 L-2464.2,2293.2 L-2460.0,2273.1 L-2421.7,2205.3 L-2441.8,2193.1 L-2426.9,2168.4 L-2407.5,2179.8 L-2405.8,2177.2 L-2399.7,2180.3 L-2393.1,2182.9 L-2385.5,2185.3 L-2379.8,2186.5 L-2374.4,2186.7 L-2368.0,2185.6 L-2361.7,2183.5 L-2355.5,2181.1 L-2352.6,2178.0 L-2351.5,2173.9 L-2350.0,2169.0 L-2349.7,2167.0 L-2349.8,2164.5 L-2351.2,2160.6 L-2353.8,2156.9 L-2356.8,2154.8 L-2361.2,2150.6 L-2365.0,2146.6 L-2370.6,2143.0 L-2372.9,2137.3 L-2375.6,2131.6 L-2379.9,2124.9 L-2384.8,2119.1 L-2393.8,2112.7 L-2437.4,2090.1 L-2463.2,2077.3 L-2487.3,2064.3 L-2510.2,2051.6 L-2525.0,2042.0 L-2530.7,2040.5 L-2537.0,2042.4 L-2540.5,2046.7 L-2547.6,2064.4 L-2591.7,2044.6 L-2565.3,2002.9 L-2559.5,2000.2 L-2552.4,1998.8 L-2544.1,2000.6 L-2378.4,2097.5 L-2369.4,2100.2 L-2360.0,2102.5 L-2346.7,2102.8 L-2333.2,2100.4 L-2324.6,2096.9 L-2315.2,2089.3 L-2309.7,2084.0 L-2303.8,2075.7 L-2303.9,2074.6 L-2304.3,2073.6 L-2305.2,2072.8 L-2358.8,2039.7 L-2360.1,2039.3 L-2361.5,2039.2 L-2362.9,2039.3 L-2368.0,2041.5 L-2369.9,2041.7 L-2372.0,2041.5 L-2375.1,2041.0 L-2377.5,2040.3 L-2380.9,2038.6 L-2384.2,2036.7 L-2457.9,1991.7 L-2492.6,1967.3 L-2495.9,1966.8 L-2499.2,1966.9 L-2503.1,1967.0 L-2505.7,1966.6 L-2507.9,1965.6 L-2510.5,1963.6 L-2513.4,1961.3 L-2515.4,1958.5 L-2516.6,1955.7 L-2516.8,1953.6 L-2516.5,1950.9 L-2516.0,1948.6 L-2504.2,1928.8 L-2504.2,1927.9 L-2505.1,1927.2 L-2515.9,1919.6 L-2518.0,1916.5 L-2516.8,1914.6 L-2513.3,1915.1 L-2509.5,1916.2 L-2487.3,1929.9 L-2361.5,2010.2 L-2358.9,2011.7 L-2357.1,2013.6 L-2355.9,2015.8 L-2354.6,2020.4 L-2353.7,2024.0 L-2353.2,2027.1 L-2296.4,2061.2 L-2294.4,2062.1 L-2292.0,2062.3 L-2289.2,2061.9 L-2287.2,2061.2 L-2285.5,2060.4 L-2224.4,1961.5 L-2198.8,1923.9 L-2174.9,1897.0 L-2162.8,1903.7 L-2155.0,1891.1 L-2196.5,1866.3 L-2187.7,1851.9 L-2146.2,1876.9 L-2136.9,1861.7 L-2144.4,1853.3 L-2136.8,1844.6 L-2128.6,1854.0 L-2126.6,1852.5 L-2124.3,1850.9 L-2121.1,1849.1 L-2117.8,1847.5 L-2113.7,1846.0 L-2109.8,1844.9 L-2105.6,1844.2 L-2101.4,1843.9 L-2097.4,1844.0 L-2093.5,1844.6 L-2089.8,1845.5 L-2086.7,1846.4 L-2084.0,1847.6 L-2080.2,1849.4 L-2076.7,1851.6 L-2073.7,1853.7 L-2070.7,1856.4 L-2068.0,1859.0 L-2065.0,1862.9 L-2062.9,1866.4 L-2060.8,1870.9 L-2059.4,1875.4 L-2058.2,1881.6 L-2057.8,1887.0 L-2057.9,1890.1 L-2058.3,1893.3 L-2059.4,1898.1 L-2062.2,1904.7 L-2064.0,1909.0 L-2066.5,1914.1 L-2056.1,1919.3 L-2007.5,1861.3 L-2096.0,1807.5 L-2091.5,1797.9 L-2088.3,1789.0 L-2088.1,1785.2 L-2083.0,1774.3 L-2072.5,1764.6 L-2059.5,1754.0 L-2044.0,1744.1 L-2014.9,1735.6 L-1964.7,1730.6 L-1944.9,1714.6 L-1940.8,1713.9 L-1937.5,1713.7 L-1932.8,1715.5 L-1928.5,1716.0 L-1900.6,1732.9 L-1827.2,1645.8 L-2096.2,1474.8 L-2112.9,1501.1 L-2149.2,1478.1 L-2097.7,1397.1 L-2061.5,1419.5 L-2077.6,1447.1 L-1803.9,1619.6 L-1769.4,1575.3 L-1745.0,1546.3 L-1712.8,1497.9 L-1695.0,1473.5 L-1696.8,1459.6 L-1696.3,1459.2 L-1699.5,1448.9 L-1701.6,1442.5 L-1703.6,1435.9 L-1706.0,1430.2 L-1710.6,1422.7 L-1715.2,1415.4 L-1717.2,1411.6 L-1718.7,1407.8 L-1719.8,1404.3 L-1720.2,1401.2 L-1720.7,1391.0 L-1838.9,1282.5 L-1842.8,1286.7 L-1846.1,1283.9 L-1855.7,1293.4 L-1862.0,1285.0 L-1854.4,1276.2 L-1862.0,1266.5 L-1867.2,1267.9 L-1872.6,1268.1 L-1877.5,1267.2 L-1881.8,1265.4 L-1886.8,1261.7 L-1893.0,1255.6 L-1903.9,1243.6 L-1907.2,1238.5 L-1908.4,1232.1 L-1907.6,1224.5 L-1904.7,1217.5 L-1902.2,1212.7 L-1897.4,1207.9 L-1892.1,1204.3 L-1887.0,1202.4 L-1883.2,1201.8 L-1878.2,1202.7 L-1873.1,1204.5 L-1868.3,1208.3 L-1857.2,1218.3 L-1851.5,1223.7 L-1846.3,1229.4 L-1844.6,1232.1 L-1843.4,1235.0 L-1842.7,1237.6 L-1842.2,1241.2 L-1842.8,1244.6 L-1843.8,1247.8 L-1845.2,1250.2 L-1845.6,1251.3 L-1845.3,1252.7 L-1844.5,1254.1 L-1717.6,1373.0 L-1713.2,1376.0 L-1710.1,1377.3 L-1705.7,1376.3 L-1700.5,1375.9 L-1693.9,1378.7 L-1687.3,1382.8 L-1674.4,1390.1 L-1669.0,1392.7 L-1664.1,1387.9 L-1658.7,1382.7 L-1655.1,1378.6 L-1649.1,1370.8 L-1645.7,1366.1 L-1642.1,1360.3 L-1639.8,1355.2 L-1637.3,1349.8 L-1635.0,1344.1 L-1632.9,1338.3 L-1631.7,1333.4 L-1630.3,1327.2 L-1629.7,1323.5 L-1629.3,1320.5 L-1628.6,1315.2 L-1627.9,1310.0 L-1627.6,1306.6 L-1627.4,1302.9 L-1627.4,1298.6 L-1627.6,1295.0 L-1628.3,1290.0 L-1629.1,1284.3 L-1629.9,1279.0 L-1630.4,1274.7 L-1631.0,1271.5 L-1631.7,1268.1 L-1632.5,1264.7 L-1633.7,1260.7 L-1635.1,1256.7 L-1636.2,1254.3 L-1637.4,1251.9 L-1639.1,1249.6 L-1641.4,1246.3 L-1643.9,1243.2 L-1646.6,1240.6 L-1650.0,1237.8 L-1653.5,1235.6 L-1657.0,1233.7 L-1660.2,1232.5 L-1662.4,1231.8 L-1664.9,1231.5 L-1667.9,1231.6 L-1670.7,1232.2 L-1672.9,1233.1 L-1675.0,1234.6 L-1676.5,1236.2 L-1677.7,1237.7 L-1678.6,1240.0 L-1679.1,1242.5 L-1679.0,1245.5 L-1678.8,1249.0 L-1678.8,1251.6 L-1679.0,1254.2 L-1679.4,1256.8 L-1679.9,1259.1 L-1680.8,1261.5 L-1682.2,1264.1 L-1683.9,1266.6 L-1685.6,1268.9 L-1687.3,1270.5 L-1690.7,1273.2 L-1693.5,1275.1 L-1697.9,1276.4 L-1700.5,1277.0 L-1703.5,1277.4 L-1706.2,1277.5 L-1709.8,1277.3 L-1712.4,1276.8 L-1716.0,1276.0 L-1721.0,1274.5 L-1725.2,1272.9 L-1728.3,1271.7 L-1731.6,1269.9 L-1734.5,1267.9 L-1737.7,1265.4 L-1740.2,1263.1 L-1742.3,1261.0 L-1744.5,1258.4 L-1746.3,1256.0 L-1748.0,1253.6 L-1749.5,1250.9 L-1751.1,1247.3 L-1752.5,1244.0 L-1753.9,1240.4 L-1754.8,1237.6 L-1755.5,1235.0 L-1756.0,1232.3 L-1756.4,1228.1 L-1756.7,1224.4 L-1756.5,1220.4 L-1755.6,1215.1 L-1754.1,1209.9 L-1752.2,1204.5 L-1750.9,1202.0 L-1749.6,1200.5 L-1739.3,1187.4 L-1736.9,1184.7 L-1733.8,1183.2 L-1730.5,1182.0 L-1726.8,1181.2 L-1722.7,1180.7 L-1719.1,1180.5 L-1715.5,1180.6 L-1711.9,1181.0 L-1707.8,1182.2 L-1703.5,1184.3 L-1699.8,1186.6 L-1696.5,1189.2 L-1686.1,1198.8 L-1683.6,1199.6 L-1682.2,1199.9 L-1680.5,1199.5 L-1679.4,1199.1 L-1678.0,1197.5 L-1677.4,1195.9 L-1677.3,1193.7 L-1677.2,1191.7 L-1677.6,1190.8 L-1698.6,1170.0 L-1670.0,1139.5 L-1671.6,1135.9 L-1655.1,1119.6 L-1623.3,1151.4 L-1648.9,1184.0 L-1649.1,1185.9 L-1647.8,1186.7 L-1646.2,1186.3 L-1618.1,1151.1 L-1609.9,1141.2 L-1609.6,1138.9 L-1610.3,1136.9 L-1611.8,1135.1 L-1633.8,1114.3 L-1628.3,1107.9 L-1633.9,1103.2 L-1630.7,1095.8 L-1573.7,1038.5 L-1554.1,1035.2 L-1548.0,1034.3 L-1542.2,1033.5 L-1539.5,1032.8 L-1536.3,1031.1 L-1532.5,1029.0 L-1529.6,1026.1 L-1526.8,1022.6 L-1497.7,980.3 L-1497.1,979.2 L-1497.4,977.8 L-1497.8,976.8 L-1498.5,975.9 L-1502.0,973.7 L-1502.9,973.2 L-1503.7,973.3 L-1504.6,973.8 L-1506.5,975.2 L-1530.9,998.0 L-1540.4,1004.8 L-1579.4,964.8 L-1574.9,950.6 L-1573.0,946.4 L-1566.9,935.2 L-1559.8,922.7 L-1555.5,917.9 L-1547.8,909.7 L-1539.6,900.7 L-1530.6,891.2 L-1522.9,884.6 L-1519.2,881.3 L-1514.3,877.7 L-1509.8,875.3 L-1503.4,872.4 L-1499.4,871.0 L-1495.4,869.8 L-1492.3,869.5 L-1487.9,869.8 L-1484.2,870.3 L-1480.0,871.5 L-1475.9,874.9 L-1473.4,878.4 L-1471.9,882.0 L-1471.3,887.4 L-1471.5,894.5 L-1472.4,902.5 L-1474.1,910.2 L-1484.4,933.2 L-1494.2,953.9 L-1490.8,959.4 L-1489.0,960.5 L-1487.1,960.5 L-1485.4,960.1 L-1484.1,959.3 L-1477.4,949.8 L-1468.8,945.5 L-1451.7,899.8 L-1450.5,897.5 L-1448.8,895.5 L-1447.1,894.6 L-1445.5,894.2 L-1443.2,894.2 L-1440.8,894.8 L-1428.3,898.3 L-1425.9,898.8 L-1423.1,898.9 L-1420.5,898.5 L-1418.4,897.6 L-1416.6,896.2 L-1414.8,893.9 L-1393.8,865.8 L-1392.8,863.7 L-1392.3,861.5 L-1392.3,859.4 L-1392.7,857.2 L-1393.5,855.6 L-1394.7,854.0 L-1396.1,852.7 L-1398.1,851.7 L-1400.0,851.2 L-1401.9,851.1 L-1403.5,851.4 L-1405.4,852.3 L-1406.8,853.3 L-1407.9,854.7 L-1413.4,863.6 L-1414.6,865.3 L-1416.0,866.9 L-1418.1,868.7 L-1420.0,869.8 L-1422.3,870.5 L-1425.1,871.1 L-1426.7,871.1 L-1428.9,870.8 L-1430.8,870.3 L-1432.4,869.6 L-1449.6,854.0 L-1451.6,851.6 L-1453.1,849.4 L-1454.5,846.7 L-1455.4,844.4 L-1456.0,842.0 L-1456.5,839.4 L-1456.8,836.2 L-1456.9,833.0 L-1456.6,830.3 L-1456.2,828.0 L-1455.7,826.0 L-1454.9,824.3 L-1423.6,774.6 L-1421.6,771.3 L-1420.4,769.6 L-1419.0,768.8 L-1416.7,767.8 L-1414.3,767.1 L-1412.0,766.7 L-1410.7,766.7 L-1409.4,766.9 L-1408.3,767.3 L-1406.7,768.1 L-1404.8,769.3 L-1401.6,771.9 L-1387.3,785.3 L-1384.9,788.7 L-1383.5,792.0 L-1382.2,795.9 L-1381.8,798.9 L-1381.6,802.1 L-1381.6,804.8 L-1381.9,807.5 L-1382.4,810.2 L-1383.0,812.0 L-1384.6,815.7 L-1390.3,826.3 L-1390.9,828.7 L-1390.9,831.6 L-1390.7,833.8 L-1389.9,835.5 L-1388.4,837.1 L-1386.0,838.8 L-1384.0,839.9 L-1381.7,840.4 L-1379.0,840.3 L-1376.8,839.8 L-1374.3,838.5 L-1372.1,836.5 L-1335.1,785.7 L-1346.4,775.5 L-1339.6,768.2 L-1329.5,777.9 L-1308.7,750.6 L-1277.2,708.5 L-1404.0,587.0 L-1431.5,615.9 L-1463.8,585.4 L-1432.6,551.8 L-1436.7,547.3 L-1430.2,541.3 L-1426.2,545.4 L-1404.5,521.8 L-1385.0,539.9 L-1382.7,554.9 L-1300.7,631.4 L-1284.7,637.6 L-1271.9,633.1 L-1247.6,642.8 L-1231.5,636.9 L-1183.6,578.4 L-1180.9,572.9 L-1180.1,565.5 L-1182.5,558.2 L-1185.7,553.0 L-1214.1,526.8 L-1213.7,519.6 L-1208.1,505.5 L-1196.9,484.6 L-1219.0,470.3 L-1210.6,467.1 L-1205.3,463.7 L-1200.0,457.7 L-1193.8,441.8 L-1182.4,412.8 L-1175.0,406.0 L-1245.2,338.0 L-1260.6,347.6 L-1264.2,348.5 L-1267.6,348.6 L-1272.0,348.1 L-1275.6,347.1 L-1279.1,345.0 L-1282.0,342.5 L-1318.3,307.5 L-1325.1,300.7 L-1328.1,297.1 L-1330.6,292.6 L-1331.8,288.5 L-1332.3,284.5 L-1332.2,280.7 L-1331.5,277.1 L-1330.6,274.2 L-1329.4,272.1 L-1326.8,268.4 L-1323.7,264.7 L-1307.4,247.8 L-1183.4,362.7 L-1191.9,372.3 L-1100.0,459.2 L-994.1,304.1 L-1061.3,241.3 L-1069.9,249.0 L-1195.4,130.5 L-1179.0,115.2 L-1106.9,182.8 L-1099.7,172.2 L-1095.7,166.9 L-1090.6,161.7 L-1084.7,155.2 L-1078.7,151.3 L-1069.2,143.3 L-1059.7,134.5 L-1041.5,117.3 L-998.0,68.4 L-990.2,60.3 L-961.5,45.6 L-934.3,24.3 L-931.7,22.3 L-924.6,16.8 L-921.5,14.0 L-919.0,10.8 L-917.3,7.5 L-916.2,4.2 L-914.9,1.7 L-913.4,-1.0 L-910.8,-5.3 L-909.0,-8.0 L-907.2,-10.5 L-903.9,-13.1 L-900.7,-15.3 L-897.2,-17.4 L-888.9,-21.4 L-880.9,-25.4 L-879.7,-25.6 L-878.5,-25.4 L-876.1,-24.7 L-869.6,-21.4 L-864.7,-19.0 L-862.4,-17.6 L-860.3,-15.9 L-826.9,15.8 L-824.6,17.1 L-813.7,20.0 L-810.2,21.0 L-806.3,21.4 L-803.3,21.3 L-801.0,20.5 L-798.7,18.9 L-786.8,2.1 L-786.8,-0.2 L-787.2,-2.3 L-788.5,-4.6 L-790.5,-6.8 L-799.6,-15.3 L-798.9,-16.7 L-787.2,-41.5 L-767.2,-81.8 L-749.0,-95.2 L-738.5,-105.7 L-731.3,-114.0 L-723.7,-121.7 L-715.3,-128.6 L-710.2,-133.3 L-704.8,-138.2 L-700.8,-142.2 L-698.8,-145.8 L-697.2,-148.6 L-696.2,-151.3 L-695.8,-154.5 L-695.6,-157.7 L-689.5,-163.9 L-680.5,-172.4 L-665.5,-184.7 L-649.8,-196.6 L-642.8,-206.4 L-640.2,-216.5 L-632.4,-221.3 L-622.6,-221.5 L-612.7,-227.4 L-604.0,-243.1 L-604.2,-259.4 L-602.6,-284.6 L-600.1,-288.2 L-598.6,-290.6 L-595.8,-295.2 L-599.3,-305.9 L-595.3,-310.9 L-575.5,-335.4 L-541.5,-375.1 L-535.0,-384.5 L-532.4,-389.4 L-521.6,-404.3 L-518.6,-413.7 L-518.5,-428.2 L-518.9,-442.7 L-519.0,-457.5 L-514.6,-473.8 L-507.2,-489.9 L-496.6,-505.4 L-488.9,-516.9 L-479.8,-528.4 L-462.2,-548.0 L-384.2,-586.6 L-373.9,-589.3 L-371.3,-583.7 L-368.2,-578.3 L-367.2,-577.3 L-365.5,-578.0 L-365.2,-581.8 L-366.4,-585.0 L-362.1,-586.3 L-346.1,-591.0 L-325.3,-597.2 L-308.5,-602.2 L-302.5,-604.0 L-308.5,-622.9 L-298.1,-625.7 L-280.8,-628.1 L-278.7,-628.4 L-278.6,-629.6 L-278.6,-634.0 L-262.9,-634.7 L-238.3,-635.7 L-228.8,-631.1 L-205.1,-545.7 L-199.8,-540.6 L-210.1,-530.0 L-201.0,-521.0 L-192.0,-512.0 L-181.2,-523.0 L19.3,-332.4 L286.9,-618.0 L380.4,-528.6 L384.0,-529.7 L385.4,-528.1 L391.7,-532.1 L396.9,-534.0 L402.4,-536.5 L411.8,-541.4 L417.6,-544.7 L424.5,-548.7 L430.9,-552.7 L436.1,-556.1 L440.9,-559.2 L446.5,-563.3 L452.9,-568.0 L457.8,-572.1 L463.0,-576.7 L468.7,-582.1 L474.1,-587.5 L486.7,-600.9 L494.3,-610.0 L501.7,-619.9 L506.8,-627.1 L511.6,-634.5 L517.3,-644.8 L522.3,-654.9 L526.3,-663.2 L529.7,-671.5 L531.8,-677.0 L534.1,-683.2 L539.5,-689.9 L368.5,-852.6 L370.6,-854.9 L391.1,-876.9 L406.0,-892.7 L407.5,-894.3 L450.9,-853.7 L461.4,-859.1 L462.6,-857.6 L564.6,-910.7 L568.8,-912.9 L571.7,-915.2 L574.4,-917.7 L577.5,-920.9 L580.5,-925.4 L583.1,-929.6 L584.8,-932.8 L586.0,-936.9 L587.1,-941.4 L587.6,-946.3 L587.6,-951.8 L587.2,-956.2 L586.4,-960.1 L585.1,-964.8 L553.2,-1056.6 L548.9,-1071.7 L550.0,-1076.9 L473.0,-1096.0 L476.6,-1109.3 L479.6,-1121.3 L502.4,-1211.5 L484.7,-1264.1 L474.3,-1298.1 L471.3,-1306.6 L498.9,-1331.9 L530.0,-1348.6 L531.9,-1346.0 L534.9,-1341.7 L541.9,-1332.6 L542.7,-1333.4 L542.9,-1336.5 L533.2,-1349.9 L550.5,-1362.3 L554.3,-1364.5 L563.3,-1352.8 L564.8,-1351.7 L566.3,-1351.4 L567.1,-1351.6 L567.1,-1352.4 L524.3,-1411.0 L521.2,-1414.4 L517.6,-1419.3 L499.0,-1441.8 L514.9,-1491.1 L527.1,-1503.8 L541.2,-1510.4 L571.2,-1528.2 L577.4,-1534.6 L604.3,-1558.2 L612.8,-1549.3 L637.7,-1522.4 L660.8,-1541.8 L676.3,-1526.9 L690.2,-1513.3 L690.9,-1512.6 L702.7,-1522.7 L718.3,-1506.1 L731.7,-1488.9 L741.6,-1477.4 L742.9,-1475.9 L771.7,-1501.2 L773.2,-1502.5 L766.4,-1510.8 L782.1,-1523.7 L829.7,-1468.2 L870.2,-1494.9 L874.2,-1498.7 L891.8,-1506.1 L895.8,-1510.0 L899.6,-1515.0 L921.3,-1534.3 L916.4,-1541.0 L877.6,-1532.1 L833.2,-1582.6 L838.3,-1587.0 L845.0,-1579.2 L876.4,-1606.2 L909.7,-1569.8 L918.7,-1566.2 L924.1,-1563.1 L930.9,-1555.4 L934.6,-1558.7 L910.5,-1586.1 L925.3,-1598.9 L955.2,-1563.0 L959.0,-1565.8 L958.6,-1566.6 L1024.2,-1614.0 L1043.7,-1628.4 L980.0,-1708.0 L993.6,-1717.5 L1049.0,-1652.6 L1089.9,-1645.1 L1116.9,-1660.9 L1120.7,-1663.3 L1120.5,-1666.3 L1118.6,-1669.8 L1139.7,-1683.1 L1145.9,-1676.9 L1163.7,-1687.4 L1150.8,-1703.4 L1088.5,-1786.7 L1132.5,-1832.3 L1161.4,-1875.0 L1162.1,-1908.4 L1146.7,-1952.8 L1179.1,-1979.8 L1213.1,-1992.9 L1224.3,-1995.5 L1233.3,-1996.7 L1244.3,-1996.0 L1255.7,-1993.2 L1272.2,-1979.1 L1315.0,-1926.9 L1349.2,-1883.5 L1390.1,-1856.2 L1406.2,-1853.6 L1420.6,-1851.9 L1432.8,-1851.4 L1448.4,-1852.5 L1465.3,-1855.3 L1479.0,-1859.2 L1490.6,-1864.6 L1498.3,-1869.1 L1504.0,-1875.1 L1513.6,-1886.7 L1524.0,-1905.7 L1535.3,-1930.9 L1555.4,-1920.6 L1563.4,-1917.9 L1572.0,-1916.7 L1585.7,-1917.6 L1594.8,-1920.3 L1605.2,-1924.8 L1614.9,-1930.4 L1625.2,-1940.4 L1634.0,-1948.4 L1645.0,-1955.9 L1652.6,-1960.8 L1663.8,-1964.8 L1683.1,-1970.4 L1694.5,-1973.6 L1706.7,-1978.2 L1717.3,-1983.7 L1723.6,-1987.3 L1728.6,-1992.5 L1794.0,-2025.3 L1796.5,-2026.7 L1799.4,-2028.5 L1802.4,-2030.8 L1806.8,-2033.3 L1809.7,-2034.7 L1812.8,-2037.4 L1815.2,-2039.9 L1818.4,-2042.0 L1821.8,-2044.4 L1826.3,-2048.6 L1832.7,-2049.1 L1839.3,-2049.9 L1843.6,-2051.3 L1849.2,-2053.9 L1856.1,-2057.0 L1863.4,-2061.5 L1867.5,-2065.4 L1872.1,-2070.7 L1875.0,-2075.6 L1876.6,-2080.1 L1876.7,-2083.3 L1876.8,-2085.9 L1878.4,-2096.3 L1914.8,-2117.4 L1978.6,-2154.2 L1991.0,-2161.3 L2099.2,-2223.7 L2216.4,-2291.0 L2266.3,-2319.6 L2283.6,-2329.3 L2428.5,-2413.5 L2460.7,-2431.2 L2460.2,-2432.3 L2526.5,-2469.8 L2552.0,-2484.1 L2599.0,-2510.1 L2599.5,-2509.4 L2617.7,-2519.4 L2661.9,-2544.1 L2667.2,-2548.9 L2712.0,-2581.7 L2734.3,-2600.2 L2754.8,-2617.5 L2764.2,-2622.8 L2785.4,-2643.8 L2787.2,-2642.7 L2790.0,-2643.0 L2791.4,-2642.1 L2821.2,-2677.0 L2813.7,-2684.0 L2814.7,-2685.8 L2817.9,-2690.4 L2826.5,-2701.3 L2831.7,-2709.2 L2835.8,-2715.7 L2841.5,-2724.4 L2847.0,-2733.4 L2853.2,-2743.7 L2859.6,-2754.9 L2873.5,-2783.6 L2877.8,-2792.7 L2881.3,-2800.0 L2883.7,-2805.5 L2885.8,-2809.7 L2890.2,-2820.7 L2774.4,-3036.7 L2772.2,-3040.8 L2770.5,-3043.1 L2769.3,-3044.8 L2767.7,-3046.2 L2766.2,-3047.2 L2764.2,-3048.4 L2762.1,-3049.2 L2760.3,-3049.6 L2758.5,-3049.8 L2755.8,-3049.8 L2752.7,-3049.3 L2750.0,-3048.5 L2747.2,-3047.1 L2720.3,-3031.6 L2685.2,-3011.5 L2660.7,-2997.9 L2616.0,-2973.3 L2588.6,-2958.4 L2589.6,-2956.7 L2577.9,-2950.0 L2539.6,-2930.2 L2511.2,-2913.4 L2494.5,-2904.1 L2469.1,-2889.5 L2466.2,-2887.5 L2443.9,-2927.6 L2487.7,-2951.6 L2547.5,-2984.1 L2588.2,-3006.7 L2593.2,-3009.6 L2592.5,-3010.7 L2627.7,-3029.9 L2646.4,-3040.2 L2689.3,-3061.1 L2697.5,-3065.3 L2762.2,-3101.3 L2786.5,-3114.7 L2803.6,-3123.9 L2823.8,-3135.5 L2851.8,-3084.9 L2807.8,-3060.8 L2805.5,-3057.1 L2804.6,-3053.2 L2804.2,-3050.2 L2804.1,-3047.6 L2804.3,-3045.5 L2805.1,-3042.6 L2894.8,-2876.7 L2896.5,-2874.2 L2898.5,-2872.3 L2900.5,-2871.0 L2902.6,-2870.3 L2904.9,-2870.0 L2907.1,-2870.2 L2908.8,-2870.7 L2948.6,-2900.9 L2967.3,-2916.6 L2986.6,-2932.9 L2993.9,-2939.6 L3017.8,-2959.2 L3018.9,-2959.2 L3042.1,-2979.0 L3042.2,-2980.2 L3057.4,-2992.7 L3069.4,-3002.5 L3090.0,-3019.5 L3091.9,-3017.2 L3112.1,-3033.9 L3122.3,-3042.4 L3150.6,-3065.9 L3170.3,-3082.3 L3168.4,-3085.1 L3174.9,-3090.6 L3185.6,-3099.4 L3192.2,-3105.2 L3220.1,-3117.7 L3239.0,-3124.3 L3248.7,-3128.9 L3275.9,-3129.1 L3285.4,-3129.1 L3305.5,-3128.1 L3329.0,-3127.1 L3330.7,-3128.7 L3333.0,-3125.7 L3340.4,-3125.3 L3407.7,-3119.5 L3415.6,-3117.8 L3422.5,-3116.7 L3438.1,-3115.4 L3467.2,-3114.0 L3473.6,-3113.9 L3479.6,-3114.1 L3502.9,-3115.0 L3514.9,-3115.6 L3526.8,-3116.7 L3545.1,-3118.6 L3545.0,-3117.5 L3559.5,-3120.0 L3573.2,-3122.6 L3583.7,-3124.5 L3597.5,-3134.9 L3599.1,-3132.7 L3600.8,-3130.3 L3722.4,-2969.5 L4015.9,-2868.3 L4554.5,-3263.9 L4701.3,-3369.6 L4758.0,-3490.6 L4667.8,-3608.8 L4671.8,-3625.7 L4687.6,-3630.0 L4718.0,-3623.7 L4739.6,-3631.8 L4745.6,-3640.2 L4744.3,-3647.5 L4728.2,-3679.1 L4727.1,-3690.9 L4726.2,-3714.3 L4723.4,-3736.9 L4726.2,-3740.9 L4735.3,-3745.3 L4746.4,-3747.8 L4754.4,-3756.4 L4756.2,-3766.8 L4749.4,-3786.9 L4748.7,-3800.8 L4750.9,-3816.6 L4761.9,-3844.3 L4759.6,-3857.1 L4754.1,-3871.4 L4753.9,-3890.8 L4750.7,-3916.4 L4744.9,-3932.4 L4741.3,-3940.8 L4743.7,-3944.5 L4746.0,-3944.3 L4746.6,-3945.8 L4746.9,-3947.8 L4746.8,-3949.8 L4743.3,-3950.2 L4741.1,-3953.3 L4741.5,-3957.0 L4738.5,-3957.8 L4734.8,-3957.9 L4734.3,-3957.0 L4726.7,-3966.0 L4725.1,-3968.8 L4723.8,-3972.7 L4722.9,-3976.5 L4722.2,-3980.5 L4721.9,-3984.5 L4721.7,-3988.1 L4721.7,-3991.8 L4722.0,-3993.8 L4723.6,-3998.8 L4725.4,-4002.8 L4727.7,-4006.7 L4731.1,-4011.6 L4734.6,-4016.3 L4737.9,-4019.7 L4742.0,-4022.8 L4742.8,-4022.0 L4777.9,-4048.8 L4783.0,-4052.7 L4782.0,-4054.2 L4782.0,-4056.8 L4790.7,-4063.6 L4792.9,-4063.5 L4795.0,-4062.0 L4798.7,-4064.8 L4834.7,-4092.1 L4834.3,-4093.0 L4838.5,-4096.1 L4843.5,-4099.2 L4847.0,-4100.8 L4852.0,-4102.7 L4856.3,-4103.9 L4860.6,-4104.5 L4865.3,-4104.9 L4868.1,-4104.7 L4872.0,-4104.1 L4875.8,-4102.8 L4878.6,-4101.4 L4881.3,-4099.8 L4883.3,-4098.3 L4885.0,-4096.7 L4887.5,-4094.3 L4888.6,-4093.9 L4890.4,-4093.9 L4892.2,-4094.2 L4897.7,-4098.1 L4897.7,-4099.2 L4898.3,-4100.0 L4898.9,-4101.1 L4898.8,-4102.4 L4898.5,-4103.5 L4897.7,-4104.5 L4893.8,-4108.4 L4890.7,-4110.9 L4887.1,-4112.9 L4881.2,-4115.5 L4876.1,-4117.5 L4885.0,-4122.1 L4895.9,-4129.7 L4909.4,-4131.4 L4922.9,-4130.5 L4931.7,-4134.0 L4939.4,-4145.0 L4968.4,-4196.9 L4980.2,-4218.3 L4989.5,-4241.1 L4991.1,-4245.9 L5004.9,-4288.2 L5007.1,-4292.3 L5009.7,-4296.4 L5042.1,-4336.5 L5049.0,-4343.7 L5054.1,-4348.1 L5126.7,-4410.3 L5130.7,-4413.0 L5143.1,-4419.8 L5158.0,-4428.2 L5204.4,-4452.5 L5305.5,-4506.8 L5307.9,-4504.9 L5309.8,-4504.2 L5311.5,-4503.7 L5313.3,-4504.0 L5315.2,-4504.4 L5320.6,-4505.5 L5326.9,-4506.9 L5332.6,-4508.2 L5338.5,-4509.3 L5341.7,-4510.0 L5346.1,-4511.3 L5351.1,-4513.4 L5363.2,-4520.0 L5367.6,-4522.4 L5369.9,-4523.8 L5372.2,-4524.8 L5381.6,-4528.8 L5391.9,-4532.8 L5404.9,-4538.4 L5420.2,-4544.7 L5420.8,-4545.0 L5422.1,-4545.1 L5423.8,-4545.6 L5426.2,-4547.4 L5428.9,-4548.4 L5431.9,-4549.9 L5437.5,-4553.1 L5439.5,-4555.1 L5442.8,-4557.2 L5442.5,-4557.8 L5443.9,-4559.5 L5445.7,-4561.4 L5448.7,-4562.9 L5451.2,-4563.9 L5453.9,-4564.9 L5456.4,-4566.2 L5461.3,-4569.3 L5462.7,-4570.7 L5464.1,-4572.9 L5464.7,-4574.5 L5464.9,-4576.1 L5464.7,-4577.6 L5465.0,-4579.1 L5451.0,-4596.0 L5495.1,-4621.9 L5516.0,-4633.0 L5520.1,-4634.3 L5526.5,-4633.1 L5533.6,-4623.2 L5536.8,-4620.4 L5539.7,-4619.0 L5542.4,-4618.4 L5544.9,-4618.5 L5582.7,-4634.1 L5593.0,-4639.1 L5602.6,-4644.4 L5618.1,-4652.6 L5621.3,-4653.7 L5836.1,-4743.0 L5903.3,-4775.3 L6203.8,-4919.6 L13216.9,-4977.6 L13216.9,5058.0 L-1770.8,5058.0 L-1770.8,4631.5 Z" fill="#add7e1" stroke="none"><title>Biscayne Bay</title></path><path d="M-29.9,-312.2 L302.1,1.9 L777.2,-235.4 L859.5,-322.3 L735.0,-440.2 L793.7,-502.3 L727.4,-565.0 L795.4,-636.9 L600.9,-820.9 L360.0,-566.2 L281.1,-640.9 L90.0,-439.0 L-29.9,-312.2 Z" fill="#add7e1" stroke="#78b8c7" stroke-width="0.55"><title>Dinner Key Marina</title></path><path d="M-455.6,245.2 L-441.5,243.2 L-419.3,233.7 L-351.5,197.4 L-297.4,186.6 L-236.4,185.5 L-191.6,183.6 L-156.0,187.3 L-128.5,197.6 L-96.5,209.9 L-40.0,215.1 L5.3,218.6 L28.0,230.3 L74.7,237.8 L133.7,257.9 L151.1,259.0 L178.1,270.4 L193.4,285.7 L210.9,308.8 L222.9,314.2 L237.2,312.3 L248.4,313.1 L280.5,342.7 L304.9,359.1 L330.1,362.5 L354.9,362.1 L375.4,355.4 L409.7,341.0 L434.7,337.3 L480.0,338.2 L488.7,336.9 L511.5,331.7 L520.6,332.8 L524.3,329.7 L524.5,323.0 L514.3,314.9 L494.1,306.4 L457.2,299.1 L414.5,294.4 L376.5,291.1 L355.2,285.3 L315.3,260.7 L273.0,223.9 L230.5,180.1 L224.7,168.6 L220.2,149.2 L176.1,95.5 L162.3,82.4 L158.9,79.3 L130.9,75.5 L112.5,63.2 L78.0,30.8 L46.3,14.2 L7.5,4.9 L-16.2,-4.5 L-36.9,-7.3 L-74.3,3.0 L-110.3,8.4 L-153.2,22.2 L-192.0,38.6 L-239.9,65.3 L-345.4,123.3 L-444.2,183.9 L-485.3,207.9 L-501.3,209.2 L-515.7,210.7 L-528.3,220.0 L-533.9,228.1 L-534.9,241.3 L-525.4,250.4 L-513.6,252.7 L-506.2,252.3 L-495.0,245.8 L-481.9,243.3 L-468.1,246.9 L-455.6,245.2 Z" fill="#f1efe7" stroke="#8ab09d" stroke-width="0.65"></path></svg>