<svg xmlns="http://www.w3.org/2000/svg" width="256" height="256" viewBox="0 0 256 256"><rect width="256" height="256" fill="#f1efe7"/><path d="M134.7,30.9 L112.8,31.1 L112.5,0.4 L134.5,0.2 L134.7,30.9 Z" fill="#d6d2c9" stroke="#bab6ad" stroke-width="0.4"></path><path d="M206.2,31.8 L180.9,32.7 L180.5,23.0 L188.2,22.8 L187.1,-9.6 L204.8,-10.2 L206.2,31.8 Z" fill="#d6d2c9" stroke="#bab6ad" stroke-width="0.4"></path><path d="M174.2,33.0 L147.8,33.8 L147.0,4.9 L173.4,4.1 L174.2,33.0 Z" fill="#d6d2c9" stroke="#bab6ad" stroke-width="0.4"></path><path d="M101.4,-6.8 L103.5,31.5 L77.1,33.0 L76.5,23.4 L67.0,23.9 L67.4,31.0 L58.1,31.5 L55.6,-4.0 L101.4,-6.8 Z" fill="#d6d2c9" stroke="#bab6ad" stroke-width="0.4"></path><path d="M16.0,30.2 L-0.9,31.0 L-2.2,5.6 L14.7,4.8 L16.0,30.2 Z" fill="#d6d2c9" stroke="#bab6ad" stroke-width="0.4"></path><path d="M210.3,210.1 L189.7,210.4 L188.9,157.4 L211.9,157.1 L212.2,180.5 L209.9,180.5 L210.3,210.1 Z" fill="#d6d2c9" stroke="#bab6ad" stroke-width="0.4"></path><path d="M181.8,214.7 L162.0,215.4 L160.3,160.2 L182.9,159.5 L183.7,184.3 L180.8,184.4 L181.8,214.7 Z" fill="#d6d2c9" stroke="#bab6ad" stroke-width="0.4"></path><path d="M115.7,86.9 L115.8,89.9 L123.9,89.6 L126.0,140.8 L101.4,141.8 L100.0,105.7 L102.4,105.6 L102.3,102.1 L107.5,101.9 L107.4,99.8 L100.5,100.1 L100.0,87.5 L115.7,86.9 Z" fill="#d6d2c9" stroke="#bab6ad" stroke-width="0.4"></path><path d="M5.4,178.5 L-22.0,179.5 L-22.7,160.7 L4.7,159.7 L5.4,178.5 Z" fill="#d6d2c9" stroke="#bab6ad" stroke-width="0.4"></path><path d="M253.5,26.0 L273.2,25.1 L275.0,63.2 L255.2,64.1 L253.5,26.0 Z" fill="#d6d2c9" stroke="#bab6ad" stroke-width="0.4"></path><path d="M79.2,215.3 L52.2,216.5 L50.2,175.5 L79.3,174.1 L80.4,197.5 L78.3,197.6 L79.2,215.3 Z" fill="#d6d2c9" stroke="#bab6ad" stroke-width="0.4"></path><path d="M-4.3,91.7 L-4.1,97.4 L-1.0,97.3 L-0.9,99.9 L3.6,99.8 L3.5,96.2 L12.2,95.8 L12.8,114.7 L4.0,115.0 L4.7,132.3 L-2.8,132.6 L-2.8,131.1 L-10.4,131.4 L-11.9,92.0 L-4.3,91.7 Z" fill="#d6d2c9" stroke="#bab6ad" stroke-width="0.4"></path><path d="M148.9,212.5 L148.9,216.6 L140.4,216.7 L140.3,213.1 L134.7,213.2 L134.1,177.2 L143.4,177.0 L143.4,174.7 L155.7,174.4 L156.0,191.3 L154.8,191.3 L155.2,212.4 L148.9,212.5 Z" fill="#d6d2c9" stroke="#bab6ad" stroke-width="0.4"></path><path d="M26.8,171.4 L11.5,171.7 L11.3,159.5 L26.6,159.2 L26.8,171.4 Z" fill="#d6d2c9" stroke="#bab6ad" stroke-width="0.4"></path><path d="M88.6,88.2 L88.8,91.7 L97.4,91.3 L98.3,111.0 L86.0,111.5 L86.1,114.5 L81.6,114.7 L81.2,107.2 L74.2,107.5 L73.4,88.9 L81.0,88.6 L88.6,88.2 Z" fill="#d6d2c9" stroke="#bab6ad" stroke-width="0.4"></path><path d="M40.1,88.8 L40.8,108.9 L42.3,108.8 L42.9,125.5 L18.0,126.4 L16.8,89.7 L40.1,88.8 Z" fill="#d6d2c9" stroke="#bab6ad" stroke-width="0.4"></path><path d="M107.8,212.0 L107.9,214.1 L98.1,214.3 L98.1,213.3 L94.4,213.4 L94.2,204.0 L97.2,203.9 L97.1,196.9 L99.1,196.8 L98.9,186.6 L123.7,186.1 L123.8,195.4 L124.0,204.7 L121.6,204.7 L121.7,211.7 L107.8,212.0 Z" fill="#d6d2c9" stroke="#bab6ad" stroke-width="0.4"></path><path d="M145.3,85.8 L145.4,89.4 L153.7,89.2 L153.9,115.4 L143.8,115.7 L143.4,104.3 L137.0,104.5 L136.8,98.0 L131.2,98.2 L130.8,86.3 L145.3,85.8 Z" fill="#d6d2c9" stroke="#bab6ad" stroke-width="0.4"></path><path d="M59.9,88.8 L60.1,92.5 L68.6,92.1 L70.4,117.3 L64.5,117.6 L58.6,117.8 L58.2,108.2 L52.0,108.5 L51.7,100.9 L45.3,101.2 L45.1,95.3 L44.8,89.5 L59.9,88.8 Z" fill="#d6d2c9" stroke="#bab6ad" stroke-width="0.4"></path><path d="M180.1,109.4 L160.0,110.1 L159.3,88.4 L168.8,88.1 L168.7,84.2 L179.4,83.8 L180.1,109.4 Z" fill="#d6d2c9" stroke="#bab6ad" stroke-width="0.4"></path><path d="M43.1,180.8 L43.3,185.7 L44.3,185.7 L45.2,210.2 L35.9,210.6 L35.9,212.0 L29.5,212.3 L29.7,216.8 L19.6,217.2 L19.4,210.7 L12.6,211.0 L11.9,191.0 L21.4,190.7 L21.1,181.7 L43.1,180.8 Z" fill="#d6d2c9" stroke="#bab6ad" stroke-width="0.4"></path><path d="M206.4,107.1 L191.4,107.5 L190.9,90.1 L197.4,89.9 L197.2,84.0 L208.7,83.7 L209.1,98.4 L206.2,98.5 L206.4,107.1 Z" fill="#d6d2c9" stroke="#bab6ad" stroke-width="0.4"></path><path d="M-281.7,61.5 L45.8,49.0 L218.2,42.3 L213.6,-89.6" fill="none" stroke="#cf828d" stroke-width="1.5" stroke-dasharray="1.6 3.0" opacity="0.62" stroke-linecap="round" stroke-linejoin="round"></path><path d="M572.9,2.4 L243.5,12.3 L247.9,153.3 L587.9,142.1" fill="none" stroke="#cf828d" stroke-width="1.5" stroke-dasharray="1.6 3.0" opacity="0.62" stroke-linecap="round" stroke-linejoin="round"></path><path d="M243.5,12.3 L242.6,11.5" fill="none" stroke="#cf828d" stroke-width="1.5" stroke-dasharray="1.6 3.0" opacity="0.62" stroke-linecap="round" stroke-linejoin="round"></path><path d="M242.6,11.5 L242.2,-0.3 L241.8,-10.1" fill="none" stroke="#cf828d" stroke-width="1.5" stroke-dasharray="1.6 3.0" opacity="0.62" stroke-linecap="round" stroke-linejoin="round"></path><path d="M-120.4,81.3 L203.8,68.6 L208.0,69.9 L211.8,72.6 L214.6,75.7 L216.1,78.8 L216.9,82.0 L221.4,216.8 L221.4,219.9 L220.3,222.8 L218.4,225.2 L215.0,227.3 L211.3,228.1 L178.2,228.7 L-106.0,240.5" fill="none" stroke="#cf828d" stroke-width="1.5" stroke-dasharray="1.6 3.0" opacity="0.62" stroke-linecap="round" stroke-linejoin="round"></path><path d="M218.2,42.3 L218.5,46.0" fill="none" stroke="#cf828d" stroke-width="1.5" stroke-dasharray="1.6 3.0" opacity="0.62" stroke-linecap="round" stroke-linejoin="round"></path><path d="M218.5,46.0 L217.8,55.5 L217.0,66.7" fill="none" stroke="#cf828d" stroke-width="1.5" stroke-dasharray="1.6 3.0" opacity="0.62" stroke-linecap="round" stroke-linejoin="round"></path><path d="M203.8,68.6 L216.6,68.5 L216.9,82.0" fill="none" stroke="#cf828d" stroke-width="1.5" stroke-dasharray="1.6 3.0" opacity="0.62" stroke-linecap="round" stroke-linejoin="round"></path><path d="M216.6,68.5 L217.0,66.7" fill="none" stroke="#cf828d" stroke-width="1.5" stroke-dasharray="1.6 3.0" opacity="0.62" stroke-linecap="round" stroke-linejoin="round"></path><path d="M216.4,261.4 L218.7,255.5" fill="none" stroke="#cf828d" stroke-width="1.5" stroke-dasharray="1.6 3.0" opacity="0.62" stroke-linecap="round" stroke-linejoin="round"></path><path d="M218.7,255.5 L219.4,242.8 L220.0,231.9" fill="none" stroke="#cf828d" stroke-width="1.5" stroke-dasharray="1.6 3.0" opacity="0.62" stroke-linecap="round" stroke-linejoin="round"></path><path d="M220.0,231.9 L218.4,225.2" fill="none" stroke="#cf828d" stroke-width="1.5" stroke-dasharray="1.6 3.0" opacity="0.62" stroke-linecap="round" stroke-linejoin="round"></path><path d="M254.2,331.2 L249.2,190.8 L590.0,179.9" fill="none" stroke="#cf828d" stroke-width="1.5" stroke-dasharray="1.6 3.0" opacity="0.62" stroke-linecap="round" stroke-linejoin="round"></path><path d="M249.2,190.8 L249.0,185.2" fill="none" stroke="#cf828d" stroke-width="1.5" stroke-dasharray="1.6 3.0" opacity="0.62" stroke-linecap="round" stroke-linejoin="round"></path><path d="M249.0,185.2 L248.5,172.6 L248.0,161.0" fill="none" stroke="#cf828d" stroke-width="1.5" stroke-dasharray="1.6 3.0" opacity="0.62" stroke-linecap="round" stroke-linejoin="round"></path><path d="M248.0,161.0 L247.9,153.3" fill="none" stroke="#cf828d" stroke-width="1.5" stroke-dasharray="1.6 3.0" opacity="0.62" stroke-linecap="round" stroke-linejoin="round"></path><path d="M46.1,61.7 L45.8,49.0 L45.5,33.6" fill="none" stroke="#cec8bb" stroke-width="3.5" stroke-linecap="round" stroke-linejoin="round"/><path d="M46.1,61.7 L45.8,49.0 L45.5,33.6" fill="none" stroke="#ffffff" stroke-width="2.5" stroke-linecap="round" stroke-linejoin="round"></path><path d="M45.5,33.6 L42.7,17.6 L36.1,-6.3 L31.1,-21.6 L31.3,-56.2" fill="none" stroke="#cec8bb" stroke-width="3.5" stroke-linecap="round" stroke-linejoin="round"/><path d="M45.5,33.6 L42.7,17.6 L36.1,-6.3 L31.1,-21.6 L31.3,-56.2" fill="none" stroke="#ffffff" stroke-width="2.5" stroke-linecap="round" stroke-linejoin="round"></path><path d="M228.4,-89.7 L232.0,0.2 L233.3,54.9 L235.5,173.1 L237.2,242.1 L240.3,323.1" fill="none" stroke="#cec8bb" stroke-width="4.8" stroke-linecap="round" stroke-linejoin="round"/><path d="M228.4,-89.7 L232.0,0.2 L233.3,54.9 L235.5,173.1 L237.2,242.1 L240.3,323.1" fill="none" stroke="#ffffff" stroke-width="3.7" stroke-linecap="round" stroke-linejoin="round"><title>Southwest 24th Avenue</title></path><path d="M237.2,242.1 L219.4,242.8 L211.9,243.1 L-118.9,256.6" fill="none" stroke="#cec8bb" stroke-width="4.8" stroke-linecap="round" stroke-linejoin="round"/><path d="M237.2,242.1 L219.4,242.8 L211.9,243.1 L-118.9,256.6" fill="none" stroke="#ffffff" stroke-width="3.7" stroke-linecap="round" stroke-linejoin="round"><title>Southwest 12th Street</title></path><path d="M591.4,160.8 L254.7,172.4 L248.5,172.6 L235.5,173.1" fill="none" stroke="#cec8bb" stroke-width="4.8" stroke-linecap="round" stroke-linejoin="round"/><path d="M591.4,160.8 L254.7,172.4 L248.5,172.6 L235.5,173.1" fill="none" stroke="#ffffff" stroke-width="3.7" stroke-linecap="round" stroke-linejoin="round"><title>Southwest 11th Terrace</title></path><path d="M233.3,54.9 L217.8,55.5 L210.6,55.8 L46.1,61.7 L-146.4,68.8" fill="none" stroke="#cec8bb" stroke-width="4.8" stroke-linecap="round" stroke-linejoin="round"/><path d="M233.3,54.9 L217.8,55.5 L210.6,55.8 L46.1,61.7 L-146.4,68.8" fill="none" stroke="#ffffff" stroke-width="3.7" stroke-linecap="round" stroke-linejoin="round"><title>Southwest 11th Street</title></path><path d="M572.9,-11.8 L248.7,-0.5 L242.2,-0.3 L232.0,0.2" fill="none" stroke="#cec8bb" stroke-width="4.8" stroke-linecap="round" stroke-linejoin="round"/><path d="M572.9,-11.8 L248.7,-0.5 L242.2,-0.3 L232.0,0.2" fill="none" stroke="#ffffff" stroke-width="3.7" stroke-linecap="round" stroke-linejoin="round"><title>Southwest 11th Street</title></path><text x="158.8" y="212.6" text-anchor="middle" font-family="Arial, sans-serif" font-size="8" font-weight="600" paint-order="stroke" stroke="#edf5ec" stroke-width="1.9" stroke-linejoin="round" fill="#5c806b" textLength="81.9" lengthAdjust="spacing">Suniland Academy</text><text x="234.4" y="114.0" transform="rotate(88.9 234.4 114.0)" text-anchor="middle" dominant-baseline="central" font-family="Arial, sans-serif" font-size="8.3" textLength="111.6" lengthAdjust="spacing" font-weight="650" paint-order="stroke" stroke="#fffaf0" stroke-width="2.05" stroke-linejoin="round" fill="#695f54">Southwest 24th Avenue</text><text x="128.3" y="58.7" transform="rotate(-2.1 128.3 58.7)" text-anchor="middle" dominant-baseline="central" font-family="Arial, sans-serif" font-size="8.3" textLength="111.6" lengthAdjust="spacing" font-weight="650" paint-order="stroke" stroke="#fffaf0" stroke-width="2.05" stroke-linejoin="round" fill="#695f54">Southwest 11th Street</text><text x="123.6" y="16.5" text-anchor="middle" font-family="Arial, sans-serif" font-size="6.5" textLength="18.0" lengthAdjust="spacing" font-weight="500" paint-order="stroke" stroke="#f3f5ee" stroke-width="1.55" stroke-linejoin="round" fill="#6f777a">2421</text><text x="191.3" y="16.5" text-anchor="middle" font-family="Arial, sans-serif" font-size="6.5" textLength="18.0" lengthAdjust="spacing" font-weight="500" paint-order="stroke" stroke="#f3f5ee" stroke-width="1.55" stroke-linejoin="round" fill="#6f777a">1074</text><text x="75.8" y="20.5" text-anchor="middle" font-family="Arial, sans-serif" font-size="6.5" textLength="18.0" lengthAdjust="spacing" font-weight="500" paint-order="stroke" stroke="#f3f5ee" stroke-width="1.55" stroke-linejoin="round" fill="#6f777a">2433</text><text x="15.0" y="17.9" text-anchor="middle" font-family="Arial, sans-serif" font-size="6.5" textLength="18.0" lengthAdjust="spacing" font-weight="500" paint-order="stroke" stroke="#f3f5ee" stroke-width="1.55" stroke-linejoin="round" fill="#6f777a">2453</text><text x="203.8" y="182.7" text-anchor="middle" font-family="Arial, sans-serif" font-size="6.5" textLength="18.0" lengthAdjust="spacing" font-weight="500" paint-order="stroke" stroke="#f3f5ee" stroke-width="1.55" stroke-linejoin="round" fill="#6f777a">2401</text><text x="175.2" y="186.4" text-anchor="middle" font-family="Arial, sans-serif" font-size="6.5" textLength="18.0" lengthAdjust="spacing" font-weight="500" paint-order="stroke" stroke="#f3f5ee" stroke-width="1.55" stroke-linejoin="round" fill="#6f777a">2405</text><text x="108.6" y="104.3" text-anchor="middle" font-family="Arial, sans-serif" font-size="6.5" textLength="18.0" lengthAdjust="spacing" font-weight="500" paint-order="stroke" stroke="#f3f5ee" stroke-width="1.55" stroke-linejoin="round" fill="#6f777a">2426</text><text x="69.9" y="196.1" text-anchor="middle" font-family="Arial, sans-serif" font-size="6.5" textLength="18.0" lengthAdjust="spacing" font-weight="500" paint-order="stroke" stroke="#f3f5ee" stroke-width="1.55" stroke-linejoin="round" fill="#6f777a">2439</text><text x="15.0" y="109.1" text-anchor="middle" font-family="Arial, sans-serif" font-size="6.5" textLength="18.0" lengthAdjust="spacing" font-weight="500" paint-order="stroke" stroke="#f3f5ee" stroke-width="1.55" stroke-linejoin="round" fill="#6f777a">2460</text><text x="146.3" y="197.5" text-anchor="middle" font-family="Arial, sans-serif" font-size="6.5" textLength="18.0" lengthAdjust="spacing" font-weight="500" paint-order="stroke" stroke="#f3f5ee" stroke-width="1.55" stroke-linejoin="round" fill="#6f777a">2421</text><text x="85.1" y="101.4" text-anchor="middle" font-family="Arial, sans-serif" font-size="6.5" textLength="18.0" lengthAdjust="spacing" font-weight="500" paint-order="stroke" stroke="#f3f5ee" stroke-width="1.55" stroke-linejoin="round" fill="#6f777a">2436</text><text x="107.2" y="203.9" text-anchor="middle" font-family="Arial, sans-serif" font-size="6.5" textLength="18.0" lengthAdjust="spacing" font-weight="500" paint-order="stroke" stroke="#f3f5ee" stroke-width="1.55" stroke-linejoin="round" fill="#6f777a">2427</text><text x="142.2" y="98.7" text-anchor="middle" font-family="Arial, sans-serif" font-size="6.5" textLength="18.0" lengthAdjust="spacing" font-weight="500" paint-order="stroke" stroke="#f3f5ee" stroke-width="1.55" stroke-linejoin="round" fill="#6f777a">2420</text><text x="56.6" y="102.5" text-anchor="middle" font-family="Arial, sans-serif" font-size="6.5" textLength="18.0" lengthAdjust="spacing" font-weight="500" paint-order="stroke" stroke="#f3f5ee" stroke-width="1.55" stroke-linejoin="round" fill="#6f777a">2450</text><text x="169.4" y="94.0" text-anchor="middle" font-family="Arial, sans-serif" font-size="6.5" textLength="18.0" lengthAdjust="spacing" font-weight="500" paint-order="stroke" stroke="#f3f5ee" stroke-width="1.55" stroke-linejoin="round" fill="#6f777a">2412</text><text x="29.5" y="201.2" text-anchor="middle" font-family="Arial, sans-serif" font-size="6.5" textLength="18.0" lengthAdjust="spacing" font-weight="500" paint-order="stroke" stroke="#f3f5ee" stroke-width="1.55" stroke-linejoin="round" fill="#6f777a">2455</text><text x="200.9" y="94.9" text-anchor="middle" font-family="Arial, sans-serif" font-size="6.5" textLength="18.0" lengthAdjust="spacing" font-weight="500" paint-order="stroke" stroke="#f3f5ee" stroke-width="1.55" stroke-linejoin="round" fill="#6f777a">1100</text><text x="160.7" y="16.5" text-anchor="middle" font-family="Arial, sans-serif" font-size="6.5" textLength="18.0" lengthAdjust="spacing" font-weight="500" paint-order="stroke" stroke="#f3f5ee" stroke-width="1.55" stroke-linejoin="round" fill="#6f777a">2415</text><g opacity="0.56"><title>crossing</title><path d="M215.5,53.7 L220.1,53.7 M215.5,55.5 L220.1,55.5 M215.5,57.3 L220.1,57.3" stroke="#ffffff" stroke-width="2.1" stroke-linecap="round"/><path d="M215.5,53.7 L220.1,53.7 M215.5,55.5 L220.1,55.5 M215.5,57.3 L220.1,57.3" stroke="#59656a" stroke-width="0.85" stroke-linecap="round"/></g><g opacity="0.56"><title>crossing</title><path d="M217.1,241.0 L221.7,241.0 M217.1,242.8 L221.7,242.8 M217.1,244.6 L221.7,244.6" stroke="#ffffff" stroke-width="2.1" stroke-linecap="round"/><path d="M217.1,241.0 L221.7,241.0 M217.1,242.8 L221.7,242.8 M217.1,244.6 L221.7,244.6" stroke="#59656a" stroke-width="0.85" stroke-linecap="round"/></g></svg>