<svg xmlns="http://www.w3.org/2000/svg" width="256" height="256" viewBox="0 0 256 256"><defs><pattern id="park-dots" width="22" height="22" patternUnits="userSpaceOnUse"><circle cx="5" cy="5" r="2.1" fill="#63a95d" fill-opacity="0.26"/><circle cx="16" cy="7" r="1.55" fill="#76b970" fill-opacity="0.23"/><circle cx="10" cy="17" r="1.9" fill="#61a65b" fill-opacity="0.24"/><circle cx="21" cy="17" r="1.25" fill="#80c174" fill-opacity="0.18"/><circle cx="1" cy="19" r="1.2" fill="#70b46a" fill-opacity="0.17"/></pattern><pattern id="park-canopy" width="54" height="48" patternUnits="userSpaceOnUse"><circle cx="12" cy="11" r="3.6" fill="#5ea75a" fill-opacity="0.22"/><circle cx="31" cy="15" r="2.9" fill="#75ba6d" fill-opacity="0.18"/><circle cx="45" cy="31" r="3.3" fill="#67ae62" fill-opacity="0.20"/><circle cx="19" cy="39" r="2.5" fill="#83c378" fill-opacity="0.16"/></pattern></defs><rect width="256" height="256" fill="#f1efe7"/><path d="M-1770.8,5911.5 L-2315.0,5509.8 L-2358.5,5477.8 L-2405.7,5467.5 L-2439.0,5439.5 L-2465.6,5436.4 L-2551.6,5442.1 L-2551.5,5434.0 L-2556.3,5426.4 L-2565.9,5420.5 L-2752.7,5339.6 L-2765.4,5333.8 L-2776.5,5330.6 L-2790.3,5329.5 L-2804.2,5329.2 L-2850.6,5329.2 L-2862.9,5328.5 L-2875.0,5326.1 L-2887.8,5321.1 L-2903.2,5317.0 L-2914.4,5316.0 L-2947.3,5314.6 L-2958.3,5312.6 L-2972.3,5308.1 L-2986.0,5304.6 L-2999.3,5301.5 L-3009.7,5297.3 L-3022.3,5289.5 L-3033.5,5281.1 L-3044.4,5272.9 L-3053.3,5268.7 L-3060.1,5267.3 L-3066.2,5267.7 L-3072.7,5269.5 L-3080.3,5273.4 L-3086.3,5280.0 L-3094.4,5287.9 L-3103.4,5296.2 L-3113.6,5301.8 L-3126.5,5306.0 L-3137.2,5308.6 L-3150.1,5310.6 L-3171.7,5313.1 L-3225.9,5315.7 L-3271.9,5318.0 L-3291.7,5325.1 L-3332.3,5326.5 L-3337.8,5318.0 L-3343.9,5314.1 L-3350.2,5312.9 L-3394.0,5315.4 L-3413.0,5322.2 L-3436.3,5322.4 L-3452.0,5320.1 L-3464.9,5316.2 L-3512.0,5319.0 L-3636.6,5328.7 L-3665.3,5329.5 L-3675.1,5329.3 L-3683.9,5327.1 L-3694.1,5322.0 L-3701.6,5316.0 L-3734.0,5316.1 L-3761.1,5315.7 L-3768.4,5320.2 L-3805.7,5321.1 L-3810.5,5329.0 L-3815.8,5329.2 L-3825.0,5327.0 L-3841.5,5325.0 L-3858.5,5325.9 L-3863.7,5327.5 L-3869.0,5326.6 L-3872.6,5323.1 L-3878.7,5319.6 L-3901.4,5319.7 L-3924.3,5320.9 L-3946.0,5333.7 L-3956.7,5338.8 L-3968.9,5341.5 L-3979.0,5342.2 L-3988.1,5340.8 L-4009.1,5331.8 L-4021.1,5328.0 L-4031.3,5326.5 L-4076.0,5327.1 L-4078.8,5321.7 L-4118.3,5322.6 L-4145.5,5327.6 L-4163.4,5329.7 L-4173.0,5331.8 L-4176.7,5329.3 L-4183.5,5328.4 L-4247.2,5322.6 L-4252.7,5325.6 L-4259.4,5327.0 L-4268.2,5327.1 L-4268.2,5323.9 L-4307.7,5316.5 L-4332.6,5311.7 L-4392.8,5291.5 L-4396.1,5296.0 L-4436.3,5283.6 L-4444.7,5280.8 L-4440.6,5266.8 L-4445.4,5265.3 L-4446.4,5263.8 L-4449.0,5263.0 L-4452.6,5262.5 L-4457.0,5260.3 L-4455.5,5259.0 L-4473.3,5244.5 L-4502.9,5217.7 L-4518.8,5203.7 L-4530.1,5191.4 L-4536.4,5183.1 L-4545.8,5170.3 L-4551.2,5160.4 L-4568.0,5139.3 L-4569.6,5138.1 L-4570.7,5138.0 L-4571.9,5138.2 L-4574.1,5138.3 L-4576.1,5137.3 L-4580.3,5134.6 L-4588.9,5130.1 L-4593.1,5126.5 L-4598.0,5122.2 L-4604.7,5118.6 L-4615.2,5115.3 L-4626.3,5113.3 L-4635.8,5113.1 L-4633.1,5087.9 L-4630.9,5055.0 L-4620.6,5056.0 L-4610.3,5057.8 L-4596.8,5061.8 L-4586.9,5065.5 L-4578.0,5069.6 L-4569.4,5073.6 L-4561.3,5078.2 L-4554.7,5083.3 L-4545.9,5090.1 L-4536.7,5097.0 L-4534.6,5098.3 L-4532.7,5098.7 L-4507.5,5097.6 L-4507.2,5103.3 L-4508.7,5105.8 L-4527.6,5107.6 L-4522.8,5117.4 L-4519.5,5116.2 L-4516.5,5119.2 L-4514.6,5122.1 L-4513.0,5124.3 L-4509.1,5129.5 L-4507.6,5135.2 L-4501.5,5143.6 L-4487.1,5152.7 L-4469.2,5161.8 L-4447.8,5175.3 L-4438.0,5179.9 L-4417.4,5191.6 L-4407.7,5196.7 L-4390.0,5203.2 L-4355.2,5212.5 L-4334.8,5217.4 L-4316.2,5219.3 L-4306.3,5220.6 L-4304.1,5220.4 L-4303.2,5219.1 L-4302.9,5212.5 L-4279.8,5212.5 L-4279.3,5219.9 L-4230.9,5222.4 L-4183.7,5223.8 L-4151.6,5222.6 L-4141.0,5221.8 L-4133.3,5220.8 L-4127.0,5219.0 L-4121.2,5215.5 L-4118.3,5210.8 L-4119.4,5133.3 L-4099.9,5132.2 L-4098.2,5207.8 L-4097.1,5209.7 L-4093.2,5212.4 L-4088.7,5213.7 L-3985.3,5213.9 L-3985.8,5180.6 L-3977.7,5180.4 L-3974.3,5213.9 L-3910.5,5213.3 L-3910.5,5209.7 L-3904.2,5209.6 L-3904.0,5212.2 L-3478.5,5204.1 L-3447.7,5200.5 L-3410.1,5199.4 L-3374.5,5204.1 L-3362.6,5203.1 L-3353.9,5201.4 L-3345.8,5198.5 L-3335.3,5194.5 L-3121.4,5190.7 L-3121.5,5175.9 L-3001.8,5173.8 L-3001.7,5190.1 L-2950.9,5191.9 L-2947.0,5191.8 L-2943.4,5191.5 L-2938.7,5190.9 L-2934.9,5189.9 L-2931.2,5188.7 L-2924.9,5185.7 L-2922.0,5190.7 L-2915.8,5186.8 L-2910.1,5182.2 L-2905.3,5177.2 L-2901.1,5171.3 L-2897.2,5164.0 L-2904.5,5159.9 L-2902.5,5153.8 L-2901.2,5147.5 L-2900.5,5141.5 L-2900.4,5136.8 L-2900.6,5132.4 L-2901.3,5094.5 L-2907.4,5088.9 L-2902.2,5083.4 L-2907.5,5078.8 L-2901.5,5071.7 L-2908.0,5066.0 L-2902.8,5060.5 L-2908.0,5055.5 L-2901.9,5049.0 L-2908.2,5042.6 L-2895.1,5028.2 L-2892.8,5028.1 L-2898.5,4813.6 L-2850.4,4812.5 L-2848.1,4813.7 L-2845.5,4815.7 L-2843.6,4817.4 L-2842.8,4819.4 L-2842.1,4821.8 L-2841.9,4824.2 L-2837.8,5157.5 L-2835.9,5168.3 L-2833.2,5175.6 L-2829.0,5184.6 L-2824.1,5193.4 L-2819.0,5200.4 L-2814.9,5204.7 L-2810.5,5208.1 L-2805.4,5211.1 L-2800.1,5213.1 L-2792.9,5215.2 L-2784.0,5216.9 L-2773.2,5218.9 L-2760.6,5221.2 L-2748.6,5223.8 L-2735.3,5226.2 L-2722.7,5228.9 L-2718.7,5229.7 L-2713.8,5230.7 L-2709.0,5231.3 L-2704.8,5231.4 L-2700.0,5231.4 L-2696.3,5231.2 L-2692.6,5230.5 L-2689.4,5229.7 L-2686.0,5228.7 L-2683.1,5227.4 L-2677.3,5224.6 L-2672.2,5221.6 L-2667.1,5217.9 L-2661.2,5212.2 L-2655.7,5206.0 L-2652.7,5200.7 L-2650.0,5194.2 L-2648.6,5188.9 L-2647.8,5183.2 L-2647.3,5177.8 L-2647.3,5172.8 L-2654.6,4815.6 L-2644.2,4804.9 L-2640.4,4804.5 L-2638.9,4803.1 L-2617.2,4802.5 L-2615.3,4799.3 L-2612.0,4800.2 L-2606.5,4805.3 L-2602.7,4810.6 L-2598.9,4817.2 L-2591.7,5216.4 L-2591.0,5223.4 L-2589.7,5237.3 L-2588.4,5240.1 L-2589.4,5240.8 L-2587.6,5244.7 L-2585.3,5249.3 L-2583.3,5252.2 L-2580.9,5255.7 L-2577.6,5259.5 L-2573.7,5263.5 L-2569.0,5267.5 L-2564.8,5270.6 L-2560.2,5273.1 L-2555.8,5275.3 L-2551.1,5276.8 L-2550.5,5275.4 L-2484.3,5299.4 L-2476.0,5302.5 L-2472.2,5303.9 L-2466.3,5306.0 L-2462.0,5307.0 L-2458.3,5307.5 L-2454.9,5307.5 L-2450.1,5307.1 L-2444.9,5306.6 L-2440.3,5305.6 L-2435.6,5304.3 L-2432.1,5302.9 L-2428.4,5301.2 L-2425.4,5299.3 L-2421.6,5296.5 L-2416.8,5292.3 L-2412.4,5288.0 L-2407.6,5282.0 L-2404.2,5276.4 L-2401.4,5270.2 L-2399.4,5263.3 L-2398.2,5256.3 L-2397.5,5243.8 L-2397.8,5218.3 L-2405.1,4812.2 L-2405.1,4807.7 L-2404.3,4804.5 L-2402.9,4801.9 L-2400.0,4799.5 L-2396.7,4797.8 L-2393.0,4797.2 L-2362.9,4796.2 L-2359.3,4796.8 L-2356.1,4798.2 L-2353.8,4800.4 L-2351.2,4804.2 L-2349.7,4809.6 L-2348.8,4816.9 L-2341.3,5337.8 L-2340.9,5340.9 L-2340.3,5344.0 L-2339.4,5347.2 L-2338.3,5350.7 L-2337.1,5354.2 L-2335.7,5357.4 L-2334.5,5360.1 L-2333.2,5362.5 L-2331.3,5365.5 L-2329.2,5368.1 L-2327.3,5370.5 L-2324.4,5373.6 L-2321.6,5376.3 L-2318.5,5378.8 L-2315.2,5381.3 L-2306.0,5387.1 L-2305.1,5386.0 L-2297.0,5390.5 L-2287.4,5395.7 L-2281.9,5398.7 L-2275.8,5402.3 L-2269.5,5406.0 L-2263.0,5410.0 L-2255.7,5414.5 L-2248.5,5419.0 L-2241.3,5423.3 L-2235.3,5427.0 L-2228.6,5431.3 L-2221.5,5435.9 L-2214.7,5440.4 L-2208.4,5444.7 L-2209.1,5445.6 L-2200.3,5451.7 L-2191.2,5457.8 L-2188.4,5459.5 L-2185.3,5461.2 L-2180.9,5463.3 L-2176.8,5464.8 L-2172.4,5466.0 L-2168.5,5467.0 L-2163.9,5467.7 L-2158.8,5468.3 L-2154.4,5468.3 L-2150.7,5468.0 L-2147.5,5467.3 L-2143.4,5466.2 L-2139.3,5464.9 L-2135.5,5463.6 L-2132.0,5461.9 L-2128.4,5460.0 L-2124.9,5457.8 L-2121.3,5455.0 L-2118.1,5452.1 L-2115.0,5449.0 L-2112.1,5445.8 L-2109.1,5441.4 L-2106.6,5437.0 L-2104.2,5432.1 L-2102.8,5428.3 L-2101.7,5424.3 L-2100.9,5420.0 L-2100.5,5415.7 L-2100.8,5410.8 L-2160.1,4843.1 L-2156.0,4842.7 L-2159.3,4814.3 L-2162.3,4814.5 L-2164.7,4801.4 L-2163.9,4798.7 L-2161.4,4794.7 L-2156.3,4790.8 L-2149.6,4790.0 L-2122.7,4789.1 L-2118.2,4790.0 L-2115.1,4791.5 L-2111.8,4794.1 L-2109.5,4796.5 L-2107.9,4799.0 L-2042.9,5435.9 L-2041.4,5441.4 L-2038.6,5448.2 L-2036.2,5452.6 L-2033.6,5457.3 L-2030.2,5461.9 L-2027.4,5465.1 L-2024.3,5468.3 L-2020.9,5471.0 L-2017.9,5473.1 L-2013.7,5475.8 L-2010.0,5477.7 L-2005.1,5479.8 L-2000.5,5481.2 L-1995.3,5482.3 L-1991.3,5482.9 L-1987.8,5483.0 L-1983.7,5483.1 L-1842.5,5480.2 L-1837.9,5479.6 L-1833.5,5477.5 L-1830.3,5474.6 L-1828.1,5470.2 L-1827.3,5466.2 L-1827.5,5462.2 L-1899.0,4780.1 L-1962.0,4697.9 L-1964.8,4700.2 L-2019.6,4623.7 L-2020.6,4607.5 L-2022.3,4604.1 L-2025.2,4601.0 L-2028.9,4595.8 L-2029.2,4588.2 L-2035.7,4585.7 L-2042.0,4585.6 L-2050.5,4589.8 L-2040.9,4607.8 L-2053.0,4613.6 L-2062.1,4605.2 L-2069.9,4600.4 L-2075.2,4598.6 L-2088.2,4598.1 L-2094.8,4584.7 L-2053.3,4567.7 L-2055.3,4564.3 L-2064.1,4552.5 L-2065.5,4553.2 L-2374.4,4148.7 L-2379.1,4082.0 L-2376.6,4081.4 L-2388.5,3959.1 L-2393.1,3947.8 L-2398.1,3935.1 L-2401.9,3925.3 L-2406.5,3912.8 L-2421.5,3870.7 L-2427.6,3873.4 L-2436.5,3839.3 L-2435.0,3839.0 L-2466.1,3754.7 L-2469.5,3607.3 L-2465.9,3607.3 L-2465.4,3594.4 L-2463.6,3581.7 L-2462.9,3577.0 L-2464.2,3573.2 L-2460.0,3553.1 L-2421.7,3485.3 L-2441.8,3473.1 L-2426.9,3448.4 L-2407.5,3459.8 L-2405.8,3457.2 L-2399.7,3460.3 L-2393.1,3462.9 L-2385.5,3465.3 L-2379.8,3466.5 L-2374.4,3466.7 L-2368.0,3465.6 L-2361.7,3463.5 L-2355.5,3461.1 L-2352.6,3458.0 L-2351.5,3453.9 L-2350.0,3449.0 L-2349.7,3447.0 L-2349.8,3444.5 L-2351.2,3440.6 L-2353.8,3436.9 L-2356.8,3434.8 L-2361.2,3430.6 L-2365.0,3426.6 L-2370.6,3423.0 L-2372.9,3417.3 L-2375.6,3411.6 L-2379.9,3404.9 L-2384.8,3399.1 L-2393.8,3392.7 L-2437.4,3370.1 L-2463.2,3357.3 L-2487.3,3344.3 L-2510.2,3331.6 L-2525.0,3322.0 L-2530.7,3320.5 L-2537.0,3322.4 L-2540.5,3326.7 L-2547.6,3344.4 L-2591.7,3324.6 L-2565.3,3282.9 L-2559.5,3280.2 L-2552.4,3278.8 L-2544.1,3280.6 L-2378.4,3377.5 L-2369.4,3380.2 L-2360.0,3382.5 L-2346.7,3382.8 L-2333.2,3380.4 L-2324.6,3376.9 L-2315.2,3369.3 L-2309.7,3364.0 L-2303.8,3355.7 L-2303.9,3354.6 L-2304.3,3353.6 L-2305.2,3352.8 L-2358.8,3319.7 L-2360.1,3319.3 L-2361.5,3319.2 L-2362.9,3319.3 L-2368.0,3321.5 L-2369.9,3321.7 L-2372.0,3321.5 L-2375.1,3321.0 L-2377.5,3320.3 L-2380.9,3318.6 L-2384.2,3316.7 L-2457.9,3271.7 L-2492.6,3247.3 L-2495.9,3246.8 L-2499.2,3246.9 L-2503.1,3247.0 L-2505.7,3246.6 L-2507.9,3245.6 L-2510.5,3243.6 L-2513.4,3241.3 L-2515.4,3238.5 L-2516.6,3235.7 L-2516.8,3233.6 L-2516.5,3230.9 L-2516.0,3228.6 L-2504.2,3208.8 L-2504.2,3207.9 L-2505.1,3207.2 L-2515.9,3199.6 L-2518.0,3196.5 L-2516.8,3194.6 L-2513.3,3195.1 L-2509.5,3196.2 L-2487.3,3209.9 L-2361.5,3290.2 L-2358.9,3291.7 L-2357.1,3293.6 L-2355.9,3295.8 L-2354.6,3300.4 L-2353.7,3304.0 L-2353.2,3307.1 L-2296.4,3341.2 L-2294.4,3342.1 L-2292.0,3342.3 L-2289.2,3341.9 L-2287.2,3341.2 L-2285.5,3340.4 L-2224.4,3241.5 L-2198.8,3203.9 L-2174.9,3177.0 L-2162.8,3183.7 L-2155.0,3171.1 L-2196.5,3146.3 L-2187.7,3131.9 L-2146.2,3156.9 L-2136.9,3141.7 L-2144.4,3133.3 L-2136.8,3124.6 L-2128.6,3134.0 L-2126.6,3132.5 L-2124.3,3130.9 L-2121.1,3129.1 L-2117.8,3127.5 L-2113.7,3126.0 L-2109.8,3124.9 L-2105.6,3124.2 L-2101.4,3123.9 L-2097.4,3124.0 L-2093.5,3124.6 L-2089.8,3125.5 L-2086.7,3126.4 L-2084.0,3127.6 L-2080.2,3129.4 L-2076.7,3131.6 L-2073.7,3133.7 L-2070.7,3136.4 L-2068.0,3139.0 L-2065.0,3142.9 L-2062.9,3146.4 L-2060.8,3150.9 L-2059.4,3155.4 L-2058.2,3161.6 L-2057.8,3167.0 L-2057.9,3170.1 L-2058.3,3173.3 L-2059.4,3178.1 L-2062.2,3184.7 L-2064.0,3189.0 L-2066.5,3194.1 L-2056.1,3199.3 L-2007.5,3141.3 L-2096.0,3087.5 L-2091.5,3077.9 L-2088.3,3069.0 L-2088.1,3065.2 L-2083.0,3054.3 L-2072.5,3044.6 L-2059.5,3034.0 L-2044.0,3024.1 L-2014.9,3015.6 L-1964.7,3010.6 L-1944.9,2994.6 L-1940.8,2993.9 L-1937.5,2993.7 L-1932.8,2995.5 L-1928.5,2996.0 L-1900.6,3012.9 L-1827.2,2925.8 L-2096.2,2754.8 L-2112.9,2781.1 L-2149.2,2758.1 L-2097.7,2677.1 L-2061.5,2699.5 L-2077.6,2727.1 L-1803.9,2899.6 L-1769.4,2855.3 L-1745.0,2826.3 L-1712.8,2777.9 L-1695.0,2753.5 L-1696.8,2739.6 L-1696.3,2739.2 L-1699.5,2728.9 L-1701.6,2722.5 L-1703.6,2715.9 L-1706.0,2710.2 L-1710.6,2702.7 L-1715.2,2695.4 L-1717.2,2691.6 L-1718.7,2687.8 L-1719.8,2684.3 L-1720.2,2681.2 L-1720.7,2671.0 L-1838.9,2562.5 L-1842.8,2566.7 L-1846.1,2563.9 L-1855.7,2573.4 L-1862.0,2565.0 L-1854.4,2556.2 L-1862.0,2546.5 L-1867.2,2547.9 L-1872.6,2548.1 L-1877.5,2547.2 L-1881.8,2545.4 L-1886.8,2541.7 L-1893.0,2535.6 L-1903.9,2523.6 L-1907.2,2518.5 L-1908.4,2512.1 L-1907.6,2504.5 L-1904.7,2497.5 L-1902.2,2492.7 L-1897.4,2487.9 L-1892.1,2484.3 L-1887.0,2482.4 L-1883.2,2481.8 L-1878.2,2482.7 L-1873.1,2484.5 L-1868.3,2488.3 L-1857.2,2498.3 L-1851.5,2503.7 L-1846.3,2509.4 L-1844.6,2512.1 L-1843.4,2515.0 L-1842.7,2517.6 L-1842.2,2521.2 L-1842.8,2524.6 L-1843.8,2527.8 L-1845.2,2530.2 L-1845.6,2531.3 L-1845.3,2532.7 L-1844.5,2534.1 L-1717.6,2653.0 L-1713.2,2656.0 L-1710.1,2657.3 L-1705.7,2656.3 L-1700.5,2655.9 L-1693.9,2658.7 L-1687.3,2662.8 L-1674.4,2670.1 L-1669.0,2672.7 L-1664.1,2667.9 L-1658.7,2662.7 L-1655.1,2658.6 L-1649.1,2650.8 L-1645.7,2646.1 L-1642.1,2640.3 L-1639.8,2635.2 L-1637.3,2629.8 L-1635.0,2624.1 L-1632.9,2618.3 L-1631.7,2613.4 L-1630.3,2607.2 L-1629.7,2603.5 L-1629.3,2600.5 L-1628.6,2595.2 L-1627.9,2590.0 L-1627.6,2586.6 L-1627.4,2582.9 L-1627.4,2578.6 L-1627.6,2575.0 L-1628.3,2570.0 L-1629.1,2564.3 L-1629.9,2559.0 L-1630.4,2554.7 L-1631.0,2551.5 L-1631.7,2548.1 L-1632.5,2544.7 L-1633.7,2540.7 L-1635.1,2536.7 L-1636.2,2534.3 L-1637.4,2531.9 L-1639.1,2529.6 L-1641.4,2526.3 L-1643.9,2523.2 L-1646.6,2520.6 L-1650.0,2517.8 L-1653.5,2515.6 L-1657.0,2513.7 L-1660.2,2512.5 L-1662.4,2511.8 L-1664.9,2511.5 L-1667.9,2511.6 L-1670.7,2512.2 L-1672.9,2513.1 L-1675.0,2514.6 L-1676.5,2516.2 L-1677.7,2517.7 L-1678.6,2520.0 L-1679.1,2522.5 L-1679.0,2525.5 L-1678.8,2529.0 L-1678.8,2531.6 L-1679.0,2534.2 L-1679.4,2536.8 L-1679.9,2539.1 L-1680.8,2541.5 L-1682.2,2544.1 L-1683.9,2546.6 L-1685.6,2548.9 L-1687.3,2550.5 L-1690.7,2553.2 L-1693.5,2555.1 L-1697.9,2556.4 L-1700.5,2557.0 L-1703.5,2557.4 L-1706.2,2557.5 L-1709.8,2557.3 L-1712.4,2556.8 L-1716.0,2556.0 L-1721.0,2554.5 L-1725.2,2552.9 L-1728.3,2551.7 L-1731.6,2549.9 L-1734.5,2547.9 L-1737.7,2545.4 L-1740.2,2543.1 L-1742.3,2541.0 L-1744.5,2538.4 L-1746.3,2536.0 L-1748.0,2533.6 L-1749.5,2530.9 L-1751.1,2527.3 L-1752.5,2524.0 L-1753.9,2520.4 L-1754.8,2517.6 L-1755.5,2515.0 L-1756.0,2512.3 L-1756.4,2508.1 L-1756.7,2504.4 L-1756.5,2500.4 L-1755.6,2495.1 L-1754.1,2489.9 L-1752.2,2484.5 L-1750.9,2482.0 L-1749.6,2480.5 L-1739.3,2467.4 L-1736.9,2464.7 L-1733.8,2463.2 L-1730.5,2462.0 L-1726.8,2461.2 L-1722.7,2460.7 L-1719.1,2460.5 L-1715.5,2460.6 L-1711.9,2461.0 L-1707.8,2462.2 L-1703.5,2464.3 L-1699.8,2466.6 L-1696.5,2469.2 L-1686.1,2478.8 L-1683.6,2479.6 L-1682.2,2479.9 L-1680.5,2479.5 L-1679.4,2479.1 L-1678.0,2477.5 L-1677.4,2475.9 L-1677.3,2473.7 L-1677.2,2471.7 L-1677.6,2470.8 L-1698.6,2450.0 L-1670.0,2419.5 L-1671.6,2415.9 L-1655.1,2399.6 L-1623.3,2431.4 L-1648.9,2464.0 L-1649.1,2465.9 L-1647.8,2466.7 L-1646.2,2466.3 L-1618.1,2431.1 L-1609.9,2421.2 L-1609.6,2418.9 L-1610.3,2416.9 L-1611.8,2415.1 L-1633.8,2394.3 L-1628.3,2387.9 L-1633.9,2383.2 L-1630.7,2375.8 L-1573.7,2318.5 L-1554.1,2315.2 L-1548.0,2314.3 L-1542.2,2313.5 L-1539.5,2312.8 L-1536.3,2311.1 L-1532.5,2309.0 L-1529.6,2306.1 L-1526.8,2302.6 L-1497.7,2260.3 L-1497.1,2259.2 L-1497.4,2257.8 L-1497.8,2256.8 L-1498.5,2255.9 L-1502.0,2253.7 L-1502.9,2253.2 L-1503.7,2253.3 L-1504.6,2253.8 L-1506.5,2255.2 L-1530.9,2278.0 L-1540.4,2284.8 L-1579.4,2244.8 L-1574.9,2230.6 L-1573.0,2226.4 L-1566.9,2215.2 L-1559.8,2202.7 L-1555.5,2197.9 L-1547.8,2189.7 L-1539.6,2180.7 L-1530.6,2171.2 L-1522.9,2164.6 L-1519.2,2161.3 L-1514.3,2157.7 L-1509.8,2155.3 L-1503.4,2152.4 L-1499.4,2151.0 L-1495.4,2149.8 L-1492.3,2149.5 L-1487.9,2149.8 L-1484.2,2150.3 L-1480.0,2151.5 L-1475.9,2154.9 L-1473.4,2158.4 L-1471.9,2162.0 L-1471.3,2167.4 L-1471.5,2174.5 L-1472.4,2182.5 L-1474.1,2190.2 L-1484.4,2213.2 L-1494.2,2233.9 L-1490.8,2239.4 L-1489.0,2240.5 L-1487.1,2240.5 L-1485.4,2240.1 L-1484.1,2239.3 L-1477.4,2229.8 L-1468.8,2225.5 L-1451.7,2179.8 L-1450.5,2177.5 L-1448.8,2175.5 L-1447.1,2174.6 L-1445.5,2174.2 L-1443.2,2174.2 L-1440.8,2174.8 L-1428.3,2178.3 L-1425.9,2178.8 L-1423.1,2178.9 L-1420.5,2178.5 L-1418.4,2177.6 L-1416.6,2176.2 L-1414.8,2173.9 L-1393.8,2145.8 L-1392.8,2143.7 L-1392.3,2141.5 L-1392.3,2139.4 L-1392.7,2137.2 L-1393.5,2135.6 L-1394.7,2134.0 L-1396.1,2132.7 L-1398.1,2131.7 L-1400.0,2131.2 L-1401.9,2131.1 L-1403.5,2131.4 L-1405.4,2132.3 L-1406.8,2133.3 L-1407.9,2134.7 L-1413.4,2143.6 L-1414.6,2145.3 L-1416.0,2146.9 L-1418.1,2148.7 L-1420.0,2149.8 L-1422.3,2150.5 L-1425.1,2151.1 L-1426.7,2151.1 L-1428.9,2150.8 L-1430.8,2150.3 L-1432.4,2149.6 L-1449.6,2134.0 L-1451.6,2131.6 L-1453.1,2129.4 L-1454.5,2126.7 L-1455.4,2124.4 L-1456.0,2122.0 L-1456.5,2119.4 L-1456.8,2116.2 L-1456.9,2113.0 L-1456.6,2110.3 L-1456.2,2108.0 L-1455.7,2106.0 L-1454.9,2104.3 L-1423.6,2054.6 L-1421.6,2051.3 L-1420.4,2049.6 L-1419.0,2048.8 L-1416.7,2047.8 L-1414.3,2047.1 L-1412.0,2046.7 L-1410.7,2046.7 L-1409.4,2046.9 L-1408.3,2047.3 L-1406.7,2048.1 L-1404.8,2049.3 L-1401.6,2051.9 L-1387.3,2065.3 L-1384.9,2068.7 L-1383.5,2072.0 L-1382.2,2075.9 L-1381.8,2078.9 L-1381.6,2082.1 L-1381.6,2084.8 L-1381.9,2087.5 L-1382.4,2090.2 L-1383.0,2092.0 L-1384.6,2095.7 L-1390.3,2106.3 L-1390.9,2108.7 L-1390.9,2111.6 L-1390.7,2113.8 L-1389.9,2115.5 L-1388.4,2117.1 L-1386.0,2118.8 L-1384.0,2119.9 L-1381.7,2120.4 L-1379.0,2120.3 L-1376.8,2119.8 L-1374.3,2118.5 L-1372.1,2116.5 L-1335.1,2065.7 L-1346.4,2055.5 L-1339.6,2048.2 L-1329.5,2057.9 L-1308.7,2030.6 L-1277.2,1988.5 L-1404.0,1867.0 L-1431.5,1895.9 L-1463.8,1865.4 L-1432.6,1831.8 L-1436.7,1827.3 L-1430.2,1821.3 L-1426.2,1825.4 L-1404.5,1801.8 L-1385.0,1819.9 L-1382.7,1834.9 L-1300.7,1911.4 L-1284.7,1917.6 L-1271.9,1913.1 L-1247.6,1922.8 L-1231.5,1916.9 L-1183.6,1858.4 L-1180.9,1852.9 L-1180.1,1845.5 L-1182.5,1838.2 L-1185.7,1833.0 L-1214.1,1806.8 L-1213.7,1799.6 L-1208.1,1785.5 L-1196.9,1764.6 L-1219.0,1750.3 L-1210.6,1747.1 L-1205.3,1743.7 L-1200.0,1737.7 L-1193.8,1721.8 L-1182.4,1692.8 L-1175.0,1686.0 L-1245.2,1618.0 L-1260.6,1627.6 L-1264.2,1628.5 L-1267.6,1628.6 L-1272.0,1628.1 L-1275.6,1627.1 L-1279.1,1625.0 L-1282.0,1622.5 L-1318.3,1587.5 L-1325.1,1580.7 L-1328.1,1577.1 L-1330.6,1572.6 L-1331.8,1568.5 L-1332.3,1564.5 L-1332.2,1560.7 L-1331.5,1557.1 L-1330.6,1554.2 L-1329.4,1552.1 L-1326.8,1548.4 L-1323.7,1544.7 L-1307.4,1527.8 L-1183.4,1642.7 L-1191.9,1652.3 L-1100.0,1739.2 L-994.1,1584.1 L-1061.3,1521.3 L-1069.9,1529.0 L-1195.4,1410.5 L-1179.0,1395.2 L-1106.9,1462.8 L-1099.7,1452.2 L-1095.7,1446.9 L-1090.6,1441.7 L-1084.7,1435.2 L-1078.7,1431.3 L-1069.2,1423.3 L-1059.7,1414.5 L-1041.5,1397.3 L-998.0,1348.4 L-990.2,1340.3 L-961.5,1325.6 L-934.3,1304.3 L-931.7,1302.3 L-924.6,1296.8 L-921.5,1294.0 L-919.0,1290.8 L-917.3,1287.5 L-916.2,1284.2 L-914.9,1281.7 L-913.4,1279.0 L-910.8,1274.7 L-909.0,1272.0 L-907.2,1269.5 L-903.9,1266.9 L-900.7,1264.7 L-897.2,1262.6 L-888.9,1258.6 L-880.9,1254.6 L-879.7,1254.4 L-878.5,1254.6 L-876.1,1255.3 L-869.6,1258.6 L-864.7,1261.0 L-862.4,1262.4 L-860.3,1264.1 L-826.9,1295.8 L-824.6,1297.1 L-813.7,1300.0 L-810.2,1301.0 L-806.3,1301.4 L-803.3,1301.3 L-801.0,1300.5 L-798.7,1298.9 L-786.8,1282.1 L-786.8,1279.8 L-787.2,1277.7 L-788.5,1275.4 L-790.5,1273.2 L-799.6,1264.7 L-798.9,1263.3 L-787.2,1238.5 L-767.2,1198.2 L-749.0,1184.8 L-738.5,1174.3 L-731.3,1166.0 L-723.7,1158.3 L-715.3,1151.4 L-710.2,1146.7 L-704.8,1141.8 L-700.8,1137.8 L-698.8,1134.2 L-697.2,1131.4 L-696.2,1128.7 L-695.8,1125.5 L-695.6,1122.3 L-689.5,1116.1 L-680.5,1107.6 L-665.5,1095.3 L-649.8,1083.4 L-642.8,1073.6 L-640.2,1063.5 L-632.4,1058.7 L-622.6,1058.5 L-612.7,1052.6 L-604.0,1036.9 L-604.2,1020.6 L-602.6,995.4 L-600.1,991.8 L-598.6,989.4 L-595.8,984.8 L-599.3,974.1 L-595.3,969.1 L-575.5,944.6 L-541.5,904.9 L-535.0,895.5 L-532.4,890.6 L-521.6,875.7 L-518.6,866.3 L-518.5,851.8 L-518.9,837.3 L-519.0,822.5 L-514.6,806.2 L-507.2,790.1 L-496.6,774.6 L-488.9,763.1 L-479.8,751.6 L-462.2,732.0 L-384.2,693.4 L-373.9,690.7 L-371.3,696.3 L-368.2,701.7 L-367.2,702.7 L-365.5,702.0 L-365.2,698.2 L-366.4,695.0 L-362.1,693.7 L-346.1,689.0 L-325.3,682.8 L-308.5,677.8 L-302.5,676.0 L-308.5,657.1 L-298.1,654.3 L-280.8,651.9 L-278.7,651.6 L-278.6,650.4 L-278.6,646.0 L-262.9,645.3 L-238.3,644.3 L-228.8,648.9 L-205.1,734.3 L-199.8,739.4 L-210.1,750.0 L-201.0,759.0 L-192.0,768.0 L-181.2,757.0 L19.3,947.6 L286.9,662.0 L380.4,751.4 L384.0,750.3 L385.4,751.9 L391.7,747.9 L396.9,746.0 L402.4,743.5 L411.8,738.6 L417.6,735.3 L424.5,731.3 L430.9,727.3 L436.1,723.9 L440.9,720.8 L446.5,716.7 L452.9,712.0 L457.8,707.9 L463.0,703.3 L468.7,697.9 L474.1,692.5 L486.7,679.1 L494.3,670.0 L501.7,660.1 L506.8,652.9 L511.6,645.5 L517.3,635.2 L522.3,625.1 L526.3,616.8 L529.7,608.5 L531.8,603.0 L534.1,596.8 L539.5,590.1 L368.5,427.4 L370.6,425.1 L391.1,403.1 L406.0,387.3 L407.5,385.7 L450.9,426.3 L461.4,420.9 L462.6,422.4 L564.6,369.3 L568.8,367.1 L571.7,364.8 L574.4,362.3 L577.5,359.1 L580.5,354.6 L583.1,350.4 L584.8,347.2 L586.0,343.1 L587.1,338.6 L587.6,333.7 L587.6,328.2 L587.2,323.8 L586.4,319.9 L585.1,315.2 L553.2,223.4 L548.9,208.3 L550.0,203.1 L473.0,184.0 L476.6,170.7 L479.6,158.7 L502.4,68.5 L484.7,15.9 L474.3,-18.1 L471.3,-26.6 L498.9,-51.9 L530.0,-68.6 L531.9,-66.0 L534.9,-61.7 L541.9,-52.6 L542.7,-53.4 L542.9,-56.5 L533.2,-69.9 L550.5,-82.3 L554.3,-84.5 L563.3,-72.8 L564.8,-71.7 L566.3,-71.4 L567.1,-71.6 L567.1,-72.4 L524.3,-131.0 L521.2,-134.4 L517.6,-139.3 L499.0,-161.8 L514.9,-211.1 L527.1,-223.8 L541.2,-230.4 L571.2,-248.2 L577.4,-254.6 L604.3,-278.2 L612.8,-269.3 L637.7,-242.4 L660.8,-261.8 L676.3,-246.9 L690.2,-233.3 L690.9,-232.6 L702.7,-242.7 L718.3,-226.1 L731.7,-208.9 L741.6,-197.4 L742.9,-195.9 L771.7,-221.2 L773.2,-222.5 L766.4,-230.8 L782.1,-243.7 L829.7,-188.2 L870.2,-214.9 L874.2,-218.7 L891.8,-226.1 L895.8,-230.0 L899.6,-235.0 L921.3,-254.3 L916.4,-261.0 L877.6,-252.1 L833.2,-302.6 L838.3,-307.0 L845.0,-299.2 L876.4,-326.2 L909.7,-289.8 L918.7,-286.2 L924.1,-283.1 L930.9,-275.4 L934.6,-278.7 L910.5,-306.1 L925.3,-318.9 L955.2,-283.0 L959.0,-285.8 L958.6,-286.6 L1024.2,-334.0 L1043.7,-348.4 L980.0,-428.0 L993.6,-437.5 L1049.0,-372.6 L1089.9,-365.1 L1116.9,-380.9 L1120.7,-383.3 L1120.5,-386.3 L1118.6,-389.8 L1139.7,-403.1 L1145.9,-396.9 L1163.7,-407.4 L1150.8,-423.4 L1088.5,-506.7 L1132.5,-552.3 L1161.4,-595.0 L1162.1,-628.4 L1146.7,-672.8 L1179.1,-699.8 L1213.1,-712.9 L1224.3,-715.5 L1233.3,-716.7 L1244.3,-716.0 L1255.7,-713.2 L1272.2,-699.1 L1315.0,-646.9 L1349.2,-603.5 L1390.1,-576.2 L1406.2,-573.6 L1420.6,-571.9 L1432.8,-571.4 L1448.4,-572.5 L1465.3,-575.3 L1479.0,-579.2 L1490.6,-584.6 L1498.3,-589.1 L1504.0,-595.1 L1513.6,-606.7 L1524.0,-625.7 L1535.3,-650.9 L1555.4,-640.6 L1563.4,-637.9 L1572.0,-636.7 L1585.7,-637.6 L1594.8,-640.3 L1605.2,-644.8 L1614.9,-650.4 L1625.2,-660.4 L1634.0,-668.4 L1645.0,-675.9 L1652.6,-680.8 L1663.8,-684.8 L1683.1,-690.4 L1694.5,-693.6 L1706.7,-698.2 L1717.3,-703.7 L1723.6,-707.3 L1728.6,-712.5 L1794.0,-745.3 L1796.5,-746.7 L1799.4,-748.5 L1802.4,-750.8 L1806.8,-753.3 L1809.7,-754.7 L1812.8,-757.4 L1815.2,-759.9 L1818.4,-762.0 L1821.8,-764.4 L1826.3,-768.6 L1832.7,-769.1 L1839.3,-769.9 L1843.6,-771.3 L1849.2,-773.9 L1856.1,-777.0 L1863.4,-781.5 L1867.5,-785.4 L1872.1,-790.7 L1875.0,-795.6 L1876.6,-800.1 L1876.7,-803.3 L1876.8,-805.9 L1878.4,-816.3 L1914.8,-837.4 L1978.6,-874.2 L1991.0,-881.3 L2099.2,-943.7 L2216.4,-1011.0 L2266.3,-1039.6 L2283.6,-1049.3 L2428.5,-1133.5 L2460.7,-1151.2 L2460.2,-1152.3 L2526.5,-1189.8 L2552.0,-1204.1 L2599.0,-1230.1 L2599.5,-1229.4 L2617.7,-1239.4 L2661.9,-1264.1 L2667.2,-1268.9 L2712.0,-1301.7 L2734.3,-1320.2 L2754.8,-1337.5 L2764.2,-1342.8 L2785.4,-1363.8 L2787.2,-1362.7 L2790.0,-1363.0 L2791.4,-1362.1 L2821.2,-1397.0 L2813.7,-1404.0 L2814.7,-1405.8 L2817.9,-1410.4 L2826.5,-1421.3 L2831.7,-1429.2 L2835.8,-1435.7 L2841.5,-1444.4 L2847.0,-1453.4 L2853.2,-1463.7 L2859.6,-1474.9 L2873.5,-1503.6 L2877.8,-1512.7 L2881.3,-1520.0 L2883.7,-1525.5 L2885.8,-1529.7 L2890.2,-1540.7 L2774.4,-1756.7 L2772.2,-1760.8 L2770.5,-1763.1 L2769.3,-1764.8 L2767.7,-1766.2 L2766.2,-1767.2 L2764.2,-1768.4 L2762.1,-1769.2 L2760.3,-1769.6 L2758.5,-1769.8 L2755.8,-1769.8 L2752.7,-1769.3 L2750.0,-1768.5 L2747.2,-1767.1 L2720.3,-1751.6 L2685.2,-1731.5 L2660.7,-1717.9 L2616.0,-1693.3 L2588.6,-1678.4 L2589.6,-1676.7 L2577.9,-1670.0 L2539.6,-1650.2 L2511.2,-1633.4 L2494.5,-1624.1 L2469.1,-1609.5 L2466.2,-1607.5 L2443.9,-1647.6 L2487.7,-1671.6 L2547.5,-1704.1 L2588.2,-1726.7 L2593.2,-1729.6 L2592.5,-1730.7 L2627.7,-1749.9 L2646.4,-1760.2 L2689.3,-1781.1 L2697.5,-1785.3 L2762.2,-1821.3 L2786.5,-1834.7 L2803.6,-1843.9 L2823.8,-1855.5 L2851.8,-1804.9 L2807.8,-1780.8 L2805.5,-1777.1 L2804.6,-1773.2 L2804.2,-1770.2 L2804.1,-1767.6 L2804.3,-1765.5 L2805.1,-1762.6 L2894.8,-1596.7 L2896.5,-1594.2 L2898.5,-1592.3 L2900.5,-1591.0 L2902.6,-1590.3 L2904.9,-1590.0 L2907.1,-1590.2 L2908.8,-1590.7 L2948.6,-1620.9 L2967.3,-1636.6 L2986.6,-1652.9 L2993.9,-1659.6 L3017.8,-1679.2 L3018.9,-1679.2 L3042.1,-1699.0 L3042.2,-1700.2 L3057.4,-1712.7 L3069.4,-1722.5 L3090.0,-1739.5 L3091.9,-1737.2 L3112.1,-1753.9 L3122.3,-1762.4 L3150.6,-1785.9 L3170.3,-1802.3 L3168.4,-1805.1 L3174.9,-1810.6 L3185.6,-1819.4 L3192.2,-1825.2 L3220.1,-1837.7 L3239.0,-1844.3 L3248.7,-1848.9 L3275.9,-1849.1 L3285.4,-1849.1 L3305.5,-1848.1 L3329.0,-1847.1 L3330.7,-1848.7 L3333.0,-1845.7 L3340.4,-1845.3 L3407.7,-1839.5 L3415.6,-1837.8 L3422.5,-1836.7 L3438.1,-1835.4 L3467.2,-1834.0 L3473.6,-1833.9 L3479.6,-1834.1 L3502.9,-1835.0 L3514.9,-1835.6 L3526.8,-1836.7 L3545.1,-1838.6 L3545.0,-1837.5 L3559.5,-1840.0 L3573.2,-1842.6 L3583.7,-1844.5 L3597.5,-1854.9 L3599.1,-1852.7 L3600.8,-1850.3 L3722.4,-1689.5 L4015.9,-1588.3 L4554.5,-1983.9 L4701.3,-2089.6 L4758.0,-2210.6 L4667.8,-2328.8 L4671.8,-2345.7 L4687.6,-2350.0 L4718.0,-2343.7 L4739.6,-2351.8 L4745.6,-2360.2 L4744.3,-2367.5 L4728.2,-2399.1 L4727.1,-2410.9 L4726.2,-2434.3 L4723.4,-2456.9 L4726.2,-2460.9 L4735.3,-2465.3 L4746.4,-2467.8 L4754.4,-2476.4 L4756.2,-2486.8 L4749.4,-2506.9 L4748.7,-2520.8 L4750.9,-2536.6 L4761.9,-2564.3 L4759.6,-2577.1 L4754.1,-2591.4 L4753.9,-2610.8 L4750.7,-2636.4 L4744.9,-2652.4 L4741.3,-2660.8 L4743.7,-2664.5 L4746.0,-2664.3 L4746.6,-2665.8 L4746.9,-2667.8 L4746.8,-2669.8 L4743.3,-2670.2 L4741.1,-2673.3 L4741.5,-2677.0 L4738.5,-2677.8 L4734.8,-2677.9 L4734.3,-2677.0 L4726.7,-2686.0 L4725.1,-2688.8 L4723.8,-2692.7 L4722.9,-2696.5 L4722.2,-2700.5 L4721.9,-2704.5 L4721.7,-2708.1 L4721.7,-2711.8 L4722.0,-2713.8 L4723.6,-2718.8 L4725.4,-2722.8 L4727.7,-2726.7 L4731.1,-2731.6 L4734.6,-2736.3 L4737.9,-2739.7 L4742.0,-2742.8 L4742.8,-2742.0 L4777.9,-2768.8 L4783.0,-2772.7 L4782.0,-2774.2 L4782.0,-2776.8 L4790.7,-2783.6 L4792.9,-2783.5 L4795.0,-2782.0 L4798.7,-2784.8 L4834.7,-2812.1 L4834.3,-2813.0 L4838.5,-2816.1 L4843.5,-2819.2 L4847.0,-2820.8 L4852.0,-2822.7 L4856.3,-2823.9 L4860.6,-2824.5 L4865.3,-2824.9 L4868.1,-2824.7 L4872.0,-2824.1 L4875.8,-2822.8 L4878.6,-2821.4 L4881.3,-2819.8 L4883.3,-2818.3 L4885.0,-2816.7 L4887.5,-2814.3 L4888.6,-2813.9 L4890.4,-2813.9 L4892.2,-2814.2 L4897.7,-2818.1 L4897.7,-2819.2 L4898.3,-2820.0 L4898.9,-2821.1 L4898.8,-2822.4 L4898.5,-2823.5 L4897.7,-2824.5 L4893.8,-2828.4 L4890.7,-2830.9 L4887.1,-2832.9 L4881.2,-2835.5 L4876.1,-2837.5 L4885.0,-2842.1 L4895.9,-2849.7 L4909.4,-2851.4 L4922.9,-2850.5 L4931.7,-2854.0 L4939.4,-2865.0 L4968.4,-2916.9 L4980.2,-2938.3 L4989.5,-2961.1 L4991.1,-2965.9 L5004.9,-3008.2 L5007.1,-3012.3 L5009.7,-3016.4 L5042.1,-3056.5 L5049.0,-3063.7 L5054.1,-3068.1 L5126.7,-3130.3 L5130.7,-3133.0 L5143.1,-3139.8 L5158.0,-3148.2 L5204.4,-3172.5 L5305.5,-3226.8 L5307.9,-3224.9 L5309.8,-3224.2 L5311.5,-3223.7 L5313.3,-3224.0 L5315.2,-3224.4 L5320.6,-3225.5 L5326.9,-3226.9 L5332.6,-3228.2 L5338.5,-3229.3 L5341.7,-3230.0 L5346.1,-3231.3 L5351.1,-3233.4 L5363.2,-3240.0 L5367.6,-3242.4 L5369.9,-3243.8 L5372.2,-3244.8 L5381.6,-3248.8 L5391.9,-3252.8 L5404.9,-3258.4 L5420.2,-3264.7 L5420.8,-3265.0 L5422.1,-3265.1 L5423.8,-3265.6 L5426.2,-3267.4 L5428.9,-3268.4 L5431.9,-3269.9 L5437.5,-3273.1 L5439.5,-3275.1 L5442.8,-3277.2 L5442.5,-3277.8 L5443.9,-3279.5 L5445.7,-3281.4 L5448.7,-3282.9 L5451.2,-3283.9 L5453.9,-3284.9 L5456.4,-3286.2 L5461.3,-3289.3 L5462.7,-3290.7 L5464.1,-3292.9 L5464.7,-3294.5 L5464.9,-3296.1 L5464.7,-3297.6 L5465.0,-3299.1 L5451.0,-3316.0 L5495.1,-3341.9 L5516.0,-3353.0 L5520.1,-3354.3 L5526.5,-3353.1 L5533.6,-3343.2 L5536.8,-3340.4 L5539.7,-3339.0 L5542.4,-3338.4 L5544.9,-3338.5 L5582.7,-3354.1 L5593.0,-3359.1 L5602.6,-3364.4 L5618.1,-3372.6 L5621.3,-3373.7 L5836.1,-3463.0 L5903.3,-3495.3 L6203.8,-3639.6 L13216.9,-3697.6 L13216.9,6338.0 L-1770.8,6338.0 L-1770.8,5911.5 Z" fill="#add7e1" stroke="none"><title>Biscayne Bay</title></path><path d="M362.9,44.7 L335.3,161.5 L233.3,137.2 L261.0,20.3 L362.9,44.7 Z" fill="#add7e1" stroke="#78b8c7" stroke-width="0.55"><title>Grove Harbour Marina</title></path><path d="M700.6,298.9 L751.3,96.4 L661.4,-12.1 L558.5,-40.5 L471.3,-12.5 L273.8,-61.4 L224.9,138.2 L334.1,166.6 L362.5,185.1 L396.0,194.6 L407.9,200.5 L549.4,235.6 L558.9,262.4 L700.6,298.9 Z" fill="#add7e1" stroke="#78b8c7" stroke-width="0.55"><title>Grove Harbour Marina</title></path><path d="M33.0,488.9 L27.6,468.2 L21.0,464.4 L12.6,432.0 L16.3,425.1 L13.0,412.9 L12.4,405.9 L13.3,399.5 L15.5,393.9 L18.5,389.6 L23.9,385.7 L31.6,382.0 L43.4,378.3 L53.9,376.0 L62.5,374.9 L69.7,372.3 L76.0,367.4 L81.9,358.0 L83.6,350.9 L82.1,338.9 L80.3,336.5 L77.2,332.5 L-59.1,202.6 L-64.0,198.6 L-68.5,197.3 L-74.1,197.4 L-79.4,198.7 L-84.6,202.9 L-92.0,213.1 L-167.9,328.6 L-200.8,374.6 L-214.9,389.2 L-248.3,418.0 L-259.2,426.9 L-264.3,432.7 L-266.9,437.7 L-268.6,446.7 L-268.6,454.3 L-266.4,517.2 L-265.9,520.7 L-255.7,581.6 L-254.8,586.4 L-253.8,587.7 L-251.2,590.5 L-240.3,597.6 L-230.1,602.4 L-214.3,613.1 L-208.1,619.1 L-203.6,624.4 L-200.6,629.7 L-198.1,638.9 L-180.6,701.7 L-177.6,707.1 L-172.6,711.2 L-166.9,712.9 L-162.4,712.6 L69.2,652.0 L69.2,651.1 L70.2,650.8 L71.5,649.5 L73.0,646.8 L73.6,644.0 L73.2,641.8 L33.0,488.9 Z" fill="#d5f2cb" stroke="#9fcf91" stroke-width="0.4"><title>Regatta Park</title></path><path d="M33.0,488.9 L27.6,468.2 L21.0,464.4 L12.6,432.0 L16.3,425.1 L13.0,412.9 L12.4,405.9 L13.3,399.5 L15.5,393.9 L18.5,389.6 L23.9,385.7 L31.6,382.0 L43.4,378.3 L53.9,376.0 L62.5,374.9 L69.7,372.3 L76.0,367.4 L81.9,358.0 L83.6,350.9 L82.1,338.9 L80.3,336.5 L77.2,332.5 L-59.1,202.6 L-64.0,198.6 L-68.5,197.3 L-74.1,197.4 L-79.4,198.7 L-84.6,202.9 L-92.0,213.1 L-167.9,328.6 L-200.8,374.6 L-214.9,389.2 L-248.3,418.0 L-259.2,426.9 L-264.3,432.7 L-266.9,437.7 L-268.6,446.7 L-268.6,454.3 L-266.4,517.2 L-265.9,520.7 L-255.7,581.6 L-254.8,586.4 L-253.8,587.7 L-251.2,590.5 L-240.3,597.6 L-230.1,602.4 L-214.3,613.1 L-208.1,619.1 L-203.6,624.4 L-200.6,629.7 L-198.1,638.9 L-180.6,701.7 L-177.6,707.1 L-172.6,711.2 L-166.9,712.9 L-162.4,712.6 L69.2,652.0 L69.2,651.1 L70.2,650.8 L71.5,649.5 L73.0,646.8 L73.6,644.0 L73.2,641.8 L33.0,488.9 Z" fill="url(#park-dots)" stroke="none"/><path d="M33.0,488.9 L27.6,468.2 L21.0,464.4 L12.6,432.0 L16.3,425.1 L13.0,412.9 L12.4,405.9 L13.3,399.5 L15.5,393.9 L18.5,389.6 L23.9,385.7 L31.6,382.0 L43.4,378.3 L53.9,376.0 L62.5,374.9 L69.7,372.3 L76.0,367.4 L81.9,358.0 L83.6,350.9 L82.1,338.9 L80.3,336.5 L77.2,332.5 L-59.1,202.6 L-64.0,198.6 L-68.5,197.3 L-74.1,197.4 L-79.4,198.7 L-84.6,202.9 L-92.0,213.1 L-167.9,328.6 L-200.8,374.6 L-214.9,389.2 L-248.3,418.0 L-259.2,426.9 L-264.3,432.7 L-266.9,437.7 L-268.6,446.7 L-268.6,454.3 L-266.4,517.2 L-265.9,520.7 L-255.7,581.6 L-254.8,586.4 L-253.8,587.7 L-251.2,590.5 L-240.3,597.6 L-230.1,602.4 L-214.3,613.1 L-208.1,619.1 L-203.6,624.4 L-200.6,629.7 L-198.1,638.9 L-180.6,701.7 L-177.6,707.1 L-172.6,711.2 L-166.9,712.9 L-162.4,712.6 L69.2,652.0 L69.2,651.1 L70.2,650.8 L71.5,649.5 L73.0,646.8 L73.6,644.0 L73.2,641.8 L33.0,488.9 Z" fill="url(#park-canopy)" stroke="none"/><path d="M12.9,122.1 L195.3,165.0 L177.8,241.1 L24.4,206.1 L-15.4,168.4 L-17.0,164.9 L-18.0,161.5 L-18.4,158.2 L-17.8,155.3 L-16.0,152.1 L12.9,122.1 Z" fill="#d6d2c9" stroke="#bab6ad" stroke-width="0.4"></path><path d="M327.5,191.6 L246.3,172.6 L227.9,251.6 L309.1,270.5 L327.5,191.6 Z" fill="#d6d2c9" stroke="#bab6ad" stroke-width="0.4"></path><path d="M-60.2,184.3 L-18.7,223.5 L92.5,329.4" fill="none" stroke="#cec8bb" stroke-width="4.5" stroke-linecap="round" stroke-linejoin="round"/><path d="M-60.2,184.3 L-18.7,223.5 L92.5,329.4" fill="none" stroke="#ffffff" stroke-width="3.4" stroke-linecap="round" stroke-linejoin="round"><title>Pan American Drive</title></path><path d="M123.8,339.7 L52.5,269.5 L-49.6,168.8" fill="none" stroke="#cec8bb" stroke-width="4.5" stroke-linecap="round" stroke-linejoin="round"/><path d="M123.8,339.7 L52.5,269.5 L-49.6,168.8" fill="none" stroke="#ffffff" stroke-width="3.4" stroke-linecap="round" stroke-linejoin="round"><title>Pan American Drive</title></path><path d="M122.9,-69.3 L92.0,-29.4 L63.4,9.2" fill="none" stroke="#cf828d" stroke-width="1.5" stroke-dasharray="1.6 3.0" opacity="0.62" stroke-linecap="round" stroke-linejoin="round"></path><path d="M72.3,333.1 L-35.3,230.3 L-59.0,207.7" fill="none" stroke="#cf828d" stroke-width="1.5" stroke-dasharray="1.6 3.0" opacity="0.62" stroke-linecap="round" stroke-linejoin="round"></path><path d="M53.9,25.0 L44.3,40.1 L37.4,42.0 L29.6,53.3 L26.7,58.1 L20.5,73.5 L-2.6,104.3 L-14.9,116.6 L-25.1,127.2 L-31.7,135.4 L-39.0,145.1 L-41.3,150.8 L-41.0,156.5 L-43.4,159.7" fill="none" stroke="#cf828d" stroke-width="1.5" stroke-dasharray="1.6 3.0" opacity="0.62" stroke-linecap="round" stroke-linejoin="round"></path><path d="M63.4,9.2 L58.9,16.7 L53.9,25.0" fill="none" stroke="#cf828d" stroke-width="1.5" stroke-dasharray="1.6 3.0" opacity="0.62" stroke-linecap="round" stroke-linejoin="round"></path><path d="M-58.2,83.7 L-47.9,69.4 L0.4,3.7 L6.9,-5.0 L31.4,-38.1 L72.2,-93.2" fill="none" stroke="#cf828d" stroke-width="1.5" stroke-dasharray="1.6 3.0" opacity="0.62" stroke-linecap="round" stroke-linejoin="round"></path><path d="M-41.0,156.5 L-38.5,162.0 L28.0,225.4 L59.1,255.0 L61.3,257.2 L64.7,260.4 L97.4,291.5 L109.0,302.6 L122.4,315.4" fill="none" stroke="#cf828d" stroke-width="1.5" stroke-dasharray="1.6 3.0" opacity="0.62" stroke-linecap="round" stroke-linejoin="round"></path><path d="M212.1,161.5 L198.7,158.6 L20.9,115.6 L12.1,113.7 L4.6,109.5" fill="none" stroke="#cf828d" stroke-width="1.5" stroke-dasharray="1.6 3.0" opacity="0.62" stroke-linecap="round" stroke-linejoin="round"></path><path d="M156.4,347.8 L169.8,287.6 L172.2,276.9 L173.5,271.5 L176.9,256.1 L178.7,248.1 L198.7,158.6" fill="none" stroke="#cf828d" stroke-width="1.5" stroke-dasharray="1.6 3.0" opacity="0.62" stroke-linecap="round" stroke-linejoin="round"></path><path d="M189.5,379.3 L216.5,265.7 L218.5,257.3 L219.9,251.3 L239.4,168.4" fill="none" stroke="#cf828d" stroke-width="1.5" stroke-dasharray="1.6 3.0" opacity="0.62" stroke-linecap="round" stroke-linejoin="round"></path><path d="M227.0,165.2 L239.4,168.4 L331.8,191.4" fill="none" stroke="#cf828d" stroke-width="1.5" stroke-dasharray="1.6 3.0" opacity="0.62" stroke-linecap="round" stroke-linejoin="round"></path><path d="M219.9,251.3 L303.0,271.4 L370.7,287.6" fill="none" stroke="#cf828d" stroke-width="1.5" stroke-dasharray="1.6 3.0" opacity="0.62" stroke-linecap="round" stroke-linejoin="round"></path><path d="M212.1,161.5 L218.8,163.1 L227.0,165.2" fill="none" stroke="#cf828d" stroke-width="1.5" stroke-dasharray="1.6 3.0" opacity="0.62" stroke-linecap="round" stroke-linejoin="round"></path><path d="M12.1,113.7 L32.9,74.4 L36.8,57.8 L44.6,46.9 L44.3,40.1" fill="none" stroke="#cf828d" stroke-width="1.5" stroke-dasharray="1.6 3.0" opacity="0.62" stroke-linecap="round" stroke-linejoin="round"></path><path d="M0.9,106.9 L4.6,109.5" fill="none" stroke="#b87984" stroke-width="1.4" stroke-dasharray="1.6 3.0" opacity="0.62" stroke-linecap="round" stroke-linejoin="round"></path><path d="M28.0,225.4 L37.6,222.8 L176.9,256.1" fill="none" stroke="#cf828d" stroke-width="1.5" stroke-dasharray="1.6 3.0" opacity="0.62" stroke-linecap="round" stroke-linejoin="round"></path><path d="M191.3,251.0 L199.8,253.0 L204.9,254.2" fill="none" stroke="#cf828d" stroke-width="1.5" stroke-dasharray="1.6 3.0" opacity="0.62" stroke-linecap="round" stroke-linejoin="round"></path><path d="M204.9,254.2 L218.5,257.3" fill="none" stroke="#cf828d" stroke-width="1.5" stroke-dasharray="1.6 3.0" opacity="0.62" stroke-linecap="round" stroke-linejoin="round"></path><path d="M178.7,248.1 L191.3,251.0" fill="none" stroke="#cf828d" stroke-width="1.5" stroke-dasharray="1.6 3.0" opacity="0.62" stroke-linecap="round" stroke-linejoin="round"></path><path d="M0.9,106.9 L-2.6,104.3" fill="none" stroke="#cf828d" stroke-width="1.5" stroke-dasharray="1.6 3.0" opacity="0.62" stroke-linecap="round" stroke-linejoin="round"></path><path d="M28.9,-10.0 L49.2,7.8 L58.9,16.7 L76.3,38.2 L74.2,52.2 L86.7,69.7 L115.0,118.0 L219.2,142.1 L224.0,144.4 L329.7,169.3" fill="none" stroke="#cec8bb" stroke-width="3.5" stroke-linecap="round" stroke-linejoin="round"/><path d="M28.9,-10.0 L49.2,7.8 L58.9,16.7 L76.3,38.2 L74.2,52.2 L86.7,69.7 L115.0,118.0 L219.2,142.1 L224.0,144.4 L329.7,169.3" fill="none" stroke="#ffffff" stroke-width="2.5" stroke-linecap="round" stroke-linejoin="round"><title>Charthouse Drive</title></path><path d="M366.2,-46.4 L269.7,-67.6" fill="none" stroke="#cec8bb" stroke-width="3.5" stroke-linecap="round" stroke-linejoin="round"/><path d="M366.2,-46.4 L269.7,-67.6" fill="none" stroke="#ffffff" stroke-width="2.5" stroke-linecap="round" stroke-linejoin="round"></path><path d="M154.1,-57.5 L137.0,-36.1 L112.4,-5.1 L103.7,5.8 L90.6,28.3 L76.3,38.2" fill="none" stroke="#cec8bb" stroke-width="3.5" stroke-linecap="round" stroke-linejoin="round"/><path d="M154.1,-57.5 L137.0,-36.1 L112.4,-5.1 L103.7,5.8 L90.6,28.3 L76.3,38.2" fill="none" stroke="#ffffff" stroke-width="2.5" stroke-linecap="round" stroke-linejoin="round"></path><path d="M245.5,30.1 L112.4,-5.1" fill="none" stroke="#cec8bb" stroke-width="3.5" stroke-linecap="round" stroke-linejoin="round"/><path d="M245.5,30.1 L112.4,-5.1" fill="none" stroke="#ffffff" stroke-width="2.5" stroke-linecap="round" stroke-linejoin="round"></path><path d="M109.2,69.9 L227.6,101.5" fill="none" stroke="#cec8bb" stroke-width="3.5" stroke-linecap="round" stroke-linejoin="round"/><path d="M109.2,69.9 L227.6,101.5" fill="none" stroke="#ffffff" stroke-width="2.5" stroke-linecap="round" stroke-linejoin="round"></path><path d="M90.6,28.3 L148.9,43.9 L236.8,65.3" fill="none" stroke="#cec8bb" stroke-width="3.5" stroke-linecap="round" stroke-linejoin="round"/><path d="M90.6,28.3 L148.9,43.9 L236.8,65.3" fill="none" stroke="#ffffff" stroke-width="2.5" stroke-linecap="round" stroke-linejoin="round"></path><path d="M219.2,142.1 L227.6,101.5 L236.8,65.3 L245.5,30.1 L254.7,-7.3 L263.3,-41.8 L269.7,-67.6" fill="none" stroke="#cec8bb" stroke-width="3.5" stroke-linecap="round" stroke-linejoin="round"/><path d="M219.2,142.1 L227.6,101.5 L236.8,65.3 L245.5,30.1 L254.7,-7.3 L263.3,-41.8 L269.7,-67.6" fill="none" stroke="#ffffff" stroke-width="2.5" stroke-linecap="round" stroke-linejoin="round"></path><path d="M180.5,339.5 L194.6,276.5 L199.8,253.0 L218.8,163.1 L224.0,144.4" fill="none" stroke="#cec8bb" stroke-width="3.5" stroke-linecap="round" stroke-linejoin="round"/><path d="M180.5,339.5 L194.6,276.5 L199.8,253.0 L218.8,163.1 L224.0,144.4" fill="none" stroke="#ffffff" stroke-width="2.5" stroke-linecap="round" stroke-linejoin="round"></path><path d="M74.2,52.2 L64.4,55.8 L48.9,104.4 L115.0,118.0" fill="none" stroke="#cec8bb" stroke-width="3.5" stroke-linecap="round" stroke-linejoin="round"/><path d="M74.2,52.2 L64.4,55.8 L48.9,104.4 L115.0,118.0" fill="none" stroke="#ffffff" stroke-width="2.5" stroke-linecap="round" stroke-linejoin="round"></path><path d="M52.5,269.5 L61.3,257.2 L65.9,250.7 L68.8,248.7 L72.5,247.8 L75.8,248.0 L173.5,271.5 L194.6,276.5" fill="none" stroke="#cec8bb" stroke-width="3.5" stroke-linecap="round" stroke-linejoin="round"/><path d="M52.5,269.5 L61.3,257.2 L65.9,250.7 L68.8,248.7 L72.5,247.8 L75.8,248.0 L173.5,271.5 L194.6,276.5" fill="none" stroke="#ffffff" stroke-width="2.5" stroke-linecap="round" stroke-linejoin="round"></path><path d="M18.7,3.6 L6.9,-5.0 L-0.2,-10.4 L-7.0,-17.4" fill="none" stroke="#cec8bb" stroke-width="3.5" stroke-linecap="round" stroke-linejoin="round"/><path d="M18.7,3.6 L6.9,-5.0 L-0.2,-10.4 L-7.0,-17.4" fill="none" stroke="#ffffff" stroke-width="2.5" stroke-linecap="round" stroke-linejoin="round"></path><path d="M63.6,-57.3 L53.9,-44.4 L42.3,-28.5 L28.9,-10.0 L18.7,3.6 L-2.4,32.1" fill="none" stroke="#d1c4aa" stroke-width="6.4" stroke-linecap="round" stroke-linejoin="round"/><path d="M63.6,-57.3 L53.9,-44.4 L42.3,-28.5 L28.9,-10.0 L18.7,3.6 L-2.4,32.1" fill="none" stroke="#f1c77d" stroke-width="5.0" stroke-linecap="round" stroke-linejoin="round"><title>South Bayshore Drive</title></path><path d="M-60.4,158.3 L0.7,74.6 L49.2,7.8 L103.9,-61.4" fill="none" stroke="#d1c4aa" stroke-width="6.4" stroke-linecap="round" stroke-linejoin="round"/><path d="M-60.4,158.3 L0.7,74.6 L49.2,7.8 L103.9,-61.4" fill="none" stroke="#f1c77d" stroke-width="5.0" stroke-linecap="round" stroke-linejoin="round"><title>South Bayshore Drive</title></path><text x="167.1" y="130.0" transform="rotate(13.0 167.1 130.0)" text-anchor="middle" dominant-baseline="central" font-family="Arial, sans-serif" font-size="8.3" textLength="85.0" lengthAdjust="spacing" font-weight="650" paint-order="stroke" stroke="#fffaf0" stroke-width="2.05" stroke-linejoin="round" fill="#695f54">Charthouse Drive</text><g><title>South Bayshore Drive &amp; Pan American Drive</title><rect x="9.3" y="83.0" width="6.9" height="6.1" rx="1.3" fill="#2796c9" stroke="#ffffff" stroke-width="1.05"/><rect x="10.5" y="84.3" width="4.4" height="2.1" rx="0.35" fill="#ffffff"/><circle cx="10.8" cy="88.0" r="0.5" fill="#ffffff"/><circle cx="14.6" cy="88.0" r="0.5" fill="#ffffff"/></g><g opacity="0.56"><title>crossing</title><path d="M56.6,14.9 L61.2,14.9 M56.6,16.7 L61.2,16.7 M56.6,18.5 L61.2,18.5" stroke="#ffffff" stroke-width="2.1" stroke-linecap="round"/><path d="M56.6,14.9 L61.2,14.9 M56.6,16.7 L61.2,16.7 M56.6,18.5 L61.2,18.5" stroke="#59656a" stroke-width="0.85" stroke-linecap="round"/></g></svg>