<svg xmlns="http://www.w3.org/2000/svg" width="256" height="256" viewBox="0 0 256 256"><rect width="256" height="256" fill="#f1efe7"/><path d="M-6405.4,-5526.9 L-6298.0,-5571.5 L-6264.4,-5587.6 L-6114.1,-5659.8 L-6085.9,-5632.5 L-6083.4,-5630.2 L-6030.8,-5675.2 L-6018.2,-5684.8 L-5997.3,-5703.7 L-5879.2,-5812.1 L-5783.9,-5920.9 L-5780.3,-5927.8 L-5776.8,-5931.8 L-5771.2,-5938.1 L-5765.6,-5944.6 L-5763.3,-5947.3 L-5800.9,-5995.8 L-5751.2,-6025.6 L-5724.2,-5989.7 L-5686.1,-6033.3 L-5718.4,-6076.1 L-5678.4,-6117.7 L-5647.7,-6077.2 L-5612.3,-6117.4 L-5597.3,-6127.2 L-5523.7,-6175.0 L-5487.3,-6199.1 L-5443.5,-6228.0 L-5422.8,-6241.5 L-5370.4,-6275.4 L-5383.9,-6293.2 L-5408.1,-6325.5 L-5345.6,-6365.2 L-5322.8,-6377.0 L-5321.1,-6378.2 L-5309.1,-6387.5 L-5266.3,-6410.3 L-5263.3,-6415.0 L-5251.3,-6423.2 L-5244.8,-6432.7 L-5243.0,-6434.1 L-5232.6,-6438.1 L-5208.9,-6446.6 L-5192.8,-6453.7 L-5135.7,-6480.5 L-5135.0,-6478.6 L-5087.2,-6499.1 L-5067.7,-6474.0 L-5024.1,-6503.1 L-5017.9,-6507.3 L-5017.3,-6507.8 L-5016.7,-6508.6 L-5015.8,-6510.3 L-5015.2,-6511.8 L-5015.0,-6513.7 L-5015.0,-6515.2 L-5015.2,-6516.6 L-5015.4,-6518.3 L-5015.5,-6519.5 L-5015.4,-6520.6 L-5015.1,-6521.7 L-5014.3,-6523.7 L-5013.8,-6524.8 L-5012.6,-6526.7 L-5011.2,-6528.1 L-5004.9,-6530.7 L-4999.6,-6532.6 L-4992.8,-6534.8 L-4989.7,-6535.7 L-4984.1,-6537.5 L-4980.1,-6539.0 L-4974.7,-6541.2 L-4967.3,-6544.4 L-4959.3,-6548.2 L-4955.0,-6550.3 L-4949.6,-6553.0 L-4944.6,-6555.9 L-4939.5,-6558.9 L-4934.4,-6562.2 L-4932.8,-6563.3 L-4922.4,-6571.2 L-4913.7,-6577.9 L-4905.2,-6585.1 L-4897.2,-6592.6 L-4891.5,-6599.1 L-4885.8,-6606.0 L-4878.8,-6615.0 L-4872.4,-6624.0 L-4865.1,-6635.6 L-4860.3,-6644.5 L-4857.3,-6650.2 L-4852.8,-6659.9 L-4849.1,-6668.8 L-4845.7,-6678.4 L-4843.0,-6686.9 L-4840.1,-6700.6 L-4837.9,-6712.8 L-4836.7,-6723.4 L-4835.8,-6735.7 L-4835.6,-6749.0 L-4836.5,-6761.3 L-4838.6,-6777.2 L-4840.7,-6788.1 L-4843.3,-6798.5 L-4846.9,-6810.1 L-4850.1,-6819.1 L-4853.7,-6828.9 L-4857.1,-6836.9 L-4859.4,-6842.2 L-4860.4,-6846.0 L-4860.5,-6849.0 L-4860.2,-6851.6 L-4859.1,-6853.9 L-4857.5,-6855.9 L-4855.4,-6857.0 L-4853.2,-6857.3 L-4847.1,-6855.8 L-4830.3,-6851.8 L-4824.7,-6979.1 L-4802.8,-7206.4 L-4826.6,-7212.1 L-4829.2,-7219.2 L-4829.1,-7229.4 L-4825.8,-7252.7 L-4821.3,-7257.9 L-4817.3,-7273.1 L-4792.1,-7267.2 L-4778.1,-7412.4 L-4774.3,-7452.7 L-4782.1,-7454.6 L-4777.4,-7473.8 L-4793.6,-7477.6 L-4791.5,-7489.4 L-4788.7,-7497.1 L-4785.1,-7506.2 L-4779.1,-7518.8 L-4772.7,-7517.4 L-4763.9,-7608.7 L-4761.9,-7664.1 L-4761.5,-7674.3 L-4756.8,-7709.6 L-4747.4,-7797.5 L-4685.0,-7960.2 L-4670.8,-8004.5 L-4497.5,-8071.0 L-4480.5,-8077.8 L-4477.6,-8079.4 L-4475.2,-8081.5 L-4472.7,-8084.4 L-4470.8,-8087.9 L-4469.5,-8091.3 L-4469.1,-8096.2 L-4469.4,-8102.4 L-4471.7,-8180.1 L-4472.6,-8195.2 L-4472.8,-8205.6 L-4473.1,-8225.6 L-4473.5,-8231.9 L-4474.3,-8237.2 L-4475.4,-8242.0 L-4476.9,-8246.7 L-4479.3,-8252.4 L-4482.9,-8258.5 L-4486.5,-8263.3 L-4489.2,-8267.8 L-4491.9,-8273.8 L-4494.2,-8279.7 L-4495.1,-8284.4 L-4495.8,-8289.6 L-4496.1,-8294.9 L-4496.0,-8300.0 L-4495.4,-8305.9 L-4494.0,-8311.8 L-4492.1,-8317.0 L-4490.2,-8321.8 L-4487.7,-8326.4 L-4484.7,-8331.9 L-4482.6,-8337.0 L-4480.9,-8343.5 L-4477.7,-8348.3 L-4478.8,-8393.0 L-4480.4,-8395.5 L-4481.0,-8425.8 L-4481.8,-8461.6 L-4481.2,-8466.5 L-4479.6,-8471.6 L-4475.6,-8479.5 L-4448.9,-8537.0 L-4448.3,-8538.0 L-4443.6,-8548.2 L-4439.1,-8558.0 L-4434.2,-8568.0 L-4429.2,-8578.2 L-4426.8,-8583.3 L-4400.6,-8637.2 L-4372.5,-8696.8 L-4311.6,-8820.2 L-4348.2,-8861.1 L-4378.0,-8797.7 L-4403.8,-8742.7 L-4407.7,-8734.9 L-4415.6,-8718.7 L-4431.5,-8720.0 L-4435.9,-8720.3 L-4437.4,-8718.8 L-4435.3,-8716.9 L-4443.5,-8709.7 L-4449.9,-8703.7 L-4451.1,-8678.3 L-4453.5,-8673.2 L-4461.3,-8673.5 L-4462.6,-8674.0 L-4564.8,-8716.1 L-4567.0,-8717.3 L-4569.4,-8718.8 L-4573.0,-8721.6 L-4575.9,-8724.3 L-4578.3,-8726.9 L-4580.6,-8730.1 L-4582.4,-8732.9 L-4583.8,-8735.8 L-4585.0,-8738.9 L-4585.7,-8740.9 L-4586.2,-8743.5 L-4586.7,-8746.5 L-4587.1,-8750.6 L-4587.1,-8756.4 L-4587.8,-8776.3 L-4585.0,-8776.5 L-4585.4,-8786.9 L-4585.8,-8804.2 L-4583.2,-8804.3 L-4583.4,-8816.1 L-4586.3,-8816.0 L-4587.7,-8865.8 L-4584.9,-8865.9 L-4585.4,-8877.5 L-4588.1,-8877.4 L-4589.2,-8914.2 L-4575.7,-8928.7 L-4558.5,-8929.3 L-4545.6,-8929.8 L-4528.7,-8930.3 L-4512.4,-8930.9 L-4497.7,-8931.4 L-4491.4,-8931.6 L-4491.7,-8937.3 L-4491.8,-8943.2 L-4492.8,-8962.3 L-4493.1,-8998.9 L-4493.6,-8999.5 L-4493.7,-9003.2 L-4492.6,-9003.2 L-4495.2,-9091.3 L-4497.4,-9174.1 L-4497.8,-9176.7 L-4498.0,-9181.5 L-4534.1,-9180.2 L-4558.1,-9182.3 L-4737.7,-9176.0 L-4737.7,-9177.6 L-4738.1,-9185.3 L-4823.3,-9182.3 L-4823.5,-9196.4 L-4834.7,-9198.9 L-4836.7,-9259.5 L-4505.3,-9271.0 L-4499.8,-9278.6 L-4500.0,-9300.1 L-4500.4,-9318.6 L-4500.7,-9330.3 L-4501.2,-9341.6 L-4527.5,-9354.1 L-4528.6,-9381.6 L-4501.5,-9395.0 L-4504.0,-9458.7 L-4504.7,-9461.9 L-4531.5,-9474.4 L-4532.4,-9508.5 L-4506.9,-9521.7 L-4518.3,-9660.1 L-4515.2,-9721.8 L-4513.8,-9822.2 L-4513.9,-9931.4 L-4511.5,-9946.8 L-4511.3,-9954.1 L-4513.7,-9963.1 L-4511.2,-9963.1 L-4511.2,-9971.1 L-4509.7,-10176.6 L-4509.9,-10185.8 L-4512.8,-10185.7 L-4512.7,-10223.5 L-4514.4,-10225.9 L-4516.9,-10264.9 L-4511.8,-10300.5 L-4512.5,-10343.7 L-4514.2,-10354.0 L-4511.6,-10386.0 L-4513.4,-10424.6 L-4517.9,-10466.0 L-4526.4,-10533.0 L-4522.4,-10551.4 L-4524.1,-10569.4 L-4539.4,-10582.5 L-4561.9,-10582.2 L-4596.1,-10577.7 L-4618.3,-10577.7 L-4638.6,-10585.2 L-4665.1,-10603.4 L-4665.1,-10636.0 L-4665.8,-10676.2 L-4663.2,-10709.6 L-4654.4,-10735.7 L-4507.0,-10738.4 L-4503.7,-10947.4 L-4503.7,-11248.2 L-4505.2,-11357.4 L3450.9,-14643.2 L3450.9,3465.9 L-6405.4,3465.9 L-6405.4,-5526.9 Z" fill="#add7e1" stroke="none"><title>Biscayne Bay</title></path></svg>