<svg xmlns="http://www.w3.org/2000/svg" width="256" height="256" viewBox="0 0 256 256"><rect width="256" height="256" fill="#f1efe7"/><path d="M-1665.3,-165.7 L-1638.5,-176.9 L-1630.1,-180.9 L-1592.5,-199.0 L-1585.5,-192.1 L-1584.9,-191.5 L-1571.7,-202.8 L-1568.6,-205.2 L-1563.3,-209.9 L-1533.8,-237.0 L-1510.0,-264.2 L-1509.1,-266.0 L-1508.2,-267.0 L-1506.8,-268.5 L-1505.4,-270.1 L-1504.8,-270.8 L-1514.2,-283.0 L-1501.8,-290.4 L-1495.0,-281.4 L-1485.5,-292.3 L-1493.6,-303.0 L-1483.6,-313.4 L-1475.9,-303.3 L-1467.1,-313.4 L-1463.3,-315.8 L-1444.9,-327.8 L-1435.8,-333.8 L-1424.9,-341.0 L-1419.7,-344.4 L-1406.6,-352.9 L-1410.0,-357.3 L-1416.0,-365.4 L-1400.4,-375.3 L-1394.7,-378.2 L-1394.3,-378.6 L-1391.3,-380.9 L-1380.6,-386.6 L-1379.8,-387.7 L-1376.8,-389.8 L-1375.2,-392.2 L-1374.7,-392.5 L-1372.1,-393.5 L-1366.2,-395.7 L-1362.2,-397.4 L-1347.9,-404.1 L-1347.8,-403.7 L-1335.8,-408.8 L-1330.9,-402.5 L-1320.0,-409.8 L-1318.5,-410.8 L-1318.3,-411.0 L-1318.2,-411.2 L-1317.9,-411.6 L-1317.8,-412.0 L-1317.7,-412.4 L-1317.8,-412.8 L-1317.8,-413.2 L-1317.8,-413.6 L-1317.9,-413.9 L-1317.8,-414.1 L-1317.8,-414.4 L-1317.6,-414.9 L-1317.4,-415.2 L-1317.1,-415.7 L-1316.8,-416.0 L-1315.2,-416.7 L-1313.9,-417.2 L-1312.2,-417.7 L-1311.4,-417.9 L-1310.0,-418.4 L-1309.0,-418.7 L-1307.7,-419.3 L-1305.8,-420.1 L-1303.8,-421.1 L-1302.7,-421.6 L-1301.4,-422.3 L-1300.1,-423.0 L-1298.9,-423.7 L-1297.6,-424.6 L-1297.2,-424.8 L-1294.6,-426.8 L-1292.4,-428.5 L-1290.3,-430.3 L-1288.3,-432.2 L-1286.9,-433.8 L-1285.4,-435.5 L-1283.7,-437.7 L-1282.1,-440.0 L-1280.3,-442.9 L-1279.1,-445.1 L-1278.3,-446.6 L-1277.2,-449.0 L-1276.3,-451.2 L-1275.4,-453.6 L-1274.8,-455.7 L-1274.0,-459.2 L-1273.5,-462.2 L-1273.2,-464.8 L-1272.9,-467.9 L-1272.9,-471.2 L-1273.1,-474.3 L-1273.6,-478.3 L-1274.2,-481.0 L-1274.8,-483.6 L-1275.7,-486.5 L-1276.5,-488.8 L-1277.4,-491.2 L-1278.3,-493.2 L-1278.8,-494.5 L-1279.1,-495.5 L-1279.1,-496.2 L-1279.0,-496.9 L-1278.8,-497.5 L-1278.4,-498.0 L-1277.9,-498.2 L-1277.3,-498.3 L-1275.8,-498.0 L-1271.6,-496.9 L-1270.2,-528.8 L-1264.7,-585.6 L-1270.6,-587.0 L-1271.3,-588.8 L-1271.3,-591.4 L-1270.5,-597.2 L-1269.3,-598.5 L-1268.3,-602.3 L-1262.0,-600.8 L-1258.5,-637.1 L-1257.6,-647.2 L-1259.5,-647.7 L-1258.3,-652.5 L-1262.4,-653.4 L-1261.9,-656.3 L-1261.2,-658.3 L-1260.3,-660.6 L-1258.8,-663.7 L-1257.2,-663.4 L-1255.0,-686.2 L-1254.5,-700.0 L-1254.4,-702.6 L-1253.2,-711.4 L-1250.9,-733.4 L-1235.3,-774.0 L-1231.7,-785.1 L-1188.4,-801.7 L-1184.1,-803.4 L-1183.4,-803.8 L-1182.8,-804.4 L-1182.2,-805.1 L-1181.7,-806.0 L-1181.4,-806.8 L-1181.3,-808.1 L-1181.3,-809.6 L-1181.9,-829.0 L-1182.1,-832.8 L-1182.2,-835.4 L-1182.3,-840.4 L-1182.4,-842.0 L-1182.6,-843.3 L-1182.8,-844.5 L-1183.2,-845.7 L-1183.8,-847.1 L-1184.7,-848.6 L-1185.6,-849.8 L-1186.3,-851.0 L-1187.0,-852.5 L-1187.5,-853.9 L-1187.8,-855.1 L-1188.0,-856.4 L-1188.0,-857.7 L-1188.0,-859.0 L-1187.8,-860.5 L-1187.5,-861.9 L-1187.0,-863.3 L-1186.5,-864.4 L-1185.9,-865.6 L-1185.2,-867.0 L-1184.7,-868.3 L-1184.2,-869.9 L-1183.4,-871.1 L-1183.7,-882.2 L-1184.1,-882.9 L-1184.2,-890.5 L-1184.5,-899.4 L-1184.3,-900.6 L-1183.9,-901.9 L-1182.9,-903.9 L-1176.2,-918.3 L-1176.1,-918.5 L-1174.9,-921.1 L-1173.8,-923.5 L-1172.5,-926.0 L-1171.3,-928.6 L-1170.7,-929.8 L-1164.1,-943.3 L-1157.1,-958.2 L-1141.9,-989.0 L-1151.1,-999.3 L-1158.5,-983.4 L-1164.9,-969.7 L-1165.9,-967.7 L-1167.9,-963.7 L-1171.9,-964.0 L-1173.0,-964.1 L-1173.4,-963.7 L-1172.8,-963.2 L-1174.9,-961.4 L-1176.5,-959.9 L-1176.8,-953.6 L-1177.4,-952.3 L-1179.3,-952.4 L-1179.6,-952.5 L-1205.2,-963.0 L-1205.7,-963.3 L-1206.3,-963.7 L-1207.3,-964.4 L-1208.0,-965.1 L-1208.6,-965.7 L-1209.2,-966.5 L-1209.6,-967.2 L-1210.0,-968.0 L-1210.2,-968.7 L-1210.4,-969.2 L-1210.6,-969.9 L-1210.7,-970.6 L-1210.8,-971.7 L-1210.8,-973.1 L-1210.9,-978.1 L-1210.2,-978.1 L-1210.3,-980.7 L-1210.5,-985.1 L-1209.8,-985.1 L-1209.9,-988.0 L-1210.6,-988.0 L-1210.9,-1000.4 L-1210.2,-1000.5 L-1210.3,-1003.4 L-1211.0,-1003.4 L-1211.3,-1012.6 L-1207.9,-1016.2 L-1203.6,-1016.3 L-1200.4,-1016.5 L-1196.2,-1016.6 L-1192.1,-1016.7 L-1188.4,-1016.8 L-1186.8,-1016.9 L-1186.9,-1018.3 L-1187.0,-1019.8 L-1187.2,-1024.6 L-1187.3,-1033.7 L-1187.4,-1033.9 L-1187.4,-1034.8 L-1187.2,-1034.8 L-1187.8,-1056.8 L-1188.3,-1077.5 L-1188.4,-1078.2 L-1188.5,-1079.4 L-1197.5,-1079.1 L-1203.5,-1079.6 L-1248.4,-1078.0 L-1248.4,-1078.4 L-1248.5,-1080.3 L-1269.8,-1079.6 L-1269.9,-1083.1 L-1272.7,-1083.7 L-1273.2,-1098.9 L-1190.3,-1101.7 L-1188.9,-1103.6 L-1189.0,-1109.0 L-1189.1,-1113.7 L-1189.2,-1116.6 L-1189.3,-1119.4 L-1195.9,-1122.5 L-1196.1,-1129.4 L-1189.4,-1132.8 L-1190.0,-1148.7 L-1190.2,-1149.5 L-1196.9,-1152.6 L-1197.1,-1161.1 L-1190.7,-1164.4 L-1193.6,-1199.0 L-1192.8,-1214.4 L-1192.4,-1239.6 L-1192.5,-1266.9 L-1191.9,-1270.7 L-1191.8,-1272.5 L-1192.4,-1274.8 L-1191.8,-1274.8 L-1191.8,-1276.8 L-1191.4,-1328.1 L-1191.5,-1330.4 L-1192.2,-1330.4 L-1192.2,-1339.9 L-1192.6,-1340.5 L-1193.2,-1350.2 L-1192.0,-1359.1 L-1192.1,-1369.9 L-1192.5,-1372.5 L-1191.9,-1380.5 L-1192.3,-1390.2 L-1193.5,-1400.5 L-1195.6,-1417.3 L-1194.6,-1421.9 L-1195.0,-1426.4 L-1198.9,-1429.6 L-1204.5,-1429.6 L-1213.0,-1428.4 L-1218.6,-1428.4 L-1223.6,-1430.3 L-1230.3,-1434.8 L-1230.3,-1443.0 L-1230.5,-1453.0 L-1229.8,-1461.4 L-1227.6,-1467.9 L-1190.8,-1468.6 L-1189.9,-1520.8 L-1189.9,-1596.0 L-1190.3,-1623.3 L798.7,-2444.8 L798.7,2082.5 L-1665.3,2082.5 L-1665.3,-165.7 Z" fill="#add7e1" stroke="none"><title>Biscayne Bay</title></path></svg>