<svg xmlns="http://www.w3.org/2000/svg" width="256" height="256" viewBox="0 0 256 256"><rect width="256" height="256" fill="#f1efe7"/><path d="M-1665.3,-421.7 L-1638.5,-432.9 L-1630.1,-436.9 L-1592.5,-455.0 L-1585.5,-448.1 L-1584.9,-447.5 L-1571.7,-458.8 L-1568.6,-461.2 L-1563.3,-465.9 L-1533.8,-493.0 L-1510.0,-520.2 L-1509.1,-522.0 L-1508.2,-523.0 L-1506.8,-524.5 L-1505.4,-526.1 L-1504.8,-526.8 L-1514.2,-539.0 L-1501.8,-546.4 L-1495.0,-537.4 L-1485.5,-548.3 L-1493.6,-559.0 L-1483.6,-569.4 L-1475.9,-559.3 L-1467.1,-569.4 L-1463.3,-571.8 L-1444.9,-583.8 L-1435.8,-589.8 L-1424.9,-597.0 L-1419.7,-600.4 L-1406.6,-608.9 L-1410.0,-613.3 L-1416.0,-621.4 L-1400.4,-631.3 L-1394.7,-634.2 L-1394.3,-634.6 L-1391.3,-636.9 L-1380.6,-642.6 L-1379.8,-643.7 L-1376.8,-645.8 L-1375.2,-648.2 L-1374.7,-648.5 L-1372.1,-649.5 L-1366.2,-651.7 L-1362.2,-653.4 L-1347.9,-660.1 L-1347.8,-659.7 L-1335.8,-664.8 L-1330.9,-658.5 L-1320.0,-665.8 L-1318.5,-666.8 L-1318.3,-667.0 L-1318.2,-667.2 L-1317.9,-667.6 L-1317.8,-668.0 L-1317.7,-668.4 L-1317.8,-668.8 L-1317.8,-669.2 L-1317.8,-669.6 L-1317.9,-669.9 L-1317.8,-670.1 L-1317.8,-670.4 L-1317.6,-670.9 L-1317.4,-671.2 L-1317.1,-671.7 L-1316.8,-672.0 L-1315.2,-672.7 L-1313.9,-673.2 L-1312.2,-673.7 L-1311.4,-673.9 L-1310.0,-674.4 L-1309.0,-674.7 L-1307.7,-675.3 L-1305.8,-676.1 L-1303.8,-677.1 L-1302.7,-677.6 L-1301.4,-678.3 L-1300.1,-679.0 L-1298.9,-679.7 L-1297.6,-680.6 L-1297.2,-680.8 L-1294.6,-682.8 L-1292.4,-684.5 L-1290.3,-686.3 L-1288.3,-688.2 L-1286.9,-689.8 L-1285.4,-691.5 L-1283.7,-693.7 L-1282.1,-696.0 L-1280.3,-698.9 L-1279.1,-701.1 L-1278.3,-702.6 L-1277.2,-705.0 L-1276.3,-707.2 L-1275.4,-709.6 L-1274.8,-711.7 L-1274.0,-715.2 L-1273.5,-718.2 L-1273.2,-720.8 L-1272.9,-723.9 L-1272.9,-727.2 L-1273.1,-730.3 L-1273.6,-734.3 L-1274.2,-737.0 L-1274.8,-739.6 L-1275.7,-742.5 L-1276.5,-744.8 L-1277.4,-747.2 L-1278.3,-749.2 L-1278.8,-750.5 L-1279.1,-751.5 L-1279.1,-752.2 L-1279.0,-752.9 L-1278.8,-753.5 L-1278.4,-754.0 L-1277.9,-754.2 L-1277.3,-754.3 L-1275.8,-754.0 L-1271.6,-752.9 L-1270.2,-784.8 L-1264.7,-841.6 L-1270.6,-843.0 L-1271.3,-844.8 L-1271.3,-847.4 L-1270.5,-853.2 L-1269.3,-854.5 L-1268.3,-858.3 L-1262.0,-856.8 L-1258.5,-893.1 L-1257.6,-903.2 L-1259.5,-903.7 L-1258.3,-908.5 L-1262.4,-909.4 L-1261.9,-912.3 L-1261.2,-914.3 L-1260.3,-916.6 L-1258.8,-919.7 L-1257.2,-919.4 L-1255.0,-942.2 L-1254.5,-956.0 L-1254.4,-958.6 L-1253.2,-967.4 L-1250.9,-989.4 L-1235.3,-1030.0 L-1231.7,-1041.1 L-1188.4,-1057.7 L-1184.1,-1059.4 L-1183.4,-1059.8 L-1182.8,-1060.4 L-1182.2,-1061.1 L-1181.7,-1062.0 L-1181.4,-1062.8 L-1181.3,-1064.1 L-1181.3,-1065.6 L-1181.9,-1085.0 L-1182.1,-1088.8 L-1182.2,-1091.4 L-1182.3,-1096.4 L-1182.4,-1098.0 L-1182.6,-1099.3 L-1182.8,-1100.5 L-1183.2,-1101.7 L-1183.8,-1103.1 L-1184.7,-1104.6 L-1185.6,-1105.8 L-1186.3,-1107.0 L-1187.0,-1108.5 L-1187.5,-1109.9 L-1187.8,-1111.1 L-1188.0,-1112.4 L-1188.0,-1113.7 L-1188.0,-1115.0 L-1187.8,-1116.5 L-1187.5,-1117.9 L-1187.0,-1119.3 L-1186.5,-1120.4 L-1185.9,-1121.6 L-1185.2,-1123.0 L-1184.7,-1124.3 L-1184.2,-1125.9 L-1183.4,-1127.1 L-1183.7,-1138.2 L-1184.1,-1138.9 L-1184.2,-1146.5 L-1184.5,-1155.4 L-1184.3,-1156.6 L-1183.9,-1157.9 L-1182.9,-1159.9 L-1176.2,-1174.3 L-1176.1,-1174.5 L-1174.9,-1177.1 L-1173.8,-1179.5 L-1172.5,-1182.0 L-1171.3,-1184.6 L-1170.7,-1185.8 L-1164.1,-1199.3 L-1157.1,-1214.2 L-1141.9,-1245.0 L-1151.1,-1255.3 L-1158.5,-1239.4 L-1164.9,-1225.7 L-1165.9,-1223.7 L-1167.9,-1219.7 L-1171.9,-1220.0 L-1173.0,-1220.1 L-1173.4,-1219.7 L-1172.8,-1219.2 L-1174.9,-1217.4 L-1176.5,-1215.9 L-1176.8,-1209.6 L-1177.4,-1208.3 L-1179.3,-1208.4 L-1179.6,-1208.5 L-1205.2,-1219.0 L-1205.7,-1219.3 L-1206.3,-1219.7 L-1207.3,-1220.4 L-1208.0,-1221.1 L-1208.6,-1221.7 L-1209.2,-1222.5 L-1209.6,-1223.2 L-1210.0,-1224.0 L-1210.2,-1224.7 L-1210.4,-1225.2 L-1210.6,-1225.9 L-1210.7,-1226.6 L-1210.8,-1227.7 L-1210.8,-1229.1 L-1210.9,-1234.1 L-1210.2,-1234.1 L-1210.3,-1236.7 L-1210.5,-1241.1 L-1209.8,-1241.1 L-1209.9,-1244.0 L-1210.6,-1244.0 L-1210.9,-1256.4 L-1210.2,-1256.5 L-1210.3,-1259.4 L-1211.0,-1259.4 L-1211.3,-1268.6 L-1207.9,-1272.2 L-1203.6,-1272.3 L-1200.4,-1272.5 L-1196.2,-1272.6 L-1192.1,-1272.7 L-1188.4,-1272.8 L-1186.8,-1272.9 L-1186.9,-1274.3 L-1187.0,-1275.8 L-1187.2,-1280.6 L-1187.3,-1289.7 L-1187.4,-1289.9 L-1187.4,-1290.8 L-1187.2,-1290.8 L-1187.8,-1312.8 L-1188.3,-1333.5 L-1188.4,-1334.2 L-1188.5,-1335.4 L-1197.5,-1335.1 L-1203.5,-1335.6 L-1248.4,-1334.0 L-1248.4,-1334.4 L-1248.5,-1336.3 L-1269.8,-1335.6 L-1269.9,-1339.1 L-1272.7,-1339.7 L-1273.2,-1354.9 L-1190.3,-1357.7 L-1188.9,-1359.6 L-1189.0,-1365.0 L-1189.1,-1369.7 L-1189.2,-1372.6 L-1189.3,-1375.4 L-1195.9,-1378.5 L-1196.1,-1385.4 L-1189.4,-1388.8 L-1190.0,-1404.7 L-1190.2,-1405.5 L-1196.9,-1408.6 L-1197.1,-1417.1 L-1190.7,-1420.4 L-1193.6,-1455.0 L-1192.8,-1470.4 L-1192.4,-1495.6 L-1192.5,-1522.9 L-1191.9,-1526.7 L-1191.8,-1528.5 L-1192.4,-1530.8 L-1191.8,-1530.8 L-1191.8,-1532.8 L-1191.4,-1584.1 L-1191.5,-1586.4 L-1192.2,-1586.4 L-1192.2,-1595.9 L-1192.6,-1596.5 L-1193.2,-1606.2 L-1192.0,-1615.1 L-1192.1,-1625.9 L-1192.5,-1628.5 L-1191.9,-1636.5 L-1192.3,-1646.2 L-1193.5,-1656.5 L-1195.6,-1673.3 L-1194.6,-1677.9 L-1195.0,-1682.4 L-1198.9,-1685.6 L-1204.5,-1685.6 L-1213.0,-1684.4 L-1218.6,-1684.4 L-1223.6,-1686.3 L-1230.3,-1690.8 L-1230.3,-1699.0 L-1230.5,-1709.0 L-1229.8,-1717.4 L-1227.6,-1723.9 L-1190.8,-1724.6 L-1189.9,-1776.8 L-1189.9,-1852.0 L-1190.3,-1879.3 L798.7,-2700.8 L798.7,1826.5 L-1665.3,1826.5 L-1665.3,-421.7 Z" fill="#add7e1" stroke="none"><title>Biscayne Bay</title></path><path d="M-1.0,-1.0 L257.0,-1.0 L257.0,257.0 L-1.0,257.0 L-1.0,-1.0 Z" fill="#add7e1" stroke="none" fill-rule="evenodd"><title>Biscayne Bay</title></path></svg>