<svg xmlns="http://www.w3.org/2000/svg" width="256" height="256" viewBox="0 0 256 256"><rect width="256" height="256" fill="#f1efe7"/><path d="M-2570.7,-7469.7 L-2355.9,-7559.0 L-2288.7,-7591.3 L-1988.2,-7735.6 L-1931.8,-7681.0 L-1926.9,-7676.3 L-1821.5,-7766.5 L-1796.4,-7785.6 L-1754.5,-7823.4 L-1518.4,-8040.2 L-1327.9,-8257.8 L-1320.6,-8271.7 L-1313.6,-8279.6 L-1302.5,-8292.3 L-1291.2,-8305.2 L-1286.6,-8310.5 L-1361.7,-8407.6 L-1262.3,-8467.2 L-1208.4,-8395.5 L-1132.2,-8482.7 L-1196.7,-8568.1 L-1116.8,-8651.4 L-1055.3,-8570.4 L-984.7,-8650.8 L-954.6,-8670.5 L-807.4,-8766.0 L-734.7,-8814.3 L-647.1,-8871.9 L-605.7,-8899.1 L-500.8,-8966.8 L-527.8,-9002.3 L-576.1,-9067.0 L-451.2,-9146.4 L-405.7,-9169.9 L-402.2,-9172.4 L-378.2,-9190.9 L-292.6,-9236.7 L-286.7,-9245.9 L-262.7,-9262.4 L-249.7,-9281.4 L-246.0,-9284.2 L-225.1,-9292.3 L-177.9,-9309.2 L-145.6,-9323.4 L-31.5,-9377.0 L-30.1,-9373.3 L65.6,-9414.2 L104.7,-9364.1 L191.8,-9422.2 L204.2,-9430.7 L205.4,-9431.7 L206.6,-9433.3 L208.5,-9436.6 L209.5,-9439.7 L210.1,-9443.4 L210.0,-9446.4 L209.6,-9449.3 L209.2,-9452.6 L209.1,-9455.1 L209.3,-9457.2 L209.7,-9459.4 L211.3,-9463.4 L212.4,-9465.6 L214.9,-9469.4 L217.5,-9472.2 L230.2,-9477.3 L240.8,-9481.3 L254.3,-9485.7 L260.6,-9487.4 L271.8,-9491.1 L279.7,-9493.9 L290.6,-9498.4 L305.4,-9504.9 L321.4,-9512.4 L330.0,-9516.6 L340.8,-9522.1 L350.9,-9527.7 L361.0,-9533.7 L371.3,-9540.4 L374.5,-9542.6 L395.2,-9558.4 L412.6,-9571.8 L429.6,-9586.2 L445.5,-9601.2 L457.0,-9614.1 L468.4,-9628.0 L482.4,-9646.0 L495.2,-9664.0 L509.9,-9687.1 L519.5,-9705.0 L525.5,-9716.4 L534.4,-9735.7 L541.9,-9753.6 L548.6,-9772.9 L554.0,-9789.8 L559.9,-9817.2 L564.2,-9841.7 L566.5,-9862.7 L568.5,-9887.5 L568.7,-9914.0 L567.1,-9938.5 L562.9,-9970.5 L558.5,-9992.3 L553.5,-10012.9 L546.1,-10036.3 L539.8,-10054.2 L532.6,-10073.7 L525.8,-10089.9 L521.2,-10100.4 L519.3,-10108.1 L519.0,-10114.0 L519.6,-10119.3 L521.7,-10123.9 L524.9,-10127.8 L529.1,-10130.0 L533.6,-10130.6 L545.7,-10127.7 L579.4,-10119.6 L590.6,-10374.3 L634.3,-10828.9 L586.8,-10840.1 L581.6,-10854.4 L581.8,-10874.9 L588.4,-10921.4 L597.4,-10931.9 L605.4,-10962.1 L655.9,-10950.4 L683.7,-11240.9 L691.4,-11321.3 L675.7,-11325.2 L685.2,-11363.6 L652.9,-11371.3 L657.0,-11394.8 L662.7,-11410.3 L669.8,-11428.4 L681.8,-11453.7 L694.7,-11450.8 L712.1,-11633.5 L716.2,-11744.3 L717.0,-11764.7 L726.4,-11835.2 L745.1,-12010.9 L869.9,-12336.3 L898.4,-12425.0 L1245.1,-12558.0 L1279.0,-12571.6 L1284.9,-12574.8 L1289.5,-12579.0 L1294.6,-12584.9 L1298.5,-12591.8 L1301.1,-12598.6 L1301.7,-12608.5 L1301.2,-12620.8 L1296.6,-12776.3 L1294.9,-12806.4 L1294.4,-12827.1 L1293.7,-12867.3 L1292.9,-12879.9 L1291.4,-12890.5 L1289.3,-12899.9 L1286.2,-12909.5 L1281.3,-12920.8 L1274.1,-12932.9 L1267.1,-12942.5 L1261.7,-12951.6 L1256.2,-12963.7 L1251.6,-12975.3 L1249.8,-12984.8 L1248.4,-12995.3 L1247.7,-13005.8 L1248.0,-13016.0 L1249.2,-13027.9 L1252.0,-13039.6 L1255.7,-13050.0 L1259.6,-13059.5 L1264.6,-13068.7 L1270.7,-13079.9 L1274.7,-13090.0 L1278.2,-13102.9 L1284.6,-13112.7 L1282.4,-13201.9 L1279.1,-13207.1 L1278.1,-13267.7 L1276.4,-13339.2 L1277.6,-13349.1 L1280.8,-13359.2 L1288.8,-13375.0 L1342.3,-13490.1 L1343.4,-13492.0 L1352.8,-13512.5 L1361.7,-13531.9 L1371.7,-13551.9 L1381.5,-13572.5 L1386.3,-13582.5 L1438.9,-13690.4 L1495.1,-13809.6 L1616.7,-14056.4 L1543.6,-14138.3 L1484.0,-14011.3 L1432.5,-13901.4 L1424.7,-13885.8 L1408.8,-13853.3 L1377.0,-13856.0 L1368.3,-13856.5 L1365.2,-13853.7 L1369.4,-13849.9 L1353.1,-13835.4 L1340.2,-13823.5 L1337.8,-13772.6 L1333.0,-13762.4 L1317.4,-13763.0 L1314.8,-13763.9 L1110.4,-13848.3 L1106.0,-13850.6 L1101.3,-13853.6 L1093.9,-13859.2 L1088.2,-13864.6 L1083.4,-13869.8 L1078.7,-13876.2 L1075.1,-13881.8 L1072.3,-13887.6 L1070.1,-13893.7 L1068.6,-13897.9 L1067.5,-13903.0 L1066.7,-13909.0 L1065.9,-13917.2 L1065.9,-13928.9 L1064.5,-13968.6 L1070.1,-13968.9 L1069.3,-13989.9 L1068.4,-14024.5 L1073.6,-14024.6 L1073.2,-14048.2 L1067.3,-14048.1 L1064.6,-14147.5 L1070.2,-14147.8 L1069.3,-14171.1 L1063.9,-14170.9 L1061.6,-14244.4 L1088.6,-14273.5 L1123.1,-14274.7 L1148.8,-14275.6 L1182.7,-14276.7 L1215.3,-14277.7 L1244.5,-14278.7 L1257.2,-14279.3 L1256.6,-14290.6 L1256.4,-14302.4 L1254.5,-14340.7 L1253.8,-14413.8 L1252.8,-14415.1 L1252.6,-14422.3 L1254.7,-14422.4 L1249.6,-14598.5 L1245.2,-14764.2 L1244.5,-14769.4 L1244.1,-14779.0 L1171.9,-14776.4 L1123.9,-14780.5 L764.6,-14768.0 L764.5,-14771.2 L763.8,-14786.5 L593.4,-14780.5 L593.1,-14808.8 L570.6,-14813.9 L566.6,-14935.0 L1229.4,-14958.0 L1240.4,-14973.1 L1240.0,-15016.1 L1239.2,-15053.3 L1238.6,-15076.6 L1237.7,-15099.3 L1185.0,-15124.1 L1182.9,-15179.2 L1236.9,-15206.0 L1232.0,-15333.5 L1230.6,-15339.8 L1176.9,-15364.9 L1175.2,-15433.1 L1226.2,-15459.4 L1203.5,-15736.3 L1209.5,-15859.5 L1212.5,-16060.4 L1212.3,-16278.9 L1217.1,-16309.5 L1217.4,-16324.3 L1212.6,-16342.1 L1217.6,-16342.1 L1217.6,-16358.2 L1220.6,-16769.2 L1220.1,-16787.5 L1214.4,-16787.5 L1214.6,-16863.1 L1211.3,-16867.8 L1206.1,-16945.8 L1216.4,-17017.1 L1215.1,-17103.4 L1211.6,-17124.1 L1216.9,-17188.0 L1213.3,-17265.3 L1204.3,-17348.0 L1187.2,-17482.0 L1195.3,-17518.9 L1191.7,-17554.8 L1161.1,-17580.9 L1116.2,-17580.5 L1047.8,-17571.5 L1003.3,-17571.5 L962.9,-17586.3 L909.8,-17622.7 L909.8,-17688.0 L908.4,-17768.3 L913.6,-17835.2 L931.2,-17887.4 L1225.9,-17892.9 L1232.7,-18310.8 L1232.7,-18912.4 L1229.6,-19130.7 L17141.8,-25702.4 L17141.8,10515.8 L-2570.7,10515.8 L-2570.7,-7469.7 Z" fill="#add7e1" stroke="none"><title>Biscayne Bay</title></path><path d="M-9962.8,1815.5 L-10507.0,1413.8 L-10550.5,1381.8 L-10597.7,1371.5 L-10631.0,1343.5 L-10657.6,1340.4 L-10743.6,1346.1 L-10743.5,1338.0 L-10748.3,1330.4 L-10757.9,1324.5 L-10944.7,1243.6 L-10957.4,1237.8 L-10968.5,1234.6 L-10982.3,1233.5 L-10996.2,1233.2 L-11042.6,1233.2 L-11054.9,1232.5 L-11067.0,1230.1 L-11079.8,1225.1 L-11095.2,1221.0 L-11106.4,1220.0 L-11139.3,1218.6 L-11150.3,1216.6 L-11164.3,1212.1 L-11178.0,1208.6 L-11191.3,1205.5 L-11201.7,1201.3 L-11214.3,1193.5 L-11225.5,1185.1 L-11236.4,1176.9 L-11245.3,1172.7 L-11252.1,1171.3 L-11258.2,1171.7 L-11264.7,1173.5 L-11272.3,1177.4 L-11278.3,1184.0 L-11286.4,1191.9 L-11295.4,1200.2 L-11305.6,1205.8 L-11318.5,1210.0 L-11329.2,1212.6 L-11342.1,1214.6 L-11363.7,1217.1 L-11417.9,1219.7 L-11463.9,1222.0 L-11483.7,1229.1 L-11524.3,1230.5 L-11529.8,1222.0 L-11535.9,1218.1 L-11542.2,1216.9 L-11586.0,1219.4 L-11605.0,1226.2 L-11628.3,1226.4 L-11644.0,1224.1 L-11656.9,1220.2 L-11704.0,1223.0 L-11828.6,1232.7 L-11857.3,1233.5 L-11867.1,1233.3 L-11875.9,1231.1 L-11886.1,1226.0 L-11893.6,1220.0 L-11926.0,1220.1 L-11953.1,1219.7 L-11960.4,1224.2 L-11997.7,1225.1 L-12002.5,1233.0 L-12007.8,1233.2 L-12017.0,1231.0 L-12033.5,1229.0 L-12050.5,1229.9 L-12055.7,1231.5 L-12061.0,1230.6 L-12064.6,1227.1 L-12070.7,1223.6 L-12093.4,1223.7 L-12116.3,1224.9 L-12138.0,1237.7 L-12148.7,1242.8 L-12160.9,1245.5 L-12171.0,1246.2 L-12180.1,1244.8 L-12201.1,1235.8 L-12213.1,1232.0 L-12223.3,1230.5 L-12268.0,1231.1 L-12270.8,1225.7 L-12310.3,1226.6 L-12337.5,1231.6 L-12355.4,1233.7 L-12365.0,1235.8 L-12368.7,1233.3 L-12375.5,1232.4 L-12439.2,1226.6 L-12444.7,1229.6 L-12451.4,1231.0 L-12460.2,1231.1 L-12460.2,1227.9 L-12499.7,1220.5 L-12524.6,1215.7 L-12584.8,1195.5 L-12588.1,1200.0 L-12628.3,1187.6 L-12636.7,1184.8 L-12632.6,1170.8 L-12637.4,1169.3 L-12638.4,1167.8 L-12641.0,1167.0 L-12644.6,1166.5 L-12649.0,1164.3 L-12647.5,1163.0 L-12665.3,1148.5 L-12694.9,1121.7 L-12710.8,1107.7 L-12722.1,1095.4 L-12728.4,1087.1 L-12737.8,1074.3 L-12743.2,1064.4 L-12760.0,1043.3 L-12761.6,1042.1 L-12762.7,1042.0 L-12763.9,1042.2 L-12766.1,1042.3 L-12768.1,1041.3 L-12772.3,1038.6 L-12780.9,1034.1 L-12785.1,1030.5 L-12790.0,1026.2 L-12796.7,1022.6 L-12807.2,1019.3 L-12818.3,1017.3 L-12827.8,1017.1 L-12825.1,991.9 L-12822.9,959.0 L-12812.6,960.0 L-12802.3,961.8 L-12788.8,965.8 L-12778.9,969.5 L-12770.0,973.6 L-12761.4,977.6 L-12753.3,982.2 L-12746.7,987.3 L-12737.9,994.1 L-12728.7,1001.0 L-12726.6,1002.3 L-12724.7,1002.7 L-12699.5,1001.6 L-12699.2,1007.3 L-12700.7,1009.8 L-12719.6,1011.6 L-12714.8,1021.4 L-12711.5,1020.2 L-12708.5,1023.2 L-12706.6,1026.1 L-12705.0,1028.3 L-12701.1,1033.5 L-12699.6,1039.2 L-12693.5,1047.6 L-12679.1,1056.7 L-12661.2,1065.8 L-12639.8,1079.3 L-12630.0,1083.9 L-12609.4,1095.6 L-12599.7,1100.7 L-12582.0,1107.2 L-12547.2,1116.5 L-12526.8,1121.4 L-12508.2,1123.3 L-12498.3,1124.6 L-12496.1,1124.4 L-12495.2,1123.1 L-12494.9,1116.5 L-12471.8,1116.5 L-12471.3,1123.9 L-12422.9,1126.4 L-12375.7,1127.8 L-12343.6,1126.6 L-12333.0,1125.8 L-12325.3,1124.8 L-12319.0,1123.0 L-12313.2,1119.5 L-12310.3,1114.8 L-12311.4,1037.3 L-12291.9,1036.2 L-12290.2,1111.8 L-12289.1,1113.7 L-12285.2,1116.4 L-12280.7,1117.7 L-12177.3,1117.9 L-12177.8,1084.6 L-12169.7,1084.4 L-12166.3,1117.9 L-12102.5,1117.3 L-12102.5,1113.7 L-12096.2,1113.6 L-12096.0,1116.2 L-11670.5,1108.1 L-11639.7,1104.5 L-11602.1,1103.4 L-11566.5,1108.1 L-11554.6,1107.1 L-11545.9,1105.4 L-11537.8,1102.5 L-11527.3,1098.5 L-11313.4,1094.7 L-11313.5,1079.9 L-11193.8,1077.8 L-11193.7,1094.1 L-11142.9,1095.9 L-11139.0,1095.8 L-11135.4,1095.5 L-11130.7,1094.9 L-11126.9,1093.9 L-11123.2,1092.7 L-11116.9,1089.7 L-11114.0,1094.7 L-11107.8,1090.8 L-11102.1,1086.2 L-11097.3,1081.2 L-11093.1,1075.3 L-11089.2,1068.0 L-11096.5,1063.9 L-11094.5,1057.8 L-11093.2,1051.5 L-11092.5,1045.5 L-11092.4,1040.8 L-11092.6,1036.4 L-11093.3,998.5 L-11099.4,992.9 L-11094.2,987.4 L-11099.5,982.8 L-11093.5,975.7 L-11100.0,970.0 L-11094.8,964.5 L-11100.0,959.5 L-11093.9,953.0 L-11100.2,946.6 L-11087.1,932.2 L-11084.8,932.1 L-11090.5,717.6 L-11042.4,716.5 L-11040.1,717.7 L-11037.5,719.7 L-11035.6,721.4 L-11034.8,723.4 L-11034.1,725.8 L-11033.9,728.2 L-11029.8,1061.5 L-11027.9,1072.3 L-11025.2,1079.6 L-11021.0,1088.6 L-11016.1,1097.4 L-11011.0,1104.4 L-11006.9,1108.7 L-11002.5,1112.1 L-10997.4,1115.1 L-10992.1,1117.1 L-10984.9,1119.2 L-10976.0,1120.9 L-10965.2,1122.9 L-10952.6,1125.2 L-10940.6,1127.8 L-10927.3,1130.2 L-10914.7,1132.9 L-10910.7,1133.7 L-10905.8,1134.7 L-10901.0,1135.3 L-10896.8,1135.4 L-10892.0,1135.4 L-10888.3,1135.2 L-10884.6,1134.5 L-10881.4,1133.7 L-10878.0,1132.7 L-10875.1,1131.4 L-10869.3,1128.6 L-10864.2,1125.6 L-10859.1,1121.9 L-10853.2,1116.2 L-10847.7,1110.0 L-10844.7,1104.7 L-10842.0,1098.2 L-10840.6,1092.9 L-10839.8,1087.2 L-10839.3,1081.8 L-10839.3,1076.8 L-10846.6,719.6 L-10836.2,708.9 L-10832.4,708.5 L-10830.9,707.1 L-10809.2,706.5 L-10807.3,703.3 L-10804.0,704.2 L-10798.5,709.3 L-10794.7,714.6 L-10790.9,721.2 L-10783.7,1120.4 L-10783.0,1127.4 L-10781.7,1141.3 L-10780.4,1144.1 L-10781.4,1144.8 L-10779.6,1148.7 L-10777.3,1153.3 L-10775.3,1156.2 L-10772.9,1159.7 L-10769.6,1163.5 L-10765.7,1167.5 L-10761.0,1171.5 L-10756.8,1174.6 L-10752.2,1177.1 L-10747.8,1179.3 L-10743.1,1180.8 L-10742.5,1179.4 L-10676.3,1203.4 L-10668.0,1206.5 L-10664.2,1207.9 L-10658.3,1210.0 L-10654.0,1211.0 L-10650.3,1211.5 L-10646.9,1211.5 L-10642.1,1211.1 L-10636.9,1210.6 L-10632.3,1209.6 L-10627.6,1208.3 L-10624.1,1206.9 L-10620.4,1205.2 L-10617.4,1203.3 L-10613.6,1200.5 L-10608.8,1196.3 L-10604.4,1192.0 L-10599.6,1186.0 L-10596.2,1180.4 L-10593.4,1174.2 L-10591.4,1167.3 L-10590.2,1160.3 L-10589.5,1147.8 L-10589.8,1122.3 L-10597.1,716.2 L-10597.1,711.7 L-10596.3,708.5 L-10594.9,705.9 L-10592.0,703.5 L-10588.7,701.8 L-10585.0,701.2 L-10554.9,700.2 L-10551.3,700.8 L-10548.1,702.2 L-10545.8,704.4 L-10543.2,708.2 L-10541.7,713.6 L-10540.8,720.9 L-10533.3,1241.8 L-10532.9,1244.9 L-10532.3,1248.0 L-10531.4,1251.2 L-10530.3,1254.7 L-10529.1,1258.2 L-10527.7,1261.4 L-10526.5,1264.1 L-10525.2,1266.5 L-10523.3,1269.5 L-10521.2,1272.1 L-10519.3,1274.5 L-10516.4,1277.6 L-10513.6,1280.3 L-10510.5,1282.8 L-10507.2,1285.3 L-10498.0,1291.1 L-10497.1,1290.0 L-10489.0,1294.5 L-10479.4,1299.7 L-10473.9,1302.7 L-10467.8,1306.3 L-10461.5,1310.0 L-10455.0,1314.0 L-10447.7,1318.5 L-10440.5,1323.0 L-10433.3,1327.3 L-10427.3,1331.0 L-10420.6,1335.3 L-10413.5,1339.9 L-10406.7,1344.4 L-10400.4,1348.7 L-10401.1,1349.6 L-10392.3,1355.7 L-10383.2,1361.8 L-10380.4,1363.5 L-10377.3,1365.2 L-10372.9,1367.3 L-10368.8,1368.8 L-10364.4,1370.0 L-10360.5,1371.0 L-10355.9,1371.7 L-10350.8,1372.3 L-10346.4,1372.3 L-10342.7,1372.0 L-10339.5,1371.3 L-10335.4,1370.2 L-10331.3,1368.9 L-10327.5,1367.6 L-10324.0,1365.9 L-10320.4,1364.0 L-10316.9,1361.8 L-10313.3,1359.0 L-10310.1,1356.1 L-10307.0,1353.0 L-10304.1,1349.8 L-10301.1,1345.4 L-10298.6,1341.0 L-10296.2,1336.1 L-10294.8,1332.3 L-10293.7,1328.3 L-10292.9,1324.0 L-10292.5,1319.7 L-10292.8,1314.8 L-10352.1,747.1 L-10348.0,746.7 L-10351.3,718.3 L-10354.3,718.5 L-10356.7,705.4 L-10355.9,702.7 L-10353.4,698.7 L-10348.3,694.8 L-10341.6,694.0 L-10314.7,693.1 L-10310.2,694.0 L-10307.1,695.5 L-10303.8,698.1 L-10301.5,700.5 L-10299.9,703.0 L-10234.9,1339.9 L-10233.4,1345.4 L-10230.6,1352.2 L-10228.2,1356.6 L-10225.6,1361.3 L-10222.2,1365.9 L-10219.4,1369.1 L-10216.3,1372.3 L-10212.9,1375.0 L-10209.9,1377.1 L-10205.7,1379.8 L-10202.0,1381.7 L-10197.1,1383.8 L-10192.5,1385.2 L-10187.3,1386.3 L-10183.3,1386.9 L-10179.8,1387.0 L-10175.7,1387.1 L-10034.5,1384.2 L-10029.9,1383.6 L-10025.5,1381.5 L-10022.3,1378.6 L-10020.1,1374.2 L-10019.3,1370.2 L-10019.5,1366.2 L-10091.0,684.1 L-10154.0,601.9 L-10156.8,604.2 L-10211.6,527.7 L-10212.6,511.5 L-10214.3,508.1 L-10217.2,505.0 L-10220.9,499.8 L-10221.2,492.2 L-10227.7,489.7 L-10234.0,489.6 L-10242.5,493.8 L-10232.9,511.8 L-10245.0,517.6 L-10254.1,509.2 L-10261.9,504.4 L-10267.2,502.6 L-10280.2,502.1 L-10286.8,488.7 L-10245.3,471.7 L-10247.3,468.3 L-10256.1,456.5 L-10257.5,457.2 L-10566.4,52.7 L-10571.1,-14.0 L-10568.6,-14.6 L-10580.5,-136.9 L-10585.1,-148.2 L-10590.1,-160.9 L-10593.9,-170.7 L-10598.5,-183.2 L-10613.5,-225.3 L-10619.6,-222.6 L-10628.5,-256.7 L-10627.0,-257.0 L-10658.1,-341.3 L-10661.5,-488.7 L-10657.9,-488.7 L-10657.4,-501.6 L-10655.6,-514.3 L-10654.9,-519.0 L-10656.2,-522.8 L-10652.0,-542.9 L-10613.7,-610.7 L-10633.8,-622.9 L-10618.9,-647.6 L-10599.5,-636.2 L-10597.8,-638.8 L-10591.7,-635.7 L-10585.1,-633.1 L-10577.5,-630.7 L-10571.8,-629.5 L-10566.4,-629.3 L-10560.0,-630.4 L-10553.7,-632.5 L-10547.5,-634.9 L-10544.6,-638.0 L-10543.5,-642.1 L-10542.0,-647.0 L-10541.7,-649.0 L-10541.8,-651.5 L-10543.2,-655.4 L-10545.8,-659.1 L-10548.8,-661.2 L-10553.2,-665.4 L-10557.0,-669.4 L-10562.6,-673.0 L-10564.9,-678.7 L-10567.6,-684.4 L-10571.9,-691.1 L-10576.8,-696.9 L-10585.8,-703.3 L-10629.4,-725.9 L-10655.2,-738.7 L-10679.3,-751.7 L-10702.2,-764.4 L-10717.0,-774.0 L-10722.7,-775.5 L-10729.0,-773.6 L-10732.5,-769.3 L-10739.6,-751.6 L-10783.7,-771.4 L-10757.3,-813.1 L-10751.5,-815.8 L-10744.4,-817.2 L-10736.1,-815.4 L-10570.4,-718.5 L-10561.4,-715.8 L-10552.0,-713.5 L-10538.7,-713.2 L-10525.2,-715.6 L-10516.6,-719.1 L-10507.2,-726.7 L-10501.7,-732.0 L-10495.8,-740.3 L-10495.9,-741.4 L-10496.3,-742.4 L-10497.2,-743.2 L-10550.8,-776.3 L-10552.1,-776.7 L-10553.5,-776.8 L-10554.9,-776.7 L-10560.0,-774.5 L-10561.9,-774.3 L-10564.0,-774.5 L-10567.1,-775.0 L-10569.5,-775.7 L-10572.9,-777.4 L-10576.2,-779.3 L-10649.9,-824.3 L-10684.6,-848.7 L-10687.9,-849.2 L-10691.2,-849.1 L-10695.1,-849.0 L-10697.7,-849.4 L-10699.9,-850.4 L-10702.5,-852.4 L-10705.4,-854.7 L-10707.4,-857.5 L-10708.6,-860.3 L-10708.8,-862.4 L-10708.5,-865.1 L-10708.0,-867.4 L-10696.2,-887.2 L-10696.2,-888.1 L-10697.1,-888.8 L-10707.9,-896.4 L-10710.0,-899.5 L-10708.8,-901.4 L-10705.3,-900.9 L-10701.5,-899.8 L-10679.3,-886.1 L-10553.5,-805.8 L-10550.9,-804.3 L-10549.1,-802.4 L-10547.9,-800.2 L-10546.6,-795.6 L-10545.7,-792.0 L-10545.2,-788.9 L-10488.4,-754.8 L-10486.4,-753.9 L-10484.0,-753.7 L-10481.2,-754.1 L-10479.2,-754.8 L-10477.5,-755.6 L-10416.4,-854.5 L-10390.8,-892.1 L-10366.9,-919.0 L-10354.8,-912.3 L-10347.0,-924.9 L-10388.5,-949.7 L-10379.7,-964.1 L-10338.2,-939.1 L-10328.9,-954.3 L-10336.4,-962.7 L-10328.8,-971.4 L-10320.6,-962.0 L-10318.6,-963.5 L-10316.3,-965.1 L-10313.1,-966.9 L-10309.8,-968.5 L-10305.7,-970.0 L-10301.8,-971.1 L-10297.6,-971.8 L-10293.4,-972.1 L-10289.4,-972.0 L-10285.5,-971.4 L-10281.8,-970.5 L-10278.7,-969.6 L-10276.0,-968.4 L-10272.2,-966.6 L-10268.7,-964.4 L-10265.7,-962.3 L-10262.7,-959.6 L-10260.0,-957.0 L-10257.0,-953.1 L-10254.9,-949.6 L-10252.8,-945.1 L-10251.4,-940.6 L-10250.2,-934.4 L-10249.8,-929.0 L-10249.9,-925.9 L-10250.3,-922.7 L-10251.4,-917.9 L-10254.2,-911.3 L-10256.0,-907.0 L-10258.5,-901.9 L-10248.1,-896.7 L-10199.5,-954.7 L-10288.0,-1008.5 L-10283.5,-1018.1 L-10280.3,-1027.0 L-10280.1,-1030.8 L-10275.0,-1041.7 L-10264.5,-1051.4 L-10251.5,-1062.0 L-10236.0,-1071.9 L-10206.9,-1080.4 L-10156.7,-1085.4 L-10136.9,-1101.4 L-10132.8,-1102.1 L-10129.5,-1102.3 L-10124.8,-1100.5 L-10120.5,-1100.0 L-10092.6,-1083.1 L-10019.2,-1170.2 L-10288.2,-1341.2 L-10304.9,-1314.9 L-10341.2,-1337.9 L-10289.7,-1418.9 L-10253.5,-1396.5 L-10269.6,-1368.9 L-9995.9,-1196.4 L-9961.4,-1240.7 L-9937.0,-1269.7 L-9904.8,-1318.1 L-9887.0,-1342.5 L-9888.8,-1356.4 L-9888.3,-1356.8 L-9891.5,-1367.1 L-9893.6,-1373.5 L-9895.6,-1380.1 L-9898.0,-1385.8 L-9902.6,-1393.3 L-9907.2,-1400.6 L-9909.2,-1404.4 L-9910.7,-1408.2 L-9911.8,-1411.7 L-9912.2,-1414.8 L-9912.7,-1425.0 L-10030.9,-1533.5 L-10034.8,-1529.3 L-10038.1,-1532.1 L-10047.7,-1522.6 L-10054.0,-1531.0 L-10046.4,-1539.8 L-10054.0,-1549.5 L-10059.2,-1548.1 L-10064.6,-1547.9 L-10069.5,-1548.8 L-10073.8,-1550.6 L-10078.8,-1554.3 L-10085.0,-1560.4 L-10095.9,-1572.4 L-10099.2,-1577.5 L-10100.4,-1583.9 L-10099.6,-1591.5 L-10096.7,-1598.5 L-10094.2,-1603.3 L-10089.4,-1608.1 L-10084.1,-1611.7 L-10079.0,-1613.6 L-10075.2,-1614.2 L-10070.2,-1613.3 L-10065.1,-1611.5 L-10060.3,-1607.7 L-10049.2,-1597.7 L-10043.5,-1592.3 L-10038.3,-1586.6 L-10036.6,-1583.9 L-10035.4,-1581.0 L-10034.7,-1578.4 L-10034.2,-1574.8 L-10034.8,-1571.4 L-10035.8,-1568.2 L-10037.2,-1565.8 L-10037.6,-1564.7 L-10037.3,-1563.3 L-10036.5,-1561.9 L-9909.6,-1443.0 L-9905.2,-1440.0 L-9902.1,-1438.7 L-9897.7,-1439.7 L-9892.5,-1440.1 L-9885.9,-1437.3 L-9879.3,-1433.2 L-9866.4,-1425.9 L-9861.0,-1423.3 L-9856.1,-1428.1 L-9850.7,-1433.3 L-9847.1,-1437.4 L-9841.1,-1445.2 L-9837.7,-1449.9 L-9834.1,-1455.7 L-9831.8,-1460.8 L-9829.3,-1466.2 L-9827.0,-1471.9 L-9824.9,-1477.7 L-9823.7,-1482.6 L-9822.3,-1488.8 L-9821.7,-1492.5 L-9821.3,-1495.5 L-9820.6,-1500.8 L-9819.9,-1506.0 L-9819.6,-1509.4 L-9819.4,-1513.1 L-9819.4,-1517.4 L-9819.6,-1521.0 L-9820.3,-1526.0 L-9821.1,-1531.7 L-9821.9,-1537.0 L-9822.4,-1541.3 L-9823.0,-1544.5 L-9823.7,-1547.9 L-9824.5,-1551.3 L-9825.7,-1555.3 L-9827.1,-1559.3 L-9828.2,-1561.7 L-9829.4,-1564.1 L-9831.1,-1566.4 L-9833.4,-1569.7 L-9835.9,-1572.8 L-9838.6,-1575.4 L-9842.0,-1578.2 L-9845.5,-1580.4 L-9849.0,-1582.3 L-9852.2,-1583.5 L-9854.4,-1584.2 L-9856.9,-1584.5 L-9859.9,-1584.4 L-9862.7,-1583.8 L-9864.9,-1582.9 L-9867.0,-1581.4 L-9868.5,-1579.8 L-9869.7,-1578.3 L-9870.6,-1576.0 L-9871.1,-1573.5 L-9871.0,-1570.5 L-9870.8,-1567.0 L-9870.8,-1564.4 L-9871.0,-1561.8 L-9871.4,-1559.2 L-9871.9,-1556.9 L-9872.8,-1554.5 L-9874.2,-1551.9 L-9875.9,-1549.4 L-9877.6,-1547.1 L-9879.3,-1545.5 L-9882.7,-1542.8 L-9885.5,-1540.9 L-9889.9,-1539.6 L-9892.5,-1539.0 L-9895.5,-1538.6 L-9898.2,-1538.5 L-9901.8,-1538.7 L-9904.4,-1539.2 L-9908.0,-1540.0 L-9913.0,-1541.5 L-9917.2,-1543.1 L-9920.3,-1544.3 L-9923.6,-1546.1 L-9926.5,-1548.1 L-9929.7,-1550.6 L-9932.2,-1552.9 L-9934.3,-1555.0 L-9936.5,-1557.6 L-9938.3,-1560.0 L-9940.0,-1562.4 L-9941.5,-1565.1 L-9943.1,-1568.7 L-9944.5,-1572.0 L-9945.9,-1575.6 L-9946.8,-1578.4 L-9947.5,-1581.0 L-9948.0,-1583.7 L-9948.4,-1587.9 L-9948.7,-1591.6 L-9948.5,-1595.6 L-9947.6,-1600.9 L-9946.1,-1606.1 L-9944.2,-1611.5 L-9942.9,-1614.0 L-9941.6,-1615.5 L-9931.3,-1628.6 L-9928.9,-1631.3 L-9925.8,-1632.8 L-9922.5,-1634.0 L-9918.8,-1634.8 L-9914.7,-1635.3 L-9911.1,-1635.5 L-9907.5,-1635.4 L-9903.9,-1635.0 L-9899.8,-1633.8 L-9895.5,-1631.7 L-9891.8,-1629.4 L-9888.5,-1626.8 L-9878.1,-1617.2 L-9875.6,-1616.4 L-9874.2,-1616.1 L-9872.5,-1616.5 L-9871.4,-1616.9 L-9870.0,-1618.5 L-9869.4,-1620.1 L-9869.3,-1622.3 L-9869.2,-1624.3 L-9869.6,-1625.2 L-9890.6,-1646.0 L-9862.0,-1676.5 L-9863.6,-1680.1 L-9847.1,-1696.4 L-9815.3,-1664.6 L-9840.9,-1632.0 L-9841.1,-1630.1 L-9839.8,-1629.3 L-9838.2,-1629.7 L-9810.1,-1664.9 L-9801.9,-1674.8 L-9801.6,-1677.1 L-9802.3,-1679.1 L-9803.8,-1680.9 L-9825.8,-1701.7 L-9820.3,-1708.1 L-9825.9,-1712.8 L-9822.7,-1720.2 L-9765.7,-1777.5 L-9746.1,-1780.8 L-9740.0,-1781.7 L-9734.2,-1782.5 L-9731.5,-1783.2 L-9728.3,-1784.9 L-9724.5,-1787.0 L-9721.6,-1789.9 L-9718.8,-1793.4 L-9689.7,-1835.7 L-9689.1,-1836.8 L-9689.4,-1838.2 L-9689.8,-1839.2 L-9690.5,-1840.1 L-9694.0,-1842.3 L-9694.9,-1842.8 L-9695.7,-1842.7 L-9696.6,-1842.2 L-9698.5,-1840.8 L-9722.9,-1818.0 L-9732.4,-1811.2 L-9771.4,-1851.2 L-9766.9,-1865.4 L-9765.0,-1869.6 L-9758.9,-1880.8 L-9751.8,-1893.3 L-9747.5,-1898.1 L-9739.8,-1906.3 L-9731.6,-1915.3 L-9722.6,-1924.8 L-9714.9,-1931.4 L-9711.2,-1934.7 L-9706.3,-1938.3 L-9701.8,-1940.7 L-9695.4,-1943.6 L-9691.4,-1945.0 L-9687.4,-1946.2 L-9684.3,-1946.5 L-9679.9,-1946.2 L-9676.2,-1945.7 L-9672.0,-1944.5 L-9667.9,-1941.1 L-9665.4,-1937.6 L-9663.9,-1934.0 L-9663.3,-1928.6 L-9663.5,-1921.5 L-9664.4,-1913.5 L-9666.1,-1905.8 L-9676.4,-1882.8 L-9686.2,-1862.1 L-9682.8,-1856.6 L-9681.0,-1855.5 L-9679.1,-1855.5 L-9677.4,-1855.9 L-9676.1,-1856.7 L-9669.4,-1866.2 L-9660.8,-1870.5 L-9643.7,-1916.2 L-9642.5,-1918.5 L-9640.8,-1920.5 L-9639.1,-1921.4 L-9637.5,-1921.8 L-9635.2,-1921.8 L-9632.8,-1921.2 L-9620.3,-1917.7 L-9617.9,-1917.2 L-9615.1,-1917.1 L-9612.5,-1917.5 L-9610.4,-1918.4 L-9608.6,-1919.8 L-9606.8,-1922.1 L-9585.8,-1950.2 L-9584.8,-1952.3 L-9584.3,-1954.5 L-9584.3,-1956.6 L-9584.7,-1958.8 L-9585.5,-1960.4 L-9586.7,-1962.0 L-9588.1,-1963.3 L-9590.1,-1964.3 L-9592.0,-1964.8 L-9593.9,-1964.9 L-9595.5,-1964.6 L-9597.4,-1963.7 L-9598.8,-1962.7 L-9599.9,-1961.3 L-9605.4,-1952.4 L-9606.6,-1950.7 L-9608.0,-1949.1 L-9610.1,-1947.3 L-9612.0,-1946.2 L-9614.3,-1945.5 L-9617.1,-1944.9 L-9618.7,-1944.9 L-9620.9,-1945.2 L-9622.8,-1945.7 L-9624.4,-1946.4 L-9641.6,-1962.0 L-9643.6,-1964.4 L-9645.1,-1966.6 L-9646.5,-1969.3 L-9647.4,-1971.6 L-9648.0,-1974.0 L-9648.5,-1976.6 L-9648.8,-1979.8 L-9648.9,-1983.0 L-9648.6,-1985.7 L-9648.2,-1988.0 L-9647.7,-1990.0 L-9646.9,-1991.7 L-9615.6,-2041.4 L-9613.6,-2044.7 L-9612.4,-2046.4 L-9611.0,-2047.2 L-9608.7,-2048.2 L-9606.3,-2048.9 L-9604.0,-2049.3 L-9602.7,-2049.3 L-9601.4,-2049.1 L-9600.3,-2048.7 L-9598.7,-2047.9 L-9596.8,-2046.7 L-9593.6,-2044.1 L-9579.3,-2030.7 L-9576.9,-2027.3 L-9575.5,-2024.0 L-9574.2,-2020.1 L-9573.8,-2017.1 L-9573.6,-2013.9 L-9573.6,-2011.2 L-9573.9,-2008.5 L-9574.4,-2005.8 L-9575.0,-2004.0 L-9576.6,-2000.3 L-9582.3,-1989.7 L-9582.9,-1987.3 L-9582.9,-1984.4 L-9582.7,-1982.2 L-9581.9,-1980.5 L-9580.4,-1978.9 L-9578.0,-1977.2 L-9576.0,-1976.1 L-9573.7,-1975.6 L-9571.0,-1975.7 L-9568.8,-1976.2 L-9566.3,-1977.5 L-9564.1,-1979.5 L-9527.1,-2030.3 L-9538.4,-2040.5 L-9531.6,-2047.8 L-9521.5,-2038.1 L-9500.7,-2065.4 L-9469.2,-2107.5 L-9596.0,-2229.0 L-9623.5,-2200.1 L-9655.8,-2230.6 L-9624.6,-2264.2 L-9628.7,-2268.7 L-9622.2,-2274.7 L-9618.2,-2270.6 L-9596.5,-2294.2 L-9577.0,-2276.1 L-9574.7,-2261.1 L-9492.7,-2184.6 L-9476.7,-2178.4 L-9463.9,-2182.9 L-9439.6,-2173.2 L-9423.5,-2179.1 L-9375.6,-2237.6 L-9372.9,-2243.1 L-9372.1,-2250.5 L-9374.5,-2257.8 L-9377.7,-2263.0 L-9406.1,-2289.2 L-9405.7,-2296.4 L-9400.1,-2310.5 L-9388.9,-2331.4 L-9411.0,-2345.7 L-9402.6,-2348.9 L-9397.3,-2352.3 L-9392.0,-2358.3 L-9385.8,-2374.2 L-9374.4,-2403.2 L-9367.0,-2410.0 L-9437.2,-2478.0 L-9452.6,-2468.4 L-9456.2,-2467.5 L-9459.6,-2467.4 L-9464.0,-2467.9 L-9467.6,-2468.9 L-9471.1,-2471.0 L-9474.0,-2473.5 L-9510.3,-2508.5 L-9517.1,-2515.3 L-9520.1,-2518.9 L-9522.6,-2523.4 L-9523.8,-2527.5 L-9524.3,-2531.5 L-9524.2,-2535.3 L-9523.5,-2538.9 L-9522.6,-2541.8 L-9521.4,-2543.9 L-9518.8,-2547.6 L-9515.7,-2551.3 L-9499.4,-2568.2 L-9375.4,-2453.3 L-9383.9,-2443.7 L-9292.0,-2356.8 L-9186.1,-2511.9 L-9253.3,-2574.7 L-9261.9,-2567.0 L-9387.4,-2685.5 L-9371.0,-2700.8 L-9298.9,-2633.2 L-9291.7,-2643.8 L-9287.7,-2649.1 L-9282.6,-2654.3 L-9276.7,-2660.8 L-9270.7,-2664.7 L-9261.2,-2672.7 L-9251.7,-2681.5 L-9233.5,-2698.7 L-9190.0,-2747.6 L-9182.2,-2755.7 L-9153.5,-2770.4 L-9126.3,-2791.7 L-9123.7,-2793.7 L-9116.6,-2799.2 L-9113.5,-2802.0 L-9111.0,-2805.2 L-9109.3,-2808.5 L-9108.2,-2811.8 L-9106.9,-2814.3 L-9105.4,-2817.0 L-9102.8,-2821.3 L-9101.0,-2824.0 L-9099.2,-2826.5 L-9095.9,-2829.1 L-9092.7,-2831.3 L-9089.2,-2833.4 L-9080.9,-2837.4 L-9072.9,-2841.4 L-9071.7,-2841.6 L-9070.5,-2841.4 L-9068.1,-2840.7 L-9061.6,-2837.4 L-9056.7,-2835.0 L-9054.4,-2833.6 L-9052.3,-2831.9 L-9018.9,-2800.2 L-9016.6,-2798.9 L-9005.7,-2796.0 L-9002.2,-2795.0 L-8998.3,-2794.6 L-8995.3,-2794.7 L-8993.0,-2795.5 L-8990.7,-2797.1 L-8978.8,-2813.9 L-8978.8,-2816.2 L-8979.2,-2818.3 L-8980.5,-2820.6 L-8982.5,-2822.8 L-8991.6,-2831.3 L-8990.9,-2832.7 L-8979.2,-2857.5 L-8959.2,-2897.8 L-8941.0,-2911.2 L-8930.5,-2921.7 L-8923.3,-2930.0 L-8915.7,-2937.7 L-8907.3,-2944.6 L-8902.2,-2949.3 L-8896.8,-2954.2 L-8892.8,-2958.2 L-8890.8,-2961.8 L-8889.2,-2964.6 L-8888.2,-2967.3 L-8887.8,-2970.5 L-8887.6,-2973.7 L-8881.5,-2979.9 L-8872.5,-2988.4 L-8857.5,-3000.7 L-8841.8,-3012.6 L-8834.8,-3022.4 L-8832.2,-3032.5 L-8824.4,-3037.3 L-8814.6,-3037.5 L-8804.7,-3043.4 L-8796.0,-3059.1 L-8796.2,-3075.4 L-8794.6,-3100.6 L-8792.1,-3104.2 L-8790.6,-3106.6 L-8787.8,-3111.2 L-8791.3,-3121.9 L-8787.3,-3126.9 L-8767.5,-3151.4 L-8733.5,-3191.1 L-8727.0,-3200.5 L-8724.4,-3205.4 L-8713.6,-3220.3 L-8710.6,-3229.7 L-8710.5,-3244.2 L-8710.9,-3258.7 L-8711.0,-3273.5 L-8706.6,-3289.8 L-8699.2,-3305.9 L-8688.6,-3321.4 L-8680.9,-3332.9 L-8671.8,-3344.4 L-8654.2,-3364.0 L-8576.2,-3402.6 L-8565.9,-3405.3 L-8563.3,-3399.7 L-8560.2,-3394.3 L-8559.2,-3393.3 L-8557.5,-3394.0 L-8557.2,-3397.8 L-8558.4,-3401.0 L-8554.1,-3402.3 L-8538.1,-3407.0 L-8517.3,-3413.2 L-8500.5,-3418.2 L-8494.5,-3420.0 L-8500.5,-3438.9 L-8490.1,-3441.7 L-8472.8,-3444.1 L-8470.7,-3444.4 L-8470.6,-3445.6 L-8470.6,-3450.0 L-8454.9,-3450.7 L-8430.3,-3451.7 L-8420.8,-3447.1 L-8397.1,-3361.7 L-8391.8,-3356.6 L-8402.1,-3346.0 L-8393.0,-3337.0 L-8384.0,-3328.0 L-8373.2,-3339.0 L-8172.7,-3148.4 L-7905.1,-3434.0 L-7811.6,-3344.6 L-7808.0,-3345.7 L-7806.6,-3344.1 L-7800.3,-3348.1 L-7795.1,-3350.0 L-7789.6,-3352.5 L-7780.2,-3357.4 L-7774.4,-3360.7 L-7767.5,-3364.7 L-7761.1,-3368.7 L-7755.9,-3372.1 L-7751.1,-3375.2 L-7745.5,-3379.3 L-7739.1,-3384.0 L-7734.2,-3388.1 L-7729.0,-3392.7 L-7723.3,-3398.1 L-7717.9,-3403.5 L-7705.3,-3416.9 L-7697.7,-3426.0 L-7690.3,-3435.9 L-7685.2,-3443.1 L-7680.4,-3450.5 L-7674.7,-3460.8 L-7669.7,-3470.9 L-7665.7,-3479.2 L-7662.3,-3487.5 L-7660.2,-3493.0 L-7657.9,-3499.2 L-7652.5,-3505.9 L-7823.5,-3668.6 L-7821.4,-3670.9 L-7800.9,-3692.9 L-7786.0,-3708.7 L-7784.5,-3710.3 L-7741.1,-3669.7 L-7730.6,-3675.1 L-7729.4,-3673.6 L-7627.4,-3726.7 L-7623.2,-3728.9 L-7620.3,-3731.2 L-7617.6,-3733.7 L-7614.5,-3736.9 L-7611.5,-3741.4 L-7608.9,-3745.6 L-7607.2,-3748.8 L-7606.0,-3752.9 L-7604.9,-3757.4 L-7604.4,-3762.3 L-7604.4,-3767.8 L-7604.8,-3772.2 L-7605.6,-3776.1 L-7606.9,-3780.8 L-7638.8,-3872.6 L-7643.1,-3887.7 L-7642.0,-3892.9 L-7719.0,-3912.0 L-7715.4,-3925.3 L-7712.4,-3937.3 L-7689.6,-4027.5 L-7707.3,-4080.1 L-7717.7,-4114.1 L-7720.7,-4122.6 L-7693.1,-4147.9 L-7662.0,-4164.6 L-7660.1,-4162.0 L-7657.1,-4157.7 L-7650.1,-4148.6 L-7649.3,-4149.4 L-7649.1,-4152.5 L-7658.8,-4165.9 L-7641.5,-4178.3 L-7637.7,-4180.5 L-7628.7,-4168.8 L-7627.2,-4167.7 L-7625.7,-4167.4 L-7624.9,-4167.6 L-7624.9,-4168.4 L-7667.7,-4227.0 L-7670.8,-4230.4 L-7674.4,-4235.3 L-7693.0,-4257.8 L-7677.1,-4307.1 L-7664.9,-4319.8 L-7650.8,-4326.4 L-7620.8,-4344.2 L-7614.6,-4350.6 L-7587.7,-4374.2 L-7579.2,-4365.3 L-7554.3,-4338.4 L-7531.2,-4357.8 L-7515.7,-4342.9 L-7501.8,-4329.3 L-7501.1,-4328.6 L-7489.3,-4338.7 L-7473.7,-4322.1 L-7460.3,-4304.9 L-7450.4,-4293.4 L-7449.1,-4291.9 L-7420.3,-4317.2 L-7418.8,-4318.5 L-7425.6,-4326.8 L-7409.9,-4339.7 L-7362.3,-4284.2 L-7321.8,-4310.9 L-7317.8,-4314.7 L-7300.2,-4322.1 L-7296.2,-4326.0 L-7292.4,-4331.0 L-7270.7,-4350.3 L-7275.6,-4357.0 L-7314.4,-4348.1 L-7358.8,-4398.6 L-7353.7,-4403.0 L-7347.0,-4395.2 L-7315.6,-4422.2 L-7282.3,-4385.8 L-7273.3,-4382.2 L-7267.9,-4379.1 L-7261.1,-4371.4 L-7257.4,-4374.7 L-7281.5,-4402.1 L-7266.7,-4414.9 L-7236.8,-4379.0 L-7233.0,-4381.8 L-7233.4,-4382.6 L-7167.8,-4430.0 L-7148.3,-4444.4 L-7212.0,-4524.0 L-7198.4,-4533.5 L-7143.0,-4468.6 L-7102.1,-4461.1 L-7075.1,-4476.9 L-7071.3,-4479.3 L-7071.5,-4482.3 L-7073.4,-4485.8 L-7052.3,-4499.1 L-7046.1,-4492.9 L-7028.3,-4503.4 L-7041.2,-4519.4 L-7103.5,-4602.7 L-7059.5,-4648.3 L-7030.6,-4691.0 L-7029.9,-4724.4 L-7045.3,-4768.8 L-7012.9,-4795.8 L-6978.9,-4808.9 L-6967.7,-4811.5 L-6958.7,-4812.7 L-6947.7,-4812.0 L-6936.3,-4809.2 L-6919.8,-4795.1 L-6877.0,-4742.9 L-6842.8,-4699.5 L-6801.9,-4672.2 L-6785.8,-4669.6 L-6771.4,-4667.9 L-6759.2,-4667.4 L-6743.6,-4668.5 L-6726.7,-4671.3 L-6713.0,-4675.2 L-6701.4,-4680.6 L-6693.7,-4685.1 L-6688.0,-4691.1 L-6678.4,-4702.7 L-6668.0,-4721.7 L-6656.7,-4746.9 L-6636.6,-4736.6 L-6628.6,-4733.9 L-6620.0,-4732.7 L-6606.3,-4733.6 L-6597.2,-4736.3 L-6586.8,-4740.8 L-6577.1,-4746.4 L-6566.8,-4756.4 L-6558.0,-4764.4 L-6547.0,-4771.9 L-6539.4,-4776.8 L-6528.2,-4780.8 L-6508.9,-4786.4 L-6497.5,-4789.6 L-6485.3,-4794.2 L-6474.7,-4799.7 L-6468.4,-4803.3 L-6463.4,-4808.5 L-6398.0,-4841.3 L-6395.5,-4842.7 L-6392.6,-4844.5 L-6389.6,-4846.8 L-6385.2,-4849.3 L-6382.3,-4850.7 L-6379.2,-4853.4 L-6376.8,-4855.9 L-6373.6,-4858.0 L-6370.2,-4860.4 L-6365.7,-4864.6 L-6359.3,-4865.1 L-6352.7,-4865.9 L-6348.4,-4867.3 L-6342.8,-4869.9 L-6335.9,-4873.0 L-6328.6,-4877.5 L-6324.5,-4881.4 L-6319.9,-4886.7 L-6317.0,-4891.6 L-6315.4,-4896.1 L-6315.3,-4899.3 L-6315.2,-4901.9 L-6313.6,-4912.3 L-6277.2,-4933.4 L-6213.4,-4970.2 L-6201.0,-4977.3 L-6092.8,-5039.7 L-5975.6,-5107.0 L-5925.7,-5135.6 L-5908.4,-5145.3 L-5763.5,-5229.5 L-5731.3,-5247.2 L-5731.8,-5248.3 L-5665.5,-5285.8 L-5640.0,-5300.1 L-5593.0,-5326.1 L-5592.5,-5325.4 L-5574.3,-5335.4 L-5530.1,-5360.1 L-5524.8,-5364.9 L-5480.0,-5397.7 L-5457.7,-5416.2 L-5437.2,-5433.5 L-5427.8,-5438.8 L-5406.6,-5459.8 L-5404.8,-5458.7 L-5402.0,-5459.0 L-5400.6,-5458.1 L-5370.8,-5493.0 L-5378.3,-5500.0 L-5377.3,-5501.8 L-5374.1,-5506.4 L-5365.5,-5517.3 L-5360.3,-5525.2 L-5356.2,-5531.7 L-5350.5,-5540.4 L-5345.0,-5549.4 L-5338.8,-5559.7 L-5332.4,-5570.9 L-5318.5,-5599.6 L-5314.2,-5608.7 L-5310.7,-5616.0 L-5308.3,-5621.5 L-5306.2,-5625.7 L-5301.8,-5636.7 L-5417.6,-5852.7 L-5419.8,-5856.8 L-5421.5,-5859.1 L-5422.7,-5860.8 L-5424.3,-5862.2 L-5425.8,-5863.2 L-5427.8,-5864.4 L-5429.9,-5865.2 L-5431.7,-5865.6 L-5433.5,-5865.8 L-5436.2,-5865.8 L-5439.3,-5865.3 L-5442.0,-5864.5 L-5444.8,-5863.1 L-5471.7,-5847.6 L-5506.8,-5827.5 L-5531.3,-5813.9 L-5576.0,-5789.3 L-5603.4,-5774.4 L-5602.4,-5772.7 L-5614.1,-5766.0 L-5652.4,-5746.2 L-5680.8,-5729.4 L-5697.5,-5720.1 L-5722.9,-5705.5 L-5725.8,-5703.5 L-5748.1,-5743.6 L-5704.3,-5767.6 L-5644.5,-5800.1 L-5603.8,-5822.7 L-5598.8,-5825.6 L-5599.5,-5826.7 L-5564.3,-5845.9 L-5545.6,-5856.2 L-5502.7,-5877.1 L-5494.5,-5881.3 L-5429.8,-5917.3 L-5405.5,-5930.7 L-5388.4,-5939.9 L-5368.2,-5951.5 L-5340.2,-5900.9 L-5384.2,-5876.8 L-5386.5,-5873.1 L-5387.4,-5869.2 L-5387.8,-5866.2 L-5387.9,-5863.6 L-5387.7,-5861.5 L-5386.9,-5858.6 L-5297.2,-5692.7 L-5295.5,-5690.2 L-5293.5,-5688.3 L-5291.5,-5687.0 L-5289.4,-5686.3 L-5287.1,-5686.0 L-5284.9,-5686.2 L-5283.2,-5686.7 L-5243.4,-5716.9 L-5224.7,-5732.6 L-5205.4,-5748.9 L-5198.1,-5755.6 L-5174.2,-5775.2 L-5173.1,-5775.2 L-5149.9,-5795.0 L-5149.8,-5796.2 L-5134.6,-5808.7 L-5122.6,-5818.5 L-5102.0,-5835.5 L-5100.1,-5833.2 L-5079.9,-5849.9 L-5069.7,-5858.4 L-5041.4,-5881.9 L-5021.7,-5898.3 L-5023.6,-5901.1 L-5017.1,-5906.6 L-5006.4,-5915.4 L-4999.8,-5921.2 L-4971.9,-5933.7 L-4953.0,-5940.3 L-4943.3,-5944.9 L-4916.1,-5945.1 L-4906.6,-5945.1 L-4886.5,-5944.1 L-4863.0,-5943.1 L-4861.3,-5944.7 L-4859.0,-5941.7 L-4851.6,-5941.3 L-4784.3,-5935.5 L-4776.4,-5933.8 L-4769.5,-5932.7 L-4753.9,-5931.4 L-4724.8,-5930.0 L-4718.4,-5929.9 L-4712.4,-5930.1 L-4689.1,-5931.0 L-4677.1,-5931.6 L-4665.2,-5932.7 L-4646.9,-5934.6 L-4647.0,-5933.5 L-4632.5,-5936.0 L-4618.8,-5938.6 L-4608.3,-5940.5 L-4594.5,-5950.9 L-4592.9,-5948.7 L-4591.2,-5946.3 L-4469.6,-5785.5 L-4176.1,-5684.3 L-3637.5,-6079.9 L-3490.7,-6185.6 L-3434.0,-6306.6 L-3524.2,-6424.8 L-3520.2,-6441.7 L-3504.4,-6446.0 L-3474.0,-6439.7 L-3452.4,-6447.8 L-3446.4,-6456.2 L-3447.7,-6463.5 L-3463.8,-6495.1 L-3464.9,-6506.9 L-3465.8,-6530.3 L-3468.6,-6552.9 L-3465.8,-6556.9 L-3456.7,-6561.3 L-3445.6,-6563.8 L-3437.6,-6572.4 L-3435.8,-6582.8 L-3442.6,-6602.9 L-3443.3,-6616.8 L-3441.1,-6632.6 L-3430.1,-6660.3 L-3432.4,-6673.1 L-3437.9,-6687.4 L-3438.1,-6706.8 L-3441.3,-6732.4 L-3447.1,-6748.4 L-3450.7,-6756.8 L-3448.3,-6760.5 L-3446.0,-6760.3 L-3445.4,-6761.8 L-3445.1,-6763.8 L-3445.2,-6765.8 L-3448.7,-6766.2 L-3450.9,-6769.3 L-3450.5,-6773.0 L-3453.5,-6773.8 L-3457.2,-6773.9 L-3457.7,-6773.0 L-3465.3,-6782.0 L-3466.9,-6784.8 L-3468.2,-6788.7 L-3469.1,-6792.5 L-3469.8,-6796.5 L-3470.1,-6800.5 L-3470.3,-6804.1 L-3470.3,-6807.8 L-3470.0,-6809.8 L-3468.4,-6814.8 L-3466.6,-6818.8 L-3464.3,-6822.7 L-3460.9,-6827.6 L-3457.4,-6832.3 L-3454.1,-6835.7 L-3450.0,-6838.8 L-3449.2,-6838.0 L-3414.1,-6864.8 L-3409.0,-6868.7 L-3410.0,-6870.2 L-3410.0,-6872.8 L-3401.3,-6879.6 L-3399.1,-6879.5 L-3397.0,-6878.0 L-3393.3,-6880.8 L-3357.3,-6908.1 L-3357.7,-6909.0 L-3353.5,-6912.1 L-3348.5,-6915.2 L-3345.0,-6916.8 L-3340.0,-6918.7 L-3335.7,-6919.9 L-3331.4,-6920.5 L-3326.7,-6920.9 L-3323.9,-6920.7 L-3320.0,-6920.1 L-3316.2,-6918.8 L-3313.4,-6917.4 L-3310.7,-6915.8 L-3308.7,-6914.3 L-3307.0,-6912.7 L-3304.5,-6910.3 L-3303.4,-6909.9 L-3301.6,-6909.9 L-3299.8,-6910.2 L-3294.3,-6914.1 L-3294.3,-6915.2 L-3293.7,-6916.0 L-3293.1,-6917.1 L-3293.2,-6918.4 L-3293.5,-6919.5 L-3294.3,-6920.5 L-3298.2,-6924.4 L-3301.3,-6926.9 L-3304.9,-6928.9 L-3310.8,-6931.5 L-3315.9,-6933.5 L-3307.0,-6938.1 L-3296.1,-6945.7 L-3282.6,-6947.4 L-3269.1,-6946.5 L-3260.3,-6950.0 L-3252.6,-6961.0 L-3223.6,-7012.9 L-3211.8,-7034.3 L-3202.5,-7057.1 L-3200.9,-7061.9 L-3187.1,-7104.2 L-3184.9,-7108.3 L-3182.3,-7112.4 L-3149.9,-7152.5 L-3143.0,-7159.7 L-3137.9,-7164.1 L-3065.3,-7226.3 L-3061.3,-7229.0 L-3048.9,-7235.8 L-3034.0,-7244.2 L-2987.6,-7268.5 L-2886.5,-7322.8 L-2884.1,-7320.9 L-2882.2,-7320.2 L-2880.5,-7319.7 L-2878.7,-7320.0 L-2876.8,-7320.4 L-2871.4,-7321.5 L-2865.1,-7322.9 L-2859.4,-7324.2 L-2853.5,-7325.3 L-2850.3,-7326.0 L-2845.9,-7327.3 L-2840.9,-7329.4 L-2828.8,-7336.0 L-2824.4,-7338.4 L-2822.1,-7339.8 L-2819.8,-7340.8 L-2810.4,-7344.8 L-2800.1,-7348.8 L-2787.1,-7354.4 L-2771.8,-7360.7 L-2771.2,-7361.0 L-2769.9,-7361.1 L-2768.2,-7361.6 L-2765.8,-7363.4 L-2763.1,-7364.4 L-2760.1,-7365.9 L-2754.5,-7369.1 L-2752.5,-7371.1 L-2749.2,-7373.2 L-2749.5,-7373.8 L-2748.1,-7375.5 L-2746.3,-7377.4 L-2743.3,-7378.9 L-2740.8,-7379.9 L-2738.1,-7380.9 L-2735.6,-7382.2 L-2730.7,-7385.3 L-2729.3,-7386.7 L-2727.9,-7388.9 L-2727.3,-7390.5 L-2727.1,-7392.1 L-2727.3,-7393.6 L-2727.0,-7395.1 L-2741.0,-7412.0 L-2696.9,-7437.9 L-2676.0,-7449.0 L-2671.9,-7450.3 L-2665.5,-7449.1 L-2658.4,-7439.2 L-2655.2,-7436.4 L-2652.3,-7435.0 L-2649.6,-7434.4 L-2647.1,-7434.5 L-2609.3,-7450.1 L-2599.0,-7455.1 L-2589.4,-7460.4 L-2573.9,-7468.6 L-2570.7,-7469.7 L-2355.9,-7559.0 L-2288.7,-7591.3 L-1988.2,-7735.6 L5024.9,-7793.6 L5024.9,2242.0 L-9962.8,2242.0 L-9962.8,1815.5 Z" fill="#add7e1" stroke="none"><title>Biscayne Bay</title></path><path d="M1620.6,-5183.6 L-1489.0,8188.9" fill="none" stroke="#6fb5c7" stroke-width="1.7" stroke-dasharray="5 7" opacity="0.34" stroke-linecap="round" stroke-linejoin="round"><title>Atlantic Intracoastal Waterway</title></path></svg>