<svg xmlns="http://www.w3.org/2000/svg" width="256" height="256" viewBox="0 0 256 256"><rect width="256" height="256" fill="#f1efe7"/><path d="M-2570.7,-5421.7 L-2355.9,-5511.0 L-2288.7,-5543.3 L-1988.2,-5687.6 L-1931.8,-5633.0 L-1926.9,-5628.3 L-1821.5,-5718.5 L-1796.4,-5737.6 L-1754.5,-5775.4 L-1518.4,-5992.2 L-1327.9,-6209.8 L-1320.6,-6223.7 L-1313.6,-6231.6 L-1302.5,-6244.3 L-1291.2,-6257.2 L-1286.6,-6262.5 L-1361.7,-6359.6 L-1262.3,-6419.2 L-1208.4,-6347.5 L-1132.2,-6434.7 L-1196.7,-6520.1 L-1116.8,-6603.4 L-1055.3,-6522.4 L-984.7,-6602.8 L-954.6,-6622.5 L-807.4,-6718.0 L-734.7,-6766.3 L-647.1,-6823.9 L-605.7,-6851.1 L-500.8,-6918.8 L-527.8,-6954.3 L-576.1,-7019.0 L-451.2,-7098.4 L-405.7,-7121.9 L-402.2,-7124.4 L-378.2,-7142.9 L-292.6,-7188.7 L-286.7,-7197.9 L-262.7,-7214.4 L-249.7,-7233.4 L-246.0,-7236.2 L-225.1,-7244.3 L-177.9,-7261.2 L-145.6,-7275.4 L-31.5,-7329.0 L-30.1,-7325.3 L65.6,-7366.2 L104.7,-7316.1 L191.8,-7374.2 L204.2,-7382.7 L205.4,-7383.7 L206.6,-7385.3 L208.5,-7388.6 L209.5,-7391.7 L210.1,-7395.4 L210.0,-7398.4 L209.6,-7401.3 L209.2,-7404.6 L209.1,-7407.1 L209.3,-7409.2 L209.7,-7411.4 L211.3,-7415.4 L212.4,-7417.6 L214.9,-7421.4 L217.5,-7424.2 L230.2,-7429.3 L240.8,-7433.3 L254.3,-7437.7 L260.6,-7439.4 L271.8,-7443.1 L279.7,-7445.9 L290.6,-7450.4 L305.4,-7456.9 L321.4,-7464.4 L330.0,-7468.6 L340.8,-7474.1 L350.9,-7479.7 L361.0,-7485.7 L371.3,-7492.4 L374.5,-7494.6 L395.2,-7510.4 L412.6,-7523.8 L429.6,-7538.2 L445.5,-7553.2 L457.0,-7566.1 L468.4,-7580.0 L482.4,-7598.0 L495.2,-7616.0 L509.9,-7639.1 L519.5,-7657.0 L525.5,-7668.4 L534.4,-7687.7 L541.9,-7705.6 L548.6,-7724.9 L554.0,-7741.8 L559.9,-7769.2 L564.2,-7793.7 L566.5,-7814.7 L568.5,-7839.5 L568.7,-7866.0 L567.1,-7890.5 L562.9,-7922.5 L558.5,-7944.3 L553.5,-7964.9 L546.1,-7988.3 L539.8,-8006.2 L532.6,-8025.7 L525.8,-8041.9 L521.2,-8052.4 L519.3,-8060.1 L519.0,-8066.0 L519.6,-8071.3 L521.7,-8075.9 L524.9,-8079.8 L529.1,-8082.0 L533.6,-8082.6 L545.7,-8079.7 L579.4,-8071.6 L590.6,-8326.3 L634.3,-8780.9 L586.8,-8792.1 L581.6,-8806.4 L581.8,-8826.9 L588.4,-8873.4 L597.4,-8883.9 L605.4,-8914.1 L655.9,-8902.4 L683.7,-9192.9 L691.4,-9273.3 L675.7,-9277.2 L685.2,-9315.6 L652.9,-9323.3 L657.0,-9346.8 L662.7,-9362.3 L669.8,-9380.4 L681.8,-9405.7 L694.7,-9402.8 L712.1,-9585.5 L716.2,-9696.3 L717.0,-9716.7 L726.4,-9787.2 L745.1,-9962.9 L869.9,-10288.3 L898.4,-10377.0 L1245.1,-10510.0 L1279.0,-10523.6 L1284.9,-10526.8 L1289.5,-10531.0 L1294.6,-10536.9 L1298.5,-10543.8 L1301.1,-10550.6 L1301.7,-10560.5 L1301.2,-10572.8 L1296.6,-10728.3 L1294.9,-10758.4 L1294.4,-10779.1 L1293.7,-10819.3 L1292.9,-10831.9 L1291.4,-10842.5 L1289.3,-10851.9 L1286.2,-10861.5 L1281.3,-10872.8 L1274.1,-10884.9 L1267.1,-10894.5 L1261.7,-10903.6 L1256.2,-10915.7 L1251.6,-10927.3 L1249.8,-10936.8 L1248.4,-10947.3 L1247.7,-10957.8 L1248.0,-10968.0 L1249.2,-10979.9 L1252.0,-10991.6 L1255.7,-11002.0 L1259.6,-11011.5 L1264.6,-11020.7 L1270.7,-11031.9 L1274.7,-11042.0 L1278.2,-11054.9 L1284.6,-11064.7 L1282.4,-11153.9 L1279.1,-11159.1 L1278.1,-11219.7 L1276.4,-11291.2 L1277.6,-11301.1 L1280.8,-11311.2 L1288.8,-11327.0 L1342.3,-11442.1 L1343.4,-11444.0 L1352.8,-11464.5 L1361.7,-11483.9 L1371.7,-11503.9 L1381.5,-11524.5 L1386.3,-11534.5 L1438.9,-11642.4 L1495.1,-11761.6 L1616.7,-12008.4 L1543.6,-12090.3 L1484.0,-11963.3 L1432.5,-11853.4 L1424.7,-11837.8 L1408.8,-11805.3 L1377.0,-11808.0 L1368.3,-11808.5 L1365.2,-11805.7 L1369.4,-11801.9 L1353.1,-11787.4 L1340.2,-11775.5 L1337.8,-11724.6 L1333.0,-11714.4 L1317.4,-11715.0 L1314.8,-11715.9 L1110.4,-11800.3 L1106.0,-11802.6 L1101.3,-11805.6 L1093.9,-11811.2 L1088.2,-11816.6 L1083.4,-11821.8 L1078.7,-11828.2 L1075.1,-11833.8 L1072.3,-11839.6 L1070.1,-11845.7 L1068.6,-11849.9 L1067.5,-11855.0 L1066.7,-11861.0 L1065.9,-11869.2 L1065.9,-11880.9 L1064.5,-11920.6 L1070.1,-11920.9 L1069.3,-11941.9 L1068.4,-11976.5 L1073.6,-11976.6 L1073.2,-12000.2 L1067.3,-12000.1 L1064.6,-12099.5 L1070.2,-12099.8 L1069.3,-12123.1 L1063.9,-12122.9 L1061.6,-12196.4 L1088.6,-12225.5 L1123.1,-12226.7 L1148.8,-12227.6 L1182.7,-12228.7 L1215.3,-12229.7 L1244.5,-12230.7 L1257.2,-12231.3 L1256.6,-12242.6 L1256.4,-12254.4 L1254.5,-12292.7 L1253.8,-12365.8 L1252.8,-12367.1 L1252.6,-12374.3 L1254.7,-12374.4 L1249.6,-12550.5 L1245.2,-12716.2 L1244.5,-12721.4 L1244.1,-12731.0 L1171.9,-12728.4 L1123.9,-12732.5 L764.6,-12720.0 L764.5,-12723.2 L763.8,-12738.5 L593.4,-12732.5 L593.1,-12760.8 L570.6,-12765.9 L566.6,-12887.0 L1229.4,-12910.0 L1240.4,-12925.1 L1240.0,-12968.1 L1239.2,-13005.3 L1238.6,-13028.6 L1237.7,-13051.3 L1185.0,-13076.1 L1182.9,-13131.2 L1236.9,-13158.0 L1232.0,-13285.5 L1230.6,-13291.8 L1176.9,-13316.9 L1175.2,-13385.1 L1226.2,-13411.4 L1203.5,-13688.3 L1209.5,-13811.5 L1212.5,-14012.4 L1212.3,-14230.9 L1217.1,-14261.5 L1217.4,-14276.3 L1212.6,-14294.1 L1217.6,-14294.1 L1217.6,-14310.2 L1220.6,-14721.2 L1220.1,-14739.5 L1214.4,-14739.5 L1214.6,-14815.1 L1211.3,-14819.8 L1206.1,-14897.8 L1216.4,-14969.1 L1215.1,-15055.4 L1211.6,-15076.1 L1216.9,-15140.0 L1213.3,-15217.3 L1204.3,-15300.0 L1187.2,-15434.0 L1195.3,-15470.9 L1191.7,-15506.8 L1161.1,-15532.9 L1116.2,-15532.5 L1047.8,-15523.5 L1003.3,-15523.5 L962.9,-15538.3 L909.8,-15574.7 L909.8,-15640.0 L908.4,-15720.3 L913.6,-15787.2 L931.2,-15839.4 L1225.9,-15844.9 L1232.7,-16262.8 L1232.7,-16864.4 L1229.6,-17082.7 L17141.8,-23654.4 L17141.8,12563.8 L-2570.7,12563.8 L-2570.7,-5421.7 Z" fill="#add7e1" stroke="none"><title>Biscayne Bay</title></path><path d="M-9962.8,3863.5 L-10507.0,3461.8 L-10550.5,3429.8 L-10597.7,3419.5 L-10631.0,3391.5 L-10657.6,3388.4 L-10743.6,3394.1 L-10743.5,3386.0 L-10748.3,3378.4 L-10757.9,3372.5 L-10944.7,3291.6 L-10957.4,3285.8 L-10968.5,3282.6 L-10982.3,3281.5 L-10996.2,3281.2 L-11042.6,3281.2 L-11054.9,3280.5 L-11067.0,3278.1 L-11079.8,3273.1 L-11095.2,3269.0 L-11106.4,3268.0 L-11139.3,3266.6 L-11150.3,3264.6 L-11164.3,3260.1 L-11178.0,3256.6 L-11191.3,3253.5 L-11201.7,3249.3 L-11214.3,3241.5 L-11225.5,3233.1 L-11236.4,3224.9 L-11245.3,3220.7 L-11252.1,3219.3 L-11258.2,3219.7 L-11264.7,3221.5 L-11272.3,3225.4 L-11278.3,3232.0 L-11286.4,3239.9 L-11295.4,3248.2 L-11305.6,3253.8 L-11318.5,3258.0 L-11329.2,3260.6 L-11342.1,3262.6 L-11363.7,3265.1 L-11417.9,3267.7 L-11463.9,3270.0 L-11483.7,3277.1 L-11524.3,3278.5 L-11529.8,3270.0 L-11535.9,3266.1 L-11542.2,3264.9 L-11586.0,3267.4 L-11605.0,3274.2 L-11628.3,3274.4 L-11644.0,3272.1 L-11656.9,3268.2 L-11704.0,3271.0 L-11828.6,3280.7 L-11857.3,3281.5 L-11867.1,3281.3 L-11875.9,3279.1 L-11886.1,3274.0 L-11893.6,3268.0 L-11926.0,3268.1 L-11953.1,3267.7 L-11960.4,3272.2 L-11997.7,3273.1 L-12002.5,3281.0 L-12007.8,3281.2 L-12017.0,3279.0 L-12033.5,3277.0 L-12050.5,3277.9 L-12055.7,3279.5 L-12061.0,3278.6 L-12064.6,3275.1 L-12070.7,3271.6 L-12093.4,3271.7 L-12116.3,3272.9 L-12138.0,3285.7 L-12148.7,3290.8 L-12160.9,3293.5 L-12171.0,3294.2 L-12180.1,3292.8 L-12201.1,3283.8 L-12213.1,3280.0 L-12223.3,3278.5 L-12268.0,3279.1 L-12270.8,3273.7 L-12310.3,3274.6 L-12337.5,3279.6 L-12355.4,3281.7 L-12365.0,3283.8 L-12368.7,3281.3 L-12375.5,3280.4 L-12439.2,3274.6 L-12444.7,3277.6 L-12451.4,3279.0 L-12460.2,3279.1 L-12460.2,3275.9 L-12499.7,3268.5 L-12524.6,3263.7 L-12584.8,3243.5 L-12588.1,3248.0 L-12628.3,3235.6 L-12636.7,3232.8 L-12632.6,3218.8 L-12637.4,3217.3 L-12638.4,3215.8 L-12641.0,3215.0 L-12644.6,3214.5 L-12649.0,3212.3 L-12647.5,3211.0 L-12665.3,3196.5 L-12694.9,3169.7 L-12710.8,3155.7 L-12722.1,3143.4 L-12728.4,3135.1 L-12737.8,3122.3 L-12743.2,3112.4 L-12760.0,3091.3 L-12761.6,3090.1 L-12762.7,3090.0 L-12763.9,3090.2 L-12766.1,3090.3 L-12768.1,3089.3 L-12772.3,3086.6 L-12780.9,3082.1 L-12785.1,3078.5 L-12790.0,3074.2 L-12796.7,3070.6 L-12807.2,3067.3 L-12818.3,3065.3 L-12827.8,3065.1 L-12825.1,3039.9 L-12822.9,3007.0 L-12812.6,3008.0 L-12802.3,3009.8 L-12788.8,3013.8 L-12778.9,3017.5 L-12770.0,3021.6 L-12761.4,3025.6 L-12753.3,3030.2 L-12746.7,3035.3 L-12737.9,3042.1 L-12728.7,3049.0 L-12726.6,3050.3 L-12724.7,3050.7 L-12699.5,3049.6 L-12699.2,3055.3 L-12700.7,3057.8 L-12719.6,3059.6 L-12714.8,3069.4 L-12711.5,3068.2 L-12708.5,3071.2 L-12706.6,3074.1 L-12705.0,3076.3 L-12701.1,3081.5 L-12699.6,3087.2 L-12693.5,3095.6 L-12679.1,3104.7 L-12661.2,3113.8 L-12639.8,3127.3 L-12630.0,3131.9 L-12609.4,3143.6 L-12599.7,3148.7 L-12582.0,3155.2 L-12547.2,3164.5 L-12526.8,3169.4 L-12508.2,3171.3 L-12498.3,3172.6 L-12496.1,3172.4 L-12495.2,3171.1 L-12494.9,3164.5 L-12471.8,3164.5 L-12471.3,3171.9 L-12422.9,3174.4 L-12375.7,3175.8 L-12343.6,3174.6 L-12333.0,3173.8 L-12325.3,3172.8 L-12319.0,3171.0 L-12313.2,3167.5 L-12310.3,3162.8 L-12311.4,3085.3 L-12291.9,3084.2 L-12290.2,3159.8 L-12289.1,3161.7 L-12285.2,3164.4 L-12280.7,3165.7 L-12177.3,3165.9 L-12177.8,3132.6 L-12169.7,3132.4 L-12166.3,3165.9 L-12102.5,3165.3 L-12102.5,3161.7 L-12096.2,3161.6 L-12096.0,3164.2 L-11670.5,3156.1 L-11639.7,3152.5 L-11602.1,3151.4 L-11566.5,3156.1 L-11554.6,3155.1 L-11545.9,3153.4 L-11537.8,3150.5 L-11527.3,3146.5 L-11313.4,3142.7 L-11313.5,3127.9 L-11193.8,3125.8 L-11193.7,3142.1 L-11142.9,3143.9 L-11139.0,3143.8 L-11135.4,3143.5 L-11130.7,3142.9 L-11126.9,3141.9 L-11123.2,3140.7 L-11116.9,3137.7 L-11114.0,3142.7 L-11107.8,3138.8 L-11102.1,3134.2 L-11097.3,3129.2 L-11093.1,3123.3 L-11089.2,3116.0 L-11096.5,3111.9 L-11094.5,3105.8 L-11093.2,3099.5 L-11092.5,3093.5 L-11092.4,3088.8 L-11092.6,3084.4 L-11093.3,3046.5 L-11099.4,3040.9 L-11094.2,3035.4 L-11099.5,3030.8 L-11093.5,3023.7 L-11100.0,3018.0 L-11094.8,3012.5 L-11100.0,3007.5 L-11093.9,3001.0 L-11100.2,2994.6 L-11087.1,2980.2 L-11084.8,2980.1 L-11090.5,2765.6 L-11042.4,2764.5 L-11040.1,2765.7 L-11037.5,2767.7 L-11035.6,2769.4 L-11034.8,2771.4 L-11034.1,2773.8 L-11033.9,2776.2 L-11029.8,3109.5 L-11027.9,3120.3 L-11025.2,3127.6 L-11021.0,3136.6 L-11016.1,3145.4 L-11011.0,3152.4 L-11006.9,3156.7 L-11002.5,3160.1 L-10997.4,3163.1 L-10992.1,3165.1 L-10984.9,3167.2 L-10976.0,3168.9 L-10965.2,3170.9 L-10952.6,3173.2 L-10940.6,3175.8 L-10927.3,3178.2 L-10914.7,3180.9 L-10910.7,3181.7 L-10905.8,3182.7 L-10901.0,3183.3 L-10896.8,3183.4 L-10892.0,3183.4 L-10888.3,3183.2 L-10884.6,3182.5 L-10881.4,3181.7 L-10878.0,3180.7 L-10875.1,3179.4 L-10869.3,3176.6 L-10864.2,3173.6 L-10859.1,3169.9 L-10853.2,3164.2 L-10847.7,3158.0 L-10844.7,3152.7 L-10842.0,3146.2 L-10840.6,3140.9 L-10839.8,3135.2 L-10839.3,3129.8 L-10839.3,3124.8 L-10846.6,2767.6 L-10836.2,2756.9 L-10832.4,2756.5 L-10830.9,2755.1 L-10809.2,2754.5 L-10807.3,2751.3 L-10804.0,2752.2 L-10798.5,2757.3 L-10794.7,2762.6 L-10790.9,2769.2 L-10783.7,3168.4 L-10783.0,3175.4 L-10781.7,3189.3 L-10780.4,3192.1 L-10781.4,3192.8 L-10779.6,3196.7 L-10777.3,3201.3 L-10775.3,3204.2 L-10772.9,3207.7 L-10769.6,3211.5 L-10765.7,3215.5 L-10761.0,3219.5 L-10756.8,3222.6 L-10752.2,3225.1 L-10747.8,3227.3 L-10743.1,3228.8 L-10742.5,3227.4 L-10676.3,3251.4 L-10668.0,3254.5 L-10664.2,3255.9 L-10658.3,3258.0 L-10654.0,3259.0 L-10650.3,3259.5 L-10646.9,3259.5 L-10642.1,3259.1 L-10636.9,3258.6 L-10632.3,3257.6 L-10627.6,3256.3 L-10624.1,3254.9 L-10620.4,3253.2 L-10617.4,3251.3 L-10613.6,3248.5 L-10608.8,3244.3 L-10604.4,3240.0 L-10599.6,3234.0 L-10596.2,3228.4 L-10593.4,3222.2 L-10591.4,3215.3 L-10590.2,3208.3 L-10589.5,3195.8 L-10589.8,3170.3 L-10597.1,2764.2 L-10597.1,2759.7 L-10596.3,2756.5 L-10594.9,2753.9 L-10592.0,2751.5 L-10588.7,2749.8 L-10585.0,2749.2 L-10554.9,2748.2 L-10551.3,2748.8 L-10548.1,2750.2 L-10545.8,2752.4 L-10543.2,2756.2 L-10541.7,2761.6 L-10540.8,2768.9 L-10533.3,3289.8 L-10532.9,3292.9 L-10532.3,3296.0 L-10531.4,3299.2 L-10530.3,3302.7 L-10529.1,3306.2 L-10527.7,3309.4 L-10526.5,3312.1 L-10525.2,3314.5 L-10523.3,3317.5 L-10521.2,3320.1 L-10519.3,3322.5 L-10516.4,3325.6 L-10513.6,3328.3 L-10510.5,3330.8 L-10507.2,3333.3 L-10498.0,3339.1 L-10497.1,3338.0 L-10489.0,3342.5 L-10479.4,3347.7 L-10473.9,3350.7 L-10467.8,3354.3 L-10461.5,3358.0 L-10455.0,3362.0 L-10447.7,3366.5 L-10440.5,3371.0 L-10433.3,3375.3 L-10427.3,3379.0 L-10420.6,3383.3 L-10413.5,3387.9 L-10406.7,3392.4 L-10400.4,3396.7 L-10401.1,3397.6 L-10392.3,3403.7 L-10383.2,3409.8 L-10380.4,3411.5 L-10377.3,3413.2 L-10372.9,3415.3 L-10368.8,3416.8 L-10364.4,3418.0 L-10360.5,3419.0 L-10355.9,3419.7 L-10350.8,3420.3 L-10346.4,3420.3 L-10342.7,3420.0 L-10339.5,3419.3 L-10335.4,3418.2 L-10331.3,3416.9 L-10327.5,3415.6 L-10324.0,3413.9 L-10320.4,3412.0 L-10316.9,3409.8 L-10313.3,3407.0 L-10310.1,3404.1 L-10307.0,3401.0 L-10304.1,3397.8 L-10301.1,3393.4 L-10298.6,3389.0 L-10296.2,3384.1 L-10294.8,3380.3 L-10293.7,3376.3 L-10292.9,3372.0 L-10292.5,3367.7 L-10292.8,3362.8 L-10352.1,2795.1 L-10348.0,2794.7 L-10351.3,2766.3 L-10354.3,2766.5 L-10356.7,2753.4 L-10355.9,2750.7 L-10353.4,2746.7 L-10348.3,2742.8 L-10341.6,2742.0 L-10314.7,2741.1 L-10310.2,2742.0 L-10307.1,2743.5 L-10303.8,2746.1 L-10301.5,2748.5 L-10299.9,2751.0 L-10234.9,3387.9 L-10233.4,3393.4 L-10230.6,3400.2 L-10228.2,3404.6 L-10225.6,3409.3 L-10222.2,3413.9 L-10219.4,3417.1 L-10216.3,3420.3 L-10212.9,3423.0 L-10209.9,3425.1 L-10205.7,3427.8 L-10202.0,3429.7 L-10197.1,3431.8 L-10192.5,3433.2 L-10187.3,3434.3 L-10183.3,3434.9 L-10179.8,3435.0 L-10175.7,3435.1 L-10034.5,3432.2 L-10029.9,3431.6 L-10025.5,3429.5 L-10022.3,3426.6 L-10020.1,3422.2 L-10019.3,3418.2 L-10019.5,3414.2 L-10091.0,2732.1 L-10154.0,2649.9 L-10156.8,2652.2 L-10211.6,2575.7 L-10212.6,2559.5 L-10214.3,2556.1 L-10217.2,2553.0 L-10220.9,2547.8 L-10221.2,2540.2 L-10227.7,2537.7 L-10234.0,2537.6 L-10242.5,2541.8 L-10232.9,2559.8 L-10245.0,2565.6 L-10254.1,2557.2 L-10261.9,2552.4 L-10267.2,2550.6 L-10280.2,2550.1 L-10286.8,2536.7 L-10245.3,2519.7 L-10247.3,2516.3 L-10256.1,2504.5 L-10257.5,2505.2 L-10566.4,2100.7 L-10571.1,2034.0 L-10568.6,2033.4 L-10580.5,1911.1 L-10585.1,1899.8 L-10590.1,1887.1 L-10593.9,1877.3 L-10598.5,1864.8 L-10613.5,1822.7 L-10619.6,1825.4 L-10628.5,1791.3 L-10627.0,1791.0 L-10658.1,1706.7 L-10661.5,1559.3 L-10657.9,1559.3 L-10657.4,1546.4 L-10655.6,1533.7 L-10654.9,1529.0 L-10656.2,1525.2 L-10652.0,1505.1 L-10613.7,1437.3 L-10633.8,1425.1 L-10618.9,1400.4 L-10599.5,1411.8 L-10597.8,1409.2 L-10591.7,1412.3 L-10585.1,1414.9 L-10577.5,1417.3 L-10571.8,1418.5 L-10566.4,1418.7 L-10560.0,1417.6 L-10553.7,1415.5 L-10547.5,1413.1 L-10544.6,1410.0 L-10543.5,1405.9 L-10542.0,1401.0 L-10541.7,1399.0 L-10541.8,1396.5 L-10543.2,1392.6 L-10545.8,1388.9 L-10548.8,1386.8 L-10553.2,1382.6 L-10557.0,1378.6 L-10562.6,1375.0 L-10564.9,1369.3 L-10567.6,1363.6 L-10571.9,1356.9 L-10576.8,1351.1 L-10585.8,1344.7 L-10629.4,1322.1 L-10655.2,1309.3 L-10679.3,1296.3 L-10702.2,1283.6 L-10717.0,1274.0 L-10722.7,1272.5 L-10729.0,1274.4 L-10732.5,1278.7 L-10739.6,1296.4 L-10783.7,1276.6 L-10757.3,1234.9 L-10751.5,1232.2 L-10744.4,1230.8 L-10736.1,1232.6 L-10570.4,1329.5 L-10561.4,1332.2 L-10552.0,1334.5 L-10538.7,1334.8 L-10525.2,1332.4 L-10516.6,1328.9 L-10507.2,1321.3 L-10501.7,1316.0 L-10495.8,1307.7 L-10495.9,1306.6 L-10496.3,1305.6 L-10497.2,1304.8 L-10550.8,1271.7 L-10552.1,1271.3 L-10553.5,1271.2 L-10554.9,1271.3 L-10560.0,1273.5 L-10561.9,1273.7 L-10564.0,1273.5 L-10567.1,1273.0 L-10569.5,1272.3 L-10572.9,1270.6 L-10576.2,1268.7 L-10649.9,1223.7 L-10684.6,1199.3 L-10687.9,1198.8 L-10691.2,1198.9 L-10695.1,1199.0 L-10697.7,1198.6 L-10699.9,1197.6 L-10702.5,1195.6 L-10705.4,1193.3 L-10707.4,1190.5 L-10708.6,1187.7 L-10708.8,1185.6 L-10708.5,1182.9 L-10708.0,1180.6 L-10696.2,1160.8 L-10696.2,1159.9 L-10697.1,1159.2 L-10707.9,1151.6 L-10710.0,1148.5 L-10708.8,1146.6 L-10705.3,1147.1 L-10701.5,1148.2 L-10679.3,1161.9 L-10553.5,1242.2 L-10550.9,1243.7 L-10549.1,1245.6 L-10547.9,1247.8 L-10546.6,1252.4 L-10545.7,1256.0 L-10545.2,1259.1 L-10488.4,1293.2 L-10486.4,1294.1 L-10484.0,1294.3 L-10481.2,1293.9 L-10479.2,1293.2 L-10477.5,1292.4 L-10416.4,1193.5 L-10390.8,1155.9 L-10366.9,1129.0 L-10354.8,1135.7 L-10347.0,1123.1 L-10388.5,1098.3 L-10379.7,1083.9 L-10338.2,1108.9 L-10328.9,1093.7 L-10336.4,1085.3 L-10328.8,1076.6 L-10320.6,1086.0 L-10318.6,1084.5 L-10316.3,1082.9 L-10313.1,1081.1 L-10309.8,1079.5 L-10305.7,1078.0 L-10301.8,1076.9 L-10297.6,1076.2 L-10293.4,1075.9 L-10289.4,1076.0 L-10285.5,1076.6 L-10281.8,1077.5 L-10278.7,1078.4 L-10276.0,1079.6 L-10272.2,1081.4 L-10268.7,1083.6 L-10265.7,1085.7 L-10262.7,1088.4 L-10260.0,1091.0 L-10257.0,1094.9 L-10254.9,1098.4 L-10252.8,1102.9 L-10251.4,1107.4 L-10250.2,1113.6 L-10249.8,1119.0 L-10249.9,1122.1 L-10250.3,1125.3 L-10251.4,1130.1 L-10254.2,1136.7 L-10256.0,1141.0 L-10258.5,1146.1 L-10248.1,1151.3 L-10199.5,1093.3 L-10288.0,1039.5 L-10283.5,1029.9 L-10280.3,1021.0 L-10280.1,1017.2 L-10275.0,1006.3 L-10264.5,996.6 L-10251.5,986.0 L-10236.0,976.1 L-10206.9,967.6 L-10156.7,962.6 L-10136.9,946.6 L-10132.8,945.9 L-10129.5,945.7 L-10124.8,947.5 L-10120.5,948.0 L-10092.6,964.9 L-10019.2,877.8 L-10288.2,706.8 L-10304.9,733.1 L-10341.2,710.1 L-10289.7,629.1 L-10253.5,651.5 L-10269.6,679.1 L-9995.9,851.6 L-9961.4,807.3 L-9937.0,778.3 L-9904.8,729.9 L-9887.0,705.5 L-9888.8,691.6 L-9888.3,691.2 L-9891.5,680.9 L-9893.6,674.5 L-9895.6,667.9 L-9898.0,662.2 L-9902.6,654.7 L-9907.2,647.4 L-9909.2,643.6 L-9910.7,639.8 L-9911.8,636.3 L-9912.2,633.2 L-9912.7,623.0 L-10030.9,514.5 L-10034.8,518.7 L-10038.1,515.9 L-10047.7,525.4 L-10054.0,517.0 L-10046.4,508.2 L-10054.0,498.5 L-10059.2,499.9 L-10064.6,500.1 L-10069.5,499.2 L-10073.8,497.4 L-10078.8,493.7 L-10085.0,487.6 L-10095.9,475.6 L-10099.2,470.5 L-10100.4,464.1 L-10099.6,456.5 L-10096.7,449.5 L-10094.2,444.7 L-10089.4,439.9 L-10084.1,436.3 L-10079.0,434.4 L-10075.2,433.8 L-10070.2,434.7 L-10065.1,436.5 L-10060.3,440.3 L-10049.2,450.3 L-10043.5,455.7 L-10038.3,461.4 L-10036.6,464.1 L-10035.4,467.0 L-10034.7,469.6 L-10034.2,473.2 L-10034.8,476.6 L-10035.8,479.8 L-10037.2,482.2 L-10037.6,483.3 L-10037.3,484.7 L-10036.5,486.1 L-9909.6,605.0 L-9905.2,608.0 L-9902.1,609.3 L-9897.7,608.3 L-9892.5,607.9 L-9885.9,610.7 L-9879.3,614.8 L-9866.4,622.1 L-9861.0,624.7 L-9856.1,619.9 L-9850.7,614.7 L-9847.1,610.6 L-9841.1,602.8 L-9837.7,598.1 L-9834.1,592.3 L-9831.8,587.2 L-9829.3,581.8 L-9827.0,576.1 L-9824.9,570.3 L-9823.7,565.4 L-9822.3,559.2 L-9821.7,555.5 L-9821.3,552.5 L-9820.6,547.2 L-9819.9,542.0 L-9819.6,538.6 L-9819.4,534.9 L-9819.4,530.6 L-9819.6,527.0 L-9820.3,522.0 L-9821.1,516.3 L-9821.9,511.0 L-9822.4,506.7 L-9823.0,503.5 L-9823.7,500.1 L-9824.5,496.7 L-9825.7,492.7 L-9827.1,488.7 L-9828.2,486.3 L-9829.4,483.9 L-9831.1,481.6 L-9833.4,478.3 L-9835.9,475.2 L-9838.6,472.6 L-9842.0,469.8 L-9845.5,467.6 L-9849.0,465.7 L-9852.2,464.5 L-9854.4,463.8 L-9856.9,463.5 L-9859.9,463.6 L-9862.7,464.2 L-9864.9,465.1 L-9867.0,466.6 L-9868.5,468.2 L-9869.7,469.7 L-9870.6,472.0 L-9871.1,474.5 L-9871.0,477.5 L-9870.8,481.0 L-9870.8,483.6 L-9871.0,486.2 L-9871.4,488.8 L-9871.9,491.1 L-9872.8,493.5 L-9874.2,496.1 L-9875.9,498.6 L-9877.6,500.9 L-9879.3,502.5 L-9882.7,505.2 L-9885.5,507.1 L-9889.9,508.4 L-9892.5,509.0 L-9895.5,509.4 L-9898.2,509.5 L-9901.8,509.3 L-9904.4,508.8 L-9908.0,508.0 L-9913.0,506.5 L-9917.2,504.9 L-9920.3,503.7 L-9923.6,501.9 L-9926.5,499.9 L-9929.7,497.4 L-9932.2,495.1 L-9934.3,493.0 L-9936.5,490.4 L-9938.3,488.0 L-9940.0,485.6 L-9941.5,482.9 L-9943.1,479.3 L-9944.5,476.0 L-9945.9,472.4 L-9946.8,469.6 L-9947.5,467.0 L-9948.0,464.3 L-9948.4,460.1 L-9948.7,456.4 L-9948.5,452.4 L-9947.6,447.1 L-9946.1,441.9 L-9944.2,436.5 L-9942.9,434.0 L-9941.6,432.5 L-9931.3,419.4 L-9928.9,416.7 L-9925.8,415.2 L-9922.5,414.0 L-9918.8,413.2 L-9914.7,412.7 L-9911.1,412.5 L-9907.5,412.6 L-9903.9,413.0 L-9899.8,414.2 L-9895.5,416.3 L-9891.8,418.6 L-9888.5,421.2 L-9878.1,430.8 L-9875.6,431.6 L-9874.2,431.9 L-9872.5,431.5 L-9871.4,431.1 L-9870.0,429.5 L-9869.4,427.9 L-9869.3,425.7 L-9869.2,423.7 L-9869.6,422.8 L-9890.6,402.0 L-9862.0,371.5 L-9863.6,367.9 L-9847.1,351.6 L-9815.3,383.4 L-9840.9,416.0 L-9841.1,417.9 L-9839.8,418.7 L-9838.2,418.3 L-9810.1,383.1 L-9801.9,373.2 L-9801.6,370.9 L-9802.3,368.9 L-9803.8,367.1 L-9825.8,346.3 L-9820.3,339.9 L-9825.9,335.2 L-9822.7,327.8 L-9765.7,270.5 L-9746.1,267.2 L-9740.0,266.3 L-9734.2,265.5 L-9731.5,264.8 L-9728.3,263.1 L-9724.5,261.0 L-9721.6,258.1 L-9718.8,254.6 L-9689.7,212.3 L-9689.1,211.2 L-9689.4,209.8 L-9689.8,208.8 L-9690.5,207.9 L-9694.0,205.7 L-9694.9,205.2 L-9695.7,205.3 L-9696.6,205.8 L-9698.5,207.2 L-9722.9,230.0 L-9732.4,236.8 L-9771.4,196.8 L-9766.9,182.6 L-9765.0,178.4 L-9758.9,167.2 L-9751.8,154.7 L-9747.5,149.9 L-9739.8,141.7 L-9731.6,132.7 L-9722.6,123.2 L-9714.9,116.6 L-9711.2,113.3 L-9706.3,109.7 L-9701.8,107.3 L-9695.4,104.4 L-9691.4,103.0 L-9687.4,101.8 L-9684.3,101.5 L-9679.9,101.8 L-9676.2,102.3 L-9672.0,103.5 L-9667.9,106.9 L-9665.4,110.4 L-9663.9,114.0 L-9663.3,119.4 L-9663.5,126.5 L-9664.4,134.5 L-9666.1,142.2 L-9676.4,165.2 L-9686.2,185.9 L-9682.8,191.4 L-9681.0,192.5 L-9679.1,192.5 L-9677.4,192.1 L-9676.1,191.3 L-9669.4,181.8 L-9660.8,177.5 L-9643.7,131.8 L-9642.5,129.5 L-9640.8,127.5 L-9639.1,126.6 L-9637.5,126.2 L-9635.2,126.2 L-9632.8,126.8 L-9620.3,130.3 L-9617.9,130.8 L-9615.1,130.9 L-9612.5,130.5 L-9610.4,129.6 L-9608.6,128.2 L-9606.8,125.9 L-9585.8,97.8 L-9584.8,95.7 L-9584.3,93.5 L-9584.3,91.4 L-9584.7,89.2 L-9585.5,87.6 L-9586.7,86.0 L-9588.1,84.7 L-9590.1,83.7 L-9592.0,83.2 L-9593.9,83.1 L-9595.5,83.4 L-9597.4,84.3 L-9598.8,85.3 L-9599.9,86.7 L-9605.4,95.6 L-9606.6,97.3 L-9608.0,98.9 L-9610.1,100.7 L-9612.0,101.8 L-9614.3,102.5 L-9617.1,103.1 L-9618.7,103.1 L-9620.9,102.8 L-9622.8,102.3 L-9624.4,101.6 L-9641.6,86.0 L-9643.6,83.6 L-9645.1,81.4 L-9646.5,78.7 L-9647.4,76.4 L-9648.0,74.0 L-9648.5,71.4 L-9648.8,68.2 L-9648.9,65.0 L-9648.6,62.3 L-9648.2,60.0 L-9647.7,58.0 L-9646.9,56.3 L-9615.6,6.6 L-9613.6,3.3 L-9612.4,1.6 L-9611.0,0.8 L-9608.7,-0.2 L-9606.3,-0.9 L-9604.0,-1.3 L-9602.7,-1.3 L-9601.4,-1.1 L-9600.3,-0.7 L-9598.7,0.1 L-9596.8,1.3 L-9593.6,3.9 L-9579.3,17.3 L-9576.9,20.7 L-9575.5,24.0 L-9574.2,27.9 L-9573.8,30.9 L-9573.6,34.1 L-9573.6,36.8 L-9573.9,39.5 L-9574.4,42.2 L-9575.0,44.0 L-9576.6,47.7 L-9582.3,58.3 L-9582.9,60.7 L-9582.9,63.6 L-9582.7,65.8 L-9581.9,67.5 L-9580.4,69.1 L-9578.0,70.8 L-9576.0,71.9 L-9573.7,72.4 L-9571.0,72.3 L-9568.8,71.8 L-9566.3,70.5 L-9564.1,68.5 L-9527.1,17.7 L-9538.4,7.5 L-9531.6,0.2 L-9521.5,9.9 L-9500.7,-17.4 L-9469.2,-59.5 L-9596.0,-181.0 L-9623.5,-152.1 L-9655.8,-182.6 L-9624.6,-216.2 L-9628.7,-220.7 L-9622.2,-226.7 L-9618.2,-222.6 L-9596.5,-246.2 L-9577.0,-228.1 L-9574.7,-213.1 L-9492.7,-136.6 L-9476.7,-130.4 L-9463.9,-134.9 L-9439.6,-125.2 L-9423.5,-131.1 L-9375.6,-189.6 L-9372.9,-195.1 L-9372.1,-202.5 L-9374.5,-209.8 L-9377.7,-215.0 L-9406.1,-241.2 L-9405.7,-248.4 L-9400.1,-262.5 L-9388.9,-283.4 L-9411.0,-297.7 L-9402.6,-300.9 L-9397.3,-304.3 L-9392.0,-310.3 L-9385.8,-326.2 L-9374.4,-355.2 L-9367.0,-362.0 L-9437.2,-430.0 L-9452.6,-420.4 L-9456.2,-419.5 L-9459.6,-419.4 L-9464.0,-419.9 L-9467.6,-420.9 L-9471.1,-423.0 L-9474.0,-425.5 L-9510.3,-460.5 L-9517.1,-467.3 L-9520.1,-470.9 L-9522.6,-475.4 L-9523.8,-479.5 L-9524.3,-483.5 L-9524.2,-487.3 L-9523.5,-490.9 L-9522.6,-493.8 L-9521.4,-495.9 L-9518.8,-499.6 L-9515.7,-503.3 L-9499.4,-520.2 L-9375.4,-405.3 L-9383.9,-395.7 L-9292.0,-308.8 L-9186.1,-463.9 L-9253.3,-526.7 L-9261.9,-519.0 L-9387.4,-637.5 L-9371.0,-652.8 L-9298.9,-585.2 L-9291.7,-595.8 L-9287.7,-601.1 L-9282.6,-606.3 L-9276.7,-612.8 L-9270.7,-616.7 L-9261.2,-624.7 L-9251.7,-633.5 L-9233.5,-650.7 L-9190.0,-699.6 L-9182.2,-707.7 L-9153.5,-722.4 L-9126.3,-743.7 L-9123.7,-745.7 L-9116.6,-751.2 L-9113.5,-754.0 L-9111.0,-757.2 L-9109.3,-760.5 L-9108.2,-763.8 L-9106.9,-766.3 L-9105.4,-769.0 L-9102.8,-773.3 L-9101.0,-776.0 L-9099.2,-778.5 L-9095.9,-781.1 L-9092.7,-783.3 L-9089.2,-785.4 L-9080.9,-789.4 L-9072.9,-793.4 L-9071.7,-793.6 L-9070.5,-793.4 L-9068.1,-792.7 L-9061.6,-789.4 L-9056.7,-787.0 L-9054.4,-785.6 L-9052.3,-783.9 L-9018.9,-752.2 L-9016.6,-750.9 L-9005.7,-748.0 L-9002.2,-747.0 L-8998.3,-746.6 L-8995.3,-746.7 L-8993.0,-747.5 L-8990.7,-749.1 L-8978.8,-765.9 L-8978.8,-768.2 L-8979.2,-770.3 L-8980.5,-772.6 L-8982.5,-774.8 L-8991.6,-783.3 L-8990.9,-784.7 L-8979.2,-809.5 L-8959.2,-849.8 L-8941.0,-863.2 L-8930.5,-873.7 L-8923.3,-882.0 L-8915.7,-889.7 L-8907.3,-896.6 L-8902.2,-901.3 L-8896.8,-906.2 L-8892.8,-910.2 L-8890.8,-913.8 L-8889.2,-916.6 L-8888.2,-919.3 L-8887.8,-922.5 L-8887.6,-925.7 L-8881.5,-931.9 L-8872.5,-940.4 L-8857.5,-952.7 L-8841.8,-964.6 L-8834.8,-974.4 L-8832.2,-984.5 L-8824.4,-989.3 L-8814.6,-989.5 L-8804.7,-995.4 L-8796.0,-1011.1 L-8796.2,-1027.4 L-8794.6,-1052.6 L-8792.1,-1056.2 L-8790.6,-1058.6 L-8787.8,-1063.2 L-8791.3,-1073.9 L-8787.3,-1078.9 L-8767.5,-1103.4 L-8733.5,-1143.1 L-8727.0,-1152.5 L-8724.4,-1157.4 L-8713.6,-1172.3 L-8710.6,-1181.7 L-8710.5,-1196.2 L-8710.9,-1210.7 L-8711.0,-1225.5 L-8706.6,-1241.8 L-8699.2,-1257.9 L-8688.6,-1273.4 L-8680.9,-1284.9 L-8671.8,-1296.4 L-8654.2,-1316.0 L-8576.2,-1354.6 L-8565.9,-1357.3 L-8563.3,-1351.7 L-8560.2,-1346.3 L-8559.2,-1345.3 L-8557.5,-1346.0 L-8557.2,-1349.8 L-8558.4,-1353.0 L-8554.1,-1354.3 L-8538.1,-1359.0 L-8517.3,-1365.2 L-8500.5,-1370.2 L-8494.5,-1372.0 L-8500.5,-1390.9 L-8490.1,-1393.7 L-8472.8,-1396.1 L-8470.7,-1396.4 L-8470.6,-1397.6 L-8470.6,-1402.0 L-8454.9,-1402.7 L-8430.3,-1403.7 L-8420.8,-1399.1 L-8397.1,-1313.7 L-8391.8,-1308.6 L-8402.1,-1298.0 L-8393.0,-1289.0 L-8384.0,-1280.0 L-8373.2,-1291.0 L-8172.7,-1100.4 L-7905.1,-1386.0 L-7811.6,-1296.6 L-7808.0,-1297.7 L-7806.6,-1296.1 L-7800.3,-1300.1 L-7795.1,-1302.0 L-7789.6,-1304.5 L-7780.2,-1309.4 L-7774.4,-1312.7 L-7767.5,-1316.7 L-7761.1,-1320.7 L-7755.9,-1324.1 L-7751.1,-1327.2 L-7745.5,-1331.3 L-7739.1,-1336.0 L-7734.2,-1340.1 L-7729.0,-1344.7 L-7723.3,-1350.1 L-7717.9,-1355.5 L-7705.3,-1368.9 L-7697.7,-1378.0 L-7690.3,-1387.9 L-7685.2,-1395.1 L-7680.4,-1402.5 L-7674.7,-1412.8 L-7669.7,-1422.9 L-7665.7,-1431.2 L-7662.3,-1439.5 L-7660.2,-1445.0 L-7657.9,-1451.2 L-7652.5,-1457.9 L-7823.5,-1620.6 L-7821.4,-1622.9 L-7800.9,-1644.9 L-7786.0,-1660.7 L-7784.5,-1662.3 L-7741.1,-1621.7 L-7730.6,-1627.1 L-7729.4,-1625.6 L-7627.4,-1678.7 L-7623.2,-1680.9 L-7620.3,-1683.2 L-7617.6,-1685.7 L-7614.5,-1688.9 L-7611.5,-1693.4 L-7608.9,-1697.6 L-7607.2,-1700.8 L-7606.0,-1704.9 L-7604.9,-1709.4 L-7604.4,-1714.3 L-7604.4,-1719.8 L-7604.8,-1724.2 L-7605.6,-1728.1 L-7606.9,-1732.8 L-7638.8,-1824.6 L-7643.1,-1839.7 L-7642.0,-1844.9 L-7719.0,-1864.0 L-7715.4,-1877.3 L-7712.4,-1889.3 L-7689.6,-1979.5 L-7707.3,-2032.1 L-7717.7,-2066.1 L-7720.7,-2074.6 L-7693.1,-2099.9 L-7662.0,-2116.6 L-7660.1,-2114.0 L-7657.1,-2109.7 L-7650.1,-2100.6 L-7649.3,-2101.4 L-7649.1,-2104.5 L-7658.8,-2117.9 L-7641.5,-2130.3 L-7637.7,-2132.5 L-7628.7,-2120.8 L-7627.2,-2119.7 L-7625.7,-2119.4 L-7624.9,-2119.6 L-7624.9,-2120.4 L-7667.7,-2179.0 L-7670.8,-2182.4 L-7674.4,-2187.3 L-7693.0,-2209.8 L-7677.1,-2259.1 L-7664.9,-2271.8 L-7650.8,-2278.4 L-7620.8,-2296.2 L-7614.6,-2302.6 L-7587.7,-2326.2 L-7579.2,-2317.3 L-7554.3,-2290.4 L-7531.2,-2309.8 L-7515.7,-2294.9 L-7501.8,-2281.3 L-7501.1,-2280.6 L-7489.3,-2290.7 L-7473.7,-2274.1 L-7460.3,-2256.9 L-7450.4,-2245.4 L-7449.1,-2243.9 L-7420.3,-2269.2 L-7418.8,-2270.5 L-7425.6,-2278.8 L-7409.9,-2291.7 L-7362.3,-2236.2 L-7321.8,-2262.9 L-7317.8,-2266.7 L-7300.2,-2274.1 L-7296.2,-2278.0 L-7292.4,-2283.0 L-7270.7,-2302.3 L-7275.6,-2309.0 L-7314.4,-2300.1 L-7358.8,-2350.6 L-7353.7,-2355.0 L-7347.0,-2347.2 L-7315.6,-2374.2 L-7282.3,-2337.8 L-7273.3,-2334.2 L-7267.9,-2331.1 L-7261.1,-2323.4 L-7257.4,-2326.7 L-7281.5,-2354.1 L-7266.7,-2366.9 L-7236.8,-2331.0 L-7233.0,-2333.8 L-7233.4,-2334.6 L-7167.8,-2382.0 L-7148.3,-2396.4 L-7212.0,-2476.0 L-7198.4,-2485.5 L-7143.0,-2420.6 L-7102.1,-2413.1 L-7075.1,-2428.9 L-7071.3,-2431.3 L-7071.5,-2434.3 L-7073.4,-2437.8 L-7052.3,-2451.1 L-7046.1,-2444.9 L-7028.3,-2455.4 L-7041.2,-2471.4 L-7103.5,-2554.7 L-7059.5,-2600.3 L-7030.6,-2643.0 L-7029.9,-2676.4 L-7045.3,-2720.8 L-7012.9,-2747.8 L-6978.9,-2760.9 L-6967.7,-2763.5 L-6958.7,-2764.7 L-6947.7,-2764.0 L-6936.3,-2761.2 L-6919.8,-2747.1 L-6877.0,-2694.9 L-6842.8,-2651.5 L-6801.9,-2624.2 L-6785.8,-2621.6 L-6771.4,-2619.9 L-6759.2,-2619.4 L-6743.6,-2620.5 L-6726.7,-2623.3 L-6713.0,-2627.2 L-6701.4,-2632.6 L-6693.7,-2637.1 L-6688.0,-2643.1 L-6678.4,-2654.7 L-6668.0,-2673.7 L-6656.7,-2698.9 L-6636.6,-2688.6 L-6628.6,-2685.9 L-6620.0,-2684.7 L-6606.3,-2685.6 L-6597.2,-2688.3 L-6586.8,-2692.8 L-6577.1,-2698.4 L-6566.8,-2708.4 L-6558.0,-2716.4 L-6547.0,-2723.9 L-6539.4,-2728.8 L-6528.2,-2732.8 L-6508.9,-2738.4 L-6497.5,-2741.6 L-6485.3,-2746.2 L-6474.7,-2751.7 L-6468.4,-2755.3 L-6463.4,-2760.5 L-6398.0,-2793.3 L-6395.5,-2794.7 L-6392.6,-2796.5 L-6389.6,-2798.8 L-6385.2,-2801.3 L-6382.3,-2802.7 L-6379.2,-2805.4 L-6376.8,-2807.9 L-6373.6,-2810.0 L-6370.2,-2812.4 L-6365.7,-2816.6 L-6359.3,-2817.1 L-6352.7,-2817.9 L-6348.4,-2819.3 L-6342.8,-2821.9 L-6335.9,-2825.0 L-6328.6,-2829.5 L-6324.5,-2833.4 L-6319.9,-2838.7 L-6317.0,-2843.6 L-6315.4,-2848.1 L-6315.3,-2851.3 L-6315.2,-2853.9 L-6313.6,-2864.3 L-6277.2,-2885.4 L-6213.4,-2922.2 L-6201.0,-2929.3 L-6092.8,-2991.7 L-5975.6,-3059.0 L-5925.7,-3087.6 L-5908.4,-3097.3 L-5763.5,-3181.5 L-5731.3,-3199.2 L-5731.8,-3200.3 L-5665.5,-3237.8 L-5640.0,-3252.1 L-5593.0,-3278.1 L-5592.5,-3277.4 L-5574.3,-3287.4 L-5530.1,-3312.1 L-5524.8,-3316.9 L-5480.0,-3349.7 L-5457.7,-3368.2 L-5437.2,-3385.5 L-5427.8,-3390.8 L-5406.6,-3411.8 L-5404.8,-3410.7 L-5402.0,-3411.0 L-5400.6,-3410.1 L-5370.8,-3445.0 L-5378.3,-3452.0 L-5377.3,-3453.8 L-5374.1,-3458.4 L-5365.5,-3469.3 L-5360.3,-3477.2 L-5356.2,-3483.7 L-5350.5,-3492.4 L-5345.0,-3501.4 L-5338.8,-3511.7 L-5332.4,-3522.9 L-5318.5,-3551.6 L-5314.2,-3560.7 L-5310.7,-3568.0 L-5308.3,-3573.5 L-5306.2,-3577.7 L-5301.8,-3588.7 L-5417.6,-3804.7 L-5419.8,-3808.8 L-5421.5,-3811.1 L-5422.7,-3812.8 L-5424.3,-3814.2 L-5425.8,-3815.2 L-5427.8,-3816.4 L-5429.9,-3817.2 L-5431.7,-3817.6 L-5433.5,-3817.8 L-5436.2,-3817.8 L-5439.3,-3817.3 L-5442.0,-3816.5 L-5444.8,-3815.1 L-5471.7,-3799.6 L-5506.8,-3779.5 L-5531.3,-3765.9 L-5576.0,-3741.3 L-5603.4,-3726.4 L-5602.4,-3724.7 L-5614.1,-3718.0 L-5652.4,-3698.2 L-5680.8,-3681.4 L-5697.5,-3672.1 L-5722.9,-3657.5 L-5725.8,-3655.5 L-5748.1,-3695.6 L-5704.3,-3719.6 L-5644.5,-3752.1 L-5603.8,-3774.7 L-5598.8,-3777.6 L-5599.5,-3778.7 L-5564.3,-3797.9 L-5545.6,-3808.2 L-5502.7,-3829.1 L-5494.5,-3833.3 L-5429.8,-3869.3 L-5405.5,-3882.7 L-5388.4,-3891.9 L-5368.2,-3903.5 L-5340.2,-3852.9 L-5384.2,-3828.8 L-5386.5,-3825.1 L-5387.4,-3821.2 L-5387.8,-3818.2 L-5387.9,-3815.6 L-5387.7,-3813.5 L-5386.9,-3810.6 L-5297.2,-3644.7 L-5295.5,-3642.2 L-5293.5,-3640.3 L-5291.5,-3639.0 L-5289.4,-3638.3 L-5287.1,-3638.0 L-5284.9,-3638.2 L-5283.2,-3638.7 L-5243.4,-3668.9 L-5224.7,-3684.6 L-5205.4,-3700.9 L-5198.1,-3707.6 L-5174.2,-3727.2 L-5173.1,-3727.2 L-5149.9,-3747.0 L-5149.8,-3748.2 L-5134.6,-3760.7 L-5122.6,-3770.5 L-5102.0,-3787.5 L-5100.1,-3785.2 L-5079.9,-3801.9 L-5069.7,-3810.4 L-5041.4,-3833.9 L-5021.7,-3850.3 L-5023.6,-3853.1 L-5017.1,-3858.6 L-5006.4,-3867.4 L-4999.8,-3873.2 L-4971.9,-3885.7 L-4953.0,-3892.3 L-4943.3,-3896.9 L-4916.1,-3897.1 L-4906.6,-3897.1 L-4886.5,-3896.1 L-4863.0,-3895.1 L-4861.3,-3896.7 L-4859.0,-3893.7 L-4851.6,-3893.3 L-4784.3,-3887.5 L-4776.4,-3885.8 L-4769.5,-3884.7 L-4753.9,-3883.4 L-4724.8,-3882.0 L-4718.4,-3881.9 L-4712.4,-3882.1 L-4689.1,-3883.0 L-4677.1,-3883.6 L-4665.2,-3884.7 L-4646.9,-3886.6 L-4647.0,-3885.5 L-4632.5,-3888.0 L-4618.8,-3890.6 L-4608.3,-3892.5 L-4594.5,-3902.9 L-4592.9,-3900.7 L-4591.2,-3898.3 L-4469.6,-3737.5 L-4176.1,-3636.3 L-3637.5,-4031.9 L-3490.7,-4137.6 L-3434.0,-4258.6 L-3524.2,-4376.8 L-3520.2,-4393.7 L-3504.4,-4398.0 L-3474.0,-4391.7 L-3452.4,-4399.8 L-3446.4,-4408.2 L-3447.7,-4415.5 L-3463.8,-4447.1 L-3464.9,-4458.9 L-3465.8,-4482.3 L-3468.6,-4504.9 L-3465.8,-4508.9 L-3456.7,-4513.3 L-3445.6,-4515.8 L-3437.6,-4524.4 L-3435.8,-4534.8 L-3442.6,-4554.9 L-3443.3,-4568.8 L-3441.1,-4584.6 L-3430.1,-4612.3 L-3432.4,-4625.1 L-3437.9,-4639.4 L-3438.1,-4658.8 L-3441.3,-4684.4 L-3447.1,-4700.4 L-3450.7,-4708.8 L-3448.3,-4712.5 L-3446.0,-4712.3 L-3445.4,-4713.8 L-3445.1,-4715.8 L-3445.2,-4717.8 L-3448.7,-4718.2 L-3450.9,-4721.3 L-3450.5,-4725.0 L-3453.5,-4725.8 L-3457.2,-4725.9 L-3457.7,-4725.0 L-3465.3,-4734.0 L-3466.9,-4736.8 L-3468.2,-4740.7 L-3469.1,-4744.5 L-3469.8,-4748.5 L-3470.1,-4752.5 L-3470.3,-4756.1 L-3470.3,-4759.8 L-3470.0,-4761.8 L-3468.4,-4766.8 L-3466.6,-4770.8 L-3464.3,-4774.7 L-3460.9,-4779.6 L-3457.4,-4784.3 L-3454.1,-4787.7 L-3450.0,-4790.8 L-3449.2,-4790.0 L-3414.1,-4816.8 L-3409.0,-4820.7 L-3410.0,-4822.2 L-3410.0,-4824.8 L-3401.3,-4831.6 L-3399.1,-4831.5 L-3397.0,-4830.0 L-3393.3,-4832.8 L-3357.3,-4860.1 L-3357.7,-4861.0 L-3353.5,-4864.1 L-3348.5,-4867.2 L-3345.0,-4868.8 L-3340.0,-4870.7 L-3335.7,-4871.9 L-3331.4,-4872.5 L-3326.7,-4872.9 L-3323.9,-4872.7 L-3320.0,-4872.1 L-3316.2,-4870.8 L-3313.4,-4869.4 L-3310.7,-4867.8 L-3308.7,-4866.3 L-3307.0,-4864.7 L-3304.5,-4862.3 L-3303.4,-4861.9 L-3301.6,-4861.9 L-3299.8,-4862.2 L-3294.3,-4866.1 L-3294.3,-4867.2 L-3293.7,-4868.0 L-3293.1,-4869.1 L-3293.2,-4870.4 L-3293.5,-4871.5 L-3294.3,-4872.5 L-3298.2,-4876.4 L-3301.3,-4878.9 L-3304.9,-4880.9 L-3310.8,-4883.5 L-3315.9,-4885.5 L-3307.0,-4890.1 L-3296.1,-4897.7 L-3282.6,-4899.4 L-3269.1,-4898.5 L-3260.3,-4902.0 L-3252.6,-4913.0 L-3223.6,-4964.9 L-3211.8,-4986.3 L-3202.5,-5009.1 L-3200.9,-5013.9 L-3187.1,-5056.2 L-3184.9,-5060.3 L-3182.3,-5064.4 L-3149.9,-5104.5 L-3143.0,-5111.7 L-3137.9,-5116.1 L-3065.3,-5178.3 L-3061.3,-5181.0 L-3048.9,-5187.8 L-3034.0,-5196.2 L-2987.6,-5220.5 L-2886.5,-5274.8 L-2884.1,-5272.9 L-2882.2,-5272.2 L-2880.5,-5271.7 L-2878.7,-5272.0 L-2876.8,-5272.4 L-2871.4,-5273.5 L-2865.1,-5274.9 L-2859.4,-5276.2 L-2853.5,-5277.3 L-2850.3,-5278.0 L-2845.9,-5279.3 L-2840.9,-5281.4 L-2828.8,-5288.0 L-2824.4,-5290.4 L-2822.1,-5291.8 L-2819.8,-5292.8 L-2810.4,-5296.8 L-2800.1,-5300.8 L-2787.1,-5306.4 L-2771.8,-5312.7 L-2771.2,-5313.0 L-2769.9,-5313.1 L-2768.2,-5313.6 L-2765.8,-5315.4 L-2763.1,-5316.4 L-2760.1,-5317.9 L-2754.5,-5321.1 L-2752.5,-5323.1 L-2749.2,-5325.2 L-2749.5,-5325.8 L-2748.1,-5327.5 L-2746.3,-5329.4 L-2743.3,-5330.9 L-2740.8,-5331.9 L-2738.1,-5332.9 L-2735.6,-5334.2 L-2730.7,-5337.3 L-2729.3,-5338.7 L-2727.9,-5340.9 L-2727.3,-5342.5 L-2727.1,-5344.1 L-2727.3,-5345.6 L-2727.0,-5347.1 L-2741.0,-5364.0 L-2696.9,-5389.9 L-2676.0,-5401.0 L-2671.9,-5402.3 L-2665.5,-5401.1 L-2658.4,-5391.2 L-2655.2,-5388.4 L-2652.3,-5387.0 L-2649.6,-5386.4 L-2647.1,-5386.5 L-2609.3,-5402.1 L-2599.0,-5407.1 L-2589.4,-5412.4 L-2573.9,-5420.6 L-2570.7,-5421.7 L-2355.9,-5511.0 L-2288.7,-5543.3 L-1988.2,-5687.6 L5024.9,-5745.6 L5024.9,4290.0 L-9962.8,4290.0 L-9962.8,3863.5 Z" fill="#add7e1" stroke="none"><title>Biscayne Bay</title></path><path d="M-1.0,-1.0 L257.0,-1.0 L257.0,257.0 L-1.0,257.0 L-1.0,-1.0 Z" fill="#add7e1" stroke="none" fill-rule="evenodd"><title>Biscayne Bay</title></path><path d="M1620.6,-3135.6 L-1489.0,10236.9" fill="none" stroke="#6fb5c7" stroke-width="1.7" stroke-dasharray="5 7" opacity="0.34" stroke-linecap="round" stroke-linejoin="round"><title>Atlantic Intracoastal Waterway</title></path></svg>