<svg xmlns="http://www.w3.org/2000/svg" width="256" height="256" viewBox="0 0 256 256"><rect width="256" height="256" fill="#f1efe7"/><path d="M-2570.7,-14381.7 L-2355.9,-14471.0 L-2288.7,-14503.3 L-1988.2,-14647.6 L-1931.8,-14593.0 L-1926.9,-14588.3 L-1821.5,-14678.5 L-1796.4,-14697.6 L-1754.5,-14735.4 L-1518.4,-14952.2 L-1327.9,-15169.8 L-1320.6,-15183.7 L-1313.6,-15191.6 L-1302.5,-15204.3 L-1291.2,-15217.2 L-1286.6,-15222.5 L-1361.7,-15319.6 L-1262.3,-15379.2 L-1208.4,-15307.5 L-1132.2,-15394.7 L-1196.7,-15480.1 L-1116.8,-15563.4 L-1055.3,-15482.4 L-984.7,-15562.8 L-954.6,-15582.5 L-807.4,-15678.0 L-734.7,-15726.3 L-647.1,-15783.9 L-605.7,-15811.1 L-500.8,-15878.8 L-527.8,-15914.3 L-576.1,-15979.0 L-451.2,-16058.4 L-405.7,-16081.9 L-402.2,-16084.4 L-378.2,-16102.9 L-292.6,-16148.7 L-286.7,-16157.9 L-262.7,-16174.4 L-249.7,-16193.4 L-246.0,-16196.2 L-225.1,-16204.3 L-177.9,-16221.2 L-145.6,-16235.4 L-31.5,-16289.0 L-30.1,-16285.3 L65.6,-16326.2 L104.7,-16276.1 L191.8,-16334.2 L204.2,-16342.7 L205.4,-16343.7 L206.6,-16345.3 L208.5,-16348.6 L209.5,-16351.7 L210.1,-16355.4 L210.0,-16358.4 L209.6,-16361.3 L209.2,-16364.6 L209.1,-16367.1 L209.3,-16369.2 L209.7,-16371.4 L211.3,-16375.4 L212.4,-16377.6 L214.9,-16381.4 L217.5,-16384.2 L230.2,-16389.3 L240.8,-16393.3 L254.3,-16397.7 L260.6,-16399.4 L271.8,-16403.1 L279.7,-16405.9 L290.6,-16410.4 L305.4,-16416.9 L321.4,-16424.4 L330.0,-16428.6 L340.8,-16434.1 L350.9,-16439.7 L361.0,-16445.7 L371.3,-16452.4 L374.5,-16454.6 L395.2,-16470.4 L412.6,-16483.8 L429.6,-16498.2 L445.5,-16513.2 L457.0,-16526.1 L468.4,-16540.0 L482.4,-16558.0 L495.2,-16576.0 L509.9,-16599.1 L519.5,-16617.0 L525.5,-16628.4 L534.4,-16647.7 L541.9,-16665.6 L548.6,-16684.9 L554.0,-16701.8 L559.9,-16729.2 L564.2,-16753.7 L566.5,-16774.7 L568.5,-16799.5 L568.7,-16826.0 L567.1,-16850.5 L562.9,-16882.5 L558.5,-16904.3 L553.5,-16924.9 L546.1,-16948.3 L539.8,-16966.2 L532.6,-16985.7 L525.8,-17001.9 L521.2,-17012.4 L519.3,-17020.1 L519.0,-17026.0 L519.6,-17031.3 L521.7,-17035.9 L524.9,-17039.8 L529.1,-17042.0 L533.6,-17042.6 L545.7,-17039.7 L579.4,-17031.6 L590.6,-17286.3 L634.3,-17740.9 L586.8,-17752.1 L581.6,-17766.4 L581.8,-17786.9 L588.4,-17833.4 L597.4,-17843.9 L605.4,-17874.1 L655.9,-17862.4 L683.7,-18152.9 L691.4,-18233.3 L675.7,-18237.2 L685.2,-18275.6 L652.9,-18283.3 L657.0,-18306.8 L662.7,-18322.3 L669.8,-18340.4 L681.8,-18365.7 L694.7,-18362.8 L712.1,-18545.5 L716.2,-18656.3 L717.0,-18676.7 L726.4,-18747.2 L745.1,-18922.9 L869.9,-19248.3 L898.4,-19337.0 L1245.1,-19470.0 L1279.0,-19483.6 L1284.9,-19486.8 L1289.5,-19491.0 L1294.6,-19496.9 L1298.5,-19503.8 L1301.1,-19510.6 L1301.7,-19520.5 L1301.2,-19532.8 L1296.6,-19688.3 L1294.9,-19718.4 L1294.4,-19739.1 L1293.7,-19779.3 L1292.9,-19791.9 L1291.4,-19802.5 L1289.3,-19811.9 L1286.2,-19821.5 L1281.3,-19832.8 L1274.1,-19844.9 L1267.1,-19854.5 L1261.7,-19863.6 L1256.2,-19875.7 L1251.6,-19887.3 L1249.8,-19896.8 L1248.4,-19907.3 L1247.7,-19917.8 L1248.0,-19928.0 L1249.2,-19939.9 L1252.0,-19951.6 L1255.7,-19962.0 L1259.6,-19971.5 L1264.6,-19980.7 L1270.7,-19991.9 L1274.7,-20002.0 L1278.2,-20014.9 L1284.6,-20024.7 L1282.4,-20113.9 L1279.1,-20119.1 L1278.1,-20179.7 L1276.4,-20251.2 L1277.6,-20261.1 L1280.8,-20271.2 L1288.8,-20287.0 L1342.3,-20402.1 L1343.4,-20404.0 L1352.8,-20424.5 L1361.7,-20443.9 L1371.7,-20463.9 L1381.5,-20484.5 L1386.3,-20494.5 L1438.9,-20602.4 L1495.1,-20721.6 L1616.7,-20968.4 L1543.6,-21050.3 L1484.0,-20923.3 L1432.5,-20813.4 L1424.7,-20797.8 L1408.8,-20765.3 L1377.0,-20768.0 L1368.3,-20768.5 L1365.2,-20765.7 L1369.4,-20761.9 L1353.1,-20747.4 L1340.2,-20735.5 L1337.8,-20684.6 L1333.0,-20674.4 L1317.4,-20675.0 L1314.8,-20675.9 L1110.4,-20760.3 L1106.0,-20762.6 L1101.3,-20765.6 L1093.9,-20771.2 L1088.2,-20776.6 L1083.4,-20781.8 L1078.7,-20788.2 L1075.1,-20793.8 L1072.3,-20799.6 L1070.1,-20805.7 L1068.6,-20809.9 L1067.5,-20815.0 L1066.7,-20821.0 L1065.9,-20829.2 L1065.9,-20840.9 L1064.5,-20880.6 L1070.1,-20880.9 L1069.3,-20901.9 L1068.4,-20936.5 L1073.6,-20936.6 L1073.2,-20960.2 L1067.3,-20960.1 L1064.6,-21059.5 L1070.2,-21059.8 L1069.3,-21083.1 L1063.9,-21082.9 L1061.6,-21156.4 L1088.6,-21185.5 L1123.1,-21186.7 L1148.8,-21187.6 L1182.7,-21188.7 L1215.3,-21189.7 L1244.5,-21190.7 L1257.2,-21191.3 L1256.6,-21202.6 L1256.4,-21214.4 L1254.5,-21252.7 L1253.8,-21325.8 L1252.8,-21327.1 L1252.6,-21334.3 L1254.7,-21334.4 L1249.6,-21510.5 L1245.2,-21676.2 L1244.5,-21681.4 L1244.1,-21691.0 L1171.9,-21688.4 L1123.9,-21692.5 L764.6,-21680.0 L764.5,-21683.2 L763.8,-21698.5 L593.4,-21692.5 L593.1,-21720.8 L570.6,-21725.9 L566.6,-21847.0 L1229.4,-21870.0 L1240.4,-21885.1 L1240.0,-21928.1 L1239.2,-21965.3 L1238.6,-21988.6 L1237.7,-22011.3 L1185.0,-22036.1 L1182.9,-22091.2 L1236.9,-22118.0 L1232.0,-22245.5 L1230.6,-22251.8 L1176.9,-22276.9 L1175.2,-22345.1 L1226.2,-22371.4 L1203.5,-22648.3 L1209.5,-22771.5 L1212.5,-22972.4 L1212.3,-23190.9 L1217.1,-23221.5 L1217.4,-23236.3 L1212.6,-23254.1 L1217.6,-23254.1 L1217.6,-23270.2 L1220.6,-23681.2 L1220.1,-23699.5 L1214.4,-23699.5 L1214.6,-23775.1 L1211.3,-23779.8 L1206.1,-23857.8 L1216.4,-23929.1 L1215.1,-24015.4 L1211.6,-24036.1 L1216.9,-24100.0 L1213.3,-24177.3 L1204.3,-24260.0 L1187.2,-24394.0 L1195.3,-24430.9 L1191.7,-24466.8 L1161.1,-24492.9 L1116.2,-24492.5 L1047.8,-24483.5 L1003.3,-24483.5 L962.9,-24498.3 L909.8,-24534.7 L909.8,-24600.0 L908.4,-24680.3 L913.6,-24747.2 L931.2,-24799.4 L1225.9,-24804.9 L1232.7,-25222.8 L1232.7,-25824.4 L1229.6,-26042.7 L17141.8,-32614.4 L17141.8,3603.8 L-2570.7,3603.8 L-2570.7,-14381.7 Z" fill="#add7e1" stroke="none"><title>Biscayne Bay</title></path><path d="M1620.6,-12095.6 L-1489.0,1276.9" fill="none" stroke="#6fb5c7" stroke-width="1.7" stroke-dasharray="5 7" opacity="0.34" stroke-linecap="round" stroke-linejoin="round"><title>Atlantic Intracoastal Waterway</title></path></svg>