<svg xmlns="http://www.w3.org/2000/svg" width="256" height="256" viewBox="0 0 256 256"><rect width="256" height="256" fill="#f1efe7"/><path d="M-2570.7,-14125.7 L-2355.9,-14215.0 L-2288.7,-14247.3 L-1988.2,-14391.6 L-1931.8,-14337.0 L-1926.9,-14332.3 L-1821.5,-14422.5 L-1796.4,-14441.6 L-1754.5,-14479.4 L-1518.4,-14696.2 L-1327.9,-14913.8 L-1320.6,-14927.7 L-1313.6,-14935.6 L-1302.5,-14948.3 L-1291.2,-14961.2 L-1286.6,-14966.5 L-1361.7,-15063.6 L-1262.3,-15123.2 L-1208.4,-15051.5 L-1132.2,-15138.7 L-1196.7,-15224.1 L-1116.8,-15307.4 L-1055.3,-15226.4 L-984.7,-15306.8 L-954.6,-15326.5 L-807.4,-15422.0 L-734.7,-15470.3 L-647.1,-15527.9 L-605.7,-15555.1 L-500.8,-15622.8 L-527.8,-15658.3 L-576.1,-15723.0 L-451.2,-15802.4 L-405.7,-15825.9 L-402.2,-15828.4 L-378.2,-15846.9 L-292.6,-15892.7 L-286.7,-15901.9 L-262.7,-15918.4 L-249.7,-15937.4 L-246.0,-15940.2 L-225.1,-15948.3 L-177.9,-15965.2 L-145.6,-15979.4 L-31.5,-16033.0 L-30.1,-16029.3 L65.6,-16070.2 L104.7,-16020.1 L191.8,-16078.2 L204.2,-16086.7 L205.4,-16087.7 L206.6,-16089.3 L208.5,-16092.6 L209.5,-16095.7 L210.1,-16099.4 L210.0,-16102.4 L209.6,-16105.3 L209.2,-16108.6 L209.1,-16111.1 L209.3,-16113.2 L209.7,-16115.4 L211.3,-16119.4 L212.4,-16121.6 L214.9,-16125.4 L217.5,-16128.2 L230.2,-16133.3 L240.8,-16137.3 L254.3,-16141.7 L260.6,-16143.4 L271.8,-16147.1 L279.7,-16149.9 L290.6,-16154.4 L305.4,-16160.9 L321.4,-16168.4 L330.0,-16172.6 L340.8,-16178.1 L350.9,-16183.7 L361.0,-16189.7 L371.3,-16196.4 L374.5,-16198.6 L395.2,-16214.4 L412.6,-16227.8 L429.6,-16242.2 L445.5,-16257.2 L457.0,-16270.1 L468.4,-16284.0 L482.4,-16302.0 L495.2,-16320.0 L509.9,-16343.1 L519.5,-16361.0 L525.5,-16372.4 L534.4,-16391.7 L541.9,-16409.6 L548.6,-16428.9 L554.0,-16445.8 L559.9,-16473.2 L564.2,-16497.7 L566.5,-16518.7 L568.5,-16543.5 L568.7,-16570.0 L567.1,-16594.5 L562.9,-16626.5 L558.5,-16648.3 L553.5,-16668.9 L546.1,-16692.3 L539.8,-16710.2 L532.6,-16729.7 L525.8,-16745.9 L521.2,-16756.4 L519.3,-16764.1 L519.0,-16770.0 L519.6,-16775.3 L521.7,-16779.9 L524.9,-16783.8 L529.1,-16786.0 L533.6,-16786.6 L545.7,-16783.7 L579.4,-16775.6 L590.6,-17030.3 L634.3,-17484.9 L586.8,-17496.1 L581.6,-17510.4 L581.8,-17530.9 L588.4,-17577.4 L597.4,-17587.9 L605.4,-17618.1 L655.9,-17606.4 L683.7,-17896.9 L691.4,-17977.3 L675.7,-17981.2 L685.2,-18019.6 L652.9,-18027.3 L657.0,-18050.8 L662.7,-18066.3 L669.8,-18084.4 L681.8,-18109.7 L694.7,-18106.8 L712.1,-18289.5 L716.2,-18400.3 L717.0,-18420.7 L726.4,-18491.2 L745.1,-18666.9 L869.9,-18992.3 L898.4,-19081.0 L1245.1,-19214.0 L1279.0,-19227.6 L1284.9,-19230.8 L1289.5,-19235.0 L1294.6,-19240.9 L1298.5,-19247.8 L1301.1,-19254.6 L1301.7,-19264.5 L1301.2,-19276.8 L1296.6,-19432.3 L1294.9,-19462.4 L1294.4,-19483.1 L1293.7,-19523.3 L1292.9,-19535.9 L1291.4,-19546.5 L1289.3,-19555.9 L1286.2,-19565.5 L1281.3,-19576.8 L1274.1,-19588.9 L1267.1,-19598.5 L1261.7,-19607.6 L1256.2,-19619.7 L1251.6,-19631.3 L1249.8,-19640.8 L1248.4,-19651.3 L1247.7,-19661.8 L1248.0,-19672.0 L1249.2,-19683.9 L1252.0,-19695.6 L1255.7,-19706.0 L1259.6,-19715.5 L1264.6,-19724.7 L1270.7,-19735.9 L1274.7,-19746.0 L1278.2,-19758.9 L1284.6,-19768.7 L1282.4,-19857.9 L1279.1,-19863.1 L1278.1,-19923.7 L1276.4,-19995.2 L1277.6,-20005.1 L1280.8,-20015.2 L1288.8,-20031.0 L1342.3,-20146.1 L1343.4,-20148.0 L1352.8,-20168.5 L1361.7,-20187.9 L1371.7,-20207.9 L1381.5,-20228.5 L1386.3,-20238.5 L1438.9,-20346.4 L1495.1,-20465.6 L1616.7,-20712.4 L1543.6,-20794.3 L1484.0,-20667.3 L1432.5,-20557.4 L1424.7,-20541.8 L1408.8,-20509.3 L1377.0,-20512.0 L1368.3,-20512.5 L1365.2,-20509.7 L1369.4,-20505.9 L1353.1,-20491.4 L1340.2,-20479.5 L1337.8,-20428.6 L1333.0,-20418.4 L1317.4,-20419.0 L1314.8,-20419.9 L1110.4,-20504.3 L1106.0,-20506.6 L1101.3,-20509.6 L1093.9,-20515.2 L1088.2,-20520.6 L1083.4,-20525.8 L1078.7,-20532.2 L1075.1,-20537.8 L1072.3,-20543.6 L1070.1,-20549.7 L1068.6,-20553.9 L1067.5,-20559.0 L1066.7,-20565.0 L1065.9,-20573.2 L1065.9,-20584.9 L1064.5,-20624.6 L1070.1,-20624.9 L1069.3,-20645.9 L1068.4,-20680.5 L1073.6,-20680.6 L1073.2,-20704.2 L1067.3,-20704.1 L1064.6,-20803.5 L1070.2,-20803.8 L1069.3,-20827.1 L1063.9,-20826.9 L1061.6,-20900.4 L1088.6,-20929.5 L1123.1,-20930.7 L1148.8,-20931.6 L1182.7,-20932.7 L1215.3,-20933.7 L1244.5,-20934.7 L1257.2,-20935.3 L1256.6,-20946.6 L1256.4,-20958.4 L1254.5,-20996.7 L1253.8,-21069.8 L1252.8,-21071.1 L1252.6,-21078.3 L1254.7,-21078.4 L1249.6,-21254.5 L1245.2,-21420.2 L1244.5,-21425.4 L1244.1,-21435.0 L1171.9,-21432.4 L1123.9,-21436.5 L764.6,-21424.0 L764.5,-21427.2 L763.8,-21442.5 L593.4,-21436.5 L593.1,-21464.8 L570.6,-21469.9 L566.6,-21591.0 L1229.4,-21614.0 L1240.4,-21629.1 L1240.0,-21672.1 L1239.2,-21709.3 L1238.6,-21732.6 L1237.7,-21755.3 L1185.0,-21780.1 L1182.9,-21835.2 L1236.9,-21862.0 L1232.0,-21989.5 L1230.6,-21995.8 L1176.9,-22020.9 L1175.2,-22089.1 L1226.2,-22115.4 L1203.5,-22392.3 L1209.5,-22515.5 L1212.5,-22716.4 L1212.3,-22934.9 L1217.1,-22965.5 L1217.4,-22980.3 L1212.6,-22998.1 L1217.6,-22998.1 L1217.6,-23014.2 L1220.6,-23425.2 L1220.1,-23443.5 L1214.4,-23443.5 L1214.6,-23519.1 L1211.3,-23523.8 L1206.1,-23601.8 L1216.4,-23673.1 L1215.1,-23759.4 L1211.6,-23780.1 L1216.9,-23844.0 L1213.3,-23921.3 L1204.3,-24004.0 L1187.2,-24138.0 L1195.3,-24174.9 L1191.7,-24210.8 L1161.1,-24236.9 L1116.2,-24236.5 L1047.8,-24227.5 L1003.3,-24227.5 L962.9,-24242.3 L909.8,-24278.7 L909.8,-24344.0 L908.4,-24424.3 L913.6,-24491.2 L931.2,-24543.4 L1225.9,-24548.9 L1232.7,-24966.8 L1232.7,-25568.4 L1229.6,-25786.7 L17141.8,-32358.4 L17141.8,3859.8 L-2570.7,3859.8 L-2570.7,-14125.7 Z" fill="#add7e1" stroke="none"><title>Biscayne Bay</title></path><path d="M1620.6,-11839.6 L-1489.0,1532.9" fill="none" stroke="#6fb5c7" stroke-width="1.7" stroke-dasharray="5 7" opacity="0.34" stroke-linecap="round" stroke-linejoin="round"><title>Atlantic Intracoastal Waterway</title></path></svg>