<svg xmlns="http://www.w3.org/2000/svg" width="256" height="256" viewBox="0 0 256 256"><rect width="256" height="256" fill="#f1efe7"/><path d="M-8709.4,5225.1 L-8602.0,5180.5 L-8568.4,5164.4 L-8418.1,5092.2 L-8389.9,5119.5 L-8387.4,5121.8 L-8334.8,5076.8 L-8322.2,5067.2 L-8301.3,5048.3 L-8183.2,4939.9 L-8087.9,4831.1 L-8084.3,4824.2 L-8080.8,4820.2 L-8075.2,4813.9 L-8069.6,4807.4 L-8067.3,4804.7 L-8104.9,4756.2 L-8055.2,4726.4 L-8028.2,4762.3 L-7990.1,4718.7 L-8022.4,4675.9 L-7982.4,4634.3 L-7951.7,4674.8 L-7916.3,4634.6 L-7901.3,4624.8 L-7827.7,4577.0 L-7791.3,4552.9 L-7747.5,4524.0 L-7726.8,4510.5 L-7674.4,4476.6 L-7687.9,4458.8 L-7712.1,4426.5 L-7649.6,4386.8 L-7626.8,4375.0 L-7625.1,4373.8 L-7613.1,4364.5 L-7570.3,4341.7 L-7567.3,4337.0 L-7555.3,4328.8 L-7548.8,4319.3 L-7547.0,4317.9 L-7536.6,4313.9 L-7512.9,4305.4 L-7496.8,4298.3 L-7439.7,4271.5 L-7439.0,4273.4 L-7391.2,4252.9 L-7371.7,4278.0 L-7328.1,4248.9 L-7321.9,4244.7 L-7321.3,4244.2 L-7320.7,4243.4 L-7319.8,4241.7 L-7319.2,4240.2 L-7319.0,4238.3 L-7319.0,4236.8 L-7319.2,4235.4 L-7319.4,4233.7 L-7319.5,4232.5 L-7319.4,4231.4 L-7319.1,4230.3 L-7318.3,4228.3 L-7317.8,4227.2 L-7316.6,4225.3 L-7315.2,4223.9 L-7308.9,4221.3 L-7303.6,4219.4 L-7296.8,4217.2 L-7293.7,4216.3 L-7288.1,4214.5 L-7284.1,4213.0 L-7278.7,4210.8 L-7271.3,4207.6 L-7263.3,4203.8 L-7259.0,4201.7 L-7253.6,4199.0 L-7248.6,4196.1 L-7243.5,4193.1 L-7238.4,4189.8 L-7236.8,4188.7 L-7226.4,4180.8 L-7217.7,4174.1 L-7209.2,4166.9 L-7201.2,4159.4 L-7195.5,4152.9 L-7189.8,4146.0 L-7182.8,4137.0 L-7176.4,4128.0 L-7169.1,4116.4 L-7164.3,4107.5 L-7161.3,4101.8 L-7156.8,4092.1 L-7153.1,4083.2 L-7149.7,4073.6 L-7147.0,4065.1 L-7144.1,4051.4 L-7141.9,4039.2 L-7140.7,4028.6 L-7139.8,4016.3 L-7139.6,4003.0 L-7140.5,3990.7 L-7142.6,3974.8 L-7144.7,3963.9 L-7147.3,3953.5 L-7150.9,3941.9 L-7154.1,3932.9 L-7157.7,3923.1 L-7161.1,3915.1 L-7163.4,3909.8 L-7164.4,3906.0 L-7164.5,3903.0 L-7164.2,3900.4 L-7163.1,3898.1 L-7161.5,3896.1 L-7159.4,3895.0 L-7157.2,3894.7 L-7151.1,3896.2 L-7134.3,3900.2 L-7128.7,3772.9 L-7106.8,3545.6 L-7130.6,3539.9 L-7133.2,3532.8 L-7133.1,3522.6 L-7129.8,3499.3 L-7125.3,3494.1 L-7121.3,3478.9 L-7096.1,3484.8 L-7082.1,3339.6 L-7078.3,3299.3 L-7086.1,3297.4 L-7081.4,3278.2 L-7097.6,3274.4 L-7095.5,3262.6 L-7092.7,3254.9 L-7089.1,3245.8 L-7083.1,3233.2 L-7076.7,3234.6 L-7067.9,3143.3 L-7065.9,3087.9 L-7065.5,3077.7 L-7060.8,3042.4 L-7051.4,2954.5 L-6989.0,2791.8 L-6974.8,2747.5 L-6801.5,2681.0 L-6784.5,2674.2 L-6781.6,2672.6 L-6779.2,2670.5 L-6776.7,2667.6 L-6774.8,2664.1 L-6773.5,2660.7 L-6773.1,2655.8 L-6773.4,2649.6 L-6775.7,2571.9 L-6776.6,2556.8 L-6776.8,2546.4 L-6777.1,2526.4 L-6777.5,2520.1 L-6778.3,2514.8 L-6779.4,2510.0 L-6780.9,2505.3 L-6783.3,2499.6 L-6786.9,2493.5 L-6790.5,2488.7 L-6793.2,2484.2 L-6795.9,2478.2 L-6798.2,2472.3 L-6799.1,2467.6 L-6799.8,2462.4 L-6800.1,2457.1 L-6800.0,2452.0 L-6799.4,2446.1 L-6798.0,2440.2 L-6796.1,2435.0 L-6794.2,2430.2 L-6791.7,2425.6 L-6788.7,2420.1 L-6786.6,2415.0 L-6784.9,2408.5 L-6781.7,2403.7 L-6782.8,2359.0 L-6784.4,2356.5 L-6785.0,2326.2 L-6785.8,2290.4 L-6785.2,2285.5 L-6783.6,2280.4 L-6779.6,2272.5 L-6752.9,2215.0 L-6752.3,2214.0 L-6747.6,2203.8 L-6743.1,2194.0 L-6738.2,2184.0 L-6733.2,2173.8 L-6730.8,2168.7 L-6704.6,2114.8 L-6676.5,2055.2 L-6615.6,1931.8 L-6652.2,1890.9 L-6682.0,1954.3 L-6707.8,2009.3 L-6711.7,2017.1 L-6719.6,2033.3 L-6735.5,2032.0 L-6739.9,2031.7 L-6741.4,2033.2 L-6739.3,2035.1 L-6747.5,2042.3 L-6753.9,2048.3 L-6755.1,2073.7 L-6757.5,2078.8 L-6765.3,2078.5 L-6766.6,2078.0 L-6868.8,2035.9 L-6871.0,2034.7 L-6873.4,2033.2 L-6877.0,2030.4 L-6879.9,2027.7 L-6882.3,2025.1 L-6884.6,2021.9 L-6886.4,2019.1 L-6887.8,2016.2 L-6889.0,2013.1 L-6889.7,2011.1 L-6890.2,2008.5 L-6890.7,2005.5 L-6891.1,2001.4 L-6891.1,1995.6 L-6891.8,1975.7 L-6889.0,1975.5 L-6889.4,1965.1 L-6889.8,1947.8 L-6887.2,1947.7 L-6887.4,1935.9 L-6890.3,1936.0 L-6891.7,1886.2 L-6888.9,1886.1 L-6889.4,1874.5 L-6892.1,1874.6 L-6893.2,1837.8 L-6879.7,1823.3 L-6862.5,1822.7 L-6849.6,1822.2 L-6832.7,1821.7 L-6816.4,1821.1 L-6801.7,1820.6 L-6795.4,1820.4 L-6795.7,1814.7 L-6795.8,1808.8 L-6796.8,1789.7 L-6797.1,1753.1 L-6797.6,1752.5 L-6797.7,1748.8 L-6796.6,1748.8 L-6799.2,1660.7 L-6801.4,1577.9 L-6801.8,1575.3 L-6802.0,1570.5 L-6838.1,1571.8 L-6862.1,1569.7 L-7041.7,1576.0 L-7041.7,1574.4 L-7042.1,1566.7 L-7127.3,1569.7 L-7127.5,1555.6 L-7138.7,1553.1 L-7140.7,1492.5 L-6809.3,1481.0 L-6803.8,1473.4 L-6804.0,1451.9 L-6804.4,1433.4 L-6804.7,1421.7 L-6805.2,1410.4 L-6831.5,1397.9 L-6832.6,1370.4 L-6805.5,1357.0 L-6808.0,1293.3 L-6808.7,1290.1 L-6835.5,1277.6 L-6836.4,1243.5 L-6810.9,1230.3 L-6822.3,1091.9 L-6819.2,1030.2 L-6817.8,929.8 L-6817.9,820.6 L-6815.5,805.2 L-6815.3,797.9 L-6817.7,788.9 L-6815.2,788.9 L-6815.2,780.9 L-6813.7,575.4 L-6813.9,566.2 L-6816.8,566.3 L-6816.7,528.5 L-6818.4,526.1 L-6820.9,487.1 L-6815.8,451.5 L-6816.5,408.3 L-6818.2,398.0 L-6815.6,366.0 L-6817.4,327.4 L-6821.9,286.0 L-6830.4,219.0 L-6826.4,200.6 L-6828.1,182.6 L-6843.4,169.5 L-6865.9,169.8 L-6900.1,174.3 L-6922.3,174.3 L-6942.6,166.8 L-6969.1,148.6 L-6969.1,116.0 L-6969.8,75.8 L-6967.2,42.4 L-6958.4,16.3 L-6811.0,13.6 L-6807.7,-195.4 L-6807.7,-496.2 L-6809.2,-605.4 L1146.9,-3891.2 L1146.9,14217.9 L-8709.4,14217.9 L-8709.4,5225.1 Z" fill="#add7e1" stroke="none"><title>Biscayne Bay</title></path></svg>