<svg xmlns="http://www.w3.org/2000/svg" width="256" height="256" viewBox="0 0 256 256"><rect width="256" height="256" fill="#f1efe7"/><path d="M-8709.4,4457.1 L-8602.0,4412.5 L-8568.4,4396.4 L-8418.1,4324.2 L-8389.9,4351.5 L-8387.4,4353.8 L-8334.8,4308.8 L-8322.2,4299.2 L-8301.3,4280.3 L-8183.2,4171.9 L-8087.9,4063.1 L-8084.3,4056.2 L-8080.8,4052.2 L-8075.2,4045.9 L-8069.6,4039.4 L-8067.3,4036.7 L-8104.9,3988.2 L-8055.2,3958.4 L-8028.2,3994.3 L-7990.1,3950.7 L-8022.4,3907.9 L-7982.4,3866.3 L-7951.7,3906.8 L-7916.3,3866.6 L-7901.3,3856.8 L-7827.7,3809.0 L-7791.3,3784.9 L-7747.5,3756.0 L-7726.8,3742.5 L-7674.4,3708.6 L-7687.9,3690.8 L-7712.1,3658.5 L-7649.6,3618.8 L-7626.8,3607.0 L-7625.1,3605.8 L-7613.1,3596.5 L-7570.3,3573.7 L-7567.3,3569.0 L-7555.3,3560.8 L-7548.8,3551.3 L-7547.0,3549.9 L-7536.6,3545.9 L-7512.9,3537.4 L-7496.8,3530.3 L-7439.7,3503.5 L-7439.0,3505.4 L-7391.2,3484.9 L-7371.7,3510.0 L-7328.1,3480.9 L-7321.9,3476.7 L-7321.3,3476.2 L-7320.7,3475.4 L-7319.8,3473.7 L-7319.2,3472.2 L-7319.0,3470.3 L-7319.0,3468.8 L-7319.2,3467.4 L-7319.4,3465.7 L-7319.5,3464.5 L-7319.4,3463.4 L-7319.1,3462.3 L-7318.3,3460.3 L-7317.8,3459.2 L-7316.6,3457.3 L-7315.2,3455.9 L-7308.9,3453.3 L-7303.6,3451.4 L-7296.8,3449.2 L-7293.7,3448.3 L-7288.1,3446.5 L-7284.1,3445.0 L-7278.7,3442.8 L-7271.3,3439.6 L-7263.3,3435.8 L-7259.0,3433.7 L-7253.6,3431.0 L-7248.6,3428.1 L-7243.5,3425.1 L-7238.4,3421.8 L-7236.8,3420.7 L-7226.4,3412.8 L-7217.7,3406.1 L-7209.2,3398.9 L-7201.2,3391.4 L-7195.5,3384.9 L-7189.8,3378.0 L-7182.8,3369.0 L-7176.4,3360.0 L-7169.1,3348.4 L-7164.3,3339.5 L-7161.3,3333.8 L-7156.8,3324.1 L-7153.1,3315.2 L-7149.7,3305.6 L-7147.0,3297.1 L-7144.1,3283.4 L-7141.9,3271.2 L-7140.7,3260.6 L-7139.8,3248.3 L-7139.6,3235.0 L-7140.5,3222.7 L-7142.6,3206.8 L-7144.7,3195.9 L-7147.3,3185.5 L-7150.9,3173.9 L-7154.1,3164.9 L-7157.7,3155.1 L-7161.1,3147.1 L-7163.4,3141.8 L-7164.4,3138.0 L-7164.5,3135.0 L-7164.2,3132.4 L-7163.1,3130.1 L-7161.5,3128.1 L-7159.4,3127.0 L-7157.2,3126.7 L-7151.1,3128.2 L-7134.3,3132.2 L-7128.7,3004.9 L-7106.8,2777.6 L-7130.6,2771.9 L-7133.2,2764.8 L-7133.1,2754.6 L-7129.8,2731.3 L-7125.3,2726.1 L-7121.3,2710.9 L-7096.1,2716.8 L-7082.1,2571.6 L-7078.3,2531.3 L-7086.1,2529.4 L-7081.4,2510.2 L-7097.6,2506.4 L-7095.5,2494.6 L-7092.7,2486.9 L-7089.1,2477.8 L-7083.1,2465.2 L-7076.7,2466.6 L-7067.9,2375.3 L-7065.9,2319.9 L-7065.5,2309.7 L-7060.8,2274.4 L-7051.4,2186.5 L-6989.0,2023.8 L-6974.8,1979.5 L-6801.5,1913.0 L-6784.5,1906.2 L-6781.6,1904.6 L-6779.2,1902.5 L-6776.7,1899.6 L-6774.8,1896.1 L-6773.5,1892.7 L-6773.1,1887.8 L-6773.4,1881.6 L-6775.7,1803.9 L-6776.6,1788.8 L-6776.8,1778.4 L-6777.1,1758.4 L-6777.5,1752.1 L-6778.3,1746.8 L-6779.4,1742.0 L-6780.9,1737.3 L-6783.3,1731.6 L-6786.9,1725.5 L-6790.5,1720.7 L-6793.2,1716.2 L-6795.9,1710.2 L-6798.2,1704.3 L-6799.1,1699.6 L-6799.8,1694.4 L-6800.1,1689.1 L-6800.0,1684.0 L-6799.4,1678.1 L-6798.0,1672.2 L-6796.1,1667.0 L-6794.2,1662.2 L-6791.7,1657.6 L-6788.7,1652.1 L-6786.6,1647.0 L-6784.9,1640.5 L-6781.7,1635.7 L-6782.8,1591.0 L-6784.4,1588.5 L-6785.0,1558.2 L-6785.8,1522.4 L-6785.2,1517.5 L-6783.6,1512.4 L-6779.6,1504.5 L-6752.9,1447.0 L-6752.3,1446.0 L-6747.6,1435.8 L-6743.1,1426.0 L-6738.2,1416.0 L-6733.2,1405.8 L-6730.8,1400.7 L-6704.6,1346.8 L-6676.5,1287.2 L-6615.6,1163.8 L-6652.2,1122.9 L-6682.0,1186.3 L-6707.8,1241.3 L-6711.7,1249.1 L-6719.6,1265.3 L-6735.5,1264.0 L-6739.9,1263.7 L-6741.4,1265.2 L-6739.3,1267.1 L-6747.5,1274.3 L-6753.9,1280.3 L-6755.1,1305.7 L-6757.5,1310.8 L-6765.3,1310.5 L-6766.6,1310.0 L-6868.8,1267.9 L-6871.0,1266.7 L-6873.4,1265.2 L-6877.0,1262.4 L-6879.9,1259.7 L-6882.3,1257.1 L-6884.6,1253.9 L-6886.4,1251.1 L-6887.8,1248.2 L-6889.0,1245.1 L-6889.7,1243.1 L-6890.2,1240.5 L-6890.7,1237.5 L-6891.1,1233.4 L-6891.1,1227.6 L-6891.8,1207.7 L-6889.0,1207.5 L-6889.4,1197.1 L-6889.8,1179.8 L-6887.2,1179.7 L-6887.4,1167.9 L-6890.3,1168.0 L-6891.7,1118.2 L-6888.9,1118.1 L-6889.4,1106.5 L-6892.1,1106.6 L-6893.2,1069.8 L-6879.7,1055.3 L-6862.5,1054.7 L-6849.6,1054.2 L-6832.7,1053.7 L-6816.4,1053.1 L-6801.7,1052.6 L-6795.4,1052.4 L-6795.7,1046.7 L-6795.8,1040.8 L-6796.8,1021.7 L-6797.1,985.1 L-6797.6,984.5 L-6797.7,980.8 L-6796.6,980.8 L-6799.2,892.7 L-6801.4,809.9 L-6801.8,807.3 L-6802.0,802.5 L-6838.1,803.8 L-6862.1,801.7 L-7041.7,808.0 L-7041.7,806.4 L-7042.1,798.7 L-7127.3,801.7 L-7127.5,787.6 L-7138.7,785.1 L-7140.7,724.5 L-6809.3,713.0 L-6803.8,705.4 L-6804.0,683.9 L-6804.4,665.4 L-6804.7,653.7 L-6805.2,642.4 L-6831.5,629.9 L-6832.6,602.4 L-6805.5,589.0 L-6808.0,525.3 L-6808.7,522.1 L-6835.5,509.6 L-6836.4,475.5 L-6810.9,462.3 L-6822.3,323.9 L-6819.2,262.2 L-6817.8,161.8 L-6817.9,52.6 L-6815.5,37.2 L-6815.3,29.9 L-6817.7,20.9 L-6815.2,20.9 L-6815.2,12.9 L-6813.7,-192.6 L-6813.9,-201.8 L-6816.8,-201.7 L-6816.7,-239.5 L-6818.4,-241.9 L-6820.9,-280.9 L-6815.8,-316.5 L-6816.5,-359.7 L-6818.2,-370.0 L-6815.6,-402.0 L-6817.4,-440.6 L-6821.9,-482.0 L-6830.4,-549.0 L-6826.4,-567.4 L-6828.1,-585.4 L-6843.4,-598.5 L-6865.9,-598.2 L-6900.1,-593.7 L-6922.3,-593.7 L-6942.6,-601.2 L-6969.1,-619.4 L-6969.1,-652.0 L-6969.8,-692.2 L-6967.2,-725.6 L-6958.4,-751.7 L-6811.0,-754.4 L-6807.7,-963.4 L-6807.7,-1264.2 L-6809.2,-1373.4 L1146.9,-4659.2 L1146.9,13449.9 L-8709.4,13449.9 L-8709.4,4457.1 Z" fill="#add7e1" stroke="none"><title>Biscayne Bay</title></path></svg>