<svg xmlns="http://www.w3.org/2000/svg" width="256" height="256" viewBox="0 0 256 256"><rect width="256" height="256" fill="#f1efe7"/><path d="M-8709.4,617.1 L-8602.0,572.5 L-8568.4,556.4 L-8418.1,484.2 L-8389.9,511.5 L-8387.4,513.8 L-8334.8,468.8 L-8322.2,459.2 L-8301.3,440.3 L-8183.2,331.9 L-8087.9,223.1 L-8084.3,216.2 L-8080.8,212.2 L-8075.2,205.9 L-8069.6,199.4 L-8067.3,196.7 L-8104.9,148.2 L-8055.2,118.4 L-8028.2,154.3 L-7990.1,110.7 L-8022.4,67.9 L-7982.4,26.3 L-7951.7,66.8 L-7916.3,26.6 L-7901.3,16.8 L-7827.7,-31.0 L-7791.3,-55.1 L-7747.5,-84.0 L-7726.8,-97.5 L-7674.4,-131.4 L-7687.9,-149.2 L-7712.1,-181.5 L-7649.6,-221.2 L-7626.8,-233.0 L-7625.1,-234.2 L-7613.1,-243.5 L-7570.3,-266.3 L-7567.3,-271.0 L-7555.3,-279.2 L-7548.8,-288.7 L-7547.0,-290.1 L-7536.6,-294.1 L-7512.9,-302.6 L-7496.8,-309.7 L-7439.7,-336.5 L-7439.0,-334.6 L-7391.2,-355.1 L-7371.7,-330.0 L-7328.1,-359.1 L-7321.9,-363.3 L-7321.3,-363.8 L-7320.7,-364.6 L-7319.8,-366.3 L-7319.2,-367.8 L-7319.0,-369.7 L-7319.0,-371.2 L-7319.2,-372.6 L-7319.4,-374.3 L-7319.5,-375.5 L-7319.4,-376.6 L-7319.1,-377.7 L-7318.3,-379.7 L-7317.8,-380.8 L-7316.6,-382.7 L-7315.2,-384.1 L-7308.9,-386.7 L-7303.6,-388.6 L-7296.8,-390.8 L-7293.7,-391.7 L-7288.1,-393.5 L-7284.1,-395.0 L-7278.7,-397.2 L-7271.3,-400.4 L-7263.3,-404.2 L-7259.0,-406.3 L-7253.6,-409.0 L-7248.6,-411.9 L-7243.5,-414.9 L-7238.4,-418.2 L-7236.8,-419.3 L-7226.4,-427.2 L-7217.7,-433.9 L-7209.2,-441.1 L-7201.2,-448.6 L-7195.5,-455.1 L-7189.8,-462.0 L-7182.8,-471.0 L-7176.4,-480.0 L-7169.1,-491.6 L-7164.3,-500.5 L-7161.3,-506.2 L-7156.8,-515.9 L-7153.1,-524.8 L-7149.7,-534.4 L-7147.0,-542.9 L-7144.1,-556.6 L-7141.9,-568.8 L-7140.7,-579.4 L-7139.8,-591.7 L-7139.6,-605.0 L-7140.5,-617.3 L-7142.6,-633.2 L-7144.7,-644.1 L-7147.3,-654.5 L-7150.9,-666.1 L-7154.1,-675.1 L-7157.7,-684.9 L-7161.1,-692.9 L-7163.4,-698.2 L-7164.4,-702.0 L-7164.5,-705.0 L-7164.2,-707.6 L-7163.1,-709.9 L-7161.5,-711.9 L-7159.4,-713.0 L-7157.2,-713.3 L-7151.1,-711.8 L-7134.3,-707.8 L-7128.7,-835.1 L-7106.8,-1062.4 L-7130.6,-1068.1 L-7133.2,-1075.2 L-7133.1,-1085.4 L-7129.8,-1108.7 L-7125.3,-1113.9 L-7121.3,-1129.1 L-7096.1,-1123.2 L-7082.1,-1268.4 L-7078.3,-1308.7 L-7086.1,-1310.6 L-7081.4,-1329.8 L-7097.6,-1333.6 L-7095.5,-1345.4 L-7092.7,-1353.1 L-7089.1,-1362.2 L-7083.1,-1374.8 L-7076.7,-1373.4 L-7067.9,-1464.7 L-7065.9,-1520.1 L-7065.5,-1530.3 L-7060.8,-1565.6 L-7051.4,-1653.5 L-6989.0,-1816.2 L-6974.8,-1860.5 L-6801.5,-1927.0 L-6784.5,-1933.8 L-6781.6,-1935.4 L-6779.2,-1937.5 L-6776.7,-1940.4 L-6774.8,-1943.9 L-6773.5,-1947.3 L-6773.1,-1952.2 L-6773.4,-1958.4 L-6775.7,-2036.1 L-6776.6,-2051.2 L-6776.8,-2061.6 L-6777.1,-2081.6 L-6777.5,-2087.9 L-6778.3,-2093.2 L-6779.4,-2098.0 L-6780.9,-2102.7 L-6783.3,-2108.4 L-6786.9,-2114.5 L-6790.5,-2119.3 L-6793.2,-2123.8 L-6795.9,-2129.8 L-6798.2,-2135.7 L-6799.1,-2140.4 L-6799.8,-2145.6 L-6800.1,-2150.9 L-6800.0,-2156.0 L-6799.4,-2161.9 L-6798.0,-2167.8 L-6796.1,-2173.0 L-6794.2,-2177.8 L-6791.7,-2182.4 L-6788.7,-2187.9 L-6786.6,-2193.0 L-6784.9,-2199.5 L-6781.7,-2204.3 L-6782.8,-2249.0 L-6784.4,-2251.5 L-6785.0,-2281.8 L-6785.8,-2317.6 L-6785.2,-2322.5 L-6783.6,-2327.6 L-6779.6,-2335.5 L-6752.9,-2393.0 L-6752.3,-2394.0 L-6747.6,-2404.2 L-6743.1,-2414.0 L-6738.2,-2424.0 L-6733.2,-2434.2 L-6730.8,-2439.3 L-6704.6,-2493.2 L-6676.5,-2552.8 L-6615.6,-2676.2 L-6652.2,-2717.1 L-6682.0,-2653.7 L-6707.8,-2598.7 L-6711.7,-2590.9 L-6719.6,-2574.7 L-6735.5,-2576.0 L-6739.9,-2576.3 L-6741.4,-2574.8 L-6739.3,-2572.9 L-6747.5,-2565.7 L-6753.9,-2559.7 L-6755.1,-2534.3 L-6757.5,-2529.2 L-6765.3,-2529.5 L-6766.6,-2530.0 L-6868.8,-2572.1 L-6871.0,-2573.3 L-6873.4,-2574.8 L-6877.0,-2577.6 L-6879.9,-2580.3 L-6882.3,-2582.9 L-6884.6,-2586.1 L-6886.4,-2588.9 L-6887.8,-2591.8 L-6889.0,-2594.9 L-6889.7,-2596.9 L-6890.2,-2599.5 L-6890.7,-2602.5 L-6891.1,-2606.6 L-6891.1,-2612.4 L-6891.8,-2632.3 L-6889.0,-2632.5 L-6889.4,-2642.9 L-6889.8,-2660.2 L-6887.2,-2660.3 L-6887.4,-2672.1 L-6890.3,-2672.0 L-6891.7,-2721.8 L-6888.9,-2721.9 L-6889.4,-2733.5 L-6892.1,-2733.4 L-6893.2,-2770.2 L-6879.7,-2784.7 L-6862.5,-2785.3 L-6849.6,-2785.8 L-6832.7,-2786.3 L-6816.4,-2786.9 L-6801.7,-2787.4 L-6795.4,-2787.6 L-6795.7,-2793.3 L-6795.8,-2799.2 L-6796.8,-2818.3 L-6797.1,-2854.9 L-6797.6,-2855.5 L-6797.7,-2859.2 L-6796.6,-2859.2 L-6799.2,-2947.3 L-6801.4,-3030.1 L-6801.8,-3032.7 L-6802.0,-3037.5 L-6838.1,-3036.2 L-6862.1,-3038.3 L-7041.7,-3032.0 L-7041.7,-3033.6 L-7042.1,-3041.3 L-7127.3,-3038.3 L-7127.5,-3052.4 L-7138.7,-3054.9 L-7140.7,-3115.5 L-6809.3,-3127.0 L-6803.8,-3134.6 L-6804.0,-3156.1 L-6804.4,-3174.6 L-6804.7,-3186.3 L-6805.2,-3197.6 L-6831.5,-3210.1 L-6832.6,-3237.6 L-6805.5,-3251.0 L-6808.0,-3314.7 L-6808.7,-3317.9 L-6835.5,-3330.4 L-6836.4,-3364.5 L-6810.9,-3377.7 L-6822.3,-3516.1 L-6819.2,-3577.8 L-6817.8,-3678.2 L-6817.9,-3787.4 L-6815.5,-3802.8 L-6815.3,-3810.1 L-6817.7,-3819.1 L-6815.2,-3819.1 L-6815.2,-3827.1 L-6813.7,-4032.6 L-6813.9,-4041.8 L-6816.8,-4041.7 L-6816.7,-4079.5 L-6818.4,-4081.9 L-6820.9,-4120.9 L-6815.8,-4156.5 L-6816.5,-4199.7 L-6818.2,-4210.0 L-6815.6,-4242.0 L-6817.4,-4280.6 L-6821.9,-4322.0 L-6830.4,-4389.0 L-6826.4,-4407.4 L-6828.1,-4425.4 L-6843.4,-4438.5 L-6865.9,-4438.2 L-6900.1,-4433.7 L-6922.3,-4433.7 L-6942.6,-4441.2 L-6969.1,-4459.4 L-6969.1,-4492.0 L-6969.8,-4532.2 L-6967.2,-4565.6 L-6958.4,-4591.7 L-6811.0,-4594.4 L-6807.7,-4803.4 L-6807.7,-5104.2 L-6809.2,-5213.4 L1146.9,-8499.2 L1146.9,9609.9 L-8709.4,9609.9 L-8709.4,617.1 Z" fill="#add7e1" stroke="none"><title>Biscayne Bay</title></path></svg>