<svg xmlns="http://www.w3.org/2000/svg" width="256" height="256" viewBox="0 0 256 256"><rect width="256" height="256" fill="#f1efe7"/><path d="M-8970.7,7890.3 L-8755.9,7801.0 L-8688.7,7768.7 L-8388.2,7624.4 L-8331.8,7679.0 L-8326.9,7683.7 L-8221.5,7593.5 L-8196.4,7574.4 L-8154.5,7536.6 L-7918.4,7319.8 L-7727.9,7102.2 L-7720.6,7088.3 L-7713.6,7080.4 L-7702.5,7067.7 L-7691.2,7054.8 L-7686.6,7049.5 L-7761.7,6952.4 L-7662.3,6892.8 L-7608.4,6964.5 L-7532.2,6877.3 L-7596.7,6791.9 L-7516.8,6708.6 L-7455.3,6789.6 L-7384.7,6709.2 L-7354.6,6689.5 L-7207.4,6594.0 L-7134.7,6545.7 L-7047.1,6488.1 L-7005.7,6460.9 L-6900.8,6393.2 L-6927.8,6357.7 L-6976.1,6293.0 L-6851.2,6213.6 L-6805.7,6190.1 L-6802.2,6187.6 L-6778.2,6169.1 L-6692.6,6123.3 L-6686.7,6114.1 L-6662.7,6097.6 L-6649.7,6078.6 L-6646.0,6075.8 L-6625.1,6067.7 L-6577.9,6050.8 L-6545.6,6036.6 L-6431.5,5983.0 L-6430.1,5986.7 L-6334.4,5945.8 L-6295.3,5995.9 L-6208.2,5937.8 L-6195.8,5929.3 L-6194.6,5928.3 L-6193.4,5926.7 L-6191.5,5923.4 L-6190.5,5920.3 L-6189.9,5916.6 L-6190.0,5913.6 L-6190.4,5910.7 L-6190.8,5907.4 L-6190.9,5904.9 L-6190.7,5902.8 L-6190.3,5900.6 L-6188.7,5896.6 L-6187.6,5894.4 L-6185.1,5890.6 L-6182.5,5887.8 L-6169.8,5882.7 L-6159.2,5878.7 L-6145.7,5874.3 L-6139.4,5872.6 L-6128.2,5868.9 L-6120.3,5866.1 L-6109.4,5861.6 L-6094.6,5855.1 L-6078.6,5847.6 L-6070.0,5843.4 L-6059.2,5837.9 L-6049.1,5832.3 L-6039.0,5826.3 L-6028.7,5819.6 L-6025.5,5817.4 L-6004.8,5801.6 L-5987.4,5788.2 L-5970.4,5773.8 L-5954.5,5758.8 L-5943.0,5745.9 L-5931.6,5732.0 L-5917.6,5714.0 L-5904.8,5696.0 L-5890.1,5672.9 L-5880.5,5655.0 L-5874.5,5643.6 L-5865.6,5624.3 L-5858.1,5606.4 L-5851.4,5587.1 L-5846.0,5570.2 L-5840.1,5542.8 L-5835.8,5518.3 L-5833.5,5497.3 L-5831.5,5472.5 L-5831.3,5446.0 L-5832.9,5421.5 L-5837.1,5389.5 L-5841.5,5367.7 L-5846.5,5347.1 L-5853.9,5323.7 L-5860.2,5305.8 L-5867.4,5286.3 L-5874.2,5270.1 L-5878.8,5259.6 L-5880.7,5251.9 L-5881.0,5246.0 L-5880.4,5240.7 L-5878.3,5236.1 L-5875.1,5232.2 L-5870.9,5230.0 L-5866.4,5229.4 L-5854.3,5232.3 L-5820.6,5240.4 L-5809.4,4985.7 L-5765.7,4531.1 L-5813.2,4519.9 L-5818.4,4505.6 L-5818.2,4485.1 L-5811.6,4438.6 L-5802.6,4428.1 L-5794.6,4397.9 L-5744.1,4409.6 L-5716.3,4119.1 L-5708.6,4038.7 L-5724.3,4034.8 L-5714.8,3996.4 L-5747.1,3988.7 L-5743.0,3965.2 L-5737.3,3949.7 L-5730.2,3931.6 L-5718.2,3906.3 L-5705.3,3909.2 L-5687.9,3726.5 L-5683.8,3615.7 L-5683.0,3595.3 L-5673.6,3524.8 L-5654.9,3349.1 L-5530.1,3023.7 L-5501.6,2935.0 L-5154.9,2802.0 L-5121.0,2788.4 L-5115.1,2785.2 L-5110.5,2781.0 L-5105.4,2775.1 L-5101.5,2768.2 L-5098.9,2761.4 L-5098.3,2751.5 L-5098.8,2739.2 L-5103.4,2583.7 L-5105.1,2553.6 L-5105.6,2532.9 L-5106.3,2492.7 L-5107.1,2480.1 L-5108.6,2469.5 L-5110.7,2460.1 L-5113.8,2450.5 L-5118.7,2439.2 L-5125.9,2427.1 L-5132.9,2417.5 L-5138.3,2408.4 L-5143.8,2396.3 L-5148.4,2384.7 L-5150.2,2375.2 L-5151.6,2364.7 L-5152.3,2354.2 L-5152.0,2344.0 L-5150.8,2332.1 L-5148.0,2320.4 L-5144.3,2310.0 L-5140.4,2300.5 L-5135.4,2291.3 L-5129.3,2280.1 L-5125.3,2270.0 L-5121.8,2257.1 L-5115.4,2247.3 L-5117.6,2158.1 L-5120.9,2152.9 L-5121.9,2092.3 L-5123.6,2020.8 L-5122.4,2010.9 L-5119.2,2000.8 L-5111.2,1985.0 L-5057.7,1869.9 L-5056.6,1868.0 L-5047.2,1847.5 L-5038.3,1828.1 L-5028.3,1808.1 L-5018.5,1787.5 L-5013.7,1777.5 L-4961.1,1669.6 L-4904.9,1550.4 L-4783.3,1303.6 L-4856.4,1221.7 L-4916.0,1348.7 L-4967.5,1458.6 L-4975.3,1474.2 L-4991.2,1506.7 L-5023.0,1504.0 L-5031.7,1503.5 L-5034.8,1506.3 L-5030.6,1510.1 L-5046.9,1524.6 L-5059.8,1536.5 L-5062.2,1587.4 L-5067.0,1597.6 L-5082.6,1597.0 L-5085.2,1596.1 L-5289.6,1511.7 L-5294.0,1509.4 L-5298.7,1506.4 L-5306.1,1500.8 L-5311.8,1495.4 L-5316.6,1490.2 L-5321.3,1483.8 L-5324.9,1478.2 L-5327.7,1472.4 L-5329.9,1466.3 L-5331.4,1462.1 L-5332.5,1457.0 L-5333.3,1451.0 L-5334.1,1442.8 L-5334.1,1431.1 L-5335.5,1391.4 L-5329.9,1391.1 L-5330.7,1370.1 L-5331.6,1335.5 L-5326.4,1335.4 L-5326.8,1311.8 L-5332.7,1311.9 L-5335.4,1212.5 L-5329.8,1212.2 L-5330.7,1188.9 L-5336.1,1189.1 L-5338.4,1115.6 L-5311.4,1086.5 L-5276.9,1085.3 L-5251.2,1084.4 L-5217.3,1083.3 L-5184.7,1082.3 L-5155.5,1081.3 L-5142.8,1080.7 L-5143.4,1069.4 L-5143.6,1057.6 L-5145.5,1019.3 L-5146.2,946.2 L-5147.2,944.9 L-5147.4,937.7 L-5145.3,937.6 L-5150.4,761.5 L-5154.8,595.8 L-5155.5,590.6 L-5155.9,581.0 L-5228.1,583.6 L-5276.1,579.5 L-5635.4,592.0 L-5635.5,588.8 L-5636.2,573.5 L-5806.6,579.5 L-5806.9,551.2 L-5829.4,546.1 L-5833.4,425.0 L-5170.6,402.0 L-5159.6,386.9 L-5160.0,343.9 L-5160.8,306.7 L-5161.4,283.4 L-5162.3,260.7 L-5215.0,235.9 L-5217.1,180.8 L-5163.1,154.0 L-5168.0,26.5 L-5169.4,20.2 L-5223.1,-4.9 L-5224.8,-73.1 L-5173.8,-99.4 L-5196.5,-376.3 L-5190.5,-499.5 L-5187.5,-700.4 L-5187.7,-918.9 L-5182.9,-949.5 L-5182.6,-964.3 L-5187.4,-982.1 L-5182.4,-982.1 L-5182.4,-998.2 L-5179.4,-1409.2 L-5179.9,-1427.5 L-5185.6,-1427.5 L-5185.4,-1503.1 L-5188.7,-1507.8 L-5193.9,-1585.8 L-5183.6,-1657.1 L-5184.9,-1743.4 L-5188.4,-1764.1 L-5183.1,-1828.0 L-5186.7,-1905.3 L-5195.7,-1988.0 L-5212.8,-2122.0 L-5204.7,-2158.9 L-5208.3,-2194.8 L-5238.9,-2220.9 L-5283.8,-2220.5 L-5352.2,-2211.5 L-5396.7,-2211.5 L-5437.1,-2226.3 L-5490.2,-2262.7 L-5490.2,-2328.0 L-5491.6,-2408.3 L-5486.4,-2475.2 L-5468.8,-2527.4 L-5174.1,-2532.9 L-5167.3,-2950.8 L-5167.3,-3552.4 L-5170.4,-3770.7 L10741.8,-10342.4 L10741.8,25875.8 L-8970.7,25875.8 L-8970.7,7890.3 Z" fill="#add7e1" stroke="none"><title>Biscayne Bay</title></path><path d="M141.4,947.3 L151.5,948.6 L150.1,959.8 L181.6,963.3 L181.8,953.7 L228.5,948.2 L284.0,927.3 L314.6,912.4 L332.9,895.6 L344.6,884.8 L385.0,810.6 L394.2,727.1 L372.7,652.1 L351.1,624.4 L362.0,616.6 L350.7,602.7 L340.2,610.3 L336.2,605.1 L271.2,559.4 L-1184.3,-133.7 L-1261.9,-163.2 L-1320.3,-161.5 L-1381.5,-143.2 L-1424.0,-113.1 L-1465.0,-70.7 L-1484.2,-24.9 L-1493.5,23.8 L-1491.0,81.9 L-1482.8,112.3 L-1450.3,161.8 L-1419.0,193.4 L-1359.3,228.8 L-659.7,563.7 L-635.7,575.2 L141.4,947.3 Z" fill="#ece7dc" stroke="#d7d1c5" stroke-width="0.3"><title>Hibiscus Island</title></path><path d="M-1.0,-1.0 L257.0,-1.0 L257.0,257.0 L-1.0,257.0 L-1.0,-1.0 Z" fill="#add7e1" stroke="none" fill-rule="evenodd"><title>Biscayne Bay</title></path><path d="M-380.0,-95.9 L875.8,316.4" fill="none" stroke="#ecfbff" stroke-width="4.3" stroke-dasharray="6 8" opacity="0.90" stroke-linecap="round" stroke-linejoin="round"/><path d="M-380.0,-95.9 L875.8,316.4" fill="none" stroke="#388fb3" stroke-width="2.2" stroke-dasharray="5 8" opacity="0.86" stroke-linecap="round" stroke-linejoin="round"><title>Water Taxi Miami - Yellow</title></path><text x="128.0" y="70.9" transform="rotate(18.2 128.0 70.9)" text-anchor="middle" dominant-baseline="central" font-family="Arial, sans-serif" font-size="7.4" textLength="80.5" lengthAdjust="spacing" font-weight="650" paint-order="stroke" stroke="#e4f8fb" stroke-width="2.0" stroke-linejoin="round" fill="#2f8298">Water Taxi Yellow</text></svg>