<svg xmlns="http://www.w3.org/2000/svg" width="256" height="256" viewBox="0 0 256 256"><defs><pattern id="park-dots" width="22" height="22" patternUnits="userSpaceOnUse"><circle cx="5" cy="5" r="2.1" fill="#63a95d" fill-opacity="0.26"/><circle cx="16" cy="7" r="1.55" fill="#76b970" fill-opacity="0.23"/><circle cx="10" cy="17" r="1.9" fill="#61a65b" fill-opacity="0.24"/><circle cx="21" cy="17" r="1.25" fill="#80c174" fill-opacity="0.18"/><circle cx="1" cy="19" r="1.2" fill="#70b46a" fill-opacity="0.17"/></pattern><pattern id="park-canopy" width="54" height="48" patternUnits="userSpaceOnUse"><circle cx="12" cy="11" r="3.6" fill="#5ea75a" fill-opacity="0.22"/><circle cx="31" cy="15" r="2.9" fill="#75ba6d" fill-opacity="0.18"/><circle cx="45" cy="31" r="3.3" fill="#67ae62" fill-opacity="0.20"/><circle cx="19" cy="39" r="2.5" fill="#83c378" fill-opacity="0.16"/></pattern></defs><rect width="256" height="256" fill="#f1efe7"/><path d="M-8970.7,2002.3 L-8755.9,1913.0 L-8688.7,1880.7 L-8388.2,1736.4 L-8331.8,1791.0 L-8326.9,1795.7 L-8221.5,1705.5 L-8196.4,1686.4 L-8154.5,1648.6 L-7918.4,1431.8 L-7727.9,1214.2 L-7720.6,1200.3 L-7713.6,1192.4 L-7702.5,1179.7 L-7691.2,1166.8 L-7686.6,1161.5 L-7761.7,1064.4 L-7662.3,1004.8 L-7608.4,1076.5 L-7532.2,989.3 L-7596.7,903.9 L-7516.8,820.6 L-7455.3,901.6 L-7384.7,821.2 L-7354.6,801.5 L-7207.4,706.0 L-7134.7,657.7 L-7047.1,600.1 L-7005.7,572.9 L-6900.8,505.2 L-6927.8,469.7 L-6976.1,405.0 L-6851.2,325.6 L-6805.7,302.1 L-6802.2,299.6 L-6778.2,281.1 L-6692.6,235.3 L-6686.7,226.1 L-6662.7,209.6 L-6649.7,190.6 L-6646.0,187.8 L-6625.1,179.7 L-6577.9,162.8 L-6545.6,148.6 L-6431.5,95.0 L-6430.1,98.7 L-6334.4,57.8 L-6295.3,107.9 L-6208.2,49.8 L-6195.8,41.3 L-6194.6,40.3 L-6193.4,38.7 L-6191.5,35.4 L-6190.5,32.3 L-6189.9,28.6 L-6190.0,25.6 L-6190.4,22.7 L-6190.8,19.4 L-6190.9,16.9 L-6190.7,14.8 L-6190.3,12.6 L-6188.7,8.6 L-6187.6,6.4 L-6185.1,2.6 L-6182.5,-0.2 L-6169.8,-5.3 L-6159.2,-9.3 L-6145.7,-13.7 L-6139.4,-15.4 L-6128.2,-19.1 L-6120.3,-21.9 L-6109.4,-26.4 L-6094.6,-32.9 L-6078.6,-40.4 L-6070.0,-44.6 L-6059.2,-50.1 L-6049.1,-55.7 L-6039.0,-61.7 L-6028.7,-68.4 L-6025.5,-70.6 L-6004.8,-86.4 L-5987.4,-99.8 L-5970.4,-114.2 L-5954.5,-129.2 L-5943.0,-142.1 L-5931.6,-156.0 L-5917.6,-174.0 L-5904.8,-192.0 L-5890.1,-215.1 L-5880.5,-233.0 L-5874.5,-244.4 L-5865.6,-263.7 L-5858.1,-281.6 L-5851.4,-300.9 L-5846.0,-317.8 L-5840.1,-345.2 L-5835.8,-369.7 L-5833.5,-390.7 L-5831.5,-415.5 L-5831.3,-442.0 L-5832.9,-466.5 L-5837.1,-498.5 L-5841.5,-520.3 L-5846.5,-540.9 L-5853.9,-564.3 L-5860.2,-582.2 L-5867.4,-601.7 L-5874.2,-617.9 L-5878.8,-628.4 L-5880.7,-636.1 L-5881.0,-642.0 L-5880.4,-647.3 L-5878.3,-651.9 L-5875.1,-655.8 L-5870.9,-658.0 L-5866.4,-658.6 L-5854.3,-655.7 L-5820.6,-647.6 L-5809.4,-902.3 L-5765.7,-1356.9 L-5813.2,-1368.1 L-5818.4,-1382.4 L-5818.2,-1402.9 L-5811.6,-1449.4 L-5802.6,-1459.9 L-5794.6,-1490.1 L-5744.1,-1478.4 L-5716.3,-1768.9 L-5708.6,-1849.3 L-5724.3,-1853.2 L-5714.8,-1891.6 L-5747.1,-1899.3 L-5743.0,-1922.8 L-5737.3,-1938.3 L-5730.2,-1956.4 L-5718.2,-1981.7 L-5705.3,-1978.8 L-5687.9,-2161.5 L-5683.8,-2272.3 L-5683.0,-2292.7 L-5673.6,-2363.2 L-5654.9,-2538.9 L-5530.1,-2864.3 L-5501.6,-2953.0 L-5154.9,-3086.0 L-5121.0,-3099.6 L-5115.1,-3102.8 L-5110.5,-3107.0 L-5105.4,-3112.9 L-5101.5,-3119.8 L-5098.9,-3126.6 L-5098.3,-3136.5 L-5098.8,-3148.8 L-5103.4,-3304.3 L-5105.1,-3334.4 L-5105.6,-3355.1 L-5106.3,-3395.3 L-5107.1,-3407.9 L-5108.6,-3418.5 L-5110.7,-3427.9 L-5113.8,-3437.5 L-5118.7,-3448.8 L-5125.9,-3460.9 L-5132.9,-3470.5 L-5138.3,-3479.6 L-5143.8,-3491.7 L-5148.4,-3503.3 L-5150.2,-3512.8 L-5151.6,-3523.3 L-5152.3,-3533.8 L-5152.0,-3544.0 L-5150.8,-3555.9 L-5148.0,-3567.6 L-5144.3,-3578.0 L-5140.4,-3587.5 L-5135.4,-3596.7 L-5129.3,-3607.9 L-5125.3,-3618.0 L-5121.8,-3630.9 L-5115.4,-3640.7 L-5117.6,-3729.9 L-5120.9,-3735.1 L-5121.9,-3795.7 L-5123.6,-3867.2 L-5122.4,-3877.1 L-5119.2,-3887.2 L-5111.2,-3903.0 L-5057.7,-4018.1 L-5056.6,-4020.0 L-5047.2,-4040.5 L-5038.3,-4059.9 L-5028.3,-4079.9 L-5018.5,-4100.5 L-5013.7,-4110.5 L-4961.1,-4218.4 L-4904.9,-4337.6 L-4783.3,-4584.4 L-4856.4,-4666.3 L-4916.0,-4539.3 L-4967.5,-4429.4 L-4975.3,-4413.8 L-4991.2,-4381.3 L-5023.0,-4384.0 L-5031.7,-4384.5 L-5034.8,-4381.7 L-5030.6,-4377.9 L-5046.9,-4363.4 L-5059.8,-4351.5 L-5062.2,-4300.6 L-5067.0,-4290.4 L-5082.6,-4291.0 L-5085.2,-4291.9 L-5289.6,-4376.3 L-5294.0,-4378.6 L-5298.7,-4381.6 L-5306.1,-4387.2 L-5311.8,-4392.6 L-5316.6,-4397.8 L-5321.3,-4404.2 L-5324.9,-4409.8 L-5327.7,-4415.6 L-5329.9,-4421.7 L-5331.4,-4425.9 L-5332.5,-4431.0 L-5333.3,-4437.0 L-5334.1,-4445.2 L-5334.1,-4456.9 L-5335.5,-4496.6 L-5329.9,-4496.9 L-5330.7,-4517.9 L-5331.6,-4552.5 L-5326.4,-4552.6 L-5326.8,-4576.2 L-5332.7,-4576.1 L-5335.4,-4675.5 L-5329.8,-4675.8 L-5330.7,-4699.1 L-5336.1,-4698.9 L-5338.4,-4772.4 L-5311.4,-4801.5 L-5276.9,-4802.7 L-5251.2,-4803.6 L-5217.3,-4804.7 L-5184.7,-4805.7 L-5155.5,-4806.7 L-5142.8,-4807.3 L-5143.4,-4818.6 L-5143.6,-4830.4 L-5145.5,-4868.7 L-5146.2,-4941.8 L-5147.2,-4943.1 L-5147.4,-4950.3 L-5145.3,-4950.4 L-5150.4,-5126.5 L-5154.8,-5292.2 L-5155.5,-5297.4 L-5155.9,-5307.0 L-5228.1,-5304.4 L-5276.1,-5308.5 L-5635.4,-5296.0 L-5635.5,-5299.2 L-5636.2,-5314.5 L-5806.6,-5308.5 L-5806.9,-5336.8 L-5829.4,-5341.9 L-5833.4,-5463.0 L-5170.6,-5486.0 L-5159.6,-5501.1 L-5160.0,-5544.1 L-5160.8,-5581.3 L-5161.4,-5604.6 L-5162.3,-5627.3 L-5215.0,-5652.1 L-5217.1,-5707.2 L-5163.1,-5734.0 L-5168.0,-5861.5 L-5169.4,-5867.8 L-5223.1,-5892.9 L-5224.8,-5961.1 L-5173.8,-5987.4 L-5196.5,-6264.3 L-5190.5,-6387.5 L-5187.5,-6588.4 L-5187.7,-6806.9 L-5182.9,-6837.5 L-5182.6,-6852.3 L-5187.4,-6870.1 L-5182.4,-6870.1 L-5182.4,-6886.2 L-5179.4,-7297.2 L-5179.9,-7315.5 L-5185.6,-7315.5 L-5185.4,-7391.1 L-5188.7,-7395.8 L-5193.9,-7473.8 L-5183.6,-7545.1 L-5184.9,-7631.4 L-5188.4,-7652.1 L-5183.1,-7716.0 L-5186.7,-7793.3 L-5195.7,-7876.0 L-5212.8,-8010.0 L-5204.7,-8046.9 L-5208.3,-8082.8 L-5238.9,-8108.9 L-5283.8,-8108.5 L-5352.2,-8099.5 L-5396.7,-8099.5 L-5437.1,-8114.3 L-5490.2,-8150.7 L-5490.2,-8216.0 L-5491.6,-8296.3 L-5486.4,-8363.2 L-5468.8,-8415.4 L-5174.1,-8420.9 L-5167.3,-8838.8 L-5167.3,-9440.4 L-5170.4,-9658.7 L10741.8,-16230.4 L10741.8,19987.8 L-8970.7,19987.8 L-8970.7,2002.3 Z" fill="#add7e1" stroke="none"><title>Biscayne Bay</title></path><path d="M-3202.0,-1074.4 L-1151.4,-660.4 L1085.5,457.3 L2800.5,2154.4 L3471.6,3810.0 L2651.4,5175.8 L1122.8,5920.7 L-331.2,5879.4 L-1524.2,5051.6 L-2642.7,3644.4 L-4022.2,2030.2 L-3873.1,126.1 Z" fill="#f1efe7" stroke="#8ab09d" stroke-width="0.65"><title>Virginia Key</title></path><path d="M-1290.2,4050.6 L-1282.1,4071.3 L-1256.0,4126.6 L-1244.6,4147.7 L-1062.9,4068.0 L-979.5,4033.0 L-807.7,3953.3 L-705.3,3886.2 L-511.2,3787.4 L-308.1,3683.8 L-250.1,3650.1 L-255.3,3623.9 L-97.3,3542.1 L-41.4,3517.9 L-27.1,3543.7 L123.3,3533.8 L438.4,3534.2 L736.1,3530.6 L1076.0,3525.9 L1372.8,3523.9 L1512.6,3550.9 L1837.7,3903.6 L2538.2,3281.2 L2936.3,2366.6 L3102.6,1424.1 L2933.3,737.4 L1618.4,-470.8 L1248.0,-498.5 L1066.6,655.6 L1109.4,1000.8 L1953.8,1009.2 L1943.5,1159.8 L1943.5,1691.2 L1945.9,1958.5 L2055.3,1959.3 L2051.0,2071.7 L2037.5,2098.8 L1998.8,2098.8 L2001.3,2240.6 L1971.8,2279.4 L2041.8,2306.1 L2149.2,2408.5 L2197.9,2531.0 L2142.6,2653.8 L1696.5,3165.3 L1541.0,3298.8 L1284.7,3398.1 L797.0,3432.4 L605.5,3402.2 L9.0,3467.0 L-1332.3,3996.9 L-1290.2,4050.6 Z" fill="#d5f2cb" stroke="#9fcf91" stroke-width="0.4"><title>Virginia Key Beach North Point Park</title></path><path d="M-1290.2,4050.6 L-1282.1,4071.3 L-1256.0,4126.6 L-1244.6,4147.7 L-1062.9,4068.0 L-979.5,4033.0 L-807.7,3953.3 L-705.3,3886.2 L-511.2,3787.4 L-308.1,3683.8 L-250.1,3650.1 L-255.3,3623.9 L-97.3,3542.1 L-41.4,3517.9 L-27.1,3543.7 L123.3,3533.8 L438.4,3534.2 L736.1,3530.6 L1076.0,3525.9 L1372.8,3523.9 L1512.6,3550.9 L1837.7,3903.6 L2538.2,3281.2 L2936.3,2366.6 L3102.6,1424.1 L2933.3,737.4 L1618.4,-470.8 L1248.0,-498.5 L1066.6,655.6 L1109.4,1000.8 L1953.8,1009.2 L1943.5,1159.8 L1943.5,1691.2 L1945.9,1958.5 L2055.3,1959.3 L2051.0,2071.7 L2037.5,2098.8 L1998.8,2098.8 L2001.3,2240.6 L1971.8,2279.4 L2041.8,2306.1 L2149.2,2408.5 L2197.9,2531.0 L2142.6,2653.8 L1696.5,3165.3 L1541.0,3298.8 L1284.7,3398.1 L797.0,3432.4 L605.5,3402.2 L9.0,3467.0 L-1332.3,3996.9 L-1290.2,4050.6 Z" fill="url(#park-dots)" stroke="none"/><path d="M-1290.2,4050.6 L-1282.1,4071.3 L-1256.0,4126.6 L-1244.6,4147.7 L-1062.9,4068.0 L-979.5,4033.0 L-807.7,3953.3 L-705.3,3886.2 L-511.2,3787.4 L-308.1,3683.8 L-250.1,3650.1 L-255.3,3623.9 L-97.3,3542.1 L-41.4,3517.9 L-27.1,3543.7 L123.3,3533.8 L438.4,3534.2 L736.1,3530.6 L1076.0,3525.9 L1372.8,3523.9 L1512.6,3550.9 L1837.7,3903.6 L2538.2,3281.2 L2936.3,2366.6 L3102.6,1424.1 L2933.3,737.4 L1618.4,-470.8 L1248.0,-498.5 L1066.6,655.6 L1109.4,1000.8 L1953.8,1009.2 L1943.5,1159.8 L1943.5,1691.2 L1945.9,1958.5 L2055.3,1959.3 L2051.0,2071.7 L2037.5,2098.8 L1998.8,2098.8 L2001.3,2240.6 L1971.8,2279.4 L2041.8,2306.1 L2149.2,2408.5 L2197.9,2531.0 L2142.6,2653.8 L1696.5,3165.3 L1541.0,3298.8 L1284.7,3398.1 L797.0,3432.4 L605.5,3402.2 L9.0,3467.0 L-1332.3,3996.9 L-1290.2,4050.6 Z" fill="url(#park-canopy)" stroke="none"/><path d="M1368.8,9.9 L1345.8,-83.1 L1279.4,-158.5 L-260.3,-1084.8 L-638.8,-1058.5 L-1238.3,-797.4 L-1677.1,-490.4 L-2114.5,-9.0 L-2805.0,1119.8 L-2290.8,1617.5 L-2174.8,1729.5 L-1458.8,2412.5 L-1062.8,2795.5 L-794.8,3087.5 L-768.8,3135.5 L-708.8,3423.5 L-778.8,3605.5 L-884.8,3773.5 L-902.8,3819.5 L-48.8,3459.5 L127.2,3235.5 L551.2,2617.5 L707.2,2453.5 L701.2,2117.5 L712.1,1741.5 L712.6,1721.5 L653.7,1721.5 L544.7,1725.5 L483.9,1624.0 L443.9,1435.5 L427.2,1249.5 L445.4,1155.5 L419.1,1037.5 L421.7,929.5 L489.8,883.5 L582.2,859.5 L756.0,891.5 L943.4,805.7 L1003.1,678.8 L1060.9,507.4 L1193.8,377.5 L1344.3,214.7 L1368.8,9.9 Z" fill="#c4e7bd" stroke="#9fcf91" stroke-width="0.4"><title>Bill Sadowski Critical Wildlife Area</title></path><path d="M1368.8,9.9 L1345.8,-83.1 L1279.4,-158.5 L-260.3,-1084.8 L-638.8,-1058.5 L-1238.3,-797.4 L-1677.1,-490.4 L-2114.5,-9.0 L-2805.0,1119.8 L-2290.8,1617.5 L-2174.8,1729.5 L-1458.8,2412.5 L-1062.8,2795.5 L-794.8,3087.5 L-768.8,3135.5 L-708.8,3423.5 L-778.8,3605.5 L-884.8,3773.5 L-902.8,3819.5 L-48.8,3459.5 L127.2,3235.5 L551.2,2617.5 L707.2,2453.5 L701.2,2117.5 L712.1,1741.5 L712.6,1721.5 L653.7,1721.5 L544.7,1725.5 L483.9,1624.0 L443.9,1435.5 L427.2,1249.5 L445.4,1155.5 L419.1,1037.5 L421.7,929.5 L489.8,883.5 L582.2,859.5 L756.0,891.5 L943.4,805.7 L1003.1,678.8 L1060.9,507.4 L1193.8,377.5 L1344.3,214.7 L1368.8,9.9 Z" fill="url(#park-dots)" stroke="none"/><path d="M1368.8,9.9 L1345.8,-83.1 L1279.4,-158.5 L-260.3,-1084.8 L-638.8,-1058.5 L-1238.3,-797.4 L-1677.1,-490.4 L-2114.5,-9.0 L-2805.0,1119.8 L-2290.8,1617.5 L-2174.8,1729.5 L-1458.8,2412.5 L-1062.8,2795.5 L-794.8,3087.5 L-768.8,3135.5 L-708.8,3423.5 L-778.8,3605.5 L-884.8,3773.5 L-902.8,3819.5 L-48.8,3459.5 L127.2,3235.5 L551.2,2617.5 L707.2,2453.5 L701.2,2117.5 L712.1,1741.5 L712.6,1721.5 L653.7,1721.5 L544.7,1725.5 L483.9,1624.0 L443.9,1435.5 L427.2,1249.5 L445.4,1155.5 L419.1,1037.5 L421.7,929.5 L489.8,883.5 L582.2,859.5 L756.0,891.5 L943.4,805.7 L1003.1,678.8 L1060.9,507.4 L1193.8,377.5 L1344.3,214.7 L1368.8,9.9 Z" fill="url(#park-canopy)" stroke="none"/></svg>