<svg xmlns="http://www.w3.org/2000/svg" width="256" height="256" viewBox="0 0 256 256"><rect width="256" height="256" fill="#f1efe7"/><path d="M-320.7,-850.9 L-307.2,-856.4 L-303.0,-858.5 L-284.3,-867.5 L-280.7,-864.1 L-280.4,-863.8 L-273.8,-869.4 L-272.3,-870.6 L-269.7,-873.0 L-254.9,-886.5 L-243.0,-900.1 L-242.5,-901.0 L-242.1,-901.5 L-241.4,-902.3 L-240.7,-903.1 L-240.4,-903.4 L-245.1,-909.5 L-238.9,-913.2 L-235.5,-908.7 L-230.8,-914.2 L-234.8,-919.5 L-229.8,-924.7 L-226.0,-919.7 L-221.5,-924.7 L-219.7,-925.9 L-210.5,-931.9 L-205.9,-934.9 L-200.4,-938.5 L-197.9,-940.2 L-191.3,-944.4 L-193.0,-946.6 L-196.0,-950.7 L-188.2,-955.7 L-185.4,-957.1 L-185.1,-957.3 L-183.6,-958.4 L-178.3,-961.3 L-177.9,-961.9 L-176.4,-962.9 L-175.6,-964.1 L-175.4,-964.3 L-174.1,-964.8 L-171.1,-965.8 L-169.1,-966.7 L-162.0,-970.1 L-161.9,-969.8 L-155.9,-972.4 L-153.5,-969.3 L-148.0,-972.9 L-147.2,-973.4 L-147.2,-973.5 L-147.1,-973.6 L-147.0,-973.8 L-146.9,-974.0 L-146.9,-974.2 L-146.9,-974.4 L-146.9,-974.6 L-146.9,-974.8 L-146.9,-974.9 L-146.9,-975.1 L-146.9,-975.2 L-146.8,-975.5 L-146.7,-975.6 L-146.6,-975.8 L-146.4,-976.0 L-145.6,-976.3 L-144.9,-976.6 L-144.1,-976.9 L-143.7,-977.0 L-143.0,-977.2 L-142.5,-977.4 L-141.8,-977.7 L-140.9,-978.1 L-139.9,-978.5 L-139.4,-978.8 L-138.7,-979.1 L-138.1,-979.5 L-137.4,-979.9 L-136.8,-980.3 L-136.6,-980.4 L-135.3,-981.4 L-134.2,-982.2 L-133.1,-983.1 L-132.2,-984.1 L-131.4,-984.9 L-130.7,-985.8 L-129.9,-986.9 L-129.0,-988.0 L-128.1,-989.4 L-127.5,-990.6 L-127.2,-991.3 L-126.6,-992.5 L-126.1,-993.6 L-125.7,-994.8 L-125.4,-995.9 L-125.0,-997.6 L-124.7,-999.1 L-124.6,-1000.4 L-124.5,-1002.0 L-124.5,-1003.6 L-124.6,-1005.2 L-124.8,-1007.2 L-125.1,-1008.5 L-125.4,-1009.8 L-125.9,-1011.3 L-126.3,-1012.4 L-126.7,-1013.6 L-127.1,-1014.6 L-127.4,-1015.3 L-127.5,-1015.8 L-127.6,-1016.1 L-127.5,-1016.5 L-127.4,-1016.7 L-127.2,-1017.0 L-126.9,-1017.1 L-126.6,-1017.2 L-125.9,-1017.0 L-123.8,-1016.5 L-123.1,-1032.4 L-120.4,-1060.8 L-123.3,-1061.5 L-123.6,-1062.4 L-123.6,-1063.7 L-123.2,-1066.6 L-122.7,-1067.2 L-122.2,-1069.1 L-119.0,-1068.4 L-117.3,-1086.6 L-116.8,-1091.6 L-117.8,-1091.8 L-117.2,-1094.2 L-119.2,-1094.7 L-118.9,-1096.2 L-118.6,-1097.1 L-118.1,-1098.3 L-117.4,-1099.9 L-116.6,-1099.7 L-115.5,-1111.1 L-115.2,-1118.0 L-115.2,-1119.3 L-114.6,-1123.7 L-113.4,-1134.7 L-105.6,-1155.0 L-103.9,-1160.6 L-82.2,-1168.9 L-80.1,-1169.7 L-79.7,-1169.9 L-79.4,-1170.2 L-79.1,-1170.6 L-78.8,-1171.0 L-78.7,-1171.4 L-78.6,-1172.0 L-78.7,-1172.8 L-79.0,-1182.5 L-79.1,-1184.4 L-79.1,-1185.7 L-79.1,-1188.2 L-79.2,-1189.0 L-79.3,-1189.7 L-79.4,-1190.2 L-79.6,-1190.8 L-79.9,-1191.5 L-80.4,-1192.3 L-80.8,-1192.9 L-81.1,-1193.5 L-81.5,-1194.2 L-81.8,-1195.0 L-81.9,-1195.6 L-82.0,-1196.2 L-82.0,-1196.9 L-82.0,-1197.5 L-81.9,-1198.2 L-81.7,-1199.0 L-81.5,-1199.6 L-81.3,-1200.2 L-81.0,-1200.8 L-80.6,-1201.5 L-80.3,-1202.1 L-80.1,-1202.9 L-79.7,-1203.5 L-79.8,-1209.1 L-80.1,-1209.4 L-80.1,-1213.2 L-80.2,-1217.7 L-80.2,-1218.3 L-79.9,-1219.0 L-79.5,-1219.9 L-76.1,-1227.1 L-76.0,-1227.3 L-75.4,-1228.5 L-74.9,-1229.7 L-74.3,-1231.0 L-73.7,-1232.3 L-73.4,-1232.9 L-70.1,-1239.6 L-66.6,-1247.1 L-59.0,-1262.5 L-63.5,-1267.6 L-67.3,-1259.7 L-70.5,-1252.8 L-71.0,-1251.9 L-71.9,-1249.8 L-73.9,-1250.0 L-74.5,-1250.0 L-74.7,-1249.9 L-74.4,-1249.6 L-75.4,-1248.7 L-76.2,-1248.0 L-76.4,-1244.8 L-76.7,-1244.1 L-77.7,-1244.2 L-77.8,-1244.2 L-90.6,-1249.5 L-90.9,-1249.7 L-91.2,-1249.9 L-91.6,-1250.2 L-92.0,-1250.5 L-92.3,-1250.9 L-92.6,-1251.3 L-92.8,-1251.6 L-93.0,-1252.0 L-93.1,-1252.4 L-93.2,-1252.6 L-93.3,-1252.9 L-93.3,-1253.3 L-93.4,-1253.8 L-93.4,-1254.6 L-93.5,-1257.0 L-93.1,-1257.1 L-93.2,-1258.4 L-93.2,-1260.5 L-92.9,-1260.5 L-92.9,-1262.0 L-93.3,-1262.0 L-93.5,-1268.2 L-93.1,-1268.2 L-93.2,-1269.7 L-93.5,-1269.7 L-93.6,-1274.3 L-92.0,-1276.1 L-89.8,-1276.2 L-88.2,-1276.2 L-86.1,-1276.3 L-84.0,-1276.4 L-82.2,-1276.4 L-81.4,-1276.5 L-81.5,-1277.2 L-81.5,-1277.9 L-81.6,-1280.3 L-81.6,-1284.9 L-81.7,-1284.9 L-81.7,-1285.4 L-81.6,-1285.4 L-81.9,-1296.4 L-82.2,-1306.8 L-82.2,-1307.1 L-82.2,-1307.7 L-86.8,-1307.5 L-89.8,-1307.8 L-112.2,-1307.0 L-112.2,-1307.2 L-112.3,-1308.2 L-122.9,-1307.8 L-122.9,-1309.5 L-124.3,-1309.9 L-124.6,-1317.4 L-83.2,-1318.9 L-82.5,-1319.8 L-82.5,-1322.5 L-82.6,-1324.8 L-82.6,-1326.3 L-82.6,-1327.7 L-85.9,-1329.3 L-86.1,-1332.7 L-82.7,-1334.4 L-83.0,-1342.3 L-83.1,-1342.7 L-86.4,-1344.3 L-86.5,-1348.6 L-83.4,-1350.2 L-84.8,-1367.5 L-84.4,-1375.2 L-84.2,-1387.8 L-84.2,-1401.4 L-83.9,-1403.3 L-83.9,-1404.3 L-84.2,-1405.4 L-83.9,-1405.4 L-83.9,-1406.4 L-83.7,-1432.1 L-83.7,-1433.2 L-84.1,-1433.2 L-84.1,-1437.9 L-84.3,-1438.2 L-84.6,-1443.1 L-84.0,-1447.6 L-84.1,-1453.0 L-84.3,-1454.3 L-83.9,-1458.2 L-84.2,-1463.1 L-84.7,-1468.3 L-85.8,-1476.6 L-85.3,-1478.9 L-85.5,-1481.2 L-87.4,-1482.8 L-90.2,-1482.8 L-94.5,-1482.2 L-97.3,-1482.2 L-99.8,-1483.1 L-103.1,-1485.4 L-103.1,-1489.5 L-103.2,-1494.5 L-102.9,-1498.7 L-101.8,-1502.0 L-83.4,-1502.3 L-83.0,-1528.4 L-83.0,-1566.0 L-83.2,-1579.7 L911.4,-1990.4 L911.4,273.2 L-320.7,273.2 L-320.7,-850.9 Z" fill="#add7e1" stroke="none"><title>Biscayne Bay</title></path><path d="M220.1,179.2 L240.0,179.4 L240.0,182.2 L220.5,181.8 L220.1,179.2 Z" fill="#e8ecec" stroke="#d7d1c5" stroke-width="0.3"></path><path d="M265.9,125.2 L267.9,147.5 L246.1,178.5 L265.9,125.2 Z" fill="#e8ecec" stroke="#d7d1c5" stroke-width="0.3"></path><path d="M248.9,40.9 L256.5,64.0 L248.9,40.9 Z" fill="#e8ecec" stroke="#d7d1c5" stroke-width="0.3"></path><path d="M-1.0,-1.0 L257.0,-1.0 L257.0,257.0 L-1.0,257.0 L-1.0,-1.0 Z M257.0,-1.0 L94.2,-1.0 L95.0,-0.4 L97.3,1.0 L100.3,2.6 L104.0,5.1 L107.1,7.8 L112.2,11.0 L114.3,12.5 L116.3,14.1 L118.5,16.5 L120.4,18.7 L122.2,21.7 L123.0,23.1 L125.4,26.9 L127.8,30.4 L129.9,32.9 L137.7,40.4 L149.1,51.7 L151.2,53.8 L152.7,54.2 L154.2,53.4 L155.6,51.8 L156.8,50.6 L160.2,48.2 L164.0,46.7 L167.7,45.9 L171.9,45.8 L174.7,45.8 L177.9,46.8 L181.6,48.2 L184.1,50.1 L186.0,52.1 L189.9,55.6 L196.8,63.6 L197.3,65.2 L197.8,66.9 L198.0,69.1 L197.7,71.0 L196.4,72.6 L195.0,73.5 L194.2,73.9 L193.4,74.2 L192.5,74.5 L191.6,74.5 L190.6,74.5 L189.6,74.3 L188.7,74.0 L187.8,73.6 L187.1,73.2 L186.4,72.4 L184.6,70.6 L182.9,68.6 L181.5,67.0 L180.8,66.4 L180.2,66.0 L179.3,65.8 L178.4,66.2 L177.6,66.3 L176.3,66.4 L175.1,66.1 L173.9,65.5 L172.8,64.6 L171.0,62.5 L168.6,59.9 L166.9,58.0 L165.3,56.3 L163.8,55.7 L162.0,55.6 L160.8,56.2 L159.3,57.5 L158.4,58.6 L158.1,59.8 L158.4,61.3 L164.8,68.4 L173.6,77.4 L178.8,83.3 L181.9,87.3 L183.1,90.6 L184.5,95.7 L188.1,108.6 L192.7,123.9 L197.0,134.6 L205.2,154.3 L211.8,173.2 L216.0,186.9 L220.0,195.4 L224.5,200.7 L227.2,202.3 L230.0,203.5 L234.1,204.0 L237.6,203.6 L241.2,202.4 L246.7,199.6 L253.5,194.9 L257.0,191.8 L257.0,-1.0 Z" fill="#add7e1" stroke="none" fill-rule="evenodd"><title>Biscayne Bay</title></path><path d="M-824.6,-373.2 L-579.9,-347.3 L-277.0,-230.9 L-67.3,-75.8 L2.6,195.7 L-137.2,273.2 L-789.7,273.2 L-929.5,-62.9 Z" fill="#add7e1" stroke="none"><title>Biscayne Bay</title></path><path d="M154.1,-71.9 L258.9,-60.3 L310.2,-21.5 L332.3,59.9 L309.0,144.0 L253.1,208.6 L161.0,212.5 L105.1,131.0 L109.8,27.6 L128.4,-37.0 Z" fill="#d5f2cb" stroke="#9fcf91" stroke-width="0.65"><title>Bill Baggs Cape Florida State Park</title></path><path d="M149.1,51.7 L164.0,46.7 L186.0,52.1 L196.4,72.6 L189.6,74.3 L181.5,67.0 L175.1,66.1 L163.8,55.7 L164.8,68.4 L192.7,123.9 L227.2,202.3 L259.6,189.6" fill="none" stroke="#79bdd0" stroke-width="1.4" stroke-linecap="round" stroke-linejoin="round"></path><path d="M123.0,23.1 L125.4,26.9 L127.8,30.4 L129.9,32.9 L137.7,40.4 L149.1,51.7" fill="none" stroke="#79bdd0" stroke-width="1.4" stroke-linecap="round" stroke-linejoin="round"></path><path d="M122.2,21.7 L123.0,23.1" fill="none" stroke="#79bdd0" stroke-width="1.4" stroke-linecap="round" stroke-linejoin="round"></path><path d="M98.1,-4.5 L95.0,-0.4 L116.3,14.1 L122.2,21.7" fill="none" stroke="#79bdd0" stroke-width="1.4" stroke-linecap="round" stroke-linejoin="round"></path><path d="M231.6,109.6 L231.9,114.2 L232.2,115.2 L233.5,116.8" fill="none" stroke="#cec8bb" stroke-width="2.8" stroke-linecap="round" stroke-linejoin="round"/><path d="M231.6,109.6 L231.9,114.2 L232.2,115.2 L233.5,116.8" fill="none" stroke="#ffffff" stroke-width="1.7" stroke-linecap="round" stroke-linejoin="round"></path><path d="M267.8,124.0 L241.9,178.2 L219.7,178.7" fill="none" stroke="#cec8bb" stroke-width="2.8" stroke-linecap="round" stroke-linejoin="round"/><path d="M267.8,124.0 L241.9,178.2 L219.7,178.7" fill="none" stroke="#ffffff" stroke-width="1.7" stroke-linecap="round" stroke-linejoin="round"><title>Cape Florida Park Boulevard</title></path><path d="M229.7,-29.2 L237.7,-18.5 L242.0,-2.0 L241.8,6.1" fill="none" stroke="#cec8bb" stroke-width="2.8" stroke-linecap="round" stroke-linejoin="round"/><path d="M229.7,-29.2 L237.7,-18.5 L242.0,-2.0 L241.8,6.1" fill="none" stroke="#ffffff" stroke-width="1.7" stroke-linecap="round" stroke-linejoin="round"><title>Crandon Boulevard</title></path><path d="M242.2,38.5 L260.5,101.9 L267.8,124.0" fill="none" stroke="#cec8bb" stroke-width="2.8" stroke-linecap="round" stroke-linejoin="round"/><path d="M242.2,38.5 L260.5,101.9 L267.8,124.0" fill="none" stroke="#ffffff" stroke-width="1.7" stroke-linecap="round" stroke-linejoin="round"><title>Crandon Boulevard</title></path><path d="M239.1,24.7 L239.2,27.4 L241.2,35.8 L242.2,38.5" fill="none" stroke="#cec8bb" stroke-width="2.8" stroke-linecap="round" stroke-linejoin="round"/><path d="M239.1,24.7 L239.2,27.4 L241.2,35.8 L242.2,38.5" fill="none" stroke="#ffffff" stroke-width="1.7" stroke-linecap="round" stroke-linejoin="round"><title>Crandon Boulevard</title></path><path d="M239.1,22.0 L241.6,22.0" fill="none" stroke="#cec8bb" stroke-width="2.8" stroke-linecap="round" stroke-linejoin="round"/><path d="M239.1,22.0 L241.6,22.0" fill="none" stroke="#ffffff" stroke-width="1.7" stroke-linecap="round" stroke-linejoin="round"><title>Crandon Boulevard</title></path><path d="M241.3,11.3 L240.6,13.2 L239.1,22.0 L239.1,24.7" fill="none" stroke="#cec8bb" stroke-width="2.8" stroke-linecap="round" stroke-linejoin="round"/><path d="M241.3,11.3 L240.6,13.2 L239.1,22.0 L239.1,24.7" fill="none" stroke="#ffffff" stroke-width="1.7" stroke-linecap="round" stroke-linejoin="round"><title>Crandon Boulevard</title></path><path d="M242.2,38.5 L242.3,35.8 L241.8,27.2 L241.6,22.0" fill="none" stroke="#cec8bb" stroke-width="2.8" stroke-linecap="round" stroke-linejoin="round"/><path d="M242.2,38.5 L242.3,35.8 L241.8,27.2 L241.6,22.0" fill="none" stroke="#ffffff" stroke-width="1.7" stroke-linecap="round" stroke-linejoin="round"><title>Crandon Boulevard</title></path><path d="M239.2,27.4 L241.8,27.2" fill="none" stroke="#cec8bb" stroke-width="2.8" stroke-linecap="round" stroke-linejoin="round"/><path d="M239.2,27.4 L241.8,27.2" fill="none" stroke="#ffffff" stroke-width="1.7" stroke-linecap="round" stroke-linejoin="round"><title>Crandon Boulevard</title></path><path d="M241.6,22.0 L241.6,13.2 L241.3,11.3" fill="none" stroke="#cec8bb" stroke-width="2.8" stroke-linecap="round" stroke-linejoin="round"/><path d="M241.6,22.0 L241.6,13.2 L241.3,11.3" fill="none" stroke="#ffffff" stroke-width="1.7" stroke-linecap="round" stroke-linejoin="round"><title>Crandon Boulevard</title></path><path d="M233.5,116.8 L258.6,117.1" fill="none" stroke="#cec8bb" stroke-width="2.8" stroke-linecap="round" stroke-linejoin="round"/><path d="M233.5,116.8 L258.6,117.1" fill="none" stroke="#ffffff" stroke-width="1.7" stroke-linecap="round" stroke-linejoin="round"></path><path d="M241.8,6.1 L242.6,-8.0 L233.9,-26.6 L230.9,-30.3" fill="none" stroke="#cec8bb" stroke-width="2.8" stroke-linecap="round" stroke-linejoin="round"/><path d="M241.8,6.1 L242.6,-8.0 L233.9,-26.6 L230.9,-30.3" fill="none" stroke="#ffffff" stroke-width="1.7" stroke-linecap="round" stroke-linejoin="round"><title>Crandon Boulevard</title></path><path d="M241.8,6.1 L241.3,11.3" fill="none" stroke="#cec8bb" stroke-width="2.8" stroke-linecap="round" stroke-linejoin="round"/><path d="M241.8,6.1 L241.3,11.3" fill="none" stroke="#ffffff" stroke-width="1.7" stroke-linecap="round" stroke-linejoin="round"><title>Crandon Boulevard</title></path><path d="M219.7,178.7 L203.8,142.5 L191.7,106.8 L199.5,72.4 L201.5,64.1" fill="none" stroke="#8fb58e" stroke-width="1.0" opacity="0.58" stroke-linecap="round" stroke-linejoin="round"></path><path d="M235.2,-21.9 L241.1,-7.7 L240.7,2.6 L235.9,17.7 L236.2,28.5 L241.6,58.6 L242.2,64.6" fill="none" stroke="#8fb58e" stroke-width="1.0" opacity="0.58" stroke-linecap="round" stroke-linejoin="round"></path><path d="M201.5,64.1 L222.7,64.6 L245.7,61.1" fill="none" stroke="#8fb58e" stroke-width="1.0" opacity="0.58" stroke-linecap="round" stroke-linejoin="round"></path><text x="168.4" y="90.4" text-anchor="middle" font-family="Arial, sans-serif" font-size="7.5" font-weight="600" paint-order="stroke" stroke="#edf6e8" stroke-width="1.9" stroke-linejoin="round" fill="#4f7d54" textLength="163.2" lengthAdjust="spacing">Bill Baggs Cape Florida State Park</text></svg>