<svg xmlns="http://www.w3.org/2000/svg" width="256" height="256" viewBox="0 0 256 256"><rect width="256" height="256" fill="#f1efe7"/><path d="M-18442.7,11730.3 L-18227.9,11641.0 L-18160.7,11608.7 L-17860.2,11464.4 L-17803.8,11519.0 L-17798.9,11523.7 L-17693.5,11433.5 L-17668.4,11414.4 L-17626.5,11376.6 L-17390.4,11159.8 L-17199.9,10942.2 L-17192.6,10928.3 L-17185.6,10920.4 L-17174.5,10907.7 L-17163.2,10894.8 L-17158.6,10889.5 L-17233.7,10792.4 L-17134.3,10732.8 L-17080.4,10804.5 L-17004.2,10717.3 L-17068.7,10631.9 L-16988.8,10548.6 L-16927.3,10629.6 L-16856.7,10549.2 L-16826.6,10529.5 L-16679.4,10434.0 L-16606.7,10385.7 L-16519.1,10328.1 L-16477.7,10300.9 L-16372.8,10233.2 L-16399.8,10197.7 L-16448.1,10133.0 L-16323.2,10053.6 L-16277.7,10030.1 L-16274.2,10027.6 L-16250.2,10009.1 L-16164.6,9963.3 L-16158.7,9954.1 L-16134.7,9937.6 L-16121.7,9918.6 L-16118.0,9915.8 L-16097.1,9907.7 L-16049.9,9890.8 L-16017.6,9876.6 L-15903.5,9823.0 L-15902.1,9826.7 L-15806.4,9785.8 L-15767.3,9835.9 L-15680.2,9777.8 L-15667.8,9769.3 L-15666.6,9768.3 L-15665.4,9766.7 L-15663.5,9763.4 L-15662.5,9760.3 L-15661.9,9756.6 L-15662.0,9753.6 L-15662.4,9750.7 L-15662.8,9747.4 L-15662.9,9744.9 L-15662.7,9742.8 L-15662.3,9740.6 L-15660.7,9736.6 L-15659.6,9734.4 L-15657.1,9730.6 L-15654.5,9727.8 L-15641.8,9722.7 L-15631.2,9718.7 L-15617.7,9714.3 L-15611.4,9712.6 L-15600.2,9708.9 L-15592.3,9706.1 L-15581.4,9701.6 L-15566.6,9695.1 L-15550.6,9687.6 L-15542.0,9683.4 L-15531.2,9677.9 L-15521.1,9672.3 L-15511.0,9666.3 L-15500.7,9659.6 L-15497.5,9657.4 L-15476.8,9641.6 L-15459.4,9628.2 L-15442.4,9613.8 L-15426.5,9598.8 L-15415.0,9585.9 L-15403.6,9572.0 L-15389.6,9554.0 L-15376.8,9536.0 L-15362.1,9512.9 L-15352.5,9495.0 L-15346.5,9483.6 L-15337.6,9464.3 L-15330.1,9446.4 L-15323.4,9427.1 L-15318.0,9410.2 L-15312.1,9382.8 L-15307.8,9358.3 L-15305.5,9337.3 L-15303.5,9312.5 L-15303.3,9286.0 L-15304.9,9261.5 L-15309.1,9229.5 L-15313.5,9207.7 L-15318.5,9187.1 L-15325.9,9163.7 L-15332.2,9145.8 L-15339.4,9126.3 L-15346.2,9110.1 L-15350.8,9099.6 L-15352.7,9091.9 L-15353.0,9086.0 L-15352.4,9080.7 L-15350.3,9076.1 L-15347.1,9072.2 L-15342.9,9070.0 L-15338.4,9069.4 L-15326.3,9072.3 L-15292.6,9080.4 L-15281.4,8825.7 L-15237.7,8371.1 L-15285.2,8359.9 L-15290.4,8345.6 L-15290.2,8325.1 L-15283.6,8278.6 L-15274.6,8268.1 L-15266.6,8237.9 L-15216.1,8249.6 L-15188.3,7959.1 L-15180.6,7878.7 L-15196.3,7874.8 L-15186.8,7836.4 L-15219.1,7828.7 L-15215.0,7805.2 L-15209.3,7789.7 L-15202.2,7771.6 L-15190.2,7746.3 L-15177.3,7749.2 L-15159.9,7566.5 L-15155.8,7455.7 L-15155.0,7435.3 L-15145.6,7364.8 L-15126.9,7189.1 L-15002.1,6863.7 L-14973.6,6775.0 L-14626.9,6642.0 L-14593.0,6628.4 L-14587.1,6625.2 L-14582.5,6621.0 L-14577.4,6615.1 L-14573.5,6608.2 L-14570.9,6601.4 L-14570.3,6591.5 L-14570.8,6579.2 L-14575.4,6423.7 L-14577.1,6393.6 L-14577.6,6372.9 L-14578.3,6332.7 L-14579.1,6320.1 L-14580.6,6309.5 L-14582.7,6300.1 L-14585.8,6290.5 L-14590.7,6279.2 L-14597.9,6267.1 L-14604.9,6257.5 L-14610.3,6248.4 L-14615.8,6236.3 L-14620.4,6224.7 L-14622.2,6215.2 L-14623.6,6204.7 L-14624.3,6194.2 L-14624.0,6184.0 L-14622.8,6172.1 L-14620.0,6160.4 L-14616.3,6150.0 L-14612.4,6140.5 L-14607.4,6131.3 L-14601.3,6120.1 L-14597.3,6110.0 L-14593.8,6097.1 L-14587.4,6087.3 L-14589.6,5998.1 L-14592.9,5992.9 L-14593.9,5932.3 L-14595.6,5860.8 L-14594.4,5850.9 L-14591.2,5840.8 L-14583.2,5825.0 L-14529.7,5709.9 L-14528.6,5708.0 L-14519.2,5687.5 L-14510.3,5668.1 L-14500.3,5648.1 L-14490.5,5627.5 L-14485.7,5617.5 L-14433.1,5509.6 L-14376.9,5390.4 L-14255.3,5143.6 L-14328.4,5061.7 L-14388.0,5188.7 L-14439.5,5298.6 L-14447.3,5314.2 L-14463.2,5346.7 L-14495.0,5344.0 L-14503.7,5343.5 L-14506.8,5346.3 L-14502.6,5350.1 L-14518.9,5364.6 L-14531.8,5376.5 L-14534.2,5427.4 L-14539.0,5437.6 L-14554.6,5437.0 L-14557.2,5436.1 L-14761.6,5351.7 L-14766.0,5349.4 L-14770.7,5346.4 L-14778.1,5340.8 L-14783.8,5335.4 L-14788.6,5330.2 L-14793.3,5323.8 L-14796.9,5318.2 L-14799.7,5312.4 L-14801.9,5306.3 L-14803.4,5302.1 L-14804.5,5297.0 L-14805.3,5291.0 L-14806.1,5282.8 L-14806.1,5271.1 L-14807.5,5231.4 L-14801.9,5231.1 L-14802.7,5210.1 L-14803.6,5175.5 L-14798.4,5175.4 L-14798.8,5151.8 L-14804.7,5151.9 L-14807.4,5052.5 L-14801.8,5052.2 L-14802.7,5028.9 L-14808.1,5029.1 L-14810.4,4955.6 L-14783.4,4926.5 L-14748.9,4925.3 L-14723.2,4924.4 L-14689.3,4923.3 L-14656.7,4922.3 L-14627.5,4921.3 L-14614.8,4920.7 L-14615.4,4909.4 L-14615.6,4897.6 L-14617.5,4859.3 L-14618.2,4786.2 L-14619.2,4784.9 L-14619.4,4777.7 L-14617.3,4777.6 L-14622.4,4601.5 L-14626.8,4435.8 L-14627.5,4430.6 L-14627.9,4421.0 L-14700.1,4423.6 L-14748.1,4419.5 L-15107.4,4432.0 L-15107.5,4428.8 L-15108.2,4413.5 L-15278.6,4419.5 L-15278.9,4391.2 L-15301.4,4386.1 L-15305.4,4265.0 L-14642.6,4242.0 L-14631.6,4226.9 L-14632.0,4183.9 L-14632.8,4146.7 L-14633.4,4123.4 L-14634.3,4100.7 L-14687.0,4075.9 L-14689.1,4020.8 L-14635.1,3994.0 L-14640.0,3866.5 L-14641.4,3860.2 L-14695.1,3835.1 L-14696.8,3766.9 L-14645.8,3740.6 L-14668.5,3463.7 L-14662.5,3340.5 L-14659.5,3139.6 L-14659.7,2921.1 L-14654.9,2890.5 L-14654.6,2875.7 L-14659.4,2857.9 L-14654.4,2857.9 L-14654.4,2841.8 L-14651.4,2430.8 L-14651.9,2412.5 L-14657.6,2412.5 L-14657.4,2336.9 L-14660.7,2332.2 L-14665.9,2254.2 L-14655.6,2182.9 L-14656.9,2096.6 L-14660.4,2075.9 L-14655.1,2012.0 L-14658.7,1934.7 L-14667.7,1852.0 L-14684.8,1718.0 L-14676.7,1681.1 L-14680.3,1645.2 L-14710.9,1619.1 L-14755.8,1619.5 L-14824.2,1628.5 L-14868.7,1628.5 L-14909.1,1613.7 L-14962.2,1577.3 L-14962.2,1512.0 L-14963.6,1431.7 L-14958.4,1364.8 L-14940.8,1312.6 L-14646.1,1307.1 L-14639.3,889.2 L-14639.3,287.6 L-14642.4,69.3 L1269.8,-6502.4 L1269.8,29715.8 L-18442.7,29715.8 L-18442.7,11730.3 Z" fill="#add7e1" stroke="none"><title>Biscayne Bay</title></path></svg>