<svg xmlns="http://www.w3.org/2000/svg" width="256" height="256" viewBox="0 0 256 256"><rect width="256" height="256" fill="#f1efe7"/><path d="M-18442.7,-13357.7 L-18227.9,-13447.0 L-18160.7,-13479.3 L-17860.2,-13623.6 L-17803.8,-13569.0 L-17798.9,-13564.3 L-17693.5,-13654.5 L-17668.4,-13673.6 L-17626.5,-13711.4 L-17390.4,-13928.2 L-17199.9,-14145.8 L-17192.6,-14159.7 L-17185.6,-14167.6 L-17174.5,-14180.3 L-17163.2,-14193.2 L-17158.6,-14198.5 L-17233.7,-14295.6 L-17134.3,-14355.2 L-17080.4,-14283.5 L-17004.2,-14370.7 L-17068.7,-14456.1 L-16988.8,-14539.4 L-16927.3,-14458.4 L-16856.7,-14538.8 L-16826.6,-14558.5 L-16679.4,-14654.0 L-16606.7,-14702.3 L-16519.1,-14759.9 L-16477.7,-14787.1 L-16372.8,-14854.8 L-16399.8,-14890.3 L-16448.1,-14955.0 L-16323.2,-15034.4 L-16277.7,-15057.9 L-16274.2,-15060.4 L-16250.2,-15078.9 L-16164.6,-15124.7 L-16158.7,-15133.9 L-16134.7,-15150.4 L-16121.7,-15169.4 L-16118.0,-15172.2 L-16097.1,-15180.3 L-16049.9,-15197.2 L-16017.6,-15211.4 L-15903.5,-15265.0 L-15902.1,-15261.3 L-15806.4,-15302.2 L-15767.3,-15252.1 L-15680.2,-15310.2 L-15667.8,-15318.7 L-15666.6,-15319.7 L-15665.4,-15321.3 L-15663.5,-15324.6 L-15662.5,-15327.7 L-15661.9,-15331.4 L-15662.0,-15334.4 L-15662.4,-15337.3 L-15662.8,-15340.6 L-15662.9,-15343.1 L-15662.7,-15345.2 L-15662.3,-15347.4 L-15660.7,-15351.4 L-15659.6,-15353.6 L-15657.1,-15357.4 L-15654.5,-15360.2 L-15641.8,-15365.3 L-15631.2,-15369.3 L-15617.7,-15373.7 L-15611.4,-15375.4 L-15600.2,-15379.1 L-15592.3,-15381.9 L-15581.4,-15386.4 L-15566.6,-15392.9 L-15550.6,-15400.4 L-15542.0,-15404.6 L-15531.2,-15410.1 L-15521.1,-15415.7 L-15511.0,-15421.7 L-15500.7,-15428.4 L-15497.5,-15430.6 L-15476.8,-15446.4 L-15459.4,-15459.8 L-15442.4,-15474.2 L-15426.5,-15489.2 L-15415.0,-15502.1 L-15403.6,-15516.0 L-15389.6,-15534.0 L-15376.8,-15552.0 L-15362.1,-15575.1 L-15352.5,-15593.0 L-15346.5,-15604.4 L-15337.6,-15623.7 L-15330.1,-15641.6 L-15323.4,-15660.9 L-15318.0,-15677.8 L-15312.1,-15705.2 L-15307.8,-15729.7 L-15305.5,-15750.7 L-15303.5,-15775.5 L-15303.3,-15802.0 L-15304.9,-15826.5 L-15309.1,-15858.5 L-15313.5,-15880.3 L-15318.5,-15900.9 L-15325.9,-15924.3 L-15332.2,-15942.2 L-15339.4,-15961.7 L-15346.2,-15977.9 L-15350.8,-15988.4 L-15352.7,-15996.1 L-15353.0,-16002.0 L-15352.4,-16007.3 L-15350.3,-16011.9 L-15347.1,-16015.8 L-15342.9,-16018.0 L-15338.4,-16018.6 L-15326.3,-16015.7 L-15292.6,-16007.6 L-15281.4,-16262.3 L-15237.7,-16716.9 L-15285.2,-16728.1 L-15290.4,-16742.4 L-15290.2,-16762.9 L-15283.6,-16809.4 L-15274.6,-16819.9 L-15266.6,-16850.1 L-15216.1,-16838.4 L-15188.3,-17128.9 L-15180.6,-17209.3 L-15196.3,-17213.2 L-15186.8,-17251.6 L-15219.1,-17259.3 L-15215.0,-17282.8 L-15209.3,-17298.3 L-15202.2,-17316.4 L-15190.2,-17341.7 L-15177.3,-17338.8 L-15159.9,-17521.5 L-15155.8,-17632.3 L-15155.0,-17652.7 L-15145.6,-17723.2 L-15126.9,-17898.9 L-15002.1,-18224.3 L-14973.6,-18313.0 L-14626.9,-18446.0 L-14593.0,-18459.6 L-14587.1,-18462.8 L-14582.5,-18467.0 L-14577.4,-18472.9 L-14573.5,-18479.8 L-14570.9,-18486.6 L-14570.3,-18496.5 L-14570.8,-18508.8 L-14575.4,-18664.3 L-14577.1,-18694.4 L-14577.6,-18715.1 L-14578.3,-18755.3 L-14579.1,-18767.9 L-14580.6,-18778.5 L-14582.7,-18787.9 L-14585.8,-18797.5 L-14590.7,-18808.8 L-14597.9,-18820.9 L-14604.9,-18830.5 L-14610.3,-18839.6 L-14615.8,-18851.7 L-14620.4,-18863.3 L-14622.2,-18872.8 L-14623.6,-18883.3 L-14624.3,-18893.8 L-14624.0,-18904.0 L-14622.8,-18915.9 L-14620.0,-18927.6 L-14616.3,-18938.0 L-14612.4,-18947.5 L-14607.4,-18956.7 L-14601.3,-18967.9 L-14597.3,-18978.0 L-14593.8,-18990.9 L-14587.4,-19000.7 L-14589.6,-19089.9 L-14592.9,-19095.1 L-14593.9,-19155.7 L-14595.6,-19227.2 L-14594.4,-19237.1 L-14591.2,-19247.2 L-14583.2,-19263.0 L-14529.7,-19378.1 L-14528.6,-19380.0 L-14519.2,-19400.5 L-14510.3,-19419.9 L-14500.3,-19439.9 L-14490.5,-19460.5 L-14485.7,-19470.5 L-14433.1,-19578.4 L-14376.9,-19697.6 L-14255.3,-19944.4 L-14328.4,-20026.3 L-14388.0,-19899.3 L-14439.5,-19789.4 L-14447.3,-19773.8 L-14463.2,-19741.3 L-14495.0,-19744.0 L-14503.7,-19744.5 L-14506.8,-19741.7 L-14502.6,-19737.9 L-14518.9,-19723.4 L-14531.8,-19711.5 L-14534.2,-19660.6 L-14539.0,-19650.4 L-14554.6,-19651.0 L-14557.2,-19651.9 L-14761.6,-19736.3 L-14766.0,-19738.6 L-14770.7,-19741.6 L-14778.1,-19747.2 L-14783.8,-19752.6 L-14788.6,-19757.8 L-14793.3,-19764.2 L-14796.9,-19769.8 L-14799.7,-19775.6 L-14801.9,-19781.7 L-14803.4,-19785.9 L-14804.5,-19791.0 L-14805.3,-19797.0 L-14806.1,-19805.2 L-14806.1,-19816.9 L-14807.5,-19856.6 L-14801.9,-19856.9 L-14802.7,-19877.9 L-14803.6,-19912.5 L-14798.4,-19912.6 L-14798.8,-19936.2 L-14804.7,-19936.1 L-14807.4,-20035.5 L-14801.8,-20035.8 L-14802.7,-20059.1 L-14808.1,-20058.9 L-14810.4,-20132.4 L-14783.4,-20161.5 L-14748.9,-20162.7 L-14723.2,-20163.6 L-14689.3,-20164.7 L-14656.7,-20165.7 L-14627.5,-20166.7 L-14614.8,-20167.3 L-14615.4,-20178.6 L-14615.6,-20190.4 L-14617.5,-20228.7 L-14618.2,-20301.8 L-14619.2,-20303.1 L-14619.4,-20310.3 L-14617.3,-20310.4 L-14622.4,-20486.5 L-14626.8,-20652.2 L-14627.5,-20657.4 L-14627.9,-20667.0 L-14700.1,-20664.4 L-14748.1,-20668.5 L-15107.4,-20656.0 L-15107.5,-20659.2 L-15108.2,-20674.5 L-15278.6,-20668.5 L-15278.9,-20696.8 L-15301.4,-20701.9 L-15305.4,-20823.0 L-14642.6,-20846.0 L-14631.6,-20861.1 L-14632.0,-20904.1 L-14632.8,-20941.3 L-14633.4,-20964.6 L-14634.3,-20987.3 L-14687.0,-21012.1 L-14689.1,-21067.2 L-14635.1,-21094.0 L-14640.0,-21221.5 L-14641.4,-21227.8 L-14695.1,-21252.9 L-14696.8,-21321.1 L-14645.8,-21347.4 L-14668.5,-21624.3 L-14662.5,-21747.5 L-14659.5,-21948.4 L-14659.7,-22166.9 L-14654.9,-22197.5 L-14654.6,-22212.3 L-14659.4,-22230.1 L-14654.4,-22230.1 L-14654.4,-22246.2 L-14651.4,-22657.2 L-14651.9,-22675.5 L-14657.6,-22675.5 L-14657.4,-22751.1 L-14660.7,-22755.8 L-14665.9,-22833.8 L-14655.6,-22905.1 L-14656.9,-22991.4 L-14660.4,-23012.1 L-14655.1,-23076.0 L-14658.7,-23153.3 L-14667.7,-23236.0 L-14684.8,-23370.0 L-14676.7,-23406.9 L-14680.3,-23442.8 L-14710.9,-23468.9 L-14755.8,-23468.5 L-14824.2,-23459.5 L-14868.7,-23459.5 L-14909.1,-23474.3 L-14962.2,-23510.7 L-14962.2,-23576.0 L-14963.6,-23656.3 L-14958.4,-23723.2 L-14940.8,-23775.4 L-14646.1,-23780.9 L-14639.3,-24198.8 L-14639.3,-24800.4 L-14642.4,-25018.7 L1269.8,-31590.4 L1269.8,4627.8 L-18442.7,4627.8 L-18442.7,-13357.7 Z" fill="#add7e1" stroke="none"><title>Biscayne Bay</title></path></svg>