<svg xmlns="http://www.w3.org/2000/svg" width="256" height="256" viewBox="0 0 256 256"><rect width="256" height="256" fill="#f1efe7"/><path d="M-2053.4,-2710.9 L-1946.0,-2755.5 L-1912.4,-2771.6 L-1762.1,-2843.8 L-1733.9,-2816.5 L-1731.4,-2814.2 L-1678.8,-2859.2 L-1666.2,-2868.8 L-1645.3,-2887.7 L-1527.2,-2996.1 L-1431.9,-3104.9 L-1428.3,-3111.8 L-1424.8,-3115.8 L-1419.2,-3122.1 L-1413.6,-3128.6 L-1411.3,-3131.3 L-1448.9,-3179.8 L-1399.2,-3209.6 L-1372.2,-3173.7 L-1334.1,-3217.3 L-1366.4,-3260.1 L-1326.4,-3301.7 L-1295.7,-3261.2 L-1260.3,-3301.4 L-1245.3,-3311.2 L-1171.7,-3359.0 L-1135.3,-3383.1 L-1091.5,-3412.0 L-1070.8,-3425.5 L-1018.4,-3459.4 L-1031.9,-3477.2 L-1056.1,-3509.5 L-993.6,-3549.2 L-970.8,-3561.0 L-969.1,-3562.2 L-957.1,-3571.5 L-914.3,-3594.3 L-911.3,-3599.0 L-899.3,-3607.2 L-892.8,-3616.7 L-891.0,-3618.1 L-880.6,-3622.1 L-856.9,-3630.6 L-840.8,-3637.7 L-783.7,-3664.5 L-783.0,-3662.6 L-735.2,-3683.1 L-715.7,-3658.0 L-672.1,-3687.1 L-665.9,-3691.3 L-665.3,-3691.8 L-664.7,-3692.6 L-663.8,-3694.3 L-663.2,-3695.8 L-663.0,-3697.7 L-663.0,-3699.2 L-663.2,-3700.6 L-663.4,-3702.3 L-663.5,-3703.5 L-663.4,-3704.6 L-663.1,-3705.7 L-662.3,-3707.7 L-661.8,-3708.8 L-660.6,-3710.7 L-659.2,-3712.1 L-652.9,-3714.7 L-647.6,-3716.6 L-640.8,-3718.8 L-637.7,-3719.7 L-632.1,-3721.5 L-628.1,-3723.0 L-622.7,-3725.2 L-615.3,-3728.4 L-607.3,-3732.2 L-603.0,-3734.3 L-597.6,-3737.0 L-592.6,-3739.9 L-587.5,-3742.9 L-582.4,-3746.2 L-580.8,-3747.3 L-570.4,-3755.2 L-561.7,-3761.9 L-553.2,-3769.1 L-545.2,-3776.6 L-539.5,-3783.1 L-533.8,-3790.0 L-526.8,-3799.0 L-520.4,-3808.0 L-513.1,-3819.6 L-508.3,-3828.5 L-505.3,-3834.2 L-500.8,-3843.9 L-497.1,-3852.8 L-493.7,-3862.4 L-491.0,-3870.9 L-488.1,-3884.6 L-485.9,-3896.8 L-484.7,-3907.4 L-483.8,-3919.7 L-483.6,-3933.0 L-484.5,-3945.3 L-486.6,-3961.2 L-488.7,-3972.1 L-491.3,-3982.5 L-494.9,-3994.1 L-498.1,-4003.1 L-501.7,-4012.9 L-505.1,-4020.9 L-507.4,-4026.2 L-508.4,-4030.0 L-508.5,-4033.0 L-508.2,-4035.6 L-507.1,-4037.9 L-505.5,-4039.9 L-503.4,-4041.0 L-501.2,-4041.3 L-495.1,-4039.8 L-478.3,-4035.8 L-472.7,-4163.1 L-450.8,-4390.4 L-474.6,-4396.1 L-477.2,-4403.2 L-477.1,-4413.4 L-473.8,-4436.7 L-469.3,-4441.9 L-465.3,-4457.1 L-440.1,-4451.2 L-426.1,-4596.4 L-422.3,-4636.7 L-430.1,-4638.6 L-425.4,-4657.8 L-441.6,-4661.6 L-439.5,-4673.4 L-436.7,-4681.1 L-433.1,-4690.2 L-427.1,-4702.8 L-420.7,-4701.4 L-411.9,-4792.7 L-409.9,-4848.1 L-409.5,-4858.3 L-404.8,-4893.6 L-395.4,-4981.5 L-333.0,-5144.2 L-318.8,-5188.5 L-145.5,-5255.0 L-128.5,-5261.8 L-125.6,-5263.4 L-123.2,-5265.5 L-120.7,-5268.4 L-118.8,-5271.9 L-117.5,-5275.3 L-117.1,-5280.2 L-117.4,-5286.4 L-119.7,-5364.1 L-120.6,-5379.2 L-120.8,-5389.6 L-121.1,-5409.6 L-121.5,-5415.9 L-122.3,-5421.2 L-123.4,-5426.0 L-124.9,-5430.7 L-127.3,-5436.4 L-130.9,-5442.5 L-134.5,-5447.3 L-137.2,-5451.8 L-139.9,-5457.8 L-142.2,-5463.7 L-143.1,-5468.4 L-143.8,-5473.6 L-144.1,-5478.9 L-144.0,-5484.0 L-143.4,-5489.9 L-142.0,-5495.8 L-140.1,-5501.0 L-138.2,-5505.8 L-135.7,-5510.4 L-132.7,-5515.9 L-130.6,-5521.0 L-128.9,-5527.5 L-125.7,-5532.3 L-126.8,-5577.0 L-128.4,-5579.5 L-129.0,-5609.8 L-129.8,-5645.6 L-129.2,-5650.5 L-127.6,-5655.6 L-123.6,-5663.5 L-96.9,-5721.0 L-96.3,-5722.0 L-91.6,-5732.2 L-87.1,-5742.0 L-82.2,-5752.0 L-77.2,-5762.2 L-74.8,-5767.3 L-48.6,-5821.2 L-20.5,-5880.8 L40.4,-6004.2 L3.8,-6045.1 L-26.0,-5981.7 L-51.8,-5926.7 L-55.7,-5918.9 L-63.6,-5902.7 L-79.5,-5904.0 L-83.9,-5904.3 L-85.4,-5902.8 L-83.3,-5900.9 L-91.5,-5893.7 L-97.9,-5887.7 L-99.1,-5862.3 L-101.5,-5857.2 L-109.3,-5857.5 L-110.6,-5858.0 L-212.8,-5900.1 L-215.0,-5901.3 L-217.4,-5902.8 L-221.0,-5905.6 L-223.9,-5908.3 L-226.3,-5910.9 L-228.6,-5914.1 L-230.4,-5916.9 L-231.8,-5919.8 L-233.0,-5922.9 L-233.7,-5924.9 L-234.2,-5927.5 L-234.7,-5930.5 L-235.1,-5934.6 L-235.1,-5940.4 L-235.8,-5960.3 L-233.0,-5960.5 L-233.4,-5970.9 L-233.8,-5988.2 L-231.2,-5988.3 L-231.4,-6000.1 L-234.3,-6000.0 L-235.7,-6049.8 L-232.9,-6049.9 L-233.4,-6061.5 L-236.1,-6061.4 L-237.2,-6098.2 L-223.7,-6112.7 L-206.5,-6113.3 L-193.6,-6113.8 L-176.7,-6114.3 L-160.4,-6114.9 L-145.7,-6115.4 L-139.4,-6115.6 L-139.7,-6121.3 L-139.8,-6127.2 L-140.8,-6146.3 L-141.1,-6182.9 L-141.6,-6183.5 L-141.7,-6187.2 L-140.6,-6187.2 L-143.2,-6275.3 L-145.4,-6358.1 L-145.8,-6360.7 L-146.0,-6365.5 L-182.1,-6364.2 L-206.1,-6366.3 L-385.7,-6360.0 L-385.7,-6361.6 L-386.1,-6369.3 L-471.3,-6366.3 L-471.5,-6380.4 L-482.7,-6382.9 L-484.7,-6443.5 L-153.3,-6455.0 L-147.8,-6462.6 L-148.0,-6484.1 L-148.4,-6502.6 L-148.7,-6514.3 L-149.2,-6525.6 L-175.5,-6538.1 L-176.6,-6565.6 L-149.5,-6579.0 L-152.0,-6642.7 L-152.7,-6645.9 L-179.5,-6658.4 L-180.4,-6692.5 L-154.9,-6705.7 L-166.3,-6844.1 L-163.2,-6905.8 L-161.8,-7006.2 L-161.9,-7115.4 L-159.5,-7130.8 L-159.3,-7138.1 L-161.7,-7147.1 L-159.2,-7147.1 L-159.2,-7155.1 L-157.7,-7360.6 L-157.9,-7369.8 L-160.8,-7369.7 L-160.7,-7407.5 L-162.4,-7409.9 L-164.9,-7448.9 L-159.8,-7484.5 L-160.5,-7527.7 L-162.2,-7538.0 L-159.6,-7570.0 L-161.4,-7608.6 L-165.9,-7650.0 L-174.4,-7717.0 L-170.4,-7735.4 L-172.1,-7753.4 L-187.4,-7766.5 L-209.9,-7766.2 L-244.1,-7761.7 L-266.3,-7761.7 L-286.6,-7769.2 L-313.1,-7787.4 L-313.1,-7820.0 L-313.8,-7860.2 L-311.2,-7893.6 L-302.4,-7919.7 L-155.0,-7922.4 L-151.7,-8131.4 L-151.7,-8432.2 L-153.2,-8541.4 L7802.9,-11827.2 L7802.9,6281.9 L-2053.4,6281.9 L-2053.4,-2710.9 Z" fill="#add7e1" stroke="none"><title>Biscayne Bay</title></path><path d="M-5749.4,1931.7 L-6021.5,1730.9 L-6043.3,1714.9 L-6066.9,1709.8 L-6083.5,1695.7 L-6096.8,1694.2 L-6139.8,1697.1 L-6139.8,1693.0 L-6142.2,1689.2 L-6146.9,1686.3 L-6240.3,1645.8 L-6246.7,1642.9 L-6252.2,1641.3 L-6259.1,1640.7 L-6266.1,1640.6 L-6289.3,1640.6 L-6295.5,1640.2 L-6301.5,1639.1 L-6307.9,1636.6 L-6315.6,1634.5 L-6321.2,1634.0 L-6337.7,1633.3 L-6343.1,1632.3 L-6350.1,1630.1 L-6357.0,1628.3 L-6363.7,1626.7 L-6368.9,1624.7 L-6375.1,1620.8 L-6380.8,1616.6 L-6386.2,1612.5 L-6390.6,1610.3 L-6394.1,1609.7 L-6397.1,1609.8 L-6400.3,1610.8 L-6404.1,1612.7 L-6407.1,1616.0 L-6411.2,1620.0 L-6415.7,1624.1 L-6420.8,1626.9 L-6427.2,1629.0 L-6432.6,1630.3 L-6439.1,1631.3 L-6449.8,1632.6 L-6476.9,1633.8 L-6499.9,1635.0 L-6509.9,1638.5 L-6530.2,1639.2 L-6532.9,1635.0 L-6535.9,1633.1 L-6539.1,1632.4 L-6561.0,1633.7 L-6570.5,1637.1 L-6582.2,1637.2 L-6590.0,1636.1 L-6596.5,1634.1 L-6620.0,1635.5 L-6682.3,1640.3 L-6696.7,1640.8 L-6701.6,1640.7 L-6705.9,1639.5 L-6711.1,1637.0 L-6714.8,1634.0 L-6731.0,1634.1 L-6744.6,1633.9 L-6748.2,1636.1 L-6766.9,1636.5 L-6769.3,1640.5 L-6771.9,1640.6 L-6776.5,1639.5 L-6784.8,1638.5 L-6793.2,1638.9 L-6795.9,1639.8 L-6798.5,1639.3 L-6800.3,1637.5 L-6803.4,1635.8 L-6814.7,1635.8 L-6826.2,1636.5 L-6837.0,1642.8 L-6842.4,1645.4 L-6848.4,1646.7 L-6853.5,1647.1 L-6858.1,1646.4 L-6868.5,1641.9 L-6874.5,1640.0 L-6879.7,1639.3 L-6902.0,1639.6 L-6903.4,1636.9 L-6923.1,1637.3 L-6936.7,1639.8 L-6945.7,1640.8 L-6950.5,1641.9 L-6952.3,1640.6 L-6955.8,1640.2 L-6987.6,1637.3 L-6990.3,1638.8 L-6993.7,1639.5 L-6998.1,1639.5 L-6998.1,1637.9 L-7017.9,1634.3 L-7030.3,1631.9 L-7060.4,1621.7 L-7062.1,1624.0 L-7082.2,1617.8 L-7086.4,1616.4 L-7084.3,1609.4 L-7086.7,1608.6 L-7087.2,1607.9 L-7088.5,1607.5 L-7090.3,1607.2 L-7092.5,1606.2 L-7091.7,1605.5 L-7100.6,1598.2 L-7115.4,1584.8 L-7123.4,1577.9 L-7129.1,1571.7 L-7132.2,1567.6 L-7136.9,1561.1 L-7139.6,1556.2 L-7148.0,1545.6 L-7148.8,1545.1 L-7149.4,1545.0 L-7149.9,1545.1 L-7151.1,1545.1 L-7152.1,1544.7 L-7154.1,1543.3 L-7158.4,1541.0 L-7160.6,1539.3 L-7163.0,1537.1 L-7166.3,1535.3 L-7171.6,1533.6 L-7177.2,1532.7 L-7181.9,1532.5 L-7180.6,1520.0 L-7179.4,1503.5 L-7174.3,1504.0 L-7169.1,1504.9 L-7162.4,1506.9 L-7157.4,1508.7 L-7153.0,1510.8 L-7148.7,1512.8 L-7144.7,1515.1 L-7141.3,1517.6 L-7137.0,1521.1 L-7132.4,1524.5 L-7131.3,1525.1 L-7130.4,1525.4 L-7117.7,1524.8 L-7117.6,1527.6 L-7118.4,1528.9 L-7127.8,1529.8 L-7125.4,1534.7 L-7123.8,1534.1 L-7122.2,1535.6 L-7121.3,1537.1 L-7120.5,1538.1 L-7118.5,1540.7 L-7117.8,1543.6 L-7114.7,1547.8 L-7107.5,1552.4 L-7098.6,1556.9 L-7087.9,1563.6 L-7083.0,1565.9 L-7072.7,1571.8 L-7067.9,1574.3 L-7059.0,1577.6 L-7041.6,1582.3 L-7031.4,1584.7 L-7022.1,1585.7 L-7017.2,1586.3 L-7016.1,1586.2 L-7015.6,1585.6 L-7015.4,1582.3 L-7003.9,1582.2 L-7003.7,1586.0 L-6979.5,1587.2 L-6955.8,1587.9 L-6939.8,1587.3 L-6934.5,1586.9 L-6930.7,1586.4 L-6927.5,1585.5 L-6924.6,1583.8 L-6923.2,1581.4 L-6923.7,1542.7 L-6914.0,1542.1 L-6913.1,1579.9 L-6912.6,1580.9 L-6910.6,1582.2 L-6908.4,1582.9 L-6856.7,1582.9 L-6856.9,1566.3 L-6852.8,1566.2 L-6851.2,1582.9 L-6819.3,1582.7 L-6819.2,1580.9 L-6816.1,1580.8 L-6816.0,1582.1 L-6603.3,1578.1 L-6587.8,1576.2 L-6569.0,1575.7 L-6551.2,1578.0 L-6545.3,1577.5 L-6540.9,1576.7 L-6536.9,1575.2 L-6531.6,1573.3 L-6424.7,1571.3 L-6424.7,1564.0 L-6364.9,1562.9 L-6364.8,1571.1 L-6339.4,1571.9 L-6337.5,1571.9 L-6335.7,1571.8 L-6333.3,1571.4 L-6331.4,1570.9 L-6329.6,1570.4 L-6326.5,1568.9 L-6325.0,1571.4 L-6321.9,1569.4 L-6319.1,1567.1 L-6316.6,1564.6 L-6314.5,1561.6 L-6312.6,1558.0 L-6316.2,1556.0 L-6315.2,1552.9 L-6314.6,1549.7 L-6314.3,1546.7 L-6314.2,1544.4 L-6314.3,1542.2 L-6314.6,1523.2 L-6317.7,1520.5 L-6315.1,1517.7 L-6317.7,1515.4 L-6314.7,1511.8 L-6318.0,1509.0 L-6315.4,1506.3 L-6318.0,1503.7 L-6315.0,1500.5 L-6318.1,1497.3 L-6311.5,1490.1 L-6310.4,1490.1 L-6313.3,1382.8 L-6289.2,1382.2 L-6288.1,1382.8 L-6286.7,1383.8 L-6285.8,1384.7 L-6285.4,1385.7 L-6285.0,1386.9 L-6285.0,1388.1 L-6282.9,1554.7 L-6282.0,1560.2 L-6280.6,1563.8 L-6278.5,1568.3 L-6276.1,1572.7 L-6273.5,1576.2 L-6271.5,1578.3 L-6269.2,1580.1 L-6266.7,1581.6 L-6264.1,1582.6 L-6260.5,1583.6 L-6256.0,1584.5 L-6250.6,1585.5 L-6244.3,1586.6 L-6238.3,1587.9 L-6231.6,1589.1 L-6225.3,1590.5 L-6223.3,1590.9 L-6220.9,1591.3 L-6218.5,1591.6 L-6216.4,1591.7 L-6214.0,1591.7 L-6212.1,1591.6 L-6210.3,1591.3 L-6208.7,1590.9 L-6207.0,1590.3 L-6205.5,1589.7 L-6202.7,1588.3 L-6200.1,1586.8 L-6197.6,1584.9 L-6194.6,1582.1 L-6191.8,1579.0 L-6190.3,1576.4 L-6189.0,1573.1 L-6188.3,1570.4 L-6187.9,1567.6 L-6187.6,1564.9 L-6187.6,1562.4 L-6191.3,1383.8 L-6186.1,1378.4 L-6184.2,1378.2 L-6183.5,1377.5 L-6172.6,1377.3 L-6171.6,1375.6 L-6170.0,1376.1 L-6167.3,1378.7 L-6165.4,1381.3 L-6163.5,1384.6 L-6159.9,1584.2 L-6159.5,1587.7 L-6158.9,1594.7 L-6158.2,1596.0 L-6158.7,1596.4 L-6157.8,1598.3 L-6156.6,1600.6 L-6155.7,1602.1 L-6154.4,1603.9 L-6152.8,1605.8 L-6150.9,1607.7 L-6148.5,1609.7 L-6146.4,1611.3 L-6144.1,1612.6 L-6141.9,1613.6 L-6139.5,1614.4 L-6139.2,1613.7 L-6106.1,1625.7 L-6102.0,1627.2 L-6100.1,1627.9 L-6097.1,1629.0 L-6095.0,1629.5 L-6093.2,1629.8 L-6091.4,1629.8 L-6089.1,1629.6 L-6086.4,1629.3 L-6084.2,1628.8 L-6081.8,1628.1 L-6080.0,1627.4 L-6078.2,1626.6 L-6076.7,1625.6 L-6074.8,1624.3 L-6072.4,1622.2 L-6070.2,1620.0 L-6067.8,1617.0 L-6066.1,1614.2 L-6064.7,1611.1 L-6063.7,1607.7 L-6063.1,1604.1 L-6062.8,1597.9 L-6062.9,1585.1 L-6066.6,1382.1 L-6066.6,1379.9 L-6066.1,1378.3 L-6065.4,1377.0 L-6064.0,1375.7 L-6062.4,1374.9 L-6060.5,1374.6 L-6045.4,1374.1 L-6043.7,1374.4 L-6042.0,1375.1 L-6040.9,1376.2 L-6039.6,1378.1 L-6038.8,1380.8 L-6038.4,1384.5 L-6034.6,1644.9 L-6034.4,1646.4 L-6034.1,1648.0 L-6033.7,1649.6 L-6033.2,1651.4 L-6032.6,1653.1 L-6031.9,1654.7 L-6031.2,1656.0 L-6030.6,1657.3 L-6029.6,1658.7 L-6028.6,1660.1 L-6027.6,1661.3 L-6026.2,1662.8 L-6024.8,1664.1 L-6023.3,1665.4 L-6021.6,1666.6 L-6017.0,1669.5 L-6016.5,1669.0 L-6012.5,1671.2 L-6007.7,1673.9 L-6004.9,1675.4 L-6001.9,1677.2 L-5998.7,1679.0 L-5995.5,1681.0 L-5991.9,1683.3 L-5988.2,1685.5 L-5984.6,1687.7 L-5981.7,1689.5 L-5978.3,1691.7 L-5974.8,1694.0 L-5971.4,1696.2 L-5968.2,1698.4 L-5968.5,1698.8 L-5964.1,1701.9 L-5959.6,1704.9 L-5958.2,1705.7 L-5956.6,1706.6 L-5954.5,1707.7 L-5952.4,1708.4 L-5950.2,1709.0 L-5948.2,1709.5 L-5946.0,1709.9 L-5943.4,1710.1 L-5941.2,1710.2 L-5939.4,1710.0 L-5937.7,1709.7 L-5935.7,1709.1 L-5933.6,1708.4 L-5931.7,1707.8 L-5930.0,1707.0 L-5928.2,1706.0 L-5926.4,1704.9 L-5924.7,1703.5 L-5923.1,1702.1 L-5921.5,1700.5 L-5920.1,1698.9 L-5918.5,1696.7 L-5917.3,1694.5 L-5916.1,1692.1 L-5915.4,1690.2 L-5914.8,1688.2 L-5914.5,1686.0 L-5914.3,1683.9 L-5914.4,1681.4 L-5944.1,1397.5 L-5942.0,1397.4 L-5943.6,1383.1 L-5945.2,1383.2 L-5946.4,1376.7 L-5946.0,1375.3 L-5944.7,1373.4 L-5942.1,1371.4 L-5938.8,1371.0 L-5925.3,1370.6 L-5923.1,1371.0 L-5921.5,1371.7 L-5919.9,1373.0 L-5918.7,1374.2 L-5918.0,1375.5 L-5885.5,1693.9 L-5884.7,1696.7 L-5883.3,1700.1 L-5882.1,1702.3 L-5880.8,1704.6 L-5879.1,1706.9 L-5877.7,1708.5 L-5876.2,1710.1 L-5874.5,1711.5 L-5873.0,1712.6 L-5870.8,1713.9 L-5869.0,1714.9 L-5866.5,1715.9 L-5864.2,1716.6 L-5861.7,1717.2 L-5859.6,1717.4 L-5857.9,1717.5 L-5855.9,1717.5 L-5785.2,1716.1 L-5782.9,1715.8 L-5780.7,1714.7 L-5779.2,1713.3 L-5778.0,1711.1 L-5777.7,1709.1 L-5777.7,1707.1 L-5813.5,1366.1 L-5845.0,1325.0 L-5846.4,1326.1 L-5873.8,1287.8 L-5874.3,1279.8 L-5875.1,1278.1 L-5876.6,1276.5 L-5878.4,1273.9 L-5878.6,1270.1 L-5881.9,1268.9 L-5885.0,1268.8 L-5889.2,1270.9 L-5884.4,1279.9 L-5890.5,1282.8 L-5895.1,1278.6 L-5898.9,1276.2 L-5901.6,1275.3 L-5908.1,1275.1 L-5911.4,1268.3 L-5890.7,1259.8 L-5891.6,1258.2 L-5896.0,1252.2 L-5896.7,1252.6 L-6051.2,1050.4 L-6053.5,1017.0 L-6052.3,1016.7 L-6058.3,955.5 L-6060.6,949.9 L-6063.0,943.5 L-6065.0,938.6 L-6067.2,932.4 L-6074.8,911.3 L-6077.8,912.7 L-6082.2,895.7 L-6081.5,895.5 L-6097.0,853.4 L-6098.7,779.7 L-6096.9,779.7 L-6096.7,773.2 L-6095.8,766.9 L-6095.5,764.5 L-6096.1,762.6 L-6094.0,752.5 L-6074.8,718.7 L-6084.9,712.5 L-6077.5,700.2 L-6067.7,705.9 L-6066.9,704.6 L-6063.8,706.1 L-6060.5,707.5 L-6056.8,708.7 L-6053.9,709.3 L-6051.2,709.3 L-6048.0,708.8 L-6044.8,707.7 L-6041.7,706.5 L-6040.3,705.0 L-6039.7,703.0 L-6039.0,700.5 L-6038.8,699.5 L-6038.9,698.2 L-6039.6,696.3 L-6040.9,694.5 L-6042.4,693.4 L-6044.6,691.3 L-6046.5,689.3 L-6049.3,687.5 L-6050.5,684.7 L-6051.8,681.8 L-6053.9,678.5 L-6056.4,675.5 L-6060.9,672.3 L-6082.7,661.0 L-6095.6,654.7 L-6107.6,648.1 L-6119.1,641.8 L-6126.5,637.0 L-6129.3,636.2 L-6132.5,637.2 L-6134.2,639.4 L-6137.8,648.2 L-6159.9,638.3 L-6146.6,617.5 L-6143.8,616.1 L-6140.2,615.4 L-6136.1,616.3 L-6053.2,664.8 L-6048.7,666.1 L-6044.0,667.2 L-6037.3,667.4 L-6030.6,666.2 L-6026.3,664.5 L-6021.6,660.7 L-6018.9,658.0 L-6015.9,653.9 L-6015.9,653.3 L-6016.1,652.8 L-6016.6,652.4 L-6043.4,635.8 L-6044.1,635.6 L-6044.7,635.6 L-6045.5,635.6 L-6048.0,636.7 L-6048.9,636.8 L-6050.0,636.7 L-6051.6,636.5 L-6052.7,636.1 L-6054.4,635.3 L-6056.1,634.3 L-6093.0,611.9 L-6110.3,599.6 L-6112.0,599.4 L-6113.6,599.5 L-6115.5,599.5 L-6116.9,599.3 L-6117.9,598.8 L-6119.3,597.8 L-6120.7,596.6 L-6121.7,595.3 L-6122.3,593.8 L-6122.4,592.8 L-6122.3,591.5 L-6122.0,590.3 L-6116.1,580.4 L-6116.1,579.9 L-6116.5,579.6 L-6121.9,575.8 L-6123.0,574.2 L-6122.4,573.3 L-6120.6,573.5 L-6118.7,574.1 L-6107.6,581.0 L-6044.7,621.1 L-6043.5,621.8 L-6042.6,622.8 L-6042.0,623.9 L-6041.3,626.2 L-6040.8,628.0 L-6040.6,629.5 L-6012.2,646.6 L-6011.2,647.0 L-6010.0,647.2 L-6008.6,646.9 L-6007.6,646.6 L-6006.7,646.2 L-5976.2,596.7 L-5963.4,578.0 L-5951.4,564.5 L-5945.4,567.8 L-5941.5,561.6 L-5962.2,549.2 L-5957.8,541.9 L-5937.1,554.4 L-5932.4,546.8 L-5936.2,542.6 L-5932.4,538.3 L-5928.3,543.0 L-5927.3,542.2 L-5926.2,541.5 L-5924.6,540.5 L-5922.9,539.7 L-5920.9,539.0 L-5918.9,538.5 L-5916.8,538.1 L-5914.7,538.0 L-5912.7,538.0 L-5910.8,538.3 L-5908.9,538.7 L-5907.3,539.2 L-5906.0,539.8 L-5904.1,540.7 L-5902.3,541.8 L-5900.9,542.9 L-5899.4,544.2 L-5898.0,545.5 L-5896.5,547.5 L-5895.5,549.2 L-5894.4,551.4 L-5893.7,553.7 L-5893.1,556.8 L-5892.9,559.5 L-5893.0,561.1 L-5893.2,562.6 L-5893.7,565.1 L-5895.1,568.3 L-5896.0,570.5 L-5897.2,573.0 L-5892.1,575.6 L-5867.8,546.6 L-5912.0,519.7 L-5909.7,515.0 L-5908.2,510.5 L-5908.1,508.6 L-5905.5,503.1 L-5900.3,498.3 L-5893.7,493.0 L-5886.0,488.0 L-5871.5,483.8 L-5846.3,481.3 L-5836.5,473.3 L-5834.4,472.9 L-5832.8,472.9 L-5830.4,473.8 L-5828.2,474.0 L-5814.3,482.4 L-5777.6,438.9 L-5912.1,353.4 L-5920.4,366.5 L-5938.6,355.1 L-5912.8,314.6 L-5894.7,325.7 L-5902.8,339.5 L-5765.9,425.8 L-5748.7,403.7 L-5736.5,389.2 L-5720.4,365.0 L-5711.5,352.7 L-5712.4,345.8 L-5712.2,345.6 L-5713.7,340.4 L-5714.8,337.3 L-5715.8,334.0 L-5717.0,331.1 L-5719.3,327.3 L-5721.6,323.7 L-5722.6,321.8 L-5723.4,319.9 L-5723.9,318.1 L-5724.1,316.6 L-5724.4,311.5 L-5783.4,257.3 L-5785.4,259.4 L-5787.0,258.0 L-5791.8,262.7 L-5795.0,258.5 L-5791.2,254.1 L-5795.0,249.3 L-5797.6,249.9 L-5800.3,250.0 L-5802.8,249.6 L-5804.9,248.7 L-5807.4,246.9 L-5810.5,243.8 L-5815.9,237.8 L-5817.6,235.2 L-5818.2,232.0 L-5817.8,228.3 L-5816.4,224.7 L-5815.1,222.3 L-5812.7,220.0 L-5810.1,218.2 L-5807.5,217.2 L-5805.6,216.9 L-5803.1,217.3 L-5800.6,218.3 L-5798.2,220.1 L-5792.6,225.2 L-5789.8,227.9 L-5787.1,230.7 L-5786.3,232.1 L-5785.7,233.5 L-5785.4,234.8 L-5785.1,236.6 L-5785.4,238.3 L-5785.9,239.9 L-5786.6,241.1 L-5786.8,241.6 L-5786.7,242.3 L-5786.2,243.1 L-5722.8,302.5 L-5720.6,304.0 L-5719.1,304.7 L-5716.8,304.2 L-5714.3,303.9 L-5711.0,305.4 L-5707.6,307.4 L-5701.2,311.1 L-5698.5,312.3 L-5696.1,309.9 L-5693.4,307.4 L-5691.5,305.3 L-5688.5,301.4 L-5686.8,299.1 L-5685.1,296.1 L-5683.9,293.6 L-5682.6,290.9 L-5681.5,288.0 L-5680.5,285.2 L-5679.8,282.7 L-5679.1,279.6 L-5678.9,277.8 L-5678.6,276.3 L-5678.3,273.6 L-5678.0,271.0 L-5677.8,269.3 L-5677.7,267.4 L-5677.7,265.3 L-5677.8,263.5 L-5678.2,261.0 L-5678.5,258.1 L-5678.9,255.5 L-5679.2,253.4 L-5679.5,251.7 L-5679.9,250.1 L-5680.3,248.3 L-5680.9,246.4 L-5681.6,244.4 L-5682.1,243.1 L-5682.7,241.9 L-5683.5,240.8 L-5684.7,239.1 L-5685.9,237.6 L-5687.3,236.3 L-5689.0,234.9 L-5690.7,233.8 L-5692.5,232.9 L-5694.1,232.2 L-5695.2,231.9 L-5696.5,231.7 L-5697.9,231.8 L-5699.3,232.1 L-5700.4,232.5 L-5701.5,233.3 L-5702.3,234.1 L-5702.9,234.9 L-5703.3,236.0 L-5703.6,237.3 L-5703.5,238.7 L-5703.4,240.5 L-5703.4,241.8 L-5703.5,243.1 L-5703.7,244.4 L-5704.0,245.5 L-5704.4,246.8 L-5705.1,248.1 L-5705.9,249.3 L-5706.8,250.4 L-5707.7,251.3 L-5709.3,252.6 L-5710.8,253.5 L-5712.9,254.2 L-5714.2,254.5 L-5715.7,254.7 L-5717.1,254.7 L-5718.9,254.7 L-5720.2,254.4 L-5722.0,254.0 L-5724.5,253.3 L-5726.6,252.5 L-5728.2,251.8 L-5729.8,250.9 L-5731.2,249.9 L-5732.9,248.7 L-5734.1,247.6 L-5735.2,246.5 L-5736.3,245.2 L-5737.2,244.0 L-5738.0,242.8 L-5738.7,241.5 L-5739.6,239.7 L-5740.2,238.0 L-5740.9,236.2 L-5741.4,234.8 L-5741.7,233.5 L-5742.0,232.2 L-5742.2,230.1 L-5742.3,228.2 L-5742.2,226.2 L-5741.8,223.5 L-5741.1,220.9 L-5740.1,218.2 L-5739.4,217.0 L-5738.8,216.2 L-5733.6,209.7 L-5732.5,208.3 L-5730.9,207.6 L-5729.3,207.0 L-5727.4,206.6 L-5725.3,206.3 L-5723.5,206.2 L-5721.8,206.3 L-5720.0,206.5 L-5717.9,207.1 L-5715.8,208.2 L-5713.9,209.3 L-5712.2,210.6 L-5707.0,215.4 L-5705.8,215.8 L-5705.1,215.9 L-5704.2,215.8 L-5703.7,215.6 L-5703.0,214.8 L-5702.7,214.0 L-5702.6,212.8 L-5702.6,211.9 L-5702.8,211.4 L-5713.3,201.0 L-5699.0,185.8 L-5699.8,183.9 L-5691.6,175.8 L-5675.6,191.7 L-5688.5,208.0 L-5688.5,209.0 L-5687.9,209.3 L-5687.1,209.2 L-5673.1,191.6 L-5668.9,186.6 L-5668.8,185.5 L-5669.2,184.4 L-5669.9,183.6 L-5680.9,173.2 L-5678.2,170.0 L-5680.9,167.6 L-5679.4,163.9 L-5650.8,135.3 L-5641.1,133.6 L-5638.0,133.2 L-5635.1,132.7 L-5633.7,132.4 L-5632.1,131.6 L-5630.3,130.5 L-5628.8,129.0 L-5627.4,127.3 L-5612.8,106.2 L-5612.5,105.6 L-5612.7,104.9 L-5612.9,104.4 L-5613.3,103.9 L-5615.0,102.9 L-5615.4,102.6 L-5615.9,102.6 L-5616.3,102.9 L-5617.2,103.6 L-5629.5,115.0 L-5634.2,118.4 L-5653.7,98.4 L-5651.4,91.3 L-5650.5,89.2 L-5647.5,83.6 L-5643.9,77.4 L-5641.7,75.0 L-5637.9,70.9 L-5633.8,66.3 L-5629.3,61.6 L-5625.4,58.3 L-5623.6,56.6 L-5621.2,54.9 L-5618.9,53.6 L-5615.7,52.2 L-5613.7,51.5 L-5611.7,50.9 L-5610.2,50.8 L-5608.0,50.9 L-5606.1,51.2 L-5604.0,51.7 L-5601.9,53.4 L-5600.7,55.2 L-5599.9,57.0 L-5599.6,59.7 L-5599.8,63.3 L-5600.2,67.2 L-5601.1,71.1 L-5606.2,82.6 L-5611.1,92.9 L-5609.4,95.7 L-5608.5,96.2 L-5607.5,96.2 L-5606.7,96.1 L-5606.0,95.6 L-5602.7,90.9 L-5598.4,88.7 L-5589.8,65.9 L-5589.3,64.8 L-5588.4,63.8 L-5587.5,63.3 L-5586.8,63.1 L-5585.6,63.1 L-5584.4,63.4 L-5578.2,65.2 L-5576.9,65.4 L-5575.6,65.4 L-5574.3,65.2 L-5573.2,64.8 L-5572.3,64.1 L-5571.4,62.9 L-5560.9,48.9 L-5560.4,47.9 L-5560.2,46.8 L-5560.2,45.7 L-5560.4,44.6 L-5560.7,43.8 L-5561.4,43.0 L-5562.1,42.4 L-5563.1,41.9 L-5564.0,41.6 L-5565.0,41.6 L-5565.8,41.7 L-5566.7,42.1 L-5567.4,42.7 L-5568.0,43.4 L-5570.7,47.8 L-5571.3,48.7 L-5572.0,49.5 L-5573.1,50.4 L-5574.0,50.9 L-5575.2,51.3 L-5576.6,51.5 L-5577.4,51.5 L-5578.4,51.4 L-5579.4,51.2 L-5580.2,50.8 L-5588.8,43.0 L-5589.8,41.8 L-5590.5,40.7 L-5591.2,39.3 L-5591.7,38.2 L-5592.0,37.0 L-5592.2,35.7 L-5592.4,34.1 L-5592.4,32.5 L-5592.3,31.1 L-5592.1,30.0 L-5591.8,29.0 L-5591.5,28.2 L-5575.8,3.3 L-5574.8,1.7 L-5574.2,0.8 L-5573.5,0.4 L-5572.4,-0.1 L-5571.2,-0.5 L-5570.0,-0.6 L-5569.3,-0.6 L-5568.7,-0.5 L-5568.1,-0.3 L-5567.3,0.0 L-5566.4,0.6 L-5564.8,2.0 L-5557.7,8.6 L-5556.5,10.3 L-5555.7,12.0 L-5555.1,13.9 L-5554.9,15.4 L-5554.8,17.0 L-5554.8,18.4 L-5554.9,19.7 L-5555.2,21.1 L-5555.5,22.0 L-5556.3,23.9 L-5559.1,29.1 L-5559.5,30.3 L-5559.5,31.8 L-5559.4,32.9 L-5558.9,33.7 L-5558.2,34.5 L-5557.0,35.4 L-5556.0,35.9 L-5554.9,36.2 L-5553.5,36.2 L-5552.4,35.9 L-5551.1,35.3 L-5550.0,34.3 L-5531.5,8.9 L-5537.2,3.8 L-5533.8,0.1 L-5528.7,4.9 L-5518.4,-8.7 L-5502.6,-29.7 L-5566.0,-90.5 L-5579.8,-76.0 L-5595.9,-91.3 L-5580.3,-108.1 L-5582.4,-110.3 L-5579.1,-113.3 L-5577.1,-111.3 L-5566.2,-123.1 L-5556.5,-114.1 L-5555.4,-106.6 L-5514.3,-68.3 L-5506.3,-65.2 L-5500.0,-67.4 L-5487.8,-62.6 L-5479.8,-65.6 L-5455.8,-94.8 L-5454.5,-97.6 L-5454.1,-101.3 L-5455.2,-104.9 L-5456.9,-107.5 L-5471.0,-120.6 L-5470.9,-124.2 L-5468.1,-131.3 L-5462.4,-141.7 L-5473.5,-148.9 L-5469.3,-150.4 L-5466.6,-152.2 L-5464.0,-155.2 L-5460.9,-163.1 L-5455.2,-177.6 L-5451.5,-181.0 L-5486.6,-215.0 L-5494.3,-210.2 L-5496.1,-209.7 L-5497.8,-209.7 L-5500.0,-210.0 L-5501.8,-210.5 L-5503.6,-211.5 L-5505.0,-212.8 L-5523.2,-230.3 L-5526.6,-233.6 L-5528.0,-235.4 L-5529.3,-237.7 L-5529.9,-239.8 L-5530.1,-241.8 L-5530.1,-243.6 L-5529.7,-245.5 L-5529.3,-246.9 L-5528.7,-248.0 L-5527.4,-249.8 L-5525.9,-251.6 L-5517.7,-260.1 L-5455.7,-202.7 L-5460.0,-197.9 L-5414.0,-154.4 L-5361.0,-231.9 L-5394.7,-263.4 L-5399.0,-259.5 L-5461.7,-318.7 L-5453.5,-326.4 L-5417.4,-292.6 L-5413.8,-297.9 L-5411.9,-300.5 L-5409.3,-303.2 L-5406.4,-306.4 L-5403.4,-308.3 L-5398.6,-312.3 L-5393.9,-316.7 L-5384.7,-325.3 L-5363.0,-349.8 L-5359.1,-353.9 L-5344.7,-361.2 L-5331.1,-371.8 L-5329.8,-372.9 L-5326.3,-375.6 L-5324.8,-377.0 L-5323.5,-378.6 L-5322.7,-380.2 L-5322.1,-381.9 L-5321.4,-383.1 L-5320.7,-384.5 L-5319.4,-386.7 L-5318.5,-388.0 L-5317.6,-389.2 L-5316.0,-390.6 L-5314.4,-391.6 L-5312.6,-392.7 L-5308.5,-394.7 L-5304.4,-396.7 L-5303.9,-396.8 L-5303.2,-396.7 L-5302.0,-396.3 L-5298.8,-394.7 L-5296.3,-393.5 L-5295.2,-392.8 L-5294.2,-392.0 L-5277.4,-376.1 L-5276.3,-375.4 L-5270.9,-374.0 L-5269.1,-373.5 L-5267.1,-373.3 L-5265.7,-373.4 L-5264.5,-373.8 L-5263.3,-374.5 L-5257.4,-382.9 L-5257.4,-384.1 L-5257.6,-385.2 L-5258.3,-386.3 L-5259.2,-387.4 L-5263.8,-391.6 L-5263.5,-392.3 L-5257.6,-404.7 L-5247.6,-424.9 L-5238.5,-431.6 L-5233.3,-436.9 L-5229.6,-441.0 L-5225.9,-444.9 L-5221.6,-448.3 L-5219.1,-450.6 L-5216.4,-453.1 L-5214.4,-455.1 L-5213.4,-456.9 L-5212.6,-458.3 L-5212.1,-459.7 L-5211.9,-461.3 L-5211.8,-462.8 L-5208.7,-465.9 L-5204.3,-470.2 L-5196.7,-476.3 L-5188.9,-482.3 L-5185.4,-487.2 L-5184.1,-492.3 L-5180.2,-494.6 L-5175.3,-494.7 L-5170.3,-497.7 L-5166.0,-505.5 L-5166.1,-513.7 L-5165.3,-526.3 L-5164.0,-528.1 L-5163.3,-529.3 L-5161.9,-531.6 L-5163.7,-536.9 L-5161.7,-539.4 L-5151.8,-551.7 L-5134.7,-571.6 L-5131.5,-576.3 L-5130.2,-578.7 L-5124.8,-586.2 L-5123.3,-590.8 L-5123.3,-598.1 L-5123.5,-605.3 L-5123.5,-612.7 L-5121.3,-620.9 L-5117.6,-629.0 L-5112.3,-636.7 L-5108.5,-642.4 L-5103.9,-648.2 L-5095.1,-658.0 L-5056.1,-677.3 L-5050.9,-678.6 L-5049.6,-675.8 L-5048.1,-673.1 L-5047.6,-672.6 L-5046.8,-673.0 L-5046.6,-674.9 L-5047.2,-676.5 L-5045.0,-677.1 L-5037.0,-679.5 L-5026.6,-682.6 L-5018.2,-685.1 L-5015.3,-686.0 L-5018.2,-695.4 L-5013.1,-696.8 L-5004.4,-698.0 L-5003.3,-698.2 L-5003.3,-698.8 L-5003.3,-701.0 L-4995.5,-701.4 L-4983.2,-701.9 L-4978.4,-699.5 L-4966.6,-656.8 L-4963.9,-654.3 L-4969.0,-649.0 L-4964.5,-644.5 L-4960.0,-640.0 L-4954.6,-645.5 L-4854.4,-550.2 L-4720.6,-693.0 L-4673.8,-648.3 L-4672.0,-648.9 L-4671.3,-648.1 L-4668.2,-650.0 L-4665.6,-651.0 L-4662.8,-652.2 L-4658.1,-654.7 L-4655.2,-656.3 L-4651.7,-658.3 L-4648.6,-660.3 L-4646.0,-662.0 L-4643.6,-663.6 L-4640.7,-665.7 L-4637.6,-668.0 L-4635.1,-670.1 L-4632.5,-672.3 L-4629.7,-675.1 L-4626.9,-677.8 L-4620.6,-684.4 L-4616.9,-689.0 L-4613.1,-693.9 L-4610.6,-697.5 L-4608.2,-701.2 L-4605.4,-706.4 L-4602.9,-711.5 L-4600.9,-715.6 L-4599.2,-719.7 L-4598.1,-722.5 L-4597.0,-725.6 L-4594.2,-728.9 L-4679.8,-810.3 L-4678.7,-811.5 L-4668.5,-822.4 L-4661.0,-830.3 L-4660.3,-831.1 L-4638.6,-810.8 L-4633.3,-813.5 L-4632.7,-812.8 L-4581.7,-839.3 L-4579.6,-840.5 L-4578.2,-841.6 L-4576.8,-842.9 L-4575.3,-844.5 L-4573.7,-846.7 L-4572.5,-848.8 L-4571.6,-850.4 L-4571.0,-852.5 L-4570.4,-854.7 L-4570.2,-857.1 L-4570.2,-859.9 L-4570.4,-862.1 L-4570.8,-864.1 L-4571.5,-866.4 L-4587.4,-912.3 L-4589.6,-919.8 L-4589.0,-922.4 L-4627.5,-932.0 L-4625.7,-938.6 L-4624.2,-944.6 L-4612.8,-989.8 L-4621.7,-1016.0 L-4626.8,-1033.0 L-4628.4,-1037.3 L-4614.6,-1050.0 L-4599.0,-1058.3 L-4598.1,-1057.0 L-4596.6,-1054.9 L-4593.0,-1050.3 L-4592.7,-1050.7 L-4592.6,-1052.3 L-4597.4,-1058.9 L-4588.8,-1065.2 L-4586.9,-1066.3 L-4582.3,-1060.4 L-4581.6,-1059.8 L-4580.8,-1059.7 L-4580.4,-1059.8 L-4580.4,-1060.2 L-4601.8,-1089.5 L-4603.4,-1091.2 L-4605.2,-1093.7 L-4614.5,-1104.9 L-4606.6,-1129.6 L-4600.4,-1135.9 L-4593.4,-1139.2 L-4578.4,-1148.1 L-4575.3,-1151.3 L-4561.9,-1163.1 L-4557.6,-1158.6 L-4545.2,-1145.2 L-4533.6,-1154.9 L-4525.9,-1147.5 L-4518.9,-1140.6 L-4518.5,-1140.3 L-4512.6,-1145.4 L-4504.9,-1137.0 L-4498.1,-1128.4 L-4493.2,-1122.7 L-4492.5,-1122.0 L-4478.1,-1134.6 L-4477.4,-1135.2 L-4480.8,-1139.4 L-4472.9,-1145.8 L-4449.2,-1118.1 L-4428.9,-1131.4 L-4426.9,-1133.3 L-4418.1,-1137.0 L-4416.1,-1139.0 L-4414.2,-1141.5 L-4403.4,-1151.1 L-4405.8,-1154.5 L-4425.2,-1150.1 L-4447.4,-1175.3 L-4444.9,-1177.5 L-4441.5,-1173.6 L-4425.8,-1187.1 L-4409.1,-1168.9 L-4404.6,-1167.1 L-4402.0,-1165.5 L-4398.5,-1161.7 L-4396.7,-1163.3 L-4408.8,-1177.0 L-4401.4,-1183.5 L-4386.4,-1165.5 L-4384.5,-1166.9 L-4384.7,-1167.3 L-4351.9,-1191.0 L-4342.2,-1198.2 L-4374.0,-1238.0 L-4367.2,-1242.7 L-4339.5,-1210.3 L-4319.1,-1206.6 L-4305.5,-1214.4 L-4303.7,-1215.6 L-4303.8,-1217.1 L-4304.7,-1218.9 L-4294.1,-1225.5 L-4291.1,-1222.4 L-4282.1,-1227.7 L-4288.6,-1235.7 L-4319.8,-1277.3 L-4297.8,-1300.2 L-4283.3,-1321.5 L-4283.0,-1338.2 L-4290.7,-1360.4 L-4274.5,-1373.9 L-4257.4,-1380.5 L-4251.9,-1381.7 L-4247.4,-1382.3 L-4241.9,-1382.0 L-4236.1,-1380.6 L-4227.9,-1373.6 L-4206.5,-1347.4 L-4189.4,-1325.7 L-4169.0,-1312.1 L-4160.9,-1310.8 L-4153.7,-1309.9 L-4147.6,-1309.7 L-4139.8,-1310.2 L-4131.3,-1311.6 L-4124.5,-1313.6 L-4118.7,-1316.3 L-4114.9,-1318.6 L-4112.0,-1321.5 L-4107.2,-1327.4 L-4102.0,-1336.9 L-4096.4,-1349.5 L-4086.3,-1344.3 L-4082.3,-1343.0 L-4078.0,-1342.3 L-4071.1,-1342.8 L-4066.6,-1344.1 L-4061.4,-1346.4 L-4056.5,-1349.2 L-4051.4,-1354.2 L-4047.0,-1358.2 L-4041.5,-1361.9 L-4037.7,-1364.4 L-4032.1,-1366.4 L-4022.5,-1369.2 L-4016.8,-1370.8 L-4010.6,-1373.1 L-4005.3,-1375.8 L-4002.2,-1377.7 L-3999.7,-1380.2 L-3967.0,-1396.6 L-3965.8,-1397.3 L-3964.3,-1398.3 L-3962.8,-1399.4 L-3960.6,-1400.7 L-3959.1,-1401.4 L-3957.6,-1402.7 L-3956.4,-1404.0 L-3954.8,-1405.0 L-3953.1,-1406.2 L-3950.8,-1408.3 L-3947.6,-1408.6 L-3944.3,-1409.0 L-3942.2,-1409.6 L-3939.4,-1410.9 L-3936.0,-1412.5 L-3932.3,-1414.7 L-3930.2,-1416.7 L-3927.9,-1419.3 L-3926.5,-1421.8 L-3925.7,-1424.1 L-3925.7,-1425.6 L-3925.6,-1427.0 L-3924.8,-1432.1 L-3906.6,-1442.7 L-3874.7,-1461.1 L-3868.5,-1464.6 L-3814.4,-1495.9 L-3755.8,-1529.5 L-3730.9,-1543.8 L-3722.2,-1548.6 L-3649.7,-1590.7 L-3633.7,-1599.6 L-3633.9,-1600.2 L-3600.7,-1618.9 L-3588.0,-1626.0 L-3564.5,-1639.1 L-3564.3,-1638.7 L-3555.2,-1643.7 L-3533.1,-1656.0 L-3530.4,-1658.4 L-3508.0,-1674.9 L-3496.9,-1684.1 L-3486.6,-1692.8 L-3481.9,-1695.4 L-3471.3,-1705.9 L-3470.4,-1705.3 L-3469.0,-1705.5 L-3468.3,-1705.0 L-3453.4,-1722.5 L-3457.1,-1726.0 L-3456.6,-1726.9 L-3455.0,-1729.2 L-3450.8,-1734.7 L-3448.2,-1738.6 L-3446.1,-1741.8 L-3443.3,-1746.2 L-3440.5,-1750.7 L-3437.4,-1755.9 L-3434.2,-1761.4 L-3427.2,-1775.8 L-3425.1,-1780.4 L-3423.4,-1784.0 L-3422.1,-1786.7 L-3421.1,-1788.9 L-3418.9,-1794.3 L-3476.8,-1902.3 L-3477.9,-1904.4 L-3478.7,-1905.6 L-3479.4,-1906.4 L-3480.2,-1907.1 L-3480.9,-1907.6 L-3481.9,-1908.2 L-3483.0,-1908.6 L-3483.9,-1908.8 L-3484.8,-1908.9 L-3486.1,-1908.9 L-3487.6,-1908.7 L-3489.0,-1908.3 L-3490.4,-1907.6 L-3503.9,-1899.8 L-3521.4,-1889.7 L-3533.7,-1882.9 L-3556.0,-1870.7 L-3569.7,-1863.2 L-3569.2,-1862.3 L-3575.0,-1859.0 L-3594.2,-1849.1 L-3608.4,-1840.7 L-3616.7,-1836.1 L-3629.5,-1828.7 L-3630.9,-1827.8 L-3642.1,-1847.8 L-3620.1,-1859.8 L-3590.2,-1876.0 L-3569.9,-1887.4 L-3567.4,-1888.8 L-3567.7,-1889.4 L-3550.2,-1898.9 L-3540.8,-1904.1 L-3519.3,-1914.6 L-3515.3,-1916.6 L-3482.9,-1934.6 L-3470.8,-1941.3 L-3462.2,-1945.9 L-3452.1,-1951.7 L-3438.1,-1926.4 L-3460.1,-1914.4 L-3461.2,-1912.6 L-3461.7,-1910.6 L-3461.9,-1909.1 L-3461.9,-1907.8 L-3461.8,-1906.8 L-3461.4,-1905.3 L-3416.6,-1822.4 L-3415.7,-1821.1 L-3414.7,-1820.2 L-3413.8,-1819.5 L-3412.7,-1819.2 L-3411.6,-1819.0 L-3410.5,-1819.1 L-3409.6,-1819.4 L-3389.7,-1834.5 L-3380.4,-1842.3 L-3370.7,-1850.4 L-3367.0,-1853.8 L-3355.1,-1863.6 L-3354.5,-1863.6 L-3343.0,-1873.5 L-3342.9,-1874.1 L-3335.3,-1880.3 L-3329.3,-1885.3 L-3319.0,-1893.8 L-3318.1,-1892.6 L-3308.0,-1900.9 L-3302.9,-1905.2 L-3288.7,-1916.9 L-3278.9,-1925.1 L-3279.8,-1926.5 L-3276.5,-1929.3 L-3271.2,-1933.7 L-3267.9,-1936.6 L-3253.9,-1942.8 L-3244.5,-1946.2 L-3239.6,-1948.5 L-3226.1,-1948.6 L-3221.3,-1948.6 L-3211.3,-1948.0 L-3199.5,-1947.5 L-3198.6,-1948.4 L-3197.5,-1946.8 L-3193.8,-1946.7 L-3160.1,-1943.8 L-3156.2,-1942.9 L-3152.8,-1942.4 L-3145.0,-1941.7 L-3130.4,-1941.0 L-3127.2,-1941.0 L-3124.2,-1941.0 L-3112.5,-1941.5 L-3106.5,-1941.8 L-3100.6,-1942.4 L-3091.5,-1943.3 L-3091.5,-1942.8 L-3084.3,-1944.0 L-3077.4,-1945.3 L-3072.1,-1946.3 L-3065.3,-1951.5 L-3064.4,-1950.3 L-3063.6,-1949.2 L-3002.8,-1868.7 L-2856.1,-1818.2 L-2586.7,-2016.0 L-2513.4,-2068.8 L-2485.0,-2129.3 L-2530.1,-2188.4 L-2528.1,-2196.8 L-2520.2,-2199.0 L-2505.0,-2195.8 L-2494.2,-2199.9 L-2491.2,-2204.1 L-2491.9,-2207.7 L-2499.9,-2223.6 L-2500.5,-2229.5 L-2500.9,-2241.2 L-2502.3,-2252.4 L-2500.9,-2254.5 L-2496.3,-2256.6 L-2490.8,-2257.9 L-2486.8,-2262.2 L-2485.9,-2267.4 L-2489.3,-2277.5 L-2489.6,-2284.4 L-2488.6,-2292.3 L-2483.1,-2306.2 L-2484.2,-2312.6 L-2486.9,-2319.7 L-2487.0,-2329.4 L-2488.6,-2342.2 L-2491.6,-2350.2 L-2493.3,-2354.4 L-2492.2,-2356.3 L-2491.0,-2356.1 L-2490.7,-2356.9 L-2490.6,-2357.9 L-2490.6,-2358.9 L-2492.3,-2359.1 L-2493.5,-2360.7 L-2493.3,-2362.5 L-2494.8,-2362.9 L-2496.6,-2363.0 L-2496.9,-2362.5 L-2500.6,-2367.0 L-2501.4,-2368.4 L-2502.1,-2370.4 L-2502.6,-2372.2 L-2502.9,-2374.2 L-2503.1,-2376.3 L-2503.1,-2378.0 L-2503.2,-2379.9 L-2503.0,-2380.9 L-2502.2,-2383.4 L-2501.3,-2385.4 L-2500.1,-2387.3 L-2498.4,-2389.8 L-2496.7,-2392.2 L-2495.0,-2393.8 L-2493.0,-2395.4 L-2492.6,-2395.0 L-2475.0,-2408.4 L-2472.5,-2410.4 L-2473.0,-2411.1 L-2473.0,-2412.4 L-2468.6,-2415.8 L-2467.6,-2415.8 L-2466.5,-2415.0 L-2464.7,-2416.4 L-2446.6,-2430.0 L-2446.9,-2430.5 L-2444.7,-2432.1 L-2442.2,-2433.6 L-2440.5,-2434.4 L-2438.0,-2435.4 L-2435.8,-2435.9 L-2433.7,-2436.3 L-2431.4,-2436.5 L-2429.9,-2436.3 L-2428.0,-2436.0 L-2426.1,-2435.4 L-2424.7,-2434.7 L-2423.3,-2433.9 L-2422.3,-2433.2 L-2421.5,-2432.3 L-2420.2,-2431.2 L-2419.7,-2430.9 L-2418.8,-2430.9 L-2417.9,-2431.1 L-2415.2,-2433.1 L-2415.1,-2433.6 L-2414.8,-2434.0 L-2414.6,-2434.5 L-2414.6,-2435.2 L-2414.7,-2435.7 L-2415.2,-2436.3 L-2417.1,-2438.2 L-2418.6,-2439.5 L-2420.4,-2440.5 L-2423.4,-2441.7 L-2425.9,-2442.8 L-2421.5,-2445.1 L-2416.1,-2448.8 L-2409.3,-2449.7 L-2402.6,-2449.3 L-2398.1,-2451.0 L-2394.3,-2456.5 L-2379.8,-2482.5 L-2373.9,-2493.2 L-2369.3,-2504.6 L-2368.5,-2506.9 L-2361.5,-2528.1 L-2360.5,-2530.2 L-2359.2,-2532.2 L-2342.9,-2552.3 L-2339.5,-2555.9 L-2336.9,-2558.1 L-2300.6,-2589.2 L-2298.7,-2590.5 L-2292.4,-2593.9 L-2285.0,-2598.1 L-2261.8,-2610.2 L-2211.2,-2637.4 L-2210.1,-2636.5 L-2209.1,-2636.1 L-2208.2,-2635.9 L-2207.3,-2636.0 L-2206.4,-2636.2 L-2203.7,-2636.8 L-2200.6,-2637.5 L-2197.7,-2638.1 L-2194.8,-2638.6 L-2193.2,-2639.0 L-2190.9,-2639.7 L-2188.5,-2640.7 L-2182.4,-2644.0 L-2180.2,-2645.2 L-2179.1,-2645.9 L-2177.9,-2646.4 L-2173.2,-2648.4 L-2168.1,-2650.4 L-2161.6,-2653.2 L-2153.9,-2656.3 L-2153.6,-2656.5 L-2153.0,-2656.5 L-2152.1,-2656.8 L-2150.9,-2657.7 L-2149.6,-2658.2 L-2148.1,-2658.9 L-2145.3,-2660.5 L-2144.3,-2661.5 L-2142.6,-2662.6 L-2142.8,-2662.9 L-2142.1,-2663.7 L-2141.1,-2664.7 L-2139.7,-2665.5 L-2138.4,-2665.9 L-2137.1,-2666.4 L-2135.8,-2667.1 L-2133.4,-2668.7 L-2132.6,-2669.4 L-2131.9,-2670.5 L-2131.6,-2671.2 L-2131.6,-2672.0 L-2131.6,-2672.8 L-2131.5,-2673.6 L-2138.5,-2682.0 L-2116.5,-2694.9 L-2106.0,-2700.5 L-2103.9,-2701.1 L-2100.7,-2700.6 L-2097.2,-2695.6 L-2095.6,-2694.2 L-2094.1,-2693.5 L-2092.8,-2693.2 L-2091.6,-2693.3 L-2072.6,-2701.0 L-2067.5,-2703.5 L-2062.7,-2706.2 L-2055.0,-2710.3 L-2053.4,-2710.9 L-1946.0,-2755.5 L-1912.4,-2771.6 L-1762.1,-2843.8 L1744.4,-2872.8 L1744.4,2145.0 L-5749.4,2145.0 L-5749.4,1931.7 Z" fill="#add7e1" stroke="none"><title>Biscayne Bay</title></path><path d="M42.3,-1567.8 L-1512.5,5118.4" fill="none" stroke="#6fb5c7" stroke-width="1.4" stroke-dasharray="5 7" opacity="0.34" stroke-linecap="round" stroke-linejoin="round"><title>Atlantic Intracoastal Waterway</title></path></svg>