<svg xmlns="http://www.w3.org/2000/svg" width="256" height="256" viewBox="0 0 256 256"><rect width="256" height="256" fill="#f1efe7"/><path d="M-2053.4,-6806.9 L-1946.0,-6851.5 L-1912.4,-6867.6 L-1762.1,-6939.8 L-1733.9,-6912.5 L-1731.4,-6910.2 L-1678.8,-6955.2 L-1666.2,-6964.8 L-1645.3,-6983.7 L-1527.2,-7092.1 L-1431.9,-7200.9 L-1428.3,-7207.8 L-1424.8,-7211.8 L-1419.2,-7218.1 L-1413.6,-7224.6 L-1411.3,-7227.3 L-1448.9,-7275.8 L-1399.2,-7305.6 L-1372.2,-7269.7 L-1334.1,-7313.3 L-1366.4,-7356.1 L-1326.4,-7397.7 L-1295.7,-7357.2 L-1260.3,-7397.4 L-1245.3,-7407.2 L-1171.7,-7455.0 L-1135.3,-7479.1 L-1091.5,-7508.0 L-1070.8,-7521.5 L-1018.4,-7555.4 L-1031.9,-7573.2 L-1056.1,-7605.5 L-993.6,-7645.2 L-970.8,-7657.0 L-969.1,-7658.2 L-957.1,-7667.5 L-914.3,-7690.3 L-911.3,-7695.0 L-899.3,-7703.2 L-892.8,-7712.7 L-891.0,-7714.1 L-880.6,-7718.1 L-856.9,-7726.6 L-840.8,-7733.7 L-783.7,-7760.5 L-783.0,-7758.6 L-735.2,-7779.1 L-715.7,-7754.0 L-672.1,-7783.1 L-665.9,-7787.3 L-665.3,-7787.8 L-664.7,-7788.6 L-663.8,-7790.3 L-663.2,-7791.8 L-663.0,-7793.7 L-663.0,-7795.2 L-663.2,-7796.6 L-663.4,-7798.3 L-663.5,-7799.5 L-663.4,-7800.6 L-663.1,-7801.7 L-662.3,-7803.7 L-661.8,-7804.8 L-660.6,-7806.7 L-659.2,-7808.1 L-652.9,-7810.7 L-647.6,-7812.6 L-640.8,-7814.8 L-637.7,-7815.7 L-632.1,-7817.5 L-628.1,-7819.0 L-622.7,-7821.2 L-615.3,-7824.4 L-607.3,-7828.2 L-603.0,-7830.3 L-597.6,-7833.0 L-592.6,-7835.9 L-587.5,-7838.9 L-582.4,-7842.2 L-580.8,-7843.3 L-570.4,-7851.2 L-561.7,-7857.9 L-553.2,-7865.1 L-545.2,-7872.6 L-539.5,-7879.1 L-533.8,-7886.0 L-526.8,-7895.0 L-520.4,-7904.0 L-513.1,-7915.6 L-508.3,-7924.5 L-505.3,-7930.2 L-500.8,-7939.9 L-497.1,-7948.8 L-493.7,-7958.4 L-491.0,-7966.9 L-488.1,-7980.6 L-485.9,-7992.8 L-484.7,-8003.4 L-483.8,-8015.7 L-483.6,-8029.0 L-484.5,-8041.3 L-486.6,-8057.2 L-488.7,-8068.1 L-491.3,-8078.5 L-494.9,-8090.1 L-498.1,-8099.1 L-501.7,-8108.9 L-505.1,-8116.9 L-507.4,-8122.2 L-508.4,-8126.0 L-508.5,-8129.0 L-508.2,-8131.6 L-507.1,-8133.9 L-505.5,-8135.9 L-503.4,-8137.0 L-501.2,-8137.3 L-495.1,-8135.8 L-478.3,-8131.8 L-472.7,-8259.1 L-450.8,-8486.4 L-474.6,-8492.1 L-477.2,-8499.2 L-477.1,-8509.4 L-473.8,-8532.7 L-469.3,-8537.9 L-465.3,-8553.1 L-440.1,-8547.2 L-426.1,-8692.4 L-422.3,-8732.7 L-430.1,-8734.6 L-425.4,-8753.8 L-441.6,-8757.6 L-439.5,-8769.4 L-436.7,-8777.1 L-433.1,-8786.2 L-427.1,-8798.8 L-420.7,-8797.4 L-411.9,-8888.7 L-409.9,-8944.1 L-409.5,-8954.3 L-404.8,-8989.6 L-395.4,-9077.5 L-333.0,-9240.2 L-318.8,-9284.5 L-145.5,-9351.0 L-128.5,-9357.8 L-125.6,-9359.4 L-123.2,-9361.5 L-120.7,-9364.4 L-118.8,-9367.9 L-117.5,-9371.3 L-117.1,-9376.2 L-117.4,-9382.4 L-119.7,-9460.1 L-120.6,-9475.2 L-120.8,-9485.6 L-121.1,-9505.6 L-121.5,-9511.9 L-122.3,-9517.2 L-123.4,-9522.0 L-124.9,-9526.7 L-127.3,-9532.4 L-130.9,-9538.5 L-134.5,-9543.3 L-137.2,-9547.8 L-139.9,-9553.8 L-142.2,-9559.7 L-143.1,-9564.4 L-143.8,-9569.6 L-144.1,-9574.9 L-144.0,-9580.0 L-143.4,-9585.9 L-142.0,-9591.8 L-140.1,-9597.0 L-138.2,-9601.8 L-135.7,-9606.4 L-132.7,-9611.9 L-130.6,-9617.0 L-128.9,-9623.5 L-125.7,-9628.3 L-126.8,-9673.0 L-128.4,-9675.5 L-129.0,-9705.8 L-129.8,-9741.6 L-129.2,-9746.5 L-127.6,-9751.6 L-123.6,-9759.5 L-96.9,-9817.0 L-96.3,-9818.0 L-91.6,-9828.2 L-87.1,-9838.0 L-82.2,-9848.0 L-77.2,-9858.2 L-74.8,-9863.3 L-48.6,-9917.2 L-20.5,-9976.8 L40.4,-10100.2 L3.8,-10141.1 L-26.0,-10077.7 L-51.8,-10022.7 L-55.7,-10014.9 L-63.6,-9998.7 L-79.5,-10000.0 L-83.9,-10000.3 L-85.4,-9998.8 L-83.3,-9996.9 L-91.5,-9989.7 L-97.9,-9983.7 L-99.1,-9958.3 L-101.5,-9953.2 L-109.3,-9953.5 L-110.6,-9954.0 L-212.8,-9996.1 L-215.0,-9997.3 L-217.4,-9998.8 L-221.0,-10001.6 L-223.9,-10004.3 L-226.3,-10006.9 L-228.6,-10010.1 L-230.4,-10012.9 L-231.8,-10015.8 L-233.0,-10018.9 L-233.7,-10020.9 L-234.2,-10023.5 L-234.7,-10026.5 L-235.1,-10030.6 L-235.1,-10036.4 L-235.8,-10056.3 L-233.0,-10056.5 L-233.4,-10066.9 L-233.8,-10084.2 L-231.2,-10084.3 L-231.4,-10096.1 L-234.3,-10096.0 L-235.7,-10145.8 L-232.9,-10145.9 L-233.4,-10157.5 L-236.1,-10157.4 L-237.2,-10194.2 L-223.7,-10208.7 L-206.5,-10209.3 L-193.6,-10209.8 L-176.7,-10210.3 L-160.4,-10210.9 L-145.7,-10211.4 L-139.4,-10211.6 L-139.7,-10217.3 L-139.8,-10223.2 L-140.8,-10242.3 L-141.1,-10278.9 L-141.6,-10279.5 L-141.7,-10283.2 L-140.6,-10283.2 L-143.2,-10371.3 L-145.4,-10454.1 L-145.8,-10456.7 L-146.0,-10461.5 L-182.1,-10460.2 L-206.1,-10462.3 L-385.7,-10456.0 L-385.7,-10457.6 L-386.1,-10465.3 L-471.3,-10462.3 L-471.5,-10476.4 L-482.7,-10478.9 L-484.7,-10539.5 L-153.3,-10551.0 L-147.8,-10558.6 L-148.0,-10580.1 L-148.4,-10598.6 L-148.7,-10610.3 L-149.2,-10621.6 L-175.5,-10634.1 L-176.6,-10661.6 L-149.5,-10675.0 L-152.0,-10738.7 L-152.7,-10741.9 L-179.5,-10754.4 L-180.4,-10788.5 L-154.9,-10801.7 L-166.3,-10940.1 L-163.2,-11001.8 L-161.8,-11102.2 L-161.9,-11211.4 L-159.5,-11226.8 L-159.3,-11234.1 L-161.7,-11243.1 L-159.2,-11243.1 L-159.2,-11251.1 L-157.7,-11456.6 L-157.9,-11465.8 L-160.8,-11465.7 L-160.7,-11503.5 L-162.4,-11505.9 L-164.9,-11544.9 L-159.8,-11580.5 L-160.5,-11623.7 L-162.2,-11634.0 L-159.6,-11666.0 L-161.4,-11704.6 L-165.9,-11746.0 L-174.4,-11813.0 L-170.4,-11831.4 L-172.1,-11849.4 L-187.4,-11862.5 L-209.9,-11862.2 L-244.1,-11857.7 L-266.3,-11857.7 L-286.6,-11865.2 L-313.1,-11883.4 L-313.1,-11916.0 L-313.8,-11956.2 L-311.2,-11989.6 L-302.4,-12015.7 L-155.0,-12018.4 L-151.7,-12227.4 L-151.7,-12528.2 L-153.2,-12637.4 L7802.9,-15923.2 L7802.9,2185.9 L-2053.4,2185.9 L-2053.4,-6806.9 Z" fill="#add7e1" stroke="none"><title>Biscayne Bay</title></path><path d="M-1.0,-1.0 L257.0,-1.0 L257.0,257.0 L-1.0,257.0 L-1.0,-1.0 Z" fill="#add7e1" stroke="none" fill-rule="evenodd"><title>Biscayne Bay</title></path><path d="M-6084.9,-2985.4 L-4127.6,-2778.5 L-1704.2,-1847.5 L-26.5,-606.3 L532.8,1565.4 L-585.7,2185.9 L-5805.3,2185.9 L-6923.8,-502.9 Z" fill="#add7e1" stroke="none"><title>Biscayne Bay</title></path><path d="M42.3,-5663.8 L-1512.5,1022.4" fill="none" stroke="#6fb5c7" stroke-width="1.4" stroke-dasharray="5 7" opacity="0.34" stroke-linecap="round" stroke-linejoin="round"><title>Atlantic Intracoastal Waterway</title></path></svg>