<svg xmlns="http://www.w3.org/2000/svg" width="256" height="256" viewBox="0 0 256 256"><rect width="256" height="256" fill="#f1efe7"/><path d="M-2053.4,-7830.9 L-1946.0,-7875.5 L-1912.4,-7891.6 L-1762.1,-7963.8 L-1733.9,-7936.5 L-1731.4,-7934.2 L-1678.8,-7979.2 L-1666.2,-7988.8 L-1645.3,-8007.7 L-1527.2,-8116.1 L-1431.9,-8224.9 L-1428.3,-8231.8 L-1424.8,-8235.8 L-1419.2,-8242.1 L-1413.6,-8248.6 L-1411.3,-8251.3 L-1448.9,-8299.8 L-1399.2,-8329.6 L-1372.2,-8293.7 L-1334.1,-8337.3 L-1366.4,-8380.1 L-1326.4,-8421.7 L-1295.7,-8381.2 L-1260.3,-8421.4 L-1245.3,-8431.2 L-1171.7,-8479.0 L-1135.3,-8503.1 L-1091.5,-8532.0 L-1070.8,-8545.5 L-1018.4,-8579.4 L-1031.9,-8597.2 L-1056.1,-8629.5 L-993.6,-8669.2 L-970.8,-8681.0 L-969.1,-8682.2 L-957.1,-8691.5 L-914.3,-8714.3 L-911.3,-8719.0 L-899.3,-8727.2 L-892.8,-8736.7 L-891.0,-8738.1 L-880.6,-8742.1 L-856.9,-8750.6 L-840.8,-8757.7 L-783.7,-8784.5 L-783.0,-8782.6 L-735.2,-8803.1 L-715.7,-8778.0 L-672.1,-8807.1 L-665.9,-8811.3 L-665.3,-8811.8 L-664.7,-8812.6 L-663.8,-8814.3 L-663.2,-8815.8 L-663.0,-8817.7 L-663.0,-8819.2 L-663.2,-8820.6 L-663.4,-8822.3 L-663.5,-8823.5 L-663.4,-8824.6 L-663.1,-8825.7 L-662.3,-8827.7 L-661.8,-8828.8 L-660.6,-8830.7 L-659.2,-8832.1 L-652.9,-8834.7 L-647.6,-8836.6 L-640.8,-8838.8 L-637.7,-8839.7 L-632.1,-8841.5 L-628.1,-8843.0 L-622.7,-8845.2 L-615.3,-8848.4 L-607.3,-8852.2 L-603.0,-8854.3 L-597.6,-8857.0 L-592.6,-8859.9 L-587.5,-8862.9 L-582.4,-8866.2 L-580.8,-8867.3 L-570.4,-8875.2 L-561.7,-8881.9 L-553.2,-8889.1 L-545.2,-8896.6 L-539.5,-8903.1 L-533.8,-8910.0 L-526.8,-8919.0 L-520.4,-8928.0 L-513.1,-8939.6 L-508.3,-8948.5 L-505.3,-8954.2 L-500.8,-8963.9 L-497.1,-8972.8 L-493.7,-8982.4 L-491.0,-8990.9 L-488.1,-9004.6 L-485.9,-9016.8 L-484.7,-9027.4 L-483.8,-9039.7 L-483.6,-9053.0 L-484.5,-9065.3 L-486.6,-9081.2 L-488.7,-9092.1 L-491.3,-9102.5 L-494.9,-9114.1 L-498.1,-9123.1 L-501.7,-9132.9 L-505.1,-9140.9 L-507.4,-9146.2 L-508.4,-9150.0 L-508.5,-9153.0 L-508.2,-9155.6 L-507.1,-9157.9 L-505.5,-9159.9 L-503.4,-9161.0 L-501.2,-9161.3 L-495.1,-9159.8 L-478.3,-9155.8 L-472.7,-9283.1 L-450.8,-9510.4 L-474.6,-9516.1 L-477.2,-9523.2 L-477.1,-9533.4 L-473.8,-9556.7 L-469.3,-9561.9 L-465.3,-9577.1 L-440.1,-9571.2 L-426.1,-9716.4 L-422.3,-9756.7 L-430.1,-9758.6 L-425.4,-9777.8 L-441.6,-9781.6 L-439.5,-9793.4 L-436.7,-9801.1 L-433.1,-9810.2 L-427.1,-9822.8 L-420.7,-9821.4 L-411.9,-9912.7 L-409.9,-9968.1 L-409.5,-9978.3 L-404.8,-10013.6 L-395.4,-10101.5 L-333.0,-10264.2 L-318.8,-10308.5 L-145.5,-10375.0 L-128.5,-10381.8 L-125.6,-10383.4 L-123.2,-10385.5 L-120.7,-10388.4 L-118.8,-10391.9 L-117.5,-10395.3 L-117.1,-10400.2 L-117.4,-10406.4 L-119.7,-10484.1 L-120.6,-10499.2 L-120.8,-10509.6 L-121.1,-10529.6 L-121.5,-10535.9 L-122.3,-10541.2 L-123.4,-10546.0 L-124.9,-10550.7 L-127.3,-10556.4 L-130.9,-10562.5 L-134.5,-10567.3 L-137.2,-10571.8 L-139.9,-10577.8 L-142.2,-10583.7 L-143.1,-10588.4 L-143.8,-10593.6 L-144.1,-10598.9 L-144.0,-10604.0 L-143.4,-10609.9 L-142.0,-10615.8 L-140.1,-10621.0 L-138.2,-10625.8 L-135.7,-10630.4 L-132.7,-10635.9 L-130.6,-10641.0 L-128.9,-10647.5 L-125.7,-10652.3 L-126.8,-10697.0 L-128.4,-10699.5 L-129.0,-10729.8 L-129.8,-10765.6 L-129.2,-10770.5 L-127.6,-10775.6 L-123.6,-10783.5 L-96.9,-10841.0 L-96.3,-10842.0 L-91.6,-10852.2 L-87.1,-10862.0 L-82.2,-10872.0 L-77.2,-10882.2 L-74.8,-10887.3 L-48.6,-10941.2 L-20.5,-11000.8 L40.4,-11124.2 L3.8,-11165.1 L-26.0,-11101.7 L-51.8,-11046.7 L-55.7,-11038.9 L-63.6,-11022.7 L-79.5,-11024.0 L-83.9,-11024.3 L-85.4,-11022.8 L-83.3,-11020.9 L-91.5,-11013.7 L-97.9,-11007.7 L-99.1,-10982.3 L-101.5,-10977.2 L-109.3,-10977.5 L-110.6,-10978.0 L-212.8,-11020.1 L-215.0,-11021.3 L-217.4,-11022.8 L-221.0,-11025.6 L-223.9,-11028.3 L-226.3,-11030.9 L-228.6,-11034.1 L-230.4,-11036.9 L-231.8,-11039.8 L-233.0,-11042.9 L-233.7,-11044.9 L-234.2,-11047.5 L-234.7,-11050.5 L-235.1,-11054.6 L-235.1,-11060.4 L-235.8,-11080.3 L-233.0,-11080.5 L-233.4,-11090.9 L-233.8,-11108.2 L-231.2,-11108.3 L-231.4,-11120.1 L-234.3,-11120.0 L-235.7,-11169.8 L-232.9,-11169.9 L-233.4,-11181.5 L-236.1,-11181.4 L-237.2,-11218.2 L-223.7,-11232.7 L-206.5,-11233.3 L-193.6,-11233.8 L-176.7,-11234.3 L-160.4,-11234.9 L-145.7,-11235.4 L-139.4,-11235.6 L-139.7,-11241.3 L-139.8,-11247.2 L-140.8,-11266.3 L-141.1,-11302.9 L-141.6,-11303.5 L-141.7,-11307.2 L-140.6,-11307.2 L-143.2,-11395.3 L-145.4,-11478.1 L-145.8,-11480.7 L-146.0,-11485.5 L-182.1,-11484.2 L-206.1,-11486.3 L-385.7,-11480.0 L-385.7,-11481.6 L-386.1,-11489.3 L-471.3,-11486.3 L-471.5,-11500.4 L-482.7,-11502.9 L-484.7,-11563.5 L-153.3,-11575.0 L-147.8,-11582.6 L-148.0,-11604.1 L-148.4,-11622.6 L-148.7,-11634.3 L-149.2,-11645.6 L-175.5,-11658.1 L-176.6,-11685.6 L-149.5,-11699.0 L-152.0,-11762.7 L-152.7,-11765.9 L-179.5,-11778.4 L-180.4,-11812.5 L-154.9,-11825.7 L-166.3,-11964.1 L-163.2,-12025.8 L-161.8,-12126.2 L-161.9,-12235.4 L-159.5,-12250.8 L-159.3,-12258.1 L-161.7,-12267.1 L-159.2,-12267.1 L-159.2,-12275.1 L-157.7,-12480.6 L-157.9,-12489.8 L-160.8,-12489.7 L-160.7,-12527.5 L-162.4,-12529.9 L-164.9,-12568.9 L-159.8,-12604.5 L-160.5,-12647.7 L-162.2,-12658.0 L-159.6,-12690.0 L-161.4,-12728.6 L-165.9,-12770.0 L-174.4,-12837.0 L-170.4,-12855.4 L-172.1,-12873.4 L-187.4,-12886.5 L-209.9,-12886.2 L-244.1,-12881.7 L-266.3,-12881.7 L-286.6,-12889.2 L-313.1,-12907.4 L-313.1,-12940.0 L-313.8,-12980.2 L-311.2,-13013.6 L-302.4,-13039.7 L-155.0,-13042.4 L-151.7,-13251.4 L-151.7,-13552.2 L-153.2,-13661.4 L7802.9,-16947.2 L7802.9,1161.9 L-2053.4,1161.9 L-2053.4,-7830.9 Z" fill="#add7e1" stroke="none"><title>Biscayne Bay</title></path><path d="M-1.0,-1.0 L257.0,-1.0 L257.0,257.0 L-1.0,257.0 L-1.0,-1.0 Z" fill="#add7e1" stroke="none" fill-rule="evenodd"><title>Biscayne Bay</title></path><path d="M-6084.9,-4009.4 L-4127.6,-3802.5 L-1704.2,-2871.5 L-26.5,-1630.3 L532.8,541.4 L-585.7,1161.9 L-5805.3,1161.9 L-6923.8,-1526.9 Z" fill="#add7e1" stroke="none"><title>Biscayne Bay</title></path><path d="M42.3,-6687.8 L-1512.5,-1.6" fill="none" stroke="#6fb5c7" stroke-width="1.4" stroke-dasharray="5 7" opacity="0.34" stroke-linecap="round" stroke-linejoin="round"><title>Atlantic Intracoastal Waterway</title></path></svg>