<svg xmlns="http://www.w3.org/2000/svg" width="256" height="256" viewBox="0 0 256 256"><defs><pattern id="park-dots" width="22" height="22" patternUnits="userSpaceOnUse"><circle cx="5" cy="5" r="2.1" fill="#63a95d" fill-opacity="0.26"/><circle cx="16" cy="7" r="1.55" fill="#76b970" fill-opacity="0.23"/><circle cx="10" cy="17" r="1.9" fill="#61a65b" fill-opacity="0.24"/><circle cx="21" cy="17" r="1.25" fill="#80c174" fill-opacity="0.18"/><circle cx="1" cy="19" r="1.2" fill="#70b46a" fill-opacity="0.17"/></pattern><pattern id="park-canopy" width="54" height="48" patternUnits="userSpaceOnUse"><circle cx="12" cy="11" r="3.6" fill="#5ea75a" fill-opacity="0.22"/><circle cx="31" cy="15" r="2.9" fill="#75ba6d" fill-opacity="0.18"/><circle cx="45" cy="31" r="3.3" fill="#67ae62" fill-opacity="0.20"/><circle cx="19" cy="39" r="2.5" fill="#83c378" fill-opacity="0.16"/></pattern></defs><rect width="256" height="256" fill="#f1efe7"/><path d="M-9994.7,6354.3 L-9779.9,6265.0 L-9712.7,6232.7 L-9412.2,6088.4 L-9355.8,6143.0 L-9350.9,6147.7 L-9245.5,6057.5 L-9220.4,6038.4 L-9178.5,6000.6 L-8942.4,5783.8 L-8751.9,5566.2 L-8744.6,5552.3 L-8737.6,5544.4 L-8726.5,5531.7 L-8715.2,5518.8 L-8710.6,5513.5 L-8785.7,5416.4 L-8686.3,5356.8 L-8632.4,5428.5 L-8556.2,5341.3 L-8620.7,5255.9 L-8540.8,5172.6 L-8479.3,5253.6 L-8408.7,5173.2 L-8378.6,5153.5 L-8231.4,5058.0 L-8158.7,5009.7 L-8071.1,4952.1 L-8029.7,4924.9 L-7924.8,4857.2 L-7951.8,4821.7 L-8000.1,4757.0 L-7875.2,4677.6 L-7829.7,4654.1 L-7826.2,4651.6 L-7802.2,4633.1 L-7716.6,4587.3 L-7710.7,4578.1 L-7686.7,4561.6 L-7673.7,4542.6 L-7670.0,4539.8 L-7649.1,4531.7 L-7601.9,4514.8 L-7569.6,4500.6 L-7455.5,4447.0 L-7454.1,4450.7 L-7358.4,4409.8 L-7319.3,4459.9 L-7232.2,4401.8 L-7219.8,4393.3 L-7218.6,4392.3 L-7217.4,4390.7 L-7215.5,4387.4 L-7214.5,4384.3 L-7213.9,4380.6 L-7214.0,4377.6 L-7214.4,4374.7 L-7214.8,4371.4 L-7214.9,4368.9 L-7214.7,4366.8 L-7214.3,4364.6 L-7212.7,4360.6 L-7211.6,4358.4 L-7209.1,4354.6 L-7206.5,4351.8 L-7193.8,4346.7 L-7183.2,4342.7 L-7169.7,4338.3 L-7163.4,4336.6 L-7152.2,4332.9 L-7144.3,4330.1 L-7133.4,4325.6 L-7118.6,4319.1 L-7102.6,4311.6 L-7094.0,4307.4 L-7083.2,4301.9 L-7073.1,4296.3 L-7063.0,4290.3 L-7052.7,4283.6 L-7049.5,4281.4 L-7028.8,4265.6 L-7011.4,4252.2 L-6994.4,4237.8 L-6978.5,4222.8 L-6967.0,4209.9 L-6955.6,4196.0 L-6941.6,4178.0 L-6928.8,4160.0 L-6914.1,4136.9 L-6904.5,4119.0 L-6898.5,4107.6 L-6889.6,4088.3 L-6882.1,4070.4 L-6875.4,4051.1 L-6870.0,4034.2 L-6864.1,4006.8 L-6859.8,3982.3 L-6857.5,3961.3 L-6855.5,3936.5 L-6855.3,3910.0 L-6856.9,3885.5 L-6861.1,3853.5 L-6865.5,3831.7 L-6870.5,3811.1 L-6877.9,3787.7 L-6884.2,3769.8 L-6891.4,3750.3 L-6898.2,3734.1 L-6902.8,3723.6 L-6904.7,3715.9 L-6905.0,3710.0 L-6904.4,3704.7 L-6902.3,3700.1 L-6899.1,3696.2 L-6894.9,3694.0 L-6890.4,3693.4 L-6878.3,3696.3 L-6844.6,3704.4 L-6833.4,3449.7 L-6789.7,2995.1 L-6837.2,2983.9 L-6842.4,2969.6 L-6842.2,2949.1 L-6835.6,2902.6 L-6826.6,2892.1 L-6818.6,2861.9 L-6768.1,2873.6 L-6740.3,2583.1 L-6732.6,2502.7 L-6748.3,2498.8 L-6738.8,2460.4 L-6771.1,2452.7 L-6767.0,2429.2 L-6761.3,2413.7 L-6754.2,2395.6 L-6742.2,2370.3 L-6729.3,2373.2 L-6711.9,2190.5 L-6707.8,2079.7 L-6707.0,2059.3 L-6697.6,1988.8 L-6678.9,1813.1 L-6554.1,1487.7 L-6525.6,1399.0 L-6178.9,1266.0 L-6145.0,1252.4 L-6139.1,1249.2 L-6134.5,1245.0 L-6129.4,1239.1 L-6125.5,1232.2 L-6122.9,1225.4 L-6122.3,1215.5 L-6122.8,1203.2 L-6127.4,1047.7 L-6129.1,1017.6 L-6129.6,996.9 L-6130.3,956.7 L-6131.1,944.1 L-6132.6,933.5 L-6134.7,924.1 L-6137.8,914.5 L-6142.7,903.2 L-6149.9,891.1 L-6156.9,881.5 L-6162.3,872.4 L-6167.8,860.3 L-6172.4,848.7 L-6174.2,839.2 L-6175.6,828.7 L-6176.3,818.2 L-6176.0,808.0 L-6174.8,796.1 L-6172.0,784.4 L-6168.3,774.0 L-6164.4,764.5 L-6159.4,755.3 L-6153.3,744.1 L-6149.3,734.0 L-6145.8,721.1 L-6139.4,711.3 L-6141.6,622.1 L-6144.9,616.9 L-6145.9,556.3 L-6147.6,484.8 L-6146.4,474.9 L-6143.2,464.8 L-6135.2,449.0 L-6081.7,333.9 L-6080.6,332.0 L-6071.2,311.5 L-6062.3,292.1 L-6052.3,272.1 L-6042.5,251.5 L-6037.7,241.5 L-5985.1,133.6 L-5928.9,14.4 L-5807.3,-232.4 L-5880.4,-314.3 L-5940.0,-187.3 L-5991.5,-77.4 L-5999.3,-61.8 L-6015.2,-29.3 L-6047.0,-32.0 L-6055.7,-32.5 L-6058.8,-29.7 L-6054.6,-25.9 L-6070.9,-11.4 L-6083.8,0.5 L-6086.2,51.4 L-6091.0,61.6 L-6106.6,61.0 L-6109.2,60.1 L-6313.6,-24.3 L-6318.0,-26.6 L-6322.7,-29.6 L-6330.1,-35.2 L-6335.8,-40.6 L-6340.6,-45.8 L-6345.3,-52.2 L-6348.9,-57.8 L-6351.7,-63.6 L-6353.9,-69.7 L-6355.4,-73.9 L-6356.5,-79.0 L-6357.3,-85.0 L-6358.1,-93.2 L-6358.1,-104.9 L-6359.5,-144.6 L-6353.9,-144.9 L-6354.7,-165.9 L-6355.6,-200.5 L-6350.4,-200.6 L-6350.8,-224.2 L-6356.7,-224.1 L-6359.4,-323.5 L-6353.8,-323.8 L-6354.7,-347.1 L-6360.1,-346.9 L-6362.4,-420.4 L-6335.4,-449.5 L-6300.9,-450.7 L-6275.2,-451.6 L-6241.3,-452.7 L-6208.7,-453.7 L-6179.5,-454.7 L-6166.8,-455.3 L-6167.4,-466.6 L-6167.6,-478.4 L-6169.5,-516.7 L-6170.2,-589.8 L-6171.2,-591.1 L-6171.4,-598.3 L-6169.3,-598.4 L-6174.4,-774.5 L-6178.8,-940.2 L-6179.5,-945.4 L-6179.9,-955.0 L-6252.1,-952.4 L-6300.1,-956.5 L-6659.4,-944.0 L-6659.5,-947.2 L-6660.2,-962.5 L-6830.6,-956.5 L-6830.9,-984.8 L-6853.4,-989.9 L-6857.4,-1111.0 L-6194.6,-1134.0 L-6183.6,-1149.1 L-6184.0,-1192.1 L-6184.8,-1229.3 L-6185.4,-1252.6 L-6186.3,-1275.3 L-6239.0,-1300.1 L-6241.1,-1355.2 L-6187.1,-1382.0 L-6192.0,-1509.5 L-6193.4,-1515.8 L-6247.1,-1540.9 L-6248.8,-1609.1 L-6197.8,-1635.4 L-6220.5,-1912.3 L-6214.5,-2035.5 L-6211.5,-2236.4 L-6211.7,-2454.9 L-6206.9,-2485.5 L-6206.6,-2500.3 L-6211.4,-2518.1 L-6206.4,-2518.1 L-6206.4,-2534.2 L-6203.4,-2945.2 L-6203.9,-2963.5 L-6209.6,-2963.5 L-6209.4,-3039.1 L-6212.7,-3043.8 L-6217.9,-3121.8 L-6207.6,-3193.1 L-6208.9,-3279.4 L-6212.4,-3300.1 L-6207.1,-3364.0 L-6210.7,-3441.3 L-6219.7,-3524.0 L-6236.8,-3658.0 L-6228.7,-3694.9 L-6232.3,-3730.8 L-6262.9,-3756.9 L-6307.8,-3756.5 L-6376.2,-3747.5 L-6420.7,-3747.5 L-6461.1,-3762.3 L-6514.2,-3798.7 L-6514.2,-3864.0 L-6515.6,-3944.3 L-6510.4,-4011.2 L-6492.8,-4063.4 L-6198.1,-4068.9 L-6191.3,-4486.8 L-6191.3,-5088.4 L-6194.4,-5306.7 L9717.8,-11878.4 L9717.8,24339.8 L-9994.7,24339.8 L-9994.7,6354.3 Z" fill="#add7e1" stroke="none"><title>Biscayne Bay</title></path><path d="M278.7,753.1 L339.6,756.3 L381.1,756.3 L440.4,741.9 L480.4,725.9 L520.4,698.7 L549.2,671.5 L578.0,634.7 L600.3,599.5 L613.2,556.3 L625.9,497.1 L625.9,439.5 L617.9,380.3 L608.3,311.5 L547.5,-147.9 L507.6,-472.5 L498.0,-520.5 L482.0,-558.9 L459.6,-592.5 L427.5,-637.3 L398.7,-670.9 L355.6,-699.7 L309.2,-715.7 L256.4,-725.3 L176.4,-723.7 L114.0,-712.5 L51.5,-674.1 L-12.4,-621.3 L-58.8,-557.3 L-74.8,-488.5 L-72.0,-448.7 L-66.8,-374.9 L-55.2,-296.7 L-52.9,-281.2 L-41.2,-202.7 L-31.1,-134.8 L-23.7,-84.7 L-14.9,-25.7 L-4.5,44.3 L-0.3,82.8 L22.7,284.3 L45.2,489.1 L58.0,548.3 L66.0,578.7 L83.6,609.1 L109.2,644.3 L141.9,679.7 L165.7,701.0 L198.8,721.1 L213.6,727.5 L236.8,737.4 L243.6,740.3 L278.7,753.1 Z" fill="#f1efe7" stroke="#8ab09d" stroke-width="0.65"><title>Star Island</title></path><path d="M-5374.1,-357.3 L-5421.4,-381.0 L-5425.1,-379.3 L-5480.0,-250.2 L-5485.6,-232.7 L-5495.7,-213.3 L-5502.8,-196.1 L-5537.4,-116.8 L-5540.2,-110.0 L-5541.3,-105.1 L-5541.8,-100.0 L-5541.4,-95.3 L-5537.7,-86.7 L-5533.1,-79.2 L-5530.1,-74.6 L-5526.0,-68.9 L-5515.5,-55.6 L-5482.0,-11.7 L-5443.2,39.9 L-5429.8,54.4 L-5408.3,80.4 L-5388.1,107.0 L-5367.4,132.5 L-5356.1,150.0 L-5344.8,166.2 L-5342.8,168.6 L-5339.9,169.9 L-5337.1,169.3 L-5336.0,168.7 L-5337.9,187.1 L-5230.4,322.3 L-5220.6,315.7 L-5217.3,315.8 L-5212.3,316.2 L-5205.8,317.8 L-5198.9,321.0 L-5193.0,323.6 L-5189.5,325.3 L-5185.1,328.2 L-5181.4,331.8 L-5173.5,340.3 L-5161.8,353.1 L-5150.9,365.9 L-5142.0,377.8 L-5127.5,403.8 L-5118.1,421.9 L-5107.2,446.1 L-5095.7,468.8 L-5076.4,507.4 L-5071.3,513.8 L-5064.2,521.1 L-5056.7,528.1 L-5005.0,568.0 L-4999.1,573.3 L-4994.9,577.6 L-4990.9,584.0 L-4978.6,618.4 L-4976.6,625.3 L-4614.7,798.3 L-4595.8,807.3 L-4405.3,898.3 L-4214.0,989.8 L-4163.2,969.9 L-4147.8,1021.7 L-3569.8,1297.4 L-3588.0,1336.8 L-3526.8,1366.5 L-3507.4,1326.8 L-2942.0,1596.3 L-2527.7,1797.1 L-2542.2,1827.8 L-2480.7,1857.4 L-2466.4,1826.0 L-2203.5,1951.1 L-2241.2,2026.8 L-1652.9,2313.7 L-781.6,2339.8 L-170.8,2357.9 L-25.2,2362.9 L537.2,2378.7 L583.2,2379.9 L583.3,2377.3 L916.2,2387.3 L988.3,2389.5 L1058.5,2391.7 L1058.3,2394.9 L1141.7,2396.3 L1161.5,2397.8 L1161.8,2392.3 L1242.3,2315.7 L1249.5,2316.0 L1264.6,2332.8 L1270.7,2328.4 L1274.6,2329.7 L1279.8,2329.6 L1287.6,2327.7 L1296.3,2325.0 L1302.7,2321.2 L1308.7,2315.6 L1322.9,2284.1 L1326.9,2273.5 L1328.3,2263.9 L1328.6,2254.6 L1324.8,2235.6 L1322.9,2229.5 L1319.7,2223.5 L1314.3,2214.9 L1307.2,2205.4 L1301.2,2199.1 L1289.0,2188.8 L1274.9,2178.2 L1252.1,2162.1 L1227.8,2149.3 L1214.9,2142.5 L1197.9,2135.9 L1172.9,2125.6 L1060.6,2065.6 L951.5,1998.3 L910.0,1968.0 L864.0,1938.8 L725.1,1861.8 L576.6,1792.5 L569.5,1807.6 L541.0,1793.9 L513.6,1852.3 L205.4,1711.1 L118.7,1670.3 L15.3,1623.4 L-279.6,1487.6 L-546.1,1365.1 L-653.0,1315.7 L-706.1,1292.3 L-760.6,1268.0 L-983.5,1161.0 L-1349.0,986.5 L-1504.8,911.6 L-1548.8,1002.5 L-2034.3,770.6 L-2278.8,653.7 L-2516.6,539.7 L-2905.5,354.2 L-3295.5,167.6 L-3799.9,-73.0 L-4214.7,-270.7 L-4292.4,-310.9 L-4522.0,-417.8 L-4756.5,-530.2 L-5227.4,-755.4 L-5250.5,-692.1 L-5369.2,-377.4 L-5366.8,-373.3 L-5374.1,-357.3 Z" fill="#f1efe7" stroke="#8ab09d" stroke-width="0.65"></path><path d="M279.5,749.6 L339.7,752.7 L380.7,752.7 L439.3,738.5 L478.7,722.7 L518.1,695.9 L546.5,669.1 L575.0,632.6 L597.0,598.0 L609.7,555.4 L622.3,496.7 L622.3,439.8 L614.4,380.8 L604.8,312.0 L504.0,-471.9 L494.5,-519.4 L478.8,-557.2 L456.6,-590.4 L424.7,-635.1 L396.3,-668.2 L353.9,-696.4 L308.2,-712.2 L256.1,-721.7 L176.7,-720.1 L115.3,-709.1 L53.7,-671.2 L-9.8,-618.8 L-55.5,-555.8 L-71.2,-488.2 L-63.3,-375.3 L-0.9,43.8 L26.3,283.9 L48.7,488.5 L61.5,547.5 L69.3,577.3 L86.6,607.1 L111.9,642.0 L146.8,676.9 L175.3,702.2 L200.4,717.9 L244.9,737.0 L279.5,749.6 Z" fill="#ece7dc" stroke="#d7d1c5" stroke-width="0.3"></path><path d="M337.6,503.2 L345.1,500.2 L359.6,491.3 L365.3,485.3 L371.1,473.3 L372.5,463.5 L372.6,448.1 L254.8,-439.2 L252.8,-447.4 L247.3,-458.2 L241.5,-463.0 L232.5,-467.8 L221.7,-469.0 L208.8,-468.5 L201.8,-466.2 L193.1,-460.9 L187.0,-453.2 L183.5,-441.3 L182.2,-430.2 L184.5,-410.0 L300.5,467.8 L303.7,480.0 L309.1,490.1 L312.8,494.3 L320.2,499.5 L329.5,502.2 L337.6,503.2 Z" fill="#d5f2cb" stroke="#9fcf91" stroke-width="0.4"><title>Buoy Park</title></path><path d="M337.6,503.2 L345.1,500.2 L359.6,491.3 L365.3,485.3 L371.1,473.3 L372.5,463.5 L372.6,448.1 L254.8,-439.2 L252.8,-447.4 L247.3,-458.2 L241.5,-463.0 L232.5,-467.8 L221.7,-469.0 L208.8,-468.5 L201.8,-466.2 L193.1,-460.9 L187.0,-453.2 L183.5,-441.3 L182.2,-430.2 L184.5,-410.0 L300.5,467.8 L303.7,480.0 L309.1,490.1 L312.8,494.3 L320.2,499.5 L329.5,502.2 L337.6,503.2 Z" fill="url(#park-dots)" stroke="none"/><path d="M337.6,503.2 L345.1,500.2 L359.6,491.3 L365.3,485.3 L371.1,473.3 L372.5,463.5 L372.6,448.1 L254.8,-439.2 L252.8,-447.4 L247.3,-458.2 L241.5,-463.0 L232.5,-467.8 L221.7,-469.0 L208.8,-468.5 L201.8,-466.2 L193.1,-460.9 L187.0,-453.2 L183.5,-441.3 L182.2,-430.2 L184.5,-410.0 L300.5,467.8 L303.7,480.0 L309.1,490.1 L312.8,494.3 L320.2,499.5 L329.5,502.2 L337.6,503.2 Z" fill="url(#park-canopy)" stroke="none"/><path d="M177.2,202.7 L172.6,209.3 L175.1,230.4 L180.0,236.0 L202.9,233.6 L213.6,232.5 L235.4,230.2 L240.8,223.9 L238.4,200.1 L231.3,195.6 L177.2,202.7 Z" fill="#c7dfbd" stroke="#8eb580" stroke-width="0.5"></path><path d="M-1.0,-1.0 L257.0,-1.0 L257.0,257.0 L-1.0,257.0 L-1.0,-1.0 Z M257.0,257.0 L257.0,-1.0 L-1.0,-1.0 L-1.0,76.1 L-0.3,82.8 L19.6,257.0 L257.0,257.0 Z" fill="#add7e1" stroke="none" fill-rule="evenodd"><title>Biscayne Bay</title></path><path d="M37.2,192.0 L39.6,209.8 L57.8,207.3 L55.3,189.4 L37.2,192.0 Z" fill="#d6d2c9" stroke="#bab6ad" stroke-width="0.4"></path><path d="M21.5,207.6 L20.3,202.5 L23.0,198.5 L27.6,197.8 L31.9,199.8 L32.8,205.3 L30.2,209.0 L25.3,209.4 L21.5,207.6 Z" fill="#d6d2c9" stroke="#bab6ad" stroke-width="0.4"></path><path d="M102.7,105.5 L103.3,111.3 L124.6,109.1 L128.0,141.8 L132.1,141.3 L133.0,150.1 L123.5,151.1 L124.8,163.5 L119.4,164.1 L121.3,182.5 L115.6,183.1 L116.3,189.8 L73.7,194.3 L72.0,177.1 L78.7,176.4 L77.3,162.5 L81.8,162.0 L78.7,131.5 L64.3,133.0 L61.9,109.8 L102.7,105.5 Z" fill="#d6d2c9" stroke="#bab6ad" stroke-width="0.4"></path><path d="M137.2,185.6 L126.8,186.8 L125.2,173.0 L135.6,171.8 L137.2,185.6 Z" fill="#d6d2c9" stroke="#bab6ad" stroke-width="0.4"></path><path d="M186.1,261.5 L214.8,257.7 L215.1,259.8 L219.1,259.3 L218.8,257.3 L235.7,255.0 L240.6,291.4 L219.2,294.2 L216.5,274.3 L188.3,278.1 L186.1,261.5 Z" fill="#d6d2c9" stroke="#bab6ad" stroke-width="0.4"></path><path d="M164.6,204.9 L150.0,206.8 L150.2,208.2 L146.5,208.6 L146.3,207.0 L140.9,207.7 L140.7,206.0 L89.6,212.3 L89.8,214.3 L84.0,215.0 L86.1,231.7 L90.8,231.1 L91.2,233.8 L90.3,233.9 L91.2,241.1 L77.2,242.9 L80.4,267.8 L116.0,263.2 L115.7,261.2 L117.5,261.0 L116.0,249.2 L117.4,249.0 L116.4,241.2 L114.4,241.5 L112.5,226.8 L118.9,225.9 L118.5,222.7 L140.7,219.8 L141.1,223.1 L154.0,221.5 L153.8,219.9 L163.5,218.6 L163.0,214.5 L165.7,214.2 L164.6,204.9 Z" fill="#d6d2c9" stroke="#bab6ad" stroke-width="0.4"></path><path d="M203.5,238.5 L214.2,237.4 L213.6,232.5 L202.9,233.6 L203.5,238.5 Z" fill="#d6d2c9" stroke="#bab6ad" stroke-width="0.4"></path><path d="M34.4,150.5 L40.5,148.6 L47.8,148.3 L54.2,149.5 L56.2,152.0 L57.3,159.4 L55.6,161.9 L49.3,164.3 L42.1,165.6 L35.8,165.6 L32.2,164.9 L30.1,162.5 L28.8,159.4 L28.5,155.9 L30.2,153.0 L31.9,151.5 L34.4,150.5 Z" fill="#e0e9e8" stroke="#91b7bc" stroke-width="0.55"></path><path d="M38.5,259.5 L37.5,251.0 L39.6,249.8 L41.2,247.5 L41.6,245.1 L40.6,242.5 L39.1,240.9 L36.7,240.3 L34.5,226.9 L83.9,220.3 L84.6,227.8 L54.0,231.9 L58.1,260.9 L56.7,262.1 L54.1,262.4 L51.6,261.8 L49.5,260.6 L48.0,258.5 L38.5,259.5 Z" fill="#e0e9e8" stroke="#91b7bc" stroke-width="0.55"></path><path d="M60.0,152.9 L60.4,155.3 L61.5,155.6 L62.7,156.8 L64.4,155.3 L64.6,153.0 L64.0,150.9 L62.1,150.0 L61.4,151.6 L60.0,152.9 Z" fill="#e0e9e8" stroke="#91b7bc" stroke-width="0.55"></path><path d="M-4932.9,-902.4 L1656.2,2065.3" fill="none" stroke="#6fb5c7" stroke-width="1.7" stroke-dasharray="5 7" opacity="0.34" stroke-linecap="round" stroke-linejoin="round"><title>Main Channel</title></path><path d="M263.7,238.0 L172.8,249.1 L162.2,250.7 L144.8,253.2 L134.9,248.9 L133.1,238.5 L137.6,230.9 L151.2,229.0 L160.4,239.0 L162.2,250.7" fill="none" stroke="#cec8bb" stroke-width="3.5" stroke-linecap="round" stroke-linejoin="round"/><path d="M263.7,238.0 L172.8,249.1 L162.2,250.7 L144.8,253.2 L134.9,248.9 L133.1,238.5 L137.6,230.9 L151.2,229.0 L160.4,239.0 L162.2,250.7" fill="none" stroke="#ffffff" stroke-width="2.5" stroke-linecap="round" stroke-linejoin="round"></path><path d="M255.1,172.1 L198.2,180.0 L164.0,162.0 L148.9,166.3 L138.8,162.6 L133.9,155.3 L136.2,147.1 L140.3,142.9 L147.5,141.3 L154.6,142.9 L159.1,146.6 L163.1,154.2 L164.0,162.0" fill="none" stroke="#cec8bb" stroke-width="3.5" stroke-linecap="round" stroke-linejoin="round"/><path d="M255.1,172.1 L198.2,180.0 L164.0,162.0 L148.9,166.3 L138.8,162.6 L133.9,155.3 L136.2,147.1 L140.3,142.9 L147.5,141.3 L154.6,142.9 L159.1,146.6 L163.1,154.2 L164.0,162.0" fill="none" stroke="#ffffff" stroke-width="2.5" stroke-linecap="round" stroke-linejoin="round"></path><path d="M232.5,0.3 L135.5,2.8 L127.7,11.5 L119.5,16.2 L109.9,15.3 L104.8,9.3 L102.3,2.4 L105.0,-3.8 L111.5,-7.9 L120.8,-7.3 L128.2,-2.4 L135.5,2.8" fill="none" stroke="#cec8bb" stroke-width="3.5" stroke-linecap="round" stroke-linejoin="round"/><path d="M232.5,0.3 L135.5,2.8 L127.7,11.5 L119.5,16.2 L109.9,15.3 L104.8,9.3 L102.3,2.4 L105.0,-3.8 L111.5,-7.9 L120.8,-7.3 L128.2,-2.4 L135.5,2.8" fill="none" stroke="#ffffff" stroke-width="2.5" stroke-linecap="round" stroke-linejoin="round"></path><path d="M215.9,-126.2 L232.5,0.3 L255.1,172.1 L263.7,238.0 L279.1,354.8" fill="none" stroke="#cec8bb" stroke-width="4.8" stroke-linecap="round" stroke-linejoin="round"/><path d="M215.9,-126.2 L232.5,0.3 L255.1,172.1 L263.7,238.0 L279.1,354.8" fill="none" stroke="#ffffff" stroke-width="3.7" stroke-linecap="round" stroke-linejoin="round"><title>West Star Island Drive</title></path><text x="102.3" y="172.6" text-anchor="middle" font-family="Arial, sans-serif" font-size="6.5" textLength="18.0" lengthAdjust="spacing" font-weight="500" paint-order="stroke" stroke="#f3f5ee" stroke-width="1.55" stroke-linejoin="round" fill="#6f777a">8</text><text x="95.6" y="126.5" text-anchor="middle" font-family="Arial, sans-serif" font-size="6.5" textLength="18.0" lengthAdjust="spacing" font-weight="500" paint-order="stroke" stroke="#f3f5ee" stroke-width="1.55" stroke-linejoin="round" fill="#6f777a">9</text><text x="138.0" y="236.8" text-anchor="middle" font-family="Arial, sans-serif" font-size="6.5" textLength="18.0" lengthAdjust="spacing" font-weight="500" paint-order="stroke" stroke="#f3f5ee" stroke-width="1.55" stroke-linejoin="round" fill="#6f777a">7</text><text x="115.5" y="65.9" text-anchor="middle" font-family="Arial, sans-serif" font-size="6.5" textLength="18.0" lengthAdjust="spacing" font-weight="500" paint-order="stroke" stroke="#f3f5ee" stroke-width="1.55" stroke-linejoin="round" fill="#6f777a">10</text></svg>