<svg xmlns="http://www.w3.org/2000/svg" width="256" height="256" viewBox="0 0 256 256"><defs><pattern id="park-dots" width="22" height="22" patternUnits="userSpaceOnUse"><circle cx="5" cy="5" r="2.1" fill="#63a95d" fill-opacity="0.26"/><circle cx="16" cy="7" r="1.55" fill="#76b970" fill-opacity="0.23"/><circle cx="10" cy="17" r="1.9" fill="#61a65b" fill-opacity="0.24"/><circle cx="21" cy="17" r="1.25" fill="#80c174" fill-opacity="0.18"/><circle cx="1" cy="19" r="1.2" fill="#70b46a" fill-opacity="0.17"/></pattern><pattern id="park-canopy" width="54" height="48" patternUnits="userSpaceOnUse"><circle cx="12" cy="11" r="3.6" fill="#5ea75a" fill-opacity="0.22"/><circle cx="31" cy="15" r="2.9" fill="#75ba6d" fill-opacity="0.18"/><circle cx="45" cy="31" r="3.3" fill="#67ae62" fill-opacity="0.20"/><circle cx="19" cy="39" r="2.5" fill="#83c378" fill-opacity="0.16"/></pattern></defs><rect width="256" height="256" fill="#f1efe7"/><path d="M-122.9,272.1 L-9.1,253.9 L103.8,250.0 L351.3,242.2 L351.7,275.5 L378.5,275.1 L378.1,259.5 L383.7,251.7 L422.7,248.2 L432.2,245.2 L438.6,241.4 L443.3,236.7 L498.9,234.0 L503.2,236.5 L506.1,240.7 L507.4,265.1 L533.1,281.7 L537.3,289.1 L537.2,295.1 L528.6,310.6 L524.3,313.3 L520.7,313.8 L516.8,312.7 L513.3,309.9 L512.3,304.4 L477.7,305.4 L478.3,324.7 L524.1,321.7 L529.9,320.4 L534.7,315.4 L541.4,305.5 L546.5,301.7 L554.2,301.4 L565.8,304.1 L774.4,457.6 L774.7,507.5 L769.9,519.1 L756.7,529.2 L652.4,547.6 L576.7,554.5 L285.0,568.2 L203.1,572.6 L179.1,576.5 L114.4,595.9 L71.1,603.6 L22.7,606.5 L-59.3,606.5 L-131.2,601.0 L-143.9,596.8 L-151.3,592.1 L-157.4,581.0 L-177.9,494.8 L28.5,485.8 L22.1,360.1 L-172.1,367.7 L-169.6,300.6 L-163.6,288.1 L-152.4,280.7 L-122.9,272.1 Z" fill="#dcf5d2" stroke="#9fcf91" stroke-width="0.4"></path><path d="M-122.9,272.1 L-9.1,253.9 L103.8,250.0 L351.3,242.2 L351.7,275.5 L378.5,275.1 L378.1,259.5 L383.7,251.7 L422.7,248.2 L432.2,245.2 L438.6,241.4 L443.3,236.7 L498.9,234.0 L503.2,236.5 L506.1,240.7 L507.4,265.1 L533.1,281.7 L537.3,289.1 L537.2,295.1 L528.6,310.6 L524.3,313.3 L520.7,313.8 L516.8,312.7 L513.3,309.9 L512.3,304.4 L477.7,305.4 L478.3,324.7 L524.1,321.7 L529.9,320.4 L534.7,315.4 L541.4,305.5 L546.5,301.7 L554.2,301.4 L565.8,304.1 L774.4,457.6 L774.7,507.5 L769.9,519.1 L756.7,529.2 L652.4,547.6 L576.7,554.5 L285.0,568.2 L203.1,572.6 L179.1,576.5 L114.4,595.9 L71.1,603.6 L22.7,606.5 L-59.3,606.5 L-131.2,601.0 L-143.9,596.8 L-151.3,592.1 L-157.4,581.0 L-177.9,494.8 L28.5,485.8 L22.1,360.1 L-172.1,367.7 L-169.6,300.6 L-163.6,288.1 L-152.4,280.7 L-122.9,272.1 Z" fill="url(#park-dots)" stroke="none"/><path d="M-122.9,272.1 L-9.1,253.9 L103.8,250.0 L351.3,242.2 L351.7,275.5 L378.5,275.1 L378.1,259.5 L383.7,251.7 L422.7,248.2 L432.2,245.2 L438.6,241.4 L443.3,236.7 L498.9,234.0 L503.2,236.5 L506.1,240.7 L507.4,265.1 L533.1,281.7 L537.3,289.1 L537.2,295.1 L528.6,310.6 L524.3,313.3 L520.7,313.8 L516.8,312.7 L513.3,309.9 L512.3,304.4 L477.7,305.4 L478.3,324.7 L524.1,321.7 L529.9,320.4 L534.7,315.4 L541.4,305.5 L546.5,301.7 L554.2,301.4 L565.8,304.1 L774.4,457.6 L774.7,507.5 L769.9,519.1 L756.7,529.2 L652.4,547.6 L576.7,554.5 L285.0,568.2 L203.1,572.6 L179.1,576.5 L114.4,595.9 L71.1,603.6 L22.7,606.5 L-59.3,606.5 L-131.2,601.0 L-143.9,596.8 L-151.3,592.1 L-157.4,581.0 L-177.9,494.8 L28.5,485.8 L22.1,360.1 L-172.1,367.7 L-169.6,300.6 L-163.6,288.1 L-152.4,280.7 L-122.9,272.1 Z" fill="url(#park-canopy)" stroke="none"/><path d="M161.6,-152.2 L165.8,10.9 L-147.5,19.0 L-151.6,-144.2 L161.6,-152.2 Z" fill="#d6d2c9" stroke="#bab6ad" stroke-width="0.4"></path><path d="M179.2,11.0 L174.6,-155.3 L461.7,-163.3 L462.4,-138.7 L466.3,3.0 L179.2,11.0 Z" fill="#d6d2c9" stroke="#bab6ad" stroke-width="0.4"><title>896</title></path><path d="M-50.9,128.8 L-42.1,130.0 L-34.5,130.5 L-25.6,130.2 L-7.9,129.3 L98.8,124.4 L559.0,103.7" fill="none" stroke="#cec8bb" stroke-width="3.5" stroke-linecap="round" stroke-linejoin="round"/><path d="M-50.9,128.8 L-42.1,130.0 L-34.5,130.5 L-25.6,130.2 L-7.9,129.3 L98.8,124.4 L559.0,103.7" fill="none" stroke="#ffffff" stroke-width="2.5" stroke-linecap="round" stroke-linejoin="round"></path></svg>