<svg xmlns="http://www.w3.org/2000/svg" width="256" height="256" viewBox="0 0 256 256"><defs><pattern id="park-dots" width="22" height="22" patternUnits="userSpaceOnUse"><circle cx="5" cy="5" r="2.1" fill="#63a95d" fill-opacity="0.26"/><circle cx="16" cy="7" r="1.55" fill="#76b970" fill-opacity="0.23"/><circle cx="10" cy="17" r="1.9" fill="#61a65b" fill-opacity="0.24"/><circle cx="21" cy="17" r="1.25" fill="#80c174" fill-opacity="0.18"/><circle cx="1" cy="19" r="1.2" fill="#70b46a" fill-opacity="0.17"/></pattern><pattern id="park-canopy" width="54" height="48" patternUnits="userSpaceOnUse"><circle cx="12" cy="11" r="3.6" fill="#5ea75a" fill-opacity="0.22"/><circle cx="31" cy="15" r="2.9" fill="#75ba6d" fill-opacity="0.18"/><circle cx="45" cy="31" r="3.3" fill="#67ae62" fill-opacity="0.20"/><circle cx="19" cy="39" r="2.5" fill="#83c378" fill-opacity="0.16"/></pattern></defs><rect width="256" height="256" fill="#f1efe7"/><path d="M-122.9,16.1 L-9.1,-2.1 L103.8,-6.0 L351.3,-13.8 L351.7,19.5 L378.5,19.1 L378.1,3.5 L383.7,-4.3 L422.7,-7.8 L432.2,-10.8 L438.6,-14.6 L443.3,-19.3 L498.9,-22.0 L503.2,-19.5 L506.1,-15.3 L507.4,9.1 L533.1,25.7 L537.3,33.1 L537.2,39.1 L528.6,54.6 L524.3,57.3 L520.7,57.8 L516.8,56.7 L513.3,53.9 L512.3,48.4 L477.7,49.4 L478.3,68.7 L524.1,65.7 L529.9,64.4 L534.7,59.4 L541.4,49.5 L546.5,45.7 L554.2,45.4 L565.8,48.1 L774.4,201.6 L774.7,251.5 L769.9,263.1 L756.7,273.2 L652.4,291.6 L576.7,298.5 L285.0,312.2 L203.1,316.6 L179.1,320.5 L114.4,339.9 L71.1,347.6 L22.7,350.5 L-59.3,350.5 L-131.2,345.0 L-143.9,340.8 L-151.3,336.1 L-157.4,325.0 L-177.9,238.8 L28.5,229.8 L22.1,104.1 L-172.1,111.7 L-169.6,44.6 L-163.6,32.1 L-152.4,24.7 L-122.9,16.1 Z" fill="#dcf5d2" stroke="#9fcf91" stroke-width="0.4"></path><path d="M-122.9,16.1 L-9.1,-2.1 L103.8,-6.0 L351.3,-13.8 L351.7,19.5 L378.5,19.1 L378.1,3.5 L383.7,-4.3 L422.7,-7.8 L432.2,-10.8 L438.6,-14.6 L443.3,-19.3 L498.9,-22.0 L503.2,-19.5 L506.1,-15.3 L507.4,9.1 L533.1,25.7 L537.3,33.1 L537.2,39.1 L528.6,54.6 L524.3,57.3 L520.7,57.8 L516.8,56.7 L513.3,53.9 L512.3,48.4 L477.7,49.4 L478.3,68.7 L524.1,65.7 L529.9,64.4 L534.7,59.4 L541.4,49.5 L546.5,45.7 L554.2,45.4 L565.8,48.1 L774.4,201.6 L774.7,251.5 L769.9,263.1 L756.7,273.2 L652.4,291.6 L576.7,298.5 L285.0,312.2 L203.1,316.6 L179.1,320.5 L114.4,339.9 L71.1,347.6 L22.7,350.5 L-59.3,350.5 L-131.2,345.0 L-143.9,340.8 L-151.3,336.1 L-157.4,325.0 L-177.9,238.8 L28.5,229.8 L22.1,104.1 L-172.1,111.7 L-169.6,44.6 L-163.6,32.1 L-152.4,24.7 L-122.9,16.1 Z" fill="url(#park-dots)" stroke="none"/><path d="M-122.9,16.1 L-9.1,-2.1 L103.8,-6.0 L351.3,-13.8 L351.7,19.5 L378.5,19.1 L378.1,3.5 L383.7,-4.3 L422.7,-7.8 L432.2,-10.8 L438.6,-14.6 L443.3,-19.3 L498.9,-22.0 L503.2,-19.5 L506.1,-15.3 L507.4,9.1 L533.1,25.7 L537.3,33.1 L537.2,39.1 L528.6,54.6 L524.3,57.3 L520.7,57.8 L516.8,56.7 L513.3,53.9 L512.3,48.4 L477.7,49.4 L478.3,68.7 L524.1,65.7 L529.9,64.4 L534.7,59.4 L541.4,49.5 L546.5,45.7 L554.2,45.4 L565.8,48.1 L774.4,201.6 L774.7,251.5 L769.9,263.1 L756.7,273.2 L652.4,291.6 L576.7,298.5 L285.0,312.2 L203.1,316.6 L179.1,320.5 L114.4,339.9 L71.1,347.6 L22.7,350.5 L-59.3,350.5 L-131.2,345.0 L-143.9,340.8 L-151.3,336.1 L-157.4,325.0 L-177.9,238.8 L28.5,229.8 L22.1,104.1 L-172.1,111.7 L-169.6,44.6 L-163.6,32.1 L-152.4,24.7 L-122.9,16.1 Z" fill="url(#park-canopy)" stroke="none"/></svg>