<svg xmlns="http://www.w3.org/2000/svg" width="256" height="256" viewBox="0 0 256 256"><defs><pattern id="park-dots" width="22" height="22" patternUnits="userSpaceOnUse"><circle cx="5" cy="5" r="2.1" fill="#63a95d" fill-opacity="0.26"/><circle cx="16" cy="7" r="1.55" fill="#76b970" fill-opacity="0.23"/><circle cx="10" cy="17" r="1.9" fill="#61a65b" fill-opacity="0.24"/><circle cx="21" cy="17" r="1.25" fill="#80c174" fill-opacity="0.18"/><circle cx="1" cy="19" r="1.2" fill="#70b46a" fill-opacity="0.17"/></pattern><pattern id="park-canopy" width="54" height="48" patternUnits="userSpaceOnUse"><circle cx="12" cy="11" r="3.6" fill="#5ea75a" fill-opacity="0.22"/><circle cx="31" cy="15" r="2.9" fill="#75ba6d" fill-opacity="0.18"/><circle cx="45" cy="31" r="3.3" fill="#67ae62" fill-opacity="0.20"/><circle cx="19" cy="39" r="2.5" fill="#83c378" fill-opacity="0.16"/></pattern></defs><rect width="256" height="256" fill="#f1efe7"/><path d="M426.9,15.4 L524.5,-68.0 L454.4,-147.5 L419.0,-198.6 L359.2,-308.8 L327.7,-403.3 L310.4,-474.1 L304.9,-509.5 L294.7,-531.5 L278.2,-551.2 L217.6,-589.0 L208.1,-575.6 L190.8,-468.6 L195.5,-430.0 L231.7,-295.4 L275.8,-192.3 L342.7,-89.3 L426.9,15.4 Z" fill="#dcf5d2" stroke="#9fcf91" stroke-width="0.4"></path><path d="M426.9,15.4 L524.5,-68.0 L454.4,-147.5 L419.0,-198.6 L359.2,-308.8 L327.7,-403.3 L310.4,-474.1 L304.9,-509.5 L294.7,-531.5 L278.2,-551.2 L217.6,-589.0 L208.1,-575.6 L190.8,-468.6 L195.5,-430.0 L231.7,-295.4 L275.8,-192.3 L342.7,-89.3 L426.9,15.4 Z" fill="url(#park-dots)" stroke="none"/><path d="M426.9,15.4 L524.5,-68.0 L454.4,-147.5 L419.0,-198.6 L359.2,-308.8 L327.7,-403.3 L310.4,-474.1 L304.9,-509.5 L294.7,-531.5 L278.2,-551.2 L217.6,-589.0 L208.1,-575.6 L190.8,-468.6 L195.5,-430.0 L231.7,-295.4 L275.8,-192.3 L342.7,-89.3 L426.9,15.4 Z" fill="url(#park-canopy)" stroke="none"/><path d="M192.4,268.4 L193.8,267.9 L209.2,253.9 L213.4,246.1 L213.2,245.4 L212.3,245.4 L192.0,263.6 L191.6,268.0 L192.4,268.4 Z" fill="#dcf5d2" stroke="#9fcf91" stroke-width="0.4"></path><path d="M192.4,268.4 L193.8,267.9 L209.2,253.9 L213.4,246.1 L213.2,245.4 L212.3,245.4 L192.0,263.6 L191.6,268.0 L192.4,268.4 Z" fill="url(#park-dots)" stroke="none"/><path d="M192.4,268.4 L193.8,267.9 L209.2,253.9 L213.4,246.1 L213.2,245.4 L212.3,245.4 L192.0,263.6 L191.6,268.0 L192.4,268.4 Z" fill="url(#park-canopy)" stroke="none"/><path d="M449.8,56.0 L464.8,73.5 L465.5,77.6 L463.0,80.8 L457.9,87.5 L453.6,96.9 L448.3,114.6 L441.4,148.7 L432.9,157.6 L413.1,177.6 L376.6,210.9 L368.9,214.5 L330.6,226.8 L315.1,233.5 L305.9,241.3 L121.5,405.9 L110.6,411.5 L100.6,412.9 L92.4,410.4 L85.4,404.8 L82.4,398.4 L79.2,391.0 L83.0,386.5 L449.8,56.0 Z" fill="#dcf5d2" stroke="#9fcf91" stroke-width="0.4"></path><path d="M449.8,56.0 L464.8,73.5 L465.5,77.6 L463.0,80.8 L457.9,87.5 L453.6,96.9 L448.3,114.6 L441.4,148.7 L432.9,157.6 L413.1,177.6 L376.6,210.9 L368.9,214.5 L330.6,226.8 L315.1,233.5 L305.9,241.3 L121.5,405.9 L110.6,411.5 L100.6,412.9 L92.4,410.4 L85.4,404.8 L82.4,398.4 L79.2,391.0 L83.0,386.5 L449.8,56.0 Z" fill="url(#park-dots)" stroke="none"/><path d="M449.8,56.0 L464.8,73.5 L465.5,77.6 L463.0,80.8 L457.9,87.5 L453.6,96.9 L448.3,114.6 L441.4,148.7 L432.9,157.6 L413.1,177.6 L376.6,210.9 L368.9,214.5 L330.6,226.8 L315.1,233.5 L305.9,241.3 L121.5,405.9 L110.6,411.5 L100.6,412.9 L92.4,410.4 L85.4,404.8 L82.4,398.4 L79.2,391.0 L83.0,386.5 L449.8,56.0 Z" fill="url(#park-canopy)" stroke="none"/><path d="M554.2,9.4 L558.4,1.5 L562.6,-0.2 L574.8,1.5 L580.9,3.2 L586.6,7.8 L601.3,20.3 L605.9,24.8 L599.6,31.4 L132.5,452.2 L126.1,456.1 L120.6,457.4 L121.1,451.0 L120.2,447.5 L117.7,444.8 L114.7,441.6 L112.4,436.1 L111.3,427.0 L113.8,420.4 L119.3,416.1 L125.5,412.0 L313.4,242.7 L336.3,231.1 L356.0,224.6 L377.1,216.9 L384.5,211.0 L440.5,159.6 L448.3,149.1 L454.3,115.3 L460.6,95.4 L465.4,86.0 L473.5,76.7 L482.9,71.0 L499.7,62.1 L519.7,52.1 L532.1,43.7 L543.1,31.0 L554.2,9.4 Z" fill="#dcf5d2" stroke="#9fcf91" stroke-width="0.4"></path><path d="M554.2,9.4 L558.4,1.5 L562.6,-0.2 L574.8,1.5 L580.9,3.2 L586.6,7.8 L601.3,20.3 L605.9,24.8 L599.6,31.4 L132.5,452.2 L126.1,456.1 L120.6,457.4 L121.1,451.0 L120.2,447.5 L117.7,444.8 L114.7,441.6 L112.4,436.1 L111.3,427.0 L113.8,420.4 L119.3,416.1 L125.5,412.0 L313.4,242.7 L336.3,231.1 L356.0,224.6 L377.1,216.9 L384.5,211.0 L440.5,159.6 L448.3,149.1 L454.3,115.3 L460.6,95.4 L465.4,86.0 L473.5,76.7 L482.9,71.0 L499.7,62.1 L519.7,52.1 L532.1,43.7 L543.1,31.0 L554.2,9.4 Z" fill="url(#park-dots)" stroke="none"/><path d="M554.2,9.4 L558.4,1.5 L562.6,-0.2 L574.8,1.5 L580.9,3.2 L586.6,7.8 L601.3,20.3 L605.9,24.8 L599.6,31.4 L132.5,452.2 L126.1,456.1 L120.6,457.4 L121.1,451.0 L120.2,447.5 L117.7,444.8 L114.7,441.6 L112.4,436.1 L111.3,427.0 L113.8,420.4 L119.3,416.1 L125.5,412.0 L313.4,242.7 L336.3,231.1 L356.0,224.6 L377.1,216.9 L384.5,211.0 L440.5,159.6 L448.3,149.1 L454.3,115.3 L460.6,95.4 L465.4,86.0 L473.5,76.7 L482.9,71.0 L499.7,62.1 L519.7,52.1 L532.1,43.7 L543.1,31.0 L554.2,9.4 Z" fill="url(#park-canopy)" stroke="none"/><path d="M195.1,-13.6 L173.1,6.8 L182.9,17.6 L204.9,-2.6 L195.1,-13.6 Z" fill="#c7dfbd" stroke="#8eb580" stroke-width="0.5"></path><path d="M293.9,-61.5 L181.8,39.0 L205.4,64.6 L197.0,72.0 L187.4,80.7 L171.8,94.6 L164.3,101.3 L169.2,106.7 L212.1,154.9 L361.5,21.5 L358.7,18.3 L353.5,12.5 L358.0,8.5 L293.9,-61.5 Z" fill="#d6d2c9" stroke="#bab6ad" stroke-width="0.4"><title>Mahoney-Pearson Garage</title></path><path d="M12.1,62.9 L35.4,88.5 L43.3,81.8 L16.7,52.2 L21.8,47.4 L18.0,43.2 L25.1,36.7 L29.3,41.3 L36.6,34.5 L97.4,101.4 L152.3,51.0 L158.2,57.5 L163.3,52.7 L170.0,60.1 L165.6,64.1 L167.9,66.7 L121.8,109.0 L118.0,104.8 L113.8,108.7 L108.5,113.6 L195.0,208.7 L190.1,213.2 L195.0,218.5 L186.8,226.1 L182.6,221.5 L174.4,229.0 L84.2,129.8 L76.5,136.9 L89.7,151.4 L54.0,184.1 L41.1,169.9 L33.6,176.8 L123.4,275.6 L115.9,282.5 L119.5,286.5 L111.7,293.7 L106.8,288.3 L102.1,292.6 L14.7,196.4 L6.1,204.3 L9.4,207.9 L-36.8,250.3 L-40.0,246.8 L-44.3,250.8 L-51.9,242.5 L-46.8,237.8 L-53.4,230.5 L-6.3,187.2 L1.5,180.1 L-57.1,115.5 L-49.7,108.7 L-53.2,105.0 L-46.1,98.4 L-42.4,102.4 L-37.5,97.9 L-10.2,127.9 L-2.2,120.4 L-24.3,96.1 L-10.0,83.0 L-6.7,80.0 L-2.8,76.4 L12.1,62.9 Z" fill="#d6d2c9" stroke="#bab6ad" stroke-width="0.4"><title>Mahoney Pearson</title></path><path d="M-2.8,76.4 L-4.9,74.2 L0.3,69.6 L-11.7,57.1 L-20.9,65.0 L-29.3,72.2 L-17.4,85.4 L-12.2,80.7 L-10.0,83.0 L-6.7,80.0 L-2.8,76.4 Z" fill="#d6d2c9" stroke="#bab6ad" stroke-width="0.4"></path><path d="M-94.6,-41.7 L-24.8,-104.6 L25.9,-47.6 L-46.1,15.9 L-55.7,4.4 L-61.7,-2.6 L-69.1,-11.4 L-93.2,-40.1 L-94.6,-41.7 Z" fill="#d6d2c9" stroke="#bab6ad" stroke-width="0.4"><title>Mahoney-Pearson Dining Hall</title></path><path d="M-74.9,115.8 L-26.2,67.2 L-23.2,64.3 L-14.1,55.2 L-8.5,54.7 L24.4,31.4 L41.6,15.8 L81.5,-20.6" fill="none" stroke="#cf828d" stroke-width="1.5" stroke-dasharray="1.6 3.0" opacity="0.62" stroke-linecap="round" stroke-linejoin="round"></path><path d="M41.6,15.8 L97.4,78.1 L97.4,101.4" fill="none" stroke="#cf828d" stroke-width="1.5" stroke-dasharray="1.6 3.0" opacity="0.62" stroke-linecap="round" stroke-linejoin="round"></path><path d="M97.4,78.1 L146.8,31.6 L175.5,62.8" fill="none" stroke="#cf828d" stroke-width="1.5" stroke-dasharray="1.6 3.0" opacity="0.62" stroke-linecap="round" stroke-linejoin="round"></path><path d="M151.1,27.5 L156.9,22.1 L166.7,12.8" fill="none" stroke="#cf828d" stroke-width="1.5" stroke-dasharray="1.6 3.0" opacity="0.62" stroke-linecap="round" stroke-linejoin="round"></path><path d="M168.1,107.8 L161.3,113.2 L149.2,123.1" fill="none" stroke="#cf828d" stroke-width="1.5" stroke-dasharray="1.6 3.0" opacity="0.62" stroke-linecap="round" stroke-linejoin="round"></path><path d="M149.2,123.1 L131.9,127.3 L113.8,108.7" fill="none" stroke="#cf828d" stroke-width="1.5" stroke-dasharray="1.6 3.0" opacity="0.62" stroke-linecap="round" stroke-linejoin="round"></path><path d="M-54.8,263.9 L35.6,364.7" fill="none" stroke="#cf828d" stroke-width="1.5" stroke-dasharray="1.6 3.0" opacity="0.62" stroke-linecap="round" stroke-linejoin="round"></path><path d="M98.0,325.9 L172.8,257.9 L238.1,199.4 L330.3,116.4" fill="none" stroke="#cf828d" stroke-width="1.5" stroke-dasharray="1.6 3.0" opacity="0.62" stroke-linecap="round" stroke-linejoin="round"></path><path d="M171.9,81.3 L177.5,87.4 L170.9,93.5 L171.8,94.6" fill="none" stroke="#cf828d" stroke-width="1.5" stroke-dasharray="1.6 3.0" opacity="0.62" stroke-linecap="round" stroke-linejoin="round"></path><path d="M168.1,107.8 L169.2,106.7" fill="none" stroke="#cf828d" stroke-width="1.5" stroke-dasharray="1.6 3.0" opacity="0.62" stroke-linecap="round" stroke-linejoin="round"></path><path d="M151.1,27.5 L146.8,31.6" fill="none" stroke="#cf828d" stroke-width="1.5" stroke-dasharray="1.6 3.0" opacity="0.62" stroke-linecap="round" stroke-linejoin="round"></path><path d="M166.7,12.8 L168.7,11.1" fill="none" stroke="#cf828d" stroke-width="1.5" stroke-dasharray="1.6 3.0" opacity="0.62" stroke-linecap="round" stroke-linejoin="round"></path><path d="M176.9,362.7 L311.1,240.0" fill="none" stroke="#5fa977" stroke-width="2.4" opacity="0.66" stroke-linecap="round" stroke-linejoin="round"><title>M-Path</title></path><path d="M242.6,208.1 L238.1,199.4 L234.7,192.9" fill="none" stroke="#cec8bb" stroke-width="3.5" stroke-linecap="round" stroke-linejoin="round"/><path d="M242.6,208.1 L238.1,199.4 L234.7,192.9" fill="none" stroke="#ffffff" stroke-width="2.5" stroke-linecap="round" stroke-linejoin="round"></path><path d="M234.7,192.9 L226.1,183.6 L218.5,175.3" fill="none" stroke="#cec8bb" stroke-width="3.5" stroke-linecap="round" stroke-linejoin="round"/><path d="M234.7,192.9 L226.1,183.6 L218.5,175.3" fill="none" stroke="#ffffff" stroke-width="2.5" stroke-linecap="round" stroke-linejoin="round"></path><path d="M218.5,175.3 L366.3,38.2" fill="none" stroke="#cec8bb" stroke-width="3.5" stroke-linecap="round" stroke-linejoin="round"/><path d="M218.5,175.3 L366.3,38.2" fill="none" stroke="#ffffff" stroke-width="2.5" stroke-linecap="round" stroke-linejoin="round"></path><path d="M-48.3,70.5 L-34.5,57.9 L74.7,-41.9" fill="none" stroke="#cec8bb" stroke-width="3.5" stroke-linecap="round" stroke-linejoin="round"/><path d="M-48.3,70.5 L-34.5,57.9 L74.7,-41.9" fill="none" stroke="#ffffff" stroke-width="2.5" stroke-linecap="round" stroke-linejoin="round"></path><path d="M55.1,-63.5 L-53.5,36.6" fill="none" stroke="#cec8bb" stroke-width="3.5" stroke-linecap="round" stroke-linejoin="round"/><path d="M55.1,-63.5 L-53.5,36.6" fill="none" stroke="#ffffff" stroke-width="2.5" stroke-linecap="round" stroke-linejoin="round"></path><path d="M218.5,175.3 L161.3,113.2 L156.4,107.8 L157.9,95.3 L171.9,81.3 L180.4,72.8 L189.9,63.4 L156.9,22.1 L149.1,12.8 L144.7,10.4 L139.5,9.8 L135.2,11.4 L129.1,17.6 L127.4,15.8 L103.8,-10.1 L88.4,-27.0 L74.7,-41.9" fill="none" stroke="#cec8bb" stroke-width="3.5" stroke-linecap="round" stroke-linejoin="round"/><path d="M218.5,175.3 L161.3,113.2 L156.4,107.8 L157.9,95.3 L171.9,81.3 L180.4,72.8 L189.9,63.4 L156.9,22.1 L149.1,12.8 L144.7,10.4 L139.5,9.8 L135.2,11.4 L129.1,17.6 L127.4,15.8 L103.8,-10.1 L88.4,-27.0 L74.7,-41.9" fill="none" stroke="#ffffff" stroke-width="2.5" stroke-linecap="round" stroke-linejoin="round"></path><path d="M103.8,-10.1 L61.1,32.9" fill="none" stroke="#cec8bb" stroke-width="3.5" stroke-linecap="round" stroke-linejoin="round"/><path d="M103.8,-10.1 L61.1,32.9" fill="none" stroke="#ffffff" stroke-width="2.5" stroke-linecap="round" stroke-linejoin="round"></path><path d="M127.4,15.8 L97.4,45.3" fill="none" stroke="#cec8bb" stroke-width="3.5" stroke-linecap="round" stroke-linejoin="round"/><path d="M127.4,15.8 L97.4,45.3" fill="none" stroke="#ffffff" stroke-width="2.5" stroke-linecap="round" stroke-linejoin="round"></path><path d="M179.0,266.2 L172.8,257.9 L138.7,212.1 L134.2,207.8 L124.4,203.5 L114.9,197.2 L109.8,190.8 L103.3,183.2 L99.2,179.5 L93.9,177.0 L90.3,177.2 L69.7,194.4" fill="none" stroke="#cec8bb" stroke-width="3.5" stroke-linecap="round" stroke-linejoin="round"/><path d="M179.0,266.2 L172.8,257.9 L138.7,212.1 L134.2,207.8 L124.4,203.5 L114.9,197.2 L109.8,190.8 L103.3,183.2 L99.2,179.5 L93.9,177.0 L90.3,177.2 L69.7,194.4" fill="none" stroke="#ffffff" stroke-width="2.5" stroke-linecap="round" stroke-linejoin="round"></path><path d="M197.0,72.0 L189.9,63.4" fill="none" stroke="#cec8bb" stroke-width="3.5" stroke-linecap="round" stroke-linejoin="round"/><path d="M197.0,72.0 L189.9,63.4" fill="none" stroke="#ffffff" stroke-width="2.5" stroke-linecap="round" stroke-linejoin="round"></path><path d="M180.4,72.8 L187.4,80.7" fill="none" stroke="#cec8bb" stroke-width="3.5" stroke-linecap="round" stroke-linejoin="round"/><path d="M180.4,72.8 L187.4,80.7" fill="none" stroke="#ffffff" stroke-width="2.5" stroke-linecap="round" stroke-linejoin="round"></path><path d="M423.9,45.6 L242.6,208.1 L179.0,266.2 L101.6,338.2" fill="none" stroke="#d1c4aa" stroke-width="5.4" stroke-linecap="round" stroke-linejoin="round"/><path d="M423.9,45.6 L242.6,208.1 L179.0,266.2 L101.6,338.2" fill="none" stroke="#f4d99b" stroke-width="4.0" stroke-linecap="round" stroke-linejoin="round"><title>Ponce de Leon Boulevard</title></path><path d="M253.4,221.9 L242.6,208.1" fill="none" stroke="#f4d99b" stroke-width="3.5" stroke-linecap="round" stroke-linejoin="round"></path><path d="M116.0,346.5 L190.9,279.0 L253.4,221.9 L447.5,49.5" fill="none" stroke="#d1c4aa" stroke-width="5.4" stroke-linecap="round" stroke-linejoin="round"/><path d="M116.0,346.5 L190.9,279.0 L253.4,221.9 L447.5,49.5" fill="none" stroke="#f4d99b" stroke-width="4.0" stroke-linecap="round" stroke-linejoin="round"><title>Ponce de Leon Boulevard</title></path><path d="M345.1,274.3 L247.7,362.1" fill="none" stroke="#d8955f" stroke-width="9.0" stroke-linecap="round" stroke-linejoin="round"/><path d="M345.1,274.3 L247.7,362.1" fill="none" stroke="#f0a86f" stroke-width="7.5" stroke-linecap="round" stroke-linejoin="round"><title>South Dixie Highway</title></path><path d="M345.1,274.3 L247.7,362.1" fill="none" stroke="#fff8ef" stroke-width="1.8" stroke-dasharray="5.5 6.5" opacity="0.82" stroke-linecap="round" stroke-linejoin="round"/><path d="M581.2,6.7 L8.2,522.6" fill="none" stroke="#fbf8ef" stroke-width="7.2" stroke-linecap="round" stroke-linejoin="round"/><path d="M581.2,6.7 L8.2,522.6" fill="none" stroke="#5a5796" stroke-width="5.0" stroke-linecap="round" stroke-linejoin="round"><title>Metrorail</title></path><path d="M581.2,6.7 L8.2,522.6" fill="none" stroke="#ffffff" stroke-width="3.1" stroke-linecap="round" stroke-linejoin="round"/><path d="M131.2,422.9 L586.9,12.5" fill="none" stroke="#fbf8ef" stroke-width="7.2" stroke-linecap="round" stroke-linejoin="round"/><path d="M131.2,422.9 L586.9,12.5" fill="none" stroke="#5a5796" stroke-width="5.0" stroke-linecap="round" stroke-linejoin="round"><title>Metrorail</title></path><path d="M131.2,422.9 L586.9,12.5" fill="none" stroke="#ffffff" stroke-width="3.1" stroke-linecap="round" stroke-linejoin="round"/><text x="15.0" y="203.5" text-anchor="middle" font-family="Arial, sans-serif" font-size="6.5" textLength="18.0" lengthAdjust="spacing" font-weight="500" paint-order="stroke" stroke="#f3f5ee" stroke-width="1.55" stroke-linejoin="round" fill="#6f777a">1101</text><text x="30.0" y="120.4" text-anchor="middle" font-family="Arial, sans-serif" font-size="6.5" textLength="18.0" lengthAdjust="spacing" font-weight="500" paint-order="stroke" stroke="#f3f5ee" stroke-width="1.55" stroke-linejoin="round" fill="#6f777a">1201</text><text x="117.4" y="106.9" text-anchor="middle" font-family="Arial, sans-serif" font-size="6.5" textLength="18.0" lengthAdjust="spacing" font-weight="500" paint-order="stroke" stroke="#f3f5ee" stroke-width="1.55" stroke-linejoin="round" fill="#6f777a">5185</text><text x="147.5" y="81.2" text-anchor="middle" font-family="Arial, sans-serif" font-size="6.5" textLength="18.0" lengthAdjust="spacing" font-weight="500" paint-order="stroke" stroke="#f3f5ee" stroke-width="1.55" stroke-linejoin="round" fill="#6f777a">1101</text><text x="172.4" y="207.1" text-anchor="middle" font-family="Arial, sans-serif" font-size="6.5" textLength="18.0" lengthAdjust="spacing" font-weight="500" paint-order="stroke" stroke="#f3f5ee" stroke-width="1.55" stroke-linejoin="round" fill="#6f777a">5185</text></svg>