<svg xmlns="http://www.w3.org/2000/svg" width="256" height="256" viewBox="0 0 256 256"><rect width="256" height="256" fill="#f1efe7"/><path d="M-18954.7,-4141.7 L-18739.9,-4231.0 L-18672.7,-4263.3 L-18372.2,-4407.6 L-18315.8,-4353.0 L-18310.9,-4348.3 L-18205.5,-4438.5 L-18180.4,-4457.6 L-18138.5,-4495.4 L-17902.4,-4712.2 L-17711.9,-4929.8 L-17704.6,-4943.7 L-17697.6,-4951.6 L-17686.5,-4964.3 L-17675.2,-4977.2 L-17670.6,-4982.5 L-17745.7,-5079.6 L-17646.3,-5139.2 L-17592.4,-5067.5 L-17516.2,-5154.7 L-17580.7,-5240.1 L-17500.8,-5323.4 L-17439.3,-5242.4 L-17368.7,-5322.8 L-17338.6,-5342.5 L-17191.4,-5438.0 L-17118.7,-5486.3 L-17031.1,-5543.9 L-16989.7,-5571.1 L-16884.8,-5638.8 L-16911.8,-5674.3 L-16960.1,-5739.0 L-16835.2,-5818.4 L-16789.7,-5841.9 L-16786.2,-5844.4 L-16762.2,-5862.9 L-16676.6,-5908.7 L-16670.7,-5917.9 L-16646.7,-5934.4 L-16633.7,-5953.4 L-16630.0,-5956.2 L-16609.1,-5964.3 L-16561.9,-5981.2 L-16529.6,-5995.4 L-16415.5,-6049.0 L-16414.1,-6045.3 L-16318.4,-6086.2 L-16279.3,-6036.1 L-16192.2,-6094.2 L-16179.8,-6102.7 L-16178.6,-6103.7 L-16177.4,-6105.3 L-16175.5,-6108.6 L-16174.5,-6111.7 L-16173.9,-6115.4 L-16174.0,-6118.4 L-16174.4,-6121.3 L-16174.8,-6124.6 L-16174.9,-6127.1 L-16174.7,-6129.2 L-16174.3,-6131.4 L-16172.7,-6135.4 L-16171.6,-6137.6 L-16169.1,-6141.4 L-16166.5,-6144.2 L-16153.8,-6149.3 L-16143.2,-6153.3 L-16129.7,-6157.7 L-16123.4,-6159.4 L-16112.2,-6163.1 L-16104.3,-6165.9 L-16093.4,-6170.4 L-16078.6,-6176.9 L-16062.6,-6184.4 L-16054.0,-6188.6 L-16043.2,-6194.1 L-16033.1,-6199.7 L-16023.0,-6205.7 L-16012.7,-6212.4 L-16009.5,-6214.6 L-15988.8,-6230.4 L-15971.4,-6243.8 L-15954.4,-6258.2 L-15938.5,-6273.2 L-15927.0,-6286.1 L-15915.6,-6300.0 L-15901.6,-6318.0 L-15888.8,-6336.0 L-15874.1,-6359.1 L-15864.5,-6377.0 L-15858.5,-6388.4 L-15849.6,-6407.7 L-15842.1,-6425.6 L-15835.4,-6444.9 L-15830.0,-6461.8 L-15824.1,-6489.2 L-15819.8,-6513.7 L-15817.5,-6534.7 L-15815.5,-6559.5 L-15815.3,-6586.0 L-15816.9,-6610.5 L-15821.1,-6642.5 L-15825.5,-6664.3 L-15830.5,-6684.9 L-15837.9,-6708.3 L-15844.2,-6726.2 L-15851.4,-6745.7 L-15858.2,-6761.9 L-15862.8,-6772.4 L-15864.7,-6780.1 L-15865.0,-6786.0 L-15864.4,-6791.3 L-15862.3,-6795.9 L-15859.1,-6799.8 L-15854.9,-6802.0 L-15850.4,-6802.6 L-15838.3,-6799.7 L-15804.6,-6791.6 L-15793.4,-7046.3 L-15749.7,-7500.9 L-15797.2,-7512.1 L-15802.4,-7526.4 L-15802.2,-7546.9 L-15795.6,-7593.4 L-15786.6,-7603.9 L-15778.6,-7634.1 L-15728.1,-7622.4 L-15700.3,-7912.9 L-15692.6,-7993.3 L-15708.3,-7997.2 L-15698.8,-8035.6 L-15731.1,-8043.3 L-15727.0,-8066.8 L-15721.3,-8082.3 L-15714.2,-8100.4 L-15702.2,-8125.7 L-15689.3,-8122.8 L-15671.9,-8305.5 L-15667.8,-8416.3 L-15667.0,-8436.7 L-15657.6,-8507.2 L-15638.9,-8682.9 L-15514.1,-9008.3 L-15485.6,-9097.0 L-15138.9,-9230.0 L-15105.0,-9243.6 L-15099.1,-9246.8 L-15094.5,-9251.0 L-15089.4,-9256.9 L-15085.5,-9263.8 L-15082.9,-9270.6 L-15082.3,-9280.5 L-15082.8,-9292.8 L-15087.4,-9448.3 L-15089.1,-9478.4 L-15089.6,-9499.1 L-15090.3,-9539.3 L-15091.1,-9551.9 L-15092.6,-9562.5 L-15094.7,-9571.9 L-15097.8,-9581.5 L-15102.7,-9592.8 L-15109.9,-9604.9 L-15116.9,-9614.5 L-15122.3,-9623.6 L-15127.8,-9635.7 L-15132.4,-9647.3 L-15134.2,-9656.8 L-15135.6,-9667.3 L-15136.3,-9677.8 L-15136.0,-9688.0 L-15134.8,-9699.9 L-15132.0,-9711.6 L-15128.3,-9722.0 L-15124.4,-9731.5 L-15119.4,-9740.7 L-15113.3,-9751.9 L-15109.3,-9762.0 L-15105.8,-9774.9 L-15099.4,-9784.7 L-15101.6,-9873.9 L-15104.9,-9879.1 L-15105.9,-9939.7 L-15107.6,-10011.2 L-15106.4,-10021.1 L-15103.2,-10031.2 L-15095.2,-10047.0 L-15041.7,-10162.1 L-15040.6,-10164.0 L-15031.2,-10184.5 L-15022.3,-10203.9 L-15012.3,-10223.9 L-15002.5,-10244.5 L-14997.7,-10254.5 L-14945.1,-10362.4 L-14888.9,-10481.6 L-14767.3,-10728.4 L-14840.4,-10810.3 L-14900.0,-10683.3 L-14951.5,-10573.4 L-14959.3,-10557.8 L-14975.2,-10525.3 L-15007.0,-10528.0 L-15015.7,-10528.5 L-15018.8,-10525.7 L-15014.6,-10521.9 L-15030.9,-10507.4 L-15043.8,-10495.5 L-15046.2,-10444.6 L-15051.0,-10434.4 L-15066.6,-10435.0 L-15069.2,-10435.9 L-15273.6,-10520.3 L-15278.0,-10522.6 L-15282.7,-10525.6 L-15290.1,-10531.2 L-15295.8,-10536.6 L-15300.6,-10541.8 L-15305.3,-10548.2 L-15308.9,-10553.8 L-15311.7,-10559.6 L-15313.9,-10565.7 L-15315.4,-10569.9 L-15316.5,-10575.0 L-15317.3,-10581.0 L-15318.1,-10589.2 L-15318.1,-10600.9 L-15319.5,-10640.6 L-15313.9,-10640.9 L-15314.7,-10661.9 L-15315.6,-10696.5 L-15310.4,-10696.6 L-15310.8,-10720.2 L-15316.7,-10720.1 L-15319.4,-10819.5 L-15313.8,-10819.8 L-15314.7,-10843.1 L-15320.1,-10842.9 L-15322.4,-10916.4 L-15295.4,-10945.5 L-15260.9,-10946.7 L-15235.2,-10947.6 L-15201.3,-10948.7 L-15168.7,-10949.7 L-15139.5,-10950.7 L-15126.8,-10951.3 L-15127.4,-10962.6 L-15127.6,-10974.4 L-15129.5,-11012.7 L-15130.2,-11085.8 L-15131.2,-11087.1 L-15131.4,-11094.3 L-15129.3,-11094.4 L-15134.4,-11270.5 L-15138.8,-11436.2 L-15139.5,-11441.4 L-15139.9,-11451.0 L-15212.1,-11448.4 L-15260.1,-11452.5 L-15619.4,-11440.0 L-15619.5,-11443.2 L-15620.2,-11458.5 L-15790.6,-11452.5 L-15790.9,-11480.8 L-15813.4,-11485.9 L-15817.4,-11607.0 L-15154.6,-11630.0 L-15143.6,-11645.1 L-15144.0,-11688.1 L-15144.8,-11725.3 L-15145.4,-11748.6 L-15146.3,-11771.3 L-15199.0,-11796.1 L-15201.1,-11851.2 L-15147.1,-11878.0 L-15152.0,-12005.5 L-15153.4,-12011.8 L-15207.1,-12036.9 L-15208.8,-12105.1 L-15157.8,-12131.4 L-15180.5,-12408.3 L-15174.5,-12531.5 L-15171.5,-12732.4 L-15171.7,-12950.9 L-15166.9,-12981.5 L-15166.6,-12996.3 L-15171.4,-13014.1 L-15166.4,-13014.1 L-15166.4,-13030.2 L-15163.4,-13441.2 L-15163.9,-13459.5 L-15169.6,-13459.5 L-15169.4,-13535.1 L-15172.7,-13539.8 L-15177.9,-13617.8 L-15167.6,-13689.1 L-15168.9,-13775.4 L-15172.4,-13796.1 L-15167.1,-13860.0 L-15170.7,-13937.3 L-15179.7,-14020.0 L-15196.8,-14154.0 L-15188.7,-14190.9 L-15192.3,-14226.8 L-15222.9,-14252.9 L-15267.8,-14252.5 L-15336.2,-14243.5 L-15380.7,-14243.5 L-15421.1,-14258.3 L-15474.2,-14294.7 L-15474.2,-14360.0 L-15475.6,-14440.3 L-15470.4,-14507.2 L-15452.8,-14559.4 L-15158.1,-14564.9 L-15151.3,-14982.8 L-15151.3,-15584.4 L-15154.4,-15802.7 L757.8,-22374.4 L757.8,13843.8 L-18954.7,13843.8 L-18954.7,-4141.7 Z" fill="#add7e1" stroke="none"><title>Biscayne Bay</title></path><path d="M-1.0,-1.0 L257.0,-1.0 L257.0,257.0 L-1.0,257.0 L-1.0,-1.0 Z" fill="#add7e1" stroke="none" fill-rule="evenodd"><title>Biscayne Bay</title></path></svg>