<svg xmlns="http://www.w3.org/2000/svg" width="256" height="256" viewBox="0 0 256 256"><rect width="256" height="256" fill="#f1efe7"/><path d="M14.8,154.5 L15.0,184.9 L49.8,183.4 L48.6,153.0 L14.8,154.5 Z" fill="#ead9a5" stroke="#d3bb7d" stroke-width="0.45"></path><path d="M10.1,267.6 L2.7,267.9 L2.9,275.1 L-8.4,275.5 L-13.5,275.6 L-13.5,274.4 L-26.2,274.8 L-26.2,272.2 L-36.3,272.5 L-36.2,274.6 L-50.0,275.0 L-50.0,276.7 L-52.7,276.8 L-57.3,276.9 L-57.3,275.3 L-70.5,275.8 L-70.6,273.3 L-81.1,273.7 L-81.0,276.5 L-93.5,276.9 L-93.4,278.3 L-97.4,278.5 L-109.4,278.9 L-109.6,272.1 L-117.3,272.3 L-118.0,250.5 L-110.6,250.3 L-110.8,243.2 L-99.3,242.8 L-95.4,242.7 L-95.4,244.1 L-82.7,243.7 L-82.6,246.6 L-71.7,246.2 L-71.8,242.9 L-58.6,242.5 L-58.7,241.2 L-54.6,241.1 L-50.6,241.0 L-50.6,242.3 L-37.7,241.9 L-37.7,245.2 L-26.6,244.9 L-26.7,241.4 L-14.5,241.1 L-14.6,239.3 L-10.3,239.1 L1.6,238.7 L1.9,245.8 L9.4,245.6 L10.1,267.6 Z" fill="#d6d2c9" stroke="#bab6ad" stroke-width="0.4"></path><path d="M187.1,264.1 L173.8,264.6 L173.9,268.5 L171.0,268.6 L165.8,268.8 L165.7,267.0 L153.4,267.4 L153.3,265.2 L142.1,265.5 L142.2,268.6 L129.9,268.9 L130.0,270.7 L126.6,270.8 L121.3,271.0 L121.2,269.1 L109.6,269.5 L109.5,266.3 L97.1,266.7 L97.2,269.8 L85.4,270.2 L85.5,272.1 L81.1,272.2 L77.1,272.4 L77.0,268.5 L64.0,268.9 L63.8,262.4 L61.4,262.5 L61.0,247.6 L63.0,247.5 L62.7,240.9 L75.3,240.5 L75.2,236.0 L80.1,235.9 L84.8,235.7 L84.9,237.1 L96.9,236.7 L97.0,239.8 L107.8,239.4 L107.7,236.6 L120.2,236.2 L120.1,234.6 L124.3,234.4 L128.7,234.3 L128.7,235.9 L141.0,235.5 L141.1,238.3 L152.4,237.9 L152.3,235.1 L165.1,234.7 L165.0,232.9 L168.8,232.8 L173.4,232.6 L173.5,236.6 L186.1,236.2 L186.3,242.6 L188.5,242.5 L189.0,257.7 L186.9,257.7 L187.1,264.1 Z" fill="#d6d2c9" stroke="#bab6ad" stroke-width="0.4"></path><path d="M179.6,210.1 L161.4,210.6 L161.4,209.7 L154.2,209.9 L153.8,196.2 L152.2,196.2 L152.1,192.6 L152.0,188.9 L153.4,188.9 L153.0,176.4 L155.7,176.3 L155.4,164.5 L152.5,164.5 L152.1,152.0 L150.6,152.0 L150.5,148.4 L150.3,144.4 L151.8,144.3 L151.4,131.7 L153.9,131.6 L153.5,120.2 L150.9,120.3 L150.5,107.8 L148.8,107.8 L148.6,103.6 L148.5,100.1 L150.2,100.0 L149.8,86.2 L156.7,86.0 L156.7,84.8 L175.3,84.1 L175.4,85.5 L182.4,85.3 L182.8,98.7 L184.8,98.7 L184.9,102.4 L185.0,106.1 L183.3,106.2 L183.7,118.6 L180.9,118.7 L181.3,130.5 L184.1,130.4 L184.5,143.2 L186.3,143.1 L186.4,146.6 L186.5,150.0 L184.6,150.1 L185.0,162.8 L182.6,162.9 L182.9,175.3 L185.8,175.2 L186.2,188.2 L187.8,188.2 L187.8,191.1 L188.0,194.8 L186.4,194.9 L186.8,209.2 L179.6,209.4 L179.6,210.1 Z" fill="#d6d2c9" stroke="#bab6ad" stroke-width="0.4"></path><path d="M-61.1,285.0 L-16.0,283.6 L28.6,282.1 L40.0,281.7 L48.5,281.5 L88.3,280.2 L119.4,279.2 L164.3,277.7 L182.7,277.1 L186.6,276.4 L191.7,274.4 L195.5,271.4 L198.0,267.7 L199.0,264.3 L199.2,261.3 L195.9,191.0 L193.8,146.5 L191.8,102.2 L188.6,31.4 L187.1,28.3 L185.0,25.2 L183.5,23.7 L181.5,22.0 L180.4,21.5 L178.1,20.2 L174.7,19.3 L171.6,19.3 L32.6,24.5 L18.3,25.0 L10.6,25.3 L-124.5,30.3" fill="none" stroke="#cf828d" stroke-width="1.5" stroke-dasharray="1.6 3.0" opacity="0.62" stroke-linecap="round" stroke-linejoin="round"></path><path d="M48.5,281.5 L46.6,230.3 L79.8,229.1 L96.2,228.5 L124.2,227.5 L148.2,226.6 L168.6,225.9 L168.8,232.8" fill="none" stroke="#cf828d" stroke-width="1.5" stroke-dasharray="1.6 3.0" opacity="0.62" stroke-linecap="round" stroke-linejoin="round"></path><path d="M20.0,231.2 L25.4,231.0 L29.6,230.8" fill="none" stroke="#cf828d" stroke-width="1.5" stroke-dasharray="1.6 3.0" opacity="0.62" stroke-linecap="round" stroke-linejoin="round"></path><path d="M29.6,230.8 L35.2,230.7" fill="none" stroke="#cf828d" stroke-width="1.5" stroke-dasharray="1.6 3.0" opacity="0.62" stroke-linecap="round" stroke-linejoin="round"></path><path d="M35.2,230.7 L40.4,230.6 L45.0,230.5" fill="none" stroke="#cf828d" stroke-width="1.5" stroke-dasharray="1.6 3.0" opacity="0.62" stroke-linecap="round" stroke-linejoin="round"></path><path d="M45.0,230.5 L46.6,230.3" fill="none" stroke="#cf828d" stroke-width="1.5" stroke-dasharray="1.6 3.0" opacity="0.62" stroke-linecap="round" stroke-linejoin="round"></path><path d="M20.0,231.2 L18.4,231.3 L16.5,231.7 L14.3,232.4 L12.5,232.8 L-10.3,233.6 L-26.8,234.1 L-54.6,235.1" fill="none" stroke="#cf828d" stroke-width="1.5" stroke-dasharray="1.6 3.0" opacity="0.62" stroke-linecap="round" stroke-linejoin="round"></path><path d="M79.8,229.1 L80.1,235.9" fill="none" stroke="#cf828d" stroke-width="1.5" stroke-dasharray="1.6 3.0" opacity="0.62" stroke-linecap="round" stroke-linejoin="round"></path><path d="M96.2,228.5 L95.9,220.9 L103.7,220.6 L123.9,219.8 L147.8,218.9 L146.9,192.8 L146.1,170.9 L145.2,148.5 L144.4,126.3 L143.6,103.8 L142.6,78.6 L118.7,79.4 L98.6,80.0 L91.6,80.2 L91.5,72.2" fill="none" stroke="#cf828d" stroke-width="1.5" stroke-dasharray="1.6 3.0" opacity="0.62" stroke-linecap="round" stroke-linejoin="round"></path><path d="M123.9,219.8 L124.2,227.5 L124.3,234.4" fill="none" stroke="#cf828d" stroke-width="1.5" stroke-dasharray="1.6 3.0" opacity="0.62" stroke-linecap="round" stroke-linejoin="round"></path><path d="M147.8,218.9 L148.2,226.6" fill="none" stroke="#cf828d" stroke-width="1.5" stroke-dasharray="1.6 3.0" opacity="0.62" stroke-linecap="round" stroke-linejoin="round"></path><path d="M152.1,192.6 L146.9,192.8" fill="none" stroke="#cf828d" stroke-width="1.5" stroke-dasharray="1.6 3.0" opacity="0.62" stroke-linecap="round" stroke-linejoin="round"></path><path d="M146.1,170.9 L138.2,171.2 L137.5,148.8 L136.8,126.6 L144.4,126.3" fill="none" stroke="#cf828d" stroke-width="1.5" stroke-dasharray="1.6 3.0" opacity="0.62" stroke-linecap="round" stroke-linejoin="round"></path><path d="M74.7,117.4 L-1.9,120.3 L-0.8,153.7 L0.3,187.3 L65.6,184.9 L64.6,151.3 L63.9,129.3" fill="none" stroke="#cf828d" stroke-width="1.5" stroke-dasharray="1.6 3.0" opacity="0.62" stroke-linecap="round" stroke-linejoin="round"></path><path d="M99.4,104.8 L101.1,149.9 L102.7,195.0" fill="none" stroke="#cf828d" stroke-width="1.5" stroke-dasharray="1.6 3.0" opacity="0.62" stroke-linecap="round" stroke-linejoin="round"></path><path d="M103.2,208.6 L103.6,218.7" fill="none" stroke="#cf828d" stroke-width="1.5" stroke-dasharray="1.6 3.0" opacity="0.62" stroke-linecap="round" stroke-linejoin="round"></path><path d="M103.6,218.7 L103.7,220.6" fill="none" stroke="#cf828d" stroke-width="1.5" stroke-dasharray="1.6 3.0" opacity="0.62" stroke-linecap="round" stroke-linejoin="round"></path><path d="M103.2,208.6 L103.0,201.7 L102.7,195.0" fill="none" stroke="#cf828d" stroke-width="1.5" stroke-dasharray="1.6 3.0" opacity="0.62" stroke-linecap="round" stroke-linejoin="round"></path><path d="M187.8,191.1 L195.9,191.0" fill="none" stroke="#cf828d" stroke-width="1.5" stroke-dasharray="1.6 3.0" opacity="0.62" stroke-linecap="round" stroke-linejoin="round"></path><path d="M208.7,24.0 L209.2,31.0 L210.2,35.6 L210.9,40.0 L211.1,48.8 L210.1,66.8 L209.9,72.9 L210.1,75.7 L211.1,79.4 L212.5,82.7 L214.2,86.3 L216.0,90.4 L216.5,94.1 L216.3,100.8 L216.0,107.0 L214.5,114.1 L213.1,122.1 L212.4,126.4 L211.9,130.0 L211.9,132.6 L212.9,135.6 L215.0,138.7 L218.3,143.2 L219.5,145.7 L219.9,147.7 L219.5,150.5 L217.8,154.9 L215.1,159.5 L214.0,161.8 L213.6,164.9 L213.9,167.7 L215.1,170.7 L217.4,174.0 L218.8,176.9 L219.8,179.9 L220.7,183.1 L221.3,188.3 L221.8,192.5 L221.9,195.3 L221.8,197.7 L220.5,201.1 L218.2,206.0 L217.1,208.3 L216.4,210.7 L215.9,213.0 L215.8,214.9 L216.0,217.1 L216.7,220.2 L217.7,223.2 L218.9,226.8 L219.2,229.7 L219.3,233.5 L223.0,253.1 L223.7,256.2 L223.5,259.6 L221.1,265.6 L219.5,269.9 L218.5,274.1 L217.8,278.2 L217.4,281.5 L217.6,285.0 L218.3,288.8 L219.9,293.3 L221.8,297.6 L223.5,301.6 L225.4,305.9" fill="none" stroke="#cf828d" stroke-width="1.5" stroke-dasharray="1.6 3.0" opacity="0.62" stroke-linecap="round" stroke-linejoin="round"></path><path d="M28.0,100.4 L-20.0,101.6 L-39.0,102.0 L-45.2,102.1 L-49.9,103.3" fill="none" stroke="#cec8bb" stroke-width="3.5" stroke-linecap="round" stroke-linejoin="round"/><path d="M28.0,100.4 L-20.0,101.6 L-39.0,102.0 L-45.2,102.1 L-49.9,103.3" fill="none" stroke="#ffffff" stroke-width="2.5" stroke-linecap="round" stroke-linejoin="round"></path><path d="M-51.3,202.9 L-47.7,205.7 L-43.5,206.6 L-35.2,206.3 L-17.7,205.8 L31.5,204.4 L84.3,202.6 L103.0,201.7 L108.3,201.5 L113.0,200.3 L117.0,197.7 L119.4,194.2 L119.9,188.8 L118.7,149.4 L117.6,109.6 L116.3,103.3 L114.2,100.3 L110.8,98.6 L105.9,98.0 L99.2,98.3 L81.3,98.9 L28.0,100.4" fill="none" stroke="#cec8bb" stroke-width="3.5" stroke-linecap="round" stroke-linejoin="round"/><path d="M-51.3,202.9 L-47.7,205.7 L-43.5,206.6 L-35.2,206.3 L-17.7,205.8 L31.5,204.4 L84.3,202.6 L103.0,201.7 L108.3,201.5 L113.0,200.3 L117.0,197.7 L119.4,194.2 L119.9,188.8 L118.7,149.4 L117.6,109.6 L116.3,103.3 L114.2,100.3 L110.8,98.6 L105.9,98.0 L99.2,98.3 L81.3,98.9 L28.0,100.4" fill="none" stroke="#ffffff" stroke-width="2.5" stroke-linecap="round" stroke-linejoin="round"></path><path d="M81.3,98.9 L82.8,150.7 L84.3,202.6" fill="none" stroke="#cec8bb" stroke-width="3.5" stroke-linecap="round" stroke-linejoin="round"/><path d="M81.3,98.9 L82.8,150.7 L84.3,202.6" fill="none" stroke="#ffffff" stroke-width="2.5" stroke-linecap="round" stroke-linejoin="round"></path><path d="M31.5,204.4 L25.0,213.3 L25.3,226.5 L25.4,231.0 L26.3,264.2 L26.7,277.5 L28.6,282.1 L34.1,295.3" fill="none" stroke="#cec8bb" stroke-width="3.5" stroke-linecap="round" stroke-linejoin="round"/><path d="M31.5,204.4 L25.0,213.3 L25.3,226.5 L25.4,231.0 L26.3,264.2 L26.7,277.5 L28.6,282.1 L34.1,295.3" fill="none" stroke="#ffffff" stroke-width="2.5" stroke-linecap="round" stroke-linejoin="round"></path><path d="M34.1,295.3 L40.0,281.7 L41.8,277.7 L40.8,245.0 L40.4,230.6 L39.9,212.3 L31.5,204.4" fill="none" stroke="#cec8bb" stroke-width="3.5" stroke-linecap="round" stroke-linejoin="round"/><path d="M34.1,295.3 L40.0,281.7 L41.8,277.7 L40.8,245.0 L40.4,230.6 L39.9,212.3 L31.5,204.4" fill="none" stroke="#ffffff" stroke-width="2.5" stroke-linecap="round" stroke-linejoin="round"></path><path d="M623.4,290.0 L266.9,303.1 L246.3,303.9" fill="none" stroke="#cec8bb" stroke-width="4.8" stroke-linecap="round" stroke-linejoin="round"/><path d="M623.4,290.0 L266.9,303.1 L246.3,303.9" fill="none" stroke="#ffffff" stroke-width="3.7" stroke-linecap="round" stroke-linejoin="round"><title>Northwest 65th Street</title></path><path d="M198.7,6.2 L198.0,24.4 L209.8,289.3 L218.2,459.5" fill="none" stroke="#cec8bb" stroke-width="4.8" stroke-linecap="round" stroke-linejoin="round"/><path d="M198.7,6.2 L198.0,24.4 L209.8,289.3 L218.2,459.5" fill="none" stroke="#ffffff" stroke-width="3.7" stroke-linecap="round" stroke-linejoin="round"><title>Northwest 12th Avenue</title></path><path d="M250.7,395.5 L246.3,303.9 L239.7,153.3" fill="none" stroke="#d1c4aa" stroke-width="6.4" stroke-linecap="round" stroke-linejoin="round"/><path d="M250.7,395.5 L246.3,303.9 L239.7,153.3" fill="none" stroke="#f1c77d" stroke-width="5.0" stroke-linecap="round" stroke-linejoin="round"><title>Northwest 12th Avenue</title></path><g transform="translate(202.9 133.2) rotate(87.5)"><path d="M -3.6 -3.2 L 4.4 0 L -3.6 3.2 Z" fill="#58656d" opacity="0.46"/></g><text x="202.8" y="132.2" transform="rotate(87.5 202.8 132.2)" text-anchor="middle" dominant-baseline="central" font-family="Arial, sans-serif" font-size="8.3" textLength="111.6" lengthAdjust="spacing" font-weight="650" paint-order="stroke" stroke="#fffaf0" stroke-width="2.05" stroke-linejoin="round" fill="#695f54">Northwest 12th Avenue</text><text x="42.0" y="214.1" text-anchor="middle" font-family="Arial, sans-serif" font-size="6.5" textLength="18.0" lengthAdjust="spacing" font-weight="500" paint-order="stroke" stroke="#f3f5ee" stroke-width="1.55" stroke-linejoin="round" fill="#6f777a">1222</text><text x="125.9" y="213.1" text-anchor="middle" font-family="Arial, sans-serif" font-size="6.5" textLength="18.0" lengthAdjust="spacing" font-weight="500" paint-order="stroke" stroke="#f3f5ee" stroke-width="1.55" stroke-linejoin="round" fill="#6f777a">1208</text><text x="149.0" y="213.2" text-anchor="middle" font-family="Arial, sans-serif" font-size="6.5" textLength="18.0" lengthAdjust="spacing" font-weight="500" paint-order="stroke" stroke="#f3f5ee" stroke-width="1.55" stroke-linejoin="round" fill="#6f777a">1206</text><text x="15.0" y="221.6" text-anchor="middle" font-family="Arial, sans-serif" font-size="6.5" textLength="18.0" lengthAdjust="spacing" font-weight="500" paint-order="stroke" stroke="#f3f5ee" stroke-width="1.55" stroke-linejoin="round" fill="#6f777a">1228</text><text x="65.3" y="184.3" text-anchor="middle" font-family="Arial, sans-serif" font-size="6.5" textLength="18.0" lengthAdjust="spacing" font-weight="500" paint-order="stroke" stroke="#f3f5ee" stroke-width="1.55" stroke-linejoin="round" fill="#6f777a">6515</text><text x="64.4" y="167.8" text-anchor="middle" font-family="Arial, sans-serif" font-size="6.5" textLength="18.0" lengthAdjust="spacing" font-weight="500" paint-order="stroke" stroke="#f3f5ee" stroke-width="1.55" stroke-linejoin="round" fill="#6f777a">6521</text><text x="67.6" y="219.5" text-anchor="middle" font-family="Arial, sans-serif" font-size="6.5" textLength="18.0" lengthAdjust="spacing" font-weight="500" paint-order="stroke" stroke="#f3f5ee" stroke-width="1.55" stroke-linejoin="round" fill="#6f777a">1216</text><text x="103.2" y="216.5" text-anchor="middle" font-family="Arial, sans-serif" font-size="6.5" textLength="18.0" lengthAdjust="spacing" font-weight="500" paint-order="stroke" stroke="#f3f5ee" stroke-width="1.55" stroke-linejoin="round" fill="#6f777a">1214</text><text x="106.7" y="168.6" text-anchor="middle" font-family="Arial, sans-serif" font-size="6.5" textLength="18.0" lengthAdjust="spacing" font-weight="500" paint-order="stroke" stroke="#f3f5ee" stroke-width="1.55" stroke-linejoin="round" fill="#6f777a">1217</text><text x="132.5" y="167.2" text-anchor="middle" font-family="Arial, sans-serif" font-size="6.5" textLength="18.0" lengthAdjust="spacing" font-weight="500" paint-order="stroke" stroke="#f3f5ee" stroke-width="1.55" stroke-linejoin="round" fill="#6f777a">1209</text><text x="161.2" y="165.9" text-anchor="middle" font-family="Arial, sans-serif" font-size="6.5" textLength="18.0" lengthAdjust="spacing" font-weight="500" paint-order="stroke" stroke="#f3f5ee" stroke-width="1.55" stroke-linejoin="round" fill="#6f777a">1203</text><text x="178.5" y="213.1" text-anchor="middle" font-family="Arial, sans-serif" font-size="6.5" textLength="18.0" lengthAdjust="spacing" font-weight="500" paint-order="stroke" stroke="#f3f5ee" stroke-width="1.55" stroke-linejoin="round" fill="#6f777a">1200</text><g opacity="0.56"><title>crossing</title><path d="M195.7,22.6 L200.3,22.6 M195.7,24.4 L200.3,24.4 M195.7,26.2 L200.3,26.2" stroke="#ffffff" stroke-width="2.1" stroke-linecap="round"/><path d="M195.7,22.6 L200.3,22.6 M195.7,24.4 L200.3,24.4 M195.7,26.2 L200.3,26.2" stroke="#59656a" stroke-width="0.85" stroke-linecap="round"/></g></svg>