<svg xmlns="http://www.w3.org/2000/svg" width="256" height="256" viewBox="0 0 256 256"><rect width="256" height="256" fill="#f1efe7"/><path d="M265.9,221.3 L266.0,251.6 L250.9,251.6 L250.8,221.3 L265.9,221.3 Z" fill="#d6d2c9" stroke="#bab6ad" stroke-width="0.4"></path><path d="M-30.0,66.0 L-51.5,66.7 L-52.7,24.0 L-0.8,22.5 L-1.3,6.9 L31.3,5.9 L32.3,39.9 L11.2,40.5 L11.6,55.9 L-30.3,57.1 L-30.0,66.0 Z" fill="#d6d2c9" stroke="#bab6ad" stroke-width="0.4"></path><path d="M196.5,214.0 L196.6,218.1 L240.8,218.3 L240.2,325.6 L203.6,325.0 L198.4,321.0 L194.6,315.7 L193.1,312.1 L192.3,251.6 L177.9,251.5 L127.5,252.2 L127.4,244.9 L113.4,245.5 L108.5,240.8 L105.5,233.6 L105.6,219.1 L176.1,219.5 L176.1,214.2 L196.5,214.0 Z" fill="#d6d2c9" stroke="#bab6ad" stroke-width="0.4"></path><path d="M15.1,217.7 L15.1,221.6 L29.6,221.6 L29.6,233.5 L13.7,233.5 L13.7,237.1 L-4.8,237.1 L-4.8,233.5 L-16.5,233.5 L-16.5,217.6 L15.1,217.7 Z" fill="#d6d2c9" stroke="#bab6ad" stroke-width="0.4"></path><path d="M282.3,9.7 L253.8,10.7 L253.3,-6.5 L281.7,-7.4 L282.3,9.7 Z" fill="#d6d2c9" stroke="#bab6ad" stroke-width="0.4"></path><path d="M289.3,41.5 L254.0,42.6 L253.5,24.9 L288.7,23.8 L289.3,41.5 Z" fill="#d6d2c9" stroke="#bab6ad" stroke-width="0.4"></path><path d="M140.9,158.4 L97.5,163.3 L95.5,145.7 L139.0,140.8 L140.9,158.4 Z" fill="#d6d2c9" stroke="#bab6ad" stroke-width="0.4"></path><path d="M-53.7,224.5 L-23.8,249.1 L18.4,282.7 L64.7,356.2" fill="none" stroke="#6fb5c7" stroke-width="1.7" stroke-dasharray="5 7" opacity="0.34" stroke-linecap="round" stroke-linejoin="round"><title>Wagner Creek</title></path><path d="M394.2,545.2 L86.7,265.1 L40.0,221.4 L35.4,217.2 L30.7,213.8 L28.0,212.1 L22.7,211.6 L-39.6,213.9" fill="none" stroke="#cf828d" stroke-width="1.5" stroke-dasharray="1.6 3.0" opacity="0.62" stroke-linecap="round" stroke-linejoin="round"></path><path d="M-13.8,185.6 L12.1,183.4 L16.1,183.0" fill="none" stroke="#cf828d" stroke-width="1.5" stroke-dasharray="1.6 3.0" opacity="0.62" stroke-linecap="round" stroke-linejoin="round"></path><path d="M16.1,183.0 L30.3,181.0 L38.9,179.8" fill="none" stroke="#cf828d" stroke-width="1.5" stroke-dasharray="1.6 3.0" opacity="0.62" stroke-linecap="round" stroke-linejoin="round"></path><path d="M14.0,186.5 L22.6,199.8 L29.1,209.9" fill="none" stroke="#cf828d" stroke-width="1.5" stroke-dasharray="1.6 3.0" opacity="0.62" stroke-linecap="round" stroke-linejoin="round"></path><path d="M14.0,186.5 L12.1,183.4" fill="none" stroke="#cf828d" stroke-width="1.5" stroke-dasharray="1.6 3.0" opacity="0.62" stroke-linecap="round" stroke-linejoin="round"></path><path d="M29.1,209.9 L28.0,212.1" fill="none" stroke="#cf828d" stroke-width="1.5" stroke-dasharray="1.6 3.0" opacity="0.62" stroke-linecap="round" stroke-linejoin="round"></path><path d="M44.3,220.5 L65.3,223.7 L77.9,225.6" fill="none" stroke="#cf828d" stroke-width="1.5" stroke-dasharray="1.6 3.0" opacity="0.62" stroke-linecap="round" stroke-linejoin="round"></path><path d="M44.3,220.5 L40.0,221.4" fill="none" stroke="#cf828d" stroke-width="1.5" stroke-dasharray="1.6 3.0" opacity="0.62" stroke-linecap="round" stroke-linejoin="round"></path><path d="M153.9,214.0 L240.3,211.2 L239.8,205.6 L326.7,202.8" fill="none" stroke="#cf828d" stroke-width="1.5" stroke-dasharray="1.6 3.0" opacity="0.62" stroke-linecap="round" stroke-linejoin="round"></path><path d="M203.8,337.6 L150.2,289.3 L136.1,276.5 L120.7,262.6 L95.8,240.4 L84.5,229.6 L80.7,225.7 L79.2,223.0 L78.5,219.6 L79.0,216.3 L81.4,213.4 L84.1,211.7 L86.5,210.7 L88.7,210.4 L90.8,210.5 L100.9,217.7 L104.3,216.1 L109.5,215.0 L153.9,214.0" fill="none" stroke="#cf828d" stroke-width="1.5" stroke-dasharray="1.6 3.0" opacity="0.62" stroke-linecap="round" stroke-linejoin="round"></path><path d="M95.8,240.4 L94.0,234.1 L93.6,229.6 L94.7,225.4 L96.6,221.8 L100.9,217.7" fill="none" stroke="#cf828d" stroke-width="1.5" stroke-dasharray="1.6 3.0" opacity="0.62" stroke-linecap="round" stroke-linejoin="round"></path><path d="M77.9,225.6 L80.7,225.7" fill="none" stroke="#cf828d" stroke-width="1.5" stroke-dasharray="1.6 3.0" opacity="0.62" stroke-linecap="round" stroke-linejoin="round"></path><path d="M51.9,186.6 L64.5,196.4 L82.0,210.0" fill="none" stroke="#cf828d" stroke-width="1.5" stroke-dasharray="1.6 3.0" opacity="0.62" stroke-linecap="round" stroke-linejoin="round"></path><path d="M82.0,210.0 L84.1,211.7" fill="none" stroke="#cf828d" stroke-width="1.5" stroke-dasharray="1.6 3.0" opacity="0.62" stroke-linecap="round" stroke-linejoin="round"></path><path d="M202.2,108.9 L206.9,140.1 L208.4,153.4 L209.3,169.2 L208.5,172.8 L206.2,175.6 L203.1,178.1 L199.5,179.6 L163.9,180.6 L88.1,182.8 L63.0,184.0 L54.9,183.9 L51.0,182.7 L46.2,180.6 L44.2,178.9 L42.8,177.8 L31.3,166.2 L29.1,163.1" fill="none" stroke="#cf828d" stroke-width="1.5" stroke-dasharray="1.6 3.0" opacity="0.62" stroke-linecap="round" stroke-linejoin="round"></path><path d="M51.9,186.6 L51.0,182.7" fill="none" stroke="#cf828d" stroke-width="1.5" stroke-dasharray="1.6 3.0" opacity="0.62" stroke-linecap="round" stroke-linejoin="round"></path><path d="M38.9,179.8 L44.2,178.9" fill="none" stroke="#cf828d" stroke-width="1.5" stroke-dasharray="1.6 3.0" opacity="0.62" stroke-linecap="round" stroke-linejoin="round"></path><path d="M29.1,163.1 L23.1,156.5 L17.7,150.7" fill="none" stroke="#cf828d" stroke-width="1.5" stroke-dasharray="1.6 3.0" opacity="0.62" stroke-linecap="round" stroke-linejoin="round"></path><path d="M17.7,150.7 L6.5,138.5" fill="none" stroke="#cf828d" stroke-width="1.5" stroke-dasharray="1.6 3.0" opacity="0.62" stroke-linecap="round" stroke-linejoin="round"></path><path d="M6.5,138.5 L1.7,133.3 L-2.1,129.1" fill="none" stroke="#cf828d" stroke-width="1.5" stroke-dasharray="1.6 3.0" opacity="0.62" stroke-linecap="round" stroke-linejoin="round"></path><path d="M202.2,108.9 L201.4,103.0 L200.5,97.1" fill="none" stroke="#cf828d" stroke-width="1.5" stroke-dasharray="1.6 3.0" opacity="0.62" stroke-linecap="round" stroke-linejoin="round"></path><path d="M208.4,153.4 L243.3,148.3" fill="none" stroke="#cf828d" stroke-width="1.5" stroke-dasharray="1.6 3.0" opacity="0.62" stroke-linecap="round" stroke-linejoin="round"></path><path d="M243.3,148.3 L262.7,145.2 L376.0,127.4" fill="none" stroke="#cf828d" stroke-width="1.5" stroke-dasharray="1.6 3.0" opacity="0.62" stroke-linecap="round" stroke-linejoin="round"></path><path d="M369.9,180.5 L276.6,184.3 L231.8,186.3 L229.5,185.5" fill="none" stroke="#cf828d" stroke-width="1.5" stroke-dasharray="1.6 3.0" opacity="0.62" stroke-linecap="round" stroke-linejoin="round"></path><path d="M229.5,185.5 L226.5,183.6 L217.0,177.5 L212.8,174.7" fill="none" stroke="#cf828d" stroke-width="1.5" stroke-dasharray="1.6 3.0" opacity="0.62" stroke-linecap="round" stroke-linejoin="round"></path><path d="M212.8,174.7 L208.5,172.8" fill="none" stroke="#cf828d" stroke-width="1.5" stroke-dasharray="1.6 3.0" opacity="0.62" stroke-linecap="round" stroke-linejoin="round"></path><path d="M-2.1,129.1 L-14.9,120.1 L-40.1,95.7 L-112.7,21.1" fill="none" stroke="#cf828d" stroke-width="1.5" stroke-dasharray="1.6 3.0" opacity="0.62" stroke-linecap="round" stroke-linejoin="round"></path><path d="M9.3,-53.1 L96.3,35.9 L104.7,44.5 L135.0,73.4 L140.3,78.4 L151.5,84.8 L161.4,87.7 L168.2,87.5 L198.5,82.6 L214.6,80.0 L224.7,75.6 L230.3,71.2 L234.4,65.6 L237.2,60.6 L238.7,56.1 L239.7,48.0 L239.3,29.3 L237.5,-11.9 L234.6,-98.0" fill="none" stroke="#cf828d" stroke-width="1.5" stroke-dasharray="1.6 3.0" opacity="0.62" stroke-linecap="round" stroke-linejoin="round"></path><path d="M305.5,60.2 L299.9,59.9 L290.6,63.3 L281.6,67.1 L275.6,68.9 L269.7,69.2 L263.4,69.1 L258.9,68.4 L250.4,65.3 L237.2,60.6" fill="none" stroke="#cf828d" stroke-width="1.5" stroke-dasharray="1.6 3.0" opacity="0.62" stroke-linecap="round" stroke-linejoin="round"></path><path d="M200.5,97.1 L198.5,82.6" fill="none" stroke="#cf828d" stroke-width="1.5" stroke-dasharray="1.6 3.0" opacity="0.62" stroke-linecap="round" stroke-linejoin="round"></path><path d="M216.0,-75.0 L219.9,51.2 L219.0,54.8 L215.9,58.1 L211.6,60.9 L207.4,63.0 L197.4,64.6 L185.5,66.3 L176.6,67.6 L170.6,68.1 L154.4,67.3 L149.2,64.5 L141.4,56.9 L109.3,20.2 L73.9,-15.1 L70.4,-17.6" fill="none" stroke="#cf828d" stroke-width="1.5" stroke-dasharray="1.6 3.0" opacity="0.62" stroke-linecap="round" stroke-linejoin="round"></path><path d="M344.6,143.5 L259.6,156.9 L247.2,159.1 L238.5,168.0 L230.7,178.6" fill="none" stroke="#cec8bb" stroke-width="3.5" stroke-linecap="round" stroke-linejoin="round"/><path d="M344.6,143.5 L259.6,156.9 L247.2,159.1 L238.5,168.0 L230.7,178.6" fill="none" stroke="#ffffff" stroke-width="2.5" stroke-linecap="round" stroke-linejoin="round"></path><path d="M102.0,29.9 L96.3,35.9 L92.5,39.9 L86.5,42.4" fill="none" stroke="#cec8bb" stroke-width="3.5" stroke-linecap="round" stroke-linejoin="round"/><path d="M102.0,29.9 L96.3,35.9 L92.5,39.9 L86.5,42.4" fill="none" stroke="#ffffff" stroke-width="2.5" stroke-linecap="round" stroke-linejoin="round"></path><path d="M86.5,42.4 L48.7,42.7 L39.5,45.2 L34.8,51.7 L32.5,59.6 L32.5,67.3 L35.3,73.4 L40.2,78.1 L49.5,82.6 L124.0,81.2" fill="none" stroke="#cec8bb" stroke-width="3.5" stroke-linecap="round" stroke-linejoin="round"/><path d="M86.5,42.4 L48.7,42.7 L39.5,45.2 L34.8,51.7 L32.5,59.6 L32.5,67.3 L35.3,73.4 L40.2,78.1 L49.5,82.6 L124.0,81.2" fill="none" stroke="#ffffff" stroke-width="2.5" stroke-linecap="round" stroke-linejoin="round"></path><path d="M124.0,81.2 L130.6,79.2 L135.0,73.4 L140.2,66.4" fill="none" stroke="#cec8bb" stroke-width="3.5" stroke-linecap="round" stroke-linejoin="round"/><path d="M124.0,81.2 L130.6,79.2 L135.0,73.4 L140.2,66.4" fill="none" stroke="#ffffff" stroke-width="2.5" stroke-linecap="round" stroke-linejoin="round"></path><path d="M338.1,165.8 L249.6,178.5 L230.7,178.6 L230.2,179.3 L226.5,183.6 L220.6,192.8" fill="none" stroke="#cec8bb" stroke-width="3.5" stroke-linecap="round" stroke-linejoin="round"/><path d="M338.1,165.8 L249.6,178.5 L230.7,178.6 L230.2,179.3 L226.5,183.6 L220.6,192.8" fill="none" stroke="#ffffff" stroke-width="2.5" stroke-linecap="round" stroke-linejoin="round"></path><path d="M247.2,159.1 L238.8,160.6 L232.1,162.7 L226.5,166.3 L221.4,171.2 L217.8,175.9 L217.0,177.5 L213.0,185.4 L210.1,192.9" fill="none" stroke="#cec8bb" stroke-width="3.5" stroke-linecap="round" stroke-linejoin="round"/><path d="M247.2,159.1 L238.8,160.6 L232.1,162.7 L226.5,166.3 L221.4,171.2 L217.8,175.9 L217.0,177.5 L213.0,185.4 L210.1,192.9" fill="none" stroke="#ffffff" stroke-width="2.5" stroke-linecap="round" stroke-linejoin="round"></path><path d="M222.5,65.6 L227.8,58.7 L230.5,48.1 L230.8,28.0 L225.5,-101.8" fill="none" stroke="#cec8bb" stroke-width="4.8" stroke-linecap="round" stroke-linejoin="round"/><path d="M222.5,65.6 L227.8,58.7 L230.5,48.1 L230.8,28.0 L225.5,-101.8" fill="none" stroke="#ffffff" stroke-width="3.7" stroke-linecap="round" stroke-linejoin="round"><title>Northwest 8th Avenue</title></path><path d="M222.5,65.6 L215.7,68.5 L205.3,71.8 L193.0,74.1 L177.1,76.2 L164.0,76.3 L149.5,73.3 L140.2,66.4 L119.6,46.4 L102.0,29.9 L79.5,6.1 L57.9,-15.5 L-18.5,-95.1" fill="none" stroke="#cec8bb" stroke-width="4.8" stroke-linecap="round" stroke-linejoin="round"/><path d="M222.5,65.6 L215.7,68.5 L205.3,71.8 L193.0,74.1 L177.1,76.2 L164.0,76.3 L149.5,73.3 L140.2,66.4 L119.6,46.4 L102.0,29.9 L79.5,6.1 L57.9,-15.5 L-18.5,-95.1" fill="none" stroke="#ffffff" stroke-width="3.7" stroke-linecap="round" stroke-linejoin="round"><title>Northwest 11th Road</title></path><path d="M43.2,198.3 L22.6,199.8 L12.4,200.2 L-34.8,201.8 L-53.9,202.6" fill="none" stroke="#d1c4aa" stroke-width="5.4" stroke-linecap="round" stroke-linejoin="round"/><path d="M43.2,198.3 L22.6,199.8 L12.4,200.2 L-34.8,201.8 L-53.9,202.6" fill="none" stroke="#f4d99b" stroke-width="4.0" stroke-linecap="round" stroke-linejoin="round"><title>Northwest 11th Street</title></path><path d="M21.9,171.1 L-9.7,139.7" fill="none" stroke="#d1c4aa" stroke-width="5.4" stroke-linecap="round" stroke-linejoin="round"/><path d="M21.9,171.1 L-9.7,139.7" fill="none" stroke="#f4d99b" stroke-width="4.0" stroke-linecap="round" stroke-linejoin="round"><title>Northwest 8th Street Road</title></path><path d="M336.7,190.0 L267.5,191.9 L220.6,192.8" fill="none" stroke="#d1c4aa" stroke-width="5.4" stroke-linecap="round" stroke-linejoin="round"/><path d="M336.7,190.0 L267.5,191.9 L220.6,192.8" fill="none" stroke="#f4d99b" stroke-width="4.0" stroke-linecap="round" stroke-linejoin="round"><title>Northwest 11th Street</title></path><path d="M43.2,198.3 L60.1,218.0 L65.3,223.7 L71.4,230.8 L124.1,281.3 L144.8,299.7" fill="none" stroke="#d1c4aa" stroke-width="5.4" stroke-linecap="round" stroke-linejoin="round"/><path d="M43.2,198.3 L60.1,218.0 L65.3,223.7 L71.4,230.8 L124.1,281.3 L144.8,299.7" fill="none" stroke="#f4d99b" stroke-width="4.0" stroke-linecap="round" stroke-linejoin="round"><title>Northwest 8th Street Road</title></path><path d="M247.7,95.6 L370.4,76.2" fill="none" stroke="#d1c4aa" stroke-width="5.4" stroke-linecap="round" stroke-linejoin="round"/><path d="M247.7,95.6 L370.4,76.2" fill="none" stroke="#f4d99b" stroke-width="4.0" stroke-linecap="round" stroke-linejoin="round"></path><path d="M43.2,198.3 L30.3,181.0" fill="none" stroke="#d1c4aa" stroke-width="5.4" stroke-linecap="round" stroke-linejoin="round"/><path d="M43.2,198.3 L30.3,181.0" fill="none" stroke="#f4d99b" stroke-width="4.0" stroke-linecap="round" stroke-linejoin="round"><title>Northwest 8th Street Road</title></path><path d="M-14.1,135.3 L1.7,133.3 L33.0,129.3" fill="none" stroke="#d1c4aa" stroke-width="5.4" stroke-linecap="round" stroke-linejoin="round"/><path d="M-14.1,135.3 L1.7,133.3 L33.0,129.3" fill="none" stroke="#f4d99b" stroke-width="4.0" stroke-linecap="round" stroke-linejoin="round"></path><path d="M21.9,171.1 L23.1,156.5 L24.5,147.8 L26.9,141.5 L33.0,129.3" fill="none" stroke="#f4d99b" stroke-width="3.5" stroke-linecap="round" stroke-linejoin="round"></path><path d="M220.6,192.8 L210.1,192.9 L102.1,194.1" fill="none" stroke="#d1c4aa" stroke-width="5.4" stroke-linecap="round" stroke-linejoin="round"/><path d="M220.6,192.8 L210.1,192.9 L102.1,194.1" fill="none" stroke="#f4d99b" stroke-width="4.0" stroke-linecap="round" stroke-linejoin="round"><title>Northwest 11th Street</title></path><path d="M102.1,194.1 L86.7,194.8 L64.5,196.4 L43.2,198.3" fill="none" stroke="#d1c4aa" stroke-width="5.4" stroke-linecap="round" stroke-linejoin="round"/><path d="M102.1,194.1 L86.7,194.8 L64.5,196.4 L43.2,198.3" fill="none" stroke="#f4d99b" stroke-width="4.0" stroke-linecap="round" stroke-linejoin="round"><title>Northwest 11th Street</title></path><path d="M30.3,181.0 L27.2,177.2 L21.9,171.1" fill="none" stroke="#d1c4aa" stroke-width="5.4" stroke-linecap="round" stroke-linejoin="round"/><path d="M30.3,181.0 L27.2,177.2 L21.9,171.1" fill="none" stroke="#f4d99b" stroke-width="4.0" stroke-linecap="round" stroke-linejoin="round"><title>Northwest 8th Street Road</title></path><path d="M33.0,129.3 L80.5,122.6 L201.4,103.0 L218.4,100.2 L247.7,95.6" fill="none" stroke="#d1c4aa" stroke-width="5.4" stroke-linecap="round" stroke-linejoin="round"/><path d="M33.0,129.3 L80.5,122.6 L201.4,103.0 L218.4,100.2 L247.7,95.6" fill="none" stroke="#f4d99b" stroke-width="4.0" stroke-linecap="round" stroke-linejoin="round"></path><path d="M-70.8,173.7 L-43.2,175.1 L-12.6,175.5 L27.0,173.7 L61.1,169.8 L100.4,164.3 L176.0,152.2 L267.5,137.5 L494.0,101.5" fill="none" stroke="#fbf8ef" stroke-width="7.2" stroke-linecap="round" stroke-linejoin="round"/><path d="M-70.8,173.7 L-43.2,175.1 L-12.6,175.5 L27.0,173.7 L61.1,169.8 L100.4,164.3 L176.0,152.2 L267.5,137.5 L494.0,101.5" fill="none" stroke="#5a5796" stroke-width="5.0" stroke-linecap="round" stroke-linejoin="round"><title>Metrorail</title></path><path d="M-8.2,171.2 L-7.9,179.4" fill="none" stroke="#3f494e" stroke-width="0.9" stroke-linecap="round"/><path d="M0.9,170.8 L1.2,179.0" fill="none" stroke="#3f494e" stroke-width="0.9" stroke-linecap="round"/><path d="M9.9,170.3 L10.3,178.6" fill="none" stroke="#3f494e" stroke-width="0.9" stroke-linecap="round"/><path d="M19.0,169.9 L19.4,178.2" fill="none" stroke="#3f494e" stroke-width="0.9" stroke-linecap="round"/><path d="M31.1,169.1 L32.0,177.3" fill="none" stroke="#3f494e" stroke-width="0.9" stroke-linecap="round"/><path d="M40.1,168.0 L41.1,176.3" fill="none" stroke="#3f494e" stroke-width="0.9" stroke-linecap="round"/><path d="M49.2,167.0 L50.1,175.2" fill="none" stroke="#3f494e" stroke-width="0.9" stroke-linecap="round"/><path d="M65.0,165.1 L66.2,173.3" fill="none" stroke="#3f494e" stroke-width="0.9" stroke-linecap="round"/><path d="M74.0,163.8 L75.2,172.0" fill="none" stroke="#3f494e" stroke-width="0.9" stroke-linecap="round"/><path d="M83.0,162.6 L84.2,170.8" fill="none" stroke="#3f494e" stroke-width="0.9" stroke-linecap="round"/><path d="M92.1,161.3 L93.2,169.5" fill="none" stroke="#3f494e" stroke-width="0.9" stroke-linecap="round"/><path d="M104.2,159.5 L105.5,167.7" fill="none" stroke="#3f494e" stroke-width="0.9" stroke-linecap="round"/><path d="M113.2,158.1 L114.5,166.2" fill="none" stroke="#3f494e" stroke-width="0.9" stroke-linecap="round"/><path d="M122.2,156.6 L123.5,164.8" fill="none" stroke="#3f494e" stroke-width="0.9" stroke-linecap="round"/><path d="M131.2,155.2 L132.5,163.4" fill="none" stroke="#3f494e" stroke-width="0.9" stroke-linecap="round"/><path d="M140.2,153.8 L141.5,161.9" fill="none" stroke="#3f494e" stroke-width="0.9" stroke-linecap="round"/><path d="M149.2,152.3 L150.5,160.5" fill="none" stroke="#3f494e" stroke-width="0.9" stroke-linecap="round"/><path d="M158.2,150.9 L159.5,159.1" fill="none" stroke="#3f494e" stroke-width="0.9" stroke-linecap="round"/><path d="M167.1,149.5 L168.4,157.6" fill="none" stroke="#3f494e" stroke-width="0.9" stroke-linecap="round"/><path d="M179.9,147.4 L181.2,155.6" fill="none" stroke="#3f494e" stroke-width="0.9" stroke-linecap="round"/><path d="M188.9,146.0 L190.2,154.2" fill="none" stroke="#3f494e" stroke-width="0.9" stroke-linecap="round"/><path d="M197.8,144.5 L199.2,152.7" fill="none" stroke="#3f494e" stroke-width="0.9" stroke-linecap="round"/><path d="M206.8,143.1 L208.1,151.3" fill="none" stroke="#3f494e" stroke-width="0.9" stroke-linecap="round"/><path d="M215.8,141.6 L217.1,149.8" fill="none" stroke="#3f494e" stroke-width="0.9" stroke-linecap="round"/><path d="M224.8,140.2 L226.1,148.4" fill="none" stroke="#3f494e" stroke-width="0.9" stroke-linecap="round"/><path d="M233.8,138.7 L235.1,146.9" fill="none" stroke="#3f494e" stroke-width="0.9" stroke-linecap="round"/><path d="M242.8,137.3 L244.1,145.5" fill="none" stroke="#3f494e" stroke-width="0.9" stroke-linecap="round"/><path d="M251.7,135.9 L253.1,144.0" fill="none" stroke="#3f494e" stroke-width="0.9" stroke-linecap="round"/><path d="M260.7,134.4 L262.0,142.6" fill="none" stroke="#3f494e" stroke-width="0.9" stroke-linecap="round"/><path d="M271.3,132.7 L272.6,140.9" fill="none" stroke="#3f494e" stroke-width="0.9" stroke-linecap="round"/><path d="M-70.8,173.7 L-43.2,175.1 L-12.6,175.5 L27.0,173.7 L61.1,169.8 L100.4,164.3 L176.0,152.2 L267.5,137.5 L494.0,101.5" fill="none" stroke="#ffffff" stroke-width="3.1" stroke-linecap="round" stroke-linejoin="round"/><path d="M315.8,109.2 L264.2,117.5 L171.4,132.6 L95.3,144.7 L59.3,150.0 L25.2,154.2 L-12.9,156.3 L-43.9,156.9 L-70.0,155.9" fill="none" stroke="#fbf8ef" stroke-width="7.2" stroke-linecap="round" stroke-linejoin="round"/><path d="M315.8,109.2 L264.2,117.5 L171.4,132.6 L95.3,144.7 L59.3,150.0 L25.2,154.2 L-12.9,156.3 L-43.9,156.9 L-70.0,155.9" fill="none" stroke="#5a5796" stroke-width="5.0" stroke-linecap="round" stroke-linejoin="round"><title>Metrorail</title></path><path d="M276.0,119.7 L274.7,111.6" fill="none" stroke="#3f494e" stroke-width="0.9" stroke-linecap="round"/><path d="M260.3,122.3 L259.0,114.1" fill="none" stroke="#3f494e" stroke-width="0.9" stroke-linecap="round"/><path d="M251.4,123.7 L250.0,115.6" fill="none" stroke="#3f494e" stroke-width="0.9" stroke-linecap="round"/><path d="M242.4,125.2 L241.0,117.0" fill="none" stroke="#3f494e" stroke-width="0.9" stroke-linecap="round"/><path d="M233.4,126.7 L232.1,118.5" fill="none" stroke="#3f494e" stroke-width="0.9" stroke-linecap="round"/><path d="M224.4,128.1 L223.1,120.0" fill="none" stroke="#3f494e" stroke-width="0.9" stroke-linecap="round"/><path d="M215.4,129.6 L214.1,121.4" fill="none" stroke="#3f494e" stroke-width="0.9" stroke-linecap="round"/><path d="M206.4,131.1 L205.1,122.9" fill="none" stroke="#3f494e" stroke-width="0.9" stroke-linecap="round"/><path d="M197.5,132.5 L196.1,124.3" fill="none" stroke="#3f494e" stroke-width="0.9" stroke-linecap="round"/><path d="M188.5,134.0 L187.1,125.8" fill="none" stroke="#3f494e" stroke-width="0.9" stroke-linecap="round"/><path d="M179.5,135.4 L178.2,127.3" fill="none" stroke="#3f494e" stroke-width="0.9" stroke-linecap="round"/><path d="M167.6,137.4 L166.3,129.2" fill="none" stroke="#3f494e" stroke-width="0.9" stroke-linecap="round"/><path d="M158.6,138.8 L157.3,130.6" fill="none" stroke="#3f494e" stroke-width="0.9" stroke-linecap="round"/><path d="M149.6,140.2 L148.3,132.1" fill="none" stroke="#3f494e" stroke-width="0.9" stroke-linecap="round"/><path d="M140.6,141.7 L139.3,133.5" fill="none" stroke="#3f494e" stroke-width="0.9" stroke-linecap="round"/><path d="M131.6,143.1 L130.3,134.9" fill="none" stroke="#3f494e" stroke-width="0.9" stroke-linecap="round"/><path d="M122.7,144.5 L121.4,136.3" fill="none" stroke="#3f494e" stroke-width="0.9" stroke-linecap="round"/><path d="M113.7,146.0 L112.4,137.8" fill="none" stroke="#3f494e" stroke-width="0.9" stroke-linecap="round"/><path d="M104.7,147.4 L103.4,139.2" fill="none" stroke="#3f494e" stroke-width="0.9" stroke-linecap="round"/><path d="M91.4,149.4 L90.2,141.2" fill="none" stroke="#3f494e" stroke-width="0.9" stroke-linecap="round"/><path d="M82.4,150.8 L81.2,142.6" fill="none" stroke="#3f494e" stroke-width="0.9" stroke-linecap="round"/><path d="M73.4,152.1 L72.2,143.9" fill="none" stroke="#3f494e" stroke-width="0.9" stroke-linecap="round"/><path d="M64.4,153.4 L63.2,145.2" fill="none" stroke="#3f494e" stroke-width="0.9" stroke-linecap="round"/><path d="M55.2,154.7 L54.2,146.5" fill="none" stroke="#3f494e" stroke-width="0.9" stroke-linecap="round"/><path d="M46.2,155.8 L45.2,147.6" fill="none" stroke="#3f494e" stroke-width="0.9" stroke-linecap="round"/><path d="M37.2,156.9 L36.2,148.7" fill="none" stroke="#3f494e" stroke-width="0.9" stroke-linecap="round"/><path d="M20.8,158.6 L20.4,150.3" fill="none" stroke="#3f494e" stroke-width="0.9" stroke-linecap="round"/><path d="M11.8,159.1 L11.3,150.8" fill="none" stroke="#3f494e" stroke-width="0.9" stroke-linecap="round"/><path d="M2.7,159.6 L2.2,151.3" fill="none" stroke="#3f494e" stroke-width="0.9" stroke-linecap="round"/><path d="M-6.4,160.1 L-6.9,151.9" fill="none" stroke="#3f494e" stroke-width="0.9" stroke-linecap="round"/><path d="M-17.4,160.6 L-17.6,152.3" fill="none" stroke="#3f494e" stroke-width="0.9" stroke-linecap="round"/><path d="M315.8,109.2 L264.2,117.5 L171.4,132.6 L95.3,144.7 L59.3,150.0 L25.2,154.2 L-12.9,156.3 L-43.9,156.9 L-70.0,155.9" fill="none" stroke="#ffffff" stroke-width="3.1" stroke-linecap="round" stroke-linejoin="round"/><g transform="translate(156.1 193.5) rotate(179.4)"><path d="M -3.6 -3.2 L 4.4 0 L -3.6 3.2 Z" fill="#58656d" opacity="0.46"/></g><g transform="translate(140.9 112.8) rotate(-9.2)"><path d="M -3.6 -3.2 L 4.4 0 L -3.6 3.2 Z" fill="#58656d" opacity="0.46"/></g><text x="156.1" y="193.5" transform="rotate(-0.6 156.1 193.5)" text-anchor="middle" dominant-baseline="central" font-family="Arial, sans-serif" font-size="8.3" textLength="111.6" lengthAdjust="spacing" font-weight="650" paint-order="stroke" stroke="#fffaf0" stroke-width="2.05" stroke-linejoin="round" fill="#6f573d">Northwest 11th Street</text><text x="15.0" y="228.7" text-anchor="middle" font-family="Arial, sans-serif" font-size="6.5" textLength="18.0" lengthAdjust="spacing" font-weight="500" paint-order="stroke" stroke="#f3f5ee" stroke-width="1.55" stroke-linejoin="round" fill="#6f777a">870</text><text x="182.3" y="52.0" text-anchor="middle" font-family="Arial, sans-serif" font-size="6.5" textLength="18.0" lengthAdjust="spacing" font-weight="500" paint-order="stroke" stroke="#f3f5ee" stroke-width="1.55" stroke-linejoin="round" fill="#6f777a">1136</text><text x="184.8" y="19.4" text-anchor="middle" font-family="Arial, sans-serif" font-size="6.5" textLength="18.0" lengthAdjust="spacing" font-weight="500" paint-order="stroke" stroke="#f3f5ee" stroke-width="1.55" stroke-linejoin="round" fill="#6f777a">1146</text><text x="15.9" y="100.6" text-anchor="middle" font-family="Arial, sans-serif" font-size="6.5" textLength="18.0" lengthAdjust="spacing" font-weight="500" paint-order="stroke" stroke="#f3f5ee" stroke-width="1.55" stroke-linejoin="round" fill="#6f777a">1133</text><text x="83.0" y="104.2" text-anchor="middle" font-family="Arial, sans-serif" font-size="6.5" textLength="18.0" lengthAdjust="spacing" font-weight="500" paint-order="stroke" stroke="#f3f5ee" stroke-width="1.55" stroke-linejoin="round" fill="#6f777a">1124</text><text x="133.3" y="25.6" text-anchor="middle" font-family="Arial, sans-serif" font-size="6.5" textLength="18.0" lengthAdjust="spacing" font-weight="500" paint-order="stroke" stroke="#f3f5ee" stroke-width="1.55" stroke-linejoin="round" fill="#6f777a">1145</text><text x="204.0" y="236.3" text-anchor="middle" font-family="Arial, sans-serif" font-size="6.5" textLength="18.0" lengthAdjust="spacing" font-weight="500" paint-order="stroke" stroke="#f3f5ee" stroke-width="1.55" stroke-linejoin="round" fill="#6f777a">816</text><g><title>signal</title><rect x="24.5" y="172.0" width="5.4" height="10.4" rx="2.1" fill="#3f4b52" stroke="#ffffff" stroke-width="1.1"/><circle cx="27.2" cy="174.4" r="1.1" fill="#d85a4f"/><circle cx="27.2" cy="177.2" r="1.1" fill="#e2b84b"/><circle cx="27.2" cy="180.0" r="1.1" fill="#55a86b"/></g><g><title>signal</title><rect x="9.7" y="195.0" width="5.4" height="10.4" rx="2.1" fill="#3f4b52" stroke="#ffffff" stroke-width="1.1"/><circle cx="12.4" cy="197.4" r="1.1" fill="#d85a4f"/><circle cx="12.4" cy="200.2" r="1.1" fill="#e2b84b"/><circle cx="12.4" cy="203.0" r="1.1" fill="#55a86b"/></g><g><title>signal</title><rect x="68.7" y="225.6" width="5.4" height="10.4" rx="2.1" fill="#3f4b52" stroke="#ffffff" stroke-width="1.1"/><circle cx="71.4" cy="228.0" r="1.1" fill="#d85a4f"/><circle cx="71.4" cy="230.8" r="1.1" fill="#e2b84b"/><circle cx="71.4" cy="233.6" r="1.1" fill="#55a86b"/></g><g><title>signal</title><rect x="84.0" y="189.6" width="5.4" height="10.4" rx="2.1" fill="#3f4b52" stroke="#ffffff" stroke-width="1.1"/><circle cx="86.7" cy="192.0" r="1.1" fill="#d85a4f"/><circle cx="86.7" cy="194.8" r="1.1" fill="#e2b84b"/><circle cx="86.7" cy="197.6" r="1.1" fill="#55a86b"/></g><g opacity="0.56"><title>crossing</title><path d="M20.8,154.7 L25.4,154.7 M20.8,156.5 L25.4,156.5 M20.8,158.3 L25.4,158.3" stroke="#ffffff" stroke-width="2.1" stroke-linecap="round"/><path d="M20.8,154.7 L25.4,154.7 M20.8,156.5 L25.4,156.5 M20.8,158.3 L25.4,158.3" stroke="#59656a" stroke-width="0.85" stroke-linecap="round"/></g><g opacity="0.56"><title>crossing</title><path d="M20.4,198.0 L24.9,198.0 M20.4,199.8 L24.9,199.8 M20.4,201.6 L24.9,201.6" stroke="#ffffff" stroke-width="2.1" stroke-linecap="round"/><path d="M20.4,198.0 L24.9,198.0 M20.4,199.8 L24.9,199.8 M20.4,201.6 L24.9,201.6" stroke="#59656a" stroke-width="0.85" stroke-linecap="round"/></g><g opacity="0.56"><title>crossing</title><path d="M62.2,194.6 L66.8,194.6 M62.2,196.4 L66.8,196.4 M62.2,198.2 L66.8,198.2" stroke="#ffffff" stroke-width="2.1" stroke-linecap="round"/><path d="M62.2,194.6 L66.8,194.6 M62.2,196.4 L66.8,196.4 M62.2,198.2 L66.8,198.2" stroke="#59656a" stroke-width="0.85" stroke-linecap="round"/></g><g opacity="0.56"><title>crossing</title><path d="M199.1,101.2 L203.6,101.2 M199.1,103.0 L203.6,103.0 M199.1,104.8 L203.6,104.8" stroke="#ffffff" stroke-width="2.1" stroke-linecap="round"/><path d="M199.1,101.2 L203.6,101.2 M199.1,103.0 L203.6,103.0 M199.1,104.8 L203.6,104.8" stroke="#59656a" stroke-width="0.85" stroke-linecap="round"/></g></svg>