<svg xmlns="http://www.w3.org/2000/svg" width="256" height="256" viewBox="0 0 256 256"><rect width="256" height="256" fill="#f1efe7"/><path d="M101.0,216.6 L65.4,216.9 L65.6,233.9 L101.1,233.6 L101.0,216.6 Z" fill="#d6d2c9" stroke="#bab6ad" stroke-width="0.4"></path><path d="M84.5,-0.1 L85.6,36.2 L99.1,35.7 L99.6,53.7 L51.0,55.2 L49.1,-8.0 L66.4,-8.5 L65.8,-27.5 L102.1,-28.6 L102.9,-0.7 L84.5,-0.1 Z" fill="#d6d2c9" stroke="#bab6ad" stroke-width="0.4"></path><path d="M58.0,78.4 L58.1,89.2 L43.8,89.3 L43.6,79.2 L38.5,79.2 L38.4,65.8 L74.5,65.3 L74.6,76.1 L62.0,76.3 L62.1,78.3 L58.0,78.4 Z" fill="#d6d2c9" stroke="#bab6ad" stroke-width="0.4"></path><path d="M31.2,260.7 L-20.0,262.5 L-20.2,256.8 L-20.4,251.1 L-18.9,251.1 L-19.1,243.8 L30.6,242.1 L30.9,251.4 L31.2,260.7 Z" fill="#d6d2c9" stroke="#bab6ad" stroke-width="0.4"></path><path d="M248.8,39.4 L249.1,44.9 L252.9,44.7 L253.7,60.4 L229.3,61.6 L228.2,40.4 L248.8,39.4 Z" fill="#d6d2c9" stroke="#bab6ad" stroke-width="0.4"></path><path d="M10.7,232.4 L-19.5,234.2 L-20.5,218.2 L9.7,216.3 L10.7,232.4 Z" fill="#d6d2c9" stroke="#bab6ad" stroke-width="0.4"></path><path d="M101.3,254.1 L70.0,255.1 L69.5,238.7 L100.8,237.7 L101.3,254.1 Z" fill="#d6d2c9" stroke="#bab6ad" stroke-width="0.4"></path><path d="M264.0,1.6 L228.7,2.0 L228.5,-14.2 L263.8,-14.7 L264.0,1.6 Z" fill="#d6d2c9" stroke="#bab6ad" stroke-width="0.4"></path><path d="M42.7,121.7 L43.8,174.2 L105.9,173.0 L104.8,119.4 L83.6,119.8 L83.7,124.6 L64.2,124.9 L64.1,121.3 L42.7,121.7 Z" fill="#d6d2c9" stroke="#bab6ad" stroke-width="0.4"></path><path d="M87.2,26.5 L93.6,26.4 L93.3,9.1 L86.8,9.3 L87.2,26.5 Z" fill="#e0e9e8" stroke="#91b7bc" stroke-width="0.55"></path><path d="M213.5,7.7 L213.0,-18.9 L212.5,-45.3 L213.1,-48.2" fill="none" stroke="#cf828d" stroke-width="1.5" stroke-dasharray="1.6 3.0" opacity="0.62" stroke-linecap="round" stroke-linejoin="round"></path><path d="M360.5,178.0 L223.6,182.0 L220.1,182.2 L218.1,181.2 L217.0,179.4 L217.0,173.3 L214.5,59.2 L213.5,7.7" fill="none" stroke="#cf828d" stroke-width="1.5" stroke-dasharray="1.6 3.0" opacity="0.62" stroke-linecap="round" stroke-linejoin="round"></path><path d="M217.3,182.7 L217.6,193.1 L217.8,201.4" fill="none" stroke="#cf828d" stroke-width="1.5" stroke-dasharray="1.6 3.0" opacity="0.62" stroke-linecap="round" stroke-linejoin="round"></path><path d="M217.3,182.7 L218.1,181.2" fill="none" stroke="#cf828d" stroke-width="1.5" stroke-dasharray="1.6 3.0" opacity="0.62" stroke-linecap="round" stroke-linejoin="round"></path><path d="M347.0,198.7 L223.1,202.8 L219.5,204.3 L218.0,206.2 L217.4,209.2 L218.4,247.2 L222.5,383.3" fill="none" stroke="#cf828d" stroke-width="1.5" stroke-dasharray="1.6 3.0" opacity="0.62" stroke-linecap="round" stroke-linejoin="round"></path><path d="M217.8,201.4 L219.5,204.3" fill="none" stroke="#cf828d" stroke-width="1.5" stroke-dasharray="1.6 3.0" opacity="0.62" stroke-linecap="round" stroke-linejoin="round"></path><path d="M203.8,384.9 L198.9,250.9 L197.8,248.8 L195.6,247.4 L163.7,247.2 L140.2,247.6 L138.8,248.9 L138.0,249.6 L137.6,252.8 L140.6,387.0" fill="none" stroke="#cf828d" stroke-width="1.5" stroke-dasharray="1.6 3.0" opacity="0.62" stroke-linecap="round" stroke-linejoin="round"></path><path d="M199.2,247.6 L208.5,247.4 L216.9,247.3" fill="none" stroke="#cf828d" stroke-width="1.5" stroke-dasharray="1.6 3.0" opacity="0.62" stroke-linecap="round" stroke-linejoin="round"></path><path d="M216.9,247.3 L218.4,247.2" fill="none" stroke="#cf828d" stroke-width="1.5" stroke-dasharray="1.6 3.0" opacity="0.62" stroke-linecap="round" stroke-linejoin="round"></path><path d="M199.2,247.6 L197.8,248.8" fill="none" stroke="#cf828d" stroke-width="1.5" stroke-dasharray="1.6 3.0" opacity="0.62" stroke-linecap="round" stroke-linejoin="round"></path><path d="M121.0,380.9 L117.9,286.5 L116.6,245.5 L115.4,211.6 L113.6,208.3 L107.7,206.0 L100.7,205.9 L-32.6,210.0 L-34.1,211.4 L-34.6,215.6 L-33.6,241.5 L-30.5,244.0 L-29.8,265.1 L-32.5,268.5 L-30.0,369.3" fill="none" stroke="#cf828d" stroke-width="1.5" stroke-dasharray="1.6 3.0" opacity="0.62" stroke-linecap="round" stroke-linejoin="round"></path><path d="M136.0,245.2 L126.5,245.3 L118.4,245.5" fill="none" stroke="#cf828d" stroke-width="1.5" stroke-dasharray="1.6 3.0" opacity="0.62" stroke-linecap="round" stroke-linejoin="round"></path><path d="M118.4,245.5 L116.6,245.5" fill="none" stroke="#cf828d" stroke-width="1.5" stroke-dasharray="1.6 3.0" opacity="0.62" stroke-linecap="round" stroke-linejoin="round"></path><path d="M136.0,245.2 L138.8,248.9" fill="none" stroke="#cf828d" stroke-width="1.5" stroke-dasharray="1.6 3.0" opacity="0.62" stroke-linecap="round" stroke-linejoin="round"></path><path d="M-39.7,27.0 L-39.3,45.1 L-36.1,49.5 L-35.9,72.9 L-38.5,74.6 L-37.2,177.4 L-36.9,183.3 L-35.8,186.9 L-34.0,188.9 L-31.1,189.7 L34.7,188.2 L39.2,184.9 L98.9,183.9 L104.6,182.2 L109.6,179.7 L112.2,177.0 L113.4,174.0 L113.2,125.9 L109.2,-15.6 L108.7,-32.5 L108.7,-40.6 L107.0,-43.1 L104.7,-44.5 L99.7,-44.4 L44.8,-43.3 L-38.1,-33.7 L-174.4,-26.2" fill="none" stroke="#cf828d" stroke-width="1.5" stroke-dasharray="1.6 3.0" opacity="0.62" stroke-linecap="round" stroke-linejoin="round"></path><path d="M112.9,179.6 L113.7,196.0 L114.2,205.0" fill="none" stroke="#cf828d" stroke-width="1.5" stroke-dasharray="1.6 3.0" opacity="0.62" stroke-linecap="round" stroke-linejoin="round"></path><path d="M112.9,179.6 L112.2,177.0" fill="none" stroke="#cf828d" stroke-width="1.5" stroke-dasharray="1.6 3.0" opacity="0.62" stroke-linecap="round" stroke-linejoin="round"></path><path d="M114.2,205.0 L113.6,208.3" fill="none" stroke="#cf828d" stroke-width="1.5" stroke-dasharray="1.6 3.0" opacity="0.62" stroke-linecap="round" stroke-linejoin="round"></path><path d="M129.4,7.0 L129.2,-13.3 L129.6,-15.1 L131.3,-16.8 L134.4,-17.6 L150.8,-17.9 L186.7,-18.7 L189.5,-17.6 L191.3,-14.4 L191.9,-8.8 L194.7,72.5 L195.0,124.3 L193.8,125.7 L190.9,126.6 L166.4,127.0 L135.6,127.9 L133.7,126.3 L132.8,123.8 L131.9,76.7 L129.4,7.0" fill="none" stroke="#cf828d" stroke-width="1.5" stroke-dasharray="1.6 3.0" opacity="0.62" stroke-linecap="round" stroke-linejoin="round"></path><path d="M213.8,391.5 L208.5,247.4 L207.9,229.9 L207.3,193.4 L206.0,143.1 L202.2,-18.5 L202.3,-47.4 L202.0,-58.2" fill="none" stroke="#cec8bb" stroke-width="4.8" stroke-linecap="round" stroke-linejoin="round"/><path d="M213.8,391.5 L208.5,247.4 L207.9,229.9 L207.3,193.4 L206.0,143.1 L202.2,-18.5 L202.3,-47.4 L202.0,-58.2" fill="none" stroke="#ffffff" stroke-width="3.7" stroke-linecap="round" stroke-linejoin="round"><title>Northwest 8th Avenue</title></path><path d="M129.9,383.5 L127.8,288.3 L126.5,245.3 L126.1,231.9 L125.2,195.7 L123.7,144.6 L118.3,-15.9 L117.2,-54.5" fill="none" stroke="#cec8bb" stroke-width="4.8" stroke-linecap="round" stroke-linejoin="round"/><path d="M129.9,383.5 L127.8,288.3 L126.5,245.3 L126.1,231.9 L125.2,195.7 L123.7,144.6 L118.3,-15.9 L117.2,-54.5" fill="none" stroke="#ffffff" stroke-width="3.7" stroke-linecap="round" stroke-linejoin="round"><title>Northwest 8th Court</title></path><path d="M125.2,195.7 L113.7,196.0 L109.0,196.1 L-35.2,198.9 L-44.6,199.1 L-57.7,199.5" fill="none" stroke="#cec8bb" stroke-width="4.8" stroke-linecap="round" stroke-linejoin="round"/><path d="M125.2,195.7 L113.7,196.0 L109.0,196.1 L-35.2,198.9 L-44.6,199.1 L-57.7,199.5" fill="none" stroke="#ffffff" stroke-width="3.7" stroke-linecap="round" stroke-linejoin="round"><title>Northwest 13th Street</title></path><path d="M206.0,143.1 L141.6,144.2 L123.7,144.6" fill="none" stroke="#cec8bb" stroke-width="4.8" stroke-linecap="round" stroke-linejoin="round"/><path d="M206.0,143.1 L141.6,144.2 L123.7,144.6" fill="none" stroke="#ffffff" stroke-width="3.7" stroke-linecap="round" stroke-linejoin="round"><title>Northwest 13th Street</title></path><path d="M360.3,188.6 L221.3,193.0 L217.6,193.1 L207.3,193.4" fill="none" stroke="#cec8bb" stroke-width="4.8" stroke-linecap="round" stroke-linejoin="round"/><path d="M360.3,188.6 L221.3,193.0 L217.6,193.1 L207.3,193.4" fill="none" stroke="#ffffff" stroke-width="3.7" stroke-linecap="round" stroke-linejoin="round"><title>Northwest 13th Street</title></path><path d="M126.1,231.9 L184.7,230.5 L207.9,229.9" fill="none" stroke="#cec8bb" stroke-width="4.8" stroke-linecap="round" stroke-linejoin="round"/><path d="M126.1,231.9 L184.7,230.5 L207.9,229.9" fill="none" stroke="#ffffff" stroke-width="3.7" stroke-linecap="round" stroke-linejoin="round"></path><path d="M-252.8,122.4 L98.2,-77.0" fill="none" stroke="#d87a99" stroke-width="11.0" stroke-linecap="round" stroke-linejoin="round"/><path d="M-252.8,122.4 L98.2,-77.0" fill="none" stroke="#e88fa8" stroke-width="9.2" stroke-linecap="round" stroke-linejoin="round"><title>Dolphin Expressway</title></path><path d="M-252.8,122.4 L98.2,-77.0" fill="none" stroke="#fff8ef" stroke-width="2.0" stroke-dasharray="5.5 6.5" opacity="0.82" stroke-linecap="round" stroke-linejoin="round"/><path d="M4.2,-96.8 L-91.4,-41.5" fill="none" stroke="#d87a99" stroke-width="7.8" stroke-linecap="round" stroke-linejoin="round"/><path d="M4.2,-96.8 L-91.4,-41.5" fill="none" stroke="#e88fa8" stroke-width="6.0" stroke-linecap="round" stroke-linejoin="round"></path><path d="M4.2,-96.8 L-91.4,-41.5" fill="none" stroke="#fff8ef" stroke-width="1.5" stroke-dasharray="5.5 6.5" opacity="0.82" stroke-linecap="round" stroke-linejoin="round"/><path d="M41.8,-97.2 L-80.8,-27.5" fill="none" stroke="#d87a99" stroke-width="11.0" stroke-linecap="round" stroke-linejoin="round"/><path d="M41.8,-97.2 L-80.8,-27.5" fill="none" stroke="#e88fa8" stroke-width="9.2" stroke-linecap="round" stroke-linejoin="round"><title>Dolphin Expressway</title></path><path d="M41.8,-97.2 L-80.8,-27.5" fill="none" stroke="#fff8ef" stroke-width="2.0" stroke-dasharray="5.5 6.5" opacity="0.82" stroke-linecap="round" stroke-linejoin="round"/><text x="204.5" y="79.5" transform="rotate(88.6 204.5 79.5)" text-anchor="middle" dominant-baseline="central" font-family="Arial, sans-serif" font-size="8.3" textLength="106.2" lengthAdjust="spacing" font-weight="650" paint-order="stroke" stroke="#fffaf0" stroke-width="2.05" stroke-linejoin="round" fill="#695f54">Northwest 8th Avenue</text><text x="121.5" y="80.3" transform="rotate(88.1 121.5 80.3)" text-anchor="middle" dominant-baseline="central" font-family="Arial, sans-serif" font-size="8.3" textLength="100.9" lengthAdjust="spacing" font-weight="650" paint-order="stroke" stroke="#fffaf0" stroke-width="2.05" stroke-linejoin="round" fill="#695f54">Northwest 8th Court</text><text x="173.8" y="143.7" transform="rotate(-1.0 173.8 143.7)" text-anchor="middle" dominant-baseline="central" font-family="Arial, sans-serif" font-size="8.3" textLength="111.6" lengthAdjust="spacing" font-weight="650" paint-order="stroke" stroke="#fffaf0" stroke-width="2.05" stroke-linejoin="round" fill="#695f54">Northwest 13th Street</text><text x="80.6" y="16.5" text-anchor="middle" font-family="Arial, sans-serif" font-size="6.5" textLength="18.0" lengthAdjust="spacing" font-weight="500" paint-order="stroke" stroke="#f3f5ee" stroke-width="1.55" stroke-linejoin="round" fill="#6f777a">1350</text><text x="241.0" y="48.6" text-anchor="middle" font-family="Arial, sans-serif" font-size="6.5" textLength="18.0" lengthAdjust="spacing" font-weight="500" paint-order="stroke" stroke="#f3f5ee" stroke-width="1.55" stroke-linejoin="round" fill="#6f777a">1337</text><text x="85.4" y="246.0" text-anchor="middle" font-family="Arial, sans-serif" font-size="6.5" textLength="18.0" lengthAdjust="spacing" font-weight="500" paint-order="stroke" stroke="#f3f5ee" stroke-width="1.55" stroke-linejoin="round" fill="#6f777a">1234</text><text x="76.1" y="154.4" text-anchor="middle" font-family="Arial, sans-serif" font-size="6.5" textLength="18.0" lengthAdjust="spacing" font-weight="500" paint-order="stroke" stroke="#f3f5ee" stroke-width="1.55" stroke-linejoin="round" fill="#6f777a">1310</text><text x="80.5" y="224.8" text-anchor="middle" font-family="Arial, sans-serif" font-size="6.5" textLength="18.0" lengthAdjust="spacing" font-weight="500" paint-order="stroke" stroke="#f3f5ee" stroke-width="1.55" stroke-linejoin="round" fill="#6f777a">1248</text><text x="241.0" y="24.5" text-anchor="middle" font-family="Arial, sans-serif" font-size="6.5" textLength="18.0" lengthAdjust="spacing" font-weight="500" paint-order="stroke" stroke="#f3f5ee" stroke-width="1.55" stroke-linejoin="round" fill="#6f777a">1345</text><text x="163.9" y="16.8" text-anchor="middle" font-family="Arial, sans-serif" font-size="6.5" textLength="18.0" lengthAdjust="spacing" font-weight="500" paint-order="stroke" stroke="#f3f5ee" stroke-width="1.55" stroke-linejoin="round" fill="#6f777a">800</text><text x="15.0" y="147.8" text-anchor="middle" font-family="Arial, sans-serif" font-size="6.5" textLength="18.0" lengthAdjust="spacing" font-weight="500" paint-order="stroke" stroke="#f3f5ee" stroke-width="1.55" stroke-linejoin="round" fill="#6f777a">1313</text><text x="15.0" y="16.5" text-anchor="middle" font-family="Arial, sans-serif" font-size="6.5" textLength="18.0" lengthAdjust="spacing" font-weight="500" paint-order="stroke" stroke="#f3f5ee" stroke-width="1.55" stroke-linejoin="round" fill="#6f777a">1351</text><text x="79.0" y="116.7" text-anchor="middle" font-family="Arial, sans-serif" font-size="6.5" textLength="18.0" lengthAdjust="spacing" font-weight="500" paint-order="stroke" stroke="#f3f5ee" stroke-width="1.55" stroke-linejoin="round" fill="#6f777a">1320</text><text x="78.4" y="85.1" text-anchor="middle" font-family="Arial, sans-serif" font-size="6.5" textLength="18.0" lengthAdjust="spacing" font-weight="500" paint-order="stroke" stroke="#f3f5ee" stroke-width="1.55" stroke-linejoin="round" fill="#6f777a">1326</text><text x="166.3" y="88.9" text-anchor="middle" font-family="Arial, sans-serif" font-size="6.5" textLength="18.0" lengthAdjust="spacing" font-weight="500" paint-order="stroke" stroke="#f3f5ee" stroke-width="1.55" stroke-linejoin="round" fill="#6f777a">1320</text><text x="241.0" y="164.4" text-anchor="middle" font-family="Arial, sans-serif" font-size="6.5" textLength="18.0" lengthAdjust="spacing" font-weight="500" paint-order="stroke" stroke="#f3f5ee" stroke-width="1.55" stroke-linejoin="round" fill="#6f777a">1303</text><g opacity="0.56"><title>crossing</title><path d="M215.3,191.3 L219.8,191.3 M215.3,193.1 L219.8,193.1 M215.3,194.9 L219.8,194.9" stroke="#ffffff" stroke-width="2.1" stroke-linecap="round"/><path d="M215.3,191.3 L219.8,191.3 M215.3,193.1 L219.8,193.1 M215.3,194.9 L219.8,194.9" stroke="#59656a" stroke-width="0.85" stroke-linecap="round"/></g><g opacity="0.56"><title>crossing</title><path d="M124.2,243.5 L128.8,243.5 M124.2,245.3 L128.8,245.3 M124.2,247.1 L128.8,247.1" stroke="#ffffff" stroke-width="2.1" stroke-linecap="round"/><path d="M124.2,243.5 L128.8,243.5 M124.2,245.3 L128.8,245.3 M124.2,247.1 L128.8,247.1" stroke="#59656a" stroke-width="0.85" stroke-linecap="round"/></g><g opacity="0.56"><title>crossing</title><path d="M111.4,194.2 L116.0,194.2 M111.4,196.0 L116.0,196.0 M111.4,197.8 L116.0,197.8" stroke="#ffffff" stroke-width="2.1" stroke-linecap="round"/><path d="M111.4,194.2 L116.0,194.2 M111.4,196.0 L116.0,196.0 M111.4,197.8 L116.0,197.8" stroke="#59656a" stroke-width="0.85" stroke-linecap="round"/></g></svg>