<svg xmlns="http://www.w3.org/2000/svg" width="256" height="256" viewBox="0 0 256 256"><rect width="256" height="256" fill="#f1efe7"/><path d="M50.8,105.9 L46.9,110.4 L47.4,116.9 L50.4,119.6 L48.1,122.0 L51.1,125.3 L44.6,134.1 L55.6,133.2 L59.3,129.0 L65.5,128.6 L62.0,132.9 L90.3,130.7 L87.7,108.4 L89.9,105.1 L87.7,103.2 L50.8,105.9 Z" fill="#e8ecec" stroke="#d7d1c5" stroke-width="0.3"></path><path d="M43.7,166.8 L41.5,141.1 L55.4,139.9 L56.4,152.5 L57.5,165.6 L43.7,166.8 Z" fill="#e8ecec" stroke="#d7d1c5" stroke-width="0.3"></path><path d="M151.7,-7.7 L151.5,-0.2 L124.5,1.1 L125.5,-6.2 L151.7,-7.7 Z" fill="#ded0d4" stroke="#c6b5bb" stroke-width="0.4"></path><path d="M124.5,1.1 L124.0,10.8 L151.0,9.8 L151.7,7.6 L151.5,-0.2 L124.5,1.1 Z" fill="#ded0d4" stroke="#c6b5bb" stroke-width="0.4"></path><path d="M106.1,26.9 L149.6,24.8 L150.4,41.6 L153.9,41.4 L154.4,52.0 L151.0,52.1 L151.8,67.5 L128.4,68.6 L108.2,69.6 L106.1,26.9 Z" fill="#ded0d4" stroke="#c6b5bb" stroke-width="0.4"></path><path d="M151.8,67.5 L153.7,67.4 L154.5,82.2 L152.7,84.2 L129.3,85.5 L128.4,68.6 L151.8,67.5 Z" fill="#ded0d4" stroke="#c6b5bb" stroke-width="0.4"></path><path d="M189.8,311.4 L263.9,265.3 L251.6,244.7 L229.7,246.0 L229.8,253.7 L189.8,278.7 L189.8,311.4 Z" fill="#ded0d4" stroke="#c6b5bb" stroke-width="0.4"></path><path d="M188.6,271.1 L223.6,249.2 L223.8,246.6 L191.6,249.2 L188.1,249.5 L188.6,271.1 Z" fill="#d6d2c9" stroke="#bab6ad" stroke-width="0.4"><title>Zucca</title></path><path d="M209.3,21.1 L210.0,35.1 L207.3,35.2 L182.0,37.1 L181.8,22.6 L209.3,21.1 Z" fill="#ded0d4" stroke="#c6b5bb" stroke-width="0.4"></path><path d="M181.8,50.6 L203.3,49.5 L208.3,49.3 L207.3,35.2 L182.0,37.1 L181.8,50.6 Z" fill="#ded0d4" stroke="#c6b5bb" stroke-width="0.4"></path><path d="M182.5,64.8 L204.0,63.3 L203.3,49.5 L181.8,50.6 L182.5,64.8 Z" fill="#ded0d4" stroke="#c6b5bb" stroke-width="0.4"></path><path d="M203.8,70.8 L204.0,63.3 L182.5,64.8 L182.8,72.6 L203.8,70.8 Z" fill="#ded0d4" stroke="#c6b5bb" stroke-width="0.4"></path><path d="M183.0,81.6 L208.0,79.8 L208.0,71.1 L203.8,70.8 L182.8,72.6 L183.0,81.6 Z" fill="#ded0d4" stroke="#c6b5bb" stroke-width="0.4"></path><path d="M205.3,6.8 L204.8,-1.7 L198.0,-1.4 L197.3,-16.4 L179.0,-15.7 L180.5,4.6 L181.5,7.3 L184.5,8.3 L205.3,6.8 Z" fill="#ded0d4" stroke="#c6b5bb" stroke-width="0.4"></path><path d="M239.3,73.6 L229.1,74.1 L228.8,67.6 L239.0,67.1 L239.3,73.6 Z" fill="#d6d2c9" stroke="#bab6ad" stroke-width="0.4"></path><path d="M-7.6,-10.6 L-7.4,5.2 L1.7,5.2 L1.8,14.4 L-13.4,14.6 L-13.7,-10.6 L-7.6,-10.6 Z" fill="#d6d2c9" stroke="#bab6ad" stroke-width="0.4"></path><path d="M53.7,55.8 L43.0,55.8 L42.7,43.8 L30.9,43.7 L30.9,34.4 L52.2,32.9 L53.7,55.8 Z" fill="#d6d2c9" stroke="#bab6ad" stroke-width="0.4"></path><path d="M58.2,10.4 L49.3,10.7 L48.5,-14.2 L57.4,-14.5 L58.2,10.4 Z" fill="#d6d2c9" stroke="#bab6ad" stroke-width="0.4"></path><path d="M27.0,168.6 L18.7,169.3 L16.8,146.3 L25.0,145.6 L27.0,168.6 Z" fill="#d6d2c9" stroke="#bab6ad" stroke-width="0.4"></path><path d="M41.7,108.9 L43.0,133.3 L31.2,133.9 L30.4,119.3 L17.1,120.1 L16.6,110.3 L41.7,108.9 Z" fill="#d6d2c9" stroke="#bab6ad" stroke-width="0.4"></path><path d="M27.5,89.4 L1.8,90.6 L1.4,81.4 L27.0,80.2 L27.5,89.4 Z" fill="#d6d2c9" stroke="#bab6ad" stroke-width="0.4"></path><path d="M9.8,50.4 L-11.2,51.0 L-11.7,38.0 L9.6,36.7 L9.8,50.4 Z" fill="#d6d2c9" stroke="#bab6ad" stroke-width="0.4"></path><path d="M90.5,-18.2 L91.1,5.6 L83.2,5.8 L83.3,9.2 L64.3,9.7 L64.0,0.2 L71.4,-0.0 L71.3,-3.4 L76.1,-3.5 L76.2,-1.3 L81.3,-1.4 L81.0,-15.0 L77.2,-14.9 L77.1,-17.9 L90.5,-18.2 Z" fill="#d6d2c9" stroke="#bab6ad" stroke-width="0.4"></path><path d="M0.7,117.5 L0.8,122.8 L9.4,122.5 L9.3,120.0 L12.4,119.9 L12.7,132.8 L-9.1,133.4 L-9.7,113.2 L3.2,112.9 L3.3,117.4 L0.7,117.5 Z" fill="#d6d2c9" stroke="#bab6ad" stroke-width="0.4"></path><path d="M224.2,230.2 L187.5,233.6 L185.1,202.6 L221.5,199.8 L224.2,230.2 Z" fill="#d6d2c9" stroke="#bab6ad" stroke-width="0.4"></path><path d="M116.2,238.4 L74.9,241.7 L72.8,214.9 L114.6,212.3 L116.2,238.4 Z" fill="#d6d2c9" stroke="#bab6ad" stroke-width="0.4"></path><path d="M66.3,70.8 L0.7,75.0 L0.1,65.2 L65.7,61.0 L66.3,70.8 Z" fill="#d6d2c9" stroke="#bab6ad" stroke-width="0.4"></path><path d="M238.3,64.6 L228.0,65.1 L227.7,58.1 L238.1,57.7 L238.3,64.6 Z" fill="#d6d2c9" stroke="#bab6ad" stroke-width="0.4"></path><path d="M225.2,74.1 L218.9,74.3 L218.7,70.4 L225.0,70.2 L225.2,74.1 Z" fill="#d6d2c9" stroke="#bab6ad" stroke-width="0.4"></path><path d="M232.8,48.7 L227.5,48.8 L227.1,36.1 L232.4,35.9 L232.8,48.7 Z" fill="#d6d2c9" stroke="#bab6ad" stroke-width="0.4"></path><path d="M151.7,180.2 L153.1,219.0 L147.9,219.5 L147.8,221.1 L151.3,225.7 L147.0,230.1 L142.2,226.6 L140.8,226.5 L140.8,229.9 L118.5,231.5 L119.5,205.7 L121.5,205.7 L121.7,180.7 L151.7,180.2 Z" fill="#d6d2c9" stroke="#bab6ad" stroke-width="0.4"></path><path d="M43.5,10.9 L34.6,11.2 L33.8,-13.4 L42.7,-13.6 L43.5,10.9 Z" fill="#d6d2c9" stroke="#bab6ad" stroke-width="0.4"></path><path d="M22.5,10.2 L11.6,10.5 L10.9,-13.5 L21.9,-13.8 L22.5,10.2 Z" fill="#d6d2c9" stroke="#bab6ad" stroke-width="0.4"></path><path d="M100.7,128.0 L98.9,102.9 L153.8,98.7 L155.5,124.2 L100.7,128.0 Z" fill="#d6d2c9" stroke="#bab6ad" stroke-width="0.4"></path><path d="M271.2,-51.4 L272.7,-1.7 L213.8,0.1 L213.2,-17.9 L184.3,-17.1 L183.3,-48.7 L271.2,-51.4 Z" fill="#d6d2c9" stroke="#bab6ad" stroke-width="0.4"></path><path d="M40.9,163.6 L28.8,164.5 L27.5,146.8 L39.6,145.9 L40.9,163.6 Z" fill="#d6d2c9" stroke="#bab6ad" stroke-width="0.4"></path><path d="M23.7,50.8 L14.2,51.3 L13.3,34.4 L22.8,33.9 L23.7,50.8 Z" fill="#d6d2c9" stroke="#bab6ad" stroke-width="0.4"></path><path d="M67.3,86.4 L35.4,88.3 L34.9,79.2 L66.8,77.3 L67.3,86.4 Z" fill="#d6d2c9" stroke="#bab6ad" stroke-width="0.4"></path><path d="M96.4,162.3 L57.5,165.6 L56.4,152.5 L64.3,151.9 L63.1,137.0 L86.1,135.0 L85.9,132.3 L93.8,131.6 L96.4,162.3 Z" fill="#d6d2c9" stroke="#bab6ad" stroke-width="0.4"></path><path d="M186.4,197.2 L225.5,194.6 L224.5,180.6 L210.3,181.6 L209.8,174.3 L213.3,174.0 L212.9,168.7 L184.6,170.6 L186.4,197.2 Z" fill="#d6d2c9" stroke="#bab6ad" stroke-width="0.4"></path><path d="M224.2,230.2 L242.7,228.6 L301.9,223.4 L299.2,193.0 L221.5,199.8 L224.2,230.2 Z" fill="#d6d2c9" stroke="#bab6ad" stroke-width="0.4"></path><path d="M93.8,131.6 L154.2,126.6 L156.8,157.2 L96.4,162.3 L93.8,131.6 Z" fill="#d6d2c9" stroke="#bab6ad" stroke-width="0.4"></path><path d="M-11.0,200.9 L-6.6,248.6 L60.2,242.4 L57.3,211.0 L41.2,212.5 L38.5,183.4 L3.6,186.7 L4.8,199.4 L-11.0,200.9 Z" fill="#d6d2c9" stroke="#bab6ad" stroke-width="0.4"></path><path d="M93.6,292.6 L90.7,258.4 L157.0,253.3 L159.1,286.8 L138.3,288.6 L136.8,282.6 L109.9,285.3 L110.9,290.8 L93.6,292.6 Z" fill="#d6d2c9" stroke="#bab6ad" stroke-width="0.4"></path><path d="M168.2,123.3 L171.7,123.2" fill="none" stroke="#cf828d" stroke-width="1.3" stroke-dasharray="1.6 3.0" opacity="0.62" stroke-linecap="round" stroke-linejoin="round"></path><path d="M162.2,312.0 L159.8,253.6 L159.7,252.7 L159.4,252.2 L159.1,251.8 L158.3,251.5 L-9.4,266.1 L-10.0,266.5 L-10.5,267.2 L-10.5,268.7 L-8.5,294.6 L-10.2,302.2 L-9.4,329.4" fill="none" stroke="#cf828d" stroke-width="1.3" stroke-dasharray="1.6 3.0" opacity="0.62" stroke-linecap="round" stroke-linejoin="round"></path><path d="M320.3,246.9 L298.8,261.8 L279.1,276.7 L264.9,286.0 L253.9,294.9 L246.7,299.2 L245.1,301.0 L246.6,302.2 L247.7,303.8 L248.0,304.8" fill="none" stroke="#cf828d" stroke-width="1.3" stroke-dasharray="1.6 3.0" opacity="0.62" stroke-linecap="round" stroke-linejoin="round"></path><path d="M300.9,305.3 L327.3,303.4" fill="none" stroke="#cf828d" stroke-width="1.3" stroke-dasharray="1.6 3.0" opacity="0.62" stroke-linecap="round" stroke-linejoin="round"></path><path d="M199.2,247.5 L186.5,248.5 L186.1,248.5 L186.1,249.8 L188.0,313.9" fill="none" stroke="#cf828d" stroke-width="1.3" stroke-dasharray="1.6 3.0" opacity="0.62" stroke-linecap="round" stroke-linejoin="round"></path><path d="M197.6,309.4 L277.3,256.5 L278.7,255.1 L279.5,253.5 L280.1,251.5 L280.3,248.9 L279.8,246.9 L278.9,245.3 L277.1,243.3 L275.3,242.2 L273.0,241.8 L270.7,241.9 L199.2,247.5" fill="none" stroke="#cf828d" stroke-width="1.3" stroke-dasharray="1.6 3.0" opacity="0.62" stroke-linecap="round" stroke-linejoin="round"></path><path d="M161.8,238.7 L162.0,243.7 L162.1,248.9" fill="none" stroke="#cf828d" stroke-width="1.3" stroke-dasharray="1.6 3.0" opacity="0.62" stroke-linecap="round" stroke-linejoin="round"></path><path d="M182.8,249.9 L179.2,249.8 L168.6,249.8 L163.6,249.8" fill="none" stroke="#cf828d" stroke-width="1.3" stroke-dasharray="1.6 3.0" opacity="0.62" stroke-linecap="round" stroke-linejoin="round"></path><path d="M162.1,248.9 L161.7,250.4 L163.6,249.8" fill="none" stroke="#cf828d" stroke-width="1.3" stroke-dasharray="1.6 3.0" opacity="0.62" stroke-linecap="round" stroke-linejoin="round"></path><path d="M161.7,250.4 L159.4,252.2" fill="none" stroke="#cf828d" stroke-width="1.3" stroke-dasharray="1.6 3.0" opacity="0.62" stroke-linecap="round" stroke-linejoin="round"></path><path d="M182.8,249.9 L186.1,249.8" fill="none" stroke="#cf828d" stroke-width="1.3" stroke-dasharray="1.6 3.0" opacity="0.62" stroke-linecap="round" stroke-linejoin="round"></path><path d="M315.5,157.9 L278.6,160.9 L272.8,161.4 L259.4,162.4 L237.5,164.1 L226.2,165.2 L212.0,166.7 L183.8,169.1 L184.5,232.7 L184.5,233.6 L185.2,234.6 L185.8,234.6 L242.8,229.9 L304.2,224.9" fill="none" stroke="#cf828d" stroke-width="1.3" stroke-dasharray="1.6 3.0" opacity="0.62" stroke-linecap="round" stroke-linejoin="round"></path><path d="M186.0,237.0 L186.2,241.7 L186.4,245.9" fill="none" stroke="#cf828d" stroke-width="1.3" stroke-dasharray="1.6 3.0" opacity="0.62" stroke-linecap="round" stroke-linejoin="round"></path><path d="M186.4,245.9 L186.5,248.5" fill="none" stroke="#cf828d" stroke-width="1.3" stroke-dasharray="1.6 3.0" opacity="0.62" stroke-linecap="round" stroke-linejoin="round"></path><path d="M181.9,232.7 L178.8,232.8 L168.1,233.2 L164.3,233.4" fill="none" stroke="#cf828d" stroke-width="1.3" stroke-dasharray="1.6 3.0" opacity="0.62" stroke-linecap="round" stroke-linejoin="round"></path><path d="M186.0,237.0 L185.8,234.6" fill="none" stroke="#cf828d" stroke-width="1.3" stroke-dasharray="1.6 3.0" opacity="0.62" stroke-linecap="round" stroke-linejoin="round"></path><path d="M181.9,232.7 L184.5,232.7" fill="none" stroke="#cf828d" stroke-width="1.3" stroke-dasharray="1.6 3.0" opacity="0.62" stroke-linecap="round" stroke-linejoin="round"></path><path d="M-5.7,251.0 L64.2,244.8 L74.3,244.0 L134.1,238.7 L158.7,236.0 L158.7,233.6 L157.8,171.7 L102.4,176.7 L-6.1,186.4 L-8.3,186.9 L-10.2,187.9 L-11.4,189.5 L-12.1,191.3 L-12.5,194.7 L-10.1,245.8 L-9.8,247.9 L-9.3,249.4 L-8.1,250.6 L-7.0,251.1 L-5.7,251.0" fill="none" stroke="#cf828d" stroke-width="1.3" stroke-dasharray="1.6 3.0" opacity="0.62" stroke-linecap="round" stroke-linejoin="round"></path><path d="M164.3,233.4 L158.7,233.6" fill="none" stroke="#cf828d" stroke-width="1.3" stroke-dasharray="1.6 3.0" opacity="0.62" stroke-linecap="round" stroke-linejoin="round"></path><path d="M161.8,238.7 L158.7,236.0" fill="none" stroke="#cf828d" stroke-width="1.3" stroke-dasharray="1.6 3.0" opacity="0.62" stroke-linecap="round" stroke-linejoin="round"></path><path d="M183.7,166.7 L183.7,163.5 L183.7,159.8" fill="none" stroke="#cf828d" stroke-width="1.3" stroke-dasharray="1.6 3.0" opacity="0.62" stroke-linecap="round" stroke-linejoin="round"></path><path d="M183.7,166.7 L183.8,169.1" fill="none" stroke="#cf828d" stroke-width="1.3" stroke-dasharray="1.6 3.0" opacity="0.62" stroke-linecap="round" stroke-linejoin="round"></path><path d="M279.2,149.0 L183.6,157.1 L182.6,123.1 L182.1,95.8 L214.3,93.1 L215.1,93.4 L216.0,94.3 L217.1,95.3 L217.8,95.6 L226.3,94.9 L231.1,94.8 L237.2,94.5 L240.3,94.3 L241.5,94.6 L243.1,95.0 L245.2,95.4 L248.8,95.3 L251.9,95.1 L259.0,92.8 L342.5,86.8" fill="none" stroke="#cf828d" stroke-width="1.3" stroke-dasharray="1.6 3.0" opacity="0.62" stroke-linecap="round" stroke-linejoin="round"></path><path d="M340.6,144.2 L279.2,149.0" fill="none" stroke="#cf828d" stroke-width="1.3" stroke-dasharray="1.6 3.0" opacity="0.62" stroke-linecap="round" stroke-linejoin="round"></path><path d="M183.7,159.8 L183.6,157.1" fill="none" stroke="#cf828d" stroke-width="1.3" stroke-dasharray="1.6 3.0" opacity="0.62" stroke-linecap="round" stroke-linejoin="round"></path><path d="M161.1,123.4 L164.6,123.3 L168.2,123.3" fill="none" stroke="#cf828d" stroke-width="1.3" stroke-dasharray="1.6 3.0" opacity="0.62" stroke-linecap="round" stroke-linejoin="round"></path><path d="M171.7,123.2 L175.1,123.2 L179.0,123.1" fill="none" stroke="#cf828d" stroke-width="1.3" stroke-dasharray="1.6 3.0" opacity="0.62" stroke-linecap="round" stroke-linejoin="round"></path><path d="M179.0,123.1 L182.6,123.1" fill="none" stroke="#cf828d" stroke-width="1.3" stroke-dasharray="1.6 3.0" opacity="0.62" stroke-linecap="round" stroke-linejoin="round"></path><path d="M185.9,83.7 L340.7,72.1" fill="none" stroke="#cf828d" stroke-width="1.3" stroke-dasharray="1.6 3.0" opacity="0.62" stroke-linecap="round" stroke-linejoin="round"></path><path d="M338.7,12.8 L179.6,21.8 L180.6,80.9 L180.9,82.1 L181.9,83.4 L183.3,83.9 L185.9,83.7" fill="none" stroke="#cf828d" stroke-width="1.3" stroke-dasharray="1.6 3.0" opacity="0.62" stroke-linecap="round" stroke-linejoin="round"></path><path d="M181.4,85.6 L181.5,89.4 L181.7,94.1" fill="none" stroke="#cf828d" stroke-width="1.3" stroke-dasharray="1.6 3.0" opacity="0.62" stroke-linecap="round" stroke-linejoin="round"></path><path d="M181.4,85.6 L181.9,83.4" fill="none" stroke="#cf828d" stroke-width="1.3" stroke-dasharray="1.6 3.0" opacity="0.62" stroke-linecap="round" stroke-linejoin="round"></path><path d="M181.7,94.1 L182.1,95.8" fill="none" stroke="#cf828d" stroke-width="1.3" stroke-dasharray="1.6 3.0" opacity="0.62" stroke-linecap="round" stroke-linejoin="round"></path><path d="M301.6,3.0 L324.4,1.8" fill="none" stroke="#cf828d" stroke-width="1.3" stroke-dasharray="1.6 3.0" opacity="0.62" stroke-linecap="round" stroke-linejoin="round"></path><path d="M177.4,-52.0 L178.7,4.7 L178.8,6.7 L179.5,8.2 L180.1,8.9 L180.9,9.4 L182.7,10.1 L187.0,10.0 L211.2,8.1 L226.3,7.3 L250.6,5.9 L285.1,4.0 L301.6,3.0" fill="none" stroke="#cf828d" stroke-width="1.3" stroke-dasharray="1.6 3.0" opacity="0.62" stroke-linecap="round" stroke-linejoin="round"></path><path d="M179.2,11.5 L179.3,15.6 L179.4,19.6" fill="none" stroke="#cf828d" stroke-width="1.3" stroke-dasharray="1.6 3.0" opacity="0.62" stroke-linecap="round" stroke-linejoin="round"></path><path d="M179.2,11.5 L180.1,8.9" fill="none" stroke="#cf828d" stroke-width="1.3" stroke-dasharray="1.6 3.0" opacity="0.62" stroke-linecap="round" stroke-linejoin="round"></path><path d="M179.4,19.6 L179.6,21.8" fill="none" stroke="#cf828d" stroke-width="1.3" stroke-dasharray="1.6 3.0" opacity="0.62" stroke-linecap="round" stroke-linejoin="round"></path><path d="M-18.2,20.2 L-12.6,19.8 L104.0,13.4 L116.6,12.7 L153.7,10.5 L151.4,-50.3" fill="none" stroke="#cf828d" stroke-width="1.3" stroke-dasharray="1.6 3.0" opacity="0.62" stroke-linecap="round" stroke-linejoin="round"></path><path d="M95.5,-48.0 L3.1,-44.3 L-19.6,-43.5 L-18.4,12.7 L-18.2,20.2" fill="none" stroke="#cf828d" stroke-width="1.3" stroke-dasharray="1.6 3.0" opacity="0.62" stroke-linecap="round" stroke-linejoin="round"></path><path d="M154.0,12.5 L154.1,17.3 L154.2,21.9" fill="none" stroke="#cf828d" stroke-width="1.3" stroke-dasharray="1.6 3.0" opacity="0.62" stroke-linecap="round" stroke-linejoin="round"></path><path d="M154.0,12.5 L153.7,10.5" fill="none" stroke="#cf828d" stroke-width="1.3" stroke-dasharray="1.6 3.0" opacity="0.62" stroke-linecap="round" stroke-linejoin="round"></path><path d="M-17.1,33.1 L-12.3,32.9 L27.7,30.8 L88.7,27.4 L94.4,27.1 L153.8,23.4 L155.7,84.8 L125.1,87.0 L97.1,89.0 L33.2,93.6 L28.9,93.9 L-15.6,97.2 L-16.8,54.8 L-17.1,33.1" fill="none" stroke="#cf828d" stroke-width="1.3" stroke-dasharray="1.6 3.0" opacity="0.62" stroke-linecap="round" stroke-linejoin="round"></path><path d="M154.2,21.9 L153.8,23.4" fill="none" stroke="#cf828d" stroke-width="1.3" stroke-dasharray="1.6 3.0" opacity="0.62" stroke-linecap="round" stroke-linejoin="round"></path><path d="M156.0,87.6 L156.1,91.2 L156.1,95.1" fill="none" stroke="#cf828d" stroke-width="1.3" stroke-dasharray="1.6 3.0" opacity="0.62" stroke-linecap="round" stroke-linejoin="round"></path><path d="M156.0,87.6 L155.7,84.8" fill="none" stroke="#cf828d" stroke-width="1.3" stroke-dasharray="1.6 3.0" opacity="0.62" stroke-linecap="round" stroke-linejoin="round"></path><path d="M-13.7,174.5 L-14.6,141.8 L-15.4,112.3 L-15.3,110.8 L-14.6,110.2 L-12.9,110.1 L43.9,105.9 L93.7,102.4 L155.7,98.1 L156.6,123.4 L157.9,158.5 L51.8,168.5 L-13.7,174.5" fill="none" stroke="#cf828d" stroke-width="1.3" stroke-dasharray="1.6 3.0" opacity="0.62" stroke-linecap="round" stroke-linejoin="round"></path><path d="M156.1,95.1 L155.7,98.1" fill="none" stroke="#cf828d" stroke-width="1.3" stroke-dasharray="1.6 3.0" opacity="0.62" stroke-linecap="round" stroke-linejoin="round"></path><path d="M161.1,123.4 L156.6,123.4" fill="none" stroke="#cf828d" stroke-width="1.3" stroke-dasharray="1.6 3.0" opacity="0.62" stroke-linecap="round" stroke-linejoin="round"></path><path d="M158.1,162.4 L158.2,165.4 L158.3,169.6" fill="none" stroke="#cf828d" stroke-width="1.3" stroke-dasharray="1.6 3.0" opacity="0.62" stroke-linecap="round" stroke-linejoin="round"></path><path d="M158.1,162.4 L157.9,158.5" fill="none" stroke="#cf828d" stroke-width="1.3" stroke-dasharray="1.6 3.0" opacity="0.62" stroke-linecap="round" stroke-linejoin="round"></path><path d="M158.3,169.6 L157.8,171.7" fill="none" stroke="#cf828d" stroke-width="1.3" stroke-dasharray="1.6 3.0" opacity="0.62" stroke-linecap="round" stroke-linejoin="round"></path><path d="M-21.8,142.4 L-14.6,141.8 L49.4,136.7 L51.8,168.5 L52.3,174.6" fill="none" stroke="#cec8bb" stroke-width="3.2" stroke-linecap="round" stroke-linejoin="round"/><path d="M-21.8,142.4 L-14.6,141.8 L49.4,136.7 L51.8,168.5 L52.3,174.6" fill="none" stroke="#ffffff" stroke-width="2.2" stroke-linecap="round" stroke-linejoin="round"></path><path d="M243.3,236.2 L242.8,229.9 L242.7,228.6" fill="none" stroke="#cec8bb" stroke-width="3.2" stroke-linecap="round" stroke-linejoin="round"/><path d="M243.3,236.2 L242.8,229.9 L242.7,228.6" fill="none" stroke="#ffffff" stroke-width="2.2" stroke-linecap="round" stroke-linejoin="round"></path><path d="M94.3,21.0 L94.4,27.1 L94.6,37.5 L96.5,78.6 L97.1,89.0 L97.5,95.9" fill="none" stroke="#cec8bb" stroke-width="3.2" stroke-linecap="round" stroke-linejoin="round"/><path d="M94.3,21.0 L94.4,27.1 L94.6,37.5 L96.5,78.6 L97.1,89.0 L97.5,95.9" fill="none" stroke="#ffffff" stroke-width="2.2" stroke-linecap="round" stroke-linejoin="round"></path><path d="M94.6,37.5 L77.1,38.0 L79.7,79.8 L96.5,78.6" fill="none" stroke="#cec8bb" stroke-width="3.2" stroke-linecap="round" stroke-linejoin="round"/><path d="M94.6,37.5 L77.1,38.0 L79.7,79.8 L96.5,78.6" fill="none" stroke="#ffffff" stroke-width="2.2" stroke-linecap="round" stroke-linejoin="round"></path><path d="M-24.7,55.3 L-16.8,54.8 L12.1,53.2" fill="none" stroke="#cec8bb" stroke-width="3.2" stroke-linecap="round" stroke-linejoin="round"/><path d="M-24.7,55.3 L-16.8,54.8 L12.1,53.2" fill="none" stroke="#ffffff" stroke-width="2.2" stroke-linecap="round" stroke-linejoin="round"></path><path d="M1.1,77.9 L27.6,76.3 L32.6,75.9 L65.8,73.9" fill="none" stroke="#cec8bb" stroke-width="3.2" stroke-linecap="round" stroke-linejoin="round"/><path d="M1.1,77.9 L27.6,76.3 L32.6,75.9 L65.8,73.9" fill="none" stroke="#ffffff" stroke-width="2.2" stroke-linecap="round" stroke-linejoin="round"></path><path d="M27.6,76.3 L28.7,93.2 L28.9,93.9 L31.4,101.0" fill="none" stroke="#cec8bb" stroke-width="3.2" stroke-linecap="round" stroke-linejoin="round"/><path d="M27.6,76.3 L28.7,93.2 L28.9,93.9 L31.4,101.0" fill="none" stroke="#ffffff" stroke-width="2.2" stroke-linecap="round" stroke-linejoin="round"></path><path d="M31.4,101.0 L33.2,93.6 L33.4,92.6 L32.6,75.9" fill="none" stroke="#cec8bb" stroke-width="3.2" stroke-linecap="round" stroke-linejoin="round"/><path d="M31.4,101.0 L33.2,93.6 L33.4,92.6 L32.6,75.9" fill="none" stroke="#ffffff" stroke-width="2.2" stroke-linecap="round" stroke-linejoin="round"></path><path d="M101.7,170.3 L102.4,176.7 L106.0,210.0 L62.7,213.6 L64.2,244.8 L64.5,252.6" fill="none" stroke="#cec8bb" stroke-width="3.2" stroke-linecap="round" stroke-linejoin="round"/><path d="M101.7,170.3 L102.4,176.7 L106.0,210.0 L62.7,213.6 L64.2,244.8 L64.5,252.6" fill="none" stroke="#ffffff" stroke-width="2.2" stroke-linecap="round" stroke-linejoin="round"></path><path d="M43.4,100.2 L43.9,105.9 L44.5,111.7 L45.2,112.5 L48.4,112.7 L87.1,110.7 L90.8,108.9 L93.4,105.5 L93.7,102.4 L93.3,96.3" fill="none" stroke="#cec8bb" stroke-width="3.2" stroke-linecap="round" stroke-linejoin="round"/><path d="M43.4,100.2 L43.9,105.9 L44.5,111.7 L45.2,112.5 L48.4,112.7 L87.1,110.7 L90.8,108.9 L93.4,105.5 L93.7,102.4 L93.3,96.3" fill="none" stroke="#ffffff" stroke-width="2.2" stroke-linecap="round" stroke-linejoin="round"></path><path d="M117.1,19.5 L116.6,12.7 L115.2,-17.3 L101.8,-16.7 L104.0,13.4 L104.1,20.4" fill="none" stroke="#cec8bb" stroke-width="3.2" stroke-linecap="round" stroke-linejoin="round"/><path d="M117.1,19.5 L116.6,12.7 L115.2,-17.3 L101.8,-16.7 L104.0,13.4 L104.1,20.4" fill="none" stroke="#ffffff" stroke-width="2.2" stroke-linecap="round" stroke-linejoin="round"></path><path d="M27.4,24.5 L27.7,30.8 L28.7,50.8 L42.3,50.7" fill="none" stroke="#cec8bb" stroke-width="3.2" stroke-linecap="round" stroke-linejoin="round"/><path d="M27.4,24.5 L27.7,30.8 L28.7,50.8 L42.3,50.7" fill="none" stroke="#ffffff" stroke-width="2.2" stroke-linecap="round" stroke-linejoin="round"></path><path d="M225.7,158.9 L226.2,165.2 L227.5,178.1 L229.4,197.2 L250.8,195.7 L261.6,194.5 L275.4,193.1 L303.3,190.6 L306.6,224.6" fill="none" stroke="#cec8bb" stroke-width="3.2" stroke-linecap="round" stroke-linejoin="round"/><path d="M225.7,158.9 L226.2,165.2 L227.5,178.1 L229.4,197.2 L250.8,195.7 L261.6,194.5 L275.4,193.1 L303.3,190.6 L306.6,224.6" fill="none" stroke="#ffffff" stroke-width="2.2" stroke-linecap="round" stroke-linejoin="round"></path><path d="M227.5,178.1 L245.5,176.8" fill="none" stroke="#cec8bb" stroke-width="3.2" stroke-linecap="round" stroke-linejoin="round"/><path d="M227.5,178.1 L245.5,176.8" fill="none" stroke="#ffffff" stroke-width="2.2" stroke-linecap="round" stroke-linejoin="round"></path><path d="M305.1,230.9 L276.4,233.3 L243.3,236.2 L189.0,241.5 L186.2,241.7 L179.0,242.3" fill="none" stroke="#cec8bb" stroke-width="4.3" stroke-linecap="round" stroke-linejoin="round"/><path d="M305.1,230.9 L276.4,233.3 L243.3,236.2 L189.0,241.5 L186.2,241.7 L179.0,242.3" fill="none" stroke="#ffffff" stroke-width="3.2" stroke-linecap="round" stroke-linejoin="round"><title>Alcazar Avenue</title></path><path d="M337.2,6.8 L182.1,15.5 L179.3,15.6 L171.8,16.1" fill="none" stroke="#cec8bb" stroke-width="4.3" stroke-linecap="round" stroke-linejoin="round"/><path d="M337.2,6.8 L182.1,15.5 L179.3,15.6 L171.8,16.1" fill="none" stroke="#ffffff" stroke-width="3.2" stroke-linecap="round" stroke-linejoin="round"><title>Majorca Avenue</title></path><path d="M-26.2,22.0 L-26.2,18.6 L-26.3,13.0 L-27.7,-41.0 L-27.6,-43.7 L-27.7,-50.0" fill="none" stroke="#cec8bb" stroke-width="4.3" stroke-linecap="round" stroke-linejoin="round"/><path d="M-26.2,22.0 L-26.2,18.6 L-26.3,13.0 L-27.7,-41.0 L-27.6,-43.7 L-27.7,-50.0" fill="none" stroke="#ffffff" stroke-width="3.2" stroke-linecap="round" stroke-linejoin="round"><title>Salzedo Street</title></path><path d="M168.4,243.2 L162.0,243.7 L158.8,244.0 L64.5,252.6 L57.2,253.2 L26.7,255.9 L-10.6,259.1 L-18.8,259.8 L-25.7,260.4 L-35.9,261.2 L-75.1,264.6" fill="none" stroke="#cec8bb" stroke-width="4.3" stroke-linecap="round" stroke-linejoin="round"/><path d="M168.4,243.2 L162.0,243.7 L158.8,244.0 L64.5,252.6 L57.2,253.2 L26.7,255.9 L-10.6,259.1 L-18.8,259.8 L-25.7,260.4 L-35.9,261.2 L-75.1,264.6" fill="none" stroke="#ffffff" stroke-width="3.2" stroke-linecap="round" stroke-linejoin="round"><title>Alcazar Avenue</title></path><path d="M179.0,242.3 L168.4,243.2" fill="none" stroke="#cec8bb" stroke-width="4.3" stroke-linecap="round" stroke-linejoin="round"/><path d="M179.0,242.3 L168.4,243.2" fill="none" stroke="#ffffff" stroke-width="3.2" stroke-linecap="round" stroke-linejoin="round"><title>Alcazar Avenue</title></path><path d="M327.6,150.1 L299.4,152.2 L272.3,154.8 L259.1,156.0 L225.7,158.9 L186.5,163.4 L183.7,163.5 L176.1,163.9" fill="none" stroke="#cec8bb" stroke-width="4.3" stroke-linecap="round" stroke-linejoin="round"/><path d="M327.6,150.1 L299.4,152.2 L272.3,154.8 L259.1,156.0 L225.7,158.9 L186.5,163.4 L183.7,163.5 L176.1,163.9" fill="none" stroke="#ffffff" stroke-width="3.2" stroke-linecap="round" stroke-linejoin="round"><title>Minorca Avenue</title></path><path d="M176.1,163.9 L166.0,164.7" fill="none" stroke="#cec8bb" stroke-width="4.3" stroke-linecap="round" stroke-linejoin="round"/><path d="M176.1,163.9 L166.0,164.7" fill="none" stroke="#ffffff" stroke-width="3.2" stroke-linecap="round" stroke-linejoin="round"><title>Minorca Avenue</title></path><path d="M163.7,90.6 L156.1,91.2 L153.1,91.5 L97.5,95.9 L93.3,96.3 L43.4,100.2" fill="none" stroke="#cec8bb" stroke-width="4.3" stroke-linecap="round" stroke-linejoin="round"/><path d="M163.7,90.6 L156.1,91.2 L153.1,91.5 L97.5,95.9 L93.3,96.3 L43.4,100.2" fill="none" stroke="#ffffff" stroke-width="3.2" stroke-linecap="round" stroke-linejoin="round"><title>Navarre Avenue</title></path><path d="M217.5,85.9 L184.7,89.2 L181.5,89.4 L173.9,90.0" fill="none" stroke="#cec8bb" stroke-width="4.3" stroke-linecap="round" stroke-linejoin="round"/><path d="M217.5,85.9 L184.7,89.2 L181.5,89.4 L173.9,90.0" fill="none" stroke="#ffffff" stroke-width="3.2" stroke-linecap="round" stroke-linejoin="round"><title>Navarre Avenue</title></path><path d="M311.1,242.7 L285.3,262.6 L243.0,289.8 L236.1,294.4 L231.7,298.1 L229.6,300.4 L227.9,302.8 L226.4,305.6" fill="none" stroke="#cec8bb" stroke-width="4.3" stroke-linecap="round" stroke-linejoin="round"/><path d="M311.1,242.7 L285.3,262.6 L243.0,289.8 L236.1,294.4 L231.7,298.1 L229.6,300.4 L227.9,302.8 L226.4,305.6" fill="none" stroke="#ffffff" stroke-width="3.2" stroke-linecap="round" stroke-linejoin="round"><title>Alhambra Circle</title></path><path d="M43.4,100.2 L31.4,101.0" fill="none" stroke="#cec8bb" stroke-width="4.3" stroke-linecap="round" stroke-linejoin="round"/><path d="M43.4,100.2 L31.4,101.0" fill="none" stroke="#ffffff" stroke-width="3.2" stroke-linecap="round" stroke-linejoin="round"><title>Navarre Avenue</title></path><path d="M31.4,101.0 L-12.3,103.5 L-15.3,103.6 L-23.2,104.0 L-30.0,104.5 L-32.9,104.7 L-125.0,111.5" fill="none" stroke="#cec8bb" stroke-width="4.3" stroke-linecap="round" stroke-linejoin="round"/><path d="M31.4,101.0 L-12.3,103.5 L-15.3,103.6 L-23.2,104.0 L-30.0,104.5 L-32.9,104.7 L-125.0,111.5" fill="none" stroke="#ffffff" stroke-width="3.2" stroke-linecap="round" stroke-linejoin="round"><title>Navarre Avenue</title></path><path d="M161.5,16.8 L154.1,17.3 L151.1,17.6 L117.1,19.5 L104.1,20.4 L94.3,21.0 L27.4,24.5 L-12.4,26.3 L-15.7,26.4 L-20.8,26.7" fill="none" stroke="#cec8bb" stroke-width="4.3" stroke-linecap="round" stroke-linejoin="round"/><path d="M161.5,16.8 L154.1,17.3 L151.1,17.6 L117.1,19.5 L104.1,20.4 L94.3,21.0 L27.4,24.5 L-12.4,26.3 L-15.7,26.4 L-20.8,26.7" fill="none" stroke="#ffffff" stroke-width="3.2" stroke-linecap="round" stroke-linejoin="round"><title>Majorca Avenue</title></path><path d="M171.8,16.1 L161.5,16.8" fill="none" stroke="#cec8bb" stroke-width="4.3" stroke-linecap="round" stroke-linejoin="round"/><path d="M171.8,16.1 L161.5,16.8" fill="none" stroke="#ffffff" stroke-width="3.2" stroke-linecap="round" stroke-linejoin="round"><title>Majorca Avenue</title></path><path d="M173.9,90.0 L163.7,90.6" fill="none" stroke="#cec8bb" stroke-width="4.3" stroke-linecap="round" stroke-linejoin="round"/><path d="M173.9,90.0 L163.7,90.6" fill="none" stroke="#ffffff" stroke-width="3.2" stroke-linecap="round" stroke-linejoin="round"><title>Navarre Avenue</title></path><path d="M166.0,164.7 L158.2,165.4 L153.5,165.8 L101.7,170.3 L52.3,174.6 L-10.9,180.5 L-13.9,180.8" fill="none" stroke="#cec8bb" stroke-width="4.3" stroke-linecap="round" stroke-linejoin="round"/><path d="M166.0,164.7 L158.2,165.4 L153.5,165.8 L101.7,170.3 L52.3,174.6 L-10.9,180.5 L-13.9,180.8" fill="none" stroke="#ffffff" stroke-width="3.2" stroke-linecap="round" stroke-linejoin="round"><title>Minorca Avenue</title></path><path d="M250.9,83.7 L217.5,85.9" fill="none" stroke="#cec8bb" stroke-width="4.3" stroke-linecap="round" stroke-linejoin="round"/><path d="M250.9,83.7 L217.5,85.9" fill="none" stroke="#ffffff" stroke-width="3.2" stroke-linecap="round" stroke-linejoin="round"><title>Navarre Avenue</title></path><path d="M180.8,315.5 L179.2,254.3 L179.2,252.8 L179.2,249.8 L179.0,242.3 L178.8,232.8 L176.4,173.5 L176.1,163.9" fill="none" stroke="#d1c4aa" stroke-width="4.9" stroke-linecap="round" stroke-linejoin="round"/><path d="M180.8,315.5 L179.2,254.3 L179.2,252.8 L179.2,249.8 L179.0,242.3 L178.8,232.8 L176.4,173.5 L176.1,163.9" fill="none" stroke="#f4d99b" stroke-width="3.5" stroke-linecap="round" stroke-linejoin="round"><title>Ponce de Leon Boulevard</title></path><path d="M159.1,-57.3 L161.5,16.8 L163.4,79.5 L163.7,90.6 L164.3,111.4 L164.6,123.3 L166.0,164.7" fill="none" stroke="#d1c4aa" stroke-width="4.9" stroke-linecap="round" stroke-linejoin="round"/><path d="M159.1,-57.3 L161.5,16.8 L163.4,79.5 L163.7,90.6 L164.3,111.4 L164.6,123.3 L166.0,164.7" fill="none" stroke="#f4d99b" stroke-width="3.5" stroke-linecap="round" stroke-linejoin="round"><title>Ponce de Leon Boulevard</title></path><path d="M166.0,164.7 L168.0,230.3 L168.1,231.6 L168.1,233.2 L168.4,243.2 L168.6,249.8 L170.1,310.6" fill="none" stroke="#d1c4aa" stroke-width="4.9" stroke-linecap="round" stroke-linejoin="round"/><path d="M166.0,164.7 L168.0,230.3 L168.1,231.6 L168.1,233.2 L168.4,243.2 L168.6,249.8 L170.1,310.6" fill="none" stroke="#f4d99b" stroke-width="3.5" stroke-linecap="round" stroke-linejoin="round"><title>Ponce de Leon Boulevard</title></path><path d="M176.1,163.9 L175.4,134.3 L175.1,123.2 L173.9,90.0 L172.4,36.5 L171.8,16.1 L169.5,-57.6" fill="none" stroke="#d1c4aa" stroke-width="4.9" stroke-linecap="round" stroke-linejoin="round"/><path d="M176.1,163.9 L175.4,134.3 L175.1,123.2 L173.9,90.0 L172.4,36.5 L171.8,16.1 L169.5,-57.6" fill="none" stroke="#f4d99b" stroke-width="3.5" stroke-linecap="round" stroke-linejoin="round"><title>Ponce de Leon Boulevard</title></path><text x="150.5" y="70.8" text-anchor="middle" font-family="Arial, sans-serif" font-size="6.5" font-weight="600" paint-order="stroke" stroke="#fbf1df" stroke-width="1.45" stroke-linejoin="round" fill="#98662b" textLength="62.4" lengthAdjust="spacing">Aromas del Peru</text><text x="147.1" y="46.9" text-anchor="middle" font-family="Arial, sans-serif" font-size="6.5" font-weight="600" paint-order="stroke" stroke="#f7edf6" stroke-width="1.45" stroke-linejoin="round" fill="#8f4b9f" textLength="25.0" lengthAdjust="spacing">Target</text><text x="199.1" y="214.7" text-anchor="middle" font-family="Arial, sans-serif" font-size="6.5" font-weight="600" paint-order="stroke" stroke="#fbf7ed" stroke-width="1.45" stroke-linejoin="round" fill="#514a42" textLength="83.2" lengthAdjust="spacing">Consulate of Hungary</text><text x="125.3" y="93.7" transform="rotate(-4.6 125.3 93.7)" text-anchor="middle" dominant-baseline="central" font-family="Arial, sans-serif" font-size="8.3" textLength="74.4" lengthAdjust="spacing" font-weight="650" paint-order="stroke" stroke="#fffaf0" stroke-width="2.05" stroke-linejoin="round" fill="#695f54">Navarre Avenue</text><text x="60.8" y="22.8" transform="rotate(-3.0 60.8 22.8)" text-anchor="middle" dominant-baseline="central" font-family="Arial, sans-serif" font-size="8.3" textLength="74.4" lengthAdjust="spacing" font-weight="650" paint-order="stroke" stroke="#fffaf0" stroke-width="2.05" stroke-linejoin="round" fill="#695f54">Majorca Avenue</text><text x="127.6" y="168.0" transform="rotate(-5.0 127.6 168.0)" text-anchor="middle" dominant-baseline="central" font-family="Arial, sans-serif" font-size="8.3" textLength="74.4" lengthAdjust="spacing" font-weight="650" paint-order="stroke" stroke="#fffaf0" stroke-width="2.05" stroke-linejoin="round" fill="#695f54">Minorca Avenue</text><text x="203.1" y="246.0" text-anchor="middle" font-family="Arial, sans-serif" font-size="6.5" textLength="18.0" lengthAdjust="spacing" font-weight="500" paint-order="stroke" stroke="#f3f5ee" stroke-width="1.55" stroke-linejoin="round" fill="#6f777a">162</text><text x="42.2" y="44.4" text-anchor="middle" font-family="Arial, sans-serif" font-size="6.5" textLength="18.0" lengthAdjust="spacing" font-weight="500" paint-order="stroke" stroke="#f3f5ee" stroke-width="1.55" stroke-linejoin="round" fill="#6f777a">232</text><text x="30.0" y="121.0" text-anchor="middle" font-family="Arial, sans-serif" font-size="6.5" textLength="18.0" lengthAdjust="spacing" font-weight="500" paint-order="stroke" stroke="#f3f5ee" stroke-width="1.55" stroke-linejoin="round" fill="#6f777a">260</text><text x="138.7" y="215.6" text-anchor="middle" font-family="Arial, sans-serif" font-size="6.5" textLength="18.0" lengthAdjust="spacing" font-weight="500" paint-order="stroke" stroke="#f3f5ee" stroke-width="1.55" stroke-linejoin="round" fill="#6f777a">2100</text><text x="34.2" y="155.2" text-anchor="middle" font-family="Arial, sans-serif" font-size="6.5" textLength="18.0" lengthAdjust="spacing" font-weight="500" paint-order="stroke" stroke="#f3f5ee" stroke-width="1.55" stroke-linejoin="round" fill="#6f777a">267</text><text x="18.5" y="42.6" text-anchor="middle" font-family="Arial, sans-serif" font-size="6.5" textLength="18.0" lengthAdjust="spacing" font-weight="500" paint-order="stroke" stroke="#f3f5ee" stroke-width="1.55" stroke-linejoin="round" fill="#6f777a">238</text><text x="80.8" y="225.8" text-anchor="middle" font-family="Arial, sans-serif" font-size="6.5" textLength="18.0" lengthAdjust="spacing" font-weight="500" paint-order="stroke" stroke="#f3f5ee" stroke-width="1.55" stroke-linejoin="round" fill="#6f777a">245</text><text x="81.0" y="150.7" text-anchor="middle" font-family="Arial, sans-serif" font-size="6.5" textLength="18.0" lengthAdjust="spacing" font-weight="500" paint-order="stroke" stroke="#f3f5ee" stroke-width="1.55" stroke-linejoin="round" fill="#6f777a">247</text><text x="211.3" y="171.1" text-anchor="middle" font-family="Arial, sans-serif" font-size="6.5" textLength="18.0" lengthAdjust="spacing" font-weight="500" paint-order="stroke" stroke="#f3f5ee" stroke-width="1.55" stroke-linejoin="round" fill="#6f777a">190</text><text x="185.3" y="47.9" text-anchor="middle" font-family="Arial, sans-serif" font-size="6.5" textLength="18.0" lengthAdjust="spacing" font-weight="500" paint-order="stroke" stroke="#f3f5ee" stroke-width="1.55" stroke-linejoin="round" fill="#6f777a">1915</text><text x="190.2" y="172.8" text-anchor="middle" font-family="Arial, sans-serif" font-size="6.5" textLength="18.0" lengthAdjust="spacing" font-weight="500" paint-order="stroke" stroke="#f3f5ee" stroke-width="1.55" stroke-linejoin="round" fill="#6f777a">2101</text><text x="60.6" y="149.6" text-anchor="middle" font-family="Arial, sans-serif" font-size="6.5" textLength="18.0" lengthAdjust="spacing" font-weight="500" paint-order="stroke" stroke="#f3f5ee" stroke-width="1.55" stroke-linejoin="round" fill="#6f777a">255</text><text x="68.6" y="194.3" text-anchor="middle" font-family="Arial, sans-serif" font-size="6.5" textLength="18.0" lengthAdjust="spacing" font-weight="500" paint-order="stroke" stroke="#f3f5ee" stroke-width="1.55" stroke-linejoin="round" fill="#6f777a">250</text><text x="198.1" y="76.4" text-anchor="middle" font-family="Arial, sans-serif" font-size="6.5" textLength="18.0" lengthAdjust="spacing" font-weight="500" paint-order="stroke" stroke="#f3f5ee" stroke-width="1.55" stroke-linejoin="round" fill="#6f777a">1929</text><text x="197.0" y="28.8" text-anchor="middle" font-family="Arial, sans-serif" font-size="6.5" textLength="18.0" lengthAdjust="spacing" font-weight="500" paint-order="stroke" stroke="#f3f5ee" stroke-width="1.55" stroke-linejoin="round" fill="#6f777a">1901</text><text x="33.4" y="73.3" text-anchor="middle" font-family="Arial, sans-serif" font-size="6.5" textLength="18.0" lengthAdjust="spacing" font-weight="500" paint-order="stroke" stroke="#f3f5ee" stroke-width="1.55" stroke-linejoin="round" fill="#6f777a">261</text><text x="108.5" y="223.7" text-anchor="middle" font-family="Arial, sans-serif" font-size="6.5" textLength="18.0" lengthAdjust="spacing" font-weight="500" paint-order="stroke" stroke="#f3f5ee" stroke-width="1.55" stroke-linejoin="round" fill="#6f777a">225</text><text x="136.9" y="16.5" text-anchor="middle" font-family="Arial, sans-serif" font-size="6.5" textLength="18.0" lengthAdjust="spacing" font-weight="500" paint-order="stroke" stroke="#f3f5ee" stroke-width="1.55" stroke-linejoin="round" fill="#6f777a">1828</text><text x="146.8" y="134.4" text-anchor="middle" font-family="Arial, sans-serif" font-size="6.5" textLength="18.0" lengthAdjust="spacing" font-weight="500" paint-order="stroke" stroke="#f3f5ee" stroke-width="1.55" stroke-linejoin="round" fill="#6f777a">2020</text><text x="235.3" y="181.2" text-anchor="middle" font-family="Arial, sans-serif" font-size="6.5" textLength="18.0" lengthAdjust="spacing" font-weight="500" paint-order="stroke" stroke="#f3f5ee" stroke-width="1.55" stroke-linejoin="round" fill="#6f777a">2107</text><g><title>parking</title><circle cx="62.5" cy="120.4" r="6.0" fill="#2f8ec8" stroke="#ffffff" stroke-width="1.7"/><text x="62.5" y="120.6" text-anchor="middle" dominant-baseline="central" font-family="Arial, sans-serif" font-size="11.4" font-weight="700" fill="#ffffff">P</text></g><g><title>Ponce de Leon Boulevard &amp; Alcazar Avenue</title><rect x="159.6" y="228.5" width="6.9" height="6.1" rx="1.3" fill="#2796c9" stroke="#ffffff" stroke-width="1.05"/><rect x="160.8" y="229.7" width="4.4" height="2.1" rx="0.35" fill="#ffffff"/><circle cx="161.1" cy="233.5" r="0.5" fill="#ffffff"/><circle cx="164.9" cy="233.5" r="0.5" fill="#ffffff"/></g><g><title>Ponce de Leon Boulevard &amp; Minorca Avenue</title><rect x="177.8" y="170.0" width="6.9" height="6.1" rx="1.3" fill="#2796c9" stroke="#ffffff" stroke-width="1.05"/><rect x="179.1" y="171.2" width="4.4" height="2.1" rx="0.35" fill="#ffffff"/><circle cx="179.4" cy="175.0" r="0.5" fill="#ffffff"/><circle cx="183.1" cy="175.0" r="0.5" fill="#ffffff"/></g><g><title>Ponce de Leon Boulevard &amp; Navarre Avenue</title><rect x="154.8" y="76.7" width="6.9" height="6.1" rx="1.3" fill="#2796c9" stroke="#ffffff" stroke-width="1.05"/><rect x="156.1" y="78.0" width="4.4" height="2.1" rx="0.35" fill="#ffffff"/><circle cx="156.4" cy="81.7" r="0.5" fill="#ffffff"/><circle cx="160.1" cy="81.7" r="0.5" fill="#ffffff"/></g><g><title>Ponce de Leon Boulevard &amp; Majorca Avenue</title><rect x="174.1" y="32.8" width="6.9" height="6.1" rx="1.3" fill="#2796c9" stroke="#ffffff" stroke-width="1.05"/><rect x="175.3" y="34.1" width="4.4" height="2.1" rx="0.35" fill="#ffffff"/><circle cx="175.6" cy="37.8" r="0.5" fill="#ffffff"/><circle cx="179.4" cy="37.8" r="0.5" fill="#ffffff"/></g><g><title>signal</title><rect x="156.1" y="238.8" width="5.4" height="10.4" rx="2.1" fill="#3f4b52" stroke="#ffffff" stroke-width="1.1"/><circle cx="158.8" cy="241.2" r="1.1" fill="#d85a4f"/><circle cx="158.8" cy="244.0" r="1.1" fill="#e2b84b"/><circle cx="158.8" cy="246.8" r="1.1" fill="#55a86b"/></g><g><title>signal</title><rect x="161.6" y="106.2" width="5.4" height="10.4" rx="2.1" fill="#3f4b52" stroke="#ffffff" stroke-width="1.1"/><circle cx="164.3" cy="108.6" r="1.1" fill="#d85a4f"/><circle cx="164.3" cy="111.4" r="1.1" fill="#e2b84b"/><circle cx="164.3" cy="114.2" r="1.1" fill="#55a86b"/></g><g><title>signal</title><rect x="172.7" y="129.1" width="5.4" height="10.4" rx="2.1" fill="#3f4b52" stroke="#ffffff" stroke-width="1.1"/><circle cx="175.4" cy="131.5" r="1.1" fill="#d85a4f"/><circle cx="175.4" cy="134.3" r="1.1" fill="#e2b84b"/><circle cx="175.4" cy="137.1" r="1.1" fill="#55a86b"/></g><g><title>Target</title><circle cx="147.1" cy="46.9" r="4.4" fill="#a34ab4" stroke="#ffffff" stroke-width="1.7"/><path d="M143.9,45.2 L145.5,43.9 L146.7,45.2 L147.4,45.2 L148.7,43.9 L150.2,45.2 L149.2,46.6 L148.4,46.1 V49.6 H145.8 V46.1 L145.0,46.6 Z" fill="#ffffff"/></g><g opacity="0.56"><title>crossing</title><path d="M172.8,121.4 L177.4,121.4 M172.8,123.2 L177.4,123.2 M172.8,125.0 L177.4,125.0" stroke="#ffffff" stroke-width="2.1" stroke-linecap="round"/><path d="M172.8,121.4 L177.4,121.4 M172.8,123.2 L177.4,123.2 M172.8,125.0 L177.4,125.0" stroke="#59656a" stroke-width="0.85" stroke-linecap="round"/></g><g opacity="0.56"><title>crossing</title><path d="M162.3,121.5 L166.9,121.5 M162.3,123.3 L166.9,123.3 M162.3,125.1 L166.9,125.1" stroke="#ffffff" stroke-width="2.1" stroke-linecap="round"/><path d="M162.3,121.5 L166.9,121.5 M162.3,123.3 L166.9,123.3 M162.3,125.1 L166.9,125.1" stroke="#59656a" stroke-width="0.85" stroke-linecap="round"/></g><g opacity="0.56"><title>crossing</title><path d="M183.9,239.9 L188.5,239.9 M183.9,241.7 L188.5,241.7 M183.9,243.5 L188.5,243.5" stroke="#ffffff" stroke-width="2.1" stroke-linecap="round"/><path d="M183.9,239.9 L188.5,239.9 M183.9,241.7 L188.5,241.7 M183.9,243.5 L188.5,243.5" stroke="#59656a" stroke-width="0.85" stroke-linecap="round"/></g><g opacity="0.56"><title>crossing</title><path d="M176.5,231.0 L181.0,231.0 M176.5,232.8 L181.0,232.8 M176.5,234.6 L181.0,234.6" stroke="#ffffff" stroke-width="2.1" stroke-linecap="round"/><path d="M176.5,231.0 L181.0,231.0 M176.5,232.8 L181.0,232.8 M176.5,234.6 L181.0,234.6" stroke="#59656a" stroke-width="0.85" stroke-linecap="round"/></g><g opacity="0.56"><title>crossing</title><path d="M179.2,87.6 L183.8,87.6 M179.2,89.4 L183.8,89.4 M179.2,91.2 L183.8,91.2" stroke="#ffffff" stroke-width="2.1" stroke-linecap="round"/><path d="M179.2,87.6 L183.8,87.6 M179.2,89.4 L183.8,89.4 M179.2,91.2 L183.8,91.2" stroke="#59656a" stroke-width="0.85" stroke-linecap="round"/></g><g opacity="0.56"><title>crossing</title><path d="M177.0,13.8 L181.6,13.8 M177.0,15.6 L181.6,15.6 M177.0,17.4 L181.6,17.4" stroke="#ffffff" stroke-width="2.1" stroke-linecap="round"/><path d="M177.0,13.8 L181.6,13.8 M177.0,15.6 L181.6,15.6 M177.0,17.4 L181.6,17.4" stroke="#59656a" stroke-width="0.85" stroke-linecap="round"/></g><g opacity="0.56"><title>crossing</title><path d="M151.8,15.5 L156.4,15.5 M151.8,17.3 L156.4,17.3 M151.8,19.1 L156.4,19.1" stroke="#ffffff" stroke-width="2.1" stroke-linecap="round"/><path d="M151.8,15.5 L156.4,15.5 M151.8,17.3 L156.4,17.3 M151.8,19.1 L156.4,19.1" stroke="#59656a" stroke-width="0.85" stroke-linecap="round"/></g></svg>