<svg xmlns="http://www.w3.org/2000/svg" width="256" height="256" viewBox="0 0 256 256"><defs><pattern id="park-dots" width="22" height="22" patternUnits="userSpaceOnUse"><circle cx="5" cy="5" r="2.1" fill="#63a95d" fill-opacity="0.26"/><circle cx="16" cy="7" r="1.55" fill="#76b970" fill-opacity="0.23"/><circle cx="10" cy="17" r="1.9" fill="#61a65b" fill-opacity="0.24"/><circle cx="21" cy="17" r="1.25" fill="#80c174" fill-opacity="0.18"/><circle cx="1" cy="19" r="1.2" fill="#70b46a" fill-opacity="0.17"/></pattern><pattern id="park-canopy" width="54" height="48" patternUnits="userSpaceOnUse"><circle cx="12" cy="11" r="3.6" fill="#5ea75a" fill-opacity="0.22"/><circle cx="31" cy="15" r="2.9" fill="#75ba6d" fill-opacity="0.18"/><circle cx="45" cy="31" r="3.3" fill="#67ae62" fill-opacity="0.20"/><circle cx="19" cy="39" r="2.5" fill="#83c378" fill-opacity="0.16"/></pattern></defs><rect width="256" height="256" fill="#f1efe7"/><path d="M-1445.9,-269.5 L-1437.5,25.1 L-1722.2,33.6 L-1758.8,246.2 L-1773.7,300.5 L-1799.5,359.3 L-1834.3,410.8 L-1877.9,454.5 L-1941.5,498.3 L-1970.7,511.6 L-1636.9,501.0 L-1632.6,883.4 L-1594.4,883.0 L-1585.6,1271.0 L-1581.0,1332.0 L-1578.0,1651.8 L-1571.2,1657.6 L-468.0,1669.4 L-436.8,841.4 L-183.1,9.4 L112.4,-589.3 L136.7,-735.4 L89.8,-741.9 L65.3,-735.8 L-0.3,-756.3 L-25.8,-855.7 L-46.2,-923.6 L-137.0,-1011.5 L-145.8,-1028.4 L-170.5,-1050.8 L-232.1,-958.8 L-284.3,-884.6 L-373.7,-597.2 L-454.5,-438.6 L-550.9,-355.6 L-602.6,-315.2 L-700.2,-299.0 L-703.8,-286.5 L-922.6,-282.5 L-1076.1,-276.4 L-1069.1,115.3 L-1256.1,117.8 L-1262.7,-275.6 L-1445.9,-269.5 Z" fill="#c4e7bd" stroke="#9fcf91" stroke-width="0.4"><title>R Hardy Matheson County Preserve</title></path><path d="M-1445.9,-269.5 L-1437.5,25.1 L-1722.2,33.6 L-1758.8,246.2 L-1773.7,300.5 L-1799.5,359.3 L-1834.3,410.8 L-1877.9,454.5 L-1941.5,498.3 L-1970.7,511.6 L-1636.9,501.0 L-1632.6,883.4 L-1594.4,883.0 L-1585.6,1271.0 L-1581.0,1332.0 L-1578.0,1651.8 L-1571.2,1657.6 L-468.0,1669.4 L-436.8,841.4 L-183.1,9.4 L112.4,-589.3 L136.7,-735.4 L89.8,-741.9 L65.3,-735.8 L-0.3,-756.3 L-25.8,-855.7 L-46.2,-923.6 L-137.0,-1011.5 L-145.8,-1028.4 L-170.5,-1050.8 L-232.1,-958.8 L-284.3,-884.6 L-373.7,-597.2 L-454.5,-438.6 L-550.9,-355.6 L-602.6,-315.2 L-700.2,-299.0 L-703.8,-286.5 L-922.6,-282.5 L-1076.1,-276.4 L-1069.1,115.3 L-1256.1,117.8 L-1262.7,-275.6 L-1445.9,-269.5 Z" fill="url(#park-dots)" stroke="none"/><path d="M-1445.9,-269.5 L-1437.5,25.1 L-1722.2,33.6 L-1758.8,246.2 L-1773.7,300.5 L-1799.5,359.3 L-1834.3,410.8 L-1877.9,454.5 L-1941.5,498.3 L-1970.7,511.6 L-1636.9,501.0 L-1632.6,883.4 L-1594.4,883.0 L-1585.6,1271.0 L-1581.0,1332.0 L-1578.0,1651.8 L-1571.2,1657.6 L-468.0,1669.4 L-436.8,841.4 L-183.1,9.4 L112.4,-589.3 L136.7,-735.4 L89.8,-741.9 L65.3,-735.8 L-0.3,-756.3 L-25.8,-855.7 L-46.2,-923.6 L-137.0,-1011.5 L-145.8,-1028.4 L-170.5,-1050.8 L-232.1,-958.8 L-284.3,-884.6 L-373.7,-597.2 L-454.5,-438.6 L-550.9,-355.6 L-602.6,-315.2 L-700.2,-299.0 L-703.8,-286.5 L-922.6,-282.5 L-1076.1,-276.4 L-1069.1,115.3 L-1256.1,117.8 L-1262.7,-275.6 L-1445.9,-269.5 Z" fill="url(#park-canopy)" stroke="none"/><path d="M-1.0,-1.0 L257.0,-1.0 L257.0,257.0 L-1.0,257.0 L-1.0,-1.0 Z" fill="#add7e1" stroke="none" fill-rule="evenodd"><title>Biscayne Bay</title></path><path d="M1083.1,-4265.4 L3040.4,-4058.5 L5463.8,-3127.5 L7141.5,-1886.3 L7700.8,285.4 L6582.3,905.9 L1362.7,905.9 L244.2,-1782.9 Z" fill="#add7e1" stroke="none"><title>Biscayne Bay</title></path></svg>